<!--?xml version="1.0" encoding="utf-8"?-->
<!-- Generator: Adobe Illustrator 24.2.3, SVG Export Plug-In . SVG Version: 6.00 Build 0)  -->
<svg version="1.1" id="Camada_1" xmlns="http://www.w3.org/2000/svg" xmlns:xlink="http://www.w3.org/1999/xlink" x="0px" y="0px" viewBox="0 0 229 418" style="enable-background:new 0 0 229 418;" xml:space="preserve">
<style type="text/css">
	.st0{fill:#FD0202;}
	.st1{fill:#607E4E;}
	.st2{fill:#84CBC9;}
</style>
<g onclick="select(this)" class="" id="gola-primaria" fill="#009045">
	<path d="M78,8c0.8-0.1,1.3-0.6,1.8-1.1c0.8-0.7,1.6-1.4,2.2-2.2c2.4-3.4,5.9-4.1,9.6-4.1c10.8-0.1,21.7,0,32.5,0
		c3.7,0,7.4,0,11,0c2.1,0,4.1,0.4,6.1,0.9c1.2,0.3,2.2,1,3.1,2c1.5,1.8,3,3.7,5.1,4.9c1.9,0.9,2.2,2,1.6,4.7c-0.9,4-3.1,7.3-6,10.1
		c-3.2,3.1-6.7,5.8-10.6,8c-2.5,1.4-5,2.6-7.6,3.6c-4.9,1.8-10,2.5-15.3,2.1c-6.9-0.5-13.4-2.4-19.3-6.2c-4.7-3-9.1-6.2-12.5-10.7
		c-1.6-2.1-2.7-4.4-3.4-7C75.9,10.5,76.3,9.2,78,8z M144.3,9.1c-1.6,0.1-3.1,0.2-4.5,0.3c-8.3,0.7-16.6,1.3-25,1.5
		c-6.4,0.2-12.8-0.5-19.1-1C91.9,9.6,88,9.2,84.2,8.9c-0.8-0.1-1.1,0.1-0.7,0.9c0.5,1.1,1,2.3,1.8,3.2c3.9,4.9,8.5,9,14.2,11.7
		c5.4,2.7,11.2,4.2,17.3,3.4c9.8-1.2,17.7-6,24.1-13.4C142.3,13.2,143.5,11.4,144.3,9.1z"></path>
</g>
<g onclick="select(this)" class="" id="estampa-primaria" fill="#009045">
	<path d="M229,116.1c-6.9,2.8-14,4.3-21.3,5.2c-6.2,0.8-12.4,0.7-18.6,0c-1.5-0.2-3.1-0.4-4.6-1.3c-0.2,2.1-0.4,4.1-0.6,6
		c-0.9,7.2-1.3,14.5-1.4,21.8c0,2.2,0.1,4.4,0.5,6.6c0.4,2-0.1,3.9-0.2,5.8c0,0.7-0.2,1.4-0.1,2.2c0.2,6.5-0.6,13.1,0,19.6
		c0.1,1.5,0,3-0.1,4.4c-0.3,3.1,0.2,6.1,0.9,9.1c1.6,7.2,1.4,14.5,0.3,21.8c-0.3,2.1-0.4,4.2,0.3,6.4c1.8,5.4,1.8,11,0.9,16.6
		c-0.2,1.5-0.3,2.9,0.1,4.4c0.9,3.8,0.4,7.7,0.6,11.6c0.3,5.9,0.7,11.8,1.4,17.7c0.3,2,0.2,4.1,0.3,6.2c0,1.7-0.4,2.2-2.1,2.7
		c-3,0.9-6.1,1.2-9.2,1.5c-7.7,0.8-15.4,0.9-23.1,1c-11.2,0.2-22.5,0.7-33.7,0.8c-12.5,0.2-24.9-0.8-37.4-0.8
		c-8.4,0-16.8-0.1-25.2-0.7c-4.1-0.3-8.3-0.8-12.4-1.7c-0.2,0-0.3-0.1-0.5-0.1c-3.4-0.8-3.7-1.2-3.5-4.7c0.5-7.7,1-15.5,1.5-23.2
		c0.1-2.1,0.3-4.1,0.2-6.2c0-1.8,0-3.5,0.4-5.3c0.4-2.3,0.5-4.5,0.1-6.8c-0.4-2.5-0.1-5,0.4-7.5c0.2-1,0.2-2,0.1-3
		c-0.3-4.5-1-9.1-0.8-13.6c0.2-4.4,1.2-8.5,2.7-12.6c0.4-1,0.6-2,0.4-3.1c-0.2-1.2-0.2-2.5,0.1-3.7c0.3-1.7,0.2-3.3,0.1-5
		c-0.2-3.3-0.2-6.5-0.2-9.8c-0.1-12.9,0-25.9-0.1-38.8c0-5.1-1-10.2-1.5-15.3c-0.1-1.3-0.3-2.6-0.5-3.8c-8.8,2.5-17.7,2-26.6,1.1
		c-4.7-0.5-9.4-1.3-14-2.8c-0.9-0.3-1.7-0.6-2.5-1.2c0-1,0-2.1,0-3.1c0.4-0.1,0.3-0.4,0.3-0.7c0.3-1.8,0.7-3.7,1-5.5
		c1.9-10,2.9-20.1,4.4-30.1c0.9-6,1.5-12,3.2-17.8c2.7-9.7,7.4-18.3,15.2-24.9c1.1-0.9,2.2-1.9,3.2-2.9c0.6-0.6,1.3-1,2-1.4
		c6.5-3.1,13.1-5.9,19.8-8.7c7.6-3.1,15-6.6,22.1-10.7c1-0.6,2-1.3,2.8-2.2C75.2,8.7,76.4,8,78,8c-1.7,1.3-2.1,2.5-1.5,4.8
		c0.7,2.5,1.8,4.8,3.4,7c3.3,4.5,7.8,7.8,12.5,10.7c5.9,3.7,12.4,5.7,19.3,6.2c5.2,0.4,10.3-0.4,15.3-2.1c2.7-1,5.2-2.2,7.6-3.6
		c3.9-2.2,7.4-4.9,10.6-8c2.8-2.8,5.1-6.1,6-10.1c0.6-2.7,0.2-3.8-1.6-4.7c1.8-0.1,3,1,4.1,2.2c0.3,0.3,0.4,0.7,0.8,0.9
		c4,2.3,7.9,4.8,12.1,6.7c10.4,4.7,21.1,8.8,31.5,13.6c0.7,0.3,1.3,0.7,1.9,1.2c1.1,0.9,2.1,1.8,3.2,2.7c3.7,2.9,6.8,6.3,9.4,10.2
		c4.3,6.6,6.7,13.9,8.3,21.6c1,4.9,1.2,9.8,2.4,14.7c1.5,5.7,2.6,11.5,3.5,17.4c0.5,3.6,1,7.3,1.7,10.8c0.2,0.8-0.2,1.9,0.8,2.5
		C229,113.7,229,114.9,229,116.1z"></path>
	<path d="M144.3,9.1c-0.8,2.3-2.1,4.1-3.5,5.8c-6.4,7.4-14.3,12.2-24.1,13.4c-6.1,0.7-11.8-0.8-17.3-3.4C93.8,22,89.1,18,85.2,13
		c-0.8-1-1.3-2.1-1.8-3.2c-0.4-0.9-0.1-1,0.7-0.9c3.9,0.4,7.7,0.8,11.6,1.1c6.4,0.5,12.7,1.2,19.1,1c8.3-0.2,16.7-0.8,25-1.5
		C141.3,9.3,142.7,9.2,144.3,9.1z"></path>
</g>
<g onclick="select(this)" class="" id="estampa-secundaria" fill="#005425">
	<path d="M44,125.5c0-0.2-0.1-0.5-0.1-0.7c0.8-1.6,1.6-3.2,2.4-4.8c2.8-5.7,5.5-11.4,8.4-17.1c0.5-1,0.6-1.8,0.1-2.8
		c-3.5-7-7-14-10.4-21.1c-0.2-0.3-0.2-0.7-0.7-0.8c-1.3,2.6-2.6,5.2-3.9,7.8c-0.5,1-0.9,2.2-1.7,3c-1.4-3.3-2.4-6.8-4-10
		c-0.8-1.5-1-3.2-1.2-4.9c-0.2-2.9,0-5.7,0-8.6c0-3.6-0.5-7.1-0.5-10.7c0.5,0.4,0.6,0.9,0.8,1.4c2.9,5.9,5.8,11.8,8.7,17.7
		c0.6,1.1,1.1,2.3,1.7,3.5c0.2-0.3,0.3-0.4,0.4-0.6C47.8,69.7,51.4,62.3,55,55c0.3-0.7,0.2-1.2-0.1-1.8c-2.8-5.7-5.5-11.4-8.3-17
		c-0.8-1.7-1.8-3.4-2.7-5.2c-0.1,0.1-0.2,0.1-0.3,0.2c-2.5,5.1-5.1,10.2-7.6,15.4c-1.2,2.4-2.4,4.8-3.6,7.3c0-1.7-0.7-3.3-0.8-5
		c-0.2-2.9-0.7-5.8-1.4-8.7c-0.7-2.6-1.5-5.2-1.3-8c0.1-0.4,0.4-0.5,0.7-0.6c3.9-1.8,7.7-3.6,11.6-5.4c0.2-0.1,0.5-0.1,0.7,0
		c0.4,1.5,1.3,2.8,2,4.5c1.2-2.5,2.3-4.6,3.3-6.8c3.5-1.6,7.1-3.1,10.6-4.7c1-0.5,2-0.9,3-1.4c1.9,3.9,3.9,7.8,5.8,11.7
		c0.1,0.2,0.2,0.6,0.5,0.6c0.4,0,0.4-0.4,0.5-0.7c2.1-4.1,4.1-8.2,6.2-12.3c0.8-1.7,1.5-3.4,2.6-5c0.6,2.7,1.8,5.2,3.5,7.4
		c1.6,2.1,3.4,4.2,5.6,5.7c2.2,1.5,3.9,3.5,6.4,4.7c3.5,1.9,7,3.7,10.9,4.9c2.6,0.8,5.4,1,8.1,1.7c-2.7,5.6-5.4,11.1-8.1,16.7
		c-0.3,0.6-0.4,1.2-0.1,1.8c3.5,7.2,7.1,14.3,10.6,21.5c0.1,0.2,0.1,0.6,0.5,0.6c0.3,0,0.4-0.4,0.5-0.6c3.6-7.3,7.1-14.5,10.7-21.8
		c0.2-0.4,0.2-0.8,0-1.2c-1.1-2.3-2.2-4.5-3.3-6.8c-1.6-3.3-3.2-6.7-4.8-10c3.9-0.5,7.7-1.3,11.3-2.7c3-1.2,5.7-2.7,8.5-4.3
		c0.4,0.6,0.3,1.2,0,1.9c-3.5,7.1-7,14.2-10.5,21.3c-0.5,0.9-0.5,1.7,0,2.6c0.7,1.2,1.2,2.5,1.8,3.8c2.9,5.9,5.8,11.8,8.7,17.6
		c0.4,0.7,0.3,1.2-0.1,1.9c-3.6,7.2-7.1,14.3-10.6,21.5c-0.4,0.7-0.3,1.3,0,2c3.5,7.2,7,14.4,10.6,21.5c0.4,0.9,0.4,1.6,0,2.4
		c-3.6,7.1-7.1,14.1-10.5,21.3c-0.4,0.8-0.3,1.5,0.1,2.3c3.5,7.1,7,14.2,10.5,21.3c0.3,0.6,0.5,1,0.1,1.7c-0.9,1.8-1.7,3.6-2.6,5.4
		c-2.8,5.4-5.4,10.9-8,16.4c-0.4,0.9-0.4,1.7,0,2.6c3.5,7.1,7,14.2,10.5,21.3c0.3,0.6,0.3,1.1,0,1.7c-3.6,7.2-7.1,14.4-10.6,21.6
		c-0.4,0.9-0.4,1.5,0,2.4c3.5,7.1,7,14.2,10.5,21.3c0.4,0.8,0.4,1.3,0,2.1c-0.7,1.3-1.3,2.6-1.9,3.9c-2.4,5-4.9,10-7.3,15
		c-1.3,0.1-2.6,0.2-3.9,0c-0.1-0.2-0.1-0.5-0.2-0.7c-3.1-6.2-6.1-12.4-9.2-18.6c-0.1-0.1-0.2-0.3-0.4-0.2c-1.9,3.8-3.8,7.5-5.6,11.3
		c-1.3,2.6-2.7,5.2-3.7,7.9c-1.4,0.2-2.8,0-4.1,0c-3.2-6.4-6.3-12.9-9.6-19.5c-3.2,6.6-6.3,12.8-9.4,19.1c-0.7,0.5-1.5,0.1-2.2,0.1
		c-0.7-0.1-1.5-0.1-2.2-0.1c-0.2-0.4-0.3-0.8-0.4-1.1c-2.7-5.4-5.4-10.8-8.1-16.2c-0.2-0.5-0.5-1-0.8-1.5c-0.5,0.3-0.5,0.7-0.7,1
		c-1.9,3.8-3.8,7.6-5.7,11.4c-0.9,1.9-1.8,3.8-2.7,5.8c-0.1,0-0.3,0.1-0.4,0.1c-0.1,0-0.2,0-0.3,0c-1.6-0.2-3.2-0.1-4.8-0.6
		c-2.7-6-5.8-11.8-8.8-18c-0.7,1.4-1.2,2.6-1.8,3.7c-0.4,0.7-0.4,1.5-1.2,1.9c0.2-3.3,0.5-6.7,0.7-10c0.6,0,0.6,0.6,0.8,0.9
		c0.5,1,1,2,1.5,2.9c0.5-0.3,0.6-0.8,0.8-1.2c3.4-6.9,6.8-13.8,10.2-20.6c0.5-1,0.5-1.8,0-2.8c-3.1-6.2-6.1-12.4-9.1-18.6
		c-0.5-1.1-1.1-2.1-1.7-3.3c-0.5,0.5-0.5,1.3-1.1,1.5c0-0.2-0.1-0.3-0.1-0.5c0.1-0.3,0.1-0.7-0.1-1c-0.1-0.6-0.1-1.3-0.2-1.9
		c0,0,0.1-0.1,0.1-0.1c0-0.1-0.1-0.1-0.1-0.2c0-0.1,0-0.3,0-0.4c0.9,0.3,0.7,1.5,1.5,1.9c0.1-0.2,0.3-0.3,0.3-0.5
		c3.6-7.3,7.2-14.6,10.8-21.9c0.3-0.6,0.3-1,0-1.6c-3.2-6.5-6.2-13-9.6-19.4c0-0.6,0-1.1,0-1.7c0.3-0.6,0.2-1.3,0.1-1.9
		c0-0.9,0-1.8,0-2.6c0-0.8,0.3-1.5,0.7-2.1c2.9-5.8,5.7-11.5,8.5-17.3c0.3-0.7,0.5-1.3,0.1-2.1C51.4,140.2,47.7,132.9,44,125.5z
		 M67.1,124.7c0.4-0.3,0.5-0.7,0.7-1c3.4-6.9,6.8-13.9,10.3-20.9c0.2-0.4,0.3-1,0.8-1c0.5,0,0.6,0.6,0.7,1c3.5,7,6.9,14,10.4,21.1
		c0.1,0.2,0.1,0.6,0.4,0.7c0.3-0.1,0.4-0.5,0.6-0.8c3.5-7.2,7.1-14.3,10.6-21.5c0.3-0.6,0.3-1,0-1.6c-3.4-7.1-6.9-14.3-10.5-21.3
		c-0.2-0.4-0.2-0.9-0.8-1.2c-3.8,7.7-7.6,15.3-11.5,23.2c-3.9-7.9-7.7-15.6-11.5-23.4c-0.2,0.2-0.2,0.2-0.3,0.3
		c-3.7,7.4-7.3,14.7-11,22.1c-0.3,0.7-0.2,1.3,0.1,1.9c3.6,7.2,7.1,14.4,10.7,21.6C66.8,124.2,67,124.5,67.1,124.7z M67.1,219
		c0.2-0.3,0.3-0.4,0.4-0.5c3.7-7.4,7.3-14.8,11-22.2c0.2-0.5,0.1-0.8-0.1-1.2c-1.1-2.1-2.1-4.3-3.1-6.5c-2.4-5-4.9-10-7.4-14.9
		c-0.2-0.4-0.2-1-0.7-1c-0.4,0-0.5,0.6-0.7,0.9c-3.5,7-6.9,14-10.4,21c-0.4,0.8-0.4,1.5,0,2.4c2.6,5.3,5.2,10.7,7.8,16
		C64.9,214.9,66,216.9,67.1,219z M113.5,124.5c0.4-0.1,0.4-0.3,0.6-0.5c3.6-7.2,7.1-14.5,10.7-21.7c0.3-0.6,0.2-1.1-0.1-1.7
		c-3.5-7.2-7-14.3-10.6-21.5c-0.1-0.3-0.2-0.8-0.6-0.8c-0.3,0-0.4,0.5-0.5,0.8c-2,4-4,8.1-6,12.1c-1.5,3.1-3,6.2-4.5,9.3
		c-0.3,0.7-0.3,1.2,0.1,1.9c2.8,5.6,5.5,11.2,8.2,16.8C111.6,120.9,112.6,122.7,113.5,124.5z M67.2,219.6c-0.2,0.2-0.3,0.2-0.3,0.3
		c-3.7,7.4-7.3,14.8-11,22.2c-0.2,0.5-0.3,0.9,0,1.4c0.4,0.8,0.7,1.5,1.1,2.3c3.2,6.4,6.2,12.9,9.5,19.2c0.2,0.3,0.1,0.9,0.6,0.9
		c0.3,0,0.4-0.5,0.6-0.9c3.4-7,6.8-13.9,10.3-20.8c0.5-1,0.4-1.8-0.1-2.8c-2.3-4.5-4.5-9.1-6.7-13.6C69.9,225,68.6,222.3,67.2,219.6
		z M67.2,31c-0.1,0.1-0.3,0.2-0.3,0.3c-3.6,7.4-7.3,14.8-10.9,22.1c-0.3,0.7-0.3,1.2,0,1.8c3.5,7.2,7.1,14.3,10.6,21.5
		c0.1,0.2,0.2,0.6,0.5,0.6c0.1-0.1,0.2-0.2,0.2-0.3C71,69.7,74.6,62.3,78.3,55c0.3-0.6,0.2-1-0.1-1.6c-2.4-5-4.8-10-7.3-15
		C69.7,36,68.5,33.5,67.2,31z M113.6,172.6c-0.1,0.1-0.2,0.1-0.2,0.1c-3.7,7.4-7.3,14.9-11,22.4c-0.2,0.5-0.2,0.9,0,1.3
		c3.3,6.8,6.6,13.6,10,20.3c0.3,0.7,0.7,1.4,1.1,2.1c0.5-0.3,0.6-0.8,0.8-1.1c3.3-6.8,6.7-13.6,10.1-20.3c0.6-1.2,0.7-2.1,0-3.4
		c-3.4-6.7-6.7-13.5-10-20.3C114.1,173.3,114.1,172.8,113.6,172.6z M90.4,219.2c1-2.1,1.9-3.9,2.7-5.7c2.8-5.6,5.5-11.2,8.3-16.8
		c0.4-0.8,0.4-1.4,0-2.2c-3.5-6.9-6.9-13.9-10.3-20.9c-0.2-0.4-0.3-0.9-0.7-1c-0.1,0-0.1,0-0.1,0.1c-3.6,7.4-7.3,14.8-10.9,22.1
		c-0.3,0.7-0.3,1.3,0.1,2c1.3,2.6,2.6,5.3,3.9,8C85.6,209.5,87.9,214.2,90.4,219.2z M67.1,171.8c0.1-0.1,0.3-0.2,0.3-0.3
		c3.6-7.3,7.2-14.6,10.8-21.9c0.3-0.6,0.3-1.2,0-1.9c-2.7-5.6-5.4-11.1-8.2-16.7c-0.9-1.9-1.9-3.7-2.9-5.8
		c-3.8,7.8-7.5,15.3-11.2,22.8c-0.3,0.6-0.1,1,0.1,1.5c3,6.2,6.1,12.4,9.1,18.6C65.8,169.3,66.5,170.5,67.1,171.8z M113.5,125.5
		c-0.3,0.6-0.5,1.1-0.8,1.6c-3.1,6.3-6.2,12.7-9.4,19c-1,1.9-0.9,3.4,0.1,5.3c3.3,6.3,6.3,12.8,9.5,19.2c0.2,0.3,0.2,0.9,0.6,0.9
		c0.5,0,0.6-0.6,0.7-0.9c3.5-7,6.9-14,10.4-20.9c0.4-0.8,0.3-1.5-0.1-2.2c-3.4-6.9-6.9-13.9-10.3-20.8
		C114.1,126.2,114,125.8,113.5,125.5z M90.4,77.7c3.8-7.8,7.5-15.3,11.2-22.8c0.3-0.6,0.1-1.1-0.2-1.7c-3.5-7-7-14.1-10.4-21.2
		c-0.2-0.3-0.2-0.7-0.6-0.8c-0.3,0-0.3,0.3-0.4,0.5c-3.6,7.2-7.1,14.5-10.7,21.7c-0.3,0.6-0.2,1.1,0.1,1.7c1.8,3.7,3.6,7.4,5.4,11.1
		C86.5,70,88.4,73.7,90.4,77.7z M113.5,266.1c0.3-0.7,0.6-1,0.7-1.4c3.4-6.9,6.8-13.8,10.3-20.7c0.4-0.9,0.4-1.5,0-2.4
		c-3.5-7.1-7-14.1-10.5-21.2c-0.1-0.3-0.2-0.7-0.7-0.8c-3.5,7.1-6.9,14.1-10.4,21.2c-0.7,1.4-0.7,2.5,0,3.9
		c2.3,4.6,4.5,9.2,6.8,13.7C111,261,112.2,263.4,113.5,266.1z M90.2,171.6c0.5-0.2,0.5-0.5,0.7-0.7c3.6-7.2,7.1-14.4,10.7-21.6
		c0.3-0.6,0.2-1.1-0.1-1.7c-3.5-7-6.9-14-10.3-20.9c-0.2-0.4-0.3-0.8-0.8-1.2c-0.6,1.2-1.1,2.3-1.7,3.4c-3.1,6.3-6.3,12.6-9.3,18.9
		c-0.2,0.4-0.4,0.8-0.1,1.3C82.9,156.6,86.5,164.1,90.2,171.6z M90.3,266.1c3.8-7.6,7.5-14.9,11-22.3c0.3-0.7,0.5-1.2,0.1-2
		c-3.5-7.1-7-14.2-10.5-21.3c-0.2-0.3-0.2-0.7-0.6-0.9c-0.1,0.2-0.2,0.3-0.3,0.5c-3.5,7.1-6.9,14.2-10.5,21.3c-0.5,1-0.5,1.8,0,2.8
		c3.3,6.5,6.5,13.1,9.7,19.7C89.6,264.6,89.9,265.2,90.3,266.1z"></path>
	<path d="M151.8,285.5c-1.7,0.4-3.4,0.2-5.1,0.2c-2.9-6-5.9-12-8.9-17.9c-0.3-0.6-0.2-1.1,0-1.7
		c3.6-7.2,7.1-14.5,10.7-21.7c0.4-0.7,0.3-1.3,0-2c-3.6-7.2-7.1-14.3-10.6-21.5c-0.4-0.7-0.4-1.3,0-2c3.6-7.2,7.1-14.4,10.7-21.6
		c0.4-0.8,0.4-1.4,0-2.1c-3.6-7.2-7.1-14.5-10.7-21.7c-0.3-0.6-0.3-1.1,0-1.7c3.6-7.2,7.1-14.4,10.7-21.6c0.4-0.8,0.4-1.4,0-2.1
		c-3.6-7.2-7.1-14.4-10.7-21.6c-0.3-0.6-0.4-1-0.1-1.7c3.1-6.3,6.2-12.5,9.3-18.8c2-4,2-4,0-8c-3.1-6.3-6.2-12.6-9.4-18.9
		c-0.2-0.5-0.3-0.9,0-1.4c3.7-7.4,7.3-14.8,10.9-22.1c0.3-0.5,0.3-0.9,0-1.4c-3.4-6.9-6.7-13.8-10.2-20.6c-0.8-1.5-1.1-2.7,0-4.1
		c0.3-0.4,0.5-0.8,0.5-1.3l0,0c0.1-0.1,0.2-0.1,0.3-0.2c2.1-1.9,4.4-3.6,6.4-5.6c2.8-2.9,4.8-6.2,5.6-10.2c0.3,0.5,0.6,0.9,0.8,1.4
		c2.7,5.5,5.4,11,8.2,16.5c0.2,0.3,0.2,0.9,0.7,0.9c0.4,0,0.5-0.6,0.6-0.9c1.9-3.8,3.8-7.6,5.7-11.5c4.4,1.9,8.8,3.8,13.1,5.7
		c0.2,0.1,0.3,0.2,0.5,0.3c0.7,2.2,2,4.1,2.9,6.1c0.3,0.5,0.5,0.4,0.7-0.1c0.5-1,1-2,1.4-3c0.2-0.4,0.4-0.8,0.9-0.7
		c4,1.5,7.7,3.6,11.6,5.2c0.1,0,0.2,0.2,0.4,0.3c0.1,1.5-0.3,2.9-0.7,4.3c-1.2,4.3-1.9,8.8-2.5,13.2c-0.2,1.3,0.6,2.7-0.4,4
		c-0.4-0.3-0.5-0.8-0.7-1.2c-2.2-4.5-4.4-9-6.6-13.6c-1.2-2.5-2.4-4.9-3.7-7.4c-0.6,0.5-0.7,1.1-1,1.6c-3.3,6.7-6.6,13.4-9.9,20.1
		c-0.5,1-0.7,1.8-0.2,2.9c3.4,7.1,6.9,14.2,10.5,21.3c0.1,0.2,0.2,0.5,0.6,0.7c2.3-4.7,4.6-9.4,7-14.2c1.3-2.5,2.3-5.2,3.8-7.6
		c0.2,3.5-0.3,7.1-0.2,10.6c0.3,8.1-1.3,15.8-5,23c-1.9-3.8-3.7-7.5-5.7-11.4c-0.2,0.3-0.3,0.4-0.4,0.6c-3.6,7.3-7.2,14.6-10.8,21.9
		c-0.4,0.7-0.2,1.3,0.1,2c3.4,6.8,6.7,13.7,10.1,20.5c0.3,0.7,0.6,1.4,0.7,2.1c-0.1,0.3-0.1,0.6-0.1,0.9
		c-3.7,7.2-7.2,14.6-10.8,21.9c-0.3,0.6-0.1,1.1,0.1,1.6c3.2,6.4,6.4,12.9,9.5,19.3c-0.1,2.4-0.2,4.8-0.2,7.2
		c-0.1,0.1-0.1,0.1-0.2,0.2c-3.1,6.3-6.2,12.7-9.3,19c-0.3,0.6-0.1,1,0.1,1.4c3.5,7.1,7,14.2,10.5,21.4c-0.1,1-0.1,2.1-0.2,3.1
		c-3.7,6.9-7,14.1-10.4,21.2c-0.2,0.5-0.1,0.9,0.1,1.4c3.3,7.1,6.9,14.1,10.4,21.1c0.2,0.4,0.3,0.9,0.9,1.3c0.3-0.6,0.6-1.2,0.9-1.8
		c0.3-0.5,0.3-1.2,1-1.3c0.2,2.8,0.4,5.5,0.6,8.3c-1.1-1-1.4-2.5-2.1-3.8c-0.1-0.2-0.1-0.6-0.4-0.7c-0.4,0-0.4,0.4-0.6,0.6
		c-1.6,3.2-3.3,6.4-4.9,9.6c-1.1,2.3-2.2,4.6-3.2,6.9c-1.9,0.5-3.9,0.5-5.9,0.5c-2.9-5.9-5.8-11.8-8.8-18c-0.3,0.4-0.4,0.6-0.5,0.8
		c-1.9,3.8-3.8,7.5-5.6,11.3C153.8,281.3,152.8,283.4,151.8,285.5z M160.7,125.3c0.5-0.2,0.5-0.5,0.7-0.7
		c3.6-7.2,7.1-14.4,10.7-21.6c0.4-0.7,0.2-1.3-0.1-1.9c-3.5-7.1-7-14.3-10.6-21.4c-0.1-0.3-0.2-0.7-0.7-0.9
		c-3.7,7.6-7.5,15.2-11.2,22.8c-0.2,0.5-0.1,0.8,0.1,1.1c0.6,1.2,1.2,2.4,1.8,3.7C154.5,112.6,157.6,118.9,160.7,125.3z
		 M160.8,219.7c0.2-0.4,0.4-0.7,0.6-1c3.5-7.1,7-14.2,10.5-21.3c0.4-0.9,0.4-1.5,0-2.4c-2.4-4.8-4.6-9.6-7-14.3
		c-1.3-2.6-2.6-5.1-3.9-7.7c-0.1,0.1-0.3,0.2-0.3,0.3c-3.7,7.5-7.4,15-11.1,22.4c-0.2,0.5-0.1,0.8,0.1,1.2
		C153.2,204.6,156.9,212.1,160.8,219.7z M160.8,78.1c0.7-0.8,0.9-1.8,1.4-2.7c3.2-6.4,6.3-12.8,9.5-19.2c0.5-1,0.4-1.9-0.1-2.9
		c-2.7-5.5-5.4-11-8.1-16.5c-0.9-1.7-1.8-3.4-2.7-5.2c-0.2,0.1-0.3,0.1-0.3,0.2c-3.6,7.4-7.3,14.8-10.9,22.1c-0.3,0.6-0.3,1.1,0,1.8
		c3.5,7,6.9,14,10.4,21.1C160.3,77.3,160.4,77.8,160.8,78.1z M160.8,126.2c-0.4,0.1-0.4,0.5-0.6,0.8c-3.1,6.3-6.2,12.7-9.4,19
		c-1.1,2.1-1.4,3.7-0.2,6c3.4,6.4,6.4,12.9,9.6,19.4c0.1,0.3,0.2,0.7,0.6,0.7c0.4,0,0.4-0.4,0.6-0.7c3.5-7.2,7.1-14.3,10.6-21.5
		c0.3-0.5,0.3-0.9,0.1-1.5c-3.6-7.3-7-14.6-10.8-21.8C161.2,126.5,161.1,126.3,160.8,126.2z M160.9,220.3c-0.5,0.3-0.6,0.8-0.8,1.1
		c-3.5,7-6.9,14.1-10.4,21.1c-0.4,0.7-0.3,1.3,0,2c3.5,7.1,7,14.3,10.6,21.4c0.1,0.3,0.2,0.6,0.6,0.7c0.2-0.3,0.4-0.7,0.6-1
		c3.4-7,6.8-13.9,10.3-20.8c0.4-0.9,0.5-1.6,0-2.4c-2.6-5.3-5.1-10.6-7.7-15.8C163,224.4,161.9,222.4,160.9,220.3z"></path>
</g>
<path d="M57.7,285c0.1,0,0.2,0,0.3,0C57.9,285.1,57.8,285.1,57.7,285z"></path>
<path d="M139.2,28.1c0.1-0.1,0.2-0.1,0.3-0.2C139.4,28,139.3,28,139.2,28.1z"></path>
</svg>
