<!--?xml version="1.0" encoding="utf-8"?-->
<!-- Generator: Adobe Illustrator 25.0.1, SVG Export Plug-In . SVG Version: 6.00 Build 0)  -->
<svg version="1.1" id="Camada_1" xmlns="http://www.w3.org/2000/svg" xmlns:xlink="http://www.w3.org/1999/xlink" x="0px" y="0px" viewBox="0 0 229 418" enable-background="new 0 0 229 418" xml:space="preserve">
<g onclick="select(this)" class="" id="estampa-primaria" fill="#a2cbbe">
	<path d="M42.4525146,112.7778625c-0.8959656-0.1017761-1.4921265,0.6431503-2.3408813,0.7894821
		c-2.3294182,0.4016266-4.6686974,0.4893799-7.0189934,0.5657349c-5.6645355,0.1840439-11.3184147-0.0333939-16.9397697-0.6843262
		c-5.0782709-0.5880508-9.9922829-1.9331818-14.739399-3.8523865c1.6968609-8.914566,2.4887414-17.9633636,4.0001216-26.9052277
		c0.8855782-5.2393951,1.1788788-10.5595551,2.2399788-15.7781677c1.7292542-8.504673,4.4516625-16.5878448,9.6675148-23.6606789
		c2.1221428-2.8776779,4.5377884-5.4906731,7.3400173-7.7103424c1.3638763-1.0803337,2.3639584-2.5835495,3.9253693-3.4050064
		c3.6099453-1.8991852,7.2583332-3.7276974,11.0324497-5.2813187c9.9905014-4.1125946,20.000515-8.1803665,29.4651909-13.4415846
		c1.9752426-1.0979939,3.9976349-2.0948963,5.5164642-3.8997173c0.8439026-1.0028076,2.0582657-1.6470857,3.4946365-1.5515785
		c-0.7558746,0.5328951-1.5331879,1.0660648-1.6987534,2.062746c-0.1725082,1.0384579-0.0040817,2.0608931,0.2305679,3.0806484
		c0.8830185,3.837533,3.1326141,6.8899431,5.7837296,9.6242762c4.1407776,4.2707672,9.0156021,7.5629692,14.3707428,10.1524506
		c3.6889725,1.783802,7.5359039,2.990303,11.6402817,3.2895241c0.3121796,0.0227585,0.7304688,0.2811508,0.9042816-0.2512054
		c0.4935303,0.34338,1.0183792,0.5796623,1.6344376,0.6280861c2.3348923,0.1835098,4.6674423,0.3629379,6.9804306-0.1974907
		c1.4196167-0.1702423,2.8583298-0.2460022,4.2553558-0.5279999c4.6530914-0.9392471,8.8572388-3.0047417,12.9284058-5.3568268
		c3.3010712-1.907156,6.3566895-4.1787777,9.102417-6.8089809c3.0971222-2.9667912,5.4711609-6.4257278,6.6416321-10.6471872
		c0.6194-2.2338791,0.0160675-4.2730255-1.6763763-4.744153c1.9420929-0.322947,3.1181183,0.8977289,4.248703,2.1526375
		c0.3474121,0.3856363,0.6847076,0.7271471,1.1279755,1.0213566c8.8716431,5.8886719,18.7898102,9.6126652,28.5267792,13.6823082
		c5.0673981,2.11796,10.038208,4.4440956,15.0911713,6.5874882c0.2853394,0.1210365,0.5591431,0.2838707,0.8124237,0.4636726
		c11.9666901,8.4952011,19.1779327,20.08321,21.3682709,34.4821701c1.7443542,11.4671555,4.7389374,22.6825333,6.318634,34.166687
		c0.3372803,2.4519806,0.734375,4.8957443,1.1039429,7.3433762c-0.6231995,0.2587509-1.2245331,0.6173401-1.8733063,0.7590942
		c-3.0727844,0.6713867-5.9807739,1.8872681-9.0736084,2.5406494c-3.9409485,0.8325424-7.895462,1.5586319-11.8859558,1.9935684
		c-5.5944672,0.6097641-11.2156982,0.2853394-16.8232422,0.0108337c-1.0757751-0.0526581-2.1148071-0.3867111-3.0544434-0.9562912
		c0.9133911-6.7970581,2.1953278-13.5191116,4.0814209-20.1194687c0.1157684-0.4051895,0.4060059-0.7978287,0.1864471-1.257576
		c0.2286835,0.013588,0.220459-0.1446915,0.208313-0.2966614c-0.0024261-0.0302887-0.0488129-0.0570526-0.0749512-0.0854416
		c-0.0375671,0.1338348-0.0751343,0.267662-0.1127014,0.4015045c-0.3382111,0.0892105-0.3290253,0.4327927-0.4303589,0.6598129
		c-2.0418243,4.5738068-3.5193329,9.3472748-4.7613068,14.1821518c-2.4084015,9.3755341-3.9837952,18.8970871-4.9313965,28.5371094
		c-0.4706268,4.7878876-0.8178406,9.5828094-1.1401062,14.3773499c-0.3235474,4.8140259-0.4896545,9.6474457-0.4935303,14.4725189
		c-0.0137329,17.0256653-0.293335,34.0512085,0.1540527,51.0777435c0.191925,7.3041687,0.2595215,14.6112518,0.5149689,21.9160767
		c0.170105,4.8651276,0.3197784,9.7314301,0.4851532,14.597168c0.2033081,5.9811401,0.4586487,11.9578552,0.7411346,17.9355164
		c0.2373199,5.0215149,0.4161835,10.0449524,0.8100586,15.0577393c-7.654129,1.0699463-15.3581696,1.3612976-23.0732422,1.4522095
		c-12.9472198,0.1525879-25.8881531,0.5621033-38.8301086,0.9285583c-6.7608643,0.1914368-13.4958496-0.465271-20.2470093-0.5768127
		c-8.7105942-0.1439209-17.4220123-0.2460938-26.1319199-0.4232483c-8.3101959-0.1690063-16.6230583-0.3526306-24.8476982-1.7511597
		c0.5422516-3.7596436,0.4815598-7.5604248,0.7390556-11.3394775c0.3821983-5.6092529,0.5796967-11.2329712,0.7604179-16.8535767
		c0.1423416-4.4268494,0.2932549-8.852417,0.473175-13.2781372c0.2545853-6.2624054,0.3896675-12.5300751,0.535202-18.7964172
		c0.0927391-3.9929047,0.1909142-7.9915466,0.1893997-11.9799347c-0.00811-21.4069519,0.6336784-42.8216705-0.6577225-64.2175446
		c-0.2539635-4.2076416-0.5594025-8.4050293-0.9685097-12.6003418c-0.4473228-4.5871887-1.0582695-9.1419525-1.8283081-13.6878357
		c-1.0712128-6.3238525-2.2926559-12.6049652-4.1846809-18.7393494c-0.5815163-1.8854294-1.0368538-3.8216553-1.9383469-5.6982117
		c-0.5278625,0.8900604,0.2040977,1.4512558,0.2923431,2.1296234c0.3710556,2.852478,0.8811569,5.6868515,1.2544365,8.5390854
		C42.1011581,108.9703293,42.5416451,110.8479462,42.4525146,112.7778625z"></path>
	<path d="M127.5429077,26.2013454c-6.4310379-0.0194588-12.8620758-0.0499077-19.2931213-0.0533142
		c-2.8337784-0.0015011-5.6675949,0.0519543-8.5014725,0.080719c-5.0048599-4.1429901-10.5227814-7.7175179-14.446312-13.0585613
		c-0.7870941-1.0714455-1.3979874-2.228776-1.9132462-3.447176c-0.3056183-0.7226677-0.0586929-0.9086885,0.6669769-0.8316221
		c7.1110229,0.755187,14.2389526,1.3106298,21.3717041,1.816123c5.5933609,0.3963957,11.1826706,0.3527241,16.7722092-0.018959
		c5.381424-0.3578434,10.7616425-0.7339849,16.1413574-1.1168613c1.9062347-0.1356678,3.8093567-0.3148613,5.8538818-0.4858923
		c-0.84935,2.3374853-2.1702576,4.2213564-3.6611938,5.995595c-1.937149,2.3052006-4.1574707,4.311861-6.5503387,6.1364632
		C131.8248596,22.8637238,129.6888275,24.5390263,127.5429077,26.2013454z"></path>
</g>
<g onclick="select(this)" class="" id="estampa-secundaria" fill="#30a683">
	<path d="M168.0164642,201.9971924c-3.2304993-0.0097961-6.4610596-0.0115662-9.6914215-0.0374146
		c-0.5238647-0.0042114-0.6773834,0.1688995-0.6605835,0.6939087c0.0325623,1.0173035-0.001358,1.0258636-0.9938202,1.026413
		c-2.1541443,0.0011749-4.3085175-0.0240021-6.4622955,0.0017242c-0.6026459,0.0072021-0.9067078-0.0794678-1.0058899-0.7903442
		c-0.0935822-0.6707458-0.1161194-1.3448181-0.2108917-2.0120697c-0.0635376-0.4472809-0.1576691-0.829483-0.7825775-0.8248901
		c-5.0247345,0.0369873-10.0496674,0.0481873-15.0745239,0.0672913c-3.8680267-0.0046082-7.7361374,0.00177-11.6040192-0.0251312
		c-0.6108627-0.0042419-0.8478012,0.1569366-0.8237762,0.802002c0.0459518,1.2337952,0.0094147,2.4705505,0.0146103,3.7060547
		c0.0040436,0.9644928,0.009079,0.9759064,0.9604263,0.9763489c4.1473236,0.0019531,8.2946472-0.0033264,12.4419708-0.0059967
		c0.3810272,2.480957,0.519165,4.9866791,0.7654114,7.4814148c0.3048553,3.0885773,0.6278229,6.1753845,0.9227905,9.2648926
		c0.039444,0.4130249,0.2028198,0.5626831,0.5965881,0.5421448c0.318985-0.0166321,0.6395416-0.003479,0.9593964-0.003479
		c15.4730988,0.0004578,30.9461823,0.000946,46.419281,0.0014191c0.505188,1.0485077,0.7306061,2.1775055,0.9524231,3.3075409
		c-12.47435-0.000824-24.9487305-0.0016327-37.4230957-0.0025024c-0.2798767-0.0000305-0.5609131-0.0171356-0.8393555,0.0026245
		c-0.4667206,0.0331268-0.607193-0.1706238-0.6316986-0.6303864c-0.0778198-1.4602203-0.0980682-1.4590302-1.5732269-1.4590149
		c-7.7964783,0.0000458-15.5929718,0.0000305-23.3894424-0.0000916c-0.2798691,0-0.5608826-0.0179443-0.8393402,0.0014496
		c-0.4877167,0.0340271-0.6377335-0.2156525-0.5939255-0.6533356c0.0039597-0.0395355,0.0001755-0.0798645,0.0002365-0.119812
		c0.0128098-8.0317535,0.0311508-16.0634766,0.0271835-24.0952148c-0.0002899-0.5950012,0.154892-0.9067688,0.7838135-0.8605957
		c2.993782,0.0170441,5.9878922,0.0113068,8.9812775,0.0547943c18.2016144,0.264389,36.4044342,0.1253815,54.6066742,0.1787109
		c0.3624115,1.0973358,0.5237427,2.2232666,0.4806824,3.3782349
		C178.8917236,201.9749908,173.4540863,201.9860992,168.0164642,201.9971924z"></path>
	<path d="M42.8706322,222.8578644c15.8918877,0.0010071,31.7837791,0.002182,47.6756706,0.0026093
		c1.0751419,0.0000153,1.0635452-0.0050964,1.2781982-1.0218811c0.1982956-0.93927,0.170166-1.899704,0.2794266-2.8481293
		c0.341011-2.9601593,0.5347443-5.9369965,0.8110275-8.9049988c0.1399841-1.5037384,0.3347244-3.0023804,0.5047073-4.5033417
		c1.9536285,0.0003357,3.9072723,0.0008545,5.8609009,0.0010071c2.2327423,0.0001526,4.4659119-0.0247803,6.6979523,0.0147705
		c0.6863403,0.012146,0.8871078-0.210083,0.8615417-0.877533c-0.047226-1.2334595-0.0056686-2.470108-0.0161057-3.7052765
		c-0.0075073-0.8891754-0.0183487-0.9043121-0.9367294-0.9046021c-3.8273621-0.001236-7.6547394,0.0075226-11.4821014,0.0126038
		c-1.9178543-0.0197449-3.8356705-0.0505371-5.7535706-0.0567017c-2.9991302-0.009613-5.9987793,0.0256653-8.9971466-0.0230408
		c-0.7235641-0.0117493-0.9997711,0.2106171-1.0480423,0.8994293c-0.0471725,0.6730957-0.1685715,1.3408966-0.2530823,2.0115509
		c-0.0628891,0.4991302-0.2585602,0.7409363-0.8439026,0.7319489c-2.3187408-0.0356293-4.6386185-0.0225983-6.9576797,0.0054474
		c-0.5804062,0.0070343-0.7533798-0.1758118-0.7225723-0.7610168c0.0498199-0.9465942,0.0069733-0.9618225-0.9415588-0.9610291
		c-3.1185303,0.0026245-6.2370605,0.0155182-9.3555946,0.0244904c-5.0571556-0.0124664-10.1143036-0.0249329-15.1714592-0.037384
		c0.2026215-1.1963196,0.6810265-2.2933044,1.2154465-3.3701019c14.3102951-0.0118103,28.6205902-0.0218964,42.9308853-0.0364685
		c3.9973068-0.0040741,7.996521,0.0488892,11.9911346-0.0603943c2.1943741-0.0600586,4.3903656-0.0373993,6.583374-0.1404877
		c1.0791245,0.1241455,1.08638,0.1241302,1.0876236,1.1936646c0.0091019,7.7899475,0.0159988,15.5798798,0.0209808,23.3698273
		c0.0007477,1.1681671,0.1892471,1.1684113-1.1536713,1.168045c-7.9543228-0.0021515-15.9086456-0.0011139-23.8629684-0.0010376
		c-0.2798004,0.0000153-0.5598297,0.0089874-0.8393326,0.0002594c-0.4075317-0.0127106-0.5496521,0.1808624-0.5638428,0.5804901
		c-0.0164948,0.4650879,0.22332,1.0444031-0.1675644,1.3690186c-0.4058914,0.3370514-1.0015564,0.1300659-1.5109558,0.1304169
		c-11.9114914,0.0084076-23.8229904,0.0070953-35.7344894,0.0041199c-0.4380989-0.0001221-0.8761902-0.0353699-1.3142891-0.0542755
		C43.0053635,225.0248108,42.740097,223.9518127,42.8706322,222.8578644z"></path>
	<path d="M40.3497238,278.2377014c10.598381-0.002594,21.1967659-0.0059509,31.7951431-0.0049744
		c0.4562073,0.0000305,0.9382477-0.1266785,1.25634,0.4234924c0.1361084,0.2353821,0.5214539,0.1158447,0.7947617,0.1159973
		c6.9590302,0.0036011,13.9180679,0.0032654,20.8771057,0.0018921c0.4294815-0.0000916,0.9086151,0.1028137,0.9472275-0.5856018
		c0.0124664-0.2222595,0.2921066-0.2205505,0.4901276-0.2230835c0.3199158-0.0040588,0.6398849-0.0033264,0.9598389-0.0033264
		c10.8784943-0.0000916,21.7570038-0.0050964,32.6354752,0.0128479c0.6272888,0.0010376,1.4686279-0.3945312,1.7429352,0.6801453
		c0.0511322,0.2004089,0.4355774,0.1174927,0.6698914,0.1175842c6.9990234,0.0026855,13.9980621,0.0023499,20.9970856,0.0011597
		c0.1593933-0.0000305,0.3902435,0.0498657,0.4671631-0.0340576c0.8027954-0.8753662,1.8424683-0.4912109,2.7721558-0.4934387
		c10.1982574-0.0245667,20.3966217-0.0132446,30.5949402-0.0116577c0.2169342,1.0195923,0.1402435,2.0472412,0.0697632,3.0724792
		c-0.0215302,0.3130798-0.0819244,0.6383667-0.4548035,0.7574768c-3.7595367-0.0080872-7.5190735-0.0160828-11.2786102-0.0244446
		c-0.2799683-0.0006104-0.5600433,0.0012817-0.8398438-0.0065308c-0.3108063-0.008667-0.6074982-0.1291199-0.5611572-0.4721375
		c0.1308441-0.9689636-0.4972687-0.8804016-1.1163635-0.8797913c-5.5999298,0.0055542-11.1998291,0.0032654-16.7997589,0.0032349
		c-0.4799805,0-0.9600983,0.0055847-1.4399109-0.0036316c-0.2272339-0.0043335-0.5445557,0.0567322-0.5863037-0.2538757
		c-0.0824585-0.6133728-0.5241699-0.4920654-0.9025116-0.4931641c-1.999939-0.0059204-3.999939-0.0027771-5.9998932-0.0027771
		c-4.9199371,0-9.839859-0.0025024-14.7597809,0.0018921c-1.0839844,0.0010071-1.0929871,0.012146-1.1034088,1.035675
		c-0.0110016,1.0792542-0.013092,2.158844,0.0008545,3.2380371c0.0117035,0.906311,0.0291901,0.9264526,0.9633789,0.9363403
		c1.3598022,0.0143433,2.7202759,0.0218506,4.0797119-0.005249c0.5264282-0.0104675,0.7470856,0.1706543,0.6638336,0.6936951
		c-2.7103271,0.1015015-5.4198608,0.2426147-8.131134,0.2964783c-5.8681183,0.1166992-11.7351227,0.4150085-17.6057434,0.2487793
		c-3.4703979-0.0982666-6.9367218-0.3341064-10.4067459-0.4538574c-3.4717102-0.1197815-6.9457779-0.1711426-10.4187088-0.2565308
		c-0.1568298-0.0038452-0.3126678-0.04776-0.4689713-0.072998c-0.0381546-0.517334,0.3389969-0.4431763,0.6478195-0.4441833
		c1.3996658-0.0046082,2.7993622,0.0011292,4.1990204-0.0048218c0.3965225-0.001709,0.8582916,0.0486145,0.8626633-0.5519104
		c0.0102005-1.3988037,0.0046539-2.797699,0.005661-4.1965942c0.0001984-0.2830811-0.1252899-0.4526978-0.4225998-0.4585876
		c-0.2798462-0.0055237-0.5598145-0.0059509-0.8397293-0.0059509c-4.9588623-0.0003052-9.917717-0.0002136-14.8765793-0.0002136
		c-1.87957,0-3.7591553-0.0047913-5.6386795,0.0046997c-0.3059387,0.0015259-0.7988815-0.1414185-0.8718338,0.1846924
		c-0.1818237,0.8127441-0.7682343,0.5541077-1.2247696,0.5551758c-5.798645,0.0135498-11.5973167,0.0088501-17.3959846,0.0089417
		c-0.2799339,0-0.5605545,0.0135193-0.8396339-0.0016785c-0.3935547-0.0214233-0.6385498,0.128479-0.5813713,0.5432434
		c0.1041679,0.7554626-0.3095932,0.8274536-0.9194183,0.8233948c-3.1191406-0.020874-6.2385101-0.0136108-9.3577728-0.0050964
		c-0.4309807,0.0011597-0.8846436-0.1049194-1.2832336,0.1685791c-0.9740257-0.2497253-1.4309883-0.8936768-1.4804955-1.8818054
		C40.2015839,279.627533,40.0372925,278.9214172,40.3497238,278.2377014z"></path>
	<path d="M182.5936432,180.8462524c-7.7227783,0.0115662-15.4455566,0.0240631-23.168335,0.0322723
		c-0.4361115,0.0004578-0.8722382-0.0342102-1.3083649-0.0525208c-0.5140533-2.6513367-1.0185242-5.3045959-1.5514374-7.9521179
		c-0.0904846-0.4495544-0.0571136-0.7032318,0.4704742-0.6704559c0.1193848,0.0074158,0.2396545,0.0000305,0.3595276,0.0000916
		c8.3510895,0.0052643,16.7021637,0.0105743,25.0532532,0.0158844c0.0187988,1.0154877,0.0392914,2.0309296,0.0560913,3.0464325
		C182.5356293,177.1259613,182.5641785,178.9861145,182.5936432,180.8462524z"></path>
	<path d="M68.9072342,180.9191895c-2.8728333-0.0180664-5.7456589-0.0467224-8.6185265-0.0518646
		c-4.9487534-0.0088501-9.8975296-0.003067-14.846302-0.003418c-0.0873489-2.7807617-0.3488884-5.5612335-0.0158577-8.3423004
		c0.0127754-0.1066437,0.0961952-0.2048492,0.146698-0.3069916c8.176239-0.0036926,16.3524704-0.0088196,24.5287056-0.0091248
		c0.9710846-0.0000305,0.9598236,0.0101013,0.7758942,0.9736481c-0.4240799,2.2216339-0.8356934,4.4456635-1.2534485,6.6685181
		C69.5382767,180.3059692,69.5639648,180.8413391,68.9072342,180.9191895z"></path>
	<path d="M182.6519928,168.7974396c-10.5770264,0.0040894-21.1540527,0.0042877-31.7310486,0.0224152
		c-0.6085205,0.0010376-0.8775482-0.1216888-1.020401-0.8016663c-0.3583374-1.7055206-0.8596039-3.3810883-1.1004028-5.1135254
		c0.4390869-0.0116882,0.8781891-0.0334625,1.317276-0.0335541c10.8359222-0.0023956,21.6718292-0.0024719,32.5077515-0.0029602
		c0.0700989,1.6690826-0.0416718,3.3439941,0.1742859,5.0092316
		C182.8392639,168.1844177,182.8682556,168.5180817,182.6519928,168.7974396z"></path>
	<path d="M78.7521744,162.9025421c-0.2021255,1.8231201-0.7764893,3.5673065-1.1348724,5.3571777
		c-0.0867157,0.4331207-0.3234482,0.5990448-0.7574844,0.5550995c-0.2768478-0.0280457-0.5588608-0.0052032-0.8385544-0.0051575
		c-10.1489944,0.0013275-20.2979851,0.0026703-30.4469757,0.0040131c-0.2948608-0.3352661-0.1762466-0.7528534-0.193428-1.1289368
		c-0.073494-1.6089172-0.1096268-3.2195282-0.1593857-4.8294983c10.6984673,0.0047913,21.3969345,0.0091858,32.0953979,0.0157471
		C77.795311,162.8712769,78.273735,162.891571,78.7521744,162.9025421z"></path>
	<path d="M158.5502625,132.2059479c0.4764557-0.0207367,0.9529114-0.0595398,1.4293823-0.0594635
		c7.7743835,0.001358,15.5487823,0.0076447,23.3231659,0.0128326c-0.1863098,1.673996-0.2051849,3.3643646-0.4922028,5.0285339
		c-4.6211548-0.0131378-9.2423553-0.0205536-13.8634644-0.0416107c-2.5860901-0.0117798-5.1691132-0.2212219-7.7565918-0.1375427
		c-0.4811249,0.0155487-0.8144836-0.0687103-1.0055237-0.5920258
		C159.6687927,135.0026245,159.0988617,133.6081696,158.5502625,132.2059479z"></path>
	<path d="M44.6637154,132.161377c7.6351242-0.0058594,15.2702522-0.0125732,22.9053764-0.0156555
		c0.4787445-0.0001984,0.9575195,0.0278931,1.4362717,0.0428009c-0.5289459,1.3678131-1.0727158,2.7301483-1.5797348,4.1060333
		c-0.2120361,0.5753937-0.5750885,0.7132263-1.1671295,0.7240295c-7.0102272,0.1279144-14.0207214,0.1865234-21.0320015,0.1604919
		C44.8859444,135.5236511,44.8171158,133.8377838,44.6637154,132.161377z"></path>
	<path d="M185.3643188,229.7653656c-0.0883179,0.4155273-0.4276428,0.2837372-0.6760254,0.2845612
		c-2.752243,0.0090027-5.5046539-0.0067139-8.2567444,0.0160828c-0.5505524,0.0045624-0.8370514-0.1197662-0.7532196-0.7248077
		c0.0325012-0.234787,0.026886-0.4797363,0.0028381-0.7164307c-0.0506744-0.4985962,0.2179108-0.600708,0.6442108-0.5981598
		c1.7151337,0.0102844,3.4303589,0.0079193,5.1455536,0.0025787c1.1961975-0.0037384,2.3923645-0.0199127,3.588562-0.0305328
		C185.3678741,228.5519257,185.2388,229.1805878,185.3643188,229.7653656z"></path>
	<path d="M43.2385712,228.0088348c2.5879669,0.0072021,5.1759567,0.0100403,7.7638512,0.0276642
		c0.2916908,0.0019684,0.7430916-0.1524048,0.8138428,0.2589417c0.0914078,0.5314636,0.1569252,1.1016846-0.0616722,1.6316223
		c-0.0691147,0.1675568-0.2773094,0.124527-0.430294,0.1242218c-2.7469292-0.0053864-5.4938583-0.0135345-8.240757-0.0278473
		c-0.0664673-0.0003357-0.1325302-0.0777893-0.1987801-0.1192932
		C43.002697,229.2723694,43.120636,228.6405945,43.2385712,228.0088348z"></path>
	<path d="M94.0633698,46.7884369c0.8820648-0.4010582,1.8153152-0.1222496,2.7217102-0.2017517
		c0.238121-0.0208855,0.4863892-0.0401382,0.7183762,0.0026855c0.9404602,0.1736221,1.4028015-0.252655,1.8003235-1.0981483
		c2.6096573-5.5503922,5.2748337-11.0747261,7.9259949-16.6056004c0.4886932-1.0195141,0.4968414-1.0122223,1.6585922-0.8337269
		c0.5511703,0.0846825,1.1025772,0.1888657,1.6575775,0.2215919c0.5435257,0.0320511,0.6764069,0.2963333,0.6028061,0.7805843
		c-0.1914139,1.2594433-0.3554535,2.5231743-0.5576935,3.780817c-0.5302963,3.2977676-1.0748138,6.5932503-1.6142731,9.8895493
		c-0.6293793,3.8457031-1.2750702,7.6888237-1.8843765,11.5377007c-0.5288315,3.3406105-1.0032654,6.6897926-1.526535,10.031311
		c-0.5413132,3.456749-1.1118317,6.9089355-1.6710358,10.3628769c-0.1391678,0.8595657-0.1688919,0.8815384-1.3359833,0.8807144
		c-11.3573151-0.0079422-22.7146301-0.0173416-34.0719528-0.0266876c-3.5191727-0.0028915-7.0409012,0.0781479-10.5569954-0.0273895
		c-8.192234-0.2459183-16.386013-0.042984-24.6005592-0.1681824c-0.0583382-0.3391647,0.2658691-0.3394318,0.4154396-0.4386215
		c4.1228828-2.7344742,8.2547569-5.4554062,12.3838005-8.1806183c0.06493-0.0428467,0.1132011-0.1109238,0.1692429-0.1672287
		c0.4655647-0.1739578,0.950573-0.098587,1.4267502-0.0987625c11.0778961-0.0042343,22.1558456-0.0175629,33.2336044,0.0216293
		c0.9748535,0.0034485,1.4754791-0.3160248,1.9543762-1.1376343c1.7455139-2.9945602,3.5876389-5.9327202,5.378685-8.9009857
		C90.2238464,53.2096863,92.1400223,49.9968987,94.0633698,46.7884369z"></path>
	<path d="M181.2497406,66.5216522c4.0548248,2.6917419,8.1096649,5.3834839,12.164505,8.0752411
		c0.290451,0.1928024,0.5809021,0.3856125,1.1191559,0.7429199c-0.6790619,0-1.0597992-0.0004654-1.4405365,0.0000687
		c-6.5188751,0.009201-13.0389709-0.0593338-19.556366,0.0431976c-16.1131897,0.253479-32.226944,0.0702133-48.3401489,0.1536484
		c-1.4416122,0.0074692-1.394516-0.0055542-1.5972977-1.3986435c-0.4066849-2.7939682-0.8682098-5.5799866-1.3109131-8.3686829
		c-0.6050186-3.8111916-1.2133179-7.6218643-1.8207855-11.4326668c-0.3254929-2.041893-0.6489716-4.0841179-0.9790802-6.125267
		c-0.4699097-2.905632-0.9463501-5.8102036-1.4176331-8.7156105c-0.5348206-3.2970123-1.0681839-6.5942574-1.5982742-9.8920307
		c-0.0442352-0.2752247-0.0667877-0.5546856-0.0850601-0.8331184c-0.0191116-0.2911339,0.1344604-0.4382191,0.4215775-0.4550629
		c0.8389206-0.0492172,1.6604996-0.2023335,2.4630356-0.4452057c0.6166763-0.1866207,0.7490463,0.276535,0.9361115,0.6655159
		c0.8803787,1.8306656,1.7569046,3.6631794,2.633461,5.4956799c1.6840744,3.5206223,3.4922638,6.9894867,4.9953384,10.5857048
		c0.6977463,1.669426,1.6156082,2.1925125,3.2896042,1.9942741c0.7680511-0.09095,1.5990753-0.2037582,2.3596497,0.1768112
		c0.0864868,0.1778946,0.1592102,0.3641434,0.2614441,0.5324783c3.6594849,6.0252533,7.3392487,12.0383224,10.9623108,18.0853462
		c0.4761505,0.7946777,0.9814148,1.044632,1.8879089,1.0418854c11.0745087-0.0335922,22.1491394-0.0227127,33.2237549-0.0189438
		C180.2981567,66.4293594,180.7822876,66.360817,181.2497406,66.5216522z"></path>
	<path d="M165.677124,46.5115547c-1.3679504-1.1050453-2.9266357-1.9172668-4.4089508-2.8441696
		c-7.3012848-4.5655556-14.6182861-9.1060219-21.9290924-13.6563339c-2.8091736-1.7484474-5.6156769-3.5011444-8.4264374-5.2470264
		c-0.305191-0.1895676-0.6190186-0.3613834-0.9001312-0.7067986c0.6672516-0.7066746,1.5523682-1.0665684,2.3588257-1.5132084
		c0.4342804-0.2405071,0.9261017,0.083643,1.3700104,0.2570724c4.8569946,1.897501,9.7110138,3.8025856,14.5709229,5.6925411
		c6.640274,2.5823135,13.2858734,5.1509876,19.9275208,7.7297726c7.9033508,3.0686722,15.8027954,6.147419,23.7099152,9.2063408
		c1.037674,0.4014244,2.0427856,0.8952141,3.1303864,1.1639214c0.2954407,0.2044258,0.6208496,0.3382225,0.9718323,0.4116859
		c-0.117691,1.0597839-0.2268982,2.1206017-0.3564148,3.1789436c-0.0726624,0.5939293-0.1780853,1.1830826,0.0639954,1.7641144
		c0.0946503,0.2272186,0.1205292,0.4600372,0.0282135,0.6971931c-0.925766,2.3777733-0.6761932,4.8621635-0.6375427,7.3219147
		c0.0132904,0.8454514-0.2852173,1.6455116-0.2438202,2.4890022c0.0189972,0.3871994-0.3028564,0.4129295-0.5938263,0.4072151
		c-0.8365784-0.0164261-1.6757812,0.0710373-2.5094757-0.0614319c-0.269516-0.4279709-0.7416687-0.592556-1.1391296-0.8406372
		c-6.9586945-4.3432655-13.9200134-8.6823616-20.894043-13.0009766
		C168.418808,48.1240425,167.1338348,47.1730995,165.677124,46.5115547z"></path>
	<path d="M35.7406998,62.8021431c-0.597805,0.0223122-1.1955376,0.0609894-1.7934189,0.0633774
		c-1.1039352,0.0043983-1.6343575-0.5053329-1.5119286-1.5668602c0.3494644-3.0300446-0.2090187-6.025219-0.3005867-9.0375366
		c-0.0094032-0.3093872-0.1353817-0.622139-0.2434196-0.9202423c-0.2557926-0.705761-0.4637299-1.3713303-0.2850189-2.1772842
		c0.1498833-0.6759186-0.2307682-1.4027634-0.1728001-2.1270409c0.3861904-0.0591354,0.7361851-0.2032928,1.0449123-0.4443703
		c2.7254105-0.900528,5.3653946-2.0262985,8.0402069-3.0593224c9.2173347-3.5597763,18.4282303-7.1362572,27.6367569-10.7187424
		c8.5030136-3.3080139,17.0051117-6.6185436,25.4920349-9.9674282c0.9565353-0.3774433,1.7304688-0.4161339,2.5351257,0.2699165
		c0.4165878,0.3551922,0.9278946,0.599432,1.5244827,0.9742661c-1.2439194,0.786272-2.4009552,1.527565-3.5675888,2.2534294
		c-7.3183899,4.5533791-14.6385727,9.1038685-21.9588852,13.6541653c-3.2534714,2.0223579-6.5085144,4.0421753-9.7631836,6.0625992
		c-0.2025719,0.1257515-0.4208107,0.2314034-0.5445747,0.4515457c-0.4872513,0.2666054-0.9887772,0.5102882-1.4596214,0.8032379
		c-7.3038788,4.5444298-14.6062431,9.0913162-21.9015732,13.6494293
		C37.5723915,61.5521088,36.5692101,62.0469589,35.7406998,62.8021431z"></path>
	<path d="M184.5334778,118.5638885c-0.4335938-0.496582-0.6949463-0.9205551-0.9115906-1.3985214
		C184.8623657,116.9935684,184.8900299,117.0319824,184.5334778,118.5638885z"></path>
	<path d="M43.1846085,118.302948c-0.2369652-1.2059937-0.2369652-1.2059937,0.706337-1.1630402
		C43.7975388,117.5704956,43.5924835,117.9134598,43.1846085,118.302948z"></path>
	<path d="M137.4972992,161.0926819c-0.1931763,0.5917358-0.1726379,1.1835632-0.0007629,1.7754669
		c-0.0093689,1.3568878-0.0436859,2.7142792-0.0164337,4.0704346c0.0116882,0.5820007-0.1925659,0.7595062-0.7604828,0.7553253
		c-2.8359222-0.0209045-5.6723328-0.0298462-8.5079956,0.0046082c-0.71241,0.0086365-0.7466583-0.3434906-0.744957-0.8850403
		c0.0085983-2.7542419-0.0064011-5.5085907-0.0131531-8.2628937c0.3220749-0.3559265,0.7475204-0.1990967,1.1271896-0.2046967
		c2.0302582-0.0300598,4.0608673-0.0380859,6.0913544-0.0537109c0.914978,0.0298462,1.8299561,0.0596771,2.7449341,0.0895233
		C137.4437714,159.2853546,137.4705353,160.1890259,137.4972992,161.0926819z"></path>
	<path d="M90.1582642,162.8594971c0.0807648-0.5739899,0.0671921-1.148468,0.0090256-1.7231903
		c0.0273209-0.9221344,0.0546341-1.8442535,0.0819473-2.7663879c0.8000946-0.0254669,1.6001892-0.0509338,2.4002838-0.0764008
		c2.1667709,0.0165405,4.3336487,0.0261536,6.5002365,0.0566254c0.3538208,0.0049744,0.8318176-0.1937408,0.956749,0.3984985
		c-0.0139084,2.6255646-0.0307922,5.2511139-0.0402527,7.8766785c-0.0037994,1.0573425,0.1099472,1.0622711-1.0164566,1.0605164
		c-2.5883865-0.0040131-5.1768036,0.0016174-7.7651901-0.0026398c-1.0620651-0.0017548-1.057373-0.0088196-1.0698395-1.1276855
		C90.2010269,165.3234406,90.1775131,164.0914917,90.1582642,162.8594971z"></path>
	<path d="M152.4076843,181.3648682c-3.7753143-0.0115814-7.5506744-0.0149841-11.3258514-0.0437622
		c-0.548996-0.0041656-0.8085175,0.1154938-0.7275543,0.7285156c0.1089783,0.8252258,0.1390839,1.6605377,0.229187,2.4886627
		c0.040329,0.370575-0.0086365,0.6330566-0.4440155,0.6621399c-3.596344-0.0026093-7.1927185-0.0053101-10.7890625-0.0077515
		c-0.2797699-0.0001984-0.5597076,0.0074768-0.8393097,0.0009613c-0.8336639-0.0194092-0.8514023-0.0214233-0.854126-0.8661194
		c-0.0087662-2.7162018-0.0031815-5.4324646-0.0031204-8.1486969c0.0000229-1.1584015,0.0163879-2.3171234-0.0074615-3.4750214
		c-0.0104599-0.5079803,0.1603699-0.7313232,0.6876297-0.6999664c0.517746,0.0307465,1.0387573,0.0064545,1.5583496,0.0064545
		c6.634613-0.0000153,13.2692413-0.0006256,19.9038544,0.0005493c1.1173553,0.0001984,1.1283875,0.0013733,1.3435516,0.9976959
		c0.5536041,2.5634003,1.0886383,5.1308441,1.6520844,7.6920624
		C152.8770599,181.0880585,152.852066,181.3248749,152.4076843,181.3648682z"></path>
	<path d="M86.8140793,181.3695526c-3.4191208-0.0131836-6.8382416-0.0251923-10.2573471-0.0406647
		c-0.5960312-0.0027008-1.1920013-0.0200653-1.7879944-0.0306396c0.5901794-2.9237213,1.1889725-5.8457489,1.7606506-8.7730713
		c0.0797882-0.4085541,0.2725754-0.5337677,0.6454849-0.5162506c0.2392731,0.0112152,0.479538,0.001358,0.7193527,0.001358
		c6.8748856-0.000061,13.7497711-0.0000305,20.6246567-0.0000153c0.1598816,0,0.3198624-0.0037079,0.4796295,0.0005951
		c0.8637619,0.0232697,0.8848801,0.0239105,0.8866425,0.8475647c0.0082092,3.8349152-0.0051498,7.6699219,0.0132446,11.504776
		c0.0028152,0.5864716-0.1222229,0.8519287-0.7886734,0.8450775c-3.7569046-0.0385742-7.5142975-0.0479736-11.2713776-0.0320129
		c-0.6593704,0.0028076-0.843483-0.2329102-0.7663574-0.8453979c0.0994949-0.7901001,0.153038-1.5859985,0.224556-2.3795624
		C87.3282166,181.5998993,87.3092804,181.2863922,86.8140793,181.3695526z"></path>
	<path d="M87.4811554,276.8505554c-5.1175537,0-10.2350922,0.0010681-15.3526382-0.0015259
		c-0.5347595-0.0003052-1.178978,0.1603394-1.1146774-0.7602234c0.0166473-0.2382507-0.2310486-0.2855835-0.4393692-0.288269
		c-0.3198013-0.0041809-0.6396561-0.0053711-0.9594803-0.0053711c-7.0366287-0.0002747-14.0732574-0.0002136-21.1098862-0.0002136
		c-0.2398834,0-0.4820671-0.0213013-0.7191963,0.0042725c-0.5631294,0.0606689-0.8026466-0.1503906-0.7686195-0.7391357
		c0.0391312-0.6770325,0.0402756-1.3599243-0.0002213-2.0367737c-0.0363731-0.6079712,0.2434616-0.7784119,0.7857704-0.7228394
		c0.1978188,0.0202637,0.3994751,0.0031738,0.5993767,0.0031738c8.9557037,0,17.9114151,0,26.8671188,0
		c0.1599197,0,0.3199158-0.0031433,0.4797516,0.0004578c1.0297852,0.0231323,1.0297699,0.0235901,1.0421066,1.0965881
		c0.0198746,1.7289124,0.0198822,1.7289429,1.7892609,1.7289429c7.9162064,0,15.8324051,0,23.7486115,0
		c0.199913,0,0.3998413-0.0022583,0.5997086,0.0002441c0.9081421,0.0114441,1.3013229,0.6016235,0.9718781,1.4432983
		c-0.0887146,0.2266541-0.2602081,0.2704468-0.467186,0.2722473c-0.2798386,0.0024109-0.5596924,0.0049438-0.8395386,0.0049744
		C97.5563354,276.8506165,92.5187454,276.8505554,87.4811554,276.8505554z"></path>
	<path d="M140.1616516,276.8505554c-4.9967651,0-9.993515,0-14.9902802,0
		c-0.1998596,0-0.401413,0.0164795-0.5992203-0.0036621c-0.3026962-0.0308838-0.7161331,0.1531982-0.8755951-0.1889343
		c-0.1840439-0.3948975-0.101799-0.8609009-0.0394974-1.2924805c0.0243454-0.1687012,0.2049026-0.2266846,0.3719864-0.2297668
		c0.3196869-0.0059204,0.6395187-0.0058594,0.9592972-0.0058594c8.1547089-0.0002747,16.3094025,0.0020752,24.4641266-0.0023804
		c1.4486084-0.0007935,1.2716675,0.1593018,1.2947845-1.2669983c0.0237427-1.4646912-0.3728638-1.5625305,1.5399323-1.5606689
		c8.9141998,0.008606,17.8284149,0.0038452,26.74263,0.0038452c0.2398376,0,0.4818268,0.0205688,0.719101-0.0040283
		c0.5624084-0.0583496,0.8053284,0.1524353,0.7717133,0.742157c-0.0386047,0.6769714-0.0281219,1.3585815-0.0025482,2.0367737
		c0.0185242,0.4911194-0.1259918,0.7642517-0.6687012,0.7200317c-0.2779541-0.022644-0.5593262-0.0036316-0.8391418-0.0036316
		c-7.1153717,0-14.2307434-0.0010376-21.3461304,0.0019836c-0.5618134,0.0002136-1.2607727-0.2071838-1.2138367,0.784668
		c0.0107117,0.2261658-0.2533417,0.2629395-0.4589539,0.2645569c-0.2798004,0.0022278-0.5596161,0.0042114-0.8394165,0.0042114
		C150.1551514,276.8506165,145.1584015,276.8505554,140.1616516,276.8505554z"></path>
	<path d="M102.4818573,236.5397949c-0.4382019-0.0154724-0.8763657-0.043457-1.3146057-0.0446014
		c-8.7056351-0.0226288-17.4113007-0.0405273-26.1169205-0.0671844c-0.4315414-0.0013275-0.8765869,0.0917511-1.4226151-0.1493683
		c0.3262482-1.40271,0.6633682-2.8229828,0.9822006-4.2473602c0.065155-0.2910614,0.2254333-0.3962402,0.4959259-0.3970337
		c0.3194733-0.0009308,0.6389313-0.0022125,0.9583969-0.0017853c8.545929,0.0117188,17.0918503,0.0244598,25.6377792,0.0333405
		c0.4781265,0.0005035,0.9562759-0.0305786,1.4344177-0.0469666c0.4591599,0.0514984,0.4960403-0.2619019,0.5333786-0.5968933
		c0.0786438-0.7055054,0.2018509-1.4074249,0.2489548-2.1146545c0.0304413-0.4570465,0.2150421-0.6238403,0.6594391-0.6129761
		c2.57164,0.0628357,5.1460114-0.0779419,7.7162476,0.1021271c-0.1327515,2.3910828-0.2333679,4.7829285-0.2478561,7.1784668
		c-0.0057602,0.9518433-0.0345612,0.9599609-1.0218124,0.9621277c-2.67659,0.0058899-5.3531876,0.0040741-8.0297852,0.0053253
		C102.8239517,236.5414886,102.6529083,236.5406494,102.4818573,236.5397949z"></path>
	<path d="M115.3054123,228.4051056c1.7131042-0.1911926,3.432663-0.0470428,5.1484985-0.0987396
		c1.0341568-0.0311737,2.0685349-0.0553131,3.1028061-0.0825958c0.1075058,0.9098663,0.2441025,1.8175812,0.3119583,2.7303925
		c0.0427856,0.5756073,0.3106613,0.7718658,0.8466873,0.717392c0.1581039-0.0160675,0.319191-0.002655,0.47892-0.0028839
		c8.7048111-0.0120239,17.4096298-0.0231628,26.1144333-0.0392456c0.356369-0.0006561,0.7126312-0.0478363,1.0689545-0.0733185
		c0.341629,0.0812836,0.5491333,0.2907104,0.6269226,0.635788c0.2796173,1.2407379,0.5660248,2.47995,0.8421478,3.7214508
		c0.0571289,0.2569885-0.0113373,0.4749146-0.2882538,0.576828c-0.3982086-0.0189209-0.7964783-0.055069-1.1946564-0.0542908
		c-8.8703003,0.0171661-17.7406006,0.0378418-26.6108856,0.0608521c-0.3986435,0.0010376-0.7972107,0.0307007-1.1958237,0.0470428
		c-2.6242752-0.0018616-5.248558-0.0021515-7.8728333-0.0063324c-1.0799332-0.001709-1.1188965-0.0038757-1.1650925-1.1039276
		c-0.0700455-1.6673737-0.0743027-3.3374634-0.117363-5.0061035
		C115.3844223,229.7529144,115.3384094,229.0791931,115.3054123,228.4051056z"></path>
</g>
<g onclick="select(this)" class="" id="estampa-quaternaria" fill="#80b3a3">
	<path d="M182.3704376,189.0052795c-13.6576996,0.0034027-27.3153839,0.0075684-40.9730835,0.0085754
		c-0.9366302,0.0000763-0.9102936-0.0148773-1.0507202-0.9521484c-0.1424408-0.9505768-0.1722565-1.9051361-0.2071838-2.8612823
		c0.435379-0.0290833,0.4843445-0.2915649,0.4440155-0.6621399c-0.0901031-0.828125-0.1202087-1.6634369-0.229187-2.4886627
		c-0.0809631-0.6130219,0.1785583-0.7326813,0.7275543-0.7285156c3.775177,0.0287781,7.5505371,0.0321808,11.3258514,0.0437622
		c0.1677704,0.8972321,0.3471832,1.792511,0.4981079,2.6925507c0.0703888,0.4197998,0.2550354,0.6270142,0.7057343,0.6217957
		c1.3545227-0.015686,2.7093811-0.0135651,4.0639954-0.0026245c0.4460144,0.0036011,0.5494843-0.2229156,0.482605-0.6030273
		c-0.1444397-0.8212128-0.3028412-1.640152-0.4328613-2.4636078c-0.0526733-0.3336792-0.1928406-0.7508392,0.3916779-0.7839508
		c0.4361267,0.0183105,0.8722534,0.0529785,1.3083649,0.0525208c7.7227783-0.0082092,15.4455566-0.0207062,23.168335-0.0322723
		c0.1139526,2.1320953,0.1793976,4.2616577-0.1252289,6.3875427
		C182.3848267,187.8170013,182.4003754,188.4143829,182.3704376,189.0052795z"></path>
	<path d="M86.8140793,181.3695526c-0.1485519,1.9459686-0.3140335,3.8908539-0.4407196,5.8382416
		c-0.1175156,1.8065186-0.0992737,1.8077545-1.8581543,1.8077545c-12.4992981,0.0000153-24.9986038,0.0001984-37.4979057-0.0008545
		c-0.4390526-0.0000305-0.8781052-0.0123291-1.3171577-0.0189209c-0.2393494-0.7190247-0.3491058-1.4727936-0.2759972-2.2116547
		c0.1955032-1.9759674,0.10569-3.9467468,0.018261-5.9202118c4.9487724,0.000351,9.8975487-0.0054321,14.846302,0.003418
		c2.8728676,0.0051422,5.7456932,0.0337982,8.6185265,0.0518646c-0.0422821,0.994339-0.3199463,1.9521484-0.4546432,2.9317627
		c-0.1071548,0.7792969-0.0819092,0.8105774,0.6960754,0.8196564c1.2302551,0.0143433,2.4617844-0.025589,3.6907883,0.0160522
		c0.6173019,0.0209198,0.820343-0.2118683,0.8817673-0.8032837c0.0731964-0.7047272,0.3101654-1.391449,0.4014282-2.0956573
		c0.0579147-0.4468842,0.3081055-0.4893036,0.6460876-0.4894714c0.595993,0.0105743,1.1919632,0.0279388,1.7879944,0.0306396
		C79.9758377,181.3443604,83.3949585,181.356369,86.8140793,181.3695526z"></path>
	<path d="M184.5509644,207.1822662c-8.4632416,0-16.9264984,0-25.3453979,0
		c-0.117981,0.4548798,0.0432892,0.7045593,0.0936279,0.974411c0.1224365,0.6560669,0.0062561,1.4915619,0.5142212,1.8933868
		c0.4620209,0.3654938,1.235199,0.1091309,1.8699493,0.1109772c3.638855,0.0105591,7.2777557,0.0024414,10.916626,0.0064392
		c1.3769531,0.0015106,1.0869751-0.1234131,1.6117096,1.1150513c0.5879364,1.3876648,1.118988,2.7993622,1.6750031,4.2011719
		c-0.3615723,0.2475739-0.7278748,0.1352844-1.0698547,0.1359863c-9.9969177,0.0203552-19.9938354,0.032074-29.9907532,0.0451508
		c-0.1999359,0.0002594-0.4008484-0.0123749-0.5996399,0.0027313c-0.4496155,0.0341339-0.6216278-0.1647949-0.6810303-0.6140594
		c-0.3082886-2.3309174-0.6818237-4.6537018-0.9564209-6.988266c-0.075943-0.6458588-0.602829-1.4315186-0.0919647-1.9223633
		c0.4142914-0.398056,1.2226868-0.1194763,1.8542938-0.1196747c13.3957825-0.004425,26.7915497,0.0008698,40.1873322,0.0042725
		C184.6971436,206.4107666,184.6978912,206.7957306,184.5509644,207.1822662z"></path>
	<path d="M43.2784767,206.0368195c6.7178917-0.0065308,13.4357796-0.0154724,20.1536713-0.0188599
		c6.4382057-0.0032501,12.8764076-0.0007019,19.3146172-0.0007019c0.1999435,0,0.3999405-0.0029907,0.599823,0.0005188
		c0.9743881,0.0170746,0.9874954,0.0254364,0.8547287,1.0321503c-0.1615982,1.2253418-0.3287048,2.450119-0.5093842,3.6727905
		c-0.2096481,1.4187469-0.4628448,2.8316498-0.6416473,4.2540588c-0.0615463,0.489563-0.2007294,0.7471008-0.7216187,0.6901703
		c-0.1185455-0.01297-0.2397308-0.0018158-0.3596878-0.0019684c-10.1971512-0.0132446-20.3942909-0.0263214-30.5914345-0.0411072
		c-0.1972618-0.0002899-0.3944855-0.020401-0.699791-0.0372162c0.6716843-1.6761932,1.3340263-3.2863922,1.9584846-4.9111176
		c0.2117615-0.5509338,0.6254005-0.511673,1.0684967-0.5113068c3.9189072,0.0032806,7.8378143,0.0019531,11.7567215,0.0019073
		c1.4941864,0,1.4941711-0.0001068,1.7555313-1.4852448c0.2607422-1.4816589,0.2607498-1.4805603-1.2713852-1.4819489
		c-7.6370392-0.0069427-15.274086-0.0145111-22.911129-0.0218353
		C42.9102097,206.753067,43.0684166,206.389389,43.2784767,206.0368195z"></path>
	<path d="M182.9326019,158.3622589c-0.4786072,0.0102997-0.9571991,0.0300446-1.4357758,0.0294647
		c-14.2150879-0.0170593-28.4301758-0.0365753-42.6452637-0.0529175c-0.4781647-0.0005341-0.9563751,0.0279388-1.4345703,0.0428925
		c-0.914978-0.0298462-1.8299561-0.0596771-2.7449341-0.0895233c-0.0749817-0.5922852-0.1499786-1.1845703-0.2441254-1.9282684
		c16.2437744,0,32.469162,0,48.6945496,0C183.0851135,157.032486,183.2883759,157.7239075,182.9326019,158.3622589z"></path>
	<path d="M90.2492371,158.3699188c-0.4781189-0.0113373-0.9562378-0.0330658-1.4343414-0.0325165
		c-14.004509,0.0162201-28.0090218,0.0348206-42.0135269,0.0522003c-0.4787292,0.0005951-0.9574623-0.0072937-1.4361954-0.0112152
		c-0.143013-0.6718292-0.021637-1.3442535-0.0045471-2.016449c15.4508438-0.0053558,30.9016876-0.0107117,46.3525314-0.0159912
		c0.2395477-0.0000763,0.4797134,0.012207,0.7184982-0.000885c0.399559-0.0219421,0.4684525,0.2021027,0.4208832,0.5289307
		c-0.0688553,0.4730072-0.1354599,0.9463348-0.2030182,1.4195251
		C91.8494263,158.318985,91.0493317,158.3444519,90.2492371,158.3699188z"></path>
	<path d="M137.4972992,161.0926819c3.7580566,0.008316,7.5161438,0.0309296,11.2741699,0.0222931
		c11.3135529-0.0259857,22.6270599-0.0641479,33.9405975-0.0975647c0.1620026,0.6258698-0.0726166,1.233139-0.0868988,1.8507385
		c-10.8359222,0.0004883-21.6718292,0.0005646-32.5077515,0.0029602c-0.4390869,0.0000916-0.8781891,0.0218658-1.317276,0.0335541
		c-3.767868-0.0121765-7.5357361-0.024353-11.3036041-0.0365143
		C137.3246613,162.2762451,137.3041229,161.6844177,137.4972992,161.0926819z"></path>
	<path d="M45.2812958,161.0167847c14.961998,0.0398407,29.923996,0.0796814,44.885994,0.1195221
		c0.0581665,0.5747223,0.0717392,1.1492004-0.0090256,1.7231903c-3.8020325,0.0143433-7.6040649,0.0286865-11.4060898,0.043045
		c-0.4784393-0.0109711-0.9568634-0.0312653-1.4353027-0.0315552c-10.6984634-0.0065613-21.3969307-0.0109558-32.0953979-0.0157471
		C45.1709595,162.2401123,45.063446,161.6231537,45.2812958,161.0167847z"></path>
	<path d="M58.6015167,116.5721588c-1.6689034,2.9444427-3.3367195,5.8894882-5.0073891,8.8329315
		c-0.4917297,0.8663559-1.0182457,1.7142944-1.477005,2.5975342c-0.2501831,0.4816742-0.5811157,0.6127167-1.0689735,0.4863129
		c-0.3601112-0.2649841-0.7726669-0.1239166-1.1581535-0.1291962c-1.8762741-0.0256653-3.7528915-0.0262146-5.6293831-0.0356445
		c-0.2920876-1.1658554-0.4680214-2.3442078-0.3831749-3.5506744c1.6392326,0.0024872,3.2796898-0.0310287,4.9171333,0.0242996
		c0.7034454,0.0237732,1.0743103-0.2446671,1.4179688-0.8279266c1.2949944-2.1978912,2.6773186-4.344902,3.9483681-6.556076
		c0.3933105-0.6842117,0.8790321-1.0007782,1.6078568-0.992775
		C56.7141991,116.4313354,57.6791649,116.1264877,58.6015167,116.5721588z"></path>
	<path d="M175.7467499,128.3755951c-1.4776917-2.3010254-2.7558899-4.7184525-4.1315918-7.0789719
		c-0.7778168-1.3346634-1.5380096-2.6795959-2.3070679-4.0193481c-0.1943054-0.3384552-0.3523407-0.7069778-0.7264404-0.9010086
		c0.8370667-0.0225449,1.6704712,0.009697,2.506958,0.0724716c0.627533,0.0470886,0.9852142,0.3285065,1.2952881,0.8570557
		c1.247345,2.1263504,2.5784454,4.2046204,3.7882233,6.3515167c0.4971924,0.8823547,1.0836029,1.1904221,2.0870819,1.1488876
		c1.9098358-0.0790558,3.8257904-0.0105133,5.7391968-0.0032654c-0.0558014,1.1872482-0.042099,2.382843-0.4238586,3.5310059
		C180.965271,128.3478088,178.3560181,128.3617096,175.7467499,128.3755951z"></path>
	<path d="M35.7406998,62.8021355c0.8285103-0.7551765,1.8316917-1.2500267,2.7709198-1.836853
		c7.29533-4.5581131,14.5976944-9.1049995,21.9015732-13.6494293c0.4708443-0.2929497,0.9723701-0.5366325,1.4596214-0.8032379
		c0.9183464,0.0149689,1.8366776,0.0424919,2.7550316,0.0428886c6.3955002,0.0027542,12.7910309-0.0102196,19.1864624,0.0106964
		c0.8688049,0.0028458,1.7370987,0.1663132,2.6056213,0.2554169c-1.4081116,1.9365234-2.9890213,3.7345276-4.4961243,5.5914955
		c-2.7152405,3.3455887-5.4485703,6.6765251-8.1741791,10.0137253c-0.3009186,0.3684387-0.5595474,0.7235336-1.150116,0.7107391
		c-2.5146027-0.054493-5.0303192-0.0579414-7.5456238-0.0800247c-0.3768997-0.349823-0.8399124-0.172451-1.257164-0.1738281
		c-8.8725662-0.0292587-17.745182-0.0427399-26.6177902-0.0606461C36.6995125,62.8221054,36.220108,62.809391,35.7406998,62.8021355
		z"></path>
	<path d="M165.677124,46.5115547c1.4567108,0.6615448,2.741684,1.6124878,4.0927582,2.4491348
		c6.9740295,4.318615,13.9353485,8.657711,20.894043,13.0009766c0.3974609,0.2480812,0.8696136,0.4126663,1.1391296,0.8406372
		c-11.1950684,0.0274429-22.390152,0.0524178-33.5851746,0.0919533c-0.4164429,0.0014725-0.8801575-0.1795006-1.2554626,0.1751633
		c-0.5189819,0.018013-1.0451355-0.0115509-1.5552979,0.0651398c-0.7795105,0.1171875-1.2507019-0.2321701-1.7037811-0.8209991
		c-0.9982147-1.2973137-2.0613861-2.5446396-3.0944672-3.8152733c-3.1734314-3.9031296-6.3451538-7.8076324-9.5175476-11.7116089
		c0.8472748-0.2705421,1.7203064-0.2334633,2.5934753-0.232811c6.9732056,0.0052223,13.9463806,0.0040245,20.9195862,0.0016823
		C164.9619598,46.5554314,165.3195496,46.5268707,165.677124,46.5115547z"></path>
	<path d="M90.6820374,82.0795746c-1.04702,0.7420807-2.2489014,1.1960144-3.3731537,1.7939529
		c-0.4886322,0.2598953-0.7779922,0.5579224-0.965065,1.1107635c-1.4037628,4.1482925-2.8418961,8.2852173-4.3053055,12.4129333
		c-0.5388794,1.519989-0.2679825,1.2350006-1.7335739,1.2340775c-4.3192978-0.0027084-8.6385803-0.0366974-12.957901-0.0438843
		c-1.759285-0.0029221-3.5189362,0.0567398-5.2777824,0.0353241c-0.6035233-0.0073547-0.9228668,0.1853561-1.1831932,0.7404938
		c-0.743721,1.5859451-1.5778236,3.129364-2.3333702,4.7100449c-0.2692184,0.5632477-0.6112213,0.8044052-1.217205,0.6155548
		c-1.57481-0.2501755-3.1683273,0.0162964-4.9307938-0.1700592c2.4302368-3.8524628,4.8078842-7.6215668,7.1855316-11.3906631
		c0.4388809-0.0160446,0.8777504-0.0456467,1.3166466-0.0460281c4.0397987-0.00354,8.0796013-0.0018616,12.1194115-0.0022507
		c0.4320602-0.0000381,0.8464127,0.062912,1.1227264-0.4484329c1.7990112-3.3291779,3.6228561-6.6449738,5.4466324-9.9607162
		c0.1328735-0.2415771,0.1692276-0.4370117-0.0487213-0.6329117c3.4569321-0.2233582,6.9203186-0.1664352,10.3806229-0.2434006
		C90.2288666,81.787674,90.4689102,81.8830948,90.6820374,82.0795746z"></path>
	<path d="M169.461853,104.6186142c-0.6887512-0.6900711-0.9241486-1.6359482-1.3755951-2.4590607
		c-0.4771881-0.8700638-0.9263763-1.7602158-1.3146362-2.6726837c-0.2927856-0.6881104-0.7294006-0.9319534-1.4711151-0.9171906
		c-2.0741425,0.0412903-4.1496735,0.0144119-6.2246552,0.0143661c-3.9504395-0.0000916-7.9008789-0.000061-11.8513336-0.0004349
		c-1.3121185-0.0001221-1.3052521-0.0029907-1.7324524-1.2429504c-1.3713226-3.9802856-2.7791748-7.9484482-4.0988617-11.9457092
		c-0.291748-0.8836823-0.7596436-1.4148026-1.5888824-1.7553024c-1.0204468-0.419014-1.9160309-1.1157303-3.0101471-1.3800125
		l0.0215759,0.0131226c0.0167084-0.1790009-0.0989075-0.1840439-0.2270966-0.1725388
		c-0.1372833-0.1337357-0.1846924-0.2884674,0.0665588-0.2859192c2.5900879,0.0262833,5.1815491,0.026001,7.7692871,0.1228409
		c1.1099396,0.0415421,2.2359314-0.0860291,3.3339691,0.1906891c0.1509247,0.3222656,0.2850952,0.6536865,0.4553833,0.9653854
		c1.6030884,2.9339676,3.2504578,5.8447037,4.7966919,8.808197c0.4668427,0.8947296,0.983429,1.2221146,2.0114594,1.2076416
		c3.995636-0.0562744,7.9928741,0.0011139,11.9895325,0.0162201c2.2132111,3.4897919,4.4282684,6.9784241,6.636322,10.4714737
		c0.1850739,0.2927856,0.4775848,0.5390015,0.4716339,1.0218658
		C172.5630341,104.6186142,171.0124359,104.6186142,169.461853,104.6186142z"></path>
	<path d="M32.4784393,46.592186c-0.3087273,0.2410774-0.6587219,0.3852348-1.0449123,0.4443703
		c-0.1562519-0.2235184-0.1908112-0.4299698,0.1533432-0.460907C31.8811874,46.5491982,32.1810379,46.5843086,32.4784393,46.592186z
		"></path>
	<path d="M196.0519257,47.005352c-0.3509827-0.0734634-0.6763916-0.2072601-0.9718323-0.4116859
		C195.4071198,46.7236176,196.0260925,46.1651955,196.0519257,47.005352z"></path>
	<path d="M93.8259888,242.773941c-2.7979736-0.0132294-5.5959167-0.0335999-8.3939056-0.0379791
		c-4.158165-0.0065002-8.3163605,0.0014801-12.4745255-0.0068359c-0.3905563-0.0007935-0.7984848,0.1009216-1.2462692-0.1454926
		c0.4189987-1.8815308,0.8370667-3.7808075,1.2656097-5.6777344c0.5615997-2.4858704,1.1349869-4.9690704,1.6963348-7.4549713
		c0.2857971-1.2656403,0.2789078-1.2715149,1.5346909-1.2709045c7.7565918,0.00383,15.5132065,0.0063324,23.2697906,0.0189819
		c1.1176834,0.0018158,2.2354126,0.081192,3.3528671,0.0754852c0.5610199-0.0028687,0.6826096,0.2412872,0.6175537,0.7307434
		c-0.1155853,0.8696594-0.2090073,1.7422485-0.3116989,2.6136017c-0.4781418,0.0163879-0.9562912,0.0474701-1.4344177,0.0469666
		c-8.545929-0.0088806-17.0918503-0.0216217-25.6377792-0.0333405c-0.3194656-0.0004272-0.6389236,0.0008545-0.9583969,0.0017853
		c-0.2704926,0.0007935-0.4307709,0.1059723-0.4959259,0.3970337c-0.3188324,1.4243774-0.6559525,2.8446503-0.9822006,4.2473602
		c0.5460281,0.2411194,0.9910736,0.1480408,1.4226151,0.1493683c8.7056198,0.0266571,17.4112854,0.0445557,26.1169205,0.0671844
		c0.4382401,0.0011444,0.8764038,0.029129,1.3145981,0.0446014c-0.2639084,2.0618439-0.5278015,4.123703-0.7917023,6.1855469
		C99.0687637,242.7415466,96.4473724,242.7577515,93.8259888,242.773941z"></path>
	<path d="M124.5571213,236.5437775c0.398613-0.0163422,0.7971802-0.0460052,1.1958237-0.0470428
		c8.870285-0.0230103,17.7405853-0.0436859,26.6108856-0.0608521c0.3981781-0.0007782,0.7964478,0.0353699,1.1946564,0.0542908
		c0.4371338,2.0174561,0.8742523,4.0349121,1.3134613,6.0620117c-0.4361115,0.304184-0.8842926,0.1747894-1.2998657,0.1754303
		c-6.1475525,0.0096741-12.2951202,0.0057526-18.442688,0.0086212c-0.4381561,0.0001984-0.8763123,0.028244-1.3144684,0.0433502
		c-2.5127716-0.0090637-5.0255585-0.0146942-7.5382996-0.029007c-0.9042816-0.0051575-0.8862762-0.0170135-0.99823-0.8843689
		C125.0492325,240.0906219,124.7988052,238.317749,124.5571213,236.5437775z"></path>
	<path d="M152.377655,231.5561066c-0.356308,0.0254822-0.7125702,0.0726624-1.0689392,0.0733185
		c-8.7048035,0.0160828-17.4096222,0.0272217-26.1144333,0.0392456c-0.159729,0.0002289-0.320816-0.0131836-0.47892,0.0028839
		c-0.536026,0.0544739-0.8039017-0.1417847-0.8466873-0.717392c-0.0678558-0.9128113-0.2044525-1.8205261-0.3119583-2.7303925
		c5.711441-0.0133972,11.4228821-0.0289154,17.1343231-0.0393372c3.2752533-0.0059967,6.5505066-0.0067596,9.8257599-0.0035095
		c1.1236267,0.0011139,1.1369781,0.0153198,1.3654938,1.0424347
		C152.0549316,229.9992676,152.2130585,230.7784119,152.377655,231.5561066z"></path>
</g>
<g onclick="select(this)" class="" id="estampa-terciaria" fill="#ffffff">
	<path d="M45.373806,140.8366699c5.5580711-0.0052643,11.1161385-0.0141907,16.6742096-0.0150452
		c14.1955986-0.0021667,28.3911934-0.0007324,42.5867882-0.0007324c0.2799072,0,0.5617981-0.0213318,0.839325,0.0043793
		c0.5705261,0.0528259,0.7758331-0.2057648,0.8004456-0.7596436c0.0619888-1.39534,0.1664124-2.7887878,0.2542877-4.1829681
		c0.3137436-4.9776611,0.6322937-9.9550323,0.939827-14.933075c0.1820755-2.9470978,0.3363953-5.8959198,0.5218201-8.842804
		c0.2981262-4.7382812,0.6183853-9.4751663,0.9163284-14.2134705c0.1978683-3.147049,0.3597031-6.2963791,0.5618439-9.4431381
		c0.2787094-4.3387451,0.5837708-8.6757889,0.8699951-13.0140533c0.0945892-1.4336166,0.1230774-2.8694839,0.2342453-4.3043594
		c0.2466202-3.1831436,0.3870621-6.3744507,0.5763931-9.5621033c0.2437134-4.1033936,0.4876022-8.2067947,0.7412872-12.3095856
		c0.2314148-3.7426872,0.462204-7.4855042,0.7194672-11.2264671c0.1834183-2.6670418,0.4205399-5.330307,0.494194-8.0042915
		c0.0098267-0.3565483,0.0920181-0.7117386,0.1496201-1.0661087c0.0357895-0.2202263,0.1626205-0.3597641,0.3998871-0.3538818
		c0.2563324,0.0063553,0.4762421,0.0878716,0.5402679,0.3690948c0.0351486,0.1544037,0.0456009,0.315794,0.053894,0.4747276
		c0.0727844,1.3949509,0.1454468,2.7899208,0.212738,4.1851463c0.2653046,5.5016365,0.5091782,11.0043983,0.800705,16.5046425
		c0.1520615,2.86903,0.3253098,5.7365608,0.4587402,8.6070137c0.244606,5.2621689,0.5742188,10.52034,0.8522415,15.7810364
		c0.12854,2.4323044,0.2124023,4.8669357,0.3282623,7.2999496c0.2411194,5.063324,0.4845581,10.1265564,0.7378769,15.1892853
		c0.1435852,2.8695602,0.3180161,5.737587,0.4619904,8.6071243c0.2560425,5.103241,0.4649887,10.2090988,0.760849,15.3099747
		c0.1849365,3.1885757,0.3265839,6.3784332,0.4896774,9.5675354c0.1569443,3.0688324,0.3760376,6.1343384,0.4535828,9.2074585
		c0.0277328,1.0991211,0.043808,1.1069794,1.1645584,1.1073303c7.9575424,0.0024567,15.915062,0.0001678,23.8725967,0.0014801
		c12.5958099,0.002121,25.1916351,0.0058594,37.7874451,0.0089111c-0.0161438,2.7088776-0.0314941,5.4177399-0.0531464,8.1265717
		c-0.0005493,0.0682373-0.0707245,0.1358795-0.1084137,0.2038116c-3.4181671-0.0788574-6.8358002-0.2297363-10.3283844-0.1399536
		c0.3435669,1.093811,0.7061462,2.0982208,0.9670868,3.1283417c0.1945038,0.767807,0.6152344,0.9404297,1.3611298,0.9278259
		c2.7490387-0.0464325,5.4993134-0.0211487,8.249115-0.0228271c0.3978424,1.0712128,0.5385132,2.1739197,0.405899,3.3101044
		c-16.2253876,0-32.4507751,0-48.6945496,0c0.0941467,0.7436981,0.1691437,1.3359833,0.2441254,1.9282684
		c-2.0304871,0.015625-4.0610962,0.0236511-6.0913544,0.0537109c-0.3796692,0.0056-0.8051147-0.1512299-1.1271896,0.2046967
		c-2.597435,0.0361481-5.1952057,0.0860138-7.7919464,0.1213531c-6.5174942,0.0886841-13.0366058,0.0589447-19.5550613,0.0767059
		c-0.1249313-0.5922394-0.6029282-0.3935242-0.956749-0.3984985c-2.1665878-0.0304718-4.3334656-0.0400848-6.5002365-0.0566254
		c0.0675583-0.4731903,0.1341629-0.9465179,0.2030182-1.4195251c0.0475693-0.326828-0.0213242-0.5508728-0.4208832-0.5289307
		c-0.2387848,0.013092-0.4789505,0.0008087-0.7184982,0.000885c-15.4508438,0.0052795-30.9016876,0.0106354-46.3525314,0.0159912
		c-0.0753326-1.0960388-0.1815529-2.1920319-0.0050659-3.2884674c0.2390213-0.0048523,0.4780464-0.0137939,0.7170715-0.0139008
		c2.431694-0.0010376,4.8634109,0.0036621,7.2950706-0.0056763c0.3318787-0.0012817,0.7218132,0.1232147,0.8779488-0.3829193
		c0.3691292-1.1965179,0.7728882-2.3823853,1.1508102-3.5364227c-3.3887672,0-6.6895027,0-9.9902382,0
		C45.2466431,146.3691711,45.3048286,143.6029358,45.373806,140.8366699z"></path>
	<path d="M107.0813522,198.3493347c-0.0026169-1.6377716,0.02034-3.2761688-0.0205307-4.9129639
		c-0.0162125-0.6490784,0.1387634-0.9386749,0.8509445-0.8994751c0.9962158,0.0548706,1.9977417,0.0201874,2.9969025,0.0122528
		c0.9565201-0.0076141,0.9673233-0.0140991,0.9680176-1.0016479c0.0037842-5.3927307,0.0018005-10.7854462,0.0017929-16.1781769
		c-0.0000076-0.9187622,0.034317-1.8392792-0.0121994-2.7556763c-0.0309219-0.6089478,0.1315689-0.8983765,0.7872772-0.8362579
		c0.7097092,0.0672302,1.5946732-0.2761688,2.0928574,0.1415558c0.5260315,0.44104,0.1897964,1.3484192,0.1919098,2.047348
		c0.0172958,5.7122345,0.0097427,11.4245758,0.0097504,17.1368713c0,0.2796173,0.0161667,0.560379-0.0035477,0.8386078
		c-0.0337067,0.4759521,0.1928253,0.6218414,0.6423416,0.6147461c1.1588211-0.0182343,2.3181152-0.0084229,3.477211-0.0051117
		c1.3205414,0.0037689,1.1914673-0.1089783,1.1951065,1.2469025c0.0040817,1.5179291,0.0013123,3.0359039,0.0015259,4.5538483
		c-0.6289215-0.0461884-0.7841034,0.2655792-0.7838135,0.8605804c0.0039673,8.0317383-0.0143738,16.0634613-0.0271835,24.0952148
		c-0.000061,0.0399475,0.0037231,0.0802765-0.0002365,0.119812c-0.043808,0.4376831,0.1062088,0.6873627,0.5939255,0.6533356
		c0.2784576-0.0193939,0.5594711-0.0014496,0.8393402-0.0014496c7.7964706,0.0001221,15.5929642,0.0001373,23.3894424,0.0000916
		c1.4751587-0.0000153,1.4954071-0.0012054,1.5732269,1.4590149c0.0245056,0.4597626,0.164978,0.6635132,0.6316986,0.6303864
		c0.2784424-0.0197601,0.5594788-0.002655,0.8393555-0.0026245c12.4743652,0.0008698,24.9487457,0.0016785,37.4230957,0.0025024
		c0.1246033,0.6067505,0.3497009,1.1959381,0.319931,1.8296356c-1.1961975,0.0106201-2.3923645,0.0267944-3.588562,0.0305328
		c-1.7151947,0.0053406-3.4304199,0.0077057-5.1455536-0.0025787c-0.4263-0.0025482-0.6948853,0.0995636-0.6442108,0.5981598
		c0.0240479,0.2366943,0.0296631,0.4816437-0.0028381,0.7164307c-0.0838318,0.6050415,0.2026672,0.7293701,0.7532196,0.7248077
		c2.7520905-0.0227966,5.5045013-0.0070801,8.2567444-0.0160828c0.2483826-0.000824,0.5877075,0.1309662,0.6760254-0.2845612
		c0.4362946,3.2548828,0.2995453,6.5109863-0.1921387,9.7355652c-0.3301849,2.165329-0.2433167,4.2600403,0.1643829,6.3978424
		c0.5858765,3.0721893,0.5849915,6.1822815,0.2853241,9.2919159c-7.5576935-0.0033722-15.115387-0.0059967-22.6730804-0.0107727
		c-1.1094055-0.0007019-1.1009827-0.0075836-1.3668823-1.0175476c-0.6282806-2.3863831-1.2632904-4.7709808-1.8993683-7.1553192
		c-1.3337708-4.999527-2.6675568-9.999054-4.0065918-14.9971771c-0.4122162-1.5386353-0.8594513-3.0681458-1.2528992-4.6114197
		c-0.1319885-0.5177155-0.3708801-0.7530212-0.911438-0.6784973c-0.2354584,0.0324707-0.4790955,0.0057373-0.7190247,0.0057373
		c-11.99646,0.0000153-23.9929199,0.000061-35.9893799,0.0000153c-1.3043442,0-1.1726227,0.0579071-1.1783218-1.1516266
		c-0.0005569-0.1198883-0.0000229-0.2397919-0.0000229-0.3596802c0.0000076-7.9131165,0-15.8262482,0.0000458-23.7393646
		c0-0.2397766-0.0193024-0.4815979,0.0048904-0.7189484c0.046608-0.4573364-0.1279831-0.6620483-0.6019287-0.6504517
		c-0.7593079,0.018631-1.5209198,0.0340271-2.2787247-0.0046082c-0.6090927-0.0310669-0.7727051,0.2511139-0.7200394,0.7905426
		c0.0231857,0.2375488,0.0038757,0.4792023,0.0038834,0.7189941c0.0002213,7.9131165,0.0038147,15.8262482-0.0022888,23.7393646
		c-0.0011749,1.5193024,0.2274399,1.373764-1.4292068,1.3741913c-11.9564667,0.0030518-23.912941,0.0015564-35.8694077,0.0016785
		c-1.4019165,0.0000153-1.4076385-0.0011292-1.7624359,1.3082733c-0.8744888,3.2274017-1.7505646,6.454422-2.6126022,9.6851501
		c-1.4779282,5.5389709-2.9557953,11.0780182-4.4043503,16.6246948c-0.1754608,0.6718597-0.4830093,0.8556671-1.1631775,0.8530121
		c-7.6371536-0.0301666-15.2744484-0.0251465-22.911705-0.0296021c-0.1275978-0.3114777-0.0754662-0.6356659-0.0299454-0.9466858
		c0.2268295-1.5497894,0.229023-3.1108856,0.1741371-4.6659851c-0.0906944-2.5697021,0.1842308-5.1040802,0.593811-7.629837
		c0.206707-1.2746429,0.1740952-2.5383301,0.0209808-3.817215c-0.328476-2.7434692-0.4159012-5.4866943,0.2479477-8.2034607
		c0.0662498,0.0415039,0.1323128,0.1189575,0.1987801,0.1192932c2.7468987,0.0143127,5.4938278,0.0224609,8.240757,0.0278473
		c0.1529846,0.0003052,0.3611794,0.043335,0.430294-0.1242218c0.2185974-0.5299377,0.15308-1.1001587,0.0616722-1.6316223
		c-0.0707512-0.4113464-0.5221519-0.2569733-0.8138428-0.2589417c-2.5878944-0.0176239-5.1758842-0.020462-7.7638512-0.0276642
		c-0.0652428-0.6329803-0.1304893-1.265976-0.1957321-1.8989716c0.4381027,0.0189056,0.876194,0.0541534,1.3142929,0.0542755
		c11.911499,0.0029755,23.822998,0.0042877,35.7344894-0.0041199c0.5093994-0.000351,1.1050644,0.2066345,1.5109558-0.1304169
		c0.3908844-0.3246155,0.1510696-0.9039307,0.1675644-1.3690186c0.0141907-0.3996277,0.156311-0.5932007,0.5638428-0.5804901
		c0.2795029,0.008728,0.5595322-0.0002441,0.8393326-0.0002594c7.9543228-0.0000763,15.9086456-0.0011139,23.8629684,0.0010376
		c1.3429184,0.0003662,1.1544189,0.0001221,1.1536713-1.168045c-0.004982-7.7899475-0.011879-15.5798798-0.0209808-23.3698273
		C108.1677322,198.473465,108.1604767,198.4734802,107.0813522,198.3493347z"></path>
	<path d="M186.0207367,262.1768799c-8.115097,0.0014954-16.2302094,0.0030518-24.3453064,0.0045166
		c-1.3636932,0.0002747-1.3551025-0.0010376-1.1816406,1.3098755c0.1098328,0.8299866,0.1838684,1.6646423,0.2847748,2.4958496
		c0.0547943,0.4515076,0.0271912,0.7503662-0.5818176,0.7454224c-3.0380402-0.0246887-6.076416-0.0205078-9.1145325-0.0021362
		c-0.4757385,0.0028687-0.6057434-0.1790466-0.6479187-0.6195679c-0.1062622-1.1101685-0.2826385-2.2135315-0.392746-3.3234253
		c-0.0438538-0.4420471-0.2001801-0.6566162-0.6625366-0.619873c-0.2780304,0.0221863-0.5593414,0.0027161-0.8391571,0.0027161
		c-23.1465302-0.000061-46.2930374-0.0000916-69.4395599-0.0000916c-0.1199341,0-0.2398605-0.0002136-0.3597946,0.0003967
		c-1.1225662,0.0054932-1.1217575,0.0056152-1.2609863,1.1289673c-0.1175995,0.948822-0.2518616,1.895874-0.3498764,2.8466797
		c-0.046608,0.4521179-0.2501907,0.5867615-0.6969376,0.584198c-3.0381317-0.0172729-6.0764542-0.0177002-9.1145859-0.0011292
		c-0.5074463,0.0027771-0.6171494-0.2133179-0.5564499-0.6537781c0.146904-1.065979,0.2710953-2.1351013,0.4243469-3.2001038
		c0.0737076-0.5122375-0.0873795-0.7528076-0.6316681-0.6988831c-0.2771301,0.0274353-0.5592041,0.0052185-0.8390427,0.0050964
		c-8.1146545-0.0035095-16.2293129-0.0070496-24.3439713-0.0106201c-0.0656853-0.556427-0.1693954-1.1160278,0.1353149-1.6420288
		c1.1221695-0.0148315,1.1653976-0.014801,1.1661301-1.0072327c0.0004311-0.5903625,0.204113-0.7948303,0.7658958-0.7315674
		c0.236927,0.0266724,0.4794121,0.0041809,0.719368,0.0039062c8.5584488-0.009491,17.1168938-0.0180359,25.6753426-0.0290222
		c2.9194641-0.0036926,5.8389435-0.0119324,8.7584-0.0213318c1.2627945-0.0040588,1.2648392-0.0077515,1.2666473-1.2194824
		c0.0022049-1.4788818-0.006012-2.9577942,0.0029068-4.4366455c0.0055084-0.9119263,0.0160294-0.9275055,0.9244232-0.9309845
		c2.3595352-0.0090485,4.7191391-0.0029907,7.0787048-0.0029907c1.719696-0.0000305,3.439621-0.0164185,5.1589355,0.009079
		c0.5693359,0.0084381,0.8157425-0.1763,0.7508087-0.7606659c-0.0350876-0.3158722-0.0082779-0.6388245-0.0059357-0.9585724
		c0.0187683-2.5565033,0.0383682-5.1130066,0.0577164-7.6695099c2.6213837-0.0161896,5.242775-0.0323944,7.8641663-0.0485992
		c0.454277,0.1070251,0.5143051-0.1652832,0.5597305-0.5266113c0.2371902-1.8868713,0.4946823-3.7711792,0.7451172-5.6563721
		c2.6765976-0.0012512,5.3531952,0.0005646,8.0297852-0.0053253c0.9872513-0.0021667,1.0160522-0.0102844,1.0218124-0.9621277
		c0.0144882-2.3955383,0.1151047-4.787384,0.2478561-7.1784668c1.0036545,0.0028839,2.007309,0.0057678,3.0109558,0.008667
		c0.0329971,0.6740875,0.07901,1.3478088,0.0964203,2.0223083c0.0430603,1.6686401,0.0473175,3.3387299,0.117363,5.0061035
		c0.046196,1.1000519,0.0851593,1.1022186,1.1650925,1.1039276c2.6242752,0.0041809,5.248558,0.0044708,7.8728333,0.0063324
		c0.241684,1.7739716,0.4921112,3.5468445,0.7212753,5.3224335c0.1119537,0.8673553,0.0939484,0.8792114,0.99823,0.8843689
		c2.5127411,0.0143127,5.025528,0.0199432,7.5382996,0.029007c0.0202484,2.7519073,0.0406189,5.5038147,0.0606995,8.2557373
		c0.0081024,1.1078339,0.0077972,1.1158295,1.0874023,1.1168518c3.8738098,0.0036316,7.7476349-0.0004883,11.6214447,0.0024872
		c1.1950073,0.0009155,1.1983337,0.0069733,1.2007751,1.1603699c0.0032806,1.5566254,0.0207214,3.1136169-0.0096283,4.6696472
		c-0.0110779,0.5686035,0.1726074,0.8171082,0.7510071,0.763092c0.2770538-0.0258789,0.55867-0.002594,0.8382263-0.0021973
		c11.3019257,0.0162354,22.6038666,0.0323792,33.9057922,0.0484619c0.2795563,0.0003967,0.5615387,0.0240173,0.83815-0.004364
		c0.5603027-0.0574036,0.7671967,0.1436768,0.766983,0.7340698c-0.000351,0.9656677,0.0433197,0.9656982,1.0506744,1.0175171
		C186.1044312,261.0780334,186.1166077,261.6243591,186.0207367,262.1768799z"></path>
	<path d="M169.461853,104.6186142c1.047348,0.3220825,2.1212158,0.0716629,3.1805115,0.1438293
		c0.3970947,0.0270538,0.8022614,0.0432968,1.1956482-0.0034943c0.9421844-0.1120529,1.4706726,0.3560257,1.8827057,1.2892838
		c-5.9828491,0-11.8628845,0-17.8719025,0c0.5654755,1.508049,1.0735016,2.8785706,1.5931244,4.2446899
		c0.6775055,1.7811584,1.3977203,3.5470734,2.0283356,5.3445129c0.2137451,0.6092148,0.5238342,0.7840576,1.1280518,0.7731171
		c1.993988-0.0361404,3.9888153-0.026413,5.9833221-0.0342865c0.3740997,0.1940308,0.532135,0.5625534,0.7264404,0.9010086
		c0.7690582,1.3397522,1.5292511,2.6846848,2.3070679,4.0193481c1.3757019,2.3605194,2.6539001,4.7779465,4.1315918,7.0789719
		c0.3370972,0.3266449,0.7536926,0.1469269,1.1282043,0.1514282c2.2285461,0.0267792,4.4574127,0.0254974,6.6861877,0.0336761
		c0.1753693,1.218277-0.2462616,2.3937683-0.2583313,3.5986176c-7.7743835-0.005188-15.5487823-0.0114746-23.3231659-0.0128326
		c-0.4764709-0.0000763-0.9529266,0.0387268-1.4293823,0.0594635c-2.7177582-0.0061035-5.4356537-0.0296478-8.1531372-0.0057678
		c-0.6569824,0.0057983-0.9586029-0.1555634-1.1537933-0.8528442c-1.4153748-5.0559311-2.8727264-10.1004944-4.3727722-15.1319962
		c-0.1995239-0.6691971-0.1479645-1.1692505,0.2987061-1.6299667c0.6844177-0.7059631,0.7004395-1.4141693,0.4139252-2.359436
		c-2.9305115-9.6686172-5.8009033-19.355423-8.6872406-29.0373993c-0.09021-0.3026276-0.2102661-0.6037445-0.1017761-0.9289017
		c1.0941162,0.2642822,1.9897003,0.9609985,3.0101471,1.3800125c0.8292389,0.3404999,1.2971344,0.8716202,1.5888824,1.7553024
		c1.3196869,3.997261,2.7275391,7.9654236,4.0988617,11.9457092c0.4272003,1.2399597,0.4203339,1.2428284,1.7324524,1.2429504
		c3.9504547,0.0003738,7.9008942,0.0003433,11.8513336,0.0004349c2.0749817,0.0000458,4.1505127,0.0269241,6.2246552-0.0143661
		c0.7417145-0.0147629,1.1783295,0.2290802,1.4711151,0.9171906c0.3882599,0.912468,0.8374481,1.8026199,1.3146362,2.6726837
		C168.5377045,102.982666,168.7731018,103.9285431,169.461853,104.6186142z"></path>
	<path d="M58.6015167,116.5721588c0.3639297-0.2222519,0.7679176-0.1730499,1.1650887-0.1728745
		c1.718853,0.0007782,3.4380302-0.0182724,5.1563835,0.0112686c0.5894394,0.0101242,0.9454575-0.1304092,1.170433-0.7378235
		c1.132782-3.0584793,2.3104248-6.1003571,3.4666367-9.1502075c0.039856-0.1051483,0.0194702-0.2331238,0.0353241-0.4749908
		c-5.9024811,0-11.7834053,0-17.7118073,0c0.4042091-1.0939255,1.1088028-1.3527527,2.1047134-1.3032761
		c1.1108246,0.0551987,2.2344437,0.1144485,3.3471985-0.0554199c0.6059837,0.1888504,0.9479866-0.0523071,1.217205-0.6155548
		c0.7555466-1.5806808,1.5896492-3.1240997,2.3333702-4.7100449c0.2603264-0.5551376,0.57967-0.7478485,1.1831932-0.7404938
		c1.7588463,0.0214157,3.5184975-0.0382462,5.2777824-0.0353241c4.3193207,0.0071869,8.6386032,0.0411758,12.957901,0.0438843
		c1.4655914,0.0009232,1.1946945,0.2859116,1.7335739-1.2340775c1.4634094-4.1277161,2.9015427-8.2646408,4.3053055-12.4129333
		c0.1870728-0.5528412,0.4764328-0.8508682,0.965065-1.1107635c1.1242523-0.5979385,2.3261337-1.0518723,3.3731537-1.7939529
		c0.3797531,0.0933762,0.2128296,0.3193741,0.146019,0.5433655c-1.1027145,3.6970367-2.1981354,7.3962326-3.2988892,11.0938568
		c-1.9064407,6.4040909-3.8045807,12.8107224-5.7436371,19.2049408c-0.1573181,0.5187683-0.0431976,0.8481903,0.2760315,1.1619263
		c0.8537598,0.8390732,0.7938538,1.747139,0.4658585,2.8303375c-1.3833847,4.5685883-2.6858368,9.1616516-4.0183258,13.745636
		c-0.0665283,0.2288361-0.1734543,0.4525452-0.198967,0.6854858c-0.0783844,0.7156372-0.4837799,0.8656158-1.1519852,0.8571014
		c-2.7172089-0.0345764-5.4351273-0.0139618-8.1527786-0.0137024c-0.4787521-0.0149078-0.9575272-0.0429993-1.4362717-0.0428009
		c-7.6351242,0.0030823-15.2702522,0.0097961-22.9053764,0.0156555c-0.1627235-1.1909485-0.4178619-2.3723755-0.3693123-3.585083
		c2.2512474-0.0291138,4.5024948-0.0582275,6.753746-0.0873566c0.4878578,0.1264038,0.8187904-0.0046387,1.0689735-0.4863129
		c0.4587593-0.8832397,0.9852753-1.7311783,1.477005-2.5975342
		C55.2647972,122.461647,56.9326134,119.5166016,58.6015167,116.5721588z"></path>
	<path d="M183.6213379,197.0718689c-0.3991699,0.0112457-0.7983551,0.0323486-1.197525,0.0323792
		c-16.3514862,0.0014038-32.7029419,0.0009003-49.0544281,0.0006561c-0.1199341,0-0.2432098-0.0181885-0.3592682,0.0030518
		c-0.7451172,0.1364136-1.0529175-0.2117462-1.2041779-0.9199066c-0.2566071-1.2014313-0.6035767-2.383606-0.9098969-3.5636292
		c0.2670135-0.3285065,0.6104431-0.1944885,0.9062805-0.194931c9.3151398-0.0139008,18.6302643-0.0161133,27.9454041-0.0309753
		c0.5800781-0.0009308,1.1293793-0.0101929,1.4482117,0.5874939c0.2618256,0.4907837,0.723938,0.4135284,1.1583557,0.4136658
		c2.3587799,0.0007172,4.7175446-0.0001984,7.0763245,0.0002899c4.4775543,0.0009003,8.9551086,0.0023804,13.432663,0.0036469
		C183.3304901,194.5820923,183.5661316,195.8083496,183.6213379,197.0718689z"></path>
	<path d="M45.5355606,193.4029541c6.4784698-0.0010223,12.9569435-0.0071411,19.4353867,0.0047607
		c0.6647339,0.0012054,1.2752457,0.0089722,1.6348801-0.6919708c0.1711273-0.3335419,0.5203247-0.3160248,0.8466187-0.3132324
		c0.71978,0.006134,1.4396515,0.0027924,2.1594772,0.0032806c8.5579834,0.0057373,17.1159744,0.0099487,25.6739502,0.0215607
		c0.4333572,0.0005951,0.8770981-0.0833588,1.368187,0.1024628c-0.2453613,1.4003754-0.7080688,2.7471466-1.0585098,4.1212006
		c-0.083725,0.3283234-0.2552795,0.4741821-0.5877457,0.4542847c-0.1593552-0.0095367-0.3198166-0.0004272-0.4797821-0.0004425
		c-16.356102-0.0019073-32.7122002-0.00383-49.0682983-0.0057831
		C45.2390366,195.8619995,45.152832,194.627655,45.5355606,193.4029541z"></path>
	<path d="M168.0164642,201.9971924c5.4376221-0.0110931,10.8752594-0.0222015,16.3128815-0.0333099
		c0.2720947,0.9296722,0.2607422,1.8769531,0.1758881,2.8288116c-5.1004639,0.0056458-10.2010345-0.0038452-15.3012695,0.0337677
		c-0.7377625,0.0054474-0.9807739-0.2253571-0.9883423-0.9392242
		C168.2089539,203.2578888,167.9398956,202.644043,168.0164642,201.9971924z"></path>
	<path d="M44.3605118,201.9567871c5.0571556,0.0124512,10.1143036,0.0249176,15.1714592,0.037384
		c0.0338097,0.9176788,0.0907822,2.0113678-0.4433899,2.6261292c-0.4794044,0.5516663-1.580822,0.1798096-2.4052849,0.1813812
		c-4.3799057,0.0083618-8.7598572-0.0104523-13.1397972-0.0198364
		C43.699234,203.806488,43.9694633,202.8641815,44.3605118,201.9567871z"></path>
	<path d="M141.0913239,46.7866783c3.1723938,3.9039764,6.3441162,7.8084793,9.5175476,11.7116089
		c1.0330811,1.2706337,2.0962524,2.5179596,3.0944672,3.8152733c0.4530792,0.588829,0.9242706,0.9381866,1.7037811,0.8209991
		c0.5101624-0.0766907,1.0363159-0.0471268,1.5552979-0.0651398c0.4390106,0.0114403,0.8780518,0.0337143,1.3170166,0.0327415
		c11.7127838-0.0260468,23.4255676-0.0544701,35.1383514-0.0825195c0.1598969-0.0003891,0.3198242-0.0032349,0.4796906-0.0012131
		c1.0497131,0.013279,1.0483551,0.0135689,1.0116119,1.0790749c-0.0179138,0.5188446-0.0747833,1.0415268-0.033371,1.5559921
		c0.0575714,0.7150192-0.2698212,0.8663635-0.9150085,0.8571701c-2.1582489-0.030777-4.3171997-0.0144424-6.4758759-0.010643
		c-2.0783691,0.0036545-4.156723,0.0141449-6.2350922,0.021637c-0.467453-0.1608429-0.9515839-0.0923004-1.4282379-0.0924683
		c-11.0746155-0.0037689-22.1492462-0.0146484-33.2237549,0.0189438c-0.9064941,0.0027466-1.4117584-0.2472076-1.8879089-1.0418854
		c-3.6230621-6.0470238-7.3028259-12.0600929-10.9623108-18.0853462c-0.1022339-0.168335-0.1749573-0.3545837-0.2614441-0.5324783
		C136.0211639,46.7878456,138.5562439,46.7872658,141.0913239,46.7866783z"></path>
	<path d="M65.0538864,63.0575523c2.5153046,0.0220833,5.0310211,0.0255318,7.5456238,0.0800247
		c0.5905685,0.0127945,0.8491974-0.3423004,1.150116-0.7107391c2.7256088-3.3372002,5.4589386-6.6681366,8.1741791-10.0137253
		c1.507103-1.8569679,3.0880127-3.6549721,4.4961243-5.5914955c2.5473022-0.1301842,5.0955048-0.0498199,7.6434402-0.0331802
		c-1.9233475,3.2084618-3.8395233,6.4212494-5.7721252,9.6241226c-1.7910461,2.9682655-3.6331711,5.9064255-5.378685,8.9009857
		c-0.4788971,0.8216095-0.9795227,1.1410828-1.9543762,1.1376343c-11.0777588-0.0391922-22.1557083-0.0258636-33.2336044-0.0216293
		c-0.4761772,0.0001755-0.9611855-0.0751953-1.4267502,0.0987625c-3.990963-0.0097046-7.9819221-0.0194244-11.9728889-0.0291138
		c-0.2793961-0.0006714-0.5597916-0.0165634-0.8379707,0.0015259c-0.4708862,0.0306168-0.6250763-0.184082-0.6064453-0.6388092
		c0.0310211-0.7567368,0.0378075-1.5158615,0.0156326-2.2728424c-0.0121574-0.4147453,0.1441307-0.5837708,0.5476646-0.5700531
		c0.318924,0.0108337,0.6385345,0.000988,0.9578362,0.00177c9.7391472,0.0239525,19.4782982,0.0486374,29.217453,0.0705299
		C64.0973434,63.0923882,64.5756226,63.0693588,65.0538864,63.0575523z"></path>
	<path d="M167.0115356,93.1252747c-3.9966583-0.0151062-7.9938965-0.0724945-11.9895325-0.0162201
		c-1.0280304,0.014473-1.5446167-0.312912-2.0114594-1.2076416c-1.5462341-2.9634933-3.1936035-5.8742294-4.7966919-8.808197
		c-0.1702881-0.3116989-0.3044586-0.6431198-0.4553833-0.9653854c4.3464813-0.0112839,8.6929779-0.0189667,13.0393982-0.0399246
		c0.3908539-0.0018921,0.6788788,0.0816422,0.8992615,0.4344254c2.1672363,3.4697723,4.344696,6.933197,6.5256958,10.4087219
		C167.7971344,93.1993637,167.380249,92.9949188,167.0115356,93.1252747z"></path>
	<path d="M79.5469208,82.0377731c0.2179489,0.1959,0.1815948,0.3913345,0.0487213,0.6329117
		c-1.8237762,3.3157425-3.6476212,6.6315384-5.4466324,9.9607162c-0.2763138,0.5113449-0.6906662,0.4483948-1.1227264,0.4484329
		c-4.0398102,0.0003891-8.0796127-0.0012894-12.1194115,0.0022507c-0.4388962,0.0003815-0.8777657,0.0299835-1.3166466,0.0460281
		c-0.2690315-0.1002274-0.2172852-0.2582626-0.096096-0.4510651c2.0972557-3.336525,4.2011833-6.6689529,6.276783-10.0189056
		c0.3367767-0.5435257,0.7912827-0.5697632,1.3275757-0.5685425c3.7519836,0.0085602,7.5039902,0.0062561,11.2559891,0.0021286
		C78.751976,82.0912857,79.1494446,82.0565796,79.5469208,82.0377731z"></path>
	<path d="M183.9913635,84.0019455c2.7086487,0,5.1799469,0.0093842,7.6510773-0.0068207
		c0.5922089-0.0038834,0.6823578,0.2617416,0.5232544,0.7445221c-0.0871429,0.264473-0.1535797,0.5374374-0.2611542,0.7932129
		c-0.6604614,1.5703354-1.4930573,3.0643921-2.0339355,4.9780426
		C187.8569336,88.2815475,186.0133209,86.2404633,183.9913635,84.0019455z"></path>
	<path d="M43.5211601,84.0586624c-1.7723579,1.9687042-3.4188881,3.7976379-5.1778831,5.7514877
		c-0.7845078-1.9620743-1.523632-3.8106766-2.299633-5.7514877C38.5426407,84.0586624,40.9274597,84.0586624,43.5211601,84.0586624z
		"></path>
	<path d="M147.4868774,19.7939034c-0.0249329,0.8264046-0.7708893,1.0514507-0.8930511,1.672699
		c-0.039444,0.2005825-0.4278564,0.0975246-0.6539917,0.0499401c-2.6817017-0.5643196-5.3655396-1.1195068-8.0397949-1.7174263
		c-0.4456329-0.099638-0.9500122-0.0574074-1.4047394-0.3685627c0.313324-0.6777287,0.7209625-1.033987,1.4811554-0.9278355
		C141.1240387,18.942234,144.2746887,19.3598042,147.4868774,19.7939034z"></path>
	<path d="M91.1858063,19.5048752c-3.1265106,0.6508217-6.1405106,1.278223-9.158165,1.9063835
		c-0.0414429-0.2512379,0.0798187-0.2879276,0.1414185-0.370533c1.4461441-1.9391747,3.5996399-2.1085167,5.7432556-2.311327
		c0.3945236-0.0373249,0.7926941-0.0790653,1.1773529-0.1691647C89.9583969,18.3567562,90.6592941,18.5299683,91.1858063,19.5048752
		z"></path>
	<path d="M136.5886536,82.1002197c0.1281891-0.0115051,0.2438049-0.0064621,0.2270966,0.1725388
		C136.6384583,82.3488007,136.6296082,82.2034073,136.5886536,82.1002197z"></path>
	<path d="M94.4051208,200.1230927c3.8273621-0.0050812,7.6547394-0.0138397,11.4821014-0.0126038
		c0.9183807,0.0002899,0.9292221,0.0154266,0.9367294,0.9046021c0.010437,1.2351685-0.0311203,2.471817,0.0161057,3.7052765
		c0.0255661,0.66745-0.1752014,0.889679-0.8615417,0.877533c-2.2320404-0.0395508-4.46521-0.0146179-6.6979523-0.0147705
		c-1.9536285-0.0001526-3.9072723-0.0006714-5.8609009-0.0010071
		C93.7177887,203.7569733,93.9533234,201.9205322,94.4051208,200.1230927z"></path>
	<path d="M134.1236725,205.5750885c-4.1473236,0.0026703-8.2946472,0.0079498-12.4419708,0.0059967
		c-0.9513474-0.0004425-0.9563828-0.0118561-0.9604263-0.9763489c-0.0051956-1.2355042,0.0313416-2.4722595-0.0146103-3.7060547
		c-0.024025-0.6450653,0.2129135-0.8062439,0.8237762-0.802002c3.8678818,0.0269012,7.7359924,0.0205231,11.6040192,0.0251312
		C133.6339874,201.9087982,133.8582916,203.7456665,134.1236725,205.5750885z"></path>
</g>
<g onclick="select(this)" class="" id="gola-primaria" fill="#ffffff">
	<path d="M109.3256989,35.9207878c-0.1734467,0.532753-0.5917358,0.2743607-0.9039154,0.2516022
		c-4.1043777-0.299221-7.9513092-1.505722-11.6402817-3.2895241c-5.3551407-2.5894814-10.2299652-5.8816833-14.3707428-10.1524506
		c-2.6511154-2.734333-4.9007111-5.7867432-5.7837296-9.6242762c-0.2346497-1.0197554-0.4030762-2.0421906-0.2305679-3.0806484
		c0.1655655-0.9966812,0.9428787-1.529851,1.6987534-2.062746c0.5144196-0.0249214,0.9029312-0.3084855,1.2525024-0.6408176
		c0.9263763-0.8806958,2.0002518-1.6613083,2.7274628-2.6858997c2.0422745-2.8774152,5.0195923-3.6035271,8.2394028-3.9384618
		c3.0734558-0.3197089,6.1407471,0.0640202,9.2119827,0.0276009c4.3973541-0.0521445,8.7971802,0.0443054,13.1931534-0.0513445
		c7.9102249-0.1721148,15.8182297,0.0474188,23.7272263,0.0364116c0.9124146-0.0012698,1.828537,0.1745476,2.7369537,0.3088157
		c2.2481232,0.332287,4.1498718,1.1915944,5.5701294,3.1200867c1.2012482,1.6310925,2.6129456,3.1247711,4.4388733,4.1271977
		c1.6919098,0.471426,2.2952423,2.5105724,1.6758423,4.7444515c-1.1704712,4.2214594-3.5445099,7.6803961-6.6416321,10.6471872
		c-2.7457275,2.6302032-5.8013458,4.901825-9.102417,6.8089809c-4.071167,2.3520851-8.2753143,4.4175797-12.9284058,5.3568268
		c-1.3970261,0.2819977-2.8357391,0.3577576-4.2551346,0.5281792c0.4981461-1.1476097,1.3241043-2.0655403,2.1212006-3.0007629
		c2.248703-2.6383533,4.9448242-4.810585,7.4805527-7.1498508c2.1459198-1.6623192,4.2819519-3.3376217,6.4404449-4.9834862
		c2.392868-1.8246021,4.6131897-3.8312626,6.5503387-6.1364632c1.4909363-1.7742386,2.8118439-3.6581097,3.6611938-5.995595
		c-2.0445251,0.171031-3.9476471,0.3502245-5.8538818,0.4858923c-5.379715,0.3828764-10.7599335,0.7590179-16.1413574,1.1168613
		c-5.5895386,0.3716831-11.1788483,0.4153547-16.7722092,0.018959c-7.1327515-0.5054932-14.2606812-1.060936-21.3717041-1.816123
		c-0.7256699-0.0770664-0.9725952,0.1089544-0.6669769,0.8316221c0.5152588,1.2184,1.126152,2.3757305,1.9132462,3.447176
		c3.9235306,5.3410435,9.441452,8.9155712,14.446228,13.0588207
		C103.1151276,29.2874451,106.6069336,32.222599,109.3256989,35.9207878z"></path>
</g>
<g onclick="select(this)" class="" id="detalhe-lateral" fill="#ffffff">
	<path d="M180.3169098,283.9697266c-0.3938751-5.0127869-0.5727386-10.0362244-0.8100586-15.0577393
		c-0.282486-5.9776611-0.5378265-11.9543762-0.7411346-17.9355164c-0.1653748-4.8657379-0.3150482-9.7320404-0.4851532-14.597168
		c-0.2554474-7.3048248-0.3230438-14.611908-0.5149689-21.9160767c-0.4473877-17.026535-0.1677856-34.0520782-0.1540527-51.0777435
		c0.0038757-4.8250732,0.1699829-9.658493,0.4935303-14.4725189c0.3222656-4.7945404,0.6694794-9.5894623,1.1401062-14.3773499
		c0.9476013-9.6400223,2.522995-19.1615753,4.9313965-28.5371094c1.2419739-4.834877,2.7194824-9.608345,4.7613068-14.1821518
		c0.1013336-0.2270203,0.0921478-0.5706024,0.4303741-0.6598129l-0.0207214-0.0194473
		c0.2196045,0.4597931-0.0706329,0.8524323-0.1864014,1.2576218c-1.8860931,6.6003571-3.1680298,13.3224106-4.0814209,20.1194611
		c-0.4264069,2.5465698-0.4257202,5.1188202-0.4629211,7.688797c-1.2378235,10.3072052-2.2989655,20.6278992-1.9510498,31.0315857
		c0.0821381,2.4562225,0.7914734,4.8716583,0.4144745,7.3699951c-0.3516235,2.3302765-0.4445953,4.684967-0.4245453,7.0450745
		c0.0559845,6.582428,0.098587,13.1757202-0.1155396,19.7438812c-0.1456757,4.4695435,0.7072906,8.6924438,1.4236298,12.9963837
		c0.8506927,5.1109314,0.9480896,10.2349701,0.2398224,15.3761444c-0.3209076,2.3293762-0.54039,4.6726532-0.8144379,7.008606
		c-0.0490723,0.4181976,0.1008759,0.7893066,0.2301788,1.1618195c1.989563,5.7316895,2.4832916,11.6064911,1.5848999,17.5875092
		c-0.3058167,2.0359802-0.3425293,4.0207977,0.0992279,6.0381927c0.4457397,2.035675,0.5504761,4.1139832,0.5100098,6.1976929
		c-0.1430817,7.3665771,0.683609,14.670929,1.384079,21.9852905c0.2195892,2.2928162,0.3340759,4.5978088,0.3145142,6.9078064
		c-0.0094452,1.1127625-0.4973297,1.8139954-1.5031281,2.1914368
		C184.1745911,283.5326233,182.2864838,283.9595947,180.3169098,283.9697266z"></path>
	<path d="M42.4525146,112.7778625c0.0891304-1.9299164-0.3513565-3.8075333-0.5991211-5.7007065
		c-0.3732796-2.8522339-0.8833809-5.6866074-1.2544365-8.5390854c-0.0882454-0.6783676-0.8202057-1.239563-0.2923431-2.1296234
		c0.9014931,1.8765564,1.3568306,3.8127823,1.9383469,5.6982117c1.892025,6.1343842,3.1134682,12.4154968,4.1846809,18.7393494
		c0.7700386,4.5458832,1.3809853,9.100647,1.8283081,13.6878357c0.4091072,4.1953125,0.7145462,8.3927002,0.9685097,12.6003418
		c1.2914009,21.395874,0.6496124,42.8105927,0.6577225,64.2175446c0.0015144,3.9883881-0.0966606,7.98703-0.1893997,11.9799347
		c-0.1455345,6.2663422-0.2806168,12.5340118-0.535202,18.7964172c-0.1799202,4.4257202-0.3308334,8.8512878-0.473175,13.2781372
		c-0.1807213,5.6206055-0.3782196,11.2443237-0.7604179,16.8535767c-0.2574959,3.7790527-0.196804,7.579834-0.7390556,11.3394775
		c-1.7242279-0.0837708-3.3719635-0.5368042-4.9835625-1.1030884c-1.6184654-0.5686951-2.0121346-1.1141663-1.9840698-2.8423157
		c0.0452156-2.7842407,0.1874161-5.5641479,0.4140472-8.3428955c0.431675-5.2928772,0.7171974-10.5978699,1.1692505-15.8888245
		c0.4074936-4.7694855-0.0650482-9.592804,0.9218788-14.3255157c0.1883888-0.9033813,0.0964546-1.8375397-0.042675-2.744751
		c-0.4781952-3.1182098-0.3503647-6.2133179,0.3311234-9.2835846c0.1949081-0.8781128,0.1388702-1.7289124,0.0771484-2.6109161
		c-0.2841988-4.0611115-0.8382988-8.1011047-0.8580627-12.1838684c-0.0239258-4.942688,1.0864563-9.6556549,2.7438126-14.2636871
		c0.3171997-0.881958,0.5332336-1.7270813,0.4237556-2.675354c-0.1839256-1.5931854-0.141243-3.1873627,0.1506195-4.7743683
		c0.1077003-0.5856476,0.1623573-1.1927948,0.1462173-1.7875824c-0.1308823-4.8229065-0.2779045-9.645401-0.4356956-14.4675293
		c-0.0367355-1.1227112,0.0765038-2.2321014,0.1623611-3.3472748c0.144268-1.8738251,0.1034241-3.7475739-0.048111-5.6235199
		c-0.4092598-5.0663605-0.1779556-10.145752-0.0681305-15.2097778c0.196312-9.0511017-0.2082138-18.0476379-1.5041733-27.0064316
		c-0.2226868-1.5393982-0.3748512-3.0890045-0.5595245-4.6338654c0.5152626-1.2158585-0.2161751-2.3334808-0.3642349-3.4790726
		C42.6969795,115.5973511,42.9329262,114.1476212,42.4525146,112.7778625z"></path>
</g>
<g onclick="select(this)" class="" id="detalhe-punho" fill="#ffffff">
	<path d="M0.24,114.41436c0.5066518-1.0333099,0.4623487-2.1853943,0.7029477-3.2761536
		c0.1164828-0.5280762,0.0638708-1.1035385,0.4705237-1.5418396c4.7471166,1.9192047,9.661128,3.2643356,14.739399,3.8523865
		c5.6213551,0.6509323,11.2752342,0.8683701,16.9397697,0.6843262c2.350296-0.076355,4.6895752-0.1641083,7.0189934-0.5657349
		c0.8487549-0.1463318,1.4449158-0.8912582,2.3408813-0.7894821c0.4804115,1.3697586,0.2444649,2.8194885,0.4263916,4.2271881
		c0.1480598,1.1455917,0.8794975,2.2632141,0.3643112,3.4790955c-2.841095,1.3330917-5.9081955,1.7382584-8.9673958,1.7949448
		c-7.0645809,0.130928-14.1399384,0.3043518-21.1575737-0.9066238c-3.6142483-0.6236801-7.2130728-1.2875977-10.7040243-2.4304047
		c-0.7462479-0.2443008-1.4505816-0.6164856-2.1742241-0.9297638C0.24,116.8129883,0.24,115.613678,0.24,114.41436z"></path>
	<path d="M184.6167908,120.2029724c0.0372009-2.5699768,0.0365143-5.1422272,0.4629211-7.688797
		c0.9396362,0.5695877,1.9786682,0.9036407,3.0544434,0.9562988c5.6075439,0.2745056,11.228775,0.5989304,16.8232422-0.0108337
		c3.9904938-0.4349365,7.9450073-1.161026,11.8859558-1.9935684c3.0928345-0.6533813,6.000824-1.8692627,9.0736084-2.5406494
		c0.6487732-0.1417542,1.2501068-0.5003433,1.873291-0.7590942c1.0290527,2.4653549,1.3149261,5.0500107,1.1316986,7.6846695
		c-0.0435181,0.6258698-0.7669983,0.7556763-1.2712555,0.942894c-3.2154999,1.1938553-6.5277557,2.0655441-9.8517761,2.8920898
		c-8.3978119,2.0882339-16.9433594,2.4642563-25.539505,2.1048508c-1.8251953-0.0763016-3.6426392-0.4177322-5.4543915-0.6971664
		C186.0230713,120.9730606,185.2617188,120.7066879,184.6167908,120.2029724z"></path>
</g>
<g onclick="select(this)" class="" id="gola-secundaria" fill="#30a683">
	<path d="M127.5429077,26.2013435c-2.5357285,2.3392677-5.2318497,4.5114994-7.4805527,7.1498528
		c-0.7970963,0.9352226-1.6230545,1.8531532-2.1212006,3.0007591c-2.3132095,0.5602531-4.6457596,0.380825-6.9806519,0.1973152
		c-0.6160583-0.0484238-1.1409073-0.2847061-1.6344376-0.6280861c-2.7191315-3.6985855-6.2109375-6.6337395-9.5777512-9.6924343
		c2.8338776-0.0287647,5.6676941-0.0822201,8.5014725-0.080719
		C114.6808319,26.1514378,121.1118698,26.1818867,127.5429077,26.2013435z"></path>
</g>
<path d="M189.3682404,91.1565399c0.0375671-0.1338425,0.0751343-0.2676697,0.1127014-0.4015045
	c0.0261383,0.028389,0.072525,0.0551529,0.0749512,0.0854416c0.012146,0.1519699,0.0203705,0.3102493-0.208313,0.2966614
	C189.3475342,91.1370926,189.3682556,91.1565399,189.3682404,91.1565399z"></path>
</svg>
