<!--?xml version="1.0" encoding="utf-8"?-->
<!-- Generator: Adobe Illustrator 24.2.3, SVG Export Plug-In . SVG Version: 6.00 Build 0)  -->
<svg version="1.1" id="Camada_1" xmlns="http://www.w3.org/2000/svg" xmlns:xlink="http://www.w3.org/1999/xlink" x="0px" y="0px" viewBox="0 0 234 419" style="enable-background:new 0 0 234 419;" xml:space="preserve">
<style type="text/css">
	.st0{fill:#13F9F6;}
	.st1{fill:#0CA4A4;}
	.st2{fill:#07115C;}
	.st3{fill:#6F8CEC;}
</style>
<g onclick="select(this)" class="" id="c-gola-primaria" fill="#082890">
	<path d="M81.9,8c1.7-1.4,3.4-2.8,4.7-4.6C88,1.5,90,0.8,92.2,0.7c0.6,0,1.4,0.3,1.8-0.5c15.9,0,31.8,0,47.8,0
		c1,0.5,2.1,0.5,3.1,0.7c1.6,0.4,3,1.1,4,2.4c1.3,1.7,3,3,4.5,4.4c-0.7,0.1-1.5,0.2-2.2,0.3c-3.2,0.4-6.4,0.9-9.6,1.4
		c-4.3,0.6-8.7,0.8-13,1.1c-5.1,0.3-10.3,0.8-15.4,0.5c-7.1-0.5-14.3-0.7-21.4-1.8C88.5,8.6,85.2,8.2,81.9,8z"></path>
</g>
<g onclick="select(this)" class="" id="c-detalhe-punho" fill="#011023">
	<path d="M0.2,116.1c0.4-2,0.8-4,1.2-6c0.1-0.3,0-0.6,0.3-0.7c0.4,0.2,0.9,0.4,1.3,0.5c5.7,1.1,11.4,2,17.2,3
		c5.9,1,11.9,1.4,17.8,1.4c2.4,0,4.8-0.1,6.9-1.4c0.7-0.5,1.1-0.1,1.1,0.7c0,0.4-0.3,1,0.4,1.2c0,1.2,0,2.4,0,3.6
		c-0.1,0.6-0.3,1.2-0.2,1.8c0.1,1.2-0.6,1.4-1.5,1.5c-5.6,0.6-11.1,1.1-16.7,0.5c-9.1-1-18.2-2.3-27.2-4.3c-0.2-0.1-0.4-0.2-0.7-0.2
		C0.2,117.1,0.2,116.6,0.2,116.1z"></path>
	<path d="M188.7,112.5c1.1,0.1,1.8,0.9,2.6,1.5c1,0.7,2.1,1.3,3.3,1.3c3.7,0.1,7.4,0.3,11.1,0.2c2.9-0.1,5.8-0.7,8.8-1
		c3.2-0.4,6.4-0.7,9.6-1.1c2.7-0.3,5.4-1,8.1-1.7c0.7,0.1,0.5,0.8,0.6,1.2c0.3,1.9,0.4,3.9,0.6,5.8c0.1,1-0.4,1.3-1.2,1.4
		c-3.7,0.9-7.5,1.6-11.3,2.1c-7.1,1-14.3,1.7-21.5,1.5c-2.9-0.1-5.8-0.4-8.4-2c-0.3-0.2-0.7-0.3-1.1-0.3c-0.8-0.1-1.3-0.4-1.7-1.1
		C188,117.7,188.7,115.2,188.7,112.5z"></path>
</g>
<g onclick="select(this)" class="" id="c-estampa-primaria" fill="#082890">
	<path d="M46.6,118.2c0-1.2,0-2.4,0-3.6c0.5-3.6-0.9-6.9-1.2-10.4c-0.2-2.2,0.1-4.5-1-6.6c0.2-4.2-1-8.3-1.4-12.4
		c-0.4-3.7-1.6-7-3.8-9.9c-0.5-0.7-0.9-1.5-1.3-2.3c-1.7-3.2-2.4-6.7-3.5-10C32.3,56.6,31,50,31,43.2c0-1.1,0.2-2.2,0.3-3.3
		c0.1-1.9,0-3.9,0.4-5.8c0.1-0.5,0.1-1.1-0.2-1.6c4.2-2,8.4-4,12.7-5.8c7.1-2.8,14.1-5.9,21.1-9c3.9-1.8,7.6-4.1,11.2-6.4
		c0.5-0.3,0.8-0.7,1.1-1.1c1.1-1.2,2.4-2.2,4.2-2.2c3.3,0.2,6.6,0.7,9.9,1.2c7.1,1.1,14.2,1.3,21.4,1.8c5.2,0.4,10.3-0.2,15.4-0.5
		c4.3-0.3,8.7-0.5,13-1.1c3.2-0.4,6.4-0.9,9.6-1.4c0.7-0.1,1.5-0.2,2.2-0.3c2,0,3.5,1.1,4.8,2.5c1,1.2,2.4,1.8,3.7,2.6
		c8.6,4.8,17.6,8.9,26.8,12.5c4.9,1.9,9.7,4.4,14.5,6.5c0.2,0.1,0.4,0.3,0.6,0.4c-0.4,0.5-0.5,1.2-0.3,1.7c0.5,1.1,0.1,2.3,0.2,3.4
		c0.1,2.9,0.6,5.8,0.3,8.8c-0.3,2.4-0.3,4.9-0.8,7.3c-1.3,6.2-3.2,12.3-5.3,18.3c-0.7,2.1-1.8,4.1-3.4,5.5c-1,0.9-1.8,1.8-2.1,3.1
		c-1.2,4.1-1.6,8.4-1.8,12.6c-0.2,2.8-0.3,5.6-1.1,8.4c-0.5,2-0.8,4.2-0.6,6.3c0.2,1.7-0.1,3.2-0.2,4.9c0,2.6-0.7,5.2-0.5,7.8
		c-0.4,0.3-0.3,0.7-0.3,1.1c-1.2,10.5-1.5,21-0.9,31.6c0.2,3.2-0.1,6.5-0.3,9.7c-0.4,6.1,0.1,12.1,0.1,18.2c0,2.7-0.1,5.4-0.4,8
		c-0.2,1.9-0.3,3.8,0,5.7c0,0.3,0.1,0.6,0.1,0.8c-0.3,3.1,0.5,5.9,1.4,8.8c1.6,5.7,2,11.5,1.5,17.4c-0.3,4.2-0.9,8.5,0,12.8
		c0.2,1.1,0.1,2.2,0.1,3.3c-0.4,7.6,0.8,15.1,1.1,22.7c0.2,5.3,0.7,10.7,0.9,16c0.1,1.5,0.3,3.1,0.3,4.7c0,1.8-0.2,2.2-1.9,2.7
		c-4.4,1.4-9,2.3-13.6,2.9c-11.6,1.7-23.3,1.8-34.9,2c-21.5,0.3-43,0.6-64.5,0.3c-10-0.1-20-1-29.7-3.8c-3.7-1-3.8-1.1-3.6-4.8
		c0.4-7,1-14,1.5-21c0.2-3.2-0.1-6.5,0.4-9.7c0.1-0.6,0.1-1.1,0.2-1.7c0.9-3.2,0.1-6.4-0.1-9.6c-0.2-4.6,0.2-9.2,1.4-13.6
		c0.4-1.6,0.5-3.1,0.3-4.7c-1.1-8.7-0.9-17.3,1.1-25.9c0.3-1.4,0.4-2.8,0.3-4.2c-0.4-4.7,0-9.5-0.2-14.3c-0.2-5.7,0-11.5-0.5-17.3
		c-0.3-3.6,0.4-7.2,0.3-10.8c-0.3-9.6-0.9-19.2-1.5-28.7C46.8,118.9,47,118.5,46.6,118.2z"></path>
	<path d="M188.7,112.5c0.1-1.6,0.4-3.2,0.2-4.9c-0.2-2.1,0-4.2,0.6-6.3c0.7-2.8,0.9-5.5,1.1-8.4
		c0.2-4.2,0.6-8.5,1.8-12.6c0.4-1.2,1.1-2.2,2.1-3.1c1.6-1.5,2.7-3.5,3.4-5.5c2.1-6,4-12.1,5.3-18.3c0.5-2.4,0.5-4.9,0.8-7.3
		c0.3-2.9-0.1-5.9-0.3-8.8c-0.1-1.1,0.3-2.2-0.2-3.4c-0.2-0.5-0.1-1.2,0.3-1.7c0.3,0.2,0.6,0.3,0.8,0.5
		c10.2,8.1,16.7,18.5,19.7,31.1c1.4,5.7,2,11.5,2.9,17.2c1.6,9.7,2.6,19.5,4.7,29.2c0.1,0.5,0.1,1,0.1,1.4c-2.7,0.7-5.3,1.4-8.1,1.7
		c-3.2,0.4-6.4,0.7-9.6,1.1c-2.9,0.3-5.8,0.9-8.8,1c-3.7,0.1-7.4-0.1-11.1-0.2c-1.2,0-2.3-0.6-3.3-1.3
		C190.5,113.4,189.8,112.6,188.7,112.5z"></path>
	<path d="M31.4,32.4c0.3,0.5,0.4,1.1,0.2,1.6c-0.4,1.9-0.3,3.9-0.4,5.8C31.2,41,31,42.1,31,43.2
		c0,6.8,1.4,13.4,3.5,19.9c1.1,3.4,1.8,6.9,3.5,10c0.4,0.8,0.8,1.6,1.3,2.3c2.2,3,3.4,6.3,3.8,9.9c0.5,4.1,1.7,8.2,1.4,12.4
		c1.1,2.1,0.8,4.4,1,6.6c0.3,3.5,1.6,6.8,1.2,10.4c-0.7-0.2-0.4-0.8-0.4-1.2c0-0.8-0.3-1.2-1.1-0.7c-2.1,1.3-4.5,1.4-6.9,1.4
		c-6,0-11.9-0.4-17.8-1.4c-5.7-0.9-11.4-1.9-17.2-3c-0.5-0.1-0.9-0.2-1.3-0.5c1.2-8,2.2-16,4.4-23.8c1.5-5.3,2-10.8,3-16.3
		c1.5-8.1,3.9-15.8,8.4-22.8c2.8-4.3,6.2-8.1,10.2-11.2C29,34.4,30,33.1,31.4,32.4z"></path>
</g>
<g onclick="select(this)" class="" id="c-estampa-secundaria" fill="#011023">
	<path d="M73.4,289.2c0-2.4,0-4.9,0-7.3c0-29.9,0-59.8,0-89.6c0-0.4,0-0.7,0-1.1c0-0.5,0.4-0.4,0.7-0.4s0.7-0.1,0.7,0.4
		c0,0.2,0,0.5,0,0.7c0,32.5,0,64.9,0,97.4C74.4,289.4,73.9,289.6,73.4,289.2z"></path>
	<path d="M84.4,289.4c0-32.3,0-64.6,0-96.9c0-0.4,0-0.7,0-1.1c0-0.6,0.4-0.6,0.8-0.6c0.4,0,0.7,0.1,0.7,0.6
		c0,0.4,0,0.7,0,1.1c0,32.3,0,64.6,0,96.9C85.4,289.4,84.9,289.4,84.4,289.4z"></path>
	<path d="M95.5,289.4c0-32.4,0-64.9,0-97.3c0-0.5-0.4-1.4,0.8-1.3c0.5,0,0.7,0.2,0.7,0.7c0,0.4,0,0.7,0,1.1
		c0,32.3,0,64.6,0,96.8C96.5,289.4,96,289.4,95.5,289.4z"></path>
	<path d="M106.5,289.4c0-32.5,0-64.9,0-97.4c0-0.6-0.2-1.2,0.8-1.2c1,0,0.7,0.7,0.7,1.2c0,32.5,0,64.9,0,97.4
		C107.5,289.5,107,289.5,106.5,289.4z"></path>
	<path d="M117.5,289.3c0-10.9,0-21.8,0-32.8c0-21.4,0-42.7,0-64.1c0-0.4,0-0.7,0-1.1c0-0.5,0.3-0.6,0.7-0.5
		c0.4,0,0.8-0.1,0.8,0.5c0,0.2,0,0.5,0,0.7c0,32.2,0,64.4,0,96.6c0,0.2,0,0.4,0,0.6C118.5,289.5,118.1,289.4,117.5,289.3z"></path>
	<path d="M128.6,289.2c0-8.8,0-17.5,0-26.3c0-23.5,0-47,0-70.6c0-0.4,0-0.7,0-1.1c0-0.5,0.4-0.5,0.7-0.5
		c0.3,0,0.8-0.1,0.8,0.4c0,0.3,0,0.6,0,0.8c0,32.2,0,64.3,0,96.5c0,0.2,0,0.4,0,0.6C129.6,289.3,129.1,289.3,128.6,289.2z"></path>
	<path d="M139.6,289.1c0-28.5,0-57,0-85.6c0-3.8,0-7.6,0-11.4c0-0.5-0.4-1.4,0.8-1.4s0.8,0.8,0.8,1.4
		c0,31.6,0,63.3,0,94.9c0,0.7,0,1.4,0,2C140.7,289.2,140.1,289.2,139.6,289.1z"></path>
	<path d="M150.7,288.9c0-32.3,0-64.6,0-96.9c0-0.5-0.3-1.1,0.7-1.2c0.8,0,0.8,0.4,0.8,1c0,32.3,0,64.5,0,96.8
		c0,0.1,0,0.2,0,0.2C151.7,289,151.2,289,150.7,288.9z"></path>
	<path d="M62.4,288.4c0-32.1,0-64.3,0-96.4c0-0.5-0.3-1.3,0.8-1.2c0.5,0,0.8,0.1,0.7,0.7c0,0.2,0,0.3,0,0.5
		c0,32.2,0,64.4,0,96.7C63.3,288.8,62.8,288.7,62.4,288.4z"></path>
	<path d="M161.8,288.4c0-32.2,0-64.4,0-96.6c0,0,0-0.1,0-0.1c0-0.5-0.1-0.9,0.7-0.9c0.8,0,0.8,0.4,0.8,1
		c0,0.3,0,0.6,0,0.8c0,31.4,0,62.9,0,94.3c0,0.5,0,1,0,1.4C162.7,288.6,162.2,288.5,161.8,288.4z"></path>
	<path d="M172.8,287.5c0-0.4,0-0.7,0-1.1c0-31.4,0-62.9,0-94.3c0-0.6-0.3-1.5,0.9-1.3c0.4,0,0.6,0.1,0.6,0.6
		c0,0.2,0,0.3,0,0.5c0,31.8,0,63.7,0,95.5C173.8,287.6,173.3,287.6,172.8,287.5z"></path>
	<path d="M51.3,286.6c0-0.3,0-0.6,0-0.8c0-31.2,0-62.5,0-93.7c0-0.7-0.2-1.4,1-1.3c0.4,0.1,0.6,0.2,0.6,0.6
		c0,0.2,0,0.5,0,0.7c0,31.4,0,62.8,0,94.2c0,0.2,0,0.5,0,0.7C52.3,287,51.8,286.9,51.3,286.6z"></path>
	<path d="M183.8,285.6c0-31.2,0-62.4,0-93.6c0-0.5-0.3-1.3,0.8-1.2c0.5,0,0.8,0.2,0.7,0.7c0,0.4,0,0.7,0,1.1
		c0,30.9,0,61.8,0,92.7C184.9,285.6,184.3,285.6,183.8,285.6z"></path>
</g>
</svg>
