<!--?xml version="1.0" encoding="utf-8"?-->
<!-- Generator: Adobe Illustrator 24.2.3, SVG Export Plug-In . SVG Version: 6.00 Build 0)  -->
<svg version="1.1" id="Camada_1" xmlns="http://www.w3.org/2000/svg" xmlns:xlink="http://www.w3.org/1999/xlink" x="0px" y="0px" viewBox="0 0 229 418" enable-background="new 0 0 229 418" xml:space="preserve">
<g onclick="select(this)" class="" id="estampa-primaria" fill="#082890">
	<path d="M43.3251877,120.6400299c0.0328255-2.3720551-0.4479294-4.6726074-0.9674187-6.9681168
		c-0.1202202-0.5312042-0.4143372-0.4315796-0.8002129-0.2821274c-1.717659,0.6652451-3.465416,1.1455765-5.342453,1.1464615
		c-3.6985168,0.0017395-7.3968143,0.1149216-11.0928478-0.1318054c-1.5918961-0.1062698-3.1866016-0.2161865-4.78092-0.2314072
		c-3.9085369-0.0373306-7.615387-1.2645111-11.4230356-1.8909149c-1.8448792-0.3035126-3.6547766-0.8265915-5.4736233-1.2780151
		c-0.7386134-0.1833115-1.4358873-0.4907761-2.0628524-0.9366074c1.7948196-9.4650497,2.6792479-19.0649109,4.2429094-28.5652542
		c0.849421-5.1608276,1.1670041-10.3998489,2.277905-15.5287018c1.742465-8.0446968,4.4394779-15.676693,9.3643827-22.3827934
		c2.140049-2.9140472,4.5777931-5.5591583,7.4117775-7.8018188c1.3627796-1.0784302,2.361639-2.5726166,3.9245949-3.3992348
		c3.6053352-1.9067955,7.2556648-3.7269535,11.0274811-5.2820396c9.9830856-4.1159401,19.9887543-8.180336,29.4469223-13.4433012
		c1.9736176-1.0982161,3.9911194-2.0937567,5.5190811-3.8934603c0.8932724-1.0521345,2.1593018-1.785687,3.7116089-1.5061016
		c-2.2008972,1.5300407-2.4698792,2.3294382-1.9042664,4.9610043c0.3932037,1.8295164,1.1496964,3.4854546,2.1981354,5.0011978
		c4.4804993,6.4775391,9.0317078,12.9020252,14.7170868,18.4176025c3.2086792,3.1128311,6.1320648,6.5533409,9.9883118,8.9315453
		c2.3684692,1.4606743,4.8041458,2.8094711,7.5714264,3.3996239l-0.0155182-0.0165253
		c0.0005417,0.2532463,0.1840134,0.2090645,0.3402023,0.2092285c0.7069626,0.3137627,1.4139786,0.6272964,2.2214355,0.4819565
		c0.1432037-0.000679,0.285553-0.0013733,0.4278946-0.0020676c0.9465103,0.2661324,1.6950989-0.3410454,2.5286942-0.5730972
		c3.5899734-1.1798439,7.055397-2.6777725,9.9528503-5.1221199c5.2933121-4.4655762,10.1697311-9.3770981,14.5357895-14.7566338
		c2.312851-2.8497334,4.3860474-5.8940735,6.5653687-8.8520775c1.6647491-2.2595615,3.0646362-4.6444292,3.7664642-7.4051085
		c0.4756012-1.8707933,0.0718079-3.3725061-1.524292-4.5073223c1.6410065,0.1001673,2.7957306,1.0407495,3.7727356,2.2407551
		c0.3315582,0.4072104,0.6869507,0.7275991,1.1291656,1.0211039c8.8731384,5.8893929,18.7906342,9.6165962,28.5283508,13.6875648
		c5.0677338,2.1186352,10.0373383,4.4492893,15.0912781,6.5920124c0.2848358,0.1207619,0.5545197,0.2901917,0.8082581,0.4695015
		c12.3866272,8.7527809,19.4388123,20.8484116,21.5997467,35.6809959
		c1.3801422,9.4732819,3.7359619,18.7351227,5.3077698,28.1555099c0.6773376,4.0595322,1.2589722,8.135025,1.8840332,12.2032089
		c-0.3144073,0.1669693-0.6130524,0.379509-0.9454346,0.4943771c-7.6457062,2.6421967-15.4737549,4.6348114-23.5565796,4.9960785
		c-5.7097626,0.2552109-11.4874573,0.4986954-17.1700134-0.685112c-0.441864-0.092041-0.6445465,0.0222473-0.7293549,0.4956894
		c-0.3925476,2.1919022-1.0461426,4.3512497-0.7629089,6.6206818c-0.576004,2.0075912-0.5193176,4.0965042-0.7762756,6.144783
		c-0.8967896,7.1488953-1.2922821,14.3323212-1.3660889,21.5348511c-0.0229797,2.2415161,0.0538788,4.4678345,0.5196838,6.6791534
		c0.4022522,1.9098206-0.0415802,3.8268585-0.2045441,5.732132c-0.1810608,2.1171875-0.2475739,4.2311707-0.14888,6.350708
		c0.1007233,2.1633911-0.1486511,4.3136597-0.2010803,6.4691315c-0.0689697,2.835022-0.1222534,5.676178,0.1277161,8.5127258
		c0.147522,1.6738586,0.0896759,3.352478-0.0990601,5.0296326c-0.3492279,3.1034393,0.1965027,6.1215668,0.8816376,9.1379089
		c1.645462,7.2442474,1.3769531,14.5310211,0.3393097,21.8220825c-0.3051605,2.1443787-0.3706207,4.2115479,0.3300323,6.3591309
		c1.7713318,5.4294739,1.8126526,11.0121002,0.9382629,16.6133118c-0.2313538,1.4821472-0.2454681,2.9263763,0.0932312,4.3943939
		c0.8730927,3.7845001,0.4477844,7.6447449,0.6414337,11.4699249c0.3010254,5.9458618,0.6882019,11.8882141,1.4374237,17.8032227
		c0.2545319,2.009491,0.219223,4.0592346,0.2559814,6.0916443c0.0330658,1.8279114-0.3303223,2.3298645-2.0780792,2.8551636
		c-3.0056458,0.9034119-6.1239014,1.1581726-9.2250671,1.4784546c-7.687027,0.7939453-15.4046021,0.8662415-23.1227875,1.0108643
		c-11.2349701,0.2105103-22.4660492,0.6524963-33.7014008,0.8138733
		c-12.4782715,0.1792297-24.9354324-0.8465881-37.415329-0.8483276c-8.3974609-0.0011597-16.7972946-0.099884-25.1777344-0.7358704
		c-4.1889534-0.3178711-8.3641396-0.7600403-12.4701881-1.6979065c-0.1559067-0.035614-0.3131027-0.0661316-0.4678688-0.1061401
		c-3.2493629-0.8399048-3.6074333-1.1913757-3.4103165-4.5153503c0.460907-7.7724609,1.0086174-15.5399475,1.5535736-23.3071594
		c0.1456757-2.0762939,0.2778282-4.1502228,0.2280006-6.2310944c-0.0422707-1.7650146,0.042881-3.5201569,0.3605576-5.2571259
		c0.4134331-2.2605438,0.4554749-4.5117798,0.124012-6.795517c-0.365612-2.5189972-0.0975494-5.0328064,0.4442635-7.5074768
		c0.2181778-0.996521,0.1949005-1.9704437,0.1205864-2.9739532c-0.3364258-4.5428772-1.0249634-9.0656433-0.8369026-13.6397247
		c0.1790504-4.3548889,1.2046204-8.5375671,2.6859703-12.6118927c0.3782005-1.0401917,0.6002884-2.0374146,0.4369202-3.146759
		c-0.1810913-1.2296448-0.1527023-2.4737091,0.079113-3.703598c0.3065872-1.6266022,0.1933861-3.2497253,0.1121597-4.8944397
		c-0.1633339-3.3072205-0.1824417-6.6232605-0.1962395-9.9359283c-0.0539207-12.9464722-0.0431595-25.8933411-0.1401062-38.8394623
		c-0.0383949-5.1265564-0.9984093-10.1811676-1.5110817-15.271286
		C43.659832,123.3368759,43.4832153,121.9893875,43.3251877,120.6400299z"></path>
	<path d="M118.6139908,37.221283c-3.3244858-0.0004387-6.6489716-0.0008812-9.9741135-0.0012779
		c-1.7259674-1.8192406-3.4684143-3.6226349-5.1729202-5.461195c-3.3088074-3.5690079-6.8811264-6.8971043-9.98069-10.6536903
		c-2.949295-3.5744762-5.5266266-7.4079666-7.2650375-11.7455769c1.3525162,0.1145182,2.7055359,0.2262487,4.0580215,0.3440599
		c9.5864487,0.8350477,19.161438,1.8715324,28.8136063,1.3705292c7.2594299-0.3768044,14.5097275-0.8775806,21.7548294-1.4615164
		c-0.1677856,0.9606867-0.655899,1.790309-1.1125031,2.6246986c-2.4091492,4.4024353-5.286499,8.4551849-8.8000488,12.064743
		C126.7845459,28.5660725,122.7173386,32.911274,118.6139908,37.221283z"></path>
</g>
<image overflow="visible" width="461" height="78" xlink:href="BA34FD1E.jpg" transform="matrix(1 0 0 1 -7894 -7770.1103516)">
</image>
<g onclick="select(this)" class="" id="estampa-secundaria" fill="#801815">
	<path d="M174.3967743,284.8035889c-2.2888794,0.3658142-4.6030426,0.4369812-6.9106445,0.5372314
		c-7.9725189,0.3463135-15.9520721,0.3966064-23.9300842,0.5079651c-3.189209,0.0445251-6.3735046,0.3215637-9.5663452,0.2087708
		c-0.0103455-3.4763184-0.0186768-6.9526978-0.0322571-10.4290161c-0.0042877-1.0965271-0.0107422-1.105957-1.1199646-1.1061707
		c-12.6282501-0.0022278-25.2564926-0.0021362-37.8847351-0.0002441c-1.1310577,0.0001831-1.1337891,0.0081177-1.1372757,1.2060852
		c-0.0097809,3.3566589-0.0170898,6.7132874-0.0253677,10.0699158c-4.2320404,0.0722656-8.4625473-0.0267334-12.6933746-0.1066284
		c-5.9881973-0.1130066-11.9797058-0.0915527-17.9637604-0.3673706c-3.265976-0.1506042-6.5410118-0.2246704-9.7799492-0.7469788
		c-0.0114555-2.9985046-0.020237-5.9970093-0.03582-8.9955139c-0.0054398-1.0455933-0.013092-1.0570679-1.0478897-1.0586548
		c-3.5587997-0.0054321-7.1176186,0.0004578-10.6764221-0.0036621c-1.0022507-0.0011597-1.002243-0.0101318-1.0699997-1.0344849
		c0.5970192-5.726532,0.7297363-11.4873657,1.2662277-17.2178345c0.276268-2.950882,0.3171196-5.9043579,0.3011894-8.8639069
		c-0.0081825-1.5211792,0.229435-3.0294647,0.4875832-4.5244598c0.2883415-1.6698151,0.3317337-3.3236084,0.0520859-4.9978943
		c-0.1976509-1.1833191-0.2488937-2.3825073-0.1245499-3.5823669c3.2323647-0.019455,6.4647331-0.0380859,9.6970901-0.0588226
		c1.103981-0.0070953,1.1141472-0.0095215,1.1143646-1.1003418c0.0025063-12.6552734,0.002739-25.3105164-0.000164-37.9657898
		c-0.0002365-1.0375671-0.0129166-1.042984-1.0525017-1.0514069c-2.2746735-0.0184479-4.5493965-0.030838-6.8240967-0.0456696
		c0.3623199-2.3826599-0.034687-4.7770844,0.0616302-7.1439667c0.1512833-3.7178345-0.1630669-7.4077911-0.1953621-11.1105042
		c-0.010498-1.2036133,0.1872673-2.3835907,0.23983-3.5783997c0.1406631-3.1971436-0.3143158-6.3751526-0.2820587-9.5677338
		c0.0302124-2.9907074,0.0692863-5.9813385,0.1044617-8.9719849c2.3184814-0.0187531,4.6370125-0.0336914,6.9554367-0.058075
		c0.9747658-0.0102539,0.9917641-0.0193024,0.9920578-0.9961548c0.0038795-12.6396942,0.0037918-25.2793884,0.0001144-37.9190903
		c-0.0002975-1.0189056-0.0159531-1.0294266-1.0807228-1.0316849c-2.8399239-0.0060349-5.6801147-0.0228577-8.5196228,0.0119858
		c-0.7348518,0.0090179-1.0250359-0.1625671-1.1043015-0.9677658c-0.210762-2.1410217-0.5495338-4.2696075-0.8447762-6.4021072
		c-0.5134621-3.7086487-0.9708443-7.4230499-1.9090614-11.0632019c-1.327137-5.1490784-3.1815605-10.1060791-5.3208427-14.9597473
		c-0.8771057-1.9900284-1.5740967-4.0011978-1.6882362-6.1920395c-0.0340958-0.6544495,0.1352882-0.9414215,0.850174-0.912941
		c1.2380028,0.0493469,2.4793968,0.0134048,3.719368,0.0133896c4.9598808-0.0000381,9.9197693,0.0027313,14.8796425-0.0023193
		c0.9988098-0.0010147,0.9998817-0.0146408,1.0199738-0.9636917c0.0050774-0.2398911,0.0008049-0.4799805,0.0008049-0.7199707
		c0.0000038-11.8797188-0.0000229-23.7594337,0.0000763-35.6391525c0.0000038-0.3199883,0.0058975-0.6400528,0.0006104-0.9599419
		c-0.0051231-0.3096809,0.0827484-0.5332489,0.4201736-0.6266861c2.0638618-0.5715141,4.0310364-1.3907547,6.2706299-1.3756027
		c10.7992516,0.073082,21.5992622,0.0336227,32.3990059,0.0319214c1.2383118-0.0001907,1.243515-0.0064545,1.2448578-1.241724
		C93.6571884,28.7692223,91.9904938,28.9598999,92,26c0.0012207-0.3806629-6.2395859-5.5727196-6-6
		c1.2840195-2.4786339-6.8163452-10.062315-5-12c6.3794785-6.8056531,25.2641373-4.7114487,34-3
		c13.1985931,2.5857472,31.565033,1.9518814,32,3c0,2.5642834-12.8730469,18.1902256-12.8728638,20.5410919
		c0.0001068,1.2399673,0.012558,2.4800987-0.0045166,3.7198257c-0.006897,0.5013008,0.1738586,0.7461281,0.6960754,0.7131996
		c0.3187103-0.020092,0.6397552-0.0023308,0.9597626-0.0023308c9.6797485,0.0000801,19.3598175,0.039917,29.039093-0.0285149
		c2.3602448-0.0166893,4.60495,0.2758484,6.7789459,1.1704941c0.5528564,0.22752,1.115509,0.4318466,1.6770172,0.6376495
		c1.2834473,0.4703979,1.1552124,0.0977898,1.1558533,1.6490936c0.004776,11.5997238,0.0026093,23.1994438,0.002594,34.7991676
		c0,2.0266266-0.0000458,2.0266266,2.0031128,2.0266266c5.6398773,0.0000076,11.2797241-0.0006638,16.9195862,0.0005035
		c1.2887573,0.0002747,1.3222809,0.0060043,1.2124786,1.3217316c-0.0760498,0.9112167-0.2745056,1.8115463-0.3937531,2.7199478
		c-0.4141388,3.1545258-1.4619293,6.1500092-2.6981812,9.028717c-1.1062622,2.5760193-2.0683746,5.1772842-2.831192,7.8611984
		c-1.231842,4.3340988-2.0380402,8.7643738-2.816391,13.1939316c-0.3500824,1.9923248-0.8609314,3.9793167-0.782608,6.0333328
		c-0.0101166,0.080864-0.0202332,0.1617279-0.0303802,0.2425995c-3.1160583,0.1565628-6.2341766,0.0280685-9.3511047,0.0670624
		c-1.225235,0.0153275-1.2303162,0.0084457-1.2307129,1.2473755c-0.0019073,5.8378067-0.0008545,11.6756134-0.0008545,17.5134125
		c-0.0000153,6.6374969-0.0002136,13.2749786,0.0001068,19.9124908c0.000061,1.380127-0.0903625,1.2742157,1.3151398,1.2790985
		c2.3588104,0.0081787,4.7176208,0.0173798,7.0764313,0.0261536c0.5244598,1.4377899,0.3546906,2.9234924,0.2129211,4.3822632
		c-0.2238922,2.3034363-0.5295563,4.6063995-0.3956299,6.9191437c0.2082214,3.5960999-0.2483215,7.1716614-0.2142792,10.7599487
		c0.0177765,1.8739624,0.0053101,3.745163,0.1559753,5.6190643c0.1469116,1.8269806,0.0797424,3.6588745-0.0984039,5.4945374
		c-0.2356873,2.4285889-0.0996704,4.8540039,0.5592194,7.2259827c-2.5145874,0.0153656-5.0291748,0.0283661-7.5437317,0.0471649
		c-1.0522766,0.0078888-1.0655975,0.0134888-1.0658264,1.0406494c-0.0029602,12.6972809-0.0030212,25.3945465,0.0009918,38.0918274
		c0.0003052,0.9670868,0.0172119,0.9791718,0.9910736,0.9830017c2.0762329,0.008194,4.1525726-0.0046692,6.2288208,0.0052185
		c1.2763214,0.0060883,2.5525208,0.0383301,3.8287659,0.0588379c0.107132,2.0059357-0.163269,3.9911804-0.4744568,5.95578
		c-0.2935791,1.8535614-0.1373596,3.6356659,0.2118683,5.4548645c0.4677734,2.4366455,0.6035919,4.910965,0.4945374,7.3937073
		c-0.1846008,4.2033844,0.3283386,8.3720856,0.6300049,12.5507355c0.1694794,2.3479309,0.4046021,4.6911621,0.5708466,7.0392761
		c0.0423737,0.5984802,0.349411,1.1530457,0.2446594,1.7659912c-0.4367218,0.0197144-0.8734283,0.0556335-1.3101807,0.0564575
		c-2.668869,0.0053101-5.3381195-0.023468-8.006424,0.0152588c-1.0993347,0.0159302-2.2143555-0.2045593-3.3005829,0.1427612
		c-0.2394714,1.0588379-0.0872498,2.1321106-0.1041718,3.1978455
		C174.4029999,280.1836243,174.4085083,282.4937439,174.3967743,284.8035889z M93.6550217,93.5136108
		c0-1.479248-0.0000153-2.9584808,0-4.4377289c0.0000458-4.8774948,0.0027771-9.7549896-0.0020599-14.6324921
		c-0.0009918-1.0006104-0.0140076-1.0008774-0.962677-1.0218353c-0.1198807-0.002655-0.2398682-0.0003662-0.3598099-0.0003662
		c-12.5135727,0.0000076-25.027153-0.0000076-37.5407333,0.0001755c-0.2398682,0.0000076-0.4801102,0.011528-0.7195053,0.0014954
		c-0.396244-0.0166168-0.5965652,0.1474075-0.5814934,0.5606155c0.0116539,0.3193436-0.0014725,0.6395416-0.0014801,0.9593658
		c-0.0002098,12.353653-0.0001755,24.7073212-0.0001717,37.0609741c0,0.2398758,0.0228691,0.4823761-0.0042877,0.7191391
		c-0.0755081,0.6581955,0.2566185,0.849968,0.84589,0.7870255c0.1581039-0.0168915,0.319561-0.0022812,0.4794769-0.0022812
		c12.5135841,0.0000229,25.0271568,0.0000381,37.5407372-0.0001144c0.2398682,0,0.4800491-0.0103607,0.7195282-0.0012665
		c0.395546,0.0150223,0.595665-0.1558304,0.585022-0.5627747c-0.007309-0.2796249,0.0014572-0.5596313,0.0014648-0.8394775
		C93.655098,105.9072495,93.6550522,99.7104263,93.6550217,93.5136108z M154.1964111,73.4211655
		c-6.2752991,0-12.5505981-0.0007401-18.8258972,0.0006256c-1.2374268,0.000267-1.2425232,0.0040054-1.2426453,1.2189407
		c-0.0013123,12.5506058-0.0012665,25.1012115-0.0001221,37.6518173c0.0001068,1.2106323,0.0046997,1.2144852,1.2483368,1.2145767
		c12.5506134,0.0009766,25.1012115,0.0009918,37.651825-0.0000153c1.2372131-0.0000992,1.2416229-0.0040588,1.2417297-1.2203293
		c0.0010986-12.5506058,0.0011597-25.1012115-0.0001221-37.6518173c-0.0001068-1.2095108-0.0051575-1.2129745-1.2471924-1.2132187
		C166.7470245,73.4204788,160.4717255,73.4211578,154.1964111,73.4211655z M93.6551361,174.0064545
		c0-6.3174438,0.000885-12.6348877-0.0007858-18.9523315c-0.0003128-1.2107544-0.0049438-1.2150726-1.2514496-1.2151794
		c-12.5549164-0.0010986-25.1098328-0.0010681-37.6647568-0.000061c-1.2453613,0.0000763-1.2502594,0.0040436-1.2503738,1.2116699
		c-0.0012169,12.5549316-0.0012054,25.109848,0.0000191,37.6647644c0.0001221,1.2108612,0.0050125,1.21492,1.2464104,1.2150116
		c12.5549164,0.0010681,25.1098404,0.0010834,37.6647568,0.0000458c1.2536011-0.0000916,1.2556229-0.0041809,1.2557907-1.3314667
		C93.6555176,186.401413,93.6550827,180.203949,93.6551361,174.0064545z M154.1949158,153.8382721
		c-6.2759705,0-12.5519409-0.0007782-18.8279266,0.0006714c-1.2346649,0.0002899-1.2391815,0.0042419-1.2393036,1.2220764
		c-0.0011292,12.5519409-0.0011139,25.1038818,0.0001068,37.6558228c0.0001221,1.2097473,0.0049744,1.2134857,1.2466278,1.2135925
		c12.5519409,0.0009613,25.1038971,0.0009766,37.655838-0.0000458c1.2344208-0.0000916,1.239212-0.0041046,1.2393188-1.2215729
		c0.0012054-12.5519409,0.0012054-25.1038971,0.0000153-37.655838c-0.0001068-1.2101135-0.0048981-1.2138062-1.2467499-1.2140808
		C166.7468567,153.8375397,160.4709015,153.8382721,154.1949158,153.8382721z M114.0048218,194.1208801
		c-6.3180008,0-12.6360092-0.0008392-18.9540176,0.0007324c-1.2298737,0.0003052-1.2349396,0.0046387-1.2350693,1.2298584
		c-0.0012436,12.5560303-0.0012054,25.1120605,0.0000916,37.6681061c0.0001221,1.2159271,0.0051651,1.2197418,1.2352982,1.2198334
		c12.5560303,0.0009613,25.1120682,0.0009918,37.6680984-0.0000305c1.2328339-0.0001068,1.2382965-0.0041351,1.2384491-1.2201233
		c0.0014191-12.5560455,0.0014038-25.1120758,0.0001831-37.6681061c-0.0001221-1.2246094-0.005127-1.229187-1.2389526-1.2295074
		C126.4808807,194.1199799,120.2428513,194.1208801,114.0048218,194.1208801z M73.6844101,234.2438965
		c-6.3171463,0-12.634285-0.0007019-18.9514313,0.0006256c-1.2405396,0.0002594-1.2451324,0.0039063-1.2452469,1.2145081
		c-0.0011482,12.5543213-0.001194,25.1086578,0.0000877,37.6629791c0.0001259,1.2043457,0.0052414,1.208252,1.2529564,1.208374
		c12.5543213,0.0010376,25.1086426,0.0010681,37.6629715,0c1.2454529-0.0001221,1.2504883-0.0043335,1.250618-1.216156
		c0.0012589-12.5543213,0.0012436-25.1086426-0.0000153-37.6629639c-0.0001144-1.2026672-0.0051727-1.2064514-1.2584152-1.2067261
		C86.1587677,234.2431335,79.9215851,234.2438965,73.6844101,234.2438965z M154.3300781,234.2438965
		c-6.3156586,0-12.6313171-0.0006714-18.9469757,0.0005646c-1.2502441,0.0002441-1.2552185,0.0036316-1.2553406,1.203949
		c-0.0012207,12.5513763-0.0011749,25.1027374-0.000061,37.6540985c0.0001068,1.2235718,0.0044861,1.2277527,1.2322998,1.2278748
		c12.5513916,0.0010681,25.1027527,0.0010376,37.6541443,0.0001221c1.2498932-0.0000916,1.2552185-0.0036621,1.2553558-1.2054443
		c0.0013275-12.5513916,0.0012207-25.1027832,0.0001831-37.6541443c-0.0000916-1.2221527-0.0042572-1.2260895-1.2324524-1.2263641
		C166.8015137,234.243103,160.5658112,234.2438965,154.3300781,234.2438965z M113.8333969,73.2263184
		c6.3179169,0,12.6358414,0.0011139,18.9537735-0.0009918c1.1637573-0.0003967,1.1703186-0.006424,1.1704712-1.1736679
		c0.0016174-12.5158882,0.0016022-25.0317726,0.0000458-37.5476608c-0.0000763-0.6127319-0.0016632-0.9214249-0.1569366-1.0769577
		c-0.3407135-0.3412781-1.0101471-0.1730728-1.0899353-0.1579971c-0.2846527,0.0537872-0.7522888-0.3918839-1.3627167-1.1997108
		C130.7101746,31.2251282,146.9039459,11.4785376,146,10c-4.4954681-7.3530245-28.7010803-2.105865-33-2
		c-2.581604,0.0635748-26.8498993-5.4880266-30,0c-3.0986481,5.3983831,14.913559,21.8182831,13.2253723,24.1992912
		c-0.5132904,0.7239418-0.9164505,1.1189461-1.1821518,1.0697975c-0.0803146-0.0148544-0.7331619-0.1789703-1.069313,0.1560364
		c-0.1567078,0.1561737-0.1580963,0.4687119-0.158165,1.0942421c-0.0013504,12.5158844-0.0014572,25.0317726,0.0002213,37.547657
		c0.0001526,1.1523819,0.0069885,1.1579819,1.1836166,1.1583557
		C101.2775192,73.2273636,107.5554504,73.2263107,113.8333969,73.2263184z M113.7972412,153.6475677
		c6.2375793,0,12.4751511,0.0025482,18.7127228-0.001709c1.6404877-0.0011139,1.4453278,0.1440277,1.4463348-1.5011749
		c0.0050812-8.3567505,0.0023193-16.7134857,0.0023193-25.0702286c0-4.1183929,0.0036469-8.2368011-0.002655-12.3551941
		c-0.0015259-0.9987793-0.0165558-0.9995804-0.9709778-1.021843c-0.1998291-0.0046539-0.399826-0.0007553-0.599762-0.0007553
		c-12.3551788-0.0000076-24.7103806,0-37.065567,0.0000381c-0.2399063,0-0.4810944,0.0165176-0.7194519-0.0025864
		c-0.5364761-0.0429764-0.8546524,0.1232834-0.7879639,0.7307816c0.0216751,0.1975098,0.0027161,0.3994675,0.0027161,0.5993881
		c-0.0000381,12.4351578-0.0000305,24.8703079,0.0000153,37.3054733c0,0.1999207,0.0133972,0.4008179-0.0016937,0.5995636
		c-0.0371628,0.4895477,0.1300507,0.7670746,0.6717834,0.7205963c0.238121-0.0204315,0.4795151-0.0023956,0.7194214-0.0023956
		C101.4020691,153.647583,107.5996552,153.6475677,113.7972412,153.6475677z"></path>
</g>
<path d="M189.1250305,91.9240036c0-0.1908646,0-0.3817291,0-0.6205673
	c0.3363953,0.268158,0.2732086,0.4528351-0.0062866,0.6156769
	C189.1187286,91.9191055,189.1250305,91.9240036,189.1250305,91.9240036z"></path>
<g onclick="select(this)" class="" id="gola-secundaria" fill="#801815">
	<path d="M116.3818893,49.0752602c-0.8335953,0.2320518-1.5821838,0.8392296-2.5295258,0.5731316
		c-0.2213287-0.8126259,0.0423508-1.5788918,0.2377701-2.3470345c0.9215317-3.6224289,2.5606842-6.9243164,4.5238571-10.0800743
		c4.1033478-4.310009,8.1705551-8.6552105,12.3211441-12.9192257c3.5135498-3.6095581,6.3908997-7.6623077,8.8000488-12.064743
		c0.456604-0.8343897,0.9447174-1.664012,1.1125031-2.6246986c0.7254181-1.2808037,1.0168915-2.6659756,1.0240326-4.1280823
		c0.0049438-1.0119839-0.4709015-1.6642687-1.4065399-1.9949088c-1.1381073-0.4021833-2.3115997-0.6052649-3.5208588-0.6051569
		c-15.5550461,0.0013869-31.1100845,0.002557-46.6651306-0.0020161c-0.9676132-0.0002847-1.90905,0.1548507-2.8336868,0.4091465
		C85.7430725,3.75981,85.3303909,4.2938833,85.4249954,6.015285c0.0634537,1.1545529,0.1917267,2.3107181,0.7964783,3.3442836
		c1.7381668,4.3375845,4.3154984,8.1710749,7.2647934,11.7455511c3.0995636,3.7565861,6.6718826,7.0846825,9.98069,10.6536903
		c1.7045059,1.8385601,3.4469528,3.6419544,5.1722641,5.461237c0.141243,0.2821579,0.2534637,0.5838699,0.4282455,0.8434486
		c1.7294617,2.5685844,2.9942932,5.3555374,3.8564758,8.3204155c0.3075104,1.0574837,0.7699585,2.1119576,0.5005112,3.2664986
		c-0.8066101,0.1453552-1.5136261-0.1681786-2.2209854-0.4818573c-0.0745163-0.1329575-0.1629486-0.242794-0.3398056-0.2093124
		c0,0,0.0155182,0.0165253,0.0155258,0.0165253c-0.8287582-4.0532646-2.4461288-7.7656937-5.0678101-10.966198
		c-2.5820465-3.1521263-5.5237579-5.9836426-8.3579559-8.9074631c-4.0904999-4.2198277-8.1277618-8.475069-11.0506516-13.641326
		c-2.0527725-3.6283035-4.0921097-7.2516174-3.3573074-11.6774063c0.9002151-1.9448513,2.5582504-2.7752316,4.5620422-3.0655019
		c1.2658463-0.1833732,2.5391769-0.2692522,3.822998-0.268326c14.798584,0.0106764,29.597168,0.0106514,44.3957596,0.0006143
		c1.2835693-0.0008706,2.554718,0.0972143,3.823761,0.2612555c1.9269104,0.2490786,3.4730835,1.1290891,4.5558167,2.769526
		c0.6426849,3.2732768-0.3043823,6.2706151-1.761322,9.1084595c-1.9555206,3.8089981-4.2129364,7.4522362-7.1285858,10.6123257
		c-4.116394,4.4614773-8.3396683,8.8241348-12.4848862,13.2592812
		C119.482933,40.043293,117.3312607,44.2568169,116.3818893,49.0752602z"></path>
</g>
<g onclick="select(this)" class="" id="detalhe-punho" fill="#801815">
	<path d="M43.3251877,120.6400299c-2.5715904,1.5164185-5.4873352,1.7669296-8.3249054,1.8909454
		c-9.7588749,0.4264908-19.4859047,0.1642303-29.0314045-2.2807388c-1.9600086-0.502037-3.9060934-1.0287094-5.728878-1.9302292
		c0-1.1200027,0-2.2400055,0-3.3600006c0.5341446-1.0446014,0.4600504-2.2130508,0.6742938-3.3226929
		c0.1042186-0.5397873,0.0607879-1.1212234,0.4675303-1.5698166c0.626965,0.4458313,1.324239,0.7532959,2.0628524,0.9366074
		c1.8188467,0.4514236,3.6287441,0.9745026,5.4736233,1.2780151c3.8076487,0.6264038,7.5144987,1.8535843,11.4230356,1.8909149
		c1.5943184,0.0152206,3.189024,0.1251373,4.78092,0.2314072c3.6960335,0.246727,7.394331,0.1335449,11.0928478,0.1318054
		c1.877037-0.000885,3.624794-0.4812164,5.342453-1.1464615c0.3858757-0.1494522,0.6799927-0.2490768,0.8002129,0.2821274
		C42.8772583,115.9674225,43.3580132,118.2679749,43.3251877,120.6400299z"></path>
	<path d="M184.6351166,120.4043655c-0.2832336-2.2694321,0.3703613-4.4287796,0.7629089-6.6206818
		c0.0848083-0.4734421,0.2874908-0.5877304,0.7293549-0.4956894c5.6825562,1.1838074,11.4602509,0.9403229,17.1700134,0.685112
		c8.0828247-0.3612671,15.9108734-2.3538818,23.5565796-4.9960785c0.3323822-0.1148682,0.6310272-0.3274078,0.9454193-0.4943771
		c0.850708,1.1977844,0.5585632,2.6719513,0.9456329,3.988945c0.2308655,0.7854462,0.0882721,1.6727142,0.2303925,2.4939957
		c0.2254181,1.3027115-0.4415131,1.8716736-1.55336,2.240303c-5.2239838,1.7320251-10.5293732,3.0898514-15.9651642,4.0210037
		c-5.9925232,1.0265274-12.0113983,0.9966125-18.0421143,0.9053192c-2.4743195-0.0374527-4.9359589-0.3193283-7.3450165-0.9380722
		C185.5249023,121.0541992,185.0001068,120.8732147,184.6351166,120.4043655z"></path>
</g>
<g onclick="select(this)" class="" id="gola-terciaria" fill="#ededed">
	<path d="M118.6139908,37.221283c-1.9631729,3.1557579-3.6023254,6.4576454-4.5238571,10.0800743
		c-0.1954193,0.7681427-0.4590988,1.5344086-0.2377701,2.3470345c-0.14151,0.0006599-0.2838593,0.0013542-0.427063,0.0020332
		c0.2686005-1.1545563-0.1938477-2.2090302-0.501358-3.2665138c-0.8621826-2.9648781-2.1270142-5.7518311-3.8564758-8.3204155
		c-0.1747818-0.2595787-0.2870026-0.5612907-0.4275894-0.8434868
		C111.9650192,37.2204018,115.289505,37.2208443,118.6139908,37.221283z"></path>
</g>
<g onclick="select(this)" class="" id="gola-primaria" fill="#082890">
	<path d="M110.8636627,48.95924c0.176857-0.0334816,0.2652893,0.076355,0.3398056,0.2093124
		C111.0476761,49.1683044,110.8642044,49.2124863,110.8636627,48.95924z"></path>
	<path d="M116.3818893,49.0752602c0.9493713-4.8184433,3.1010437-9.0319672,6.4491577-12.614254
		c4.1452179-4.4351463,8.3684921-8.7978039,12.4848862-13.2592812c2.9156494-3.1600895,5.1730652-6.8033276,7.1285858-10.6123257
		c1.4569397-2.8378448,2.404007-5.8351831,1.761322-9.1084595c1.3447876,1.4383683,2.6348267,2.9316673,4.1723633,4.1779375
		c0.3962708,0.3212066,0.7694702,0.6803355,1.3005981,0.7730041c1.5953674,1.1349335,1.9991608,2.6366463,1.5235596,4.5074396
		c-0.701828,2.7606792-2.1017151,5.1455469-3.7664642,7.4051085c-2.1793213,2.958004-4.2525177,6.0023441-6.5653687,8.8520775
		c-4.3660583,5.3795357-9.2424774,10.2910576-14.5357895,14.7566338
		C123.4372864,46.3974876,119.9718628,47.8954163,116.3818893,49.0752602z"></path>
	<path d="M83.0454636,3.7833724c-0.7348022,4.4257884,1.3045349,8.0491028,3.3573074,11.6774063
		c2.9228897,5.1662569,6.9601517,9.4214983,11.0506516,13.641326c2.834198,2.9238205,5.7759094,5.7553368,8.3579559,8.9074631
		c2.6216812,3.2005043,4.2390518,6.9129333,5.0678101,10.966198c-2.7672882-0.5901527-5.2029648-1.9389496-7.571434-3.3996239
		c-3.8562469-2.3782043-6.7796326-5.8187141-9.9883118-8.9315453c-5.685379-5.5155773-10.2365875-11.9400635-14.7170868-18.4176025
		c-1.048439-1.5157433-1.8049316-3.1716814-2.1981354-5.0011978c-0.5656128-2.631566-0.2966309-3.4309635,1.9042664-4.9610043
		c1.849472-0.9154258,3.0914688-2.4924598,4.3786545-4.0197792C82.8125763,4.09618,82.9263077,3.9374893,83.0454636,3.7833724z"></path>
	<path d="M140.8476868,9.6126156c-7.2451019,0.5839357-14.4953995,1.084712-21.7548294,1.4615164
		c-9.6521683,0.5010033-19.2271576-0.5354815-28.8136063-1.3705292c-1.3524857-0.1178112-2.7055054-0.2295418-4.0580215-0.3440599
		c-0.6045074-1.0335398-0.7327805-2.1897049-0.7962341-3.3442578c-0.0946045-1.7214017,0.3180771-2.255475,2.0205078-2.7236869
		c0.9246368-0.2542958,1.8660736-0.4094312,2.8336868-0.4091465c15.5550461,0.0045731,31.1100845,0.0034029,46.6651306,0.0020161
		c1.209259-0.000108,2.3827515,0.2029736,3.5208588,0.6051569c0.9356384,0.3306401,1.4114838,0.9829249,1.4065399,1.9949088
		C141.8645782,6.94664,141.5731049,8.3318119,140.8476868,9.6126156z"></path>
</g>
</svg>
