<!--?xml version="1.0" encoding="utf-8"?-->
<!-- Generator: Adobe Illustrator 24.2.3, SVG Export Plug-In . SVG Version: 6.00 Build 0)  -->
<svg version="1.1" id="Camada_1" xmlns="http://www.w3.org/2000/svg" xmlns:xlink="http://www.w3.org/1999/xlink" x="0px" y="0px" viewBox="0 0 229 418" style="enable-background:new 0 0 229 418;" xml:space="preserve">
<style type="text/css">
	.st0{fill:#334BBD;}
	.st1{fill:#D80101;}
	.st2{fill:#D602DD;}
	.st3{fill:#8EFC3D;}
	.st4{fill:#79D5FA;}
	.st5{fill:#9B1118;}
	.st6{fill:#0906FE;}
</style>
<g onclick="select(this)" class="" id="gola-secundaria" fill="#bf0811">
	<path d="M116.4,49.1c-0.8,0.2-1.6,0.8-2.5,0.6c-0.2-0.8,0-1.6,0.2-2.3c0.9-3.6,2.6-6.9,4.5-10.1
		c4.1-4.3,8.2-8.7,12.3-12.9c3.5-3.6,6.4-7.7,8.8-12.1c0.5-0.8,0.9-1.7,1.1-2.6c0.7-1.3,1-2.7,1-4.1c0-1-0.5-1.7-1.4-2
		c-1.1-0.4-2.3-0.6-3.5-0.6c-15.6,0-31.1,0-46.7,0c-1,0-1.9,0.2-2.8,0.4c-1.7,0.5-2.1,1-2,2.7c0.1,1.2,0.2,2.3,0.8,3.3
		c1.7,4.3,4.3,8.2,7.3,11.7c3.1,3.8,6.7,7.1,10,10.7c1.7,1.8,3.4,3.6,5.2,5.5c0.1,0.3,0.3,0.6,0.4,0.8c1.7,2.6,3,5.4,3.9,8.3
		c0.3,1.1,0.8,2.1,0.5,3.3c-0.8,0.1-1.5-0.2-2.2-0.5c-0.1-0.1-0.2-0.2-0.3-0.2c0,0,0,0,0,0c-0.8-4.1-2.4-7.8-5.1-11
		c-2.6-3.2-5.5-6-8.4-8.9c-4.1-4.2-8.1-8.5-11.1-13.6c-2.1-3.6-4.1-7.3-3.4-11.7c0.9-1.9,2.6-2.8,4.6-3.1c1.3-0.2,2.5-0.3,3.8-0.3
		c14.8,0,29.6,0,44.4,0c1.3,0,2.6,0.1,3.8,0.3c1.9,0.2,3.5,1.1,4.6,2.8c0.6,3.3-0.3,6.3-1.8,9.1c-2,3.8-4.2,7.5-7.1,10.6
		c-4.1,4.5-8.3,8.8-12.5,13.3C119.5,40,117.3,44.3,116.4,49.1z"></path>
</g>
<g onclick="select(this)" class="" id="detalhe-punho" fill="#bf0811">
	<path d="M43.3,120.6c-2.6,1.5-5.5,1.8-8.3,1.9c-9.8,0.4-19.5,0.2-29-2.3c-2-0.5-3.9-1-5.7-1.9c0-1.1,0-2.2,0-3.4
		c0.5-1,0.5-2.2,0.7-3.3c0.1-0.5,0.1-1.1,0.5-1.6c0.6,0.4,1.3,0.8,2.1,0.9c1.8,0.5,3.6,1,5.5,1.3c3.8,0.6,7.5,1.9,11.4,1.9
		c1.6,0,3.2,0.1,4.8,0.2c3.7,0.2,7.4,0.1,11.1,0.1c1.9,0,3.6-0.5,5.3-1.1c0.4-0.1,0.7-0.2,0.8,0.3C42.9,116,43.4,118.3,43.3,120.6z"></path>
	<path d="M184.6,120.4c-0.3-2.3,0.4-4.4,0.8-6.6c0.1-0.5,0.3-0.6,0.7-0.5c5.7,1.2,11.5,0.9,17.2,0.7
		c8.1-0.4,15.9-2.4,23.6-5c0.3-0.1,0.6-0.3,0.9-0.5c0.9,1.2,0.6,2.7,0.9,4c0.2,0.8,0.1,1.7,0.2,2.5c0.2,1.3-0.4,1.9-1.6,2.2
		c-5.2,1.7-10.5,3.1-16,4c-6,1-12,1-18,0.9c-2.5,0-4.9-0.3-7.3-0.9C185.5,121.1,185,120.9,184.6,120.4z"></path>
</g>
<g onclick="select(this)" class="" id="gola-terciaria" fill="#ffffff">
	<path d="M118.6,37.2c-2,3.2-3.6,6.5-4.5,10.1c-0.2,0.8-0.5,1.5-0.2,2.3c-0.1,0-0.3,0-0.4,0c0.3-1.2-0.2-2.2-0.5-3.3
		c-0.9-3-2.1-5.8-3.9-8.3c-0.2-0.3-0.3-0.6-0.4-0.8C112,37.2,115.3,37.2,118.6,37.2z"></path>
</g>
<path d="M110.9,49c0.2,0,0.3,0.1,0.3,0.2C111,49.2,110.9,49.2,110.9,49z"></path>
<g onclick="select(this)" class="" id="estampa-primaria" fill="#000000">
	<path d="M43.3,120.6c0-2.4-0.4-4.7-1-7c-0.1-0.5-0.4-0.4-0.8-0.3c-1.7,0.7-3.5,1.1-5.3,1.1c-3.7,0-7.4,0.1-11.1-0.1
		c-1.6-0.1-3.2-0.2-4.8-0.2c-3.9,0-7.6-1.3-11.4-1.9c-1.8-0.3-3.7-0.8-5.5-1.3c-0.7-0.2-1.4-0.5-2.1-0.9c1.8-9.5,2.7-19.1,4.2-28.6
		C6.5,76.3,6.8,71.1,7.9,66c1.7-8,4.4-15.7,9.4-22.4c2.1-2.9,4.6-5.6,7.4-7.8c1.4-1.1,2.4-2.6,3.9-3.4c3.6-1.9,7.3-3.7,11-5.3
		c10-4.1,20-8.2,29.4-13.4c2-1.1,4-2.1,5.5-3.9c0.9-1.1,2.2-1.8,3.7-1.5c-2.2,1.5-2.5,2.3-1.9,5c0.4,1.8,1.1,3.5,2.2,5
		c4.5,6.5,9,12.9,14.7,18.4c3.2,3.1,6.1,6.6,10,8.9c2.4,1.5,4.8,2.8,7.6,3.4l0,0c0,0.3,0.2,0.2,0.3,0.2c0.7,0.3,1.4,0.6,2.2,0.5
		c0.1,0,0.3,0,0.4,0c0.9,0.3,1.7-0.3,2.5-0.6c3.6-1.2,7.1-2.7,10-5.1c5.3-4.5,10.2-9.4,14.5-14.8c2.3-2.8,4.4-5.9,6.6-8.9
		c1.7-2.3,3.1-4.6,3.8-7.4c0.5-1.9,0.1-3.4-1.5-4.5c1.6,0.1,2.8,1,3.8,2.2c0.3,0.4,0.7,0.7,1.1,1c8.9,5.9,18.8,9.6,28.5,13.7
		c5.1,2.1,10,4.4,15.1,6.6c0.3,0.1,0.6,0.3,0.8,0.5c12.4,8.8,19.4,20.8,21.6,35.7c1.4,9.5,3.7,18.7,5.3,28.2
		c0.7,4.1,1.3,8.1,1.9,12.2c-0.3,0.2-0.6,0.4-0.9,0.5c-7.6,2.6-15.5,4.6-23.6,5c-5.7,0.3-11.5,0.5-17.2-0.7c-0.4-0.1-0.6,0-0.7,0.5
		c-0.4,2.2-1,4.4-0.8,6.6c-0.6,2-0.5,4.1-0.8,6.1c-0.9,7.1-1.3,14.3-1.4,21.5c0,2.2,0.1,4.5,0.5,6.7c0.4,1.9,0,3.8-0.2,5.7
		c-0.2,2.1-0.2,4.2-0.1,6.4c0.1,2.2-0.1,4.3-0.2,6.5c-0.1,2.8-0.1,5.7,0.1,8.5c0.1,1.7,0.1,3.4-0.1,5c-0.3,3.1,0.2,6.1,0.9,9.1
		c1.6,7.2,1.4,14.5,0.3,21.8c-0.3,2.1-0.4,4.2,0.3,6.4c1.8,5.4,1.8,11,0.9,16.6c-0.2,1.5-0.2,2.9,0.1,4.4c0.9,3.8,0.4,7.6,0.6,11.5
		c0.3,5.9,0.7,11.9,1.4,17.8c0.3,2,0.2,4.1,0.3,6.1c0,1.8-0.3,2.3-2.1,2.9c-3,0.9-6.1,1.2-9.2,1.5c-7.7,0.8-15.4,0.9-23.1,1
		c-11.2,0.2-22.5,0.7-33.7,0.8c-12.5,0.2-24.9-0.8-37.4-0.8c-8.4,0-16.8-0.1-25.2-0.7c-4.2-0.3-8.4-0.8-12.5-1.7
		c-0.2,0-0.3-0.1-0.5-0.1c-3.2-0.8-3.6-1.2-3.4-4.5c0.5-7.8,1-15.5,1.6-23.3c0.1-2.1,0.3-4.2,0.2-6.2c0-1.8,0-3.5,0.4-5.3
		c0.4-2.3,0.5-4.5,0.1-6.8c-0.4-2.5-0.1-5,0.4-7.5c0.2-1,0.2-2,0.1-3c-0.3-4.5-1-9.1-0.8-13.6c0.2-4.4,1.2-8.5,2.7-12.6
		c0.4-1,0.6-2,0.4-3.1c-0.2-1.2-0.2-2.5,0.1-3.7c0.3-1.6,0.2-3.2,0.1-4.9c-0.2-3.3-0.2-6.6-0.2-9.9c-0.1-12.9,0-25.9-0.1-38.8
		c0-5.1-1-10.2-1.5-15.3C43.7,123.3,43.5,122,43.3,120.6z"></path>
	<path d="M118.6,37.2c-3.3,0-6.6,0-10,0c-1.7-1.8-3.5-3.6-5.2-5.5c-3.3-3.6-6.9-6.9-10-10.7c-2.9-3.6-5.5-7.4-7.3-11.7
		c1.4,0.1,2.7,0.2,4.1,0.3c9.6,0.8,19.2,1.9,28.8,1.4c7.3-0.4,14.5-0.9,21.8-1.5c-0.2,1-0.7,1.8-1.1,2.6c-2.4,4.4-5.3,8.5-8.8,12.1
		C126.8,28.6,122.7,32.9,118.6,37.2z"></path>
</g>
<g onclick="select(this)" class="" id="gola-primaria" fill="#000000">
	<path d="M116.4,49.1c0.9-4.8,3.1-9,6.4-12.6c4.1-4.4,8.4-8.8,12.5-13.3c2.9-3.2,5.2-6.8,7.1-10.6
		c1.5-2.8,2.4-5.8,1.8-9.1c1.3,1.4,2.6,2.9,4.2,4.2c0.4,0.3,0.8,0.7,1.3,0.8c1.6,1.1,2,2.6,1.5,4.5c-0.7,2.8-2.1,5.1-3.8,7.4
		c-2.2,3-4.3,6-6.6,8.9c-4.4,5.4-9.2,10.3-14.5,14.8C123.4,46.4,120,47.9,116.4,49.1z"></path>
	<path d="M83,3.8c-0.7,4.4,1.3,8,3.4,11.7c2.9,5.2,7,9.4,11.1,13.6c2.8,2.9,5.8,5.8,8.4,8.9c2.6,3.2,4.2,6.9,5.1,11
		c-2.8-0.6-5.2-1.9-7.6-3.4c-3.9-2.4-6.8-5.8-10-8.9c-5.7-5.5-10.2-11.9-14.7-18.4c-1-1.5-1.8-3.2-2.2-5c-0.6-2.6-0.3-3.4,1.9-5
		c1.8-0.9,3.1-2.5,4.4-4C82.8,4.1,82.9,3.9,83,3.8z"></path>
	<path d="M140.8,9.6c-7.2,0.6-14.5,1.1-21.8,1.5c-9.7,0.5-19.2-0.5-28.8-1.4c-1.4-0.1-2.7-0.2-4.1-0.3
		c-0.6-1-0.7-2.2-0.8-3.3c-0.1-1.7,0.3-2.3,2-2.7c0.9-0.3,1.9-0.4,2.8-0.4c15.6,0,31.1,0,46.7,0c1.2,0,2.4,0.2,3.5,0.6
		c0.9,0.3,1.4,1,1.4,2C141.9,6.9,141.6,8.3,140.8,9.6z"></path>
</g>
<path d="M228.7,112.1c0.1,0,0.2,0,0.3-0.1c0,0.6,0,1.3,0,1.9C228.9,113.4,228.6,112.8,228.7,112.1z"></path>
<path d="M0.2,114.5c0.1,0,0.1,0.1,0.2,0.1c0,0.3,0.1,0.6-0.2,0.9C0.2,115.1,0.2,114.8,0.2,114.5z"></path>
<path d="M43.7,122.7c0.2,0.2,0.2,0.5,0.1,0.7C43.6,123.2,43.6,123,43.7,122.7z"></path>
<path d="M43.9,125.2c0.2,0.1,0.2,0.3,0,0.4C43.8,125.5,43.8,125.3,43.9,125.2z"></path>
<path d="M44.2,127.3c0.2,0.1,0.2,0.1,0,0.2C44.2,127.5,44.1,127.5,44.2,127.3C44.1,127.4,44.1,127.3,44.2,127.3z"></path>
<path d="M39.4,93.4c-0.1-0.1-0.1-0.3-0.2-0.4c0,0,0.1,0,0.1,0C39.3,93.1,39.3,93.2,39.4,93.4
	C39.4,93.4,39.4,93.4,39.4,93.4z"></path>
<path d="M38.4,90C38.4,90,38.4,90,38.4,90C38.3,90,38.4,90,38.4,90C38.4,90,38.4,90,38.4,90z"></path>
<g onclick="select(this)" class="" id="estampa-secundaria" fill="#bf0811">
	<path d="M43.1,231c6.5,0,12.9,0,19.4,0c3.4,0,6.8,0,10.2,0c37.2,0,74.3,0,111.5,0c0.4,0,0.7,0,1.1,0
		c0.2,1,0.3,1.9,0.2,2.9c-0.5,0-1,0-1.6,0c-46.6,0-93.2,0-139.7,0c-0.5,0-1,0-1.6,0C42.6,232.9,42.6,232,43.1,231z"></path>
	<path d="M43.6,205.8c2.8,0,5.7,0,8.5,0c43.6,0,87.1,0,130.7,0c0.6,0,1.2,0,1.8,0c0.2,1,0.2,2,0,2.9c-0.5,0-1,0-1.6,0
		c-46.2,0-92.4,0-138.5,0c-0.5,0-1,0-1.6-0.1c0-0.1,0-0.2,0-0.3c0-0.1,0-0.2,0.1-0.3C43.2,207.4,43.2,206.6,43.6,205.8z"></path>
	<path d="M41.9,256.4c0.6,0,1.1-0.1,1.7-0.1c46.8,0,93.5,0,140.3,0c1.2,0,1.9,0.2,1.9,1.5c0,0.4,0,0.9,0,1.3
		c-47.7,0-95.4,0-143.1,0c-0.3,0-0.6-0.1-1-0.1c0-0.1,0-0.2,0-0.3c0.2-0.3,0.2-0.7,0.1-1C41.8,257.3,41.9,256.9,41.9,256.4z"></path>
	<path d="M40.6,281.5c48.4,0,96.8,0,145.2,0c0.5,0,1.2-0.4,1.5,0.5c-0.4,0.9-1.3,1.1-2.1,1.4c-1.8,0.5-3.6,0.7-5.4,1
		c-1.1,0-2.2,0-3.4,0c-40.9,0-81.9,0-122.8,0c-1.2,0-2.3,0-3.5,0c-2.6-0.3-5.3-0.6-7.8-1.5C41.7,282.7,40.8,282.5,40.6,281.5z"></path>
	<path d="M183.2,133c-0.5,0-1,0-1.4,0c-45.1,0-90.3,0-135.4,0c-0.6,0-1.4,0.2-1.6-0.8c0-0.3,0-0.6-0.1-0.9
		c-0.1-1,0.3-1.2,1.2-1.2c43,0,86,0,129,0c2.5,0,5,0,7.4,0c0.4,0,0.9-0.2,1.1,0.4C183.4,131.5,183.3,132.3,183.2,133z"></path>
	<path d="M182.6,183.6c-21.9,0-43.8,0-65.7,0c-23.3,0-46.6-0.1-69.9-0.1c-0.4,0-0.9-0.1-1.3-0.1c0-0.5-0.1-0.9-0.1-1.4
		c-0.2-1.2,0.4-1.3,1.4-1.3c25.3,0,50.7,0.1,76,0c19.8-0.1,39.6,0,59.4-0.1C182.8,181.6,182.7,182.6,182.6,183.6z"></path>
	<path d="M45.5,155.4c0.5,0,1,0,1.6,0c44,0,88,0,132,0c1.4,0,2.7,0,4.1,0.1c0.2,0.8,0,1.5,0,2.3
		c-0.2,0.4-0.4,0.6-0.9,0.6c-0.8,0-1.7,0-2.5,0c-44.2,0-88.4,0-132.6,0c-0.6,0-1.1-0.1-1.7-0.1C45.5,157.3,45.5,156.4,45.5,155.4z"></path>
	<path d="M114,106.5c23.5,0,47,0,70.5,0c0.5,0,1.5-0.5,1.5,0.5c0,1.8-0.4,2.2-1.6,2.2c-38.7,0-77.3,0-116,0
		c-8.3,0-16.6,0-24.8,0c-0.4,0-1.1,0.3-1.3-0.3c-0.2-0.7-0.3-1.5-0.3-2.2c0-0.3,0.4-0.3,0.6-0.3c0.6,0,1.1,0,1.7,0
		C67.4,106.5,90.7,106.5,114,106.5C114,106.5,114,106.5,114,106.5z"></path>
	<path d="M113.9,109.8c23.4,0,46.8,0,70.2,0c0.4,0,1.3-0.6,1.3,0.5c0,2.1-0.2,2.4-1.4,2.4c-38,0-76.1,0-114.1,0
		c-8.6,0-17.3,0-25.9,0c-0.5,0-1.1,0.3-1.3-0.3c-0.3-0.7-0.4-1.6-0.3-2.3c0-0.5,0.7-0.3,1-0.3c4.3,0,8.6,0,12.8,0
		C75.5,109.8,94.7,109.8,113.9,109.8z"></path>
	<path d="M114.2,96.7c13.1,0,26.2,0,39.4,0c11.1,0,22.2,0,33.2,0.1c0.4,0,1.2-0.4,1.1,0.5c-0.1,0.7,0.1,1.8-1.2,1.6
		c-0.2,0-0.4,0-0.6,0c-33,0-65.9,0-98.9,0c-15.1,0-30.2,0-45.4,0c-0.6,0-1.3,0.2-1.5-0.8c-0.3-1.5-0.3-1.5,1.2-1.5
		C65.8,96.7,90,96.7,114.2,96.7z"></path>
	<path d="M114.1,100c23.9,0,47.8,0,71.8,0c0.5,0,1.3-0.5,1.4,0.5c0.1,1.3-0.4,1.8-1.5,1.8c-15.3,0-30.6,0-46,0
		c-32.4,0-64.7,0-97.1,0c-1.5,0-1.8-0.4-1.8-1.9c0-0.4,0.1-0.5,0.5-0.5c0.4,0,0.7,0,1.1,0C66.3,100,90.2,100,114.1,100
		C114.1,100,114.1,100,114.1,100z"></path>
	<path d="M114.1,103.3c23.7,0,47.3,0,71,0c0.5,0,1.4-0.6,1.4,0.6c0.1,1.5-0.3,1.9-1.5,1.9c-28.1,0-56.1,0-84.2,0
		c-19.2,0-38.4,0-57.6,0c-1.4,0-2-0.7-1.8-2.1c0-0.3,0.2-0.4,0.5-0.4c0.4,0,0.7,0,1.1,0C66.6,103.3,90.4,103.3,114.1,103.3
		C114.1,103.3,114.1,103.3,114.1,103.3z"></path>
	<path d="M114.2,90.3c24.8,0,49.5,0,74.3,0c0.5,0,1.3-0.4,1.3,0.4c0,0.8-0.5,1.3-1.5,1.3c-24.7,0-49.4,0-74.2,0
		c-24.5,0-49,0-73.6,0c-0.3,0-0.6,0-1,0c-1,0-1-0.8-1-1.3c-0.1-0.7,0.6-0.4,1-0.4c22.5,0,45,0,67.6,0
		C109.5,90.3,111.8,90.3,114.2,90.3C114.2,90.3,114.2,90.3,114.2,90.3z"></path>
	<path d="M188.8,93.5c-0.3,1.9-0.3,1.9-2,1.9c-32.8,0-65.6,0-98.4,0c-15.7,0-31.4,0-47.2,0c-0.5,0-1.2,0.3-1.5-0.6
		c-0.4-1.2-0.4-1.4,0.9-1.4c37.8,0,75.5,0,113.3,0c11.2,0,22.4,0,33.6,0C187.9,93.5,188.4,93.5,188.8,93.5z"></path>
	<path d="M191.2,87c-0.2,1.3-0.9,1.5-2,1.5c-33.5,0-66.9,0-100.4,0c-16.5,0-33,0-49.4,0c-0.3,0-0.6,0-0.8,0
		c-0.9,0.1-1.2-0.5-1.2-1.1c0-0.8,0.7-0.4,1.1-0.4c14,0,28.1,0,42.1,0c36.4,0,72.8,0,109.2,0C190.2,87,190.7,87,191.2,87z"></path>
	<path d="M114.3,83.9c25.4,0,50.9,0,76.3,0c0.4,0,0.7,0,1.1,0c0.3,0,0.7-0.1,0.6,0.4c0,0.3-0.1,0.8-0.6,0.8
		c-0.4,0-0.8,0-1.2,0c-50.9,0-101.8,0-152.6,0c-0.2,0-0.4,0-0.6,0c-0.7,0.1-1.3,0-1.2-0.9c0.1-0.8,0.8-0.4,1.1-0.4
		c12.9,0,25.8,0,38.8,0C88.8,83.9,101.5,83.9,114.3,83.9z"></path>
	<path d="M34.7,80.5c0.5,0,1,0,1.4,0c52,0,104,0,156,0c0.5,0,1.3-0.4,1.4,0.4c0.1,1-0.9,0.6-1.5,0.6
		c-51.9,0-103.7,0-155.6,0C35.7,81.5,34.9,81.8,34.7,80.5z"></path>
	<path d="M113.7,74.8c-26.4,0-52.9,0-79.3,0c-0.5,0-1.3,0.4-1.3-0.4c0-0.6,0.9-0.3,1.3-0.3c52.9,0,105.7,0,158.6,0
		c0.5,0,1.4-0.4,1.4,0.4c0,0.7-0.9,0.3-1.4,0.3C166.6,74.8,140.1,74.8,113.7,74.8z"></path>
	<path d="M113.9,78.2c-26.3,0-52.6,0-78.9,0c-0.5,0-1.5,0.4-1.4-0.5c0-0.6,0.9-0.3,1.4-0.3c52.1,0,104.2,0,156.3,0
		c0.8,0,1.6,0,2.4,0c0.2,0,0.5,0,0.5,0.3c0,0.3-0.2,0.4-0.5,0.4c-0.4,0-0.7,0-1.1,0C166.4,78.2,140.2,78.2,113.9,78.2z"></path>
</g>
</svg>
