<!--?xml version="1.0" encoding="utf-8"?-->
<!-- Generator: Adobe Illustrator 24.2.3, SVG Export Plug-In . SVG Version: 6.00 Build 0)  -->
<svg version="1.1" id="Camada_1" xmlns="http://www.w3.org/2000/svg" xmlns:xlink="http://www.w3.org/1999/xlink" x="0px" y="0px" viewBox="0 0 229 418" enable-background="new 0 0 229 418" xml:space="preserve">
<g onclick="select(this)" class="" id="gola-primaria" fill="#000000">
	<path d="M109.3256989,35.9207878c-0.1734467,0.532753-0.5917358,0.2743607-0.9039154,0.2516022
		c-4.1043777-0.299221-7.9513092-1.505722-11.6402817-3.2895241c-5.3551407-2.5894814-10.2299652-5.8816833-14.3707428-10.1524506
		c-2.6511154-2.734333-4.9007111-5.7867432-5.7837296-9.6242762c-0.2346497-1.0197554-0.4030762-2.0421906-0.2305679-3.0806484
		c0.1655655-0.9966812,0.9428787-1.529851,1.6987534-2.062746c0.5144196-0.0249214,0.9029312-0.3084855,1.2525024-0.6408176
		c0.9263763-0.8806958,2.0002518-1.6613083,2.7274628-2.6858997c2.0422745-2.8774152,5.0195923-3.6035271,8.2394028-3.9384618
		c3.0734558-0.3197089,6.1407471,0.0640202,9.2119827,0.0276009c4.3973541-0.0521445,8.7971802,0.0443054,13.1931534-0.0513445
		c7.9102249-0.1721148,15.8182297,0.0474188,23.7272263,0.0364116c0.9124146-0.0012698,1.828537,0.1745476,2.7369537,0.3088157
		c2.2481232,0.3322871,4.1498718,1.1915944,5.5701294,3.1200867c1.2012482,1.6310925,2.6129456,3.1247711,4.4388733,4.1271977
		c1.6919098,0.471426,2.2952423,2.5105724,1.6758423,4.7444515c-1.1704712,4.2214594-3.5445099,7.6803961-6.6416321,10.6471872
		c-2.7457275,2.6302032-5.8013458,4.901825-9.102417,6.8089809c-4.071167,2.3520851-8.2753143,4.4175797-12.9284058,5.3568268
		c-1.3970261,0.2819977-2.8357391,0.3577576-4.2551346,0.5281792c0.4981461-1.1476097,1.3241043-2.0655403,2.1212006-3.0007629
		c2.248703-2.6383533,4.9448242-4.810585,7.4805527-7.1498508c2.1459198-1.6623192,4.2819519-3.3376217,6.4404449-4.9834862
		c2.392868-1.8246021,4.6131897-3.8312626,6.5503387-6.1364632c1.4909363-1.7742386,2.8118439-3.6581097,3.6611938-5.995595
		c-2.0445251,0.171031-3.9476471,0.3502245-5.8538818,0.4858923c-5.379715,0.3828764-10.7599335,0.7590179-16.1413574,1.1168613
		c-5.5895386,0.3716831-11.1788483,0.4153547-16.7722092,0.018959c-7.1327515-0.5054932-14.2606812-1.060936-21.3717041-1.816123
		c-0.7256699-0.0770664-0.9725952,0.1089544-0.6669769,0.8316221c0.5152588,1.2184,1.126152,2.3757305,1.9132462,3.447176
		c3.9235306,5.3410435,9.441452,8.9155712,14.446228,13.0588207
		C103.1151276,29.2874451,106.6069336,32.222599,109.3256989,35.9207878z"></path>
</g>
<g onclick="select(this)" class="" id="estampa-primaria" fill="#bf0811">
	<path d="M42.4525146,112.7778625c-0.8959656-0.1017761-1.4921265,0.6431503-2.3408813,0.7894821
		c-2.3294182,0.4016266-4.6686974,0.4893799-7.0189934,0.5657349c-5.6645355,0.1840439-11.3184147-0.0333939-16.9397697-0.6843262
		c-5.0782709-0.5880508-9.9922829-1.9331818-14.739399-3.8523865c1.6968608-8.914566,2.4887414-17.9633636,4.0001216-26.9052277
		c0.8855782-5.2393951,1.1788788-10.5595551,2.2399788-15.7781677c1.7292542-8.504673,4.4516625-16.5878448,9.6675148-23.6606789
		c2.1221428-2.8776779,4.5377884-5.4906731,7.3400173-7.7103424c1.3638763-1.0803337,2.3639584-2.5835495,3.9253693-3.4050064
		c3.6099453-1.8991852,7.2583332-3.7276974,11.0324497-5.2813187c9.9905014-4.1125946,20.000515-8.1803665,29.4651909-13.4415846
		c1.9752426-1.0979939,3.9976349-2.0948963,5.5164642-3.8997173c0.8439026-1.0028076,2.0582657-1.6470857,3.4946365-1.5515785
		c-0.7558746,0.5328951-1.5331879,1.0660648-1.6987534,2.062746c-0.1725082,1.0384579-0.0040817,2.0608931,0.2305679,3.0806484
		c0.8830185,3.837533,3.1326141,6.8899431,5.7837296,9.6242762c4.1407776,4.2707672,9.0156021,7.5629692,14.3707428,10.1524506
		c3.6889725,1.783802,7.5359039,2.990303,11.6402817,3.2895241c0.3121796,0.0227585,0.7304688,0.2811508,0.9042816-0.2512054
		c0.4935303,0.34338,1.0183792,0.5796623,1.6344376,0.6280861c2.3348923,0.1835098,4.6674423,0.3629379,6.9804306-0.1974907
		c1.4196167-0.1702423,2.8583298-0.2460022,4.2553558-0.5279999c4.6530914-0.9392471,8.8572388-3.0047417,12.9284058-5.3568268
		c3.3010712-1.907156,6.3566895-4.1787777,9.102417-6.8089809c3.0971222-2.9667912,5.4711609-6.4257278,6.6416321-10.6471872
		c0.6194-2.2338791,0.0160675-4.2730255-1.6763763-4.744153c1.9420929-0.322947,3.1181183,0.8977289,4.248703,2.1526375
		c0.3474121,0.3856363,0.6847076,0.7271471,1.1279755,1.0213566c8.8716431,5.8886719,18.7898102,9.6126652,28.5267792,13.6823082
		c5.0673981,2.11796,10.038208,4.4440956,15.0911713,6.5874882c0.2853394,0.1210365,0.5591431,0.2838707,0.8124237,0.4636726
		c11.9666901,8.4952011,19.1779327,20.08321,21.3682709,34.4821701c1.7443542,11.4671555,4.7389374,22.6825333,6.318634,34.166687
		c0.3372803,2.4519806,0.734375,4.8957443,1.1039429,7.3433762c-0.6231995,0.2587509-1.2245331,0.6173401-1.8733063,0.7590942
		c-3.0727844,0.6713867-5.9807739,1.8872681-9.0736084,2.5406494c-3.9409485,0.8325424-7.895462,1.5586319-11.8859558,1.9935684
		c-5.5944672,0.6097641-11.2156982,0.2853394-16.8232422,0.0108337c-1.0757751-0.0526581-2.1148071-0.3867111-3.0544434-0.9562912
		c0.9133911-6.7970581,2.1953278-13.5191116,4.0814209-20.1194687c0.1157684-0.4051895,0.4060059-0.7978287,0.1864471-1.257576
		c0.2286835,0.013588,0.220459-0.1446915,0.208313-0.2966614c-0.0024261-0.0302887-0.0488129-0.0570526-0.0749512-0.0854416
		c-0.0375671,0.1338348-0.0751343,0.267662-0.1127014,0.4015045c-0.3382111,0.0892105-0.3290253,0.4327927-0.4303589,0.6598129
		c-2.0418243,4.5738068-3.5193329,9.3472748-4.7613068,14.1821518c-2.4084015,9.3755341-3.9837952,18.8970871-4.9313965,28.5371094
		c-0.4706268,4.7878876-0.8178406,9.5828094-1.1401062,14.3773499c-0.3235474,4.8140259-0.4896545,9.6474457-0.4935303,14.4725189
		c-0.0137329,17.0256653-0.293335,34.0512085,0.1540527,51.0777435c0.191925,7.3041687,0.2595215,14.6112518,0.5149689,21.9160767
		c0.170105,4.8651276,0.3197784,9.7314301,0.4851532,14.597168c0.2033081,5.9811401,0.4586487,11.9578552,0.7411346,17.9355164
		c0.2373199,5.0215149,0.4161835,10.0449524,0.8100586,15.0577393c-7.654129,1.0699463-15.3581696,1.3612976-23.0732422,1.4522095
		c-12.9472198,0.1525879-25.8881531,0.5621033-38.8301086,0.9285583c-6.7608643,0.1914368-13.4958496-0.465271-20.2470093-0.5768127
		c-8.7105942-0.1439209-17.4220123-0.2460938-26.1319199-0.4232483c-8.3101959-0.1690063-16.6230583-0.3526306-24.8476982-1.7511597
		c0.5422516-3.7596436,0.4815598-7.5604248,0.7390556-11.3394775c0.3821983-5.6092529,0.5796967-11.2329712,0.7604179-16.8535767
		c0.1423416-4.4268494,0.2932549-8.852417,0.473175-13.2781372c0.2545853-6.2624054,0.3896675-12.5300751,0.535202-18.7964172
		c0.0927391-3.9929047,0.1909142-7.9915466,0.1893997-11.9799347c-0.00811-21.4069519,0.6336784-42.8216705-0.6577225-64.2175446
		c-0.2539635-4.2076416-0.5594025-8.4050293-0.9685097-12.6003418c-0.4473228-4.5871887-1.0582695-9.1419525-1.8283081-13.6878357
		c-1.0712128-6.3238525-2.2926559-12.6049652-4.1846809-18.7393494c-0.5815163-1.8854294-1.0368538-3.8216553-1.9383469-5.6982117
		c-0.5278625,0.8900604,0.2040977,1.4512558,0.2923431,2.1296234c0.3710556,2.852478,0.8811569,5.6868515,1.2544365,8.5390854
		C42.1011581,108.9703293,42.5416451,110.8479462,42.4525146,112.7778625z"></path>
	<path d="M127.5429077,26.2013454c-6.4310379-0.0194588-12.8620758-0.0499077-19.2931213-0.0533142
		c-2.8337784-0.0015011-5.6675949,0.0519543-8.5014725,0.080719c-5.0048599-4.1429901-10.5227814-7.7175179-14.446312-13.0585613
		c-0.7870941-1.0714455-1.3979874-2.228776-1.9132462-3.447176c-0.3056183-0.7226677-0.0586929-0.9086885,0.6669769-0.8316221
		c7.1110229,0.755187,14.2389526,1.3106298,21.3717041,1.816123c5.5933609,0.3963957,11.1826706,0.3527241,16.7722092-0.018959
		c5.381424-0.3578434,10.7616425-0.7339849,16.1413574-1.1168613c1.9062347-0.1356678,3.8093567-0.3148613,5.8538818-0.4858923
		c-0.84935,2.3374853-2.1702576,4.2213564-3.6611938,5.995595c-1.937149,2.3052006-4.1574707,4.311861-6.5503387,6.1364632
		C131.8248596,22.8637238,129.6888275,24.5390263,127.5429077,26.2013454z"></path>
</g>
<g onclick="select(this)" class="" id="estampa-secundaria" fill="#000000">
	<path d="M180.3100128,36.5883255c0,0-21.2100067-5.1598282-33.7100067-15.2799969
		c0,0-14.3000031,15.1391239-32.0600052,15.1391239S85.5,25.6284962,81.1500015,21.198328
		C76.2406693,24.366291,63.3799858,32.9284935,44.859993,36.608326
		C61.4400024,36.832798,180.3100128,36.5883255,180.3100128,36.5883255z"></path>
	<path d="M190.2600098,88.4683304c0,0,2.9599457-4.5398254,3.9999695-11.0299988
		s0.8286743-14.9702148,0.8286743-14.9702148h-35.248642L32.75,62.7183266c0,0,0.2676201,1.5248375,0.0038109,4.0898323
		c-0.2638092,2.5650024,0.0771751,7.7481232,0.3854218,9.1031265s1.1707611,4.2471924,1.9407654,5.1170349
		c0.5759773,1.313942,2.4252548,7.3894272,3.1300011,7.4400101S190.2600098,88.4683304,190.2600098,88.4683304z"></path>
	<path d="M182.730011,139.9783173c0,0,0.3074951-4.6576691,0.3974915-5.8726654
		c0.0900116-1.2149963,0.292923-3.2942657,0.4725189-4.8773193c0.1795959-1.583046,0.6472168-6.8124084,0.7400208-7.6500015
		s0.3518982-4.3800888,0.4241486-5.1151886s0.2108307-2.4151688,0.2108307-2.4151688l-142.0796204,0.0292816
		c0,0,0.3793831,5.2895584,0.4046249,5.5627518c0.025238,0.273201,0.0228424,1.7117462,0.2471199,3.3899231
		c0.2242737,1.6781845,0.4356613,2.9791107,0.8561783,6.5378799c0.4205208,3.5587769,0.8366699,6.9205322,0.8366699,6.9205322
		l0.0500145,3.5799713L182.730011,139.9783173z"></path>
	<path d="M182.6700134,191.6469421c0,0-0.3358765-3.735672-0.1852264-5.0706635
		c0.15065-1.3349762,0.4042358-4.268692,0.1297302-5.4196625c-0.2745056-1.1509552-0.1037598-7.7039185-0.0932159-8.0613556
		c0.0105438-0.3574219,0.0737152-3.4592743,0.1487122-3.8769379s0.2717133-1.0026703,0.0664825-2.4989166
		c-0.0664978-0.9000092-0.0051422-1.0210876-0.0051422-1.0210876L45.340004,165.7183228
		c0,0,0.1371918,2.9251251,0.1235962,5.7149811s-0.0197029,7.7173004-0.0022507,8.436615
		c0.0174522,0.7193298,0.0373421,4.2957001,0.1389885,6.5731964c0.1016464,2.2775116,0.159668,5.1452179,0.159668,5.1452179
		L182.6700134,191.6469421z"></path>
	<path d="M186.5700073,268.7383423c0,0,0.4438782,3.0228882,0.6750031,5.744812
		c0.2311249,2.7219543,0.3523865,5.085022,0.1986847,6.3675232c-0.1536865,1.2825012-0.2775879,1.8156128-2.5664673,2.3660583
		c-2.2888641,0.5504456-8.4772186,1.6914368-17.7172241,2.0214233c-9.2399902,0.3300171-26.9405212,0.5662231-29.0127563,0.631073
		s-21.5072479,0.6795654-25.6022491,0.4742432c-4.0949936-0.2052917-23.222908-0.75354-27.5863342-0.7930298
		c-4.3634262-0.0394592-19.9885025-0.2449951-24.4807854-0.5354614c-4.4922752-0.2904663-13.2446251-1.0543823-17.1512527-2.1930847
		c-1.8366241-0.5312195-2.6027603-0.914978-2.8215675-1.7637329s-0.5750847-2.3247681-0.0650711-4.6298828
		c-0.079998-2.3501282,0.0574875-3.4223938,0.25-4c-0.0618477-0.7576294-0.1174889-1.1997681,0.3300133-3.6899414
		C44.8199997,268.7383423,186.5700073,268.7383423,186.5700073,268.7383423z"></path>
	<path d="M184.8800049,243.2083282c0,0,0.2195282-3.5101776,0.5947723-6.0901794
		c0.3752289-2.5800018,0.0484619-9.8536835-0.7331543-11.181839s-1.189743-4.5397797-1.2106781-5.6489716
		s0.2195129-2.9890442,0.2195129-2.9890442s-3.1091766-0.263855-5.8654633-0.1348572
		c-2.7562866,0.1289825-4.9071045,0.1734161-4.9071045,0.1734161l-120.2478867-0.0485382l-10.2961159-0.0399933
		c0,0,0.0915642,3.5878601,0.1760788,3.8048248c0.0845146,0.21698,0.4630203,2.3466797,0.4500351,3.8051758
		s0.2300034,3.4099884,0.2300034,3.4099884s-0.4600029,2.9251709-0.6800041,3.6300049s-0.0100021,4.5400085-0.0100021,4.5400085
		s0.3254356,2.58461,0.2614288,3.4548798c-0.0640106,0.870285-0.3314247,3.3051147-0.3314247,3.3051147L184.8800049,243.2083282z"></path>
</g>
<g onclick="select(this)" class="" id="detalhe-lateral" fill="#000000">
	<path d="M180.3169098,283.9697266c-0.3938751-5.0127869-0.5727386-10.0362244-0.8100586-15.0577393
		c-0.282486-5.9776611-0.5378265-11.9543762-0.7411346-17.9355164c-0.1653748-4.8657379-0.3150482-9.7320404-0.4851532-14.597168
		c-0.2554474-7.3048248-0.3230438-14.611908-0.5149689-21.9160767c-0.4473877-17.026535-0.1677856-34.0520782-0.1540527-51.0777435
		c0.0038757-4.8250732,0.1699829-9.658493,0.4935303-14.4725189c0.3222656-4.7945404,0.6694794-9.5894623,1.1401062-14.3773499
		c0.9476013-9.6400223,2.522995-19.1615753,4.9313965-28.5371094c1.2419739-4.834877,2.7194824-9.608345,4.7613068-14.1821518
		c0.1013336-0.2270203,0.0921478-0.5706024,0.4303741-0.6598129l-0.0207214-0.0194473
		c0.2196045,0.4597931-0.0706329,0.8524323-0.1864014,1.2576218c-1.8860931,6.6003571-3.1680298,13.3224106-4.0814209,20.1194611
		c-0.4264069,2.5465698-0.4257202,5.1188202-0.4629211,7.688797c-1.2378235,10.3072052-2.2989655,20.6278992-1.9510498,31.0315857
		c0.0821381,2.4562225,0.7914734,4.8716583,0.4144745,7.3699951c-0.3516235,2.3302765-0.4445953,4.684967-0.4245453,7.0450745
		c0.0559845,6.582428,0.098587,13.1757202-0.1155396,19.7438812c-0.1456757,4.4695435,0.7072906,8.6924438,1.4236298,12.9963837
		c0.8506927,5.1109314,0.9480896,10.2349701,0.2398224,15.3761444c-0.3209076,2.3293762-0.54039,4.6726532-0.8144379,7.008606
		c-0.0490723,0.4181976,0.1008759,0.7893066,0.2301788,1.1618195c1.989563,5.7316895,2.4832916,11.6064911,1.5848999,17.5875092
		c-0.3058167,2.0359802-0.3425293,4.0207977,0.0992279,6.0381927c0.4457397,2.035675,0.5504761,4.1139832,0.5100098,6.1976929
		c-0.1430817,7.3665771,0.683609,14.670929,1.384079,21.9852905c0.2195892,2.2928162,0.3340759,4.5978088,0.3145142,6.9078064
		c-0.0094452,1.1127625-0.4973297,1.8139954-1.5031281,2.1914368
		C184.1745911,283.5326233,182.2864838,283.9595947,180.3169098,283.9697266z"></path>
	<path d="M42.4525146,112.7778625c0.0891304-1.9299164-0.3513565-3.8075333-0.5991211-5.7007065
		c-0.3732796-2.8522339-0.8833809-5.6866074-1.2544365-8.5390854c-0.0882454-0.6783676-0.8202057-1.239563-0.2923431-2.1296234
		c0.9014931,1.8765564,1.3568306,3.8127823,1.9383469,5.6982117c1.892025,6.1343842,3.1134682,12.4154968,4.1846809,18.7393494
		c0.7700386,4.5458832,1.3809853,9.100647,1.8283081,13.6878357c0.4091072,4.1953125,0.7145462,8.3927002,0.9685097,12.6003418
		c1.2914009,21.395874,0.6496124,42.8105927,0.6577225,64.2175446c0.0015144,3.9883881-0.0966606,7.98703-0.1893997,11.9799347
		c-0.1455345,6.2663422-0.2806168,12.5340118-0.535202,18.7964172c-0.1799202,4.4257202-0.3308334,8.8512878-0.473175,13.2781372
		c-0.1807213,5.6206055-0.3782196,11.2443237-0.7604179,16.8535767c-0.2574959,3.7790527-0.196804,7.579834-0.7390556,11.3394775
		c-1.7242279-0.0837708-3.3719635-0.5368042-4.9835625-1.1030884c-1.6184654-0.5686951-2.0121346-1.1141663-1.9840698-2.8423157
		c0.0452156-2.7842407,0.1874161-5.5641479,0.4140472-8.3428955c0.431675-5.2928772,0.7171974-10.5978699,1.1692505-15.8888245
		c0.4074936-4.7694855-0.0650482-9.592804,0.9218788-14.3255157c0.1883888-0.9033813,0.0964546-1.8375397-0.042675-2.744751
		c-0.4781952-3.1182098-0.3503647-6.2133179,0.3311234-9.2835846c0.1949081-0.8781128,0.1388702-1.7289124,0.0771484-2.6109161
		c-0.2841988-4.0611115-0.8382988-8.1011047-0.8580627-12.1838684c-0.0239258-4.942688,1.0864563-9.6556549,2.7438126-14.2636871
		c0.3171997-0.881958,0.5332336-1.7270813,0.4237556-2.675354c-0.1839256-1.5931854-0.141243-3.1873627,0.1506195-4.7743683
		c0.1077003-0.5856476,0.1623573-1.1927948,0.1462173-1.7875824c-0.1308823-4.8229065-0.2779045-9.645401-0.4356956-14.4675293
		c-0.0367355-1.1227112,0.0765038-2.2321014,0.1623611-3.3472748c0.144268-1.8738251,0.1034241-3.7475739-0.048111-5.6235199
		c-0.4092598-5.0663605-0.1779556-10.145752-0.0681305-15.2097778c0.196312-9.0511017-0.2082138-18.0476379-1.5041733-27.0064316
		c-0.2226868-1.5393982-0.3748512-3.0890045-0.5595245-4.6338654c0.5152626-1.2158585-0.2161751-2.3334808-0.3642349-3.4790726
		C42.6969795,115.5973511,42.9329262,114.1476212,42.4525146,112.7778625z"></path>
</g>
<g onclick="select(this)" class="" id="detalhe-punho" fill="#000000">
	<path d="M0.24,114.41436c0.5066518-1.0333099,0.4623487-2.1853943,0.7029477-3.2761536
		c0.1164828-0.5280762,0.0638708-1.1035385,0.4705237-1.5418396c4.7471166,1.9192047,9.661128,3.2643356,14.739399,3.8523865
		c5.6213551,0.6509323,11.2752342,0.8683701,16.9397697,0.6843262c2.350296-0.076355,4.6895752-0.1641083,7.0189934-0.5657349
		c0.8487549-0.1463318,1.4449158-0.8912582,2.3408813-0.7894821c0.4804115,1.3697586,0.2444649,2.8194885,0.4263916,4.2271881
		c0.1480598,1.1455917,0.8794975,2.2632141,0.3643112,3.4790955c-2.841095,1.3330917-5.9081955,1.7382584-8.9673958,1.7949448
		c-7.0645809,0.130928-14.1399384,0.3043518-21.1575737-0.9066238c-3.6142483-0.6236801-7.2130728-1.2875977-10.7040243-2.4304047
		c-0.7462479-0.2443008-1.4505816-0.6164856-2.1742241-0.9297638C0.24,116.8129883,0.24,115.613678,0.24,114.41436z"></path>
	<path d="M184.6167908,120.2029724c0.0372009-2.5699768,0.0365143-5.1422272,0.4629211-7.688797
		c0.9396362,0.5695877,1.9786682,0.9036407,3.0544434,0.9562988c5.6075439,0.2745056,11.228775,0.5989304,16.8232422-0.0108337
		c3.9904938-0.4349365,7.9450073-1.161026,11.8859558-1.9935684c3.0928345-0.6533813,6.000824-1.8692627,9.0736084-2.5406494
		c0.6487732-0.1417542,1.2501068-0.5003433,1.873291-0.7590942c1.0290527,2.4653549,1.3149261,5.0500107,1.1316986,7.6846695
		c-0.0435181,0.6258698-0.7669983,0.7556763-1.2712555,0.942894c-3.2154999,1.1938553-6.5277557,2.0655441-9.8517761,2.8920898
		c-8.3978119,2.0882339-16.9433594,2.4642563-25.539505,2.1048508c-1.8251953-0.0763016-3.6426392-0.4177322-5.4543915-0.6971664
		C186.0230713,120.9730606,185.2617188,120.7066879,184.6167908,120.2029724z"></path>
</g>
<g onclick="select(this)" class="" id="gola-secundaria" fill="#ffffff">
	<path d="M127.5429077,26.2013435c-2.5357285,2.3392677-5.2318497,4.5114994-7.4805527,7.1498528
		c-0.7970963,0.9352226-1.6230545,1.8531532-2.1212006,3.0007591c-2.3132095,0.5602531-4.6457596,0.380825-6.9806519,0.1973152
		c-0.6160583-0.0484238-1.1409073-0.2847061-1.6344376-0.6280861c-2.7191315-3.6985855-6.2109375-6.6337395-9.5777512-9.6924343
		c2.8338776-0.0287647,5.6676941-0.0822201,8.5014725-0.080719
		C114.6808319,26.1514378,121.1118698,26.1818867,127.5429077,26.2013435z"></path>
</g>
<path d="M189.3682404,91.1565399c0.0375671-0.1338425,0.0751343-0.2676697,0.1127014-0.4015045
	c0.0261383,0.028389,0.072525,0.0551529,0.0749512,0.0854416c0.012146,0.1519699,0.0203705,0.3102493-0.208313,0.2966614
	C189.3475342,91.1370926,189.3682556,91.1565399,189.3682404,91.1565399z"></path>
<g onclick="select(this)" class="has-opacity" id="c-estampa-quaternaria" fill="#ffffff" opacity="0.2">
	<path d="M178.2512512,243.3899994c-1.7899933-0.0099945-3.5899963-0.0299988-5.3800049-0.0399933
		c0.1600037-0.9400024-0.3899994-0.9799957-1.1300049-0.9799957c-6.7100067,0.0200043-13.4199982,0.0099945-20.1300049,0.0200043
		c-0.5700073,0-1.1000061,0.1100006-1.0800018-0.8000031c0.0200043-0.7100067,0.2700043-0.8500061,0.9199982-0.8500061
		c3.3999939,0.0299988,6.7899933,0.0099945,10.1900024,0.0099945c3.3200073,0,6.6300049,0.0099945,9.9499969-0.0099945
		c0.5200043,0,1.2299957,0.3200073,1.3500061-0.6799927c0.0399933-0.3500061,0.5399933-0.2200012,0.8500061-0.2299957
		c1.4799957-0.0200043,2.9600067-0.0200043,4.4299927-0.0299988C178.2212524,241,178.2412415,242.1999969,178.2512512,243.3899994z"></path>
	<path d="M178.2012482,235.9700012c-1.2799988,0-2.5599976,0.0399933-3.8399963,0
		c-0.6199951-0.0200043-1.4600067,0.3899994-1.6199951-0.7899933c-0.0500031-0.3999939-0.7100067-0.1900024-1.0800018-0.1900024
		c-6.6699982-0.0099945-13.3500061-0.0099945-20.0200043-0.0099945c-0.5200043,0-1.1000061,0.2200012-1.1199951-0.7400055
		c-0.0200043-0.9499969,0.4900055-0.8899994,1.1199951-0.8899994c6.4299927,0.0099945,12.8699951,0.0200043,19.3000031-0.0200043
		c0.7299957,0,1.8099976,0.5599976,2.0399933-0.8600006c0.0399933-0.2299957,0.5-0.1199951,0.7700043-0.1199951
		c1.3999939-0.0099945,2.8000031-0.0099945,4.1999969-0.0200043
		C178.0412445,233.5399933,178.1212463,234.75,178.2012482,235.9700012z"></path>
	<path d="M177.9612427,228.4900055c-1.1999969,0-2.3999939,0.0299988-3.6000061-0.0099945
		c-0.6199951-0.0200043-1.4499969,0.3899994-1.6100006-0.8000031c-0.0500031-0.3899994-0.7100067-0.1900024-1.0800018-0.1900024
		c-6.6799927-0.0099945-13.3600006,0-20.0299988-0.0200043c-0.3699951,0-0.9700012,0.2899933-1.0599976-0.4100037
		c-0.0800018-0.6100006-0.1300049-1.2700043,0.8500061-1.1100006c0.2299957,0.0399933,0.4799957,0.0099945,0.7200012,0.0099945
		c6.5200043,0,13.0399933,0,19.5500031-0.0099945c0.5099945,0,1.1699982,0.2299957,1.1999969-0.6999969
		c0.0200043-0.4499969,0.4799957-0.3200073,0.7799988-0.3200073c1.3600006-0.0099945,2.7200012,0,4.0800018,0.0099945
		C178.0412445,226.1100006,178.0412445,227.3000031,177.9612427,228.4900055z"></path>
	<path d="M177.7112427,221.0700073c-1.1199951,0-2.2400055,0.0299988-3.3500061-0.0099945
		c-0.6199951-0.0200043-1.4499969,0.3899994-1.6100006-0.8000031c-0.0500031-0.3999939-0.6999969-0.1900024-1.0800018-0.1900024
		c-6.6699982-0.0099945-13.3300018-0.0099945-20-0.0099945c-0.5099945,0-1.1100006,0.2299957-1.1399994-0.7400055
		c-0.0200043-0.9400024,0.4799957-0.8999939,1.1199951-0.8899994c6.0700073,0.0099945,12.1300049,0.0099945,18.1999969,0.0099945
		c0.6799927,0,1.3600006-0.0599976,2.0299988,0.0099945c0.8300018,0.0899963,1.0599976-0.2899933,0.9900055-1.0200043h-0.0299988
		c1.6100006-0.0200043,3.2299957-0.0399933,4.8399963-0.0500031
		C177.6912537,218.6100006,177.7012482,219.8399963,177.7112427,221.0700073z"></path>
	<path d="M180.1312408,283.9200134c0.0200043,0.0700073,0.0299988,0.1400146,0.0299988,0.2099915
		c-3.3399963,0.7999878-6.7700043,0.8099976-10.1600037,1.1799927c-1.6999969,0.1900024-3.4199982,0.1799927-5.1300049,0.2600098
		c-4.5899963,0.1900024-9.1900024,0.1900024-13.7799988,0.25c-0.1900024,0-0.3800049-0.0700073-0.5700073-0.1099854
		c-0.1000061-0.8999939,0.5200043-0.7900085,1.0800018-0.7900085c5.8999939,0.0100098,11.7899933,0.0100098,17.6900024,0.0100098
		c0.8399963,0,1.6699982,0,2.5099945-0.0100098c0.4900055-0.0100098,1.0399933,0.1300049,1.1000061-0.7000122
		c0.0399933-0.5100098,0.5800018-0.2999878,0.8899994-0.2999878
		C175.9112549,283.8999939,178.0212555,283.9100037,180.1312408,283.9200134z"></path>
	<path d="M56.53125,284.9200134c5.8899994,0,11.7799988,0,17.6800003,0.019989
		c0.1999969,0,0.9300003-0.3800049,0.6100006,0.4500122c-0.3300018,0.1400146-0.6600037,0.2200012-1.0299988,0.2200012
		c-5.6200027,0.0799866-11.2200012-0.2399902-16.8199997-0.5599976
		C56.8212471,285.0499878,56.6812477,284.9599915,56.53125,284.9200134z"></path>
	<path d="M194.7512512,66.25c-6.9199982,0-13.8399963,0.0100021-20.7599945,0.0100021
		c-0.5099945,0-1.1100006,0.2099991-1.1699982-0.7200012c-0.0399933-0.5-0.6699982-0.2799988-1.0299988-0.2799988
		C165.311264,65.25,158.8312531,65.25,152.3512573,65.25c-0.2400055,0-0.4799957-0.0100021-0.7200012,0
		c-0.5700073,0.0199966-1.0800018,0.0899963-1.0899963-0.8099976c0-0.8699989,0.4600067-0.8300018,1.0599976-0.8300018
		c6.7200012,0.0099983,13.4400024-0.0099983,20.1600037,0.0200005c0.75,0,1.2400055-0.0900002,1.2100067-0.9599991
		c7.0500031-0.0099983,14.1000061-0.0200005,21.1499939-0.0499992c0.6900024,0,0.9400024,0.2599983,0.8800049,0.9000015
		C194.9112549,64.4300003,194.8312531,65.3399963,194.7512512,66.25z"></path>
	<path d="M194.5412445,73.6699982c-6.8300018,0-13.6699982,0-20.5-0.0100021
		c-0.5,0-1.1100006,0.2399979-1.2400055-0.6699982C172.7312317,72.5299988,172.1112366,72.75,171.7412415,72.75
		c-6.7100067-0.0100021-13.4300079-0.0100021-20.1399994-0.0100021c-0.4900055,0-1.0099945,0.1699982-1.0399933-0.6999969
		c-0.0399933-0.9300003,0.4400024-0.9300003,1.1000061-0.9300003c6.6300049,0.0100021,13.2700043,0.0100021,19.8999939,0
		c0.5700073,0,1.3099976,0.2900009,1.3999939-0.7699966c0.0399933-0.4199982,0.6100006-0.2300034,0.9400024-0.2300034
		c6.9499969-0.0100021,13.9100037,0,20.8600006,0C194.7612457,71.3000031,194.9612427,72.5,194.5412445,73.6699982z"></path>
	<path d="M193.2512512,81.1299973c-6.5099945,0.0100021-13.0299988,0.0199966-19.5399933,0.0199966
		c-0.2599945,0-0.7299957,0.0999985-0.7400055-0.1800003c-0.0700073-1.2200012-0.9700012-0.8199997-1.5800018-0.8199997
		c-6.5500031-0.0199966-13.1100006-0.0100021-19.6600037-0.0199966c-0.5599976,0-1.1900024,0.2099991-1.1799927-0.8099976
		c0.0099945-1.0199966,0.6300049-0.8099976,1.1999969-0.8099976c6.6300049,0,13.2700043,0,19.8999939-0.0100021
		c0.5200043,0,1.25,0.3000031,1.2899933-0.7200012c0.0200043-0.4400024,0.5099945-0.2699966,0.7899933-0.2699966
		c6.7899933,0,13.5899963,0.0100021,20.3800049,0.0199966C194.0812531,78.8000031,193.78125,79.9899979,193.2512512,81.1299973z"></path>
	<path d="M32.6312485,70.1100006c6.3199997,0,12.6399994,0,18.9500008,0
		c0.5099983,0,1.1199989-0.2200012,1.1800003,0.7200012c0.0400009,0.5400009,0.6599998,0.2900009,1.0099983,0.2900009
		c6.2799988,0.0199966,12.5599976,0.0100021,18.8300018,0.0100021c0.4800034,0,0.9599991,0.0100021,1.4400024,0
		c0.5400009-0.0100021,0.9899979-0.0699997,1,0.7600021c0.0100021,0.8399963-0.3700027,0.8700027-1.0100021,0.8700027
		c-6.7200012-0.0199966-13.4399986-0.0100021-20.1500015,0c-0.4700012,0-1.1199989-0.3199997-1.2400017,0.6399994
		c-0.0600014,0.5-0.6800003,0.2600021-1.0400009,0.2600021c-6.2799988,0.0100021-12.5600014,0.0100021-18.829998,0.0100021
		C32.4212494,72.4899979,32.5612488,71.3000031,32.6312485,70.1100006z"></path>
	<path d="M173.03125,88.6900024c-0.0899963-0.9700012-0.6300049-1.1600037-1.5599976-1.1500015
		c-6.5099945,0.0500031-13.0200043,0.0299988-19.5200043,0.0100021c-0.5700073,0-1.4199982,0.4000015-1.3899994-0.8300018
		c0.0299988-1.2600021,0.9199982-0.7600021,1.4499969-0.7600021c6.5099945-0.0299988,13.0200043-0.0100021,19.5200043-0.0299988
		c0.5500031,0,1.2799988,0.3399963,1.4600067-0.6900024c0.0700073-0.4199982,0.6999969-0.2099991,1.0800018-0.2099991
		c5.9499969-0.0199966,11.8999939-0.0199966,17.8500061-0.0199966c-0.0500031,1.3499985-1.0200043,2.3099976-1.4900055,3.4700012
		c-0.1300049,0.3199997-0.5500031,0.2699966-0.8699951,0.2600021C184.0412445,88.7200012,178.53125,88.7099991,173.03125,88.6900024
		z"></path>
	<path d="M33.3912468,77.5899963c3.9099998-0.0199966,7.829998-0.0500031,11.7400017-0.0699997
		c2.2000008-0.0100021,4.4000015,0,6.5900002,0c0.5200005,0,1-0.0899963,1.0499992,0.7300034
		c0.0299988,0.5199966,0.6599998,0.2699966,1.0200005,0.2699966c6.7099991,0.0199966,13.420002,0.0100021,20.1399956,0.0199966
		c0.5100021,0,1.0999985-0.2099991,1.1299973,0.75c0.0299988,0.9800034-0.5,0.8799973-1.1200027,0.8799973
		c-6.6699982-0.0100021-13.3499985-0.0100021-20.0200005,0.0100021c-0.5099983,0-1.2200012-0.3300018-1.2599983,0.7300034
		c-0.0200005,0.4899979-0.6699982,0.2600021-1.0299988,0.2600021c-5.5499992,0.0199966-11.1100006,0.0100021-16.6599998,0.0199966
		C34.2112465,80.0699997,33.6812477,78.8799973,33.3912468,77.5899963z"></path>
	<path d="M52.4912491,62.6800003c0.1699982,0.7400017,0.5800018,0.9700012,1.3899994,0.9599991
		c6.5100021-0.0499992,13.0199966-0.0400009,19.5400009,0c0.5699997,0,1.6399994-0.6199989,1.6100006,0.8199997
		c-0.0299988,1.4599991-1.1299973,0.75-1.6699982,0.75C66.8512497,65.2699966,60.3412514,65.2399979,53.8212509,65.25
		c-0.5,0-1.1199989-0.2399979-1.1699982,0.7099991C52.621254,66.4899979,51.9912529,66.25,51.6412544,66.25
		c-5.829998,0.0199966-11.670002,0.0100021-17.5,0.0100021c-0.4399986,0-0.8800011,0-1.3199997,0
		c0-1.0999985,0-2.1999969,0-3.3899994c1.2099991,0,2.5200005,0,3.829998,0c4.7799988,0,9.5499992,0,14.3300018,0
		C51.4912491,62.8699989,52.0012474,62.9000015,52.4912491,62.6800003z"></path>
	<path d="M36.3812485,85.0400009c5.1599998-0.0100021,10.3100014-0.0199966,15.4700012-0.0199966
		c0.2900009,0,0.7799988-0.1500015,0.7999992,0.2799988c0.0600014,0.9800034,0.7599983,0.6299973,1.2200012,0.6299973
		c6.6800003,0.0199966,13.3500023,0.0100021,20.0300026,0.0299988c0.4300003,0,1.0599976-0.3199997,1.1299973,0.5999985
		c0.0699997,0.9100037-0.3099976,1.0299988-1.0999985,1.0299988c-6.5599976-0.0299988-13.1100006,0-19.6699982-0.0299988
		c-0.9199982,0-1.6800003,0-1.8100014,1.1399994c-4.5900002,0.0100021-9.1800003,0.0299988-13.7700005,0.0400009
		c-0.4799995,0-0.9700012-0.0100021-1.1800003-0.5899963C37.1412468,87.1100006,36.7612495,86.0699997,36.3812485,85.0400009z"></path>
	<path d="M54.1212463,34.3100014c6.5999985,0.0200005,13.1900024,0.0299988,19.7900009,0.0499992
		c0.5100021,0,1.0999985-0.2200012,1.1299973,0.75s-0.5,0.8800011-1.1200027,0.8800011
		c-6.7200012-0.0099983-13.4399986,0-20.1500015,0c-0.5900002,0-1.3100014-0.1599998-1.0200005,0.8699989
		c-2.6599998,0.2900009-5.3199997,0.0400009-8,0.0200005C47.8912468,36.0299988,50.9412498,34.9199982,54.1212463,34.3100014z"></path>
	<path d="M172.7912445,36.8600006c0.3399963-1.0299988-0.3899994-0.8800011-0.9799957-0.8800011
		c-6.7100067,0-13.4100037,0.0099983-20.1199951-0.0099983c-0.4299927,0-1.0800018,0.3300018-1.1499939-0.5800018
		c-0.0700073-0.8699989,0.2700043-1.0600014,1.0800018-1.0499992c6.1499939,0.0299988,12.2899933,0.0200005,18.4400024,0.0099983
		c0.5200043,0,1.0399933-0.0400009,1.5500031-0.0600014c2.8500061,0.7999992,5.6999969,1.6100006,8.5599976,2.4099998
		C177.7012482,36.9099998,175.2512512,37.1300011,172.7912445,36.8600006z"></path>
	<path d="M157.7912445,28.5300007c-2.1799927,0.0200005-4.3600006,0.0200005-6.5399933,0.0699997
		c-0.6300049,0.0100002-0.6999969-0.2900009-0.6900024-0.7999992c0.0099945-0.4699993,0-0.8600006,0.6600037-0.8500004
		c1.1100006,0.0200005,2.2200012-0.0300007,3.3300018-0.0499992
		C155.7012482,27.3099995,156.7612457,27.8799992,157.7912445,28.5300007z"></path>
	<path d="M72.1312485,26.8899994c0.6800003,0.0200005,1.3600006,0.0900002,2.0299988,0.0499992
		c0.6800003-0.0400009,0.8799973,0.2099991,0.8799973,0.8899994c0,0.6900005-0.3099976,0.7800007-0.8700027,0.7600002
		c-1.7900009-0.0400009-3.5899963-0.0499992-5.3799973-0.0699997C69.8612518,27.8799992,70.941246,27.2800007,72.1312485,26.8899994
		z"></path>
	<path d="M179.6812439,276.519989c0.2299957,1.1600037,0.3000031,2.3399963,0.2400055,3.5299988
		c-2.0800018,0.0100098-4.1600037,0.0100098-6.2299957,0.019989c-0.3899994,0-0.7799988,0.0899963-0.8600006-0.5299988
		c-0.0899963-0.6799927-0.7100067-0.3699951-1.0800018-0.3699951c-6.7100067-0.019989-13.4300079-0.0100098-20.1399994-0.0100098
		c-0.5399933,0-1.0700073,0.1400146-1.0899963-0.7799988c-0.0099945-1.0100098,0.5800018-0.8500061,1.1600037-0.8500061
		c6.6699982,0,13.3500061,0,20.0200043-0.0100098c0.5099945,0,1.1399994,0.230011,1.1999969-0.7099915
		c0.0299988-0.5,0.5800018-0.2900085,0.8999939-0.2900085C175.7712555,276.5,177.7212524,276.5100098,179.6812439,276.519989z"></path>
	<path d="M179.3912506,269.1199951c0.0200043,1.1700134,0.0399933,2.3299866,0.0599976,3.5
		c-1.9199982,0.0100098-3.8399963,0.0299988-5.7599945,0.019989c-0.2599945,0-0.7100067,0.1300049-0.7400055-0.1799927
		c-0.1000061-1.2000122-0.9700012-0.8099976-1.5899963-0.8099976c-6.5599976-0.019989-13.1199951-0.0100098-19.6799927-0.0100098
		c-0.6199951,0-1.1600037,0.1000061-1.1399994-0.8699951c0.0200043-0.9400024,0.5899963-0.7600098,1.1199951-0.7600098
		c6.6799927,0,13.3600006-0.019989,20.0399933,0.019989c0.8099976,0,1.3000031-0.1300049,1.2799988-1.0299988
		C175.1212463,269.0499878,177.2512512,269.0799866,179.3912506,269.1199951z"></path>
	<path d="M47.4312477,280.0400085c-0.0499992-1.1799927,0.0099983-2.3599854,0.2400017-3.5299988
		C48.9512482,276.5,50.2312508,276.4900208,51.5012512,276.5c0.5400009,0.0100098,1.2000008-0.2399902,1.2700005,0.7600098
		C52.8012505,277.710022,53.451252,277.5,53.8112526,277.5c6.7099991,0.0100098,13.420002,0.0100098,20.1300011,0.0100098
		c0.5400009,0,1.0800018-0.1600037,1.0999985,0.7799988c0.0299988,1.0100098-0.5599976,0.8500061-1.1500015,0.8500061
		c-6.5899963,0-13.1800003-0.0100098-19.7700005,0.019989c-0.5600014,0-1.4099998-0.4299927-1.5099983,0.730011
		c-0.0200005,0.2600098-0.4900017,0.1700134-0.7599983,0.1700134
		C50.3912468,280.0599976,48.9112473,280.0499878,47.4312477,280.0400085z"></path>
	<path d="M47.9112473,272.6300049c0.0200005-1.1700134,0.0400009-2.3299866,0.0600014-3.5
		c1.5600014-0.0299988,3.1199989-0.0599976,4.6800003-0.0799866c-0.0699997,0.8500061,0.3400002,1,1.1300011,1
		c6.7099991-0.0400085,13.4199982-0.0299988,20.1299973-0.0100098c0.4300003,0,1.0599976-0.3099976,1.1299973,0.6099854
		c0.0599976,0.9100037-0.3199997,1.0299988-1.0999985,1.019989c-5.8700027-0.0299988-11.7399979-0.019989-17.6100006-0.019989
		c-0.8400002,0-1.6800003-0.0100098-2.5200005,0c-0.5099983,0.0100098-1.1399994-0.2200012-1.1500015,0.7200012
		c0,0.4299927-0.5099983,0.269989-0.7900009,0.269989C50.5512466,272.6600037,49.2312469,272.6400146,47.9112473,272.6300049z"></path>
	<path d="M172.9712524,269.0100098c2.1399994-0.2999878,4.2799988-0.0499878,6.4199982-0.1400146
		c0,0.0899963,0,0.1700134,0,0.2600098c-2.1399994-0.0400085-4.2700043-0.0799866-6.4100037-0.1199951H172.9712524z"></path>
	<path d="M47.9712486,268.8699951c1.5699997,0.0899963,3.1500015-0.1499939,4.7099991,0.1300049
		l-0.0299988,0.0400085c-1.5600014,0.0299988-3.1199989,0.0599976-4.6800003,0.0899963
		C47.9712486,269.0400085,47.9712486,268.9500122,47.9712486,268.8699951z"></path>
	<path d="M177.2612457,191.9799957c-1.4700012-0.0800018-2.9600067,0.2599945-4.4100037-0.1999969
		c0.1799927-0.9499969-0.3699951-0.9900055-1.1100006-0.9900055c-6.7200012,0.0200043-13.4400024,0.0099945-20.1600037,0.0099945
		c-0.4799957,0-1.0299988,0.1999969-1.0599976-0.6900024c-0.0299988-0.8600006,0.3300018-0.9600067,1.0500031-0.9600067
		c6.6799927,0.0200043,13.3600006,0.0200043,20.0400085,0c0.5299988,0,1.2599945,0.3000031,1.2799988-0.7299957
		c0.0099945-0.3699951,0.4299927-0.2599945,0.6900024-0.2700043c1-0.0099945,2-0.0399933,3,0.0099945
		c0.6999969,0.0399933,0.8500061-0.2400055,0.8600006-0.8999939c0.0700073-2.9600067,0.0899963-2.9299927-2.8600006-2.9900055
		c-0.6499939-0.0099945-1.6300049,0.5500031-1.8500061-0.7799988c-0.0700073-0.3899994-0.7100067-0.1900024-1.0899963-0.1900024
		c-6.6799927-0.0099945-13.3600006,0-20.0400085-0.0200043c-0.4499969,0-1.0800018,0.2599945-1.0800018-0.6499939
		c0-0.6900024,0.2100067-0.8999939,0.8899994-0.8800049c1.6799927,0.0399933,3.3600006,0.0099945,5.0399933,0.0099945
		c5.0800018,0,10.1600037,0,15.2400055-0.0099945c0.5099945,0,1.1600037,0.2200012,1.1900024-0.7100067
		c0.0200043-0.4499969,0.4900055-0.3000031,0.7799988-0.3099976c0.9600067-0.0200043,1.9199982-0.0399933,2.8800049,0
		c0.6600037,0.0299988,0.9400024-0.1699982,0.8999939-0.8699951c-0.0399933-0.8300018,0.0200043-1.6699982,0.0399933-2.5099945
		C177.53125,182.2599945,177.5012512,187.1199951,177.2612457,191.9799957z"></path>
	<path d="M172.9912415,114.3499985c2.9499969,0.2300034,5.8999939,0.0800018,8.8500061,0.0800018
		c0.5599976,0.8099976-0.1399994,1.5800018-0.1000061,2.3700027c0.0200043,0.3399963-0.1100006,0.6999969-0.1799927,1.0400009
		c-2.6000061,0-5.1900024-0.0100021-7.7799988-0.0199966c-0.4100037,0-0.8699951,0.1399994-0.9400024-0.5699997
		c-0.0800018-0.75-0.75-0.4199982-1.1499939-0.4199982c-6.6699982-0.0199966-13.3300018-0.0100021-20-0.0299988
		c-0.3899994,0-1.0099945,0.3300018-1.1199951-0.4700012c-0.1300049-0.8600006,0.2299957-1.0599976,1.0500031-1.0599976
		c6.7100067,0.0299988,13.4100037,0,20.1199951,0.0400009C172.5012512,115.3199997,172.9412537,115.1600037,172.9912415,114.3499985
		z"></path>
	<path d="M180.1412506,125.3300018c-2.0800018,0-4.1600037,0.0100021-6.2299957,0
		c-0.4799957,0-1.0099945,0.1800003-1.1000061-0.6699982c-0.0599976-0.5899963-0.7299957-0.3099976-1.1100006-0.3199997
		c-6.7100067-0.0199966-13.4299927-0.0199966-20.1399994,0c-0.6300049,0-1.0299988-0.0100021-1.0299988-0.8600006
		c0-0.9199982,0.5500031-0.7799988,1.1000061-0.7799988c6.6300049,0,13.2700043,0.0100021,19.8999939-0.0100021
		c0.5500031,0,1.3099976,0.3399963,1.3999939-0.75c0.0299988-0.4300003,0.6100006-0.2300034,0.9400024-0.2399979
		c2.3099976-0.0800018,4.6300049,0.1200027,6.9400024-0.1100006
		C180.7212524,122.8499985,180.6812439,124.1299973,180.1412506,125.3300018z"></path>
	<path d="M179.2012482,132.75c-1.8000031,0-3.6000061,0-5.3899994-0.0099945
		c-0.3000031,0-0.8200073,0.1600037-0.8500061-0.1799927c-0.1100006-1.1999969-0.9799957-0.8099976-1.6000061-0.8099976
		c-6.5899963-0.0200043-13.1800079-0.0200043-19.7700043-0.0099945c-0.5899963,0-1.0599976,0.0700073-1.0599976-0.8200073
		c0-0.8999939,0.4900055-0.8200073,1.0700073-0.8200073c4.4299927,0.0099945,8.8699951,0,13.3000031,0
		c2.3200073,0,4.6300049,0.0099945,6.9499969-0.0099945c0.4400024,0,0.9700012,0.1900024,1.0599976-0.5899963
		c0.0599976-0.5099945,0.5700073-0.3200073,0.8899994-0.3200073c1.9600067-0.0200043,3.9100037-0.0200043,5.8699951-0.0200043
		C179.6312408,130.3800049,179.5712433,131.5800018,179.2012482,132.75z"></path>
	<path d="M178.6612549,140.1999969c-1.8899994-0.0099945-3.7799988-0.0099945-5.6699982-0.0200043
		c-0.0700073-0.7700043-0.4499969-0.9799957-1.2400055-0.9799957c-6.7100067,0.0399933-13.4199982,0.0200043-20.1300049,0.0200043
		c-0.5399933,0-1.1199951,0.1699982-1.0899963-0.7700043c0.0200043-0.6999969,0.25-0.8800049,0.9100037-0.8600006
		c2.0399933,0.0399933,4.0700073,0.0099945,6.1100006,0.0099945c4.7100067,0,9.4199982,0.0099945,14.1399994-0.0099945
		c0.4900055,0,1.1600037,0.2700043,1.2100067-0.6799927c0.0299988-0.5200043,0.5599976-0.3200073,0.8800049-0.3200073
		c1.7200012-0.0200043,3.4299927-0.0200043,5.1499939-0.0200043
		C178.8412476,137.7799988,178.7512512,138.9900055,178.6612549,140.1999969z"></path>
	<path d="M172.9412537,165.8300018c1.5-0.0099945,3-0.0200043,4.5-0.0299988
		c0.0200043,2.3200073,0.0399933,4.6399994,0.0599976,6.9600067c-0.0200043-0.7599945-0.1100006-1.5200043-0.0299988-2.2700043
		c0.1000061-0.9600067-0.3099976-1.1699982-1.1499939-1.0899963c-0.6300049,0.0599976-1.2799988,0.0500031-1.9100037,0
		c-0.6199951-0.0500031-1.4400024,0.3999939-1.6799927-0.75c-0.0700073-0.3500061-0.7200012-0.1499939-1.1000061-0.1600037
		c-6.6699982-0.0099945-13.3399963-0.0099945-20.0099945-0.0099945c-0.5500031,0-1.1199951,0.1600037-1.0899963-0.7799988
		c0.0299988-0.6900024,0.2400055-0.8800049,0.8999939-0.8699951c2.1199951,0.0399933,4.2299957,0.0099945,6.3500061,0.0099945
		c4.6300049,0,9.2599945-0.0200043,13.8999939,0.0200043C172.5012512,166.8899994,172.9612427,166.7200012,172.9412537,165.8300018z
		"></path>
	<path d="M177.2412415,176.9199982c-1.1199951,0-2.2400055,0-3.3600006-0.0099945
		c-0.5,0-1,0.1499939-1.0899963-0.6900024c-0.0599976-0.5899963-0.7299957-0.3099976-1.1199951-0.3099976
		c-6.6699982-0.0200043-13.3399963-0.0099945-20.0099945-0.0200043c-0.4400024,0-1.0599976,0.2799988-1.1199951-0.6199951
		c-0.0599976-0.9199982,0.3500061-1.0200043,1.1199951-1.0099945c6.5899963,0.0200043,13.1800079,0.0200043,19.7700043,0
		c0.5800018,0,1.4299927,0.3999939,1.4900055-0.7799988c0.0200043-0.3399963,0.4600067-0.2100067,0.7200012-0.2200012
		c1.1999969-0.0099945,2.3999939-0.0099945,3.6000061-0.0099945
		C177.2512512,174.4700012,177.2412415,175.6900024,177.2412415,176.9199982z"></path>
	<path d="M45.3112488,114.4499969c1.9700012,0,3.9399986,0,5.9099998,0.0100021
		c0.4399986,0,0.8600006-0.0100021,1.2599983-0.1999969c0.1500015,0.9100037,0.7000008,1.0599976,1.5699997,1.0599976
		c6.6399994-0.0500031,13.2699966-0.0299988,19.909996-0.0199966c0.5400009,0,1.1399994-0.1500015,1.0800018,0.7900009
		c-0.0400009,0.5899963-0.2200012,0.7799988-0.7799988,0.7399979c-0.4000015-0.0299988-0.8000031,0-1.1999969,0
		c-6.3600006,0-12.7099991,0-19.0699997,0.0100021c-0.5600014,0-1.3199997-0.3300018-1.3600006,0.7699966
		c-0.0099983,0.3499985-0.5400009,0.2200012-0.8300018,0.2200012c-2,0.0199966-4,0.0100021-6,0.0199966
		C45.7112465,116.7099991,45.2712479,115.6100006,45.3112488,114.4499969z"></path>
	<path d="M46.5612488,121.5800018c1.75,0.2200012,3.5099983,0.0400009,5.2600021,0.0999985
		c0.4199982,0.0100021,0.8800011-0.1299973,0.9099998,0.5899963c0.0299988,0.7200012,0.6800003,0.4000015,1.0400009,0.4000015
		c6.5499992,0.0199966,13.1000023,0.0199966,19.6499977,0.0199966c0.2399979,0,0.4800034,0.0199966,0.7200012,0
		c0.6500015-0.0699997,0.9000015,0.1299973,0.9100037,0.8499985c0.0100021,0.8000031-0.4000015,0.7900009-0.9700012,0.7900009
		c-6.6299973-0.0100021-13.2600021-0.0199966-19.8899994,0.0100021c-0.5699997,0-1.5299988-0.5100021-1.5499992,0.8000031
		c-0.0099983,0.2799988-0.5600014,0.1800003-0.8699989,0.1800003c-1.5200005,0.0100021-3.0400009,0-4.5499992,0
		C46.861248,124.0999985,46.5512466,122.8700027,46.5612488,121.5800018z"></path>
	<path d="M47.6912498,129.1699982c1.4000015,0,2.7900009,0,4.1899986,0.0200043
		c0.3800011,0,0.7799988-0.0899963,0.8499985,0.5399933c0.0699997,0.6900024,0.7000008,0.3600006,1.0600014,0.3600006
		c6.7099991,0.0200043,13.420002,0.0099945,20.1199989,0.0200043c0.5100021,0,1.0999985-0.2299957,1.1299973,0.7400055
		c0.0299988,0.9600067-0.4800034,0.8899994-1.1200027,0.8899994c-6.7099991-0.0099945-13.4199982-0.0099945-20.1200027,0
		c-0.5099983,0-1.1500015-0.2400055-1.1500015,0.7200012c0,0.4400024-0.5,0.2799988-0.7900009,0.2799988
		C50.6212349,132.7600098,49.381237,132.75,48.1512375,132.75
		C47.7912483,131.5800018,47.7312469,130.3800049,47.6912498,129.1699982z"></path>
	<path d="M52.611248,140.1699982c-1.2999992,0.0099945-2.6100006,0.0200043-3.9099998,0.0299988
		c-0.0900002-1.2100067-0.1800003-2.4199982-0.2700005-3.6300049c1.0800018,0,2.1599998,0,3.2400017,0.0099945
		c0.4900017,0.0099945,1.0099983-0.1699982,1.0900002,0.6799927c0.0600014,0.5899963,0.7200012,0.3200073,1.0999985,0.3200073
		c6.6800003,0.0200043,13.3500023,0.0099945,20.0300026,0.0299988c0.4199982,0,1.0800018-0.3500061,1.1500015,0.5800018
		c0.0699997,0.8800049-0.2600021,1.0500031-1.0800018,1.0399933c-6.7099991-0.0299988-13.4300003,0-20.1500015-0.0399933
		C53.0412483,139.1999969,52.6012497,139.3399963,52.611248,140.1699982z"></path>
	<path d="M52.7112465,243.3399963c-1.25,0.0200043-2.4900017,0.0399933-3.7400017,0.0500031
		c0.2799988-1.1900024,0.0800018-2.3999939,0.1800003-3.5899963c0.7999992,0.0099945,1.5999985-0.0099945,2.3899994,0.0399933
		c0.4900017,0.0299988,1.1199989-0.2799988,1.2299995,0.6699982c0.0499992,0.4700012,0.6800003,0.2299957,1.0400009,0.2299957
		c6.7099991,0.0099945,13.4099998,0.0099945,20.1199989,0.0099945c0.5199966,0,1.0999985-0.1900024,1.1200027,0.7599945
		c0.0199966,0.9799957-0.5199966,0.8699951-1.1299973,0.8699951c-6.75,0-13.4899979,0.0099945-20.2399979-0.0200043
		C52.9212494,242.3600006,52.5612488,242.5399933,52.7112465,243.3399963z"></path>
	<path d="M49.4012489,232.3200073c0.7599983,0,1.5200005,0,2.2799988,0.0099945
		c0.4900017,0.0099945,1.0299988-0.1699982,1.0800018,0.6900024c0.0299988,0.5700073,0.6500015,0.3099976,0.9900017,0.3099976
		c5.3100014,0.0200043,10.6200027,0.0099945,15.9300003,0.0099945c1.4800034,0,2.9499969,0.0200043,4.4300003-0.0099945
		c0.6100006-0.0099945,0.9400024,0.0800018,0.9400024,0.8300018c0,0.7599945-0.3399963,0.8200073-0.9400024,0.8200073
		c-6.6699982-0.0099945-13.3400002-0.0200043-20,0.0099945c-0.5499992,0-1.4399986-0.4499969-1.4500008,0.7799988
		c0,0.2899933-0.4700012,0.1999969-0.7299995,0.2100067c-0.9199982,0.0099945-1.8400002,0-2.75,0
		C49.4112473,234.7700043,49.3312492,233.5399933,49.4012489,232.3200073z"></path>
	<path d="M49.611248,224.9299927c0.7200012,0,1.4399986-0.0099945,2.1599998-0.0099945
		c0.4799995,0,0.9199982-0.0899963,0.9799995,0.6699982c0.0499992,0.6499939,0.7099991,0.3500061,1.0800018,0.3500061
		c6.670002,0.0200043,13.3500023,0.0099945,20.0200005,0.0299988c0.3899994,0,1.0199966-0.3300018,1.1600037,0.4199982
		c0.1399994,0.7899933-0.1200027,1.1100006-1,1.1000061c-6.6699982-0.0399933-13.3499985-0.0200043-20.0200005-0.0099945
		c-0.5600014,0-1.3400002-0.3200073-1.3400002,0.7799988c0,0.3099976-0.4599991,0.2100067-0.7200012,0.2200012
		c-0.8400002,0.0099945-1.6800003,0.0099945-2.5200005,0.0099945
		C49.3212471,227.3000031,49.3212471,226.1100006,49.611248,224.9299927z"></path>
	<path d="M52.7012482,217.4299927c-0.1599998,0.8800049,0.2599983,1.0299988,1.0600014,1.0200043
		c6.7000008-0.0299988,13.4099998-0.0200043,20.1099968,0c0.4199982,0,1.0800018-0.3399963,1.1500015,0.5800018
		c0.0699997,0.8500061-0.2300034,1.0599976-1.0599976,1.0599976c-6.659996-0.0299988-13.3300018-0.0200043-19.9899979-0.0099945
		c-0.5499992,0-1.3400002-0.3300018-1.3300018,0.7799988c0,0.3099976-0.4599991,0.2100067-0.7200012,0.2200012
		c-0.7599983,0.0099945-1.5200005,0-2.2700005,0c-0.0600014-1.2400055-0.1100006-2.4700012,0.0299988-3.7100067
		c1.0099983,0.0200043,2.0200005,0.0399933,3.0299988,0.0599976H52.7012482z"></path>
	<path d="M52.7012482,191.7700043c-0.9300003,0.0200043-1.8499985,0.0299988-2.7799988,0.0500031
		c-0.0299988-1.2200012-0.25-2.4600067,0.1399994-3.6600037c0.5999985,0,1.2000008,0.0099945,1.7999992,0.0099945
		c0.4500008,0,0.8300018-0.0599976,0.8800011,0.6300049c0.0499992,0.6699982,0.7000008,0.3600006,1.0600014,0.3600006
		c6.7099991,0.0200043,13.420002,0.0099945,20.1300011,0.0200043c0.5199966,0,1.0999985-0.1999969,1.1200027,0.7599945
		c0.0299988,0.9799957-0.5100021,0.8800049-1.1200027,0.8800049c-6.75,0-13.5,0.0099945-20.25-0.0200043
		C52.9112473,190.7899933,52.5612488,190.9799957,52.7012482,191.7700043z"></path>
	<path d="M49.9212494,165.8099976c0.9099998,0.0099945,1.8199997,0.0200043,2.7299995,0.0299988
		c-0.0299988,0.7799988,0.2599983,1.0500031,1.1100006,1.0399933c6.7000008-0.0399933,13.4099998-0.0299988,20.1199989-0.0099945
		c0.4199982,0,1.1100006-0.3500061,1.1500015,0.5700073c0.0400009,0.6900024-0.0299988,1.0800018-0.9199982,1.0700073
		c-3.8300018-0.0500031-7.6600037-0.0200043-11.4899979-0.0200043c-2.9500008,0-5.9099998,0-8.8600006,0
		c-0.4700012,0-1.0600014-0.2100067-1.0900002,0.6499939c-0.0099983,0.3600006-0.4399986,0.25-0.7000008,0.2599945
		c-0.6399994,0.0200043-1.2799988,0.0200043-1.9199982,0.0200043
		C49.6612473,168.2400055,49.8912468,167.0200043,49.9212494,165.8099976z"></path>
	<path d="M50.0712471,173.25c0.5999985,0,1.2000008,0.0099945,1.7999992,0
		c0.4500008,0,0.8199997-0.0399933,0.8699989,0.6399994C52.7912445,174.5599976,53.441246,174.25,53.8012466,174.25
		c6.7099991,0.0200043,13.4199982,0.0099945,20.1200027,0.0200043c0.5199966,0,1.0999985-0.2100067,1.1200027,0.75
		c0.0299988,0.9700012-0.5100021,0.8800049-1.1200027,0.8800049c-6.7099991-0.0099945-13.4199982-0.0099945-20.1200027,0
		c-0.5099983,0-1.1599998-0.2299957-1.1399994,0.7200012c0.0099983,0.3800049-0.4199982,0.2700043-0.6800003,0.2799988
		c-0.6399994,0.0200043-1.2799988,0.0099945-1.9199982,0.0099945C49.7212486,175.6900024,49.7312469,174.4700012,50.0712471,173.25z
		"></path>
	<path d="M50.0512466,180.7299957C50.6512451,180.7399902,51.2512474,180.75,51.8512459,180.75
		c0.4399986,0,0.8499985-0.0700073,0.8899994,0.6300049c0.0499992,0.6799927,0.6800003,0.3899994,1.0600014,0.3899994
		c6.5900002,0.0200043,13.1800003,0.0099945,19.7799988,0.0099945c0.2799988,0,0.5599976,0.0200043,0.8399963,0
		c0.5800018-0.0399933,0.6299973,0.3000031,0.6200027,0.7599945c-0.0100021,0.4400024-0.0100021,0.8099976-0.6100006,0.7700043
		c-0.3199997-0.0200043-0.6399994,0-0.9599991,0c-6.5100021,0-13.0200005-0.0099945-19.5400009,0.0099945
		c-0.5099983,0-1.2599983-0.3200073-1.2599983,0.7200012c0,0.3699951-0.4300003,0.2599945-0.6800003,0.2700043
		c-0.6399994,0.0200043-1.2799988,0.0099945-1.9199982,0.0200043
		C49.7312469,183.1300049,49.7412491,181.9299927,50.0512466,180.7299957z"></path>
</g>
<g onclick="select(this)" class="has-opacity" id="estampa-terciaria" fill="#000000" opacity="0.3">
	<path d="M184.8712463,46.7799988c-3.3200073,0-6.6399994-0.0099983-9.9600067,0.0099983
		c-0.4199982,0-0.9299927-0.2299995-1.1000061,0.5400009c-0.0899963,0.4099998-0.7100067,0.2200012-1.0899963,0.2200012
		c-6.6000061,0.0099983-13.1999969,0-19.8000031,0.0299988c-0.5899963,0-1.4900055-0.4700012-1.6399994,0.7599983
		c-0.0299988,0.2799988-0.6499939,0.1399994-1,0.1399994c-5.1999969,0.0099983-10.3999939,0.0099983-15.6000061,0.0099983
		c-19.3600006,0-38.7099991,0-58.0699997-0.0099983c-0.6100006,0-1.4599991,0.4199982-1.6699982-0.7599983
		c-0.0599976-0.3199997-0.7300034-0.1500015-1.1100006-0.1500015c-6.6399994-0.0099983-13.2799988,0-19.9199982-0.0200005
		c-0.5499992,0-1.2900009,0.3600006-1.5299988-0.6399994c-0.0600014-0.2700005-0.6599998-0.1199989-1.0099983-0.1199989
		c-6.3199997-0.0099983-12.6399994,0-18.9599991-0.0099983c-0.3499985,0-0.7599964,0.0400009-1.0499973-0.1100006
		c-0.3400002-0.1800003-0.3299999-0.6500015-0.25-0.9799995c0.1199989-0.5099983,0.5900002-0.2900009,0.9099979-0.2900009
		c6.2799988-0.0099983,12.5600014,0,18.8400002-0.0299988c0.6300011,0,1.5299988,0.4700012,1.7799988-0.7400017
		c0.0699997-0.3199997,0.7299995-0.1599998,1.1199989-0.1599998c6.6800003-0.0099983,13.3599968,0,20.0400047-0.0099983
		c0.5299988,0,1.2300034,0.2599983,1.3600006-0.6699982c0.0299988-0.2099991,0.3300018-0.1899986,0.5199966-0.1899986
		c0.3199997-0.0099983,0.6399994,0,0.9599991,0c24.3499985,0,48.7099991,0,73.0599976,0.0200005
		c0.6399994,0,1.5200043-0.4399986,1.8099976,0.7299995c0.0700073,0.2700005,0.6600037,0.1199989,1.0099945,0.1199989
		c6.7200012,0.0099983,13.4400024,0,20.1600037,0.0099983c0.5,0,1.1100006-0.2299995,1.25,0.6699982
		c0.0700073,0.4799995,0.6900024,0.2299995,1.0500031,0.2299995c6.7200012,0.0099983,13.4400024,0.0200005,20.1600037,0
		c0.7899933,0,1.2700043,0.0900002,0.9199982,1.0400009c-0.1999969,0.5499992-0.6600037,0.3600006-1.0099945,0.3600006
		C191.6612549,46.7900009,188.2612457,46.7799988,184.8712463,46.7799988z"></path>
	<path d="M113.3212509,54.9000015c-12.2399979,0-24.4800034,0-36.7200012-0.0099983
		c-0.5899963,0-1.3600006,0.3699989-1.6500015-0.6699982c-0.0999985-0.3499985-0.7300034-0.1500015-1.1100006-0.1500015
		c-6.6800003-0.0099983-13.3600006,0-20.0400009-0.0200005c-0.5099983,0-1.2000008,0.3300018-1.3800011-0.6599998
		c-0.0699997-0.3800011-0.7099991-0.1899986-1.0999985-0.1899986c-5.9599991-0.0099983-11.920002-0.0099983-17.8800011-0.0099983
		c-0.3199997,0-0.6399994,0.0099983-0.9599991-0.0400009c-0.5099964-0.0800018-0.4099998-0.5099983-0.4300003-0.8499985
		c-0.0499992-0.7200012,0.5099983-0.4799995,0.8400002-0.4799995c6.1199989-0.0099983,12.2400017,0,18.3600006-0.0200005
		c0.5200005,0,1.2099991,0.3100014,1.3400002-0.6899986c0.0600014-0.4199982,0.7000008-0.2099991,1.0699997-0.2099991
		c6.6399994-0.0099983,13.2799988,0,19.9199982-0.0200005c0.5899963,0,1.3199997,0.3300018,1.6600037-0.6300011
		c0.1100006-0.3199997,0.7399979-0.1300011,1.1299973-0.1300011c7.2799988-0.0099983,14.5599976-0.0099983,21.8399963-0.0099983
		c17.2799988,0,34.5599976,0,51.8300018,0.0099983c0.5099945,0,1.1900024-0.3499985,1.4400024,0.5900002
		c0.0899963,0.3600006,0.7299957,0.1699982,1.1100006,0.1699982c6.6399994,0.0099983,13.2799988,0,19.9199982,0.0200005
		c0.5500031,0,1.2799988-0.3499985,1.4600067,0.7000008c0.0700073,0.4199982,0.6999969,0.2000008,1.0800018,0.2099991
		c6.3600006,0.0099983,12.7200012,0.0099983,19.0800018,0.0099983c0.3200073,0,0.6399994,0,0.9600067,0
		c0.4299927,0.0099983,0.7100067,0.1899986,0.6600037,0.6500015c-0.0399933,0.3800011-0.2100067,0.7000008-0.6600037,0.7099991
		c-0.3200073,0.0099983-0.6399994,0.0099983-0.9600067,0.0099983c-6.3200073,0-12.6399994-0.0099983-18.9600067,0.0099983
		c-0.5200043,0-1.1900024-0.2999992-1.3899994,0.6500015c-0.0800018,0.4000015-0.7100067,0.2000008-1.0899963,0.2000008
		c-6.6399994,0.0099983-13.2799988,0-19.9199982,0.0200005c-0.5500031,0-1.2799988-0.3400002-1.5200043,0.6599998
		c-0.0800018,0.3499985-0.7200012,0.1599998-1.1100006,0.1599998
		C137.8812408,54.9000015,125.6012497,54.9000015,113.3212509,54.9000015z"></path>
	<path d="M184.3812408,59.5400009c-3.1199951,0-6.2400055-0.0099983-9.3600006,0.0099983
		c-0.5,0-1.1000061-0.2299995-1.2200012,0.6800003c-0.0599976,0.4399986-0.6900024,0.2299995-1.0599976,0.2299995
		c-6.6799927,0.0099983-13.3600006,0-20.0299988,0.0200005c-0.5,0-1.2200012-0.3800011-1.4199982,0.6100006
		c-0.0599976,0.2999992-0.6499939,0.1500015-1,0.1500015C146.3712463,61.25,142.4512482,61.25,138.53125,61.25
		c-20.6699982,0-41.3499985,0-62.0200043-0.0099983c-0.5500031,0-1.2900009,0.3699989-1.5400009-0.6399994
		c-0.0599976-0.2599983-0.6600037-0.1199989-1.0199966-0.1199989c-6.7600021-0.0099983-13.5200005,0-20.2700005-0.0099983
		c-0.5,0-1.1100006,0.2400017-1.2400017-0.6699982c-0.0699997-0.4799995-0.6899986-0.2400017-1.0499992-0.2400017
		c-5.920002-0.0200005-11.8400002-0.0099983-17.75-0.0200005c-0.3600006,0-0.8499985,0.2299995-1.0699997-0.2400017
		c-0.1300011-0.2700005-0.2000008-0.6599998-0.0900002-0.9099998c0.1699982-0.4000015,0.6399994-0.2200012,0.9700012-0.2200012
		c5.9199982-0.0099983,11.8400002,0,17.75-0.0200005c0.5299988,0,1.1699982,0.2599983,1.4500008-0.5999985
		c0.1100006-0.3499985,0.7299995-0.1500015,1.1199989-0.1500015c6.5999985-0.0099983,13.1999969,0,19.7900009-0.0200005
		c0.5999985,0,1.5199966,0.4500008,1.6299973-0.75c0.0100021-0.0699997,0.3399963-0.1399994,0.5299988-0.1599998
		c0.3199997-0.0299988,0.6399994-0.0099983,0.9599991-0.0099983c24.3499985,0,48.6999969,0,73.0599976,0.0200005
		c0.6199951,0,1.5500031-0.5,1.7599945,0.7599983c0.0500031,0.3100014,0.7299957,0.1399994,1.1199951,0.1399994
		c6.6799927,0.0099983,13.3600006,0,20.0299988,0.0200005c0.4900055,0,1.1100006-0.2799988,1.3300018,0.5999985
		c0.0899963,0.3400002,0.7299957,0.1599998,1.1199951,0.1599998c6.1999969,0.0099983,12.3999939,0,18.5899963,0.0099983
		c0.3600006,0,0.7400055-0.0299988,1.0599976,0.0800018c0.3699951,0.1300011,0.2400055,0.5499992,0.2400055,0.8499985
		c0,0.5800018-0.4499969,0.4500008-0.7799988,0.4500008C190.9412537,59.5400009,187.6612549,59.5400009,184.3812408,59.5400009z"></path>
	<path d="M41.1912498,98.6600037C40.8812485,98.25,40.78125,97.7600021,40.7312508,97.2600021
		C44.2512512,97.25,47.7712517,97.25,51.2912521,97.2200012c0.4900017,0,1.0900002,0.2799988,1.3300018-0.5800018
		c0.0999985-0.3700027,0.7200012-0.1800003,1.1100006-0.1800003c6.6399994-0.0100021,13.2799988,0,19.9199982-0.0199966
		c0.5699997,0,1.4400024,0.4100037,1.5199966-0.7300034c0.0100021-0.0699997,0.3399963-0.1500015,0.5299988-0.1699982
		c0.3199997-0.0299988,0.6399994-0.0100021,0.9599991-0.0100021c24.4000015,0,48.7999954,0,73.2000046,0.0199966
		c0.6000061,0,1.4700012-0.4499969,1.6499939,0.7600021c0.0399933,0.3000031,0.7299957,0.1500015,1.1199951,0.1500015
		c6.6799927,0.0100021,13.3600006,0,20.0400085,0.0199966c0.4900055,0,1.1199951-0.2900009,1.3200073,0.5999985
		c0.0700073,0.3099976,0.6499939,0.1500015,1,0.1500015c3.8800049,0.0100021,7.7599945,0.0100021,11.6399994,0.0199966
		c-0.0200043,0.5100021-0.1399994,0.9899979-0.4499969,1.4100037c-3.8399963-0.0100021-7.6799927-0.0199966-11.5200043-0.0199966
		c-0.2599945,0-0.6799927-0.1200027-0.7100067,0.2200012c-0.0800018,1.0100021-0.8099976,0.6900024-1.3300018,0.6900024
		c-6.6799927,0.0199966-13.3600006,0.0100021-20.0299988,0.0199966c-0.3899994,0-1.0599976-0.1600037-1.1100006,0.1699982
		c-0.1499939,1.1800003-0.9900055,0.7300034-1.5500031,0.7300034c-22.7100067,0.0199966-45.4300003,0.0199966-68.1399994,0.0199966
		c-1.8799973,0-3.7600021,0.0100021-5.6399994-0.0100021c-0.3399963,0-0.9100037,0.1500015-0.9599991-0.2300034
		c-0.1399994-1-0.8399963-0.6699982-1.3499985-0.6699982c-6.5199966-0.0199966-13.0400009,0.0100021-19.5499992-0.0400009
		c-0.6500015,0-1.7000008,0.5800018-1.8499985-0.7900009c-0.0099983-0.0599976-0.4399986-0.1100006-0.6699982-0.1100006
		C48.2312469,98.6399994,44.7112465,98.6500015,41.1912498,98.6600037z"></path>
	<path d="M189.28125,91.1900024c-0.3500061,0.2399979-0.4400024,0.6299973-0.5399933,1.0100021
		c-4.5599976,0.0100021-9.1199951,0.0199966-13.6699982,0.0500031c-0.4900055,0-1.1199951-0.2699966-1.25,0.6600037
		c-0.0700073,0.4499969-0.6900024,0.2399979-1.0599976,0.2399979c-6.6000061,0.0100021-13.1999969,0-19.7899933,0.0299988
		c-0.6100006,0-1.4799957-0.4199982-1.7299957,0.6999969c-0.0299988,0.1200027-0.7400055,0.1200027-1.1300049,0.1200027
		c-9.5599976,0.0100021-19.1100006,0-28.6699982,0c-14.9199982,0-29.8300018,0-44.75-0.0199966
		c-0.6200027,0-1.4899979,0.4000015-1.7399979-0.7099991c-0.0299988-0.1100006-0.6600037-0.1100006-1.0100021-0.1100006
		c-6.7200012-0.0100021-13.4399986,0-20.1500015-0.0100021c-0.5299988,0-1.2000008,0.2600021-1.3499985-0.6900024
		c-0.0600014-0.4000015-0.6300011-0.2099991-0.9599991-0.2099991c-3.7599983-0.0100021-7.5200005-0.0100021-11.2799988-0.0100021
		c-0.2799988,0-0.5600014,0.0199966-0.8400002-0.0299988c-0.5099983-0.0899963-0.5699997-0.5599976-0.5699997-0.9400024
		c0.0099983-0.5699997,0.5200005-0.3499985,0.8199997-0.3499985c3.8400002-0.0199966,7.6800003,0,11.5200005-0.0299988
		c0.5499992,0,1.2799988,0.3499985,1.5099983-0.6600037c0.0800018-0.3399963,0.7299995-0.1699982,1.1100006-0.1699982
		c6.5999985-0.0100021,13.2000008,0,19.7900047-0.0199966c0.6100006,0,1.5100021,0.4400024,1.6600037-0.7399979
		c0.0100021-0.0699997,0.3499985-0.1200027,0.5500031-0.1399994c0.2799988-0.0199966,0.5599976-0.0100021,0.8399963-0.0100021
		c24.4700012,0,48.9400024,0,73.4199982,0.0199966c0.5200043,0,1.3099976-0.4300003,1.4499969,0.6900024
		c0.0500031,0.3700027,0.7100067,0.1900024,1.0899963,0.1900024c6.6799927,0.0100021,13.3600006,0,20.0299988,0.0199966
		c0.5299988,0,1.1799927-0.2799988,1.4100037,0.6399994c0.1000061,0.3899994,0.7200012,0.1800003,1.0899963,0.1800003
		c4.7200012,0.0299988,9.4400024,0.0400009,14.1499939,0.0500031c0.0099945,0.0899963,0.0200043,0.1699982,0.0299988,0.2600021
		L189.28125,91.1900024z"></path>
	<path d="M33.8012466,40.2900009c1.4700012-0.75,2.9599991-1.4300003,4.6899986-1.4099998
		c4.2799988,0.0400009,8.5600014,0.0200005,12.8400002,0.0099983c0.4900017,0,1.0800018,0.2400017,1.3199997-0.5900002
		c0.1100006-0.3699989,0.7299995-0.1699982,1.1100006-0.1699982c6.5999985-0.0099983,13.1999969,0,19.7900009-0.0200005
		c0.5999985,0,1.4800034,0.4500008,1.6600037-0.7400017c0.0400009-0.2799988,0.5699997-0.1500015,0.8799973-0.1599998
		c1.9599991-0.0099983,3.9199982,0,5.8799973,0c22.6299973,0,45.2600021,0,67.9000015,0.0200005
		c0.5800018,0,1.4700012-0.4799995,1.6499939,0.7400017c0.0500031,0.3100014,0.7299957,0.1500015,1.1100006,0.1500015
		c6.5200043,0.0099983,13.0399933-0.0099983,19.5500031,0.0200005c0.6499939,0,1.5299988-0.4399986,1.8800049,0.6599998
		c0.0399933,0.1199989,0.5899963,0.0900002,0.8999939,0.0900002c3.6799927,0.0099983,7.3600006,0.0699997,11.0399933-0.0200005
		c2.1699982-0.0600014,4.1100006,0.7099991,6.1100006,1.4199982c-3.6799927,0-7.3699951,0-11.0500031,0
		c-1.8800049,0-3.7599945-0.0299988-5.6399994,0.0200005c-0.6100006,0.0099983-1.4499969-0.4199982-1.6600037,0.7400017
		c-0.0599976,0.3199997-0.7299957,0.1699982-1.1100006,0.1699982c-6.6000061,0.0099983-13.1999969,0-19.7900085,0.0200005
		c-0.5800018,0-1.3699951-0.3699989-1.5800018,0.7000008c-0.0599976,0.2900009-0.5800018,0.1500015-0.8800049,0.1500015
		c-2.7599945,0.0099983-5.5200043,0.0099983-8.2799988,0.0099983c-21.8700027,0-43.7400055,0-65.6200027-0.0099983
		c-0.5400009,0-1.3000031,0.3699989-1.4899979-0.6800003c-0.0599976-0.3400002-0.7200012-0.1699982-1.1100006-0.1699982
		c-6.6399994-0.0099983-13.2799988,0-19.9099998-0.0200005c-0.5900002,0-1.3899994,0.3699989-1.5499992-0.75
		c-0.0400009-0.3100014-0.6399994-0.1500015-0.9900017-0.1500015
		C45.5512466,40.2900009,39.6812477,40.2900009,33.8012466,40.2900009z"></path>
	<path d="M48.1812477,267.2000122c0-0.4400024,0.0099983-0.8800049,0.0099983-1.3299866
		c1.1599998,0,2.3199997,0.0100098,3.4799995-0.0100098c0.2599983,0,0.6899986,0.1199951,0.75-0.1700134
		c0.1800003-0.9299927,0.8600006-0.6499939,1.4000015-0.6600037c6.6800003-0.0100098,13.3500023-0.0100098,20.0300026-0.0100098
		c0.3899994,0,1.0500031,0.1700134,1.1200027-0.1499939c0.2399979-1.0700073,1.0299988-0.7000122,1.6100006-0.7000122
		c24.4599991-0.019989,48.9300003-0.0100098,73.3899994-0.0100098c0.2799988,0,0.5599976,0,0.8399963,0
		c0.1999969,0,0.5099945,0.0100098,0.5200043,0.2000122c0.0700073,1.0400085,0.8500061,0.6499939,1.3399963,0.6499939
		c6.6399994,0.019989,13.2700043,0.0100098,19.9100037,0.019989c0.3899994,0,1.0299988-0.1700134,1.1300049,0.1300049
		c0.3600006,1.1099854,1.2100067,0.6499939,1.8600006,0.6900024c1.1999969,0.0599976,2.3999939,0.019989,3.6000061,0.019989
		c0,0.4400024,0.0099945,0.8800049,0.0099945,1.3299866c-1.4400024,0-2.8699951,0-4.3099976,0.0100098
		c-0.2700043,0-0.7599945-0.0100098-0.7899933,0.0899963c-0.4100037,1.4200134-1.5500031,0.7900085-2.3500061,0.7900085
		c-6.4199982,0.0499878-12.8399963,0.0299988-19.2599945,0.0299988c-0.5099945,0-1.2299957-0.230011-1.0800018,0.75
		c-0.3899994,0.2999878-0.8500061,0.1700134-1.2799988,0.1700134c-24.5899963,0.0100098-49.1800003,0.0100098-73.7699966,0
		c-0.4300003,0-0.8799973,0.1099854-1.2900009-0.1300049c0.2099991-0.9700012-0.5-0.7799988-1.0199966-0.7799988
		c-6.7699966-0.0100098-13.5499992,0-20.3199997-0.0100098c-0.3800011,0-1.0499992,0.1600037-1.0999985-0.1799927
		c-0.1500015-1.0700073-0.9000015-0.6900024-1.4399986-0.7200012
		C50.1812477,267.1600037,49.1812477,267.2000122,48.1812477,267.2000122z"></path>
	<path d="M48.9212494,248.0899963c0-0.5099945,0-1.0099945,0-1.5200043c0.9199982,0,1.8400002,0,2.7599983-0.0099945
		c0.2299995,0,0.6399994-0.0099945,0.6699982-0.1000061c0.3499985-1.0800018,1.2299995-0.6499939,1.8899994-0.6600037
		c6.5600014-0.0299988,13.1099968-0.0099945,19.670002-0.0299988c0.3700027,0,1.0199966,0.1999969,1.0800018-0.1799927
		c0.1900024-1.1300049,1-0.7299957,1.5699997-0.7299957c24.4700012-0.0200043,48.9300003-0.0200043,73.4000092-0.0200043
		c0.2799988,0,0.5599976,0,0.8399963,0c0.1900024,0.0099945,0.4900055-0.0200043,0.5,0.1999969
		c0.0700073,1.0700073,0.8800049,0.7100067,1.4199982,0.7100067c6.6399994,0.0200043,13.2700043,0.0099945,19.9100037,0.0200043
		c0.3800049,0,1-0.1999969,1.1100006,0.1600037c0.2799988,0.8800049,0.9199982,0.5800018,1.4499969,0.6000061
		c1.0800018,0.0399933,2.1600037,0.0200043,3.2400055,0.0200043c0,0.5099945,0,1.0099945,0,1.5200043
		c-1.2400055,0-2.4799957,0-3.7200012,0.0099945c-0.2700043,0-0.6999969-0.1100006-0.7599945,0.1699982
		c-0.1699982,0.8999939-0.8399963,0.5800018-1.3300018,0.5800018c-6.6799927,0.0200043-13.3500061,0.0099945-20.0299988,0.0200043
		c-0.3899994,0-1.0700073-0.1600037-1.1100006,0.1499939c-0.1699982,1.2200012-1.0599976,0.75-1.6499939,0.75
		c-24.4300003,0.0200043-48.8600006,0.0200043-73.2900009,0.0200043c-0.2799988,0-0.5599976,0.0200043-0.8399963-0.0099945
		c-0.1900024-0.0200043-0.5199966-0.0899963-0.5299988-0.1600037c-0.0800018-1.1300049-0.9400024-0.7400055-1.5199966-0.75
		c-6.6399994-0.0200043-13.2700005-0.0099945-19.9099998-0.0200043c-0.3899994,0-1,0.1999969-1.1199989-0.1600037
		c-0.2799988-0.8800049-0.9199982-0.5700073-1.4500008-0.6000061
		C50.4412498,248.0700073,49.6812477,248.0899963,48.9212494,248.0899963z"></path>
	<path d="M49.4112473,150.5700073c0-0.4299927,0-0.8600006,0-1.2799988
		c0.7599983-0.0099945,1.5200005-0.0099945,2.2799988-0.0299988c0.2599983-0.0099945,0.7099991,0.1199951,0.7400017-0.1900024
		c0.1100006-1.0599976,0.8800011-0.7200012,1.4300003-0.7200012c6.6800003-0.0200043,13.3599968-0.0099945,20.0399971-0.0200043
		c0.3799973,0,1.0299988,0.1999969,1.0899963-0.1699982c0.1699982-1.1300049,0.9800034-0.7400055,1.5599976-0.7400055
		c24.4799957-0.0200043,48.9499969-0.0099945,73.4300079-0.0099945c0.2799988,0,0.5599976,0,0.8399963,0
		c0.1900024,0.0099945,0.4900055-0.0200043,0.5,0.2100067c0.0399933,0.9799957,0.7700043,0.7100067,1.3000031,0.7100067
		c6.6799927,0.0099945,13.3600006,0,20.0399933,0.0099945c0.3899994,0,1.0599976-0.1699982,1.1100006,0.1600037
		c0.1999969,1.1999969,1.0700073,0.6799927,1.6699982,0.7400055c0.8300018,0.0800018,1.6799927,0.0399933,2.5200043,0.0500031
		c0,0.4299927,0,0.8600006,0,1.2799988c-0.7200012,0.0299988-1.4400024,0.0399933-2.1499939,0.0800018
		c-0.5899963,0.0299988-1.5099945-0.2700043-1.7100067,0.1300049c-0.4700012,0.9400024-1.1799927,0.6300049-1.8099976,0.6300049
		c-6.5599976,0.0200043-13.1100006,0.0099945-19.6699982,0.0200043c-0.3899994,0-1.0700073-0.1600037-1.1100006,0.1499939
		c-0.1799927,1.2200012-1.0599976,0.75-1.6499939,0.75c-24.3799973,0.0200043-48.7700043,0.0200043-73.1500015,0.0200043
		c-0.3199997,0-0.6399994,0.0200043-0.9599991-0.0099945c-0.1900024-0.0200043-0.5199966-0.0899963-0.5299988-0.1600037
		c-0.1299973-1.1999969-1.0500031-0.7299957-1.6500015-0.7400055c-6.5999985-0.0299988-13.1899986-0.0200043-19.7900009-0.0200043
		c-0.3899994,0-1,0.1999969-1.1199989-0.1600037c-0.2799988-0.8800049-0.9099998-0.5599976-1.4500008-0.6100006
		C50.611248,150.6000061,50.0112495,150.5899963,49.4112473,150.5700073z"></path>
	<path d="M49.8812485,208.2100067c0.0699997-0.5700073,0.4500008-0.5899963,0.9300003-0.6300049
		c0.6800003-0.0500031,1.5999985,0.4499969,1.8699989-0.7799988c0.0600014-0.2799988,0.6599998-0.1300049,1.0099983-0.1300049
		c6.7200012-0.0099945,13.4300003,0,20.1500015-0.0099945c0.5299988,0,1.1900024,0.2899933,1.3499985-0.6900024
		C75.2512436,205.5800018,75.891243,205.75,76.2712479,205.75c4.159996-0.0099945,8.3099976-0.0099945,12.4700012-0.0099945
		c20.4300003,0,40.8499985,0,61.2800064,0.0099945c0.5399933,0,1.3099976-0.3800049,1.4400024,0.7200012
		c0.0399933,0.3600006,0.7100067,0.1799927,1.0899963,0.1799927c6.6000061,0.0099945,13.1900024,0,19.7900085,0.0200043
		c0.6000061,0,1.3699951-0.3999939,1.6900024,0.75c0.1199951,0.4299927,1.3200073,0.0800018,2.0299988,0.1699982
		c0.5200043,0.0599976,1.2599945-0.3300018,1.4199982,0.6000061c-0.0099945,0.2400055-0.0299988,0.4799957-0.0399933,0.7100067
		c-0.5599976,0.0200043-1.1199951,0.0399933-1.6699982,0.0800018c-0.5899963,0.0399933-1.5200043-0.2700043-1.7100067,0.1399994
		c-0.4199982,0.9299927-1.1000061,0.6199951-1.6900024,0.6199951c-6.5899963,0.0200043-13.1900024,0.0099945-19.7799988,0.0200043
		c-0.3899994,0-1.0599976-0.1600037-1.1100006,0.1600037c-0.1499939,1.1499939-0.9600067,0.7400055-1.5299988,0.7400055
		c-22.6199951,0.0200043-45.2400055,0.0099945-67.8600006,0.0099945c-2,0-4,0-5.9899979,0
		c-0.3099976,0-0.8399963,0.1300049-0.8799973-0.1499939c-0.1800003-1.1699982-1.0299988-0.75-1.6399994-0.75
		c-6.6299973-0.0200043-13.2700005-0.0099945-19.9000015-0.0200043c-0.3699989,0-0.9700012,0.2100067-1.0800018-0.2200012
		c-0.1800003-0.75-0.6899986-0.5-1.1100006-0.5399933c-0.5200005-0.0500031-1.0299988-0.0500031-1.5499992-0.0800018
		C49.9112473,208.6900024,49.9012489,208.4499969,49.8812485,208.2100067z"></path>
	<path d="M44.611248,111.5500031c-0.0900002-0.4700012-0.1699982-0.9300003-0.2599983-1.4000015
		c2.4000015,0,4.7999992,0,7.2000008-0.0100021c0.2999992,0,0.8400002,0.1299973,0.8699989-0.1500015
		c0.1300011-1.1299973,0.9500008-0.75,1.5400009-0.75c6.6399994-0.0199966,13.2799988-0.0100021,19.9199982-0.0199966
		c0.3899994,0,1.0199966,0.1900024,1.1100006-0.1500015c0.25-0.9400024,0.9300003-0.5999985,1.4499969-0.5999985
		c10.840004-0.0199966,21.6800003-0.0100021,32.5100021-0.0100021c13.7200012,0,27.4400024,0,41.1499939,0.0100021
		c0.3899994,0,1.0399933-0.1800003,1.1300049,0.1200027c0.3200073,0.9899979,1.0599976,0.6299973,1.6499939,0.6399994
		c6.6000061,0.0199966,13.1999969,0.0100021,19.8000031,0.0299988c0.3899994,0,1.0399933-0.2600021,1.1399994,0.3000031
		c0.1300049,0.7399979,0.5800018,0.6100006,1.0299988,0.6200027c2.7200012,0,5.4400024,0,8.1600037,0
		c-0.0899963,0.4700012-0.1699982,0.9300003-0.2599945,1.4000015c-2.6000061,0-5.1999969-0.0100021-7.7899933,0
		c-0.3399963,0-0.8999939-0.1699982-0.9900055,0.1800003c-0.2100067,0.8799973-0.8600006,0.5699997-1.3399963,0.5800018
		c-6.6799927,0.0199966-13.3500061,0.0100021-20.0299988,0.0199966c-0.3899994,0-1.0700073-0.1600037-1.1100006,0.1500015
		c-0.1699982,1.2200012-1.0599976,0.75-1.6499939,0.75c-24.3799973,0.0199966-48.7700043,0.0199966-73.1500015,0.0199966
		c-0.3199997,0-0.6399994,0-0.9599991,0c-0.2399979-0.0100021-0.5699997,0.0100021-0.5800018-0.2699966
		c-0.0500031-0.9499969-0.75-0.6399994-1.2300034-0.6399994c-6.7200012-0.0100021-13.4300003-0.0100021-20.1500015-0.0100021
		c-0.3600006,0-0.9700012,0.0599976-1.0299988-0.0800018c-0.4599991-1.1399994-1.4099998-0.6399994-2.1399994-0.6600037
		C48.611248,111.5,46.611248,111.5500031,44.611248,111.5500031z"></path>
	<path d="M48.4412498,260.8500061c0-0.4599915,0-0.9200134,0-1.3900146c1.0800018,0,2.1599998,0,3.2400017-0.0100098
		c0.2700005,0,0.7299995,0.1099854,0.7599983-0.1499939c0.1199989-1.1300049,0.9500008-0.7600098,1.5400009-0.7600098
		c6.6399994-0.019989,13.2700005-0.0100098,19.9099998-0.019989c0.3799973,0,1.0100021,0.1900024,1.1100006-0.1700134
		c0.2300034-0.8599854,0.8499985-0.5899963,1.3399963-0.5899963c8.4799957-0.0100098,16.9499969-0.0100098,25.4300003-0.0100098
		c16.1100006,0,32.2300034,0,48.340004,0.0100098c0.3899994,0,1.0399933-0.1799927,1.1300049,0.1199951
		c0.3200073,0.980011,1.0599976,0.6400146,1.6399994,0.6400146c6.6000061,0.019989,13.1900024,0.0100098,19.7899933,0.019989
		c0.3800049,0,1.0500031-0.1600037,1.1000061,0.1900024c0.1499939,1.0499878,0.8800049,0.7099915,1.4299927,0.7200012
		c1.2400055,0.0299988,2.4799957,0.0100098,3.7200012,0.0100098c0,0.4599915,0,0.9200134,0,1.3900146
		c-1.3999939,0-2.8000031,0-4.1999969,0.0100098c-0.2700043,0-0.7200012-0.1099854-0.7599945,0.1600037
		c-0.1300049,1.1300049-0.9700012,0.7399902-1.5500031,0.75c-6.6000061,0.019989-13.1900024,0.0100098-19.7899933,0.019989
		c-0.3899994,0-1.0200043-0.1900024-1.1199951,0.1400146c-0.2899933,0.9500122-0.9900055,0.6099854-1.5299988,0.6099854
		c-21.5500031,0.0100098-43.0899963,0.0100098-64.6399994,0.0100098c-3.0400009,0-6.0800018,0-9.1100006-0.0100098
		c-0.3499985,0-0.9000015,0.1799927-1-0.1600037c-0.2699966-0.8699951-0.9199982-0.6000061-1.4499969-0.6000061
		c-6.6800003-0.0100098-13.3499985-0.0100098-20.0299988-0.0100098c-0.3899994,0-1.0499992,0.1600037-1.1100006-0.1799927
		c-0.1899986-1.1199951-0.9799995-0.6900024-1.5600014-0.7200012
		C50.2012482,260.8099976,49.3212471,260.8500061,48.4412498,260.8500061z"></path>
	<path d="M43.1012497,105.1200027c-0.1199989-0.2900009-0.2400017-0.5800018-0.3699989-0.8700027
		c0.0900002-0.6699982,0.6100006-0.5100021,1.0200005-0.5100021c2.5600014-0.0100021,5.1199989,0,7.6800003-0.0100021
		c0.3499985,0,0.9500008,0.1500015,1-0.1600037c0.1699982-1.0599976,0.9399986-0.6800003,1.4799995-0.6800003
		c6.6399994-0.0199966,13.2800026-0.0100021,19.9099998-0.0199966c0.3899994,0,1.0500031,0.1699982,1.1200027-0.1399994
		c0.2699966-1.1900024,1.1600037-0.75,1.8000031-0.75c21.0699997-0.0199966,42.1500015-0.0199966,63.2200012-0.0199966
		c3.4400024,0,6.8800049,0,10.3200073,0.0100021c0.3500061,0,0.9700012-0.1299973,1,0.1399994
		c0.1300049,1.1500015,0.9600067,0.75,1.5299988,0.75c6.6000061,0.0199966,13.1999969,0.0100021,19.7900085,0.0199966
		c0.4100037,0,1.1000061-0.2200012,1.1900024,0.2399979c0.1699982,0.8399963,0.7100067,0.6100006,1.1699982,0.6100006
		c2.8800049,0.0199966,5.7599945,0,8.6399994,0.0100021c0.4100037,0,0.9299927-0.1600037,1.0200043,0.5100021
		c-0.1199951,0.2900009-0.2400055,0.5800018-0.3699951,0.8700027c-3.1199951,0-6.2400055,0-9.3600006,0.0199966
		c-0.3099976,0-0.8699951,0.0100021-0.8999939,0.1200027c-0.25,1.0599976-1.0800018,0.6399994-1.6499939,0.6399994
		c-6.6000061,0.0299988-13.1900024,0.0199966-19.7900085,0.0299988c-0.3800049,0-1.0299988-0.1800003-1.0899963,0.1999969
		c-0.1499939,1.0699997-0.8999939,0.6999969-1.4400024,0.6999969c-24.5100021,0.0100021-49.0200043,0.0100021-73.5299988,0.0100021
		c-0.2799988,0-0.5599976,0.0199966-0.8399963-0.0100021c-0.1800003-0.0199966-0.5100021-0.1100006-0.5199966-0.1900024
		c-0.0699997-1.0999985-0.9000015-0.6999969-1.4400024-0.6999969c-6.6800003-0.0199966-13.3499985-0.0100021-20.0299988-0.0199966
		c-0.3800011,0-1,0.1900024-1.0900002-0.2200012c-0.1699982-0.7600021-0.6800003-0.5500031-1.0999985-0.5500031
		C48.7012482,105.1200027,45.9012489,105.1200027,43.1012497,105.1200027z"></path>
	<path d="M48.6812477,254.4299927c0-0.4499969,0-0.9100037,0-1.3600006c0.9599991,0,1.9199982,0,2.8800011-0.0200043
		c0.3100014-0.0099945,0.8300018,0.1199951,0.8699989-0.1799927c0.1399994-0.9799957,0.8499985-0.6699982,1.3699989-0.6699982
		c6.7099991-0.0200043,13.4300003-0.0099945,20.1399994-0.0200043c0.3499985,0,0.9300003,0.1600037,1.0100021-0.1300049
		c0.3000031-1.0899963,1.1299973-0.6900024,1.75-0.6900024c24.3799973-0.0200043,48.7599945-0.0200043,73.1399994-0.0200043
		c0.3200073,0,0.6399994-0.0099945,0.9600067,0c0.1900024,0.0099945,0.4799957-0.0399933,0.5099945,0.1900024
		c0.1300049,0.9700012,0.8699951,0.6300049,1.3899994,0.6300049c6.6300049,0.0200043,13.2700043,0.0099945,19.8999939,0.0200043
		c0.3899994,0,1.0299988-0.1799927,1.1199951,0.1399994c0.3200073,1.1499939,1.1900024,0.6699982,1.8399963,0.7100067
		c1.0299988,0.0700073,2.0800018,0.0299988,3.1199951,0.0299988c0,0.4499969,0,0.9100037,0,1.3600006
		c-1.3200073,0-2.6399994-0.0099945-3.9600067,0.0099945c-0.2599945,0-0.6999969-0.1300049-0.75,0.1699982
		c-0.1699982,0.9400024-0.8699951,0.6499939-1.3999939,0.6600037c-6.6799927,0.0099945-13.3500061,0.0099945-20.0299988,0.0099945
		c-0.3500061,0-0.9400024-0.1499939-1.0099945,0.1199951c-0.3300018,1.1900024-1.25,0.7200012-1.9299927,0.7200012
		c-23.7399979,0.019989-47.4900055,0.019989-71.2300034,0.019989c-0.8000031,0-1.5999985,0.0100098-2.4000015,0
		c-0.2699966,0-0.7099991,0.1099854-0.7699966-0.1600037c-0.2200012-1.0399933-1.0100021-0.6900024-1.5999985-0.6900024
		c-6.5999985-0.0200043-13.1899986-0.0099945-19.7900009-0.0200043c-0.4199982,0-1.0900002,0.2200012-1.2000008-0.2200012
		c-0.2299995-0.8699951-0.8199997-0.5899963-1.3100014-0.6000061
		C50.4412498,254.4100037,49.5612488,254.4299927,48.6812477,254.4299927z"></path>
	<path d="M49.6712494,215.2700043c0.0299988-0.4400024-0.1300011-0.8999939,0.1699982-1.3000031
		c0.6399994,0,1.2799988,0.0099945,1.9199982,0c0.2299995,0,0.6100006,0.0700073,0.6500015-0.1699982
		c0.1800003-1.0800018,0.9900017-0.7100067,1.5800018-0.7100067c6.6300011-0.0200043,13.2699966-0.0099945,19.9000015-0.0200043
		c0.3799973,0,0.9899979,0.2100067,1.0899963-0.1699982c0.2600021-0.9799957,0.9899979-0.6399994,1.5400009-0.6399994
		C97.3812485,212.2399902,118.2412491,212.25,139.1012421,212.25c3.7200012,0,7.4299927,0,11.1499939,0.0099945
		c0.3500061,0,0.9299927-0.1600037,1,0.1399994c0.25,1.0500031,1.0399933,0.6699982,1.6199951,0.6699982
		c6.5899963,0.0200043,13.1900024,0.0099945,19.7799988,0.0299988c0.3999939,0,1.0500031-0.25,1.1600037,0.2700043
		c0.1600037,0.7299957,0.6100006,0.6000061,1.0700073,0.6100006c0.8800049,0.0099945,1.7599945,0,2.6399994,0
		c0.3000031,0.3999939,0.1399994,0.8600006,0.1699982,1.3000031c-1,0.0200043-1.9900055,0.0399933-2.9900055,0.0700073
		c-0.2599945,0.0099945-0.6799927-0.1300049-0.7400055,0.1999969c-0.1399994,0.8800049-0.7899933,0.6199951-1.2899933,0.6300049
		c-6.7100067,0.0099945-13.4100037,0.0099945-20.1199951,0c-0.6900024,0-1.2799988,0-1.3000031,0.8899994
		c-0.1600037-0.0200043-0.3200073-0.0500031-0.4700012-0.0500031c-25.1900024,0-50.3800049,0.0099945-75.5699997,0.0099945
		c-0.0800018-0.7799988-0.5800018-0.8500061-1.2399979-0.8500061c-6.75,0.0200043-13.5,0.0099945-20.2399979,0.0099945
		c-0.3800011,0-1.0200005,0.1900024-1.0999985-0.1799927c-0.2099991-0.9499969-0.8800011-0.5899963-1.4000015-0.6499939
		C50.7112465,215.2899933,50.1912498,215.3000031,49.6712494,215.2700043z"></path>
	<path d="M49.6712494,156.9299927c0-0.4100037-0.0099983-0.8099976-0.0099983-1.2200012
		c0.6599998-0.2200012,1.3499985-0.0700073,2.0200005-0.1199951c0.2700005-0.0200043,0.7299995,0.0899963,0.7599983-0.1799927
		c0.1100006-1,0.8400002-0.6699982,1.3600006-0.6699982c6.670002-0.0200043,13.3500023-0.0099945,20.0200005-0.0200043
		c0.3899994,0,1.0299988,0.1799927,1.1200027-0.1399994c0.2900009-1.0099945,1.0400009-0.6799927,1.6399994-0.6900024
		c24.4599991-0.0099945,48.9199982-0.0099945,73.3800049-0.0099945c0.2799988,0,0.5599976-0.0099945,0.8399963,0
		c0.1900024,0.0099945,0.4799957-0.0399933,0.5099945,0.1900024c0.1000061,0.8899994,0.7700043,0.6399994,1.2700043,0.6399994
		c6.7100067,0.0099945,13.4299927,0,20.1399994,0.0099945c0.3800049,0,1.0099945-0.1900024,1.0800018,0.2200012
		c0.1699982,0.9100037,0.7899933,0.5899963,1.2700043,0.6300049c0.8699951,0.0800018,1.7599945-0.1199951,2.6199951,0.1199951
		c0,0.4100037-0.0099945,0.8099976-0.0099945,1.2200012c-1,0.0200043-2,0.0299988-2.9900055,0.0599976
		c-0.2599945,0.0099945-0.6999969-0.1199951-0.7299957,0.1999969c-0.1199951,1.0599976-0.8899994,0.7100067-1.4400024,0.7100067
		c-6.6300049,0.0200043-13.2700043,0.0099945-19.8999939,0.0200043c-0.3999939,0-1.0399933-0.2599945-1.1699982,0.25
		c-0.1799927,0.6799927-0.6199951,0.5099945-1.0099945,0.5099945c-24.7799988,0.0099945-49.5599976,0.0099945-74.3399963,0
		c-0.2799988,0-0.7600021,0.0299988-0.8000031-0.0800018c-0.4199982-1.1600037-1.3899994-0.6699982-2.1100006-0.6699982
		c-6.5100021-0.0399933-13.0299988-0.0200043-19.5400009-0.0399933c-0.3800011,0-1,0.2899933-1.0900002-0.3600006
		c-0.0900002-0.6199951-0.4500008-0.5399933-0.8499985-0.5500031
		C51.03125,156.9700012,50.3512497,156.9499969,49.6712494,156.9299927z"></path>
	<path d="M49.1212463,144.1000061c-0.2200012-0.4199982-0.3100014-0.8600006-0.2000008-1.3300018
		c0.9199982,0,1.8400002,0.0099945,2.7599983-0.0099945c0.2299995,0,0.6399994,0,0.6699982-0.1000061
		c0.3800011-1.1000061,1.2999992-0.6799927,2-0.6799927c6.5200005-0.0299988,13.0299988-0.0099945,19.5500031-0.0200043
		c0.3799973,0,1.0100021,0.1999969,1.0899963-0.1900024c0.2099991-1.0099945,0.9199982-0.6900024,1.4800034-0.6900024
		c24.5400009-0.0099945,49.0800018-0.0099945,73.6299973-0.0099945c0.2400055,0,0.4799957,0,0.7200012,0
		c0.1900024,0,0.5-0.0099945,0.5099945,0.1900024c0.0399933,1.0200043,0.8000031,0.6900024,1.3200073,0.6900024
		c6.6399994,0.0200043,13.2700043,0.0099945,19.9100037,0.0200043c0.3899994,0,1.0700073-0.0500031,1.1399994,0.1100006
		c0.4199982,1.0899963,1.3099976,0.6300049,2.0099945,0.6699982c0.9199982,0.0599976,1.8399963,0.0200043,2.7599945,0.0200043
		c0.1000061,0.4700012,0.0099945,0.9100037-0.1999969,1.3300018c-1.1600037,0-2.3200073,0-3.4799957,0.0099945
		c-0.2700043,0-0.7200012-0.1000061-0.7599945,0.1600037c-0.1900024,1.1699982-1.0700073,0.7299957-1.6699982,0.7299957
		c-6.5899963,0.0299988-13.1900024,0.0099945-19.7799988,0.0299988c-0.3699951,0-1.0099945-0.1999969-1.0700073,0.2200012
		c-0.1499939,1.0899963-0.9199982,0.6799927-1.4400024,0.6799927c-24.5,0.0200043-49,0.0200043-73.5,0.0200043
		c-0.2799988,0-0.5599976,0.0200043-0.8399963-0.0099945c-0.1900024-0.0200043-0.5199966-0.1100006-0.5199966-0.1699982
		c-0.0599976-1.0800018-0.8700027-0.7299957-1.4199982-0.7299957c-6.6699982-0.0200043-13.3499985-0.0099945-20.0200005-0.0200043
		c-0.3899994,0-1.0400009,0.2599945-1.1399994-0.2899933c-0.1399994-0.7599945-0.6100006-0.5899963-1.0600014-0.6000061
		C50.7212486,144.0899963,49.9212494,144.1000061,49.1212463,144.1000061z"></path>
	<path d="M49.8912468,163.3200073c-0.0099983-0.4299927-0.0099983-0.8500061-0.0200005-1.2799988
		c0.5999985-0.0099945,1.2000008-0.0099945,1.7999992-0.0299988c0.2400017-0.0099945,0.6399994,0.0099945,0.6800003-0.0800018
		c0.4099998-1.1600037,1.3899994-0.6699982,2.0999985-0.6699982c6.4799995-0.0399933,12.9600029-0.0200043,19.4399986-0.0299988
		c0.3799973,0,1.0100021,0.1999969,1.0899963-0.1900024c0.2200012-1.0800018,0.9899979-0.7200012,1.5800018-0.7200012
		c24.4800034-0.0099945,48.9599991-0.0099945,73.4399948-0.0099945c0.2799988,0,0.5599976-0.0099945,0.8399963,0
		c0.1900024,0.0099945,0.4900055-0.0299988,0.4900055,0.1999969c0.0200043,1.0299988,0.7799988,0.7100067,1.3000031,0.7100067
		c6.6799927,0.0200043,13.3600006,0.0099945,20.0400085,0.0200043c0.3800049,0,1.0099945-0.1900024,1.1000061,0.1799927
		c0.2200012,0.8699951,0.8399963,0.5500031,1.3200073,0.5800018c0.8000031,0.0500031,1.6000061,0.0299988,2.3999939,0.0399933
		c-0.0099945,0.4299927-0.0099945,0.8500061-0.0200043,1.2799988c-0.9199982,0.0299988-1.8300018,0.0500031-2.75,0.0800018
		c-0.2700043,0.0099945-0.7400055-0.0800018-0.7700043,0.1600037c-0.1199951,1.0700073-0.9100037,0.7100067-1.4600067,0.7100067
		c-6.6399994,0.0200043-13.2700043,0.0099945-19.9100037,0.0200043c-0.3800049,0-1.0299988-0.1699982-1.1000061,0.1699982
		c-0.2100067,0.9600067-0.8899994,0.6300049-1.3999939,0.6300049c-23.6600037,0.0099945-47.3300018,0.0099945-70.9899979,0.0099945
		c-1.0400009,0-2.0800018,0-3.1200027,0c-0.2699966,0-0.7200012,0.1000061-0.7699966-0.1600037
		c-0.2200012-0.9900055-0.9700012-0.6399994-1.5199966-0.6399994c-6.6399994-0.0200043-13.2700005-0.0099945-19.9099998-0.0299988
		c-0.4199982,0-1.0800018,0.2799988-1.2200012-0.3600006c-0.1300011-0.6199951-0.5200005-0.4799957-0.8800011-0.5099945
		C51.0812492,163.3699951,50.4812469,163.3500061,49.8912468,163.3200073z"></path>
	<path d="M63.8012466,193.9299927c3.4400024,0,6.8799973,0,10.3199997,0
		c0.4499969,0,0.9899979,0.1499939,1.0100021-0.6199951C75.1412506,193,75.4612503,193.0099945,75.691246,193
		c0.3199997-0.0099945,0.6399994-0.0099945,0.9599991-0.0099945c24.4000015,0,48.7900009,0,73.1900024,0.0200043
		c0.5899963,0,1.4700012-0.4600067,1.6499939,0.75c0.0500031,0.3099976,0.7299957,0.1499939,1.1100006,0.1499939
		c6.5200043,0.0099945,13.0399933,0,19.5599976,0.0200043c0.6600037,0,1.5299988-0.3999939,1.8999939,0.6499939
		c0.0399933,0.1300049,0.6199951,0.0099945,0.8999939,0.1199951c0.7799988,0.3099976,2.3099976-0.7400055,2.3200073,0.6600037
		c0.0099945,1.5800018-1.5899963,0.3099976-2.3600006,0.7100067c-0.0599976,0.0299988-0.1600037,0-0.2400055,0
		c-0.3899994,0.0099945-0.7599945-0.0800018-0.8399963,0.5399933c-0.0800018,0.6499939-0.7100067,0.3699951-1.0899963,0.3699951
		c-6.5599976,0.0200043-13.1199951,0-19.6799927,0.0299988c-0.6499939,0-1.5299988-0.4299927-1.8699951,0.6600037
		c-0.0299988,0.1000061-0.5200043,0.0899963-0.7899933,0.0899963c-24.7600021,0-49.5099945,0-74.2699966,0
		c-0.4300003,0-0.9300003,0.1799927-1.1299973-0.5399933C74.8812637,196.7700043,74.311264,197,73.9412613,197
		c-6.7200012-0.0099945-13.4399986,0-20.1599998-0.0200043c-0.5200005,0-1.1500015,0.2899933-1.3699989-0.6799927
		c-0.1100006-0.5-0.9099998-0.1699982-1.4000015-0.2299957c-0.4700012-0.0599976-1.0699997,0.1900024-1.0600014-0.6900024
		c0.0099983-0.8600006,0.5900002-0.6600037,1.0800018-0.6999969c0.6100006-0.0500031,1.3600006,0.2899933,1.6599998-0.6600037
		c0.0400009-0.1199951,0.5900002-0.1100006,0.9000015-0.1100006
		C57.0012474,193.9199982,60.4012489,193.9299927,63.8012466,193.9299927z"></path>
	<path d="M162.5512543,203.3699951c-3.3600006,0-6.7200012-0.0099945-10.0800018,0.0099945
		c-0.4499969,0-1.1100006-0.2599945-1.1300049,0.6199951c-0.0099945,0.3300018-0.3399963,0.2700043-0.5599976,0.2799988
		c-0.3200073,0.0099945-0.6399994,0.0099945-0.9600067,0.0099945c-24.3899994,0-48.7900009,0-73.1800003-0.0099945
		c-0.6200027,0-1.4400024,0.3899994-1.6900024-0.7400055c-0.0699997-0.3300018-0.7300034-0.1499939-1.1100006-0.1499939
		c-6.6800003-0.0099945-13.3600006,0-20.0400009-0.0200043c-0.5200005,0-1.1399994,0.2799988-1.3899994-0.6600037
		c-0.1199989-0.4700012-0.9300003-0.1900024-1.4199982-0.2100067c-0.5400009-0.0299988-1.0499992,0.0500031-1.0299988-0.7700043
		s0.5900002-0.5700073,1.0200005-0.6000061c0.6599998-0.0500031,1.4099998,0.2299957,1.7599983-0.6999969
		c0.0499992-0.1399994,0.6699982-0.0800018,1.0299988-0.0800018c6.6800003,0,13.3600006,0,20.0400009-0.0200043
		c0.5100021,0,1.2799988,0.3399963,1.3399963-0.6799927c0.0100021-0.2100067,0.3000031-0.2200012,0.5-0.2200012
		c0.2799988,0,0.5599976,0,0.8399963,0c24.5100021,0,49.0299988,0,73.5400009,0.0099945
		c0.5299988,0,1.2899933-0.3899994,1.4400024,0.6900024c0.0599976,0.3899994,0.7100067,0.1999969,1.0800018,0.2100067
		c6.6399994,0.0099945,13.2799988,0,19.9199982,0.0200043c0.5500031,0,1.0800018-0.1799927,1.5800018,0.5899963
		c0.3600006,0.5500031,1.5800018,0.1000061,2.3999939,0.1799927c0.3200073,0.0299988,0.7899933-0.1900024,0.8899994,0.3300018
		c0.1000061,0.5299988,0.1100006,1.0700073-0.7100067,1.0299988c-0.5599976-0.0299988-1.1199951-0.0299988-1.6799927,0
		c-0.4600067,0.0299988-1.0299988-0.2400055-1.1499939,0.6300049c-0.0599976,0.4400024-0.6900024,0.25-1.0599976,0.25
		C169.3512421,203.3699951,165.9512482,203.3699951,162.5512543,203.3699951z"></path>
</g>
</svg>
