<!--?xml version="1.0" encoding="utf-8"?-->
<!-- Generator: Adobe Illustrator 24.2.3, SVG Export Plug-In . SVG Version: 6.00 Build 0)  -->
<svg version="1.1" id="Camada_1" xmlns="http://www.w3.org/2000/svg" xmlns:xlink="http://www.w3.org/1999/xlink" x="0px" y="0px" viewBox="0 0 229 418" enable-background="new 0 0 229 418" xml:space="preserve">
<g onclick="select(this)" class="" id="gola-secundaria" fill="#ffffff">
	<path d="M116.3818893,49.0752602c-0.8335953,0.2320518-1.5821838,0.8392296-2.5295258,0.5731316
		c-0.2213287-0.8126259,0.0423508-1.5788918,0.2377701-2.3470345c0.9215317-3.6224289,2.5606842-6.9243164,4.5238571-10.0800743
		c4.1033478-4.310009,8.1705551-8.6552105,12.3211441-12.9192257c3.5135498-3.6095581,6.3908997-7.6623077,8.8000488-12.064743
		c0.456604-0.8343897,0.9447174-1.664012,1.1125031-2.6246986c0.7254181-1.2808037,1.0168915-2.6659756,1.0240326-4.1280823
		c0.0049438-1.0119839-0.4709015-1.6642687-1.4065399-1.9949088c-1.1381073-0.4021833-2.3115997-0.6052649-3.5208588-0.6051569
		c-15.5550461,0.0013869-31.1100845,0.002557-46.6651306-0.0020161c-0.9676132-0.0002847-1.90905,0.1548507-2.8336868,0.4091465
		C85.7430725,3.75981,85.3303909,4.2938833,85.4249954,6.015285c0.0634537,1.1545529,0.1917267,2.3107181,0.7964783,3.3442836
		c1.7381668,4.3375845,4.3154984,8.1710749,7.2647934,11.7455511c3.0995636,3.7565861,6.6718826,7.0846825,9.98069,10.6536903
		c1.7045059,1.8385601,3.4469528,3.6419544,5.1722641,5.461237c0.141243,0.2821579,0.2534637,0.5838699,0.4282455,0.8434486
		c1.7294617,2.5685844,2.9942932,5.3555374,3.8564758,8.3204155c0.3075104,1.0574837,0.7699585,2.1119576,0.5005112,3.2664986
		c-0.8066101,0.1453552-1.5136261-0.1681786-2.2209854-0.4818573c-0.0745163-0.1329575-0.1629486-0.242794-0.3398056-0.2093124
		c0,0,0.0155182,0.0165253,0.0155258,0.0165253c-0.8287582-4.0532646-2.4461288-7.7656937-5.0678101-10.966198
		c-2.5820465-3.1521263-5.5237579-5.9836426-8.3579559-8.9074631c-4.0904999-4.2198277-8.1277618-8.475069-11.0506516-13.641326
		c-2.0527725-3.6283035-4.0921097-7.2516174-3.3573074-11.6774063c0.9002151-1.9448513,2.5582504-2.7752316,4.5620422-3.0655019
		c1.2658463-0.1833732,2.5391769-0.2692522,3.822998-0.268326c14.798584,0.0106764,29.597168,0.0106514,44.3957596,0.0006143
		c1.2835693-0.0008706,2.554718,0.0972143,3.823761,0.2612555c1.9269104,0.2490786,3.4730835,1.1290891,4.5558167,2.769526
		c0.6426849,3.2732768-0.3043823,6.2706151-1.761322,9.1084595c-1.9555206,3.8089981-4.2129364,7.4522362-7.1285858,10.6123257
		c-4.116394,4.4614773-8.3396683,8.8241348-12.4848862,13.2592812
		C119.482933,40.043293,117.3312607,44.2568169,116.3818893,49.0752602z"></path>
</g>
<g onclick="select(this)" class="" id="detalhe-punho" fill="#021c3b">
	<path d="M43.3251877,120.6400299c-2.5715904,1.5164185-5.4873352,1.7669296-8.3249054,1.8909454
		c-9.7588749,0.4264908-19.4859047,0.1642303-29.0314045-2.2807388c-1.9600086-0.502037-3.9060934-1.0287094-5.728878-1.9302292
		c0-1.1200027,0-2.2400055,0-3.3600006c0.5341446-1.0446014,0.4600504-2.2130508,0.6742938-3.3226929
		c0.1042186-0.5397873,0.0607879-1.1212234,0.4675303-1.5698166c0.626965,0.4458313,1.324239,0.7532959,2.0628524,0.9366074
		c1.8188467,0.4514236,3.6287441,0.9745026,5.4736233,1.2780151c3.8076487,0.6264038,7.5144987,1.8535843,11.4230356,1.8909149
		c1.5943184,0.0152206,3.189024,0.1251373,4.78092,0.2314072c3.6960335,0.246727,7.394331,0.1335449,11.0928478,0.1318054
		c1.877037-0.000885,3.624794-0.4812164,5.342453-1.1464615c0.3858757-0.1494522,0.6799927-0.2490768,0.8002129,0.2821274
		C42.8772583,115.9674225,43.3580132,118.2679749,43.3251877,120.6400299z"></path>
	<path d="M184.6351166,120.4043655c-0.2832336-2.2694321,0.3703613-4.4287796,0.7629089-6.6206818
		c0.0848083-0.4734421,0.2874908-0.5877304,0.7293549-0.4956894c5.6825562,1.1838074,11.4602509,0.9403229,17.1700134,0.685112
		c8.0828247-0.3612671,15.9108734-2.3538818,23.5565796-4.9960785c0.3323822-0.1148682,0.6310272-0.3274078,0.9454193-0.4943771
		c0.850708,1.1977844,0.5585632,2.6719513,0.9456329,3.988945c0.2308655,0.7854462,0.0882721,1.6727142,0.2303925,2.4939957
		c0.2254181,1.3027115-0.4415131,1.8716736-1.55336,2.240303c-5.2239838,1.7320251-10.5293732,3.0898514-15.9651642,4.0210037
		c-5.9925232,1.0265274-12.0113983,0.9966125-18.0421143,0.9053192c-2.4743195-0.0374527-4.9359589-0.3193283-7.3450165-0.9380722
		C185.5249023,121.0541992,185.0001068,120.8732147,184.6351166,120.4043655z"></path>
</g>
<g onclick="select(this)" class="" id="gola-terciaria" fill="#f6d101">
	<path d="M118.6139908,37.221283c-1.9631729,3.1557579-3.6023254,6.4576454-4.5238571,10.0800743
		c-0.1954193,0.7681427-0.4590988,1.5344086-0.2377701,2.3470345c-0.14151,0.0006599-0.2838593,0.0013542-0.427063,0.0020332
		c0.2686005-1.1545563-0.1938477-2.2090302-0.501358-3.2665138c-0.8621826-2.9648781-2.1270142-5.7518311-3.8564758-8.3204155
		c-0.1747818-0.2595787-0.2870026-0.5612907-0.4275894-0.8434868
		C111.9650192,37.2204018,115.289505,37.2208443,118.6139908,37.221283z"></path>
</g>
<path d="M110.8636627,48.95924c0.176857-0.0334816,0.2652893,0.076355,0.3398056,0.2093124
	C111.0476761,49.1683044,110.8642044,49.2124863,110.8636627,48.95924z"></path>
<g onclick="select(this)" class="" id="estampa-primaria" fill="#ffffff">
	<path d="M43.3251877,120.6400299c0.0328255-2.3720551-0.4479294-4.6726074-0.9674187-6.9681168
		c-0.1202202-0.5312042-0.4143372-0.4315796-0.8002129-0.2821274c-1.717659,0.6652451-3.465416,1.1455765-5.342453,1.1464615
		c-3.6985168,0.0017395-7.3968143,0.1149216-11.0928478-0.1318054c-1.5918961-0.1062698-3.1866016-0.2161865-4.78092-0.2314072
		c-3.9085369-0.0373306-7.615387-1.2645111-11.4230356-1.8909149c-1.8448792-0.3035126-3.6547766-0.8265915-5.4736233-1.2780151
		c-0.7386134-0.1833115-1.4358873-0.4907761-2.0628524-0.9366074c1.7948196-9.4650497,2.6792479-19.0649109,4.2429094-28.5652542
		c0.849421-5.1608276,1.1670041-10.3998489,2.277905-15.5287018c1.742465-8.0446968,4.4394779-15.676693,9.3643827-22.3827934
		c2.140049-2.9140472,4.5777931-5.5591583,7.4117775-7.8018188c1.3627796-1.0784302,2.361639-2.5726166,3.9245949-3.3992348
		c3.6053352-1.9067955,7.2556648-3.7269535,11.0274811-5.2820396c9.9830856-4.1159401,19.9887543-8.180336,29.4469223-13.4433012
		c1.9736176-1.0982161,3.9911194-2.0937567,5.5190811-3.8934603c0.8932724-1.0521345,2.1593018-1.785687,3.7116089-1.5061016
		c-2.2008972,1.5300407-2.4698792,2.3294382-1.9042664,4.9610043c0.3932037,1.8295164,1.1496964,3.4854546,2.1981354,5.0011978
		c4.4804993,6.4775391,9.0317078,12.9020252,14.7170868,18.4176025c3.2086792,3.1128311,6.1320648,6.5533409,9.9883118,8.9315453
		c2.3684692,1.4606743,4.8041458,2.8094711,7.5714264,3.3996239l-0.0155182-0.0165253
		c0.0005417,0.2532463,0.1840134,0.2090645,0.3402023,0.2092285c0.7069626,0.3137627,1.4139786,0.6272964,2.2214355,0.4819565
		c0.1432037-0.000679,0.285553-0.0013733,0.4278946-0.0020676c0.9465103,0.2661324,1.6950989-0.3410454,2.5286942-0.5730972
		c3.5899734-1.1798439,7.055397-2.6777725,9.9528503-5.1221199c5.2933121-4.4655762,10.1697311-9.3770981,14.5357895-14.7566338
		c2.312851-2.8497334,4.3860474-5.8940735,6.5653687-8.8520775c1.6647491-2.2595615,3.0646362-4.6444292,3.7664642-7.4051085
		c0.4756012-1.8707933,0.0718079-3.3725061-1.524292-4.5073223c1.6410065,0.1001673,2.7957306,1.0407495,3.7727356,2.2407551
		c0.3315582,0.4072104,0.6869507,0.7275991,1.1291656,1.0211039c8.8731384,5.8893929,18.7906342,9.6165962,28.5283508,13.6875648
		c5.0677338,2.1186352,10.0373383,4.4492893,15.0912781,6.5920124c0.2848358,0.1207619,0.5545197,0.2901917,0.8082581,0.4695015
		c12.3866272,8.7527809,19.4388123,20.8484116,21.5997467,35.6809959
		c1.3801422,9.4732819,3.7359619,18.7351227,5.3077698,28.1555099c0.6773376,4.0595322,1.2589722,8.135025,1.8840332,12.2032089
		c-0.3144073,0.1669693-0.6130524,0.379509-0.9454346,0.4943771c-7.6457062,2.6421967-15.4737549,4.6348114-23.5565796,4.9960785
		c-5.7097626,0.2552109-11.4874573,0.4986954-17.1700134-0.685112c-0.441864-0.092041-0.6445465,0.0222473-0.7293549,0.4956894
		c-0.3925476,2.1919022-1.0461426,4.3512497-0.7629089,6.6206818c-0.576004,2.0075912-0.5193176,4.0965042-0.7762756,6.144783
		c-0.8967896,7.1488953-1.2922821,14.3323212-1.3660889,21.5348511c-0.0229797,2.2415161,0.0538788,4.4678345,0.5196838,6.6791534
		c0.4022522,1.9098206-0.0415802,3.8268585-0.2045441,5.732132c-0.1810608,2.1171875-0.2475739,4.2311707-0.14888,6.350708
		c0.1007233,2.1633911-0.1486511,4.3136597-0.2010803,6.4691315c-0.0689697,2.835022-0.1222534,5.676178,0.1277161,8.5127258
		c0.147522,1.6738586,0.0896759,3.352478-0.0990601,5.0296326c-0.3492279,3.1034393,0.1965027,6.1215668,0.8816376,9.1379089
		c1.645462,7.2442474,1.3769531,14.5310211,0.3393097,21.8220825c-0.3051605,2.1443787-0.3706207,4.2115479,0.3300323,6.3591309
		c1.7713318,5.4294739,1.8126526,11.0121002,0.9382629,16.6133118c-0.2313538,1.4821472-0.2454681,2.9263763,0.0932312,4.3943939
		c0.8730927,3.7845001,0.4477844,7.6447449,0.6414337,11.4699249c0.3010254,5.9458618,0.6882019,11.8882141,1.4374237,17.8032227
		c0.2545319,2.009491,0.219223,4.0592346,0.2559814,6.0916443c0.0330658,1.8279114-0.3303223,2.3298645-2.0780792,2.8551636
		c-3.0056458,0.9034119-6.1239014,1.1581726-9.2250671,1.4784546c-7.687027,0.7939453-15.4046021,0.8662415-23.1227875,1.0108643
		c-11.2349701,0.2105103-22.4660492,0.6524963-33.7014008,0.8138733
		c-12.4782715,0.1792297-24.9354324-0.8465881-37.415329-0.8483276c-8.3974609-0.0011597-16.7972946-0.099884-25.1777344-0.7358704
		c-4.1889534-0.3178711-8.3641396-0.7600403-12.4701881-1.6979065c-0.1559067-0.035614-0.3131027-0.0661316-0.4678688-0.1061401
		c-3.2493629-0.8399048-3.6074333-1.1913757-3.4103165-4.5153503c0.460907-7.7724609,1.0086174-15.5399475,1.5535736-23.3071594
		c0.1456757-2.0762939,0.2778282-4.1502228,0.2280006-6.2310944c-0.0422707-1.7650146,0.042881-3.5201569,0.3605576-5.2571259
		c0.4134331-2.2605438,0.4554749-4.5117798,0.124012-6.795517c-0.365612-2.5189972-0.0975494-5.0328064,0.4442635-7.5074768
		c0.2181778-0.996521,0.1949005-1.9704437,0.1205864-2.9739532c-0.3364258-4.5428772-1.0249634-9.0656433-0.8369026-13.6397247
		c0.1790504-4.3548889,1.2046204-8.5375671,2.6859703-12.6118927c0.3782005-1.0401917,0.6002884-2.0374146,0.4369202-3.146759
		c-0.1810913-1.2296448-0.1527023-2.4737091,0.079113-3.703598c0.3065872-1.6266022,0.1933861-3.2497253,0.1121597-4.8944397
		c-0.1633339-3.3072205-0.1824417-6.6232605-0.1962395-9.9359283c-0.0539207-12.9464722-0.0431595-25.8933411-0.1401062-38.8394623
		c-0.0383949-5.1265564-0.9984093-10.1811676-1.5110817-15.271286
		C43.659832,123.3368759,43.4832153,121.9893875,43.3251877,120.6400299z"></path>
	<path d="M118.6139908,37.221283c-3.3244858-0.0004387-6.6489716-0.0008812-9.9741135-0.0012779
		c-1.7259674-1.8192406-3.4684143-3.6226349-5.1729202-5.461195c-3.3088074-3.5690079-6.8811264-6.8971043-9.98069-10.6536903
		c-2.949295-3.5744762-5.5266266-7.4079666-7.2650375-11.7455769c1.3525162,0.1145182,2.7055359,0.2262487,4.0580215,0.3440599
		c9.5864487,0.8350477,19.161438,1.8715324,28.8136063,1.3705292c7.2594299-0.3768044,14.5097275-0.8775806,21.7548294-1.4615164
		c-0.1677856,0.9606867-0.655899,1.790309-1.1125031,2.6246986c-2.4091492,4.4024353-5.286499,8.4551849-8.8000488,12.064743
		C126.7845459,28.5660725,122.7173386,32.911274,118.6139908,37.221283z"></path>
</g>
<g onclick="select(this)" class="" id="gola-primaria" fill="#021c3b">
	<path d="M116.3818893,49.0752602c0.9493713-4.8184433,3.1010437-9.0319672,6.4491577-12.614254
		c4.1452179-4.4351463,8.3684921-8.7978039,12.4848862-13.2592812c2.9156494-3.1600895,5.1730652-6.8033276,7.1285858-10.6123257
		c1.4569397-2.8378448,2.404007-5.8351831,1.761322-9.1084595c1.3447876,1.4383683,2.6348267,2.9316673,4.1723633,4.1779375
		c0.3962708,0.3212066,0.7694702,0.6803355,1.3005981,0.7730041c1.5953674,1.1349335,1.9991608,2.6366463,1.5235596,4.5074396
		c-0.701828,2.7606792-2.1017151,5.1455469-3.7664642,7.4051085c-2.1793213,2.958004-4.2525177,6.0023441-6.5653687,8.8520775
		c-4.3660583,5.3795357-9.2424774,10.2910576-14.5357895,14.7566338
		C123.4372864,46.3974876,119.9718628,47.8954163,116.3818893,49.0752602z"></path>
	<path d="M83.0454636,3.7833724c-0.7348022,4.4257884,1.3045349,8.0491028,3.3573074,11.6774063
		c2.9228897,5.1662569,6.9601517,9.4214983,11.0506516,13.641326c2.834198,2.9238205,5.7759094,5.7553368,8.3579559,8.9074631
		c2.6216812,3.2005043,4.2390518,6.9129333,5.0678101,10.966198c-2.7672882-0.5901527-5.2029648-1.9389496-7.571434-3.3996239
		c-3.8562469-2.3782043-6.7796326-5.8187141-9.9883118-8.9315453c-5.685379-5.5155773-10.2365875-11.9400635-14.7170868-18.4176025
		c-1.048439-1.5157433-1.8049316-3.1716814-2.1981354-5.0011978c-0.5656128-2.631566-0.2966309-3.4309635,1.9042664-4.9610043
		c1.849472-0.9154258,3.0914688-2.4924598,4.3786545-4.0197792C82.8125763,4.09618,82.9263077,3.9374893,83.0454636,3.7833724z"></path>
	<path d="M140.8476868,9.6126156c-7.2451019,0.5839357-14.4953995,1.084712-21.7548294,1.4615164
		c-9.6521683,0.5010033-19.2271576-0.5354815-28.8136063-1.3705292c-1.3524857-0.1178112-2.7055054-0.2295418-4.0580215-0.3440599
		c-0.6045074-1.0335398-0.7327805-2.1897049-0.7962341-3.3442578c-0.0946045-1.7214017,0.3180771-2.255475,2.0205078-2.7236869
		c0.9246368-0.2542958,1.8660736-0.4094312,2.8336868-0.4091465c15.5550461,0.0045731,31.1100845,0.0034029,46.6651306,0.0020161
		c1.209259-0.000108,2.3827515,0.2029736,3.5208588,0.6051569c0.9356384,0.3306401,1.4114838,0.9829249,1.4065399,1.9949088
		C141.8645782,6.94664,141.5731049,8.3318119,140.8476868,9.6126156z"></path>
</g>
<g onclick="select(this)">
	<image overflow="visible" width="844" height="408" xlink:href="5D9C3490.jpg" transform="matrix(1 0 0 1 -7894 -7770.1103516)">
	</image>
</g>
<g onclick="select(this)" class="" id="estampa-secundaria" fill="#f6d101">
	<path d="M161.8733215,134.8813477c1.8543854,1.6996765,3.6966705,3.4128571,5.5713348,5.089859
		c0.4886475,0.4371033,0.5886536,0.6762238,0.0137024,1.1652679c-1.6425171,1.3971405-3.2026978,2.8906555-4.8292236,4.307251
		c-0.5503693,0.4793243-0.7319489,0.7768402-0.0818481,1.3720551c1.6791992,1.5374756,3.3012238,3.1394043,4.903244,4.7580109
		c0.5622711,0.5681,0.9402313,0.4937286,1.4712067-0.0255585c1.6566772-1.6202393,3.3325653-3.2223358,5.045517-4.782608
		c0.5306396-0.4833069,0.3495941-0.712677-0.0773315-1.0890045c-1.6481781-1.4528351-3.2279968-2.9864349-4.9204102-4.3844757
		c-0.797699-0.6589661-0.5494537-0.9724579,0.0644226-1.5137634c1.9154663-1.6890564,3.7860718-3.4289551,5.674057-5.1491547
		c0.4547729-0.3759613,0.9172668-0.7429962,1.3630676-1.129303c2.604599-2.2570496,5.0404663-4.7048035,7.743866-6.8502579
		c-0.2729187,2.975914-0.6149902,5.9474411-0.8041229,8.9286728c-0.3765259,5.9356537-0.7967377,11.8862457-0.1118774,17.8168488
		c0.2508087,2.1718292,0.2530212,4.2911835-0.02211,6.4297485c-0.4607239,3.5814667-0.0052338,7.1788635-0.2303467,10.7627563
		c-0.0749512,1.1933136-0.1759033,2.3849945-0.264801,3.5775299c-0.745636,0.6504211-1.489502,1.3029175-2.2375793,1.9505615
		c-1.9406738,1.6800995-3.7247162,3.5377808-5.7747803,5.0938721c-1.8079071-1.7517548-3.5986023-3.5218811-5.4342957-5.2440033
		c-0.5457001-0.5119171-0.6548767-0.8029785-0.0224152-1.3690491c1.7274628-1.5460815,3.3654633-3.1916809,5.0691528-4.7650757
		c0.4313202-0.3983307,0.4374084-0.6073761-0.0114899-0.9991302c-1.6868439-1.4721222-3.3565979-2.9655304-4.9886932-4.4978638
		c-0.621048-0.5830994-1.076416-0.5794678-1.6901398,0.0002136c-1.5404663,1.4550018-3.0983582,2.8950195-4.7119446,4.2673492
		c-0.5893707,0.5012817-0.5971527,0.7598419-0.0477295,1.2778625c1.5711975,1.4813385,3.0238037,3.094635,4.6538391,4.5049133
		c0.8935547,0.7731018,0.6411133,1.1416931-0.0476685,1.7973938c-1.7076721,1.6256256-3.3462219,3.3238831-5.0125427,4.9929504
		c-0.5354919,0.075119-0.7611847-0.3836212-1.0674133-0.659256c-3.6472931-3.2829132-7.2752228-6.5872803-10.9189453-9.8741302
		c-4.293808-3.8732147-8.5981293-7.734787-12.8978729-11.6014252c-0.4393768-0.2940216-0.9334869-0.151413-1.3999786-0.151535
		c-28.1281509-0.0075684-56.2563095-0.0121307-84.3844376,0.0157776c-0.9705429,0.0009613-1.6206512-0.2627716-2.2455788-1.0024109
		c-1.2350807-1.4618378-2.575161-2.8349762-3.8718376-4.2447662c0.0104561-1.2028046,0.020916-2.4056244,0.0314217-3.6085968
		c2.8234215-0.3272705,5.6467896-0.6544037,8.7077332-1.0090637c-3.0401764-2.6660156-5.8793449-5.1557465-8.7185211-7.6454926
		c-0.0001526-0.299408-0.0003128-0.5987854-0.0003052-0.8986511c3.5899582-0.227005,7.1797485-0.453537,10.2917862-0.6499329
		c-2.5158081-2.7071991-5.151123-5.543808-7.7877655-8.3791809c-0.3010178-0.3237-0.6742554-0.3637543-1.0988884-0.3186646
		c-0.7134972,0.0757599-1.4321976,0.1026001-2.1487083,0.1500397c-0.1420631-0.9100037-0.2841263-1.8200073-0.426281-2.7310944
		c1.0932541,0.2682343,1.7774124,1.1726532,2.6825752,1.7349701c0.3698235,0.2297211,0.6698875,0.5485687,1.1745491,0.4862671
		c3.6243401-0.4474945,7.2504959-0.8802032,11.0948448-1.3439941c-3.0861168-2.7305603-6.0261154-5.3318329-8.9661064-7.9330902
		c0.0158882-0.0964966,0.0317802-0.1929932,0.0476685-0.2894897c4.2064209,0,8.4128342,0,12.6188965-0.0001526
		c0.4998055,0.2029724,1.0251579,0.1301651,1.5411682,0.1302109c27.0585632,0.0026398,54.1171265,0.0053635,81.1756668-0.0127945
		c0.8126221-0.0005417,1.4263611,0.2032623,2.0320892,0.7592392c3.0911255,2.8372421,6.2125092,5.6416855,9.3373413,8.4419327
		C158.5618896,132.0036774,160.2241211,133.4352417,161.8733215,134.8813477z M174.4312897,158.0666504
		c-0.1351929-0.145752-0.2364502-0.2674103-0.3503265-0.3757935c-1.7616425-1.6768494-3.5343781-3.3421783-5.281723-5.033783
		c-0.4817505-0.4663849-0.8383636-0.4165497-1.2935638,0.0353546c-1.6693115,1.6572876-3.3501587,3.3036804-5.058548,4.9204712
		c-0.4650726,0.4401398-0.4615021,0.6921692,0.023056,1.1149902c1.6516113,1.4411774,3.2733307,2.9171906,4.8857727,4.4023285
		c0.5267029,0.4851227,0.9573669,0.554657,1.5206604,0.0321655c1.6657715-1.5450592,3.3684692-3.0502777,5.0535126-4.5746155
		C174.1040802,158.4304199,174.2566528,158.2493896,174.4312897,158.0666504z"></path>
	<path d="M43.237854,120.5011597c-0.1532707-1.7735519-0.3065414-3.5471039-0.485775-5.621048
		c2.4317245,2.1827698,4.6695366,4.1914902,7.1310883,6.4010315c-2.3116035,0.2084503-4.3519592,0.3924484-6.3922462,0.5762863
		C43.4066124,121.4052429,43.3222313,120.9532013,43.237854,120.5011597z"></path>
</g>
<path d="M182.4307098,186.2645874c0.0508575-0.0930634,0.1016998-0.1861267,0.1523895-0.2788239
	C182.5321808,186.0789642,182.4814453,186.1717834,182.4307098,186.2645874z"></path>
<g onclick="select(this)" class="" id="estampa-terciaria" fill="#021c3b">
	<path d="M137.2411499,159.0404053c4.2997437,3.8666382,8.6040649,7.7282104,12.8978729,11.6014252
		c3.6437225,3.28685,7.2716522,6.591217,10.9189453,9.8741302c0.3062286,0.2756348,0.5319214,0.734375,1.0676575,0.6593933
		c1.8839569,1.724762,3.7723236,3.4443359,5.6469574,5.1787567c0.3356476,0.3105164,0.5818634,0.4395905,0.9841919,0.0601807
		c1.8562317-1.750351,3.7391815-3.4724121,5.6125488-5.2046204c2.0500488-1.5561066,3.8340912-3.4137878,5.774765-5.0938873
		c0.7480774-0.647644,1.4919434-1.3001404,2.2375793-1.9505615c-0.0363312,3.9419861,0.4368286,7.875412,0.2014313,11.8205414
		c-0.0506897,0.0926971-0.101532,0.1857605-0.1523895,0.2788239c0.0000153,0.0000153-0.0018768,0.0041962-0.0018158,0.0041046
		c-2.2341919,1.9929504-4.4892426,3.9634857-6.6886444,5.9942932c-0.5747528,0.5307312-0.8907166,0.6404724-1.5152893,0.0350037
		c-1.721405-1.6687469-3.557785-3.2185364-5.2905273-4.8761902c-0.5476074-0.5238647-0.8286285-0.4599457-1.3367462,0.0274048
		c-1.673111,1.6048279-3.4350281,3.1177521-5.0918579,4.7385559c-0.6585236,0.6442108-1.0399933,0.6412354-1.7253418,0.0161438
		c-8.4480591-7.7050629-16.934494-15.368042-25.3843994-23.0710754c-0.7054138-0.6430817-1.4015045-0.8835754-2.3447418-0.882782
		c-27.432785,0.0230255-54.865593,0.0136414-82.2983551,0.0392303c-0.9636917,0.000885-1.6246605-0.2290955-2.2360153-1.007019
		c-0.9836311-1.2516327-2.1049881-2.3950348-3.1681595-3.5841675c-0.2093773-1.5406494-0.2021713-3.0817261-0.0090828-4.6231689
		c30.1144409-0.0004883,60.2288818-0.0007629,90.3433151-0.0027771
		C136.2024078,159.072113,136.7217865,159.0514526,137.2411499,159.0404053z"></path>
	<path d="M183.8149261,126.6496658c-2.7033997,2.1454544-5.139267,4.5932083-7.743866,6.8502579
		c-0.4458008,0.3863068-0.9082947,0.7533417-1.3630676,1.129303c-1.8441162-1.7623291-3.6817322-3.5315247-5.5374451-5.2815094
		c-0.401413-0.3785553-0.6125336-0.6243896-0.067627-1.1120605c5.1387634-4.5990143,10.2526703-9.2258301,15.3769073-13.8411484
		c0.107132-0.0965118,0.2516479-0.1515198,0.4723358-0.2806931c-0.1524811,2.1684952-0.2966919,4.2195969-0.4405975,6.2703476
		c-0.1660004,1.6535263-0.3277893,3.3078766-0.5016174,4.960968
		C183.9639893,125.7819748,183.8809509,126.2149277,183.8149261,126.6496658z"></path>
	<path d="M161.8733063,134.8813324c-1.6491852-1.4460907-3.3114166-2.877655-4.9448242-4.3414001
		c-3.1248322-2.8002472-6.2462158-5.6046906-9.3373413-8.4419327c-0.6057281-0.5559769-1.2194672-0.7597809-2.0320892-0.7592392
		c-27.0585403,0.018158-54.1171036,0.0154343-81.1756668,0.0127945c-0.5160103-0.0000458-1.0413628,0.0727615-1.5411682-0.1302109
		c-2.4384003-2.7343674-4.8771629-5.4688873-7.3320656-8.2215042c0.3539619-0.3202438,0.7254982-0.1678162,1.0540428-0.1679077
		c30.9013824-0.0088882,61.8027649-0.0058746,92.7041321-0.0222931c0.7689972-0.000412,1.340744,0.2024841,1.9161072,0.7252884
		c5.4720306,4.9721298,10.9693451,9.9164581,16.4628143,14.8649597c0.1177368,0.1060486,0.2764282,0.1666718,0.4455719,0.2658234
		C165.9398041,130.8173828,163.9065552,132.84935,161.8733063,134.8813324z"></path>
	<path d="M40.8581963,100.3328552c4.5771332,4.0902176,8.9872665,8.0312042,13.6933861,12.2366867
		c-1.8269272,0-3.2813568-0.0084076-4.7356529,0.0019608c-2.1564522,0.0153809-4.313282,0.0249557-6.468914,0.078743
		c-0.6494751,0.0162125-0.9111366-0.1972504-0.9929428-0.8540115
		C41.8904495,108.0743561,41.3878021,104.3573303,40.8581963,100.3328552z"></path>
</g>
</svg>
