<!--?xml version="1.0" encoding="utf-8"?-->
<!-- Generator: Adobe Illustrator 24.2.3, SVG Export Plug-In . SVG Version: 6.00 Build 0)  -->
<svg version="1.1" id="Camada_1" xmlns="http://www.w3.org/2000/svg" xmlns:xlink="http://www.w3.org/1999/xlink" x="0px" y="0px" viewBox="0 0 229 418" enable-background="new 0 0 229 418" xml:space="preserve">
<g onclick="select(this)" class="" id="gola-primaria" fill="#104969">
	<path d="M77.9426346,7.9673753c0.58358-0.069356,1.032135-0.3976116,1.4363174-0.7842617
		c0.9175644-0.877727,1.9667511-1.6647758,2.7009964-2.6779346c1.8149261-2.5044103,4.3710556-3.4063895,7.2605515-3.79111
		c0.6240387-0.0830863,1.349823,0.1018219,1.8595047-0.4742064c1.1999969,0,2.4000015,0,3.5999985,0
		c0.1689606,0.4907088,0.5991287,0.3122897,0.914032,0.3134411c5.57827,0.0203979,11.1566238,0.020126,16.7349243,0.0349568
		c0.4080048,0.0010847,0.7730331-0.0500122,1.0710449-0.3483979c7.5200043,0,15.0400085,0,22.5599976,0
		c0.0828247,0.4741868,0.4899597,0.3142419,0.7614136,0.3587393c0.9795685,0.1605679,1.9686279,0.2632271,2.9482269,0.4236295
		c1.9836884,0.3248088,3.6552887,1.119652,4.9371338,2.7922442c1.2989655,1.6949236,2.7367096,3.3046358,4.6419067,4.3876181
		c1.3349609,0.5595255,1.9354553,1.5324001,1.8441772,3.0037222c-0.2312469,3.7279959-2.0542908,6.7283545-4.2597656,9.5706816
		c-0.4029999,0.519371-0.6724548,0.1390858-0.9757843-0.093195c-1.7763519-1.3603001-3.5279999-2.7546139-5.3391266-4.0669384
		c-0.7182922-0.5204697-0.6553192-0.8478394-0.1091766-1.4620466c1.5674438-1.7628803,2.8856964-3.6969404,3.7774658-6.0769958
		c-2.572403,0.1970119-4.9905701,0.3984365-7.4111481,0.5647984c-10.7585907,0.7394209-21.499321,1.821701-32.3157806,0.9718924
		c-6.6919632-0.5257635-13.3825684-1.0529213-20.0644302-1.69244c-0.3931198-0.0376253-0.9007416-0.2369938-1.1560059,0.0428095
		c-0.3374405,0.369853,0.0650253,0.8249645,0.220726,1.2047291c0.7995911,1.9502478,2.0776596,3.5827036,3.4878464,5.12358
		c0.3805923,0.4158716,0.7852325,0.7979889,0.0745773,1.3490562c-1.7995148,1.3954124-3.5663376,2.8337154-5.3231812,4.282795
		c-0.4913559,0.4052773-0.7964401,0.3135414-1.1702042-0.1451874c-1.9160156-2.3515911-3.4110718-4.9275246-4.2069702-7.8697643
		C75.8163681,10.5971127,76.278656,9.1439505,77.9426346,7.9673753z"></path>
</g>
<g onclick="select(this)" class="" id="detalhe-punho" fill="#ce6b03">
	<path d="M227.842514,108.4025879c0.5749817,0.7692032,0.4148407,1.7266006,0.6702271,2.5743942
		c0.1290436,0.4283524,0.0513458,0.9416275,0.4472656,1.2786179c0,1.2792664,0,2.5585327,0,3.8377991
		c-2.5884094,1.5184555-5.5240936,2.0408173-8.3501892,2.8522034c-9.2681122,2.6609497-18.7564545,3.2958908-28.3376312,2.8338699
		c-2.0632172-0.0994873-4.1380615-0.3150177-6.1517944-0.877861c-0.5486603-0.1533432-1.0449371-0.3735123-1.4878845-0.7239075
		c-0.2774811-2.4845276,0.3950195-4.910202,0.4574432-7.3736725c3.770752,0.7478256,7.5832977,0.9685516,11.4201965,0.9679565
		c2.4749756-0.0003815,4.9785767,0.2395554,7.4136963-0.1605759c3.064743-0.5035858,6.1346741-1.0043488,9.1941071-1.5534821
		C218.1148682,111.1610413,222.9727478,109.7737122,227.842514,108.4025879z"></path>
	<path d="M0.24,114.6542282c0.4893606-1.1710663,0.3771629-2.4589615,0.7112085-3.6613846
		c0.1128704-0.4062881,0.0125913-0.8849258,0.4293163-1.1796799c0.2910708,0.1283722,0.5764085,0.272171,0.8740931,0.3827667
		c6.2617168,2.3264465,12.7867851,3.4107971,19.397501,4.0666275c3.4315319,0.3404388,6.8639488,0.0203171,10.2973766-0.0423508
		c1.7614765-0.0321579,3.5187092-0.1407547,5.2500401-0.3458481c1.4364471-0.170166,2.981884,0.0562363,4.3134613-0.805748
		c0.4163704-0.2695313,0.5930977,0.0961914,0.7915878,0.4404831c0.4368095,0.7576523,0.2224312,1.6597824,0.6029205,2.4191055
		c0.0466232,1.5126266,0.5876122,2.9912491,0.3115692,4.5260544c-2.6691475,1.3422165-5.5943871,1.6769257-8.4834976,1.7902603
		c-9.3506947,0.3668442-18.675539,0.1407166-27.842226-2.0807114c-2.2731495-0.5508575-4.541153-1.1079407-6.6533499-2.1515045
		C0.24,116.8929443,0.24,115.7735825,0.24,114.6542282z"></path>
</g>
<g onclick="select(this)" class="" id="estampa-primaria" fill="#104969">
	<path d="M42.907505,115.9281998c-0.3804893-0.7593231-0.166111-1.6614532-0.6029205-2.4191055
		c-0.1984901-0.3442917-0.3752174-0.7100143-0.7915878-0.4404831c-1.3315773,0.8619843-2.8770142,0.635582-4.3134613,0.805748
		c-1.7313309,0.2050934-3.4885635,0.3136902-5.2500401,0.3458481c-3.4334278,0.0626678-6.8658447,0.3827896-10.2973766,0.0423508
		c-6.6107159-0.6558304-13.1357841-1.740181-19.397501-4.0666275c-0.2976846-0.1105957-0.5830222-0.2543945-0.8740931-0.3827667
		c1.7899306-9.5023575,2.6885965-19.1367569,4.2582512-28.6731644c0.8426151-5.1193008,1.1584306-10.3164978,2.2566686-15.4050598
		c1.7446499-8.0836258,4.4581051-15.7489853,9.4218407-22.4775429c2.1457844-2.908699,4.5916576-5.5448303,7.4281387-7.7850304
		c1.3344898-1.0539589,2.2994804-2.5360756,3.8290272-3.3338928c3.6148033-1.8855038,7.2542801-3.7286377,11.0284195-5.2783661
		c10.0274162-4.1174316,20.0643997-8.2123909,29.5622063-13.4859104c1.9391403-1.0766773,3.933815-2.0501871,5.4105301-3.8396473
		c0.8109818-0.9827251,1.9905396-1.5904641,3.3671417-1.5671678c-1.664093,1.1765685-2.1263809,2.6297307-1.5008469,4.9422078
		c0.7958984,2.9422398,2.2909546,5.5181732,4.2069702,7.8697643c0.373764,0.4587288,0.6788483,0.5504646,1.1702042,0.1451874
		c1.7568436-1.4490795,3.5236664-2.8873825,5.3231812-4.282795c0.7106552-0.5510674,0.306015-0.9331846-0.0745773-1.3490562
		c-1.4101868-1.5408764-2.6882553-3.1733322-3.4878464-5.12358c-0.1557007-0.3797646-0.5581665-0.8348761-0.220726-1.2047291
		c0.2552643-0.2798033,0.762886-0.0804348,1.1560059-0.0428095c6.6818619,0.6395187,13.372467,1.1666765,20.0644302,1.69244
		c10.8164597,0.8498087,21.5571899-0.2324715,32.3157806-0.9718924c2.420578-0.1663618,4.8387451-0.3677864,7.4111481-0.5647984
		c-0.8917694,2.3800554-2.210022,4.3141155-3.7774658,6.0769958c-0.5461426,0.6142073-0.6091156,0.941577,0.1091766,1.4620466
		c1.8111267,1.3123245,3.5627747,2.7066383,5.3391266,4.0669384c0.3033295,0.2322807,0.5727844,0.612566,0.9757843,0.093195
		c2.2054749-2.8423271,4.0285187-5.8426857,4.2597656-9.5706816c0.0912781-1.4713221-0.5092163-2.4441967-1.8441772-3.0037222
		c1.8040161-0.1235514,2.9677124,0.963213,4.0435791,2.1754436c0.3423004,0.3857002,0.6642609,0.7411375,1.1140747,1.0351553
		c10.015213,6.5464888,21.2102203,10.5996943,32.1522522,15.1752443c3.9647369,1.6579075,7.8065491,3.5749054,11.7430115,5.2901115
		c1.6351929,0.7124977,2.7434998,2.2689476,4.1796417,3.3404427c3.1261292,2.3323669,5.8217316,5.1096878,8.1725159,8.219841
		c4.8403473,6.4038811,7.573822,13.7226105,9.31427,21.4695435c0.648407,2.8861542,1.1841888,5.7966232,1.4676514,8.7398987
		c0.558075,5.7943726,2.3274994,11.3395309,3.417038,17.0236282c1.1276703,5.8830719,1.9454803,11.8155975,2.8697968,17.7311859
		c-4.8697662,1.3711243-9.7276459,2.7584534-14.7245636,3.6553421c-3.059433,0.5491333-6.129364,1.0498962-9.1941071,1.5534821
		c-2.4351196,0.4001312-4.9387207,0.1601944-7.4136963,0.1605759c-3.8368988,0.0005951-7.6494446-0.2201309-11.4201355-0.9681702
		c0.397995-4.4217834,1.3395386-8.752449,2.2377777-13.0872345c0.5362396-2.5878677,1.2085876-5.1475754,1.8197479-7.7199402
		c-0.3908234,0.3567734-0.6051025,0.7716446-0.789444,1.1994095c-1.7770233,4.123909-3.0289459,8.4271622-4.175827,12.7510147
		c-2.369339,8.9325562-3.8379822,18.0407791-4.8481293,27.214325c-0.5737305,5.2101593-0.938385,10.4479065-1.2374268,15.6823578
		c-0.2820282,4.936264-0.494751,9.884491-0.4939728,14.8274231c0.002655,16.9393768-0.2863922,33.8787994,0.1625824,50.819046
		c0.193512,7.3013306,0.2618408,14.6057129,0.5153046,21.9078064c0.1688232,4.8633728,0.3232422,9.7277069,0.4854279,14.5916138
		c0.1993561,5.9791107,0.4654694,11.9532013,0.7395935,17.9288177c0.2303009,5.019989,0.4219818,10.0404358,0.8112488,15.0513
		c-7.654129,1.0700073-15.3581696,1.3612976-23.0732422,1.452179c-12.9472198,0.1525269-25.8881378,0.5621948-38.8300934,0.9285889
		c-6.7608643,0.1913757-13.4958572-0.4653015-20.2470093-0.5768433c-8.7106018-0.1439514-17.4220123-0.2460632-26.1319199-0.4232178
		c-8.3101959-0.1690063-16.6230583-0.3525085-24.8476906-1.7511292c0.5418816-3.7588501,0.4816322-7.5588074,0.7390099-11.3370361
		c0.3820381-5.6081238,0.5792046-11.2305908,0.7604103-16.8500214c0.1427193-4.4258575,0.2925491-8.8505402,0.4726982-13.2752838
		c0.2548981-6.2610779,0.389267-12.5274048,0.5358238-18.7924042c0.0933838-3.9920197,0.1545982-7.9874725,0.1912727-11.9777985
		c0.131134-14.2671509,0.0807762-28.5359955,0.0866127-42.8041992c0.0009117-2.2374725-0.0170631-4.4768066-0.1053925-6.7121582
		c-0.2500496-6.3277893-0.3140182-12.664093-0.8974266-18.9772339c-0.2267075-2.4532471-0.2513618-4.9276428-0.5398026-7.3721466
		c-0.5810051-4.9239349-1.1191139-9.8507843-2.0031929-14.7410049c-1.0833206-5.9923477-2.1588326-11.9780273-3.9337807-17.8119583
		c-0.6581345-2.1631546-1.2049675-4.3685989-2.1506424-6.554039c-0.5832481,0.8811417,0.16119,1.4419861,0.2478676,2.0992279
		c0.4439659,3.3662796,1.0535736,6.7120743,1.4424057,10.0838013
		C42.3154945,111.0284653,43.1100464,113.4209595,42.907505,115.9281998z"></path>
</g>
<g onclick="select(this)" class="" id="estampa-secundaria" fill="#000000">
	<path d="M100.0137329,106.0974121v26.4266968l0.8812866-0.7142944v-26.4299927L100.0137329,106.0974121z
		 M97.0887451,108.4790649v26.4157715l0.9000244-0.7294922v-26.4191284L97.0887451,108.4790649z M94.2537231,110.7874756v26.4050903
		l0.8550415-0.6929932v-26.4083252L94.2537231,110.7874756z M77.8775024,124.1220093l-0.9675293,0.7878418v26.3399658
		l0.9675293-0.7841797V124.1220093z M78.4400024,123.6640015v26.3457031l0.8549805-0.6929932v-26.348938L78.4400024,123.6640015z
		 M79.8574829,122.5097656v26.3510742l0.8775024-0.7112427v-26.3543701L79.8574829,122.5097656z M81.2974854,121.3372192v26.3564453
		l0.8550415-0.6929932v-26.3596802L81.2974854,121.3372192z M82.7150269,120.1829834v26.3618164l0.8549805-0.6929932v-26.3649902
		L82.7150269,120.1829834z M84.1325073,119.0287476v26.3671265l0.8999634-0.7294312v-26.3704834L84.1325073,119.0287476z
		 M85.5949707,117.8379517v26.3726196l0.9000244-0.7294922v-26.3759766L85.5949707,117.8379517z M87.0574951,116.6470947v26.3780518
		l0.8887329-0.7203369v-26.3814087L87.0574951,116.6470947z M88.508728,115.4653931v26.3834839l0.8550415-0.6929932V114.769165
		L88.508728,115.4653931z M89.9262695,114.3111572v26.388855l0.9074707-0.7355347v-26.3922729L89.9262695,114.3111572z
		 M91.3962402,113.1141968v26.3944092l0.8549805-0.6929932v-26.397583L91.3962402,113.1141968z M92.8137207,111.960022v26.3997192
		l0.8775024-0.7112427v-26.4030151L92.8137207,111.960022z M95.6712646,109.6332397v26.4104614l0.8549805-0.6929932v-26.4136353
		L95.6712646,109.6332397z M98.5512695,107.288208v26.4212036l0.8999634-0.7294312v-26.4245605L98.5512695,107.288208z
		 M77.2231064,97.7860794h0.3168945v26.8687897h-0.3168945V97.7860794z M78.7090454,96.6310806h0.3168945v26.8687897h-0.3168945
		V96.6310806z M80.0740585,95.6164322h0.3168945v26.8687897h-0.3168945V95.6164322z M81.5599976,94.4614334h0.3168945v26.8687897
		h-0.3168945V94.4614334z M82.9831085,93.1360779h0.3168945v26.8687897h-0.3168945V93.1360779z M84.4690475,91.9810791h0.3168945
		v26.8687897h-0.3168945V91.9810791z M85.8340607,90.9664383h0.3168945v26.8687897h-0.3168945V90.9664383z M87.3199997,89.8114319
		h0.3168945v26.8687897h-0.3168945V89.8114319z M88.7281036,88.3390121h0.3168945v26.8687897h-0.3168945V88.3390121z
		 M90.2140427,87.1840057h0.3168945v26.8687897h-0.3168945V87.1840057z M91.5790634,86.1693649h0.3168945v26.8687897h-0.3168945
		V86.1693649z M93.0650024,85.0143661h0.3168945v26.8687897h-0.3168945V85.0143661z M94.4881058,83.6890106h0.3168945v26.8687897
		h-0.3168945V83.6890106z M95.9740448,82.5340118h0.3168945v26.8687897h-0.3168945V82.5340118z M97.3390579,81.5193634h0.3168945
		v26.8687897h-0.3168945V81.5193634z M98.8249969,80.3643646h0.3168945v26.8687897h-0.3168945V80.3643646z M100.295929,79.0593643
		h0.3168945v26.8687897h-0.3168945V79.0593643z M100.0137329,53.6713562V80.098053l0.8812866-0.7142944V52.9537659
		L100.0137329,53.6713562z M97.0887451,56.053009v26.4157715l0.9000244-0.7294922V55.3201599L97.0887451,56.053009z
		 M94.2537231,58.3614197V84.76651l0.8550415-0.6929932V57.6651917L94.2537231,58.3614197z M77.8775024,71.6959534
		l-0.9675293,0.7878418V98.823761l0.9675293-0.7841797V71.6959534z M78.4400024,71.2379456v26.3457031l0.8549805-0.6929932
		v-26.348938L78.4400024,71.2379456z M79.8574829,70.0837097v26.3510742l0.8775024-0.7112427V69.3691711L79.8574829,70.0837097z
		 M81.2974854,68.9111633v26.3564453l0.8550415-0.6929932V68.2149353L81.2974854,68.9111633z M82.7150269,67.7569275v26.3618164
		l0.8549805-0.6929932V67.0607605L82.7150269,67.7569275z M84.1325073,66.6026917v26.3671265l0.8999634-0.7294312V65.8699036
		L84.1325073,66.6026917z M85.5949707,65.4118958v26.3726196l0.9000244-0.7294922V64.6790466L85.5949707,65.4118958z
		 M87.0574951,64.2210388v26.3780518l0.8887329-0.7203369V63.497345L87.0574951,64.2210388z M88.508728,63.0393372V89.422821
		l0.8550415-0.6929932V62.3431091L88.508728,63.0393372z M89.9262695,61.8851013v26.388855l0.9074707-0.7355347V61.1461487
		L89.9262695,61.8851013z M91.3962402,60.6881409V87.08255l0.8549805-0.6929932v-26.397583L91.3962402,60.6881409z
		 M92.8137207,59.5339661v26.3997192l0.8775024-0.7112427V58.8194275L92.8137207,59.5339661z M95.6712646,57.2071838v26.4104614
		l0.8549805-0.6929932V56.5110168L95.6712646,57.2071838z M98.5512695,54.8621521v26.4212036l0.8999634-0.7294312V54.129364
		L98.5512695,54.8621521z M77.2231064,45.3600235h0.3168945v26.8687897h-0.3168945V45.3600235z M78.7090454,44.2050247h0.3168945
		v26.8687897h-0.3168945V44.2050247z M80.0740585,43.1903763h0.3168945V70.059166h-0.3168945V43.1903763z M81.5599976,42.0353775
		h0.3168945v26.8687897h-0.3168945V42.0353775z M82.9831085,40.710022h0.3168945v26.8687897h-0.3168945V40.710022z
		 M84.4690475,39.5550232h0.3168945v26.8687897h-0.3168945V39.5550232z M85.8340607,38.5403824h0.3168945v26.8687897h-0.3168945
		V38.5403824z M87.3199997,37.385376h0.3168945v26.8687897h-0.3168945V37.385376z M88.7281036,35.9129562h0.3168945v26.8687897
		h-0.3168945V35.9129562z M90.2140427,34.7579498h0.3168945v26.8687897h-0.3168945V34.7579498z M91.5790634,33.743309h0.3168945
		v26.8687897h-0.3168945V33.743309z M93.0650024,32.5883102h0.3168945v26.8687897h-0.3168945V32.5883102z M94.8050003,31.6023312
		v26.5294132h-0.3168945V31.7687321L94.8050003,31.6023312z M96.2909393,30.2612591v26.7154865h-0.3168945V30.3648319
		L96.2909393,30.2612591z M97.6559525,29.6266365v26.3354607h-0.3168945V29.8398323L97.6559525,29.6266365z M99.1418915,28.699831
		v26.1072674h-0.3168945V28.699831H99.1418915z M100.6128235,27.5898323v25.9122658h-0.3168945V27.7398319L100.6128235,27.5898323z
		 M76.9099731,23.5248318v22.4978733l0.9675293-0.7841797V22.9098358L76.9099731,23.5248318z M78.4400024,22.6548271v22.1277657
		l0.8549805-0.6929932V22.1148319L78.4400024,22.6548271z M79.8574829,21.8298302V43.633728l0.8775024-0.7112427V21.1548328
		L79.8574829,21.8298302z M81.2974854,20.9598312v21.5067215l0.8550415-0.6929932V20.3748322L81.2974854,20.9598312z
		 M82.7150269,19.8948307V41.317688l0.8549805-0.6929932V19.2048321L82.7150269,19.8948307z M84.1325073,18.6798325v21.4889297
		l0.8999634-0.7294312V18.034832L84.1325073,18.6798325z M85.6062241,17.2698307v21.7586269l0.9000244-0.7294922V16.8498306
		L85.6062241,17.2698307z M87.0604935,15.2734385l-0.0029984,22.5245972l0.8887329-0.7203369V16.4545383L87.0604935,15.2734385z
		 M88.508728,16.8498306v19.7719345l0.8550415-0.6929932V17.7198315L88.508728,16.8498306z M89.9262695,18.034832v17.4380684
		l0.9074707-0.7355347V18.8448315L89.9262695,18.034832z M91.3962402,19.3623314v14.9191628l0.8549805-0.6929932V20.0598316
		L91.3962402,19.3623314z M92.8137207,20.4648323v12.6677971l0.8775024-0.7112427v-11.274353L92.8137207,20.4648323z
		 M100.0137329,158.8839722v26.4266968l0.8812866-0.7142944v-26.4299927L100.0137329,158.8839722z M97.0887451,161.265625
		v26.4157715l0.9000244-0.7294922v-26.4191284L97.0887451,161.265625z M94.2537231,163.5740356v26.4050903l0.8550415-0.6929932
		v-26.4083252L94.2537231,163.5740356z M77.8775024,176.9085693l-0.9675293,0.7878418v26.3399658l0.9675293-0.7841797V176.9085693z
		 M78.4400024,176.4505615v26.3457031l0.8549805-0.6929932v-26.348938L78.4400024,176.4505615z M79.8574829,175.2963257v26.3510742
		l0.8775024-0.7112427v-26.3543701L79.8574829,175.2963257z M81.2974854,174.1237793v26.3564453l0.8550415-0.6929932v-26.3596802
		L81.2974854,174.1237793z M82.7150269,172.9695435v26.3618164l0.8549805-0.6929932v-26.3649902L82.7150269,172.9695435z
		 M84.1325073,171.8153076v26.3671265l0.8999634-0.7294312v-26.3704834L84.1325073,171.8153076z M85.5949707,170.6245117v26.3726196
		l0.9000244-0.7294922v-26.3759766L85.5949707,170.6245117z M87.0574951,169.4336548v26.3780518l0.8887329-0.7203369v-26.3814087
		L87.0574951,169.4336548z M88.508728,168.2519531v26.3834839l0.8550415-0.6929932v-26.3867188L88.508728,168.2519531z
		 M89.9262695,167.0977173v26.388855l0.9074707-0.7355347v-26.3922729L89.9262695,167.0977173z M91.3962402,165.9007568v26.3944092
		l0.8549805-0.6929932v-26.397583L91.3962402,165.9007568z M92.8137207,164.746582v26.3997192l0.8775024-0.7112427v-26.4030151
		L92.8137207,164.746582z M95.6712646,162.4197998v26.4104614l0.8549805-0.6929932v-26.4136353L95.6712646,162.4197998z
		 M98.5512695,160.0747681v26.4212036l0.8999634-0.7294312V159.34198L98.5512695,160.0747681z M77.2231064,150.5726318h0.3168945
		v26.8687897h-0.3168945V150.5726318z M78.7090454,149.4176331h0.3168945v26.8687897h-0.3168945V149.4176331z
		 M80.0740585,148.4029846h0.3168945v26.8687897h-0.3168945V148.4029846z M81.5599976,147.2479858h0.3168945v26.8687897h-0.3168945
		V147.2479858z M82.9831085,145.9226379h0.3168945v26.8687897h-0.3168945V145.9226379z M84.4690475,144.7676392h0.3168945
		v26.8687897h-0.3168945V144.7676392z M85.8340607,143.7529907h0.3168945v26.8687897h-0.3168945V143.7529907z
		 M87.3199997,142.5979919h0.3168945v26.8687897h-0.3168945V142.5979919z M88.7281036,141.1255646h0.3168945v26.8687897h-0.3168945
		V141.1255646z M90.2140427,139.9705658h0.3168945v26.8687897h-0.3168945V139.9705658z M91.5790634,138.9559174h0.3168945
		v26.8687897h-0.3168945V138.9559174z M93.0650024,137.8009186h0.3168945v26.8687897h-0.3168945V137.8009186z
		 M94.4881058,136.4755554h0.3168945v26.8687897h-0.3168945V136.4755554z M95.9740448,135.3205566h0.3168945v26.8687897h-0.3168945
		V135.3205566z M97.3390579,134.3059235h0.3168945v26.8687897h-0.3168945V134.3059235z M98.8249969,133.1509094h0.3168945
		v26.8687897h-0.3168945V133.1509094z M100.295929,131.8459167h0.3168945v26.8687897h-0.3168945V131.8459167z
		 M100.0137329,211.670517v26.4266968l0.8812866-0.7142944v-26.4299927L100.0137329,211.670517z M97.0887451,214.0521698v26.4157715
		l0.9000244-0.7294922v-26.4191284L97.0887451,214.0521698z M94.2537231,216.3605804v26.4050903l0.8550415-0.6929932v-26.4083252
		L94.2537231,216.3605804z M77.8775024,229.6951141l-0.9675293,0.7878418v26.3399811l0.9675293-0.7841797V229.6951141z
		 M78.4400024,229.2371063v26.3457031l0.8549805-0.6929932v-26.348938L78.4400024,229.2371063z M79.8574829,228.0828705v26.3510742
		l0.8775024-0.7112427v-26.3543701L79.8574829,228.0828705z M81.2974854,226.9103241v26.3564453l0.8550415-0.6929932v-26.3596802
		L81.2974854,226.9103241z M82.7150269,225.7560883v26.3618164l0.8549805-0.6929932v-26.3649902L82.7150269,225.7560883z
		 M84.1325073,224.6018524v26.3671265l0.8999634-0.7294312v-26.3704834L84.1325073,224.6018524z M85.5949707,223.4110565v26.3726196
		l0.9000244-0.7294922v-26.3759766L85.5949707,223.4110565z M87.0574951,222.2201996v26.3780518l0.8887329-0.7203369v-26.3814087
		L87.0574951,222.2201996z M88.508728,221.0384979v26.3834839l0.8550415-0.6929932v-26.3867188L88.508728,221.0384979z
		 M89.9262695,219.8842621v26.388855l0.9074707-0.7355347v-26.3922729L89.9262695,219.8842621z M91.3962402,218.6873016v26.3944092
		l0.8549805-0.6929932v-26.397583L91.3962402,218.6873016z M92.8137207,217.5331268v26.3997192l0.8775024-0.7112427v-26.4030151
		L92.8137207,217.5331268z M95.6712646,215.2063446v26.4104614l0.8549805-0.6929932v-26.4136353L95.6712646,215.2063446z
		 M98.5512695,212.8613129v26.4212036l0.8999634-0.7294312v-26.4245605L98.5512695,212.8613129z M77.2231064,203.3591919h0.3168945
		v26.8687897h-0.3168945V203.3591919z M78.7090454,202.2041931h0.3168945v26.8687897h-0.3168945V202.2041931z
		 M80.0740585,201.1895447h0.3168945v26.8687897h-0.3168945V201.1895447z M81.5599976,200.0345459h0.3168945v26.8687897h-0.3168945
		V200.0345459z M82.9831085,198.7091827h0.3168945v26.8687897h-0.3168945V198.7091827z M84.4690475,197.554184h0.3168945v26.8687897
		h-0.3168945V197.554184z M85.8340607,196.5395508h0.3168945v26.8687897h-0.3168945V196.5395508z M87.3199997,195.3845367h0.3168945
		v26.8687897h-0.3168945V195.3845367z M88.7281036,193.9121094h0.3168945v26.8687897h-0.3168945V193.9121094z
		 M90.2140427,192.7571106h0.3168945v26.8687897h-0.3168945V192.7571106z M91.5790634,191.7424774h0.3168945v26.8687897h-0.3168945
		V191.7424774z M93.0650024,190.5874634h0.3168945v26.8687897h-0.3168945V190.5874634z M94.4881058,189.2621155h0.3168945
		v26.8687897h-0.3168945V189.2621155z M95.9740448,188.1071167h0.3168945v26.8687897h-0.3168945V188.1071167z
		 M97.3390579,187.0924683h0.3168945v26.8687897h-0.3168945V187.0924683z M98.8249969,185.9374695h0.3168945v26.8687897h-0.3168945
		V185.9374695z M100.295929,184.6324768h0.3168945v26.8687897h-0.3168945V184.6324768z M100.0137329,263.7505188V285.9263
		l0.8812866,0.0358276v-22.9291992L100.0137329,263.7505188z M97.0887451,266.1321716v19.6838074l0.9000244,0.033783v-20.4504395
		L97.0887451,266.1321716z M94.2537231,268.4405823v17.2724915l0.8550415,0.0302734v-17.9989929L94.2537231,268.4405823z
		 M77.8775024,281.775116l-0.9675293,0.7878418v2.8771362l0.9675293,0.0057373V281.775116z M78.4400024,281.3171082v4.1313782
		l0.8549805,0.0031433v-4.8307495L78.4400024,281.3171082z M79.8574829,280.1628723v5.2902832l0.8775024,0.0015869v-6.0064087
		L79.8574829,280.1628723z M81.2974854,278.9903259v6.4649963l0.8550415,0.0004883v-7.1617126L81.2974854,278.9903259z
		 M82.7150269,277.8360901v7.6211548l0.8549805,0.0047607v-8.3220825L82.7150269,277.8360901z M84.1325073,276.6818542v8.7848511
		l0.8999634,0.0100098v-9.5276489L84.1325073,276.6818542z M85.5949707,275.4910583v9.9933777l0.9000244,0.0146179v-10.7408447
		L85.5949707,275.4910583z M87.0574951,274.3002014v11.2093201l0.8887329,0.0184631v-11.9514771L87.0574951,274.3002014z
		 M88.508728,273.1184998v12.4223633l0.8550415,0.0211792v-13.1397705L88.508728,273.1184998z M89.9262695,271.9642639v13.6127014
		l0.9074707,0.0256042v-14.3772583L89.9262695,271.9642639z M91.3962402,270.7673035v14.8520508l0.8549805,0.0266418v-15.5748596
		L91.3962402,270.7673035z M92.8137207,269.6131287v16.0510864l0.8775024,0.0294495v-16.7950745L92.8137207,269.6131287z
		 M95.6712646,267.2863464v18.4773254l0.8549805,0.0314026v-19.204895L95.6712646,267.2863464z M98.5512695,264.9413147v20.9296875
		l0.8999634,0.0340576v-21.6965332L98.5512695,264.9413147z M77.2231064,255.4391937h0.3168945v26.8687897h-0.3168945V255.4391937z
		 M78.7090454,254.2841949h0.3168945v26.8687897h-0.3168945V254.2841949z M80.0740585,253.2695465h0.3168945v26.8687897h-0.3168945
		V253.2695465z M81.5599976,252.1145477h0.3168945v26.8687897h-0.3168945V252.1145477z M82.9831085,250.7891846h0.3168945
		v26.8687744h-0.3168945V250.7891846z M84.4690475,249.6341858h0.3168945v26.8687744h-0.3168945V249.6341858z
		 M85.8340607,248.6195526h0.3168945v26.8687897h-0.3168945V248.6195526z M87.3199997,247.4645386h0.3168945v26.8687744h-0.3168945
		V247.4645386z M88.7281036,245.9921112h0.3168945v26.8687897h-0.3168945V245.9921112z M90.2140427,244.8371124h0.3168945
		v26.8687897h-0.3168945V244.8371124z M91.5790634,243.8224792h0.3168945v26.8687744h-0.3168945V243.8224792z
		 M93.0650024,242.6674652h0.3168945v26.8687897h-0.3168945V242.6674652z M94.4881058,241.3421173h0.3168945v26.8687897h-0.3168945
		V241.3421173z M95.9740448,240.1871185h0.3168945v26.8687897h-0.3168945V240.1871185z M97.3390579,239.1724701h0.3168945
		v26.8687897h-0.3168945V239.1724701z M98.8249969,238.0174713h0.3168945v26.8687897h-0.3168945V238.0174713z
		 M100.295929,236.7124786h0.3168945v26.8687897h-0.3168945V236.7124786z M148.1937256,131.747406v26.4266968l0.8812866-0.7142944
		v-26.4299927L148.1937256,131.747406z M145.2687378,134.1290588v26.4157715l0.9000244-0.7294922v-26.4191284
		L145.2687378,134.1290588z M142.4337158,136.4374695v26.4050903l0.8550415-0.6929932v-26.4083252L142.4337158,136.4374695z
		 M126.0575027,149.7720032l-0.9675293,0.7878418v26.3399658l0.9675293-0.7841797V149.7720032z M126.6200027,149.3139954v26.3457031
		l0.8549805-0.6929932v-26.348938L126.6200027,149.3139954z M128.0374756,148.1597595v26.3510742l0.8775024-0.7112427v-26.3543701
		L128.0374756,148.1597595z M129.477478,146.9872131v26.3564453l0.8550415-0.6929932v-26.3596802L129.477478,146.9872131z
		 M130.8950195,145.8329773v26.3618164L131.75,171.5018005v-26.3649902L130.8950195,145.8329773z M132.3125,144.6787415v26.3671265
		l0.8999634-0.7294312v-26.3704834L132.3125,144.6787415z M133.7749634,143.4879456v26.3726196l0.9000244-0.7294922v-26.3759766
		L133.7749634,143.4879456z M135.2374878,142.2970886v26.3780518l0.8887329-0.7203369v-26.3814087L135.2374878,142.2970886z
		 M136.6887207,141.115387v26.3834839l0.8550415-0.6929932v-26.3867188L136.6887207,141.115387z M138.1062622,139.9611511v26.388855
		l0.9074707-0.7355347v-26.3922729L138.1062622,139.9611511z M139.5762329,138.7641907v26.3944092l0.8549805-0.6929932v-26.397583
		L139.5762329,138.7641907z M140.9937134,137.6100159v26.3997192l0.8775024-0.7112427v-26.4030151L140.9937134,137.6100159z
		 M143.8512573,135.2832336v26.4104614l0.8549805-0.6929932v-26.4136353L143.8512573,135.2832336z M146.7312622,132.9382019
		v26.4212036l0.8999634-0.7294312v-26.4245605L146.7312622,132.9382019z M125.4031067,123.4360809h0.3168945v26.8687897h-0.3168945
		V123.4360809z M126.8890457,122.2810822h0.3168945v26.8687897h-0.3168945V122.2810822z M128.2540588,121.2664337h0.3168945
		v26.8687897h-0.3168945V121.2664337z M129.7399902,120.1114349h0.3168945v26.8687897h-0.3168945V120.1114349z
		 M131.1631012,118.7860794h0.3168945v26.868782h-0.3168945V118.7860794z M132.6490479,117.6310806h0.3168945v26.868782h-0.3168945
		V117.6310806z M134.0140533,116.6164398h0.3168945v26.8687897h-0.3168945V116.6164398z M135.5,115.4614334h0.3168945v26.868782
		H135.5V115.4614334z M136.9080963,113.9890137h0.3168945v26.8687897h-0.3168945V113.9890137z M138.394043,112.8340073h0.3168945
		v26.868782h-0.3168945V112.8340073z M139.7590637,111.8193665h0.3168945v26.8687897h-0.3168945V111.8193665z
		 M141.2449951,110.6643677h0.3168945v26.8687897h-0.3168945V110.6643677z M142.6681061,109.3390121h0.3168945v26.868782h-0.3168945
		V109.3390121z M144.1540375,108.1840134h0.3168945v26.868782h-0.3168945V108.1840134z M145.5190582,107.1693649h0.3168945
		v26.868782h-0.3168945V107.1693649z M147.0049896,106.0143661h0.3168945v26.868782h-0.3168945V106.0143661z
		 M148.4759216,104.7093658h0.3168945v26.8687897h-0.3168945V104.7093658z M148.1937256,79.3213577v26.4266968l0.8812866-0.7142944
		V78.6037674L148.1937256,79.3213577z M145.2687378,81.7030106v26.4157715l0.9000244-0.7294922V80.9701614L145.2687378,81.7030106z
		 M142.4337158,84.0114212v26.4050903l0.8550415-0.6929932V83.3151932L142.4337158,84.0114212z M126.0575027,97.3459549
		l-0.9675293,0.7878418v26.3399658l0.9675293-0.7841797V97.3459549z M126.6200027,96.8879471v26.3457031l0.8549805-0.6929932
		v-26.348938L126.6200027,96.8879471z M128.0374756,95.7337112v26.3510742l0.8775024-0.7112427V95.0191727L128.0374756,95.7337112z
		 M129.477478,94.5611649v26.3564453l0.8550415-0.6929932V93.8649368L129.477478,94.5611649z M130.8950195,93.406929v26.3618164
		L131.75,119.0757523V92.710762L130.8950195,93.406929z M132.3125,92.2526932v26.3671265l0.8999634-0.7294312V91.5199051
		L132.3125,92.2526932z M133.7749634,91.0618973v26.3726196l0.9000244-0.7294922V90.3290482L133.7749634,91.0618973z
		 M135.2374878,89.8710403v26.3780518l0.8887329-0.7203369V89.1473465L135.2374878,89.8710403z M136.6887207,88.6893387v26.3834839
		l0.8550415-0.6929932V87.9931107L136.6887207,88.6893387z M138.1062622,87.5351028v26.388855l0.9074707-0.7355347V86.7961502
		L138.1062622,87.5351028z M139.5762329,86.3381424v26.3944092l0.8549805-0.6929932v-26.397583L139.5762329,86.3381424z
		 M140.9937134,85.1839676v26.3997192l0.8775024-0.7112427V84.469429L140.9937134,85.1839676z M143.8512573,82.8571854v26.4104614
		l0.8549805-0.6929932V82.1610184L143.8512573,82.8571854z M146.7312622,80.5121536v26.4212036l0.8999634-0.7294312V79.7793655
		L146.7312622,80.5121536z M125.4031067,71.010025h0.3168945v26.8687897h-0.3168945V71.010025z M126.8890457,69.8550262h0.3168945
		v26.8687897h-0.3168945V69.8550262z M128.2540588,68.8403778h0.3168945v26.8687897h-0.3168945V68.8403778z M129.7399902,67.685379
		h0.3168945v26.8687897h-0.3168945V67.685379z M131.1631012,66.3600235h0.3168945v26.8687897h-0.3168945V66.3600235z
		 M132.6490479,65.2050247h0.3168945v26.8687897h-0.3168945V65.2050247z M134.0140533,64.1903839h0.3168945v26.8687897h-0.3168945
		V64.1903839z M135.5,63.0353775h0.3168945v26.8687897H135.5V63.0353775z M136.9080963,61.5629578h0.3168945v26.8687897h-0.3168945
		V61.5629578z M138.394043,60.4079514h0.3168945V87.276741h-0.3168945V60.4079514z M139.7590637,59.3933105h0.3168945v26.8687897
		h-0.3168945V59.3933105z M141.2449951,58.2383118h0.3168945v26.8687897h-0.3168945V58.2383118z M142.6681061,56.9129562h0.3168945
		v26.8687897h-0.3168945V56.9129562z M144.1540375,55.7579575h0.3168945v26.8687897h-0.3168945V55.7579575z M145.5190582,54.743309
		h0.3168945v26.8687897h-0.3168945V54.743309z M147.0049896,53.5883102h0.3168945v26.8687897h-0.3168945V53.5883102z
		 M148.4759216,52.2833099h0.3168945v26.8687897h-0.3168945V52.2833099z M148.1937256,26.5202999v26.4266987l0.8812866-0.7142944
		V25.8027096L148.1937256,26.5202999z M145.2687378,28.9019527v26.4157734l0.9000244-0.7294922V28.1691036L145.2687378,28.9019527z
		 M142.4337158,31.2103634v26.4050922l0.8550415-0.6929932V30.5141354L142.4337158,31.2103634z M126.0575027,44.544899
		l-0.9675293,0.7878418v26.3399658l0.9675293-0.7841797V44.544899z M126.6200027,44.0868912v26.3457031l0.8549805-0.6929932
		v-26.348938L126.6200027,44.0868912z M128.0374756,42.9326553v26.3510742l0.8775024-0.7112427V42.2181168L128.0374756,42.9326553z
		 M129.477478,41.7601089v26.3564453l0.8550415-0.6929932V41.0638809L129.477478,41.7601089z M130.8950195,40.6058731v26.3618164
		L131.75,66.2746964V39.9097061L130.8950195,40.6058731z M132.3125,39.4516373v26.3671265l0.8999634-0.7294312V38.7188492
		L132.3125,39.4516373z M133.7749634,38.2608414V64.633461l0.9000244-0.7294922V37.5279922L133.7749634,38.2608414z
		 M135.2374878,37.0699844v26.3780518l0.8887329-0.7203369V36.3462906L135.2374878,37.0699844z M136.6887207,35.8882828v26.3834839
		l0.8550415-0.6929932V35.1920547L136.6887207,35.8882828z M138.1062622,34.7340469v26.388855l0.9074707-0.7355347V33.9950943
		L138.1062622,34.7340469z M139.5762329,33.5370865v26.3944092l0.8549805-0.6929932v-26.397583L139.5762329,33.5370865z
		 M140.9937134,32.3829117v26.3997192l0.8775024-0.7112427v-26.403017L140.9937134,32.3829117z M143.8512573,30.0561275v26.4104633
		l0.8549805-0.6929932V29.3599606L143.8512573,30.0561275z M146.7312622,27.7110958v26.4212055l0.8999634-0.7294312V26.9783077
		L146.7312622,27.7110958z M125.7200012,25.7598324v19.3179264h-0.3168945V25.9698315L125.7200012,25.7598324z
		 M127.2059402,25.0398312V43.92276h-0.3168945V25.2798309L127.2059402,25.0398312z M128.5709534,24.3798275v18.5282841h-0.3168945
		v-18.34828L128.5709534,24.3798275z M130.0568848,23.659832v18.0932808h-0.3168945V23.8398323L130.0568848,23.659832z
		 M131.4799957,22.7598324v17.6679249h-0.3168945v-17.337925L131.4799957,22.7598324z M132.9659424,21.7698326v17.5029259
		h-0.3168945V22.0398312L132.9659424,21.7698326z M134.3309479,20.7798309v17.4782867h-0.3168945v-17.238287L134.3309479,20.7798309
		z M135.8168945,19.5498314v17.5532799H135.5V19.8498306L135.8168945,19.5498314z M137.2249908,18.3198318v17.3108597h-0.3168945
		V18.6498318L137.2249908,18.3198318z M138.7109375,16.9398308v17.5358543h-0.3168945V17.2998314L138.7109375,16.9398308z
		 M140.0759583,15.5898314v17.871212h-0.3168945V15.9798317L140.0759583,15.5898314z M141.5618896,16.9398308v15.3662148h-0.3168945
		V16.5498314L141.5618896,16.9398308z M142.9850006,17.9598312v13.0208569h-0.3168945V17.659832L142.9850006,17.9598312z
		 M144.470932,19.2498322v10.5758572h-0.3168945V18.5598316L144.470932,19.2498322z M145.8359528,20.3298321v8.4812088h-0.3168945
		v-9.2612095L145.8359528,20.3298321z M147.3218842,22.0054379v5.6506042h-0.3168945v-5.8862095L147.3218842,22.0054379z
		 M148.7928162,22.9098301v3.4412117h-0.3168945v-3.883709L148.7928162,22.9098301z M148.1937256,184.5339661v26.4266968
		l0.8812866-0.7142944v-26.4299927L148.1937256,184.5339661z M145.2687378,186.9156189v26.4157715l0.9000244-0.7294922v-26.4191284
		L145.2687378,186.9156189z M142.4337158,189.2240295v26.4050903l0.8550415-0.6929932v-26.4083252L142.4337158,189.2240295z
		 M126.0575027,202.5585632l-0.9675293,0.7878418v26.3399658l0.9675293-0.7841797V202.5585632z M126.6200027,202.1005554v26.3457031
		l0.8549805-0.6929932v-26.348938L126.6200027,202.1005554z M128.0374756,200.9463196v26.3510742l0.8775024-0.7112427V200.231781
		L128.0374756,200.9463196z M129.477478,199.7737732v26.3564453l0.8550415-0.6929932v-26.3596802L129.477478,199.7737732z
		 M130.8950195,198.6195374v26.3618164L131.75,224.2883606v-26.3649902L130.8950195,198.6195374z M132.3125,197.4653015v26.3671265
		l0.8999634-0.7294312v-26.3704834L132.3125,197.4653015z M133.7749634,196.2745056v26.3726196l0.9000244-0.7294922v-26.3759766
		L133.7749634,196.2745056z M135.2374878,195.0836487v26.3780518l0.8887329-0.7203369v-26.3814087L135.2374878,195.0836487z
		 M136.6887207,193.901947v26.3834839l0.8550415-0.6929932V193.205719L136.6887207,193.901947z M138.1062622,192.7477112v26.388855
		l0.9074707-0.7355347v-26.3922729L138.1062622,192.7477112z M139.5762329,191.5507507v26.3944092l0.8549805-0.6929932v-26.397583
		L139.5762329,191.5507507z M140.9937134,190.3965759v26.3997192l0.8775024-0.7112427v-26.4030151L140.9937134,190.3965759z
		 M143.8512573,188.0697937v26.4104614l0.8549805-0.6929932v-26.4136353L143.8512573,188.0697937z M146.7312622,185.724762
		v26.4212036l0.8999634-0.7294312v-26.4245605L146.7312622,185.724762z M125.4031067,176.2226257h0.3168945v26.8687897h-0.3168945
		V176.2226257z M126.8890457,175.067627h0.3168945v26.8687897h-0.3168945V175.067627z M128.2540588,174.0529785h0.3168945
		v26.8687897h-0.3168945V174.0529785z M129.7399902,172.8979797h0.3168945v26.8687897h-0.3168945V172.8979797z
		 M131.1631012,171.5726318h0.3168945v26.8687897h-0.3168945V171.5726318z M132.6490479,170.4176331h0.3168945v26.8687897
		h-0.3168945V170.4176331z M134.0140533,169.4029846h0.3168945v26.8687897h-0.3168945V169.4029846z M135.5,168.2479858h0.3168945
		v26.8687897H135.5V168.2479858z M136.9080963,166.7755585h0.3168945v26.8687897h-0.3168945V166.7755585z M138.394043,165.6205597
		h0.3168945v26.8687897h-0.3168945V165.6205597z M139.7590637,164.6059113h0.3168945v26.8687897h-0.3168945V164.6059113z
		 M141.2449951,163.4509125h0.3168945v26.8687897h-0.3168945V163.4509125z M142.6681061,162.1255493h0.3168945v26.8687897
		h-0.3168945V162.1255493z M144.1540375,160.9705505h0.3168945v26.8687897h-0.3168945V160.9705505z M145.5190582,159.9559174
		h0.3168945v26.8687897h-0.3168945V159.9559174z M147.0049896,158.8009033h0.3168945v26.8687897h-0.3168945V158.8009033z
		 M148.4759216,157.4959106h0.3168945v26.8687897h-0.3168945V157.4959106z M148.1937256,237.3205109v26.426712l0.8812866-0.7142944
		v-26.4300079L148.1937256,237.3205109z M145.2687378,239.7021637v26.4157867l0.9000244-0.7294922v-26.4191437
		L145.2687378,239.7021637z M142.4337158,242.0105743v26.4051056l0.8550415-0.6929932v-26.4083405L142.4337158,242.0105743z
		 M126.0575027,255.345108l-0.9675293,0.7878571v26.3399658l0.9675293-0.7841797V255.345108z M126.6200027,254.8871002v26.3457184
		l0.8549805-0.6929932v-26.3489532L126.6200027,254.8871002z M128.0374756,253.7328644v26.3510895l0.8775024-0.7112427v-26.3543854
		L128.0374756,253.7328644z M129.477478,252.560318v26.3564606l0.8550415-0.6929932V251.86409L129.477478,252.560318z
		 M130.8950195,251.4060822v26.3618317L131.75,277.0749207v-26.3650055L130.8950195,251.4060822z M132.3125,250.2518463v26.3671417
		l0.8999634-0.7294312v-26.3704987L132.3125,250.2518463z M133.7749634,249.0610504v26.3726349l0.9000244-0.7294922v-26.3759918
		L133.7749634,249.0610504z M135.2374878,247.8701935v26.378067l0.8887329-0.7203369v-26.381424L135.2374878,247.8701935z
		 M136.6887207,246.6884918v26.3834991l0.8550415-0.6929932v-26.386734L136.6887207,246.6884918z M138.1062622,245.534256
		v26.3888702l0.9074707-0.7355347v-26.3922882L138.1062622,245.534256z M139.5762329,244.3372955V270.73172l0.8549805-0.6929932
		v-26.3975983L139.5762329,244.3372955z M140.9937134,243.1831207v26.3997345l0.8775024-0.7112427v-26.4030304
		L140.9937134,243.1831207z M143.8512573,240.8563385v26.4104767l0.8549805-0.6929932v-26.4136505L143.8512573,240.8563385z
		 M146.7312622,238.5113068v26.4212189l0.8999634-0.7294312v-26.4245758L146.7312622,238.5113068z M125.4031067,229.0091858
		h0.3168945v26.8687897h-0.3168945V229.0091858z M126.8890457,227.854187h0.3168945v26.8687897h-0.3168945V227.854187z
		 M128.2540588,226.8395386h0.3168945v26.8687897h-0.3168945V226.8395386z M129.7399902,225.6845398h0.3168945v26.8687897
		h-0.3168945V225.6845398z M131.1631012,224.3591766h0.3168945v26.8687897h-0.3168945V224.3591766z M132.6490479,223.2041779
		h0.3168945v26.8687897h-0.3168945V223.2041779z M134.0140533,222.1895447h0.3168945v26.8687897h-0.3168945V222.1895447z
		 M135.5,221.0345306h0.3168945v26.8687897H135.5V221.0345306z M136.9080963,219.5621033h0.3168945v26.8687897h-0.3168945
		V219.5621033z M138.394043,218.4071045h0.3168945v26.8687897h-0.3168945V218.4071045z M139.7590637,217.3924713h0.3168945
		v26.8687897h-0.3168945V217.3924713z M141.2449951,216.2374573h0.3168945v26.8687897h-0.3168945V216.2374573z
		 M142.6681061,214.9121094h0.3168945v26.8687897h-0.3168945V214.9121094z M144.1540375,213.7571106h0.3168945v26.8687897
		h-0.3168945V213.7571106z M145.5190582,212.7424622h0.3168945v26.8687897h-0.3168945V212.7424622z M147.0049896,211.5874634
		h0.3168945v26.8687897h-0.3168945V211.5874634z M148.4759216,210.2824707h0.3168945v26.8687897h-0.3168945V210.2824707z
		 M125.4031067,281.0892029h0.3168945v5.3481445h-0.3168945V281.0892029z M126.8890457,279.9342041h0.3168945v6.4468689
		l-0.3168945-0.0112305V279.9342041z M128.2540588,278.9195557h0.3168945v7.4052734h-0.3168945V278.9195557z
		 M129.7399902,277.7645569h0.3168945v8.5040283l-0.3168945,0.0112305V277.7645569z M131.1631012,276.4391785h0.3168945v9.7956543
		h-0.3168945V276.4391785z M132.6490479,275.2841797h0.3168945v10.8944092h-0.3168945V275.2841797z M134.0140533,274.2695618
		h0.3168945v11.8865051l-0.3168945,0.011261V274.2695618z M135.5,273.1145325h0.3168945v13.0350647L135.5,286.1750183V273.1145325z
		 M136.9080963,271.6421204h0.3168945v14.5159607h-0.3168945V271.6421204z M138.394043,270.4871216h0.3168945v15.5438843h-0.3168945
		V270.4871216z M139.7590637,269.4724731h0.3168945v16.4992371l-0.3168945,0.0169373V269.4724731z M141.2449951,268.3174744
		h0.3168945v17.6203613l-0.3168945,0.0169373V268.3174744z M142.6681061,266.9921265h0.3168945v18.9457092h-0.3168945V266.9921265z
		 M144.1540375,265.8371277h0.3168945v20.0752869l-0.3168945-0.0084534V265.8371277z M145.5190582,264.8224792h0.3168945v21.0984192
		h-0.3168945V264.8224792z M147.0049896,263.6674805h0.3168945v22.2449341l-0.3168945-0.0084534V263.6674805z
		 M148.4759216,262.3624878h0.3168945v23.4223328h-0.3168945V262.3624878z M174.3762817,149.0718842l-0.9675293,0.7878418
		v26.3399658l0.9675293-0.7841797V149.0718842z M174.9387817,148.6138763v26.3457031l0.8549805-0.6929932v-26.348938
		L174.9387817,148.6138763z M176.3562622,147.4596405v26.3510742l0.8775024-0.7112427v-26.3543701L176.3562622,147.4596405z
		 M177.7962646,146.2870941v26.3564453l0.8550415-0.6929932v-26.3596802L177.7962646,146.2870941z M179.2138062,145.1328583
		v26.3618164l0.8549805-0.6929932v-26.3649902L179.2138062,145.1328583z M180.6312866,143.9786224v26.3671265l0.8999634-0.7294312
		v-26.3704834L180.6312866,143.9786224z M181.8882904,143.2415466v26.3726349l0.3975372-0.6906128v-7.4399872l0.5024872-5.4900208
		c-0.098999-2.1296082-0.1980133-4.2592163-0.2970276-6.3888245c-0.102356-2.2013855,0.1698151-4.6182556,0.0674591-6.8196411
		C182.4600983,142.8654175,181.9869385,143.1612244,181.8882904,143.2415466z M173.7218781,122.7359543h0.3168945v26.868782
		h-0.3168945V122.7359543z M175.2078247,121.5809555h0.3168945v26.868782h-0.3168945V121.5809555z M176.5728302,120.5663071
		h0.3168945v26.868782h-0.3168945V120.5663071z M178.0587769,119.4113083h0.3168945v26.868782h-0.3168945V119.4113083z
		 M179.4818878,118.0859528h0.3168945v26.8687897h-0.3168945V118.0859528z M180.9678192,116.930954h0.3168945v26.8687897h-0.3168945
		V116.930954z M182.33284,115.9163132h0.3168945v20.603508l-0.2432556,6.3729095l-0.2432556,0.1602783L182.33284,115.9163132z
		 M183.8187714,114.7613068h0.3168945v7.9746475l-0.3168945,2.0838776V114.7613068z M190.7525024,83.3112946V86.98983
		l0.8550415-1.2900009v-3.0847626L190.7525024,83.3112946z M174.3762817,96.6458282l-0.9675293,0.7878418v26.3399658
		l0.9675293-0.7841797V96.6458282z M174.9387817,96.1878204v26.3457031l0.8549805-0.6929932v-26.348938L174.9387817,96.1878204z
		 M176.3562622,95.0335846v26.3510742l0.8775024-0.7112427V94.319046L176.3562622,95.0335846z M177.7962646,93.8610382v26.3564453
		l0.8550415-0.6929932V93.1648102L177.7962646,93.8610382z M179.2138062,92.7068024v26.3618164l0.8549805-0.6929932V92.0106354
		L179.2138062,92.7068024z M180.6312866,91.5525665v26.3671265l0.8999634-0.7294312V90.8197784L180.6312866,91.5525665z
		 M182.09375,90.3617706v26.3726196l0.9000244-0.7294922V89.6289215L182.09375,90.3617706z M183.5562744,89.1709137v26.3780518
		l0.8887329-0.7203369V88.4472198L183.5562744,89.1709137z M185.0075073,87.989212v22.5206223l0.8550415-3.8186951V87.292984
		L185.0075073,87.989212z M186.4250488,86.8349762v15.8448563l0.9074707-3.5099945V86.0960236L186.4250488,86.8349762z
		 M187.8950195,85.6380157v10.2318115L188.75,92.9598312v-8.0179825L187.8950195,85.6380157z M189.3125,84.4838409v6.3359299
		l0.8775024-2.1799393v-4.8705292L189.3125,84.4838409z M192.1700439,82.1570587v1.2627716l0.8549805-1.9589386
		L192.1700439,82.1570587z M173.7218781,70.3098984h0.3168945V97.178688h-0.3168945V70.3098984z M175.2078247,69.1548996h0.3168945
		v26.8687897h-0.3168945V69.1548996z M176.5728302,68.1402512h0.3168945v26.8687897h-0.3168945V68.1402512z M178.0587769,66.9852524
		h0.3168945v26.8687897h-0.3168945V66.9852524z M179.4818878,65.6598969h0.3168945v26.8687897h-0.3168945V65.6598969z
		 M180.9678192,64.5048981h0.3168945v26.8687897h-0.3168945V64.5048981z M182.33284,63.4902534h0.3168945v26.8687935H182.33284
		V63.4902534z M183.8187714,62.335247h0.3168945v26.8687935h-0.3168945V62.335247z M185.2268829,60.8628273h0.3168945v26.8687935
		h-0.3168945V60.8628273z M186.7128143,59.7078209h0.3168945v26.8687935h-0.3168945V59.7078209z M188.0778351,58.6931801h0.3168945
		v26.8687935h-0.3168945V58.6931801z M189.5637817,57.5381813h0.3168945v26.8687935h-0.3168945V57.5381813z M190.9868774,56.2128258
		h0.3168945v26.8687935h-0.3168945V56.2128258z M192.4728241,55.057827h0.3168945v26.8687935h-0.3168945V55.057827z
		 M193.8378296,54.0431786h0.3168945v21.3066521l-0.3168945,2.0999985V54.0431786z M196.5125122,41.2323341v2.1323357
		l0.4124908-2.1038551L196.5125122,41.2323341z M193.5875244,40.3323288v14.2852669l0.9000244-0.7294922V40.6248322
		L193.5875244,40.3323288z M190.7525024,39.499836v17.4154892l0.8550415-0.6929932V39.7276306L190.7525024,39.499836z
		 M174.3762817,43.8447685l-0.9675293,0.7878418V70.97258l0.9675293-0.7841797V43.8447685z M174.9387817,43.3867607v26.3457069
		l0.8549805-0.6929932V42.6905327L174.9387817,43.3867607z M176.3562622,42.2325249v26.351078l0.8775024-0.7112427V41.5179863
		L176.3562622,42.2325249z M177.7962646,41.0599785v26.3564491l0.8550415-0.6929932v-26.359684L177.7962646,41.0599785z
		 M179.2138062,39.9057426v26.3618202l0.8549805-0.6929932v-26.364994L179.2138062,39.9057426z M180.6312866,38.7515068v26.3671303
		l0.8999634-0.7294312V38.0187187L180.6312866,38.7515068z M182.09375,37.5607109v26.3726196l0.9000244-0.7294922V37.3698349
		l-0.37854-0.2337494L182.09375,37.5607109z M183.5562744,37.3514137v25.396492l0.8887329-0.7203369V37.6359367
		L183.5562744,37.3514137z M185.0075073,37.8348312v23.736805l0.8550415-0.6929932V38.0187187L185.0075073,37.8348312z
		 M186.4250488,38.284832v22.1379395l0.9074707-0.7355347V38.5726357L186.4250488,38.284832z M187.8950195,38.6898308v20.5415344
		L188.75,58.538372V38.8923302L187.8950195,38.6898308z M189.3125,39.0273285v19.055172l0.8775024-0.7112427v-18.073925
		L189.3125,39.0273285z M192.1700439,39.92733v15.8391304l0.8549805-0.6929932V40.1748314L192.1700439,39.92733z
		 M195.0500488,40.8948288v12.5373421l0.8999634-7.4523354v-4.8150024L195.0500488,40.8948288z M174.0387726,34.7598267v9.6178017
		h-0.3168945v-9.737793L174.0387726,34.7598267z M175.5247192,35.1498299v8.0727997h-0.3168945v-8.2920647L175.5247192,35.1498299z
		 M176.8897247,35.5895882v6.6183929h-0.3168945v-6.6981544L176.8897247,35.5895882z M178.3756714,36.0639496v4.9890327h-0.3168945
		v-5.1245651L178.3756714,36.0639496z M179.7987823,36.4027672v3.3248596h-0.3168945v-3.4180374L179.7987823,36.4027672z
		 M181.2847137,36.7415962v1.8310318h-0.3168945v-1.8733826L181.2847137,36.7415962z M182.6497345,37.204834v0.3531532H182.33284
		v-0.4131584L182.6497345,37.204834z M174.3762817,201.8584442l-0.9675293,0.7878418v26.3399658l0.9675293-0.7841797V201.8584442z
		 M174.9387817,201.4004364v26.3457031l0.8549805-0.6929932v-26.348938L174.9387817,201.4004364z M176.3562622,200.2462006
		v26.3510742l0.8775024-0.7112427V199.531662L176.3562622,200.2462006z M177.7962646,199.0736542v26.3564453l0.8550415-0.6929932
		v-26.3596802L177.7962646,199.0736542z M179.2138062,197.9194183v26.3618164l0.8549805-0.6929932v-26.3649902
		L179.2138062,197.9194183z M180.6312866,196.7651825v26.3671265l0.8999634-0.7294312v-26.3704834L180.6312866,196.7651825z
		 M182.09375,195.5743866v26.3726196l0.9000244-0.7294922v-26.3759766L182.09375,195.5743866z M183.5562744,197.5398254v19.5599976
		l0.7685852-7.6508484L184.25,202.8498383L183.5562744,197.5398254z M173.7218781,175.5225067h0.3168945v26.8687897h-0.3168945
		V175.5225067z M175.2078247,174.3675079h0.3168945v26.8687897h-0.3168945V174.3675079z M176.5728302,173.3528595h0.3168945
		v26.8687897h-0.3168945V173.3528595z M178.0587769,172.1978607h0.3168945v26.8687897h-0.3168945V172.1978607z
		 M179.4818878,170.8725128h0.3168945v26.8687897h-0.3168945V170.8725128z M180.9678192,169.717514h0.3168945v26.8687897h-0.3168945
		V169.717514z M182.6497345,193.5198364v2.0518188H182.33284v-3.701828L182.6497345,193.5198364z M174.3762817,254.644989
		l-0.9675293,0.7878418v26.3399658l0.9675293-0.7841797V254.644989z M174.9387817,254.1869812v26.3457031l0.8549805-0.6929932
		v-26.348938L174.9387817,254.1869812z M176.3562622,253.0327454v26.3510742l0.8775024-0.7112427v-26.3543701
		L176.3562622,253.0327454z M177.7962646,251.860199v26.3564453l0.8550415-0.6929932v-26.3596802L177.7962646,251.860199z
		 M179.2138062,250.7059631v26.3618164l0.8549805-0.6929932v-26.3649902L179.2138062,250.7059631z M180.6312866,249.5517273
		v26.3671265l0.8999634-0.7294312v-26.3704834L180.6312866,249.5517273z M182.09375,248.3609314v26.3726196l0.9000244-0.7294922
		v-26.3759766L182.09375,248.3609314z M183.5562744,247.1700745v26.3780518l0.8887329-0.7203369v-26.3814087
		L183.5562744,247.1700745z M185.0075073,245.9883728v26.3834839l0.8550415-0.6929932v-10.809021l-0.5952911-15.0929871
		L185.0075073,245.9883728z M173.7218781,228.3090668h0.3168945v26.8687897h-0.3168945V228.3090668z M175.2078247,227.154068
		h0.3168945v26.8687897h-0.3168945V227.154068z M176.5728302,226.1394196h0.3168945v26.8687897h-0.3168945V226.1394196z
		 M178.0587769,224.9844208h0.3168945v26.8687897h-0.3168945V224.9844208z M179.4818878,223.6590576h0.3168945v26.8687897
		h-0.3168945V223.6590576z M180.9678192,222.5040588h0.3168945v26.8687897h-0.3168945V222.5040588z M182.33284,221.4894257
		h0.3168945v26.8687897H182.33284V221.4894257z M184.1356659,224.4498291v22.7533722h-0.3168945V223.392334L184.1356659,224.4498291
		z M173.7218781,280.3890686h0.3168945v4.2557678l-0.3168945,0.0149841V280.3890686z M175.2078247,279.2340698h0.3168945v5.2757568
		l-0.3168945,0.0150146V279.2340698z M176.5728302,278.2194214h0.3168945v6.1569519l-0.3168945,0.0584717V278.2194214z
		 M178.0587769,277.0644226h0.3168945v7.1903992h-0.3168945V277.0644226z M179.4818878,275.7390442h0.3168945v8.3357849
		l-0.3168945,0.0150146V275.7390442z M180.9678192,274.5840454h0.3168945v9.2957764l-0.3168945,0.0450134V274.5840454z
		 M182.33284,273.5694275h0.3168945v10.0704041l-0.3168945,0.0599976V273.5694275z M183.8187714,272.4143982h0.3168945v10.8954163
		l-0.3168945,0.0600281V272.4143982z M185.2268829,270.9419861h0.3168945v12.0228577l-0.3168945,0.0599976V270.9419861z
		 M187.0297089,274.5840454v7.4957886l-0.3168945,0.2850037v-9.9504395L187.0297089,274.5840454z M51.9199638,158.102417v26.4266968
		l0.8812866-0.7142944v-26.4299927L51.9199638,158.102417z M48.994976,160.4840698v26.4157715l0.9000244-0.7294922v-26.4191284
		L48.994976,160.4840698z M46.1599541,162.7924805v26.4050903l0.8550415-0.6929932v-26.4083252L46.1599541,162.7924805z
		 M45.5974541,187.5401764v-24.2896881l-0.1936493,0.1576843c-0.0316277,5.0683289-0.0181427,10.206131,0.0442162,15.4115448
		C45.4831085,181.748764,45.5331497,184.6556854,45.5974541,187.5401764z M47.5774956,161.6382446v26.4104614l0.8549805-0.6929932
		v-26.4136353L47.5774956,161.6382446z M50.4575005,159.2932129v26.4212036l0.8999634-0.7294312v-26.4245605L50.4575005,159.2932129
		z M46.3943367,135.6940155h0.3168945v26.8687897h-0.3168945V135.6940155z M47.8802757,134.5390167h0.3168945v26.8687897h-0.3168945
		V134.5390167z M49.2452888,133.5243683h0.3168945v26.8687897h-0.3168945V133.5243683z M50.7312279,132.3693695h0.3168945
		v26.8687897h-0.3168945V132.3693695z M52.2021599,131.0643616h0.3168945v26.8687897h-0.3168945V131.0643616z
		 M51.9199638,105.6763535v26.4267044l0.8812866-0.7142944v-26.4300003L51.9199638,105.6763535z M48.994976,108.0580063v26.4157791
		l0.9000244-0.7294922v-26.419136L48.994976,108.0580063z M46.1599541,110.3664169v26.405098l0.8550415-0.6929932v-26.4083328
		L46.1599541,110.3664169z M43.3024712,112.6931381v7.8935852l0.8549805,6.9281235v-15.5178757L43.3024712,112.6931381z
		 M44.7199516,111.5389633v20.375206l0.5218124,5.6015625l0.35569-0.2882843v-26.4030228L44.7199516,111.5389633z
		 M47.5774956,109.2121811v26.4104691l0.8549805-0.6929932v-26.4136429L47.5774956,109.2121811z M50.4575005,106.8671494v26.4212112
		l0.8999634-0.7294312v-26.4245682L50.4575005,106.8671494z M39.2262306,89.3903732h0.3168945v5.142334l-0.3168945-0.9428711
		V89.3903732z M40.6343346,87.9179535h0.3168945v14.1018829l-0.3168945-1.3800049V87.9179535z M42.1202736,86.7629471h0.3168945
		v26.5968857l-0.3168945-1.897728V86.7629471z M43.4852943,85.7483063h0.3168945v26.8687897h-0.3168945V85.7483063z
		 M44.9712334,84.5933075h0.3168945v26.8687897h-0.3168945V84.5933075z M46.3943367,83.267952h0.3168945v26.8687897h-0.3168945
		V83.267952z M47.8802757,82.1129532h0.3168945v26.8687897h-0.3168945V82.1129532z M49.2452888,81.0983047h0.3168945v26.8687897
		h-0.3168945V81.0983047z M50.7312279,79.943306h0.3168945v26.8687897h-0.3168945V79.943306z M52.2021599,78.6383057h0.3168945
		v26.8687897h-0.3168945V78.6383057z M51.9199638,52.8753014v26.426693l0.8812866-0.7142944V52.157711L51.9199638,52.8753014z
		 M48.994976,55.2569542v26.4157677l0.9000244-0.7294922V54.5241051L48.994976,55.2569542z M46.1599541,57.5653648v26.4050865
		l0.8550415-0.6929932V56.8691368L46.1599541,57.5653648z M33.2037163,68.1151047v9.6347275l0.8550415,1.8299942V67.4188766
		L33.2037163,68.1151047z M34.6212578,66.9608688v13.7289658l0.8549805,1.7399979V66.2647018L34.6212578,66.9608688z
		 M36.0387383,65.806633v18.7866821l0.8999634,1.9765244V65.0738449L36.0387383,65.806633z M37.5012016,64.6158371v23.302124
		l0.9000244,2.3410034V63.8829918L37.5012016,64.6158371z M38.963726,63.424984v26.3780479l0.8887329-0.7203369V62.7012901
		L38.963726,63.424984z M40.414959,62.2432823v26.3834801l0.8550415-0.6929932V61.5470543L40.414959,62.2432823z
		 M41.8325005,61.0890465v26.3888512l0.9074707-0.7355347V60.3500938L41.8325005,61.0890465z M43.3024712,59.892086v26.3944054
		l0.8549805-0.6929932V59.195919L43.3024712,59.892086z M44.7199516,58.7379112v26.3997154l0.8775024-0.7112427V58.0233727
		L44.7199516,58.7379112z M47.5774956,56.411129v26.4104576l0.8549805-0.6929932V55.714962L47.5774956,56.411129z
		 M50.4575005,54.0660973v26.4211998l0.8999634-0.7294312V53.3333092L50.4575005,54.0660973z M31.9802895,42.3943214h0.3168945
		v12.5405159l-0.3168945-1.5864754V42.3943214z M33.4662285,41.2393227h0.3168945v26.8687859h-0.3168945V41.2393227z
		 M34.8893394,39.9139671h0.3168945V66.782753h-0.3168945V39.9139671z M36.692173,38.9015961v26.7261581h-0.3168945V39.1848335
		L36.692173,38.9015961z M38.0571861,38.2173271v26.3957863h-0.3168945V38.4760818L38.0571861,38.2173271z M39.5431252,37.8573265
		v25.6007843h-0.3168945V37.9810829L39.5431252,37.8573265z M40.9512291,37.4523277v24.5333633h-0.3168945V37.5760765
		L40.9512291,37.4523277z M42.4371681,37.0585823v23.7721024h-0.3168945V37.1485863L42.4371681,37.0585823z M43.8021889,36.7210846
		v23.0949593h-0.3168945V36.7660866L43.8021889,36.7210846z M45.2881279,36.4173279v22.2437172h-0.3168945V36.4623299
		L45.2881279,36.4173279z M46.7112312,35.9673386v21.368351h-0.3168945V36.0460854L46.7112312,35.9673386z M48.1971703,35.5398331
		v20.6408577h-0.3168945V35.70858L48.1971703,35.5398331z M49.5621834,35.2585754v19.9074669h-0.3168945V35.3598328
		L49.5621834,35.2585754z M51.0481224,34.8198357v19.1912079h-0.3168945V34.954834L51.0481224,34.8198357z M52.5190544,34.3698349
		v18.3362083h-0.3168945v-18.246212L52.5190544,34.3698349z M30.3462334,40.9848328v1.2374992l0.2690411,1.956768
		l0.5859394-0.474926v-3.0118446L30.3462334,40.9848328z M31.7637138,40.5235863v2.7247162l0.8775024-0.7112427v-2.4297295
		L31.7637138,40.5235863z M33.2037163,39.9139633v2.1671638l0.8550415-0.6929932v-1.7870483L33.2037163,39.9139633z
		 M34.6212578,39.3535843v1.5786781l0.8549805-0.6929932v-1.0544357L34.6212578,39.3535843z M36.0387383,38.971077v0.8122597
		l0.8999634-0.7294312v-0.3640709L36.0387383,38.971077z M51.9199638,210.8889771v26.4266968l0.8812866-0.7142944v-26.4299927
		L51.9199638,210.8889771z M48.994976,213.2706299v26.4157715l0.9000244-0.7294922v-26.4191284L48.994976,213.2706299z
		 M46.1599541,215.5790405v26.4050903l0.8550415-0.6929932v-26.4083252L46.1599541,215.5790405z M43.3024712,217.9057617v26.3944092
		l0.8549805-0.6929932v-26.397583L43.3024712,217.9057617z M44.7199516,216.7515869v26.3997192l0.8775024-0.7112427v-26.4030151
		L44.7199516,216.7515869z M47.5774956,214.4248047v26.4104614l0.8549805-0.6929932v-26.4136353L47.5774956,214.4248047z
		 M50.4575005,212.0797729v26.4212036l0.8999634-0.7294312v-26.4245605L50.4575005,212.0797729z M42.4371681,211.0840607v7.3093109
		l-0.1584473-3.8795471L42.4371681,211.0840607z M43.8021889,203.8683014v13.9614105h-0.3168945v-12.7776947L43.8021889,203.8683014
		z M45.2881279,199.2681427v17.4065704h-0.3168945v-16.4798737L45.2881279,199.2681427z M46.3943367,188.4805603h0.3168945
		V215.34935h-0.3168945V188.4805603z M47.8802757,187.3255615h0.3168945v26.8687897h-0.3168945V187.3255615z
		 M49.2452888,186.3109283h0.3168945v26.8687897h-0.3168945V186.3109283z M50.7312279,185.1559143h0.3168945v26.8687897h-0.3168945
		V185.1559143z M52.2021599,183.8509216h0.3168945v26.8687897h-0.3168945V183.8509216z M51.9199638,263.6755066v20.6080933
		l0.8812866,0.094574v-21.4202576L51.9199638,263.6755066z M48.994976,266.0571594v17.8504944l0.9000244,0.1268921v-18.7102356
		L48.994976,266.0571594z M46.1599541,268.3655701v15.0647583l0.8550415,0.111084V267.669342L46.1599541,268.3655701z
		 M40.414959,277.0289917v3.8190308c0.0316124,0.1512451,0.0981331,0.3764343,0.2486916,0.6137085
		c0.2037849,0.321167,0.4594688,0.5036316,0.6063499,0.592804c0-3.2357483,0-6.4715271,0-9.7072449l-0.595253,0.4846802
		L40.414959,277.0289917z M41.8325005,271.8892517v10.4914551l0.9074707,0.2689819v-11.4993896L41.8325005,271.8892517z
		 M43.3024712,270.6923218v12.1123657l0.8549805,0.2080383v-13.016571L43.3024712,270.6923218z M44.7199516,269.5381165v13.5977478
		l0.8775024,0.18396v-14.4962463L44.7199516,269.5381165z M47.5774956,267.2113342v16.4733887l0.8549805,0.1380005v-17.3075562
		L47.5774956,267.2113342z M50.4575005,264.8663025v19.2422485l0.8999634,0.1105347v-20.0855713L50.4575005,264.8663025z
		 M40.9512291,268.6063538v4.1795349l-0.2777939,0.0648499L40.9512291,268.6063538z M42.4371681,245.0014648v26.629425h-0.3168945
		v-24.4927216l0.1361809-1.9902191L42.4371681,245.0014648z M43.4852943,243.7474823h0.3168945v26.8687897h-0.3168945V243.7474823z
		 M44.9712334,242.5924683h0.3168945v26.8687744h-0.3168945V242.5924683z M46.3943367,241.2671204h0.3168945v26.8687744h-0.3168945
		V241.2671204z M47.8802757,240.1121216h0.3168945v26.8687744h-0.3168945V240.1121216z M49.2452888,239.0974731h0.3168945
		v26.8687744h-0.3168945V239.0974731z M50.7312279,237.9424744h0.3168945v26.8687744h-0.3168945V237.9424744z
		 M52.2021599,236.6374817h0.3168945v26.8687744h-0.3168945V236.6374817z"></path>
	<path d="M94.2078018,21.4885864l0.8775024,0.5849953v9.4329815l-0.8775024,0.7112446V21.4885864z"></path>
	<path d="M95.6937408,22.5703011l0.8775024,0.5167103v7.3899784l-0.8775024,0.7112427V22.5703011z"></path>
	<path d="M97.1225052,23.3673325l0.8775024,0.4274979v5.8339367l-0.8775024,0.7112427V23.3673325z"></path>
	<path d="M98.6149979,24.1373653l0.8775024,0.4404659v4.1789055l-0.8775024,0.7112427V24.1373653z"></path>
	<path d="M100.0699997,24.9048309l0.8775024,0.3450031v2.8319016l-0.8775024,0.7112427V24.9048309z"></path>
</g>
<g onclick="select(this)" class="" id="detalhe-lateral" fill="#ce6b03">
	<path d="M180.3168945,283.9697571c-0.389267-5.0108643-0.5809479-10.031311-0.8112488-15.0513
		c-0.2741241-5.9756165-0.5402374-11.949707-0.7395935-17.9288177c-0.1621857-4.8639069-0.3166046-9.728241-0.4854279-14.5916138
		c-0.2534637-7.3020935-0.3217926-14.6064758-0.5153046-21.9078064c-0.4489746-16.9402466-0.1599274-33.8796692-0.1625824-50.819046
		c-0.0007782-4.9429321,0.2119446-9.8911591,0.4939728-14.8274231c0.2990417-5.2344513,0.6636963-10.4721985,1.2374268-15.6823578
		c1.0101471-9.1735458,2.4787903-18.2817688,4.8481293-27.214325c1.1468811-4.3238525,2.3988037-8.6271057,4.175827-12.7510147
		c0.1843414-0.4277649,0.3986206-0.8426361,0.789444-1.1994095c-0.6111603,2.5723648-1.2835083,5.1320724-1.8197479,7.7199402
		c-0.8982391,4.3347855-1.8397827,8.665451-2.2377777,13.0872345c-0.0624847,2.4636841-0.7349854,4.8893585-0.4575043,7.3738861
		c-1.2758331,10.3456116-2.3217926,20.7093811-1.9548645,31.1531219c0.0848389,2.4152832,0.7513123,4.7976074,0.4013214,7.251236
		c-0.3329468,2.3339691-0.443634,4.6863556-0.4229584,7.0467682c0.0576477,6.5835724,0.0962219,13.1778717-0.1157379,19.7472687
		c-0.1442261,4.4696655,0.7029724,8.6943665,1.4201355,12.9989471c0.8516083,5.1116943,0.9524536,10.2363281,0.2455444,15.3785553
		c-0.320282,2.3298645-0.5408936,4.6733246-0.8157501,7.0095825c-0.0492096,0.4181061,0.0968628,0.7891998,0.2263184,1.1624146
		c1.9881592,5.7323914,2.493515,11.6085815,1.5862885,17.5897217c-0.3216858,2.1208649-0.3144379,4.1804047,0.1411896,6.2758179
		c0.4254303,1.9566803,0.509079,3.958847,0.4698334,5.9625092c-0.1443481,7.3678131,0.6830597,14.6733856,1.3834839,21.9889984
		c0.2195587,2.2931824,0.334198,4.5985718,0.3148499,6.9089355c-0.0093231,1.1126404-0.4960785,1.8147888-1.5023499,2.1924744
		C184.1752014,283.5325928,182.2867737,283.9595337,180.3168945,283.9697571z"></path>
	<path d="M42.907505,115.9281998c0.2025414-2.5072403-0.5920105-4.8997345-0.8747025-7.35112
		c-0.3888321-3.371727-0.9984398-6.7175217-1.4424057-10.0838013c-0.0866776-0.6572418-0.8311157-1.2180862-0.2478676-2.0992279
		c0.9456749,2.1854401,1.4925079,4.3908844,2.1506424,6.554039c1.7749481,5.833931,2.8504601,11.8196106,3.9337807,17.8119583
		c0.884079,4.8902206,1.4221878,9.81707,2.0031929,14.7410049c0.2884407,2.4445038,0.3130951,4.9188995,0.5398026,7.3721466
		c0.5834084,6.3131409,0.647377,12.6494446,0.8974266,18.9772339c0.0883293,2.2353516,0.1063042,4.4746857,0.1053925,6.7121582
		c-0.0058365,14.2682037,0.0445213,28.5370483-0.0866127,42.8041992c-0.0366745,3.9903259-0.0978889,7.9857788-0.1912727,11.9777985
		c-0.1465569,6.2649994-0.2809258,12.5313263-0.5358238,18.7924042c-0.1801491,4.4247437-0.3299789,8.8494263-0.4726982,13.2752838
		c-0.1812057,5.6194305-0.3783722,11.2418976-0.7604103,16.8500214c-0.2573776,3.7782288-0.1971283,7.578186-0.7390099,11.3370361
		c-1.7245903-0.0838623-3.3726768-0.5370178-4.9845734-1.1035767c-1.6185989-0.5689087-2.0116501-1.1138-1.9831123-2.8437195
		c0.0459366-2.7848511,0.186451-5.5653687,0.4139137-8.3447876c0.433239-5.2938843,0.7164192-10.6002197,1.1700706-15.8921509
		c0.4089508-4.770462-0.068821-9.5951233,0.9217758-14.3286285c0.1891174-0.9036407,0.0947456-1.838028-0.0444946-2.7452698
		c-0.4787102-3.1191711-0.3467941-6.214859,0.3346939-9.2854462c0.1951103-0.8791046,0.1336899-1.7297516,0.0723305-2.6114655
		c-0.2882462-4.1416168-0.8612595-8.2615356-0.8543091-12.4265594c0.0080452-4.8191986,1.1005249-9.4173431,2.7082024-13.9132538
		c0.3438072-0.961441,0.5690727-1.8806915,0.4489937-2.909317c-0.176609-1.5128784-0.1274376-3.0283203,0.1454735-4.536911
		c0.1131401-0.625412,0.2028465-1.277359,0.1551666-1.9060059c-0.3654709-4.8179779-0.0608215-9.6545563-0.424675-14.4716797
		c-0.0846634-1.1208496,0.0723495-2.2323608,0.1582413-3.3475952c0.1443939-1.874649,0.0628281-3.747345-0.0448914-5.6249847
		c-0.3893738-6.7869263-0.1290779-13.5804901-0.0253029-20.3673248c0.1122742-7.3421783-0.643425-14.5998688-1.5617981-21.8567352
		c-0.1952324-1.5427094-0.3826065-3.0864105-0.5735855-4.6296616
		C43.4951172,118.9194489,42.9541283,117.4408264,42.907505,115.9281998z"></path>
</g>
</svg>
