<!--?xml version="1.0" encoding="utf-8"?-->
<!-- Generator: Adobe Illustrator 25.0.1, SVG Export Plug-In . SVG Version: 6.00 Build 0)  -->
<svg version="1.1" id="Camada_1" xmlns="http://www.w3.org/2000/svg" xmlns:xlink="http://www.w3.org/1999/xlink" x="0px" y="0px" viewBox="0 0 233 419" enable-background="new 0 0 233 419" xml:space="preserve">
<g onclick="select(this)" class="" id="c-estampa-primaria" fill="#000000">
	<path d="M46.563179,118.2222443c-0.0053787-1.183342-0.0107574-2.3666763-0.0160866-3.5501328
		c0.4659691-3.5538559-0.8902283-6.9151535-1.1747475-10.4006424c-0.1778526-2.178772,0.1230736-4.523468-0.9696426-6.6009369
		c0.2142792-4.2085571-0.9718552-8.2517548-1.4422035-12.3788147c-0.4165764-3.6552429-1.5908356-6.9612808-3.7826271-9.9228821
		c-0.5173111-0.6990051-0.878624-1.5161285-1.2888336-2.2910004c-1.6738281-3.1617966-2.3613968-6.6662598-3.4535027-10.0285034
		c-2.0972748-6.4568939-3.4270191-13.0566826-3.4706383-19.8752785c-0.0071144-1.1117973,0.2079868-2.2083588,0.2779732-3.3180962
		c0.1226978-1.9455872-0.0349522-3.9135056,0.4112911-5.8417435c0.1230946-0.5319099,0.1154919-1.1185951-0.2285233-1.6205292
		c4.2194691-1.9786053,8.4010944-4.0390835,12.7401257-5.7554207c7.1251945-2.8184242,14.1391716-5.8974724,21.1239929-9.044529
		c3.9447784-1.7773457,7.5905914-4.0751429,11.234581-6.379427c0.4509277-0.2851515,0.7562561-0.6992817,1.1081924-1.079278
		c1.1422119-1.2332792,2.4376221-2.186347,4.2301788-2.1526685c3.338356,0.1755681,6.6431808,0.6605306,9.9407043,1.1618514
		c7.085022,1.0771284,14.2381058,1.2819529,21.3690948,1.7711859c5.1623001,0.354167,10.299881-0.1624851,15.4454117-0.4610624
		c4.3482513-0.2523136,8.6943665-0.5142403,13.0150757-1.0700407c3.1983948-0.4114323,6.3863373-0.903841,9.5801544-1.3514442
		c0.7448425-0.1043882,1.4946442-0.1733685,2.2424469-0.258884c2.0242615,0.0467844,3.5067291,1.0518651,4.789505,2.5459428
		c1.0005798,1.1654196,2.4201965,1.8163595,3.7376709,2.5509024c8.6218414,4.8068933,17.5932922,8.8771601,26.7783203,12.471858
		c4.9471436,1.9361496,9.6673889,4.3572903,14.5066528,6.5224266c0.2096863,0.0938148,0.3825226,0.2698288,0.572464,0.4074516
		c-0.4069672,0.5227547-0.4762421,1.2061386-0.2716827,1.7161903c0.4538269,1.1317139,0.1228027,2.2535553,0.178009,3.3726959
		c0.1442108,2.9240303,0.5751038,5.8408432,0.2544861,8.7795525c-0.2671051,2.4481697-0.3092957,4.9418678-0.8142242,7.3390007
		c-1.3115692,6.2267609-3.1703033,12.3148193-5.2812195,18.3148727c-0.7233124,2.0560226-1.7638092,4.0645142-3.4004974,5.5425034
		c-0.9956818,0.8991394-1.7586823,1.841507-2.1265106,3.0757675c-1.2243652,4.1081772-1.5516205,8.3596039-1.7804413,12.6044159
		c-0.1525116,2.8287888-0.3384247,5.6222229-1.0775299,8.3779449c-0.5473022,2.0405807-0.7767029,4.1761093-0.5781555,6.273468
		c0.1568451,1.6570282-0.1188049,3.2417679-0.2446136,4.8568726c-0.0404053,2.6245956-0.6573944,5.2096024-0.5391235,7.8450851
		c-0.4489594,0.2575073-0.2702484,0.7125244-0.3135986,1.0791779c-1.2413483,10.5049667-1.4894104,21.0417252-0.9481812,31.5993576
		c0.1662598,3.2433929-0.087677,6.4668121-0.2795715,9.6972504c-0.3607941,6.0736237,0.1223907,12.1427765,0.1457672,18.2147064
		c0.0103149,2.6793365-0.1021118,5.3511047-0.4322815,8.0139923c-0.2367706,1.9098663-0.2719879,3.8260651,0.0496826,5.7355804
		c0.0464172,0.2754822,0.1215515,0.5604858,0.0937347,0.8318939c-0.3126831,3.0526733,0.522522,5.905365,1.3583374,8.7943726
		c1.6499481,5.7030182,1.9922333,11.539566,1.5094452,17.4485779c-0.3468628,4.2449493-0.8688049,8.4920959-0.0210419,12.7551575
		c0.2144012,1.0780792,0.1135559,2.2329254,0.0599823,3.3478241c-0.3651428,7.5992432,0.7537537,15.1268005,1.0924377,22.6917877
		c0.2391968,5.3427734,0.695282,10.6752319,0.9338837,16.0210266c0.0690002,1.5457458,0.2881775,3.0946045,0.2843933,4.6512756
		c-0.004303,1.7687683-0.2490845,2.1618652-1.9274139,2.6983032c-4.4263763,1.4148254-8.9795227,2.2865601-13.5679626,2.944397
		c-11.5893097,1.6616211-23.2747192,1.8406372-34.9467316,1.9870605
		c-21.5126724,0.2699585-43.0280762,0.6168213-64.5417786,0.3160095
		c-10.0044556-0.1399231-19.9631386-1.0458679-29.6620255-3.7736511c-3.6749039-1.0335693-3.7975426-1.0592957-3.5729256-4.8137512
		c0.4194565-7.0112305,0.9851761-14.0138855,1.5068588-21.0188599c0.2404671-3.2288208-0.1057968-6.4777679,0.3547783-9.6977844
		c0.0791359-0.5532532,0.0903854-1.1240082,0.23592-1.6586914c0.8769379-3.2216339,0.0700493-6.4328766-0.054657-9.6429749
		c-0.1797371-4.6266632,0.2290459-9.1895599,1.4315758-13.6493683c0.4302254-1.59552,0.4745674-3.1356812,0.2800369-4.7204742
		c-1.0652695-8.6782684-0.8899117-17.300293,1.0741653-25.8546143c0.3130112-1.3632812,0.4456902-2.7727051,0.3333054-4.1702423
		c-0.381813-4.7480774,0.0052261-9.5021973-0.169754-14.2532043c-0.2117043-5.7481232-0.049614-11.5061798-0.4568825-17.2516174
		c-0.254734-3.5935211,0.41399-7.162674,0.2963448-10.7697296c-0.3126602-9.5863953-0.864727-19.1581116-1.4703903-28.7281189
		C46.8132248,118.8648148,46.9605751,118.4593201,46.563179,118.2222443z"></path>
	<path d="M188.6978302,112.5258331c0.1258087-1.6151047,0.4014587-3.1998444,0.2446136-4.8568726
		c-0.1985474-2.0973587,0.0308533-4.2328873,0.5781555-6.273468c0.7391052-2.755722,0.9250183-5.5491562,1.0775299-8.3779449
		c0.2288208-4.244812,0.556076-8.4962387,1.7804413-12.6044159c0.3678284-1.2342606,1.1308289-2.1766281,2.1265106-3.0757675
		c1.6366882-1.4779892,2.6771851-3.4864807,3.4004974-5.5425034c2.1109161-6.0000534,3.9696503-12.0881119,5.2812195-18.3148727
		c0.5049286-2.3971329,0.5471191-4.890831,0.8142242-7.3390007c0.3206177-2.9387093-0.1102753-5.8555222-0.2544861-8.7795525
		c-0.0552063-1.1191406,0.2758179-2.2409821-0.178009-3.3726959c-0.2045593-0.5100517-0.1352844-1.1934357,0.2716827-1.7161903
		c0.2737274,0.1590652,0.5721893,0.2868462,0.8175354,0.4814796c10.1980286,8.0904961,16.7229156,18.4832726,19.743042,31.1452904
		c1.3559875,5.6850319,1.9811249,11.4740028,2.9464417,17.2147942c1.6348114,9.7222748,2.6294403,19.5462036,4.6751862,29.2010117
		c0.0982513,0.463768,0.0819855,0.9517746,0.1190948,1.4285812c-2.6624298,0.6754913-5.3132629,1.4063416-8.0528412,1.7198792
		c-3.2033081,0.3666-6.4080658,0.7206268-9.6104279,1.0951157c-2.9236603,0.3418884-5.8379669,0.904007-8.769104,1.0065155
		c-3.7044525,0.1295547-7.4232941-0.068306-11.1326752-0.2101593c-1.2049866-0.0460663-2.331665-0.5916901-3.2850342-1.3171768
		C190.4791412,113.419754,189.8283386,112.5811768,188.6978302,112.5258331z"></path>
	<path d="M31.4256382,32.3936844c0.3440151,0.5019341,0.3516178,1.0886192,0.2285233,1.6205292
		c-0.4462433,1.9282379-0.2885933,3.8961563-0.4112911,5.8417435c-0.0699863,1.1097374-0.2850876,2.2062988-0.2779732,3.3180962
		c0.0436192,6.8185959,1.3733635,13.4183846,3.4706383,19.8752785c1.0921059,3.3622437,1.7796745,6.8667068,3.4535027,10.0285034
		c0.4102097,0.7748718,0.7715225,1.5919952,1.2888336,2.2910004c2.1917915,2.9616013,3.3660507,6.2676392,3.7826271,9.9228821
		c0.4703484,4.1270599,1.6564827,8.1702576,1.4422035,12.3788147c1.0927162,2.0774689,0.79179,4.4221649,0.9696426,6.6009369
		c0.2845192,3.4854889,1.6407166,6.8467865,1.1747475,10.4006424c-0.7342834-0.1647568-0.4405403-0.7595291-0.4436913-1.1752014
		c-0.0064087-0.8451843-0.3373947-1.1737671-1.0873833-0.7108154c-2.1440201,1.3234711-4.503933,1.3891373-6.9232025,1.406723
		c-5.9878693,0.0435028-11.9068069-0.3800735-17.8393574-1.3505173c-5.7283249-0.9370346-11.4491043-1.8993073-17.1551247-2.9598007
		c-0.4830325-0.0897675-0.9225605-0.2303543-1.3358734-0.4796906c1.2440469-7.9673233,2.1965909-15.9947205,4.3842006-23.7802811
		c1.4992447-5.335701,1.9565887-10.8423233,2.9865932-16.2524109c1.5338802-8.056694,3.9407263-15.8068924,8.3908644-22.7923698
		c2.7516975-4.319397,6.1700726-8.0570145,10.2076225-11.1988678C28.982914,34.4052696,29.9594669,33.0947647,31.4256382,32.3936844
		z"></path>
</g>
<path d="M-1489.3000488,326.6000061c0.0999756,0.1000061,0.0999756,0.2000122,0,0.2999878
	C-1489.3000488,326.7999878-1489.3000488,326.7000122-1489.3000488,326.6000061z"></path>
<path d="M-1342.6999512,338c0-0.1000061,0-0.2000122,0-0.2999878
	C-1342.5999756,337.7999878-1342.5999756,337.7999878-1342.6999512,338
	C-1342.5999756,337.8999939-1342.5999756,338-1342.6999512,338z"></path>
<path d="M-1475.0999756,352.1000061H-1475H-1475.0999756z"></path>
<path d="M-1350.5999756,87.3000031c-0.0999756-0.0999985-0.0999756-0.0999985-0.1999512-0.1999969
	C-1350.6999512,87.1999969-1350.5999756,87.1999969-1350.5999756,87.3000031z"></path>
<g onclick="select(this)" class="" id="c-estampa-secundaria" fill="#ffffff">
	<path d="M45.6012268,236.6970215c2.9193115,1.4790344,5.6023865,3.3509216,8.3799973,5.063324
		c12.6998367,7.8294983,25.2870178,15.846283,38.0934982,23.4967651
		c10.399704,6.2127075,21.0540009,11.9996948,31.5941772,17.9775696c3.1583786,1.7912598,6.3127289,3.5896301,9.7808075,5.5621338
		c-0.7176056,0.046875-1.0887756,0.0913086-1.460083,0.0922546c-4.5183716,0.0119934-9.0368042,0.0115356-13.55513,0.0314941
		c-0.6555176,0.0028992-1.2403564-0.1124268-1.826828-0.4386902c-19.7207108-10.9710388-39.4480743-21.9301758-59.17799-32.8847504
		c-0.5714264-0.317276-1.0193329-0.7245636-1.4091225-1.2553558c-3.1874352-4.3402405-6.3962746-8.6647949-9.6041336-12.990036
		c-0.2120476-0.2858887-0.4695282-0.5381317-0.7067032-0.8096924
		C45.5204735,239.262207,45.5374413,237.9802551,45.6012268,236.6970215z"></path>
	<path d="M48.0959435,155.2689514c1.2849617,0.3600159,2.3487892,1.1580963,3.4927101,1.7894897
		c34.6183624,19.1075134,69.2305603,38.2262115,103.8433228,57.3438873
		c7.5170898,4.1519012,15.0285645,8.3140411,22.5560455,12.4470825c0.674881,0.3705292,1.0875549,0.8357239,1.3612518,1.5541687
		c0.5531921,1.4519348,1.2145844,2.8623962,1.8070526,4.2999573c0.1417999,0.3440552,0.5507812,0.7462921,0.1846771,1.0869598
		c-0.4060364,0.3778534-0.8097992-0.0365906-1.1753998-0.2481079c-8.7465973-5.0604095-17.4901581-10.1260681-26.2370453-15.1859894
		c-29.5939484-17.1196289-59.1894379-34.2366333-88.783226-51.3565826
		c-5.7041206-3.2998199-11.4032669-6.6082458-17.104702-9.912796
		C47.9425926,156.4774017,47.9472198,155.8709869,48.0959435,155.2689514z"></path>
	<path d="M111.754364,165.8369751c1.1201782,1.299057,2.7830276,1.7920532,4.1186066,2.7706146
		c0.7330856,0.5371094,1.6701126,0.8201752,2.2158585,1.5923309c-0.0651627,0.0957336-0.1303253,0.191452-0.195488,0.2871857
		c-12.8717346-7.8810425-25.7434769-15.7620697-38.7010956-23.695694c0.6753464-0.4638824,1.0512619-0.0084839,1.401413,0.203476
		c8.6436768,5.2330017,17.2747726,10.4867706,25.9112778,15.7316589c0.1997147,0.1212616,0.4358215,0.1827087,0.6553192,0.2714844
		c0.4799576,0.515274,1.0644608,0.821228,1.7797012,0.8940277c-0.3487396-0.5929871-0.9304581-0.8717651-1.4846802-1.1850281
		c-7.9134598-5.1755524-15.8461609-10.3219604-23.7358627-15.5334167
		c-11.9537964-7.8959503-23.7956429-15.9578247-35.5614433-24.1310883
		c-0.2949104-0.2048721-0.5972404-0.3990707-0.8961105-0.5987625c-0.315918-0.8926544-0.2105064-1.8197632-0.2273598-2.7366638
		c1.7458191,0.8106232,3.2217484,2.0410614,4.7941513,3.1155014c17.0832748,11.6732788,34.1272354,23.4042816,51.2499619,35.0193634
		c3.0936661,2.098587,6.700882,3.3224945,10.0133286,5.0364838c0.1035538-0.1360779,0.1647949-0.186264,0.1865387-0.2499084
		c0.174614-0.5113373-0.3488235-1.266449,0.2261887-1.5343781c0.6433182-0.2997894,1.0178604,0.4816284,1.4516678,0.8408356
		c2.585022,2.1404877,5.1409836,4.3160706,7.7061005,6.4805756c0.2989578,0.2522736,0.7669754,0.4680023,0.6508408,0.9167328
		c-0.1400375,0.5410004-0.7338104-0.013031-1.0889282,0.3805542c22.2308197,13.3032379,44.4535828,26.6016235,66.6765289,39.901474
		c0.2871094,0.4783478,0.2229462,1.0132141,0.2532196,1.5318604c0.2305145,1.3207397-0.4615326,0.6993866-0.9350586,0.4271698
		c-5.3190613-3.0572815-10.6315918-6.1260376-15.9524536-9.1802063c-0.3534241-0.2028656-0.6469574-0.6190338-1.1539459-0.4345551
		l0.0146027,0.0114288c-0.2163391-0.5571594-0.6553192-0.7452393-1.2155151-0.7323608l0.0195312,0.0129242
		c-0.0007172-0.4238892-0.3948822-0.4634399-0.6416626-0.6076965
		c-19.1668091-11.2050323-38.0961456-22.7973633-56.8002777-34.7575226
		c-0.1677399-0.107254-0.3488541-0.1936188-0.5239258-0.2891388c-0.1014175-0.0511017-0.2026215-0.1028442-0.3038177-0.1545868
		c-0.1409988-0.1011047-0.2820053-0.2022247-0.4232864-0.3027802c-0.1036835-0.0534515-0.207077-0.1074677-0.3104706-0.161499
		c-0.1401291-0.1000671-0.2802582-0.2001495-0.4206467-0.2998657c-0.1027069-0.0566864-0.2051544-0.113739-0.3075943-0.1707916
		c-0.3298264-0.2827759-0.6169281-0.6661072-1.1955643-0.5447845c0.2026443,0.531601,0.5775375,0.7014465,1.0221176,0.7759705
		c0.0833359,0.0555725,0.1663589,0.1129303,0.2493744,0.1703033c0.0864716,0.2092743,0.2698135,0.2507477,0.4670639,0.2678833
		c0.0923462,0.0643005,0.184166,0.1297607,0.2759705,0.1952057c0.0808563,0.2112579,0.2576294,0.2528992,0.4559479,0.2566376
		C111.5681,165.6971741,111.6612244,165.7670746,111.754364,165.8369751z"></path>
	<path d="M190.691803,264.2739868c-0.2476044,0.5365295-0.4195251,0.0584412-0.5954132-0.0554504
		c-12.2721252-7.9455872-24.5408783-15.8964539-36.8117065-23.8440704
		c-9.7915192-6.3418274-19.5898743-12.6731262-29.3770142-19.0216827
		c-14.9612427-9.7047424-29.9132919-19.4236603-44.8740921-29.1290894
		c-4.0179214-2.6065216-8.0537338-5.1855164-12.0805359-7.7783813c-0.8516235-0.5483398-1.1244507-2.4764709-0.4105759-3.1598511
		c0.4359665-0.4173279,0.8032455,0.0118408,1.1477051,0.2409668c2.5252838,1.6797333,5.0418472,3.3725586,7.5668106,5.0527954
		c11.4333267,7.6083221,22.8658981,15.2177582,34.3035889,22.819519
		c21.9439468,14.5844116,43.8898392,29.1658783,65.8380203,43.7439423
		c5.0497131,3.3540497,10.1118622,6.6894073,15.1682892,10.0333405
		C190.6085052,263.5420837,190.6501465,263.90802,190.691803,264.2739868z"></path>
	<path d="M48.5666733,183.2273407c1.7152824,0.4636688,3.0910187,1.5788116,4.5902786,2.4415588
		c8.8022919,5.0654602,17.5813675,10.1712799,26.3604126,15.2770081
		c10.9760895,6.3834991,21.9410629,12.786087,32.9173431,19.1692352
		c10.0798264,5.8618469,20.1669922,11.7111053,30.2533112,17.5617981
		c9.5393524,5.5334167,19.0836182,11.0583649,28.6175537,16.6010895c0.4816437,0.2800293,1.449646,0.5520172,1.1273193,1.1321106
		c-0.3688507,0.6638336-1.140274-0.0150452-1.630188-0.2910767c-6.7807465-3.8203735-13.5354156-7.6869507-20.3118896-11.5149231
		c-4.6695709-2.6378174-9.365448-5.2290955-14.0451813-7.848999c-6.0431671-3.3832092-12.0872803-6.76474-18.1211472-10.1644745
		c-6.130188-3.4540253-12.2444916-6.936203-18.3729019-10.3933868c-6.9725876-3.9334106-13.9468842-7.8639221-20.932251-11.7745819
		c-4.9048691-2.7458954-9.8415375-5.4351349-14.7420731-8.1886597c-5.2584267-2.9546204-10.4912071-5.954834-15.735199-8.935379
		C48.4270058,185.2737427,48.4119911,184.2498627,48.5666733,183.2273407z"></path>
	<path d="M47.0771408,224.7858276c2.5084648,1.366394,5.0350952,2.7007141,7.5214157,4.1062469
		c4.4498634,2.5155487,8.8737335,5.0770111,13.3115692,7.6138611c6.6454163,3.7988281,13.2880249,7.6026001,19.9420776,11.3862762
		c6.1407547,3.491806,12.2906799,6.9675293,18.4446564,10.4359741c4.8071213,2.7093811,9.6268311,5.3964539,14.4400482,8.0950012
		c0.1391373,0.0780334,0.2610703,0.1885071,0.4035034,0.2584839c0.3484879,0.1711121,0.6850357,0.4171753,0.4842453,0.8181458
		c-0.205513,0.4104004-0.64785,0.2452087-0.9524918,0.0929871c-1.1663971-0.5827637-2.311203-1.2085266-3.4683533-1.8099976
		c-6.7671204-3.517334-13.5307007-7.0415039-20.3042908-10.5463257
		c-16.6384277-8.6091003-33.2816315-17.2089539-49.9230156-25.8123322c-0.2803421-0.144928-0.5620422-0.287262-0.8430862-0.4309387
		C46.366539,227.5723877,46.5785599,226.1470032,47.0771408,224.7858276z"></path>
	<path d="M189.8307037,251.1346283c-2.3986816-1.2483215-4.5544739-2.8793335-6.7967682-4.3679352
		c-13.9656982-9.271286-27.9004364-18.5891266-41.849472-27.8854828
		c-16.8180237-11.208374-33.6405411-22.4100189-50.459549-33.6169128c-1.4782944-0.9850616-2.9492798-1.9812622-4.41362-2.9868469
		c-0.2837372-0.1948547-0.5684891-0.423111-0.6517639-0.8571625c0.8600006-0.2149353,1.3744583,0.4249115,1.9073639,0.7686768
		c30.1354065,19.4386749,60.2518005,38.9068146,90.3707733,58.3709564
		c3.9505157,2.5529785,7.9048004,5.1001587,11.8573456,7.6510315
		C189.9008484,249.1850433,189.9181824,250.1591949,189.8307037,251.1346283z"></path>
	<path d="M188.8514404,231.1769714c-0.4579926,0.0576782-0.7263184-0.2976379-1.0451508-0.5096436
		c-29.6993561-19.7478943-59.3930206-39.5043793-89.0903778-59.2552643
		c-1.5926208-1.0592041-3.2295227-2.0523376-4.8131409-3.1244354c-0.5571823-0.3772125-1.0163269-0.8990326-1.7852859-1.594574
		c1.5268936,0.1076355,2.416275,0.8474121,3.3143845,1.4263c10.2371445,6.5982819,20.4460983,13.2402191,30.6697922,19.859375
		c20.6520157,13.3707733,41.3086319,26.7344208,61.9612808,40.1042023c0.2645721,0.1712646,0.5019379,0.3844757,0.7519379,0.5802612
		C188.8270264,229.5025482,188.8392334,230.3397675,188.8514404,231.1769714z"></path>
	<path d="M191.0090485,283.3010254c-7.6954651-4.3843994-15.3962708-8.759491-23.0849304-13.1557617
		c-8.1064453-4.6351318-16.1951447-9.3013306-24.3031311-13.9337769
		c-7.0321045-4.0177917-14.0853882-7.9985657-21.1201935-12.0116425
		c-9.2337799-5.2674713-18.4549103-10.5571136-27.6885986-15.8247528
		c-6.0524979-3.4528046-12.1241531-6.8720551-18.1751175-10.3275146
		c-5.8544388-3.3432007-11.6857758-6.7268219-17.5419044-10.0670624c-3.7078094-2.1148987-7.4432373-4.181427-11.1631126-6.2752533
		c-0.2407646-0.1355133-0.4542694-0.319397-0.6803207-0.4813538c0.0307198-0.3555603,0.0613098-0.7105713,0.0920486-1.0663452
		c2.0624771,1.1252747,4.1404762,2.2236938,6.1838837,3.3830109c4.3274651,2.4551392,8.6378441,4.9403839,12.9534378,7.4163971
		c4.7405777,2.7198486,9.4743729,5.4515686,14.2198868,8.1627808c4.7914276,2.7374573,9.5956573,5.4524841,14.39048,8.1840057
		c5.8839645,3.3520203,11.7621078,6.7142487,17.6462708,10.0659027c5.9747086,3.4032288,11.9606247,6.7868958,17.9289856,10.2012024
		c6.4521027,3.6910553,12.8817291,7.4213715,19.3358307,11.1089172c5.2984772,3.0273438,10.6243439,6.0067444,15.9273071,9.0262451
		c6.0259094,3.4311218,12.0410614,6.8811035,18.0584106,10.32724c2.5209808,1.4437256,5.035614,2.8985291,7.5531006,4.3483887
		C191.6266937,282.8400879,191.4410248,283.1417847,191.0090485,283.3010254z"></path>
	<path d="M46.6102104,208.9499969c4.7401619,2.690918,9.4726448,5.3954926,14.2228203,8.0686493
		c4.1014481,2.308075,8.2336121,4.5616608,12.3331528,6.8730927c5.9610977,3.3610382,11.897728,6.7654572,17.8587418,10.1266327
		c4.6569901,2.6258698,9.3443832,5.1978455,14.0018311,7.8228912c7.1323318,4.0199432,14.2455063,8.073822,21.3763428,12.0964661
		c5.3507462,3.0184174,10.7213821,6.0016022,16.0742264,9.0163116c5.9014587,3.3237,11.7913666,6.6679077,17.688858,9.9986267
		c5.3751984,3.0357666,10.7578583,6.0583801,16.1289978,9.1012878c2.10112,1.1903992,4.2735596,2.2590027,6.2678375,3.6334229
		c-0.3967285,0.3061523-0.8666534,0.2582092-1.3233795,0.2740173c-1.8158875-0.6699829-3.3865051-1.8013-5.0647583-2.7255249
		c-4.8924255-2.694397-9.7494049-5.4532471-14.6102905-8.2044983c-6.5135803-3.686676-13.0088959-7.4056396-19.5286407-11.0813293
		c-5.9406586-3.3492432-11.9122009-6.6437683-17.8541412-9.9907532c-5.9647369-3.3598022-11.9051514-6.7627106-17.8648911-10.131424
		c-4.5525208-2.5733032-9.122757-5.1152649-13.6774673-7.6847229c-4.8316879-2.7257233-9.6469955-5.4804993-14.4831772-8.1982117
		c-4.0738678-2.2893524-8.1784286-4.5242004-12.249382-6.8186646c-4.718235-2.6592865-9.4086723-5.3677826-14.1235962-8.032959
		c-1.7055588-0.9640961-3.4470177-1.8647461-5.1721039-2.7944641
		C46.6108665,209.8491516,46.6105385,209.3995667,46.6102104,208.9499969z"></path>
	<path d="M188.4377289,207.0627441c-0.4421844,0.2354431-0.6424713-0.1795959-0.8885651-0.3695831
		c-8.8476105-6.8314362-17.6864319-13.6741943-26.5261536-20.5158234c-0.2770386-0.2144318-0.7092896-0.410141-0.4995422-0.8303833
		c0.2135468-0.4278412,0.630249-0.168396,0.9542542-0.0776062c1.4207001,0.3980103,2.830307,0.8379364,4.2586517,1.2055359
		c0.7762146,0.1997833,1.3287354,0.6999664,1.90979,1.1810913c6.7333984,5.5753479,13.4659729,11.1517029,20.1990814,16.7298737
		C188.0914307,205.2687988,188.3994293,206.1359558,188.4377289,207.0627441z"></path>
	<path d="M45.1573792,256.0515442c2.9760437,4.2778015,5.9574432,8.5518799,8.9262238,12.8346863
		c1.9500084,2.8131409,3.8819389,5.6387024,5.821312,8.459198c0.1128273,0.1640625,0.2385445,0.3230896,0.324791,0.5007019
		c0.116375,0.2396545,0.3551064,0.5337219,0.0726318,0.7506409c-0.2477989,0.1903076-0.5420761,0.0020752-0.7422104-0.1965637
		c-0.8490715-0.8429871-1.6869354-1.6973267-2.5261726-2.5501404c-4.0572243-4.1228027-8.113575-8.24646-12.1701775-12.3701477
		C44.9616852,261.00354,45.0595322,258.5275574,45.1573792,256.0515442z"></path>
	<path d="M48.4747925,165.984314c2.2791748,1.2408295,4.3551178,2.7960205,6.510067,4.2272339
		c8.2407417,5.4730072,16.4683647,10.9658356,24.6833839,16.4773102c0.7803802,0.5235748,1.4384766,1.2291718,2.1533432,1.8502655
		l0.0144882-0.0135803c-4.1954727-1.9680634-7.9262924-4.705307-11.8086624-7.1842651
		c-7.2178459-4.6086884-14.3744507-9.3131866-21.5565224-13.9778748
		C48.3676338,166.9033813,48.3751793,166.4437256,48.4747925,165.984314z"></path>
	<path d="M47.9850693,136.9023438c2.5289574,1.367218,4.8286438,3.0908966,7.2226028,4.666214
		c6.1334076,4.0360718,12.2385788,8.115036,18.3485718,12.1865692c0.4201279,0.2799683,0.7958908,0.6299286,1.1742706,0.9674988
		c0.1810608,0.1615448,0.5916824,0.2959442,0.3066406,0.6224976c-0.208992,0.2394104-0.4715195,0.0395203-0.7398987-0.0935669
		c-1.685257-0.8357239-3.1791382-1.9717255-4.7482147-2.9859619c-7.1711235-4.6352386-14.3235245-9.299408-21.4827042-13.9535675
		C48.0392113,137.8418884,48.0121422,137.3721161,47.9850693,136.9023438z"></path>
	<path d="M189.3923187,213.9190063c-1.0228119,0.1695251-1.6710358-0.6115723-2.3981171-1.0535736
		c-5.9091187-3.5921478-11.7793121-7.2483368-17.6540985-10.8967133c-0.4572906-0.2839966-1.0193024-0.4797058-1.2499695-1.0964661
		c0.7420654-0.355835,1.133194,0.801178,1.8411255,0.3783722c0-0.0000305-0.0195312-0.0129547-0.0195465-0.0129547
		c0.1751404,0.6254578,0.6126709,0.8159637,1.2155304,0.7323608c0,0-0.0146027-0.0114288-0.0146179-0.0114441
		c-0.1082458,0.3190002,0.1533508,0.4193878,0.3418732,0.5341949c5.9632568,3.6311493,11.9295502,7.257309,17.8953705,10.8842163
		C189.3640137,213.557663,189.3781738,213.738327,189.3923187,213.9190063z"></path>
	<path d="M77.5546417,157.2146454c0.066246-0.3686981,0.2456436-0.3118744,0.49263-0.1439514
		c0.7116165,0.4838257,1.5707703,0.6711578,2.2794189,1.1861115c2.484108,1.8050232,5.0637894,3.4688416,7.6897125,5.0603943
		c0.5402985,0.3274841,1.0596466,0.6603546,1.4045258,1.2247162c0.0817337,0.1337433,0.3926086,0.1543274,0.1821594,0.3964539
		c-0.1116714,0.1284943-0.2466049,0.0370026-0.4058914-0.0437012c-1.7259293-0.8747253-3.2420044-2.0721283-4.8589554-3.1134491
		c-2.0441284-1.3164368-4.1047134-2.6073303-6.1516571-3.9194336
		C77.9352798,157.7006683,77.563736,157.6325684,77.5546417,157.2146454z"></path>
	<path d="M85.710968,181.0506287c-3.2761459-0.79245-5.4307327-2.9065857-7.7632446-4.7273712
		C80.608078,177.6036377,83.1397629,179.0961456,85.710968,181.0506287z"></path>
	<path d="M167.3981323,200.3992767c-0.0562592,0.0258331-0.1109924,0.0579834-0.1700745,0.0727692
		c-0.0157928,0.0039673-0.0449219-0.0451965-0.0679321-0.0699768c0.0567169-0.0262756,0.1118011-0.0587311,0.1713104-0.0744476
		C167.3462982,200.3236847,167.3754425,200.3737946,167.3981323,200.3992767z"></path>
	<polygon fill="#F90000" points="81.8215866,188.5391235 81.8849335,188.5751343 81.8363876,188.5253143 	"></polygon>
</g>
<g onclick="select(this)" class="" id="c-gola-primaria" fill="#000000">
	<path d="M81.862915,7.9824848c1.7210922-1.359446,3.368866-2.8027096,4.6813278-4.5706072
		c1.4333496-1.9307294,3.4275284-2.569464,5.7044296-2.7007985c0.6235046-0.0359645,1.3870163,0.3147643,1.8313293-0.4712164
		c15.9200058,0,31.8400116,0,47.7600098,0c0.9772491,0.468389,2.0675659,0.4580993,3.0943451,0.7245071
		c1.5865784,0.4116569,2.9589844,1.1140342,3.9757996,2.4449308c1.2887115,1.6867537,2.9682922,2.9740405,4.5454407,4.3646669
		c-0.7478027,0.0855155-1.4976044,0.1544957-2.2424469,0.258884c-3.1938171,0.4476032-6.3817596,0.940012-9.5801544,1.3514442
		c-4.3207092,0.5558004-8.6668243,0.8177271-13.0150757,1.0700407c-5.1455307,0.2985773-10.2831116,0.8152294-15.4454117,0.4610624
		c-7.1309891-0.489233-14.2840729-0.6940575-21.3690948-1.7711859C88.5058899,8.6428919,85.2010651,8.1579294,81.862915,7.9824848z"></path>
</g>
<g onclick="select(this)" class="" id="c-detalhe-punho" fill="#ffffff">
	<path d="M0.2399999,116.0934372c0.4019386-1.9966812,0.8041824-3.9933014,1.2054386-5.9901123
		c0.0519282-0.2584229-0.0217745-0.5722809,0.3170216-0.7005157c0.4133129,0.2493362,0.8528409,0.3899231,1.3358734,0.4796906
		c5.7060204,1.0604935,11.4267998,2.0227661,17.1551247,2.9598007c5.9325504,0.9704437,11.8514881,1.3940201,17.8393574,1.3505173
		c2.4192696-0.0175858,4.7791824-0.083252,6.9232025-1.406723c0.7499886-0.4629517,1.0809746-0.1343689,1.0873833,0.7108154
		c0.0031509,0.4156723-0.2905922,1.0104446,0.4436417,1.1753159c0.0053787,1.183342,0.0107574,2.3666763,0.0161362,3.5500183
		c-0.0785027,0.5859604-0.2565727,1.1791611-0.2146034,1.7563705c0.0849495,1.1682587-0.625267,1.4380112-1.5379219,1.5414581
		c-5.5591965,0.6301727-11.1084175,1.1380386-16.7229614,0.5366974c-9.1340427-0.9782867-18.2107697-2.2743073-27.1770115-4.291626
		c-0.2293947-0.0516129-0.4473771-0.1538849-0.6706817-0.2325287C0.24,117.052887,0.24,116.5731659,0.2399999,116.0934372z"></path>
	<path d="M188.6978302,112.5258331c1.1305084,0.0553436,1.781311,0.8939209,2.5935974,1.5120468
		c0.9533691,0.7254868,2.0800476,1.2711105,3.2850342,1.3171768c3.7093811,0.1418533,7.4282227,0.3397141,11.1326752,0.2101593
		c2.9311371-0.1025085,5.8454437-0.6646271,8.769104-1.0065155c3.2023621-0.3744888,6.4071198-0.7285156,9.6104279-1.0951157
		c2.7395782-0.3135376,5.3904114-1.0443878,8.0528259-1.7198792c0.6603394,0.1413193,0.5334625,0.7501221,0.6053467,1.1598129
		c0.3378143,1.9256897,0.4354095,3.8771057,0.5597992,5.8275681c0.0608673,0.9542084-0.3804169,1.2510147-1.1618652,1.4391861
		c-3.727951,0.897728-7.5021515,1.5553818-11.2945862,2.0880814c-7.1191101,0.9999924-14.2603302,1.7123184-21.4695282,1.5265503
		c-2.9492798-0.0759964-5.7994232-0.4171677-8.3943939-1.9630508c-0.3276978-0.1952057-0.7493134-0.2746201-1.1374512-0.317894
		c-0.7750854-0.0864182-1.3348389-0.4451981-1.6902008-1.1330261
		C188.0404358,117.7354355,188.6574249,115.1504288,188.6978302,112.5258331z"></path>
</g>
</svg>
