<!--?xml version="1.0" encoding="utf-8"?-->
<!-- Generator: Adobe Illustrator 24.2.3, SVG Export Plug-In . SVG Version: 6.00 Build 0)  -->
<svg version="1.1" id="Camada_1" xmlns="http://www.w3.org/2000/svg" xmlns:xlink="http://www.w3.org/1999/xlink" x="0px" y="0px" viewBox="0 0 234 419" enable-background="new 0 0 234 419" xml:space="preserve">
<g class="" id="c-gola-primaria" fill="#bf0811">
	<path d="M141.84,0.24c0.99,0.45,2.09,0.44,3.12,0.71c1.59,0.42,2.95,1.14,3.98,2.46c1.31,1.67,2.93,3.04,4.61,4.33
		c-0.67,0.34-1.41,0.11-2.11,0.23c-4.08,0.68-8.17,1.34-12.3,1.67c-9.46,0.74-18.91,1.88-28.44,1.14c-3.26-0.25-6.53-0.39-9.8-0.62
		c-4.38-0.31-8.72-0.92-13.06-1.56c-2-0.29-4.02-0.32-6.02-0.64c1.52-1.17,3.08-2.35,4.16-3.94c1.68-2.47,4.1-3.25,6.86-3.52
		c0.41-0.04,0.89,0.11,1.23-0.27c7.92,0,15.84,0,23.76,0c2,0.18,4,0.33,6,0C129.84,0.24,135.84,0.24,141.84,0.24z"></path>
</g>
<g class="" id="c-estampa-primaria" fill="#bf0811">
	<path d="M203.85,32.28c1.8,1.02,3.05,2.68,4.6,3.98c7.42,6.26,11.88,14.41,14.77,23.52
		c2.19,6.92,3.23,14.06,4.1,21.25c0.57,4.71,1.52,9.38,2.2,14.08c0.78,5.49,1.63,10.97,2.64,16.42c0.33,1.79,0.75,3.56,1.13,5.33
		c0,1.04,0,2.08,0,3.12c-3.51,0.71-7.02,1.47-10.56,2.01c-8.03,1.21-16.08,2.08-24.21,1.81c-2.57-0.09-5.08-0.5-7.34-1.88
		c-0.94-0.57-2.24-0.31-3.02-1.28c-0.01-2.37,0.19-4.73,0.46-7.08c0.2-1.7,0.58-3.41,0.41-5.12c-0.2-1.94,0.1-3.82,0.26-5.72
		c0.14-1.68,0.93-3.22,1.05-4.9c0.36-5.09,0.49-10.21,1.53-15.23c0.36-1.75,0.69-3.58,2.19-4.78c0.57-0.46,1.03-0.96,1.43-1.56
		c2.77-4.16,3.95-8.94,5.38-13.62c1.75-5.74,3.11-11.55,3.15-17.6c0.02-3.68-0.07-7.35-0.43-11.02
		C203.51,33.43,203.42,32.8,203.85,32.28z"></path>
	<path d="M0.24,116.4c0.8-3.07,1.43-6.18,1.86-9.32c1.24-9.16,3.2-18.17,5.34-27.15c1.02-4.27,1.2-8.7,2.17-12.99
		c1.85-8.13,4.52-15.92,9.54-22.71c2.53-3.42,5.44-6.5,8.86-9.06c1.18-0.88,2.04-2.13,3.41-2.77c0.38,0.75,0.45,1.53,0.03,2.28
		c-0.17,0.29-0.11,0.5-0.07,0.78c0.16,0.99,0.06,1.99-0.02,2.99c-0.39,5.15-0.3,10.27,0.66,15.37c0.91,4.83,2.5,9.47,3.89,14.17
		c0.78,2.65,1.78,5.2,3.29,7.53c0.88,1.38,1.77,2.76,2.54,4.2c0.64,1.21,0.59,2.61,0.88,3.92c1.37,6.16,1.8,12.44,2.62,18.68
		c0.32,2.46,0.09,4.99,0.9,7.39c0.29,0.87,0.48,1.76,0.47,2.7c-0.03,2.04-0.02,4.09-0.03,6.13c-0.44,0.39-0.25,0.91-0.22,1.35
		c0.07,1.08-0.44,1.49-1.45,1.62c-6.31,0.86-12.61,1.17-18.96,0.36c-8.31-1.05-16.61-2.16-24.78-4.03
		c-0.31-0.07-0.61-0.15-0.92-0.23C0.24,117.2,0.24,116.8,0.24,116.4z"></path>
	<path d="M81.83,7.97c1.99,0.32,4.01,0.35,6.02,0.64c4.34,0.64,8.68,1.25,13.06,1.56c3.26,0.23,6.54,0.37,9.8,0.62
		c9.53,0.74,18.98-0.4,28.44-1.14c4.13-0.32,8.22-0.98,12.3-1.67c0.7-0.12,1.44,0.12,2.11-0.23c2,0.13,3.47,1.15,4.76,2.63
		c1,1.15,2.44,1.8,3.75,2.54c9.53,5.35,19.54,9.64,29.68,13.67c3.98,1.58,7.69,3.71,11.64,5.34c0.18,0.07,0.31,0.24,0.47,0.36
		c-0.43,0.52-0.34,1.15-0.28,1.73c0.36,3.66,0.45,7.34,0.43,11.02c-0.04,6.05-1.39,11.86-3.15,17.6c-1.43,4.68-2.61,9.46-5.38,13.62
		c-0.4,0.61-0.86,1.1-1.43,1.56c-1.49,1.21-1.83,3.04-2.19,4.78c-1.03,5.02-1.16,10.14-1.53,15.23c-0.12,1.68-0.91,3.21-1.05,4.9
		c-0.16,1.91-0.46,3.79-0.26,5.72c0.18,1.71-0.21,3.42-0.41,5.12c-0.27,2.35-0.48,4.71-0.46,7.08c-0.43,0.27-0.27,0.72-0.32,1.09
		c-1.23,10.43-1.46,20.89-0.92,31.38c0.24,4.65-0.34,9.26-0.41,13.9c-0.07,4.64,0.32,9.27,0.28,13.91
		c-0.03,2.76-0.11,5.51-0.45,8.26c-0.23,1.87-0.26,3.75,0.06,5.62c0.05,0.28,0.12,0.56,0.09,0.83c-0.38,3.31,0.7,6.38,1.53,9.5
		c0.74,2.77,1.36,5.59,1.35,8.49c-0.77,0.01-0.48,0.61-0.49,0.97c-0.02,2.84-0.02,5.67,0.01,8.51c0.01,0.91-0.15,1.83,0.18,2.72
		c-0.04,2.1-0.61,4.19-0.01,6.29c-0.36,1.13-0.23,2.3-0.17,3.44c0.08,1.73-0.32,3.27-1.05,4.84c-2.04,4.38-3.94,8.83-5.91,13.25
		c-0.16,0.35-0.44,0.69,0.07,1.11c0.86-1.52,1.68-3.02,2.56-4.48c1.53-2.57,2.81-5.29,4.54-7.75c0.15,1.22,0.3,2.43,0.45,3.65
		c-0.84,0.27-0.69,0.98-0.69,1.6c-0.01,9.27-0.01,18.55,0.01,27.82c0,0.78-0.16,1.48-0.48,2.19c-1.12,2.51-2.2,5.05-3.3,7.57
		c-5.33,1.33-10.76,2.1-16.22,2.58c0.19-1.53-0.23-3.08,0.47-4.6c2.17-4.72,4.25-9.47,6.34-14.22c0.34-0.77,0.82-1.51,0.89-2.39
		c-0.27-0.03-0.34,0.09-0.42,0.24c-2.82,4.96-5.67,9.91-8.47,14.88c-1.19,2.11-2.51,4.17-3.48,6.4c-0.89,0.35-1.78,0.43-2.66-0.03
		c0.23-0.32,0.49-0.63,0.69-0.97c2.11-3.72,4.2-7.45,6.32-11.16c0.32-0.56,0.36-1.12,0.36-1.73c0-9.44,0-18.87-0.01-28.31
		c0-0.65,0.08-1.25,0.36-1.86c2.3-5.06,4.58-10.12,6.85-15.2c0.33-0.74,0.76-1.47,0.77-2.33c-0.48,0.04-0.52,0.43-0.67,0.68
		c-9.16,16.36-18.31,32.72-27.46,49.08c-0.25,0.45-0.5,0.89-0.49,1.45c0.03,3.68,0.04,7.36,0.05,11.03
		c-6.25,0.19-12.51,0.32-18.77,0.29c1.96-4.5,3.93-9.01,5.89-13.51c-0.11-0.05-0.21-0.11-0.32-0.16c-2.62,4.62-5.23,9.23-7.85,13.85
		c-0.75-0.32-1.54-0.05-2.3-0.16c0.59-1.09,1.12-2.21,1.77-3.26c0.67-1.08,0.97-2.19,0.97-3.49c-0.05-9.15-0.02-18.29-0.03-27.44
		c0-0.74,0.15-1.4,0.45-2.07c2.01-4.48,3.99-8.97,5.98-13.46c0.2-0.44,0.41-0.87,0.34-1.37c0.19-0.11,0.31-0.29,0.09-0.42
		c-0.12-0.08-0.22,0.14-0.26,0.29c-0.12,0.15-0.27,0.29-0.37,0.46c-2.38,4.12-4.78,8.23-7.12,12.36c-6,10.57-11.92,21.18-18,31.7
		c-1.27,2.2-2.07,4.36-1.75,6.88c-1.51,0-3.03,0.01-4.54,0.01c1.57-2.92,3.27-5.77,4.91-8.65c6.66-11.66,13.24-23.36,19.86-35.05
		c0.24-0.42,0.42-0.83,0.42-1.34c-0.01-9.96-0.01-19.91-0.02-29.87c0-0.32,0.17-0.81-0.37-0.86c-0.45-0.05-0.98-0.2-1.3,0.34
		c-0.12,0.21-0.24,0.41-0.36,0.62c-1.43,2.45-2.82,4.92-4.25,7.37c-4.66,7.97-9.22,15.99-13.84,23.99
		c-0.37,0.65-0.53,1.29-0.53,2.04c0.02,9.2,0.01,18.39,0.02,27.59c0,0.73-0.12,1.4-0.42,2.08c-1.74,3.9-3.44,7.83-5.15,11.74
		c-4.84,0-9.69,0-14.53,0c0-0.68,0.04-1.36-0.02-2.04c-0.19-1.97,0.33-3.74,1.17-5.52c2.06-4.41,3.97-8.9,5.93-13.36
		c0.14-0.32,0.48-0.64,0.2-1.08c-0.46,0.19-0.54,0.62-0.73,0.95c-1.49,2.6-2.97,5.2-4.44,7.81c-2.5,4.41-5.16,8.73-7.5,13.23
		c-0.8,0-1.59,0-2.39,0.01c0.13-0.29,0.24-0.59,0.39-0.87c2.24-3.97,4.48-7.94,6.75-11.89c0.43-0.75,0.65-1.49,0.65-2.37
		c-0.03-9.39-0.01-18.79-0.03-28.19c0-0.7,0.13-1.32,0.42-1.96c2.33-5.13,4.64-10.27,6.95-15.41c0.37-0.84,0.67-1.71,1.01-2.56
		c-0.73,0.38-0.93,1.07-1.27,1.67c-9.1,16.25-18.19,32.5-27.3,48.74c-0.3,0.54-0.46,1.07-0.46,1.7c0.02,3.52,0.02,7.04,0.02,10.55
		c-5.65-0.41-11.22-1.29-16.73-2.57c1.42-3.36,2.84-6.71,4.26-10.07c-0.12-0.06-0.25-0.11-0.37-0.17c-1.82,3.27-3.63,6.54-5.45,9.8
		c-0.69-0.18-1.38-0.37-2.06-0.55c0.37-0.82,0.4-1.69,0.4-2.57c-0.01-9.28-0.01-18.56-0.02-27.83c0-0.62,0.12-1.17,0.38-1.73
		c2.19-4.89,4.36-9.79,6.52-14.68c0.17-0.38,0.48-0.76,0.24-1.23c-0.35,0.03-0.42,0.34-0.55,0.57c-1.54,2.71-3.05,5.44-4.61,8.14
		c-0.93,1.61-1.69,3.34-2.99,4.72c0.13-1.07,0.18-2.16,0.42-3.21c0.46-2.02,0.2-4.02,0.02-6.04c-0.3-3.33-0.31-6.66,0.09-10
		c0.34-2.78,1.08-5.47,1.5-8.22c0.29-1.88-0.14-3.9-0.36-5.84c-0.82-7.26-0.41-14.45,1.08-21.59c0.49-2.33,0.7-4.65,0.52-7.03
		c-0.32-4.27,0.06-8.55-0.11-12.82c-0.22-5.59-0.02-11.19-0.45-16.78c-0.28-3.72,0.41-7.41,0.29-11.14
		c-0.3-9.51-0.86-19.01-1.45-28.5c-0.02-0.33,0.13-0.74-0.28-0.97c0.01-2.04,0-4.09,0.03-6.13c0.01-0.93-0.18-1.83-0.47-2.7
		c-0.81-2.4-0.57-4.93-0.9-7.39c-0.82-6.23-1.25-12.52-2.62-18.68c-0.29-1.31-0.24-2.72-0.88-3.92c-0.77-1.44-1.65-2.82-2.54-4.2
		c-1.5-2.34-2.5-4.88-3.29-7.53c-1.39-4.7-2.98-9.33-3.89-14.17c-0.96-5.1-1.06-10.22-0.66-15.37c0.08-1,0.18-1.99,0.02-2.99
		c-0.04-0.28-0.1-0.49,0.07-0.78c0.43-0.74,0.36-1.52-0.03-2.28c4.23-1.96,8.4-4.03,12.74-5.75c7.16-2.83,14.21-5.93,21.22-9.09
		c3.94-1.78,7.59-4.07,11.21-6.41c0.39-0.25,0.69-0.65,1.02-1C78.75,8.91,80.06,8,81.83,7.97z M58.76,285.51
		c0.84-0.43,1.04-1.02,1.31-1.51c8.8-15.68,17.59-31.36,26.39-47.05c0.25-0.45,0.47-0.9,0.47-1.45c-0.02-7-0.02-13.99,0-20.99
		c0-0.77-0.26-0.95-0.97-0.93c-1.48,0.04-2.96,0.07-4.44-0.01c-0.89-0.05-1.34,0.29-1.77,1.05c-4.3,7.57-8.64,15.13-12.99,22.68
		c-0.35,0.61-0.51,1.22-0.51,1.93c0.02,9.43,0.01,18.87,0.02,28.3c0,0.74-0.12,1.4-0.43,2.08C63.51,274.81,61.2,280.02,58.76,285.51
		z M140.88,285.11c0.71-0.01,0.78-0.47,0.96-0.79c8.88-15.82,17.74-31.65,26.62-47.47c0.26-0.46,0.45-0.91,0.45-1.46
		c-0.01-6.96-0.02-13.91,0.01-20.87c0-0.76-0.27-0.95-0.98-0.93c-1.6,0.04-3.2,0.05-4.8,0c-0.66-0.02-0.99,0.25-1.3,0.8
		c-4.36,7.64-8.73,15.26-13.11,22.88c-0.35,0.62-0.48,1.24-0.48,1.94c0.01,9.31,0,18.63,0.02,27.94c0,0.99-0.21,1.87-0.62,2.76
		C145.39,274.92,143.17,279.96,140.88,285.11z M100.04,253.82c0.48,0.15,0.63-0.07,0.75-0.27c0.89-1.51,1.78-3.03,2.65-4.55
		c6.5-11.43,12.98-22.86,19.49-34.27c0.52-0.91,0.45-1.16-0.66-1.14c-4.68,0.05-9.35,0.05-14.03-0.01
		c-1.04-0.01-1.24,0.34-1.23,1.29c0.04,5.95-0.13,11.92,0.08,17.86c0.13,3.75-0.59,7.13-2.28,10.45
		C103.06,246.62,101.63,250.22,100.04,253.82z M58.79,246.1c0.1,0.06,0.2,0.11,0.3,0.17c0.74-0.81,1.18-1.83,1.72-2.78
		c5.52-9.59,11.03-19.19,16.54-28.79c0.62-1.09,0.61-1.1-0.67-1.1c-3.12,0-6.24,0.03-9.35-0.02c-0.85-0.01-1.08,0.24-1.07,1.08
		c0.04,4.2-0.02,8.39,0.04,12.59c0.02,1.35-0.23,2.58-0.8,3.81c-1.3,2.79-2.51,5.61-3.76,8.42
		C60.74,241.69,59.76,243.89,58.79,246.1z M159.93,213.6c-3.7,0-7.14,0.03-10.57-0.02c-0.93-0.02-1.13,0.28-1.12,1.16
		c0.04,4.47,0.02,8.95,0.02,13.43c0,0.57-0.06,1.1-0.3,1.63c-2.24,4.99-4.47,9.98-6.7,14.97c-0.2,0.45-0.35,0.94-0.52,1.4
		c0.13,0.06,0.25,0.11,0.38,0.17C147.35,235.49,153.58,224.65,159.93,213.6z"></path>
	<path d="M186.83,284.9c1.42-2.64,2.94-5.23,4.58-7.75c0.19,1.81,0.33,3.63-0.33,5.37c-0.29,0.76-0.83,1.42-1.62,1.7
		C188.61,284.52,187.71,284.68,186.83,284.9z"></path>
</g>
<g class="" id="c-estampa-secundaria" fill="#ffffff">
	<path d="M101.46,289.4c1.71-3.92,3.41-7.84,5.15-11.74c0.3-0.68,0.42-1.35,0.42-2.08c-0.01-9.2,0-18.39-0.02-27.59
		c0-0.75,0.15-1.39,0.53-2.04c4.61-8,9.17-16.02,13.84-23.99c1.43-2.45,2.82-4.92,4.25-7.37c0.12-0.21,0.24-0.41,0.36-0.62
		c0.32-0.54,0.85-0.39,1.3-0.34c0.53,0.06,0.37,0.54,0.37,0.86c0.01,9.96,0,19.91,0.02,29.87c0,0.51-0.18,0.92-0.42,1.34
		c-6.62,11.68-13.2,23.39-19.86,35.05c-1.64,2.88-3.34,5.73-4.91,8.65C102.15,289.4,101.8,289.4,101.46,289.4z"></path>
	<path d="M66.28,288.83c0-3.52,0-7.04-0.02-10.55c0-0.62,0.15-1.15,0.46-1.7c9.11-16.24,18.2-32.49,27.3-48.74
		c0.33-0.6,0.54-1.28,1.27-1.67c-0.33,0.86-0.63,1.73-1.01,2.56c-2.3,5.14-4.61,10.28-6.95,15.41c-0.29,0.64-0.42,1.26-0.42,1.96
		c0.01,9.4,0,18.79,0.03,28.19c0,0.88-0.22,1.62-0.65,2.37c-2.27,3.95-4.5,7.92-6.75,11.89c-0.16,0.28-0.26,0.58-0.39,0.87
		C74.84,289.56,70.55,289.31,66.28,288.83z"></path>
	<path d="M148.3,288.9c-0.01-3.68-0.02-7.36-0.05-11.03c0-0.56,0.24-1,0.49-1.45c9.15-16.36,18.3-32.73,27.46-49.08
		c0.14-0.26,0.18-0.64,0.67-0.68c-0.02,0.87-0.44,1.6-0.77,2.33c-2.26,5.07-4.55,10.14-6.85,15.2c-0.28,0.61-0.36,1.21-0.36,1.86
		c0.01,9.44,0,18.87,0.01,28.31c0,0.6-0.04,1.17-0.36,1.73c-2.12,3.71-4.21,7.44-6.32,11.16c-0.19,0.34-0.46,0.65-0.69,0.97
		C157.15,288.94,152.73,288.92,148.3,288.9z"></path>
	<path d="M107.03,289.38c-0.32-2.53,0.48-4.68,1.75-6.88c6.07-10.52,12-21.13,18-31.7
		c2.35-4.14,4.75-8.24,7.12-12.36c0.1-0.17,0.24-0.31,0.37-0.46c0.06,0.05,0.11,0.09,0.17,0.14c0.06,0.5-0.15,0.93-0.34,1.37
		c-1.99,4.49-3.97,8.98-5.98,13.46c-0.3,0.67-0.45,1.33-0.45,2.07c0.02,9.15-0.01,18.29,0.03,27.44c0.01,1.3-0.3,2.4-0.97,3.49
		c-0.65,1.05-1.18,2.17-1.77,3.26c-0.15,0.05-0.3,0.16-0.44,0.16C118.69,289.37,112.86,289.38,107.03,289.38z"></path>
	<path d="M45.29,250.66c1.3-1.38,2.06-3.11,2.99-4.72c1.56-2.7,3.07-5.43,4.61-8.14c0.13-0.23,0.2-0.54,0.55-0.57
		c0.24,0.48-0.07,0.85-0.24,1.23c-2.17,4.9-4.33,9.8-6.52,14.68c-0.25,0.56-0.38,1.11-0.38,1.73c0.01,9.28,0.01,18.56,0.02,27.83
		c0,0.89-0.02,1.75-0.4,2.57c-2.42-0.68-2.83-1.16-2.65-3.6c0.48-6.6,1.06-13.2,1.5-19.8c0.21-3.1,0.2-6.22,0.3-9.33
		C45.1,251.91,44.97,251.25,45.29,250.66z"></path>
	<path d="M185.1,285.35c1.09-2.53,2.17-5.06,3.3-7.57c0.32-0.71,0.48-1.4,0.48-2.19
		c-0.02-9.27-0.01-18.55-0.01-27.82c0-0.62-0.16-1.33,0.69-1.6c0.52,1.68,0.35,3.41,0.35,5.12c0,3.75,0.55,7.44,0.77,11.17
		c0.27,4.54,0.56,9.08,0.83,13.62c0.02,0.35-0.06,0.71-0.1,1.07c-1.64,2.52-3.15,5.11-4.58,7.75
		C186.3,285.23,185.73,285.4,185.1,285.35z"></path>
	<path d="M81.53,289.4c2.34-4.5,5.01-8.82,7.5-13.23c1.47-2.61,2.95-5.21,4.44-7.81c0.19-0.33,0.27-0.76,0.73-0.95
		c0.28,0.44-0.06,0.76-0.2,1.08c-1.96,4.46-3.87,8.94-5.93,13.36c-0.83,1.79-1.35,3.55-1.17,5.52c0.06,0.67,0.02,1.36,0.02,2.04
		C85.13,289.4,83.33,289.4,81.53,289.4z"></path>
	<path d="M164.19,288.24c0.98-2.23,2.29-4.28,3.48-6.4c2.8-4.97,5.65-9.92,8.47-14.88c0.08-0.15,0.15-0.27,0.42-0.24
		c-0.06,0.89-0.55,1.62-0.89,2.39c-2.09,4.75-4.18,9.5-6.34,14.22c-0.7,1.52-0.28,3.07-0.47,4.6
		C167.32,288.19,165.77,288.32,164.19,288.24z"></path>
	<path d="M189.1,242.52c-1.73,2.46-3.01,5.18-4.54,7.75c-0.88,1.47-1.69,2.97-2.56,4.48
		c-0.52-0.42-0.23-0.76-0.07-1.11c1.96-4.42,3.87-8.87,5.91-13.25c0.73-1.57,1.14-3.11,1.05-4.84c-0.06-1.14-0.19-2.31,0.17-3.44
		C189.75,235.58,189.5,239.05,189.1,242.52z"></path>
	<path d="M127.26,289.36c2.62-4.62,5.23-9.23,7.85-13.85c0.11,0.05,0.21,0.11,0.32,0.16
		c-1.96,4.5-3.93,9.01-5.89,13.51C128.78,289.24,128.04,289.56,127.26,289.36z"></path>
	<path d="M47.99,285.82c1.82-3.27,3.63-6.54,5.45-9.8c0.12,0.06,0.25,0.11,0.37,0.17
		c-1.42,3.36-2.84,6.71-4.26,10.07C49,286.22,48.46,286.15,47.99,285.82z"></path>
	<path d="M189.06,225.82c-0.33-0.89-0.17-1.81-0.18-2.72c-0.03-2.84-0.03-5.67-0.01-8.51c0-0.36-0.29-0.96,0.49-0.97
		C189.76,217.71,189.39,221.76,189.06,225.82z"></path>
	<path d="M58.76,285.51c2.45-5.49,4.75-10.7,7.09-15.9c0.3-0.68,0.43-1.34,0.43-2.08c-0.01-9.43,0-18.87-0.02-28.3
		c0-0.71,0.15-1.32,0.51-1.93c4.34-7.55,8.68-15.1,12.99-22.68c0.43-0.76,0.89-1.09,1.77-1.05c1.48,0.08,2.96,0.05,4.44,0.01
		c0.71-0.02,0.98,0.16,0.97,0.93c-0.03,7-0.02,13.99,0,20.99c0,0.56-0.22,1-0.47,1.45c-8.79,15.68-17.58,31.37-26.39,47.05
		C59.8,284.5,59.6,285.09,58.76,285.51z"></path>
	<path d="M140.88,285.11c2.29-5.15,4.51-10.19,6.77-15.2c0.4-0.9,0.62-1.78,0.62-2.76
		c-0.02-9.31-0.01-18.63-0.02-27.94c0-0.7,0.12-1.32,0.48-1.94c4.38-7.62,8.76-15.25,13.11-22.88c0.31-0.54,0.64-0.82,1.3-0.8
		c1.6,0.05,3.2,0.05,4.8,0c0.71-0.02,0.98,0.17,0.98,0.93c-0.03,6.96-0.02,13.91-0.01,20.87c0,0.55-0.19,1-0.45,1.46
		c-8.87,15.82-17.74,31.65-26.62,47.47C141.67,284.64,141.59,285.1,140.88,285.11z"></path>
	<path d="M100.04,253.82c1.59-3.59,3.02-7.19,4.76-10.63c1.69-3.33,2.42-6.71,2.28-10.45
		c-0.21-5.95-0.04-11.91-0.08-17.86c-0.01-0.96,0.18-1.31,1.23-1.29c4.68,0.06,9.35,0.05,14.03,0.01c1.11-0.01,1.18,0.23,0.66,1.14
		c-6.51,11.42-13,22.85-19.49,34.27c-0.87,1.53-1.76,3.04-2.65,4.55C100.67,253.75,100.51,253.97,100.04,253.82z"></path>
	<path d="M58.79,246.1c0.98-2.2,1.96-4.41,2.94-6.61c1.25-2.81,2.46-5.64,3.76-8.42c0.57-1.23,0.82-2.45,0.8-3.81
		c-0.05-4.2,0-8.39-0.04-12.59c-0.01-0.84,0.23-1.09,1.07-1.08c3.12,0.05,6.24,0.02,9.35,0.02c1.28,0,1.29,0.01,0.67,1.1
		c-5.51,9.6-11.02,19.2-16.54,28.79c-0.54,0.94-0.98,1.96-1.72,2.78C58.99,246.21,58.89,246.15,58.79,246.1z"></path>
	<path d="M159.93,213.6c-6.35,11.05-12.58,21.89-18.81,32.73c-0.13-0.06-0.25-0.11-0.38-0.17
		c0.17-0.47,0.32-0.95,0.52-1.4c2.23-4.99,4.45-9.99,6.7-14.97c0.24-0.53,0.3-1.06,0.3-1.63c-0.01-4.48,0.02-8.95-0.02-13.43
		c-0.01-0.87,0.19-1.17,1.12-1.16C152.79,213.63,156.23,213.6,159.93,213.6z"></path>
	<path d="M134.27,237.97c0.04-0.14,0.14-0.36,0.26-0.29c0.22,0.13,0.11,0.31-0.09,0.42
		C134.38,238.07,134.32,238.02,134.27,237.97z"></path>
</g>
</svg>
