<!--?xml version="1.0" encoding="utf-8"?-->
<!-- Generator: Adobe Illustrator 24.2.3, SVG Export Plug-In . SVG Version: 6.00 Build 0)  -->
<svg version="1.1" id="Camada_1" xmlns="http://www.w3.org/2000/svg" xmlns:xlink="http://www.w3.org/1999/xlink" x="0px" y="0px" viewBox="0 0 229 418" enable-background="new 0 0 229 418" xml:space="preserve">
<g onclick="select(this)" class="" id="estampa-primaria" fill="#ffffff">
	<path d="M228.7200165,115.9091263c-6.8570862,2.7827835-14.0115051,4.3406982-21.3354645,5.2296143
		c-6.1862183,0.750824-12.3678589,0.6984482-18.5510712,0.0143433c-1.5453033-0.1709747-3.0975189-0.3513031-4.5794525-1.2694016
		c-0.2169189,2.0421448-0.4039917,3.9819565-0.6319275,5.9169312c-0.861618,7.3140259-1.3113708,14.6530762-1.370636,22.0166626
		c-0.0177307,2.2018127,0.0953064,4.383728,0.5359802,6.5584259c0.3860474,1.9051361-0.1155548,3.8226776-0.2162781,5.7349701
		c-0.0441437,0.8381653-0.1983643,1.6776886-0.167038,2.5115051c0.241745,6.4339905-0.6018982,12.8660889-0.0212097,19.2996826
		c0.2061462,2.284317-0.2225647,4.5480499-0.2406158,6.8274384c-0.0176392,2.2258301,0.4885712,4.3560944,0.9602356,6.5027924
		c1.6187744,7.3680878,1.4360504,14.7684784,0.3490295,22.1804199c-0.3085785,2.1042328-0.3442688,4.1344452,0.3420105,6.2393036
		c1.7837524,5.4710236,1.809082,11.092804,0.9313202,16.7334442c-0.2181702,1.4020844-0.2405243,2.7675781,0.0812683,4.1573334
		c0.8852844,3.8232117,0.4765778,7.7228546,0.6647644,11.5888672c0.2894745,5.9467468,0.6959839,11.8880615,1.4334106,17.8043213
		c0.2555084,2.0498657,0.224411,4.1394653,0.256546,6.2119446c0.0269928,1.7406921-0.3428345,2.2257996-2.0601044,2.7466431
		c-2.9653473,0.8992615-6.04422,1.150177-9.104599,1.47229c-8.4041901,0.8846741-16.8450012,0.8862305-25.2813416,1.0518494
		c-11.6345825,0.2284241-23.2668076,0.7759094-34.9005966,0.7920837c-11.3927765,0.0158081-22.7770309-0.7911987-34.1763-0.8497925
		c-8.4375916-0.0433655-16.8772888-0.1066589-25.2971573-0.7494507c-4.1884079-0.3197327-8.3652725-0.7580566-12.4670639-1.7159424
		c-3.6220703-0.8458252-3.9769592-1.1672668-3.7673759-4.8195801c0.4437485-7.7331238,1.0076637-15.4594116,1.5511818-23.1865082
		c0.137619-1.9564819,0.2650146-3.9111328,0.2188148-5.8716888c-0.044426-1.8850861,0.0371933-3.7595825,0.3750038-5.6161194
		c0.4041214-2.2209778,0.4348602-4.4328308,0.1114197-6.6762848c-0.3630753-2.5183868-0.1064415-5.0337219,0.4403725-7.507782
		c0.229351-1.0377045,0.1885948-2.0505829,0.1124306-3.0931854c-0.3289948-4.5034637-1.0130806-8.9865417-0.8278008-13.5207214
		c0.1779747-4.3552704,1.2034531-8.5379181,2.6789932-12.6140289c0.376255-1.0393982,0.6096687-2.0338898,0.4472656-3.1455078
		c-0.179554-1.2289886-0.1573334-2.4737549,0.0748062-3.7040253c0.3068962-1.6264038,0.1977577-3.2499084,0.1169243-4.8948364
		c-0.1625443-3.3075562-0.1852112-6.6236725-0.1988068-9.936554c-0.0529633-12.9072113-0.0434799-25.8148041-0.1342087-38.7217102
		c-0.0363274-5.1678162-0.9986-10.2619476-1.515049-15.3920364c-0.1308861-1.3001709-0.2865753-2.5978546-0.4282722-3.8733444
		c-7.9156647,2.5018616-15.9408665,2.0084457-23.9401245,1.4649811c-5.6702223-0.3852386-11.2753553-1.313324-16.7191677-3.0371017
		C1.5910727,118.4910202,0.73636,118.1647644,0,117.58918c0-1.0400391,0-2.0800705,0-3.1201096
		c0.783927-1.5675659,0.8099728-3.3188324,1.1322032-4.9859009c1.8816165-9.7345734,2.8292217-19.611496,4.3741846-29.400116
		C6.396719,74.4420624,6.8316898,68.7316895,8.188921,63.1605492c2.1208687-8.705719,5.5587997-16.7393761,11.6269512-23.4981079
		c2.3090744-2.5718613,5.1204891-4.5881538,7.5156975-7.0554085c0.5769691-0.5943298,1.2716312-1.0107613,1.9922905-1.3598423
		c6.878334-3.3317699,13.9418335-6.2394104,20.9893608-9.1882172c7.5772324-3.1704464,14.9921684-6.6861105,22.0402946-10.933156
		c0.5205917-0.3136969,0.938858-0.7052107,1.3328934-1.1698713c1.0576782-1.2472401,2.2910233-2.2286615,4.0455093-2.2414775
		c-1.7426758,1.2387757-2.0797348,2.5517564-1.4804459,4.9368949c0.9044418,3.5996304,2.8047638,6.6585598,5.3392792,9.2416687
		c6.1037369,6.2207603,13.1666946,10.9262619,21.7132034,13.202858c9.0851364,2.4200706,17.9121552,1.8001556,26.4822388-2.0538559
		c5.7534943-2.5873833,10.7975006-6.2120018,15.2504425-10.680481c2.75914-2.7687893,4.7949371-5.9468708,5.7653351-9.7565527
		c0.6312256-2.4780016,0.1494751-3.7484112-1.6930389-4.6482425c1.8110199-0.1460547,2.95755,0.965282,4.0596313,2.1531863
		c0.2682648,0.2891541,0.4216614,0.6679039,0.7888489,0.8851299c3.9733429,2.3505602,7.8821564,4.8021231,12.1104736,6.7089548
		c10.4221191,4.7000275,21.1058655,8.791008,31.4871826,13.5840931c0.7298584,0.3369789,1.3702545,0.7726955,1.9723663,1.2949696
		c0.93573,0.8116951,1.8710632,1.6272469,2.8497467,2.3854408c2.9891663,2.3157883,5.6452942,4.9611511,7.9433899,7.9609566
		c5.4535065,7.1186485,8.2686157,15.3354073,10.0013428,24.0102692c0.9792938,4.9027557,1.1637421,9.9329453,2.4346924,14.7880783
		c2.2414398,8.5624313,3.4134827,17.3221436,4.816803,26.0409851c0.2710724,1.6842651,0.4394836,3.4223328,1.1466064,5.0201874
		C228.7200165,113.8290482,228.7200165,114.8690796,228.7200165,115.9091263z"></path>
	<path d="M143.9868927,8.8244038c-3.243103,9.9815178-19.227684,19.7563972-31.3209457,19.3176403
		c-11.6934586-0.4242554-27.5028687-10.7394905-29.7144165-19.5586624
		c10.1778793,0.8942547,20.2818298,2.1453772,30.43647,2.1348486
		C123.5732574,10.7076693,133.7262268,9.6953058,143.9868927,8.8244038z"></path>
</g>
<g onclick="select(this)" class="" id="estampa-terciaria" fill="#bf0811">
	<path d="M160,30c-0.0048828,0.5996571,0,0.4003429,0,1c-0.0006256,84.5209732,0.0007172,169.4790192,0,254
		c0,1-0.6516418,0.2566223-0.6572113,0.5762329c-1.5456238,0.221283-3.1030426,0.2014771-4.6576843,0.2124023
		c-2.4369812,0.0171509-4.8740692,0.1193848-7.3112335,0.0095825C146,286,146,284.598938,146,283.9992981
		C145.9994202,197.3447571,145.9984894,110.6545334,146,24c0.0000153-0.5592442-0.0116577-1.4407558,0-2
		c0,0,1.9315948,0.4809151,2.1522827,0.6345539c3.4840546,2.425539,7.133606,4.5659637,10.9647369,6.3963509C160,30,160,29,160,30z"></path>
</g>
<g onclick="select(this)" class="" id="estampa-secundaria" fill="#000000">
	<path d="M146.4300842,21.1076565c-0.264801,0.8697166,0.5967865,0.8696899,0.9654083,1.2503033
		c-0.0116577,0.5592461-0.0335083,1.1184883-0.0335236,1.6777325c-0.0015106,86.6545334-0.0014648,173.3090668-0.000885,259.9635925
		c0,0.5996399,0.0083466,1.1992493,0.0127869,1.7989197c-3.9719391,0.1210632-7.9438324,0.2437134-11.9159393,0.3585205
		c-0.19133,0.0055542-0.3846436-0.0576172-0.5770111-0.0888367c-0.0003204-88.086731,0.0006104-176.1734619-0.0193024-264.2601929
		c-0.0001831-0.8448849,0.2346344-1.4063282,0.9070587-1.9128685c1.2783508-0.9629498,2.4211273-2.0871506,3.5317383-3.240675
		c0.2180481-0.2264633,0.4019165-0.5038815,0.7362366-0.5881443c1.4877472,1.3592968,3.158371,2.4869823,4.7329712,3.7362823
		C145.321167,20.2398796,145.8764801,20.6726742,146.4300842,21.1076565z"></path>
	<path d="M159.3740997,29.2555637c3.9598236,1.8100128,7.9889679,3.4461765,12.1281433,4.8017864
		c0.4689941,0.1536026,0.6226959,0.4240952,0.5828552,0.886158c-0.027359,0.3175125-0.0050659,0.6392975-0.0050659,0.9591751
		c0.0000153,82.4882965-0.0000763,164.9766083,0.0019073,247.4649048c0.0000153,0.5185547,0.0287323,1.0371399,0.0440369,1.5556946
		c-0.0554047,0.3635864-0.3121185,0.3822632-0.6114655,0.39151c-4.0564728,0.1246643-8.1109467,0.3369141-12.1717224,0.2614441
		c0.0055695-0.3196106,0.0160217-0.6391907,0.0160217-0.9587708c0.0007172-84.5209808,0.0006561-169.0419617,0.0012817-253.5629272
		C159.3600922,30.4548779,159.3692169,29.8552208,159.3740997,29.2555637z"></path>
</g>
<g onclick="select(this)" class="" id="gola-primaria" fill="#ffffff">
	<path d="M77.7319183,7.7144685c0.9347229-0.1562018,1.5103683-0.8625898,2.150238-1.4466228
		c0.7069397-0.6452489,1.4712906-1.2745709,2.0082169-2.0508404c2.1032867-3.0408356,5.3332214-3.8856575,8.6121826-3.9148927
		c15.2177734-0.1356812,30.4374924-0.0768502,45.6563644-0.0336719c1.8729095,0.0053137,3.7168732,0.481291,5.5058289,1.072732
		c0.8923492,0.2950189,1.5991211,0.8437436,2.220108,1.5630667c1.5876007,1.8389952,3.0817719,3.7835243,5.2238464,5.0525265
		c1.8427429,0.8998232,2.3244934,2.1702328,1.6932678,4.6482344c-0.9703979,3.8096819-3.0061951,6.9877634-5.7653351,9.7565527
		c-4.4529419,4.4684792-9.4969482,8.0930977-15.2504425,10.680481c-8.5700836,3.8540115-17.3971024,4.4739265-26.4822388,2.0538559
		c-8.5465088-2.2765961-15.6094666-6.9820976-21.7132034-13.202858c-2.5345154-2.5831089-4.4348373-5.6420383-5.3392792-9.2416687
		C75.6521835,10.2662249,75.9892426,8.9532442,77.7319183,7.7144685z M143.9868927,8.8244038
		c-10.2606659,0.8709021-20.4136353,1.8832655-30.5988922,1.8938265c-10.1546402,0.0105286-20.2585907-1.2405939-30.43647-2.1348486
		c2.2115479,8.8191719,18.0209579,19.134407,29.7144165,19.5586624
		C124.7592087,28.580801,140.7437897,18.8059216,143.9868927,8.8244038z"></path>
</g>
<g onclick="select(this)">
	<image overflow="visible" width="466" height="309" xlink:href="93B4260F.jpg" transform="matrix(1 0 0 1 -7894 -7770.1103516)">
	</image>
</g>
<image overflow="visible" width="466" height="309" xlink:href="93B4260D.jpg" transform="matrix(1 0 0 1 -7894 -7770.1103516)">
</image>
</svg>
