<!--?xml version="1.0" encoding="utf-8"?-->
<!-- Generator: Adobe Illustrator 24.2.3, SVG Export Plug-In . SVG Version: 6.00 Build 0)  -->
<svg version="1.1" id="Camada_1" xmlns="http://www.w3.org/2000/svg" xmlns:xlink="http://www.w3.org/1999/xlink" x="0px" y="0px" viewBox="0 0 229 418" style="enable-background:new 0 0 229 418;" xml:space="preserve">
<style type="text/css">
	.st0{fill:#FD0202;}
	.st1{fill:#04EFFA;}
	.st2{fill:#95DE73;}
	.st3{fill:#8CE289;}
	.st4{fill:#D5B342;}
	.st5{fill:#150FD8;}
	.st6{fill:#DFBA2F;}
</style>
<g onclick="select(this)" class="" id="gola-primaria" fill="#70a83b">
	<path d="M78,8c0.8-0.1,1.3-0.6,1.8-1.1c0.8-0.7,1.6-1.4,2.2-2.2c2.4-3.4,5.9-4.1,9.6-4.1c10.8-0.1,21.7,0,32.5,0
		c3.7,0,7.4,0,11,0c2.1,0,4.1,0.4,6.1,0.9c1.2,0.3,2.2,1,3.1,2c1.5,1.8,3,3.7,5.1,4.9c1.9,0.9,2.2,2,1.6,4.7c-0.9,4-3.1,7.3-6,10.1
		c-3.2,3.1-6.7,5.8-10.6,8c-2.5,1.4-5,2.6-7.6,3.6c-4.9,1.8-10,2.5-15.3,2.1c-6.9-0.5-13.4-2.4-19.3-6.2c-4.7-3-9.1-6.2-12.5-10.7
		c-1.6-2.1-2.7-4.4-3.4-7C75.9,10.5,76.2,9.2,78,8z M144.3,9.1c-1.6,0.1-3.1,0.2-4.5,0.3c-8.3,0.7-16.6,1.3-25,1.5
		c-6.4,0.2-12.8-0.5-19.1-1c-3.9-0.3-7.7-0.7-11.6-1C83.3,8.8,83,9,83.4,9.8c0.5,1.1,1,2.3,1.8,3.2c3.9,4.9,8.5,9,14.2,11.7
		c5.4,2.7,11.2,4.2,17.3,3.4c9.8-1.2,17.7-6,24.1-13.4C142.3,13.2,143.5,11.4,144.3,9.1z"></path>
</g>
<g onclick="select(this)" class="" id="estampa-primaria" fill="#ffffff">
	<path d="M229,116.1c-6.9,2.8-14,4.3-21.3,5.2c-6.2,0.8-12.4,0.7-18.6,0c-1.5-0.2-3.1-0.4-4.6-1.3c-0.2,2.1-0.4,4.1-0.6,6
		c-0.9,7.2-1.3,14.5-1.4,21.8c0,2.2,0.1,4.4,0.5,6.6c0.4,2-0.1,3.9-0.2,5.8c0,0.7-0.2,1.4-0.1,2.2c0.2,6.5-0.6,13.1,0,19.6
		c0.1,1.5,0,3-0.1,4.4c-0.3,3.1,0.2,6.1,0.9,9.1c1.6,7.2,1.4,14.5,0.3,21.8c-0.3,2.1-0.4,4.2,0.3,6.4c1.8,5.4,1.8,11,0.9,16.6
		c-0.2,1.5-0.3,2.9,0.1,4.4c0.9,3.8,0.4,7.7,0.6,11.6c0.3,5.9,0.7,11.8,1.4,17.7c0.3,2,0.2,4.1,0.3,6.2c0,1.7-0.4,2.2-2.1,2.7
		c-3,0.9-6.1,1.2-9.2,1.5c-7.7,0.8-15.4,0.9-23.1,1c-11.2,0.2-22.5,0.7-33.7,0.8c-12.5,0.2-24.9-0.8-37.4-0.8
		c-8.4,0-16.8-0.1-25.2-0.7c-4.1-0.3-8.3-0.8-12.4-1.7c-0.2,0-0.3-0.1-0.5-0.1c-3.4-0.8-3.7-1.2-3.5-4.7c0.5-7.7,1-15.5,1.5-23.2
		c0.1-2.1,0.3-4.1,0.2-6.2c0-1.8,0-3.5,0.4-5.3c0.4-2.3,0.5-4.5,0.1-6.8c-0.4-2.5-0.1-5,0.4-7.5c0.2-1,0.2-2,0.1-3
		c-0.3-4.5-1-9.1-0.8-13.6c0.2-4.4,1.2-8.5,2.7-12.6c0.4-1,0.6-2,0.4-3.1c-0.2-1.2-0.2-2.5,0.1-3.7c0.3-1.7,0.2-3.3,0.1-5
		c-0.2-3.3-0.2-6.5-0.2-9.8c-0.1-12.9,0-25.9-0.1-38.8c0-5.1-1-10.2-1.5-15.3c-0.1-1.3-0.3-2.6-0.5-3.8c-8.8,2.5-17.7,2-26.6,1.1
		c-4.7-0.5-9.4-1.3-14-2.8c-0.9-0.3-1.7-0.6-2.5-1.2c0-1,0-2.1,0-3.1c0.4-0.1,0.3-0.4,0.3-0.7c0.3-1.8,0.7-3.7,1-5.5
		c1.9-10,2.9-20.1,4.4-30.1c0.9-6,1.5-12,3.2-17.8c2.7-9.7,7.4-18.3,15.2-24.9c1.1-0.9,2.2-1.9,3.2-2.9c0.6-0.6,1.3-1,2-1.4
		c6.5-3.1,13.1-5.9,19.8-8.7c7.6-3.1,15-6.6,22.1-10.7c1-0.6,2-1.3,2.8-2.2C75.2,8.7,76.4,8,78,8c-1.7,1.3-2.1,2.5-1.5,4.8
		c0.7,2.5,1.8,4.8,3.4,7c3.3,4.5,7.8,7.8,12.5,10.7c5.9,3.7,12.4,5.7,19.3,6.2c5.2,0.4,10.3-0.4,15.3-2.1c2.7-1,5.2-2.2,7.6-3.6
		c3.9-2.2,7.4-4.9,10.6-8c2.8-2.8,5.1-6.1,6-10.1c0.6-2.7,0.2-3.8-1.6-4.7c1.8-0.1,3,1,4.1,2.2c0.3,0.3,0.4,0.7,0.8,0.9
		c4,2.3,7.9,4.8,12.1,6.7c10.4,4.7,21.1,8.8,31.5,13.6c0.7,0.3,1.3,0.7,1.9,1.2c1.1,0.9,2.1,1.8,3.2,2.7c3.7,2.9,6.8,6.3,9.4,10.2
		c4.3,6.6,6.7,13.9,8.3,21.6c1,4.9,1.2,9.8,2.4,14.7c1.5,5.7,2.6,11.5,3.5,17.4c0.5,3.6,1,7.3,1.7,10.8c0.2,0.8-0.2,1.9,0.8,2.5
		C229,113.7,229,114.9,229,116.1z"></path>
	<path d="M144.3,9.1c-0.8,2.3-2.1,4.1-3.5,5.8c-6.4,7.4-14.3,12.2-24.1,13.4c-6.1,0.7-11.8-0.8-17.3-3.4C93.8,22,89.1,18,85.2,13
		c-0.8-1-1.3-2.1-1.8-3.2c-0.4-0.9-0.1-1,0.7-0.9C88,9.3,91.8,9.7,95.7,10c6.4,0.5,12.7,1.2,19.1,1c8.3-0.2,16.7-0.8,25-1.5
		C141.3,9.3,142.7,9.2,144.3,9.1z"></path>
</g>
<path d="M41.5,261.6c-0.1,0.4-0.1,0.8-0.2,1.2C41.4,262.4,41.2,261.9,41.5,261.6z"></path>
<path d="M45.7,188.9c0.2,0.2,0.1,0.5,0.1,0.8C45.6,189.4,45.6,189.1,45.7,188.9z"></path>
<polygon class="st3" points="125.6,286.3 125.6,286.2 125.7,286.3 "></polygon>
<path d="M7.6,67.3c0,0.1,0,0.2-0.1,0.4C7.5,67.5,7.5,67.4,7.6,67.3z"></path>
<g onclick="select(this)" class="" id="estampa-terciaria" fill="#000000">
	<path d="M198.9,32.2c0.8,0.4,1.4,1.1,2,1.7c0.7,3.1,1.4,6.2,2.1,9.3c0.1,0,0.1,0,0.2,0c0.3-1.6,0.5-3.1,0.8-4.7
		c0.1,0,0.1,0,0.2,0c0.5,2.8,0.9,5.6,1.4,8.4c0.1,0,0.1,0,0.2,0c0.3-1.6,0.5-3.2,0.8-4.8c0.1,0,0.1,0,0.2,0c0.4,2.7,0.9,5.4,1.3,8
		c0.8-1.4,0.7-3,1.2-4.7c0.5,3.1,1,5.8,1.5,8.6c0.5-1.3,0.5-2.7,1.3-3.9c0.4,2.5,0.9,5.1,1.3,7.6c0.1,0,0.1,0,0.2,0
		c0.2-1.5,0.5-3,0.7-4.4c0.1,0,0.2,0,0.2,0c0.5,2.7,0.9,5.5,1.4,8.2c0.1,0,0.1,0,0.2,0c0.3-1.5,0.5-3,0.8-4.7
		c0.4,0.4,0.4,0.8,0.4,1.2c0.4,2.2,0.7,4.4,1.1,6.6c0,0.2,0,0.6,0.4,0.6s0.3-0.4,0.4-0.6c0.2-0.5,0-1.1,0.4-1.6
		c0.9,3.2,1.5,6.4,1.8,9.6c0.4,3.6,1.1,7.1,1.8,10.6c-0.1,0.6-0.2,1.2-0.3,1.8c-0.1,0-0.1,0-0.2,0c-0.3-1.4-0.6-2.7-0.9-4.1
		c-0.1,0-0.2,0-0.2,0c-0.4,2.5-0.7,5.1-1.1,7.6c-0.1,0-0.1,0-0.2,0c-0.4-3-0.7-6.1-1.1-9.1c-0.1,0-0.2,0-0.3,0c-0.2,3-0.5,6-0.7,9
		c-0.1,0-0.2,0-0.3,0c-0.4-2.5-0.9-5-1.3-7.5c-0.1,0-0.1,0-0.2,0c-0.3,1.4-0.5,2.8-0.8,4.2c-0.1,0-0.1,0-0.2,0
		c-0.5-2.6-0.9-5.2-1.4-7.8c-0.1,0-0.1,0-0.2,0c-0.3,1.4-0.5,2.8-0.8,4.2c-0.1,0-0.1,0-0.2,0c-0.5-2.6-1-5.3-1.4-7.9
		c-0.1,0-0.1,0-0.2,0c-0.3,1.4-0.5,2.8-0.8,4.2c-0.1,0-0.1,0-0.2,0c-0.5-2.6-1-5.3-1.4-7.9c-0.5,1.4-0.6,2.9-1.1,4.5
		c-0.5-2.9-1-5.5-1.4-8.1c-0.4,0.9-0.5,1.8-0.7,2.7c0,0.2,0,0.5-0.3,0.6c-0.4,0-0.4-0.4-0.4-0.6c-0.1-0.3-0.1-0.5-0.1-0.8
		c-0.3-1.8-0.7-3.6-1-5.4c-0.1,0-0.2,0-0.3,0c-0.2,1.3-0.5,2.7-0.7,4c-0.1,0-0.1,0-0.2,0c-0.2-1.4-0.4-2.9-0.6-4.6
		c-0.7,1.1-0.5,2.1-0.5,3c0,2.4-0.2,4.8,0.2,7.1c0.4,2.5,1.1,5,1.7,7.5c0.1,0.3,0,0.8,0.4,0.8c0.5,0,0.4-0.5,0.5-0.8
		c0.2-1,0.4-2.1,0.5-3.1c0.1,0,0.1,0,0.2,0c0.5,2.8,0.9,5.6,1.4,8.4c0.1,0,0.1,0,0.2,0c0.2-1.5,0.5-3,0.7-4.6c0.1,0,0.2,0,0.2,0
		c0.5,2.7,0.9,5.5,1.4,8.2c0.1,0,0.1,0,0.2,0c0.2-1.4,0.5-2.7,0.7-4.1c1,2.5,1.2,5.2,1.9,7.8c0.3-1.6,0.5-3.2,0.8-4.8
		c0.1,0,0.1,0,0.2,0c0.5,2.8,0.9,5.6,1.4,8.5c0.1,0,0.1,0,0.2,0c0.3-1.6,0.5-3.1,0.8-4.7c0.1,0,0.1,0,0.2,0c0.5,2.8,0.9,5.7,1.4,8.5
		c0.5-1.6,0.6-3.2,1.1-5c0.6,3.5,1.1,6.7,1.6,9.9c0.1,0,0.1,0,0.2,0c0.4-3.2,0.8-6.4,1.3-9.6c0.1,0,0.2,0,0.2,0
		c0.3,1.5,0.6,3,0.9,4.6c0.1,0,0.2,0,0.2,0c0.4-2.8,0.7-5.6,1.1-8.3c0.1,0,0.1,0,0.2,0c0.3,1.5,0.6,3.1,1,5c0.5-1.3,0.1-2.3,0.8-3.1
		c0.9,3.7,1.2,7.5,1.9,11.2c0.6,2.9,0.8,5.8,1.7,8.7c0,0.5,0,1,0,1.4c-0.5,0.2,0,0.9-0.6,1.2c-0.3-1.3-0.6-2.7-0.9-4
		c-0.1,0-0.1,0-0.2,0c-0.3,1.8-0.5,3.6-0.8,5.5c-0.4,0.2-0.9,0.5-1.4,0.2c-0.1-0.1-0.2-0.3-0.3,0c-0.4,0.9-1.3,0.8-2,1
		c-2.2,0.6-4.4,1.2-6.7,1.8c-0.7,0-0.6-0.6-0.6-0.9c-0.2-1.2-0.4-2.3-0.6-3.5c-0.1,0-0.1,0-0.2,0c-0.3,1.4-0.5,2.7-0.8,4.1
		c-0.1,0-0.1,0-0.2,0c-0.5-2.6-0.9-5.2-1.4-7.8c-0.1,0-0.1,0-0.2,0c-0.3,1.4-0.5,2.7-0.8,4.1c-0.1,0-0.1,0-0.2,0
		c-0.5-2.6-1-5.2-1.4-7.8c-0.1,0-0.1,0-0.2,0c-0.3,1.4-0.5,2.8-0.8,4.2c-0.1,0-0.1,0-0.2,0c-0.5-2.6-0.9-5.2-1.4-7.9
		c-0.1,0-0.1,0-0.2,0c-0.3,1.4-0.5,2.8-0.8,4.2c-0.1,0-0.1,0-0.2,0c-0.5-2.6-0.9-5.2-1.4-7.8c-0.1,0-0.2,0-0.2,0
		c-0.3,1.4-0.5,2.7-0.8,4.1c-0.1,0-0.1,0-0.2,0c-0.2-1.4-0.4-2.9-0.6-4.3c-1.3,6.5,0,12.7,1.9,19.3c0.3-1.9,0.6-3.5,0.8-5.1
		c0.1,0,0.1,0,0.2,0c0.4,2.2,0.7,4.4,1.1,6.6c-1.4,0.3-2.9,0.4-4.4,0.4c-0.1-3.4,0.1-6.8-0.4-10.2c-0.1,0-0.2,0-0.4,0
		c-0.1,1.4-0.3,2.9-0.4,4.3c-0.1,0-0.1,0-0.2,0c-0.3-1.4-0.6-2.8-0.9-4.2c-0.1,0-0.1,0-0.2,0c-0.4,2.6-0.8,5.2-1.2,7.9
		c-0.1,0-0.1,0-0.2,0c-0.3-1.4-0.6-2.8-0.9-4.1c-0.1,0-0.1,0-0.2,0c-0.3,2.1-0.6,4.2-1,6.3c-0.9-0.2-1.8-0.1-2.7-0.1
		c-2.2,0-4.3-0.3-6.4-0.7c-0.9-0.2-1.8-0.4-2.6-0.9c-0.2-1.2,0-2.4,0.2-3.7c0.3-2.8,0.7-5.7,1-8.5c0.1-0.6,0.2-1.1,0.3-1.7
		c0.8,1.5,0.6,3.2,1.3,5c0.4-3,0.8-5.8,1.1-8.5c0.1,0,0.2,0,0.2,0c0.3,1.5,0.6,3.1,0.9,4.6c0.1,0,0.1,0,0.2,0
		c0.4-2.8,0.8-5.6,1.2-8.5c0.1,0,0.1,0,0.2,0c0.3,1.5,0.6,3,0.9,4.5c0.1,0,0.1,0,0.2,0c0.4-2.8,0.8-5.6,1.2-8.4c0.1,0,0.1,0,0.2,0
		c0.3,1.6,0.6,3.1,0.9,4.7c0.1,0,0.1,0,0.2,0c0.4-2.7,0.7-5.5,1.1-8.2c0.1,0,0.1,0,0.2,0c0.3,1.5,0.6,3.1,1,4.6c0.1,0,0.1,0,0.2,0
		c0.4-2.8,0.7-5.6,1.1-8.4c0.1,0,0.1,0,0.2,0c0.3,1.6,0.6,3.1,1,5c1.9-6.2,2.6-17.4,1.3-19.3c-0.1,1.5-0.3,2.9-0.4,4.3
		c-0.1,0-0.1,0-0.2,0c-0.3-1.4-0.6-2.7-0.9-4.1c-0.1,0-0.1,0-0.2,0c-0.4,2.6-0.8,5.2-1.2,7.9c-0.1,0-0.1,0-0.2,0
		c-0.3-1.4-0.6-2.7-0.9-4.1c-0.1,0-0.1,0-0.2,0c-0.4,2.6-0.8,5.2-1.1,7.8c-0.1,0-0.1,0-0.2,0c-0.3-1.4-0.7-2.8-1-4.1
		c-0.1,0-0.1,0-0.2,0c-0.4,2.6-0.8,5.2-1.1,7.9c-0.1,0-0.1,0-0.2,0c-0.3-1.1-0.5-2.1-0.8-3.2c0-0.9,0.2-1.7,0.6-2.6
		c1-2.5,1.5-5,1.9-7.6c0.5-4.1,0.3-8.2,0.4-12.3c0-1.4,0.5-2.8,0.1-4.2c0.2-1.9-0.1-3.8,0.5-5.7c0.3,1.4,0.6,2.8,0.9,4.3
		c0.1,0,0.1,0,0.2,0c0.4-2.8,0.8-5.6,1.1-8.4c0.1,0,0.1,0,0.2,0c0.3,1.6,0.7,3.2,1,4.8c0.8-3.2,1.7-6.4,1.9-9.6
		c0.2-3.1,0.3-6.4-0.3-9.5c-0.1,0-0.2,0-0.3,0c-0.1,1.4-0.3,2.9-0.4,4.3c-0.1,0-0.1,0-0.2,0c-0.4-1.5-0.7-3-1.1-4.6
		C199,34,198.7,33.1,198.9,32.2z"></path>
	<path d="M4.8,87.3c1-6.6,1.6-13.2,2.7-19.7c0-0.1,0-0.1,0-0.2c0.1-0.2,0.1-0.4,0.2-0.6C8.3,67.7,8,68.9,8.6,70
		c0.4-3.4,0.9-6.6,1.3-9.8c0.1,0,0.2,0,0.2,0c0.3,1.5,0.6,3.1,0.9,4.6c0.1,0,0.2,0,0.2,0c0.4-2.8,0.7-5.5,1.1-8.3c0.1,0,0.1,0,0.2,0
		c0.3,1.5,0.6,3,0.9,4.5c0.1,0,0.1,0,0.2,0c0.4-2.8,0.7-5.6,1.1-8.4c0.1,0,0.1,0,0.2,0c0.3,1.5,0.6,3,0.9,4.5c0.1,0,0.2,0,0.2,0
		c0.4-2.8,0.8-5.6,1.1-8.4c0.1,0,0.1,0,0.2,0c0.3,1.6,0.6,3.1,0.9,4.7c0.1,0,0.1,0,0.2,0c0.4-2.8,0.8-5.6,1.1-8.4c0.1,0,0.2,0,0.2,0
		c0.3,1.6,0.6,3.1,0.9,4.7c0.1,0,0.1,0,0.2,0c0.4-2.8,0.8-5.7,1.1-8.5c0.1,0,0.1,0,0.2,0c0.3,1.6,0.6,3.2,0.9,4.8
		c0.5-1.4,0.8-2.8,1-4.2c0.4-2.4,1.2-4.6,1-7.1c1.1-0.9,1.8-2.3,3.3-2.7c0,0.1,0,0.1,0.1,0.2c-0.5,1.1,0.2,2.1,0.4,3.2
		c0.4,2.1,1.2,4,1.3,6.2c-0.7,1.4-0.6,2.9-1.1,4.6c-0.5-2.9-1-5.5-1.5-8.2c-0.1,0-0.1,0-0.2,0c-0.3,1.4-0.5,2.8-0.8,4.1
		c-0.3-0.7-0.4-1.5-0.5-2.2s-0.2-1.4-0.3-2.1c-1.2,6.5,0.1,12.8,1.9,19.2c0.3-1.8,0.6-3.4,0.9-5c0.1,0,0.1,0,0.2,0
		c0.5,2.8,1,5.6,1.4,8.4c0.1,0,0.1,0,0.2,0c0.3-1.6,0.5-3.2,0.8-4.7c0.5,2,0.9,3.9,1.1,5.9c0.2,0.5-0.2,1.2,0.4,1.7
		c-0.1,1.7-0.1,3.4-0.1,5.1c0,3.7-0.2,7.4,1.5,10.9c1.6,3.3,2.7,6.9,4,10.3c0.2,0.5,0.2,1.1,0.4,1.6c-0.5,1.2-0.3,2.6-0.9,4
		c-0.5-2.9-1-5.5-1.5-8.1c-0.1,0-0.1,0-0.2,0c-0.3,1.4-0.5,2.7-0.8,4.1c-0.7-2.3-0.8-4.6-1.7-7.1c-0.7,1.1-0.3,2.2-1.2,2.9
		c-0.4-2.4-0.9-4.8-1.3-7.4c-0.6,1.5-0.6,3-1.2,4.3c-0.5-2.6-0.9-5.2-1.4-7.9c-0.1,0-0.1,0-0.2,0c-0.3,1.4-0.5,2.8-0.8,4.2
		c-0.1,0-0.1,0-0.2,0c-0.2-1.4-0.4-2.9-0.6-4.6c-1.3,3.5,0.2,16.9,2,19.2c0.3-1.6,0.5-3.2,0.8-4.8c0.1,0,0.1,0,0.2,0
		c0.5,2.8,1,5.6,1.4,8.4c0.1,0,0.1,0,0.2,0c0.3-1.5,0.5-3.1,0.8-4.6c0.1,0,0.1,0,0.2,0c0.5,2.7,0.9,5.5,1.4,8.2c0.1,0,0.1,0,0.2,0
		c0.2-1.5,0.5-3,0.7-4.4c0.1,0,0.2,0,0.3,0c0.5,2.7,0.9,5.4,1.4,8.2c0.1,0,0.1,0,0.2,0c0.3-1.6,0.5-3.2,0.8-4.7c0.1,0,0.1,0,0.2,0
		c0.5,2.8,0.9,5.6,1.4,8.4c0.1,0,0.1,0,0.2,0c0.3-1.6,0.5-3.2,0.8-4.7c0.1,0,0.1,0,0.2,0c0.5,2.8,0.9,5.7,1.5,8.8
		c0.4-1.2,0.2-2.2,0.8-3c0.7,2.4,0.5,4.9,0.9,7.4c-0.1,0.8,0.3,1.5,0,2.3c-2.7,1.3-5.6,1.6-8.6,1.8c-1,0.1-2.2,0.6-3.1-0.5
		c-0.2-0.2-0.4,0.8-1.1,0.6c-0.4-2.6-0.9-5.2-1.3-7.8c-0.6,1.1-0.5,2.4-1.3,3.5c-0.2-1.2-0.3-2.4-0.5-3.7c-0.9,2.6-0.3,5.3-0.5,8
		c-0.6,0-1.3,0-1.9,0c0.1-0.4,0.1-0.7,0.2-1.1c1.1-5,1.9-10,1.5-15.2c-0.1-0.9-0.1-1.7-0.6-2.7c-0.2,1.7-0.3,3.1-0.5,4.6
		c-0.1,0-0.1,0-0.2,0c-0.3-1.4-0.6-2.7-0.9-4.1c-0.1,0-0.1,0-0.2,0c-0.4,2.6-0.8,5.3-1.2,7.9c-0.6-1.1-0.5-2.4-1.4-3.4
		c-0.4,2.4-0.7,4.8-1.1,7.2c-0.1,0-0.1,0-0.2,0c-0.3-1.4-0.6-2.8-1-4.1c-0.5,2.1-0.8,4.2-1.1,6.2c0,0.3,0.1,0.7-0.4,0.7
		c-0.4,0-0.3-0.4-0.4-0.7c-0.2-0.9-0.4-1.7-0.6-2.6c-0.1,0-0.1,0-0.2,0c-0.3,2.2-0.7,4.4-1,6.6c-1.1-0.6-2.4-0.2-3.5-0.4
		c-3.1-0.5-6.1-1.2-9.1-2c-1.1-0.3-1.8-1.3-3-1.4c0-1.1,0-2.2,0-3.4c0.6-0.7,0.6-1.7,0.8-2.5c0.7-4.6,1.7-9.2,2.2-13.9
		C3,98.4,3.1,99,3.4,99.7c0.3-1.8,0.6-3.4,0.8-5c0.1,0,0.1,0,0.2,0c0.5,2.8,0.9,5.6,1.4,8.4c0.1,0,0.1,0,0.2,0
		c0.3-1.6,0.5-3.1,0.8-4.7c0.1,0,0.1,0,0.2,0c0.5,2.8,1,5.7,1.4,8.5c0.2,0,0.3,0,0.5,0c0.4-2.8,0.8-5.6,1.2-8.5c0.1,0,0.2,0,0.2,0
		c0.3,1.5,0.6,3,0.9,4.5c0.1,0,0.2,0,0.2,0c0.4-2.8,0.7-5.6,1.1-8.4c0.1,0,0.1,0,0.2,0c0.3,1.6,0.6,3.1,0.9,4.7c0.1,0,0.1,0,0.2,0
		c0.3-2.6,0.7-5.2,1.1-7.9c1,1.3,0.6,2.9,1.4,4.4c0.4-3,0.8-5.8,1.2-8.6c0.1,0,0.1,0,0.2,0c0.3,1.5,0.6,3.1,0.9,4.6
		c0.1,0,0.1,0,0.2,0c0.4-2.8,0.8-5.6,1.2-8.5c0.1,0,0.1,0,0.2,0c0.3,1.6,0.6,3.1,0.9,4.7c0.1,0,0.2,0,0.2,0c0.4-2.8,0.7-5.6,1.1-8.3
		c0.1,0,0.1,0,0.2,0c0.3,1.6,0.7,3.2,1,4.8c0.6-2.2,1-4.3,1.4-6.5c0.2-1.1,0.6-2.1,0.6-3.2c0-2.6-0.1-5.1-0.1-7.7
		c0-0.7-0.1-1.3-0.6-1.8c-0.1,1.5-0.3,2.9-0.4,4.3c-0.1,0-0.1,0-0.2,0c-0.3-1.4-0.6-2.7-0.9-4.1c-0.1,0-0.1,0-0.2,0
		c-0.4,2.6-0.8,5.2-1.1,7.8c-0.1,0-0.2,0-0.2,0c-0.3-1.3-0.6-2.7-0.9-4c-0.1,0-0.1,0-0.2,0c-0.4,2.6-0.8,5.2-1.1,7.9
		c-0.1,0-0.1,0-0.2,0c-0.3-1.3-0.6-2.6-0.9-3.9c-0.1,0-0.2,0-0.2,0c-0.4,2.6-0.7,5.1-1.1,7.7c-0.1,0-0.1,0-0.2,0
		c-0.3-1.4-0.6-2.8-0.9-4.2c-0.1,0-0.1,0-0.2,0c-0.4,2.6-0.8,5.2-1.1,7.7c-0.1,0-0.2,0-0.2,0c-0.3-1.4-0.6-2.7-0.9-4.1
		c-0.1,0-0.1,0-0.2,0c-0.4,2.6-0.8,5.2-1.2,7.8c-0.1,0-0.1,0-0.2,0c-0.3-1.3-0.6-2.6-0.9-3.9c-0.1,0-0.2,0-0.2,0
		c-0.4,2.6-0.8,5.1-1.1,7.7c-0.1,0-0.1,0-0.2,0c-0.4-3.1-0.7-6.2-1.1-9.3c-0.7,2.7-0.4,5.6-1.4,8.2c-0.4-2.2-0.8-4.4-1.2-6.7
		c-0.1,0-0.1,0-0.2,0c-0.3,1.4-0.5,2.8-0.8,4.2c-0.1,0-0.1,0-0.2,0C5,88.2,4.9,87.7,4.8,87.3z"></path>
</g>
<path d="M226.4,117.1c0.3-1.8,0.5-3.6,0.8-5.5c0.1,0,0.1,0,0.2,0c0.3,1.3,0.6,2.6,0.9,4c0.6-0.3,0.1-1,0.6-1.2
	c0,0.6,0,1.1,0,1.7C228.1,116.4,227.3,117,226.4,117.1z"></path>
<g onclick="select(this)" class="" id="estampa-secundaria" fill="#70a83b">
	<path d="M38.7,91.4c-0.1-0.5-0.2-1.1-0.4-1.6c-1.3-3.5-2.4-7-4-10.3c-1.7-3.5-1.5-7.2-1.5-10.9c0-1.7,0.1-3.4,0.1-5.1
		c0.4-0.1,0.4-0.5,0.4-0.8c0.2-1.2,0.4-2.3,0.6-3.5c0.1,0,0.1,0,0.2,0c0.4,2.8,0.8,5.6,1.3,8.4c0.1,0,0.1,0,0.2,0
		c0.3-1.5,0.6-3,0.9-4.5c0.1,0,0.1,0,0.2,0c0.4,2.7,0.8,5.4,1.3,8.1c0.1,0,0.2,0,0.2,0c0.3-1.5,0.6-3,0.8-4.6c0.1,0,0.1,0,0.2,0
		c0.4,2.8,0.9,5.6,1.3,8.5c0.1,0,0.1,0,0.2,0c0.3-1.6,0.6-3.1,0.9-4.7c0.1,0,0.1,0,0.2,0c0.5,3.1,1,6.3,1.4,9.4c0.1,0,0.2,0,0.2,0
		c0.5-3.1,0.9-6.2,1.4-9.3c0.1,0,0.1,0,0.2,0c0.3,1.5,0.6,3,0.9,4.5c0.1,0,0.1,0,0.2,0c0.4-2.7,0.8-5.5,1.3-8.2c0.1,0,0.1,0,0.2,0
		c0.3,1.5,0.6,3,0.8,4.4c0.1,0,0.1,0,0.2,0c0.4-2.7,0.9-5.5,1.3-8.2c0.1,0,0.1,0,0.2,0c0.3,1.5,0.6,3.1,0.9,4.6c0.1,0,0.1,0,0.2,0
		c0.4-2.8,0.8-5.6,1.3-8.3c0.5,1.6,0.7,3.2,1.2,4.9c0.5-3.1,0.9-5.9,1.4-9.1c0.4,1.9,0.7,3.5,1,5.1c0.1,0,0.1,0,0.2,0
		c0.4-2.7,0.8-5.5,1.2-8.2c0.1,0,0.2,0,0.2,0c0.3,1.5,0.6,3.1,0.9,4.8c1.8-6.4,2.8-12.6,1.6-19c-0.2,1.4-0.4,2.9-0.6,4.3h-0.1
		c-0.3-1.4-0.6-2.8-0.9-4.2c-0.1,0-0.1,0-0.2,0c-0.4,2.6-0.8,5.3-1.3,7.9c-0.1,0-0.1,0-0.2,0c-0.3-1.4-0.6-2.8-1-4.6
		c-0.5,3-0.9,5.7-1.4,8.4c-0.1,0-0.1,0-0.2,0c-0.3-1.4-0.6-2.8-0.9-4.2c-0.1,0-0.1,0-0.2,0c-0.4,2.6-0.8,5.3-1.3,7.9
		c-0.1,0-0.1,0-0.2,0c-0.3-1.4-0.6-2.8-0.9-4.2c-0.1,0-0.1,0-0.2,0c-0.4,2.6-0.9,5.3-1.3,7.9c-0.1,0-0.1,0-0.2,0
		c-0.3-1.4-0.6-2.7-0.9-4.1c-0.1,0-0.1,0-0.2,0c-0.4,2.6-0.8,5.2-1.3,7.7c-0.1,0-0.1,0-0.2,0c-0.3-1.3-0.6-2.7-0.9-4
		c-0.1,0-0.1,0-0.2,0c-0.4,2.5-0.9,5.1-1.3,7.6c-0.1,0-0.1,0-0.2,0c-0.3-3-0.6-6.1-1-9.1c-0.1,0-0.1,0-0.2,0c-0.3,3.1-0.6,6.2-1,9.3
		h-0.1c-0.4-2.6-0.9-5.2-1.3-7.8c-0.1,0-0.1,0-0.2,0c-0.3,1.3-0.6,2.7-0.8,4c-0.1,0-0.1,0-0.2,0c-0.4-2.6-0.8-5.1-1.3-7.7
		c-0.1,0-0.2,0-0.2,0c-0.3,1.4-0.6,2.7-0.8,4.1c-0.1,0-0.1,0-0.2,0c-0.4-2.6-0.9-5.2-1.3-7.8c-0.1,0-0.1,0-0.2,0
		c-0.3,1.3-0.6,2.7-0.8,4c-0.1,0-0.1,0-0.2,0c-0.4-2.6-0.8-5.1-1.3-7.7c-0.1,0-0.2,0-0.2,0c-0.3,1.3-0.6,2.6-0.8,3.9
		c-0.5-0.2,0-0.8-0.5-0.9c-0.4-2.2-0.5-4.5-1.2-6.7c-0.1-2.1-0.9-4.1-1.3-6.2c-0.2-1-0.9-2-0.4-3.2c0.8-0.3,1.1,0,1.2,0.8
		c0.1,1.4,0.4,2.7,0.6,4.1c0.1,0,0.1,0,0.2,0c0.3-1.6,0.6-3.2,0.9-4.8c0.1,0,0.1,0,0.2,0c0.4,2.6,0.8,5.2,1.2,7.8
		c0.8-1.3,0.7-2.7,1.3-4.3c0.2,1.2,0.3,2.2,0.5,3.2c0.1,0.8,0.9,1,1.5,0.5c0.5-0.5,0.9-1.1,1-1.9c0-0.5,0.2-1,0.2-1.5
		c0.3,0.4,0.3,0.8,0.5,1.2c0.2,0.3-0.3,1,0.6,1c0.9,0,0.6-0.6,0.7-1c0.3-1.6,0.5-3.2,0.7-4.8c0.1,0,0.2,0,0.2,0
		c0.3,1.6,0.6,3.1,0.9,4.7h0.1c0.4-2.9,0.9-5.7,1.3-8.6h0.1c0.3,1.6,0.6,3.2,0.9,4.8c0.7-2.6,0.8-5.3,1.5-7.8c0.1,0,0.2,0,0.3,0
		c0.3,1.4,0.5,2.7,0.8,4.1c0.4-1.5,0.6-2.9,0.8-4.4c0.1-0.6,0.6-0.9,1.1-0.9c0.6,0,0.4,0.6,0.5,0.9c0.1,0.2-0.1,0.6,0.3,0.8
		c0-0.2,0.1-0.4,0.1-0.6c-0.1-1.3,0.6-1.9,1.7-2.4c2.2-0.9,4.2-2,6.4-3.1c0.3-0.2,0.8-0.2,0.9-0.7c1.3-1,2.9-1.4,4.3-2.2
		c0.8,1.7,0.5,3.6,1.2,5.5c0.3-1.8,0.6-3.3,0.9-4.8c0.1,0,0.1,0,0.2,0c0.4,2.8,0.8,5.6,1.3,8.4c0.1,0,0.1,0,0.2,0
		c0.3-1.5,0.6-3.1,0.9-4.6c0.5,2.1,0.8,4.1,1.1,6.2c0,0.3-0.1,0.8,0.3,0.8c0.5,0.1,0.6-0.5,0.6-0.8c0.2-0.8,0.3-1.5,0.4-2.4
		c0.7,0.8-0.1,2.1,0.9,2.3c0.7,0.1,1.6-0.7,2.3-1.1c0.1,0,0.1-0.1,0.2-0.1c0.8-0.5,1.8-0.7,2-1.8c0-0.2,0.6-0.6,0.7-0.3
		c0.3,0.8,0.5,0.1,0.8,0c0.3-0.2,0.7-0.4,1-0.6c0.4,2.3,0.7,4.7,1.1,7c0.5-2.8,1.2-5.6,1.4-8.4c0.4-0.8,0.9-0.6,1.4-0.2
		c0.4,0.2,0.8-0.1,1.2,0.3c3.1,3.3,6.9,5.8,10.7,8.3c-0.2,1.3-0.5,2.7-0.7,4c-0.1,0-0.1,0-0.2,0c-0.3-1.4-0.6-2.8-0.9-4.2
		c-0.1,0-0.1,0-0.2,0c-0.4,2.6-0.9,5.2-1.3,7.8c-0.1,0-0.1,0-0.2,0c-0.3-1.3-0.6-2.7-0.9-4c-0.1,0-0.1,0-0.2,0
		c-0.4,2.6-0.9,5.2-1.3,7.8c-0.1,0-0.1,0-0.2,0c-0.3-1.3-0.6-2.7-0.9-4c-0.1,0-0.1,0-0.2,0c-0.4,2.5-0.8,5.1-1.3,7.6
		c-0.1,0-0.1,0-0.2,0c-0.3-1.3-0.6-2.6-0.9-3.9c-0.1,0-0.1,0-0.2,0c-0.4,2.6-0.8,5.2-1.3,7.7c-0.1,0-0.1,0-0.2,0
		c-0.3-1.3-0.6-2.7-0.9-4c-0.1,0-0.1,0-0.2,0c-0.4,2.5-0.8,5.1-1.3,7.6c-0.1,0-0.1,0-0.2,0c-0.3-3-0.6-6-1-9.1c-0.1,0-0.2,0-0.2,0
		c-0.3,3-0.6,6-0.9,9.1c-0.1,0-0.1,0-0.2,0c-0.4-2.6-0.8-5.1-1.3-7.7C74.6,47,74.6,48.5,74,50c-0.5-2.8-0.9-5.3-1.3-7.8
		c-0.7,1.3-0.6,2.7-1.2,4.1c-0.5-2.8-0.9-5.4-1.3-7.9c-0.1,0-0.1,0-0.2,0c-0.3,1.3-0.6,2.7-0.8,4c-0.1,0-0.1,0-0.2,0
		c-0.4-2.6-0.8-5.1-1.3-7.7c-0.7,1.3-0.6,2.7-1.2,4.2c-0.5-2.9-0.9-5.5-1.3-8.1c-0.1,0-0.1,0-0.2,0c-0.3,1.4-0.6,2.8-0.9,4.3
		c-0.4-0.8-0.3-1.4-0.4-1.9c-0.3-1.8-0.3-1.7-2-1c-1.1,0.5-1.4,1-1.4,2.2c0,3.9,1.5,7.6,2.2,11.4c0.3-1.6,0.6-3.2,0.9-4.9
		c0.1,0,0.1,0,0.2,0c0.4,2.9,0.9,5.7,1.3,8.6c0.1,0,0.1,0,0.2,0c0.3-1.6,0.6-3.2,0.9-4.8c0.1,0,0.1,0,0.2,0c0.4,2.8,0.9,5.6,1.3,8.3
		c0.1,0,0.1,0,0.2,0c0.3-1.5,0.6-3,0.9-4.6c0.1,0,0.1,0,0.2,0c0.4,2.8,0.8,5.5,1.3,8.3c0.1,0,0.1,0,0.2,0c0.3-1.5,0.6-3.1,0.9-4.6
		c0.1,0,0.1,0,0.2,0c0.4,2.8,0.8,5.5,1.3,8.3c0.1,0,0.2,0,0.2,0c0.3-1.5,0.6-3,0.9-4.6c0.1,0,0.1,0,0.2,0c0.4,2.8,0.9,5.6,1.3,8.5
		h0.1c0.3-1.6,0.6-3.1,0.9-4.7c0.1,0,0.1,0,0.2,0c0.5,3.1,0.9,6.2,1.4,9.4c0.1,0,0.1,0,0.2,0c0.5-3.1,1-6.3,1.4-9.4
		c0.1,0,0.1,0,0.2,0c0.3,1.5,0.6,3.1,0.9,4.6c0.1,0,0.1,0,0.2,0c0.4-2.8,0.8-5.6,1.3-8.3c0.1,0,0.1,0,0.2,0c0.3,1.5,0.6,3,0.8,4.5
		c0.1,0,0.1,0,0.2,0c0.4-2.7,0.8-5.5,1.3-8.2c0.1,0,0.1,0,0.2,0c0.3,1.5,0.6,3,0.9,4.5c0.1,0,0.2,0,0.2,0c0.4-2.7,0.8-5.5,1.2-8.2
		c0.1,0,0.1,0,0.2,0c0.3,1.6,0.6,3.1,0.9,4.7c0.1,0,0.1,0,0.2,0c0.4-2.8,0.9-5.6,1.3-8.4c0.1,0,0.1,0,0.2,0c0.3,1.6,0.6,3.2,0.9,4.7
		c0.1,0,0.1,0,0.2,0c0.4-2.8,0.9-5.6,1.3-8.4c0.1,0,0.1,0,0.2,0c0.3,1.6,0.6,3.2,0.9,4.9c0.5-0.6,0.4-1.2,0.5-1.7
		c0.7-3.9,2.1-7.6,1.7-11.7c5.1,2.4,10.5,3.5,16,4.3c1,0.1,1.8,0.3,2.8,0.1c1.8-0.3,3.7-0.5,5.6-0.8c3.8-0.5,7.3-1.9,10.8-3.4
		c-0.4,4.5,1.4,8.7,2.2,13c0.3-1.6,0.6-3.3,0.9-4.9h0.1c0.4,2.9,0.9,5.7,1.3,8.6c0.1,0,0.1,0,0.2,0c0.3-1.6,0.6-3.2,0.9-4.8
		c0.1,0,0.1,0,0.2,0c0.4,2.8,0.8,5.6,1.3,8.3c0.1,0,0.2,0,0.2,0c0.3-1.5,0.6-3,0.9-4.5c0.1,0,0.1,0,0.2,0c0.4,2.8,0.9,5.5,1.3,8.3
		c0.1,0,0.1,0,0.2,0c0.3-1.5,0.6-3,0.9-4.5c0.1,0,0.1,0,0.2,0c0.4,2.7,0.8,5.4,1.3,8.2c0.1,0,0.1,0,0.2,0c0.3-1.5,0.6-3,0.8-4.5
		c0.1,0,0.1,0,0.2,0c0.4,2.8,0.9,5.5,1.3,8.3c0.1,0,0.1,0,0.2,0c0.3-1.5,0.6-3.1,0.9-4.6c0.1,0,0.1,0,0.2,0c0.5,3.2,0.9,6.3,1.4,9.5
		c0.1,0,0.2,0,0.2,0c0.5-3.1,0.9-6.3,1.4-9.4c0.1,0,0.1,0,0.2,0c0.3,1.5,0.6,3,0.9,4.6c0.1,0,0.1,0,0.2,0c0.4-2.8,0.9-5.5,1.3-8.3
		c0.1,0,0.1,0,0.2,0c0.3,1.5,0.6,3,0.9,4.6c0.1,0,0.1,0,0.2,0c0.4-2.7,0.8-5.5,1.2-8.2c0.1,0,0.1,0,0.2,0c0.3,1.5,0.6,3,0.9,4.5
		c0.1,0,0.1,0,0.2,0c0.4-2.7,0.9-5.5,1.3-8.2c0.1,0,0.1,0,0.2,0c0.3,1.6,0.6,3.1,0.9,4.7c0.1,0,0.1,0,0.2,0c0.4-2.8,0.9-5.6,1.3-8.4
		c0.1,0,0.1,0,0.2,0c0.3,1.5,0.6,3.1,0.9,4.6c0.1,0,0.1,0,0.2,0c0.4-2.8,0.9-5.6,1.3-8.5h0.1c0.3,1.6,0.6,3.3,0.9,4.9
		c0.8-2.8,1.4-5.7,2-8.4c0.3-1.3,0.1-2.6,0.2-3.9c0-0.3-0.1-0.5-0.4-0.7c-0.7-0.3-1.4-0.7-2-1c-0.5-0.2-0.6-0.1-0.7,0.4
		c-0.1,0.9-0.3,1.9-0.5,2.8c-0.1,0-0.1,0-0.2,0c-0.3-1.4-0.6-2.7-0.9-4.1c-0.1,0-0.1,0-0.2,0c-0.4,2.6-0.9,5.2-1.3,7.9
		c-0.1,0-0.1,0-0.2,0c-0.3-1.4-0.6-2.8-0.9-4.2h-0.1c-0.4,2.7-0.9,5.3-1.3,8c-0.1,0-0.1,0-0.2,0c-0.3-1.4-0.6-2.7-0.9-4.1
		c-0.1,0-0.1,0-0.2,0c-0.4,2.6-0.8,5.2-1.3,7.7c-0.1,0-0.1,0-0.2,0c-0.3-1.3-0.6-2.7-0.9-4c-0.1,0-0.1,0-0.2,0
		c-0.4,2.6-0.9,5.2-1.3,7.8c-0.1,0-0.1,0-0.2,0c-0.3-1.4-0.6-2.7-0.9-4.1c-0.1,0-0.1,0-0.2,0c-0.4,2.6-0.8,5.1-1.3,7.7
		c-0.1,0-0.1,0-0.2,0c-0.3-3-0.6-6.1-0.9-9.1c-0.1,0-0.2,0-0.3,0c-0.3,3-0.6,6-0.9,9.1c-0.1,0-0.1,0-0.2,0c-0.4-2.5-0.8-5.1-1.3-7.6
		c-0.6,1.3-0.6,2.8-1.2,4.3c-0.5-2.8-0.9-5.4-1.3-8.1c-0.1,0-0.1,0-0.2,0c-0.3,1.4-0.6,2.7-0.9,4.1c-0.1,0-0.1,0-0.2,0
		c-0.4-2.6-0.9-5.2-1.3-7.8c-0.6,1.3-0.6,2.8-1.2,4.3c-0.5-2.9-0.9-5.6-1.3-8.2c-0.1,0-0.1,0-0.2,0c-0.3,1.4-0.6,2.8-0.9,4.4
		c-0.1-0.4-0.2-0.6-0.3-0.7c-0.4-2.2-0.7-4.4-1-6.6c-0.1-0.4,0-0.8-0.5-0.9c-0.1-0.2,0-0.3,0.2-0.4c3.3-2.1,6.3-4.5,9.2-7.2
		c0.5-0.4,1.3-0.4,1.4-1.2c0.3,0.3,1,0.2,0.9,0.9c0.4,2.8,0.8,5.5,1.2,8.3c0.1,0,0.2,0,0.2,0c0.4-2.3,0.7-4.7,1.1-7
		c2.1,1.3,4.2,2.5,6.4,3.8c0.2-1,0.3-1.8,0.4-2.6c0.4,0.8,0.5,1.6,0.6,2.3c0.1,0.4-0.1,1,0.6,1c0.5,0,0.3-0.6,0.4-0.9
		c0.3-2.1,0.7-4.2,1-6.2c0.1,0,0.1,0,0.2,0c0.3,1.5,0.6,3.1,0.9,4.6c0.1,0,0.1,0,0.2,0c0.4-2.8,0.9-5.6,1.3-8.4c0.1,0,0.1,0,0.2,0
		c0.3,1.6,0.6,3.1,0.9,4.7c0.1,0,0.1,0,0.2,0c0.3-1.8,0.5-3.5,0.8-5.3c1.2,0.5,2.3,1.1,3.3,1.9c0,0.4,0.4,0.4,0.7,0.5
		c2.4,1.3,4.8,2.5,7.4,3.5c1.4,0.5,2.2,1.2,2.1,2.8c0,0.1,0.1,0.1,0.2,0.1c0.3-0.1,0.2-0.4,0.2-0.6c0.1-0.3-0.1-0.9,0.4-0.8
		c0.4,0,1,0.2,1.1,0.8c0.1,0.4,0.1,0.8,0.2,1.2c0.2,1.1,0.3,2.2,0.6,3.6c0.5-1.6,0.5-3,1-4.3c0.1,0,0.2,0,0.3,0
		c0.4,2.6,0.8,5.1,1.2,7.7c0.1,0,0.1,0,0.2,0c0.3-1.5,0.6-3.1,0.9-4.6c0.1,0,0.1,0,0.2,0c0.4,2.8,0.9,5.6,1.3,8.4c0.1,0,0.1,0,0.2,0
		c0.3-1.6,0.6-3.2,0.9-4.8c0.4,0.2,0.3,0.6,0.3,0.9c0.3,1.7,0.5,3.3,0.7,5c0.1,0.5,0.2,0.8,0.7,0.8s0.3-0.5,0.4-0.8
		c0.2-0.7,0.1-1.4,0.5-2.1c0.4,1.1,0.2,2.3,0.7,3.3c0.2,0.5,0.6,1,1.1,0.9s1-0.5,1-1.2c0-1,0.3-1.9,0.4-2.9c0.1,0,0.1,0,0.2,0
		c0.3,1.4,0.5,2.9,0.8,4.3c0.1,0,0.2,0,0.2,0c0.4-2.7,0.8-5.4,1.3-8.1c0.1,0,0.1,0,0.2,0c0.3,1.6,0.6,3.2,0.9,4.8
		c0.4-1.4,0.6-2.7,0.8-4c0.1-0.3,0-0.8,0.4-0.9c0.4-0.1,0.9,0.1,1.1,0.4c0.3,0.5,0.8,0.8,0.6,1.7c-0.2,1.2-0.6,2.6-0.2,3.9
		c-0.4,1.7-1.2,3.3-1.2,5.1c-1.1-0.3-2.1-0.5-3.6-0.9c1.5,2.5,3.3,4.6,1.7,7.4c-0.3-1.4-0.6-2.8-0.8-4.2c-0.1,0-0.1,0-0.2,0
		c-0.4,2.6-0.9,5.3-1.3,7.9c-0.1,0-0.1,0-0.2,0c-0.3-1.4-0.6-2.7-0.9-4.1c-0.1,0-0.1,0-0.2,0c-0.4,2.6-0.9,5.2-1.3,7.7
		c-0.1,0-0.1,0-0.2,0c-0.3-1.3-0.6-2.6-0.8-3.9c-0.1,0-0.1,0-0.2,0c-0.4,2.6-0.8,5.2-1.3,7.7c-0.1,0-0.1,0-0.2,0
		c-0.3-1.4-0.6-2.7-0.9-4.1c-0.1,0-0.1,0-0.2,0c-0.4,2.6-0.8,5.1-1.2,7.7c-0.1,0-0.1,0-0.2,0c-0.3-3.1-0.6-6.1-0.9-9.2
		c-0.1,0-0.1,0-0.2,0c-0.3,3-0.6,6.1-1,9.1c-0.1,0-0.1,0-0.2,0c-0.4-2.5-0.9-5.1-1.3-7.6c-0.1,0-0.1,0-0.2,0
		c-0.3,1.4-0.6,2.7-0.9,4.1c-0.1,0-0.1,0-0.2-0.1c-0.4-2.6-0.8-5.1-1.2-7.7c-0.1,0-0.2,0-0.2,0c-0.3,1.4-0.6,2.7-0.9,4.1
		c-0.1,0-0.1,0-0.2,0c-0.4-2.6-0.9-5.2-1.3-8.1c-0.6,1.6-0.5,3-1.2,4.5c-0.5-2.9-0.9-5.4-1.3-8c-0.1,0-0.1,0-0.2,0
		c-0.3,1.4-0.6,2.8-0.9,4.2c-0.1,0-0.1,0-0.2,0c-0.4-2.6-0.9-5.3-1.3-7.9c-0.1,0-0.1,0-0.2,0c-0.3,1.4-0.6,2.8-0.9,4.2
		c-0.1,0-0.1,0-0.2,0c-0.4-2.6-0.9-5.2-1.3-7.9c-0.1,0-0.1,0-0.2,0c-0.3,1.4-0.6,2.8-0.9,4.2h-0.1c-0.2-1.5-0.4-2.9-0.6-4.4
		c-1.4,6.5-0.1,12.7,1.6,19.2c0.3-1.9,0.6-3.5,0.9-5.1c0.1,0,0.1,0,0.2,0c0.4,2.8,0.9,5.6,1.3,8.4c0.1,0,0.1,0,0.2,0
		c0.3-1.6,0.6-3.2,0.9-4.8c0.1,0,0.1,0,0.2,0c0.4,2.8,0.9,5.6,1.3,8.3c0.1,0,0.1,0,0.2,0c0.3-1.5,0.6-3,0.9-4.6c0.1,0,0.1,0,0.2,0
		c0.4,2.8,0.8,5.6,1.3,8.3c0.1,0,0.1,0,0.2,0c0.3-1.5,0.6-3,0.9-4.5c0.1,0,0.1,0,0.2,0c0.4,2.7,0.8,5.4,1.3,8.1c0.1,0,0.2,0,0.2,0
		c0.3-1.5,0.6-2.9,0.8-4.4c0.1,0,0.1,0,0.2,0c0.4,2.7,0.8,5.5,1.3,8.2c0.1,0,0.1,0,0.2,0c0.3-1.5,0.6-3.1,0.9-4.6c0.1,0,0.1,0,0.2,0
		c0.5,3.1,1,6.3,1.5,9.4c0.1,0,0.2,0,0.2,0c0.5-3.1,0.9-6.2,1.4-9.4c0.1,0,0.1,0,0.2,0c0.3,1.5,0.6,3,0.9,4.5c0.1,0,0.1,0,0.2,0
		c0.4-2.7,0.8-5.5,1.3-8.2c0.1,0,0.1,0,0.2,0c0.3,1.5,0.6,3,0.9,4.6c0.1,0,0.2,0,0.2,0c0.4-2.7,0.8-5.5,1.3-8.2c0.1,0,0.1,0,0.2,0
		c0.3,1.5,0.6,3,0.8,4.6c0.1,0,0.1,0,0.2,0c0.4-2.8,0.9-5.5,1.3-8.3c0.1,0,0.1,0,0.2,0c0.3,1.6,0.6,3.1,0.9,4.7
		c0.6-1.6,0.5-3.2,1.1-4.7c0.4,1.4-0.1,2.8-0.1,4.2c-0.1,4.1,0,8.2-0.4,12.3c-0.3,2.6-0.9,5.2-1.9,7.6c-0.3,0.8-0.6,1.7-0.6,2.6
		c-0.6,0.8-1,1.7-1.3,2.6c-0.3,0.8-0.3,1.8-0.7,2.4c-1,1.6-1.4,3.3-1.9,5.1c-0.3,1.1-0.2,2.2-0.8,3.2c-0.6-1.4-0.6-2.9-1.3-4.3
		c-0.4,2.5-0.8,5-1.2,7.5c-0.1,0-0.1,0-0.2,0c-0.3-3-0.6-6.1-0.9-9.1c-0.1,0-0.2,0-0.2,0c-0.3,3.1-0.6,6.1-0.9,9.2
		c-0.1,0-0.1,0-0.2,0c-0.4-2.6-0.8-5.2-1.3-7.7c-0.1,0-0.1,0-0.2,0c-0.3,1.4-0.6,2.8-0.9,4.2c-0.1,0-0.1,0-0.2,0
		c-0.4-2.6-0.8-5.2-1.3-7.9c-0.1,0-0.1,0-0.2,0c-0.3,1.4-0.6,2.7-0.9,4.1c-0.1,0-0.1,0-0.2,0c-0.4-2.6-0.9-5.1-1.3-7.7
		c-0.1,0-0.2,0-0.2,0c-0.3,1.3-0.6,2.6-0.8,3.9c-0.1,0-0.1,0-0.2,0c-0.4-2.6-0.9-5.2-1.3-7.8c-0.1,0-0.1,0-0.2,0
		c-0.3,1.4-0.6,2.8-0.9,4.1c-0.1,0-0.1,0-0.2,0c-0.4-2.6-0.9-5.2-1.3-7.8c-0.1,0-0.1,0-0.2,0c-0.3,1.4-0.6,2.8-0.9,4.2
		c-0.1,0-0.1,0-0.2,0c-0.4-2.7-0.9-5.3-1.3-8c-0.1,0-0.1,0-0.2,0c-0.3,1.4-0.6,2.8-0.9,4.2c-0.2-0.7-0.3-1.4-0.4-2.1
		c-0.1-0.7-0.2-1.4-0.3-2.1c-1.4,6.5-0.1,12.7,1.6,19.2c0.4-1.9,0.6-3.6,0.9-5.2c0.1,0,0.1,0,0.2,0c0.4,2.8,0.9,5.7,1.3,8.5
		c0.1,0,0.1,0,0.2,0c0.3-1.6,0.6-3.1,0.9-4.7c0.1,0,0.1,0,0.2,0c0.4,2.8,0.9,5.6,1.3,8.4c0.1,0,0.1,0,0.2,0c0.3-1.5,0.6-3.1,0.9-4.6
		c0.1,0,0.1,0,0.2,0c0.4,2.7,0.8,5.5,1.3,8.2c0.1,0,0.1,0,0.2,0c0.3-1.5,0.6-3,0.9-4.5c0.1,0,0.1,0,0.2,0c0.4,2.7,0.8,5.5,1.3,8.2
		c0.1,0,0.1,0,0.2,0c0.3-1.5,0.6-3.1,0.9-4.6c0.1,0,0.1,0,0.2,0c0.4,2.8,0.8,5.5,1.3,8.3c0.1,0,0.2,0,0.2,0c0.3-1.5,0.6-3,0.9-4.6
		c0.1,0,0.1,0,0.2,0c0.5,3.2,1,6.3,1.5,9.5c0.6-2.4,0.9-4.8,1.3-7.2c0.2-1,0-2.1,0.9-2.9c-0.3,2.8-0.7,5.7-1,8.5
		c-0.1,1.2-0.4,2.4-0.2,3.7c-0.5,4.8-1,9.7-1.5,14.5c-0.2,2.1-0.3,4.1-0.5,6.2c-0.3-0.2-0.2-0.5-0.3-0.8c-0.4-2.4-0.8-4.8-1.2-7.2
		c-0.1,0-0.1,0-0.2,0c-0.3,1.4-0.6,2.8-0.8,4.1c-0.1,0-0.1,0-0.2,0c-0.4-2.6-0.8-5.2-1.3-7.7c-0.1,0-0.2,0-0.2,0
		c-0.3,1.3-0.6,2.6-0.9,4c-0.1,0-0.1,0-0.2,0c-0.4-2.6-0.9-5.1-1.3-7.7c-0.1,0-0.1,0-0.2,0c-0.3,1.3-0.6,2.6-0.8,3.9
		c-0.1,0-0.2,0-0.2,0c-0.4-2.6-0.8-5.1-1.3-7.7c-0.1,0-0.1,0-0.2,0c-0.3,1.4-0.6,2.7-0.9,4.1c-0.1,0-0.1,0-0.2,0
		c-0.4-2.6-0.9-5.2-1.3-7.8c-0.1,0-0.1,0-0.2,0c-0.3,1.4-0.6,2.8-0.9,4.2c-0.1,0-0.1,0-0.2,0c-0.4-2.7-0.9-5.3-1.3-8h-0.1
		c-0.3,1.4-0.6,2.9-0.9,4.3c-0.1,0-0.1,0-0.2,0c-0.2-1.4-0.4-2.9-0.5-4.4c-1.4,2.3-0.2,15.7,1.7,19c0.3-1.7,0.6-3.3,0.9-5h0.1
		c0.4,2.8,0.9,5.7,1.3,8.5c0.1,0,0.1,0,0.2,0c0.3-1.6,0.6-3.1,0.9-4.7c0.1,0,0.1,0,0.2,0c0.4,2.8,0.8,5.5,1.3,8.3c0.1,0,0.1,0,0.2,0
		c0.3-1.5,0.6-3,0.8-4.5c0.1,0,0.1,0,0.2,0c0.4,2.8,0.8,5.6,1.3,8.3c0.1,0,0.1,0,0.2,0c0.3-1.6,0.6-3.1,0.9-4.7c0.1,0,0.1,0,0.2,0
		c0.4,2.8,0.9,5.5,1.3,8.3c0.1,0,0.1,0,0.2,0c0.3-1.5,0.6-3,0.9-4.5c0.1,0,0.1,0,0.2,0c0.4,2.7,0.8,5.5,1.2,8.2c0.1,0,0.2,0,0.2,0
		c0.3-1.5,0.6-3,0.9-4.6c0.3,0.3,0.1,0.7,0.4,0.8c-0.2,3.4,1.1,6.8,0.7,10.2c-0.3,2.7-0.6,5.5-0.4,8.2c0.2,4-0.4,8-0.3,11.9
		c-0.7-2.1-0.7-4.4-1.4-6.9c-0.3,1.6-0.6,2.9-0.9,4.3c-0.1,0-0.1,0-0.2,0c-0.4-2.6-0.8-5.2-1.3-7.7c-0.1,0-0.1,0-0.2,0
		c-0.3,1.4-0.6,2.7-0.9,4.1c-0.1,0-0.1,0-0.2,0c-0.4-2.6-0.9-5.2-1.3-7.8c-0.1,0-0.1,0-0.2,0c-0.3,1.4-0.6,2.7-0.9,4.1
		c-0.1,0-0.1,0-0.2,0c-0.4-2.6-0.9-5.2-1.3-7.9c-0.1,0-0.1,0-0.2,0c-0.3,1.4-0.6,2.8-0.9,4.1c-0.1,0-0.1,0-0.2,0
		c-0.4-2.6-0.9-5.3-1.3-7.9c-0.1,0-0.1,0-0.2,0c-0.3,1.4-0.6,2.8-0.9,4.2c-0.1,0-0.1,0-0.2,0c-0.4-2.6-0.9-5.2-1.3-7.9
		c-0.1,0-0.1,0-0.2,0c-0.3,1.4-0.6,2.8-0.9,4.2c-0.1,0-0.1,0-0.2,0c-0.2-1.4-0.4-2.9-0.5-4.3c-1.4,6.5-0.1,12.7,1.6,19.3
		c0.4-1.9,0.6-3.5,0.9-5.2c0.1,0,0.1,0,0.2,0c0.4,2.8,0.9,5.7,1.3,8.5c0.1,0,0.1,0,0.2,0c0.3-1.6,0.6-3.1,0.9-4.7c0.1,0,0.1,0,0.2,0
		c0.4,2.8,0.8,5.5,1.3,8.3c0.1,0,0.1,0,0.2,0c0.3-1.5,0.6-3.1,0.9-4.6c0.1,0,0.1,0,0.2,0c0.4,2.8,0.8,5.6,1.3,8.4
		c0.5-1.5,0.7-3.1,1.2-4.8c0.5,3.1,0.9,5.8,1.3,8.6c0.1,0,0.1,0,0.2,0c0.3-1.5,0.6-3,0.9-4.5c0.1,0,0.1,0,0.2,0
		c0.4,2.7,0.8,5.5,1.2,8.2c0.1,0,0.1,0,0.2,0c0.3-1.5,0.6-3,0.9-4.7c0.2,0.3,0.3,0.5,0.4,0.7c-0.3,5,1.2,9.7,1.8,14.6
		c0.5,3.8,0.7,7.6,0.1,11.4c-0.4-1.2-0.3-2.5-0.7-3.8c-0.3,3.1-0.6,6.1-1,9.2c-0.1,0-0.1,0-0.2,0c-0.4-2.6-0.9-5.2-1.3-7.8
		c-0.1,0-0.1,0-0.2,0c-0.3,1.4-0.6,2.7-0.9,4.1c-0.1,0-0.1,0-0.2-0.1c-0.4-2.6-0.8-5.1-1.2-7.7c-0.6,1.3-0.6,2.8-1.2,4.2
		c-0.5-2.7-0.9-5.3-1.3-7.8c-0.1,0-0.1,0-0.2,0c-0.3,1.3-0.6,2.6-0.8,3.9c-0.1,0-0.1,0-0.2,0c-0.4-2.6-0.9-5.2-1.3-7.8
		c-0.1,0-0.1,0-0.2,0c-0.3,1.4-0.6,2.8-0.9,4.2c-0.1,0-0.1,0-0.2,0c-0.4-2.6-0.9-5.2-1.3-7.9c-0.1,0-0.1,0-0.2,0
		c-0.3,1.4-0.6,2.8-0.8,4.2c-0.1,0-0.1,0-0.2,0c-0.4-2.7-0.9-5.3-1.3-8c-0.1,0-0.1,0-0.2,0c-0.3,1.4-0.6,2.8-0.9,4.2
		c-0.1,0-0.1,0-0.2,0c-0.2-1.4-0.4-2.8-0.6-4.4c-1.4,2.7-0.1,16.5,1.7,19c0.3-1.6,0.6-3.3,0.9-4.9c0.1,0,0.1,0,0.2,0
		c0.4,2.8,0.9,5.7,1.3,8.5c0.1,0,0.1,0,0.2,0c0.3-1.6,0.6-3.1,0.9-4.7c0.1,0,0.1,0,0.2,0c0.4,2.8,0.9,5.6,1.3,8.4c0.1,0,0.1,0,0.2,0
		c0.3-1.5,0.6-3.1,0.9-4.6c0.1,0,0.1,0,0.2,0c0.4,2.7,0.8,5.4,1.2,8.2c0.1,0,0.1,0,0.2,0c0.3-1.5,0.6-3,0.9-4.6c0.1,0,0.1,0,0.2,0
		c0.4,2.8,0.9,5.5,1.3,8.3c0.1,0,0.1,0,0.2,0c0.3-1.5,0.6-3,0.9-4.5c0.1,0,0.1,0,0.2,0c0.4,2.7,0.8,5.5,1.2,8.2c0.1,0,0.2,0,0.2,0
		c0.3-1.5,0.6-3,0.9-4.5c0.1,0,0.1,0,0.2,0c0.5,3.2,1,6.3,1.5,9.5c0.7-2,0.6-4,1.2-5.9c1,3.3,1,6.6,0.6,10
		c-0.5,3.9-0.5,7.7,0.2,11.5c0.2,0.8,0.2,1.6,0.1,2.4c-0.3,1.5-0.5,3.1-0.8,4.6c-0.1,0-0.1,0-0.2,0c-0.3-3-0.6-6.1-0.9-9.1
		c-0.1,0-0.1,0-0.2,0c-0.3,3.1-0.7,6.2-1,9.2h-0.1c-0.4-2.6-0.9-5.2-1.3-7.7c-0.1,0-0.1,0-0.2,0c-0.3,1.3-0.6,2.6-0.8,3.9
		c-0.1,0-0.2,0-0.2,0c-0.4-2.5-0.8-5.1-1.2-7.6c-0.1,0-0.1,0-0.2,0c-0.3,1.3-0.6,2.7-0.9,4c-0.1,0-0.1,0-0.2,0
		c-0.4-2.6-0.9-5.2-1.3-8c-0.6,1.5-0.6,3-1.2,4.5c-0.5-2.9-0.9-5.5-1.3-8.1c-0.1,0-0.1,0-0.2,0c-0.3,1.4-0.6,2.8-0.9,4.1
		c-0.1,0-0.1,0-0.2,0c-0.4-2.6-0.9-5.3-1.3-7.9c-0.1,0-0.1,0-0.2,0c-0.3,1.4-0.6,2.8-0.9,4.2c-0.1,0-0.1,0-0.2,0
		c-0.4-2.6-0.9-5.2-1.3-7.8c-0.1,0-0.1,0-0.2,0c-0.3,1.4-0.6,2.8-0.9,4.2h-0.1c-0.2-1.5-0.4-2.9-0.6-4.4c-1.4,6.5-0.1,12.7,1.6,19.2
		c0.4-2,0.7-3.6,1-5.6c0.5,3.2,0.9,6,1.4,8.9c0.1,0,0.1,0,0.2,0c0.3-1.6,0.6-3.1,0.9-4.7c0.1,0,0.1,0,0.2,0c0.4,2.8,0.9,5.6,1.3,8.4
		c0.1,0,0.1,0,0.2,0c0.3-1.6,0.6-3.1,0.9-4.7c0.1,0,0.1,0,0.2,0c0.4,2.8,0.8,5.6,1.2,8.3c0.5-1.5,0.7-3.1,1.2-4.8
		c0.5,3,0.9,5.7,1.3,8.4c0.1,0,0.2,0,0.2,0c0.3-1.5,0.6-2.9,0.8-4.4c0.1,0,0.1,0,0.2,0c0.4,2.7,0.8,5.5,1.3,8.2c0.1,0,0.1,0,0.2,0
		c0.3-1.5,0.6-3,0.9-4.5c0.1,0,0.1,0,0.2,0c0.5,3.1,1,6.3,1.4,9.4c0.1,0,0.2,0,0.2,0c0.5-3.1,1-6.2,1.4-9.4c0.5,1.3,0.6,2.6,1,3.8
		c0.5,2.1,0.4,4.2,0.6,6.3c0.4,2.9,0.6,5.8,0.6,8.7c0,1.4-0.6,2.2-1.8,2.6c-2,0.7-4.1,1.1-6.2,1.1c-0.8,0-1.6,0.4-2.4,0.3
		c-0.3-2-0.7-4.1-1-6.1c-0.1,0-0.1,0-0.1,0c-0.3,1.4-0.6,2.8-0.9,4.2c-0.1,0-0.1,0-0.2,0c-0.4-2.6-0.8-5.3-1.3-7.9
		c-0.1,0-0.1,0-0.2,0c-0.3,1.4-0.6,2.8-0.9,4.2c-0.1,0-0.1,0-0.2,0c-0.4-2.7-0.9-5.3-1.3-8c-0.5,1.4-0.6,2.9-1.2,4.4
		c-0.5-2.9-0.9-5.5-1.3-8.1c-0.1,0-0.1,0-0.2,0c-0.3,1.4-0.6,2.8-0.9,4.2c-0.1,0-0.1,0-0.2,0c-0.2-1.4-0.4-2.9-0.6-4.5
		c-0.4,0.8-0.6,1.4-0.6,2.1c0,1.5,0,3,0,4.6c0,1.2-0.1,2.4,0.1,3.6c0.6,2.7,1.2,5.4,1.7,8.1c-3.8,0.3-7.6,0.4-11.4,0.3
		c0.4-2.6,0.7-5.1,1.1-7.7c0.1,0,0.1,0,0.2,0c0.3,1.6,0.6,3.2,0.9,4.7c0.1,0,0.1,0,0.2,0c0.4-2.8,0.9-5.7,1.3-8.5c0.1,0,0.1,0,0.2,0
		c0.3,1.6,0.6,3.2,0.9,4.8c0.1,0,0.1,0,0.2,0c0.4-2.8,0.9-5.6,1.3-8.5c0.1,0,0.1,0,0.2,0c0.3,1.6,0.6,3.2,0.9,4.9
		c2-5.4,2.9-17.2,1.6-19c-0.2,1.5-0.3,2.9-0.5,4.3c-0.1,0-0.1,0-0.2,0c-0.3-1.4-0.6-2.8-0.9-4.2c-0.1,0-0.1,0-0.2,0
		c-0.4,2.6-0.9,5.3-1.3,7.9c-0.1,0-0.1,0-0.2,0c-0.3-1.4-0.6-2.8-0.9-4.2c-0.1,0-0.1,0-0.2,0c-0.4,2.6-0.8,5.3-1.3,7.9
		c-0.1,0-0.1,0-0.2,0c-0.3-1.4-0.6-2.8-0.9-4.2c-0.1,0-0.1,0-0.2,0c-0.4,2.6-0.9,5.2-1.3,7.8c-0.1,0-0.1,0-0.2,0
		c-0.3-1.4-0.6-2.7-0.9-4.1c-0.1,0-0.1,0-0.2,0c-0.4,2.6-0.8,5.2-1.3,7.7c-0.1,0-0.1,0-0.2,0c-0.3-1.3-0.6-2.6-0.9-4
		c-0.1,0-0.1,0-0.2,0c-0.4,2.6-0.8,5.1-1.3,7.7c-0.1,0-0.1,0-0.2,0c-0.3-1.3-0.6-2.7-0.9-4c-0.1,0-0.1,0-0.2,0
		c-0.4,2.6-0.8,5.1-1.3,7.7c-0.1,0-0.1,0-0.2,0c-0.3-3.1-0.6-6.1-0.9-9.2c-0.1,0-0.2,0-0.2,0c-0.3,3.1-0.6,6.2-0.9,9.3
		c-0.1,0-0.1,0-0.2,0c-0.4-2.6-0.9-5.2-1.3-7.8c-0.6,1.3-0.6,2.8-1.2,4.2c-0.5-2.8-0.9-5.3-1.3-7.9c-0.1,0-0.1,0-0.2,0
		c-0.3,1.4-0.6,2.7-0.9,4.1c-0.1,0-0.1,0-0.2,0c-0.4-2.6-0.9-5.2-1.3-7.9c-0.6,1.3-0.6,2.8-1.2,4.3c-0.5-2.8-0.9-5.4-1.3-8
		c-0.1,0-0.1,0-0.2,0c-0.3,1.4-0.6,2.8-0.9,4.2c-0.1,0-0.1,0-0.2,0c-0.4-2.7-0.9-5.4-1.3-8c-0.5,1.4-0.6,2.9-1.2,4.4
		c-0.5-2.9-0.9-5.5-1.3-8.1c-0.1,0-0.1,0-0.2,0c-0.3,1.4-0.6,2.8-0.9,4.3c-0.1,0-0.1,0-0.2,0c-0.2-1.5-0.3-3-0.5-4.7
		c-1.3,3,0,16.8,1.7,19.2c0.3-1.6,0.6-3.2,0.9-4.8c0.1,0,0.1,0,0.2,0c0.4,2.8,0.9,5.7,1.3,8.5c0.1,0,0.1,0,0.2,0
		c0.3-1.5,0.6-3,0.9-4.6c0.1,0,0.2,0,0.3,0c0.4,2.7,0.8,5.4,1.2,8c0.1,0,0.2,0,0.2,0c0.3-1.5,0.6-3,0.9-4.6c0.1,0,0.1,0,0.2,0
		c0.4,2.7,0.8,5.3,1.2,8c-0.1,0.1-0.2,0.2-0.3,0.1c-3.8,0-7.5,0.4-11.2,0.2c0.1-0.8,0.2-1.7,0.4-2.5c0.5-2.5,1.2-5,1.5-7.5
		c0.3-2.4,0.1-4.8,0.1-7.2c0-0.7-0.1-1.3-0.6-2c-0.2,1.5-0.4,2.9-0.6,4.2c-0.1,0-0.1,0-0.2,0c-0.3-1.3-0.6-2.6-0.9-3.9
		c-0.1,0-0.1,0-0.2,0c-0.4,2.6-0.9,5.3-1.3,7.9c-0.1,0-0.1,0-0.2,0c-0.3-1.4-0.6-2.8-0.9-4.2c-0.1,0-0.1,0-0.2,0
		c-0.4,2.6-0.9,5.2-1.3,7.9c-0.1,0-0.1,0-0.2,0c-0.3-1.4-0.6-2.8-0.9-4.2h-0.1c-0.4,2.6-0.9,5.2-1.3,8.1c-0.6-1.5-0.6-3-1.2-4.5
		c-0.5,2.9-0.9,5.5-1.4,8.2c-0.3,0.1-0.5-0.1-0.7-0.3c-0.2-0.4-0.6-0.4-0.7-0.1c-0.4,0.7-1.1,0.5-1.7,0.5c-2.2,0-4.5,0-6.7,0
		c-0.2,0-0.4,0.1-0.5,0c-0.7-0.9-1.5-0.7-2.4-0.3c-0.2-2.6-0.8-5-1.2-7.6c-0.5,1.3-0.5,2.7-1.1,4.1c-0.5-2.8-0.9-5.4-1.3-8
		c-0.1,0-0.1,0-0.2,0c-0.3,1.4-0.6,2.8-0.9,4.2c-0.1,0-0.1,0-0.2,0c-0.4-2.7-0.9-5.3-1.3-8c-0.1,0-0.1,0-0.2,0
		c-0.3,1.4-0.6,2.9-0.9,4.3c-0.1,0-0.1,0-0.2,0c-0.4-2.7-0.9-5.3-1.3-8c-0.1,0-0.1,0-0.2,0c-0.3,1.4-0.6,2.8-0.9,4.3
		c-0.1,0-0.1,0-0.2,0c-0.2-1.4-0.3-2.9-0.5-4.3c-0.4,0.5-0.6,0.9-0.6,1.4c0.1,4.1-0.3,8.2,0.9,12.2c0.5,1.6,1,3.2,0.8,4.9
		c-3,0-6,0-9,0c-0.7,0-1.5-0.3-2.2-0.2c0.3-2.6,0.7-5.1,1-7.7c0.1,0,0.2,0,0.2,0c0.3,1.5,0.6,3.1,0.9,4.6c0.1,0,0.1,0,0.2,0
		c0.4-2.8,0.9-5.6,1.3-8.4c0.1,0,0.1,0,0.2,0c0.3,1.6,0.6,3.2,0.9,4.9c0.1,0,0.1,0,0.2,0c0.4-2.8,0.9-5.6,1.3-8.5c0.1,0,0.1,0,0.2,0
		c0.3,1.6,0.6,3.1,0.9,4.8c1.9-4.1,3-16.7,1.6-18.9c-0.2,1.5-0.4,2.9-0.6,4.4h-0.1c-0.3-1.4-0.6-2.8-0.9-4.2c-0.1,0-0.1,0-0.2,0
		c-0.4,2.6-0.9,5.3-1.3,7.9c-0.1,0-0.1,0-0.2,0c-0.3-1.4-0.6-2.8-0.9-4.2c-0.1,0-0.1,0-0.2,0c-0.4,2.7-0.9,5.3-1.3,8
		c-0.1,0-0.1,0-0.2,0c-0.3-1.4-0.6-2.8-0.9-4.1c-0.1,0-0.1,0-0.2,0c-0.4,2.6-0.8,5.2-1.3,7.8c-0.1,0-0.1,0-0.2,0
		c-0.3-1.4-0.6-2.7-0.9-4.1c-0.1,0-0.1,0-0.2,0.1c-0.4,2.6-0.9,5.2-1.3,7.7c-0.1,0-0.1,0-0.2,0c-0.3-1.4-0.6-2.7-0.9-4.1
		c-0.1,0-0.1,0-0.2,0c-0.4,2.6-0.8,5.2-1.3,7.7c-0.1,0-0.1,0-0.2,0c-0.3-1.3-0.6-2.7-0.9-4c-0.1,0-0.1,0-0.2,0
		c-0.4,2.6-0.9,5.1-1.3,7.7h-0.1c-0.3-3.1-0.7-6.1-1-9.2c-0.1,0-0.1,0-0.2,0c-0.3,3-0.6,6-0.9,9c-0.1,0-0.1,0-0.2,0
		c-0.4-2.6-0.8-5.1-1.2-7.7c-0.1,0-0.1,0-0.2,0c-0.3,1.4-0.6,2.7-0.9,4.1c-0.1,0-0.1,0-0.2,0c-0.4-2.6-0.9-5.1-1.3-7.7
		c-0.7,1.2-0.6,2.7-1.2,4.2c-0.5-2.8-0.9-5.4-1.3-8c-0.1,0-0.1,0-0.2,0c-0.3,1.3-0.6,2.7-0.8,4c-0.1,0-0.1,0-0.2,0
		c-0.4-2.6-0.8-5.1-1.3-7.7c-0.7,1.3-0.6,2.7-1.2,4.2c-0.5-2.9-0.9-5.5-1.3-8.1c-0.1,0-0.1,0-0.2,0c-0.3,1.4-0.6,2.8-0.9,4.2
		c-0.1,0-0.1,0-0.2,0c-0.4-2.6-0.9-5.2-1.3-7.9c-0.1,0-0.1,0-0.2,0c-0.3,1.4-0.6,2.8-0.9,4.2c-0.1,0-0.1,0-0.2,0
		c-0.2-1.4-0.4-2.8-0.5-4.3c-1.2,6.5-0.1,12.7,1.6,19c0.3-1.7,0.7-3.4,1-5c0.1,0,0.1,0,0.2,0c0.4,2.8,0.8,5.6,1.3,8.5
		c0.1,0,0.1,0,0.2,0c0.3-1.6,0.6-3.2,0.9-4.8c0.1,0,0.1,0,0.2,0c0.4,2.8,0.9,5.6,1.3,8.3c0.1,0,0.2,0,0.2,0c0.3-1.5,0.6-3,0.9-4.5
		c0.1,0,0.1,0,0.2,0c0.3,2.5,0.7,5,1,7.6c-3.8,0-7.5-0.1-11.3-0.4c0.1-0.6,0.2-1.3,0.4-1.9c0.4-2,1.1-4,1.2-6c0.2-3,0.1-6.1,0.1-9.1
		c0-0.3,0-0.7-0.5-0.9c-0.2,1.4-0.4,2.8-0.5,4.2h-0.1c-0.3-1.4-0.6-2.8-0.9-4.2c-0.1,0-0.1,0-0.2,0c-0.4,2.6-0.9,5.3-1.3,7.9
		c-0.1,0-0.1,0-0.2,0c-0.3-1.3-0.6-2.7-0.9-4c-0.1,0-0.1,0-0.2,0c-0.4,2.6-0.9,5.2-1.3,7.8c-0.1,0-0.1,0-0.2,0
		c-0.3-1.4-0.6-2.8-0.9-4.2c-0.1,0-0.1,0-0.2,0c-0.4,2.6-0.8,5.3-1.3,7.9c-0.1,0-0.1,0-0.2,0c-0.3-1.4-0.6-2.7-0.9-4.1
		c-0.1,0-0.1,0-0.2,0c-0.3,1.8-0.6,3.7-0.8,5.5c-2.7-0.3-5.5-0.6-8.1-1.6c-1.2-0.5-1.7-1.2-1.7-2.5c0-4.1,0.4-8.2,0.7-12.3
		c0.1-1.7,0.3-3.3,0.4-5c0.1-0.4,0.1-0.8,0.2-1.2l0,0c0.5,0.3,0.4,0.9,0.5,1.4c0.4,2.7,0.8,5.4,1.2,8.1c0.1,0,0.1,0,0.2,0
		c0.5-3.1,1-6.3,1.5-9.4c0.1,0,0.1,0,0.2,0c0.3,1.5,0.6,3,0.9,4.5c0.1,0,0.1,0,0.2,0c0.4-2.7,0.8-5.4,1.2-8.2c0.1,0,0.2,0,0.2,0
		c0.3,1.5,0.6,3,0.9,4.6c0.1,0,0.1,0,0.2,0c0.4-2.8,0.9-5.6,1.3-8.4c0.1,0,0.1,0,0.2,0c0.3,1.6,0.6,3.1,0.9,4.7c0.1,0,0.1,0,0.2,0
		c0.4-2.8,0.8-5.6,1.3-8.4c0.1,0,0.1,0,0.2,0c0.3,1.6,0.6,3.1,0.9,4.7c0.1,0,0.1,0,0.2,0c0.4-2.8,0.9-5.6,1.3-8.5c0.1,0,0.1,0,0.2,0
		c0.3,1.6,0.6,3.3,0.9,4.9c0.1,0,0.1,0,0.2,0c0.4-2.7,0.8-5.5,1.2-8.2c0.1,0,0.2,0,0.3,0c0.3,1.5,0.6,3,0.9,4.7
		c1.8-6.3,2.8-12.6,1.6-19.1c-0.2,1.5-0.4,2.9-0.6,4.4c-0.1,0-0.1,0-0.2,0c-0.3-1.4-0.6-2.8-0.9-4.2c-0.1,0-0.1,0-0.2,0
		c-0.4,2.6-0.9,5.3-1.3,7.9c-0.1,0-0.1,0-0.2,0c-0.3-1.4-0.6-2.8-0.9-4.2c-0.1,0-0.1,0-0.2,0c-0.4,2.6-0.9,5.3-1.3,7.9
		c-0.1,0-0.1,0-0.2,0c-0.3-1.3-0.6-2.7-0.9-4c-0.1,0-0.2,0-0.2,0c-0.4,2.6-0.8,5.1-1.2,7.7c-0.1,0-0.1,0-0.2,0
		c-0.3-1.3-0.6-2.7-0.9-4c-0.1,0-0.1,0-0.2,0c-0.4,2.5-0.8,5.1-1.3,7.6c-0.1,0-0.1,0-0.2,0c-0.3-1.3-0.6-2.6-0.8-3.9
		c-0.1,0-0.2,0-0.2,0c-0.4,2.6-0.8,5.1-1.3,7.7c-0.1,0-0.1,0-0.2,0c-0.3-1.3-0.6-2.7-0.9-4c-0.1,0-0.1,0-0.2,0
		c-0.4,2.5-0.8,5.1-1.3,7.6c-0.1,0-0.1,0-0.2,0c-0.3-3-0.6-6.1-0.9-9.1c-0.1,0-0.1,0-0.2,0c-0.3,3.1-0.6,6.2-1,9.3
		c-0.1,0-0.1,0-0.2,0c0-0.2-0.1-0.4-0.1-0.6c0.2-4.4-0.2-8.8,0.7-13.2c0.4-1.8-0.1-3.7-0.2-5.5c-0.1-1.9-0.2-3.9,0.4-5.8
		c0.1,0.8,0.1,1.7,0.5,2.7c0.5-3.4,1-6.6,1.5-9.7c0.1,0,0.1,0,0.2,0c0.3,1.5,0.6,3,0.8,4.5c0.1,0,0.2,0,0.2,0
		c0.4-2.7,0.8-5.5,1.2-8.2c0.1,0,0.1,0,0.2,0c0.3,1.5,0.6,3,0.9,4.6c0.1,0,0.1,0,0.2,0c0.4-2.7,0.8-5.5,1.3-8.2c0.1,0,0.1,0,0.2,0
		c0.3,1.5,0.6,3,0.9,4.5c0.1,0,0.1,0,0.2,0c0.4-2.7,0.8-5.5,1.3-8.2c0.1,0,0.1,0,0.2,0c0.3,1.6,0.6,3.1,0.9,4.7h0.1
		c0.4-2.8,0.9-5.6,1.3-8.4c0.1,0,0.1,0,0.2,0c0.3,1.6,0.6,3.1,0.9,4.7c0.1,0,0.1,0,0.2,0c0.4-2.8,0.9-5.7,1.3-8.5c0.1,0,0.1,0,0.2,0
		c0.3,1.6,0.6,3.3,0.9,5c1.8-4.6,2.9-16.9,1.6-19c-0.2,1.5-0.4,3-0.6,4.8c-0.4-1.8-0.7-3.3-1-4.7c-0.1,0-0.1,0-0.2,0
		c-0.4,2.6-0.9,5.3-1.3,7.9c-0.1,0-0.1,0-0.2,0c-0.3-1.4-0.6-2.7-0.9-4.1c-0.1,0-0.1,0-0.2,0c-0.4,2.6-0.9,5.2-1.3,7.9
		c-0.1,0-0.1,0-0.2,0c-0.3-1.4-0.6-2.7-0.9-4.1c-0.1,0-0.1,0-0.2,0c-0.4,2.6-0.8,5.2-1.2,7.7c-0.1,0-0.1,0-0.2,0
		c-0.3-1.4-0.6-2.7-0.9-4.1c-0.1,0-0.1,0-0.2,0c-0.4,2.6-0.9,5.2-1.3,7.8c-0.1,0-0.1,0-0.2,0c-0.3-1.4-0.6-2.7-0.9-4.1
		c-0.1,0-0.1,0-0.2,0c-0.4,2.6-0.9,5.2-1.3,7.8c-0.1,0-0.1,0-0.2,0c-0.3-1.3-0.6-2.6-0.8-4c-0.1,0-0.1,0-0.2,0
		c-0.4,2.5-0.8,5.1-1.3,7.6c-0.1,0-0.1,0-0.2,0c-0.3-3.1-0.6-6.2-1-9.2c-0.1,0-0.1,0-0.2,0c-0.3,2.8-0.6,5.6-0.9,8.4
		c-0.5-5.6,0.7-10.8,2.5-16c0.4-1,0.6-2,0.5-3c-0.3-2.5,0.2-5,0.4-7.5c0.5-0.1,0.4-0.5,0.5-0.9c0.2-1.3,0.4-2.6,0.5-3.9
		c0.2-1.2,0.4-2.4,0.6-3.6c0.1,0,0.1,0,0.2,0c0.3,1.5,0.6,3,0.8,4.5c0.1,0,0.1,0,0.2,0c0.4-2.8,0.9-5.5,1.3-8.3c0.1,0,0.1,0,0.2,0
		c0.3,1.5,0.6,3,0.9,4.6c0.1,0,0.1,0,0.2,0c0.4-2.8,0.8-5.6,1.3-8.4c0.1,0,0.1,0,0.2,0c0.3,1.6,0.6,3.1,0.9,4.7c0.1,0,0.1,0,0.2,0
		c0.4-2.8,0.9-5.6,1.3-8.4h0.1c0.3,1.6,0.6,3.3,0.9,4.9c0.1,0,0.1,0,0.2,0c0.4-2.8,0.9-5.7,1.3-8.5c0.1,0,0.1,0,0.2,0
		c0.3,1.6,0.6,3.2,0.9,5c1.8-6.4,2.8-12.7,1.6-19.1c-0.2,1.4-0.4,2.9-0.6,4.3c-0.1,0-0.1,0-0.2,0c-0.3-1.4-0.6-2.8-0.9-4.1
		c-0.1,0-0.1,0-0.2,0c-0.4,2.6-0.8,5.2-1.3,7.9c-0.1,0-0.1,0-0.2,0c-0.3-1.4-0.6-2.8-0.9-4.2h-0.1c-0.4,2.7-0.9,5.3-1.3,8
		c-0.1,0-0.1,0-0.2,0c-0.3-1.4-0.6-2.7-0.9-4.1c-0.1,0-0.2,0-0.2,0c-0.4,2.6-0.8,5.2-1.3,7.7c-0.1,0-0.1,0-0.2,0
		c-0.3-1.4-0.6-2.7-0.8-4.1c-0.1,0-0.1,0-0.2,0c-0.4,2.6-0.9,5.2-1.3,7.8c-0.1,0-0.1,0-0.2,0c-0.3-1.3-0.6-2.7-0.8-4
		c-0.1,0-0.2,0-0.2,0c-0.4,2.6-0.8,5.1-1.3,7.7c-0.1,0-0.1,0-0.2,0c-0.3-1.3-0.6-2.7-0.9-4.1c-0.2,0.3-0.3,0.5-0.5,0.6
		c-0.1-2.8-0.4-5.7-0.4-8.5c0-4.7,0.1-9.4,0.2-14.1c0.2,0.7,0.4,1.5,0.6,2.2c0.1,0,0.1,0,0.2,0c0.4-2.7,0.8-5.5,1.3-8.2
		c0.6,1.4,0.6,3,1.2,4.7c0.5-3,0.9-5.8,1.3-8.6c0.1,0,0.1,0,0.2,0c0.3,1.5,0.6,3,0.9,4.5c0.1,0,0.2,0,0.2,0c0.4-2.7,0.8-5.3,1.2-8
		c0.1,0,0.2,0,0.2,0c0.3,1.5,0.6,3,0.9,4.6c0.1,0,0.1,0,0.2,0c0.4-2.8,0.9-5.7,1.3-8.5h0.1c0.3,1.6,0.6,3.2,0.9,4.8
		c0.1,0,0.1,0,0.2,0c0.4-2.8,0.9-5.7,1.3-8.5c0.1,0,0.1,0,0.2,0c0.3,1.6,0.6,3.3,0.9,5.1c1.8-6.4,2.8-12.6,1.6-19.1
		c-0.2,1.4-0.4,2.9-0.6,4.3h-0.1c-0.3-1.4-0.6-2.8-0.9-4.2c-0.1,0-0.1,0-0.2,0c-0.4,2.6-0.8,5.3-1.3,7.9c-0.1,0-0.1,0-0.2,0
		c-0.3-1.4-0.6-2.8-0.9-4.2c-0.1,0-0.1,0-0.2,0c-0.4,2.6-0.9,5.3-1.3,7.9c-0.1,0-0.1,0-0.2,0c-0.3-1.4-0.6-2.7-0.9-4.1
		c-0.1,0-0.1,0-0.2,0c-0.4,2.6-0.8,5.2-1.3,7.9c-0.1,0-0.1,0-0.2,0c-0.3-1.4-0.6-2.7-0.9-4.1c-0.1,0-0.1,0-0.2,0
		c-0.4,2.6-0.9,5.1-1.3,7.7c-0.1,0-0.1,0-0.2,0c-0.3-1.4-0.6-2.7-0.9-4.1c-0.1,0-0.1,0-0.2,0c-0.4,2.6-0.8,5.2-1.3,7.8
		c-0.1,0-0.1,0-0.2,0c-0.3-1.3-0.6-2.7-0.9-4c-0.1,0-0.1,0-0.2,0c-0.2,1.2-0.5,2.3-0.7,3.5c-0.6-5.1-1.2-10.1-1.7-15.2
		c0-0.3-0.1-0.6-0.2-0.9c0.4-0.8-0.1-1.5,0-2.3c0.3-0.5,0.4-1,0.4-1.6c0.4-2.7,0.8-5.3,1.2-8c0.1,0,0.1,0,0.2,0
		c0.3,1.5,0.6,3.1,0.9,4.6c0.1,0,0.1,0,0.2,0c0.4-2.8,0.8-5.5,1.3-8.3c0.1,0,0.1,0,0.2,0c0.3,1.5,0.6,3,0.9,4.5c0.1,0,0.1,0,0.2,0
		c0.4-2.8,0.9-5.5,1.3-8.3c0.1,0,0.1,0,0.2,0c0.3,1.5,0.6,3,0.9,4.5c0.1,0,0.2,0,0.2,0c0.4-2.8,0.8-5.6,1.3-8.4c0.1,0,0.1,0,0.2,0
		c0.3,1.6,0.6,3.2,0.9,4.8c0.1,0,0.1,0,0.2,0c0.4-2.9,0.9-5.7,1.4-8.9c0.4,2,0.7,3.6,1,5.3c0.1,0,0.1,0,0.2,0
		c0.4-2.8,0.9-5.7,1.3-8.5c0.1,0,0.1,0,0.2,0c0.3,1.6,0.6,3.3,0.9,5c1.8-4.6,2.9-16.8,1.7-19.1c-0.2,1.5-0.4,2.9-0.6,4.3
		c-0.1,0-0.1,0-0.2,0c-0.3-1.4-0.6-2.8-0.8-4.1c-0.1,0-0.1,0-0.2,0c-0.4,2.6-0.8,5.1-1.3,7.7c-0.1,0-0.2,0-0.2,0
		c-0.3-1.3-0.6-2.6-0.9-3.9c-0.1,0-0.1,0-0.2,0c-0.4,2.6-0.9,5.2-1.3,7.8c-0.1,0-0.1,0-0.2,0c-0.3-1.4-0.6-2.7-0.9-4.1
		c-0.1,0-0.1,0-0.2,0c-0.4,2.6-0.8,5.1-1.3,7.7c-0.1,0-0.1,0-0.2,0c-0.3-1.3-0.6-2.6-0.8-4c-0.1,0-0.1,0-0.2,0
		c-0.4,2.6-0.8,5.2-1.3,7.8c-0.1,0-0.1,0-0.2,0c-0.3-1.4-0.6-2.7-0.9-4.1c-0.1,0-0.1,0-0.2,0c-0.4,2.6-0.9,5.1-1.3,7.7
		c-0.1,0-0.1,0-0.2,0c-0.3-1.3-0.6-2.6-0.9-3.9c-0.1,0-0.1,0-0.2,0c-0.4,2.6-0.8,5.1-1.3,7.7c-0.1,0-0.1,0-0.2,0
		c-0.3-3.1-0.6-6.1-1-9.2c-0.1,0-0.1,0-0.2,0c-0.3,3.1-0.6,6.1-1,9.2c-0.1,0-0.1,0-0.2,0c-0.4-2.6-0.9-5.2-1.3-7.9
		c-0.4,0.6-0.2,1.3-0.8,1.6C39.5,94.6,39.5,92.9,38.7,91.4z M137.4,115c-0.1,0-0.1,0-0.2,0c-0.4-2.6-0.9-5.3-1.3-7.9
		c-0.1,0-0.1,0-0.2,0c-0.3,1.4-0.6,2.8-0.9,4.2c-0.1,0-0.1,0-0.2,0c-0.4-2.6-0.9-5.3-1.3-7.9c-0.1,0-0.1,0-0.2,0
		c-0.3,1.4-0.6,2.8-0.9,4.2c-0.1,0-0.1,0-0.2,0c-0.2-1.4-0.4-2.9-0.5-4.3c-1.3,6.5-0.1,12.7,1.6,19.2c0.4-1.9,0.7-3.6,1-5.2h0.1
		c0.4,2.8,0.9,5.6,1.3,8.5c0.1,0,0.1,0,0.2,0c0.3-1.6,0.6-3.2,0.9-4.7c0.1,0,0.1,0,0.2,0c0.4,2.8,0.8,5.6,1.3,8.4c0.1,0,0.1,0,0.2,0
		c0.3-1.5,0.6-3.1,0.9-4.6c0.1,0,0.1,0,0.2,0c0.4,2.8,0.8,5.5,1.3,8.3c0.1,0,0.2,0,0.2,0c0.3-1.5,0.6-3,0.9-4.6c0.1,0,0.1,0,0.2,0
		c0.4,2.8,0.8,5.5,1.3,8.3c0.1,0,0.1,0,0.2,0c0.3-1.5,0.6-3,0.9-4.4c0.1,0,0.1,0,0.2,0c0.4,2.7,0.8,5.4,1.3,8.2
		c0.7-1.5,0.6-3.1,1.2-4.7c0.5,3.4,1,6.6,1.5,9.8c0.1,0,0.2,0,0.2,0c0.5-3.1,0.9-6.3,1.4-9.4c0.1,0,0.2,0,0.2,0
		c0.3,1.5,0.6,3,0.9,4.5c0.1,0,0.1,0,0.2,0c0.4-2.8,0.9-5.5,1.3-8.3c0.1,0,0.1,0,0.2,0c0.3,1.5,0.6,3,0.9,4.6c0.1,0,0.1,0,0.2,0
		c0.4-2.8,0.8-5.6,1.3-8.4c0.1,0,0.1,0,0.2,0c0.3,1.5,0.6,3,0.8,4.5c0.1,0,0.2,0,0.2,0c0.4-2.7,0.9-5.5,1.3-8.2c0.1,0,0.1,0,0.2,0
		c0.3,1.6,0.6,3.1,0.9,4.7c0.1,0,0.1,0,0.2,0c0.4-2.8,0.9-5.6,1.3-8.3c0.1,0,0.1,0,0.2,0c0.3,1.6,0.6,3.1,0.9,4.7c0.1,0,0.1,0,0.2,0
		c0.4-2.8,0.9-5.7,1.3-8.5h0.1c0.3,1.6,0.6,3.2,0.9,4.9c0.6-2.1,1-4.3,1.5-6.4s0.8-4.1,0.6-6.3c-0.1-2.1,0.4-4.2-0.6-6.2
		c-0.2,1.4-0.3,2.8-0.5,4.2c-0.1,0-0.1,0-0.2,0c-0.3-1.4-0.6-2.8-0.9-4.2c-0.1,0-0.1,0-0.2,0c-0.4,2.7-0.9,5.3-1.3,8
		c-0.1,0-0.1,0-0.2,0c-0.3-1.4-0.6-2.8-0.9-4.2c-0.1,0-0.1,0-0.2,0c-0.4,2.6-0.9,5.2-1.3,7.8c-0.1,0-0.1,0-0.2,0
		c-0.3-1.4-0.6-2.8-0.9-4.2c-0.1,0-0.1,0-0.2,0c-0.4,2.6-0.9,5.3-1.3,7.9c-0.1,0-0.1,0-0.2,0c-0.3-1.3-0.6-2.7-0.9-4
		c-0.1,0-0.1,0-0.2,0c-0.4,2.6-0.8,5.1-1.3,7.7c-0.1,0-0.1,0-0.2,0c-0.3-1.3-0.6-2.7-0.8-4c-0.1,0-0.1,0-0.2,0
		c-0.4,2.6-0.9,5.2-1.3,7.8c-0.1,0-0.1,0-0.2,0c-0.3-1.3-0.6-2.7-0.9-4c-0.1,0-0.1,0-0.2,0c-0.4,2.6-0.8,5.1-1.2,7.7
		c-0.1,0-0.1,0-0.2,0c-0.3-3-0.6-6.1-0.9-9.1c-0.1,0-0.2,0-0.3,0c-0.3,3-0.6,6.1-0.9,9.1c-0.1,0-0.1,0-0.2,0
		c-0.4-2.6-0.8-5.2-1.3-7.8c-0.6,1.3-0.6,2.8-1.2,4.3c-0.5-2.8-0.9-5.4-1.3-7.9c-0.1,0-0.1,0-0.2,0c-0.3,1.4-0.6,2.7-0.9,4.1
		c-0.1,0-0.1,0-0.2,0c-0.4-2.6-0.9-5.3-1.3-7.9c-0.6,1.3-0.6,2.8-1.2,4.3c-0.5-2.8-0.9-5.4-1.3-8.1c-0.1,0-0.1,0-0.2,0
		C138,112.2,137.7,113.6,137.4,115z M106.7,62.9c0.1,0,0.1,0,0.2,0c0.4,2.7,0.8,5.5,1.2,8.2c0.1,0,0.2,0,0.2,0
		c0.3-1.5,0.6-3,0.9-4.6c0.1,0,0.1,0,0.2,0c0.4,2.8,0.9,5.5,1.3,8.3c0.1,0,0.1,0,0.2,0c0.3-1.5,0.6-3,0.8-4.6c0.1,0,0.1,0,0.2,0
		c0.5,3.1,0.9,6.3,1.4,9.4c0.1,0,0.2,0,0.2,0c0.5-3.1,0.9-6.2,1.4-9.4c0.1,0,0.1,0,0.2,0c0.3,1.5,0.6,3,0.9,4.6c0.1,0,0.1,0,0.2,0
		c0.4-2.8,0.9-5.5,1.3-8.3c0.1,0,0.1,0,0.2,0c0.3,1.5,0.6,3,0.8,4.5c0.1,0,0.2,0,0.2,0c0.4-2.7,0.8-5.5,1.2-8.2c0.1,0,0.1,0,0.2,0
		c0.3,1.5,0.6,3,0.9,4.6c0.1,0,0.1,0,0.2,0c0.4-2.8,0.8-5.5,1.3-8.3c0.1,0,0.1,0,0.2,0c0.3,1.6,0.6,3.1,0.9,4.7c0.1,0,0.1,0,0.2,0
		c0.4-2.8,0.8-5.7,1.2-8.5c0.1,0,0.1,0,0.2,0c0.3,1.6,0.6,3.2,0.9,4.8c0.1,0,0.1,0,0.2,0c0.4-2.9,0.9-5.7,1.3-8.6h0.1
		c0.3,1.6,0.6,3.2,0.9,5c1.9-4.6,3-16.9,1.6-18.9c-0.2,1.5-0.4,2.9-0.5,4.4c-0.1,0-0.1,0-0.2,0c-0.3-1.4-0.6-2.9-0.9-4.3
		c-0.1,0-0.1,0-0.2,0c-0.4,2.6-0.9,5.3-1.3,7.9c-0.1,0-0.1,0-0.2,0c-0.3-1.4-0.6-2.8-0.9-4.3c-0.1,0-0.1,0-0.2,0
		c-0.4,2.6-0.9,5.3-1.3,7.9c-0.1,0-0.1,0-0.2,0c-0.3-1.4-0.6-2.7-0.9-4.1c-0.1,0-0.1,0-0.2,0c-0.4,2.6-0.9,5.2-1.3,7.8
		c-0.1,0-0.1,0-0.2,0c-0.3-1.4-0.6-2.7-0.9-4.1c-0.1,0-0.1,0-0.2,0c-0.4,2.6-0.9,5.2-1.3,7.8c-0.1,0-0.1,0-0.2,0
		c-0.3-1.3-0.6-2.7-0.9-4c-0.1,0-0.1,0-0.2,0c-0.4,2.6-0.8,5.1-1.3,7.7c-0.1,0-0.1,0-0.2,0c-0.3-1.4-0.6-2.7-0.9-4.1
		c-0.1,0-0.1,0-0.2,0c-0.4,2.6-0.9,5.2-1.3,7.8c-0.1,0-0.1,0-0.2,0c-0.3-3.1-0.6-6.2-0.9-9.2c-0.1,0-0.2,0-0.2,0
		c-0.3,3-0.6,6.1-0.9,9.1c-0.1,0-0.2,0-0.2,0c-0.4-2.5-0.8-5.1-1.2-7.6c-0.1,0-0.1,0-0.2,0c-0.3,1.4-0.6,2.7-0.9,4.1
		c-0.1,0-0.1,0-0.2,0c-0.4-2.5-0.9-5.1-1.3-7.6c-0.1,0-0.2,0-0.2,0c-0.3,1.3-0.6,2.6-0.8,3.9c-0.1,0-0.1,0-0.2,0
		c-0.4-2.6-0.8-5.2-1.2-7.7c-0.6,1.3-0.6,2.7-1.2,4.2c-0.5-2.8-0.9-5.3-1.3-8.2c-0.6,1.5-0.5,3-1.2,4.4c-0.5-2.9-0.9-5.5-1.3-8.1
		c-0.1,0-0.1,0-0.2,0c-0.3,1.4-0.6,2.8-0.9,4.2c-0.1,0-0.1,0-0.2,0c-0.4-2.6-0.9-5.2-1.3-7.9c-0.1,0-0.1,0-0.2,0
		c-0.3,1.4-0.6,2.8-0.9,4.2c-0.1,0-0.1,0-0.2,0c-0.2-1.5-0.3-2.9-0.5-4.6c-1.3,2.7-0.2,15.2,1.6,19.2c0.3-1.7,0.6-3.4,0.9-5h0.1
		c0.4,2.9,0.9,5.7,1.3,8.6c0.1,0,0.1,0,0.2,0c0.3-1.6,0.6-3.2,0.9-4.8c0.1,0,0.1,0,0.2,0c0.4,2.8,0.9,5.6,1.3,8.3c0.1,0,0.1,0,0.2,0
		c0.3-1.5,0.6-3,0.9-4.5c0.1,0,0.1,0,0.2,0c0.4,2.7,0.9,5.5,1.3,8.2c0.1,0,0.1,0,0.2,0C106.1,65.9,106.4,64.4,106.7,62.9z
		 M99.8,122.2c-0.1,0-0.1,0-0.2,0c-0.4-2.6-0.9-5.2-1.3-7.8c-0.1,0-0.1,0-0.2,0c-0.3,1.3-0.6,2.7-0.9,4c-0.1,0-0.1,0-0.2-0.1
		c-0.2-1.4-0.3-2.8-0.5-4.3c-1.3,6.5-0.2,12.7,1.6,19.2c0.4-1.9,0.7-3.6,1-5.2h0.1c0.4,2.9,0.9,5.8,1.3,8.7c0.1,0,0.1,0,0.2,0
		c0.3-1.6,0.6-3.2,0.9-4.8c0.1,0,0.1,0,0.2,0c0.4,2.8,0.8,5.6,1.3,8.3c0.1,0,0.1,0,0.2,0c0.3-1.5,0.6-3,0.9-4.5c0.1,0,0.1,0,0.2,0
		c0.4,2.8,0.8,5.5,1.3,8.3c0.1,0,0.1,0,0.2,0c0.3-1.5,0.6-3,0.9-4.6c0.1,0,0.1,0,0.2,0c0.4,2.7,0.8,5.5,1.2,8.2c0.1,0,0.2,0,0.2,0
		c0.3-1.5,0.6-3.1,0.9-4.6c0.1,0,0.1,0,0.2,0c0.4,2.8,0.9,5.5,1.3,8.3c0.1,0,0.1,0,0.2,0c0.3-1.5,0.6-3,0.8-4.5c0.1,0,0.1,0,0.2,0
		c0.5,3.1,0.9,6.3,1.4,9.4c0.1,0,0.2,0,0.2,0c0.5-3.1,0.9-6.2,1.4-9.4c0.1,0,0.2,0,0.2,0c0.3,1.5,0.6,3,0.9,4.6c0.1,0,0.1,0,0.2,0
		c0.4-2.8,0.9-5.5,1.3-8.3c0.1,0,0.1,0,0.2,0c0.3,1.5,0.6,3,0.8,4.5c0.1,0,0.1,0,0.2,0c0.4-2.7,0.8-5.4,1.2-8.2c0.1,0,0.2,0,0.2,0
		c0.3,1.5,0.6,3,0.8,4.5c0.1,0,0.1,0,0.2,0c0.4-2.8,0.9-5.5,1.3-8.3c0.1,0,0.1,0,0.2,0c0.3,1.5,0.6,3,0.9,4.5c0.1,0,0.2,0,0.2,0
		c0.4-2.8,0.8-5.5,1.2-8.3c0.6,1.5,0.6,3.2,1.2,4.9c0.5-3.1,0.9-5.9,1.4-9.1c0.4,2,0.7,3.7,1,5.5c2-5.3,3-17.3,1.6-19
		c-0.2,1.5-0.3,3-0.5,4.5c-0.1,0-0.1,0-0.2,0c-0.3-1.5-0.6-2.9-0.9-4.4h-0.1c-0.4,2.6-0.9,5.3-1.3,7.9c-0.1,0-0.1,0-0.2,0
		c-0.3-1.4-0.6-2.8-0.9-4.2c-0.1,0-0.1,0-0.2,0c-0.4,2.6-0.9,5.3-1.3,7.9c-0.1,0-0.1,0-0.2,0c-0.3-1.4-0.6-2.8-0.9-4.1h-0.1
		c-0.4,2.6-0.9,5.3-1.3,7.9c-0.1,0-0.1,0-0.2,0c-0.3-1.4-0.6-2.7-0.9-4.1c-0.1,0-0.1,0-0.2,0c-0.4,2.6-0.9,5.1-1.3,7.7
		c-0.1,0-0.1,0-0.2,0c-0.3-1.3-0.6-2.6-0.8-4c-0.1,0-0.1,0-0.2,0c-0.4,2.6-0.8,5.2-1.3,7.7c-0.1,0-0.1,0-0.2,0
		c-0.3-1.3-0.6-2.7-0.9-4c-0.1,0-0.1,0-0.2,0c-0.4,2.6-0.9,5.1-1.3,7.7c-0.1,0-0.1,0-0.2,0c-0.3-3-0.6-6.1-0.9-9.1
		c-0.1,0-0.2,0-0.3,0c-0.3,3-0.6,6.1-0.9,9.1c-0.1,0-0.1,0-0.2,0c-0.4-2.6-0.8-5.1-1.2-7.7c-0.1,0-0.1,0-0.2,0
		c-0.3,1.4-0.6,2.7-0.9,4.1c-0.1,0-0.1,0-0.2,0c-0.4-2.5-0.9-5.1-1.3-7.6c-0.1,0-0.2,0-0.2,0c-0.3,1.3-0.6,2.6-0.8,3.9
		c-0.1,0-0.1,0-0.2,0c-0.4-2.6-0.8-5.1-1.2-7.7c-0.6,1.3-0.6,2.7-1.2,4.2c-0.5-2.8-0.9-5.4-1.3-8c-0.1,0-0.1,0-0.2,0
		c-0.3,1.4-0.6,2.7-0.9,4.1c-0.1,0-0.1,0-0.2,0c-0.4-2.6-0.9-5.3-1.3-7.9c-0.1,0-0.1,0-0.2,0C100.4,119.4,100.1,120.8,99.8,122.2z
		 M120.1,177.7c0.1,0,0.1,0,0.2,0c0.3,1.5,0.6,3.1,0.9,4.6c0.1,0,0.1,0,0.2,0c0.4-2.8,0.9-5.6,1.3-8.4c0.1,0,0.1,0,0.2,0
		c0.3,1.5,0.6,3,0.8,4.5c0.1,0,0.2,0,0.2,0c0.4-2.7,0.8-5.4,1.2-8c0.1,0,0.2,0,0.2,0c0.3,1.5,0.6,3,0.9,4.5h0.1
		c0.4-2.8,0.9-5.7,1.3-8.5c0.1,0,0.1,0,0.2,0c0.3,1.6,0.6,3.2,0.9,4.8c0.9-3.1,1.9-6.2,2.1-9.4c0.3-3.1,0.4-6.4-0.5-9.5
		c-0.2,1.5-0.3,3-0.5,4.5c-0.5-1.4-0.6-2.9-1.2-4.5c-0.5,2.9-0.9,5.5-1.4,8.2h-0.1c-0.3-1.4-0.6-2.8-0.9-4.2c-0.1,0-0.1,0-0.2,0
		c-0.4,2.6-0.9,5.2-1.3,7.9c-0.1,0-0.1,0-0.2,0c-0.3-1.4-0.6-2.8-0.9-4.2c-0.1,0-0.1,0-0.2,0c-0.4,2.6-0.9,5.2-1.3,7.8
		c-0.1,0-0.1,0-0.2,0c-0.3-1.4-0.6-2.7-0.9-4.1c-0.1,0-0.1,0-0.2,0c-0.4,2.6-0.9,5.2-1.3,7.8c-0.1,0-0.1,0-0.2,0
		c-0.3-1.4-0.6-2.7-0.9-4.1c-0.1,0-0.1,0-0.2,0c-0.4,2.6-0.9,5.1-1.3,7.7c-0.1,0-0.1,0-0.2,0c-0.3-1.4-0.6-2.7-0.9-4.1
		c-0.1,0-0.1,0-0.2,0c-0.4,2.6-0.8,5.2-1.3,7.8c-0.1,0-0.1,0-0.2,0c-0.3-3.1-0.6-6.2-0.9-9.3c-0.1,0-0.2,0-0.2,0
		c-0.3,3.1-0.6,6.2-0.9,9.3c-0.1,0-0.1,0-0.2,0c-0.4-2.6-0.8-5.2-1.3-7.8c-0.1,0-0.1,0-0.2,0c-0.3,1.4-0.6,2.7-0.9,4.1
		c-0.1,0-0.1,0-0.2,0c-0.4-2.6-0.9-5.1-1.3-7.7c-0.1,0-0.1,0-0.2,0c-0.3,1.3-0.6,2.7-0.8,4c-0.1,0-0.1,0-0.2,0
		c-0.4-2.6-0.9-5.2-1.3-7.9c-0.1,0-0.1,0-0.2,0c-0.3,1.4-0.6,2.7-0.9,4.1c-0.1,0-0.1,0-0.2,0c-0.4-2.6-0.9-5.2-1.3-7.8
		c-0.1,0-0.1,0-0.2,0c-0.3,1.4-0.6,2.7-0.9,4.1c-0.1,0-0.1,0-0.2,0c-0.4-2.6-0.8-5.2-1.3-7.7c-0.1,0-0.1,0-0.2,0
		c-0.3,1.3-0.6,2.7-0.9,4c-0.1,0-0.1,0-0.2,0c-0.4-2.6-0.9-5.2-1.3-7.8c-0.1,0-0.1,0-0.2,0c-0.3,1.4-0.6,2.8-0.9,4.2
		c-0.1,0-0.1,0-0.2,0c-0.2-1.4-0.3-2.9-0.5-4.3c-1.3,3.2-0.2,14.3,1.6,18.9c0.3-1.7,0.6-3.3,0.9-4.9c0.1,0,0.1,0,0.2,0
		c0.4,2.8,0.9,5.6,1.3,8.5c0.1,0,0.1,0,0.2,0c0.3-1.6,0.6-3.1,0.9-4.7c0.1,0,0.1,0,0.2,0c0.4,2.8,0.8,5.6,1.3,8.3c0.1,0,0.1,0,0.2,0
		c0.3-1.6,0.6-3.1,0.9-4.7c0.1,0,0.1,0,0.2,0c0.4,2.8,0.9,5.5,1.3,8.3c0.1,0,0.1,0,0.2,0c0.3-1.5,0.6-3,0.9-4.6c0.1,0,0.1,0,0.2,0
		c0.4,2.7,0.8,5.5,1.2,8.2c0.1,0,0.2,0,0.2,0c0.3-1.5,0.6-3,0.9-4.5c0.1,0,0.1,0,0.2,0c0.4,2.7,0.8,5.5,1.3,8.2c0.1,0,0.1,0,0.2,0
		c0.3-1.5,0.6-3,0.9-4.5c0.1,0,0.1,0,0.2,0.1c0.5,3.2,0.9,6.3,1.4,9.5c0.1,0,0.2,0,0.2,0c0.5-3.2,0.9-6.3,1.4-9.5c0.1,0,0.1,0,0.2,0
		c0.3,1.5,0.6,3,0.8,4.5c0.1,0,0.1,0,0.2,0c0.4-2.8,0.9-5.6,1.3-8.3c0.1,0,0.1,0,0.2,0c0.3,1.5,0.6,3.1,0.9,4.6c0.1,0,0.1,0,0.2,0
		C119.3,183.2,119.7,180.4,120.1,177.7z M161.3,240.6c0.1,0,0.1,0,0.2-0.1c0.4-2.9,0.9-5.7,1.3-8.6h0.1c0.3,1.7,0.6,3.3,1,5
		c0.9-3.2,1.8-6.3,2.1-9.5c0.5-4.5,0.1-8.5-0.5-9.5c-0.2,1.5-0.3,3-0.5,4.5c-0.1,0-0.1,0-0.2,0c-0.3-1.4-0.6-2.8-0.9-4.2
		c-0.1,0-0.1,0-0.2,0c-0.4,2.6-0.9,5.2-1.3,7.8c-0.1,0-0.1,0-0.2,0c-0.3-1.4-0.6-2.8-0.9-4.2c-0.1,0-0.1,0-0.2,0
		c-0.4,2.6-0.8,5.3-1.3,7.9c-0.5-1.4-0.7-2.8-1.2-4.3c-0.5,2.9-0.9,5.5-1.3,8.1c-0.1,0-0.1,0-0.2,0c-0.3-1.3-0.6-2.7-0.9-4
		c-0.1,0-0.1,0-0.2,0c-0.4,2.6-0.8,5.2-1.3,7.7c-0.1,0-0.1,0-0.2,0c-0.3-1.3-0.6-2.7-0.9-4c-0.1,0-0.1,0-0.2,0
		c-0.4,2.6-0.9,5.1-1.3,7.7c-0.1,0-0.1,0-0.2,0c-0.3-1.4-0.6-2.7-0.9-4.1c-0.1,0-0.1,0-0.2,0c-0.4,2.6-0.8,5.1-1.3,7.7
		c-0.1,0-0.1,0-0.2,0c-0.3-3-0.6-6.1-0.9-9.1c-0.1,0-0.2,0-0.3,0c-0.3,3-0.6,6.1-0.9,9.1c-0.1,0-0.1,0-0.2,0
		c-0.4-2.6-0.8-5.1-1.3-7.7c-0.1,0-0.1,0-0.2,0c-0.3,1.3-0.6,2.6-0.9,3.9c-0.1,0-0.1,0-0.2,0c-0.4-2.6-0.8-5.1-1.3-7.7
		c-0.1,0-0.1,0-0.2,0c-0.3,1.3-0.6,2.7-0.9,4c-0.1,0-0.1,0-0.2,0c-0.4-2.6-0.9-5.2-1.3-7.7c-0.1,0-0.1,0-0.2,0
		c-0.3,1.4-0.6,2.7-0.9,4.1c-0.1,0-0.1,0-0.2,0c-0.4-2.6-0.9-5.2-1.3-7.8c-0.1,0-0.1,0-0.2,0c-0.3,1.3-0.6,2.7-0.9,4
		c-0.1,0-0.1,0-0.2,0c-0.4-2.6-0.9-5.3-1.3-7.9c-0.1,0-0.1,0-0.2,0c-0.3,1.4-0.6,2.8-0.9,4.2c-0.1,0-0.1,0-0.2,0
		c-0.4-2.7-0.9-5.3-1.3-8h-0.1c-0.3,1.4-0.6,2.8-0.9,4.2c-0.1,0-0.1,0-0.2,0c-0.2-1.4-0.4-2.9-0.6-4.3c-1.3,6.5-0.1,12.7,1.6,19.2
		c0.4-1.9,0.7-3.6,1-5.2h0.1c0.4,2.8,0.9,5.6,1.3,8.5c0.5-1.5,0.6-3,1.3-4.4c0.4,2.7,0.8,5.4,1.2,8.1c0.1,0,0.1,0,0.2,0
		c0.3-1.5,0.6-3,0.9-4.6c0.1,0,0.1,0,0.2,0c0.4,2.7,0.9,5.5,1.3,8.2c0.6-1.5,0.7-3,1.2-4.7c0.5,3.1,0.9,5.8,1.3,8.5
		c0.1,0,0.1,0,0.2,0c0.3-1.5,0.6-3,0.9-4.5c0.1,0,0.1,0,0.2,0c0.4,2.8,0.8,5.5,1.3,8.3c0.1,0,0.1,0,0.2,0c0.3-1.6,0.6-3.1,0.9-4.7
		c0.1,0,0.1,0,0.2,0c0.5,3.2,1,6.4,1.4,9.5c0.1,0,0.1,0,0.2,0c0.5-3.1,0.9-6.3,1.4-9.4c0.1,0,0.1,0,0.2,0c0.3,1.5,0.6,3,0.9,4.5
		c0.1,0,0.1,0,0.2,0c0.4-2.8,0.9-5.5,1.3-8.3c0.1,0,0.1,0,0.2,0c0.3,1.5,0.6,3,0.9,4.5c0.1,0,0.1,0,0.2,0c0.4-2.8,0.8-5.6,1.3-8.4
		c0.1,0,0.1,0,0.2,0c0.3,1.6,0.6,3.1,0.9,4.7c0.1,0,0.1,0,0.2,0c0.4-2.8,0.9-5.6,1.3-8.4c0.1,0,0.1,0,0.2,0c0.3,1.6,0.6,3.1,0.9,4.7
		c0.1,0,0.1,0,0.2,0c0.4-2.8,0.9-5.6,1.3-8.3c0.1,0,0.1,0,0.2,0C160.8,237.4,161,239,161.3,240.6z M77.4,244.5c-0.1,0-0.1,0-0.2,0
		c-0.4-2.6-0.8-5.2-1.3-7.7c-0.1,0-0.1,0-0.2,0c-0.3,1.4-0.6,2.7-0.9,4.1c-0.1,0-0.1,0-0.2,0c-0.4-2.6-0.9-5.2-1.3-7.7
		c-0.1,0-0.1,0-0.2,0c-0.3,1.3-0.6,2.7-0.8,4c-0.1,0-0.1,0-0.2,0c-0.4-2.6-0.8-5.2-1.3-7.7c-0.1,0-0.1,0-0.2,0
		c-0.3,1.4-0.6,2.7-0.9,4.1c-0.1,0-0.1,0-0.2,0c-0.4-2.6-0.9-5.2-1.3-7.8c-0.1,0-0.1,0-0.2,0c-0.3,1.4-0.6,2.7-0.8,4.1
		c-0.1,0-0.1,0-0.2,0c-0.4-2.6-0.9-5.3-1.3-7.9c-0.1,0-0.1,0-0.2,0c-0.3,1.4-0.6,2.8-0.9,4.2c-0.1,0-0.1,0-0.2,0
		c-0.4-2.6-0.9-5.3-1.3-7.9c-0.1,0-0.1,0-0.2,0c-0.3,1.4-0.6,2.8-0.9,4.2c-0.1,0-0.1,0-0.2,0c-0.2-1.4-0.4-2.8-0.6-4.5
		c-1.2,3.4-0.1,15,1.7,19.2c0.3-1.7,0.6-3.3,0.9-5c0.1,0,0.1,0,0.2,0c0.4,2.8,0.9,5.6,1.3,8.4c0.1,0,0.1,0,0.2,0
		c0.3-1.6,0.6-3.1,0.9-4.7c0.1,0,0.1,0,0.2,0c0.4,2.8,0.9,5.6,1.3,8.4c0.1,0,0.1,0,0.2,0c0.3-1.5,0.6-3,0.9-4.6c0.1,0,0.1,0,0.2,0
		c0.4,2.8,0.8,5.5,1.3,8.3c0.1,0,0.1,0,0.2,0c0.3-1.5,0.6-3,0.9-4.5c0.1,0,0.1,0,0.2,0c0.4,2.7,0.8,5.5,1.3,8.2c0.1,0,0.1,0,0.2,0
		c0.3-1.5,0.6-3,0.8-4.5c0.1,0,0.1,0,0.2,0c0.4,2.8,0.9,5.5,1.3,8.3c0.1,0,0.1,0,0.2,0c0.3-1.5,0.6-3,0.9-4.5c0.1,0,0.1,0,0.2,0
		c0.5,3.1,0.9,6.2,1.4,9.4c0.1,0,0.2,0,0.2,0c0.5-3.2,1-6.3,1.4-9.5c0.1,0,0.1,0,0.2,0c0.3,1.5,0.6,3,0.9,4.5c0.1,0,0.2,0,0.2,0
		c0.4-2.7,0.8-5.5,1.2-8.2c0.1,0,0.1,0,0.2,0c0.3,1.5,0.6,3.1,0.9,4.6c0.1,0,0.1,0,0.2,0c0.4-2.8,0.9-5.6,1.3-8.3c0.1,0,0.1,0,0.2,0
		c0.3,1.5,0.6,3,0.9,4.6c0.1,0,0.2,0,0.2,0c0.4-2.7,0.8-5.5,1.3-8.2c0.1,0,0.1,0,0.2,0c0.3,1.6,0.6,3.1,0.9,4.7c0.1,0,0.1,0,0.2,0
		c0.4-2.8,0.9-5.6,1.3-8.5c0.1,0,0.1,0,0.2,0c0.3,1.6,0.6,3.1,0.9,4.7c0.1,0,0.1,0,0.2,0c0.4-2.8,0.9-5.7,1.3-8.5h0.1
		c0.3,1.6,0.6,3.3,1,5.2c1.7-6.5,3-12.7,1.6-19.2c-0.2,1.5-0.4,3-0.6,4.8c-0.4-1.7-0.7-3.2-1-4.6c-0.1,0-0.1,0-0.2,0
		c-0.4,2.6-0.9,5.2-1.3,8c-0.6-1.6-0.5-3.1-1.2-4.5c-0.5,2.8-0.9,5.3-1.3,7.9c-0.1,0-0.1,0-0.2,0c-0.3-1.3-0.6-2.7-0.8-4
		c-0.1,0-0.1,0-0.2,0c-0.4,2.6-0.8,5.1-1.3,7.7c-0.6-1.3-0.6-2.7-1.2-4.1c-0.5,2.8-0.9,5.4-1.3,7.9c-0.1,0-0.1,0-0.2,0
		c-0.3-1.4-0.6-2.7-0.9-4.1c-0.1,0-0.1,0-0.2,0c-0.4,2.6-0.8,5.1-1.3,7.7c-0.6-1.3-0.6-2.7-1.2-4.2c-0.5,2.8-0.9,5.3-1.3,7.8
		c-0.1,0-0.1,0-0.2,0c-0.3-3.1-0.6-6.1-1-9.2c-0.1,0-0.1,0-0.2,0C78,238.3,77.7,241.4,77.4,244.5z M68.3,72.8c-0.1,0-0.1,0-0.2,0
		c-0.3,1.4-0.6,2.8-0.9,4.1c-0.1,0-0.1,0-0.2,0c-0.4-2.7-0.9-5.3-1.3-8h-0.1c-0.3,1.4-0.6,2.8-0.9,4.2c-0.1,0-0.1,0-0.2,0
		c-0.4-2.6-0.9-5.2-1.3-7.9c-0.1,0-0.1,0-0.2,0c-0.3,1.4-0.6,2.8-0.9,4.2c-0.3-0.8-0.3-1.5-0.4-2.3c-0.1-0.7,0-1.4-0.5-2.3
		c-1,6.7,0.1,12.9,1.8,19.3c0.3-1.8,0.6-3.4,1-5c0.1,0,0.1,0,0.2,0c0.4,2.8,0.8,5.6,1.3,8.5c0.1,0,0.1,0,0.2,0
		c0.3-1.6,0.6-3.2,0.9-4.8c0.1,0,0.1,0,0.2,0c0.4,2.8,0.9,5.6,1.3,8.4c0.1,0,0.1,0,0.2,0c0.3-1.6,0.6-3.1,0.9-4.7c0.1,0,0.1,0,0.2,0
		c0.4,2.8,0.9,5.5,1.3,8.3c0.1,0,0.1,0,0.2,0c0.3-1.5,0.6-3,0.9-4.6c0.1,0,0.1,0,0.2,0c0.4,2.8,0.8,5.6,1.3,8.4c0.1,0,0.1,0,0.2,0
		c0.3-1.6,0.6-3.1,0.9-4.7c0.1,0,0.1,0,0.2,0c0.4,2.8,0.9,5.6,1.3,8.3c0.1,0,0.1,0,0.2,0c0.3-1.5,0.6-3,0.8-4.5c0.1,0,0.1,0,0.2,0
		c0.5,3.1,1,6.2,1.4,9.4c0.1,0,0.2,0,0.2,0c0.5-3.1,0.9-6.2,1.4-9.3c0.1,0,0.1,0,0.2,0c0.3,1.5,0.6,3,0.9,4.5c0.1,0,0.1,0,0.2,0
		c0.4-2.8,0.8-5.6,1.3-8.4c0.1,0,0.1,0,0.2,0c0.3,1.6,0.6,3.1,0.9,4.7c0.1,0,0.1,0,0.2,0c0.4-2.7,0.9-5.5,1.3-8.2c0.1,0,0.1,0,0.2,0
		c0.3,1.5,0.6,3,0.9,4.5c0.1,0,0.1,0,0.2,0c0.4-2.8,0.9-5.5,1.3-8.3c0.1,0,0.1,0,0.2,0c0.3,1.5,0.6,3.1,0.9,4.6c0.1,0,0.1,0,0.2,0
		c0.4-2.8,0.9-5.6,1.3-8.4h0.1c0.3,1.6,0.6,3.2,0.9,4.8c0.1,0,0.1,0,0.2,0c0.4-2.8,0.9-5.6,1.3-8.5c0.1,0,0.1,0,0.2,0
		c0.3,1.6,0.6,3.2,0.9,5c2-4.7,3-17.3,1.6-19c-0.2,1.4-0.4,2.9-0.5,4.3c-0.1,0-0.1,0-0.2,0c-0.3-1.4-0.6-2.7-0.9-4.1
		c-0.1,0-0.1,0-0.2,0c-0.4,2.6-0.9,5.2-1.3,7.8c-0.1,0-0.1,0-0.2,0c-0.3-1.4-0.6-2.8-0.9-4.2h-0.1c-0.4,2.7-0.9,5.3-1.3,8
		c-0.1,0-0.1,0-0.2,0c-0.3-1.4-0.6-2.8-0.9-4.2c-0.1,0-0.1,0-0.2,0c-0.4,2.6-0.9,5.3-1.3,7.9c-0.6-1.3-0.6-2.8-1.2-4.3
		c-0.5,2.8-0.9,5.4-1.3,8c-0.1,0-0.1,0-0.2,0c-0.3-1.4-0.6-2.7-0.9-4.1c-0.1,0-0.1,0-0.2,0c-0.4,2.6-0.8,5.2-1.3,7.7
		c-0.1,0-0.1,0-0.2,0c-0.3-1.3-0.6-2.7-0.9-4c-0.1,0-0.1,0-0.2,0c-0.4,2.5-0.8,5-1.3,7.5c-0.1,0-0.1,0-0.2,0c-0.3-3-0.6-6.1-0.9-9.1
		c-0.1,0-0.1,0-0.2,0c-0.3,3-0.6,6.1-0.9,9.1c-0.1,0-0.1,0-0.2,0c-0.4-2.6-0.8-5.1-1.2-7.7c-0.1,0-0.1,0-0.2,0
		c-0.3,1.4-0.6,2.8-1,4.6c-0.5-3-0.9-5.6-1.3-8.2c-0.1,0-0.1,0-0.2,0c-0.3,1.3-0.6,2.6-0.8,3.9c-0.1,0-0.1,0-0.2,0
		c-0.4-2.6-0.9-5.1-1.3-7.7c-0.1,0-0.1,0-0.2,0c-0.3,1.4-0.6,2.7-0.9,4.1c-0.1,0-0.1,0-0.2,0C69.2,77.9,68.7,75.3,68.3,72.8z
		 M87.6,201.2c0.1,0,0.1,0,0.2,0c0.3,1.5,0.6,3.1,0.9,4.6c0.1,0,0.1,0,0.2,0c0.4-2.8,0.9-5.5,1.3-8.3c0.1,0,0.1,0,0.2,0
		c0.3,1.6,0.6,3.1,0.9,4.7c0.1,0,0.1,0,0.2,0c0.4-2.8,0.9-5.7,1.3-8.5c0.1,0,0.1,0,0.2,0c0.3,1.6,0.6,3.2,0.9,5
		c2-4.5,3-17.3,1.6-18.9c-0.2,1.4-0.4,2.8-0.6,4.2h-0.1c-0.3-1.4-0.6-2.8-0.9-4.2c-0.1,0-0.1,0-0.2,0c-0.4,2.6-0.9,5.3-1.3,7.9
		c-0.1,0-0.1,0-0.2,0c-0.3-1.4-0.6-2.8-0.9-4.2c-0.1,0-0.1,0-0.2,0c-0.4,2.6-0.9,5.2-1.3,7.8c-0.1,0-0.1,0-0.2,0
		c-0.3-1.4-0.6-2.7-0.9-4.1c-0.1,0-0.1,0-0.2,0c-0.4,2.6-0.9,5.2-1.3,7.9c-0.1,0-0.1,0-0.2,0c-0.3-1.4-0.6-2.7-0.9-4.1
		c-0.1,0-0.1,0-0.2,0c-0.4,2.6-0.9,5.2-1.3,7.8c-0.1,0-0.1,0-0.2,0c-0.3-1.3-0.6-2.7-0.9-4c-0.1,0-0.1,0-0.2,0
		c-0.4,2.6-0.8,5.2-1.2,7.7c-0.1,0-0.1,0-0.2,0c-0.3-1.3-0.6-2.7-0.9-4c-0.1,0-0.1,0-0.2,0c-0.4,2.6-0.9,5.2-1.3,7.7h-0.1
		c-0.3-3.1-0.7-6.1-1-9.2c-0.1,0-0.1,0-0.2,0c-0.3,3-0.6,6-0.9,9c-0.1,0-0.2,0-0.2,0c-0.4-2.6-0.8-5.1-1.3-7.7c-0.1,0-0.1,0-0.2,0
		c-0.3,1.4-0.6,2.7-0.9,4.1c-0.1,0-0.1,0-0.2,0c-0.4-2.6-0.9-5.1-1.3-7.9c-0.7,1.4-0.5,2.9-1.2,4.3c-0.4-2.7-0.9-5.3-1.3-7.8
		c-0.1,0-0.2,0-0.2,0c-0.3,1.3-0.6,2.6-0.8,3.9c-0.1,0-0.1,0-0.2,0c-0.4-2.6-0.8-5.1-1.3-7.7c-0.1,0-0.1,0-0.2,0
		c-0.3,1.4-0.6,2.7-0.8,4.1c-0.1,0-0.1,0-0.2,0c-0.4-2.6-0.9-5.2-1.3-7.8c-0.1,0-0.1,0-0.2,0c-0.3,1.3-0.6,2.7-0.9,4
		c-0.1,0-0.1,0-0.2,0c-0.4-2.6-0.9-5.2-1.3-7.9c-0.6,1.4-0.6,2.8-1.2,4.4c-0.1-1-0.2-1.7-0.3-2.4s0-1.4-0.5-2.3
		c-1,6.7,0.1,12.9,1.8,19.2c0.3-1.8,0.7-3.4,1-5c0.1,0,0.1,0,0.2,0c0.4,2.8,0.9,5.6,1.3,8.5c0.1,0,0.1,0,0.2,0
		c0.3-1.5,0.6-3.1,0.9-4.6c0.1,0,0.1,0,0.2,0c0.4,2.8,0.8,5.5,1.3,8.3c0.1,0,0.1,0,0.2,0c0.3-1.5,0.6-3.1,0.9-4.6c0.1,0,0.1,0,0.2,0
		c0.4,2.8,0.9,5.5,1.3,8.3c0.1,0,0.1,0,0.2,0c0.3-1.5,0.6-3,0.8-4.5c0.1,0,0.1,0,0.2,0c0.4,2.8,0.8,5.6,1.3,8.3c0.1,0,0.1,0,0.2,0
		c0.3-1.5,0.6-3.1,0.9-4.6c0.1,0,0.1,0,0.2,0c0.4,2.8,0.9,5.6,1.3,8.4c0.1,0,0.1,0,0.2,0c0.3-1.6,0.6-3.1,0.9-4.7c0.1,0,0.1,0,0.2,0
		c0.5,3.2,1,6.3,1.4,9.5c0.1,0,0.1,0,0.2,0c0.5-3.2,1-6.3,1.4-9.5c0.1,0,0.1,0,0.2,0c0.3,1.5,0.6,3,0.9,4.5c0.1,0,0.1,0,0.2,0
		c0.4-2.7,0.8-5.5,1.2-8.2c0.1,0,0.1,0,0.2,0c0.3,1.5,0.6,3,0.9,4.5c0.1,0,0.1,0,0.2,0c0.4-2.7,0.9-5.5,1.3-8.2c0.1,0,0.1,0,0.2,0
		c0.3,1.5,0.6,3,0.8,4.5c0.1,0,0.1,0,0.2,0C86.7,206.8,87.1,204,87.6,201.2z M160.3,159.2c0.1,0,0.1,0,0.2,0
		c0.3,1.6,0.6,3.2,0.9,4.8h0.1c0.4-2.9,0.9-5.7,1.3-8.6h0.1c0.3,1.6,0.6,3.2,1,5.1c2.6-8.7,2.7-17.2,1.6-19.2
		c-0.2,1.5-0.3,3-0.5,4.5c-0.5-1.4-0.6-2.8-1.2-4.4c-0.5,2.9-0.9,5.5-1.3,8.1c-0.1,0-0.1,0-0.2,0c-0.3-1.4-0.6-2.8-0.9-4.2
		c-0.1,0-0.1,0-0.2,0c-0.4,2.6-0.9,5.3-1.3,7.9c-0.1,0-0.1,0-0.2,0c-0.3-1.4-0.6-2.7-0.9-4.1c-0.1,0-0.1,0-0.2,0
		c-0.4,2.6-0.9,5.2-1.3,7.8c-0.1,0-0.1,0-0.2,0c-0.3-1.4-0.6-2.7-0.9-4.1c-0.1,0-0.1,0-0.2,0c-0.4,2.6-0.8,5.2-1.3,7.7
		c-0.1,0-0.1,0-0.2,0c-0.3-1.3-0.6-2.7-0.9-4c-0.1,0-0.1,0-0.2,0c-0.4,2.6-0.9,5.2-1.3,7.7c-0.1,0-0.1,0-0.2,0
		c-0.3-1.4-0.6-2.7-0.9-4.1c-0.1,0-0.1,0-0.2,0c-0.4,2.6-0.8,5.1-1.3,7.7c-0.1,0-0.1,0-0.2,0c-0.3-3-0.6-6.1-0.9-9.1
		c-0.1,0-0.2,0-0.2,0c-0.3,3.1-0.6,6.2-0.9,9.2c-0.1,0-0.1,0-0.2,0c-0.4-2.6-0.9-5.2-1.3-7.8c-0.1,0-0.1,0-0.2,0
		c-0.3,1.4-0.6,2.7-0.9,4.1c-0.1,0-0.1,0-0.2-0.1c-0.4-2.5-0.8-5.1-1.3-7.6c-0.1,0-0.2,0-0.2,0c-0.3,1.3-0.6,2.6-0.9,4
		c-0.1,0-0.1,0-0.2,0c-0.4-2.6-0.9-5.2-1.3-7.8c-0.1,0-0.1,0-0.2,0c-0.3,1.4-0.6,2.7-0.9,4.1c-0.1,0-0.1,0-0.2,0
		c-0.4-2.6-0.9-5.2-1.3-7.8c-0.1,0-0.1,0-0.2,0c-0.3,1.3-0.6,2.7-0.9,4c-0.1,0-0.1,0-0.2,0c-0.4-2.6-0.8-5.2-1.3-7.8
		c-0.1,0-0.1,0-0.2,0c-0.3,1.4-0.6,2.8-0.9,4.2c-0.1,0-0.1,0-0.2,0c-0.4-2.6-0.9-5.2-1.3-7.9c-0.1,0-0.1,0-0.2,0
		c-0.3,1.4-0.6,2.9-0.9,4.3h-0.1c-0.2-1.5-0.3-3-0.5-4.5c-1.3,6.5-0.1,12.7,1.6,19.2c0.4-1.9,0.7-3.6,1-5.2h0.1
		c0.4,2.8,0.9,5.6,1.3,8.4c0.1,0,0.1,0,0.2,0c0.3-1.5,0.6-2.9,0.8-4.4c0.1,0,0.2,0,0.3,0c0.4,2.7,0.8,5.4,1.2,8.1c0.1,0,0.1,0,0.2,0
		c0.3-1.5,0.6-3,0.9-4.5c0.1,0,0.1,0,0.2,0c0.4,2.8,0.9,5.5,1.3,8.3c0.1,0,0.1,0,0.2,0c0.3-1.5,0.6-3,0.9-4.6c0.1,0,0.1,0,0.2,0
		c0.4,2.7,0.8,5.5,1.2,8.2c0.1,0,0.1,0,0.2,0c0.3-1.5,0.6-3,0.9-4.5c0.1,0,0.1,0,0.2,0c0.4,2.8,0.8,5.5,1.3,8.3c0.1,0,0.1,0,0.2,0
		c0.3-1.5,0.6-3,0.9-4.6c0.1,0,0.1,0,0.2,0c0.5,3.1,0.9,6.2,1.4,9.3c0.1,0,0.2,0,0.2,0c0.5-3.1,0.9-6.3,1.4-9.4c0.1,0,0.1,0,0.2,0
		c0.3,1.5,0.6,3.1,0.9,4.6c0.1,0,0.1,0,0.2,0c0.4-2.8,0.9-5.5,1.3-8.3c0.1,0,0.1,0,0.2,0c0.3,1.5,0.6,3,0.9,4.5c0.1,0,0.2,0,0.2,0
		c0.4-2.8,0.8-5.6,1.3-8.4c0.1,0,0.1,0,0.2,0c0.3,1.6,0.6,3.1,0.9,4.7c0.1,0,0.1,0,0.2,0c0.4-2.8,0.9-5.5,1.3-8.3c0.1,0,0.1,0,0.2,0
		c0.3,1.5,0.6,3,0.9,4.6c0.1,0,0.1,0,0.2,0C159.4,164.8,159.8,162,160.3,159.2z M118.8,244c-0.1,0-0.2,0-0.2,0
		c-0.4,2.5-0.8,5.1-1.3,7.6c-0.6-1.3-0.6-2.7-1.2-4.3c-0.5,2.8-0.9,5.4-1.3,7.9c-0.1,0-0.1,0-0.2,0c-0.3-3-0.6-6.1-0.9-9.1
		c-0.1,0-0.2,0-0.2,0c-0.3,3.1-0.6,6.2-0.9,9.3c-0.1,0-0.1,0-0.2,0c-0.4-2.6-0.9-5.2-1.3-7.8c-0.1,0-0.1,0-0.2,0
		c-0.3,1.4-0.6,2.7-0.9,4.1c-0.1,0-0.1,0-0.2,0c-0.4-2.6-0.9-5.2-1.3-7.8c-0.1,0-0.1,0-0.2,0c-0.3,1.3-0.6,2.7-0.9,4
		c-0.1,0-0.1,0-0.2,0c-0.4-2.6-0.8-5.2-1.3-7.7c-0.1,0-0.1,0-0.2,0c-0.3,1.4-0.6,2.7-0.9,4.1c-0.1,0-0.1,0-0.2,0
		c-0.4-2.6-0.9-5.2-1.3-7.8c-0.1,0-0.1,0-0.2,0c-0.3,1.4-0.6,2.7-0.9,4.1c-0.1,0-0.1,0-0.2,0c-0.4-2.6-0.9-5.2-1.3-7.9
		c-0.1,0-0.1,0-0.2,0c-0.3,1.4-0.6,2.8-0.9,4.2c-0.1,0-0.1,0-0.2,0c-0.4-2.6-0.9-5.2-1.3-7.9c-0.1,0-0.1,0-0.2,0
		c-0.3,1.4-0.6,2.8-0.9,4.3c-0.1,0-0.1,0-0.2,0c-0.2-1.5-0.3-3-0.5-4.6c-1.3,2.6-0.4,13.3,1.6,19.2c0.5-1.7,0.5-3.4,1.1-5.1
		c0.5,3.1,0.9,5.9,1.3,8.7c0.1,0,0.1,0,0.2,0c0.3-1.6,0.6-3.2,0.9-4.8c0.1,0,0.1,0,0.2,0c0.4,2.8,0.9,5.6,1.3,8.4c0.1,0,0.1,0,0.2,0
		c0.3-1.5,0.6-3,0.9-4.5c0.1,0,0.1,0,0.2,0c0.4,2.8,0.9,5.5,1.3,8.3c0.1,0,0.1,0,0.2,0c0.3-1.5,0.6-3,0.9-4.6c0.1,0,0.1,0,0.2,0
		c0.4,2.7,0.8,5.5,1.2,8.2c0.1,0,0.2,0,0.2,0c0.3-1.5,0.6-3,0.9-4.5c0.1,0,0.1,0,0.2,0c0.4,2.8,0.9,5.5,1.3,8.3c0.1,0,0.1,0,0.2,0
		c0.3-1.5,0.6-3,0.8-4.5c0.1,0,0.1,0,0.2,0c0.5,3.1,0.9,6.3,1.4,9.4c0.1,0,0.2,0,0.2,0c0.5-3.1,0.9-6.3,1.4-9.7
		c0.7,1.7,0.6,3.4,1.2,4.8c0.4-2.8,0.9-5.6,1.3-8.3c0.1,0,0.1,0,0.2,0c0.3,1.5,0.6,3,0.8,4.5c0.1,0,0.2,0,0.2,0
		c0.4-2.7,0.8-5.4,1.2-8.1c0.1,0,0.1,0,0.2,0c0.3,1.5,0.6,3,0.9,4.6c0.1,0,0.1,0,0.2,0c0.4-2.8,0.9-5.6,1.3-8.3c0.1,0,0.1,0,0.2,0
		c0.3,1.5,0.6,3,0.8,4.5c0.1,0,0.2,0,0.2,0c0.4-2.7,0.8-5.5,1.2-8.2c0.1,0,0.1,0,0.2,0c0.3,1.6,0.6,3.1,0.9,4.7h0.1
		c0.4-2.9,0.9-5.7,1.3-8.6h0.1c0.3,1.6,0.6,3.3,1,5.2c1.7-6.5,2.9-12.7,1.6-19.2c-0.2,1.5-0.3,3-0.5,4.5c-0.1,0-0.1,0-0.2,0
		c-0.3-1.4-0.6-2.9-0.9-4.3c-0.1,0-0.1,0-0.2,0c-0.4,2.6-0.9,5.2-1.3,7.8c-0.1,0-0.1,0-0.2,0c-0.3-1.4-0.6-2.8-0.9-4.2
		c-0.1,0-0.1,0-0.2,0c-0.4,2.6-0.9,5.2-1.3,7.8c-0.1,0-0.1,0-0.2,0c-0.3-1.3-0.6-2.6-0.8-4c-0.1,0-0.1,0-0.2,0
		c-0.4,2.6-0.8,5.2-1.3,7.8c-0.1,0-0.1,0-0.2,0c-0.3-1.4-0.6-2.7-0.8-4.1c-0.1,0-0.1,0-0.2,0c-0.4,2.6-0.9,5.2-1.3,7.8
		c-0.1,0-0.1,0-0.2,0C119.3,246.7,119,245.4,118.8,244z M107.4,95c-0.1,0-0.1,0-0.2,0c-0.4-2.6-0.8-5.2-1.3-7.7c-0.1,0-0.1,0-0.2,0
		c-0.3,1.4-0.6,2.7-0.9,4.1c-0.1,0-0.1,0-0.2,0c-0.4-2.6-0.9-5.3-1.3-7.9c-0.1,0-0.1,0-0.2,0c-0.3,1.4-0.6,2.8-0.9,4.2
		c-0.1,0-0.1,0-0.2,0c-0.4-2.6-0.8-5.3-1.3-7.9c-0.1,0-0.1,0-0.2,0c-0.3,1.4-0.6,2.8-0.9,4.2c-0.1,0-0.1,0-0.2,0
		c-0.4-2.7-0.9-5.3-1.3-8H98c-0.3,1.4-0.6,2.8-0.9,4.3c-0.1,0-0.1,0-0.2,0c-0.2-1.4-0.3-2.9-0.5-4.3c-0.1,0-0.2,0-0.3,0
		c-1,6.4,0.1,12.7,1.9,19.1c0.4-1.8,0.7-3.5,1-5.1h0.1c0.4,2.8,0.9,5.7,1.3,8.5c0.1,0,0.1,0,0.2,0c0.3-1.6,0.6-3.1,0.9-4.7
		c0.1,0,0.1,0,0.2,0c0.4,2.8,0.8,5.6,1.3,8.3c0.1,0,0.1,0,0.2,0c0.3-1.6,0.6-3.1,0.9-4.7h0.1c0.4,2.8,0.9,5.5,1.3,8.3
		c0.1,0,0.1,0,0.2,0c0.3-1.5,0.6-3,0.9-4.6c0.1,0,0.1,0,0.2,0c0.4,2.8,0.8,5.6,1.3,8.4c0.1,0,0.1,0,0.2,0c0.3-1.5,0.6-3,0.9-4.5
		c0.1,0,0.1,0,0.2,0c0.4,2.7,0.9,5.4,1.3,8.2c0.1,0,0.1,0,0.2,0c0.3-1.5,0.6-2.9,0.8-4.4c0.1,0,0.2,0,0.2,0c0.5,3.1,0.9,6.3,1.4,9.4
		c0.1,0,0.2,0,0.2,0c0.5-3.2,0.9-6.3,1.4-9.5c0.1,0,0.1,0,0.2,0c0.3,1.5,0.6,3.1,0.9,4.6c0.1,0,0.1,0,0.2,0c0.4-2.8,0.9-5.6,1.3-8.4
		c0.1,0,0.1,0,0.2,0c0.3,1.6,0.6,3.1,0.9,4.7c0.1,0,0.1,0,0.2,0c0.4-2.7,0.8-5.4,1.3-8.1c0.1,0,0.2,0,0.2,0c0.3,1.5,0.5,3,0.8,4.4
		c0.1,0,0.1,0,0.2,0c0.4-2.8,0.9-5.6,1.3-8.4h0.1c0.3,1.5,0.6,3,0.9,4.5c0.1,0,0.2,0,0.3,0c0.4-2.7,0.8-5.5,1.2-8.2
		c0.1,0,0.1,0,0.2,0c0.3,1.6,0.6,3.1,0.9,4.7c0.1,0,0.1,0,0.2,0c0.4-2.8,0.9-5.7,1.3-8.5h0.1c0.3,1.7,0.6,3.3,0.9,5
		c0.8-3.2,1.8-6.3,2.1-9.5c0.3-3.1,0.4-6.3-0.2-9.5c-0.1,0-0.2,0-0.3,0c-0.2,1.4-0.3,2.9-0.5,4.3c-0.5-1.4-0.6-2.8-1.2-4.4
		c-0.5,2.8-0.9,5.5-1.3,8.1c-0.1,0-0.1,0-0.2,0c-0.3-1.4-0.6-2.8-0.9-4.2c-0.1,0-0.1,0-0.2,0c-0.4,2.6-0.9,5.2-1.3,7.9
		c-0.1,0-0.1,0-0.2,0c-0.3-1.4-0.6-2.8-0.9-4.2c-0.1,0-0.1,0-0.2,0c-0.4,2.7-0.9,5.3-1.3,8c-0.1,0-0.1,0-0.2,0
		c-0.3-1.4-0.6-2.7-0.8-4.1c-0.1,0-0.2,0-0.2,0c-0.4,2.6-0.9,5.1-1.3,7.7c-0.1,0-0.1,0-0.2,0c-0.3-1.4-0.6-2.7-0.8-4.1
		c-0.1,0-0.1,0-0.2,0c-0.4,2.6-0.9,5.1-1.3,7.7c-0.1,0-0.1,0-0.2,0c-0.3-1.3-0.6-2.6-0.8-3.9c-0.1,0-0.2,0-0.2,0
		c-0.4,2.6-0.8,5.1-1.3,7.7c-0.1,0-0.1,0-0.2,0c-0.3-3.1-0.6-6.2-0.9-9.2c-0.1,0-0.2,0-0.2,0c-0.3,3.1-0.6,6.2-0.9,9.2
		c-0.1,0-0.1,0-0.2,0c-0.4-2.6-0.8-5.1-1.3-7.7c-0.1,0-0.1,0-0.2,0c-0.3,1.3-0.6,2.7-0.9,4c-0.1,0-0.1,0-0.2,0
		c-0.4-2.6-0.9-5.2-1.3-7.7c-0.1,0-0.2,0-0.2,0C108,92.4,107.7,93.7,107.4,95z M165.8,65.1c-0.1,0-0.2,0-0.3,0
		c-0.2,1.4-0.3,2.9-0.5,4.3c-0.6-1.4-0.6-2.8-1.2-4.4c-0.5,2.9-0.9,5.6-1.4,8.2c-0.1,0-0.1,0-0.2,0c-0.3-1.4-0.6-2.8-0.9-4.2
		c-0.1,0-0.1,0-0.2,0c-0.4,2.6-0.9,5.2-1.3,7.7c-0.1,0-0.1,0-0.2,0c-0.3-1.4-0.6-2.7-0.9-4.1c-0.1,0-0.1,0-0.2,0
		c-0.4,2.6-0.9,5.2-1.3,8.1c-0.6-1.6-0.5-3-1.2-4.4c-0.5,2.8-0.9,5.4-1.3,8c-0.5-1.4-0.6-2.8-1.2-4.4c-0.5,2.8-0.9,5.4-1.3,8
		c-0.1,0-0.1,0-0.2,0c-0.3-1.4-0.6-2.7-0.9-4.1c-0.1,0-0.1,0-0.2,0c-0.4,2.6-0.8,5.1-1.3,7.7c-0.1,0-0.1,0-0.2,0
		c-0.3-3-0.6-6.1-0.9-9.1c-0.1,0-0.2,0-0.2,0c-0.3,3.1-0.6,6.1-0.9,9.2c-0.1,0-0.1,0-0.2,0c-0.4-2.6-0.8-5.2-1.3-7.7
		c-0.1,0-0.1,0-0.2,0c-0.3,1.3-0.6,2.7-0.9,4c-0.1,0-0.1,0-0.2-0.1c-0.4-2.5-0.8-5.1-1.3-7.6c-0.1,0-0.1,0-0.2,0
		c-0.3,1.3-0.6,2.7-0.9,4c-0.1,0-0.1,0-0.2,0c-0.4-2.6-0.9-5.2-1.3-7.8c-0.1,0-0.1,0-0.2,0c-0.3,1.4-0.6,2.7-0.9,4.1
		c-0.1,0-0.1,0-0.2-0.1c-0.4-2.6-0.9-5.2-1.3-7.8c-0.1,0-0.1,0-0.2,0c-0.3,1.4-0.6,2.7-0.9,4.1c-0.1,0-0.1,0-0.2,0
		c-0.4-2.6-0.9-5.2-1.3-7.8c-0.1,0-0.1,0-0.2,0c-0.3,1.3-0.6,2.7-0.8,4c-0.1,0-0.1,0-0.2,0c-0.4-2.6-0.9-5.2-1.3-7.8
		c-0.1,0-0.1,0-0.2,0c-0.3,1.3-0.6,2.6-0.9,3.9c-0.5-1.4-0.6-2.8-0.8-4.2c-1.2,6.4,0,12.7,1.7,19.2c0.4-1.9,0.7-3.5,1-5.1
		c0.1,0,0.1,0,0.2,0c0.4,2.8,0.9,5.6,1.3,8.4c0.1,0,0.1,0,0.2,0c0.3-1.5,0.6-3,0.9-4.5c0.1,0,0.2,0,0.2,0c0.4,2.7,0.8,5.5,1.3,8.2
		c0.1,0,0.1,0,0.2,0c0.3-1.6,0.6-3.1,0.9-4.7c0.1,0,0.1,0,0.2,0c0.4,2.8,0.9,5.5,1.3,8.3c0.1,0,0.1,0,0.2,0c0.3-1.5,0.6-3,0.9-4.5
		c0.1,0,0.1,0,0.2,0c0.4,2.7,0.8,5.5,1.3,8.2c0.1,0,0.1,0,0.2,0c0.3-1.5,0.6-3,0.8-4.5c0.1,0,0.1,0,0.2,0c0.4,2.7,0.9,5.5,1.3,8.2
		c0.6-1.5,0.6-3.1,1.2-4.8c0.5,3.4,1,6.5,1.4,9.6c0.1,0,0.2,0,0.2,0c0.5-3.1,0.9-6.3,1.4-9.4c0.1,0,0.1,0,0.2,0
		c0.3,1.5,0.6,3,0.9,4.5c0.1,0,0.1,0,0.2,0c0.4-2.8,0.9-5.5,1.3-8.3c0.1,0,0.1,0,0.2,0c0.3,1.5,0.6,3,0.9,4.6c0.1,0,0.2,0,0.2,0
		c0.4-2.7,0.8-5.5,1.3-8.2c0.1,0,0.1,0,0.2,0c0.3,1.5,0.6,3,0.9,4.6c0.1,0,0.1,0,0.2,0c0.4-2.8,0.9-5.5,1.3-8.3c0.1,0,0.1,0,0.2,0
		c0.3,1.6,0.6,3.1,0.9,4.7c0.1,0,0.1,0,0.2,0c0.4-2.8,0.9-5.6,1.3-8.5c0.1,0,0.1,0,0.2,0c0.3,1.6,0.6,3.2,0.9,4.8h0.1
		c0.4-2.8,0.9-5.6,1.3-8.5c0.1,0,0.1,0,0.2,0c0.3,1.6,0.6,3.2,0.9,5C165.7,77.7,166.8,71.5,165.8,65.1z M99.1,204.6
		c0.1,0,0.1,0,0.2,0c0.4,2.8,0.9,5.6,1.3,8.5c0.1,0,0.1,0,0.2,0c0.3-1.6,0.6-3.1,0.9-4.7c0.1,0,0.1,0,0.2,0c0.4,2.8,0.8,5.5,1.3,8.3
		c0.1,0,0.1,0,0.2,0c0.3-1.5,0.6-3.1,0.9-4.6c0.1,0,0.1,0,0.2,0c0.4,2.7,0.8,5.5,1.3,8.2c0.1,0,0.2,0,0.2,0c0.3-1.5,0.6-3,0.8-4.5
		c0.1,0,0.1,0,0.2,0c0.4,2.8,0.9,5.6,1.3,8.4c0.1,0,0.1,0,0.2,0c0.3-1.5,0.6-3,0.9-4.5c0.1,0,0.1,0,0.2,0c0.4,2.7,0.8,5.4,1.3,8.1
		c0.1,0,0.1,0,0.2,0c0.3-1.5,0.6-3,0.9-4.5c0.1,0,0.1,0,0.2,0c0.5,3.1,0.9,6.3,1.4,9.4c0.1,0,0.2,0,0.2,0c0.5-3.1,0.9-6.2,1.4-9.3
		c0.1,0,0.1,0,0.2,0c0.3,1.5,0.6,3,0.9,4.4c0.1,0,0.1,0,0.2,0c0.4-2.7,0.8-5.5,1.3-8.2c0.1,0,0.1,0,0.2,0c0.3,1.5,0.6,3,0.9,4.5
		c0.1,0,0.1,0,0.2,0c0.4-2.8,0.8-5.5,1.3-8.3c0.1,0,0.1,0,0.2,0c0.3,1.5,0.6,3,0.8,4.6c0.1,0,0.1,0,0.2,0c0.4-2.8,0.9-5.5,1.3-8.3
		c0.1,0,0.1,0,0.2,0c0.3,1.5,0.6,3.1,0.9,4.6c0.1,0,0.2,0,0.2,0c0.4-2.8,0.8-5.6,1.3-8.4c0.1,0,0.1,0,0.2,0c0.3,1.6,0.6,3.1,0.9,4.7
		c0.1,0,0.1,0,0.2,0c0.4-2.8,0.9-5.7,1.3-8.5h0.1c0.3,1.7,0.6,3.3,0.9,5.1c1.9-4.7,3-17,1.6-19c-0.2,1.4-0.3,2.8-0.5,4.1
		c-0.1,0-0.1,0-0.2,0c-0.3-1.3-0.6-2.7-0.9-4.4c-0.5,3-0.9,5.7-1.4,8.3c-0.1,0-0.1,0-0.2,0c-0.3-1.4-0.6-2.8-0.9-4.3
		c-0.1,0-0.1,0-0.2,0c-0.4,2.6-0.9,5.2-1.3,7.8c-0.1,0-0.1,0-0.2,0c-0.3-1.4-0.6-2.7-0.9-4.1h-0.1c-0.4,2.6-0.9,5.3-1.3,7.9
		c-0.1,0-0.1,0-0.2,0c-0.3-1.4-0.6-2.7-0.9-4.1c-0.1,0-0.1,0-0.2,0c-0.4,2.6-0.9,5.1-1.3,7.7c-0.1,0-0.1,0-0.2,0
		c-0.3-1.3-0.6-2.7-0.8-4c-0.1,0-0.1,0-0.2,0c-0.4,2.5-0.8,5.1-1.3,7.6c-0.1,0-0.2,0-0.2,0c-0.3-1.3-0.6-2.6-0.8-3.9
		c-0.1,0-0.1,0-0.2,0c-0.4,2.6-0.8,5.1-1.3,7.7c-0.1,0-0.1,0-0.2,0c-0.3-3.1-0.6-6.2-0.9-9.2c-0.1,0-0.2,0-0.2,0
		c-0.3,3.1-0.6,6.1-0.9,9.2c-0.1,0-0.1,0-0.2,0c-0.4-2.6-0.8-5.1-1.3-7.7c-0.1,0-0.1,0-0.2,0c-0.3,1.4-0.6,2.7-0.9,4.1
		c-0.1,0-0.1,0-0.2,0c-0.4-2.6-0.9-5.2-1.3-7.8c-0.1,0-0.1,0-0.2,0c-0.3,1.4-0.6,2.7-0.9,4.1c-0.1,0-0.1,0-0.2,0
		c-0.4-2.6-0.8-5.1-1.3-7.7c-0.1,0-0.1,0-0.2,0c-0.3,1.3-0.6,2.7-0.9,4c-0.1,0-0.1,0-0.2,0c-0.4-2.7-0.9-5.3-1.3-8h-0.1
		c-0.3,1.4-0.6,2.8-0.9,4.3c-0.1,0-0.1,0-0.2-0.1c-0.4-2.6-0.9-5.2-1.3-7.9c-0.1,0-0.1,0-0.2,0c-0.3,1.4-0.6,2.8-0.9,4.2
		c-0.1,0-0.1,0-0.2,0c-0.4-2.6-0.9-5.3-1.3-7.9c-0.1,0-0.1,0-0.2,0c-0.3,1.4-0.6,2.8-0.9,4.2c-0.1,0-0.1,0-0.2,0
		c-0.2-1.4-0.3-2.8-0.5-4.4c-1.3,2.6-0.3,13.8,1.6,19.2C98.5,207.8,98.8,206.2,99.1,204.6z M61.5,141.5c-1.2,6.5-0.2,12.7,1.6,19.1
		c0.3-1.8,0.6-3.4,0.9-5c0.1,0,0.1,0,0.2,0c0.4,2.8,0.8,5.6,1.3,8.3c0.1,0,0.1,0,0.2,0c0.3-1.5,0.6-3.1,0.9-4.6c0.1,0,0.1,0,0.2,0
		c0.4,2.8,0.8,5.6,1.3,8.4c0.1,0,0.1,0,0.2,0c0.3-1.6,0.6-3.1,0.9-4.7c0.1,0,0.1,0,0.2,0c0.4,2.8,0.8,5.5,1.3,8.3c0.1,0,0.1,0,0.2,0
		c0.3-1.5,0.6-3,0.9-4.5c0.1,0,0.1,0,0.2,0c0.4,2.7,0.9,5.5,1.3,8.2c0.1,0,0.1,0,0.2,0c0.3-1.5,0.6-3,0.9-4.5c0.1,0,0.1,0,0.2,0
		c0.4,2.8,0.9,5.6,1.3,8.4c0.1,0,0.1,0,0.2,0c0.3-1.6,0.6-3.1,0.9-4.7c0.1,0,0.1,0,0.2,0c0.5,3.1,0.9,6.3,1.4,9.4c0.1,0,0.2,0,0.2,0
		c0.5-3.1,1-6.2,1.4-9.4c0.1,0,0.1,0,0.2,0c0.3,1.5,0.6,3,0.9,4.5c0.1,0,0.1,0,0.2,0c0.4-2.8,0.8-5.6,1.3-8.4c0.1,0,0.1,0,0.2,0
		c0.3,1.5,0.6,3,0.9,4.5c0.1,0,0.2,0,0.2,0c0.4-2.8,0.8-5.5,1.3-8.3c0.1,0,0.1,0,0.2,0c0.3,1.6,0.6,3.1,0.9,4.7c0.1,0,0.1,0,0.2,0
		c0.4-2.8,0.8-5.6,1.3-8.4c0.1,0,0.1,0,0.2,0c0.3,1.6,0.6,3.1,0.9,4.7c0.1,0,0.1,0,0.2,0c0.4-2.8,0.9-5.6,1.3-8.5c0.1,0,0.1,0,0.2,0
		c0.3,1.6,0.6,3.2,0.9,4.8h0.1c0.4-2.9,0.9-5.7,1.3-8.6h0.1c0.3,1.6,0.6,3.3,0.9,5c2-4,3-17.1,1.6-18.9c-0.2,1.5-0.4,2.9-0.6,4.4H95
		c-0.3-1.4-0.6-2.8-0.9-4.2c-0.1,0-0.1,0-0.2,0c-0.4,2.6-0.9,5.2-1.3,7.9c-0.5-1.4-0.7-2.8-1.2-4.4c-0.5,2.8-0.9,5.4-1.3,8
		c-0.1,0-0.1,0-0.2,0c-0.3-1.3-0.6-2.7-0.8-4c-0.1,0-0.1,0-0.2,0c-0.4,2.6-0.8,5.2-1.3,7.9c-0.5-1.3-0.6-2.8-1.2-4.3
		c-0.5,2.8-0.9,5.4-1.4,8.3c-0.5-1.6-0.5-3-1.2-4.6c-0.5,2.9-0.9,5.4-1.3,8c-0.6-1.3-0.6-2.7-1.2-4.3c-0.5,2.8-0.9,5.3-1.3,7.9
		c-0.1,0-0.1,0-0.2,0c-0.3-3-0.6-6.1-1-9.1c-0.1,0-0.1,0-0.2,0c-0.3,3-0.6,6.1-0.9,9.1c-0.1,0-0.1,0-0.2,0c-0.4-2.6-0.8-5.1-1.3-7.7
		c-0.1,0-0.1,0-0.2,0c-0.3,1.4-0.6,2.7-0.9,4.1c-0.1,0-0.1,0-0.2,0c-0.4-2.5-0.8-5.1-1.3-7.6c-0.1,0-0.2,0-0.2,0
		c-0.3,1.3-0.6,2.6-0.8,3.9c-0.1,0-0.1,0-0.2,0c-0.4-2.6-0.8-5.1-1.3-7.7c-0.1,0-0.1,0-0.2,0c-0.3,1.4-0.6,2.7-0.9,4.1
		c-0.1,0-0.1,0-0.2,0c-0.4-2.6-0.9-5.2-1.3-7.8c-0.1,0-0.1,0-0.2,0c-0.3,1.4-0.6,2.7-0.8,4.1c-0.1,0-0.1,0-0.2,0
		c-0.4-2.6-0.9-5.3-1.3-7.9h-0.1c-0.3,1.4-0.6,2.8-0.9,4.2c-0.1,0-0.1,0-0.2,0c-0.4-2.6-0.9-5.2-1.3-7.8c-0.1,0-0.1,0-0.2,0
		c-0.3,1.4-0.6,2.8-0.9,4.2c-0.1,0-0.1,0-0.2,0C61.8,144.4,61.6,142.9,61.5,141.5z M65.5,125.7c0.1,0,0.1,0,0.2,0
		c0.3-1.5,0.6-3.1,0.9-4.6c0.1,0,0.1,0,0.2,0c0.4,2.8,0.9,5.5,1.3,8.3c0.1,0,0.1,0,0.2,0c0.3-1.5,0.6-3,0.9-4.5c0.1,0,0.1,0,0.2,0
		c0.4,2.7,0.8,5.5,1.3,8.2c0.1,0,0.1,0,0.2,0c0.3-1.5,0.6-3,0.9-4.6c0.1,0,0.1,0,0.2,0c0.4,2.8,0.8,5.6,1.3,8.3c0.1,0,0.1,0,0.2,0
		c0.3-1.5,0.6-3,0.9-4.6c0.1,0,0.1,0,0.2,0c0.4,2.8,0.9,5.6,1.3,8.3c0.1,0,0.1,0,0.2,0c0.3-1.5,0.6-3.1,0.9-4.6c0.1,0,0.1,0,0.2,0
		c0.5,3.1,0.9,6.3,1.4,9.4c0.1,0,0.1,0,0.2,0c0.5-3.1,1-6.3,1.4-9.4c0.1,0,0.1,0,0.2,0c0.3,1.5,0.6,3,0.9,4.5c0.1,0,0.2,0,0.2,0
		c0.4-2.7,0.8-5.5,1.2-8.2c0.1,0,0.1,0,0.2,0c0.3,1.5,0.6,3,0.9,4.5c0.1,0,0.1,0,0.2,0c0.4-2.8,0.8-5.5,1.3-8.3c0.1,0,0.1,0,0.2,0
		c0.3,1.5,0.6,3,0.9,4.5c0.1,0,0.1,0,0.2,0c0.4-2.8,0.9-5.5,1.3-8.3c0.1,0,0.1,0,0.2,0c0.3,1.6,0.6,3.2,0.9,4.7c0.1,0,0.1,0,0.2,0
		c0.4-2.8,0.9-5.6,1.3-8.4c0.1,0,0.1,0,0.2,0c0.3,1.6,0.6,3.1,0.9,4.7c0.1,0,0.1,0,0.2,0c0.4-2.8,0.9-5.6,1.3-8.4c0.1,0,0.1,0,0.2,0
		c0.3,1.6,0.6,3.2,0.9,5.1c1.7-6.5,3-12.7,1.6-19.1c-0.2,1.5-0.4,3-0.6,4.8c-0.4-1.8-0.7-3.2-1-4.7c-0.1,0-0.1,0-0.2,0
		c-0.4,2.7-0.9,5.3-1.3,8c-0.1,0-0.1,0-0.2,0c-0.3-1.4-0.6-2.8-0.9-4.2c-0.1,0-0.1,0-0.2,0c-0.4,2.6-0.9,5.3-1.3,7.9
		c-0.1,0-0.1,0-0.2,0c-0.3-1.4-0.6-2.8-0.9-4.2c-0.1,0-0.1,0-0.2,0c-0.4,2.6-0.9,5.2-1.3,7.8c-0.1,0-0.1,0-0.2,0
		c-0.3-1.3-0.6-2.6-0.9-4c-0.1,0-0.1,0-0.2,0c-0.4,2.6-0.9,5.1-1.3,7.7c-0.1,0-0.1,0-0.2,0c-0.3-1.3-0.6-2.7-0.9-4
		c-0.1,0-0.1,0-0.2,0c-0.4,2.6-0.8,5.2-1.3,7.7c-0.1,0-0.1,0-0.2,0c-0.3-1.3-0.6-2.6-0.9-4c-0.1,0-0.1,0-0.2,0
		c-0.4,2.5-0.9,5.1-1.3,7.6c-0.1,0-0.1,0-0.2,0c-0.3-3-0.6-6-1-9.1c-0.1,0-0.2,0-0.2,0c-0.3,3-0.6,5.9-0.9,8.9c-0.1,0-0.2,0-0.2,0
		c-0.4-2.5-0.8-5-1.2-7.5c-0.1,0-0.1,0-0.2,0c-0.3,1.4-0.6,2.7-0.9,4.1c-0.1,0-0.1,0-0.2,0c-0.4-2.6-0.9-5.2-1.3-7.8
		c-0.1,0-0.1,0-0.2,0c-0.3,1.3-0.6,2.7-0.9,4c-0.1,0-0.1,0-0.2,0c-0.4-2.6-0.8-5.1-1.2-7.7c-0.1,0-0.1,0-0.2,0
		c-0.3,1.3-0.6,2.6-0.8,3.9c-0.1,0-0.1,0-0.2,0c-0.4-2.5-0.8-5.1-1.3-7.6c-0.1,0-0.1,0-0.2,0c-0.3,1.3-0.6,2.7-0.9,4
		c-0.1,0-0.1,0-0.2-0.1c-0.4-2.6-0.9-5.2-1.3-7.8c-0.1,0-0.1,0-0.2,0c-0.3,1.4-0.6,2.7-0.9,4.1c-0.1,0-0.1,0-0.2,0
		c-0.4-2.6-0.9-5.2-1.3-7.8c-0.1,0-0.1,0-0.2,0c-0.3,1.3-0.6,2.7-0.8,4c-0.1,0-0.1,0-0.2-0.1c-0.2-1.4-0.4-2.8-0.6-4.5
		c-1.2,3.2-0.2,14.4,1.7,19.2c0.3-1.7,0.6-3.3,0.9-5c0.1,0,0.1,0,0.2,0C64.6,120.1,65.1,122.9,65.5,125.7z M163.9,198.6
		c0.1,0,0.1,0,0.2-0.1c0.7-3.1,1.5-6.2,2-9.3c0.5-4.2,0.1-8.6-0.5-9.4c-0.2,1.4-0.3,2.9-0.5,4.3c-0.1,0-0.1,0-0.2,0
		c-0.3-1.4-0.6-2.8-0.9-4.2c-0.1,0-0.1,0-0.2,0c-0.4,2.7-0.9,5.3-1.3,8h-0.1c-0.3-1.4-0.6-2.8-0.9-4.2c-0.1,0-0.1,0-0.2,0
		c-0.4,2.6-0.9,5.2-1.3,7.9c-0.1,0-0.1,0-0.2,0c-0.3-1.4-0.6-2.8-0.9-4.2c-0.1,0-0.1,0-0.2,0c-0.4,2.7-0.9,5.3-1.3,8h-0.1
		c-0.3-1.4-0.6-2.7-0.9-4.1c-0.1,0-0.1,0-0.2,0c-0.4,2.5-0.8,5.1-1.3,7.6c-0.1,0-0.1,0-0.2,0c-0.3-1.3-0.6-2.6-0.8-3.9
		c-0.1,0-0.1,0-0.2,0c-0.4,2.6-0.8,5.1-1.3,7.7c-0.1,0-0.1,0-0.2,0c-0.3-1.4-0.6-2.7-0.9-4.1c-0.1,0-0.1,0-0.2,0
		c-0.4,2.6-0.8,5.2-1.3,7.8c-0.1,0-0.1,0-0.2,0c-0.3-3.1-0.6-6.1-0.9-9.2c-0.1,0-0.2,0-0.2,0c-0.3,3.1-0.6,6.1-0.9,9.2
		c-0.1,0-0.1,0-0.2,0c-0.4-2.6-0.9-5.2-1.3-8.1c-0.5,1.7-0.5,3.1-1.2,4.6c-0.5-2.8-0.9-5.4-1.3-8c-0.1,0-0.1,0-0.2,0
		c-0.3,1.3-0.6,2.7-0.9,4c-0.1,0-0.1,0-0.2,0c-0.4-2.6-0.8-5.2-1.3-7.8c-0.6,1.3-0.6,2.8-1.2,4.3c-0.5-2.8-0.9-5.5-1.3-8.1
		c-0.1,0-0.1,0-0.2,0c-0.3,1.4-0.6,2.8-0.9,4.2c-0.1,0-0.1,0-0.2,0c-0.4-2.6-0.9-5.2-1.3-7.8c-0.1,0-0.1,0-0.2,0
		c-0.3,1.4-0.6,2.8-0.9,4.2h-0.1c-0.4-2.7-0.9-5.3-1.3-8c-0.1,0-0.1,0-0.2,0c-0.3,1.4-0.6,2.8-0.9,4.2c-0.1,0-0.1,0-0.2,0
		c-0.2-1.4-0.4-2.9-0.6-4.6c-1.3,3.1-0.1,15.9,1.7,19.2c0.3-1.7,0.6-3.3,0.9-4.9c0.1,0,0.1,0,0.2,0c0.4,2.8,0.9,5.7,1.3,8.5
		c0.1,0,0.1,0,0.2,0c0.3-1.6,0.6-3.2,0.9-4.7c0.1,0,0.1,0,0.2,0c0.4,2.7,0.8,5.5,1.2,8.2c0.1,0,0.2,0,0.2,0c0.3-1.5,0.6-3,0.9-4.5
		c0.1,0,0.1,0,0.2,0c0.4,2.8,0.8,5.5,1.3,8.3c0.7-1.5,0.6-3.1,1.2-4.8c0.5,3,0.9,5.8,1.3,8.6c0.1,0,0.1,0,0.2,0
		c0.3-1.5,0.6-3,0.9-4.6c0.1,0,0.1,0,0.2,0c0.4,2.7,0.9,5.5,1.3,8.2c0.1,0,0.1,0,0.2,0c0.3-1.5,0.6-3,0.9-4.6c0.1,0,0.1,0,0.2,0
		c0.5,3.1,0.9,6.3,1.4,9.4c0.1,0,0.2,0,0.2,0c0.5-3.1,0.9-6.3,1.4-9.4c0.1,0,0.1,0,0.2,0c0.3,1.5,0.6,3,0.9,4.5c0.1,0,0.1,0,0.2,0
		c0.4-2.7,0.8-5.4,1.3-8.1c0.1,0,0.1,0,0.2,0c0.3,1.5,0.6,3,0.9,4.5c0.1,0,0.1,0,0.2,0c0.4-2.8,0.8-5.6,1.2-8.4c0.1,0,0.1,0,0.2,0
		c0.3,1.5,0.6,3,0.8,4.6c0.1,0,0.1,0,0.2,0c0.4-2.8,0.9-5.5,1.3-8.3c0.1,0,0.1,0,0.2,0c0.3,1.6,0.6,3.1,0.9,4.7c0.1,0,0.1,0,0.2,0
		c0.4-2.8,0.8-5.6,1.3-8.4c0.1,0,0.1,0,0.2,0c0.3,1.5,0.6,3.1,0.9,4.6c0.1,0,0.1,0,0.2,0c0.4-2.8,0.9-5.6,1.3-8.4h0.1
		C163.3,195.4,163.6,197,163.9,198.6z"></path>
</g>
<path d="M127,286.1c0.2-1.7,0.5-3.4,0.7-5.1c0.5,1.7,0.9,3.3,1,5C128.1,286.2,127.5,286.2,127,286.1z"></path>
<path d="M141.2,285.5c0.2-0.1,0.3-0.7,0.8-0.3C141.9,286,141.7,286,141.2,285.5z"></path>
<path d="M41.5,261.4c-0.1,0.4-0.1,0.8-0.2,1.2C41.4,262.2,41.2,261.8,41.5,261.4z"></path>
<path d="M45.7,188.8c0.2,0.2,0.1,0.5,0.1,0.8C45.6,189.3,45.6,189,45.7,188.8z"></path>
<path d="M125.6,286.1L125.6,286.1L125.6,286.1z"></path>
<path d="M7.5,67.3c0,0.1,0,0.1,0,0.2C7.5,67.5,7.5,67.4,7.5,67.3z"></path>
<path d="M135.6,30.4c0.1,1.5-0.5,2.9-0.9,4.4c-0.2-1.2-0.4-2.4-0.7-3.6C134.5,30.8,134.9,30.3,135.6,30.4z"></path>
</svg>
