<!--?xml version="1.0" encoding="utf-8"?-->
<!-- Generator: Adobe Illustrator 24.2.3, SVG Export Plug-In . SVG Version: 6.00 Build 0)  -->
<svg version="1.1" id="Camada_1" xmlns="http://www.w3.org/2000/svg" xmlns:xlink="http://www.w3.org/1999/xlink" x="0px" y="0px" viewBox="0 0 229 418" enable-background="new 0 0 229 418" xml:space="preserve">
<g onclick="select(this)" class="" id="gola-primaria" fill="#021c3b">
	<path d="M77.9626083,7.975801c0.8916397-0.1464872,1.4546051-0.8052793,2.0635757-1.3673048
		c0.7333908-0.6768517,1.530632-1.3283091,2.0977325-2.1334014c1.7713394-2.514663,4.3414764-3.368772,7.2027588-3.7580032
		C89.9555435,0.6315448,90.6842194,0.8125577,91.2000046,0.24c1.1999969,0,2.4000015,0,3.5999985,0
		c0.1689911,0.4921721,0.5998154,0.3104457,0.9138184,0.3115883c5.5778732,0.0202972,11.1558151,0.0196854,16.7337112,0.0337915
		c0.4070816,0.0010295,0.7741394-0.0454374,1.0724716-0.3453798c7.5200043,0,15.0400085,0,22.5599976,0
		c0.0950165,0.5737573,0.5538483,0.4839317,0.9309387,0.4813282c0.9624634-0.0066444,1.9052887,0.1363344,2.847229,0.3072239
		c1.939621,0.351892,3.5893097,1.1134266,4.84552,2.76226c1.2997437,1.7059848,2.7572174,3.3055561,4.645813,4.420681
		c1.3456726,0.5444899,1.9585419,1.5148191,1.8673248,2.98913c-0.2306519,3.7280111-2.0442657,6.734786-4.2547302,9.577178
		c-0.3995056,0.5137348-0.6663971,0.1623592-0.9760437-0.0750751c-1.7436829-1.3370762-3.4604034-2.7118683-5.2452545-3.9915733
		c-0.7937012-0.5690708-0.761795-0.9420891-0.1443939-1.63943c1.5353546-1.7341862,2.838028-3.633317,3.6850128-5.9839993
		c-3.8036652,0.2960405-7.4562683,0.6172018-11.1142273,0.8567047c-6.0510941,0.3961926-12.1025848,0.806385-18.1597137,1.0839634
		c-4.6715927,0.2140846-9.3202896-0.4047413-13.9781036-0.6748371c-5.5439987-0.3214865-11.0641098-0.9202509-16.59095-1.4390802
		c-1.2828751-0.1204281-1.3806686-0.0374393-0.9094391,1.138237c0.8011017,1.9987068,2.0935974,3.6679974,3.5411911,5.2302885
		c0.4509964,0.4867325,0.7215652,0.8941584-0.0053787,1.4499426c-1.7451401,1.3342266-3.4467926,2.7266788-5.1376801,4.1297684
		c-0.5719299,0.4745808-0.92733,0.3707008-1.3657074-0.175869c-1.8463974-2.3021336-3.298584-4.8074865-4.0902557-7.6677713
		C75.8127365,10.6402187,76.2608109,9.1359959,77.9626083,7.975801z"></path>
</g>
<g onclick="select(this)" class="" id="detalhe-punho" fill="#021c3b">
	<path d="M227.8479767,108.4740906c0.6809387,0.9812927,0.4194031,2.2056732,0.8383636,3.2553482
		c0.0808563,0.2025299-0.0243988,0.4886475,0.2736664,0.5905685c0,1.2799988,0,2.5599976,0,3.8399963
		c-2.501297,1.4985352-5.3547058,2.0023651-8.0946045,2.7934341c-9.3957672,2.7127533-19.0183411,3.3735809-28.7368469,2.8892288
		c-2.0160675-0.1004715-4.0475006-0.3125916-6.0154114-0.8739777c-0.5465698-0.1559219-1.0403595-0.3766327-1.4846954-0.7214279
		c-0.2615814-2.493866,0.3591003-4.9316864,0.4702148-7.4018784c3.7651215,0.8038483,7.5809631,0.9872742,11.417923,0.9799576
		c2.4756317-0.0047073,4.9823456,0.2486649,7.4164124-0.1532593c3.0631866-0.5058441,6.1322479-1.0086288,9.1912689-1.550148
		C218.1236725,111.2369232,222.9706268,109.8107452,227.8479767,108.4740906z"></path>
	<path d="M0.24,114.7200012c0.4935786-1.1680832,0.3756018-2.4553986,0.7118917-3.6554031
		c0.1131556-0.4037933-0.0013308-0.8847122,0.424064-1.174881c3.9500327,1.5389481,8.0130043,2.5952759,12.204361,3.3069839
		c4.3031273,0.73069,8.5903606,1.3838501,12.9639568,1.267395c1.8726425-0.0498505,3.7466278-0.2401581,5.6153297-0.1905441
		c1.6878014,0.0448074,3.3566055-0.1435547,5.0072746-0.3350449c1.4367638-0.1666641,2.9814034,0.0609207,4.3144798-0.7833557
		c0.4072418-0.2579269,0.6057358,0.0138702,0.8126144,0.385643c0.4235764,0.7612076,0.2493629,1.6531372,0.6075783,2.4174118
		c0.0719643,1.5249481,0.5883255,3.0182419,0.3252678,4.5670471c-2.7905273,1.3669128-5.828289,1.7201385-8.8434486,1.8076859
		c-7.6257458,0.2214127-15.2557678,0.2586136-22.80797-1.1545029c-3.0544977-0.5715332-6.1004725-1.1680756-9.053031-2.1535645
		c-0.7791134-0.2600555-1.5225506-0.6270065-2.2823682-0.94487C0.24,116.9600067,0.24,115.840004,0.24,114.7200012z"></path>
</g>
<g onclick="select(this)" class="" id="estampa-primaria" fill="#ffffff">
	<path d="M42.9015503,115.9582062c-0.3582153-0.7642746-0.1840019-1.6562042-0.6075783-2.4174118
		c-0.2068787-0.3717728-0.4053726-0.6435699-0.8126144-0.385643c-1.3330765,0.8442764-2.8777161,0.6166916-4.3144798,0.7833557
		c-1.6506691,0.1914902-3.3194733,0.3798523-5.0072746,0.3350449c-1.8687019-0.049614-3.7426872,0.1406937-5.6153297,0.1905441
		c-4.3735962,0.1164551-8.6608295-0.536705-12.9639568-1.267395c-4.1913567-0.7117081-8.2543278-1.7680359-12.204361-3.3069839
		c1.7979251-9.5085754,2.690742-19.1514053,4.2618089-28.6950073c0.8433952-5.1232834,1.1589942-10.3244934,2.2574725-15.4171219
		c1.7712955-8.211853,4.539505-15.9882011,9.6406498-22.7842369c2.098362-2.7955627,4.4700012-5.3400726,7.2143879-7.5032806
		c1.3363495-1.0533485,2.3008671-2.5357018,3.83251-3.3354187c3.6149693-1.8874855,7.2577724-3.7249832,11.0306263-5.2795029
		c9.9878883-4.1152878,19.997757-8.1806355,29.4594574-13.4460382c1.9744949-1.0987949,4.0122757-2.076231,5.5173645-3.8995132
		c0.8103714-0.9816818,1.9930954-1.5898461,3.3724442-1.553793c-1.7018661,1.1601915-2.1499405,2.6644144-1.4915237,5.0432663
		c0.7916718,2.8602848,2.2438583,5.3656378,4.0902557,7.6677713c0.4383774,0.5465698,0.7937775,0.6504498,1.3657074,0.175869
		c1.6908875-1.4030895,3.39254-2.7955418,5.1376801-4.1297684c0.726944-0.5557842,0.4563751-0.9632101,0.0053787-1.4499426
		c-1.4475937-1.5622911-2.7400894-3.2315817-3.5411911-5.2302885c-0.4712296-1.1756763-0.373436-1.2586651,0.9094391-1.138237
		c5.5268402,0.5188293,11.0469513,1.1175938,16.59095,1.4390802c4.657814,0.2700958,9.3065109,0.8889217,13.9781036,0.6748371
		c6.0571289-0.2775784,12.1086197-0.6877708,18.1597137-1.0839634c3.657959-0.2395029,7.3105621-0.5606642,11.1142273-0.8567047
		c-0.8469849,2.3506823-2.1496582,4.2498131-3.6850128,5.9839993c-0.6174011,0.697341-0.6493073,1.0703592,0.1443939,1.63943
		c1.7848511,1.279705,3.5015717,2.6544971,5.2452545,3.9915733c0.3096466,0.2374344,0.5765381,0.58881,0.9760437,0.0750751
		c2.2104645-2.842392,4.0240784-5.8491669,4.2547302-9.577178c0.091217-1.4743109-0.5216522-2.4446402-1.8673248-2.98913
		c1.8109589-0.1458616,2.9689636,0.9549904,4.0524902,2.158989c0.3441467,0.3824158,0.6605682,0.7439976,1.109024,1.0421343
		c8.8989868,5.915884,18.8488464,9.6554871,28.6195068,13.7379513c5.0675659,2.1173687,10.0319061,4.4581718,15.0887146,6.5925102
		c0.284317,0.1200066,0.5492554,0.2973919,0.803009,0.4766598c12.3474121,8.7226372,19.3888855,20.7741318,21.5631561,35.5577736
		c1.3981476,9.5065079,3.740387,18.8089752,5.3299561,28.2635193c0.6953278,4.1357269,1.2913818,8.288147,1.9325714,12.4330292
		c-4.8773041,1.3366852-9.7242584,2.7628632-14.7236633,3.6478729c-3.059021,0.5415192-6.1280823,1.0443039-9.1912689,1.550148
		c-2.4340668,0.4019241-4.9407806,0.1485519-7.4164124,0.1532593c-3.8369598,0.0073166-7.6528015-0.1761093-11.4178925-0.9801178
		c0.006424-0.2779236-0.0164948-0.5599823,0.0235443-0.8328018c0.7101898-4.8389969,1.6134644-9.6413193,2.6732178-14.4167099
		c0.4210815-1.8975601,1.1762238-3.7168427,1.3225861-5.6770554c0.3049774-0.1658936,0.3160553-0.3734512,0.091217-0.6340866
		c-0.1040802,0.2180328-0.2043762,0.4169693-0.0789948,0.643013c-0.501236,0.3148499-0.5702209,0.8867645-0.7771301,1.3630371
		c-1.7913666,4.1231003-3.0579529,8.4283066-4.1745453,12.7650375c-2.4154663,9.3814621-3.9850464,18.9117355-4.934082,28.5586929
		c-0.4713135,4.7909851-0.8210602,9.5890503-1.1429749,14.3869171c-0.3204803,4.7765656-0.4871979,9.5722656-0.4906158,14.359726
		c-0.0122223,17.0743103-0.2897186,34.1485138,0.1535187,51.2236938c0.189682,7.3079681,0.2587585,14.6186981,0.5118103,21.9272461
		c0.1685333,4.8679504,0.324707,9.7367249,0.4883881,14.6051025c0.2025757,6.0246582,0.4620056,12.0448608,0.7454224,18.0659485
		c0.2346649,4.984436,0.4097137,9.9707947,0.8125,14.9457092c-7.6541748,1.0762939-15.3588867,1.3634338-23.0744476,1.4551086
		c-12.948288,0.1537781-25.8903046,0.5632019-38.8333588,0.9298096c-6.7613373,0.1914673-13.4970322-0.4650879-20.2488022-0.5759583
		c-8.7113647-0.1430054-17.4234085-0.2502441-26.1341782-0.4224243c-8.0719566-0.1594849-16.1438904-0.3657227-24.1432991-1.6237793
		c-0.2364006-0.0371704-0.4707642-0.0872803-0.7055664-0.1313171c0.5522766-3.760437,0.4843102-7.563385,0.7422867-11.3439636
		c0.3829613-5.6121521,0.5773125-11.2389221,0.7618713-16.862381c0.1466675-4.4688721,0.2878494-8.9368439,0.4793053-13.404541
		c0.2581787-6.0247192,0.372776-12.0558167,0.5228691-18.0848236c0.1044083-4.1944122,0.1779137-8.3939362,0.1947098-12.5851593
		c0.0682449-17.0319672,0.3574524-34.0655212-0.1396637-51.097641c-0.1268425-4.345932-0.250412-8.6867218-0.4991493-13.0291138
		c-0.2458115-4.2913055-0.5758209-8.5695953-0.994976-12.8463898c-0.4458656-4.5494232-1.0501556-9.068306-1.8188705-13.5770264
		c-1.0780983-6.3233795-2.288002-12.6080475-4.1808014-18.7436981c-0.5832748-1.8907318-1.0551758-3.8256378-1.8989029-5.694313
		c-0.301857,0.297966-0.245224,0.5402145-0.2063065,0.7647934c0.5728493,3.3060379,1.2751579,6.5955887,1.6916161,9.9209976
		C42.2031326,110.1012878,43.0151329,112.9762115,42.9015503,115.9582062z"></path>
</g>
<path d="M189.1302643,91.9275818c-0.1253815-0.2260437-0.0250854-0.4249802,0.0789948-0.643013
	c0.2248383,0.2606354,0.2137604,0.4681931-0.091217,0.6340866L189.1302643,91.9275818z"></path>
<g onclick="select(this)">
	<image overflow="visible" width="844" height="408" xlink:href="745DCC39.jpg" transform="matrix(1 0 0 1 -7894 -7770.1103516)">
	</image>
</g>
<g onclick="select(this)" class="" id="estampa-secundaria" fill="#f6d101">
	<path d="M161.8733215,134.8813477c1.8543854,1.6996765,3.6966705,3.4128571,5.5713348,5.089859
		c0.4886475,0.4371033,0.5886536,0.6762238,0.0137024,1.1652679c-1.6425171,1.3971405-3.2026978,2.8906555-4.8292236,4.307251
		c-0.5503693,0.4793243-0.7319489,0.7768402-0.0818481,1.3720551c1.6791992,1.5374756,3.3012238,3.1394043,4.903244,4.7580109
		c0.5622711,0.5681,0.9402313,0.4937286,1.4712067-0.0255585c1.6566772-1.6202393,3.3325653-3.2223358,5.045517-4.782608
		c0.5306396-0.4833069,0.3495941-0.712677-0.0773315-1.0890045c-1.6481781-1.4528351-3.2279968-2.9864349-4.9204102-4.3844757
		c-0.797699-0.6589661-0.5494537-0.9724579,0.0644226-1.5137634c1.9154663-1.6890564,3.7860718-3.4289551,5.674057-5.1491547
		c0.4547729-0.3759613,0.9172668-0.7429962,1.3630676-1.129303c2.604599-2.2570496,5.0404663-4.7048035,7.743866-6.8502579
		c-0.2729187,2.975914-0.6149902,5.9474411-0.8041229,8.9286728c-0.3765259,5.9356537-0.7967377,11.8862457-0.1118774,17.8168488
		c0.2508087,2.1718292,0.2530212,4.2911835-0.02211,6.4297485c-0.4607239,3.5814667-0.0052338,7.1788635-0.2303467,10.7627563
		c-0.0749512,1.1933136-0.1759033,2.3849945-0.264801,3.5775299c-0.745636,0.6504211-1.489502,1.3029175-2.2375793,1.9505615
		c-1.9406738,1.6800995-3.7247162,3.5377808-5.7747803,5.0938721c-1.8079071-1.7517548-3.5986023-3.5218811-5.4342957-5.2440033
		c-0.5457001-0.5119171-0.6548767-0.8029785-0.0224152-1.3690491c1.7274628-1.5460815,3.3654633-3.1916809,5.0691528-4.7650757
		c0.4313202-0.3983307,0.4374084-0.6073761-0.0114899-0.9991302c-1.6868439-1.4721222-3.3565979-2.9655304-4.9886932-4.4978638
		c-0.621048-0.5830994-1.076416-0.5794678-1.6901398,0.0002136c-1.5404663,1.4550018-3.0983582,2.8950195-4.7119446,4.2673492
		c-0.5893707,0.5012817-0.5971527,0.7598419-0.0477295,1.2778625c1.5711975,1.4813385,3.0238037,3.094635,4.6538391,4.5049133
		c0.8935547,0.7731018,0.6411133,1.1416931-0.0476685,1.7973938c-1.7076721,1.6256256-3.3462219,3.3238831-5.0125427,4.9929504
		c-0.5354919,0.075119-0.7611847-0.3836212-1.0674133-0.659256c-3.6472931-3.2829132-7.2752228-6.5872803-10.9189453-9.8741302
		c-4.293808-3.8732147-8.5981293-7.734787-12.8978729-11.6014252c-0.4393768-0.2940216-0.9334869-0.151413-1.3999786-0.151535
		c-28.1281509-0.0075684-56.2563095-0.0121307-84.3844376,0.0157776c-0.9705429,0.0009613-1.6206512-0.2627716-2.2455788-1.0024109
		c-1.2350807-1.4618378-2.575161-2.8349762-3.8718376-4.2447662c0.0104561-1.2028046,0.020916-2.4056244,0.0314217-3.6085968
		c2.8234215-0.3272705,5.6467896-0.6544037,8.7077332-1.0090637c-3.0401764-2.6660156-5.8793449-5.1557465-8.7185211-7.6454926
		c-0.0001526-0.299408-0.0003128-0.5987854-0.0003052-0.8986511c3.5899582-0.227005,7.1797485-0.453537,10.2917862-0.6499329
		c-2.5158081-2.7071991-5.151123-5.543808-7.7877655-8.3791809c-0.3010178-0.3237-0.6742554-0.3637543-1.0988884-0.3186646
		c-0.7134972,0.0757599-1.4321976,0.1026001-2.1487083,0.1500397c-0.1420631-0.9100037-0.2841263-1.8200073-0.426281-2.7310944
		c1.0932541,0.2682343,1.7774124,1.1726532,2.6825752,1.7349701c0.3698235,0.2297211,0.6698875,0.5485687,1.1745491,0.4862671
		c3.6243401-0.4474945,7.2504959-0.8802032,11.0948448-1.3439941c-3.0861168-2.7305603-6.0261154-5.3318329-8.9661064-7.9330902
		c0.0158882-0.0964966,0.0317802-0.1929932,0.0476685-0.2894897c4.2064209,0,8.4128342,0,12.6188965-0.0001526
		c0.4998055,0.2029724,1.0251579,0.1301651,1.5411682,0.1302109c27.0585632,0.0026398,54.1171265,0.0053635,81.1756668-0.0127945
		c0.8126221-0.0005417,1.4263611,0.2032623,2.0320892,0.7592392c3.0911255,2.8372421,6.2125092,5.6416855,9.3373413,8.4419327
		C158.5618896,132.0036774,160.2241211,133.4352417,161.8733215,134.8813477z M174.4312897,158.0666504
		c-0.1351929-0.145752-0.2364502-0.2674103-0.3503265-0.3757935c-1.7616425-1.6768494-3.5343781-3.3421783-5.281723-5.033783
		c-0.4817505-0.4663849-0.8383636-0.4165497-1.2935638,0.0353546c-1.6693115,1.6572876-3.3501587,3.3036804-5.058548,4.9204712
		c-0.4650726,0.4401398-0.4615021,0.6921692,0.023056,1.1149902c1.6516113,1.4411774,3.2733307,2.9171906,4.8857727,4.4023285
		c0.5267029,0.4851227,0.9573669,0.554657,1.5206604,0.0321655c1.6657715-1.5450592,3.3684692-3.0502777,5.0535126-4.5746155
		C174.1040802,158.4304199,174.2566528,158.2493896,174.4312897,158.0666504z"></path>
	<path d="M43.237854,120.5011597c-0.1532707-1.7735519-0.3065414-3.5471039-0.485775-5.621048
		c2.4317245,2.1827698,4.6695366,4.1914902,7.1310883,6.4010315c-2.3116035,0.2084503-4.3519592,0.3924484-6.3922462,0.5762863
		C43.4066124,121.4052429,43.3222313,120.9532013,43.237854,120.5011597z"></path>
</g>
<path d="M182.4307098,186.2645874c0.0508575-0.0930634,0.1016998-0.1861267,0.1523895-0.2788239
	C182.5321808,186.0789642,182.4814453,186.1717834,182.4307098,186.2645874z"></path>
<g onclick="select(this)" class="" id="estampa-terciaria" fill="#021c3b">
	<path d="M137.2411499,159.0404053c4.2997437,3.8666382,8.6040649,7.7282104,12.8978729,11.6014252
		c3.6437225,3.28685,7.2716522,6.591217,10.9189453,9.8741302c0.3062286,0.2756348,0.5319214,0.734375,1.0676575,0.6593933
		c1.8839569,1.724762,3.7723236,3.4443359,5.6469574,5.1787567c0.3356476,0.3105164,0.5818634,0.4395905,0.9841919,0.0601807
		c1.8562317-1.750351,3.7391815-3.4724121,5.6125488-5.2046204c2.0500488-1.5561066,3.8340912-3.4137878,5.774765-5.0938873
		c0.7480774-0.647644,1.4919434-1.3001404,2.2375793-1.9505615c-0.0363312,3.9419861,0.4368286,7.875412,0.2014313,11.8205414
		c-0.0506897,0.0926971-0.101532,0.1857605-0.1523895,0.2788239c0.0000153,0.0000153-0.0018768,0.0041962-0.0018158,0.0041046
		c-2.2341919,1.9929504-4.4892426,3.9634857-6.6886444,5.9942932c-0.5747528,0.5307312-0.8907166,0.6404724-1.5152893,0.0350037
		c-1.721405-1.6687469-3.557785-3.2185364-5.2905273-4.8761902c-0.5476074-0.5238647-0.8286285-0.4599457-1.3367462,0.0274048
		c-1.673111,1.6048279-3.4350281,3.1177521-5.0918579,4.7385559c-0.6585236,0.6442108-1.0399933,0.6412354-1.7253418,0.0161438
		c-8.4480591-7.7050629-16.934494-15.368042-25.3843994-23.0710754c-0.7054138-0.6430817-1.4015045-0.8835754-2.3447418-0.882782
		c-27.432785,0.0230255-54.865593,0.0136414-82.2983551,0.0392303c-0.9636917,0.000885-1.6246605-0.2290955-2.2360153-1.007019
		c-0.9836311-1.2516327-2.1049881-2.3950348-3.1681595-3.5841675c-0.2093773-1.5406494-0.2021713-3.0817261-0.0090828-4.6231689
		c30.1144409-0.0004883,60.2288818-0.0007629,90.3433151-0.0027771
		C136.2024078,159.072113,136.7217865,159.0514526,137.2411499,159.0404053z"></path>
	<path d="M183.8149261,126.6496658c-2.7033997,2.1454544-5.139267,4.5932083-7.743866,6.8502579
		c-0.4458008,0.3863068-0.9082947,0.7533417-1.3630676,1.129303c-1.8441162-1.7623291-3.6817322-3.5315247-5.5374451-5.2815094
		c-0.401413-0.3785553-0.6125336-0.6243896-0.067627-1.1120605c5.1387634-4.5990143,10.2526703-9.2258301,15.3769073-13.8411484
		c0.107132-0.0965118,0.2516479-0.1515198,0.4723358-0.2806931c-0.1524811,2.1684952-0.2966919,4.2195969-0.4405975,6.2703476
		c-0.1660004,1.6535263-0.3277893,3.3078766-0.5016174,4.960968
		C183.9639893,125.7819748,183.8809509,126.2149277,183.8149261,126.6496658z"></path>
	<path d="M161.8733063,134.8813324c-1.6491852-1.4460907-3.3114166-2.877655-4.9448242-4.3414001
		c-3.1248322-2.8002472-6.2462158-5.6046906-9.3373413-8.4419327c-0.6057281-0.5559769-1.2194672-0.7597809-2.0320892-0.7592392
		c-27.0585403,0.018158-54.1171036,0.0154343-81.1756668,0.0127945c-0.5160103-0.0000458-1.0413628,0.0727615-1.5411682-0.1302109
		c-2.4384003-2.7343674-4.8771629-5.4688873-7.3320656-8.2215042c0.3539619-0.3202438,0.7254982-0.1678162,1.0540428-0.1679077
		c30.9013824-0.0088882,61.8027649-0.0058746,92.7041321-0.0222931c0.7689972-0.000412,1.340744,0.2024841,1.9161072,0.7252884
		c5.4720306,4.9721298,10.9693451,9.9164581,16.4628143,14.8649597c0.1177368,0.1060486,0.2764282,0.1666718,0.4455719,0.2658234
		C165.9398041,130.8173828,163.9065552,132.84935,161.8733063,134.8813324z"></path>
	<path d="M40.8581963,100.3328552c4.5771332,4.0902176,8.9872665,8.0312042,13.6933861,12.2366867
		c-1.8269272,0-3.2813568-0.0084076-4.7356529,0.0019608c-2.1564522,0.0153809-4.313282,0.0249557-6.468914,0.078743
		c-0.6494751,0.0162125-0.9111366-0.1972504-0.9929428-0.8540115
		C41.8904495,108.0743561,41.3878021,104.3573303,40.8581963,100.3328552z"></path>
</g>
<g onclick="select(this)" class="" id="detalhe-lateral" fill="#021c3b">
	<path d="M189.118042,91.9186554c-0.1463623,1.9602127-0.9015045,3.7794952-1.3225861,5.6770554
		c-1.0597534,4.7753906-1.963028,9.577713-2.6732178,14.4167099c-0.0400391,0.2728195-0.0171204,0.5548782-0.0235443,0.8328018
		c-0.111145,2.4703522-0.7318268,4.9081726-0.4702454,7.4020386c-1.2538757,10.2727585-2.2885284,20.5608902-1.9748688,30.9319382
		c0.0720215,2.3811188,0.8058167,4.7158966,0.4617004,7.1367035c-0.3488159,2.453949-0.4842682,4.926239-0.4611206,7.4086304
		c0.0614166,6.5872192,0.0962524,13.1849213-0.1150055,19.758316c-0.1437225,4.4715271,0.6984558,8.7001801,1.420929,13.0077209
		c0.8576202,5.1132202,0.9465179,10.2421875,0.2486267,15.3868103c-0.3163147,2.3318787-0.5418854,4.6759796-0.8194733,7.0132599
		c-0.0548706,0.4620361,0.1188354,0.8704834,0.2602692,1.2782745c2.0043488,5.7798157,2.5227356,11.7149811,1.4927216,17.7158661
		c-0.4361725,2.5410614,0.0865479,4.9121246,0.4099731,7.3462219c0.1848602,1.3912201,0.2895203,2.7849121,0.2583923,4.1851196
		c-0.168396,7.5735626,0.6844177,15.0817108,1.3915253,22.6016083c0.2081451,2.2134094,0.1912537,4.4473572,0.3064728,6.6703796
		c0.0629883,1.2152405-0.4994507,1.9846497-1.6034088,2.3692322c-1.8061981,0.6292725-3.6501007,1.0896606-5.5828552,1.0713806
		c-0.4025574-4.9749451-0.5776062-9.9613037-0.8122711-14.9457397c-0.2834167-6.0210876-0.5428467-12.0412903-0.7454224-18.0659485
		c-0.163681-4.8683777-0.3198547-9.7371521-0.4883881-14.6051025c-0.2530518-7.308548-0.3221283-14.619278-0.5118103-21.9272461
		c-0.4432373-17.0751801-0.165741-34.1493835-0.1535187-51.2236938c0.003418-4.7874603,0.1701355-9.5831604,0.4906158-14.359726
		c0.3219147-4.7978668,0.6716614-9.595932,1.1429749-14.3869171c0.9490356-9.6469574,2.5186157-19.1772308,4.934082-28.5586929
		c1.1165924-4.336731,2.3831787-8.6419373,4.1745453-12.7650375c0.2069092-0.4762726,0.2758942-1.0481873,0.7771301-1.3630371
		L189.118042,91.9186554z"></path>
	<path d="M42.9015503,115.9582062c0.1135826-2.9819946-0.6984177-5.8569183-1.0646591-8.7813339
		c-0.4164581-3.3254089-1.1187668-6.6149597-1.6916161-9.9209976c-0.0389175-0.2245789-0.0955505-0.4668274,0.2063065-0.7647934
		c0.8437271,1.8686752,1.3156281,3.8035812,1.8989029,5.694313c1.8927994,6.1356506,3.1027031,12.4203186,4.1808014,18.7436981
		c0.7687149,4.5087204,1.3730049,9.0276031,1.8188705,13.5770264c0.4191551,4.2767944,0.7491646,8.5550842,0.994976,12.8463898
		c0.2487373,4.342392,0.3723068,8.6831818,0.4991493,13.0291138c0.4971161,17.0321198,0.2079086,34.0656738,0.1396637,51.097641
		c-0.0167961,4.1912231-0.0903015,8.3907471-0.1947098,12.5851593c-0.1500931,6.029007-0.2646904,12.0601044-0.5228691,18.0848236
		c-0.1914558,4.4676971-0.3326378,8.9356689-0.4793053,13.404541c-0.1845589,5.6234589-0.3789101,11.2502289-0.7618713,16.862381
		c-0.2579765,3.7805786-0.1900101,7.5835266-0.7422829,11.3439331c-1.6820335-0.0850525-3.2913589-0.5161743-4.8658752-1.0708008
		c-1.7708015-0.6237183-2.1469193-1.1226196-2.1011238-2.9976807c0.0670662-2.7460022,0.1889191-5.4891663,0.4147339-8.2307434
		c0.4395142-5.3359985,0.7224426-10.6850586,1.1794395-16.0193634c0.40205-4.6931-0.0762138-9.439682,0.9062653-14.0965424
		c0.1984291-0.9405518,0.1134071-1.9181824-0.033474-2.8666992c-0.4832382-3.1204681-0.3470268-6.2174377,0.332428-9.2897491
		c0.194416-0.8790894,0.1335144-1.7296448,0.0722351-2.6122131c-0.2877083-4.1437836-0.8593559-8.2657928-0.8530579-12.4330902
		c0.0072861-4.8221283,1.0993767-9.4220276,2.7060051-13.9203339c0.3436127-0.9620819,0.5703545-1.8824768,0.450592-2.9110718
		c-0.1810303-1.5547485-0.1168175-3.1097717,0.1610222-4.658493c0.1121635-0.6252441,0.1574593-1.2737732,0.1400375-1.9091644
		c-0.1323547-4.8263855-0.6007996-9.6680603-0.3563309-14.4740295c0.3014259-5.9256287-0.2448349-11.8179779-0.1113739-17.7312775
		c0.2507629-11.1105499,0.3767052-22.2289581-1.4094315-33.2606583c-0.2549744-1.5747833-0.3950195-3.1681595-0.5882187-4.7529297
		C43.4898758,118.9764481,42.9735146,117.4831543,42.9015503,115.9582062z"></path>
</g>
</svg>
