<!--?xml version="1.0" encoding="utf-8"?-->
<!-- Generator: Adobe Illustrator 23.1.0, SVG Export Plug-In . SVG Version: 6.00 Build 0)  -->
<svg version="1.1" id="Camada_1" xmlns="http://www.w3.org/2000/svg" xmlns:xlink="http://www.w3.org/1999/xlink" x="0px" y="0px" viewBox="0 0 229 418" style="enable-background:new 0 0 229 418;" xml:space="preserve">
<style type="text/css">
	.st0{fill:#F731BC;}
	.st1{fill:#E2BD1D;}
	.st2{fill:#EA5E18;}
	.st3{fill:#EB5E17;}
	.st4{fill:#BF0C12;}
	.st5{fill:#BF0A11;}
</style>
<g onclick="select(this)" class="" id="gola-primaria" fill="#bf0811">
	<path d="M104,35.5c-4-1.2-7.8-2.7-11.4-4.9c-3.1-1.9-6.1-4.1-8.9-6.5c-0.9-0.9-1.7-1.8-2.6-2.7c-0.4-0.5-0.7-1-1.1-1.5
		c-1.8-2.3-3.1-4.9-3.6-7.8c-0.3-1.8,0-3.3,1.7-4.2c1.8-0.7,3-2.1,4-3.5c2-2.7,4.9-3.4,7.9-3.8c2-0.2,4.1-0.1,6.1-0.1
		c4.8,0.1,9.7,0.2,14.5,0c7.4-0.3,14.8,0.2,22.2,0c2.4-0.1,4.8,0.1,7.1,0.5c1.8,0.4,3.3,1.1,4.4,2.6c1,1.4,2.2,2.6,3.6,3.7
		c0.4,0.3,0.7,0.7,1.2,0.8c1.7,0.9,2.3,2.1,1.8,4c-0.5,2.1-1.4,4.1-2.4,6c-0.6,1.2-1.8,2-2.2,3.2c-0.4,0.5-0.9,0.9-1.3,1.4
		c-6,5.6-12.7,10.1-20.7,12.5c-2,0.6-4.1,0.9-6.3,1.1c-0.2-0.7,0.4-1.1,0.7-1.5c2.4-3.3,5.5-5.9,8.6-8.5c3.2-2.8,6.7-5.1,9.8-7.9
		c2.4-2.2,4.5-4.6,6.1-7.4c0.3-0.6,0.6-1.2,1.1-2.2c-20.5,2.6-40.8,2.7-61.3-0.3c0.4,1.9,1.2,3.2,2.2,4.5c2.3,3.1,5.1,5.7,8.2,8.1
		c4.9,3.8,9.6,7.7,13.9,12.2c0.8,0.8,1.6,1.7,2,2.9C107.5,36.2,105.8,35.8,104,35.5z"></path>
</g>
<g onclick="select(this)" class="" id="estampa-primaria" fill="#bf0811">
	<g onclick="select(this)" class="">
		<path d="M43.2,120.5c0.1-1.3-0.1-2.6-0.2-3.8c0.4-0.3,0.2-0.8,0.2-1.2c0-2.8,0-5.6,0-8.4c0-0.6,0.1-1.2,0.4-1.7
			c2.3-5.1,4.5-10.2,6.8-15.3c0.2-0.3,0.4-0.7,0-1.2c-3,5.1-5.7,10.4-8.9,15.3c-0.2-1.2-0.4-2.3-0.6-3.5c1.2-1.3,2.3-2.7,2.3-4.5
			c0-9.4,0-18.9,0-28.3c0-0.7,0.2-1.3,0.4-1.9c2.1-4.7,4.2-9.4,6.3-14.1c0.2-0.4,0.3-0.8,0.3-1.3c0.2-0.1,0.3-0.2,0.1-0.4
			c-0.1,0.1-0.2,0.2-0.2,0.3c-0.2,0.2-0.4,0.4-0.5,0.7c-3,5.2-6,10.5-9,15.7c-2.2,3.9-4.5,7.8-6.7,11.7c-0.5-1-0.7-2-0.8-3.1
			c0.3-0.1,0.4-0.4,0.5-0.6c3.1-5.5,6.2-11,9.4-16.5c0.2-0.3,0.3-0.7,0.3-1c0-6.7,0-13.4,0-20c6.8-1.7,13.5-3.7,20-6.2
			c0,3.3,0,6.6,0,9.8c0,0.8-0.1,1.5-0.5,2.2c-2.3,5.1-4.5,10.2-6.8,15.3c-0.1,0.2-0.3,0.4,0.1,0.7c0.5-0.3,0.7-0.9,1-1.4
			c4.6-8,9.2-15.9,13.7-23.9c1.4-2.5,2.9-5,4.3-7.5c0.2-0.3,0.8-0.8-0.2-0.9c1.5-1,2.9-2,4.5-2.8c-0.2,0.4-0.3,0.7-0.5,1.1
			c-5,8.7-10,17.5-15,26.2c-0.4,0.7-0.6,1.4-0.6,2.3c0,9.4,0,18.8,0,28.2c0,0.6,0,1.1-0.2,1.6c-2.2,4.9-4.4,9.8-6.6,14.7
			c-0.2,0.5-0.4,0.9-0.5,1.4c0.6-0.4,0.9-0.8,1.2-1.3c8.8-15.7,17.6-31.3,26.3-47c0.3-0.5,0.5-0.9,0.5-1.5c0-8,0-16.1,0-24.1
			c2.8,2.3,5.8,4.5,8.9,6.5c3.6,2.2,7.4,3.7,11.4,4.8c-0.2,0.4-0.1,0.9-0.1,1.3c0,4.4,0,8.7,0,13.1c0,0.5,0,1-0.2,1.4
			c-2.3,5.3-4.7,10.5-7,15.8c-0.1,0.2-0.3,0.4,0.2,0.8c5.9-10.3,11.7-20.6,17.7-31.1c-1.9,0-3.6,0-5.3-0.5c-0.4-1.2-1.2-2.1-2-2.9
			c-4.3-4.4-9-8.4-13.9-12.2c-3.1-2.4-5.8-5-8.2-8.1c-0.9-1.3-1.7-2.6-2.2-4.5c20.5,3,40.7,2.8,61.3,0.3c-0.5,1-0.7,1.6-1.1,2.2
			c-1.6,2.8-3.7,5.2-6.1,7.4c-3.1,2.8-6.6,5.1-9.8,7.9c-3.1,2.6-6.2,5.3-8.6,8.5c-0.3,0.4-0.9,0.8-0.7,1.5c-0.7,0.1-1.2,0.4-1.5,1
			c-4,7.1-8.1,14.1-12.2,21.2c-0.4,0.7-0.6,1.5-0.6,2.3c0,9.2,0,18.4,0,27.6c0,0.6,0,1.1-0.3,1.6c-1.3,2.8-2.5,5.6-3.8,8.4
			c-0.9,2-1.8,4.1-2.7,6.1c-0.1,0.2-0.3,0.4,0,0.6c0.3,0.1,0.4-0.1,0.6-0.3c0.1-0.1,0.2-0.3,0.2-0.4c2.1-3.7,4.3-7.3,6.3-11
			c6.6-11.7,13.3-23.4,19.9-35.2c0.3-0.5,0.4-1,0.4-1.6c0-6.8,0-13.6,0-20.4c0-0.4,0.1-0.8-0.1-1.2c8-2.4,14.7-6.9,20.7-12.5
			c0,0.4-0.1,0.9-0.1,1.3c0.3,5.5,0.1,10.9,0.1,16.4c0,0.9-0.1,1.7-0.5,2.5c-1.4,3.2-2.9,6.4-4.3,9.6c-1.2,2.7-2.4,5.5-3.6,8.2
			c-0.1,0.1-0.1,0.2-0.2,0.3c0,0,0.1,0.1,0.1,0.1c0-0.1,0.1-0.2,0.1-0.3c0.3-0.1,0.4-0.4,0.5-0.6c4.6-8,9.2-16,13.8-24.1
			c1.6-2.9,3.4-5.7,4.9-8.6c0.6,0.3,1.3,0.7,1.9,1c-4.2,7.3-8.4,14.6-12.6,21.8c-0.3,0.5-0.3,1.1-0.3,1.6c0,9,0,18.1,0,27.1
			c0,1.4-0.2,2.7-0.8,4c-1,2.1-1.9,4.3-2.9,6.4c-1.2,2.7-2.4,5.4-3.6,8.2c0.7,0.1,0.8-0.4,0.9-0.7c8.9-15.9,17.8-31.7,26.7-47.6
			c0.2-0.3,0.4-0.7,0.4-1.1c0-5.5,0-11-0.1-16.4c6.5,2.5,13.1,4.5,19.8,6.2c0.1,0.5,0.1,1,0.1,1.5c0,3.5,0,7,0,10.5
			c0,0.5-0.2,0.9-0.4,1.4c-2.1,4.5-4.1,9.1-6.1,13.7c-0.2,0.4-0.4,0.8-0.4,1.5c0.9-0.8,1.4-1.7,1.9-2.6c3.2-5.5,6.3-11,9.4-16.6
			c1.3-2.3,2.8-4.5,3.8-7c0.8,0.3,1.5,0.5,2.3,0.8c-0.1,0.1-0.2,0.2-0.3,0.4c-3.2,5.6-6.4,11.2-9.6,16.7c-0.4,0.8-0.6,1.5-0.6,2.4
			c0,9.2,0,18.4,0,27.6c0,0.5,0,0.9-0.2,1.4c-2.4,5.3-4.7,10.5-7,15.8c-0.1,0.2-0.3,0.4,0,0.6c0.5,0,0.6-0.5,0.8-0.8
			c3-5.3,6.1-10.6,9.1-15.9c1.6-2.7,2.9-5.5,4.7-8.1c0,0.5-0.2,0.9-0.4,1.4c-1,3.4-2.8,6.5-3.7,9.9c-1,1.7-2,3.4-3,5.2
			c-0.2,0.4-0.3,0.7-0.3,1.1c0,2.9,0.1,5.8,0.1,8.6c-0.4,2.7-0.9,5.5-1,8.2c-0.1,1.4-0.4,2.8-0.2,4.3c-0.5,2.1-0.5,4.2-0.7,6.3
			c-0.3,3-0.6,5.9-0.9,8.9c-0.1,0.1-0.3,0.3-0.4,0.4c-1.4,3.2-2.9,6.4-4.3,9.6c-0.1,0.1-0.3,0.4,0.1,0.5c0.6-0.4,0.9-1.2,1.3-1.8
			c1-1.7,1.8-3.4,3-5.1c0,2.8,0,5.6-0.1,8.4c-0.1,2-0.1,3.9,0.3,5.9c0.5,2.3,0.2,4.5,0,6.7c-0.2,2.4-0.3,4.7-0.2,7.1
			c0.1,2.7-0.3,5.4-0.3,8.1c-1.4,2.7-2.5,5.5-3.8,8.3c-0.1,0.2-0.6,0.5-0.1,0.8c0.4,0.2,0.5-0.3,0.7-0.5c1.1-1.8,2.1-3.6,3.2-5.5
			c0.2,2.9,0.4,5.9,0.1,8.9c-0.4,3.1,0.4,6.2,1,9.2c0.8,4.3,1.3,8.6,1,13c-1.2,2.7-2.5,5.4-3.7,8.2c-0.7,1.5-1.3,3-2,4.5
			c-0.1,0.2-0.4,0.5-0.1,0.7c0.3,0.2,0.5-0.2,0.6-0.4c0.2-0.3,0.4-0.6,0.5-0.9c1.4-2.4,2.7-4.9,4.1-7.3c-0.2,1.9-0.4,3.9-0.6,5.8
			c-0.1,0.9-0.1,1.7,0.2,2.6c2,6,2.3,12.1,1.3,18.3c-0.3,1.6-0.1,3.2,0.2,4.7c0.1,0.4,0.1,0.9,0.1,1.3c-0.1,0.1-0.2,0.2-0.2,0.3
			c-1.8,4.1-3.7,8.3-5.5,12.4c-0.7,1.6-1.4,3.1-2.1,4.8c0.6-0.2,0.8-0.6,1-1c2-3.5,4-7.1,6-10.6c0.7-1.2,1.3-2.5,1.1-3.9
			c0.1,0.4,0.2,0.8,0.2,1.2c-0.1,3.6-0.1,7.1,0.1,10.6c0,7.5,0,15-0.1,22.5c-3,1.1-6.1,1.3-9.2,1.6c-2.4,0.3-4.8,0.6-7.3,0.5
			c1.6-3.8,3.3-7.6,4.9-11.4c-0.7,0.7-1.2,1.6-1.7,2.4c-1.7,3-3.3,6.1-5,9.1c-0.9,0-1.7,0-2.6,0c0.7-1.1,0.8-2.3,0.8-3.5
			c0-9.1,0-18.2,0-27.4c0-0.7,0.1-1.4,0.4-2.1c1.9-4.2,3.7-8.4,5.6-12.6c0.2-0.5,0.4-0.9,0.1-1.4c-0.5,0.2-0.6,0.6-0.8,0.9
			c-8.6,15.1-17.1,30.2-25.6,45.3c-0.2,0.4-0.4,0.8-0.3,1.2c-1,0-1.9,0-2.9,0c1.1-1.9,2.2-3.9,3.3-5.8c6.4-11.4,12.9-22.8,19.4-34.1
			c0.6-1.1,0.8-2.1,0.8-3.3c0-9.2,0-18.3,0-27.5c0-0.6,0.1-1.3,0.4-1.9c2.2-5,4.4-10,6.6-15c0.1-0.2,0.2-0.4-0.1-0.6
			c-0.2,0.1-0.3,0.2-0.4,0.4c-2.4,4.2-4.8,8.4-7.2,12.6c-6.5,11.4-12.9,22.8-19.4,34.2c-0.4,0.6-0.6,1.3-0.5,2c0,9.2,0,18.3,0,27.5
			c0,1.2-0.3,2.4-0.8,3.5c-1.2,2.6-2.4,5.3-3.5,8c-5.5,0.3-10.9,0.4-16.4,0.4c0-0.5,0.1-1,0.1-1.6c0-7.1,0-14.2,0-21.4
			c0-0.6,0.1-1.3,0.4-1.9c1.9-4.2,3.8-8.5,5.6-12.7c0.2-0.6,0.8-1.1,0.4-1.8c-0.4,0.1-0.4,0.3-0.5,0.4
			c-6.6,11.8-13.3,23.7-19.8,35.5c-0.6,1.1-1.5,2.1-1.7,3.4c-1.4-0.1-2.8,0.1-4.3-0.2c0.8-0.1,1.5,0.1,2-0.9
			c5.8-10.4,11.6-20.7,17.4-31.1c0.3-0.6,0.5-1.2,0.5-1.9c0-9.4,0-18.7,0-28.1c0-0.9,0.2-1.7,0.6-2.5c2.1-4.7,4.2-9.3,6.2-14
			c0.2-0.4,0.6-0.9,0.2-1.6c-0.4,0.8-0.8,1.4-1.1,2c-8.6,15.2-17.3,30.5-25.9,45.7c-0.4,0.7-0.6,1.4-0.6,2.3c0,5.4,0,10.9,0,16.3
			c0,4.6,0,9.2,0,13.8c-5.3-0.1-10.6-0.2-15.8-0.3c-0.8,0-1.7,0.2-2.5-0.1c1.1,0.1,1.7-0.4,2-1.4c0.3-0.8,0.7-1.6,1.1-2.4
			c1.2-2.7,2.3-5.3,3.5-8c0.1-0.1,0.1-0.2,0.2-0.3c0,0-0.1-0.1-0.1-0.1c0,0.1-0.1,0.2-0.1,0.3c-0.9,0.9-1.3,2-1.8,3
			c-1.6,2.9-3.4,5.8-4.8,8.8c-0.9,0-1.7,0-2.6-0.1c0.8-1.1,0.9-2.4,0.9-3.8c0-9.1,0-18.2,0-27.3c0-0.5,0-1,0.2-1.5
			c1-2.2,1.9-4.4,2.9-6.6c1.5-3.5,3-6.9,4.6-10.4c0.2-0.1,0.3-0.3,0.1-0.5c-0.1,0.1-0.2,0.2-0.3,0.3c-0.2,0.3-0.4,0.5-0.6,0.8
			c-8.2,14.4-16.4,28.9-24.5,43.3c-1,1.8-2.2,3.4-2.9,5.4c-0.8-0.1-1.7-0.1-2.6-0.2c1-1.7,1.9-3.4,2.9-5.1
			c6.6-11.6,13.2-23.2,19.8-34.8c0.3-0.6,0.4-1.1,0.4-1.7c0-9.4,0-18.7,0-28.1c0-0.7,0.1-1.4,0.4-2.1c2.5-5.6,5-11.2,7.5-16.8
			c0.1-0.2,0.4-0.5,0-0.8c-0.1,0.2-0.2,0.3-0.3,0.5c-2.7,4.7-5.4,9.4-8.1,14.2c-6.6,11.6-13.1,23.1-19.7,34.7
			c-0.3,0.6-0.5,1.2-0.5,1.9c0,9.4,0,18.7,0,28.1c0,0.8-0.2,1.6-0.5,2.3c-1.1,2.5-2.2,5.1-3.4,7.7c-5.4-0.4-10.9-0.8-16.1-2.2
			c0-6.5,0-13,0-19.5c0-0.7,0.2-1.3,0.4-2c2-4.5,4-8.9,5.9-13.4c0.2-0.4,0.6-0.9,0.2-1.8c-0.5,0.9-0.9,1.6-1.3,2.3
			c-2.3,4.1-4.6,8.1-6.9,12.2c-0.1-1.7,0.2-3.3,0.3-5c0.4-1,1.4-1.8,1.4-3c0-3.4,0-6.9,0-10.4c0-4.5,0-9.1,0-13.6
			c0.3-1.3-0.3-2.6-0.2-4c0.3-0.8,0.1-1.6,0.4-2.4c2.4-5.3,4.8-10.7,7.2-16.1c0.5-1.1,1-2.2,1.5-3.3c-0.3,0.1-0.5,0.3-0.6,0.5
			c-2.6,4.7-5.3,9.4-7.9,14.1c-0.5,0.9-1,1.8-0.9,2.9c-0.4-2.9-0.7-5.9-0.3-8.8c0.5-4.3,1.4-8.5,3-12.5c0.1-0.3,0.2-0.6,0.2-0.8
			c-0.6-3.6,0.4-7.2,0.1-10.9c-0.3-3.4-0.3-6.8-0.2-10.2c0.2,0.1,0,0.5,0.4,0.5c1.6-3.8,3.5-7.5,4.9-11.3c-0.1-0.1-0.2-0.1-0.3-0.1
			c-1.7,2.9-3.3,5.8-5,8.6c0.5-4.5-0.1-9.1-0.1-13.6c0-7.2,0-14.4,0.1-21.5c2-3.9,3.7-8,5.4-12c-0.1-0.1-0.3-0.1-0.4-0.2
			c-1.7,3-3.4,6.1-5.2,9.1c-0.6-5.1-1.2-10.3-1.7-15.4C43.4,121.1,43.5,120.7,43.2,120.5z M136.8,217c0.3,0,0.3-0.2,0.3-0.4
			c0.1-0.1,0.2-0.3,0.3-0.4c0.2-0.4,0.5-0.7,0.7-1.1c2.5-4.4,5-8.8,7.6-13.2c6.5-11.3,12.9-22.7,19.3-34c0.6-1,0.8-2,0.8-3.2
			c0-9,0-18.1,0-27.1c0-0.7,0.1-1.3,0.4-2c1.9-4.2,3.8-8.5,5.6-12.7c0.3-0.7,0.8-1.4,0.7-2.3c-0.5,0-0.5,0.3-0.6,0.5
			c-2.2,3.8-4.4,7.7-6.6,11.5c-6.5,11.5-13.1,23.1-19.6,34.6c-0.4,0.7-0.5,1.3-0.5,2c0,9.2,0,18.3,0,27.5c0,0.7-0.1,1.4-0.4,2.1
			c-1.1,2.5-2.2,4.9-3.3,7.4c-1.4,3.2-2.8,6.4-4.2,9.7c-0.1,0.2-0.1,0.3-0.2,0.5C136.8,216.6,136.8,216.8,136.8,217
			c-0.1,0.1-0.1,0.2-0.2,0.3c0.1,0,0.1,0.1,0.1,0.1C136.8,217.2,136.8,217.1,136.8,217z M136.8,139c0.2-0.1,0.3-0.2,0.3-0.4
			c0.1-0.1,0.3-0.3,0.4-0.4c2.9-5,5.8-10.1,8.6-15.1c6.4-11.3,12.8-22.5,19.2-33.8c0.4-0.7,0.6-1.3,0.6-2c0-9.4,0-18.9,0-28.3
			c0-0.7,0.1-1.4,0.4-2.1c2.3-5,4.5-10,6.8-15c0.4-0.9,0.7-1.8,1.1-2.8c-0.8,0.4-1,1.2-1.4,1.8c-9,16-18,32.1-26.9,48.1
			c-0.4,0.7-0.6,1.4-0.6,2.3c0,9.2,0,18.4,0,27.6c0,0.7-0.1,1.3-0.4,2c-1.4,3.2-2.9,6.4-4.3,9.6c-1.2,2.7-2.3,5.3-3.5,8
			C136.8,138.6,136.8,138.8,136.8,139c-0.1,0.1-0.1,0.2-0.2,0.2c0.1,0,0.1,0.1,0.1,0.1C136.8,139.2,136.8,139.1,136.8,139z
			 M92.2,78.2c-0.3,0-0.3,0.2-0.3,0.4c-0.1,0.2-0.2,0.3-0.3,0.4c-2.9,5-5.8,9.9-8.6,14.9c-6.4,11.3-12.8,22.7-19.3,34
			c-0.4,0.6-0.5,1.3-0.5,2c0,9.3,0,18.6,0,27.8c0,1-0.2,1.9-0.6,2.8c-1.9,4.1-3.7,8.2-5.5,12.4c-0.5,1.2-1,2.3-1.5,3.5
			c0.1,0.1,0.2,0.1,0.3,0.1c0.3-0.5,0.6-1,0.9-1.5c2.3-4,4.6-8,6.9-12.1c6.4-11.3,12.8-22.5,19.2-33.8c0.7-1.3,1-2.5,1-4
			c0-9,0-18.1,0-27.1c0-0.6,0-1.1,0.2-1.6c1.1-2.3,2.1-4.7,3.1-7c1.5-3.5,3-6.9,4.6-10.4c0.2-0.1,0.2-0.3,0.2-0.5
			C92.2,78.6,92.2,78.4,92.2,78.2c0.1-0.1,0.1-0.2,0.2-0.3c-0.1,0-0.1-0.1-0.1-0.1C92.2,78,92.2,78.1,92.2,78.2z M95.8,225.1
			c0.2-0.2,0.4-0.4,0.5-0.7c2.7-4.7,5.4-9.4,8.1-14.2c6.4-11.4,12.9-22.8,19.3-34.1c0.6-1.1,0.9-2.1,0.8-3.3c0-9,0-18,0-27
			c0-0.7,0.2-1.4,0.4-2.1c1.8-3.9,3.5-7.9,5.3-11.8c0.6-1.4,1.4-2.7,1.7-4.3c-0.3-0.1-0.4,0.1-0.4,0.2c-2.5,4.5-5.1,8.9-7.6,13.3
			c-6.6,11.4-13,22.9-19.5,34.3c-0.4,0.7-0.5,1.3-0.5,2c0,9.2,0,18.5,0,27.7c0,0.7-0.1,1.3-0.4,2c-1.5,3.2-2.9,6.5-4.3,9.8
			C98,219.7,96.7,222.3,95.8,225.1c-0.2,0-0.3,0.1-0.3,0.3c0,0,0.1,0.1,0.1,0.1C95.7,225.4,95.7,225.3,95.8,225.1z M173.6,79.6
			c-0.4-0.1-0.5,0.1-0.6,0.3c-2.6,4.7-5.3,9.4-8,14.1c-6.4,11.3-12.8,22.5-19.2,33.8c-0.4,0.8-0.7,1.6-0.7,2.5c0,9.3,0,18.6,0,27.8
			c0,0.8-0.1,1.5-0.4,2.2c-2.1,4.7-4.2,9.5-6.3,14.2c-0.1,0.3-0.7,0.6-0.2,0.9c0.4,0.2,0.6-0.3,0.7-0.6c2.3-3.9,4.5-7.9,6.8-11.9
			c6.5-11.5,13-23,19.5-34.4c0.4-0.7,0.6-1.4,0.6-2.2c0-9.4,0-18.7,0-28.1c0-0.7,0.1-1.3,0.3-1.9c1.8-3.9,3.5-7.8,5.2-11.7
			C172.1,83,172.8,81.3,173.6,79.6z M131.9,166.4c-0.4,0.1-0.4,0.5-0.6,0.7c-2.7,4.6-5.3,9.3-8,13.9c-6.2,10.9-12.4,21.9-18.6,32.8
			c-0.6,1-0.8,2-0.8,3.2c0,9.2,0,18.4,0,27.6c0,0.6,0,1.1-0.3,1.6c-2.1,4.6-4.1,9.3-6.2,13.9c-0.3,0.7-0.8,1.4-0.8,2.3
			c0.6-0.6,1.1-1.3,1.5-2c2.1-3.6,4.2-7.2,6.2-10.8c6.6-11.6,13.2-23.2,19.7-34.8c0.4-0.6,0.5-1.3,0.5-2.1c0-9.4,0-18.7,0-28.1
			c0-0.6,0-1.2,0.3-1.8c2.3-5,4.5-10.1,6.7-15.1C131.8,167.4,132.1,167,131.9,166.4z M96.6,145.3c0.1,0.1,0.2,0.1,0.3,0.2
			c0.6-1,1.3-1.9,1.9-2.9c1.9-3.3,3.8-6.6,5.7-9.9c6.6-11.5,13.1-23.1,19.6-34.6c0.4-0.7,0.6-1.4,0.6-2.3c0-9.3,0-18.6,0-28
			c0-0.7,0.1-1.3,0.4-2c2.2-4.8,4.3-9.7,6.5-14.6c0.3-0.7,0.8-1.4,0.8-2.2c-0.4,0-0.4,0.3-0.5,0.5c-2.5,4.4-5.1,8.8-7.6,13.2
			C117.5,74.4,111,86,104.4,97.6c-0.3,0.6-0.5,1.2-0.5,1.9c0,8.5-0.1,17,0.1,25.5c0,2.5-0.4,4.8-1.5,7.1
			C100.3,136.5,98.5,140.9,96.6,145.3z M92.1,39c-0.3,0-0.3,0.1-0.4,0.2c-2.7,4.8-5.4,9.7-8.1,14.5c-6.6,11.8-13.2,23.7-19.9,35.5
			c-0.4,0.7-0.6,1.4-0.6,2.2c0,9.2,0,18.5,0,27.7c0,0.7-0.1,1.3-0.4,2c-2.1,4.6-4.1,9.3-6.2,13.9c-0.3,0.8-0.7,1.5-1,2.3
			c0.7-0.2,0.9-0.8,1.2-1.2c2.4-4.1,4.8-8.2,7.1-12.4c6.5-11.4,13-22.9,19.4-34.3c0.4-0.6,0.6-1.3,0.5-2c0-9.4,0-18.9,0-28.3
			c0-0.7,0.2-1.4,0.5-2.1c2.5-5.5,5-11.1,7.5-16.6C91.9,39.8,92.2,39.4,92.1,39z M55.5,215.2c0.7-0.4,0.9-0.8,1.2-1.2
			c2.5-4.2,4.9-8.5,7.4-12.8c6.5-11.2,12.8-22.5,19.2-33.8c0.4-0.6,0.5-1.3,0.5-2c0-9.2,0-18.5,0-27.7c0-0.7,0.1-1.4,0.4-2.1
			c2.3-5.1,4.6-10.2,6.8-15.3c0.2-0.4,0.5-0.8,0.3-1.3c-0.4,0.1-0.4,0.5-0.6,0.7c-2.5,4.3-5,8.7-7.4,13
			c-6.6,11.5-13.1,23.1-19.6,34.6c-0.4,0.7-0.6,1.4-0.6,2.1c0,9.2,0,18.4,0,27.6c0,0.6,0,1.1-0.2,1.6c-1.7,3.7-3.3,7.4-4.9,11.1
			C57.2,211.5,56.4,213.2,55.5,215.2z M55.6,253.9c0.6,0,0.6-0.3,0.7-0.4c2.4-4.2,4.9-8.3,7.3-12.5c6.5-11.5,13.1-23,19.6-34.5
			c0.4-0.8,0.6-1.5,0.6-2.4c0-9.2,0-18.3,0-27.5c0-0.7,0.1-1.3,0.4-2c2.2-4.9,4.3-9.7,6.5-14.6c0.2-0.4,0.5-0.7,0.1-1.3
			c-0.2,0.3-0.4,0.6-0.5,0.8c-2.4,4.2-4.8,8.4-7.2,12.6c-6.5,11.3-12.9,22.7-19.3,34c-0.4,0.7-0.6,1.4-0.6,2.1c0,9.3,0,18.6,0,27.8
			c0,0.6,0,1.1-0.3,1.6c-1.3,3-2.7,6-4,9C57.8,249,56.7,251.4,55.6,253.9z M137.6,253.9c0.7,0.1,0.8-0.4,0.9-0.8
			c2.4-4.1,4.8-8.2,7.1-12.4c6.6-11.5,13.1-23.1,19.6-34.6c0.4-0.7,0.6-1.4,0.6-2.2c0-9.2,0-18.4,0-27.6c0-0.7,0.1-1.3,0.4-2
			c1.9-4.2,3.8-8.5,5.6-12.7c0.3-0.6,0.7-1.1,0.4-1.8c-0.4,0.1-0.5,0.3-0.6,0.5c-2.3,3.8-4.4,7.6-6.6,11.4
			c-6.5,11.3-12.9,22.7-19.4,34.1c-0.4,0.7-0.6,1.4-0.6,2.1c0,9.3,0,18.6,0,27.8c0,0.7-0.1,1.3-0.4,2
			C142.3,243.2,140,248.5,137.6,253.9z M131.6,89.6c-0.6,0.4-0.8,0.8-1,1.1c-2.2,4.1-4.5,8-6.8,12c-6.5,11.3-12.8,22.7-19.3,34
			c-0.4,0.7-0.6,1.4-0.6,2.1c0,9.2,0,18.3,0,27.5c0,0.8-0.1,1.5-0.4,2.2c-1.8,4-3.6,8.1-5.4,12.2c-0.4,0.9-0.7,1.7-1.2,2.7
			c0.8-0.1,0.9-0.5,1.2-0.9c2.2-3.7,4.3-7.5,6.5-11.3c6.6-11.4,12.9-22.8,19.4-34.2c0.4-0.7,0.6-1.4,0.6-2.1c0-8.5,0-16.9-0.1-25.4
			c0-2.3,0.3-4.4,1.4-6.4c0.5-0.9,0.8-1.8,1.2-2.7C128.6,96.8,130.3,93.4,131.6,89.6z M92.3,234.2L92.3,234.2L92.3,234.2L92.3,234.2
			z M91.8,235.2C91.8,235.1,91.9,235.1,91.8,235.2c0.1-0.1,0-0.1,0-0.2C91.8,235,91.7,235.1,91.8,235.2
			C91.7,235.1,91.8,235.1,91.8,235.2z M92.1,234.6C92.1,234.6,92.1,234.6,92.1,234.6c-0.1-0.1-0.1,0-0.1,0
			C92,234.6,92,234.7,92.1,234.6C92.1,234.7,92.1,234.6,92.1,234.6z"></path>
	</g>
	<g onclick="select(this)" class="">
		<path d="M184.8,115.9c0.1-2.8,0.5-5.5,1-8.2c1.1-5,1.8-10,3.3-14.9c0.9-3.4,2.7-6.5,3.7-9.9c0.1-0.5,0.4-0.9,0.3-1.4
			c0.9-2.2,1.3-4.6,1.5-7c0.4-5.4,0.4-10.8,0.5-16.3c0-2.6,0.7-5.2,0.7-7.8c0-2.3,0.4-4.6,1-6.8c0.2-0.6,0.6-1.4-0.1-2.1
			c0.6-0.2,0.5-0.8,0.6-1.2c0.7-2.7,1.5-5.3,1.7-8.1c11.1,7.8,18,18.4,20.9,31.6c1,4.6,1.5,9.2,2.3,13.8c1,5.7,2.7,11.2,3.6,16.9
			c0.7,4.6,1.4,9.2,2.1,13.8c-0.4,0-0.9,0.1-1.3,0.3c-7.1,3.3-14.8,4.1-22.4,5c-5.8,0.7-11.7,0.3-17.5-0.4c-1-0.1-1.5-0.1-1.4,1.1
			C185.3,114.9,185.2,115.5,184.8,115.9z"></path>
		<path d="M40.9,100.6c0.2,1.2,0.4,2.3,0.6,3.5c0,0.6,0.1,1.3,0.2,1.9c0.3,2.4,0.8,4.8,0.8,7.3
			c-1.6-0.1-3.1,0.4-4.7,0.7c-4,0.7-8,0.4-12.1,0.4c-6.2-0.1-12.4-0.6-18.5-2.1c-2-0.5-4-1.2-6-1.8c1-4.7,1.6-9.4,2.3-14.2
			c0.9-6.5,1.9-13,2.7-19.5c0.7-6,1.7-11.9,3.4-17.6c2.9-9.7,7.9-18,15.9-24.3c0.7-0.6,1.3-1.3,2-1.9c0.3-0.3,0.6-0.7,1.1-0.6
			c0.1,0.2,0.2,0.4,0.2,0.7c-0.1,2.9,1,5.5,1.7,8.3c0.1,3,0.9,6,1.2,9.1c0.2,2.5,0.6,5,0.8,7.6c0.1,1.3-0.2,2.6,0.1,3.8
			c0.5,2.2,0.3,4.4,0.2,6.6c-0.1,2.3,0,4.7,0.3,7c0.1,1.1,0.3,2.1,0.8,3.1c0.6,2.2,1.8,4.2,2.5,6.4C38.3,89.9,40.1,95.1,40.9,100.6z
			"></path>
	</g>
	<g onclick="select(this)">
		<path d="M146.4,21.5c0.5-1.3,1.6-2,2.2-3.2c1-1.9,1.9-3.9,2.4-6c0.4-1.9-0.1-3.1-1.8-4c1.9-0.2,3.1,0.9,4.2,2.1
			c0.4,0.4,0.7,0.8,1.1,1c9.8,6.4,20.7,10.4,31.4,14.9c4.3,1.8,8.4,3.9,12.8,5.7c0.1,0.1,0.2,0.2,0.3,0.3c-0.3,2.8-1.1,5.4-1.7,8.1
			c-0.1,0.4-0.1,1-0.6,1.2c-0.1,0-0.3-0.1-0.4-0.1c-0.8-0.3-1.5-0.5-2.3-0.8c-2.7-1-5.6-1.8-8.4-2.5c-6.7-1.7-13.4-3.7-19.8-6.2
			c-2.6-1.1-5.2-2.3-7.8-3.4c-0.6-0.3-1.3-0.7-1.9-1c-1.8-1.1-3.7-2.2-5.5-3.4C149.1,23.4,147.8,22.4,146.4,21.5z"></path>
		<path d="M78.1,8c-1.8,0.9-2,2.4-1.7,4.2c0.5,2.9,1.8,5.5,3.6,7.8c0.4,0.5,0.8,1,1.1,1.5c-0.8,0.1-1.3,0.6-1.9,1.1
			c-1.6,0.8-3,1.8-4.5,2.8c-3.8,2.1-7.7,3.9-11.6,5.6c-6.5,2.5-13.2,4.5-20,6.2c-4.3,1.1-8.6,2.3-12.7,4.1c-0.7-2.7-1.8-5.4-1.7-8.3
			c0-0.2-0.1-0.4-0.2-0.7c0.3-0.7,1-0.8,1.6-1.1c9.4-4.7,19.4-8.2,28.9-12.7c4.6-2.2,9.1-4.4,13.4-7.1c0.6-0.3,1-0.7,1.4-1.2
			C75,8.9,76.3,7.9,78.1,8z"></path>
	</g>
</g>
<g onclick="select(this)" class="" id="detalhe-punho" fill="#082890">
	<path d="M0.2,114.5c0.7-1.2,0.4-2.7,0.9-3.9c2,0.6,4,1.3,6,1.8c6.1,1.5,12.3,2,18.5,2.1c4,0,8.1,0.3,12.1-0.4
		c1.6-0.3,3.1-0.8,4.7-0.7c0.5,1.1,0.6,2.2,0.5,3.4c0.1,1.3,0.3,2.6,0.2,3.8c-2.6,1.4-5.5,1.7-8.4,1.8c-10,0.5-20,0.1-29.8-2.5
		c-1.7-0.4-3.3-1-4.8-1.7C0.2,116.9,0.2,115.7,0.2,114.5z"></path>
	<path d="M184.8,115.9c0.4-0.4,0.5-1.1,0.4-1.6c-0.1-1.2,0.4-1.2,1.4-1.1c5.8,0.8,11.7,1.1,17.5,0.4
		c7.6-0.9,15.3-1.7,22.4-5c0.4-0.2,0.8-0.3,1.3-0.3c1.1,2.3,1.2,4.8,1.1,7.4c0,0.7-0.8,0.8-1.3,1c-2.8,1.1-5.8,1.9-8.7,2.6
		c-8.8,2.3-17.7,2.8-26.7,2.4c-1.8-0.1-3.5-0.4-5.2-0.7c-0.9-0.1-1.7-0.4-2.4-0.9C184.4,118.8,184.8,117.4,184.8,115.9z"></path>
</g>
<path d="M185.5,247.4c0-0.1-0.1-0.1-0.1-0.2c0,0,0-0.1,0-0.1c0,0.1,0.1,0.1,0.1,0.2
	C185.5,247.4,185.5,247.4,185.5,247.4z"></path>
<path d="M50,50.3c0.1-0.1,0.2-0.2,0.2-0.3c0.2,0.2,0.1,0.3-0.1,0.4C50.2,50.4,50.1,50.3,50,50.3z"></path>
<g onclick="select(this)" class="" id="estampa-secundaria" fill="#ffffff">
	<path d="M92.1,273.8c0-0.1,0.1-0.2,0.1-0.3c0,0,0.1,0.1,0.1,0.1C92.3,273.7,92.2,273.8,92.1,273.8
		C92.2,273.9,92.1,273.8,92.1,273.8z"></path>
	<path d="M137,216.4c0.1-0.2,0.1-0.3,0.2-0.5c0.1,0,0.1,0.1,0.1,0.1C137.3,216.2,137.2,216.4,137,216.4
		C137.1,216.5,137,216.5,137,216.4z"></path>
	<path d="M137.1,216.5c0,0.2-0.1,0.4-0.3,0.4l0,0c0-0.2,0-0.4,0.2-0.5C137,216.5,137.1,216.5,137.1,216.5z"></path>
	<path d="M136.8,217c0,0.1,0,0.2-0.1,0.3c-0.1,0-0.1-0.1-0.1-0.1C136.7,217.1,136.7,217,136.8,217
		C136.8,217,136.8,217,136.8,217z"></path>
	<path d="M92,78.8c0,0.2,0,0.4-0.2,0.5c-0.1,0-0.1-0.1-0.2-0.1C91.7,79,91.8,78.8,92,78.8C91.9,78.7,92,78.8,92,78.8z"></path>
	<path d="M92.2,78.2c0,0.2,0,0.4-0.2,0.5l-0.1-0.1C91.9,78.5,91.9,78.3,92.2,78.2L92.2,78.2z"></path>
	<path d="M92.2,78.2c0-0.1,0-0.2,0.1-0.3c0.1,0,0.1,0.1,0.1,0.1C92.3,78.1,92.2,78.2,92.2,78.2L92.2,78.2z"></path>
	<path d="M136.8,61c0,0.1-0.1,0.2-0.1,0.3c0,0-0.1-0.1-0.1-0.1C136.6,61.1,136.7,61,136.8,61
		C136.8,60.9,136.8,61,136.8,61z"></path>
	<path d="M140.9,285.8c1.2-2.7,2.3-5.4,3.5-8c0.5-1.1,0.8-2.2,0.8-3.5c0-9.2,0-18.3,0-27.5c0-0.8,0.2-1.4,0.5-2
		c6.5-11.4,12.9-22.8,19.4-34.2c2.4-4.2,4.8-8.4,7.2-12.6c0.1-0.2,0.2-0.4,0.4-0.4c0.3,0.2,0.1,0.4,0.1,0.6c-2.2,5-4.4,10-6.6,15
		c-0.3,0.6-0.4,1.2-0.4,1.9c0,9.2,0,18.3,0,27.5c0,1.2-0.2,2.2-0.8,3.3c-6.5,11.4-12.9,22.7-19.4,34.1c-1.1,2-2.2,3.9-3.3,5.8
		C141.8,285.9,141.4,285.9,140.9,285.8z"></path>
	<path d="M59.3,285.1c1.1-2.6,2.2-5.1,3.4-7.7c0.3-0.8,0.5-1.5,0.5-2.3c0-9.4,0-18.7,0-28.1c0-0.7,0.1-1.3,0.5-1.9
		c6.6-11.6,13.1-23.1,19.7-34.7c2.7-4.7,5.4-9.4,8.1-14.2c0.1-0.2,0.2-0.3,0.3-0.5c0.4,0.3,0.1,0.6,0,0.8c-2.5,5.6-5,11.2-7.5,16.8
		c-0.3,0.7-0.4,1.4-0.4,2.1c0,9.4,0,18.7,0,28.1c0,0.6,0,1.2-0.4,1.7c-6.6,11.6-13.2,23.2-19.8,34.8c-1,1.7-1.9,3.4-2.9,5.1
		C60.3,285.2,59.8,285.1,59.3,285.1z"></path>
	<path d="M104,286.1c0-4.6,0-9.2,0-13.8c0-5.4,0-10.9,0-16.3c0-0.8,0.2-1.6,0.6-2.3c8.7-15.2,17.3-30.4,25.9-45.7
		c0.4-0.6,0.7-1.2,1.1-2c0.3,0.8,0,1.2-0.2,1.6c-2.1,4.7-4.1,9.4-6.2,14c-0.4,0.8-0.6,1.6-0.6,2.5c0,9.4,0,18.7,0,28.1
		c0,0.7-0.1,1.3-0.5,1.9c-5.8,10.3-11.7,20.7-17.4,31c-0.5,0.9-1.3,0.8-2,0.9C104.4,286.1,104.2,286.1,104,286.1z"></path>
	<path d="M145.2,285.8c-0.1-0.5,0.1-0.9,0.3-1.2c8.6-15.1,17.1-30.2,25.6-45.3c0.2-0.3,0.3-0.8,0.8-0.9
		c0.3,0.5,0.1,1-0.1,1.4c-1.9,4.2-3.7,8.4-5.6,12.6c-0.3,0.7-0.4,1.3-0.4,2.1c0,9.1,0,18.2,0,27.4c0,1.3-0.1,2.5-0.8,3.5
		c-0.6,0.3-1.3,0.2-1.9,0.2C157.1,285.6,151.2,285.7,145.2,285.8z"></path>
	<path d="M63.3,285.3c0.7-1.9,1.9-3.6,2.9-5.4c8.2-14.5,16.3-28.9,24.5-43.3c0.2-0.3,0.4-0.5,0.6-0.8
		c0.1,0.1,0.1,0.1,0.2,0.1c-1.5,3.5-3,6.9-4.6,10.4c-1,2.2-1.9,4.4-2.9,6.6c-0.2,0.5-0.2,1-0.2,1.5c0,9.1,0,18.2,0,27.3
		c0,1.4-0.1,2.6-0.9,3.8c-4.2,0.1-8.4,0-12.6-0.1C68,285.4,65.7,285.4,63.3,285.3z"></path>
	<path d="M108.9,286.3c0.2-1.3,1.1-2.3,1.7-3.4c6.6-11.8,13.2-23.7,19.8-35.5c0.1-0.2,0.1-0.4,0.5-0.4
		c0.4,0.7-0.1,1.3-0.4,1.8c-1.9,4.3-3.7,8.5-5.6,12.7c-0.3,0.6-0.4,1.2-0.4,1.9c0,7.1,0,14.2,0,21.4c0,0.5,0,1-0.1,1.6
		C119.3,286.5,114.1,286.8,108.9,286.3z"></path>
	<path d="M41.5,260.7c2.3-4.1,4.6-8.1,6.9-12.2c0.4-0.7,0.8-1.4,1.3-2.3c0.4,0.8,0,1.3-0.2,1.8c-2,4.5-3.9,8.9-5.9,13.4
		c-0.3,0.6-0.4,1.3-0.4,2c0,6.5,0,13,0,19.5c-2.6-0.6-3-1.1-2.9-3.8c0.1-5.8,0.8-11.5,1.1-17.3C41.4,261.4,41.5,261.1,41.5,260.7z"></path>
	<path d="M42.7,220.5c-0.1-1.1,0.4-2,0.9-2.9c2.7-4.7,5.3-9.4,7.9-14.1c0.1-0.2,0.3-0.4,0.6-0.5c-0.5,1.1-1,2.2-1.5,3.3
		c-2.4,5.4-4.8,10.7-7.2,16.1c-0.4,0.8-0.1,1.7-0.4,2.4C42.9,223.4,42.8,222,42.7,220.5z"></path>
	<path d="M185.8,283c0-7.5,0-15,0.1-22.5c0.3,3.6,0.5,7.2,0.9,10.7c0.3,3.1,0.6,6.3,0.7,9.4
		C187.5,281.8,187.1,282.7,185.8,283z"></path>
	<path d="M185.6,248.7c0.2,1.5-0.4,2.7-1.1,3.9c-2,3.5-4,7.1-6,10.6c-0.2,0.4-0.3,0.8-1,1c0.7-1.7,1.4-3.2,2.1-4.8
		c1.8-4.1,3.7-8.3,5.5-12.4c0-0.1,0.1-0.2,0.2-0.3c0,0.1,0.1,0.2,0.1,0.3c0,0-0.1,0.1,0,0.1c0,0.1,0.1,0.1,0.1,0.2
		C185.5,247.9,185.5,248.3,185.6,248.7z"></path>
	<path d="M184,214.1c-1.4,2.4-2.7,4.9-4.1,7.3c-0.2,0.3-0.4,0.6-0.5,0.9c-0.1,0.2-0.3,0.6-0.6,0.4
		c-0.4-0.2-0.1-0.5,0.1-0.7c0.6-1.5,1.3-3,2-4.5c1.2-2.7,2.5-5.4,3.7-8.2C184.4,210.9,184.4,212.5,184,214.1z"></path>
	<path d="M43.2,242.4c0,3.4,0,6.9,0,10.4c0,1.2-0.9,2-1.4,3c0.3-4.4,0-8.8,0.6-13.2c0-0.1,0.1-0.3,0.2-0.4
		C42.8,242.4,43,242.4,43.2,242.4z"></path>
	<path d="M45.2,136.8c1.7-3,3.4-6.1,5.2-9.1c0.1,0.1,0.3,0.1,0.4,0.2c-1.8,4-3.4,8.1-5.4,12c0-0.3,0-0.5-0.1-0.8
		c0.1-0.5,0.1-1-0.1-1.5C45.2,137.3,45.2,137.1,45.2,136.8z"></path>
	<path d="M45.4,175.1c1.7-2.9,3.3-5.8,5-8.6c0.1,0.1,0.2,0.1,0.3,0.1c-1.4,3.9-3.3,7.5-4.9,11.3c-0.4,0-0.2-0.4-0.4-0.5
		C45.3,176.6,45.3,175.8,45.4,175.1z"></path>
	<path d="M167.6,285.3c1.7-3,3.3-6.1,5-9.1c0.5-0.9,0.9-1.7,1.7-2.4c-1.6,3.8-3.3,7.6-4.9,11.4
		C168.7,285.4,168.1,285.4,167.6,285.3z"></path>
	<path d="M85.5,285.6c1.4-3,3.2-5.9,4.8-8.8c0.6-1,1-2.2,1.8-3l0.1,0c-1.2,2.7-2.3,5.3-3.5,8c-0.3,0.8-0.8,1.6-1.1,2.4
		c-0.3,1-0.9,1.5-2,1.4L85.5,285.6L85.5,285.6z"></path>
	<path d="M182.6,139.1c-1.1,1.6-2,3.4-3,5.1c-0.4,0.6-0.6,1.4-1.3,1.8c-0.4-0.2-0.2-0.4-0.1-0.5
		c1.4-3.2,2.9-6.4,4.3-9.6c0.1-0.2,0.3-0.3,0.4-0.4C182.9,136.6,183,137.9,182.6,139.1z"></path>
	<path d="M182.4,178.3c-1.1,1.8-2.1,3.7-3.2,5.5c-0.1,0.3-0.3,0.7-0.7,0.5c-0.5-0.2,0-0.5,0.1-0.8
		c1.3-2.8,2.3-5.6,3.8-8.3C182.5,176.2,182.5,177.3,182.4,178.3z"></path>
	<path d="M43.2,242.4c-0.2,0-0.4-0.1-0.5-0.3c0.3-2.1-0.1-4.1-0.3-6.2c-0.2-2.4,0.1-4.8,0.7-7.2
		C43.2,233.4,43.2,237.9,43.2,242.4z"></path>
	<path d="M45.2,137.6c0.2,0.5,0.2,1,0.1,1.5C45.1,138.6,45.1,138.1,45.2,137.6z"></path>
	<path d="M42.4,113.3c0-2.5-0.5-4.9-0.8-7.3c-0.1-0.6-0.1-1.3-0.2-1.9c3.2-5,5.8-10.2,8.9-15.3c0.4,0.5,0.1,0.9,0,1.2
		c-2.3,5.1-4.5,10.2-6.8,15.3c-0.3,0.6-0.4,1.1-0.4,1.7c0,2.8,0,5.6,0,8.4c0,0.4,0.2,0.9-0.2,1.2C43,115.5,42.9,114.3,42.4,113.3z"></path>
	<path d="M91.7,79.3c-1.5,3.5-3,6.9-4.6,10.4c-1,2.3-2.1,4.7-3.1,7c-0.3,0.5-0.2,1.1-0.2,1.6c0,9,0,18.1,0,27.1
		c0,1.4-0.3,2.7-1,4c-6.4,11.2-12.8,22.5-19.2,33.8c-2.3,4-4.6,8.1-6.9,12.1c-0.3,0.5-0.6,1-0.9,1.5c-0.1-0.1-0.2-0.1-0.3-0.1
		c0.5-1.2,1-2.3,1.5-3.5c1.8-4.1,3.7-8.3,5.5-12.4c0.4-0.9,0.6-1.8,0.6-2.8c0-9.3,0-18.6,0-27.8c0-0.8,0.2-1.4,0.5-2
		c6.4-11.3,12.8-22.7,19.3-34c2.8-5,5.8-10,8.6-14.9C91.6,79.2,91.7,79.2,91.7,79.3z"></path>
	<path d="M173.6,79.6c-0.7,1.7-1.4,3.4-2.2,5.1c-1.7,3.9-3.5,7.8-5.2,11.7c-0.3,0.6-0.3,1.2-0.3,1.9
		c0,9.4,0,18.7,0,28.1c0,0.8-0.2,1.5-0.6,2.1c-6.5,11.5-13,22.9-19.5,34.4c-2.3,4-4.5,7.9-6.8,11.9c-0.2,0.3-0.3,0.8-0.7,0.6
		c-0.5-0.3,0.1-0.6,0.2-0.9c2.1-4.8,4.2-9.5,6.3-14.2c0.3-0.7,0.5-1.4,0.4-2.2c0-9.3,0-18.6,0-27.8c0-0.9,0.2-1.7,0.7-2.5
		c6.4-11.3,12.8-22.5,19.2-33.8c2.7-4.7,5.4-9.3,8-14.1C173.1,79.7,173.1,79.4,173.6,79.6z"></path>
	<path d="M131.9,166.4c0.2,0.6-0.1,1-0.4,1.4c-2.2,5.1-4.5,10.1-6.7,15.1c-0.3,0.6-0.3,1.1-0.3,1.8c0,9.4,0,18.7,0,28.1
		c0,0.7-0.1,1.4-0.5,2.1c-6.6,11.6-13.2,23.2-19.7,34.8c-2.1,3.6-4.1,7.2-6.2,10.8c-0.4,0.7-0.9,1.4-1.5,2c0-0.9,0.5-1.5,0.8-2.3
		c2.1-4.6,4.1-9.3,6.2-13.9c0.2-0.5,0.3-1.1,0.3-1.6c0-9.2,0-18.4,0-27.6c0-1.2,0.3-2.2,0.8-3.2c6.2-10.9,12.4-21.9,18.6-32.8
		c2.6-4.7,5.3-9.3,8-13.9C131.5,166.9,131.5,166.5,131.9,166.4z"></path>
	<path d="M96.6,145.3c1.9-4.4,3.8-8.8,5.9-13.1c1.1-2.3,1.6-4.6,1.5-7.1c-0.1-8.5,0-17-0.1-25.5c0-0.7,0.1-1.3,0.5-1.9
		c6.6-11.6,13.2-23.2,19.7-34.8c2.5-4.4,5.1-8.8,7.6-13.2c0.1-0.2,0.1-0.5,0.5-0.5c0,0.8-0.5,1.5-0.8,2.2c-2.1,4.9-4.3,9.7-6.5,14.6
		c-0.3,0.6-0.4,1.3-0.4,2c0,9.3,0,18.6,0,27.9c0,0.8-0.2,1.6-0.6,2.3c-6.6,11.5-13.1,23.1-19.6,34.6c-1.9,3.3-3.8,6.6-5.7,9.9
		c-0.6,1-1.2,2-1.9,2.9C96.7,145.4,96.6,145.4,96.6,145.3z"></path>
	<path d="M137,138.4c1.2-2.7,2.3-5.4,3.5-8c1.4-3.2,2.9-6.4,4.3-9.6c0.3-0.6,0.4-1.3,0.4-2c0-9.2,0-18.4,0-27.6
		c0-0.8,0.2-1.6,0.6-2.3c9-16,18-32.1,26.9-48.1c0.4-0.6,0.5-1.4,1.4-1.8c-0.4,0.9-0.7,1.9-1.1,2.8c-2.2,5-4.5,10-6.8,15
		c-0.3,0.7-0.4,1.3-0.4,2.1c0,9.4,0,18.9,0,28.3c0,0.8-0.2,1.4-0.6,2c-6.4,11.3-12.8,22.5-19.2,33.8c-2.9,5-5.7,10.1-8.6,15.1
		C137.4,138.2,137.2,138.4,137,138.4C137.1,138.5,137,138.4,137,138.4z"></path>
	<path d="M92.1,39c0.1,0.5-0.2,0.9-0.3,1.3c-2.5,5.5-5,11.1-7.5,16.6c-0.3,0.7-0.5,1.3-0.5,2.1c0,9.4,0,18.9,0,28.3
		c0,0.8-0.2,1.4-0.5,2c-6.5,11.4-13,22.9-19.5,34.3c-2.3,4.1-4.7,8.3-7.1,12.4c-0.3,0.5-0.5,1-1.2,1.2c0.3-0.8,0.7-1.5,1-2.3
		c2.1-4.6,4.1-9.3,6.2-13.9c0.3-0.6,0.4-1.3,0.4-2c0-9.2,0-18.5,0-27.7c0-0.8,0.2-1.5,0.6-2.2c6.6-11.8,13.2-23.6,19.8-35.5
		c2.7-4.8,5.4-9.7,8.1-14.5C91.8,39,91.8,38.9,92.1,39z"></path>
	<path d="M95.7,225.1c1-2.8,2.3-5.4,3.5-8c1.4-3.3,2.9-6.5,4.3-9.8c0.3-0.6,0.4-1.3,0.4-2c0-9.2,0-18.5,0-27.7
		c0-0.7,0.2-1.4,0.5-2c6.5-11.4,12.9-22.9,19.5-34.3c2.6-4.4,5.1-8.9,7.6-13.3c0.1-0.2,0.2-0.3,0.4-0.2c-0.3,1.5-1.1,2.9-1.7,4.3
		c-1.7,4-3.5,7.9-5.3,11.8c-0.3,0.7-0.4,1.3-0.4,2.1c0,9,0,18,0,27c0,1.2-0.3,2.2-0.8,3.3c-6.5,11.4-12.9,22.7-19.3,34.1
		c-2.7,4.7-5.4,9.4-8.1,14.2C96.2,224.7,96,224.9,95.7,225.1L95.7,225.1z"></path>
	<path d="M137.2,216c1.4-3.2,2.8-6.4,4.2-9.7c1.1-2.5,2.2-5,3.3-7.4c0.3-0.7,0.4-1.4,0.4-2.1c0-9.2,0-18.3,0-27.5
		c0-0.7,0.1-1.4,0.5-2c6.6-11.5,13.1-23.1,19.6-34.6c2.2-3.9,4.4-7.7,6.6-11.6c0.1-0.2,0.2-0.6,0.6-0.5c0.1,0.9-0.4,1.6-0.7,2.3
		c-1.9,4.3-3.7,8.5-5.6,12.7c-0.3,0.6-0.4,1.3-0.4,2c0,9,0,18.1,0,27.1c0,1.2-0.2,2.1-0.8,3.2c-6.4,11.3-12.8,22.7-19.3,34
		c-2.5,4.4-5,8.8-7.6,13.2c-0.2,0.4-0.5,0.7-0.7,1.1C137.3,216,137.3,216,137.2,216z"></path>
	<path d="M55.5,215.2c0.9-2,1.7-3.7,2.4-5.4c1.6-3.7,3.3-7.4,4.9-11.1c0.2-0.5,0.2-1.1,0.2-1.6c0-9.2,0-18.4,0-27.6
		c0-0.8,0.2-1.5,0.6-2.1c6.6-11.5,13.1-23.1,19.6-34.6c2.5-4.4,5-8.7,7.4-13c0.2-0.3,0.2-0.6,0.6-0.7c0.2,0.5-0.1,0.9-0.3,1.3
		c-2.3,5.1-4.5,10.2-6.8,15.3c-0.3,0.7-0.4,1.3-0.4,2.1c0,9.2,0,18.5,0,27.7c0,0.8-0.2,1.4-0.5,2c-6.4,11.3-12.7,22.6-19.2,33.8
		c-2.5,4.3-4.9,8.5-7.4,12.8C56.5,214.4,56.3,214.8,55.5,215.2z"></path>
	<path d="M55.6,253.9c1.1-2.5,2.2-4.9,3.2-7.2c1.3-3,2.7-6,4-9c0.2-0.5,0.3-1.1,0.3-1.6c0-9.3,0-18.6,0-27.8
		c0-0.8,0.2-1.5,0.6-2.1c6.4-11.3,12.8-22.7,19.3-34c2.4-4.2,4.8-8.4,7.2-12.6c0.2-0.3,0.3-0.5,0.5-0.8c0.4,0.6,0,0.9-0.1,1.3
		c-2.1,4.9-4.3,9.7-6.5,14.6c-0.3,0.6-0.4,1.3-0.4,2c0,9.2,0,18.3,0,27.5c0,0.9-0.2,1.6-0.6,2.4c-6.5,11.5-13,23-19.6,34.5
		c-2.4,4.2-4.8,8.4-7.3,12.5C56.2,253.6,56.2,253.9,55.6,253.9z"></path>
	<path d="M137.6,253.9c2.4-5.4,4.8-10.7,7.1-16c0.3-0.6,0.4-1.3,0.4-2c0-9.3,0-18.6,0-27.8c0-0.8,0.2-1.5,0.6-2.1
		c6.4-11.4,12.8-22.8,19.4-34.1c2.2-3.8,4.4-7.6,6.6-11.4c0.1-0.2,0.2-0.5,0.6-0.5c0.3,0.7-0.2,1.3-0.4,1.8
		c-1.9,4.2-3.7,8.5-5.6,12.7c-0.3,0.6-0.4,1.3-0.4,2c0,9.2,0,18.4,0,27.6c0,0.8-0.2,1.5-0.6,2.2c-6.6,11.5-13.1,23.1-19.6,34.6
		c-2.4,4.1-4.7,8.3-7.1,12.4C138.3,253.4,138.3,253.9,137.6,253.9z"></path>
	<path d="M131.6,89.6c-1.3,3.8-3,7.2-4.4,10.6c-0.4,0.9-0.8,1.8-1.2,2.7c-1.1,2-1.4,4.1-1.4,6.4
		c0.1,8.5,0,16.9,0.1,25.4c0,0.8-0.2,1.5-0.6,2.1c-6.5,11.4-12.9,22.8-19.4,34.2c-2.2,3.8-4.3,7.6-6.5,11.3
		c-0.2,0.4-0.4,0.9-1.2,0.9c0.4-1,0.8-1.8,1.2-2.7c1.8-4.1,3.6-8.1,5.4-12.2c0.3-0.7,0.4-1.4,0.4-2.2c0-9.2,0-18.3,0-27.5
		c0-0.8,0.2-1.5,0.6-2.1c6.4-11.3,12.8-22.7,19.3-34c2.3-4,4.6-7.9,6.8-12C130.7,90.4,130.9,90,131.6,89.6z"></path>
	<path d="M79.3,22.6c0.6-0.5,1.1-1,1.9-1.1c0.9,0.9,1.7,1.8,2.6,2.7c0,8,0,16.1,0,24.1c0,0.6-0.2,1-0.5,1.5
		c-8.8,15.7-17.6,31.3-26.3,47c-0.3,0.5-0.6,1-1.2,1.3c0.2-0.5,0.3-1,0.5-1.4c2.2-4.9,4.4-9.8,6.6-14.7c0.2-0.5,0.2-1.1,0.2-1.6
		c0-9.4,0-18.8,0-28.2c0-0.8,0.2-1.5,0.6-2.3c5-8.7,10-17.5,15-26.2C79,23.4,79.1,23,79.3,22.6z"></path>
	<path d="M118.2,36.5c2.1-0.2,4.2-0.5,6.3-1.1c0.2,0.4,0.1,0.8,0.1,1.2c0,6.8,0,13.6,0,20.4c0,0.6-0.1,1.1-0.4,1.6
		c-6.7,11.7-13.3,23.4-19.9,35.1c-2.1,3.7-4.2,7.3-6.3,11c-0.1,0.1-0.2,0.3-0.2,0.4c-0.1,0.2-0.3,0.4-0.6,0.3
		c-0.3-0.2-0.1-0.4,0-0.6c0.9-2,1.8-4.1,2.7-6.1c1.3-2.8,2.5-5.6,3.8-8.4c0.2-0.5,0.3-1.1,0.3-1.6c0-9.2,0-18.4,0-27.6
		c0-0.8,0.2-1.5,0.6-2.3c4.1-7.1,8.1-14.1,12.2-21.2C117,36.8,117.5,36.5,118.2,36.5z"></path>
	<path d="M158,28.6c2.6,1.1,5.2,2.3,7.8,3.4c0,5.5,0,10.9,0.1,16.4c0,0.4-0.2,0.8-0.4,1.1
		c-8.9,15.9-17.8,31.7-26.7,47.6c-0.2,0.3-0.3,0.8-0.9,0.7c1.2-2.8,2.4-5.5,3.6-8.2c1-2.2,1.9-4.3,2.9-6.4c0.6-1.3,0.8-2.6,0.8-4
		c0-9,0-18.1,0-27.1c0-0.6,0-1.1,0.3-1.6C149.6,43.2,153.8,35.9,158,28.6z"></path>
	<path d="M196.3,41.5c0.1,0,0.3,0.1,0.4,0.1c0.7,0.7,0.3,1.5,0.1,2.1c-0.6,2.3-1,4.6-1,6.8c0,2.6-0.7,5.2-0.7,7.8
		c0,5.4,0,10.8-0.5,16.3c-0.2,2.4-0.6,4.8-1.5,7c-1.8,2.6-3.1,5.4-4.7,8.1c-3.1,5.3-6.1,10.6-9.1,15.9c-0.2,0.3-0.2,0.8-0.8,0.8
		c-0.3-0.2-0.1-0.4,0-0.6c2.3-5.3,4.7-10.5,7-15.8c0.2-0.5,0.2-0.9,0.2-1.4c0-9.2,0-18.4,0-27.6c0-0.9,0.2-1.6,0.6-2.4
		c3.2-5.6,6.4-11.1,9.6-16.7C196,41.7,196.1,41.6,196.3,41.5z"></path>
	<path d="M30.5,41.3c4.1-1.8,8.3-3,12.7-4.1c0,6.7,0,13.4,0,20c0,0.4-0.1,0.7-0.3,1c-3.1,5.5-6.2,11-9.4,16.5
		c-0.1,0.2-0.2,0.5-0.5,0.6c-0.3-2.3-0.4-4.7-0.3-7c0.1-2.2,0.3-4.4-0.2-6.7c-0.3-1.2,0-2.5-0.1-3.8c-0.2-2.5-0.6-5.1-0.8-7.6
		C31.4,47.3,30.7,44.3,30.5,41.3z"></path>
	<path d="M40.9,100.6c-0.8-5.5-2.5-10.6-4.5-15.8c-0.8-2.2-1.9-4.2-2.5-6.4c2.2-3.9,4.5-7.8,6.7-11.7
		c3-5.2,6-10.5,9-15.7c0.1-0.2,0.3-0.4,0.5-0.7c0,0,0.1,0.1,0.1,0.1c0.1,0.5-0.1,0.9-0.3,1.3c-2.1,4.7-4.2,9.4-6.3,14.1
		c-0.3,0.6-0.4,1.3-0.4,1.9c0,9.4,0,18.9,0,28.3C43.2,97.9,42.1,99.3,40.9,100.6z"></path>
	<path d="M146.4,21.5c1.4,0.9,2.7,1.9,4.1,2.8c1.8,1.1,3.7,2.2,5.5,3.4c-1.4,3-3.2,5.8-4.9,8.6
		c-4.6,8-9.2,16.1-13.8,24.1c-0.1,0.2-0.2,0.5-0.5,0.6l-0.1,0c1.2-2.7,2.4-5.5,3.6-8.2c1.4-3.2,2.8-6.4,4.3-9.6
		c0.4-0.8,0.5-1.6,0.5-2.5c-0.1-5.5,0.1-10.9-0.1-16.4c0-0.4,0.1-0.9,0.1-1.3C145.5,22.4,146,21.9,146.4,21.5z"></path>
	<path d="M104,35.5c1.8,0.3,3.5,0.7,5.3,0.8c1.7,0.5,3.4,0.4,5.3,0.5c-6,10.5-11.8,20.8-17.7,31.1
		c-0.5-0.4-0.3-0.6-0.2-0.8c2.3-5.3,4.7-10.5,7-15.8c0.2-0.5,0.2-0.9,0.2-1.4c0-4.4,0-8.7,0-13.1C103.9,36.4,103.8,35.9,104,35.5z"></path>
	<path d="M63.2,31c3.9-1.7,7.8-3.6,11.6-5.6c0.9,0.1,0.3,0.6,0.2,0.9c-1.4,2.5-2.8,5-4.3,7.5c-4.6,8-9.2,15.9-13.7,23.9
		c-0.3,0.5-0.5,1.1-1,1.4c-0.4-0.3-0.2-0.5-0.1-0.7c2.3-5.1,4.5-10.2,6.8-15.3c0.3-0.7,0.5-1.4,0.5-2.2C63.1,37.6,63.2,34.3,63.2,31
		z"></path>
	<path d="M185.6,38.2c2.9,0.7,5.7,1.4,8.4,2.5c-1,2.5-2.5,4.7-3.8,7c-3.1,5.5-6.3,11-9.4,16.6c-0.5,0.9-0.9,1.8-1.9,2.6
		c-0.1-0.7,0.2-1.1,0.4-1.5c2-4.5,4.1-9.1,6.1-13.7c0.2-0.4,0.4-0.9,0.4-1.4c0-3.5,0-7,0-10.5C185.7,39.3,185.6,38.7,185.6,38.2z"></path>
	<path d="M189.1,92.8c-1.4,4.9-2.2,10-3.3,14.9c0-2.9,0-5.8-0.1-8.6c0-0.4,0.1-0.8,0.3-1.1
		C187,96.2,188,94.5,189.1,92.8z"></path>
	<path d="M137.1,138.5c0,0.2-0.1,0.4-0.3,0.4l0,0C136.8,138.8,136.8,138.6,137.1,138.5
		C137,138.4,137.1,138.5,137.1,138.5z"></path>
	<path d="M95.8,225.1c-0.1,0.1-0.1,0.2-0.2,0.4c0,0-0.1,0-0.1-0.1C95.5,225.3,95.6,225.2,95.8,225.1
		C95.7,225.1,95.8,225.1,95.8,225.1z"></path>
	<path d="M91.3,235.8c0.1-0.1,0.2-0.2,0.3-0.3c0.2,0.2,0.1,0.4-0.1,0.5C91.4,235.9,91.4,235.9,91.3,235.8z"></path>
	<path d="M136.8,139c0,0.1,0,0.2-0.1,0.3c-0.1,0-0.1-0.1-0.1-0.1C136.7,139.1,136.7,139,136.8,139L136.8,139z"></path>
	<polygon class="st5" points="92.3,234.2 92.3,234.1 92.3,234.1 	"></polygon>
	<path d="M91.8,235.2C91.8,235.1,91.7,235.1,91.8,235.2c-0.1-0.1,0-0.1,0-0.2C91.8,235,91.9,235.1,91.8,235.2
		C91.9,235.1,91.8,235.1,91.8,235.2z"></path>
	<path d="M92.1,234.6C92.1,234.6,92,234.7,92.1,234.6c-0.1,0.1-0.1,0-0.1,0C92,234.6,92,234.6,92.1,234.6
		C92.1,234.6,92.1,234.6,92.1,234.6z"></path>
</g>
</svg>
