<!--?xml version="1.0" encoding="utf-8"?-->
<!-- Generator: Adobe Illustrator 24.2.3, SVG Export Plug-In . SVG Version: 6.00 Build 0)  -->
<svg version="1.1" id="Camada_1" xmlns="http://www.w3.org/2000/svg" xmlns:xlink="http://www.w3.org/1999/xlink" x="0px" y="0px" viewBox="0 0 229 418" enable-background="new 0 0 229 418" xml:space="preserve">
<g onclick="select(this)" class="" id="estampa-primaria" fill="#000000">
	<path d="M43.184227,120.3591003c-0.1574593-1.9019699-0.2635918-3.8100281-0.4886246-5.7039795
		c-0.1797981-1.5132675-0.3913536-1.6106033-1.9219894-1.3255692c-1.0546684,0.1964035-2.1054993,0.4133453-3.1596031,0.6128845
		c-3.7236557,0.7048569-7.4897099,0.4062195-11.2349834,0.3948441c-6.4752865-0.0196609-12.9171953-0.5751572-19.2143612-2.1471405
		c-2.0026436-0.499939-4.0013113-1.0857773-5.9778385-1.7141418c1.020895-4.8060684,1.6644146-9.6716461,2.3388951-14.5333023
		c0.872649-6.2900543,1.9116194-12.5599365,2.6439087-18.8657761c0.7765994-6.6873932,1.853642-13.2944374,3.974463-19.697525
		c2.9442616-8.8891754,7.7607107-16.5268593,15.1724825-22.392849c1.1417255-0.9036102,1.9524097-2.1724854,3.2811241-2.8633461
		c3.6190052-1.8817024,7.2620258-3.7168369,11.0347271-5.271349c9.9860153-4.1146584,19.9939613-8.1792221,29.4552879-13.4397125
		c1.9744034-1.0977669,3.9967499-2.0936747,5.5144348-3.8991308c0.8429108-1.0027447,2.0579147-1.6459785,3.4937134-1.5504146
		c-1.6598358,0.9146581-2.0019836,2.3754401-1.6840515,4.0964561c0.3956909,2.1419916,1.0861511,4.1798086,2.3278809,5.9871454
		c5.9329224,8.6352997,14.296669,13.8952675,24.0654449,17.1269894c2.041748,0.6754532,4.1874008,1.1419945,6.5661926,0.9732132
		c-0.818985-1.2918892-1.7138596-2.3421478-2.6657181-3.3343887c-4.3846359-4.5706615-9.3081741-8.5244236-14.2901917-12.4103851
		c-2.5010681-1.9508305-4.6982346-4.208477-6.6866608-6.6749144c-0.9601822-1.1910152-1.7149582-2.4964218-2.3023758-3.9077702
		c-0.2885437-0.6932478-0.2463684-1.0194101,0.6452408-0.9307556c3.5362701,0.351614,7.0733414,0.7046528,10.6162415,0.9779987
		c7.921875,0.6111984,15.8302765,1.4430838,23.8044815,0.9912195c6.261795-0.3548279,12.5223312-0.704565,18.7725449-1.2287455
		c2.2623138-0.1897326,4.5277405-0.3423519,6.9600983-0.5245132c-0.3562012,0.7652731-0.6235199,1.4240294-0.9593048,2.0458479
		c-1.2259827,2.2702398-2.8836212,4.2098074-4.6701813,6.0531158c-2.8812408,2.9727859-6.3737335,5.2001953-9.5260773,7.842041
		c-3.523674,2.9530506-7.0875015,5.8638573-9.9547958,9.5003853c-0.3962326,0.5025253-0.8958893,0.9767723-0.9921494,1.7654648
		c1.0281219-0.1467667,1.9737854-0.0354576,2.9256516-0.2119141c5.0719757-0.9402618,9.6617355-3.0744553,14.078331-5.6319599
		c3.2989349-1.9103127,6.3558502-4.1792526,9.1010895-6.8097744c3.0965118-2.9671154,5.4707642-6.4256573,6.640976-10.6468983
		c0.6189423-2.2326078,0.0174561-4.2712574-1.6764832-4.7439165c1.9420471-0.3230171,3.1181183,0.8975677,4.2487946,2.1523972
		c0.3474121,0.3855724,0.6845703,0.7272234,1.1278381,1.02145c8.8714447,5.888566,18.7893372,9.6126204,28.526062,13.6821756
		c5.067276,2.1179237,10.0380096,4.4439087,15.0908356,6.5872955c0.2853851,0.121069,0.5596008,0.2832184,0.8128815,0.4630032
		c12.0054626,8.5214882,19.2169037,20.1563911,21.3936157,34.5978508
		c1.7050781,11.3124924,4.6848145,22.3671265,6.2290497,33.6951218c0.3612823,2.6502228,0.8081512,5.2887878,1.2156677,7.9327545
		c-0.4072723-0.0320892-0.7870331,0.0516357-1.1609039,0.2217789c-5.2508698,2.3895721-10.8408508,3.4043884-16.5039825,4.2465134
		c-4.9055786,0.7294693-9.8006744,1.3550644-14.7624969,1.0241394c-3.0189819-0.2013397-6.0679779-0.007515-9.0567627-0.6636734
		c-0.4004364-0.0879288-1.0440521-0.3493347-1.0703583,0.4709015c-0.0688629,2.1481247-0.9662018,4.2106934-0.6513672,6.3962173
		c-0.4419403,0.8073044-0.2948303,1.7095184-0.3963318,2.5679779c-0.9907074,8.3786392-1.7198181,16.7760849-1.745636,25.2220383
		c-0.0067291,2.2005463,0.0687408,4.3852692,0.5246124,6.5559692c0.4008789,1.9087372-0.0432281,3.8250885-0.2062225,5.7295837
		c-0.1811066,2.1162109-0.2468414,4.2292175-0.1479797,6.3477325c0.1008911,2.1623993-0.1498413,4.3116608-0.2017212,6.4661102
		c-0.0682373,2.8337555-0.1215973,5.6735077,0.1285095,8.5087433c0.1475983,1.6730652,0.0784607,3.3501434-0.098175,5.02742
		c-0.3134613,2.9759674,0.161026,5.8720398,0.824295,8.7793121c1.6766205,7.3491974,1.4777679,14.7560425,0.394516,22.1660767
		c-0.3131714,2.142395-0.3707123,4.2083435,0.3324127,6.3562622c1.789505,5.466568,1.8004761,11.0871277,0.9232635,16.7248077
		c-0.2115173,1.3592529-0.2436066,2.6841888,0.0700836,4.0361938c0.886261,3.8198547,0.4920807,7.7170715,0.6769562,11.5814056
		c0.2862549,5.9835815,0.6884613,11.9625854,1.4403229,17.9147034c0.2537231,2.008667,0.2185516,4.0574036,0.2538147,6.0889282
		c0.0314789,1.8131409-0.3387299,2.3127136-2.0966034,2.8403625c-2.9675903,0.8908081-6.046051,1.1467896-9.1074371,1.463501
		c-7.7273102,0.7994385-15.4857635,0.8745728-23.2448273,1.0192871
		c-11.2361755,0.2095642-22.4684143,0.6523743-33.7049484,0.8126526c-12.4795532,0.178009-24.9379959-0.848877-37.4192505-0.848999
		c-8.3984146-0.0000916-16.799118-0.1004944-25.1803284-0.7364502c-4.1492767-0.3148499-8.2854118-0.7527771-12.3534241-1.6774292
		c-0.2727928-0.0620117-0.5451469-0.1272583-0.8147545-0.2017212c-3.0011635-0.8287048-3.3434029-1.173645-3.1586952-4.2307129
		c0.4741859-7.848175,1.0208855-15.6920776,1.5688667-23.535553c0.1421928-2.0353699,0.2741928-4.0685883,0.2251472-6.1084442
		c-0.0433769-1.8041687,0.0425301-3.5978241,0.3647537-5.3743591c0.4024925-2.2190704,0.4543953-4.4303284,0.1269684-6.6729889
		c-0.3675308-2.5173645-0.1233711-5.0311584,0.42342-7.5046387c0.237915-1.0762024,0.1960411-2.1278687,0.1169281-3.2104492
		c-0.3260307-4.4614716-1.0035973-8.9028625-0.8237762-13.394516c0.1759071-4.393631,1.2030106-8.6131439,2.7054672-12.72258
		c0.3647614-0.9976807,0.5816841-1.9600372,0.4271965-3.0288544c-0.1776123-1.2288208-0.1682091-2.4718018,0.0631027-3.7023163
		c0.3129845-1.6650085,0.2037849-3.326767,0.1185341-5.0112915c-0.1672783-3.3053589-0.1792717-6.6202087-0.1929398-9.9314117
		c-0.0532684-12.9004364-0.0429573-25.8012695-0.1390572-38.7013397c-0.0387688-5.2046204-0.991291-10.3377228-1.5477562-15.5010147
		C43.6215096,122.9213791,43.7198563,121.5897675,43.184227,120.3591003z"></path>
</g>
<g onclick="select(this)" class="" id="estampa-secundaria" fill="#082890">
	<path d="M100.3213425,286.0009766c-1.0717468,0.1574402-2.1495819,0.0741272-3.2174683,0.0085754
		c-2.4683151-0.1513977-4.9379272-0.1474609-7.4080124-0.1790771c-5.2194138-0.0667725-10.438652-0.1472168-15.6578903-0.2265015
		c-0.1957397-0.0029602-0.3907471-0.0531921-0.5860901-0.0813904c0.0076981-0.4795227,0.0221176-0.9590454,0.0221329-1.4385681
		c0.0010529-39.3520508,0.0009766-78.7040863,0.000824-118.0561218c0-0.2799225-0.0102768-0.5601196-0.0014038-0.8397064
		c0.0128708-0.4055176-0.1802673-0.5825806-0.5789185-0.572403c-0.319664,0.0081482-0.6397781-0.0025482-0.9596939-0.0025482
		c-7.8384171-0.0002747-15.6768265-0.0001068-23.5152359-0.0005188c-0.3198662-0.0000153-0.639946,0.0019989-0.9595299-0.0087585
		c-0.3813362-0.0128021-0.4905739-0.2213745-0.3561096-0.558609c0.0885086-0.2220001,0.2081375-0.4315033,0.3124046-0.6473083
		c1.4942284-3.0924683,3.0456123-6.1566315,4.5440788-9.2474365c3.5545998-7.3318939,7.2725296-14.5834198,10.8330383-21.9133606
		c3.1941719-6.5757751,6.5016441-13.096489,9.7553596-19.6433563c0.2559662-0.5150223,0.5854874-1.0130997,0.569519-1.7069473
		c-8.8184509,0-17.5717278,0-26.3250046,0c0.0052719-0.3999634,0.0151443-0.7999115,0.0151596-1.1998749
		c0.0007629-24.0778503,0.0005531-48.1557007,0.0012054-72.233551c0.0000305-1.1842117,0.0032692-1.1839485,1.1645699-1.4933548
		c3.5441818-0.9442749,7.0517311-2.0218124,10.515686-3.2149773c4.7577591-1.6388168,9.371273-3.6398926,13.8090858-6.0281982
		c1.3472137-0.7250309,1.350769-0.7195072,1.3507767,0.8761501c0.0001144,27.1975727,0.0000839,54.3951492,0.0000763,81.59272
		c0,0.2399826,0.0249481,0.4831085-0.0047836,0.7193451c-0.0889893,0.707222,0.1462784,1.0409393,0.9177399,0.9749832
		c0.6749878-0.0577087,1.3588486-0.0118713,2.0387802-0.0118713c7.3593521,0.0000076,14.718689-0.0010452,22.0780334,0.0009079
		c1.3988266,0.0003662,1.3947144,0.0038223,0.7640076,1.3007584c-0.8729019,1.7950058-1.7286377,3.5984268-2.6096115,5.3894348
		c-3.9141617,7.9574585-7.9449844,15.8569107-11.8045578,23.8417587
		c-3.5115128,7.2647552-7.2621078,14.4120331-10.715538,21.7059021c-0.6341782,1.339447-0.6409912,1.3402405,0.8468628,1.3404694
		c7.9592896,0.0013123,15.918663-0.0157318,23.8777618,0.0226746c0.9275665,0.0045013,1.4144516-0.2454071,1.8300095-1.110199
		c2.7507553-5.7243958,5.6731491-11.3642731,8.4238815-17.0900574c2.7675781-5.760849,5.6374817-11.4726563,8.4762344-17.199173
		c2.8038788-5.6561279,5.6274185-11.3025208,8.4322128-16.9581985c0.1715927-0.345993,0.4496536-0.6645203,0.4202652-1.1069717
		c-0.4114304-0.2463303-0.8579254-0.1205139-1.2800369-0.1209869c-7.9592819-0.0089798-15.9185715-0.0054779-23.877861-0.0078659
		c-1.1453094-0.0003433-1.1575012-0.0082092-1.1575775-1.0764465c-0.0019913-25.3834915-0.0020142-50.766983,0.0024033-76.1504822
		c0.0004272-2.4540195,7.4268723,3.239994,13.6368713,3.239994c6.6825027,0,13.0330658-5.4673405,13.0330658-3.510006
		c-0.0000153,25.2802353-0.0000305,50.5604668-0.0000153,75.8406982c0,0.3199692,0.0207443,0.6415482-0.0042496,0.959549
		c-0.0412445,0.5249252,0.1917038,0.7294617,0.701561,0.6912537c0.2783966-0.0208664,0.5596695-0.0030518,0.839653-0.0030518
		c7.8392944,0.0000381,15.6786041-0.0020905,23.5178986,0.0059433c0.4177399,0.0004196,0.8620453-0.1071625,1.3476257,0.1557617
		c-0.8570099,1.8017044-1.6756287,3.5658875-2.5305481,5.3123093c-3.4073181,6.9604797-6.9441071,13.8566208-10.3079987,20.83918
		c-2.7738037,5.7576904-5.6437531,11.469101-8.4771576,17.1980286c-1.4881134,3.0088654-2.9939423,6.0089569-4.4770889,9.0202332
		c-0.1431427,0.2906494-0.4724503,0.5683289-0.2368317,0.9641571c0.3594437,0.1512451,0.7236557,0.0804901,1.0777664,0.0806885
		c8.0392914,0.0046692,16.0786438-0.0124664,24.1177521,0.0260925c0.8941193,0.0042725,1.3321228-0.2790985,1.716156-1.073761
		c3.05896-6.3298645,6.2556152-12.5917816,9.3363037-18.9117737c4.7082214-9.6587982,9.5161743-19.2689972,14.2833099-28.899086
		c0.6203613-1.253212,1.2624207-2.4958267,1.8702545-3.7550354c0.4102936-0.8499908,0.3514862-0.9247818-0.5894775-0.9519806
		c-0.2397614-0.0069351-0.4799194-0.0010071-0.7198944-0.0010071c-7.7593079,0-15.5186157,0.0002747-23.2779236-0.0002441
		c-1.5315704-0.0000992-1.5335541-0.0015259-1.5337372-1.4880676c-0.0007935-6.7193985-0.000351-13.438797-0.000351-20.1582031
		c0-20.4781723-0.0009766-40.9563446,0.0063629-61.4345169c0.0001526-0.4493904-0.1263733-0.9351883,0.1555023-1.3807888
		c1.0189209,0.3418293,1.816452,0.9555721,2.6944122,1.4137535c4.7504883,2.4791737,9.7233276,4.4298573,14.7816315,6.1630268
		c2.7872467,0.9550209,5.6125946,1.8015175,8.436142,2.6455383c0.5757904,0.172123,0.8009949,0.4347,0.7661438,1.0001526
		c-0.0196533,0.3187561-0.0033417,0.6397209-0.0033417,0.9596939c0.0000153,23.5578995,0.0000153,47.115799,0.0000153,70.6736908
		c0,0.2799759,0.0214081,0.5619125-0.0042419,0.8395157c-0.0529938,0.5737839,0.1946716,0.7800064,0.7615509,0.7643204
		c1.039093-0.0287476,2.0796661-0.0158997,3.1194611-0.0051804c0.9221039,0.0095062,0.9129028,0.0173798,0.7935028,0.8976822
		c-0.058609,0.4320908-0.1372375,0.8721161,0.0463562,1.2987595c-0.4255066,2.3835449-0.642395,4.7835159-0.567215,7.2064667
		c-0.3749695,1.0742722-0.3045959,2.2090988-0.4100037,3.3142776c-0.5597229,5.8682098-1.3887787,11.7164154-1.5157013,17.618454
		c-0.072876,3.3898773-0.1888428,6.7823181-0.0590057,10.1747437c0.0244141,0.6381683,0.0543518,1.2693939,0.2069702,1.8975067
		c0.5669708,2.3333893,0.3032074,4.666687-0.0459747,6.9970703c-0.110611,0.0036621-0.3063202-0.0224915-0.3195343,0.0152893
		c-0.530838,1.5156555-1.5236511,2.8188019-2.0019531,4.3569031l0.0143127-0.0139771
		c-8.359314-0.0069427-16.7186584-0.0176392-25.0779724-0.0178833c-1.8170776-0.000061-1.6088715-0.2024384-1.609024,1.5838623
		c-0.0033722,39.3174896-0.0026398,78.6349945-0.0016327,117.9524994c0,0.4797974,0.0140381,0.9595947,0.0215454,1.4393921
		c-0.5238953,0.2678223-1.0934296,0.1765442-1.6409607,0.1757813c-5.5831146-0.0076294-11.1613312,0.2206726-16.7418671,0.3332214
		c-2.3913269,0.0482178-4.7815857,0.1481934-7.1726837,0.2111511c-0.4342194,0.0114441-0.8768311,0.0783691-1.3052979-0.066864
		c0.0040131-0.4795837,0.0115585-0.959137,0.0115585-1.4387207c0.0005417-39.5844421,0.0005264-79.168869,0.0005112-118.7532959
		c0-0.2398987-0.0144272-0.4808502,0.0028687-0.7194824c0.0354233-0.4888458-0.1275711-0.7663116-0.670372-0.7231293
		c-0.2780991,0.0221252-0.5594635,0.002655-0.8393555,0.002655c-7.8769073-0.000061-15.7538071-0.0033722-23.6307144,0.0026245
		c-1.7122345,0.001297-1.515976-0.1950226-1.5162277,1.5529633c-0.0037308,25.509964-0.0033569,51.0199432-0.0022507,76.5299072
		C100.3152237,257.1326904,100.318985,271.5668335,100.3213425,286.0009766z"></path>
	<path d="M180.4656677,284.1144104c-0.002655-21.473053-0.0061493-42.9460907-0.0077057-64.4191284
		c-0.001297-17.8743744-0.0005035-35.748764,0.0009155-53.6231384c0.0000458-0.4794159,0.0180054-0.9588318,0.0276031-1.4382477
		c-0.0000153,0-0.014328,0.0139771-0.014328,0.0139771c0.7026215-0.0117035,1.4052124-0.023407,2.1078186-0.0350952
		c0.312851,2.5895844,0.2025604,5.1820831-0.0005035,7.7690735c-0.1786957,2.2762146-0.1565552,4.5536957-0.052948,6.8250885
		c0.1275177,2.7958832,0.2397003,5.5780182-0.0495911,8.3760376c-0.1845856,1.7852783-0.0375366,3.5997925,0.365387,5.3529663
		c1.2567596,5.4684906,2.0174561,10.9821625,1.7207947,16.6075287c-0.1472321,2.7920837-0.5539703,5.5595093-0.8237915,8.3400269
		c-0.088501,0.9120026-0.2390594,1.8178406-0.344162,2.7284698c-0.0551758,0.4781494,0.006958,0.9359589,0.1715698,1.4062958
		c2.0743103,5.9267731,2.5213013,11.9956665,1.5437622,18.1841888c-0.2627411,1.6634369-0.2828369,3.2996216,0.0931396,4.9774475
		c0.6054688,2.7019043,0.6816406,5.4663544,0.5745087,8.2311859c-0.1505737,3.8864594,0.3157043,7.7418671,0.5922699,11.6061859
		c0.1881561,2.6293335,0.3404846,5.2652588,0.6585693,7.8800049c0.3035126,2.4951477,0.4446106,4.990448,0.4551086,7.4972229
		c0.0074463,1.7712402-0.3218536,2.2558899-1.995224,2.7982178
		C183.8601685,283.7205505,182.1991272,284.130188,180.4656677,284.1144104z"></path>
	<path d="M45.3619194,164.6283264c0.199749-0.0064087,0.4016533,0.0036316,0.5988541-0.0221863
		c0.6982651-0.0914917,0.9419823,0.2370911,0.8620949,0.8943939c-0.019165,0.1576385-0.0028305,0.3195953-0.0028305,0.4795685
		c0,38.9148865,0.0000534,77.8297729-0.0009117,116.7446594c-0.0000076,0.3196106-0.0138435,0.6392212-0.0212212,0.9588623
		c-1.852932-0.071167-3.6024895-0.5762329-5.288044-1.3087463c-0.7360458-0.3199463-1.1877251-0.8673096-1.2783089-1.7339172
		c-0.092411-0.8840637-0.0030479-1.7545776,0.0044136-2.6315002c0.0295715-3.4723206,0.4857712-6.9159851,0.683876-10.3771057
		c0.1688576-2.9502563,0.3844223-5.8982544,0.6173515-8.8442688c0.3212738-4.0634613,0.5746422-8.1270294,0.5155754-12.2077942
		c-0.0137367-0.9490204,0.1767159-1.9064789,0.3280296-2.8512726c0.3233299-2.0188599,0.4996262-4.0211945,0.184433-6.0749207
		c-0.3530312-2.3002625-0.3719788-4.6469116,0.2039719-6.909256c0.600296-2.3579712,0.2510147-4.6759644,0.0843773-7.0166626
		c-0.221138-3.1064148-0.6237831-6.1972809-0.6251831-9.322876c-0.0017776-3.9532928,0.706665-7.7764893,1.8481293-11.5383453
		c0.0580215-0.1911926,0.0971184-0.3903809,0.175106-0.5729828c0.9722176-2.2763367,1.0878372-4.6359558,1.1477203-7.1016998
		c0.070652-2.908844,0.0493088-5.8082886,0.0666313-8.713913c0.0204849-3.4363098-0.1397362-6.8579407-0.2574539-10.2848663
		c-0.0386734-1.1257477,0.1269073-2.2325439,0.2075195-3.3469238c0.1736031-2.3998413-0.0412903-4.7895203-0.1423073-7.1826019
		C45.2590866,165.3167572,45.1038017,164.9537048,45.3619194,164.6283264z"></path>
	<path d="M46.8087311,110.8721924c-1.0072784,2.4200821-2.2911873,4.7056351-3.4414902,7.0561371
		c-0.0385971,0.0788498-0.1979332,0.0986099-0.3009911,0.1459198c-0.041378-1.7044296-0.558136-3.3557739-0.5653725-5.0640106
		c0.0006752-0.6688995-0.0433159-1.3343277-0.2408257-2.1380463
		C43.8303452,110.8721924,45.3195381,110.8721924,46.8087311,110.8721924z"></path>
</g>
<g onclick="select(this)" class="" id="gola-primaria" fill="#ffffff">
	<path d="M149.1920471,8.2665339c1.6939392,0.4726591,2.2954254,2.5113087,1.6764832,4.7439165
		c-1.1702118,4.221241-3.5444641,7.6797829-6.640976,10.6468983c-2.7452393,2.6305218-5.8021545,4.8994617-9.1010895,6.8097744
		c-4.4165955,2.5575047-9.0063553,4.6916981-14.078331,5.6319599c-0.9518661,0.1764565-1.8975296,0.0651474-2.9256516,0.2119141
		c0.0962601-0.7886925,0.5959167-1.2629395,0.9921494-1.7654648c2.8672943-3.636528,6.4311218-6.5473347,9.9547958-9.5003853
		c3.1523438-2.6418457,6.6448364-4.8692551,9.5260773-7.842041c1.7865601-1.8433084,3.4441986-3.782876,4.6701813-6.0531158
		c0.3357849-0.6218185,0.6031036-1.2805748,0.9593048-2.0458479c-2.4323578,0.1821613-4.6977844,0.3347807-6.9600983,0.5245132
		c-6.2502136,0.5241804-12.5107498,0.8739176-18.7725449,1.2287455c-7.974205,0.4518642-15.8826065-0.3800211-23.8044815-0.9912195
		c-3.5429001-0.2733459-7.0799713-0.6263847-10.6162415-0.9779987c-0.8916092-0.0886545-0.9337845,0.2375078-0.6452408,0.9307556
		c0.5874176,1.4113483,1.3421936,2.7167549,2.3023758,3.9077702c1.9884262,2.4664373,4.1855927,4.7240839,6.6866608,6.6749144
		c4.9820175,3.8859615,9.9055557,7.8397236,14.2901917,12.4103851c0.9518585,0.9922409,1.8467331,2.0424995,2.6657181,3.3343887
		c-2.3787918,0.1687813-4.5244446-0.29776-6.5661926-0.9732132c-9.7687759-3.2317219-18.1325226-8.4916897-24.0654449-17.1269894
		c-1.2417297-1.8073368-1.9321899-3.8451538-2.3278809-5.9871454c-0.3179321-1.7210159,0.0242157-3.181798,1.6840515-4.0964561
		c0.5143661-0.0252366,0.9027328-0.3090868,1.2522583-0.6413717c0.9263687-0.8806643,2.0001678-1.6612997,2.7273788-2.6858664
		c2.0422745-2.8773975,5.0196915-3.6030319,8.2393723-3.9380414c3.0733871-0.3197877,6.1406097,0.0641102,9.2117691,0.0276584
		c4.3972549-0.0521912,8.7969818,0.0443268,13.1928406-0.0513675c7.9100418-0.1721947,15.8178406,0.0474255,23.7266388,0.0363705
		c0.912384-0.0012754,1.8285217,0.1743852,2.7368927,0.3086998c2.2479095,0.3323816,4.1504211,1.1903371,5.5703125,3.1194048
		C145.9542999,5.7696943,147.367691,7.2616229,149.1920471,8.2665339z"></path>
</g>
<g onclick="select(this)" class="" id="detalhe-punho" fill="#ffffff">
	<path d="M0.24,114.41436c0.6107783-1.2420959,0.4154505-2.6777496,0.9468267-3.9383621
		c1.976527,0.6283646,3.9751949,1.2142029,5.9778385,1.7141418c6.2971659,1.5719833,12.7390747,2.1274796,19.2143612,2.1471405
		c3.7452736,0.0113754,7.5113277,0.3100128,11.2349834-0.3948441c1.0541039-0.1995392,2.1049347-0.416481,3.1596031-0.6128845
		c1.5306358-0.2850342,1.7421913-0.1876984,1.9219894,1.3255692c0.2250328,1.8939514,0.3311653,3.8020096,0.4886246,5.7039795
		c-0.9007339,0.7405167-2.0174828,0.9574585-3.1024132,1.1645813c-2.5106468,0.4793091-5.038868,0.7957077-7.609993,0.8197708
		c-6.994585,0.0654373-13.9775391,0.038559-20.892168-1.2381592c-3.0178013-0.5572052-6.0275316-1.1423187-8.9426279-2.1199341
		c-0.8160248-0.273674-1.598931-0.6459885-2.3970258-0.9730606C0.24,116.8129883,0.24,115.613678,0.24,114.41436z"></path>
	<path d="M184.6309204,120.0944595c-0.3148346-2.185524,0.5825043-4.2480927,0.6513672-6.3962173
		c0.0263062-0.8202362,0.6699219-0.5588303,1.0703583-0.4709015c2.9887848,0.6561584,6.0377808,0.4623337,9.0567627,0.6636734
		c4.9618225,0.330925,9.8569183-0.2946701,14.7624969-1.0241394c5.6631317-0.8421249,11.2531128-1.8569412,16.5039825-4.2465134
		c0.3738708-0.1701431,0.7536316-0.2538681,1.1609039-0.2217789c1.1353607,2.336441,1.1766968,4.8449707,1.0996246,7.3563385
		c-0.0221863,0.7228928-0.7844391,0.8354187-1.3140411,1.0370178c-2.8729095,1.0936127-5.8452148,1.8682861-8.8147736,2.6399994
		c-8.731369,2.2690582-17.6292267,2.7698975-26.595108,2.3430557c-2.0615845-0.0981522-4.1379395-0.3113708-6.1459808-0.8887787
		C185.5256805,120.7307129,184.9997711,120.5572357,184.6309204,120.0944595z"></path>
</g>
</svg>
