<!--?xml version="1.0" encoding="utf-8"?-->
<!-- Generator: Adobe Illustrator 24.2.3, SVG Export Plug-In . SVG Version: 6.00 Build 0)  -->
<svg version="1.1" id="Camada_1" xmlns="http://www.w3.org/2000/svg" xmlns:xlink="http://www.w3.org/1999/xlink" x="0px" y="0px" viewBox="0 0 234 419" style="enable-background:new 0 0 234 419;" xml:space="preserve">
<style type="text/css">
	.st0{fill:#0CA4A4;}
	.st1{fill:#0923BE;}
	.st2{fill:#90DAD0;}
	.st3{fill:#15154F;}
	.st4{fill:#93CFFE;}
	.st5{fill:#08CB1E;}
</style>
<g onclick="select(this)" class="" id="c-gola-primaria" fill="#ffffff">
	<path d="M81.8,8c1.7-1.1,3.2-2.5,4.4-4.1c1.7-2.3,3.9-3.2,6.6-3.2c0.5,0,1.1,0.2,1.3-0.5c15.9,0,31.8,0,47.8,0
		c0.6,0.5,1.3,0.4,2,0.5c2.2,0.4,4,1.2,5.4,3.1c1.2,1.6,2.7,2.8,4.3,4c-3.8,0.5-7.5,1.2-11.3,1.6c-10.6,1-21.2,2.2-31.9,1.4
		c-3.2-0.2-6.4-0.4-9.6-0.6c-5-0.4-9.9-1.1-14.8-1.8C84.5,8.2,83.1,8.4,81.8,8z"></path>
</g>
<g onclick="select(this)" class="" id="c-detalhe-punho" fill="#71aad4">
	<path d="M0.2,116.1c0.4-2,0.8-4,1.2-6c0.1-0.3,0-0.6,0.3-0.7c0.4,0.2,0.9,0.4,1.3,0.5c5.7,1.1,11.4,2,17.2,3
		c5.9,1,11.9,1.4,17.8,1.4c2.4,0,4.8-0.1,6.9-1.4c0.7-0.5,1.1-0.1,1.1,0.7c0,0.4-0.3,1,0.4,1.2c0,1.2,0,2.4,0,3.6
		c-0.1,0.6-0.3,1.2-0.2,1.8c0.1,1.2-0.6,1.4-1.5,1.5c-5.6,0.6-11.1,1.1-16.7,0.5c-9.1-1-18.2-2.3-27.2-4.3c-0.2-0.1-0.4-0.2-0.7-0.2
		C0.2,117.1,0.2,116.6,0.2,116.1z"></path>
	<path d="M188.7,112.5c1.1,0.1,1.8,0.9,2.6,1.5c1,0.7,2.1,1.3,3.3,1.3c3.7,0.1,7.4,0.3,11.1,0.2c2.9-0.1,5.8-0.7,8.8-1
		c3.2-0.4,6.4-0.7,9.6-1.1c2.7-0.3,5.4-1,8.1-1.7c0.7,0.1,0.5,0.8,0.6,1.2c0.3,1.9,0.4,3.9,0.6,5.8c0.1,1-0.4,1.3-1.2,1.4
		c-3.7,0.9-7.5,1.6-11.3,2.1c-7.1,1-14.3,1.7-21.5,1.5c-2.9-0.1-5.8-0.4-8.4-2c-0.3-0.2-0.7-0.3-1.1-0.3c-0.8-0.1-1.3-0.4-1.7-1.1
		C188,117.7,188.7,115.2,188.7,112.5z"></path>
</g>
<g onclick="select(this)" class="" id="c-estampa-primaria" fill="#ffffff">
	<path d="M46.6,118.2c0-1.2,0-2.4,0-3.6c0.5-3.6-0.9-6.9-1.2-10.4c-0.2-2.2,0.1-4.5-1-6.6c0.2-4.2-1-8.3-1.4-12.4
		c-0.4-3.7-1.6-7-3.8-9.9c-0.5-0.7-0.9-1.5-1.3-2.3c-1.7-3.2-2.4-6.7-3.5-10C32.3,56.6,31,50,31,43.2c0-1.1,0.2-2.2,0.3-3.3
		c0.1-1.9,0-3.9,0.4-5.8c0.1-0.5,0.1-1.1-0.2-1.6c4.2-2,8.4-4,12.8-5.8c7.1-2.8,14.2-5.9,21.1-9.1c3.9-1.8,7.6-4.1,11.2-6.4
		c0.5-0.3,0.7-0.7,1.1-1.1C78.8,8.9,80,8,81.8,8c1.3,0.4,2.7,0.2,4.1,0.4c4.9,0.7,9.9,1.5,14.8,1.8c3.2,0.2,6.4,0.4,9.6,0.6
		c10.7,0.7,21.3-0.4,31.9-1.4c3.8-0.4,7.6-1,11.3-1.6c1.9,0,3.4,1,4.6,2.4c1.1,1.2,2.5,1.9,3.9,2.7c9.5,5.4,19.5,9.6,29.7,13.7
		c4,1.6,7.7,3.7,11.6,5.3c0.2,0.1,0.3,0.2,0.5,0.4c-0.4,0.5-0.5,1.2-0.3,1.7c0.5,1.1,0.1,2.3,0.2,3.4c0.1,2.9,0.6,5.8,0.3,8.8
		c-0.3,2.4-0.3,4.9-0.8,7.3c-1.3,6.2-3.2,12.3-5.3,18.3c-0.7,2.1-1.8,4.1-3.4,5.5c-1,0.9-1.8,1.8-2.1,3.1c-1.2,4.1-1.6,8.4-1.8,12.6
		c-0.2,2.8-0.3,5.6-1.1,8.4c-0.5,2-0.8,4.2-0.6,6.3c0.2,1.7-0.1,3.2-0.2,4.9c0,2.6-0.7,5.2-0.5,7.8c-0.4,0.3-0.3,0.7-0.3,1.1
		c-1.2,10.5-1.5,21-0.9,31.6c0.2,3.2-0.1,6.5-0.3,9.7c-0.4,6.1,0.1,12.1,0.1,18.2c0,2.7-0.1,5.4-0.4,8c-0.2,1.9-0.3,3.8,0,5.7
		c0,0.3,0.1,0.6,0.1,0.8c-0.3,3.1,0.5,5.9,1.4,8.8c1.6,5.7,2,11.5,1.5,17.4c-0.3,4.2-0.9,8.5,0,12.8c0.2,1.1,0.1,2.2,0.1,3.3
		c-0.4,7.6,0.8,15.1,1.1,22.7c0.2,5.3,0.7,10.7,0.9,16c0.1,1.5,0.3,3.1,0.3,4.7c0,1.8-0.2,2.2-1.9,2.7c-4.4,1.4-9,2.3-13.6,2.9
		c-11.6,1.7-23.3,1.8-34.9,2c-21.5,0.3-43,0.6-64.5,0.3c-10-0.1-20-1-29.7-3.8c-3.7-1-3.8-1.1-3.6-4.8c0.4-7,1-14,1.5-21
		c0.2-3.2-0.1-6.5,0.4-9.7c0.1-0.6,0.1-1.1,0.2-1.7c0.9-3.2,0.1-6.4-0.1-9.6c-0.2-4.6,0.2-9.2,1.4-13.6c0.4-1.6,0.5-3.1,0.3-4.7
		c-1.1-8.7-0.9-17.3,1.1-25.9c0.3-1.4,0.4-2.8,0.3-4.2c-0.4-4.7,0-9.5-0.2-14.3c-0.2-5.7,0-11.5-0.5-17.3c-0.3-3.6,0.4-7.2,0.3-10.8
		c-0.3-9.6-0.9-19.2-1.5-28.7C46.8,118.9,47,118.5,46.6,118.2z"></path>
	<path d="M188.7,112.5c0.1-1.6,0.4-3.2,0.2-4.9c-0.2-2.1,0-4.2,0.6-6.3c0.7-2.8,0.9-5.5,1.1-8.4
		c0.2-4.2,0.6-8.5,1.8-12.6c0.4-1.2,1.1-2.2,2.1-3.1c1.6-1.5,2.7-3.5,3.4-5.5c2.1-6,4-12.1,5.3-18.3c0.5-2.4,0.5-4.9,0.8-7.3
		c0.3-2.9-0.1-5.9-0.3-8.8c-0.1-1.1,0.3-2.2-0.2-3.4c-0.2-0.5-0.1-1.2,0.3-1.7c0.3,0.2,0.6,0.3,0.8,0.5
		c10.2,8.1,16.7,18.5,19.7,31.1c1.4,5.7,2,11.5,2.9,17.2c1.6,9.7,2.6,19.5,4.7,29.2c0.1,0.5,0.1,1,0.1,1.4c-2.7,0.7-5.3,1.4-8.1,1.7
		c-3.2,0.4-6.4,0.7-9.6,1.1c-2.9,0.3-5.8,0.9-8.8,1c-3.7,0.1-7.4-0.1-11.1-0.2c-1.2,0-2.3-0.6-3.3-1.3
		C190.5,113.4,189.8,112.6,188.7,112.5z"></path>
	<path d="M31.4,32.4c0.3,0.5,0.4,1.1,0.2,1.6c-0.4,1.9-0.3,3.9-0.4,5.8C31.2,41,31,42.1,31,43.2
		c0,6.8,1.4,13.4,3.5,19.9c1.1,3.4,1.8,6.9,3.5,10c0.4,0.8,0.8,1.6,1.3,2.3c2.2,3,3.4,6.3,3.8,9.9c0.5,4.1,1.7,8.2,1.4,12.4
		c1.1,2.1,0.8,4.4,1,6.6c0.3,3.5,1.6,6.8,1.2,10.4c-0.7-0.2-0.4-0.8-0.4-1.2c0-0.8-0.3-1.2-1.1-0.7c-2.1,1.3-4.5,1.4-6.9,1.4
		c-6,0-11.9-0.4-17.8-1.4c-5.7-0.9-11.4-1.9-17.2-3c-0.5-0.1-0.9-0.2-1.3-0.5c1.2-8,2.2-16,4.4-23.8c1.5-5.3,2-10.8,3-16.3
		c1.5-8.1,3.9-15.8,8.4-22.8c2.8-4.3,6.2-8.1,10.2-11.2C29,34.4,30,33.1,31.4,32.4z"></path>
</g>
<path d="M45.8,121.2c0.1-0.1,0.2-0.2,0.3-0.3C46,121.1,45.9,121.1,45.8,121.2z"></path>
<g onclick="select(this)" class="" id="c-estampa-terciaria" fill="#021c3b">
	<path d="M189.1,109.8c-0.3-3.1-0.2-6.3,0.7-9.3c1.6-0.2,3.2-0.4,4.9-0.7c6.4-0.8,12.9-1.7,19.3-2.5
		c5.2-0.7,10.4-1.4,15.5-2.1c0.4,3,0.9,6,1.3,9.1C216.9,106.2,203,108,189.1,109.8z"></path>
	<path d="M190.4,97.6c0.3-3.1,0.1-6.2,0.7-9.3c0.7-0.1,1.4-0.2,2.1-0.3c5.7-0.8,11.5-1.5,17.2-2.3s11.5-1.5,17.2-2.3
		c0.7,3,1.2,6,1.5,9c-6.7,0.9-13.4,1.8-20.1,2.7C202.8,96.1,196.6,96.8,190.4,97.6z"></path>
	<path d="M191.5,85.2c0.3-2.2,0.5-4.4,1.7-6.4c0.8-1.2,2.2-1.9,2.9-3.3c2.4,0.1,4.8-0.5,7.1-0.8c7.6-1,15.2-2,22.8-3
		c0.6,3,0.9,6,1.2,9.1c-1.4,0.2-2.9,0.4-4.3,0.6c-7,0.9-14,1.9-21,2.8C198.5,84.6,195,85.4,191.5,85.2z"></path>
	<path d="M200.9,62.9c3.1-0.1,6.2-0.8,9.4-1.1c4.4-0.5,8.7-1.1,13-1.6c1,2.9,1.7,5.9,2.2,8.9
		c-5.5,0.7-11.1,1.4-16.6,2.2c-3.7,0.5-7.4,0.9-11.2,0.9c1.3-2.9,1.9-6.1,3-9.1C200.8,63,200.9,63,200.9,62.9L200.9,62.9z"></path>
	<path d="M45.1,100.5c0.3,1,0,2.1,0.1,3.1c0.2,2.1,0.3,4.2,0.9,6.2c-0.5,0-1,0.1-1.4,0c-2.8-0.6-5.8-0.9-8.6-1.3
		c-11.1-1.5-22.2-2.9-33.3-4.4C3.1,101,3.5,98,4.2,95c0.8,0.1,1.7,0.2,2.5,0.3c6.9,0.9,13.7,1.8,20.6,2.7
		C33.2,98.9,39.1,99.7,45.1,100.5z"></path>
	<path d="M43.7,90.1c0.3,2.4,0.9,4.7,0.7,7.1c-3.1,0.3-6.2-0.3-9.3-0.8c-10.2-1.3-20.3-2.7-30.5-4.1
		c0.5-3,1.2-6,2.1-8.9c3.1,0.4,6.2,0.8,9.3,1.2c8.3,1.1,16.5,2.2,24.8,3.2C42.3,88.1,43.4,88.4,43.7,90.1z"></path>
	<path d="M38.7,74.9c1.9,2.7,3.8,5.3,3.9,8.8c0,0.6-0.3,0.6-0.8,0.6c-3,0.3-6,0.2-9.1-0.2c-5.7-0.8-11.5-1.5-17.2-2.3
		c-2.7-0.4-5.4-0.8-8.2-1.2c0.5-3,0.9-6,1.4-8.9c5.3,0.7,10.5,1.3,15.8,2.1C29.2,74.5,33.9,75.2,38.7,74.9z"></path>
	<path d="M11.5,60c4.7,0.6,9.4,1.2,14.1,1.9c2.9,0.4,5.9,0.5,8.7,1.2c1,2.9,1.9,5.9,2.9,8.8c-2.6,0.2-5.2,0.1-7.7-0.3
		c-5.3-0.6-10.6-1.4-15.9-2.1c-1.5-0.2-3-0.1-4.3-1C9.8,65.7,10.5,62.8,11.5,60z"></path>
</g>
<g onclick="select(this)" class="" id="c-estampa-secundaria" fill="#71aad4">
	<path d="M46.8,204.7c-0.1,1.2,0.2,2.4-0.2,3.6C46.7,207.1,46.3,205.9,46.8,204.7z"></path>
	<g onclick="select(this)" class="">
		<path d="M186.2,190.4c0,1.7,0.3,3.2,0.3,4.9c0,1.3-0.2,2.8,0.1,4.1c0.3,1.6,0.7,3.4,1.3,5c1.7,5.5,1.8,9.4,1.6,15.1
			c-0.1,2.5-0.5,6.8-0.6,9.4c0,1.3,0,2.6,0.2,3.9c0.5,2.8,0.3,4,0.2,6.5c0,2.2,0.1,5.4,0.3,7.5c0.1,0.6,0.1,1.1,0.1,1.7
			c0.4,6.3,0.9,12.6,1.2,18.9c0.3,5,0.9,9.8,0.8,14.7c0,1.1-1,1.7-1.8,2c-1.9,0.7-3.8,1.1-5.8,1.6c-6.7,1.5-13.4,2.3-20.2,2.7
			c-3.3,0.2-6.5,0.3-9.8,0.5c-11.9,0.5-23.7,0.3-35.6,0.5c-14.2,0.3-28.3,0.2-42.5,0.1c-9.6-0.1-19.1-1.1-28.4-3.5
			c-4.3-1.1-4.5-1.2-4.3-5.6c0.2-5,0.8-9.9,1.1-14.9c0.2-3.1,0.4-6.2,0.5-9.3c0-3.1,0.1-6.2,0.7-9.3c0.5-2.1-0.1-4.3-0.3-6.4
			c-0.2-2.4-0.2-4.8,0-7.1c0.3-2.9,0.7-5.9,1.5-8.7c0.7-2.3,0-4.6-0.1-6.9c-0.2-3.1-0.5-6.2-0.4-9.3c0.4-1.2,0.1-2.4,0.2-3.6l0,0
			c0.3-1.9,0.6-3.8,0.9-5.6c0.3-2.1,1-4.2,1-6.4c0-7.1,0.3-14.3-0.2-21.5c-0.2-3.7,0.1-7.5-0.3-11.3c-0.2-2.6,0.1-5.3,0.2-7.9
			c0.1-4.1,0.1-8.1-0.2-12.2c-0.1-1.7-0.1-3.4-0.3-5c-0.1-1.7-0.2-1.7,1.6-1.7c45.2,0,90.5-0.2,135.7-0.2c0.5,0,1.5,0,1.9,0
			c0,0.8,0,1.5,0,2.4c-0.4,0.7-0.1,1.6-0.2,2.4c0,3.4-0.2,7,0,10.4c0.2,4.1,0.4,5.9,0.2,10c-0.1,3.3-0.5,8.8-0.3,12.1
			c0.2,3.7-0.1,7.6,0.2,11.3c0.2,1.6-0.3,2.9-0.4,4.6C186.9,187.5,186.2,189.1,186.2,190.4z"></path>
	</g>
	<path d="M47.6,132.5c0.5,0,1,0,1.6,0c45.4,0,90.8,0,136.2,0c0.5,0,1,0,1.6,0c0,0.2,0,0.5,0,0.7c-0.1,0-0.1,0-0.2,0
		c-0.5,0-1,0-1.4,0c-45.2,0-90.5,0.2-135.7,0.2c-1.8,0-1.8-0.2-1.6,1.5c0.1,1.7,0.2,3.3,0.3,5c0.3,4.1,0.3,8.1,0.2,12.2
		c-0.1,2.6-0.4,5.3-0.2,7.9c0.3,3.8,0,7.5,0.3,11.3c0.4,7.1,0.2,14.3,0.2,21.5c0,2.1-0.7,4.2-1,6.4c-0.3,1.9-0.6,3.8-0.9,5.6
		c0-3.8,0.9-7.5,1.6-11.2c0.2-1.4,0.3-2.8,0.1-4.2c-0.3-3.3,0.2-6.5,0-9.8c-0.3-5.1-0.1-10.1-0.2-15.2c0-1.9-0.3-3.7-0.4-5.6
		c-0.1-1.4,0-2.7,0.2-4.1c0.4-2.9,0.2-5.9,0.1-8.8c-0.1-4.1-0.5-7.9-0.8-12C47.5,133.3,47.6,132.8,47.6,132.5z"></path>
	<path d="M186.7,133.2c0.1,0,0.1,0,0.2,0c-0.1,3.6-0.3,7.2-0.2,10.8s0,7.1,0.4,10.6c0.2,2.2-0.1,4.5-0.3,6.7
		c0,0.6-0.1,1.1-0.1,1.7c0,3.9-0.1,7.9,0.1,11.9c0.1,3,0.2,6.1,0.1,9.1c0,2-0.3,4-0.5,5.9c0,0.3-0.2,0.4-0.4,0.5
		c0.3-1.4,0.5-2.7,0.4-4.1c0-1.6,0.4-3.3,0.2-4.9c-0.4-3.7-0.2-7.4-0.3-11.1c-0.1-3.2,0.2-6.5,0.3-9.8c0.2-4.1,0.2-8.1-0.1-12.2
		c-0.2-3.4,0-6.9,0-10.3c0.4-0.7,0.1-1.5,0.2-2.3C186.7,134.8,186.7,134,186.7,133.2z"></path>
	<path d="M186.7,135.6c-0.1,0.8,0.2,1.6-0.2,2.3C186.6,137.2,186.3,136.4,186.7,135.6z"></path>
</g>
<path d="M200.9,62.9c0,0.1-0.1,0.2-0.1,0.2C200.8,63,200.9,63,200.9,62.9z"></path>
</svg>
