<!--?xml version="1.0" encoding="utf-8"?-->
<!-- Generator: Adobe Illustrator 24.2.3, SVG Export Plug-In . SVG Version: 6.00 Build 0)  -->
<svg version="1.1" id="Camada_1" xmlns="http://www.w3.org/2000/svg" xmlns:xlink="http://www.w3.org/1999/xlink" x="0px" y="0px" viewBox="0 0 229 418" enable-background="new 0 0 229 418" xml:space="preserve">
<g onclick="select(this)" class="" id="estampa-secundaria" fill="#000000">
	<path d="M45.64,185c0.01-1.36,0.96-2.03,1.92-2.77c18.31-14.15,36.61-28.31,54.91-42.48
		c18.08-13.99,36.15-27.99,54.23-41.99c12.32-9.55,24.63-19.1,36.95-28.65c0.31-0.24,0.65-0.45,1.09-0.75
		c0.23,0.84,0.12,1.58,0.11,2.31c-0.11,5.12-0.93,10.13-2.97,14.82c-1.5,3.46-2.84,6.93-3.74,10.59c-1.16,4.72-2.02,9.5-2.81,14.29
		c-0.13,0.76-0.46,1.22-1.01,1.65c-6.26,4.84-12.52,9.68-18.77,14.53c-14.82,11.48-29.63,22.97-44.45,34.45
		c-11.94,9.25-23.9,18.49-35.85,27.74c-13.78,10.67-27.56,21.34-41.34,32c-0.34,0.26-0.63,0.64-1.14,0.57
		c-1.13-7.44-0.25-14.66,2.46-21.67c0.17-0.44,0.4-0.88,0.32-1.38c-0.33-2.24-0.11-4.46,0.22-6.69c0.12-0.85-0.03-1.75-0.1-2.63
		C45.54,187.63,45.43,186.32,45.64,185z"></path>
	<path d="M43.3,227.2c4.65-3.59,9.31-7.16,13.95-10.76c9.56-7.42,19.11-14.86,28.67-22.29
		c13.97-10.87,27.93-21.74,41.9-32.6c11.98-9.32,23.98-18.63,35.96-27.94c6.56-5.1,13.12-10.2,19.68-15.3
		c0.3-0.23,0.55-0.59,1.02-0.57c0.28,1.09-0.32,2.13-0.12,3.2c-0.45,4.69-0.96,9.38-1.34,14.08c-0.46,5.78-0.64,11.57-0.36,17.37
		c0.03,0.63,0.15,1.27,0.24,1.9c-0.1,0.07-0.2,0.13-0.3,0.2c-10.53,8.19-21.06,16.38-31.59,24.57
		c-17.6,13.68-35.19,27.37-52.79,41.05c-16.87,13.12-33.74,26.24-50.62,39.34c-2.08,1.61-4.06,3.35-6.3,4.76
		c0.25-3.78,0.61-7.57,0.73-11.36c0.13-4.11,0.19-8.22,0.82-12.3c0.15-0.96-0.06-1.99-0.19-2.97c-0.4-3.01-0.14-5.98,0.58-8.91
		c0.29-0.37,0.29-0.76,0.05-1.15C43.28,227.41,43.29,227.31,43.3,227.2z"></path>
	<path d="M68.15,285.35c-8.03-0.06-16.03-0.49-23.91-2.17c-3.78-0.81-4.01-1.13-3.91-4.93c0.07-2.5,0.06-5,0.53-7.48
		c3.66-2.84,7.33-5.68,10.99-8.52c17.02-13.2,34.04-26.4,51.06-39.61c12.69-9.85,25.37-19.71,38.06-29.57
		c9.94-7.72,19.89-15.44,29.84-23.15c3.66-2.84,7.33-5.68,11.02-8.49c0.19-0.14,0.42-0.88,0.86-0.19
		c-0.09,5.35-0.22,10.7-0.25,16.05c-0.02,3.67,0.34,7.33-0.02,11.01c-0.22,2.19,0.18,4.38,0.78,6.51c0.11,0.39,0.19,0.77,0.14,1.18
		c-0.74,0.54-1.49,1.07-2.21,1.63c-15.59,12.09-31.18,24.18-46.76,36.28c-13.54,10.5-27.07,21-40.61,31.51
		C85.22,272.06,76.69,278.71,68.15,285.35z"></path>
	<path d="M120.68,286.35c-3.3,0.36-6.62,0.28-9.92,0.12c-7.02-0.35-14.04-0.6-21.07-0.69
		c-4.55-0.05-9.1-0.15-13.65-0.23c0.09-0.45,0.48-0.61,0.79-0.85c2.81-2.18,5.62-4.35,8.43-6.53
		c17.44-13.56,34.88-27.12,52.33-40.68c14.29-11.1,28.58-22.21,42.89-33.28c1.21-0.94,2.26-2.14,3.78-2.64
		c0.73,5.32,0.12,10.6-0.55,15.87c-0.3,2.36-0.31,4.6,0.44,6.92c1.11,3.43,1.51,7.01,1.32,10.64c-0.13,0.91-0.65,1.51-1.39,2.07
		c-2.59,1.94-5.13,3.95-7.68,5.94c-12.81,9.95-25.62,19.91-38.43,29.86C132.21,277.36,126.45,281.86,120.68,286.35z"></path>
</g>
<g onclick="select(this)" class="" id="gola-primaria" fill="#000000">
	<path d="M77.98,7.96c0.55-0.06,0.97-0.37,1.35-0.73c0.87-0.82,1.88-1.55,2.57-2.51c2.45-3.43,6.04-4.19,9.84-4.21
		c14-0.07,28-0.02,41.99-0.04c1.92,0,3.82,0.11,5.72,0.46c2.21,0.41,4.07,1.2,5.47,3.09c1.21,1.63,2.64,3.11,4.42,4.17
		c1.98,0.97,2.23,2.05,1.7,4.53c-0.76,3.55-2.69,6.5-5.16,9.15c-4.21,4.51-9.21,7.93-14.65,10.72c-4.13,2.11-8.54,3.37-13.16,3.89
		c-6.52,0.73-12.84-0.21-18.89-2.58c-5.47-2.14-10.24-5.54-14.71-9.33c-3.05-2.59-5.61-5.57-7.12-9.33
		c-0.52-1.29-0.98-2.58-1.07-4.02C76.19,9.72,76.75,8.71,77.98,7.96z M144.21,9.15c-0.62,0-1.2-0.1-1.72,0.02
		c-1.37,0.32-2.76,0.24-4.14,0.39c-2.52,0.28-5.08,0.28-7.61,0.54c-5.34,0.55-10.7,0.71-16.05,0.92c-3.46,0.14-6.9-0.19-10.35-0.44
		c-4.34-0.31-8.69-0.49-13.01-1.12c-2.51-0.37-5.08-0.47-7.62-0.74c-0.75-0.08-0.7,0.24-0.52,0.76c0.32,0.91,0.73,1.78,1.28,2.57
		c4.36,6.26,10.05,10.9,17.09,13.83c5.56,2.31,11.27,3.43,17.34,2.21c9.08-1.83,16.4-6.51,22.31-13.5
		C142.51,13.03,143.79,11.36,144.21,9.15z"></path>
</g>
<g onclick="select(this)" class="" id="estampa-primaria" fill="#bf0811">
	<path d="M43.28,227.52c0.24,0.4,0.24,0.78-0.05,1.15C43.24,228.29,43.26,227.9,43.28,227.52z"></path>
	<path d="M45.64,185c-0.1-2.87-0.46-5.77-0.26-8.62c0.43-6.04-0.21-12.06-0.08-18.09c0.25-11.31,0.3-22.63-1.5-33.86
		c-0.18-1.1-0.25-2.22-0.37-3.34c-0.04-0.37,0-0.75-0.61-0.47c-2.71,1.25-5.65,1.51-8.55,1.65c-10.11,0.51-20.14-0.11-29.97-2.78
		c-1.42-0.39-2.87-0.74-4.07-1.66c0-0.8,0-1.6,0-2.4c0.41-1.6,0.63-3.24,0.95-4.87c0.64-3.29,1.24-6.59,1.7-9.92
		C4.31,90.28,5.67,79.9,7.22,69.54c1.15-7.68,3.42-15.02,7.21-21.87c3.39-6.12,8.46-10.68,13.62-15.18
		c0.44-0.38,0.94-0.72,1.46-0.97c6.37-3.02,12.84-5.83,19.36-8.5c8.17-3.35,16.15-7.09,23.73-11.64c0.52-0.31,0.94-0.71,1.33-1.17
		c1.06-1.25,2.3-2.22,4.05-2.24c-1.23,0.75-1.79,1.76-1.7,3.27c0.09,1.44,0.55,2.73,1.07,4.02c1.51,3.77,4.07,6.75,7.12,9.33
		c4.47,3.79,9.23,7.19,14.71,9.33c6.05,2.36,12.37,3.31,18.89,2.58c4.62-0.52,9.03-1.78,13.16-3.89
		c5.44-2.78,10.44-6.21,14.65-10.72c2.48-2.66,4.41-5.6,5.16-9.15c0.53-2.48,0.27-3.56-1.7-4.53c1.65-0.15,2.76,0.83,3.83,1.87
		c0.37,0.36,0.61,0.89,1.03,1.14c3.56,2.11,7.04,4.36,10.81,6.13c10.44,4.88,21.29,8.8,31.68,13.79c0.75,0.36,1.67,0.51,2.26,1.04
		c2.4,2.17,5.08,4.01,7.41,6.27c7.01,6.79,10.93,15.23,13.29,24.54c1.24,4.9,1.63,9.93,2.54,14.88c1.31,7.11,3.28,14.08,4.24,21.27
		c0.49,3.67,1.05,7.34,1.76,10.97c0.16,0.8-0.15,1.87,0.78,2.47c0,1.2,0,2.4,0,3.6c-6.93,2.81-14.16,4.38-21.57,5.25
		c-6.59,0.77-13.16,0.7-19.72-0.21c-0.87-0.12-1.78-0.23-2.51-0.73c-0.73-0.5-0.62,0.17-0.81,0.46c-0.2-1.07,0.4-2.11,0.12-3.2
		c-0.47-0.02-0.72,0.33-1.02,0.57c-6.56,5.1-13.12,10.2-19.68,15.3c-11.99,9.31-23.98,18.62-35.96,27.94
		c-13.97,10.86-27.93,21.74-41.9,32.6c-9.55,7.43-19.1,14.87-28.67,22.29c-4.64,3.6-9.3,7.17-13.95,10.76
		c-0.35-1.95-0.42-3.92-0.54-5.9c0.51,0.07,0.8-0.3,1.14-0.57c13.78-10.67,27.56-21.34,41.34-32c11.95-9.25,23.9-18.49,35.85-27.74
		c14.82-11.48,29.63-22.97,44.45-34.45c6.26-4.85,12.51-9.69,18.77-14.53c0.56-0.43,0.89-0.89,1.01-1.65
		c0.79-4.79,1.64-9.57,2.81-14.29c0.9-3.66,2.24-7.13,3.74-10.59c2.04-4.69,2.87-9.7,2.97-14.82c0.02-0.73,0.13-1.47-0.11-2.31
		c-0.44,0.3-0.77,0.51-1.09,0.75c-12.32,9.55-24.63,19.11-36.95,28.65c-18.07,14-36.15,28-54.23,41.99
		c-18.3,14.17-36.6,28.33-54.91,42.48C46.6,182.97,45.65,183.64,45.64,185z"></path>
	<path d="M120.68,286.35c5.77-4.49,11.53-8.99,17.3-13.48c12.81-9.96,25.62-19.91,38.43-29.86
		c2.56-1.99,5.09-4,7.68-5.94c0.74-0.55,1.26-1.15,1.39-2.07c0.02,1.88-0.26,3.74-0.52,5.6c-0.2,1.44-0.23,2.85,0.1,4.28
		c0.91,3.94,0.45,7.96,0.67,11.95c0.32,5.78,0.68,11.57,1.41,17.32c0.26,2.09,0.23,4.22,0.26,6.33c0.02,1.67-0.36,2.15-2,2.67
		c-2.3,0.73-4.69,0.98-7.08,1.26c-8.39,0.99-16.83,1.11-25.27,1.25c-10.27,0.17-20.55,0.48-30.82,0.72
		C121.72,286.38,121.2,286.36,120.68,286.35z"></path>
	<path d="M182.69,161.24c-0.44-0.69-0.67,0.05-0.86,0.19c-3.69,2.81-7.35,5.65-11.02,8.49
		c-9.95,7.72-19.89,15.43-29.84,23.15c-12.69,9.85-25.37,19.72-38.06,29.57c-17.02,13.21-34.04,26.41-51.06,39.61
		c-3.66,2.84-7.32,5.68-10.99,8.52c0.14-2.19,0.28-4.38,0.43-6.56c2.24-1.41,4.22-3.15,6.3-4.76c16.88-13.1,33.75-26.22,50.62-39.34
		c17.6-13.68,35.19-27.36,52.79-41.05c10.53-8.19,21.06-16.38,31.59-24.57c0.09-0.07,0.2-0.13,0.3-0.2
		c0.44,1.08,0.24,2.19,0.17,3.29C182.99,158.81,182.82,160.02,182.69,161.24z"></path>
	<path d="M184.26,201.57c-1.52,0.5-2.57,1.7-3.78,2.64c-14.31,11.07-28.6,22.18-42.89,33.28
		c-17.45,13.55-34.88,27.12-52.33,40.68c-2.81,2.18-5.62,4.36-8.43,6.53c-0.31,0.24-0.7,0.41-0.79,0.85
		c-2.63,0.01-5.26,0.01-7.89-0.2c8.54-6.64,17.07-13.3,25.62-19.93c13.53-10.51,27.07-21.01,40.61-31.51
		c15.59-12.09,31.17-24.19,46.76-36.28c0.72-0.56,1.47-1.09,2.21-1.63C183.91,197.81,184.03,199.7,184.26,201.57z"></path>
	<path d="M144.21,9.15c-0.42,2.21-1.71,3.88-3.03,5.44c-5.91,6.99-13.22,11.67-22.31,13.5
		c-6.07,1.22-11.78,0.1-17.34-2.21c-7.04-2.92-12.73-7.57-17.09-13.83c-0.55-0.79-0.96-1.66-1.28-2.57C83,8.96,82.95,8.65,83.7,8.72
		c2.54,0.27,5.11,0.37,7.62,0.74c4.32,0.63,8.67,0.81,13.01,1.12c3.45,0.25,6.9,0.57,10.35,0.44c5.36-0.21,10.72-0.37,16.05-0.92
		c2.53-0.26,5.08-0.26,7.61-0.54c1.38-0.15,2.77-0.07,4.14-0.39C143.02,9.05,143.59,9.15,144.21,9.15z"></path>
</g>
</svg>
