<!--?xml version="1.0" encoding="utf-8"?-->
<!-- Generator: Adobe Illustrator 24.2.3, SVG Export Plug-In . SVG Version: 6.00 Build 0)  -->
<svg version="1.1" id="Camada_1" xmlns="http://www.w3.org/2000/svg" xmlns:xlink="http://www.w3.org/1999/xlink" x="0px" y="0px" viewBox="0 0 229 418" style="enable-background:new 0 0 229 418;" xml:space="preserve">
<style type="text/css">
	.st0{fill:#1F49C1;}
	.st1{fill:#FB0101;}
	.st2{fill:#F802E2;}
	.st3{fill:#00FC07;}
	.st4{fill:#CAF7A1;}
	.st5{fill:#CCFAA1;}
	.st6{fill:#CAF8A1;}
	.st7{fill:#131666;}
	.st8{fill:#121566;}
	.st9{fill:#121465;}
	.st10{fill:#111365;}
	.st11{fill:#151867;}
	.st12{fill:#141766;}
	.st13{fill:#D90202;}
</style>
<g onclick="select(this)" class="" id="gola-secundaria" fill="#bf0811">
	<path d="M116.8,49c-0.8,0.2-1.6,0.8-2.5,0.6c-0.2-0.8,0-1.6,0.2-2.3c0.9-3.6,2.6-6.9,4.5-10.1
		c4.1-4.3,8.1-8.6,12.2-12.8c3.1-3.1,5.7-6.6,7.9-10.4c0.8-1.4,1.8-2.7,2.1-4.4c0.8-1.3,1-2.7,1-4.1c0-1-0.5-1.7-1.4-2
		c-1.1-0.4-2.2-0.6-3.3-0.6c-15.7,0-31.3,0-47,0c-1.2,0-2.4,0.2-3.5,0.7c-0.7,0.3-1.2,0.8-1.2,1.6c0,1.4,0.1,2.9,0.8,4.2
		c0,0.6,0.3,1.1,0.6,1.6c2.4,4.4,5.1,8.7,8.6,12.4c4.4,4.6,8.9,9.1,13.1,13.9c2.2,3.3,3.9,6.9,4.8,10.8c0.1,0.6,0.2,1.1,0,1.7
		c-0.8,0.1-1.5-0.1-2.2-0.5c-0.1-0.1-0.2-0.2-0.3-0.2c0,0,0,0,0,0c-1-4.6-2.9-8.8-6.2-12.2c-2.7-2.9-5.4-5.8-8.2-8.6
		c-3.8-3.9-7.4-8-10.2-12.8c-2-3.3-3.5-6.8-3.5-10.8c0.4-2,2.3-3.5,4.8-3.8c1.3-0.2,2.6-0.3,3.9-0.3c14.7,0,29.5,0,44.2,0
		c1.7,0,3.4,0.1,5,0.5c1.5,0.4,2.7,1.2,3.3,2.6c0.8,2.8-0.1,5.5-1.2,8c-1.9,4.2-4.4,8.1-7.5,11.5c-4.1,4.5-8.4,8.9-12.5,13.3
		C119.9,40,117.7,44.2,116.8,49z"></path>
</g>
<g onclick="select(this)" class="" id="detalhe-punho" fill="#021c3b">
	<path d="M43.8,120.6c-1.4,1-3.1,1.2-4.8,1.5c-6.7,0.9-13.5,0.7-20.2,0.2c-5.1-0.4-10.1-1.3-15-2.7
		c-1.1-0.3-2.1-0.8-3.1-1.2c0-1.1,0-2.2,0-3.4c0.5-1,0.4-2.2,0.7-3.2c0.1-0.6,0.1-1.2,0.5-1.7c0.5,0.4,1.1,0.7,1.7,0.8
		c1.7,0.4,3.4,0.9,5.1,1.2c3.7,0.7,7.3,1.9,11.2,2c1.9,0.1,3.7,0.2,5.6,0.3c3.7,0.3,7.4,0.1,11.1,0.2c1.9,0,3.7-0.5,5.5-1.2
		c0.4-0.2,0.7-0.3,0.8,0.3C43.3,115.9,43.8,118.2,43.8,120.6z"></path>
	<path d="M184.9,120.3c-0.2-2.2,0.4-4.4,0.7-6.5c0.1-0.6,0.3-0.7,0.9-0.6c5.6,1.2,11.4,0.9,17,0.7
		c8.1-0.4,15.9-2.4,23.5-5c0.3-0.1,0.6-0.3,0.9-0.5c0.8,1.2,0.6,2.7,0.9,4c0.2,0.8,0.1,1.7,0.2,2.5c0.2,1.3-0.4,1.9-1.6,2.2
		c-5.7,1.9-11.6,3.3-17.6,4.3c-5.4,0.8-10.9,0.7-16.4,0.7c-2.5,0-4.9-0.3-7.3-0.9C185.8,121,185.3,120.8,184.9,120.3z"></path>
</g>
<g onclick="select(this)" class="" id="gola-terciaria" fill="#ffffff">
	<path d="M119,37.2c-2,3.1-3.6,6.5-4.5,10.1c-0.2,0.8-0.5,1.5-0.2,2.3c-0.2,0-0.3,0-0.5,0c0.1-0.6,0.1-1.1,0-1.7
		c-0.9-3.9-2.6-7.5-4.8-10.8C112.3,37.2,115.7,37.2,119,37.2z"></path>
</g>
<path d="M111.2,48.9c0.2,0,0.3,0.1,0.3,0.2C111.4,49.1,111.2,49.2,111.2,48.9z"></path>
<g onclick="select(this)" class="" id="estampa-primaria" fill="#bf0811">
	<path d="M43.8,120.6c0-2.4-0.5-4.7-1-7c-0.1-0.5-0.4-0.4-0.8-0.3c-1.8,0.7-3.5,1.2-5.5,1.2c-3.7,0-7.4,0.1-11.1-0.2
		c-1.9-0.1-3.7-0.3-5.6-0.3c-3.8-0.1-7.4-1.3-11.2-2c-1.7-0.3-3.4-0.8-5.1-1.2c-0.6-0.2-1.2-0.4-1.7-0.8c1.8-9.5,2.7-19.1,4.2-28.6
		C7,76.3,7.3,71.1,8.4,66c1.8-8.2,4.5-16,9.6-22.8c2-2.7,4.3-5.2,7-7.4c1.4-1.1,2.5-2.7,4.1-3.5c3.6-1.9,7.3-3.7,11-5.3
		C50,23,60,18.9,69.4,13.7c2-1.1,4-2.1,5.6-4c0.9-1,2.1-1.8,3.7-1.4c-2,1.2-2.4,2.2-2,4.5c0.4,2.3,1.5,4.3,2.8,6.2
		c5.5,8.3,11.9,15.8,19.2,22.6c3.1,2.9,6.5,5.2,10.4,6.7c0.7,0.3,1.4,0.8,2.2,0.7l0,0c0,0.2,0.2,0.2,0.3,0.2
		c0.7,0.3,1.4,0.6,2.2,0.5c0.2,0,0.3,0,0.5,0c0.9,0.3,1.7-0.4,2.5-0.6c0.9-0.3,1.8-0.7,2.7-1c5.3-1.9,9.2-5.7,13.1-9.5
		c6-5.7,11-12.2,15.7-19c1.5-2.1,2.8-4.4,3.3-7c0.4-1.8-0.1-3.2-1.6-4.2c1.7,0,2.8,1,3.8,2.2c0.3,0.4,0.7,0.7,1.1,1
		c10,6.5,21.2,10.6,32.1,15.2c4,1.7,7.9,3.4,11.7,5.3c2.2,1.1,3.9,3,5.8,4.6c7.7,6.5,12.3,15,14.9,24.6c1.1,4,1.9,8,2.3,12.1
		c0.5,5.6,2.1,10.9,3.2,16.3c1.3,6.2,2.1,12.4,3.1,18.7c-0.3,0.2-0.6,0.4-0.9,0.5c-7.6,2.6-15.5,4.6-23.5,5
		c-5.7,0.3-11.4,0.5-17-0.7c-0.6-0.1-0.8,0-0.9,0.6c-0.4,2.2-1,4.3-0.7,6.5c-0.4,0.8-0.3,1.7-0.4,2.6c-1,8.4-1.7,16.8-1.7,25.2
		c0,2.2,0.1,4.4,0.5,6.6c0.4,1.9,0,3.8-0.2,5.7c-0.2,2.1-0.2,4.2-0.1,6.3c0.1,2.2-0.1,4.3-0.2,6.5c-0.1,2.8-0.1,5.7,0.1,8.5
		c0.1,1.7,0.1,3.4-0.1,5c-0.3,3.1,0.2,6.1,0.9,9.1c1.6,7.2,1.4,14.5,0.3,21.8c-0.3,2.1-0.4,4.2,0.3,6.4c1.8,5.4,1.8,11,0.9,16.6
		c-0.2,1.5-0.2,2.9,0.1,4.4c0.9,3.8,0.4,7.6,0.6,11.5c0.3,5.9,0.7,11.9,1.4,17.8c0.3,2,0.2,4.1,0.3,6.1c0,1.8-0.3,2.3-2.1,2.9
		c-3,0.9-6.1,1.2-9.2,1.5c-7.7,0.8-15.4,0.9-23.1,1c-11.2,0.2-22.4,0.7-33.7,0.8c-12.5,0.2-24.9-0.8-37.4-0.8
		c-8.4,0-16.8-0.1-25.2-0.7c-4.1-0.3-8.3-0.8-12.3-1.7c-0.2,0-0.4-0.1-0.6-0.1c-3.2-0.8-3.6-1.2-3.4-4.5c0.5-7.8,1-15.5,1.6-23.3
		c0.1-2,0.3-4.1,0.2-6.1c0-1.8,0-3.6,0.4-5.4c0.4-2.3,0.5-4.5,0.1-6.8c-0.3-1.8-0.3-3.7,0.1-5.5c0.7-2.7,0.4-5.5,0.2-8.2
		c-0.3-3.5-0.7-7-0.6-10.5c0.2-4.3,1.2-8.4,2.6-12.4c0.4-1.1,0.7-2.1,0.5-3.3c-0.2-1.2-0.2-2.5,0.1-3.7c0.3-1.6,0.2-3.2,0.1-4.9
		c-0.2-3.3-0.2-6.6-0.2-9.9c-0.1-12.9,0-25.9-0.1-38.8c0-5.1-1-10.2-1.5-15.3C44.1,123.3,43.9,121.9,43.8,120.6z"></path>
	<path d="M119,37.2c-3.4,0-6.7,0-10.1,0c-4.2-4.8-8.8-9.3-13.1-13.9c-3.5-3.7-6.2-7.9-8.6-12.4c-0.3-0.5-0.5-1-0.6-1.6
		c3.1,0.3,6.1,0.6,9.2,0.8c8.3,0.6,16.7,1.4,25.1,0.8c6.8-0.5,13.5-0.9,20.3-1.4c-0.3,1.6-1.3,3-2.1,4.4c-2.2,3.8-4.8,7.2-7.9,10.4
		C127.1,28.6,123.1,32.9,119,37.2z"></path>
</g>
<g onclick="select(this)" class="" id="gola-primaria" fill="#021c3b">
	<path d="M116.8,49c1-4.8,3.1-9,6.4-12.6c4.2-4.5,8.4-8.8,12.5-13.3c3.1-3.4,5.6-7.3,7.5-11.5c1.2-2.5,2-5.1,1.2-8
		c1,0.6,1.6,1.6,2.4,2.4c1,0.9,1.8,1.9,3,2.4c1.6,1.1,2,2.4,1.6,4.2c-0.5,2.6-1.8,4.9-3.3,7c-4.7,6.7-9.8,13.2-15.7,19
		c-3.9,3.8-7.8,7.5-13.1,9.5C118.5,48.4,117.7,48.7,116.8,49z"></path>
	<path d="M83.2,4.5c0,4,1.6,7.4,3.5,10.8c2.8,4.8,6.4,8.9,10.2,12.8c2.8,2.8,5.5,5.7,8.2,8.6c3.2,3.5,5.2,7.6,6.2,12.2
		c-0.8,0.1-1.5-0.4-2.2-0.7c-3.9-1.5-7.3-3.8-10.4-6.7C91.4,34.7,85,27.2,79.5,18.9c-1.3-1.9-2.3-3.9-2.8-6.2c-0.4-2.2,0-3.3,2-4.5
		c1.2-0.5,2-1.6,3-2.5C82.2,5.4,82.5,4.8,83.2,4.5z"></path>
	<path d="M141.2,9.6c-6.8,0.5-13.5,0.9-20.3,1.4c-8.4,0.6-16.7-0.2-25.1-0.8c-3.1-0.2-6.1-0.5-9.2-0.8
		c-0.7-1.3-0.9-2.7-0.8-4.2c0-0.8,0.5-1.3,1.2-1.6c1.1-0.5,2.3-0.7,3.5-0.7c15.7,0,31.3,0,47,0c1.1,0,2.2,0.2,3.3,0.6
		c0.9,0.3,1.4,1,1.4,2C142.2,6.9,141.9,8.3,141.2,9.6z"></path>
</g>
<path d="M45.6,137c0.3,0.6,0.2,1.3,0.2,1.9C45.5,138.3,45.6,137.6,45.6,137z"></path>
<path d="M45.7,159.4c0.1,0.5,0.1,1.1-0.1,1.6C45.6,160.4,45.5,159.9,45.7,159.4z"></path>
<path d="M183.1,151.9c-0.2-0.3-0.2-0.6-0.1-1C183.2,151.3,183.1,151.6,183.1,151.9z"></path>
<path d="M185.9,230.9c-0.1-0.2-0.1-0.5-0.1-0.7C186.1,230.4,186,230.7,185.9,230.9z"></path>
<path d="M42.8,216.5c0.1,0.1,0.1,0.3,0,0.4C42.8,216.8,42.8,216.6,42.8,216.5z"></path>
<path d="M42.2,257.3c0,0.1,0,0.3,0,0.4C42,257.6,42,257.4,42.2,257.3z"></path>
<path d="M185.9,236.8c0-0.1,0-0.1-0.1-0.1c0,0,0,0,0.1,0C186,236.7,186,236.8,185.9,236.8z"></path>
<g onclick="select(this)" class="" id="estampa-secundaria" fill="#021c3b">
	<path d="M187.7,276.5c0.3,1.2,0.2,2.5,0.2,3.7c-6.2,0-12.5,0-18.7,0c-0.3,0-0.8,0.1-0.8-0.3c0-1-0.7-0.8-1.3-0.8
		c-8,0-15.9,0-23.9,0c-3,0-5.9,0-8.9,0c-0.3,0-0.9-0.2-0.9,0.3c0,1.1-0.8,0.8-1.3,0.8c-6.4,0-12.8,0-19.2,0c-4.5,0-9,0-13.4,0
		c-0.4,0-1-0.2-1,0.3c0,1-0.7,0.8-1.2,0.8c-8,0-15.9,0-23.9,0c-3,0-6,0-9,0c-0.3,0-0.9,0.2-0.9-0.3c0-1.1-0.7-0.8-1.2-0.8
		c-7.1,0-14.2,0-21.4,0c-0.1-1.2-0.1-2.5,0.1-3.7c0.5,0,1,0,1.4,0c6.6,0,13.3,0,19.9,0c0.4,0,1,0.2,1.1-0.2c0-1.3,1-0.8,1.5-0.8
		c9.6,0,19.2,0,28.8,0c1.3,0,2.6,0,4,0c0.3,0,0.8-0.2,0.8,0.4c0,0.7,0.4,0.6,0.9,0.6c2,0,3.9,0,5.9,0c9,0,18.1,0,27.1,0
		c0.4,0,1.1-0.3,1.1,0.3c0,1,0.7,0.8,1.2,0.8c4.6,0,9.3,0,13.9,0c6.2,0,12.5,0,18.7,0c0.4,0,1,0.2,1.1-0.2c0.1-1.2,0.9-0.8,1.6-0.8
		C175.8,276.5,181.7,276.5,187.7,276.5z"></path>
	<path d="M41.1,273.3c0.1-1.2,0.1-2.5,0.4-3.7c7,0,14,0,21,0c0.3,0,0.8,0.1,0.8-0.2c0-1.2,0.8-0.8,1.4-0.8
		c10.6,0,21.2,0,31.8,0c0.4,0,0.9,0,1.3,0c0.2,0,0.6,0,0.5,0.3c-0.1,1,0.6,0.7,1.1,0.7c2.8,0,5.7,0,8.5,0c8.1,0,16.2,0,24.2,0
		c0.4,0,1.1-0.3,1.1,0.3c0.1,1,0.7,0.7,1.3,0.7c8.4,0,16.8,0,25.2,0c2.5,0,5,0,7.6,0c0.3,0,0.9,0.1,0.9-0.3c0-1.1,0.8-0.8,1.3-0.8
		c5.8,0,11.6,0,17.4,0c0.3,1.2,0.3,2.5,0.4,3.7c-1.1,0-2.2,0-3.2,0c-4.9,0-9.8,0-14.8,0c-0.4,0-1,0.3-1-0.4c0-0.8-0.5-0.6-1-0.6
		c-2.8,0-5.6,0-8.4,0c-8.1,0-16.3,0-24.5,0c-0.4,0-1.1-0.3-1.1,0.3c0,1-0.7,0.7-1.2,0.7c-3.7,0-7.4,0-11.2,0c-7.2,0-14.4,0-21.6,0
		c-0.4,0-1.1-0.2-1.1,0.2c-0.1,1.3-0.9,0.8-1.5,0.8c-9.1,0-18.2,0-27.3,0c-1.8,0-3.6,0-5.4,0c-0.3,0-0.8,0.2-0.8-0.3
		c0-1-0.7-0.8-1.2-0.8C55.2,273.3,48.1,273.3,41.1,273.3z"></path>
	<path d="M185.3,227.6c0.4,0.8,0.3,1.8,0.6,2.6c-0.1,0.3-0.1,0.5,0.1,0.7c0,0.1,0,0.2,0,0.3c-0.5,0-0.9,0.1-1.4,0.1
		c-5,0-10,0-15,0c-0.4,0-1-0.2-1,0.3c-0.1,1.1-0.8,0.8-1.4,0.8c-9.6,0-19.1,0-28.7,0c-1.4,0-2.8,0-4.2,0c-0.3,0-0.8,0.2-0.8-0.3
		c0-1-0.7-0.8-1.3-0.8c-10.5,0-20.9,0-31.4,0c-0.6,0-1.1,0-1.7,0c-0.3,0-0.7,0.1-0.7-0.3c0.1-1.1-0.7-0.8-1.2-0.8
		c-10.9,0-21.8,0-32.6,0c-0.5,0-1.3-0.3-1.2,0.8c0,0.4-0.5,0.3-0.8,0.3c-6.4,0-12.9,0-19.3,0c0.1-1.2,0.5-2.4,0.5-3.6
		c6.3,0,12.5,0,18.8,0c0.3,0,0.8-0.1,0.8,0.3c0,1.1,0.7,0.8,1.2,0.8c8,0,16.1,0,24.1,0c2.9,0,5.8,0,8.8,0c0.3,0,0.9,0.2,0.9-0.3
		c0-1.1,0.8-0.8,1.3-0.8c7.1,0,14.2,0,21.3,0c3.8,0,7.5,0,11.3,0c0.4,0,1,0.2,1.1-0.3c0-1.1,0.8-0.8,1.4-0.8c9.3,0,18.6,0,27.8,0
		c1.7,0,3.4,0,5,0c0.3,0,0.8-0.1,0.8,0.3c0,0.8,0.5,0.7,1,0.7C174.6,227.6,180,227.6,185.3,227.6z"></path>
	<path d="M186.5,263.6c0.3,0.5,0.1,1,0.2,1.5c-0.4,0-0.9,0-1.3,0c-5.3,0-10.6,0-16,0c-0.4,0-1-0.2-1,0.3
		c-0.1,1-0.7,0.8-1.3,0.8c-4.6,0-9.3,0-13.9,0c-6.2,0-12.5,0-18.7,0c-0.4,0-1.1-0.3-1.1,0.3c-0.1,0.9-0.6,0.7-1.1,0.7
		c-4.3,0-8.6,0-12.8,0c-6.7,0-13.4,0-20,0c-0.4,0-1,0.2-1-0.2c0-1.1-0.8-0.8-1.3-0.8c-6.8,0-13.5,0-20.3,0c-4.1,0-8.2,0-12.4,0
		c-0.4,0-1,0.2-1-0.3c0-1.2-0.8-0.8-1.4-0.8c-6.4,0-12.8,0-19.2,0c-0.5,0-1.2,0.2-1.2-0.7c0-0.3,0.1-0.5,0.1-0.8
		c0.5,0,1-0.1,1.4-0.1c6.4,0,12.7,0,19.1,0c0.4,0,1,0.2,1-0.3c0-1.2,0.9-0.8,1.4-0.8c10.5,0,20.9,0,31.4,0c0.5,0,1,0,1.6,0
		c0.3,0,0.7,0.1,0.6-0.3c-0.1-1,0.6-0.7,1.1-0.7c4.2,0,8.5,0,12.7,0c6.7,0,13.3,0,20,0c0.4,0,1.1-0.3,1.1,0.3c0.1,1,0.7,0.7,1.2,0.7
		c6.8,0,13.7,0,20.5,0c4.1,0,8.2,0,12.4,0c0.3,0,0.9-0.3,0.9,0.4c0,0.7,0.5,0.7,1,0.7C175,263.7,180.8,263.6,186.5,263.6z"></path>
	<path d="M42.2,257.3c0-0.2,0.1-0.4,0.1-0.6c0.9,0,1.8,0,2.8,0c5.8,0,11.5,0,17.3,0c0.3,0,1,0.3,1-0.3
		c0-1.1,0.8-0.7,1.3-0.7c10.4,0,20.8,0,31.2,0c0.6,0,1.3,0,1.9,0c0.3,0,0.7,0.1,0.7-0.3c-0.1-1.1,0.7-0.8,1.2-0.8
		c10.8,0,21.5,0,32.3,0c0.6,0,1.6-0.4,1.6,0.9c0,0.2,0.3,0.2,0.5,0.2c0.4,0,0.7,0,1.1,0c10.7,0,21.4,0,32.1,0c0.4,0,1-0.2,1.1,0.2
		c0.1,1.2,1,0.8,1.6,0.8c5.4,0,10.9,0,16.3,0.1c0,0.5,0,1,0.1,1.5c-0.4,0-0.9,0-1.3,0c-5.2,0-10.3,0-15.5,0c-0.4,0-1-0.2-1,0.3
		c-0.1,1-0.8,0.7-1.3,0.7c-6,0-12,0-18,0c-4.9,0-9.8,0-14.6,0c-0.4,0-1-0.2-1,0.3c0,1.3-0.9,0.9-1.5,0.9c-8.5,0-16.9,0-25.4,0
		c-2.4,0-4.8,0-7.2,0c-0.3,0-0.9,0.2-0.9-0.3c0-1.1-0.7-0.8-1.3-0.8c-10.7,0-21.4,0-32.1,0c-0.4,0-0.7,0-1.1,0c-0.2,0-0.5,0-0.5-0.3
		c0.1-1-0.7-0.7-1.1-0.7c-6.7,0-13.4,0-20,0c0-0.2-0.1-0.3-0.1-0.5C42.1,257.6,42.1,257.5,42.2,257.3z"></path>
	<path d="M186,249.6c0.3,0.5,0.2,1.1,0.2,1.6c-0.5,0-1,0-1.4,0c-5.1,0-10.2,0-15.2,0c-0.4,0-1-0.2-1.1,0.2
		c-0.1,1.1-0.9,0.8-1.5,0.8c-10.7,0-21.4,0-32.1,0c-0.3,0-0.6,0-1,0c-0.2,0-0.5,0.1-0.4,0.3c0.1,1.1-0.8,0.8-1.3,0.8
		c-10.8,0-21.7,0-32.5,0c-0.2,0-0.5,0-0.7,0c-0.2,0-0.5,0-0.5-0.3c0.1-1.2-0.8-0.8-1.4-0.8c-10.7,0-21.4,0-32.2,0c-0.3,0-0.6,0-1,0
		c-0.2,0-0.5,0-0.5-0.3c0.1-1-0.7-0.7-1.2-0.7c-6.1,0-12.2,0-18.2,0c-0.5,0-1-0.1-1.4-0.1c0-0.5,0-1,0-1.4c0.5,0,1-0.1,1.4-0.1
		c6.1,0,12.2,0,18.2,0c0.4,0,1,0.2,1.1-0.2c0-1.2,0.9-0.8,1.5-0.8c6.2,0,12.4,0,18.6,0c4.6,0,9.3,0,13.9,0c0.4,0,1.1,0.3,1.1-0.4
		c0-1.1,0.7-0.8,1.2-0.8c10.2,0,20.4,0,30.6,0c0.8,0,1.7,0,2.5,0c0.3,0,0.7-0.1,0.7,0.3c-0.1,1.1,0.7,0.8,1.3,0.8
		c8.3,0,16.6,0,24.9,0c2.6,0,5.2,0,7.8,0c0.3,0,0.9-0.2,0.9,0.4c0,0.7,0.4,0.6,0.9,0.6C174.8,249.6,180.4,249.6,186,249.6z"></path>
	<path d="M43,210.2c0.2-1.2,0.4-2.4,0.7-3.5c6.3,0,12.6,0,19,0c0.3,0,0.7-0.1,0.7,0.3c0,1,0.7,0.8,1.2,0.8
		c7.2,0,14.3,0,21.5,0c3.8,0,7.5,0,11.3,0c0.4,0,1,0.2,1-0.3c0-1.1,0.8-0.8,1.3-0.8c10,0,20,0,30,0c1,0,2,0,3,0
		c0.3,0,0.7,0.1,0.7-0.4c-0.1-0.9,0.6-0.7,1.1-0.7c3.8,0,7.7,0,11.5,0c7.1,0,14.2,0,21.2,0c0.4,0,1-0.2,1.1,0.2
		c0.1,1.3,1,0.9,1.7,0.9c5,0.1,10.1,0.1,15.1,0.1c0,1,0,2,0,3.1c-0.2,0.6-0.7,0.5-1.1,0.5c-4.8,0-9.6,0-14.4,0c-0.4,0-1-0.2-1,0.3
		c-0.1,1.2-0.9,0.8-1.4,0.8c-8.9,0-17.8,0-26.6,0c-2,0-4,0-6,0c-0.4,0-0.9,0.2-0.9-0.4c0-0.9-0.6-0.7-1.1-0.7c-3.7,0-7.4,0-11.2,0
		c-7.2,0-14.5,0-21.7,0c-0.4,0-1,0.3-1.1-0.3c0-0.9-0.6-0.7-1.1-0.7c-5,0-9.9,0-14.9,0c-6,0-12,0-18,0c-0.4,0-1-0.3-1.1,0.4
		c0,0.9-0.6,0.6-1.1,0.7c-3.9,0-7.8,0-11.6,0C48.1,210.3,45.6,210.2,43,210.2z"></path>
	<path d="M43.2,237.2c-0.3-0.5-0.2-1-0.2-1.5c0.5,0,1,0,1.4,0c6,0,11.9,0,17.9,0c0.3,0,1,0.3,1-0.3
		c0-1.1,0.7-0.8,1.3-0.8c5,0,10.1,0,15.1,0c5.8,0,11.7,0,17.5,0c0.4,0,1.1,0.2,1.1-0.2c0-1.2,0.9-0.8,1.4-0.8c6.2,0,12.4,0,18.6,0
		c4.6,0,9.3,0,13.9,0c0.4,0,1-0.3,1.1,0.4c0.1,0.9,0.6,0.7,1.1,0.7c3.1,0,6.2,0,9.2,0c7.8,0,15.7,0,23.5,0c0.4,0,1.1-0.3,1.1,0.3
		c0.1,1.1,0.8,0.8,1.4,0.8c5.4,0,10.9,0,16.3,0.1c0,0.3,0,0.6,0,0.9c0,0-0.1,0-0.1,0c0,0.1,0,0.1,0.1,0.1c-0.1,0.1-0.1,0.2-0.2,0.3
		c-5.4,0-10.9,0-16.3,0c-0.4,0-1-0.2-1.1,0.2c-0.1,1.1-0.9,0.8-1.4,0.8c-7.6,0-15.2,0-22.8,0c-3.3,0-6.6,0-9.8,0
		c-0.3,0-0.9-0.2-0.9,0.3c0,1-0.7,0.8-1.3,0.8c-8,0-16.1,0-24.1,0c-2.9,0-5.8,0-8.8,0c-0.3,0-0.9,0.2-0.9-0.3c0-1-0.7-0.8-1.2-0.8
		c-8.1,0-16.2,0-24.3,0c-2.8,0-5.7,0-8.5,0c-0.3,0-0.9,0.2-0.9-0.4c0-0.8-0.4-0.7-0.9-0.7C56,237.2,49.6,237.2,43.2,237.2z"></path>
	<path d="M43,244.3c-0.1-0.6,0-1.1,0.2-1.6c6.4,0,12.7,0,19.1,0c0.4,0,1,0.2,1-0.2c0-1.1,0.8-0.8,1.3-0.8
		c7.6,0,15.2,0,22.8,0c3.3,0,6.6,0,9.9,0c0.4,0,1,0.3,1-0.5c0-0.7,0.5-0.6,0.9-0.6c2.7,0,5.4,0,8.2,0c8.3,0,16.6,0,24.8,0
		c0.4,0,1.1-0.3,1.1,0.3c0.1,1.1,0.7,0.8,1.3,0.8c7.5,0,14.9,0,22.4,0c3.4,0,6.9,0,10.3,0c0.3,0,0.9-0.2,0.9,0.3
		c0.1,1.1,0.8,0.8,1.4,0.8c5.2,0,10.4,0.1,15.6,0.1c0,0.5,0,1.1,0,1.6c-5.4,0-10.7,0-16.1,0c-0.3,0-0.8-0.1-0.8,0.3
		c0,0.9-0.7,0.7-1.2,0.7c-3.2,0-6.5,0-9.7,0c-7.7,0-15.4,0-23,0c-0.4,0-1-0.2-1,0.2c0,1.3-0.9,0.9-1.5,0.9c-10.5,0-20.9,0-31.4,0
		c-0.5,0-1,0-1.4,0c-0.3,0-0.7,0.1-0.7-0.3c0.1-1-0.6-0.8-1.2-0.8c-10.8,0-21.6,0-32.4,0c-0.6,0-1.5,0.5-1.5-0.8
		c0-0.3-0.5-0.2-0.7-0.2C56,244.2,49.5,244.3,43,244.3z"></path>
	<path d="M184.5,123.7c0,0.3,0,0.6,0,0.8c-0.1,0.7-0.6,0.7-1.2,0.7c-4.6,0-9.3,0-13.9,0c-0.3,0-0.9-0.2-1,0.2
		c-0.1,1-0.7,0.8-1.4,0.8c-9.2,0-18.3,0-27.5,0c-1.8,0-3.6,0-5.4,0c-0.3,0-0.8-0.2-0.8,0.4c0,0.9-0.6,0.7-1.1,0.7
		c-4.3,0-8.6,0-12.9,0c-6.6,0-13.3,0-19.9,0c-0.4,0-1,0.2-1-0.2c0-1.2-0.8-0.8-1.4-0.8c-10.2,0-20.3,0-30.5,0c-0.8,0-1.7,0-2.5,0
		c-0.3,0-0.7,0.1-0.7-0.3c0.1-1-0.6-0.7-1.1-0.7c-6,0-11.9,0-17.9,0c-0.1-0.5-0.1-1-0.2-1.5c0.5,0,1-0.1,1.4-0.1c5.5,0,11,0,16.5,0
		c0.4,0,1.1,0.2,1.1-0.2c0.1-1.3,1-0.8,1.6-0.8c10.7,0,21.4,0,32.1,0c0.3,0,0.6,0,0.8,0c0.2,0,0.6,0,0.5-0.3c-0.1-1,0.6-0.8,1.2-0.8
		c10.9,0,21.8,0,32.6,0c0.2,0,0.5,0,0.7,0c0.3,0,0.5,0.1,0.5,0.4c-0.1,0.9,0.5,0.7,1,0.7c2.8,0,5.5,0,8.3,0c8.2,0,16.4,0,24.6,0
		c0.4,0,1-0.2,1.1,0.2c0.1,1.1,0.8,0.8,1.4,0.8C174.6,123.7,179.6,123.7,184.5,123.7z"></path>
	<path d="M184.3,199.5c0.4,1.2,0.4,2.4,0.5,3.7c-0.2,0-0.5,0-0.7,0c-4.9,0-9.8,0-14.6,0c-0.4,0-1-0.3-1.1,0.4
		c-0.1,0.9-0.6,0.7-1.1,0.7c-4.8,0-9.5,0-14.3,0c-6.2,0-12.3,0-18.5,0c-0.4,0-1,0.2-1.1-0.2c-0.1-1.1-0.9-0.8-1.5-0.8
		c-1.2,0-2.5,0-3.7,0c-9.6,0-19.2,0-28.8,0c-0.4,0-1,0.2-1.1-0.2c0-1.3-0.9-0.9-1.5-0.9c-10.7,0-21.4,0-32.2,0c-0.3,0-0.6,0-0.8,0
		c-0.3,0-0.6,0-0.6,0.4c0.1,0.8-0.5,0.6-0.9,0.6c-6,0-12,0-18,0c0.6-1.2,0.8-2.6,1.6-3.8c0.4,0,0.9,0.1,1.3,0.1c5,0,10,0,15,0
		c0.3,0,1-0.2,1,0.3c0,1.1,0.7,0.8,1.2,0.8c6.5,0,13,0,19.5,0c4.4,0,8.9,0,13.3,0c0.3,0,0.9,0.3,0.9-0.4c0-1,0.7-0.7,1.2-0.7
		c7.6,0,15.3,0,22.9,0c3.3,0,6.6,0,9.8,0c0.4,0,1.1,0.2,1.1-0.2c0.1-1.2,0.9-0.8,1.4-0.8c6.9,0,13.8,0,20.8,0c4,0,7.9,0,11.9,0
		c0.3,0,0.9-0.3,0.9,0.4c0,0.8,0.5,0.7,1,0.7C174.3,199.5,179.3,199.5,184.3,199.5z"></path>
	<path d="M42.8,216.5c0-0.9,0-1.9,0-2.9c6.6,0,13.3,0,19.9-0.1c0.3,0,0.7-0.1,0.7,0.3c0,1.1,0.8,0.7,1.3,0.7
		c10,0,20,0,30,0c1,0,2,0,3,0c0.3,0,0.8,0.2,0.8-0.3c0-1,0.6-0.7,1.1-0.7c5,0,10.1,0,15.1,0c5.9,0,11.8,0,17.6,0
		c0.4,0,1.1,0.3,1.1-0.3c0.1-0.8,0.6-0.7,1.1-0.7c2.5,0,5,0,7.4,0c8.4,0,16.9,0,25.3,0c0.4,0,1.1-0.3,1.1,0.3c0.1,1,0.8,0.7,1.3,0.7
		c5,0,10,0,15,0.1c0.1,1.2-0.2,2.4-0.3,3.6c-0.5,0-1,0.1-1.4,0.1c-4.5,0-8.9,0-13.4,0c-0.4,0-1-0.2-1,0.3c0,1.1-0.8,0.8-1.3,0.8
		c-10.8,0-21.6,0-32.4,0c-0.3,0-0.6,0-0.8,0c-0.2,0-0.5-0.1-0.4-0.3c0.1-1.1-0.7-0.8-1.3-0.8c-8.1,0-16.2,0-24.3,0
		c-2.8,0-5.6,0-8.4,0c-0.3,0-0.9,0.3-1-0.4c0-0.8-0.5-0.7-0.9-0.7c-2.4,0-4.8,0-7.2,0c-8.6,0-17.2,0-25.8,0c-0.4,0-1-0.2-1,0.2
		c0,1.1-0.8,0.8-1.3,0.8c-6.4,0-12.8,0-19.2,0c0-0.1-0.1-0.3-0.2-0.4C42.8,216.8,42.8,216.6,42.8,216.5z"></path>
	<path d="M183.6,157.7c-0.4,1.2,0,2.4-0.4,3.6c-4.6,0-9.1,0-13.7,0c-0.4,0-1,0.2-1.1-0.2c-0.1-1.2-0.9-0.8-1.5-0.8
		c-10.3,0-20.6,0-30.9,0c-0.6,0-1.3,0-1.9,0c-0.3,0-0.7-0.1-0.6,0.3c0,1-0.7,0.7-1.2,0.7c-2.9,0-5.8,0-8.6,0c-8,0-16.1,0-24.1,0
		c-0.4,0-1.1-0.3-1.1,0.3c0,1.1-0.7,0.8-1.2,0.8c-9.2,0-18.5,0-27.7,0c-1.8,0-3.5,0-5.3,0c-0.3,0-0.8,0.2-0.8-0.4
		c0-0.9-0.5-0.7-1-0.7c-5.5,0-11,0-16.5,0c0-0.1-0.1-0.2-0.2-0.3c0.2-0.5,0.1-1.1,0.1-1.6c0-0.6,0.1-1.1,0.2-1.6
		c0.5,0,1-0.1,1.4-0.1c5,0,10,0,15,0c0.3,0,1,0.2,1-0.3c0-1.1,0.8-0.8,1.3-0.8c5.5,0,11,0,16.5,0c5.4,0,10.7,0,16.1,0
		c0.4,0,1.1-0.3,1.1,0.4c0,1,0.6,0.7,1.1,0.7c3.5,0,7,0,10.6,0c7.4,0,14.8,0,22.2,0c0.4,0,1.1-0.2,1.1,0.2c0.1,1.3,1,0.8,1.6,0.8
		c10.6,0,21.3,0,31.9,0c0.6,0,1.6,0.4,1.7-0.9c0-0.3,0.4-0.2,0.6-0.2C173.9,157.6,178.7,157.7,183.6,157.7z"></path>
	<path d="M45.9,140.3c0-0.4-0.1-0.9-0.1-1.4c0-0.6,0.1-1.3-0.2-1.9c0-0.1,0-0.2,0-0.3c0.5,0,1-0.1,1.4-0.1
		c5.1,0,10.2,0,15.2,0c0.3,0,1,0.3,1-0.3c0-1,0.7-0.8,1.2-0.8c7.5,0,14.9,0,22.4,0c3.5,0,7,0,10.4,0c0.3,0,0.9-0.2,0.9,0.3
		c0,1.1,0.8,0.8,1.3,0.8c8.1,0,16.2,0,24.2,0c2.8,0,5.7,0,8.5,0c0.3,0,0.9-0.2,0.9,0.3c0,1.2,0.9,0.8,1.4,0.8c10.7,0,21.4,0,32.1,0
		c0.2,0,0.5,0,0.7,0c0.4,0,0.7,0,0.7-0.6c0-0.6,0.5-0.5,0.8-0.5c4.7,0,9.4,0,14.1,0c-0.1,1.2-0.2,2.5-0.2,3.7c-4.6,0-9.1,0-13.7,0
		c-0.4,0-1,0.2-1-0.3c0-1.1-0.8-0.8-1.3-0.8c-9,0-18.1,0-27.1,0c-1.9,0-3.8,0-5.6,0c-0.3,0-0.9-0.2-0.9,0.3c0,1-0.7,0.8-1.2,0.8
		c-8.3,0-16.6,0-24.8,0c-2.7,0-5.4,0-8,0c-0.3,0-0.9-0.2-0.9,0.3c0,1-0.7,0.8-1.3,0.8c-8,0-16.1,0-24.1,0c-2.9,0-5.8,0-8.8,0
		c-0.3,0-0.9,0.2-0.9-0.3c0-1-0.7-0.8-1.2-0.8C56.8,140.3,51.3,140.3,45.9,140.3z"></path>
	<path d="M45.9,147.2c0-1.2,0-2.4,0-3.6c0.5,0,1-0.1,1.4-0.1c5,0,10,0,15,0c0.3,0,1,0.2,1-0.2c0-1.2,0.8-0.8,1.4-0.8
		c10.8,0,21.5,0,32.3,0c0.3,0,0.6,0,0.8,0c0.2,0,0.6,0,0.5,0.3c-0.1,1,0.7,0.7,1.1,0.7c6.8,0,13.5,0,20.3,0c4.2,0,8.4,0,12.6,0
		c0.4,0,1-0.2,1,0.4c0,1,0.6,0.7,1.1,0.7c10.9,0,21.8,0,32.8,0c0.5,0,1.2,0.2,1.1-0.8c0-0.4,0.4-0.3,0.7-0.3c4.7,0,9.4,0,14,0.1
		c0,0.5,0,1,0,1.6c0,0.4-0.1,0.8-0.1,1.2c0.1,0.7-0.2,1-0.9,1c-4.3,0-8.6,0-12.8,0c-0.3,0-0.8,0.1-0.8-0.4c0-0.9-0.6-0.7-1.1-0.7
		c-3.2,0-6.5,0-9.7,0c-7.7,0-15.4,0-23,0c-0.4,0-1.1-0.3-1.1,0.3c-0.1,1.1-0.8,0.8-1.3,0.8c-9.3,0-18.6,0-27.8,0c-1.7,0-3.4,0-5.2,0
		c-0.3,0-0.8-0.2-0.8,0.3c0,1.1-0.7,0.8-1.2,0.8c-10.8,0-21.5,0-32.3,0c-0.6,0-1.6,0.5-1.6-0.9c0-0.3-0.6-0.2-0.9-0.2
		c-1.7,0-3.4,0-5.2,0C53.5,147.3,49.7,147.3,45.9,147.2z"></path>
	<path d="M183.9,130.3c-0.1,1-0.2,1.9-0.3,2.9c-4.8,0-9.7,0-14.5,0.1c-0.3,0-0.7,0.1-0.7-0.3c0-1-0.7-0.8-1.3-0.8
		c-9.8,0-19.6,0-29.4,0c-1.2,0-2.4,0-3.6,0c-0.3,0-0.8-0.2-0.8,0.3c0,1-0.7,0.7-1.2,0.7c-3.5,0-7,0-10.6,0c-7.4,0-14.8,0-22.2,0
		c-0.4,0-1.1-0.3-1.1,0.3c0,1.1-0.7,0.8-1.2,0.8c-7.4,0-14.8,0-22.2,0c-3.6,0-7.1,0-10.7,0c-0.3,0-0.9,0.2-0.9-0.3
		c0-1.1-0.7-0.8-1.3-0.8c-5.6,0-11.2,0-16.8-0.1c-0.1-1.2-0.3-2.4-0.4-3.6c0.5,0,1-0.1,1.4-0.1c5.3,0,10.6,0,16,0c0.3,0,1,0.3,1-0.3
		c0-1,0.7-0.8,1.2-0.8c10.8,0,21.5,0,32.3,0c0.6,0,1.6-0.5,1.6,0.9c0,0.2,0.3,0.2,0.5,0.2c0.3,0,0.6,0,0.8,0c10.8,0,21.6,0,32.4,0
		c0.4,0,1.1-0.3,1.1,0.3c0.1,1,0.8,0.7,1.3,0.7c10.7,0,21.4,0,32,0c0.7,0,1.7,0.5,1.8-0.9c0-0.2,0.3-0.2,0.5-0.2c4.8,0,9.5,0,14.3,0
		C183.9,129.6,183.9,129.9,183.9,130.3z"></path>
	<path d="M183.8,220.6c-0.1,1.3,0.5,2.4,0.7,3.6c-0.5,0-1,0.1-1.4,0.1c-4.6,0-9.1,0-13.7,0c-0.4,0-1.1-0.3-1.1,0.4
		c0,1-0.7,0.7-1.2,0.7c-7,0-14,0-21,0c-4,0-7.9,0-11.9,0c-0.3,0-0.9,0.2-0.9-0.3c0-1.1-0.7-0.8-1.3-0.8c-7.5,0-15,0-22.4,0
		c-3.4,0-6.9,0-10.3,0c-0.3,0-0.9,0.2-0.9-0.3c0-1-0.7-0.8-1.3-0.8c-10.7,0-21.4,0-32,0c-0.7,0-1.8-0.6-1.9,0.9
		c0,0.2-0.4,0.1-0.7,0.1c-6.4,0-12.8,0-19.2-0.1c-0.1-1.2-0.3-2.4-0.4-3.6c6.4,0,12.9,0,19.3,0c0.3,0,1-0.3,1,0.3
		c0,1,0.7,0.8,1.2,0.8c8,0,16,0,24,0c3,0,5.9,0,8.9,0c0.3,0,0.9,0.2,0.9-0.3c0-1.1,0.7-0.8,1.3-0.8c6.2,0,12.4,0,18.6,0
		c4.7,0,9.3,0,14,0c0.4,0,1,0.2,1.1-0.2c0.1-1.2,0.9-0.8,1.4-0.8c9.9,0,19.8,0,29.6,0c1,0,2.1,0,3.1,0c0.3,0,0.8-0.1,0.8,0.3
		c0,1,0.7,0.8,1.3,0.8C174.3,220.6,179.1,220.6,183.8,220.6z"></path>
	<path d="M183.1,163.5c-0.1,2,0.2,3.9,0,5.9c-4.6,0-9.1,0-13.7,0c-0.4,0-1,0.2-1-0.3c-0.1-1.1-0.8-0.8-1.3-0.8
		c-8.2,0-16.3,0-24.5,0c-2.8,0-5.5,0-8.3,0c-0.3,0-0.9,0.2-0.9-0.3c0-1-0.8-0.7-1.3-0.7c-10.4,0-20.9,0-31.3,0c-0.6,0-1.2,0-1.8,0
		c-0.3,0-0.7-0.1-0.6,0.3c0.1,0.9-0.6,0.7-1,0.7c-4.2,0-8.3,0-12.5,0c-6.8,0-13.6,0-20.4,0c-0.4,0-1.1-0.3-1.1,0.3
		c0,0.9-0.6,0.8-1.1,0.8c-5.4,0-10.8,0-16.2,0c-0.3-2-0.4-3.9-0.3-5.9c5.5,0,11,0,16.4,0c0.4,0,1-0.2,1,0.3c0,1.2,0.8,0.9,1.4,0.9
		c9.5,0,19,0,28.6,0c1.4,0,2.9,0,4.3,0c0.3,0,0.8-0.2,0.8,0.3c0,1,0.7,0.7,1.2,0.7c5.5,0,11,0,16.4,0c5.4,0,10.9,0,16.3,0
		c0.4,0,1,0.2,1.1-0.2c0.1-1.1,0.8-0.8,1.4-0.8c10.7,0,21.4,0,32,0c0.7,0,1.7,0.4,1.7-0.9c0-0.3,0.5-0.2,0.7-0.2
		C173.8,163.5,178.4,163.5,183.1,163.5z"></path>
	<path d="M182.9,177.6c0.1,1.9,0.1,3.9,0.2,5.8c-4.6,0-9.2,0-13.8,0c-0.3,0-0.9,0.2-1-0.4c0-0.9-0.6-0.7-1.1-0.7
		c-5.4,0-10.7,0-16.1,0c-5.6,0-11.1,0-16.7,0c-0.4,0-1.1,0.3-1.1-0.4c0-0.7-0.5-0.6-0.9-0.6c-1.8,0-3.7,0-5.5,0
		c-9.2,0-18.3,0-27.5,0c-0.4,0-1-0.2-1.1,0.2c-0.1,1.3-0.9,0.8-1.5,0.9c-10.6,0-21.3,0-31.9,0c-0.6,0-1.7-0.6-1.7,0.9
		c0,0.2-0.4,0.1-0.7,0.1c-5.5,0-11,0-16.5-0.1c-0.4-1.9-0.3-3.8-0.2-5.7c5.6-0.2,11.3,0,16.9-0.1c0.2,0,0.6,0,0.5,0.3
		c-0.1,1.1,0.7,0.8,1.2,0.8c10.8,0,21.6,0,32.4,0c0.3,0,0.6,0,1,0c0.2,0,0.5,0.1,0.4,0.3c-0.1,1.1,0.8,0.8,1.3,0.8
		c10.8,0,21.6,0,32.4,0c0.3,0,0.6,0,0.8,0c0.2,0,0.5-0.1,0.4-0.3c-0.1-1.1,0.8-0.8,1.3-0.8c10.8,0,21.5,0,32.3,0c0.3,0,0.6,0,0.8,0
		c0.3,0,0.6,0,0.6-0.4c0-0.7,0.5-0.6,0.9-0.6C173.8,177.6,178.3,177.6,182.9,177.6z"></path>
	<path d="M183.1,170.5c-0.1,2-0.1,3.9-0.2,5.9c-4.5,0-8.9,0-13.4,0c-0.4,0-1.1,0.3-1.1-0.4c0-1-0.6-0.7-1.2-0.7
		c-6.6,0-13.2,0-19.8,0c-4.3,0-8.6,0-12.9,0c-0.4,0-1,0.2-1-0.3c-0.1-1.1-0.8-0.8-1.4-0.8c-6.7,0-13.4,0-20.1,0c-4.2,0-8.3,0-12.5,0
		c-0.3,0-1-0.3-1,0.3c0,1-0.7,0.8-1.3,0.8c-7.6,0-15.1,0-22.7,0c-3.4,0-6.8,0-10.2,0c-0.3,0-1-0.2-0.9,0.4c0,1-0.6,0.7-1.1,0.7
		c-5.5,0-11,0-16.4,0c-0.1-2,0.2-3.9,0.3-5.9c5.4,0,10.9,0,16.3,0c0.3,0,0.9-0.2,0.9,0.3c0,1,0.7,0.8,1.2,0.8c5.7,0,11.4,0,17.2,0
		c5.2,0,10.4,0,15.6,0c0.4,0,1-0.2,1,0.2c0,1.1,0.8,0.8,1.3,0.8c7.9,0,15.8,0,23.7,0c3,0,6,0,9,0c0.3,0,0.9,0.1,0.9-0.3
		c0-1.1,0.8-0.8,1.3-0.8c9.1,0,18.2,0,27.3,0c1.8,0,3.7,0,5.5,0c0.3,0,0.8,0.2,0.8-0.3c0-0.9,0.6-0.8,1.1-0.8
		C174,170.5,178.5,170.5,183.1,170.5z"></path>
	<path d="M46.3,190.3c-0.2-1.8-0.4-3.5-0.2-5.3c0.1-0.4,0.5-0.5,0.9-0.5c5.2,0,10.4,0,15.6,0c0.3,0,0.7-0.1,0.7,0.2
		c0,1.1,0.8,0.8,1.3,0.8c7.3,0,14.6,0,21.8,0c3.6,0,7.3,0,10.9,0c0.3,0,1-0.2,1,0.4c0,1,0.6,0.7,1.1,0.7c7.2,0,14.5,0,21.7,0
		c3.7,0,7.4,0,11,0c0.4,0,1,0.2,1.1-0.3c0.1-1.2,0.8-0.8,1.4-0.8c8.6,0,17.3,0,25.9,0c2.2,0,4.5,0,6.7,0c0.3,0,0.9,0.2,0.9-0.4
		c0-0.7,0.4-0.6,0.9-0.6c4.6,0,9.3,0,13.9,0c-0.1,1.9-0.1,3.9-0.2,5.8c-4.6,0-9.1,0-13.7,0c-0.3,0-0.8,0.1-0.8-0.3
		c0-1.1-0.8-0.8-1.4-0.8c-10.8,0-21.5,0-32.3,0c-0.3,0-0.6,0-0.8,0c-0.2,0-0.6,0-0.5-0.3c0.1-1-0.7-0.8-1.2-0.8
		c-8.3,0-16.6,0-24.8,0c-2.7,0-5.4,0-8,0c-0.3,0-0.9-0.2-0.9,0.3c0,1.1-0.7,0.8-1.3,0.8c-10,0-20.1,0-30.1,0c-1,0-2,0-3,0
		c-0.3,0-0.7-0.1-0.7,0.4c0,0.6-0.3,0.6-0.8,0.6C57.2,190.4,51.8,190.3,46.3,190.3z"></path>
	<path d="M45.8,154.3c0-1.2,0-2.4,0-3.5c0.5,0,1-0.1,1.4-0.1c5,0,10,0,15,0c0.4,0,1,0.2,1-0.3c0-1.2,0.8-0.8,1.4-0.8
		c9.3,0,18.6,0,27.8,0c1.7,0,3.4,0,5,0c0.3,0,0.8-0.2,0.8,0.3c-0.1,1.1,0.8,0.8,1.3,0.8c7.8,0,15.7,0,23.5,0c3.1,0,6.2,0,9.2,0
		c0.3,0,0.9-0.1,0.9,0.3c0,1.1,0.8,0.8,1.4,0.8c10.6,0,21.3,0,31.9,0c0.7,0,1.8,0.5,1.9-0.9c0-0.1,0.4-0.1,0.6-0.1
		c4.6,0,9.2,0,13.8,0c0,0.1,0.1,0.2,0.1,0.3c-0.1,0.3-0.1,0.7,0.1,1c0.1,0.8,0.2,1.6,0.3,2.4c-4.7,0-9.4,0-14.2,0
		c-0.3,0-0.8,0.1-0.8-0.3c0-1-0.7-0.7-1.3-0.7c-10.8,0-21.7,0-32.5,0c-0.2,0-0.5,0-0.7,0c-0.2,0-0.4,0-0.4,0.3c0,1-0.7,0.7-1.3,0.7
		c-10.8,0-21.6,0-32.4,0c-0.3,0-0.6,0-0.8,0c-0.2,0-0.6,0-0.5,0.3c0.1,0.9-0.6,0.7-1.1,0.7c-11,0-21.9,0-32.9,0c-0.2,0-0.4,0-0.6,0
		c-0.2,0-0.5-0.1-0.4-0.3c0.1-1-0.6-0.7-1.1-0.7C56.8,154.3,51.3,154.3,45.8,154.3z"></path>
	<path d="M45.9,197.2c-0.2-1.9,0.2-3.8,0.4-5.6c5.4,0,10.8,0,16.2,0c0.3,0,0.8-0.2,0.8,0.2c0,1.2,0.8,0.8,1.4,0.8
		c10.7,0,21.3,0,32,0c0.6,0,1.7-0.6,1.7,0.9c0,0.1,0.3,0.1,0.5,0.1c0.4,0,0.7,0,1.1,0c10.7,0,21.4,0,32.1,0c0.4,0,1.1,0.3,1.1-0.3
		c0.1-1,0.7-0.8,1.3-0.8c7.3,0,14.6,0,21.8,0c3.6,0,7.3,0,10.9,0c0.4,0,1,0.2,1-0.4c0-0.8,0.5-0.7,1-0.7c4.5,0,9,0,13.6,0
		c0.4,1.9,0.8,3.8,1.2,5.7c-5,0.2-10.1,0-15.1,0.1c-0.3,0-0.6,0-0.6-0.4c0.1-1-0.7-0.7-1.1-0.7c-7.8,0-15.6,0-23.4,0
		c-3.2,0-6.3,0-9.5,0c-0.3,0-0.9,0.2-0.9-0.3c0-1-0.7-0.8-1.3-0.8c-10.3,0-20.6,0-30.8,0c-0.8,0-1.5,0-2.3,0c-0.3,0-0.7-0.1-0.7,0.3
		c0,1.1-0.8,0.7-1.3,0.7c-9.7,0-19.4,0-29.1,0c-1.3,0-2.6,0-3.8,0c-0.3,0-0.8-0.2-0.8,0.3c0,0.9-0.6,0.8-1.1,0.8
		c-5.1,0-10.2,0-15.2,0C46.7,197.4,46.3,197.4,45.9,197.2z"></path>
	<path d="M46.4,283.9c0.5-0.5,1.1-0.3,1.6-0.3c4.7,0,9.4,0,14.1,0c0.6,0,1.3,0.3,1.3-0.8c0-0.5,0.7-0.3,1-0.3
		c4.2,0,8.3,0,12.5,0c6.8,0,13.5,0,20.3,0c0.5,0,1.3-0.3,1.2,0.8c0,0.3,0.3,0.3,0.5,0.3c0.5,0,1,0,1.4,0c10.6,0,21.2,0,31.8,0
		c0.5,0,1.3-0.3,1.3,0.7c0,0.4,0.4,0.3,0.6,0.3c0.8,0,1.7,0,2.5,0c10.1,0,20.3,0,30.5,0c0.5,0,1.4,0.4,1.3-0.8
		c0-0.3,0.4-0.3,0.7-0.3c4.8,0,9.7,0,14.5,0c0.3,0,0.6,0,0.7,0.3c-11.2,1.9-22.5,1.9-33.8,2.1c-5.5,0.1-11,0.1-16.6,0.3
		c-7.3,0.3-14.6,0.8-21.8,0.5c-16.1-0.8-32.1-0.6-48.2-1.2c-4.6-0.1-9.2-0.5-13.7-1.1C48.9,284.3,47.6,284.1,46.4,283.9z"></path>
	<path d="M150.9,56.4c-5.5,0-11,0-16.4,0c-0.5,0-1.2,0.3-1.2-0.7c0-0.6-0.6-0.4-1-0.4c-2.7,0-5.4,0-8,0
		c-8.3,0-16.6,0-24.8,0c-0.5,0-1.1-0.3-1.2,0.7c0,0.6-0.7,0.3-1.1,0.3c-5.3,0-10.6,0-15.8,0c-5.7,0-11.4,0-17,0
		c-0.5,0-1.1-0.2-1,0.7c0,0.5-0.5,0.3-0.7,0.3c-9.6,0-19.2,0-28.8,0c-0.7,0-0.9-0.2-0.9-0.9c-0.1-1.5-0.2-3-0.4-4.4
		c-0.1-0.5,0.1-0.5,0.5-0.5c0.3,0,0.6,0,0.8,0c9.4,0,18.7,0,28.1,0c0.6,0,1.5-0.5,1.5,0.8c0,0.4,0.7,0.2,1.1,0.2
		c9.4,0,18.8,0,28.2,0c1.4,0,2.9,0,4.3,0c0.6,0,1.4-0.3,1.4,0.8c0,0.5,0.7,0.2,1,0.2c7.2,0,14.5,0,21.7,0c3.7,0,7.4,0,11,0
		c0.5,0,1.1,0.2,1.2-0.7c0-0.6,0.7-0.3,1.1-0.3c5.2,0,10.5,0,15.7,0c5.6,0,11.2,0,16.8,0c0.6,0,1.3,0.3,1.4-0.8
		c0-0.5,0.7-0.2,1.1-0.2c7.5,0,15,0,22.6,0c1,0,2.1,0,3.1,0c1,0,1.4,0.5,1.1,1.4c-0.4,1.2-0.7,2.5-0.6,3.8c0,0.8-0.5,0.7-1,0.7
		c-3.6,0-7.3,0-10.9,0c-4.8,0-9.5,0-14.3,0c-0.5,0-1.1,0.2-1.2-0.7c0-0.5-0.6-0.3-1-0.3C161.8,56.3,156.4,56.4,150.9,56.4z"></path>
	<path d="M48.3,59.6c4.7,0,9.4,0,14,0c0.5,0,1-0.2,1,0.7c0,0.6,0.6,0.4,0.9,0.4c4.5,0,9,0,13.6,0c6.4,0,12.8,0,19.2,0
		c0.6,0,1.3,0.3,1.3-0.8c0-0.5,0.6-0.3,0.9-0.3c2.2,0,4.4,0,6.6,0c8.7,0,17.4,0,26.1,0c0.6,0,1.3,0.3,1.4-0.8c0-0.5,0.7-0.3,1-0.3
		c4.8,0,9.6,0,14.4,0c6,0,12.1,0,18.1,0c0.6,0,1.4-0.4,1.5,0.8c0,0.5,0.7,0.3,1,0.3c7.4,0,14.9,0,22.3,0c1,0,2,0,3,0
		c0.4,0,0.8,0.1,0.8,0.6c0,0.9-0.1,1.8-0.2,2.7c-0.1,0.6-0.7,0.3-1.1,0.3c-8.1,0-16.2,0-24.2,0c-0.7,0-1.7-0.5-1.8,0.9
		c0,0.3-0.5,0.2-0.8,0.2c-11.1,0-22.2,0-33.4,0c-0.3,0-0.7,0.1-0.7-0.2c0-1.3-0.9-0.8-1.5-0.8c-10.7,0-21.4,0-32.2,0
		c-0.6,0-1.4,0.4-1.4-0.8c0-0.5-0.7-0.3-1-0.3c-3.8,0-7.5,0-11.3,0c-7.2,0-14.3,0-21.5,0c-0.6,0-1.2-0.1-1.2,0.8
		c0,0.5-0.7,0.2-1,0.2c-7.6,0-15.1,0-22.7,0c-1.7,0-3.4-0.1-5.2,0c-0.9,0-1.3-0.3-1.4-1.2c-0.2-0.8,0.1-1.5,0.2-2.3
		c0-0.5,0.7-0.3,1-0.3C38.9,59.6,43.6,59.6,48.3,59.6z"></path>
	<path d="M48.4,73.7c4.6,0,9.2,0,13.8,0c0.5,0,1.2-0.3,1.2,0.8c0,0.5,0.7,0.2,1,0.3c5,0,10.1,0,15.1,0
		c5.9,0,11.8,0,17.8,0c0.4,0,1,0.3,1.1-0.7c0-0.7,0.7-0.3,1.1-0.3c6.4,0,12.7,0,19.1,0c4.6,0,9.2,0,13.8,0c0.5,0,1.1,0.2,1-0.7
		c0-0.6,0.5-0.4,0.8-0.4c1.4,0,2.8,0,4.2,0c9.6,0,19.1,0,28.7,0c0.6,0,1.3-0.3,1.3,0.8c0,0.5,0.6,0.3,1,0.3c3.3,0,6.6,0,9.8,0
		c4.9,0,9.8,0,14.6,0c1,0,1.3,0.2,1.2,1.2c-0.2,2.4-0.2,2.4-2.6,2.4c-7.6,0-15.1,0-22.7,0c-0.6,0-1.5-0.4-1.5,0.8
		c0,0.4-0.7,0.3-1.1,0.3c-3.6,0-7.1,0-10.7,0c-7.3,0-14.6,0-21.9,0c-0.5,0-1.2,0.3-1.3-0.8c0-0.6-0.7-0.3-1.1-0.3
		c-5.7,0-11.4,0-17,0c-5.2,0-10.5,0-15.7,0c-0.5,0-1.2,0.3-1.2-0.7c0-0.5-0.5-0.3-0.8-0.3c-1.6,0-3.2,0-4.8,0c-9.4,0-18.8,0-28.2,0
		c-0.5,0-1.2-0.3-1.3,0.7c0,0.5-0.7,0.3-1,0.3c-5.9,0-11.8,0-17.6,0c-3.3,0-6.6,0-9.8,0c-0.8,0-1.1-0.2-1.3-1
		c-0.5-2.7-0.5-2.7,2.1-2.7C39.9,73.7,44.2,73.7,48.4,73.7z"></path>
	<path d="M80.9,69.3c-5.4,0-10.9,0-16.3,0c-0.5,0-1.2-0.3-1.3,0.8c0,0.5-0.7,0.3-1,0.3c-6.2,0-12.4,0-18.6,0
		c-3.2,0-6.4,0-9.6,0c-0.7,0-1-0.2-1-0.9c0-2.8,0-2.8,2.7-2.8c8.8,0,17.5,0,26.3,0c0.5,0,1.3-0.3,1.3,0.7c0,0.5,0.5,0.3,0.8,0.3
		c1.8,0,3.6,0,5.4,0c9.2,0,18.4,0,27.6,0c0.5,0,1.2,0.3,1.3-0.8c0-0.5,0.6-0.3,0.9-0.3c3.1,0,6.2,0,9.4,0c7.8,0,15.6,0,23.4,0
		c0.6,0,1.3,0.3,1.3-0.8c0-0.5,0.7-0.3,1-0.3c4.2,0,8.4,0,12.6,0c6.7,0,13.4,0,20.2,0c0.5,0,1.1-0.3,1.2,0.7c0,0.6,0.7,0.4,1.1,0.4
		c6.8,0,13.7,0,20.5,0c1.5,0,3,0,4.4,0c0.8,0,0.9,0.3,0.9,1c0,2.7,0,2.7-2.7,2.7c-7.7,0-15.4,0-23.2,0c-0.5,0-1.2-0.3-1.3,0.8
		c-0.1,0.6-0.7,0.3-1.1,0.3c-10.1,0-20.2,0-30.4,0c-0.8,0-1.6,0-2.4,0c-0.5,0-1,0.1-1.1-0.7c0-0.6-0.7-0.3-1.1-0.3
		c-7.5,0-15,0-22.6,0c-3.4,0-6.9,0-10.3,0c-0.4,0-1,0.2-1-0.6c0-0.7-0.7-0.4-1-0.4C91.8,69.3,86.4,69.3,80.9,69.3z"></path>
	<path d="M35.2,80.6c0.5,0,0.8,0,1.2,0c8.6,0,17.2,0,25.8,0c0.5,0,1.3-0.3,1.2,0.8c0,0.4,0.5,0.3,0.8,0.3
		c1.1,0,2.2,0,3.4,0c9.9,0,19.8,0,29.6,0c0.5,0,1.2,0.3,1.2-0.8c0-0.5,0.6-0.3,0.9-0.3c2,0,4.1,0,6.1,0c8.9,0,17.8,0,26.8,0
		c0.5,0,1.2,0.3,1.3-0.8c0-0.6,0.7-0.3,1.1-0.3c7.8,0,15.7,0,23.5,0c3,0,6.1,0,9.1,0c0.6,0,1.2-0.2,1.2,0.8c0,0.5,0.7,0.3,1,0.3
		c6.2,0,12.5,0,18.7,0c1.6,0,3.2,0,4.8,0c0.8,0,1.1,0.1,0.8,1c-0.9,2.7-0.8,2.7-3.7,2.7c-6.8,0-13.6,0-20.4,0
		c-0.6,0-1.3-0.3-1.3,0.8c0,0.5-0.6,0.3-0.9,0.3c-2.2,0-4.4,0-6.6,0c-8.7,0-17.4,0-26.2,0c-0.6,0-1.4,0.3-1.3-0.8
		c0-0.4-0.4-0.3-0.7-0.3c-0.7,0-1.4,0-2,0c-10.3,0-20.6,0-31,0c-0.6,0-1.3,0.3-1.3-0.8c0-0.5-0.7-0.2-1-0.2c-4.6,0-9.3,0-13.9,0
		c-6.3,0-12.6,0-18.8,0c-0.5,0-1.2-0.3-1.2,0.7c0,0.5-0.5,0.3-0.7,0.3c-8.4,0-16.8,0-25.2,0c-0.5,0-0.8-0.1-1-0.7
		C36.2,82.6,35.7,81.7,35.2,80.6z"></path>
	<path d="M80.8,90.3c-5.4,0-10.8,0-16.2,0c-0.5,0-1.2-0.3-1.2,0.8c0,0.5-0.7,0.3-1,0.3c-4.4,0-8.7,0-13.1,0
		c-3,0-6,0-9,0c-0.8,0-1.1-0.3-1.4-1c-0.9-2.8-1-2.8,2-2.8c7.1,0,14.2,0,21.2,0c0.5,0,1.3-0.4,1.3,0.8c0,0.4,0.5,0.3,0.8,0.3
		c1.5,0,3,0,4.6,0c9.4,0,18.9,0,28.3,0c0.6,0,1.3,0.3,1.3-0.8c0-0.5,0.6-0.3,0.9-0.3c3.1,0,6.2,0,9.4,0c7.8,0,15.6,0,23.4,0
		c0.6,0,1.3,0.3,1.4-0.8c0-0.5,0.7-0.2,1.1-0.2c6,0,12,0,18,0c4.9,0,9.8,0,14.6,0c0.5,0,1.2-0.3,1.3,0.7c0,0.5,0.7,0.3,1,0.3
		c6.3,0,12.6,0,18.8,0c0.8,0,1.6,0,2.4,0c0.6,0,0.7,0.2,0.4,0.7c0,0,0,0.1-0.1,0.1c-1,2.9-1,2.9-4,2.9c-5.8,0-11.7,0-17.5,0
		c-0.6,0-1.2-0.1-1.2,0.8c0,0.4-0.7,0.2-1.1,0.2c-6.4,0-12.8,0-19.2,0c-4.5,0-9,0-13.6,0c-0.5,0-1.1,0.2-1.1-0.7
		c0-0.6-0.7-0.3-1.1-0.3c-7.4,0-14.9,0-22.3,0c-3.4,0-6.9,0-10.3,0c-0.5,0-1.2,0.3-1.2-0.8c0-0.5-0.7-0.3-1-0.3
		C91.8,90.3,86.3,90.3,80.8,90.3z"></path>
	<path d="M80.8,98.3c-5.4,0-10.8,0-16.2,0c-0.5,0-1.2,0.3-1.2-0.8c0-0.6-0.7-0.3-1-0.3c-6,0-11.9,0-17.9,0c-1,0-2,0-3,0
		c-0.8,0-0.8-0.5-0.9-1c-0.1-0.8,0.5-0.6,0.9-0.6c6.9,0,13.8,0,20.8,0c0.5,0,1.3,0.2,1.2-0.8c0-0.4,0.5-0.3,0.8-0.3
		c1.4,0,2.8,0,4.2,0c9.6,0,19.2,0,28.8,0c0.5,0,1.2,0.3,1.3-0.8c0-0.5,0.6-0.3,0.9-0.3c3,0,5.9,0,8.9,0c8,0,15.9,0,23.9,0
		c0.6,0,1.3-0.3,1.4,0.8c0,0.5,0.7,0.2,1,0.3c5.6,0,11.2,0,16.8,0c5.3,0,10.6,0,16,0c0.5,0,1.1-0.2,1.2,0.7c0,0.6,0.7,0.3,1.1,0.3
		c5.9,0,11.8,0,17.6,0c0.5,0,1.3-0.5,1.5,0.4c0.1,1.2-0.8,1.1-1.6,1.1c-5.8,0-11.7,0-17.5,0c-0.5,0-1.1-0.2-1.2,0.7
		c0,0.6-0.7,0.3-1.1,0.3c-5.4,0-10.7,0-16.1,0c-5.5,0-11,0-16.6,0c-0.6,0-1.2-0.2-1.2,0.8c0,0.5-0.6,0.3-0.9,0.3c-1.9,0-3.8,0-5.8,0
		c-9,0-18.1,0-27.1,0c-0.5,0-1.2,0.3-1.2-0.8c0-0.5-0.7-0.3-1-0.3C91.8,98.3,86.3,98.3,80.8,98.3z"></path>
	<path d="M187.1,102.8c0.1,1.2-0.5,1.5-1.6,1.5c-5.3-0.1-10.6,0-15.8,0c-0.6,0-1.3-0.3-1.4,0.8c0,0.5-0.6,0.3-0.9,0.3
		c-2.4,0-4.7,0-7.1,0c-8.6,0-17.2,0-25.8,0c-0.5,0-1.1-0.3-1.2,0.7c0,0.6-0.7,0.3-1.1,0.3c-8,0-15.9,0-23.9,0c-3,0-5.9,0-8.9,0
		c-0.5,0-1.1,0.2-1.1-0.7c0-0.5-0.6-0.3-0.9-0.3c-2.2,0-4.4,0-6.6,0c-8.8,0-17.5,0-26.3,0c-0.5,0-1.2,0.3-1.2-0.8
		c0-0.5-0.7-0.3-1-0.3c-5.3,0-10.6,0-16,0c-1.2,0-2.3-0.1-3.5,0c-0.8,0.1-1-0.4-1.1-1c-0.1-0.9,0.7-0.5,1-0.5c6.4,0,12.9,0,19.3,0
		c0.6,0,1.3,0.3,1.3-0.8c0-0.4,0.6-0.3,0.9-0.3c3.1,0,6.2,0,9.2,0c7.8,0,15.7,0,23.5,0c0.5,0,1.3,0.3,1.3-0.8c0-0.5,0.7-0.3,1-0.3
		c5,0,9.9,0,14.9,0c5.9,0,11.8,0,17.8,0c0.6,0,1.3-0.3,1.4,0.8c0,0.5,0.7,0.2,1,0.3c4.5,0,9,0,13.6,0c6.4,0,12.7,0,19.1,0
		c0.5,0,1.2-0.3,1.3,0.8c0,0.6,0.7,0.3,1.1,0.3c5.5,0,11,0,16.4,0C186.4,102.7,186.8,102.6,187.1,102.8z"></path>
	<path d="M115.9,113.4c-5.5,0-11,0-16.4,0c-0.5,0-1.1,0.2-1.2-0.7c0-0.6-0.7-0.3-1.1-0.3c-7.3,0-14.6,0-22,0
		c-3.6,0-7.3,0-10.9,0c-0.5,0-1,0.2-1-0.7c0-0.6-0.7-0.3-1.1-0.3c-6.1,0-12.2,0-18.2,0c-0.4,0-0.9,0.2-1.2-0.3
		c-0.4-0.8-0.1-1.2,0.8-1.2c6.2,0,12.3,0,18.5,0c0.6,0,1.3,0.3,1.3-0.8c0-0.4,0.7-0.2,1-0.2c5,0,10,0,15,0c5.9,0,11.8,0,17.6,0
		c0.6,0,1.3,0.3,1.3-0.8c0-0.5,0.7-0.3,1-0.3c4.6,0,9.3,0,13.9,0c6.3,0,12.6,0,18.8,0c0.5,0,1.3-0.3,1.2,0.8c0,0.4,0.5,0.3,0.8,0.3
		c0.9,0,1.8,0,2.8,0c10,0,20,0,30,0c0.6,0,1.4-0.4,1.5,0.8c0,0.5,0.7,0.2,1,0.2c5.1,0,10.2,0,15.4,0c0.4,0,1.1-0.4,1.1,0.5
		c0,0.7-0.2,1.1-1.1,1.1c-5.1-0.1-10.2,0-15.2,0c-0.5,0-1.1-0.3-1.2,0.7c-0.1,0.7-0.7,0.3-1.1,0.3c-5.1,0-10.2,0-15.4,0
		c-5.8,0-11.6,0-17.4,0c-0.5,0-1.1-0.2-1.1,0.7c0,0.6-0.7,0.3-1.1,0.3C126.8,113.4,121.4,113.4,115.9,113.4z"></path>
	<path d="M43.6,118.2c-0.1-0.5-0.1-1-0.2-1.5c5.1,0,10.2,0,15.3-0.1c1,0,2,0.1,3,0c0.6-0.1,1.6,0.5,1.7-0.8
		c0-0.3,0.7-0.2,1.1-0.2c10.8,0,21.6,0,32.4,0c0.6,0,1.5,0.4,1.5-0.9c0-0.4,0.7-0.2,1.1-0.2c6.9,0,13.8,0,20.8,0c4,0,8.1,0,12.1,0
		c0.5,0,1.1-0.1,1.1,0.7c0,0.6,0.6,0.4,0.9,0.4c3.3,0,6.6,0,9.9,0c7.6,0,15.2,0,22.8,0c0.6,0,1.3-0.3,1.3,0.8c0,0.4,0.6,0.2,0.9,0.2
		c4.9,0,9.8,0,14.8,0c0.6,0,1.2-0.1,1,0.8c0,0.2,0,0.5-0.1,0.7c-5,0-10.1,0-15.1,0.1c-0.6,0-1.6-0.5-1.7,0.8
		c-0.1,0.4-0.7,0.2-1.1,0.2c-10.7,0-21.4,0-32.1,0c-0.6,0-1.6-0.5-1.7,0.9c0,0.4-0.7,0.2-1.1,0.2c-9.6,0-19.2,0-28.8,0
		c-1.4,0-2.8,0-4.2,0c-0.5,0-0.8,0-0.9-0.7c0-0.8-0.7-0.5-1.1-0.5c-5.4,0-10.8,0-16.2,0c-5.5,0-11,0-16.6,0c-0.5,0-1.1,0.3-1.2-0.7
		c0-0.6-0.6-0.3-1-0.3c-5.5,0-11,0-16.4,0C45.2,118.3,44.4,118.2,43.6,118.2z"></path>
	<path d="M105.5,46.6c1.1,0.5,2.1,1,3.2,1.5c-2.9,0.3-5.9,0-8.9,0.1c-0.6,0-1.5-0.4-1.5,0.8c0,0.4-0.7,0.2-1.1,0.2
		c-7.6,0-15.2,0-22.8,0c-3.3,0-6.6,0-10,0c-0.5,0-1.2-0.2-1.1,0.7c0,0.5-0.5,0.3-0.7,0.3c-10,0-19.9,0-29.9,0c-0.6,0-0.8,0-0.7-0.8
		c0.2-1.4-0.3-2.8-0.5-4.2c-0.1-0.6,0-0.9,0.7-0.9c10.1,0,20.2,0,30.4,0c0.3,0,0.7-0.1,0.7,0.2c0,1.2,0.8,0.8,1.4,0.8
		c10.8,0,21.5,0,32.3,0c0.6,0,1.4-0.4,1.4,0.8c0,0.3,0.5,0.2,0.7,0.2C101.3,46.7,103.4,46.7,105.5,46.6z"></path>
	<path d="M119.4,48.2c1.1-0.5,2.2-1,3.4-1.5c3.3,0,6.6,0,9.8,0.1c0.3,0,0.7,0.1,0.7-0.2c0.1-1.2,0.9-0.8,1.6-0.8
		c10.8,0,21.5,0,32.3,0c0.5,0,1.2,0.3,1.2-0.8c0-0.4,0.5-0.3,0.8-0.3c9,0,18,0,27,0c0.8,0,0.8,0.3,0.7,0.9c-0.2,1.3-0.4,2.7-0.5,4
		c-0.1,0.7-0.3,1-1,1c-8.7,0-17.4,0-26,0c-0.5,0-1,0.1-1-0.7c0-0.5-0.5-0.4-0.8-0.4c-1.8,0-3.6,0-5.4,0c-9.2,0-18.3,0-27.5,0
		c-0.5,0-1.2,0.3-1.3-0.7c0-0.5-0.7-0.3-1-0.3c-3.8,0-7.7,0-11.5,0C120.3,48.3,119.8,48.2,119.4,48.2z"></path>
	<path d="M95.7,38.6c1,0.8,1.9,1.7,2.8,2.7c0.1,0.9-0.4,1-1.2,1c-10.8,0-21.7,0-32.5,0c-0.6,0-1.4-0.3-1.4,0.8
		c0,0.5-0.7,0.2-1,0.2c-7.6,0-15.3,0-22.9,0c-2.4,0-4.8,0-7.2,0c-0.5,0-1,0-1.1-0.7C31,42,31,41.5,31.8,41.2
		c3.5-1.4,7.1-2.5,10.8-3.5c0.6-0.2,1.3-0.1,1.9-0.1c5.9,0,11.8,0,17.6,0c0.6,0,1.3-0.3,1.3,0.8c0,0.5,0.7,0.2,1.1,0.2
		c6.5,0,13,0,19.4,0C87.8,38.6,91.8,38.6,95.7,38.6z"></path>
	<path d="M130,41.2c0.6-0.5,1.1-1.1,1.7-1.6c0.6-0.1,1.6,0.7,1.8-0.8c0.1-0.4,0.7-0.2,1.1-0.2c10.7,0,21.4,0,32,0
		c0.7,0,1.7,0.5,1.9-0.9c0-0.3,0.5-0.2,0.8-0.2c4.3,0,8.6-0.1,12.8,0c2.9,0.1,5.6,1.3,8.4,2c2,0.5,3.9,1.2,5.9,1.9
		c0.6,0.2,1.3,0.2,1.1,1.2c-0.1,0.6-0.3,0.7-0.9,0.7c-9.1,0-18.2,0-27.4,0c-0.3,0-0.7,0.1-0.8-0.2c-0.1-1.3-1.1-0.9-1.8-0.9
		c-10.6,0-21.3,0-31.9,0c-0.6,0-1.4,0.4-1.4-0.8c0-0.3-0.5-0.2-0.7-0.2C131.7,41.2,130.8,41.2,130,41.2z"></path>
	<path d="M89,31.6c1.1,1.2,2.2,2.4,3.4,3.6c-4.9,0-9.9,0-14.9,0c-4.4,0-8.8,0-13.2,0c-0.5,0-1-0.1-1,0.7
		c0,0.7-0.7,0.4-1,0.4c-4.6,0-9.3,0-14-0.1c0.3-0.1,0.6-0.2,1-0.3c4.5-1.3,9-2.6,13.3-4.3c0.5-0.2,1,0,1.5,0
		C72.4,31.6,80.7,31.6,89,31.6z"></path>
	<path d="M136,35.2c1.1-1.2,2.3-2.4,3.4-3.6c8,0,15.9,0,23.9,0c1,0,1.9,0.1,2.8,0.5c3.9,1.5,7.8,2.8,11.7,4.3
		c-2.9,0-5.9,0-8.9,0c-0.2,0-0.6,0-0.6-0.3c0.1-1.1-0.7-0.8-1.3-0.8c-9.9,0-19.8,0-29.6,0C137,35.3,136.5,35.3,136,35.2z"></path>
	<path d="M83.6,24.6c0.9,1.2,1.8,2.4,2.7,3.6c-3.8,0-7.5,0.1-11.3,0.1c-1.4,0-2.8,0-4.6,0c2.2-1.3,4.2-2.4,6.2-3.5
		c0.3-0.2,0.8-0.1,1.2-0.1C79.8,24.6,81.7,24.6,83.6,24.6z"></path>
	<path d="M142.1,28.3c0.9-1.2,1.7-2.5,2.7-3.6c6.3-0.1,6.3-0.1,12.4,3.6C152.1,28.3,147.1,28.3,142.1,28.3z"></path>
</g>
<path d="M111.3,49c0.2,0,0.3,0.1,0.3,0.2C111.5,49.2,111.3,49.2,111.3,49z"></path>
</svg>
