<!--?xml version="1.0" encoding="utf-8"?-->
<!-- Generator: Adobe Illustrator 24.2.3, SVG Export Plug-In . SVG Version: 6.00 Build 0)  -->
<svg version="1.1" id="Camada_1" xmlns="http://www.w3.org/2000/svg" xmlns:xlink="http://www.w3.org/1999/xlink" x="0px" y="0px" viewBox="0 0 229 418" style="enable-background:new 0 0 229 418;" xml:space="preserve">
<style type="text/css">
	.st0{fill:#FC0101;}
	.st1{fill:#2145B9;}
	.st2{fill:#D70203;}
	.st3{fill:#E8EAF3;}
</style>
<g onclick="select(this)" class="" id="gola-primaria" fill="#082890">
	<path d="M149.9,8.2c1.7,0.5,2.3,2.5,1.7,4.7c-1.2,4.2-3.5,7.7-6.6,10.6c-2.7,2.6-5.8,4.9-9.1,6.8
		c-4.1,2.4-8.3,4.4-12.9,5.4c-1.4,0.3-2.8,0.4-4.3,0.5c0.5-1.1,1.3-2.1,2.1-3c2.2-2.6,4.9-4.8,7.5-7.1c2.1-1.7,4.3-3.3,6.4-5
		c2.4-1.8,4.6-3.8,6.5-6.1c1.5-1.8,2.8-3.7,3.7-6c-2,0.2-3.9,0.4-5.8,0.5c-5.4,0.4-10.7,0.8-16.1,1.1c-5.6,0.4-11.2,0.4-16.8,0
		c-7.1-0.5-14.2-1.1-21.3-1.8c-0.7-0.1-1,0.1-0.7,0.8c0.5,1.2,1.1,2.4,1.9,3.4c3.9,5.3,9.4,8.9,14.4,13.1c3.4,3.1,6.9,6,9.6,9.7
		c-0.2,0.5-0.6,0.3-0.9,0.3c-4.1-0.3-7.9-1.5-11.6-3.3c-5.3-2.6-10.2-5.9-14.4-10.2c-2.6-2.7-4.9-5.8-5.8-9.6c-0.2-1-0.4-2-0.2-3.1
		c0.2-1,0.9-1.5,1.7-2.1c0.5,0,0.9-0.3,1.3-0.6c0.9-0.9,2-1.7,2.7-2.7c2-2.9,5-3.6,8.2-3.9c3.1-0.3,6.1,0.1,9.2,0
		c4.4-0.1,8.8,0,13.2-0.1c7.9-0.2,15.8,0,23.7,0c0.9,0,1.8,0.2,2.7,0.3c2.2,0.3,4.1,1.2,5.6,3.1C146.7,5.7,148.1,7.2,149.9,8.2z"></path>
</g>
<g onclick="select(this)" class="" id="detalhe-lateral" fill="#ffffff">
	<path d="M181,283.9c-0.4-5-0.6-10-0.8-15.1c-0.3-6-0.5-12-0.7-17.9c-0.2-4.9-0.3-9.7-0.5-14.6
		c-0.3-7.3-0.3-14.6-0.5-21.9c-0.4-17-0.2-34.1-0.2-51.1c0-4.8,0.2-9.7,0.5-14.5c0.3-4.8,0.7-9.6,1.1-14.4
		c0.9-9.6,2.5-19.2,4.9-28.5c1.2-4.5,2.5-9,4.4-13.3c0.1-0.2,0.2-0.5,0.5-0.7c-1.6,6.8-3.1,13.6-4,20.5c-0.4,2.5-0.4,5.1-0.5,7.7
		c-1.2,10.3-2.3,20.6-1.9,31c0.1,2.5,0.8,4.9,0.4,7.4c-0.4,2.3-0.4,4.7-0.4,7c0.1,6.6,0.1,13.2-0.1,19.7c-0.1,4.5,0.7,8.7,1.4,13
		c0.8,5.1,0.9,10.2,0.2,15.4c-0.3,2.3-0.5,4.7-0.8,7c0,0.4,0.1,0.8,0.2,1.2c2,5.7,2.5,11.6,1.6,17.6c-0.3,2-0.3,4,0.1,6
		c0.4,2,0.5,4.1,0.5,6.2c-0.1,7.4,0.7,14.7,1.4,22c0.2,2.3,0.3,4.6,0.3,6.9c0,1.1-0.5,1.8-1.5,2.2C184.9,283.5,183,283.9,181,283.9z
		"></path>
	<path d="M43.3,112.7c0.1-1.9-0.4-3.8-0.6-5.7c-0.4-2.9-0.9-5.7-1.3-8.5c-0.1-0.7-0.8-1.2-0.3-2.1
		c0.9,1.9,1.4,3.8,1.9,5.7c1.9,6.1,3.1,12.4,4.2,18.7c0.8,4.5,1.4,9.1,1.8,13.7c0.4,4.2,0.7,8.4,1,12.6c1.3,21.4,0.6,42.8,0.7,64.2
		c0,4-0.1,8-0.2,12c-0.1,6.3-0.3,12.5-0.5,18.8c-0.2,4.4-0.3,8.9-0.5,13.3c-0.2,5.6-0.4,11.2-0.8,16.9c-0.3,3.8-0.2,7.6-0.7,11.3
		c-1.7-0.1-3.4-0.5-5-1.1c-1.6-0.6-2-1.1-2-2.8c0-2.8,0.2-5.6,0.4-8.3c0.4-5.3,0.7-10.6,1.2-15.9c0.4-4.8-0.1-9.6,0.9-14.3
		c0.2-0.9,0.1-1.8,0-2.7c-0.5-3.1-0.3-6.2,0.3-9.3c0.2-0.9,0.1-1.7,0.1-2.6c-0.3-4.1-0.8-8.1-0.9-12.2c0-4.9,1.1-9.7,2.7-14.3
		c0.3-0.9,0.5-1.7,0.4-2.7c-0.2-1.6-0.1-3.2,0.2-4.8c0.1-0.6,0.2-1.2,0.1-1.8c-0.1-4.8-0.3-9.6-0.4-14.5c0-1.1,0.1-2.2,0.2-3.3
		c0.1-1.9,0.1-3.7,0-5.6c-0.4-5.1-0.2-10.1-0.1-15.2c0.2-9.1-0.2-18-1.5-27c-0.2-1.5-0.4-3.1-0.6-4.6c0.5-1.2-0.2-2.3-0.4-3.5
		C43.5,115.6,43.8,114.1,43.3,112.7z"></path>
</g>
<g onclick="select(this)" class="" id="detalhe-punho" fill="#ffffff">
	<path d="M1.1,114.4c0.5-1,0.5-2.2,0.7-3.3c0.1-0.5,0.1-1.1,0.5-1.5c4.7,1.9,9.7,3.3,14.7,3.9
		c5.6,0.7,11.3,0.9,16.9,0.7c2.3-0.1,4.7-0.2,7-0.6c0.8-0.1,1.4-0.9,2.3-0.8c0.5,1.4,0.2,2.8,0.4,4.2c0.1,1.1,0.9,2.3,0.4,3.5
		c-2.8,1.3-5.9,1.7-9,1.8c-7.1,0.1-14.1,0.3-21.1-0.9c-3.6-0.6-7.2-1.3-10.7-2.4c-0.7-0.2-1.4-0.6-2.2-0.9
		C1.1,116.8,1.1,115.6,1.1,114.4z"></path>
	<path d="M185.3,120.2c0-2.6,0-5.1,0.5-7.7c0.9,0.6,2,0.9,3.1,1c5.6,0.3,11.2,0.6,16.8,0c4-0.4,7.9-1.2,11.9-2
		c3.1-0.7,6-1.9,9.1-2.5c0.6-0.1,1.2-0.5,1.9-0.8c1,2.5,1.3,5.1,1.1,7.7c0,0.6-0.8,0.8-1.3,0.9c-3.2,1.2-6.5,2.1-9.8,2.9
		c-8.4,2.1-16.9,2.5-25.5,2.1c-1.8-0.1-3.6-0.4-5.4-0.7C186.7,120.9,185.9,120.7,185.3,120.2z"></path>
</g>
<g onclick="select(this)" class="" id="gola-terciaria" fill="#bf0811">
	<path d="M110.1,35.9c-2.7-3.7-6.2-6.6-9.6-9.7c2.8,0,5.7-0.1,8.5-0.1c6.4,0,12.8,0,19.3,0.1c-2.5,2.3-5.2,4.5-7.5,7.1
		c-0.8,0.9-1.6,1.9-2.1,3c-2.3,0.6-4.6,0.4-7,0.2C111.1,36.5,110.6,36.2,110.1,35.9z"></path>
</g>
<g onclick="select(this)" class="" id="estampa-primaria" fill="#082890">
	<path d="M43.3,112.7c-0.9-0.1-1.5,0.6-2.3,0.8c-2.3,0.4-4.7,0.5-7,0.6c-5.7,0.2-11.3,0-16.9-0.7c-5.1-0.6-10-1.9-14.7-3.9
		c1.7-8.9,2.5-18,4-26.9c0.9-5.2,1.2-10.6,2.2-15.8c1.7-8.5,4.4-16.6,9.7-23.7c2.1-2.9,4.5-5.5,7.3-7.7c1.4-1.1,2.4-2.6,3.9-3.4
		c3.6-1.9,7.3-3.7,11-5.3c10-4.1,20-8.2,29.4-13.4c2-1.1,4-2.1,5.5-3.9c0.8-1,2.1-1.6,3.5-1.6C78.1,8.5,77.4,9,77.2,10
		c-0.2,1,0,2.1,0.2,3.1c0.9,3.8,3.1,6.9,5.8,9.6c4.1,4.3,9,7.6,14.4,10.2c3.7,1.8,7.5,3,11.6,3.3c0.3,0,0.7,0.3,0.9-0.3
		c0.5,0.3,1,0.6,1.6,0.6c2.3,0.2,4.7,0.4,7-0.2c1.4-0.2,2.9-0.2,4.3-0.5c4.6-0.9,8.8-3,12.9-5.4c3.3-1.9,6.4-4.2,9.1-6.8
		c3.1-3,5.5-6.4,6.6-10.6c0.6-2.2,0-4.3-1.7-4.7c1.9-0.3,3.1,0.9,4.2,2.2c0.3,0.4,0.7,0.7,1.1,1c8.9,5.9,18.8,9.6,28.5,13.7
		c5.1,2.1,10,4.4,15.1,6.6c0.3,0.1,0.6,0.3,0.8,0.5c12,8.5,19.2,20.1,21.3,34.5c1.7,11.5,4.7,22.7,6.3,34.2c0.3,2.5,0.7,4.9,1.1,7.3
		c-0.6,0.3-1.2,0.6-1.9,0.8c-3.1,0.7-6,1.9-9.1,2.5c-3.9,0.8-7.9,1.6-11.9,2c-5.6,0.6-11.2,0.3-16.8,0c-1.1-0.1-2.1-0.4-3.1-1
		c0.9-6.9,2.4-13.7,4-20.5c-0.2,0.2-0.3,0.5-0.5,0.7c-1.9,4.3-3.2,8.8-4.4,13.3c-2.4,9.4-4,18.9-4.9,28.5c-0.5,4.8-0.8,9.6-1.1,14.4
		c-0.3,4.8-0.5,9.6-0.5,14.5c0,17-0.3,34,0.2,51.1c0.2,7.3,0.3,14.6,0.5,21.9c0.2,4.9,0.3,9.7,0.5,14.6c0.2,6,0.5,12,0.7,17.9
		c0.2,5,0.4,10,0.8,15.1c-7.6,1.1-15.3,1.4-23,1.5c-12.9,0.2-25.9,0.6-38.8,0.9c-6.8,0.2-13.5-0.5-20.2-0.6
		c-8.7-0.1-17.4-0.2-26.1-0.4c-8.3-0.2-16.6-0.4-24.8-1.8c0.5-3.8,0.5-7.6,0.7-11.3c0.4-5.6,0.6-11.2,0.8-16.9
		c0.1-4.4,0.3-8.9,0.5-13.3c0.3-6.3,0.4-12.5,0.5-18.8c0.1-4,0.2-8,0.2-12c0-21.4,0.6-42.8-0.7-64.2c-0.3-4.2-0.6-8.4-1-12.6
		c-0.4-4.6-1.1-9.1-1.8-13.7c-1.1-6.3-2.3-12.6-4.2-18.7c-0.6-1.9-1-3.8-1.9-5.7c-0.5,0.9,0.2,1.5,0.3,2.1c0.4,2.9,0.9,5.7,1.3,8.5
		C42.9,108.9,43.4,110.8,43.3,112.7z"></path>
	<path d="M128.3,26.2c-6.4,0-12.8,0-19.3-0.1c-2.8,0-5.7,0.1-8.5,0.1c-5-4.1-10.5-7.7-14.4-13.1c-0.8-1.1-1.4-2.2-1.9-3.4
		c-0.3-0.7-0.1-0.9,0.7-0.8c7.1,0.8,14.2,1.3,21.3,1.8c5.6,0.4,11.2,0.4,16.8,0c5.4-0.4,10.8-0.7,16.1-1.1c1.9-0.1,3.8-0.3,5.8-0.5
		c-0.8,2.3-2.2,4.2-3.7,6c-1.9,2.3-4.2,4.3-6.5,6.1C132.6,22.8,130.4,24.5,128.3,26.2z"></path>
</g>
<g onclick="select(this)" class="" id="estampa-terciaria" fill="#bf0811">
	<path d="M45.3,110.7c-0.2-0.6-0.4-1.2-0.4-1.9c4.8,0.1,9.7,0.1,14.5,0.2c8.3,0.1,16.5,0.2,24.8,0.3
		c6.7,0.1,13.4,0.2,20.1,0.3c3,0,5.9,0.1,8.9,0.1c0.3,0,0.7-0.1,1.2,0.5c-2,0-3.8,0-5.6,0c-3.6,0-7.1,0-10.7,0
		c-11.4,0.1-22.8,0.1-34.2,0.3C57.7,110.6,51.5,110.6,45.3,110.7z"></path>
	<path d="M49.7,245.9c0-0.6,0-1.2,0-1.8c9.7,0.1,19.4,0.1,29.1,0.3c3.6,0.1,7.3,0.1,10.9,0.2c4.2,0.1,8.3-0.1,12.5,0.2
		c5.5,0.3,10.9,0.1,16.4,0.2c0.1,0,0.3,0,0.6,0c-0.5,0.3-0.9,0.3-1.4,0.3c-9.4,0.1-18.8,0.1-28.2,0.2c-6.9,0.1-13.7,0.1-20.6,0.2
		C62.6,245.9,56.2,246,49.7,245.9z"></path>
	<path d="M150.9,69.2c1.3,0,2.5-0.1,3.6,0c5.2,0.4,10.4-0.5,15.6-0.4c3.7,0.1,7.3-0.2,11-0.2c4.5-0.1,8.9-0.2,13.4-0.3
		c0.7,0,1.1,0.1,1,0.9c-0.1,0.7,0.2,1.6-1,1.4c-2.2-0.3-4.4-0.1-6.6-0.2c-2.5-0.1-5-0.2-7.5-0.2c-7.6-0.1-15.2-0.1-22.8-0.3
		c-1.9,0-3.9-0.2-5.8-0.2C151.5,69.9,151.2,69.9,150.9,69.2z"></path>
	<path d="M178.4,161.4c0,0.5-0.1,1-0.1,1.5c-6.8-0.1-13.6-0.1-20.4-0.2c-3,0-6-0.1-9-0.1c-7.1-0.1-14.2-0.1-21.3-0.2
		c-0.2,0-0.4,0-0.6-0.2c1.3-0.1,2.6-0.2,4-0.2c5.3-0.1,10.6,0,15.8-0.1c6.4-0.1,12.7-0.2,19.1-0.3c3.8-0.1,7.5-0.1,11.3-0.2
		C177.6,161.3,178,161.4,178.4,161.4z"></path>
	<path d="M50.7,194.8c0-0.5,0-1,0-1.5c2.5,0,4.9-0.1,7.4,0.1c2.3,0.1,4.6,0.1,6.9,0.1c7.6,0.1,15.2,0.2,22.8,0.3
		c0.3,0,0.9-0.2,0.9,0.3c0,0.5-0.5,0.4-0.8,0.4c-2.7,0.1-5.4,0.1-8,0.1c-7.3,0.1-14.6,0.1-21.8,0.2
		C55.6,194.9,53.2,194.9,50.7,194.8z"></path>
	<path d="M52.2,61c-2.9,0-5.8,0-8.7,0c-3.1,0-6.1,0.1-9.2,0.2c-0.3,0-0.9,0.2-0.9-0.2c-0.1-0.6-0.1-1.3,0.2-1.9
		c0.1-0.4,0.7-0.1,1.1-0.1c2.5,0.2,5.1,0.3,7.6,0.4c5.7,0.2,11.5,0.3,17.2,0.5c0.2,0,0.6-0.2,0.6,0.3c0,0.4-0.4,0.3-0.7,0.3
		c-2.4,0-4.8,0-7.2,0C52.2,60.7,52.2,60.8,52.2,61z"></path>
	<path d="M178.8,229.6c0,0.5,0,0.9,0,1.4c-4.9-0.1-9.9-0.1-14.9-0.2c-5.1-0.1-10.1-0.2-15.2-0.3c-0.4,0-0.8,0.1-1.3-0.1
		c0.2-0.4,0.5-0.3,0.8-0.3c5.4-0.1,10.7-0.1,16.1-0.3C169.1,229.8,173.9,229.6,178.8,229.6z"></path>
	<path d="M179.5,253.9c0,0.4,0,0.7,0,1c-4.5-0.1-8.9-0.2-13.4-0.3c0-0.1,0-0.2,0-0.2C170.6,254.2,175,254,179.5,253.9z"></path>
</g>
<g onclick="select(this)" class="" id="estampa-secundaria" fill="#ffffff">
	<path d="M188.2,95.2c-0.1,0.7-0.4,1.4-0.7,2.1c-7.6-0.1-15.2-0.1-22.8-0.2c-3.9,0-7.8-0.2-11.6-0.2
		c-10.9-0.1-21.9-0.2-32.8-0.3c-1.9,0-3.8-0.4-5.8-0.3c1.7,0.6,3.1-0.3,4.7-0.3c5.7,0,11.4-0.1,17.1-0.1c7.5-0.1,14.9-0.2,22.4-0.3
		c6.8-0.1,13.7-0.2,20.5-0.3C182.1,95.3,185.2,95.2,188.2,95.2z"></path>
	<path d="M180.5,275.5c0,0.6,0,1.2,0,1.8c-4.4,0-8.8-0.1-13.2-0.1c-0.4,0-0.9,0-1.3,0c-6.4,0-12.7,0-19.1-0.1
		c-6.7-0.1-13.3-0.2-20-0.3c-0.4,0-0.8,0-1.2,0c0,0,0,0,0,0c0,0,0.1,0,0.1,0c1.3,0,2.7,0.3,4,0c4.9-1.1,9.9-0.5,14.8-0.6
		c4.9-0.2,9.9-0.2,14.9-0.2C166.4,275.7,173.4,275.6,180.5,275.5z"></path>
	<path d="M98.8,33.4c0.6,0.5,1.7-0.2,2,0.8c-3.7,0-7.4,0-11.1,0.1c-11.2,0.1-22.5,0.2-33.7,0.3c-0.8,0-1.6,0.3-2.6,0
		c2.3-0.7,4.4-1.6,6.9-1.6c8.7,0.2,17.3,0.2,26,0.3c3.8,0,7.5,0.2,11.3,0.2C98,33.6,98.4,33.8,98.8,33.4z"></path>
	<path d="M162.8,49.4c1.4-0.2,2.8-0.4,4.2-0.4c3.5,0,7-0.2,10.5-0.3c6-0.2,12.1-0.4,18.1-0.5c0.4,0,1.1-0.4,1,0.5
		c-0.1,0.6,0.3,1.6-1,1.5c-3.4-0.1-6.8-0.2-10.2-0.2c-3.3-0.1-6.6-0.2-9.9-0.3c-3.4-0.1-6.7-0.1-10.1-0.1
		C164.5,49.5,163.7,49,162.8,49.4z"></path>
	<path d="M50.5,221.4c0-0.4,0-0.7,0-1.1c4.1,0.1,8.1,0.2,12.2,0.3c2.2,0,4.3,0.1,6.4,0.1c0.4,0,0.8,0,1.5,0.3
		C63.7,221.2,57.1,221.3,50.5,221.4z"></path>
	<path d="M178.2,185.5c0,0.2,0,0.3,0,0.5c-0.1,0.2-0.3,0.3-0.5,0.3c-3.6-0.1-7.3-0.2-11-0.3c3.6-0.5,7.2-0.6,10.8-0.6
		C177.8,185.3,178,185.3,178.2,185.5z"></path>
	<path d="M178.8,149.6c0,0.3,0,0.5,0,0.8c-3-0.1-6.1,0.2-9-0.4C172.7,149.6,175.7,149.9,178.8,149.6z"></path>
</g>
</svg>
