<!--?xml version="1.0" encoding="utf-8"?-->
<!-- Generator: Adobe Illustrator 24.2.3, SVG Export Plug-In . SVG Version: 6.00 Build 0)  -->
<svg version="1.1" id="Camada_1" xmlns="http://www.w3.org/2000/svg" xmlns:xlink="http://www.w3.org/1999/xlink" x="0px" y="0px" viewBox="0 0 229 418" enable-background="new 0 0 229 418" xml:space="preserve">
<g onclick="select(this)" class="" id="gola-primaria" fill="#021c3b">
	<path d="M77.9528961,7.9597788c0.7734909-0.0868554,1.2810745-0.6227632,1.8024139-1.1070566
		c0.7603989-0.7063622,1.6094208-1.3635068,2.2009125-2.1973295c2.3787308-3.3532748,5.9154663-4.1040101,9.6146927-4.1371012
		c10.8288574-0.0968688,21.6591644-0.0327392,32.4889069-0.0323138c3.6765366,0.0001444,7.3533707,0.0263636,11.0294876-0.0132293
		c2.1037445-0.022658,4.1253967,0.4074263,6.1430511,0.9059279c1.240509,0.306494,2.2250671,0.9727898,3.0632935,1.9657297
		c1.5145111,1.7940409,2.9762726,3.6627538,5.0728302,4.8576345c1.8892975,0.8698425,2.232193,1.9619017,1.6444397,4.6568098
		c-0.8680267,3.9801064-3.1195221,7.256525-5.9576111,10.0776253c-3.1543121,3.135416-6.6809235,5.8337631-10.5701141,8.0235748
		c-2.4582367,1.3841152-4.9942627,2.6225414-7.64991,3.5758228c-4.9303207,1.7698059-10.0413513,2.5165062-15.2560577,2.1380272
		c-6.9028931-0.5010071-13.3907471-2.4491768-19.2632141-6.193306c-4.6655121-2.9746075-9.1340027-6.1839447-12.4609528-10.7306004
		c-1.5546875-2.124649-2.7199631-4.4103737-3.3867264-6.9568338C75.8662186,10.4935923,76.2461853,9.2179432,77.9528961,7.9597788z
		 M144.3056793,9.0716209c-1.6213531,0.1224871-3.0516968,0.2176695-4.4796753,0.3405447
		c-8.3171387,0.7156858-16.6441956,1.3321667-24.9881668,1.5415802c-6.3928757,0.1604452-12.7648773-0.5101662-19.1342163-1.0081911
		c-3.8610764-0.3019018-7.7151108-0.6963148-11.5699081-1.07374c-0.8292313-0.081192-1.0991592,0.0874987-0.7168503,0.9401541
		c0.5081406,1.1332855,1.0283813,2.2572689,1.7957001,3.2364836c3.8750992,4.9451981,8.5461273,8.9716797,14.1956177,11.738184
		c5.4275513,2.6578178,11.1766891,4.1721344,17.2688675,3.4482021c9.8420715-1.169529,17.7235413-6.0017147,24.1360626-13.393693
		C142.2531128,13.1811771,143.4580688,11.3532133,144.3056793,9.0716209z"></path>
</g>
<g onclick="select(this)" class="" id="estampa-primaria" fill="#71aad4">
	<path d="M228.9600067,116.093399c-6.8571014,2.7822495-14.0121155,4.3370743-21.3362427,5.2273712
		c-6.1868591,0.7520599-12.368454,0.6976852-18.5519867,0.0140381c-1.5454559-0.1708679-3.0968781-0.3538818-4.5782013-1.2677536
		c-0.2199554,2.0793762-0.4086456,4.0580902-0.6417084,6.0315781c-0.8538513,7.2303009-1.2928009,14.4857788-1.360672,21.7647858
		c-0.0205078,2.2003937,0.0623932,4.3856812,0.517807,6.556076c0.4091797,1.9500275-0.1010284,3.8995209-0.1977386,5.8493652
		c-0.0355988,0.717926-0.1707764,1.4362183-0.1483612,2.1508484c0.2055359,6.549881-0.5930634,13.0964661-0.0467377,19.6483002
		c0.1228333,1.4733582,0.0373993,2.9524689-0.128479,4.4282837c-0.3486176,3.1020355,0.1955414,6.1179047,0.8783569,9.133194
		c1.6395416,7.239975,1.3817749,14.5227966,0.3444061,21.8104858c-0.3048859,2.1419525-0.3785248,4.2077332,0.3238068,6.355957
		c1.7737885,5.4254761,1.8165588,11.0054626,0.943222,16.6040192c-0.2310028,1.4808197-0.2509308,2.9245453,0.0898895,4.3920746
		c0.8876038,3.8216553,0.4447784,7.7210388,0.6464539,11.5834961c0.308197,5.9023438,0.6915741,11.8015137,1.4323425,17.6740112
		c0.2583313,2.0479736,0.224884,4.1368713,0.2556305,6.2081604c0.0256958,1.7302551-0.3531799,2.2260742-2.0658417,2.7414246
		c-3.0054626,0.9043579-6.1238403,1.1594543-9.2250977,1.4795837c-7.6872864,0.7935486-15.4051208,0.8666382-23.123642,1.0108948
		c-11.2354126,0.2099304-22.4668884,0.6517639-33.7026749,0.8135376c-12.4787674,0.179657-24.936409-0.845459-37.4167862-0.8475647
		c-8.3977737-0.0014343-16.797905-0.1000061-25.1787109-0.73526c-4.1492081-0.3144531-8.2847404-0.7519226-12.3537483-1.6697083
		c-0.1560364-0.0351868-0.3138123-0.0631714-0.4689255-0.1018372c-3.3675385-0.8405762-3.729023-1.1849976-3.5259438-4.6595764
		c0.4517288-7.7287292,1.0040855-15.4518127,1.5478287-23.174942c0.1460991-2.0751343,0.2783318-4.1479645,0.2284355-6.2277222
		c-0.0423241-1.7640381,0.0424042-3.5182648,0.3600349-5.2543335c0.4133606-2.2592926,0.4568634-4.5092621,0.1249275-6.7918701
		c-0.3660889-2.5175629-0.0983963-5.0300446,0.4432831-7.5034943c0.2180901-0.9958496,0.195961-1.9692535,0.1215553-2.9723206
		c-0.336792-4.5404205-1.0248642-9.0607758-0.8374214-13.6324158c0.1784706-4.3526611,1.2044525-8.5330353,2.6853447-12.6053009
		c0.3780708-1.0396423,0.6012306-2.0360565,0.4378281-3.144928c-0.1810989-1.2289734-0.1553574-2.4728088,0.0793152-3.7015228
		c0.3182716-1.6664276,0.183197-3.3283997,0.0996132-5.0111847c-0.1621933-3.2655487-0.1713448-6.5402069-0.1846046-9.8113403
		c-0.0524673-12.9395447-0.0425491-25.8795013-0.1395607-38.8186798c-0.038414-5.1238098-0.9970284-10.1758575-1.5123215-15.2630005
		c-0.131218-1.295433-0.3165131-2.5854034-0.4659805-3.7894058c-8.7987175,2.5404205-17.7214336,1.9815598-26.6416473,1.1304092
		c-4.741806-0.452446-9.4219036-1.3161163-13.9765768-2.7638702C1.8316439,118.6739197,0.9756763,118.3496017,0.24,117.772438
		c0-1.0394058,0-2.078804,0-3.1182098c0.3886503-0.0979767,0.2689478-0.4427795,0.3153924-0.6888885
		c0.3441262-1.8235321,0.6675487-3.6509476,1.0076697-5.4752502c1.8599573-9.9762039,2.9367695-20.0686417,4.416398-30.1010056
		C6.8598299,72.419899,7.5262547,66.427742,9.1545849,60.5976868c2.7158356-9.7237396,7.3670483-18.2610435,15.2138138-24.8508644
		c1.1002979-0.9240494,2.1522732-1.908123,3.1921444-2.9004936c0.5942116-0.5670662,1.2593575-1.017168,1.9867916-1.3651505
		c6.4953289-3.1071453,13.1113338-5.9370537,19.7744732-8.6652718c7.6037102-3.1133347,15.0100632-6.6465206,22.1374359-10.7465782
		c1.0358582-0.5958872,1.9914551-1.2535591,2.7835236-2.2022896c0.9345245-1.11936,2.1475449-1.9064846,3.7101288-1.9072599
		c-1.7067108,1.2581644-2.0866776,2.5338135-1.4845581,4.8333817c0.6667633,2.5464602,1.8320389,4.8321848,3.3867264,6.9568338
		c3.3269501,4.5466557,7.7954407,7.7559929,12.4609528,10.7306004c5.872467,3.7441292,12.360321,5.6922989,19.2632141,6.193306
		c5.2147064,0.378479,10.325737-0.3682213,15.2560577-2.1380272c2.6556473-0.9532814,5.1916733-2.1917076,7.64991-3.5758228
		c3.8891907-2.1898117,7.415802-4.8881588,10.5701141-8.0235748c2.838089-2.8211002,5.0895844-6.0975189,5.9576111-10.0776253
		c0.5877533-2.6949081,0.2448578-3.7869673-1.6442871-4.6568136c1.8040009-0.123147,2.9554596,0.9744577,4.0511017,2.1698017
		c0.2662506,0.2904806,0.4252472,0.6620398,0.7931213,0.8793755c3.9738922,2.3477592,7.8823395,4.7979689,12.1107788,6.7028666
		c10.4204865,4.6943989,21.101532,8.7826443,31.4798737,13.5730629c0.6920013,0.3194237,1.3066406,0.724474,1.8821259,1.2149258
		c1.0639801,0.9067917,2.1244659,1.8196297,3.2219086,2.6849899c3.6716614,2.895256,6.8238068,6.2698441,9.3999634,10.1694183
		c4.342453,6.5732765,6.7271576,13.896862,8.2562561,21.5540199c0.9705048,4.8599472,1.1772461,9.8393097,2.3999023,14.6610107
		c1.4536285,5.7324448,2.6221161,11.5251999,3.4730682,17.381134c0.5265961,3.6238251,1.0268097,7.2561493,1.7411194,10.8444443
		c0.1572876,0.7902069-0.1613617,1.8726273,0.7821503,2.458374
		C228.9600067,113.6947784,228.9600067,114.8940887,228.9600067,116.093399z"></path>
	<path d="M144.3056793,9.0716209c-0.8476105,2.2815924-2.0525665,4.1095562-3.492569,5.7695246
		c-6.4125214,7.3919783-14.2939911,12.224164-24.1360626,13.393693c-6.0921783,0.7239323-11.8413162-0.7903843-17.2688675-3.4482021
		c-5.6494904-2.7665043-10.3205185-6.7929859-14.1956177-11.738184c-0.7673187-0.9792147-1.2875595-2.1031981-1.7957001-3.2364836
		c-0.382309-0.8526554-0.112381-1.0213461,0.7168503-0.9401541c3.8547974,0.3774252,7.7088318,0.7718382,11.5699081,1.07374
		c6.369339,0.4980249,12.7413406,1.1686363,19.1342163,1.0081911c8.3439713-0.2094135,16.6710281-0.8258944,24.9881668-1.5415802
		C141.2539825,9.2892904,142.6843262,9.194108,144.3056793,9.0716209z"></path>
</g>
<g onclick="select(this)" class="" id="estampa-secundaria" fill="#021c3b">
	<path d="M43.316925,120.4275131c-0.1719704-3.5095444-0.6853294-6.9850922-1.1276131-10.4635925
		c-0.7550583-5.9383545-1.4463615-11.8944473-3.0803909-17.6823959c-0.6836128-2.4214401-1.5465012-4.7760849-2.5187263-7.0988388
		c-1.2730637-3.0415039-1.1876984-3.0949707,1.7950172-4.4927444c7.9775696-3.7384491,15.9382477-7.5130997,23.9947968-11.0804062
		C74.5906372,64.2028503,86.8603821,58.929966,99.6060028,54.89217c6.8368759-2.1659088,13.8290176-2.4258232,20.9495468-1.3242035
		c9.4470901,1.4615669,18.1026688,5.3333702,26.9940872,8.4733849c10.3364258,3.6503296,20.465271,7.8493729,30.512085,12.2332306
		c4.8594971,2.1203918,9.6564484,4.3836212,14.4946136,6.553421c0.5626831,0.2523499,0.7144012,0.5007248,0.4744415,1.0774612
		c-0.7800903,1.8749161-1.2962189,3.8397598-2.1981659,5.6847305c-1.8617096,3.8081894-2.5233765,7.9975433-3.4595032,12.0841904
		c-1.481308,6.466568-2.5205231,13.0071869-2.8459625,19.6457214c-0.0135498,0.2762604,0.0075226,0.5542221,0.0124359,0.8313599
		c-0.3253937,3.0885239-0.6477356,6.1774139-0.9797211,9.2652512c-0.0467834,0.4349823-0.1406708,0.8649139-0.2127533,1.2971649
		c-2.5793457-0.1872711-5.1411133,0.199585-7.7306976,0.1624603c-12.5855865-0.1804962-25.1745911-0.1083221-37.7620087-0.1855621
		c-6.5479279-0.0401917-13.095047-0.0068359-19.6448517-0.1200714c-11.6650009-0.2016602-23.3357697-0.1054993-35.0039825-0.0774231
		c-12.8581161,0.0309448-25.7180405-0.1938019-38.5738869,0.2286072
		C44.1934242,127.2904358,43.7551765,123.8589706,43.316925,120.4275131z"></path>
	<path d="M182.5967407,143.4724274c0.1101685,2.6290283-0.434967,5.3022308,0.065033,7.8773804
		c0.7455597,3.8400116,0.1946564,7.6142273,0.0025635,11.4220276c-0.1061554,2.1044159-0.0230408,4.2183685-0.0252533,6.3280182
		c-45.6791687,0.2720337-91.3582993,0.2774811-137.0374451-0.0007782c-0.3374405-2.0182495-0.3347549-4.0618591-0.3340759-6.092865
		c0.0021744-6.5104675,0.0839615-13.020874,0.1349907-19.53125c1.6770058-0.0353699,3.3540535-0.1015015,5.031105-0.1017303
		c42.2173462-0.005722,84.4347-0.0057831,126.6520309-0.0000916
		C178.9227142,143.3733826,180.7597198,143.437851,182.5967407,143.4724274z"></path>
	<path d="M182.6146393,183.2797546c-0.0255127,2.9896393-0.5478973,5.9988251,0.0601654,8.9631348
		c0.5452728,2.6581879,1.1613007,5.3001404,1.4755402,7.9986267c0.1384888,1.1891785,0.2224731,2.3847046,0.3312378,3.5772858
		c-0.4784241,0.0213776-0.9568634,0.0615387-1.4353333,0.0615082c-7.4772949-0.0005188-14.9546051-0.010376-22.4319-0.0100861
		c-38.9061279,0.0014954-77.8122635,0.0052643-116.718399,0.0082092c-0.0325432-1.3789673,0.605999-2.5715332,1.0959625-3.7957153
		c0.377224-0.9425049,0.5813293-1.8616486,0.4421463-2.8919983c-0.1920509-1.4217377-0.1565132-2.8553772,0.1144371-4.2758179
		c0.2554092-1.3389893,0.3071899-2.6903229,0.0798378-4.0350189c-0.3156815-1.867157,0.0157928-3.7267609,0.0078812-5.5895844
		c1.9187012-0.0165863,3.8374214-0.0475159,5.7561378-0.0476532c41.6619415-0.0027161,83.3238831-0.0025787,124.9858246-0.0003204
		C178.4570007,183.2424469,180.5358124,183.2667236,182.6146393,183.2797546z"></path>
	<path d="M42.5231133,217.8283844c3.3980713,0.0039368,6.7961464,0.0112457,10.1942177,0.0113068
		c40.6260757,0.0007935,81.2521515,0.000946,121.8782349-0.0003815c2.998291-0.0000916,5.9965973-0.0129242,8.9949188-0.0197449
		c-0.5711823,2.7654419,0.3751068,5.329071,1.0110474,7.9454803c0.3571472,1.4693909,0.5305939,2.983429,0.7867432,4.4771881
		c-0.0927124,0.1168213-0.0791626,0.2222595,0.0343323,0.3168488c0.0054779,0.2025299,0.0109558,0.4050446,0.0163879,0.607605
		c-2.8778534,0.0287933-5.7557068,0.0821991-8.6335297,0.0825653c-42.0292969,0.0054169-84.0586014,0.005249-126.0879059,0.0001831
		c-2.6380196-0.0003204-5.2760315-0.0519867-7.9139862-0.0796509c1.0243607-3.9518127-0.0226288-7.870697-0.1897507-11.8035126
		C42.5920296,218.8532867,42.5537567,218.3410034,42.5231133,217.8283844z"></path>
	<path d="M42.26474,245.4008179c3.7968292,0.0017853,7.5936584,0.0050659,11.3904877,0.0050964
		c40.2501984,0.0003815,80.5003815,0.0016632,120.7505798-0.0021362c3.5568085-0.0003357,7.1136017-0.0345459,10.6705933-0.0529327
		c0.7659454,2.6678009,0.7137756,5.3969116,0.6109161,8.1298828c-3.4335938,0.0566559-6.8674469-0.0644989-10.2978973-0.0691223
		c-41.6587982-0.0562439-83.3177338-0.0519409-124.9765472-0.0019684c-2.790184,0.0033417-5.585598,0.1173553-8.3798981,0.0922394
		C42.2015724,250.8041229,41.8571129,248.0917358,42.26474,245.4008179z"></path>
	<path d="M41.2364426,267.4020996c3.3554726,0.0415955,6.7109413,0.1187744,10.0664215,0.1194153
		c41.4966354,0.0083008,82.9932632,0.007019,124.4899063,0.0026245c3.5564575-0.0003967,7.112915-0.0405273,10.669342-0.0622253
		c0.0789948,1.1065369,0.1580048,2.2130737,0.2370148,3.3196411c-0.479599,0.0076904-0.9591827,0.0221252-1.438797,0.0221252
		c-47.6570587,0.0010071-95.3141327,0.0010376-142.9711914-0.0002747c-0.4794426,0-0.9588814-0.0187073-1.4382095-0.0285339
		C40.9084358,269.6425781,40.7627296,268.486969,41.2364426,267.4020996z"></path>
</g>
</svg>
