<!--?xml version="1.0" encoding="utf-8"?-->
<!-- Generator: Adobe Illustrator 23.1.0, SVG Export Plug-In . SVG Version: 6.00 Build 0)  -->
<svg version="1.1" id="Camada_1" xmlns="http://www.w3.org/2000/svg" xmlns:xlink="http://www.w3.org/1999/xlink" x="0px" y="0px" viewBox="0 0 233 419" style="enable-background:new 0 0 233 419;" xml:space="preserve">
<style type="text/css">
	.st0{fill:#F1FD3C;}
	.st1{fill:#F0FD3D;}
	.st2{fill:#EDF83F;}
	.st3{fill:#0FBE0A;}
	.st4{fill:#BE0811;}
</style>
<path d="M-1489.3,326.6c0.1,0.1,0.1,0.2,0,0.3C-1489.3,326.8-1489.3,326.7-1489.3,326.6z"></path>
<path d="M-1342.7,338c0-0.1,0-0.2,0-0.3C-1342.6,337.8-1342.6,337.8-1342.7,338C-1342.6,337.9-1342.6,338-1342.7,338z"></path>
<polygon class="st0" points="-1475.1,352.1 -1475,352.1 -1475.1,352.1 "></polygon>
<path d="M-1350.6,87.3c-0.1-0.1-0.1-0.1-0.2-0.2C-1350.7,87.2-1350.6,87.2-1350.6,87.3z"></path>
<g onclick="select(this)" class="" id="c-gola-primaria" fill="#021c3b">
	<path d="M141.8,0.2c0.9,0.5,2,0.4,3,0.7c1.6,0.4,3,1.1,4.1,2.5c1.3,1.7,2.9,3,4.6,4.4c-0.7,0.1-1.4,0.1-2,0.2
		c-4.3,0.7-8.7,1.4-13,1.7c-7.5,0.6-15,1.4-22.6,1.3c-11.4-0.1-22.7-1.8-34-3c2-1.6,3.8-3.4,5.4-5.4c1.1-1.3,2.7-1.5,4.2-1.9
		c0.7-0.2,1.5,0.1,2.1-0.5c2.1,0,4.2,0,6.2,0c1.6,0.3,3.2,0.1,4.9,0.1c1.7,0,3.3,0.2,5-0.1c2.7,0,5.4,0,8.2,0c2,0.2,4,0.4,6,0
		C129.8,0.2,135.8,0.2,141.8,0.2z"></path>
</g>
<g onclick="select(this)" class="" id="c-estampa-primaria" fill="#71aad4">
	<g onclick="select(this)">
		<path d="M203.8,32.3c0.2,0.1,0.5,0.2,0.7,0.4c3.7,3.5,7.8,6.8,10.8,11c3.8,5.4,6.5,11.4,8.3,17.7
			c1.7,5.9,2.7,12,3.4,18.1c0.6,4.7,1.5,9.3,2.2,14c0.9,5.7,1.5,11.5,2.8,17.1c0.4,2.1,0.7,4.2,1.2,6.3c0,1,0,1.9,0,2.9
			c-1.4,0.7-3,0.9-4.5,1.2c-9.6,1.8-19.3,3.1-29.1,2.9c-3.1-0.1-6.1-0.4-8.8-2c-0.9-0.5-2.1-0.2-2.8-1.2c0.3-1.3,0-2.6,0.1-4
			c0.3-2.8,0.9-5.7,0.7-8.6c-0.1-1.7,0-3.3,0.2-5c0.3-2.8,1.3-5.4,1.3-8.2c0-4.2,0.5-8.4,1.4-12.6c0.3-1.6,0.6-3.3,1.9-4.3
			c1.1-0.9,1.8-2,2.5-3.2c2.4-4,3.4-8.6,4.8-13c1.3-4.1,2.3-8.3,2.7-12.6c0.4-5.1,0.2-10.1-0.2-15.2
			C203.5,33.5,203.4,32.8,203.8,32.3z"></path>
		<path d="M0.2,116.4c0.5-1.9,0.8-3.8,1.2-5.7c0.7-3.6,1.3-7.2,1.8-10.8C4.2,93.2,6,86.6,7.5,80c0.9-4.3,1.2-8.7,2.2-13
			c1.2-5.3,2.8-10.5,5.2-15.4c3.1-6.5,7.6-12,13.3-16.4c1.1-0.9,2-2.1,3.3-2.7c0.4,0.8,0.5,1.5,0,2.3c-0.1,0.2-0.1,0.4-0.1,0.7
			c0.2,1,0.1,2,0,3C30.9,43.6,31,48.8,32,53.9c0.9,4.8,2.5,9.4,3.9,14.1c1,3.3,2.4,6.3,4.3,9.2c0.9,1.3,1.8,2.8,2.1,4.4
			c0.3,1.3,0.3,2.7,0.6,4c1.3,5.6,1.5,11.4,2.3,17c0.3,2.1,0.2,4.2,0.7,6.3c0.3,1.2,0.9,2.3,0.7,3.5c-0.3,2,0,3.9,0,5.9
			c-0.4,0.4-0.3,1-0.2,1.5c0.1,1.2-0.5,1.6-1.6,1.8c-6.8,1-13.6,1-20.4,0.2c-7.8-1-15.6-2.1-23.3-3.9c-0.3-0.1-0.5-0.1-0.8-0.2
			C0.2,117.2,0.2,116.8,0.2,116.4z"></path>
	</g>
	<g onclick="select(this)" class="">
		<path d="M81.9,8c11.3,1.2,22.6,2.8,34,3c7.6,0.1,15.1-0.6,22.6-1.3c4.4-0.4,8.7-1.1,13-1.7c0.7-0.1,1.3-0.1,2-0.2
			c1.6,0,3,0.6,4,1.8c1.3,1.5,3,2.5,4.7,3.4c9.2,5.2,18.9,9.4,28.7,13.2c4.2,1.7,8.2,3.9,12.4,5.7c0.2,0.1,0.4,0.3,0.6,0.4
			c-0.4,0.5-0.3,1.2-0.3,1.7c0.4,5.1,0.6,10.1,0.2,15.2c-0.4,4.3-1.4,8.5-2.7,12.6c-1.4,4.4-2.3,9-4.8,13c-0.7,1.1-1.3,2.3-2.5,3.2
			c-1.3,1-1.6,2.7-1.9,4.3c-0.8,4.2-1.3,8.4-1.4,12.6c0,2.8-1,5.5-1.3,8.2c-0.2,1.7-0.3,3.3-0.2,5c0.2,2.9-0.4,5.7-0.7,8.6
			c-0.1,1.3,0.1,2.7-0.1,4c-0.4,0.3-0.3,0.7-0.3,1.1c-1.2,10.5-1.5,21-0.9,31.5c0.2,3.2-0.1,6.4-0.3,9.6c-0.4,6,0.1,12.1,0.1,18.1
			c0,2.8-0.1,5.5-0.4,8.3c-0.2,1.9-0.3,3.8,0.1,5.7c0,0.2,0.1,0.5,0.1,0.7c-0.4,3.1,0.6,6.1,1.4,9c1.7,6,1.9,12,1.4,18.2
			c-0.3,3.7-0.8,7.4,0,11.2c0.3,1.3,0.2,2.6,0.1,3.9c-0.4,7.6,0.8,15.1,1.1,22.6c0.2,5.4,0.7,10.8,0.9,16.3c0.1,1.4,0.3,2.8,0.3,4.2
			c0,2.3-0.2,2.6-2.4,3.2c-4.9,1.5-9.9,2.4-14.9,3c-11.9,1.5-23.8,1.7-35.7,1.8c-20.7,0.2-41.3,0.6-62,0.3c-10-0.1-20-1-29.7-3.8
			c-3.7-1-3.8-1.1-3.6-4.8c0.4-7.1,1-14.1,1.5-21.1c0.2-3.2-0.1-6.4,0.3-9.6c0.1-0.6,0.1-1.1,0.2-1.7c0.9-3.2,0.1-6.4,0-9.6
			c-0.2-4.6,0.2-9.2,1.4-13.7c0.4-1.6,0.5-3.1,0.3-4.7c-1.1-8.7-0.9-17.3,1.1-25.9c0.3-1.4,0.5-2.9,0.3-4.3c-0.4-4.7,0-9.4-0.2-14.1
			c-0.2-5.7,0-11.4-0.5-17.1c-0.3-3.6,0.4-7.3,0.3-10.9c-0.3-9.6-0.9-19.2-1.5-28.8c0-0.3,0.1-0.7-0.3-1c0-2-0.3-3.9,0-5.9
			c0.2-1.2-0.4-2.3-0.7-3.5c-0.5-2.1-0.4-4.2-0.7-6.3c-0.7-5.7-1-11.4-2.3-17c-0.3-1.3-0.3-2.7-0.6-4c-0.3-1.6-1.2-3.1-2.1-4.4
			c-1.9-2.8-3.3-5.9-4.3-9.2c-1.4-4.7-2.9-9.3-3.9-14.1c-1-5.2-1.1-10.4-0.7-15.6c0.1-1,0.2-2,0-3c0-0.3,0-0.4,0.1-0.7
			c0.4-0.8,0.4-1.5,0-2.3c4.2-2,8.4-4,12.8-5.8c7.1-2.8,14.2-5.9,21.1-9.1c3.9-1.8,7.6-4.1,11.2-6.4c0.4-0.3,0.8-0.7,1.1-1.1
			C78.8,8.9,80.1,7.9,81.9,8z"></path>
	</g>
</g>
</svg>
