<!--?xml version="1.0" encoding="utf-8"?-->
<!-- Generator: Adobe Illustrator 24.2.3, SVG Export Plug-In . SVG Version: 6.00 Build 0)  -->
<svg version="1.1" id="Camada_1" xmlns="http://www.w3.org/2000/svg" xmlns:xlink="http://www.w3.org/1999/xlink" x="0px" y="0px" viewBox="0 0 229 418" style="enable-background:new 0 0 229 418;" xml:space="preserve">
<style type="text/css">
	.st0{fill:#FD0202;}
	.st1{fill:#038F45;}
	.st2{fill:#B86967;}
	.st3{fill:#0D7400;}
</style>
<g onclick="select(this)" class="" id="estampa-primaria" fill="#ffffff">
	<path d="M43.2,120.4c-0.2-1.9-0.3-3.8-0.5-5.7c-0.2-1.5-0.4-1.6-1.9-1.3c-1.1,0.2-2.1,0.4-3.2,0.6c-3.7,0.7-7.5,0.4-11.2,0.4
		c-6.5,0-12.9-0.6-19.2-2.1c-2-0.5-4-1.1-6-1.7c1-4.8,1.7-9.7,2.3-14.5c0.9-6.3,1.9-12.6,2.6-18.9c0.8-6.7,1.9-13.3,4-19.7
		c2.9-8.9,7.8-16.5,15.2-22.4c1.1-0.9,2-2.2,3.3-2.9c3.6-1.9,7.3-3.7,11-5.3c10-4.1,20-8.2,29.5-13.4c2-1.1,4-2.1,5.5-3.9
		c0.8-1,2.1-1.6,3.5-1.6c-1.7,0.9-2,2.4-1.7,4.1c0.4,2.1,1.1,4.2,2.3,6c5.9,8.6,14.3,13.9,24.1,17.1c2,0.7,4.2,1.1,6.6,1
		c-0.8-1.3-1.7-2.3-2.7-3.3c-4.4-4.6-9.3-8.5-14.3-12.4c-2.5-2-4.7-4.2-6.7-6.7c-1-1.2-1.7-2.5-2.3-3.9c-0.3-0.7-0.2-1,0.6-0.9
		c3.5,0.4,7.1,0.7,10.6,1c7.9,0.6,15.8,1.4,23.8,1c6.3-0.4,12.5-0.7,18.8-1.2c2.3-0.2,4.5-0.3,7-0.5c-0.4,0.8-0.6,1.4-1,2
		c-1.2,2.3-2.9,4.2-4.7,6.1c-2.9,3-6.4,5.2-9.5,7.8c-3.5,3-7.1,5.9-10,9.5c-0.4,0.5-0.9,1-1,1.8c1-0.1,2,0,2.9-0.2
		c5.1-0.9,9.7-3.1,14.1-5.6c3.3-1.9,6.4-4.2,9.1-6.8c3.1-3,5.5-6.4,6.6-10.6c0.6-2.2,0-4.3-1.7-4.7c1.9-0.3,3.1,0.9,4.2,2.2
		c0.3,0.4,0.7,0.7,1.1,1c8.9,5.9,18.8,9.6,28.5,13.7c5.1,2.1,10,4.4,15.1,6.6c0.3,0.1,0.6,0.3,0.8,0.5c12,8.5,19.2,20.2,21.4,34.6
		c1.7,11.3,4.7,22.4,6.2,33.7c0.4,2.7,0.8,5.3,1.2,7.9c-0.4,0-0.8,0.1-1.2,0.2c-5.3,2.4-10.8,3.4-16.5,4.2c-4.9,0.7-9.8,1.4-14.8,1
		c-3-0.2-6.1,0-9.1-0.7c-0.4-0.1-1-0.3-1.1,0.5c-0.1,2.1-1,4.2-0.7,6.4c-0.4,0.8-0.3,1.7-0.4,2.6c-1,8.4-1.7,16.8-1.7,25.2
		c0,2.2,0.1,4.4,0.5,6.6c0.4,1.9,0,3.8-0.2,5.7c-0.2,2.1-0.2,4.2-0.1,6.3c0.1,2.2-0.1,4.3-0.2,6.5c-0.1,2.8-0.1,5.7,0.1,8.5
		c0.1,1.7,0.1,3.4-0.1,5c-0.3,3,0.2,5.9,0.8,8.8c1.7,7.3,1.5,14.8,0.4,22.2c-0.3,2.1-0.4,4.2,0.3,6.4c1.8,5.5,1.8,11.1,0.9,16.7
		c-0.2,1.4-0.2,2.7,0.1,4c0.9,3.8,0.5,7.7,0.7,11.6c0.3,6,0.7,12,1.4,17.9c0.3,2,0.2,4.1,0.3,6.1c0,1.8-0.3,2.3-2.1,2.8
		c-3,0.9-6,1.1-9.1,1.5c-7.7,0.8-15.5,0.9-23.2,1c-11.2,0.2-22.5,0.7-33.7,0.8c-12.5,0.2-24.9-0.8-37.4-0.8
		c-8.4,0-16.8-0.1-25.2-0.7c-4.1-0.3-8.3-0.8-12.4-1.7c-0.3-0.1-0.5-0.1-0.8-0.2c-3-0.8-3.3-1.2-3.2-4.2c0.5-7.8,1-15.7,1.6-23.5
		c0.1-2,0.3-4.1,0.2-6.1c0-1.8,0-3.6,0.4-5.4c0.4-2.2,0.5-4.4,0.1-6.7c-0.4-2.5-0.1-5,0.4-7.5c0.2-1.1,0.2-2.1,0.1-3.2
		c-0.3-4.5-1-8.9-0.8-13.4c0.2-4.4,1.2-8.6,2.7-12.7c0.4-1,0.6-2,0.4-3c-0.2-1.2-0.2-2.5,0.1-3.7c0.3-1.7,0.2-3.3,0.1-5
		c-0.2-3.3-0.2-6.6-0.2-9.9c-0.1-12.9,0-25.8-0.1-38.7c0-5.2-1-10.3-1.5-15.5C43.6,122.9,43.7,121.6,43.2,120.4z"></path>
</g>
<g onclick="select(this)" class="" id="gola-primaria" fill="#ffffff">
	<path d="M149.2,8.3c1.7,0.5,2.3,2.5,1.7,4.7c-1.2,4.2-3.5,7.7-6.6,10.6c-2.7,2.6-5.8,4.9-9.1,6.8
		c-4.4,2.6-9,4.7-14.1,5.6c-1,0.2-1.9,0.1-2.9,0.2c0.1-0.8,0.6-1.3,1-1.8c2.9-3.6,6.4-6.5,10-9.5c3.2-2.6,6.6-4.9,9.5-7.8
		c1.8-1.8,3.4-3.8,4.7-6.1c0.3-0.6,0.6-1.3,1-2c-2.4,0.2-4.7,0.3-7,0.5c-6.3,0.5-12.5,0.9-18.8,1.2c-8,0.5-15.9-0.4-23.8-1
		c-3.5-0.3-7.1-0.6-10.6-1c-0.9-0.1-0.9,0.2-0.6,0.9c0.6,1.4,1.3,2.7,2.3,3.9c2,2.5,4.2,4.7,6.7,6.7c5,3.9,9.9,7.8,14.3,12.4
		c1,1,1.8,2,2.7,3.3c-2.4,0.2-4.5-0.3-6.6-1C93,31.9,84.7,26.7,78.7,18c-1.2-1.8-1.9-3.8-2.3-6c-0.3-1.7,0-3.2,1.7-4.1
		c0.5,0,0.9-0.3,1.3-0.6c0.9-0.9,2-1.7,2.7-2.7c2-2.9,5-3.6,8.2-3.9c3.1-0.3,6.1,0.1,9.2,0c4.4-0.1,8.8,0,13.2-0.1
		c7.9-0.2,15.8,0,23.7,0c0.9,0,1.8,0.2,2.7,0.3c2.2,0.3,4.2,1.2,5.6,3.1C146,5.8,147.4,7.3,149.2,8.3z"></path>
</g>
<g onclick="select(this)" class="" id="detalhe-punho" fill="#ffffff">
	<path d="M0.2,114.4c0.6-1.2,0.4-2.7,0.9-3.9c2,0.6,4,1.2,6,1.7c6.3,1.6,12.7,2.1,19.2,2.1c3.7,0,7.5,0.3,11.2-0.4
		c1.1-0.2,2.1-0.4,3.2-0.6c1.5-0.3,1.7-0.2,1.9,1.3c0.2,1.9,0.3,3.8,0.5,5.7c-0.9,0.7-2,1-3.1,1.2c-2.5,0.5-5,0.8-7.6,0.8
		c-7,0.1-14,0-20.9-1.2c-3-0.6-6-1.1-8.9-2.1c-0.8-0.3-1.6-0.6-2.4-1C0.2,116.8,0.2,115.6,0.2,114.4z"></path>
	<path d="M184.6,120.1c-0.3-2.2,0.6-4.2,0.7-6.4c0-0.8,0.7-0.6,1.1-0.5c3,0.7,6,0.5,9.1,0.7c5,0.3,9.9-0.3,14.8-1
		c5.7-0.8,11.3-1.9,16.5-4.2c0.4-0.2,0.8-0.3,1.2-0.2c1.1,2.3,1.2,4.8,1.1,7.4c0,0.7-0.8,0.8-1.3,1c-2.9,1.1-5.8,1.9-8.8,2.6
		c-8.7,2.3-17.6,2.8-26.6,2.3c-2.1-0.1-4.1-0.3-6.1-0.9C185.5,120.7,185,120.6,184.6,120.1z"></path>
</g>
<g onclick="select(this)" class="" id="estampa-secundaria" fill="#70a83b">
	<path d="M43.1,118.3c0.9-1,0.6-2.3,0.8-3.4c0.4-2.1,0.7-4.2,1-6.3c0.1,0,0.1,0,0.2,0c0.3,1.5,0.6,3,0.8,4.5
		c0.1,0,0.2,0,0.2,0c0.4-2.7,0.8-5.5,1.3-8.2c0.1,0,0.2,0,0.2,0c0.3,1.5,0.6,3.1,0.8,4.6c0.1,0,0.1,0,0.2,0c0.4-2.8,0.9-5.6,1.3-8.3
		c0.1,0,0.1,0,0.2,0c0.3,1.5,0.6,3.1,0.9,4.6c0.1,0,0.2,0,0.2,0c0.4-2.8,0.8-5.6,1.3-8.4c0.5,1.6,0.6,3.2,1.2,4.9
		c0.5-3.1,0.9-5.9,1.4-9.1c0.4,2,0.7,3.6,1,5.3c0.1,0,0.1,0,0.2,0c0.4-2.8,0.9-5.7,1.3-8.5c0.1,0,0.1,0,0.2,0c0.3,1.6,0.6,3.2,0.9,5
		c1.8-6.4,2.8-12.6,1.6-19.1c-0.2,1.5-0.4,2.9-0.6,4.8c-0.4-1.8-0.7-3.2-1-4.7c-0.1,0-0.1,0-0.2,0c-0.4,2.7-0.8,5.3-1.3,8
		c-0.1,0-0.1,0-0.2,0c-0.3-1.4-0.6-2.8-0.9-4.1c-0.1,0-0.1,0-0.2,0c-0.4,2.6-0.9,5.2-1.3,7.8c-0.1,0-0.1,0-0.2,0
		c-0.3-1.4-0.6-2.7-0.9-4.1c-0.1,0-0.1,0-0.2,0c-0.4,2.6-0.8,5.2-1.3,7.7c-0.1,0-0.2,0-0.2,0c-0.3-1.3-0.6-2.7-0.8-4.1
		c-0.1,0-0.1,0-0.2,0c-0.4,2.6-0.9,5.2-1.3,7.8c-0.1,0-0.1,0-0.2,0c-0.3-1.3-0.6-2.7-0.9-4c-0.1,0-0.1,0-0.2,0
		c-0.4,2.6-0.8,5.1-1.3,7.7c-0.1,0-0.1,0-0.2,0c-0.3-1.3-0.6-2.7-0.9-4c-0.1,0-0.1,0-0.2,0c-0.4,2.6-0.8,5.2-1.3,7.8
		c-0.1,0-0.1,0-0.2,0c-0.3-3.1-0.7-6.2-1-9.3c-0.1,0-0.1,0-0.2,0c-0.3,3.1-0.7,6.2-1,9.2c-0.1,0-0.1,0-0.2,0
		c-0.4-2.6-0.8-5.2-1.3-7.8c-0.9,1.5-0.3,3-0.3,4.4c-0.7,0-0.4-0.6-0.5-0.9c-0.5-2.3-0.6-4.6-1.4-6.8c-0.1-0.3-0.1-0.7-0.2-1.1
		c-1.3-3.4-2.3-6.9-3.9-10.2c-1.1-2.2-1.5-4.4-1.7-6.8c-0.3-3.2,0.2-6.4,0.1-9.5c0.4-0.3,0.4-0.7,0.5-1c0.2-1.2,0.4-2.4,0.6-3.6
		c0.1,0,0.1,0,0.2,0c0.4,2.8,0.8,5.6,1.3,8.4c0.1,0,0.2,0,0.2,0c0.3-1.5,0.6-3,0.9-4.5c0.1,0,0.1,0,0.2,0c0.4,2.7,0.8,5.5,1.3,8.2
		c0.1,0,0.2,0,0.2,0c0.3-1.5,0.6-3.1,0.9-4.6c0.1,0,0.1,0,0.2,0.1c0.4,2.8,0.9,5.6,1.3,8.5c0.1,0,0.1,0,0.2,0
		c0.3-1.6,0.6-3.1,0.9-4.7c0.1,0,0.1,0,0.2,0c0.5,3.1,1,6.2,1.4,9.4c0.1,0,0.2,0,0.2,0c0.5-3.1,1-6.3,1.4-9.4c0.1,0,0.1,0,0.2,0
		c0.3,1.5,0.6,3,0.9,4.5c0.1,0,0.1,0,0.2,0c0.4-2.7,0.8-5.5,1.3-8.2c0.1,0,0.2,0,0.2,0c0.3,1.5,0.6,2.9,0.8,4.4c0.1,0,0.2,0,0.2,0
		c0.4-2.7,0.8-5.4,1.3-8.2c0.1,0,0.1,0,0.2,0c0.3,1.5,0.6,3,0.9,4.5c0.1,0,0.1,0,0.2,0c0.4-2.8,0.8-5.6,1.3-8.3c0.1,0,0.1,0,0.2,0
		c0.3,1.6,0.6,3.1,0.8,4.7c0.1,0,0.1,0,0.2,0c0.4-2.8,0.9-5.6,1.3-8.5c0,0,0.1,0,0.2,0c0.3,1.6,0.6,3.1,0.9,4.7c0.1,0,0.1,0,0.2,0
		c0.4-2.7,0.8-5.5,1.3-8.2c0.1,0,0.2,0,0.2,0c0.3,1.5,0.6,3,0.9,4.8c1.8-5.1,2.8-16.8,1.6-19.1c-0.2,1.5-0.4,3-0.6,4.4h-0.1
		c-0.3-1.4-0.6-2.8-0.9-4.1c-0.1,0-0.1,0-0.2,0c-0.4,2.6-0.9,5.2-1.3,7.9c-0.1,0-0.1,0-0.2,0c-0.3-1.4-0.6-2.8-1-4.6
		c-0.5,3-0.9,5.7-1.4,8.3c-0.1,0-0.1,0-0.2,0c-0.3-1.4-0.6-2.8-0.9-4.2c-0.1,0-0.1,0-0.2,0c-0.4,2.6-0.8,5.3-1.3,7.9
		c-0.1,0-0.1,0-0.2,0c-0.3-1.4-0.6-2.7-0.9-4.1c-0.1,0-0.1,0-0.2,0c-0.4,2.6-0.9,5.2-1.3,7.8c-0.1,0-0.1,0-0.2,0
		c-0.3-1.3-0.6-2.7-0.8-4c-0.1,0-0.2,0-0.2,0c-0.4,2.6-0.8,5.2-1.3,7.7c-0.1,0-0.1,0-0.2,0c-0.3-1.3-0.6-2.7-0.9-4
		c-0.1,0-0.1,0-0.2,0c-0.4,2.5-0.8,5.1-1.3,7.6c-0.1,0-0.1,0-0.2,0c-0.3-3-0.6-6-1-9.1c-0.1,0-0.1,0-0.2,0c-0.3,3.1-0.7,6.2-1,9.2
		c0,0-0.1,0-0.2,0c-0.4-2.6-0.8-5.2-1.3-7.8c-0.1,0-0.1,0-0.2,0c-0.3,1.3-0.6,2.7-0.8,4c-0.1,0-0.1,0-0.2,0
		c-0.4-2.6-0.9-5.2-1.3-7.7c-0.1,0-0.2,0-0.2,0c-0.3,1.3-0.6,2.7-0.8,4c-0.1,0-0.1,0-0.2,0c-0.4-2.6-0.8-5.2-1.3-7.8
		c-0.1,0-0.1,0-0.2,0c-0.3,1.3-0.6,2.7-0.8,4c-0.1,0-0.1,0-0.2,0c-0.4-2.6-0.8-5.2-1.3-7.7c-0.1,0-0.2,0-0.2,0
		c-0.3,1.3-0.6,2.7-0.9,4.2c-0.2-0.3-0.3-0.5-0.4-0.7c-0.4-2.4-0.8-4.8-1.2-7.2c0.1-0.5,0-1.1-0.1-1.6c-0.6-2.6-1.6-5.1-1.7-7.8
		c0.1-0.1,0.1-0.1,0.2-0.2c0.8-0.2,1.1,0.2,1.1,0.9c0.2,1.3,0.4,2.7,0.6,4c0.1,0,0.1,0,0.2,0c0.3-1.5,0.6-3.1,0.8-4.6
		c0.1,0,0.1,0,0.2,0c0.4,2.7,0.8,5.4,1.3,8.1c0.1,0,0.2,0,0.3,0c0.3-1.4,0.6-2.8,0.8-4.3c0.3,0.8,0.5,1.6,0.6,2.4
		c0.1,0.5,0,1.2,0.8,1.3c0.7,0.1,0.9-0.5,1.2-0.9c0.7-0.8,0.3-2,0.9-3.1c0.1,0.8,0.2,1.5,0.3,2.1c0,0.3,0.3,0.6,0.5,0.6
		c0.3,0.1,0.3-0.3,0.5-0.6c0.3-0.5,0.3-1.1,0.4-1.7c0.2-1.3,0.4-2.7,0.6-4c0.1,0,0.1,0,0.2,0c0.3,1.5,0.6,3.1,0.8,4.6
		c0.1,0,0.1,0,0.2,0c0.4-2.8,0.9-5.6,1.3-8.4h0.1c0.3,1.6,0.6,3.2,0.9,4.8c0.6-2.6,0.8-5.2,1.8-7.7c0.3,1.4,0.5,2.7,0.8,4
		c0.4-1.4,0.6-2.8,0.8-4.2c0.1-0.7,0.5-1,1.1-1.1c0.7,0,0.4,0.6,0.5,1c0.1,0.2,0,0.5,0.5,0.5c-0.5-1.8,0.7-2.4,2.1-3
		c1.9-0.8,3.7-1.8,5.5-2.7c0.4-0.2,0.9-0.3,0.9-0.9c1.6-0.7,3.1-1.5,4.7-2.2c0.8,1.7,0.5,3.6,1.2,5.5c0.3-1.7,0.6-3.3,0.9-4.8
		c0.1,0,0.1,0,0.2,0c0.4,2.8,0.8,5.6,1.3,8.4c0.1,0,0.1,0,0.2,0c0.3-1.5,0.6-3.1,0.9-4.6c0.5,2,0.8,3.9,1.1,5.8
		c0.1,0.4,0.1,1.1,0.3,1.2c0.5,0.3,0.6-0.4,0.9-0.7c0.3-0.2,0.6,0,0.8-0.2c1.7-0.8,3.8-1.2,4.8-3.1c0.2-0.3,0.5-0.6,0.6-0.5
		c0.9,0.8,1.3-0.3,2-0.5c0.4,2.3,0.7,4.6,1.1,7c0.6-2.8,1.2-5.5,1.4-8.3c0.4-0.6,1-0.3,1.5-0.2c0.6,0,1,0.2,1.3,0.6
		c0.6,0.7,1.3,1.3,2,1.9c2.6,2.3,5.5,4.2,8.4,6.1c0,1.4-0.4,2.7-0.8,4c-0.3-1.4-0.6-2.8-0.9-4.2c-0.1,0-0.1,0-0.2,0
		c-0.4,2.6-0.9,5.2-1.3,7.8c-0.1,0-0.1,0-0.2,0c-0.3-1.3-0.6-2.7-0.9-4c-0.1,0-0.1,0-0.2,0c-0.4,2.6-0.9,5.2-1.3,7.8
		c-0.1,0-0.1,0-0.2,0c-0.3-1.3-0.6-2.7-0.9-4c-0.1,0-0.1,0-0.2,0c-0.4,2.6-0.8,5.1-1.3,7.7c-0.1,0-0.1,0-0.2,0
		c-0.3-1.3-0.6-2.6-0.9-3.9c-0.1,0-0.2,0-0.2,0c-0.4,2.6-0.8,5.1-1.3,7.7c-0.1,0-0.1,0-0.2,0c-0.3-1.3-0.6-2.7-0.8-4
		c-0.1,0-0.1,0-0.2,0c-0.4,2.5-0.8,5.1-1.3,7.6c-0.1,0-0.1,0-0.2,0c-0.3-3-0.6-6-1-9c-0.1,0-0.2,0-0.2,0c-0.3,3-0.6,6-0.9,9
		c-0.1,0-0.1,0-0.2,0c-0.4-2.6-0.8-5.1-1.3-7.7c-0.1,0-0.1,0-0.2,0c-0.3,1.4-0.6,2.7-0.9,4.1c-0.1,0-0.1,0-0.2,0
		c-0.4-2.6-0.9-5.1-1.3-7.7c-0.1,0-0.2,0-0.2,0c-0.3,1.3-0.6,2.6-0.8,3.9c-0.1,0-0.1,0-0.2,0c-0.4-2.6-0.8-5.1-1.2-7.7
		c-0.1,0-0.2,0-0.2,0c-0.3,1.3-0.6,2.7-0.8,4c-0.1,0-0.1,0-0.2,0c-0.4-2.6-0.9-5.1-1.3-7.7c-0.7,1.3-0.6,2.7-1.2,4.2
		c-0.5-2.9-0.9-5.5-1.3-8.1c-0.1,0-0.1,0-0.2,0c-0.3,1.4-0.6,2.8-0.9,4.1c-0.3-0.9-0.5-1.9-0.7-2.8c0-0.3,0-0.7-0.4-0.6
		c-0.9,0.3-1.7,0.7-2.5,1.2c0.1,0.8,0.4,1.4,0.4,1.9c-0.1,4,1.4,7.8,2.2,11.7c0.3-1.6,0.6-3.3,0.9-4.9c0.1,0,0.1,0,0.2,0
		c0.4,2.9,0.9,5.7,1.3,8.6c0.1,0,0.1,0,0.2,0c0.3-1.6,0.6-3.2,0.9-4.8c0.1,0,0.1,0,0.2,0c0.4,2.8,0.9,5.6,1.3,8.3c0.1,0,0.2,0,0.2,0
		c0.3-1.5,0.6-3,0.8-4.5c0.1,0,0.1,0,0.2,0c0.4,2.8,0.8,5.5,1.3,8.3c0.1,0,0.1,0,0.2,0c0.3-1.6,0.6-3.1,0.9-4.7c0.1,0,0.1,0,0.2,0
		c0.4,2.8,0.9,5.6,1.3,8.4c0.1,0,0.2,0,0.2,0c0.3-1.5,0.6-3,0.9-4.6c0.1,0,0.1,0,0.2,0c0.4,2.8,0.9,5.7,1.3,8.5H76
		c0.3-1.6,0.6-3.2,0.9-4.8c0.1,0,0.1,0,0.2,0c0.5,3.1,0.9,6.3,1.4,9.4c0.1,0,0.2,0,0.2,0c0.5-3.1,1-6.2,1.4-9.3c0.1,0,0.1,0,0.2,0
		c0.3,1.5,0.6,3,0.8,4.5c0.1,0,0.1,0,0.2,0c0.4-2.8,0.8-5.6,1.3-8.3c0.1,0,0.1,0,0.2,0c0.3,1.5,0.6,3,0.8,4.5c0.1,0,0.2,0,0.2,0
		c0.4-2.8,0.8-5.5,1.3-8.2c0.1,0,0.1,0,0.2,0c0.3,1.5,0.6,3,0.9,4.5c0.1,0,0.2,0,0.2,0c0.4-2.7,0.8-5.5,1.3-8.2c0.1,0,0.1,0,0.2,0
		c0.3,1.5,0.6,3.1,0.9,4.6c0.1,0,0.1,0,0.2,0c0.4-2.8,0.8-5.6,1.3-8.4c0.1,0,0.1,0,0.2,0c0.3,1.6,0.6,3.1,0.9,4.7c0.1,0,0.1,0,0.2,0
		c0.4-2.8,0.9-5.7,1.3-8.5c0.1,0,0.1,0,0.2,0c0.3,1.6,0.6,3.3,0.9,4.9c0.1-0.1,0.2-0.1,0.2-0.2c0.6-4,2.2-7.9,2-12.1
		c0-0.3,0.1-0.5,0.1-0.8c0.5,0.2,1,0.4,1.4,0.6c3.8,1.7,7.7,2.8,11.8,3.1c0.8,0.3,1.7,0.5,2.6,0.4c0.7-0.1,0.9,0.3,0.9,0.9
		c0.2,1.3,0.4,2.7,0.6,4c0.4-1.3,0.7-2.6,0.8-3.9c0.1-0.9,0.5-1.1,1.2-1c0.9,0.1,1.8,0,2.7-0.3c1.3-0.2,2.5-0.2,3.8-0.5
		c3.1-0.7,6.1-1.8,9-3c0,3,0.7,5.9,1.3,8.8c0.3,1.3,0.6,2.7,0.9,4.1c0.1,0,0.1,0,0.2,0c0.3-1.6,0.6-3.3,0.9-4.9c0.1,0,0.1,0,0.1,0
		c0.4,2.9,0.9,5.7,1.3,8.6c0.1,0,0.1,0,0.1,0c0.3-1.7,0.6-3.3,0.9-5c0.1,0,0.1,0,0.2,0c0.4,2.8,0.8,5.6,1.3,8.4c0.1,0,0.1,0,0.2,0
		c0.3-1.5,0.6-3,0.9-4.5c0.1,0,0.1,0,0.2,0c0.4,2.8,0.9,5.5,1.3,8.3c0.1,0,0.1,0,0.2,0c0.3-1.5,0.6-3,0.9-4.5c0.1,0,0.1,0,0.2,0
		c0.4,2.7,0.8,5.4,1.3,8.2c0.1,0,0.1,0,0.2,0c0.3-1.5,0.6-3,0.9-4.5c0.1,0,0.1,0,0.2,0c0.4,2.8,0.9,5.5,1.3,8.3c0.1,0,0.1,0,0.2,0
		c0.3-1.5,0.6-3.1,0.9-4.6c0.1,0,0.1,0,0.2,0c0.5,3.2,0.9,6.3,1.4,9.5c0.1,0,0.2,0,0.2,0c0.5-3.1,0.9-6.3,1.4-9.4c0.1,0,0.1,0,0.2,0
		c0.3,1.5,0.6,3,0.9,4.6c0.1,0,0.1,0,0.2,0c0.4-2.8,0.9-5.5,1.3-8.3c0.1,0,0.1,0,0.2,0c0.3,1.5,0.6,3,0.9,4.5c0.1,0,0.1,0,0.2,0
		c0.4-2.7,0.8-5.5,1.2-8.2c0.1,0,0.1,0,0.2,0c0.3,1.5,0.6,3,0.9,4.5c0.1,0,0.1,0,0.2,0c0.4-2.7,0.9-5.5,1.3-8.2c0.1,0,0.1,0,0.2,0
		c0.3,1.6,0.6,3.1,0.9,4.7c0.1,0,0.1,0,0.2,0c0.4-2.8,0.9-5.7,1.3-8.5c0.1,0,0.1,0,0.2,0c0.3,1.5,0.6,3.1,0.9,4.7c0.1,0,0.1,0,0.2,0
		c0.4-2.8,0.9-5.6,1.3-8.4h0.1c0.3,1.6,0.6,3.2,0.9,4.9c0.7-2.5,1.2-4.9,1.8-7.3c0.4-1.5,0.5-3.1,0.4-4.6c0-0.4,0.1-0.8-0.4-1
		c-0.9-0.4-1.6-1-2.6-1.2c-0.2,1.2-0.4,2.3-0.6,3.4c-0.1,0-0.1,0-0.2,0c-0.3-1.4-0.6-2.8-0.9-4.2c-0.1,0-0.1,0-0.2,0
		c-0.4,2.6-0.9,5.3-1.3,7.9c-0.1,0-0.1,0-0.2,0c-0.3-1.4-0.6-2.8-0.9-4.2c-0.1,0-0.1,0-0.1,0c-0.4,2.7-0.9,5.3-1.3,8
		c-0.1,0-0.1,0-0.2,0c-0.3-1.4-0.6-2.7-0.9-4.1c-0.1,0-0.1,0-0.2,0c-0.4,2.6-0.8,5.2-1.3,7.7c-0.1,0-0.1,0-0.2,0
		c-0.3-1.3-0.6-2.7-0.9-4c-0.1,0-0.1,0-0.2,0c-0.4,2.6-0.9,5.2-1.3,7.8c-0.1,0-0.1,0-0.2,0c-0.3-1.4-0.6-2.7-0.9-4.1
		c-0.1,0-0.1,0-0.2,0c-0.4,2.6-0.8,5.1-1.3,7.7c-0.1,0-0.1,0-0.2,0c-0.3-3-0.6-6.1-0.9-9.1c-0.1,0-0.2,0-0.3,0c-0.3,3-0.6,6-0.9,9.1
		c-0.1,0-0.1,0-0.2,0c-0.4-2.6-0.9-5.1-1.3-7.7c-0.6,1.3-0.6,2.8-1.2,4.2c-0.5-2.8-0.9-5.4-1.3-8c-0.1,0-0.1,0-0.2,0
		c-0.3,1.3-0.6,2.6-0.8,4c-0.1,0-0.1,0-0.2,0c-0.4-2.6-0.8-5.1-1.3-7.7c-0.6,1.3-0.6,2.8-1.2,4.3c-0.5-2.9-0.9-5.5-1.3-8.2
		c-0.1,0-0.1,0-0.1,0c-0.3,1.4-0.6,2.8-0.9,4.2c-0.3-0.3-0.3-0.6-0.4-0.9c-0.4-2.5-0.8-5-1.3-7.4c3.8-2.3,6.9-5.4,10.4-8
		c0.5-0.1,0.9-0.1,1.1,0.3c0.2,2.8,0.8,5.5,1.2,8.3c0.2-0.2,0.2-0.4,0.2-0.6c0.4-2.1,0.4-4.3,1.1-6.3c0.7,0.4,1.3,0.9,1.3,2.1
		c0.2-0.7,0.1-1.2,0.8-0.8c1.7,1,3.5,2,5.2,3c0.6,0.3,0.8,0.2,0.9-0.5c0.3-2.2,0.6-4.4,1-6.6c0.1,0,0.1,0,0.2,0
		c0.3,1.5,0.6,3.1,0.9,4.6c0.1,0,0.1,0,0.2,0c0.4-2.8,0.9-5.6,1.3-8.4c0.1,0,0.1,0,0.2,0c0.3,1.6,0.6,3.1,0.9,4.7c0.1,0,0.1,0,0.2,0
		c0.3-1.8,0.6-3.5,0.9-5.3c0.9,0.8,2.1,1,3,1.6c0,0.5,0.5,0.5,0.8,0.7c2.7,1.6,5.5,2.8,8.3,4c0.7,0.3,1.1,0.7,1.1,1.5
		c0,0.3,0.1,0.6,0.1,1c0.4-0.2,0.3-0.5,0.4-0.7c0.1-0.3-0.1-0.9,0.4-0.8c0.4,0,1,0.2,1.1,0.8c0.1,0.4,0.1,0.8,0.2,1.2
		c0.2,1.1,0.4,2.2,0.6,3.5c0.5-1.6,0.4-3,1.3-4.3c0.4,2.6,0.8,5.1,1.2,7.7c0.1,0,0.1,0,0.2,0c0.3-1.5,0.6-3.1,0.9-4.6
		c0.1,0,0.1,0,0.2,0c0.4,2.8,0.9,5.5,1.3,8.3c0.1,0,0.1,0,0.2,0c0.3-1.5,0.6-3.1,0.9-4.6c0.1,0,0.1,0,0.2,0c0.4,2.7,0.9,5.4,1.3,8.1
		c0.1,0,0.1,0,0.2,0c0.3-1.5,0.6-2.9,1-4.7c0.2,1.3,0.4,2.3,0.5,3.3c0.1,0.8,0.5,1.5,1.2,1.5c0.6,0,1-0.7,1.1-1.5
		c0.1-1,0.3-1.9,0.4-2.8c0.1,0,0.1,0,0.2,0c0.3,1.5,0.6,3,0.9,4.5c0.1,0,0.1,0,0.2,0c0.4-2.8,0.9-5.5,1.3-8.2c0.1,0,0.1,0,0.2,0
		c0.3,1.5,0.6,3,0.9,4.6c0.4-1.4,0.6-2.7,0.8-4.1c0.1-0.8,0.5-0.9,1-0.5c0.5,0.5,1.3,0.7,1,1.8c-0.3,1.3-0.7,2.6-0.2,4
		c-0.7,1.6-0.4,3.5-1.2,5.1c-1.1-0.3-2.1-0.5-3.4-0.8c0.4,1.5,1.4,2.4,1.9,3.5c0.6,1.3-0.3,2.5-0.5,3.8c-0.3-1.4-0.6-2.8-0.9-4.3
		c-0.1,0-0.1,0-0.2,0c-0.4,2.6-0.9,5.3-1.3,7.9c-0.1,0-0.1,0-0.2,0c-0.3-1.3-0.6-2.7-0.9-4c-0.1,0-0.1,0-0.2,0
		c-0.4,2.6-0.8,5.1-1.3,8c-0.6-1.6-0.5-3-1.2-4.5c-0.5,2.8-0.9,5.4-1.3,8c-0.1,0-0.1,0-0.2,0c-0.3-1.3-0.6-2.7-0.9-4
		c-0.1,0-0.1,0-0.2,0c-0.4,2.5-0.8,5.1-1.2,7.7c-0.1,0-0.1,0-0.2,0c-0.3-3-0.6-6.1-0.9-9.1c-0.1,0-0.1,0-0.2,0
		c-0.3,3.1-0.6,6.1-1,9.2c-0.1,0-0.1,0-0.1,0c-0.4-2.6-0.9-5.2-1.3-7.7c-0.1,0-0.1,0-0.2,0c-0.3,1.4-0.6,2.7-0.9,4.1
		c-0.1,0-0.1,0-0.2,0c-0.4-2.6-0.8-5.2-1.2-7.8c-0.1,0-0.1,0-0.2,0c-0.3,1.3-0.6,2.7-0.9,4c-0.1,0-0.1,0-0.2,0
		c-0.4-2.6-0.9-5.2-1.3-7.8c-0.1,0-0.1,0-0.2,0c-0.3,1.4-0.6,2.7-0.9,4.1c-0.1,0-0.1,0-0.2,0c-0.4-2.6-0.9-5.3-1.3-7.9
		c-0.1,0-0.1,0-0.2,0c-0.3,1.4-0.6,2.8-0.9,4.2c-0.1,0-0.1,0-0.2,0c-0.4-2.6-0.9-5.3-1.3-7.9c-0.1,0-0.1,0-0.2,0
		c-0.3,1.4-0.6,2.8-0.9,4.2c-0.1,0-0.1,0-0.2,0c-0.4-2.6-0.9-5.2-1.3-7.8c-0.1,0-0.1,0-0.2,0c-0.3,1.4-0.6,2.8-0.9,4.2
		c-0.1,0-0.1,0-0.1,0c-0.2-1.5-0.4-2.9-0.6-4.4c-1.4,6.5-0.1,12.7,1.6,19.2c0.3-1.9,0.6-3.5,0.9-5.1c0.1,0,0.1,0,0.2,0
		c0.4,2.8,0.9,5.6,1.3,8.4c0.1,0,0.1,0,0.2,0c0.3-1.6,0.6-3.2,0.9-4.8c0.1,0,0.1,0,0.2,0c0.4,2.7,0.9,5.5,1.3,8.2c0.1,0,0.2,0,0.2,0
		c0.3-1.5,0.6-3,0.8-4.5c0.1,0,0.1,0,0.2,0c0.4,2.8,0.8,5.6,1.3,8.4c0.1,0,0.1,0,0.2,0c0.3-1.5,0.6-3.1,0.9-4.6c0.1,0,0.1,0,0.2,0
		c0.4,2.7,0.8,5.4,1.3,8.2c0.1,0,0.1,0,0.2,0c0.3-1.5,0.6-2.9,0.8-4.4c0.1,0,0.1,0,0.2,0c0.4,2.7,0.8,5.5,1.3,8.2c0.1,0,0.1,0,0.2,0
		c0.3-1.5,0.6-3,0.9-4.6c0.1,0,0.1,0,0.2,0c0.5,3.1,1,6.3,1.4,9.4c0.1,0,0.1,0,0.2,0c0.5-3.1,0.9-6.3,1.4-9.4c0.1,0,0.1,0,0.2,0
		c0.3,1.5,0.6,3,0.9,4.5c0.1,0,0.1,0,0.2,0c0.4-2.8,0.8-5.5,1.3-8.2c0.1,0,0.1,0,0.2,0c0.3,1.5,0.6,3,0.9,4.5c0.1,0,0.1,0,0.2,0
		c0.4-2.7,0.8-5.5,1.3-8.2c0.1,0,0.1,0,0.2,0c0.3,1.5,0.6,3,0.9,4.5c0.1,0,0.1,0,0.2,0c0.4-2.8,0.9-5.5,1.3-8.3c0.1,0,0.1,0,0.2,0
		c0.3,1.6,0.6,3.1,0.9,4.7c0.1,0,0.1,0,0.2,0c0.3-2.1,0.7-4.2,1-6.3c0.2,2-0.1,3.9-0.2,5.9c-0.1,4.7,0,9.4-0.7,14.1
		c-0.4,2.8-1.6,5.3-2.2,7.9c-0.4,1.6-1.4,2.9-1.4,4.6c0,0.4-0.2,0.8-0.4,1.1c-0.5,0.4-1.4,1.4-1.5,1.8c-0.4,2-0.8,4.1-1.2,6.1
		c-0.6-1.3-0.5-2.8-1.2-4.5c-0.5,2.8-0.9,5.3-1.3,7.8c-0.1,0-0.1,0-0.2,0c-0.3-3-0.6-6-0.9-9.1c-0.1,0-0.1,0-0.2,0
		c-0.3,3.1-0.6,6.1-1,9.2c-0.1,0-0.1,0-0.2,0c-0.4-2.6-0.9-5.2-1.3-7.7c-0.1,0-0.1,0-0.2,0c-0.3,1.4-0.6,2.8-0.9,4.1
		c-0.1,0-0.1,0-0.2,0c-0.4-2.6-0.8-5.3-1.3-7.9c-0.1,0-0.1,0-0.2,0c-0.3,1.4-0.6,2.7-0.9,4.1c-0.1,0-0.1,0-0.1,0
		c-0.4-2.6-0.9-5.1-1.3-7.7c-0.1,0-0.1,0-0.2,0c-0.3,1.3-0.6,2.6-0.8,3.9c-0.1,0-0.1,0-0.2,0c-0.4-2.6-0.9-5.2-1.3-7.8
		c-0.1,0-0.1,0-0.2,0c-0.3,1.4-0.6,2.7-0.9,4.1c-0.1,0-0.1,0-0.2,0c-0.4-2.6-0.9-5.2-1.3-7.8c-0.1,0-0.1,0-0.2,0
		c-0.3,1.4-0.6,2.8-0.9,4.2c-0.1,0-0.1,0-0.2,0c-0.4-2.7-0.9-5.3-1.3-8c-0.1,0-0.1,0-0.2,0c-0.3,1.4-0.6,2.8-0.9,4.1
		c-0.1,0-0.1,0-0.1,0c-0.2-1.4-0.4-2.8-0.6-4.3c-1.4,6.5,0,12.7,1.6,19.2c0.4-1.9,0.7-3.6,1-5.2c0.1,0,0.1,0,0.2,0
		c0.4,2.8,0.9,5.6,1.3,8.5c0.5-1.6,0.7-3.1,1.3-4.6c0.4,2.8,0.9,5.5,1.3,8.3c0.1,0,0.1,0,0.2,0c0.3-1.5,0.6-3,0.9-4.5
		c0.1,0,0.1,0,0.2,0c0.4,2.7,0.8,5.5,1.3,8.2c0.1,0,0.1,0,0.2,0c0.3-1.5,0.6-3,0.9-4.5c0.1,0,0.1,0,0.2,0c0.4,2.8,0.8,5.5,1.3,8.3
		c0.1,0,0.1,0,0.2,0c0.3-1.5,0.6-3.1,0.9-4.6c0.1,0,0.1,0,0.2,0c0.4,2.7,0.8,5.5,1.2,8.2c0.1,0,0.2,0,0.2,0c0.3-1.5,0.6-3,0.9-4.6
		c0.1,0,0.1,0,0.2,0c0.5,3.2,1,6.3,1.4,9.5c0.6-2.9,1.1-5.7,1.5-8.5c0.1-0.4-0.1-1.1,0.7-0.8c-0.1,0.3-0.2,0.7-0.1,1
		c0.1,1.1-0.8,2.1,0,3.2c-0.4,0.2-0.4,0.6-0.4,0.9c-0.3,2.1-3,25.8-3,25.2c-0.4-2.1-0.7-4.1-1-6.2c-0.1,0-0.1,0-0.2,0
		c-0.3,1.4-0.6,2.8-0.8,4.1c-0.1,0-0.1,0-0.2,0c-0.4-2.6-0.8-5.2-1.3-7.7c-0.1,0-0.1,0-0.2,0c-0.3,1.3-0.6,2.6-0.9,3.9
		c-0.1,0-0.1,0-0.2,0c-0.4-2.5-0.8-5.1-1.3-7.6c-0.1,0-0.1,0-0.2,0c-0.3,1.3-0.6,2.6-0.9,3.9c-0.1,0-0.1,0-0.2,0
		c-0.4-2.6-0.9-5.2-1.3-7.7c-0.1,0-0.1,0-0.2,0c-0.3,1.4-0.6,2.7-0.9,4.1c-0.1,0-0.1,0-0.2,0c-0.4-2.6-0.9-5.2-1.3-7.8
		c-0.1,0-0.1,0-0.1,0c-0.3,1.4-0.6,2.8-0.9,4.2c-0.1,0-0.1,0-0.2-0.1c-0.4-2.6-0.9-5.2-1.3-7.8c-0.1,0-0.1,0-0.2,0
		c-0.3,1.4-0.6,2.8-0.9,4.2h-0.1c-0.2-1.5-0.4-2.9-0.6-4.4c-1.4,6.5-0.1,12.7,1.6,19.2c0.4-1.9,0.6-3.6,0.9-5.2c0.1,0,0.1,0,0.2,0
		c0.4,2.8,0.9,5.6,1.3,8.4c0.1,0,0.1,0,0.2,0c0.3-1.6,0.6-3.1,0.9-4.7c0.1,0,0.1,0,0.2,0.1c0.4,2.8,0.9,5.5,1.3,8.3
		c0.1,0,0.1,0,0.2,0c0.3-1.5,0.6-3,0.8-4.5c0.1,0,0.1,0,0.2,0c0.4,2.7,0.8,5.5,1.3,8.2c0.1,0,0.2,0,0.2,0c0.3-1.5,0.6-3,0.9-4.5
		c0.1,0,0.1,0,0.2,0c0.4,2.8,0.9,5.5,1.3,8.3c0.1,0,0.2,0,0.2,0c0.3-1.5,0.6-3,0.8-4.5c0.1,0,0.1,0,0.2,0c0.4,2.7,0.8,5.5,1.3,8.2
		c0.1,0,0.2,0,0.2,0c0.3-1.5,0.6-3,0.9-4.8c0.1,0.2,0,1.9,0.2,4.2c0.1,1.4,0.6,2.8,0.6,4.6c0,2.4-0.5,5.2-0.6,7.7
		c0,1.3,0.1,2.7,0.1,3.9c-0.1,5.3-0.3,9.6-0.3,9.5c-0.3-1.8-0.6-3.6-0.9-5.4c-0.1,0-0.1,0-0.2,0c-0.3,1.4-0.6,2.7-0.9,4
		c-0.1,0-0.1,0-0.2,0c-0.4-2.6-0.8-5.1-1.3-7.7c-0.1,0-0.1,0-0.2,0c-0.3,1.4-0.6,2.7-0.9,4.1c-0.1,0-0.1,0-0.2,0
		c-0.4-2.6-0.9-5.2-1.3-7.8c-0.1,0-0.1,0-0.2,0c-0.3,1.4-0.6,2.7-0.9,4.1c-0.1,0-0.1,0-0.2,0c-0.4-2.6-0.9-5.3-1.3-7.9
		c-0.1,0-0.1,0-0.2,0c-0.3,1.4-0.6,2.8-0.9,4.2c-0.1,0-0.1,0-0.2,0c-0.4-2.7-0.9-5.3-1.3-8c-0.1,0-0.1,0-0.1,0
		c-0.3,1.4-0.6,2.9-0.9,4.4c-0.1,0-0.1,0-0.2-0.1c-0.4-2.7-0.9-5.3-1.3-8c-0.1,0-0.1,0-0.2,0c-0.3,1.4-0.6,2.8-0.9,4.2
		c-0.1,0-0.1,0-0.1,0c-0.2-1.5-0.4-2.9-0.6-4.4c-1.4,6.5,0,12.8,1.6,19.3c0.4-1.9,0.6-3.6,0.9-5.2c0.1,0,0.1,0,0.2,0
		c0.4,2.8,0.9,5.7,1.3,8.5c0.1,0,0.1,0,0.2,0c0.3-1.6,0.6-3.2,0.9-4.8c0.1,0,0.1,0,0.2,0c0.4,2.8,0.9,5.6,1.3,8.4c0.1,0,0.1,0,0.2,0
		c0.3-1.5,0.6-3.1,0.9-4.6c0.1,0,0.1,0,0.2,0c0.4,2.8,0.8,5.6,1.3,8.3c0.1,0,0.1,0,0.2,0c0.3-1.5,0.6-3,0.9-4.5c0.1,0,0.1,0,0.2,0
		c0.4,2.8,0.9,5.5,1.3,8.3c0.1,0,0.1,0,0.2,0c0.3-1.5,0.6-3,0.9-4.6c0.1,0,0.1,0,0.2,0c0.4,2.7,0.8,5.5,1.2,8.2c0.1,0,0.1,0,0.2,0
		c0.3-1.5,0.6-3,0.9-4.7c0.2,0.5,0.2,0.8,0.3,1.1c0,0,0.6,7,1.8,14.2c0.8,4.7,0.1,10.7,0.1,10.6c-0.2-1-0.2-2-0.6-2.9
		c-0.3,3.1-0.6,6.1-1,9.2c-0.1,0-0.1,0-0.2,0c-0.4-2.6-0.9-5.1-1.3-7.7c-0.1,0-0.1,0-0.2,0c-0.3,1.4-0.6,2.7-0.9,4.1
		c-0.1,0-0.1,0-0.2,0c-0.4-2.6-0.8-5.1-1.3-7.7c-0.6,1.4-0.6,2.8-1.2,4.3c-0.5-2.8-0.9-5.3-1.3-7.9c-0.6,1.3-0.6,2.7-1.2,4.2
		c-0.5-2.9-0.9-5.5-1.3-8.1c-0.1,0-0.1,0-0.2,0c-0.3,1.4-0.6,2.8-0.9,4.1c-0.1,0-0.1,0-0.2,0c-0.4-2.6-0.9-5.2-1.3-7.8
		c-0.1,0-0.1,0-0.2,0c-0.3,1.4-0.6,2.8-0.9,4.2c-0.1,0-0.1,0-0.2,0c-0.4-2.7-0.9-5.3-1.3-8c-0.1,0-0.1,0-0.2,0
		c-0.3,1.4-0.6,2.8-0.9,4.1c-0.1,0-0.1,0-0.2,0c-0.2-1.4-0.4-2.8-0.6-4.2c-1.4,6.5,0,12.7,1.6,19.2c0.4-1.9,0.6-3.6,0.9-5.2
		c0.1,0,0.1,0,0.2,0c0.4,2.8,0.9,5.6,1.3,8.5c0.1,0,0.1,0,0.2,0c0.3-1.6,0.6-3.1,0.9-4.7c0.1,0,0.1,0,0.2,0c0.4,2.7,0.9,5.5,1.3,8.2
		c0.1,0,0.1,0,0.2,0c0.3-1.5,0.6-3.1,0.9-4.6c0.1,0,0.1,0,0.2,0c0.4,2.8,0.9,5.6,1.3,8.3c0.1,0,0.1,0,0.2,0c0.3-1.5,0.6-3,0.9-4.5
		c0.1,0,0.1,0,0.2,0c0.4,2.8,0.8,5.5,1.3,8.3c0.1,0,0.1,0,0.2,0c0.3-1.5,0.6-3.1,0.9-4.6c0.1,0,0.1,0,0.2,0c0.4,2.7,0.8,5.5,1.2,8.2
		c0.1,0,0.1,0,0.2,0c0.3-1.5,0.6-3,0.9-4.5c0.1,0,0.1,0,0.1,0c0.5,3.2,1,6.3,1.5,9.5c0.7-1.9,0.6-4,1.2-5.9
		c1.2,4.6,0.8,9.3,0.2,13.9c-0.2,1.4-0.1,2.8,0.2,4.1c0.4,1.8,0.5,6.2,0.4,6.5c-0.2,1.3-0.4,2.7-0.6,4c-0.1,0-0.1,0-0.2,0
		c-0.3-3-0.6-6.1-0.9-9.1c-0.1,0-0.1,0-0.2,0c-0.3,3.1-0.6,6.1-1,9.2c-0.1,0-0.1,0-0.1,0c-0.4-2.6-0.9-5.2-1.3-7.7
		c-0.1,0-0.1,0-0.2,0c-0.3,1.3-0.6,2.7-0.9,4c-0.1,0-0.1,0-0.2,0c-0.4-2.6-0.8-5.1-1.2-7.7c-0.1,0-0.1,0-0.2,0
		c-0.3,1.4-0.6,2.7-0.9,4.1c-0.1,0-0.1,0-0.1,0c-0.4-2.6-0.9-5.2-1.3-7.8c-0.1,0-0.1,0-0.2,0c-0.3,1.4-0.6,2.7-0.9,4.1
		c-0.1,0-0.1,0-0.2,0c-0.4-2.6-0.9-5.3-1.3-7.9c-0.1,0-0.1,0-0.2,0c-0.3,1.4-0.6,2.8-0.9,4.2c-0.1,0-0.1,0-0.1,0
		c-0.4-2.6-0.9-5.3-1.3-7.9c-0.1,0-0.1,0-0.2,0c-0.3,1.4-0.6,2.8-0.9,4.2c-0.1,0-0.1,0-0.2-0.1c-0.4-2.6-0.9-5.2-1.3-7.9
		c-0.1,0-0.1,0-0.2,0c-0.3,1.4-0.6,2.8-0.9,4.2c-0.2-0.8-0.3-1.5-0.4-2.3c-0.1-0.7-0.2-1.4-0.3-2.1c-1.4,6.5-0.1,12.7,1.6,19.2
		c0.4-2,0.7-3.6,1-5.2c0.1,0,0.1,0,0.1,0c0.4,2.8,0.9,5.7,1.3,8.5c0.1,0,0.1,0,0.2,0c0.3-1.6,0.6-3.1,0.9-4.7c0.1,0,0.1,0,0.2,0
		c0.4,2.8,0.9,5.6,1.3,8.4c0.1,0,0.1,0,0.2,0c0.3-1.6,0.6-3.1,0.9-4.7c0.1,0,0.1,0,0.2,0c0.4,2.8,0.8,5.6,1.3,8.3c0.1,0,0.1,0,0.2,0
		c0.3-1.5,0.6-3,0.9-4.6c0.1,0,0.1,0,0.2,0c0.4,2.7,0.8,5.4,1.3,8.1c0.1,0,0.1,0,0.2,0c0.3-1.5,0.6-2.9,0.9-4.4c0.1,0,0.1,0,0.2,0
		c0.4,2.7,0.8,5.5,1.3,8.2c0.1,0,0.1,0,0.2,0c0.3-1.5,0.6-3,0.9-4.5c0.1,0,0.1,0,0.2,0c0.5,3.1,0.9,6.3,1.4,9.4c0.1,0,0.1,0,0.2,0
		c0.5-3.1,0.9-6.3,1.4-9.4c0.4,1.1,0.5,2.1,0.8,3.1c0.1,0.2,1.3,10.4,1.4,15.2c0,2.2-1.7,2.1-3.7,2.9c0,0-6.7,1.3-6.8,1
		c0-0.1-0.1-0.3-0.1-0.5c-0.3-1.6-0.5-3.2-0.8-4.8c-0.1,0-0.1,0-0.2,0c-0.3,1.4-0.6,2.7-0.9,4.1c-0.1,0-0.1,0-0.2,0
		c-0.4-2.6-0.8-5.2-1.3-7.8c-0.1,0-0.1,0-0.2,0c-0.3,1.4-0.6,2.8-0.9,4.2c-0.1,0-0.1,0-0.2,0c-0.4-2.6-0.9-5.3-1.3-8
		c-0.1,0-0.1,0-0.1,0c-0.3,1.5-0.6,2.9-0.9,4.3c-0.1,0-0.1,0-0.2,0c-0.4-2.6-0.9-5.3-1.3-8c-0.1,0-0.1,0-0.2,0
		c-0.3,1.4-0.6,2.8-0.9,4.2c-0.1,0-0.1,0-0.1,0c-0.2-1.5-0.4-2.9-0.6-4.6c-0.5,1-0.6,1.7-0.6,2.5c0,2.5-0.2,5.1,0.1,7.5
		s1,4.8,1.6,7.2c0,0.1,0.1,0.3,0.1,0.4c0.1,0.3-11.2,0.6-11.2,0.3c0.2-2.4,0.7-4.6,1.2-7c0.3,1.6,0.6,3.1,0.9,4.7c0.1,0,0.1,0,0.2,0
		c0.4-2.8,0.9-5.7,1.3-8.5c0.1,0,0.1,0,0.2,0c0.3,1.6,0.6,3.2,0.9,4.8c0.1,0,0.1,0,0.1,0c0.4-2.8,0.9-5.6,1.3-8.5c0.1,0,0.1,0,0.2,0
		c0.3,1.6,0.6,3.1,0.9,5c2-6.6,2.9-17,1.6-19.1c-0.2,1.5-0.4,2.9-0.5,4.3c-0.1,0-0.1,0-0.2,0c-0.3-1.4-0.6-2.8-0.9-4.2
		c-0.1,0-0.1,0-0.2,0c-0.4,2.6-0.9,5.2-1.3,7.8c-0.1,0-0.1,0-0.2,0c-0.3-1.4-0.6-2.8-0.9-4.1c-0.1,0-0.1,0-0.2,0
		c-0.4,2.7-0.9,5.3-1.3,8c-0.1,0-0.1,0-0.2,0c-0.3-1.4-0.6-2.8-0.9-4.2c-0.1,0-0.1,0-0.2,0c-0.4,2.6-0.9,5.2-1.3,7.8
		c-0.1,0-0.1,0-0.2,0c-0.3-1.4-0.6-2.7-0.9-4c-0.1,0-0.1,0-0.2,0c-0.4,2.6-0.8,5.2-1.3,7.7c-0.1,0-0.1,0-0.2,0
		c-0.3-1.3-0.6-2.6-0.9-3.9c-0.1,0-0.1,0-0.2,0c-0.4,2.6-0.9,5.1-1.3,7.7c-0.1,0-0.1,0-0.2,0c-0.3-1.4-0.6-2.7-0.9-4
		c-0.1,0-0.1,0-0.2,0c-0.4,2.6-0.8,5.1-1.3,7.7c-0.1,0-0.1,0-0.2,0c-0.3-3-0.6-6.1-0.9-9.1c-0.1,0-0.2,0-0.3,0
		c-0.3,3.1-0.6,6.2-0.9,9.2c-0.1,0-0.1,0-0.2,0c-0.4-2.6-0.9-5.2-1.3-8.1c-0.6,1.7-0.5,3.1-1.2,4.6c-0.5-2.8-0.9-5.4-1.3-8
		c-0.1,0-0.1,0-0.2,0c-0.3,1.4-0.6,2.7-0.9,4c-0.1,0-0.1,0-0.2,0c-0.4-2.6-0.9-5.3-1.3-7.9c-0.6,1.3-0.6,2.8-1.2,4.3
		c-0.5-2.9-0.9-5.5-1.3-8.1c-0.1,0-0.1,0-0.2,0c-0.3,1.4-0.6,2.8-0.9,4.1c-0.1,0-0.1,0-0.2,0c-0.4-2.7-0.9-5.3-1.3-8
		c-0.5,1.4-0.6,2.9-1.2,4.4c-0.5-2.9-0.9-5.5-1.3-8.1c-0.1,0-0.1,0-0.2,0c-0.3,1.4-0.6,2.9-0.9,4.3c-0.1,0-0.1,0-0.2,0
		c-0.2-1.5-0.4-3-0.5-4.5c-1.4,6.5-0.1,12.8,1.6,19.2c0.3-1.9,0.6-3.5,0.9-5.1c0.1,0,0.1,0,0.2,0c0.4,2.8,0.9,5.7,1.3,8.5
		c0.1,0,0.1,0,0.2,0c0.3-1.6,0.6-3.3,0.9-4.9c0.1,0,0.1,0,0.2,0c0.4,2.8,0.8,5.6,1.3,8.4c0.1,0,0.1,0,0.2,0c0.3-1.5,0.6-3,0.9-4.6
		c0.1,0,0.1,0,0.2,0c0.4,2.7,0.8,5.3,1.2,8c-2.5,0.4-5,0.2-7.5,0.3c-0.5,0-1,0-1.6,0c-2.6,0-2.6,0.1-2-2.5c0.5-2.4,1.2-4.7,1.5-7.1
		c0.3-2.5,0.1-5.1,0.1-7.7c0-0.6-0.2-1.1-0.6-1.9c-0.3,1.7-0.2,3.1-0.7,4.6c-0.3-1.6-0.6-2.9-0.9-4.2c-0.1,0-0.1,0-0.2,0
		c-0.4,2.6-0.9,5.3-1.3,7.9c-0.1,0-0.1,0-0.2,0c-0.3-1.4-0.6-2.8-0.9-4.2c-0.1,0-0.1,0-0.2,0c-0.4,2.6-0.9,5.3-1.3,7.9
		c-0.1,0-0.1,0-0.2,0c-0.3-1.4-0.6-2.8-0.9-4.2c-0.1,0-0.1,0-0.2,0c-0.4,2.6-0.9,5.2-1.3,7.9c-0.1,0-0.1,0-0.2,0
		c-0.3-1.4-0.6-2.8-0.9-4.1c-0.1,0-0.1,0-0.2,0c-0.4,2.6-0.8,5.2-1.3,7.8c-0.4,0.3-0.6-0.1-0.8-0.2c-0.2-0.1-0.4-0.4-0.6-0.1
		c-0.5,0.9-1.3,0.5-2.1,0.5c-2,0-4.1,0-6.1,0c-0.2,0-0.6,0.1-0.7,0c-0.8-0.7-1.6-0.7-2.4-0.2c-0.4-2.5-0.7-5-1.1-7.6
		c-0.1,0-0.2,0-0.3,0c-0.3,1.3-0.6,2.6-0.9,3.9c-0.1,0-0.1,0-0.2,0c-0.4-2.6-0.8-5.2-1.3-7.8c-0.1,0-0.1,0-0.2,0
		c-0.3,1.4-0.6,2.9-0.9,4.3c-0.1,0-0.1,0-0.2,0c-0.4-2.6-0.9-5.2-1.3-7.9c-0.1,0-0.1,0-0.2,0c-0.3,1.4-0.6,2.8-0.9,4.2
		c-0.1,0-0.1,0-0.2,0c-0.4-2.7-0.9-5.3-1.3-8c-0.1,0-0.1,0-0.2,0c-0.3,1.4-0.6,2.8-0.9,4.3c-0.1,0-0.1,0-0.2,0
		c-0.2-1.4-0.3-2.9-0.5-4.5c-0.6,1.2-0.5,1.2-0.6,2.1c-0.3,5,0.3,9.9,1.5,14.7c0.2,0.8,0.5,1.6,0.2,1.6c-1.1,0-11.2-0.1-11.2-0.3
		c0.4-2.3,0.7-4.8,1.1-7.1c0.1,0,0.1,0,0.2,0c0.3,1.5,0.6,3.1,0.9,4.6c0.1,0,0.1,0,0.2,0c0.4-2.8,0.9-5.6,1.3-8.4c0.1,0,0.1,0,0.2,0
		c0.3,1.6,0.6,3.2,0.9,4.8c0.1,0,0.1,0,0.2,0c0.4-2.8,0.9-5.6,1.3-8.5c0.1,0,0.1,0,0.2,0c0.3,1.6,0.6,3.1,1,5
		c1.7-6.5,3-12.7,1.6-19.1c-0.2,1.4-0.4,2.9-0.6,4.3c-0.1,0-0.1,0-0.2,0c-0.3-1.4-0.6-2.8-0.9-4.2c-0.1,0-0.1,0-0.2,0
		c-0.4,2.6-0.9,5.2-1.3,7.9c-0.1,0-0.1,0-0.2,0c-0.3-1.4-0.6-2.8-0.9-4.2c-0.1,0-0.1,0-0.2,0c-0.4,2.6-0.9,5.3-1.3,7.9
		c-0.1,0-0.1,0-0.2,0c-0.3-1.4-0.6-2.8-0.9-4.1c-0.1,0-0.1,0-0.2,0c-0.4,2.6-0.9,5.2-1.3,7.9c-0.1,0-0.1,0-0.2,0
		c-0.3-1.4-0.6-2.7-0.9-4.1c-0.1,0-0.1,0-0.2,0c-0.4,2.6-0.9,5.2-1.3,7.8c-0.1,0-0.1,0-0.2,0c-0.3-1.3-0.6-2.7-0.9-4
		c-0.1,0-0.2,0-0.2,0c-0.4,2.6-0.8,5.2-1.3,7.7c-0.1,0-0.1,0-0.2,0c-0.3-1.4-0.6-2.7-0.9-4c-0.1,0-0.1,0-0.2,0
		c-0.4,2.6-0.9,5.2-1.3,7.8h-0.1c-0.3-3.1-0.7-6.1-1-9.2c-0.1,0-0.2,0-0.2,0c-0.3,3-0.6,6-0.9,9.1c-0.1,0-0.2,0-0.2,0
		c-0.4-2.6-0.8-5.1-1.2-7.7c-0.1,0-0.1,0-0.2,0c-0.3,1.4-0.6,2.7-0.9,4.1c-0.1,0-0.1,0-0.2,0c-0.4-2.6-0.8-5.1-1.3-7.7
		c-0.1,0-0.2,0-0.2,0c-0.3,1.3-0.6,2.6-0.8,4c-0.1,0-0.2,0-0.2,0c-0.4-2.5-0.8-5.1-1.3-7.7c-0.1,0-0.2,0-0.2,0
		c-0.3,1.3-0.6,2.6-0.8,3.9c-0.1,0-0.1,0-0.2,0c-0.4-2.5-0.8-5.1-1.3-7.6c-0.1,0-0.2,0-0.2,0c-0.3,1.3-0.6,2.6-0.8,3.9
		c-0.1,0-0.1,0-0.2,0c-0.4-2.6-0.9-5.2-1.3-7.8c-0.1,0-0.1,0-0.2,0c-0.3,1.4-0.6,2.7-0.9,4.1c-0.1,0-0.1,0-0.2,0
		c-0.4-2.6-0.8-5.2-1.3-7.8c-0.1,0-0.1,0-0.2,0c-0.3,1.4-0.6,2.8-0.9,4.2c-0.1,0-0.1,0-0.2,0c-0.2-1.4-0.3-2.8-0.5-4.3
		c-1.2,6.5-0.2,12.7,1.6,19c0.3-1.7,0.7-3.4,1-5c0.1,0,0.1,0,0.2,0c0.4,2.8,0.9,5.6,1.3,8.5c0.1,0,0.1,0,0.2,0
		c0.3-1.6,0.6-3.2,0.9-4.8c0.1,0,0.1,0,0.2,0c0.4,2.8,0.9,5.5,1.3,8.3c0.1,0,0.2,0,0.2,0c0.3-1.5,0.6-3,0.9-4.5
		c0.5,2.1,0.8,4.1,1.2,6.2c0,0.2,0.2,0.6,0.1,0.6c-0.5,0.1-10.8-0.4-11.2-0.5c-0.4-0.1,0.2-0.8,0.3-1.2c0.4-2.3,1.2-4.5,1.3-6.8
		c0.1-2.4,0-4.9,0-7.3c0-0.6,0-1.2-0.5-1.8c-0.2,1.5-0.4,2.9-0.6,4.3c0,0-0.1,0-0.2,0c-0.3-1.4-0.6-2.8-0.9-4.1c-0.1,0-0.1,0-0.2,0
		c-0.4,2.6-0.8,5.2-1.3,7.9c-0.1,0-0.1,0-0.2,0c-0.3-1.4-0.6-2.7-0.9-4.1c0,0-0.1,0-0.2,0c-0.4,2.6-0.9,5.2-1.3,7.8
		c-0.1,0-0.1,0-0.2,0c-0.3-1.4-0.6-2.8-0.9-4.2c-0.1,0-0.1,0-0.2,0c-0.4,2.6-0.8,5.3-1.3,7.9c-0.1,0-0.1,0-0.2,0
		c-0.3-1.4-0.6-2.7-0.9-4.1c-0.1,0-0.1,0-0.2,0c-0.3,1.7,0.9,4.6-0.7,4.8c-0.3,0-5.2-0.7-7.6-1.8c-1.2-0.5-1.2-2-1.1-3.2
		c0.3-3.8,0.8-14.2,0.9-13.6c0.3,2.1,0.6,4.2,0.9,6.2c0.1,0,0.2,0,0.2,0c0.5-3.1,1-6.3,1.5-9.4c0.1,0,0.1,0,0.2,0
		c0.3,1.5,0.6,3,0.8,4.5c0.1,0,0.1,0,0.2,0c0.4-2.8,0.8-5.6,1.3-8.4c0.1,0,0.1,0,0.2,0c0.3,1.6,0.6,3.1,0.9,4.7c0.1,0,0.1,0,0.2,0
		c0.4-2.8,0.9-5.6,1.3-8.5c0,0,0.1,0,0.2,0c0.3,1.6,0.6,3.1,0.9,4.7c0.1,0,0.2,0,0.2,0c0.4-2.8,0.8-5.6,1.3-8.4c0.1,0,0.1,0,0.2,0
		c0.3,1.6,0.6,3.1,0.9,4.7c0.1,0,0.1,0,0.2,0c0.4-2.8,0.9-5.6,1.3-8.5c0,0,0.1,0,0.2,0c0.3,1.6,0.6,3.3,0.9,4.9c0,0,0.1,0,0.2,0
		c0.4-2.7,0.8-5.4,1.2-8.2c0.1,0,0.2,0,0.3,0c0.3,1.5,0.6,3,0.9,4.7c1.9-6.1,2.8-17.2,1.6-19.1c-0.2,1.5-0.4,3-0.6,4.4h-0.1
		c-0.3-1.4-0.6-2.8-0.9-4.2c-0.1,0-0.1,0-0.2,0c-0.4,2.6-0.8,5.3-1.3,7.9c-0.1,0-0.1,0-0.2,0c-0.3-1.4-0.6-2.8-0.9-4.2h-0.1
		c-0.4,2.7-0.9,5.3-1.3,8c0,0-0.1,0-0.2,0c-0.3-1.4-0.6-2.7-0.9-4.1c-0.1,0-0.2,0-0.2,0c-0.4,2.5-0.8,5.1-1.3,7.6
		c-0.1,0-0.2,0-0.2,0c-0.3-1.3-0.6-2.6-0.8-3.9c-0.1,0-0.1,0-0.2,0c-0.4,2.5-0.8,5.1-1.3,7.6c-0.1,0-0.2,0-0.2,0
		c-0.3-1.3-0.6-2.6-0.8-3.9c-0.1,0-0.2,0-0.2,0.1c-0.4,2.6-0.8,5.1-1.3,7.7c-0.1,0-0.1,0-0.2,0c-0.3-1.3-0.6-2.7-0.8-4
		c-0.1,0-0.1,0-0.2,0c-0.4,2.6-0.8,5.1-1.3,7.6c-0.1,0-0.1,0-0.2,0c-0.3-3-0.6-6.1-1-9.1c-0.1,0-0.1,0-0.2,0c-0.1,0.6,0,2.5-0.2,1.9
		c-0.1-0.5,0-2,0.2-4c0.2-2.2,0.6-5.1,0.3-7.8c-0.5-4.4,0.5-8.5,0.6-9.3c0.2-1.3,0.4-2.5,0.6-3.7c0.1,0,0.1,0,0.2,0
		c0.3,1.5,0.6,3,0.8,4.5c0.1,0,0.2,0,0.2,0c0.4-2.7,0.8-5.5,1.3-8.2c0.5,1.5,0.6,3.1,1.2,4.8c0.5-3.1,0.9-5.8,1.3-8.6
		c0,0,0.1,0,0.2,0c0.3,1.5,0.6,3,0.9,4.5c0.1,0,0.2,0,0.2,0c0.4-2.7,0.8-5.5,1.2-8.2c0.1,0,0.2,0,0.2,0c0.3,1.6,0.6,3.1,0.9,4.7
		c0,0,0.1,0,0.2,0c0.4-2.8,0.9-5.6,1.3-8.4c0.1,0,0.1,0,0.2,0c0.3,1.6,0.6,3.1,0.9,4.7c0.1,0,0.1,0,0.2,0c0.4-2.9,0.9-5.7,1.3-8.6
		c0,0,0.1,0,0.2,0c0.3,1.6,0.6,3.3,0.9,5.1c1.9-5.1,2.9-17.2,1.6-18.9c-0.2,1.5-0.4,2.9-0.6,4.3h-0.1c-0.3-1.4-0.6-2.9-0.9-4.4
		c-0.1,0-0.1,0-0.2,0c-0.4,2.6-0.8,5.3-1.3,7.9c-0.1,0-0.2,0-0.2,0c-0.3-1.4-0.6-2.7-0.9-4.1c0,0-0.1,0-0.2,0
		c-0.4,2.6-0.9,5.2-1.3,7.8c-0.1,0-0.1,0-0.2,0c-0.3-1.4-0.6-2.7-0.9-4.1c-0.1,0-0.1,0-0.2,0c-0.4,2.6-0.8,5.1-1.2,7.7
		c-0.1,0-0.2,0-0.2,0c-0.3-1.4-0.6-2.7-0.9-4.1c0,0-0.1,0-0.2,0c-0.4,2.6-0.9,5.2-1.3,7.8c-0.1,0-0.1,0-0.2,0
		c-0.3-1.4-0.6-2.7-0.9-4.1c-0.1,0-0.1,0-0.2,0c-0.4,2.6-0.8,5.2-1.3,7.8c-0.1,0-0.1,0-0.2,0c-0.3-1.3-0.6-2.6-0.9-4
		c-0.1,0-0.1,0-0.2,0c-0.4,2.6-0.8,5.1-1.3,7.6c-0.3-1.5-0.5-3.1-0.7-4.6c0-0.4-0.1-0.7-0.1-1.1c-0.1-0.6,0-4.2,2.7-12
		c0.9-2.8,0.1-3.4,0.3-4.9c0.6-5.6,0.1-10.8,0.1-11.2c0.1-0.7,0.2-1.3,0.3-2c0.1,0,0.2,0,0.2,0c0.3,1.5,0.6,3.1,0.8,4.6
		c0.1,0,0.1,0,0.2,0c0.4-2.8,0.9-5.6,1.3-8.3c0.1,0,0.1,0,0.2,0c0.3,1.5,0.6,3,0.9,4.6c0.1,0,0.1,0,0.2,0c0.4-2.8,0.8-5.6,1.3-8.4
		c0.1,0,0.1,0,0.2,0c0.3,1.6,0.6,3.1,0.9,4.7c0.1,0,0.1,0,0.2,0c0.4-2.8,0.9-5.6,1.3-8.4c0,0,0.1,0,0.2,0c0.3,1.6,0.6,3.3,0.9,4.9
		c0.1,0,0.1,0,0.2,0c0.4-2.9,0.8-5.7,1.3-8.6c0.1,0,0.1,0,0.2,0c0.3,1.6,0.6,3.3,0.9,5.1c1.9-6.2,2.9-17.4,1.6-19.1
		c-0.2,1.4-0.4,2.9-0.6,4.3c0,0-0.1,0-0.2,0c-0.3-1.4-0.6-2.8-0.9-4.2c-0.1,0-0.1,0-0.2,0c-0.4,2.6-0.8,5.2-1.3,7.8
		c-0.1,0-0.2,0-0.2,0c-0.3-1.4-0.6-2.8-0.9-4.2c0,0-0.1,0-0.2,0c-0.4,2.7-0.9,5.3-1.3,8c0,0-0.1,0-0.2,0c-0.3-1.4-0.6-2.7-0.9-4.1
		c-0.1,0-0.2,0-0.2,0c-0.4,2.6-0.8,5.1-1.2,7.7c-0.1,0-0.1,0-0.2,0c-0.3-1.3-0.6-2.7-0.9-4c-0.1,0-0.1,0-0.2,0
		c-0.4,2.6-0.8,5.1-1.3,7.7c-0.1,0-0.1,0-0.2,0c-0.3-1.4-0.6-2.7-0.9-4.1c-0.1,0-0.1,0-0.2,0c-0.4,2.6-0.7,5.1-1.2,7.7
		c-0.1,0-0.4-29.4,0.1-32.2c0.1,0,0.1,0,0.2,0c0.3,1.5,0.6,3,0.8,4.6c0.1,0,0.2,0,0.2,0c0.4-2.8,0.8-5.5,1.3-8.3c0,0,0.1,0,0.2,0
		c0.3,1.5,0.6,3,0.9,4.6c0.1,0,0.2,0,0.2,0c0.4-2.7,0.8-5.4,1.2-8.1c0.1,0,0.2,0,0.2,0c0.3,1.5,0.6,3,0.9,4.5c0,0,0.1,0,0.2,0
		c0.4-2.8,0.9-5.6,1.3-8.5c0,0,0.1,0,0.2,0c0.3,1.6,0.6,3.1,0.9,4.7c0.1,0,0.1,0,0.2,0c0.4-2.8,0.9-5.7,1.3-8.5c0.1,0,0.1,0,0.2,0
		c0.3,1.6,0.6,3.3,0.9,5c1.8-4.5,2.9-16.9,1.7-19c-0.2,1.5-0.4,3-0.6,4.8c-0.4-1.7-0.7-3.1-1-4.6c-0.1,0-0.1,0-0.2,0
		c-0.4,2.6-0.8,5.3-1.3,7.9c-0.1,0-0.1,0-0.2,0c-0.3-1.4-0.6-2.8-0.9-4.2h-0.1c-0.4,2.7-0.9,5.3-1.3,8c0,0-0.1,0-0.2,0
		c-0.3-1.4-0.6-2.8-0.9-4.2c-0.1,0-0.1,0-0.2,0c-0.4,2.6-0.8,5.2-1.3,7.9c-0.1,0-0.1,0-0.2,0c-0.3-1.4-0.6-2.7-0.9-4.1
		c-0.1,0-0.1,0-0.2,0c-0.4,2.6-0.8,5.1-1.3,7.6c-0.1,0-0.1,0-0.2,0c-0.3-1.4-0.6-2.7-0.9-4.1c-0.1,0-0.1,0-0.2,0
		c-0.4,2.6-0.7,5.3-1.2,7.9C45.1,136.9,43.2,119,43.1,118.3z M100.6,136.8C100.7,136.8,100.7,136.8,100.6,136.8
		c0.4-1.6,0.7-3.2,1-4.8c0.1,0,0.1,0,0.2,0c0.4,2.8,0.8,5.6,1.3,8.3c0.1,0,0.2,0,0.2,0c0.3-1.5,0.6-3,0.9-4.5c0.1,0,0.1,0,0.2,0
		c0.4,2.8,0.8,5.5,1.3,8.3c0.1,0,0.1,0,0.2,0c0.3-1.5,0.6-3,0.9-4.6c0.1,0,0.1,0,0.2,0c0.4,2.7,0.8,5.5,1.2,8.2c0.1,0,0.2,0,0.2,0
		c0.3-1.5,0.6-3,0.9-4.6c0.1,0,0.1,0,0.2,0c0.4,2.8,0.9,5.5,1.3,8.2c0.1,0,0.2,0,0.2,0c0.3-1.5,0.6-3,0.8-4.5c0.1,0,0.1,0,0.2,0
		c0.5,3.1,0.9,6.3,1.4,9.4c0.1,0,0.2,0,0.2,0c0.5-3.1,0.9-6.2,1.4-9.4c0.1,0,0.1,0,0.2,0c0.3,1.5,0.6,3,0.9,4.6c0.1,0,0.1,0,0.2,0
		c0.4-2.8,0.8-5.6,1.3-8.3c0.1,0,0.1,0,0.2,0c0.3,1.5,0.6,3,0.8,4.5c0.1,0,0.1,0,0.2,0c0.4-2.7,0.8-5.5,1.3-8.2c0.1,0,0.2,0,0.2,0
		c0.3,1.5,0.6,3,0.8,4.5c0.1,0,0.1,0,0.2-0.1c0.4-2.8,0.9-5.5,1.3-8.3c0.1,0,0.1,0,0.2,0c0.3,1.5,0.6,3,0.8,4.5c0.1,0,0.2,0,0.2,0
		c0.4-2.8,0.8-5.6,1.3-8.4c0.1,0,0.1,0,0.2,0c0.3,1.6,0.6,3.2,0.9,4.7c0.1,0,0.1,0,0.2,0c0.4-2.8,0.9-5.7,1.3-8.5h0.1
		c0.3,1.6,0.6,3.3,1,5.2c1.7-6.5,2.9-12.7,1.6-19.2c-0.2,1.5-0.3,3-0.5,4.4c-0.1,0-0.1,0-0.2,0c-0.3-1.5-0.6-2.9-0.9-4.4
		c-0.1,0-0.1,0-0.1,0c-0.4,2.7-0.9,5.3-1.3,8c-0.1,0-0.1,0-0.2,0c-0.3-1.4-0.6-2.8-0.9-4.3c-0.1,0-0.1,0-0.2,0
		c-0.4,2.6-0.9,5.2-1.3,7.9c-0.1,0-0.1,0-0.2,0c-0.3-1.4-0.6-2.8-0.9-4.5c-0.5,3-0.9,5.6-1.4,8.3c-0.1,0-0.1,0-0.2,0
		c-0.3-1.4-0.6-2.7-0.9-4.1c-0.1,0-0.1,0-0.2,0c-0.4,2.6-0.9,5.1-1.3,7.7c-0.1,0-0.1,0-0.2,0c-0.3-1.3-0.6-2.6-0.8-3.9
		c-0.1,0-0.1,0-0.2,0c-0.4,2.6-0.8,5.2-1.3,7.7c-0.1,0-0.1,0-0.2,0c-0.3-1.4-0.6-2.7-0.9-4.1c-0.1,0-0.1,0-0.2,0
		c-0.4,2.6-0.8,5.1-1.3,7.6c-0.1,0-0.1,0-0.2,0c-0.3-3-0.6-6-0.9-9.1c-0.1,0-0.2,0-0.3,0c-0.3,3-0.6,6.1-0.9,9.1c-0.1,0-0.2,0-0.2,0
		c-0.4-2.6-0.8-5.1-1.3-7.7c-0.1,0-0.1,0-0.2,0c-0.3,1.4-0.6,2.7-0.9,4c-0.1,0-0.1,0-0.2-0.1c-0.4-2.5-0.8-5.1-1.3-7.6
		c-0.1,0-0.2,0-0.2,0c-0.3,1.3-0.6,2.6-0.8,3.9c-0.1,0-0.1,0-0.2,0c-0.4-2.6-0.8-5.1-1.2-7.7c-0.6,1.3-0.6,2.7-1.2,4.2
		c-0.5-2.8-0.9-5.4-1.3-7.9c-0.1,0-0.1,0-0.2,0c-0.3,1.3-0.6,2.7-0.9,4.1c-0.1,0-0.1,0-0.2,0c-0.4-2.6-0.9-5.3-1.3-7.9
		c-0.1,0-0.1,0-0.2,0c-0.3,1.4-0.6,2.8-0.9,4.2c-0.1,0-0.1,0-0.2,0c-0.4-2.6-0.9-5.2-1.3-7.8c-0.1,0-0.1,0-0.2,0
		c-0.3,1.4-0.6,2.8-0.8,4.2c-0.1,0-0.1,0-0.2,0c-0.2-1.5-0.3-2.9-0.5-4.6c-1.3,2.7-0.3,14.7,1.6,19.1c0.3-1.7,0.6-3.3,0.9-4.9
		c0.1,0,0.1,0,0.2,0C99.7,131.1,100.2,133.9,100.6,136.8z M149.8,206.5c-0.1,0-0.1,0-0.2,0c-0.3-3.1-0.6-6.1-0.9-9.2
		c-0.1,0-0.2,0-0.3,0c-0.3,3.1-0.6,6.1-0.9,9.2c-0.1,0-0.1,0-0.2,0c-0.4-2.6-0.8-5.1-1.3-8c-0.6,1.5-0.5,3-1.2,4.5
		c-0.5-2.8-0.9-5.3-1.3-7.9c-0.1,0-0.1,0-0.2,0c-0.3,1.3-0.6,2.6-0.8,4c-0.1,0-0.1,0-0.2,0c-0.4-2.6-0.9-5.2-1.3-7.8
		c-0.6,1.3-0.6,2.8-1.2,4.2c-0.5-2.8-0.9-5.4-1.3-8c-0.1,0-0.1,0-0.2,0c-0.3,1.4-0.6,2.8-0.9,4.2c-0.1,0-0.1,0-0.2,0
		c-0.4-2.6-0.9-5.3-1.3-7.9c-0.6,1.4-0.6,2.9-1.2,4.4c-0.5-2.8-0.9-5.5-1.3-8.2c-0.1,0-0.1,0-0.1,0c-0.3,1.4-0.6,2.9-0.9,4.3
		c-0.1,0-0.1,0-0.2,0c-0.2-1.4-0.3-2.9-0.5-4.4c-1.4,2.4-0.2,15.2,1.6,19c0.3-1.7,0.6-3.3,0.9-4.9c0.1,0,0.1,0,0.2,0
		c0.4,2.8,0.9,5.6,1.3,8.5c0.1,0,0.1,0,0.2,0c0.3-1.6,0.6-3.2,0.9-4.8c0.1,0,0.1,0,0.2,0c0.4,2.7,0.8,5.5,1.2,8.2c0.1,0,0.2,0,0.3,0
		c0.3-1.5,0.6-3,0.9-4.5c0.1,0,0.1,0,0.1,0c0.4,2.8,0.9,5.6,1.3,8.3c0.1,0,0.1,0,0.2,0c0.3-1.5,0.6-3,0.9-4.5c0.1,0,0.1,0,0.2,0
		c0.4,2.8,0.8,5.5,1.3,8.3c0.1,0,0.1,0,0.2,0c0.3-1.5,0.6-3,0.9-4.5c0.1,0,0.1,0,0.2,0c0.4,2.7,0.8,5.5,1.3,8.2c0.1,0,0.1,0,0.2,0
		c0.3-1.5,0.6-3,0.9-4.5c0.1,0,0.1,0,0.2,0c0.5,3.1,0.9,6.2,1.4,9.4c0.1,0,0.2,0,0.3,0c0.5-3.1,0.9-6.3,1.4-9.4c0.1,0,0.1,0,0.2,0
		c0.3,1.5,0.6,3.1,0.9,4.6c0.1,0,0.1,0,0.2,0c0.4-2.8,0.9-5.5,1.3-8.3c0.1,0,0.1,0,0.2,0c0.3,1.6,0.6,3.1,0.9,4.7c0.1,0,0.1,0,0.2,0
		c0.4-2.8,0.8-5.6,1.3-8.4c0.1,0,0.1,0,0.2,0c0.3,1.5,0.6,3,0.9,4.6c0.1,0,0.1,0,0.2,0c0.4-2.8,0.9-5.5,1.3-8.3c0.1,0,0.1,0,0.2,0
		c0.3,1.6,0.6,3.1,0.9,4.7c0.1,0,0.1,0,0.2,0c0.4-2.8,0.8-5.6,1.3-8.4c0.1,0,0.1,0,0.2,0c0.3,1.6,0.6,3.1,0.9,4.7c0.1,0,0.1,0,0.1,0
		c0.4-2.8,0.9-5.6,1.3-8.4c0.1,0,0.1,0,0.2,0c0.3,1.6,0.6,3.2,0.9,5.1c1.7-6.4,2.9-12.7,1.9-19.1c-0.1,0-0.2,0-0.3,0
		c-0.2,1.4-0.3,2.8-0.5,4.3c-0.1,0-0.1,0-0.2,0c-0.3-1.4-0.6-2.8-0.9-4.2c-0.1,0-0.1,0-0.2,0c-0.4,2.6-0.9,5.3-1.3,7.9
		c-0.1,0-0.1,0-0.2,0c-0.3-1.4-0.6-2.8-0.9-4.1c-0.1,0-0.1,0-0.2,0c-0.4,2.6-0.9,5.3-1.3,7.9c-0.1,0-0.1,0-0.2,0
		c-0.3-1.4-0.6-2.8-0.9-4.2c-0.1,0-0.1,0-0.2,0c-0.4,2.6-0.9,5.3-1.4,8.3c-0.4-1.7-0.7-3-1-4.4c-0.1,0-0.1,0-0.2,0
		c-0.4,2.6-0.8,5.1-1.3,7.7c-0.1,0-0.1,0-0.2,0c-0.3-1.4-0.6-2.7-0.9-4.1c-0.1,0-0.1,0-0.2,0c-0.4,2.6-0.9,5.1-1.3,7.7
		c-0.1,0-0.1,0-0.2,0c-0.3-1.3-0.6-2.6-0.9-3.9c-0.1,0-0.1,0-0.2,0C150.7,201.4,150.2,203.9,149.8,206.5z M106.7,101.2
		c0.1,0,0.1,0,0.2,0c0.4,2.8,0.8,5.6,1.3,8.4c0.1,0,0.1,0,0.2,0c0.3-1.5,0.6-3,0.9-4.5c0.1,0,0.1,0,0.2,0c0.4,2.7,0.8,5.4,1.3,8.1
		c0.1,0,0.2,0,0.2,0c0.3-1.5,0.6-2.9,0.8-4.4c0.1,0,0.2,0,0.2,0c0.5,3.1,0.9,6.3,1.4,9.4c0.1,0,0.2,0,0.2,0c0.5-3.2,0.9-6.3,1.4-9.5
		c0.1,0,0.1,0,0.2,0c0.3,1.5,0.6,3,0.8,4.6c0.1,0,0.2,0,0.2,0c0.4-2.8,0.9-5.6,1.3-8.3c0.1,0,0.1,0,0.2,0c0.3,1.5,0.6,3.1,0.8,4.6
		c0.1,0,0.1,0,0.2,0c0.4-2.7,0.8-5.4,1.3-8.2c0.1,0,0.2,0,0.2,0c0.3,1.5,0.6,3,0.8,4.4c0.1,0,0.1,0,0.2,0c0.4-2.8,0.9-5.6,1.3-8.4
		h0.1c0.3,1.5,0.6,3,0.9,4.6c0.1,0,0.2,0,0.3,0c0.4-2.7,0.8-5.5,1.2-8.2c0.1,0,0.1,0,0.2,0c0.3,1.6,0.6,3.1,0.9,4.7
		c0.1,0,0.1,0,0.2,0c0.4-2.8,0.9-5.7,1.3-8.5c0.1,0,0.1,0,0.1,0c0.3,1.7,0.6,3.3,0.9,5.1c1.9-4.8,3-17,1.6-19.1
		c-0.2,1.5-0.4,2.9-0.5,4.3c-0.1,0-0.1,0-0.2,0c-0.3-1.4-0.6-2.8-0.9-4.1c-0.1,0-0.1,0-0.2,0c-0.4,2.7-0.9,5.3-1.3,7.9
		c-0.1,0-0.1,0-0.2,0c-0.3-1.4-0.6-2.8-0.9-4.2c-0.1,0-0.1,0-0.2,0c-0.4,2.6-0.9,5.3-1.3,7.9c-0.1,0-0.1,0-0.2,0
		c-0.3-1.4-0.6-2.8-0.9-4.2c-0.1,0-0.1,0-0.2,0c-0.4,2.7-0.9,5.3-1.3,8c-0.1,0-0.1,0-0.2,0c-0.3-1.4-0.6-2.7-0.8-4.1
		c-0.1,0-0.2,0-0.2,0c-0.4,2.6-0.9,5.1-1.3,7.7c-0.1,0-0.1,0-0.2,0c-0.3-1.3-0.6-2.7-0.8-4c-0.1,0-0.1,0-0.2,0
		c-0.4,2.6-0.8,5.1-1.3,7.7c-0.1,0-0.2,0-0.2,0c-0.3-1.3-0.6-2.6-0.8-3.9c-0.1,0-0.1,0-0.2,0c-0.4,2.5-0.8,5.1-1.3,7.6
		c-0.1,0-0.1,0-0.2,0c-0.3-3-0.6-6-0.9-9.1c-0.1,0-0.2,0-0.3,0c-0.3,3-0.6,6.1-0.9,9.1c-0.1,0-0.1,0-0.2,0c-0.4-2.6-0.8-5.1-1.3-7.7
		c-0.1,0-0.1,0-0.2,0c-0.3,1.3-0.6,2.7-0.9,4c-0.1,0-0.1,0-0.2,0c-0.4-2.6-0.8-5.2-1.3-7.8c-0.1,0-0.1,0-0.2,0
		c-0.3,1.3-0.6,2.7-0.9,4.1c-0.1,0-0.1,0-0.2,0c-0.4-2.6-0.8-5.2-1.3-7.7c-0.1,0-0.2,0-0.2,0c-0.3,1.3-0.6,2.7-0.9,4
		c-0.1,0-0.1,0-0.2,0c-0.4-2.6-0.9-5.3-1.3-7.9c-0.1,0-0.1,0-0.2,0c-0.3,1.4-0.6,2.8-0.9,4.2c-0.1,0-0.1,0-0.2,0
		c-0.4-2.6-0.8-5.3-1.3-7.9c-0.1,0-0.1,0-0.2,0c-0.3,1.4-0.6,2.8-0.9,4.2c-0.1,0-0.1,0-0.2,0c-0.4-2.6-0.9-5.3-1.3-7.9
		c-0.1,0-0.1,0-0.2,0c-0.3,1.4-0.6,2.8-0.9,4.2c-0.1,0-0.1,0-0.2,0c-0.2-1.4-0.3-2.9-0.5-4.3c-1.3,3.3-0.3,13.8,1.6,19
		c0.3-1.8,0.7-3.4,0.9-5c0.1,0,0.1,0,0.1,0c0.4,2.8,0.9,5.6,1.3,8.5c0.1,0,0.1,0,0.2,0c0.3-1.5,0.6-3.1,0.9-4.6c0.1,0,0.1,0,0.2,0
		c0.4,2.8,0.8,5.6,1.3,8.3c0.1,0,0.1,0,0.2,0c0.3-1.6,0.6-3.1,0.9-4.7c0.1,0,0.1,0,0.2,0c0.4,2.8,0.9,5.5,1.3,8.3c0.1,0,0.2,0,0.2,0
		C106.1,104.2,106.4,102.7,106.7,101.2z M64,232.1c0.1,0,0.1,0,0.2,0.1c0.4,2.8,0.8,5.6,1.3,8.4c0.1,0,0.1,0,0.2,0
		c0.3-1.6,0.6-3.1,0.9-4.7c0.1,0,0.1,0,0.2,0c0.4,2.8,0.9,5.6,1.3,8.4c0.1,0,0.1,0,0.2,0c0.3-1.5,0.6-3,0.9-4.6c0.1,0,0.1,0,0.2,0
		c0.4,2.8,0.8,5.5,1.3,8.3c0.1,0,0.1,0,0.2,0c0.3-1.5,0.6-3,0.9-4.4c0.1,0,0.1,0,0.2,0c0.4,2.7,0.8,5.4,1.3,8.2c0.1,0,0.2,0,0.2,0
		c0.3-1.5,0.6-3,0.8-4.6c0.1,0,0.1,0,0.2,0c0.4,2.8,0.9,5.5,1.3,8.3c0.1,0,0.1,0,0.2,0c0.3-1.5,0.6-3,0.9-4.6c0.1,0,0.2,0,0.2,0
		c0.5,3.1,0.9,6.2,1.4,9.4c0.1,0,0.2,0,0.2,0c0.5-3.2,1-6.3,1.4-9.5c0.1,0,0.1,0,0.2,0c0.3,1.5,0.6,3,0.9,4.5c0.1,0,0.2,0,0.2,0
		c0.4-2.7,0.8-5.5,1.3-8.2c0.1,0,0.1,0,0.2,0c0.3,1.5,0.6,3.1,0.9,4.6c0.1,0,0.1,0,0.2,0c0.4-2.8,0.8-5.5,1.3-8.3c0.1,0,0.1,0,0.2,0
		c0.3,1.5,0.6,3,0.9,4.5c0.1,0,0.2,0,0.2,0c0.4-2.7,0.8-5.4,1.2-8.2c0.1,0,0.1,0,0.2,0c0.3,1.6,0.6,3.1,0.9,4.6c0.1,0,0.1,0,0.2,0
		c0.4-2.8,0.9-5.6,1.3-8.4c0.1,0,0.1,0,0.2,0c0.3,1.6,0.6,3.1,0.9,4.7c0.1,0,0.1,0,0.2,0c0.4-2.8,0.9-5.7,1.3-8.5c0.1,0,0.1,0,0.1,0
		c0.3,1.6,0.6,3.3,0.9,5c1.9-3.5,3.1-16.8,1.7-19c-0.2,1.5-0.4,3-0.6,4.8c-0.4-1.7-0.7-3.1-0.9-4.5c-0.1,0-0.1,0-0.2,0
		c-0.4,2.6-0.8,5.2-1.3,7.8c-0.6-1.4-0.6-2.8-1.2-4.3c-0.5,2.8-0.9,5.4-1.3,8c-0.1,0-0.1,0-0.2,0c-0.3-1.3-0.6-2.7-0.8-4
		c-0.1,0-0.1,0-0.2,0c-0.4,2.6-0.8,5.1-1.3,7.7c-0.6-1.3-0.6-2.7-1.2-4.1c-0.5,2.8-0.9,5.3-1.3,7.9c-0.1,0-0.1,0-0.2,0
		c-0.3-1.3-0.6-2.6-0.8-3.9c-0.1,0-0.2,0-0.2,0c-0.4,2.5-0.8,5.1-1.3,7.6c-0.6-1.3-0.6-2.7-1.2-4.1c-0.5,2.8-0.9,5.3-1.3,7.8
		c-0.1,0-0.1,0-0.2,0c-0.3-3-0.6-6-0.9-9c-0.1,0-0.2,0-0.2,0c-0.3,3-0.6,6.1-0.9,9.1c-0.1,0-0.1,0-0.2,0c-0.4-2.6-0.8-5.1-1.3-7.7
		c-0.1,0-0.1,0-0.2,0c-0.3,1.4-0.6,2.7-0.9,4.1c-0.1,0-0.1,0-0.2,0c-0.4-2.6-0.8-5.2-1.3-7.8c-0.1,0-0.1,0-0.2,0
		c-0.3,1.4-0.6,2.7-0.9,4.1c-0.1,0-0.1,0-0.2,0c-0.4-2.6-0.8-5.2-1.3-7.8c-0.1,0-0.1,0-0.2,0c-0.3,1.4-0.6,2.7-0.9,4.1
		c-0.1,0-0.1,0-0.2,0c-0.4-2.6-0.8-5.2-1.3-7.8c-0.1,0-0.1,0-0.2,0c-0.3,1.4-0.6,2.7-0.8,4.1c-0.1,0-0.1,0-0.2-0.1
		c-0.4-2.6-0.8-5.2-1.3-7.8c-0.1,0-0.1,0-0.2,0c-0.3,1.4-0.6,2.8-0.9,4.1c-0.1,0-0.1,0-0.2,0c-0.4-2.6-0.9-5.2-1.3-7.9
		c-0.1,0-0.1,0-0.2,0c-0.3,1.4-0.6,2.7-0.8,4.1c-0.3-0.8-0.4-1.5-0.5-2.2s0-1.4-0.5-2.3c-0.9,6.6,0,12.9,1.9,19.3
		C63.4,235.3,63.7,233.7,64,232.1z M100.6,251.5c0.1,0,0.1,0,0.2,0c0.3-1.6,0.6-3.2,0.9-4.7c0.1,0,0.1,0,0.2,0
		c0.4,2.8,0.8,5.6,1.3,8.4c0.1,0,0.2,0,0.2,0c0.3-1.5,0.6-3,0.9-4.5c0.1,0,0.1,0,0.2,0c0.4,2.8,0.8,5.5,1.3,8.3c0.1,0,0.1,0,0.2,0
		c0.3-1.5,0.6-3,0.9-4.6c0.1,0,0.1,0,0.2,0c0.4,2.7,0.8,5.5,1.2,8.2c0.1,0,0.2,0,0.2,0c0.3-1.5,0.6-3,0.9-4.5c0.1,0,0.1,0,0.2,0
		c0.4,2.8,0.8,5.5,1.3,8.3c0.1,0,0.1,0,0.2,0c0.3-1.5,0.6-3,0.8-4.5c0.1,0,0.1,0,0.2,0c0.5,3.1,0.9,6.3,1.4,9.4c0.1,0,0.2,0,0.2,0
		c0.5-3.1,0.9-6.2,1.4-9.7c0.6,1.8,0.6,3.4,1.2,4.9c0.4-2.8,0.9-5.6,1.3-8.4c0.1,0,0.1,0,0.2,0c0.3,1.5,0.6,3,0.8,4.6
		c0.1,0,0.2,0,0.2,0c0.4-2.7,0.8-5.5,1.3-8.2c0.1,0,0.1,0,0.2,0c0.3,1.5,0.6,3,0.9,4.6c0.1,0,0.1,0,0.2,0c0.4-2.8,0.8-5.6,1.3-8.3
		c0.1,0,0.1,0,0.2,0c0.3,1.5,0.6,3,0.9,4.6c0.1,0,0.2,0,0.2,0c0.4-2.8,0.8-5.6,1.3-8.4c0.1,0,0.1,0,0.2,0c0.3,1.6,0.6,3.3,0.9,5h0.1
		c0.4-2.9,0.9-5.8,1.3-8.6h0.1c0.3,1.6,0.6,3.3,1,5.2c1.7-6.5,2.9-12.7,1.6-19.2c-0.2,1.5-0.4,3-0.5,4.5c-0.1,0-0.1,0-0.1,0
		c-0.3-1.4-0.6-2.8-0.9-4.2c-0.1,0-0.1,0-0.2,0c-0.4,2.6-0.8,5.2-1.3,7.8c-0.1,0-0.1,0-0.2,0c-0.3-1.4-0.6-2.8-0.9-4.3
		c-0.1,0-0.1,0-0.2,0.1c-0.4,2.6-0.8,5.2-1.3,7.9c-0.1,0-0.2,0-0.2,0c-0.3-1.4-0.6-2.7-0.8-4.1c-0.1,0-0.1,0-0.2,0
		c-0.4,2.6-0.8,5.2-1.3,7.8c-0.1,0-0.1,0-0.2,0c-0.3-1.4-0.6-2.7-0.9-4.1c-0.1,0-0.1,0-0.2,0c-0.4,2.6-0.9,5.2-1.3,7.8
		c-0.1,0-0.1,0-0.2,0c-0.3-1.3-0.6-2.7-0.8-4c-0.1,0-0.2,0-0.2,0c-0.4,2.6-0.8,5.1-1.3,8c-0.6-1.7-0.5-3.1-1.2-4.6
		c-0.5,2.8-0.9,5.3-1.3,7.9c-0.1,0-0.1,0-0.2,0c-0.3-3-0.6-6.1-0.9-9.1c-0.1,0-0.2,0-0.2,0c-0.3,3.1-0.6,6.2-0.9,9.3
		c-0.1,0-0.1,0-0.2,0c-0.4-2.6-0.8-5.2-1.3-7.8c-0.1,0-0.1,0-0.2,0c-0.3,1.3-0.6,2.7-0.9,4c-0.1,0-0.1,0-0.2,0
		c-0.4-2.6-0.8-5.2-1.3-7.8c-0.1,0-0.1,0-0.2,0c-0.3,1.4-0.6,2.8-0.9,4.2c-0.1,0-0.1,0-0.2,0c-0.4-2.6-0.8-5.2-1.3-7.9
		c-0.1,0-0.1,0-0.2,0c-0.3,1.3-0.6,2.7-0.9,4c-0.1,0-0.1,0-0.2,0c-0.4-2.6-0.8-5.2-1.3-7.8c-0.1,0-0.1,0-0.2,0
		c-0.3,1.4-0.6,2.7-0.9,4.1c-0.1,0-0.1,0-0.2,0c-0.4-2.6-0.9-5.3-1.3-7.9c-0.1,0-0.1,0-0.2,0c-0.3,1.4-0.6,2.8-0.9,4.2
		c-0.1,0-0.1,0-0.2,0c-0.4-2.6-0.9-5.2-1.3-7.9c-0.1,0-0.1,0-0.2,0c-0.3,1.4-0.6,2.8-0.9,4.2c-0.1,0-0.1,0-0.2-0.1
		c-0.2-1.5-0.3-3-0.5-4.4c-1.3,6.5-0.2,12.7,1.6,19.3c0.4-1.9,0.5-3.5,1.1-5.4C99.7,245.9,100.2,248.7,100.6,251.5z M137.4,76.8
		c-0.1,0-0.1,0-0.2,0c-0.4-2.6-0.9-5.2-1.3-7.8c-0.1,0-0.1,0-0.2,0c-0.3,1.4-0.6,2.7-0.9,4.1c-0.1,0-0.1,0-0.2,0
		c-0.4-2.6-0.9-5.2-1.3-7.8c-0.1,0-0.1,0-0.1,0c-0.3,1.4-0.6,2.8-0.9,4.2c-0.1,0-0.1,0-0.2,0c-0.2-1.5-0.4-2.9-0.6-4.4
		c-1.3,6.5-0.1,12.7,1.6,19.2c0.4-1.9,0.7-3.5,1-5.1c0.1,0,0.1,0,0.2,0c0.4,2.8,0.9,5.6,1.3,8.5c0.1,0,0.1,0,0.2,0
		c0.3-1.5,0.6-3,0.9-4.6c0.1,0,0.2,0,0.2,0c0.4,2.7,0.8,5.4,1.3,8c0.1,0,0.1,0,0.2,0c0.3-1.5,0.6-3,0.9-4.5c0.1,0,0.1,0,0.2,0
		c0.4,2.8,0.9,5.5,1.3,8.3c0.1,0,0.1,0,0.2,0c0.3-1.5,0.6-3,0.9-4.6c0.1,0,0.1,0,0.2,0c0.4,2.8,0.8,5.5,1.3,8.3c0.1,0,0.1,0,0.2,0
		c0.3-1.5,0.6-3,0.9-4.5c0.1,0,0.1,0,0.2,0c0.4,2.7,0.9,5.5,1.3,8.2c0.6-1.5,0.6-3.1,1.2-4.8c0.5,3.4,1,6.5,1.4,9.7
		c0.1,0,0.2,0,0.2,0c0.5-3.1,0.9-6.3,1.4-9.4c0.1,0,0.1,0,0.2,0c0.3,1.5,0.6,3.1,0.9,4.6c0.1,0,0.1,0,0.2,0c0.4-2.8,0.9-5.5,1.3-8.3
		c0.1,0,0.1,0,0.2,0c0.3,1.5,0.6,3,0.8,4.5c0.1,0,0.2,0,0.2,0c0.4-2.8,0.9-5.5,1.3-8.3c0.1,0,0.1,0,0.2,0c0.3,1.5,0.6,3,0.9,4.6
		c0.1,0,0.1,0,0.2,0c0.4-2.8,0.9-5.5,1.3-8.3c0.1,0,0.1,0,0.2,0c0.3,1.6,0.6,3.1,0.9,4.7c0.1,0,0.1,0,0.2,0c0.4-2.8,0.9-5.7,1.3-8.5
		c0.1,0,0.1,0,0.2,0c0.3,1.6,0.6,3.2,0.9,4.8c0.1,0,0.1,0,0.1,0c0.4-2.8,0.9-5.6,1.3-8.5c0.1,0,0.1,0,0.2,0c0.3,1.6,0.6,3.2,1,5.1
		c2.7-9.9,2.5-16.7,1.6-19.4c-0.2,1.7-0.4,3.1-0.5,4.6c-0.5-1.4-0.7-2.8-1.2-4.5c-0.5,3-0.9,5.6-1.4,8.3c-0.1,0-0.1,0-0.1,0
		c-0.3-1.4-0.6-2.8-0.9-4.2c-0.1,0-0.1,0-0.2,0c-0.4,2.6-0.9,5.2-1.3,7.8c-0.1,0-0.1,0-0.2,0c-0.3-1.4-0.6-2.8-0.9-4.2
		c-0.1,0-0.1,0-0.2,0c-0.4,2.6-0.9,5.2-1.3,8c-0.6-1.5-0.5-2.9-1.2-4.4c-0.5,2.9-0.9,5.4-1.3,8c-0.5-1.4-0.6-2.8-1.2-4.4
		c-0.5,2.9-0.9,5.5-1.3,8.1c-0.1,0-0.1,0-0.1,0c-0.3-1.4-0.6-2.8-0.9-4.2c-0.1,0-0.1,0-0.2,0c-0.4,2.6-0.8,5.1-1.3,7.7
		c-0.1,0-0.1,0-0.2,0c-0.3-3-0.6-6.1-0.9-9.1c-0.1,0-0.2,0-0.3,0c-0.3,3.1-0.6,6.1-0.9,9.2c-0.1,0-0.1,0-0.2,0
		c-0.4-2.6-0.8-5.2-1.3-7.7c-0.1,0-0.1,0-0.2,0c-0.3,1.3-0.6,2.7-0.9,4c-0.1,0-0.1,0-0.2-0.1c-0.4-2.5-0.8-5.1-1.3-7.6
		c-0.1,0-0.1,0-0.2,0c-0.3,1.3-0.6,2.7-0.8,4c-0.1,0-0.1,0-0.2,0c-0.4-2.6-0.9-5.2-1.3-7.8c-0.1,0-0.1,0-0.2,0
		c-0.3,1.4-0.6,2.7-0.9,4.1c-0.1,0-0.1,0-0.2-0.1c-0.4-2.6-0.9-5.2-1.3-7.7c-0.1,0-0.1,0-0.2,0C138,74.1,137.7,75.5,137.4,76.8z
		 M96.6,152.2c-1.2,2.9-0.4,12.6,1.6,19.3c0.5-1.8,0.5-3.4,1.1-5.1c0.5,3,0.9,5.8,1.3,8.6c0.1,0,0.1,0,0.2,0
		c0.3-1.6,0.6-3.1,0.9-4.6c0.1,0,0.1,0,0.2,0c0.4,2.8,0.8,5.6,1.3,8.4c0.1,0,0.1,0,0.2,0c0.3-1.6,0.6-3.1,0.9-4.7c0.1,0,0.1,0,0.2,0
		c0.4,2.8,0.9,5.5,1.3,8.3c0.1,0,0.1,0,0.2,0c0.3-1.5,0.6-3.1,0.9-4.6c0.1,0,0.1,0,0.2,0c0.4,2.7,0.8,5.5,1.3,8.2c0.1,0,0.2,0,0.2,0
		c0.3-1.5,0.6-3,0.9-4.5c0.1,0,0.1,0,0.2,0c0.4,2.7,0.8,5.5,1.3,8.2c0.1,0,0.2,0,0.2,0c0.3-1.5,0.6-3,0.8-4.5c0.1,0,0.1,0,0.2,0
		c0.5,3.1,0.9,6.3,1.4,9.4c0.1,0,0.2,0,0.3,0c0.5-3.1,0.9-6.2,1.4-9.3c0.1,0,0.2,0,0.2,0c0.3,1.5,0.6,3,0.8,4.6c0.1,0,0.1,0,0.2,0
		c0.4-2.8,0.9-5.6,1.3-8.3c0.1,0,0.1,0,0.2,0c0.3,1.5,0.6,3.1,0.9,4.6c0.1,0,0.1,0,0.2,0c0.4-2.8,0.8-5.5,1.3-8.3c0.1,0,0.1,0,0.2,0
		c0.3,1.5,0.6,3.1,0.8,4.6c0.1,0,0.1,0,0.2,0c0.4-2.8,0.9-5.6,1.3-8.3c0.1,0,0.1,0,0.2,0c0.3,1.5,0.6,3,0.8,4.5c0.1,0,0.2,0,0.3,0
		c0.4-2.7,0.8-5.3,1.2-8c0.1,0,0.2,0,0.3,0c0.3,1.5,0.6,3,0.9,4.5h0.1c0.4-2.8,0.9-5.7,1.3-8.5c0.1,0,0.1,0,0.2,0
		c0.3,1.6,0.6,3.2,1,5.1c2.1-6.5,2.9-17.4,1.6-19.1c-0.2,1.5-0.3,3-0.5,4.4c-0.1,0-0.1,0-0.2,0c-0.3-1.4-0.6-2.8-0.9-4.2
		c-0.1,0-0.1,0-0.2,0c-0.4,2.6-0.9,5.3-1.3,7.9c-0.1,0-0.1,0-0.2,0c-0.3-1.4-0.6-2.8-0.9-4.3c-0.1,0-0.1,0-0.2,0.1
		c-0.4,2.6-0.9,5.2-1.3,7.8c-0.1,0-0.1,0-0.2,0c-0.3-1.4-0.6-2.8-0.9-4.2c-0.1,0-0.1,0-0.2,0c-0.4,2.6-0.9,5.2-1.3,7.8
		c-0.1,0-0.1,0-0.2,0c-0.3-1.4-0.6-2.7-0.9-4.1c-0.1,0-0.1,0-0.2,0c-0.4,2.6-0.9,5.2-1.3,7.9c-0.1,0-0.1,0-0.2,0
		c-0.3-1.4-0.6-2.7-0.8-4.1c-0.1,0-0.1,0-0.2,0c-0.4,2.6-0.8,5.1-1.3,7.7c-0.1,0-0.1,0-0.2,0c-0.3-1.4-0.6-2.7-0.8-4.1
		c-0.1,0-0.1,0-0.2,0c-0.4,2.6-0.8,5.2-1.3,7.8c-0.1,0-0.1,0-0.2,0c-0.3-3.1-0.6-6.2-0.9-9.3c-0.1,0-0.2,0-0.2,0
		c-0.3,3.1-0.6,6.2-0.9,9.3c-0.1,0-0.1,0-0.2,0c-0.4-2.6-0.8-5.2-1.3-7.8c-0.1,0-0.1,0-0.2,0c-0.3,1.4-0.6,2.8-0.9,4.2
		c-0.1,0-0.1,0-0.2,0c-0.4-2.6-0.9-5.2-1.3-7.8c-0.1,0-0.2,0-0.2,0c-0.3,1.3-0.6,2.7-0.8,4c-0.1,0-0.1,0-0.2,0
		c-0.4-2.6-0.8-5.2-1.3-7.9c-0.1,0-0.1,0-0.2,0c-0.3,1.4-0.6,2.7-0.9,4.1c-0.1,0-0.1,0-0.2,0c-0.4-2.6-0.9-5.2-1.3-7.8
		c-0.1,0-0.1,0-0.2,0c-0.3,1.4-0.6,2.8-0.9,4.2c-0.1,0-0.1,0-0.2,0c-0.4-2.6-0.8-5.3-1.3-7.9c-0.1,0-0.1,0-0.2,0
		c-0.3,1.4-0.6,2.7-0.9,4.1c-0.1,0-0.1,0-0.2,0c-0.4-2.6-0.9-5.2-1.3-7.9c-0.1,0-0.1,0-0.2,0c-0.3,1.4-0.6,2.8-0.9,4.3
		c-0.1,0-0.1,0-0.2-0.1C96.9,155.4,96.8,153.9,96.6,152.2z M129.9,42.1c-0.1,0-0.1,0-0.2,0c-0.3-1.4-0.6-2.9-0.9-4.3
		c-0.1,0-0.1,0-0.2,0c-0.4,2.6-0.9,5.2-1.3,7.8c-0.1,0-0.1,0-0.2,0c-0.3-1.3-0.6-2.7-0.9-4.1c-0.1,0-0.1,0-0.2,0
		c-0.4,2.6-0.8,5.1-1.3,7.7c-0.1,0-0.2,0-0.2,0c-0.3-1.3-0.6-2.7-0.8-4c-0.1,0-0.1,0-0.2,0c-0.4,2.6-0.9,5.2-1.3,7.8
		c-0.1,0-0.1,0-0.2,0c-0.3-1.4-0.6-2.7-0.9-4.1c-0.1,0-0.1,0-0.2,0c-0.4,2.6-0.8,5.2-1.3,7.8c-0.1,0-0.1,0-0.2,0
		c-0.3-1.3-0.6-2.7-0.9-4c-0.1,0-0.1,0-0.2,0c-0.4,2.6-0.8,5.1-1.3,7.7c-0.1,0-0.1,0-0.2,0c-0.3-1.3-0.6-2.7-0.9-4.1
		c-0.1,0-0.1,0-0.2,0c-0.4,2.6-0.8,5.2-1.3,7.8c-0.1,0-0.1,0-0.2,0c-0.3-3.1-0.6-6.2-0.9-9.3c-0.1,0-0.2,0-0.3,0
		c-0.3,3-0.6,6.1-0.9,9.1c-0.1,0-0.2,0-0.2,0c-0.4-2.5-0.8-5.1-1.2-7.6c-0.6,1.3-0.6,2.8-1.2,4.2c-0.5-2.8-0.9-5.3-1.3-7.8
		c-0.1,0-0.1,0-0.2,0c-0.3,1.3-0.6,2.6-0.9,3.9c-0.1,0-0.1,0-0.2,0c-0.4-2.6-0.8-5.1-1.3-7.7c-0.6,1.3-0.6,2.8-1.2,4.2
		c-0.5-2.8-0.9-5.3-1.3-7.8c-0.6,1.3-0.6,2.7-1.2,4.2c-0.5-2.8-0.9-5.4-1.3-8c-0.1,0-0.1,0-0.2,0c-0.3,1.3-0.6,2.7-0.9,4
		c-0.1,0-0.1,0-0.2,0c-0.4-2.6-0.9-5.2-1.3-7.8c-0.1,0-0.1,0-0.2,0c-0.3,1.4-0.6,2.8-0.9,4.2c-0.1,0-0.1,0-0.2,0
		c-0.2-1.5-0.3-2.9-0.5-4.7c-1.2,3.2-0.3,13.9,1.6,19.5c0.3-1.8,0.7-3.5,1-5.2h0.1c0.4,2.9,0.9,5.8,1.3,8.6c0.1,0,0.1,0,0.2,0
		c0.3-1.6,0.6-3.2,0.9-4.8c0.1,0,0.1,0,0.2,0c0.4,2.8,0.8,5.6,1.3,8.4c0.1,0,0.2,0,0.2,0c0.3-1.5,0.6-3,0.9-4.6c0.1,0,0.1,0,0.2,0
		c0.4,2.8,0.9,5.5,1.3,8.3c0.1,0,0.1,0,0.2,0c0.3-1.5,0.6-3,0.9-4.5c0.1,0,0.1,0,0.2,0c0.4,2.7,0.8,5.5,1.3,8.2c0.1,0,0.2,0,0.2,0
		c0.3-1.5,0.6-3,0.8-4.6c0.1,0,0.1,0,0.2,0c0.4,2.8,0.9,5.5,1.3,8.3c0.1,0,0.1,0,0.2,0c0.3-1.5,0.6-3,0.8-4.6c0.1,0,0.1,0,0.2,0
		c0.5,3.1,0.9,6.3,1.4,9.4c0.1,0,0.2,0,0.2,0c0.5-3.1,0.9-6.2,1.4-9.3c0.1,0,0.2,0,0.2,0c0.3,1.5,0.6,3,0.8,4.5c0.1,0,0.1,0,0.2,0
		c0.4-2.8,0.9-5.6,1.3-8.3c0.1,0,0.1,0,0.2,0c0.3,1.5,0.6,3,0.8,4.5c0.1,0,0.2,0,0.2,0c0.4-2.7,0.8-5.5,1.3-8.2c0.1,0,0.2,0,0.2,0
		c0.3,1.5,0.6,3,0.8,4.5c0.1,0,0.2,0,0.2,0c0.4-2.8,0.8-5.5,1.3-8.3c0.1,0,0.1,0,0.2,0c0.3,1.5,0.6,3.1,0.9,4.6c0.1,0,0.1,0,0.2,0
		c0.4-2.8,0.9-5.6,1.3-8.5c0.1,0,0.1,0,0.2,0c0.3,1.6,0.6,3.2,0.9,4.8c0.1,0,0.1,0,0.2,0c0.4-2.9,0.9-5.8,1.4-9c0.4,2,0.7,3.6,1,5.5
		c2-5.4,3-17.2,1.6-18.9C130.2,39.2,130.1,40.7,129.9,42.1z M155.2,243.3c0.1,0,0.1,0,0.2,0c0.3,1.6,0.6,3.1,0.9,4.7
		c0.1,0,0.1,0,0.2,0c0.4-2.8,0.9-5.6,1.3-8.4c0.1,0,0.1,0,0.2,0c0.3,1.6,0.6,3.1,0.9,4.7c0.1,0,0.1,0,0.2,0c0.4-2.8,0.9-5.6,1.3-8.3
		c0.1,0,0.1,0,0.2,0c0.3,1.6,0.6,3.2,0.9,4.8h0.1c0.4-2.9,0.9-5.8,1.3-8.7h0.1c0.3,1.6,0.6,3.3,1,5.1c1.7-6.4,2.9-12.7,1.6-19.1
		c-0.2,1.5-0.3,3-0.5,4.5c-0.6-1.4-0.6-2.9-1.2-4.4c-0.5,2.9-0.9,5.5-1.3,8.1c-0.1,0-0.1,0-0.1,0c-0.3-1.4-0.6-2.8-0.9-4.3
		c-0.1,0-0.1,0-0.2,0c-0.4,2.6-0.9,5.3-1.3,7.9c-0.1,0-0.1,0-0.2,0c-0.3-1.4-0.6-2.7-0.9-4.1c-0.1,0-0.1,0-0.2,0
		c-0.4,2.6-0.9,5.2-1.3,7.8c-0.1,0-0.1,0-0.2,0c-0.3-1.4-0.6-2.7-0.9-4c-0.1,0-0.1,0-0.2,0c-0.4,2.6-0.8,5.1-1.3,7.7
		c-0.1,0-0.1,0-0.2,0c-0.3-1.4-0.6-2.7-0.9-4.1c-0.1,0-0.1,0-0.2,0c-0.4,2.6-0.9,5.2-1.3,7.8c-0.1,0-0.1,0-0.2,0
		c-0.3-1.4-0.6-2.7-0.9-4.1c-0.1,0-0.1,0-0.2,0c-0.4,2.6-0.8,5.1-1.2,7.7c-0.1,0-0.1,0-0.2,0c-0.3-3-0.6-6.1-0.9-9.1
		c-0.1,0-0.2,0-0.3,0c-0.3,3-0.6,6.1-0.9,9.1c-0.1,0-0.1,0-0.2,0c-0.4-2.5-0.8-5.1-1.3-7.6c-0.1,0-0.1,0-0.2,0
		c-0.3,1.3-0.6,2.6-0.8,3.9c-0.1,0-0.1,0-0.2,0c-0.4-2.6-0.9-5.1-1.3-7.7c-0.1,0-0.1,0-0.2,0c-0.3,1.4-0.6,2.7-0.9,4
		c-0.1,0-0.1,0-0.2,0c-0.4-2.6-0.9-5.1-1.3-7.7c-0.1,0-0.1,0-0.2,0c-0.3,1.4-0.6,2.7-0.9,4.1c-0.1,0-0.1,0-0.2-0.1
		c-0.4-2.6-0.9-5.2-1.3-7.7c-0.1,0-0.1,0-0.2,0c-0.3,1.3-0.6,2.6-0.9,3.9c-0.1,0-0.1,0-0.2,0c-0.4-2.6-0.9-5.2-1.3-7.9
		c-0.1,0-0.1,0-0.2,0c-0.3,1.4-0.6,2.8-0.9,4.2c-0.1,0-0.1,0-0.2,0c-0.4-2.6-0.9-5.3-1.3-7.9c-0.1,0-0.1,0-0.1,0
		c-0.3,1.4-0.6,2.9-0.9,4.3c-0.1,0-0.1,0-0.2,0c-0.2-1.5-0.4-3-0.5-4.5c-1.4,6.5-0.1,12.7,1.6,19.2c0.4-1.9,0.7-3.6,1-5.3h0.1
		c0.4,2.8,0.9,5.7,1.3,8.5c0.1,0,0.1,0,0.2,0c0.3-1.6,0.6-3.1,0.9-4.7c0.1,0,0.1,0,0.2,0c0.4,2.8,0.8,5.6,1.3,8.4c0.1,0,0.1,0,0.2,0
		c0.3-1.5,0.6-3,0.9-4.6c0.1,0,0.1,0,0.2,0c0.4,2.7,0.9,5.5,1.3,8.2c0.6-1.5,0.6-3,1.2-4.7c0.5,3,0.9,5.8,1.3,8.5c0.1,0,0.1,0,0.2,0
		c0.3-1.5,0.6-3,0.9-4.5c0.1,0,0.1,0,0.2,0c0.4,2.8,0.9,5.6,1.3,8.3c0.1,0,0.1,0,0.2,0c0.3-1.6,0.6-3.1,0.9-4.7c0.1,0,0.1,0,0.2,0
		c0.5,3.2,0.9,6.3,1.4,9.5c0.1,0,0.2,0,0.2,0c0.5-3.1,0.9-6.3,1.4-9.4c0.1,0,0.1,0,0.2,0c0.3,1.5,0.6,3,0.9,4.6c0.1,0,0.1,0,0.2,0
		c0.4-2.8,0.9-5.5,1.3-8.3c0.1,0,0.1,0,0.2,0c0.3,1.5,0.6,3,0.9,4.5c0.1,0,0.1,0,0.2,0C154.4,248.9,154.8,246.1,155.2,243.3z
		 M143.3,136.9c0.1,0,0.1,0,0.2-0.1c0.3-1.5,0.6-2.9,0.9-4.4c0.1,0,0.1,0,0.2,0c0.4,2.7,0.8,5.4,1.3,8.1c0.1,0,0.1,0,0.2,0
		c0.3-1.5,0.6-3,0.9-4.5c0.1,0,0.1,0,0.2,0c0.5,3.2,0.9,6.4,1.4,9.5c0.1,0,0.1,0,0.2,0c0.5-3.1,0.9-6.3,1.4-9.4c0.1,0,0.2,0,0.2,0
		c0.3,1.5,0.6,3,0.8,4.5c0.1,0,0.1,0,0.2,0c0.4-2.8,0.9-5.5,1.3-8.3c0.1,0,0.1,0,0.2,0c0.3,1.5,0.6,3.1,0.9,4.6c0.1,0,0.1,0,0.2,0
		c0.4-2.8,0.8-5.6,1.3-8.4c0.1,0,0.1,0,0.2,0c0.3,1.5,0.6,3,0.9,4.5c0.1,0,0.1,0,0.2,0c0.4-2.8,0.9-5.5,1.3-8.3c0.1,0,0.1,0,0.2,0
		c0.3,1.6,0.6,3.1,0.9,4.7c0.1,0,0.1,0,0.2,0c0.4-2.8,0.9-5.6,1.3-8.3c0.1,0,0.1,0,0.2,0c0.3,1.6,0.6,3.1,0.9,4.7c0.1,0,0.1,0,0.2,0
		c0.4-2.8,0.9-5.7,1.3-8.5c0.1,0,0.1,0,0.2,0c0.3,1.6,0.6,3.2,0.9,4.9c0.9-3.1,1.7-6.2,2.1-9.4c0.5-3.6,0.1-8.5-0.5-9.6
		c-0.2,1.5-0.3,2.9-0.5,4.4c-0.1,0-0.1,0-0.2,0c-0.3-1.4-0.6-2.8-0.9-4.2c-0.1,0-0.1,0-0.2,0c-0.4,2.7-0.9,5.3-1.3,7.9
		c-0.1,0-0.1,0-0.2,0c-0.3-1.4-0.6-2.8-0.9-4.1c-0.1,0-0.1,0-0.2,0c-0.4,2.6-0.9,5.3-1.3,7.9c-0.1,0-0.1,0-0.2,0
		c-0.3-1.4-0.6-2.8-0.9-4.2c-0.1,0-0.1,0-0.1,0c-0.4,2.7-0.9,5.3-1.3,8c-0.1,0-0.1,0-0.2,0c-0.3-1.3-0.6-2.7-0.9-4.1
		c-0.1,0-0.1,0-0.2,0c-0.4,2.6-0.8,5.2-1.3,7.7c-0.1,0-0.1,0-0.2,0c-0.3-1.3-0.6-2.7-0.9-4c-0.1,0-0.1,0-0.2,0
		c-0.4,2.6-0.9,5.2-1.3,7.8c-0.1,0-0.1,0-0.2,0c-0.3-1.4-0.6-2.7-0.9-4.1c-0.1,0-0.1,0-0.2,0c-0.4,2.6-0.8,5.1-1.3,7.7
		c-0.1,0-0.1,0-0.2,0c-0.3-3-0.6-6.1-0.9-9.1c-0.1,0-0.2,0-0.3,0c-0.3,3-0.6,6-0.9,9.1c-0.1,0-0.1,0-0.2,0c-0.4-2.6-0.9-5.2-1.3-8.1
		c-0.5,1.6-0.5,3.1-1.1,4.6c-0.5-2.8-0.9-5.4-1.3-7.9c-0.1,0-0.1,0-0.2,0c-0.3,1.3-0.6,2.7-0.9,4c-0.1,0-0.1,0-0.2,0
		c-0.4-2.6-0.9-5.2-1.3-7.7c-0.6,1.3-0.6,2.7-1.2,4.2c-0.5-2.9-0.9-5.5-1.3-8.1c-0.1,0-0.1,0-0.2,0c-0.3,1.4-0.6,2.8-0.9,4.2
		c-0.1,0-0.1,0-0.2,0c-0.4-2.6-0.9-5.3-1.3-7.9c-0.1,0-0.1,0-0.2,0c-0.3,1.4-0.6,2.8-0.9,4.2c-0.1,0-0.1,0-0.2,0
		c-0.4-2.6-0.9-5.3-1.3-7.9c-0.1,0-0.1,0-0.2,0c-0.3,1.4-0.6,2.8-0.9,4.2c-0.1,0-0.1,0-0.2,0c-0.2-1.4-0.3-2.8-0.5-4.3
		c-1.4,6.5-0.1,12.7,1.6,19.2c0.4-1.9,0.6-3.6,1-5.2c0.1,0,0.1,0,0.1,0c0.4,2.8,0.9,5.7,1.3,8.5c0.1,0,0.1,0,0.2,0
		c0.3-1.6,0.6-3.2,0.9-4.7c0.1,0,0.1,0,0.2,0c0.4,2.8,0.8,5.6,1.3,8.4c0.1,0,0.1,0,0.2,0c0.3-1.6,0.6-3.1,0.9-4.6c0.1,0,0.1,0,0.2,0
		c0.4,2.8,0.9,5.5,1.3,8.3c0.1,0,0.1,0,0.2,0c0.3-1.5,0.6-3,0.9-4.6c0.1,0,0.1,0,0.2,0.1C142.4,131.4,142.8,134.1,143.3,136.9z
		 M86.1,94.9c0.1,0,0.2,0,0.2,0c0.4-2.8,0.8-5.6,1.3-8.4c0.1,0,0.1,0,0.2,0c0.3,1.6,0.6,3.1,0.9,4.7c0.1,0,0.1,0,0.2,0
		c0.4-2.8,0.9-5.6,1.3-8.4c0.1,0,0.1,0,0.2,0c0.3,1.6,0.6,3.2,0.9,4.8c0.1,0,0.1,0,0.2,0c0.4-2.8,0.9-5.6,1.3-8.4
		c0.3,0.8,0.5,1.7,0.7,2.5c0.1,0.8,0.3,1.6,0.4,2.3c1.7-6.3,3.1-12.5,1.7-19c-0.2,1.5-0.4,2.9-0.5,4.4c-0.1,0-0.1,0-0.2,0
		c-0.3-1.4-0.6-2.8-0.9-4.2c-0.1,0-0.1,0-0.2,0c-0.4,2.7-0.9,5.3-1.3,8c-0.4-1.5-0.7-2.9-1.2-4.5c-0.5,2.9-0.9,5.6-1.3,8.2
		c-0.1,0-0.1,0-0.2,0c-0.3-1.4-0.6-2.8-0.8-4.2c-0.1,0-0.1,0-0.2,0c-0.4,2.6-0.9,5.3-1.3,7.9c-0.6-1.3-0.6-2.8-1.2-4.3
		c-0.5,2.8-0.9,5.4-1.4,8.3c-0.6-1.6-0.5-3-1.2-4.6c-0.5,2.8-0.9,5.4-1.3,8c-0.1,0-0.1,0-0.2,0c-0.3-1.3-0.6-2.7-0.9-4
		c-0.1,0-0.1,0-0.2,0c-0.4,2.6-0.9,5.2-1.3,7.7c-0.1,0-0.1,0-0.2,0c-0.3-3.1-0.6-6.1-1-9.2c-0.1,0-0.2,0-0.2,0
		c-0.3,3.1-0.6,6.1-0.9,9.2c-0.1,0-0.1,0-0.2,0c-0.4-2.6-0.8-5.1-1.3-7.7c-0.1,0-0.2,0-0.2,0c-0.3,1.4-0.6,2.7-0.9,4.1
		c-0.1,0-0.1,0-0.1,0c-0.4-2.6-0.9-5.2-1.3-7.8c-0.1,0-0.1,0-0.2,0c-0.3,1.3-0.6,2.6-0.8,3.9c-0.1,0-0.2,0-0.2,0
		c-0.4-2.6-0.8-5.1-1.3-7.7c-0.1,0-0.1,0-0.2,0c-0.3,1.3-0.6,2.7-0.9,4c-0.1,0-0.1,0-0.2,0c-0.4-2.6-0.9-5.2-1.3-7.7
		c-0.1,0-0.2,0-0.2,0c-0.3,1.3-0.6,2.7-0.8,4c-0.1,0-0.1,0-0.2-0.1c-0.4-2.7-0.9-5.3-1.3-7.9c-0.1,0-0.1,0-0.1,0
		c-0.3,1.4-0.6,2.8-0.9,4.2c-0.1,0-0.1,0-0.2,0c-0.4-2.6-0.9-5.3-1.3-7.9c-0.1,0-0.1,0-0.2,0c-0.3,1.4-0.6,2.8-0.9,4.2
		c-0.1,0-0.1,0-0.2-0.1c-0.2-1.4-0.3-2.9-0.5-4.3c-1.2,6.5-0.1,12.8,1.6,19.2c0.3-1.8,0.7-3.4,1-5.1c0.1,0,0.1,0,0.2,0
		c0.4,2.8,0.9,5.6,1.3,8.4c0.1,0,0.1,0,0.2,0c0.3-1.6,0.6-3.2,0.9-4.8c0.1,0,0.1,0,0.2,0c0.4,2.8,0.9,5.7,1.3,8.5c0.1,0,0.1,0,0.2,0
		c0.3-1.6,0.6-3.1,0.9-4.6c0.1,0,0.1,0,0.2,0.1c0.4,2.7,0.9,5.5,1.3,8.2c0.1,0,0.1,0,0.2,0c0.3-1.5,0.6-3,0.8-4.4c0.1,0,0.1,0,0.2,0
		c0.4,2.8,0.8,5.6,1.3,8.3c0.1,0,0.2,0,0.2,0c0.3-1.6,0.6-3.1,0.8-4.7c0.1,0,0.1,0,0.2,0c0.4,2.8,0.8,5.5,1.3,8.3c0.1,0,0.1,0,0.2,0
		c0.3-1.5,0.6-3.1,0.9-4.6c0.1,0,0.1,0,0.2,0c0.5,3.1,0.9,6.2,1.4,9.4c0.1,0,0.2,0,0.3,0c0.5-3.1,0.9-6.2,1.4-9.3c0.1,0,0.1,0,0.2,0
		c0.3,1.5,0.6,3,0.9,4.5c0.1,0,0.1,0,0.2,0c0.4-2.7,0.8-5.5,1.3-8.2c0.1,0,0.1,0,0.2,0c0.3,1.5,0.6,3,0.8,4.6c0.1,0,0.1,0,0.2,0
		c0.4-2.8,0.9-5.5,1.3-8.3c0.1,0,0.1,0,0.2,0C85.5,91.9,85.8,93.4,86.1,94.9z M63.3,141.8c-0.1,0-0.1,0-0.2,0
		c-0.3,1.4-0.6,2.8-0.9,4.2c-0.1,0-0.1,0-0.2,0c-0.2-1.5-0.4-2.9-0.6-4.7c-1.1,3.2-0.2,13.6,1.7,19.4c0.3-1.8,0.7-3.4,0.9-5
		c0.1,0,0.1,0,0.2,0c0.4,2.8,0.8,5.5,1.3,8.3c0.1,0,0.1,0,0.2,0c0.3-1.6,0.6-3.1,0.9-4.6c0.1,0,0.1,0,0.2,0c0.4,2.8,0.8,5.6,1.3,8.4
		c0.1,0,0.1,0,0.2,0c0.3-1.6,0.6-3.1,0.9-4.7c0.1,0,0.1,0,0.2,0c0.4,2.8,0.8,5.5,1.3,8.3c0.1,0,0.1,0,0.2,0c0.3-1.5,0.6-3,0.8-4.5
		c0.1,0,0.1,0,0.2,0c0.4,2.7,0.8,5.5,1.3,8.2c0.1,0,0.2,0,0.2,0c0.3-1.5,0.6-3,0.8-4.5c0.1,0,0.1,0,0.2,0c0.4,2.8,0.9,5.5,1.3,8.3
		c0.1,0,0.1,0,0.2,0c0.3-1.5,0.6-3,0.8-4.5c0.1,0,0.1,0,0.2,0c0.5,3.1,0.9,6.3,1.4,9.4c0.1,0,0.2,0,0.2,0c0.5-3.1,0.9-6.2,1.4-9.3
		c0.1,0,0.1,0,0.2,0c0.3,1.5,0.6,3,0.9,4.5c0.1,0,0.1,0,0.2,0c0.4-2.8,0.8-5.6,1.3-8.4c0.1,0,0.1,0,0.2,0c0.3,1.5,0.6,3,0.9,4.5
		c0.1,0,0.2,0,0.2,0c0.4-2.8,0.8-5.5,1.3-8.3c0.1,0,0.1,0,0.2,0c0.3,1.6,0.6,3.1,0.9,4.6c0.1,0,0.1,0,0.2-0.1
		c0.4-2.8,0.8-5.5,1.3-8.3c0.1,0,0.1,0,0.2,0c0.3,1.6,0.6,3.1,0.9,4.7c0.1,0,0.1,0,0.2,0c0.4-2.8,0.9-5.6,1.3-8.4c0.1,0,0.1,0,0.2,0
		c0.3,1.6,0.6,3.2,0.9,4.8c0.1,0,0.1,0,0.2-0.1c0.4-2.9,0.9-5.7,1.4-8.9c0.2,1.2,0.4,2,0.6,2.8s0.3,1.6,0.5,2.8
		c1.7-6.6,3-12.8,1.6-19.2c-0.2,1.5-0.4,2.9-0.6,4.4c-0.1,0-0.1,0-0.2,0c-0.3-1.4-0.6-2.8-0.9-4.2c-0.1,0-0.1,0-0.2,0
		c-0.4,2.6-0.9,5.2-1.3,7.9c-0.1,0-0.1,0-0.2,0c-0.3-1.4-0.6-2.8-0.9-4.2c-0.1,0-0.1,0-0.2,0c-0.4,2.6-0.9,5.2-1.3,7.8
		c-0.1,0-0.1,0-0.2,0c-0.3-1.3-0.6-2.7-0.8-4c-0.1,0-0.1,0-0.2,0c-0.4,2.6-0.8,5.2-1.3,7.9c-0.6-1.3-0.6-2.8-1.2-4.3
		c-0.5,2.8-0.9,5.4-1.3,8c-0.1,0-0.1,0-0.2,0c-0.3-1.4-0.6-2.7-0.9-4.1c-0.1,0-0.2,0-0.2,0c-0.4,2.6-0.8,5.1-1.3,7.7
		c-0.1,0-0.1,0-0.2,0c-0.3-1.3-0.6-2.7-0.9-4c-0.1,0-0.1,0-0.2,0c-0.4,2.5-0.8,5.1-1.3,7.6c-0.1,0-0.1,0-0.2,0c-0.3-3-0.6-6-0.9-9
		c-0.1,0-0.2,0-0.2,0c-0.3,3-0.6,6.1-0.9,9.1c-0.1,0-0.2,0-0.2,0c-0.4-2.6-0.8-5.1-1.2-7.7c-0.1,0-0.1,0-0.2,0
		c-0.3,1.4-0.6,2.7-0.9,4.1c-0.1,0-0.1,0-0.2,0c-0.4-2.6-0.8-5.1-1.3-7.7c-0.1,0-0.2,0-0.2,0c-0.3,1.3-0.6,2.6-0.8,3.9
		c-0.1,0-0.1,0-0.2,0c-0.4-2.6-0.8-5.1-1.3-7.7c-0.1,0-0.1,0-0.2,0c-0.3,1.4-0.6,2.7-0.9,4.1c-0.1,0-0.1,0-0.2,0
		c-0.4-2.6-0.8-5.1-1.3-7.7c-0.1,0-0.2,0-0.2,0c-0.3,1.3-0.6,2.6-0.8,3.9c-0.1,0-0.1,0-0.2,0c-0.4-2.6-0.9-5.3-1.3-7.9
		c-0.1,0-0.1,0-0.2,0c-0.3,1.4-0.6,2.8-0.9,4.1c-0.1,0-0.1,0-0.2,0C64.1,147,63.7,144.4,63.3,141.8z M164,141.8c-0.1,0-0.1,0-0.2,0
		c-0.4,2.6-0.9,5.2-1.3,7.8c-0.1,0-0.1,0-0.2,0c-0.3-1.4-0.6-2.8-0.9-4.2c-0.1,0-0.1,0-0.2,0c-0.4,2.6-0.9,5.3-1.3,7.9
		c-0.1,0-0.1,0-0.2,0c-0.3-1.4-0.6-2.7-0.9-4.1c-0.1,0-0.1,0-0.2,0c-0.4,2.6-0.9,5.2-1.3,7.8c-0.1,0-0.1,0-0.2,0
		c-0.3-1.3-0.6-2.7-0.9-4c-0.1,0-0.1,0-0.2,0c-0.4,2.6-0.8,5.2-1.3,7.7c-0.1,0-0.1,0-0.2,0c-0.3-1.4-0.6-2.7-0.9-4.1
		c-0.1,0-0.1,0-0.2,0c-0.4,2.6-0.9,5.2-1.3,7.8c-0.1,0-0.1,0-0.2,0c-0.3-1.4-0.6-2.7-0.9-4c-0.1,0-0.1,0-0.2,0
		c-0.4,2.6-0.8,5.1-1.2,7.6c-0.1,0-0.1,0-0.2,0c-0.3-3-0.6-6.1-0.9-9.1c-0.1,0-0.2,0-0.3,0c-0.3,3.1-0.6,6.1-0.9,9.2
		c-0.1,0-0.1,0-0.2,0c-0.4-2.6-0.9-5.2-1.3-7.7c-0.1,0-0.1,0-0.2,0c-0.3,1.3-0.6,2.7-0.9,4c-0.1,0-0.1,0-0.2-0.1
		c-0.4-2.5-0.8-5.1-1.3-7.6c-0.1,0-0.1,0-0.2,0c-0.3,1.3-0.6,2.6-0.9,3.9c-0.1,0-0.1,0-0.2,0c-0.4-2.6-0.9-5.2-1.3-7.8
		c-0.1,0-0.1,0-0.2,0c-0.3,1.4-0.6,2.7-0.9,4.1c-0.1,0-0.1,0-0.2,0c-0.4-2.6-0.9-5.2-1.3-7.8c-0.1,0-0.1,0-0.2,0
		c-0.3,1.3-0.6,2.7-0.9,4c-0.1,0-0.1,0-0.2,0c-0.4-2.6-0.9-5.2-1.3-7.9c-0.5,1.4-0.6,2.8-1.2,4.4c-0.5-2.8-0.9-5.4-1.3-8
		c-0.1,0-0.1,0-0.2,0c-0.3,1.4-0.6,2.8-0.9,4.3c-0.1,0-0.1,0-0.1,0c-0.2-1.5-0.4-3-0.5-4.5c-1.3,6.5-0.1,12.7,1.6,19.2
		c0.4-2,0.7-3.6,1-5.3c0.1,0,0.1,0,0.1,0c0.4,2.8,0.9,5.6,1.3,8.5c0.1,0,0.1,0,0.2,0c0.3-1.6,0.6-3.1,0.9-4.7c0.1,0,0.1,0,0.2,0
		c0.4,2.8,0.8,5.6,1.3,8.4c0.1,0,0.1,0,0.2,0c0.3-1.5,0.6-3,0.9-4.6c0.1,0,0.1,0,0.2,0c0.4,2.8,0.9,5.6,1.3,8.3c0.1,0,0.1,0,0.2,0
		c0.3-1.5,0.6-3,0.9-4.5c0.1,0,0.1,0,0.2,0.1c0.4,2.7,0.8,5.4,1.3,8.1c0.1,0,0.1,0,0.2,0c0.3-1.5,0.6-3,0.8-4.5c0.1,0,0.1,0,0.2,0
		c0.4,2.8,0.9,5.5,1.3,8.3c0.1,0,0.1,0,0.2,0c0.3-1.5,0.6-3,0.8-4.5c0.1,0,0.1,0,0.2,0.1c0.5,3.1,0.9,6.2,1.4,9.3c0.1,0,0.2,0,0.2,0
		c0.5-3.1,0.9-6.3,1.4-9.4c0.1,0,0.1,0,0.2,0c0.3,1.5,0.6,3,0.9,4.5c0.1,0,0.1,0,0.2,0c0.4-2.7,0.9-5.5,1.3-8.2c0.1,0,0.1,0,0.2,0
		c0.3,1.5,0.6,3,0.8,4.5c0.1,0,0.1,0,0.2,0c0.4-2.8,0.9-5.6,1.3-8.4c0.1,0,0.1,0,0.2,0c0.3,1.6,0.6,3.1,0.9,4.7c0.1,0,0.1,0,0.2,0
		c0.4-2.8,0.9-5.6,1.3-8.3c0.1,0,0.1,0,0.2,0c0.3,1.5,0.6,3,0.9,4.6c0.1,0,0.1,0,0.2,0c0.4-2.8,0.9-5.6,1.3-8.4c0.1,0,0.1,0,0.2,0
		c0.3,1.6,0.6,3.2,0.9,4.8c0.1,0,0.1,0,0.1,0c0.4-2.9,0.9-5.7,1.3-8.6c0.1,0,0.1,0,0.1,0c0.3,1.6,0.6,3.2,1,5.1
		c2.5-8.4,2.8-16.6,1.6-19.2c-0.2,1.6-0.3,3-0.5,4.5c-0.1,0-0.1,0-0.2,0C164.5,144.6,164.2,143.2,164,141.8z M123.8,198.3
		c-0.1,0-0.1,0-0.2,0c-0.4,2.6-0.9,5.3-1.3,7.9c-0.1,0-0.1,0-0.2,0c-0.3-1.4-0.6-2.7-0.9-4.1c-0.1,0-0.1,0-0.2,0
		c-0.4,2.6-0.8,5.1-1.3,7.7c-0.1,0-0.1,0-0.2,0c-0.3-1.4-0.6-2.7-0.9-4.1c-0.1,0-0.1,0-0.2,0c-0.4,2.6-0.8,5.1-1.3,7.7
		c-0.1,0-0.2,0-0.2,0c-0.3-1.3-0.6-2.6-0.8-3.9c-0.1,0-0.1,0-0.2,0c-0.4,2.6-0.8,5.1-1.3,7.7c-0.1,0-0.1,0-0.2,0
		c-0.3-3-0.6-6.1-0.9-9.1c-0.1,0-0.2,0-0.3,0c-0.3,3-0.6,6.1-0.9,9.1c-0.1,0-0.1,0-0.2,0c-0.4-2.6-0.8-5.1-1.2-7.7
		c-0.1,0-0.1,0-0.2,0c-0.3,1.4-0.6,2.7-0.9,4.1c-0.1,0-0.1,0-0.2,0c-0.4-2.6-0.9-5.2-1.3-7.8c-0.1,0-0.1,0-0.2,0
		c-0.3,1.4-0.6,2.7-0.8,4.1c-0.1,0-0.1,0-0.2,0c-0.4-2.6-0.8-5.1-1.3-7.7c-0.1,0-0.2,0-0.2,0c-0.3,1.3-0.6,2.7-0.9,4
		c-0.1,0-0.1,0-0.2,0c-0.4-2.6-0.9-5.3-1.3-7.9c-0.1,0-0.1,0-0.2,0c-0.3,1.4-0.6,2.8-0.9,4.2c-0.1,0-0.1,0-0.2,0
		c-0.4-2.6-0.9-5.3-1.3-7.9c-0.1,0-0.1,0-0.2,0c-0.3,1.4-0.6,2.8-0.9,4.2c-0.1,0-0.1,0-0.2,0c-0.4-2.7-0.9-5.3-1.3-8
		c-0.6,1.4-0.6,2.8-1.2,4.4c-0.2-1.8-0.3-3.2-0.6-4.9c-1.2,3.2-0.3,12.9,1.6,19.5c0.3-1.9,0.7-3.5,1-5.2c0.1,0,0.1,0,0.2,0
		c0.4,2.8,0.9,5.7,1.3,8.5c0.1,0,0.1,0,0.2,0c0.3-1.6,0.6-3.1,0.9-4.7c0.1,0,0.1,0,0.2,0c0.4,2.8,0.8,5.6,1.3,8.4c0.1,0,0.1,0,0.2,0
		c0.3-1.6,0.6-3.1,0.9-4.7c0.1,0,0.1,0,0.2,0c0.4,2.8,0.8,5.5,1.3,8.3c0.1,0,0.2,0,0.2,0c0.3-1.5,0.6-3,0.8-4.5c0.1,0,0.1,0,0.2,0
		c0.4,2.8,0.8,5.6,1.3,8.4c0.1,0,0.1,0,0.2,0c0.3-1.5,0.6-3,0.9-4.5c0.1,0,0.1,0,0.2,0c0.4,2.7,0.8,5.4,1.3,8.1c0.1,0,0.2,0,0.2,0
		c0.3-1.5,0.6-2.9,0.8-4.4c0.1,0,0.2,0,0.2,0c0.5,3.1,0.9,6.3,1.4,9.4c0.1,0,0.2,0,0.2,0c0.5-3.1,0.9-6.2,1.4-9.4c0.1,0,0.2,0,0.2,0
		c0.3,1.5,0.6,2.9,0.9,4.4c0.1,0,0.1,0,0.2-0.1c0.4-2.7,0.8-5.4,1.3-8.2c0.1,0,0.1,0,0.2,0c0.3,1.5,0.6,3,0.9,4.5c0.1,0,0.1,0,0.2,0
		c0.4-2.8,0.8-5.5,1.3-8.3c0.1,0,0.1,0,0.2,0c0.3,1.5,0.6,3,0.8,4.6c0.1,0,0.1,0,0.2,0c0.4-2.8,0.9-5.5,1.3-8.3c0.1,0,0.1,0,0.2,0
		c0.3,1.5,0.6,3.1,0.9,4.6c0.1,0,0.2,0,0.2,0c0.4-2.8,0.8-5.6,1.3-8.4c0.1,0,0.1,0,0.2,0c0.3,1.6,0.6,3.1,0.9,4.7c0.1,0,0.1,0,0.2,0
		c0.4-2.8,0.9-5.6,1.3-8.4c0.1,0,0.1,0,0.1,0c0.3,1.6,0.6,3.3,1,5.1c2-6.3,2.9-17.1,1.6-19.1c-0.2,1.4-0.3,2.8-0.5,4.1
		c-0.1,0-0.1,0-0.2,0c-0.3-1.3-0.6-2.7-0.9-4c-0.1,0-0.1,0-0.1,0c-0.4,2.6-0.9,5.3-1.3,7.9c-0.1,0-0.1,0-0.2,0
		c-0.3-1.4-0.6-2.8-0.9-4.2c-0.1,0-0.1,0-0.2,0c-0.4,2.6-0.9,5.3-1.3,7.9c-0.1,0-0.1,0-0.2,0C124.4,201,124.1,199.6,123.8,198.3z
		 M85,205.2c0.1,0,0.1,0,0.2,0c0.3,1.5,0.6,3,0.8,4.6c0.1,0,0.2,0,0.2,0c0.4-2.8,0.8-5.6,1.3-8.3c0.1,0,0.1,0,0.2,0
		c0.3,1.6,0.6,3.1,0.9,4.6c0.1,0,0.1,0,0.2,0c0.4-2.8,0.8-5.5,1.3-8.3c0.1,0,0.1,0,0.2,0c0.3,1.6,0.6,3.1,0.9,4.7c0.1,0,0.1,0,0.2,0
		c0.4-2.8,0.9-5.7,1.3-8.5c0.1,0,0.1,0,0.2,0c0.3,1.6,0.6,3.2,0.9,5.1c1.7-6.5,3-12.7,1.6-19.1c-0.2,1.4-0.4,2.8-0.5,4.3
		c-0.1,0-0.1,0-0.2,0c-0.3-1.4-0.6-2.8-0.9-4.2c-0.1,0-0.1,0-0.2,0c-0.4,2.7-0.9,5.3-1.3,8c-0.1,0-0.1,0-0.2,0
		c-0.3-1.4-0.6-2.8-0.9-4.2c-0.1,0-0.1,0-0.2,0c-0.4,2.6-0.9,5.2-1.3,7.8c-0.1,0-0.1,0-0.2,0c-0.3-1.4-0.6-2.8-0.9-4.2
		c-0.1,0-0.1,0-0.2,0c-0.4,2.6-0.9,5.3-1.3,7.9c-0.1,0-0.1,0-0.2,0c-0.3-1.4-0.6-2.7-0.9-4.1c-0.1,0-0.1,0-0.2,0
		c-0.4,2.6-0.9,5.2-1.3,7.8c-0.1,0-0.1,0-0.2,0c-0.3-1.3-0.6-2.7-0.9-4c-0.1,0-0.2,0-0.2,0c-0.4,2.6-0.8,5.2-1.2,7.7
		c-0.1,0-0.1,0-0.2,0c-0.3-1.3-0.6-2.7-0.9-4c-0.1,0-0.1,0-0.2,0c-0.4,2.6-0.9,5.2-1.3,7.8c-0.1,0-0.1,0-0.2,0
		c-0.3-3.1-0.7-6.1-1-9.2c-0.1,0-0.2,0-0.2,0c-0.3,3-0.6,6-0.9,9c-0.1,0-0.2,0-0.2,0c-0.4-2.6-0.8-5.1-1.2-7.7c-0.1,0-0.1,0-0.2,0
		c-0.3,1.4-0.6,2.8-0.9,4.2c-0.1,0-0.1,0-0.2,0c-0.4-2.6-0.9-5.2-1.3-8.1c-0.6,1.6-0.5,3-1.2,4.5c-0.5-2.8-0.9-5.3-1.3-7.8
		c-0.1,0-0.2,0-0.2,0c-0.3,1.3-0.6,2.6-0.8,3.9c-0.1,0-0.1,0-0.2,0c-0.4-2.6-0.8-5.1-1.3-7.7c-0.1,0-0.2,0-0.2,0
		c-0.3,1.4-0.6,2.7-0.8,4.1c-0.1,0-0.1,0-0.2,0c-0.4-2.6-0.9-5.2-1.3-7.8c-0.1,0-0.1,0-0.2,0c-0.3,1.4-0.6,2.8-0.9,4.2
		c-0.1,0-0.1,0-0.2,0c-0.4-2.7-0.9-5.3-1.3-8c-0.6,1.4-0.6,2.8-1.2,4.4c-0.2-1.7-0.4-3.1-0.5-4.5c-1.2,6.4-0.2,12.7,1.6,19
		c0.3-1.8,0.7-3.4,1-5c0.1,0,0.1,0,0.2,0.1c0.4,2.8,0.9,5.6,1.3,8.4c0.1,0,0.1,0,0.2,0c0.3-1.6,0.6-3.1,0.9-4.7c0.1,0,0.1,0,0.2,0
		c0.4,2.8,0.8,5.6,1.3,8.3c0.1,0,0.1,0,0.2,0c0.3-1.6,0.6-3.1,0.9-4.7c0.1,0,0.1,0,0.2,0c0.4,2.8,0.9,5.6,1.3,8.3c0.1,0,0.1,0,0.2,0
		c0.3-1.5,0.6-3,0.9-4.5c0.1,0,0.1,0,0.2,0c0.4,2.7,0.8,5.5,1.3,8.2c0.1,0,0.2,0,0.2,0c0.3-1.5,0.6-3,0.9-4.5c0.1,0,0.1,0,0.2,0
		c0.4,2.8,0.9,5.6,1.3,8.4c0.1,0,0.1,0,0.2,0c0.3-1.6,0.6-3.1,0.9-4.7c0.1,0,0.1,0,0.2,0c0.5,3.2,0.9,6.3,1.4,9.5c0.1,0,0.2,0,0.2,0
		c0.5-3.1,1-6.3,1.4-9.4c0.1,0,0.1,0,0.2,0c0.3,1.5,0.6,3,0.8,4.5c0.1,0,0.2,0,0.2,0c0.4-2.7,0.8-5.5,1.2-8.2c0.1,0,0.1,0,0.2,0
		c0.3,1.5,0.6,3,0.9,4.6c0.1,0,0.1,0,0.2,0C84.2,210.7,84.6,207.9,85,205.2z M87.3,118.7c-0.1,0-0.1,0-0.2,0c-0.3-1.3-0.6-2.6-0.8-4
		c-0.1,0-0.1,0-0.2,0c-0.4,2.6-0.8,5.1-1.3,7.7c-0.1,0-0.1,0-0.2,0c-0.3-1.3-0.6-2.7-0.9-4c-0.1,0-0.1,0-0.2,0
		c-0.4,2.6-0.8,5.2-1.3,7.7c-0.1,0-0.1,0-0.2,0c-0.3-1.3-0.6-2.6-0.9-3.9c-0.1,0-0.1,0-0.2,0c-0.4,2.5-0.8,5.1-1.3,7.6
		c-0.1,0-0.1,0-0.2,0c-0.3-3-0.6-6.1-1-9.1c-0.1,0-0.2,0-0.2,0c-0.3,3-0.6,5.9-0.9,8.9c-0.1,0-0.2,0-0.2,0c-0.4-2.5-0.8-5-1.2-7.5
		c-0.1,0-0.2,0-0.2,0c-0.3,1.3-0.6,2.7-0.9,4.1c-0.1,0-0.1,0-0.2,0c-0.4-2.6-0.9-5.2-1.3-7.8c-0.1,0-0.2,0-0.2,0
		c-0.3,1.3-0.6,2.7-0.8,4c-0.1,0-0.1,0-0.2,0c-0.4-2.6-0.8-5.1-1.3-7.7c-0.1,0-0.2,0-0.2,0c-0.3,1.3-0.6,2.6-0.8,3.9
		c-0.1,0-0.1,0-0.2,0c-0.4-2.6-0.8-5.2-1.3-7.7c-0.1,0-0.2,0-0.2,0c-0.3,1.3-0.6,2.7-0.8,4.1c-0.1,0-0.1,0-0.2,0
		c-0.4-2.6-0.9-5.2-1.3-7.8c-0.1,0-0.1,0-0.2,0c-0.3,1.4-0.6,2.8-0.9,4.2c-0.1,0-0.1,0-0.2,0c-0.4-2.6-0.9-5.2-1.3-7.9
		c-0.6,1.3-0.6,2.8-1.2,4.3c-0.2-1.7-0.4-3.1-0.6-4.5c-1.2,6.4-0.2,12.7,1.6,19c0.3-1.8,0.7-3.4,1-5c0.1,0,0.1,0,0.2,0.1
		c0.4,2.8,0.9,5.6,1.3,8.4c0.1,0,0.1,0,0.2,0c0.3-1.6,0.6-3.1,0.9-4.7c0.1,0,0.1,0,0.2,0c0.4,2.8,0.8,5.6,1.3,8.3c0.1,0,0.1,0,0.2,0
		c0.3-1.5,0.6-3,0.9-4.5c0.1,0,0.1,0,0.2,0c0.4,2.7,0.8,5.4,1.3,8.2c0.1,0,0.1,0,0.2,0c0.3-1.5,0.6-3,0.8-4.5c0.1,0,0.1,0,0.2,0
		c0.4,2.8,0.8,5.6,1.3,8.3c0.1,0,0.2,0,0.2,0c0.3-1.5,0.6-3,0.8-4.5c0.1,0,0.1,0,0.2,0c0.4,2.8,0.8,5.5,1.3,8.3c0.1,0,0.1,0,0.2,0
		c0.3-1.5,0.6-3,0.9-4.5c0.1,0,0.1,0,0.2,0c0.5,3.1,0.9,6.2,1.4,9.4c0.1,0,0.2,0,0.2,0c0.5-3.1,1-6.3,1.4-9.4c0.1,0,0.1,0,0.2,0
		c0.3,1.5,0.6,3,0.9,4.5c0.1,0,0.1,0,0.2,0c0.4-2.7,0.8-5.5,1.3-8.2c0.1,0,0.1,0,0.2,0c0.3,1.5,0.6,3,0.8,4.6c0.1,0,0.1,0,0.2,0
		c0.4-2.8,0.9-5.5,1.3-8.3c0.1,0,0.1,0,0.2,0c0.3,1.5,0.6,3.1,0.9,4.6c0.1,0,0.1,0,0.2-0.1c0.4-2.8,0.8-5.6,1.3-8.3
		c0.1,0,0.1,0,0.2,0c0.3,1.6,0.6,3.2,0.9,4.8c0.1,0,0.1,0,0.2,0c0.4-2.8,0.9-5.6,1.3-8.4c0.1,0,0.1,0,0.2,0c0.3,1.6,0.6,3.1,0.9,4.7
		c0.1,0,0.1,0,0.2,0c0.4-2.8,0.9-5.7,1.3-8.5c0.1,0,0.1,0,0.2,0c0.3,1.6,0.6,3.3,0.9,5c1.9-4,3.1-17.1,1.6-18.9
		c-0.2,1.5-0.4,2.9-0.6,4.3h-0.1c-0.3-1.4-0.6-2.9-0.9-4.3c-0.1,0-0.1,0-0.2,0c-0.4,2.7-0.9,5.3-1.3,8c-0.1,0-0.1,0-0.2,0
		c-0.3-1.4-0.6-2.8-0.9-4.2c-0.1,0-0.1,0-0.2,0c-0.4,2.6-0.9,5.2-1.3,7.8c-0.1,0-0.1,0-0.2,0c-0.3-1.4-0.6-2.8-0.9-4.2
		c-0.1,0-0.1,0-0.2,0C88.1,113.5,87.7,116.1,87.3,118.7z"></path>
	<path d="M127,286.3c0.2-1.7,0.5-3.4,0.7-5c0.5,1.7,1,3.3,1,5C128.1,286.2,127.5,286.3,127,286.3z"></path>
</g>
<polygon class="st2" points="45.6,170.7 45.6,170.8 45.5,170.8 "></polygon>
<g onclick="select(this)" class="" id="estampa-terciaria" fill="#000000">
	<g onclick="select(this)" class="">
		<path d="M32.9,63.8c0.1,3.2-0.4,6.3-0.1,9.5c0.2,2.4,0.6,4.6,1.7,6.8c1.6,3.3,2.7,6.8,3.9,10.2
			c0.1,0.3,0.1,0.7,0.2,1.1c-0.2,1.3-0.5,2.6-0.7,3.8c-0.1,0-0.1,0-0.2,0c-0.5-2.6-0.9-5.2-1.4-7.8c-0.1,0-0.1,0-0.2,0
			c-0.3,1.3-0.5,2.7-0.8,4.1c-0.1,0-0.2,0-0.2,0c-0.5-2.6-0.9-5.1-1.4-7.7c-0.1,0-0.2,0-0.2,0c-0.3,1.3-0.5,2.7-0.8,4
			c-0.1,0-0.2,0-0.2,0c-0.5-2.6-0.9-5.1-1.4-7.9c-0.6,1.5-0.6,2.9-1.2,4.3c-0.5-2.6-0.9-5.2-1.4-7.8c-0.1,0-0.1,0-0.2,0
			c-0.3,1.4-0.5,2.8-0.8,4.2c-0.1,0-0.1,0-0.2,0c-0.1-1.6-0.3-3-0.5-4.6c-1.4,2.9,0.1,16.3,2,19.1c0.3-1.6,0.5-3.2,0.8-4.8
			c0,0,0.1,0,0.2,0c0.5,2.8,1,5.6,1.4,8.4c0.1,0,0.1,0,0.2,0c0.3-1.6,0.5-3.1,0.8-4.7c0.1,0,0.1,0,0.2,0c0.5,2.8,0.9,5.6,1.4,8.3
			c0.1,0,0.2,0,0.2,0c0.2-1.5,0.5-2.9,0.7-4.4c0.1,0,0.2,0,0.3,0c0.5,2.7,0.9,5.4,1.4,8.1c0.1,0,0.1,0,0.2,0
			c0.3-1.6,0.5-3.1,0.8-4.7c0.1,0,0.1,0,0.2,0c0.5,2.8,0.9,5.6,1.4,8.3c0.1,0,0.1,0,0.2,0c0.3-1.6,0.5-3.1,0.8-4.7
			c0.1,0,0.2,0,0.2,0c0.4,2.7,0.8,5.4,1.3,8.2c-2,0.9-4.2,0.9-6.3,1.2c-2.5,0.4-4.9,0-7.4,0c-0.4,0-0.9-0.1-1.3-0.1
			c0.5-3.6,0.3-7.2-0.1-10.8c-0.1,0-0.2,0-0.4,0c-0.1,1.4-0.3,2.9-0.4,4.3c-0.1,0-0.1,0-0.2,0c-0.3-1.4-0.6-2.8-0.9-4.1
			c-0.1,0-0.1,0-0.2,0c-0.4,2.7-0.8,5.3-1.2,7.9c-0.5-1.2-0.5-2.4-1.1-3.5c-0.1,0-0.2,0-0.3,0.1c-0.3,2-0.5,3.9-0.8,5.9
			c-0.4,0.2-0.7,0-0.9-0.3c-0.1-0.2-0.5-0.4-0.7-0.2c-1,1-2.2,0.4-3.3,0.3c-2.9-0.3-5.8-0.8-8.6-1.7c-2-0.6-4-1-5.8-2
			c-0.2-1.9,0.6-3.7,0.8-5.5c0.3-2.1,0.6-4.3,0.9-6.4C3.7,98.5,3.7,99,4,99.5c0.3-1.6,0.5-3.1,0.8-4.7c0.1,0,0.1,0,0.2,0
			c0.5,2.8,0.9,5.6,1.4,8.4c0.1,0,0.1,0,0.2,0c0.3-1.6,0.5-3.1,0.8-4.7c0.1,0,0.1,0,0.2,0c0.5,2.8,1,5.6,1.4,8.5c0.1,0,0.2,0,0.3,0
			c0.8-2.7,0.8-5.6,1.6-8.4c0.3,1.5,0.6,3,0.9,4.5c0.1,0,0.1,0,0.2,0c0.4-2.8,0.8-5.6,1.1-8.3c0.1,0,0.1,0,0.2,0
			c0.3,1.5,0.6,3.1,0.9,4.6c0.1,0,0.1,0,0.2,0c0.4-2.8,0.7-5.6,1.1-8.4c0.1,0,0.1,0,0.2,0c0.3,1.6,0.6,3.1,0.9,4.6
			c0.1,0,0.1,0,0.2,0c0.4-2.8,0.8-5.6,1.1-8.4c0.1,0,0.1,0,0.2,0c0.3,1.5,0.6,3.1,0.9,4.6c0.1,0,0.1,0,0.2,0
			c0.4-2.8,0.8-5.6,1.2-8.3c0.1,0,0.1,0,0.2,0c0.3,1.5,0.6,3.1,0.9,4.6c0.1,0,0.1,0,0.2,0c0.4-2.8,0.7-5.6,1.1-8.3
			c0.1,0,0.1,0,0.2,0c0.3,1.6,0.7,3.2,1,5.1c2.3-8.3,2.4-17.4,1.3-19.3c-0.1,1.4-0.3,2.8-0.4,4.3c-0.1,0-0.1,0-0.2,0
			c-0.3-1.3-0.6-2.7-0.9-4c-0.1,0-0.1,0-0.2,0.1c-0.4,2.6-0.8,5.1-1.1,7.7c-0.1,0-0.1,0-0.2,0c-0.3-1.3-0.6-2.7-0.9-4
			c-0.1,0-0.1,0-0.2,0c-0.4,2.6-0.8,5.3-1.1,7.9c-0.1,0-0.1,0-0.2,0c-0.3-1.3-0.6-2.7-0.9-4c-0.1,0-0.2,0-0.3,0
			c-0.4,2.6-0.7,5.2-1.1,7.7c-0.1,0-0.1,0-0.2,0c-0.3-1.4-0.6-2.8-0.9-4.2c-0.1,0-0.1,0-0.2,0c-0.4,2.6-0.8,5.2-1.1,7.7
			c-0.1,0-0.2,0-0.2,0c-0.3-1.3-0.6-2.7-0.9-4.1c-0.1,0-0.1,0-0.2,0c-0.4,2.6-0.8,5.2-1.2,7.8c-0.1,0-0.1,0-0.2,0
			c-0.3-1.3-0.6-2.6-0.9-3.9c-0.1,0-0.2,0-0.2,0c-0.4,2.6-0.7,5.1-1.1,7.6c-0.1,0-0.1,0-0.2,0C9.7,89.1,9.4,86,9,82.9
			c-0.7,2.7-0.4,5.6-1.4,8.3c-0.4-2.2-0.8-4.4-1.2-6.6c-0.1,0-0.1,0-0.2,0c-0.3,1.4-0.5,2.8-0.8,4.2c-0.1,0-0.1,0-0.2,0
			c-0.1-0.5-0.2-1-0.3-1.5c1-6.4,1.6-13,2.7-19.4c0.2-0.1,0.2-0.3,0.1-0.5c0-0.1,0.1-0.3,0.1-0.4c0.7,0.9,0.3,2.1,0.8,3.2
			c0.1-0.3,0.1-0.5,0.2-0.7c0.4-2.8,0.7-5.6,1.1-8.4c0-0.2-0.2-0.9,0.5-0.5c-0.1,1.6,0.5,3,0.9,4.5c0.4-2.8,0.7-5.5,1.1-8.3
			c0.1,0,0.1,0,0.2,0c0.3,1.5,0.6,3,0.9,4.5c0.1,0,0.1,0,0.2,0c0.4-2.8,0.7-5.5,1.1-8.3c0.1,0,0.1,0,0.2,0c0.3,1.5,0.6,3,0.9,4.5
			c0.1,0,0.2,0,0.2,0c0.4-2.8,0.7-5.6,1.1-8.3c0.1,0,0.1,0,0.2,0c0.3,1.6,0.6,3.1,0.9,4.7c0.1,0,0.1,0,0.2,0
			c0.4-2.8,0.8-5.6,1.1-8.4c0.1,0,0.1,0,0.2,0c0.3,1.5,0.6,3.1,0.9,4.6c0.1,0,0.1,0,0.2,0c0.4-2.8,0.8-5.6,1.1-8.4
			c0.1,0,0.1,0,0.2,0c0.3,1.6,0.6,3.2,0.9,4.8c0.5-1.4,0.8-2.8,1-4.2c0.4-2.4,1.2-4.6,1-7.1c0.9-0.8,1.8-1.7,2.6-2.6
			c0.3-0.3,0.4-0.3,0.6,0c0.1,2.7,1.1,5.2,1.7,7.8c0.1,0.5,0.2,1.1,0.1,1.6c-0.7,1.3-0.5,2.9-1.1,4.5c-0.5-2.8-1-5.5-1.5-8.1
			C27,39.7,27,41,26.4,42.2c-0.5-1.3-0.2-2.7-0.8-3.9c-1.1,6.5,0.2,12.8,2.1,19.2c0.3-1.8,0.6-3.4,0.9-5c0.1,0,0.1,0,0.2,0
			c0.5,2.8,1,5.6,1.4,8.4c0.1,0,0.1,0,0.2,0c0.3-1.6,0.5-3.2,0.8-4.7c0.1,0,0.1,0,0.2,0c0.3,1.8,0.6,3.7,0.9,5.5
			C32.7,62.2,32.8,63,32.9,63.8z"></path>
		<path d="M185.6,113.1c-0.8-1.1,0.1-2.1,0-3.2c0-0.3,0.1-0.7,0.1-1c0.1-0.8,0.2-1.6,0.3-2.4c0.8,1.4,0.6,3.1,1.3,4.9
			c0.4-3,0.8-5.7,1.1-8.5c0.1,0,0.2,0,0.2,0c0.3,1.5,0.6,3,0.9,4.6c0.1,0,0.1,0,0.2,0c0.4-2.8,0.8-5.6,1.1-8.4c0.1,0,0.1,0,0.2,0
			c0.3,1.5,0.6,3.1,0.9,4.6c0.1,0,0.1,0,0.2,0c0.4-2.8,0.8-5.6,1.2-8.4c0.1,0,0.1,0,0.2,0c0.3,1.6,0.6,3.1,0.9,4.7
			c0.1,0,0.1,0,0.2,0c0.4-2.7,0.7-5.5,1.1-8.2c0.1,0,0.1,0,0.2,0c0.3,1.5,0.6,3.1,0.9,4.6c0.1,0,0.1,0,0.2,0
			c0.4-2.8,0.7-5.6,1.1-8.4c0.1,0,0.1,0,0.2,0c0.3,1.6,0.6,3.1,0.9,4.7c0.9-3.2,1.7-6.3,2-9.6c0.3-2.9-0.1-5.9-0.2-8.8
			c0.2,0,0.3,0,0.5,0c0.6,2.2,1.1,4.3,1.5,6.6c-0.1,0.6,0,1.4,0.5,1.4c0.6,0,0.3-0.9,0.3-1.4c-0.1-1,0.3-2,0.4-2.9
			c0.1,0,0.3,0,0.4,0c0.2,1,0.3,2.1,0.5,3.1c-0.2,0.1-0.4,0.2-0.4,0.4c0,0.3,0.3,0.3,0.5,0.4c0.2,1.2,0.5,2.5,0.7,3.7
			c0.1,0,0.1,0,0.2,0c0.3-1.5,0.5-3,0.7-4.6c0.1,0,0.2,0,0.2,0c0.5,2.7,0.9,5.5,1.4,8.2c0.1,0,0.1,0,0.2,0c0.2-1.4,0.5-2.8,0.7-4.1
			c1,2.5,1.1,5.2,1.9,7.8c0.3-1.6,0.5-3.1,0.8-4.7c0.1,0,0.1,0,0.2,0c0.5,2.8,0.9,5.6,1.4,8.4c0.1,0,0.1,0,0.2,0
			c0.3-1.6,0.5-3.1,0.8-4.7c0.1,0,0.1,0,0.2,0c0.5,2.8,0.9,5.6,1.4,8.5c0.1,0,0.1,0,0.2,0c0.3-1.6,0.5-3.1,0.8-4.7
			c0.1,0,0.1,0,0.2,0c0.5,3.2,1.1,6.3,1.6,9.5c0.3-0.1,0.3-0.4,0.3-0.6c0.3-2.5,0.6-5.1,1-7.6c0-0.3-0.1-0.8,0.3-0.8
			c0.4,0,0.3,0.5,0.4,0.8c0.2,1,0.4,2,0.6,3c0.1,0,0.2,0,0.2,0c0.4-2.8,0.7-5.6,1.1-8.3c0.1,0,0.1,0,0.2,0c0.3,1.5,0.6,3.1,0.9,4.6
			c0.5-1.1,0.2-2.2,0.8-3.1c0.8,3.8,1.3,7.8,1.9,11.6c0.2,1.3,0.8,2.6,0.4,4c-2.4,0.7-4.8,1.8-7.2,2.5c-1.9,0.5-3.8,1-5.7,1.2
			c-1.5,0.1-2.9,0.5-4.4,0.7c-0.3-1.5-0.6-3.1-0.8-4.6c-0.1,0-0.1,0-0.2,0c-0.3,1.4-0.5,2.8-0.8,4.2c-0.1,0-0.1,0-0.2,0
			c-0.5-2.6-0.9-5.2-1.4-7.8c-0.1,0-0.1,0-0.2,0c-0.3,1.4-0.5,2.8-0.8,4.2c-0.1,0-0.1,0-0.2,0c-0.5-2.6-0.9-5.2-1.4-8.1
			c-0.6,1.3-0.3,2.6-1.2,3.7c-0.2-1.4-0.3-2.5-0.5-3.9c-0.6,1.3-0.6,2.4-0.5,3.5c0.1,3.3,0,6.6,0.8,9.8l0,0c-0.5,0-0.6-0.4-0.7-0.8
			c-0.1-0.5-0.1-1.1-0.7-1.7c-0.1,0.8-0.1,1.4-0.2,2c0,0.2-0.1,0.5-0.4,0.5c-0.4,0.1-0.5-0.2-0.6-0.5c-0.2-0.5,0-1.1-0.4-1.6
			c-0.4,0.2-0.3,0.4-0.3,0.6c0,1.3-0.6,1.6-1.8,1.5c-1.9-0.1-3.8,0-5.7,0C189.9,113.8,187.8,113.7,185.6,113.1z"></path>
		<path d="M201.9,73.9c-0.2,0-0.3,0-0.5,0c-0.2-0.1-0.1-0.5-0.5-0.5c-0.1,1.4-0.3,2.9-0.4,4.3c-0.1,0-0.1,0-0.2,0
			c-0.3-1.4-0.6-2.7-0.9-4.1c-0.1,0-0.1,0-0.2,0c-0.4,2.6-0.8,5.2-1.1,7.8c-0.1,0-0.1,0-0.2,0c-0.3-1.4-0.6-2.7-0.9-4.1
			c-0.1,0-0.1,0-0.2,0c-0.4,2.6-0.8,5.2-1.1,7.8c-0.1,0-0.1,0-0.2,0c-0.3-1.4-0.7-2.8-1-4.2c-0.1,0-0.1,0-0.1,0
			c-0.4,2.6-0.8,5.2-1.2,7.9c-0.1,0-0.1,0-0.2,0c-0.3-1.2-0.6-2.3-0.9-3.5c0.6-2.7,1.8-5.2,2.2-7.9c0.7-4.7,0.6-9.4,0.7-14.1
			c0-2,0.3-3.9,0.2-5.9c0.1-1.3,0-2.6,0.4-3.9c0.6,1.3,0.6,2.8,1.2,4.1c0.4-2.8,0.8-5.5,1.1-8.3c0.1,0,0.1,0,0.2,0
			c0.3,1.6,0.6,3.2,1,5c1.6-6.6,2.6-12.8,1.6-19.3c-0.1,0-0.2,0-0.3,0c-0.1,1.4-0.3,2.9-0.4,4.3c-0.1,0-0.1,0-0.2,0
			c-0.3-1.5-0.7-2.9-1-4.4c0.1-1,0.3-1.9,0.4-2.8c0.7,0.5,1.4,1.1,1.9,1.7c0.7,3.1,1.4,6.2,2.1,9.3c0.1,0,0.1,0,0.2,0
			c0.3-1.6,0.5-3.1,0.8-4.7c0.1,0,0.1,0,0.2,0c0.5,2.8,0.9,5.5,1.4,8.3c0.1,0,0.1,0,0.2,0c0.3-1.6,0.5-3.1,0.8-4.7
			c0.1,0,0.1,0,0.2,0c0.5,2.8,0.9,5.6,1.4,8.4c0.1,0,0.1,0,0.2,0c0.3-1.6,0.5-3.2,0.8-4.8c0.1,0,0.1,0,0.2,0
			c0.5,2.8,0.9,5.5,1.4,8.3c0.1,0,0.1,0,0.2,0c0.2-1.3,0.5-2.6,0.7-3.9c0.1,0,0.2,0,0.4,0c0.4,2.5,0.9,5.1,1.3,7.6
			c0.1,0,0.1,0,0.2,0c0.3-1.5,0.5-3,0.8-4.4c0.1,0,0.2,0,0.3,0c0.5,2.7,0.9,5.5,1.4,8.2c0.1,0,0.1,0,0.2,0c0.3-1.5,0.5-3,0.8-4.6
			c0.1,0,0.2,0,0.2,0c0.5,3.1,1,6.3,1.6,9.4c0.5-1.1,0.3-2.3,0.8-3.3c0.9,3.1,1.5,6.3,1.8,9.5c0.4,3.6,1,7.1,1.8,10.6
			c-0.2,0.6,0,1.4-0.5,2.1c-0.3-1.5-0.6-2.8-0.9-4.2c-0.1,0-0.2,0-0.2,0c-0.4,2.5-0.8,5.1-1.1,7.6c-0.1,0-0.1,0-0.2,0
			c-0.4-3-0.7-6.1-1.1-9.1c-0.1,0-0.2,0-0.3,0c-0.3,3-0.5,6-0.7,9c-0.1,0-0.2,0-0.3,0c-0.4-2.5-0.9-5-1.3-7.5c-0.1,0-0.1,0-0.2,0
			c-0.3,1.4-0.5,2.8-0.8,4.2c-0.1,0-0.1,0-0.2,0c-0.5-2.6-0.9-5.2-1.4-7.8c-0.1,0-0.1,0-0.2,0c-0.3,1.4-0.5,2.8-0.8,4.2
			c-0.1,0-0.1,0-0.2,0c-0.5-2.6-1-5.3-1.4-7.9c-0.1,0-0.1,0-0.2,0c-0.3,1.4-0.5,2.8-0.8,4.2c-0.1,0-0.1,0-0.2,0
			c-0.5-2.6-0.9-5.3-1.4-7.9c-0.5,1.4-0.6,2.9-1.1,4.4c-0.5-2.8-1-5.5-1.4-8.1c-0.4,0.9-0.5,1.8-0.7,2.6c-0.1,0.3,0,0.6-0.4,0.6
			c-0.3,0-0.3-0.3-0.3-0.6c-0.1-0.2-0.1-0.5-0.1-0.7c-0.3-1.8-0.7-3.7-1-5.5c-0.1,0-0.2,0-0.3,0c-0.3,1.3-0.5,2.7-0.7,4
			c-0.1,0-0.1,0-0.2,0c-0.2-1.4-0.4-2.9-0.6-4.3c-0.2,0-0.3,0-0.5,0C201.4,66.3,201.1,70.1,201.9,73.9z"></path>
	</g>
	<path d="M203.3,80.5c0.3,0.2,0.6,0.2,0.8,0c0,0.5,0.3,1.4-0.3,1.4C203.3,81.9,203.3,81.1,203.3,80.5z"></path>
	<path d="M204.6,77.5c0-0.3-0.1-0.6,0.2-0.9c0.3,0.3,0.2,0.6,0.2,0.9C204.8,77.5,204.7,77.5,204.6,77.5z"></path>
	<path d="M205.5,80.6c0.1,0.2,0.2,0.5,0.1,0.7c-0.2,0-0.5-0.1-0.5-0.4C205.1,80.8,205.3,80.7,205.5,80.6z"></path>
</g>
</svg>
