<!--?xml version="1.0" encoding="utf-8"?-->
<!-- Generator: Adobe Illustrator 24.2.3, SVG Export Plug-In . SVG Version: 6.00 Build 0)  -->
<svg version="1.1" id="Camada_1" xmlns="http://www.w3.org/2000/svg" xmlns:xlink="http://www.w3.org/1999/xlink" x="0px" y="0px" viewBox="0 0 229 418" enable-background="new 0 0 229 418" xml:space="preserve">
<g onclick="select(this)" class="" id="estampa-primaria" fill="#ffffff">
	<path d="M43.3154755,120.5660324c0.0284691-2.3716431-0.4590111-4.6724167-0.9516335-6.9733505
		c-0.1159592-0.5416336-0.3904419-0.4311905-0.7769508-0.2810745c-1.7557564,0.6819687-3.5452843,1.1858673-5.4632797,1.1675491
		c-3.7010345-0.035347-7.4035816,0.1325226-11.1025429-0.1539001c-1.8698044-0.144783-3.7439747-0.2618103-5.6183205-0.3134079
		c-3.8254175-0.1053314-7.4480133-1.3213501-11.1703939-1.9861069c-1.7261548-0.3082733-3.4245806-0.7767792-5.1287928-1.1999283
		c-0.6223583-0.1545334-1.1975796-0.4447632-1.7198904-0.8264084c1.7932036-9.4621811,2.67781-19.0589294,4.2438087-28.5559235
		c0.8441892-5.1195831,1.1583543-10.316803,2.2550154-15.4061127c1.7680922-8.2052307,4.5233822-15.9794159,9.6139402-22.7770844
		c2.0456562-2.7316666,4.3404846-5.240078,7.0205536-7.3503761c1.4273224-1.1238823,2.477396-2.6746292,4.1114101-3.5436478
		c3.6025047-1.9159126,7.2584648-3.7254333,11.0307045-5.28339c9.9449806-4.1073265,19.921032-8.1443062,29.3457184-13.3891525
		c2.0102844-1.118721,4.0503998-2.1454039,5.6226578-3.9533529c0.8873672-1.0203838,2.1224518-1.8366318,3.6931229-1.4204988
		c-2.0108643,1.1796284-2.439743,2.2058954-2.0199966,4.4530277c0.4275513,2.2889194,1.4937973,4.2651157,2.7723083,6.1657696
		c5.5502777,8.2511082,11.9080429,15.8050308,19.1893234,22.5971069c3.0789642,2.872097,6.4627762,5.1818428,10.3784943,6.7113991
		c0.7296219,0.2850113,1.4053192,0.7671661,2.2481384,0.6932755l-0.0195007-0.0175781
		c-0.0059357,0.2429848,0.1727142,0.2159576,0.3275986,0.2236862c0.6926956,0.3319168,1.3995209,0.5992584,2.1911774,0.4788704
		c0.1675644-0.000515,0.3351364-0.00103,0.5027008-0.0015411c0.9370193,0.2686615,1.6577377-0.3968735,2.4910507-0.5761108
		c0.8983688-0.3311958,1.796051-0.6642799,2.6952209-0.9932899c5.258667-1.92416,9.1676788-5.6882591,13.1161346-9.452404
		c5.9939117-5.7141266,11.0227661-12.2141247,15.7610931-18.9537144c1.4871521-2.1152267,2.7719421-4.3775358,3.2985382-6.9872799
		c0.372467-1.8458881-0.0813293-3.1546144-1.6365662-4.2228565c1.689743-0.0080633,2.787796,1.0322161,3.800415,2.1853056
		c0.3409882,0.3882942,0.6674042,0.7393484,1.116394,1.0329866c10.0146484,6.5494308,21.2131042,10.5967216,32.1548157,15.1745586
		c3.9646301,1.6587296,7.8813324,3.4354458,11.7173004,5.3391037c2.1572418,1.0705643,3.9098053,2.9785423,5.7968903,4.5659981
		c7.7440948,6.5144882,12.2818298,14.9835739,14.937027,24.5909424c1.0978088,3.9723244,1.9447174,8.0021782,2.3507385,12.0990181
		c0.5504456,5.5546799,2.1298981,10.8914719,3.243454,16.3265305c1.266861,6.1833954,2.1013794,12.4376221,3.0679626,18.6702042
		c-0.3147125,0.1666946-0.6138306,0.378334-0.9463959,0.4935226c-7.6485291,2.6490784-15.4852905,4.6249695-23.569519,5.0004501
		c-5.6739044,0.2635498-11.4182587,0.4822235-17.0656738-0.6848907c-0.5554657-0.1148071-0.760025,0.0102997-0.8614807,0.5922012
		c-0.3760071,2.1567078-0.9715576,4.284668-0.7284698,6.5097427c-0.4395447,0.8079529-0.2937622,1.7098999-0.3952789,2.5685043
		c-0.9904785,8.3778839-1.7196045,16.7745209-1.7455292,25.2196808c-0.0067596,2.2003479,0.0678711,4.3850098,0.5240631,6.5554199
		c0.4012146,1.9087219-0.0424194,3.824707-0.2053833,5.7289886c-0.1811066,2.1159973-0.2472534,4.2288055-0.1484985,6.3471375
		c0.1008301,2.1621704-0.1491394,4.3112488-0.201355,6.4654999c-0.0686493,2.8334503-0.1219788,5.6729736,0.1280365,8.5079346
		c0.1475372,1.6729126,0.0890656,3.3505859-0.0995636,5.0267944c-0.3490601,3.1017303,0.1976471,6.1180725,0.8823853,9.132782
		c1.6445313,7.2402039,1.376709,14.5228577,0.3382416,21.8097839c-0.3054504,2.1432648-0.3711243,4.2084198,0.33078,6.3557587
		c1.7736206,5.4257813,1.8118896,11.0058594,0.9376068,16.6037598c-0.2313843,1.4815369-0.2441101,2.924942,0.0944519,4.391922
		c0.8729248,3.7824249,0.4466705,7.6405487,0.6409302,11.4634857c0.3019714,5.9425049,0.6891174,11.8815613,1.4377136,17.7932434
		c0.2543182,2.0083618,0.2190552,4.0569458,0.2554779,6.0882263c0.0326843,1.8235168-0.3323059,2.3253479-2.0823517,2.8504028
		c-3.0059357,0.901886-6.1241455,1.1565552-9.2253571,1.4766541c-7.6871338,0.7934875-15.4048157,0.8653259-23.1230621,1.0100403
		c-11.2351074,0.2105713-22.4662933,0.6520691-33.7017746,0.8132324
		c-12.4784012,0.1789856-24.9356842-0.8466187-37.4157257-0.8479919
		c-8.3975601-0.0009155-16.7974777-0.1001892-25.1780052-0.7355652c-4.1490288-0.3145447-8.2845459-0.7521667-12.3531036-1.6717529
		c-0.1949997-0.0440674-0.3914108-0.0827026-0.5848618-0.1327515c-3.2452545-0.839325-3.60149-1.1888428-3.4040909-4.5171509
		c0.4607124-7.7680969,1.009407-15.5311584,1.5535927-23.2940521c0.142662-2.0351257,0.2767639-4.0680084,0.2285728-6.1076813
		c-0.0426178-1.8038025,0.03442-3.5982361,0.3603058-5.374054c0.4145927-2.2592163,0.4561462-4.5098877,0.1247139-6.7920074
		c-0.264679-1.8225403-0.3195381-3.6938171,0.1233063-5.4887848c0.676609-2.7424774,0.4015732-5.4645386,0.1611404-8.211441
		c-0.3064613-3.501236-0.7323151-6.9971313-0.5579529-10.5271454c0.2109222-4.2702332,1.2140503-8.371933,2.6384811-12.3757019
		c0.3826904-1.0757294,0.6632652-2.0986328,0.4853249-3.2543335c-0.1889801-1.2274475-0.1528969-2.4721222,0.079216-3.7011414
		c0.3070526-1.6258392,0.1913109-3.2480927,0.1103516-4.8917236c-0.1628189-3.3054199-0.1816635-6.6195679-0.195446-9.9303894
		c-0.0538597-12.9391785-0.0427551-25.8787994-0.1403427-38.817627c-0.0386467-5.1235809-0.9980011-10.1754761-1.512352-15.2625809
		C43.6579247,123.2591858,43.4763603,121.9136505,43.3154755,120.5660324z"></path>
	<path d="M118.6460648,37.2008209c-3.3701782,0.0023422-6.7403717,0.0046844-10.1104202,0.0070038
		c-4.2255859-4.7959595-8.777092-9.2850685-13.1581726-13.9347305c-3.4844666-3.6980877-6.1815872-7.9202614-8.5695572-12.3653116
		c-0.2612915-0.4863997-0.5407562-0.9795322-0.5622482-1.558548c3.0596466,0.2729836,6.1170883,0.5771656,9.1797791,0.813076
		c8.3534698,0.6434383,16.702774,1.4236479,25.0988083,0.8302774c6.7656326-0.4781485,13.5331192-0.9303112,20.2997818-1.3940048
		c-0.3109283,1.6447992-1.2687531,2.9918385-2.0830841,4.3920069c-2.1966553,3.7769995-4.815094,7.2333136-7.8688354,10.3761835
		C126.7548981,28.6041565,122.7176437,32.9191399,118.6460648,37.2008209z"></path>
</g>
<g onclick="select(this)" class="" id="estampa-secundaria" fill="#ededed">
	<path d="M141.1286926,26.3537941c1.1490479,0.7973785,2.3093872,1.5791969,3.4417877,2.3995419
		c0.4751129,0.3441906,0.9525452,0.3167,1.4789734,0.2224903c2.870636-0.5137253,5.7444-1.0101452,8.615097-1.5236206
		c0.5219421-0.0933571,1.0058136-0.1276283,1.5083466,0.1372147c3.4677887,1.8274784,7.0374146,3.4315929,10.7046967,4.8181076
		c0.0980835,0.0370789,0.1738281,0.1330643,0.447113,0.3504105c-4.5401154,0.8461761-8.9062195,1.6599197-13.2805786,2.4752007
		c-0.0311584,0.460968,0.3644257,0.5095711,0.5826569,0.6751556c3.5349274,2.6822319,7.0706787,5.3636894,10.6334839,8.0086555
		c0.6133728,0.4553566,0.8838806,0.9309464,0.8216705,1.7004242c-0.0835876,1.0336838-0.0040741,2.0805168-0.0870972,3.1142807
		c-0.0660248,0.8217659,0.2318573,1.0117416,1.0148926,0.9713516c3.9137878-0.2018585,7.8313904-0.2926674,11.7502594-0.3642921
		c1.0708771-0.019577,1.3656158,0.3651924,1.523407,1.2905731c0.2816925,1.6520271,0.6030731,3.3029327,1.0283661,4.9226952
		c0.2441101,0.929615,0.0256805,1.1735878-0.9088898,1.2045937c-4.6754761,0.155117-9.3501129,0.3450089-14.0230103,0.5658836
		c-8.6681824,0.4097214-17.3117218,1.1336975-25.9334717,2.1172791c-0.1137238,0.0129738-0.2220764,0.0732498-0.513031,0.1735039
		c2.7770233,0.7179947,5.437088,1.2628822,7.993988,2.1164742c1.738205,0.5802803,2.9732056,0.3025055,4.27388-0.9456062
		c1.452652-1.39394,1.6927643-1.3441925,2.2123566,0.5580177c0.5196228,1.9023056,1.6125488,2.8046227,3.489502,3.1780891
		c1.677124,0.3337173,3.2836456,1.0077133,4.9478149,1.4263306c0.9069519,0.2281418,1.1772003,0.7320862,1.2564545,1.5874786
		c0.2137299,2.3071976,0.540802,4.604187,0.7381287,6.912468c0.0741272,0.8671951,0.3629761,1.130867,1.2437897,1.1204453
		c4.2790527-0.0506744,8.5589905-0.0299072,12.8386078-0.0311737c0.3141785-0.0000839,0.6283569,0.0257339,1.0621948,0.0447617
		c-0.9634399,2.9214706-1.9048615,5.7573395-2.8305664,8.5983429c-0.1992645,0.6115189-0.6862335,0.4501419-1.0944061,0.4412766
		c-2.4784241-0.0537491-4.9563141-0.1321106-7.4346924-0.1882019c-0.2538757-0.0057449-0.5450134-0.1415634-0.8616638,0.1894531
		c0.6448059,0.4799881,1.2419128,0.9891815,1.9015961,1.3973389c0.6614227,0.4092255,0.6566315,0.6578598,0.0773773,1.2058334
		c-2.8170929,2.6648712-5.5606537,5.4073944-8.3778534,8.0721588c-0.6681824,0.6320419-0.5780029,0.887764,0.1442261,1.3570862
		c4.8934631,3.1799316,9.7680359,6.3891907,14.6252899,9.6240921c0.6008911,0.4001846,0.9916534,0.3852005,1.5588531-0.0420761
		c1.9792328-1.4909668,4.0123596-2.9102936,6.0007019-4.3894882c0.5322876-0.3959885,0.7587585-0.4028931,0.959549,0.2966003
		c0.3738556,1.3024216,1.0739136,2.5562057,1.2034302,3.8729477c0.1799469,1.8295441,0.2086182,3.7942963-2.1220245,4.9063187
		c1.6044769,0.4613037,1.4109192,1.5003662,1.2999115,2.559082c-0.1957855,1.8676224-0.372818,3.7396851-0.4674377,5.6144257
		c-0.0494537,0.9799118-0.3761292,0.9444733-1.0676575,0.5254288c-1.9826355-1.2014618-3.9910126-2.3604965-5.975708-3.558609
		c-0.483963-0.29216-0.8690033-0.4023361-1.4069672-0.0437927c-8.316452,5.5426712-16.8069763,10.8046417-25.5527496,15.6853714
		c0.2492371,0.416687,0.6031647,0.2052917,0.8726654,0.1999359c3.4779205-0.069046,6.9550781-0.180603,10.4331665-0.2337189
		c0.6489105-0.0099335,1.0136414-0.2624512,1.3529816-0.7719269c0.841629-1.2635651,1.7663879-2.4724731,2.5896301-3.7472687
		c0.4229736-0.6550369,0.8776093-0.8866272,1.6704102-0.764595c5.3719482,0.8269043,10.7350311,1.6990433,16.0538483,2.82621
		c-0.2298584,2.6080475-0.4597168,5.2155457-0.6898041,7.8235779c-3.3406219-0.6065216-6.6775208-1.2335358-10.022583-1.8136749
		c-2.2829895-0.3959503-4.5805054-0.7080536-6.8648224-1.0969391c-0.7344513-0.1250153-1.2702026-0.0301208-1.4367828,0.7862701
		c-0.2890472,1.4164124-1.2306366,1.6091614-2.5351105,1.668335c-9.5461273,0.4329681-19.0918121,0.8519135-28.6504211,0.765274
		c-2.9970093-0.0271454-5.992363-0.205658-8.989357-0.2791901c-0.6677094-0.0163879-1.0871506-0.2104034-1.415947-0.8343201
		c-1.0004272-1.8983002-2.0711212-3.7595825-3.225914-5.8356934c8.7079849,0.7956543,17.2205429,1.2850494,25.8335648,1.2868958
		c-1.4563141-0.7550812-2.9126434-1.5101624-4.5814819-2.3754578c4.6038361-2.3795853,9.0250244-4.778038,13.5530853-7.5700607
		c-1.5227356-0.4800644-2.8143311-0.9164047-4.1229248-1.2939835c-3.0700226-0.8858414-6.1554565-1.7192078-9.2175446-2.6311569
		c-0.69487-0.2069397-1.0731964-0.0496597-1.508606,0.4920502c-1.477066,1.8377151-3.0343781,3.6111679-4.5052185,5.4536743
		c-0.4441986,0.5564346-0.7622375,0.6422882-1.3646393,0.2454376c-1.7355042-1.1433411-3.4967804-2.2495422-5.2774811-3.3213425
		c-0.6334381-0.3812637-0.7515945-0.6450653-0.2029266-1.2374268c1.1349335-1.2252655,2.190155-2.524292,3.4225464-3.9613647
		c-9.7594147-2.3635101-19.435585-4.2607651-29.4703903-5.3804092c1.6880188-2.4105453,3.2517014-4.6646423,4.8410645-6.9004974
		c0.4842377-0.6812057,1.2069702-0.3054276,1.7806625-0.2123947c4.2188492,0.6841812,8.4348526,1.3903732,12.6392441,2.1580887
		c5.1896973,0.9476242,10.3338852,2.1163254,15.456398,3.3743973c0.631897,0.1551895,1.0253601,0.057045,1.4616547-0.4214706
		c4.7681427-5.229538,9.6877136-10.3150482,14.7159271-15.2944641c2.6024933-2.5772324,5.2580261-5.1009216,7.8852997-7.6532364
		c0.2195282-0.2132721,0.5533295-0.3355789,0.6163788-0.7661362c-2.7179871-0.281105-5.4247437-0.0163345-8.128067-0.0088501
		c-5.7604675,0.0159454-11.5067139,0.3594437-17.2490234,0.793457c-1.1508179,0.0869751-2.1179199,0.4369354-3.0441895,1.1740265
		c-3.3791504,2.6889954-6.913681,5.1664658-10.5414658,7.5135956c-0.7763138,0.5022583-1.0662994,0.4723892-1.3858719-0.4580994
		c-0.8295517-2.4153824-1.7539597-4.7994232-2.6934052-7.1750946c-0.2370758-0.5995331-0.1934586-0.8869019,0.4114914-1.2024994
		c1.2034454-0.6278534,2.3413696-1.379837,3.5300598-2.0377731c0.5766907-0.319191,0.6616669-0.6483307,0.3802643-1.2494812
		c-0.676857-1.4459915-1.2502594-2.9401855-1.9197464-4.3898697c-0.3197403-0.692337-0.1680222-0.8570175,0.5729599-0.8860703
		c3.4748993-0.1362762,6.9475632-0.3290558,10.4215775-0.4894028c0.5252686-0.0242538,1.0113983-0.059639,1.4603119-0.4094849
		c2.8691254-2.2359695,5.7542572-4.4514694,8.6303711-6.6785355c0.0797882-0.0617905,0.117569-0.1777802,0.2396698-0.3708115
		c-12.3227844-3.152771-24.6413879-5.9418716-37.44561-7.3380775c1.6831665-2.4074554,3.2577667-4.6549072,4.8263626-6.9065437
		c0.3941345-0.5657654,0.9412842-0.3309517,1.425766-0.2599525c5.4174576,0.7938614,10.8168716,1.6931114,16.174408,2.8304787
		c0.299675,0.0636215,0.6058426,0.0966835,1.0562439,0.1669388c-0.2663269-0.9454422-0.4505615-1.7913742-0.7466507-2.5962029
		c-0.2926483-0.7954445-0.2539139-1.193779,0.748024-1.3025208c4.2494202-0.4612122,8.4862213-1.0404129,12.7372589-1.4844742
		c6.042984-0.6312408,12.1002197-1.1112137,18.1638489-1.5047607c0.0609131-0.0039558,0.1174622-0.0749969,0.2025452-0.1327019
		c-0.1716766-0.4955482-0.673584-0.6382828-1.0339203-0.9064713c-5.0346832-3.7472076-10.1358643-7.4018021-15.2980957-10.97229
		c-0.7175293-0.4962883-1.358429-0.6318474-2.2115173-0.4489441c-5.7429352,1.231266-11.4832153,2.4690971-17.1210022,4.1320839
		c-0.4485016,0.1323013-0.8002319,0.2011375-1.194809-0.175663c-1.7624359-1.6830292,0.0551071-5.9666328,2.0340576-6.5440445
		c3.1547318-0.920475,6.1812897-2.2234497,9.1113434-3.8261929
		C136.3736115,29.8240795,138.7189331,28.043541,141.1286926,26.3537941z M146.2686462,110.8743744
		c4.7460785,1.3102417,9.2376251,2.5706635,13.6986542,3.9409409c0.899826,0.2763901,1.5270233,0.552742,1.4680481,1.626091
		c-0.0378418,0.6887283,0.2513123,0.8276825,0.8524475,0.4177399c2.3734283-1.6185608,4.7618561-3.2152405,7.1517181-4.8095627
		c0.4793701-0.3197937,0.6113129-0.5260468,0.0054321-0.9016037c-4.7133484-2.9215622-9.4200745-5.854248-14.0964508-8.8343048
		c-0.5876312-0.3744812-0.8167267-0.1565247-1.1687622,0.2153168c-2.139801,2.2602997-4.290863,4.5099258-6.4360352,6.7651443
		C147.2859497,109.7753448,146.8370056,110.2649384,146.2686462,110.8743744z M164.4151001,75.5606613
		c-3.9296875-1.7456589-7.9554443-3.0382843-12.012146-4.2374573c-0.1748199-0.0516815-0.4436951-0.0692825-0.5657806,0.0272827
		c-1.7211151,1.3611221-3.4243622,2.7448425-5.2398376,4.2101746
		C152.6895905,75.5606613,158.5523376,75.5606613,164.4151001,75.5606613z"></path>
	<path d="M45.8356857,191.076416c3.4239922-0.6056213,6.8517303-1.1834106,10.295105-1.6754761
		c0.7942505-0.1134949,1.153801,0.12854,1.5505753,0.7148285c1.1582947,1.7115021,2.3642426,3.3908081,3.7250404,5.0179749
		c-0.2417145-1.54039-0.4147186-3.0960236-0.7520294-4.6152039c-0.1890945-0.8516235,0.0187378-1.0341797,0.8289833-1.0200806
		c2.4153671,0.0420837,4.8323593-0.0329742,7.2864075,0.0962219c-3.5634155-2.7861633-7.2751427-5.3019714-11.1253548-7.8757935
		c2.8089752-1.8082123,5.4970779-3.5240631,8.1661949-5.2689209c0.5421219-0.3544159,0.819664,0.0470581,1.1428146,0.2911072
		c5.9011612,4.4565582,11.8475266,8.8560791,17.6585693,13.4273224c1.6580734,1.3043213,3.4899521,1.2112732,5.2977676,1.4701996
		c7.237793,1.0365906,14.4862976,1.9985962,21.7314606,2.9836578c0.5000687,0.0679932,0.9019394,0.186264,1.0624847,0.7675629
		c0.7320175,2.6505127,1.4942093,5.2926941,2.3111115,8.1687012c-5.9778366-1.4710999-11.871582-2.5873871-17.8252106-3.4967346
		c-0.0324707,0.4437408,0.3473206,0.5148468,0.557785,0.6973572c3.8072052,3.3014374,7.4946671,6.7275238,11.0256653,10.3257599
		c0.7282104,0.7420654,0.5380478,0.9759521-0.2354202,1.4145508c-2.0853806,1.1825104-4.1062088,2.4788055-6.1926575,3.6593628
		c-0.8030472,0.4543915-1.0350876,0.8443298-0.577652,1.7440796c0.9404449,1.8497772,1.7073441,3.7870636,2.6234436,5.6501465
		c0.3611374,0.7344666,0.2665176,1.071701-0.4633484,1.4742584c-2.7234802,1.502182-5.4056015,3.0792847-8.3815384,4.7880707
		c5.7533951,1.2706604,11.209404,2.4674683,16.7296448,4.2776947c-2.2957077,2.105423-4.458931,4.0918427-6.6259308,6.0741577
		c-0.3267136,0.2988586-0.6712799,0.1110535-1.0138245,0.0102997c-5.6000595-1.647171-11.2924347-2.911087-17.0043564-4.0950928
		c-0.7625351-0.1580963-1.4244843-0.1804657-2.1448135,0.3154449c-5.5325241,3.8089447-10.9589386,7.7645721-16.3784866,11.7302551
		c-0.057785,0.0422821-0.085968,0.125-0.2240143,0.3348541c2.3208313,0.1770782,4.5584106,0.3482819,6.7960663,0.5185242
		c6.893631,0.5243073,13.7746124,1.1753235,20.6323166,2.0591431c1.347168,0.1735992,2.6914597,0.3751678,4.0423508,0.5117035
		c0.6518326,0.0658417,0.8143387,0.2883148,0.6019821,0.9189758c-0.3119888,0.9265442-0.5430908,1.8802795-0.8360748,2.919693
		c3.5738144-0.6620483,7.0127487-1.3236084,10.4614716-1.9294434c2.321846-0.4079285,4.6571121-0.7398987,6.9874496-1.098938
		c0.426651-0.0657349,0.8599091-0.1882629,1.1868668,0.2827301c1.5684967,2.2593994,3.1514816,4.5087433,4.8493652,6.9330292
		c-6.4867477,0.6753845-12.7279205,1.7462769-18.9372482,3.0155334c-6.1800156,1.2632141-12.3180161,2.6985168-18.3819046,4.2941589
		c-0.1433182,0.3332825,0.1007233,0.4057007,0.2347717,0.5096436c2.5904007,2.0081177,5.2080383,3.9819946,7.7680969,6.0279236
		c0.8985748,0.7180786,1.8326645,0.9523926,2.9634781,0.9810486c3.4681244,0.0878296,6.9333267,0.2915955,10.5627747,0.4577637
		c-0.7702408,1.8044739-1.4193497,3.4694214-2.1920624,5.0749512c-0.3905716,0.8115234-0.2039032,1.1927795,0.5436935,1.5774536
		c1.0289078,0.5294495,1.9715271,1.2319641,3.0145264,1.7268372c0.8470383,0.4018555,1.0205078,0.8528748,0.5745239,1.6542664
		c-0.2102509,0.3778076-0.294693,0.8255615-0.4367676,1.242218c-0.1444168,0.0427246-0.2882004,0.0848694-0.4314041,0.1269531
		c0.0005875-0.000061-0.0868454-0.0040894-0.0868454-0.0040894c-3.4373322-0.2712708-6.8821487-0.3616638-10.327858-0.4392395
		c-0.7109833-0.0159912-1.4203949-0.1015625-2.130867-0.1551514c-1.1784363-0.9997864-2.271286-1.99823-4.0061951-2.125
		c-7.7804794-0.568512-15.5671158-0.8974609-23.3667755-0.8277283c-5.4767952,0.0489807-10.9526825,0.1985168-16.4290009,0.302002
		c-0.5078354,0.0095825-1.0081024,0.127594-1.2383537-0.5922852c-0.8964691-2.8026733-1.8459206-5.5884399-2.8207932-8.5160522
		c0.6770973,0,1.2274246-0.0004883,1.7777519,0.0000916c4.0789604,0.0044861,8.1581573-0.0122375,12.2366867,0.0319824
		c0.8137894,0.0087891,1.0755043-0.2157593,1.1481476-1.045166c0.2090988-2.3872375,0.5628662-4.7615356,0.7994537-7.1469116
		c0.0782776-0.7892456,0.3836441-1.1878967,1.1643295-1.4000244c2.081604-0.5655518,4.1272736-1.2659302,6.2152405-1.8041077
		c0.9555435-0.2463379,1.4899521-0.7002563,1.8044357-1.6405945c0.3214264-0.9611206,0.4517059-2.4806213,1.2319794-2.6730347
		c0.791954-0.195343,1.6450424,1.0570679,2.4245148,1.7239685c0.641716,0.5491333,1.2236176,0.6953125,2.0600052,0.458374
		c2.5370789-0.7188416,5.1046906-1.3295593,7.6542206-2.0056763c0.4456863-0.1181946,0.9927216-0.0141907,1.4342422-0.518158
		c-9.0596008-1.1022644-18.0245819-1.7770996-27.0078201-2.216507c-4.4720688-0.2187805-8.9474068-0.3737946-13.4222336-0.5299683
		c-0.744194-0.026001-1.0801544-0.1152496-0.8419266-1.02211c0.4459076-1.6974487,0.8176765-3.4242706,1.0614281-5.1611481
		c0.1466064-1.0446472,0.5799294-1.279007,1.5605621-1.2380981c3.8345222,0.1598663,7.6745567,0.1954346,11.5074425,0.381958
		c1.1168289,0.0543365,1.3954353-0.288559,1.2733345-1.3175812c-0.107872-0.9090881-0.0189705-1.842453-0.139595-2.7487946
		c-0.1126671-0.8465424,0.2537193-1.3202972,0.8885841-1.7801056c1.4239883-1.0313263,2.8020096-2.1258087,4.206131-3.1848145
		c2.3490295-1.7716675,4.7038269-3.535675,7.2077637-5.4167633c-7.8479385-1.4499817-15.5144043-2.7610931-23.24366-4.5859833
		c1.7499199-2.1283417,3.4015541-4.120575,5.0302887-6.1313477c0.346405-0.4276581,0.697628-0.2211304,1.0781822-0.1398163
		c8.1680946,1.7454071,16.4191933,3.0419769,24.6338615,4.5354309c0.4570541,0.0830841,0.9706802,0.2907715,1.4068527-0.0012207
		c1.5164566-1.0150909,3.0107574-2.0631714,4.6057663-3.1623383c-0.4071198-0.2099762-0.6796799-0.3664093-0.9647064-0.4952698
		c-10.7877655-4.8767548-21.1915054-10.5082703-31.6385269-16.0557098
		c-0.6735802-0.3576813-0.8091774-0.6676636-0.4525604-1.3807068c0.8750229-1.7495728,1.6901436-3.5323029,2.4469643-5.3362427
		c0.3579788-0.8532562,0.6803932-0.9081116,1.4764977-0.4512024c11.3836441,6.533371,23.2053375,12.16362,35.3285522,17.1900787
		c1.8405228,0.7631226,3.2218323,0.7638702,4.7708893-0.4745941c0.6909866-0.5524597,0.6273193-0.7482147,0.1136627-1.3134613
		c-5.7694321-6.3486481-12.1657257-12.0177612-18.8057938-17.4264069c-0.423851-0.3452606-0.8761978-0.500412-1.4184647-0.5408325
		c-5.4626312-0.407196-10.923645-0.8338318-16.4092331-0.5017242c-0.3287125,0.0198975-0.781662,0.2185516-0.9355965-0.259903
		c-0.1873894-0.5824432-0.6024399-0.4151154-0.9741821-0.3649139c-2.6140594,0.3530579-5.2301216,0.6940765-7.8382835,1.0870514
		c-2.5244904,0.3803558-5.0402985,0.8182373-7.5599213,1.2308655c0.2124405-0.4566498,0.1288071-0.9343262,0.0766754-1.4014893
		C45.2055893,195.4538116,45.4124222,193.2593384,45.8356857,191.076416z M64.0884094,273.9858704
		c5.8775787,0,11.7551422,0,17.8403778,0c-0.9680405-0.7929077-1.8734436-1.3540344-2.5454865-2.119751
		c-1.8081284-2.0601807-3.761467-2.3612061-6.313942-1.3049011
		C70.1383057,271.7742004,67.0219803,272.5349426,64.0884094,273.9858704z"></path>
	<path d="M185.9542542,260.2123413c-0.3505554-0.0599976-0.7194061-0.069397-1.0487518-0.1882019
		c-2.2377625-0.8073425-4.4729767-1.1322021-6.7293854-0.0762329c-0.4523926,0.2117004-0.8533783,0.1369629-1.1888428-0.2428284
		c-0.0262909-0.0297852-0.0637665-0.0503235-0.0876465-0.081543c-2.7089081-3.5387268-6.7441254-4.6169586-10.7331085-5.7839661
		c-4.7544861-1.3909607-9.524765-2.7224426-14.3179932-3.9760895c-0.9494171-0.2483368-1.5343628-0.04039-2.2373047,0.5491943
		c-6.7089691,5.6270905-13.4734955,11.1817169-20.8208313,15.984024c-1.0114212,0.6611023-1.3078918,0.4525452-1.6729736-0.5741577
		c-0.8828049-2.4826965-1.8301773-4.9446106-2.8338852-7.381012c-0.3471375-0.8426514-0.1867065-1.2374573,0.5953445-1.6762695
		c4.8884583-2.7430725,9.4855499-5.9330902,13.9959717-9.2510071c0.179657-0.1321411,0.3453217-0.2832642,0.6476746-0.5331116
		c-7.493866-1.6182709-14.8587494-2.9539948-22.5238953-3.7597351c1.6899948-2.4120026,3.2796173-4.6878357,4.8782501-6.9573364
		c0.391983-0.5564575,0.9651337-0.2863922,1.4415131-0.2168732c4.8244934,0.7042084,9.6361084,1.4897766,14.4121399,2.4748535
		c3.0898285,0.6372986,6.1724701,1.3096771,9.2552185,1.9806061c0.4542999,0.0988922,0.8318024,0.1036835,1.2245331-0.2203827
		c3.2932587-2.7175903,6.6007538-5.4179382,9.848053-8.3634644c-1.9177704,0.1060333-3.83815,0.1780396-5.7528992,0.3239288
		c-8.532135,0.6500549-17.045578,1.4732819-25.5040588,2.7995758c-2.3278885,0.3650208-2.3323975,0.3437347-2.9646072-1.8864746
		c-0.4133072-1.4580841-0.7463684-2.9448242-1.2600327-4.3665314c-0.3616562-1.0009918-0.0057526-1.2077789,0.8856735-1.3072815
		c4.209053-0.4697113,8.4070206-1.0459747,12.6208572-1.4642792c11.8601685-1.1773682,23.7442932-2.0825043,35.6651764-2.1741486
		c2.4282227-0.0186615,3.8062592-0.5897675,4.5184784-2.968811c0.4996185-1.6688538,1.4261932-3.2074432,2.1207123-4.8219604
		c0.2749329-0.6390839,0.5380096-0.736969,1.1421509-0.3321838c1.3267517,0.8890228,2.7073669,1.6977234,4.0659332,2.5391235
		c-0.7453613,3.0519867,0.8013763,5.7698822,1.262085,8.6460876c0.1451569,0.9062958,0.2909088,1.8125,0.4363098,2.7183228
		c-0.4237366-0.0164185-0.7380066-0.2746124-1.081192-0.4769592c-2.3382874-1.3787537-4.6772614-2.7564087-7.0226593-4.1230164
		c-0.6361694-0.3706665-1.2952881-0.7019501-2.1943817-1.1862488c0.4460297,2.2013702,0.7523651,4.1245575,1.2464447,5.9982452
		c0.2981567,1.130661-0.015274,1.3222351-1.0842285,1.3463287c-3.6727753,0.0827484-7.3424072,0.2954407-11.0148621,0.405014
		c-0.9545593,0.0284576-1.0445709,0.3031921-0.6729126,1.118988c0.561554,1.2326355,0.9472656,2.5460358,1.5213776,3.7719421
		c0.371048,0.7923279,0.2521973,1.2160797-0.4583282,1.749649c-2.0910645,1.5703125-4.108078,3.2391357-6.224472,4.9255219
		c0.2390747,0.1387787,0.3279877,0.2200317,0.4308319,0.2458191c4.8421173,1.2133026,9.6018829,2.7265625,14.4259033,3.993454
		c2.1274261,0.5587463,3.4095612,1.3978577,3.1961365,3.759964c-0.0736389,0.8147736,0.2684326,0.9566956,1.0847321,0.747406
		c2.7407684-0.7027283,5.4744415-1.4526215,8.27771-1.8871613
		C185.757431,253.4138641,185.544632,256.8201294,185.9542542,260.2123413z"></path>
	<path d="M45.341095,140.0527039c1.1268425,1.7958832,1.8364067,3.792984,2.7244225,5.7028809
		c0.3276863,0.7047577,0.6974678,0.9954987,1.518898,1.0066223c13.7630272,0.1861267,27.4803886,1.1144562,41.1576347,2.6423645
		c3.1763153,0.3547974,6.3425064,0.8010101,9.5200043,1.1436615c0.8165665,0.0880432,0.898056,0.3603363,0.6598434,1.0597382
		c-0.3467484,1.0180817-0.5454102,2.0874481-0.9069901,3.0993347c-0.3116379,0.8721313-0.2100525,1.1306763,0.7856979,0.9374695
		c3.9987411-0.7758942,8.0063477-1.5073395,12.0162201-2.2242432c1.6505508-0.2950745,3.3166809-0.5021973,4.9722595-0.7706299
		c0.4360504-0.0707092,0.7374496-0.0149384,1.0148315,0.3888855c1.4249802,2.0744781,2.8685226,4.1365814,4.3346024,6.1822357
		c0.5215912,0.7277832,0.0741043,0.7384644-0.4794464,0.7998047c-11.8226166,1.3100586-23.39711,3.8930054-34.905632,6.8120575
		c-0.2997513,0.0760498-0.5930862,0.1773224-1.1194382,0.3363342c1.2916718,1.0340881,2.4116287,1.9586639,3.5605087,2.8458405
		c6.1097412,4.7178192,12.3357925,9.2687378,19.0709457,13.0736237c0.6563797,0.3708191,0.7550735,0.7099304,0.4673615,1.4176483
		c-1.0520248,2.5878296-2.052597,5.1980591-3.0009384,7.8256683c-0.3130646,0.8673859-0.6166611,0.8642883-1.328598,0.4055634
		c-7.0410385-4.5367432-13.5126419-9.8178101-19.9355469-15.1637115c-2.7650909-2.3014679-5.5362396-4.5962067-8.2689819-6.9355927
		c-0.6271591-0.5368958-1.1702118-0.6107635-1.946228-0.3638916c-3.6939926,1.1752472-7.3961334,2.3231506-11.0289536,3.680954
		c-0.1780701,0.0665741-0.3659096,0.1070709-0.7060852,0.2047729c0.3516006-2.9568024,0.6945419-5.8036652,1.0247574-8.6519928
		c0.0592346-0.5109558,0.4224396-0.684967,0.8232727-0.7176819c2.7267075-0.22258,3.9077225-1.9654846,4.5631943-4.3849487
		c0.3633728-1.3412628,0.9261627-2.6442413,1.5347977-3.8986816c0.5316772-1.0958252,0.0795364-1.2487488-0.8775101-1.294754
		c-2.9541931-0.1420441-5.9043427-0.3701477-8.858799-0.5044403c-4.5526505-0.2069092-9.1071548-0.376358-13.6619492-0.5295868
		c-0.7769165-0.0261383-1.1448479-0.0914154-0.9007912-1.0635071c0.4928398-1.9630127,0.8235893-3.9666595,1.2469101-6.0820618
		c-1.2216072,0.277832-2.0148659,1.0807343-3.0296021,1.3850555
		C45.3682289,145.6291809,45.3546638,142.8409424,45.341095,140.0527039z M91.9815598,157.5468597
		c-6.4475708-1.0627899-12.9006042-1.7009583-19.4149399-2.0531158c1.972908,1.7798615,3.9934387,3.4426117,6.0043106,5.1169281
		c0.3859787,0.3213959,0.7569046,0.1282806,1.1324692,0.0319824c2.0909576-0.5361481,4.1775436-1.0895691,6.2704544-1.6179504
		C87.9733505,158.519928,89.9787521,158.0385284,91.9815598,157.5468597z"></path>
	<path d="M116.4981766,286.3503418c2.5192871-2.7859802,5.4196625-5.1719055,8.3828506-7.9308167
		c-5.6343536,0.8681641-10.9615402,1.8990784-16.4218216,3.2796021c0.1999512-0.7700195,0.3492203-1.400177,0.5277252-2.0219727
		c0.5402222-1.8817139,1.1334534-3.7495117,1.6198502-5.6448364c0.2154694-0.8396606,0.5419617-1.2097473,1.4807663-1.34198
		c7.677681-1.0814514,15.3532028-2.1766052,23.0516281-3.1027832c0.5118256-0.061615,0.8859253-0.3061523,1.2723846-0.6000977
		c6.6175232-5.0335083,13.2492981-10.0484314,19.8470612-15.107666c0.7219696-0.5536041,1.2109375-0.5962067,1.9703217-0.0829163
		c2.4445648,1.6522064,4.9459991,3.2203979,7.5645294,4.9107056c-4.4329071,2.9544373-8.6845093,5.8945923-12.8041077,9.0868835
		c2.7532196-0.0705872,5.4793549-0.1729126,8.20755-0.1536865c1.7836609,0.0125732,1.7819366,0.0035095,1.4633789,1.7890625
		c-0.1190643,0.6673889-0.2299652,1.3362732-0.3403473,2.0052185c-0.1026154,0.6217041-0.1996002,1.2444153-0.1383209,1.949646
		c1.0863953-1.5607605,2.2320709-3.0846252,3.2376099-4.6958313c0.6327362-1.013855,1.2769928-1.2966919,2.521759-1.105896
		c6.2844086,0.9634094,12.5337524,2.1005859,18.753418,3.4122925c0.5171356,2.7113953,0.6618347,5.4551086,0.7213135,8.2060852
		c-1.8759155-0.3778992-3.7546844-0.7427673-5.6275635-1.1356506c-6.1042786-1.2807617-12.2397766-2.3772583-18.4373779-3.0964661
		c-0.5083313-0.05896-1.1933441-0.447052-1.5445404,0.1266174c-0.3195343,0.5219421-0.6986237,0.450531-1.1154633,0.4233704
		c-4.5223541-0.2941895-9.0315094-0.0247192-13.5410919,0.2862549c-5.2523804,0.3621216-5.2600098,0.3457642-9.208786,3.7862854
		c-2.4692841,2.1514893-4.9134064,4.3317871-7.3688202,6.499115
		C125.8807678,286.1773682,121.189476,286.263855,116.4981766,286.3503418z"></path>
	<path d="M184.3247528,211.3965454c-2.4346619,0.1125031-4.8700867,0.210968-7.3033295,0.3487244
		c-0.5173645,0.0292816-0.7958069-0.0586395-0.9412231-0.617569c-0.6410675-2.4638367-1.327179-4.9159546-2.0270996-7.4828644
		c0.8066711,0,1.5149994,0,2.2232971,0c0.0277405-0.0924225,0.0554657-0.184845,0.0831909-0.2772522
		c-2.5921631-1.1140747-5.1843567-2.2281494-8.0355225-3.453537c2.0494537-1.2976685,3.9360657-2.492218,6.0299072-3.8179626
		c-5.9304657-2.2766724-11.7760162-4.2832947-17.9591827-5.9671631c2.1216431-1.6760559,4.1126709-3.2485962,6.1032257-4.8217316
		c0.436203-0.3447418,0.84021-0.0608368,1.2419586,0.0737762c5.3804321,1.8026886,10.6651459,3.8622284,15.9308472,5.9701691
		c0.9710083,0.3886871,1.8978271,0.8207855,2.9311218,0.2447205c0.4464569,2.3769836,0.8961639,4.7541962,1.3363037,7.1331482
		c0.0648193,0.3504181,0.0842896,0.7092133,0.1248627,1.0640717c-2.2537231,0.8635712-4.1132965,2.378418-6.1583862,3.6068573
		c2.2390747,0.1704559,4.4234924,0.0770721,6.5975189,0.296936
		C184.5699768,206.2663574,184.7267303,208.8378906,184.3247528,211.3965454z"></path>
	<path d="M43.2779274,120.4421082c-0.0799789-2.3957291-0.459568-4.7614899-0.7076149-7.1404724
		c-0.0354309-0.3398209-0.2491531-0.7882385,0.0646324-1.008606c0.3354454-0.2355881,0.6922188,0.1235275,0.9482841,0.3310089
		c1.2650795,1.0250168,2.4705963,0.8989868,3.9460487,0.2796555c4.0091629-1.6828766,8.1100044-3.1436768,12.2295685-4.545517
		c0.6517868-0.2218018,1.0887909-0.1559067,1.6179047,0.2767334c1.815052,1.4841232,3.6736717,2.9150162,5.6767921,4.4931259
		c-5.0041351,1.359314-9.7460403,2.9410553-14.5027275,4.678627c0.2852364,0.6250305,0.973587,0.700531,1.4538155,1.2420959
		c-2.8726082,1.2264633-5.6584511,2.4560852-8.4807091,3.5955963c-0.8146286,0.3289108-1.305275-0.5943832-1.9894447-0.840889
		C43.4487801,121.3490906,43.3633537,120.8955994,43.2779274,120.4421082z"></path>
	<path d="M182.5960236,164.0002289c-1.2386322,0.8032074-2.4891357,1.5889435-3.7104187,2.4177094
		c-0.5341797,0.3624725-0.8030701,0.3128815-1.0332184-0.3237457c-0.9085846-2.5133209-1.8384247-5.0193634-2.7990265-7.5132294
		c-0.218338-0.5668488-0.1100616-0.8556366,0.41539-1.1436462c1.1900482-0.6522217,2.331665-1.3930511,3.5244598-2.0398865
		c0.5978088-0.3242035,0.6455994-0.6731262,0.3846893-1.2512512c-0.7530518-1.6685791-1.4603882-3.3577576-2.2432556-5.1723328
		c1.8783875-0.172821,3.6390991-0.4016571,5.4247742-0.2133636c-0.0387115,1.8770599,0.0821991,3.7315216,0.4528351,5.5856628
		c0.4202576,2.1022949-0.1033478,4.2086029-0.2120514,6.3132019
		C182.7426453,161.7735138,182.6647339,162.8866425,182.5960236,164.0002289z"></path>
	<path d="M182.4110718,178.7339935c-3.5791626-0.95047-7.1563416-1.9085236-10.7399445-2.8419189
		c-0.4528656-0.1179352-0.5588531-0.2734528-0.4408417-0.739624c0.5084229-2.0086823,0.9740601-4.0282288,1.4520569-6.0445709
		c0.1042023-0.4396057,0.2338562-0.6902924,0.806778-0.5021057c3.0286407,0.9948273,6.1076508,1.8360901,9.0852356,2.9866791
		C182.2947998,173.9678955,182.5099792,176.354538,182.4110718,178.7339935z"></path>
	<path d="M41.0839996,266.3423462c1.2480431,0.4263611,1.9980316-0.5489197,2.8879356-1.0652771
		c1.5531654-0.9012146,1.6343689-0.9694214,2.2323189,0.6947021c0.5126953,1.4269104,1.3421936,2.2562866,2.8503227,2.4743652
		c0.5221748,0.07547,1.0842819,0.1977234,1.5814705,0.6374512c-0.3666496,0.3486938-0.675808,0.713562-1.0519829,0.9859619
		c-0.8139496,0.589386-1.2040672,1.2377625-0.5144501,2.170166c0.2674484,0.3616028,0.1994667,0.6410217-0.2091484,0.8719788
		c-2.8492432,1.610321-5.6924591,3.2312317-8.5376549,4.8486938
		C40.310051,274.0702515,40.8660431,270.2173767,41.0839996,266.3423462z"></path>
	<path d="M43.1950912,228.5683899c2.4112663,0.3278961,4.8220253,0.6596832,7.234314,0.9798737
		c0.4039879,0.0536346,0.6148987,0.2291565,0.731575,0.6431885c0.7630272,2.7075043,1.5551147,5.4068298,2.3906746,8.291687
		c-3.7675362-0.9718323-7.3898354-1.6988068-11.014679-2.414917
		C42.2872963,233.5268555,42.6004028,231.0352936,43.1950912,228.5683899z"></path>
	<path d="M151.9521179,285.5811157c-0.0356293-0.50354,0.4182587-0.5310974,0.7048035-0.6764832
		c4.0162048-2.0376892,7.9720154-4.1863708,11.881958-6.4200439c0.3856354-0.2203064,0.7808075-0.5507202,1.0557861,0.1011047
		c0.9260712,2.195343,2.1213989,4.2729492,2.8641052,6.5480042
		C162.9567261,285.2826843,157.454422,285.4319153,151.9521179,285.5811157z"></path>
	<path d="M42.272007,214.6469116c1.9971886,1.1415863,3.9981537,2.2766724,5.9892197,3.428833
		c0.5809288,0.3361664,0.1782417,0.7803192,0.0426483,1.1491699c-0.9458923,2.5730286-1.9370346,5.1296997-2.8603325,7.7106628
		c-0.3048668,0.8522186-0.6252594,1.2316589-1.4325523,0.4964294c-0.2308083-0.2101746-0.5310936-0.3441772-0.7994194-0.5130157
		C42.8175697,222.834549,42.348362,218.7557526,42.272007,214.6469116z"></path>
	<path d="M185.2987671,236.9959412c-1.7040405,1.1634521-3.0130157,0.5617676-4.3177032-0.7924042
		c-1.0462799-1.0859528-2.2983704-1.9738312-3.6299438-3.0932159c2.7402802-1.0480347,5.3546753-2.0479279,7.9692535-3.0476227
		C185.5853882,232.3747559,185.6804199,234.6860962,185.2987671,236.9959412z"></path>
	<path d="M45.3469849,174.7774048c2.4730873,0.4654388,4.8455734,1.2783661,7.4610062,2.0654907
		c-2.1239433,1.9580078-4.1022072,3.7928925-6.0974731,5.6091461c-0.30373,0.276474-0.5230942,0.7517548-1.0742912,0.6230316
		C45.3280945,180.3162689,45.399807,177.5446625,45.3469849,174.7774048z"></path>
	<path d="M44.0198326,126.6026917c1.5880585-0.2566528,3.1727562,0.051445,4.7591324,0.0255585
		c0.5071373-0.0082703,0.5898285,0.1854324,0.4586449,0.6514893c-0.6355019,2.2576599-1.2581444,4.5192871-1.8501358,6.7886658
		c-0.1494789,0.5730286-0.4175224,0.8013763-1.0043869,0.6936798c-0.4675865-0.0858154-0.9443512-0.1216888-1.4171715-0.1803741
		C44.6504631,131.9216156,44.3351479,129.2621613,44.0198326,126.6026917z"></path>
	<path d="M42.7482414,241.6241302c1.7811852,1.4163971,3.258625,3.1448059,4.8695602,4.7360687
		c0.2089615,0.2063904,0.4328957,0.447464,0.0353432,0.6546783c-1.8955917,0.9880524-3.5529861,2.3990936-5.5866623,3.1403198
		C41.9825325,247.28685,42.1962395,244.4420013,42.7482414,241.6241302z"></path>
	<path d="M76.9461288,95.9724426c5.1050262-0.334465,10.1950531-0.8015518,15.3046188-1.0298309
		c3.4383011-0.1536102,6.8754501-0.1648407,10.3153381-0.0891266c0.931488,0.0204926,1.3687515,0.1446686,0.9924622,1.285675
		c-0.6493835,1.9690933-1.123497,3.9978333-1.6220932,6.0136642c-0.1762161,0.7124481-0.4509277,0.9030991-1.2340012,0.8417892
		c-7.7989349-0.6106262-15.582077-0.231842-23.3553085,0.4971771c-1.5022125,0.1408768-3.0029068,0.2977524-4.4817963,0.4449997
		c-0.1211166,0.3604889,0.139473,0.3789139,0.2935867,0.4562225c5.6832504,2.8503952,11.4654312,5.4818344,17.3542023,7.8820648
		c0.6364365,0.2594147,1.0881195,0.2065048,1.6492538-0.16008c1.8739777-1.224205,3.8000183-2.368927,5.6710892-3.5973816
		c0.6103592-0.4007187,0.8476486-0.2765808,1.1221771,0.347023c1.0134964,2.3022537,2.0414581,4.5994186,3.1327362,6.8654175
		c0.3342819,0.6941223,0.137085,0.9510956-0.4642715,1.2805939c-8.7093048,4.7719574-16.9651794,10.2550888-25.0420227,16.0159912
		c-0.2423325,0.1728516-0.6016846,0.2436829-0.6914215,0.7032928c12.8233109,2.3083191,25.7154388,4.2687683,38.407486,8.2199554
		c-2.289093,2.106369-4.4039536,4.0398102-6.5002594,5.9931641c-0.3683243,0.3432312-0.7007751,0.2279358-1.0975952,0.1139679
		c-10.3108368-2.9606934-20.8491592-4.8700562-31.3883743-6.7757111c-2.3988266-0.4337616-4.7985992-0.8648529-7.1879349-1.3466797
		c-0.6073456-0.122467-1.0521317-0.0234528-1.5414734,0.3490295c-2.0246124,1.5411377-4.0787697,3.0435028-6.4620895,4.8124542
		c0-2.1471252-0.0588188-3.9641724,0.0262985-5.7744446c0.0390587-0.8307953-0.3423576-1.016571-1.0007248-1.1499176
		c-1.8356056-0.3718567-3.6642265-0.7781372-5.6631851-1.2067413c1.7218971-2.0955505,3.3407784-4.0575562,4.947937-6.0290985
		c0.2941704-0.3608856,0.604248-0.4215393,1.0515938-0.3021545c0.809494,0.2160339,1.6745491,0.260498,2.4534149,0.5473938
		c1.7134628,0.6311951,3.0056648,0.1700439,4.4385109-0.9469147c5.7706375-4.4983673,11.7328949-8.7424393,17.7946701-12.8437424
		c0.1959381-0.132576,0.3846893-0.2757874,0.5641937-0.4049759c-0.0841522-0.4531403-0.4706726-0.4422302-0.7349701-0.5639954
		c-6.9375763-3.1963882-13.6886292-6.7605286-20.4109039-10.3782425c-0.9076614-0.488472-1.7485123-0.6367416-2.7385712-0.4297104
		c-1.3514061,0.2825775-2.7224503,0.4713669-4.1947594,0.7188034c0.6010857-2.5452652,1.1737518-4.904541,1.7070274-7.2726593
		c0.1402664-0.6228943,0.4937363-0.8384552,1.0813026-0.8825302c0.7967033-0.0597534,1.5901222-0.2421494,2.384201-0.2376862
		c0.9619751,0.0054092,1.3136139-0.4822388,1.2417259-1.3251877c-0.1108589-1.2998962,0.5756454-1.8514786,1.6977158-2.3277512
		c9.9685593-4.2312393,19.8721542-8.6153946,29.9183197-12.663887c0.1781387-0.071785,0.3526688-0.1525345,0.7162704-0.3105392
		c-0.5770111-0.349678-1.0207596-0.6411133-1.4846115-0.8959808c-2.5924149-1.4243546-5.1974869-2.8259659-7.7792892-4.2691956
		c-0.571167-0.3192902-1.07061-0.360054-1.6969604-0.1624374c-11.9459381,3.768898-23.6349716,8.187561-34.8954506,13.6994553
		c-0.3126526,0.1530304-0.6023941,0.4119568-1.1477776,0.2777405c0.3411064-2.6623001,0.6897087-5.3385468,1.022789-8.0167084
		c0.0753555-0.6059036,0.5833893-0.5738831,0.9709396-0.716423c8.6997452-3.1996078,17.4009399-6.3952942,26.1012344-9.593399
		c0.1461868-0.0537262,0.2847977-0.1279984,0.5879517-0.2659531c-5.5565643-2.9646301-10.9918594-5.864563-16.4222679-8.7618752
		c0.27388-0.6615028,0.9880562-0.6926994,1.3520012-1.4757957c-0.9286766,0-1.741375-0.0337029-2.5498505,0.0102425
		c-0.695137,0.0377846-1.1630707-0.1722031-1.3473625-0.8795204c-0.0396767-0.1522942-0.1294022-0.2915039-0.1955833-0.4369583
		c-1.208252-2.6554527-1.2022667-2.6188583-4.1534233-2.1375351c-6.7883797,1.1071625-13.5292587,2.4458885-20.2127113,4.0676651
		c-0.933651,0.2265587-1.0614243,0.0606651-1.0596962-0.9521599c0.0057564-3.3767357,0.1344757-6.7903595-0.8443165-10.0803604
		c-0.2632217-0.8847504,0.1011028-1.7232628-0.1057911-2.587162c-0.1115704-0.4658623,0.3730869-0.4253082,0.6782646-0.3882904
		c2.2619171,0.2743301,4.5214272,0.5684319,6.7833328,0.8428345c0.6399727,0.0776405,0.6454201,0.4007072,0.4761505,0.9164963
		c-0.2951927,0.8994827-0.5288544,1.8191261-0.8358536,2.897316c1.682312-0.3093414,3.2347832-0.6080246,4.7921448-0.8785782
		c3.9777641-0.6910477,7.9610863-1.3507462,11.934639-2.0649223c1.1426888-0.2053795,1.9047165,0.014286,2.5586472,1.1025848
		c1.026741,1.708744,2.2955894,3.2703705,3.4036789,4.9330635c0.3970451,0.5957642,0.8331375,0.8531227,1.5528374,0.8694153
		c11.0028915,0.2491455,21.9921341,0.0232162,32.9646759-0.8677902c2.1758728-0.1766891,4.3536377-0.3299675,6.7116623-0.5077019
		c-1.2026596,2.1571236-2.332962,4.1640472-3.4400635,6.1836815c-0.298851,0.5451775-0.7905807,0.4493217-1.2559204,0.4749031
		c-6.9941864,0.3844261-13.9927063,0.2543564-20.9908142,0.1749077c-0.3169937-0.0036049-0.634079-0.0004692-0.9570847-0.0004692
		c-0.0546188,0.5052338,0.359787,0.5028114,0.6071701,0.6318703c3.1534882,1.645256,6.3259659,3.2548294,9.4610062,4.9342804
		c0.7322464,0.3922653,1.3370895,0.4440842,2.1272888,0.1736832c2.6459656-0.9054337,5.3254242-1.7128677,7.9890442-2.5671844
		c0.4492035-0.1440659,0.7778168-0.2880325,0.9310608,0.4088058c0.4458771,2.0277023,0.9627762,4.0402222,1.4790573,6.051712
		c0.116684,0.4546204,0.0121231,0.6457748-0.4456863,0.7649384c-0.567688,0.1477737-1.1824722,0.1744156-1.7703323,0.5813828
		c2.7666702,1.5491028,5.481369,3.0637894,8.18927,4.5905075c0.4547043,0.2563629,0.840126,0.0611801,1.2545319-0.0880432
		c2.3303223-0.8390961,4.6637726-1.6694794,6.9961395-2.5028992c0.4126663-0.1474533,0.7963333-0.3227463,1.2307892,0.0251694
		c1.9287262,1.5445862,3.8765106,3.0653915,5.9795151,4.7225571c-2.6343765,0.7949142-5.0910034,1.5361938-7.8182755,2.3591309
		c1.2029572,0.7736816,2.2162552,1.4253845,3.3175964,2.1337051c-0.5552597,0.546875-1.2429199,0.6466599-1.8286362,0.9066849
		c-2.0087891,0.8917999-4.0500488,1.7107162-6.0566406,2.6072617c-0.6116638,0.2732925-1.1431503,0.3596954-1.6509933-0.1147232
		c-2.2947159-2.1436844-4.6058197-1.8274841-7.3715134-0.6563492c-7.0630417,2.9908447-14.1571808,5.9115372-21.2002258,8.9524994
		C77.198616,95.7978668,77.076004,95.8935623,76.9461288,95.9724426z"></path>
	<path d="M133.467392,171.9946747c2.903717,0.2480011,5.4842834,0.4718018,8.0654449,0.6881866
		c6.2948914,0.5276642,12.5571442,1.3488617,18.8288574,2.0852203c1.1509552,0.1351318,2.3005981,0.2927246,3.4553986,0.3798828
		c0.7319031,0.0552368,1.1456604,0.3065491,1.3113251,1.086441c0.4479218,2.1085052,0.9417114,4.2089996,1.4894867,6.2937469
		c0.2020416,0.7689056-0.0798035,0.8881683-0.6693726,0.6677551c-3.518631-1.3154144-6.4831085-0.1195526-9.5632019,1.6416779
		c-5.4424438,3.1120605-11.0798187,5.8813324-16.7850342,8.497467c-0.3117523,0.1429443-0.6985626,0.2050323-0.8775787,0.5780945
		c3.9786835,2.8331757,7.960434,5.640976,11.9112091,8.4915924c2.560318,1.8473511,5.0909576,3.7369843,7.598938,5.6546478
		c0.5635681,0.4309082,1.0621185,0.5680847,1.7459717,0.4044952c1.2813873-0.3065491,2.5909729-0.4960785,3.8709412-0.8075867
		c0.5364075-0.1305542,0.8876038-0.0816498,1.2457428,0.3637543c1.427597,1.7754517,2.8712006,3.5386658,4.3413849,5.2789917
		c0.450531,0.533371,0.2790833,0.7200775-0.2962494,0.8435059c-1.5225983,0.3266602-3.0313568,0.7447662-4.5687256,0.9664001
		c-1.0786133,0.1554871-1.3600006,0.6346588-1.3119202,1.6541138c0.078125,1.6570892,0.0210419,3.3205719,0.0210419,5.2949219
		c-2.1931763-1.6294403-4.1259766-3.0203857-6.0028992-4.4829865c-0.7098236-0.5531464-1.3379059-0.7514343-2.2760468-0.5759277
		c-10.8394165,2.0280762-21.7306519,3.7938385-32.4332047,6.5023956c-1.8979111,0.4803162-3.7846985,1.0046539-5.6746826,1.5158539
		c-0.4193878,0.1134338-0.8110352,0.3233795-1.2258606-0.0617981c-2.124527-1.9727325-4.2626648-3.9308472-6.5278625-6.0153656
		c12.6685333-3.9389954,25.5653458-5.9001923,38.6788559-8.2709503c-2.508194-1.7498474-4.774231-3.3559265-7.0658569-4.9246674
		c-6.1049805-4.1792145-12.3462677-8.1422119-18.8437042-11.687973c-0.7125854-0.3888702-0.8596039-0.7000122-0.4909363-1.4568329
		c1.0832977-2.2238617,2.0960312-4.4830933,3.0895767-6.7489929c0.2840576-0.6478119,0.5181732-0.7152252,1.1163254-0.3223572
		c1.8700943,1.2283173,3.79422,2.3741608,5.6751709,3.586441c0.5117493,0.3298187,0.9329529,0.4418335,1.5431366,0.1928558
		c5.9968567-2.4469452,11.8806458-5.1397095,17.6759644-8.0282135c0.0623779-0.0310974,0.0984192-0.1149902,0.2541962-0.3058929
		c-1.7230988-0.1901093-3.3532715-0.4055328-4.9899597-0.5444794c-7.7351379-0.6566315-15.4772339-1.0702057-23.2347107-0.4211121
		c-0.642189,0.0537262-0.8475266-0.1731262-0.9896088-0.7142639c-0.5678558-2.1626129-1.1371384-4.3254089-1.7563705-6.4736328
		c-0.1991501-0.6908722-0.0325241-0.9550323,0.6735306-0.948288c1.3087463,0.0125275,2.617691,0.0035858,3.9265594,0.0035858
		c0.0233688-0.1045074,0.0467148-0.2090302,0.0700836-0.3135376c-0.987793-0.4395447-1.9755859-0.8790588-3.1480637-1.4007721
		c8.2214584-5.3771362,16.7230453-9.9463806,25.4967117-14.6150513c-2.417572-0.7988129-4.6092529-1.552948-6.8197327-2.2472229
		c-4.6881409-1.4724884-9.4054565-2.8471527-14.1943436-3.956604c-0.780983-0.1809235-1.0169983-0.4437561-0.7868423-1.2609558
		c0.48703-1.7292633,0.9310303-3.476532,1.2659225-5.240448c0.1886826-0.9938202,0.5877914-1.0369415,1.431778-0.7734375
		c7.5158005,2.3463745,14.9393845,4.9568329,22.3201065,7.6935425c1.5323486,0.5681915,3.112442,1.5981903,4.611084,1.500885
		c1.5023804-0.0975494,2.9358063-1.3282776,4.3899841-2.0806427c3.2302551-1.6712189,6.4551392-3.3528748,9.6807098-5.0330963
		c0.4283142-0.223114,0.805481-0.4516754,1.3145752-0.0840454c2.03479,1.4694214,4.0966034,2.9015045,6.3414154,4.4833984
		c-4.0719452,2.1881409-7.983429,4.2900543-12.1178894,6.511795c2.968689,1.0622406,5.7076263,2.0944824,8.4859161,3.0070801
		c0.9296265,0.3053741,1.3431244,0.7566681,1.4360352,1.7231293c0.1947784,2.026123,0.5059967,4.040802,0.7354584,6.0640411
		c0.0415039,0.3658905,0.3067017,0.8710327-0.0785217,1.100769c-0.3554382,0.2119751-0.7404785-0.184082-1.0865021-0.3546448
		c-5.3081055-2.6163788-10.7450104-4.9370728-16.2428436-7.1211853c-0.5858765-0.2327423-1.0766144-0.3285522-1.6923676,0.0009155
		c-7.2593689,3.8844147-14.5047302,7.7928772-21.5702362,12.0243378
		C134.0796814,171.6027222,133.9187775,171.709259,133.467392,171.9946747z"></path>
	<path d="M91.9102783,30.1946754c4.0238113,2.5050964,8.3539124,4.2692909,12.9653778,5.3535576
		c-3.940773,0.8640556-7.8816986,1.7283745-11.8228378,2.5917854c-1.4066086,0.3081665-1.4080429,0.3082161-0.4563828,1.4089317
		c0.862854,0.9980125,1.7119827,2.0086708,2.6005249,2.9833717c0.429863,0.4715385,0.4161148,0.746212-0.1550598,1.0925293
		c-1.8458939,1.1192131-3.6806488,2.2590294-5.4829254,3.4466133c-0.6169281,0.406517-0.8983002,0.1481781-1.268425-0.304451
		c-1.4927826-1.8255081-3.0164795-3.6257439-4.5165482-5.4453621c-0.3512955-0.4261131-0.6839447-0.708847-1.3126755-0.5349846
		c-4.3892899,1.2138023-8.780098,2.42099-13.1141357,3.8234291c-0.0620956,0.0201035-0.1065674,0.0945892-0.254364,0.2323112
		c4.3247604,2.6676102,8.739502,5.0967903,13.4213638,7.4634628c-2.3834763,1.2233772-4.5803757,2.3344421-6.7590561,3.4801178
		c-0.5913849,0.3109894-0.9929504-0.0324898-1.4347992-0.2758179c-7.0060806-3.8583107-13.8582687-7.9747238-20.5897026-12.2923508
		c-2.0522766-1.3163567-4.1111069-2.6251869-6.1165085-4.0103912c-0.7097702-0.4902802-1.2188034-0.4354706-1.9264565-0.0174408
		c-4.4048042,2.6019974-8.8490944,5.1372452-13.2514153,7.7433586c-0.8806686,0.521347-1.1192608,0.3512955-1.2256203-0.609314
		c-0.140358-1.2676506-0.3708248-2.529274-0.6363277-3.7778206c-0.1908417-0.8974342,0.0612659-1.3507309,0.9529572-1.7019653
		c5.2862949-2.0822411,10.7840786-3.4418678,16.263834-4.8685417c1.043972-0.2718048,2.1455727-0.4230003,3.1132317-0.8647461
		c1.6645126-0.7598648,2.9315338-0.3673782,4.3265877,0.7169914c1.9201279,1.4925003,4.0295982,2.741703,6.0582695,4.0946693
		c0.1654739,0.110363,0.3271179,0.2383957,0.672493,0.1066589c-0.3775864-1.8510475,1.032444-2.088726,2.3593597-2.4685555
		c4.2166519-1.207016,8.4243393-2.4453049,12.8177185-3.7245712c-1.5518951-1.6526871-3.0396042-3.2380619-4.5289154-4.8219337
		c-0.2190781-0.2329845-0.42173-0.4902325-0.6731873-0.6823883c-0.9555588-0.7302322-0.7014236-1.1126766,0.2740097-1.6111012
		c1.5959625-0.8154984,3.1417999-1.7453289,4.635643-2.73699c0.7087555-0.4704952,1.0983505-0.4655743,1.6802673,0.1753178
		c2.0958786,2.3082829,4.2722473,4.5434666,6.3754349,6.8453007c0.4961243,0.5429688,0.9382629,0.7095242,1.6589508,0.5113583
		C88.3312836,31.0289249,90.1256104,30.6293373,91.9102783,30.1946754z"></path>
	<path d="M32.728775,70.3026276c1.0485191,1.1478195,2.1830215,1.0943069,3.2977524,1.131958
		c3.3891144,0.1144562,6.7798843,0.2044373,10.2763596,0.5347214c-0.7619553,1.7806244-1.4461632,3.4747009-2.2151985,5.1293945
		c-0.3029213,0.6517792-0.2052841,0.9940414,0.4150887,1.3317642c1.1569519,0.629837,2.2669106,1.3457642,3.4224243,1.9784088
		c0.5620384,0.3077164,0.6809654,0.6185074,0.4403992,1.2388992c-0.9664574,2.4923477-1.8843803,5.0038223-2.7919884,7.5184097
		c-0.2096329,0.5807953-0.4428596,0.6155396-0.9423637,0.2994003c-2.8043175-1.7749176-5.5275841-3.6647415-8.1927643-5.6411819
		c-0.7761879-0.5756073-0.7969246-1.5332108-1.2406616-2.2775345c-1.8753853-3.1457367-2.5393944-6.6014862-2.5184288-10.2198486
		C32.6807327,71.0967941,32.7008629,70.866684,32.728775,70.3026276z"></path>
	<path d="M39.9186859,95.3978653c-0.1778336-0.5008392,0.1980972-0.5989304,0.544239-0.7111359
		c3.1109085-1.0084,6.2245483-2.0084381,9.3323936-3.0261459c0.5983696-0.1959457,0.8810196,0.0087509,1.0179367,0.5929031
		c0.454525,1.9391861,0.9068565,3.8794327,1.4083176,5.8067322c0.1598663,0.6144028-0.1209755,0.7529526-0.6098442,0.8819809
		c-3.2782326,0.8652573-6.554081,1.7398605-9.8242683,2.634903c-0.4546738,0.1244431-0.7599564,0.1805267-0.8591309-0.4049911
		C40.6020317,99.2456284,40.2567062,97.3223648,39.9186859,95.3978653z"></path>
	<path d="M186.4092407,76.4433823c-1.4758759,0.6704941-2.4799652,0.0139008-3.5128174-1.0410385
		c-1.6103973-1.6448746-3.3659515-3.1478043-5.164444-4.8072433c3.2482147-1.0919113,6.4093781-1.9107895,9.5821838-2.6797638
		c2.2107849-0.5357895,4.4431305-0.9822845,6.6622925-1.4844131c0.5320435-0.1203842,0.9408875-0.1903305,0.9113007,0.5851364
		c-0.0790405,2.0727844-0.1521912,4.1466141-0.1701508,6.2205276c-0.0074005,0.8539886-0.4066772,1.1544495-1.1877899,1.3104324
		c-1.3942871,0.2784424-2.7675476,0.6620178-4.4159546,1.0670929c1.5296631,0.9732513,2.8179932,1.8258667,4.1415405,2.619812
		c0.5752716,0.3450623,0.7710114,0.7455444,0.5623474,1.3785858c-0.711731,2.159111-1.4052734,4.3242111-2.119812,6.4823914
		c-0.3188171,0.9629364-0.7578735,1.3075943-1.7958984,0.6326752c-1.7381439-1.1301498-3.569046-2.1241455-5.4004974-3.1013412
		c-0.6635895-0.3540726-0.8330841-0.6005554-0.4650574-1.3395081c0.9230347-1.8532944,1.7231903-3.7677078,2.5718536-5.6579208
		c0.0693512-0.1003571,0.130722-0.2112732-0.0130463-0.2863693
		C186.5603943,76.3242111,186.4726715,76.4070282,186.4092407,76.4433823z"></path>
	<path d="M196.8776093,42.5304832c-0.2951813,2.4787674-0.7490387,4.6255341-2.7528229,6.2583656
		c-1.5337372,1.2498245-2.7743073,2.8647346-4.1080933,4.3506126c-0.4050446,0.4512062-0.6785736,0.5983734-1.2691956,0.2307205
		c-2.44104-1.5194855-4.9119415-2.9924393-7.3990784-4.4356728c-0.6999817-0.4061852-0.7936859-0.6667671-0.1856232-1.2821808
		c2.6122894-2.6438675,5.2791138-5.2278976,8.0335693-7.7239227c0.4775543-0.4327469,0.9047699-0.5365944,1.5010223-0.3397217
		c1.737915,0.5738335,3.4923706,1.0975189,5.2313538,1.6682281
		C196.5964966,41.476059,197.2388306,41.7698746,196.8776093,42.5304832z"></path>
	<path d="M187.6622009,57.1461563c2.6149139-1.0061646,5.0480042-1.9423637,7.6335602-2.9372253
		c-0.3612213,3.0217819,0.0361786,5.9134216-0.421051,9.0019913
		C192.4294586,61.1547928,190.1133423,59.2072525,187.6622009,57.1461563z"></path>
	<path d="M184.4617462,37.944767c-3.2456207,0.7137299-6.2671661,1.3781891-9.4746399,2.0835304
		c0.3892365-1.3640556,0.7556-2.637928,1.1148987-3.9137802c0.095108-0.337719,0.3148499-0.4516068,0.6321259-0.3620796
		C179.2506104,36.4624939,181.7653046,37.1788635,184.4617462,37.944767z"></path>
</g>
<g onclick="select(this)" class="" id="gola-secundaria" fill="#ffffff">
	<path d="M116.381897,49.0477715c-0.833313,0.1792374-1.5540314,0.8447723-2.4916306,0.5762138
		c-0.2429886-0.8100166,0.0134811-1.5773506,0.2099228-2.3466339c0.9254532-3.6241417,2.5626907-6.9285126,4.5458755-10.0765305
		c4.071579-4.2816811,8.1088333-8.5966644,12.2260513-12.8340473c3.0537415-3.1428699,5.6721802-6.599184,7.8688354-10.3761835
		c0.8143311-1.4001684,1.7721558-2.7472076,2.0830841-4.3920069c0.7533875-1.2694387,1.0100403-2.6635509,1.0385284-4.116147
		c0.0198059-1.0104756-0.4715271-1.6589177-1.4058533-1.9923222c-1.0610199-0.3786092-2.1595917-0.5912797-3.2826538-0.5918701
		c-15.6694641-0.0082369-31.3389282-0.00945-47.0083847-0.0003197c-1.2024078,0.0007005-2.3825226,0.2080977-3.5079956,0.6614058
		c-0.7330017,0.2952342-1.1955872,0.8186088-1.2209396,1.6196523c-0.0457764,1.4464493,0.1008453,2.8654075,0.8091202,4.1703057
		c0.0213013,0.5789623,0.300766,1.0720949,0.5620575,1.5584946c2.38797,4.4450502,5.0850906,8.6672239,8.5695572,12.3653116
		c4.3810806,4.649662,8.9325867,9.1387711,13.1583099,13.9347115c2.2260818,3.3094826,3.8987961,6.8636017,4.8087921,10.7629395
		c0.1308823,0.5608521,0.1703644,1.0992241,0.0435715,1.6546783c-0.7916565,0.120388-1.4984818-0.1469536-2.1913986-0.4788055
		c-0.0642853-0.1402206-0.1510849-0.2473221-0.3273773-0.2237511c0,0,0.0195007,0.0175781,0.0195007,0.0175819
		c-1.0149002-4.6100464-2.9440384-8.7701225-6.1842422-12.2461243c-2.6970062-2.8932724-5.4329224-5.751564-8.1998749-8.5781593
		c-3.83992-3.9226913-7.426918-8.0305252-10.2087784-12.8014402c-1.953331-3.3499784-3.538353-6.7904634-3.5216599-10.769886
		c0.3887329-1.9640388,2.3138046-3.5002825,4.8151779-3.8288832c1.3080978-0.1718415,2.6194916-0.2685983,3.9428711-0.2676472
		c14.7557983,0.0106048,29.5116043,0.0095289,44.2674103,0.0041322c1.6841431-0.000616,3.3609924,0.0772934,4.9909973,0.5180932
		c1.4780121,0.3996955,2.6998138,1.1730733,3.345108,2.6483269c0.7675629,2.8465242-0.0760956,5.4809065-1.2373657,7.9960232
		c-1.9331055,4.1867867-4.3998566,8.0750628-7.5047913,11.4869471c-4.1099091,4.5162182-8.3819962,8.8846245-12.5557861,13.343298
		C119.4875946,40.0241508,117.3455429,44.2388077,116.381897,49.0477715z"></path>
</g>
<g onclick="select(this)" class="" id="detalhe-punho" fill="#082890">
	<path d="M43.3154755,120.5660324c-1.4355507,0.9719238-3.1036453,1.2496643-4.7561264,1.4678955
		c-6.7249794,0.8881226-13.4724941,0.7420044-20.2071953,0.1770859c-5.0925493-0.4271774-10.1221333-1.2906342-15.0371294-2.7495346
		C2.2495277,119.1452103,1.2605952,118.665741,0.24,118.2521973c0-1.1193542,0-2.2387161,0-3.3580704
		c0.5486878-1.013916,0.4496389-2.1613922,0.6660056-3.2437286c0.1129808-0.5651779,0.0608322-1.1747894,0.4776655-1.6509933
		c0.5223107,0.3816452,1.097532,0.671875,1.7198904,0.8264084c1.7042122,0.4231491,3.402638,0.891655,5.1287928,1.1999283
		c3.7223806,0.6647568,7.3449764,1.8807755,11.1703939,1.9861069c1.8743458,0.0515976,3.7485161,0.1686249,5.6183205,0.3134079
		c3.6989613,0.2864227,7.4015083,0.1185532,11.1025429,0.1539001c1.9179955,0.0183182,3.7075233-0.4855804,5.4632797-1.1675491
		c0.3865089-0.150116,0.6609917-0.2605591,0.7769508,0.2810745
		C42.8564644,115.8936157,43.3439445,118.1943893,43.3154755,120.5660324z"></path>
	<path d="M184.629776,120.3339005c-0.2430878-2.2250748,0.3524628-4.353035,0.7284698-6.5097427
		c0.1014557-0.5819016,0.306015-0.7070084,0.8614807-0.5922012c5.6474152,1.1671143,11.3917694,0.9484406,17.0656738,0.6848907
		c8.0842285-0.3754807,15.92099-2.3513718,23.569519-5.0004501c0.3325653-0.1151886,0.6316833-0.326828,0.9463959-0.4935226
		c0.846756,1.1987991,0.5564423,2.6714325,0.9425964,3.9882355c0.2302704,0.7852707,0.0896912,1.6713486,0.2314148,2.4921799
		c0.2250977,1.3037643-0.4503174,1.8661575-1.5581207,2.2358398c-5.7537537,1.920105-11.6115112,3.3484344-17.6209106,4.2630234
		c-5.4544983,0.8301239-10.9163971,0.6914978-16.3850403,0.6551743c-2.4737091-0.0164337-4.9351349-0.3196335-7.3445587-0.9341354
		C185.5209961,120.9840088,184.999527,120.7955399,184.629776,120.3339005z"></path>
</g>
<g onclick="select(this)" class="" id="gola-terciaria" fill="#000000">
	<path d="M113.3881454,49.6254234c0.1267929-0.5554543,0.0873108-1.0938263-0.0435715-1.6546783
		c-0.909996-3.8993378-2.5827103-7.4534569-4.8089294-10.7629204c3.3700485-0.0023193,6.740242-0.0046616,10.1104202-0.0070076
		c-1.9831848,3.1480217-3.6204224,6.4523926-4.5458755,10.0765343c-0.1964417,0.7692833-0.4529114,1.5366173-0.2099228,2.3466339
		C113.7232819,49.6243935,113.5557098,49.6249084,113.3881454,49.6254234z"></path>
</g>
<path d="M110.8693695,48.9228668c0.1762924-0.023571,0.263092,0.0835304,0.3273773,0.2237511
	C111.0420837,49.1388245,110.8634338,49.1658516,110.8693695,48.9228668z"></path>
<g onclick="select(this)" class="" id="gola-primaria" fill="#082890">
	<path d="M116.381897,49.0477715c0.9636459-4.8089638,3.1056976-9.0236206,6.4560394-12.6026421
		c4.17379-4.4586735,8.4458771-8.8270798,12.5557861-13.343298c3.1049347-3.4118843,5.5716858-7.3001604,7.5047913-11.4869471
		c1.1612701-2.5151167,2.0049286-5.1494989,1.2373657-7.9960232c1.0215149,0.579803,1.5800476,1.6334033,2.4385681,2.3822198
		c0.9803619,0.8550615,1.8003998,1.9075398,3.041687,2.4371476c1.5554199,1.0682402,2.0092163,2.3769665,1.6367493,4.2228546
		c-0.5265961,2.6097441-1.8113861,4.8720531-3.2985382,6.9872799c-4.738327,6.7395897-9.7671814,13.2395878-15.7610931,18.9537144
		c-3.9484558,3.7641449-7.8574677,7.528244-13.1161346,9.452404
		C118.177948,48.3834915,117.2802658,48.7165756,116.381897,49.0477715z"></path>
	<path d="M82.7743149,4.5448394c-0.0166931,3.9794221,1.5683289,7.4199071,3.5216599,10.769886
		c2.7818604,4.770915,6.3688583,8.8787489,10.2087784,12.8014402c2.7669525,2.8265953,5.5028687,5.6848869,8.1998749,8.5781593
		c3.2402039,3.4760017,5.169342,7.6360779,6.1842422,12.2461243c-0.8428192,0.0738869-1.5185165-0.408268-2.2481384-0.6932793
		c-3.9157181-1.5295563-7.29953-3.8393021-10.3784943-6.7113991c-7.2812805-6.7920761-13.6390457-14.3459988-19.1893234-22.5971069
		c-1.278511-1.9006538-2.3447571-3.8768501-2.7723083-6.1657696c-0.4197464-2.2471323,0.0091324-3.2733994,2.0199966-4.4530277
		c1.2253876-0.542841,2.0059662-1.6151767,2.9658661-2.4759879C81.7761993,5.4046993,82.0902557,4.761116,82.7743149,4.5448394z"></path>
	<path d="M140.8240356,9.5985832c-6.7666626,0.4636936-13.5341492,0.9158564-20.2997818,1.3940048
		c-8.3960342,0.5933704-16.7453384-0.1868391-25.0988083-0.8302774c-3.0626907-0.2359104-6.1201324-0.5400925-9.1797791-0.813076
		c-0.7080841-1.3048449-0.8547058-2.723803-0.8089294-4.1702523c0.0253525-0.8010435,0.4879379-1.3244181,1.2209396-1.6196523
		c1.125473-0.4533081,2.3055878-0.6607053,3.5079956-0.6614058c15.6694565-0.0091302,31.3389206-0.0079172,47.0083847,0.0003197
		c1.1230621,0.0005903,2.2216339,0.2132609,3.2826538,0.5918701c0.9343262,0.3334045,1.4256592,0.9818466,1.4058533,1.9923222
		C141.8340759,6.9350324,141.5774231,8.3291445,140.8240356,9.5985832z"></path>
</g>
</svg>
