<!--?xml version="1.0" encoding="utf-8"?-->
<!-- Generator: Adobe Illustrator 24.2.3, SVG Export Plug-In . SVG Version: 6.00 Build 0)  -->
<svg version="1.1" id="Camada_1" xmlns="http://www.w3.org/2000/svg" xmlns:xlink="http://www.w3.org/1999/xlink" x="0px" y="0px" viewBox="0 0 229 418" style="enable-background:new 0 0 229 418;" xml:space="preserve">
<style type="text/css">
	.st0{fill:#FD0202;}
	.st1{fill:#C62C2B;}
	.st2{fill:#12120A;}
</style>
<g onclick="select(this)" class="" id="gola-primaria" fill="#ffffff">
	<path d="M78,8c0.8-0.1,1.3-0.6,1.8-1.1c0.8-0.7,1.6-1.4,2.2-2.2c2.4-3.4,5.9-4.1,9.6-4.1c10.8-0.1,21.7,0,32.5,0
		c3.7,0,7.4,0,11,0c2.1,0,4.1,0.4,6.1,0.9c1.2,0.3,2.2,1,3.1,2c1.5,1.8,3,3.7,5.1,4.9c1.9,0.9,2.2,2,1.6,4.7c-0.9,4-3.1,7.3-6,10.1
		c-3.2,3.1-6.7,5.8-10.6,8c-2.5,1.4-5,2.6-7.6,3.6c-4.9,1.8-10,2.5-15.3,2.1c-6.9-0.5-13.4-2.4-19.3-6.2c-4.7-3-9.1-6.2-12.5-10.7
		c-1.6-2.1-2.7-4.4-3.4-7C75.9,10.5,76.2,9.2,78,8z M144.3,9.1c-1.6,0.1-3.1,0.2-4.5,0.3c-8.3,0.7-16.6,1.3-25,1.5
		c-6.4,0.2-12.8-0.5-19.1-1C91.8,9.6,88,9.2,84.1,8.9C83.3,8.8,83,9,83.4,9.8c0.5,1.1,1,2.3,1.8,3.2c3.9,4.9,8.5,9,14.2,11.7
		c5.4,2.7,11.2,4.2,17.3,3.4c9.8-1.2,17.7-6,24.1-13.4C142.3,13.2,143.5,11.4,144.3,9.1z"></path>
</g>
<g onclick="select(this)" class="" id="estampa-primaria" fill="#ffffff">
	<path d="M229,116.1c-6.9,2.8-14,4.3-21.3,5.2c-6.2,0.8-12.4,0.7-18.6,0c-1.5-0.2-3.1-0.4-4.6-1.3c-0.2,2.1-0.4,4.1-0.6,6
		c-0.9,7.2-1.3,14.5-1.4,21.8c0,2.2,0.1,4.4,0.5,6.6c0.4,2-0.1,3.9-0.2,5.8c0,0.7-0.2,1.4-0.1,2.2c0.2,6.5-0.6,13.1,0,19.6
		c0.1,1.5,0,3-0.1,4.4c-0.3,3.1,0.2,6.1,0.9,9.1c1.6,7.2,1.4,14.5,0.3,21.8c-0.3,2.1-0.4,4.2,0.3,6.4c1.8,5.4,1.8,11,0.9,16.6
		c-0.2,1.5-0.3,2.9,0.1,4.4c0.9,3.8,0.4,7.7,0.6,11.6c0.3,5.9,0.7,11.8,1.4,17.7c0.3,2,0.2,4.1,0.3,6.2c0,1.7-0.4,2.2-2.1,2.7
		c-3,0.9-6.1,1.2-9.2,1.5c-7.7,0.8-15.4,0.9-23.1,1c-11.2,0.2-22.5,0.7-33.7,0.8c-12.5,0.2-24.9-0.8-37.4-0.8
		c-8.4,0-16.8-0.1-25.2-0.7c-4.1-0.3-8.3-0.8-12.4-1.7c-0.2,0-0.3-0.1-0.5-0.1c-3.4-0.8-3.7-1.2-3.5-4.7c0.5-7.7,1-15.5,1.5-23.2
		c0.1-2.1,0.3-4.1,0.2-6.2c0-1.8,0-3.5,0.4-5.3c0.4-2.3,0.5-4.5,0.1-6.8c-0.4-2.5-0.1-5,0.4-7.5c0.2-1,0.2-2,0.1-3
		c-0.3-4.5-1-9.1-0.8-13.6c0.2-4.4,1.2-8.5,2.7-12.6c0.4-1,0.6-2,0.4-3.1c-0.2-1.2-0.2-2.5,0.1-3.7c0.3-1.7,0.2-3.3,0.1-5
		c-0.2-3.3-0.2-6.5-0.2-9.8c-0.1-12.9,0-25.9-0.1-38.8c0-5.1-1-10.2-1.5-15.3c-0.1-1.3-0.3-2.6-0.5-3.8c-8.8,2.5-17.7,2-26.6,1.1
		c-4.7-0.5-9.4-1.3-14-2.8c-0.9-0.3-1.7-0.6-2.5-1.2c0-1,0-2.1,0-3.1c0.4-0.1,0.3-0.4,0.3-0.7c0.3-1.8,0.7-3.7,1-5.5
		c1.9-10,2.9-20.1,4.4-30.1c0.9-6,1.5-12,3.2-17.8c2.7-9.7,7.4-18.3,15.2-24.9c1.1-0.9,2.2-1.9,3.2-2.9c0.6-0.6,1.3-1,2-1.4
		c6.5-3.1,13.1-5.9,19.8-8.7c7.6-3.1,15-6.6,22.1-10.7c1-0.6,2-1.3,2.8-2.2C75.2,8.7,76.4,8,78,8c-1.7,1.3-2.1,2.5-1.5,4.8
		c0.7,2.5,1.8,4.8,3.4,7c3.3,4.5,7.8,7.8,12.5,10.7c5.9,3.7,12.4,5.7,19.3,6.2c5.2,0.4,10.3-0.4,15.3-2.1c2.7-1,5.2-2.2,7.6-3.6
		c3.9-2.2,7.4-4.9,10.6-8c2.8-2.8,5.1-6.1,6-10.1c0.6-2.7,0.2-3.8-1.6-4.7c1.8-0.1,3,1,4.1,2.2c0.3,0.3,0.4,0.7,0.8,0.9
		c4,2.3,7.9,4.8,12.1,6.7c10.4,4.7,21.1,8.8,31.5,13.6c0.7,0.3,1.3,0.7,1.9,1.2c1.1,0.9,2.1,1.8,3.2,2.7c3.7,2.9,6.8,6.3,9.4,10.2
		c4.3,6.6,6.7,13.9,8.3,21.6c1,4.9,1.2,9.8,2.4,14.7c1.5,5.7,2.6,11.5,3.5,17.4c0.5,3.6,1,7.3,1.7,10.8c0.2,0.8-0.2,1.9,0.8,2.5
		C229,113.7,229,114.9,229,116.1z"></path>
	<path d="M144.3,9.1c-0.8,2.3-2.1,4.1-3.5,5.8c-6.4,7.4-14.3,12.2-24.1,13.4c-6.1,0.7-11.8-0.8-17.3-3.4C93.8,22,89.1,18,85.2,13
		c-0.8-1-1.3-2.1-1.8-3.2c-0.4-0.9-0.1-1,0.7-0.9c3.9,0.4,7.7,0.8,11.6,1.1c6.4,0.5,12.7,1.2,19.1,1c8.3-0.2,16.7-0.8,25-1.5
		C141.3,9.3,142.7,9.2,144.3,9.1z"></path>
</g>
<g onclick="select(this)" class="" id="estampa-terciaria" fill="#bf0811">
	<path d="M93.3,106.6c3.5-0.8,7.1-0.8,10.6-0.5c2.7,0.3,5.3-0.1,8-0.2c3.1-0.1,6.3,0,9.4,0.6
		C111.9,107.1,102.7,106.8,93.3,106.6z"></path>
	<path d="M88.6,88.6c-5.8,0.8-11.6,0.8-17.4,0C77,87.9,82.8,88,88.6,88.6z"></path>
	<path d="M124.8,61.8c5.8-0.7,11.7-0.7,17.7-0.1C140.6,62.6,127.9,62.7,124.8,61.8z"></path>
	<path d="M87.7,61.8c-5.8,0.7-11.7,0.7-17.6,0C76,61,81.9,61.1,87.7,61.8z"></path>
	<path d="M151.9,106.5c-5.8,0.7-11.6,0.6-17.7,0.1C136.2,105.8,146.8,105.7,151.9,106.5z"></path>
	<path d="M67.5,106.5c4-0.7,13.7-0.7,17.8-0.1C83.6,107.2,70.6,107.3,67.5,106.5z"></path>
	<path d="M72,75.3c5.8-0.8,11.6-0.8,17.3,0C83.6,75.9,77.8,75.9,72,75.3z"></path>
	<path d="M146.1,75.3c-5.8,0.6-11.6,0.6-17.3,0C134.6,74.5,140.3,74.5,146.1,75.3z"></path>
	<path d="M135.3,97.6c-5.6,0.8-11.2,0.8-16.8,0C124.1,96.8,129.7,96.9,135.3,97.6z"></path>
	<path d="M96.8,133.3c-5.5,0.7-11.1,0.7-16.6,0C85.8,132.6,91.3,132.6,96.8,133.3z"></path>
	<path d="M97.1,84.2c-5.5,0.7-11,0.7-16.6,0C86,83.4,91.6,83.4,97.1,84.2z"></path>
	<path d="M86.4,146.7c5.6-0.7,11.2-0.7,16.7,0C97.6,147.5,92,147.4,86.4,146.7z"></path>
	<path d="M141.6,111.1c-5.6,0.6-11.2,0.6-16.9,0.1C126.8,110.2,139.1,110.2,141.6,111.1z"></path>
	<path d="M119.5,48.3c5.5-0.6,10.9-0.5,16.4,0c0,0.1,0,0.2,0,0.3c-1.4,0.1-2.7,0.3-4.1,0.3c-3.8,0.1-7.7,0.2-11.5-0.2
		c-0.3,0-0.5-0.1-0.8-0.2C119.5,48.4,119.5,48.4,119.5,48.3z"></path>
	<path d="M112.9,39.5c5.4-0.7,10.8-0.7,16.1,0C123.6,40.3,118.3,40.2,112.9,39.5z"></path>
	<path d="M73.9,120c3.9-0.9,12.9-0.8,15.9,0C84.5,120.6,79.2,120.6,73.9,120z"></path>
	<path d="M99.7,97.6c-3.3,0.8-14,0.8-16.2,0C86.7,96.8,96.3,96.8,99.7,97.6z"></path>
	<path d="M128.3,84.2c-5.3,0.7-10.6,0.7-15.9,0C117.6,83.4,122.9,83.4,128.3,84.2z"></path>
	<path d="M92.9,142.3c5.3-0.7,10.7-0.7,16,0C103.6,143,98.3,143,92.9,142.3z"></path>
	<path d="M102.2,53c-1.7,0.1-3.4,0.3-5.1,0.4c-4,0.1-8,0.2-11.9-0.5c1.8-0.4,3.6-0.5,5.5-0.5c3.6,0,7.2-0.1,10.7,0.5
		c0.3,0,0.6,0,0.8,0C102.2,52.9,102.2,52.9,102.2,53z"></path>
	<path d="M113.5,52.8c1.3-0.1,2.7-0.2,4-0.3c4.1-0.3,8.2-0.2,12.3,0.2c0.2,0,0.5,0.1,0.9,0.2c-1.7,0.5-3.2,0.5-4.7,0.5
		c-3.7,0.1-7.3,0.2-11-0.3c-0.5-0.1-1,0-1.6-0.1C113.5,52.9,113.5,52.9,113.5,52.8z"></path>
	<path d="M97.4,70.9c-5.4,0.6-10.8,0.4-16.2-0.1c5.4-0.7,10.8-0.8,16.2-0.2C97.4,70.7,97.4,70.8,97.4,70.9z"></path>
	<path d="M103.4,111c-5.4,0.7-10.8,0.7-16.2,0C92.6,110.2,98,110.3,103.4,111z"></path>
	<path d="M109.7,70.8c5.3-0.8,10.7-0.7,16.1,0C120.4,71.5,115,71.4,109.7,70.8z"></path>
	<path d="M88.3,137.8c-5.8,0.7-11.6,0.7-17.4,0C76.7,137.1,82.5,137.1,88.3,137.8z"></path>
	<path d="M145.4,93.2c-5.8,0.6-11.6,0.6-17.7,0.1C130,92.4,142.7,92.4,145.4,93.2z"></path>
	<path d="M77.2,151.2c5.8-0.7,11.6-0.7,17.4,0C88.8,151.9,83,151.8,77.2,151.2z"></path>
	<path d="M86.6,128.9c5.3-0.8,10.6-0.8,15.9,0C97.3,129.6,91.9,129.4,86.6,128.9z"></path>
	<path d="M112.7,119.9c3.2-0.6,12.4-0.6,15.3,0C125.8,120.6,114.8,120.6,112.7,119.9z"></path>
	<path d="M97.6,115.4c-5.6,0.7-11.2,0.6-16.8,0C86.4,114.8,92,114.8,97.6,115.4z"></path>
	<path d="M93.8,102c-2.4,0.7-14.5,0.7-16.8,0C79.2,101.3,91.6,101.3,93.8,102z"></path>
	<path d="M119.3,79.7c5.6-0.7,11.1-0.7,16.6,0C130.4,80.3,124.8,80.3,119.3,79.7z"></path>
	<path d="M103.2,48.5c-1.2,0.1-2.3,0.3-3.4,0.3c-3.4,0-6.8,0.2-10.2-0.2c-0.4,0-0.9,0-1.3-0.2c1.9-0.7,9.4-0.8,14.9-0.2
		C103.2,48.4,103.2,48.5,103.2,48.5z"></path>
	<path d="M107,75.2c-3,0.7-11.7,0.7-15.3,0.1C93.7,74.6,103.7,74.5,107,75.2z"></path>
	<path d="M117.9,115.4c5.4-0.7,10.7-0.7,16.1,0C128.6,116.1,123.2,116.1,117.9,115.4z"></path>
	<path d="M95,57.5c-5.4,0.5-10.7,0.4-16.1-0.2c5.3-0.7,10.7-0.7,16.1-0.2C95,57.3,95,57.4,95,57.5z"></path>
	<path d="M103.9,66.2c-1.3,0.5-2.6,0.5-3.9,0.5c-3.3,0-6.6,0-9.9-0.1c-0.8,0-1.7-0.2-2.8-0.3c1.1-0.5,2.1-0.4,3-0.4
		c4.3-0.3,8.6-0.2,12.9,0.2C103.4,66.1,103.7,66.2,103.9,66.2C103.9,66.3,103.9,66.2,103.9,66.2z"></path>
	<path d="M111.6,102c5.4-0.6,10.7-0.6,16.3-0.1C125.8,102.7,115,102.8,111.6,102z"></path>
	<path d="M117.4,66.2c5.3-0.6,10.5-0.5,15.7,0.2c-5.3,0.6-10.5,0.7-15.8,0.2C117.4,66.3,117.4,66.3,117.4,66.2z"></path>
	<path d="M122.8,75.2c-5,0.7-10.1,0.6-15.1,0C112.8,74.6,117.8,74.6,122.8,75.2z"></path>
	<path d="M106.8,124.4c-2.5,0.7-13.2,0.7-15.3,0C93.2,123.7,105.2,123.7,106.8,124.4z"></path>
	<path d="M107.2,44c2.8-0.7,13.1-0.7,15.5-0.1C121.1,44.6,110.4,44.7,107.2,44z"></path>
	<path d="M97.8,137.7c5.1-0.6,10.1-0.6,15.3-0.1C111.8,138.4,100.5,138.5,97.8,137.7z"></path>
	<path d="M122.3,88.6c-5,0.6-10.1,0.6-15.1,0C112.2,87.9,117.2,88,122.3,88.6z"></path>
	<path d="M103.2,48.5c0-0.1,0-0.2,0-0.3c1.9-0.1,3.9-0.2,5.8-0.3c3.5-0.1,7,0,10.5,0.3c0,0.1,0,0.2,0,0.2
		c-3.2,0.3-6.3,0.5-9.5,0.4c-1.9,0-3.9-0.1-5.8-0.4C103.9,48.5,103.5,48.5,103.2,48.5z"></path>
	<path d="M95,57.5c0-0.1,0-0.3,0-0.4c3.9-0.1,7.8-0.5,11.7-0.2c1.6,0.1,3.1,0.2,4.7,0.5c-1.4,0.1-2.8,0.3-4.2,0.3
		c-3.5,0.1-6.9,0.2-10.4-0.2C96.2,57.5,95.6,57.6,95,57.5z"></path>
	<path d="M107,61.9c-0.8,0.3-1.7,0.3-2.6,0.3c-3.7,0.1-7.4,0.2-11.1-0.1c-0.4,0-0.8-0.1-1.2-0.3c5-0.5,9.9-0.6,14.9,0
		C107,61.8,107,61.8,107,61.9z"></path>
	<path d="M103.7,93.1c-1.2,0.4-2.5,0.4-3.8,0.4c-3.5,0.1-7,0.2-10.5-0.2c-0.2,0-0.5,0.1-0.7-0.4
		c1.5-0.1,2.9-0.2,4.4-0.3c3.2-0.1,6.3-0.1,9.4,0.2C102.9,92.9,103.3,93,103.7,93.1L103.7,93.1z"></path>
	<path d="M101.5,79.5c3.7-0.2,7.5-0.5,11.2-0.3c1.2,0.1,2.5,0.2,3.7,0.3c0,0.1,0,0.2,0,0.3c-1.1,0.1-2.2,0.3-3.4,0.3
		c-3.5,0-7,0.2-10.5-0.3c-0.3-0.1-0.7,0-1.1,0.1C101.5,79.8,101.5,79.6,101.5,79.5z"></path>
	<path d="M101.5,79.5c0,0.1,0,0.2,0,0.3c-4.6,0.5-9.2,0.4-13.8-0.2C92.3,79,96.9,79,101.5,79.5z"></path>
	<path d="M103.7,93.1L103.7,93.1c0.8-0.4,1.7-0.3,2.5-0.3c3.8-0.2,7.7-0.2,11.5,0.1c0.1,0,0.2,0.1,0.6,0.3
		c-1.6,0.1-3,0.3-4.3,0.3c-3.1,0.1-6.2,0.1-9.3-0.2C104.3,93.3,104,93.2,103.7,93.1z"></path>
	<path d="M92.7,43.9c4.6-0.5,9.3-0.6,14.1-0.1C105.1,44.6,95.8,44.7,92.7,43.9z"></path>
	<path d="M111.7,57.4c4.3-0.6,8.5-0.6,12.8,0C120.2,58,116,57.9,111.7,57.4z"></path>
	<path d="M109.6,124.4c4.6-0.6,9.2-0.7,13.8,0C118.8,124.9,114.2,124.9,109.6,124.4z"></path>
	<path d="M107,61.9c0-0.1,0-0.1,0-0.2c1.7,0.1,3.3-0.3,5-0.3c3.3,0,6.7-0.2,10.2,0.3c-1.3,0.5-2.5,0.5-3.7,0.5
		c-3.5,0-6.9,0.3-10.4-0.4C107.8,61.8,107.4,61.9,107,61.9z"></path>
	<path d="M92.3,88.6c4.6-0.6,9.1-0.6,13.7,0C101.4,89.2,96.9,89.2,92.3,88.6z"></path>
	<path d="M101.7,133.4c4.6-0.7,9.2-0.7,13.8,0C110.9,133.9,106.3,133.8,101.7,133.4z"></path>
	<path d="M95.1,119.8c4.9-0.5,9.5-0.5,14.2,0C107.5,120.5,97.8,120.6,95.1,119.8z"></path>
	<path d="M123.8,35.5c1.2-0.5,2.5-0.9,3.8-1c2.9,0.1,5.8,0.1,8.8,0.6C132.1,35.6,128,35.6,123.8,35.5z"></path>
	<path d="M96.9,102c4.3-0.6,8.7-0.6,13.1-0.1C108.6,102.7,99.8,102.8,96.9,102z"></path>
	<path d="M107.1,128.9c4.1-0.6,8.2-0.6,12.3,0C115.2,129.5,111.2,129.4,107.1,128.9z"></path>
	<path d="M113.1,115.4c-4.1,0.6-8.2,0.6-12.3,0C104.9,114.8,109,114.8,113.1,115.4z"></path>
	<path d="M117.4,66.2c0,0.1,0,0.2,0,0.3c-3,0.2-6.1,0.4-9.1,0.3c-1.5,0-2.9-0.1-4.4-0.5v0c4-0.6,8-0.6,12-0.1
		C116.4,66.2,116.9,66,117.4,66.2z"></path>
	<path d="M104.3,111c4.1-0.6,8.3-0.6,12.4,0C112.5,111.5,108.4,111.5,104.3,111z"></path>
	<path d="M97.4,70.9c0-0.1,0-0.2,0-0.3c2.4,0,4.8-0.4,7.3-0.3c1.4,0.1,2.7,0.1,4.1,0.5C105,71.5,101.2,71.2,97.4,70.9z"></path>
	<path d="M109.4,84.2c-3.8,0.5-7.5,0.5-11.2,0C101.9,83.6,105.7,83.6,109.4,84.2z"></path>
	<path d="M113.7,97.6c-4.1,0.6-8.1,0.6-12.1,0C105.6,97,109.6,97.1,113.7,97.6z"></path>
	<path d="M113.5,52.8c0,0.1,0,0.1,0,0.2c-3.8,0.5-7.5,0.5-11.3,0c0-0.1,0-0.1,0-0.2C106,52.3,109.8,52.3,113.5,52.8z"></path>
	<path d="M99.9,39.5c4.1-0.5,8.1-0.6,12.1,0C108,40,103.9,40,99.9,39.5z"></path>
	<path d="M91.4,30c0.6,0.2,1.2,0.5,1.7,1c-2.7,0.1-5.3,0.1-8-0.4C87.2,30.1,89.3,30.1,91.4,30z"></path>
	<path d="M134.5,31c0.5-0.5,1.1-0.8,1.8-1c2,0.1,4.1,0.3,6.1,0.4C139.8,31.1,137.1,31.1,134.5,31z"></path>
	<path d="M125,57.4c0.4-0.3,0.7-0.2,1.1,0C125.7,57.6,125.4,57.6,125,57.4z"></path>
</g>
<g onclick="select(this)" class="" id="estampa-secundaria" fill="#021c3b">
	<path d="M88.2,270.4c5.7-0.7,11.3-0.7,16.9,0C99.5,271,93.9,270.9,88.2,270.4z"></path>
	<path d="M156.3,270.4c-5.6,0.5-11.3,0.5-17.2,0.1C141.5,269.7,152.5,269.6,156.3,270.4z"></path>
	<path d="M155.7,252.8c-2.8,0.8-14.4,0.8-17.1,0C142,252.2,152.4,252.2,155.7,252.8z"></path>
	<path d="M88.9,213.5c5.7-0.7,11.4-0.7,17.1,0C100.3,214.2,94.6,214.2,88.9,213.5z"></path>
	<path d="M108.4,196.1c-5.7,0.6-11.4,0.6-17,0C94.1,195.3,104.3,195.3,108.4,196.1z"></path>
	<path d="M144.7,169.8c5.7-0.8,11.3-0.7,17,0C156.1,170.4,150.4,170.4,144.7,169.8z"></path>
	<path d="M163,226.6c-5.6,0.7-11.3,0.7-17,0C151.7,225.9,157.3,225.9,163,226.6z"></path>
	<path d="M166.2,152.3c-5.6,0.6-11.3,0.6-16.9,0C154.9,151.6,160.5,151.7,166.2,152.3z"></path>
	<path d="M111.7,226.8c-5.8,0.5-11.5,0.5-17.2,0C96.2,225.9,109.2,225.9,111.7,226.8z"></path>
	<path d="M142,139.2c5.6-0.7,11.3-0.7,16.9,0C153.3,139.9,147.6,139.8,142,139.2z"></path>
	<path d="M132.8,274.6c5.6-0.6,11-0.6,16.5,0C147.6,275.5,135.1,275.5,132.8,274.6z"></path>
	<path d="M114.3,209.2c-5.4,0.6-10.9,0.6-16.5,0.1C100.1,208.4,110.7,208.4,114.3,209.2z"></path>
	<path d="M141.6,130.4c-3.4,0.7-13.1,0.7-16.5,0C127.6,129.7,137.9,129.7,141.6,130.4z"></path>
	<path d="M156.4,156.7c-5.5,0.7-10.9,0.7-16.4,0C145.4,156,150.9,156,156.4,156.7z"></path>
	<path d="M140.9,187.3c5.4-0.7,10.9-0.7,16.3,0C151.8,188,146.3,187.9,140.9,187.3z"></path>
	<path d="M100.3,191.7c5.4-0.7,10.8-0.6,16.2,0C111.1,192.3,105.7,192.2,100.3,191.7z"></path>
	<path d="M160.3,213.5c-5.3,0.7-10.5,0.7-15.8,0C149.8,212.8,155.1,212.9,160.3,213.5z"></path>
	<path d="M97.8,274.7c3.8-0.6,10.7-0.6,15.6,0C111.6,275.5,99.8,275.5,97.8,274.7z"></path>
	<path d="M111.5,178.5c-5.4,0.6-10.8,0.6-16.3,0C100.7,177.8,106.1,177.8,111.5,178.5z"></path>
	<path d="M133.4,209.1c5.2-0.7,10.4-0.7,15.6,0C145.8,209.8,137.2,209.8,133.4,209.1z"></path>
	<path d="M135.9,174.2c5.1-0.7,10.2-0.7,15.3,0C146.1,174.9,141,174.9,135.9,174.2z"></path>
	<path d="M134,134.8c-5.2,0.7-10.4,0.6-15.6,0C121.8,134.1,130,134.1,134,134.8z"></path>
	<path d="M117,174.1c-2.9,0.8-12.9,0.8-15.7,0C106.7,173.5,111.9,173.5,117,174.1z"></path>
	<path d="M134.2,191.6c5.2-0.6,10.4-0.6,15.5,0C144.6,192.3,139.4,192.3,134.2,191.6z"></path>
	<path d="M141.5,147.9c-5.2,0.7-10.3,0.7-15.5,0C131.2,147.2,136.3,147.2,141.5,147.9z"></path>
	<path d="M134.5,126.1c5.6-0.8,11.3-0.7,16.9,0C145.8,126.7,140.1,126.7,134.5,126.1z"></path>
	<path d="M85.6,283.5c5.6-0.7,11.3-0.7,16.9,0C96.9,284.1,91.3,284,85.6,283.5z"></path>
	<path d="M103.2,182.9c-5.7,0.7-11.3,0.6-17,0C91.8,182.2,97.5,182.3,103.2,182.9z"></path>
	<path d="M167.2,182.9c-5.6,0.6-11.3,0.6-16.9,0C155.9,182.2,161.5,182.2,167.2,182.9z"></path>
	<path d="M118.3,248.6c-4.8,0.6-9.7,0.5-14.5-0.1c4.8-0.7,9.7-0.8,14.5-0.1C118.3,248.5,118.3,248.5,118.3,248.6z"></path>
	<path d="M149.6,200.4c5.6-0.6,11.1-0.6,16.7,0C160.7,201.1,155.2,201.1,149.6,200.4z"></path>
	<path d="M119.8,222.2c-3.3,0.7-14,0.7-16.3,0C108.9,221.6,114.3,221.6,119.8,222.2z"></path>
	<path d="M149,143.6c-2.2,0.6-13.1,0.7-16.3,0.1C134.4,142.8,146.5,142.8,149,143.6z"></path>
	<path d="M95.8,239.7c5.4-0.6,10.8-0.6,16.3-0.1C110.6,240.4,98.3,240.5,95.8,239.7z"></path>
	<path d="M152.2,231c-4.9,0.6-9.8,0.6-14.6,0C142.5,230.4,147.4,230.4,152.2,231z"></path>
	<path d="M131.3,257.1c5.6-0.5,11-0.5,16.5,0C146.3,258,133.6,258,131.3,257.1z"></path>
	<path d="M120.6,235.3c-2.7,0.8-12.7,0.8-14.9,0C108.7,234.7,116.2,234.7,120.6,235.3z"></path>
	<path d="M87.8,165.4c5.4-0.7,10.8-0.7,16.2,0C98.6,166.1,93.2,166,87.8,165.4z"></path>
	<path d="M106.3,270.3c4.8-0.6,9.5-0.5,14.3,0.1c-4.8,0.5-9.5,0.7-14.3,0.1C106.3,270.4,106.3,270.3,106.3,270.3z"></path>
	<path d="M156.4,204.8c-5.4,0.6-10.8,0.6-16.2,0C145.6,204.1,151,204.1,156.4,204.8z"></path>
	<path d="M138.3,217.9c4.8-0.7,9.7-0.7,14.5,0C148,218.6,143.1,218.5,138.3,217.9z"></path>
	<path d="M110.3,252.8c-2.9,0.8-11.5,0.8-14.3,0C100.9,252.2,105.4,252.2,110.3,252.8z"></path>
	<path d="M104,204.8c2.8-0.7,13.8-0.7,15.8-0.1C117.9,205.4,107.5,205.5,104,204.8z"></path>
	<path d="M109.9,266.1c-4.6,0.6-9.2,0.5-13.8,0c0-0.1,0-0.2,0-0.3c1.2-0.1,2.5-0.3,3.7-0.3c3.4-0.1,6.8-0.3,10.1,0.4
		C109.9,266,109.9,266,109.9,266.1z"></path>
	<path d="M126.1,279.1c5.2-0.6,10.4-0.7,15.6,0C136.5,279.8,131.3,279.7,126.1,279.1z"></path>
	<path d="M109,279.3c-5.1,0.5-10.2,0.4-15.3-0.2c5.1-0.6,10.2-0.7,15.3-0.2C109,279,109,279.2,109,279.3z"></path>
	<path d="M120.9,152.3c4.9-0.6,9.8-0.6,14.8,0C130.7,152.9,125.8,152.9,120.9,152.3z"></path>
	<path d="M125.3,217.9c-5.2,0.6-10.4,0.6-15.5,0C115,217.3,120.2,217.3,125.3,217.9z"></path>
	<path d="M91.8,257.3c4.5-0.7,12.7-0.7,15.2,0C101.9,257.9,96.9,257.9,91.8,257.3z"></path>
	<path d="M138.6,239.7c5-0.6,9.9-0.6,15-0.1C152.1,240.4,141.1,240.5,138.6,239.7z"></path>
	<path d="M128.2,139.2c-4.9,0.6-9.9,0.6-15.1,0.1C114.7,138.5,125.9,138.5,128.2,139.2z"></path>
	<path d="M122.9,265.9c5-0.6,10-0.6,15.2-0.1C136,266.6,126.4,266.7,122.9,265.9z"></path>
	<path d="M128.5,213.5c-4.7,0.5-9.3,0.6-14,0C119.2,212.9,123.8,212.9,128.5,213.5z"></path>
	<path d="M121,283.4c4.9-0.6,9.9-0.6,15-0.1C134.3,284.1,124.5,284.2,121,283.4z"></path>
	<path d="M118.6,283.5c-5,0.6-9.9,0.6-14.9,0C108.7,282.8,113.6,282.8,118.6,283.5z"></path>
	<path d="M143.3,165.5c-5.2,0.5-10.1,0.5-15.2,0C129.5,164.7,140.9,164.7,143.3,165.5z"></path>
	<path d="M119.5,187.3c-4.4,0.6-8.8,0.7-13.2,0C110.7,186.6,115.1,186.6,119.5,187.3z"></path>
	<path d="M126.3,261.6c1.8-0.5,3.6-0.5,5.4-0.5c2.7-0.1,5.4-0.1,8.1,0.2c0.4,0,0.9,0.1,1.3,0.5c-4.8,0.4-9.5,0.4-14.1,0
		C126.7,261.8,126.5,261.7,126.3,261.6C126.3,261.6,126.3,261.6,126.3,261.6z"></path>
	<path d="M109.3,200.4c4.9-0.6,9.8-0.6,14.6,0C119.1,201,114.2,201,109.3,200.4z"></path>
	<path d="M143.9,196.1c-4.9,0.5-9.9,0.5-14.8,0.1c0-0.1,0-0.2,0-0.3c1.5-0.1,3-0.3,4.5-0.3
		C137.1,195.6,140.5,195.4,143.9,196.1z"></path>
	<path d="M94.3,161c4.9-0.6,9.8-0.7,14.7,0C104.2,161.7,99.3,161.7,94.3,161z"></path>
	<path d="M133.7,161c4.8-0.6,9.7-0.7,14.5,0C143.4,161.7,138.6,161.7,133.7,161z"></path>
	<path d="M98.5,156.6c5.2-0.5,10.2-0.5,15.2,0C112.2,157.3,100.9,157.3,98.5,156.6z"></path>
	<path d="M106.2,169.8c5-0.6,10-0.6,15,0C116.2,170.4,111.2,170.3,106.2,169.8z"></path>
	<path d="M109,279.3c0-0.1,0-0.3,0-0.4c4,0,8-0.5,12-0.2c1.1,0.1,2.1,0.2,3.2,0.4c-1.4,0.4-2.9,0.4-4.3,0.5
		c-2.7,0.1-5.4,0.1-8.1-0.2C110.8,279.2,109.9,279.2,109,279.3z"></path>
	<path d="M144.7,235.3c-1.9,0.8-10.2,0.8-12.4,0C135,234.7,141.5,234.7,144.7,235.3z"></path>
	<path d="M126.1,200.3c4.5-0.5,9-0.5,13.6-0.1C138.3,201,128.4,201.1,126.1,200.3z"></path>
	<path d="M117.8,156.7c4.5-0.6,9-0.6,13.5,0C126.8,157.3,122.3,157.2,117.8,156.7z"></path>
	<path d="M130.3,248.4c4.2-0.6,8.3-0.4,12.5,0.1c-4.1,0.6-8.3,0.7-12.5,0.1C130.3,248.5,130.3,248.5,130.3,248.4z"></path>
	<path d="M123.8,143.6c-4.5,0.6-9,0.6-13.6,0C114.8,142.9,119.3,142.9,123.8,143.6z"></path>
	<path d="M135.1,244c4.3-0.6,8.7-0.4,13,0.1c-4.3,0.6-8.7,0.7-13,0.2C135.1,244.2,135.1,244.1,135.1,244z"></path>
	<path d="M133.4,222.1c4.3-0.5,8.5-0.4,12.7,0.2c-4.3,0.6-8.6,0.7-12.9,0.2C133.3,222.3,133.4,222.2,133.4,222.1z"></path>
	<path d="M126.3,196.1c-4.5,0.5-8.9,0.5-13.4,0C115,195.4,123.3,195.4,126.3,196.1z"></path>
	<path d="M126.1,182.9c4.2-0.6,8.4-0.6,12.7,0C134.5,183.5,130.3,183.5,126.1,182.9z"></path>
	<path d="M135.6,187.3c-4.5,0.6-8.9,0.6-13.4,0C126.6,186.7,131.1,186.7,135.6,187.3z"></path>
	<path d="M110.1,165.4c4.5-0.5,8.9-0.5,13.4,0C121.2,165.9,113.1,166,110.1,165.4z"></path>
	<path d="M130.2,178.5c4.2-0.6,8.4-0.6,12.5,0C138.6,179.2,134.4,179.2,130.2,178.5z"></path>
	<path d="M123.7,231c-3.9,0.6-7.8,0.6-11.7,0C115.9,230.4,119.8,230.4,123.7,231z"></path>
	<path d="M118.3,209.1c4.5-0.6,8.9-0.6,13.4,0C127.3,209.7,122.8,209.7,118.3,209.1z"></path>
	<path d="M125.2,169.8c4.5-0.6,9-0.6,13.5,0C134.2,170.4,129.7,170.3,125.2,169.8z"></path>
	<path d="M115.2,261.6c-4,0.6-8.1,0.6-12.1,0C107.1,260.9,111.1,261,115.2,261.6z"></path>
	<path d="M140.3,226.6c-2.6,0.6-9.5,0.6-12.1,0C132.4,225.9,136.4,226,140.3,226.6z"></path>
	<path d="M135.5,204.8c-4,0.6-7.9,0.6-11.9,0C127.6,204.2,131.5,204.2,135.5,204.8z"></path>
	<path d="M121.7,252.8c4.1-0.6,8.1-0.4,12.4,0c-1.1,0.4-2,0.5-2.9,0.5c-3.2,0-6.4,0.3-9.6-0.3
		C121.7,252.9,121.7,252.8,121.7,252.8z"></path>
	<path d="M135.1,244c0,0.1,0,0.2,0,0.3c-0.8-0.2-1.5,0.1-2.2,0.1c-3.3,0.2-6.6,0.4-9.9-0.2c-0.3-0.1-0.6,0.1-0.9,0.1
		c0-0.1,0-0.2,0-0.3c1.1,0.2,2.3-0.1,3.4-0.2c2.9-0.1,5.8-0.2,8.7,0.3C134.5,244.1,134.8,244,135.1,244z"></path>
	<path d="M124.6,239.6c2.9-0.1,5.9-0.4,8.8-0.3c1.2,0.1,2.3,0.2,3.5,0.4c-1,0.4-2.1,0.5-3.1,0.5c-2.7,0-5.4,0.2-8.1-0.3
		c-0.4-0.1-0.8,0-1.2,0.1C124.5,239.8,124.5,239.7,124.6,239.6z"></path>
	<path d="M127.6,226.6c-3.9,0.6-7.8,0.6-11.8,0C119.8,226,123.7,226,127.6,226.6z"></path>
	<path d="M129.3,213.4c4.3-0.5,8.4-0.5,12.6,0C140.3,214.1,131.4,214.1,129.3,213.4z"></path>
	<path d="M119,257.4c-0.5-0.1-1-0.1-1.6,0c-3.1,0.5-6.1,0.4-9.2,0c-0.1,0-0.3-0.1-0.6-0.3c3.4-0.5,6.7-0.5,9.9-0.1
		c0.5,0.1,0.9,0,1.4,0C119,257.2,119,257.3,119,257.4z"></path>
	<path d="M126.7,161.1c-1.8,0.5-3.7,0.3-5.5,0.4c-1.9,0-3.7,0-5.6-0.2C116.4,160.4,124.1,160.3,126.7,161.1z"></path>
	<path d="M127.5,274.8c-3.9,0.5-7.8,0.5-12.1,0.1C117.8,274.2,123.7,274.1,127.5,274.8z"></path>
	<path d="M119.9,148c-4.1,0.4-8,0.4-12.1,0C109.3,147.3,117.9,147.3,119.9,148z"></path>
	<path d="M109.9,266.1c0-0.1,0-0.1,0-0.2c2.5-0.2,5-0.5,7.5-0.4c1.3,0.1,2.7,0.2,4,0.4c-2.6,0.7-5.3,0.4-7.9,0.5
		C112.3,266.4,111.2,265.8,109.9,266.1z"></path>
	<path d="M122.2,243.9c0,0.1,0,0.2,0,0.3c-3.6,0.5-7.2,0.4-10.8-0.1C114.9,243.5,118.5,243.5,122.2,243.9z"></path>
	<path d="M133.4,222.1c-0.1,0.1-0.1,0.3-0.2,0.4c-2.6,0-5.2,0.4-7.8,0.3c-1.2-0.1-2.4-0.2-3.7-0.3c0-0.1,0-0.2,0-0.4
		c1.5-0.1,2.9-0.2,4.4-0.3c1.8-0.1,3.5,0.1,5.3,0.3C132.1,222.1,132.8,222,133.4,222.1z"></path>
	<path d="M102.4,152.2c4.7-0.4,9.1-0.4,13.7,0C114.3,152.9,104.5,152.9,102.4,152.2z"></path>
	<path d="M128.2,178.5c-3.6,0.6-7.1,0.6-10.7,0C121.1,177.9,124.6,178,128.2,178.5z"></path>
	<path d="M124.6,239.6c0,0.1-0.1,0.3-0.1,0.4c-3.5,0.4-7,0.4-10.5-0.2C117.5,239.2,121,239.1,124.6,239.6z"></path>
	<path d="M122.3,270.4c4.5-0.5,8.9-0.5,13.4,0C131.2,270.9,126.7,270.9,122.3,270.4z"></path>
	<path d="M119,257.4c0-0.1,0-0.2,0-0.3c3.6-0.4,7.1-0.4,10.7,0.2C126.2,257.7,122.6,257.8,119,257.4z"></path>
	<path d="M126.3,261.6L126.3,261.6c-3.4,0.7-6.8,0.5-10.2,0C119.5,261.1,122.9,261,126.3,261.6z"></path>
	<path d="M123.1,182.9c-3.2,0.6-6.3,0.6-9.5,0C116.7,182.4,119.9,182.4,123.1,182.9z"></path>
	<path d="M118.3,248.6c0-0.1,0-0.1,0-0.2c0.4,0,0.8,0.1,1.3,0c3.2-0.6,6.4-0.4,9.6,0.1c-3.3,0.5-6.6,0.7-9.8,0
		C118.9,248.4,118.7,248.8,118.3,248.6z"></path>
	<path d="M126.7,217.9c3.5-0.6,7.1-0.5,10.6,0C133.8,218.4,130.2,218.4,126.7,217.9z"></path>
	<path d="M121.7,252.8c0,0.1,0,0.1,0,0.1c-2.4,0.3-4.8,0.4-7.2,0.4c-1.2,0-2.4,0-3.5-0.4c3.2-0.5,6.5-0.5,9.7-0.1
		C121,252.8,121.3,252.8,121.7,252.8z"></path>
	<path d="M134.6,174.2c-4,0.4-7.9,0.5-11.8,0C126.7,173.6,130.6,173.6,134.6,174.2z"></path>
	<path d="M118.2,191.6c3.9-0.5,7.8-0.6,11.7,0C126.1,192.2,122.2,192.1,118.2,191.6z"></path>
	<path d="M135.8,231c-3.7,0.5-7.5,0.5-11.5,0.1C126.3,230.4,132.9,230.4,135.8,231z"></path>
	<path d="M131.4,235.3c-1.7,0.6-8.3,0.6-9.8,0C124.8,234.8,128,234.9,131.4,235.3z"></path>
	<path d="M130.3,248.4c0,0.1,0,0.1,0,0.2c-0.1,0-0.4,0.1-0.4-0.1C129.9,248.3,130.2,248.4,130.3,248.4z"></path>
	<path d="M106.3,270.3c0,0,0,0.1,0,0.2c-0.1,0-0.2-0.1-0.3-0.1C106.1,270.3,106.2,270.3,106.3,270.3z"></path>
</g>
</svg>
