<!--?xml version="1.0" encoding="utf-8"?-->
<!-- Generator: Adobe Illustrator 24.2.3, SVG Export Plug-In . SVG Version: 6.00 Build 0)  -->
<svg version="1.1" id="Camada_1" xmlns="http://www.w3.org/2000/svg" xmlns:xlink="http://www.w3.org/1999/xlink" x="0px" y="0px" viewBox="0 0 229 418" style="enable-background:new 0 0 229 418;" xml:space="preserve">
<style type="text/css">
	.st0{fill:#FC0101;}
	.st1{fill:#2145B9;}
	.st2{fill:#D90202;}
	.st3{fill:#89F24B;}
	.st4{fill:#85EC4C;}
	.st5{fill:#D802EF;}
	.st6{fill:#1E328A;}
</style>
<g onclick="select(this)" class="" id="gola-primaria" fill="#009045">
	<path d="M109.3,35.9c-0.2,0.5-0.6,0.3-0.9,0.3c-4.1-0.3-8-1.5-11.6-3.3c-5.4-2.6-10.2-5.9-14.4-10.2
		c-2.7-2.7-4.9-5.8-5.8-9.6c-0.2-1-0.4-2-0.2-3.1c0.2-1,0.9-1.5,1.7-2.1c0.5,0,0.9-0.3,1.3-0.6c0.9-0.9,2-1.7,2.7-2.7
		c2-2.9,5-3.6,8.2-3.9c3.1-0.3,6.1,0.1,9.2,0c4.4-0.1,8.8,0,13.2-0.1c7.9-0.2,15.8,0,23.7,0c0.9,0,1.8,0.2,2.7,0.3
		c2.2,0.3,4.1,1.2,5.6,3.1c1.2,1.6,2.6,3.1,4.4,4.1c1.7,0.5,2.3,2.5,1.7,4.7c-1.2,4.2-3.5,7.7-6.6,10.6c-2.7,2.6-5.8,4.9-9.1,6.8
		c-4.1,2.4-8.3,4.4-12.9,5.4c-1.4,0.3-2.8,0.4-4.3,0.5c0.5-1.1,1.3-2.1,2.1-3c2.2-2.6,4.9-4.8,7.5-7.1c2.1-1.7,4.3-3.3,6.4-5
		c2.4-1.8,4.6-3.8,6.6-6.1c1.5-1.8,2.8-3.7,3.7-6c-2,0.2-3.9,0.4-5.9,0.5c-5.4,0.4-10.8,0.8-16.1,1.1c-5.6,0.4-11.2,0.4-16.8,0
		c-7.1-0.5-14.3-1.1-21.4-1.8c-0.7-0.1-1,0.1-0.7,0.8c0.5,1.2,1.1,2.4,1.9,3.4c3.9,5.3,9.4,8.9,14.4,13.1
		C103.1,29.3,106.6,32.2,109.3,35.9z"></path>
</g>
<g onclick="select(this)" class="" id="detalhe-lateral" fill="#005425">
	<path d="M180.3,284c-0.4-5-0.6-10-0.8-15.1c-0.3-6-0.5-12-0.7-17.9c-0.2-4.9-0.3-9.7-0.5-14.6
		c-0.3-7.3-0.3-14.6-0.5-21.9c-0.4-17-0.2-34.1-0.2-51.1c0-4.8,0.2-9.7,0.5-14.5c0.3-4.8,0.7-9.6,1.1-14.4
		c0.9-9.6,2.5-19.2,4.9-28.5c1.2-4.8,2.7-9.6,4.8-14.2c0.1-0.2,0.1-0.6,0.4-0.7l0,0c0.2,0.5-0.1,0.9-0.2,1.3
		c-1.9,6.6-3.2,13.3-4.1,20.1c-0.4,2.5-0.4,5.1-0.5,7.7c-1.2,10.3-2.3,20.6-2,31c0.1,2.5,0.8,4.9,0.4,7.4c-0.4,2.3-0.4,4.7-0.4,7
		c0.1,6.6,0.1,13.2-0.1,19.7c-0.1,4.5,0.7,8.7,1.4,13c0.9,5.1,0.9,10.2,0.2,15.4c-0.3,2.3-0.5,4.7-0.8,7c0,0.4,0.1,0.8,0.2,1.2
		c2,5.7,2.5,11.6,1.6,17.6c-0.3,2-0.3,4,0.1,6c0.4,2,0.6,4.1,0.5,6.2c-0.1,7.4,0.7,14.7,1.4,22c0.2,2.3,0.3,4.6,0.3,6.9
		c0,1.1-0.5,1.8-1.5,2.2C184.2,283.5,182.3,284,180.3,284z"></path>
	<path d="M42.5,112.8c0.1-1.9-0.4-3.8-0.6-5.7c-0.4-2.9-0.9-5.7-1.3-8.5c-0.1-0.7-0.8-1.2-0.3-2.1
		c0.9,1.9,1.4,3.8,1.9,5.7c1.9,6.1,3.1,12.4,4.2,18.7c0.8,4.5,1.4,9.1,1.8,13.7c0.4,4.2,0.7,8.4,1,12.6c1.3,21.4,0.6,42.8,0.7,64.2
		c0,4-0.1,8-0.2,12c-0.1,6.3-0.3,12.5-0.5,18.8c-0.2,4.4-0.3,8.9-0.5,13.3c-0.2,5.6-0.4,11.2-0.8,16.9c-0.3,3.8-0.2,7.6-0.7,11.3
		c-1.7-0.1-3.4-0.5-5-1.1c-1.6-0.6-2-1.1-2-2.8c0-2.8,0.2-5.6,0.4-8.3c0.4-5.3,0.7-10.6,1.2-15.9c0.4-4.8-0.1-9.6,0.9-14.3
		c0.2-0.9,0.1-1.8,0-2.7c-0.5-3.1-0.4-6.2,0.3-9.3c0.2-0.9,0.1-1.7,0.1-2.6c-0.3-4.1-0.8-8.1-0.9-12.2c0-4.9,1.1-9.7,2.7-14.3
		c0.3-0.9,0.5-1.7,0.4-2.7c-0.2-1.6-0.1-3.2,0.2-4.8c0.1-0.6,0.2-1.2,0.1-1.8c-0.1-4.8-0.3-9.6-0.4-14.5c0-1.1,0.1-2.2,0.2-3.3
		c0.1-1.9,0.1-3.7,0-5.6c-0.4-5.1-0.2-10.1-0.1-15.2c0.2-9.1-0.2-18-1.5-27c-0.2-1.5-0.4-3.1-0.6-4.6c0.5-1.2-0.2-2.3-0.4-3.5
		C42.7,115.6,42.9,114.1,42.5,112.8z"></path>
</g>
<g onclick="select(this)" class="" id="detalhe-punho" fill="#005425">
	<path d="M0.2,114.4c0.5-1,0.5-2.2,0.7-3.3c0.1-0.5,0.1-1.1,0.5-1.5c4.7,1.9,9.7,3.3,14.7,3.9
		c5.6,0.7,11.3,0.9,16.9,0.7c2.4-0.1,4.7-0.2,7-0.6c0.8-0.1,1.4-0.9,2.3-0.8c0.5,1.4,0.2,2.8,0.4,4.2c0.1,1.1,0.9,2.3,0.4,3.5
		c-2.8,1.3-5.9,1.7-9,1.8c-7.1,0.1-14.1,0.3-21.2-0.9c-3.6-0.6-7.2-1.3-10.7-2.4c-0.7-0.2-1.5-0.6-2.2-0.9
		C0.2,116.8,0.2,115.6,0.2,114.4z"></path>
	<path d="M184.6,120.2c0-2.6,0-5.1,0.5-7.7c0.9,0.6,2,0.9,3.1,1c5.6,0.3,11.2,0.6,16.8,0c4-0.4,7.9-1.2,11.9-2
		c3.1-0.7,6-1.9,9.1-2.5c0.6-0.1,1.3-0.5,1.9-0.8c1,2.5,1.3,5.1,1.1,7.7c0,0.6-0.8,0.8-1.3,0.9c-3.2,1.2-6.5,2.1-9.9,2.9
		c-8.4,2.1-16.9,2.5-25.5,2.1c-1.8-0.1-3.6-0.4-5.5-0.7C186,121,185.3,120.7,184.6,120.2z"></path>
</g>
<g onclick="select(this)" class="" id="gola-secundaria" fill="#005425">
	<path d="M127.5,26.2c-2.5,2.3-5.2,4.5-7.5,7.1c-0.8,0.9-1.6,1.9-2.1,3c-2.3,0.6-4.6,0.4-7,0.2c-0.6,0-1.1-0.3-1.6-0.6
		c-2.7-3.7-6.2-6.6-9.6-9.7c2.8,0,5.7-0.1,8.5-0.1C114.7,26.2,121.1,26.2,127.5,26.2z"></path>
</g>
<path d="M189.4,91.2c0-0.1,0.1-0.3,0.1-0.4c0,0,0.1,0.1,0.1,0.1C189.6,91,189.6,91.2,189.4,91.2
	C189.3,91.1,189.4,91.2,189.4,91.2z"></path>
<g onclick="select(this)" class="" id="estampa-primaria" fill="#009045">
	<path d="M42.5,112.8c-0.9-0.1-1.5,0.6-2.3,0.8c-2.3,0.4-4.7,0.5-7,0.6c-5.7,0.2-11.3,0-16.9-0.7c-5.1-0.6-10-1.9-14.7-3.9
		c1.7-8.9,2.5-18,4-26.9c0.9-5.2,1.2-10.6,2.2-15.8c1.7-8.5,4.5-16.6,9.7-23.7c2.1-2.9,4.5-5.5,7.3-7.7c1.4-1.1,2.4-2.6,3.9-3.4
		c3.6-1.9,7.3-3.7,11-5.3c10-4.1,20-8.2,29.5-13.4c2-1.1,4-2.1,5.5-3.9c0.8-1,2.1-1.6,3.5-1.6C77.3,8.5,76.6,9,76.4,10
		c-0.2,1,0,2.1,0.2,3.1c0.9,3.8,3.1,6.9,5.8,9.6c4.1,4.3,9,7.6,14.4,10.2c3.7,1.8,7.5,3,11.6,3.3c0.3,0,0.7,0.3,0.9-0.3
		c0.5,0.3,1,0.6,1.6,0.6c2.3,0.2,4.7,0.4,7-0.2c1.4-0.2,2.9-0.2,4.3-0.5c4.7-0.9,8.9-3,12.9-5.4c3.3-1.9,6.4-4.2,9.1-6.8
		c3.1-3,5.5-6.4,6.6-10.6c0.6-2.2,0-4.3-1.7-4.7c1.9-0.3,3.1,0.9,4.2,2.2c0.3,0.4,0.7,0.7,1.1,1c8.9,5.9,18.8,9.6,28.5,13.7
		c5.1,2.1,10,4.4,15.1,6.6c0.3,0.1,0.6,0.3,0.8,0.5c12,8.5,19.2,20.1,21.4,34.5c1.7,11.5,4.7,22.7,6.3,34.2c0.3,2.5,0.7,4.9,1.1,7.3
		c-0.6,0.3-1.2,0.6-1.9,0.8c-3.1,0.7-6,1.9-9.1,2.5c-3.9,0.8-7.9,1.6-11.9,2c-5.6,0.6-11.2,0.3-16.8,0c-1.1-0.1-2.1-0.4-3.1-1
		c0.9-6.8,2.2-13.5,4.1-20.1c0.1-0.4,0.4-0.8,0.2-1.3c0.2,0,0.2-0.1,0.2-0.3c0,0,0-0.1-0.1-0.1c0,0.1-0.1,0.3-0.1,0.4
		c-0.3,0.1-0.3,0.4-0.4,0.7c-2,4.6-3.5,9.3-4.8,14.2c-2.4,9.4-4,18.9-4.9,28.5c-0.5,4.8-0.8,9.6-1.1,14.4c-0.3,4.8-0.5,9.6-0.5,14.5
		c0,17-0.3,34.1,0.2,51.1c0.2,7.3,0.3,14.6,0.5,21.9c0.2,4.9,0.3,9.7,0.5,14.6c0.2,6,0.5,12,0.7,17.9c0.2,5,0.4,10,0.8,15.1
		c-7.7,1.1-15.4,1.4-23.1,1.5c-12.9,0.2-25.9,0.6-38.8,0.9c-6.8,0.2-13.5-0.5-20.2-0.6c-8.7-0.1-17.4-0.2-26.1-0.4
		c-8.3-0.2-16.6-0.4-24.8-1.8c0.5-3.8,0.5-7.6,0.7-11.3c0.4-5.6,0.6-11.2,0.8-16.9c0.1-4.4,0.3-8.9,0.5-13.3
		c0.3-6.3,0.4-12.5,0.5-18.8c0.1-4,0.2-8,0.2-12c0-21.4,0.6-42.8-0.7-64.2c-0.3-4.2-0.6-8.4-1-12.6c-0.4-4.6-1.1-9.1-1.8-13.7
		c-1.1-6.3-2.3-12.6-4.2-18.7c-0.6-1.9-1-3.8-1.9-5.7c-0.5,0.9,0.2,1.5,0.3,2.1c0.4,2.9,0.9,5.7,1.3,8.5
		C42.1,109,42.5,110.8,42.5,112.8z"></path>
	<path d="M127.5,26.2c-6.4,0-12.9,0-19.3-0.1c-2.8,0-5.7,0.1-8.5,0.1c-5-4.1-10.5-7.7-14.4-13.1c-0.8-1.1-1.4-2.2-1.9-3.4
		c-0.3-0.7-0.1-0.9,0.7-0.8c7.1,0.8,14.2,1.3,21.4,1.8c5.6,0.4,11.2,0.4,16.8,0c5.4-0.4,10.8-0.7,16.1-1.1c1.9-0.1,3.8-0.3,5.9-0.5
		c-0.8,2.3-2.2,4.2-3.7,6c-1.9,2.3-4.2,4.3-6.6,6.1C131.8,22.9,129.7,24.5,127.5,26.2z"></path>
</g>
<path d="M117.6,36.4c0.1-0.1,0.2-0.1,0.2-0.2C117.7,36.3,117.7,36.4,117.6,36.4z"></path>
<g onclick="select(this)" class="" id="estampa-secundaria" fill="#005425">
	<path d="M178.7,60.4c-1.2,2.3-2.3,4.4-3.4,6.5c-8.6,16.2-17.1,32.3-25.6,48.5c-0.3,0.5-0.6,1-0.8,1.5
		c-0.4,1.3-1.4,1.1-2.4,1c-0.7-0.1-0.2-0.6-0.1-0.8c0.8-1.6,1.7-3.3,2.6-4.9c8.9-16.8,17.8-33.5,26.6-50.3
		C176.5,60.2,176.5,60.1,178.7,60.4z"></path>
	<path d="M63,229.6c2.9-5.5,5.7-10.7,8.4-16c7.1-13.3,14.1-26.6,21.2-40c0.4-0.9,0.8-1.7,2.1-1.6c1.1,0.1,1,0.4,0.6,1.1
		c-2.6,4.9-5.3,9.9-7.9,14.8c-7.2,13.5-14.3,27.1-21.5,40.6C65.2,230.1,64.2,229.6,63,229.6z"></path>
	<path d="M143.2,229.7c-1.2,0.2-1.1-0.3-0.7-1.1c8.1-15.4,16.3-30.7,24.4-46.1c1.7-3.1,3.4-6.3,5-9.4
		c0.6-1.2,1.4-1,2.3-0.9c0.7,0.1,0.2,0.5,0.1,0.8c-0.8,1.6-1.6,3.1-2.5,4.7c-9,17-18,34-27,51.1C144.4,229.5,144,229.9,143.2,229.7z
		"></path>
	<path d="M104.5,117.7c1.6-3.1,3.2-6.1,4.8-9c7.2-13.6,14.4-27.2,21.6-40.8c1.2-2.3,2.4-4.5,3.6-6.8
		c0.4-0.7,1.7-1.2,2.4-0.8c0.6,0.3,0,0.6-0.1,0.9c-1.2,2.3-2.4,4.5-3.6,6.8c-6.9,13.1-13.8,26.1-20.8,39.2c-1.6,3-3.2,6.1-4.8,9.1
		C106.7,117.9,106.7,117.9,104.5,117.7z"></path>
	<path d="M101.8,229.7c-1.4,0-1.4,0-0.8-1.1c8.8-16.6,17.6-33.3,26.4-49.9c1-1.9,2-3.8,3-5.6c0.4-0.8,1.6-1.2,2.3-0.9
		c0.6,0.3,0.1,0.7,0,1c-1.6,3.1-3.3,6.2-4.9,9.3c-5.5,10.4-11,20.8-16.6,31.3c-2.7,5-5.3,10-8,15
		C102.9,229.5,102.5,229.9,101.8,229.7z"></path>
	<path d="M75.3,117.7c1.3-2.5,2.6-5,3.9-7.4c7.8-14.7,15.5-29.3,23.3-44c0.9-1.7,1.8-3.5,2.8-5.2
		c0.4-0.7,1.7-1.2,2.3-0.8c0.5,0.3,0.1,0.6-0.1,0.9c-1.4,2.7-2.8,5.4-4.3,8.1c-6.9,13.1-13.9,26.2-20.8,39.3
		c-1.4,2.6-2.7,5.2-4.1,7.7C77.5,118,77.5,118,75.3,117.7z"></path>
	<path d="M159.5,117.8c-1.2,0.2-1.1-0.2-0.7-1.1c9.8-18.5,19.6-37,29.4-55.4c0.4-0.8,1.6-1.3,2.4-0.9
		c0.6,0.3,0.1,0.6,0,0.8c-2.1,3.9-4.1,7.9-6.2,11.8c-6.2,11.6-12.3,23.2-18.5,34.9c-1.6,3-3.2,6-4.8,9
		C160.8,117.6,160.3,118,159.5,117.8z"></path>
	<path d="M155.3,117.8c-1.3,0-1.4,0-0.7-1.2c6.6-12.4,13.2-24.8,19.8-37.3c3.2-6,6.4-12.1,9.6-18.1
		c0.3-0.5,0.4-1.1,1.2-1c0.5,0.1,1.1-0.2,1.4,0.2c0.3,0.4-0.2,0.9-0.4,1.3c-9.7,18.4-19.4,36.7-29.2,55.1
		C156.5,117.5,156.1,118,155.3,117.8z"></path>
	<path d="M60.2,117.8c-1.1,0.2-1.2-0.2-0.7-1.1c9.8-18.5,19.6-37,29.4-55.5c0.6-1.1,1.4-1,2.3-0.9
		c0.7,0.1,0.2,0.5,0.1,0.8c-0.8,1.5-1.6,3-2.4,4.6c-9,17.1-18.1,34.1-27.1,51.2C61.4,117.6,61,118,60.2,117.8z"></path>
	<path d="M95.7,60.4c-1.3,2.4-2.4,4.6-3.6,6.8C83.4,83.6,74.7,100,66,116.5c-0.4,0.8-0.8,1.5-1.9,1.4
		c-0.9-0.1-1.1-0.2-0.6-1.1c2.1-3.9,4.2-7.8,6.3-11.8c7.6-14.4,15.2-28.8,22.8-43.1C93.5,60.2,93.5,60.1,95.7,60.4z"></path>
	<path d="M68,117.8c-1.4,0.2-1-0.4-0.6-1.2C76.7,99,86,81.4,95.4,63.7c0.5-1,1-1.9,1.5-2.9c0.2-0.3,0.4-0.6,0.8-0.6
		c0.5,0.1,1.3-0.3,1.6,0.2c0.3,0.4-0.3,0.9-0.6,1.4c-8.2,15.5-16.4,31-24.6,46.5c-1.5,2.8-3,5.6-4.5,8.5
		C69.2,117.6,68.8,118,68,117.8z"></path>
	<path d="M109.4,117.8c-1.3,0.2-1.1-0.3-0.6-1.1c8.5-16,16.9-31.9,25.4-47.9c1.4-2.6,2.7-5.2,4.1-7.7
		c0.4-0.7,1.8-1.1,2.4-0.8c0.5,0.3,0.1,0.6,0,0.8c-0.8,1.5-1.6,3-2.4,4.5c-9,17-18,34.1-27,51.1
		C110.8,117.4,110.4,118.1,109.4,117.8z"></path>
	<path d="M118,117.8c-1.1,0.2-1.2-0.1-0.7-1c9.8-18.4,19.5-36.9,29.3-55.3c0.3-0.5,0.4-1.2,1.2-1.2
		c0.5,0,1.2-0.3,1.5,0.2c0.3,0.4-0.3,0.8-0.5,1.3c-9.7,18.3-19.4,36.7-29.1,55C119.3,117.5,118.9,118,118,117.8z"></path>
	<path d="M72.2,229.7c-1.4,0.2-1-0.4-0.6-1.2c9.4-17.7,18.8-35.5,28.2-53.2c0.4-0.8,0.8-1.6,1.2-2.3
		c0.2-0.3,0.3-0.6,0.6-0.7c0.6-0.1,1.4-0.3,1.8,0.1c0.4,0.3-0.2,0.9-0.4,1.3c-9.7,18.4-19.5,36.8-29.2,55.2
		C73.4,229.6,73,229.8,72.2,229.7z"></path>
	<path d="M109.5,229.7c-1.2,0.2-1.2-0.2-0.7-1.1c9.8-18.4,19.5-36.9,29.3-55.3c0.2-0.4,0.3-1,0.9-1
		c0.6-0.1,1.3-0.3,1.6,0.1c0.4,0.4-0.2,0.9-0.4,1.4c-9.7,18.3-19.4,36.6-29,54.9C110.8,229.3,110.5,229.9,109.5,229.7z"></path>
	<path d="M104.5,229.6c1.5-2.8,2.8-5.4,4.3-8.1c6.3-11.8,12.5-23.7,18.8-35.5c2.3-4.3,4.5-8.6,6.8-12.8
		c0.3-0.5,0.4-1.1,1.1-1.1c0.5,0,1.2-0.3,1.5,0.1c0.3,0.4-0.3,0.9-0.5,1.3c-9.7,18.4-19.4,36.8-29.1,55.2
		C106.7,230.1,105.7,229.6,104.5,229.6z"></path>
	<path d="M113.7,117.8c-1.1,0.2-1.1-0.2-0.7-1.1c8-15,15.9-30,23.9-45c1.8-3.5,3.7-6.9,5.5-10.4c0.6-1.2,1.4-1,2.4-1
		c0.6,0,0.3,0.4,0.2,0.7c-0.4,0.8-0.9,1.7-1.4,2.5c-8.4,15.8-16.7,31.6-25.1,47.5c-1,1.9-2.1,3.9-3.1,5.8
		C115,117.5,114.6,118,113.7,117.8z"></path>
	<path d="M151,117.8c-1.1,0.2-1.2-0.1-0.7-1.1c9.8-18.5,19.6-36.9,29.4-55.4c0.2-0.4,0.3-1,0.9-1c0.6,0,1.3-0.2,1.6,0.1
		c0.4,0.4-0.2,0.9-0.4,1.4c-9.7,18.3-19.3,36.5-29,54.8C152.3,117.3,152,118.1,151,117.8z"></path>
	<path d="M113.9,229.7c-1.4,0-1.4,0-0.8-1.1c9.8-18.5,19.6-37,29.3-55.4c0.2-0.4,0.4-0.9,1-0.9c0.5,0,1.2-0.3,1.6,0.2
		c0.3,0.4-0.3,0.9-0.5,1.3c-9.7,18.3-19.4,36.6-29.1,54.9C115.1,229.3,114.8,229.9,113.9,229.7z"></path>
	<path d="M132.1,60.3c1.1-0.2,1,0.3,0.5,1.1c-9.8,18.5-19.6,37-29.4,55.5c-0.6,1.1-1.5,1-2.3,0.9
		c-0.8-0.1-0.2-0.6-0.1-0.9c1.1-2.1,2.1-4.1,3.2-6.2c7.8-14.7,15.6-29.4,23.4-44.2c0.9-1.7,1.8-3.5,2.7-5.2
		C130.9,60.3,130.9,60.3,132.1,60.3z"></path>
	<path d="M60.4,229.7c-1.5,0-1.5,0-0.9-1.1c7.2-13.5,14.3-27,21.4-40.5c2.6-5,5.3-9.9,7.9-15c0.6-1.1,1.4-1.1,2.3-0.9
		c0.9,0.1,0.2,0.7,0.1,1c-1.8,3.4-3.6,6.9-5.4,10.3c-6.9,13.1-13.9,26.2-20.8,39.3c-1.1,2-2.1,4-3.2,6.1
		C61.4,229.5,61.1,229.9,60.4,229.7z"></path>
	<path d="M118.2,229.7c-1.4,0-1.4,0-0.8-1.2c9.8-18.5,19.6-37,29.4-55.4c0.4-0.8,1.6-1.2,2.3-0.9c0.6,0.3,0.1,0.7,0,1
		c-1.5,2.9-3.1,5.9-4.6,8.8c-6.4,12.1-12.8,24.2-19.2,36.3c-1.9,3.5-3.8,7.1-5.6,10.6C119.3,229.5,118.9,229.9,118.2,229.7z"></path>
	<path d="M76.7,229.7c-1.4,0-1.4,0-0.8-1.1c9.8-18.5,19.6-37,29.4-55.5c0.4-0.8,1.6-1.2,2.3-0.9c0.6,0.3,0.1,0.7-0.1,1
		c-1.5,2.8-3,5.6-4.5,8.5c-7.1,13.4-14.1,26.7-21.2,40c-1.3,2.4-2.5,4.7-3.8,7.1C77.7,229.5,77.3,229.9,76.7,229.7z"></path>
	<path d="M72.4,117.8c-1.4,0-1.4,0-0.8-1.2c9.8-18.5,19.6-36.9,29.3-55.5c0.6-1.1,1.4-1,2.3-0.9
		c0.6,0.1,0.2,0.5,0.1,0.8c-1,2-2.1,4-3.1,5.9c-8.8,16.6-17.6,33.1-26.3,49.7C73.5,117.5,73.2,118.1,72.4,117.8z"></path>
	<path d="M143.3,117.8c-1.2,0.2-1.2-0.2-0.8-1.1c8.4-15.8,16.7-31.6,25.1-47.3c1.5-2.8,2.9-5.5,4.4-8.3
		c0.4-0.7,1.7-1.2,2.3-0.8c0.6,0.3,0.1,0.6,0,0.9c-1.3,2.5-2.6,5-3.9,7.4c-8.5,16-17,32.1-25.5,48.1
		C144.5,117.4,144.2,118.1,143.3,117.8z"></path>
	<path d="M66.8,229.6c1.8-3.3,3.4-6.5,5.1-9.6c7.6-14.4,15.2-28.8,22.8-43.1c0.7-1.3,1.3-2.6,2-3.8
		c0.4-0.7,1.6-1.1,2.3-0.8c0.6,0.3,0.1,0.7,0,1c-1.5,2.9-3,5.7-4.5,8.6c-5.7,10.7-11.4,21.5-17.1,32.2c-2.5,4.7-5,9.5-7.5,14.2
		C69,229.9,69,229.9,66.8,229.6z"></path>
	<path d="M177.3,173.9c0.1,0.7-0.2,1.5-0.6,2.3c-8.6,16.3-17.3,32.6-25.9,48.9c-0.7,1.3-1.4,2.6-2.1,3.9
		c-0.4,0.7-1.7,1.1-2.4,0.8c-0.6-0.3,0-0.6,0.1-0.9c1.3-2.4,2.5-4.8,3.8-7.2c8.5-16.1,17.1-32.2,25.6-48.3c0.1-0.1,0.1-0.3,0.2-0.4
		c0.2-0.4,0.4-0.7,0.9-0.6s0.3,0.6,0.3,0.9C177.3,173.3,177.3,173.5,177.3,173.9z"></path>
	<path d="M177.2,178.1c0.1,2,0.2,3.9-0.9,5.8c-8,14.9-15.9,29.9-23.8,44.9c-0.6,1.1-1.4,0.9-2.3,0.9
		c-0.6,0-0.3-0.4-0.2-0.7c0.7-1.3,1.3-2.6,2-3.8c8.2-15.5,16.4-31,24.6-46.5C176.8,178.5,176.9,178.2,177.2,178.1z"></path>
	<path d="M42.9,104.6c-0.3-0.9-0.7-1.7-0.7-2.7c4.8-9,9.6-18.1,14.4-27.1c2.4-4.4,4.7-8.9,7-13.4c0.5-0.9,1-1.2,2-1.2
		c0.9,0,0.8,0.3,0.5,0.9c-1.5,2.8-3,5.7-4.5,8.5c-6,11.2-11.9,22.4-17.9,33.7C43.5,103.8,43.4,104.3,42.9,104.6z"></path>
	<path d="M177.1,186.2c0.1,1.8,0.5,3.6-0.5,5.4c-6.6,12.3-13.1,24.6-19.6,37c-0.2,0.4-0.3,1.1-0.9,1.1
		c-0.6,0.1-1.4,0.3-1.7-0.1c-0.4-0.4,0.3-0.9,0.5-1.4c7.1-13.5,14.3-27,21.4-40.5C176.5,187.2,176.8,186.7,177.1,186.2z"></path>
	<path d="M139.6,229.7c-1.3,0-0.6-0.6-0.4-1.1c6-11.3,12-22.6,17.9-33.9c3.8-7.2,7.6-14.3,11.4-21.5
		c0.1-0.3,0.3-0.6,0.5-0.8c0.4-0.4,0.9-0.4,1.3-0.2c0.4,0.3,0,0.6-0.1,0.9c-8.8,16.6-17.5,33.1-26.3,49.7c-1.1,2-2.1,4-3.2,6.1
		C140.5,229.4,140.2,229.8,139.6,229.7z"></path>
	<path d="M89.7,117.8c-1.2,0-0.6-0.6-0.4-1c3.2-6,6.3-11.9,9.5-17.9c4.9-9.3,9.9-18.6,14.8-28c1.7-3.3,3.5-6.6,5.2-9.8
		c0.1-0.2,0.2-0.4,0.4-0.6c0.4-0.4,1-0.4,1.3-0.2c0.5,0.2,0,0.6-0.1,0.9c-7.5,14.2-15,28.3-22.5,42.5c-2.3,4.4-4.6,8.8-6.9,13.1
		C90.7,117.4,90.5,118,89.7,117.8z"></path>
	<path d="M94.2,117.8c-1.1,0.1-0.8-0.4-0.5-1c2.7-5.1,5.4-10.3,8.1-15.4c5.5-10.4,11-20.8,16.5-31.1
		c1.6-2.9,3.1-5.9,4.7-8.8c0.1-0.3,0.3-0.5,0.4-0.7c0.3-0.7,1-0.7,1.4-0.4c0.6,0.3,0,0.8-0.2,1.1c-6,11.3-12,22.7-18,34
		c-3.8,7.1-7.5,14.3-11.3,21.4C95.1,117.3,95,117.9,94.2,117.8z"></path>
	<path d="M129,60.4c0.1,0.5-0.3,0.8-0.4,1.1c-9.7,18.4-19.5,36.9-29.3,55.3c-0.2,0.3-0.3,0.6-0.5,0.8
		c-0.4,0.4-0.9,0.4-1.3,0.1c-0.4-0.3,0-0.6,0.2-0.9c8-15.1,16-30.2,24-45.2c1.8-3.4,3.7-6.8,5.4-10.3C127.5,60.4,128.1,60,129,60.4z
		"></path>
	<path d="M134.8,117.7c2.2-4.2,4.3-8.2,6.5-12.3c6.2-11.7,12.4-23.5,18.6-35.2c1.6-3,3.1-5.9,4.7-8.9
		c0.1-0.3,0.2-0.5,0.4-0.7c0.4-0.5,1-0.4,1.4-0.2c0.4,0.2-0.1,0.6-0.2,0.9c-9.8,18.5-19.5,36.9-29.3,55.4
		C136.5,117.6,136,118.1,134.8,117.7z"></path>
	<path d="M47.4,117.7c1-2,2.1-4,3.1-5.9c8.9-16.8,17.8-33.6,26.7-50.4c0.1-0.3,0.2-0.5,0.4-0.7c0.4-0.5,1-0.4,1.4-0.2
		c0.4,0.2-0.1,0.6-0.2,0.9c-8.2,15.4-16.3,30.9-24.5,46.3c-1.6,3.1-3.3,6.1-4.9,9.2C49,117.7,48.5,118,47.4,117.7z"></path>
	<path d="M139.6,117.8c-1.3,0-0.6-0.7-0.4-1.1c2.1-4.1,4.3-8.1,6.4-12.2c6.2-11.7,12.4-23.4,18.6-35.1
		c1.5-2.8,2.9-5.6,4.4-8.4c0.1-0.2,0.2-0.5,0.4-0.6c0.4-0.4,0.9-0.4,1.3-0.2c0.4,0.2,0,0.6-0.1,0.9c-7,13.3-14.1,26.6-21.1,39.8
		c-2.8,5.3-5.6,10.5-8.4,15.8C140.5,117.4,140.3,117.9,139.6,117.8z"></path>
	<path d="M87.7,60.4c-2.6,4.9-5.1,9.7-7.7,14.5c-7.4,14-14.8,28-22.2,42c-0.1,0.3-0.2,0.5-0.4,0.7
		c-0.4,0.4-1,0.4-1.3,0.2c-0.5-0.3,0-0.6,0.2-0.9C65.9,98.4,75.6,80,85.4,61.6C85.8,60.7,86.3,59.9,87.7,60.4z"></path>
	<path d="M52.6,117.8c-1.1,0.1-0.6-0.5-0.4-0.9c3.3-6.2,6.6-12.4,9.9-18.7c6.4-12,12.8-24.1,19.1-36.1
		c0.2-0.4,0.5-0.8,0.6-1.2c0.3-0.8,1-0.9,1.6-0.6c0.6,0.3-0.1,0.8-0.3,1.2C74.8,77.4,66.3,93.3,58,109.1c-1.4,2.6-2.8,5.2-4.2,7.8
		C53.5,117.5,53.3,117.9,52.6,117.8z"></path>
	<path d="M88.9,229.5c1-1.9,1.9-3.8,2.9-5.6c7.4-14,14.8-28,22.2-42c1.6-3,3.1-5.9,4.7-8.9c0.2-0.4,0.3-0.8,0.8-0.9
		c0.3-0.1,0.8-0.2,1,0.1c0.3,0.3-0.1,0.6-0.2,0.9c-7.6,14.3-15.2,28.6-22.7,42.9c-2.2,4.2-4.5,8.4-6.7,12.6
		C90.5,229.6,90,230,88.9,229.5z"></path>
	<path d="M97.3,229.5c2-3.8,3.9-7.4,5.9-11.1c6.4-12.1,12.9-24.3,19.3-36.4c1.6-2.9,3.1-5.9,4.6-8.8
		c0.2-0.3,0.3-0.7,0.6-0.9c0.4-0.3,0.9-0.3,1.2,0c0.3,0.3,0,0.6-0.2,0.8c-7.3,13.8-14.6,27.5-21.9,41.3c-2.5,4.7-5,9.4-7.5,14.2
		C98.9,229.6,98.4,229.9,97.3,229.5z"></path>
	<path d="M131.2,117.8c-1.1,0.1-0.6-0.5-0.4-0.9c2.5-4.7,5-9.5,7.5-14.2c7.2-13.7,14.5-27.3,21.7-41
		c0.3-0.6,0.4-1.4,1.4-1.4c0.7,0,0.9,0.1,0.6,0.9c-1.5,2.8-3,5.6-4.5,8.5c-6.3,11.9-12.6,23.7-18.9,35.6c-2.1,3.9-4.2,7.8-6.2,11.8
		C132.1,117.4,131.9,117.9,131.2,117.8z"></path>
	<path d="M94.3,229.7c-1.3,0.1-0.7-0.6-0.4-1.1c3.8-7.2,7.6-14.4,11.4-21.6c5.7-10.7,11.3-21.4,17-32.1
		c0.4-0.7,0.8-1.5,1.2-2.2c0.3-0.7,1-0.7,1.4-0.5c0.6,0.3,0,0.8-0.2,1.1c-9.2,17.3-18.4,34.7-27.5,52c-0.7,1.2-1.3,2.5-1.9,3.7
		C95,229.4,94.8,229.8,94.3,229.7z"></path>
	<path d="M131.2,229.7c-1.1,0.1-0.6-0.5-0.4-0.9c2.6-4.9,5.2-9.7,7.8-14.6c7.2-13.7,14.5-27.3,21.7-41
		c0.1-0.2,0.2-0.4,0.4-0.6c0.4-0.5,1-0.5,1.4-0.3c0.5,0.3,0,0.7-0.2,1c-7.6,14.4-15.3,28.9-22.9,43.3c-2.2,4.1-4.3,8.2-6.5,12.3
		C132.1,229.4,131.9,229.9,131.2,229.7z"></path>
	<path d="M52.7,229.7c-1.1,0.1-0.8-0.4-0.5-1c2.3-4.4,4.6-8.8,7-13.1c5.3-10.1,10.7-20.1,16-30.2
		c2.2-4.1,4.3-8.1,6.4-12.2c0.1-0.2,0.2-0.4,0.3-0.5c0.3-0.7,1-0.7,1.4-0.4c0.6,0.3,0,0.8-0.2,1.1c-7,13.3-14.1,26.6-21.1,39.8
		c-2.8,5.2-5.5,10.4-8.3,15.7C53.6,229.3,53.4,229.8,52.7,229.7z"></path>
	<path d="M56.6,229.7c-1.1,0.1-0.8-0.4-0.5-1c4.8-9.1,9.6-18.1,14.4-27.1c4.8-9.1,9.7-18.2,14.5-27.4
		c0.3-0.5,0.6-1,0.8-1.5c0.3-0.6,0.9-0.8,1.4-0.5c0.7,0.4,0.1,0.8-0.1,1.2c-5.4,10.3-10.9,20.6-16.4,31c-4.3,8.2-8.7,16.3-13,24.5
		C57.5,229.3,57.3,229.8,56.6,229.7z"></path>
	<path d="M135.7,229.7c-1.1,0-0.6-0.5-0.4-1c1.7-3.3,3.5-6.6,5.2-9.9c6.4-12.1,12.8-24.1,19.1-36.1
		c1.7-3.2,3.4-6.4,5.1-9.5c0.1-0.1,0.2-0.3,0.2-0.4c0.3-0.7,1-0.8,1.5-0.5c0.6,0.3,0,0.8-0.2,1.1c-9,17-18,34-27,51
		c-0.8,1.6-1.7,3.1-2.5,4.7C136.5,229.5,136.2,229.8,135.7,229.7z"></path>
	<path d="M49.4,228.6c-0.1-1.1-0.1-2.1,0.2-3.2c8.6-16.2,17.2-32.4,25.8-48.6c0.7-1.2,1.3-2.5,2-3.7
		c0.1-0.3,0.2-0.5,0.4-0.7c0.4-0.4,0.9-0.4,1.3-0.1c0.4,0.3-0.1,0.6-0.2,0.9c-9.5,17.9-19,35.8-28.5,53.8
		C50.1,227.5,49.9,228.2,49.4,228.6z"></path>
	<path d="M41.4,99.4c-0.2-0.4-0.4-0.9-0.6-1.3c-0.5-0.7-0.2-1.3,0.1-1.8c6.2-11.7,12.4-23.4,18.6-35.2
		c0.4-0.7,1.7-1.2,2.3-0.8c0.5,0.3,0.1,0.7-0.1,1c-1.8,3.4-3.6,6.8-5.4,10.2c-4.7,8.9-9.5,17.8-14.2,26.8
		C41.9,98.7,41.8,99.2,41.4,99.4z"></path>
	<path d="M177.2,193.9c0.3,2.5,0,4.6-1.1,6.6c-5.1,9.4-10,18.8-15,28.3c-0.4,0.8-1.6,1.2-2.3,0.9
		c-0.5-0.2-0.2-0.5-0.1-0.8c0.7-1.4,1.4-2.8,2.2-4.1c5.3-9.9,10.5-19.8,15.7-29.8C176.8,194.7,176.9,194.4,177.2,193.9z"></path>
	<path d="M39.8,94.7c-0.7-1.4-1-2.5-0.3-4c5.3-9.8,10.5-19.6,15.6-29.5c0.6-1.2,1.5-1.1,2.4-0.9c0.7,0.1,0.2,0.6,0,0.9
		c-1.4,2.8-2.9,5.5-4.4,8.3c-4.2,7.9-8.4,15.9-12.6,23.8C40.3,93.7,40.1,94.1,39.8,94.7z"></path>
	<path d="M86.2,229.7c-0.8,0-0.3-0.5-0.1-0.9c1.3-2.4,2.6-4.9,3.8-7.3c8.5-16,16.9-32,25.4-48c0.3-0.6,0.5-1.8,1.4-1.3
		c0.8,0.4-0.2,1.2-0.5,1.7c-7,13.3-14,26.5-21,39.8c-2.7,5.1-5.4,10.1-8,15.1C87,229.2,86.9,229.7,86.2,229.7z"></path>
	<path d="M123.8,117.8c-0.1,0-0.3,0-0.3-0.1c-0.3-0.3,0.1-0.5,0.2-0.7c2.3-4.3,4.5-8.6,6.8-12.9
		c6.1-11.6,12.3-23.2,18.4-34.8c1.4-2.7,2.8-5.3,4.2-8c0.1-0.1,0.1-0.2,0.2-0.3c0.2-0.5,0.6-1,1.1-0.7c0.6,0.3,0,0.8-0.1,1.1
		c-3.3,6.3-6.6,12.5-9.9,18.8c-5.8,11-11.7,22.1-17.5,33.1c-0.7,1.3-1.3,2.6-2,3.8C124.6,117.4,124.4,117.8,123.8,117.8z"></path>
	<path d="M113.1,60.7c-0.1,0.2-0.2,0.5-0.4,0.7c-9.8,18.4-19.5,36.9-29.3,55.3c-0.1,0.3-0.3,0.5-0.4,0.7
		c-0.2,0.4-0.6,0.4-0.9,0.3c-0.5-0.3,0-0.6,0.1-0.8c8.6-16.2,17.2-32.4,25.8-48.7c1.3-2.4,2.5-4.8,3.8-7.2c0.2-0.3,0.3-0.8,0.8-0.8
		C112.8,60.3,113.1,60.2,113.1,60.7z"></path>
	<path d="M123.9,229.7c-0.7-0.1-0.4-0.5-0.2-0.8c1.1-2.2,2.3-4.3,3.4-6.5c5.4-10.3,10.9-20.6,16.3-30.8
		c3.2-6.1,6.5-12.2,9.7-18.3c0.1-0.1,0.1-0.2,0.2-0.3c0.2-0.5,0.5-1,1.1-0.7c0.6,0.3,0,0.8-0.2,1.1c-3.3,6.3-6.6,12.6-10,18.9
		c-6.4,12.2-12.9,24.4-19.4,36.6C124.7,229.1,124.6,229.7,123.9,229.7z"></path>
	<path d="M113.1,172.6c-0.1,0.3-0.3,0.6-0.4,0.8c-7,13.3-14.1,26.6-21.1,39.8c-2.7,5.2-5.5,10.3-8.2,15.5
		c-0.1,0.1-0.1,0.2-0.2,0.3c-0.2,0.5-0.6,0.8-1,0.6c-0.6-0.3,0-0.7,0.1-1c3.3-6.2,6.5-12.4,9.8-18.6c5.5-10.4,11-20.8,16.5-31.2
		c1.1-2,2.1-3.9,3.2-5.9c0.2-0.3,0.3-0.8,0.8-0.8C112.8,172.1,113.1,172.1,113.1,172.6z"></path>
	<path d="M158.5,60.7c-0.1,0.2-0.2,0.5-0.4,0.7c-9.1,17.1-18.1,34.2-27.2,51.3c-0.7,1.3-1.4,2.7-2.1,4
		c-0.1,0.3-0.3,0.6-0.5,0.8c-0.2,0.3-0.5,0.4-0.8,0.3c-0.5-0.2-0.1-0.6,0-0.8c1.4-2.7,2.8-5.3,4.2-7.9c7.3-13.7,14.5-27.4,21.8-41.1
		c1.2-2.3,2.4-4.6,3.7-6.9c0.2-0.3,0.3-0.7,0.7-0.8C158.2,60.3,158.5,60.2,158.5,60.7z"></path>
	<path d="M158.5,172.6c-0.1,0.2-0.2,0.5-0.4,0.7c-9.8,18.5-19.6,37-29.4,55.5c-0.1,0.1-0.1,0.3-0.2,0.4
		c-0.3,0.4-0.7,0.5-1,0.3c-0.4-0.3,0-0.6,0.2-0.8c2.7-5.1,5.4-10.3,8.1-15.4c6.2-11.8,12.5-23.5,18.7-35.3c0.9-1.7,1.8-3.5,2.8-5.2
		c0.2-0.3,0.3-0.7,0.7-0.8C158.2,172.1,158.5,172.1,158.5,172.6z"></path>
	<path d="M117.1,60.4c-1.4,2.7-2.9,5.4-4.3,8.2c-7.7,14.6-15.5,29.2-23.2,43.8c-0.8,1.4-1.5,2.9-2.3,4.3
		c-0.1,0.3-0.3,0.5-0.4,0.7c-0.3,0.3-0.6,0.4-0.9,0.2c-0.3-0.2,0-0.5,0.1-0.7c0.8-1.5,1.6-3,2.4-4.6c8.5-16.1,17-32.1,25.5-48.2
		c0.6-1.1,1.2-2.2,1.8-3.3C116,60.4,116.4,60.1,117.1,60.4z"></path>
	<path d="M194.9,61.2c0.1,1.1-0.1,2-0.6,3c-9.3,17.4-18.5,34.9-27.7,52.3c-0.3,0.6-0.5,1.7-1.4,1.3
		c-0.7-0.4,0.2-1.1,0.5-1.6c7.5-14.2,15.1-28.5,22.6-42.7c2-3.8,4-7.6,6.1-11.4C194.4,61.7,194.5,61.3,194.9,61.2z"></path>
	<path d="M50.2,203c-0.3-2-0.3-3.9,0.7-5.9c4.3-8,8.6-16,12.8-24.1c0.6-1.1,1.5-0.9,2.3-0.9c0.6,0,0.3,0.4,0.2,0.7
		c-0.6,1.2-1.3,2.4-1.9,3.6C59.6,185.3,54.9,194.2,50.2,203z"></path>
	<path d="M194.3,75.8c0,1.8-0.4,3.5-1.3,5.2c-6.3,11.8-12.6,23.7-18.9,35.6c-0.2,0.3-0.3,0.7-0.5,0.9
		c-0.4,0.5-1,0.4-1.4,0.2c-0.4-0.2,0.1-0.6,0.2-0.9c7.1-13.4,14.2-26.8,21.3-40.1C193.8,76.3,193.9,75.9,194.3,75.8L194.3,75.8z"></path>
	<path d="M38.4,90.2c-0.9-1.5-1-2.6-0.2-4.1c4.4-8,8.6-16.2,12.9-24.2c0.9-1.7,0.9-1.7,3.2-1.5
		C48.9,70.3,43.7,80.2,38.4,90.2z"></path>
	<path d="M45.6,116.8c0-0.4-0.1-0.8-0.2-1.3c1.8-3.9,3.9-7.6,5.9-11.4c6.3-11.9,12.6-23.7,18.9-35.6
		c1.3-2.5,2.6-5,3.9-7.4c0.1-0.2,0.2-0.3,0.3-0.5c0.2-0.4,0.6-0.5,0.9-0.3c0.5,0.3,0,0.6-0.1,0.9c-1.9,3.8-3.9,7.5-5.9,11.3
		c-5.5,10.4-11,20.8-16.5,31.2c-2.2,4.1-4.4,8.3-6.6,12.4C46.1,116.3,46,116.7,45.6,116.8z"></path>
	<path d="M44.5,111.6c0-0.6-0.4-1.1-0.3-1.7c1.9-3.5,3.8-6.9,5.6-10.4C56.7,86.7,63.4,74,70.2,61.2
		c0.1-0.1,0.1-0.2,0.2-0.3c0.2-0.4,0.6-0.8,1-0.6c0.6,0.3,0,0.7-0.1,1c-3,5.7-6,11.5-9.1,17.2C56.6,89.1,51,99.7,45.3,110.2
		C45.1,110.7,44.8,111.1,44.5,111.6z"></path>
	<path d="M49.6,221.1c0-0.6,0-1.1,0-1.6c2.4-4.6,4.8-9.1,7.2-13.7c5.7-10.7,11.4-21.5,17.1-32.2
		c0.3-0.6,0.5-1.8,1.4-1.3c0.6,0.4-0.3,1.2-0.6,1.7c-8.1,15.4-16.3,30.8-24.4,46.2C50.1,220.6,50,221,49.6,221.1z"></path>
	<path d="M194.7,68.8c0.3,1.4-0.2,2.5-0.8,3.6c-4.7,8.9-9.4,17.8-14.1,26.7c-3.1,5.8-6.2,11.7-9.3,17.5
		c-0.1,0.3-0.3,0.5-0.4,0.7c-0.2,0.4-0.6,0.7-1.1,0.4c-0.4-0.3,0-0.7,0.2-0.9c8.4-15.8,16.8-31.7,25.1-47.5
		C194.4,69.2,194.5,69,194.7,68.8z"></path>
	<path d="M36.6,85.7c-0.6-1.2-1-2.3-0.2-3.7c3.7-6.8,7.3-13.7,10.9-20.5c0.6-1.1,1.2-1.3,2.3-1.2c0.5,0,0.6,0.3,0.4,0.7
		c-0.4,0.8-0.9,1.6-1.3,2.4c-3.8,7.1-7.5,14.3-11.3,21.4C37.1,85.1,37,85.5,36.6,85.7z"></path>
	<path d="M49.7,213.1c0-0.5,0-1,0.1-1.5c6.5-12.4,13.1-24.7,19.6-37.1c0.3-0.6,0.6-1.1,0.9-1.7c0.2-0.4,0.6-0.8,1-0.6
		c0.6,0.3,0.1,0.7-0.1,1c-5.3,10.1-10.7,20.1-16,30.2c-1.7,3.2-3.4,6.4-5.1,9.5C50.2,213,50.1,213.7,49.7,213.1z"></path>
	<path d="M50.1,195.2c-0.3-2.6,0-4.7,1.2-6.8c2.8-4.9,5.3-9.9,8-14.9c0.2-0.3,0.3-0.6,0.5-0.8c0.6-0.9,1.5-0.7,2.2-0.4
		c0.6,0.3-0.1,0.9-0.3,1.3c-3.6,6.9-7.3,13.8-10.9,20.7C50.5,194.5,50.3,194.7,50.1,195.2z"></path>
	<path d="M35.1,81.3c-0.8-0.9-0.8-1.6-0.3-2.6C37.9,73,41,67.2,44,61.3c0.5-0.9,1-1.3,2.1-0.9
		C42.5,67.4,38.8,74.3,35.1,81.3z"></path>
	<path d="M50.1,187.2c-0.3-2.6-0.1-4.7,1.2-6.7c1.5-2.4,2.7-4.9,3.9-7.4c0.5-1.1,1.4-0.9,2.2-0.8
		c0.7,0.1,0.3,0.6,0.1,0.9c-1,1.8-1.9,3.7-2.9,5.5C53.1,181.4,51.7,184.2,50.1,187.2z"></path>
	<path d="M177.4,206c0,0.6,0,1.2,0,1.8c-3.7,7.1-7.5,14.2-11.2,21.3c-0.3,0.5-0.7,0.8-1.1,0.5c-0.4-0.3,0.1-0.6,0.2-0.9
		c3.8-7.3,7.6-14.5,11.5-21.7C176.9,206.6,177,206.3,177.4,206z"></path>
	<path d="M33.3,77.3c-0.6-1.2-0.5-2.2,0-3.2c2.3-4.2,4.6-8.5,6.8-12.8c0.1-0.3,0.2-0.5,0.4-0.7c0.4-0.4,0.9-0.3,1.3-0.1
		c0.3,0.2,0,0.5-0.1,0.7C39,66.4,36.2,71.8,33.3,77.3z"></path>
	<path d="M184.9,102c0.1,1.8-0.9,3.4-1.2,5.2c-0.9,1.1-1.4,2.4-2.1,3.6c-1.1,2-2.1,4-3.2,6c-0.1,0.3-0.2,0.5-0.4,0.7
		c-0.4,0.4-1,0.4-1.4,0.1c-0.4-0.2,0.1-0.6,0.2-0.9c2.5-4.8,5-9.5,7.5-14.3C184.4,102.2,184.5,101.9,184.9,102z"></path>
	<path d="M177.5,213.2L177.5,213.2c-0.1,0.3,0,0.6,0.2,0.9c0,0.2,0,0.4,0,0.6c-2.5,4.8-5,9.6-7.5,14.3
		c0,0.1-0.1,0.1-0.1,0.2c-0.2,0.4-0.6,0.6-1,0.4c-0.5-0.3,0-0.6,0.1-0.9c1.5-2.9,3-5.7,4.6-8.6C175,217.8,176,215.4,177.5,213.2z"></path>
	<path d="M177.7,219.2c0,0.8,0,1.7,0,2.5c-1.2,2.3-2.4,4.7-3.6,7c-0.4,0.9-1,1.3-2.1,0.9c1.3-2.4,2.4-4.7,3.7-7.1
		C176.3,221.4,176.6,220.1,177.7,219.2z"></path>
	<path d="M49.9,179.9c0-1.2,0-2.4,0-3.6c0.5-1.1,1.1-2.2,1.7-3.3c0.2-0.4,0.4-0.7,0.9-0.7c0.5,0,1.3-0.3,1.6,0.2
		c0.3,0.4-0.3,0.9-0.5,1.4c-1,1.8-1.9,3.7-2.9,5.5C50.4,179.4,50.4,180,49.9,179.9z"></path>
	<path d="M32.6,70.3c-0.2-1.8-0.1-3.2,0.7-4.5c0.9-1.5,1.7-3.2,2.5-4.8c0.3-0.6,0.7-0.8,1.3-0.8c0.5,0,0.6,0.2,0.4,0.7
		C35.9,64,34.3,67,32.6,70.3z"></path>
	<path d="M194.3,75.9c0-0.2,0-0.3,0-0.4c0,0,0.1,0,0.1,0C194.4,75.6,194.3,75.7,194.3,75.9L194.3,75.9z"></path>
	<path d="M189.2,91.2c0-0.1,0.1-0.3,0.1-0.4c0,0,0.1,0.1,0.1,0.1C189.4,91,189.4,91.2,189.2,91.2
		C189.2,91.2,189.2,91.2,189.2,91.2z"></path>
	<path d="M177.7,214.1c-0.2-0.3-0.2-0.6-0.2-0.9C177.7,213.5,177.7,213.8,177.7,214.1z"></path>
</g>
</svg>
