<!--?xml version="1.0" encoding="utf-8"?-->
<!-- Generator: Adobe Illustrator 25.0.1, SVG Export Plug-In . SVG Version: 6.00 Build 0)  -->
<svg version="1.1" id="Camada_1" xmlns="http://www.w3.org/2000/svg" xmlns:xlink="http://www.w3.org/1999/xlink" x="0px" y="0px" viewBox="0 0 229 418" enable-background="new 0 0 229 418" xml:space="preserve">
<g onclick="select(this)" class="" id="estampa-primaria" fill="#000000">
	<path d="M43.184227,120.3591003c-0.1574593-1.9019699-0.2635918-3.8100281-0.4886246-5.7039795
		c-0.1797981-1.5132675-0.3913536-1.6106033-1.9219894-1.3255692c-1.0546684,0.1964035-2.1054993,0.4133453-3.1596031,0.6128845
		c-3.7236557,0.7048569-7.4897099,0.4062195-11.2349834,0.3948441c-6.4752865-0.0196609-12.9171953-0.5751572-19.2143612-2.1471405
		c-2.0026436-0.499939-4.0013113-1.0857773-5.9778385-1.7141418c1.020895-4.8060684,1.6644146-9.6716461,2.3388951-14.5333023
		c0.872649-6.2900543,1.9116194-12.5599365,2.6439087-18.8657761c0.7765994-6.6873932,1.853642-13.2944374,3.974463-19.697525
		c2.9442616-8.8891754,7.7607107-16.5268593,15.1724825-22.392849c1.1417255-0.9036102,1.9524097-2.1724854,3.2811241-2.8633461
		c3.6190052-1.8817024,7.2620258-3.7168369,11.0347271-5.271349c9.9860153-4.1146584,19.9939613-8.1792221,29.4552879-13.4397125
		c1.9744034-1.0977669,3.9967499-2.0936747,5.5144348-3.8991308c0.8429108-1.0027447,2.0579147-1.6459785,3.4937134-1.5504146
		c-1.6598358,0.9146581-2.0019836,2.3754401-1.6840515,4.0964561c0.3956909,2.1419916,1.0861511,4.1798086,2.3278809,5.9871454
		c5.9329224,8.6352997,14.296669,13.8952675,24.0654449,17.1269894c2.041748,0.6754532,4.1874008,1.1419945,6.5661926,0.9732132
		c-0.818985-1.2918892-1.7138596-2.3421478-2.6657181-3.3343887c-4.3846359-4.5706615-9.3081741-8.5244236-14.2901917-12.4103851
		c-2.5010681-1.9508305-4.6982346-4.208477-6.6866608-6.6749144c-0.9601822-1.1910152-1.7149582-2.4964218-2.3023758-3.9077702
		c-0.2885437-0.6932478-0.2463684-1.0194101,0.6452408-0.9307556c3.5362701,0.351614,7.0733414,0.7046528,10.6162415,0.9779987
		c7.921875,0.6111984,15.8302765,1.4430838,23.8044815,0.9912195c6.261795-0.3548279,12.5223312-0.704565,18.7725449-1.2287455
		c2.2623138-0.1897326,4.5277405-0.3423519,6.9600983-0.5245132c-0.3562012,0.7652731-0.6235199,1.4240294-0.9593048,2.0458479
		c-1.2259827,2.2702398-2.8836212,4.2098074-4.6701813,6.0531158c-2.8812408,2.9727859-6.3737335,5.2001953-9.5260773,7.842041
		c-3.523674,2.9530506-7.0875015,5.8638573-9.9547958,9.5003853c-0.3962326,0.5025253-0.8958893,0.9767723-0.9921494,1.7654648
		c1.0281219-0.1467667,1.9737854-0.0354576,2.9256516-0.2119141c5.0719757-0.9402618,9.6617355-3.0744553,14.078331-5.6319599
		c3.2989349-1.9103127,6.3558502-4.1792526,9.1010895-6.8097744c3.0965118-2.9671154,5.4707642-6.4256573,6.640976-10.6468983
		c0.6189423-2.2326078,0.0174561-4.2712574-1.6764832-4.7439165c1.9420471-0.3230171,3.1181183,0.8975677,4.2487946,2.1523972
		c0.3474121,0.3855724,0.6845703,0.7272234,1.1278381,1.02145c8.8714447,5.888566,18.7893372,9.6126204,28.526062,13.6821756
		c5.067276,2.1179237,10.0380096,4.4439087,15.0908356,6.5872955c0.2853851,0.121069,0.5596008,0.2832184,0.8128815,0.4630032
		c12.0054626,8.5214882,19.2169037,20.1563911,21.3936157,34.5978508
		c1.7050781,11.3124924,4.6848145,22.3671265,6.2290497,33.6951218c0.3612823,2.6502228,0.8081512,5.2887878,1.2156677,7.9327545
		c-0.4072723-0.0320892-0.7870331,0.0516357-1.1609039,0.2217789c-5.2508698,2.3895721-10.8408508,3.4043884-16.5039825,4.2465134
		c-4.9055786,0.7294693-9.8006744,1.3550644-14.7624969,1.0241394c-3.0189819-0.2013397-6.0679779-0.007515-9.0567627-0.6636734
		c-0.4004364-0.0879288-1.0440521-0.3493347-1.0703583,0.4709015c-0.0688629,2.1481247-0.9662018,4.2106934-0.6513672,6.3962173
		c-0.4419403,0.8073044-0.2948303,1.7095184-0.3963318,2.5679779c-0.9907074,8.3786392-1.7198181,16.7760849-1.745636,25.2220383
		c-0.0067291,2.2005463,0.0687408,4.3852692,0.5246124,6.5559692c0.4008789,1.9087372-0.0432281,3.8250885-0.2062225,5.7295837
		c-0.1811066,2.1162109-0.2468414,4.2292175-0.1479797,6.3477325c0.1008911,2.1623993-0.1498413,4.3116608-0.2017212,6.4661102
		c-0.0682373,2.8337555-0.1215973,5.6735077,0.1285095,8.5087433c0.1475983,1.6730652,0.0784607,3.3501434-0.098175,5.02742
		c-0.3134613,2.9759674,0.161026,5.8720398,0.824295,8.7793121c1.6766205,7.3491974,1.4777679,14.7560425,0.394516,22.1660767
		c-0.3131714,2.142395-0.3707123,4.2083435,0.3324127,6.3562622c1.789505,5.466568,1.8004761,11.0871277,0.9232635,16.7248077
		c-0.2115173,1.3592529-0.2436066,2.6841888,0.0700836,4.0361938c0.886261,3.8198547,0.4920807,7.7170715,0.6769562,11.5814056
		c0.2862549,5.9835815,0.6884613,11.9625854,1.4403229,17.9147034c0.2537231,2.008667,0.2185516,4.0574036,0.2538147,6.0889282
		c0.0314789,1.8131409-0.3387299,2.3127136-2.0966034,2.8403625c-2.9675903,0.8908081-6.046051,1.1467896-9.1074371,1.463501
		c-7.7273102,0.7994385-15.4857635,0.8745728-23.2448273,1.0192871
		c-11.2361755,0.2095642-22.4684143,0.6523743-33.7049484,0.8126526c-12.4795532,0.178009-24.9379959-0.848877-37.4192505-0.848999
		c-8.3984146-0.0000916-16.799118-0.1004944-25.1803284-0.7364502c-4.1492767-0.3148499-8.2854118-0.7527771-12.3534241-1.6774292
		c-0.2727928-0.0620117-0.5451469-0.1272583-0.8147545-0.2017212c-3.0011635-0.8287048-3.3434029-1.173645-3.1586952-4.2307129
		c0.4741859-7.848175,1.0208855-15.6920776,1.5688667-23.535553c0.1421928-2.0353699,0.2741928-4.0685883,0.2251472-6.1084442
		c-0.0433769-1.8041687,0.0425301-3.5978241,0.3647537-5.3743591c0.4024925-2.2190704,0.4543953-4.4303284,0.1269684-6.6729889
		c-0.3675308-2.5173645-0.1233711-5.0311584,0.42342-7.5046387c0.237915-1.0762024,0.1960411-2.1278687,0.1169281-3.2104492
		c-0.3260307-4.4614716-1.0035973-8.9028625-0.8237762-13.394516c0.1759071-4.393631,1.2030106-8.6131439,2.7054672-12.72258
		c0.3647614-0.9976807,0.5816841-1.9600372,0.4271965-3.0288544c-0.1776123-1.2288208-0.1682091-2.4718018,0.0631027-3.7023163
		c0.3129845-1.6650085,0.2037849-3.326767,0.1185341-5.0112915c-0.1672783-3.3053589-0.1792717-6.6202087-0.1929398-9.9314117
		c-0.0532684-12.9004364-0.0429573-25.8012695-0.1390572-38.7013397c-0.0387688-5.2046204-0.991291-10.3377228-1.5477562-15.5010147
		C43.6215096,122.9213791,43.7198563,121.5897675,43.184227,120.3591003z"></path>
</g>
<g onclick="select(this)" class="" id="estampa-secundaria" fill="#ffffff">
	<path d="M184.7915955,243.4868164c-2.7389679,3.6741028-5.4900665,7.3392639-8.2046509,11.031311
		c-0.4410858,0.599884-0.9550171,1.0426331-1.5941467,1.3975372c-17.6972046,9.8270721-35.3910675,19.6601715-53.0835114,29.4958344
		c-0.4125214,0.2293396-0.8025665,0.4990234-1.2031097,0.7497253c-0.0000153-0.0001221,0.0291824-0.0151672,0.0292053-0.0151062
		c-0.1072464,0.0458069-0.2145309,0.0915833-0.3218155,0.1373596c-5.2984467,0.237854-10.5909805,0.1514282-15.8763962-0.2895508
		c6.0531998-3.4387207,12.0647049-6.9521484,18.1659775-10.3023071
		c18.6075668-10.2171936,36.4249649-21.7386322,54.49543-32.8430176c2.6780243-1.6456604,5.2799377-3.4182129,8.0626221-4.8919067
		C185.10466,239.8000793,184.9481506,241.6434631,184.7915955,243.4868164z"></path>
	<path d="M182.9370117,158.286972c-11.9298096,6.8929901-23.8625183,13.7809753-35.7888947,20.6799316
		c-31.596756,18.2774353-63.1907959,36.5595398-94.7855072,54.8404846c-0.3436279,0.1988373-0.7289352,0.5426941-1.091259,0.2786865
		c-0.4307327-0.3138428-0.0416794-0.724823,0.1029663-1.0686035c0.7418098-1.763031,1.1872101-3.7671051,2.3362198-5.2094879
		c1.1272011-1.4149933,3.1468124-1.9604187,4.7851906-2.8659058c41.1757736-22.756897,82.3578491-45.5023956,123.5401001-68.2475739
		c0.3475952-0.1919708,0.7129517-0.3518219,1.0700073-0.5266418
		C183.1284943,156.8805237,183.2528687,157.6012573,182.9370117,158.286972z"></path>
	<path d="M120.5960083,165.8340454c-6.2750702,3.9392548-12.5439911,7.8883362-18.8263779,11.8158875
		c-16.7221832,10.4542236-33.6938705,20.4920044-50.7714157,30.3526459
		c-2.4193497,1.3969574-4.8404922,2.7911377-7.2767715,4.1581879c-0.3967667,0.2226257-0.8476677,0.7927856-1.2485771,0.497345
		c-0.4499474-0.3315582-0.3163376-0.9951782-0.1273804-1.5273285c0.0621262-0.2028961,0.1271248-0.4115601,0.1920166-0.6195374
		c16.6255455-9.9454346,33.2512398-19.89151,49.8768272-29.8377533c5.4851761-3.2814789,10.9701538-6.5632935,16.4549561-9.8454132
		c0.4069824-0.2435303,0.8117218-0.4907837,1.2078552-0.7304688c-0.0966034-0.5716705-0.8700943,0.013443-0.8556747-0.5840759
		c0.0097427-0.4038696,0.3576508-0.5989838,0.6302948-0.828598c2.6598511-2.2400208,5.3155899-4.4849701,7.9852371-6.7132874
		c0.3504715-0.2925262,0.6553802-0.8822327,1.1791382-0.6665192c0.5657349,0.2330322,0.1490173,0.8448334,0.2400208,1.2776947
		c0.0311127,0.1480103,0.0445709,0.2997437,0.088356,0.60495c3.4300079-1.7921448,7.0729904-3.0233459,10.2003784-5.1469727
		c17.9835968-12.2116547,35.8989563-24.5236206,53.8396149-36.7984543c0.3267975-0.2236023,0.6800995-0.4085236,1.0210419-0.6113434
		c-0.0368195,0.9772491,0.0292816,1.9659576-0.3287964,2.9067688
		c-11.1551819,7.6723099-22.3112793,15.3437729-33.6157837,22.7955093
		c-8.1027222,5.341156-16.2438354,10.6241302-24.3668747,15.934494c-0.3334427,0.2180023-0.6573334,0.4506378-0.9852982,0.6766357
		c-0.5490723,0.3217316-1.146698,0.5825195-1.4841385,1.1951141c0.6961975-0.1063995,1.3052979-0.3626099,1.7744522-0.9004517
		c2.9096222-1.4962463,5.6166229-3.3327026,8.4096069-5.0236359c6.1645813-3.7321777,12.2996979-7.5129852,18.4568939-11.257431
		c0.2183075-0.1327667,0.4824219-0.473587,0.9937286,0.0059509c-12.8490448,7.9449005-25.5678177,15.9622803-38.5442581,23.5587463
		c-0.0692596-0.1103668-0.1385269-0.2207336-0.2077942-0.3311005c1.5787201-0.9619598,3.1665649-1.9094391,4.7312927-2.893631
		c0.5584793-0.3512726,1.254631-0.5456238,1.5656433-1.2207489c0.0933075-0.0694733,0.186821-0.1387024,0.2803421-0.2079315
		c0.19767-0.0046539,0.3745499-0.0461121,0.4553909-0.2573853c0.0918274-0.0647736,0.1839294-0.1292725,0.2760315-0.1937561
		c0.1968536-0.0180206,0.3798065-0.0601807,0.4665451-0.2690277c0.0825195-0.0564728,0.1655655-0.1125031,0.2486038-0.1685486
		c0.4341354-0.116745,0.9093475-0.1876526,0.9487991-0.9159241c-0.4782333,0.1708527-0.8445282,0.340744-1.1194687,0.6818695
		c-0.102356,0.0564728-0.2047119,0.112915-0.3070602,0.1693878c-0.1403503,0.1003876-0.2807159,0.2007751-0.4210358,0.3012085
		c-0.1032257,0.0532532-0.2064667,0.1065063-0.3097153,0.159729c-0.1413116,0.1014252-0.2826233,0.2028503-0.4238815,0.3043518
		C120.7978897,165.732193,120.6969452,165.7831116,120.5960083,165.8340454z"></path>
	<path d="M41.3007965,263.8809814c8.1350021-5.3895874,16.27668-10.7690887,24.4037857-16.1705627
		c26.5449753-17.642334,53.0851517-35.2919006,79.6260147-52.9404755
		c6.484024-4.3116302,12.9636078-8.6299744,19.4451599-12.9452972c1.0907898-0.7262268,1.1672821-0.6251221,1.5543213,0.6061707
		c0.3776093,1.2012482,0.0357819,1.8062134-1.0153351,2.483429c-17.9149933,11.5422516-35.8027649,23.1267395-53.6877213,34.7155151
		c-20.6267166,13.3653412-41.2434311,26.7461395-61.8682785,40.1143799
		c-2.8575249,1.8521423-5.7368317,3.6707153-8.6060867,5.5047302
		C41.0571899,264.7771606,41.0336571,264.313324,41.3007965,263.8809814z"></path>
	<path d="M182.3627167,187.5475311c-3.2392273,1.7903137-6.487854,3.5639191-9.7151947,5.3753815
		c-3.5633087,2.0000763-7.1008606,4.0459442-10.6609192,6.0518494c-4.7284241,2.6641998-9.4696198,5.3058167-14.2019348,7.9631195
		c-5.7166748,3.2100525-11.4311981,6.4239044-17.1440582,9.6407318c-6.0232544,3.3916473-12.0391388,6.7963867-18.0663528,10.180954
		c-4.8721313,2.7359161-9.7611008,5.4418793-14.6339569,8.1765594c-5.9140167,3.3189545-11.8224945,6.6478119-17.726799,9.9839935
		c-6.1223602,3.4593811-12.2326355,6.9401703-18.3624115,10.386322c-0.5212746,0.2930603-1.3901978,0.9658051-1.6762314,0.4350891
		c-0.4230614-0.7849884,0.6767044-0.977356,1.1983681-1.2809448c9.0880165-5.2885895,18.1973305-10.5406189,27.2884483-15.8238983
		c7.0919342-4.12146,14.1578445-8.287674,21.248642-12.4111023c10.6212769-6.1764832,21.2577438-12.3268433,31.8811722-18.499649
		c9.4527435-5.492569,18.8912201-11.0096893,28.346756-16.4975281c4.1484985-2.4077301,8.3236542-4.7696228,12.4866943-7.1525726
		C182.692337,185.2445984,182.6672668,186.406601,182.3627167,187.5475311z"></path>
	<path d="M42.1396217,248.8075409c19.1621017-12.3787842,38.3281059-24.7515411,57.4850578-37.1382904
		c14.8541031-9.6045685,29.6961365-19.2277374,44.547348-28.8367615c0.5950165-0.3850098,1.22995-0.7082062,1.8449097-1.0626373
		c0.2743225-0.1581116,0.6196899-0.399353,0.8089752-0.0171661c0.1405182,0.283783-0.2523041,0.403244-0.4664612,0.5735168
		c-3.2236633,2.5629272-6.7734375,4.6476593-10.1892548,6.9256134
		c-28.2618408,18.8471069-56.5430069,37.6652985-84.8156128,56.4963074
		c-3.0719299,2.0460663-6.0805016,4.187912-9.2474747,6.0896454
		C42.0129089,250.8264618,41.9677887,249.8158417,42.1396217,248.8075409z"></path>
	<path d="M185.2719574,229.7837372c-5.4961395,2.8588867-10.9854736,5.7309265-16.4897308,8.5741425
		c-15.2793579,7.8924866-30.5685577,15.7659302-45.8452835,23.6634521
		c-3.5099564,1.8145447-6.9821091,3.7020264-10.481102,5.5379639c-0.4662399,0.2446594-1.1446838,0.7748108-1.4821777,0.1920776
		c-0.3919983-0.6768799,0.5028687-0.8798828,0.9309998-1.1217651c6.6606293-3.7626953,13.3483887-7.4774475,20.0065002-11.2445526
		c7.143158-4.0415649,14.2585754-8.1321106,21.3922882-12.1903992c5.1400604-2.924118,10.2962799-5.8198853,15.4340973-8.747879
		c4.913269-2.7999878,9.8115692-5.6261902,14.7184753-8.4373474c0.3392029-0.1943207,0.695282-0.3592224,1.0435181-0.5377655
		C184.9867554,226.8679199,185.2780609,228.2992249,185.2719574,229.7837372z"></path>
	<path d="M43.0681648,229.2247925c13.5175781-8.7441711,27.0379753-17.4839935,40.5520363-26.2335968
		c17.8720398-11.5711212,35.7386398-23.15065,53.6102676-34.7224121c0.6165619-0.399231,1.276413-0.7323303,1.8871307-1.1396179
		c0.263916-0.1760254,0.5565643-0.3236542,0.7290955-0.0626221c0.1921387,0.2906952-0.1571045,0.4968719-0.3620911,0.6615753
		c-0.5838776,0.469101-1.1650391,0.9475555-1.7875671,1.3618317
		c-31.3292542,20.8480072-62.6625671,41.6899414-93.9976501,62.5292053
		c-0.3633842,0.2416534-0.7557106,0.4398499-1.1345291,0.658844
		C42.5764847,231.2349243,42.7384377,230.2160492,43.0681648,229.2247925z"></path>
	<path d="M184.2946014,202.1703339c-1.9887848,1.0908356-3.9925385,2.1554565-5.9629364,3.2785339
		c-3.1006775,1.7672882-6.1738739,3.5826721-9.2678986,5.3617096c-4.2792053,2.460495-8.5615082,4.915741-12.852356,7.3558502
		c-5.303772,3.0161133-10.6231537,6.0048065-15.925766,9.0229492c-5.962326,3.3936462-11.9105988,6.8119812-17.8702927,10.2102509
		c-5.3978348,3.0778961-10.8085785,6.1331635-16.2030563,9.2168884c-5.3596802,3.0639038-10.6987991,6.1637268-16.060318,9.2243347
		c-6.97995,3.9845276-13.9794312,7.934845-20.9586487,11.9206238c-6.464035,3.6915588-12.9055672,7.4224548-19.3714981,11.1106262
		c-2.2899399,1.3061829-4.622612,2.5375061-6.9357872,3.8032532c-0.4137878-0.0690308-0.8258171-0.1425781-1.1376724-0.4621277
		c2.5875816-1.489624,5.1716576-2.98526,7.7632484-4.4677734c7.1507378-4.0905762,14.3030205-8.1784363,21.4577713-12.2619934
		c5.4009781-3.0826111,10.8106537-6.1500244,16.2093277-9.2366638c5.8705292-3.3564301,11.7292099-6.7335358,17.5997391-10.08992
		c5.2209473-2.9849854,10.4505081-5.954895,15.6772156-8.9297791c6.5019608-3.7007141,13.0059204-7.3979187,19.5070953-11.1000214
		c6.061615-3.4517975,12.1250763-6.9003448,18.1794739-10.3647461c4.8010712-2.7472839,9.5832214-5.5275726,14.3857727-8.2722321
		c3.8815613-2.2183228,7.7809906-4.4053955,11.6724091-6.6068878
		C184.3913116,201.3002014,184.3717804,201.7331543,184.2946014,202.1703339z"></path>
	<path d="M52.6042099,284.3450928c4.8224106-2.7368469,9.6379318-5.4858704,14.4691925-8.2070007
		c4.6696472-2.6300659,9.3611984-5.221283,14.0327835-7.8479309c5.8368912-3.2819214,11.6613464-6.5859375,17.4947052-9.874176
		c4.8074265-2.7098694,9.6240234-5.4035339,14.4292374-8.1172943c5.9287567-3.3482971,11.8442459-6.7200317,17.7761917-10.0626526
		c4.6631775-2.6277313,9.3514252-5.2110443,14.0124207-7.8426056c4.7287445-2.6697845,9.4284515-5.3909607,14.1582031-8.0589447
		c4.1019135-2.3138428,8.2375641-4.5679474,12.3408356-6.8794403c3.9648285-2.233551,7.9040222-4.512558,11.8648224-6.7533264
		c0.3967896-0.2244568,0.7737579-0.5394287,1.2719116-0.5467834c0.1278687,0.4742432,0.0837097,0.9279633-0.161087,1.3578339
		c-2.5954132,1.1306915-4.9360962,2.7290497-7.4267426,4.0544739c-2.8740234,1.52948-5.664093,3.216095-8.4979095,4.8215942
		c-4.7809296,2.7086334-9.5653076,5.4112854-14.3526611,8.1085815c-4.0114746,2.2601624-8.0322418,4.5038605-12.0435028,6.764389
		c-4.7937164,2.7014618-9.5765076,5.4224091-14.3738174,8.1175232c-4.1150818,2.3118439-8.2505569,4.5874634-12.3650055,6.9004669
		c-4.5616989,2.5644379-9.1062012,5.1594238-13.6647568,7.7294464c-4.8070831,2.710144-9.6259842,5.3993835-14.4322891,8.1109009
		c-5.7955933,3.2696533-11.5821381,6.5552673-17.3748779,9.8299255c-4.7245178,2.6707764-9.4525528,5.3353271-14.1784706,8.0036316
		c-0.3052711,0.1723938-0.6057892,0.3531189-0.9085884,0.5299683
		C53.9714661,284.632843,53.2850304,284.5309753,52.6042099,284.3450928z"></path>
	<path d="M43.4037895,205.6920624c7.0533752-5.8328552,14.1523399-11.6120148,21.1320152-17.5316467
		c2.0605087-1.7475891,4.6063614-1.8636475,6.921257-2.7475281c0.2104797-0.080368,0.4896393-0.0796051,0.5690231,0.2476196
		c0.08284,0.3414764-0.1630936,0.5130005-0.3813858,0.6815338c-1.1070328,0.85466-2.2239685,1.6965332-3.3297119,2.5528412
		c-8.2152634,6.3620758-16.4281616,12.7272339-24.64505,19.0872345c-0.282196,0.2184448-0.5986938,0.3926239-0.8991508,0.5880432
		C42.8440094,207.5809326,42.9189796,206.5914917,43.4037895,205.6920624z"></path>
	<path d="M186.2413788,265.2232056c-3.146698,2.9476929-6.04039,6.1446533-9.0751038,9.2026672
		c-1.34935,1.3597412-2.6872101,2.730896-4.03508,4.0921326c-0.2518463,0.2543335-0.5843506,0.5736694-0.9064026,0.2680664
		c-0.256546-0.2434387,0.0267639-0.5939941,0.2037048-0.8511353c4.3574677-6.3318787,8.7182922-12.6614685,13.0826111-18.9886475
		c0.0630035-0.0913391,0.1775208-0.1472473,0.2680359-0.2199707
		C186.0776978,260.8814697,186.311676,263.0415344,186.2413788,265.2232056z"></path>
	<path d="M182.6383514,168.5728607c-6.4650269,4.1877899-12.9243011,8.3845062-19.3973236,12.5599213
		c-3.6754913,2.3708496-7.3734894,4.7068787-11.165329,7.1248932c-0.2112427-0.8785248,0.3860474-1.0472412,0.7678833-1.3036194
		c5.763031-3.869873,11.5312653-7.7320404,17.3050842-11.5858307c3.7862854-2.5272064,7.5824585-5.0396118,11.3775177-7.5536499
		c0.3628082-0.2403412,0.7493134-0.4449463,1.1248169-0.6662445
		C182.806015,167.6245422,182.8766479,168.1000671,182.6383514,168.5728607z"></path>
	<path d="M182.6325226,139.8422241c-7.1646118,4.6319122-14.328476,9.2649536-21.4945679,13.894577
		c-1.1456299,0.7401581-2.2451172,1.5746002-3.7220764,1.9586334c0.0723724-0.7409058,0.5701752-1.0232849,0.9889526-1.3022766
		c7.9971161-5.328125,16.00354-10.6422882,24.0102844-15.9559784c0.0966187-0.0641327,0.2223816-0.0843658,0.3345337-0.1255646
		C182.8736572,138.8339691,182.8385315,139.3446198,182.6325226,139.8422241z"></path>
	<path d="M142.7082367,165.1241302c2.6858826-2.3435822,5.8604279-3.8836517,8.6380005-6.0040894
		c0.9427643-0.7197266,1.9796753-1.2604523,3.0528412-1.7431793c0.1814575-0.0816498,0.3947601-0.4056854,0.5745697-0.0412903
		c0.1218567,0.2469025-0.0498505,0.4351349-0.2796936,0.5774078c-0.6430511,0.397995-1.2659302,0.8289337-1.9130707,1.2198792
		c-2.6602783,1.6071167-5.2607117,3.3054352-7.7967529,5.1013184
		C144.291214,164.7248535,143.4921112,164.9131927,142.7082367,165.1241302z"></path>
</g>
<g onclick="select(this)" class="" id="gola-primaria" fill="#000000">
	<path d="M149.1920471,8.2665339c1.6939392,0.4726591,2.2954254,2.5113087,1.6764832,4.7439165
		c-1.1702118,4.221241-3.5444641,7.6797829-6.640976,10.6468983c-2.7452393,2.6305218-5.8021545,4.8994617-9.1010895,6.8097744
		c-4.4165955,2.5575047-9.0063553,4.6916981-14.078331,5.6319599c-0.9518661,0.1764565-1.8975296,0.0651474-2.9256516,0.2119141
		c0.0962601-0.7886925,0.5959167-1.2629395,0.9921494-1.7654648c2.8672943-3.636528,6.4311218-6.5473347,9.9547958-9.5003853
		c3.1523438-2.6418457,6.6448364-4.8692551,9.5260773-7.842041c1.7865601-1.8433084,3.4441986-3.782876,4.6701813-6.0531158
		c0.3357849-0.6218185,0.6031036-1.2805748,0.9593048-2.0458479c-2.4323578,0.1821613-4.6977844,0.3347807-6.9600983,0.5245132
		c-6.2502136,0.5241804-12.5107498,0.8739176-18.7725449,1.2287455c-7.974205,0.4518642-15.8826065-0.3800211-23.8044815-0.9912195
		c-3.5429001-0.2733459-7.0799713-0.6263847-10.6162415-0.9779987c-0.8916092-0.0886545-0.9337845,0.2375078-0.6452408,0.9307556
		c0.5874176,1.4113483,1.3421936,2.7167549,2.3023758,3.9077702c1.9884262,2.4664373,4.1855927,4.7240839,6.6866608,6.6749144
		c4.9820175,3.8859615,9.9055557,7.8397236,14.2901917,12.4103851c0.9518585,0.9922409,1.8467331,2.0424995,2.6657181,3.3343887
		c-2.3787918,0.1687813-4.5244446-0.29776-6.5661926-0.9732132c-9.7687759-3.2317219-18.1325226-8.4916897-24.0654449-17.1269894
		c-1.2417297-1.8073368-1.9321899-3.8451538-2.3278809-5.9871454c-0.3179321-1.7210159,0.0242157-3.181798,1.6840515-4.0964561
		c0.5143661-0.0252366,0.9027328-0.3090868,1.2522583-0.6413717c0.9263687-0.8806643,2.0001678-1.6612997,2.7273788-2.6858664
		c2.0422745-2.8773975,5.0196915-3.6030319,8.2393723-3.9380414c3.0733871-0.3197877,6.1406097,0.0641102,9.2117691,0.0276584
		c4.3972549-0.0521912,8.7969818,0.0443268,13.1928406-0.0513675c7.9100418-0.1721947,15.8178406,0.0474255,23.7266388,0.0363705
		c0.912384-0.0012754,1.8285217,0.1743852,2.7368927,0.3086998c2.2479095,0.3323816,4.1504211,1.1903371,5.5703125,3.1194048
		C145.9542999,5.7696943,147.367691,7.2616229,149.1920471,8.2665339z"></path>
</g>
<g onclick="select(this)" class="" id="detalhe-punho" fill="#ffffff">
	<path d="M0.24,114.41436c0.6107783-1.2420959,0.4154505-2.6777496,0.9468267-3.9383621
		c1.976527,0.6283646,3.9751949,1.2142029,5.9778385,1.7141418c6.2971659,1.5719833,12.7390747,2.1274796,19.2143612,2.1471405
		c3.7452736,0.0113754,7.5113277,0.3100128,11.2349834-0.3948441c1.0541039-0.1995392,2.1049347-0.416481,3.1596031-0.6128845
		c1.5306358-0.2850342,1.7421913-0.1876984,1.9219894,1.3255692c0.2250328,1.8939514,0.3311653,3.8020096,0.4886246,5.7039795
		c-0.9007339,0.7405167-2.0174828,0.9574585-3.1024132,1.1645813c-2.5106468,0.4793091-5.038868,0.7957077-7.609993,0.8197708
		c-6.994585,0.0654373-13.9775391,0.038559-20.892168-1.2381592c-3.0178013-0.5572052-6.0275316-1.1423187-8.9426279-2.1199341
		c-0.8160248-0.273674-1.598931-0.6459885-2.3970258-0.9730606C0.24,116.8129883,0.24,115.613678,0.24,114.41436z"></path>
	<path d="M184.6309204,120.0944595c-0.3148346-2.185524,0.5825043-4.2480927,0.6513672-6.3962173
		c0.0263062-0.8202362,0.6699219-0.5588303,1.0703583-0.4709015c2.9887848,0.6561584,6.0377808,0.4623337,9.0567627,0.6636734
		c4.9618225,0.330925,9.8569183-0.2946701,14.7624969-1.0241394c5.6631317-0.8421249,11.2531128-1.8569412,16.5039825-4.2465134
		c0.3738708-0.1701431,0.7536316-0.2538681,1.1609039-0.2217789c1.1353607,2.336441,1.1766968,4.8449707,1.0996246,7.3563385
		c-0.0221863,0.7228928-0.7844391,0.8354187-1.3140411,1.0370178c-2.8729095,1.0936127-5.8452148,1.8682861-8.8147736,2.6399994
		c-8.731369,2.2690582-17.6292267,2.7698975-26.595108,2.3430557c-2.0615845-0.0981522-4.1379395-0.3113708-6.1459808-0.8887787
		C185.5256805,120.7307129,184.9997711,120.5572357,184.6309204,120.0944595z"></path>
</g>
</svg>
