<!--?xml version="1.0" encoding="utf-8"?-->
<!-- Generator: Adobe Illustrator 24.2.3, SVG Export Plug-In . SVG Version: 6.00 Build 0)  -->
<svg version="1.1" id="Camada_1" xmlns="http://www.w3.org/2000/svg" xmlns:xlink="http://www.w3.org/1999/xlink" x="0px" y="0px" viewBox="0 0 229 418" enable-background="new 0 0 229 418" xml:space="preserve">
<g onclick="select(this)" class="" id="estampa-primaria" fill="#021c3b">
	<path d="M43.184227,120.3591003c-0.1574593-1.9019699-0.2635918-3.8100281-0.4886246-5.7039795
		c-0.1797981-1.5132675-0.3913536-1.6106033-1.9219894-1.3255692c-1.0546684,0.1964035-2.1054993,0.4133453-3.1596031,0.6128845
		c-3.7236557,0.7048569-7.4897099,0.4062195-11.2349834,0.3948441c-6.4752865-0.0196609-12.9171953-0.5751572-19.2143612-2.1471405
		c-2.0026436-0.499939-4.0013113-1.0857773-5.9778385-1.7141418c1.020895-4.8060684,1.6644146-9.6716461,2.3388951-14.5333023
		c0.872649-6.2900543,1.9116194-12.5599365,2.6439087-18.8657761c0.7765994-6.6873932,1.853642-13.2944374,3.974463-19.697525
		c2.9442616-8.8891754,7.7607107-16.5268593,15.1724825-22.392849c1.1417255-0.9036102,1.9524097-2.1724854,3.2811241-2.8633461
		c3.6190052-1.8817024,7.2620258-3.7168369,11.0347271-5.271349c9.9860153-4.1146584,19.9939613-8.1792221,29.4552879-13.4397125
		c1.9744034-1.0977669,3.9967499-2.0936747,5.5144348-3.8991308c0.8429108-1.0027447,2.0579147-1.6459785,3.4937134-1.5504146
		c-1.6598358,0.9146581-2.0019836,2.3754401-1.6840515,4.0964561c0.3956909,2.1419916,1.0861511,4.1798086,2.3278809,5.9871454
		c5.9329224,8.6352997,14.296669,13.8952675,24.0654449,17.1269894c2.041748,0.6754532,4.1874008,1.1419945,6.5661926,0.9732132
		c-0.818985-1.2918892-1.7138596-2.3421478-2.6657181-3.3343887c-4.3846359-4.5706615-9.3081741-8.5244236-14.2901917-12.4103851
		c-2.5010681-1.9508305-4.6982346-4.208477-6.6866608-6.6749144c-0.9601822-1.1910152-1.7149582-2.4964218-2.3023758-3.9077702
		c-0.2885437-0.6932478-0.2463684-1.0194101,0.6452408-0.9307556c3.5362701,0.351614,7.0733414,0.7046528,10.6162415,0.9779987
		c7.921875,0.6111984,15.8302765,1.4430838,23.8044815,0.9912195c6.261795-0.3548279,12.5223312-0.704565,18.7725449-1.2287455
		c2.2623138-0.1897326,4.5277405-0.3423519,6.9600983-0.5245132c-0.3562012,0.7652731-0.6235199,1.4240294-0.9593048,2.0458479
		c-1.2259827,2.2702398-2.8836212,4.2098074-4.6701813,6.0531158c-2.8812408,2.9727859-6.3737335,5.2001953-9.5260773,7.842041
		c-3.523674,2.9530506-7.0875015,5.8638573-9.9547958,9.5003853c-0.3962326,0.5025253-0.8958893,0.9767723-0.9921494,1.7654648
		c1.0281219-0.1467667,1.9737854-0.0354576,2.9256516-0.2119141c5.0719757-0.9402618,9.6617355-3.0744553,14.078331-5.6319599
		c3.2989349-1.9103127,6.3558502-4.1792526,9.1010895-6.8097744c3.0965118-2.9671154,5.4707642-6.4256573,6.640976-10.6468983
		c0.6189423-2.2326078,0.0174561-4.2712574-1.6764832-4.7439165c1.9420471-0.3230171,3.1181183,0.8975677,4.2487946,2.1523972
		c0.3474121,0.3855724,0.6845703,0.7272234,1.1278381,1.02145c8.8714447,5.888566,18.7893372,9.6126204,28.526062,13.6821756
		c5.067276,2.1179237,10.0380096,4.4439087,15.0908356,6.5872955c0.2853851,0.121069,0.5596008,0.2832184,0.8128815,0.4630032
		c12.0054626,8.5214882,19.2169037,20.1563911,21.3936157,34.5978508
		c1.7050781,11.3124924,4.6848145,22.3671265,6.2290497,33.6951218c0.3612823,2.6502228,0.8081512,5.2887878,1.2156677,7.9327545
		c-0.4072723-0.0320892-0.7870331,0.0516357-1.1609039,0.2217789c-5.2508698,2.3895721-10.8408508,3.4043884-16.5039825,4.2465134
		c-4.9055786,0.7294693-9.8006744,1.3550644-14.7624969,1.0241394c-3.0189819-0.2013397-6.0679779-0.007515-9.0567627-0.6636734
		c-0.4004364-0.0879288-1.0440521-0.3493347-1.0703583,0.4709015c-0.0688629,2.1481247-0.9662018,4.2106934-0.6513672,6.3962173
		c-0.4419403,0.8073044-0.2948303,1.7095184-0.3963318,2.5679779c-0.9907074,8.3786392-1.7198181,16.7760849-1.745636,25.2220383
		c-0.0067291,2.2005463,0.0687408,4.3852692,0.5246124,6.5559692c0.4008789,1.9087372-0.0432281,3.8250885-0.2062225,5.7295837
		c-0.1811066,2.1162109-0.2468414,4.2292175-0.1479797,6.3477325c0.1008911,2.1623993-0.1498413,4.3116608-0.2017212,6.4661102
		c-0.0682373,2.8337555-0.1215973,5.6735077,0.1285095,8.5087433c0.1475983,1.6730652,0.0784607,3.3501434-0.098175,5.02742
		c-0.3134613,2.9759674,0.161026,5.8720398,0.824295,8.7793121c1.6766205,7.3491974,1.4777679,14.7560425,0.394516,22.1660767
		c-0.3131714,2.142395-0.3707123,4.2083435,0.3324127,6.3562622c1.789505,5.466568,1.8004761,11.0871277,0.9232635,16.7248077
		c-0.2115173,1.3592529-0.2436066,2.6841888,0.0700836,4.0361938c0.886261,3.8198547,0.4920807,7.7170715,0.6769562,11.5814056
		c0.2862549,5.9835815,0.6884613,11.9625854,1.4403229,17.9147034c0.2537231,2.008667,0.2185516,4.0574036,0.2538147,6.0889282
		c0.0314789,1.8131409-0.3387299,2.3127136-2.0966034,2.8403625c-2.9675903,0.8908081-6.046051,1.1467896-9.1074371,1.463501
		c-7.7273102,0.7994385-15.4857635,0.8745728-23.2448273,1.0192871
		c-11.2361755,0.2095642-22.4684143,0.6523743-33.7049484,0.8126526c-12.4795532,0.178009-24.9379959-0.848877-37.4192505-0.848999
		c-8.3984146-0.0000916-16.799118-0.1004944-25.1803284-0.7364502c-4.1492767-0.3148499-8.2854118-0.7527771-12.3534241-1.6774292
		c-0.2727928-0.0620117-0.5451469-0.1272583-0.8147545-0.2017212c-3.0011635-0.8287048-3.3434029-1.173645-3.1586952-4.2307129
		c0.4741859-7.848175,1.0208855-15.6920776,1.5688667-23.535553c0.1421928-2.0353699,0.2741928-4.0685883,0.2251472-6.1084442
		c-0.0433769-1.8041687,0.0425301-3.5978241,0.3647537-5.3743591c0.4024925-2.2190704,0.4543953-4.4303284,0.1269684-6.6729889
		c-0.3675308-2.5173645-0.1233711-5.0311584,0.42342-7.5046387c0.237915-1.0762024,0.1960411-2.1278687,0.1169281-3.2104492
		c-0.3260307-4.4614716-1.0035973-8.9028625-0.8237762-13.394516c0.1759071-4.393631,1.2030106-8.6131439,2.7054672-12.72258
		c0.3647614-0.9976807,0.5816841-1.9600372,0.4271965-3.0288544c-0.1776123-1.2288208-0.1682091-2.4718018,0.0631027-3.7023163
		c0.3129845-1.6650085,0.2037849-3.326767,0.1185341-5.0112915c-0.1672783-3.3053589-0.1792717-6.6202087-0.1929398-9.9314117
		c-0.0532684-12.9004364-0.0429573-25.8012695-0.1390572-38.7013397c-0.0387688-5.2046204-0.991291-10.3377228-1.5477562-15.5010147
		C43.6215096,122.9213791,43.7198563,121.5897675,43.184227,120.3591003z"></path>
</g>
<g onclick="select(this)" class="" id="gola-primaria" fill="#021c3b">
	<path d="M149.1920471,8.2665339c1.6939392,0.4726591,2.2954254,2.5113087,1.6764832,4.7439165
		c-1.1702118,4.221241-3.5444641,7.6797829-6.640976,10.6468983c-2.7452393,2.6305218-5.8021545,4.8994617-9.1010895,6.8097744
		c-4.4165955,2.5575047-9.0063553,4.6916981-14.078331,5.6319599c-0.9518661,0.1764565-1.8975296,0.0651474-2.9256516,0.2119141
		c0.0962601-0.7886925,0.5959167-1.2629395,0.9921494-1.7654648c2.8672943-3.636528,6.4311218-6.5473347,9.9547958-9.5003853
		c3.1523438-2.6418457,6.6448364-4.8692551,9.5260773-7.842041c1.7865601-1.8433084,3.4441986-3.782876,4.6701813-6.0531158
		c0.3357849-0.6218185,0.6031036-1.2805748,0.9593048-2.0458479c-2.4323578,0.1821613-4.6977844,0.3347807-6.9600983,0.5245132
		c-6.2502136,0.5241804-12.5107498,0.8739176-18.7725449,1.2287455c-7.974205,0.4518642-15.8826065-0.3800211-23.8044815-0.9912195
		c-3.5429001-0.2733459-7.0799713-0.6263847-10.6162415-0.9779987c-0.8916092-0.0886545-0.9337845,0.2375078-0.6452408,0.9307556
		c0.5874176,1.4113483,1.3421936,2.7167549,2.3023758,3.9077702c1.9884262,2.4664373,4.1855927,4.7240839,6.6866608,6.6749144
		c4.9820175,3.8859615,9.9055557,7.8397236,14.2901917,12.4103851c0.9518585,0.9922409,1.8467331,2.0424995,2.6657181,3.3343887
		c-2.3787918,0.1687813-4.5244446-0.29776-6.5661926-0.9732132c-9.7687759-3.2317219-18.1325226-8.4916897-24.0654449-17.1269894
		c-1.2417297-1.8073368-1.9321899-3.8451538-2.3278809-5.9871454c-0.3179321-1.7210159,0.0242157-3.181798,1.6840515-4.0964561
		c0.5143661-0.0252366,0.9027328-0.3090868,1.2522583-0.6413717c0.9263687-0.8806643,2.0001678-1.6612997,2.7273788-2.6858664
		c2.0422745-2.8773975,5.0196915-3.6030319,8.2393723-3.9380414c3.0733871-0.3197877,6.1406097,0.0641102,9.2117691,0.0276584
		c4.3972549-0.0521912,8.7969818,0.0443268,13.1928406-0.0513675c7.9100418-0.1721947,15.8178406,0.0474255,23.7266388,0.0363705
		c0.912384-0.0012754,1.8285217,0.1743852,2.7368927,0.3086998c2.2479095,0.3323816,4.1504211,1.1903371,5.5703125,3.1194048
		C145.9542999,5.7696943,147.367691,7.2616229,149.1920471,8.2665339z"></path>
</g>
<g onclick="select(this)" class="" id="detalhe-punho" fill="#801815">
	<path d="M0.24,114.41436c0.6107783-1.2420959,0.4154505-2.6777496,0.9468267-3.9383621
		c1.976527,0.6283646,3.9751949,1.2142029,5.9778385,1.7141418c6.2971659,1.5719833,12.7390747,2.1274796,19.2143612,2.1471405
		c3.7452736,0.0113754,7.5113277,0.3100128,11.2349834-0.3948441c1.0541039-0.1995392,2.1049347-0.416481,3.1596031-0.6128845
		c1.5306358-0.2850342,1.7421913-0.1876984,1.9219894,1.3255692c0.2250328,1.8939514,0.3311653,3.8020096,0.4886246,5.7039795
		c-0.9007339,0.7405167-2.0174828,0.9574585-3.1024132,1.1645813c-2.5106468,0.4793091-5.038868,0.7957077-7.609993,0.8197708
		c-6.994585,0.0654373-13.9775391,0.038559-20.892168-1.2381592c-3.0178013-0.5572052-6.0275316-1.1423187-8.9426279-2.1199341
		c-0.8160248-0.273674-1.598931-0.6459885-2.3970258-0.9730606C0.24,116.8129883,0.24,115.613678,0.24,114.41436z"></path>
	<path d="M184.6309204,120.0944595c-0.3148346-2.185524,0.5825043-4.2480927,0.6513672-6.3962173
		c0.0263062-0.8202362,0.6699219-0.5588303,1.0703583-0.4709015c2.9887848,0.6561584,6.0377808,0.4623337,9.0567627,0.6636734
		c4.9618225,0.330925,9.8569183-0.2946701,14.7624969-1.0241394c5.6631317-0.8421249,11.2531128-1.8569412,16.5039825-4.2465134
		c0.3738708-0.1701431,0.7536316-0.2538681,1.1609039-0.2217789c1.1353607,2.336441,1.1766968,4.8449707,1.0996246,7.3563385
		c-0.0221863,0.7228928-0.7844391,0.8354187-1.3140411,1.0370178c-2.8729095,1.0936127-5.8452148,1.8682861-8.8147736,2.6399994
		c-8.731369,2.2690582-17.6292267,2.7698975-26.595108,2.3430557c-2.0615845-0.0981522-4.1379395-0.3113708-6.1459808-0.8887787
		C185.5256805,120.7307129,184.9997711,120.5572357,184.6309204,120.0944595z"></path>
</g>
<g onclick="select(this)" class="" id="estampa-terciaria" fill="#ffffff">
	<path d="M130.3457031,285.9716492c-0.0043182-0.4395447-0.0123901-0.8790588-0.0123901-1.318573
		c-0.0005646-83.2555847-0.0003204-166.5111694-0.0050507-249.7667542
		c-0.0000305-0.5540085,0.0988617-1.1204491-0.1203003-1.6599159c0.2985687-0.2786407,0.5886536-0.5776596,1.0545654-0.5227089
		c-0.0043793,0.5994644-0.0125885,1.1989365-0.0125885,1.7984009c-0.0005798,83.3347702-0.0005035,166.6695404-0.0011292,250.004303
		c-0.0000153,0.4794922-0.0091553,0.9589844-0.014328,1.4385071
		C130.9442749,286.1619873,130.6474304,286.1474915,130.3457031,285.9716492z"></path>
	<path d="M97.9396439,33.4600487c-0.0179367,0.5983353-0.05159,1.1966743-0.0516052,1.7950096
		c-0.0023346,82.9692001-0.0021591,165.938385-0.0031357,248.9075928c-0.0000076,0.5192871-0.0140991,1.0385742-0.0221176,1.5578308
		c-0.2982178,0.1827698-0.5890503,0.181366-0.8717651-0.0325012c-0.003952-0.5193787-0.011673-1.0387573-0.0116806-1.5581665
		c-0.0005264-83.157486-0.0004807-166.3149872-0.0013885-249.4724884c-0.0000076-0.5592537-0.0131302-1.1185112-0.0201187-1.6777878
		C97.3656616,32.975296,97.6752396,33.1715889,97.9396439,33.4600487z"></path>
</g>
<g onclick="select(this)" class="" id="estampa-secundaria" fill="#801815">
	<path d="M129.1517792,33.6763268c-0.0247345,0.5565186-0.0710754,1.1130409-0.0710907,1.6695633
		c-0.0032043,83.1179657-0.0030365,166.2359314-0.0041809,249.3538818c0,0.4390869-0.0166168,0.8781738-0.0259399,1.3174744
		c-0.2471008,0.1551514-0.5017395,0.1421509-0.7598724,0.0365295c-0.0160828-0.4779663-0.0479279-0.9560547-0.0479431-1.4341431
		c-0.0021973-82.8612213-0.0017853-165.7224121-0.0080109-248.5836182
		c-0.0000458-0.6323433,0.1204987-1.2794838-0.1284332-1.8974571
		C128.3879547,33.8338852,128.6750641,33.5409317,129.1517792,33.6763268z"></path>
	<path d="M100.3662567,34.4415588c-0.2219162,0.5814285-0.1122818,1.1872864-0.1123276,1.7804871
		c-0.0056915,82.6843872-0.0053406,165.3687744-0.0072021,248.0531616
		c-0.0000153,0.5184631-0.0270462,1.0368958-0.0420837,1.5553894c-0.260704,0.1026001-0.5181046,0.0890808-0.7728043-0.0176697
		c-0.0089493-0.559082-0.0267487-1.1181946-0.0267563-1.6773376c-0.0012283-82.8097992-0.0009384-165.6196289-0.0061264-248.4294434
		c-0.0000381-0.5537453,0.1013947-1.1192474-0.1057358-1.6619339
		C99.7435074,33.927269,100.0944138,34.0778275,100.3662567,34.4415588z"></path>
	<path d="M125.9792175,285.6784668c0.0147552-0.4786072,0.0424194-0.9571838,0.0424347-1.4357605
		c0.0019073-82.5162048,0.0018921-165.0324097,0-247.5486298c-0.0000153-0.4785843-0.027626-0.9571686-0.0423279-1.4357414
		c-0.019928-0.1110115-0.0398788-0.2220345-0.059845-0.3330536c0.2410126-0.3550148,0.5729446-0.4720688,0.9861679-0.3763237
		c-0.227623,0.5390816-0.1163712,1.1058502-0.1164017,1.6584129c-0.0056992,82.7319565-0.0054016,165.4639282-0.0062943,248.1958923
		c0,0.5593567-0.0129623,1.1186829-0.0197296,1.6780396c-0.2535706,0.0017395-0.5072937,0.0035095-0.7596436,0.0053101
		c-0.0539322-0.0361328-0.1138611-0.0611572-0.1785965-0.0751953
		C125.9861145,285.9512634,126.0103912,285.8276978,125.9792175,285.6784668z"></path>
	<path d="M102.5910721,35.1334648c-0.2284393,0.5803261-0.1189804,1.1868401-0.1190186,1.780117
		c-0.0055771,82.4275208-0.0052795,164.8550415-0.0060577,247.2825623c0,0.5595093-0.0113068,1.1190186-0.0174561,1.6784973
		c-0.2486572-0.0036316-0.4971848-0.0072327-0.7459412-0.0108337c-0.0025787-19.8245544-0.0066605-39.6490936-0.0069275-59.4736176
		c-0.0008774-63.3106689,0.0000153-126.6213226-0.0059052-189.9319763
		c-0.0000534-0.5523224,0.1133881-1.1193199-0.1167374-1.6579514
		C101.9843445,34.6937981,102.3230667,34.8058624,102.5910721,35.1334648z"></path>
	<path d="M123.8410873,286.1318054c-0.0053711-0.5994263-0.01548-1.1988525-0.01548-1.7982788
		c-0.0007019-82.3768463-0.0004883-164.7536926-0.0045013-247.1305237c-0.0000305-0.5555573-0.0580902-1.1111145-0.0887985-1.666893
		c0.2638626-0.3444176,0.6195297-0.3681946,1.0049133-0.2884789c-0.2408066,0.5784035-0.1201172,1.1854439-0.120163,1.7774811
		c-0.0063095,82.471817-0.0059891,164.9436188-0.0064316,247.4154358c-0.0000076,0.5596313-0.0063553,1.1192322-0.0096054,1.6788635
		C124.3493881,286.2201843,124.0962372,286.2366638,123.8410873,286.1318054z"></path>
	<path d="M104.8175735,35.7313538c-0.3063431,0.5650177-0.1533813,1.1768227-0.1534424,1.7641678
		c-0.0080109,82.2611542-0.0075531,164.5223083-0.0088196,246.7834778
		c-0.0000076,0.5592041-0.0181885,1.1184692-0.0280228,1.6776733c-0.2547836,0.1758423-0.4937744,0.0818481-0.731102-0.0423889
		c-0.0055161-0.5193787-0.0156784-1.0387268-0.0156784-1.558075c-0.0007172-82.5147552-0.0006027-165.0295105-0.0020447-247.5442657
		c-0.0000076-0.4788857-0.0209503-0.9577637-0.0317001-1.4366837
		C104.2128525,35.3790283,104.5633392,35.4242058,104.8175735,35.7313538z"></path>
	<path d="M121.6407318,286.1916199c-0.0076752-0.5994263-0.022049-1.198822-0.0220566-1.7982483
		c-0.0009995-82.1504364-0.0005417-164.3008881-0.0088196-246.4513245
		c-0.0000687-0.6261101,0.1626434-1.2810173-0.1844559-1.8780899c0.2994003-0.3344383,0.658493-0.414463,1.0745239-0.2520981
		c-0.0301895,0.5554962-0.086792,1.1109924-0.0868149,1.6664886c-0.0039215,82.3391876-0.0037003,164.67836-0.0047455,247.0175323
		c-0.0000076,0.5593567-0.0150909,1.1186523-0.0232239,1.6779785
		C122.1411972,286.3583679,121.8932037,286.3688049,121.6407318,286.1916199z"></path>
	<path d="M107.0370636,36.183445c-0.3721695,0.5479317-0.1879654,1.1658936-0.1880341,1.7474327
		c-0.0096436,82.1173477-0.0091324,164.2346954-0.0103378,246.3520203
		c-0.0000153,0.5990601-0.0174408,1.1980896-0.0267181,1.7971191c-0.2360611,0.083252-0.4697342,0.087616-0.6997299-0.0212708
		c-0.0092316-0.5589294-0.0269318-1.1178894-0.0269394-1.6768799
		c-0.0012207-82.2424011-0.0009384-164.4848175-0.0065002-246.7272339c-0.0000381-0.5530205,0.107132-1.118824-0.107811-1.6602592
		C106.3980713,35.6543427,106.7212982,35.8979225,107.0370636,36.183445z"></path>
	<path d="M120.2978516,36.258091c-0.0268021,0.5564499-0.077034,1.1129036-0.0770645,1.6693535
		c-0.0034866,82.2258224-0.0032578,164.4516296-0.0044098,246.6774445
		c-0.0000076,0.5592651-0.0164871,1.1185303-0.0256119,1.6778259c-0.2348175,0.1147461-0.4729385,0.1152954-0.7142258,0.0228271
		c-0.0092468-0.5992126-0.026268-1.1983948-0.0262756-1.7975769c-0.0011749-82.0893555-0.0006943-164.1787109-0.0091248-246.2680664
		c-0.000061-0.5860138,0.1606979-1.1989326-0.1594696-1.7610664
		C119.5641556,36.1436043,119.909462,36.1016235,120.2978516,36.258091z"></path>
	<path d="M109.2134628,36.5055809c-0.287056,0.5270462-0.1457214,1.09832-0.1457596,1.6467628
		c-0.0072861,82.1503448-0.0069275,164.3006897-0.0073776,246.4510193c0,0.5196533-0.0064392,1.0393066-0.0095367,1.55896
		c-0.2461548,0.1182556-0.4857483,0.0776367-0.7219849-0.03125c-0.0102081-0.5589905-0.0300903-1.1180115-0.0301056-1.6770325
		c-0.0013733-82.1678009-0.001152-164.3356018-0.0047607-246.503418c-0.0000229-0.5561523-0.0521317-1.1123123-0.0797806-1.6685066
		C108.5993881,36.1242104,108.9414673,36.1584435,109.2134628,36.5055809z"></path>
	<path d="M111.39711,36.7341232c-0.0229721,0.5571098-0.06604,1.1142273-0.0660629,1.6713409
		c-0.0029984,82.0758438-0.0027924,164.1516724-0.0044174,246.2275085
		c-0.0000153,0.5586853-0.0235138,1.1173096-0.0363922,1.6760254c-0.230072-0.0060425-0.4598083-0.0121765-0.6893768-0.018219
		c-0.011322-0.5990295-0.0328827-1.1980591-0.0328979-1.7970886c-0.0014954-82.0170593-0.0010223-164.0341339-0.0090485-246.0512085
		c-0.0000534-0.5867691,0.1555481-1.1999359-0.1640854-1.7615776
		C110.7444305,36.4068222,111.0736771,36.5157471,111.39711,36.7341232z"></path>
	<path d="M117.2028732,286.3360901c-0.0087814-0.5591736-0.025238-1.1182861-0.0252457-1.6774292
		c-0.0011368-82.0840607-0.0009384-164.1681519-0.003891-246.2521973c-0.0000229-0.5571823-0.0426331-1.1143684-0.0653152-1.6715698
		c0.3126755-0.2037735,0.6276093-0.3630714,0.96698-0.0499573c-0.2954559,0.5674324-0.1485748,1.1784096-0.1486282,1.7666931
		c-0.0076752,82.0266495-0.0072861,164.0533142-0.0076523,246.0799561
		c-0.0000076,0.5996094-0.0052872,1.1991882-0.0078659,1.7987671
		C117.6752853,286.3322449,117.4390793,286.3341675,117.2028732,286.3360901z"></path>
	<path d="M113.5330887,36.7376251c-0.0001984,82.601326-0.0003815,165.202652-0.00103,247.8039703
		c-0.0000076,0.5993958-0.0065079,1.198761-0.0100021,1.7981567c-0.2533035-0.0014954-0.5065842-0.0029602-0.7599945-0.004425
		c-0.0029449-3.3567505-0.0081787-6.7135315-0.008194-10.0703125
		c-0.0004578-79.2843628-0.0003204-158.5687256-0.0013428-237.8530884c0-0.5592384-0.014679-1.1184807-0.0220718-1.677803
		C112.998291,36.7352333,113.2656937,36.7364273,113.5330887,36.7376251z"></path>
	<path d="M115.744339,36.7345276c-0.0078125,0.5992165-0.0224686,1.1984367-0.0224915,1.7976532
		c-0.0024719,82.6026688-0.003891,165.2053375-0.0052261,247.8079987c-0.2498245,0.0004578-0.4997635,0.000885-0.7496567,0.0013428
		c-0.0032959-1.8781738-0.0095215-3.7563477-0.0095444-5.6345215
		c-0.0008469-81.3231812-0.0011444-162.6463623-0.0014267-243.9695587
		C115.2188339,36.7364578,115.4815826,36.7354965,115.744339,36.7345276z"></path>
</g>
</svg>
