<!--?xml version="1.0" encoding="utf-8"?-->
<!-- Generator: Adobe Illustrator 24.2.3, SVG Export Plug-In . SVG Version: 6.00 Build 0)  -->
<svg version="1.1" id="Camada_1" xmlns="http://www.w3.org/2000/svg" xmlns:xlink="http://www.w3.org/1999/xlink" x="0px" y="0px" viewBox="0 0 229 418" style="enable-background:new 0 0 229 418;" xml:space="preserve">
<style type="text/css">
	.st0{fill:#FC0101;}
	.st1{fill:#2145B9;}
	.st2{fill:#ECFFE9;}
</style>
<g onclick="select(this)" class="" id="gola-primaria" fill="#000000">
	<path d="M110,35.9c-0.2,0.5-0.6,0.3-0.9,0.3c-4.1-0.3-8-1.5-11.6-3.3c-5.4-2.6-10.2-5.9-14.4-10.2
		c-2.7-2.7-4.9-5.8-5.8-9.6c-0.2-1-0.4-2-0.2-3.1c0.2-1,0.9-1.5,1.7-2.1c0.5,0,0.9-0.3,1.3-0.6c0.9-0.9,2-1.7,2.7-2.7
		c2-2.9,5-3.6,8.2-3.9c3.1-0.3,6.1,0.1,9.2,0c4.4-0.1,8.8,0,13.2-0.1c7.9-0.2,15.8,0,23.7,0c0.9,0,1.8,0.2,2.7,0.3
		c2.2,0.3,4.1,1.2,5.6,3.1c1.2,1.6,2.6,3.1,4.4,4.1c1.7,0.5,2.3,2.5,1.7,4.7c-1.2,4.2-3.5,7.7-6.6,10.6c-2.7,2.6-5.8,4.9-9.1,6.8
		c-4.1,2.4-8.3,4.4-12.9,5.4c-1.4,0.3-2.8,0.4-4.3,0.5c0.5-1.1,1.3-2.1,2.1-3c2.2-2.6,4.9-4.8,7.5-7.1c2.1-1.7,4.3-3.3,6.4-5
		c2.4-1.8,4.6-3.8,6.6-6.1c1.5-1.8,2.8-3.7,3.7-6c-2,0.2-3.9,0.4-5.9,0.5c-5.4,0.4-10.8,0.8-16.1,1.1c-5.6,0.4-11.2,0.4-16.8,0
		C99,10.2,91.9,9.6,84.8,8.9c-0.7-0.1-1,0.1-0.7,0.8c0.5,1.2,1.1,2.4,1.9,3.4c3.9,5.3,9.4,8.9,14.4,13.1
		C103.8,29.3,107.3,32.2,110,35.9z"></path>
</g>
<g onclick="select(this)" class="" id="detalhe-lateral" fill="#ffffff">
	<path d="M181,284c-0.4-5-0.6-10-0.8-15.1c-0.3-6-0.5-12-0.7-17.9c-0.2-4.9-0.3-9.7-0.5-14.6
		c-0.3-7.3-0.3-14.6-0.5-21.9c-0.4-17-0.2-34.1-0.2-51.1c0-4.8,0.2-9.7,0.5-14.5c0.3-4.8,0.7-9.6,1.1-14.4
		c0.9-9.6,2.5-19.2,4.9-28.5c1.2-4.8,2.7-9.6,4.8-14.2c0.1-0.2,0.1-0.6,0.4-0.7l0,0c0.2,0.5-0.1,0.9-0.2,1.3
		c-1.9,6.6-3.2,13.3-4.1,20.1c-0.4,2.5-0.4,5.1-0.5,7.7c-1.2,10.3-2.3,20.6-2,31c0.1,2.5,0.8,4.9,0.4,7.4c-0.4,2.3-0.4,4.7-0.4,7
		c0.1,6.6,0.1,13.2-0.1,19.7c-0.1,4.5,0.7,8.7,1.4,13c0.9,5.1,0.9,10.2,0.2,15.4c-0.3,2.3-0.5,4.7-0.8,7c0,0.4,0.1,0.8,0.2,1.2
		c2,5.7,2.5,11.6,1.6,17.6c-0.3,2-0.3,4,0.1,6c0.4,2,0.6,4.1,0.5,6.2c-0.1,7.4,0.7,14.7,1.4,22c0.2,2.3,0.3,4.6,0.3,6.9
		c0,1.1-0.5,1.8-1.5,2.2C184.9,283.5,183,284,181,284z"></path>
	<path d="M43.2,112.8c0.1-1.9-0.4-3.8-0.6-5.7c-0.4-2.9-0.9-5.7-1.3-8.5c-0.1-0.7-0.8-1.2-0.3-2.1
		c0.9,1.9,1.4,3.8,1.9,5.7c1.9,6.1,3.1,12.4,4.2,18.7c0.8,4.5,1.4,9.1,1.8,13.7c0.4,4.2,0.7,8.4,1,12.6c1.3,21.4,0.6,42.8,0.7,64.2
		c0,4-0.1,8-0.2,12c-0.1,6.3-0.3,12.5-0.5,18.8c-0.2,4.4-0.3,8.9-0.5,13.3c-0.2,5.6-0.4,11.2-0.8,16.9c-0.3,3.8-0.2,7.6-0.7,11.3
		c-1.7-0.1-3.4-0.5-5-1.1c-1.6-0.6-2-1.1-2-2.8c0-2.8,0.2-5.6,0.4-8.3c0.4-5.3,0.7-10.6,1.2-15.9c0.4-4.8-0.1-9.6,0.9-14.3
		c0.2-0.9,0.1-1.8,0-2.7c-0.5-3.1-0.4-6.2,0.3-9.3c0.2-0.9,0.1-1.7,0.1-2.6c-0.3-4.1-0.8-8.1-0.9-12.2c0-4.9,1.1-9.7,2.7-14.3
		c0.3-0.9,0.5-1.7,0.4-2.7c-0.2-1.6-0.1-3.2,0.2-4.8c0.1-0.6,0.2-1.2,0.1-1.8c-0.1-4.8-0.3-9.6-0.4-14.5c0-1.1,0.1-2.2,0.2-3.3
		c0.1-1.9,0.1-3.7,0-5.6c-0.4-5.1-0.2-10.1-0.1-15.2c0.2-9.1-0.2-18-1.5-27c-0.2-1.5-0.4-3.1-0.6-4.6c0.5-1.2-0.2-2.3-0.4-3.5
		C43.4,115.6,43.7,114.1,43.2,112.8z"></path>
</g>
<g onclick="select(this)" class="" id="detalhe-punho" fill="#ffffff">
	<path d="M1,114.4c0.5-1,0.5-2.2,0.7-3.3c0.1-0.5,0.1-1.1,0.5-1.5c4.7,1.9,9.7,3.3,14.7,3.9c5.6,0.7,11.3,0.9,16.9,0.7
		c2.4-0.1,4.7-0.2,7-0.6c0.8-0.1,1.4-0.9,2.3-0.8c0.5,1.4,0.2,2.8,0.4,4.2c0.1,1.1,0.9,2.3,0.4,3.5c-2.8,1.3-5.9,1.7-9,1.8
		c-7.1,0.1-14.1,0.3-21.2-0.9c-3.6-0.6-7.2-1.3-10.7-2.4c-0.7-0.2-1.5-0.6-2.2-0.9C1,116.8,1,115.6,1,114.4z"></path>
	<path d="M185.3,120.2c0-2.6,0-5.1,0.5-7.7c0.9,0.6,2,0.9,3.1,1c5.6,0.3,11.2,0.6,16.8,0c4-0.4,7.9-1.2,11.9-2
		c3.1-0.7,6-1.9,9.1-2.5c0.6-0.1,1.3-0.5,1.9-0.8c1,2.5,1.3,5.1,1.1,7.7c0,0.6-0.8,0.8-1.3,0.9c-3.2,1.2-6.5,2.1-9.9,2.9
		c-8.4,2.1-16.9,2.5-25.5,2.1c-1.8-0.1-3.6-0.4-5.5-0.7C186.7,121,186,120.7,185.3,120.2z"></path>
</g>
<g onclick="select(this)" class="" id="gola-secundaria" fill="#ffffff">
	<path d="M128.3,26.2c-2.5,2.3-5.2,4.5-7.5,7.1c-0.8,0.9-1.6,1.9-2.1,3c-2.3,0.6-4.6,0.4-7,0.2c-0.6,0-1.1-0.3-1.6-0.6
		c-2.7-3.7-6.2-6.6-9.6-9.7c2.8,0,5.7-0.1,8.5-0.1C115.4,26.2,121.8,26.2,128.3,26.2z"></path>
</g>
<path d="M190.1,91.2c0-0.1,0.1-0.3,0.1-0.4c0,0,0.1,0.1,0.1,0.1C190.3,91,190.3,91.2,190.1,91.2
	C190.1,91.1,190.1,91.2,190.1,91.2z"></path>
<g onclick="select(this)" class="" id="estampa-primaria" fill="#000000">
	<path d="M43.2,112.8c-0.9-0.1-1.5,0.6-2.3,0.8c-2.3,0.4-4.7,0.5-7,0.6c-5.7,0.2-11.3,0-16.9-0.7c-5.1-0.6-10-1.9-14.7-3.9
		c1.7-8.9,2.5-18,4-26.9C7,77.5,7.3,72.1,8.4,66.9c1.7-8.5,4.5-16.6,9.7-23.7c2.1-2.9,4.5-5.5,7.3-7.7c1.4-1.1,2.4-2.6,3.9-3.4
		c3.6-1.9,7.3-3.7,11-5.3c10-4.1,20-8.2,29.5-13.4c2-1.1,4-2.1,5.5-3.9c0.8-1,2.1-1.6,3.5-1.6C78.1,8.5,77.3,9,77.1,10
		c-0.2,1,0,2.1,0.2,3.1c0.9,3.8,3.1,6.9,5.8,9.6c4.1,4.3,9,7.6,14.4,10.2c3.7,1.8,7.5,3,11.6,3.3c0.3,0,0.7,0.3,0.9-0.3
		c0.5,0.3,1,0.6,1.6,0.6c2.3,0.2,4.7,0.4,7-0.2c1.4-0.2,2.9-0.2,4.3-0.5c4.7-0.9,8.9-3,12.9-5.4c3.3-1.9,6.4-4.2,9.1-6.8
		c3.1-3,5.5-6.4,6.6-10.6c0.6-2.2,0-4.3-1.7-4.7c1.9-0.3,3.1,0.9,4.2,2.2c0.3,0.4,0.7,0.7,1.1,1c8.9,5.9,18.8,9.6,28.5,13.7
		c5.1,2.1,10,4.4,15.1,6.6c0.3,0.1,0.6,0.3,0.8,0.5c12,8.5,19.2,20.1,21.4,34.5c1.7,11.5,4.7,22.7,6.3,34.2c0.3,2.5,0.7,4.9,1.1,7.3
		c-0.6,0.3-1.2,0.6-1.9,0.8c-3.1,0.7-6,1.9-9.1,2.5c-3.9,0.8-7.9,1.6-11.9,2c-5.6,0.6-11.2,0.3-16.8,0c-1.1-0.1-2.1-0.4-3.1-1
		c0.9-6.8,2.2-13.5,4.1-20.1c0.1-0.4,0.4-0.8,0.2-1.3c0.2,0,0.2-0.1,0.2-0.3c0,0,0-0.1-0.1-0.1c0,0.1-0.1,0.3-0.1,0.4
		c-0.3,0.1-0.3,0.4-0.4,0.7c-2,4.6-3.5,9.3-4.8,14.2c-2.4,9.4-4,18.9-4.9,28.5c-0.5,4.8-0.8,9.6-1.1,14.4c-0.3,4.8-0.5,9.6-0.5,14.5
		c0,17-0.3,34.1,0.2,51.1c0.2,7.3,0.3,14.6,0.5,21.9c0.2,4.9,0.3,9.7,0.5,14.6c0.2,6,0.5,12,0.7,17.9c0.2,5,0.4,10,0.8,15.1
		c-7.7,1.1-15.4,1.4-23.1,1.5c-12.9,0.2-25.9,0.6-38.8,0.9c-6.8,0.2-13.5-0.5-20.2-0.6c-8.7-0.1-17.4-0.2-26.1-0.4
		c-8.3-0.2-16.6-0.4-24.8-1.8c0.5-3.8,0.5-7.6,0.7-11.3c0.4-5.6,0.6-11.2,0.8-16.9c0.1-4.4,0.3-8.9,0.5-13.3
		c0.3-6.3,0.4-12.5,0.5-18.8c0.1-4,0.2-8,0.2-12c0-21.4,0.6-42.8-0.7-64.2c-0.3-4.2-0.6-8.4-1-12.6c-0.4-4.6-1.1-9.1-1.8-13.7
		c-1.1-6.3-2.3-12.6-4.2-18.7c-0.6-1.9-1-3.8-1.9-5.7c-0.5,0.9,0.2,1.5,0.3,2.1c0.4,2.9,0.9,5.7,1.3,8.5
		C42.8,109,43.3,110.8,43.2,112.8z"></path>
	<path d="M128.3,26.2c-6.4,0-12.9,0-19.3-0.1c-2.8,0-5.7,0.1-8.5,0.1c-5-4.1-10.5-7.7-14.4-13.1c-0.8-1.1-1.4-2.2-1.9-3.4
		c-0.3-0.7-0.1-0.9,0.7-0.8c7.1,0.8,14.2,1.3,21.4,1.8c5.6,0.4,11.2,0.4,16.8,0c5.4-0.4,10.8-0.7,16.1-1.1c1.9-0.1,3.8-0.3,5.9-0.5
		c-0.8,2.3-2.2,4.2-3.7,6c-1.9,2.3-4.2,4.3-6.6,6.1C132.5,22.9,130.4,24.5,128.3,26.2z"></path>
</g>
<g onclick="select(this)" class="" id="estampa-secundaria" fill="#ffffff">
	<path d="M181.1,284.1c-4.5,0.8-9.1,1.1-13.6,1.2c-14.8,0.4-29.7,0.6-44.5,1c-11.8,0.4-23.5-0.7-35.3-0.7
		c-7.4,0-14.7-0.1-22.1-0.4c-5.7-0.2-11.4-0.5-17.1-1.5c-0.3-0.1-0.7-0.1-0.6-0.7c0.3-1.5,0.1-2.9,0.2-4.4c0.4-4.7,0.5-9.4,0.7-14
		c0-0.9,0-1.8,0.2-2.6c43.5,0,87.1,0,130.6,0c0.2,4.2,0.5,8.4,0.7,12.6C180.6,277.8,180.7,281,181.1,284.1z"></path>
	<path d="M114.7,64.1c26.5,0,53,0,79.4,0c1.2,0,1.4,0.3,1.4,1.4c-0.1,4-0.1,7.9-0.6,11.8c-0.4,2.8-1.5,5.3-2.3,7.9
		c-0.1,0.4-0.4,0.5-0.7,0.5c-0.3,0-0.6,0-1,0c-50.7,0-101.3,0-152,0c-1.2,0-1.8-0.4-2-1.5c-0.2-1.1-0.6-2.1-1.1-3
		c-2.3-3.9-2.4-8.2-2.3-12.6c0-1.2,0.1-2.4,0.2-3.6c0-0.7,0.2-1.2,1-1c0.2,0,0.5,0,0.7,0C61.8,64.1,88.3,64.1,114.7,64.1z"></path>
	<path d="M48,125.6c-1.2-7.2-2.3-14.4-4.4-21.4c0-0.1,0-0.2,0-0.4c0.4,0,0.7,0,1.1,0c46.6,0,93.1,0,139.7,0
		c0.4,0,0.7,0,1.1,0c-2,7.1-3.3,14.4-4.5,21.7c-26.5,0-53.1,0-79.6,0C83.6,125.6,65.8,125.6,48,125.6z"></path>
	<path d="M81.9,21.5c5.3,5.5,11.4,9.8,18.5,12.5c2.8,1.1,5.8,1.7,8.8,2.2c0.3,0,0.6,0.1,0.9-0.1c0.5,0.1,1,0.4,1.6,0.5
		c2.3,0.2,4.7,0.3,7-0.2c10.4-1.2,18.9-6.2,26.5-13.1c0.6-0.6,1.2-1.3,1.8-1.9c7.7,5.9,16.4,9.9,25.5,13c6.6,2.2,13.4,3.7,20.1,5.8
		c1.1,0.3,2.3,0.7,3.4,1.1c1.7,0.5,1.8,0.7,1.4,2.3c-0.3,1-0.6,2.1-0.7,3.2c0,0.3-0.2,0.5-0.5,0.5c-0.4,0-0.7,0-1.1,0
		c-53.9,0-107.7,0-161.6,0c-1.2,0-1.7-0.2-1.8-1.5c0-0.9-0.2-1.8-0.5-2.6c-0.4-1.2,0-1.8,1.2-2.3c4.9-1.9,10-3.2,15.1-4.5
		c9.4-2.4,18.5-5.6,27-10.4C77.2,24.4,79.6,22.9,81.9,21.5z"></path>
	<path d="M179.2,245.3c-43.2,0-86.3,0-129.5,0c0.1-3.4,0.3-6.8,0.4-10.2c0-1,0.1-2.1,0.1-3.1c0-2.8,0.1-5.7,0.3-8.5
		c0.5,0,1,0,1.6,0c37.6,0,75.2,0,112.7,0c4.6,0,9.2,0,13.8,0c0.4,3.8,0.2,7.6,0.3,11.4C179,238.4,179.1,241.8,179.2,245.3z"></path>
	<path d="M50.7,205.4c0-7.2,0-14.4,0-21.7c0.3,0,0.6,0,0.8,0c42,0,83.9,0,125.9,0c0.3,0,0.6,0,0.8,0
		c0,7.3,0,14.5,0,21.7c-0.5,0-1,0-1.6,0c-41.5,0-82.9,0-124.4,0C51.8,205.4,51.2,205.4,50.7,205.4z"></path>
	<path d="M50.7,165.4c-0.1-3.6-0.3-7.1-0.3-10.6c0-3.6-0.4-7.3-0.6-11c0.4,0,0.8-0.1,1.2-0.1c42.3,0,84.6,0,126.9,0
		c0.4,0,0.8,0,1.2,0.1c-0.3,1.6-0.2,3.3-0.3,5c-0.1,2.5-0.4,5.1-0.3,7.6c0.1,3-0.3,6-0.3,9c-0.4,0-0.7,0-1.1,0
		c-41.8,0-83.6,0-125.4,0C51.4,165.4,51.1,165.4,50.7,165.4z"></path>
</g>
</svg>
