<!--?xml version="1.0" encoding="utf-8"?-->
<!-- Generator: Adobe Illustrator 23.1.0, SVG Export Plug-In . SVG Version: 6.00 Build 0)  -->
<svg version="1.1" id="Camada_1" xmlns="http://www.w3.org/2000/svg" xmlns:xlink="http://www.w3.org/1999/xlink" x="0px" y="0px" viewBox="0 0 234 419" style="enable-background:new 0 0 234 419;" xml:space="preserve">
<style type="text/css">
	.st0{fill:#02C907;}
	.st1{fill:#0E1882;}
	.st2{fill:#0E1782;}
	.st3{fill:#A21614;}
	.st4{fill:#D1A838;}
	.st5{fill:#60963F;}
	.st6{fill:#979F3B;}
	.st7{fill:#2318C2;}
</style>
<g onclick="select(this)" class="" id="c-gola-primaria" fill="#bf0811">
	<path d="M81.9,8c2-1.6,3.7-3.4,5.3-5.3c1.1-1.3,2.7-1.6,4.3-1.9c0.7-0.2,1.5,0.1,2.1-0.5c2.1,0,4.2,0,6.2,0
		c0.2,0.4,0.6,0.3,1,0.3c7.4,0,14.8,0,22.2,0c0.3,0,0.7,0.2,0.8-0.3c6.1,0,12.2,0,18.2,0c0.8,0.5,1.8,0.5,2.7,0.7
		c1.7,0.4,3.1,1.1,4.2,2.5c1.3,1.7,2.9,2.9,4.5,4.3c-0.5,0.3-1.1,0.1-1.6,0.2c-3.7,0.5-7.4,1.1-11.1,1.5
		c-10.7,1.1-21.4,2.1-32.1,1.2c-5.3-0.4-10.5-0.7-15.7-1.4C89.2,8.7,85.6,8,81.9,8z"></path>
	<path d="M123.8,0.2c-0.1,0.4-0.5,0.3-0.8,0.3c-7.4,0-14.8,0-22.2,0c-0.3,0-0.7,0.1-1-0.3
		C107.8,0.2,115.8,0.2,123.8,0.2z"></path>
</g>
<g onclick="select(this)" class="" id="c-detalhe-punho" fill="#082890">
	<path d="M0.2,116.2c0.7-1.9,0.6-3.9,1.1-5.8c0.1-0.2-0.1-0.6,0.4-0.7c3.1,0.6,6.3,1.3,9.4,1.8c3,0.6,6.1,1,9.2,1.6
		c6.3,1.2,12.5,1.5,18.8,1.1c2.2-0.1,4.8,0.2,6.3-2.2c0.7,1.1,0.2,2.3,1,3.2c0,0.4,0.1,0.8,0.1,1.2c0,0.7,0,1.4,0,2.2
		c-0.5,0.5-0.2,1.1-0.2,1.6c0,0.8-0.4,1.3-1.2,1.4c-4.9,0.6-9.8,1.3-14.8,0.8c-8.8-0.8-17.5-2-26.2-3.8c-1.3-0.3-2.6-0.6-4-0.9
		C0.2,117.1,0.2,116.6,0.2,116.2z"></path>
	<path d="M188.2,120.4c-0.1-0.2-0.1-0.4-0.2-0.7c0.2-1.7,0.4-3.4,0.7-5.1c0.1-0.6,0.2-1.2,0.3-1.8
		c0.2-0.5,0.5-0.8,1.1-0.3c0.3,0.3,0.6,0.4,0.9,0.7c2.4,1.8,5,2.8,8.2,2.8c4.6,0,9.1-0.4,13.6-1c5.4-0.7,10.8-1.3,16.1-2.3
		c1.2-0.2,2.3-0.6,3.5-0.8c0.2,0.1,0.4,0.2,0.4,0.4c0.2,2.2,0.7,4.3,0.8,6.4c0.1,1.1-0.3,1.5-1.3,1.7c-4.4,1-8.8,1.7-13.2,2.3
		c-6.5,0.8-12.9,1.5-19.5,1.3c-2.9-0.1-5.7-0.4-8.3-2c-0.3-0.2-0.7-0.3-1-0.3C189.2,121.5,188.6,121.1,188.2,120.4z"></path>
</g>
<g onclick="select(this)" class="" id="c-detalhe-lateral" fill="#ffffff">
	<path d="M46.6,116.4c0.9,0.4,0.5,1.3,0.6,1.9c0.4,1.8,1,3.5,1.1,5.3c0.2,2.6,0.6,5.1,0.8,7.7c0.3,3.6,0.7,7.1,0.9,10.7
		c0.1,1.7,0.2,3.3,0.3,5c0.2,4.5,0.4,8.9,0.5,13.4c0.4,14.4,0,28.7,0.2,43c0.1,7.1-0.3,14.2-0.4,21.3c-0.1,3.7-0.1,7.5-0.4,11.2
		c-0.2,2.3,0,4.5,0,6.8c0,0.1-0.1,0.3-0.2,0.4c-0.5,3.6-0.3,7.2-0.5,10.7c-0.2,4.1-0.4,8.2-0.5,12.3c-0.1,6.6-0.6,13.1-0.8,19.7
		c-1.6,0-3-0.6-4.3-1.3c-0.5-0.3-0.7-0.7-0.8-1.3c-0.1-1.4,0-2.8,0.1-4.2c0.6-8.5,1.5-17,1.6-25.6c0-1.7,0.1-3.5,0.5-5.1
		c0.7-2.8,0.2-5.6,0-8.4c-0.4-5.2,0.2-10.4,1.5-15.4c0.6-2.4,0-4.7-0.2-7c-0.5-6.1-0.5-12.2,0.5-18.3c0-0.2,0.1-0.5,0.2-0.7
		c0.4-0.8,0.5-1.6,0.4-2.4c0-0.1,0-0.1,0-0.2c0.3-0.3,0.4-0.8,0.4-1.2c0.5-2.4,0.2-4.9,0.2-7.4c0-0.2-0.2-0.4-0.2-0.5
		c0-0.1,0-0.3,0-0.4c0.1-0.8,0.1-1.5,0-2.3c0-0.1,0-0.3,0-0.4c0.5-1,0.3-2,0.3-3c0-1.3,0.3-2.7-0.3-4c0-0.5,0-0.9,0-1.4
		c0.3-0.2,0.3-0.5,0.3-0.8c-0.1-1.6-0.2-3.1-0.2-4.7c0-2.3,0-4.6,0-6.8c-0.1-2.7-0.6-5.5-0.2-8.2c0.2-1,0.2-2,0.3-3
		c0.1-6.9-0.5-13.7-0.8-20.6c0-0.3,0-0.5-0.3-0.6c0-0.1,0-0.3,0-0.4c0-1.6,0.2-3.3-0.2-4.9c0-0.4,0-0.8-0.1-1.1
		c0-0.8,0.2-1.7-0.2-2.5c0-0.3,0-0.6-0.1-0.9c0-0.7,0.2-1.3-0.2-2c-0.1-0.1-0.2-0.2-0.3-0.3C46.6,117.8,46.6,117.1,46.6,116.4z"></path>
	<path d="M186,271.4c-0.1-3.5-0.1-7-0.3-10.5c-0.2-4.9-0.4-9.7-0.5-14.6c-0.1-2.1-0.1-4.1-0.2-6.2
		c-0.5-8.7-0.5-17.5-0.7-26.2c-0.1-5.1-0.1-10.1-0.1-15.2c0-10.8,0-21.7,0-32.5c0-4.5,0.2-8.9,0.3-13.4c0.1-4.6,0.5-9.2,0.9-13.8
		c0.5-6.1,1.2-12.3,1.9-18.4c0.1-0.5,0.4-0.6,0.8-0.8c0.1,0.2,0.1,0.4,0.2,0.7c-1,0.9-0.6,2.1-0.6,3.1c-0.2,3.7-0.5,7.3-0.7,11
		c-0.4,7.2,0.1,14.5,0.1,21.7c0,3.1-0.2,6.3-0.4,9.5c-0.3,5.1,0.3,10.1,0.2,15.2c0,2.8-0.1,5.7-0.5,8.5c-0.2,1.7-0.2,3.4,0.1,5.1
		c0.1,0.3,0.1,0.6,0.1,0.9c-0.3,3.2,0.5,6.1,1.4,9.1c1.8,6.1,1.9,12.4,1.4,18.6c-0.3,3.4-0.8,6.9,0,10.4c0.4,1.7,0.3,3.5,0.1,5.3
		c-0.2,2.4-0.3,4.8,0.2,7.1c0.7,4.1,0.4,8.2,0.8,12.3c0.5,5.7,0.8,11.5,1.1,17.2c0.1,2,0.3,4,0.3,6c0,1.3-0.5,2.1-1.8,2.5
		c-1,0.3-2,0.7-3.1,0.8c0-4.3-0.8-8.6-0.7-13C186.2,271.8,186.2,271.5,186,271.4z"></path>
	<path d="M47.5,130.6c0.2,0.2,0.2,0.4,0.3,0.6c0.3,6.9,0.8,13.7,0.8,20.6c0,1-0.1,2-0.3,3c-0.4,2.8,0.1,5.5,0.2,8.2
		c0.1,2.3,0,4.6,0,6.8c0,1.6,0.1,3.1,0.2,4.7c0,0.3,0,0.6-0.3,0.8c-0.1-2.3-0.2-4.5-0.2-6.8c0-3.4-0.2-6.7-0.4-10
		c-0.1-1.2,0-2.5,0.1-3.7c0.5-5.3,0-10.7-0.1-16C47.8,136,47.4,133.3,47.5,130.6z"></path>
	<path d="M48.5,186.7c0.1,0.2,0.2,0.4,0.2,0.5c0,2.5,0.2,4.9-0.2,7.4c-0.1,0.4-0.1,0.9-0.4,1.2
		C48.7,192.8,48.5,189.8,48.5,186.7z"></path>
	<path d="M48.5,176.6c0.6,1.3,0.2,2.6,0.3,4c0,1,0.3,2.1-0.3,3C48.5,181.3,48.5,179,48.5,176.6z"></path>
	<path d="M47.3,125.3c0.4,1.6,0.2,3.3,0.2,4.9C47.2,128.5,47.3,126.9,47.3,125.3z"></path>
	<path d="M48,196.1c0.1,0.9,0,1.7-0.4,2.4C47.5,197.6,47.7,196.8,48,196.1z"></path>
	<path d="M47.1,121.7c0.4,0.8,0.2,1.6,0.2,2.5C47,123.3,47,122.5,47.1,121.7z"></path>
	<path d="M48.4,184c0.1,0.8,0.1,1.5,0,2.3C48.2,185.5,48.2,184.8,48.4,184z"></path>
	<path d="M46.8,118.8c0.4,0.6,0.2,1.3,0.2,2C46.7,120.1,46.8,119.5,46.8,118.8z"></path>
</g>
<path d="M73.4,289.3c0.2-0.1,0.5-0.1,0.7,0.1C73.9,289.4,73.6,289.4,73.4,289.3z"></path>
<g onclick="select(this)" class="" id="c-estampa-primaria" fill="#bf0811">
	<g onclick="select(this)" class="">
		<path d="M46.6,116.4c0-0.4-0.1-0.8-0.1-1.2c0-1.6,0.3-3.2-0.2-4.8c-0.9-2.7-1.2-5.5-1.1-8.3c0-1.6-0.7-3.1-0.7-4.7
			c-0.1-3-0.5-6-1-8.9c-0.4-2.2-0.8-4.4-1.1-6.7c-0.3-2.1-1.6-3.8-2.7-5.6c-0.7-1.1-1.4-2.1-1.9-3.3c-2.2-5.5-3.9-11.2-5.3-16.9
			c-1-4.4-1.6-8.9-1.3-13.4c0.1-2,0.2-4.1,0.3-6.1c0-0.6-0.4-1.2,0-1.8c0.4-0.8,0.3-1.5,0-2.3c3.8-1.8,7.6-3.7,11.5-5.3
			c7.5-3,14.8-6.2,22.1-9.4c4.1-1.8,7.8-4.2,11.6-6.6c0.4-0.3,0.7-0.7,1-1C78.8,8.9,80.1,8,81.9,8c3.6,0,7.2,0.7,10.8,1.2
			c5.2,0.7,10.5,1,15.7,1.4c10.8,0.9,21.5-0.1,32.1-1.2c3.7-0.4,7.4-1,11.1-1.5c0.6-0.1,1.1,0.1,1.6-0.2c2,0.1,3.5,1,4.8,2.6
			c0.9,1.1,2.2,1.7,3.4,2.4c8.9,5,18.3,9.2,27.8,12.9c4.7,1.9,9.2,4.2,13.9,6.3c0.2,0.1,0.4,0.3,0.6,0.4c-0.3,0.4-0.2,0.8-0.3,1.3
			c-0.1,0.6,0.4,1.2,0.3,1.7c-0.3,1.3-0.1,2.5,0,3.8c0.3,5,0.1,10-0.9,15c-0.9,4.4-2.3,8.7-3.5,13.1c-0.9,3.3-2.3,6.3-4.1,9.3
			c-0.2,0.3-0.4,0.8-0.7,0.9c-1.9,1.1-2.3,3-2.7,4.8c-0.7,3.3-1.1,6.7-1.3,10.1c-0.1,2.2,0.1,4.4-0.6,6.4c-1.5,4.7-0.9,9.4-1.3,14.1
			c-0.1,0.6-0.2,1.2-0.3,1.8c-0.2,1.7-0.4,3.4-0.7,5.1c-0.4,0.1-0.7,0.3-0.8,0.8c-0.7,6.1-1.4,12.2-1.9,18.4
			c-0.4,4.6-0.8,9.2-0.9,13.8c-0.1,4.5-0.3,8.9-0.3,13.4c0,10.8,0,21.7,0,32.5c0,5.1,0,10.1,0.1,15.2c0.3,8.7,0.3,17.5,0.7,26.2
			c0.1,2.1,0.1,4.1,0.2,6.2c0.2,4.9,0.3,9.7,0.5,14.6c0.2,3.5,0.2,7,0.3,10.5c-0.1,0.1-0.2,0.2-0.2,0.3c-0.2,4.5-0.4,9.1-0.5,13.6
			c-0.2,0-0.4,0.1-0.6,0.1c-0.2-14.4-0.5-28.9-0.7-43.3c0-1.6,0.1-3.1-0.5-4.7c0,0.2-0.1,0.3-0.1,0.4c-0.3,8.9-0.6,17.8-0.9,26.7
			c-0.2,7.1-0.5,14.3-0.7,21.5c-0.2,0-0.4,0.1-0.6,0.1c-0.5-16.9-1-33.8-1.5-50.9c-0.5,0.4-0.4,0.8-0.4,1.1
			c-0.2,6.7-0.3,13.4-0.5,20.1c-0.3,10.1-0.6,20.1-0.7,30.2c-0.2,0-0.4,0-0.6,0.1c-0.5-16.8-1-33.7-1.4-50.5c-0.1,0-0.2,0-0.3,0
			c-0.3,10.7-0.6,21.3-1,32c-0.3-0.4-0.2-0.9-0.2-1.4c-0.1-16,0.2-32-0.2-48c-0.2-5.5,0-10.9-0.2-16.4c-0.2-4.8-0.1-9.5-0.1-14.3
			c0-1-0.3-1.4-1.3-1.3c-0.2,0-0.5,0-0.7,0c-1-0.1-1.3,0.3-1.3,1.3c0,3.3-0.1,6.6-0.2,9.9c-0.2,4.9-0.1,9.7-0.3,14.6
			c0,0.4,0.1,0.8-0.3,1.5c0.1-4-0.2-7.8-0.2-11.5c-0.1-4.9,0.1-9.8-0.2-14.7c0-0.4,0.2-0.8-0.3-1c-1.1-0.5-2,0.1-2.1,1.3
			c-0.1,5.8-0.2,11.6-0.3,17.4c0,0.3,0,0.6-0.1,0.9c-0.2-1.6-0.3-3.3-0.4-4.9c-0.2-4.6-0.3-9.1-0.3-13.7c0-1.2-0.6-1.1-1.4-1.1
			c-0.9,0-1.3,0.1-1.3,1.1c0.1,8-0.1,16.1-0.2,24.1c0,0.4,0.1,0.9-0.2,1.5c-0.1-2.1-0.1-4.1-0.2-6.1c-0.2-5.8-0.2-11.7-0.3-17.5
			c0-0.8-0.1-1.7-0.2-2.5c0-0.4-0.2-0.6-0.6-0.6c-1.6-0.3-2.1,0-2.1,1.7c0,27.6,0,55.3,0,82.9c0,5.6,0,11.3,0,16.9
			c-0.7,0-1.4,0.1-2.1,0.1c0-0.2,0.1-0.3,0.1-0.5c0-13.5,0-27.1,0-40.7c0-0.2,0.1-0.5-0.3-0.6c-0.3,0.4-0.2,0.8-0.2,1.1
			c-0.2,7.5-0.3,14.9-0.5,22.4c-0.1,6.1-0.1,12.1-0.2,18.2c-0.1,0-0.3,0-0.4,0c0-2.2-0.1-4.5-0.1-6.7c-0.1-11.5-0.2-23.1-0.4-34.6
			c0-1.9,0.1-3.9-0.3-5.8c-0.3,4.2-0.6,8.4-0.9,12.7c-0.5,8.2-1,16.4-1.5,24.6c-0.2,3.3-0.6,6.6-0.6,9.9c-0.2,0-0.4,0-0.6,0
			c0-0.3,0.1-0.6,0.1-1c-0.2-11.4-0.3-22.8-0.5-34.2c0-2.8-0.1-5.7-0.2-8.5c-0.6,8.2-1,16.4-1.4,24.7c-0.3,5-0.6,10-0.9,15
			c-0.1,1.4-0.3,2.8,0.1,4.1c-0.3,0-0.6,0-0.9,0c0-0.3,0.1-0.5,0.1-0.8c-0.3-11.9-0.6-23.8-0.9-35.7c0-1.8,0-3.6,0-5.4
			c-0.1,0-0.2,0-0.3,0c-0.2,4.2-0.4,8.4-0.6,12.7c-0.4,8.5-0.8,17.1-1.2,25.6c-0.1,1.2-0.3,2.5-0.1,3.7c-0.2,0-0.4,0-0.6,0
			c0-0.2,0.1-0.5,0.1-0.7c-0.3-12.7-0.7-25.5-1-38.2c0-0.1,0.1-0.3-0.2-0.4c0,0.2,0,0.5-0.1,0.7c-0.4,9.7-0.8,19.3-1.1,29
			c-0.1,3.2-0.4,6.5-0.3,9.7c-0.1,0-0.3,0-0.4,0c0-0.6,0-1.1,0-1.7c-0.1-27.2,0.2-54.4-0.2-81.6c-0.1-5.9,0-11.8-0.2-17.7
			c0-1-0.5-1.1-1.3-1c-0.7,0-1.5-0.3-1.4,1c0.1,1.1-0.1,2.1-0.2,3.2c-0.1,4.4-0.2,8.8-0.3,13.2c-0.1,5.2-0.3,10.4-0.3,15.6
			c0,1.1-0.2,2.2-0.3,3.2c-0.3-4.6-0.2-9.3-0.3-13.9c-0.1-7.1-0.2-14.1-0.3-21.2c0-0.7-0.1-1.1-0.9-1.1c-0.9,0-1.2,0.2-1.2,1.1
			c0,3.6,0,7.1-0.2,10.7c-0.2,4.1-0.1,8.3-0.1,12.5c0,1.5-0.2,3-0.3,4.5c-0.3-2.6-0.2-5.2-0.3-7.8c-0.2-4.2-0.1-8.5-0.3-12.7
			c-0.1-2.5-0.2-4.9-0.2-7.4c0-0.8-0.4-0.9-1-0.9c-0.6,0-1.2-0.1-1.2,0.8c0,1.9-0.2,3.8-0.2,5.7c0,8.7,0,17.4-0.1,26.2
			c0,0.5,0.1,1.1-0.4,1.7c0-0.3-0.1-0.4-0.1-0.5c0-5.6-0.3-11.2-0.4-16.8c-0.2-5.3-0.2-10.6-0.3-15.8c0-1.1-0.4-1.4-1.4-1.3
			c-1.2,0-0.9,0.9-0.9,1.5c0,33.2,0,66.4,0,99.6c0,0.4,0,0.7,0,1.1c-0.9,0-1.7,0-2.6,0c-0.6-13.5-1.2-27.1-1.8-40.6
			c-0.4,5.4-0.5,10.9-0.7,16.3c-0.2,8.1-0.4,16.2-0.6,24.3c-0.2,0-0.4,0-0.6,0c0-0.1-0.1-0.2-0.1-0.2c0.1-3.7-0.2-7.5-0.4-11.2
			c-0.1-1.6,0.1-3.3-0.3-4.9c0.1-0.3,0.1-0.5-0.1-0.7c-0.1-1.5,0.1-3-0.2-4.6c0.1-0.4,0.1-0.8-0.1-1.2c0-1.4,0.1-2.7-0.2-4.1
			c0.1-0.3,0.1-0.6-0.1-1c0-1.3,0-2.6-0.2-3.9c0.1-0.4,0.1-0.8-0.1-1.2c0-1,0-1.9-0.2-2.9c0.1-0.6,0.1-1.3-0.1-1.9
			c0-0.9-0.1-1.8-0.1-2.6c0-1,0-2,0.1-3c0.3-2.4,0.4-4.9,0.3-7.3c0.2-3.6,0-7.2,0.2-10.8c0.3-3.5,0.1-6.9,0.2-10.4
			c0.2-5.9-0.1-11.9,0.2-17.9c0.2-3.8,0-7.6,0.1-11.4c0-0.8-0.2-1.1-1.1-1.1c-0.9,0-1.2,0.3-1.1,1.2c0.1,3.2,0.1,6.4,0.2,9.6
			c0.2,4.9,0.2,9.9,0.2,14.9c0.1,8.7,0.5,17.3,0.6,26c0,2.4,0,4.7,0,7.1c-0.4,1.1-0.2,2.1-0.2,3.2c0,0.9,0,1.8,0,2.6
			c0,0.6,0,1.3,0,1.9c-0.2,1.4-0.2,2.7-0.2,4.1c-0.1,0.1-0.1,0.3,0,0.5c-0.1,3.2-0.2,6.4-0.2,9.6c-0.2,0.7-0.1,1.4,0,2.1
			c-0.1,2.3-0.1,4.6-0.2,7c-0.2,0.5-0.2,1,0,1.4c-0.1,2.3-0.1,4.6-0.2,7c-0.2,0.2-0.3,0.3-0.5,0.5c-0.1-2.4-0.2-4.8-0.2-7.2
			c0.1-0.2,0.1-0.5,0-0.7c0-0.1,0-0.2,0-0.4c-0.3-10.2-0.5-20.5-0.8-30.7c0-0.3,0.1-0.6-0.4-0.8c-0.1,1.8-0.1,3.6-0.2,5.4
			c-0.3,6-0.6,12-0.8,18c-0.2,4.6-0.5,9.3-0.7,13.9c-0.1,2.1-0.1,4.1-0.2,6.2c-0.2,0-0.4,0-0.7,0.1c0-0.3,0.1-0.6,0.1-0.8
			c-0.3-12.3-0.6-24.7-1-37c0-0.2,0.1-0.6-0.3-0.6c-0.2,0.2-0.2,0.4-0.2,0.7c-0.5,10.6-1,21.2-1.4,31.8c-0.1,2-0.3,4-0.1,5.9
			c-0.8,0.1-1.5,0.1-2.3,0c0-0.2,0-0.4,0-0.6c-0.1-20.3,0.3-40.6-0.2-60.9c-0.2-7.1,0-14.2-0.2-21.3c-0.2-5.4-0.1-10.8-0.1-16.2
			c0-0.8,0-1.5,0-2.3c0.1-0.9-0.5-1-1.2-1c-0.7,0-1.1,0-1.2,1c-0.3,3.4-0.2,6.7-0.3,10.1c-0.3,5.1-0.2,10.3-0.4,15.5
			c-0.1,2.9-0.2,5.8-0.2,8.7c0,0.2,0.1,0.5-0.3,0.6c-0.3-0.4-0.2-0.8-0.2-1.2c-0.1-11.1,0-22.2-0.3-33.3c0-0.2,0-0.4,0-0.6
			c0-0.9-0.6-0.7-1.1-0.7c-0.5,0-1.1-0.1-1.1,0.7c0,1.2-0.1,2.3-0.2,3.5c-0.2,4.8-0.2,9.7-0.3,14.5c-0.1,2.6-0.1,5.1-0.2,7.7
			c0,0.2,0.1,0.6-0.3,0.6c-0.3-0.3-0.2-0.7-0.2-1c-0.1-8.1-0.2-16.2-0.3-24.3c0-0.2,0-0.4,0-0.6c0.1-0.9-0.5-1-1.2-1
			c-0.8,0-0.9,0.3-0.9,1c0,2.1-0.1,4.2-0.2,6.3c-0.2,5.4,0,10.9-0.3,16.3c-0.2,4.2,0,8.4,0,12.6c-0.3-0.8-0.4-1.6-0.5-2.3
			c-0.1-3.5,0-7-0.2-10.5c-0.2-3.3-0.1-6.5-0.2-9.8c-0.2-4.1-0.1-8.2-0.3-12.3c0-0.8-0.2-1.2-1.1-1.2c-1.5,0.1-1.5,0-1.5,1.5
			c0,33.6,0,67.3,0,100.9c-6.3,0-12.7,0.2-19-0.1c0-0.4,0-0.9,0-1.3c0-24.7,0-49.4,0-74c0-8.6,0-17.3-0.2-25.9c0-1-0.4-1.1-1.2-1.1
			c-0.8,0-1.5-0.1-1.5,1.1c0.1,2.7-0.1,5.4-0.2,8c-0.2,5.2-0.2,10.4-0.3,15.6c0,0.3,0.2,0.6-0.4,0.9c0-0.5,0-0.9,0-1.3
			c0-7.6,0-15.1-0.1-22.7c0-1.6,0-1.6-1.6-1.6c-0.8,0-1,0.2-1.1,1c0,0.8-0.1,1.5-0.2,2.3c-0.1,5.4-0.2,10.8-0.3,16.2
			c0,0.3,0.2,0.6-0.3,0.8c-0.2-0.3-0.1-0.7-0.1-1.1c-0.1-6,0.1-12-0.2-18c0-0.8-0.1-1.3-1.1-1.2c-0.9,0-1.4,0.2-1.4,1.3
			c0,6.8-0.1,13.6-0.2,20.4c0,1,0,2,0,3c0,0.2,0.2,0.6-0.3,0.6c-0.2-0.2-0.2-0.4-0.2-0.7c0-7.5-0.2-15-0.5-22.5
			c-0.1-2.3,0.5-2-2.3-2.1c-0.7,0-0.9,0.3-0.9,0.9c0,2.4,0,4.8-0.2,7.2c-0.2,5.2-0.1,10.4-0.2,15.6c-0.2,6.9-0.1,13.8-0.1,20.7
			c0,13.6,0,27.2,0,40.8c0,5.3,0,10.6,0,16c-0.6-0.1-1.3,0-1.9-0.3c1.7,0,1.7,0,1.6-1.7c-0.4-15.9-0.9-31.8-1.3-47.7
			c-0.1-2.4,0-4.9,0-7.3c-0.1,0-0.3,0-0.4,0c0,0.4-0.1,0.8-0.1,1.2c-0.5,15.7-0.9,31.5-1.4,47.2c-0.1,2.7-0.4,5.3-0.2,8
			c-0.3,0-0.5-0.1-0.8-0.1c0.3-0.5,0.2-0.9,0.1-1.4c-0.2-11.2-0.5-22.4-0.8-33.7c-0.1-5.7-0.3-11.4-0.5-17.1c0-0.2,0.2-0.6-0.5-0.7
			c-0.5,17.5-1,34.9-1.5,52.3c-0.2,0-0.4-0.1-0.6-0.1c-0.2-6.6-0.3-13.2-0.5-19.7c-0.2-8.1-0.5-16.2-0.8-24.3c0-2.3-0.2-4.5,0-6.8
			c0.3-3.7,0.3-7.5,0.4-11.2c0.1-7.1,0.4-14.2,0.4-21.3c-0.1-14.4,0.2-28.7-0.2-43c-0.1-4.5-0.3-8.9-0.5-13.4
			c-0.1-1.7-0.1-3.3-0.3-5c-0.3-3.6-0.6-7.1-0.9-10.7c-0.3-2.6-0.7-5.1-0.8-7.7c-0.1-1.8-0.7-3.5-1.1-5.3
			C47.1,117.6,47.5,116.7,46.6,116.4z M152.2,225.1c0,1,0,2,0,3c0,0.2,0,0.5,0.3,0.6c0.3,0.1,0.4-0.2,0.4-0.5
			c-0.1-1,0.3-2.1-0.2-3.1c0.1-7.6,0.1-15.2,0.2-22.8c0.3-0.2,0.3-0.5,0-0.7c0-4.5-0.1-8.9,0-13.4c0-1.1-0.7-1-1.3-1.1
			c-0.8,0-0.4,0.6-0.4,1c0,2.6,0.1,5.2,0.1,7.8c0.2,5.7,0.4,11.4,0.5,17.1C151.9,217,152.2,221,152.2,225.1z M110.9,232.3
			c-0.5,1.4-0.1,2.8-0.2,4.2c0,0.2,0.1,0.4,0.3,0.4c0.3,0,0.3-0.3,0.3-0.5c0-1.4,0-2.8,0-4.2c0.1-1.5,0.1-3,0.3-4.5
			c0.4-4.4,0.2-8.9,0.4-13.4c0.2-4.8,0.2-9.6,0.3-14.4c0.1-3.9,0.3-7.8,0.4-11.7c0-0.8,0-1.4-1.1-1.4c-1,0-1.3,0.3-1.3,1.3
			c0.2,6.4,0,12.9,0.2,19.3C110.8,215.8,110.6,224.1,110.9,232.3z M79.2,241.5c-0.5,1.9-0.4,3.8-0.4,5.7
			c-0.2,12.9-0.3,25.8-0.4,38.7c0,2.7,0,2.7,2.8,2.7c0.8,0,1-0.3,0.9-1c-0.4-5.8-0.7-11.6-1.1-17.3c-0.4-6.6-0.8-13.2-1.3-19.8
			C79.5,247.5,79.4,244.5,79.2,241.5z M114.8,243.4c0.3-1.6,0.3-3.2,0.3-4.8c0.3-4,0.2-8,0.4-11.9c0.4-6.7,0.3-13.4,0.6-20.1
			c0.2-5.8,0.2-11.7,0.3-17.5c0-0.3,0-0.6,0-0.8c0.2-0.7,0.2-1.3-0.7-1.2c-0.8,0-1.8-0.4-1.7,1.1c0.1,1.9,0.1,3.8,0.2,5.6
			c0.2,9.1,0,18.1,0.2,27.2c0.2,7.1,0.1,14.2,0.1,21.2C114.5,242.6,114.4,243,114.8,243.4z M83.4,245.1
			C83.4,245.1,83.4,245.1,83.4,245.1c-0.1,0.7-0.2,1.4-0.2,2.1c-0.2,13.2-0.4,26.3-0.6,39.5c0,2,0,2,2,2c0.9,0,1.2-0.2,1.1-1.1
			c-0.3-4.4-0.5-8.7-0.7-13C84.4,264.7,83.9,254.9,83.4,245.1z M123.2,236.1c0.1-1.1,0.3-2.1,0.3-3.2c0.1-4.9,0.2-9.7,0.3-14.6
			c0.1-10,0.2-20.1,0.3-30.1c0-1.1-0.4-1.2-1.3-1.3c-1.1,0-1.2,0.4-1.1,1.3c0.1,1.9,0.2,3.9,0.2,5.9c0.1,3.1,0.1,6.3,0.2,9.5
			c0.2,6.3,0.5,12.5,0.5,18.8C122.6,226.9,123.4,231.5,123.2,236.1z M87.5,246.9c-0.1,0-0.2,0-0.3,0c0,1.4,0,2.8,0,4.3
			c-0.3,12.2-0.6,24.5-0.9,36.7c0,0.7,0.2,0.9,0.9,0.9c0.3,0,0.7,0,1,0c1.1,0.2,1.4-0.2,1.3-1.3c-0.5-10.1-1-20.2-1.4-30.3
			C87.9,253.7,87.7,250.3,87.5,246.9z M91.3,249.7c-0.1,0-0.1,0-0.2,0c0,0.2,0,0.4-0.1,0.7c-0.3,12.5-0.6,24.9-1,37.4
			c-0.1,1.6,1,0.9,1.7,1c0.9,0.2,1.1-0.2,1.1-1.1c-0.3-5.7-0.5-11.3-0.7-17C91.8,263.6,91.6,256.6,91.3,249.7z M144.1,228.8
			c0.2-1.1,0.4-1.9,0.4-2.8c0-5.7,0.3-11.4,0.4-17.1c0.1-6.9,0.4-13.7,0.6-20.6c0-0.8,0-1.3-1-1.3c-1.1,0-1.1,0.5-1.1,1.3
			c0.1,3.7,0.1,7.4,0.2,11c0.2,9.4,0.2,18.8,0.3,28.2C143.8,227.8,143.6,228.2,144.1,228.8z M91.4,190.9c0-0.9,0-1.8,0-2.6
			c0-0.8,0-1.3-1.1-1.3c-1,0-1.1,0.5-1,1.3c0.4,4.5,0.1,9,0.4,13.5c0.2,3.3,0.1,6.7,0.3,10.1c0.2,5.3,0.2,10.5,0.3,15.8
			c0,0.4-0.1,1,0.4,1c0.5,0,0.3-0.6,0.3-0.9c0.1-4.6,0-9.1,0.2-13.7C91.4,206.3,91,198.6,91.4,190.9z M86.3,228.7
			c0.4-0.3,0.3-0.6,0.3-0.9c0.1-5.2,0.1-10.5,0.3-15.7c0.1-3.1,0-6.2,0.2-9.3c0.3-4.9-0.1-9.8,0.3-14.7c0.1-0.8-0.2-1.1-1-1.1
			c-0.8,0-0.9,0.4-0.9,1.1c0.1,2.8,0.1,5.7,0.2,8.5c0.2,7.4,0.2,14.9,0.3,22.3c0,3.1,0.1,6.1,0.2,9.2
			C86.2,228.2,86.2,228.4,86.3,228.7z M82.1,228.5c0-1.5,0.4-2.9,0.4-4.4c0-5.4,0.2-10.9,0.4-16.3c0.3-6.5,0.4-13.1,0.5-19.6
			c0-0.6,0.1-1.3-0.9-1.3c-1.1,0-1,0.6-1,1.3c0.1,3.7,0.1,7.4,0.2,11.1c0.2,9.4,0,18.9,0.3,28.3C82.1,227.9,82.1,228.2,82.1,228.5z
			 M148.2,228.6c0.4-0.1,0.4-0.4,0.4-0.6c0-2.8,0.1-5.6,0.2-8.4c0.2-4.3,0.1-8.6,0.2-12.9c0.2-6.3,0.2-12.6,0.3-18.9
			c0-0.6-0.2-0.9-0.8-0.9c-0.6,0-1.1,0.1-1.1,0.9s0.2,1.6,0.2,2.4c0,6.2,0.1,12.5,0.3,18.7c0.1,6.3,0.2,12.5,0.3,18.8
			C148.1,228,148.1,228.3,148.2,228.6z M78.2,228.2c0.5-2.1,0.4-4.3,0.5-6.4c0.1-4.1,0.4-8.1,0.4-12.2c0-7.2,0.5-14.4,0.6-21.7
			c0-0.7-0.1-1-0.9-1c-0.7,0-1,0.3-1,1c0,1.5,0.2,2.9,0.2,4.4c0.1,10.5,0.2,21,0.3,31.5C78.3,225.3,78.2,226.8,78.2,228.2z
			 M156.4,227.7c0-0.2,0-0.4,0-0.6c0.1-5.5,0-11,0.2-16.5c0.2-6,0.1-12.1,0.1-18.1c0-1.5,0.1-2.9,0.2-4.4c0.1-0.8-0.2-1.2-1.1-1.1
			c-0.9,0-0.9,0.5-0.8,1.1c0.1,2.4,0.1,4.7,0.2,7.1c0.2,5.3,0.4,10.5,0.5,15.8C155.9,216.5,155.9,222.1,156.4,227.7z M77.4,246.9
			c-0.7,0.3-0.5,0.6-0.5,1c0,13.2,0,26.4,0,39.6c0,0.2,0,0.5,0,0.7c0,0.5,0.3,0.5,0.7,0.5c0.4,0,0.5-0.2,0.5-0.5c0-0.3,0-0.6,0-0.8
			c-0.2-10.8-0.4-21.6-0.6-32.5C77.3,252.1,77.4,249.5,77.4,246.9z M57.1,220.7c0.1-1,0.2-2,0.3-3c0.2-5.7-0.1-11.4,0.2-17.1
			c0.2-4.2,0.1-8.4,0.1-12.6c0-0.5,0.2-1.1-0.7-1.1c-0.9,0-0.8,0.6-0.8,1.1c0.1,3.1,0.1,6.2,0.2,9.3c0.3,5.7,0.2,11.5,0.4,17.2
			C56.8,216.7,56.9,218.7,57.1,220.7z M176.2,221.2c0.1,0,0.3,0,0.4,0c0-1.5,0.1-3,0.2-4.5c0.2-3.6,0-7.1,0.2-10.6
			c0.3-5.1,0.2-10.3,0.3-15.4c0-0.8,0-1.5,0.1-2.3c0.1-0.6,0.3-1.3-0.8-1.4c-1,0-0.8,0.7-0.8,1.2c0.1,6.7,0.2,13.4,0.2,20.1
			C176.2,212.6,176.2,216.9,176.2,221.2z M52.9,215.7c0-0.3,0.1-0.5,0.1-0.7c0.1-9,0.2-18,0.3-27c0-0.1,0-0.2,0-0.2
			c0-0.4,0-0.8-0.6-0.8c-0.6,0-0.6,0.3-0.6,0.8c0,0.3,0,0.6,0,0.8c0.1,4.9,0.2,9.9,0.2,14.9c0,3.8,0.2,7.7,0.3,11.5
			C52.6,215.2,52.5,215.4,52.9,215.7z M180.5,215.9c0.1,0,0.2,0,0.3,0.1c0.4-4.2,0.3-8.4,0.4-12.6c0-1.9,0-3.8,0.1-5.8
			c0.1-3.4,0.1-6.7,0.1-10.1c0-0.4-0.1-0.6-0.6-0.6c-0.5,0-0.6,0.2-0.6,0.7c0,0.3,0,0.6,0,0.8c0.1,6.6,0.2,13.2,0.3,19.8
			C180.5,210.8,180.5,213.4,180.5,215.9z"></path>
		<path d="M149.6,288.9c0.7-0.2,1.4-0.1,2-0.1C151,289,150.3,288.9,149.6,288.9z"></path>
	</g>
	<g onclick="select(this)">
		<path d="M188.9,112.8c0.3-4.7-0.2-9.5,1.3-14.1c0.6-2,0.5-4.3,0.6-6.4c0.1-3.4,0.6-6.8,1.3-10.1
			c0.4-1.8,0.8-3.8,2.7-4.8c0.3-0.2,0.5-0.6,0.7-0.9c1.8-2.9,3.2-5.9,4.1-9.3c1.2-4.3,2.7-8.6,3.5-13c1-5,1.1-10,0.9-15
			c-0.1-1.3-0.3-2.5,0-3.8c0.1-0.5-0.4-1.1-0.3-1.7c0.1-0.4,0-0.9,0.3-1.3c0.3,0.1,0.5,0.2,0.7,0.4c3,3,6.5,5.6,9.2,8.9
			c4.4,5.4,7.4,11.6,9.5,18.2c2.2,6.9,3,14.1,4.1,21.3c1.5,9.7,2.6,19.6,4.6,29.2c0.1,0.5,0.1,0.9,0.1,1.4c-1.2,0.3-2.3,0.6-3.5,0.8
			c-5.3,1.1-10.7,1.7-16.1,2.3c-4.5,0.6-9,1-13.6,1c-3.2,0-5.8-1-8.2-2.8c-0.3-0.2-0.6-0.4-0.9-0.7
			C189.4,112,189.1,112.3,188.9,112.8z"></path>
		<path d="M31.4,32.4c0.4,0.8,0.5,1.5,0,2.3c-0.4,0.6,0.1,1.2,0,1.8c-0.2,2-0.2,4.1-0.3,6.1c-0.3,4.5,0.3,9,1.3,13.4
			c1.4,5.7,3,11.4,5.3,16.9c0.5,1.2,1.2,2.2,1.9,3.3c1.1,1.7,2.4,3.5,2.7,5.6c0.3,2.3,0.7,4.5,1.1,6.7c0.5,2.9,0.9,5.9,1,8.9
			c0,1.6,0.8,3.1,0.7,4.7c-0.1,2.8,0.2,5.6,1.1,8.3c0.5,1.6,0.2,3.2,0.2,4.8c-0.9-0.8-0.4-2.1-1-3.2c-1.6,2.4-4.1,2-6.3,2.2
			c-6.3,0.4-12.6,0.1-18.8-1.1c-3-0.6-6.1-1-9.2-1.6c-3.1-0.6-6.2-1.3-9.4-1.8c1-5.9,1.7-11.9,2.9-17.8c1.1-5.2,2.8-10.3,3.4-15.7
			c0.6-4.8,1.4-9.5,2.7-14.1c1.5-5.4,3.6-10.6,6.6-15.4c2.8-4.3,6.2-8.1,10.3-11.3C29,34.4,29.9,33.1,31.4,32.4z"></path>
	</g>
</g>
<g onclick="select(this)" class="" id="c-estampa-secundaria" fill="#ffffff">
	<path d="M59.7,288.1c0-5.3,0-10.6,0-16c0-13.6,0-27.2,0-40.8c0-6.9-0.1-13.8,0.1-20.7c0.2-5.2,0-10.4,0.2-15.6
		c0.1-2.4,0.1-4.8,0.2-7.2c0-0.7,0.2-0.9,0.9-0.9c2.8,0.1,2.2-0.3,2.3,2.1c0.3,7.5,0.4,15,0.5,22.5c0,0.2,0,0.5,0.2,0.7
		c0.4-0.1,0.3-0.4,0.3-0.6c0-1,0-2,0-3c0.1-6.8,0.2-13.6,0.2-20.4c0-1.1,0.4-1.2,1.4-1.3c1,0,1.1,0.4,1.1,1.2c0.3,6,0.1,12,0.2,18
		c0,0.4-0.1,0.7,0.1,1.1c0.5-0.1,0.3-0.5,0.3-0.8c0.1-5.4,0.2-10.8,0.3-16.2c0-0.8,0.1-1.5,0.2-2.3c0-0.8,0.3-1,1.1-1
		c1.6,0,1.6,0,1.6,1.6c0,7.6,0,15.1,0.1,22.7c0,0.4,0,0.8,0,1.3c0.6-0.2,0.4-0.6,0.4-0.9c0.1-5.2,0.1-10.4,0.3-15.6
		c0.1-2.7,0.2-5.4,0.2-8c0-1.2,0.7-1.1,1.5-1.1c0.8,0,1.2,0.1,1.2,1.1c0.2,8.6,0.2,17.3,0.2,25.9c0,24.7,0,49.3,0,74
		c0,0.4,0,0.9,0,1.3c-0.2,0-0.3,0-0.5,0c-0.2-0.2-0.4-0.1-0.7-0.1C68.8,289,64.2,288.9,59.7,288.1z"></path>
	<path d="M159.6,288.5c0-5.6,0-11.3,0-16.9c0-27.6,0-55.3,0-82.9c0-1.7,0.4-2,2.1-1.7c0.4,0.1,0.5,0.3,0.6,0.6
		c0.1,0.8,0.2,1.7,0.2,2.5c0.1,5.8,0.1,11.7,0.3,17.5c0.1,2,0.1,4,0.2,6.1c0.3-0.6,0.2-1.1,0.2-1.5c0.1-8,0.4-16.1,0.2-24.1
		c0-1,0.4-1.2,1.3-1.1c0.8,0,1.4-0.1,1.4,1.1c0,4.6,0.1,9.1,0.3,13.7c0.1,1.6,0.2,3.3,0.4,4.9c0-0.3,0.1-0.6,0.1-0.9
		c0.1-5.8,0.2-11.6,0.3-17.4c0-1.2,0.9-1.8,2.1-1.3c0.5,0.2,0.3,0.7,0.3,1c0.4,4.9,0.2,9.8,0.2,14.7c0,3.8,0.4,7.5,0.2,11.5
		c0.4-0.7,0.2-1.1,0.3-1.5c0.2-4.9,0.2-9.8,0.3-14.6c0.1-3.3,0.1-6.6,0.2-9.9c0-1,0.3-1.4,1.3-1.3c0.2,0,0.5,0,0.7,0
		c1-0.1,1.3,0.3,1.3,1.3c0,4.8-0.1,9.5,0.1,14.3c0.2,5.5,0.1,10.9,0.2,16.4c0.4,16,0.1,32,0.2,48c0,0.5-0.1,1,0.2,1.4
		c0,0.7,0.1,1.4,0,2c-0.3,5.6-0.1,11.3-0.2,17c-2.6,0.5-5.3,0.7-8,0.9C164.2,288.3,161.9,288.6,159.6,288.5z"></path>
	<path d="M93.6,289.4c0-33.6,0-67.3,0-100.9c0-1.5,0-1.5,1.5-1.5c1,0,1.1,0.4,1.1,1.2c0.2,4.1,0.1,8.2,0.3,12.3
		c0.2,3.3,0,6.6,0.2,9.8c0.3,3.5,0.1,7,0.2,10.5c0,0.8,0.2,1.6,0.5,2.3c0-4.2-0.1-8.4,0-12.6c0.2-5.4,0.1-10.9,0.3-16.3
		c0.1-2.1,0.1-4.2,0.2-6.3c0-0.7,0.2-1,0.9-1c0.7,0,1.3,0.1,1.2,1c0,0.2,0,0.4,0,0.6c0.1,8.1,0.2,16.2,0.3,24.3c0,0.3-0.1,0.7,0.2,1
		c0.4,0,0.3-0.4,0.3-0.6c0.1-2.6,0.2-5.1,0.2-7.7c0.1-4.8,0.2-9.7,0.3-14.5c0-1.1,0.2-2.3,0.2-3.5c0-0.8,0.6-0.7,1.1-0.7
		c0.5,0,1.1-0.2,1.1,0.7c0,0.2,0,0.4,0,0.6c0.3,11.1,0.2,22.2,0.3,33.3c0,0.4-0.1,0.8,0.2,1.2c0.4-0.2,0.3-0.4,0.3-0.6
		c0.1-2.9,0.1-5.8,0.2-8.7c0.2-5.1,0.1-10.3,0.4-15.5c0.2-3.4,0-6.7,0.3-10.1c0.1-1,0.6-0.9,1.2-1c0.7,0,1.3,0.1,1.2,1
		c-0.1,0.8,0,1.5,0,2.3c0,5.4-0.1,10.8,0.1,16.2c0.2,7.1,0.1,14.2,0.2,21.3c0.4,20.3,0.1,40.6,0.2,60.9c0,0.2,0,0.4,0,0.6
		C103.3,289.5,98.4,289.5,93.6,289.4z"></path>
	<path d="M127,289.1c0-0.4,0-0.7,0-1.1c0-33.2,0-66.4,0-99.6c0-0.7-0.3-1.5,0.9-1.5c1,0,1.4,0.2,1.4,1.3
		c0,5.3,0.1,10.6,0.3,15.8c0.2,5.6,0.4,11.2,0.4,16.8c0,0.1,0,0.3,0.1,0.5c0.5-0.6,0.4-1.2,0.4-1.7c0-8.7,0-17.4,0.1-26.2
		c0-1.9,0.2-3.8,0.2-5.7c0-1,0.6-0.8,1.2-0.8c0.7,0,1,0.1,1,0.9c0,2.5,0.1,4.9,0.2,7.4c0.2,4.2,0.1,8.5,0.3,12.7
		c0.1,2.6,0,5.2,0.3,7.8c0.1-1.5,0.3-3,0.3-4.5c0.1-4.2-0.1-8.3,0.1-12.5c0.1-3.6,0.1-7.1,0.2-10.7c0-0.9,0.4-1.1,1.2-1.1
		c0.9,0,0.9,0.4,0.9,1.1c0.1,7.1,0.2,14.1,0.3,21.2c0.1,4.6,0.1,9.3,0.3,13.9c0.1-1.1,0.3-2.2,0.3-3.2c0-5.2,0.2-10.4,0.3-15.6
		c0.1-4.4,0.1-8.8,0.3-13.2c0-1.1,0.3-2.1,0.2-3.2c-0.1-1.2,0.8-0.9,1.4-1c0.7-0.1,1.2,0,1.3,1c0.3,5.9,0.1,11.8,0.2,17.7
		c0.4,27.2,0.1,54.4,0.2,81.6c0,0.6,0,1.1,0,1.7c-1.9,0.3-3.7,0.1-5.6,0.2C132.8,289.2,129.9,289.1,127,289.1z"></path>
	<path d="M114.8,243.4c-0.4-0.4-0.3-0.9-0.3-1.3c0-7.1,0.1-14.2-0.1-21.2c-0.3-9.1,0-18.1-0.2-27.2
		c0-1.9-0.1-3.8-0.2-5.6c-0.1-1.5,1-1.1,1.7-1.1c0.9,0,0.9,0.5,0.7,1.2c-0.1,0.3,0,0.6,0,0.8c-0.1,5.8-0.1,11.7-0.3,17.5
		c-0.2,6.7-0.2,13.4-0.6,20.1c-0.2,4-0.2,8-0.4,11.9C115,240.2,115,241.8,114.8,243.4z"></path>
	<path d="M123.2,236.1c0.2-4.6-0.6-9.1-0.7-13.7c0-6.3-0.3-12.5-0.5-18.8c-0.1-3.1-0.1-6.3-0.2-9.5
		c-0.1-1.9-0.1-3.9-0.2-5.9c0-0.8,0.1-1.3,1.1-1.3c0.9,0,1.3,0.2,1.3,1.3c-0.1,10-0.2,20.1-0.3,30.1c-0.1,4.9-0.1,9.8-0.3,14.6
		C123.5,234,123.3,235,123.2,236.1z"></path>
	<path d="M118.8,238.6c0-8.7-0.5-17.3-0.6-26c0-4.9,0-9.9-0.2-14.9c-0.1-3.2-0.1-6.4-0.2-9.6c0-0.9,0.2-1.2,1.1-1.2
		c0.9,0,1.1,0.3,1.1,1.1c-0.1,3.8,0.1,7.6-0.1,11.4c-0.3,5.9,0,11.9-0.2,17.9c-0.1,3.5,0,7-0.2,10.4c-0.3,3.6-0.1,7.2-0.2,10.8
		C119.1,238.5,118.9,238.6,118.8,238.6z"></path>
	<path d="M110.9,232.3c-0.3-8.3-0.1-16.5-0.3-24.8c-0.2-6.4,0-12.9-0.2-19.3c0-1,0.3-1.3,1.3-1.3c1.1,0,1.1,0.6,1.1,1.4
		c-0.2,3.9-0.3,7.8-0.4,11.7c-0.1,4.8-0.1,9.6-0.3,14.4c-0.2,4.5,0,8.9-0.4,13.4c-0.2,1.5-0.2,3-0.3,4.5
		C111.2,232.3,111,232.3,110.9,232.3z"></path>
	<path d="M144.1,228.8c-0.5-0.5-0.3-0.9-0.3-1.3c-0.1-9.4-0.1-18.8-0.3-28.2c-0.1-3.7-0.1-7.4-0.2-11
		c0-0.8,0-1.3,1.1-1.3c1,0,1.1,0.5,1,1.3c-0.2,6.9-0.4,13.7-0.6,20.6c-0.1,5.7-0.4,11.4-0.4,17.1
		C144.4,226.8,144.3,227.7,144.1,228.8z"></path>
	<path d="M91.4,190.9c-0.4,7.7-0.1,15.4-0.3,23.1c-0.2,4.6-0.1,9.1-0.2,13.7c0,0.3,0.2,0.9-0.3,0.9
		c-0.5,0-0.4-0.6-0.4-1c-0.1-5.3-0.1-10.6-0.3-15.8c-0.1-3.4,0-6.7-0.3-10.1c-0.3-4.5,0-9-0.4-13.5c-0.1-0.8,0-1.3,1-1.3
		c1.1,0,1.2,0.5,1.1,1.3C91.4,189.1,91.4,190,91.4,190.9z"></path>
	<path d="M86.3,228.7c-0.1-0.3-0.1-0.5-0.1-0.7c-0.1-3.1-0.2-6.1-0.2-9.2c-0.1-7.4-0.1-14.9-0.3-22.3
		c-0.1-2.8-0.1-5.7-0.2-8.5c0-0.6,0-1.1,0.9-1.1c0.8,0,1.1,0.3,1,1.1c-0.4,4.9,0,9.8-0.3,14.7c-0.2,3.1-0.1,6.2-0.2,9.3
		c-0.1,5.2-0.2,10.5-0.3,15.7C86.6,228.1,86.7,228.4,86.3,228.7z"></path>
	<path d="M82.1,228.5c0-0.3,0-0.5,0-0.8c-0.3-9.4-0.1-18.9-0.3-28.3c-0.1-3.7-0.1-7.4-0.2-11.1c0-0.7-0.1-1.3,1-1.3
		c1,0,0.9,0.6,0.9,1.3c-0.2,6.5-0.3,13.1-0.5,19.6c-0.2,5.4-0.4,10.8-0.4,16.3C82.6,225.6,82.2,227,82.1,228.5z"></path>
	<path d="M148.2,228.6c0-0.3-0.1-0.6-0.1-0.9c-0.1-6.3-0.1-12.5-0.3-18.8c-0.1-6.2-0.2-12.4-0.3-18.7
		c0-0.8-0.1-1.6-0.2-2.4c-0.1-0.8,0.4-0.9,1.1-0.9c0.6,0,0.8,0.3,0.8,0.9c-0.1,6.3-0.2,12.6-0.3,18.9c-0.1,4.3,0,8.6-0.2,12.9
		c-0.1,2.8-0.2,5.6-0.2,8.4C148.5,228.2,148.6,228.4,148.2,228.6z"></path>
	<path d="M78.2,228.2c0-1.4,0-2.9,0-4.3c-0.1-10.5-0.2-21-0.3-31.5c0-1.5-0.2-2.9-0.2-4.4c0-0.7,0.3-1,1-1
		c0.8,0,0.9,0.3,0.9,1c-0.1,7.2-0.5,14.4-0.6,21.7c0,4.1-0.3,8.1-0.4,12.2C78.7,223.9,78.8,226.1,78.2,228.2z"></path>
	<path d="M156.4,227.7c-0.5-5.7-0.6-11.3-0.7-16.8c-0.1-5.3-0.3-10.5-0.5-15.8c-0.1-2.4-0.1-4.7-0.2-7.1
		c0-0.6-0.1-1.1,0.8-1.1c0.9,0,1.1,0.4,1.1,1.1c-0.1,1.5-0.2,2.9-0.2,4.4c0,6,0.1,12.1-0.1,18.1c-0.2,5.5-0.1,11-0.2,16.5
		C156.4,227.4,156.4,227.6,156.4,227.7z"></path>
	<path d="M152.9,202.3c-0.1,7.6-0.1,15.2-0.2,22.8c-0.1,0-0.3,0-0.5,0c0-4.1-0.3-8.1-0.3-12.2
		c-0.1-5.7-0.3-11.4-0.5-17.1c-0.1-2.6-0.1-5.2-0.1-7.8c0-0.3-0.3-1,0.4-1c0.6,0,1.3,0,1.3,1.1c-0.1,4.5,0,8.9,0,13.4
		C152.6,201.8,152.6,202.1,152.9,202.3z"></path>
	<path d="M57.1,220.7c-0.2-2-0.3-4-0.3-6c-0.2-5.7-0.1-11.5-0.4-17.2c-0.1-3.1-0.1-6.2-0.2-9.3c0-0.5-0.2-1.2,0.8-1.1
		c0.8,0,0.7,0.6,0.7,1.1c0,4.2,0.1,8.4-0.1,12.6c-0.3,5.7,0,11.4-0.2,17.1C57.3,218.7,57.2,219.7,57.1,220.7z"></path>
	<path d="M176.2,221.2c0-4.3,0-8.6,0-12.9c-0.1-6.7-0.2-13.4-0.2-20.1c0-0.6-0.2-1.3,0.8-1.2c1,0,0.9,0.8,0.8,1.4
		c-0.1,0.8-0.1,1.5-0.1,2.3c-0.1,5.1-0.1,10.3-0.3,15.4c-0.2,3.6-0.1,7.1-0.2,10.6c-0.1,1.5-0.3,3-0.2,4.5
		C176.5,221.2,176.3,221.2,176.2,221.2z"></path>
	<path d="M52.9,215.7c-0.4-0.3-0.3-0.5-0.3-0.7c0-3.8-0.3-7.7-0.3-11.5c0-4.9-0.1-9.9-0.2-14.9c0-0.3,0-0.6,0-0.8
		c0-0.4,0-0.8,0.6-0.8c0.6,0,0.6,0.4,0.6,0.8c0,0.1,0,0.2,0,0.2c-0.1,9-0.2,18-0.3,27C53,215.2,53,215.4,52.9,215.7z"></path>
	<path d="M180.5,215.9c0-2.6,0-5.1,0-7.6c-0.1-6.6-0.2-13.2-0.3-19.8c0-0.3,0-0.6,0-0.8c0-0.4,0.2-0.7,0.6-0.7
		c0.4,0,0.6,0.2,0.6,0.6c0,3.4,0,6.7-0.1,10.1c-0.1,1.9-0.1,3.8-0.1,5.8c-0.1,4.2,0.1,8.4-0.4,12.6
		C180.7,215.9,180.6,215.9,180.5,215.9z"></path>
	<path d="M110.9,232.3c0.1,0,0.3,0,0.4,0c0,1.4,0,2.8,0,4.2c0,0.2,0,0.5-0.3,0.5c-0.2,0-0.3-0.2-0.3-0.4
		C110.8,235.1,110.4,233.7,110.9,232.3z"></path>
	<path d="M118.8,238.6c0.1,0,0.3,0,0.4,0c0.1,2.4,0.1,4.9-0.3,7.3c-0.1-0.1-0.1-0.1-0.2-0.2
		C118.8,243.3,118.8,240.9,118.8,238.6z"></path>
	<path d="M152.2,225.1c0.1,0,0.3,0,0.5,0c0.4,1,0.1,2,0.2,3.1c0,0.2-0.1,0.5-0.4,0.5c-0.3,0-0.3-0.3-0.3-0.6
		C152.2,227.1,152.2,226.1,152.2,225.1z"></path>
</g>
<path d="M152.9,202.3c-0.3-0.2-0.3-0.5,0-0.7C153.2,201.8,153.2,202.1,152.9,202.3z"></path>
<g onclick="select(this)" class="" id="c-estampa-terciaria" fill="#082890">
	<path d="M118.3,257.5c-0.1-1.4,0-2.7,0.2-4.1c0.2,0,0.4,0,0.6,0c0.2,0.9,0.2,1.9,0.2,2.9c-0.3,0.4-0.4,0.8,0.1,1.2
		c0.2,1.3,0.2,2.6,0.2,3.9c-0.3,0.3-0.4,0.7,0.1,1c0.2,1.4,0.1,2.7,0.2,4.1c-0.3,0.4-0.4,0.8,0.1,1.2c0.2,1.5,0.1,3,0.2,4.6
		c-0.3,0.3-0.3,0.5,0.1,0.7c0.3,1.6,0.2,3.3,0.3,4.9c0.2,3.7,0.5,7.5,0.4,11.2c-1.2,0-2.3,0-3.4,0c-1.1,0.7-2.3,0.3-3.4,0.3
		c0.1-2.1,0.1-4.1,0.2-6.2c0.2-4.6,0.5-9.3,0.7-13.9c0.3-6,0.6-12,0.8-18c0.1-1.8,0-3.6,0.2-5.4c0.4,0.2,0.4,0.6,0.4,0.8
		c0.3,10.2,0.5,20.5,0.8,30.7c0,0.1,0,0.2,0,0.4c-0.3,0.2-0.3,0.5,0,0.7c0.1,2.4,0.2,4.8,0.2,7.2c-0.4,0.5-0.3,1-0.1,1.5
		c0.1,0.2,0.3,0.1,0.5,0c0.6-0.3,0.3-0.9,0.3-1.3c0-0.2,0-0.5-0.2-0.6c0.1-2.3,0.1-4.6,0.2-7c0.4-0.5,0.3-1,0-1.4
		c0.1-2.3,0.1-4.6,0.2-7c0.4-0.7,0.4-1.4,0-2.1c0.1-3.2,0.2-6.4,0.2-9.6C118.6,257.9,118.6,257.7,118.3,257.5z"></path>
	<path d="M56.1,287.5c-0.2-2.7,0.1-5.4,0.2-8c0.4-15.7,0.9-31.5,1.4-47.2c0-0.4,0-0.8,0.1-1.2c0.1,0,0.3,0,0.4,0
		c0,2.4-0.1,4.9,0,7.3c0.4,15.9,0.9,31.8,1.3,47.7c0,1.7,0,1.7-1.6,1.7C57.2,287.7,56.6,287.6,56.1,287.5z"></path>
	<path d="M52.3,286.8c0.5-17.4,1-34.8,1.5-52.3c0.6,0.2,0.5,0.5,0.5,0.7c0.2,5.7,0.3,11.4,0.5,17.1
		c0.3,11.2,0.5,22.4,0.8,33.7c0,0.5,0.1,1-0.1,1.4C54.3,287.2,53.3,287.2,52.3,286.8z"></path>
	<path d="M152.5,288.7c0-3.3,0.4-6.6,0.6-9.9c0.5-8.2,1-16.4,1.5-24.6c0.3-4.2,0.5-8.4,0.9-12.7
		c0.4,1.9,0.3,3.9,0.3,5.8c0.1,11.5,0.2,23.1,0.4,34.6c0,2.2,0.1,4.5,0.1,6.7C154.9,288.7,153.7,288.7,152.5,288.7z"></path>
	<path d="M174.5,287.3c0-5.6-0.2-11.3,0.2-17c0-0.7,0-1.4,0-2c0.3-10.7,0.6-21.3,1-32c0.1,0,0.2,0,0.3,0
		c0.5,16.8,1,33.7,1.4,50.5C176.5,287.1,175.5,287.2,174.5,287.3z"></path>
	<path d="M178.1,286.8c0.1-10.1,0.4-20.1,0.7-30.2c0.2-6.7,0.3-13.4,0.5-20.1c0-0.3-0.1-0.6,0.4-1.1
		c0.5,17.1,1,34,1.5,50.9C180.2,286.5,179.1,286.6,178.1,286.8z"></path>
	<path d="M181.8,286c0.2-7.1,0.5-14.3,0.7-21.5c0.3-8.9,0.6-17.8,0.9-26.7c0-0.1,0-0.2,0.1-0.4c0.5,1.6,0.5,3.2,0.5,4.7
		c0.3,14.4,0.5,28.9,0.7,43.3C183.7,285.8,182.8,286,181.8,286z"></path>
	<path d="M48.5,285.8c0.2-6.5,0.7-13.1,0.8-19.7c0-4.1,0.3-8.2,0.5-12.3c0.2-3.6,0-7.2,0.5-10.7c0-0.1,0.1-0.3,0.2-0.4
		c0.3,8.1,0.5,16.2,0.8,24.3c0.2,6.6,0.4,13.2,0.5,19.7C50.6,286.5,49.4,286.4,48.5,285.8z"></path>
	<path d="M149,288.9c-0.4-1.4-0.1-2.8-0.1-4.1c0.2-5,0.6-10,0.9-15c0.4-8.2,0.9-16.4,1.4-24.7c0.1,2.8,0.2,5.7,0.2,8.5
		c0.2,11.4,0.3,22.8,0.5,34.2c0,0.3,0,0.6-0.1,1c-0.1,0-0.1,0-0.2,0c-0.7,0-1.4-0.1-2,0.1C149.4,288.9,149.2,288.9,149,288.9z"></path>
	<path d="M145,288.9c-0.2-1.2,0.1-2.5,0.1-3.7c0.4-8.5,0.8-17.1,1.2-25.6c0.2-4.2,0.4-8.4,0.6-12.7c0.1,0,0.2,0,0.3,0
		c0,1.8,0,3.6,0,5.4c0.3,11.9,0.6,23.8,0.9,35.7c0,0.3-0.1,0.5-0.1,0.8C147,288.9,146,288.9,145,288.9z"></path>
	<path d="M121.4,289.2c0.2-8.1,0.4-16.2,0.6-24.3c0.1-5.4,0.3-10.9,0.7-16.3c0.6,13.5,1.2,27.1,1.8,40.6
		C123.4,289.3,122.4,289.3,121.4,289.2z"></path>
	<path d="M110.4,289.3c-0.3-2,0-4,0.1-5.9c0.4-10.6,0.9-21.2,1.4-31.8c0-0.2-0.1-0.5,0.2-0.7c0.4,0,0.3,0.4,0.3,0.6
		c0.3,12.3,0.7,24.7,1,37c0,0.3,0,0.6-0.1,0.8C112.3,289.3,111.3,289.3,110.4,289.3z"></path>
	<path d="M141.7,289c-0.2-3.2,0.2-6.5,0.3-9.7c0.3-9.7,0.8-19.3,1.1-29c0-0.2,0-0.4,0.1-0.7c0.3,0,0.2,0.3,0.2,0.4
		c0.3,12.7,0.7,25.5,1,38.2c0,0.2,0,0.5-0.1,0.7C143.5,289,142.6,289,141.7,289z"></path>
	<path d="M156.5,288.6c0.1-6.1,0.1-12.1,0.2-18.2c0.1-7.5,0.3-14.9,0.5-22.4c0-0.4-0.1-0.8,0.2-1.1
		c0.4,0.1,0.3,0.4,0.3,0.6c0,13.5,0,27.1,0,40.7c0,0.2,0,0.3-0.1,0.5C157.2,288.7,156.9,288.7,156.5,288.6z"></path>
	<path d="M186,271.4c0.2,0.1,0.2,0.3,0.2,0.5c-0.1,4.4,0.6,8.7,0.7,13c-0.5,0.1-1.1,0.2-1.6,0.4
		c0.2-4.5,0.3-9.1,0.5-13.6C185.8,271.6,185.9,271.5,186,271.4z"></path>
	<path d="M117.3,289c1.2,0,2.3,0,3.4,0c0,0.1,0.1,0.2,0.1,0.2C119.6,289.5,118.4,289.8,117.3,289z"></path>
	<path d="M79.2,241.5c0.2,3,0.3,5.9,0.5,8.9c0.4,6.6,0.8,13.2,1.3,19.8c0.4,5.8,0.7,11.6,1.1,17.3c0.1,0.8-0.1,1-0.9,1
		c-2.8,0-2.8,0-2.8-2.7c0.1-12.9,0.3-25.8,0.4-38.7C78.8,245.3,78.7,243.4,79.2,241.5z"></path>
	<path d="M83.4,245.1c0.5,9.8,1,19.6,1.5,29.4c0.2,4.4,0.4,8.7,0.7,13c0.1,0.9-0.2,1.1-1.1,1.1c-2-0.1-2,0-2-2
		c0.2-13.1,0.4-26.3,0.6-39.5C83.2,246.5,83.3,245.8,83.4,245.1C83.4,245.1,83.4,245.1,83.4,245.1z"></path>
	<path d="M87.5,246.9c0.2,3.4,0.4,6.8,0.6,10.2c0.5,10.1,0.9,20.2,1.4,30.3c0.1,1.1-0.3,1.5-1.3,1.3c-0.3,0-0.6,0-1,0
		c-0.7,0.1-0.9-0.1-0.9-0.9c0.3-12.2,0.6-24.5,0.9-36.7c0-1.4,0-2.8,0-4.3C87.4,246.9,87.4,246.9,87.5,246.9z"></path>
	<path d="M91.3,249.7c0.3,7,0.6,14,0.8,21c0.2,5.7,0.4,11.3,0.7,17c0,0.9-0.2,1.3-1.1,1.1c-0.7-0.1-1.7,0.5-1.7-1
		c0.4-12.5,0.7-24.9,1-37.4c0-0.2,0-0.4,0.1-0.7C91.1,249.6,91.2,249.6,91.3,249.7z"></path>
	<path d="M77.4,246.9c0,2.6,0,5.3,0,7.9c0.2,10.8,0.4,21.6,0.6,32.5c0,0.3,0,0.6,0,0.8c0,0.3-0.1,0.5-0.5,0.5
		c-0.3,0-0.7,0-0.7-0.5c0-0.2,0-0.5,0-0.7c0-13.2,0-26.4,0-39.6C76.9,247.5,76.7,247.2,77.4,246.9z"></path>
	<path d="M117.6,285.1c0.2,0.2,0.2,0.4,0.2,0.6c-0.1,0.5,0.2,1-0.3,1.3c-0.2,0.1-0.4,0.2-0.5,0c-0.2-0.5-0.3-1,0.1-1.5
		C117.3,285.5,117.4,285.3,117.6,285.1z"></path>
	<path d="M118.8,245.7c0.1,0.1,0.1,0.1,0.2,0.2c0,1,0,2-0.1,3c-0.1,0-0.2,0-0.3,0C118.5,247.8,118.4,246.7,118.8,245.7z
		"></path>
	<path d="M119.1,253.4c-0.2,0-0.4,0-0.6,0c0-0.6,0-1.3,0-1.9c0.2,0,0.3,0,0.5,0C119.2,252.2,119.2,252.8,119.1,253.4z"></path>
	<path d="M119,251.5c-0.2,0-0.3,0-0.5,0c0-0.9,0-1.8,0-2.6c0.1,0,0.2,0,0.3,0C118.9,249.8,119,250.6,119,251.5z"></path>
	<path d="M118.1,267.6c0.3,0.7,0.4,1.4,0,2.1C118,269,117.9,268.3,118.1,267.6z"></path>
	<path d="M117.9,276.7c0.3,0.5,0.3,1,0,1.4C117.7,277.7,117.7,277.2,117.9,276.7z"></path>
	<path d="M119.3,257.5c-0.5-0.4-0.4-0.8-0.1-1.2C119.4,256.7,119.5,257.1,119.3,257.5z"></path>
	<path d="M119.8,267.6c-0.5-0.4-0.4-0.8-0.1-1.2C119.9,266.8,119.9,267.2,119.8,267.6z"></path>
	<path d="M119.6,262.3c-0.4-0.3-0.4-0.6-0.1-1C119.6,261.7,119.7,262,119.6,262.3z"></path>
	<path d="M120,272.9c-0.4-0.2-0.3-0.5-0.1-0.7C120.1,272.4,120.1,272.6,120,272.9z"></path>
	<path d="M116.9,278.4c-0.3-0.2-0.3-0.5,0-0.7C117,277.9,117,278.2,116.9,278.4z"></path>
	<path d="M118.3,257.5c0.2,0.2,0.2,0.3,0,0.5C118.2,257.8,118.2,257.7,118.3,257.5z"></path>
</g>
</svg>
