<!--?xml version="1.0" encoding="utf-8"?-->
<!-- Generator: Adobe Illustrator 24.2.3, SVG Export Plug-In . SVG Version: 6.00 Build 0)  -->
<svg version="1.1" id="Camada_1" xmlns="http://www.w3.org/2000/svg" xmlns:xlink="http://www.w3.org/1999/xlink" x="0px" y="0px" viewBox="0 0 229 418" style="enable-background:new 0 0 229 418;" xml:space="preserve">
<style type="text/css">
	.st0{fill:#FC0101;}
	.st1{fill:#2145B9;}
	.st2{fill:#121163;}
</style>
<g onclick="select(this)" class="" id="gola-primaria" fill="#021c3b">
	<path d="M109.3,35.9c-0.2,0.5-0.6,0.3-0.9,0.3c-4.1-0.3-8-1.5-11.6-3.3c-5.4-2.6-10.2-5.9-14.4-10.2
		c-2.7-2.7-4.9-5.8-5.8-9.6c-0.2-1-0.4-2-0.2-3.1c0.2-1,0.9-1.5,1.7-2.1c0.5,0,0.9-0.3,1.3-0.6c0.9-0.9,2-1.7,2.7-2.7
		c2-2.9,5-3.6,8.2-3.9c3.1-0.3,6.1,0.1,9.2,0c4.4-0.1,8.8,0,13.2-0.1c7.9-0.2,15.8,0,23.7,0c0.9,0,1.8,0.2,2.7,0.3
		c2.2,0.3,4.1,1.2,5.6,3.1c1.2,1.6,2.6,3.1,4.4,4.1c1.7,0.5,2.3,2.5,1.7,4.7c-1.2,4.2-3.5,7.7-6.6,10.6c-2.7,2.6-5.8,4.9-9.1,6.8
		c-4.1,2.4-8.3,4.4-12.9,5.4c-1.4,0.3-2.8,0.4-4.3,0.5c0.5-1.1,1.3-2.1,2.1-3c2.2-2.6,4.9-4.8,7.5-7.1c2.1-1.7,4.3-3.3,6.4-5
		c2.4-1.8,4.6-3.8,6.6-6.1c1.5-1.8,2.8-3.7,3.7-6c-2,0.2-3.9,0.4-5.9,0.5c-5.4,0.4-10.8,0.8-16.1,1.1c-5.6,0.4-11.2,0.4-16.8,0
		c-7.1-0.5-14.3-1.1-21.4-1.8c-0.7-0.1-1,0.1-0.7,0.8c0.5,1.2,1.1,2.4,1.9,3.4c3.9,5.3,9.4,8.9,14.4,13.1
		C103.1,29.3,106.6,32.2,109.3,35.9z"></path>
</g>
<g onclick="select(this)" class="" id="detalhe-lateral" fill="#021c3b">
	<path d="M180.3,284c-0.4-5-0.6-10-0.8-15.1c-0.3-6-0.5-12-0.7-17.9c-0.2-4.9-0.3-9.7-0.5-14.6
		c-0.3-7.3-0.3-14.6-0.5-21.9c-0.4-17-0.2-34.1-0.2-51.1c0-4.8,0.2-9.7,0.5-14.5c0.3-4.8,0.7-9.6,1.1-14.4
		c0.9-9.6,2.5-19.2,4.9-28.5c1.2-4.8,2.7-9.6,4.8-14.2c0.1-0.2,0.1-0.6,0.4-0.7l0,0c0.2,0.5-0.1,0.9-0.2,1.3
		c-1.9,6.6-3.2,13.3-4.1,20.1c-0.4,2.5-0.4,5.1-0.5,7.7c-1.2,10.3-2.3,20.6-2,31c0.1,2.5,0.8,4.9,0.4,7.4c-0.4,2.3-0.4,4.7-0.4,7
		c0.1,6.6,0.1,13.2-0.1,19.7c-0.1,4.5,0.7,8.7,1.4,13c0.9,5.1,0.9,10.2,0.2,15.4c-0.3,2.3-0.5,4.7-0.8,7c0,0.4,0.1,0.8,0.2,1.2
		c2,5.7,2.5,11.6,1.6,17.6c-0.3,2-0.3,4,0.1,6c0.4,2,0.6,4.1,0.5,6.2c-0.1,7.4,0.7,14.7,1.4,22c0.2,2.3,0.3,4.6,0.3,6.9
		c0,1.1-0.5,1.8-1.5,2.2C184.2,283.5,182.3,284,180.3,284z"></path>
	<path d="M42.5,112.8c0.1-1.9-0.4-3.8-0.6-5.7c-0.4-2.9-0.9-5.7-1.3-8.5c-0.1-0.7-0.8-1.2-0.3-2.1
		c0.9,1.9,1.4,3.8,1.9,5.7c1.9,6.1,3.1,12.4,4.2,18.7c0.8,4.5,1.4,9.1,1.8,13.7c0.4,4.2,0.7,8.4,1,12.6c1.3,21.4,0.6,42.8,0.7,64.2
		c0,4-0.1,8-0.2,12c-0.1,6.3-0.3,12.5-0.5,18.8c-0.2,4.4-0.3,8.9-0.5,13.3c-0.2,5.6-0.4,11.2-0.8,16.9c-0.3,3.8-0.2,7.6-0.7,11.3
		c-1.7-0.1-3.4-0.5-5-1.1c-1.6-0.6-2-1.1-2-2.8c0-2.8,0.2-5.6,0.4-8.3c0.4-5.3,0.7-10.6,1.2-15.9c0.4-4.8-0.1-9.6,0.9-14.3
		c0.2-0.9,0.1-1.8,0-2.7c-0.5-3.1-0.4-6.2,0.3-9.3c0.2-0.9,0.1-1.7,0.1-2.6c-0.3-4.1-0.8-8.1-0.9-12.2c0-4.9,1.1-9.7,2.7-14.3
		c0.3-0.9,0.5-1.7,0.4-2.7c-0.2-1.6-0.1-3.2,0.2-4.8c0.1-0.6,0.2-1.2,0.1-1.8c-0.1-4.8-0.3-9.6-0.4-14.5c0-1.1,0.1-2.2,0.2-3.3
		c0.1-1.9,0.1-3.7,0-5.6c-0.4-5.1-0.2-10.1-0.1-15.2c0.2-9.1-0.2-18-1.5-27c-0.2-1.5-0.4-3.1-0.6-4.6c0.5-1.2-0.2-2.3-0.4-3.5
		C42.7,115.6,42.9,114.1,42.5,112.8z"></path>
</g>
<g onclick="select(this)" class="" id="detalhe-punho" fill="#021c3b">
	<path d="M0.2,114.4c0.5-1,0.5-2.2,0.7-3.3c0.1-0.5,0.1-1.1,0.5-1.5c4.7,1.9,9.7,3.3,14.7,3.9
		c5.6,0.7,11.3,0.9,16.9,0.7c2.4-0.1,4.7-0.2,7-0.6c0.8-0.1,1.4-0.9,2.3-0.8c0.5,1.4,0.2,2.8,0.4,4.2c0.1,1.1,0.9,2.3,0.4,3.5
		c-2.8,1.3-5.9,1.7-9,1.8c-7.1,0.1-14.1,0.3-21.2-0.9c-3.6-0.6-7.2-1.3-10.7-2.4c-0.7-0.2-1.5-0.6-2.2-0.9
		C0.2,116.8,0.2,115.6,0.2,114.4z"></path>
	<path d="M184.6,120.2c0-2.6,0-5.1,0.5-7.7c0.9,0.6,2,0.9,3.1,1c5.6,0.3,11.2,0.6,16.8,0c4-0.4,7.9-1.2,11.9-2
		c3.1-0.7,6-1.9,9.1-2.5c0.6-0.1,1.3-0.5,1.9-0.8c1,2.5,1.3,5.1,1.1,7.7c0,0.6-0.8,0.8-1.3,0.9c-3.2,1.2-6.5,2.1-9.9,2.9
		c-8.4,2.1-16.9,2.5-25.5,2.1c-1.8-0.1-3.6-0.4-5.5-0.7C186,121,185.3,120.7,184.6,120.2z"></path>
</g>
<g onclick="select(this)" class="" id="gola-secundaria" fill="#bf0811">
	<path d="M127.5,26.2c-2.5,2.3-5.2,4.5-7.5,7.1c-0.8,0.9-1.6,1.9-2.1,3c-2.3,0.6-4.6,0.4-7,0.2c-0.6,0-1.1-0.3-1.6-0.6
		c-2.7-3.7-6.2-6.6-9.6-9.7c2.8,0,5.7-0.1,8.5-0.1C114.7,26.2,121.1,26.2,127.5,26.2z"></path>
</g>
<path d="M189.4,91.2c0-0.1,0.1-0.3,0.1-0.4c0,0,0.1,0.1,0.1,0.1C189.6,91,189.6,91.2,189.4,91.2
	C189.3,91.1,189.4,91.2,189.4,91.2z"></path>
<g onclick="select(this)" class="" id="estampa-primaria" fill="#bf0811">
	<path d="M42.5,112.8c-0.9-0.1-1.5,0.6-2.3,0.8c-2.3,0.4-4.7,0.5-7,0.6c-5.7,0.2-11.3,0-16.9-0.7c-5.1-0.6-10-1.9-14.7-3.9
		c1.7-8.9,2.5-18,4-26.9c0.9-5.2,1.2-10.6,2.2-15.8c1.7-8.5,4.5-16.6,9.7-23.7c2.1-2.9,4.5-5.5,7.3-7.7c1.4-1.1,2.4-2.6,3.9-3.4
		c3.6-1.9,7.3-3.7,11-5.3c10-4.1,20-8.2,29.5-13.4c2-1.1,4-2.1,5.5-3.9c0.8-1,2.1-1.6,3.5-1.6C77.3,8.5,76.6,9,76.4,10
		c-0.2,1,0,2.1,0.2,3.1c0.9,3.8,3.1,6.9,5.8,9.6c4.1,4.3,9,7.6,14.4,10.2c3.7,1.8,7.5,3,11.6,3.3c0.3,0,0.7,0.3,0.9-0.3
		c0.5,0.3,1,0.6,1.6,0.6c2.3,0.2,4.7,0.4,7-0.2c1.4-0.2,2.9-0.2,4.3-0.5c4.7-0.9,8.9-3,12.9-5.4c3.3-1.9,6.4-4.2,9.1-6.8
		c3.1-3,5.5-6.4,6.6-10.6c0.6-2.2,0-4.3-1.7-4.7c1.9-0.3,3.1,0.9,4.2,2.2c0.3,0.4,0.7,0.7,1.1,1c8.9,5.9,18.8,9.6,28.5,13.7
		c5.1,2.1,10,4.4,15.1,6.6c0.3,0.1,0.6,0.3,0.8,0.5c12,8.5,19.2,20.1,21.4,34.5c1.7,11.5,4.7,22.7,6.3,34.2c0.3,2.5,0.7,4.9,1.1,7.3
		c-0.6,0.3-1.2,0.6-1.9,0.8c-3.1,0.7-6,1.9-9.1,2.5c-3.9,0.8-7.9,1.6-11.9,2c-5.6,0.6-11.2,0.3-16.8,0c-1.1-0.1-2.1-0.4-3.1-1
		c0.9-6.8,2.2-13.5,4.1-20.1c0.1-0.4,0.4-0.8,0.2-1.3c0.2,0,0.2-0.1,0.2-0.3c0,0,0-0.1-0.1-0.1c0,0.1-0.1,0.3-0.1,0.4
		c-0.3,0.1-0.3,0.4-0.4,0.7c-2,4.6-3.5,9.3-4.8,14.2c-2.4,9.4-4,18.9-4.9,28.5c-0.5,4.8-0.8,9.6-1.1,14.4c-0.3,4.8-0.5,9.6-0.5,14.5
		c0,17-0.3,34.1,0.2,51.1c0.2,7.3,0.3,14.6,0.5,21.9c0.2,4.9,0.3,9.7,0.5,14.6c0.2,6,0.5,12,0.7,17.9c0.2,5,0.4,10,0.8,15.1
		c-7.7,1.1-15.4,1.4-23.1,1.5c-12.9,0.2-25.9,0.6-38.8,0.9c-6.8,0.2-13.5-0.5-20.2-0.6c-8.7-0.1-17.4-0.2-26.1-0.4
		c-8.3-0.2-16.6-0.4-24.8-1.8c0.5-3.8,0.5-7.6,0.7-11.3c0.4-5.6,0.6-11.2,0.8-16.9c0.1-4.4,0.3-8.9,0.5-13.3
		c0.3-6.3,0.4-12.5,0.5-18.8c0.1-4,0.2-8,0.2-12c0-21.4,0.6-42.8-0.7-64.2c-0.3-4.2-0.6-8.4-1-12.6c-0.4-4.6-1.1-9.1-1.8-13.7
		c-1.1-6.3-2.3-12.6-4.2-18.7c-0.6-1.9-1-3.8-1.9-5.7c-0.5,0.9,0.2,1.5,0.3,2.1c0.4,2.9,0.9,5.7,1.3,8.5
		C42.1,109,42.5,110.8,42.5,112.8z"></path>
	<path d="M127.5,26.2c-6.4,0-12.9,0-19.3-0.1c-2.8,0-5.7,0.1-8.5,0.1c-5-4.1-10.5-7.7-14.4-13.1c-0.8-1.1-1.4-2.2-1.9-3.4
		c-0.3-0.7-0.1-0.9,0.7-0.8c7.1,0.8,14.2,1.3,21.4,1.8c5.6,0.4,11.2,0.4,16.8,0c5.4-0.4,10.8-0.7,16.1-1.1c1.9-0.1,3.8-0.3,5.9-0.5
		c-0.8,2.3-2.2,4.2-3.7,6c-1.9,2.3-4.2,4.3-6.6,6.1C131.8,22.9,129.7,24.5,127.5,26.2z"></path>
</g>
<g onclick="select(this)" class="" id="estampa-secundaria" fill="#021c3b">
	<path d="M47.1,283.9c0-0.2,0.1-0.3,0.1-0.5c4.9,0,9.8,0,14.7,0c0.3,0,0.8,0.1,0.8-0.3c0-1.1,0.8-0.8,1.3-0.8
		c9.7,0,19.3,0,29,0c1.3,0,2.6,0,3.8,0c0.3,0,0.8-0.1,0.8,0.4c0,0.8,0.6,0.7,1.1,0.7c3.3,0,6.6,0,9.8,0c7.6,0,15.3,0,22.9,0
		c0.4,0,1.1-0.2,1.1,0.3c0.1,0.9,0.7,0.7,1.2,0.7c0.8,0,1.7,0,2.5,0c10,0,20,0,30,0c0.4,0,1.1,0.3,1.1-0.3c0.2-1,0.8-0.7,1.4-0.7
		c3.7,0,7.4,0,11.1,0c0.2,0.3,0.2,0.5,0.1,0.9c-1.9,0.4-3.8,0.5-5.6,0.7c-6.3,0.6-12.7,0.7-19,0.8c-13.3,0.3-26.7,0.8-40,0.8
		c-12.7,0-25.4-0.8-38.2-0.9c-7.2,0-14.4-0.2-21.5-0.7C52.9,284.7,50,284.3,47.1,283.9z"></path>
	<path d="M46.9,44.4c4.9,0,9.8,0,14.7,0c0.5,0,1.1-0.2,1.2,0.7c0.1,0.6,0.7,0.3,1.1,0.3c6.9,0,13.8,0,20.7,0
		c4,0,7.9,0,11.9,0c0.6,0,1.2-0.2,1.3,0.8c0.1,0.6,0.7,0.3,1.1,0.3c6.5,0,12.9,0,19.4,0c4.4,0,8.8,0,13.2,0c0.5,0,1.1,0.2,1.2-0.7
		c0.1-0.6,0.6-0.4,1-0.4c2.9,0,5.8,0,8.8,0c7.9,0,15.8,0,23.7,0c0.6,0,1.3,0.3,1.4-0.8c0-0.4,0.5-0.3,0.8-0.3c9,0,18,0,27,0
		c0.6,0,0.8,0.2,0.7,0.8c-0.3,1.3-0.4,2.7-0.5,4c-0.1,0.9-0.5,1-1.2,1c-5.8,0-11.5,0-17.3,0c-2.8,0-5.7,0-8.5,0
		c-0.5,0-0.9,0.1-1.1-0.6c-0.1-0.7-0.8-0.4-1.2-0.4c-7.6,0-15.3,0-22.9,0c-3.2,0-6.4,0-9.6,0c-0.5,0-1.1,0.1-1.2-0.7
		c0-0.5-0.6-0.4-0.9-0.4c-11.1,0-22.1,0-33.2,0c-0.3,0-0.7-0.1-0.7,0.2c-0.1,1.2-1,0.9-1.7,0.9c-10.6,0-21.2,0-31.8,0
		c-0.6,0-1.6-0.4-1.7,0.8c0,0.3-0.5,0.2-0.8,0.2c-9.9,0-19.8,0-29.7,0c-0.6,0-0.7-0.1-0.7-0.8c0-1.3-0.2-2.6-0.5-3.9
		c-0.2-1,0.1-1.1,1-1.1C37,44.4,41.9,44.4,46.9,44.4z"></path>
	<path d="M47.3,51.3c4.8,0,9.5,0,14.3,0c0.5,0,1.1-0.2,1.2,0.7c0.1,0.6,0.7,0.3,1.1,0.3c6.9,0,13.8,0,20.7,0
		c4,0,8,0,12,0c0.6,0,1.1,0,1.1,0.8c0.1,0.6,0.7,0.3,1.1,0.3c6.9,0,13.8,0,20.7,0c4,0,7.9,0,11.9,0c0.5,0,1.1,0.2,1.2-0.7
		c0.1-0.7,0.8-0.4,1.2-0.4c9.8,0,19.7,0,29.5,0c1,0,1.9,0,2.9,0c0.6,0,1.2,0.2,1.3-0.7c0-0.4,0.5-0.3,0.8-0.3c8.7,0,17.3,0,26,0
		c1,0,1.2,0.6,1,1.3c-0.3,1.3-0.7,2.5-0.6,3.9c0,0.8-0.6,0.6-1,0.6c-4,0-8.1,0-12.1,0c-4.4,0-8.7,0-13.1,0c-0.5,0-1,0.1-1.1-0.7
		c-0.1-0.6-0.7-0.3-1.1-0.3c-4.2,0-8.4,0-12.6,0c-6.6,0-13.2,0-19.8,0c-0.6,0-1.3,0.3-1.4-0.8c-0.1-0.5-0.7-0.3-1.1-0.3
		c-3.5,0-7,0-10.4,0c-7.3,0-14.6,0-21.9,0c-0.6,0-1.4-0.3-1.4,0.8c0,0.4-0.6,0.3-0.9,0.3c-1.9,0-3.8,0-5.6,0c-9,0-18.1,0-27.1,0
		c-0.5,0-1.2-0.3-1.3,0.7c0,0.4-0.5,0.3-0.8,0.3c-9.5,0-19.1,0-28.6,0c-0.8,0-0.9-0.3-1-1c0-1.3-0.1-2.7-0.3-3.9
		c-0.1-0.9,0.2-0.9,0.8-0.9C37.7,51.4,42.5,51.3,47.3,51.3z"></path>
	<path d="M46.6,43.2c-4.9,0-9.8,0-14.7,0c-0.7,0-1.3,0.1-1.4-0.9c-0.1-0.8,0.2-1.1,0.9-1.4c3.5-1.3,7-2.5,10.6-3.4
		c0.6-0.1,1.2-0.1,1.8-0.1c5.9,0,11.8,0,17.7,0c0.6,0,1.3-0.2,1.4,0.8c0.1,0.4,0.7,0.2,1.1,0.2c5.3,0,10.6,0,15.8,0
		c5.6,0,11.1,0,16.7,0c0.6,0,1.3-0.3,1.4,0.8c0.1,0.4,0.7,0.2,1.1,0.2c4.9,0,9.9,0,14.9,0c5.9,0,11.8,0,17.7,0
		c0.5,0,1.1,0.2,1.3-0.7c0.1-0.6,0.7-0.3,1.1-0.3c7.4,0,14.7,0,22.1,0c3.5,0,6.9,0,10.4,0c0.5,0,1.1,0.2,1.2-0.7
		c0-0.4,0.5-0.3,0.8-0.3c4.5,0,8.9-0.1,13.4,0.1c2.4,0.1,4.7,1.1,7.1,1.7c2.3,0.6,4.5,1.4,6.7,2.1c0.5,0.2,1.1,0.3,1,1.2
		c-0.1,0.9-0.7,0.7-1.2,0.7c-8.8,0-17.7,0-26.5,0c-0.6,0-1.3,0.2-1.4-0.8c-0.1-0.5-0.8-0.3-1.1-0.3c-6.9,0-13.7,0-20.6,0
		c-3.9,0-7.8,0-11.8,0c-0.5,0-1.2,0.2-1.4-0.7c-0.1-0.5-0.8-0.3-1.1-0.3c-9.6,0-19.3,0-28.9,0c-1.1,0-2.2,0-3.2,0
		c-0.6,0-1.5-0.4-1.8,0.8c-0.1,0.4-0.8,0.2-1.2,0.2c-9.3,0-18.5,0-27.8,0c-1.4,0-2.7,0-4.1,0c-0.7,0-1.7-0.5-1.9,0.9
		c0,0.3-0.7,0.2-1.1,0.2C56.6,43.2,51.6,43.2,46.6,43.2z"></path>
	<path d="M47.7,59.3c4.6,0,9.3,0,13.9,0c0.5,0,1.1-0.2,1.2,0.7c0,0.6,0.6,0.4,1,0.4c2.4,0,4.9,0,7.3,0
		c8.4,0,16.9,0,25.3,0c0.6,0,1.3,0.3,1.5-0.8c0.1-0.5,0.8-0.3,1.2-0.3c10.7,0,21.3,0,32,0c0.7,0,1.7,0.5,1.8-0.8
		c0-0.2,0.5-0.2,0.8-0.2c11,0,22.1,0,33.1,0c0.4,0,0.8,0,0.9,0.6c0.1,0.7,0.8,0.4,1.2,0.4c8.1,0,16.2,0,24.3,0
		c1.8,0,1.9,0.1,1.7,1.9c-0.2,1.8-0.2,1.8-2.1,1.8c-7.9,0-15.8,0-23.7,0c-0.6,0-1.2-0.2-1.4,0.7c-0.1,0.5-0.8,0.3-1.1,0.3
		c-8.7,0-17.3,0-26,0c-2.2,0-4.5,0-6.7,0c-0.4,0-0.9,0.1-1.1-0.6c-0.1-0.7-0.8-0.4-1.2-0.4c-9.2,0-18.5,0-27.7,0c-1.7,0-3.4,0-5.2,0
		c-0.4,0-0.9,0.1-0.9-0.6c0-0.4-0.3-0.5-0.7-0.5c-0.2,0-0.5,0-0.7,0c-10.8,0-21.5,0-32.2,0c-0.6,0-1.3-0.2-1.4,0.8
		c0,0.4-0.5,0.3-0.8,0.3c-9.4,0-18.9,0-28.3,0c-0.6,0-0.9-0.2-1.1-0.8c-0.4-0.9,0-1.7,0.1-2.6c0.1-0.6,0.7-0.3,1.1-0.3
		C38.4,59.3,43.1,59.3,47.7,59.3z"></path>
	<path d="M47.7,73.4c4.6,0,9.3,0,13.9,0c0.6,0,1.2-0.2,1.3,0.8c0,0.4,0.7,0.2,1.1,0.2c7.1,0,14.2,0,21.3,0
		c3.8,0,7.6,0,11.4,0c0.5,0,1,0.2,1.1-0.7c0.1-0.6,0.7-0.3,1.1-0.3c6,0,12,0,18,0c4.9,0,9.8,0,14.6,0c0.6,0,1.2,0.2,1.3-0.8
		c0-0.6,0.7-0.3,1.1-0.3c4.1,0,8.2,0,12.4,0c6.7,0,13.4,0,20.1,0c0.6,0,1.2-0.2,1.3,0.8c0.1,0.6,0.7,0.4,1.1,0.4
		c5.5,0,10.9,0,16.4,0c2.7,0,5.4,0,8,0c0.9,0,1.2,0.2,1.1,1.1c-0.1,2.5-0.1,2.5-2.6,2.5c-7.6,0-15.3,0-22.9,0
		c-0.6,0-1.3-0.2-1.4,0.8c-0.1,0.6-0.7,0.3-1.1,0.3c-5.1,0-10.2,0-15.3,0c-5.7,0-11.4,0-17,0c-0.6,0-1.3,0.3-1.4-0.8
		c-0.1-0.6-0.7-0.3-1.1-0.3c-7.2,0-14.5,0-21.7,0c-3.6,0-7.3,0-10.9,0c-0.5,0-1.1,0.2-1.3-0.7c-0.1-0.6-0.7-0.3-1.1-0.3
		c-7.7,0-15.4,0-23.1,0c-3.2,0-6.3,0-9.5,0c-0.5,0-1.2-0.2-1.2,0.7c0,0.4-0.5,0.3-0.8,0.3c-9.3,0-18.6,0-27.9,0
		c-0.6,0-0.8-0.2-1-0.8c-0.7-2.9-0.7-2.9,2.3-2.9C39.5,73.4,43.6,73.4,47.7,73.4z"></path>
	<path d="M150.2,71.1c-5.4,0-10.7,0-16.1,0c-0.6,0-1.3,0.3-1.4-0.7c-0.1-0.5-0.8-0.3-1.2-0.3c-10.7,0-21.3,0-32,0
		c-0.7,0-1.7,0.5-1.8-0.8c0-0.3-0.5-0.2-0.8-0.2c-11.1,0-22.1,0-33.2,0c-0.5,0-0.8,0-0.9,0.6c-0.1,0.6-0.7,0.4-1.1,0.4
		c-4.5,0-9,0-13.4,0c-4.8,0-9.7,0-14.5,0c-1,0-1.3-0.4-1.1-1.2c0.4-2.8-0.5-2.4,2.5-2.4c8.8,0,17.6,0,26.4,0c0.6,0,1.3-0.3,1.4,0.8
		c0.1,0.4,0.7,0.2,1.1,0.2c5,0,10.1,0,15.1,0c5.8,0,11.6,0,17.4,0c0.6,0,1.3,0.3,1.4-0.8c0.1-0.5,0.8-0.2,1.2-0.2
		c10.6,0,21.3,0,31.9,0c0.7,0,1.7,0.4,1.9-0.9c0.1-0.4,0.7-0.2,1.1-0.2c8.4,0,16.8,0,25.2,0c2.5,0,4.9,0,7.4,0c0.5,0,1-0.1,1.1,0.7
		c0.1,0.7,0.8,0.4,1.2,0.4c7.4,0,14.7,0,22.1,0c0.4,0,0.8,0,1.2,0c2.6,0,2.6,0,2.6,2.6c0,0.9-0.3,1.1-1.1,1.1c-1.9-0.1-3.8,0-5.6,0
		c-6.4,0-12.7,0-19.1,0c-0.6,0-1.2-0.2-1.4,0.7c-0.1,0.5-0.8,0.3-1.2,0.3C160.9,71.1,155.6,71.1,150.2,71.1z"></path>
	<path d="M48.7,80.4c4.3,0,8.5,0,12.8,0c0.5,0,1.2-0.3,1.3,0.7c0,0.4,0.5,0.3,0.8,0.3c11.1,0,22.1,0,33.2,0
		c0.4,0,0.9,0.1,0.9-0.6c0-0.6,0.5-0.4,0.8-0.4c1.7,0,3.4,0,5,0c9.2,0,18.5,0,27.7,0c0.6,0,1.4,0.3,1.5-0.8c0.1-0.5,0.8-0.3,1.2-0.3
		c9.1,0,18.3,0,27.4,0c1.7,0,3.4,0,5.1,0c0.5,0,1-0.1,1.1,0.6c0.1,0.7,0.7,0.5,1.1,0.5c4.8,0,9.6,0,14.4,0c3,0,6,0,9,0
		c0.8,0,1.2,0.1,0.8,1.1c-0.9,2.6-0.8,2.6-3.5,2.6c-6.8,0-13.7,0-20.5,0c-0.6,0-1.2-0.2-1.3,0.7c-0.1,0.7-0.8,0.4-1.2,0.4
		c-10.3,0-20.6,0-30.9,0c-0.6,0-1.2,0-1.8,0c-0.5,0-0.9,0.1-1-0.7c-0.1-0.6-0.6-0.5-1.1-0.5c-2.5,0-4.9,0-7.4,0
		c-8.4,0-16.8,0-25.2,0c-0.5,0-1.2,0.3-1.3-0.7c-0.1-0.6-0.8-0.3-1.1-0.3c-9.2,0-18.5,0-27.7,0c-1.7,0-3.4,0-5.2,0
		c-0.4,0-0.9-0.1-0.9,0.6c0,0.5-0.5,0.4-0.8,0.4c-8.4,0-16.8,0-25.2,0c-0.5,0-0.8-0.1-0.9-0.7c-0.1-0.8-0.5-1.4-0.9-2.1
		c-0.4-0.7-0.2-0.9,0.5-0.9c3.6,0,7.1,0,10.7,0C47,80.4,47.9,80.4,48.7,80.4z"></path>
	<path d="M189.4,91c-0.1,0.1-0.3,0.1-0.4,0.2c-6.8,0-13.6,0-20.4,0c-0.2,0-0.6,0-0.7,0.1c-0.3,1.4-1.4,0.9-2.2,0.9
		c-10.5,0-21,0-31.5,0c-0.6,0-1.4,0.3-1.5-0.8c-0.1-0.4-0.8-0.2-1.2-0.2c-10.7,0-21.3,0-32,0c-0.7,0-1.6,0.4-1.8-0.9
		c0-0.4-0.7-0.2-1.1-0.2c-8.7,0-17.3,0-26,0c-2.2,0-4.5,0-6.7,0c-0.5,0-1.1-0.2-1.1,0.7c0,0.5-0.5,0.4-0.8,0.4c-7.5,0-14.9,0-22.4,0
		c-0.6,0-0.9-0.3-1.1-0.8c-1.2-3-1.2-3,2-3c7.1,0,14.1,0,21.2,0c0.5,0,1.1-0.2,1.2,0.7c0.1,0.7,0.8,0.4,1.2,0.4c5.4,0,10.9,0,16.3,0
		c5.4,0,10.8,0,16.2,0c0.6,0,1.2,0.2,1.3-0.8c0.1-0.6,0.7-0.3,1.1-0.3c6.1,0,12.2,0,18.2,0c4.8,0,9.6,0,14.4,0
		c0.5,0,1.1,0.2,1.3-0.7c0.1-0.6,0.7-0.3,1.1-0.3c5.5,0,10.9,0,16.4,0c5.4,0,10.8,0,16.2,0c0.5,0,1.1-0.2,1.3,0.7
		c0.1,0.6,0.7,0.3,1.1,0.3c6.8,0,13.6,0,20.4,0c0.4,0,0.9,0,1.4,0C190.2,88.7,189.8,89.8,189.4,91z"></path>
	<path d="M40.5,97c-0.1-0.2-0.2-0.4-0.3-0.5c-0.5-1,0.1-1,0.9-1c6.7,0,13.4,0,20.1,0c0.7,0,1.6,0.4,1.7-0.9
		c0-0.4,0.7-0.2,1.1-0.2c4.4,0,8.7,0,13.1,0c6.5,0,13,0,19.5,0c0.6,0,1.2,0.2,1.3-0.7c0-0.4,0.5-0.3,0.8-0.3c11.1,0,22.1,0,33.2,0
		c0.4,0,0.8,0,0.9,0.6c0.1,0.7,0.8,0.4,1.2,0.4c10.5,0,21.1,0,31.6,0c0.8,0,2-0.6,2.3,1c0.1,0.3,0.6,0.2,0.9,0.2
		c6.1,0,12.3,0,18.4,0c-0.1,0.6-0.3,1.1-0.6,1.6c-6.1,0-12.1,0-18.2-0.1c-0.2,0-0.6-0.1-0.6,0.2c-0.1,1.3-1.1,0.9-1.8,0.9
		c-10.7,0-21.3,0-32,0c-0.4,0-1.1-0.2-1.2,0.3c-0.2,1-0.9,0.8-1.4,0.8c-5,0-10,0-15,0c-5.8,0-11.7,0-17.5,0c-0.4,0-1,0.2-1.1-0.2
		c-0.2-1.1-0.9-0.8-1.5-0.8c-10.7,0-21.3,0-32,0c-0.7,0-1.6,0.4-1.7-0.9c0-0.3-0.5-0.2-0.7-0.2C54.8,97,47.7,97,40.5,97z"></path>
	<path d="M93.6,31.4c1.9,0.9,3.8,1.7,5.7,2.6c-0.6,0.2-1.5-0.3-1.6,0.9c-0.1,0.4-0.8,0.2-1.2,0.2c-10.1,0-20.3,0-30.4,0
		c-0.7,0-1.4,0-2,0c-0.6,0-1.2-0.2-1.2,0.8c0,0.5-0.6,0.3-1,0.3c-4.6,0-9.2,0-13.9,0c0.2-0.4,0.6-0.4,0.9-0.5
		c4.5-1.2,8.9-2.5,13.2-4.3c0.6-0.3,1.2,0,1.7,0C73.7,31.4,83.6,31.4,93.6,31.4z"></path>
	<path d="M128,34c1.9-0.9,3.7-1.7,5.6-2.6c8.9,0,17.9,0,26.9,0c2.4,0,4.5,0.3,6.8,1.2c3.2,1.3,6.6,2.3,9.9,3.6
		c-0.3,0-0.6,0-0.8,0c-2.5,0-5,0-7.6,0c-0.6,0-1.1,0.1-1.2-0.8c0-0.5-0.5-0.4-0.9-0.4c-1.7,0-3.4,0-5.1,0c-9.1,0-18.3,0-27.4,0
		c-0.6,0-1.3,0.3-1.4-0.8c0-0.4-0.5-0.2-0.8-0.2C130.5,34,129.3,34,128,34z"></path>
	<path d="M83.9,24.4c1.5,1.2,3.1,2.4,4.6,3.6c-6.1,0-12.2,0-18.5,0c2.1-1.2,4.1-2.3,6-3.4c0.4-0.2,0.9-0.1,1.3-0.1
		C79.5,24.4,81.7,24.4,83.9,24.4z"></path>
	<path d="M138.7,28c1.5-1.3,2.9-2.6,4.6-3.6c0.7,0,1.5,0.1,2.1,0c4.3-0.7,7.6,1.2,11,3.6C150.5,28,144.6,28,138.7,28z"></path>
	<path d="M42.7,104c-0.2-0.5-0.3-1-0.5-1.5c6.5,0,12.9,0,19.4,0c0.4,0,1.1,0.3,1.1-0.3c0.1-1,0.7-0.8,1.3-0.8
		c5,0,10.1,0,15.1,0c5.8,0,11.7,0,17.5,0c0.4,0,1,0.3,1.1-0.3c0.1-0.8,0.6-0.7,1.1-0.7c2.6,0,5.3,0,7.9,0c8.3,0,16.5,0,24.8,0
		c0.4,0,1.1-0.3,1.1,0.3c0.2,1,0.8,0.7,1.4,0.7c8.1,0,16.1,0,24.2,0c2.8,0,5.6,0,8.4,0c0.4,0,1-0.2,1,0.3c0.1,0.9,0.7,0.8,1.3,0.8
		c5.4,0,10.7,0,16.1,0c-0.2,0.5-0.3,1-0.5,1.5c-5.3,0-10.6,0-15.8,0c-0.3,0-0.8-0.1-0.9,0.2c-0.3,1.4-1.4,0.9-2.2,0.9
		c-10.6,0-21.1,0-31.6,0c-0.4,0-1.1-0.3-1.2,0.4c-0.1,0.6-0.5,0.6-0.9,0.6c-11.1,0-22.1,0-33.2,0c-0.3,0-0.8,0.1-0.8-0.3
		c-0.1-1-0.8-0.7-1.3-0.7c-10.8,0-21.5,0-32.2,0c-0.6,0-1.5,0.4-1.6-0.8c0-0.4-0.5-0.3-0.8-0.3C55.5,104,49.1,104,42.7,104z"></path>
	<path d="M45.8,118.1c-0.1-0.6-0.2-1.1-0.3-1.7c5.3,0,10.7,0,16.1,0c0.4,0,1,0.3,1.1-0.3c0.1-0.8,0.7-0.7,1.1-0.7
		c4,0,8,0,12,0c6.9,0,13.8,0,20.7,0c0.4,0,1.1,0.3,1.1-0.3c0.1-1.1,0.8-0.8,1.4-0.8c8.5,0,17,0,25.5,0c2.4,0,4.7,0,7.1,0
		c0.4,0,1-0.2,1,0.3c0.1,1,0.7,0.8,1.3,0.8c6.4,0,12.7,0,19.1,0c4.5,0,8.9,0,13.4,0c0.4,0,1-0.3,1.1,0.3c0.1,0.8,0.7,0.7,1.2,0.7
		c4.3,0,8.6,0,12.9,0c-0.1,0.6-0.2,1.1-0.3,1.7c-4.3,0-8.6,0-12.8,0c-0.3,0-0.7-0.1-0.7,0.2c-0.1,1.1-1,0.8-1.6,0.8
		c-7.3,0-14.6,0-21.9,0c-3.5,0-7,0-10.6,0c-0.4,0-1-0.2-1,0.5c-0.1,0.7-0.6,0.7-1,0.7c-11,0-22.1,0-33.1,0c-0.3,0-0.8,0.1-0.8-0.3
		c0-1.1-0.8-0.9-1.4-0.9c-10.7,0-21.3,0-32,0c-0.7,0-1.6,0.4-1.7-0.8c0-0.2-0.4-0.2-0.7-0.2C56.6,118.1,51.2,118.1,45.8,118.1z"></path>
	<path d="M47.1,125.1c-0.3-0.5-0.5-1.1-0.3-1.7c5,0,10.1,0,15.1,0c0.3,0,0.8,0.1,0.8-0.3c0.1-0.8,0.6-0.7,1.1-0.7
		c3.6,0,7.1,0,10.7,0c7.3,0,14.7,0,22,0c0.4,0,1.1,0.3,1.1-0.3c0.1-1.1,0.8-0.8,1.4-0.8c9,0,18.1,0,27.1,0c1.8,0,3.7,0,5.5,0
		c0.4,0,1-0.2,1,0.3c0.1,1.1,0.8,0.8,1.4,0.8c10.7,0,21.3,0,32,0c0.7,0,1.6-0.3,1.8,0.8c0,0.2,0.4,0.2,0.6,0.2c3.9,0,7.9,0,11.9,0
		c0.2,0.6,0.1,1.2-0.3,1.7c-3.9,0-7.8,0-11.6,0c-0.3,0-0.7-0.1-0.8,0.3c-0.1,0.9-0.7,0.7-1.3,0.7c-5.8,0-11.5,0-17.3,0
		c-5.1,0-10.1,0-15.2,0c-0.4,0-1.1-0.2-1.1,0.3c-0.1,1-0.7,0.8-1.3,0.8c-2.9,0-5.8,0-8.6,0c-8,0-16,0-24,0c-0.4,0-1.1,0.3-1.1-0.3
		c-0.1-1.1-0.8-0.8-1.4-0.8c-10.6,0-21.3,0-31.9,0c-0.7,0-1.8,0.5-2-0.8c0-0.1-0.4-0.1-0.7-0.1C57,125.1,52.1,125.1,47.1,125.1z"></path>
	<path d="M48.2,265c0-0.5,0-1,0-1.5c4.5,0,9.1,0,13.7,0c0.3,0,0.9,0.1,0.9-0.3c0-1,0.7-0.8,1.3-0.8c4.5,0,9.1,0,13.7,0
		c6.3,0,12.6,0,18.9,0c0.4,0,1,0.3,1.1-0.3c0.1-0.9,0.7-0.7,1.3-0.7c4.8,0,9.5,0,14.3,0c6.1,0,12.2,0,18.3,0c0.4,0,1-0.3,1.1,0.3
		c0.1,0.9,0.7,0.7,1.3,0.7c3.9,0,7.8,0,11.6,0c6.9,0,13.9,0,20.9,0c0.4,0,1.1-0.3,1.2,0.4c0.1,0.7,0.5,0.7,1,0.7c3.5,0,6.9,0,10.4,0
		c0,0.5,0,1,0,1.5c-3.4,0-6.9,0-10.3,0c-0.4,0-1-0.2-1,0.3c-0.1,1-0.8,0.8-1.4,0.8c-6.1,0-12.3,0-18.4,0c-4.6,0-9.3,0-13.9,0
		c-0.4,0-1-0.3-1.1,0.3c-0.1,0.8-0.6,0.7-1.1,0.7c-2.3,0-4.6,0-6.8,0c-8.6,0-17.3,0-25.9,0c-0.4,0-1,0.2-1.1-0.2
		c-0.2-1.2-1-0.8-1.6-0.8c-8.2,0-16.4,0-24.6,0c-2.6,0-5.2,0-7.8,0c-0.4,0-1,0.2-1.1-0.4c-0.1-0.9-0.6-0.7-1.1-0.7
		C57.2,265,52.7,265,48.2,265z"></path>
	<path d="M49.2,236.9c0-0.5-0.1-1.1,0.1-1.6c4.3,0,8.5,0,12.8,0.1c0.3,0,0.7,0.1,0.7-0.3c0-1.1,0.7-0.8,1.3-0.8
		c10.7,0,21.4,0,32.1,0c0.3,0,0.6,0,1,0c0.3,0,0.6,0,0.6-0.4c0-0.7,0.4-0.6,0.9-0.6c11.1,0,22.1,0,33.2,0c0.3,0,0.8-0.1,0.8,0.3
		c0.1,1,0.8,0.8,1.4,0.8c10.7,0,21.4,0,32.1,0c0.6,0,1.4-0.3,1.5,0.8c0,0.4,0.5,0.3,0.8,0.3c3.1,0,6.3,0,9.5-0.1
		c0.2,0.5,0.1,1,0.1,1.6c-3.1,0-6.2,0-9.4,0c-0.3,0-0.9-0.1-1,0.2c-0.2,1.2-1,0.9-1.7,0.9c-10.7,0-21.3,0-32,0
		c-0.4,0-1.1-0.2-1.2,0.2c-0.2,1-0.9,0.8-1.4,0.8c-5.4,0-10.8,0-16.2,0c-5.4,0-10.9,0-16.3,0c-0.4,0-1,0.2-1.1-0.2
		c-0.2-1.1-0.9-0.8-1.5-0.8c-10.6,0-21.2,0-31.8,0c-0.4,0-0.8,0-1.2,0c-0.3,0-0.6,0-0.6-0.4c0-0.9-0.6-0.7-1.1-0.7
		C57.5,236.9,53.3,236.9,49.2,236.9z"></path>
	<path d="M48.4,258c0-0.6-0.1-1.1,0.2-1.6c4.4,0,8.8,0,13.2,0c0.3,0,0.9,0.2,0.9-0.3c0.1-1,0.8-0.7,1.3-0.7
		c7.8,0,15.6,0,23.4,0c3.1,0,6.2,0,9.3,0c0.3,0,0.9,0.2,1-0.4c0-0.9,0.6-0.8,1.2-0.8c6,0,12,0,18,0c4.9,0,9.8,0,14.6,0
		c0.4,0,1.1-0.2,1.2,0.4c0.1,0.8,0.6,0.7,1.1,0.7c2.6,0,5.2,0,7.8,0c8.3,0,16.6,0,24.9,0c0.4,0,1.1-0.3,1.2,0.4
		c0.1,0.7,0.5,0.6,1,0.6c3.3,0,6.6,0,9.9,0c0.3,0.5,0.2,1.1,0.2,1.6c-3.4,0-6.7,0-10.1,0c-0.3,0-0.9-0.2-1,0.2
		c-0.2,1.2-1.1,0.8-1.8,0.8c-1.4,0-2.9,0-4.3,0c-9.2,0-18.4,0-27.7,0c-0.4,0-1.1-0.2-1.1,0.3c-0.1,1.1-0.9,0.8-1.5,0.8
		c-7.3,0-14.5,0-21.8,0c-3.6,0-7.2,0-10.8,0c-0.3,0-1,0.2-1-0.4c0-0.9-0.6-0.8-1.1-0.8c-4.2,0-8.5,0-12.7,0c-6.7,0-13.3,0-20,0
		c-0.4,0-1,0.3-1.1-0.3c-0.1-0.8-0.6-0.7-1.1-0.7C57.3,258,52.8,258,48.4,258z"></path>
	<path d="M48.7,251c-0.1-0.6,0-1.1,0.2-1.6c4.3,0,8.5,0,12.8,0c0.3,0,0.9,0.1,1-0.2c0.2-1.2,1-0.8,1.6-0.8
		c1.4-0.1,2.8,0,4.2,0c9.3,0,18.7,0,28,0c0.4,0,1.1,0.2,1.1-0.3c0.1-1.1,0.8-0.8,1.4-0.8c8.5,0,16.9,0,25.4,0c2.4,0,4.8,0,7.2,0
		c0.4,0,1-0.2,1,0.4c0,0.9,0.6,0.8,1.1,0.8c5.8,0,11.7,0,17.5,0c5.1,0,10.1,0,15.2,0c0.4,0,1.1-0.3,1.1,0.4c0,0.9,0.6,0.6,1,0.6
		c3.2,0,6.5,0,9.7,0c0.2,0.5,0.3,1.1,0.2,1.6c-3.3,0-6.6,0-9.9,0c-0.3,0-0.9-0.3-0.9,0.4c0,0.8-0.5,0.6-0.9,0.6c-2.5,0-5,0-7.6,0
		c-8.4,0-16.9,0-25.3,0c-0.4,0-1.1-0.3-1.1,0.3c-0.1,1-0.8,0.8-1.4,0.8c-5.4,0-10.9,0-16.3,0c-5.4,0-10.8,0-16.2,0
		c-0.4,0-1.1,0.3-1.1-0.3c-0.1-1-0.7-0.8-1.3-0.8c-3.1,0-6.2,0-9.2,0c-7.8,0-15.6,0-23.4,0c-0.4,0-1,0.3-1.1-0.3
		c-0.1-0.9-0.7-0.7-1.2-0.7C57.3,251,53,251,48.7,251z"></path>
	<path d="M48.9,244c-0.1-0.6,0-1.1,0.2-1.6c4.2,0,8.5,0,12.7,0c0.3,0,0.8,0.1,0.9-0.2c0.1-1.2,1-0.8,1.6-0.8
		c9.3,0,18.7,0,28,0c1.5,0,3,0,4.4,0c0.4,0,0.9,0.1,0.9-0.5c0-0.8,0.5-0.7,1-0.7c11,0,22.1,0,33.1,0c0.3,0,0.7-0.1,0.8,0.1
		c0.3,1.6,1.5,0.9,2.3,1c10.5,0,20.9,0,31.4,0c0.4,0,1.1-0.3,1.2,0.4c0.1,0.7,0.6,0.6,1.1,0.6c3.2,0,6.3,0,9.5,0
		c0.2,0.5,0.3,1.1,0.2,1.6c-3.1,0-6.3,0-9.5,0c-0.4,0-0.9-0.2-1,0.3c-0.2,0.9-0.8,0.7-1.4,0.7c-4.4,0-8.7,0-13.1,0
		c-6.5,0-12.9,0-19.4,0c-0.4,0-1.1-0.3-1.1,0.3c-0.1,1-0.8,0.8-1.4,0.8c-6.4,0-12.9,0-19.3,0c-4.4,0-8.8,0-13.2,0
		c-0.4,0-1.1,0.3-1.1-0.4c-0.1-0.7-0.5-0.7-1-0.7c-2.1,0-4.2,0-6.2,0c-8.9,0-17.7,0-26.6,0c-0.4,0-1,0.3-1.1-0.3
		c-0.2-0.9-0.7-0.7-1.2-0.7C57.4,244,53.1,244,48.9,244z"></path>
	<path d="M44.6,111c-0.4-0.4-0.2-0.9-0.4-1.4c0.5-0.3,0.9-0.2,1.4-0.2c5.3,0,10.7,0,16.1,0c0.4,0,1,0.2,1-0.3
		c0.1-1,0.9-0.8,1.4-0.8c7.2,0,14.5,0,21.7,0c3.6,0,7.3,0,10.9,0c0.4,0,1,0.2,1-0.3c0-1,0.7-0.8,1.3-0.8c5.3,0,10.6,0,15.8,0
		c5.6,0,11.2,0,16.8,0c0.4,0,1-0.2,1.1,0.2c0.1,1.3,1,0.9,1.7,0.9c10.7,0,21.3,0,32,0c0.4,0,1.1-0.2,1.2,0.3c0.2,1,0.9,0.8,1.4,0.8
		c4.7,0,9.4,0,14.1,0c-0.2,0.5,0,1.1-0.4,1.5c-4.7,0-9.3,0-14,0c-0.3,0-0.8-0.1-0.9,0.2c-0.2,1.4-1.2,0.9-1.9,0.9
		c-10.6,0-21.2,0-31.9,0c-0.4,0-1.1-0.3-1.2,0.4c-0.1,0.6-0.5,0.6-0.9,0.6c-11.1,0-22.1,0-33.2,0c-0.3,0-0.8,0.1-0.8-0.3
		c-0.1-1-0.8-0.7-1.3-0.7c-6,0-12.1,0-18.1,0c-4.8,0-9.7,0-14.5,0c-0.4,0-1.1,0.3-1.1-0.4c0-0.8-0.5-0.7-1-0.7
		C56.1,110.9,50.3,111,44.6,111z"></path>
	<path d="M47.4,280.1c-0.1-1.3,0.1-2.5,0.2-3.8c4.7,0,9.4,0,14,0c0.3,0,0.9,0.1,1-0.2c0.2-1.2,1-0.8,1.6-0.8
		c1.5,0,3,0,4.4,0c9.3,0,18.5,0,27.8,0c0.4,0,1.1-0.3,1.2,0.3c0.2,1,0.8,0.7,1.3,0.7c7.4,0,14.8,0,22.2,0c3.4,0,6.9,0,10.3,0
		c0.4,0,1.1-0.2,1.1,0.3c0.1,1,0.8,0.8,1.4,0.8c6.1,0,12.1,0,18.2,0c4.7,0,9.4,0,14.1,0c0.4,0,1,0.3,1.1-0.3
		c0.1-0.9,0.7-0.8,1.3-0.8c3.6,0,7.1,0,10.7,0c0.1,1.3,0.5,2.5,0.3,3.8c-3.7,0-7.4,0-11,0c-0.4,0-1,0.2-1.1-0.4
		c-0.1-0.9-0.7-0.7-1.2-0.7c-4,0-8.1,0-12.1,0c-6.8,0-13.6,0-20.4,0c-0.4,0-1-0.2-1.1,0.2c-0.2,1.3-1.1,0.9-1.8,0.9
		c-10.7,0-21.3,0-32,0c-0.4,0-1.1-0.2-1.2,0.2c-0.2,1-0.9,0.8-1.4,0.8c-5.9,0-11.8,0-17.6,0c-4.9,0-9.9,0-14.9,0
		c-0.4,0-1,0.3-1.1-0.3c-0.1-0.8-0.7-0.7-1.1-0.7C56.9,280,52.2,280.1,47.4,280.1z"></path>
	<path d="M47.8,273.1c0-1.3,0.1-2.5,0.1-3.8c4.6,0,9.2,0,13.8,0c0.3,0,0.9,0.2,1-0.3c0.1-0.8,0.6-0.7,1.1-0.7
		c3,0,5.9,0,8.9,0c7.9,0,15.9,0,23.8,0c0.4,0,1.1-0.3,1.2,0.4c0.1,0.7,0.5,0.6,0.9,0.6c1.8,0,3.6,0,5.4,0c9.2,0,18.3,0,27.5,0
		c0.4,0,1.1-0.2,1.1,0.3c0.1,1,0.8,0.8,1.4,0.8c5.9,0,11.8,0,17.7,0c4.9,0,9.8,0,14.6,0c0.4,0,1.1,0.3,1.2-0.4
		c0.1-0.8,0.6-0.7,1.1-0.7c3.5,0,7,0,10.6,0c0,1.3,0.1,2.5,0.1,3.8c-0.3,0-0.6-0.1-0.8-0.1c-3.2,0-6.5,0-9.7,0
		c-0.4,0-1.1,0.2-1.1-0.3c-0.1-0.9-0.7-0.8-1.3-0.8c-4.7,0-9.4,0-14.1,0c-6.1,0-12.2,0-18.3,0c-0.4,0-1-0.2-1.1,0.2
		c-0.2,1.2-1,0.9-1.7,0.9c-10.7,0-21.4,0-32.1,0c-0.4,0-1.1-0.2-1.2,0.3c-0.2,1-0.9,0.8-1.4,0.8c-10.8,0-21.6,0-32.3,0
		c-0.6,0-1.3,0.2-1.4-0.8c0-0.3-0.5-0.2-0.7-0.2C57.3,273.1,52.5,273.1,47.8,273.1z"></path>
	<path d="M48.7,140.1c0.1-1.3-0.4-2.5-0.3-3.8c4.4,0,8.9,0,13.3,0c0.4,0,1,0.3,1-0.4c0.1-0.7,0.5-0.6,1-0.6
		c1.7,0,3.4,0,5.2,0c9.2,0,18.4,0,27.7,0c0.4,0,1.1-0.3,1.1,0.3c0.1,1,0.8,0.7,1.3,0.7c5.7,0,11.3,0,17,0c5.2,0,10.3,0,15.5,0
		c0.4,0,1.1-0.2,1.1,0.3c0.1,1,0.8,0.8,1.4,0.8c5.2,0,10.4,0,15.6,0c5.6,0,11.2,0,16.8,0c0.4,0,1.1,0.3,1.2-0.4
		c0.1-0.8,0.6-0.7,1.1-0.7c3.4,0,6.7,0,10.1,0c0.1,1.3-0.3,2.5-0.3,3.8c-3.3,0-6.6,0-9.8,0c-0.4,0-1,0.2-1.1-0.4
		c-0.1-0.8-0.6-0.7-1.1-0.7c-3.5,0-6.9,0-10.4,0c-7.4,0-14.8,0-22.2,0c-0.4,0-1.1-0.3-1.1,0.3c-0.1,1-0.8,0.8-1.4,0.8
		c-6.6,0-13.2,0-19.8,0c-4.2,0-8.5,0-12.7,0c-0.4,0-1-0.3-1.1,0.3c-0.1,0.8-0.7,0.7-1.1,0.7c-3.6,0-7.2,0-10.8,0
		c-7.3,0-14.6,0-21.9,0c-0.4,0-1,0.3-1.1-0.3c-0.1-0.9-0.7-0.7-1.2-0.7C57.3,140.1,53,140.1,48.7,140.1z"></path>
	<path d="M48.1,133c-0.4-1.2-0.5-2.4-0.5-3.7c4.7,0,9.4,0,14.1,0c0.3,0,0.9,0.2,1-0.4c0-0.7,0.5-0.6,0.9-0.6
		c11.1,0,22.1,0,33.2,0c0.3,0,0.7-0.1,0.8,0.2c0.2,1.3,1.2,0.8,1.8,0.8c10.7,0,21.3,0,32,0c0.4,0,1.1-0.2,1.2,0.2
		c0.2,1,0.9,0.8,1.4,0.8c6.9,0,13.9,0,20.8,0c3.8,0,7.7,0,11.5,0c0.4,0,1,0.3,1.1-0.4c0.2-0.8,0.7-0.6,1.2-0.6c3.6,0,7.2,0,10.8,0
		c0,1.3-0.1,2.5-0.5,3.7c-3.2,0-6.5,0-9.7,0c-0.7,0-1.6,0.4-1.8-0.8c-0.1-0.3-0.5-0.2-0.8-0.2c-11.1,0-22.1,0-33.2,0
		c-0.3,0-0.8-0.1-0.8,0.3c-0.1,1-0.8,0.7-1.3,0.7c-8.8,0-17.5,0-26.3,0c-2.2,0-4.3,0-6.5,0c-0.3,0-0.9-0.2-0.9,0.3
		c-0.1,1.1-0.8,0.9-1.4,0.9c-7,0-14.1,0-21.1,0c-3.8,0-7.7,0-11.5,0c-0.4,0-1,0.2-1-0.5c0-0.7-0.4-0.7-0.8-0.7
		C57.3,133,52.7,133,48.1,133z"></path>
	<path d="M49.2,147.1c-0.1-1.3-0.2-2.5-0.2-3.7c4.2,0,8.5,0,12.7,0c0.4,0,1,0.3,1.1-0.3c0.1-0.8,0.6-0.7,1.1-0.7
		c2,0,3.9,0,5.9,0c8.9,0,17.9,0,26.8,0c0.4,0,1.1-0.3,1.1,0.3c0.2,1,0.8,0.7,1.3,0.7c7,0,14.1,0,21.1,0c3.8,0,7.6,0,11.4,0
		c0.4,0,1.1-0.3,1.2,0.4c0.1,0.8,0.6,0.7,1.1,0.7c4.2,0,8.4,0,12.6,0c6.7,0,13.3,0,20,0c0.4,0,1.1,0.3,1.2-0.4
		c0.1-0.8,0.6-0.7,1.1-0.7c3.2,0,6.4,0,9.6,0c-0.1,1.3-0.2,2.5-0.2,3.7c-3.1,0-6.2,0-9.3,0c-0.4,0-1,0.2-1-0.3
		c-0.1-1-0.8-0.8-1.4-0.8c-5.9,0-11.8,0-17.7,0c-4.9,0-9.7,0-14.6,0c-0.4,0-1.1-0.3-1.1,0.3c-0.1,1.1-0.9,0.8-1.4,0.8
		c-8,0-16,0-24,0c-2.9,0-5.8,0-8.6,0c-0.3,0-0.9-0.2-1,0.4c-0.1,0.9-0.7,0.6-1.1,0.6c-4.4,0-8.8,0-13.2,0c-6.5,0-13,0-19.5,0
		c-0.4,0-1,0.3-1.1-0.3c-0.1-0.9-0.7-0.7-1.2-0.7C57.5,147.1,53.3,147.1,49.2,147.1z"></path>
	<path d="M49.7,161.1c-0.3-1.2-0.1-2.5-0.1-3.7c4,0,8,0,12,0c0.4,0,1.1,0.3,1.1-0.4c0.1-1,0.7-0.8,1.3-0.8
		c6,0,11.9,0,17.9,0c4.9,0,9.8,0,14.7,0c0.4,0,1.1-0.3,1.1,0.3c0.1,1,0.7,0.8,1.3,0.8c5.7,0,11.4,0,17.1,0c5.2,0,10.3,0,15.5,0
		c0.4,0,1-0.3,1.1,0.3c0.1,0.9,0.8,0.7,1.3,0.7c5.9,0,11.9,0,17.9,0c4.9,0,9.8,0,14.6,0c0.4,0,1,0.3,1.1-0.3
		c0.1-0.8,0.6-0.7,1.1-0.7c3,0,5.9,0,8.9,0c0.1,1.2,0.1,2.5-0.1,3.7c-2.8,0-5.5,0-8.3-0.1c-0.7,0-1.6,0.4-1.8-0.8
		c0-0.3-0.5-0.2-0.8-0.2c-11,0-22.1,0-33.1,0c-0.3,0-0.8-0.1-0.8,0.3c-0.1,0.9-0.8,0.7-1.3,0.7c-7.5,0-14.9,0-22.4,0
		c-3.4,0-6.9,0-10.3,0c-0.3,0-0.9-0.2-0.9,0.3c-0.1,1.2-0.9,0.9-1.6,0.9c-10.6,0-21.3,0-31.9,0c-0.7,0-1.7,0.4-1.7-0.9
		c0-0.2-0.4-0.2-0.6-0.2C58,161.1,53.8,161.1,49.7,161.1z"></path>
	<path d="M49.4,231.1c0-1.3,0-2.5,0-3.8c4.1,0,8.2,0,12.2,0c0.4,0,1.1-0.3,1.1,0.4c0.1,1,0.7,0.8,1.3,0.8
		c5.7,0,11.4,0,17.1,0c5.2,0,10.3,0,15.5,0c0.4,0,1,0.2,1.1-0.2c0.1-1.3,1-0.9,1.7-0.9c10.7,0,21.4,0,32.1,0c0.4,0,1.1,0.2,1.2-0.2
		c0.2-1.1,1-0.8,1.6-0.8c5.7,0,11.4,0,17.1,0c5,0,10.1,0,15.1,0c0.4,0,1-0.3,1.1,0.3c0.1,0.8,0.6,0.7,1.1,0.7c3,0,6.1,0,9.1,0
		c0,1.3,0,2.5,0,3.8c-3,0-6.1,0-9.1,0c-0.4,0-0.9-0.2-1,0.3c-0.1,0.9-0.7,0.7-1.2,0.7c-3.6,0-7.1,0-10.7,0c-7.3,0-14.5,0-21.8,0
		c-0.4,0-1.1,0.3-1.2-0.4c-0.1-0.7-0.5-0.6-1-0.6c-1.6,0-3.3,0-4.9,0c-9.3,0-18.6,0-27.9,0c-0.4,0-1.1,0.3-1.1-0.3
		c-0.1-1.1-0.8-0.8-1.4-0.8c-10.1,0-20.1,0-30.2,0c-0.9,0-1.8,0-2.8,0c-0.3,0-0.7-0.1-0.7,0.4c0,0.9-0.6,0.7-1.1,0.7
		C57.6,231.1,53.5,231.1,49.4,231.1z"></path>
	<path d="M49.9,210c0-1.2,0-2.5,0-3.7c3.9,0,7.8,0,11.7,0c0.4,0,1-0.3,1.1,0.4c0.1,0.9,0.7,0.6,1.1,0.6
		c4.2,0,8.4,0,12.6,0c6.7,0,13.4,0,20.1,0c0.4,0,1,0.2,1.1-0.2c0.1-1.1,0.9-0.8,1.5-0.8c10.3,0,20.5,0,30.8,0c0.7,0,1.4,0,2,0
		c0.3,0,0.7,0,0.7-0.4c0-0.8,0.6-0.7,1.1-0.7c0.8,0,1.6,0,2.4,0c10.1,0,20.1,0,30.2,0c0.4,0,1.1-0.3,1.2,0.4
		c0.1,0.9,0.7,0.7,1.2,0.7c2.8,0,5.7,0,8.5,0c0,1.2,0,2.4,0,3.6c-2.9,0-5.8,0-8.6,0c-0.4,0-0.9-0.2-1,0.4c-0.1,0.9-0.7,0.8-1.3,0.8
		c-7.1,0-14.2,0-21.3,0c-3.8,0-7.5,0-11.3,0c-0.4,0-1,0.2-1-0.4c0-1-0.7-0.8-1.3-0.8c-3.4,0-6.7,0-10.1,0c-7.5,0-15,0-22.5,0
		c-0.4,0-1,0.2-1.1-0.2c-0.2-1.1-0.9-0.8-1.5-0.8c-1.2,0-2.5,0-3.7,0c-9.5,0-19.1,0-28.6,0c-0.4,0-1.1-0.3-1.1,0.3
		c-0.1,0.9-0.7,0.7-1.2,0.7C57.7,210,53.8,210,49.9,210z"></path>
	<path d="M49.9,203.1c-0.1-1.3-0.1-2.6,0-3.8c3.8,0,7.6,0,11.4,0.1c0.6,0,1.5-0.4,1.5,0.9c0,0.4,0.5,0.3,0.8,0.3
		c11.1,0,22.1,0,33.2,0c0.3,0,0.7,0.1,0.8-0.2c0.2-1.6,1.4-0.9,2.2-0.9c10.6,0,21.1,0,31.6,0c0.4,0,1.1,0.2,1.2-0.3
		c0.2-0.9,0.8-0.7,1.3-0.7c3.8,0,7.7,0,11.5,0c7,0,14,0,21,0c0.4,0,1.1-0.3,1.2,0.4c0.1,0.6,0.5,0.6,1,0.6c2.9,0,5.8,0,8.6,0
		c0.1,1.3,0.1,2.6,0,3.8c-2.9,0-5.8,0-8.8,0c-0.3,0-0.8-0.2-0.9,0.4c-0.1,0.7-0.5,0.7-1,0.7c-11,0-22,0-33,0c-0.3,0-0.8,0.1-0.8-0.3
		c-0.1-1-0.9-0.8-1.4-0.8c-5.6,0-11.2,0-16.8,0c-5.2,0-10.5,0-15.7,0c-0.4,0-1,0.2-1.1-0.2c-0.1-1.3-1-0.9-1.7-0.9
		c-8.8,0-17.5,0-26.3,0c-2,0-4.1,0-6.1,0c-0.4,0-1-0.2-1,0.4c0,0.9-0.6,0.7-1.2,0.7C57.8,203,53.8,203.1,49.9,203.1z"></path>
	<path d="M49.6,154.1c-0.5-1.2-0.3-2.4-0.2-3.7c4.1,0,8.2,0,12.3,0c0.4,0,1,0.2,1-0.4c0-1,0.7-0.8,1.3-0.8
		c10.9,0,21.7,0,32.6,0c0.2,0,0.4,0,0.6,0c0.3,0,0.6,0.1,0.6,0.4c0,0.9,0.6,0.7,1.1,0.7c3.4,0,6.9,0,10.3,0c7.5,0,14.9,0,22.4,0
		c0.4,0,1.1-0.3,1.2,0.4c0.1,0.7,0.5,0.6,1,0.6c11,0,22.1,0,33.1,0c0.3,0,0.8,0.1,0.9-0.4c0.1-0.8,0.7-0.6,1.2-0.6c3,0,6,0,9,0
		c0,1.2,0.2,2.5-0.2,3.7c-3,0-5.9,0-8.9,0c-0.4,0-1,0.2-1.1-0.4c-0.1-0.7-0.6-0.6-1-0.6c-11,0-22,0-32.9,0c-0.3,0-0.8-0.1-0.8,0.2
		c-0.1,1-0.9,0.8-1.4,0.8c-5.5,0-11,0-16.5,0c-5.3,0-10.6,0-15.9,0c-0.4,0-1-0.2-1.1,0.2c-0.2,1.1-0.9,0.8-1.5,0.8
		c-4.6,0-9.2,0-13.8,0c-6.2,0-12.4,0-18.6,0c-0.4,0-1,0.3-1.1-0.3c-0.1-0.9-0.7-0.7-1.2-0.7C57.6,154.1,53.6,154.1,49.6,154.1z"></path>
	<path d="M49.7,217c0-1.2-0.2-2.5,0.1-3.7c4,0,7.9,0,11.9,0.1c0.4,0,1-0.3,1.1,0.3c0.1,0.8,0.7,0.6,1.1,0.6
		c4.8,0,9.5,0,14.3,0c6.2,0,12.3,0,18.4,0c0.4,0,1,0.3,1.1-0.3c0.1-0.8,0.6-0.7,1.1-0.7c4.7,0,9.3,0,14,0c6.2,0,12.5,0,18.7,0
		c0.4,0,1,0.2,1.1-0.2c0.2-1.2,1-0.8,1.7-0.8c10.4,0,20.9,0,31.3,0c0.8,0,1.9-0.5,2.2,0.9c0,0.1,0.5,0.1,0.8,0.1c3,0,5.9,0,8.9,0
		c0.3,1.2,0.1,2.4,0.1,3.6c-2.9,0-5.8,0-8.8,0c-0.4,0-1.1-0.2-1.1,0.4c-0.1,1-0.7,0.8-1.3,0.8c-7,0-14.1,0-21.1,0
		c-3.8,0-7.7,0-11.5,0c-0.4,0-1,0.2-1-0.5c-0.1-0.7-0.6-0.6-1-0.6c-1.4,0-2.8,0-4.2,0c-9.5,0-19,0-28.5,0c-0.4,0-1.1,0.3-1.2-0.4
		c-0.1-0.7-0.5-0.6-0.9-0.6c-0.4,0-0.9,0-1.3,0c-10.5,0-21,0-31.5,0c-0.4,0-1.1-0.3-1.2,0.3c-0.2,1-0.8,0.7-1.3,0.7
		C57.6,217,53.6,217,49.7,217z"></path>
	<path d="M49.6,224c0-1.2,0-2.4,0-3.5c4.2-0.3,8.4-0.1,12.6-0.1c0.3,0,0.5,0,0.5,0.3c0,1,0.7,0.8,1.2,0.8
		c6.2,0,12.4,0,18.6,0c4.7,0,9.3,0,14,0c0.4,0,1.1,0.3,1.1-0.3c0.1-1,0.7-0.8,1.3-0.8c6.8,0,13.7,0,20.5,0c4,0,8.1,0,12.1,0
		c0.4,0,1,0.3,1.1-0.4c0.1-0.7,0.5-0.7,1-0.7c11,0,22,0,33,0c0.3,0,0.8-0.1,0.8,0.3c0.1,1,0.8,0.8,1.4,0.8c2.9,0.1,5.8-0.1,8.6,0.1
		c0,1.2,0,2.4,0,3.5c-2.9,0-5.9,0-8.9,0c-0.4,0-1-0.2-1,0.3c-0.1,1-0.8,0.8-1.4,0.8c-9.9,0-19.8,0-29.7,0c-1,0-2,0-3,0
		c-0.3,0-0.8,0.1-0.8-0.4c0-0.9-0.7-0.7-1.2-0.7c-3.9,0-7.9,0-11.9,0c-6.9,0-13.8,0-20.7,0c-0.4,0-1.1,0.3-1.2-0.4
		c-0.1-0.7-0.6-0.6-1-0.6c-1.9,0-3.8,0-5.6,0c-9.1,0-18.1,0-27.2,0c-0.4,0-1-0.3-1.1,0.3c-0.2,0.9-0.7,0.7-1.3,0.7
		C57.6,224,53.6,224,49.6,224z"></path>
	<path d="M49.9,177.3c3.9,0,7.8,0,11.6,0c0.5,0,1.2-0.2,1.3,0.7c0.1,0.5,0.8,0.3,1.2,0.3c10.6,0,21.3,0,31.9,0
		c0.7,0,1.8-0.6,2,0.9c0,0.3,0.5,0.2,0.8,0.2c11,0,22.1,0,33.1,0c0.5,0,1,0.1,1-0.7c0.1-0.8,0.7-0.5,1.1-0.5c4.3,0,8.6,0,12.8,0
		c6.5,0,12.9,0,19.4,0c0.6,0,1.4,0.4,1.5-0.8c0-0.3,0.5-0.2,0.9-0.2c2.9,0,5.8,0,8.8,0c0,1.9,0,3.9,0,5.8c-2.9,0-5.8,0-8.6,0
		c-0.3,0-0.9,0.2-1-0.2c-0.2-1.1-0.9-0.8-1.6-0.8c-10.7,0-21.4,0-32.1,0c-0.4,0-1.1,0.2-1.2-0.3c-0.2-1.1-1-0.9-1.6-0.9
		c-10.7,0-21.3,0-32,0c-0.6,0-1.5-0.4-1.5,0.9c0,0.3-0.4,0.3-0.6,0.3c-0.4,0-0.7,0-1.1,0c-10.7,0-21.3,0-32,0
		c-0.4,0-1.1-0.2-1.2,0.3c-0.1,1-0.8,0.7-1.3,0.7c-3.9,0-7.8,0-11.6,0C49.8,181.2,49.8,179.3,49.9,177.3z"></path>
	<path d="M177.3,190.1c-2.8,0-5.7,0-8.5,0c-0.5,0-1.1,0.2-1.3-0.7c-0.1-0.6-0.7-0.3-1.1-0.3c-6.5,0-12.9,0-19.4,0
		c-4.4,0-8.8,0-13.2,0c-0.5,0-1.1,0.2-1.1-0.7c-0.1-0.6-0.6-0.5-1.1-0.5c-3,0-6.1,0-9.1,0c-7.8,0-15.7,0-23.5,0
		c-0.6,0-1.3-0.3-1.4,0.8c0,0.6-0.7,0.3-1.1,0.3c-5.9,0-11.7,0-17.6,0c-4.9,0-9.9,0-14.8,0c-0.6,0-1.3-0.3-1.4,0.7
		c-0.1,0.5-0.7,0.3-1,0.3c-3.9,0-7.8,0-11.7,0c-0.1-1.9-0.1-3.9,0-5.9c3.9,0,7.8,0,11.7,0c0.4,0,1-0.2,1,0.3c0.1,1,0.8,0.7,1.3,0.7
		c8.2,0,16.5,0,24.7,0c2.7,0,5.3,0,8,0c0.4,0,1-0.2,1,0.4c0,0.9,0.6,0.8,1.2,0.8c4.4,0,8.9,0,13.3,0c6.4,0,12.9,0,19.3,0
		c0.4,0,1.1,0.3,1.2-0.4c0.1-0.9,0.7-0.7,1.2-0.7c3.4,0,6.8,0,10.2,0c7.4,0,14.9,0,22.3,0c0.4,0,1,0.3,1.1-0.3
		c0.2-0.9,0.7-0.7,1.3-0.7c2.8,0,5.7,0,8.5,0C177.4,186.2,177.4,188.2,177.3,190.1z"></path>
	<path d="M49.9,169.2c0-2,0-4,0-6c4,0,7.9,0,11.9,0c0.4,0,1-0.3,1,0.4c0,0.9,0.6,0.7,1.1,0.7c3,0,6.1,0,9.1,0
		c7.9,0,15.7,0,23.6,0c0.4,0,1-0.3,1.1,0.3c0.1,0.9,0.7,0.7,1.2,0.7c4.3,0,8.7,0,13.1,0c6.5,0,13,0,19.5,0c0.4,0,1,0.3,1.1-0.3
		c0.1-0.9,0.8-0.7,1.3-0.7c5.3,0,10.6,0,15.8,0c5.6,0,11.1,0,16.7,0c0.4,0,1.1,0.3,1.2-0.4c0.1-0.8,0.6-0.7,1.1-0.7
		c2.9,0,5.8,0,8.6,0c0,2,0,4-0.1,5.9c-2.8,0-5.7,0-8.5,0c-0.4,0-1.1,0.2-1.1-0.4c-0.1-1-0.8-0.7-1.3-0.7c-8.8,0-17.5,0-26.2,0
		c-2.1,0-4.2,0-6.4,0c-0.4,0-0.9,0.2-1-0.4c-0.1-0.7-0.5-0.6-0.9-0.6c-11.1,0-22.1,0-33.2,0c-0.3,0-0.8-0.1-0.8,0.3
		c-0.1,1-0.8,0.7-1.3,0.7c-8.3,0-16.5,0-24.8,0c-2.6,0-5.3,0-7.9,0c-0.3,0-1-0.2-1,0.4c0,0.9-0.6,0.8-1.2,0.8
		C57.8,169.2,53.8,169.2,49.9,169.2z"></path>
	<path d="M177.3,176.1c-2.8,0-5.7,0-8.5,0c-0.4,0-1,0.2-1.1-0.3c-0.1-1.1-0.9-0.9-1.6-0.9c-10.7,0-21.3,0-32,0
		c-0.6,0-1.3,0.3-1.4-0.7c0-0.4-0.5-0.3-0.8-0.3c-11.1,0-22.1,0-33.2,0c-0.3,0-0.7-0.1-0.8,0.2c-0.1,1.3-1.1,0.8-1.7,0.8
		c-10.7,0-21.3,0-32,0c-0.6,0-1.4-0.3-1.4,0.9c0,0.5-0.7,0.3-1,0.3c-3.9,0-7.8,0-11.8,0c-0.1-2-0.1-4,0-6c3.9,0,7.8,0,11.7,0
		c0.4,0,1-0.2,1,0.3c0.1,1.1,0.8,0.8,1.4,0.8c10.7,0,21.3,0,32,0c0.7,0,1.6-0.4,1.7,0.8c0,0.3,0.5,0.2,0.8,0.2c11.1,0,22.1,0,33.2,0
		c0.3,0,0.8,0.1,0.8-0.3c0.1-1,0.8-0.7,1.3-0.7c7.9,0,15.7,0,23.6,0c3,0,6,0,9,0c0.4,0,0.9,0.2,1-0.4c0.1-0.9,0.7-0.8,1.2-0.8
		c2.8,0,5.7,0,8.5,0C177.3,172.2,177.3,174.2,177.3,176.1z"></path>
	<path d="M49.9,191.3c3.9,0,7.8,0,11.8,0c0.5,0,1.2-0.2,1.2,0.7c0,0.5,0.5,0.4,0.8,0.4c1.9,0,3.8,0,5.8,0
		c9,0,18.1,0,27.1,0c0.5,0,1.2-0.3,1.3,0.7c0,0.4,0.5,0.3,0.8,0.3c11.1,0,22.1,0,33.2,0c0.4,0,0.8,0,0.9-0.6
		c0.1-0.7,0.8-0.4,1.2-0.4c8.8,0,17.6,0,26.4,0c2.1,0,4.2,0,6.2,0c0.5,0,1,0.1,1.1-0.6c0.1-0.7,0.6-0.5,1-0.5c2.9,0,5.8,0,8.6,0
		c0.1,2,0.1,4,0,6c-0.2-0.1-0.5-0.1-0.7-0.1c-2.7,0-5.4,0-8,0c-0.3,0-0.9,0.2-0.9-0.3c-0.1-1-0.7-0.8-1.3-0.8c-5,0-10.1,0-15.1,0
		c-5.8,0-11.6,0-17.4,0c-0.4,0-1,0.3-1.1-0.3c-0.1-0.9-0.8-0.7-1.3-0.7c-4.9,0-9.8,0-14.7,0c-5.9,0-11.9,0-17.8,0
		c-0.4,0-1-0.2-1.1,0.2c-0.2,1.1-0.9,0.8-1.5,0.8c-1.6,0-3.1,0-4.7,0c-9.2,0-18.4,0-27.7,0c-0.4,0-1.1-0.3-1.2,0.4
		c-0.1,0.8-0.6,0.6-1.1,0.6c-2.5,0-5,0-7.4,0c-1.5,0-3-0.2-4.4,0.1C49.8,195.2,49.8,193.3,49.9,191.3z"></path>
</g>
</svg>
