<!--?xml version="1.0" encoding="utf-8"?-->
<!-- Generator: Adobe Illustrator 24.2.3, SVG Export Plug-In . SVG Version: 6.00 Build 0)  -->
<svg version="1.1" id="Camada_1" xmlns="http://www.w3.org/2000/svg" xmlns:xlink="http://www.w3.org/1999/xlink" x="0px" y="0px" viewBox="0 0 229 418" enable-background="new 0 0 229 418" xml:space="preserve">
<g onclick="select(this)" class="" id="gola-secundaria" fill="#801815">
	<path d="M116.381897,49.0477715c-0.833313,0.1792374-1.5540314,0.8447723-2.4916306,0.5762138
		c-0.2429886-0.8100166,0.0134811-1.5773506,0.2099228-2.3466339c0.9254532-3.6241417,2.5626907-6.9285126,4.5458755-10.0765305
		c4.071579-4.2816811,8.1088333-8.5966644,12.2260513-12.8340473c3.0537415-3.1428699,5.6721802-6.599184,7.8688354-10.3761835
		c0.8143311-1.4001684,1.7721558-2.7472076,2.0830841-4.3920069c0.7533875-1.2694387,1.0100403-2.6635509,1.0385284-4.116147
		c0.0198059-1.0104756-0.4715271-1.6589177-1.4058533-1.9923222c-1.0610199-0.3786092-2.1595917-0.5912797-3.2826538-0.5918701
		c-15.6694641-0.0082369-31.3389282-0.00945-47.0083847-0.0003197c-1.2024078,0.0007005-2.3825226,0.2080977-3.5079956,0.6614058
		c-0.7330017,0.2952342-1.1955872,0.8186088-1.2209396,1.6196523c-0.0457764,1.4464493,0.1008453,2.8654075,0.8091202,4.1703057
		c0.0213013,0.5789623,0.300766,1.0720949,0.5620575,1.5584946c2.38797,4.4450502,5.0850906,8.6672239,8.5695572,12.3653116
		c4.3810806,4.649662,8.9325867,9.1387711,13.1583099,13.9347115c2.2260818,3.3094826,3.8987961,6.8636017,4.8087921,10.7629395
		c0.1308823,0.5608521,0.1703644,1.0992241,0.0435715,1.6546783c-0.7916565,0.120388-1.4984818-0.1469536-2.1913986-0.4788055
		c-0.1619263-0.0887337-0.1609955-0.078743-0.3273773-0.2237511c0,0,0.0195007,0.0175781,0.0195007,0.0175819
		c-1.0149002-4.6100464-2.9440384-8.7701225-6.1842422-12.2461243c-2.6970062-2.8932724-5.4329224-5.751564-8.1998749-8.5781593
		c-3.83992-3.9226913-7.426918-8.0305252-10.2087784-12.8014402c-1.953331-3.3499784-3.538353-6.7904634-3.5216599-10.769886
		c0.3887329-1.9640388,2.3138046-3.5002825,4.8151779-3.8288832c1.3080978-0.1718415,2.6194916-0.2685983,3.9428711-0.2676472
		c14.7557983,0.0106048,29.5116043,0.0095289,44.2674103,0.0041322c1.6841431-0.000616,3.3609924,0.0772934,4.9909973,0.5180932
		c1.4780121,0.3996955,2.6998138,1.1730733,3.345108,2.6483269c0.7675629,2.8465242-0.0760956,5.4809065-1.2373657,7.9960232
		c-1.9331055,4.1867867-4.3998566,8.0750628-7.5047913,11.4869471c-4.1099091,4.5162182-8.3819962,8.8846245-12.5557861,13.343298
		C119.4875946,40.0241508,117.3455429,44.2388077,116.381897,49.0477715z"></path>
</g>
<g onclick="select(this)" class="" id="detalhe-punho" fill="#801815">
	<path d="M43.3154755,120.5660324c-1.4355507,0.9719238-3.1036453,1.2496643-4.7561264,1.4678955
		c-6.7249794,0.8881226-13.4724941,0.7420044-20.2071953,0.1770859c-5.0925493-0.4271774-10.1221333-1.2906342-15.0371294-2.7495346
		C2.2495277,119.1452103,1.2605952,118.665741,0.24,118.2521973c0-1.1193542,0-2.2387161,0-3.3580704
		c0.5486878-1.013916,0.4496389-2.1613922,0.6660056-3.2437286c0.1129808-0.5651779,0.0608322-1.1747894,0.4776655-1.6509933
		c0.5223107,0.3816452,1.097532,0.671875,1.7198904,0.8264084c1.7042122,0.4231491,3.402638,0.891655,5.1287928,1.1999283
		c3.7223806,0.6647568,7.3449764,1.8807755,11.1703939,1.9861069c1.8743458,0.0515976,3.7485161,0.1686249,5.6183205,0.3134079
		c3.6989613,0.2864227,7.4015083,0.1185532,11.1025429,0.1539001c1.9179955,0.0183182,3.7075233-0.4855804,5.4632797-1.1675491
		c0.3865089-0.150116,0.6609917-0.2605591,0.7769508,0.2810745
		C42.8564644,115.8936157,43.3439445,118.1943893,43.3154755,120.5660324z"></path>
	<path d="M184.629776,120.3339005c-0.2430878-2.2250748,0.3524628-4.353035,0.7284698-6.5097427
		c0.1014557-0.5819016,0.306015-0.7070084,0.8614807-0.5922012c5.6474152,1.1671143,11.3917694,0.9484406,17.0656738,0.6848907
		c8.0842285-0.3754807,15.92099-2.3513718,23.569519-5.0004501c0.3325653-0.1151886,0.6316833-0.326828,0.9463959-0.4935226
		c0.846756,1.1987991,0.5564423,2.6714325,0.9425964,3.9882355c0.2302704,0.7852707,0.0896912,1.6713486,0.2314148,2.4921799
		c0.2250977,1.3037643-0.4503174,1.8661575-1.5581207,2.2358398c-5.7537537,1.920105-11.6115112,3.3484344-17.6209106,4.2630234
		c-5.4544983,0.8301239-10.9163971,0.6914978-16.3850403,0.6551743c-2.4737091-0.0164337-4.9351349-0.3196335-7.3445587-0.9341354
		C185.5209961,120.9840088,184.999527,120.7955399,184.629776,120.3339005z"></path>
</g>
<g onclick="select(this)" class="" id="gola-terciaria" fill="#ffffff">
	<path d="M113.3881454,49.6254234c0.1267929-0.5554543,0.0873108-1.0938263-0.0435715-1.6546783
		c-0.909996-3.8993378-2.5827103-7.4534569-4.8089294-10.7629204c3.3700485-0.0023193,6.740242-0.0046616,10.1104202-0.0070076
		c-1.9831848,3.1480217-3.6204224,6.4523926-4.5458755,10.0765343c-0.1964417,0.7692833-0.4529114,1.5366173-0.2099228,2.3466339
		C113.7232819,49.6243935,113.5557098,49.6249084,113.3881454,49.6254234z"></path>
</g>
<g onclick="select(this)" class="" id="estampa-primaria" fill="#bf0811">
	<path d="M43.3154755,120.5660324c0.0284691-2.3716431-0.4590111-4.6724167-0.9516335-6.9733505
		c-0.1159592-0.5416336-0.3904419-0.4311905-0.7769508-0.2810745c-1.7557564,0.6819687-3.5452843,1.1858673-5.4632797,1.1675491
		c-3.7010345-0.035347-7.4035816,0.1325226-11.1025429-0.1539001c-1.8698044-0.144783-3.7439747-0.2618103-5.6183205-0.3134079
		c-3.8254175-0.1053314-7.4480133-1.3213501-11.1703939-1.9861069c-1.7261548-0.3082733-3.4245806-0.7767792-5.1287928-1.1999283
		c-0.6223583-0.1545334-1.1975796-0.4447632-1.7198904-0.8264084c1.7932036-9.4621811,2.67781-19.0589294,4.2438087-28.5559235
		c0.8441892-5.1195831,1.1583543-10.316803,2.2550154-15.4061127c1.7680922-8.2052307,4.5233822-15.9794159,9.6139402-22.7770844
		c2.0456562-2.7316666,4.3404846-5.240078,7.0205536-7.3503761c1.4273224-1.1238823,2.477396-2.6746292,4.1114101-3.5436478
		c3.6025047-1.9159126,7.2584648-3.7254333,11.0307045-5.28339c9.9449806-4.1073265,19.921032-8.1443062,29.3457184-13.3891525
		c2.0102844-1.118721,4.0503998-2.1454039,5.6226578-3.9533529c0.8873672-1.0203838,2.1224518-1.8366318,3.6931229-1.4204988
		c-2.0108643,1.1796284-2.439743,2.2058954-2.0199966,4.4530277c0.4275513,2.2889194,1.4937973,4.2651157,2.7723083,6.1657696
		c5.5502777,8.2511082,11.9080429,15.8050308,19.1893234,22.5971069c3.0789642,2.872097,6.4627762,5.1818428,10.3784943,6.7113991
		c0.7296219,0.2850113,1.4053192,0.7671661,2.2481384,0.6932755l-0.0195007-0.0175781
		c-0.0059357,0.2429848,0.1727142,0.2159576,0.3275986,0.2236862c0.6926956,0.3319168,1.3995209,0.5992584,2.1911774,0.4788704
		c0.1675644-0.000515,0.3351364-0.00103,0.5027008-0.0015411c0.9370193,0.2686615,1.6577377-0.3968735,2.4910507-0.5761108
		c0.8983688-0.3311958,1.796051-0.6642799,2.6952209-0.9932899c5.258667-1.92416,9.1676788-5.6882591,13.1161346-9.452404
		c5.9939117-5.7141266,11.0227661-12.2141247,15.7610931-18.9537144c1.4871521-2.1152267,2.7719421-4.3775358,3.2985382-6.9872799
		c0.372467-1.8458881-0.0813293-3.1546144-1.6365662-4.2228565c1.689743-0.0080633,2.787796,1.0322161,3.800415,2.1853056
		c0.3409882,0.3882942,0.6674042,0.7393484,1.116394,1.0329866c10.0146484,6.5494308,21.2131042,10.5967216,32.1548157,15.1745586
		c3.9646301,1.6587296,7.8813324,3.4354458,11.7173004,5.3391037c2.1572418,1.0705643,3.9098053,2.9785423,5.7968903,4.5659981
		c7.7440948,6.5144882,12.2818298,14.9835739,14.937027,24.5909424c1.0978088,3.9723244,1.9447174,8.0021782,2.3507385,12.0990181
		c0.5504456,5.5546799,2.1298981,10.8914719,3.243454,16.3265305c1.266861,6.1833954,2.1013794,12.4376221,3.0679626,18.6702042
		c-0.3147125,0.1666946-0.6138306,0.378334-0.9463959,0.4935226c-7.6485291,2.6490784-15.4852905,4.6249695-23.569519,5.0004501
		c-5.6739044,0.2635498-11.4182587,0.4822235-17.0656738-0.6848907c-0.5554657-0.1148071-0.760025,0.0102997-0.8614807,0.5922012
		c-0.3760071,2.1567078-0.9715576,4.284668-0.7284698,6.5097427c-0.4395447,0.8079529-0.2937622,1.7098999-0.3952789,2.5685043
		c-0.9904785,8.3778839-1.7196045,16.7745209-1.7455292,25.2196808c-0.0067596,2.2003479,0.0678711,4.3850098,0.5240631,6.5554199
		c0.4012146,1.9087219-0.0424194,3.824707-0.2053833,5.7289886c-0.1811066,2.1159973-0.2472534,4.2288055-0.1484985,6.3471375
		c0.1008301,2.1621704-0.1491394,4.3112488-0.201355,6.4654999c-0.0686493,2.8334503-0.1219788,5.6729736,0.1280365,8.5079346
		c0.1475372,1.6729126,0.0890656,3.3505859-0.0995636,5.0267944c-0.3490601,3.1017303,0.1976471,6.1180725,0.8823853,9.132782
		c1.6445313,7.2402039,1.376709,14.5228577,0.3382416,21.8097839c-0.3054504,2.1432648-0.3711243,4.2084198,0.33078,6.3557587
		c1.7736206,5.4257813,1.8118896,11.0058594,0.9376068,16.6037598c-0.2313843,1.4815369-0.2441101,2.924942,0.0944519,4.391922
		c0.8729248,3.7824249,0.4466705,7.6405487,0.6409302,11.4634857c0.3019714,5.9425049,0.6891174,11.8815613,1.4377136,17.7932434
		c0.2543182,2.0083618,0.2190552,4.0569458,0.2554779,6.0882263c0.0326843,1.8235168-0.3323059,2.3253479-2.0823517,2.8504028
		c-3.0059357,0.901886-6.1241455,1.1565552-9.2253571,1.4766541c-7.6871338,0.7934875-15.4048157,0.8653259-23.1230621,1.0100403
		c-11.2351074,0.2105713-22.4662933,0.6520691-33.7017746,0.8132324
		c-12.4784012,0.1789856-24.9356842-0.8466187-37.4157257-0.8479919
		c-8.3975601-0.0009155-16.7974777-0.1001892-25.1780052-0.7355652c-4.1490288-0.3145447-8.2845459-0.7521667-12.3531036-1.6717529
		c-0.1949997-0.0440674-0.3914108-0.0827026-0.5848618-0.1327515c-3.2452545-0.839325-3.60149-1.1888428-3.4040909-4.5171509
		c0.4607124-7.7680969,1.009407-15.5311584,1.5535927-23.2940521c0.142662-2.0351257,0.2767639-4.0680084,0.2285728-6.1076813
		c-0.0426178-1.8038025,0.03442-3.5982361,0.3603058-5.374054c0.4145927-2.2592163,0.4561462-4.5098877,0.1247139-6.7920074
		c-0.264679-1.8225403-0.3195381-3.6938171,0.1233063-5.4887848c0.676609-2.7424774,0.4015732-5.4645386,0.1611404-8.211441
		c-0.3064613-3.501236-0.7323151-6.9971313-0.5579529-10.5271454c0.2109222-4.2702332,1.2140503-8.371933,2.6384811-12.3757019
		c0.3826904-1.0757294,0.6632652-2.0986328,0.4853249-3.2543335c-0.1889801-1.2274475-0.1528969-2.4721222,0.079216-3.7011414
		c0.3070526-1.6258392,0.1913109-3.2480927,0.1103516-4.8917236c-0.1628189-3.3054199-0.1816635-6.6195679-0.195446-9.9303894
		c-0.0538597-12.9391785-0.0427551-25.8787994-0.1403427-38.817627c-0.0386467-5.1235809-0.9980011-10.1754761-1.512352-15.2625809
		C43.6579247,123.2591858,43.4763603,121.9136505,43.3154755,120.5660324z"></path>
	<path d="M118.6460648,37.2008209c-3.3701782,0.0023422-6.7403717,0.0046844-10.1104202,0.0070038
		c-4.2255859-4.7959595-8.777092-9.2850685-13.1581726-13.9347305c-3.4844666-3.6980877-6.1815872-7.9202614-8.5695572-12.3653116
		c-0.2612915-0.4863997-0.5407562-0.9795322-0.5622482-1.558548c3.0596466,0.2729836,6.1170883,0.5771656,9.1797791,0.813076
		c8.3534698,0.6434383,16.702774,1.4236479,25.0988083,0.8302774c6.7656326-0.4781485,13.5331192-0.9303112,20.2997818-1.3940048
		c-0.3109283,1.6447992-1.2687531,2.9918385-2.0830841,4.3920069c-2.1966553,3.7769995-4.815094,7.2333136-7.8688354,10.3761835
		C126.7548981,28.6041565,122.7176437,32.9191399,118.6460648,37.2008209z"></path>
</g>
<g onclick="select(this)" class="" id="estampa-secundaria" fill="#801815">
	<path d="M114.2978516,49.6699524c0.4772034,2.8284912-0.3813324,4.8420715-3.3761597,5.5823364
		c-0.2995529,0.0740356-0.6276627,0.2723083-0.6349411,0.644165c-0.0234528,1.1978455-0.0166168,2.3963928-0.0130768,3.594635
		c0.0008087,0.2732544,0.1934509,0.421814,0.4173813,0.5344543c0.1784363,0.0897827,0.3560181,0.1812744,0.5340729,0.2718201
		c3.1587677,1.6060791,3.1427383,1.6056824,3.0519333,5.1661682c-0.0154724,0.60672-0.18853,0.9881287-0.7591171,1.1851501
		c-0.1499023,0.0517578-0.2806702,0.164978-0.4321365,0.2052612c-2.3904572,0.6355896-3.2508774,2.1617126-2.8677216,4.5851746
		c0.1181946,0.7475891,0.2144089,1.3085022,0.9821854,1.5560608c0.0374374,0.012085,0.0686798,0.0451355,0.1062927,0.0546265
		c2.5734863,0.6494751,3.4100494,2.3048706,2.9944153,4.8546753c-0.121788,0.7471313-0.1945953,1.3066101-0.9781723,1.5370178
		c-0.0750656,0.0220947-0.1373291,0.0913696-0.2124939,0.1088257c-2.6221619,0.609314-3.248848,2.3702698-2.8836136,4.8053894
		c0.0951233,0.6342773,0.2504196,1.0548096,0.850235,1.2710876c0.0748215,0.0269775,0.1452942,0.0666809,0.2164612,0.1030579
		c3.1350327,1.6030884,3.1194382,1.6025085,2.9838943,5.2060547c-0.0214615,0.5704651-0.2177353,0.8828735-0.7187195,1.0912476
		c-0.4418411,0.1837769-0.8880615,0.3795166-1.2864456,0.6400452c-0.6554413,0.4286804-1.782753,0.4606934-1.9324722,1.2536011
		c-0.2256393,1.1950073-0.0647583,2.4646301-0.0477142,3.70224c0.0035934,0.260498,0.2297974,0.4069519,0.4440384,0.5250854
		c0.1748734,0.096405,0.3546448,0.184021,0.5329285,0.2742004c3.1494217,1.5928345,3.135994,1.5923157,3.0068817,5.1906128
		c-0.0198975,0.5544739-0.1728821,0.9129333-0.6937561,1.1072083c-0.1861115,0.0694275-0.3583069,0.1759949-0.5372009,0.2649231
		c-3.0706177,1.5267639-3.0633774,1.5261536-2.7982559,4.9491577c0.0341721,0.440979,0.1405869,0.7746887,0.5694199,0.9542847
		c0.1469421,0.061554,0.276535,0.1788635,0.4273682,0.2146606c2.8222351,0.6699524,3.4253693,2.6049194,3.04142,5.1783752
		c-0.0795441,0.5332031-0.1701584,0.9086914-0.6963196,1.1021423c-0.2236252,0.0822144-0.4294968,0.2125854-0.6436081,0.3207397
		c-2.9473724,1.4886475-3.0793762,1.7467957-2.6954575,5.0305786c0.046524,0.3979187,0.1708908,0.6858826,0.5468369,0.8442993
		c0.1471634,0.0620117,0.290741,0.132843,0.4341507,0.2032776c3.2618713,1.6026306,3.2482758,1.6019592,3.0459518,5.3013306
		c-0.0286636,0.5242004-0.2256775,0.7914124-0.6692429,0.9996948c-0.8681335,0.4076538-1.7036591,0.887146-2.581955,1.2698364
		c-0.6098709,0.2657471-0.7063141,0.6859131-0.7966309,1.2996521c-0.3594589,2.4425964,0.3044357,4.1741638,2.9165497,4.7922363
		c0.9183273,0.2172852,1.0298309,0.8920593,1.166153,1.7853088c0.3808136,2.4952393-0.5059204,4.01651-2.9339142,4.6659851
		c-0.9237442,0.2470703-1.0500946,0.88974-1.1691055,1.789917c-0.3011246,2.2775574,0.4410858,3.7378235,2.7043991,4.3372803
		c1.17453,0.3110962,1.2841339,1.1246033,1.4069519,2.2338867c0.2423859,2.1889954-0.398262,3.5836487-2.5894699,4.1544189
		c-1.2563095,0.3272705-1.4238663,1.2078247-1.5355377,2.41745c-0.1833954,1.9863586,0.4338608,3.1980286,2.3621597,3.7164459
		c1.4327927,0.3852234,1.6850281,1.3322906,1.7768021,2.7542725c0.1288986,1.9972687-0.4753876,3.187439-2.3908997,3.7022705
		c-1.4465332,0.3888092-1.9379272,1.3338013-1.7002029,2.7733612c0.083519,0.5056915,0.0407028,1.0387115,0.005249,1.5558014
		c-0.0384979,0.5616455,0.1806793,0.915451,0.7041321,1.1037445c0.1492157,0.0536804,0.2857285,0.1425171,0.428299,0.2147522
		c3.1841202,1.6141357,3.2791061,1.8168945,2.8961258,5.3757019c-0.0538254,0.5002289-0.3207321,0.676651-0.6878967,0.8572235
		c-0.7170715,0.3526917-1.4046555,0.7798157-2.14814,1.0605469c-0.916748,0.3461761-1.1213608,0.9246979-1.2351685,1.8850403
		c-0.2626572,2.216507,0.3733597,3.6832123,2.6370773,4.2578888c1.2106857,0.3073578,1.3558807,1.1493378,1.4808884,2.3141632
		c0.2385941,2.2233124-0.4752197,3.5666351-2.6524048,4.1211853c-1.2253494,0.312088-1.3625793,1.1739655-1.4747467,2.3397217
		c-0.1945801,2.0222168,0.4358215,3.2842255,2.4056168,3.8034668c1.4786606,0.389801,1.6768112,1.3725433,1.7195053,2.7723389
		c0.0533371,1.7488861-0.2487259,2.9701538-2.0885162,3.5422974c-0.6863937,0.2134705-1.7250748,0.4199677-1.8601608,1.1490479
		c-0.2288971,1.2354279-0.0889359,2.5414124-0.0756989,3.8174438c0.0026245,0.2520599,0.2478027,0.3952026,0.4682388,0.5050507
		c0.2146225,0.1069183,0.4203491,0.250412,0.6477814,0.3100586c2.4632797,0.6462708,3.2678299,2.2280731,2.893425,4.6902008
		c-0.1278381,0.840683-0.231163,1.4512024-1.0997467,1.7033234c-0.0376968,0.0109558-0.0711823,0.0360565-0.1069794,0.053833
		c-3.030838,1.5073547-3.0157166,1.5066681-2.8577957,4.942337c0.0259399,0.5644226,0.21521,0.9027405,0.7213821,1.0963135
		c0.1114502,0.0426483,0.2092361,0.1301422,0.3227615,0.1568604c2.6887741,0.6322174,3.3903275,2.4194794,3.0062408,4.953186
		c-0.0991898,0.6542969-0.155777,1.1600647-0.847847,1.3747253c-0.1128006,0.0349884-0.2137527,0.1078033-0.3206253,0.1622162
		c-3.0316849,1.5433197-3.0166245,1.5427094-2.8819885,4.9265442c0.0223236,0.5612183,0.2051086,0.8831635,0.7074509,1.1034851
		c0.5478058,0.2402649,1.0414734,0.6439972,1.6072464,0.7954407c1.5474777,0.4142151,1.6696014,1.4619598,1.7688751,2.8683167
		c0.1334686,1.8911133-0.4498138,2.977829-2.2441864,3.5606842c-0.6433029,0.2089539-1.6268692,0.390152-1.7365799,1.1083069
		c-0.1905365,1.2471619-0.0926437,2.5474243-0.0218658,3.8202057c0.0235672,0.4235382,0.5628738,0.583725,0.9241638,0.6750793
		c2.7161713,0.6868744,3.4689713,2.4796448,3.0437088,5.070343c-0.0997696,0.6077271-0.1557465,1.0801086-0.7941284,1.2868042
		c-0.1126633,0.036499-0.2142944,0.10672-0.3213043,0.1608582c-3.0486069,1.541748-3.0311356,1.5412292-2.9354401,4.894165
		c0.0174332,0.6108704,0.2068024,0.9854431,0.7687073,1.1836548c0.0749741,0.0264587,0.1414719,0.0810852,0.2175369,0.0997314
		c2.7829819,0.6828613,3.466156,2.568512,3.0645523,5.1695251c-0.0906525,0.5870972-0.2136993,0.9772949-0.7733231,1.1804199
		c-0.1493301,0.0541992-0.2800217,0.1682739-0.4315109,0.206665c-2.4982834,0.6332397-3.2524033,2.2744751-2.860611,4.7032166
		c0.1060181,0.6572266,0.1915283,1.1577454,0.869072,1.378418c0.0376053,0.0122375,0.0699692,0.0422058,0.1078491,0.0516663
		c2.7549744,0.6878357,3.5238724,2.5282898,3.08564,5.1550903c-0.0940552,0.5637817-0.1652679,0.9745483-0.7395706,1.2058105
		c-0.554451,0.2232971-1.0594101,0.5759888-1.6205521,0.7746582c-1.165329,0.4126587-1.9289398,1.0106812-1.6912994,2.4287109
		c0.1699142,1.0138245-0.6906509,0.7056885-1.2176132,0.7902832c-12.2625961-0.6505127-24.5408249-0.6416016-36.8142853-0.8524475
		c-8.2766418-0.1421814-16.5517311-0.3631287-24.7495384-1.6824951c-1.7746201-0.285614-3.5462303-0.6027832-5.2395744-1.2272644
		c-1.643486-0.6061707-1.9643936-1.0776672-1.9735985-2.8513184c-0.0198822-3.8304443,0.4712639-7.6323853,0.6606827-11.4500732
		c0.3523369-7.1011047,1.3221741-14.1684875,1.1614723-21.2979584c-0.0151939-0.6740265,0.0366821-1.3721619,0.1989746-2.0238953
		c0.9282684-3.7278137,0.1729317-7.4740448,0.1884842-11.2111359c0.0036354-0.8739166,0.0565376-1.771759,0.2606926-2.6166382
		c1.0150681-4.2007446,0.0184441-8.353363-0.3221359-12.503006c-0.5198631-6.3341827,0.3630142-12.4281616,2.5425568-18.3565063
		c0.3822021-1.0395966,0.5989799-2.0353241,0.4651031-3.1416779c-0.17342-1.4331055-0.0918159-2.8673096,0.1413994-4.2995605
		c0.1340027-0.822937,0.2605553-1.6851196,0.160511-2.5014954c-0.4340935-3.5421143-0.1359634-7.0986176-0.2646027-10.6467133
		c-0.2182808-6.0202637-0.0702553-12.0505524-0.1761093-18.0786285c-0.1226997-6.9873047,0.1174927-13.98349,0.0350418-20.9764099
		c-0.0619011-5.2495422-0.9570389-10.4206848-1.503582-15.6244202c-0.1582108-1.5064087-0.3699951-3.0071716-0.5571747-4.5105591
		c-0.0072708-2.3778076-0.4417686-4.7103577-0.7484818-7.0567932c-0.1663055-3.2758789-0.8290825-6.4925537-1.16539-9.7461548
		c-0.8341026-8.0695801-3.2618256-15.6893005-6.6040535-23.0180969c-1.2059975-2.6445313-1.9050789-5.3092957-1.9985962-8.1784058
		c-0.1370926-4.2061462,0.2135849-8.4094238-0.0561447-12.6219482c-0.2457619-3.8383179-0.6817722-7.6506042-1.1505566-11.4616699
		c-0.2288818-1.8607788-0.5024529-3.7233887-0.9027996-5.5530396c-0.250391-1.1443481,0.1051407-1.6134949,1.1613121-2.0155029
		c4.6691246-1.7771606,9.4739723-3.0811462,14.3038292-4.3202209c11.1927567-2.8714905,22.0236969-6.6201477,31.781044-13.0180969
		c0.9849777-0.645874,1.9160538-1.592926,3.2616043-1.5679321c-0.0000076,0,0.2141647-0.0711346,0.2141647-0.0711346
		c-0.0403137,0.1716194,17.2178497,19.5022411,19.476532,21.5249577c3.0172958,2.7020874,6.5372772,4.2579155,10.3568802,5.4708061
		l0.237175,0.1524734c0.181221,0.2544861,0.1465149,0.0786858,0.5040054,0.2159996
		c0.7753677,0.2978172,1.0717163,0.1314507,1.387764,0.1199989
		C113.5667953,49.4855309,114.0475311,49.5745888,114.2978516,49.6699524z"></path>
	<path d="M111.6295395,286.5986023c-0.391655-0.1048279-0.9827728,0.0198364-0.9429016-0.6404114
		c0.03759-0.622406-0.3636017-1.3838196,0.4773254-1.8034668c0.9605484-0.4793091,1.9223328-0.9564514,2.8748932-1.4512329
		c0.321991-0.1672668,0.5978241-0.1217041,0.899498,0.0401917c0.455101,0.2442932,0.9024963,0.5344238,1.3905106,0.6801758
		c1.6429367,0.4907837,2.1268082,1.5811768,1.7544785,3.1661072
		C115.9320831,286.5928345,113.7808151,286.5957031,111.6295395,286.5986023z"></path>
	<path d="M114.6696548,152.8374634c0.1683731-0.6199036-0.3485489-1.4741669,0.3197556-1.8904419
		c1.0765076-0.6705475,2.2815247-1.6010895,3.4177856-1.5815582c1.1884079,0.0204315,2.4740295,0.8835907,3.4971771,1.6657715
		c0.6505051,0.4972839,0.2032166,1.5803986,0.2325287,2.3974304c0.0174866,0.4872284,0.2868347,1.1555939-0.2391739,1.4498291
		c-1.1413956,0.6384583-2.2655945,1.5753021-3.542244,1.6204987c-0.8804474,0.0311584-1.7547607-0.8937836-2.6958618-1.1840057
		C114.2070694,154.8670807,114.8375473,153.7385712,114.6696548,152.8374634z"></path>
	<path d="M122.1637726,178.4431458c-0.1188507,0.5661926,0.3215942,1.4092255-0.2266159,1.7705078
		c-1.0881958,0.7171326-2.3230591,1.6637878-3.4999771,1.6674805c-1.1757813,0.0036926-2.4677582-0.8811493-3.491745-1.6611328
		c-0.6550293-0.4989471-0.2050629-1.5787659-0.2366638-2.3948364c-0.018898-0.4878082-0.282074-1.1532135,0.2299347-1.4520416
		c1.1285248-0.6585693,2.2617416-1.5723267,3.5322571-1.6319122c0.873497-0.0409393,1.7540894,0.8753357,2.6907349,1.1845398
		C122.5557404,176.3858948,122.0634232,177.4807739,122.1637726,178.4431458z"></path>
	<path d="M122.2000198,165.6078949c-0.1952972,0.7033386,0.3290787,1.5585327-0.3385391,1.9754639
		c-1.0772095,0.672699-2.2755432,1.586319-3.4239578,1.5880737c-1.1465454,0.0017548-2.3793716-0.8703156-3.414032-1.5896454
		c-0.7675858-0.5336761-0.2571182-1.5686951-0.3099136-2.3737335c-0.0341568-0.520462-0.3035049-1.2262573,0.2785339-1.5582733
		c1.1057358-0.6307526,2.2814026-1.572464,3.429245-1.5741882c1.1483154-0.0017242,2.3518906,0.9012909,3.4284897,1.5723724
		C122.576416,164.1008453,121.9357758,165.0049744,122.2000198,165.6078949z"></path>
	<path d="M122.1897125,140.2007599c-0.1669312,0.6895752,0.3237228,1.5532837-0.3050919,1.9614716
		c-1.0901566,0.7076874-2.2845459,1.6882019-3.5102768,1.621933c-1.168129-0.0631409-2.3894119-0.8802643-3.3945618-1.6255951
		c-0.7021637-0.5206451-0.2303772-1.5711823-0.268158-2.3800964c-0.0242386-0.5193329-0.2987442-1.2136383,0.2944794-1.5460815
		c1.1067276-0.6202087,2.2841492-1.5802155,3.4170914-1.559906c1.1871796,0.0213013,2.4265442,0.9238281,3.5055237,1.6463928
		C122.5007782,138.7019958,122.0143051,139.597641,122.1897125,140.2007599z"></path>
	<path d="M114.6860886,241.766098c0.1684189-0.5928802-0.3923416-1.4888916,0.3158798-1.9396057
		c1.0683365-0.6799316,2.2060013-1.6000214,3.4306107-1.5850677c1.2214279,0.0149384,2.4093628,0.8631592,3.4141617,1.6152191
		c0.7585678,0.5677643,0.2173004,1.6468506,0.286911,2.4919586c0.0393753,0.4781799,0.2826843,1.1324463-0.277298,1.4361725
		c-1.1185989,0.60672-2.207901,1.5297089-3.44561,1.572876c-0.8879318,0.0309448-1.7747421-0.8400269-2.7149277-1.146759
		C114.3765488,243.7805023,114.7345352,242.7548981,114.6860886,241.766098z"></path>
	<path d="M122.1804504,76.7080002c-0.1843262,0.6691284,0.3677216,1.5653-0.3409805,2.0157928
		c-1.0686569,0.6792831-2.2379074,1.6353073-3.4259415,1.5647736c-1.1776428-0.0699081-2.4019089-0.8624268-3.4202652-1.5953979
		c-0.7247009-0.5216064-0.2382202-1.5735474-0.2811432-2.3834c-0.0276489-0.5214157-0.2992096-1.2197952,0.2838745-1.5555191
		c1.1020813-0.6345444,2.2466507-1.6249695,3.435524-1.5521698c1.1785889,0.0721741,2.3604431,0.9121094,3.4329529,1.5866776
		C122.5120239,75.1960526,122.0212936,76.0591278,122.1804504,76.7080002z"></path>
	<path d="M114.6864624,63.9525108c0.1324997-0.567688-0.3472443-1.4269714,0.2739639-1.8430634
		c1.0520706-0.7046661,2.1980896-1.5975266,3.4193649-1.6151085c1.2728882-0.0183334,2.4900894,0.8710327,3.5142288,1.6530037
		c0.6635284,0.5066338,0.2093887,1.578167,0.2422867,2.3928719c0.0196609,0.4870987,0.2885056,1.1511688-0.2395935,1.4523087
		c-1.1056595,0.6304855-2.2343979,1.376442-3.4447479,1.6167374c-0.9160385,0.1818542-1.7601471-0.8424377-2.7061081-1.1309891
		C114.3626022,66.0563431,114.7343292,64.9755325,114.6864624,63.9525108z"></path>
	<path d="M122.1895218,254.4371643c-0.1527939,0.7136078,0.3119354,1.5894165-0.2941589,1.9910583
		c-1.0851746,0.7191467-2.288208,1.6887512-3.5286102,1.6060791c-1.1788864-0.0786133-2.4130707-0.8647156-3.4083862-1.6215515
		c-0.6704254-0.5097656-0.2106323-1.5818787-0.2507477-2.3990936c-0.0242081-0.493103-0.2680969-1.1692657,0.2335892-1.4617767
		c1.0986099-0.6405029,2.2557449-1.5233917,3.4319611-1.5942383c1.2361984-0.0744324,2.4415512,0.8921356,3.5268631,1.6123352
		C122.5132446,252.9768524,121.9925537,253.855072,122.1895218,254.4371643z"></path>
	<path d="M114.6789627,267.0455017c0.1653976-0.583313-0.3630066-1.4339294,0.3436432-1.8469238
		c1.0935745-0.6390991,2.2293015-1.6470642,3.4344025-1.5415649c1.1869278,0.1039124,2.4168549,0.8654175,3.4123917,1.6217651
		c0.7270279,0.5523376,0.199173,1.6529236,0.2671356,2.5040588c0.0356979,0.4470215,0.2601929,1.0698242-0.2135086,1.342926
		c-1.1343765,0.6539612-2.2572937,1.5910339-3.5445709,1.6220093c-0.8916931,0.0214539-1.7748413-0.8370667-2.7115402-1.1569519
		C114.2853851,269.1190491,114.7869492,268.0125732,114.6789627,267.0455017z"></path>
	<path d="M122.177887,127.503479c-0.1430969,0.6565094,0.326622,1.5310974-0.2682419,1.9334717
		c-1.0803223,0.7307434-2.2911301,1.6968842-3.5190659,1.6416016c-1.1685028-0.0526276-2.4059296-0.8654175-3.4054794-1.6190033
		c-0.7386475-0.5569-0.2077789-1.651413-0.2746964-2.5009155c-0.0379105-0.4812927-0.2613831-1.116272,0.3017502-1.4340973
		c1.1084213-0.6255493,2.2447739-1.6347961,3.434166-1.5496445c1.1798401,0.0844421,2.353569,0.9381027,3.4232178,1.6213379
		C122.5164185,126.0094299,122.0169983,126.8685837,122.177887,127.503479z"></path>
	<path d="M114.6723099,89.2981644c0.1393051-0.5907898-0.3115616-1.4164963,0.2814407-1.7903137
		c1.0714188-0.6754227,2.2466888-1.5184097,3.4261856-1.5994644c1.2440414-0.085495,2.4814835,0.8549194,3.5090561,1.6317291
		c0.6719055,0.5079575,0.2131958,1.579155,0.2466812,2.3941193c0.0198822,0.4839096,0.2889404,1.1336594-0.2413254,1.4478683
		c-1.0952148,0.6490021-2.187355,1.4907837-3.4315033,1.6334076c-0.9948349,0.1140366-1.8420639-0.8710785-2.8192673-1.1945496
		C114.2377014,91.3555756,114.8226318,90.2178879,114.6723099,89.2981644z"></path>
	<path d="M114.6502075,279.9128418c0.177063-0.7059631-0.3137741-1.5533752,0.3330688-1.9767151
		c1.0597-0.6935425,2.2090302-1.5950012,3.4253159-1.5864258c1.2628098,0.0088501,2.5046539,0.8560791,3.506279,1.6655579
		c0.6306305,0.5096436,0.1961594,1.585083,0.2232361,2.4038391c0.0161591,0.4882507,0.2767181,1.1465149-0.2591629,1.4475403
		c-1.1089554,0.6229248-2.2605057,1.5055237-3.4377441,1.5777283c-1.1871109,0.0728149-2.3560791-0.8775635-3.4177856-1.5720215
		C114.2960815,281.3966064,114.8940353,280.5151672,114.6502075,279.9128418z"></path>
	<path d="M122.177681,102.1270752c-0.1525879,0.649025,0.3379974,1.5364838-0.2681274,1.927536
		c-1.0929947,0.7051773-2.3202057,1.5560532-3.5315552,1.6233673c-1.1712265,0.0650787-2.4056702-0.8267593-3.3904037-1.6131821
		c-0.7026215-0.5611115-0.2372971-1.5825424-0.2751083-2.3932571c-0.0241241-0.5172577-0.3000565-1.1967773,0.3057327-1.5444794
		c1.101059-0.632019,2.2221832-1.5667496,3.4465942-1.5274124c1.2191162,0.0391541,2.3740234,0.8964539,3.4206619,1.6091156
		C122.5024414,100.6288528,122.02845,101.4821014,122.177681,102.1270752z"></path>
	<path d="M122.1536865,203.8210449c-0.1282959,0.5417023,0.3521576,1.3947296-0.2710571,1.817688
		c-1.0809326,0.7336121-2.2966919,1.6881866-3.5224304,1.6254272c-1.1681824-0.0598297-2.3974533-0.8856812-3.3947144-1.644165
		c-0.6821136-0.5188141-0.2147751-1.5795746-0.2562027-2.3940735c-0.0248184-0.4877777-0.2741928-1.1491394,0.2504959-1.4520111
		c1.1014709-0.6357574,2.2239914-1.4026489,3.430397-1.6341705c0.9006805-0.1728668,1.7502518,0.8625183,2.6991806,1.1449127
		C122.4728241,201.6963654,122.1257629,202.767746,122.1536865,203.8210449z"></path>
	<path d="M122.1645813,229.1927795c-0.1434479,0.5830994,0.3437729,1.4326019-0.2914963,1.8544159
		c-1.0557404,0.7010345-2.2065201,1.5750732-3.4253159,1.6011963c-1.2225037,0.0261688-2.3993912-0.8401642-3.4244766-1.5709381
		c-0.7665482-0.546524-0.2521744-1.5657501-0.3101578-2.367569c-0.037735-0.5217896-0.289093-1.2096558,0.2721252-1.5652008
		c1.0755234-0.6813202,2.1993332-1.5322571,3.4254074-1.6066742c0.8723221-0.0529175,1.7645874,0.8500214,2.7050781,1.1435089
		C122.5161743,227.1185303,122.0862045,228.2042084,122.1645813,229.1927795z"></path>
	<path d="M122.1610336,191.1535339c-0.1084213,0.5492096,0.3157196,1.4030609-0.2088089,1.7524567
		c-1.081192,0.7201233-2.2959824,1.6002045-3.5009079,1.6734619c-1.212738,0.0737457-2.4705505-0.8504791-3.4843674-1.6472168
		c-0.6785736-0.5332642-0.213974-1.5760651-0.2585068-2.3870239c-0.0268402-0.4885864-0.2658539-1.1481628,0.2426376-1.4528503
		c1.1195145-0.6708069,2.247467-1.5866699,3.5154572-1.6532593c0.8707275-0.0457153,1.7551193,0.8616486,2.6897812,1.1751099
		C122.5352478,189.0766754,122.0842819,190.1612701,122.1610336,191.1535339z"></path>
	<path d="M122.1738968,216.3586578c-0.129837,0.6552124,0.3260269,1.5517273-0.2475357,1.9407501
		c-1.0796051,0.7322235-2.3202667,1.6512756-3.5101929,1.6748657c-1.1335526,0.0224304-2.3764191-0.8731079-3.4034958-1.6013641
		c-0.7523422-0.533432-0.2495804-1.5717468-0.2996902-2.3787842c-0.0322418-0.5192413-0.3004761-1.2269135,0.2933273-1.5491791
		c1.1177444-0.6066589,2.2206268-1.7026825,3.4143677-1.593399c1.2228317,0.1119385,2.4319382,0.9640656,3.5222168,1.6816559
		C122.4842072,214.8895111,122.0476456,215.740036,122.1738968,216.3586578z"></path>
	<path d="M122.1726913,114.7970657c-0.1254501,0.6477432,0.3246994,1.5434952-0.2505569,1.9266739
		c-1.0841446,0.7221756-2.3300018,1.6267242-3.5198898,1.6432037c-1.1371765,0.0157394-2.393631-0.8607407-3.3993988-1.6106262
		c-0.7531357-0.5615463-0.2272873-1.6516495-0.2921371-2.5007782c-0.0368042-0.4818344-0.2694016-1.1339188,0.287735-1.4371643
		c1.1179352-0.6085129,2.3018723-1.5728836,3.4363708-1.54319c1.1924591,0.0312119,2.4234695,0.9569016,3.5092239,1.6834183
		C122.4762039,113.3146896,122.0576324,114.1696014,122.1726913,114.7970657z"></path>
	<path d="M118.1396561,70.4812622c-0.1409912,0.5767288,0.3498993,1.4351273-0.2764359,1.8536835
		c-1.0516052,0.7027588-2.2006989,1.5979843-3.4208679,1.5962296c-1.2664185-0.0018234-2.4719849-0.8871994-3.5121155-1.6545181
		c-0.6585236-0.4857941-0.2199478-1.5008316-0.2496262-2.2738419c-0.0200958-0.5236435-0.2994232-1.2245178,0.277916-1.5570984
		c1.1020432-0.6348495,2.234581-1.4422531,3.4330215-1.6069183c0.8277283-0.113739,1.7571793,0.8261032,2.6952744,1.1261673
		C118.4608002,68.4044724,118.0831223,69.4738312,118.1396561,70.4812622z"></path>
	<path d="M118.1413651,108.516098c-0.1174622,0.6017151,0.3344269,1.4948578-0.2393112,1.8827591
		c-1.0432434,0.7053375-2.2341232,1.5294724-3.410408,1.6089554c-1.2378006,0.0836334-2.4489288-0.8724594-3.5114517-1.6118927
		c-0.7197266-0.5008698-0.2561569-1.493515-0.2985001-2.2606506c-0.0289536-0.5245743-0.3010178-1.2430267,0.2532425-1.5643539
		c1.1303864-0.6553345,2.3029556-1.4585419,3.538681-1.6339111c0.8179932-0.1160812,1.7445068,0.8479385,2.6789093,1.1589203
		C118.4748306,106.5360107,118.0676117,107.5702057,118.1413651,108.516098z"></path>
	<path d="M118.1427689,121.2664642c-0.1302872,0.5929794,0.3308411,1.4444885-0.274498,1.8670654
		c-1.0361786,0.7233353-2.2129593,1.5655746-3.4226913,1.5712433c-1.2597275,0.0059128-2.4697342-0.8727112-3.5015717-1.6520309
		c-0.6654358-0.502594-0.2234116-1.4986267-0.2660217-2.2697144c-0.0271912-0.4921875-0.269989-1.1722107,0.2155151-1.4625778
		c1.1219101-0.67099,2.2780075-1.4470367,3.5187988-1.702652c0.888382-0.1830292,1.7504959,0.838501,2.6905823,1.1347656
		C118.4861526,119.18853,118.0665894,120.2812958,118.1427689,121.2664642z"></path>
	<path d="M118.1413193,260.8894958c-0.1696472,0.6019592,0.385994,1.494751-0.3269424,1.9406738
		c-1.0689087,0.6685791-2.2235184,1.6347961-3.4228363,1.5341797c-1.1828003-0.0992737-2.3913498-0.8744507-3.4111404-1.6016541
		c-0.7338104-0.5232239-0.2502594-1.5680237-0.3011703-2.3755798c-0.0306778-0.4867249-0.2724152-1.1520996,0.2397232-1.4516907
		c1.1260376-0.6586609,2.251503-1.5784607,3.530014-1.6227417c0.8851166-0.0306396,1.7696075,0.8329773,2.7056961,1.1416016
		C118.4765167,258.8900452,118.0701981,259.9274292,118.1413193,260.8894958z"></path>
	<path d="M118.1334229,172.0912933c-0.1302032,0.552597,0.3529968,1.413269-0.2757568,1.8269348
		c-1.0532761,0.6929626-2.2079544,1.6199951-3.4075241,1.5854645c-1.2406769-0.0357361-2.4725494-0.8664856-3.5121155-1.6455078
		c-0.6403961-0.4799042-0.2433472-1.4254608-0.2561417-2.156189c-0.009819-0.5609131-0.3260803-1.3078308,0.2850266-1.6656342
		c1.0933609-0.6401215,2.2228546-1.3851929,3.4272079-1.614624c0.9008789-0.1716156,1.7977295,0.7200317,2.6889343,1.1519318
		C118.142128,170.0869446,118.1333771,170.1049805,118.1334229,172.0912933z"></path>
	<path d="M118.1519775,248.1543884c-0.1717606,0.6461487,0.3700027,1.5471039-0.3450699,1.9828186
		c-1.077179,0.6563416-2.2299347,1.6598358-3.4222031,1.5399323c-1.220787-0.1228027-2.4537735-0.9309082-3.4977798-1.6909943
		c-0.5970459-0.4346619-0.1851196-1.4293365-0.2094269-2.1682434c-0.0174942-0.5316315-0.2748642-1.2322845,0.2526932-1.5736847
		c1.0967178-0.7097321,2.2665482-1.5402374,3.5314331-1.618988c0.8714447-0.0542603,1.7664566,0.8317108,2.7035751,1.1350098
		C118.5057983,246.1940918,118.0402908,247.2494812,118.1519775,248.1543884z"></path>
	<path d="M118.1397095,57.770031c-0.1386414,0.576828,0.3452911,1.4293976-0.2617874,1.853817
		c-1.0345459,0.7232857-2.2032623,1.550209-3.4150162,1.5890923c-1.269165,0.0407181-2.4737778-0.8557205-3.5091629-1.6198997
		c-0.7081985-0.5227051-0.2270279-1.569355-0.2736053-2.3770981c-0.0277176-0.4806976-0.2783279-1.1265373,0.2673035-1.436409
		c1.132988-0.6434479,2.2371826-1.5997391,3.5296783-1.6051865c0.8996353-0.0037918,1.776947,0.8196411,2.7099838,1.1407318
		C118.4983749,55.7663345,118.0599289,56.8141747,118.1397095,57.770031z"></path>
	<path d="M118.1442413,83.1735687c-0.1456451,0.5930176,0.3458023,1.4530869-0.2802811,1.8645172
		c-1.0532608,0.6921463-2.2020416,1.6123505-3.4103928,1.5822906c-1.2476273-0.0310364-2.4830475-0.8463211-3.5015945-1.652771
		c-0.6676636-0.5286179-0.2376175-1.5021515-0.2716446-2.2718658c-0.0231171-0.5229416-0.2944794-1.2255936,0.2815781-1.5526657
		c1.1024704-0.6259689,2.2321167-1.3772659,3.4370728-1.592514c0.8911438-0.1592026,1.7654877,0.8168869,2.6998062,1.1192474
		C118.4803772,81.1169128,118.0665207,82.1936874,118.1442413,83.1735687z"></path>
	<path d="M118.1495056,222.7849579c-0.1375427,0.6238098,0.3313522,1.4932709-0.2765274,1.895462
		c-1.05159,0.6957397-2.2046204,1.3420715-3.4076691,1.674118c-1.04702,0.2890015-3.895134-1.9217072-3.7767792-2.7549591
		c0.1316757-0.9269409-0.5098038-2.0988617,0.290657-2.7346344c1.0042419-0.7976227,2.2322311-1.5955963,3.5067215-1.6461182
		c0.8817978-0.0349426,1.7673874,0.8408203,2.7031403,1.1557007
		C118.5254822,220.8242493,118.0302277,221.8874207,118.1495056,222.7849579z"></path>
	<path d="M118.139534,95.9117432c-0.1510239,0.5682373,0.356308,1.4160843-0.2961349,1.8379288
		c-1.059433,0.6850128-2.1949387,1.6009445-3.4188614,1.5677719c-1.2631912-0.0342484-2.4679108-0.8928299-3.4992371-1.6700897
		c-0.6540833-0.4929352-0.2054214-1.4965973-0.2464218-2.2670441c-0.0260696-0.4898834-0.2736206-1.1491013,0.2097931-1.4631653
		c1.0957794-0.7119141,2.2430725-1.5186234,3.5238495-1.6606827c0.9350662-0.1037216,1.7723465,0.8286591,2.711647,1.1247025
		C118.520134,93.8211212,118.0579376,94.9188156,118.139534,95.9117432z"></path>
	<path d="M118.1587753,273.5039063c-0.1804504,0.6723328,0.3633804,1.5694885-0.335022,2.0148315
		c-1.0623322,0.6774597-2.1941376,1.5997009-3.4234695,1.5602112c-1.2677231-0.0406799-2.4641724-0.9103394-3.4875946-1.6956482
		c-0.6373978-0.4891357-0.1978912-1.5002747-0.2342911-2.2733154c-0.0230331-0.4892883-0.2726059-1.1466675,0.2240982-1.4581604
		c1.1059036-0.6934509,2.262413-1.6211853,3.5235138-1.6221008c1.2128372-0.000885,2.362999,0.8812561,3.4241409,1.5632935
		C118.4974136,272.0090332,117.9890213,272.8626404,118.1587753,273.5039063z"></path>
	<path d="M118.1727905,235.3884735c-0.1906509,0.7263947,0.3508072,1.6388245-0.3660049,2.060791
		c-1.0848541,0.6385803-2.2368774,1.61203-3.4341812,1.5106812c-1.1819611-0.1000824-2.3907013-0.8748932-3.4069672-1.6049805
		c-0.7262344-0.5217133-0.2346191-1.5652466-0.2847672-2.3707275c-0.0299072-0.4805145-0.284729-1.138031,0.2548447-1.4387512
		c1.138504-0.634552,2.2482224-1.634903,3.5264587-1.6188965c1.2262344,0.0153503,2.3720398,0.8796997,3.4120712,1.592926
		C118.4903488,233.9420166,117.9642563,234.8008575,118.1727905,235.3884735z"></path>
	<path d="M110.7121658,133.6928711c0.1317291-0.4990082-0.4062958-1.3153076,0.2073441-1.6978149
		c1.1055374-0.6891174,2.3063431-1.5469818,3.5229492-1.6449432c1.1808548-0.0950775,2.3082809,0.9384308,3.4144592,1.5572662
		c0.5009384,0.2802582,0.297821,0.8826447,0.2583084,1.3260498c-0.0786743,0.882843,0.4708099,2.0176697-0.3163452,2.5984955
		c-0.9999847,0.7378387-2.1502151,1.6026306-3.4020844,1.5946808c-0.9012833-0.005722-1.7674866-0.8556366-2.7035294-1.1654358
		C110.3098373,135.8033142,110.7359085,134.7344971,110.7121658,133.6928711z"></path>
	<path d="M118.1389389,184.7523956c-0.1341248,0.5760193,0.3475342,1.4464417-0.2716217,1.8493042
		c-1.0561142,0.6872101-2.2408295,1.5410309-3.4062576,1.5965118c-1.2256927,0.0583954-2.4449615-0.89328-3.5028534-1.6354065
		c-0.6887283-0.483139-0.2403641-1.4921875-0.2783966-2.2611237c-0.0259933-0.5255585-0.2851486-1.2303314,0.2767944-1.5589905
		c1.0947571-0.6403046,2.2254028-1.4442749,3.4206238-1.610733c0.8279648-0.1152954,1.7583618,0.8222198,2.6976852,1.1125031
		C118.4611282,182.6728668,118.0837021,183.7429504,118.1389389,184.7523956z"></path>
	<path d="M110.6988449,197.2081451c0.1541748-0.5437927-0.3819351-1.3503418,0.2387161-1.7441559
		c1.0990143-0.6973114,2.2538757-1.6201324,3.5209885-1.6378326c1.2270432-0.0171204,2.3208237,0.9528046,3.4146271,1.5931396
		c0.4820099,0.2821655,0.2762604,0.8873291,0.2437973,1.3365479c-0.0616379,0.852951,0.4422607,1.9618835-0.2472076,2.5062714
		c-0.9741745,0.7692108-2.1904373,1.4348907-3.3917465,1.6492462c-0.944046,0.1684723-1.8203659-0.8787537-2.8001251-1.1819916
		C110.2581482,199.289917,110.7902756,198.177536,110.6988449,197.2081451z"></path>
	<path d="M118.1335297,146.7589111c-0.1433258,0.5442352,0.3627548,1.3948669-0.3260574,1.805191
		c-1.0856094,0.646698-2.2345657,1.3213654-3.4440536,1.5872955c-1.1419601,0.2510834-3.7930679-1.8681946-3.6782379-2.7147827
		c0.1259308-0.9284058-0.4981537-2.1154785,0.2743607-2.7329254c0.9981232-0.7977753,2.2201233-1.6150055,3.4938202-1.675354
		c0.8776093-0.0415649,1.8020859,0.7351074,2.6922302,1.1732483
		C118.139595,144.6908112,118.1330109,144.7041626,118.1335297,146.7589111z"></path>
	<path d="M110.7012787,210.0109253c0.1318665-0.5726624-0.3403778-1.4202271,0.2769547-1.854538
		c1.0363541-0.7290955,2.1962357-1.5900421,3.4100876-1.6209717c1.2185059-0.0310516,2.4428177,0.7882538,3.4234467,1.5608673
		c0.7564774,0.5960083,0.2311859,1.7221832,0.3058014,2.6076965c0.0380249,0.4512177,0.2269974,1.0583344-0.2576294,1.3368225
		c-1.1022949,0.6334381-2.211937,1.5157013-3.4550781,1.537262c-0.8957214,0.0155334-1.7745056-0.8445282-2.7154465-1.1408844
		C110.3451538,212.0137787,110.7549286,210.9814758,110.7012787,210.0109253z"></path>
	<path d="M110.6669083,159.346344c0.1723251-0.7119293-0.3190994-1.5777893,0.3179092-1.9881897
		c1.0636826-0.6852722,2.2362823-1.5198822,3.4177704-1.6154022c1.1964645-0.0967407,2.3982315,0.8324432,3.4077454,1.5704956
		c0.7666321,0.5604858,0.2368546,1.6471252,0.3022079,2.4936829c0.0370636,0.4801788,0.2734528,1.1264801-0.2723618,1.4400177
		c-1.1022568,0.633194-2.2154999,1.5844269-3.4368591,1.5671234c-1.2168732-0.0172577-2.3478699-0.9300232-3.4111252-1.6153107
		C110.3345718,160.7749023,110.8920898,159.916275,110.6669083,159.346344z"></path>
	<path d="M116.1931839,49.0941124c0.9252701-0.2984543,1.8505402-0.5969124,2.7752304-0.8951225
		c1.1135406-0.0409622,1.9135666,0.7246933,2.8566513,1.1206741c0.353775,0.1485367,0.3138504,0.5088463,0.3340759,0.8316689
		c0.1871643,2.9884949,0.1671829,2.9457703-2.4663315,4.3299828c-0.9181137,0.4825706-1.6109848,0.3649139-2.5565033,0.0286179
		c-2.0022736-0.7121544-2.8897781-1.8968697-2.4550934-4.0107193c0.0545654-0.2653542-0.015274-0.5562592-0.0276108-0.8352394
		C115.1667099,49.4740753,115.6799469,49.2840958,116.1931839,49.0941124z"></path>
</g>
<g onclick="select(this)" class="" id="gola-primaria" fill="#bf0811">
	<path d="M116.381897,49.0477715c0.9636459-4.8089638,3.1056976-9.0236206,6.4560394-12.6026421
		c4.17379-4.4586735,8.4458771-8.8270798,12.5557861-13.343298c3.1049347-3.4118843,5.5716858-7.3001604,7.5047913-11.4869471
		c1.1612701-2.5151167,2.0049286-5.1494989,1.2373657-7.9960232c1.0215149,0.579803,1.5800476,1.6334033,2.4385681,2.3822198
		c0.9803619,0.8550615,1.8003998,1.9075398,3.041687,2.4371476c1.5554199,1.0682402,2.0092163,2.3769665,1.6367493,4.2228546
		c-0.5265961,2.6097441-1.8113861,4.8720531-3.2985382,6.9872799c-4.738327,6.7395897-9.7671814,13.2395878-15.7610931,18.9537144
		c-3.9484558,3.7641449-7.8574677,7.528244-13.1161346,9.452404
		C118.177948,48.3834915,117.2802658,48.7165756,116.381897,49.0477715z"></path>
	<path d="M82.7743149,4.5448394c-0.0166931,3.9794221,1.5683289,7.4199071,3.5216599,10.769886
		c2.7818604,4.770915,6.3688583,8.8787489,10.2087784,12.8014402c2.7669525,2.8265953,5.5028687,5.6848869,8.1998749,8.5781593
		c3.2402039,3.4760017,5.169342,7.6360779,6.1842422,12.2461243c-0.8428192,0.0738869-1.5185165-0.408268-2.2481384-0.6932793
		c-3.9157181-1.5295563-7.29953-3.8393021-10.3784943-6.7113991c-7.2812805-6.7920761-13.6390457-14.3459988-19.1893234-22.5971069
		c-1.278511-1.9006538-2.3447571-3.8768501-2.7723083-6.1657696c-0.4197464-2.2471323,0.0091324-3.2733994,2.0199966-4.4530277
		c1.2253876-0.542841,2.0059662-1.6151767,2.9658661-2.4759879C81.7761993,5.4046993,82.0902557,4.761116,82.7743149,4.5448394z"></path>
	<path d="M140.8240356,9.5985832c-6.7666626,0.4636936-13.5341492,0.9158564-20.2997818,1.3940048
		c-8.3960342,0.5933704-16.7453384-0.1868391-25.0988083-0.8302774c-3.0626907-0.2359104-6.1201324-0.5400925-9.1797791-0.813076
		c-0.7080841-1.3048449-0.8547058-2.723803-0.8089294-4.1702523c0.0253525-0.8010435,0.4879379-1.3244181,1.2209396-1.6196523
		c1.125473-0.4533081,2.3055878-0.6607053,3.5079956-0.6614058c15.6694565-0.0091302,31.3389206-0.0079172,47.0083847,0.0003197
		c1.1230621,0.0005903,2.2216339,0.2132609,3.2826538,0.5918701c0.9343262,0.3334045,1.4256592,0.9818466,1.4058533,1.9923222
		C141.8340759,6.9350324,141.5774231,8.3291445,140.8240356,9.5985832z"></path>
</g>
</svg>
