<!--?xml version="1.0" encoding="utf-8"?-->
<!-- Generator: Adobe Illustrator 24.2.3, SVG Export Plug-In . SVG Version: 6.00 Build 0)  -->
<svg version="1.1" id="Camada_1" xmlns="http://www.w3.org/2000/svg" xmlns:xlink="http://www.w3.org/1999/xlink" x="0px" y="0px" viewBox="0 0 229 418" enable-background="new 0 0 229 418" xml:space="preserve">
<g onclick="select(this)" class="" id="gola-primaria" fill="#021c3b">
	<path d="M109.3256989,35.9207878c-0.1734467,0.532753-0.5917358,0.2743607-0.9039154,0.2516022
		c-4.1043777-0.299221-7.9513092-1.505722-11.6402817-3.2895241c-5.3551407-2.5894814-10.2299652-5.8816833-14.3707428-10.1524506
		c-2.6511154-2.734333-4.9007111-5.7867432-5.7837296-9.6242762c-0.2346497-1.0197554-0.4030762-2.0421906-0.2305679-3.0806484
		c0.1655655-0.9966812,0.9428787-1.529851,1.6987534-2.062746c0.5144196-0.0249214,0.9029312-0.3084855,1.2525024-0.6408176
		c0.9263763-0.8806958,2.0002518-1.6613083,2.7274628-2.6858997c2.0422745-2.8774152,5.0195923-3.6035271,8.2394028-3.9384618
		c3.0734558-0.3197089,6.1407471,0.0640202,9.2119827,0.0276009c4.3973541-0.0521445,8.7971802,0.0443054,13.1931534-0.0513445
		c7.9102249-0.1721148,15.8182297,0.0474188,23.7272263,0.0364116c0.9124146-0.0012698,1.828537,0.1745476,2.7369537,0.3088157
		c2.2481232,0.332287,4.1498718,1.1915944,5.5701294,3.1200867c1.2012482,1.6310925,2.6129456,3.1247711,4.4388733,4.1271977
		c1.6919098,0.471426,2.2952423,2.5105724,1.6758423,4.7444515c-1.1704712,4.2214594-3.5445099,7.6803961-6.6416321,10.6471872
		c-2.7457275,2.6302032-5.8013458,4.901825-9.102417,6.8089809c-4.071167,2.3520851-8.2753143,4.4175797-12.9284058,5.3568268
		c-1.3970261,0.2819977-2.8357391,0.3577576-4.2551346,0.5281792c0.4981461-1.1476097,1.3241043-2.0655403,2.1212006-3.0007629
		c2.248703-2.6383533,4.9448242-4.810585,7.4805527-7.1498508c2.1459198-1.6623192,4.2819519-3.3376217,6.4404449-4.9834862
		c2.392868-1.8246021,4.6131897-3.8312626,6.5503387-6.1364632c1.4909363-1.7742386,2.8118439-3.6581097,3.6611938-5.995595
		c-2.0445251,0.171031-3.9476471,0.3502245-5.8538818,0.4858923c-5.379715,0.3828764-10.7599335,0.7590179-16.1413574,1.1168613
		c-5.5895386,0.3716831-11.1788483,0.4153547-16.7722092,0.018959c-7.1327515-0.5054932-14.2606812-1.060936-21.3717041-1.816123
		c-0.7256699-0.0770664-0.9725952,0.1089544-0.6669769,0.8316221c0.5152588,1.2184,1.126152,2.3757305,1.9132462,3.447176
		c3.9235306,5.3410435,9.441452,8.9155712,14.446228,13.0588207
		C103.1151276,29.2874451,106.6069336,32.222599,109.3256989,35.9207878z"></path>
</g>
<g onclick="select(this)" class="" id="detalhe-lateral" fill="#801815">
	<path d="M180.3169098,283.9697266c-0.3938751-5.0127869-0.5727386-10.0362244-0.8100586-15.0577393
		c-0.282486-5.9776611-0.5378265-11.9543762-0.7411346-17.9355164c-0.1653748-4.8657379-0.3150482-9.7320404-0.4851532-14.597168
		c-0.2554474-7.3048248-0.3230438-14.611908-0.5149689-21.9160767c-0.4473877-17.026535-0.1677856-34.0520782-0.1540527-51.0777435
		c0.0038757-4.8250732,0.1699829-9.658493,0.4935303-14.4725189c0.3222656-4.7945404,0.6694794-9.5894623,1.1401062-14.3773499
		c0.9476013-9.6400223,2.522995-19.1615753,4.9313965-28.5371094c1.2419739-4.834877,2.7194824-9.608345,4.7613068-14.1821518
		c0.1013336-0.2270203,0.0921478-0.5706024,0.4303741-0.6598129l-0.0207214-0.0194473
		c0.2196045,0.4597931-0.0706329,0.8524323-0.1864014,1.2576218c-1.8860931,6.6003571-3.1680298,13.3224106-4.0814209,20.1194611
		c-0.4264069,2.5465698-0.4257202,5.1188202-0.4629211,7.688797c-1.2378235,10.3072052-2.2989655,20.6278992-1.9510498,31.0315857
		c0.0821381,2.4562225,0.7914734,4.8716583,0.4144745,7.3699951c-0.3516235,2.3302765-0.4445953,4.684967-0.4245453,7.0450745
		c0.0559845,6.582428,0.098587,13.1757202-0.1155396,19.7438812c-0.1456757,4.4695435,0.7072906,8.6924438,1.4236298,12.9963837
		c0.8506927,5.1109314,0.9480896,10.2349701,0.2398224,15.3761444c-0.3209076,2.3293762-0.54039,4.6726532-0.8144379,7.008606
		c-0.0490723,0.4181976,0.1008759,0.7893066,0.2301788,1.1618195c1.989563,5.7316895,2.4832916,11.6064911,1.5848999,17.5875092
		c-0.3058167,2.0359802-0.3425293,4.0207977,0.0992279,6.0381927c0.4457397,2.035675,0.5504761,4.1139832,0.5100098,6.1976929
		c-0.1430817,7.3665771,0.683609,14.670929,1.384079,21.9852905c0.2195892,2.2928162,0.3340759,4.5978088,0.3145142,6.9078064
		c-0.0094452,1.1127625-0.4973297,1.8139954-1.5031281,2.1914368
		C184.1745911,283.5326233,182.2864838,283.9595947,180.3169098,283.9697266z"></path>
	<path d="M42.4525146,112.7778625c0.0891304-1.9299164-0.3513565-3.8075333-0.5991211-5.7007065
		c-0.3732796-2.8522339-0.8833809-5.6866074-1.2544365-8.5390854c-0.0882454-0.6783676-0.8202057-1.239563-0.2923431-2.1296234
		c0.9014931,1.8765564,1.3568306,3.8127823,1.9383469,5.6982117c1.892025,6.1343842,3.1134682,12.4154968,4.1846809,18.7393494
		c0.7700386,4.5458832,1.3809853,9.100647,1.8283081,13.6878357c0.4091072,4.1953125,0.7145462,8.3927002,0.9685097,12.6003418
		c1.2914009,21.395874,0.6496124,42.8105927,0.6577225,64.2175446c0.0015144,3.9883881-0.0966606,7.98703-0.1893997,11.9799347
		c-0.1455345,6.2663422-0.2806168,12.5340118-0.535202,18.7964172c-0.1799202,4.4257202-0.3308334,8.8512878-0.473175,13.2781372
		c-0.1807213,5.6206055-0.3782196,11.2443237-0.7604179,16.8535767c-0.2574959,3.7790527-0.196804,7.579834-0.7390556,11.3394775
		c-1.7242279-0.0837708-3.3719635-0.5368042-4.9835625-1.1030884c-1.6184654-0.5686951-2.0121346-1.1141663-1.9840698-2.8423157
		c0.0452156-2.7842407,0.1874161-5.5641479,0.4140472-8.3428955c0.431675-5.2928772,0.7171974-10.5978699,1.1692505-15.8888245
		c0.4074936-4.7694855-0.0650482-9.592804,0.9218788-14.3255157c0.1883888-0.9033813,0.0964546-1.8375397-0.042675-2.744751
		c-0.4781952-3.1182098-0.3503647-6.2133179,0.3311234-9.2835846c0.1949081-0.8781128,0.1388702-1.7289124,0.0771484-2.6109161
		c-0.2841988-4.0611115-0.8382988-8.1011047-0.8580627-12.1838684c-0.0239258-4.942688,1.0864563-9.6556549,2.7438126-14.2636871
		c0.3171997-0.881958,0.5332336-1.7270813,0.4237556-2.675354c-0.1839256-1.5931854-0.141243-3.1873627,0.1506195-4.7743683
		c0.1077003-0.5856476,0.1623573-1.1927948,0.1462173-1.7875824c-0.1308823-4.8229065-0.2779045-9.645401-0.4356956-14.4675293
		c-0.0367355-1.1227112,0.0765038-2.2321014,0.1623611-3.3472748c0.144268-1.8738251,0.1034241-3.7475739-0.048111-5.6235199
		c-0.4092598-5.0663605-0.1779556-10.145752-0.0681305-15.2097778c0.196312-9.0511017-0.2082138-18.0476379-1.5041733-27.0064316
		c-0.2226868-1.5393982-0.3748512-3.0890045-0.5595245-4.6338654c0.5152626-1.2158585-0.2161751-2.3334808-0.3642349-3.4790726
		C42.6969795,115.5973511,42.9329262,114.1476212,42.4525146,112.7778625z"></path>
</g>
<g onclick="select(this)" class="" id="detalhe-punho" fill="#801815">
	<path d="M0.24,114.41436c0.5066518-1.0333099,0.4623487-2.1853943,0.7029477-3.2761536
		c0.1164828-0.5280762,0.0638708-1.1035385,0.4705237-1.5418396c4.7471166,1.9192047,9.661128,3.2643356,14.739399,3.8523865
		c5.6213551,0.6509323,11.2752342,0.8683701,16.9397697,0.6843262c2.350296-0.076355,4.6895752-0.1641083,7.0189934-0.5657349
		c0.8487549-0.1463318,1.4449158-0.8912582,2.3408813-0.7894821c0.4804115,1.3697586,0.2444649,2.8194885,0.4263916,4.2271881
		c0.1480598,1.1455917,0.8794975,2.2632141,0.3643112,3.4790955c-2.841095,1.3330917-5.9081955,1.7382584-8.9673958,1.7949448
		c-7.0645809,0.130928-14.1399384,0.3043518-21.1575737-0.9066238c-3.6142483-0.6236801-7.2130728-1.2875977-10.7040243-2.4304047
		c-0.7462479-0.2443008-1.4505816-0.6164856-2.1742241-0.9297638C0.24,116.8129883,0.24,115.613678,0.24,114.41436z"></path>
	<path d="M184.6167908,120.2029724c0.0372009-2.5699768,0.0365143-5.1422272,0.4629211-7.688797
		c0.9396362,0.5695877,1.9786682,0.9036407,3.0544434,0.9562988c5.6075439,0.2745056,11.228775,0.5989304,16.8232422-0.0108337
		c3.9904938-0.4349365,7.9450073-1.161026,11.8859558-1.9935684c3.0928345-0.6533813,6.000824-1.8692627,9.0736084-2.5406494
		c0.6487732-0.1417542,1.2501068-0.5003433,1.873291-0.7590942c1.0290527,2.4653549,1.3149261,5.0500107,1.1316986,7.6846695
		c-0.0435181,0.6258698-0.7669983,0.7556763-1.2712555,0.942894c-3.2154999,1.1938553-6.5277557,2.0655441-9.8517761,2.8920898
		c-8.3978119,2.0882339-16.9433594,2.4642563-25.539505,2.1048508c-1.8251953-0.0763016-3.6426392-0.4177322-5.4543915-0.6971664
		C186.0230713,120.9730606,185.2617188,120.7066879,184.6167908,120.2029724z"></path>
</g>
<g onclick="select(this)" class="" id="gola-secundaria" fill="#801815">
	<path d="M127.5429077,26.2013435c-2.5357285,2.3392677-5.2318497,4.5114994-7.4805527,7.1498528
		c-0.7970963,0.9352226-1.6230545,1.8531532-2.1212006,3.0007591c-2.3132095,0.5602531-4.6457596,0.380825-6.9806519,0.1973152
		c-0.6160583-0.0484238-1.1409073-0.2847061-1.6344376-0.6280861c-2.7191315-3.6985855-6.2109375-6.6337395-9.5777512-9.6924343
		c2.8338776-0.0287647,5.6676941-0.0822201,8.5014725-0.080719
		C114.6808319,26.1514378,121.1118698,26.1818867,127.5429077,26.2013435z"></path>
</g>
<path d="M189.3682404,91.1565399c0.0375671-0.1338425,0.0751343-0.2676697,0.1127014-0.4015045
	c0.0261383,0.028389,0.072525,0.0551529,0.0749512,0.0854416c0.012146,0.1519699,0.0203705,0.3102493-0.208313,0.2966614
	C189.3475342,91.1370926,189.3682556,91.1565399,189.3682404,91.1565399z"></path>
<g onclick="select(this)" class="" id="estampa-primaria" fill="#021c3b">
	<path d="M42.4525146,112.7778625c-0.8959656-0.1017761-1.4921265,0.6431503-2.3408813,0.7894821
		c-2.3294182,0.4016266-4.6686974,0.4893799-7.0189934,0.5657349c-5.6645355,0.1840439-11.3184147-0.0333939-16.9397697-0.6843262
		c-5.0782709-0.5880508-9.9922829-1.9331818-14.739399-3.8523865c1.6968609-8.914566,2.4887414-17.9633636,4.0001216-26.9052277
		c0.8855782-5.2393951,1.1788788-10.5595551,2.2399788-15.7781677c1.7292542-8.504673,4.4516625-16.5878448,9.6675148-23.6606789
		c2.1221428-2.8776779,4.5377884-5.4906731,7.3400173-7.7103424c1.3638763-1.0803337,2.3639584-2.5835495,3.9253693-3.4050064
		c3.6099453-1.8991852,7.2583332-3.7276974,11.0324497-5.2813187c9.9905014-4.1125946,20.000515-8.1803665,29.4651909-13.4415846
		c1.9752426-1.0979939,3.9976349-2.0948963,5.5164642-3.8997173c0.8439026-1.0028076,2.0582657-1.6470857,3.4946365-1.5515785
		c-0.7558746,0.5328951-1.5331879,1.0660648-1.6987534,2.062746c-0.1725082,1.0384579-0.0040817,2.0608931,0.2305679,3.0806484
		c0.8830185,3.837533,3.1326141,6.8899431,5.7837296,9.6242762c4.1407776,4.2707672,9.0156021,7.5629692,14.3707428,10.1524506
		c3.6889725,1.783802,7.5359039,2.990303,11.6402817,3.2895241c0.3121796,0.0227585,0.7304688,0.2811508,0.9042816-0.2512054
		c0.4935303,0.34338,1.0183792,0.5796623,1.6344376,0.6280861c2.3348923,0.1835098,4.6674423,0.3629379,6.9804306-0.1974907
		c1.4196167-0.1702423,2.8583298-0.2460022,4.2553558-0.5279999c4.6530914-0.9392471,8.8572388-3.0047417,12.9284058-5.3568268
		c3.3010712-1.907156,6.3566895-4.1787777,9.102417-6.8089809c3.0971222-2.9667912,5.4711609-6.4257278,6.6416321-10.6471872
		c0.6194-2.2338791,0.0160675-4.2730255-1.6763763-4.744153c1.9420929-0.322947,3.1181183,0.8977289,4.248703,2.1526375
		c0.3474121,0.3856363,0.6847076,0.7271471,1.1279755,1.0213566c8.8716431,5.8886719,18.7898102,9.6126652,28.5267792,13.6823082
		c5.0673981,2.11796,10.038208,4.4440956,15.0911713,6.5874882c0.2853394,0.1210365,0.5591431,0.2838707,0.8124237,0.4636726
		c11.9666901,8.4952011,19.1779327,20.08321,21.3682709,34.4821701c1.7443542,11.4671555,4.7389374,22.6825333,6.318634,34.166687
		c0.3372803,2.4519806,0.734375,4.8957443,1.1039429,7.3433762c-0.6231995,0.2587509-1.2245331,0.6173401-1.8733063,0.7590942
		c-3.0727844,0.6713867-5.9807739,1.8872681-9.0736084,2.5406494c-3.9409485,0.8325424-7.895462,1.5586319-11.8859558,1.9935684
		c-5.5944672,0.6097641-11.2156982,0.2853394-16.8232422,0.0108337c-1.0757751-0.0526581-2.1148071-0.3867111-3.0544434-0.9562912
		c0.9133911-6.7970581,2.1953278-13.5191116,4.0814209-20.1194687c0.1157684-0.4051895,0.4060059-0.7978287,0.1864471-1.257576
		c0.2286835,0.013588,0.220459-0.1446915,0.208313-0.2966614c-0.0024261-0.0302887-0.0488129-0.0570526-0.0749512-0.0854416
		c-0.0375671,0.1338348-0.0751343,0.267662-0.1127014,0.4015045c-0.3382111,0.0892105-0.3290253,0.4327927-0.4303589,0.6598129
		c-2.0418243,4.5738068-3.5193329,9.3472748-4.7613068,14.1821518c-2.4084015,9.3755341-3.9837952,18.8970871-4.9313965,28.5371094
		c-0.4706268,4.7878876-0.8178406,9.5828094-1.1401062,14.3773499c-0.3235474,4.8140259-0.4896545,9.6474457-0.4935303,14.4725189
		c-0.0137329,17.0256653-0.293335,34.0512085,0.1540527,51.0777435c0.191925,7.3041687,0.2595215,14.6112518,0.5149689,21.9160767
		c0.170105,4.8651276,0.3197784,9.7314301,0.4851532,14.597168c0.2033081,5.9811401,0.4586487,11.9578552,0.7411346,17.9355164
		c0.2373199,5.0215149,0.4161835,10.0449524,0.8100586,15.0577393c-7.654129,1.0699463-15.3581696,1.3612976-23.0732422,1.4522095
		c-12.9472198,0.1525879-25.8881531,0.5621033-38.8301086,0.9285583c-6.7608643,0.1914368-13.4958496-0.465271-20.2470093-0.5768127
		c-8.7105942-0.1439209-17.4220123-0.2460938-26.1319199-0.4232483c-8.3101959-0.1690063-16.6230583-0.3526306-24.8476982-1.7511597
		c0.5422516-3.7596436,0.4815598-7.5604248,0.7390556-11.3394775c0.3821983-5.6092529,0.5796967-11.2329712,0.7604179-16.8535767
		c0.1423416-4.4268494,0.2932549-8.852417,0.473175-13.2781372c0.2545853-6.2624054,0.3896675-12.5300751,0.535202-18.7964172
		c0.0927391-3.9929047,0.1909142-7.9915466,0.1893997-11.9799347c-0.00811-21.4069519,0.6336784-42.8216705-0.6577225-64.2175446
		c-0.2539635-4.2076416-0.5594025-8.4050293-0.9685097-12.6003418c-0.4473228-4.5871887-1.0582695-9.1419525-1.8283081-13.6878357
		c-1.0712128-6.3238525-2.2926559-12.6049652-4.1846809-18.7393494c-0.5815163-1.8854294-1.0368538-3.8216553-1.9383469-5.6982117
		c-0.5278625,0.8900604,0.2040977,1.4512558,0.2923431,2.1296234c0.3710556,2.852478,0.8811569,5.6868515,1.2544365,8.5390854
		C42.1011581,108.9703293,42.5416451,110.8479462,42.4525146,112.7778625z"></path>
	<path d="M127.5429077,26.2013454c-6.4310379-0.0194588-12.8620758-0.0499077-19.2931213-0.0533142
		c-2.8337784-0.0015011-5.6675949,0.0519543-8.5014725,0.080719c-5.0048599-4.1429901-10.5227814-7.7175179-14.446312-13.0585613
		c-0.7870941-1.0714455-1.3979874-2.228776-1.9132462-3.447176c-0.3056183-0.7226677-0.0586929-0.9086885,0.6669769-0.8316221
		c7.1110229,0.755187,14.2389526,1.3106298,21.3717041,1.816123c5.5933609,0.3963957,11.1826706,0.3527241,16.7722092-0.018959
		c5.381424-0.3578434,10.7616425-0.7339849,16.1413574-1.1168613c1.9062347-0.1356678,3.8093567-0.3148613,5.8538818-0.4858923
		c-0.84935,2.3374853-2.1702576,4.2213564-3.6611938,5.995595c-1.937149,2.3052006-4.1574707,4.311861-6.5503387,6.1364632
		C131.8248596,22.8637238,129.6888275,24.5390263,127.5429077,26.2013454z"></path>
</g>
<g onclick="select(this)" class="" id="estampa-terciaria" fill="#ffffff">
	<path d="M130.3457031,285.9716492c-0.0043182-0.4395447-0.0123901-0.8790588-0.0123901-1.318573
		c-0.0005646-83.2555847-0.0003204-166.5111694-0.0050507-249.7667542
		c-0.0000305-0.5540085,0.0988617-1.1204491-0.1203003-1.6599159c0.2985687-0.2786407,0.5886536-0.5776596,1.0545654-0.5227089
		c-0.0043793,0.5994644-0.0125885,1.1989365-0.0125885,1.7984009c-0.0005798,83.3347702-0.0005035,166.6695404-0.0011292,250.004303
		c-0.0000153,0.4794922-0.0091553,0.9589844-0.014328,1.4385071
		C130.9442749,286.1619873,130.6474304,286.1474915,130.3457031,285.9716492z"></path>
	<path d="M97.9396439,33.4600487c-0.0179367,0.5983353-0.05159,1.1966743-0.0516052,1.7950096
		c-0.0023346,82.9692001-0.0021591,165.938385-0.0031357,248.9075928c-0.0000076,0.5192871-0.0140991,1.0385742-0.0221176,1.5578308
		c-0.2982178,0.1827698-0.5890503,0.181366-0.8717651-0.0325012c-0.003952-0.5193787-0.011673-1.0387573-0.0116806-1.5581665
		c-0.0005264-83.157486-0.0004807-166.3149872-0.0013885-249.4724884c-0.0000076-0.5592537-0.0131302-1.1185112-0.0201187-1.6777878
		C97.3656616,32.975296,97.6752396,33.1715889,97.9396439,33.4600487z"></path>
</g>
<g onclick="select(this)" class="" id="estampa-secundaria" fill="#801815">
	<path d="M129.1517792,33.6763268c-0.0247345,0.5565186-0.0710754,1.1130409-0.0710907,1.6695633
		c-0.0032043,83.1179657-0.0030365,166.2359314-0.0041809,249.3538818c0,0.4390869-0.0166168,0.8781738-0.0259399,1.3174744
		c-0.2471008,0.1551514-0.5017395,0.1421509-0.7598724,0.0365295c-0.0160828-0.4779663-0.0479279-0.9560547-0.0479431-1.4341431
		c-0.0021973-82.8612213-0.0017853-165.7224121-0.0080109-248.5836182
		c-0.0000458-0.6323433,0.1204987-1.2794838-0.1284332-1.8974571
		C128.3879547,33.8338852,128.6750641,33.5409317,129.1517792,33.6763268z"></path>
	<path d="M100.3662567,34.4415588c-0.2219162,0.5814285-0.1122818,1.1872864-0.1123276,1.7804871
		c-0.0056915,82.6843872-0.0053406,165.3687744-0.0072021,248.0531616
		c-0.0000153,0.5184631-0.0270462,1.0368958-0.0420837,1.5553894c-0.260704,0.1026001-0.5181046,0.0890808-0.7728043-0.0176697
		c-0.0089493-0.559082-0.0267487-1.1181946-0.0267563-1.6773376c-0.0012283-82.8097992-0.0009384-165.6196289-0.0061264-248.4294434
		c-0.0000381-0.5537453,0.1013947-1.1192474-0.1057358-1.6619339
		C99.7435074,33.927269,100.0944138,34.0778275,100.3662567,34.4415588z"></path>
	<path d="M125.9792175,285.6784668c0.0147552-0.4786072,0.0424194-0.9571838,0.0424347-1.4357605
		c0.0019073-82.5162048,0.0018921-165.0324097,0-247.5486298c-0.0000153-0.4785843-0.027626-0.9571686-0.0423279-1.4357414
		c-0.019928-0.1110115-0.0398788-0.2220345-0.059845-0.3330536c0.2410126-0.3550148,0.5729446-0.4720688,0.9861679-0.3763237
		c-0.227623,0.5390816-0.1163712,1.1058502-0.1164017,1.6584129c-0.0056992,82.7319565-0.0054016,165.4639282-0.0062943,248.1958923
		c0,0.5593567-0.0129623,1.1186829-0.0197296,1.6780396c-0.2535706,0.0017395-0.5072937,0.0035095-0.7596436,0.0053101
		c-0.0539322-0.0361328-0.1138611-0.0611572-0.1785965-0.0751953
		C125.9861145,285.9512634,126.0103912,285.8276978,125.9792175,285.6784668z"></path>
	<path d="M102.5910721,35.1334648c-0.2284393,0.5803261-0.1189804,1.1868401-0.1190186,1.780117
		c-0.0055771,82.4275208-0.0052795,164.8550415-0.0060577,247.2825623c0,0.5595093-0.0113068,1.1190186-0.0174561,1.6784973
		c-0.2486572-0.0036316-0.4971848-0.0072327-0.7459412-0.0108337c-0.0025787-19.8245544-0.0066605-39.6490936-0.0069275-59.4736176
		c-0.0008774-63.3106689,0.0000153-126.6213226-0.0059052-189.9319763
		c-0.0000534-0.5523224,0.1133881-1.1193199-0.1167374-1.6579514
		C101.9843445,34.6937981,102.3230667,34.8058624,102.5910721,35.1334648z"></path>
	<path d="M123.8410873,286.1318054c-0.0053711-0.5994263-0.01548-1.1988525-0.01548-1.7982788
		c-0.0007019-82.3768463-0.0004883-164.7536926-0.0045013-247.1305237c-0.0000305-0.5555573-0.0580902-1.1111145-0.0887985-1.666893
		c0.2638626-0.3444176,0.6195297-0.3681946,1.0049133-0.2884789c-0.2408066,0.5784035-0.1201172,1.1854439-0.120163,1.7774811
		c-0.0063095,82.471817-0.0059891,164.9436188-0.0064316,247.4154358c-0.0000076,0.5596313-0.0063553,1.1192322-0.0096054,1.6788635
		C124.3493881,286.2201843,124.0962372,286.2366638,123.8410873,286.1318054z"></path>
	<path d="M104.8175735,35.7313538c-0.3063431,0.5650177-0.1533813,1.1768227-0.1534424,1.7641678
		c-0.0080109,82.2611542-0.0075531,164.5223083-0.0088196,246.7834778
		c-0.0000076,0.5592041-0.0181885,1.1184692-0.0280228,1.6776733c-0.2547836,0.1758423-0.4937744,0.0818481-0.731102-0.0423889
		c-0.0055161-0.5193787-0.0156784-1.0387268-0.0156784-1.558075c-0.0007172-82.5147552-0.0006027-165.0295105-0.0020447-247.5442657
		c-0.0000076-0.4788857-0.0209503-0.9577637-0.0317001-1.4366837
		C104.2128525,35.3790283,104.5633392,35.4242058,104.8175735,35.7313538z"></path>
	<path d="M121.6407318,286.1916199c-0.0076752-0.5994263-0.022049-1.198822-0.0220566-1.7982483
		c-0.0009995-82.1504364-0.0005417-164.3008881-0.0088196-246.4513245
		c-0.0000687-0.6261101,0.1626434-1.2810173-0.1844559-1.8780899c0.2994003-0.3344383,0.658493-0.414463,1.0745239-0.2520981
		c-0.0301895,0.5554962-0.086792,1.1109924-0.0868149,1.6664886c-0.0039215,82.3391876-0.0037003,164.67836-0.0047455,247.0175323
		c-0.0000076,0.5593567-0.0150909,1.1186523-0.0232239,1.6779785
		C122.1411972,286.3583679,121.8932037,286.3688049,121.6407318,286.1916199z"></path>
	<path d="M107.0370636,36.183445c-0.3721695,0.5479317-0.1879654,1.1658936-0.1880341,1.7474327
		c-0.0096436,82.1173477-0.0091324,164.2346954-0.0103378,246.3520203
		c-0.0000153,0.5990601-0.0174408,1.1980896-0.0267181,1.7971191c-0.2360611,0.083252-0.4697342,0.087616-0.6997299-0.0212708
		c-0.0092316-0.5589294-0.0269318-1.1178894-0.0269394-1.6768799
		c-0.0012207-82.2424011-0.0009384-164.4848175-0.0065002-246.7272339c-0.0000381-0.5530205,0.107132-1.118824-0.107811-1.6602592
		C106.3980713,35.6543427,106.7212982,35.8979225,107.0370636,36.183445z"></path>
	<path d="M120.2978516,36.258091c-0.0268021,0.5564499-0.077034,1.1129036-0.0770645,1.6693535
		c-0.0034866,82.2258224-0.0032578,164.4516296-0.0044098,246.6774445
		c-0.0000076,0.5592651-0.0164871,1.1185303-0.0256119,1.6778259c-0.2348175,0.1147461-0.4729385,0.1152954-0.7142258,0.0228271
		c-0.0092468-0.5992126-0.026268-1.1983948-0.0262756-1.7975769c-0.0011749-82.0893555-0.0006943-164.1787109-0.0091248-246.2680664
		c-0.000061-0.5860138,0.1606979-1.1989326-0.1594696-1.7610664
		C119.5641556,36.1436043,119.909462,36.1016235,120.2978516,36.258091z"></path>
	<path d="M109.2134628,36.5055809c-0.287056,0.5270462-0.1457214,1.09832-0.1457596,1.6467628
		c-0.0072861,82.1503448-0.0069275,164.3006897-0.0073776,246.4510193c0,0.5196533-0.0064392,1.0393066-0.0095367,1.55896
		c-0.2461548,0.1182556-0.4857483,0.0776367-0.7219849-0.03125c-0.0102081-0.5589905-0.0300903-1.1180115-0.0301056-1.6770325
		c-0.0013733-82.1678009-0.001152-164.3356018-0.0047607-246.503418c-0.0000229-0.5561523-0.0521317-1.1123123-0.0797806-1.6685066
		C108.5993881,36.1242104,108.9414673,36.1584435,109.2134628,36.5055809z"></path>
	<path d="M111.39711,36.7341232c-0.0229721,0.5571098-0.06604,1.1142273-0.0660629,1.6713409
		c-0.0029984,82.0758438-0.0027924,164.1516724-0.0044174,246.2275085
		c-0.0000153,0.5586853-0.0235138,1.1173096-0.0363922,1.6760254c-0.230072-0.0060425-0.4598083-0.0121765-0.6893768-0.018219
		c-0.011322-0.5990295-0.0328827-1.1980591-0.0328979-1.7970886c-0.0014954-82.0170593-0.0010223-164.0341339-0.0090485-246.0512085
		c-0.0000534-0.5867691,0.1555481-1.1999359-0.1640854-1.7615776
		C110.7444305,36.4068222,111.0736771,36.5157471,111.39711,36.7341232z"></path>
	<path d="M117.2028732,286.3360901c-0.0087814-0.5591736-0.025238-1.1182861-0.0252457-1.6774292
		c-0.0011368-82.0840607-0.0009384-164.1681519-0.003891-246.2521973c-0.0000229-0.5571823-0.0426331-1.1143684-0.0653152-1.6715698
		c0.3126755-0.2037735,0.6276093-0.3630714,0.96698-0.0499573c-0.2954559,0.5674324-0.1485748,1.1784096-0.1486282,1.7666931
		c-0.0076752,82.0266495-0.0072861,164.0533142-0.0076523,246.0799561
		c-0.0000076,0.5996094-0.0052872,1.1991882-0.0078659,1.7987671
		C117.6752853,286.3322449,117.4390793,286.3341675,117.2028732,286.3360901z"></path>
	<path d="M113.5330887,36.7376251c-0.0001984,82.601326-0.0003815,165.202652-0.00103,247.8039703
		c-0.0000076,0.5993958-0.0065079,1.198761-0.0100021,1.7981567c-0.2533035-0.0014954-0.5065842-0.0029602-0.7599945-0.004425
		c-0.0029449-3.3567505-0.0081787-6.7135315-0.008194-10.0703125
		c-0.0004578-79.2843628-0.0003204-158.5687256-0.0013428-237.8530884c0-0.5592384-0.014679-1.1184807-0.0220718-1.677803
		C112.998291,36.7352333,113.2656937,36.7364273,113.5330887,36.7376251z"></path>
	<path d="M115.744339,36.7345276c-0.0078125,0.5992165-0.0224686,1.1984367-0.0224915,1.7976532
		c-0.0024719,82.6026688-0.003891,165.2053375-0.0052261,247.8079987c-0.2498245,0.0004578-0.4997635,0.000885-0.7496567,0.0013428
		c-0.0032959-1.8781738-0.0095215-3.7563477-0.0095444-5.6345215
		c-0.0008469-81.3231812-0.0011444-162.6463623-0.0014267-243.9695587
		C115.2188339,36.7364578,115.4815826,36.7354965,115.744339,36.7345276z"></path>
</g>
</svg>
