<!--?xml version="1.0" encoding="utf-8"?-->
<!-- Generator: Adobe Illustrator 24.2.3, SVG Export Plug-In . SVG Version: 6.00 Build 0)  -->
<svg version="1.1" id="Camada_1" xmlns="http://www.w3.org/2000/svg" xmlns:xlink="http://www.w3.org/1999/xlink" x="0px" y="0px" viewBox="0 0 229 418" enable-background="new 0 0 229 418" xml:space="preserve">
<g onclick="select(this)" class="" id="gola-primaria" fill="#000000">
	<path d="M77.9426346,7.9673753c0.58358-0.069356,1.032135-0.3976116,1.4363174-0.7842617
		c0.9175644-0.877727,1.9667511-1.6647758,2.7009964-2.6779346c1.8149261-2.5044103,4.3710556-3.4063895,7.2605515-3.79111
		c0.6240387-0.0830863,1.349823,0.1018219,1.8595047-0.4742064c1.1999969,0,2.4000015,0,3.5999985,0
		c0.1689606,0.4907088,0.5991287,0.3122897,0.914032,0.3134411c5.57827,0.0203979,11.1566238,0.020126,16.7349243,0.0349568
		c0.4080048,0.0010847,0.7730331-0.0500122,1.0710449-0.3483979c7.5200043,0,15.0400085,0,22.5599976,0
		c0.0828247,0.4741868,0.4899597,0.3142419,0.7614136,0.3587393c0.9795685,0.1605679,1.9686279,0.2632271,2.9482269,0.4236295
		c1.9836884,0.3248088,3.6552887,1.119652,4.9371338,2.7922442c1.2989655,1.6949236,2.7367096,3.3046358,4.6419067,4.3876181
		c1.3349609,0.5595255,1.9354553,1.5324001,1.8441772,3.0037222c-0.2312469,3.7279959-2.0542908,6.7283545-4.2597656,9.5706816
		c-0.4029999,0.519371-0.6724548,0.1390858-0.9757843-0.093195c-1.7763519-1.3603001-3.5279999-2.7546139-5.3391266-4.0669384
		c-0.7182922-0.5204697-0.6553192-0.8478394-0.1091766-1.4620466c1.5674438-1.7628803,2.8856964-3.6969404,3.7774658-6.0769958
		c-2.572403,0.1970119-4.9905701,0.3984365-7.4111481,0.5647984c-10.7585907,0.7394209-21.499321,1.821701-32.3157806,0.9718924
		c-6.6919632-0.5257635-13.3825684-1.0529213-20.0644302-1.69244c-0.3931198-0.0376253-0.9007416-0.2369938-1.1560059,0.0428095
		c-0.3374405,0.369853,0.0650253,0.8249645,0.220726,1.2047291c0.7995911,1.9502478,2.0776596,3.5827036,3.4878464,5.12358
		c0.3805923,0.4158716,0.7852325,0.7979889,0.0745773,1.3490562c-1.7995148,1.3954124-3.5663376,2.8337154-5.3231812,4.282795
		c-0.4913559,0.4052773-0.7964401,0.3135414-1.1702042-0.1451874c-1.9160156-2.3515911-3.4110718-4.9275246-4.2069702-7.8697643
		C75.8163681,10.5971127,76.278656,9.1439505,77.9426346,7.9673753z"></path>
</g>
<g onclick="select(this)" class="" id="detalhe-punho" fill="#000000">
	<path d="M227.842514,108.4025879c0.5749817,0.7692032,0.4148407,1.7266006,0.6702271,2.5743942
		c0.1290436,0.4283524,0.0513458,0.9416275,0.4472656,1.2786179c0,1.2792664,0,2.5585327,0,3.8377991
		c-2.5884094,1.5184555-5.5240936,2.0408173-8.3501892,2.8522034c-9.2681122,2.6609497-18.7564545,3.2958908-28.3376312,2.8338699
		c-2.0632172-0.0994873-4.1380615-0.3150177-6.1517944-0.877861c-0.5486603-0.1533432-1.0449371-0.3735123-1.4878845-0.7239075
		c-0.2774811-2.4845276,0.3950195-4.910202,0.4574432-7.3736725c3.770752,0.7478256,7.5832977,0.9685516,11.4201965,0.9679565
		c2.4749756-0.0003815,4.9785767,0.2395554,7.4136963-0.1605759c3.064743-0.5035858,6.1346741-1.0043488,9.1941071-1.5534821
		C218.1148682,111.1610413,222.9727478,109.7737122,227.842514,108.4025879z"></path>
	<path d="M0.24,114.6542282c0.4893606-1.1710663,0.3771629-2.4589615,0.7112085-3.6613846
		c0.1128704-0.4062881,0.0125913-0.8849258,0.4293163-1.1796799c0.2910708,0.1283722,0.5764085,0.272171,0.8740931,0.3827667
		c6.2617168,2.3264465,12.7867851,3.4107971,19.397501,4.0666275c3.4315319,0.3404388,6.8639488,0.0203171,10.2973766-0.0423508
		c1.7614765-0.0321579,3.5187092-0.1407547,5.2500401-0.3458481c1.4364471-0.170166,2.981884,0.0562363,4.3134613-0.805748
		c0.4163704-0.2695313,0.5930977,0.0961914,0.7915878,0.4404831c0.4368095,0.7576523,0.2224312,1.6597824,0.6029205,2.4191055
		c0.0466232,1.5126266,0.5876122,2.9912491,0.3115692,4.5260544c-2.6691475,1.3422165-5.5943871,1.6769257-8.4834976,1.7902603
		c-9.3506947,0.3668442-18.675539,0.1407166-27.842226-2.0807114c-2.2731495-0.5508575-4.541153-1.1079407-6.6533499-2.1515045
		C0.24,116.8929443,0.24,115.7735825,0.24,114.6542282z"></path>
</g>
<g onclick="select(this)" class="" id="estampa-primaria" fill="#bf0811">
	<path d="M42.907505,115.9281998c-0.3804893-0.7593231-0.166111-1.6614532-0.6029205-2.4191055
		c-0.1984901-0.3442917-0.3752174-0.7100143-0.7915878-0.4404831c-1.3315773,0.8619843-2.8770142,0.635582-4.3134613,0.805748
		c-1.7313309,0.2050934-3.4885635,0.3136902-5.2500401,0.3458481c-3.4334278,0.0626678-6.8658447,0.3827896-10.2973766,0.0423508
		c-6.6107159-0.6558304-13.1357841-1.740181-19.397501-4.0666275c-0.2976846-0.1105957-0.5830222-0.2543945-0.8740931-0.3827667
		c1.7899306-9.5023575,2.6885965-19.1367569,4.2582512-28.6731644c0.8426151-5.1193008,1.1584306-10.3164978,2.2566686-15.4050598
		c1.7446499-8.0836258,4.4581051-15.7489853,9.4218407-22.4775429c2.1457844-2.908699,4.5916576-5.5448303,7.4281387-7.7850304
		c1.3344898-1.0539589,2.2994804-2.5360756,3.8290272-3.3338928c3.6148033-1.8855038,7.2542801-3.7286377,11.0284195-5.2783661
		c10.0274162-4.1174316,20.0643997-8.2123909,29.5622063-13.4859104c1.9391403-1.0766773,3.933815-2.0501871,5.4105301-3.8396473
		c0.8109818-0.9827251,1.9905396-1.5904641,3.3671417-1.5671678c-1.664093,1.1765685-2.1263809,2.6297307-1.5008469,4.9422078
		c0.7958984,2.9422398,2.2909546,5.5181732,4.2069702,7.8697643c0.373764,0.4587288,0.6788483,0.5504646,1.1702042,0.1451874
		c1.7568436-1.4490795,3.5236664-2.8873825,5.3231812-4.282795c0.7106552-0.5510674,0.306015-0.9331846-0.0745773-1.3490562
		c-1.4101868-1.5408764-2.6882553-3.1733322-3.4878464-5.12358c-0.1557007-0.3797646-0.5581665-0.8348761-0.220726-1.2047291
		c0.2552643-0.2798033,0.762886-0.0804348,1.1560059-0.0428095c6.6818619,0.6395187,13.372467,1.1666765,20.0644302,1.69244
		c10.8164597,0.8498087,21.5571899-0.2324715,32.3157806-0.9718924c2.420578-0.1663618,4.8387451-0.3677864,7.4111481-0.5647984
		c-0.8917694,2.3800554-2.210022,4.3141155-3.7774658,6.0769958c-0.5461426,0.6142073-0.6091156,0.941577,0.1091766,1.4620466
		c1.8111267,1.3123245,3.5627747,2.7066383,5.3391266,4.0669384c0.3033295,0.2322807,0.5727844,0.612566,0.9757843,0.093195
		c2.2054749-2.8423271,4.0285187-5.8426857,4.2597656-9.5706816c0.0912781-1.4713221-0.5092163-2.4441967-1.8441772-3.0037222
		c1.8040161-0.1235514,2.9677124,0.963213,4.0435791,2.1754436c0.3423004,0.3857002,0.6642609,0.7411375,1.1140747,1.0351553
		c10.015213,6.5464888,21.2102203,10.5996943,32.1522522,15.1752443c3.9647369,1.6579075,7.8065491,3.5749054,11.7430115,5.2901115
		c1.6351929,0.7124977,2.7434998,2.2689476,4.1796417,3.3404427c3.1261292,2.3323669,5.8217316,5.1096878,8.1725159,8.219841
		c4.8403473,6.4038811,7.573822,13.7226105,9.31427,21.4695435c0.648407,2.8861542,1.1841888,5.7966232,1.4676514,8.7398987
		c0.558075,5.7943726,2.3274994,11.3395309,3.417038,17.0236282c1.1276703,5.8830719,1.9454803,11.8155975,2.8697968,17.7311859
		c-4.8697662,1.3711243-9.7276459,2.7584534-14.7245636,3.6553421c-3.059433,0.5491333-6.129364,1.0498962-9.1941071,1.5534821
		c-2.4351196,0.4001312-4.9387207,0.1601944-7.4136963,0.1605759c-3.8368988,0.0005951-7.6494446-0.2201309-11.4201355-0.9681702
		c0.397995-4.4217834,1.3395386-8.752449,2.2377777-13.0872345c0.5362396-2.5878677,1.2085876-5.1475754,1.8197479-7.7199402
		c-0.3908234,0.3567734-0.6051025,0.7716446-0.789444,1.1994095c-1.7770233,4.123909-3.0289459,8.4271622-4.175827,12.7510147
		c-2.369339,8.9325562-3.8379822,18.0407791-4.8481293,27.214325c-0.5737305,5.2101593-0.938385,10.4479065-1.2374268,15.6823578
		c-0.2820282,4.936264-0.494751,9.884491-0.4939728,14.8274231c0.002655,16.9393768-0.2863922,33.8787994,0.1625824,50.819046
		c0.193512,7.3013306,0.2618408,14.6057129,0.5153046,21.9078064c0.1688232,4.8633728,0.3232422,9.7277069,0.4854279,14.5916138
		c0.1993561,5.9791107,0.4654694,11.9532013,0.7395935,17.9288177c0.2303009,5.019989,0.4219818,10.0404358,0.8112488,15.0513
		c-7.654129,1.0700073-15.3581696,1.3612976-23.0732422,1.452179c-12.9472198,0.1525269-25.8881378,0.5621948-38.8300934,0.9285889
		c-6.7608643,0.1913757-13.4958572-0.4653015-20.2470093-0.5768433c-8.7106018-0.1439514-17.4220123-0.2460632-26.1319199-0.4232178
		c-8.3101959-0.1690063-16.6230583-0.3525085-24.8476906-1.7511292c0.5418816-3.7588501,0.4816322-7.5588074,0.7390099-11.3370361
		c0.3820381-5.6081238,0.5792046-11.2305908,0.7604103-16.8500214c0.1427193-4.4258575,0.2925491-8.8505402,0.4726982-13.2752838
		c0.2548981-6.2610779,0.389267-12.5274048,0.5358238-18.7924042c0.0933838-3.9920197,0.1545982-7.9874725,0.1912727-11.9777985
		c0.131134-14.2671509,0.0807762-28.5359955,0.0866127-42.8041992c0.0009117-2.2374725-0.0170631-4.4768066-0.1053925-6.7121582
		c-0.2500496-6.3277893-0.3140182-12.664093-0.8974266-18.9772339c-0.2267075-2.4532471-0.2513618-4.9276428-0.5398026-7.3721466
		c-0.5810051-4.9239349-1.1191139-9.8507843-2.0031929-14.7410049c-1.0833206-5.9923477-2.1588326-11.9780273-3.9337807-17.8119583
		c-0.6581345-2.1631546-1.2049675-4.3685989-2.1506424-6.554039c-0.5832481,0.8811417,0.16119,1.4419861,0.2478676,2.0992279
		c0.4439659,3.3662796,1.0535736,6.7120743,1.4424057,10.0838013
		C42.3154945,111.0284653,43.1100464,113.4209595,42.907505,115.9281998z"></path>
</g>
<path d="M0.492142,114.7745972c0.019004,0.3836975,0.0242282,0.764183-0.252142,1.0789413
	c0-0.3997726,0-0.7995453,0.0000012-1.1993103C0.3240493,114.6943436,0.4080962,114.7344666,0.492142,114.7745972z"></path>
<g onclick="select(this)" class="" id="estampa-secundaria" fill="#801815">
	<path d="M43.1218033,117.2519455c-0.1129837-0.8572006-0.2259674-1.7144012-0.3395424-2.5717316
		c-0.023983-3.130127-0.0473709-6.2601166-0.0707703-9.3900909c3.9916801,0.0128174,7.9835854,0.0072708,11.9748726,0.0540161
		c0.7940102,0.0093002,0.9116707-0.3293533,0.9071312-1.0049286c-0.0241203-3.5909882-0.0340614-7.182457,0.0049629-10.7731857
		c0.009079-0.8356094-0.2542648-1.1002045-1.086853-1.0918579c-3.5928421,0.0359879-7.1864052,0.0321121-10.7793503,0.0014267
		c-0.7437668-0.0063553-1.0605469,0.1605911-1.0507813,0.9831238c0.0468826,3.9494171,0.0372276,7.8995209,0.0476494,11.8493729
		c-0.8604507,0.1858826-1.1693535-0.1623001-1.2812805-1.0377197c-0.4048882-3.166748-0.9382935-6.3150558-1.5984306-9.4408646
		c-0.1626015-0.769928-0.8348236-1.7234344-0.4088516-2.2440338c0.4166794-0.5092316,1.5074348-0.16008,2.2977142-0.1424103
		c0.6923714,0.01548,0.9857597-0.1329727,0.9770966-0.9159546c-0.0406647-3.6741104-0.0364761-7.3490982-0.0021667-11.0233307
		c0.0068321-0.7316284-0.2045021-0.9630585-0.9406319-0.9475784c-2.0771942,0.0436935-4.1576538-0.0349884-6.233242,0.0373001
		c-0.9466705,0.0329742-1.4267159-0.2364349-1.7445602-1.1676712c-1.2549515-3.6769028-1.0442238-7.4760056-1.0686493-11.2590408
		c-0.0045509-0.705246,0.5452347-0.5588074,0.9547539-0.5602646c2.6375771-0.0093994,5.2761269-0.0447922,7.9123039,0.0165863
		c0.923645,0.0214996,1.1328316-0.2836304,1.1238365-1.1587143c-0.0402145-3.9136734-0.0100021-7.828064-0.0052185-11.7421989
		c3.9175644-0.0036736,7.8354225-0.0343857,11.7524567,0.0092583c0.9054756,0.0100899,1.150116-0.2608719,1.1379395-1.151741
		c-0.0485878-3.5551414-0.0489922-7.1117439,0.0003204-10.6668701c0.0123901-0.8931694-0.2336273-1.1585236-1.1380615-1.1476135
		c-3.9170532,0.0472717-7.8350143,0.019474-11.7526436,0.0189781c-0.0047226-0.8380928,0.0370483-1.6798058-0.0279465-2.5132065
		c-0.0585899-0.7513237,0.241684-1.0215263,0.9567947-1.2004547c3.7816391-0.9462204,7.5738029-1.865448,11.2632866-3.1375542
		c0.6702957-0.2311096,0.7413216-0.0286102,0.735096,0.5471344c-0.0194206,1.7958946,0.0278702,3.5931168-0.0229225,5.3877869
		c-0.021431,0.7571869,0.2458954,0.9382057,0.9628448,0.9319649c3.6339417-0.0316277,7.2687035-0.0434113,10.9022484,0.0058784
		c0.9037247,0.0122604,1.0330353-0.3520813,1.0248108-1.1242599c-0.0340347-3.1927185-0.014473-6.386013-0.0140457-9.5790977
		c0.0001831-1.4272232,0.373024-1.9201832,1.7231674-2.2093735c0.3070755-0.0657692,0.6358261-0.0400085,0.9546051-0.0402718
		c3.0351715-0.0025043,6.070816-0.0312653,9.1052094,0.0173283c0.8621216,0.0138054,1.1971664-0.1757717,1.1607361-1.1106987
		c-0.0714264-1.8330002-0.0130463-3.6710548-0.0083847-5.507019c0.3421097-0.2718124,0.7031403-0.5231743,1.0231628-0.8188667
		c1.6566772-1.5307407,3.6066437-2.7209988,5.1238022-4.4128036c1.8614197,2.0478859,4.0100403,3.7767601,6.1737289,5.4820766
		c0.4291534,0.3382301,0.6163025,0.6502762,0.6064301,1.1793766c-0.0261002,1.3972454,0.0359726,2.7972984-0.0261765,4.1922684
		c-0.0358887,0.8054104,0.2467728,1.001503,1.0183945,0.9933147c3.5558701-0.0377235,7.1135025,0.0336266,10.6679764-0.0462646
		c1.1045685-0.024826,1.3042068,0.3289242,1.2894058,1.3422165c-0.0565796,3.8728142-0.0182724,7.7470093-0.0153961,11.6206932
		c-4.3259201,0.0002632-8.651825,0.0005226-12.9777298,0.0007896c0.0112991-3.9883881,0.0079498-7.9769287,0.0470581-11.9650497
		c0.0072327-0.7380943-0.2412033-0.951519-0.9666061-0.9452381c-3.6317291,0.0314465-7.2640305,0.0315228-10.8957596,0.0008755
		c-0.7766953-0.0065556-1.0475235,0.2477341-1.0413284,1.0287476c0.0287857,3.6296883,0.0352783,7.2599907-0.0052719,10.8894615
		c-0.0089874,0.8047485,0.2617722,1.0122299,1.0262222,1.0053024c3.9508896-0.0358009,7.9021835-0.0254936,11.8533478-0.0312653
		c0,4.3234177-0.0000076,8.6468315-0.0000076,12.9702415c-3.9583511-0.0088921-7.9168091-0.0067482-11.875-0.0373039
		c-0.6747894-0.0052071-1.0105972,0.1180611-1.0028305,0.9076576c0.0361404,3.6763649,0.0297241,7.3533669,0.0056305,11.0299187
		c-0.0047531,0.7239304,0.2439117,0.9790421,0.9728775,0.9740067c3.6786499-0.0254517,7.3576736-0.0256424,11.0363083,0.0010376
		c0.6902695,0.0049973,0.894043-0.2452164,0.8889084-0.9053345c-0.0310669-3.9957428-0.0324173-7.9917221-0.0437012-11.9876175
		c4.3258514,0.0000534,8.6516953,0.000103,12.9775543,0.0001526c-0.0027237,3.9104309,0.0152435,7.8210678-0.0246124,11.7311096
		c-0.0085678,0.8410873,0.1518326,1.1886368,1.1038513,1.173111c3.5923386-0.0586319,7.1867828-0.0588226,10.7791138,0.0001678
		c0.9538574,0.0156631,1.1081848-0.3306046,1.099968-1.1731949c-0.0381241-3.9100723-0.0154419-7.8207397-0.014534-11.7311935
		c4.3258438-0.0000648,8.65168-0.0001297,12.9775162-0.0002022c-0.0138397,3.9939919-0.0103912,7.9881897-0.0561371,11.9818153
		c-0.009079,0.7904434,0.3305054,0.9149551,1.0101166,0.910347c3.597229-0.0244217,7.1949463-0.033226,10.7919312,0.0046997
		c0.8397675,0.0088577,1.1061401-0.2635574,1.0979919-1.0965118c-0.0351868-3.5949821-0.0326843-7.1906662-0.0002747-10.7857018
		c0.0067902-0.7539291-0.1749268-1.0500641-0.9917145-1.0405045c-3.9563293,0.0463066-7.9133301,0.0347099-11.8700714,0.0436325
		c0-4.3234863,0-8.6469688,0-12.9704475c3.9590302,0.0057793,7.9181824-0.0012283,11.8770294,0.0294075
		c0.6939087,0.0053711,0.9929352-0.1525803,0.9856415-0.9223824c-0.0348663-3.6767998-0.0285339-7.354187-0.0059509-11.0311718
		c0.004425-0.7244358-0.2529602-0.9717579-0.9789734-0.966507c-3.6790466,0.0266132-7.3585052,0.027401-11.0375061-0.000658
		c-0.7082825-0.0053997-0.877655,0.2781849-0.8725739,0.9204578c0.0316467,3.9959126,0.0365448,7.9920292,0.0503387,11.988081
		c-4.3259735-0.0003052-8.6519318-0.0006142-12.9778824-0.0009155c-0.0007019-3.9156532,0.0249481-7.8316193-0.0217209-11.7467251
		c-0.0108795-0.9123096,0.2003555-1.227602,1.1766357-1.2106819c3.5570221,0.0616474,7.1160126,0.0024757,10.6737061,0.0404453
		c0.8234253,0.0087891,1.1254578-0.2199268,1.0836945-1.0727215c-0.066391-1.3552494-0.0046997-2.7163105-0.0243073-4.0745258
		c-0.0074768-0.5185566,0.1234283-0.9094601,0.5759583-1.2216587c2.3130798-1.5957966,4.3035278-3.5646973,6.3130341-5.5102196
		c2.0305481,1.5995331,4.0611115,3.1990643,6.0916595,4.7985954c-0.0011292,1.9560757,0.0400238,3.9134941-0.0221252,5.8676319
		c-0.0288696,0.9075642,0.1915131,1.2445412,1.1747437,1.2209206c2.8343048-0.0680847,5.6713409-0.0331745,8.5072479-0.0209389
		c2.1952972,0.0094719,3.2561188,1.0535145,3.256134,3.164917c0.0000305,2.9141617,0.0207062,5.8285713-0.0141449,8.742321
		c-0.0089569,0.7478256,0.1642151,1.0506287,0.9862518,1.0414848c3.6742859-0.0408783,7.3494263-0.0331154,11.0239563-0.0044479
		c0.68573,0.0053558,0.8965302-0.2168617,0.8792725-0.888752c-0.039978-1.5558434,0.0167389-3.1142006-0.0243835-4.6699867
		c-0.0200195-0.7574387,0.0436096-1.0825272,0.9478607-0.7429428c3.0618439,1.1498528,6.2429962,1.9220657,9.3851166,2.8146362
		c2.6254425,0.7458038,2.6326599,0.7204399,2.6081543,3.4727402c-3.868515,0.0004578-7.7378235,0.0441208-11.6050415-0.0262413
		c-1.0907745-0.0198479-1.3220825,0.3215103-1.3029327,1.3469925c0.0639801,3.4266548,0.0644073,6.855999-0.0001831,10.2826309
		c-0.0193787,1.0266953,0.2122192,1.3696976,1.3031921,1.350956c3.8672638-0.066433,7.7364349-0.020092,11.6049042-0.0164795
		c0.0004883,4.3235321,0.0009918,8.647068,0.0014648,12.9705734c-3.9963837-0.0155945-7.9929962-0.0129929-11.9889526-0.0621109
		c-0.7955627-0.0097885-0.911911,0.3315582-0.9073944,1.0074539c0.0241089,3.5955276,0.0329742,7.1915283-0.0046387,10.7868271
		c-0.0086365,0.8260574,0.2370148,1.1119995,1.0804291,1.1034164c3.5973663-0.0365829,7.1954803-0.0325851,10.7929688-0.0013809
		c0.7478485,0.006485,1.0592041-0.1674042,1.0501251-0.9869614c-0.0437927-3.9546509-0.0317688-7.909935-0.039566-11.8649979
		c2.997345-0.0098953,5.9947205-0.0192108,8.9920654-0.0302582c0.490448-0.0018082,0.9546509-0.0552826,0.9548645,0.6966782
		c0.0010223,3.7976074-0.1548157,7.5786285-0.8448029,11.3268585c-0.1438293,0.7812805-0.5249329,0.9249039-1.2228394,0.915062
		c-2.3179016-0.0326843-4.636734,0.0042419-6.9547882-0.022583c-0.6294708-0.0072937-0.9238739,0.1092148-0.9168549,0.8426132
		c0.0356293,3.7148972,0.0227509,7.4303284,0.009491,11.1455154c-0.0019226,0.5429382,0.0327911,0.9281006,0.7454529,0.8883896
		c0.8766327-0.0488586,1.7600098,0.0246964,2.6368561-0.0221786c0.7086029-0.0378799,0.9234314,0.1419296,0.6894989,0.871521
		c-1.1228027,3.5019989-1.7735138,7.1152267-2.4099579,10.7265701c-0.1835175,1.0413437-0.5582733,1.5886536-1.6804047,1.2948456
		c0.0082855-3.9524765,0.0033112-7.9050674,0.0371246-11.8573456c0.006012-0.7037048-0.1752472-0.983017-0.9334869-0.976059
		c-3.6750641,0.033699-7.3506622,0.0287094-11.0258484,0.0049057c-0.7232971-0.0046768-0.9634552,0.2412567-0.9575958,0.9698792
		c0.029541,3.6730042,0.0285645,7.3464966-0.0003357,11.0195236c-0.0055389,0.705368,0.2702179,0.8743057,0.9148712,0.8691788
		c3.9940338-0.0318222,7.9882965-0.0350876,11.9824677-0.0478287c0.0197754,3.0358047,0.0395508,6.0716171,0.0593262,9.1074219
		c-0.1991882,1.2741394,0.0860291,2.5816498-0.2651825,3.8453217c-3.8385315,0.0069427-7.6772003,0.0334015-11.5154724,0.0053635
		c-0.8285065-0.0060425-1.2028809,0.130455-1.1866455,1.0976791c0.060379,3.5957336,0.0497437,7.1934204,0.0053711,10.7896271
		c-0.0105591,0.8558807,0.2729187,1.0774689,1.0917206,1.0700226c3.4383698-0.0313263,6.8772736-0.0020142,10.3159943,0.0050812
		c-0.2109528,3.3013306-0.4286346,6.6022644-0.6287384,9.9042511c-0.0602417,0.9941101-0.071579,1.9911957-0.1053314,2.9870453
		c-3.1921234,0.0075226-6.3844299,0.037674-9.5761261,0.0064697c-0.8074341-0.0079041-1.1088257,0.1963196-1.0978241,1.0593719
		c0.0451813,3.5487823,0.0545044,7.0990753-0.0037842,10.6474762c-0.0161591,0.9829865,0.3303833,1.2059326,1.2365723,1.1963348
		c3.3113403-0.0350952,6.6233978-0.0011749,9.9351959,0.0067444c-0.144928,2.2113647-0.2967072,4.4223022-0.4328003,6.6342163
		c-0.1289215,2.0957947,0.3101807,4.19487-0.0279846,6.290741c-3.1569061,0.0097656-6.3140411,0.0445557-9.4704742,0.0121307
		c-0.8887939-0.0091248-1.2608185,0.1760712-1.2424622,1.1801758c0.0642395,3.5136871,0.0656281,7.030014-0.0008392,10.5436096
		c-0.0191956,1.0140839,0.3658752,1.1763,1.2449951,1.1663666c3.1565857-0.0356445,6.3139496-0.0048981,9.4710083,0.0007629
		c0.1586456,1.070755,0.0969391,2.1517487-0.0322571,3.2078705c-0.3522949,2.8799896-0.1157532,5.7021332,0.6278381,8.4918671
		c0.1138611,0.4270782,0.2088623,0.8451233,0.1410522,1.2868958c-3.397522-0.0115509-6.7958527,0.0139008-10.1921234-0.0568848
		c-1.0401154-0.0216675-1.2666321,0.3613586-1.2535706,1.3165741c0.0475006,3.475708,0.054306,6.953064-0.0045166,10.428421
		c-0.0163574,0.9660034,0.291687,1.2006073,1.2134399,1.1910858c3.7975311-0.0392456,7.5958252-0.0044861,11.3938293,0.003067
		c0.0551453,3.0844879-0.5337219,6.1130371-0.8016052,9.1694489c-0.1078644,1.2305145-0.4029083,2.4429474-0.3625031,3.6884766
		c-3.4718628,0.0152283-6.9438324,0.0487823-10.4155426,0.0312653c-0.7641144-0.0038605-1.0322266,0.2029266-1.0227966,1.0082703
		c0.0420532,3.5898895,0.0348663,7.1806946,0.0058746,10.7708435c-0.0063324,0.781189,0.1642151,1.1532288,1.050766,1.1435699
		c3.6319427-0.0394592,7.2649078-0.0434723,10.8966522,0.0035248c0.8634186,0.0111694,0.9682922-0.3663025,0.9673309-1.0685272
		c-0.0027924-2.0325775,0.0442047-4.0652466,0.0716553-6.0978699c0.5026703,2.3473816,0.7186279,4.7180939,0.5805664,7.1180573
		c-0.7085419-0.0063934-0.6704865,0.4791565-0.666748,0.9743958c0.0150146,1.9855347,0.0151367,3.9712067,0.020752,5.9568176
		c-0.0048828,0.7085114-0.0097504,1.4170074-0.0151215,2.1213837c-0.0007935,1.018631,0.0167542,2.0418549-0.0091705,3.0639648
		c-0.0124359,0.4896698,0.0440063,0.8657227,0.6476135,0.8665924c0.5667419,2.9994507,0.0209503,6.0270386,0.227829,9.0362244
		c0.0871887,1.2679138,0.1330414,2.5386353,0.1978455,3.8089905c-0.8043823,0.0016174-1.1160889,0.2947998-1.0944519,1.200531
		c0.0748444,3.1341248,0.0288544,6.2710571,0.0288391,9.4069519c-0.0000153,2.2043457-0.0000153,2.2043457,2.1339722,2.3805542
		c0.4357147,2.6763916,0.621521,5.3752747,0.34375,8.0691833c-0.1342621,1.3021851-1.4219055,1.4449463-2.4225159,1.7904358
		c-0.0186768-2.9519958-0.0542603-5.9040527-0.0434723-8.8559265c0.0027008-0.7363586-0.1634979-1.0528259-0.9958038-1.04245
		c-3.633316,0.045166-7.2675629,0.0292053-10.9013519,0.0111084c-0.6741638-0.0033875-1.0257568,0.1549072-1.0169983,0.9278259
		c0.0398407,3.5107727,0.0365143,7.0220337,0.0487061,10.5331116c-0.7271118,0.446228-1.55159,0.2570801-2.3232574,0.3009338
		c-3.5474091,0.2017212-7.0943756,0.4772339-10.6535492,0.3452148c-0.0109406-3.6763-0.0423584-7.3527832-0.0162201-11.0288391
		c0.0059357-0.8341675-0.2607727-1.0956726-1.0950775-1.0864868c-3.5184326,0.0387878-7.0382538,0.0557861-10.5559692-0.0079956
		c-1.0458679-0.0189819-1.2516327,0.35672-1.2419128,1.3087463c0.0375214,3.6756287-0.0036469,7.3521118-0.0154724,11.0282288
		c-4.1171417,0.1290283-8.2342529,0.2580261-12.3406372,0.3869019c-0.821228-0.0044861-0.5401764-0.6446228-0.5424652-1.0503235
		c-0.0196838-3.473877-0.0501709-6.9486084,0.0126495-10.4214478c0.0184937-1.0227661-0.313736-1.2642517-1.286026-1.2492676
		c-3.5150909,0.0542297-7.0319672,0.0510559-10.5471802,0.000946c-0.8952408-0.0127563-1.1595764,0.240387-1.1475601,1.1375122
		c0.0475998,3.5532227-0.0093079,7.1078796,0.0399094,10.6610107c0.0121536,0.8771667-0.1937103,1.1617432-1.1160126,1.1470947
		c-3.5144882-0.0557556-7.0304031-0.021637-10.5457916-0.0210876c-0.4304733-0.0292664-0.860939-0.0585022-1.2914352-0.0877686
		c-0.0056152-3.829071-0.0429382-7.6585693,0.0048523-11.486969c0.012413-0.9944763-0.1725235-1.3842163-1.2876816-1.3586426
		c-3.4703522,0.079834-6.9442596,0.0634766-10.4155426,0.0073547c-0.9790573-0.0158386-1.2896194,0.2387695-1.2769928,1.2518311
		c0.0462494,3.7079773-0.0065842,7.4171753-0.0221024,11.1259155c-4.2764969,0.0514832-8.5501328-0.0649109-12.8234787-0.2182922
		c-0.0209656-3.5961304-0.0899887-7.1929626-0.0338898-10.7879028c0.0177536-1.1377563-0.3565903-1.3926697-1.4231567-1.3729858
		c-3.3985214,0.0626831-6.7994995,0.058075-10.1982498,0.001709c-0.9908142-0.016449-1.3004227,0.2619019-1.2882156,1.2705688
		c0.0430222,3.5561829-0.0089111,7.1134644-0.024826,10.6703491c-4.3066864,0.0611877-8.599823-0.177124-12.8863602-0.5823059
		c-0.0136642-3.3090515-0.0640869-6.6185303-0.0171623-9.9266052c0.0149231-1.0518188-0.2161713-1.4647522-1.3737526-1.4384155
		c-3.4293365,0.078186-6.8621979,0.0635071-10.2923508,0.0058289c-0.9958267-0.0167542-1.2823372,0.2714844-1.2647743,1.2687073
		c0.0469933,2.6681213-0.0258026,5.3384094-0.0510063,8.0078125c-2.0396042-0.6100769-2.3852997-1.0387268-2.3253212-3.1047363
		c0.0595093-2.0498352,0.1747284-4.0980835,0.2655525-6.1472168c0.1986847-0.0145569,0.4037285-0.0680847,0.5949364-0.0369263
		c1.2141151,0.197998,1.6124344-0.2302856,1.574337-1.5147095c-0.1004944-3.3883972-0.0720253-6.7824707-0.0098038-10.1726685
		c0.0175858-0.9581604-0.2743301-1.3037415-1.1913414-1.1573792c-0.1070633-1.592041,0.0955391-3.1712952,0.2675209-4.7439423
		c0.2986984-2.7315369,0.1737137-5.4751434,0.3367958-8.2098236c0.7899818-0.0395813,0.5584297-0.6412506,0.5553398-1.0680695
		c-0.0259895-3.5921326,0.2834244-7.1860352-0.0133705-10.7750092c-0.0768318-0.9290619,0.2601089-1.123642,1.1323013-1.1116791
		c3.5190163,0.0482635,7.0394821-0.0088959,10.5584984,0.0391541c0.9356079,0.0127563,1.2480774-0.253479,1.2343445-1.2123413
		c-0.0503654-3.5169373-0.0600929-7.0357971,0.0057449-10.5522308c0.0189285-1.0106201-0.3583603-1.1748505-1.2420769-1.164032
		c-3.3991776,0.0416718-6.8002892-0.0325775-10.198246,0.0440826c-1.1625557,0.0262451-1.5203323-0.3437195-1.5035896-1.4744873
		c0.0538483-3.636673,0.0262833-7.2745361,0.030117-10.9119415c0.0271416-0.1824493,0.0542793-0.3648834,0.0814323-0.5473785
		c3.9103508-0.0065308,7.8208351-0.0328522,11.7308922-0.0032196c0.811615,0.0061493,1.1051636-0.2011566,1.0945854-1.0596619
		c-0.0442123-3.5886536-0.0389175-7.17836-0.0040703-10.7672272c0.0080643-0.8303833-0.2565231-1.1103973-1.0960541-1.0990601
		c-3.0320625,0.0409393-6.064991,0.0172272-9.0975952,0.0179138c-0.0271873-0.0742035-0.0874176-0.1535187-0.0768318-0.2218781
		c0.5446472-3.5168762,0.1428452-7.0537415,0.2284355-10.5799866c0.0172958-0.7125854,0.0447159-1.424942,0.067482-2.1375885
		c2.9523087-0.0108032,5.9047966-0.0436096,8.8567581-0.0171356c0.786171,0.0070496,1.1338882-0.1533966,1.1223564-1.0425568
		c-0.0465546-3.5884094-0.0432053-7.1780548-0.0019836-10.766571c0.0097542-0.8491364-0.2753448-1.0865021-1.0955696-1.0787811
		c-2.9517403,0.0277863-5.9040871-0.0092773-8.856205-0.0218201c-0.4507904-4.2979126-0.6421318-8.6004486-0.2298965-12.9143219
		c3.0288658-0.0090027,6.0578995-0.0410004,9.0862961-0.010376c0.8274803,0.0083618,1.1033134-0.2501984,1.0942993-1.0898895
		c-0.0384865-3.5845337-0.0418472-7.1700439,0.0026321-10.7544403c0.0107117-0.8633118-0.2935753-1.065155-1.0996284-1.0572662
		c-3.0282555,0.0296478-6.0571327-0.004837-9.0857773-0.015274c-0.040844-4.3066254-0.4061661-8.5935669-0.7831001-12.8798065
		c3.279129-0.0079193,6.558712-0.0484009,9.8370895-0.0026855c0.9136848,0.0127411,1.1443291-0.2732544,1.1325111-1.1570587
		c-0.0475578-3.5566025-0.0502701-7.1146469,0.0014992-10.6711349c0.0132446-0.9100571-0.2621231-1.1503983-1.1509018-1.1380005
		c-3.4386253,0.0480042-6.8786049-0.0040588-10.317421,0.0367508
		C43.3314857,118.2905655,43.0415802,118.0071487,43.1218033,117.2519455z M133.193634,208.6885986
		c-0.0089569-3.9087677-0.0387115-7.817688-0.0102386-11.7261963c0.0060883-0.8362579-0.1428375-1.2016296-1.1004944-1.1865692
		c-3.591156,0.056488-7.1839447,0.0446777-10.7755661,0.006012c-0.8164902-0.0087891-1.1054764,0.2054443-1.0953827,1.060791
		c0.0466003,3.9483643,0.0304871,7.8974762,0.0368576,11.8462982c-4.3256607-0.0000763-8.651329-0.0001373-12.9769974-0.0002289
		c0.0026932-3.9098053-0.0259171-7.8200531,0.030304-11.7290802c0.0138779-0.9650269-0.3016357-1.1933746-1.2161026-1.1806488
		c-3.47229,0.0482788-6.9462967,0.0563202-10.4182281-0.0035248c-1.0187378-0.0175323-1.3704987,0.2042847-1.3510284,1.3043671
		c0.0684814,3.8684692,0.0164261,7.7390594,0.0101013,11.6088409c-3.9156113,0.0014343-7.8313446,0.0187988-11.7467499-0.0092621
		c-0.7694473-0.0055084-1.1459045,0.1174774-1.1337585,1.0254669c0.0485764,3.6332092,0.0487061,7.2678223-0.0000534,10.9010315
		c-0.0121841,0.9083862,0.3646927,1.0313873,1.1337509,1.026062c3.9153976-0.0271759,7.8311157-0.0093384,11.7467346-0.0072784
		c0.0063629,3.9088745,0.0339279,7.8179321,0.0021896,11.7265015c-0.006813,0.8380127,0.1422882,1.1981354,1.0994263,1.1828766
		c3.5910721-0.0572662,7.1842194-0.0593262,10.7751846,0.0011597c0.9677048,0.0162811,1.098999-0.3610687,1.0913467-1.1839142
		c-0.036377-3.9086761-0.0204544-7.8178558-0.0231552-11.7268524c4.3256912-0.0000763,8.6513901-0.0001678,12.9770737-0.0002441
		c-0.0063858,3.9480133,0.0097656,7.896286-0.0369339,11.8438416c-0.0101395,0.8566742,0.2818222,1.0686493,1.0966034,1.0596619
		c3.5110703-0.0387878,7.0234528-0.0535126,10.5339355,0.0066376c1.0210876,0.0174561,1.3706818-0.2111053,1.3526459-1.3059692
		c-0.0636749-3.8668823-0.0104218-7.7357025-0.0014954-11.6038055c3.9131775-0.0020294,7.8264923-0.0210266,11.7394409,0.0083466
		c0.7778931,0.0058289,1.1372681-0.1324615,1.1254883-1.030365c-0.0476532-3.6309662-0.0476837-7.2633057,0.0000763-10.8942719
		c0.0118103-0.8982544-0.3476563-1.0357513-1.1255188-1.0297852
		C141.0201569,208.7085419,137.1068268,208.6900635,133.193634,208.6885986z M133.20961,131.1960907
		c-0.0138245,3.9946442-0.0106049,7.9894562-0.0560913,11.9837341c-0.0089264,0.7859344,0.322876,0.9191437,1.0065918,0.9144287
		c3.5977936-0.0248871,7.196106-0.0331268,10.7937012,0.0044403c0.83815,0.008728,1.1077423-0.2621765,1.0996246-1.0959778
		c-0.0350494-3.5955811-0.0321045-7.1918335-0.0006561-10.7874908c0.006546-0.7494049-0.1678162-1.0526276-0.9890747-1.0430298
		c-3.957016,0.0462799-7.9147491,0.033432-11.8722076,0.0415497c0-4.3234634-0.0000153-8.6469345-0.0000458-12.9703903
		c3.9583588,0.0066757,7.9169464-0.0082169,11.8748627,0.0376205c0.8262482,0.0095749,0.9923706-0.3008423,0.9860535-1.0455399
		c-0.0305023-3.5963821-0.0339203-7.1933441,0.0009766-10.7896347c0.0081177-0.8358307-0.266449-1.1016693-1.1024933-1.0929031
		c-3.5982971,0.0376816-7.1973267,0.0301971-10.7958221,0.0038681c-0.6900635-0.005043-1.0101166,0.1378403-1.0013275,0.9178314
		c0.0450439,3.995079,0.0420074,7.9907074,0.0557861,11.986145c-4.3257294-0.0000763-8.6514587-0.0001526-12.9771881-0.0002289
		c-0.0009842-3.9127655-0.0229721-7.8257141,0.0138245-11.738121c0.0078735-0.8368073-0.1365433-1.193512-1.0966568-1.1775284
		c-3.5944366,0.0598297-7.1910629,0.0599976-10.7854843-0.0000458c-0.9601746-0.0160446-1.1076736,0.3444824-1.0995712,1.177742
		c0.0380554,3.9123993,0.0211029,7.8253326,0.0237808,11.7380753c-4.3257904,0.0000305-8.6515884,0.000061-12.9773712,0.0000992
		c0.0112534-3.9971085,0.0051651-7.9944,0.0486069-11.9911499c0.0085526-0.7863312-0.3204422-0.9173889-1.0050735-0.9125137
		c-3.599762,0.0256577-7.2000351,0.0333557-10.7995987-0.0039749c-0.8378372-0.0086899-1.110672,0.2619095-1.1026382,1.0967178
		c0.0345993,3.5975571,0.0329208,7.1958008-0.0003433,10.7933807c-0.0070343,0.7607498,0.1875153,1.0456314,0.9977951,1.0367737
		c3.9593353-0.0432816,7.9192963-0.0299301,11.8790359-0.0366135c-0.0000305,4.32341-0.000061,8.6468277-0.0000839,12.9702377
		c-3.9590378-0.0080719-7.9181747-0.0048828-11.8770523-0.0349884c-0.677063-0.0051727-1.0083771,0.1224823-1.0006714,0.9095917
		c0.0360107,3.6769257,0.0293427,7.3544769,0.005928,11.0315857c-0.0046005,0.7234344,0.2467499,0.9790649,0.9749451,0.9740601
		c3.6792068-0.0252838,7.3587875-0.0258942,11.0379791,0.0011444c0.6950607,0.0051117,0.8896484-0.2539825,0.8846207-0.9094849
		c-0.0306244-3.9963226-0.0322266-7.9929047-0.0435028-11.9893799c4.3258438,0.0000763,8.6516876,0.0001373,12.9775391,0.0001984
		c-0.0027237,3.9115448,0.0148239,7.823288-0.0243378,11.7344818c-0.0083847,0.8378296,0.1468887,1.1912842,1.1020203,1.1756287
		c3.5933685-0.0589142,7.1888657-0.0589905,10.7822342,0.0001831c0.9564285,0.0157471,1.1062469-0.3356171,1.0981903-1.1754456
		c-0.0374908-3.9112244-0.0150528-7.8230133-0.0140533-11.7345886
		C124.5581131,131.1964111,128.8838654,131.1962585,133.20961,131.1960907z M133.2101288,79.6254196
		c-0.0139923,3.9963226-0.0239716,7.9926605-0.0469208,11.9889297c-0.0029449,0.5121231,0.0961304,0.8219528,0.7156219,0.8191071
		c3.7992859-0.0174942,7.5987244-0.0150909,11.3980713-0.0023956c0.5704346,0.0019073,0.7680359-0.2307434,0.7662201-0.7850494
		c-0.0124054-3.7571793-0.0119934-7.5144577,0.000473-11.2716446c0.0017853-0.5366974-0.1487579-0.8121033-0.7419281-0.8067856
		c-4.0365906,0.0361862-8.0733643,0.0539474-12.1100922,0.0776443c-0.0218811-3.9123764-0.0751801-7.8250198-0.0432587-11.7369614
		c0.0078735-0.9648361-0.2139282-1.3056946-1.2403564-1.2871628c-3.474823,0.0626907-6.9521103,0.0597839-10.427063,0.0007477
		c-0.9736938-0.0165405-1.2944641,0.2125092-1.2760468,1.2348633c0.0640259,3.5526733,0.0031662,7.1074524,0.0412064,10.660881
		c0.0083923,0.7840271-0.2219543,1.0200958-1.0090408,1.0119781c-3.6353912-0.0375061-7.2716827-0.0410995-10.9069519,0.0018387
		c-0.8477783,0.0100098-1.0766678-0.2579422-1.0672684-1.0833817c0.040451-3.5533752-0.0069427-7.1077652,0.0349426-10.6611023
		c0.009903-0.8401031-0.1351318-1.1829529-1.0918045-1.1666183c-3.59478,0.0614166-7.1918564,0.061348-10.786644,0.0000839
		c-0.9556198-0.0162888-1.0990219,0.3247452-1.091629,1.1655579c0.034729,3.952713,0.0063934,7.9059753,0.0005951,11.8590164
		c-4.0290451-0.0237732-8.0581818-0.0388412-12.0870514-0.0798874c-0.6691895-0.006813-0.7828598,0.3227539-0.7807693,0.8880692
		c0.0136719,3.7101288,0.0160828,7.4203644-0.0008621,11.1304626c-0.0027695,0.6059494,0.1977463,0.8523788,0.8241577,0.8495789
		c3.7521439-0.0168152,7.5044708-0.019455,11.2565536,0.0033112c0.6413116,0.003891,0.8177261-0.2408676,0.8133926-0.8437729
		c-0.0287018-3.9888535-0.0317383-7.9778824-0.0431366-11.9668579c4.0737457-0.0178223,8.1476822-0.0192566,12.221077-0.0671005
		c0.8291626-0.0097351,0.7508926,0.4772186,0.7503128,1.0073776c-0.0038452,3.5537262,0.0252991,7.1078186-0.0208511,10.6609497
		c-0.011673,0.8985138,0.1727066,1.2419281,1.1660156,1.224144c3.5546341-0.0636368,7.1118546-0.0653992,10.6663895,0.0009613
		c1.0056381,0.0187759,1.1654129-0.3426514,1.1543503-1.2284241c-0.0443726-3.5531845-0.0157394-7.1072388-0.020813-10.6609726
		c-0.0007706-0.5389633-0.0567169-1.0130234,0.7617264-1.0036011
		C125.0622559,79.6061096,129.1362915,79.6078262,133.2101288,79.6254196z M62.0682869,208.6930542
		c-1.8374977,0-3.6758842,0.0330811-5.5120697-0.0160675c-0.7497787-0.02005-0.9435425,0.240509-0.9376945,0.9569855
		c0.0299835,3.6726532,0.0272255,7.3457642,0.0018539,11.0184784c-0.0047188,0.6833344,0.1297798,0.990921,0.9109726,0.9828339
		c3.6746025-0.038147,7.3499756-0.0344849,11.0246887-0.0023499c0.7376862,0.0064697,0.9550858-0.2318573,0.9492264-0.9560547
		c-0.0297241-3.6726532-0.0380402-7.3459473,0.0048523-11.0183563c0.0097427-0.8341522-0.3134308-0.994873-1.0494537-0.9785309
		C65.6639862,208.7198486,63.8658409,208.6929932,62.0682869,208.6930542z M81.4125977,47.2611885
		c0-1.8763885-0.0147095-3.7529602,0.0087738-5.629055c0.0072479-0.5790405-0.1185913-0.8629913-0.7863159-0.8583794
		c-3.7547531,0.0259361-7.5098495,0.0234985-11.2646484,0.0016518c-0.6257858-0.0036392-0.827858,0.2089424-0.8245239,0.827198
		c0.0202789,3.7526665,0.0180664,7.5055389,0.0012741,11.2582436c-0.0026169,0.5840569,0.1340027,0.8648911,0.794281,0.860775
		c3.7547836-0.0234413,7.5098572-0.0229492,11.2646408,0.0003319c0.6341476,0.0039291,0.8259506-0.2197151,0.8166733-0.8317566
		C81.3942947,51.0142403,81.4124069,49.1375771,81.4125977,47.2611885z M158.9540253,47.2867622
		c0-1.8762131-0.0241089-3.7528992,0.0127563-5.6283875c0.013382-0.6795464-0.2121887-0.8904419-0.8905792-0.885437
		c-3.7144318,0.0273895-7.4293365,0.0307961-11.1436768-0.0019302c-0.7329254-0.0064583-0.8484039,0.3011894-0.845047,0.9268188
		c0.0199585,3.7124023,0.0236359,7.4250603-0.0023804,11.1373825c-0.0047302,0.6748505,0.2079163,0.8931732,0.8864594,0.8882599
		c3.6744995-0.0265999,7.3496094-0.0378418,11.0237579,0.006752c0.8452911,0.0102539,0.9871368-0.3267212,0.9714508-1.0546074
		C158.9280396,50.8800697,158.954071,49.0831375,158.9540253,47.2867622z M171.8792572,215.154129
		c0-1.8367462-0.0260162-3.6740265,0.0132446-5.5099335c0.0150146-0.7022247-0.1617737-0.9754944-0.9254303-0.9677734
		c-3.6752167,0.0370636-7.3511658,0.0357513-11.0264282,0.0011749c-0.7559357-0.0070801-0.9434204,0.2562714-0.9378052,0.9690094
		c0.0289612,3.6732483,0.028717,7.3469543,0.0002136,11.0202026c-0.0055237,0.7133331,0.1912384,0.9730682,0.9402161,0.9663696
		c3.675293-0.032959,7.3512268-0.0354156,11.0264282,0.0019073c0.7673492,0.0077972,0.937149-0.2728424,0.9225616-0.9710083
		C171.8538818,218.828125,171.8792877,216.99086,171.8792572,215.154129z M74.8798447,131.1894836
		c1.8375092,0,3.6756897-0.0287476,5.512207,0.0140381c0.744133,0.017334,1.0490723-0.1547089,1.039505-0.9800568
		c-0.0425873-3.6724091-0.0347443-7.3457413-0.0045929-11.0184097c0.0058899-0.7174225-0.1908417-0.9639969-0.9380417-0.9569168
		c-3.6746979,0.0347977-7.3501129,0.0364304-11.024765-0.0006027c-0.774559-0.0078049-0.9265518,0.2852097-0.9214249,0.9805984
		c0.0270996,3.6727219,0.0289307,7.3458633-0.0011215,11.0185394c-0.0059128,0.7224426,0.2043152,0.9765472,0.9459152,0.95755
		C71.2839127,131.1582031,73.0822754,131.18927,74.8798447,131.1894836z M158.9538727,124.7251663
		c0-1.8363037-0.0262299-3.6731491,0.0132599-5.5085907c0.0152435-0.7074432-0.1755066-0.9754868-0.9322815-0.9682999
		c-3.6743774,0.0348663-7.3494415,0.0354309-11.0237885-0.0003967c-0.7619324-0.0074234-0.9321594,0.2682953-0.9268341,0.9701996
		c0.0278931,3.6723862,0.0279541,7.3452148,0.0001068,11.0175781c-0.0053558,0.7031555,0.1681671,0.9769745,0.9284515,0.969635
		c3.6743469-0.0354919,7.349411-0.0351257,11.0237885-0.0003052c0.75914,0.0071869,0.9454498-0.2661591,0.9304504-0.9712067
		C158.9279633,128.3983002,158.9538879,126.5614624,158.9538727,124.7251663z M113.6395798,247.424118
		c1.8769608,0,3.7543869-0.0239716,5.6306381,0.0124512c0.6960983,0.0135193,0.9841537-0.1488342,0.9760971-0.9235535
		c-0.0385818-3.7114563-0.0358429-7.4237213-0.0011063-11.1352386c0.0068512-0.7317963-0.2872467-0.8403168-0.9168549-0.836441
		c-3.7138519,0.0228424-7.4279861,0.022644-11.1418304,0.0000458c-0.6301575-0.00383-0.9278259,0.1085663-0.9212875,0.8388062
		c0.0331955,3.7115479,0.0358734,7.4237823-0.0013428,11.1352539c-0.0078125,0.7776184,0.2924347,0.934967,0.9846573,0.9209747
		C110.0449066,247.4000854,111.8424911,247.4242096,113.6395798,247.424118z M100.9205704,260.3361206
		c1.8391418,0,3.6784973-0.0162048,5.5172806,0.0093689c0.5902863,0.0081787,0.8573914-0.1396484,0.8531265-0.7959595
		c-0.0244064-3.7559052-0.023941-7.5121918,0.0000763-11.2680817c0.0040817-0.6375275-0.22155-0.8142548-0.8328323-0.8108368
		c-3.7581253,0.0210571-7.5164566,0.019455-11.2746124,0.0010071c-0.5877304-0.0028687-0.8549042,0.128479-0.8502121,0.7904968
		c0.0266495,3.7559052,0.0253754,7.5121918,0.0009842,11.2680969c-0.0041199,0.635437,0.2161255,0.8252258,0.8290405,0.8162231
		C97.0821075,260.3181763,99.0014725,260.3360596,100.9205704,260.3361206z M113.7788086,273.2368774
		c1.8793411,0,3.7590179-0.0202637,5.637825,0.0115967c0.6142426,0.0104065,0.8299942-0.1673279,0.8254471-0.8070374
		c-0.0264282-3.7163696-0.0362091-7.4333191,0.0053711-11.1493835c0.0089493-0.7991943-0.3163223-0.9074707-0.9909973-0.9030457
		c-3.6785583,0.0239563-7.3574753,0.0277405-11.0359421-0.0024109c-0.7238312-0.0059814-0.9620743,0.2052307-0.9553757,0.9453125
		c0.0332947,3.6762695,0.0294952,7.3531494,0.0021439,11.0295715c-0.0049744,0.6688538,0.1820679,0.9053345,0.8738174,0.8900146
		C110.0195236,273.2099304,111.8994598,273.2372131,113.7788086,273.2368774z M100.8989868,156.9948273
		c1.7997208,0,3.5998535-0.0218506,5.3989639,0.0112457c0.6770401,0.0124359,1.0072479-0.1118011,0.9988403-0.9087982
		c-0.0391922-3.7168732-0.0285492-7.4344788-0.0061798-11.1516266c0.0036697-0.6102448-0.1602631-0.8381805-0.8055878-0.833786
		c-3.7592468,0.0256653-7.5188904,0.0279541-11.2780762-0.0015717c-0.6899109-0.0054169-0.8796844,0.2178192-0.8745728,0.8890381
		c0.0280075,3.677124,0.0410767,7.3549194-0.0068741,11.0316315c-0.011116,0.853302,0.3314819,0.9885101,1.0545349,0.9750061
		C97.2191238,156.9716492,99.0592651,156.9945679,100.8989868,156.9948273z M126.6244354,260.3363647
		c1.8785553,0,3.7574158-0.0185852,5.6355286,0.010376c0.6333008,0.0097046,0.927536-0.1266785,0.9212646-0.8513184
		c-0.0321045-3.7147675-0.0292511-7.4300232-0.0012817-11.1448517c0.005127-0.6793518-0.2057495-0.8880005-0.8844757-0.8829041
		c-3.7169495,0.027832-7.4342499,0.0239716-11.1512833,0.0029297c-0.6296234-0.0036163-0.9349213,0.1136627-0.9286423,0.8447266
		c0.0318985,3.7147369,0.0281601,7.4299927,0.0021744,11.1448212c-0.0047379,0.6775513,0.2112427,0.9032288,0.8912125,0.8892517
		C122.9467468,260.3116455,124.7858582,260.3364868,126.6244354,260.3363647z M113.7419052,157.0508423
		c-1.836235,0-3.6730347,0.0265808-5.5084-0.0135345c-0.7012939-0.0153046-0.9772873,0.1568604-0.9696655,0.9206238
		c0.0366135,3.6699829,0.0333252,7.3406982,0.0020218,11.0107727c-0.0061646,0.7226563,0.20047,0.9611969,0.9406967,0.9546509
		c3.7120895-0.0328674,7.4247208-0.0279236,11.1369247-0.0030975c0.655571,0.0043945,0.9056244-0.1634521,0.8998413-0.8649292
		c-0.0306015-3.7099915-0.028862-7.4204865-0.0006104-11.1305237c0.0051041-0.6709442-0.1842804-0.9028473-0.8726654-0.8879242
		C117.4947739,157.0775452,115.6180573,157.0508575,113.7419052,157.0508423z M100.7759323,182.8294983
		c1.8791351,0,3.7588196-0.0261993,5.6371078,0.0137634c0.6865768,0.0146179,0.884613-0.2153168,0.8796082-0.8887024
		c-0.0273743-3.6759949-0.0287628-7.3524323,0.0008926-11.0283813c0.005722-0.7098541-0.1758347-0.9761505-0.9311371-0.9692841
		c-3.7179871,0.033844-7.436554,0.0299377-11.1546402,0.0024414c-0.6893463-0.0050964-0.8792648,0.2296295-0.8744125,0.8968353
		c0.0266953,3.6760101,0.0409393,7.3527069-0.008606,11.028244c-0.0116043,0.8605499,0.3378296,0.9721832,1.0539246,0.957428
		C97.1770706,182.8047943,98.9767532,182.8295898,100.7759323,182.8294983z M126.5967941,182.8295441
		c1.8785782,0,3.7578354-0.0295868,5.6353531,0.0148773c0.7269897,0.0172119,0.9576416-0.1991272,0.9506378-0.9403687
		c-0.0348816-3.6747894-0.0378571-7.3502808,0.0011902-11.0249634c0.0082855-0.7795258-0.2862396-0.924408-0.97995-0.9193878
		c-3.677002,0.0266418-7.3544464,0.0287323-11.0314026-0.0014496c-0.7262268-0.0059662-0.9635468,0.2133789-0.957222,0.9492645
		c0.0315781,3.6748505,0.0350571,7.3502808-0.0019455,11.0250244c-0.0078659,0.7809906,0.3026047,0.9233398,0.9876938,0.9093475
		C122.9990234,182.8051605,124.7981567,182.8294983,126.5967941,182.8295441z M107.2798157,98.9801483
		c0-1.8369827-0.0224762-3.6743851,0.0117569-5.5107269c0.0125885-0.6754608-0.1070862-1.0050735-0.9030762-0.9967804
		c-3.7156296,0.0386963-7.4319458,0.028244-11.14785,0.0067291c-0.6436691-0.0037308-0.9154205,0.149437-0.9092941,0.8625412
		c0.0318604,3.7136154,0.0311203,7.4277954-0.0003433,11.1414337c-0.0059967,0.7084808,0.2536926,0.8625946,0.9054108,0.8581848
		c3.7158585-0.0251923,7.4322281-0.0351639,11.1477966,0.0063324c0.7873611,0.0087814,0.9237747-0.2877808,0.9087982-0.97686
		C107.2539444,102.5747986,107.2798615,100.7771988,107.2798157,98.9801483z M113.792717,195.7579346
		c1.8772125,0,3.7547989-0.0212097,5.6314316,0.0119781c0.6218185,0.0110016,0.8222656-0.180481,0.8178864-0.8124084
		c-0.0259933-3.7520905-0.0248108-7.5045471-0.0020065-11.2566681c0.0038147-0.6270752-0.2096863-0.828476-0.8251343-0.8254242
		c-3.7543335,0.018692-7.5089035,0.0223236-11.2631454-0.0037384c-0.6833115-0.0047607-0.8877792,0.2277222-0.8832321,0.8970032
		c0.0252304,3.7121887,0.0283051,7.4247589-0.002594,11.1368713c-0.0058136,0.6983337,0.2332687,0.8789368,0.8954086,0.86586
		C110.0378036,195.7343292,111.9155045,195.7584076,113.792717,195.7579346z M139.5439606,195.7583008
		c1.8361511,0,3.6726532-0.0200806,5.5082855,0.0105438c0.6717834,0.0112152,1.0110626-0.1137695,1.0029602-0.9076385
		c-0.0374603-3.6698456-0.030777-7.340332-0.0051575-11.0103455c0.0050507-0.7190552-0.2268219-0.9836884-0.9608612-0.9785767
		c-3.6721191,0.025589-7.344574,0.022995-11.0167542,0.0005951c-0.6559753-0.0039978-0.9204407,0.1860504-0.9158783,0.8785858
		c0.0244598,3.7099304,0.0249023,7.4201813-0.0010376,11.1300964c-0.0046844,0.6694489,0.19487,0.9046478,0.8802948,0.8899078
		C135.8711243,195.7319794,137.7078094,195.7580109,139.5439606,195.7583008z M152.524704,260.3364258
		c1.7585602,0,3.5184937-0.0412292,5.2751007,0.0176697c0.8623962,0.0289001,1.1892853-0.1843262,1.1754913-1.1177368
		c-0.0525513-3.5542603-0.0412445-7.1100006-0.005722-10.6646881c0.0079956-0.7980652-0.1726837-1.1209106-1.0499115-1.1097717
		c-3.5964508,0.0457001-7.193985,0.0359802-10.7907715,0.0052643c-0.7454071-0.0063477-1.0573425,0.163559-1.0485229,0.9849243
		c0.0390778,3.6345062,0.0374756,7.2698975,0.0008392,10.9044495c-0.0081787,0.8122253,0.2927399,1.0126648,1.0482788,0.9940796
		C148.9269104,260.3063049,150.726181,260.3363037,152.524704,260.3364258z M61.9179726,66.6010132
		c1.876545,0,3.7532997-0.0160217,5.6295128,0.0089798c0.6291046,0.0083847,0.9558792-0.1467361,0.9519424-0.8583679
		c-0.020752-3.7508125-0.0153885-7.5018234-0.0024185-11.2527084c0.0018387-0.532917-0.1312943-0.7987289-0.733757-0.7957993
		c-3.7929306,0.0184631-7.5860214,0.017662-11.3789482-0.0001526c-0.5705643-0.0026817-0.7616882,0.1962166-0.759182,0.761116
		c0.0166092,3.7508583,0.0193367,7.5018806-0.0018768,11.2526932c-0.0037994,0.6722336,0.2288208,0.9090118,0.9048843,0.8959351
		C58.3241463,66.57798,60.1212845,66.600914,61.9179726,66.6010132z M171.8786011,60.1899376
		c0-1.8758507-0.0028839-3.7517166,0.0020599-5.6275597c0.0012054-0.4607658,0.0211639-0.861496-0.6531219-0.8582268
		c-3.8336334,0.0186157-7.6674347,0.0138664-11.5011292,0.0031128c-0.5007782-0.0014038-0.7155304,0.1729698-0.7140045,0.6915741
		c0.0111389,3.7915878,0.0126648,7.5832443-0.0007324,11.3748131c-0.002182,0.6166687,0.2448273,0.8367157,0.8547516,0.8341217
		c3.7138519-0.0157852,7.4279175-0.0213242,11.1416473,0.0055542c0.6990814,0.0050507,0.8895264-0.2678833,0.8799286-0.9157028
		C171.8607788,63.8620872,171.8784637,62.0258827,171.8786011,60.1899376z M49.2036629,66.6453094
		c-1.8768311,0-3.7541656,0.0248489-5.6302261-0.013176c-0.6775055-0.0137329-0.8927689,0.2051697-0.8878555,0.8834991
		c0.0268784,3.7113953,0.026577,7.4231949,0.0009422,11.134613c-0.004818,0.6969452,0.2615051,0.8777008,0.9158592,0.8736038
		c3.6736526-0.0230331,7.3476067-0.0243378,11.021244-0.0004578c0.7191353,0.0046768,0.9763184-0.2316971,0.9707069-0.9659042
		c-0.0280533-3.6714783-0.033638-7.3434982,0.0043983-11.014801c0.008255-0.7966461-0.3369827-0.9179916-1.0043335-0.9072876
		C52.7978973,66.6642075,51.0006294,66.6452484,49.2036629,66.6453094z M81.4128723,73.0433655
		c0-1.8382721-0.022995-3.6769791,0.0121231-5.5145798c0.0127716-0.6684418-0.1956329-0.9014206-0.8829575-0.8962936
		c-3.6784286,0.0274582-7.3573074,0.0287399-11.0357056-0.0010147c-0.7204056-0.0058212-0.9721756,0.1992569-0.9655304,0.9441528
		c0.0324936,3.6362686,0.0314713,7.27314,0.0011063,10.9094543c-0.0063705,0.7631454,0.2095566,1.0507278,1.0120544,1.0429993
		c3.6383133-0.0350266,7.277298-0.0317841,10.9157028-0.0016708c0.7395554,0.0061188,0.9706955-0.2481995,0.955925-0.9685211
		C81.3879242,76.7203979,81.4130478,74.8816223,81.4128723,73.0433655z M152.5263672,79.5127869
		c1.7992706,0,3.5992889-0.0307159,5.3974152,0.0144272c0.7677765,0.0192795,1.0518646-0.21064,1.0445557-1.0086441
		c-0.0332489-3.636116-0.028595-7.2728119-0.0022583-10.9090424c0.0050354-0.6971664-0.1620331-0.986969-0.9276886-0.9797592
		c-3.6781616,0.0346375-7.3569031,0.0271606-11.0352478,0.0046463c-0.6453552-0.0039444-0.9237976,0.1533737-0.9183807,0.861969
		c0.0283813,3.7161179,0.026474,7.432663,0.0018921,11.1488266c-0.0046234,0.6977692,0.2676849,0.8890839,0.9221497,0.8781815
		C148.8475342,79.4927521,150.6871185,79.5127106,152.5263672,79.5127869z M68.4917755,86.1114426
		c0-1.7975311-0.041687-3.5964584,0.0179901-5.3920059c0.0288544-0.8683167-0.1953049-1.1828995-1.1234283-1.1692657
		c-3.5564041,0.0522232-7.114254,0.0426559-10.6710167,0.0047379c-0.8098679-0.0086288-1.1126366,0.1894531-1.1018791,1.0557327
		c0.0446205,3.5945206,0.03508,7.1900482,0.0052757,10.784874c-0.0061798,0.7447739,0.1632652,1.057518,0.9888687,1.0483017
		c3.6366539-0.0406113,7.2742538-0.0398636,10.9109306-0.0008469c0.8299561,0.0089035,1.002243-0.3212509,0.9857483-1.0590363
		C68.4649811,89.6272202,68.4916,87.8690338,68.4917755,86.1114426z M171.8793335,85.9965591
		c0-1.79776-0.0270844-3.5961151,0.0131073-5.3929749c0.0164948-0.737999-0.1507416-1.0596313-0.9818573-1.0501022
		c-3.6370697,0.0416946-7.2751007,0.0384903-10.9122925,0.0022507c-0.8124084-0.0080872-1.0028076,0.2934036-0.9961395,1.0484467
		c0.0317841,3.5952377,0.0308075,7.1910477,0.0007477,10.7863159c-0.0062714,0.7504883,0.1807556,1.0597229,0.9963531,1.0515289
		c3.6371765-0.0365448,7.2752228-0.0400238,10.912262,0.002449c0.8372498,0.0097733,0.9955139-0.3233414,0.9802094-1.0548935
		C171.8541412,89.592598,171.8794403,87.7943192,171.8793335,85.9965591z M81.4133682,98.9019165
		c0-1.7967148-0.0301514-3.5941772,0.0141983-5.3897858c0.0188675-0.7636948-0.2014465-1.046669-1.0057526-1.0384598
		c-3.5951157,0.0367508-7.1910324,0.0369644-10.7861328-0.0002213c-0.8240814-0.0085144-1.1071091,0.2283478-1.097496,1.0775986
		c0.0406799,3.5929642,0.0381699,7.1868744,0.0007095,10.7799149c-0.0082092,0.786911,0.2346573,1.0212631,1.0151596,1.0137634
		c3.6351013-0.0349503,7.2710419-0.0411377,10.9059372,0.0035782c0.8478851,0.010437,0.9817352-0.3320389,0.9660568-1.0565262
		C81.3871689,102.495903,81.413269,100.6986313,81.4133682,98.9019165z M126.5987778,105.3284302
		c1.8767624,0,3.7538376-0.0189896,5.6301498,0.0103836c0.6510468,0.0101776,0.9160767-0.1742477,0.910553-0.8754272
		c-0.0288849-3.6713638-0.0303192-7.3431854-0.0001526-11.0145187c0.0059967-0.7284546-0.2322845-0.9737396-0.9545593-0.9691162
		c-3.6735229,0.0234909-7.3474426,0.0271912-11.0208588-0.0043411c-0.7365723-0.0063095-0.953949,0.2342987-0.9479294,0.9580994
		c0.0301743,3.6314163,0.032692,7.2633972-0.0014343,10.8947525c-0.007164,0.7624817,0.1868744,1.0451965,0.994072,1.0191727
		C123.0036545,105.289566,124.8018646,105.3293762,126.5987778,105.3284302z M152.4736938,105.3293076
		c1.7976379,0,3.5963135-0.0358582,5.3924561,0.0163269c0.8029785,0.0233307,1.1191406-0.1650848,1.1075439-1.0445023
		c-0.047287-3.592598-0.036377-7.1863327-0.0062714-10.7793045c0.0063171-0.753067-0.1873932-1.0560913-0.9995728-1.0479279
		c-3.6348724,0.0365524-7.2704163,0.0299301-10.9054565,0.0038376c-0.7079926-0.0050812-0.9849243,0.1940155-0.9787292,0.9430618
		c0.030426,3.6728134,0.0345154,7.3462372-0.0024872,11.0189362c-0.0079956,0.7922592,0.3271179,0.9134674,0.9998016,0.9009323
		C148.8779907,105.3071442,150.6760406,105.3292465,152.4736938,105.3293076z M62.0063858,118.2635574
		c1.797245,0,3.5954895-0.0348434,5.3912888,0.0159836c0.7944565,0.0224838,1.1256104-0.1492767,1.1137772-1.0366211
		c-0.0479126-3.5918045-0.0377731-7.1847763-0.0061722-10.7769318c0.0070572-0.8017044-0.2007065-1.1250916-1.0696869-1.1148148
		c-3.5939941,0.0425186-7.1890144,0.0391006-10.7831154,0.0012665c-0.7857704-0.0082779-1.0393791,0.2350311-1.0330467,1.01371
		c0.0295258,3.6321106,0.0327721,7.2647934-0.0029564,10.8967972c-0.007576,0.770134,0.1985931,1.0424728,0.9986839,1.017868
		C58.4107132,118.2255936,60.2091293,118.2635193,62.0063858,118.2635574z M171.8783112,111.772728
		c0-1.8363266-0.0186768-3.6729431,0.009964-5.5088272c0.0102844-0.6587219-0.2012787-0.9114761-0.8903961-0.9066162
		c-3.6745758,0.0259171-7.3495636,0.0272141-11.0241089-0.0007782c-0.735733-0.0056076-0.9712677,0.2590637-0.9669495,0.9731445
		c0.0221863,3.6725159,0.0284271,7.3454285-0.0056763,11.0177689c-0.0070343,0.7584,0.2704163,0.9344406,0.9748688,0.9290619
		c3.6745453-0.0280609,7.3495331-0.0272522,11.0241089-0.0002823c0.6692657,0.0049133,0.906662-0.1871567,0.8921509-0.8750076
		C171.8527222,115.5257721,171.8786774,113.6489792,171.8783112,111.772728z M171.9251404,253.7706604
		c0,1.8760071,0.0175781,3.7522888-0.0098724,5.6278687c-0.0091858,0.627655,0.1324463,0.9510193,0.8492737,0.9466858
		c3.7540283-0.0226746,7.5082855-0.0168152,11.2623749-0.0022278c0.5394287,0.0020752,0.7990723-0.1401062,0.7964478-0.7356262
		c-0.0167084-3.7918549-0.0160675-7.5838318-0.0001526-11.3757019c0.0023651-0.5685272-0.2018585-0.7612457-0.7677612-0.758667
		c-3.7540588,0.0172424-7.5083466,0.021225-11.2623596-0.0017853c-0.6858215-0.0041962-0.8925476,0.2487946-0.8799286,0.9111633
		C171.9473724,250.177887,171.9248962,251.974472,171.9251404,253.7706604z M68.4915466,266.848938
		c0-1.7965698-0.0236816-3.5935974,0.0116119-5.3894653c0.0142059-0.7227783-0.1323166-1.0840454-0.9746475-1.0753174
		c-3.6747093,0.0381775-7.3501358,0.0302124-11.0250587,0.0047913c-0.6921158-0.0047913-0.8851128,0.2549438-0.8812485,0.9108887
		c0.0218773,3.7127991,0.0229149,7.4258728-0.000248,11.1386414c-0.0040054,0.6421814,0.2350578,0.8119202,0.8418961,0.8085632
		c3.7149315-0.0205383,7.43013-0.0235596,11.1450119,0.0018005c0.675766,0.0046387,0.907402-0.2133179,0.8944244-0.890625
		C68.4681015,270.5223694,68.4912262,268.6854248,68.4915466,266.848938z M87.8410645,273.2368774
		c1.8789825,0,3.75811-0.01297,5.6368561,0.0078735c0.5617981,0.0062561,0.8830109-0.0817566,0.8783493-0.7672119
		c-0.0254669-3.7556458-0.0220795-7.5115662-0.0018463-11.2672729c0.0034103-0.6328735-0.2372894-0.8212891-0.8448334-0.8182373
		c-3.7178955,0.0187683-7.4359741,0.0204468-11.1538467-0.0002747c-0.6726913-0.0037537-0.9030838,0.234314-0.8989639,0.906189
		c0.0225067,3.6757507,0.0290604,7.3518982-0.0054932,11.0274658c-0.0072708,0.7740784,0.3039398,0.9362488,0.9929123,0.9231567
		C84.2425766,273.214386,86.042038,273.23703,87.8410645,273.2368774z M55.6321144,137.5417938
		c0,1.7959442,0.0348091,3.592865-0.0152626,5.3874207c-0.0236549,0.8479004,0.1818047,1.1902771,1.121582,1.1757813
		c3.5531769-0.0548706,7.107933-0.0433044,10.6615753-0.0064087c0.8228455,0.0085602,1.1158905-0.2315063,1.107254-1.0784454
		c-0.0370407-3.631424-0.032547-7.2635956-0.0017548-10.8951416c0.0061874-0.7301331-0.2215881-0.9563904-0.9530792-0.9500885
		c-3.6735573,0.031662-7.3477478,0.0355835-11.0211754-0.0024109c-0.779747-0.0080566-0.9251328,0.2963409-0.9111671,0.9816895
		C55.6566544,133.9494019,55.6324196,135.7458344,55.6321144,137.5417938z M171.8786163,189.2991486
		c0-1.8388519-0.0083923-3.6777954,0.0051575-5.5165558c0.0040131-0.544693-0.069809-0.9107971-0.7640686-0.9069214
		c-3.7597198,0.0210419-7.5196533,0.0184174-11.2794037,0.0018158c-0.6316833-0.0027771-0.8326874,0.2555084-0.830246,0.8595123
		c0.0150146,3.7176361,0.020874,7.4354706-0.0059662,11.1529846c-0.0050049,0.692749,0.2472687,0.8833313,0.9080048,0.8791656
		c3.719696-0.023407,7.4396973-0.0237579,11.1593628,0.0004883c0.6390839,0.0041656,0.8264618-0.2215271,0.8171387-0.8341217
		C171.8599854,193.0571136,171.8781738,191.1779938,171.8786163,189.2991486z M146.0384064,266.8525085
		c0-1.7974243-0.0255432-3.5953674,0.0124359-5.3919983c0.0154419-0.7298279-0.1413269-1.0836182-0.9774017-1.0754089
		c-3.6764679,0.0360718-7.3535919,0.0292053-11.0302277,0.0036316c-0.6862335-0.0047913-0.8907471,0.238739-0.8865814,0.9031067
		c0.0232544,3.7145081,0.0236053,7.4293518,0.0002136,11.1438599c-0.0040283,0.6392212,0.2266388,0.8148804,0.8374786,0.8114319
		c3.7166748-0.0210876,7.4337158-0.0308838,11.1501312,0.0056763c0.7983551,0.007843,0.9168854-0.3373718,0.9050446-1.0082397
		C146.0178223,270.4477234,146.0386963,268.6499329,146.0384064,266.8525085z M81.4134064,202.3391113
		c0-1.7961731-0.0350418-3.593338,0.0153427-5.3881073c0.0238419-0.8493347-0.1838989-1.1890869-1.1226501-1.1745911
		c-3.553627,0.0548706-7.1088333,0.0433655-10.6629257,0.0063477c-0.8231277-0.0085602-1.1117477,0.2351074-1.1032639,1.0779724
		c0.0365601,3.631897,0.032692,7.2645416,0.0011139,10.8965302c-0.00634,0.730072,0.2170792,0.9563141,0.9499893,0.9499359
		c3.6740112-0.032074,7.3486633-0.0356598,11.0225754,0.0021515c0.7792587,0.0079956,0.9257965-0.2962341,0.9118576-0.9819489
		C81.3889236,205.9319611,81.4131165,204.1352997,81.4134064,202.3391113z M171.8793335,163.4845581
		c0-1.7978973-0.0253601-3.5962982,0.0124054-5.3934021c0.0152588-0.7260284-0.1267853-1.0687866-0.9716187-1.0586853
		c-3.6372986,0.0434418-7.2755737,0.0385132-10.9130554,0.0030823c-0.8005981-0.0077972-1.0125885,0.2710266-1.0054932,1.0375824
		c0.0333252,3.595459,0.0302582,7.1915283,0.0019836,10.7870789c-0.0057983,0.7383118,0.158371,1.0722809,0.9863892,1.0638428
		c3.6374359-0.0370026,7.2756958-0.0388031,10.9130554,0.0016174c0.8243713,0.0091553,1.00737-0.3007965,0.9899597-1.0478058
		C171.85112,167.0809631,171.879425,165.2824402,171.8793335,163.4845581z M159.0163879,266.8477783
		c0,1.836792,0.0235291,3.6740417-0.0122528,5.5101318c-0.0132751,0.6799011,0.2223816,0.8950806,0.8961792,0.890564
		c3.7154999-0.0247803,7.4313049-0.0219727,11.1468506-0.0016479c0.6051025,0.0033264,0.8464661-0.1630859,0.8424072-0.8069458
		c-0.0234528-3.7133789-0.0222626-7.4270325-0.0000763-11.1404724c0.0039063-0.6556702-0.1865234-0.9154968-0.8798828-0.910614
		c-3.6755066,0.0257874-7.351532,0.0326233-11.0268707-0.0041504c-0.8355255-0.0083618-0.9942169,0.3421326-0.9787903,1.0727844
		C159.0418701,263.253479,159.0163574,265.0509033,159.0163879,266.8477783z M152.4555511,208.6922607
		c1.8770142,0,3.7545929-0.026062,5.6307373,0.0136414c0.6906738,0.0146179,0.8843231-0.2284698,0.8796844-0.8952484
		c-0.0255127-3.671875-0.0285492-7.3441467,0.000473-11.0159607c0.0061951-0.7849426-0.2626495-1.019928-1.0425262-1.0120544
		c-3.5939178,0.0364075-7.1885681,0.0336914-10.7825623,0.001709c-0.7533264-0.0067139-1.0652313,0.1826324-1.0580139,0.9924011
		c0.0326996,3.6717529,0.035675,7.3441925-0.0032349,11.0158234c-0.0082855,0.7828522,0.2946014,0.9273071,0.9842834,0.912796
		C148.860733,208.6675568,150.6584167,208.692627,152.4555511,208.6922607z M75.1137314,169.9721222
		c-1.8385925,0-3.6777344,0.0259705-5.5155106-0.0127106c-0.7408676-0.0155945-1.0684891,0.1599579-1.0595779,0.9888
		c0.0390778,3.6347198,0.0298767,7.2701721,0.0052795,10.9051514c-0.0046463,0.6876831,0.1486664,0.9980164,0.9216919,0.9908905
		c3.6768723-0.033844,7.3542938-0.0257568,11.0313721-0.004715c0.6348038,0.0036163,0.9345245-0.1332397,0.9289093-0.8534851
		c-0.0289459-3.7148132-0.0268021-7.4300385-0.0013428-11.1448975c0.0047607-0.6945801-0.2582169-0.8910217-0.915123-0.8795166
		C78.7113495,169.9931335,76.9123611,169.9724731,75.1137314,169.9721222z M94.3449402,163.5437317
		c0-1.8746338-0.0241699-3.7497101,0.0127182-5.6236267c0.0134659-0.6837769-0.225769-0.8860779-0.895813-0.8813477
		c-3.6713943,0.0259094-7.3431473,0.0244904-11.0145874,0.0016632c-0.6849899-0.0042572-1.0024261,0.1492615-0.9953156,0.9233398
		c0.0336914,3.6691589,0.0318756,7.3389587,0.0013504,11.0081635c-0.0062332,0.7484741,0.2706451,0.9521484,0.9780045,0.947403
		c3.6714096-0.0245972,7.3432999-0.0329437,11.014473,0.0058746c0.7941513,0.0084076,0.9215775-0.3250122,0.9101257-0.9970856
		C94.3253174,167.1337738,94.3454819,165.3385773,94.3449402,163.5437317z M152.5164337,156.9944763
		c1.7993317,0,3.59935-0.029007,5.3976746,0.0137787c0.7570038,0.0180054,1.0621643-0.1915436,1.0545502-1.0009918
		c-0.0342407-3.6362305-0.027832-7.273056-0.0033417-10.9094391c0.0046082-0.6838379-0.1369629-0.996994-0.9163208-0.9893494
		c-3.6782837,0.0361023-7.3571625,0.0267792-11.035675,0.0056915c-0.6324005-0.0036316-0.9347382,0.126709-0.9289856,0.8495331
		c0.0296021,3.7162476,0.0260315,7.4329376,0.0028076,11.1492767c-0.0042572,0.6838531,0.2460327,0.9031067,0.9115143,0.891861
		C148.8374634,156.9737854,150.6771088,156.9940948,152.5164337,156.9944763z M126.5993881,156.9941406
		c1.8384781,0,3.6771164-0.0130615,5.5153732,0.007019c0.6510925,0.0071259,1.0320587-0.107666,1.024826-0.9083405
		c-0.0335236-3.7144928-0.0252075-7.4295197-0.0036163-11.1442108c0.0036316-0.6229401-0.2122955-0.8348083-0.8280182-0.831955
		c-3.7568054,0.0174561-7.5138245,0.0203857-11.2705765-0.0037689c-0.6323013-0.0040894-0.821907,0.2056885-0.818161,0.8261414
		c0.0224838,3.7146759,0.030426,7.429718-0.0049591,11.1441956c-0.0073929,0.7755127,0.2963791,0.9372253,0.98983,0.9232635
		C123.0018616,156.9702148,124.8008728,156.9942932,126.5993881,156.9941406z M75.1203308,144.1245422
		c-1.8794174,0-3.7590714,0.0168457-5.6381226-0.009552c-0.6218643-0.008728-0.9455109,0.1099701-0.9396591,0.8425446
		c0.0296936,3.7164764,0.0256424,7.4333954,0.003273,11.1499786c-0.004097,0.6811066,0.247612,0.8998566,0.9116669,0.8961487
		c3.6787415-0.0205841,7.3577118-0.0199585,11.0364609,0.000412c0.6443405,0.0035706,0.9348526-0.1647797,0.9300766-0.8712006
		c-0.0251236-3.7165375-0.0263214-7.4334717,0.0016327-11.1499634c0.0052414-0.6975098-0.2487335-0.8832092-0.9072342-0.8704071
		C78.7196655,144.1474762,76.9197769,144.1245422,75.1203308,144.1245422z M55.6321144,163.344986
		c0,1.8375397,0.0226212,3.6755066-0.0113487,5.5124207c-0.0132637,0.7171173,0.1176071,1.0789337,0.9689713,1.0689545
		c3.6367188-0.0427399,7.2743034-0.0303497,10.9113846-0.0074615c0.6825104,0.004303,1.0104675-0.145401,1.0038681-0.9202271
		c-0.0313034-3.6748199-0.031662-7.3502045,0.0011444-11.0249939c0.0067825-0.7601471-0.2791443-0.9401245-0.9829712-0.934967
		c-3.6370316,0.0266571-7.2746086,0.0349731-10.9113922-0.0050507c-0.8157005-0.0089722-1.0122414,0.2857056-0.9934998,1.0387268
		C55.6619759,159.828949,55.6322136,161.5873413,55.6321144,163.344986z M152.6259155,169.972702
		c-1.8784637,0-3.7572632,0.020752-5.6351776-0.0111237c-0.6686249-0.0113525-0.9086609,0.2117615-0.9042664,0.8920898
		c0.0240326,3.7146454,0.0274811,7.429657-0.0014954,11.1442566c-0.005722,0.7342377,0.3218842,0.8441925,0.9429779,0.8409119
		c3.6369019-0.0192108,7.2741547-0.0282288,10.9108276,0.0057526c0.7694244,0.0071869,1.0398712-0.2037354,1.0315247-1.0042725
		c-0.0375061-3.594574-0.0374603-7.1900024-0.0001526-10.7845917c0.0084839-0.8169861-0.207077-1.1306-1.0691833-1.1014862
		C156.1444244,170.0134888,154.3844757,169.9719543,152.6259155,169.972702z M74.8759613,234.5109253
		c1.8369598,0,3.6748581-0.0341949,5.510437,0.0161285c0.7799683,0.0213623,1.0463791-0.2237396,1.0399399-1.0096588
		c-0.030098-3.6715698-0.0264664-7.3436127-0.0012894-11.0152435c0.0045319-0.6613617-0.1777115-0.9025421-0.8730392-0.8970337
		c-3.713623,0.0295563-7.4277115,0.02948-11.1413345,0.0004578c-0.7039719-0.0054932-0.8710175,0.2566833-0.8667526,0.908905
		c0.024025,3.6716461,0.0297012,7.343689-0.0018311,11.0152283c-0.006958,0.8096924,0.3079605,1.014389,1.0629578,0.9953003
		C71.3610077,234.4805908,73.1188736,234.5108643,74.8759613,234.5109253z M68.4912567,189.4914398
		c0-1.8786011-0.0225525-3.7575989,0.0115509-5.6355743c0.0128937-0.710495-0.2057724-0.99086-0.9534531-0.9850616
		c-3.6791382,0.0285645-7.358696,0.0260925-11.0378876,0.0016785c-0.6895294-0.0045624-0.8923149,0.2542114-0.888588,0.9129181
		c0.0210419,3.7171021,0.0207481,7.434433,0.0002136,11.151535c-0.0033989,0.6147156,0.1841736,0.8363037,0.8192902,0.8323059
		c3.7192001-0.023468,7.4388275-0.0317535,11.157814,0.0048676c0.7977371,0.0078278,0.9135818-0.3401031,0.9018555-1.0068054
		C68.4711456,193.0091705,68.4915924,191.2501221,68.4912567,189.4914398z M158.9537354,228.0152435
		c0-1.8358612-0.0223694-3.6721344,0.0119171-5.5073547c0.0123291-0.6586914-0.1766663-0.9073944-0.8724213-0.9020844
		c-3.7135162,0.0283508-7.4275208,0.0293884-11.1410217-0.0007935c-0.7045135-0.005722-0.8708954,0.2518616-0.8665619,0.9051208
		c0.0242767,3.6715393,0.0294952,7.3434906-0.0019226,11.0149231c-0.0068207,0.798996,0.285614,1.008194,1.0503998,1.0009766
		c3.5936279-0.0339203,7.1880798-0.0415039,10.7814636,0.0036011c0.8881378,0.0111542,1.0702209-0.340271,1.0516968-1.1268768
		C158.9250336,231.6078033,158.953949,229.8111725,158.9537354,228.0152435z M171.8787384,137.6841583
		c0-1.8760529-0.0251923-3.7526398,0.0133209-5.6278992c0.0139923-0.6819763-0.2133942-0.8849182-0.8881531-0.8798676
		c-3.6741943,0.0275116-7.3487854,0.0274658-11.022995,0.0002441c-0.6984558-0.0051727-0.9872894,0.1594849-0.9800568,0.9244232
		c0.0346985,3.6719666,0.0281372,7.3444977,0.0057373,11.0166473c-0.0043488,0.7118988,0.2251892,0.9828186,0.963562,0.9772644
		c3.6741791-0.0276642,7.3487701-0.0260773,11.022995-0.0006561c0.6835632,0.0047302,0.9059448-0.2378693,0.8953247-0.901886
		C171.8591614,141.3567657,171.8783264,139.5202942,171.8787384,137.6841583z M68.4912033,240.942749
		c0-1.8384399-0.0236969-3.6773376,0.012291-5.5150757c0.0133743-0.6833801-0.2288513-0.8911133-0.8997574-0.8866272
		c-3.718792,0.0249176-7.4379196,0.023819-11.1567421,0.0007019c-0.6304436-0.0039215-0.8276634,0.2080536-0.8241539,0.828125
		c0.0210228,3.7167206,0.0209312,7.4336548,0.0000305,11.1503754c-0.0036888,0.655899,0.193428,0.9197388,0.8853302,0.9151154
		c3.6788139-0.0244751,7.3579941-0.0265503,11.0367584,0.0015564c0.7413101,0.0056458,0.9720993-0.2622986,0.9581833-0.9790955
		C68.4674911,244.6200714,68.4912415,242.7811737,68.4912033,240.942749z M88.077919,234.5526733
		c-1.8764343,0-3.7532272,0.0209503-5.6291046-0.0110474c-0.680542-0.0116272-1.0052261,0.1344452-0.997757,0.9155121
		c0.0351105,3.6705627,0.0310211,7.3417816,0.0036697,11.0124817c-0.0054779,0.7352448,0.2568436,0.9699554,0.974762,0.965332
		c3.6728592-0.0237732,7.3460312-0.0229492,11.018898,0.0005646c0.663681,0.0042419,0.9126587-0.1970062,0.9080658-0.8841095
		c-0.0248108-3.7106476-0.0260696-7.4216461,0.0013504-11.1322479c0.0050507-0.6824493-0.2171097-0.8937683-0.8904114-0.879425
		C91.6716232,234.5780334,89.8745041,234.5527802,88.077919,234.5526733z M87.8459244,195.7580872
		c1.8766251,0,3.7537918-0.0257263,5.6295929,0.0135651c0.6835098,0.0142975,0.8866501-0.2148438,0.8818665-0.8871155
		c-0.0263901-3.7109985-0.0258102-7.4223938-0.0010529-11.1334229c0.004631-0.692276-0.2574768-0.8824768-0.9143143-0.8784027
		c-3.6732559,0.0227203-7.3468094,0.0244446-11.0200424,0.0001526c-0.7269058-0.0048065-0.9719849,0.2493896-0.9668198,0.9746399
		c0.0261688,3.6710968,0.0315094,7.3426819-0.0043259,11.0136414c-0.0077133,0.7904053,0.3326492,0.9194031,1.0049591,0.9077301
		C84.2520142,195.7377472,86.0491486,195.7582855,87.8459244,195.7580872z M139.6556549,234.5525818
		c-1.835907,0-3.6729584,0.0379028-5.5072021-0.0174408c-0.8046112-0.024292-1.0033417,0.258728-0.9962006,1.0218506
		c0.0338745,3.6295166,0.0275421,7.259613,0.0041199,10.889328c-0.004425,0.6865234,0.1540375,0.9997101,0.9251251,0.9927673
		c3.6715393-0.0331726,7.3436279-0.0294952,11.0152588-0.0032196c0.7418823,0.0052948,0.9577942-0.2752991,0.9530182-0.9853668
		c-0.0246277-3.6695557-0.0239868-7.339447,0.000473-11.0090179c0.0044556-0.6683807-0.2013855-0.9142914-0.887085-0.9006958
		C143.3279572,234.5771637,141.4915771,234.5531769,139.6556549,234.5525818z M159.0165405,240.8217468
		c0,1.8786621,0.0242157,3.7578125-0.0122528,5.635788c-0.0140381,0.7214203,0.2241211,0.9841309,0.9612885,0.9787445
		c3.6793365-0.026825,7.3590393-0.02565,11.0383911-0.0005646c0.6925354,0.0047455,0.8886871-0.2570801,0.8849182-0.9138336
		c-0.0213013-3.7172699-0.0213318-7.4347534-0.0001984-11.1520233c0.0035095-0.6194611-0.1904755-0.8323669-0.8227386-0.8283539
		c-3.7193604,0.0236053-7.4391479,0.0315399-11.1583099-0.0044403c-0.797287-0.0077057-0.9138947,0.341095-0.9020386,1.0085754
		C159.0368652,237.3038483,159.0161743,239.062973,159.0165405,240.8217468z M49.2002411,247.4810638
		c-1.8761559,0-3.7528229,0.0250397-5.6281967-0.0131683c-0.68293-0.0138855-0.8902893,0.2189331-0.8857193,0.8901978
		c0.0252419,3.710083,0.0273094,7.420578-0.0009918,11.1306152c-0.0054436,0.713623,0.2826538,0.8623657,0.9240646,0.8584595
		c3.6723366-0.0222473,7.3449669-0.0246887,11.0172691,0.0002441c0.7157936,0.0048523,0.9745102-0.2181702,0.9684982-0.956543
		c-0.0298805-3.6701202-0.0346298-7.3408203,0.0030098-11.0108185c0.0082016-0.7995148-0.3471642-0.9173126-1.0090942-0.9077301
		C52.7931366,247.4983215,50.996563,247.4812469,49.2002411,247.4810638z M74.9570694,247.4815979
		c-1.8386612,0-3.6777344,0.022522-5.5157547-0.0118256c-0.6744614-0.0125885-0.9015579,0.2158203-0.8970718,0.892807
		c0.0246582,3.7149658,0.0217056,7.4302826,0.0027924,11.1453247c-0.0031586,0.6196899,0.2098389,0.8402405,0.8339462,0.8369751
		c3.717186-0.0192871,7.4346085-0.0224304,11.1517258,0.0029602c0.6829681,0.0046692,0.8951569-0.2338867,0.8910141-0.9007874
		c-0.0227585-3.6750641-0.0272598-7.3505096,0.0035629-11.0254517c0.0061264-0.7307739-0.2172394-0.9732971-0.9545975-0.9553223
		C78.6351242,247.5111389,76.795723,247.4810486,74.9570694,247.4815979z M139.4398499,169.9079437
		c1.8794708,0,3.7594604-0.0243835,5.6382141,0.0123749c0.7189941,0.0140533,0.9797058-0.2132263,0.9737244-0.9551697
		c-0.0296936-3.676651-0.0263367-7.3537445-0.00177-11.0304718c0.0045624-0.6817474-0.2361908-0.8974915-0.9039764-0.8934937
		c-3.7188416,0.0222015-7.4379578,0.021286-11.1568298-0.0001831c-0.622406-0.0035858-0.8349457,0.2009277-0.8314209,0.8259583
		c0.0208435,3.7167358,0.0294189,7.4338226-0.0056,11.1503448c-0.0074615,0.7935944,0.3395386,0.9140167,1.0092926,0.9017944
		C135.9204102,169.8869934,137.6803131,169.9082489,139.4398499,169.9079437z"></path>
	<path d="M184.7914124,53.7379799c-0.0000458-4.3233109-0.0000916-8.6466179-0.0001373-12.9699249
		c2.8367615,0.0056458,5.6735077,0.0113297,8.5102539,0.0168724c0.2397461,0.0004692,0.4799652-0.0099716,0.7191467,0.0014954
		c2.6432648,0.1267319,3.1178741,0.921711,2.5922089,3.4928017c-0.5373077,2.6280594-1.155838,5.2670593-0.8535767,8.0124893
		c0.0856934,0.7783661-0.2077789,1.4790115-1.380249,1.4499664
		C191.1851196,53.6625595,187.9875336,53.7291374,184.7914124,53.7379799z"></path>
	<path d="M42.7288666,40.768074c-0.0000343,4.3233109-0.0000687,8.6466217-0.0001068,12.9699287
		c-3.1541367-0.0088577-6.3086128-0.0453835-9.4621887-0.0076332c-0.8145905,0.0097466-0.9843864-0.2562103-1.1597481-1.0385551
		c-0.7209339-3.2163544-0.7188091-6.5271149-1.4032154-9.7470474c-0.3775177-1.7761002,0.0216751-2.1505356,1.8433933-2.1576729
		c2.156208-0.0084496,4.3124809,0.0003471,6.4687157-0.0022964C40.253437,40.7832794,41.4911499,40.7739105,42.7288666,40.768074z"></path>
	<path d="M120.2483444,53.7379608c-4.3255157,0.0000038-8.6510315,0.0000114-12.9765472,0.0000153
		c-0.0000153-4.3232765-0.0000305-8.646553-0.0000458-12.9698296c4.3255615-0.0000267,8.6511383-0.0000534,12.9767075-0.0000763
		C120.2484207,45.0913658,120.2483826,49.4146614,120.2483444,53.7379608z"></path>
	<path d="M94.3110504,208.6716156c4.325737,0.0000305,8.6514664,0.000061,12.9772034,0.0000916
		c-0.0000076,4.3232574-0.0000153,8.6465149-0.0000153,12.9697876c-4.3256989,0.0000153-8.6513977,0.0000305-12.9770966,0.0000458
		C94.3111038,217.318222,94.3110809,212.9949188,94.3110504,208.6716156z"></path>
	<path d="M120.2317734,208.671524c4.3257675,0.0000458,8.6515579,0.0000916,12.9773331,0.0001373
		c0,4.323288,0,8.6465607,0.0000153,12.9698639c-4.3257446,0.0000153-8.6515045,0.0000305-12.9772568,0.0000458
		C120.231842,217.3182068,120.2318039,212.994873,120.2317734,208.671524z"></path>
	<path d="M120.2484512,131.2134705c-4.3255539-0.0000153-8.6511002-0.0000458-12.9766464-0.0000763
		c-0.0000153-4.3232574-0.0000305-8.6465302-0.0000458-12.9697876c4.3255844-0.0000381,8.6511841-0.0000763,12.9767685-0.0001144
		C120.2485046,122.5668106,120.2484741,126.8901367,120.2484512,131.2134705z"></path>
</g>
<g onclick="select(this)" class="" id="detalhe-lateral" fill="#000000">
	<path d="M180.3168945,283.9697571c-0.389267-5.0108643-0.5809479-10.031311-0.8112488-15.0513
		c-0.2741241-5.9756165-0.5402374-11.949707-0.7395935-17.9288177c-0.1621857-4.8639069-0.3166046-9.728241-0.4854279-14.5916138
		c-0.2534637-7.3020935-0.3217926-14.6064758-0.5153046-21.9078064c-0.4489746-16.9402466-0.1599274-33.8796692-0.1625824-50.819046
		c-0.0007782-4.9429321,0.2119446-9.8911591,0.4939728-14.8274231c0.2990417-5.2344513,0.6636963-10.4721985,1.2374268-15.6823578
		c1.0101471-9.1735458,2.4787903-18.2817688,4.8481293-27.214325c1.1468811-4.3238525,2.3988037-8.6271057,4.175827-12.7510147
		c0.1843414-0.4277649,0.3986206-0.8426361,0.789444-1.1994095c-0.6111603,2.5723648-1.2835083,5.1320724-1.8197479,7.7199402
		c-0.8982391,4.3347855-1.8397827,8.665451-2.2377777,13.0872345c-0.0624847,2.4636841-0.7349854,4.8893585-0.4575043,7.3738861
		c-1.2758331,10.3456116-2.3217926,20.7093811-1.9548645,31.1531219c0.0848389,2.4152832,0.7513123,4.7976074,0.4013214,7.251236
		c-0.3329468,2.3339691-0.443634,4.6863556-0.4229584,7.0467682c0.0576477,6.5835724,0.0962219,13.1778717-0.1157379,19.7472687
		c-0.1442261,4.4696655,0.7029724,8.6943665,1.4201355,12.9989471c0.8516083,5.1116943,0.9524536,10.2363281,0.2455444,15.3785553
		c-0.320282,2.3298645-0.5408936,4.6733246-0.8157501,7.0095825c-0.0492096,0.4181061,0.0968628,0.7891998,0.2263184,1.1624146
		c1.9881592,5.7323914,2.493515,11.6085815,1.5862885,17.5897217c-0.3216858,2.1208649-0.3144379,4.1804047,0.1411896,6.2758179
		c0.4254303,1.9566803,0.509079,3.958847,0.4698334,5.9625092c-0.1443481,7.3678131,0.6830597,14.6733856,1.3834839,21.9889984
		c0.2195587,2.2931824,0.334198,4.5985718,0.3148499,6.9089355c-0.0093231,1.1126404-0.4960785,1.8147888-1.5023499,2.1924744
		C184.1752014,283.5325928,182.2867737,283.9595337,180.3168945,283.9697571z"></path>
	<path d="M42.907505,115.9281998c0.2025414-2.5072403-0.5920105-4.8997345-0.8747025-7.35112
		c-0.3888321-3.371727-0.9984398-6.7175217-1.4424057-10.0838013c-0.0866776-0.6572418-0.8311157-1.2180862-0.2478676-2.0992279
		c0.9456749,2.1854401,1.4925079,4.3908844,2.1506424,6.554039c1.7749481,5.833931,2.8504601,11.8196106,3.9337807,17.8119583
		c0.884079,4.8902206,1.4221878,9.81707,2.0031929,14.7410049c0.2884407,2.4445038,0.3130951,4.9188995,0.5398026,7.3721466
		c0.5834084,6.3131409,0.647377,12.6494446,0.8974266,18.9772339c0.0883293,2.2353516,0.1063042,4.4746857,0.1053925,6.7121582
		c-0.0058365,14.2682037,0.0445213,28.5370483-0.0866127,42.8041992c-0.0366745,3.9903259-0.0978889,7.9857788-0.1912727,11.9777985
		c-0.1465569,6.2649994-0.2809258,12.5313263-0.5358238,18.7924042c-0.1801491,4.4247437-0.3299789,8.8494263-0.4726982,13.2752838
		c-0.1812057,5.6194305-0.3783722,11.2418976-0.7604103,16.8500214c-0.2573776,3.7782288-0.1971283,7.578186-0.7390099,11.3370361
		c-1.7245903-0.0838623-3.3726768-0.5370178-4.9845734-1.1035767c-1.6185989-0.5689087-2.0116501-1.1138-1.9831123-2.8437195
		c0.0459366-2.7848511,0.186451-5.5653687,0.4139137-8.3447876c0.433239-5.2938843,0.7164192-10.6002197,1.1700706-15.8921509
		c0.4089508-4.770462-0.068821-9.5951233,0.9217758-14.3286285c0.1891174-0.9036407,0.0947456-1.838028-0.0444946-2.7452698
		c-0.4787102-3.1191711-0.3467941-6.214859,0.3346939-9.2854462c0.1951103-0.8791046,0.1336899-1.7297516,0.0723305-2.6114655
		c-0.2882462-4.1416168-0.8612595-8.2615356-0.8543091-12.4265594c0.0080452-4.8191986,1.1005249-9.4173431,2.7082024-13.9132538
		c0.3438072-0.961441,0.5690727-1.8806915,0.4489937-2.909317c-0.176609-1.5128784-0.1274376-3.0283203,0.1454735-4.536911
		c0.1131401-0.625412,0.2028465-1.277359,0.1551666-1.9060059c-0.3654709-4.8179779-0.0608215-9.6545563-0.424675-14.4716797
		c-0.0846634-1.1208496,0.0723495-2.2323608,0.1582413-3.3475952c0.1443939-1.874649,0.0628281-3.747345-0.0448914-5.6249847
		c-0.3893738-6.7869263-0.1290779-13.5804901-0.0253029-20.3673248c0.1122742-7.3421783-0.643425-14.5998688-1.5617981-21.8567352
		c-0.1952324-1.5427094-0.3826065-3.0864105-0.5735855-4.6296616
		C43.4951172,118.9194489,42.9541283,117.4408264,42.907505,115.9281998z"></path>
</g>
</svg>
