<?xml version="1.0" encoding="utf-8"?>
<!-- Generator: Adobe Illustrator 21.0.0, SVG Export Plug-In . SVG Version: 6.00 Build 0)  -->
<svg version="1.1" id="Camada_1" xmlns="http://www.w3.org/2000/svg" xmlns:xlink="http://www.w3.org/1999/xlink" x="0px" y="0px"
	 viewBox="0 0 228.72 418.8" enable-background="new 0 0 228.72 418.8" xml:space="preserve">
<g fill="#040203" id="estampa-secundaria">
	<path  d="M45.64,184.51c-0.03-1.05,0.79-1.48,1.47-2c12.1-9.37,24.22-18.73,36.32-28.1
		c24.24-18.77,48.47-37.55,72.71-56.32c12.86-9.96,25.73-19.91,38.59-29.87c0.27,3.92,0.04,7.83-1.05,11.59
		c-0.9,3.12-2.24,6.11-3.37,9.16c-1.95,5.27-3.07,10.76-4.11,16.26c-0.4,2.1-0.8,4.19-1.21,6.28
		c-10.94,8.46-21.88,16.92-32.81,25.39c-19.06,14.76-38.11,29.52-57.16,44.28c-15.48,11.99-30.96,23.99-46.45,35.97
		c-1.92,1.49-3.89,2.91-5.84,4.37c-1.16-7.39-0.34-14.56,2.28-21.56c0.29-0.78,0.3-1.69,0.36-2.55c0.08-1.43,0.11-2.87,0.13-4.3
		c0.02-1.67,0-3.34,0.02-5.01C45.54,186.9,45.6,185.71,45.64,184.51z"/>
	<path  d="M41.22,264.23c0.26-3.98,0.52-7.96,0.78-11.93c0.26-3.89,0.54-7.78,0.77-11.68
		c0.05-0.83-0.01-1.67-0.13-2.5c-0.45-3.08-0.24-6.12,0.41-9.15c0.12-0.54,0.11-1.1,0.17-1.66c0.27-0.23,0.54-0.47,0.82-0.69
		c10.28-8,20.57-15.99,30.85-23.99c19.21-14.94,38.41-29.88,57.62-44.82c14.67-11.41,29.33-22.81,44-34.21
		c2.65-2.06,5.33-4.06,8-6.09c0.01,0.87,0.01,1.73,0.02,2.6c-0.41,3.77-0.93,7.53-1.19,11.31c-0.38,5.42-0.63,10.85-0.8,16.27
		c-0.07,2.18,0.21,4.38,0.33,6.57c-6.5,5.05-13.01,10.09-19.5,15.15c-23.31,18.13-46.62,36.27-69.92,54.4
		c-15.77,12.27-31.54,24.54-47.32,36.8C44.52,261.87,42.86,263.03,41.22,264.23z"/>
	<path  d="M68.13,285.36c-8.19-0.02-16.33-0.52-24.37-2.23c-0.31-0.07-0.62-0.17-0.92-0.26
		c-2.38-0.76-2.71-1.16-2.6-3.69c0.13-2.81,0.37-5.61,0.56-8.42c47.21-36.64,94.43-73.29,141.71-109.98
		c0.07,0.33,0.1,0.48,0.14,0.63c-0.09,5.38-0.21,10.77-0.25,16.15c-0.02,2.27,0.32,4.56,0.17,6.82c-0.24,3.72-0.35,7.4,0.73,11.02
		c0.05,0.18,0.01,0.4,0.01,0.59c-0.14,0.08-0.29,0.14-0.41,0.24c-8.3,6.44-16.61,12.89-24.91,19.34
		c-19.54,15.17-39.08,30.34-58.62,45.52C88.96,269.18,78.55,277.27,68.13,285.36z"/>
	<path  d="M119.79,286.49c-4.59-0.07-9.19-0.12-13.78-0.22c-8.79-0.2-17.58-0.43-26.38-0.64
		c-1.28-0.03-2.56-0.06-3.83-0.08c0.26-0.25,0.49-0.53,0.77-0.74c10.7-8.31,21.4-16.62,32.1-24.93
		c23.11-17.94,46.22-35.89,69.33-53.82c2.05-1.59,4.14-3.12,6.2-4.68c0.67,4.74,0.28,9.46-0.28,14.18c-0.2,1.66-0.43,3.32-0.56,4.98
		c-0.05,0.61,0.08,1.27,0.26,1.86c1.38,4.41,2.17,8.89,1.79,13.53c-0.35,0.32-0.69,0.67-1.06,0.96
		c-13.75,10.68-27.51,21.36-41.27,32.04c-7.47,5.81-14.94,11.63-22.41,17.44c0,0,0.04-0.01,0.04-0.01
		C120.41,286.39,120.1,286.44,119.79,286.49z"/>
</g>
<path id="gola-primaria" fill="#070405" d="M149.45,8.2c1.82,0.94,2.13,1.93,1.5,4.86c-0.68,3.23-2.37,6.04-4.62,8.42
	c-6.28,6.63-13.68,11.5-22.56,13.93c-4.99,1.36-10.02,1.63-15.18,0.88c-11.24-1.62-20.23-7.18-27.81-15.33
	c-2.1-2.26-3.48-4.97-4.33-7.94c-0.67-2.35-0.24-3.87,1.42-5.08c0.48-0.27,1.03-0.46,1.43-0.81c1.01-0.91,2.11-1.77,2.89-2.86
	c2.05-2.84,5.08-3.71,8.2-3.74c15.46-0.13,30.92-0.09,46.38,0c1.79,0.01,3.6,0.63,5.35,1.14c0.71,0.21,1.35,0.82,1.9,1.37
	c1.3,1.29,2.5,2.69,3.79,3.99C148.27,7.51,148.9,7.82,149.45,8.2z M83.24,8.83c-0.1,0.1-0.2,0.2-0.29,0.31
	c0.76,1.34,1.38,2.79,2.32,3.99c4.47,5.76,9.97,10.25,16.82,12.9c4.81,1.86,9.78,2.95,15,2.23c9.24-1.28,16.75-5.73,22.98-12.51
	c1.75-1.91,3.29-3.99,4.24-6.67c-1.8,0.12-3.41,0.24-5.03,0.34c-8.41,0.53-16.81,1.15-25.22,1.54c-3.14,0.15-6.3-0.18-9.45-0.39
	c-4.78-0.32-9.55-0.73-14.33-1.11C87.92,9.26,85.58,9.03,83.24,8.83z"/>
<path d="M119.79,286.49c0.31-0.05,0.62-0.1,0.92-0.15C120.41,286.39,120.1,286.44,119.79,286.49z"/>
<g fill="#BF1A19" id="estampa-primaria">
	<path  d="M43.33,120.4c-0.31-3.04-0.49-6.11-0.94-9.13c-0.85-5.76-1.7-11.53-2.86-17.23
		c-0.57-2.82-1.77-5.53-2.78-8.25c-0.9-2.41-1.96-4.76-2.9-7.16c-1-2.58-1.05-5.3-1.08-8.02c-0.05-4.53,0.1-9.07-0.27-13.58
		c-0.42-5.17-1.22-10.32-2.05-15.44c-0.39-2.37-1.3-4.66-1.86-7.01c-0.18-0.75-0.03-1.59-0.03-2.39c0.42-0.27,0.82-0.6,1.27-0.8
		c9.43-4.15,18.92-8.19,28.29-12.47c4.7-2.15,9.2-4.72,13.76-7.16c0.81-0.44,1.5-1.15,2.18-1.8c1.08-1.05,2.21-1.96,3.81-2
		c-1.66,1.2-2.09,2.73-1.42,5.08c0.85,2.97,2.23,5.68,4.33,7.94c7.58,8.16,16.57,13.72,27.81,15.33c5.16,0.74,10.19,0.48,15.18-0.88
		c8.88-2.43,16.28-7.31,22.56-13.93c2.26-2.38,3.94-5.19,4.62-8.42c0.62-2.93,0.31-3.92-1.5-4.86c1.75-0.08,2.86,1.02,3.94,2.16
		c0.35,0.37,0.7,0.75,1.12,1.03c9.97,6.56,21.17,10.54,32.03,15.21c4.15,1.79,8.24,3.72,12.36,5.58
		c-2.74,11.86-4.4,23.84-4.17,36.04c-12.86,9.96-25.73,19.91-38.59,29.87c-24.24,18.77-48.47,37.55-72.71,56.32
		c-12.1,9.37-24.22,18.73-36.32,28.1c-0.67,0.52-1.5,0.95-1.47,2c-0.05-3.87-0.09-7.74-0.15-11.6c-0.04-2.63-0.17-5.27-0.18-7.9
		c-0.03-4.71-0.11-9.43,0.03-14.14c0.27-8.86-0.37-17.65-1.58-26.41C43.57,123.1,43.47,121.75,43.33,120.4z"/>
	<path  d="M43.33,120.4c-2.86,1.44-6,1.73-9.09,1.88c-10.11,0.51-20.14-0.09-29.95-2.8c-1.4-0.39-2.72-1.09-4.08-1.64
		c0-0.8,0-1.6,0-2.4c0.64-3.35,1.41-6.67,1.9-10.04c1.58-10.95,3.05-21.91,4.59-32.87c1.13-8.03,3.02-15.85,6.78-23.12
		c2.79-5.4,6.52-10.03,11.19-13.92c1.31-1.09,2.59-2.2,3.89-3.3c0,0.8-0.15,1.63,0.03,2.39c0.57,2.35,1.48,4.64,1.86,7.01
		c0.83,5.12,1.63,10.27,2.05,15.44c0.37,4.5,0.22,9.05,0.27,13.58c0.03,2.72,0.08,5.44,1.08,8.02c0.93,2.4,2,4.75,2.9,7.16
		c1.01,2.72,2.21,5.43,2.78,8.25c1.15,5.7,2,11.47,2.86,17.23C42.83,114.29,43.02,117.35,43.33,120.4z"/>
	<path  d="M184.53,120.13c-0.01-0.87-0.01-1.73-0.02-2.6c0.16-2,0.32-4.01,0.48-6.01c0.4-2.09,0.81-4.19,1.21-6.28
		c1.04-5.51,2.16-10.99,4.11-16.26c1.13-3.05,2.47-6.04,3.37-9.16c1.08-3.76,1.32-7.67,1.05-11.59c-0.23-12.2,1.43-24.18,4.17-36.04
		c7.86,5.86,14.36,12.8,17.94,22.15c1.89,4.95,3.41,10.01,4.08,15.25c0.86,6.76,2.39,13.37,3.75,20.03
		c1.24,6.06,2.06,12.21,3.09,18.32c0.32,1.92,0.77,3.81,1.09,5.73c0.38,2.35,0.2,2.63-2.04,3.39c-12.26,4.11-24.8,5.87-37.69,4.33
		C187.55,121.2,186.06,120.56,184.53,120.13z"/>
	<path  d="M120.68,286.35c7.47-5.81,14.93-11.63,22.41-17.44c13.75-10.68,27.51-21.36,41.27-32.04
		c0.38-0.29,0.71-0.64,1.06-0.96c-0.11,1.15-0.16,2.31-0.35,3.45c-0.37,2.23-0.16,4.41,0.1,6.66c0.38,3.24,0.24,6.54,0.47,9.8
		c0.44,6.14,1.01,12.26,1.48,18.4c0.16,2.03,0.2,4.06,0.24,6.1c0.03,1.83-0.3,2.45-2.1,2.82c-3.01,0.62-6.05,1.27-9.1,1.45
		c-8.02,0.48-16.05,0.79-24.08,1.04c-9.79,0.31-19.59,0.49-29.38,0.73C122.03,286.38,121.36,286.36,120.68,286.35z"/>
	<path  d="M182.66,161.42c-0.03-0.15-0.07-0.31-0.14-0.63c-47.28,36.7-94.5,73.34-141.71,109.98
		c0.14-2.18,0.28-4.36,0.42-6.54c1.63-1.2,3.3-2.36,4.89-3.6c15.78-12.26,31.55-24.53,47.32-36.8
		c23.31-18.13,46.62-36.27,69.92-54.4c6.5-5.05,13-10.1,19.5-15.15c0.06,1.09,0.2,2.18,0.16,3.27
		C182.98,158.84,182.79,160.13,182.66,161.42z"/>
	<path  d="M185,111.51c-0.16,2-0.32,4.01-0.48,6.01c-2.67,2.03-5.36,4.03-8,6.09c-14.67,11.39-29.34,22.8-44,34.21
		c-19.21,14.94-38.41,29.88-57.62,44.82c-10.28,8-20.57,15.99-30.85,23.99c-0.28,0.22-0.55,0.46-0.82,0.69
		c-0.16-1.93-0.33-3.86-0.49-5.8c1.95-1.45,3.92-2.88,5.84-4.37c15.49-11.98,30.97-23.98,46.45-35.97
		c19.05-14.76,38.1-29.52,57.16-44.28C163.12,128.43,174.06,119.98,185,111.51z"/>
	<path  d="M184.21,201.37c-2.07,1.56-4.16,3.1-6.2,4.68c-23.11,17.94-46.22,35.88-69.33,53.82
		c-10.7,8.31-21.41,16.62-32.1,24.93c-0.28,0.22-0.52,0.49-0.77,0.74c-2.56-0.06-5.11-0.12-7.67-0.18
		c10.41-8.09,20.82-16.18,31.24-24.27c19.54-15.17,39.08-30.34,58.62-45.52c8.3-6.45,16.6-12.89,24.91-19.34
		c0.12-0.1,0.27-0.16,0.41-0.24C183.62,197.79,183.91,199.58,184.21,201.37z"/>
	<path  d="M83.24,8.83c2.34,0.21,4.68,0.43,7.02,0.62c4.78,0.38,9.55,0.79,14.33,1.11c3.15,0.21,6.31,0.54,9.45,0.39
		c8.41-0.39,16.82-1.01,25.22-1.54c1.62-0.1,3.24-0.22,5.03-0.34c-0.95,2.68-2.49,4.76-4.24,6.67
		c-6.23,6.78-13.74,11.23-22.98,12.51c-5.22,0.72-10.19-0.37-15-2.23c-6.84-2.65-12.35-7.14-16.82-12.9
		c-0.93-1.2-1.55-2.66-2.32-3.99C83.04,9.03,83.14,8.93,83.24,8.83z"/>
</g>
</svg>
