<!--?xml version="1.0" encoding="utf-8"?-->
<!-- Generator: Adobe Illustrator 24.2.3, SVG Export Plug-In . SVG Version: 6.00 Build 0)  -->
<svg version="1.1" id="Camada_1" xmlns="http://www.w3.org/2000/svg" xmlns:xlink="http://www.w3.org/1999/xlink" x="0px" y="0px" viewBox="0 0 229 418" enable-background="new 0 0 229 418" xml:space="preserve">
<g onclick="select(this)" class="" id="gola-primaria" fill="#ffff00">
	<path d="M95.52,31.78c-3.26-1.94-6.47-3.95-9.38-6.39c-3.68-3.08-6.87-6.57-8.47-11.23
		c-0.27-0.79-0.46-1.61-0.59-2.44c-0.26-1.66,0.24-2.99,1.85-3.75c1.38-0.49,2.42-1.53,3.19-2.63c3.05-4.36,7.57-4.88,12.24-4.74
		c6.35,0.18,12.69,0.18,19.04,0.08c7.98-0.13,15.96,0.02,23.94,0.07c1.22,0.01,2.46,0.28,3.67,0.52c1.6,0.32,2.97,1.02,4.01,2.39
		c1.11,1.46,2.37,2.81,3.83,3.94c0.34,0.27,0.63,0.62,1.1,0.68c2.34,1.38,1.83,3.15,1.3,5.34c-0.49,2-1.39,3.86-2.52,5.51
		c-1.21,1.78-2.59,3.51-4.26,4.94c-2.8,2.4-5.71,4.66-8.89,6.56c-0.79,0.47-1.75,0.57-2.41,1.26c-4.52,2.37-9.31,3.9-14.39,4.52
		c0.01-0.66,0.48-1.08,0.83-1.55c2.83-3.73,6.43-6.65,9.98-9.63c3.45-2.9,7.29-5.34,10.41-8.64c1.77-1.86,3.31-3.89,4.44-6.22
		c0.55-1.14,0.43-1.34-0.83-1.25c-3.74,0.27-7.47,0.61-11.2,0.9c-2.23,0.18-4.45,0.37-6.68,0.47c-4.19,0.2-8.38,0.54-12.56,0.46
		c-5.54-0.11-11.07-0.56-16.59-1.04c-3.93-0.34-7.87-0.61-11.79-1.05c-0.97-0.11-1.11,0.24-0.76,1.05c1.21,2.75,3,5.08,5.19,7.11
		c5.16,4.78,11.07,8.67,16.03,13.68c1.74,1.76,3.56,3.44,4.87,5.57c-0.43-0.04-0.88-0.03-1.3-0.11
		C104.18,35.31,99.68,34.05,95.52,31.78z"></path>
</g>
<g onclick="select(this)" class="" id="detalhe-punho" fill="#000000">
	<path d="M185.36,120.17c-0.31-2.19,0.56-4.25,0.67-6.4c0.04-0.89,0.8-0.54,1.2-0.45c2.95,0.69,5.96,0.43,8.94,0.64
		c4.88,0.34,9.7-0.24,14.53-0.98c4.35-0.67,8.67-1.38,12.85-2.76c1.21-0.4,2.38-0.92,3.56-1.41c0.48-0.2,0.95-0.42,1.5-0.32
		c1.06,2.31,1.13,4.78,1.07,7.25c-0.02,0.77-0.73,0.9-1.26,1.09c-3.21,1.2-6.52,2.08-9.84,2.9c-8.35,2.07-16.84,2.49-25.39,2.12
		c-2.14-0.09-4.29-0.31-6.37-0.9C186.25,120.81,185.73,120.62,185.36,120.17z"></path>
	<path d="M1.9,110.59c3.48,0.88,6.88,2.01,10.43,2.63c1.89,0.33,3.79,0.49,5.69,0.69c6.05,0.64,12.11,0.65,18.18,0.4
		c1.84-0.08,3.61-0.63,5.41-0.94c1.43-0.24,1.64-0.16,1.79,1.24c0.21,1.94,0.33,3.88,0.49,5.83c-1.95,1.28-4.21,1.49-6.41,1.66
		c-6.97,0.54-13.95,0.56-20.91-0.31c-4.23-0.53-8.43-1.26-12.52-2.5c-0.38-0.12-0.76-0.23-1.14-0.36c-1.92-0.67-2.04-0.81-1.92-2.82
		C1.09,114.24,1.4,112.39,1.9,110.59z"></path>
</g>
<g onclick="select(this)" class="" id="estampa-primaria" fill="#ffff00">
	<path d="M115.72,286.52c-0.91,0-1.82,0-2.73-0.01c0-17.48,0.01-34.95,0.01-52.43c0-21.71,0-43.43,0.02-65.14
		c0-0.98-0.09-1.29-1.23-1.02c-5.09,1.2-10.2,2.31-15.32,3.39c-0.8,0.17-1.01,0.48-1.01,1.26c0.02,37.75,0.02,75.5,0.02,113.25
		c-11.85-0.21-23.7-0.15-35.54-0.74c-0.64-0.03-1.27-0.1-1.91-0.15c0.01-0.28,0.02-0.56,0.02-0.84c0-34.83,0-69.66,0-104.5
		c0-0.23-0.03-0.45-0.06-0.75c-1.8,0.49-3.51,1.03-5.26,1.41c-1.08,0.24-1.42,0.68-1.42,1.83c0.04,33.63,0.03,67.27,0.03,100.9
		c0,0.44,0.01,0.88,0.02,1.32c-0.85-0.12-1.7-0.25-2.54-0.37c0.01-0.52,0.03-1.04,0.03-1.56c0-32.77,0-65.53-0.01-98.3
		c0-0.86,0.4-2.02-0.21-2.49c-0.53-0.41-1.54,0.33-2.36,0.46c-0.07-3.03-0.4-6.05-0.06-9.09c0.25-2.23-0.01-4.47-0.12-6.7
		c-0.24-5.11-0.13-10.23,0-15.33c0.22-8.89-0.36-17.72-1.61-26.52c-0.19-1.32-0.08-2.69-0.61-3.96c-0.16-1.94-0.28-3.89-0.49-5.83
		c-0.15-1.4-0.37-1.48-1.79-1.24c-1.8,0.31-3.57,0.86-5.41,0.94c-6.07,0.25-12.13,0.24-18.18-0.4c-1.9-0.2-3.8-0.36-5.69-0.69
		c-3.54-0.62-6.95-1.75-10.43-2.63c0.99-4.73,1.72-9.51,2.28-14.3c0.8-6.91,2.14-13.73,2.88-20.65c0.66-6.17,1.82-12.25,3.78-18.16
		c2.96-8.93,7.99-16.38,15.15-22.59c4.65-4.03,10.15-6.15,15.58-8.48c9.49-4.08,19.08-7.9,28.13-12.94
		c2.01-1.12,4.08-2.12,5.63-3.96c0.87-1.03,2.12-1.7,3.61-1.55c-1.61,0.76-2.11,2.09-1.85,3.75c0.13,0.82,0.32,1.65,0.59,2.44
		c1.6,4.66,4.78,8.15,8.47,11.23c2.91,2.44,6.12,4.45,9.38,6.39c-0.01,0.44-0.04,0.88-0.04,1.32c0,30.86,0,61.73,0,92.59
		c0,0.16,0.02,0.32,0,0.48c-0.08,0.64,0.2,0.89,0.84,1.03c5.11,1.1,10.21,2.24,15.32,3.37c1.37,0.3,1.37,0.29,1.37-1.17
		c0-29.94,0-59.89-0.01-89.83c0-0.91,0.37-2.04-0.17-2.67c-0.42-0.49-1.56-0.36-2.37-0.52c-0.12-0.02-0.22-0.08-0.33-0.13
		c-1.31-2.13-3.13-3.82-4.87-5.57c-4.96-5.01-10.87-8.91-16.03-13.68c-2.19-2.02-3.98-4.36-5.19-7.11
		c-0.36-0.81-0.21-1.16,0.76-1.05c3.92,0.44,7.86,0.71,11.79,1.05c5.52,0.48,11.05,0.93,16.59,1.04c4.18,0.08,8.37-0.26,12.56-0.46
		c2.23-0.11,4.46-0.3,6.68-0.47c3.74-0.3,7.47-0.63,11.2-0.9c1.27-0.09,1.38,0.12,0.83,1.25c-1.12,2.32-2.67,4.35-4.44,6.22
		c-3.12,3.3-6.95,5.74-10.41,8.64c-3.55,2.98-7.15,5.9-9.98,9.63c-0.35,0.47-0.82,0.89-0.83,1.55c-0.48,0.23-1.01,0.35-1.52,0.28
		c-1.36-0.19-1.59,0.4-1.59,1.66c0.04,30.39,0.03,60.77,0.03,91.16c0,0.39,0,0.79,0,1.25c0.33-0.06,0.57-0.09,0.79-0.14
		c5.18-1.16,10.36-2.35,15.55-3.46c0.98-0.21,1.21-0.62,1.21-1.59c-0.03-30.75-0.02-61.49-0.03-92.24c0-0.48-0.04-0.96-0.06-1.43
		c0.66-0.69,1.63-0.79,2.41-1.26c3.18-1.9,6.08-4.16,8.89-6.56c1.67-1.43,3.05-3.16,4.26-4.94c1.12-1.65,2.03-3.51,2.52-5.51
		c0.53-2.18,1.04-3.96-1.3-5.34c1.89-0.31,3.04,0.88,4.16,2.08c0.35,0.37,0.65,0.75,1.11,1.05c8.7,5.8,18.42,9.48,27.98,13.48
		c5.29,2.21,10.49,4.62,15.77,6.87c0.22,0.09,0.46,0.17,0.64,0.31c8.39,6.39,15.26,13.94,18.71,24.17c1.64,4.86,2.98,9.8,3.6,14.88
		c0.65,5.33,1.69,10.57,2.94,15.78c1.7,7.12,2.54,14.39,3.73,21.6c-0.54-0.1-1.01,0.12-1.5,0.32c-1.18,0.48-2.35,1.01-3.56,1.41
		c-4.18,1.37-8.5,2.09-12.85,2.76c-4.83,0.74-9.65,1.32-14.53,0.98c-2.98-0.21-5.99,0.05-8.94-0.64c-0.4-0.09-1.16-0.44-1.2,0.45
		c-0.11,2.15-0.98,4.21-0.67,6.4c-0.56,1.97-0.52,4.02-0.77,6.03c-0.9,7.26-1.31,14.56-1.38,21.88c-0.02,2.16,0.08,4.3,0.52,6.44
		c0.41,1.99-0.11,3.98-0.21,5.97c-0.05,1.04-0.22,2.08-0.17,3.11c0.25,6.23-0.58,12.46-0.02,18.69c-0.73-0.19-1.47-0.38-2.2-0.58
		c-1.37-0.37-1.37-0.37-1.37,1.08c0,33.45,0,66.9,0,100.36c0,0.4,0.02,0.8,0.03,1.2c-0.85,0.09-1.69,0.19-2.54,0.28
		c0.01-0.12,0.02-0.24,0.02-0.36c0-34.1,0-68.2,0-102.3c0-0.2-0.02-0.4,0-0.6c0.06-0.53-0.16-0.77-0.69-0.91
		c-1.58-0.4-3.18-0.8-4.72-1.33c-1.06-0.36-1.2-0.07-1.2,0.95c0.03,18.63,0.02,37.26,0.02,55.89c0,16.39,0.01,32.78,0.01,49.17
		c-5.66,0.42-11.33,0.43-16.99,0.52c-6.83,0.11-13.65,0.3-20.47,0.45c0.01-37.83,0.01-75.65,0.03-113.48c0-0.79-0.31-0.99-1-1.14
		c-5.14-1.13-10.29-2.28-15.41-3.5c-1.04-0.25-1.15,0.05-1.15,0.98C115.72,208.15,115.72,247.33,115.72,286.52z M58.06,33.16
		c-1.94,0.6-3.75,1.23-5.59,1.72c-0.92,0.24-1.13,0.68-1.13,1.58c0.03,10.68,0.02,21.35,0.02,32.03c0,14.99,0.01,29.99-0.03,44.98
		c0,1.1,0.32,1.53,1.37,1.74c1.37,0.27,2.7,0.72,4.04,1.1c1.32,0.37,1.32,0.37,1.32-1c0-26.87,0-53.74,0-80.61
		C58.06,34.23,58.06,33.75,58.06,33.16z M170.68,33.63c0,0.46,0,0.73,0,1.01c0,26.95,0,53.9,0,80.85c0,0.12,0.01,0.24,0,0.36
		c-0.09,0.72,0.2,0.78,0.82,0.59c1.49-0.46,2.98-0.91,4.5-1.23c1.02-0.21,1.29-0.66,1.29-1.69c-0.03-25.43-0.03-50.86-0.03-76.29
		c0-0.28-0.02-0.56,0-0.84c0.03-0.42-0.14-0.68-0.54-0.81C174.76,34.96,172.79,34.32,170.68,33.63z M48.87,75.09
		c0-12.52,0-25.04,0-37.55c0-0.28-0.01-0.56,0-0.84c0.04-0.59-0.15-0.78-0.77-0.6c-1.5,0.43-3,0.85-4.52,1.15
		c-1.05,0.21-1.36,0.66-1.36,1.76c0.04,20,0.06,39.99,0,59.99c-0.01,4.21,0.22,8.38,0.8,12.54c0.1,0.72,0.34,1.14,1.11,1.3
		c1.17,0.25,2.34,0.55,3.46,0.96c1.15,0.43,1.3,0.03,1.29-1.04C48.85,100.21,48.87,87.65,48.87,75.09z M179.76,36.49
		c0,0.48,0,0.84,0,1.19c0,25.04,0,50.07,0,75.11c0,0.16,0.02,0.32,0,0.48c-0.08,0.65,0.14,0.86,0.81,0.66
		c1.53-0.46,3.07-0.88,4.62-1.29c0.41-0.11,0.72-0.23,0.78-0.74c0.16-1.51,0.51-3.01,0.52-4.52c0.04-12.04,0.01-24.08,0-36.12
		c0-10.64-0.01-21.28,0.02-31.92c0-0.82-0.2-1.19-1.03-1.38C183.6,37.55,181.77,37.02,179.76,36.49z"></path>
	<path d="M186.49,282.99c0.01-7.29,0.02-14.58,0.03-21.87c0.51,1.52,0.45,3.12,0.54,4.68
		c0.28,4.81,1.08,9.58,1.09,14.41C188.15,281.5,187.97,282.62,186.49,282.99z"></path>
	<path d="M42.11,260.66c0.27,7.2,0.1,14.39,0.12,21.59c-1.14-0.4-1.24-1.36-1.22-2.35c0.05-2.98,0.21-5.96,0.47-8.94
		C41.77,267.54,41.9,264.1,42.11,260.66z"></path>
</g>
<g onclick="select(this)" class="" id="estampa-secundaria" fill="#000000">
	<path d="M115.72,286.52c0-39.19,0-78.37-0.02-117.56c0-0.93,0.11-1.22,1.15-0.98c5.12,1.22,10.27,2.36,15.41,3.5
		c0.69,0.15,1,0.35,1,1.14c-0.03,37.83-0.03,75.65-0.03,113.48c-0.15,0.05-0.29,0.14-0.44,0.14
		C127.09,286.23,121.41,286.71,115.72,286.52z"></path>
	<path d="M95.49,285.83c0-37.75,0-75.5-0.02-113.25c0-0.78,0.22-1.09,1.01-1.26c5.12-1.09,10.23-2.19,15.32-3.39
		c1.13-0.27,1.23,0.04,1.23,1.02c-0.02,21.71-0.02,43.43-0.02,65.14c0,17.48-0.01,34.95-0.01,52.43c-3.66,0.09-7.3-0.34-10.96-0.42
		C99.85,286.05,97.66,286.1,95.49,285.83z"></path>
	<path d="M170.69,285.12c0-16.39-0.01-32.78-0.01-49.17c0-18.63,0.01-37.26-0.02-55.89c0-1.02,0.14-1.32,1.2-0.95
		c1.54,0.53,3.14,0.93,4.72,1.33c0.53,0.13,0.75,0.37,0.69,0.91c-0.02,0.2,0,0.4,0,0.6c0,34.1,0,68.2,0,102.3
		c0,0.12-0.01,0.24-0.02,0.36C175.08,284.98,172.89,285.17,170.69,285.12z"></path>
	<path d="M51.38,284.3c-0.01-0.44-0.02-0.88-0.02-1.32c0-33.63,0.01-67.27-0.03-100.9c0-1.15,0.34-1.6,1.42-1.83
		c1.75-0.38,3.46-0.92,5.26-1.41c0.02,0.3,0.06,0.53,0.06,0.75c0,34.83,0,69.66,0,104.5c0,0.28-0.01,0.56-0.02,0.84
		C55.8,284.93,53.58,284.7,51.38,284.3z"></path>
	<path d="M179.79,284.33c-0.01-0.4-0.03-0.8-0.03-1.2c0-33.45,0-66.9,0-100.36c0-1.45,0-1.45,1.37-1.08
		c0.73,0.2,1.47,0.38,2.2,0.58c0.18,1.24,0.17,2.5,0,3.71c-0.47,3.4,0.18,6.65,0.87,9.94c1.25,5.98,1.57,12.01,0.68,18.09
		c-0.33,2.25-0.52,4.52-0.77,6.78c-0.05,0.41,0.04,0.79,0.18,1.17c2.31,6.45,2.43,13.06,1.37,19.74c-0.11,0.68-0.11,1.33,0.02,2.01
		c0.35,1.88,0.61,3.76,0.59,5.7c-0.05,3.9-0.15,7.81,0.24,11.71c-0.01,7.29-0.02,14.58-0.03,21.87
		C184.36,283.96,182.07,284.15,179.79,284.33z"></path>
	<path d="M46.28,182.04c0.82-0.13,1.83-0.87,2.36-0.46c0.61,0.47,0.21,1.63,0.21,2.49
		c0.01,32.77,0.01,65.53,0.01,98.3c0,0.52-0.02,1.04-0.03,1.56c-2.29-0.24-4.56-0.52-6.61-1.68c-0.02-7.2,0.15-14.39-0.12-21.59
		c0.22-3.75,0.73-7.47,0.63-11.24c-0.05-2.04,0.06-4.07,0.43-6.08c0.35-1.94,0.38-3.87,0.1-5.84c-0.37-2.59-0.27-5.19,0.37-7.73
		c0.48-1.89,0.05-3.73-0.07-5.59c-0.23-3.54-0.69-7.07-0.63-10.64c0.08-4.61,1.16-9.01,2.69-13.32c0.34-0.96,0.55-1.89,0.46-2.91
		c-0.15-1.6-0.1-3.19,0.18-4.78c0.23-1.35,0.16-2.72-0.04-4.06C45.91,186.32,46.43,184.18,46.28,182.04z"></path>
	<path d="M95.52,31.78c4.16,2.27,8.66,3.53,13.29,4.36c0.43,0.08,0.87,0.08,1.3,0.11c0.11,0.04,0.22,0.11,0.33,0.13
		c0.82,0.15,1.95,0.03,2.37,0.52c0.54,0.62,0.17,1.76,0.17,2.67c0.01,29.94,0.01,59.89,0.01,89.83c0,1.46,0,1.47-1.37,1.17
		c-5.11-1.12-10.21-2.27-15.32-3.37c-0.63-0.14-0.92-0.39-0.84-1.03c0.02-0.16,0-0.32,0-0.48c0-30.86,0-61.73,0-92.59
		C95.48,32.66,95.51,32.22,95.52,31.78z"></path>
	<path d="M118.79,36.39c5.07-0.62,9.86-2.15,14.39-4.52c0.02,0.48,0.06,0.96,0.06,1.43c0,30.75,0,61.49,0.03,92.24
		c0,0.97-0.23,1.38-1.21,1.59c-5.19,1.11-10.36,2.3-15.55,3.46c-0.23,0.05-0.46,0.08-0.79,0.14c0-0.46,0-0.85,0-1.25
		c0-30.39,0.01-60.77-0.03-91.16c0-1.26,0.23-1.86,1.59-1.66C117.78,36.75,118.31,36.62,118.79,36.39z"></path>
	<path d="M58.06,33.16c0,0.59,0,1.07,0,1.54c0,26.87,0,53.74,0,80.61c0,1.37,0,1.37-1.32,1
		c-1.35-0.38-2.68-0.83-4.04-1.1c-1.05-0.21-1.37-0.64-1.37-1.74c0.04-14.99,0.03-29.99,0.03-44.98c0-10.68,0.01-21.35-0.02-32.03
		c0-0.91,0.21-1.34,1.13-1.58C54.31,34.39,56.12,33.76,58.06,33.16z"></path>
	<path d="M170.68,33.63c2.11,0.68,4.08,1.32,6.05,1.95c0.4,0.13,0.57,0.38,0.54,0.81c-0.02,0.28,0,0.56,0,0.84
		c0,25.43-0.01,50.86,0.03,76.29c0,1.03-0.27,1.48-1.29,1.69c-1.52,0.32-3.02,0.77-4.5,1.23c-0.62,0.19-0.91,0.13-0.82-0.59
		c0.02-0.12,0-0.24,0-0.36c0-26.95,0-53.9,0-80.85C170.68,34.37,170.68,34.09,170.68,33.63z"></path>
	<path d="M48.87,75.09c0,12.56-0.01,25.12,0.02,37.67c0,1.06-0.15,1.46-1.29,1.04c-1.12-0.42-2.29-0.71-3.46-0.96
		c-0.77-0.16-1.01-0.58-1.11-1.3c-0.58-4.16-0.81-8.33-0.8-12.54c0.06-20,0.04-39.99,0-59.99c0-1.09,0.3-1.55,1.36-1.76
		c1.52-0.3,3.03-0.72,4.52-1.15c0.62-0.18,0.81,0.01,0.77,0.6c-0.02,0.28,0,0.56,0,0.84C48.87,50.06,48.87,62.57,48.87,75.09z"></path>
	<path d="M179.76,36.49c2.01,0.53,3.84,1.06,5.71,1.48c0.83,0.19,1.03,0.56,1.03,1.38
		c-0.03,10.64-0.02,21.28-0.02,31.92c0,12.04,0.03,24.08,0,36.12c0,1.51-0.36,3.01-0.52,4.52c-0.05,0.51-0.36,0.63-0.78,0.74
		c-1.54,0.41-3.08,0.83-4.62,1.29c-0.66,0.2-0.89-0.01-0.81-0.66c0.02-0.16,0-0.32,0-0.48c0-25.04,0-50.07,0-75.11
		C179.76,37.33,179.76,36.97,179.76,36.49z"></path>
</g>
</svg>
