<!--?xml version="1.0" encoding="utf-8"?-->
<!-- Generator: Adobe Illustrator 24.2.3, SVG Export Plug-In . SVG Version: 6.00 Build 0)  -->
<svg version="1.1" id="Camada_1" xmlns="http://www.w3.org/2000/svg" xmlns:xlink="http://www.w3.org/1999/xlink" x="0px" y="0px" viewBox="0 0 229 418" enable-background="new 0 0 229 418" xml:space="preserve">
<g onclick="select(this)" class="" id="gola-primaria" fill="#021c3b">
	<path d="M77.9426346,7.9673753c0.58358-0.069356,1.032135-0.3976116,1.4363174-0.7842617
		c0.9175644-0.877727,1.9667511-1.6647758,2.7009964-2.6779346c1.8149261-2.5044103,4.3710556-3.4063895,7.2605515-3.79111
		c0.6240387-0.0830863,1.349823,0.1018219,1.8595047-0.4742064c1.1999969,0,2.4000015,0,3.5999985,0
		c0.1689606,0.4907088,0.5991287,0.3122897,0.914032,0.3134411c5.57827,0.0203979,11.1566238,0.020126,16.7349243,0.0349568
		c0.4080048,0.0010847,0.7730331-0.0500122,1.0710449-0.3483979c7.5200043,0,15.0400085,0,22.5599976,0
		c0.0828247,0.4741868,0.4899597,0.3142419,0.7614136,0.3587393c0.9795685,0.1605679,1.9686279,0.2632271,2.9482269,0.4236295
		c1.9836884,0.3248088,3.6552887,1.119652,4.9371338,2.7922442c1.2989655,1.6949236,2.7367096,3.3046358,4.6419067,4.3876181
		c1.3349609,0.5595255,1.9354553,1.5324001,1.8441772,3.0037222c-0.2312469,3.7279959-2.0542908,6.7283545-4.2597656,9.5706816
		c-0.4029999,0.519371-0.6724548,0.1390858-0.9757843-0.093195c-1.7763519-1.3603001-3.5279999-2.7546139-5.3391266-4.0669384
		c-0.7182922-0.5204697-0.6553192-0.8478394-0.1091766-1.4620466c1.5674438-1.7628803,2.8856964-3.6969404,3.7774658-6.0769958
		c-2.572403,0.1970119-4.9905701,0.3984365-7.4111481,0.5647984c-10.7585907,0.7394209-21.499321,1.821701-32.3157806,0.9718924
		c-6.6919632-0.5257635-13.3825684-1.0529213-20.0644302-1.69244c-0.3931198-0.0376253-0.9007416-0.2369938-1.1560059,0.0428095
		c-0.3374405,0.369853,0.0650253,0.8249645,0.220726,1.2047291c0.7995911,1.9502478,2.0776596,3.5827036,3.4878464,5.12358
		c0.3805923,0.4158716,0.7852325,0.7979889,0.0745773,1.3490562c-1.7995148,1.3954124-3.5663376,2.8337154-5.3231812,4.282795
		c-0.4913559,0.4052773-0.7964401,0.3135414-1.1702042-0.1451874c-1.9160156-2.3515911-3.4110718-4.9275246-4.2069702-7.8697643
		C75.8163681,10.5971127,76.278656,9.1439505,77.9426346,7.9673753z"></path>
</g>
<g onclick="select(this)" class="" id="detalhe-punho" fill="#801815">
	<path d="M227.842514,108.4025879c0.5749817,0.7692032,0.4148407,1.7266006,0.6702271,2.5743942
		c0.1290436,0.4283524,0.0513458,0.9416275,0.4472656,1.2786179c0,1.2792664,0,2.5585327,0,3.8377991
		c-2.5884094,1.5184555-5.5240936,2.0408173-8.3501892,2.8522034c-9.2681122,2.6609497-18.7564545,3.2958908-28.3376312,2.8338699
		c-2.0632172-0.0994873-4.1380615-0.3150177-6.1517944-0.877861c-0.5486603-0.1533432-1.0449371-0.3735123-1.4878845-0.7239075
		c-0.2774811-2.4845276,0.3950195-4.910202,0.4574432-7.3736725c3.770752,0.7478256,7.5832977,0.9685516,11.4201965,0.9679565
		c2.4749756-0.0003815,4.9785767,0.2395554,7.4136963-0.1605759c3.064743-0.5035858,6.1346741-1.0043488,9.1941071-1.5534821
		C218.1148682,111.1610413,222.9727478,109.7737122,227.842514,108.4025879z"></path>
	<path d="M0.24,114.6542282c0.4893606-1.1710663,0.3771629-2.4589615,0.7112085-3.6613846
		c0.1128704-0.4062881,0.0125913-0.8849258,0.4293163-1.1796799c0.2910708,0.1283722,0.5764085,0.272171,0.8740931,0.3827667
		c6.2617168,2.3264465,12.7867851,3.4107971,19.397501,4.0666275c3.4315319,0.3404388,6.8639488,0.0203171,10.2973766-0.0423508
		c1.7614765-0.0321579,3.5187092-0.1407547,5.2500401-0.3458481c1.4364471-0.170166,2.981884,0.0562363,4.3134613-0.805748
		c0.4163704-0.2695313,0.5930977,0.0961914,0.7915878,0.4404831c0.4368095,0.7576523,0.2224312,1.6597824,0.6029205,2.4191055
		c0.0466232,1.5126266,0.5876122,2.9912491,0.3115692,4.5260544c-2.6691475,1.3422165-5.5943871,1.6769257-8.4834976,1.7902603
		c-9.3506947,0.3668442-18.675539,0.1407166-27.842226-2.0807114c-2.2731495-0.5508575-4.541153-1.1079407-6.6533499-2.1515045
		C0.24,116.8929443,0.24,115.7735825,0.24,114.6542282z"></path>
</g>
<g onclick="select(this)" class="" id="estampa-primaria" fill="#021c3b">
	<path d="M42.907505,115.9281998c-0.3804893-0.7593231-0.166111-1.6614532-0.6029205-2.4191055
		c-0.1984901-0.3442917-0.3752174-0.7100143-0.7915878-0.4404831c-1.3315773,0.8619843-2.8770142,0.635582-4.3134613,0.805748
		c-1.7313309,0.2050934-3.4885635,0.3136902-5.2500401,0.3458481c-3.4334278,0.0626678-6.8658447,0.3827896-10.2973766,0.0423508
		c-6.6107159-0.6558304-13.1357841-1.740181-19.397501-4.0666275c-0.2976846-0.1105957-0.5830222-0.2543945-0.8740931-0.3827667
		c1.7899306-9.5023575,2.6885965-19.1367569,4.2582512-28.6731644c0.8426151-5.1193008,1.1584306-10.3164978,2.2566686-15.4050598
		c1.7446499-8.0836258,4.4581051-15.7489853,9.4218407-22.4775429c2.1457844-2.908699,4.5916576-5.5448303,7.4281387-7.7850304
		c1.3344898-1.0539589,2.2994804-2.5360756,3.8290272-3.3338928c3.6148033-1.8855038,7.2542801-3.7286377,11.0284195-5.2783661
		c10.0274162-4.1174316,20.0643997-8.2123909,29.5622063-13.4859104c1.9391403-1.0766773,3.933815-2.0501871,5.4105301-3.8396473
		c0.8109818-0.9827251,1.9905396-1.5904641,3.3671417-1.5671678c-1.664093,1.1765685-2.1263809,2.6297307-1.5008469,4.9422078
		c0.7958984,2.9422398,2.2909546,5.5181732,4.2069702,7.8697643c0.373764,0.4587288,0.6788483,0.5504646,1.1702042,0.1451874
		c1.7568436-1.4490795,3.5236664-2.8873825,5.3231812-4.282795c0.7106552-0.5510674,0.306015-0.9331846-0.0745773-1.3490562
		c-1.4101868-1.5408764-2.6882553-3.1733322-3.4878464-5.12358c-0.1557007-0.3797646-0.5581665-0.8348761-0.220726-1.2047291
		c0.2552643-0.2798033,0.762886-0.0804348,1.1560059-0.0428095c6.6818619,0.6395187,13.372467,1.1666765,20.0644302,1.69244
		c10.8164597,0.8498087,21.5571899-0.2324715,32.3157806-0.9718924c2.420578-0.1663618,4.8387451-0.3677864,7.4111481-0.5647984
		c-0.8917694,2.3800554-2.210022,4.3141155-3.7774658,6.0769958c-0.5461426,0.6142073-0.6091156,0.941577,0.1091766,1.4620466
		c1.8111267,1.3123245,3.5627747,2.7066383,5.3391266,4.0669384c0.3033295,0.2322807,0.5727844,0.612566,0.9757843,0.093195
		c2.2054749-2.8423271,4.0285187-5.8426857,4.2597656-9.5706816c0.0912781-1.4713221-0.5092163-2.4441967-1.8441772-3.0037222
		c1.8040161-0.1235514,2.9677124,0.963213,4.0435791,2.1754436c0.3423004,0.3857002,0.6642609,0.7411375,1.1140747,1.0351553
		c10.015213,6.5464888,21.2102203,10.5996943,32.1522522,15.1752443c3.9647369,1.6579075,7.8065491,3.5749054,11.7430115,5.2901115
		c1.6351929,0.7124977,2.7434998,2.2689476,4.1796417,3.3404427c3.1261292,2.3323669,5.8217316,5.1096878,8.1725159,8.219841
		c4.8403473,6.4038811,7.573822,13.7226105,9.31427,21.4695435c0.648407,2.8861542,1.1841888,5.7966232,1.4676514,8.7398987
		c0.558075,5.7943726,2.3274994,11.3395309,3.417038,17.0236282c1.1276703,5.8830719,1.9454803,11.8155975,2.8697968,17.7311859
		c-4.8697662,1.3711243-9.7276459,2.7584534-14.7245636,3.6553421c-3.059433,0.5491333-6.129364,1.0498962-9.1941071,1.5534821
		c-2.4351196,0.4001312-4.9387207,0.1601944-7.4136963,0.1605759c-3.8368988,0.0005951-7.6494446-0.2201309-11.4201355-0.9681702
		c0.397995-4.4217834,1.3395386-8.752449,2.2377777-13.0872345c0.5362396-2.5878677,1.2085876-5.1475754,1.8197479-7.7199402
		c-0.3908234,0.3567734-0.6051025,0.7716446-0.789444,1.1994095c-1.7770233,4.123909-3.0289459,8.4271622-4.175827,12.7510147
		c-2.369339,8.9325562-3.8379822,18.0407791-4.8481293,27.214325c-0.5737305,5.2101593-0.938385,10.4479065-1.2374268,15.6823578
		c-0.2820282,4.936264-0.494751,9.884491-0.4939728,14.8274231c0.002655,16.9393768-0.2863922,33.8787994,0.1625824,50.819046
		c0.193512,7.3013306,0.2618408,14.6057129,0.5153046,21.9078064c0.1688232,4.8633728,0.3232422,9.7277069,0.4854279,14.5916138
		c0.1993561,5.9791107,0.4654694,11.9532013,0.7395935,17.9288177c0.2303009,5.019989,0.4219818,10.0404358,0.8112488,15.0513
		c-7.654129,1.0700073-15.3581696,1.3612976-23.0732422,1.452179c-12.9472198,0.1525269-25.8881378,0.5621948-38.8300934,0.9285889
		c-6.7608643,0.1913757-13.4958572-0.4653015-20.2470093-0.5768433c-8.7106018-0.1439514-17.4220123-0.2460632-26.1319199-0.4232178
		c-8.3101959-0.1690063-16.6230583-0.3525085-24.8476906-1.7511292c0.5418816-3.7588501,0.4816322-7.5588074,0.7390099-11.3370361
		c0.3820381-5.6081238,0.5792046-11.2305908,0.7604103-16.8500214c0.1427193-4.4258575,0.2925491-8.8505402,0.4726982-13.2752838
		c0.2548981-6.2610779,0.389267-12.5274048,0.5358238-18.7924042c0.0933838-3.9920197,0.1545982-7.9874725,0.1912727-11.9777985
		c0.131134-14.2671509,0.0807762-28.5359955,0.0866127-42.8041992c0.0009117-2.2374725-0.0170631-4.4768066-0.1053925-6.7121582
		c-0.2500496-6.3277893-0.3140182-12.664093-0.8974266-18.9772339c-0.2267075-2.4532471-0.2513618-4.9276428-0.5398026-7.3721466
		c-0.5810051-4.9239349-1.1191139-9.8507843-2.0031929-14.7410049c-1.0833206-5.9923477-2.1588326-11.9780273-3.9337807-17.8119583
		c-0.6581345-2.1631546-1.2049675-4.3685989-2.1506424-6.554039c-0.5832481,0.8811417,0.16119,1.4419861,0.2478676,2.0992279
		c0.4439659,3.3662796,1.0535736,6.7120743,1.4424057,10.0838013
		C42.3154945,111.0284653,43.1100464,113.4209595,42.907505,115.9281998z"></path>
</g>
<g onclick="select(this)" class="" id="detalhe-lateral" fill="#801815">
	<path d="M180.3168945,283.9697571c-0.389267-5.0108643-0.5809479-10.031311-0.8112488-15.0513
		c-0.2741241-5.9756165-0.5402374-11.949707-0.7395935-17.9288177c-0.1621857-4.8639069-0.3166046-9.728241-0.4854279-14.5916138
		c-0.2534637-7.3020935-0.3217926-14.6064758-0.5153046-21.9078064c-0.4489746-16.9402466-0.1599274-33.8796692-0.1625824-50.819046
		c-0.0007782-4.9429321,0.2119446-9.8911591,0.4939728-14.8274231c0.2990417-5.2344513,0.6636963-10.4721985,1.2374268-15.6823578
		c1.0101471-9.1735458,2.4787903-18.2817688,4.8481293-27.214325c1.1468811-4.3238525,2.3988037-8.6271057,4.175827-12.7510147
		c0.1843414-0.4277649,0.3986206-0.8426361,0.789444-1.1994095c-0.6111603,2.5723648-1.2835083,5.1320724-1.8197479,7.7199402
		c-0.8982391,4.3347855-1.8397827,8.665451-2.2377777,13.0872345c-0.0624847,2.4636841-0.7349854,4.8893585-0.4575043,7.3738861
		c-1.2758331,10.3456116-2.3217926,20.7093811-1.9548645,31.1531219c0.0848389,2.4152832,0.7513123,4.7976074,0.4013214,7.251236
		c-0.3329468,2.3339691-0.443634,4.6863556-0.4229584,7.0467682c0.0576477,6.5835724,0.0962219,13.1778717-0.1157379,19.7472687
		c-0.1442261,4.4696655,0.7029724,8.6943665,1.4201355,12.9989471c0.8516083,5.1116943,0.9524536,10.2363281,0.2455444,15.3785553
		c-0.320282,2.3298645-0.5408936,4.6733246-0.8157501,7.0095825c-0.0492096,0.4181061,0.0968628,0.7891998,0.2263184,1.1624146
		c1.9881592,5.7323914,2.493515,11.6085815,1.5862885,17.5897217c-0.3216858,2.1208649-0.3144379,4.1804047,0.1411896,6.2758179
		c0.4254303,1.9566803,0.509079,3.958847,0.4698334,5.9625092c-0.1443481,7.3678131,0.6830597,14.6733856,1.3834839,21.9889984
		c0.2195587,2.2931824,0.334198,4.5985718,0.3148499,6.9089355c-0.0093231,1.1126404-0.4960785,1.8147888-1.5023499,2.1924744
		C184.1752014,283.5325928,182.2867737,283.9595337,180.3168945,283.9697571z"></path>
	<path d="M42.907505,115.9281998c0.2025414-2.5072403-0.5920105-4.8997345-0.8747025-7.35112
		c-0.3888321-3.371727-0.9984398-6.7175217-1.4424057-10.0838013c-0.0866776-0.6572418-0.8311157-1.2180862-0.2478676-2.0992279
		c0.9456749,2.1854401,1.4925079,4.3908844,2.1506424,6.554039c1.7749481,5.833931,2.8504601,11.8196106,3.9337807,17.8119583
		c0.884079,4.8902206,1.4221878,9.81707,2.0031929,14.7410049c0.2884407,2.4445038,0.3130951,4.9188995,0.5398026,7.3721466
		c0.5834084,6.3131409,0.647377,12.6494446,0.8974266,18.9772339c0.0883293,2.2353516,0.1063042,4.4746857,0.1053925,6.7121582
		c-0.0058365,14.2682037,0.0445213,28.5370483-0.0866127,42.8041992c-0.0366745,3.9903259-0.0978889,7.9857788-0.1912727,11.9777985
		c-0.1465569,6.2649994-0.2809258,12.5313263-0.5358238,18.7924042c-0.1801491,4.4247437-0.3299789,8.8494263-0.4726982,13.2752838
		c-0.1812057,5.6194305-0.3783722,11.2418976-0.7604103,16.8500214c-0.2573776,3.7782288-0.1971283,7.578186-0.7390099,11.3370361
		c-1.7245903-0.0838623-3.3726768-0.5370178-4.9845734-1.1035767c-1.6185989-0.5689087-2.0116501-1.1138-1.9831123-2.8437195
		c0.0459366-2.7848511,0.186451-5.5653687,0.4139137-8.3447876c0.433239-5.2938843,0.7164192-10.6002197,1.1700706-15.8921509
		c0.4089508-4.770462-0.068821-9.5951233,0.9217758-14.3286285c0.1891174-0.9036407,0.0947456-1.838028-0.0444946-2.7452698
		c-0.4787102-3.1191711-0.3467941-6.214859,0.3346939-9.2854462c0.1951103-0.8791046,0.1336899-1.7297516,0.0723305-2.6114655
		c-0.2882462-4.1416168-0.8612595-8.2615356-0.8543091-12.4265594c0.0080452-4.8191986,1.1005249-9.4173431,2.7082024-13.9132538
		c0.3438072-0.961441,0.5690727-1.8806915,0.4489937-2.909317c-0.176609-1.5128784-0.1274376-3.0283203,0.1454735-4.536911
		c0.1131401-0.625412,0.2028465-1.277359,0.1551666-1.9060059c-0.3654709-4.8179779-0.0608215-9.6545563-0.424675-14.4716797
		c-0.0846634-1.1208496,0.0723495-2.2323608,0.1582413-3.3475952c0.1443939-1.874649,0.0628281-3.747345-0.0448914-5.6249847
		c-0.3893738-6.7869263-0.1290779-13.5804901-0.0253029-20.3673248c0.1122742-7.3421783-0.643425-14.5998688-1.5617981-21.8567352
		c-0.1952324-1.5427094-0.3826065-3.0864105-0.5735855-4.6296616
		C43.4951172,118.9194489,42.9541283,117.4408264,42.907505,115.9281998z"></path>
</g>
<g onclick="select(this)" class="" id="estampa-terciaria" fill="#ffffff">
	<path d="M130.3398895,285.9807129c-0.0002594-86.8105316-0.0017395-173.6210327,0.0202789-260.4315491
		c0.0001831-0.720108-0.4555817-2.0244598,0.5263062-2.029089c0.8028564-0.0037823,0.3260803,1.3103199,0.3263092,2.0003643
		c0.0291138,86.6107788,0.0276337,173.2215424,0.0273743,259.8323669c0,0.1997375-0.0051422,0.3995056-0.0081635,0.5991821
		C130.9414825,286.1788025,130.6431274,286.155304,130.3398895,285.9807129z"></path>
	<path d="M96.9927292,285.6915283c-0.0029297-0.5594788-0.0084229-1.118927-0.0084305-1.6784058
		c-0.0003738-86.2131958-0.000351-172.4263916-0.000351-258.6395569c0-0.5053234,0-1.0106468,0-1.5282784
		c0.6742401,0.0091267,0.866272,0.3505001,0.8811111,0.8494759c0.008316,0.2795601,0.0054474,0.5594902,0.0054474,0.8392544
		c0.0003128,86.5329514,0.0004578,173.0658875,0.0000687,259.5988464c0,0.199707-0.0078506,0.3993835-0.0125198,0.5989685
		C97.5599442,285.9194946,97.2707748,285.925293,96.9927292,285.6915283z"></path>
</g>
<g onclick="select(this)" class="" id="estampa-secundaria" fill="#801815">
	<path d="M128.2354279,286.0477295c-0.0103455-0.3990173-0.0297699-0.7980347-0.0297852-1.197052
		c-0.0013123-86.0658417-0.0022583-172.1316833,0.0164795-258.1975098c0.0001678-0.6922512-0.399765-1.9310398,0.5101776-1.9369183
		c0.777359-0.0050259,0.3392181,1.2357121,0.3394165,1.8919754c0.0249939,86.0658264,0.0237122,172.1316681,0.0230713,258.1975098
		c0,0.3995972-0.0092316,0.7991638-0.0145111,1.1988831C128.8069458,286.1860962,128.5233002,286.1583557,128.2354279,286.0477295z"></path>
	<path d="M99.3997116,285.8063354c-0.0058746-0.4394836-0.0168991-0.8789978-0.0169067-1.3184814
		c-0.0007553-85.8578033-0.0015488-171.7156219,0.0167542-257.5734253c0.0001297-0.5708218-0.3616257-1.6291904,0.3307877-1.6391087
		c0.940834-0.0134773,0.532341,1.0657845,0.5324783,1.6594391c0.0194168,85.8977737,0.0185547,171.7955475,0.0174179,257.6932983
		c-0.0000076,0.3992004-0.0167007,0.7984314-0.0260315,1.1976929
		C99.9664917,285.933197,99.681778,285.9277954,99.3997116,285.8063354z"></path>
	<path d="M126.0531616,286.0875549c-0.0091858-0.4392395-0.0264053-0.878479-0.0264206-1.3177185
		c-0.0011902-85.7345886-0.0023193-171.4691772,0.0216751-257.2037354c0.0001755-0.6248455-0.4632111-1.7668953,0.504303-1.7790279
		c0.6464386-0.0081081,0.2890549,1.1547546,0.2892227,1.7686729c0.0212631,85.7345734,0.0203323,171.469162,0.0185394,257.2037354
		c-0.0000153,0.4385376-0.0261765,0.8771057-0.0408936,1.3156738
		C126.5652618,286.1821899,126.309906,286.1781921,126.0531616,286.0875549z"></path>
	<path d="M101.6483536,285.8601685c-0.0137253-0.4786987-0.0394669-0.957428-0.0394745-1.4361267
		c-0.00177-85.5375977-0.0016937-171.0751801-0.0015488-256.6127625c0-0.3597279-0.0076065-0.7198391,0.0065079-1.0790596
		c0.010704-0.2725163-0.0161896-0.6056805,0.4060059-0.5815201c0.3593063,0.0205631,0.4379501,0.2935047,0.449585,0.5927391
		c0.0093079,0.2395115,0.0074158,0.4795246,0.0074158,0.7193165c0.0001984,85.9372864,0.0001373,171.8745728-0.0005264,257.8118896
		c0,0.1997986-0.0089722,0.3995667-0.0138168,0.5993958C102.1910782,285.8694153,101.9197159,285.8648071,101.6483536,285.8601685z"></path>
	<path d="M119.4129944,286.2991028c-0.0154953-0.3983154-0.0445557-0.7966919-0.0445633-1.1950073
		c-0.0019684-85.187088-0.0019608-170.3742065,0.0001373-255.5612946c0.0000076-0.4382744,0.0040359-0.8797951,0.0570221-1.3136005
		c0.0317078-0.259676,0.2423019-0.4184875,0.519455-0.3712749c0.2499542,0.0425797,0.2577133,0.2687168,0.2640228,0.4670467
		c0.0088882,0.2795792,0.0060196,0.5595722,0.0060196,0.8393879c0.0001678,85.3469925,0.0001907,170.693985-0.0009689,256.0409851
		c0,0.359375-0.0170898,0.7187195-0.0265579,1.0781555C119.9313889,286.4008789,119.6733398,286.4064636,119.4129944,286.2991028z"></path>
	<path d="M108.2826157,286.1253052c-0.0058441-0.3995667-0.0168076-0.7991028-0.0168152-1.1986389
		c-0.0007553-85.1416931-0.0017242-170.2833862,0.0235214-255.4250793c0.0001526-0.4892368-0.4419785-1.4449863,0.3886414-1.4457436
		c0.8287582-0.0007591,0.4471817,0.9639664,0.4472961,1.4831467c0.0193481,85.1416931,0.0186005,170.2834015,0.017334,255.4250946
		c0,0.3992615-0.0184555,0.7985229-0.0286865,1.1977844C108.8298569,286.3017273,108.5547638,286.2469788,108.2826157,286.1253052z"></path>
	<path d="M117.1901016,286.3353882c-0.0074387-0.4793396-0.0213852-0.9587097-0.0213928-1.4380798
		c-0.0009613-84.972702-0.0020065-169.9454041,0.0214767-254.9181213c0.0001602-0.5780964-0.4516373-1.6560249,0.4590073-1.6580296
		c0.6818771-0.0015049,0.326088,1.0746498,0.3262177,1.6508904c0.018219,85.0526428,0.0174484,170.1052856,0.0159149,255.1579285
		c-0.0000076,0.3988647-0.0225143,0.7977295-0.0351563,1.1966248
		C117.7003784,286.3295898,117.4452362,286.332489,117.1901016,286.3353882z"></path>
	<path d="M110.5146713,286.2796936c-0.0123138-0.4789734-0.035408-0.9579468-0.035408-1.4369202
		c-0.0015945-84.9413757-0.0015335-169.8827515-0.0013962-254.8241272c0-0.3597412-0.0036697-0.7196178,0.0048523-1.0791836
		c0.0067673-0.2858219,0.0163422-0.5956841,0.4242935-0.5727577c0.3718185,0.0208969,0.4230652,0.3017387,0.4259644,0.600296
		c0.0027161,0.2797813,0.0043945,0.5595837,0.0043945,0.8393764c0.0001526,85.1412354,0.0001984,170.2824707-0.0012054,255.4237213
		c-0.0000076,0.3590393-0.0205688,0.7181091-0.0317917,1.0772095
		C111.0373917,286.4001465,110.7736282,286.4084778,110.5146713,286.2796936z"></path>
	<path d="M123.8263245,286.1300964c-0.0041504-0.4796448-0.0118942-0.9592896-0.0119095-1.4389343
		c-0.0005417-85.4307709-0.0016403-170.8615417,0.0223541-256.2922974c0.0001602-0.5806637-0.4620438-1.653553,0.454628-1.6675415
		c0.6271591-0.0095692,0.3004227,1.0776272,0.3005447,1.6571846c0.0170898,85.4307632,0.0163269,170.8615265,0.0158615,256.2922668
		c0,0.4796753-0.0069733,0.9593201-0.0105591,1.4389648C124.3416672,286.2209473,124.0848083,286.2367554,123.8263245,286.1300964z"></path>
	<path d="M103.8787384,285.9117432c-0.0038986-0.5195313-0.0112-1.039032-0.0112-1.5585938
		c-0.0005035-85.2146301-0.0004883-170.4292603-0.0004578-255.6438904c0-0.359724-0.0196304-0.7209492,0.007103-1.0786953
		c0.021225-0.2841187-0.1303177-0.7495537,0.3679581-0.7131901c0.3750153,0.0273666,0.4230881,0.420433,0.4241638,0.7553425
		c0.0007706,0.2398109,0.0023346,0.4796219,0.0023346,0.7194328c0.0001068,85.4944153,0.0001373,170.9888458-0.0009308,256.4832458
		c-0.0000076,0.359436-0.0157089,0.7188721-0.0241165,1.0783081
		C104.3780212,286.1326294,104.1275482,286.037384,103.8787384,285.9117432z"></path>
	<path d="M121.6446762,286.1924438c-0.0080338-0.4794006-0.0230789-0.9587708-0.0230865-1.4381714
		c-0.0010452-85.2153625-0.0021896-170.4307251,0.0233765-255.6460571c0.0001755-0.5773335-0.4772034-1.6550179,0.4447556-1.6702156
		c0.6516113-0.0107384,0.3140717,1.0721359,0.3141861,1.6482296c0.0176392,85.1753845,0.0168686,170.3507538,0.0159836,255.5261383
		c0,0.5193481-0.0127106,1.0386963-0.0195084,1.5580139C122.1535721,286.352478,121.9020691,286.3733215,121.6446762,286.1924438z"></path>
	<path d="M106.0976944,286.0553284c-0.0078583-0.399353-0.0226059-0.7987061-0.0226135-1.1980591
		c-0.0010071-85.2227478-0.0016861-170.4454803,0.0147018-255.6682129c0.0000992-0.5387306-0.2999954-1.5499744,0.307991-1.5408287
		c0.8880692,0.0133572,0.4322739,1.0214787,0.4324188,1.563446c0.0233307,85.1827621,0.0223389,170.3655243,0.021347,255.5483093
		c0,0.4394531-0.0145721,0.8788757-0.0222626,1.3183594C106.5825577,286.1633301,106.3382645,286.1683044,106.0976944,286.0553284z"></path>
	<path d="M112.7453003,286.334198c-0.0017548-68.4003754-0.0035934-136.800766-0.0052109-205.2011566
		c-0.0003891-16.9102097-0.000061-33.8204155-0.0000458-50.7306213c0-0.2798367-0.0258102-0.5627251,0.0066681-0.8387547
		c0.0419769-0.3566475-0.1947021-0.9513416,0.3973846-0.9487076c0.5882645,0.0026169,0.341774,0.5967388,0.3961563,0.9534931
		c0.0238342,0.1562881,0.0041656,0.3192062,0.0041656,0.4791145c-0.0000076,85.1507034-0.0000229,170.3014069-0.0003281,255.4521027
		c0,0.2797852-0.0041733,0.5595703-0.0063782,0.8393555C113.2736053,286.3374023,113.0094452,286.3357849,112.7453003,286.334198z"></path>
	<path d="M114.9541016,286.3407593c-0.0024338-2.2385559-0.0069962-4.4771118-0.0070038-6.7156982
		c-0.0003662-83.1077728-0.0014496-166.2155762,0.023468-249.3233643c0.0001678-0.5730667-0.4589844-1.6446056,0.4275055-1.6556797
		c0.6581116-0.0082207,0.3187943,1.0762424,0.3189163,1.6542988c0.0176697,85.346344,0.0163651,170.692688,0.0160675,256.039032
		C115.4735107,286.3398438,115.2138062,286.3403015,114.9541016,286.3407593z"></path>
</g>
</svg>
