<!--?xml version="1.0" encoding="utf-8"?-->
<!-- Generator: Adobe Illustrator 24.2.3, SVG Export Plug-In . SVG Version: 6.00 Build 0)  -->
<svg version="1.1" id="Camada_1" xmlns="http://www.w3.org/2000/svg" xmlns:xlink="http://www.w3.org/1999/xlink" x="0px" y="0px" viewBox="0 0 229 418" enable-background="new 0 0 229 418" xml:space="preserve">
<g onclick="select(this)" class="" id="gola-primaria" fill="#bf0811">
	<path d="M78.11,7.97c0.54-0.06,0.97-0.35,1.34-0.71c0.95-0.9,2.03-1.71,2.79-2.76c1.82-2.51,4.37-3.4,7.26-3.79
		c0.62-0.08,1.35,0.11,1.85-0.47c1.2,0,2.4,0,3.6,0c0.26,0.54,0.76,0.31,1.14,0.31c5.44,0.03,10.88,0.02,16.32,0.04
		c0.6,0,1.16-0.15,1.71-0.34c7.35,0,14.7,0,22.06,0c0.03,0.44,0.39,0.31,0.63,0.35c0.86,0.13,1.73,0.25,2.6,0.36
		c2.3,0.29,4.2,1.21,5.64,3.14c1.21,1.62,2.61,3.1,4.4,4.12c1.86,0.91,2.21,1.94,1.64,4.64c-0.67,3.13-2.27,5.83-4.33,8.27
		c-0.53-0.33-1.05-0.67-1.58-1c-1.44-1.14-2.85-2.32-4.33-3.4c-0.72-0.53-0.78-0.86-0.16-1.55c1.39-1.55,2.56-3.27,3.42-5.18
		c0.34-0.75,0.17-1.01-0.65-0.92c-0.95,0.11-1.91,0.18-2.86,0.24c-5.09,0.36-10.2,0.65-15.28,1.09c-8.58,0.73-17.14,0.55-25.7-0.23
		C94.53,9.7,89.44,9.31,84.35,8.84C83.19,8.73,83.2,9.12,83.58,10c0.88,2.05,2.19,3.81,3.68,5.43c0.51,0.56,0.51,0.85-0.09,1.3
		c-1.11,0.85-2.16,1.77-3.23,2.66c-0.98,0.49-1.6,1.54-2.71,1.85c-2.2-2.45-3.73-5.26-4.6-8.44C76.01,10.52,76.41,9.23,78.11,7.97z"></path>
</g>
<g onclick="select(this)" class="" id="estampa-primaria" fill="#bf0811">
	<path d="M146.76,21.12c2.06-2.43,3.67-5.13,4.33-8.27c0.57-2.7,0.22-3.74-1.64-4.64c1.81-0.13,2.96,0.97,4.04,2.18
		c0.34,0.39,0.67,0.74,1.11,1.04c9.63,6.34,20.39,10.29,30.93,14.7c4.34,1.81,8.55,3.88,12.86,5.74c1.64,0.71,2.74,2.27,4.18,3.34
		c3.16,2.35,5.88,5.16,8.25,8.31c4.8,6.38,7.49,13.68,9.27,21.39c1.11,4.8,1.23,9.77,2.38,14.55c2.19,9.02,3.71,18.16,5.17,27.32
		c0.08,0.47,0.08,0.95,0.12,1.43c-3.25,1.31-6.56,2.43-9.99,3.2c-3.23,0.72-6.5,1.13-9.75,1.7c-2.99,0.53-6.01,0.71-9.03,0.72
		c-4.26,0.01-8.53,0.25-12.73-0.66c-0.89-0.19-1.08,0.06-1.26,0.82c-0.5,2.05-0.32,4.12-0.33,6.19c-0.6,1.92-0.51,3.93-0.75,5.89
		c-0.36,2.89-0.58,5.79-0.86,8.69c-1.65,3.7-3.3,7.4-5,11.2c0.78-0.07,0.85-0.58,1.08-0.92c1.28-1.92,2.16-4.08,3.58-5.92
		c0.03,4.15-0.55,8.32-0.03,12.43c0.44,3.52,0.23,6.97,0.06,10.48c-0.21,4.38-0.03,8.77-0.3,13.15c-1.64,3.09-2.86,6.36-4.22,9.58
		c0.56-0.32,0.87-0.8,1.18-1.3c1.03-1.71,1.84-3.54,3.02-5.16c0.19,3.11,0.37,6.22,0.03,9.34c-0.32,2.94,0.48,5.79,1.04,8.65
		c0.84,4.25,1.26,8.54,1.04,12.88c-1.85,4.14-3.71,8.28-5.54,12.43c-0.15,0.33-0.75,0.81-0.23,1.09c0.41,0.22,0.64-0.44,0.88-0.79
		c0.15-0.23,0.26-0.49,0.4-0.73c1.34-2.31,2.67-4.62,4.01-6.92c-0.16,1.67-0.25,3.35-0.52,5c-0.21,1.34-0.13,2.58,0.29,3.87
		c1.89,5.78,2.13,11.69,1.11,17.63c-0.36,2.09,0.21,4.04,0.42,6.05c-0.35,0.14-0.37,0.5-0.5,0.78c-2.19,4.93-4.37,9.86-6.56,14.79
		c-0.27,0.61-0.57,1.22-0.9,1.94c0.68-0.17,0.82-0.61,1.03-0.98c2.14-3.8,4.27-7.59,6.41-11.39c0.23-0.42,0.44-0.85,0.86-1.12
		c-0.01,3.02-0.12,6.04,0.17,9.05c-0.02,0.19-0.06,0.39-0.06,0.59c-0.03,7.52-0.05,15.04-0.08,22.56c-2.48,0.96-5.11,1.13-7.71,1.45
		c-2.92,0.36-5.85,0.64-8.79,0.72c1.3-3.08,2.77-6.1,3.9-9.25c-0.11-0.06-0.22-0.11-0.33-0.17c-1.76,3.19-3.52,6.37-5.28,9.56
		c-0.85,0.02-1.7,0.04-2.56,0.06c0.74-1.01,0.87-2.15,0.87-3.39c-0.04-9.2-0.02-18.39-0.03-27.59c0-0.7,0.15-1.32,0.43-1.96
		c1.88-4.19,3.73-8.4,5.58-12.6c0.27-0.61,0.58-1.24,0.3-1.99c-0.59,0.8-1.05,1.65-1.53,2.49c-8.29,14.64-16.57,29.28-24.86,43.93
		c-0.27,0.48-0.63,0.94-0.55,1.55c-0.94,0.01-1.88,0.02-2.82,0.03c1.29-2.26,2.58-4.51,3.85-6.77c6.34-11.2,12.67-22.41,19.02-33.61
		c0.39-0.69,0.59-1.35,0.59-2.14c-0.02-9.28,0-18.56-0.03-27.84c0-0.95,0.2-1.79,0.58-2.65c1.83-4.08,3.64-8.18,5.43-12.28
		c0.41-0.94,0.72-1.92,1.11-2.97c-0.51,0.08-0.67,0.33-0.79,0.57c-2.18,4.18-4.6,8.23-6.93,12.32
		c-6.6,11.56-13.13,23.16-19.69,34.74c-0.26,0.46-0.42,0.92-0.42,1.47c0.03,9.48,0.04,18.96,0.07,28.44c0,0.7-0.13,1.33-0.41,1.97
		c-1.3,2.92-2.56,5.85-3.84,8.78c-5.43,0.15-10.85,0.3-16.28,0.44c0.01-1.8,0.03-3.6,0.02-5.39c-0.01-6.19-0.03-12.38-0.05-18.58
		c2.1-4.7,4.2-9.4,6.27-14.12c0.22-0.51,0.85-1.36,0.26-1.61c-0.58-0.25-0.63,0.84-0.9,1.31c-4.14,7.34-8.24,14.69-12.34,22.05
		c-2.95,5.3-5.89,10.61-8.83,15.91c-0.08,0.15-0.16,0.3-0.25,0.46c-0.87-0.03-1.74-0.05-2.61-0.08c0.21-0.39,0.4-0.78,0.62-1.16
		c5.77-10.28,11.54-20.57,17.33-30.84c0.35-0.62,0.5-1.22,0.5-1.92c-0.02-9.44-0.01-18.88-0.02-28.32c0-0.69,0.12-1.32,0.41-1.96
		c2.15-4.82,4.29-9.64,6.41-14.47c0.18-0.42,0.52-0.84,0.2-1.64c-0.83,1.48-1.53,2.72-2.23,3.96
		c-8.29,14.64-16.59,29.29-24.88,43.93c-0.25,0.45-0.53,0.87-0.53,1.44c0.02,10.28,0.03,20.56,0.04,30.84
		c-5.65-0.12-11.3-0.25-16.94-0.37c1.8-4.05,3.6-8.11,5.39-12.16c-1.8,2.66-3.36,5.43-4.89,8.22c-0.7,1.29-1.57,2.49-2.04,3.9
		c-0.9-0.11-1.84,0.2-2.72-0.21c0,0,0.04-0.05,0.04-0.05l-0.02-0.06c0.77-0.67,1.08-1.49,1.07-2.52
		c-0.03-9.47-0.01-18.94-0.02-28.41c0-0.65,0.11-1.24,0.38-1.85c1.99-4.45,3.96-8.9,5.92-13.36c0.46-1.06,0.88-2.13,1.32-3.2
		c-0.84,0.56-1.19,1.42-1.64,2.21c-6.67,11.78-13.34,23.56-20,35.34c-2.2,3.89-4.36,7.81-6.53,11.71c-0.83-0.06-1.67-0.11-2.5-0.17
		c1.1-1.9,2.2-3.8,3.28-5.71c6.42-11.33,12.82-22.67,19.25-34c0.37-0.65,0.53-1.29,0.53-2.04c-0.02-9.35-0.01-18.71-0.01-28.06
		c0-0.56-0.01-1.1,0.23-1.64c2.32-5.2,4.67-10.38,6.81-15.66c0.08-0.2,0.18-0.35-0.12-0.49c-0.32,0.03-0.36,0.37-0.48,0.58
		c-2.43,4.31-4.87,8.61-7.32,12.91c-6.47,11.3-12.85,22.66-19.28,33.99c-0.35,0.61-0.52,1.21-0.51,1.92
		c0.02,9.39,0.01,18.79,0.02,28.18c0,0.78-0.15,1.48-0.47,2.19c-1.16,2.58-2.28,5.19-3.42,7.78c-5.38-0.4-10.77-0.78-16.03-2.16
		c0-6.51,0.01-13.02,0-19.54c0-0.7,0.13-1.32,0.42-1.96c2.01-4.48,3.99-8.98,5.96-13.47c0.19-0.43,0.6-0.88,0.22-1.43
		c-0.49,0.11-0.55,0.57-0.73,0.89c-1.05,1.84-2.05,3.7-3.1,5.54c-1.49,2.59-2.78,5.3-4.47,7.77c0.11-1.64,0.22-3.27,0.34-4.91
		c0.5-1.06,1.41-1.92,1.4-3.23c-0.03-7.99-0.03-15.98-0.04-23.96c0.16-0.8-0.01-1.58-0.08-2.37c-0.14-2.28,0.51-4.35,1.47-6.41
		c1.99-4.26,3.84-8.59,5.74-12.89c0.16-0.37,0.5-0.74,0.17-1.23c-0.32,0.09-0.4,0.38-0.53,0.61c-2.1,3.71-4.2,7.43-6.3,11.14
		c-0.33,0.59-0.59,1.22-1.14,1.66c-0.07-1.22-0.14-2.44-0.21-3.66c0.42-0.53,0.9-1.08,0.89-1.78c-0.02-2.27,0.16-4.55-0.11-6.82
		c0.04-0.14,0.07-0.27,0.11-0.41c0.2-0.15,0.17-0.35,0.11-0.56c0.19-0.69,0.31-1.41,0.57-2.07c2.02-5.17,1.74-10.57,1.69-15.97
		c-0.03-3.07-0.04-6.13-0.13-9.2c1.82-4.03,3.7-8.05,5.12-12.26c-1.87,2.81-3.38,5.82-5.22,8.64c-0.01-11.51-0.01-23.03-0.02-34.54
		c0,0,0,0.02,0,0.02c0-0.18,0-0.36,0-0.54c1.51-2.44,5.28-11.47,5.07-12.4c-0.51,0.9-0.95,1.69-1.41,2.47
		c-1.27,2.16-2.32,4.46-3.84,6.47c-0.57-5.16-1.15-10.31-1.72-15.47c-0.03-0.23,0-0.49-0.27-0.61c-0.03-0.39-0.06-0.78-0.09-1.17
		c0.32-4.07,0.1-8.15,0.15-12.23c0.01-0.65,0.13-1.25,0.39-1.85c2.25-5.04,4.48-10.08,6.7-15.13c0.16-0.37,0.5-0.74,0.21-1.22
		c-0.48,0.11-0.54,0.56-0.72,0.89c-2.55,4.43-5.07,8.88-7.66,13.3c-0.54,0.92-0.7,1.79-0.55,2.84c0.35,2.37,0.61,4.75,0.9,7.13
		c-1.69,0.4-3.33,0.99-5.07,1.24c-3.53,0.51-7.06,0.35-10.6,0.29c-5.89-0.09-11.78-0.34-17.52-1.82c-2.72-0.7-5.47-1.41-7.86-3.02
		c1.78-9.43,2.66-18.99,4.22-28.45c0.85-5.16,1.17-10.4,2.28-15.53c1.87-8.66,4.85-16.81,10.46-23.81c1.9-2.38,4.02-4.55,6.4-6.46
		c1.39-1.12,2.53-2.52,4.04-3.49c0.23-0.15,0.44-0.33,0.69-0.45c6.74-3.24,13.64-6.14,20.55-9c7.33-3.03,14.47-6.47,21.35-10.43
		c1.04-0.6,1.99-1.26,2.78-2.2c0.94-1.12,2.14-1.92,3.7-1.91c-1.69,1.26-2.09,2.56-1.48,4.83c0.86,3.18,2.4,5.99,4.6,8.44
		c-0.57,0.84-1.61,1.14-2.15,2.1c-5.03,8.91-10.12,17.77-15.21,26.64c-0.39,0.68-0.57,1.36-0.57,2.15
		c0.02,9.43,0.01,18.87,0.02,28.3c0,0.56-0.03,1.1-0.27,1.63c-2.25,4.98-4.48,9.97-6.73,14.96c-0.17,0.37-0.33,0.71-0.31,1.15
		c0.42-0.07,0.52-0.32,0.65-0.57c1.39-2.47,2.82-4.92,4.2-7.39c7.5-13.38,15-26.76,22.49-40.15c0.29-0.51,0.64-0.99,0.64-1.65
		c-0.02-9.67-0.03-19.35-0.05-29.02c1.07-0.89,2.12-1.81,3.23-2.66c0.59-0.46,0.6-0.75,0.09-1.3c-1.49-1.62-2.8-3.38-3.68-5.43
		c-0.38-0.88-0.39-1.27,0.78-1.16c5.08,0.48,10.18,0.87,15.26,1.34c8.56,0.79,17.12,0.97,25.7,0.23c5.09-0.44,10.19-0.73,15.28-1.09
		c0.96-0.07,1.91-0.13,2.86-0.24c0.82-0.09,1,0.16,0.65,0.92c-0.87,1.91-2.03,3.63-3.42,5.18c-0.62,0.69-0.57,1.02,0.16,1.55
		c1.48,1.08,2.89,2.26,4.33,3.4c-0.04,0.44-0.12,0.87-0.12,1.31c0.02,6.55,0.04,13.1,0.08,19.66c0,0.7-0.16,1.33-0.44,1.96
		c-2.22,4.95-4.43,9.91-6.65,14.86c-0.17,0.37-0.33,0.72-0.31,1.26c0.64-0.36,0.85-0.9,1.11-1.35c5.62-9.76,11.22-19.53,16.86-29.28
		c0.42-0.73,0.32-1.06-0.41-1.46c-2.48-1.37-4.89-2.86-7.23-4.46C147.51,22.2,147.02,21.77,146.76,21.12z M173.94,39.57
		c-1.04,0.37-1.21,1.33-1.65,2.1c-8.88,15.83-17.72,31.67-26.58,47.5c-0.34,0.6-0.59,1.19-0.58,1.91
		c0.03,9.44,0.04,18.87,0.06,28.31c0,0.46-0.12,0.86-0.3,1.27c-2.17,4.89-4.34,9.78-6.5,14.68c-0.24,0.54-0.69,1.02-0.65,1.72
		c0.62-0.13,0.77-0.62,1-1.02c2.33-4.05,4.67-8.1,6.97-12.17c6.56-11.58,13.1-23.17,19.67-34.74c0.35-0.62,0.49-1.23,0.49-1.93
		c-0.01-9.44,0-18.87-0.02-28.31c0-0.74,0.15-1.4,0.45-2.07c1.95-4.29,3.89-8.59,5.81-12.9C172.75,42.48,173.33,41.02,173.94,39.57z
		 M138.23,174.97c0.88-0.04,1.02-0.6,1.26-1.02c2.11-3.67,4.23-7.34,6.32-11.02c6.46-11.4,12.91-22.81,19.39-34.2
		c0.47-0.83,0.68-1.65,0.68-2.6c-0.02-9.32-0.01-18.63-0.03-27.95c0-0.7,0.16-1.32,0.44-1.96c2.08-4.74,4.32-9.42,6.17-14.26
		c0.11-0.29,0.33-0.55,0.03-0.82c-0.37-0.04-0.38,0.28-0.48,0.46c-2.15,3.97-4.43,7.86-6.67,11.77
		c-6.58,11.52-13.07,23.09-19.61,34.63c-0.41,0.72-0.6,1.44-0.6,2.27c0.02,7.76-0.13,15.52,0.07,23.27
		c0.11,4.02-0.56,7.68-2.43,11.25C141.08,168.02,139.77,171.46,138.23,174.97z M132.03,166.39c-0.43,0.09-0.48,0.51-0.64,0.8
		c-2.43,4.23-4.86,8.45-7.27,12.69c-6.54,11.54-13.07,23.1-19.61,34.64c-0.35,0.62-0.5,1.22-0.5,1.93c0.02,9.4,0.01,18.8,0.01,28.2
		c0,0.56-0.02,1.1-0.26,1.64c-2.24,4.86-4.24,9.83-6.56,14.66c-0.23,0.47-0.64,0.98-0.44,1.86c0.54-0.81,1-1.42,1.38-2.08
		c2.14-3.7,4.28-7.41,6.39-11.13c6.54-11.54,13.07-23.1,19.62-34.64c0.39-0.69,0.55-1.36,0.55-2.15
		c-0.02-9.28-0.01-18.56-0.02-27.84c0-0.86,0.16-1.63,0.51-2.42c2.24-5,4.45-10.01,6.66-15.02
		C132,167.18,132.25,166.83,132.03,166.39z M96.4,145.93c0.65-0.05,0.72-0.47,0.88-0.76c2.41-4.14,4.85-8.26,7.21-12.43
		c6.57-11.57,13.1-23.17,19.66-34.74c0.39-0.69,0.53-1.38,0.53-2.16c-0.02-9.36-0.01-18.71-0.02-28.07c0-0.7,0.14-1.32,0.42-1.96
		c1.98-4.41,3.93-8.83,5.9-13.25c0.3-0.67,0.49-1.37,0.61-2.13c-0.44,0.05-0.5,0.36-0.63,0.58c-2.41,4.19-4.84,8.37-7.23,12.58
		c-6.38,11.26-12.74,22.54-19.13,33.8c-0.41,0.72-0.62,1.42-0.61,2.26c0.03,8.48-0.05,16.96,0.05,25.43
		c0.03,2.54-0.43,4.84-1.52,7.14C100.39,136.7,98.46,141.29,96.4,145.93z M91.14,80.63c-0.66,0.08-0.8,0.57-0.97,0.9
		c-2.17,4.14-4.58,8.14-6.89,12.2c-6.49,11.39-12.91,22.82-19.38,34.22c-0.41,0.72-0.61,1.43-0.61,2.26
		c0.02,9.36,0.01,18.72,0.02,28.07c0,0.74-0.15,1.41-0.45,2.08c-1.59,3.53-3.16,7.08-4.73,10.62c-0.83,1.87-1.65,3.74-2.5,5.67
		c0.69-0.01,0.76-0.48,0.94-0.8c2.6-4.54,5.21-9.08,7.79-13.63c6.35-11.2,12.68-22.4,19.04-33.59c0.41-0.73,0.59-1.44,0.59-2.27
		c-0.02-9.36-0.01-18.72-0.02-28.07c0-0.7,0.13-1.33,0.42-1.96c1.72-3.83,3.43-7.66,5.11-11.51C90.08,83.47,90.57,82.09,91.14,80.63
		z M137.59,253.97c0.59-0.1,0.68-0.36,0.82-0.6c2.44-4.22,4.91-8.42,7.32-12.66c6.53-11.51,13.03-23.03,19.57-34.54
		c0.39-0.69,0.57-1.36,0.57-2.15c-0.02-9.2-0.01-18.4-0.02-27.6c0-0.7,0.13-1.32,0.41-1.97c1.96-4.59,4.2-9.05,5.94-13.74
		c0.11-0.29,0.39-0.63,0.04-0.83c-0.28-0.16-0.44,0.19-0.58,0.44c-2.03,3.76-4.21,7.43-6.34,11.13
		c-6.66,11.57-13.18,23.22-19.75,34.84c-0.26,0.46-0.43,0.92-0.43,1.47c0.01,9.32,0,18.64,0.03,27.96c0,0.83-0.12,1.56-0.46,2.31
		c-1.53,3.39-3.02,6.79-4.53,10.18C139.34,250.09,138.5,251.96,137.59,253.97z M55.59,137.4c0.91-0.4,1.11-1.07,1.43-1.63
		c2.26-3.91,4.51-7.82,6.74-11.75c6.6-11.65,13.18-23.3,19.79-34.95c0.33-0.59,0.44-1.17,0.43-1.82c-0.01-9.4,0-18.79-0.02-28.19
		c0-0.82,0.17-1.56,0.51-2.31C87,51.19,89.5,45.62,92,40.04c0.15-0.34,0.49-0.67,0.22-1.12c-0.49,0.09-0.55,0.55-0.73,0.87
		c-9.25,16.53-18.5,33.06-27.76,49.59c-0.33,0.59-0.43,1.17-0.43,1.83c0.01,9.28,0.01,18.55,0.01,27.83c0,0.61-0.05,1.18-0.3,1.75
		c-1.68,3.75-3.34,7.52-5.01,11.28C57.23,133.77,56.45,135.48,55.59,137.4z M137.75,215.09c0.52-0.16,0.7-0.55,0.92-0.93
		c2.46-4.21,4.85-8.45,7.28-12.67c6.55-11.35,12.94-22.81,19.41-34.21c0.35-0.62,0.5-1.23,0.5-1.93
		c-0.01-9.28-0.01-18.56-0.02-27.84c0-0.7,0.12-1.33,0.41-1.96c0.73-1.56,1.42-3.13,2.09-4.71c1.29-3.05,2.82-6,3.91-9.13
		c0.09-0.26,0.29-0.58-0.05-0.71c-0.31-0.12-0.44,0.22-0.57,0.47c-2.03,3.81-4.22,7.53-6.36,11.28
		c-6.62,11.6-13.17,23.23-19.75,34.85c-0.24,0.43-0.41,0.84-0.41,1.35c0.01,9.28,0,18.56,0.03,27.84c0,0.78-0.07,1.49-0.39,2.2
		c-2.14,4.78-4.26,9.56-6.37,14.35C138.16,213.88,137.69,214.35,137.75,215.09z M96.37,223.67c0.7,0.02,0.78-0.45,0.96-0.78
		c2.51-4.37,5.03-8.73,7.51-13.11c6.46-11.41,12.91-22.82,19.38-34.23c0.33-0.58,0.47-1.15,0.47-1.81c-0.01-9.16,0-18.32-0.02-27.48
		c0-0.94,0.18-1.79,0.57-2.65c2.12-4.7,4.21-9.42,6.29-14.13c0.17-0.39,0.51-0.79,0.25-1.28c-0.38,0.04-0.42,0.32-0.54,0.51
		c-2.51,4.31-4.99,8.65-7.49,12.97c-6.5,11.25-12.81,22.6-19.22,33.9c-0.37,0.65-0.53,1.29-0.53,2.04c0.02,8.6-0.03,17.2,0.04,25.8
		c0.02,2.1-0.39,3.98-1.27,5.87C100.58,214.02,98.53,218.81,96.37,223.67z M56.16,215.09c0.26-0.38,0.53-0.74,0.77-1.13
		c2.41-4.05,4.7-8.17,7.06-12.25c6.56-11.35,12.95-22.8,19.42-34.21c0.39-0.68,0.59-1.35,0.59-2.15
		c-0.02-9.24-0.01-18.48-0.02-27.72c0-0.74,0.14-1.4,0.44-2.08c2.17-4.85,4.31-9.72,6.46-14.58c0.16-0.36,0.48-0.73,0.08-1.16
		c-0.39,0.23-0.49,0.64-0.69,0.97c-2.25,3.92-4.5,7.83-6.73,11.76c-6.56,11.58-13.11,23.17-19.68,34.74
		c-0.39,0.69-0.55,1.37-0.55,2.15c0.02,9.24,0.01,18.48,0.02,27.72c0,0.52-0.04,1.02-0.26,1.51c-2.23,5-4.45,10-6.66,15.01
		C56.21,214.1,55.86,214.46,56.16,215.09z M90.96,158.56c-0.22,0.33-0.37,0.51-0.48,0.71c-2.38,4.11-4.72,8.24-7.1,12.36
		c-6.62,11.45-13.06,23-19.58,34.5c-0.35,0.61-0.5,1.22-0.5,1.93c0.02,9.32,0.01,18.63,0.02,27.95c0,0.61-0.07,1.17-0.33,1.74
		c-2.21,4.87-4.42,9.74-6.57,14.63c-0.2,0.45-0.62,0.92-0.49,1.49c0.5,0.14,0.5-0.27,0.62-0.47c2.43-4.17,4.87-8.34,7.25-12.54
		c6.59-11.6,13.15-23.22,19.73-34.83c0.33-0.58,0.46-1.16,0.46-1.82c-0.01-9.24,0-18.47-0.02-27.71c0-0.74,0.15-1.4,0.45-2.07
		c2.14-4.78,4.25-9.57,6.36-14.35C90.96,159.65,91.29,159.24,90.96,158.56z M132.1,89.1c-0.88,0.37-1.04,0.87-1.28,1.3
		c-2.21,4.07-4.55,8.07-6.85,12.09c-6.52,11.42-12.96,22.89-19.45,34.32c-0.37,0.65-0.52,1.3-0.52,2.04
		c0.02,9.2,0.01,18.4,0.02,27.6c0,0.74-0.14,1.4-0.44,2.08c-2.09,4.62-4.17,9.24-6.22,13.89c-0.11,0.24-0.58,0.67-0.09,0.91
		c0.36,0.18,0.44-0.32,0.62-0.57c2.5-3.66,4.5-7.63,6.72-11.45c6.6-11.37,12.99-22.86,19.48-34.3c0.41-0.72,0.6-1.43,0.6-2.26
		c-0.02-9.2-0.01-18.4-0.02-27.6c0-0.78,0.15-1.49,0.47-2.19c1.77-3.94,3.52-7.88,5.27-11.83C130.96,91.89,131.27,90.57,132.1,89.1z
		 M96.83,105.72c0.1,0.06,0.19,0.12,0.29,0.18c0.57-0.42,0.85-1.08,1.19-1.68c2.06-3.56,4.13-7.12,6.15-10.7
		c6.58-11.61,13.14-23.23,19.72-34.84c0.35-0.62,0.5-1.22,0.5-1.92c-0.02-9.6-0.01-19.19-0.02-28.79c0-0.44,0.27-1.13-0.24-1.28
		c-0.59-0.17-1.25,0.14-1.72,0.61c-0.19,0.19-0.3,0.47-0.45,0.71c-1.39,2.38-2.78,4.76-4.15,7.15c-4.52,7.86-9.03,15.73-13.57,23.59
		c-0.38,0.65-0.53,1.29-0.53,2.04c0.02,9.24,0.01,18.47,0.02,27.71c0,0.6-0.05,1.17-0.31,1.74c-1.66,3.68-3.28,7.37-4.92,11.06
		C98.14,102.77,97.48,104.24,96.83,105.72z M165.86,40.64c0-2.52-0.03-5.04,0.02-7.56c0.01-0.74-0.21-1.13-0.92-1.42
		c-2.03-0.83-4.05-1.7-6.02-2.66c-0.74-0.36-1.06-0.28-1.47,0.44c-3.92,6.92-7.88,13.82-11.83,20.72c-0.28,0.49-0.45,0.98-0.45,1.58
		c0.02,9.48,0.01,18.95,0.03,28.43c0,0.82-0.16,1.56-0.5,2.31c-2.23,4.95-4.44,9.91-6.66,14.87c-0.08,0.18-0.29,0.34-0.09,0.51
		c0.24,0.19,0.44,0.03,0.58-0.19c0.11-0.17,0.19-0.35,0.29-0.52c8.38-14.95,16.73-29.93,25.17-44.84c1.3-2.3,2.16-4.55,1.88-7.22
		C165.73,43.61,165.86,42.12,165.86,40.64z M196.92,42.79c-0.01-0.44,0.35-0.98-0.38-1.17c-0.65-0.17-0.67,0.46-0.85,0.78
		c-3.12,5.39-6.2,10.81-9.33,16.2c-0.44,0.76-0.6,1.52-0.6,2.38c0.02,8.08-0.08,16.15,0.06,24.22c0.05,2.96-0.48,5.62-1.78,8.28
		c-1.96,4.02-3.67,8.16-5.49,12.25c-0.08,0.18-0.28,0.36-0.07,0.52c0.25,0.2,0.44,0,0.57-0.21c0.11-0.17,0.2-0.34,0.3-0.52
		c4.34-7.64,8.63-15.31,13.07-22.89c1.41-2.41,1.85-5,2.21-7.64c0.53-3.93,0.3-7.89,0.4-11.84c0.11-4.28,0.45-8.54,0.77-12.8
		C195.99,47.79,196.4,45.28,196.92,42.79z M43.41,37.23c-4.18,1.06-8.18,2.23-12.07,3.78c-0.71,0.28-0.68,0.78-0.58,1.36
		c0.32,1.81,0.58,3.63,0.98,5.42c0.25,1.1-0.4,2.21,0.18,3.29c0.36,0.67,0.42,1.45,0.44,2.21c0.09,2.7,0.04,5.47,0.38,8.09
		c0.44,3.34-0.06,6.61,0.17,9.9c0.1,1.33-0.04,2.69,0.32,4c0.39,0,0.44-0.27,0.55-0.47c3.11-5.49,6.21-10.99,9.32-16.48
		c0.18-0.32,0.3-0.64,0.3-1.01C43.41,50.7,43.41,44.07,43.41,37.23z M119.66,27.97c-7.78,1.29-10.13,0.2-14.4-0.93
		c-1.1-0.29-1.26-0.04-1.26,0.99c0.03,7.28,0.02,14.56,0.02,21.84c0,0.56-0.02,1.1-0.26,1.63c-2.31,5.14-4.59,10.29-6.88,15.45
		c-0.1,0.22-0.49,0.47-0.1,0.69c0.3,0.17,0.48-0.15,0.62-0.4c0.09-0.18,0.19-0.35,0.29-0.52c6.79-11.96,13.59-23.91,20.38-35.87
		C118.59,29.92,119.1,28.98,119.66,27.97z M50.17,50.29c-0.47,0.8-0.88,1.5-1.29,2.21c-4.81,8.44-9.61,16.88-14.41,25.32
		c-0.24,0.41-0.53,0.77-0.23,1.32c1.16,2.15,1.86,4.49,2.72,6.76c0.99,2.61,1.98,5.22,2.74,7.92c0.63,2.26,0.97,4.58,1.55,6.9
		c0.93-1.76,2.26-3.2,2.23-5.47c-0.13-9.16-0.05-18.32-0.06-27.47c0-0.7,0.16-1.32,0.44-1.96c2.06-4.59,4.1-9.2,6.13-13.81
		C50.18,51.53,50.61,51.06,50.17,50.29z M56.05,59.1c0.49-0.38,0.76-0.89,1.04-1.39c5.15-8.97,10.3-17.93,15.45-26.9
		c0.91-1.59,1.83-3.19,2.74-4.78c0.11-0.19,0.35-0.39,0.11-0.63c-0.17-0.17-0.38-0.03-0.56,0.04c-0.29,0.12-0.58,0.27-0.85,0.43
		c-3.17,1.77-6.42,3.38-9.8,4.72c-0.72,0.29-0.91,0.72-0.9,1.45c0.04,2.96,0,5.91,0.02,8.87c0,0.69-0.1,1.33-0.39,1.97
		c-2.27,5.01-4.37,10.1-6.75,15.07C56.04,58.24,55.69,58.61,56.05,59.1z M178.33,67.56c0.11,0.05,0.23,0.11,0.34,0.16
		c1.05-1.23,1.71-2.72,2.51-4.12c4.18-7.32,8.33-14.66,12.5-21.98c0.3-0.52,0.61-0.97-0.29-1.22c-2.38-0.67-4.75-1.37-7.12-2.06
		c-0.42-0.12-0.68-0.15-0.63,0.45c0.3,3.71,0.05,7.43,0.14,11.14c0.02,0.66-0.13,1.25-0.4,1.85c-1.77,3.93-3.52,7.88-5.28,11.82
		C179.5,64.92,178.91,66.24,178.33,67.56z M188.95,92.82c-0.83,1.45-1.67,2.9-2.48,4.36c-0.27,0.48-0.69,0.93-0.7,1.5
		c-0.02,2.99-0.01,5.98-0.01,8.98C186.9,102.74,187.64,97.76,188.95,92.82z"></path>
</g>
<g onclick="select(this)" class="" id="detalhe-punho" fill="#082890">
	<path d="M184.69,120.17c0.01-2.07-0.17-4.14,0.33-6.19c0.18-0.76,0.37-1.01,1.26-0.82
		c4.2,0.91,8.48,0.67,12.73,0.66c3.02-0.01,6.04-0.19,9.03-0.72c3.25-0.57,6.52-0.98,9.75-1.7c3.43-0.77,6.74-1.89,9.99-3.2
		c0.97,2.4,1.25,4.91,1.18,7.48c-0.02,0.85-0.77,0.96-1.32,1.17c-2.87,1.1-5.84,1.88-8.81,2.65c-8.72,2.26-17.61,2.79-26.57,2.35
		c-2.06-0.1-4.13-0.31-6.14-0.88C185.59,120.8,185.06,120.62,184.69,120.17z"></path>
	<path d="M1.64,109.69c2.39,1.61,5.14,2.32,7.86,3.02c5.74,1.48,11.63,1.73,17.52,1.82
		c3.54,0.06,7.07,0.21,10.6-0.29c1.74-0.25,3.38-0.85,5.07-1.24c0.19,2.09,0.38,4.18,0.57,6.27c0.03,0.39,0.06,0.78,0.09,1.17
		c-0.95,0.74-2.1,0.96-3.23,1.17c-2.51,0.47-5.04,0.75-7.6,0.81c-8.56,0.19-17.06-0.22-25.43-2.21c-1.86-0.44-3.71-0.91-5.49-1.63
		c-0.79-0.32-1.23-0.79-1.12-1.72C0.77,114.45,0.87,112.02,1.64,109.69z"></path>
</g>
<path d="M80.56,285.6c0.79,0,1.59,0.07,2.36-0.23c0,0,0.02,0.06,0.02,0.06s-0.04,0.05-0.04,0.05
	C82.15,286.02,81.34,285.63,80.56,285.6z"></path>
<path d="M43.51,205.9c0.05,0.21,0.09,0.41-0.11,0.56C43.44,206.27,43.47,206.09,43.51,205.9z"></path>
<polygon fill="#83CA32" points="45.53,140.52 45.53,140.5 45.48,140.51 "></polygon>
<g onclick="select(this)" class="" id="estampa-secundaria" fill="#ffffff">
	<path d="M124.64,262.32c0.02,6.19,0.04,12.38,0.05,18.58c0,1.8-0.01,3.6-0.02,5.39c-5.04,0.42-10.09,0.3-15.13,0.18
		c-0.23-0.01-0.46-0.1-0.68-0.16c0.08-0.15,0.16-0.3,0.25-0.46c0.77,0.35,1.58,0.45,2.42,0.45c3.86-0.01,7.72,0.04,11.58-0.2
		c1.01-0.06,1.36-0.24,1.35-1.33c-0.05-7.03-0.03-14.06-0.02-21.09C124.44,263.24,124.26,262.73,124.64,262.32z"></path>
	<path d="M140.95,285.85c1.28-2.93,2.54-5.86,3.84-8.78c0.28-0.64,0.41-1.27,0.41-1.97
		c-0.03-9.48-0.04-18.96-0.07-28.44c0-0.55,0.16-1.01,0.42-1.47c6.56-11.58,13.09-23.18,19.69-34.74c2.34-4.09,4.76-8.14,6.93-12.32
		c0.12-0.24,0.28-0.49,0.79-0.57c-0.39,1.05-0.7,2.03-1.11,2.97c-1.79,4.1-3.6,8.2-5.43,12.28c-0.38,0.86-0.59,1.7-0.58,2.65
		c0.02,9.28,0.01,18.56,0.03,27.84c0,0.79-0.2,1.46-0.59,2.14c-6.35,11.19-12.68,22.4-19.02,33.61c-1.28,2.26-2.57,4.51-3.85,6.77
		C141.92,285.94,141.44,285.99,140.95,285.85z"></path>
	<path d="M59.43,285.07c1.14-2.6,2.26-5.2,3.42-7.78c0.32-0.71,0.47-1.41,0.47-2.19c-0.02-9.39,0-18.79-0.02-28.18
		c0-0.71,0.17-1.31,0.51-1.92c6.43-11.33,12.81-22.68,19.28-33.99c2.46-4.29,4.9-8.6,7.32-12.91c0.12-0.22,0.16-0.55,0.48-0.58
		c0.3,0.14,0.2,0.29,0.12,0.49c-2.14,5.27-4.49,10.46-6.81,15.66c-0.24,0.54-0.23,1.08-0.23,1.64c0,9.35-0.01,18.71,0.01,28.06
		c0,0.74-0.15,1.39-0.53,2.04c-6.43,11.33-12.84,22.67-19.25,34c-1.08,1.91-2.19,3.81-3.28,5.71
		C60.42,285.25,59.92,285.19,59.43,285.07z"></path>
	<path d="M104.09,286.09c-0.01-10.28-0.02-20.56-0.04-30.84c0-0.57,0.28-0.99,0.53-1.44
		c8.29-14.65,16.58-29.29,24.88-43.93c0.7-1.24,1.4-2.48,2.23-3.96c0.32,0.8-0.02,1.23-0.2,1.64c-2.12,4.83-4.26,9.66-6.41,14.47
		c-0.29,0.64-0.41,1.27-0.41,1.96c0.01,9.44,0,18.88,0.02,28.32c0,0.71-0.16,1.31-0.5,1.92c-5.79,10.27-11.56,20.56-17.33,30.84
		c-0.21,0.38-0.41,0.77-0.62,1.16C105.51,286.34,104.8,286.3,104.09,286.09z"></path>
	<path d="M145.23,285.78c-0.08-0.61,0.27-1.07,0.55-1.55c8.28-14.64,16.57-29.28,24.86-43.93
		c0.48-0.84,0.94-1.7,1.53-2.49c0.28,0.75-0.03,1.38-0.3,1.99c-1.85,4.21-3.71,8.41-5.58,12.6c-0.28,0.64-0.44,1.26-0.43,1.96
		c0.02,9.2-0.01,18.39,0.03,27.59c0,1.24-0.12,2.38-0.87,3.39c-0.27,0.21-0.6,0.2-0.91,0.21c-6.13,0.09-12.26,0.19-18.4,0.28
		C145.54,285.84,145.39,285.8,145.23,285.78z"></path>
	<path d="M63.42,285.29c2.18-3.9,4.33-7.82,6.53-11.71c6.66-11.79,13.33-23.56,20-35.34
		c0.45-0.79,0.8-1.65,1.64-2.21c-0.44,1.07-0.86,2.14-1.32,3.2c-1.96,4.46-3.93,8.91-5.92,13.36c-0.27,0.6-0.38,1.19-0.38,1.85
		c0.01,9.47,0,18.94,0.02,28.41c0,1.04-0.3,1.86-1.07,2.52c-0.76,0.3-1.56,0.24-2.36,0.23C74.84,285.64,69.13,285.63,63.42,285.29z"></path>
	<path d="M41.69,260.71c1.69-2.48,2.99-5.18,4.47-7.77c1.05-1.84,2.06-3.7,3.1-5.54c0.18-0.32,0.24-0.78,0.73-0.89
		c0.38,0.56-0.03,1-0.22,1.43c-1.97,4.5-3.95,8.99-5.96,13.47c-0.29,0.64-0.42,1.26-0.42,1.96c0.01,6.51,0,13.02,0,19.54
		c-2.36-0.4-3.1-1.18-3.04-3.43c0.16-6.12,0.86-12.22,1.19-18.33C41.55,261.01,41.64,260.86,41.69,260.71z"></path>
	<path d="M42.73,219.12c0.55-0.43,0.81-1.07,1.14-1.66c2.1-3.71,4.2-7.43,6.3-11.14c0.13-0.23,0.21-0.52,0.53-0.61
		c0.33,0.49-0.01,0.86-0.17,1.23c-1.9,4.31-3.75,8.63-5.74,12.89c-0.96,2.06-1.62,4.13-1.47,6.41
		C43,223.88,42.81,221.51,42.73,219.12z"></path>
	<path d="M185.74,250.79c-0.43,0.27-0.63,0.7-0.86,1.12c-2.13,3.8-4.27,7.59-6.41,11.39
		c-0.21,0.37-0.35,0.81-1.03,0.98c0.34-0.72,0.63-1.33,0.9-1.94c2.19-4.93,4.36-9.86,6.56-14.79c0.12-0.28,0.14-0.64,0.5-0.78
		C185.71,248.09,185.88,249.43,185.74,250.79z"></path>
	<path d="M43.4,228.62c0.01,7.99,0.01,15.98,0.04,23.96c0,1.31-0.91,2.17-1.4,3.23c0.34-4.52-0.16-9.1,0.74-13.58
		c0.42-2.09-0.03-4.13-0.18-6.19C42.42,233.51,42.68,231.04,43.4,228.62z"></path>
	<path d="M185.78,282.98c0.02-7.52,0.05-15.04,0.08-22.56c0-0.2,0.04-0.39,0.06-0.59c0.23,1.78,0.3,3.57,0.44,5.35
		c0.14,1.8,0.2,3.6,0.38,5.4c0.2,2,0.68,3.98,0.53,6.02c-0.11,1.46,0.41,2.89,0.28,4.37C187.43,282.12,186.96,282.83,185.78,282.98z
		"></path>
	<path d="M184.09,214.22c-1.34,2.31-2.68,4.62-4.01,6.92c-0.14,0.24-0.25,0.5-0.4,0.73
		c-0.23,0.35-0.47,1.01-0.88,0.79c-0.52-0.28,0.08-0.75,0.23-1.09c1.82-4.15,3.68-8.29,5.54-12.43
		C184.74,210.87,184.39,212.54,184.09,214.22z"></path>
	<path d="M45.34,136.51c1.52-2.01,2.57-4.31,3.84-6.47c0.46-0.78,0.9-1.57,1.41-2.47c0.21,0.93-3.56,9.96-5.07,12.4
		C45.29,138.83,45.31,137.67,45.34,136.51z"></path>
	<path d="M45.55,175.04c1.83-2.82,3.34-5.83,5.22-8.64c-1.42,4.22-3.3,8.23-5.12,12.26
		C45.53,177.46,45.41,176.25,45.55,175.04z"></path>
	<path d="M85.62,285.68c0.47-1.41,1.33-2.61,2.04-3.9c1.53-2.79,3.09-5.56,4.89-8.22c-1.8,4.05-3.59,8.11-5.39,12.16
		C86.63,285.83,86.12,285.87,85.62,285.68z"></path>
	<path d="M182.74,139.11c-1.42,1.83-2.3,4-3.58,5.92c-0.22,0.34-0.3,0.85-1.08,0.92c1.7-3.81,3.35-7.51,5-11.2
		C183.04,136.2,183.01,137.67,182.74,139.11z"></path>
	<path d="M167.57,285.29c1.76-3.19,3.52-6.37,5.28-9.56c0.11,0.06,0.22,0.11,0.33,0.17c-1.14,3.15-2.6,6.17-3.9,9.25
		C168.73,285.47,168.15,285.37,167.57,285.29z"></path>
	<path d="M182.45,178.29c-1.18,1.61-1.99,3.45-3.02,5.16c-0.3,0.5-0.62,0.97-1.18,1.3c1.36-3.22,2.58-6.49,4.22-9.58
		C182.57,176.21,182.55,177.25,182.45,178.29z"></path>
	<path d="M43.29,206.87c0.28,2.27,0.09,4.54,0.11,6.82c0.01,0.7-0.47,1.25-0.89,1.78
		C42.27,212.55,42.58,209.69,43.29,206.87z"></path>
	<path d="M83.94,19.39c0.01,9.67,0.02,19.35,0.05,29.02c0,0.65-0.35,1.13-0.64,1.65
		c-7.49,13.39-14.98,26.77-22.49,40.15c-1.39,2.47-2.81,4.92-4.2,7.39c-0.14,0.24-0.23,0.5-0.65,0.57
		c-0.02-0.44,0.15-0.78,0.31-1.15c2.25-4.98,4.48-9.97,6.73-14.96c0.24-0.53,0.27-1.07,0.27-1.63c0-9.43,0-18.87-0.02-28.3
		c0-0.79,0.18-1.47,0.57-2.15c5.09-8.87,10.19-17.74,15.21-26.64c0.54-0.96,1.58-1.26,2.15-2.1C82.34,20.93,82.95,19.89,83.94,19.39
		z"></path>
	<path d="M146.76,21.12c0.26,0.66,0.75,1.08,1.32,1.48c2.34,1.6,4.75,3.1,7.23,4.46c0.73,0.4,0.83,0.73,0.41,1.46
		c-5.63,9.75-11.24,19.52-16.86,29.28c-0.26,0.46-0.47,0.99-1.11,1.35c-0.02-0.54,0.14-0.89,0.31-1.26
		c2.22-4.95,4.42-9.91,6.65-14.86c0.28-0.63,0.44-1.26,0.44-1.96c-0.04-6.55-0.06-13.1-0.08-19.66c0-0.44,0.08-0.87,0.12-1.31
		C145.71,20.45,146.23,20.78,146.76,21.12z"></path>
	<path d="M173.94,39.57c-0.6,1.45-1.18,2.91-1.82,4.34c-1.92,4.31-3.86,8.61-5.81,12.9
		c-0.31,0.67-0.46,1.33-0.45,2.07c0.02,9.44,0.01,18.87,0.02,28.31c0,0.7-0.14,1.31-0.49,1.93c-6.56,11.58-13.11,23.17-19.67,34.74
		c-2.3,4.07-4.64,8.11-6.97,12.17c-0.23,0.4-0.38,0.89-1,1.02c-0.04-0.7,0.41-1.17,0.65-1.72c2.16-4.9,4.33-9.79,6.5-14.68
		c0.18-0.41,0.3-0.81,0.3-1.27c-0.02-9.44-0.03-18.87-0.06-28.31c0-0.72,0.25-1.31,0.58-1.91c8.86-15.83,17.71-31.68,26.58-47.5
		C172.72,40.9,172.89,39.94,173.94,39.57z"></path>
	<path d="M138.23,174.97c1.54-3.51,2.85-6.94,4.54-10.18c1.87-3.57,2.54-7.23,2.43-11.25
		c-0.21-7.75-0.05-15.51-0.07-23.27c0-0.83,0.19-1.55,0.6-2.27c6.54-11.54,13.04-23.11,19.61-34.63c2.24-3.92,4.52-7.81,6.67-11.77
		c0.1-0.18,0.11-0.5,0.48-0.46c0.31,0.27,0.09,0.53-0.03,0.82c-1.86,4.84-4.09,9.52-6.17,14.26c-0.28,0.64-0.44,1.26-0.44,1.96
		c0.02,9.32,0,18.63,0.03,27.95c0,0.95-0.2,1.77-0.68,2.6c-6.48,11.39-12.92,22.8-19.39,34.2c-2.09,3.68-4.2,7.35-6.32,11.02
		C139.24,174.37,139.1,174.93,138.23,174.97z"></path>
	<path d="M132.03,166.39c0.23,0.43-0.03,0.78-0.19,1.14c-2.21,5.01-4.42,10.02-6.66,15.02
		c-0.35,0.79-0.51,1.56-0.51,2.42c0.02,9.28,0,18.56,0.02,27.84c0,0.79-0.16,1.46-0.55,2.15c-6.55,11.54-13.07,23.09-19.62,34.64
		c-2.11,3.72-4.25,7.42-6.39,11.13c-0.38,0.66-0.84,1.27-1.38,2.08c-0.19-0.88,0.22-1.39,0.44-1.86c2.32-4.83,4.31-9.8,6.56-14.66
		c0.25-0.53,0.26-1.07,0.26-1.64c0-9.4,0-18.8-0.01-28.2c0-0.7,0.15-1.31,0.5-1.93c6.55-11.54,13.07-23.1,19.61-34.64
		c2.4-4.24,4.84-8.47,7.27-12.69C131.55,166.9,131.6,166.48,132.03,166.39z"></path>
	<path d="M96.4,145.93c2.06-4.64,4-9.23,6.14-13.71c1.1-2.3,1.55-4.59,1.52-7.14c-0.1-8.48-0.03-16.95-0.05-25.43
		c0-0.84,0.21-1.54,0.61-2.26c6.38-11.26,12.74-22.54,19.13-33.8c2.38-4.21,4.81-8.39,7.23-12.58c0.13-0.23,0.2-0.54,0.63-0.58
		c-0.12,0.76-0.31,1.46-0.61,2.13c-1.97,4.42-3.92,8.84-5.9,13.25c-0.29,0.64-0.42,1.26-0.42,1.96c0.01,9.36,0,18.71,0.02,28.07
		c0,0.78-0.14,1.47-0.53,2.16c-6.56,11.58-13.1,23.17-19.66,34.74c-2.36,4.17-4.8,8.29-7.21,12.43
		C97.11,145.46,97.05,145.88,96.4,145.93z"></path>
	<path d="M91.14,80.63c-0.57,1.46-1.06,2.84-1.65,4.19c-1.68,3.85-3.39,7.68-5.11,11.51
		c-0.29,0.64-0.42,1.27-0.42,1.96c0.01,9.36,0,18.72,0.02,28.07c0,0.83-0.17,1.54-0.59,2.27c-6.36,11.19-12.69,22.39-19.04,33.59
		c-2.58,4.55-5.18,9.09-7.79,13.63c-0.18,0.32-0.25,0.79-0.94,0.8c0.85-1.94,1.67-3.81,2.5-5.67c1.57-3.54,3.14-7.08,4.73-10.62
		c0.3-0.67,0.45-1.34,0.45-2.08c-0.02-9.36,0-18.72-0.02-28.07c0-0.83,0.2-1.54,0.61-2.26c6.47-11.4,12.89-22.83,19.38-34.22
		c2.31-4.06,4.72-8.06,6.89-12.2C90.34,81.2,90.48,80.71,91.14,80.63z"></path>
	<path d="M137.59,253.97c0.9-2.01,1.75-3.87,2.58-5.74c1.51-3.39,3-6.8,4.53-10.18c0.34-0.75,0.46-1.48,0.46-2.31
		c-0.03-9.32-0.02-18.64-0.03-27.96c0-0.55,0.17-1.01,0.43-1.47c6.58-11.62,13.09-23.27,19.75-34.84c2.13-3.7,4.31-7.37,6.34-11.13
		c0.14-0.26,0.31-0.6,0.58-0.44c0.35,0.2,0.07,0.54-0.04,0.83c-1.74,4.68-3.98,9.15-5.94,13.74c-0.27,0.64-0.41,1.27-0.41,1.97
		c0.01,9.2,0,18.4,0.02,27.6c0,0.79-0.18,1.47-0.57,2.15c-6.53,11.51-13.03,23.03-19.57,34.54c-2.41,4.24-4.88,8.44-7.32,12.66
		C138.28,253.6,138.18,253.86,137.59,253.97z"></path>
	<path d="M55.59,137.4c0.86-1.92,1.64-3.63,2.41-5.34c1.67-3.76,3.33-7.52,5.01-11.28c0.26-0.57,0.3-1.14,0.3-1.75
		c-0.01-9.28,0-18.55-0.01-27.83c0-0.66,0.11-1.24,0.43-1.83c9.26-16.53,18.5-33.06,27.76-49.59c0.18-0.32,0.24-0.79,0.73-0.87
		c0.27,0.45-0.07,0.78-0.22,1.12c-2.5,5.58-5,11.16-7.53,16.72c-0.34,0.74-0.51,1.48-0.51,2.31c0.02,9.4,0.01,18.79,0.02,28.19
		c0,0.66-0.1,1.24-0.43,1.82c-6.61,11.65-13.19,23.3-19.79,34.95c-2.23,3.93-4.48,7.84-6.74,11.75C56.7,136.33,56.5,137,55.59,137.4
		z"></path>
	<path d="M137.75,215.09c-0.07-0.73,0.41-1.21,0.65-1.75c2.11-4.79,4.23-9.57,6.37-14.35
		c0.32-0.72,0.4-1.42,0.39-2.2c-0.03-9.28-0.02-18.56-0.03-27.84c0-0.51,0.17-0.92,0.41-1.35c6.58-11.62,13.13-23.25,19.75-34.85
		c2.14-3.75,4.33-7.47,6.36-11.28c0.13-0.25,0.26-0.59,0.57-0.47c0.35,0.13,0.14,0.45,0.05,0.71c-1.09,3.14-2.62,6.08-3.91,9.13
		c-0.67,1.58-1.37,3.16-2.09,4.71c-0.3,0.64-0.41,1.27-0.41,1.96c0.01,9.28,0,18.56,0.02,27.84c0,0.7-0.14,1.31-0.5,1.93
		c-6.47,11.4-12.86,22.85-19.41,34.21c-2.44,4.22-4.82,8.47-7.28,12.67C138.46,214.53,138.27,214.93,137.75,215.09z"></path>
	<path d="M96.37,223.67c2.16-4.86,4.21-9.65,6.41-14.38c0.88-1.89,1.29-3.77,1.27-5.87
		c-0.08-8.6-0.03-17.2-0.04-25.8c0-0.75,0.16-1.39,0.53-2.04c6.41-11.3,12.72-22.65,19.22-33.9c2.5-4.32,4.97-8.66,7.49-12.97
		c0.11-0.19,0.16-0.47,0.54-0.51c0.26,0.49-0.08,0.89-0.25,1.28c-2.08,4.72-4.17,9.43-6.29,14.13c-0.39,0.86-0.57,1.71-0.57,2.65
		c0.02,9.16,0.01,18.32,0.02,27.48c0,0.66-0.14,1.23-0.47,1.81c-6.47,11.4-12.91,22.82-19.38,34.23c-2.48,4.38-5,8.74-7.51,13.11
		C97.15,223.22,97.07,223.69,96.37,223.67z"></path>
	<path d="M56.16,215.09c-0.3-0.63,0.05-0.99,0.23-1.4c2.21-5.01,4.43-10.01,6.66-15.01c0.22-0.5,0.26-0.99,0.26-1.51
		c0-9.24,0-18.48-0.02-27.72c0-0.79,0.16-1.46,0.55-2.15c6.57-11.57,13.12-23.16,19.68-34.74c2.23-3.93,4.48-7.84,6.73-11.76
		c0.19-0.34,0.3-0.74,0.69-0.97c0.4,0.43,0.07,0.8-0.08,1.16c-2.14,4.86-4.29,9.73-6.46,14.58c-0.3,0.68-0.44,1.34-0.44,2.08
		c0.01,9.24,0,18.48,0.02,27.72c0,0.8-0.2,1.46-0.59,2.15c-6.47,11.4-12.85,22.86-19.42,34.21c-2.36,4.08-4.65,8.2-7.06,12.25
		C56.7,214.35,56.42,214.71,56.16,215.09z"></path>
	<path d="M90.96,158.56c0.33,0.68,0,1.09-0.19,1.51c-2.11,4.79-4.22,9.58-6.36,14.35c-0.3,0.67-0.45,1.33-0.45,2.07
		c0.02,9.24,0.01,18.47,0.02,27.71c0,0.66-0.12,1.23-0.46,1.82c-6.59,11.61-13.15,23.22-19.73,34.83c-2.38,4.2-4.82,8.37-7.25,12.54
		c-0.11,0.19-0.12,0.61-0.62,0.47c-0.13-0.57,0.29-1.03,0.49-1.49c2.15-4.89,4.36-9.77,6.57-14.63c0.26-0.57,0.33-1.13,0.33-1.74
		c-0.01-9.32,0-18.63-0.02-27.95c0-0.71,0.15-1.31,0.5-1.93c6.52-11.5,12.97-23.05,19.58-34.5c2.38-4.11,4.72-8.25,7.1-12.36
		C90.6,159.07,90.74,158.89,90.96,158.56z"></path>
	<path d="M132.1,89.1c-0.83,1.46-1.14,2.78-1.69,4.02c-1.75,3.95-3.5,7.89-5.27,11.83
		c-0.32,0.71-0.47,1.41-0.47,2.19c0.02,9.2,0,18.4,0.02,27.6c0,0.83-0.19,1.54-0.6,2.26c-6.49,11.44-12.88,22.93-19.48,34.3
		c-2.22,3.83-4.22,7.79-6.72,11.45c-0.17,0.25-0.25,0.75-0.62,0.57c-0.49-0.24-0.02-0.67,0.09-0.91c2.04-4.64,4.12-9.27,6.22-13.89
		c0.3-0.67,0.44-1.34,0.44-2.08c-0.02-9.2,0-18.4-0.02-27.6c0-0.74,0.15-1.39,0.52-2.04c6.49-11.44,12.92-22.91,19.45-34.32
		c2.3-4.02,4.64-8.02,6.85-12.09C131.05,89.97,131.21,89.47,132.1,89.1z"></path>
	<path d="M96.83,105.72c0.65-1.48,1.31-2.95,1.96-4.43c1.64-3.69,3.26-7.38,4.92-11.06
		c0.26-0.57,0.31-1.14,0.31-1.74c-0.01-9.24,0-18.47-0.02-27.71c0-0.74,0.15-1.39,0.53-2.04c4.54-7.85,9.05-15.72,13.57-23.59
		c1.37-2.39,2.77-4.77,4.15-7.15c0.14-0.24,0.25-0.52,0.45-0.71c0.47-0.47,1.14-0.78,1.72-0.61c0.51,0.15,0.24,0.84,0.24,1.28
		c0.01,9.6,0.01,19.19,0.02,28.79c0,0.71-0.15,1.31-0.5,1.92c-6.58,11.61-13.14,23.23-19.72,34.84c-2.03,3.58-4.09,7.14-6.15,10.7
		c-0.34,0.59-0.63,1.25-1.19,1.68C97.02,105.84,96.92,105.78,96.83,105.72z"></path>
	<path d="M165.86,40.64c0,1.48-0.13,2.97,0.03,4.44c0.28,2.67-0.58,4.93-1.88,7.22
		c-8.45,14.92-16.79,29.89-25.17,44.84c-0.1,0.17-0.18,0.36-0.29,0.52c-0.14,0.22-0.34,0.38-0.58,0.19
		c-0.2-0.17,0.01-0.33,0.09-0.51c2.22-4.95,4.43-9.92,6.66-14.87c0.34-0.75,0.5-1.49,0.5-2.31c-0.02-9.48-0.01-18.95-0.03-28.43
		c0-0.6,0.17-1.08,0.45-1.58c3.95-6.9,7.91-13.8,11.83-20.72c0.41-0.72,0.73-0.8,1.47-0.44c1.98,0.95,3.99,1.83,6.02,2.66
		c0.72,0.29,0.94,0.68,0.92,1.42C165.83,35.6,165.86,38.12,165.86,40.64z"></path>
	<path d="M196.92,42.79c-0.52,2.49-0.93,5.01-1.12,7.55c-0.32,4.26-0.66,8.52-0.77,12.8
		c-0.1,3.95,0.13,7.92-0.4,11.84c-0.36,2.64-0.81,5.23-2.21,7.64c-4.43,7.59-8.72,15.26-13.07,22.89c-0.1,0.17-0.19,0.35-0.3,0.52
		c-0.14,0.21-0.32,0.41-0.57,0.21c-0.21-0.16-0.01-0.34,0.07-0.52c1.82-4.09,3.53-8.23,5.49-12.25c1.3-2.66,1.83-5.32,1.78-8.28
		c-0.13-8.07-0.04-16.15-0.06-24.22c0-0.86,0.16-1.62,0.6-2.38c3.13-5.39,6.21-10.8,9.33-16.2c0.18-0.32,0.2-0.95,0.85-0.78
		C197.27,41.8,196.91,42.35,196.92,42.79z"></path>
	<path d="M43.41,37.23c0,6.84,0,13.47,0,20.1c0,0.38-0.12,0.7-0.3,1.01c-3.11,5.49-6.21,10.99-9.32,16.48
		c-0.11,0.19-0.17,0.46-0.55,0.47c-0.36-1.3-0.23-2.67-0.32-4c-0.24-3.29,0.26-6.56-0.17-9.9c-0.34-2.63-0.29-5.39-0.38-8.09
		c-0.03-0.77-0.08-1.54-0.44-2.21c-0.58-1.08,0.07-2.19-0.18-3.29c-0.4-1.79-0.66-3.61-0.98-5.42c-0.1-0.58-0.13-1.08,0.58-1.36
		C35.23,39.47,39.23,38.3,43.41,37.23z"></path>
	<path d="M124.64,262.32c-0.38,0.41-0.21,0.91-0.21,1.37c-0.01,7.03-0.03,14.06,0.02,21.09
		c0.01,1.09-0.34,1.27-1.35,1.33c-3.86,0.24-7.72,0.19-11.58,0.2c-0.83,0-1.65-0.1-2.42-0.45c2.94-5.3,5.88-10.61,8.83-15.91
		c4.1-7.36,8.2-14.72,12.34-22.05c0.27-0.48,0.32-1.56,0.9-1.31c0.59,0.25-0.04,1.1-0.26,1.61
		C128.85,252.92,126.74,257.62,124.64,262.32z"></path>
	<path d="M119.66,27.97c-0.56,1.01-1.07,1.95-1.59,2.87c-6.79,11.96-13.58,23.91-20.38,35.87
		c-0.1,0.17-0.2,0.35-0.29,0.52c-0.14,0.25-0.32,0.58-0.62,0.4c-0.39-0.22,0-0.47,0.1-0.69c2.29-5.15,4.57-10.3,6.88-15.45
		c0.24-0.54,0.26-1.07,0.26-1.63c0-7.28,0.01-14.56-0.02-21.84c0-1.02,0.15-1.28,1.26-0.99C109.52,28.17,111.88,29.26,119.66,27.97z
		"></path>
	<path d="M50.17,50.29c0.45,0.77,0.01,1.24-0.2,1.71c-2.03,4.61-4.07,9.21-6.13,13.81
		c-0.28,0.63-0.44,1.25-0.44,1.96c0.02,9.16-0.06,18.32,0.06,27.47c0.03,2.27-1.3,3.71-2.23,5.47c-0.58-2.32-0.91-4.64-1.55-6.9
		c-0.76-2.69-1.75-5.3-2.74-7.92c-0.86-2.27-1.56-4.61-2.72-6.76c-0.29-0.54,0-0.9,0.23-1.32c4.81-8.44,9.61-16.88,14.41-25.32
		C49.28,51.79,49.7,51.09,50.17,50.29z"></path>
	<path d="M56.05,59.1c-0.36-0.49-0.01-0.86,0.13-1.15c2.37-4.97,4.48-10.05,6.75-15.07
		c0.29-0.64,0.39-1.28,0.39-1.97c-0.02-2.96,0.01-5.91-0.02-8.87c-0.01-0.73,0.17-1.16,0.9-1.45c3.37-1.34,6.63-2.95,9.8-4.72
		c0.28-0.16,0.56-0.31,0.85-0.43c0.17-0.07,0.38-0.21,0.56-0.04c0.24,0.24,0,0.43-0.11,0.63c-0.91,1.6-1.82,3.19-2.74,4.78
		c-5.15,8.97-10.3,17.93-15.45,26.9C56.81,58.21,56.54,58.72,56.05,59.1z"></path>
	<path d="M178.33,67.56c0.59-1.32,1.17-2.65,1.76-3.97c1.76-3.94,3.51-7.88,5.28-11.82c0.27-0.6,0.42-1.19,0.4-1.85
		c-0.09-3.71,0.16-7.43-0.14-11.14c-0.05-0.6,0.21-0.57,0.63-0.45c2.37,0.7,4.74,1.4,7.12,2.06c0.91,0.25,0.59,0.7,0.29,1.22
		c-4.17,7.33-8.33,14.66-12.5,21.98c-0.8,1.4-1.45,2.89-2.51,4.12C178.55,67.67,178.44,67.62,178.33,67.56z"></path>
	<path d="M43.26,119.27c-0.19-2.09-0.38-4.18-0.57-6.27c-0.29-2.38-0.55-4.76-0.9-7.13
		c-0.16-1.05,0.01-1.92,0.55-2.84c2.58-4.42,5.1-8.87,7.66-13.3c0.19-0.32,0.24-0.78,0.72-0.89c0.29,0.48-0.04,0.85-0.21,1.22
		c-2.22,5.05-4.45,10.09-6.7,15.13c-0.27,0.6-0.39,1.19-0.39,1.85C43.36,111.12,43.58,115.2,43.26,119.27z"></path>
	<path d="M188.95,92.82c-1.32,4.94-2.06,9.92-3.19,14.84c0-2.99-0.01-5.98,0.01-8.98c0-0.57,0.43-1.02,0.7-1.5
		C187.28,95.72,188.12,94.27,188.95,92.82z"></path>
</g>
</svg>
