<!--?xml version="1.0" encoding="utf-8"?-->
<!-- Generator: Adobe Illustrator 24.2.3, SVG Export Plug-In . SVG Version: 6.00 Build 0)  -->
<svg version="1.1" id="Camada_1" xmlns="http://www.w3.org/2000/svg" xmlns:xlink="http://www.w3.org/1999/xlink" x="0px" y="0px" viewBox="0 0 234 419" enable-background="new 0 0 234 419" xml:space="preserve">
<g onclick="select(this)" class="" id="c-estampa-primaria" fill="#ffffff">
	<path d="M203.8483276,32.2845345c0.2733459,0.1604347,0.5708313,0.2904778,0.8165588,0.4856949
		c10.1933899,8.0975609,16.7267914,18.4918518,19.7408295,31.162365c1.3155975,5.5304718,2.1200409,11.1263275,2.858902,16.7504196
		c0.7853394,5.9780731,2.0124207,11.8930359,2.7431183,17.882164c0.5366821,4.3988495,1.4192352,8.7404556,2.1559143,13.1059036
		c0.2952118,1.7492828,0.7397766,3.4733658,1.1163635,5.2089233c0,1.0400009,0,2.0799942,0,3.1200027
		c-3.4725342,0.6932068-6.930191,1.4599991-10.4356842,1.9851532c-7.909256,1.1848984-15.839798,2.074646-23.8575287,1.8457947
		c-2.7822266-0.0794144-5.4807281-0.4779205-7.9298401-1.9480133c-0.9024353-0.5416794-2.1662292-0.2684326-2.9029846-1.2300415
		c0.2689056-1.316597,0.0010986-2.6468201,0.1371002-3.9802017c0.2865295-2.8091431,0.8761597-5.6096573,0.7208099-8.4386902
		c-0.0996094-1.8141556-0.0415955-3.6085663,0.2869263-5.3606339c0.6317139-3.3688889,1.312149-6.7053375,1.3780975-10.1658249
		c0.0653229-3.4284363,0.5329742-6.8417206,1.217804-10.212204c0.3261261-1.605011,0.6104584-3.3583603,1.8852844-4.4149857
		c1.1981354-0.9930725,1.8749847-2.2294006,2.6460571-3.4743271c2.2872925-3.6928635,3.1263275-7.9172363,4.4207764-11.9716034
		c1.6056061-5.028965,2.8253326-10.1539421,3.0865784-15.4427185c0.2150421-4.3534508,0.0613708-8.7109032-0.3554077-13.0557632
		C203.518631,33.5170288,203.4064331,32.8490295,203.8483276,32.2845345z"></path>
	<path d="M0.2399999,116.4000015c0.3990944-1.8923798,0.7992355-3.7845383,1.1970596-5.6771851
		c0.7556592-3.5950546,1.2740115-7.2296906,1.7788073-10.8652725c0.9360778-6.7417145,2.825887-13.2774429,4.2380676-19.9160233
		c0.9136658-4.2950897,1.1781807-8.706604,2.153883-12.9992218c1.6027317-7.0512238,3.8376999-13.8576126,7.7096853-20.0301361
		c2.8096981-4.4790878,6.324873-8.3409996,10.4916496-11.5832138c1.2201462-0.9494095,2.1714745-2.2272186,3.5975418-2.9156609
		c0.409853,0.666275,0.4419289,1.4347534,0.1384087,2.0693893c-0.2150822,0.4497261-0.1618748,0.7929611-0.1443195,1.219677
		c0.0343647,0.8352852,0.0157471,1.6772995-0.048336,2.5113487c-0.40481,5.2684479-0.3184166,10.5060234,0.6754837,15.7215576
		c0.9136086,4.7941971,2.5120468,9.3893089,3.8648491,14.0578041c0.9538612,3.291748,2.4152756,6.3087997,4.3255997,9.1502914
		c0.9040985,1.3447723,1.7531815,2.7823563,2.0989113,4.4021835c0.2641869,1.2378159,0.280941,2.5299911,0.5647278,3.7618179
		c1.2920685,5.6083755,1.5528221,11.352562,2.3044205,17.0313797c0.3198624,2.4167786,0.1186905,4.8932114,0.9038048,7.2596741
		c0.9446297,2.8472748,0.1950264,5.7997513,0.4697762,8.6912003c-0.4242439,0.4347839-0.2552528,0.9883957-0.2157631,1.4687347
		c0.0981255,1.1936569-0.469677,1.5954437-1.5789909,1.757782c-6.8482971,1.0021515-13.6845665,1.0294418-20.5538177,0.1363907
		c-7.7710991-1.0103149-15.5229464-2.1032791-23.1701088-3.8450317c-0.2689152-0.0612564-0.5343078-0.13797-0.8013411-0.2074814
		C0.24,117.2000046,0.24,116.8000031,0.2399999,116.4000015z"></path>
	<path d="M81.8232574,7.9648337c1.9933167,0.3221059,4.0146713,0.3454776,6.0174026,0.6403394
		c4.3357544,0.6383495,8.6800003,1.2529688,13.0565796,1.560708c3.2247009,0.2267456,6.4560852,0.363286,9.6786346,0.6149645
		c9.567894,0.7472448,19.0577316-0.3929892,28.5633621-1.1391401c4.1289215-0.3241014,8.2169189-0.9859085,12.2993622-1.6656408
		c0.7037048-0.1171703,1.4390411,0.1179075,2.1116333-0.2282166c2.0036774,0.1278214,3.4710236,1.1499076,4.7623596,2.6351333
		c1.0020447,1.1525259,2.4355469,1.7944489,3.754364,2.5350866c9.5250549,5.3492413,19.5428925,9.6384945,29.6755066,13.6653862
		c3.976944,1.5805149,7.6895142,3.714653,11.6385498,5.343462c0.1751404,0.0722351,0.3122711,0.2365589,0.4672089,0.3578014
		c-0.4417877,0.564312-0.3295898,1.2323112-0.2702179,1.8512306c0.4167786,4.3448601,0.5704498,8.7023125,0.3554077,13.0557632
		c-0.2612457,5.2887764-1.4809723,10.4137535-3.0865784,15.4427185c-1.2944489,4.0543671-2.1334839,8.2787399-4.4207764,11.9716034
		c-0.7710724,1.2449265-1.4479218,2.4812546-2.6460571,3.4743271c-1.274826,1.0566254-1.5591583,2.8099747-1.8852844,4.4149857
		c-0.6848297,3.3704834-1.1524811,6.7837677-1.217804,10.212204c-0.0659485,3.4604874-0.7463837,6.796936-1.3780975,10.1658249
		c-0.3285217,1.7520676-0.3865356,3.5464783-0.2869263,5.3606339c0.1553497,2.8290329-0.4342804,5.6295471-0.7208099,8.4386902
		c-0.1360016,1.3333817,0.1318054,2.6636047-0.1371002,3.9802017c-0.4350891,0.263176-0.2786713,0.715744-0.3222961,1.0867538
		c-1.2314911,10.473053-1.4573364,20.9770508-0.9196167,31.5013428c0.1637268,3.2047577-0.0886078,6.3917847-0.2826843,9.5842133
		c-0.3670654,6.0379333,0.1181488,12.0710449,0.138382,18.1070557c0.0092773,2.7614899-0.1012573,5.5138702-0.4396057,8.2587128
		c-0.230484,1.8700409-0.2589111,3.7496338,0.0620117,5.6197815c0.0405121,0.2361603,0.1031952,0.4799652,0.0820007,0.7135315
		c-0.2838898,3.1296539,0.5130768,6.0734406,1.3882141,9.0382385c1.7550659,5.945816,1.9432831,12.0373993,1.4457397,18.179657
		c-0.3086853,3.81073-0.8158722,7.6157532-0.0127716,11.4479828c0.2575378,1.2289734,0.1828766,2.5572357,0.0838165,3.8262939
		c-0.5065918,6.489624,0.6947327,12.8989105,0.8700562,19.3584442c0.1549835,5.7108765,0.6989136,11.4110413,1.0653229,17.1163025
		c0.1377563,2.1451721,0.3072357,4.2897949,0.3751221,6.437439c0.0753174,2.3829956-0.1534729,2.7092896-2.47435,3.3816528
		c-5.4622803,1.5823669-11.0361633,2.6375427-16.6871033,3.2367249
		c-13.3432159,1.4147339-26.7450714,1.5118408-40.1407776,1.6253357
		c-18.5563354,0.1572266-37.1143112,0.4963074-55.6699982,0.2002258
		c-10.0061951-0.1596985-19.9645538-1.045929-29.6639862-3.7774963c-3.6877174-1.0385132-3.8098068-1.0596008-3.5862617-4.8075562
		c0.4208603-7.0561829,0.9863625-14.1039124,1.5108299-21.1536865c0.2403526-3.2307434-0.1090736-6.4821472,0.3631821-9.7032776
		c0.0753365-0.5138397,0.0891571-1.0436249,0.2247772-1.5405273c0.8576775-3.1424103,0.1064415-6.2772522-0.0441322-9.4089661
		c-0.2265205-4.7113037,0.2113113-9.3542786,1.4141121-13.8990173c0.4223328-1.5957642,0.482132-3.1339722,0.2889442-4.7234497
		c-1.0502625-8.64151-0.9072342-17.2306824,1.0492516-25.7521515c0.3312035-1.4425507,0.4703064-2.931427,0.352829-4.410965
		c-0.3772812-4.7516632,0.0093384-9.5094604-0.1702347-14.2636719c-0.2127266-5.6320648-0.0184174-11.2757263-0.4517708-16.9031372
		c-0.2772369-3.6000824,0.4068794-7.1681213,0.2987823-10.7771759c-0.2909508-9.7139587-0.8827133-19.4097748-1.4747124-29.1067963
		c-0.0180473-0.2956238,0.0988388-0.6580276-0.2670174-0.8551025c-0.2747612-2.891449,0.4748421-5.8439255-0.4697876-8.6912003
		c-0.7851143-2.3664627-0.5839424-4.8428955-0.9038048-7.2596741c-0.7515984-5.6788177-1.012352-11.4230042-2.3044205-17.0313797
		c-0.2837868-1.2318268-0.3005409-2.5240021-0.5647278-3.7618179c-0.3457298-1.6198273-1.1948128-3.0574112-2.0989113-4.4021835
		c-1.9103241-2.8414917-3.3717384-5.8585434-4.3255997-9.1502914c-1.3528023-4.6684952-2.9512405-9.263607-3.8648491-14.0578041
		c-0.9939003-5.2155342-1.0802937-10.4531097-0.6754837-15.7215576c0.0640831-0.8340492,0.0827007-1.6760635,0.048336-2.5113487
		c-0.0175552-0.4267159-0.0707626-0.7699509,0.1443195-1.219677c0.3035202-0.6346359,0.2714443-1.4031143-0.1384087-2.0693893
		c4.2559223-1.9925022,8.474226-4.0644226,12.849184-5.7981167c7.1582146-2.8366299,14.2091446-5.927412,21.2223091-9.1037693
		c3.9020386-1.7672882,7.5175247-4.0415335,11.1048813-6.3594542c0.3909531-0.2526073,0.6922073-0.6504154,1.0171356-0.9976597
		C78.7506866,8.9248152,80.0444946,7.9791746,81.8232574,7.9648337z"></path>
</g>
<g onclick="select(this)" class="" id="c-estampa-secundaria" fill="#bf0811">
	<path d="M224.8478241,65.9284897c0.789093,2.6018906,1.1714478,5.2863922,1.5658112,7.9637604
		c0.6339111,4.3037872,1.205658,8.6167297,1.8036652,12.9260788c-5.9216309,2.0592804-11.710556,4.4481964-17.4483795,6.9690704
		c-0.6725769,0.2954941-0.9159698,0.6550446-0.8145752,1.3473206c0.1551666,1.0595627,0.2657623,2.125618,0.4181061,3.1856308
		c0.6822662,4.747551,1.3973389,9.4906082,2.0390625,14.2435837c0.1268311,0.9393387,0.319519,1.2099304,1.3222961,0.8922958
		c5.8828583-1.8633804,11.8375397-3.4707336,17.8676453-4.7908707c0.5923004,1.4749603,0.6370239,3.0663986,0.9633789,4.5979614
		c0.1920624,0.901474,0.2877808,1.8211746,0.7151794,2.6566849c0,1.359993,0,2.7200012,0,4.0800018
		c-4.4677887,1.0638428-8.9788208,1.8973694-13.5336304,2.4807281c-1.8981171,0.2430954-3.7830658,0.6303177-5.7098846,0.6085358
		c-0.3943176-2.6671448-0.8498077-5.3273773-1.1534271-8.0048447c-0.1210022-1.066864-0.3752136-1.1842957-1.3232422-0.7678146
		c-6.0669708,2.6652908-12.0473633,5.5021973-17.8290558,8.7469101c-1.0728607-0.2125244-2.0392151-0.6463852-2.8630676-1.3777313
		c-0.1743469-1.5431671-0.2321625-3.1100006-0.5447693-4.6242371c-0.7979126-3.8652191-1.2117157-7.7674103-1.4634247-11.6987915
		c-0.0732422-1.1438522,0.4946899-1.7829971,1.3376312-2.3063126c2.4674072-1.5317993,5.0635071-2.8293686,7.628891-4.1845322
		c1.5958405-0.8430176,3.3154602-1.4622803,4.7866211-2.5282593c1.6191711-1.1732178,3.4771576-1.8921661,5.2950745-2.6105423
		c0.8043823-0.3178558,0.972168-0.530098,0.8641052-1.2570877c-0.6152954-4.1390915-1.2753906-8.2730255-1.7874603-12.425087
		c-0.1621704-1.315033-0.9508057-2.4613037-0.8158264-3.8377991c0.0720978-0.7350006,0.2368774-1.7311096-0.3660278-2.1306992
		c-0.5480804-0.363266-1.2801666,0.3325348-1.8739014,0.6690216c-3.8309937,2.1711197-7.6483459,4.3663712-11.575943,6.6142349
		c-0.0932922-1.2113037,0.2378845-2.1375427,0.9947357-2.8860245c0.5024109-0.4968643,1.2230225-0.8237457,1.5971222-1.3908539
		c1.5514374-2.3518066,2.9584351-4.8073807,3.7997131-7.5067978c1.091217-3.5014267,2.120697-7.0273933,3.0150909-10.5834503
		c1.0444336-4.1526527,2.0121613-8.3171921,2.0931702-12.6579361c0.0231171-1.2378578-0.0461426-2.4590492-0.0787048-3.6871948
		c-0.0754547-2.8471794,0.1494446-5.698967-0.1711731-8.5444183c-0.067215-0.5964127-0.2589569-1.295372,0.3455658-1.7972946
		c0.1460724,0.0615654,0.3232422,0.0889854,0.4337311,0.1896248c4.4418945,4.0458221,9.0895844,7.898716,12.3460388,13.0634842
		c0.2100525,0.3331299,0.3556824,0.7068787,0.5309906,1.0613747c-0.2781677,0.15205-0.5474091,0.3234978-0.8352203,0.4539948
		c-3.8589783,1.7497559-7.7193604,3.4930496-11.4843903,5.4452477c-0.9001465,0.4667168-1.0492706,0.9836159-0.9006348,1.8895302
		c0.3483887,2.1234436,0.5948792,4.2634621,0.8940887,6.3951607c0.493927,3.5187416,0.9736023,7.0397606,1.5076447,10.5524635
		c0.2119141,1.3939438,0.8842773,1.8400421,2.1639404,1.3453217c1.8226929-0.704689,3.5781097-1.5814285,5.3757324-2.3533707
		C217.5746765,68.8109741,221.1095734,67.1195908,224.8478241,65.9284897z"></path>
	<path d="M47.9927254,231.8466492c0.1089478-2.6786652,0.68367-5.3002472,0.9828796-7.956543
		c0.3316193-2.9440308,1.0158577-5.8360291,1.227932-8.808609c0.0990601-1.388443,0.4517746-2.783844,0.609005-4.1882172
		c0.0811501-0.7248077,0.7804756-0.6767883,1.1790886-0.8060913c1.5352097-0.4980469,3.1648865-0.7230225,4.6728401-1.2828369
		c2.5435295-0.9442139,5.2489052-1.1520844,7.820591-1.9132233c1.9787903-0.5856628,4.0209808-0.7286682,6.0264511-1.1135101
		c0.3559341-0.0682831,0.5447388-0.0835571,0.4766541,0.3566742c-0.3781738,2.4451752-0.8954544,4.8802185-1.0814819,7.3401642
		c-0.1521759,2.0121613-0.5636978,3.9786072-0.7765198,5.9771729c-0.2067261,1.94133-0.2731018,3.9220428-0.830658,5.824173
		c-0.2019272,0.688858-0.0385437,1.3229218,0.8387146,1.0372009c3.4191895-1.1135712,7.1290131-0.3748169,10.4595642-1.511795
		c1.680481-0.5736542,3.1694183-0.4434357,4.7590942-0.3658295c0.9688492,0.047287,1.8868332-0.2164917,2.8348083-0.2753906
		c0.6053543-0.0375519,0.8880157-0.4347382,0.9057846-1.0479126c0.0503922-1.738205,0.1862335-3.4785309,0.5538559-5.1726227
		c0.5198212-2.395462,0.4675064-4.8735809,0.996788-7.2358398c0.4682465-2.0897217,0.4880676-4.2068176,0.8583679-6.2910156
		c0.0970383-0.5462036,0.3346252-0.7072144,0.7685699-0.6422424c2.3324509,0.3491516,4.7253113-0.0030975,7.0107727,0.3658447
		c2.1929016,0.3540039,4.3836365,0.3613129,6.5658875,0.608551c1.8696365,0.2118073,3.7345352,0.4658051,5.6006699,0.7077026
		c0.4965057,0.0643768,0.7287903,0.3601685,0.5397568,0.8365784c-0.3095779,0.7801971-0.1345215,1.5706329-0.131134,2.3594666
		c0.0026474,0.6187439,0.1956787,1.283844-0.5154724,1.7189026c-0.1410217,0.0862579-0.142868,0.4297791-0.175148,0.6594238
		c-0.4050598,2.8813477-0.8470688,5.7584686-1.1870728,8.647583c-0.1838531,1.5622559-0.4058228,3.1102448-0.7394028,4.6467438
		c-0.094429,0.4348755,0.0049896,1.1119232,0.5244827,1.0060883c1.5152054-0.3087158,2.5413361,0.8943176,3.8911667,1.0790253
		c0.9216843,0.1260986,2.0388031,0.1261902,2.7219391,0.4965057c1.5363083,0.8327942,3.4100266,0.1949463,4.7801056,1.3580017
		c0.0543289,0.0461426,0.1483765,0.0561218,0.2256851,0.0629883c1.8964844,0.1685181,3.5332794,1.3564606,5.4496613,1.4069977
		c0.6296921,0.0166321,0.9148865,0.5334015,1.4073181,0.7418213c0.549202,0.2324219,0.85009,0.1680756,0.9166183-0.4372101
		c0.1816559-1.6528168,0.1022186-3.3807678,0.5750122-4.9431305c0.5676117-1.8756409,0.4665833-3.8177643,0.9973907-5.7051392
		c0.4551544-1.618454,0.7128143-3.3864288,0.748703-5.1169434c0.0175476-0.8450165,0.4664459-1.6073761,0.3301544-2.4663849
		c-0.0534973-0.3370972,0.1960754-0.353241,0.4713135-0.2790375c0.6872711,0.1853333,1.5866852,0.1400909,2.0268402,0.5702362
		c0.9219666,0.9009705,2.0873718,1.2271271,3.1684113,1.7211304c2.8505707,1.3026276,5.5045471,2.9934998,8.3637238,4.2524719
		c1.8723145,0.8244324,3.4885864,2.0177917,5.218399,3.0449677c0.4133301,0.2454376,0.812439,0.4523315,1.4095306,0.5685577
		c-1.189682,1.0605164-0.7931976,2.4830322-0.95755,3.7154694c-0.4100952,3.0748901-0.9742584,6.127243-1.3432159,9.2107544
		c-0.2084656,1.7418976-0.5462799,3.5029297-0.8153839,5.2500305c-0.175415,1.1388092,1.1085358,1.6100464,1.9102783,1.995224
		c0.6062164,0.2912445,1.1798706,0.6256561,1.6770172,1.0207062c1.2212067,0.9704437,2.5485077,1.7169495,3.9749756,2.3261261
		c0.5444031,0.2324829,0.8643341,0.7841034,1.3761444,1.1174469c2.7731934,1.8062134,5.4809265,3.7134857,8.2668762,5.4991608
		c0.6213531,0.3982697,1.322998,0.6582184,1.8664703,1.2036438c0.2996521,0.3006897,0.5514526,0.2152405,0.618454-0.2703247
		c0.4007874-2.9047852,0.7241974-5.8249512,1.2657013-8.7038574c0.313446-1.6663971,0.527771-3.3280182,0.6950226-5.0080872
		c0.034668-0.3484039,0.0701294-0.6523438,0.0224762-1.0091858c-0.0679626-0.509079-0.2670441-1.0918427,0.3833313-1.4880066
		c0.4530334-0.2759094,0.1963196-0.8104095,0.2288666-1.2289276c0.0264893-0.3408661,0.0780792-0.6424255,0.4317322-0.7717743
		c0.3170929-0.1159973,0.4906921,0.1448212,0.7263489,0.2899475c2.3463745,1.4448395,4.6059265,3.0124054,7.0345459,4.3492584
		c2.2654572,1.2470245,4.4326782,2.7138519,6.7463531,3.8952637c1.2233887,0.6246643,2.3364563,1.4221039,3.5567474,2.0399628
		c0.7817993,0.6575928,0.4546661,1.6274872,0.6542511,2.4437866c0.1576385,0.6448364,0.0820618,1.3466949,0.1097107,2.0172119
		c-0.0671539,2.2146454,0.1561279,4.4378967-0.3074341,6.6542358c-0.4086609,1.9538574-0.5558319,3.9617615-0.9473877,5.9200134
		c-0.6151276,3.0761414-0.661026,3.0669861,2.1571045,4.2341614c0.4255066,2.4451599,0.3362427,4.9286499,0.5386505,7.3911743
		c0.2084961,2.5365906,0.3190918,5.083374,0.3963165,7.6280212c0.0560913,1.8477783-0.1933136,2.2259216-1.9830627,2.7599487
		c-6.0843658,1.8155518-12.3049011,2.962616-18.6189575,3.5969849c-2.6951447,0.270813-5.3895874,0.5818481-8.1060028,0.5651855
		c-0.016861-0.2385864-0.0768585-0.4834595-0.0429688-0.7146301c0.2333679-1.5921326,0.4990845-3.1785889,0.7163696-4.7741699
		c0.206955-1.5196533,0.271347-3.0758972,0.6396027-4.5544128c0.411499-1.6522217,0.4404907-3.3464966,0.8043671-4.9956055
		c0.1146393-0.5195618-0.1749573-0.8242493-0.650238-1.1290588c-4.0979156-2.6280823-8.1638489-5.3059692-12.2430115-7.9633484
		c-2.0214386-1.316864-4.053772-2.6170044-6.0737915-3.9360046c-0.4328308-0.2826538-0.9477081-0.4369202-0.9533386,0.2302246
		c-0.0141144,1.6747437-0.5666809,3.2539673-0.713974,4.9013062c-0.1473541,1.6481323-0.2440948,3.323822-0.6319427,4.9221497
		c-0.5965424,2.458252-0.5681305,4.997467-1.1542511,7.4485779c-0.1399384,0.5853271,0.2434692,1.0134888,0.7220306,1.2649841
		c2.8803101,1.5136414,5.582901,3.3224792,8.2945557,5.1019287c2.2424164,1.4715576,4.6473236,2.7070618,6.6997223,4.464447
		c-5.8480835,0.3429565-11.7030182,0.4462891-17.5592957,0.5012817c0.1710052-1.2423096,0.3327637-2.4859619,0.5151062-3.726593
		c0.2623596-1.7849731,0.4723663-3.581665,0.8381348-5.3457336c0.1921539-0.9267273,0.0708618-1.4282227-0.8385925-1.8852539
		c-3.8662262-1.9431458-7.8097229-3.7131042-11.796875-5.3847961c-2.1485443-0.9007568-4.3485947-1.6784668-6.5219574-2.5205688
		c-0.3054199-0.1183472-0.671051-0.3386536-0.6818771,0.210907c-0.0342941,1.740509-0.4799805,3.4208069-0.6884384,5.1346741
		c-0.2044601,1.6808472-0.2832947,3.3877258-0.6315765,5.0379639c-0.6006241,2.8458557-0.7801285,5.7473755-1.3000488,8.6002502
		c-0.2970047,0.2001953-0.5983353,0.3134155-0.9166641,0.046051c-1.6574326-0.3172302-3.3414383-0.5420227-4.9702454-0.9746704
		c-2.3136673-0.614624-4.6879578-0.8832397-7.0220566-1.3769226c-2.1011124-0.4444275-4.2913208-0.3962708-6.3937607-0.9219971
		c-0.4869156-0.1217346-0.6798248,0.0846252-0.9676895,0.5525208c-0.5668869,0.9213867,0.0202332,2.0109558-0.6076508,2.8615723
		c-6.6594696-0.0010071-13.3189316-0.0020142-19.9782867-0.0030212c0.0332642-0.4295349-0.039711-0.8575745,0.1609039-1.2844543
		c0.2427292-0.5164795,0.3293152-1.2037964-0.0042419-1.5911255c-0.3995056-0.4638977-1.0954208-0.2163696-1.6789322-0.1117554
		c-1.6146393,0.2895203-3.2297287,0.5793762-4.8505325,0.8311157c-2.504921,0.3891296-4.9885254,0.8826294-7.4595718,1.4438171
		c-1.7661514,0.0344238-3.5049515-0.2006531-5.2345848-0.5314331c-0.0103683-0.4786987-0.1423187-0.9944153-0.0099411-1.4297485
		c0.7840462-2.5785522,0.6203384-5.2941589,1.2262077-7.9092712c0.4416351-1.9062805,0.3063469-3.9414063,0.6835098-5.8692017
		c0.2197647-1.1233215,0.0145187-2.2931213,0.5035973-3.3804626c0.308403-0.6856384-0.0948029-0.8791199-0.7188263-0.6903076
		c-2.9384422,0.8890991-5.8791962,1.7711182-8.8092461,2.6872864c-2.9352074,0.9177856-5.8587189,1.8730164-8.7873573,2.8117981
		c0.3517342-5.5429993,0.716507-11.0852356,1.0460739-16.6295471c0.0828629-1.394043,0.0402985-2.7952423,0.0830536-4.1922913
		c0.0113564-0.3709564-0.1890335-0.8058624,0.2266045-1.100708c0.072731,0.4472504,0.0609283,0.856781,0.7897034,0.6029358
		c2.6413841-0.920105,5.3023033-1.786026,7.9684944-2.6325989c2.8170052-0.894455,5.691761-1.57901,8.5495567-2.328186
		c2.2223129-0.5825653,2.7239151,0.0795441,2.8892899-3.2280884c0.0039368-0.078949,0.0236588-0.1570587,0.0356369-0.235611
		c0.3963013-2.6004639,0.9106598-5.189743,1.1582108-7.8042755c0.2931061-3.0956268,0.8140945-6.1539917,1.2256622-9.2298279
		c0.0666656-0.4982605-0.0386047-0.8655243-0.6082153-0.6607361c-1.0129852,0.364212-2.0911102,0.3767853-3.109314,0.6378479
		c-3.6978226,0.9480743-7.3741341,1.9807281-11.0538025,2.9987183
		C51.4366493,231.043396,49.7802124,231.7078247,47.9927254,231.8466492z M82.3245544,265.4352112
		c-0.0007248,3.2073059-0.7896271,6.3203125-1.1253052,9.4848022c-0.3488541,3.2886963-0.9136887,6.5430298-1.3262634,9.8200378
		c-0.0843964,0.6703186,0.1833267,0.8668213,0.8619995,0.920105c1.2124252,0.0953064,2.359642-0.3093262,3.5515671-0.3076477
		c4.3551025,0.006073,8.7102127,0.0010376,13.0653229,0.0050354c0.3572388,0.0003357,0.7245102-0.0089722,1.0697784,0.0660706
		c1.0926666,0.2373352,1.4359055,0.0289612,1.4037933-1.1304626c-0.0300217-1.0837708,0.1634598-2.1687317,0.3802261-3.16922
		c0.5751419-2.6548157,0.6586456-5.3666077,1.181221-8.0282288c0.421463-2.1466064,0.4937286-4.3746948,0.904007-6.5435181
		c0.1089859-0.5760803-0.0614853-0.9026794-0.7382965-0.8970337c-1.3075485,0.0108948-2.6207199-0.1911011-3.9088593-0.2196045
		c-5.1089706-0.1130981-10.2227783-0.0074768-15.3347931,0.0170898c0.2301331-1.6320496,0.3704834-3.2840271,0.7263565-4.8881836
		c0.1925201-0.8677673,0.1922073-1.7294312,0.3078995-2.5899353c0.2824402-2.1008453,0.7165985-4.1772003,0.9012604-6.2958069
		c0.1638412-1.8796234,0.3778076-3.7690125,0.781456-5.6075745c0.1979446-0.9016113,0.0166702-1.1164093-0.7766418-1.0357819
		c-2.1183014,0.215271-4.2394028,0.4155426-6.3494415,0.6965027c-2.6923294,0.3584747-5.3758774,0.7838287-8.0612411,1.1932526
		c-1.247406,0.1902008-2.5008545,0.3636932-3.729454,0.6422882c-0.4570618,0.1036224-0.9377136,0.3216705-1.0028839,1.0110016
		c-0.2925568,3.094101-0.6618881,6.1755524-1.1791153,9.2472839c-0.3972168,2.3590088-0.5346527,4.7631226-0.9368629,7.1353149
		c-0.1484108,0.8753357-0.3605423,1.7824097-0.3420143,2.6987915c0.0108643,0.5375061,0.0734711,0.7567139,0.7639771,0.5976257
		c1.8757782-0.432251,3.7807465-0.7419128,5.6794357-1.069519c2.2495117-0.3881836,4.4955215-0.8190918,6.7598114-1.0927429
		C78.0031128,265.8351746,80.1340332,265.3245544,82.3245544,265.4352112z M91.0191956,224.397995
		c-0.7589417,0-1.5178986-0.001709-2.2768326,0.0007935c-0.3244553,0.0010834-0.7240372-0.00354-0.7044754,0.4355164
		c0.0378036,0.848587-0.3286667,1.6305847-0.3774185,2.4382477c-0.1687622,2.79599-0.6577759,5.5519562-1.0545044,8.3127594
		c-0.1263199,0.8790588-0.2201996,1.7996063-0.3491898,2.6816254c-0.2667923,1.8241425-0.576973,3.6464844-0.7965622,5.4793701
		c-0.0832291,0.6946106,0.1564713,1.0068054,0.9191284,1.0052185c4.7388916-0.0097961,9.4802094-0.1031494,14.2120972,0.27388
		c0.5504913,0.0438538,1.0883484,0.0766144,1.6420288,0.1923218c0.9227295,0.1928101,1.9572144,0.3301697,2.8235092-0.0733643
		c0.735733-0.3427124,0.2438736-1.2430725,0.4037323-1.8748627c0.0097656-0.0385895,0.011116-0.079422,0.022171-0.1175385
		c0.7491608-2.5807343,0.7605362-5.2773438,1.2164841-7.9080963c0.4950562-2.8565063,0.7492523-5.7598572,1.2531204-8.6226959
		c0.1027451-0.5837097,0.0140686-0.8768463-0.728775-1.0269623c-2.838913-0.5737-5.7357483-0.5516052-8.5944138-0.8166656
		C96.1181107,224.5447083,93.5628891,224.3833466,91.0191956,224.397995z M187.9545288,266.3283386
		c0.0572052-1.0195923-0.4205017-1.3459473-1.0335999-1.6725464c-2.3793793-1.2675171-4.7606049-2.5369263-7.0845337-3.9019775
		c-3.7222748-2.1864319-7.401062-4.446991-11.0933838-6.6841583c-0.3840637-0.2326965-0.723175-0.3226776-0.729248,0.2604218
		c-0.0186462,1.7827454-0.5398865,3.4940491-0.6941833,5.258606c-0.1440582,1.6474915-0.2450714,3.3255005-0.6512146,4.9170227
		c-0.6067505,2.3777161-0.6170807,4.8300171-1.1362305,7.2097778c-0.080658,0.369812,0.0583191,0.6663513,0.4313049,0.8910828
		c3.5256805,2.1240845,7.0286865,4.2859802,10.5606842,6.3994446c2.4455109,1.4633484,4.9198151,2.8791504,7.3975525,4.2875366
		c0.4355011,0.2475281,0.9424591,0.7313538,1.3914337,0.5232544c0.4455872-0.206543,0.1083832-0.863678,0.190918-1.3136902
		c0.0285492-0.1556396,0.0601807-0.3108826,0.0833435-0.4673462c0.2872009-1.9403992,0.5840149-3.8795166,0.8559418-5.8220215
		c0.2184601-1.5607605,0.3748016-3.1475525,0.6935425-4.6728516
		C187.5164337,269.7245789,187.4476166,267.8560791,187.9545288,266.3283386z M147.9905701,241.6380005
		c0.0637817-0.5843048-0.1007233-0.7899323-0.4385834-1.0454102c-0.9033356-0.6832123-1.9565582-1.0620728-2.9181213-1.6178589
		c-4.3077545-2.4899445-8.8160858-4.5805054-13.348526-6.6104279c-0.8526306-0.3818512-1.6570282-0.9450684-2.6224976-1.0899811
		c-0.3534546-0.0530701-0.7557678-0.2665558-0.7010727,0.3717651c0.0757523,0.8839111-0.2004089,1.727951-0.2641296,2.5894775
		c-0.1919785,2.5956879-0.8142624,5.1265259-1.0407104,7.7219543c-0.2176895,2.495224-0.7552872,4.9629059-1.1634216,7.4409027
		c-0.1167908,0.7090149,0.2789612,0.9993744,0.8649597,1.2009583c3.3711777,1.1596375,6.5689011,2.7371826,9.8273697,4.1615601
		c2.6215363,1.1459198,5.131546,2.5459747,7.6986389,3.8179169c1.4458313,0.7163391,1.4487762,0.7020264,1.5855713-0.9754028
		c0.0189819-0.2329102,0.1147919-0.4585266,0.1503601-0.6912842c0.2667847-1.7462158,0.5254517-3.4936371,0.7904358-5.2401123
		c0.2764893-1.8221741,0.5410309-3.6463165,0.8409729-5.4646606
		C147.5134735,244.6211853,147.5269928,242.9949493,147.9905701,241.6380005z M102.627594,264.6474609
		c0.1407547,0.3970032-0.1279831,0.9754028,0.4959793,0.9815979c0.5759354,0.0057068,1.0804596,0.2512207,1.6280899,0.3142395
		c3.2446899,0.3733215,6.4218979,1.1037292,9.5995483,1.8240051c2.3749542,0.5383911,4.7459412,1.1002197,7.099617,1.7236328
		c0.9923401,0.2628784,1.2370758-0.1416626,1.1995239-0.9979858c-0.0454254-1.0360107,0.1400452-2.0904236,0.3694458-3.0480957
		c0.6063843-2.5314331,0.6230392-5.1349182,1.1941376-7.6706238c0.4630051-2.0558319,0.401619-4.2170868,0.9579773-6.2813263
		c0.1448135-0.5372772,0.1261215-1.0567627-0.7065353-1.219162c-1.2329788-0.2405243-2.4368362-0.6405029-3.6432877-1.0050201
		c-4.5593948-1.3775482-9.2260284-2.3001862-13.8805008-3.2703552c-1.6792984-0.3500366-1.6877441-0.3021393-1.8004532,1.445282
		c-0.0126724,0.1964874-0.0548401,0.3910217-0.0826035,0.5865479c-0.2867126,2.0190277-0.5853271,4.0364075-0.8561554,6.0575409
		c-0.2250824,1.6796417-0.2575684,3.4037781-0.6666412,5.0351257
		C103.072937,260.9685364,103.1753769,262.8763123,102.627594,264.6474609z"></path>
	<path d="M12.8440065,56.1383438c5.8881826-3.834446,11.8381109-7.5702896,18.078289-11.2812042
		c-0.172142,1.3102341,0.2361107,2.4660225,0.2907009,3.6931648c0.0844784,1.8990211,0.3372631,3.7943726,0.7754745,5.6518478
		c0.8450813,3.5820885,1.4020653,7.2716751,2.6501427,10.7091408c1.5532265,4.2778854,2.6776466,8.7879257,5.6027679,12.5006027
		c0.8721237,1.1069336,1.4982109,2.4731598,1.9305191,3.8730774c0.2424355,0.7850647,0.1507263,1.3569183-0.6685753,1.7797089
		c-0.8847847,0.4565887-1.677166,1.0907745-2.5570602,1.5587616c-0.6885223,0.3662033-0.830513,0.8678055-0.7484093,1.5778275
		c0.6556778,5.6700821,1.3094292,11.3405228,1.9217873,17.0153809c0.1066666,0.9885025,0.3499451,1.03582,1.1380348,0.5082245
		c1.1785927-0.7890244,2.4435539-1.4490356,3.763916-2.2175446c0.1876183,2.0451508,0.3727722,3.9310379,0.5288696,5.8193207
		c0.0812187,0.9825287,0.273056,1.93396,0.6100235,2.8598099c0.2478714,0.6810608,0.462429,1.4089966,0.3649254,2.1105118
		c-0.2895813,2.0835419,0.0843315,4.151741,0.0333023,6.2262344c-0.4178505,0.2873688-0.2165489,0.7202301-0.2257957,1.0836945
		c-0.0413666,1.62603-0.1517792,1.7540436-1.8328896,1.893158c-0.357193,0.03125-0.7163925,0.0626602-1.075592,0.0940781
		c-0.1150322,0.0054779-0.2300568,0.0109558-0.3457642,0.0163879c-0.6634865-2.5823059-0.8332176-5.2449188-1.2726173-7.8639221
		c-0.4745369-2.8284149-0.8508301-5.673317-1.2861328-8.6203995c-6.9916725,4.1454697-13.8487263,8.219902-20.7213497,12.2678909
		c-0.5044975,0.2971497-0.6370869,0.5764923-0.517746,1.1392059c0.170517,0.8040161,0.4198723,1.6090546,0.3120823,2.4525681
		c-1.4887257-0.0267334-2.9376144-0.3600998-4.4006653-0.5715256c0.3866777-0.2783661,0.7535906-0.5873871,1.1598759-0.8306503
		c1.8757133-1.1230545,1.8417187-1.1120071,1.5884647-3.2527008c-0.5745544-4.8565826-1.0976181-9.7192459-1.6665649-14.5765152
		c-0.1194363-1.0196533-0.1239128-2.0631943-0.5051794-3.1885986c-1.5831766,0.9314423-3.11166,1.8407745-4.6498384,2.7333908
		c-2.4821863,1.4404526-4.9647756,2.8804626-7.4627762,4.2930984c-0.3966601,0.2243195-0.7791622,0.5887604-1.3140042,0.4549408
		c1.0235574-8.2248001,2.5240679-16.354454,4.8413839-24.3216629c1.6444211-0.9669952,3.2592664-1.9900742,4.9460282-2.8762589
		c0.8032341-0.4220276,0.938139-0.9164658,0.7835302-1.7214813c-0.3442659-1.7925262-0.623455-3.5975723-0.9262638-5.3980103
		c-0.4733248-2.8143234-0.9442453-5.6290359-1.4161844-8.4435844c0.3478327-2.0585098,1.1199446-3.9895325,1.7935209-5.9497452
		C12.5038776,56.930191,12.683053,56.5373955,12.8440065,56.1383438z M37.4900551,84.3801117
		c-0.0260658-0.1673508-0.0390167-0.2462463-0.0505753-0.3253326c-0.8188095-5.6028061-1.607563-11.2102585-2.4742088-16.8056564
		c-0.2649155-1.7103882,0.1038895-1.7474289-1.7005424-0.778717c-0.3166618,0.1700058-0.633728,0.3392639-0.9498863,0.5101852
		c-6.3304806,3.4224319-12.3814163,7.305397-18.4609413,11.1443176c-0.8515272,0.5377045-0.6831055,1.181076-0.5859365,1.8369141
		c0.8196011,5.5318832,1.7025919,11.0544968,2.4945192,16.59021c0.1445932,1.0107269,0.4347887,1.0296478,1.1831846,0.5703125
		c1.9400063-1.1906891,3.8959427-2.3556595,5.8532104-3.5179443c4.6369114-2.7535477,9.2784557-5.4992981,13.9175205-8.2492218
		C37.1243019,85.1133957,37.6208839,84.9305344,37.4900551,84.3801117z"></path>
	<path d="M48.0069122,231.8319397c0.0022469,2.60112-0.676384,5.1210022-0.918438,7.6869812
		c-0.1843262,1.9539642-0.4944115,3.8924866-0.6334763,5.8494568c-0.0251122,0.353363,0.0304832,0.7323303-0.3824615,0.9212646
		c-0.119648-1.3426056-0.2406006-2.6851196-0.3587761-4.0278931c-0.2835083-3.2214355-0.5327415-6.4431458-0.0562897-9.6689606
		C46.515522,232.5705566,47.1695633,231.9182434,48.0069122,231.8319397z"></path>
	<path d="M31.370966,32.4041214c0.547596,0.7424927,0.6247864,1.4937325,0.0212784,2.2425575
		c-0.1614819,0.2003593-0.2547989,0.4111633-0.184021,0.6573334c0.5716763,1.9883156-0.2568398,3.9509964-0.1135559,5.9333382
		c0.0167332,0.2314644-0.1767521,0.4781265-0.2967739,0.7776031c-0.4065437-2.7520905-0.8045254-5.446228-1.201498-8.1415176
		C30.1133671,33.2920227,30.5463047,32.6114655,31.370966,32.4041214z"></path>
</g>
<g onclick="select(this)" class="" id="c-gola-primaria" fill="#bf0811">
	<path d="M141.8400116,0.24c0.9924622,0.4431632,2.086441,0.4431034,3.1214447,0.7117371
		c1.5948334,0.4139404,2.9455872,1.1451814,3.9818878,2.4655492c1.312851,1.672699,2.9249878,3.0421085,4.6068878,4.3305616
		c-0.6725922,0.3461242-1.4079285,0.1110463-2.1116333,0.2282166c-4.0824432,0.6797323-8.1704407,1.3415394-12.2993622,1.6656408
		c-9.5056305,0.746151-18.9954681,1.886385-28.5633621,1.1391401c-3.2225494-0.2516785-6.4539337-0.3882189-9.6786346-0.6149645
		c-4.3765793-0.3077393-8.7208252-0.9223585-13.0565796-1.560708c-2.0027313-0.2948618-4.024086-0.3182335-6.0174026-0.6403394
		c1.4944687-1.1411915,3.0270386-2.2916994,4.0824432-3.8432579c1.6976318-2.4956884,4.1215515-3.3665047,6.9380035-3.6106102
		C93.2577438,0.4750811,93.733696,0.6210111,94.0800018,0.24c7.9200058,0,15.840004,0,23.7600021,0c2,0.1722626,4,0.3261583,6,0
		C129.8400116,0.24,135.8400116,0.24,141.8400116,0.24z"></path>
</g>
</svg>
