<!--?xml version="1.0" encoding="utf-8"?-->
<!-- Generator: Adobe Illustrator 24.2.3, SVG Export Plug-In . SVG Version: 6.00 Build 0)  -->
<svg version="1.1" id="Camada_1" xmlns="http://www.w3.org/2000/svg" xmlns:xlink="http://www.w3.org/1999/xlink" x="0px" y="0px" viewBox="0 0 234 419" style="enable-background:new 0 0 234 419;" xml:space="preserve">
<style type="text/css">
	.st0{fill:#0CA4A4;}
	.st1{fill:#07115C;}
	.st2{fill:#E60615;}
	.st3{fill:#EDC90B;}
</style>
<g onclick="select(this)" class="" id="c-gola-primaria" fill="#082890">
	<path d="M81.8,8.2c1.7-1.1,3.2-2.5,4.4-4.1c1.7-2.3,3.9-3.2,6.6-3.2c0.5,0,1.1,0.2,1.3-0.5c15.9,0,31.8,0,47.8,0
		c0.6,0.5,1.3,0.4,2,0.5c2.2,0.4,4,1.2,5.4,3.1c1.2,1.6,2.7,2.8,4.3,4c-3.8,0.5-7.5,1.2-11.3,1.6c-10.6,1-21.2,2.2-31.9,1.4
		c-3.2-0.2-6.4-0.4-9.6-0.6c-5-0.4-9.9-1.1-14.8-1.8C84.5,8.4,83.1,8.6,81.8,8.2z"></path>
</g>
<g onclick="select(this)" class="" id="c-detalhe-punho" fill="#ffffff">
	<path d="M0.2,116.4c0.4-2,0.8-4,1.2-6c0.1-0.3,0-0.6,0.3-0.7c0.4,0.2,0.9,0.4,1.3,0.5c5.7,1.1,11.4,2,17.2,3
		c5.9,1,11.9,1.4,17.8,1.4c2.4,0,4.8-0.1,6.9-1.4c0.7-0.5,1.1-0.1,1.1,0.7c0,0.4-0.3,1,0.4,1.2c0,1.2,0,2.4,0,3.6
		c-0.1,0.6-0.3,1.2-0.2,1.8c0.1,1.2-0.6,1.4-1.5,1.5c-5.6,0.6-11.1,1.1-16.7,0.5c-9.1-1-18.2-2.3-27.2-4.3c-0.2-0.1-0.4-0.2-0.7-0.2
		C0.2,117.3,0.2,116.8,0.2,116.4z"></path>
	<path d="M188.7,112.8c1.1,0.1,1.8,0.9,2.6,1.5c1,0.7,2.1,1.3,3.3,1.3c3.7,0.1,7.4,0.3,11.1,0.2c2.9-0.1,5.8-0.7,8.8-1
		c3.2-0.4,6.4-0.7,9.6-1.1c2.7-0.3,5.4-1,8.1-1.7c0.7,0.1,0.5,0.8,0.6,1.2c0.3,1.9,0.4,3.9,0.6,5.8c0.1,1-0.4,1.3-1.2,1.4
		c-3.7,0.9-7.5,1.6-11.3,2.1c-7.1,1-14.3,1.7-21.5,1.5c-2.9-0.1-5.8-0.4-8.4-2c-0.3-0.2-0.7-0.3-1.1-0.3c-0.8-0.1-1.3-0.4-1.7-1.1
		C188,118,188.7,115.4,188.7,112.8z"></path>
</g>
<g onclick="select(this)" class="" id="c-estampa-primaria" fill="#082890">
	<path d="M46.6,118.5c0-1.2,0-2.4,0-3.6c0.5-3.6-0.9-6.9-1.2-10.4c-0.2-2.2,0.1-4.5-1-6.6c0.2-4.2-1-8.3-1.4-12.4
		c-0.4-3.7-1.6-7-3.8-9.9c-0.5-0.7-0.9-1.5-1.3-2.3c-1.7-3.2-2.4-6.7-3.5-10C32.3,56.8,31,50.2,31,43.4c0-1.1,0.2-2.2,0.3-3.3
		c0.1-1.9,0-3.9,0.4-5.8c0.1-0.5,0.1-1.1-0.2-1.6c4.2-2,8.4-4,12.8-5.8c7.1-2.8,14.2-5.9,21.1-9.1c3.9-1.8,7.6-4.1,11.2-6.4
		c0.5-0.3,0.7-0.7,1.1-1.1c1.1-1.2,2.4-2.1,4.1-2.1c1.3,0.4,2.7,0.2,4.1,0.4c4.9,0.7,9.9,1.5,14.8,1.8c3.2,0.2,6.4,0.4,9.6,0.6
		c10.7,0.7,21.3-0.4,31.9-1.4c3.8-0.4,7.6-1.1,11.3-1.6c1.9,0,3.4,1,4.6,2.4c1.1,1.2,2.5,1.9,3.9,2.7c9.5,5.4,19.5,9.6,29.7,13.7
		c4,1.6,7.7,3.7,11.6,5.3c0.2,0.1,0.3,0.2,0.5,0.4c-0.4,0.5-0.5,1.2-0.3,1.7c0.5,1.1,0.1,2.3,0.2,3.4c0.1,2.9,0.6,5.8,0.3,8.8
		c-0.3,2.4-0.3,4.9-0.8,7.3c-1.3,6.2-3.2,12.3-5.3,18.3c-0.7,2.1-1.8,4.1-3.4,5.5c-1,0.9-1.8,1.8-2.1,3.1c-1.2,4.1-1.6,8.4-1.8,12.6
		c-0.2,2.8-0.3,5.6-1.1,8.4c-0.5,2-0.8,4.2-0.6,6.3c0.2,1.7-0.1,3.2-0.2,4.9c0,2.6-0.7,5.2-0.5,7.8c-0.4,0.3-0.3,0.7-0.3,1.1
		c-1.2,10.5-1.5,21.1-0.9,31.6c0.2,3.2-0.1,6.5-0.3,9.7c-0.4,6.1,0.1,12.1,0.1,18.2c0,2.7-0.1,5.4-0.4,8c-0.2,1.9-0.3,3.8,0,5.7
		c0,0.3,0.1,0.6,0.1,0.8c-0.3,3.1,0.5,5.9,1.4,8.8c1.6,5.7,2,11.5,1.5,17.5c-0.3,4.2-0.9,8.5,0,12.8c0.2,1.1,0.1,2.2,0.1,3.3
		c-0.4,7.6,0.8,15.1,1.1,22.7c0.2,5.3,0.7,10.7,0.9,16c0.1,1.5,0.3,3.1,0.3,4.7c0,1.8-0.2,2.2-1.9,2.7c-4.4,1.4-9,2.3-13.6,2.9
		c-11.6,1.7-23.3,1.8-34.9,2c-21.5,0.3-43,0.6-64.5,0.3c-10-0.1-20-1-29.7-3.8c-3.7-1-3.8-1.1-3.6-4.8c0.4-7,1-14,1.5-21
		c0.2-3.2-0.1-6.5,0.4-9.7c0.1-0.6,0.1-1.1,0.2-1.7c0.9-3.2,0.1-6.4-0.1-9.6c-0.2-4.6,0.2-9.2,1.4-13.7c0.4-1.6,0.5-3.1,0.3-4.7
		c-1.1-8.7-0.9-17.3,1.1-25.9c0.3-1.4,0.4-2.8,0.3-4.2c-0.4-4.8,0-9.5-0.2-14.3c-0.2-5.8,0-11.5-0.5-17.3c-0.3-3.6,0.4-7.2,0.3-10.8
		c-0.3-9.6-0.9-19.2-1.5-28.7C46.8,119.1,47,118.7,46.6,118.5z"></path>
	<path d="M188.7,112.8c0.1-1.6,0.4-3.2,0.2-4.9c-0.2-2.1,0-4.2,0.6-6.3c0.7-2.8,0.9-5.6,1.1-8.4
		c0.2-4.2,0.6-8.5,1.8-12.6c0.4-1.2,1.1-2.2,2.1-3.1c1.6-1.5,2.7-3.5,3.4-5.5c2.1-6,4-12.1,5.3-18.3c0.5-2.4,0.5-4.9,0.8-7.3
		c0.3-2.9-0.1-5.9-0.3-8.8c-0.1-1.1,0.3-2.2-0.2-3.4c-0.2-0.5-0.1-1.2,0.3-1.7c0.3,0.2,0.6,0.3,0.8,0.5
		c10.2,8.1,16.7,18.5,19.7,31.2c1.4,5.7,2,11.5,2.9,17.2c1.6,9.7,2.6,19.6,4.7,29.2c0.1,0.5,0.1,1,0.1,1.4c-2.7,0.7-5.3,1.4-8.1,1.7
		c-3.2,0.4-6.4,0.7-9.6,1.1c-2.9,0.3-5.8,0.9-8.8,1c-3.7,0.1-7.4-0.1-11.1-0.2c-1.2,0-2.3-0.6-3.3-1.3
		C190.5,113.7,189.8,112.8,188.7,112.8z"></path>
	<path d="M31.4,32.6c0.3,0.5,0.4,1.1,0.2,1.6c-0.4,1.9-0.3,3.9-0.4,5.8c-0.1,1.1-0.3,2.2-0.3,3.3
		c0,6.8,1.4,13.4,3.5,19.9c1.1,3.4,1.8,6.9,3.5,10c0.4,0.8,0.8,1.6,1.3,2.3c2.2,3,3.4,6.3,3.8,9.9c0.5,4.1,1.7,8.2,1.4,12.4
		c1.1,2.1,0.8,4.4,1,6.6c0.3,3.5,1.6,6.9,1.2,10.4c-0.7-0.2-0.4-0.8-0.4-1.2c0-0.8-0.3-1.2-1.1-0.7c-2.1,1.3-4.5,1.4-6.9,1.4
		c-6,0-11.9-0.4-17.8-1.4c-5.7-0.9-11.4-1.9-17.2-3c-0.5-0.1-0.9-0.2-1.3-0.5c1.2-8,2.2-16,4.4-23.8c1.5-5.3,2-10.8,3-16.3
		c1.5-8.1,3.9-15.8,8.4-22.8c2.8-4.3,6.2-8.1,10.2-11.2C29,34.6,30,33.3,31.4,32.6z"></path>
</g>
<g onclick="select(this)" class="" id="c-estampa-terciaria" fill="#bf0811">
	<path d="M48.3,151.9c3.7,0.1,7.4,0.3,11.1,0.4c0,0.1,0,0.3,0,0.4c-3.7,0.1-7.4,0.2-11.1,0.3
		C48.2,152.7,48.2,152.3,48.3,151.9z"></path>
	<path d="M45.9,243.9c7.2,0,14.5,0,21.7,0.3c2.8,0.1,5.5,0.1,8.3,0.1c7.3,0.1,14.7,0.1,22.1,0.3
		c2.6,0.1,5.2-0.1,7.8,0.1c5.7,0.4,11.4,0.1,17.2,0.3c-0.5,0.3-1,0.3-1.5,0.3c-9.3,0.1-18.7,0.1-28.1,0.2
		c-6.9,0.1-13.8,0.1-20.6,0.2c-6.8,0.1-13.5,0.1-20.3,0.2c-2.2,0-4.3,0.2-6.5,0.1C46,245.2,46,244.5,45.9,243.9z"></path>
	<path d="M186.6,162.8c-5.8-0.1-11.6-0.2-17.5-0.3c-2.8,0-5.6,0-8.4-0.1c-4.5-0.1-9,0-13.5-0.1
		c-5.3-0.2-10.5-0.1-15.8-0.2c-0.7,0-1.4-0.2-2.1-0.2c1.8-0.1,3.5-0.2,5.3-0.3c5.3-0.1,10.5,0,15.8-0.1c6.3-0.2,12.6-0.2,18.9-0.3
		c5.4-0.1,10.7-0.2,16-0.3c0.4,0,0.9,0,1.3,0.1C186.8,161.6,186.7,162.2,186.6,162.8z"></path>
	<path d="M48.6,192.9c4.7,0.1,9.5,0.1,14.2,0.2c11.6,0.3,23.3,0.3,35,0.5c0.7,0,1.3,0.2,2,0.3c-0.3,0.4-0.6,0.3-0.9,0.3
		c-7.1,0.1-14.1,0-21.2,0.2c-5.4,0.1-10.8,0.1-16.2,0.2c-4,0.1-7.9,0.1-11.8,0.2c-0.4,0-0.9-0.1-1.3-0.1
		C48.4,194.1,48.5,193.5,48.6,192.9z"></path>
	<path d="M188.8,230.9c-7.4,0-14.8-0.2-22.1-0.3c-3.4-0.1-6.7-0.1-10.1-0.1c-0.4,0-1,0.2-1.3-0.4
		c0.3-0.3,0.7-0.2,1.1-0.3c6.9-0.1,13.7-0.2,20.6-0.4c3.9-0.1,7.8-0.2,11.7-0.3C188.8,229.7,188.8,230.3,188.8,230.9z"></path>
	<path d="M190,254.8c-3.5,0.1-7,0-10.5-0.2c-2.9-0.1-5.8-0.2-8.8-0.2c-0.4,0-0.7,0-1.1-0.3c0.9-0.1,1.7-0.2,2.6-0.2
		c5.4-0.1,10.8-0.3,16.2-0.6c0.5,0,1,0.1,1.6,0.1C189.9,253.9,190,254.4,190,254.8z"></path>
	<path d="M46.5,110.7c-0.3-0.7-0.8-1.4-0.6-2.2c2.2,0,4.4,0.1,6.6,0.1c6.7,0.1,13.4,0.1,20.1,0.2
		c7.4,0.2,14.9,0.1,22.3,0.3c7.1,0.2,14.2,0.1,21.3,0.2c1.1,0,2.1,0.4,2.8,0.3c-5.5,0.5-11.4,0.2-17.2,0.3
		c-8.4,0.1-16.8,0.2-25.2,0.2c-9.1,0.1-18.2,0.2-27.3,0.3C48.3,110.4,47.4,110.6,46.5,110.7z"></path>
	<path d="M199.2,68c0,0.9-0.3,1.7-0.8,2.5c-2.6-0.4-5.3-0.2-7.9-0.3c-5.5-0.2-11-0.1-16.5-0.3
		c-8.6-0.2-17.1-0.4-25.6-0.4c-0.1,0-0.2,0-0.4-0.1c1.1-0.3,2.1-0.4,3.1-0.4c9-0.1,18-0.3,27-0.5c6.5-0.1,12.9-0.3,19.4-0.4
		C198,68.1,198.6,68.1,199.2,68z"></path>
	<path d="M33.9,61.2c-0.6-0.8-0.7-1.7-0.7-2.6c2.5,0,5-0.1,7.4,0.2c5.3,0.5,10.7,0.5,16,0.7c2.2,0.1,4.3,0.2,6.5,0.2
		c0.4,0,0.8,0,0.8,0.5s-0.5,0.3-0.8,0.3c-6.2,0.1-12.4,0.3-18.6,0.4C41,60.8,37.4,61,33.9,61.2z"></path>
</g>
<g onclick="select(this)" class="" id="c-estampa-secundaria" fill="#ffffff">
	<path d="M191.4,277c-6.9,0.1-13.9-0.1-20.8-0.2c-0.2,0-0.3,0-0.5,0c-6.3,0-12.6-0.1-18.9-0.1
		c-7.6-0.1-15.2-0.1-22.8-0.2c-0.4,0-0.8,0.1-1.1-0.4c0.4-0.4,1-0.2,1.4-0.2c9.3,0,18.7-0.2,28-0.4c2.6,0,5.2,0,7.8-0.1
		c6.4-0.1,12.9-0.1,19.3-0.2c2.5,0,5-0.2,7.5-0.1C191.6,275.8,191.5,276.4,191.4,277z"></path>
	<path d="M47.2,219.8c4.3,0.1,8.7,0.3,13,0.4c4.3,0.1,8.5,0.2,12.8,0.2c0.4,0,0.7,0.1,1.3,0.4c-9.2,0.1-18.1,0.3-27,0.4
		C47.3,220.8,47,220.3,47.2,219.8z"></path>
	<path d="M186.6,186c-0.3,0.3-0.7,0.2-1,0.2c-4.9-0.1-9.9-0.3-14.8-0.4c-0.1,0-0.3,0-0.7-0.1c3.6-0.4,7-0.5,10.4-0.6
		c1.8,0,3.6-0.1,5.4-0.2c0.3,0,0.6-0.1,0.8,0.2C186.6,185.3,186.6,185.6,186.6,186z"></path>
	<path d="M186.8,150.4c-4.5-0.3-9.1,0-13.6-0.7c4.5-0.1,9.1-0.3,13.6-0.4C186.9,149.6,186.9,150,186.8,150.4z"></path>
	<path d="M47.5,131.1c2.7,0.1,5.4,0,8,0.3c1,0.1,2.1,0,3.1,0.1c0,0.7-0.6,0.6-1,0.6c-3.3,0.1-6.7,0.1-10,0.2
		C47.6,131.9,47.6,131.5,47.5,131.1z"></path>
	<path d="M31.3,34.9C31,34,32,33.3,31.4,32.4c0.2-0.1,0.4-0.2,0.6-0.3c1.1,0.1,2.1,0.2,3.2,0.2c6.4,0,12.8,0.3,19.3,0.4
		c7.1,0,14.2,0.1,21.3,0.3c4.6,0.1,9.2,0.2,13.8,0.2c0.4,0,0.8-0.1,1.2,0.1c1.1,0.4,2.3,0.4,3.4,0c5.8,0.1,11.7,0.1,17.5,0.2
		c0,0.1,0,0.2,0,0.3c-4.5,0-9,0.1-13.5,0.2c-12.9,0.1-25.7,0.2-38.6,0.4c-5.6,0.1-11.3,0.1-16.9,0.2C38.8,34.7,35,34.5,31.3,34.9z"></path>
	<path d="M190.5,94.9c0.1,0.7,0.2,1.4-0.2,2.1c-1.9,0-3.8-0.1-5.6-0.1c-5.4-0.1-10.7-0.1-16.1-0.1c-6-0.1-12-0.1-18-0.2
		c-8.6-0.2-17.1-0.2-25.7-0.2c-2.3,0-4.5-0.4-6.8-0.2c3-0.5,6-0.3,9.1-0.4c2.8,0,5.6-0.1,8.4-0.1c6.4-0.1,12.9-0.1,19.3-0.2
		c9.4-0.1,18.8-0.2,28.2-0.4C185.6,95,188.1,95,190.5,94.9z"></path>
	<path d="M203.9,47.6c0.1,0.9,0.1,1.7-0.3,2.5c-2.6-0.1-5.1-0.2-7.6-0.3c-7.7-0.2-15.4-0.3-23.1-0.5
		c-2.1-0.1-4.3,0.2-6.2-0.4C178.9,48.5,191.4,48.1,203.9,47.6z"></path>
	<path d="M94.1,33.3c-1.1,0.3-2.3,0.4-3.4,0C91.8,33.2,92.9,33.1,94.1,33.3z"></path>
	<path d="M111.6,33.9c0-0.1,0-0.2,0-0.3c1.3,0.1,2.7,0.2,4,0.3C114.2,33.9,112.9,33.9,111.6,33.9z"></path>
</g>
</svg>
