<!--?xml version="1.0" encoding="utf-8"?-->
<!-- Generator: Adobe Illustrator 24.2.3, SVG Export Plug-In . SVG Version: 6.00 Build 0)  -->
<svg version="1.1" id="Camada_1" xmlns="http://www.w3.org/2000/svg" xmlns:xlink="http://www.w3.org/1999/xlink" x="0px" y="0px" viewBox="0 0 229 418" style="enable-background:new 0 0 229 418;" xml:space="preserve">
<style type="text/css">
	.st0{fill:#FD0202;}
	.st1{fill:#E5BA0E;}
	.st2{fill:#AA0B1F;}
</style>
<g onclick="select(this)" class="" id="estampa-primaria" fill="#082890">
	<path d="M43.2,120.4c-0.2-1.9-0.3-3.8-0.5-5.7c-0.2-1.5-0.4-1.6-1.9-1.3c-1.1,0.2-2.1,0.4-3.2,0.6c-3.7,0.7-7.5,0.4-11.2,0.4
		c-6.5,0-12.9-0.6-19.2-2.1c-2-0.5-4-1.1-6-1.7c1-4.8,1.7-9.7,2.3-14.5c0.9-6.3,1.9-12.6,2.6-18.9c0.8-6.7,1.9-13.3,4-19.7
		c2.9-8.9,7.8-16.5,15.2-22.4c1.1-0.9,2-2.2,3.3-2.9c3.6-1.9,7.3-3.7,11-5.3c10-4.1,20-8.2,29.5-13.4c2-1.1,4-2.1,5.5-3.9
		c0.8-1,2.1-1.6,3.5-1.6c-1.7,0.9-2,2.4-1.7,4.1c0.4,2.1,1.1,4.2,2.3,6c5.9,8.6,14.3,13.9,24.1,17.1c2,0.7,4.2,1.1,6.6,1
		c-0.8-1.3-1.7-2.3-2.7-3.3c-4.4-4.6-9.3-8.5-14.3-12.4c-2.5-2-4.7-4.2-6.7-6.7c-1-1.2-1.7-2.5-2.3-3.9c-0.3-0.7-0.2-1,0.6-0.9
		c3.5,0.4,7.1,0.7,10.6,1c7.9,0.6,15.8,1.4,23.8,1c6.3-0.4,12.5-0.7,18.8-1.2c2.3-0.2,4.5-0.3,7-0.5c-0.4,0.8-0.6,1.4-1,2
		c-1.2,2.3-2.9,4.2-4.7,6.1c-2.9,3-6.4,5.2-9.5,7.8c-3.5,3-7.1,5.9-10,9.5c-0.4,0.5-0.9,1-1,1.8c1-0.1,2,0,2.9-0.2
		c5.1-0.9,9.7-3.1,14.1-5.6c3.3-1.9,6.4-4.2,9.1-6.8c3.1-3,5.5-6.4,6.6-10.6c0.6-2.2,0-4.3-1.7-4.7c1.9-0.3,3.1,0.9,4.2,2.2
		c0.3,0.4,0.7,0.7,1.1,1c8.9,5.9,18.8,9.6,28.5,13.7c5.1,2.1,10,4.4,15.1,6.6c0.3,0.1,0.6,0.3,0.8,0.5c12,8.5,19.2,20.2,21.4,34.6
		c1.7,11.3,4.7,22.4,6.2,33.7c0.4,2.7,0.8,5.3,1.2,7.9c-0.4,0-0.8,0.1-1.2,0.2c-5.3,2.4-10.8,3.4-16.5,4.2c-4.9,0.7-9.8,1.4-14.8,1
		c-3-0.2-6.1,0-9.1-0.7c-0.4-0.1-1-0.3-1.1,0.5c-0.1,2.1-1,4.2-0.7,6.4c-0.4,0.8-0.3,1.7-0.4,2.6c-1,8.4-1.7,16.8-1.7,25.2
		c0,2.2,0.1,4.4,0.5,6.6c0.4,1.9,0,3.8-0.2,5.7c-0.2,2.1-0.2,4.2-0.1,6.3c0.1,2.2-0.1,4.3-0.2,6.5c-0.1,2.8-0.1,5.7,0.1,8.5
		c0.1,1.7,0.1,3.4-0.1,5c-0.3,3,0.2,5.9,0.8,8.8c1.7,7.3,1.5,14.8,0.4,22.2c-0.3,2.1-0.4,4.2,0.3,6.4c1.8,5.5,1.8,11.1,0.9,16.7
		c-0.2,1.4-0.2,2.7,0.1,4c0.9,3.8,0.5,7.7,0.7,11.6c0.3,6,0.7,12,1.4,17.9c0.3,2,0.2,4.1,0.3,6.1c0,1.8-0.3,2.3-2.1,2.8
		c-3,0.9-6,1.1-9.1,1.5c-7.7,0.8-15.5,0.9-23.2,1c-11.2,0.2-22.5,0.7-33.7,0.8c-12.5,0.2-24.9-0.8-37.4-0.8
		c-8.4,0-16.8-0.1-25.2-0.7c-4.1-0.3-8.3-0.8-12.4-1.7c-0.3-0.1-0.5-0.1-0.8-0.2c-3-0.8-3.3-1.2-3.2-4.2c0.5-7.8,1-15.7,1.6-23.5
		c0.1-2,0.3-4.1,0.2-6.1c0-1.8,0-3.6,0.4-5.4c0.4-2.2,0.5-4.4,0.1-6.7c-0.4-2.5-0.1-5,0.4-7.5c0.2-1.1,0.2-2.1,0.1-3.2
		c-0.3-4.5-1-8.9-0.8-13.4c0.2-4.4,1.2-8.6,2.7-12.7c0.4-1,0.6-2,0.4-3c-0.2-1.2-0.2-2.5,0.1-3.7c0.3-1.7,0.2-3.3,0.1-5
		c-0.2-3.3-0.2-6.6-0.2-9.9c-0.1-12.9,0-25.8-0.1-38.7c0-5.2-1-10.3-1.5-15.5C43.6,122.9,43.7,121.6,43.2,120.4z"></path>
</g>
<g onclick="select(this)" class="" id="gola-primaria" fill="#082890">
	<path d="M149.2,8.3c1.7,0.5,2.3,2.5,1.7,4.7c-1.2,4.2-3.5,7.7-6.6,10.6c-2.7,2.6-5.8,4.9-9.1,6.8
		c-4.4,2.6-9,4.7-14.1,5.6c-1,0.2-1.9,0.1-2.9,0.2c0.1-0.8,0.6-1.3,1-1.8c2.9-3.6,6.4-6.5,10-9.5c3.2-2.6,6.6-4.9,9.5-7.8
		c1.8-1.8,3.4-3.8,4.7-6.1c0.3-0.6,0.6-1.3,1-2c-2.4,0.2-4.7,0.3-7,0.5c-6.3,0.5-12.5,0.9-18.8,1.2c-8,0.5-15.9-0.4-23.8-1
		c-3.5-0.3-7.1-0.6-10.6-1c-0.9-0.1-0.9,0.2-0.6,0.9c0.6,1.4,1.3,2.7,2.3,3.9c2,2.5,4.2,4.7,6.7,6.7c5,3.9,9.9,7.8,14.3,12.4
		c1,1,1.8,2,2.7,3.3c-2.4,0.2-4.5-0.3-6.6-1C93,31.9,84.7,26.7,78.7,18c-1.2-1.8-1.9-3.8-2.3-6c-0.3-1.7,0-3.2,1.7-4.1
		c0.5,0,0.9-0.3,1.3-0.6c0.9-0.9,2-1.7,2.7-2.7c2-2.9,5-3.6,8.2-3.9c3.1-0.3,6.1,0.1,9.2,0c4.4-0.1,8.8,0,13.2-0.1
		c7.9-0.2,15.8,0,23.7,0c0.9,0,1.8,0.2,2.7,0.3c2.2,0.3,4.2,1.2,5.6,3.1C146,5.8,147.4,7.3,149.2,8.3z"></path>
</g>
<g onclick="select(this)" class="" id="detalhe-punho" fill="#ffffff">
	<path d="M0.2,114.4c0.6-1.2,0.4-2.7,0.9-3.9c2,0.6,4,1.2,6,1.7c6.3,1.6,12.7,2.1,19.2,2.1c3.7,0,7.5,0.3,11.2-0.4
		c1.1-0.2,2.1-0.4,3.2-0.6c1.5-0.3,1.7-0.2,1.9,1.3c0.2,1.9,0.3,3.8,0.5,5.7c-0.9,0.7-2,1-3.1,1.2c-2.5,0.5-5,0.8-7.6,0.8
		c-7,0.1-14,0-20.9-1.2c-3-0.6-6-1.1-8.9-2.1c-0.8-0.3-1.6-0.6-2.4-1C0.2,116.8,0.2,115.6,0.2,114.4z"></path>
	<path d="M184.6,120.1c-0.3-2.2,0.6-4.2,0.7-6.4c0-0.8,0.7-0.6,1.1-0.5c3,0.7,6,0.5,9.1,0.7c5,0.3,9.9-0.3,14.8-1
		c5.7-0.8,11.3-1.9,16.5-4.2c0.4-0.2,0.8-0.3,1.2-0.2c1.1,2.3,1.2,4.8,1.1,7.4c0,0.7-0.8,0.8-1.3,1c-2.9,1.1-5.8,1.9-8.8,2.6
		c-8.7,2.3-17.6,2.8-26.6,2.3c-2.1-0.1-4.1-0.3-6.1-0.9C185.5,120.7,185,120.6,184.6,120.1z"></path>
</g>
<g onclick="select(this)" class="" id="estampa-secundaria" fill="#ffffff">
	<path d="M187.3,277.2c-0.4,0.3-0.9,0.1-1.3,0.1c-6.2,0-12.4-0.1-18.6-0.1c-6.9-0.1-13.9-0.1-20.9-0.2
		c-7.5-0.1-15-0.1-22.5-0.2c-0.4,0-0.9,0.2-1.1-0.4c0.3-0.3,0.6-0.2,0.9-0.2c6.7-0.1,13.3-0.1,20-0.2c7.3-0.1,14.6-0.2,21.9-0.3
		c4.7-0.1,9.4-0.1,14-0.2c2.1-0.1,4.1-0.1,6.2-0.1c0.4,0,0.8-0.1,1.1,0.2C187.2,276.1,187.4,276.6,187.3,277.2z"></path>
	<path d="M42.6,220.1c5.3,0.1,10.6,0.3,15.9,0.4c3.2,0.1,6.5,0.1,9.7,0.1c0.5,0,1.1-0.1,1.8,0.5c-1.8,0-3.3,0-4.8,0
		c-7,0.1-14,0.2-20.9,0.3c-0.5,0-1-0.1-1.4-0.1C42.7,221,42.7,220.6,42.6,220.1z"></path>
	<path d="M182.5,186.4c-5.5-0.1-11-0.2-16.5-0.3c5.5-0.8,11.1-0.7,16.6-1C182.6,185.5,182.7,185.9,182.5,186.4z"></path>
	<path d="M182.5,150.6c-3.9,0-7.9-0.1-11.8-0.1c-0.4,0-0.8-0.2-1.1-0.6c4.3-0.1,8.6-0.3,12.9-0.4
		C182.7,149.9,182.6,150.2,182.5,150.6z"></path>
	<path d="M44.7,131.5c2.4,0.1,4.8,0.1,7.1,0.2c0.7,0,1.4,0,2.1,0.1c0.3,0,0.8-0.2,0.7,0.3c0,0.4-0.5,0.3-0.8,0.3
		c-1.1,0.1-2.2,0.1-3.3,0.1c-1.9,0-3.9,0.2-5.8,0C44.7,132.1,44.7,131.8,44.7,131.5z"></path>
	<path d="M188.4,95.1c-0.1,0.8-0.3,1.5-0.6,2.2c-2.4,0-4.9-0.1-7.3-0.1c-5.4-0.1-10.7-0.1-16.1-0.1
		c-6-0.1-12.1-0.1-18.1-0.2c-8.9-0.2-17.7-0.2-26.6-0.3c-1.9,0-3.9-0.4-6-0.3c1.7,0.5,3.1-0.3,4.6-0.3c6,0,12.1,0,18.1-0.1
		c7.1-0.1,14.2-0.2,21.3-0.3c6.9-0.1,13.9-0.2,20.9-0.3C181.9,95.2,185.1,95.2,188.4,95.1z"></path>
	<path d="M52.5,34.7c1.8-0.6,3.6-1.1,5.3-1.7c2.7,0.1,5.3,0.1,8,0.2c8.7,0.1,17.4,0.2,26.1,0.3c2,0,4.1,0.2,6.1,0
		c0.7,0.1,1.3,0.3,1.9,0.7c-6.4,0.1-12.8,0-19.1,0.2c-3.2,0.1-6.3,0-9.4,0.1c-5.3,0.1-10.5,0.1-15.8,0.1
		C54.5,34.6,53.5,34.9,52.5,34.7z"></path>
	<path d="M195.8,48c0,0.7,0,1.5-0.3,2.2c-4.1-0.1-8.3-0.3-12.4-0.3c-6.2-0.1-12.4-0.3-18.6-0.3c-0.8,0-1.6-0.5-2.5-0.2
		c0.8,0.4,1.4-0.3,2.2-0.3c4.6-0.1,9.3-0.2,13.9-0.3C184,48.5,189.9,48.3,195.8,48z"></path>
</g>
<g onclick="select(this)" class="" id="estampa-terciaria" fill="#bf0811">
	<path d="M42.5,244.1c11.9,0.1,23.7,0.1,35.6,0.4c3.8,0.1,7.5,0.1,11.3,0.2c4,0.1,8.1-0.1,12.1,0.2
		c5.7,0.4,11.4,0,17.2,0.3c-0.5,0.3-1,0.3-1.5,0.3c-8,0-16,0.1-24,0.1c-8.3,0.1-16.5,0.1-24.8,0.2c-6.7,0.1-13.3,0.1-20,0.2
		c-2,0-4.1,0.2-6.1,0.1C42.2,245.4,42.2,244.7,42.5,244.1z"></path>
	<path d="M182.6,163.1c-6-0.2-12.1,0-18.1-0.3c-2.7-0.1-5.4-0.1-8-0.1c-4.4,0-8.8,0-13.2-0.1
		c-5.4-0.2-10.9-0.1-16.3-0.2c-0.7,0-1.3-0.2-1.9-0.3c7.3-0.3,14.6-0.2,21.8-0.4c4.9-0.1,9.8-0.1,14.6-0.2
		c5.3-0.1,10.6-0.1,15.8-0.3c1.8-0.1,3.6-0.2,5.4-0.1C182.8,161.8,182.7,162.5,182.6,163.1z"></path>
	<path d="M45.6,193.2c9.8,0.1,19.6,0.1,29.4,0.4c8,0.2,16,0.3,24,0.4c0.8,0,1.7,0,2.4,0.7c-9.5,0-18.9-0.1-28.4,0
		c-5.2,0.1-10.4,0-15.6,0.2c-4,0.1-8,0.1-12,0.2C45.3,194.4,45.3,193.8,45.6,193.2z"></path>
	<path d="M185.4,231.1c-9.2-0.1-18.4-0.2-27.7-0.4c-3.2-0.1-6.5-0.1-9.7-0.1c-0.4,0-0.9,0.1-1.3-0.1
		c0.1-0.5,0.5-0.3,0.7-0.3c4.6-0.1,9.2-0.2,13.8-0.3c6.9-0.1,13.8-0.3,20.7-0.5c1.1,0,2.1-0.2,3.2-0.1
		C185.4,229.9,185.5,230.5,185.4,231.1z"></path>
	<path d="M185.6,255.1c-6.8-0.2-13.5-0.3-20.3-0.5c0.7-0.6,1.5-0.4,2.2-0.4c5.6-0.1,11.3-0.4,16.9-0.7
		c0.4,0,0.8,0,1.2,0.1C185.8,254.1,185.8,254.6,185.6,255.1z"></path>
	<path d="M45.4,152.2c3.3,0.1,6.5,0.2,9.8,0.4c0,0.1,0,0.3,0,0.4c-3.3,0.1-6.5,0.2-9.8,0.3
		C45.2,152.9,45.2,152.6,45.4,152.2z"></path>
	<path d="M42.5,110.9c-0.4-0.7-0.5-1.4-0.3-2.2c2,0,3.9,0.1,5.9,0.1c6.1,0.1,12.1,0.1,18.2,0.2
		c8.1,0.2,16.2,0.1,24.2,0.3c7.2,0.2,14.5,0.1,21.7,0.2c0.4,0,0.9-0.2,1.3,0.3c-0.3,0.4-0.8,0.2-1.1,0.3c-4.4,0-8.9,0.1-13.3,0.1
		c-8.8,0.1-17.7,0.1-26.5,0.2c-9.3,0.2-18.7,0.2-28,0.3C43.8,110.7,43.1,110.8,42.5,110.9z"></path>
	<path d="M194.7,68.2c0.4,0.9,0.3,1.7,0,2.6c-2.8-0.4-5.7-0.2-8.5-0.3c-5.5-0.2-11-0.1-16.5-0.3
		c-8.5-0.2-17.1-0.4-25.6-0.4c-0.1,0-0.2,0-0.4-0.1c1.1-0.3,2.1-0.4,3.1-0.4c4.2,0,8.4,0,12.6-0.2c4.7-0.2,9.3-0.2,14-0.3
		c6.7-0.2,13.4-0.3,20.1-0.5C193.8,68.4,194.3,68.3,194.7,68.2z"></path>
	<path d="M32.6,61.2c0-0.8,0-1.6,0.1-2.4c10.3,0.9,20.7,0.6,31,1.6C53.3,60.7,42.9,61,32.6,61.2z"></path>
</g>
</svg>
