<!--?xml version="1.0" encoding="utf-8"?-->
<!-- Generator: Adobe Illustrator 24.2.3, SVG Export Plug-In . SVG Version: 6.00 Build 0)  -->
<svg version="1.1" id="Camada_1" xmlns="http://www.w3.org/2000/svg" xmlns:xlink="http://www.w3.org/1999/xlink" x="0px" y="0px" viewBox="0 0 229 418" enable-background="new 0 0 229 418" xml:space="preserve">
<g onclick="select(this)" class="" id="estampa-primaria" fill="#ffffff">
	<path d="M43.184227,120.3591003c-0.1574593-1.9019699-0.2635918-3.8100281-0.4886246-5.7039795
		c-0.1797981-1.5132675-0.3913536-1.6106033-1.9219894-1.3255692c-1.0546684,0.1964035-2.1054993,0.4133453-3.1596031,0.6128845
		c-3.7236557,0.7048569-7.4897099,0.4062195-11.2349834,0.3948441c-6.4752865-0.0196609-12.9171953-0.5751572-19.2143612-2.1471405
		c-2.0026436-0.499939-4.0013113-1.0857773-5.9778385-1.7141418c1.020895-4.8060684,1.6644146-9.6716461,2.3388951-14.5333023
		c0.872649-6.2900543,1.9116194-12.5599365,2.6439087-18.8657761c0.7765994-6.6873932,1.853642-13.2944374,3.974463-19.697525
		c2.9442616-8.8891754,7.7607107-16.5268593,15.1724825-22.392849c1.1417255-0.9036102,1.9524097-2.1724854,3.2811241-2.8633461
		c3.6190052-1.8817024,7.2620258-3.7168369,11.0347271-5.271349c9.9860153-4.1146584,19.9939613-8.1792221,29.4552879-13.4397125
		c1.9744034-1.0977669,3.9967499-2.0936747,5.5144348-3.8991308c0.8429108-1.0027447,2.0579147-1.6459785,3.4937134-1.5504146
		c-1.6598358,0.9146581-2.0019836,2.3754401-1.6840515,4.0964561c0.3956909,2.1419916,1.0861511,4.1798086,2.3278809,5.9871454
		c5.9329224,8.6352997,14.296669,13.8952675,24.0654449,17.1269894c2.041748,0.6754532,4.1874008,1.1419945,6.5661926,0.9732132
		c-0.818985-1.2918892-1.7138596-2.3421478-2.6657181-3.3343887c-4.3846359-4.5706615-9.3081741-8.5244236-14.2901917-12.4103851
		c-2.5010681-1.9508305-4.6982346-4.208477-6.6866608-6.6749144c-0.9601822-1.1910152-1.7149582-2.4964218-2.3023758-3.9077702
		c-0.2885437-0.6932478-0.2463684-1.0194101,0.6452408-0.9307556c3.5362701,0.351614,7.0733414,0.7046528,10.6162415,0.9779987
		c7.921875,0.6111984,15.8302765,1.4430838,23.8044815,0.9912195c6.261795-0.3548279,12.5223312-0.704565,18.7725449-1.2287455
		c2.2623138-0.1897326,4.5277405-0.3423519,6.9600983-0.5245132c-0.3562012,0.7652731-0.6235199,1.4240294-0.9593048,2.0458479
		c-1.2259827,2.2702398-2.8836212,4.2098074-4.6701813,6.0531158c-2.8812408,2.9727859-6.3737335,5.2001953-9.5260773,7.842041
		c-3.523674,2.9530506-7.0875015,5.8638573-9.9547958,9.5003853c-0.3962326,0.5025253-0.8958893,0.9767723-0.9921494,1.7654648
		c1.0281219-0.1467667,1.9737854-0.0354576,2.9256516-0.2119141c5.0719757-0.9402618,9.6617355-3.0744553,14.078331-5.6319599
		c3.2989349-1.9103127,6.3558502-4.1792526,9.1010895-6.8097744c3.0965118-2.9671154,5.4707642-6.4256573,6.640976-10.6468983
		c0.6189423-2.2326078,0.0174561-4.2712574-1.6764832-4.7439165c1.9420471-0.3230171,3.1181183,0.8975677,4.2487946,2.1523972
		c0.3474121,0.3855724,0.6845703,0.7272234,1.1278381,1.02145c8.8714447,5.888566,18.7893372,9.6126204,28.526062,13.6821756
		c5.067276,2.1179237,10.0380096,4.4439087,15.0908356,6.5872955c0.2853851,0.121069,0.5596008,0.2832184,0.8128815,0.4630032
		c12.0054626,8.5214882,19.2169037,20.1563911,21.3936157,34.5978508
		c1.7050781,11.3124924,4.6848145,22.3671265,6.2290497,33.6951218c0.3612823,2.6502228,0.8081512,5.2887878,1.2156677,7.9327545
		c-0.4072723-0.0320892-0.7870331,0.0516357-1.1609039,0.2217789c-5.2508698,2.3895721-10.8408508,3.4043884-16.5039825,4.2465134
		c-4.9055786,0.7294693-9.8006744,1.3550644-14.7624969,1.0241394c-3.0189819-0.2013397-6.0679779-0.007515-9.0567627-0.6636734
		c-0.4004364-0.0879288-1.0440521-0.3493347-1.0703583,0.4709015c-0.0688629,2.1481247-0.9662018,4.2106934-0.6513672,6.3962173
		c-0.4419403,0.8073044-0.2948303,1.7095184-0.3963318,2.5679779c-0.9907074,8.3786392-1.7198181,16.7760849-1.745636,25.2220383
		c-0.0067291,2.2005463,0.0687408,4.3852692,0.5246124,6.5559692c0.4008789,1.9087372-0.0432281,3.8250885-0.2062225,5.7295837
		c-0.1811066,2.1162109-0.2468414,4.2292175-0.1479797,6.3477325c0.1008911,2.1623993-0.1498413,4.3116608-0.2017212,6.4661102
		c-0.0682373,2.8337555-0.1215973,5.6735077,0.1285095,8.5087433c0.1475983,1.6730652,0.0784607,3.3501434-0.098175,5.02742
		c-0.3134613,2.9759674,0.161026,5.8720398,0.824295,8.7793121c1.6766205,7.3491974,1.4777679,14.7560425,0.394516,22.1660767
		c-0.3131714,2.142395-0.3707123,4.2083435,0.3324127,6.3562622c1.789505,5.466568,1.8004761,11.0871277,0.9232635,16.7248077
		c-0.2115173,1.3592529-0.2436066,2.6841888,0.0700836,4.0361938c0.886261,3.8198547,0.4920807,7.7170715,0.6769562,11.5814056
		c0.2862549,5.9835815,0.6884613,11.9625854,1.4403229,17.9147034c0.2537231,2.008667,0.2185516,4.0574036,0.2538147,6.0889282
		c0.0314789,1.8131409-0.3387299,2.3127136-2.0966034,2.8403625c-2.9675903,0.8908081-6.046051,1.1467896-9.1074371,1.463501
		c-7.7273102,0.7994385-15.4857635,0.8745728-23.2448273,1.0192871
		c-11.2361755,0.2095642-22.4684143,0.6523743-33.7049484,0.8126526c-12.4795532,0.178009-24.9379959-0.848877-37.4192505-0.848999
		c-8.3984146-0.0000916-16.799118-0.1004944-25.1803284-0.7364502c-4.1492767-0.3148499-8.2854118-0.7527771-12.3534241-1.6774292
		c-0.2727928-0.0620117-0.5451469-0.1272583-0.8147545-0.2017212c-3.0011635-0.8287048-3.3434029-1.173645-3.1586952-4.2307129
		c0.4741859-7.848175,1.0208855-15.6920776,1.5688667-23.535553c0.1421928-2.0353699,0.2741928-4.0685883,0.2251472-6.1084442
		c-0.0433769-1.8041687,0.0425301-3.5978241,0.3647537-5.3743591c0.4024925-2.2190704,0.4543953-4.4303284,0.1269684-6.6729889
		c-0.3675308-2.5173645-0.1233711-5.0311584,0.42342-7.5046387c0.237915-1.0762024,0.1960411-2.1278687,0.1169281-3.2104492
		c-0.3260307-4.4614716-1.0035973-8.9028625-0.8237762-13.394516c0.1759071-4.393631,1.2030106-8.6131439,2.7054672-12.72258
		c0.3647614-0.9976807,0.5816841-1.9600372,0.4271965-3.0288544c-0.1776123-1.2288208-0.1682091-2.4718018,0.0631027-3.7023163
		c0.3129845-1.6650085,0.2037849-3.326767,0.1185341-5.0112915c-0.1672783-3.3053589-0.1792717-6.6202087-0.1929398-9.9314117
		c-0.0532684-12.9004364-0.0429573-25.8012695-0.1390572-38.7013397c-0.0387688-5.2046204-0.991291-10.3377228-1.5477562-15.5010147
		C43.6215096,122.9213791,43.7198563,121.5897675,43.184227,120.3591003z"></path>
</g>
<g onclick="select(this)" class="" id="gola-primaria" fill="#ffffff">
	<path d="M149.1920471,8.2665339c1.6939392,0.4726591,2.2954254,2.5113087,1.6764832,4.7439165
		c-1.1702118,4.221241-3.5444641,7.6797829-6.640976,10.6468983c-2.7452393,2.6305218-5.8021545,4.8994617-9.1010895,6.8097744
		c-4.4165955,2.5575047-9.0063553,4.6916981-14.078331,5.6319599c-0.9518661,0.1764565-1.8975296,0.0651474-2.9256516,0.2119141
		c0.0962601-0.7886925,0.5959167-1.2629395,0.9921494-1.7654648c2.8672943-3.636528,6.4311218-6.5473347,9.9547958-9.5003853
		c3.1523438-2.6418457,6.6448364-4.8692551,9.5260773-7.842041c1.7865601-1.8433084,3.4441986-3.782876,4.6701813-6.0531158
		c0.3357849-0.6218185,0.6031036-1.2805748,0.9593048-2.0458479c-2.4323578,0.1821613-4.6977844,0.3347807-6.9600983,0.5245132
		c-6.2502136,0.5241804-12.5107498,0.8739176-18.7725449,1.2287455c-7.974205,0.4518642-15.8826065-0.3800211-23.8044815-0.9912195
		c-3.5429001-0.2733459-7.0799713-0.6263847-10.6162415-0.9779987c-0.8916092-0.0886545-0.9337845,0.2375078-0.6452408,0.9307556
		c0.5874176,1.4113483,1.3421936,2.7167549,2.3023758,3.9077702c1.9884262,2.4664373,4.1855927,4.7240839,6.6866608,6.6749144
		c4.9820175,3.8859615,9.9055557,7.8397236,14.2901917,12.4103851c0.9518585,0.9922409,1.8467331,2.0424995,2.6657181,3.3343887
		c-2.3787918,0.1687813-4.5244446-0.29776-6.5661926-0.9732132c-9.7687759-3.2317219-18.1325226-8.4916897-24.0654449-17.1269894
		c-1.2417297-1.8073368-1.9321899-3.8451538-2.3278809-5.9871454c-0.3179321-1.7210159,0.0242157-3.181798,1.6840515-4.0964561
		c0.5143661-0.0252366,0.9027328-0.3090868,1.2522583-0.6413717c0.9263687-0.8806643,2.0001678-1.6612997,2.7273788-2.6858664
		c2.0422745-2.8773975,5.0196915-3.6030319,8.2393723-3.9380414c3.0733871-0.3197877,6.1406097,0.0641102,9.2117691,0.0276584
		c4.3972549-0.0521912,8.7969818,0.0443268,13.1928406-0.0513675c7.9100418-0.1721947,15.8178406,0.0474255,23.7266388,0.0363705
		c0.912384-0.0012754,1.8285217,0.1743852,2.7368927,0.3086998c2.2479095,0.3323816,4.1504211,1.1903371,5.5703125,3.1194048
		C145.9542999,5.7696943,147.367691,7.2616229,149.1920471,8.2665339z"></path>
</g>
<g onclick="select(this)" class="" id="detalhe-punho" fill="#005425">
	<path d="M0.24,114.41436c0.6107783-1.2420959,0.4154505-2.6777496,0.9468267-3.9383621
		c1.976527,0.6283646,3.9751949,1.2142029,5.9778385,1.7141418c6.2971659,1.5719833,12.7390747,2.1274796,19.2143612,2.1471405
		c3.7452736,0.0113754,7.5113277,0.3100128,11.2349834-0.3948441c1.0541039-0.1995392,2.1049347-0.416481,3.1596031-0.6128845
		c1.5306358-0.2850342,1.7421913-0.1876984,1.9219894,1.3255692c0.2250328,1.8939514,0.3311653,3.8020096,0.4886246,5.7039795
		c-0.9007339,0.7405167-2.0174828,0.9574585-3.1024132,1.1645813c-2.5106468,0.4793091-5.038868,0.7957077-7.609993,0.8197708
		c-6.994585,0.0654373-13.9775391,0.038559-20.892168-1.2381592c-3.0178013-0.5572052-6.0275316-1.1423187-8.9426279-2.1199341
		c-0.8160248-0.273674-1.598931-0.6459885-2.3970258-0.9730606C0.24,116.8129883,0.24,115.613678,0.24,114.41436z"></path>
	<path d="M184.6309204,120.0944595c-0.3148346-2.185524,0.5825043-4.2480927,0.6513672-6.3962173
		c0.0263062-0.8202362,0.6699219-0.5588303,1.0703583-0.4709015c2.9887848,0.6561584,6.0377808,0.4623337,9.0567627,0.6636734
		c4.9618225,0.330925,9.8569183-0.2946701,14.7624969-1.0241394c5.6631317-0.8421249,11.2531128-1.8569412,16.5039825-4.2465134
		c0.3738708-0.1701431,0.7536316-0.2538681,1.1609039-0.2217789c1.1353607,2.336441,1.1766968,4.8449707,1.0996246,7.3563385
		c-0.0221863,0.7228928-0.7844391,0.8354187-1.3140411,1.0370178c-2.8729095,1.0936127-5.8452148,1.8682861-8.8147736,2.6399994
		c-8.731369,2.2690582-17.6292267,2.7698975-26.595108,2.3430557c-2.0615845-0.0981522-4.1379395-0.3113708-6.1459808-0.8887787
		C185.5256805,120.7307129,184.9997711,120.5572357,184.6309204,120.0944595z"></path>
</g>
<g onclick="select(this)" class="" id="estampa-secundaria" fill="#005425">
	<path d="M42.731369,115.3902359c-0.0987129-1.2293472-0.218029-2.4572754-0.4434242-3.6756134
		c-0.3732681-2.0176697-0.4633331-4.0860519-0.7805748-6.116066c-0.4812317-3.0793839-0.8572426-6.1779633-1.559597-9.2203369
		c-0.2439041-1.0565033-0.1809349-1.1419525,0.9393997-1.1453476c1.8798599-0.0056992,3.7597504-0.0015793,5.6396255-0.0015793
		c46.7568855,0,93.5137787-0.0000153,140.2706757,0.0000153c1.7407227,0,1.7502289,0.0024185,1.3566589,1.6445465
		c-0.9865265,4.1161652-1.7747192,8.2693024-2.4341278,12.4504318c-0.3178864,2.0156326-0.5784454,3.9456863-0.6986237,5.9837494
		c-0.0059814,0.1013031-0.3474884,0.0682678-0.8992767,0.0715942c-0.206955-0.0194321-0.5143127-0.0100937-0.9728241-0.0101089
		c-46.2769165-0.0016022-92.5538483-0.0012894-138.83078-0.0012894c-0.3952179,0-0.7904396,0-1.2774849,0
		C42.9821167,115.3740692,42.812706,115.3825378,42.731369,115.3902359z"></path>
	<path d="M194.8647156,72.1708527c-0.1248932,3.9457321-0.9388733,7.7656708-2.2367401,11.5244217
		c-1.0104828,2.9263916-2.5805969,5.6330719-3.2866669,8.7920227c-0.2936554-0.1921768-0.4763489-0.4530258-0.8056641-0.3998871
		c-0.3117828,0.0503159-0.6381683,0.0100174-0.9581299,0.0100174c-48.8751678-0.0000381-97.7503128-0.0000381-146.6254578-0.0000305
		c-0.239975,0-0.4825325,0.0226669-0.7194252-0.0043106c-0.663887,0.041748-1.0551224,0.0342484-1.2887878,0.0277023
		c-0.4203911-1.3501434-0.804142-2.7161942-1.3644638-4.0056c-1.2491684-2.874588-2.0380211-5.9190369-3.4595184-8.737236
		c-1.0163727-2.0149994-1.5470085-4.2395859-1.484684-6.5541382c0.005661-0.2102737,0.0114136-0.4207077,0.016655-0.6312256
		c0.2757034,0.0111237,0.3688812,0.015358,0.7777596,0.018692c0.3196831,0.0026016,0.6398087,0.0014725,0.9597549,0.0014725
		C87.3041,72.2129288,140.2188416,72.2129211,193.133606,72.2129211c0.1199799,0,0.239975,0.0007706,0.3599548-0.0001297
		c0.3436127-0.0025864,0.5809784-0.0283203,0.752533-0.0384903
		C194.6310577,72.1514816,194.6931763,72.1599503,194.8647156,72.1708527z"></path>
</g>
</svg>
