<!--?xml version="1.0" encoding="utf-8"?-->
<!-- Generator: Adobe Illustrator 24.2.3, SVG Export Plug-In . SVG Version: 6.00 Build 0)  -->
<svg version="1.1" id="Camada_1" xmlns="http://www.w3.org/2000/svg" xmlns:xlink="http://www.w3.org/1999/xlink" x="0px" y="0px" viewBox="0 0 229 418" enable-background="new 0 0 229 418" xml:space="preserve">
<g onclick="select(this)" class="" id="estampa-primaria" fill="#000000">
	<path d="M43.1577797,120.4319763c-0.1331444-2.2575073-0.2330475-4.5158005-0.6140976-6.7538605
		c-0.1032143-0.6061935-0.2480927-0.7635117-0.8195343-0.5151901c-2.5753326,1.119133-5.3683243,1.2036667-8.0832443,1.458252
		c-2.4830379,0.2328491-5.0145454-0.0454788-7.5244999-0.1064301c-4.3427734-0.1054459-8.6874218-0.2220306-12.9771452-0.9888382
		c-3.4181538-0.6110153-6.766901-1.4842224-9.9895649-2.8108902c-0.6405647-0.2637024-1.1955985-0.6281204-1.7463299-1.0219345
		c1.7879728-9.4235535,2.6640635-18.9825058,4.2230082-28.4415283C6.4767475,76.091835,6.7928009,70.8532791,7.9045849,65.725502
		c1.7700176-8.1636887,4.5197229-15.8993645,9.5808334-22.6658669c2.0926247-2.7977562,4.4556618-5.3477936,7.1953869-7.5122299
		c1.3634644-1.0771637,2.3610077-2.5717964,3.9242687-3.3982277c3.6051579-1.9058933,7.254427-3.7267208,11.025732-5.281601
		c9.9814262-4.1152573,19.9857483-8.1783485,29.4420929-13.4409914c1.9731445-1.0980968,4.0107269-2.0738554,5.5131912-3.8971462
		c0.8112564-0.9844913,1.9984894-1.5786386,3.3706741-1.5650768c-1.9771576,1.0425472-1.8793793,2.8619375-1.5227661,4.5982809
		c0.6309128,3.0719166,2.1655045,5.7339325,4.1546249,8.1455193c0.4057236,0.4919052,0.723259,0.6197052,1.2625885,0.1770668
		c1.7297974-1.419693,3.4736786-2.823595,5.2473907-4.1877403c0.7435913-0.5718918,0.36306-0.9903536-0.0605392-1.4501514
		c-1.4163742-1.5373764-2.6791687-3.1793976-3.4846725-5.1298161c-0.5081329-1.2303572-0.3975296-1.317688,0.9412537-1.1946383
		c5.3301926,0.4899063,10.6587753,1.0123425,15.9972229,1.3928032c4.8539963,0.3459349,9.7080841,0.9332047,14.5817413,0.7113132
		c6.0604172-0.2759237,12.1149292-0.6910152,18.1692657-1.0873117c3.6225281-0.2371168,7.2398529-0.553256,11.0444489-0.8482122
		c-0.8295288,2.2499552-2.0206604,4.1257906-3.5267029,5.7606192c-0.8570404,0.9303417-0.7557831,1.3719425,0.2361145,2.0526142
		c1.5791626,1.0836601,3.0792694,2.2883301,4.5635376,3.5020809c0.7381134,0.6035995,1.1972656,0.7650604,1.8544006-0.1728249
		c1.9233093-2.7450294,3.5836945-5.5637484,3.7983398-9.025279c0.0914459-1.4749069-0.5164948-2.4436598-1.8510895-3.0015402
		c1.805069-0.1290302,2.9675446,0.9602423,4.0461426,2.170207c0.3426666,0.3844185,0.6612396,0.7431192,1.1118469,1.0379772
		c10.0123901,6.551692,21.2060242,10.6058836,32.1462097,15.183404c3.9640808,1.6586246,7.7821655,3.6280708,11.7518158,5.2684746
		c1.1912231,0.4922543,1.9363098,1.6271305,2.9542084,2.3864155c3.5424194,2.6424065,6.7263947,5.6513519,9.3942413,9.1925812
		c4.8312988,6.412899,7.5744629,13.7281952,9.3175507,21.4774704c0.6493683,2.8869781,1.1865082,5.7985992,1.4688416,8.7432404
		c0.5558167,5.797142,2.2962189,11.3504105,3.422226,17.02948c1.0884094,5.4892731,1.701889,11.0551376,2.752655,16.5493011
		c0.0593719,0.3103943,0.0376434,0.6363068,0.0537109,0.9550934c-3.2987213,1.3235931-6.6597748,2.4349976-10.1315613,3.2337265
		c-3.0367279,0.6986465-6.1237183,1.0777283-9.1846924,1.6170425c-3.0667725,0.540329-6.1685028,0.7683411-9.2889404,0.7493134
		c-4.2289276-0.0257874-8.4828186,0.2864685-12.6547546-0.5902405c-1.20401-0.2530289-1.4316864,0.1222992-1.6246643,1.1130066
		c-0.3781281,1.9411774-0.3158417,3.8887177-0.2612,5.8419342c-0.5772858,2.0070114-0.5196991,4.0956879-0.7766418,6.1436005
		c-0.8968658,7.1481628-1.2922211,14.3308716-1.3661346,21.5326996c-0.0230255,2.241272,0.053009,4.4675293,0.5191193,6.6785278
		c0.4026031,1.9098053-0.0408325,3.8264618-0.2037506,5.7315216c-0.1810303,2.1169586-0.2709503,4.2322845-0.1436157,6.3496399
		c0.1518555,2.5260468-0.2313538,5.0304565-0.2312164,7.5479889c0.0001373,2.5981293-0.0803833,5.1981659,0.181427,7.7913666
		c0.2425995,2.4028473-0.2098846,4.7868652-0.2297363,7.1856842c-0.0187836,2.2715912,0.5240326,4.4370728,1.0009155,6.6177368
		c1.5867004,7.2556152,1.3607025,14.5335388,0.3235474,21.824173c-0.3049164,2.1434021-0.3761597,4.2101135,0.3256531,6.3586731
		c1.7730713,5.4281464,1.8151703,11.0104218,0.9422455,16.6113586c-0.2309113,1.4814911-0.2516632,2.9259796,0.0901947,4.3939362
		c0.8995667,3.862915,0.4402161,7.8049011,0.6498108,11.7084808c0.3148804,5.8646545,0.692749,11.7265015,1.4283295,17.5618286
		c0.2582855,2.0488892,0.2250519,4.1386719,0.2561798,6.2108154c0.0260468,1.7346802-0.3510437,2.2309265-2.0608063,2.7463684
		c-3.0047913,0.9057922-6.1231079,1.1577759-9.223526,1.4821472c-8.3242798,0.8709412-16.6839905,0.8759155-25.0397491,1.0395508
		c-11.5935516,0.2269592-23.1844864,0.7744751-34.7773209,0.7973022c-11.5119324,0.0226746-23.0146637-0.800293-34.5328903-0.855072
		c-8.3569794-0.0397644-16.7155609-0.1084595-25.0554161-0.7390137c-4.2688141-0.3227844-8.5254021-0.7648926-12.7032623-1.7471924
		c-3.5191689-0.8274536-3.8727531-1.1688538-3.6649704-4.7828064c0.4422684-7.692627,0.9992447-15.3787842,1.5412292-23.0653381
		c0.1435623-2.0360107,0.2814865-4.0697174,0.2325592-6.1102753c-0.0442352-1.8449707,0.0390892-3.6795807,0.3708687-5.4958344
		c0.4056892-2.2208862,0.4405899-4.4328766,0.1157837-6.6756897c-0.3647766-2.5188141-0.1090546-5.0327759,0.4354477-7.5070496
		c0.2281456-1.0367126,0.1938744-2.0496063,0.1175346-3.0926819c-0.332428-4.5425568-1.0252762-9.0645905-0.8247719-13.6387939
		c0.189064-4.3131561,1.2074547-8.4562988,2.6664658-12.4943695c0.3753433-1.0388489,0.6211166-2.0308075,0.4566879-3.1429596
		c-0.1816826-1.2288818-0.1624031-2.4731903,0.0706406-3.7033234c0.3156853-1.6663513,0.1932678-3.328949,0.1094208-5.0132446
		c-0.1646271-3.3068085-0.1753082-6.6228333-0.1888924-9.935318c-0.0529137-12.9051971-0.041748-25.8108063-0.1397247-38.7156219
		c-0.0395241-5.2062378-0.9890976-10.3417664-1.5522079-15.5062332
		C43.6154823,122.9787064,43.7590141,121.6430893,43.1577797,120.4319763z"></path>
</g>
<g onclick="select(this)" class="" id="estampa-secundaria" fill="#082890">
	<path d="M100.3213425,286.0009766c-1.0717468,0.1574402-2.1495819,0.0741272-3.2174683,0.0085754
		c-2.4683151-0.1513977-4.9379272-0.1474609-7.4080124-0.1790771c-5.2194138-0.0667725-10.438652-0.1472168-15.6578903-0.2265015
		c-0.1957397-0.0029602-0.3907471-0.0531921-0.5860901-0.0813904c0.0076981-0.4795227,0.0221176-0.9590454,0.0221329-1.4385681
		c0.0010529-39.3520508,0.0009766-78.7040863,0.000824-118.0561218c0-0.2799225-0.0102768-0.5601196-0.0014038-0.8397064
		c0.0128708-0.4055176-0.1802673-0.5825806-0.5789185-0.572403c-0.319664,0.0081482-0.6397781-0.0025482-0.9596939-0.0025482
		c-7.8384171-0.0002747-15.6768265-0.0001068-23.5152359-0.0005188c-0.3198662-0.0000153-0.639946,0.0019989-0.9595299-0.0087585
		c-0.3813362-0.0128021-0.4905739-0.2213745-0.3561096-0.558609c0.0885086-0.2220001,0.2081375-0.4315033,0.3124046-0.6473083
		c1.4942284-3.0924683,3.0456123-6.1566315,4.5440788-9.2474365c3.5545998-7.3318939,7.2725296-14.5834198,10.8330383-21.9133606
		c3.1941719-6.5757751,6.5016441-13.096489,9.7553596-19.6433563c0.2559662-0.5150223,0.5854874-1.0130997,0.569519-1.7069473
		c-8.8184509,0-17.5717278,0-26.3250046,0c0.0052719-0.3999634,0.0151443-0.7999115,0.0151596-1.1998749
		c0.0007629-24.0778503,0.0005531-48.1557007,0.0012054-72.233551c0.0000305-1.1842117,0.0032692-1.1839485,1.1645699-1.4933548
		c3.5441818-0.9442749,7.0517311-2.0218124,10.515686-3.2149773c4.7577591-1.6388168,9.371273-3.6398926,13.8090858-6.0281982
		c1.3472137-0.7250309,1.350769-0.7195072,1.3507767,0.8761501c0.0001144,27.1975727,0.0000839,54.3951492,0.0000763,81.59272
		c0,0.2399826,0.0249481,0.4831085-0.0047836,0.7193451c-0.0889893,0.707222,0.1462784,1.0409393,0.9177399,0.9749832
		c0.6749878-0.0577087,1.3588486-0.0118713,2.0387802-0.0118713c7.3593521,0.0000076,14.718689-0.0010452,22.0780334,0.0009079
		c1.3988266,0.0003662,1.3947144,0.0038223,0.7640076,1.3007584c-0.8729019,1.7950058-1.7286377,3.5984268-2.6096115,5.3894348
		c-3.9141617,7.9574585-7.9449844,15.8569107-11.8045578,23.8417587
		c-3.5115128,7.2647552-7.2621078,14.4120331-10.715538,21.7059021c-0.6341782,1.339447-0.6409912,1.3402405,0.8468628,1.3404694
		c7.9592896,0.0013123,15.918663-0.0157318,23.8777618,0.0226746c0.9275665,0.0045013,1.4144516-0.2454071,1.8300095-1.110199
		c2.7507553-5.7243958,5.6731491-11.3642731,8.4238815-17.0900574c2.7675781-5.760849,5.6374817-11.4726563,8.4762344-17.199173
		c2.8038788-5.6561279,5.6274185-11.3025208,8.4322128-16.9581985c0.1715927-0.345993,0.4496536-0.6645203,0.4202652-1.1069717
		c-0.4114304-0.2463303-0.8579254-0.1205139-1.2800369-0.1209869c-7.9592819-0.0089798-15.9185715-0.0054779-23.877861-0.0078659
		c-1.1453094-0.0003433-1.1575012-0.0082092-1.1575775-1.0764465c-0.002182-27.8375168-0.0019989-55.6750259,0.0038071-83.5125427
		c0.0000458-0.2563896-0.1133728-0.5607166,0.2294235-0.798914c0.5588531,0.2205658,1.1431885,0.4620876,1.735199,0.6830921
		c4.1760788,1.5590076,8.4499817,2.5696049,12.9521027,2.3887081c0.6871872-0.0276089,1.3359451-0.2066555,2.0089874-0.2781563
		c2.9054871-0.3086586,5.6918564-1.1076851,8.3914185-2.1966343c1.3680038-0.5518246,1.3470993-0.603817,1.3513184,0.8220024
		c0.0005798,0.1999798,0.0000839,0.3999653,0.0000839,0.599947c-0.0000153,27.2375698-0.0000305,54.4751358-0.0000153,81.7127075
		c0,0.3199692,0.0207443,0.6415482-0.0042496,0.959549c-0.0412445,0.5249252,0.1917038,0.7294617,0.701561,0.6912537
		c0.2783966-0.0208664,0.5596695-0.0030518,0.839653-0.0030518c7.8392944,0.0000381,15.6786041-0.0020905,23.5178986,0.0059433
		c0.4177399,0.0004196,0.8620453-0.1071625,1.3476257,0.1557617c-0.8570099,1.8017044-1.6756287,3.5658875-2.5305481,5.3123093
		c-3.4073181,6.9604797-6.9441071,13.8566208-10.3079987,20.83918c-2.7738037,5.7576904-5.6437531,11.469101-8.4771576,17.1980286
		c-1.4881134,3.0088654-2.9939423,6.0089569-4.4770889,9.0202332c-0.1431427,0.2906494-0.4724503,0.5683289-0.2368317,0.9641571
		c0.3594437,0.1512451,0.7236557,0.0804901,1.0777664,0.0806885c8.0392914,0.0046692,16.0786438-0.0124664,24.1177521,0.0260925
		c0.8941193,0.0042725,1.3321228-0.2790985,1.716156-1.073761c3.05896-6.3298645,6.2556152-12.5917816,9.3363037-18.9117737
		c4.7082214-9.6587982,9.5161743-19.2689972,14.2833099-28.899086c0.6203613-1.253212,1.2624207-2.4958267,1.8702545-3.7550354
		c0.4102936-0.8499908,0.3514862-0.9247818-0.5894775-0.9519806c-0.2397614-0.0069351-0.4799194-0.0010071-0.7198944-0.0010071
		c-7.7593079,0-15.5186157,0.0002747-23.2779236-0.0002441c-1.5315704-0.0000992-1.5335541-0.0015259-1.5337372-1.4880676
		c-0.0007935-6.7193985-0.000351-13.438797-0.000351-20.1582031c0-20.4781723-0.0009766-40.9563446,0.0063629-61.4345169
		c0.0001526-0.4493904-0.1263733-0.9351883,0.1555023-1.3807888c1.0189209,0.3418293,1.816452,0.9555721,2.6944122,1.4137535
		c4.7504883,2.4791737,9.7233276,4.4298553,14.7816315,6.1630249c2.7872467,0.9550209,5.6125946,1.8015175,8.436142,2.6455383
		c0.5757904,0.172123,0.8009949,0.4347,0.7661438,1.0001526c-0.0196533,0.3187561-0.0033417,0.6397209-0.0033417,0.9596939
		c0.0000153,23.5578995,0.0000153,47.115799,0.0000153,70.6736908c0,0.2799759,0.0214081,0.5619125-0.0042419,0.8395157
		c-0.0529938,0.5737839,0.1946716,0.7800064,0.7615509,0.7643204c1.039093-0.0287476,2.0796661-0.0158997,3.1194611-0.0051804
		c0.9221039,0.0095062,0.9129028,0.0173798,0.7935028,0.8976822c-0.058609,0.4320908-0.1372375,0.8721161,0.0463562,1.2987595
		c-0.4255066,2.3835449-0.642395,4.7835159-0.567215,7.2064667c-0.3749695,1.0742722-0.3045959,2.2090988-0.4100037,3.3142776
		c-0.5597229,5.8682098-1.3887787,11.7164154-1.5157013,17.618454c-0.072876,3.3898773-0.1888428,6.7823181-0.0590057,10.1747437
		c0.0244141,0.6381683,0.0543518,1.2693939,0.2069702,1.8975067c0.5669708,2.3333893,0.3032074,4.666687-0.0459747,6.9970703
		c-0.110611,0.0036621-0.3063202-0.0224915-0.3195343,0.0152893c-0.530838,1.5156555-1.5236511,2.8188019-2.0019531,4.3569031
		l0.0143127-0.0139771c-8.359314-0.0069427-16.7186584-0.0176392-25.0779724-0.0178833
		c-1.8170776-0.000061-1.6088715-0.2024384-1.609024,1.5838623c-0.0033722,39.3174896-0.0026398,78.6349945-0.0016327,117.9524994
		c0,0.4797974,0.0140381,0.9595947,0.0215454,1.4393921c-0.5238953,0.2678223-1.0934296,0.1765442-1.6409607,0.1757813
		c-5.5831146-0.0076294-11.1613312,0.2206726-16.7418671,0.3332214c-2.3913269,0.0482178-4.7815857,0.1481934-7.1726837,0.2111511
		c-0.4342194,0.0114441-0.8768311,0.0783691-1.3052979-0.066864c0.0040131-0.4795837,0.0115585-0.959137,0.0115585-1.4387207
		c0.0005417-39.5844421,0.0005264-79.168869,0.0005112-118.7532959c0-0.2398987-0.0144272-0.4808502,0.0028687-0.7194824
		c0.0354233-0.4888458-0.1275711-0.7663116-0.670372-0.7231293c-0.2780991,0.0221252-0.5594635,0.002655-0.8393555,0.002655
		c-7.8769073-0.000061-15.7538071-0.0033722-23.6307144,0.0026245c-1.7122345,0.001297-1.515976-0.1950226-1.5162277,1.5529633
		c-0.0037308,25.509964-0.0033569,51.0199432-0.0022507,76.5299072
		C100.3152237,257.1326904,100.318985,271.5668335,100.3213425,286.0009766z"></path>
	<path d="M180.4656677,284.1144104c-0.002655-21.473053-0.0061493-42.9460907-0.0077057-64.4191284
		c-0.001297-17.8743744-0.0005035-35.748764,0.0009155-53.6231384c0.0000458-0.4794159,0.0180054-0.9588318,0.0276031-1.4382477
		c-0.0000153,0-0.014328,0.0139771-0.014328,0.0139771c0.7026215-0.0117035,1.4052124-0.023407,2.1078186-0.0350952
		c0.312851,2.5895844,0.2025604,5.1820831-0.0005035,7.7690735c-0.1786957,2.2762146-0.1565552,4.5536957-0.052948,6.8250885
		c0.1275177,2.7958832,0.2397003,5.5780182-0.0495911,8.3760376c-0.1845856,1.7852783-0.0375366,3.5997925,0.365387,5.3529663
		c1.2567596,5.4684906,2.0174561,10.9821625,1.7207947,16.6075287c-0.1472321,2.7920837-0.5539703,5.5595093-0.8237915,8.3400269
		c-0.088501,0.9120026-0.2390594,1.8178406-0.344162,2.7284698c-0.0551758,0.4781494,0.006958,0.9359589,0.1715698,1.4062958
		c2.0743103,5.9267731,2.5213013,11.9956665,1.5437622,18.1841888c-0.2627411,1.6634369-0.2828369,3.2996216,0.0931396,4.9774475
		c0.6054688,2.7019043,0.6816406,5.4663544,0.5745087,8.2311859c-0.1505737,3.8864594,0.3157043,7.7418671,0.5922699,11.6061859
		c0.1881561,2.6293335,0.3404846,5.2652588,0.6585693,7.8800049c0.3035126,2.4951477,0.4446106,4.990448,0.4551086,7.4972229
		c0.0074463,1.7712402-0.3218536,2.2558899-1.995224,2.7982178
		C183.8601685,283.7205505,182.1991272,284.130188,180.4656677,284.1144104z"></path>
	<path d="M45.3619194,164.6283264c0.199749-0.0064087,0.4016533,0.0036316,0.5988541-0.0221863
		c0.6982651-0.0914917,0.9419823,0.2370911,0.8620949,0.8943939c-0.019165,0.1576385-0.0028305,0.3195953-0.0028305,0.4795685
		c0,38.9148865,0.0000534,77.8297729-0.0009117,116.7446594c-0.0000076,0.3196106-0.0138435,0.6392212-0.0212212,0.9588623
		c-1.852932-0.071167-3.6024895-0.5762329-5.288044-1.3087463c-0.7360458-0.3199463-1.1877251-0.8673096-1.2783089-1.7339172
		c-0.092411-0.8840637-0.0030479-1.7545776,0.0044136-2.6315002c0.0295715-3.4723206,0.4857712-6.9159851,0.683876-10.3771057
		c0.1688576-2.9502563,0.3844223-5.8982544,0.6173515-8.8442688c0.3212738-4.0634613,0.5746422-8.1270294,0.5155754-12.2077942
		c-0.0137367-0.9490204,0.1767159-1.9064789,0.3280296-2.8512726c0.3233299-2.0188599,0.4996262-4.0211945,0.184433-6.0749207
		c-0.3530312-2.3002625-0.3719788-4.6469116,0.2039719-6.909256c0.600296-2.3579712,0.2510147-4.6759644,0.0843773-7.0166626
		c-0.221138-3.1064148-0.6237831-6.1972809-0.6251831-9.322876c-0.0017776-3.9532928,0.706665-7.7764893,1.8481293-11.5383453
		c0.0580215-0.1911926,0.0971184-0.3903809,0.175106-0.5729828c0.9722176-2.2763367,1.0878372-4.6359558,1.1477203-7.1016998
		c0.070652-2.908844,0.0493088-5.8082886,0.0666313-8.713913c0.0204849-3.4363098-0.1397362-6.8579407-0.2574539-10.2848663
		c-0.0386734-1.1257477,0.1269073-2.2325439,0.2075195-3.3469238c0.1736031-2.3998413-0.0412903-4.7895203-0.1423073-7.1826019
		C45.2590866,165.3167572,45.1038017,164.9537048,45.3619194,164.6283264z"></path>
	<path d="M46.8087311,110.8721924c-1.0072784,2.4200821-2.2911873,4.7056351-3.4414902,7.0561371
		c-0.0385971,0.0788498-0.1979332,0.0986099-0.3009911,0.1459198c-0.041378-1.7044296-0.558136-3.3557739-0.5653725-5.0640106
		c0.0006752-0.6688995-0.0433159-1.3343277-0.2408257-2.1380463
		C43.8303452,110.8721924,45.3195381,110.8721924,46.8087311,110.8721924z"></path>
</g>
<g onclick="select(this)" class="" id="gola-primaria" fill="#ffffff">
	<path d="M77.9566269,7.9643593c0.5433121-0.0630779,0.9717407-0.3532591,1.350502-0.7165484
		c0.9514694-0.9126143,2.0431442-1.7269812,2.8063507-2.778368c1.8071671-2.4894934,4.3550568-3.3576338,7.2143021-3.7527018
		C89.9563141,0.6298947,90.6858826,0.8174522,91.2000046,0.24c1.1999969,0,2.4000015,0,3.5999985,0
		c0.1686554,0.4914433,0.5990219,0.3124902,0.913765,0.3136448c5.5784302,0.0204637,11.156929,0.0201891,16.7353897,0.0350896
		c0.4080505,0.0010899,0.7728119-0.0504993,1.0708466-0.3487343c7.5200043,0,15.0400085,0,22.5599976,0
		c0.0817719,0.475216,0.489212,0.3141541,0.760376,0.3591558c0.9005127,0.1494493,1.8086853,0.251949,2.7122498,0.3838596
		c2.1177368,0.3091633,3.8966217,1.1323714,5.2497864,2.9209824c1.2646942,1.6716552,2.696106,3.2340288,4.5595093,4.3031478
		c1.3345947,0.5578804,1.9425354,1.5266333,1.8510895,3.0015402c-0.2146454,3.4615307-1.8750305,6.2802496-3.7983398,9.025279
		c-0.657135,0.9378853-1.1162872,0.7764244-1.8544006,0.1728249c-1.4842682-1.2137508-2.984375-2.4184208-4.5635376-3.5020809
		c-0.9918976-0.6806717-1.0931549-1.1222725-0.2361145-2.0526142c1.5060425-1.6348286,2.6971741-3.510664,3.5267029-5.7606192
		c-3.8045959,0.2949562-7.4219208,0.6110954-11.0444489,0.8482122c-6.0543365,0.3962965-12.1088486,0.811388-18.1692657,1.0873117
		c-4.8736572,0.2218914-9.7277451-0.3653784-14.5817413-0.7113132C95.1534195,9.9352255,89.8248367,9.4127893,84.4946442,8.922883
		c-1.3387833-0.1230497-1.4493866-0.0357189-0.9412537,1.1946383c0.8055038,1.9504185,2.0682983,3.5924397,3.4846725,5.1298161
		c0.4235992,0.4597979,0.8041306,0.8782597,0.0605392,1.4501514c-1.7737122,1.3641453-3.5175934,2.7680473-5.2473907,4.1877403
		c-0.5393295,0.4426384-0.8568649,0.3148384-1.2625885-0.1770668c-1.9891205-2.4115868-3.5237122-5.0736027-4.1546249-8.1455193
		C76.0773849,10.8262997,75.9796066,9.0069094,77.9566269,7.9643593z"></path>
</g>
<g onclick="select(this)" class="" id="detalhe-punho" fill="#ffffff">
	<path d="M0.24,114.7200012c0.5644144-1.1200256,0.4030076-2.3887405,0.7285303-3.5580292
		c0.1369813-0.4920425,0.1239579-1.0281448,0.434833-1.4688873c0.5507314,0.3938141,1.1057652,0.7582321,1.7463299,1.0219345
		c3.2226641,1.3266678,6.5714111,2.1998749,9.9895649,2.8108902c4.2897234,0.7668076,8.6343718,0.8833923,12.9771452,0.9888382
		c2.5099545,0.0609512,5.0414619,0.3392792,7.5244999,0.1064301c2.71492-0.2545853,5.5079117-0.339119,8.0832443-1.458252
		c0.5714417-0.2483215,0.71632-0.0910034,0.8195343,0.5151901c0.3810501,2.23806,0.4809532,4.4963531,0.6140976,6.7538605
		c-0.5687408,0.5572357-1.3228264,0.7422333-2.046627,0.9218826c-2.2505684,0.5586166-4.5424194,0.9628906-6.8576736,1.0065155
		c-7.585247,0.1429214-15.1709824,0.225235-22.6801262-1.1807327c-3.0540991-0.5718384-6.0998974-1.1686096-9.0522776-2.1537399
		c-0.7788508-0.2598801-1.5216964-0.6276627-2.2810755-0.9459C0.24,116.9600067,0.24,115.840004,0.24,114.7200012z"></path>
	<path d="M184.6355591,120.1655731c-0.0546417-1.9532166-0.1169281-3.9007568,0.2612-5.8419342
		c0.1929779-0.9907074,0.4206543-1.3660355,1.6246643-1.1130066c4.171936,0.876709,8.425827,0.5644531,12.6547546,0.5902405
		c3.1204376,0.0190277,6.222168-0.2089844,9.2889404-0.7493134c3.0609741-0.5393143,6.1479645-0.918396,9.1846924-1.6170425
		c3.4717865-0.7987289,6.83284-1.9101334,10.1315613-3.2337265c1.0003052,2.4319,1.2690125,4.9805756,1.1668091,7.5787506
		c-0.0299225,0.7608948-0.7602081,0.8617783-1.2806091,1.065834c-2.5613708,1.0042648-5.226532,1.6836243-7.8749542,2.4055634
		c-9.0441284,2.4652786-18.2762604,3.0461731-27.5913696,2.5964508c-2.0578613-0.0993423-4.1311188-0.3100586-6.1351166-0.890358
		C185.5271606,120.8009644,184.999115,120.6344452,184.6355591,120.1655731z"></path>
</g>
</svg>
