<!--?xml version="1.0" encoding="utf-8"?-->
<!-- Generator: Adobe Illustrator 24.2.3, SVG Export Plug-In . SVG Version: 6.00 Build 0)  -->
<svg version="1.1" id="Camada_1" xmlns="http://www.w3.org/2000/svg" xmlns:xlink="http://www.w3.org/1999/xlink" x="0px" y="0px" viewBox="0 0 229 418" enable-background="new 0 0 229 418" xml:space="preserve">
<g onclick="select(this)" class="" id="estampa-primaria" fill="#082890">
	<path d="M43.3361168,120.4746552c-0.2101822-1.7968292-0.4633865-3.5899506-0.6187172-5.3915024
		c-0.1625862-1.8856277-0.2511826-2.0255585-2.0599174-1.648941c-6.8736954,1.431221-13.7845001,1.1175003-20.7246532,0.6410217
		c-4.1520681-0.2850647-8.2633028-0.7054749-12.2979603-1.7260742c-2.161747-0.5468216-4.3023148-1.1773834-6.452384-1.770607
		c0.9832051-4.6944427,1.710304-9.4310074,2.2652452-14.1916885c0.8147309-6.9893265,2.161412-13.9026031,2.9144485-20.9012604
		C7.00946,69.4698257,8.1461086,63.5459442,10.02213,57.7793922c2.9524479-9.0752945,8.0192003-16.63377,15.2955141-22.9292145
		c4.641325-4.0156631,10.1261501-6.1122017,15.5386753-8.4372444c9.5230942-4.090807,19.1496506-7.9399338,28.2282448-12.9891987
		c1.9752045-1.0985622,3.998909-2.0944109,5.5171432-3.9018002c0.8427429-1.0032473,2.0552597-1.6525912,3.4933624-1.5504246
		c-1.6690369,0.911767-1.9942245,2.37745-1.6832047,4.0992002c0.0709457,0.3928022,0.174202,0.7797356,0.2612457,1.1696711
		c0.8237534,3.6903038,2.9550095,6.6721439,5.5161438,9.2610703c5.7755432,5.8382244,12.4840088,10.2771969,20.4383316,12.6342793
		c2.1298523,0.6311302,4.2955933,1.1106682,6.6459579,1.064991c-0.5338974-1.2844391-1.4534302-2.1956291-2.3009262-3.0927887
		c-3.1059952-3.2880211-6.5108948-6.2602386-10.0273743-9.1035366c-3.6951294-2.9877663-7.5911026-5.7475491-10.6006622-9.5057726
		c-1.1553192-1.4426966-2.2062607-2.9282017-2.9025269-4.6584578c-0.3602753-0.8952703-0.0476456-1.0153322,0.7604065-0.9296112
		c8.6987839,0.922802,17.4164963,1.6134081,26.1527786,2.0596113c4.8011017,0.2452154,9.5862045-0.1699533,14.3717422-0.4393368
		c4.1464462-0.233408,8.2862778-0.5848207,12.4287338-0.8880043c2.3001556-0.1683464,4.5997314-0.3447294,6.9456177-0.5209475
		c-0.1444855,0.8089581-0.4932556,1.4364643-0.8457642,2.0579758c-2.4790802,4.3710222-6.1096344,7.6467533-10.0511169,10.6473789
		c-4.6786194,3.5618324-9.2728195,7.2288265-13.2001648,11.6443291c-0.7319489,0.822937-1.4752579,1.6511688-1.9698868,2.8885307
		c1.1166229-0.2099304,2.0835495-0.063839,3.0767593-0.2575684c3.6875992-0.7192917,7.1508179-2.0464096,10.489624-3.7210732
		c5.1791077-2.5976906,9.9228821-5.8279591,13.9182587-10.0487232c2.569397-2.7143421,4.4947815-5.8517628,5.4047394-9.5299778
		c0.6181793-2.4987421-0.2522278-4.1453342-1.7312012-4.5330067c1.943222-0.3242459,3.1177673,0.9020796,4.2467346,2.1567545
		c0.3477783,0.3865013,0.6880035,0.7267332,1.1286316,1.019886c8.8592834,5.8942385,18.7728577,9.6096907,28.4977417,13.6844301
		c5.0627441,2.1213017,10.0329742,4.4418583,15.0825806,6.5857468c0.2867889,0.1217613,0.5728149,0.2649422,0.8249359,0.4459
		c11.2115326,8.0465317,18.1936951,18.8202171,21.0527649,32.3346024
		c1.0608826,5.0147476,1.2833252,10.1653595,2.4897308,15.1304626c2.1820068,8.9800873,3.6789246,18.0787277,5.1480865,27.1876221
		c0.0887604,0.5503616,0.1269836,1.1088715,0.1885681,1.6634598c-0.3645477-0.0474243-0.7153015-0.0071335-1.0527039,0.147644
		c-5.3200073,2.4405899-10.9899139,3.46521-16.7322083,4.322876c-4.8674622,0.7269821-9.7268219,1.3356934-14.646347,1.004715
		c-3.0179901-0.2030563-6.0691071,0.0220795-9.0557098-0.6596832c-0.3630829-0.0828705-1.0329285-0.319397-1.0531616,0.3600006
		c-0.0652313,2.1891479-1.0532837,4.280571-0.6636505,6.5102005c-0.5996704,2.0014877-0.5344086,4.090416-0.7905884,6.1364059
		c-0.8949738,7.1481323-1.2949219,14.3305511-1.3635254,21.5325623c-0.0213623,2.2410431,0.0507813,4.4670715,0.514328,6.6791992
		c0.4084167,1.9490814-0.1002045,3.9014282-0.1983795,5.8523102c-0.0421906,0.8381042-0.1978302,1.6774902-0.1664124,2.5111694
		c0.2422791,6.433075-0.6019745,12.8642731-0.0210724,19.296936c0.2062683,2.2839813-0.212616,4.5477905-0.2432709,6.826355
		c-0.0310822,2.3100128,0.5135193,4.517807,1.0009308,6.7380829c1.592453,7.2540588,1.3647461,14.5321045,0.3311005,21.8229065
		c-0.3036346,2.1416016-0.3860931,4.2071228,0.3188629,6.357605c1.79216,5.467041,1.8125,11.0900421,0.9352264,16.7301788
		c-0.2179413,1.4012146-0.2448883,2.7664795,0.0792084,4.1568146c0.9001465,3.8616333,0.4709167,7.8023071,0.6703339,11.7068024
		c0.3015289,5.9052429,0.6929626,11.8065796,1.4281311,17.6820374c0.2564545,2.0493469,0.2247467,4.1387939,0.2575684,6.210968
		c0.0276184,1.7446289-0.3406372,2.2341309-2.0523682,2.75177c-3.0040741,0.9084167-6.1225128,1.1583557-9.2227325,1.4839783
		c-8.3638763,0.8783264-16.7637329,0.8764343-25.1590729,1.0420837c-11.6733246,0.2302551-23.3444214,0.781311-35.0168152,0.7914429
		c-11.3913727,0.0098877-22.7747269-0.7897339-34.1726074-0.850708c-8.396843-0.0448914-16.7953873-0.10849-25.1746025-0.7459106
		c-4.2282104-0.3216248-8.4446487-0.7641296-12.5834808-1.7372437c-3.5226593-0.8282166-3.8817024-1.1704102-3.6740036-4.7752075
		c0.4454918-7.7318726,1.0047455-15.4573975,1.5502663-23.1832123c0.1466026-2.0762482,0.2673111-4.150238,0.2184067-6.2306976
		c-0.0405502-1.724762,0.0539246-3.4385986,0.3564949-5.1369019c0.4024506-2.2589264,0.4742508-4.5084381,0.1367073-6.79422
		c-0.3715973-2.5163879-0.1149597-5.0323486,0.4303474-7.5068817c0.2282982-1.0359955,0.1989555-2.0488281,0.1221313-3.0924072
		c-0.3344193-4.5423431-1.0253601-9.0643921-0.8279915-13.6383972c0.1861229-4.313385,1.2090988-8.4557495,2.6622276-12.495163
		c0.3737335-1.0388947,0.6244507-2.0293732,0.4623566-3.1422424c-0.1849098-1.2694855-0.1565132-2.5534668,0.0842667-3.8226471
		c0.3010979-1.5870667,0.1834869-3.1711273,0.1076965-4.7750397c-0.1581841-3.3474274-0.1870003-6.7026215-0.2009506-10.0549164
		c-0.0537033-12.9053192-0.0422363-25.8110504-0.1364212-38.7160339
		c-0.0374107-5.1263123-0.9949379-10.1804962-1.5068665-15.2701874
		C43.6686363,123.1601257,43.4931717,121.8183136,43.3361168,120.4746552z"></path>
</g>
<image overflow="visible" width="461" height="78" xlink:href="69BB381B.jpg" transform="matrix(1 0 0 1 -7894 -7770.1103516)">
</image>
<g onclick="select(this)" class="" id="estampa-secundaria" fill="#801815">
	<path d="M174.3967743,284.8035889c-2.2888794,0.3658142-4.6030426,0.4369812-6.9106445,0.5372314
		c-7.9725189,0.3463135-15.9520721,0.3966064-23.9300842,0.5079651c-3.189209,0.0445251-6.3735046,0.3215637-9.5663452,0.2087708
		c-0.0103455-3.4763184-0.0186768-6.9526978-0.0322571-10.4290161c-0.0042877-1.0965271-0.0107422-1.105957-1.1199646-1.1061707
		c-12.6282501-0.0022278-25.2564926-0.0021362-37.8847351-0.0002441c-1.1310577,0.0001831-1.1337891,0.0081177-1.1372757,1.2060852
		c-0.0097809,3.3566589-0.0170898,6.7132874-0.0253677,10.0699158c-4.2320404,0.0722656-8.4625473-0.0267334-12.6933746-0.1066284
		c-5.9881973-0.1130066-11.9797058-0.0915527-17.9637604-0.3673706c-3.265976-0.1506042-6.5410118-0.2246704-9.7799492-0.7469788
		c-0.0114555-2.9985046-0.020237-5.9970093-0.03582-8.9955139c-0.0054398-1.0455933-0.013092-1.0570679-1.0478897-1.0586548
		c-3.5587997-0.0054321-7.1176186,0.0004578-10.6764221-0.0036621c-1.0022507-0.0011597-1.002243-0.0101318-1.0699997-1.0344849
		c0.5970192-5.726532,0.7297363-11.4873657,1.2662277-17.2178345c0.276268-2.950882,0.3171196-5.9043579,0.3011894-8.8639069
		c-0.0081825-1.5211792,0.229435-3.0294647,0.4875832-4.5244598c0.2883415-1.6698151,0.3317337-3.3236084,0.0520859-4.9978943
		c-0.1976509-1.1833191-0.2488937-2.3825073-0.1245499-3.5823669c3.2323647-0.019455,6.4647331-0.0380859,9.6970901-0.0588226
		c1.103981-0.0070953,1.1141472-0.0095215,1.1143646-1.1003418c0.0025063-12.6552734,0.002739-25.3105164-0.000164-37.9657898
		c-0.0002365-1.0375671-0.0129166-1.042984-1.0525017-1.0514069c-2.2746735-0.0184479-4.5493965-0.030838-6.8240967-0.0456696
		c0.3623199-2.3826599-0.034687-4.7770844,0.0616302-7.1439667c0.1512833-3.7178345-0.1630669-7.4077911-0.1953621-11.1105042
		c-0.010498-1.2036133,0.1872673-2.3835907,0.23983-3.5783997c0.1406631-3.1971436-0.3143158-6.3751526-0.2820587-9.5677338
		c0.0302124-2.9907074,0.0692863-5.9813385,0.1044617-8.9719849c2.3184814-0.0187531,4.6370125-0.0336914,6.9554367-0.058075
		c0.9747658-0.0102539,0.9917641-0.0193024,0.9920578-0.9961548c0.0038795-12.6396942,0.0037918-25.2793884,0.0001144-37.9190903
		c-0.0002975-1.0189056-0.0159531-1.0294266-1.0807228-1.0316849c-2.8399239-0.0060349-5.6801147-0.0228577-8.5196228,0.0119858
		c-0.7348518,0.0090179-1.0250359-0.1625671-1.1043015-0.9677658c-0.210762-2.1410217-0.5495338-4.2696075-0.8447762-6.4021072
		c-0.5134621-3.7086487-0.9708443-7.4230499-1.9090614-11.0632019c-1.327137-5.1490784-3.1815605-10.1060791-5.3208427-14.9597473
		c-0.8771057-1.9900284-1.5740967-4.0011978-1.6882362-6.1920395c-0.0340958-0.6544495,0.1352882-0.9414215,0.850174-0.912941
		c1.2380028,0.0493469,2.4793968,0.0134048,3.719368,0.0133896c4.9598808-0.0000381,9.9197693,0.0027313,14.8796425-0.0023193
		c0.9988098-0.0010147,0.9998817-0.0146408,1.0199738-0.9636917c0.0050774-0.2398911,0.0008049-0.4799805,0.0008049-0.7199707
		c0.0000038-11.8797188-0.0000229-23.7594337,0.0000763-35.6391525c0.0000038-0.3199883,0.0058975-0.6400528,0.0006104-0.9599419
		c-0.0051231-0.3096809,0.0827484-0.5332489,0.4201736-0.6266861c2.0638618-0.5715141,4.0310364-1.3907547,6.2706299-1.3756027
		c10.7992516,0.073082,21.5992622,0.0336227,32.3990059,0.0319214c1.2383118-0.0001907,1.243515-0.0064545,1.2448578-1.241724
		C93.6571884,28.7692223,91.9904938,28.9598999,92,26c0.0012207-0.3806629-6.2395859-5.5727196-6-6
		c1.2840195-2.4786339-6.8163452-10.062315-5-12c6.3794785-6.8056531,25.2641373-4.7114487,34-3
		c13.1985931,2.5857472,31.565033,1.9518814,32,3c0,2.5642834-12.8730469,18.1902256-12.8728638,20.5410919
		c0.0001068,1.2399673,0.012558,2.4800987-0.0045166,3.7198257c-0.006897,0.5013008,0.1738586,0.7461281,0.6960754,0.7131996
		c0.3187103-0.020092,0.6397552-0.0023308,0.9597626-0.0023308c9.6797485,0.0000801,19.3598175,0.039917,29.039093-0.0285149
		c2.3602448-0.0166893,4.60495,0.2758484,6.7789459,1.1704941c0.5528564,0.22752,1.115509,0.4318466,1.6770172,0.6376495
		c1.2834473,0.4703979,1.1552124,0.0977898,1.1558533,1.6490936c0.004776,11.5997238,0.0026093,23.1994438,0.002594,34.7991676
		c0,2.0266266-0.0000458,2.0266266,2.0031128,2.0266266c5.6398773,0.0000076,11.2797241-0.0006638,16.9195862,0.0005035
		c1.2887573,0.0002747,1.3222809,0.0060043,1.2124786,1.3217316c-0.0760498,0.9112167-0.2745056,1.8115463-0.3937531,2.7199478
		c-0.4141388,3.1545258-1.4619293,6.1500092-2.6981812,9.028717c-1.1062622,2.5760193-2.0683746,5.1772842-2.831192,7.8611984
		c-1.231842,4.3340988-2.0380402,8.7643738-2.816391,13.1939316c-0.3500824,1.9923248-0.8609314,3.9793167-0.782608,6.0333328
		c-0.0101166,0.080864-0.0202332,0.1617279-0.0303802,0.2425995c-3.1160583,0.1565628-6.2341766,0.0280685-9.3511047,0.0670624
		c-1.225235,0.0153275-1.2303162,0.0084457-1.2307129,1.2473755c-0.0019073,5.8378067-0.0008545,11.6756134-0.0008545,17.5134125
		c-0.0000153,6.6374969-0.0002136,13.2749786,0.0001068,19.9124908c0.000061,1.380127-0.0903625,1.2742157,1.3151398,1.2790985
		c2.3588104,0.0081787,4.7176208,0.0173798,7.0764313,0.0261536c0.5244598,1.4377899,0.3546906,2.9234924,0.2129211,4.3822632
		c-0.2238922,2.3034363-0.5295563,4.6063995-0.3956299,6.9191437c0.2082214,3.5960999-0.2483215,7.1716614-0.2142792,10.7599487
		c0.0177765,1.8739624,0.0053101,3.745163,0.1559753,5.6190643c0.1469116,1.8269806,0.0797424,3.6588745-0.0984039,5.4945374
		c-0.2356873,2.4285889-0.0996704,4.8540039,0.5592194,7.2259827c-2.5145874,0.0153656-5.0291748,0.0283661-7.5437317,0.0471649
		c-1.0522766,0.0078888-1.0655975,0.0134888-1.0658264,1.0406494c-0.0029602,12.6972809-0.0030212,25.3945465,0.0009918,38.0918274
		c0.0003052,0.9670868,0.0172119,0.9791718,0.9910736,0.9830017c2.0762329,0.008194,4.1525726-0.0046692,6.2288208,0.0052185
		c1.2763214,0.0060883,2.5525208,0.0383301,3.8287659,0.0588379c0.107132,2.0059357-0.163269,3.9911804-0.4744568,5.95578
		c-0.2935791,1.8535614-0.1373596,3.6356659,0.2118683,5.4548645c0.4677734,2.4366455,0.6035919,4.910965,0.4945374,7.3937073
		c-0.1846008,4.2033844,0.3283386,8.3720856,0.6300049,12.5507355c0.1694794,2.3479309,0.4046021,4.6911621,0.5708466,7.0392761
		c0.0423737,0.5984802,0.349411,1.1530457,0.2446594,1.7659912c-0.4367218,0.0197144-0.8734283,0.0556335-1.3101807,0.0564575
		c-2.668869,0.0053101-5.3381195-0.023468-8.006424,0.0152588c-1.0993347,0.0159302-2.2143555-0.2045593-3.3005829,0.1427612
		c-0.2394714,1.0588379-0.0872498,2.1321106-0.1041718,3.1978455
		C174.4029999,280.1836243,174.4085083,282.4937439,174.3967743,284.8035889z M93.6550217,93.5136108
		c0-1.479248-0.0000153-2.9584808,0-4.4377289c0.0000458-4.8774948,0.0027771-9.7549896-0.0020599-14.6324921
		c-0.0009918-1.0006104-0.0140076-1.0008774-0.962677-1.0218353c-0.1198807-0.002655-0.2398682-0.0003662-0.3598099-0.0003662
		c-12.5135727,0.0000076-25.027153-0.0000076-37.5407333,0.0001755c-0.2398682,0.0000076-0.4801102,0.011528-0.7195053,0.0014954
		c-0.396244-0.0166168-0.5965652,0.1474075-0.5814934,0.5606155c0.0116539,0.3193436-0.0014725,0.6395416-0.0014801,0.9593658
		c-0.0002098,12.353653-0.0001755,24.7073212-0.0001717,37.0609741c0,0.2398758,0.0228691,0.4823761-0.0042877,0.7191391
		c-0.0755081,0.6581955,0.2566185,0.849968,0.84589,0.7870255c0.1581039-0.0168915,0.319561-0.0022812,0.4794769-0.0022812
		c12.5135841,0.0000229,25.0271568,0.0000381,37.5407372-0.0001144c0.2398682,0,0.4800491-0.0103607,0.7195282-0.0012665
		c0.395546,0.0150223,0.595665-0.1558304,0.585022-0.5627747c-0.007309-0.2796249,0.0014572-0.5596313,0.0014648-0.8394775
		C93.655098,105.9072495,93.6550522,99.7104263,93.6550217,93.5136108z M154.1964111,73.4211655
		c-6.2752991,0-12.5505981-0.0007401-18.8258972,0.0006256c-1.2374268,0.000267-1.2425232,0.0040054-1.2426453,1.2189407
		c-0.0013123,12.5506058-0.0012665,25.1012115-0.0001221,37.6518173c0.0001068,1.2106323,0.0046997,1.2144852,1.2483368,1.2145767
		c12.5506134,0.0009766,25.1012115,0.0009918,37.651825-0.0000153c1.2372131-0.0000992,1.2416229-0.0040588,1.2417297-1.2203293
		c0.0010986-12.5506058,0.0011597-25.1012115-0.0001221-37.6518173c-0.0001068-1.2095108-0.0051575-1.2129745-1.2471924-1.2132187
		C166.7470245,73.4204788,160.4717255,73.4211578,154.1964111,73.4211655z M93.6551361,174.0064545
		c0-6.3174438,0.000885-12.6348877-0.0007858-18.9523315c-0.0003128-1.2107544-0.0049438-1.2150726-1.2514496-1.2151794
		c-12.5549164-0.0010986-25.1098328-0.0010681-37.6647568-0.000061c-1.2453613,0.0000763-1.2502594,0.0040436-1.2503738,1.2116699
		c-0.0012169,12.5549316-0.0012054,25.109848,0.0000191,37.6647644c0.0001221,1.2108612,0.0050125,1.21492,1.2464104,1.2150116
		c12.5549164,0.0010681,25.1098404,0.0010834,37.6647568,0.0000458c1.2536011-0.0000916,1.2556229-0.0041809,1.2557907-1.3314667
		C93.6555176,186.401413,93.6550827,180.203949,93.6551361,174.0064545z M154.1949158,153.8382721
		c-6.2759705,0-12.5519409-0.0007782-18.8279266,0.0006714c-1.2346649,0.0002899-1.2391815,0.0042419-1.2393036,1.2220764
		c-0.0011292,12.5519409-0.0011139,25.1038818,0.0001068,37.6558228c0.0001221,1.2097473,0.0049744,1.2134857,1.2466278,1.2135925
		c12.5519409,0.0009613,25.1038971,0.0009766,37.655838-0.0000458c1.2344208-0.0000916,1.239212-0.0041046,1.2393188-1.2215729
		c0.0012054-12.5519409,0.0012054-25.1038971,0.0000153-37.655838c-0.0001068-1.2101135-0.0048981-1.2138062-1.2467499-1.2140808
		C166.7468567,153.8375397,160.4709015,153.8382721,154.1949158,153.8382721z M114.0048218,194.1208801
		c-6.3180008,0-12.6360092-0.0008392-18.9540176,0.0007324c-1.2298737,0.0003052-1.2349396,0.0046387-1.2350693,1.2298584
		c-0.0012436,12.5560303-0.0012054,25.1120605,0.0000916,37.6681061c0.0001221,1.2159271,0.0051651,1.2197418,1.2352982,1.2198334
		c12.5560303,0.0009613,25.1120682,0.0009918,37.6680984-0.0000305c1.2328339-0.0001068,1.2382965-0.0041351,1.2384491-1.2201233
		c0.0014191-12.5560455,0.0014038-25.1120758,0.0001831-37.6681061c-0.0001221-1.2246094-0.005127-1.229187-1.2389526-1.2295074
		C126.4808807,194.1199799,120.2428513,194.1208801,114.0048218,194.1208801z M73.6844101,234.2438965
		c-6.3171463,0-12.634285-0.0007019-18.9514313,0.0006256c-1.2405396,0.0002594-1.2451324,0.0039063-1.2452469,1.2145081
		c-0.0011482,12.5543213-0.001194,25.1086578,0.0000877,37.6629791c0.0001259,1.2043457,0.0052414,1.208252,1.2529564,1.208374
		c12.5543213,0.0010376,25.1086426,0.0010681,37.6629715,0c1.2454529-0.0001221,1.2504883-0.0043335,1.250618-1.216156
		c0.0012589-12.5543213,0.0012436-25.1086426-0.0000153-37.6629639c-0.0001144-1.2026672-0.0051727-1.2064514-1.2584152-1.2067261
		C86.1587677,234.2431335,79.9215851,234.2438965,73.6844101,234.2438965z M154.3300781,234.2438965
		c-6.3156586,0-12.6313171-0.0006714-18.9469757,0.0005646c-1.2502441,0.0002441-1.2552185,0.0036316-1.2553406,1.203949
		c-0.0012207,12.5513763-0.0011749,25.1027374-0.000061,37.6540985c0.0001068,1.2235718,0.0044861,1.2277527,1.2322998,1.2278748
		c12.5513916,0.0010681,25.1027527,0.0010376,37.6541443,0.0001221c1.2498932-0.0000916,1.2552185-0.0036621,1.2553558-1.2054443
		c0.0013275-12.5513916,0.0012207-25.1027832,0.0001831-37.6541443c-0.0000916-1.2221527-0.0042572-1.2260895-1.2324524-1.2263641
		C166.8015137,234.243103,160.5658112,234.2438965,154.3300781,234.2438965z M113.8333969,73.2263184
		c6.3179169,0,12.6358414,0.0011139,18.9537735-0.0009918c1.1637573-0.0003967,1.1703186-0.006424,1.1704712-1.1736679
		c0.0016174-12.5158882,0.0016022-25.0317726,0.0000458-37.5476608c-0.0000763-0.6127319-0.0016632-0.9214249-0.1569366-1.0769577
		c-0.3407135-0.3412781-1.0101471-0.1730728-1.0899353-0.1579971c-0.2846527,0.0537872-0.7522888-0.3918839-1.3627167-1.1997108
		C130.7101746,31.2251282,146.9039459,11.4785376,146,10c-4.4954681-7.3530245-28.7010803-2.105865-33-2
		c-2.581604,0.0635748-26.8498993-5.4880266-30,0c-3.0986481,5.3983831,14.913559,21.8182831,13.2253723,24.1992912
		c-0.5132904,0.7239418-0.9164505,1.1189461-1.1821518,1.0697975c-0.0803146-0.0148544-0.7331619-0.1789703-1.069313,0.1560364
		c-0.1567078,0.1561737-0.1580963,0.4687119-0.158165,1.0942421c-0.0013504,12.5158844-0.0014572,25.0317726,0.0002213,37.547657
		c0.0001526,1.1523819,0.0069885,1.1579819,1.1836166,1.1583557
		C101.2775192,73.2273636,107.5554504,73.2263107,113.8333969,73.2263184z M113.7972412,153.6475677
		c6.2375793,0,12.4751511,0.0025482,18.7127228-0.001709c1.6404877-0.0011139,1.4453278,0.1440277,1.4463348-1.5011749
		c0.0050812-8.3567505,0.0023193-16.7134857,0.0023193-25.0702286c0-4.1183929,0.0036469-8.2368011-0.002655-12.3551941
		c-0.0015259-0.9987793-0.0165558-0.9995804-0.9709778-1.021843c-0.1998291-0.0046539-0.399826-0.0007553-0.599762-0.0007553
		c-12.3551788-0.0000076-24.7103806,0-37.065567,0.0000381c-0.2399063,0-0.4810944,0.0165176-0.7194519-0.0025864
		c-0.5364761-0.0429764-0.8546524,0.1232834-0.7879639,0.7307816c0.0216751,0.1975098,0.0027161,0.3994675,0.0027161,0.5993881
		c-0.0000381,12.4351578-0.0000305,24.8703079,0.0000153,37.3054733c0,0.1999207,0.0133972,0.4008179-0.0016937,0.5995636
		c-0.0371628,0.4895477,0.1300507,0.7670746,0.6717834,0.7205963c0.238121-0.0204315,0.4795151-0.0023956,0.7194214-0.0023956
		C101.4020691,153.647583,107.5996552,153.6475677,113.7972412,153.6475677z"></path>
</g>
<g onclick="select(this)" class="" id="gola-primaria" fill="#082890">
	<path d="M149.1925812,8.269743c1.4789734,0.3876724,2.3493805,2.0342646,1.7312012,4.5330067
		c-0.9099579,3.678215-2.8353424,6.8156357-5.4047394,9.5299778c-3.9953766,4.2207642-8.739151,7.4510326-13.9182587,10.0487232
		c-3.3388062,1.6746635-6.8020248,3.0017815-10.489624,3.7210732c-0.9932098,0.1937294-1.9601364,0.0476379-3.0767593,0.2575684
		c0.4946289-1.2373619,1.2379379-2.0655937,1.9698868-2.8885307c3.9273453-4.4155025,8.5215454-8.0824966,13.2001648-11.6443291
		c3.9414825-3.0006256,7.5720367-6.2763567,10.0511169-10.6473789c0.3525085-0.6215115,0.7012787-1.2490177,0.8457642-2.0579758
		c-2.3458862,0.176218-4.645462,0.3526011-6.9456177,0.5209475c-4.1424561,0.3031836-8.2822876,0.6545963-12.4287338,0.8880043
		c-4.7855377,0.2693834-9.5706406,0.6845522-14.3717422,0.4393368c-8.7362823-0.4462032-17.4539948-1.1368093-26.1527786-2.0596113
		c-0.8080521-0.085721-1.1206818,0.0343409-0.7604065,0.9296112c0.6962662,1.7302561,1.7472076,3.2157612,2.9025269,4.6584578
		c3.0095596,3.7582235,6.9055328,6.5180063,10.6006622,9.5057726c3.5164795,2.843298,6.9213791,5.8155155,10.0273743,9.1035366
		c0.847496,0.8971596,1.7670288,1.8083496,2.3009262,3.0927887c-2.3503647,0.0456772-4.5161057-0.4338608-6.6459579-1.064991
		c-7.9543228-2.3570824-14.6627884-6.7960548-20.4383316-12.6342793c-2.5611343-2.5889263-4.6923904-5.5707664-5.5161438-9.2610703
		c-0.0870438-0.3899355-0.1903-0.7768688-0.2612457-1.1696711c-0.3110199-1.7217503,0.0141678-3.1874332,1.6832047-4.0992002
		c0.5586929-0.0352974,0.9663391-0.364903,1.3431702-0.7227721c0.8981323-0.852942,1.9341431-1.6141291,2.6379166-2.6081667
		c2.0089035-2.8373833,4.9349976-3.6040525,8.1188278-3.926898c2.0712814-0.2100314,4.1403732-0.0636327,6.2131424-0.0417281
		c5.4365463,0.0574517,10.8757477,0.1029832,16.3108749-0.0022722c7.9102554-0.153188,15.8177567,0.0332518,23.726326,0.0516684
		c1.225769,0.0028543,2.4586029,0.2772096,3.6743011,0.5012605c1.6950073,0.3123879,3.1126556,1.0528792,4.2329712,2.4699326
		C145.7337341,5.4394965,147.1852722,7.1622701,149.1925812,8.269743z"></path>
</g>
<g onclick="select(this)" class="" id="detalhe-punho" fill="#801815">
	<path d="M0.24,114.4800034c0.5919054-1.2335434,0.4179677-2.652092,0.9424851-3.9014511
		c2.150069,0.5932236,4.290637,1.2237854,6.452384,1.770607c4.034657,1.0205994,8.1458912,1.4410095,12.2979603,1.7260742
		c6.9401531,0.4764786,13.8509579,0.7901993,20.7246532-0.6410217c1.8087349-0.3766174,1.8973312-0.2366867,2.0599174,1.648941
		c0.1553307,1.8015518,0.408535,3.5946732,0.6187172,5.3915024c-2.8209724,1.4041672-5.8979797,1.7682724-8.9545937,1.8574982
		c-7.625452,0.2226334-15.254734,0.254715-22.807106-1.1541138c-3.0943499-0.5772247-6.1756763-1.1966705-9.1687393-2.1837921
		c-0.7417217-0.2446213-1.4448218-0.6063461-2.1656778-0.9142456C0.24,116.8800049,0.24,115.6800079,0.24,114.4800034z"></path>
	<path d="M184.6485748,120.16436c-0.3896332-2.2296295,0.5984192-4.3210526,0.6636505-6.5102005
		c0.0202332-0.6793976,0.6900787-0.4428711,1.0531616-0.3600006c2.9866028,0.6817627,6.0377197,0.4566269,9.0557098,0.6596832
		c4.9195251,0.3309784,9.7788849-0.2777328,14.646347-1.004715c5.7422943-0.857666,11.4122009-1.8822861,16.7322083-4.322876
		c0.3374023-0.1547775,0.6881561-0.1950684,1.0527191-0.147644c1.1144409,2.3423615,1.1694183,4.8498764,1.0798492,7.3615494
		c-0.0251923,0.7068329-0.7940216,0.8254929-1.3274384,1.0259857c-2.9121094,1.0944824-5.9199219,1.8739319-8.9258881,2.6579895
		c-8.7292328,2.2769089-17.6231537,2.7331924-26.5809174,2.3143158c-2.0183258-0.094368-4.055481-0.3039093-6.0210266-0.8830338
		C185.5387878,120.7968369,185.0050049,120.6445847,184.6485748,120.16436z"></path>
</g>
</svg>
