<!--?xml version="1.0" encoding="utf-8"?-->
<!-- Generator: Adobe Illustrator 25.0.1, SVG Export Plug-In . SVG Version: 6.00 Build 0)  -->
<svg version="1.1" id="Camada_1" xmlns="http://www.w3.org/2000/svg" xmlns:xlink="http://www.w3.org/1999/xlink" x="0px" y="0px" viewBox="0 0 229 418" enable-background="new 0 0 229 418" xml:space="preserve">
<g onclick="select(this)" class="" id="estampa-primaria" fill="#000000">
	<path d="M42.4525146,112.7778625c-0.8959656-0.1017761-1.4921265,0.6431503-2.3408813,0.7894821
		c-2.3294182,0.4016266-4.6686974,0.4893799-7.0189934,0.5657349c-5.6645355,0.1840439-11.3184147-0.0333939-16.9397697-0.6843262
		c-5.0782709-0.5880508-9.9922829-1.9331818-14.739399-3.8523865c1.6968609-8.914566,2.4887414-17.9633636,4.0001216-26.9052277
		c0.8855782-5.2393951,1.1788788-10.5595551,2.2399788-15.7781677c1.7292542-8.504673,4.4516625-16.5878448,9.6675148-23.6606789
		c2.1221428-2.8776779,4.5377884-5.4906731,7.3400173-7.7103424c1.3638763-1.0803337,2.3639584-2.5835495,3.9253693-3.4050064
		c3.6099453-1.8991852,7.2583332-3.7276974,11.0324497-5.2813187c9.9905014-4.1125946,20.000515-8.1803665,29.4651909-13.4415846
		c1.9752426-1.0979939,3.9976349-2.0948963,5.5164642-3.8997173c0.8439026-1.0028076,2.0582657-1.6470857,3.4946365-1.5515785
		c-0.7558746,0.5328951-1.5331879,1.0660648-1.6987534,2.062746c-0.1725082,1.0384579-0.0040817,2.0608931,0.2305679,3.0806484
		c0.8830185,3.837533,3.1326141,6.8899431,5.7837296,9.6242762c4.1407776,4.2707672,9.0156021,7.5629692,14.3707428,10.1524506
		c3.6889725,1.783802,7.5359039,2.990303,11.6402817,3.2895241c0.3121796,0.0227585,0.7304688,0.2811508,0.9042816-0.2512054
		c0.4935303,0.34338,1.0183792,0.5796623,1.6344376,0.6280861c2.3348923,0.1835098,4.6674423,0.3629379,6.9804306-0.1974907
		c1.4196167-0.1702423,2.8583298-0.2460022,4.2553558-0.5279999c4.6530914-0.9392471,8.8572388-3.0047417,12.9284058-5.3568268
		c3.3010712-1.907156,6.3566895-4.1787777,9.102417-6.8089809c3.0971222-2.9667912,5.4711609-6.4257278,6.6416321-10.6471872
		c0.6194-2.2338791,0.0160675-4.2730255-1.6763763-4.744153c1.9420929-0.322947,3.1181183,0.8977289,4.248703,2.1526375
		c0.3474121,0.3856363,0.6847076,0.7271471,1.1279755,1.0213566c8.8716431,5.8886719,18.7898102,9.6126652,28.5267792,13.6823082
		c5.0673981,2.11796,10.038208,4.4440956,15.0911713,6.5874882c0.2853394,0.1210365,0.5591431,0.2838707,0.8124237,0.4636726
		c11.9666901,8.4952011,19.1779327,20.08321,21.3682709,34.4821701c1.7443542,11.4671555,4.7389374,22.6825333,6.318634,34.166687
		c0.3372803,2.4519806,0.734375,4.8957443,1.1039429,7.3433762c-0.6231995,0.2587509-1.2245331,0.6173401-1.8733063,0.7590942
		c-3.0727844,0.6713867-5.9807739,1.8872681-9.0736084,2.5406494c-3.9409485,0.8325424-7.895462,1.5586319-11.8859558,1.9935684
		c-5.5944672,0.6097641-11.2156982,0.2853394-16.8232422,0.0108337c-1.0757751-0.0526581-2.1148071-0.3867111-3.0544434-0.9562912
		c0.9133911-6.7970581,2.1953278-13.5191116,4.0814209-20.1194687c0.1157684-0.4051895,0.4060059-0.7978287,0.1864471-1.257576
		c0.2286835,0.013588,0.220459-0.1446915,0.208313-0.2966614c-0.0024261-0.0302887-0.0488129-0.0570526-0.0749512-0.0854416
		c-0.0375671,0.1338348-0.0751343,0.267662-0.1127014,0.4015045c-0.3382111,0.0892105-0.3290253,0.4327927-0.4303589,0.6598129
		c-2.0418243,4.5738068-3.5193329,9.3472748-4.7613068,14.1821518c-2.4084015,9.3755341-3.9837952,18.8970871-4.9313965,28.5371094
		c-0.4706268,4.7878876-0.8178406,9.5828094-1.1401062,14.3773499c-0.3235474,4.8140259-0.4896545,9.6474457-0.4935303,14.4725189
		c-0.0137329,17.0256653-0.293335,34.0512085,0.1540527,51.0777435c0.191925,7.3041687,0.2595215,14.6112518,0.5149689,21.9160767
		c0.170105,4.8651276,0.3197784,9.7314301,0.4851532,14.597168c0.2033081,5.9811401,0.4586487,11.9578552,0.7411346,17.9355164
		c0.2373199,5.0215149,0.4161835,10.0449524,0.8100586,15.0577393c-7.654129,1.0699463-15.3581696,1.3612976-23.0732422,1.4522095
		c-12.9472198,0.1525879-25.8881531,0.5621033-38.8301086,0.9285583c-6.7608643,0.1914368-13.4958496-0.465271-20.2470093-0.5768127
		c-8.7105942-0.1439209-17.4220123-0.2460938-26.1319199-0.4232483c-8.3101959-0.1690063-16.6230583-0.3526306-24.8476982-1.7511597
		c0.5422516-3.7596436,0.4815598-7.5604248,0.7390556-11.3394775c0.3821983-5.6092529,0.5796967-11.2329712,0.7604179-16.8535767
		c0.1423416-4.4268494,0.2932549-8.852417,0.473175-13.2781372c0.2545853-6.2624054,0.3896675-12.5300751,0.535202-18.7964172
		c0.0927391-3.9929047,0.1909142-7.9915466,0.1893997-11.9799347c-0.00811-21.4069519,0.6336784-42.8216705-0.6577225-64.2175446
		c-0.2539635-4.2076416-0.5594025-8.4050293-0.9685097-12.6003418c-0.4473228-4.5871887-1.0582695-9.1419525-1.8283081-13.6878357
		c-1.0712128-6.3238525-2.2926559-12.6049652-4.1846809-18.7393494c-0.5815163-1.8854294-1.0368538-3.8216553-1.9383469-5.6982117
		c-0.5278625,0.8900604,0.2040977,1.4512558,0.2923431,2.1296234c0.3710556,2.852478,0.8811569,5.6868515,1.2544365,8.5390854
		C42.1011581,108.9703293,42.5416451,110.8479462,42.4525146,112.7778625z"></path>
	<path d="M127.5429077,26.2013454c-6.4310379-0.0194588-12.8620758-0.0499077-19.2931213-0.0533142
		c-2.8337784-0.0015011-5.6675949,0.0519543-8.5014725,0.080719c-5.0048599-4.1429901-10.5227814-7.7175179-14.446312-13.0585613
		c-0.7870941-1.0714455-1.3979874-2.228776-1.9132462-3.447176c-0.3056183-0.7226677-0.0586929-0.9086885,0.6669769-0.8316221
		c7.1110229,0.755187,14.2389526,1.3106298,21.3717041,1.816123c5.5933609,0.3963957,11.1826706,0.3527241,16.7722092-0.018959
		c5.381424-0.3578434,10.7616425-0.7339849,16.1413574-1.1168613c1.9062347-0.1356678,3.8093567-0.3148613,5.8538818-0.4858923
		c-0.84935,2.3374853-2.1702576,4.2213564-3.6611938,5.995595c-1.937149,2.3052006-4.1574707,4.311861-6.5503387,6.1364632
		C131.8248596,22.8637238,129.6888275,24.5390263,127.5429077,26.2013454z"></path>
</g>
<g onclick="select(this)" class="" id="estampa-secundaria" fill="#ffffff">
	<path d="M184.7915955,243.4868164c-2.7389679,3.6741028-5.4900665,7.3392639-8.2046509,11.031311
		c-0.4410858,0.599884-0.9550171,1.0426331-1.5941467,1.3975372c-17.6972046,9.8270721-35.3910675,19.6601715-53.0835114,29.4958344
		c-0.4125214,0.2293396-0.8025665,0.4990234-1.2031097,0.7497253c-0.0000153-0.0001221,0.0291824-0.0151672,0.0292053-0.0151062
		c-0.1072464,0.0458069-0.2145309,0.0915833-0.3218155,0.1373596c-5.2984467,0.237854-10.5909805,0.1514282-15.8763962-0.2895508
		c6.0531998-3.4387207,12.0647049-6.9521484,18.1659775-10.3023071
		c18.6075668-10.2171936,36.4249649-21.7386322,54.49543-32.8430176c2.6780243-1.6456604,5.2799377-3.4182129,8.0626221-4.8919067
		C185.10466,239.8000793,184.9481506,241.6434631,184.7915955,243.4868164z"></path>
	<path d="M182.9370117,158.286972c-11.9298096,6.8929901-23.8625183,13.7809753-35.7888947,20.6799316
		c-31.596756,18.2774353-63.1907959,36.5595398-94.7855072,54.8404846c-0.3436279,0.1988373-0.7289352,0.5426941-1.091259,0.2786865
		c-0.4307327-0.3138428-0.0416794-0.724823,0.1029663-1.0686035c0.7418098-1.763031,1.1872101-3.7671051,2.3362198-5.2094879
		c1.1272011-1.4149933,3.1468124-1.9604187,4.7851906-2.8659058c41.1757736-22.756897,82.3578491-45.5023956,123.5401001-68.2475739
		c0.3475952-0.1919708,0.7129517-0.3518219,1.0700073-0.5266418
		C183.1284943,156.8805237,183.2528687,157.6012573,182.9370117,158.286972z"></path>
	<path d="M120.5960083,165.8340454c-6.2750702,3.9392548-12.5439911,7.8883362-18.8263779,11.8158875
		c-16.7221832,10.4542236-33.6938705,20.4920044-50.7714157,30.3526459
		c-2.4193497,1.3969574-4.8404922,2.7911377-7.2767715,4.1581879c-0.3967667,0.2226257-0.8476677,0.7927856-1.2485771,0.497345
		c-0.4499474-0.3315582-0.3163376-0.9951782-0.1273804-1.5273285c0.0621262-0.2028961,0.1271248-0.4115601,0.1920166-0.6195374
		c16.6255455-9.9454346,33.2512398-19.89151,49.8768272-29.8377533c5.4851761-3.2814789,10.9701538-6.5632935,16.4549561-9.8454132
		c0.4069824-0.2435303,0.8117218-0.4907837,1.2078552-0.7304688c-0.0966034-0.5716705-0.8700943,0.013443-0.8556747-0.5840759
		c0.0097427-0.4038696,0.3576508-0.5989838,0.6302948-0.828598c2.6598511-2.2400208,5.3155899-4.4849701,7.9852371-6.7132874
		c0.3504715-0.2925262,0.6553802-0.8822327,1.1791382-0.6665192c0.5657349,0.2330322,0.1490173,0.8448334,0.2400208,1.2776947
		c0.0311127,0.1480103,0.0445709,0.2997437,0.088356,0.60495c3.4300079-1.7921448,7.0729904-3.0233459,10.2003784-5.1469727
		c17.9835968-12.2116547,35.8989563-24.5236206,53.8396149-36.7984543c0.3267975-0.2236023,0.6800995-0.4085236,1.0210419-0.6113434
		c-0.0368195,0.9772491,0.0292816,1.9659576-0.3287964,2.9067688
		c-11.1551819,7.6723099-22.3112793,15.3437729-33.6157837,22.7955093
		c-8.1027222,5.341156-16.2438354,10.6241302-24.3668747,15.934494c-0.3334427,0.2180023-0.6573334,0.4506378-0.9852982,0.6766357
		c-0.5490723,0.3217316-1.146698,0.5825195-1.4841385,1.1951141c0.6961975-0.1063995,1.3052979-0.3626099,1.7744522-0.9004517
		c2.9096222-1.4962463,5.6166229-3.3327026,8.4096069-5.0236359c6.1645813-3.7321777,12.2996979-7.5129852,18.4568939-11.257431
		c0.2183075-0.1327667,0.4824219-0.473587,0.9937286,0.0059509c-12.8490448,7.9449005-25.5678177,15.9622803-38.5442581,23.5587463
		c-0.0692596-0.1103668-0.1385269-0.2207336-0.2077942-0.3311005c1.5787201-0.9619598,3.1665649-1.9094391,4.7312927-2.893631
		c0.5584793-0.3512726,1.254631-0.5456238,1.5656433-1.2207489c0.0933075-0.0694733,0.186821-0.1387024,0.2803421-0.2079315
		c0.19767-0.0046539,0.3745499-0.0461121,0.4553909-0.2573853c0.0918274-0.0647736,0.1839294-0.1292725,0.2760315-0.1937561
		c0.1968536-0.0180206,0.3798065-0.0601807,0.4665451-0.2690277c0.0825195-0.0564728,0.1655655-0.1125031,0.2486038-0.1685486
		c0.4341354-0.116745,0.9093475-0.1876526,0.9487991-0.9159241c-0.4782333,0.1708527-0.8445282,0.340744-1.1194687,0.6818695
		c-0.102356,0.0564728-0.2047119,0.112915-0.3070602,0.1693878c-0.1403503,0.1003876-0.2807159,0.2007751-0.4210358,0.3012085
		c-0.1032257,0.0532532-0.2064667,0.1065063-0.3097153,0.159729c-0.1413116,0.1014252-0.2826233,0.2028503-0.4238815,0.3043518
		C120.7978897,165.732193,120.6969452,165.7831116,120.5960083,165.8340454z"></path>
	<path d="M41.3007965,263.8809814c8.1350021-5.3895874,16.27668-10.7690887,24.4037857-16.1705627
		c26.5449753-17.642334,53.0851517-35.2919006,79.6260147-52.9404755
		c6.484024-4.3116302,12.9636078-8.6299744,19.4451599-12.9452972c1.0907898-0.7262268,1.1672821-0.6251221,1.5543213,0.6061707
		c0.3776093,1.2012482,0.0357819,1.8062134-1.0153351,2.483429c-17.9149933,11.5422516-35.8027649,23.1267395-53.6877213,34.7155151
		c-20.6267166,13.3653412-41.2434311,26.7461395-61.8682785,40.1143799
		c-2.8575249,1.8521423-5.7368317,3.6707153-8.6060867,5.5047302
		C41.0571899,264.7771606,41.0336571,264.313324,41.3007965,263.8809814z"></path>
	<path d="M182.3627167,187.5475311c-3.2392273,1.7903137-6.487854,3.5639191-9.7151947,5.3753815
		c-3.5633087,2.0000763-7.1008606,4.0459442-10.6609192,6.0518494c-4.7284241,2.6641998-9.4696198,5.3058167-14.2019348,7.9631195
		c-5.7166748,3.2100525-11.4311981,6.4239044-17.1440582,9.6407318c-6.0232544,3.3916473-12.0391388,6.7963867-18.0663528,10.180954
		c-4.8721313,2.7359161-9.7611008,5.4418793-14.6339569,8.1765594c-5.9140167,3.3189545-11.8224945,6.6478119-17.726799,9.9839935
		c-6.1223602,3.4593811-12.2326355,6.9401703-18.3624115,10.386322c-0.5212746,0.2930603-1.3901978,0.9658051-1.6762314,0.4350891
		c-0.4230614-0.7849884,0.6767044-0.977356,1.1983681-1.2809448c9.0880165-5.2885895,18.1973305-10.5406189,27.2884483-15.8238983
		c7.0919342-4.12146,14.1578445-8.287674,21.248642-12.4111023c10.6212769-6.1764832,21.2577438-12.3268433,31.8811722-18.499649
		c9.4527435-5.492569,18.8912201-11.0096893,28.346756-16.4975281c4.1484985-2.4077301,8.3236542-4.7696228,12.4866943-7.1525726
		C182.692337,185.2445984,182.6672668,186.406601,182.3627167,187.5475311z"></path>
	<path d="M42.1396217,248.8075409c19.1621017-12.3787842,38.3281059-24.7515411,57.4850578-37.1382904
		c14.8541031-9.6045685,29.6961365-19.2277374,44.547348-28.8367615c0.5950165-0.3850098,1.22995-0.7082062,1.8449097-1.0626373
		c0.2743225-0.1581116,0.6196899-0.399353,0.8089752-0.0171661c0.1405182,0.283783-0.2523041,0.403244-0.4664612,0.5735168
		c-3.2236633,2.5629272-6.7734375,4.6476593-10.1892548,6.9256134
		c-28.2618408,18.8471069-56.5430069,37.6652985-84.8156128,56.4963074
		c-3.0719299,2.0460663-6.0805016,4.187912-9.2474747,6.0896454
		C42.0129089,250.8264618,41.9677887,249.8158417,42.1396217,248.8075409z"></path>
	<path d="M185.2719574,229.7837372c-5.4961395,2.8588867-10.9854736,5.7309265-16.4897308,8.5741425
		c-15.2793579,7.8924866-30.5685577,15.7659302-45.8452835,23.6634521
		c-3.5099564,1.8145447-6.9821091,3.7020264-10.481102,5.5379639c-0.4662399,0.2446594-1.1446838,0.7748108-1.4821777,0.1920776
		c-0.3919983-0.6768799,0.5028687-0.8798828,0.9309998-1.1217651c6.6606293-3.7626953,13.3483887-7.4774475,20.0065002-11.2445526
		c7.143158-4.0415649,14.2585754-8.1321106,21.3922882-12.1903992c5.1400604-2.924118,10.2962799-5.8198853,15.4340973-8.747879
		c4.913269-2.7999878,9.8115692-5.6261902,14.7184753-8.4373474c0.3392029-0.1943207,0.695282-0.3592224,1.0435181-0.5377655
		C184.9867554,226.8679199,185.2780609,228.2992249,185.2719574,229.7837372z"></path>
	<path d="M43.0681648,229.2247925c13.5175781-8.7441711,27.0379753-17.4839935,40.5520363-26.2335968
		c17.8720398-11.5711212,35.7386398-23.15065,53.6102676-34.7224121c0.6165619-0.399231,1.276413-0.7323303,1.8871307-1.1396179
		c0.263916-0.1760254,0.5565643-0.3236542,0.7290955-0.0626221c0.1921387,0.2906952-0.1571045,0.4968719-0.3620911,0.6615753
		c-0.5838776,0.469101-1.1650391,0.9475555-1.7875671,1.3618317
		c-31.3292542,20.8480072-62.6625671,41.6899414-93.9976501,62.5292053
		c-0.3633842,0.2416534-0.7557106,0.4398499-1.1345291,0.658844
		C42.5764847,231.2349243,42.7384377,230.2160492,43.0681648,229.2247925z"></path>
	<path d="M184.2946014,202.1703339c-1.9887848,1.0908356-3.9925385,2.1554565-5.9629364,3.2785339
		c-3.1006775,1.7672882-6.1738739,3.5826721-9.2678986,5.3617096c-4.2792053,2.460495-8.5615082,4.915741-12.852356,7.3558502
		c-5.303772,3.0161133-10.6231537,6.0048065-15.925766,9.0229492c-5.962326,3.3936462-11.9105988,6.8119812-17.8702927,10.2102509
		c-5.3978348,3.0778961-10.8085785,6.1331635-16.2030563,9.2168884c-5.3596802,3.0639038-10.6987991,6.1637268-16.060318,9.2243347
		c-6.97995,3.9845276-13.9794312,7.934845-20.9586487,11.9206238c-6.464035,3.6915588-12.9055672,7.4224548-19.3714981,11.1106262
		c-2.2899399,1.3061829-4.622612,2.5375061-6.9357872,3.8032532c-0.4137878-0.0690308-0.8258171-0.1425781-1.1376724-0.4621277
		c2.5875816-1.489624,5.1716576-2.98526,7.7632484-4.4677734c7.1507378-4.0905762,14.3030205-8.1784363,21.4577713-12.2619934
		c5.4009781-3.0826111,10.8106537-6.1500244,16.2093277-9.2366638c5.8705292-3.3564301,11.7292099-6.7335358,17.5997391-10.08992
		c5.2209473-2.9849854,10.4505081-5.954895,15.6772156-8.9297791c6.5019608-3.7007141,13.0059204-7.3979187,19.5070953-11.1000214
		c6.061615-3.4517975,12.1250763-6.9003448,18.1794739-10.3647461c4.8010712-2.7472839,9.5832214-5.5275726,14.3857727-8.2722321
		c3.8815613-2.2183228,7.7809906-4.4053955,11.6724091-6.6068878
		C184.3913116,201.3002014,184.3717804,201.7331543,184.2946014,202.1703339z"></path>
	<path d="M52.6042099,284.3450928c4.8224106-2.7368469,9.6379318-5.4858704,14.4691925-8.2070007
		c4.6696472-2.6300659,9.3611984-5.221283,14.0327835-7.8479309c5.8368912-3.2819214,11.6613464-6.5859375,17.4947052-9.874176
		c4.8074265-2.7098694,9.6240234-5.4035339,14.4292374-8.1172943c5.9287567-3.3482971,11.8442459-6.7200317,17.7761917-10.0626526
		c4.6631775-2.6277313,9.3514252-5.2110443,14.0124207-7.8426056c4.7287445-2.6697845,9.4284515-5.3909607,14.1582031-8.0589447
		c4.1019135-2.3138428,8.2375641-4.5679474,12.3408356-6.8794403c3.9648285-2.233551,7.9040222-4.512558,11.8648224-6.7533264
		c0.3967896-0.2244568,0.7737579-0.5394287,1.2719116-0.5467834c0.1278687,0.4742432,0.0837097,0.9279633-0.161087,1.3578339
		c-2.5954132,1.1306915-4.9360962,2.7290497-7.4267426,4.0544739c-2.8740234,1.52948-5.664093,3.216095-8.4979095,4.8215942
		c-4.7809296,2.7086334-9.5653076,5.4112854-14.3526611,8.1085815c-4.0114746,2.2601624-8.0322418,4.5038605-12.0435028,6.764389
		c-4.7937164,2.7014618-9.5765076,5.4224091-14.3738174,8.1175232c-4.1150818,2.3118439-8.2505569,4.5874634-12.3650055,6.9004669
		c-4.5616989,2.5644379-9.1062012,5.1594238-13.6647568,7.7294464c-4.8070831,2.710144-9.6259842,5.3993835-14.4322891,8.1109009
		c-5.7955933,3.2696533-11.5821381,6.5552673-17.3748779,9.8299255c-4.7245178,2.6707764-9.4525528,5.3353271-14.1784706,8.0036316
		c-0.3052711,0.1723938-0.6057892,0.3531189-0.9085884,0.5299683
		C53.9714661,284.632843,53.2850304,284.5309753,52.6042099,284.3450928z"></path>
	<path d="M43.4037895,205.6920624c7.0533752-5.8328552,14.1523399-11.6120148,21.1320152-17.5316467
		c2.0605087-1.7475891,4.6063614-1.8636475,6.921257-2.7475281c0.2104797-0.080368,0.4896393-0.0796051,0.5690231,0.2476196
		c0.08284,0.3414764-0.1630936,0.5130005-0.3813858,0.6815338c-1.1070328,0.85466-2.2239685,1.6965332-3.3297119,2.5528412
		c-8.2152634,6.3620758-16.4281616,12.7272339-24.64505,19.0872345c-0.282196,0.2184448-0.5986938,0.3926239-0.8991508,0.5880432
		C42.8440094,207.5809326,42.9189796,206.5914917,43.4037895,205.6920624z"></path>
	<path d="M186.2413788,265.2232056c-3.146698,2.9476929-6.04039,6.1446533-9.0751038,9.2026672
		c-1.34935,1.3597412-2.6872101,2.730896-4.03508,4.0921326c-0.2518463,0.2543335-0.5843506,0.5736694-0.9064026,0.2680664
		c-0.256546-0.2434387,0.0267639-0.5939941,0.2037048-0.8511353c4.3574677-6.3318787,8.7182922-12.6614685,13.0826111-18.9886475
		c0.0630035-0.0913391,0.1775208-0.1472473,0.2680359-0.2199707
		C186.0776978,260.8814697,186.311676,263.0415344,186.2413788,265.2232056z"></path>
	<path d="M182.6383514,168.5728607c-6.4650269,4.1877899-12.9243011,8.3845062-19.3973236,12.5599213
		c-3.6754913,2.3708496-7.3734894,4.7068787-11.165329,7.1248932c-0.2112427-0.8785248,0.3860474-1.0472412,0.7678833-1.3036194
		c5.763031-3.869873,11.5312653-7.7320404,17.3050842-11.5858307c3.7862854-2.5272064,7.5824585-5.0396118,11.3775177-7.5536499
		c0.3628082-0.2403412,0.7493134-0.4449463,1.1248169-0.6662445
		C182.806015,167.6245422,182.8766479,168.1000671,182.6383514,168.5728607z"></path>
	<path d="M182.6325226,139.8422241c-7.1646118,4.6319122-14.328476,9.2649536-21.4945679,13.894577
		c-1.1456299,0.7401581-2.2451172,1.5746002-3.7220764,1.9586334c0.0723724-0.7409058,0.5701752-1.0232849,0.9889526-1.3022766
		c7.9971161-5.328125,16.00354-10.6422882,24.0102844-15.9559784c0.0966187-0.0641327,0.2223816-0.0843658,0.3345337-0.1255646
		C182.8736572,138.8339691,182.8385315,139.3446198,182.6325226,139.8422241z"></path>
	<path d="M142.7082367,165.1241302c2.6858826-2.3435822,5.8604279-3.8836517,8.6380005-6.0040894
		c0.9427643-0.7197266,1.9796753-1.2604523,3.0528412-1.7431793c0.1814575-0.0816498,0.3947601-0.4056854,0.5745697-0.0412903
		c0.1218567,0.2469025-0.0498505,0.4351349-0.2796936,0.5774078c-0.6430511,0.397995-1.2659302,0.8289337-1.9130707,1.2198792
		c-2.6602783,1.6071167-5.2607117,3.3054352-7.7967529,5.1013184
		C144.291214,164.7248535,143.4921112,164.9131927,142.7082367,165.1241302z"></path>
</g>
<g onclick="select(this)" class="" id="gola-primaria" fill="#000000">
	<path d="M109.3256989,35.9207878c-0.1734467,0.532753-0.5917358,0.2743607-0.9039154,0.2516022
		c-4.1043777-0.299221-7.9513092-1.505722-11.6402817-3.2895241c-5.3551407-2.5894814-10.2299652-5.8816833-14.3707428-10.1524506
		c-2.6511154-2.734333-4.9007111-5.7867432-5.7837296-9.6242762c-0.2346497-1.0197554-0.4030762-2.0421906-0.2305679-3.0806484
		c0.1655655-0.9966812,0.9428787-1.529851,1.6987534-2.062746c0.5144196-0.0249214,0.9029312-0.3084855,1.2525024-0.6408176
		c0.9263763-0.8806958,2.0002518-1.6613083,2.7274628-2.6858997c2.0422745-2.8774152,5.0195923-3.6035271,8.2394028-3.9384618
		c3.0734558-0.3197089,6.1407471,0.0640202,9.2119827,0.0276009c4.3973541-0.0521445,8.7971802,0.0443054,13.1931534-0.0513445
		c7.9102249-0.1721148,15.8182297,0.0474188,23.7272263,0.0364116c0.9124146-0.0012698,1.828537,0.1745476,2.7369537,0.3088157
		c2.2481232,0.332287,4.1498718,1.1915944,5.5701294,3.1200867c1.2012482,1.6310925,2.6129456,3.1247711,4.4388733,4.1271977
		c1.6919098,0.471426,2.2952423,2.5105724,1.6758423,4.7444515c-1.1704712,4.2214594-3.5445099,7.6803961-6.6416321,10.6471872
		c-2.7457275,2.6302032-5.8013458,4.901825-9.102417,6.8089809c-4.071167,2.3520851-8.2753143,4.4175797-12.9284058,5.3568268
		c-1.3970261,0.2819977-2.8357391,0.3577576-4.2551346,0.5281792c0.4981461-1.1476097,1.3241043-2.0655403,2.1212006-3.0007629
		c2.248703-2.6383533,4.9448242-4.810585,7.4805527-7.1498508c2.1459198-1.6623192,4.2819519-3.3376217,6.4404449-4.9834862
		c2.392868-1.8246021,4.6131897-3.8312626,6.5503387-6.1364632c1.4909363-1.7742386,2.8118439-3.6581097,3.6611938-5.995595
		c-2.0445251,0.171031-3.9476471,0.3502245-5.8538818,0.4858923c-5.379715,0.3828764-10.7599335,0.7590179-16.1413574,1.1168613
		c-5.5895386,0.3716831-11.1788483,0.4153547-16.7722092,0.018959c-7.1327515-0.5054932-14.2606812-1.060936-21.3717041-1.816123
		c-0.7256699-0.0770664-0.9725952,0.1089544-0.6669769,0.8316221c0.5152588,1.2184,1.126152,2.3757305,1.9132462,3.447176
		c3.9235306,5.3410435,9.441452,8.9155712,14.446228,13.0588207
		C103.1151276,29.2874451,106.6069336,32.222599,109.3256989,35.9207878z"></path>
</g>
<g onclick="select(this)" class="" id="detalhe-lateral" fill="#ffffff">
	<path d="M180.3169098,283.9697266c-0.3938751-5.0127869-0.5727386-10.0362244-0.8100586-15.0577393
		c-0.282486-5.9776611-0.5378265-11.9543762-0.7411346-17.9355164c-0.1653748-4.8657379-0.3150482-9.7320404-0.4851532-14.597168
		c-0.2554474-7.3048248-0.3230438-14.611908-0.5149689-21.9160767c-0.4473877-17.026535-0.1677856-34.0520782-0.1540527-51.0777435
		c0.0038757-4.8250732,0.1699829-9.658493,0.4935303-14.4725189c0.3222656-4.7945404,0.6694794-9.5894623,1.1401062-14.3773499
		c0.9476013-9.6400223,2.522995-19.1615753,4.9313965-28.5371094c1.2419739-4.834877,2.7194824-9.608345,4.7613068-14.1821518
		c0.1013336-0.2270203,0.0921478-0.5706024,0.4303741-0.6598129l-0.0207214-0.0194473
		c0.2196045,0.4597931-0.0706329,0.8524323-0.1864014,1.2576218c-1.8860931,6.6003571-3.1680298,13.3224106-4.0814209,20.1194611
		c-0.4264069,2.5465698-0.4257202,5.1188202-0.4629211,7.688797c-1.2378235,10.3072052-2.2989655,20.6278992-1.9510498,31.0315857
		c0.0821381,2.4562225,0.7914734,4.8716583,0.4144745,7.3699951c-0.3516235,2.3302765-0.4445953,4.684967-0.4245453,7.0450745
		c0.0559845,6.582428,0.098587,13.1757202-0.1155396,19.7438812c-0.1456757,4.4695435,0.7072906,8.6924438,1.4236298,12.9963837
		c0.8506927,5.1109314,0.9480896,10.2349701,0.2398224,15.3761444c-0.3209076,2.3293762-0.54039,4.6726532-0.8144379,7.008606
		c-0.0490723,0.4181976,0.1008759,0.7893066,0.2301788,1.1618195c1.989563,5.7316895,2.4832916,11.6064911,1.5848999,17.5875092
		c-0.3058167,2.0359802-0.3425293,4.0207977,0.0992279,6.0381927c0.4457397,2.035675,0.5504761,4.1139832,0.5100098,6.1976929
		c-0.1430817,7.3665771,0.683609,14.670929,1.384079,21.9852905c0.2195892,2.2928162,0.3340759,4.5978088,0.3145142,6.9078064
		c-0.0094452,1.1127625-0.4973297,1.8139954-1.5031281,2.1914368
		C184.1745911,283.5326233,182.2864838,283.9595947,180.3169098,283.9697266z"></path>
	<path d="M42.4525146,112.7778625c0.0891304-1.9299164-0.3513565-3.8075333-0.5991211-5.7007065
		c-0.3732796-2.8522339-0.8833809-5.6866074-1.2544365-8.5390854c-0.0882454-0.6783676-0.8202057-1.239563-0.2923431-2.1296234
		c0.9014931,1.8765564,1.3568306,3.8127823,1.9383469,5.6982117c1.892025,6.1343842,3.1134682,12.4154968,4.1846809,18.7393494
		c0.7700386,4.5458832,1.3809853,9.100647,1.8283081,13.6878357c0.4091072,4.1953125,0.7145462,8.3927002,0.9685097,12.6003418
		c1.2914009,21.395874,0.6496124,42.8105927,0.6577225,64.2175446c0.0015144,3.9883881-0.0966606,7.98703-0.1893997,11.9799347
		c-0.1455345,6.2663422-0.2806168,12.5340118-0.535202,18.7964172c-0.1799202,4.4257202-0.3308334,8.8512878-0.473175,13.2781372
		c-0.1807213,5.6206055-0.3782196,11.2443237-0.7604179,16.8535767c-0.2574959,3.7790527-0.196804,7.579834-0.7390556,11.3394775
		c-1.7242279-0.0837708-3.3719635-0.5368042-4.9835625-1.1030884c-1.6184654-0.5686951-2.0121346-1.1141663-1.9840698-2.8423157
		c0.0452156-2.7842407,0.1874161-5.5641479,0.4140472-8.3428955c0.431675-5.2928772,0.7171974-10.5978699,1.1692505-15.8888245
		c0.4074936-4.7694855-0.0650482-9.592804,0.9218788-14.3255157c0.1883888-0.9033813,0.0964546-1.8375397-0.042675-2.744751
		c-0.4781952-3.1182098-0.3503647-6.2133179,0.3311234-9.2835846c0.1949081-0.8781128,0.1388702-1.7289124,0.0771484-2.6109161
		c-0.2841988-4.0611115-0.8382988-8.1011047-0.8580627-12.1838684c-0.0239258-4.942688,1.0864563-9.6556549,2.7438126-14.2636871
		c0.3171997-0.881958,0.5332336-1.7270813,0.4237556-2.675354c-0.1839256-1.5931854-0.141243-3.1873627,0.1506195-4.7743683
		c0.1077003-0.5856476,0.1623573-1.1927948,0.1462173-1.7875824c-0.1308823-4.8229065-0.2779045-9.645401-0.4356956-14.4675293
		c-0.0367355-1.1227112,0.0765038-2.2321014,0.1623611-3.3472748c0.144268-1.8738251,0.1034241-3.7475739-0.048111-5.6235199
		c-0.4092598-5.0663605-0.1779556-10.145752-0.0681305-15.2097778c0.196312-9.0511017-0.2082138-18.0476379-1.5041733-27.0064316
		c-0.2226868-1.5393982-0.3748512-3.0890045-0.5595245-4.6338654c0.5152626-1.2158585-0.2161751-2.3334808-0.3642349-3.4790726
		C42.6969795,115.5973511,42.9329262,114.1476212,42.4525146,112.7778625z"></path>
</g>
<g onclick="select(this)" class="" id="detalhe-punho" fill="#ffffff">
	<path d="M0.24,114.41436c0.5066518-1.0333099,0.4623487-2.1853943,0.7029477-3.2761536
		c0.1164828-0.5280762,0.0638708-1.1035385,0.4705237-1.5418396c4.7471166,1.9192047,9.661128,3.2643356,14.739399,3.8523865
		c5.6213551,0.6509323,11.2752342,0.8683701,16.9397697,0.6843262c2.350296-0.076355,4.6895752-0.1641083,7.0189934-0.5657349
		c0.8487549-0.1463318,1.4449158-0.8912582,2.3408813-0.7894821c0.4804115,1.3697586,0.2444649,2.8194885,0.4263916,4.2271881
		c0.1480598,1.1455917,0.8794975,2.2632141,0.3643112,3.4790955c-2.841095,1.3330917-5.9081955,1.7382584-8.9673958,1.7949448
		c-7.0645809,0.130928-14.1399384,0.3043518-21.1575737-0.9066238c-3.6142483-0.6236801-7.2130728-1.2875977-10.7040243-2.4304047
		c-0.7462479-0.2443008-1.4505816-0.6164856-2.1742241-0.9297638C0.24,116.8129883,0.24,115.613678,0.24,114.41436z"></path>
	<path d="M184.6167908,120.2029724c0.0372009-2.5699768,0.0365143-5.1422272,0.4629211-7.688797
		c0.9396362,0.5695877,1.9786682,0.9036407,3.0544434,0.9562988c5.6075439,0.2745056,11.228775,0.5989304,16.8232422-0.0108337
		c3.9904938-0.4349365,7.9450073-1.161026,11.8859558-1.9935684c3.0928345-0.6533813,6.000824-1.8692627,9.0736084-2.5406494
		c0.6487732-0.1417542,1.2501068-0.5003433,1.873291-0.7590942c1.0290527,2.4653549,1.3149261,5.0500107,1.1316986,7.6846695
		c-0.0435181,0.6258698-0.7669983,0.7556763-1.2712555,0.942894c-3.2154999,1.1938553-6.5277557,2.0655441-9.8517761,2.8920898
		c-8.3978119,2.0882339-16.9433594,2.4642563-25.539505,2.1048508c-1.8251953-0.0763016-3.6426392-0.4177322-5.4543915-0.6971664
		C186.0230713,120.9730606,185.2617188,120.7066879,184.6167908,120.2029724z"></path>
</g>
<g onclick="select(this)" class="" id="gola-secundaria" fill="#ffffff">
	<path d="M127.5429077,26.2013435c-2.5357285,2.3392677-5.2318497,4.5114994-7.4805527,7.1498528
		c-0.7970963,0.9352226-1.6230545,1.8531532-2.1212006,3.0007591c-2.3132095,0.5602531-4.6457596,0.380825-6.9806519,0.1973152
		c-0.6160583-0.0484238-1.1409073-0.2847061-1.6344376-0.6280861c-2.7191315-3.6985855-6.2109375-6.6337395-9.5777512-9.6924343
		c2.8338776-0.0287647,5.6676941-0.0822201,8.5014725-0.080719
		C114.6808319,26.1514378,121.1118698,26.1818867,127.5429077,26.2013435z"></path>
</g>
<path d="M189.3682404,91.1565399c0.0375671-0.1338425,0.0751343-0.2676697,0.1127014-0.4015045
	c0.0261383,0.028389,0.072525,0.0551529,0.0749512,0.0854416c0.012146,0.1519699,0.0203705,0.3102493-0.208313,0.2966614
	C189.3475342,91.1370926,189.3682556,91.1565399,189.3682404,91.1565399z"></path>
</svg>
