<!--?xml version="1.0" encoding="utf-8"?-->
<!-- Generator: Adobe Illustrator 25.0.1, SVG Export Plug-In . SVG Version: 6.00 Build 0)  -->
<svg version="1.1" id="Camada_1" xmlns="http://www.w3.org/2000/svg" xmlns:xlink="http://www.w3.org/1999/xlink" x="0px" y="0px" viewBox="0 0 233 419" enable-background="new 0 0 233 419" xml:space="preserve">
<g onclick="select(this)" class="" id="c-estampa-primaria" fill="#000000">
	<path d="M46.5797157,116.2950058c0.185257-0.6483917-0.6537361-0.9849701-0.4953499-1.6253433
		c0.5182152,0.0226059,0.6628151-0.4720535,0.6060638-0.7240372c-0.280571-1.2458649-0.0024986-2.5490494-0.4596062-3.7740936
		c-0.6063385-1.6249771-0.8805771-3.309021-0.9140816-5.0521164c-0.0335388-1.7450027,0.0705605-3.5604324-0.3755188-5.2129059
		c-0.5828209-2.158989-0.539711-4.3322754-0.7531052-6.4977798c-0.3980331-4.0393677-1.520134-7.9533386-1.9846001-11.9856033
		c-0.1975327-1.7148361-1.3414497-3.1512909-2.2492752-4.6143951c-0.7971649-1.2847672-1.6851196-2.5023575-2.3088303-3.903244
		c-1.2873306-2.891449-2.0342979-5.9559021-3.0267525-8.9413643c-2.7424545-8.2497559-4.2003059-16.6715012-3.3990879-25.3932762
		c0.1052742-1.1459999,0.1410866-2.2846794,0.1466522-3.4348526c0.0043144-0.891304,0.4792271-1.795208,0.052166-2.7290077
		c3.4728107-1.6030388,6.8956928-3.326992,10.4286785-4.7843227c7.7137451-3.1818562,15.4091187-6.4014969,23.0177917-9.8284798
		c4.0938568-1.843895,7.8964233-4.1892042,11.6719589-6.589592c0.4143219-0.2634115,0.7095108-0.6315708,1.0264282-0.9923935
		c1.1756058-1.3385038,2.5758896-2.2574015,4.4347382-2.2701569c3.1979675,0.0525031,6.3340836,0.674572,9.4939804,1.0660105
		c4.2705994,0.5290289,8.5308456,1.1491327,12.8368759,1.3105574c4.464386,0.1673594,8.9158554,0.8124199,13.38237,0.6483946
		c7.6079636-0.2793884,15.2081909-0.7163286,22.7851257-1.5451574c4.3106537-0.4715357,8.5646973-1.341507,12.8898468-1.6806526
		c2.0128479,0.0676675,3.5430756,1.0186796,4.8133698,2.5284395c0.9441833,1.1221704,2.2803955,1.7418261,3.5247192,2.4450235
		c9.2702637,5.2388725,19.0028076,9.4937687,28.8939819,13.3912182c4.3552551,1.716116,8.4536591,3.9741306,12.7511292,5.8048477
		c0.1732025,0.0737801,0.3069153,0.2401142,0.4586182,0.3631573c-0.3523254,0.8024063-0.4155426,1.6195412-0.0298767,2.4191933
		c0.1311951,0.2720184,0.181839,0.4944839,0.0951538,0.7878418c-0.2670898,0.9039192-0.1110077,1.8232651-0.0374908,2.7345352
		c0.4286499,5.3122177,0.2358093,10.5978088-0.7501373,15.8386192c-0.9081573,4.8272133-2.5077057,9.4690361-3.8674164,14.1763763
		c-0.8522186,2.9503632-2.1963043,5.6354218-3.8081818,8.2168579c-0.3022461,0.4840775-0.6337433,0.9346771-1.132782,1.2096786
		c-0.875824,0.4826508-1.296402,1.3258286-1.5685272,2.1804428c-1.2528992,3.9347839-1.6907501,8.009079-1.938736,12.110878
		c-0.1130219,1.8693085-0.019928,3.7922363-0.4386902,5.5937042c-1.001297,4.3073273-1.4461823,8.6330566-1.2836304,13.0452652
		c0.0344086,0.9342422-0.2644653,1.8807449-0.4099274,2.8218384c-0.1396332,2.1776733-0.4706116,4.32901-0.8825073,6.4693375
		c-0.4181519,0.1386261-0.4368439,0.4838867-0.5017548,0.8530045c-0.7082367,4.0284653-1.0413055,8.1047592-1.4679413,12.1644669
		c-0.5024567,4.7813721-0.8779907,9.5827484-1.1015625,14.3850861c-0.2931519,6.2973938-0.5302429,12.6040497-0.5359344,18.9069672
		c-0.021698,24.0374298-0.3027039,48.0778046,0.8050842,72.1051788c0.2349701,5.0960693,0.3302917,10.2025604,0.5016632,15.3040771
		c0.208786,6.2147522,0.4924774,12.4246521,0.7497253,18.6366577c0.1732025,4.1817932,0.4486237,8.3577271,0.6026001,12.5396729
		c-7.607132,1.9840088-15.3674011,2.9150085-23.1973114,3.3590088c-14.212677,0.8060303-28.4416962,0.8194885-42.6705322,0.9506836
		c-14.7494659,0.1360168-29.499939,0.3515015-44.247261,0.1172791c-9.3971634-0.1492004-18.7562866-0.9642639-27.9142876-3.2998352
		c-0.151947-0.0387268-0.2957077-0.1096191-0.4425812-0.1655273c0.1843681-1.6255493,0.1574097-3.2635803,0.2652817-4.8948059
		c0.3707848-5.6069336,0.6154099-11.223999,0.8027077-16.8406982c0.1355629-4.0651855,0.3074532-8.1278992,0.473423-12.1915894
		c0.2491112-6.0993042,0.3875389-12.2032623,0.5507965-18.3058472c0.0640221-2.3931427,0.0883255-4.7858124,0.176075-7.1799927
		c0.2413216-6.5841522,0.4173012-13.1746826,0.4211426-19.7628021c0.0103149-17.6988831,0.2436218-35.4001617-0.2846985-53.0953064
		c-0.0724525-2.4267578-0.2412376-4.8573608-0.3755302-7.2850342c-0.2304344-4.1654358-0.5802383-8.3254242-0.9457321-12.4819031
		c-0.2467003-2.805603-0.6307182-5.598877-0.9080925-8.4021149c-0.2370377-2.3955841-0.5713921-4.7791977-1.272316-7.0769653
		C47.065361,117.5858994,47.5537605,116.6536255,46.5797157,116.2950058z"></path>
	<path d="M188.6579132,113.4088669c0.1453094-0.9408493,0.4441833-1.887352,0.4097748-2.8215942
		c-0.1625519-4.4122086,0.2823334-8.7379379,1.2836304-13.0452652c0.4187622-1.8014679,0.3256683-3.7243958,0.4386902-5.5937042
		c0.2479858-4.101799,0.6858368-8.1760941,1.938736-12.110878c0.2721252-0.8546143,0.6927032-1.6977921,1.5685272-2.1804428
		c0.4990387-0.2750015,0.8305359-0.7256012,1.132782-1.2096786c1.6118774-2.5814362,2.9559631-5.2664948,3.8081818-8.2168579
		c1.3597107-4.7073402,2.959259-9.3491631,3.8674164-14.1763763c0.9859467-5.2408104,1.1787872-10.5264015,0.7501373-15.8386192
		c-0.0735168-0.9112701-0.229599-1.830616,0.0374908-2.7345352c0.0866852-0.2933578,0.0360413-0.5158234-0.0951538-0.7878418
		c-0.3856659-0.7996521-0.3224487-1.616787,0.0298767-2.4191895c0.244751,0.1315155,0.5320892,0.2172737,0.7270813,0.4009552
		c3.7481689,3.5309639,7.8153381,6.7530899,10.8273773,11.0032272c3.8502655,5.4328995,6.5025024,11.4290199,8.3473663,17.8068161
		c1.8612213,6.4343071,2.5635376,13.068676,3.6293793,19.6519051c1.5700531,9.6974792,2.6227722,19.4789429,4.6446838,29.1037216
		c0.0975342,0.4642105,0.0895996,0.9505463,0.1307678,1.4267502c-1.1613007,0.2897034-2.3131256,0.6268082-3.4855652,0.8605957
		c-5.2816315,1.0531921-10.633194,1.6348572-15.9672394,2.3379288c-4.5540771,0.6002655-9.1077118,0.9758301-13.7149963,1.0247879
		c-3.2663116,0.0347137-5.9070282-1.0543747-8.3687897-2.9666061c-0.4225311-0.328186-0.8148651-0.729599-1.2762299-0.7082291
		C188.8727264,112.589859,189.4504089,113.3088074,188.6579132,113.4088669z"></path>
	<path d="M31.4183903,32.4069862c0.4270611,0.9337997-0.0478516,1.8377037-0.052166,2.7290077
		c-0.0055656,1.1501732-0.041378,2.2888527-0.1466522,3.4348526c-0.801218,8.7217751,0.6566334,17.1435204,3.3990879,25.3932762
		c0.9924545,2.9854622,1.7394218,6.0499153,3.0267525,8.9413643c0.6237106,1.4008865,1.5116653,2.6184769,2.3088303,3.903244
		c0.9078255,1.4631042,2.0517426,2.899559,2.2492752,4.6143951c0.4644661,4.0322647,1.5865669,7.9462357,1.9846001,11.9856033
		c0.2133942,2.1655045,0.1702843,4.3387909,0.7531052,6.4977798c0.4460793,1.6524734,0.34198,3.4679031,0.3755188,5.2129059
		c0.0335045,1.7430954,0.3077431,3.4271393,0.9140816,5.0521164c0.4571075,1.2250443,0.1790352,2.5282288,0.4596062,3.7740936
		c0.0567513,0.2519836-0.0878487,0.7466431-0.6060638,0.7240372c-0.1596222-0.8463593-0.3192825-1.6928635-0.5350494-2.8368607
		c-1.7375069,2.5469818-4.2785683,2.1537476-6.5608978,2.3492203c-4.2981262,0.368103-8.6075993,0.2233887-12.8986778-0.2197342
		c-1.5838432-0.163559-3.1528378-0.4698334-4.7291145-0.707634c-3.4245071-0.5166168-6.853446-1.0724945-10.2325821-1.7766113
		c-3.1150322-0.6491089-6.2374821-1.2606277-9.3613768-1.8658905c0.4811549-3.2370834,0.9884026-6.4704666,1.4379306-9.7118454
		c0.9398181-6.77668,2.8408673-13.3459015,4.2595739-20.0188599c0.9125152-4.2920761,1.1723132-8.7018204,2.1520391-12.9902496
		c1.6359644-7.1609039,3.9090691-14.073616,7.905407-20.3133125c2.7608185-4.3106155,6.1670017-8.0535927,10.2035542-11.1928902
		C28.9751701,34.4128494,29.9475403,33.098835,31.4183903,32.4069862z"></path>
</g>
<path d="M-1489.3000488,326.6000061c0.0999756,0.1000061,0.0999756,0.2000122,0,0.2999878
	C-1489.3000488,326.7999878-1489.3000488,326.7000122-1489.3000488,326.6000061z"></path>
<path d="M-1342.6999512,338c0-0.1000061,0-0.2000122,0-0.2999878
	C-1342.5999756,337.7999878-1342.5999756,337.7999878-1342.6999512,338
	C-1342.5999756,337.8999939-1342.5999756,338-1342.6999512,338z"></path>
<path d="M-1475.0999756,352.1000061H-1475H-1475.0999756z"></path>
<path d="M-1350.5999756,87.3000031c-0.0999756-0.0999985-0.0999756-0.0999985-0.1999512-0.1999969
	C-1350.6999512,87.1999969-1350.5999756,87.1999969-1350.5999756,87.3000031z"></path>
<g onclick="select(this)" class="" id="c-estampa-secundaria" fill="#ffffff">
	<path d="M45.6012268,236.6970215c2.9193115,1.4790344,5.6023865,3.3509216,8.3799973,5.063324
		c12.6998367,7.8294983,25.2870178,15.846283,38.0934982,23.4967651
		c10.399704,6.2127075,21.0540009,11.9996948,31.5941772,17.9775696c3.1583786,1.7912598,6.3127289,3.5896301,9.7808075,5.5621338
		c-0.7176056,0.046875-1.0887756,0.0913086-1.460083,0.0922546c-4.5183716,0.0119934-9.0368042,0.0115356-13.55513,0.0314941
		c-0.6555176,0.0028992-1.2403564-0.1124268-1.826828-0.4386902c-19.7207108-10.9710388-39.4480743-21.9301758-59.17799-32.8847504
		c-0.5714264-0.317276-1.0193329-0.7245636-1.4091225-1.2553558c-3.1874352-4.3402405-6.3962746-8.6647949-9.6041336-12.990036
		c-0.2120476-0.2858887-0.4695282-0.5381317-0.7067032-0.8096924
		C45.5204735,239.262207,45.5374413,237.9802551,45.6012268,236.6970215z"></path>
	<path d="M48.0959435,155.2689514c1.2849617,0.3600159,2.3487892,1.1580963,3.4927101,1.7894897
		c34.6183624,19.1075134,69.2305603,38.2262115,103.8433228,57.3438873
		c7.5170898,4.1519012,15.0285645,8.3140411,22.5560455,12.4470825c0.674881,0.3705292,1.0875549,0.8357239,1.3612518,1.5541687
		c0.5531921,1.4519348,1.2145844,2.8623962,1.8070526,4.2999573c0.1417999,0.3440552,0.5507812,0.7462921,0.1846771,1.0869598
		c-0.4060364,0.3778534-0.8097992-0.0365906-1.1753998-0.2481079c-8.7465973-5.0604095-17.4901581-10.1260681-26.2370453-15.1859894
		c-29.5939484-17.1196289-59.1894379-34.2366333-88.783226-51.3565826
		c-5.7041206-3.2998199-11.4032669-6.6082458-17.104702-9.912796
		C47.9425926,156.4774017,47.9472198,155.8709869,48.0959435,155.2689514z"></path>
	<path d="M111.754364,165.8369751c1.1201782,1.299057,2.7830276,1.7920532,4.1186066,2.7706146
		c0.7330856,0.5371094,1.6701126,0.8201752,2.2158585,1.5923309c-0.0651627,0.0957336-0.1303253,0.191452-0.195488,0.2871857
		c-12.8717346-7.8810425-25.7434769-15.7620697-38.7010956-23.695694c0.6753464-0.4638824,1.0512619-0.0084839,1.401413,0.203476
		c8.6436768,5.2330017,17.2747726,10.4867706,25.9112778,15.7316589c0.1997147,0.1212616,0.4358215,0.1827087,0.6553192,0.2714844
		c0.4799576,0.515274,1.0644608,0.821228,1.7797012,0.8940277c-0.3487396-0.5929871-0.9304581-0.8717651-1.4846802-1.1850281
		c-7.9134598-5.1755524-15.8461609-10.3219604-23.7358627-15.5334167
		c-11.9537964-7.8959503-23.7956429-15.9578247-35.5614433-24.1310883
		c-0.2949104-0.2048721-0.5972404-0.3990707-0.8961105-0.5987625c-0.315918-0.8926544-0.2105064-1.8197632-0.2273598-2.7366638
		c1.7458191,0.8106232,3.2217484,2.0410614,4.7941513,3.1155014c17.0832748,11.6732788,34.1272354,23.4042816,51.2499619,35.0193634
		c3.0936661,2.098587,6.700882,3.3224945,10.0133286,5.0364838c0.1035538-0.1360779,0.1647949-0.186264,0.1865387-0.2499084
		c0.174614-0.5113373-0.3488235-1.266449,0.2261887-1.5343781c0.6433182-0.2997894,1.0178604,0.4816284,1.4516678,0.8408356
		c2.585022,2.1404877,5.1409836,4.3160706,7.7061005,6.4805756c0.2989578,0.2522736,0.7669754,0.4680023,0.6508408,0.9167328
		c-0.1400375,0.5410004-0.7338104-0.013031-1.0889282,0.3805542c22.2308197,13.3032379,44.4535828,26.6016235,66.6765289,39.901474
		c0.2871094,0.4783478,0.2229462,1.0132141,0.2532196,1.5318604c0.2305145,1.3207397-0.4615326,0.6993866-0.9350586,0.4271698
		c-5.3190613-3.0572815-10.6315918-6.1260376-15.9524536-9.1802063c-0.3534241-0.2028656-0.6469574-0.6190338-1.1539459-0.4345551
		l0.0146027,0.0114288c-0.2163391-0.5571594-0.6553192-0.7452393-1.2155151-0.7323608l0.0195312,0.0129242
		c-0.0007172-0.4238892-0.3948822-0.4634399-0.6416626-0.6076965
		c-19.1668091-11.2050323-38.0961456-22.7973633-56.8002777-34.7575226
		c-0.1677399-0.107254-0.3488541-0.1936188-0.5239258-0.2891388c-0.1014175-0.0511017-0.2026215-0.1028442-0.3038177-0.1545868
		c-0.1409988-0.1011047-0.2820053-0.2022247-0.4232864-0.3027802c-0.1036835-0.0534515-0.207077-0.1074677-0.3104706-0.161499
		c-0.1401291-0.1000671-0.2802582-0.2001495-0.4206467-0.2998657c-0.1027069-0.0566864-0.2051544-0.113739-0.3075943-0.1707916
		c-0.3298264-0.2827759-0.6169281-0.6661072-1.1955643-0.5447845c0.2026443,0.531601,0.5775375,0.7014465,1.0221176,0.7759705
		c0.0833359,0.0555725,0.1663589,0.1129303,0.2493744,0.1703033c0.0864716,0.2092743,0.2698135,0.2507477,0.4670639,0.2678833
		c0.0923462,0.0643005,0.184166,0.1297607,0.2759705,0.1952057c0.0808563,0.2112579,0.2576294,0.2528992,0.4559479,0.2566376
		C111.5681,165.6971741,111.6612244,165.7670746,111.754364,165.8369751z"></path>
	<path d="M190.691803,264.2739868c-0.2476044,0.5365295-0.4195251,0.0584412-0.5954132-0.0554504
		c-12.2721252-7.9455872-24.5408783-15.8964539-36.8117065-23.8440704
		c-9.7915192-6.3418274-19.5898743-12.6731262-29.3770142-19.0216827
		c-14.9612427-9.7047424-29.9132919-19.4236603-44.8740921-29.1290894
		c-4.0179214-2.6065216-8.0537338-5.1855164-12.0805359-7.7783813c-0.8516235-0.5483398-1.1244507-2.4764709-0.4105759-3.1598511
		c0.4359665-0.4173279,0.8032455,0.0118408,1.1477051,0.2409668c2.5252838,1.6797333,5.0418472,3.3725586,7.5668106,5.0527954
		c11.4333267,7.6083221,22.8658981,15.2177582,34.3035889,22.819519
		c21.9439468,14.5844116,43.8898392,29.1658783,65.8380203,43.7439423
		c5.0497131,3.3540497,10.1118622,6.6894073,15.1682892,10.0333405
		C190.6085052,263.5420837,190.6501465,263.90802,190.691803,264.2739868z"></path>
	<path d="M48.5666733,183.2273407c1.7152824,0.4636688,3.0910187,1.5788116,4.5902786,2.4415588
		c8.8022919,5.0654602,17.5813675,10.1712799,26.3604126,15.2770081
		c10.9760895,6.3834991,21.9410629,12.786087,32.9173431,19.1692352
		c10.0798264,5.8618469,20.1669922,11.7111053,30.2533112,17.5617981
		c9.5393524,5.5334167,19.0836182,11.0583649,28.6175537,16.6010895c0.4816437,0.2800293,1.449646,0.5520172,1.1273193,1.1321106
		c-0.3688507,0.6638336-1.140274-0.0150452-1.630188-0.2910767c-6.7807465-3.8203735-13.5354156-7.6869507-20.3118896-11.5149231
		c-4.6695709-2.6378174-9.365448-5.2290955-14.0451813-7.848999c-6.0431671-3.3832092-12.0872803-6.76474-18.1211472-10.1644745
		c-6.130188-3.4540253-12.2444916-6.936203-18.3729019-10.3933868c-6.9725876-3.9334106-13.9468842-7.8639221-20.932251-11.7745819
		c-4.9048691-2.7458954-9.8415375-5.4351349-14.7420731-8.1886597c-5.2584267-2.9546204-10.4912071-5.954834-15.735199-8.935379
		C48.4270058,185.2737427,48.4119911,184.2498627,48.5666733,183.2273407z"></path>
	<path d="M47.0771408,224.7858276c2.5084648,1.366394,5.0350952,2.7007141,7.5214157,4.1062469
		c4.4498634,2.5155487,8.8737335,5.0770111,13.3115692,7.6138611c6.6454163,3.7988281,13.2880249,7.6026001,19.9420776,11.3862762
		c6.1407547,3.491806,12.2906799,6.9675293,18.4446564,10.4359741c4.8071213,2.7093811,9.6268311,5.3964539,14.4400482,8.0950012
		c0.1391373,0.0780334,0.2610703,0.1885071,0.4035034,0.2584839c0.3484879,0.1711121,0.6850357,0.4171753,0.4842453,0.8181458
		c-0.205513,0.4104004-0.64785,0.2452087-0.9524918,0.0929871c-1.1663971-0.5827637-2.311203-1.2085266-3.4683533-1.8099976
		c-6.7671204-3.517334-13.5307007-7.0415039-20.3042908-10.5463257
		c-16.6384277-8.6091003-33.2816315-17.2089539-49.9230156-25.8123322c-0.2803421-0.144928-0.5620422-0.287262-0.8430862-0.4309387
		C46.366539,227.5723877,46.5785599,226.1470032,47.0771408,224.7858276z"></path>
	<path d="M189.8307037,251.1346283c-2.3986816-1.2483215-4.5544739-2.8793335-6.7967682-4.3679352
		c-13.9656982-9.271286-27.9004364-18.5891266-41.849472-27.8854828
		c-16.8180237-11.208374-33.6405411-22.4100189-50.459549-33.6169128c-1.4782944-0.9850616-2.9492798-1.9812622-4.41362-2.9868469
		c-0.2837372-0.1948547-0.5684891-0.423111-0.6517639-0.8571625c0.8600006-0.2149353,1.3744583,0.4249115,1.9073639,0.7686768
		c30.1354065,19.4386749,60.2518005,38.9068146,90.3707733,58.3709564
		c3.9505157,2.5529785,7.9048004,5.1001587,11.8573456,7.6510315
		C189.9008484,249.1850433,189.9181824,250.1591949,189.8307037,251.1346283z"></path>
	<path d="M188.8514404,231.1769714c-0.4579926,0.0576782-0.7263184-0.2976379-1.0451508-0.5096436
		c-29.6993561-19.7478943-59.3930206-39.5043793-89.0903778-59.2552643
		c-1.5926208-1.0592041-3.2295227-2.0523376-4.8131409-3.1244354c-0.5571823-0.3772125-1.0163269-0.8990326-1.7852859-1.594574
		c1.5268936,0.1076355,2.416275,0.8474121,3.3143845,1.4263c10.2371445,6.5982819,20.4460983,13.2402191,30.6697922,19.859375
		c20.6520157,13.3707733,41.3086319,26.7344208,61.9612808,40.1042023c0.2645721,0.1712646,0.5019379,0.3844757,0.7519379,0.5802612
		C188.8270264,229.5025482,188.8392334,230.3397675,188.8514404,231.1769714z"></path>
	<path d="M191.0090485,283.3010254c-7.6954651-4.3843994-15.3962708-8.759491-23.0849304-13.1557617
		c-8.1064453-4.6351318-16.1951447-9.3013306-24.3031311-13.9337769
		c-7.0321045-4.0177917-14.0853882-7.9985657-21.1201935-12.0116425
		c-9.2337799-5.2674713-18.4549103-10.5571136-27.6885986-15.8247528
		c-6.0524979-3.4528046-12.1241531-6.8720551-18.1751175-10.3275146
		c-5.8544388-3.3432007-11.6857758-6.7268219-17.5419044-10.0670624c-3.7078094-2.1148987-7.4432373-4.181427-11.1631126-6.2752533
		c-0.2407646-0.1355133-0.4542694-0.319397-0.6803207-0.4813538c0.0307198-0.3555603,0.0613098-0.7105713,0.0920486-1.0663452
		c2.0624771,1.1252747,4.1404762,2.2236938,6.1838837,3.3830109c4.3274651,2.4551392,8.6378441,4.9403839,12.9534378,7.4163971
		c4.7405777,2.7198486,9.4743729,5.4515686,14.2198868,8.1627808c4.7914276,2.7374573,9.5956573,5.4524841,14.39048,8.1840057
		c5.8839645,3.3520203,11.7621078,6.7142487,17.6462708,10.0659027c5.9747086,3.4032288,11.9606247,6.7868958,17.9289856,10.2012024
		c6.4521027,3.6910553,12.8817291,7.4213715,19.3358307,11.1089172c5.2984772,3.0273438,10.6243439,6.0067444,15.9273071,9.0262451
		c6.0259094,3.4311218,12.0410614,6.8811035,18.0584106,10.32724c2.5209808,1.4437256,5.035614,2.8985291,7.5531006,4.3483887
		C191.6266937,282.8400879,191.4410248,283.1417847,191.0090485,283.3010254z"></path>
	<path d="M46.6102104,208.9499969c4.7401619,2.690918,9.4726448,5.3954926,14.2228203,8.0686493
		c4.1014481,2.308075,8.2336121,4.5616608,12.3331528,6.8730927c5.9610977,3.3610382,11.897728,6.7654572,17.8587418,10.1266327
		c4.6569901,2.6258698,9.3443832,5.1978455,14.0018311,7.8228912c7.1323318,4.0199432,14.2455063,8.073822,21.3763428,12.0964661
		c5.3507462,3.0184174,10.7213821,6.0016022,16.0742264,9.0163116c5.9014587,3.3237,11.7913666,6.6679077,17.688858,9.9986267
		c5.3751984,3.0357666,10.7578583,6.0583801,16.1289978,9.1012878c2.10112,1.1903992,4.2735596,2.2590027,6.2678375,3.6334229
		c-0.3967285,0.3061523-0.8666534,0.2582092-1.3233795,0.2740173c-1.8158875-0.6699829-3.3865051-1.8013-5.0647583-2.7255249
		c-4.8924255-2.694397-9.7494049-5.4532471-14.6102905-8.2044983c-6.5135803-3.686676-13.0088959-7.4056396-19.5286407-11.0813293
		c-5.9406586-3.3492432-11.9122009-6.6437683-17.8541412-9.9907532c-5.9647369-3.3598022-11.9051514-6.7627106-17.8648911-10.131424
		c-4.5525208-2.5733032-9.122757-5.1152649-13.6774673-7.6847229c-4.8316879-2.7257233-9.6469955-5.4804993-14.4831772-8.1982117
		c-4.0738678-2.2893524-8.1784286-4.5242004-12.249382-6.8186646c-4.718235-2.6592865-9.4086723-5.3677826-14.1235962-8.032959
		c-1.7055588-0.9640961-3.4470177-1.8647461-5.1721039-2.7944641
		C46.6108665,209.8491516,46.6105385,209.3995667,46.6102104,208.9499969z"></path>
	<path d="M188.4377289,207.0627441c-0.4421844,0.2354431-0.6424713-0.1795959-0.8885651-0.3695831
		c-8.8476105-6.8314362-17.6864319-13.6741943-26.5261536-20.5158234c-0.2770386-0.2144318-0.7092896-0.410141-0.4995422-0.8303833
		c0.2135468-0.4278412,0.630249-0.168396,0.9542542-0.0776062c1.4207001,0.3980103,2.830307,0.8379364,4.2586517,1.2055359
		c0.7762146,0.1997833,1.3287354,0.6999664,1.90979,1.1810913c6.7333984,5.5753479,13.4659729,11.1517029,20.1990814,16.7298737
		C188.0914307,205.2687988,188.3994293,206.1359558,188.4377289,207.0627441z"></path>
	<path d="M45.1573792,256.0515442c2.9760437,4.2778015,5.9574432,8.5518799,8.9262238,12.8346863
		c1.9500084,2.8131409,3.8819389,5.6387024,5.821312,8.459198c0.1128273,0.1640625,0.2385445,0.3230896,0.324791,0.5007019
		c0.116375,0.2396545,0.3551064,0.5337219,0.0726318,0.7506409c-0.2477989,0.1903076-0.5420761,0.0020752-0.7422104-0.1965637
		c-0.8490715-0.8429871-1.6869354-1.6973267-2.5261726-2.5501404c-4.0572243-4.1228027-8.113575-8.24646-12.1701775-12.3701477
		C44.9616852,261.00354,45.0595322,258.5275574,45.1573792,256.0515442z"></path>
	<path d="M48.4747925,165.984314c2.2791748,1.2408295,4.3551178,2.7960205,6.510067,4.2272339
		c8.2407417,5.4730072,16.4683647,10.9658356,24.6833839,16.4773102c0.7803802,0.5235748,1.4384766,1.2291718,2.1533432,1.8502655
		l0.0144882-0.0135803c-4.1954727-1.9680634-7.9262924-4.705307-11.8086624-7.1842651
		c-7.2178459-4.6086884-14.3744507-9.3131866-21.5565224-13.9778748
		C48.3676338,166.9033813,48.3751793,166.4437256,48.4747925,165.984314z"></path>
	<path d="M47.9850693,136.9023438c2.5289574,1.367218,4.8286438,3.0908966,7.2226028,4.666214
		c6.1334076,4.0360718,12.2385788,8.115036,18.3485718,12.1865692c0.4201279,0.2799683,0.7958908,0.6299286,1.1742706,0.9674988
		c0.1810608,0.1615448,0.5916824,0.2959442,0.3066406,0.6224976c-0.208992,0.2394104-0.4715195,0.0395203-0.7398987-0.0935669
		c-1.685257-0.8357239-3.1791382-1.9717255-4.7482147-2.9859619c-7.1711235-4.6352386-14.3235245-9.299408-21.4827042-13.9535675
		C48.0392113,137.8418884,48.0121422,137.3721161,47.9850693,136.9023438z"></path>
	<path d="M189.3923187,213.9190063c-1.0228119,0.1695251-1.6710358-0.6115723-2.3981171-1.0535736
		c-5.9091187-3.5921478-11.7793121-7.2483368-17.6540985-10.8967133c-0.4572906-0.2839966-1.0193024-0.4797058-1.2499695-1.0964661
		c0.7420654-0.355835,1.133194,0.801178,1.8411255,0.3783722c0-0.0000305-0.0195312-0.0129547-0.0195465-0.0129547
		c0.1751404,0.6254578,0.6126709,0.8159637,1.2155304,0.7323608c0,0-0.0146027-0.0114288-0.0146179-0.0114441
		c-0.1082458,0.3190002,0.1533508,0.4193878,0.3418732,0.5341949c5.9632568,3.6311493,11.9295502,7.257309,17.8953705,10.8842163
		C189.3640137,213.557663,189.3781738,213.738327,189.3923187,213.9190063z"></path>
	<path d="M77.5546417,157.2146454c0.066246-0.3686981,0.2456436-0.3118744,0.49263-0.1439514
		c0.7116165,0.4838257,1.5707703,0.6711578,2.2794189,1.1861115c2.484108,1.8050232,5.0637894,3.4688416,7.6897125,5.0603943
		c0.5402985,0.3274841,1.0596466,0.6603546,1.4045258,1.2247162c0.0817337,0.1337433,0.3926086,0.1543274,0.1821594,0.3964539
		c-0.1116714,0.1284943-0.2466049,0.0370026-0.4058914-0.0437012c-1.7259293-0.8747253-3.2420044-2.0721283-4.8589554-3.1134491
		c-2.0441284-1.3164368-4.1047134-2.6073303-6.1516571-3.9194336
		C77.9352798,157.7006683,77.563736,157.6325684,77.5546417,157.2146454z"></path>
	<path d="M85.710968,181.0506287c-3.2761459-0.79245-5.4307327-2.9065857-7.7632446-4.7273712
		C80.608078,177.6036377,83.1397629,179.0961456,85.710968,181.0506287z"></path>
	<path d="M167.3981323,200.3992767c-0.0562592,0.0258331-0.1109924,0.0579834-0.1700745,0.0727692
		c-0.0157928,0.0039673-0.0449219-0.0451965-0.0679321-0.0699768c0.0567169-0.0262756,0.1118011-0.0587311,0.1713104-0.0744476
		C167.3462982,200.3236847,167.3754425,200.3737946,167.3981323,200.3992767z"></path>
	<polygon fill="#F90000" points="81.8215866,188.5391235 81.8849335,188.5751343 81.8363876,188.5253143 	"></polygon>
</g>
<g onclick="select(this)" class="" id="c-gola-primaria" fill="#000000">
	<path d="M81.9974747,7.942389c1.9662018-1.639194,3.7164612-3.4804702,5.368721-5.4389744
		c1.0231857-1.2128421,2.6112137-1.4482877,4.1002197-1.7811556c0.711174-0.1589819,1.5133362,0.0712702,2.1335907-0.4823964
		c2.0799942,0,4.1600037,0,6.2399979,0c0.3020325,0.3884744,0.7345963,0.2425592,1.1111908,0.2409851
		c5.6189728-0.023485,11.2378845-0.0607007,16.8568115-0.0946772c0.9025421,0.0061946,1.8072205,0.0540661,2.7070847,0.0079637
		c1.1081009-0.0567717,2.2357788,0.2831496,3.324913-0.1542716c6.0000076,0,12.0000076,0,18.0000076,0
		c0.9375916,0.4764533,1.994339,0.4536026,2.9870453,0.7034569c1.6346588,0.4114371,3.0479279,1.1160941,4.1027832,2.4926033
		c1.2668915,1.6532269,2.9177704,2.9250007,4.4563446,4.3052711c-4.3251495,0.3391457-8.5791931,1.2091169-12.8898468,1.6806526
		c-7.5769348,0.8288288-15.1771622,1.265769-22.7851257,1.5451574c-4.4665146,0.1640253-8.917984-0.4810352-13.38237-0.6483946
		c-4.3060303-0.1614246-8.5662766-0.7815285-12.8368759-1.3105574C88.3320694,8.6166134,85.1959534,7.9945445,81.9974747,7.942389z"></path>
</g>
<path d="M117.8080063,0.3861704c-5.618927,0.0339765-11.2378387,0.0711922-16.8568115,0.0946772
	c-0.3765945,0.001574-0.8091583,0.1474893-1.1111908-0.2409851c6,0,12,0,18,0l0.0467377,0.0868591L117.8080063,0.3861704z"></path>
<g onclick="select(this)" class="" id="c-detalhe-lateral" fill="#ffffff">
	<path d="M46.5797157,116.2950058c0.9740448,0.3586197,0.4856453,1.2908936,0.6785011,1.9231033
		c0.7009239,2.2977676,1.0352783,4.6813812,1.272316,7.0769653c0.2773743,2.8032379,0.6613922,5.5965118,0.9080925,8.4021149
		c0.3654938,4.1564789,0.7152977,8.3164673,0.9457321,12.4819031c0.1342926,2.4276733,0.3030777,4.8582764,0.3755302,7.2850342
		c0.5283203,17.6951447,0.2950134,35.3964233,0.2846985,53.0953064c-0.0038414,6.5881195-0.179821,13.1786499-0.4211426,19.7628021
		c-0.0877495,2.3941803-0.1120529,4.78685-0.176075,7.1799927c-0.1632576,6.1025848-0.3016853,12.206543-0.5507965,18.3058472
		c-0.1659698,4.0636902-0.3378601,8.1264038-0.473423,12.1915894c-0.1872978,5.6166992-0.4319229,11.2337646-0.8027077,16.8406982
		c-0.107872,1.6312256-0.0809135,3.2692566-0.2652855,4.8948059c-0.9660378-0.0799255-1.8645859-0.4169312-2.7645454-0.7364807
		c-2.1119881-0.7497559-2.3783302-1.1219177-2.2291679-3.3309326c0.365612-5.4145813,0.7419052-10.8285522,1.1430168-16.2406006
		c0.2895012-3.9061279,0.60812-7.8092041,0.5538788-11.7314758c-0.0321693-2.3263092,0.2490234-4.6259613,0.7108879-6.9003906
		c0.4717331-2.3229675-0.0629578-4.6105652-0.2311668-6.9013977c-0.3904762-5.3178558,0.1611633-10.5299683,1.5381432-15.6553192
		c0.5846863-2.1763306,0.0955772-4.3043823-0.1239929-6.4151001c-0.7838097-7.5346069-0.4827576-14.9959106,1.0954742-22.4003143
		c0.4538231-2.1291199,0.6349106-4.2657013,0.4849167-6.4291229c-0.3209496-4.6291351,0.0652962-9.2625427-0.1253052-13.8943329
		c-0.2332001-5.667038-0.0037804-11.3484802-0.5024414-17.0091248c-0.0559425-0.6350555-0.0988388-1.2852783-0.0287743-1.9152222
		c0.8043365-7.2314453,0.1681633-14.4430084-0.2433624-21.6602936c-0.2342491-4.1082001-0.3552399-8.2228241-0.5834808-12.3314438
		c-0.0690269-1.2425842-0.1393394-2.4995728-0.4780693-3.7142181
		C46.5740395,117.7445984,46.5768776,117.0197983,46.5797157,116.2950058z"></path>
	<path d="M186.8271332,284.7735596c-0.1539764-4.1819458-0.4293976-8.3578796-0.6026001-12.5396729
		c-0.2572479-6.2120056-0.5409393-12.4219055-0.7497253-18.6366577c-0.1713715-5.1015167-0.2666931-10.2080078-0.5016632-15.3040771
		c-1.1077881-24.0273743-0.8267822-48.067749-0.8050842-72.1051788c0.0056915-6.3029175,0.2427826-12.6095734,0.5359344-18.9069672
		c0.2235718-4.8023376,0.5991058-9.603714,1.1015625-14.3850861c0.4266357-4.0597076,0.7597046-8.1360016,1.4679413-12.1644669
		c0.0649109-0.3691177,0.0836029-0.7143784,0.5006866-0.852684c0.1143646,0.1809769,0.2297974,0.361618,0.3452301,0.5422745
		c-0.9155579,0.7990112-0.5123444,1.9574509-0.5983582,2.8825455c-0.710144,7.6379242-0.9434662,15.3020477-0.7991638,22.9731445
		c0.0736237,3.9143829,0.5305634,7.8399353,0.2224884,11.739502c-0.6091919,7.7103577-0.2359924,15.4100037-0.1281891,23.1159515
		c0.0380096,2.7167816-0.1179962,5.4292297-0.4608002,8.1316376c-0.2215729,1.746521-0.2428284,3.5065613,0.0569458,5.2558289
		c0.0471649,0.2751923,0.1174927,0.5605164,0.089798,0.8322754c-0.3273621,3.2137909,0.5558319,6.2301178,1.4368286,9.2599487
		c1.776947,6.111145,1.9732208,12.3596497,1.322403,18.6335297c-0.4307861,4.152771-0.3736572,8.2683868,0.1582031,12.3973541
		c0.1008759,0.7832031,0.0873718,1.6023254-0.0135803,2.3868561c-0.6959076,5.4082184,0.5662842,10.7305756,0.7112274,16.1060791
		c0.1914978,7.1008148,0.9172668,14.1861115,1.3373413,21.2825775c0.1222687,2.0654602,0.3727264,4.1258545,0.3047638,6.2073059
		c-0.0380554,1.1656799-0.5097198,1.8869629-1.5921173,2.2428589
		C189.0699463,284.229187,187.9905243,284.6563416,186.8271332,284.7735596z"></path>
</g>
<g onclick="select(this)" class="" id="c-detalhe-punho" fill="#ffffff">
	<path d="M0.24,116.0934372c0.6099691-1.6036377,0.5354484-3.3398285,0.9660289-4.9766235
		c0.1357286-0.5159531,0.0380955-1.12957,0.5606382-1.5046616c3.1238949,0.6052628,6.2463446,1.2167816,9.3613768,1.8658905
		c3.3791361,0.7041168,6.808075,1.2599945,10.2325821,1.7766113c1.5762768,0.2378006,3.1452713,0.544075,4.7291145,0.707634
		c4.2910786,0.4431229,8.6005516,0.5878372,12.8986778,0.2197342c2.2823296-0.1954727,4.823391,0.1977615,6.5608978-2.3492203
		c0.2157669,1.1439972,0.3754272,1.9905014,0.5350876,2.8370056c-0.1584244,0.6402283,0.6805687,0.9768066,0.4953117,1.6251984
		c-0.0028381,0.7247925-0.0056763,1.4495926-0.0085144,2.1743851c-0.0448265,0.0914841-0.1344299,0.1862946-0.1279335,0.2739792
		c0.1689758,2.2800522-0.163063,2.6571503-2.4049683,2.8243332c-3.5738373,0.2664871-7.1095161,0.9167099-10.7256699,0.773407
		c-6.2733345-0.2486115-12.4740543-1.1022491-18.6703339-2.0134277c-4.5695629-0.6719666-9.1108589-1.5093994-13.6113749-2.5555573
		c-0.2677359-0.0622406-0.5274647-0.1588821-0.7909204-0.2395096C0.24,117.052887,0.24,116.5731659,0.24,116.0934372z"></path>
	<path d="M188.1194153,120.4210434c-0.1154327-0.1806564-0.2308655-0.3612976-0.3452301-0.5422745
		c0.4129639-2.1406479,0.7439423-4.2919846,0.8835754-6.4696579c0.7926483-0.1003036,0.2149658-0.819252,0.6640778-1.1933746
		c0.4613647-0.0213699,0.8536987,0.380043,1.2762299,0.7082291c2.4617615,1.9122314,5.102478,3.0013199,8.3687897,2.9666061
		c4.6072845-0.0489578,9.1609192-0.4245224,13.7149963-1.0247879c5.3340454-0.7030716,10.6856079-1.2847366,15.9672394-2.3379288
		c1.1724396-0.2337875,2.3242645-0.5708923,3.4855652-0.8605957c0.2128906,0.0527039,0.3546906,0.176712,0.3748016,0.403244
		c0.1905823,2.1474304,0.6912689,4.2533722,0.795578,6.4173126c0.0500793,1.0388031-0.2937164,1.4709549-1.2895355,1.6987762
		c-3.7425079,0.8562546-7.5182648,1.5250092-11.3158569,2.0600967c-7.1294098,1.0045853-14.2813416,1.7277603-21.499527,1.5248642
		c-2.8661957-0.0805511-5.6458893-0.443428-8.1666565-1.9624786
		C190.1119995,121.2537994,188.7405243,121.6243439,188.1194153,120.4210434z"></path>
</g>
</svg>
