<!--?xml version="1.0" encoding="utf-8"?-->
<!-- Generator: Adobe Illustrator 24.2.3, SVG Export Plug-In . SVG Version: 6.00 Build 0)  -->
<svg version="1.1" id="Camada_1" xmlns="http://www.w3.org/2000/svg" xmlns:xlink="http://www.w3.org/1999/xlink" x="0px" y="0px" viewBox="0 0 234 419" enable-background="new 0 0 234 419" xml:space="preserve">
<g onclick="select(this)" class="" id="c-estampa-primaria" fill="#ffffff">
	<path d="M203.8483276,32.2845345c0.2733459,0.1604347,0.5708313,0.2904778,0.8165588,0.4856949
		c10.1933899,8.0975609,16.7267914,18.4918518,19.7408295,31.162365c1.3155975,5.5304718,2.1200409,11.1263275,2.858902,16.7504196
		c0.7853394,5.9780731,2.0124207,11.8930359,2.7431183,17.882164c0.5366821,4.3988495,1.4192352,8.7404556,2.1559143,13.1059036
		c0.2952118,1.7492828,0.7397766,3.4733658,1.1163635,5.2089233c0,1.0400009,0,2.0799942,0,3.1200027
		c-3.4725342,0.6932068-6.930191,1.4599991-10.4356842,1.9851532c-7.909256,1.1848984-15.839798,2.074646-23.8575287,1.8457947
		c-2.7822266-0.0794144-5.4807281-0.4779205-7.9298401-1.9480133c-0.9024353-0.5416794-2.1662292-0.2684326-2.9029846-1.2300415
		c0.2689056-1.316597,0.0010986-2.6468201,0.1371002-3.9802017c0.2865295-2.8091431,0.8761597-5.6096573,0.7208099-8.4386902
		c-0.0996094-1.8141556-0.0415955-3.6085663,0.2869263-5.3606339c0.6317139-3.3688889,1.312149-6.7053375,1.3780975-10.1658249
		c0.0653229-3.4284363,0.5329742-6.8417206,1.217804-10.212204c0.3261261-1.605011,0.6104584-3.3583603,1.8852844-4.4149857
		c1.1981354-0.9930725,1.8749847-2.2294006,2.6460571-3.4743271c2.2872925-3.6928635,3.1263275-7.9172363,4.4207764-11.9716034
		c1.6056061-5.028965,2.8253326-10.1539421,3.0865784-15.4427185c0.2150421-4.3534508,0.0613708-8.7109032-0.3554077-13.0557632
		C203.518631,33.5170288,203.4064331,32.8490295,203.8483276,32.2845345z"></path>
	<path d="M0.2399999,116.4000015c0.3990944-1.8923798,0.7992355-3.7845383,1.1970596-5.6771851
		c0.7556592-3.5950546,1.2740115-7.2296906,1.7788073-10.8652725c0.9360778-6.7417145,2.825887-13.2774429,4.2380676-19.9160233
		c0.9136658-4.2950897,1.1781807-8.706604,2.153883-12.9992218c1.6027317-7.0512238,3.8376999-13.8576126,7.7096853-20.0301361
		c2.8096981-4.4790878,6.324873-8.3409996,10.4916496-11.5832138c1.2201462-0.9494095,2.1714745-2.2272186,3.5975418-2.9156609
		c0.409853,0.666275,0.4419289,1.4347534,0.1384087,2.0693893c-0.2150822,0.4497261-0.1618748,0.7929611-0.1443195,1.219677
		c0.0343647,0.8352852,0.0157471,1.6772995-0.048336,2.5113487c-0.40481,5.2684479-0.3184166,10.5060234,0.6754837,15.7215576
		c0.9136086,4.7941971,2.5120468,9.3893089,3.8648491,14.0578041c0.9538612,3.291748,2.4152756,6.3087997,4.3255997,9.1502914
		c0.9040985,1.3447723,1.7531815,2.7823563,2.0989113,4.4021835c0.2641869,1.2378159,0.280941,2.5299911,0.5647278,3.7618179
		c1.2920685,5.6083755,1.5528221,11.352562,2.3044205,17.0313797c0.3198624,2.4167786,0.1186905,4.8932114,0.9038048,7.2596741
		c0.9446297,2.8472748,0.1950264,5.7997513,0.4697762,8.6912003c-0.4242439,0.4347839-0.2552528,0.9883957-0.2157631,1.4687347
		c0.0981255,1.1936569-0.469677,1.5954437-1.5789909,1.757782c-6.8482971,1.0021515-13.6845665,1.0294418-20.5538177,0.1363907
		c-7.7710991-1.0103149-15.5229464-2.1032791-23.1701088-3.8450317c-0.2689152-0.0612564-0.5343078-0.13797-0.8013411-0.2074814
		C0.24,117.2000046,0.24,116.8000031,0.2399999,116.4000015z"></path>
	<path d="M81.8232574,7.9648337c1.9933167,0.3221059,4.0146713,0.3454776,6.0174026,0.6403394
		c4.3357544,0.6383495,8.6800003,1.2529688,13.0565796,1.560708c3.2247009,0.2267456,6.4560852,0.363286,9.6786346,0.6149645
		c9.567894,0.7472448,19.0577316-0.3929892,28.5633621-1.1391401c4.1289215-0.3241014,8.2169189-0.9859085,12.2993622-1.6656408
		c0.7037048-0.1171703,1.4390411,0.1179075,2.1116333-0.2282166c2.0036774,0.1278214,3.4710236,1.1499076,4.7623596,2.6351333
		c1.0020447,1.1525259,2.4355469,1.7944489,3.754364,2.5350866c9.5250549,5.3492413,19.5428925,9.6384945,29.6755066,13.6653862
		c3.976944,1.5805149,7.6895142,3.714653,11.6385498,5.343462c0.1751404,0.0722351,0.3122711,0.2365589,0.4672089,0.3578014
		c-0.4417877,0.564312-0.3295898,1.2323112-0.2702179,1.8512306c0.4167786,4.3448601,0.5704498,8.7023125,0.3554077,13.0557632
		c-0.2612457,5.2887764-1.4809723,10.4137535-3.0865784,15.4427185c-1.2944489,4.0543671-2.1334839,8.2787399-4.4207764,11.9716034
		c-0.7710724,1.2449265-1.4479218,2.4812546-2.6460571,3.4743271c-1.274826,1.0566254-1.5591583,2.8099747-1.8852844,4.4149857
		c-0.6848297,3.3704834-1.1524811,6.7837677-1.217804,10.212204c-0.0659485,3.4604874-0.7463837,6.796936-1.3780975,10.1658249
		c-0.3285217,1.7520676-0.3865356,3.5464783-0.2869263,5.3606339c0.1553497,2.8290329-0.4342804,5.6295471-0.7208099,8.4386902
		c-0.1360016,1.3333817,0.1318054,2.6636047-0.1371002,3.9802017c-0.4350891,0.263176-0.2786713,0.715744-0.3222961,1.0867538
		c-1.2314911,10.473053-1.4573364,20.9770508-0.9196167,31.5013428c0.1637268,3.2047577-0.0886078,6.3917847-0.2826843,9.5842133
		c-0.3670654,6.0379333,0.1181488,12.0710449,0.138382,18.1070557c0.0092773,2.7614899-0.1012573,5.5138702-0.4396057,8.2587128
		c-0.230484,1.8700409-0.2589111,3.7496338,0.0620117,5.6197815c0.0405121,0.2361603,0.1031952,0.4799652,0.0820007,0.7135315
		c-0.2838898,3.1296539,0.5130768,6.0734406,1.3882141,9.0382385c1.7550659,5.945816,1.9432831,12.0373993,1.4457397,18.179657
		c-0.3086853,3.81073-0.8158722,7.6157532-0.0127716,11.4479828c0.2575378,1.2289734,0.1828766,2.5572357,0.0838165,3.8262939
		c-0.5065918,6.489624,0.6947327,12.8989105,0.8700562,19.3584442c0.1549835,5.7108765,0.6989136,11.4110413,1.0653229,17.1163025
		c0.1377563,2.1451721,0.3072357,4.2897949,0.3751221,6.437439c0.0753174,2.3829956-0.1534729,2.7092896-2.47435,3.3816528
		c-5.4622803,1.5823669-11.0361633,2.6375427-16.6871033,3.2367249
		c-13.3432159,1.4147339-26.7450714,1.5118408-40.1407776,1.6253357
		c-18.5563354,0.1572266-37.1143112,0.4963074-55.6699982,0.2002258
		c-10.0061951-0.1596985-19.9645538-1.045929-29.6639862-3.7774963c-3.6877174-1.0385132-3.8098068-1.0596008-3.5862617-4.8075562
		c0.4208603-7.0561829,0.9863625-14.1039124,1.5108299-21.1536865c0.2403526-3.2307434-0.1090736-6.4821472,0.3631821-9.7032776
		c0.0753365-0.5138397,0.0891571-1.0436249,0.2247772-1.5405273c0.8576775-3.1424103,0.1064415-6.2772522-0.0441322-9.4089661
		c-0.2265205-4.7113037,0.2113113-9.3542786,1.4141121-13.8990173c0.4223328-1.5957642,0.482132-3.1339722,0.2889442-4.7234497
		c-1.0502625-8.64151-0.9072342-17.2306824,1.0492516-25.7521515c0.3312035-1.4425507,0.4703064-2.931427,0.352829-4.410965
		c-0.3772812-4.7516632,0.0093384-9.5094604-0.1702347-14.2636719c-0.2127266-5.6320648-0.0184174-11.2757263-0.4517708-16.9031372
		c-0.2772369-3.6000824,0.4068794-7.1681213,0.2987823-10.7771759c-0.2909508-9.7139587-0.8827133-19.4097748-1.4747124-29.1067963
		c-0.0180473-0.2956238,0.0988388-0.6580276-0.2670174-0.8551025c-0.2747612-2.891449,0.4748421-5.8439255-0.4697876-8.6912003
		c-0.7851143-2.3664627-0.5839424-4.8428955-0.9038048-7.2596741c-0.7515984-5.6788177-1.012352-11.4230042-2.3044205-17.0313797
		c-0.2837868-1.2318268-0.3005409-2.5240021-0.5647278-3.7618179c-0.3457298-1.6198273-1.1948128-3.0574112-2.0989113-4.4021835
		c-1.9103241-2.8414917-3.3717384-5.8585434-4.3255997-9.1502914c-1.3528023-4.6684952-2.9512405-9.263607-3.8648491-14.0578041
		c-0.9939003-5.2155342-1.0802937-10.4531097-0.6754837-15.7215576c0.0640831-0.8340492,0.0827007-1.6760635,0.048336-2.5113487
		c-0.0175552-0.4267159-0.0707626-0.7699509,0.1443195-1.219677c0.3035202-0.6346359,0.2714443-1.4031143-0.1384087-2.0693893
		c4.2559223-1.9925022,8.474226-4.0644226,12.849184-5.7981167c7.1582146-2.8366299,14.2091446-5.927412,21.2223091-9.1037693
		c3.9020386-1.7672882,7.5175247-4.0415335,11.1048813-6.3594542c0.3909531-0.2526073,0.6922073-0.6504154,1.0171356-0.9976597
		C78.7506866,8.9248152,80.0444946,7.9791746,81.8232574,7.9648337z"></path>
</g>
<g onclick="select(this)" class="" id="c-estampa-terciaria" fill="#9e9e9e">
	<path d="M32.9089966,64.9217606c0.0009727,2.0778122-0.0156975,4.1558533,0.0114212,6.2333069
		c0.0078392,0.6008682-0.1499214,0.8418427-0.8006973,0.8380814c-4.2753639-0.0247803-8.5509968-0.0238037-12.8263817-0.0008392
		c-0.640522,0.0034485-0.8080692-0.216507-0.8047638-0.8331223c0.0229244-4.2753754,0.0201321-8.5509872,0.0022583-12.826416
		c-0.0023327-0.5573997,0.1539288-0.7739334,0.7387371-0.7714958c4.3153896,0.0179901,8.6309776,0.0235901,12.9462643-0.0037308
		c0.7163582-0.0045395,0.742363,0.355938,0.7385559,0.8910599C32.8990402,60.6062317,32.9080315,62.7640228,32.9089966,64.9217606z"></path>
	<path d="M25.5195675,91.4861603c0.2068214,1.9018936,0.0799389,3.8100433,0.073349,5.7142105
		c-0.002697,0.779808,0.2239151,1.0156479,1.0045872,1.0032196c2.1048241-0.0335159,4.21101,0.0186615,6.3167152,0.0369034
		c-0.0013275,2.276535-0.0262833,4.5533524,0.0102806,6.8291855c0.0109634,0.6823502-0.2015648,0.8879776-0.8805084,0.8833923
		c-3.993618-0.0269318-7.9876118-0.0281525-11.9812069,0.0000839c-0.7101307,0.0050278-0.8587475-0.2634659-0.8550816-0.913681
		c0.0238571-4.2323608,0.0248165-8.465004-0.0013924-12.6973419c-0.0043907-0.7090454,0.275177-0.8756714,0.9218426-0.8644714
		C21.9248009,91.5087967,23.7223663,91.48703,25.5195675,91.4861603z"></path>
	<path d="M217.1446381,90.5824738c3.3163452-0.0215759,6.6333771-0.0888443,9.9486237-0.0376892
		c1.0343475,0.0159531,1.3375702-0.3079147,1.2231293-1.2810287c-0.0742493-0.6310577-0.0172424-1.2775574-0.0189972-1.9157639
		c0.9011536,4.5922852,1.4406433,9.2370148,2.0638733,13.8692703c-4.0341797,0.198967-8.0706177,0.062706-12.1060028,0.0846939
		c-0.8598022,0.0046844-1.1572418-0.3665543-1.1425323-1.2472458
		C217.165451,96.8980026,217.1403198,93.7399902,217.1446381,90.5824738z"></path>
</g>
<g onclick="select(this)" class="" id="c-estampa-secundaria" fill="#f6d101">
	<path d="M201.0777893,82.2560959c0.0001831,2.3560257-0.0317535,4.7127457,0.0180054,7.0677261
		c0.0166931,0.7907715-0.2311401,1.0418701-1.0107574,1.0321655c-2.7549286-0.0343094-5.5105591-0.0118637-8.2659302-0.0152283
		c-0.4775696-0.0005722-1.0032501,0.0849991-0.8909912-0.7133865c0.4486237-3.1904831,0.61763-6.4353485,1.7754974-9.4881058
		c0.3828278-1.009346,0.7973175-1.9931107,1.8290558-2.6180725c0.9118805-0.5523758,1.2758636-1.6161804,1.7736053-2.5118027
		c0.3361511-0.6048279,0.6930847-0.9030609,1.3942719-0.8432693c1.0666351,0.0909653,2.4322357-0.4283905,3.1305389,0.2026138
		c0.7187195,0.649437,0.20401,2.0348587,0.2345428,3.0957642C201.111618,79.0604858,201.0776215,80.658783,201.0777893,82.2560959z"></path>
</g>
<g onclick="select(this)" class="has-opacity" id="c-estampa-quaternaria" fill="#f6d101" opacity="0.5">
	<path d="M46.5467873,112.2477875c0.1209335,1.694725-0.5656586,3.3709717-0.1166229,5.0729599
		c-0.0339508,1.019989,0.2538872,2.0558929-0.1496429,3.0578461c-1.037529,0.0065384-2.0765076-0.0170517-3.1121864,0.0307846
		c-0.6838608,0.0315857-0.8906059-0.2180481-0.8792381-0.8969345c0.0400848-2.394043,0.0220261-4.7890472,0.0258751-7.1836777
		C43.7254829,112.3017731,45.1361389,112.2747879,46.5467873,112.2477875z"></path>
	<path d="M203.3738403,118.5283813c-2.1173553,0-4.2350616-0.0210419-6.3518982,0.0122528
		c-0.6735687,0.010582-0.8966675-0.2007751-0.8923187-0.8879089c0.0268555-4.2345581,0.0265198-8.4694672,0.0001373-12.7040329
		c-0.0042725-0.6841888,0.2222137-0.9036179,0.8925018-0.9004593c4.2745972,0.0201416,8.5493469,0.0176086,12.8239594,0.0031281
		c0.6125183-0.0020676,0.8330231,0.2085953,0.8298492,0.8374939c-0.0214844,4.2745743-0.0283508,8.5494385,0.0042419,12.8238754
		c0.0058594,0.7666016-0.3578339,0.8284836-0.9544373,0.8230972
		C207.6086731,118.516716,205.4912262,118.528389,203.3738403,118.5283813z"></path>
	<path d="M207.618576,35.7666664c1.9188995,1.1946487,3.4005127,2.8712387,4.8878479,4.5243835
		c2.542099,2.8254967,4.8439636,5.8265419,6.348114,9.3616676c-3.4652405-0.001976-6.9306335-0.0066795-10.3960266-0.0025902
		c-0.5390778,0.0006371-1.0110474,0.0614662-1.0048523-0.7582474c0.0312958-4.1423187,0.0140228-8.2849846,0.023941-12.4275055
		C207.4781647,36.2316933,207.5695038,35.9992332,207.618576,35.7666664z"></path>
</g>
<g onclick="select(this)" class="has-opacity" id="c-estampa-quinaria" fill="#9e9e9e" opacity="0.5">
	<path d="M25.5195675,91.4861679c0.2139568-2.0306778,0.0832882-4.0676651,0.0723953-6.1003723
		c-0.0048199-0.8992615,0.1847744-1.2472763,1.1767788-1.2324371c3.9136486,0.0585709,7.829052,0.0526581,11.7429428,0.0027695
		c0.9080048-0.0115738,1.1392174,0.2561722,1.1285362,1.1435928c-0.0470886,3.9139633-0.0567932,7.8293839,0.00494,11.7429428
		c0.0156822,0.9943924-0.3258476,1.1870193-1.2227058,1.163765c-1.8345299-0.0475769-3.6719513,0.0162201-5.5082359,0.0340652
		c-2.1057053-0.0182419-4.2118912-0.0704193-6.3167152-0.0369034c-0.7806721,0.0124283-1.0072842-0.2234116-1.0045872-1.0032196
		C25.5995064,95.2962036,25.7263889,93.3880539,25.5195675,91.4861679z"></path>
	<path d="M226.7676392,76.6037064c0.2471771,3.6192932,0.8405762,7.1892929,1.5297546,10.7442856
		c0.0017548,0.6382065-0.0552521,1.2847061,0.0189972,1.9157639c0.1144409,0.973114-0.1887817,1.2969818-1.2231293,1.2810287
		c-3.3152466-0.0511551-6.6322784,0.0161133-9.9486237,0.0376892c-0.0785675-0.0138474-0.1567078-0.0359344-0.2358093-0.0403595
		c-2.6149902-0.1462326-2.615036-0.1459808-2.6150208-2.7430725c0.0000153-3.4310303-0.0034332-6.8620605,0.0043793-10.2930756
		c0.0010223-0.4445724-0.1652374-1.0072403,0.6289673-0.9948807
		C218.8736877,76.5725021,222.8221283,76.395256,226.7676392,76.6037064z"></path>
	<path d="M46.5467873,112.2477875c-1.4106483,0.0270004-2.8213043,0.0539856-4.2318115,0.0809784
		c-0.4451447-0.2648468-0.294487-0.7060165-0.2953758-1.0825119c-0.0093918-3.9945526-0.0140381-7.9891815,0.0067444-11.9836426
		c0.0020943-0.4023361-0.2841606-1.1353226,0.5210915-1.0540924c0.7431641,0.0749893,1.7539444-0.5741119,2.1872902,0.5938416
		c0.4222527,1.1380539,0.514904,2.333992,0.4885864,3.5386887c-0.058773,2.6911621,0.1752205,5.3400345,1.0649338,7.9048996
		C46.5112228,110.8887177,46.6351891,111.5580521,46.5467873,112.2477875z"></path>
</g>
<g onclick="select(this)" class="" id="c-gola-primaria" fill="#f6d101">
	<path d="M141.8400116,0.24c0.9924622,0.4431632,2.086441,0.4431034,3.1214447,0.7117371
		c1.5948334,0.4139404,2.9455872,1.1451814,3.9818878,2.4655492c1.312851,1.672699,2.9249878,3.0421085,4.6068878,4.3305616
		c-0.6725922,0.3461242-1.4079285,0.1110463-2.1116333,0.2282166c-4.0824432,0.6797323-8.1704407,1.3415394-12.2993622,1.6656408
		c-9.5056305,0.746151-18.9954681,1.886385-28.5633621,1.1391401c-3.2225494-0.2516785-6.4539337-0.3882189-9.6786346-0.6149645
		c-4.3765793-0.3077393-8.7208252-0.9223585-13.0565796-1.560708c-2.0027313-0.2948618-4.024086-0.3182335-6.0174026-0.6403394
		c1.4944687-1.1411915,3.0270386-2.2916994,4.0824432-3.8432579c1.6976318-2.4956884,4.1215515-3.3665047,6.9380035-3.6106102
		C93.2577438,0.4750811,93.733696,0.6210111,94.0800018,0.24c7.9200058,0,15.840004,0,23.7600021,0c2,0.1722626,4,0.3261583,6,0
		C129.8400116,0.24,135.8400116,0.24,141.8400116,0.24z"></path>
</g>
</svg>
