<!--?xml version="1.0" encoding="utf-8"?-->
<!-- Generator: Adobe Illustrator 24.2.3, SVG Export Plug-In . SVG Version: 6.00 Build 0)  -->
<svg version="1.1" id="Camada_1" xmlns="http://www.w3.org/2000/svg" xmlns:xlink="http://www.w3.org/1999/xlink" x="0px" y="0px" viewBox="0 0 229 418" enable-background="new 0 0 229 418" xml:space="preserve">
<g onclick="select(this)" class="" id="estampa-primaria" fill="#801815">
	<path d="M43.1451988,120.3591003c-0.1574593-1.9019699-0.2635918-3.8100281-0.4886246-5.7039795
		c-0.1797981-1.5132675-0.3913536-1.6106033-1.9219894-1.3255692c-1.0546684,0.1964035-2.1054955,0.4133453-3.1596031,0.6128845
		c-3.7236557,0.7048569-7.4897099,0.4062195-11.2349834,0.3948441c-6.4752865-0.0196609-12.9171953-0.5751572-19.2143612-2.1471405
		c-2.0026431-0.499939-4.0013113-1.0857773-5.977838-1.7141418c1.0208949-4.8060684,1.6644145-9.6716461,2.3388948-14.5333023
		c0.8726487-6.2900543,1.9116197-12.5599365,2.643909-18.8657761c0.7765989-6.6873932,1.853642-13.2944374,3.9744625-19.697525
		c2.9442616-8.8891754,7.7607107-16.5268593,15.1724825-22.392849c1.1417255-0.9036102,1.9524117-2.1724854,3.2811241-2.8633461
		c3.6190052-1.8817024,7.2620258-3.7168369,11.0347271-5.271349c9.9860153-4.1146584,19.9939651-8.1792221,29.4552917-13.4397125
		c1.9744034-1.0977669,3.9967422-2.0936747,5.5144348-3.8991308c0.8429031-1.0027447,2.0579147-1.6459785,3.4937057-1.5504146
		c-1.6598358,0.9146581-2.001976,2.3754401-1.6840439,4.0964561c0.3956909,2.1419916,1.0861511,4.1798086,2.3278732,5.9871454
		c5.93293,8.6352997,14.296669,13.8952675,24.0654526,17.1269894c2.0417404,0.6754532,4.1873932,1.1419945,6.5661926,0.9732132
		c-0.818985-1.2918892-1.7138596-2.3421478-2.6657257-3.3343887c-4.3846359-4.5706615-9.3081741-8.5244236-14.290184-12.4103851
		c-2.5010681-1.9508305-4.6982422-4.208477-6.6866608-6.6749144c-0.9601822-1.1910152-1.7149582-2.4964218-2.3023758-3.9077702
		c-0.2885437-0.6932478-0.246376-1.0194101,0.6452408-0.9307556c3.5362625,0.351614,7.0733414,0.7046528,10.6162338,0.9779987
		c7.921875,0.6111984,15.8302841,1.4430838,23.8044891,0.9912195c6.2617874-0.3548279,12.5223236-0.704565,18.7725372-1.2287455
		c2.2623138-0.1897326,4.5277405-0.3423519,6.9600983-0.5245132c-0.3562012,0.7652731-0.6235199,1.4240294-0.9593048,2.0458479
		c-1.2259674,2.2702398-2.8836212,4.2098074-4.670166,6.0531158c-2.8812561,2.9727859-6.3737488,5.2001953-9.5260925,7.842041
		c-3.5236664,2.9530506-7.0875015,5.8638573-9.9547958,9.5003853c-0.3962326,0.5025253-0.8958893,0.9767723-0.9921417,1.7654648
		c1.0281219-0.1467667,1.9737778-0.0354576,2.9256516-0.2119141c5.0719681-0.9402618,9.6617432-3.0744553,14.0783234-5.6319599
		c3.2989349-1.9103127,6.3558655-4.1792526,9.1010895-6.8097744c3.0965118-2.9671154,5.4707642-6.4256573,6.640976-10.6468983
		c0.6189423-2.2326078,0.0174561-4.2712574-1.6764832-4.7439165c1.9420471-0.3230171,3.1181183,0.8975677,4.2487946,2.1523972
		c0.3474121,0.3855724,0.6845856,0.7272234,1.1278381,1.02145c8.8714447,5.888566,18.7893372,9.6126204,28.526062,13.6821756
		c5.067276,2.1179237,10.0380249,4.4439087,15.0908356,6.5872955c0.2854004,0.121069,0.5596008,0.2832184,0.8128815,0.4630032
		c12.0054626,8.5214882,19.2169037,20.1563911,21.393631,34.5978508
		c1.7050781,11.3124924,4.6847992,22.3671265,6.2290344,33.6951218c0.3612976,2.6502228,0.8081512,5.2887878,1.215683,7.9327545
		c-0.4072723-0.0320892-0.7870331,0.0516357-1.1609039,0.2217789c-5.250885,2.3895721-10.8408661,3.4043884-16.5039978,4.2465134
		c-4.9055786,0.7294693-9.8006592,1.3550644-14.7624969,1.0241394c-3.0189667-0.2013397-6.0679779-0.007515-9.0567627-0.6636734
		c-0.4004364-0.0879288-1.0440369-0.3493347-1.070343,0.4709015c-0.0688629,2.1481247-0.966217,4.2106934-0.6513824,6.3962173
		c-0.4419403,0.8073044-0.2948303,1.7095184-0.3963165,2.5679779c-0.9907227,8.3786392-1.7198181,16.7760849-1.7456512,25.2220383
		c-0.0067139,2.2005463,0.0687561,4.3852692,0.5246277,6.5559692c0.4008636,1.9087372-0.0432281,3.8250885-0.2062378,5.7295837
		c-0.1811066,2.1162109-0.2468414,4.2292175-0.1479797,6.3477325c0.1008911,2.1623993-0.1498413,4.3116608-0.2017212,6.4661102
		c-0.0682373,2.8337555-0.1215973,5.6735077,0.1285095,8.5087433c0.1475983,1.6730652,0.078476,3.3501434-0.098175,5.02742
		c-0.3134613,2.9759674,0.161026,5.8720398,0.824295,8.7793121c1.6766357,7.3491974,1.4777832,14.7560425,0.3945313,22.1660767
		c-0.3131866,2.142395-0.3707275,4.2083435,0.3323975,6.3562622c1.7895203,5.466568,1.8004913,11.0871277,0.9232635,16.7248077
		c-0.2115021,1.3592529-0.2436066,2.6841888,0.0700989,4.0361938c0.8862457,3.8198547,0.4920654,7.7170715,0.6769409,11.5814056
		c0.2862549,5.9835815,0.6884613,11.9625854,1.4403229,17.9147034c0.2537231,2.008667,0.2185516,4.0574036,0.2538147,6.0889282
		c0.0314789,1.8131409-0.3387299,2.3127136-2.0966034,2.8403625c-2.9675751,0.8908081-6.046051,1.1467896-9.1074371,1.463501
		c-7.7273102,0.7994385-15.4857483,0.8745728-23.2448273,1.0192871
		c-11.2361755,0.2095642-22.4684143,0.6523743-33.7049484,0.8126526c-12.4795532,0.178009-24.9379883-0.848877-37.4192429-0.848999
		c-8.3984222-0.0000916-16.7991257-0.1004944-25.1803322-0.7364502c-4.1492767-0.3148499-8.2854118-0.7527771-12.3534241-1.6774292
		c-0.2727928-0.0620117-0.5451469-0.1272583-0.8147545-0.2017212c-3.0011635-0.8287048-3.3434029-1.173645-3.1586952-4.2307129
		c0.4741859-7.848175,1.0208855-15.6920776,1.5688667-23.535553c0.1421928-2.0353699,0.2741928-4.0685883,0.2251472-6.1084442
		c-0.0433769-1.8041687,0.0425301-3.5978241,0.3647537-5.3743591c0.4024925-2.2190704,0.4543953-4.4303284,0.1269684-6.6729889
		c-0.3675308-2.5173645-0.1233711-5.0311584,0.4234238-7.5046387c0.2379112-1.0762024,0.1960373-2.1278687,0.1169243-3.2104492
		c-0.3260269-4.4614716-1.0035973-8.9028625-0.8237762-13.394516c0.1759071-4.393631,1.2030106-8.6131439,2.7054672-12.72258
		c0.3647614-0.9976807,0.5816841-1.9600372,0.4271965-3.0288544c-0.1776123-1.2288208-0.1682091-2.4718018,0.0631027-3.7023163
		c0.3129845-1.6650085,0.2037849-3.326767,0.1185341-5.0112915c-0.1672783-3.3053589-0.1792717-6.6202087-0.1929398-9.9314117
		c-0.0532646-12.9004364-0.0429573-25.8012695-0.1390533-38.7013397c-0.0387726-5.2046204-0.9912949-10.3377228-1.54776-15.5010147
		C43.5824814,122.9213791,43.6808281,121.5897675,43.1451988,120.3591003z"></path>
</g>
<g onclick="select(this)" class="" id="gola-primaria" fill="#801815">
	<path d="M149.1530151,8.2665339c1.6939392,0.4726591,2.2954254,2.5113087,1.6764832,4.7439165
		c-1.1702118,4.221241-3.5444641,7.6797829-6.640976,10.6468983c-2.745224,2.6305218-5.8021545,4.8994617-9.1010895,6.8097744
		c-4.4165802,2.5575047-9.0063553,4.6916981-14.0783234,5.6319599c-0.9518738,0.1764565-1.8975296,0.0651474-2.9256516,0.2119141
		c0.0962524-0.7886925,0.5959091-1.2629395,0.9921417-1.7654648c2.8672943-3.636528,6.4311295-6.5473347,9.9547958-9.5003853
		c3.1523438-2.6418457,6.6448364-4.8692551,9.5260925-7.842041c1.7865448-1.8433084,3.4441986-3.782876,4.670166-6.0531158
		c0.3357849-0.6218185,0.6031036-1.2805748,0.9593048-2.0458479c-2.4323578,0.1821613-4.6977844,0.3347807-6.9600983,0.5245132
		c-6.2502136,0.5241804-12.5107498,0.8739176-18.7725372,1.2287455c-7.974205,0.4518642-15.8826141-0.3800211-23.8044891-0.9912195
		c-3.5428925-0.2733459-7.0799713-0.6263847-10.6162338-0.9779987c-0.8916168-0.0886545-0.9337845,0.2375078-0.6452408,0.9307556
		c0.5874176,1.4113483,1.3421936,2.7167549,2.3023758,3.9077702c1.9884186,2.4664373,4.1855927,4.7240839,6.6866608,6.6749144
		c4.9820099,3.8859615,9.9055481,7.8397236,14.290184,12.4103851c0.9518661,0.9922409,1.8467407,2.0424995,2.6657257,3.3343887
		c-2.3787994,0.1687813-4.5244522-0.29776-6.5661926-0.9732132c-9.7687836-3.2317219-18.1325226-8.4916897-24.0654526-17.1269894
		c-1.2417221-1.8073368-1.9321823-3.8451538-2.3278732-5.9871454c-0.3179321-1.7210159,0.0242081-3.181798,1.6840439-4.0964561
		c0.5143661-0.0252366,0.9027328-0.3090868,1.2522583-0.6413717c0.9263687-0.8806643,2.0001755-1.6612997,2.7273788-2.6858664
		c2.0422821-2.8773975,5.0196915-3.6030319,8.2393723-3.9380414c3.0733948-0.3197877,6.1406174,0.0641102,9.2117767,0.0276584
		c4.3972473-0.0521912,8.7969818,0.0443268,13.1928329-0.0513675c7.9100418-0.1721947,15.8178406,0.0474255,23.7266541,0.0363705
		c0.9123688-0.0012754,1.8285217,0.1743852,2.7368774,0.3086998c2.2479095,0.3323816,4.1504211,1.1903371,5.5703278,3.1194048
		C145.9152679,5.7696943,147.3286743,7.2616229,149.1530151,8.2665339z"></path>
</g>
<g onclick="select(this)" class="" id="detalhe-punho" fill="#bf0811">
	<path d="M0.2009721,114.41436c0.6107784-1.2420959,0.4154506-2.6777496,0.9468268-3.9383621
		c1.9765269,0.6283646,3.9751949,1.2142029,5.977838,1.7141418c6.2971659,1.5719833,12.7390747,2.1274796,19.2143612,2.1471405
		c3.7452736,0.0113754,7.5113277,0.3100128,11.2349834-0.3948441c1.0541077-0.1995392,2.1049347-0.416481,3.1596031-0.6128845
		c1.5306358-0.2850342,1.7421913-0.1876984,1.9219894,1.3255692c0.2250328,1.8939514,0.3311653,3.8020096,0.4886246,5.7039795
		c-0.9007339,0.7405167-2.0174828,0.9574585-3.1024132,1.1645813c-2.5106468,0.4793091-5.038868,0.7957077-7.6099892,0.8197708
		c-6.9945889,0.0654373-13.9775429,0.038559-20.8921719-1.2381592c-3.0178003-0.5572052-6.0275316-1.1423187-8.9426279-2.1199341
		c-0.8160248-0.273674-1.5989308-0.6459885-2.3970256-0.9730606C0.2009721,116.8129883,0.2009721,115.613678,0.2009721,114.41436z"></path>
	<path d="M184.5918884,120.0944595c-0.3148346-2.185524,0.5825195-4.2480927,0.6513824-6.3962173
		c0.0263062-0.8202362,0.6699066-0.5588303,1.070343-0.4709015c2.9887848,0.6561584,6.037796,0.4623337,9.0567627,0.6636734
		c4.9618378,0.330925,9.8569183-0.2946701,14.7624969-1.0241394c5.6631317-0.8421249,11.2531128-1.8569412,16.5039978-4.2465134
		c0.3738708-0.1701431,0.7536316-0.2538681,1.1609039-0.2217789c1.1353455,2.336441,1.1766815,4.8449707,1.0996094,7.3563385
		c-0.0221863,0.7228928-0.7844391,0.8354187-1.3140411,1.0370178c-2.8729095,1.0936127-5.8452148,1.8682861-8.8147736,2.6399994
		c-8.7313538,2.2690582-17.6292114,2.7698975-26.5950928,2.3430557c-2.0615997-0.0981522-4.1379547-0.3113708-6.1459961-0.8887787
		C185.4866486,120.7307129,184.9607391,120.5572357,184.5918884,120.0944595z"></path>
</g>
<path d="M185.3574982,247.3600006c-0.1799927-0.2400055-0.1699982-0.5099945-0.1000061-0.7799988
	C185.4375,246.8200073,185.4075012,247.0899963,185.3574982,247.3600006z"></path>
<polygon fill="#F5DC34" points="43.2775002,121.4700012 43.3175011,121.5400009 43.2875023,121.6100006 43.2175026,121.5400009 "></polygon>
<g onclick="select(this)" class="" id="estampa-secundaria" fill="#bf0811">
	<path d="M42.1899986,245.3542938c0.5900002-3.2799988,0.7299995-6.5599976,0.2900009-9.8800049
		c-0.2000008-1.5-0.0900002-3.0399933,0.2299995-4.5299988c0.8899994-4.1499939-0.0499992-8.25-0.2999992-12.3699951
		c-0.0900002-1.4400024-0.1300011-2.8699951-0.1199989-4.3000031c0.3899994,0.0099945,0.6599998,0.2700043,0.9599991,0.4600067
		c2.8600006,1.8300018,5.7099991,3.6799927,8.5800018,5.4900055C72.0599976,233.0243073,92.2900009,245.8143005,112.5,258.6442871
		c0.8300018,0.5299988,1.3700027,0.4599915,2.1200027-0.019989c5.9000015-3.7599792,11.8099976-7.4899902,17.7199936-11.2299805
		c16.7099915-10.5800018,33.4299927-21.1600037,50.1399994-31.75c0.4700012-0.3000031,0.9400024-0.6100006,1.5299988-0.5899963
		c0.0399933,1.7599945-0.2799988,3.4900055-0.5099945,5.2200012c-0.0800018,0.5899963-0.0399933,1.0899963,0.1399994,1.6199951
		c1.9900055,5.8899994,2.5200043,11.9199982,1.4600067,18.0500031c-0.3500061,2.0200043-0.0899963,3.9600067,0.2700043,5.9199982
		c-0.0700073,0.2700043-0.0800018,0.5399933,0.1000061,0.7799988c-0.0099945,0.1399994-0.0200043,0.2899933-0.0299988,0.4299927
		c-0.4499969,0.2599945-0.9100037,0.5-1.3500061,0.7700043c-19.0200043,11.5199738-38.0299988,23.0599823-57.0500031,34.5599823
		c-2.2099991,1.3399963-4.3199997,2.8699951-6.7300034,3.8599854c-4.75,0.1000061-9.4899979,0.1099854-14.2300034-0.25
		c-5.0999985-3.0700073-10.2200012-6.1099854-15.3099976-9.2000122
		c-15.5899963-9.4400024-31.1599998-18.9100037-46.7799988-28.3099823
		C42.6800003,247.7242889,41.8600006,246.9342804,42.1899986,245.3542938z"></path>
	<path d="M43.8600006,203.7342834c0.1699982-0.6900024,0.25-1.4299927,0.5299988-2.0700073
		c0.9500008-2.1300049,0.8199997-4.3600006,1-6.6199951c0.4399986-5.6199951,0-11.2100067-0.0099983-16.8099976
		c0-0.8800049-0.0499992-1.75-0.0699997-2.6300049c0.3600006,0.1600037,0.7400017,0.2899933,1.0800018,0.4900055
		c10.4700012,6.0800018,20.9300041,12.1900024,31.4099998,18.25c11.5200043,6.6600037,23.0800018,13.2599945,34.5999985,19.9199982
		c0.8499985,0.4900055,1.4800034,0.4400024,2.2799988-0.0399933c3.0599976-1.8099976,6.1500015-3.5800018,9.2300034-5.3500061
		c14.3000031-8.25,28.5899963-16.5,42.8899994-24.7400055c5.1900024-2.9900055,10.3999939-5.9600067,15.6000061-8.9300079
		c-0.0599976,4.1100006,0.4900055,8.2100067,0.0500031,12.3399963c-0.3399963,3.1399994,0.6699982,6.1499939,1.25,9.1999969
		c0.3500061,1.8300018,0.6999969,3.6799927,0.6300049,5.5700073c-0.5399933,0.8000031-1.1699982,1.4700012-2.0099945,2
		c-15.3500061,9.8099976-30.6900024,19.6600037-46.0399933,29.4700012c-7.1000061,4.5399933-14.25,9.0099945-21.3700027,13.5399933
		c-0.9599991,0.6100006-1.75,0.6499939-2.7399979,0c-4.0500031-2.6399994-8.1500015-5.2100067-12.2200012-7.8099976
		c-9.7700043-6.2299957-19.5400009-12.4600067-29.3099976-18.6900024
		C61.7099991,215.1342926,52.7900009,209.4342804,43.8600006,203.7342834z"></path>
	<path d="M45.3199997,161.9642792c-0.3400002-2.1100006,0.0600014-4.2200012,0.0299988-6.3300018
		c-0.0600014-3.9499969,0.0200005-7.9100037,0.0400009-11.8600006c0.2599983,0.1000061,0.5400009,0.1600037,0.7799988,0.3000031
		c3.0099983,1.6600037,6.0100021,3.3300018,9.0200005,4.9900055c19.079998,10.5700073,38.170002,21.1399994,57.2400017,31.7299957
		c0.8000031,0.4499969,1.4000015,0.4400024,2.1900024,0c7.5699997-4.2299957,15.1700058-8.4100037,22.7499924-12.6100006
		c12.1600037-6.7400055,24.3099976-13.5,36.4900055-20.2099915c2.8999939-1.6000061,5.7200012-3.3600006,8.75-4.7100067
		c-0.0200043,2-0.0500031,4-0.0399933,6c0,1.3600006,0.0299988,2.7200012,0.2899933,4.0599976
		c0.5299988,2.7200012-0.0099945,5.4100037-0.2200012,8.1199951c-0.1100006,0.0500031-0.2200012,0.0899963-0.3200073,0.1499939
		c-14.25,8.9400024-28.5099945,17.8699951-42.7599945,26.8099976c-8.2299957,5.1600037-16.4499969,10.3199921-24.6699982,15.4900055
		c-0.8499985,0.5299988-1.5800018,0.6999969-2.5299988,0.1000061C97.75,194.8042755,83.1200027,185.6442719,68.4900055,176.4742737
		C60.7700005,171.6342926,53.0400009,166.8042908,45.3199997,161.9642792z"></path>
	<path d="M43.2700005,120.2442856c-0.0900002-3-0.6100006-5.9599991-0.9199982-8.9400024
		c-0.0299988-0.3099976-0.2200012-0.7099991,0.0099983-0.9199982c0.3300018-0.2900009,0.6599998,0.1100006,0.9500008,0.25
		c13.1300011,6.3700027,26.2499962,12.7600021,39.3699989,19.1299973c10,4.8600006,20,9.6999969,29.9899979,14.5699921
		c0.5999985,0.2899933,1.0599976,0.3099976,1.6600037,0.0099945c11.8600006-5.7899933,23.7200012-11.5500031,35.5899963-17.3199997
		c11.3999939-5.5400009,22.8000031-11.0800018,34.1999969-16.6100006c0.3200073-0.1500015,0.6600037-0.2699966,1.1799927-0.4800034
		c-0.1900024,3.4499969-0.7400055,6.7399979-0.7599945,10.0699997c-0.25,2.2200012-0.5099945,4.4400024-0.7599945,6.659996
		c-5.1900024,2.9100037-10.3899994,5.8200073-15.5800018,8.7299957
		c-8.4400024,4.7200012-16.8800049,9.4400024-25.3199921,14.1600037c-9.4199982,5.2700043-18.8300018,10.5299988-28.25,15.8000031
		c-0.7699966,0.4299927-1.4899979,0.4100037-2.2600021-0.0200043c-7.3899994-4.1399994-14.7900009-8.2700043-22.1800003-12.3999939
		c-15.3399963-8.5800018-30.6900024-17.1699982-46.0299988-25.75c-0.4199982-2.0699997-0.5099983-4.1900024-0.7599983-6.2799988
		l0.0400009-0.0699997l-0.0499992-0.0699997C43.3499985,120.5842896,43.3100014,120.4142838,43.2700005,120.2442856z"></path>
	<path d="M185.7100067,256.3542786c0.4100037,5.2999878,0.7599945,10.6000061,1.2599945,15.8900146
		c0.2299957,2.4200134,0.4100037,4.8399963,0.5599976,7.2600098c0.1399994,2.3399963-0.3600006,3.0599976-2.6399994,3.6700134
		c-3.4900055,0.9400024-7.0800018,1.1300049-10.6499939,1.4500122c-10.1199951,0.9100037-20.2799988,0.75-30.4300079,0.9700012
		c-0.8399963,0.019989-1.6799927,0.0400085-2.5200043,0.0599976c-0.7899933-0.2000122-1.6199951,0.1600037-2.5500031-0.1799927
		c0.3999939-0.2799988,0.6799927-0.5,0.9799957-0.6900024c12.8999939-8.019989,25.8000031-16.0499878,38.7200012-24.0499878
		C180.8399963,259.2642822,183.1600037,257.6142578,185.7100067,256.3542786z"></path>
	<path d="M88.0999985,285.544281c-11.6200027-0.25-23.2699966,0-34.8600006-1.1499939
		c-3.6599998-0.3599854-7.3100014-0.7900085-10.8199997-1.9700012c-1.9199982-0.6400146-2.2400017-1.0599976-2.1800003-3.0400085
		c0.2400017-7.5799866,0.9599991-15.1300049,1.4799995-22.6900024c0.4700012-0.0100098,0.8300018,0.269989,1.2000008,0.5
		c14.1399994,8.7799988,28.2799988,17.5599976,42.4000015,26.3699951
		C86.2799988,284.1642761,87.4000015,284.56427,88.0999985,285.544281z"></path>
	<path d="M113.4800034,123.8942871c-0.4199982,0-0.7699966-0.1900024-1.1299973-0.3600006
		c-9.1999969-4.3000031-18.4000015-8.5899963-27.5999985-12.8899994
		c-15.0999985-7.0599976-30.1900024-14.1299973-45.2999992-21.1699982
		c-0.9799995-0.4499969-1.5299988-1.0599976-1.9199982-2.0800018c-1.1899986-3.0800018-2.2299995-6.2300034-3.7099991-9.1999969
		c-0.2200012-0.4499969-0.6199989-1.0800018-0.3100014-1.4400024c0.3800011-0.4400024,0.9399986,0.1299973,1.3800011,0.3000031
		C53.25,84.2842865,71.6200027,91.5142899,89.9800034,98.7442856c7.5500031,2.9700012,15.0999985,5.9300003,22.6399994,8.9300003
		c0.7600021,0.3000031,1.3700027,0.1500015,2.0500031-0.1200027c15.4599991-6.0999985,30.9300003-12.1800003,46.4000015-18.2699966
		c10.7100067-4.2099991,21.4199982-8.4199982,32.1300049-12.6299973c0.3200073-0.1299973,0.6900024-0.4700012,1-0.2399979
		c0.3300018,0.25,0.0500031,0.6699982-0.0200043,1.0100021c-0.6399994,3.3899994-1.6999969,6.6399994-3.1600037,9.7699966
		c-0.2899933,0.6299973-0.7200012,1.0100021-1.3300018,1.2900009c-10.2899933,4.8000031-20.5700073,9.6100006-30.8500061,14.4199982
		c-9.5200043,4.4499969-19.0400085,8.909996-28.5700073,13.3600006c-5.0699997,2.3700027-10.1299973,4.75-15.2099991,7.1100006
		C114.5599976,123.6242828,114.0599976,123.8942871,113.4800034,123.8942871z"></path>
</g>
</svg>
