<!--?xml version="1.0" encoding="utf-8"?-->
<!-- Generator: Adobe Illustrator 24.2.3, SVG Export Plug-In . SVG Version: 6.00 Build 0)  -->
<svg version="1.1" id="Camada_1" xmlns="http://www.w3.org/2000/svg" xmlns:xlink="http://www.w3.org/1999/xlink" x="0px" y="0px" viewBox="0 0 229 418" style="enable-background:new 0 0 229 418;" xml:space="preserve">
<style type="text/css">
	.st0{fill:#FC0101;}
	.st1{fill:#2145B9;}
	.st2{fill:#8FFE4C;}
</style>
<g onclick="select(this)" class="" id="gola-primaria" fill="#082890">
	<path d="M109.3,35.9c-0.2,0.5-0.6,0.3-0.9,0.3c-4.1-0.3-8-1.5-11.6-3.3c-5.4-2.6-10.2-5.9-14.4-10.2
		c-2.7-2.7-4.9-5.8-5.8-9.6c-0.2-1-0.4-2-0.2-3.1c0.2-1,0.9-1.5,1.7-2.1c0.5,0,0.9-0.3,1.3-0.6c0.9-0.9,2-1.7,2.7-2.7
		c2-2.9,5-3.6,8.2-3.9c3.1-0.3,6.1,0.1,9.2,0c4.4-0.1,8.8,0,13.2-0.1c7.9-0.2,15.8,0,23.7,0c0.9,0,1.8,0.2,2.7,0.3
		c2.2,0.3,4.1,1.2,5.6,3.1c1.2,1.6,2.6,3.1,4.4,4.1c1.7,0.5,2.3,2.5,1.7,4.7c-1.2,4.2-3.5,7.7-6.6,10.6c-2.7,2.6-5.8,4.9-9.1,6.8
		c-4.1,2.4-8.3,4.4-12.9,5.4c-1.4,0.3-2.8,0.4-4.3,0.5c0.5-1.1,1.3-2.1,2.1-3c2.2-2.6,4.9-4.8,7.5-7.1c2.1-1.7,4.3-3.3,6.4-5
		c2.4-1.8,4.6-3.8,6.6-6.1c1.5-1.8,2.8-3.7,3.7-6c-2,0.2-3.9,0.4-5.9,0.5c-5.4,0.4-10.8,0.8-16.1,1.1c-5.6,0.4-11.2,0.4-16.8,0
		c-7.1-0.5-14.3-1.1-21.4-1.8c-0.7-0.1-1,0.1-0.7,0.8c0.5,1.2,1.1,2.4,1.9,3.4c3.9,5.3,9.4,8.9,14.4,13.1
		C103.1,29.3,106.6,32.2,109.3,35.9z"></path>
</g>
<g onclick="select(this)" class="" id="detalhe-lateral" fill="#011023">
	<path d="M180.3,284c-0.4-5-0.6-10-0.8-15.1c-0.3-6-0.5-12-0.7-17.9c-0.2-4.9-0.3-9.7-0.5-14.6
		c-0.3-7.3-0.3-14.6-0.5-21.9c-0.4-17-0.2-34.1-0.2-51.1c0-4.8,0.2-9.7,0.5-14.5c0.3-4.8,0.7-9.6,1.1-14.4
		c0.9-9.6,2.5-19.2,4.9-28.5c1.2-4.8,2.7-9.6,4.8-14.2c0.1-0.2,0.1-0.6,0.4-0.7l0,0c0.2,0.5-0.1,0.9-0.2,1.3
		c-1.9,6.6-3.2,13.3-4.1,20.1c-0.4,2.5-0.4,5.1-0.5,7.7c-1.2,10.3-2.3,20.6-2,31c0.1,2.5,0.8,4.9,0.4,7.4c-0.4,2.3-0.4,4.7-0.4,7
		c0.1,6.6,0.1,13.2-0.1,19.7c-0.1,4.5,0.7,8.7,1.4,13c0.9,5.1,0.9,10.2,0.2,15.4c-0.3,2.3-0.5,4.7-0.8,7c0,0.4,0.1,0.8,0.2,1.2
		c2,5.7,2.5,11.6,1.6,17.6c-0.3,2-0.3,4,0.1,6c0.4,2,0.6,4.1,0.5,6.2c-0.1,7.4,0.7,14.7,1.4,22c0.2,2.3,0.3,4.6,0.3,6.9
		c0,1.1-0.5,1.8-1.5,2.2C184.2,283.5,182.3,284,180.3,284z"></path>
	<path d="M42.5,112.8c0.1-1.9-0.4-3.8-0.6-5.7c-0.4-2.9-0.9-5.7-1.3-8.5c-0.1-0.7-0.8-1.2-0.3-2.1
		c0.9,1.9,1.4,3.8,1.9,5.7c1.9,6.1,3.1,12.4,4.2,18.7c0.8,4.5,1.4,9.1,1.8,13.7c0.4,4.2,0.7,8.4,1,12.6c1.3,21.4,0.6,42.8,0.7,64.2
		c0,4-0.1,8-0.2,12c-0.1,6.3-0.3,12.5-0.5,18.8c-0.2,4.4-0.3,8.9-0.5,13.3c-0.2,5.6-0.4,11.2-0.8,16.9c-0.3,3.8-0.2,7.6-0.7,11.3
		c-1.7-0.1-3.4-0.5-5-1.1c-1.6-0.6-2-1.1-2-2.8c0-2.8,0.2-5.6,0.4-8.3c0.4-5.3,0.7-10.6,1.2-15.9c0.4-4.8-0.1-9.6,0.9-14.3
		c0.2-0.9,0.1-1.8,0-2.7c-0.5-3.1-0.4-6.2,0.3-9.3c0.2-0.9,0.1-1.7,0.1-2.6c-0.3-4.1-0.8-8.1-0.9-12.2c0-4.9,1.1-9.7,2.7-14.3
		c0.3-0.9,0.5-1.7,0.4-2.7c-0.2-1.6-0.1-3.2,0.2-4.8c0.1-0.6,0.2-1.2,0.1-1.8c-0.1-4.8-0.3-9.6-0.4-14.5c0-1.1,0.1-2.2,0.2-3.3
		c0.1-1.9,0.1-3.7,0-5.6c-0.4-5.1-0.2-10.1-0.1-15.2c0.2-9.1-0.2-18-1.5-27c-0.2-1.5-0.4-3.1-0.6-4.6c0.5-1.2-0.2-2.3-0.4-3.5
		C42.7,115.6,42.9,114.1,42.5,112.8z"></path>
</g>
<g onclick="select(this)" class="" id="detalhe-punho" fill="#011023">
	<path d="M0.2,114.4c0.5-1,0.5-2.2,0.7-3.3c0.1-0.5,0.1-1.1,0.5-1.5c4.7,1.9,9.7,3.3,14.7,3.9
		c5.6,0.7,11.3,0.9,16.9,0.7c2.4-0.1,4.7-0.2,7-0.6c0.8-0.1,1.4-0.9,2.3-0.8c0.5,1.4,0.2,2.8,0.4,4.2c0.1,1.1,0.9,2.3,0.4,3.5
		c-2.8,1.3-5.9,1.7-9,1.8c-7.1,0.1-14.1,0.3-21.2-0.9c-3.6-0.6-7.2-1.3-10.7-2.4c-0.7-0.2-1.5-0.6-2.2-0.9
		C0.2,116.8,0.2,115.6,0.2,114.4z"></path>
	<path d="M184.6,120.2c0-2.6,0-5.1,0.5-7.7c0.9,0.6,2,0.9,3.1,1c5.6,0.3,11.2,0.6,16.8,0c4-0.4,7.9-1.2,11.9-2
		c3.1-0.7,6-1.9,9.1-2.5c0.6-0.1,1.3-0.5,1.9-0.8c1,2.5,1.3,5.1,1.1,7.7c0,0.6-0.8,0.8-1.3,0.9c-3.2,1.2-6.5,2.1-9.9,2.9
		c-8.4,2.1-16.9,2.5-25.5,2.1c-1.8-0.1-3.6-0.4-5.5-0.7C186,121,185.3,120.7,184.6,120.2z"></path>
</g>
<g onclick="select(this)" class="" id="gola-secundaria" fill="#011023">
	<path d="M127.5,26.2c-2.5,2.3-5.2,4.5-7.5,7.1c-0.8,0.9-1.6,1.9-2.1,3c-2.3,0.6-4.6,0.4-7,0.2c-0.6,0-1.1-0.3-1.6-0.6
		c-2.7-3.7-6.2-6.6-9.6-9.7c2.8,0,5.7-0.1,8.5-0.1C114.7,26.2,121.1,26.2,127.5,26.2z"></path>
</g>
<path d="M189.4,91.2c0-0.1,0.1-0.3,0.1-0.4c0,0,0.1,0.1,0.1,0.1C189.6,91,189.6,91.2,189.4,91.2
	C189.3,91.1,189.4,91.2,189.4,91.2z"></path>
<g onclick="select(this)" class="" id="estampa-primaria" fill="#082890">
	<path d="M42.5,112.8c-0.9-0.1-1.5,0.6-2.3,0.8c-2.3,0.4-4.7,0.5-7,0.6c-5.7,0.2-11.3,0-16.9-0.7c-5.1-0.6-10-1.9-14.7-3.9
		c1.7-8.9,2.5-18,4-26.9c0.9-5.2,1.2-10.6,2.2-15.8c1.7-8.5,4.5-16.6,9.7-23.7c2.1-2.9,4.5-5.5,7.3-7.7c1.4-1.1,2.4-2.6,3.9-3.4
		c3.6-1.9,7.3-3.7,11-5.3c10-4.1,20-8.2,29.5-13.4c2-1.1,4-2.1,5.5-3.9c0.8-1,2.1-1.6,3.5-1.6C77.3,8.5,76.6,9,76.4,10
		c-0.2,1,0,2.1,0.2,3.1c0.9,3.8,3.1,6.9,5.8,9.6c4.1,4.3,9,7.6,14.4,10.2c3.7,1.8,7.5,3,11.6,3.3c0.3,0,0.7,0.3,0.9-0.3
		c0.5,0.3,1,0.6,1.6,0.6c2.3,0.2,4.7,0.4,7-0.2c1.4-0.2,2.9-0.2,4.3-0.5c4.7-0.9,8.9-3,12.9-5.4c3.3-1.9,6.4-4.2,9.1-6.8
		c3.1-3,5.5-6.4,6.6-10.6c0.6-2.2,0-4.3-1.7-4.7c1.9-0.3,3.1,0.9,4.2,2.2c0.3,0.4,0.7,0.7,1.1,1c8.9,5.9,18.8,9.6,28.5,13.7
		c5.1,2.1,10,4.4,15.1,6.6c0.3,0.1,0.6,0.3,0.8,0.5c12,8.5,19.2,20.1,21.4,34.5c1.7,11.5,4.7,22.7,6.3,34.2c0.3,2.5,0.7,4.9,1.1,7.3
		c-0.6,0.3-1.2,0.6-1.9,0.8c-3.1,0.7-6,1.9-9.1,2.5c-3.9,0.8-7.9,1.6-11.9,2c-5.6,0.6-11.2,0.3-16.8,0c-1.1-0.1-2.1-0.4-3.1-1
		c0.9-6.8,2.2-13.5,4.1-20.1c0.1-0.4,0.4-0.8,0.2-1.3c0.2,0,0.2-0.1,0.2-0.3c0,0,0-0.1-0.1-0.1c0,0.1-0.1,0.3-0.1,0.4
		c-0.3,0.1-0.3,0.4-0.4,0.7c-2,4.6-3.5,9.3-4.8,14.2c-2.4,9.4-4,18.9-4.9,28.5c-0.5,4.8-0.8,9.6-1.1,14.4c-0.3,4.8-0.5,9.6-0.5,14.5
		c0,17-0.3,34.1,0.2,51.1c0.2,7.3,0.3,14.6,0.5,21.9c0.2,4.9,0.3,9.7,0.5,14.6c0.2,6,0.5,12,0.7,17.9c0.2,5,0.4,10,0.8,15.1
		c-7.7,1.1-15.4,1.4-23.1,1.5c-12.9,0.2-25.9,0.6-38.8,0.9c-6.8,0.2-13.5-0.5-20.2-0.6c-8.7-0.1-17.4-0.2-26.1-0.4
		c-8.3-0.2-16.6-0.4-24.8-1.8c0.5-3.8,0.5-7.6,0.7-11.3c0.4-5.6,0.6-11.2,0.8-16.9c0.1-4.4,0.3-8.9,0.5-13.3
		c0.3-6.3,0.4-12.5,0.5-18.8c0.1-4,0.2-8,0.2-12c0-21.4,0.6-42.8-0.7-64.2c-0.3-4.2-0.6-8.4-1-12.6c-0.4-4.6-1.1-9.1-1.8-13.7
		c-1.1-6.3-2.3-12.6-4.2-18.7c-0.6-1.9-1-3.8-1.9-5.7c-0.5,0.9,0.2,1.5,0.3,2.1c0.4,2.9,0.9,5.7,1.3,8.5
		C42.1,109,42.5,110.8,42.5,112.8z"></path>
	<path d="M127.5,26.2c-6.4,0-12.9,0-19.3-0.1c-2.8,0-5.7,0.1-8.5,0.1c-5-4.1-10.5-7.7-14.4-13.1c-0.8-1.1-1.4-2.2-1.9-3.4
		c-0.3-0.7-0.1-0.9,0.7-0.8c7.1,0.8,14.2,1.3,21.4,1.8c5.6,0.4,11.2,0.4,16.8,0c5.4-0.4,10.8-0.7,16.1-1.1c1.9-0.1,3.8-0.3,5.9-0.5
		c-0.8,2.3-2.2,4.2-3.7,6c-1.9,2.3-4.2,4.3-6.6,6.1C131.8,22.9,129.7,24.5,127.5,26.2z"></path>
</g>
<g onclick="select(this)" class="" id="estampa-secundaria" fill="#011023">
	<path d="M151.4,285.7c0-0.5,0-1,0-1.6c0-85.8,0-171.7,0-257.5c0-0.5,0-1,0-1.5c0.9,0.3,1.5,0.6,1.5,1.7
		c0,86.2,0,172.4,0,258.6c0,0.1,0,0.2,0,0.2C152.4,285.9,151.9,285.9,151.4,285.7z"></path>
	<path d="M74.2,285.5c0-86.2,0-172.4,0-258.6c0-1.1,0.4-1.6,1.5-2c0,86.9,0,173.8,0,260.6
		C75.2,285.6,74.7,285.5,74.2,285.5z"></path>
	<path d="M85.2,25.4c0.6,0.3,1.1,0.7,1.5,1.3c0,0.6,0,1.1,0,1.7c0,85.8,0,171.5,0,257.3c0,0,0,0.1,0,0.1
		c-0.5,0.1-1,0.2-1.5,0c0-0.5,0-1,0-1.6c0-85.7,0-171.4,0-257.1C85.2,26.5,85.2,26,85.2,25.4z"></path>
	<path d="M140.3,27.1c0.3-0.7,0.9-1.1,1.7-1.4c0,0.4-0.1,0.9-0.1,1.3c0,86.3,0,172.6,0,258.8c-0.5,0.1-1,0.3-1.6,0
		c0-0.6,0-1.2,0-1.8c0-85.1,0-170.1,0-255.2C140.3,28.3,140.3,27.7,140.3,27.1z"></path>
	<path d="M162.5,285.5c0-0.6,0-1.3,0-1.9c0-83.7,0-167.3,0-251c0-0.3,0-0.6,0-0.8c0.1-0.3-0.2-0.9,0.3-0.9
		c0.4,0,1.1,0.1,1.2,0.8c0.1,0.3,0,0.6,0,0.8c0,84,0,168.1,0,252.1c0,0.3,0,0.6,0,0.8C163.5,285.7,163,285.6,162.5,285.5z"></path>
	<path d="M63.1,285.3c0-84.3,0-168.5,0-252.8c0-1.1,0.2-1.8,1.4-1.8c0.2,0.3,0.1,0.7,0.1,1c0,84.6,0,169.1,0,253.6
		C64.1,285.4,63.6,285.4,63.1,285.3z"></path>
	<path d="M129.3,33.6c0.4-0.5,0.9-0.7,1.6-0.7c0,0.6,0,1.2,0,1.8c0,83.3,0,166.6,0,249.8c0,0.6,0,1.1,0,1.7
		c-0.5,0.2-1,0.2-1.5,0c0-83.6,0-167.2,0-250.8C129.3,34.8,129.3,34.2,129.3,33.6z"></path>
	<path d="M96.2,32.7c0.6,0.1,1.1,0.3,1.5,0.7c0,0.4,0,0.7,0,1.1c0,83.6,0,167.2,0,250.8c0,0.2,0,0.5,0,0.7
		c-0.5,0.2-1,0.2-1.5-0.1c0-24.7,0-49.3,0-74c0-59.1,0-118.2,0-177.3C96.2,33.9,96.2,33.3,96.2,32.7z"></path>
	<path d="M118.2,36.4c0.5-0.2,1-0.2,1.5-0.2c0,0.6,0,1.1,0,1.7c0,81.7,0,163.4,0,245.1c0,1.2,0,2.3,0,3.5
		c-0.5,0.1-1,0.1-1.5,0c0-82.8,0-165.6,0-248.4c0-0.6,0.3-1.2-0.2-1.7L118.2,36.4L118.2,36.4z"></path>
	<path d="M107.2,36c0.5,0,1.1-0.1,1.5,0.2c0,0.4,0,0.7,0,1.1c0,82.6,0,165.1,0,247.7c0,0.4,0,0.9,0,1.3
		c-0.5,0.1-1.1,0.1-1.6-0.1c0-0.6,0-1.2,0-1.8c0-82.2,0-164.4,0-246.6C107.2,37.2,107.2,36.6,107.2,36z"></path>
	<path d="M52,284.4c0-0.4,0-0.9,0-1.3c0-82.3,0-164.6,0-246.8c0-0.7-0.3-1.5,0.8-1.7c0.5-0.1,0.8-0.1,0.8,0.5
		c0,0.2,0,0.4,0,0.6c0,82.8,0,165.7,0,248.5c0,0.1,0,0.2,0,0.4C53.1,284.7,52.5,284.8,52,284.4z"></path>
	<path d="M173.5,284.9c0-21.8,0-43.5,0-65.3c0-61,0-122,0-183c0-0.3,0-0.6,0-1c0-0.3-0.2-0.8,0.3-0.7c0.4,0,1,0,1.2,0.6
		c0.1,0.3,0,0.6,0,0.8c0,82.6,0,165.1,0,247.7c0,0.2,0,0.5,0,0.7C174.5,285,174,285,173.5,284.9z"></path>
	<path d="M186.1,99.4c-0.4,1.7-0.9,3.4-1.5,5c0-21.7,0-43.3,0-65c0-1.3,0.2-1.5,1.1-1.1c0.3,0.1,0.4,0.3,0.4,0.6
		c0,0.3,0,0.6,0,1c0,19.3,0,38.6,0,57.9C186,98.3,186.1,98.8,186.1,99.4z"></path>
	<path d="M42.5,102.7c-0.7-1.6-1.1-3.2-1.5-4.8c0-0.5,0-1,0-1.4c0-19.1,0-38.2,0-57.3c0-1,0.2-1.7,1.5-1.6
		C42.5,59.2,42.5,81,42.5,102.7z"></path>
</g>
</svg>
