<!--?xml version="1.0" encoding="utf-8"?-->
<!-- Generator: Adobe Illustrator 24.2.3, SVG Export Plug-In . SVG Version: 6.00 Build 0)  -->
<svg version="1.1" id="Camada_1" xmlns="http://www.w3.org/2000/svg" xmlns:xlink="http://www.w3.org/1999/xlink" x="0px" y="0px" viewBox="0 0 234 419" style="enable-background:new 0 0 234 419;" xml:space="preserve">
<style type="text/css">
	.st0{fill:#02C907;}
	.st1{fill:#9D1616;}
	.st2{fill:#0E1880;}
	.st3{fill:#1E8889;}
</style>
<g onclick="select(this)" class="" id="c-gola-primaria" fill="#082890">
	<path d="M82,8.2c2-1.6,3.7-3.5,5.4-5.4c1-1.2,2.6-1.4,4.1-1.8C92.2,0.8,93,1,93.6,0.5c2.1,0,4.2,0,6.2,0
		c0.3,0.4,0.7,0.2,1.1,0.2c5.6,0,11.2-0.1,16.9-0.1c0.9,0,1.8,0.1,2.7,0c1.1-0.1,2.2,0.3,3.3-0.2c6,0,12,0,18,0c0.9,0.5,2,0.5,3,0.7
		c1.6,0.4,3,1.1,4.1,2.5c1.3,1.7,2.9,2.9,4.5,4.3c-4.3,0.3-8.6,1.2-12.9,1.7c-7.6,0.8-15.2,1.3-22.8,1.5c-4.5,0.2-8.9-0.5-13.4-0.6
		c-4.3-0.2-8.6-0.8-12.8-1.3C88.3,8.9,85.2,8.2,82,8.2z"></path>
	<path d="M117.8,0.6c-5.6,0-11.2,0.1-16.9,0.1c-0.4,0-0.8,0.1-1.1-0.2c6,0,12,0,18,0L117.8,0.6L117.8,0.6z"></path>
</g>
<g onclick="select(this)" class="" id="c-detalhe-lateral" fill="#011023">
	<path d="M46.6,116.5c1,0.4,0.5,1.3,0.7,1.9c0.7,2.3,1,4.7,1.3,7.1c0.3,2.8,0.7,5.6,0.9,8.4c0.4,4.2,0.7,8.3,0.9,12.5
		c0.1,2.4,0.3,4.9,0.4,7.3c0.5,17.7,0.3,35.4,0.3,53.1c0,6.6-0.2,13.2-0.4,19.8c-0.1,2.4-0.1,4.8-0.2,7.2
		c-0.2,6.1-0.3,12.2-0.6,18.3c-0.2,4.1-0.3,8.1-0.5,12.2c-0.2,5.6-0.4,11.2-0.8,16.8c-0.1,1.6-0.1,3.3-0.3,4.9
		c-1-0.1-1.9-0.4-2.8-0.7c-2.1-0.7-2.4-1.1-2.2-3.3c0.4-5.4,0.7-10.8,1.1-16.2c0.3-3.9,0.6-7.8,0.6-11.7c0-2.3,0.2-4.6,0.7-6.9
		c0.5-2.3-0.1-4.6-0.2-6.9c-0.4-5.3,0.2-10.5,1.5-15.7c0.6-2.2,0.1-4.3-0.1-6.4c-0.8-7.5-0.5-15,1.1-22.4c0.5-2.1,0.6-4.3,0.5-6.4
		c-0.3-4.6,0.1-9.3-0.1-13.9c-0.2-5.7,0-11.3-0.5-17c-0.1-0.6-0.1-1.3,0-1.9c0.8-7.2,0.2-14.4-0.2-21.7c-0.2-4.1-0.4-8.2-0.6-12.3
		c-0.1-1.2-0.1-2.5-0.5-3.7C46.6,118,46.6,117.3,46.6,116.5z"></path>
	<path d="M186.8,285c-0.2-4.2-0.4-8.4-0.6-12.5c-0.3-6.2-0.5-12.4-0.7-18.6c-0.2-5.1-0.3-10.2-0.5-15.3
		c-1.1-24-0.8-48.1-0.8-72.1c0-6.3,0.2-12.6,0.5-18.9c0.2-4.8,0.6-9.6,1.1-14.4c0.4-4.1,0.8-8.1,1.5-12.2c0.1-0.4,0.1-0.7,0.5-0.9
		c0.1,0.2,0.2,0.4,0.3,0.5c-0.9,0.8-0.5,2-0.6,2.9c-0.7,7.6-0.9,15.3-0.8,23c0.1,3.9,0.5,7.8,0.2,11.7c-0.6,7.7-0.2,15.4-0.1,23.1
		c0,2.7-0.1,5.4-0.5,8.1c-0.2,1.7-0.2,3.5,0.1,5.3c0,0.3,0.1,0.6,0.1,0.8c-0.3,3.2,0.6,6.2,1.4,9.3c1.8,6.1,2,12.4,1.3,18.6
		c-0.4,4.2-0.4,8.3,0.2,12.4c0.1,0.8,0.1,1.6,0,2.4c-0.7,5.4,0.6,10.7,0.7,16.1c0.2,7.1,0.9,14.2,1.3,21.3c0.1,2.1,0.4,4.1,0.3,6.2
		c0,1.2-0.5,1.9-1.6,2.2C189.1,284.5,188,284.9,186.8,285z"></path>
</g>
<g onclick="select(this)" class="" id="c-detalhe-punho" fill="#011023">
	<path d="M0.2,116.3c0.6-1.6,0.5-3.3,1-5c0.1-0.5,0-1.1,0.6-1.5c3.1,0.6,6.2,1.2,9.4,1.9c3.4,0.7,6.8,1.3,10.2,1.8
		c1.6,0.2,3.1,0.5,4.7,0.7c4.3,0.4,8.6,0.6,12.9,0.2c2.3-0.2,4.8,0.2,6.6-2.3c0.2,1.1,0.4,2,0.5,2.8c-0.2,0.6,0.7,1,0.5,1.6
		c0,0.7,0,1.4,0,2.2c0,0.1-0.1,0.2-0.1,0.3c0.2,2.3-0.2,2.7-2.4,2.8c-3.6,0.3-7.1,0.9-10.7,0.8c-6.3-0.2-12.5-1.1-18.7-2
		c-4.6-0.7-9.1-1.5-13.6-2.6c-0.3-0.1-0.5-0.2-0.8-0.2C0.2,117.3,0.2,116.8,0.2,116.3z"></path>
	<path d="M188.1,120.7c-0.1-0.2-0.2-0.4-0.3-0.5c0.4-2.1,0.7-4.3,0.9-6.5c0.8-0.1,0.2-0.8,0.7-1.2
		c0.5,0,0.9,0.4,1.3,0.7c2.5,1.9,5.1,3,8.4,3c4.6,0,9.2-0.4,13.7-1c5.3-0.7,10.7-1.3,16-2.3c1.2-0.2,2.3-0.6,3.5-0.9
		c0.2,0.1,0.4,0.2,0.4,0.4c0.2,2.1,0.7,4.3,0.8,6.4c0.1,1-0.3,1.5-1.3,1.7c-3.7,0.9-7.5,1.5-11.3,2.1c-7.1,1-14.3,1.7-21.5,1.5
		c-2.9-0.1-5.6-0.4-8.2-2C190.1,121.5,188.7,121.9,188.1,120.7z"></path>
</g>
<g onclick="select(this)" class="" id="c-estampa-primaria" fill="#082890">
	<path d="M46.6,116.5c0.2-0.6-0.7-1-0.5-1.6c0.5,0,0.7-0.5,0.6-0.7c-0.3-1.2,0-2.5-0.5-3.8c-0.6-1.6-0.9-3.3-0.9-5.1
		c0-1.7,0.1-3.6-0.4-5.2c-0.6-2.2-0.5-4.3-0.8-6.5c-0.4-4-1.5-8-2-12C42,79.9,40.9,78.5,40,77c-0.8-1.3-1.7-2.5-2.3-3.9
		c-1.3-2.9-2-6-3-8.9c-2.7-8.2-4.2-16.7-3.4-25.4c0.1-1.1,0.1-2.3,0.1-3.4c0-0.9,0.5-1.8,0.1-2.7c3.5-1.6,6.9-3.3,10.4-4.8
		c7.7-3.2,15.4-6.4,23-9.8c4.1-1.8,7.9-4.2,11.7-6.6c0.4-0.3,0.7-0.6,1-1c1.2-1.3,2.6-2.3,4.4-2.3c3.2,0.1,6.3,0.7,9.5,1.1
		c4.3,0.5,8.5,1.1,12.8,1.3c4.5,0.2,8.9,0.8,13.4,0.6c7.6-0.3,15.2-0.7,22.8-1.5c4.3-0.5,8.6-1.3,12.9-1.7c2,0.1,3.5,1,4.8,2.5
		c0.9,1.1,2.3,1.7,3.5,2.4c9.3,5.2,19,9.5,28.9,13.4c4.4,1.7,8.5,4,12.8,5.8c0.2,0.1,0.3,0.2,0.5,0.4c-0.4,0.8-0.4,1.6,0,2.4
		c0.1,0.3,0.2,0.5,0.1,0.8c-0.3,0.9-0.1,1.8,0,2.7c0.4,5.3,0.2,10.6-0.8,15.8c-0.9,4.8-2.5,9.5-3.9,14.2c-0.9,3-2.2,5.6-3.8,8.2
		c-0.3,0.5-0.6,0.9-1.1,1.2c-0.9,0.5-1.3,1.3-1.6,2.2c-1.3,3.9-1.7,8-1.9,12.1c-0.1,1.9,0,3.8-0.4,5.6c-1,4.3-1.4,8.6-1.3,13
		c0,0.9-0.3,1.9-0.4,2.8c-0.1,2.2-0.5,4.3-0.9,6.5c-0.4,0.1-0.4,0.5-0.5,0.9c-0.7,4-1,8.1-1.5,12.2c-0.5,4.8-0.9,9.6-1.1,14.4
		c-0.3,6.3-0.5,12.6-0.5,18.9c0,24-0.3,48.1,0.8,72.1c0.2,5.1,0.3,10.2,0.5,15.3c0.2,6.2,0.5,12.4,0.7,18.6
		c0.2,4.2,0.4,8.4,0.6,12.5c-7.6,2-15.4,2.9-23.2,3.4c-14.2,0.8-28.4,0.8-42.7,1c-14.7,0.1-29.5,0.4-44.2,0.1
		c-9.4-0.1-18.8-1-27.9-3.3c-0.2,0-0.3-0.1-0.4-0.2c0.2-1.6,0.2-3.3,0.3-4.9c0.4-5.6,0.6-11.2,0.8-16.8c0.1-4.1,0.3-8.1,0.5-12.2
		c0.2-6.1,0.4-12.2,0.6-18.3c0.1-2.4,0.1-4.8,0.2-7.2c0.2-6.6,0.4-13.2,0.4-19.8c0-17.7,0.2-35.4-0.3-53.1c-0.1-2.4-0.2-4.9-0.4-7.3
		c-0.2-4.2-0.6-8.3-0.9-12.5c-0.2-2.8-0.6-5.6-0.9-8.4c-0.2-2.4-0.6-4.8-1.3-7.1C47.1,117.8,47.6,116.9,46.6,116.5z"></path>
	<path d="M188.7,113.6c0.1-0.9,0.4-1.9,0.4-2.8c-0.2-4.4,0.3-8.7,1.3-13c0.4-1.8,0.3-3.7,0.4-5.6
		c0.2-4.1,0.7-8.2,1.9-12.1c0.3-0.9,0.7-1.7,1.6-2.2c0.5-0.3,0.8-0.7,1.1-1.2c1.6-2.6,3-5.3,3.8-8.2c1.4-4.7,3-9.3,3.9-14.2
		c1-5.2,1.2-10.5,0.8-15.8c-0.1-0.9-0.2-1.8,0-2.7c0.1-0.3,0-0.5-0.1-0.8c-0.4-0.8-0.3-1.6,0-2.4c0.2,0.1,0.5,0.2,0.7,0.4
		c3.7,3.5,7.8,6.8,10.8,11c3.9,5.4,6.5,11.4,8.3,17.8c1.9,6.4,2.6,13.1,3.6,19.7c1.6,9.7,2.6,19.5,4.6,29.1c0.1,0.5,0.1,1,0.1,1.4
		c-1.2,0.3-2.3,0.6-3.5,0.9c-5.3,1.1-10.6,1.6-16,2.3c-4.6,0.6-9.1,1-13.7,1c-3.3,0-5.9-1.1-8.4-3c-0.4-0.3-0.8-0.7-1.3-0.7
		C188.9,112.8,189.5,113.5,188.7,113.6z"></path>
	<path d="M31.4,32.6c0.4,0.9,0,1.8-0.1,2.7c0,1.2,0,2.3-0.1,3.4c-0.8,8.7,0.7,17.1,3.4,25.4c1,3,1.7,6,3,8.9
		c0.6,1.4,1.5,2.6,2.3,3.9c0.9,1.5,2.1,2.9,2.2,4.6c0.5,4,1.6,7.9,2,12c0.2,2.2,0.2,4.3,0.8,6.5c0.4,1.7,0.3,3.5,0.4,5.2
		c0,1.7,0.3,3.4,0.9,5.1c0.5,1.2,0.2,2.5,0.5,3.8c0.1,0.3-0.1,0.7-0.6,0.7c-0.2-0.8-0.3-1.7-0.5-2.8c-1.7,2.5-4.3,2.2-6.6,2.3
		c-4.3,0.4-8.6,0.2-12.9-0.2c-1.6-0.2-3.2-0.5-4.7-0.7c-3.4-0.5-6.9-1.1-10.2-1.8c-3.1-0.6-6.2-1.3-9.4-1.9c0.5-3.2,1-6.5,1.4-9.7
		c0.9-6.8,2.8-13.3,4.3-20c0.9-4.3,1.2-8.7,2.2-13c1.6-7.2,3.9-14.1,7.9-20.3c2.8-4.3,6.2-8.1,10.2-11.2
		C29,34.7,29.9,33.3,31.4,32.6z"></path>
</g>
<g onclick="select(this)" class="" id="c-estampa-secundaria" fill="#011023">
	<path d="M84.5,289.4c0-0.4-0.1-0.8-0.1-1.2c0-32,0-64.1,0-96.1c0-0.3,0-0.6,0-0.8c0-0.6,0.4-0.5,0.8-0.5c0.3,0,0.8-0.1,0.8,0.5
		c0,0.2,0,0.5,0,0.7c0,32.2,0,64.4,0,96.6c0,0.3,0,0.6,0,0.8C85.4,289.4,85,289.4,84.5,289.4z"></path>
	<path d="M95.5,289.4c0-0.4,0-0.8,0-1.2c0-32,0-64.1,0-96.1c0-0.3,0-0.6,0-1c0-0.5,0.4-0.4,0.7-0.4s0.7-0.1,0.7,0.4c0,0.3,0,0.6,0,1
		c0,32,0,64.1,0,96.1c0,0.4,0,0.8,0,1.2C96.5,289.4,96,289.4,95.5,289.4z"></path>
	<path d="M106.6,289.4c0-0.5-0.1-1-0.1-1.4c0-32,0-63.9,0-95.9c0-0.5-0.4-1.3,0.7-1.3c0.6,0,1,0.1,0.9,0.8c0,0.3,0,0.6,0,0.8
		c0,31.7,0,63.4,0,95.1c0,0.6-0.1,1.2-0.1,1.8C107.5,289.4,107.1,289.4,106.6,289.4z"></path>
	<path d="M73.4,289.2c0-21.8,0-43.7,0-65.5c0-10.6,0-21.2,0-31.8c0-0.5-0.3-1.1,0.7-1.2c0.9,0,0.8,0.5,0.8,1.1c0,32.1,0,64.2,0,96.3
		c0,0.4-0.1,0.8-0.1,1.2C74.4,289.4,73.9,289.4,73.4,289.2z"></path>
	<path d="M117.6,289.2c0-11.7,0-23.4,0-35.2c0-20.6,0-41.1,0-61.7c0-0.4,0-0.7,0-1.1c0-0.6,0.4-0.5,0.7-0.5c0.3,0,0.8-0.1,0.8,0.5
		c0,0.3,0,0.6,0,0.8c0,31.9,0,63.8,0,95.8c0,0.4,0,0.9,0,1.3C118.6,289.3,118.1,289.3,117.6,289.2z"></path>
	<path d="M128.7,289.2c0-0.4,0-0.9,0-1.3c0-31.9,0-63.8,0-95.7c0-0.3,0-0.6,0-0.8c0-0.6,0.4-0.5,0.8-0.5c0.4,0,0.8-0.1,0.8,0.5
		c0,0.4,0,0.7,0,1.1c0,31.8,0,63.5,0,95.3c0,0.5,0,1-0.1,1.6C129.6,289.2,129.1,289.2,128.7,289.2z"></path>
	<path d="M139.7,289.1c0-0.5-0.1-1-0.1-1.4c0-31.8,0-63.7,0-95.5c0-0.3,0-0.6,0-0.8c0-0.6,0.5-0.5,0.8-0.5c0.4,0,0.7,0,0.7,0.5
		c0,0.4,0,0.7,0,1.1c0,31.7,0,63.4,0,95c0,0.6-0.1,1.1-0.1,1.7C140.6,289.1,140.2,289.1,139.7,289.1z"></path>
	<path d="M150.8,288.9c0-0.4-0.1-0.9-0.1-1.3c0-31.8,0-63.6,0-95.5c0-0.4-0.2-0.9,0.2-1.2c0.5-0.4,1.3,0.1,1.3,0.7c0,0.3,0,0.6,0,1
		c0,31.9,0,63.9,0,95.8c0,0.1,0,0.2,0,0.4C151.7,289,151.3,288.8,150.8,288.9z"></path>
	<path d="M62.4,288.5c0-0.4,0-0.9,0-1.3c0-31.7,0-63.4,0-95c0-0.2,0-0.4,0-0.6c-0.1-0.6,0.3-0.7,0.8-0.7c0.5,0,0.8,0.1,0.7,0.7
		c0,0.3,0,0.6,0,0.8c0,31.6,0,63.3,0,94.9c0,0.5-0.1,1-0.1,1.4C63.3,288.6,62.9,288.5,62.4,288.5z"></path>
	<path d="M161.8,288.4c0-0.4-0.1-0.9-0.1-1.3c0-31.7,0-63.3,0-95c0-0.3,0-0.6,0-0.8c0-0.5,0.4-0.5,0.7-0.4c0.3,0,0.8-0.1,0.8,0.4
		c0,0.4,0,0.7,0,1.1c0,32,0,64,0,96C162.8,288.5,162.3,288.4,161.8,288.4z"></path>
	<path d="M172.8,287.5c0-0.4-0.1-0.9-0.1-1.3c0-31.4,0-62.7,0-94c0-0.3,0-0.6,0-1c0.1-0.6,0.5-0.4,0.8-0.4c0.4,0,0.6,0,0.6,0.5
		c0,0.2,0,0.5,0,0.7c0,31.5,0,63,0,94.5c0,0.2,0,0.5,0,0.7C173.8,287.3,173.3,287.4,172.8,287.5z"></path>
	<path d="M51.3,286.6c0-31.6,0-63.1,0-94.7c0-0.6-0.2-1.2,0.8-1.2c1,0,0.7,0.7,0.7,1.2c0,31.3,0,62.6,0,93.9c0,0.4,0,0.7-0.1,1.1
		C52.3,286.9,51.8,286.9,51.3,286.6z"></path>
	<path d="M184.1,190.8c0,0.4,0.1,0.9,0.1,1.3c0,5.6-0.1,11.1,0,16.7c0.1,8.9,0.3,17.8,0.6,26.7c0.2,5.4,0.4,10.7,0.5,16
		c0,0.4,0.1,0.9,0.2,1.3c-0.2,0.4-0.1,0.9-0.1,1.3c0,4.9,0,9.8,0,14.6c0,5.5,0,11,0,16.5c-0.5,0.1-0.9,0.2-1.4,0.3c0-0.5,0-1,0-1.4
		c0-30.7,0-61.3,0-92C183.8,191.8,183.5,191.2,184.1,190.8z"></path>
</g>
</svg>
