<!--?xml version="1.0" encoding="utf-8"?-->
<!-- Generator: Adobe Illustrator 24.2.3, SVG Export Plug-In . SVG Version: 6.00 Build 0)  -->
<svg version="1.1" id="Camada_1" xmlns="http://www.w3.org/2000/svg" xmlns:xlink="http://www.w3.org/1999/xlink" x="0px" y="0px" viewBox="0 0 229 418" style="enable-background:new 0 0 229 418;" xml:space="preserve">
<style type="text/css">
	.st0{fill:#FD0303;}
	.st1{fill:#E1FFC9;}
	.st2{fill:#AFDE76;}
</style>
<g onclick="select(this)" class="" id="gola-primaria" fill="#ffffff">
	<path d="M78.2,8c0.5-0.1,1-0.4,1.4-0.7c1-0.9,2-1.7,2.8-2.8c1.8-2.5,4.4-3.4,7.2-3.8c0.6-0.1,1.4,0.1,1.9-0.5
		c1.2,0,2.4,0,3.6,0c0.2,0.5,0.6,0.3,0.9,0.3c5.6,0,11.1,0,16.7,0c0.4,0,0.8-0.1,1.1-0.3c7.5,0,15,0,22.5,0c0.1,0.5,0.5,0.3,0.8,0.4
		c1,0.2,2,0.3,2.9,0.4c2,0.3,3.7,1.1,4.9,2.8c1.3,1.7,2.7,3.3,4.6,4.4c1.3,0.6,1.9,1.5,1.8,3c-0.2,3.6-1.9,6.5-4,9.3
		c-0.5,0.6-0.8,0.5-1.3,0.1c-1.7-1.3-3.3-2.6-5-3.9c-0.8-0.6-0.9-0.9-0.2-1.7c1.6-1.7,2.8-3.6,3.7-6c-3.8,0.3-7.5,0.6-11.1,0.8
		c-8.3,0.5-16.5,1.4-24.9,0.9c-8-0.4-15.9-1.1-23.9-1.9c-1.3-0.1-1.4,0-0.9,1.1c0.8,2,2.1,3.7,3.5,5.2c0.5,0.6,0.6,1-0.1,1.5
		c-1.7,1.3-3.4,2.7-5.1,4c-0.5,0.5-0.9,0.4-1.3-0.1c-1.9-2.4-3.4-5-4.1-8C76.1,10.4,76.5,9.2,78.2,8z"></path>
</g>
<g onclick="select(this)" class="" id="estampa-primaria" fill="#ffffff">
	<path d="M43.4,120.4c-0.1-2.3-0.2-4.6-0.6-6.9c-0.1-0.5-0.2-0.6-0.7-0.4c-2.5,1.1-5.2,1.1-7.8,1.5c-1.5,0.2-3-0.1-4.5-0.1
		c-4.2,0-8.5-0.1-12.7-0.5c-3.8-0.4-7.6-1.1-11.2-2.4c-1.4-0.5-3-0.9-4.2-1.9c1.8-9.4,2.7-19,4.2-28.4c0.8-5.2,1.2-10.4,2.3-15.5
		c1.7-8,4.4-15.7,9.4-22.4c2.1-2.9,4.6-5.6,7.4-7.8c1.4-1.1,2.4-2.6,3.9-3.4c3.6-1.9,7.2-3.7,11-5.3c10-4.1,20-8.2,29.4-13.4
		c2-1.1,4-2.1,5.5-3.9c0.8-1,2-1.6,3.4-1.6c-1.7,1.2-2.1,2.5-1.5,4.7c0.7,3,2.2,5.6,4.1,8c0.5,0.6,0.8,0.6,1.3,0.1
		c1.7-1.4,3.3-2.7,5.1-4c0.7-0.5,0.6-0.9,0.1-1.5c-1.5-1.6-2.7-3.2-3.5-5.2c-0.5-1.2-0.4-1.3,0.9-1.1c7.9,0.8,15.9,1.5,23.9,1.9
		c8.3,0.5,16.6-0.4,24.9-0.9c3.7-0.2,7.3-0.5,11.1-0.8c-0.9,2.3-2.1,4.2-3.7,6c-0.7,0.8-0.6,1.1,0.2,1.7c1.7,1.2,3.4,2.5,5,3.9
		c0.5,0.4,0.8,0.5,1.3-0.1c2.1-2.8,3.8-5.7,4-9.3c0.1-1.5-0.5-2.4-1.8-3c1.8-0.1,3,1,4,2.2c0.3,0.4,0.7,0.7,1.1,1
		c10,6.5,21.2,10.6,32.1,15.2c4,1.7,7.8,3.6,11.7,5.3c1.2,0.5,1.9,1.6,3,2.4c3.5,2.6,6.7,5.6,9.3,9.1c4.9,6.4,7.6,13.8,9.4,21.6
		c0.6,2.9,1.2,5.8,1.5,8.7c0.6,5.8,2.3,11.3,3.4,17c1.1,5.5,1.7,11,2.7,16.5c0.1,0.3,0,0.6,0.1,1c-3.3,1.3-6.6,2.4-10,3.2
		c-3.1,0.7-6.3,1.1-9.4,1.7c-3,0.5-6.1,0.7-9.2,0.7c-4.2,0-8.5,0.3-12.6-0.6c-1.2-0.3-1.4,0.1-1.6,1.1c-0.4,1.9-0.3,3.9-0.3,5.8
		c-0.4,0.8-0.3,1.7-0.4,2.6c-1,8.4-1.7,16.8-1.7,25.2c0,2.2,0.1,4.4,0.5,6.6c0.4,1.9,0,3.8-0.2,5.7c-0.2,2.1-0.3,4.2-0.1,6.3
		c0.2,2.5-0.2,5-0.2,7.5c0,2.6-0.1,5.2,0.2,7.8c0.2,2.4-0.2,4.8-0.2,7.2c0,2.3,0.5,4.4,1,6.6c1.6,7.3,1.4,14.5,0.3,21.8
		c-0.3,2.1-0.4,4.2,0.3,6.4c1.8,5.4,1.8,11,0.9,16.6c-0.2,1.5-0.2,2.9,0.1,4.4c0.9,3.8,0.4,7.7,0.6,11.6c0.3,5.9,0.7,11.8,1.4,17.7
		c0.3,2,0.2,4.1,0.3,6.2c0,1.7-0.4,2.2-2.1,2.7c-3,0.9-6.1,1.2-9.2,1.5c-8.3,0.9-16.7,0.9-25,1c-11.6,0.2-23.2,0.8-34.7,0.8
		c-11.5,0-23-0.8-34.5-0.9c-8.3,0-16.7-0.1-25-0.7c-4.2-0.3-8.4-0.8-12.6-1.7c-3.6-0.8-4-1.2-3.8-4.8c0.4-7.7,1-15.4,1.5-23.1
		c0.1-2,0.3-4,0.2-6c0-1.9,0-3.8,0.4-5.6c0.4-2.2,0.4-4.4,0.1-6.7c-0.4-2.5-0.1-5,0.4-7.5c0.2-1,0.2-2,0.1-3.1
		c-0.3-4.5-1-9.1-0.8-13.6c0.2-4.3,1.2-8.5,2.7-12.5c0.4-1,0.6-2,0.5-3.1c-0.2-1.2-0.2-2.5,0.1-3.7c0.3-1.7,0.2-3.3,0.1-5
		c-0.2-3.3-0.2-6.6-0.2-9.9c-0.1-12.9,0-25.8-0.1-38.7c0-5.2-1-10.3-1.6-15.5C43.9,122.9,44,121.6,43.4,120.4z"></path>
</g>
<g onclick="select(this)" class="" id="detalhe-punho" fill="#ffffff">
	<path d="M0.5,114.7c0.6-1.1,0.4-2.3,0.7-3.4c0.2-0.5,0.1-1.1,0.5-1.6c1.2,1,2.8,1.3,4.2,1.9c3.6,1.4,7.4,2,11.2,2.4
		c4.2,0.4,8.4,0.5,12.7,0.5c1.5,0,3.1,0.3,4.5,0.1c2.6-0.4,5.3-0.4,7.8-1.5c0.5-0.2,0.6-0.1,0.7,0.4c0.4,2.3,0.5,4.6,0.6,6.9
		c-0.6,0.6-1.3,0.7-2,0.9c-2.2,0.6-4.5,1-6.8,1c-7.6,0.2-15.2,0.2-22.7-1.2c-3-0.6-6-1.1-8.9-2.1c-0.8-0.3-1.6-0.6-2.4-1
		C0.5,116.9,0.5,115.8,0.5,114.7z"></path>
	<path d="M184.7,120.1c0-2-0.1-3.9,0.3-5.8c0.2-1,0.4-1.4,1.6-1.1c4.2,0.9,8.4,0.6,12.6,0.6c3.1,0,6.1-0.2,9.2-0.7
		c3.1-0.5,6.3-0.9,9.4-1.7c3.4-0.8,6.7-1.9,10-3.2c1,2.4,1.3,5,1.2,7.6c0,0.7-0.8,0.8-1.3,1.1c-2.5,1-5.1,1.6-7.7,2.3
		c-9.1,2.5-18.4,3.1-27.9,2.6c-2-0.1-4.1-0.3-6-0.9C185.6,120.7,185.1,120.6,184.7,120.1z"></path>
</g>
<g onclick="select(this)" class="" id="estampa-terciaria" fill="#000000">
	<path d="M185.4,113c-0.2-1.2,0.4-2.3,0.2-3.4c0.4-1,0.3-2,0.7-3.3c0.3,1.3,0.5,2.4,0.7,3.4c0,0.2,0,0.4,0.3,0.5
		c0.4,0.1,0.4-0.3,0.4-0.5c0.1-0.9,0.3-1.9,0.4-2.8c0.2-1.4,0.4-2.7,0.6-4.1c0.1,0,0.1,0,0.2,0c0.3,1.6,0.6,3.1,0.9,4.7
		c0.1,0,0.1,0,0.2,0c0.4-2.8,0.8-5.6,1.1-8.4c0.1,0,0.1,0,0.2,0c0.3,1.5,0.6,3.1,0.9,4.6c0.1,0,0.1,0,0.2,0c0.4-2.8,0.8-5.7,1.2-8.5
		c0.1,0,0.1,0,0.2,0c0.3,1.6,0.6,3.2,1,4.7c0.1,0,0.1,0,0.2-0.1c0.4-2.8,0.7-5.5,1.1-8.3c0.1,0,0.1,0,0.2,0c0.3,1.6,0.6,3.2,1,4.7
		c0.1,0,0.1,0,0.2,0c0.4-2.9,0.8-5.7,1.1-8.6c0.1,0,0.1,0,0.2,0c0.3,1.6,0.6,3.2,1,5.1c1.9-5.6,2.6-17.3,1.3-19.2
		c-0.1,1.5-0.3,2.9-0.4,4.3c-0.1,0-0.1,0-0.2,0c-0.3-1.3-0.6-2.7-0.9-4.1c-0.1,0-0.1,0-0.2,0c-0.4,2.6-0.8,5.2-1.2,7.8
		c-0.1,0-0.1,0-0.2,0c-0.3-1.4-0.6-2.8-0.9-4.2c-0.1,0-0.1,0-0.2,0.1c-0.4,2.4-0.7,4.9-1.1,7.3c-0.1,0-0.2,0-0.3,0
		c-0.3-1.2-0.6-2.3-0.9-3.5c-0.1,0-0.1,0-0.2,0c-0.4,2.6-0.8,5.2-1.1,7.8c-0.1,0-0.1,0-0.2,0c-0.3-1.1-0.6-2.2-0.8-3.3
		c0.1-0.6,0.1-1.1,0.4-1.6c2.3-5.6,2.5-11.5,2.5-17.4c0-2,0-4,0.3-6c0.1-0.4,0.1-0.8-0.1-1.2c0-0.6,0-1.2,0-1.8
		c0.3-0.6,0.2-1.2,0.1-1.8c0.1-0.7,0.1-1.5,0.5-2.3c0.3,1.4,0.6,2.7,0.9,4c0.1,0,0.1,0,0.2,0c0.4-2.8,0.8-5.5,1.1-8.3
		c0.1,0,0.1,0,0.2,0c0.3,1.6,0.7,3.2,1,4.8c0.8-3.2,1.7-6.3,1.9-9.4c0.2-3.2,0.3-6.4-0.3-9.5c-0.1,0-0.2,0-0.3,0
		c-0.1,1.4-0.3,2.9-0.4,4.3c-0.4-0.8-0.6-1.6-0.8-2.4c-0.4-1.6-0.4-3.3-0.1-4.9c0.7,0.5,1.4,1.1,2,1.8c0.7,3.1,1.4,6.2,2.1,9.3
		c0.1,0,0.1,0,0.2,0c0.3-1.6,0.5-3.2,0.8-4.8c0.1,0,0.1,0,0.2,0c0.5,2.8,0.9,5.6,1.4,8.4c0.1,0,0.1,0,0.2,0c0.3-1.6,0.5-3.2,0.8-4.8
		c0.1,0,0.1,0,0.2,0c0.5,2.8,0.9,5.7,1.4,8.5c0.1,0,0.1,0,0.2,0c0.3-1.6,0.5-3.2,0.8-4.8c0.1,0,0.1,0,0.2,0c0.5,2.8,0.9,5.5,1.4,8.3
		c0.4-1,0.6-2.1,0.8-3.1c0-0.2,0-0.5,0.3-0.5c0.3,0,0.3,0.3,0.4,0.5c0.3,1.5,0.5,3.1,0.8,4.6c0.1,0.7,0.3,1.5,0.4,2.2
		c0.1,0,0.1,0,0.2,0c0.3-1.5,0.5-3,0.7-4.4c0.1,0,0.2,0,0.3,0c0.5,2.7,0.9,5.5,1.4,8.2c0.1,0,0.1,0,0.2,0c0.3-1.5,0.5-3,0.8-4.6
		c0.3,0.2,0.3,0.4,0.4,0.6c0.4,2.3,0.7,4.5,1.1,6.7c0.1,0.4-0.1,1,0.4,1c0.6,0,0.3-0.7,0.5-1.1c0.1-0.3-0.2-0.8,0.4-1
		c1.4,5.3,1.8,10.7,2.7,16c0.2,1.3,0.6,2.6,0.8,3.9c-0.2,0.7,0,1.4-0.4,2.2c-0.3-1.5-0.6-2.9-0.9-4.3c-0.1,0-0.1,0-0.2,0
		c-0.4,2.6-0.8,5.1-1.1,7.7c-0.1,0-0.1,0-0.2,0c-0.4-3.1-0.7-6.1-1.1-9.2c-0.1,0-0.2,0-0.3,0c-0.3,3-0.5,6-0.7,9c-0.1,0-0.2,0-0.3,0
		c-0.4-2.5-0.9-5-1.4-7.5c-0.1,0-0.1,0-0.2,0c-0.3,1.4-0.5,2.8-0.8,4.2c-0.1,0-0.1,0-0.2,0c-0.5-2.6-0.9-5.2-1.4-7.8
		c-0.1,0-0.1,0-0.2,0c-0.3,1.4-0.5,2.8-0.8,4.2c-0.1,0-0.1,0-0.2,0c-0.5-2.6-1-5.3-1.4-7.9c-0.1,0-0.1,0-0.2,0
		c-0.3,1.4-0.5,2.8-0.8,4.2c-0.1,0-0.1,0-0.2,0c-0.5-2.7-0.9-5.3-1.4-7.9c-0.5,1.2-0.4,2.5-1.3,3.7c-0.5-2.6-0.9-5-1.3-7.3
		c-0.4,0.8-0.5,1.6-0.7,2.4c-0.1,0.3,0.1,0.9-0.4,0.8c-0.4,0-0.4-0.6-0.4-0.9c-0.4-2-0.7-3.9-1.1-5.9c-0.1,0-0.1,0-0.2,0
		c-0.3,1.2-0.5,2.5-0.8,3.8c-0.1,0-0.2,0-0.3-0.1c-0.1-1.3-0.3-2.6-0.4-3.9c-0.1,0-0.2,0-0.3,0c-1,6.4,0.3,12.6,2.3,18.8
		c0.3-1.6,0.5-3.1,0.8-4.7c0.1,0,0.1,0,0.2,0c0.5,2.8,0.9,5.6,1.4,8.4c0.1,0,0.1,0,0.2,0c0.3-1.5,0.5-3.1,0.7-4.6c0.1,0,0.2,0,0.2,0
		c0.5,2.8,0.9,5.5,1.4,8.2c0.1,0,0.1,0,0.2,0c0.2-1.4,0.5-2.8,0.7-4.1c1,2.5,1.1,5.2,1.9,7.8c0.3-1.6,0.5-3.2,0.8-4.7
		c0.1,0,0.1,0,0.2,0c0.5,2.8,0.9,5.6,1.4,8.4c0.1,0,0.1,0,0.2,0c0.3-1.6,0.5-3.1,0.8-4.7c0.1,0,0.1,0,0.2,0c0.5,2.8,0.9,5.6,1.4,8.4
		c0.5-1.6,0.6-3.2,1.1-5c0.6,3.5,1.1,6.6,1.6,9.8c0.3-0.2,0.3-0.4,0.4-0.7c0.3-2.5,0.6-5,1-7.5c0-0.2-0.1-0.7,0.3-0.7
		c0.4,0,0.3,0.4,0.4,0.7c0.2,1.1,0.4,2.1,0.6,3.2c0.1,0,0.1,0,0.2,0c0.4-2.8,0.7-5.6,1.1-8.4c0.1,0,0.1,0,0.2,0
		c0.3,1.6,0.6,3.1,0.9,4.6c0.5-1.1,0.2-2.2,0.8-3.1c0.8,4.6,1.5,9.2,2.3,13.8c0.1,0.6,0.1,1.1,0.1,1.7c-5.5,2.3-11.3,3.7-17.2,4.5
		c-0.6-0.3-0.4-0.9-0.5-1.3c-0.3-1-0.4-2.1-0.6-3.1c-0.1,0-0.1,0-0.2,0c-0.3,1.4-0.5,2.8-0.8,4.2c-0.1,0-0.1,0-0.2,0
		c-0.5-2.6-0.9-5.3-1.4-7.9c-0.1,0-0.1,0-0.2,0c-0.3,1.4-0.5,2.9-0.8,4.3c-0.1,0-0.1,0-0.2,0c-0.5-2.6-0.9-5.2-1.4-7.9
		c-0.1,0-0.1,0-0.2,0c-0.3,1.4-0.5,2.7-0.8,4.1c-0.1,0-0.1,0-0.2,0c-0.2-1.4-0.4-2.8-0.6-4.5c-0.5,0.9-0.6,1.6-0.6,2.3
		c0.2,3.7-0.2,7.3,0.9,10.9c-0.5,0.2-0.9-0.5-1.2-0.3c-1,0.7-2.3,0.4-3.3,0.4C194.1,113.9,189.7,114.1,185.4,113z"></path>
	<path d="M33.1,63.8c-0.1,3.3-0.4,6.7-0.1,10c0.2,2,0.5,3.9,1.4,5.7c1.7,3.3,2.7,6.9,4,10.3c0.2,0.5,0.3,1.1,0.4,1.6
		c-0.3,1.3-0.5,2.6-0.8,3.9c-0.1,0-0.1,0-0.2,0c-0.5-2.6-0.9-5.3-1.4-7.9c-0.1,0-0.1,0-0.2,0c-0.3,1.4-0.5,2.8-0.8,4.1
		c-0.6-2.1-0.9-4.1-1.3-6.1c-0.1-0.3,0-0.9-0.4-0.9c-0.5,0-0.3,0.5-0.4,0.8c-0.2,0.8-0.3,1.7-0.5,2.6c-0.1,0-0.1,0-0.2,0
		c-0.5-2.6-0.9-5.2-1.4-7.8c-0.1,0-0.1,0-0.2,0c-0.3,1.4-0.6,2.8-0.8,4.2c-0.1,0-0.1,0-0.2,0c-0.5-2.6-0.9-5.2-1.4-7.8
		c-0.1,0-0.1,0-0.2,0c-0.3,1.4-0.5,2.8-0.8,4.2c-0.1,0-0.1,0-0.2,0c-0.2-1.4-0.4-2.8-0.6-4.3c-0.1,0-0.2,0-0.3,0
		c-1,6.4,0.5,12.7,2.3,18.8c0.3-1.7,0.5-3.3,0.8-5c0,0,0.1,0,0.1,0c0.5,2.8,1,5.7,1.5,8.5c0.1,0,0.1,0,0.2,0
		c0.3-1.6,0.5-3.2,0.8-4.7c0.1,0,0.1,0,0.2,0c0.5,2.8,0.9,5.6,1.4,8.4c0.1,0,0.1,0,0.2,0c0.2-1.5,0.5-3.1,0.7-4.6c0.1,0,0.2,0,0.3,0
		c0.5,2.8,0.9,5.5,1.4,8.3c0.1,0,0.1,0,0.2,0c0.3-1.6,0.5-3.1,0.8-4.7c0.1,0,0.2,0,0.2,0c0.5,2.8,0.9,5.6,1.4,8.4c0.1,0,0.1,0,0.2,0
		c0.3-1.6,0.5-3.2,0.8-4.7c0.1,0,0.2,0,0.2,0c0.4,2.7,0.8,5.3,1.2,8c-0.2,0.5-0.6,0.5-1,0.6c-3.3,0.8-6.7,1.2-10.1,1
		c-1.3-0.1-2.5-0.2-3.8-0.1c0.3-3.7,0.3-7.3-0.2-10.9c-0.1,0-0.2,0-0.3,0c-0.1,1.4-0.3,2.9-0.5,4.3c-0.1,0-0.1,0-0.2,0
		c-0.3-1.4-0.6-2.8-0.9-4.2c-0.1,0-0.1,0-0.2,0c-0.4,2.7-0.8,5.3-1.2,7.9c-0.1,0-0.1,0-0.2,0c-0.3-1.4-0.6-2.8-1-4.2
		c-0.1,0-0.1,0-0.2,0.1c-0.3,2.2-0.6,4.4-1,6.6c-0.8-0.2-1.6-0.6-2.5-0.1c-0.1,0.1-0.4,0-0.6,0c-1-0.1-2-0.2-2.9-0.4
		c-4.6-0.7-9.1-1.7-13.3-3.9c0.5-3.4,1.1-6.7,1.6-10.1c0.1-0.5,0.1-0.9,0.2-1.4c0.4,0.3,0.3,0.8,0.6,1.6c0.3-1.9,0.6-3.4,0.8-5
		c0.1,0,0.1,0,0.2,0c0.5,2.8,0.9,5.6,1.4,8.4c0.1,0,0.1,0,0.2,0c0.3-1.6,0.5-3.1,0.8-4.7c0.1,0,0.1,0,0.2,0c0.5,2.8,1,5.7,1.4,8.5
		c0.2,0,0.3,0,0.5,0c0.4-2.8,0.8-5.7,1.2-8.6c0.1,0,0.1,0,0.2,0c0.3,1.5,0.6,3.1,0.9,4.6c0.1,0,0.1,0,0.2,0c0.4-2.8,0.8-5.6,1.1-8.3
		c0.1,0,0.1,0,0.2,0c0.3,1.2,0.5,2.4,0.8,3.6c0.2,0,0.3,0,0.5,0c0.3-2.5,0.7-5,1-7.5c0.1,0,0.1,0,0.2,0c0.3,1.6,0.6,3.1,0.9,4.7
		c0.1,0,0.1,0,0.2,0c0.4-2.8,0.8-5.6,1.1-8.4c0.1,0,0.1,0,0.2,0c0.3,1.6,0.6,3.1,0.9,4.7c0.1,0,0.1,0,0.2,0c0.4-2.8,0.8-5.6,1.2-8.4
		c0.1,0,0.1,0,0.2,0c0.3,1.6,0.6,3.1,0.9,4.7c0.1,0,0.1,0,0.2,0c0.4-2.8,0.7-5.6,1.1-8.3c0.1,0,0.1,0,0.2,0c0.3,1.6,0.7,3.2,1,4.8
		c0.6-2.2,1-4.4,1.5-6.6c0.2-1,0.6-2,0.6-3c0-2.5-0.1-5-0.1-7.5c0-0.7-0.1-1.3-0.6-1.9c-0.1,1.5-0.3,2.9-0.4,4.3c-0.1,0-0.1,0-0.2,0
		c-0.3-1.4-0.6-2.7-0.9-4.1c-0.1,0-0.1,0-0.2,0.1c-0.4,2.4-0.7,4.7-1.1,7.1c-0.1,0-0.3,0-0.4,0c-0.3-1.1-0.5-2.3-0.8-3.4
		c-0.1,0-0.1,0-0.2,0c-0.4,2.7-0.8,5.3-1.2,8c-0.1,0-0.1,0-0.2,0c-0.3-1.3-0.6-2.7-0.9-4c-0.1,0-0.2,0-0.2,0
		c-0.4,2.6-0.7,5.2-1.1,7.7c-0.1,0-0.1,0-0.2,0c-0.3-1.4-0.6-2.8-0.9-4.2c-0.1,0-0.1,0-0.2,0.1c-0.4,2.6-0.8,5.2-1.1,7.8
		c-0.1,0-0.2,0-0.2,0c-0.3-1.3-0.6-2.7-0.9-4c-0.1,0-0.1,0-0.2,0c-0.4,2.6-0.8,5.3-1.2,7.9c-0.1,0-0.1,0-0.2,0
		c-0.3-1.3-0.6-2.7-0.9-4c-0.1,0-0.2,0-0.3,0c-0.4,2.6-0.7,5.1-1.1,7.7c-0.1,0-0.1,0-0.2,0c-0.4-3.1-0.7-6.2-1.1-9.3
		c-0.6,2.8-0.4,5.6-1.4,8.3c-0.4-2.2-0.8-4.5-1.2-6.7c-0.1,0-0.1,0-0.2,0c-0.3,1.4-0.5,2.8-0.8,4.2c-0.1,0-0.1,0-0.2,0
		c-0.1-0.6-0.2-1.2-0.3-1.8c1.2-6.7,1.6-13.5,2.9-20.2c0.6,1,0.3,2.2,0.9,3.4c0.4-3.4,0.9-6.7,1.3-9.9c0.1,0,0.1,0,0.2,0
		c0.3,1.6,0.6,3.1,0.9,4.7c0.1,0,0.1,0,0.2,0c0.4-2.8,0.7-5.5,1.1-8.3c0.1,0,0.1,0,0.2,0c0.3,1.5,0.6,3,0.9,4.5c0.1,0,0.1,0,0.2,0
		c0.4-2.8,0.7-5.6,1.1-8.4c0.1,0,0.1,0,0.2,0c0.3,1.5,0.6,3,0.9,4.5c0.1,0,0.2,0,0.2,0c0.4-2.8,0.7-5.6,1.1-8.4c0.1,0,0.1,0,0.2,0
		c0.3,1.6,0.6,3.1,0.9,4.7c0.1,0,0.1,0,0.2,0c0.4-2.8,0.8-5.6,1.1-8.4c0.1,0,0.1,0,0.2,0c0.3,1.5,0.6,3.1,0.9,4.7c0.1,0,0.1,0,0.2,0
		c0.4-2.8,0.8-5.6,1.1-8.4c0.1,0,0.1,0,0.2,0c0.3,1.6,0.6,3.2,0.9,4.8c0.5-1.4,0.8-2.8,1-4.2c0.4-2.4,1.3-4.6,1-7.1
		c0.9-0.8,1.8-1.7,2.6-2.6c0.3-0.4,0.5-0.2,0.8,0c-0.5,1.1,0.2,2.1,0.4,3.2c0.3,1.7,0.9,3.4,1.3,5.1c0.1,0.3,0,0.6,0,1
		c-0.5,1.5-0.5,3-1,4.7c-0.5-2.9-1-5.5-1.5-8.2c-0.1,0-0.1,0-0.2,0c-0.3,1.2-0.6,2.5-0.9,3.7c0,0-0.1,0-0.1,0
		c-0.2-1.3-0.4-2.6-0.6-3.9c-1.3,6.5,0.1,12.8,1.9,19.2c0.3-1.8,0.6-3.4,0.9-5.1c0.1,0,0.1,0,0.2,0c0.5,2.8,0.9,5.5,1.4,8.3
		c0.1,0,0.1,0,0.2,0c0.3-1.5,0.5-3,0.8-4.6c0.1,0,0.1,0,0.2,0C32.3,58.5,32.7,61.2,33.1,63.8z"></path>
</g>
<g onclick="select(this)" class="" id="estampa-secundaria" fill="#70a83b">
	<path d="M140.2,16c0.4,0.6,0.9,0.9,1.5,1.2c1.2,0.8,2.1,2,3.4,2.7c0.1,2,0.6,3.9,0.8,6.1c0.7-1.4,0.4-2.8,1-3.9
		c0.1,0,0.2,0,0.4,0c0.4,2.9,0.9,5.8,1.3,8.6c0.5-1.8,0.8-3.6,1-5.4c0.1-0.5-0.1-1.2,0.5-1.3c0.6-0.1,0.9,0.5,1,1.1
		c0,0.2,0.2,0.3,0.3,0.6c0.2-0.9,0.6-0.7,1.1-0.4c0.9,0.5,1.9,1,2.8,1.6c0.9,0.6,1.1,0.2,1.2-0.6c0.1-0.5-0.1-1,0.4-1.5
		c0.2,1.1,0.4,2,0.6,2.9c0.1,0.3,0.1,0.6,0.5,0.6c0.3,0,0.2-0.4,0.3-0.6c0.1-0.8,0.1-1.5,0.3-2.3c0.2-1.4,0.5-2.9,0.7-4.3
		c0.1,0,0.1,0,0.2,0c0.3,1.5,0.6,3,0.9,4.4c0.1,0,0.1,0,0.2,0c0.4-2.8,0.8-5.5,1.3-8.3c0.1,0,0.1,0,0.2,0c0.3,1.5,0.6,3.1,0.9,4.6
		c0.1,0,0.1,0,0.1,0c0.3-1.8,0.6-3.5,0.8-5.3c0.6,0,0.9,0.6,1.4,0.7c0.2,0.2-0.3,1.2,0.7,0.7c0.1-0.1,0.4,0.1,0.6,0.3
		c2.7,1.7,5.6,3,8.5,4.2c1.4,0.6,2.5,1.1,2.2,3.2c0.3-0.3,0.4-0.4,0.4-0.5c0.2-0.4-0.2-1.2,0.7-1.1c0.6,0,0.8,0.6,0.9,1.2
		c0.3,1.3,0.3,2.7,0.8,4.1c0.5-1.4,0.4-2.8,1.2-4c0.4,2.5,0.8,5.1,1.2,7.7c0.1,0,0.1,0,0.2,0c0.3-1.5,0.6-3,0.8-4.5
		c0.1,0,0.1,0,0.2,0c0.4,2.7,0.8,5.3,1.2,8c0.1,0,0.2,0,0.2,0c0.3-1.5,0.6-3,0.9-4.4c0.1,0,0.1,0,0.2,0c0.4,2.8,0.8,5.6,1.2,8.4
		c0.1,0,0.1,0,0.2,0c0.3-1.6,0.6-3.1,1-5c0.3,1.9,0.6,3.5,0.8,5.1c0.1,0.7,0.6,0.7,1,0.8c0.7,0.1,0.5-0.5,0.6-0.8
		c0.2-0.7,0.2-1.4,0.3-2.1c0.1-0.8,0.3-1.7,0.4-2.5c0.1,0,0.1,0,0.2,0c0.3,1.5,0.6,2.9,0.8,4.4c0.1,0,0.1,0,0.2,0
		c0.4-2.7,0.9-5.5,1.3-8.2c0.1,0,0.1,0,0.2,0c0.3,1.5,0.6,3,0.9,4.5c0.4-1.2,0.6-2.3,0.8-3.5c0.1-0.5-0.1-1.3,0.8-1.1
		c0.7,0.2,1.5,0.8,1.3,1.5c-0.5,2.2-0.1,4.5-1,6.5c-0.1,0.3,0,0.9,0.2,1.1c0.6,0.7,0,1.1-0.2,1.6c-0.2,0.4-0.8,0.2-1.2,0.1
		c-0.6-0.1-1.1-0.3-1.7-0.5c-0.2-0.1-0.5-0.2-0.6,0c-0.1,0.1,0,0.4,0.1,0.5c0.5,0.9,1,1.7,1.5,2.6c0.2,0.3,0.4,0.5,0.3,0.8
		c-0.2,1-0.4,2.1-0.5,3.1c-0.1,0-0.1,0-0.2,0c-0.3-1.4-0.5-2.8-0.8-4.3c-0.1,0-0.1,0-0.2,0c-0.4,2.6-0.9,5.2-1.3,7.8
		c-0.1,0-0.1,0-0.2,0c-0.3-1.3-0.6-2.6-0.8-3.8c-0.1,0-0.1,0-0.2,0c-0.4,2.5-0.8,5.1-1.2,7.6c-0.7-1.3-0.6-2.6-1.2-4.2
		c-0.5,2.9-0.9,5.4-1.3,7.9c-0.1,0-0.1,0-0.2,0c-0.3-1.3-0.6-2.6-0.9-3.9c-0.1,0-0.1,0-0.2,0c-0.4,2.5-0.8,5.1-1.2,7.6
		c-0.1,0-0.2,0-0.2,0c-0.3-3-0.6-6-0.9-9c-0.1,0-0.2,0-0.2,0c-0.3,3-0.6,6.1-1,9.1c0,0-0.1,0-0.1,0c-0.4-2.6-0.9-5.1-1.4-8
		c-0.6,1.6-0.5,3-1.2,4.5c-0.4-2.8-0.8-5.3-1.3-7.9c-0.1,0-0.2,0-0.3,0c-0.3,1.3-0.6,2.7-0.9,4c-0.1,0-0.1,0-0.2,0
		c-0.4-2.6-0.9-5.2-1.3-7.7c-0.1,0-0.1,0-0.2,0c-0.3,1.3-0.6,2.7-0.8,4c-0.1,0-0.1,0-0.2,0c-0.4-2.6-0.8-5.2-1.3-7.8
		c-0.1,0-0.1,0-0.2,0c-0.3,1.4-0.6,2.8-0.9,4.2c-0.1,0-0.1,0-0.2,0c-0.4-2.6-0.9-5.3-1.4-8.2c-0.6,1.6-0.5,3.1-1.1,4.7
		c-0.5-2.9-0.9-5.5-1.3-8c-0.1,0-0.1,0-0.2,0c-0.3,1.4-0.6,2.8-0.9,4.2c0,0-0.1,0-0.1,0c-0.2-1.5-0.4-2.9-0.6-4.3
		c-1.5,6.5,0,12.7,1.6,19.3c0.4-2,0.6-3.7,0.9-5.3c0.1,0,0.1,0,0.2,0c0.4,2.9,0.9,5.7,1.3,8.6c0.1,0,0.1,0,0.2,0
		c0.3-1.6,0.6-3.2,0.9-4.8c0.1,0,0.1,0,0.2,0c0.4,2.7,0.8,5.5,1.3,8.2c0.1,0,0.2,0,0.3,0c0.3-1.5,0.6-3,0.9-4.5c0.1,0,0.1,0,0.2,0
		c0.4,2.8,0.8,5.5,1.3,8.3c0.1,0,0.1,0,0.2,0c0.3-1.5,0.6-3,0.8-4.5c0.1,0,0.1,0,0.2,0c0.4,2.7,0.8,5.3,1.3,8c0.1,0,0.2,0,0.3,0
		c0.3-1.5,0.6-3,0.8-4.4c0.1,0,0.1,0,0.2,0c0.4,2.8,0.8,5.5,1.2,8.3c0.1,0,0.1,0,0.2,0c0.3-1.5,0.6-3,0.9-4.4c0.1,0,0.1,0,0.2,0
		c0.5,3,0.9,6.1,1.4,9.1c0.1,0,0.2,0,0.3,0c0.4-3.1,0.9-6.1,1.4-9.2c0.1,0,0.1,0,0.2,0c0.3,1.5,0.6,3,0.9,4.5c0.1,0,0.1,0,0.2,0
		c0.4-2.7,0.8-5.5,1.3-8.2c0.1,0,0.1,0,0.2,0c0.3,1.5,0.6,3,0.9,4.4c0.1,0,0.2,0,0.3,0c0.4-2.7,0.8-5.4,1.2-8.1c0.1,0,0.2,0,0.2,0
		c0.3,1.5,0.6,2.9,0.8,4.4c0.1,0,0.1,0,0.2,0c0.4-2.7,0.9-5.5,1.3-8.2c0.1,0,0.1,0,0.2,0c0.3,1.6,0.6,3.1,0.9,4.9
		c0.6-1.7,0.3-3.3,1-4.7c0.2,0.4,0.2,0.8,0.1,1.2c-0.3,2-0.3,4-0.3,6c0,5.9-0.2,11.8-2.5,17.4c-0.2,0.5-0.2,1.1-0.4,1.6
		c-0.5,0.7-0.9,1.5-1.2,2.3c-0.4,1.4-0.5,2.9-1.6,4c-0.2-0.2-0.1-0.6-0.5-0.8c-0.4,2.6-0.9,5.2-1.3,7.7c-0.1,0-0.1,0-0.2,0
		c-0.3-1.3-0.6-2.6-0.9-4c-0.1,0-0.2,0-0.2,0c-0.4,2.6-0.8,5.1-1.3,7.7c-0.4-3.1-0.8-6.2-1.3-9.2c-0.3,3.1-0.7,6.1-1,9.1
		c-0.6-2.6-0.9-5.2-1.6-8c-0.4,1.7-0.6,3.1-0.9,4.4c-0.1,0-0.1,0-0.2,0c-0.4-2.6-0.9-5.2-1.3-7.8c-0.7,1.3-0.6,2.7-1.2,4.1
		c-0.5-2.6-0.9-5.1-1.3-7.7c-0.1,0-0.2,0-0.3,0c-0.3,1.3-0.5,2.5-0.8,3.8c-0.1,0-0.1,0-0.2,0c-0.4-2.6-0.9-5.2-1.3-7.8
		c-0.1,0-0.1,0-0.2,0c-0.3,1.4-0.6,2.7-0.9,4.1c-0.1,0-0.1,0-0.2,0c-0.4-2.6-0.9-5.2-1.3-7.9c-0.7,1.5-0.6,3-1.2,4.6
		c-0.5-3-0.9-5.6-1.3-8.2c-0.1,0-0.1,0-0.2,0c-0.3,1.3-0.6,2.7-0.9,4.3c-0.3-1.7-0.5-3.1-0.7-4.4c-1.5,6.5,0,12.7,1.7,18.8
		c0.3-1.6,0.6-3.2,0.9-4.9c0.1,0,0.1,0,0.2,0c0.4,2.8,0.9,5.7,1.3,8.5c0.1,0,0.1,0,0.2,0c0.3-1.6,0.6-3.1,0.9-4.7c0.1,0,0.1,0,0.2,0
		c0.4,2.7,0.8,5.5,1.3,8.2c0.1,0,0.2,0,0.3,0c0.3-1.5,0.6-2.9,0.8-4.4c0.1,0,0.1,0,0.2,0c0.4,2.7,0.8,5.4,1.3,8.1c0.1,0,0.2,0,0.3,0
		c0.3-1.5,0.5-3,0.8-4.5c0.1,0,0.1,0,0.2,0c0.4,2.7,0.9,5.5,1.3,8.2c0.1,0,0.1,0,0.2,0c0.3-1.5,0.6-3,0.9-4.4
		c0.5,2.8,1.1,5.4,1.7,8.1c0.3-1.5,0.6-2.9,0.9-4.4c0.1,0,0.1,0,0.1,0c0.5,3.1,1,6.3,1.4,9.4c0.1,0,0.1,0,0.2,0
		c0.5-3.1,0.9-6.2,1.4-9.4c0.4,0.4,0.4,0.6,0.3,0.8c0.2,1.2-0.4,2.3-0.2,3.4c-0.6,2.4-0.7,4.8-0.7,7.2c-0.6,2.8-0.7,5.7-1,8.5
		c-0.4,4-0.7,8.1-1,12.1c-0.8-2.6-0.9-5.3-1.6-8.2c-0.4,1.6-0.6,3-0.9,4.4c-0.1,0-0.1,0-0.2,0c-0.4-2.6-0.8-5.1-1.3-8
		c-0.7,1.5-0.6,2.9-1.2,4.3c-0.5-2.7-0.9-5.2-1.3-7.7c-0.1,0-0.1,0-0.2,0c-0.3,1.3-0.5,2.5-0.8,3.7c-0.1,0-0.2,0-0.2,0
		c-0.4-2.5-0.8-5.1-1.3-7.6c-0.1,0-0.1,0-0.2,0c-0.3,1.4-0.6,2.7-0.8,4.1c-0.1,0-0.1,0-0.2,0c-0.4-2.6-0.9-5.3-1.3-7.9
		c-0.1,0-0.1,0-0.2,0c-0.3,1.4-0.6,2.8-0.9,4.2c-0.1,0-0.1,0-0.2,0c-0.4-2.6-0.9-5.2-1.3-7.8c-0.1,0-0.1,0-0.2,0
		c-0.3,1.4-0.6,2.8-0.9,4.5c-0.2-1.8-0.4-3.2-0.6-4.8c-1.4,2.7-0.2,15.7,1.7,18.9c0.3-1.7,0.6-3.3,0.9-4.9c0.1,0,0.1,0,0.1,0
		c0.4,2.8,0.9,5.6,1.3,8.5c0.1,0,0.1,0,0.2,0c0.3-1.6,0.6-3.1,0.9-4.7c0.1,0,0.1,0,0.2,0c0.4,2.7,0.8,5.5,1.3,8.2c0.1,0,0.2,0,0.3,0
		c0.3-1.5,0.6-2.9,0.8-4.4c0.1,0,0.1,0,0.2,0c0.4,2.7,0.8,5.4,1.3,8.1c0.1,0,0.2,0,0.2,0c0.3-1.5,0.6-3,0.9-4.5c0.1,0,0.1,0,0.2,0
		c0.4,2.7,0.9,5.5,1.3,8.2c0.1,0,0.2,0,0.3,0c0.3-1.5,0.5-2.9,0.8-4.4c0.1,0,0.1,0,0.2,0c0.4,2.7,0.8,5.4,1.2,8.1c0.1,0,0.2,0,0.2,0
		c0.3-1.5,0.6-3,0.9-4.6c0.3,0.5,0,1,0.4,1.4c0,3.2,0.9,6.3,0.7,9.5c-0.2,2.5-0.6,5-0.4,7.5c0.3,4.4-0.4,8.8-0.3,13.2
		c-0.1-0.1-0.2-0.3-0.2-0.4c-0.3-2.2-0.7-4.4-1-6.6c-0.1,0-0.1,0-0.2,0c-0.3,1.3-0.6,2.7-0.9,4c-0.1,0-0.1,0-0.2,0
		c-0.4-2.6-0.8-5.1-1.3-8c-0.6,1.6-0.5,3-1.2,4.4c-0.4-2.7-0.9-5.2-1.3-7.8c-0.1,0-0.1,0-0.2,0c-0.3,1.3-0.6,2.7-0.9,4
		c-0.1,0-0.1,0-0.2,0c-0.4-2.6-0.9-5.2-1.3-7.8c-0.1,0-0.1,0-0.2,0c-0.3,1.4-0.6,2.8-0.9,4.1c-0.1,0-0.1,0-0.2,0
		c-0.4-2.6-0.9-5.1-1.3-7.7c-0.1,0-0.1,0-0.2,0c-0.3,1.4-0.6,2.8-0.9,4.2c-0.1,0-0.1,0-0.2-0.1c-0.4-2.7-0.9-5.3-1.3-8
		c-0.1,0-0.1,0-0.2,0c-0.3,1.4-0.6,2.7-0.9,4.1c-0.1,0-0.1,0-0.1,0c-0.2-1.4-0.4-2.9-0.6-4.3c-1.5,6.4,0,12.6,1.7,18.8
		c0.3-1.6,0.6-3.1,0.9-4.7c0.1,0,0.1,0,0.2,0c0.4,2.8,0.9,5.6,1.3,8.4c0.1,0,0.1,0,0.2,0c0.3-1.6,0.6-3.2,0.9-4.8
		c0.1,0,0.1,0,0.2,0.1c0.4,2.8,0.9,5.5,1.3,8.3c0.1,0,0.1,0,0.2,0c0.3-1.5,0.6-3.1,0.9-4.6c0.1,0,0.1,0,0.2,0
		c0.4,2.8,0.8,5.5,1.2,8.3c0.5-1.5,0.7-3,1.3-4.4c0.4,2.7,0.9,5.4,1.3,8.1c0.1,0,0.1,0,0.2,0c0.3-1.5,0.6-3,0.9-4.4
		c0.1,0,0.1,0,0.2,0c0.4,2.7,0.8,5.4,1.2,8.2c0.1,0,0.1,0,0.2,0c0.3-1.5,0.6-3,0.9-4.7c0.2,0.7,0.3,1.1,0.4,1.5
		c-0.2,3.6,0.6,7,1.3,10.5c0.9,4.6,1.1,9.2,0.8,13.9c0,0.3-0.1,0.5-0.2,0.8c-0.4-1.1-0.4-2.4-0.8-3.6c-0.3,3-0.6,6.1-1,9.1
		c-0.1,0-0.1,0-0.2,0c-0.4-2.6-0.8-5.1-1.3-7.6c-0.1,0-0.1,0-0.2,0c-0.3,1.3-0.6,2.6-0.9,4c-0.1,0-0.1,0-0.2,0
		c-0.4-2.5-0.9-5.1-1.3-7.6c-0.6,1.3-0.6,2.7-1.2,4.2c-0.5-2.8-0.9-5.3-1.4-8.2c-0.6,1.6-0.5,3-1.2,4.4c-0.5-2.9-0.9-5.5-1.3-8.1
		c-0.5,1.4-0.6,2.8-1.2,4.4c-0.5-2.8-0.9-5.4-1.3-8c-0.1,0-0.1,0-0.2,0c-0.3,1.4-0.6,2.8-0.9,4.2c-0.1,0-0.1,0-0.2,0
		c-0.4-2.6-0.9-5.3-1.3-7.9c-0.1,0-0.1,0-0.2,0c-0.3,1.4-0.6,2.7-0.9,4.3c-0.6-1.5-0.2-3-0.8-4.4c-1.2,2.9-0.1,15.3,1.8,19
		c0.3-1.7,0.6-3.4,0.9-5c0.1,0,0.1,0,0.2,0c0.4,2.8,0.9,5.6,1.3,8.5c0.1,0,0.1,0,0.2,0c0.3-1.5,0.6-3.1,0.9-4.6c0.1,0,0.1,0,0.2,0.1
		c0.4,2.7,0.8,5.4,1.3,8.1c0.1,0,0.1,0,0.2,0c0.3-1.5,0.6-2.9,0.9-4.4c0.1,0,0.1,0,0.2,0c0.4,2.7,0.8,5.4,1.2,8.1c0.1,0,0.2,0,0.2,0
		c0.3-1.5,0.6-3,0.9-4.5c0.1,0,0.1,0,0.2,0c0.4,2.7,0.9,5.5,1.3,8.2c0.1,0,0.1,0,0.2,0c0.3-1.5,0.6-2.9,0.9-4.4c0.1,0,0.1,0,0.2,0
		c0.4,2.7,0.8,5.4,1.2,8.1c0.1,0,0.1,0,0.2,0c0.3-1.5,0.6-3,0.9-4.4c0.1,0,0.1,0,0.2,0c0.5,3.1,1,6.3,1.5,9.7
		c0.7-2.2,0.5-4.3,1.2-6.1c0.9,3.3,1,6.7,0.6,10.1c-0.5,3.8-0.5,7.5,0.2,11.2c0.2,0.8,0.2,1.7,0.1,2.5c-0.3,1.6-0.5,3.1-0.8,4.6
		c-0.4-3-0.8-6-1.4-9c-0.3,3-0.6,6-1,9.1c-0.1,0-0.1,0-0.1,0c-0.4-2.6-0.8-5.1-1.3-7.6c-0.1,0-0.1,0-0.2,0c-0.3,1.3-0.6,2.6-0.9,4
		c-0.1,0-0.1,0-0.2,0c-0.4-2.6-0.8-5.1-1.2-7.7c-0.1,0-0.2,0-0.3,0c-0.3,1.3-0.6,2.6-0.9,4c-0.1,0-0.1,0-0.2,0
		c-0.4-2.6-0.9-5.1-1.3-8c-0.6,1.5-0.6,2.9-1.1,4.6c-0.5-3-0.9-5.6-1.3-8.2c-0.1,0-0.1,0-0.2,0c-0.3,1.4-0.6,2.8-0.9,4.2
		c-0.1,0-0.1,0-0.2,0c-0.4-2.6-0.9-5.3-1.3-7.9c-0.1,0-0.1,0-0.2,0c-0.3,1.4-0.6,2.8-0.9,4.2c-0.1,0-0.1,0-0.2-0.1
		c-0.4-2.6-0.8-5.2-1.3-7.8c-0.1,0-0.1,0-0.2,0c-0.3,1.4-0.6,2.7-0.9,4.1c-0.1,0-0.1,0-0.2,0c-0.2-1.4-0.4-2.9-0.6-4.4
		c-1.4,2.3-0.2,16.1,1.7,18.8c0.3-1.6,0.6-3.2,0.9-4.9c0.1,0,0.1,0,0.1,0c0.4,2.8,0.9,5.6,1.3,8.4c0.1,0,0.1,0,0.2,0
		c0.3-1.5,0.6-3.1,0.9-4.6c0.1,0,0.1,0,0.2,0.1c0.4,2.8,0.9,5.6,1.3,8.4c0.1,0,0.1,0,0.2,0c0.3-1.5,0.6-3.1,0.9-4.6
		c0.1,0,0.1,0,0.2,0c0.4,2.8,0.8,5.6,1.2,8.3c0.1,0,0.1,0,0.2,0c0.3-1.5,0.6-3,0.9-4.5c0.1,0,0.1,0,0.2,0c0.4,2.7,0.8,5.3,1.3,8
		c0.1,0,0.2,0,0.3,0c0.3-1.4,0.5-2.8,0.8-4.2c0.1,0,0.1,0,0.2,0c0.4,2.7,0.8,5.4,1.2,8.1c0.1,0,0.1,0,0.2,0c0.3-1.5,0.6-3,0.9-4.5
		c0.1,0,0.1,0,0.2,0c0.5,3.1,0.9,6.2,1.4,9.2c0.1,0,0.2,0,0.3,0c0.5-3.1,0.9-6.2,1.4-9.6c0.6,1.5,0.4,2.9,1,4
		c0.3,3.4,0.6,6.7,1,10.1c0.2,1.7,0.1,3.4,0.2,5.1c0.1,1.2-0.5,1.9-1.6,2.4c-2.1,0.8-4.2,1.1-6.4,1.3c-0.8,0-1.6,0.4-2.4,0.3
		c-0.4-2-0.7-4-1.1-5.9c-0.1,0-0.1,0-0.2,0c-0.3,1.3-0.6,2.7-0.9,4c-0.1,0-0.1,0-0.2,0c-0.4-2.6-0.9-5.2-1.3-7.8c-0.1,0-0.1,0-0.2,0
		c-0.3,1.4-0.6,2.7-0.8,4.1c-0.1,0-0.1,0-0.2,0c-0.4-2.6-0.9-5.2-1.3-7.8c-0.1,0-0.1,0-0.2,0c-0.3,1.4-0.6,2.8-0.9,4.2
		c-0.1,0-0.1,0-0.2,0c-0.4-2.6-0.9-5.3-1.3-8c-0.6,1.4-0.6,2.8-1.1,4.2c-0.5-1.5-0.2-2.9-0.7-4.3c-0.4,0.6-0.5,1.3-0.5,1.9
		c0,1.1,0,2.2,0,3.2c0,1.6-0.2,3.2,0.1,4.7c0.6,2.8,1.1,5.5,1.8,8.3c-3.8,0.3-7.5,0.4-11.3,0.3c0.1-2.6,0.7-5.1,1.2-7.6
		c0.3,1.5,0.6,3.1,0.9,4.6c0.1,0,0.1,0,0.2-0.1c0.4-2.8,0.9-5.6,1.3-8.4c0.1,0,0.1,0,0.2,0c0.3,1.6,0.6,3.2,0.9,4.7c0,0,0.1,0,0.1,0
		c0.4-2.8,0.9-5.6,1.3-8.4c0.1,0,0.1,0,0.2,0c0.3,1.6,0.6,3.1,1,5c2-7.1,2.8-17,1.5-19c-0.2,1.5-0.3,2.9-0.5,4.3c-0.1,0-0.1,0-0.2,0
		c-0.3-1.4-0.6-2.8-0.9-4.2c-0.1,0-0.1,0-0.2,0.1c-0.4,2.6-0.9,5.2-1.3,7.9c-0.1,0-0.1,0-0.2,0c-0.3-1.4-0.6-2.9-0.9-4.3
		c-0.1,0-0.1,0-0.2,0c-0.4,2.7-0.9,5.3-1.3,8.3c-0.6-1.6-0.6-3.1-1.2-4.6c-0.5,2.7-0.9,5.3-1.4,7.9c-0.1,0-0.1,0-0.2,0
		c-0.3-1.3-0.6-2.6-0.8-4c-0.1,0-0.1,0-0.2,0c-0.4,2.6-0.8,5.1-1.2,7.7c-0.1,0-0.2,0-0.2,0c-0.3-1.3-0.6-2.5-0.8-3.8
		c-0.1,0-0.2,0-0.2,0c-0.4,2.5-0.8,5-1.3,7.5c-0.1,0-0.1,0-0.2,0c-0.3-1.3-0.6-2.7-0.9-4c-0.1,0-0.1,0-0.2,0
		c-0.4,2.6-0.8,5.2-1.3,7.8c-0.1,0-0.1,0-0.2,0c-0.3-3.1-0.6-6.2-0.9-9.3c-0.1,0-0.2,0-0.3,0c-0.3,3.1-0.6,6.1-0.9,9.2
		c-0.1,0-0.1,0-0.2,0c-0.4-2.6-0.9-5.1-1.3-7.7c-0.1,0-0.1,0-0.2,0c-0.3,1.3-0.5,2.7-0.8,4c-0.1,0-0.1,0-0.2,0
		c-0.4-2.5-0.8-5.1-1.3-7.9c-0.6,1.5-0.6,2.9-1.2,4.5c-0.5-3-0.9-5.5-1.3-8.1c-0.6,1.3-0.5,2.7-1.2,4.1c-0.5-2.8-0.9-5.3-1.3-7.9
		c-0.1,0-0.1,0-0.1,0c-0.3,1.3-0.6,2.6-0.8,3.9c-0.8-2.6-1-5.2-1.6-7.8c-0.4,1.5-0.6,3-1.1,4.5c-0.4-2.8-0.9-5.4-1.3-8.1
		c-0.1,0-0.1,0-0.2,0c-0.3,1.3-0.6,2.6-0.9,4.3c-0.5-1.7-0.5-3.1-0.8-4.5c-1.2,6.5,0,12.7,1.8,19.2c0.4-2,0.7-3.6,1-5.2
		c0,0,0.1,0,0.1,0c0.4,2.9,0.9,5.8,1.3,8.7c0.1,0,0.1,0,0.2,0c0.3-1.6,0.6-3.3,0.9-5c0.1,0,0.1,0,0.2,0c0.4,2.8,0.8,5.5,1.2,8.3
		c0.1,0,0.2,0,0.3,0c0.3-1.5,0.6-2.9,0.9-4.3c0.1,0,0.1,0,0.2,0c0.4,2.6,0.8,5.3,1.2,7.9c-0.1,0-0.2,0.2-0.3,0.2
		c-3.7,0-7.5,0.4-11.2,0.2c0-1.3,0.4-2.5,0.6-3.8c0.4-2.1,1.1-4.2,1.2-6.3c0.2-2.3,0.1-4.7,0.1-7.1c0-0.7-0.1-1.3-0.6-2
		c-0.3,1.5-0.2,2.9-0.7,4.5c-0.4-1.6-0.5-3-1-4.3c-0.5,2.8-0.9,5.4-1.4,8.4c-0.4-1.7-0.7-3.1-1-4.5c-0.1,0-0.1,0-0.2,0
		c-0.4,2.6-0.8,5.2-1.3,7.9c-0.1,0-0.1,0-0.2,0c-0.3-1.4-0.6-2.8-0.9-4.1c-0.1,0-0.1,0-0.2,0c-0.4,2.6-0.9,5.1-1.3,7.7
		c-0.1,0-0.2,0-0.2,0c-0.3-1.3-0.5-2.6-0.8-4c-0.1,0-0.1,0-0.2,0c-0.4,2.6-0.9,5.3-1.3,7.9c-0.4,0.1-0.6-0.2-0.8-0.4
		c-0.2-0.2-0.4-0.4-0.6-0.1c-0.5,0.9-1.3,0.5-2,0.5c-1.9,0-3.8,0-5.7,0c-0.7,0-1.4,0.1-2-0.6c-0.2-0.2-0.6-0.4-0.9,0.1
		c-0.2,0.4-0.4,0.3-0.7,0.2c-0.2-2.5-0.8-5-1.3-7.5c-0.3,1.3-0.6,2.5-0.9,3.8c-0.1,0-0.1,0-0.2,0c-0.4-2.6-0.9-5.1-1.3-7.7
		c-0.1,0-0.1,0-0.2,0c-0.3,1.4-0.6,2.8-0.9,4.2c-0.1,0-0.1,0-0.2,0c-0.4-2.6-0.9-5.2-1.3-7.8c-0.1,0-0.1,0-0.2,0
		c-0.3,1.3-0.6,2.7-0.8,4c-0.1,0-0.1,0-0.2,0c-0.4-2.6-0.9-5.3-1.3-7.9c-0.1,0-0.1,0-0.2,0c-0.3,1.4-0.6,2.8-0.9,4.2
		c-0.3-1.4-0.4-2.7-0.8-4c-1.1,6.2-0.1,12.2,1.8,18.2c0.3-1.5,0.6-3,0.9-4.5c0.1,0,0.1,0,0.2,0c0.3,1.6,0.5,3.1,0.7,4.7
		c-4.5-0.1-9.1-0.2-13.6-0.3c0.4-2.6,0.7-5.2,1.1-7.8c0.1,0,0.2,0,0.2,0c0.3,1.5,0.6,3.1,0.9,4.6c0.1,0,0.1,0,0.2,0
		c0.4-2.8,0.9-5.6,1.3-8.4c0.1,0,0.1,0,0.2,0c0.3,1.6,0.6,3.2,0.9,4.8c0.1,0,0.1,0,0.2,0c0.4-2.9,0.9-5.8,1.4-9c0.4,2,0.7,3.6,1,5.2
		c1.7-6.1,3.1-12.2,1.8-18.6c-0.7,1.3-0.3,2.8-0.9,4.3c-0.3-1.5-0.6-2.9-0.9-4.3c-0.1,0-0.1,0-0.2,0c-0.4,2.6-0.8,5.2-1.3,7.8
		c-0.1,0-0.1,0-0.2,0c-0.3-1.4-0.6-2.8-0.9-4.2c-0.1,0-0.1,0-0.2,0c-0.4,2.6-0.9,5.3-1.3,7.9c-0.1,0-0.1,0-0.2,0
		c-0.3-1.4-0.6-2.7-0.9-4c-0.1,0-0.1,0-0.2,0c-0.4,2.6-0.8,5.2-1.3,7.8c-0.1,0-0.1,0-0.2,0c-0.3-1.3-0.6-2.7-0.9-4
		c-0.1,0-0.1,0-0.2,0c-0.4,2.6-0.9,5.2-1.3,7.9c-0.6-1.4-0.5-2.9-1.2-4.4c-0.5,2.9-0.9,5.4-1.3,8c-0.1,0-0.1,0-0.2,0
		c-0.3-1.3-0.6-2.6-0.9-4c-0.1,0-0.1,0-0.2,0c-0.4,2.6-0.8,5.1-1.3,8c-0.6-3.4-0.6-6.5-1.3-9.4c-0.3,3-0.6,6-0.9,9
		c-0.1,0-0.2,0-0.3,0c-0.4-2.5-0.8-5.1-1.2-7.6c-0.1,0-0.1,0-0.2,0c-0.3,1.3-0.6,2.7-0.9,4c-0.1,0-0.1,0-0.2,0
		c-0.4-2.5-0.8-5-1.3-7.8c-0.7,1.4-0.5,2.9-1.2,4.3c-0.4-2.8-0.9-5.3-1.3-7.8c-0.6,1.3-0.6,2.6-1.2,4.1c-0.5-2.8-0.9-5.3-1.3-7.8
		c-0.1,0-0.2,0-0.3,0c-0.3,1.3-0.5,2.5-0.8,3.8c-0.1,0-0.2,0-0.2,0c-0.4-2.5-0.9-5-1.3-7.6c-0.1,0-0.1,0-0.2,0
		c-0.3,1.3-0.6,2.6-0.8,3.9c-0.1,0-0.2,0-0.2,0c-0.4-2.6-0.8-5.2-1.3-7.8c-0.7,1.3-0.6,2.8-1.2,4.4c-0.2-1.6-0.4-3-0.5-4.4
		c-0.1,0-0.2,0-0.3,0c-0.8,6.4,0.1,12.6,1.9,18.9c0.3-1.7,0.7-3.3,1-4.9c0.1,0,0.1,0,0.2,0c0.4,2.8,0.8,5.6,1.3,8.4
		c0.1,0,0.1,0,0.2,0c0.3-1.6,0.6-3.2,0.9-4.8c0.1,0,0.1,0,0.2,0c0.4,2.8,0.9,5.5,1.3,8.2c0.1,0,0.2,0,0.2,0c0.3-1.5,0.6-3,0.8-4.5
		c0.4,2.6,1.1,5,1.2,7.6c-3.8,0-7.5-0.1-11.3-0.4c0.2-0.9,0.4-1.9,0.6-2.8c0.4-1.9,0.9-3.8,1.1-5.7c0.2-2.6,0-5.2,0-7.8
		c0-0.5,0.1-1-0.4-1.5c-0.2,1.5-0.4,2.9-0.7,4.7c-0.3-1.7-0.7-3.2-0.9-4.6c-0.1,0-0.1,0-0.2,0c-0.4,2.6-0.8,5.2-1.3,7.8
		c-0.1,0-0.1,0-0.2,0c-0.3-1.3-0.6-2.6-0.9-4c-0.1,0-0.1,0-0.2,0c-0.4,2.6-0.8,5.1-1.3,7.7c-0.1,0-0.1,0-0.2,0
		c-0.3-1.4-0.6-2.8-0.9-4.2c-0.1,0-0.1,0-0.2,0c-0.4,2.6-0.8,5.3-1.2,7.9c-0.1,0-0.2,0-0.3,0c-0.3-1.3-0.6-2.7-0.9-4
		c-0.4,1.9-0.9,3.7-1,5.5c-2.8-0.3-5.5-0.6-8.1-1.6c-1.1-0.4-1.7-1.1-1.7-2.4c0-4.2,0.4-8.3,0.7-12.5c0.2-2,0.1-4,0.5-6
		c0.9,0.9,0.5,2,0.7,3c0.4,2.1,0.7,4.2,1,6.3c0.1,0,0.2,0,0.2,0c0.5-3,0.9-6.1,1.4-9.2c0.1,0,0.2,0,0.2,0c0.3,1.5,0.5,2.9,0.8,4.4
		c0.1,0,0.1,0,0.2,0c0.4-2.8,0.9-5.5,1.3-8.3c0.5,1.6,0.6,3.2,1.2,4.9c0.5-3.1,0.9-5.9,1.3-8.7c0,0,0.1,0,0.2,0
		c0.3,1.6,0.6,3.1,0.9,4.7c0.1,0,0.2,0,0.2,0c0.4-2.8,0.8-5.6,1.2-8.4c0.5,1.6,0.7,3.2,1.3,4.9c0.5-3,0.9-5.8,1.3-8.6
		c0.1,0,0.1,0,0.2,0c0.3,1.6,0.6,3.3,0.9,4.9c0.1,0,0.1,0,0.2,0c0.4-2.9,0.8-5.9,1.3-8.8c0.4,1.7,0.7,3.3,1.1,5
		c1.9-6.3,2.6-12.5,1.6-18.9c-0.2,1.4-0.4,2.9-0.6,4.3c0,0-0.1,0-0.1,0c-0.3-1.4-0.6-2.7-0.9-4.1c-0.1,0-0.1,0-0.2,0
		c-0.4,2.6-0.8,5.2-1.3,7.8c-0.6-1.4-0.6-2.9-1.2-4.3c-0.5,2.8-0.9,5.4-1.4,8.4c-0.5-1.6-0.5-3-1.2-4.6c-0.5,2.9-0.8,5.4-1.3,7.9
		c-0.1,0-0.1,0-0.2,0c-0.3-1.3-0.6-2.7-0.9-4c-0.1,0-0.1,0-0.2,0c-0.4,2.6-0.8,5.1-1.3,7.7c-0.1,0-0.1,0-0.2,0
		c-0.3-1.3-0.5-2.6-0.8-4c-0.1,0-0.2,0-0.3,0c-0.4,2.5-0.8,5.1-1.3,7.6c-0.6-1.3-0.6-2.7-1.2-4.1c-0.5,2.7-0.9,5.2-1.3,7.7
		c-0.1,0-0.1,0-0.2,0c-0.3-3-0.6-6-0.9-9c-0.1,0-0.2,0-0.3,0c-0.3,3.1-0.6,6.1-1,9.2c-0.1,0-0.2,0-0.2,0c0-0.2,0-0.3,0-0.5
		c0.1-4.4-0.2-8.8,0.7-13.1c0.3-1.4,0.1-2.8,0-4.2c-0.2-2.3-0.4-4.6,0.2-6.9c0.2,0.6,0.4,1.3,0.6,2.2c0.5-3.4,1-6.6,1.5-9.7
		c0,0,0.1,0,0.2,0c0.3,1.5,0.6,3,0.9,4.5c0.1,0,0.2,0,0.2,0c0.4-2.7,0.8-5.4,1.2-8.2c0.6,1.5,0.5,3.1,1.2,4.8c0.5-3,0.9-5.8,1.3-8.5
		c0.1,0,0.1,0,0.2,0c0.3,1.5,0.6,3,0.9,4.4c0.1,0,0.2,0,0.2,0c0.4-2.7,0.8-5.4,1.2-8.1c0.1,0,0.2,0,0.2,0c0.3,1.5,0.6,3.1,0.9,4.6
		c0,0,0.1,0,0.2,0c0.4-2.8,0.9-5.5,1.3-8.3c0.1,0,0.1,0,0.2,0c0.3,1.5,0.6,3.1,0.9,4.6c0.1,0,0.1,0,0.2,0c0.4-2.9,0.8-5.7,1.2-8.6
		c0.1,0,0.1,0,0.2,0c0.3,1.6,0.6,3.3,0.9,5.1c1.8-4.9,2.8-17.2,1.6-18.9c-0.2,1.5-0.4,2.9-0.6,4.6c-0.4-1.6-0.5-2.9-1.2-4.2
		c-0.4,2.6-0.8,5.1-1.2,7.7c-0.5-1.4-0.7-2.8-1.2-4.4c-0.5,2.8-0.9,5.3-1.3,7.9c-0.1,0-0.1,0-0.2,0c-0.3-1.3-0.6-2.5-0.9-3.8
		c-0.1,0-0.2,0-0.2,0c-0.4,2.6-0.8,5.1-1.2,7.6c-0.1,0-0.1,0-0.2,0c-0.3-1.4-0.6-2.8-0.9-4.2c0,0-0.1,0-0.2,0
		c-0.4,2.6-0.8,5.2-1.3,7.7c-0.1,0-0.2,0-0.2,0c-0.3-1.3-0.6-2.6-0.8-4c-0.1,0-0.2,0-0.2,0c-0.4,2.6-0.8,5.2-1.2,7.9
		c-0.1,0-0.1,0-0.2,0c-0.3-1.3-0.6-2.6-0.9-3.9c-0.1,0-0.1,0-0.2,0c-0.4,2.5-0.8,5-1.3,7.5c-0.4-2.4-0.7-4.8-0.9-7.1
		c-0.1-0.7,0.1-1.5-0.7-2c0.2-3.1,1.3-5.9,2.3-8.8c0.1-0.3,0.1-0.6,0.1-0.8c-0.3-3.2,0.4-6.4,0.3-9.6c0.3,0.2,0,0.6,0.5,0.8
		c0.4-2.7,0.8-5.4,1.2-8.1c0.7,1.4,0.6,3,1.3,4.6c0.5-3,0.9-5.8,1.3-8.6c0,0,0.1,0,0.2,0c0.3,1.6,0.6,3.1,0.9,4.6c0.1,0,0.2,0,0.2,0
		c0.4-2.8,0.8-5.6,1.2-8.4c0.6,1.6,0.6,3.2,1.2,4.9c0.5-3.1,0.9-5.9,1.3-8.7c0,0,0.1,0,0.2,0c0.3,1.6,0.6,3.3,0.9,4.9
		c0.1,0,0.1,0,0.2,0c0.4-2.9,0.8-5.7,1.3-8.6c0.4,0.8,0.5,1.7,0.6,2.5c0.2,0.8,0.3,1.6,0.5,2.5c1.9-6.3,2.6-12.6,1.7-19
		c-0.2,1.4-0.4,2.9-0.6,4.4c0,0-0.1,0-0.1,0c-0.3-1.3-0.6-2.6-0.9-4c-0.1,0-0.2,0-0.2,0c-0.4,2.5-0.8,5.1-1.3,7.6
		c-0.1,0-0.1,0-0.2,0c-0.3-1.3-0.6-2.6-0.8-3.9c-0.1,0-0.1,0-0.2,0c-0.4,2.6-0.8,5.1-1.3,7.7c-0.1,0-0.1,0-0.2,0
		c-0.3-1.3-0.6-2.7-0.9-4c-0.1,0-0.1,0-0.2,0.1c-0.4,2.6-0.8,5.1-1.2,7.6c-0.6-1.3-0.6-2.7-1.2-4.2c-0.5,2.8-0.9,5.3-1.3,7.9
		c-0.1,0-0.2,0-0.2,0c-0.3-1.3-0.5-2.6-0.8-4c-0.1,0-0.1,0-0.2,0c-0.4,2.5-0.8,5.1-1.3,7.6c-0.1,0-0.2,0-0.2,0
		c-0.3-1.3-0.5-2.6-0.8-3.9c-0.3,0.1-0.2,0.5-0.5,0.5c0.1-2.8-0.3-5.6-0.3-8.3c0-4.8,0.1-9.6,0.2-14.4c0.2,0.8,0.4,1.6,0.5,2.4
		c0.1,0,0.1,0,0.2,0c0.4-2.8,0.8-5.6,1.3-8.3c0.6,1.5,0.6,3,1.3,4.4c0.4-2.7,0.8-5.5,1.3-8.4c0.5,1.7,0.5,3.3,1.2,5
		c0.5-3.1,0.8-5.8,1.3-8.5c0.1,0,0.2,0,0.2,0c0.3,1.6,0.6,3.1,1,5c0.5-3.2,0.9-6,1.4-8.8c0,0,0.1,0,0.2,0c0.3,1.6,0.6,3.1,0.9,4.7
		c0.1,0,0.1,0,0.2,0c0.4-2.9,0.8-5.7,1.3-8.6c0.1,0,0.1,0,0.2,0c0.3,1.6,0.6,3.3,0.9,5.1c2-6.3,2.7-12.6,1.7-18.9
		c-0.2,1.4-0.4,2.9-0.6,4.5c-0.5-1.5-0.5-3-1.2-4.5c-0.5,2.8-0.9,5.5-1.3,8.1c-0.6-1.4-0.6-2.9-1.2-4.3c-0.5,2.8-0.9,5.4-1.3,8.1
		c-0.1,0-0.1,0-0.2,0c-0.3-1.4-0.6-2.8-0.9-4.2c-0.1,0-0.2,0-0.2,0c-0.4,2.6-0.8,5.2-1.3,7.8c-0.1,0-0.1,0-0.2,0
		c-0.3-1.3-0.6-2.7-0.9-4c-0.1,0-0.1,0-0.2,0c-0.4,2.5-0.8,5-1.3,7.5c-0.1,0-0.2,0-0.2,0c-0.3-1.3-0.6-2.7-0.8-4c-0.1,0-0.1,0-0.2,0
		c-0.4,2.6-0.8,5.2-1.2,7.8c-0.1,0-0.2,0-0.2,0c-0.3-1.3-0.6-2.6-0.9-4.1c-0.5,1.3-0.3,2.5-0.8,3.6c-0.6-5-1.1-10-1.7-15
		c0-0.4,0.1-0.8-0.5-0.9c0.6-0.8,0.1-1.6,0.1-2.4c0.6-0.1,0.5-0.6,0.6-0.9c0.2-1.3,0.4-2.7,0.6-4c0.2-1.6,0.5-3.1,0.8-5
		c0.5,1.8,0.5,3.4,1.2,4.8c0.4-2.7,0.8-5.4,1.2-8.2c0.5,1.5,0.6,3,1.3,4.5c0.4-2.7,0.8-5.5,1.3-8.4c0.7,1.7,0.5,3.2,1.2,4.9
		c0.5-3.1,0.9-5.9,1.3-8.6c0.5,1.7,0.7,3.3,1.2,5.1c0.5-3.1,0.9-6,1.3-8.9c0,0,0.1,0,0.1,0c0.3,1.6,0.6,3.3,0.9,4.9
		c0.1,0,0.1,0,0.2,0c0.4-2.8,0.8-5.7,1.3-8.5c0.5,1.6,0.7,3.2,1.1,4.9c1.9-6.2,2.6-12.4,1.6-18.8c-0.2,1.4-0.4,2.9-0.7,4.7
		c-0.4-1.8-0.7-3.2-1-4.7c-0.1,0-0.1,0-0.2,0c-0.4,2.7-0.8,5.3-1.3,8.3c-0.6-1.6-0.5-3.1-1.2-4.6c-0.5,2.8-0.9,5.3-1.3,7.9
		c0,0-0.1,0-0.2,0c-0.3-1.3-0.6-2.7-0.9-4c-0.1,0-0.2,0-0.2,0c-0.4,2.6-0.8,5.1-1.2,7.7c-0.7-1.3-0.6-2.7-1.3-4.3
		c-0.5,2.8-0.9,5.4-1.3,8c-0.1,0-0.1,0-0.2,0c-0.3-1.3-0.6-2.6-0.8-4c-0.1,0-0.1,0-0.2,0c-0.4,2.5-0.9,5.1-1.3,7.6
		c-0.1,0-0.1,0-0.2,0c-0.3-1.2-0.5-2.5-0.8-3.7c-0.1,0-0.2,0-0.3,0c-0.4,2.5-0.8,5-1.2,7.5c0,0-0.1,0-0.2,0c-0.3-3.1-0.6-6.1-1-9.2
		c-0.1,0-0.2,0-0.2,0c-0.3,3.1-0.6,6.1-1,9.2c0,0-0.1,0-0.2,0c-0.4-2.5-0.8-5-1.3-7.7c-0.4,0.6-0.2,1.2-0.8,1.4
		c-0.6-1.6-0.5-3.3-1.3-4.8c-0.1-0.5-0.2-1.1-0.4-1.6c-1.3-3.4-2.4-7-4-10.3c-0.9-1.8-1.2-3.7-1.4-5.7c-0.3-3.3,0-6.7,0.1-10
		c0.8-1.4,0.6-3.1,1.3-4.6c0.4,2.8,0.8,5.6,1.2,8.4c0.1,0,0.2,0,0.2,0c0.3-1.5,0.6-3,0.9-4.4c0.1,0,0.1,0,0.2,0
		c0.4,2.7,0.8,5.4,1.3,8.1c0.1,0,0.2,0,0.3,0c0.3-1.5,0.5-3,0.8-4.5c0.1,0,0.1,0,0.2,0.1c0.4,2.8,0.9,5.6,1.3,8.4c0.1,0,0.1,0,0.2,0
		c0.3-1.5,0.6-3.1,0.9-4.6c0.1,0,0.1,0,0.2,0c0.5,3.1,0.9,6.1,1.4,9.2c0.1,0,0.2,0,0.3,0c0.5-3.1,0.9-6.2,1.4-9.2c0.1,0,0.1,0,0.2,0
		c0.3,1.5,0.6,2.9,0.9,4.4c0.1,0,0.1,0,0.2,0c0.4-2.7,0.9-5.4,1.3-8.1c0.6,1.4,0.5,2.9,1.3,4.3c0.4-2.7,0.8-5.4,1.3-8
		c0.1,0,0.1,0,0.2,0c0.3,1.5,0.6,3,0.9,4.5c0.1,0,0.1,0,0.2,0c0.4-2.8,0.8-5.5,1.3-8.3c0.4,1.6,0.7,3.2,1.2,4.9
		c0.5-3.1,0.9-5.9,1.4-9c0.4,1.9,0.7,3.5,1,5c0.1,0,0.1,0,0.2,0c0.4-2.7,0.8-5.4,1.2-8.1c0.1,0,0.2,0,0.2,0c0.3,1.5,0.6,3,0.9,4.6
		c1.8-4.8,2.8-16.8,1.6-18.9c-0.2,1.5-0.4,2.9-0.6,4.3c0,0-0.1,0-0.1,0c-0.3-1.4-0.6-2.8-0.9-4.2c-0.1,0-0.1,0-0.2,0
		c-0.4,2.6-0.8,5.3-1.2,7.9c-0.6-1.4-0.7-2.8-1.2-4.3c-0.5,2.8-0.9,5.4-1.3,8.1c0,0-0.1,0-0.2,0c-0.3-1.4-0.6-2.8-0.9-4.2
		c-0.1,0-0.1,0-0.2,0c-0.4,2.6-0.8,5.3-1.2,7.9c-0.1,0-0.2,0-0.2,0c-0.3-1.4-0.6-2.8-0.9-4.2c-0.1,0-0.1,0-0.2,0
		c-0.4,2.6-0.9,5.3-1.3,7.9c-0.1,0-0.1,0-0.2,0c-0.3-1.3-0.6-2.7-0.9-4c-0.1,0-0.2,0-0.3,0c-0.4,2.5-0.8,5.1-1.2,7.6
		c-0.6-1.3-0.6-2.7-1.2-4.1c-0.5,2.7-0.9,5.2-1.3,7.7c-0.1,0-0.1,0-0.2,0c-0.3-3-0.6-6-0.9-9c-0.1,0-0.2,0-0.2,0
		c-0.3,3.1-0.6,6.1-1,9.2c0,0-0.1,0-0.2,0c-0.4-2.6-0.8-5.2-1.3-7.7c-0.1,0-0.2,0-0.2,0c-0.3,1.3-0.5,2.6-0.8,3.9
		c-0.1,0-0.1,0-0.2,0c-0.4-2.5-0.8-5.1-1.3-7.6c-0.1,0-0.2,0-0.3,0c-0.3,1.3-0.5,2.7-0.8,4c-0.1,0-0.1,0-0.2,0
		c-0.4-2.6-0.9-5.2-1.3-7.7c-0.7,1.3-0.6,2.7-1.2,4.2c-0.5-2.9-0.9-5.4-1.3-7.9c-0.1,0-0.2,0-0.3,0c-0.3,1.3-0.6,2.5-0.8,3.8
		c-0.3-0.6-0.4-1.2-0.5-1.8c-0.5-1.9-0.4-4-1.2-5.8c0-0.3,0.1-0.7,0-1c-0.4-1.7-1-3.4-1.3-5.1c-0.2-1-0.9-2-0.4-3.2l0-0.1l0,0
		c1-0.2,1.2,0.3,1.3,1.1c0.1,1.2,0.3,2.3,0.5,3.5c0.7-1.4,0.7-3,1.3-4.4c0.4,2.8,0.8,5.6,1.2,8.3c0.1,0,0.1,0,0.2,0
		c0.3-1.5,0.6-3.1,0.9-4.6c0.4,1.3,0.6,2.7,0.9,4c0.1,0.4-0.2,1.1,0.6,1c0.6,0,1-0.2,1.1-1c0.2-1.4,0.5-2.7,0.8-4.4
		c0.3,1.7,0.6,3.1,0.9,4.5c0.1,0,0.2,0,0.3,0c0.4-2.6,0.8-5.3,1.2-7.9c0.6,1.5,0.6,3,1.2,4.8c0.5-3.1,0.9-5.8,1.4-8.7
		c0.7,1.6,0.5,3.2,1.2,4.9c0.4-2.8,0.8-5.2,1.2-7.7c0.9,1.2,0.7,2.7,1.3,4.1c0.3-1.6,0.5-3,0.7-4.5c0.1-0.5,0.5-0.9,1-0.8
		c0.5,0,0.5,0.5,0.5,0.9c0,0.2-0.1,0.5,0.3,0.5c0.3-0.3,0.2-0.6,0.2-0.9c0-0.8,0.3-1.3,1.1-1.6c3.2-1.4,6.3-3,9.4-4.7
		c0.2-0.1,0.5-0.4,0.8-0.2c0.5,0.5,0.6,0.1,0.8-0.3c0.2-0.5,0.6-0.7,1-0.7c0.5,0,0.3,0.5,0.4,0.9c0.2,1.3,0.5,2.6,0.7,4
		c0.1,0,0.1,0,0.2,0c0.3-1.5,0.6-2.9,0.9-4.4c0.1,0,0.1,0,0.2,0c0.4,2.8,0.8,5.5,1.3,8.3c0.5-1.5,0.6-3,1.3-4.5
		c0.4,2.4,0.7,4.7,1.1,7.3c1.1-1.1,0.6-2.5,1.3-3.6c0.3,0.4,0.2,0.8,0.2,1.2c0.1,1.2,0.3,1.3,1.3,0.8c0.6-0.3,1.2-0.6,1.8-0.9
		c0.6-0.4,1.3-0.5,1.6-1.1c0.2-0.5,0.4-1.1,0.9-1c0.6,0.1,0.2,0.8,0.3,1.2c0,0,0.1,0.1,0.2,0.1c0.1-0.2,0.1-0.4,0.1-0.6
		c0.2-0.5,0.5-1,1.1-1c0.5,0,0.4,0.7,0.5,1.1c0.3,1.8,0.6,3.7,0.9,5.8c0.5-1.1,0.5-2,0.6-2.8c0.3-1.8,0.5-3.5,0.8-5.3
		c0-0.3,0.1-0.6,0.4-0.6c0.4,0,0.3,0.4,0.3,0.7c0.2,1,0.4,2,0.6,2.9c0.3-0.9,0.5-1.9,0.6-2.8c0-1.1,0.9-1.6,1.6-2.2
		c0.1,0.5,0.3,0.9,0.4,1.5c0.5-1.1,0.3-2.2,0.6-3.3c0.4-0.7,1.2-1,1.8-1.5c0.6-0.5,1.2-0.9,1.4-1.7c1.3,1.2,2.6,2.5,3.9,3.7
		c3.8,3.3,8,5.8,12.8,7.3c0.9,0.3,1.3,0.8,1.4,1.6c0,0.2,0.1,0.5,0.2,0.8c0.1-0.3,0.2-0.4,0.3-0.5c0.2-0.4-0.1-1.3,0.8-1.1
		c0.9,0.1,0.7,0.8,0.7,1.4c0.2,1.3,0.4,2.7,0.6,4c0.1,0,0.1,0,0.2,0c0.3-1.5,0.6-3,0.9-4.5c0.1,0,0.1,0,0.2,0
		c0.4,2.7,0.8,5.5,1.3,8.2c0.1,0,0.1,0,0.2,0c0.3-1.5,0.5-3,0.8-4.4c0.1,0,0.2,0,0.2,0c0.5,3.1,1,6.2,1.4,9.3c0.1,0,0.2,0,0.2,0
		c0.5-3.2,0.9-6.3,1.4-9.5c0.7,1.4,0.5,3,1.3,4.7c0.5-2.9,0.9-5.6,1.3-8.3c0.1,0,0.2,0,0.3,0c0.3,1.5,0.5,2.9,0.8,4.6
		c0.6-1.7,0.6-3.3,0.8-4.7c0.1-0.6,0.5-0.7,0.9-0.8c0.6-0.1,0.5,0.3,0.6,0.7c0.1,0.3,0.1,0.7,0.5,1c-0.2-1.5,0.6-2.2,1.9-2.6
		c4.7-1.4,8.8-3.9,12.5-7C137.4,18.6,138.6,17.1,140.2,16z M96.7,114c-1.4,2.7-0.3,14.6,1.6,19.2c0.3-1.7,0.6-3.4,0.9-5
		c0.1,0,0.1,0,0.1,0c0.4,2.9,0.9,5.8,1.4,9c0.3-1.9,0.7-3.5,0.9-5.1c0.1,0,0.1,0,0.2,0c0.4,2.8,0.8,5.5,1.3,8.3c0.1,0,0.2,0,0.2,0
		c0.3-1.5,0.6-3,0.9-4.5c0.1,0,0.1,0,0.2,0c0.4,2.7,0.8,5.5,1.3,8.2c0.1,0,0.1,0,0.2,0c0.3-1.5,0.6-3,0.9-4.5c0.1,0,0.1,0,0.2,0
		c0.4,2.7,0.8,5.4,1.2,8.1c0.1,0,0.1,0,0.2,0c0.3-1.5,0.6-3,0.9-4.5c0.1,0,0.1,0,0.2,0c0.4,2.7,0.8,5.5,1.3,8.2c0.1,0,0.2,0,0.2,0
		c0.3-1.5,0.5-3,0.8-4.4c0.1,0,0.1,0,0.2,0c0.5,3.1,0.9,6.2,1.4,9.4c0.1,0,0.2,0,0.3,0c0.5-3.1,0.9-6.2,1.4-9.2c0.1,0,0.2,0,0.3,0
		c0.3,1.4,0.5,2.8,0.8,4.2c0.1,0,0.2,0,0.3,0c0.4-2.7,0.8-5.4,1.3-8.1c0.1,0,0.1,0,0.2,0c0.3,1.5,0.6,2.9,0.8,4.4c0.1,0,0.2,0,0.2,0
		c0.4-2.7,0.8-5.4,1.3-8.3c0.7,1.7,0.5,3.3,1.2,5c0.6-3,0.8-5.8,1.5-8.8c0.3,1.8,0.6,3.3,0.9,4.7c0.1,0,0.2,0,0.2,0
		c0.4-2.8,0.8-5.6,1.3-8.4c0.5,1.6,0.6,3.2,1.2,4.8c0.5-3,0.9-5.8,1.3-8.5c0,0,0.1,0,0.1,0c0.3,1.6,0.6,3.3,0.9,4.9
		c2.3-8.2,2.9-16.9,1.6-19c-0.2,1.6-0.3,3.1-0.5,4.6c-0.1,0-0.1,0-0.2,0c-0.3-1.4-0.6-2.8-0.9-4.2c-0.1,0-0.1,0-0.2,0
		c-0.4,2.6-0.9,5.2-1.3,7.7c-0.1,0-0.1,0-0.2,0c-0.3-1.4-0.6-2.8-0.9-4.2c-0.1,0-0.1,0-0.2,0c-0.4,2.6-0.8,5.2-1.3,7.8
		c-0.1,0-0.2,0-0.2-0.1c-0.3-1.3-0.6-2.6-0.9-3.8c-0.1,0-0.1,0-0.2,0c-0.4,2.6-0.8,5.1-1.3,7.7c-0.1,0-0.1,0-0.2,0
		c-0.3-1.3-0.6-2.7-0.8-4c-0.1,0-0.1,0-0.2,0c-0.4,2.5-0.8,5-1.3,7.6c-0.1,0-0.2,0-0.2,0c-0.3-1.3-0.6-2.5-0.8-3.8
		c-0.1,0-0.2,0-0.2,0c-0.4,2.6-0.8,5.1-1.2,7.7c-0.1,0-0.1,0-0.2,0c-0.3-1.3-0.6-2.6-0.9-3.9c-0.8,2.5-0.9,5.1-1.7,7.5
		c-0.3-3-0.6-6-0.9-8.9c-0.1,0-0.2,0-0.3,0c-0.3,3-0.6,6-0.9,9c-0.1,0-0.2,0-0.2,0c-0.4-2.5-0.8-5.1-1.2-7.6c-0.1,0-0.1,0-0.2,0
		c-0.3,1.3-0.6,2.7-0.9,4c-0.1,0-0.1,0-0.2-0.1c-0.4-2.5-0.8-5-1.3-7.5c-0.1,0-0.2,0-0.2,0c-0.3,1.3-0.6,2.5-0.8,3.8
		c-0.1,0-0.1,0-0.2,0c-0.4-2.6-0.8-5.1-1.2-7.7c-0.1,0-0.2,0-0.2,0c-0.3,1.3-0.6,2.6-0.9,4c-0.1,0-0.1,0-0.2,0
		c-0.4-2.6-0.9-5.1-1.3-7.7c-0.1,0-0.1,0-0.2,0c-0.3,1.3-0.6,2.7-0.9,4c-0.1,0-0.1,0-0.2,0c-0.4-2.6-0.8-5.2-1.3-7.8
		c-0.1,0-0.1,0-0.2,0.1c-0.3,1.3-0.6,2.7-0.9,4.1c-0.1,0-0.1,0-0.2,0c-0.4-2.6-0.9-5.2-1.3-7.8c-0.1,0-0.1,0-0.2,0
		c-0.3,1.4-0.6,2.8-0.8,4.2c-0.1,0-0.1,0-0.2-0.1C97,117.1,96.9,115.6,96.7,114z M144.4,208.8c0.1,0,0.1,0,0.2,0
		c0.4,2.8,0.8,5.5,1.3,8.3c0.1,0,0.2,0,0.3,0c0.3-1.5,0.5-3,0.8-4.5c0.1,0,0.1,0,0.2,0c0.5,3.1,0.9,6.2,1.4,9.3c0.1,0,0.2,0,0.3,0
		c0.5-3.1,0.9-6.2,1.4-9.4c0.1,0,0.1,0,0.2,0c0.3,1.5,0.6,3,0.8,4.5c0.1,0,0.1,0,0.2,0c0.4-2.7,0.9-5.4,1.3-8.2c0,0,0.1,0,0.1,0
		c0.3,1.5,0.6,2.9,0.9,4.4c0.1,0,0.2,0,0.3,0c0.4-2.7,0.8-5.4,1.2-8.1c0.1,0,0.1,0,0.2,0c0.3,1.5,0.5,3,0.8,4.5c0.1,0,0.1,0,0.2,0
		c0.4-2.7,0.9-5.5,1.3-8.2c0.1,0,0.1,0,0.2,0c0.3,1.6,0.6,3.1,0.9,4.7c0.1,0,0.1,0,0.2,0c0.4-2.8,0.8-5.6,1.3-8.3c0.1,0,0.1,0,0.2,0
		c0.3,1.5,0.6,3.1,0.9,4.6c0.1,0,0.1,0,0.2,0c0.4-2.8,0.9-5.6,1.3-8.4c0.1,0,0.1,0,0.2,0c0.3,1.6,0.6,3.1,0.9,5
		c2-6.2,2.9-17.2,1.6-19c-0.2,1.5-0.3,2.9-0.4,4.3c-0.1,0-0.1,0-0.2,0c-0.3-1.4-0.6-2.8-0.9-4.2c-0.1,0-0.1,0-0.2,0
		c-0.4,2.6-0.9,5.3-1.3,7.9c-0.1,0-0.1,0-0.2,0c-0.3-1.4-0.6-2.7-0.9-4.1c-0.1,0-0.1,0-0.2,0c-0.4,2.6-0.9,5.2-1.3,7.8
		c-0.4-1.4-0.7-2.8-1.2-4.4c-0.5,2.9-0.9,5.5-1.4,8.2c-0.1,0-0.1,0-0.2,0c-0.3-1.3-0.6-2.6-0.9-4c-0.1,0-0.1,0-0.2,0
		c-0.4,2.5-0.8,5-1.2,7.5c-0.1,0-0.2,0-0.2,0c-0.3-1.3-0.6-2.5-0.9-3.8c-0.1,0-0.2,0-0.2,0c-0.4,2.6-0.8,5.1-1.3,7.7
		c-0.1,0-0.1,0-0.1,0c-0.3-1.3-0.6-2.7-0.9-4c-0.1,0-0.1,0-0.2,0c-0.4,2.5-0.8,5.1-1.3,7.6c-0.1,0-0.1,0-0.2,0
		c-0.3-3.1-0.6-6.1-0.9-9.2c-0.1,0-0.2,0-0.3,0c-0.3,3.1-0.6,6.1-0.9,9.2c-0.1,0-0.1,0-0.2,0c-0.4-2.6-0.9-5.1-1.3-7.7
		c-0.1,0-0.1,0-0.2,0c-0.3,1.3-0.5,2.6-0.8,4c-0.1,0-0.1,0-0.2,0c-0.4-2.5-0.9-5-1.3-7.5c-0.1,0-0.2,0-0.2,0
		c-0.3,1.3-0.6,2.6-0.8,3.8c-0.1,0-0.1,0-0.2,0c-0.4-2.6-0.9-5.2-1.3-7.8c-0.6,1.3-0.5,2.8-1.2,4.1c-0.5-2.8-0.9-5.3-1.3-7.9
		c-0.1,0-0.1,0-0.2,0c-0.3,1.4-0.6,2.8-0.9,4.1c-0.1,0-0.1,0-0.2,0c-0.4-2.6-0.9-5.2-1.3-7.8c-0.5,1.4-0.7,2.8-1.2,4.4
		c-0.5-2.8-0.9-5.4-1.3-8.1c-0.1,0-0.1,0-0.2,0c-0.3,1.3-0.6,2.6-0.8,3.9c-0.5-1.4-0.6-2.8-0.7-4.3c-1.4,2.6-0.1,16.8,1.6,19.1
		c0.3-1.6,0.6-3.2,0.9-4.8c0.1,0,0.1,0,0.2,0c0.4,2.8,0.9,5.6,1.3,8.4c0.1,0,0.1,0,0.2,0c0.3-1.6,0.5-3.1,0.8-4.7c0.1,0,0.2,0,0.2,0
		c0.4,2.7,0.8,5.4,1.2,8.1c0.1,0,0.2,0,0.3,0c0.3-1.5,0.6-2.9,0.9-4.4c0.1,0,0.1,0,0.2,0c0.4,2.8,0.9,5.5,1.3,8.3
		c0.6-1.4,0.6-3,1.2-4.7c0.5,3,0.9,5.8,1.3,8.5c0.1,0,0.1,0,0.2,0C143.9,211.8,144.1,210.3,144.4,208.8z M75,202.8
		c-0.1,0-0.1,0-0.2,0c-0.4-2.6-0.8-5.2-1.3-7.8c-0.1,0-0.2,0-0.3,0c-0.3,1.4-0.5,2.7-0.8,4c-0.1,0-0.2,0-0.2,0
		c-0.4-2.6-0.8-5.1-1.2-7.6c-0.1,0-0.2,0-0.3,0c-0.3,1.3-0.6,2.5-0.8,3.8c-0.1,0-0.1,0-0.2,0c-0.4-2.5-0.8-5.1-1.2-7.6
		c-0.1,0-0.2,0-0.2,0c-0.3,1.3-0.6,2.7-0.8,4c-0.1,0-0.1,0-0.2,0c-0.4-2.6-0.9-5.2-1.3-7.7c-0.1,0-0.1,0-0.2,0
		c-0.3,1.4-0.6,2.7-0.8,4.1c-0.1,0-0.1,0-0.2,0c-0.4-2.6-0.8-5.3-1.3-8.2c-0.7,1.6-0.5,3.1-1.2,4.7c-0.2-1.7-0.3-3.1-0.5-4.4
		c-0.1,0-0.2,0-0.3,0c-0.9,6.4,0.1,12.6,1.9,18.9c0.3-1.8,0.7-3.4,1-5c0.1,0,0.1,0,0.2,0.1c0.4,2.8,0.9,5.6,1.3,8.4
		c0.1,0,0.1,0,0.2,0c0.3-1.6,0.6-3.2,0.9-4.8c0.1,0,0.1,0,0.2,0c0.4,2.8,0.9,5.6,1.3,8.4c0.1,0,0.2,0,0.2,0c0.3-1.6,0.6-3.1,0.9-4.6
		c0.1,0,0.1,0,0.1,0c0.4,2.7,0.8,5.5,1.3,8.2c0.1,0,0.1,0,0.2,0c0.3-1.5,0.6-2.9,0.9-4.4c0.1,0,0.1,0,0.2,0c0.4,2.7,0.8,5.4,1.3,8.1
		c0.1,0,0.2,0,0.2,0c0.3-1.5,0.6-3,0.9-4.4c0.1,0,0.1,0,0.2,0c0.4,2.8,0.8,5.6,1.3,8.4c0.1,0,0.1,0,0.2,0c0.3-1.6,0.6-3.1,0.9-4.7
		c0.1,0,0.1,0,0.2,0c0.5,3.1,0.9,6.3,1.4,9.5c0.1,0,0.2,0,0.2,0c0.5-3.1,1-6.3,1.4-9.4c0.1,0,0.1,0,0.2,0c0.3,1.5,0.6,3,0.8,4.4
		c0.1,0,0.1,0,0.2,0c0.4-2.7,0.8-5.4,1.2-8.2c0.1,0,0.1,0,0.2,0c0.3,1.5,0.6,3,0.9,4.4c0.1,0,0.1,0,0.2,0c0.4-2.7,0.8-5.5,1.3-8.2
		c0.1,0,0.1,0,0.2,0c0.3,1.5,0.6,3,0.8,4.5c0.1,0,0.2,0,0.2,0c0.4-2.8,0.8-5.5,1.3-8.3c0.1,0,0.1,0,0.2,0c0.3,1.5,0.6,3,0.8,4.6
		c0.1,0,0.1,0,0.2,0c0.4-2.8,0.9-5.6,1.3-8.4c0.1,0,0.1,0,0.2,0c0.3,1.6,0.6,3.2,0.9,4.8c0.1,0,0.1,0,0.2,0c0.4-2.8,0.9-5.6,1.3-8.5
		c0.1,0,0.1,0,0.2,0c0.3,1.6,0.6,3.1,0.9,5c2.1-5.9,3-17,1.7-18.9c-0.5,1.3-0.2,2.8-0.7,4.3c-0.3-1.6-0.6-2.9-0.9-4.3
		c-0.1,0-0.1,0-0.2,0c-0.4,2.7-0.9,5.3-1.3,8c-0.5-1.4-0.6-2.8-1.2-4.4c-0.5,2.8-0.9,5.4-1.3,8c-0.1,0-0.1,0-0.2,0
		c-0.3-1.4-0.6-2.7-0.8-4.1c-0.1,0-0.1,0-0.2,0c-0.4,2.6-0.8,5.2-1.3,7.8c-0.1,0-0.1,0-0.2,0c-0.3-1.3-0.6-2.7-0.9-4
		c-0.1,0-0.1,0-0.2,0c-0.4,2.6-0.9,5.1-1.3,7.8c-0.6-1.4-0.5-2.9-1.2-4.3c-0.4,2.8-0.9,5.4-1.3,7.9c-0.1,0-0.1,0-0.2,0
		c-0.3-1.3-0.6-2.7-0.9-4c-0.1,0-0.1,0-0.2,0c-0.4,2.6-0.8,5.1-1.3,7.7c-0.1,0-0.1,0-0.2,0c-0.3-3.1-0.7-6.1-1-9.1
		c-0.1,0-0.2,0-0.2,0c-0.3,3-0.6,6-0.9,9c-0.1,0-0.2,0-0.3,0c-0.4-2.6-0.8-5.1-1.2-7.6c-0.1,0-0.1,0-0.2,0
		C75.6,200,75.3,201.4,75,202.8z M123.8,63.6c0.1,0,0.2,0,0.2,0c0.4-2.8,0.8-5.5,1.3-8.3c0.5,1.6,0.7,3.3,1.2,5.1
		c0.5-3.1,0.9-5.9,1.4-9.1c0.4,2,0.7,3.6,1,5.2c0.9-3.1,1.9-6.2,2.1-9.3s0.5-6.4-0.4-9.5c-0.1,1.5-0.4,3-0.7,4.5
		c-0.3-1.4-0.6-2.8-1.1-4.5c-0.5,2.8-0.9,5.4-1.3,8c-0.1,0-0.1,0-0.2,0c-0.3-1.3-0.6-2.7-0.9-4c-0.1,0-0.1,0-0.2,0
		c-0.4,2.5-0.8,5.1-1.2,7.6c-0.1,0-0.2,0-0.3,0c-0.3-1.3-0.6-2.6-0.9-3.9c-0.1,0-0.1,0-0.2,0c-0.4,2.6-0.8,5.1-1.3,7.7
		c-0.1,0-0.1,0-0.2,0c-0.3-1.3-0.6-2.7-0.8-4c-0.1,0-0.1,0-0.2,0c-0.4,2.6-0.9,5.2-1.3,7.8c-0.1,0-0.1,0-0.2,0
		c-0.3-1.3-0.6-2.6-0.9-3.9c-0.1,0-0.2,0-0.2,0c-0.4,2.5-0.9,5.1-1.3,7.7c-0.1,0-0.1,0-0.2,0c-0.3-1.3-0.5-2.7-0.8-4
		c-0.8,2.6-0.9,5.2-1.7,8c-0.3-3.4-0.7-6.4-1-9.5c-0.1,0-0.2,0-0.3,0c-0.3,3-0.6,6-0.9,9c-0.1,0-0.2,0-0.2,0c-0.4-2.5-0.8-5-1.3-7.9
		c-0.6,1.6-0.5,3-1.2,4.4c-0.5-2.7-0.9-5.2-1.3-7.7c-0.6,1.2-0.6,2.6-1.3,4c-0.4-2.8-0.9-5.3-1.3-7.9c-0.1,0-0.1,0-0.2,0
		c-0.3,1.3-0.6,2.7-0.9,4c-0.1,0-0.1,0-0.2,0c-0.4-2.5-0.8-5-1.3-7.6c-0.1,0-0.2,0-0.3,0c-0.3,1.3-0.5,2.5-0.8,3.8
		c-0.1,0-0.2,0-0.2,0c-0.4-2.5-0.8-5.1-1.3-7.6c-0.1,0-0.1,0-0.2,0c-0.3,1.3-0.6,2.6-0.9,3.9c-0.1,0-0.1,0-0.2,0
		c-0.4-2.6-0.9-5.2-1.3-7.7c-0.1,0-0.1,0-0.2,0c-0.3,1.4-0.6,2.8-0.9,4.2c-0.1,0-0.1,0-0.2,0c-0.1-1.5-0.3-2.9-0.4-4.6
		c-1.3,2.5-0.3,14.5,1.6,19.1c0.3-1.8,0.7-3.4,1-5c0,0,0.1,0,0.1,0c0.4,2.9,0.9,5.8,1.3,8.6c0.1,0,0.1,0,0.2,0
		c0.3-1.6,0.6-3.2,0.8-4.8c0.1,0,0.1,0,0.2,0c0.4,2.8,0.8,5.5,1.3,8.3c0.1,0,0.2,0,0.3,0c0.3-1.5,0.6-3,0.9-4.4c0.1,0,0.1,0,0.2,0
		c0.4,2.7,0.8,5.4,1.3,8.2c0.1,0,0.1,0,0.2,0c0.3-1.5,0.6-3,0.9-4.5c0.1,0,0.1,0,0.2,0c0.4,2.7,0.8,5.4,1.2,8.1c0.1,0,0.2,0,0.3,0
		c0.3-1.5,0.6-3,0.9-4.5c0.1,0,0.1,0,0.2,0c0.4,2.7,0.8,5.5,1.3,8.2c0.1,0,0.1,0,0.2,0c0.3-1.5,0.6-3,0.8-4.5c0.1,0,0.1,0,0.2,0
		c0.5,3.1,0.9,6.2,1.4,9.3c0.1,0,0.2,0,0.3,0c0.5-3.1,0.9-6.2,1.4-9.6c0.6,1.8,0.6,3.3,1.1,4.8c0.7-2.8,0.8-5.6,1.5-8.5
		c0.3,1.7,0.6,3.2,0.9,4.6c0.1,0,0.2,0,0.2,0c0.4-2.7,0.8-5.4,1.3-8c0.1,0,0.2,0,0.3,0c0.3,1.5,0.5,3,0.8,4.5c0.1,0,0.2,0,0.2,0
		c0.4-2.8,0.9-5.5,1.3-8.2c0.1,0,0.1,0,0.2,0C123.2,60.7,123.5,62.2,123.8,63.6z M116.2,266.3c0.1,0,0.2,0,0.2,0
		c0.4-2.8,0.8-5.5,1.3-8.3c0.1,0,0.1,0,0.2,0c0.3,1.5,0.6,2.9,0.8,4.4c0.1,0,0.2,0,0.2,0c0.4-2.7,0.8-5.4,1.3-8.1c0.1,0,0.2,0,0.2,0
		c0.3,1.5,0.5,3,0.8,4.5c0.1,0,0.2,0,0.2,0c0.4-2.8,0.8-5.5,1.3-8.3c0.1,0,0.1,0,0.2,0c0.3,1.4,0.6,2.9,0.8,4.4c0.1,0,0.2,0,0.2,0
		c0.4-2.8,0.8-5.5,1.3-8.3c0.5,1.6,0.7,3.3,1.2,5.1c0.5-3.1,0.9-5.9,1.4-9.1c0.4,2,0.7,3.6,1,5.3c0.9-3.1,1.9-6.2,2.1-9.4
		s0.5-6.4-0.4-9.5c-0.2,1.4-0.3,2.8-0.8,4.4c-0.4-1.6-0.6-2.9-0.9-4.2c-0.1,0-0.1,0-0.2,0c-0.4,2.6-0.9,5.1-1.3,7.8
		c-0.7-1.4-0.5-2.9-1.2-4.3c-0.5,2.8-0.9,5.3-1.3,7.8c-0.7-1.3-0.6-2.7-1.2-4.1c-0.5,2.7-0.9,5.3-1.3,7.9c-0.1,0-0.1,0-0.2,0
		c-0.3-1.3-0.6-2.7-0.8-4c-0.1,0-0.1,0-0.2,0c-0.4,2.6-0.9,5.2-1.3,7.8c-0.1,0-0.1,0-0.2,0c-0.3-1.3-0.6-2.6-0.8-3.9
		c-0.1,0-0.2,0-0.2,0c-0.4,2.5-0.9,5.1-1.3,7.6c-0.6-1.3-0.6-2.8-1.2-4.3c-0.6,2.8-0.7,5.4-1.5,7.8c-0.3-3-0.6-6-0.9-9
		c-0.1,0-0.2,0-0.3,0c-0.3,3.1-0.6,6.2-0.9,9.2c-0.1,0-0.1,0-0.2,0c-0.4-2.6-0.8-5.2-1.3-7.8c-0.1,0-0.1,0-0.2,0
		c-0.3,1.3-0.6,2.7-0.9,4c-0.1,0-0.1,0-0.2,0c-0.4-2.5-0.9-5-1.3-7.5c-0.1,0-0.2,0-0.3,0c-0.3,1.3-0.5,2.6-0.8,3.9
		c-0.1,0-0.1,0-0.2,0c-0.4-2.6-0.8-5.2-1.3-7.9c-0.1,0-0.1,0-0.2,0c-0.3,1.3-0.6,2.7-0.8,4c-0.1,0-0.1,0-0.2,0
		c-0.4-2.6-0.9-5.1-1.4-8.1c-0.4,1.7-0.7,3-1,4.4c-0.1,0-0.1,0-0.2,0c-0.4-2.6-0.8-5.2-1.3-7.8c-0.1,0-0.1,0-0.2,0.1
		c-0.3,1.4-0.6,2.7-0.8,4.1c-0.1,0-0.1,0-0.2,0c-0.4-2.6-0.9-5.2-1.3-7.7c-0.1,0-0.1,0-0.2,0c-0.3,1.4-0.6,2.8-0.9,4.2
		c-0.1,0-0.1,0-0.2,0c-0.2-1.5-0.3-3-0.5-4.8c-1.3,3.5-0.1,15.9,1.8,19.5c0.1-1.8,0.4-3.4,1-4.9c0.4,2.7,0.8,5.5,1.3,8.2
		c0.1,0,0.1,0,0.2,0c0.3-1.5,0.6-3.1,0.9-4.6c0.1,0,0.1,0,0.2,0c0.4,2.8,0.8,5.5,1.3,8.3c0.1,0,0.2,0,0.2,0c0.3-1.5,0.6-3,0.9-4.5
		c0.1,0,0.1,0,0.2,0c0.4,2.7,0.9,5.5,1.3,8.2c0.1,0,0.1,0,0.2,0c0.3-1.5,0.6-3,0.9-4.5c0.1,0,0.1,0,0.2,0c0.4,2.7,0.8,5.4,1.2,8.1
		c0.1,0,0.2,0,0.2,0c0.3-1.5,0.6-3,0.9-4.5c0.1,0,0.1,0,0.1,0c0.4,2.7,0.9,5.5,1.3,8.2c0.1,0,0.1,0,0.2,0c0.3-1.5,0.6-3,0.8-4.5
		c0.1,0,0.2,0,0.2,0c0.5,3.1,0.9,6.2,1.4,9.3c0.1,0,0.2,0,0.3,0c0.5-3.1,0.9-6.2,1.4-9.3c0.1,0,0.2,0,0.3,0
		C115.7,263.3,115.9,264.8,116.2,266.3z M155.3,166.8c0.1,0,0.1,0,0.2,0c0.3,1.5,0.6,3.1,0.9,4.6c0.1,0,0.1,0,0.2,0
		c0.4-2.7,0.9-5.5,1.3-8.2c0,0,0.1,0,0.1,0c0.3,1.5,0.6,3,0.9,4.5c0.1,0,0.1,0,0.2,0c0.4-2.8,0.9-5.5,1.3-8.3c0.1,0,0.1,0,0.2,0.1
		c0.3,1.6,0.6,3.2,1,5.1c0.5-3.2,0.9-6.1,1.4-9.1c0.6,1.7,0.5,3.4,1.2,5.2c0.7-3.4,1.6-6.4,2-9.6c0.5-5,0.2-8.5-0.6-9.5
		c-0.1,1.5-0.3,3-0.4,4.5c-0.6-1.4-0.7-2.8-1.2-4.5c-0.5,2.9-0.8,5.5-1.5,8.4c-0.4-1.7-0.6-3.1-0.9-4.4c-0.1,0-0.1,0-0.2,0
		c-0.4,2.6-0.9,5.2-1.3,7.8c-0.1,0-0.1,0-0.2,0c-0.3-1.3-0.6-2.7-0.9-4c-0.1,0-0.1,0-0.2,0c-0.4,2.6-0.9,5.1-1.3,7.7
		c-0.1,0-0.2,0-0.2,0c-0.3-1.3-0.5-2.6-0.8-3.9c-0.1,0-0.2,0-0.2,0c-0.4,2.6-0.8,5.1-1.3,7.7c-0.1,0-0.1,0-0.2,0
		c-0.3-1.3-0.6-2.7-0.9-4c-0.1,0-0.1,0-0.2,0c-0.4,2.6-0.9,5.1-1.3,7.7c-0.1,0-0.1,0-0.2,0c-0.3-1.3-0.6-2.7-0.9-4
		c-0.1,0-0.1,0-0.2,0c-0.4,2.5-0.8,5.1-1.2,7.6c-0.1,0-0.1,0-0.2,0c-0.3-3-0.6-6-0.9-9c-0.1,0-0.2,0-0.3,0c-0.3,3.1-0.6,6.1-0.9,9.2
		c-0.1,0-0.1,0-0.1,0c-0.4-2.6-0.9-5.2-1.3-7.8c-0.1,0-0.1,0-0.2,0c-0.3,1.3-0.5,2.7-0.8,4c-0.1,0-0.1,0-0.2,0
		c-0.4-2.5-0.8-5.1-1.3-7.6c-0.1,0-0.1,0-0.2,0c-0.3,1.3-0.6,2.6-0.9,4.3c-0.5-2.9-0.9-5.6-1.4-8.2c-0.5,1.4-0.6,2.7-1.2,4.3
		c-0.5-2.9-0.9-5.4-1.3-8c-0.1,0-0.1,0-0.2,0c-0.3,1.3-0.6,2.6-0.8,3.8c-0.1,0-0.2,0-0.3,0c-0.4-2.6-0.8-5.2-1.2-7.8
		c-0.6,1.4-0.6,2.8-1.2,4.3c-0.5-2.7-0.9-5.3-1.3-7.9c-0.1,0-0.1,0-0.2,0c-0.3,1.4-0.6,2.8-0.9,4.2c-0.1,0-0.1,0-0.2,0
		c-0.1-1.5-0.3-3-0.4-4.4c-1.4,6.5-0.1,12.7,1.6,19.2c0.4-1.9,0.7-3.6,1-5.2c0,0,0.1,0,0.1,0c0.4,2.8,0.9,5.6,1.3,8.4
		c0.1,0,0.2,0,0.2,0c0.3-1.6,0.5-3.1,0.8-4.7c0.1,0,0.1,0,0.2,0c0.4,2.8,0.8,5.6,1.3,8.3c0.1,0,0.2,0,0.2,0c0.3-1.4,0.6-2.9,0.9-4.4
		c0.1,0,0.1,0,0.2,0c0.4,2.7,0.9,5.5,1.3,8.2c0.6-1.4,0.6-3,1.2-4.8c0.5,3,0.9,5.7,1.3,8.4c0.1,0,0.2,0,0.2,0
		c0.3-1.4,0.6-2.9,0.8-4.4c0.1,0,0.1,0,0.2,0c0.4,2.8,0.9,5.5,1.3,8.3c0.5-1.5,0.6-3.1,1.2-4.8c0.5,3.5,1,6.6,1.4,9.6
		c0.1,0,0.2,0,0.3,0c0.5-3.1,0.9-6.2,1.4-9.4c0.1,0,0.1,0,0.2,0c0.3,1.5,0.6,3,0.8,4.5c0.1,0,0.1,0,0.2,0c0.4-2.7,0.9-5.5,1.3-8.2
		c0.1,0,0.1,0,0.2,0c0.3,1.5,0.6,3,0.9,4.5c0.1,0,0.1,0,0.2,0C154.4,172.3,154.9,169.5,155.3,166.8z M116.3,171.3
		c-0.1,0-0.2,0-0.2,0c-0.4,2.6-0.8,5.2-1.3,7.7c-0.1,0-0.1,0-0.2,0c-0.3-3.1-0.6-6.1-0.9-9.2c-0.1,0-0.2,0-0.3,0
		c-0.3,3.1-0.6,6.1-0.9,9.2c-0.1,0-0.1,0-0.2,0c-0.4-2.5-0.8-5.1-1.2-7.6c-0.1,0-0.2,0-0.2,0c-0.3,1.3-0.6,2.6-1,4.3
		c-0.5-2.9-0.9-5.5-1.3-8.1c-0.1,0-0.2,0-0.3,0c-0.3,1.3-0.5,2.6-0.8,3.9c-0.1,0-0.1,0-0.2,0c-0.4-2.6-0.8-5.2-1.3-7.8
		c-0.1,0-0.1,0-0.2,0c-0.3,1.3-0.6,2.7-0.8,4c-0.1,0-0.1,0-0.2,0c-0.4-2.6-0.9-5.1-1.3-7.7c-0.1,0-0.1,0-0.2,0
		c-0.3,1.4-0.6,2.8-0.9,4.2c-0.1,0-0.1,0-0.2,0c-0.4-2.6-0.8-5.2-1.3-7.8c-0.1,0-0.1,0-0.2,0c-0.3,1.3-0.6,2.6-0.8,3.9
		c-0.1,0-0.1,0-0.2,0c-0.4-2.6-0.9-5.2-1.3-7.7c-0.1,0-0.1,0-0.2,0c-0.3,1.4-0.6,2.8-0.9,4.2c-0.3-1.4-0.4-2.9-0.8-4.5
		c-1.1,3.8-0.1,14.8,1.8,19c0.3-1.6,0.6-3.2,0.9-4.7c0.1,0,0.1,0,0.2,0c0.4,2.8,0.9,5.6,1.3,8.4c0.1,0,0.1,0,0.2,0
		c0.3-1.5,0.6-3.1,0.9-4.6c0.1,0,0.1,0,0.2,0c0.4,2.8,0.8,5.6,1.3,8.3c0.1,0,0.1,0,0.2,0c0.3-1.6,0.6-3.1,0.8-4.7c0.1,0,0.1,0,0.2,0
		c0.4,2.7,0.8,5.5,1.3,8.2c0.1,0,0.1,0,0.2,0c0.3-1.5,0.6-3,0.9-4.4c0.1,0,0.1,0,0.2,0c0.4,2.7,0.8,5.4,1.2,8.1c0.1,0,0.2,0,0.3,0
		c0.3-1.5,0.6-2.9,0.9-4.4c0.1,0,0.1,0,0.2,0c0.4,2.7,0.8,5.4,1.3,8.2c0.1,0,0.2,0,0.2,0c0.3-1.5,0.6-3,0.8-4.5c0.1,0,0.1,0,0.2,0
		c0.5,3.1,0.9,6.2,1.4,9.3c0.1,0,0.2,0,0.3,0c0.5-3.1,0.9-6.2,1.4-9.6c0.7,1.7,0.6,3.3,1.2,4.7c0.4-2.8,0.9-5.5,1.3-8.3
		c0.1,0,0.1,0,0.2,0c0.3,1.5,0.6,3,0.9,4.6c0.1,0,0.1,0,0.2,0c0.4-2.8,0.8-5.5,1.3-8.3c0.6,1.5,0.6,3,1.2,4.8
		c0.5-3.1,0.9-5.8,1.4-8.8c0.6,1.7,0.5,3.3,1.2,5.1c0.5-3.1,0.9-5.9,1.3-8.7c0.5,1.6,0.6,3.3,1.2,5c0.5-3,0.9-5.8,1.3-8.6
		c0.1,0,0.1,0,0.2,0c0.3,1.6,0.6,3.1,0.9,4.9c2-5.5,3-17.1,1.5-19.2c0,1.6-0.2,2.9-0.6,4.3c-0.3-1.3-0.5-2.6-0.8-3.9
		c-0.1,0-0.1,0-0.2,0c-0.4,2.6-0.9,5.3-1.3,8c-0.6-1.5-0.6-3-1.2-4.7c-0.5,2.9-0.8,5.6-1.4,8.4c-0.3-1.7-0.6-3.1-0.9-4.4
		c-0.1,0-0.1,0-0.2,0c-0.4,2.6-0.8,5.2-1.3,7.9c-0.8-1.4-0.6-2.9-1.2-4.5c-0.5,2.9-0.9,5.5-1.3,8.1c-0.6-1.3-0.6-2.7-1.1-4.1
		c-0.8,2.6-0.7,5.1-1.7,7.5C116.9,173.8,116.6,172.6,116.3,171.3z M72.5,160.7c-0.1,0-0.1,0-0.2,0c-0.4-2.6-0.9-5.1-1.3-7.7
		c-0.1,0-0.1,0-0.2,0c-0.3,1.3-0.6,2.6-0.8,3.9c-0.1,0-0.1,0-0.2,0c-0.4-2.5-0.9-5-1.3-7.6c-0.1,0-0.2,0-0.3,0
		c-0.3,1.3-0.5,2.5-0.8,3.8c-0.1,0-0.2,0-0.2,0c-0.4-2.6-0.9-5.2-1.3-8.1c-0.4,1.7-0.7,3.1-1,4.4c-0.1,0-0.1,0-0.2,0
		c-0.4-2.6-0.8-5.2-1.3-7.8c-0.1,0-0.2,0-0.2,0c-0.3,1.4-0.5,2.8-0.9,4.6c-0.5-1.8-0.3-3.3-0.8-4.9c-1.1,3.9,0.1,16,1.8,19
		c0.3-1.6,0.6-3.2,0.9-4.7c0.1,0,0.1,0,0.2,0c0.4,2.8,0.8,5.5,1.3,8.2c0.1,0,0.1,0,0.2,0c0.3-1.5,0.6-3,0.9-4.6c0.1,0,0.1,0,0.2,0
		c0.4,2.8,0.9,5.6,1.3,8.4c0.6-1.5,0.6-3.1,1.2-4.9c0.5,3.1,0.9,5.8,1.3,8.5c0.1,0,0.1,0,0.2,0c0.3-1.4,0.6-2.9,0.9-4.6
		c0.8,2.9,0.8,5.7,1.7,8.3c0.3-1.5,0.5-3,0.8-4.5c0.1,0,0.1,0,0.2,0c0.4,2.7,0.9,5.4,1.3,8.2c0.1,0,0.1,0,0.2,0
		c0.3-1.5,0.6-2.9,0.9-4.4c0.1,0,0.1,0,0.2,0c0.5,3.1,0.9,6.2,1.4,9.3c0.1,0,0.2,0,0.3,0c0.5-3.1,0.9-6.1,1.4-9.2c0.1,0,0.2,0,0.2,0
		c0.3,1.5,0.6,3,0.8,4.4c0.1,0,0.1,0,0.2,0c0.4-2.8,0.8-5.6,1.3-8.3c0.1,0,0.1,0,0.2,0c0.3,1.5,0.6,3,0.8,4.5c0.1,0,0.2,0,0.3,0
		c0.4-2.7,0.9-5.5,1.3-8.2c0,0,0.1,0,0.1,0c0.3,1.6,0.6,3.1,0.9,4.6c0.1,0,0.1,0,0.2-0.1c0.4-2.8,0.8-5.5,1.2-8.2c0.1,0,0.1,0,0.2,0
		c0.3,1.6,0.6,3.1,0.9,4.6c0.1,0,0.1,0,0.2,0c0.4-2.8,0.9-5.6,1.3-8.4c0.1,0,0.1,0,0.2,0c0.3,1.6,0.6,3.3,0.9,4.9
		c0.1,0,0.1,0,0.1-0.1c0.4-2.9,0.9-5.8,1.3-8.7c0,0,0.1,0,0.1,0c0.3,1.6,0.6,3.2,0.9,4.9c0.5-1.2,0.7-2.5,1-3.7c0.4-2,1-3.9,1.2-5.9
		c0.2-2.4,0.1-4.9,0-7.3c0-0.6-0.1-1.3-0.6-1.8c-0.4,1.4-0.2,3-0.7,4.5c-0.3-1.6-0.6-2.9-0.9-4.3c-0.1,0-0.1,0-0.2,0
		c-0.4,2.6-0.9,5.2-1.3,7.8c-0.1,0-0.1,0-0.2,0c-0.3-1.4-0.6-2.8-0.9-4.2c-0.1,0-0.1,0-0.2,0c-0.4,2.6-0.9,5.3-1.3,8
		c-0.1,0-0.1,0-0.2,0c-0.3-1.4-0.6-2.8-0.9-4.1c-0.1,0-0.2,0-0.2,0c-0.4,2.6-0.8,5.2-1.3,7.8c-0.1,0-0.1,0-0.2,0
		c-0.3-1.3-0.6-2.7-0.8-4c-0.1,0-0.1,0-0.2,0c-0.4,2.6-0.9,5.1-1.3,8c-0.5-1.6-0.5-3-1.2-4.5c-0.5,2.9-0.9,5.4-1.3,8
		c-0.1,0-0.1,0-0.2,0c-0.3-1.3-0.6-2.6-0.9-4c-0.1,0-0.1,0-0.2,0c-0.4,2.5-0.8,5-1.2,7.5c-0.1,0-0.1,0-0.2,0c-0.3-3-0.6-6-0.9-8.9
		c-0.1,0-0.2,0-0.3,0c-0.3,3-0.6,6-0.9,9c-0.1,0-0.2,0-0.2,0c-0.4-2.6-0.8-5.1-1.2-7.7c-0.1,0-0.1,0-0.2,0c-0.3,1.3-0.6,2.6-0.9,4
		c-0.1,0-0.1,0-0.2,0c-0.4-2.5-0.9-5-1.3-7.5c-0.1,0-0.2,0-0.3,0C73,158.1,72.8,159.4,72.5,160.7z M138.6,110.9c-0.1,0-0.1,0-0.1,0
		c-0.3,1.4-0.6,2.8-0.9,4.2c-0.1,0-0.2,0-0.2,0c-0.4-2.6-0.8-5.2-1.3-7.8c-0.6,1.4-0.6,2.9-1.2,4.4c-0.5-2.8-0.9-5.5-1.3-8.1
		c-0.1,0-0.1,0-0.1,0c-0.3,1.3-0.6,2.7-0.9,4c-0.1,0-0.2,0-0.3,0c-0.1-1.3-0.3-2.7-0.5-4.1c-1.4,2.2-0.3,14.8,1.6,19
		c0.3-1.7,0.6-3.4,0.9-5c0.1,0,0.1,0,0.2,0c0.4,2.8,0.9,5.6,1.3,8.7c0.7-1.8,0.5-3.5,1.2-5.3c0.5,3.1,0.9,5.8,1.3,8.6
		c0.1,0,0.1,0,0.2,0c0.3-1.5,0.6-3.1,0.9-4.6c0.1,0,0.1,0,0.1,0c0.4,2.8,0.9,5.5,1.3,8.3c0.5-1.5,0.7-3,1.2-4.8
		c0.5,3.1,0.8,5.8,1.5,8.5c0.3-1.4,0.6-2.9,0.8-4.3c0.1,0,0.2,0,0.2,0c0.4,2.7,0.8,5.4,1.3,8.1c0.6-1.5,0.6-3,1.2-4.7
		c0.5,3.4,1,6.6,1.4,9.7c0.1,0,0.1,0,0.2,0c0.5-3.1,1-6.2,1.4-9.3c0.1,0,0.1,0,0.2,0c0.3,1.4,0.6,2.8,0.8,4.2c0.1,0,0.1,0,0.2,0
		c0.4-2.7,0.8-5.3,1.2-8c0.1,0,0.1,0,0.2,0c0.3,1.5,0.6,3,0.9,4.5c0.1,0,0.1,0,0.2,0c0.4-2.8,0.8-5.5,1.3-8.3c0.1,0,0.1,0,0.2,0
		c0.3,1.5,0.5,2.9,0.8,4.4c0.1,0,0.2,0,0.2,0c0.4-2.7,0.9-5.4,1.3-8.2c0.1,0,0.1,0,0.2,0c0.3,1.6,0.6,3.1,0.8,4.7c0.1,0,0.1,0,0.2,0
		c0.4-2.8,0.9-5.5,1.3-8.3c0.1,0,0.1,0,0.2,0c0.3,1.5,0.6,3,0.9,4.6c0.1,0,0.1,0,0.2,0c0.4-2.8,0.9-5.6,1.3-8.4c0.1,0,0.1,0,0.1,0
		c0.3,1.6,0.6,3.1,0.9,4.7c1.8-6.2,2.9-12.3,1.9-18.6c-0.1,0-0.2,0-0.3,0c-0.1,1.4-0.3,2.8-0.4,4.2c-0.1,0-0.1,0-0.2,0
		c-0.3-1.4-0.6-2.8-0.9-4.2c-0.1,0-0.1,0-0.2,0c-0.4,2.7-0.9,5.3-1.3,8c-0.1,0-0.1,0-0.2,0c-0.3-1.4-0.6-2.8-0.9-4.1
		c-0.1,0-0.1,0-0.2,0c-0.4,2.6-0.9,5.2-1.3,7.8c-0.1,0-0.1,0-0.2,0c-0.3-1.4-0.6-2.8-0.9-4.2c-0.1,0-0.1,0-0.1,0
		c-0.4,2.7-0.9,5.3-1.3,8c-0.1,0-0.1,0-0.1,0c-0.3-1.3-0.6-2.7-0.9-4c-0.1,0-0.1,0-0.2,0c-0.4,2.6-0.8,5.1-1.2,7.6
		c-0.1,0-0.1,0-0.2,0c-0.3-1.3-0.6-2.7-0.9-4c-0.1,0-0.1,0-0.2,0c-0.4,2.6-0.9,5.1-1.3,7.7c-0.1,0-0.1,0-0.2,0
		c-0.3-1.3-0.6-2.7-0.9-4c-0.1,0-0.1,0-0.2,0c-0.4,2.5-0.8,5.1-1.3,7.6c-0.1,0-0.1,0-0.2-0.1c-0.3-3-0.6-6-0.9-9c-0.1,0-0.2,0-0.3,0
		c-0.3,3-0.6,6-0.9,9c-0.1,0-0.1,0-0.2,0c-0.4-2.6-0.9-5.1-1.3-7.7c-0.6,1.3-0.5,2.7-1.2,4.2c-0.5-2.8-0.9-5.3-1.3-7.8
		c-0.1,0-0.1,0-0.2,0c-0.3,1.3-0.6,2.5-0.8,3.8c-0.1,0-0.1,0-0.2,0c-0.4-2.5-0.8-5-1.2-7.5c-0.7,1.2-0.6,2.6-1.2,4
		C139.4,116,139,113.4,138.6,110.9z M61.5,218.2c-0.9,6.4-0.1,12.6,1.8,18.9c0.3-1.8,0.6-3.4,0.9-5.1c0.1,0,0.1,0,0.2,0.1
		c0.4,2.8,0.8,5.6,1.3,8.4c0.1,0,0.2,0,0.2,0c0.3-1.5,0.6-3,0.8-4.6c0.1,0,0.1,0,0.2,0c0.4,2.8,0.8,5.6,1.3,8.3c0.1,0,0.2,0,0.2,0
		c0.3-1.5,0.6-3,0.8-4.4c0.1,0,0.1,0,0.2,0.1c0.4,2.7,0.8,5.4,1.3,8.1c0.1,0,0.1,0,0.2,0c0.3-1.5,0.6-3,0.9-4.4c0.1,0,0.2,0,0.2,0
		c0.4,2.7,0.8,5.4,1.2,8.1c0.1,0,0.2,0,0.3,0c0.3-1.5,0.5-3,0.8-4.5c0.1,0,0.1,0,0.2,0c0.4,2.7,0.8,5.5,1.3,8.2c0.1,0,0.1,0,0.2,0
		c0.3-1.5,0.6-2.9,0.9-4.4c0.1,0,0.1,0,0.2,0c0.5,3.1,0.9,6.2,1.4,9.2c0.1,0,0.2,0,0.2,0c0.5-3.1,1-6.3,1.5-9.4c0.1,0,0.1,0,0.2,0
		c0.3,1.5,0.6,3,0.8,4.4c0.1,0,0.2,0,0.2,0c0.4-2.7,0.8-5.4,1.2-8.1c0.1,0,0.1,0,0.2,0c0.3,1.5,0.6,3,0.9,4.4c0.1,0,0.1,0,0.2,0
		c0.4-2.7,0.8-5.5,1.3-8.2c0.1,0,0.1,0,0.2,0c0.3,1.5,0.6,3,0.9,4.5c0.1,0,0.2,0,0.2,0c0.4-2.8,0.8-5.5,1.3-8.3
		c0.3,1.7,0.9,3.2,1.3,4.8c0.4-2.8,0.8-5.6,1.3-8.4c0.1,0,0.1,0,0.2,0c0.3,1.6,0.6,3.1,0.9,4.7c0.1,0,0.1,0,0.2,0
		c0.4-2.8,0.9-5.6,1.3-8.4c0.1,0,0.1,0,0.2,0c0.3,1.6,0.6,3.2,0.9,5c2-4.5,3.1-17.2,1.7-18.9c-0.3,1.4-0.2,2.9-0.7,4.5
		c-0.3-1.6-0.6-2.9-0.9-4.3c-0.1,0-0.1,0-0.2,0c-0.4,2.6-0.8,5.2-1.3,7.8c-0.1,0-0.1,0-0.2,0c-0.3-1.4-0.6-2.8-0.9-4.1
		c-0.1,0-0.1,0-0.2,0.1c-0.4,2.6-0.9,5.1-1.3,7.7c-0.1,0-0.1,0-0.2,0c-0.3-1.3-0.6-2.6-0.9-3.9c-0.1,0-0.1,0-0.2,0
		c-0.4,2.5-0.8,5.1-1.2,7.6c-0.1,0-0.2,0-0.2,0c-0.3-1.3-0.6-2.5-0.8-3.8c-0.1,0-0.1,0-0.2,0.1c-0.4,2.5-0.8,5-1.3,7.7
		c-0.6-1.4-0.5-2.9-1.2-4.3c-0.4,2.8-0.8,5.2-1.3,7.7c-0.1,0-0.2,0-0.2,0c-0.3-1.3-0.6-2.5-0.9-3.8c-0.1,0-0.1,0-0.2,0
		c-0.4,2.5-0.8,5-1.2,7.5c-0.1,0-0.1,0-0.2,0c-0.3-2.9-0.6-5.9-0.9-8.9c-0.1,0-0.2,0-0.3,0c-0.3,3-0.6,6-0.9,9c-0.1,0-0.2,0-0.3,0
		c-0.4-2.6-0.8-5.1-1.2-7.7c-0.1,0-0.2,0-0.2,0c-0.3,1.3-0.6,2.7-0.9,4c-0.1,0-0.1,0-0.2,0c-0.4-2.6-0.9-5.1-1.3-7.7
		c-0.1,0-0.2,0-0.2,0c-0.3,1.3-0.6,2.6-0.8,4c-0.1,0-0.1,0-0.2,0c-0.4-2.5-0.8-5.1-1.3-7.6c-0.1,0-0.1,0-0.2,0
		c-0.3,1.3-0.6,2.6-0.9,3.9c-0.7-2.5-0.9-5.1-1.6-7.7c-0.7,1.4-0.4,2.8-1.2,4.2c-0.5-2.9-0.9-5.5-1.3-8c-0.1,0-0.1,0-0.2,0
		c-0.3,1.4-0.6,2.8-0.9,4.1c-0.1,0-0.1,0-0.2,0c-0.4-2.7-0.9-5.3-1.3-8c-0.1,0-0.1,0-0.2,0c-0.3,1.5-0.6,2.9-0.9,4.6
		C61.8,221.1,62,219.5,61.5,218.2z M151.2,102.3c0.1,0,0.1,0,0.2,0c0.4-2.7,0.9-5.4,1.4-8.4c0.6,1.7,0.4,3.3,1.2,5
		c0.5-3,0.9-5.7,1.3-8.4c0.1,0,0.1,0,0.2,0c0.3,1.5,0.6,2.9,0.9,4.4c0.1,0,0.1,0,0.2,0c0.4-2.7,0.9-5.5,1.3-8.2c0.1,0,0.1,0,0.2,0
		c0.3,1.6,0.6,3.1,0.9,4.7c0.1,0,0.1,0,0.2-0.1c0.4-2.8,0.9-5.7,1.3-8.5c0.1,0,0.1,0,0.2,0c0.3,1.6,0.6,3.2,0.9,4.8
		c0.1,0,0.1,0,0.2,0c0.4-2.8,0.9-5.6,1.3-8.7c0.7,1.8,0.5,3.5,1.2,5.1c0.7-3.3,1.5-6.3,2-9.4c0.5-3.2,0.1-8.4-0.6-9.5
		c-0.2,1.6-0.3,3-0.5,4.4c-0.1,0-0.1,0-0.2,0c-0.3-1.4-0.6-2.8-0.9-4.2c-0.1,0-0.1,0-0.2,0c-0.4,2.7-0.9,5.3-1.3,8
		c-0.1,0-0.1,0-0.1,0c-0.3-1.4-0.6-2.8-0.9-4.2c-0.1,0-0.1,0-0.2,0c-0.4,2.6-0.9,5.2-1.3,7.8c-0.1,0-0.1,0-0.2,0
		c-0.3-1.4-0.6-2.8-0.9-4.2c-0.1,0-0.1,0-0.1,0c-0.4,2.6-0.9,5.1-1.3,7.7c-0.5-1.2-0.6-2.6-1.2-4.1c-0.5,2.9-0.9,5.4-1.3,8
		c-0.1,0-0.1,0-0.2,0c-0.3-1.3-0.6-2.6-0.9-3.9c-0.1,0-0.1,0-0.2,0c-0.4,2.6-0.9,5.2-1.3,7.9c-0.6-1.5-0.6-3-1.1-4.6
		c-0.5,2.9-0.9,5.5-1.3,8.1c-0.1,0-0.1,0-0.2-0.1c-0.3-3.1-0.6-6.1-0.9-9.2c-0.1,0-0.2,0-0.3,0c-0.3,3.1-0.6,6.1-0.9,9.2
		c-0.1,0-0.1,0-0.2,0c-0.4-2.6-0.8-5.2-1.3-7.8c-0.1,0-0.1,0-0.2,0c-0.3,1.3-0.5,2.6-0.8,3.8c-0.1,0-0.2,0-0.3,0
		c-0.4-2.5-0.8-4.9-1.3-7.4c-0.1,0-0.2,0-0.2,0c-0.3,1.3-0.6,2.6-0.8,3.8c-0.1,0-0.1,0-0.2,0c-0.4-2.6-0.9-5.2-1.3-7.8
		c-0.5,1.3-0.6,2.7-1.2,4.2c-0.4-2.8-0.9-5.4-1.3-8.2c-0.6,1.6-0.7,3-1.1,4.6c-0.7-2.8-0.9-5.5-1.6-8.1c-0.3,1.3-0.5,2.7-0.8,4
		c-0.1,0-0.2,0-0.2,0c-0.4-2.6-0.9-5.1-1.3-7.7c-0.1,0-0.1,0-0.2,0c-0.3,1.3-0.6,2.6-0.8,3.9c-0.5-1.4-0.6-2.8-0.9-4.1
		c-1.3,6.4,0,12.7,1.7,19.2c0.4-1.9,0.7-3.5,1-5c0.1,0,0.1,0,0.2,0c0.4,2.8,0.9,5.6,1.3,8.4c0.1,0,0.1,0,0.1,0
		c0.3-1.6,0.6-3.3,0.9-4.9c0.1,0,0.1,0,0.2,0c0.4,2.8,0.8,5.5,1.3,8.3c0.1,0,0.2,0,0.3,0c0.3-1.5,0.6-2.9,0.9-4.4c0.1,0,0.1,0,0.1,0
		c0.4,2.7,0.9,5.5,1.3,8.2c0.6-1.4,0.6-3,1.2-4.6c0.5,3,0.9,5.8,1.3,8.5c0.1,0,0.1,0,0.2,0c0.3-1.5,0.6-2.9,0.8-4.4
		c0.8,2.7,1,5.4,1.6,8.1c0.5-1.4,0.4-3,1.1-4.7c0.5,3.4,1,6.4,1.4,9.5c0.1,0,0.1,0,0.2,0c0.5-3.1,1-6.2,1.4-9.3c0.1,0,0.1,0,0.2,0
		C150.7,99.3,151,100.8,151.2,102.3z M122.7,212.2c0.1,0,0.1,0,0.2,0c0.3,1.5,0.6,3.1,0.9,4.6c0.1,0,0.2,0,0.2,0
		c0.4-2.8,0.8-5.6,1.3-8.3c0.6,1.5,0.6,3.2,1.2,4.8c0.4-2.9,0.9-5.8,1.3-8.6c0.1,0,0.1,0,0.2,0c0.3,1.6,0.6,3.3,0.9,5
		c2-5,3-16.9,1.6-19.1c-0.2,1.6-0.3,3.1-0.4,4.5c-0.1,0-0.1,0-0.2,0c-0.3-1.5-0.6-2.9-0.9-4.4c-0.1,0-0.1,0-0.1,0
		c-0.4,2.6-0.9,5.3-1.3,7.9c-0.1,0-0.1,0-0.2,0c-0.3-1.4-0.6-2.8-0.9-4.2c-0.1,0-0.1,0-0.2,0c-0.4,2.6-0.8,5.2-1.3,7.8
		c-0.1,0-0.1,0-0.2,0c-0.3-1.4-0.6-2.7-1-4.4c-0.5,3-0.9,5.6-1.4,8.2c-0.1,0-0.1,0-0.2,0c-0.3-1.3-0.6-2.7-0.9-4
		c-0.1,0-0.1,0-0.2,0.1c-0.4,2.5-0.8,5.1-1.3,7.6c-0.1,0-0.1,0-0.2,0c-0.3-1.3-0.6-2.6-0.9-4.2c-0.7,2.8-0.8,5.4-1.6,7.8
		c-0.3-1.3-0.5-2.5-0.8-3.7c-0.1,0-0.2,0-0.2,0c-0.4,2.5-0.8,5-1.3,7.5c-0.1,0-0.1,0-0.2,0c-0.3-3-0.6-5.9-0.9-8.9
		c-0.1,0-0.2,0-0.3,0c-0.3,3-0.6,6-0.9,9c-0.1,0-0.1,0-0.2,0c-0.4-2.5-0.8-5.1-1.2-7.6c-0.1,0-0.1,0-0.2,0c-0.3,1.3-0.6,2.7-0.9,4.3
		c-0.6-2.9-0.8-5.5-1.6-8.1c-0.3,1.3-0.5,2.6-0.8,4c-0.1,0-0.2,0-0.2,0c-0.4-2.6-0.8-5.1-1.2-7.7c-0.6,1.3-0.6,2.7-1.2,4.2
		c-0.5-2.8-0.9-5.5-1.3-8.1c-0.1,0-0.1,0-0.2,0c-0.3,1.4-0.6,2.8-0.9,4.2c-0.1,0-0.1,0-0.2,0c-0.4-2.6-0.9-5.2-1.3-7.8
		c-0.1,0-0.1,0-0.2,0c-0.3,1.4-0.6,2.7-0.9,4.1c-0.1,0-0.1,0-0.2,0c-0.4-2.6-0.9-5.3-1.4-8.2c-0.6,1.6-0.5,3.1-1.2,4.7
		c-0.2-1.7-0.3-3.1-0.5-4.6c-0.1,0-0.2,0-0.3,0c-1,6.4,0.2,12.6,1.8,19c0.5-1.8,0.5-3.5,1.1-5.1c0.5,2.9,0.9,5.7,1.3,8.5
		c0.1,0,0.1,0,0.2,0c0.3-1.5,0.6-3.1,0.9-4.6c0.1,0,0.1,0,0.2,0c0.4,2.8,0.8,5.6,1.3,8.4c0.1,0,0.1,0,0.2,0c0.3-1.5,0.6-3.1,0.8-4.6
		c0.1,0,0.1,0,0.2,0c0.4,2.7,0.8,5.4,1.3,8.1c0.1,0,0.2,0,0.3,0c0.3-1.5,0.5-2.9,0.8-4.4c0.1,0,0.1,0,0.2,0c0.4,2.8,0.8,5.5,1.3,8.3
		c0.1,0,0.1,0,0.2,0c0.3-1.5,0.6-3,0.9-4.5c0.1,0,0.1,0,0.2,0c0.4,2.7,0.8,5.3,1.2,8c0.1,0,0.2,0,0.2,0c0.3-1.4,0.6-2.8,0.8-4.3
		c0.1,0,0.2,0,0.2,0c0.5,3.1,0.9,6.2,1.4,9.3c0.1,0,0.1,0,0.2,0c0.5-3.1,0.9-6.2,1.4-9.3c0.1,0,0.2,0,0.3,0c0.3,1.4,0.5,2.9,0.8,4.3
		c0.1,0,0.2,0,0.2,0c0.4-2.7,0.8-5.4,1.3-8.1c0.1,0,0.1,0,0.2,0c0.3,1.5,0.6,2.9,0.8,4.4c0.1,0,0.1,0,0.2,0c0.4-2.7,0.8-5.4,1.3-8.4
		c0.7,1.7,0.6,3.2,1.3,4.6C121.9,217.7,122.3,214.9,122.7,212.2z M147.6,244.6c-0.1,0-0.1,0-0.2,0c-0.4-2.5-0.9-5-1.3-7.6
		c-0.1,0-0.2,0-0.2,0c-0.3,1.3-0.5,2.7-0.8,4c-0.1,0-0.1,0-0.2,0c-0.4-2.6-0.9-5.2-1.3-7.8c-0.1,0-0.1,0-0.2,0
		c-0.3,1.3-0.6,2.6-0.8,3.9c-0.1,0-0.1,0-0.2,0c-0.4-2.5-0.9-5.1-1.3-7.6c-0.1,0-0.1,0-0.2,0c-0.3,1.3-0.6,2.6-0.9,4
		c-0.1,0-0.1,0-0.2-0.1c-0.4-2.6-0.9-5.1-1.3-7.6c-0.1,0-0.1,0-0.2,0c-0.3,1.3-0.6,2.6-0.8,3.9c-0.1,0-0.2,0-0.2,0
		c-0.4-2.6-0.8-5.2-1.3-7.8c-0.4,1.4-0.6,2.9-1.2,4.4c-0.5-2.8-0.9-5.5-1.4-8.5c-0.4,1.8-0.7,3.3-1,4.8c-0.1,0-0.1,0-0.2,0
		c-0.1-1.5-0.3-3-0.5-4.7c-1.4,3.1-0.1,16.4,1.7,19.1c0.3-1.7,0.6-3.3,0.9-4.9c0.1,0,0.1,0,0.2,0c0.4,2.8,0.9,5.6,1.3,8.4
		c0.1,0,0.1,0,0.2,0c0.3-1.6,0.6-3.1,0.9-4.7c0.1,0,0.1,0,0.2,0c0.4,2.8,0.8,5.5,1.3,8.3c0.1,0,0.2,0,0.2,0c0.3-1.4,0.6-2.9,0.8-4.3
		c0.8,2.7,0.9,5.4,1.6,8c0.4-1.4,0.4-2.9,1-4.6c0.5,3,0.9,5.7,1.3,8.3c0.1,0,0.2,0,0.2,0c0.3-1.4,0.6-2.9,0.8-4.3c0.1,0,0.1,0,0.2,0
		c0.4,2.8,0.8,5.5,1.3,8.3c0.5-1.6,0.6-3.2,1.2-4.9c0.5,3.4,1,6.6,1.4,9.7c0.1,0,0.2,0,0.2,0c0.5-3.1,0.9-6.2,1.4-9.4
		c0.1,0,0.2,0,0.2,0c0.3,1.5,0.6,2.9,0.9,4.4c0.1,0,0.1,0,0.2,0c0.4-2.7,0.8-5.4,1.3-8.2c0.1,0,0.1,0,0.2,0c0.3,1.5,0.6,3,0.9,4.5
		c0.1,0,0.1,0,0.2,0c0.4-2.8,0.8-5.5,1.3-8.3c0.1,0,0.1,0,0.2,0.1c0.3,1.5,0.6,3.1,0.9,4.6c0.1,0,0.1,0,0.2,0
		c0.4-2.8,0.9-5.6,1.3-8.4c0.1,0,0.1,0,0.2,0c0.3,1.6,0.6,3.1,0.8,4.7c0.1,0,0.2,0,0.2,0c0.4-2.8,0.9-5.5,1.3-8.3c0.1,0,0.1,0,0.2,0
		c0.3,1.5,0.6,3.1,0.9,4.6c0.1,0,0.1,0,0.2,0c0.4-2.8,0.9-5.6,1.3-8.4c0.1,0,0.1,0,0.1,0c0.3,1.6,0.6,3.2,0.9,4.9
		c0.7-2.1,1-4.3,1.6-6.3c0.5-2.1,0.8-4.1,0.7-6.3c-0.1-2.1,0.3-4.2-0.6-6.3c-0.1,1.5-0.3,3-0.4,4.4c-0.5-1.4-0.6-2.8-1.2-4.4
		c-0.5,2.9-0.9,5.4-1.4,8c-0.1,0-0.1,0-0.2,0c-0.3-1.4-0.6-2.8-0.9-4.1c-0.1,0-0.1,0-0.2,0c-0.4,2.6-0.9,5.2-1.3,7.8
		c-0.1,0-0.1,0-0.2,0c-0.3-1.3-0.6-2.6-0.9-4c-0.1,0-0.1,0-0.2,0c-0.4,2.6-0.9,5.1-1.3,7.6c-0.1,0-0.1,0-0.2,0
		c-0.3-1.3-0.6-2.6-0.9-4c-0.1,0-0.1,0-0.2,0c-0.4,2.6-0.8,5.1-1.3,7.7c-0.6-1.3-0.6-2.7-1.2-4.2c-0.5,2.8-0.9,5.4-1.3,7.9
		c-0.1,0-0.1,0-0.2,0c-0.3-1.3-0.6-2.7-0.9-4c-0.1,0-0.1,0-0.2,0c-0.4,2.5-0.8,5.1-1.2,7.6c-0.1,0-0.1,0-0.2,0c-0.3-3-0.6-6-0.9-9
		c-0.1,0-0.2,0-0.3,0C148.2,238.6,147.9,241.6,147.6,244.6z M70.7,94.8c0.1,0,0.2,0,0.2,0c0.3-1.4,0.6-2.9,0.8-4.3
		c0.1,0,0.1,0,0.2,0c0.4,2.7,0.8,5.4,1.2,8.1c0.1,0,0.2,0,0.3,0c0.3-1.5,0.6-3,0.9-4.5c0.1,0,0.1,0,0.2,0c0.4,2.7,0.8,5.5,1.3,8.2
		c0.1,0,0.1,0,0.2,0c0.3-1.5,0.6-2.9,0.9-4.4c0.1,0,0.1,0,0.2,0c0.5,3.1,0.9,6.2,1.4,9.2c0.1,0,0.2,0,0.3,0c0.5-3,0.9-6.1,1.4-9.1
		c0.1,0,0.1,0,0.2,0c0.3,1.5,0.6,2.9,0.9,4.4c0.1,0,0.1,0,0.2,0c0.4-2.8,0.8-5.6,1.3-8.3c0.1,0,0.1,0,0.2,0c0.3,1.5,0.6,3.1,0.9,4.6
		c0.1,0,0.2,0,0.2,0c0.4-2.7,0.8-5.4,1.3-8.1c0.1,0,0.2,0,0.2,0c0.3,1.5,0.5,3,0.8,4.4c0.1,0,0.1,0,0.2,0c0.4-2.8,0.8-5.5,1.3-8.3
		c0.1,0,0.1,0,0.2,0c0.3,1.5,0.6,3.1,0.9,4.6c0.1,0,0.1,0,0.2,0c0.4-2.8,0.9-5.6,1.3-8.4c0.1,0,0.1,0,0.2,0c0.3,1.6,0.6,3.2,0.9,4.8
		c0.1,0,0.1,0,0.2,0c0.4-2.8,0.8-5.6,1.3-8.4c0.1,0,0.1,0,0.2,0c0.3,1.6,0.6,3.1,0.9,4.7c1.6-6.2,3.2-12.4,1.7-18.8
		c-0.2,1.4-0.3,2.9-0.5,4.3c-0.1,0-0.1,0-0.2,0c-0.3-1.4-0.6-2.7-0.9-4.1c-0.1,0-0.1,0-0.2,0c-0.4,2.7-0.9,5.3-1.3,7.9
		c-0.5-1.4-0.6-2.8-1.2-4.4c-0.5,2.9-0.9,5.4-1.3,8c-0.1,0-0.1,0-0.2,0c-0.3-1.4-0.6-2.8-0.8-4.1c-0.1,0-0.1,0-0.2,0
		c-0.4,2.6-0.9,5.2-1.3,7.8c-0.1,0-0.1,0-0.2,0c-0.3-1.3-0.6-2.6-0.8-4c-0.1,0-0.1,0-0.2,0.1c-0.4,2.6-0.9,5.1-1.3,7.6
		c-0.1,0-0.1,0-0.2,0c-0.3-1.3-0.6-2.6-0.9-4c-0.1,0-0.2,0-0.2,0c-0.4,2.6-0.8,5.1-1.3,7.7c-0.1,0-0.1,0-0.2,0
		c-0.3-1.3-0.6-2.7-0.9-4c-0.1,0-0.1,0-0.2,0c-0.4,2.6-0.8,5.1-1.3,8c-0.6-3.3-0.6-6.4-1.3-9.4c-0.3,3.1-0.6,6.2-0.9,9.2
		c-0.1,0-0.1,0-0.2,0c-0.4-2.6-0.8-5.1-1.2-7.7c-0.1,0-0.2,0-0.3,0c-0.3,1.3-0.6,2.7-1,4.3c-0.5-2.9-0.9-5.5-1.4-8.3
		c-0.7,1.5-0.6,2.9-1.2,4.2c-0.4-2.6-0.8-5.2-1.3-7.8c-0.1,0-0.2,0-0.2,0c-0.3,1.3-0.6,2.6-0.8,3.9c-0.1,0-0.1,0-0.2,0
		c-0.4-2.5-0.8-5-1.3-7.6c-0.1,0-0.2,0-0.3,0c-0.3,1.3-0.5,2.6-0.8,4c-0.1,0-0.1,0-0.2,0c-0.4-2.7-0.9-5.3-1.4-8.3
		c-0.4,1.7-0.7,3.1-0.9,4.4c-0.1,0-0.2,0-0.2,0c-0.4-2.6-0.8-5.2-1.3-7.8c-0.5,1.4-0.6,2.9-1.2,4.6c-0.2-1.8-0.4-3.1-0.5-4.5
		c-0.1,0-0.2,0-0.3,0c-0.8,6.3,0.1,12.5,1.9,18.9c0.4-1.9,0.7-3.4,0.9-5c0.1,0,0.1,0,0.2,0.1c0.4,2.8,0.8,5.6,1.3,8.4
		c0.1,0,0.1,0,0.2,0c0.3-1.6,0.6-3.2,0.9-4.8c0.1,0,0.1,0,0.2,0c0.4,2.8,0.9,5.6,1.3,8.4c0.1,0,0.1,0,0.2,0c0.3-1.6,0.6-3.1,0.9-4.7
		c0.1,0,0.1,0,0.2,0C69.9,89.4,70.3,92.1,70.7,94.8z M105,91.4c-0.1,0-0.1,0-0.2,0c-0.4-2.6-0.9-5.2-1.3-7.8c-0.1,0-0.1,0-0.2,0
		c-0.3,1.4-0.6,2.8-0.9,4.2c-0.1,0-0.1,0-0.2,0c-0.4-2.6-0.8-5.2-1.3-7.8c-0.1,0-0.1,0-0.2,0c-0.3,1.4-0.6,2.8-0.9,4.1
		c-0.1,0-0.1,0-0.2,0c-0.4-2.7-0.9-5.3-1.3-7.9c-0.1,0-0.1,0-0.2,0c-0.3,1.4-0.6,2.8-0.9,4.2c-0.1,0-0.1,0-0.2,0
		c-0.2-1.4-0.3-2.8-0.4-4.2c-0.1,0-0.2,0-0.3,0c-1,6.3,0.1,12.5,2,18.6c0.3-1.6,0.6-3.1,0.8-4.7c0.1,0,0.1,0,0.2,0
		c0.4,2.8,0.9,5.6,1.3,8.5c0.1,0,0.1,0,0.2,0c0.3-1.6,0.6-3.1,0.9-4.6c0.1,0,0.1,0,0.2,0c0.4,2.8,0.8,5.5,1.3,8.3c0.1,0,0.1,0,0.2,0
		c0.3-1.6,0.6-3.1,0.9-4.7c0.1,0,0.1,0,0.2,0c0.4,2.7,0.8,5.4,1.3,8.2c0.1,0,0.1,0,0.2,0c0.3-1.5,0.6-3,0.9-4.5c0.1,0,0.1,0,0.2,0
		c0.4,2.8,0.8,5.5,1.3,8.3c0.1,0,0.2,0,0.2,0c0.3-1.5,0.6-2.9,0.8-4.4c0.1,0,0.2,0,0.2,0c0.4,2.7,0.8,5.3,1.2,8c0.1,0,0.2,0,0.2,0
		c0.3-1.4,0.6-2.8,0.8-4.3c0.1,0,0.2,0,0.2,0c0.5,3.1,0.9,6.2,1.4,9.3c0.1,0,0.2,0,0.2,0c0.5-3.2,0.9-6.3,1.4-9.4c0.1,0,0.2,0,0.2,0
		c0.3,1.5,0.5,3,0.8,4.4c0.1,0,0.2,0,0.3,0c0.4-2.8,0.9-5.5,1.3-8.3c0.1,0,0.1,0,0.2,0c0.3,1.5,0.6,3,0.8,4.6c0.1,0,0.1,0,0.2,0
		c0.4-2.7,0.8-5.4,1.3-8.1c0.1,0,0.2,0,0.3,0c0.3,1.4,0.5,2.9,0.7,4.3c0.1,0,0.2,0,0.3,0c0.4-2.8,0.9-5.5,1.3-8.3c0.1,0,0.1,0,0.2,0
		c0.3,1.5,0.6,2.9,0.8,4.4c0.1,0,0.2,0,0.3,0c0.4-2.8,0.8-5.5,1.2-8.3c0.6,1.6,0.6,3.3,1.2,4.9c0.5-2.9,0.9-5.7,1.3-8.5
		c0.1,0,0.1,0,0.2,0c0.3,1.6,0.6,3.2,0.9,4.9c1.9-4.4,3-17,1.6-19c-0.2,1.4-0.3,2.8-0.5,4.1c-0.7-1.3-0.6-2.7-1.3-4.1
		c-0.4,2.8-0.9,5.4-1.3,8c-0.1,0-0.1,0-0.2,0c-0.3-1.4-0.6-2.8-0.9-4.2c-0.1,0-0.1,0-0.2,0c-0.4,2.6-0.8,5.2-1.3,7.8
		c-0.1,0-0.2,0-0.2-0.1c-0.3-1.4-0.6-2.7-0.8-4.1c-0.1,0-0.1,0-0.2,0c-0.4,2.6-0.9,5.3-1.3,7.9c-0.1,0-0.1,0-0.2,0
		c-0.3-1.3-0.5-2.7-0.8-4c-0.8,2.5-0.9,5.1-1.7,7.9c-0.3-1.6-0.6-2.9-0.9-4.2c-0.1,0-0.2,0-0.2,0c-0.4,2.5-0.8,5-1.2,7.6
		c-0.1,0-0.2,0-0.2,0c-0.3-1.3-0.6-2.6-0.8-3.8c-0.1,0-0.2,0-0.2,0c-0.4,2.5-0.8,5.1-1.3,7.6c-0.1,0-0.1,0-0.2,0c-0.3-3-0.6-6-0.9-9
		c-0.1,0-0.2,0-0.3,0c-0.3,3-0.6,6-0.9,9c-0.1,0-0.1,0-0.2,0c-0.4-2.6-0.8-5.1-1.3-7.6c-0.1,0-0.1,0-0.2,0c-0.3,1.3-0.6,2.7-0.9,4
		c-0.1,0-0.1,0-0.2,0c-0.4-2.6-0.8-5.2-1.3-7.7c-0.1,0-0.1,0-0.2,0c-0.3,1.3-0.6,2.6-0.9,4c-0.1,0-0.1,0-0.2,0
		c-0.4-2.5-0.8-5.1-1.2-7.6c-0.1,0-0.2,0-0.2,0C105.6,88.8,105.3,90.1,105,91.4z M81.2,140.5c0.1,0,0.2,0,0.2,0
		c0.4-2.7,0.8-5.4,1.2-8.1c0.1,0,0.1,0,0.2,0c0.3,1.5,0.6,3,0.9,4.5c0.1,0,0.1,0,0.2,0c0.4-2.7,0.9-5.5,1.3-8.2c0.1,0,0.1,0,0.2,0
		c0.3,1.5,0.6,3,0.8,4.5c0.1,0,0.2,0,0.2,0c0.4-2.8,0.8-5.5,1.3-8.3c0.1,0,0.1,0,0.2,0c0.3,1.6,0.6,3.2,0.9,4.8c0.1,0,0.1,0,0.2,0
		c0.4-2.8,0.9-5.6,1.3-8.4c0.1,0,0.1,0,0.2-0.1c0.3,1.6,0.6,3.1,0.9,4.7c0.1,0,0.1,0,0.2-0.1c0.4-2.8,0.9-5.6,1.3-8.4
		c0.3,0.9,0.5,1.7,0.7,2.5c0.1,0.8,0.2,1.6,0.5,2.5c1.6-6.4,3-12.5,1.7-19c-0.6,1.4-0.3,2.9-0.8,4.4c-0.3-1.5-0.6-2.9-0.9-4.4
		c-0.1,0-0.1,0-0.2,0c-0.4,2.6-0.8,5.3-1.3,7.9c-0.1,0-0.1,0-0.2,0c-0.3-1.4-0.6-2.8-0.9-4.2c-0.1,0-0.1,0-0.2,0
		c-0.4,2.6-0.8,5.2-1.3,7.8c-0.1,0-0.2,0-0.2,0c-0.3-1.4-0.6-2.8-0.9-4.1c-0.1,0-0.1,0-0.2,0c-0.4,2.6-0.9,5.2-1.3,7.8
		c-0.1,0-0.2,0-0.2,0c-0.3-1.3-0.5-2.6-0.8-3.8c-0.1,0-0.2,0-0.2,0c-0.4,2.5-0.8,5.1-1.3,7.6c-0.1,0-0.1,0-0.2,0
		c-0.3-1.3-0.6-2.6-0.9-3.9c-0.1,0-0.1,0-0.2,0c-0.4,2.5-0.8,5.1-1.3,7.6c-0.1,0-0.2,0-0.2,0c-0.3-1.3-0.6-2.5-0.8-3.8
		c-0.1,0-0.1,0-0.2,0c-0.4,2.5-0.8,5-1.3,7.5c-0.1,0-0.1,0-0.1,0c-0.3-3-0.7-5.9-1-8.9c-0.1,0-0.2,0-0.3,0c-0.3,3-0.6,5.9-0.9,8.9
		c-0.1,0-0.2,0-0.2,0c-0.4-2.6-0.8-5.1-1.2-7.7c-0.7,1.3-0.6,2.7-1.3,4.2c-0.5-2.7-0.9-5.3-1.3-8.1c-0.6,1.5-0.6,2.9-1.2,4.5
		c-0.5-2.9-0.9-5.4-1.3-7.9c-0.1,0-0.2,0-0.2,0c-0.3,1.3-0.6,2.6-0.8,3.9c-0.7-2.5-0.8-5.1-1.7-7.6c-0.3,1.3-0.5,2.6-0.8,3.8
		c-0.8-2.6-0.9-5.2-1.6-8c-0.3,1.6-0.6,3-0.9,4.4c-0.1,0-0.1,0-0.2,0c-0.4-2.6-0.9-5.2-1.3-7.8c-0.5,1.3-0.6,2.7-1.2,3.9
		c-0.2-1.4-0.3-2.8-0.8-4.1c-1,6.4,0,12.6,1.8,18.9c0.5-1.7,0.4-3.4,1.1-5.1c0.5,3,0.9,5.8,1.3,8.6c0.1,0,0.1,0,0.2,0
		c0.3-1.5,0.6-3,0.9-4.5c0.1,0,0.1,0,0.2,0c0.4,2.7,0.9,5.5,1.3,8.2c0.1,0,0.1,0,0.2,0c0.3-1.5,0.6-3,0.9-4.4c0.1,0,0.1,0,0.2,0.1
		c0.4,2.7,0.8,5.3,1.3,8c0.1,0,0.1,0,0.2,0c0.3-1.5,0.6-2.9,0.9-4.4c0.1,0,0.1,0,0.2,0c0.4,2.8,0.8,5.5,1.2,8.3
		c0.5-1.5,0.7-3,1.3-4.4c0.4,2.7,0.8,5.4,1.3,8.3c0.7-1.7,0.5-3.4,1.2-5.2c0.5,3.5,1,6.6,1.4,9.8c0.1,0,0.2,0,0.2,0
		c0.5-3.1,1-6.3,1.4-9.4c0.1,0,0.1,0,0.2,0C80.6,137.5,80.9,139,81.2,140.5z M144.9,49.8c-0.4-2.7-0.9-5.3-1.3-7.8
		c-0.1,0-0.1,0-0.2,0c-0.3,1.3-0.6,2.5-0.8,3.8c-0.1,0-0.1,0-0.2,0c-0.4-2.5-0.8-5-1.3-7.6c-0.5,1.4-0.7,2.7-1.2,4.3
		c-0.5-2.9-0.9-5.4-1.3-8c-0.1,0-0.1,0-0.2,0c-0.3,1.3-0.6,2.6-0.8,3.9c-0.1,0-0.2,0-0.3,0c-0.4-2.6-0.8-5.2-1.3-7.9
		c-0.6,1.4-0.6,2.9-1.2,4.4c-0.4-2.8-0.9-5.3-1.4-8.2c-0.6,1.5-0.5,2.9-1.2,4.4c-0.2-1.7-0.3-3-0.5-4.3c-0.1,0-0.2,0-0.3,0
		c-1,6.4,0.2,12.6,2,18.8c0.3-1.6,0.6-3.3,0.9-4.9c0.1,0,0.1,0,0.1,0c0.4,2.8,0.9,5.6,1.3,8.7c0.6-1.8,0.6-3.4,1.2-5
		c0.4,2.8,0.8,5.5,1.3,8.3c0.1,0,0.2,0,0.2,0c0.3-1.5,0.6-2.9,0.8-4.4c0.1,0,0.1,0,0.2,0c0.4,2.8,0.9,5.5,1.3,8.3c0.1,0,0.2,0,0.2,0
		c0.3-1.5,0.5-3,0.8-4.5c0.1,0,0.1,0,0.2,0c0.4,2.7,0.8,5.4,1.3,8c0.1,0,0.2,0,0.3,0c0.3-1.4,0.6-2.9,0.8-4.3c0.1,0,0.1,0,0.2,0
		c0.4,2.8,0.9,5.5,1.3,8.3c0.6-1.5,0.6-3.2,1.2-4.9c0.5,3.4,1,6.5,1.4,9.7c0.1,0,0.2,0,0.3,0c0.5-3.1,0.9-6.2,1.4-9.3
		c0.1,0,0.2,0,0.2,0c0.3,1.5,0.6,3,0.8,4.5c0.1,0,0.1,0,0.2,0c0.4-2.7,0.8-5.5,1.3-8.2c0.1,0,0.1,0,0.2,0c0.3,1.5,0.6,3,0.9,4.5
		c0.1,0,0.1,0,0.2,0c0.4-2.7,0.8-5.4,1.2-8.1c0.1,0,0.1,0,0.2,0c0.3,1.5,0.6,3,0.9,4.5c0.1,0,0.1,0,0.2,0c0.4-2.8,0.9-5.6,1.3-8.4
		c0.1,0,0.1,0,0.2,0c0.3,1.6,0.6,3.1,0.8,4.7c0.1,0,0.2,0,0.3,0c0.4-2.8,0.9-5.5,1.3-8.3c0.1,0,0.1,0,0.2,0c0.3,1.5,0.6,3.1,0.9,4.6
		c0.1,0,0.1,0,0.2,0c0.4-2.8,0.9-5.6,1.4-8.8c0.4,1.9,0.7,3.5,1,5.2c0.7-2.2,1.1-4.3,1.6-6.5c0.4-1.8,0.7-3.6,0.6-5.4
		c0-0.5,0-0.9-0.5-1.1c-0.6-0.3-1.3-0.6-1.9-1c-0.4-0.2-0.6-0.1-0.7,0.4c-0.1,0.9-0.3,1.9-0.6,3.2c-0.4-1.7-0.7-3.1-1-4.5
		c-0.1,0-0.1,0-0.2,0c-0.4,2.6-0.9,5.2-1.3,7.8c-0.1,0-0.1,0-0.2,0c-0.3-1.4-0.6-2.8-0.9-4.5c-0.5,3-0.9,5.6-1.4,8.5
		c-0.6-1.5-0.5-3-1.2-4.5c-0.4,2.8-0.9,5.3-1.3,7.9c-0.1,0-0.1,0-0.2,0c-0.3-1.3-0.6-2.7-0.9-4c-0.1,0-0.1,0-0.2,0
		c-0.4,2.6-0.9,5.1-1.3,7.7c-0.1,0-0.1,0-0.2,0c-0.3-1.3-0.6-2.6-0.8-4c-0.1,0-0.1,0-0.2,0c-0.4,2.5-0.8,5.1-1.3,7.6
		c-0.1,0-0.1,0-0.2,0c-0.3-3-0.6-6-0.9-9c-0.1,0-0.2,0-0.3,0c-0.3,3-0.6,6-0.9,9c-0.1,0-0.1,0-0.2,0c-0.4-2.5-0.9-5-1.3-7.6
		C145.5,47,145.6,48.5,144.9,49.8z M92.4,34.8c-0.1,0-0.1,0-0.2,0c-0.3-1.4-0.6-2.8-0.9-4.2c-0.1,0-0.1,0-0.2,0
		c-0.4,2.6-0.8,5.2-1.3,7.7c-0.1,0-0.2,0-0.2,0c-0.3-1.3-0.6-2.6-0.8-3.9c-0.1,0-0.1,0-0.2,0c-0.4,2.6-0.9,5.2-1.3,8
		c-0.5-1.5-0.5-3-1.2-4.4c-0.5,2.8-0.9,5.3-1.3,7.8c-0.1,0-0.1,0-0.2,0c-0.3-1.3-0.6-2.6-0.9-4c-0.1,0-0.1,0-0.2,0
		c-0.4,2.6-0.8,5.2-1.3,7.8c-0.1,0-0.1,0-0.2,0c-0.3-1.3-0.6-2.7-0.9-4c-0.1,0-0.1,0-0.2,0c-0.4,2.5-0.8,5-1.3,7.5
		c-0.1,0-0.1,0-0.2,0c-0.3-3-0.6-6-0.9-8.9c-0.1,0-0.2,0-0.3,0c-0.3,3-0.6,6-0.9,9c-0.1,0-0.2,0-0.2,0c-0.4-2.6-0.8-5.1-1.3-8
		c-0.7,1.6-0.5,3-1.2,4.5c-0.5-2.7-0.9-5.2-1.3-7.7c-0.1,0-0.2,0-0.3,0c-0.3,1.3-0.5,2.5-0.8,3.8c-0.7-2.5-0.9-5.1-1.6-7.9
		c-0.3,1.6-0.6,2.9-0.9,4.2c-0.1,0-0.1,0-0.2,0c-0.4-2.5-0.9-5.1-1.3-7.6c-0.7,1.3-0.6,2.6-1.2,4.1c-0.5-2.9-0.9-5.5-1.3-8.1
		c-0.1,0-0.1,0-0.2,0c-0.3,1.4-0.6,2.7-0.8,4.1c-0.1-0.1-0.2-0.2-0.2-0.3c-0.1-0.5-0.1-1-0.2-1.5c-0.3-1.8-0.2-1.7-1.9-1
		c-1.1,0.5-1.5,1.1-1.5,2.3c0,3.9,1.4,7.5,2.2,11.3c0.3-1.6,0.6-3.2,0.9-4.8c0.1,0,0.1,0,0.2,0.1c0.4,2.8,0.8,5.6,1.3,8.3
		c0.1,0,0.1,0,0.2,0c0.3-1.5,0.6-3,0.9-4.5c0.1,0,0.1,0,0.2,0c0.4,2.8,0.8,5.5,1.3,8.3c0.1,0,0.2,0,0.2,0c0.3-1.5,0.6-3,0.9-4.4
		c0.1,0,0.1,0,0.2,0c0.4,2.7,0.8,5.5,1.3,8.2c0.1,0,0.1,0,0.2,0c0.3-1.5,0.6-3.1,0.9-4.6c0.6,2.8,0.9,5.6,1.7,8.3
		c0.3-1.5,0.5-3,0.8-4.5c0.1,0,0.1,0,0.2,0c0.4,2.7,0.8,5.5,1.3,8.2c0.1,0,0.1,0,0.2,0c0.3-1.5,0.6-3,0.9-4.5c0.1,0,0.2,0,0.2,0
		c0.5,3.1,0.9,6.2,1.4,9.3c0.1,0,0.2,0,0.2,0c0.5-3.1,1-6.3,1.5-9.4c0.1,0,0.1,0,0.2,0c0.3,1.6,0.6,3.1,0.8,4.7c0.1,0,0.1,0,0.2,0
		c0.4-2.8,0.8-5.5,1.3-8.3c0.1,0,0.1,0,0.2,0c0.3,1.5,0.6,2.9,0.9,4.4c0.1,0,0.1,0,0.2,0c0.4-2.7,0.8-5.5,1.3-8.2c0.1,0,0.1,0,0.2,0
		c0.3,1.5,0.6,3,0.9,4.5c0.1,0,0.2,0,0.2,0c0.4-2.7,0.8-5.4,1.2-8.1c0.1,0,0.1,0,0.2,0c0.3,1.5,0.6,3.1,0.9,4.6c0.1,0,0.1,0,0.2,0
		c0.4-2.8,0.8-5.6,1.3-8.4c0.1,0,0.1,0,0.2,0c0.3,1.5,0.6,3.1,0.9,4.7c0.1,0,0.1,0,0.2,0c0.4-2.8,0.8-5.6,1.3-8.4c0.1,0,0.1,0,0.2,0
		c0.3,1.6,0.6,3.3,0.9,4.9c0.5-1.2,0.7-2.4,1-3.6c0.4-2,1.1-3.9,1.3-6c0.2-2.5,0.1-5,0.1-7.5c0-0.6-0.1-1.2-0.6-1.7
		c-0.2,1.5-0.4,2.9-0.6,4.6c-0.4-1.6-0.7-3-1-4.4c-0.1,0-0.2,0-0.2,0C93.3,29.7,92.9,32.2,92.4,34.8z"></path>
	<path d="M127.1,286.3c0.2-1.7,0.4-3.4,0.8-5.2c0.4,1.8,0.8,3.5,0.8,5.2C128.2,286.3,127.6,286.3,127.1,286.3z"></path>
</g>
</svg>
