<!--?xml version="1.0" encoding="utf-8"?-->
<!-- Generator: Adobe Illustrator 24.2.3, SVG Export Plug-In . SVG Version: 6.00 Build 0)  -->
<svg version="1.1" id="Camada_1" xmlns="http://www.w3.org/2000/svg" xmlns:xlink="http://www.w3.org/1999/xlink" x="0px" y="0px" viewBox="0 0 229 418" enable-background="new 0 0 229 418" xml:space="preserve">
<g onclick="select(this)" class="" id="gola-primaria" fill="#bf0811">
	<path d="M138.47,28.86c-1.85,1.1-3.68,2.26-5.57,3.28c-2.6,1.4-5.32,2.52-8.22,3.17c-0.6,0.15-1.2,0.3-1.81,0.45
		c0,0,0,0,0,0c-1.4,0.08-2.73,0.68-4.16,0.52c0.79-1.55,1.96-2.82,3.12-4.08c1.98-2.15,4.28-3.96,6.41-5.96
		c3.47-2.76,7.12-5.29,10.38-8.31c2.35-2.19,4.38-4.66,5.81-7.57c0.58-1.17,0.47-1.33-0.8-1.24c-3.26,0.24-6.53,0.46-9.79,0.76
		c-6.16,0.56-12.34,0.85-18.52,1.1c-3.91,0.16-7.82-0.26-11.72-0.48c-3.46-0.2-6.92-0.56-10.37-0.86c-2.82-0.25-5.64-0.5-8.46-0.77
		c-0.82-0.08-1.1,0.08-0.73,0.95c0.47,1.11,1.04,2.16,1.74,3.14c3.94,5.49,9.61,9.07,14.7,13.29c0.4,0.39,0.79,0.79,1.21,1.15
		c3.02,2.6,5.94,5.29,8.31,8.53c-0.11,0.6-0.55,0.25-0.84,0.26c-1.04,0.05-2-0.59-3.06-0.37c-5.93-1.36-11.34-3.84-16.22-7.49
		c-2.81-2.02-5.48-4.19-7.84-6.72c-2.3-2.79-4.16-5.8-4.89-9.4c-0.43-2.14-0.01-3.1,1.74-4.23c1.23-0.34,2.13-1.24,2.78-2.18
		c3.34-4.82,8.28-5.43,13.49-5.2c3.83,0.17,7.67,0.19,11.49,0.11c9.62-0.19,19.25,0.06,28.87-0.07c1.88-0.03,3.75,0.23,5.58,0.65
		c1.56,0.35,2.86,1.06,3.9,2.36c1.42,1.76,2.86,3.54,4.93,4.64c2.07,1.2,2.03,2.86,1.53,4.73c-0.83,3.05-2.2,5.87-4.36,8.24
		c-2.45,2.58-5.15,4.86-8.02,6.94C138.84,28.36,138.49,28.47,138.47,28.86z"></path>
</g>
<g onclick="select(this)" class="" id="detalhe-lateral" fill="#ffffff">
	<path d="M186,101.85c1.06-2.77,1.73-5.68,3.02-8.37c0.13-0.25,0.3-0.43,0.62-0.29c-1.7,6.38-2.97,12.84-3.85,19.38
		c-0.2,0.11-0.25,0.3-0.25,0.5c0.09,2.41-0.5,4.8-0.26,7.22c-0.26,2.7-0.5,5.39-0.77,8.09c-0.29,2.93-0.72,5.85-0.86,8.79
		c-0.21,4.11-0.34,8.22-0.29,12.34c0.02,1.72,0.23,3.41,0.49,5.11c0.39,2.59-0.23,5.15-0.35,7.73c-0.07,1.48-0.19,2.94,0.04,4.41
		c0.28,1.8-0.18,3.58-0.17,5.38c0.01,3.75-0.15,7.51,0.18,11.26c0.06,0.7-0.06,1.43-0.16,2.14c-0.62,4.36,0.6,8.52,1.3,12.75
		c0.76,4.61,1.06,9.25,0.45,13.92c-0.38,2.88-0.56,5.78-0.97,8.66c-0.12,0.84,0.37,1.62,0.62,2.41c1.11,3.57,1.74,7.23,1.65,10.95
		c-0.06,2.58-0.39,5.17-0.75,7.73c-0.15,1.05,0.13,1.97,0.32,2.93c0.56,2.8,0.59,5.63,0.54,8.47c-0.08,4.68,0.49,9.32,0.85,13.98
		c0.33,4.32,0.68,8.64,0.95,12.96c0.1,1.64-0.48,2.35-2.09,2.92c-1.62,0.57-3.28,1-5.02,0.92c-0.26-0.89-0.3-1.8-0.35-2.72
		c-0.38-7.08-0.75-14.16-1.13-21.23c-0.22-5.86-0.43-11.73-0.66-17.59c-0.11-2.83-0.08-5.67-0.22-8.5
		c-0.26-5.27-0.2-10.55-0.34-15.82c-0.48-17.43-0.19-34.86-0.23-52.3c-0.01-3.88,0.22-7.75,0.3-11.62c0.09-4.34,0.43-8.67,0.72-13
		c0.19-2.81,0.48-5.62,0.73-8.43c0.32-0.33,0.19-0.75,0.23-1.13c0.22-1.73,0.41-3.47,0.68-5.19c0.36-2.3,0.81-4.59,0.98-6.92
		c0.41-2.21,0.83-4.42,1.24-6.63c0.49-1.91,1.01-3.8,1.45-5.72C185.06,105.51,185.75,103.73,186,101.85z"></path>
	<path d="M50.71,170.52c-0.01,13.16,0.05,26.32-0.07,39.48c-0.04,4.67-0.12,9.35-0.26,14.02
		c-0.18,6.03-0.3,12.06-0.51,18.09c-0.15,4.47-0.33,8.94-0.47,13.41c-0.18,5.62-0.4,11.25-0.76,16.86
		c-0.21,3.34-0.09,6.69-0.4,10.03c-0.03,0.35-0.12,0.69-0.19,1.03c-1.19,0.67-2.33,0-3.45-0.2c-0.91-0.16-1.78-0.63-2.65-1.01
		c-0.64-0.28-0.96-0.79-0.96-1.51c-0.01-4.28,0.15-8.54,0.7-12.8c0.25-1.96,0.11-3.97,0.26-5.96c0.4-5.29,0.91-10.58,0.8-15.9
		c-0.02-1.06,0.23-2.14,0.44-3.19c0.47-2.32,0.12-4.61-0.15-6.91c-0.23-2.01,0.02-4.01,0.48-5.94c0.41-1.69,0.21-3.33,0.08-4.98
		c-0.29-3.62-0.7-7.22-0.69-10.86c0-4.05,0.77-7.96,1.99-11.78c0.81-2.53,1.01-5.06,1.23-7.68c0.3-3.48-0.16-6.91,0.03-10.38
		c0.13-2.39,0.07-4.86-0.25-7.28c-0.2-1.52,0.11-3.02,0.16-4.54c0.14-4.63-0.43-9.26-0.22-13.9c0.09-1.97,0.02-3.95-0.01-5.92
		c-0.06-4.14,0.01-8.27,0.02-12.41c0.01-4-0.66-7.94-1.08-11.91c-0.25-2.38-0.54-4.75-0.83-7.13c-0.03-0.23-0.12-0.46-0.19-0.68
		c0.51-0.32,0.46-0.85,0.31-1.27c-0.7-2.12-0.42-4.37-0.91-6.51c-0.09-3.1-0.68-6.15-1.1-9.21c-0.2-1.49-0.33-2.99-0.77-4.45
		c-0.09-0.3-0.29-0.8,0.23-1.03c0.55,0.76,0.64,1.68,0.93,2.53c0.79,2.3,1.16,4.73,2.06,7c0.36,1.42,0.52,2.88,1.05,4.25
		c0.36,2.14,0.66,4.29,1.09,6.42c0.35,1.74,0.37,3.54,0.99,5.23c0.01,0.07,0,0.14-0.03,0.2c-0.1,0.3-0.17,0.59,0.14,0.82
		c0.58,4.06,1.09,8.13,1.41,12.22c0.1,1.28,0.29,2.55,0.44,3.83c0.25,4.64,0.57,9.27,0.73,13.91c0.17,4.9,0.19,9.8,0.28,14.7
		C50.66,169.65,50.69,170.08,50.71,170.52z"></path>
</g>
<g onclick="select(this)" class="" id="detalhe-punho" fill="#082890">
	<path d="M185.28,120.29c-0.24-2.42,0.35-4.81,0.26-7.22c-0.01-0.2,0.05-0.39,0.25-0.5c0.97,0.6,2.05,0.93,3.17,0.98
		c5.57,0.26,11.16,0.58,16.72-0.02c3.92-0.42,7.8-1.14,11.67-1.94c3.1-0.64,6.02-1.84,9.08-2.53c0.74-0.17,1.47-0.4,2.1-0.85
		c1,2.44,1.28,4.99,1.14,7.59c-0.04,0.74-0.77,0.85-1.3,1.06c-2.53,1-5.16,1.67-7.78,2.38c-9.1,2.48-18.4,3.06-27.77,2.61
		c-1.63-0.08-3.24-0.42-4.87-0.62C186.99,121.11,186.11,120.77,185.28,120.29z"></path>
	<path d="M43.18,112.8c0.49,2.14,0.21,4.39,0.91,6.51c0.14,0.43,0.2,0.95-0.31,1.27c-2.59,1.33-5.45,1.62-8.25,1.74
		c-9.43,0.4-18.83,0.13-28.07-2.11c-1.82-0.44-3.63-0.9-5.38-1.6c-0.78-0.32-1.23-0.76-1.14-1.7c0.25-2.45,0.37-4.91,1.18-7.27
		c5.11,2.14,10.44,3.54,15.93,4.05c6.83,0.64,13.69,0.81,20.55,0.3C40.19,113.87,41.7,113.38,43.18,112.8z"></path>
</g>
<g onclick="select(this)" class="" id="estampa-terciaria" fill="#082890">
	<path d="M110.88,286.43c0.42-2.58,0.25-5.18,0.41-7.78c0.39-6.3,0.53-12.61,0.85-18.92
		c0.27-5.39,0.67-10.77,0.71-16.17c0-0.18-0.05-0.4,0.36-0.65c0.36,14.11,0.72,28.1,1.08,42.09c0.12,0,0.24,0,0.35,0
		c0.36-13.99,0.71-27.97,1.07-42.03c0.56,0.22,0.38,0.63,0.38,0.93c0.11,8.27,0.8,16.52,1.06,24.79c0.18,5.95,0.6,11.89,0.91,17.83
		c-1.63,0.53-3.29,0.07-4.94,0.14C112.39,286.69,111.6,286.75,110.88,286.43z M114.38,286.25l0.04-0.07l-0.06-0.01L114.38,286.25z"></path>
	<path d="M53.06,284.47c0.16-4.79,0.33-9.59,0.47-14.38c0.36-12.39,0.7-24.77,1.04-37.16
		c0.04-1.55,0.01-3.11,0.01-4.66c0.19,0,0.38,0,0.58-0.01c0,1.83-0.04,3.67,0.01,5.5c0.26,9.87,0.54,19.74,0.82,29.61
		c0.2,7.15,0.43,14.3,0.64,21.45C55.41,284.94,54.22,284.83,53.06,284.47z"></path>
	<path d="M49.35,284c0.18-2.71,0.15-5.43,0.26-8.14c0.28-7.26,0.35-14.53,0.58-21.8c0.28-8.94,0.66-17.88,0.75-26.83
		c0-0.14,0.04-0.29,0.08-0.6c0.4,0.5,0.29,0.95,0.29,1.35c0.11,5.31,0.2,10.62,0.31,15.94c0.16,7.47,0.32,14.94,0.5,22.4
		c0.14,6.03,0.32,12.06,0.48,18.09C51.49,284.51,50.41,284.37,49.35,284z"></path>
	<path d="M171.09,285.11c0.41-3.62,0.26-7.26,0.43-10.89c0.31-6.78,0.36-13.57,0.57-20.36
		c0.2-6.55,0.45-13.09,0.68-19.63c0.01-0.19,0.05-0.38,0.22-0.57c0.08,1.22,0.19,2.43,0.22,3.65c0.2,7.15,0.35,14.29,0.58,21.44
		c0.26,8.22,0.62,16.44,0.74,24.67c0.01,0.48,0.09,0.95,0.13,1.43C173.49,285.24,172.29,285.19,171.09,285.11z"></path>
	<path d="M149.48,285.73c0.98-15.67,1.97-31.34,2.95-47.01c0.52,15.64,0.48,31.28,0.91,46.92
		C152.07,285.99,150.78,285.87,149.48,285.73z"></path>
	<path d="M75.37,285.55c0.1-6.03,0.23-12.07,0.31-18.1c0.11-8.91,0.17-17.82,0.26-26.73
		c0.01-0.66,0.1-1.33,0.34-1.99c0.98,15.62,1.96,31.24,2.94,46.87C77.94,285.92,76.66,285.72,75.37,285.55z"></path>
	<path d="M175.1,284.82c0.1-3.75,0.21-7.51,0.31-11.26c0.2-8.19,0.39-16.38,0.59-24.57
		c0.13-5.15,0.27-10.3,0.41-15.46c0.01-0.22-0.07-0.48,0.19-0.65c0.41,0.09,0.27,0.43,0.27,0.66c0.18,6.59,0.32,13.18,0.52,19.77
		c0.31,10.38,0.65,20.77,0.98,31.15C177.3,284.8,176.21,284.93,175.1,284.82z"></path>
	<path d="M79.66,285.6c0.23-6.07,0.23-12.14,0.31-18.22c0.1-7.67,0.26-15.34,0.38-23.01c0.01-0.72,0-1.43,0.18-2.15
		c0.17,2.95,0.34,5.9,0.51,8.86c0.41,7.41,0.82,14.83,1.22,22.24c0.22,4.11,0.41,8.21,0.61,12.32
		C81.79,285.89,80.72,285.93,79.66,285.6z"></path>
	<path d="M145.85,285.79c0.19-3.55,0.38-7.1,0.57-10.65c0.38-6.86,0.78-13.71,1.14-20.57
		c0.22-4.11,0.4-8.22,0.59-12.33c0.13,0,0.26,0,0.39,0c0,3.15-0.03,6.29,0,9.44c0.09,9.07,0.19,18.15,0.31,27.22
		c0.03,2.28,0.14,4.55,0.21,6.83C148,285.96,146.92,285.96,145.85,285.79z"></path>
	<path d="M142.03,285.85c0.68-13.92,1.36-27.85,2.03-41.77c0.11,0,0.23,0,0.34,0c0,1.88-0.04,3.76,0.01,5.63
		c0.18,8.27,0.39,16.55,0.59,24.82c0.09,3.76,0.21,7.51,0.31,11.27C144.22,286.08,143.13,286.19,142.03,285.85z"></path>
	<path d="M83.42,285.64c0.1-3.71,0.21-7.42,0.31-11.14c0.2-8.27,0.41-16.53,0.59-24.8c0.04-1.87,0.01-3.74,0.01-5.61
		c0.11,0,0.23,0,0.34,0c0.68,13.87,1.35,27.74,2.03,41.61C85.6,285.89,84.51,285.94,83.42,285.64z"></path>
	<path d="M118.48,286.52c0.1-3.39,0.21-6.79,0.3-10.18c0.27-10.23,0.52-20.45,0.96-30.68
		c0.14,2.58,0.29,5.16,0.4,7.73c0.41,8.9,0.8,17.8,1.22,26.7c0.1,2.11-0.11,4.24,0.31,6.34
		C120.62,286.69,119.55,286.68,118.48,286.52z"></path>
	<path d="M107.29,286.25c0.42-2.62,0.26-5.26,0.41-7.89c0.38-6.74,0.57-13.49,0.84-20.24
		c0.13-3.23,0.28-6.47,0.43-9.7c0.01-0.14,0.07-0.28,0.11-0.44c0.52,0.14,0.34,0.53,0.35,0.79c0.26,9.83,0.51,19.66,0.76,29.48
		c0.07,2.72,0.17,5.43,0.26,8.15C109.39,286.67,108.34,286.54,107.29,286.25z"></path>
	<path d="M138.67,286.03c0,0,0.02-0.1,0.02-0.1c0.19-4.67,0.38-9.33,0.57-14c0.3-7.38,0.61-14.76,0.92-22.13
		c0-0.11,0.06-0.23,0.36-0.34c0.36,12.14,0.71,24.27,1.07,36.41C140.65,286.28,139.66,286.04,138.67,286.03z"></path>
	<path d="M90.02,285.67c-0.01,0.04,0,0.09,0.02,0.13c-0.98,0.05-1.96,0.17-2.92-0.1c0.18-6.03,0.36-12.07,0.53-18.1
		c0.17-5.99,0.32-11.99,0.49-18.15c0.54,1.51,0.53,2.94,0.58,4.35c0.37,9.35,0.72,18.7,1.08,28.05
		C89.84,283.12,89.94,284.39,90.02,285.67z"></path>
	<path d="M73.98,285.53c0-13.35,0.01-26.71,0.01-40.06c0-0.47,0-0.95,0-1.42c0.12,0,0.24,0,0.36,0
		c0.26,13.84,0.53,27.67,0.79,41.51C74.76,285.72,74.37,285.69,73.98,285.53z"></path>
	<path d="M154.81,282.92c-0.02,0.93-0.03,1.85-0.05,2.78c-0.4,0.09-0.81,0.26-1.2-0.07
		c0.27-13.87,0.54-27.73,0.81-41.6c0.11,0,0.23-0.01,0.34-0.01c0,0.41,0,0.82,0,1.23c0.01,11.92,0.01,23.83,0.02,35.75
		C154.75,281.64,154.79,282.28,154.81,282.92z"></path>
	<path d="M179.73,260.2c0.38,7.08,0.75,14.16,1.13,21.23c0.05,0.92,0.09,1.83,0.35,2.72
		c-0.78,0.29-1.58,0.37-2.41,0.26c0.17-4.62,0.33-9.23,0.51-13.85C179.45,267.11,179.59,263.66,179.73,260.2z"></path>
</g>
<g onclick="select(this)" class="" id="gola-secundaria" fill="#082890">
	<path d="M100.48,26.23c3.51-0.03,7.02-0.08,10.53-0.08c5.74,0.01,11.49,0.05,17.23,0.08
		c-2.13,1.99-4.43,3.8-6.41,5.96c-1.16,1.27-2.33,2.53-3.12,4.08c-2.94,0.63-5.85,0.72-8.72-0.36c-2.37-3.24-5.29-5.93-8.31-8.53
		C101.27,27.02,100.89,26.62,100.48,26.23z"></path>
</g>
<g onclick="select(this)" class="" id="estampa-secundaria" fill="#ffffff">
	<path d="M154.81,282.92c0.23-0.5,0.14-1.02,0.15-1.54c0.05-6.88,0-13.76,0.16-20.64
		c0.16-7.04,0.11-14.08,0.18-21.12c0.19-18.36,0.36-36.71,0.54-55.07c0.16-16.52,0.32-33.03,0.48-49.55
		c0.08-8.92,0.15-17.84,0.23-26.76c0.05-5.72,0.11-11.44,0.17-17.16c0-0.34,0.04-0.68,0.07-1.03c0.12,0,0.25,0,0.37,0
		c0.75,28.07,1.5,56.14,2.25,84.21c0.69-31.41,0.78-62.82,1.28-94.23c0.74,28.86,1.48,57.71,2.22,86.57
		c1.02-28.87,1.23-57.75,1.94-86.63c0.48,31.67,0.96,63.34,1.43,95.01c0.1,0,0.19,0,0.29,0c0.79-32.87,1.57-65.74,2.36-98.61
		c0.08,0,0.16,0,0.24,0c0,0.43,0,0.87,0,1.3c0.11,9.08,0.22,18.16,0.35,27.23c0.24,17.16,0.49,34.31,0.73,51.47
		c0.27,19.47,0.72,38.94,0.6,58.43c-0.14,23.04-0.02,46.07,0,69.11c0,0.4,0.03,0.8,0.04,1.2c-1.41,0.49-2.9,0.3-4.34,0.39
		c-3.69,0.22-7.38,0.21-11.08,0.29c-0.23,0-0.47-0.07-0.7-0.1C154.78,284.77,154.8,283.85,154.81,282.92z"></path>
	<path d="M57.17,284.88c0.04-0.48,0.11-0.95,0.11-1.43c0-22.08,0.05-44.16-0.02-66.23
		c-0.04-11.76-0.05-23.51,0.16-35.27c0.2-11.72,0.33-23.43,0.5-35.15c0.24-16.56,0.47-33.11,0.72-49.66
		c0.1-6.56,0.24-13.11,0.35-19.67c0.01-0.84,0-1.67,0.18-2.51c0.77,32.35,1.54,64.7,2.31,97.05c0.14,0,0.27,0,0.41,0
		c0.43-28.81,0.87-57.62,1.3-86.44c0.11,0,0.23,0,0.34,0c0.43,26.42,0.85,52.83,1.28,79.25c0.15,0,0.31,0,0.46,0.01
		c0.72-28.34,1.45-56.68,2.17-85.02c0.05,0,0.11,0,0.16,0c0.27,32.59,0.54,65.18,0.81,97.77c0.07,0,0.14,0,0.21,0
		c0.83-31.17,1.67-62.35,2.5-93.52c0.1,0,0.21,0,0.31,0c0,3.22-0.01,6.43,0,9.65c0.04,7.8,0.08,15.6,0.15,23.4
		c0.15,17.08,0.33,34.15,0.49,51.23c0.09,9.32,0.15,18.64,0.24,27.95c0.15,16,0.31,31.99,0.47,47.99
		c0.14,13.44,0.28,26.87,0.42,40.31c0,0.32,0.03,0.64,0.04,0.96c-2.11,0.2-4.23,0.08-6.34,0.02c-2.99-0.08-5.97-0.29-8.96-0.44
		C57.68,285.09,57.4,285.08,57.17,284.88z"></path>
	<path d="M122.42,286.41c0.1-8.8,0.22-17.6,0.31-26.39c0.17-17.28,0.32-34.55,0.49-51.83
		c0.15-14.64,0.32-29.27,0.47-43.91c0.17-17.04,0.32-34.07,0.49-51.11c0.05-5.4,0.13-10.8,0.19-16.2c0-0.39,0-0.77,0.21-1.16
		c0.82,30.05,1.64,60.11,2.46,90.16c0.07,0,0.14,0,0.21,0c0.28-30.77,0.56-61.54,0.84-92.32c0.07,0,0.14,0,0.21,0
		c0.73,27.71,1.45,55.41,2.18,83.12c0.1,0,0.2,0,0.31,0c0.47-27.95,0.95-55.9,1.42-83.85c0.07,0,0.14,0,0.21,0
		c0.49,31.26,0.97,62.52,1.46,93.78c0.06,0,0.13,0,0.19,0c0.83-32.17,1.65-64.34,2.48-96.52c0.08,0,0.17,0,0.25,0
		c0,2.1-0.05,4.2,0.01,6.3c0.53,17.62,0.58,35.25,0.79,52.88c0.12,10.28,0.28,20.55,0.41,30.83c0.17,13.36,0.43,26.71,0.47,40.07
		c0.06,21.4-0.02,42.79-0.03,64.19c0,0.49-0.22,1.05,0.24,1.48c0,0-0.02,0.1-0.02,0.1c-2.35,0.24-4.7,0.27-7.06,0.3
		c-2.64,0.04-5.27,0.15-7.91,0.2C123.28,286.54,122.82,286.67,122.42,286.41z"></path>
	<path d="M90.02,285.67c0.31-0.29,0.19-0.68,0.19-1.02c0-14.88,0.18-29.76-0.08-44.64
		c-0.26-14.96,0.13-29.91,0.21-44.87c0.06-10.96,0.28-21.91,0.41-32.87c0.18-14.28,0.34-28.55,0.53-42.83
		c0.11-8.56,0.25-17.11,0.38-25.67c0-0.31,0-0.63,0.15-0.94c1.22,31.99,1.63,64.01,2.74,96c0.49-32.2,0.97-64.41,1.46-96.61
		c0.06,0,0.13,0,0.19,0c0.49,29.8,0.98,59.6,1.47,89.4c0.06,0,0.11,0,0.17,0c0.77-29.79,1.54-59.58,2.31-89.36c0.06,0,0.13,0,0.19,0
		c0.26,30.49,0.51,60.98,0.77,91.48c0.12,0,0.25,0,0.37,0c0.85-30.16,1.71-60.32,2.56-90.49c0.07,0,0.14,0,0.21,0
		c0,0.62,0,1.23,0,1.85c0.12,13.84,0.24,27.68,0.36,41.51c0.11,12.92,0.21,25.84,0.33,38.75c0.13,13.16,0.28,26.31,0.42,39.47
		c0.18,17,0.35,33.99,0.53,50.99c0.07,6.4,0.14,12.8,0.21,19.2c0,0.4,0.05,0.8,0.07,1.2c-1.79,0.26-3.56-0.08-5.34-0.11
		c-3.61-0.05-7.23-0.08-10.83-0.32C90.02,285.76,90.01,285.71,90.02,285.67z"></path>
	<path d="M138.47,28.86c0.02-0.39,0.37-0.5,0.61-0.67c2.88-2.08,5.58-4.37,8.02-6.94c1.61,2.02,3.87,3.19,6.04,4.42
		c1.25,0.71,1.63,1.49,1.61,2.91c-0.22,14.8-0.36,29.59-0.52,44.39c-0.19,17.8-0.37,35.59-0.56,53.39
		c-0.15,14.16-0.35,28.31-0.47,42.47c-0.06,7.36-0.01,14.72-0.01,22.07c-0.14,0-0.28,0-0.42,0.01c-0.75-25.3-1.51-50.59-2.26-75.89
		c-0.19,0-0.38,0-0.57,0c-0.22,23.64-0.45,47.28-0.67,70.92c-0.14,0-0.28,0-0.42,0c-0.67-23.07-1.34-46.14-2.02-69.21
		c-0.13,0-0.25,0-0.38,0c-0.41,22.36-0.81,44.72-1.22,67.07c-0.17,0-0.33,0-0.5,0c-0.39-23.01-0.78-46.03-1.18-69.04
		c-0.19,0-0.38,0-0.58,0c-0.73,28.08-1.47,56.16-2.2,84.27c-0.29-0.15-0.15-0.39-0.18-0.57c-0.03-0.2-0.01-0.4-0.02-0.6
		c-0.17-14.76-0.32-29.51-0.5-44.27c-0.15-12.4-0.32-24.79-0.47-37.19c-0.16-12.56-0.27-25.11-0.47-37.67
		c-0.25-16.23-0.43-32.47-0.38-48.71C138.77,29.63,139.03,29.12,138.47,28.86z"></path>
	<path d="M118.72,36.27c1.43,0.17,2.76-0.44,4.16-0.52c-0.89,0.16-0.76,0.85-0.76,1.48
		c-0.04,10.4-0.03,20.8-0.14,31.2c-0.17,16.96-0.42,33.91-0.62,50.87c-0.17,13.84-0.31,27.67-0.47,41.51
		c-0.16,14.2-0.32,28.39-0.49,42.59c-0.02,1.31-0.14,2.63-0.29,3.93c-0.73-28.45-1.46-56.91-2.2-85.59
		c-0.71,0.47-0.55,0.9-0.55,1.25c-0.11,8.12-0.2,16.24-0.31,24.35c-0.15,11.52-0.31,23.03-0.48,34.55
		c-0.09,6.2-0.22,12.39-0.34,18.59c-0.01,0.43,0.22,0.99-0.4,1.27c-0.29-0.26-0.17-0.59-0.17-0.88
		c-0.18-11.72-0.33-23.43-0.51-35.15c-0.1-6.32-0.07-12.64-0.39-18.95c-0.28-5.31-0.21-10.61-0.21-15.92c0-0.4,0.16-0.87-0.53-1.51
		c-0.73,29.69-1.45,59.08-2.17,88.47c-0.03,0-0.07,0-0.1,0c-0.29-34.44-0.59-68.88-0.88-103.32c-0.05,0-0.1,0-0.15,0
		c-0.8,29.63-1.6,59.27-2.4,89.16c-0.45-0.61-0.33-1.01-0.33-1.38c-0.1-9.16-0.19-18.32-0.28-27.47
		c-0.16-17.24-0.32-34.47-0.49-51.71c-0.15-15.64-0.32-31.27-0.48-46.91c-0.13-13.04-0.27-26.07-0.41-39.11
		c0-0.43,0.06-0.88-0.21-1.28c1.06-0.21,2.02,0.42,3.06,0.37c0.29-0.01,0.73,0.34,0.84-0.26C112.87,36.99,115.79,36.9,118.72,36.27z
		"></path>
	<path d="M82.05,21.59c2.36,2.54,5.04,4.71,7.84,6.72c-0.01,0.56-0.04,1.12-0.04,1.68
		c-0.05,13.24-0.06,26.48-0.16,39.71c-0.11,13.72-0.31,27.43-0.48,41.15c-0.15,12.36-0.33,24.71-0.49,37.07
		c-0.17,13.36-0.33,26.71-0.48,40.07c-0.03,3.16-0.01,6.31-0.17,9.47c-1.07-28.49-1.52-56.99-2.74-85.48
		c-0.73,24.93-0.81,49.87-1.84,74.79c-0.45-24.64-0.89-49.29-1.34-73.93c-0.07,0-0.13,0-0.2,0c-0.73,24.81-1.46,49.62-2.19,74.43
		c-0.12,0-0.23,0-0.35-0.01c-0.26-27.28-0.52-54.56-0.77-81.84c-0.06,0-0.13,0-0.19,0c-0.8,26.67-1.59,53.33-2.4,80.2
		c-0.6-0.48-0.44-0.94-0.44-1.33c-0.02-3.88,0-7.76-0.04-11.64c-0.17-16.08-0.36-32.15-0.53-48.23
		c-0.16-14.92-0.31-29.83-0.47-44.75c-0.16-14.76-0.33-29.51-0.5-44.27c-0.03-2.68-0.07-5.36-0.12-8.04
		c-0.01-0.54,0.04-0.95,0.6-1.28C77.08,24.64,79.56,23.11,82.05,21.59z"></path>
	<path d="M181.93,119.7c-0.17,2.33-0.63,4.62-0.98,6.92c-0.27,1.72-0.46,3.46-0.68,5.19
		c-0.05,0.38,0.09,0.81-0.23,1.13c-0.21-0.74-0.19-1.5-0.21-2.26c-0.25-9.19-0.5-18.39-0.75-27.58c-0.01-0.27,0.06-0.56-0.35-0.8
		c-0.44,5.66-0.34,11.34-0.51,17.01c-0.17,5.72-0.22,11.43-0.32,17.15c-0.09,5.76-0.17,11.52-0.27,17.27
		c-0.1,5.69-0.2,11.37-0.31,17.06c-0.14,0-0.27,0-0.41,0c-0.42-25.3-0.84-50.61-1.26-75.91c-0.15,0-0.3,0-0.45,0
		c-0.77,29.88-1.54,59.77-2.3,89.16c-0.1-0.54-0.21-1.55-0.22-2.57c-0.19-14.32-0.39-28.63-0.58-42.95
		c-0.2-15.36-0.36-30.71-0.61-46.07c-0.3-18.99-0.64-37.99-0.56-56.98c0.01-1.56,0.01-1.57,1.46-1.05c4.39,1.57,8.9,2.71,13.4,3.92
		c0.68,0.18,0.91,0.44,0.9,1.13c-0.13,9.24-0.24,18.47-0.36,27.71c0,0.28-0.01,0.56-0.02,0.84c-0.12,10.72-0.23,21.43-0.34,32.15
		c-0.01,0.56,0.02,1.12,0.02,1.68c-0.25,1.89-0.94,3.66-1.37,5.51c-0.45,1.92-0.97,3.81-1.45,5.72c-0.03-0.24-0.09-0.47-0.09-0.71
		c-0.08-6.26-0.41-12.51-0.7-18.76c-0.01-0.19-0.04-0.39-0.06-0.58c-0.13,0-0.26,0-0.39,0C181.93,101.92,181.93,110.81,181.93,119.7
		z"></path>
	<path d="M50.71,170.52c-0.02-0.44-0.05-0.87-0.06-1.31c-0.09-4.9-0.11-9.8-0.28-14.7
		c-0.16-4.64-0.48-9.28-0.73-13.91c-0.09-8.62-0.08-17.24-0.59-25.86c-0.26-4.38-0.18-8.79-0.04-13.18
		c0.03-0.87,0.12-1.77-0.23-2.81c-0.37,0.46-0.29,0.82-0.3,1.15c-0.18,7.43-0.35,14.87-0.53,22.3c-0.01,0.45,0.18,0.97-0.29,1.34
		c-0.62-1.69-0.64-3.49-0.99-5.23c-0.43-2.13-0.73-4.28-1.09-6.42c-0.05-8.55-0.1-17.1-0.15-25.65c-0.31,4.23-0.42,8.45-0.56,12.68
		c-0.09,2.91-0.23,5.81-0.34,8.72c-0.9-2.27-1.27-4.7-2.06-7c-0.29-0.85-0.38-1.78-0.93-2.53c-0.3-0.6-0.5-1.2-0.25-1.89
		c0.08-0.21,0.02-0.48,0.02-0.71c-0.04-11.39-0.04-22.79-0.12-34.18c-0.05-7.24-0.19-14.47-0.34-21.71c-0.02-1,0.24-1.46,1.26-1.71
		c4.52-1.12,9.05-2.2,13.47-3.68c0.96-0.32,1.06,0.02,1.07,0.84c0.1,19.83-0.33,39.66-0.63,59.49c-0.17,10.92-0.25,21.83-0.4,32.75
		c-0.15,11.87-0.33,23.75-0.5,35.62c-0.05,3.4-0.08,6.8-0.15,10.19c-0.02,0.74-0.19,1.48-0.31,2.37c-0.4-0.88-0.42-1.65-0.42-2.43
		c-0.03-15.68-0.77-31.34-1.04-47.01c-0.14-8.27-0.47-16.54-0.64-24.82c-0.08-3.95-0.01-7.91-0.01-11.87c-0.14,0-0.28,0-0.42-0.01
		c-0.08,1.4-0.2,2.79-0.22,4.19c-0.13,9.04-0.21,18.07-0.37,27.11c-0.28,16.39-0.69,32.78-0.74,49.17
		C50.79,170.05,50.74,170.28,50.71,170.52z"></path>
	<path d="M38.92,89.11c-0.54-0.87-0.72-1.77-0.69-2.76c0.19-5.63,0.34-11.26,0.51-16.77
		C39.02,76,39,82.55,38.92,89.11z"></path>
	<path d="M189.64,93.19c-0.32-0.14-0.49,0.04-0.62,0.29c0-6.17,0-12.33,0-18.49c0.72,0.28,0.57,0.73,0.58,1.12
		c0.13,4.59,0.21,9.18,0.38,13.76C190.03,91,190.07,92.11,189.64,93.19z"></path>
	<path d="M192.94,84.17c0-5.98,0-12.05,0-18.11c0.06,0,0.12,0,0.18,0c0.12,5.21,0.22,10.43,0.37,15.64
		C193.51,82.65,193.37,83.51,192.94,84.17z"></path>
	<path d="M122.88,35.76c0.6-0.15,1.21-0.3,1.81-0.45C124.12,35.63,123.5,35.72,122.88,35.76z"></path>
	<path d="M47.64,123.73c0.28,0.23,0.24,0.52,0.14,0.82C47.47,124.32,47.55,124.03,47.64,123.73z"></path>
</g>
<g onclick="select(this)" class="" id="estampa-primaria" fill="#bf0811">
	<path d="M149.48,285.73c-0.14,0-0.28,0-0.41,0c-0.07-2.28-0.18-4.55-0.21-6.83c-0.12-9.07-0.22-18.15-0.31-27.22
		c-0.03-3.15,0-6.29,0-9.44c-0.13,0-0.26,0-0.39,0c-0.2,4.11-0.37,8.22-0.59,12.33c-0.37,6.86-0.76,13.71-1.14,20.57
		c-0.2,3.55-0.38,7.1-0.57,10.65c-0.18,0-0.36,0.01-0.54,0.01c-0.11-3.76-0.22-7.51-0.31-11.27c-0.2-8.27-0.41-16.55-0.59-24.82
		c-0.04-1.88-0.01-3.76-0.01-5.63c-0.11,0-0.23,0-0.34,0c-0.68,13.92-1.36,27.85-2.03,41.77c-0.14,0-0.27,0-0.41,0
		c-0.36-12.14-0.71-24.27-1.07-36.41c-0.3,0.12-0.36,0.23-0.36,0.34c-0.31,7.38-0.61,14.76-0.92,22.13c-0.19,4.67-0.38,9.33-0.57,14
		c-0.45-0.43-0.24-0.99-0.24-1.48c0.01-21.4,0.09-42.79,0.03-64.19c-0.04-13.36-0.3-26.71-0.47-40.07
		c-0.13-10.28-0.29-20.55-0.41-30.83c-0.21-17.63-0.26-35.25-0.79-52.88c-0.06-2.1-0.01-4.2-0.01-6.3c-0.08,0-0.17,0-0.25,0
		c-0.83,32.17-1.65,64.34-2.48,96.52c-0.06,0-0.13,0-0.19,0c-0.49-31.26-0.97-62.52-1.46-93.78c-0.07,0-0.14,0-0.21,0
		c-0.47,27.95-0.95,55.9-1.42,83.85c-0.1,0-0.2,0-0.31,0c-0.73-27.71-1.45-55.41-2.18-83.12c-0.07,0-0.14,0-0.21,0
		c-0.28,30.77-0.56,61.54-0.84,92.32c-0.07,0-0.14,0-0.21,0c-0.82-30.05-1.64-60.11-2.46-90.16c-0.21,0.39-0.21,0.78-0.21,1.16
		c-0.06,5.4-0.14,10.8-0.19,16.2c-0.17,17.04-0.32,34.07-0.49,51.11c-0.15,14.64-0.32,29.27-0.47,43.91
		c-0.17,17.28-0.32,34.55-0.49,51.83c-0.09,8.8-0.2,17.6-0.31,26.39c-0.25,0-0.49,0.01-0.74,0.01c-0.42-2.1-0.21-4.23-0.31-6.34
		c-0.42-8.9-0.81-17.8-1.22-26.7c-0.12-2.58-0.27-5.16-0.4-7.73c-0.44,10.23-0.7,20.46-0.96,30.68c-0.09,3.4-0.2,6.79-0.3,10.18
		c-0.14,0-0.28,0-0.42,0c-0.31-5.94-0.73-11.88-0.91-17.83c-0.25-8.27-0.95-16.52-1.06-24.79c0-0.29,0.18-0.71-0.38-0.93
		c-0.36,14.06-0.71,28.05-1.07,42.03c-0.12,0-0.24,0-0.35,0c-0.36-13.99-0.72-27.98-1.08-42.09c-0.41,0.25-0.36,0.46-0.36,0.65
		c-0.04,5.4-0.44,10.78-0.71,16.17c-0.32,6.3-0.46,12.62-0.85,18.92c-0.16,2.59,0.01,5.2-0.41,7.78c-0.14-0.01-0.28-0.01-0.42-0.02
		c-0.09-2.72-0.19-5.43-0.26-8.15c-0.26-9.83-0.5-19.66-0.76-29.48c-0.01-0.27,0.17-0.65-0.35-0.79c-0.04,0.16-0.11,0.3-0.11,0.44
		c-0.15,3.23-0.3,6.47-0.43,9.7c-0.27,6.75-0.46,13.5-0.84,20.24c-0.15,2.63,0.01,5.28-0.41,7.89c-0.36-0.01-0.72-0.02-1.09-0.03
		c-0.03-0.4-0.07-0.8-0.07-1.2c-0.07-6.4-0.14-12.8-0.21-19.2c-0.18-17-0.35-33.99-0.53-50.99c-0.14-13.16-0.3-26.31-0.42-39.47
		c-0.12-12.92-0.22-25.84-0.33-38.75c-0.12-13.84-0.24-27.68-0.36-41.51c-0.01-0.62,0-1.23,0-1.85c-0.07,0-0.14,0-0.21,0
		c-0.85,30.16-1.71,60.32-2.56,90.49c-0.12,0-0.25,0-0.37,0c-0.26-30.49-0.51-60.98-0.77-91.48c-0.06,0-0.13,0-0.19,0
		c-0.77,29.79-1.54,59.58-2.31,89.36c-0.06,0-0.11,0-0.17,0c-0.49-29.8-0.98-59.6-1.47-89.4c-0.06,0-0.13,0-0.19,0
		c-0.49,32.2-0.97,64.41-1.46,96.61c-1.12-32-1.52-64.01-2.74-96c-0.15,0.32-0.15,0.63-0.15,0.94c-0.13,8.56-0.27,17.11-0.38,25.67
		c-0.19,14.28-0.35,28.55-0.53,42.83c-0.14,10.96-0.36,21.91-0.41,32.87c-0.08,14.96-0.47,29.91-0.21,44.87
		c0.26,14.87,0.07,29.76,0.08,44.64c0,0.35,0.12,0.73-0.19,1.02c-0.08-1.28-0.18-2.55-0.23-3.83c-0.36-9.35-0.71-18.7-1.08-28.05
		c-0.06-1.41-0.04-2.84-0.58-4.35c-0.16,6.16-0.32,12.15-0.49,18.15c-0.17,6.04-0.36,12.07-0.53,18.1c-0.14,0-0.28,0-0.42,0
		c-0.68-13.87-1.35-27.74-2.03-41.61c-0.11,0-0.23,0-0.34,0c0,1.87,0.04,3.74-0.01,5.61c-0.18,8.27-0.39,16.53-0.59,24.8
		c-0.09,3.71-0.2,7.42-0.31,11.14c-0.19,0-0.37,0-0.56-0.01c-0.2-4.11-0.39-8.21-0.61-12.32c-0.4-7.41-0.81-14.83-1.22-22.24
		c-0.16-2.95-0.34-5.9-0.51-8.86c-0.18,0.72-0.17,1.43-0.18,2.15c-0.13,7.67-0.28,15.34-0.38,23.01
		c-0.08,6.07-0.08,12.15-0.31,18.22c-0.14,0-0.29,0-0.43,0c-0.98-15.62-1.96-31.24-2.94-46.87c-0.24,0.66-0.34,1.32-0.34,1.99
		c-0.09,8.91-0.16,17.82-0.26,26.73c-0.07,6.03-0.2,12.07-0.31,18.1l-0.11,0.02c0,0-0.11-0.02-0.11-0.02
		c-0.26-13.84-0.53-27.67-0.79-41.51c-0.12,0-0.24,0-0.36,0c0,0.47,0,0.95,0,1.42c0,13.35-0.01,26.71-0.01,40.06
		c-0.24,0-0.48,0-0.73,0c-0.01-0.32-0.04-0.64-0.04-0.96c-0.14-13.44-0.29-26.87-0.42-40.31c-0.16-16-0.32-31.99-0.47-47.99
		c-0.09-9.32-0.15-18.64-0.24-27.95c-0.16-17.08-0.34-34.15-0.49-51.23c-0.07-7.8-0.11-15.6-0.15-23.4c-0.02-3.22,0-6.43,0-9.65
		c-0.1,0-0.21,0-0.31,0c-0.83,31.17-1.67,62.35-2.5,93.52c-0.07,0-0.14,0-0.21,0c-0.27-32.59-0.54-65.18-0.81-97.77
		c-0.05,0-0.11,0-0.16,0c-0.72,28.34-1.45,56.68-2.17,85.02c-0.15,0-0.31,0-0.46-0.01c-0.43-26.42-0.85-52.83-1.28-79.25
		c-0.11,0-0.23,0-0.34,0c-0.43,28.81-0.87,57.62-1.3,86.44c-0.14,0-0.27,0-0.41,0c-0.77-32.35-1.54-64.7-2.31-97.05
		c-0.18,0.84-0.17,1.67-0.18,2.51c-0.11,6.56-0.25,13.11-0.35,19.67c-0.25,16.55-0.49,33.11-0.72,49.66
		c-0.17,11.72-0.3,23.43-0.5,35.15c-0.2,11.76-0.19,23.51-0.16,35.27c0.07,22.08,0.03,44.16,0.02,66.23c0,0.48-0.07,0.95-0.11,1.43
		c-0.18-0.02-0.37-0.04-0.55-0.05c-0.21-7.15-0.44-14.3-0.64-21.45c-0.28-9.87-0.56-19.74-0.82-29.61c-0.05-1.83-0.01-3.67-0.01-5.5
		c-0.19,0-0.38,0-0.58,0.01c0,1.55,0.04,3.11-0.01,4.66c-0.34,12.39-0.68,24.77-1.04,37.16c-0.14,4.79-0.31,9.59-0.47,14.38
		c-0.15-0.02-0.31-0.03-0.46-0.05c-0.16-6.03-0.34-12.06-0.48-18.09c-0.18-7.47-0.34-14.94-0.5-22.4
		c-0.11-5.31-0.2-10.62-0.31-15.94c-0.01-0.4,0.1-0.85-0.29-1.35c-0.04,0.31-0.08,0.45-0.08,0.6c-0.1,8.95-0.47,17.89-0.75,26.83
		c-0.23,7.27-0.3,14.54-0.58,21.8c-0.1,2.71-0.08,5.43-0.26,8.14c-0.53,0.05-0.89-0.31-1.29-0.56c0.06-0.34,0.15-0.69,0.19-1.03
		c0.31-3.33,0.19-6.69,0.4-10.03c0.36-5.61,0.58-11.24,0.76-16.86c0.15-4.47,0.32-8.94,0.47-13.41c0.21-6.03,0.33-12.06,0.51-18.09
		c0.14-4.67,0.22-9.35,0.26-14.02c0.12-13.16,0.06-26.32,0.07-39.48c0.03-0.24,0.07-0.47,0.08-0.71
		c0.05-16.39,0.46-32.78,0.74-49.17c0.15-9.04,0.23-18.07,0.37-27.11c0.02-1.4,0.15-2.79,0.22-4.19c0.14,0,0.28,0,0.42,0.01
		c0,3.96-0.07,7.91,0.01,11.87c0.18,8.27,0.5,16.54,0.64,24.82c0.27,15.67,1.01,31.33,1.04,47.01c0,0.78,0.02,1.55,0.42,2.43
		c0.12-0.89,0.29-1.63,0.31-2.37c0.07-3.4,0.1-6.8,0.15-10.19c0.17-11.87,0.34-23.75,0.5-35.62c0.14-10.92,0.23-21.83,0.4-32.75
		c0.31-19.83,0.73-39.66,0.63-59.49c0-0.82-0.1-1.16-1.07-0.84c-4.42,1.48-8.95,2.57-13.47,3.68c-1.02,0.25-1.28,0.71-1.26,1.71
		c0.15,7.24,0.29,14.47,0.34,21.71c0.08,11.39,0.09,22.79,0.12,34.18c0,0.24,0.06,0.5-0.02,0.71c-0.26,0.69-0.06,1.29,0.25,1.89
		c-0.53,0.24-0.33,0.73-0.23,1.03c0.44,1.45,0.57,2.96,0.77,4.45c0.42,3.06,1.01,6.11,1.1,9.21c-1.48,0.58-2.99,1.07-4.58,1.19
		c-6.86,0.51-13.72,0.34-20.55-0.3c-5.49-0.51-10.82-1.92-15.93-4.05c1.8-9.43,2.67-19,4.23-28.46c0.85-5.16,1.17-10.4,2.28-15.54
		c1.88-8.66,4.88-16.81,10.51-23.8c1.89-2.34,3.97-4.5,6.33-6.37c1.37-1.08,2.44-2.5,3.97-3.41c0.29-0.17,0.56-0.42,0.87-0.58
		c6.95-3.38,14.11-6.31,21.24-9.28c7.11-2.97,14.03-6.32,20.72-10.16c1-0.58,1.91-1.24,2.68-2.15c1.01-1.17,2.28-2,3.95-1.91
		c-1.75,1.12-2.17,2.09-1.74,4.23c0.72,3.6,2.59,6.61,4.89,9.4c-2.49,1.51-4.97,3.05-7.48,4.52c-0.57,0.33-0.61,0.74-0.6,1.28
		c0.05,2.68,0.09,5.36,0.12,8.04c0.17,14.76,0.34,29.51,0.5,44.27c0.16,14.92,0.31,29.83,0.47,44.75
		c0.17,16.08,0.37,32.15,0.53,48.23c0.04,3.88,0.02,7.76,0.04,11.64c0,0.38-0.16,0.84,0.44,1.33c0.8-26.87,1.6-53.54,2.4-80.2
		c0.06,0,0.13,0,0.19,0c0.26,27.28,0.52,54.56,0.77,81.84c0.12,0,0.23,0,0.35,0.01c0.73-24.81,1.46-49.62,2.19-74.43
		c0.07,0,0.13,0,0.2,0c0.45,24.64,0.89,49.29,1.34,73.93c1.03-24.92,1.11-49.86,1.84-74.79c1.21,28.48,1.66,56.99,2.74,85.48
		c0.16-3.16,0.13-6.31,0.17-9.47c0.15-13.36,0.31-26.71,0.48-40.07c0.15-12.36,0.33-24.71,0.49-37.07
		c0.17-13.72,0.37-27.43,0.48-41.15c0.11-13.24,0.11-26.48,0.16-39.71c0-0.56,0.03-1.12,0.04-1.68c4.88,3.64,10.29,6.13,16.22,7.49
		c0.27,0.39,0.2,0.84,0.21,1.28c0.14,13.04,0.27,26.07,0.41,39.11c0.16,15.64,0.33,31.27,0.48,46.91
		c0.17,17.24,0.32,34.47,0.49,51.71c0.09,9.16,0.18,18.32,0.28,27.47c0,0.37-0.12,0.78,0.33,1.38c0.8-29.9,1.6-59.53,2.4-89.16
		c0.05,0,0.1,0,0.15,0c0.29,34.44,0.59,68.88,0.88,103.32c0.03,0,0.07,0,0.1,0c0.72-29.39,1.44-58.79,2.17-88.47
		c0.69,0.64,0.53,1.1,0.53,1.51c0,5.31-0.06,10.61,0.21,15.92c0.33,6.31,0.3,12.63,0.39,18.95c0.18,11.72,0.34,23.43,0.51,35.15
		c0,0.29-0.11,0.62,0.17,0.88c0.62-0.28,0.39-0.83,0.4-1.27c0.13-6.2,0.25-12.39,0.34-18.59c0.17-11.52,0.33-23.03,0.48-34.55
		c0.11-8.12,0.2-16.24,0.31-24.35c0-0.35-0.16-0.79,0.55-1.25c0.74,28.68,1.47,57.13,2.2,85.59c0.16-1.31,0.28-2.62,0.29-3.93
		c0.17-14.2,0.33-28.39,0.49-42.59c0.16-13.84,0.3-27.67,0.47-41.51c0.2-16.96,0.45-33.91,0.62-50.87c0.1-10.4,0.1-20.8,0.14-31.2
		c0-0.63-0.13-1.31,0.76-1.48l0,0c0.63-0.04,1.25-0.13,1.81-0.45c2.9-0.65,5.62-1.77,8.22-3.17c1.89-1.02,3.72-2.18,5.57-3.28
		c0.57,0.26,0.3,0.77,0.3,1.16c-0.05,16.24,0.12,32.47,0.38,48.71c0.2,12.56,0.31,25.11,0.47,37.67c0.15,12.4,0.32,24.79,0.47,37.19
		c0.18,14.76,0.33,29.51,0.5,44.27c0,0.2-0.01,0.4,0.02,0.6c0.03,0.18-0.11,0.42,0.18,0.57c0.73-28.11,1.47-56.19,2.2-84.27
		c0.19,0,0.38,0,0.58,0c0.39,23.01,0.78,46.03,1.18,69.04c0.17,0,0.33,0,0.5,0c0.41-22.36,0.81-44.72,1.22-67.07
		c0.13,0,0.25,0,0.38,0c0.67,23.07,1.34,46.14,2.02,69.21c0.14,0,0.28,0,0.42,0c0.22-23.64,0.45-47.28,0.67-70.92
		c0.19,0,0.38,0,0.57,0c0.75,25.3,1.51,50.59,2.26,75.89c0.14,0,0.28,0,0.42-0.01c0-7.36-0.05-14.72,0.01-22.07
		c0.12-14.16,0.32-28.31,0.47-42.47c0.19-17.8,0.37-35.59,0.56-53.39c0.16-14.8,0.3-29.59,0.52-44.39c0.02-1.42-0.36-2.2-1.61-2.91
		c-2.17-1.23-4.42-2.4-6.04-4.42c2.16-2.37,3.53-5.2,4.36-8.24c0.51-1.87,0.54-3.54-1.53-4.73c1.95-0.32,3.11,0.91,4.24,2.17
		c0.35,0.39,0.69,0.73,1.13,1.02c9.78,6.41,20.71,10.39,31.4,14.86c4.19,1.75,8.26,3.76,12.42,5.56c1.64,0.71,2.75,2.27,4.18,3.34
		c3.16,2.36,5.88,5.17,8.25,8.32c4.8,6.39,7.48,13.68,9.27,21.38c1.12,4.84,1.23,9.85,2.41,14.66c2.19,8.98,3.69,18.08,5.15,27.19
		c0.08,0.47,0.09,0.95,0.14,1.43c-0.63,0.45-1.36,0.69-2.1,0.85c-3.07,0.69-5.99,1.89-9.08,2.53c-3.87,0.8-7.75,1.52-11.67,1.94
		c-5.56,0.6-11.15,0.28-16.72,0.02c-1.12-0.05-2.2-0.38-3.17-0.98c0.89-6.54,2.15-13,3.85-19.38c0.43-1.08,0.39-2.18,0.35-3.32
		c-0.17-4.59-0.25-9.17-0.38-13.76c-0.01-0.38,0.14-0.84-0.58-1.12c0,6.16,0,12.33,0,18.49c-1.29,2.69-1.95,5.6-3.02,8.37
		c-0.01-0.56-0.03-1.12-0.02-1.68c0.11-10.72,0.23-21.43,0.34-32.15c0-0.28,0.01-0.56,0.02-0.84c0.12-9.24,0.23-18.47,0.36-27.71
		c0.01-0.68-0.22-0.94-0.9-1.13c-4.49-1.21-9.01-2.35-13.4-3.92c-1.45-0.52-1.45-0.51-1.46,1.05c-0.08,19,0.26,37.99,0.56,56.98
		c0.24,15.35,0.4,30.71,0.61,46.07c0.19,14.32,0.39,28.63,0.58,42.95c0.01,1.02,0.12,2.04,0.22,2.57c0.76-29.4,1.53-59.28,2.3-89.16
		c0.15,0,0.3,0,0.45,0c0.42,25.3,0.84,50.61,1.26,75.91c0.14,0,0.27,0,0.41,0c0.1-5.69,0.21-11.37,0.31-17.06
		c0.1-5.76,0.17-11.52,0.27-17.27c0.09-5.72,0.14-11.44,0.32-17.15c0.17-5.67,0.07-11.35,0.51-17.01c0.4,0.24,0.34,0.53,0.35,0.8
		c0.25,9.19,0.5,18.39,0.75,27.58c0.02,0.76,0,1.52,0.21,2.26c-0.25,2.81-0.54,5.62-0.73,8.43c-0.29,4.33-0.63,8.66-0.72,13
		c-0.08,3.88-0.31,7.75-0.3,11.62c0.04,17.43-0.25,34.87,0.23,52.3c0.15,5.27,0.08,10.55,0.34,15.82c0.14,2.84,0.11,5.67,0.22,8.5
		c0.23,5.86,0.44,11.73,0.66,17.59c-0.14,3.46-0.29,6.91-0.42,10.37c-0.18,4.62-0.34,9.23-0.51,13.85
		c-0.15,0.02-0.29,0.04-0.44,0.05c-0.33-10.38-0.67-20.77-0.98-31.15c-0.2-6.59-0.34-13.18-0.52-19.77
		c-0.01-0.23,0.14-0.58-0.27-0.66c-0.27,0.17-0.19,0.42-0.19,0.65c-0.14,5.15-0.29,10.3-0.41,15.46c-0.2,8.19-0.39,16.38-0.59,24.57
		c-0.09,3.76-0.2,7.51-0.31,11.26c-0.15,0.01-0.3,0.01-0.44,0.02c-0.04-0.48-0.12-0.95-0.13-1.43c-0.11-8.23-0.47-16.44-0.74-24.67
		c-0.23-7.15-0.38-14.29-0.58-21.44c-0.03-1.22-0.15-2.43-0.22-3.65c-0.17,0.19-0.22,0.38-0.22,0.57
		c-0.23,6.54-0.48,13.09-0.68,19.63c-0.2,6.79-0.26,13.58-0.57,20.36c-0.17,3.63-0.02,7.27-0.43,10.89
		c-0.07,0.02-0.14,0.03-0.21,0.02c-0.01-0.4-0.04-0.8-0.04-1.2c-0.01-23.04-0.14-46.08,0-69.11c0.12-19.48-0.33-38.95-0.6-58.43
		c-0.24-17.16-0.49-34.31-0.73-51.47c-0.13-9.08-0.23-18.16-0.35-27.23c-0.01-0.43,0-0.87,0-1.3c-0.08,0-0.16,0-0.24,0
		c-0.79,32.87-1.57,65.74-2.36,98.61c-0.1,0-0.19,0-0.29,0c-0.48-31.67-0.96-63.34-1.43-95.01c-0.72,28.88-0.92,57.76-1.94,86.63
		c-0.74-28.86-1.48-57.71-2.22-86.57c-0.49,31.41-0.59,62.82-1.28,94.23c-0.75-28.07-1.5-56.14-2.25-84.21c-0.12,0-0.25,0-0.37,0
		c-0.02,0.34-0.06,0.68-0.07,1.03c-0.06,5.72-0.12,11.44-0.17,17.16c-0.08,8.92-0.15,17.84-0.23,26.76
		c-0.15,16.52-0.32,33.03-0.48,49.55c-0.18,18.36-0.35,36.71-0.54,55.07c-0.07,7.04-0.02,14.08-0.18,21.12
		c-0.15,6.88-0.11,13.76-0.16,20.64c0,0.51,0.08,1.04-0.15,1.54c-0.02-0.64-0.06-1.28-0.06-1.92c-0.01-11.92-0.02-23.83-0.02-35.75
		c0-0.41,0-0.82,0-1.23c-0.11,0-0.23,0.01-0.34,0.01c-0.27,13.87-0.54,27.73-0.81,41.6l-0.11,0.02c0,0-0.11-0.01-0.11-0.01
		c-0.43-15.64-0.39-31.28-0.91-46.92C151.45,254.39,150.47,270.06,149.48,285.73z M38.92,89.11C39,82.55,39.02,76,38.74,69.58
		c-0.16,5.51-0.31,11.14-0.51,16.77C38.2,87.34,38.38,88.24,38.92,89.11z M192.94,84.17c0.44-0.66,0.58-1.52,0.55-2.47
		c-0.15-5.21-0.25-10.43-0.37-15.64c-0.06,0-0.12,0-0.18,0C192.94,72.13,192.94,78.19,192.94,84.17z"></path>
	<path d="M100.48,26.23c-5.09-4.22-10.76-7.8-14.7-13.29c-0.7-0.97-1.27-2.02-1.74-3.14
		c-0.37-0.87-0.09-1.03,0.73-0.95c2.82,0.27,5.64,0.53,8.46,0.77c3.46,0.3,6.91,0.66,10.37,0.86c3.9,0.22,7.81,0.64,11.72,0.48
		c6.18-0.25,12.36-0.54,18.52-1.1c3.26-0.3,6.52-0.52,9.79-0.76c1.27-0.09,1.38,0.07,0.8,1.24c-1.43,2.91-3.46,5.38-5.81,7.57
		c-3.25,3.02-6.91,5.55-10.38,8.31c-5.75-0.03-11.49-0.07-17.23-0.08C107.5,26.15,103.99,26.2,100.48,26.23z"></path>
	<path d="M181.93,119.7c0-8.89,0-17.78,0-26.67c0.13,0,0.26,0,0.39,0c0.02,0.19,0.05,0.39,0.06,0.58
		c0.29,6.25,0.62,12.5,0.7,18.76c0,0.24,0.06,0.47,0.09,0.71C182.76,115.28,182.35,117.49,181.93,119.7z"></path>
	<path d="M47.67,123.53c0.46-0.37,0.28-0.89,0.29-1.34c0.19-7.43,0.36-14.87,0.53-22.3c0.01-0.33-0.07-0.69,0.3-1.15
		c0.35,1.04,0.26,1.95,0.23,2.81c-0.14,4.4-0.22,8.8,0.04,13.18c0.51,8.62,0.5,17.23,0.59,25.86c-0.15-1.28-0.34-2.55-0.44-3.83
		c-0.32-4.09-0.83-8.16-1.41-12.22c0.09-0.3,0.13-0.59-0.14-0.82C47.68,123.67,47.69,123.6,47.67,123.53z"></path>
	<path d="M44.53,107.63c0.12-2.91,0.25-5.81,0.34-8.72c0.14-4.23,0.25-8.45,0.56-12.68
		c0.05,8.55,0.1,17.1,0.15,25.65C45.06,110.51,44.89,109.05,44.53,107.63z"></path>
	<polygon fill="#AC0D0B" points="114.38,286.25 114.36,286.17 114.42,286.18 	"></polygon>
</g>
</svg>
