<!--?xml version="1.0" encoding="utf-8"?-->
<!-- Generator: Adobe Illustrator 24.2.3, SVG Export Plug-In . SVG Version: 6.00 Build 0)  -->
<svg version="1.1" id="Camada_1" xmlns="http://www.w3.org/2000/svg" xmlns:xlink="http://www.w3.org/1999/xlink" x="0px" y="0px" viewBox="0 0 234 419" enable-background="new 0 0 234 419" xml:space="preserve">
<g onclick="select(this)" class="" id="c-estampa-primaria" fill="#ffffff">
	<path d="M46.7812424,118.801651c-0.0767593-1.3550415-0.1535225-2.7100906-0.2302551-4.065239
		c0.4013672-3.5744247-0.8350601-6.9751587-1.197998-10.4692993c-0.2240105-2.1566772,0.1601028-4.4605942-0.9499817-6.5027618
		c0.2355576-4.1750107-0.9775124-8.179451-1.426548-12.2726135c-0.4060669-3.7014923-1.5520096-7.0640182-3.7860184-10.060585
		c-0.5201302-0.6976852-0.8810234-1.516983-1.2921524-2.2925415c-1.677639-3.1646805-2.3670807-6.6731339-3.4572754-10.0403824
		c-2.0804443-6.425808-3.4284821-12.9882317-3.4827595-19.7759361c-0.0089321-1.1172714,0.2226963-2.2094421,0.2825794-3.323185
		c0.1069202-1.9885635-0.031992-3.9983482,0.41399-5.9693832c0.1208649-0.5341721,0.1112595-1.1201401-0.2297115-1.6233521
		c4.2176952-1.9782009,8.3974285-4.0383091,12.7343388-5.7551689c7.1586761-2.8339195,14.2072411-5.9264126,21.2225914-9.0958195
		c3.9044266-1.7639484,7.5148468-4.0420628,11.1217957-6.3282051c0.4499207-0.285161,0.7661057-0.6875992,1.1115265-1.0751286
		c1.1253662-1.2625484,2.460701-2.1400995,4.2184219-2.1968918c2.0342941,0.2981586,4.0931244,0.332696,6.1293793,0.6633081
		c8.3689957,1.3588123,16.8237305,1.8147812,25.2742157,2.3104897c5.0438004,0.2958727,10.0588913-0.1554689,15.0837708-0.4571857
		c4.4263611-0.2657785,8.8530426-0.5102081,13.2524109-1.0787601c3.1972351-0.4131947,6.3849487-0.8995619,9.5781403-1.3446274
		c0.7452545-0.1038756,1.4954529-0.1725669,2.2436371-0.2575908c2.121933,0.0199952,3.6186676,1.1140513,4.9762115,2.6535583
		c1.0045471,1.1392441,2.449173,1.775898,3.7708893,2.5178118c9.4977875,5.3313141,19.4880676,9.6015377,29.5888672,13.6187572
		c3.9791565,1.5825596,7.694046,3.71805,11.6465302,5.3458309c0.175293,0.0721912,0.3132019,0.2351036,0.4684601,0.3557205
		c-0.4079285,0.5212479-0.4852905,1.2034378-0.2796631,1.7151718c0.4703064,1.1705475,0.0795288,2.3345184,0.1885529,3.492691
		c0.2788696,2.9625435,0.4180298,5.9366302,0.21492,8.9047165c-0.1652222,2.4147797-0.3381958,4.8516769-0.8126831,7.2176094
		c-0.8205414,4.091507-1.927063,8.1246033-3.2659149,12.0813484c-0.7891998,2.3323593-1.2008057,4.7971497-2.3715668,6.9949417
		c-0.8932037,1.6767578-1.6652374,3.4834824-3.0967407,4.7557755c-0.9084167,0.8073883-1.5977325,1.6723328-1.9496765,2.7775726
		c-1.364624,4.2856903-1.6241455,8.7427216-1.8916321,13.1865921c-0.1507416,2.5039444-0.2486572,4.9903641-0.9338226,7.4368515
		c-0.6354523,2.2689285-0.8999939,4.6388016-0.7013855,6.9787903c0.1374512,1.619606-0.1228943,3.1615524-0.2654114,4.7354507
		c-0.199707,2.6281662-0.6735229,5.2377548-0.5346069,7.8888626c-0.4046021,0.2297211-0.2497864,0.6383972-0.2887878,0.9698486
		c-1.2409821,10.5508347-1.5160522,21.1339188-0.9441376,31.7361374c0.2012024,3.7296448-0.1597748,7.4324341-0.3361053,11.1412354
		c-0.262619,5.5241699,0.213913,11.0307312,0.1908417,16.5469666c-0.0117188,2.8013611-0.1040344,5.5931549-0.4458923,8.3774872
		c-0.229599,1.8701782-0.2544708,3.7494659,0.0692902,5.618988c0.0408783,0.2360382,0.1015015,0.4797211,0.0812073,0.7136383
		c-0.2680206,3.0862274,0.4954071,5.9898071,1.3647308,8.9197235c1.7740479,5.9790039,1.9671478,12.1114349,1.4671631,18.2951355
		c-0.304718,3.7687531-0.8326721,7.5328827-0.0215759,11.3268585c0.2705383,1.2654877,0.1589813,2.6315765,0.0978851,3.9459076
		c-0.3535004,7.6035309,0.7575989,15.1347504,1.1002197,22.7034912c0.2419739,5.3453979,0.699646,10.6801758,0.9318695,16.0290222
		c0.0671234,1.5462036,0.2884521,3.096344,0.2848511,4.6539917c-0.0040741,1.7576904-0.2527008,2.1624756-1.9380493,2.6928101
		c-4.9689331,1.5635681-10.0740662,2.5220642-15.2290955,3.1793518c-11.8852539,1.5155029-23.8502808,1.6738586-35.8022308,1.801239
		c-20.6729507,0.2202759-41.3482971,0.5737-62.0217361,0.2687988c-10.004837-0.1476135-19.9621696-1.0458984-29.6603622-3.7771912
		c-3.6833267-1.037323-3.8044777-1.0596008-3.5799179-4.8108521c0.4223289-7.0551758,0.9893608-14.1017761,1.5130119-21.1507263
		c0.2370186-3.1905823-0.110363-6.4012756,0.3509216-9.5829163c0.0802193-0.55336,0.0910225-1.1242676,0.2354774-1.6596527
		c0.8587952-3.1829681,0.0915489-6.3565979-0.0495949-9.5281372c-0.2078438-4.6702271,0.2217903-9.2737427,1.4198914-13.7774353
		c0.4246025-1.5960999,0.4807281-3.1339264,0.2883301-4.7227325c-1.0463257-8.6404877-0.9161263-17.2292023,1.0487061-25.7495117
		c0.3325615-1.4421234,0.4711723-2.9310913,0.3530312-4.4104767c-0.3794022-4.7510529,0.0122833-9.5081787-0.1689415-14.2619019
		c-0.2146835-5.6312866-0.0821152-11.2704773-0.4309502-16.9023743c-0.2619247-4.228714,0.4452324-8.447998,0.241684-12.6940918
		C47.8281784,137.1582184,47.4722786,127.9711685,46.7812424,118.801651z"></path>
	<path d="M188.6812744,112.5599823c0.1425171-1.5738983,0.4028625-3.1158447,0.2654114-4.7354507
		c-0.1986084-2.3399887,0.0659332-4.7098618,0.7013855-6.9787903c0.6851654-2.4464874,0.7830811-4.9329071,0.9338226-7.4368515
		c0.2674866-4.4438705,0.5270081-8.9009018,1.8916321-13.1865921c0.351944-1.1052399,1.0412598-1.9701843,1.9496765-2.7775726
		c1.4315033-1.2722931,2.203537-3.0790176,3.0967407-4.7557755c1.1707611-2.1977921,1.5823669-4.6625824,2.3715668-6.9949417
		c1.3388519-3.9567451,2.4453735-7.9898415,3.2659149-12.0813484c0.4744873-2.3659325,0.6474609-4.8028297,0.8126831-7.2176094
		c0.2031097-2.9680862,0.0639496-5.942173-0.21492-8.9047165c-0.109024-1.1581726,0.2817535-2.3221436-0.1885529-3.492691
		c-0.2056274-0.511734-0.1282654-1.193924,0.2796631-1.7151718c0.2102203,0.1116676,0.4566498,0.1841888,0.6252136,0.3406334
		c3.9205627,3.6386032,8.1220245,7.0112839,11.1985168,11.465538c3.6876678,5.3391647,6.2693787,11.1972656,8.0645142,17.4220467
		c1.855957,6.4356842,2.5604248,13.0691071,3.6264191,19.6522064c1.570282,9.6975555,2.6261597,19.4785385,4.6393738,29.104805
		c0.1053619,0.5038223,0.102417,1.0303116,0.1499481,1.5463715c-2.6681061,0.6655502-5.3206482,1.4046097-8.0636749,1.7179031
		c-3.2069092,0.3662796-6.4146271,0.7254715-9.6210022,1.0962982c-3.0062256,0.3476791-6.0040588,0.9012604-9.0184021,1.0103607
		c-3.6274109,0.1313019-7.2682648-0.1153641-10.9035339-0.1868286c-0.4984894-0.0097961-0.9168243-0.2772141-1.3724365-0.3677292
		C191.3878479,114.7298126,190.5228119,112.7779846,188.6812744,112.5599823z"></path>
	<path d="M31.4251118,32.4063721c0.340971,0.503212,0.3505764,1.08918,0.2297115,1.6233521
		c-0.445982,1.971035-0.3070698,3.9808197-0.41399,5.9693832c-0.0598831,1.1137428-0.2915115,2.2059135-0.2825794,3.323185
		c0.0542774,6.7877045,1.4023151,13.3501282,3.4827595,19.7759361c1.0901947,3.3672485,1.7796364,6.8757019,3.4572754,10.0403824
		c0.411129,0.7755585,0.7720222,1.5948563,1.2921524,2.2925415c2.2340088,2.9965668,3.3799515,6.3590927,3.7860184,10.060585
		c0.4490356,4.0931625,1.6621056,8.0976028,1.426548,12.2726135c1.1100845,2.0421677,0.7259712,4.3460846,0.9499817,6.5027618
		c0.3629379,3.4941406,1.5993652,6.8948746,1.197998,10.4692993c-0.7430496-0.1559753-0.4466248-0.7550583-0.4480972-1.1689682
		c-0.0030136-0.8474426-0.3366966-1.1772919-1.084877-0.7159271c-2.1458626,1.3232574-4.5059891,1.392868-6.9265518,1.4081802
		c-5.9911842,0.0379257-11.914423-0.3703842-17.8513241-1.3506393c-5.7302513-0.9461212-11.4566507-1.9013596-17.1664352-2.9633942
		c-0.4844108-0.0901108-0.9187891-0.242218-1.3282617-0.4972076c1.2825927-8.0049973,2.2239013-16.0782471,4.4298015-23.9057312
		c1.4928513-5.2972641,1.9323239-10.7706375,2.9552264-16.1442108c1.5344801-8.0610313,3.9434853-15.8129349,8.3927488-22.8015022
		c2.7514877-4.3218231,6.1713905-8.0597153,10.2077255-11.2039833
		C28.9818478,34.4185829,29.9585438,33.1073418,31.4251118,32.4063721z"></path>
</g>
<g onclick="select(this)" class="" id="c-estampa-secundaria" fill="#bf0811">
	<path d="M224.8478241,65.9284897c0.789093,2.6018906,1.1714478,5.2863922,1.5658112,7.9637604
		c0.6339111,4.3037872,1.205658,8.6167297,1.8036652,12.9260788c-5.9216309,2.0592804-11.710556,4.4481964-17.4483795,6.9690704
		c-0.6725769,0.2954941-0.9159698,0.6550446-0.8145752,1.3473206c0.1551666,1.0595627,0.2657623,2.125618,0.4181061,3.1856308
		c0.6822662,4.747551,1.3973389,9.4906082,2.0390625,14.2435837c0.1268311,0.9393387,0.319519,1.2099304,1.3222961,0.8922958
		c5.8828583-1.8633804,11.8375397-3.4707336,17.8676453-4.7908707c0.5923004,1.4749603,0.6370239,3.0663986,0.9633789,4.5979614
		c0.1920624,0.901474,0.2877808,1.8211746,0.7151794,2.6566849c0,1.359993,0,2.7200012,0,4.0800018
		c-4.4677887,1.0638428-8.9788208,1.8973694-13.5336304,2.4807281c-1.8981171,0.2430954-3.7830658,0.6303177-5.7098846,0.6085358
		c-0.3943176-2.6671448-0.8498077-5.3273773-1.1534271-8.0048447c-0.1210022-1.066864-0.3752136-1.1842957-1.3232422-0.7678146
		c-6.0669708,2.6652908-12.0473633,5.5021973-17.8290558,8.7469101c-1.0728607-0.2125244-2.0392151-0.6463852-2.8630676-1.3777313
		c-0.1743469-1.5431671-0.2321625-3.1100006-0.5447693-4.6242371c-0.7979126-3.8652191-1.2117157-7.7674103-1.4634247-11.6987915
		c-0.0732422-1.1438522,0.4946899-1.7829971,1.3376312-2.3063126c2.4674072-1.5317993,5.0635071-2.8293686,7.628891-4.1845322
		c1.5958405-0.8430176,3.3154602-1.4622803,4.7866211-2.5282593c1.6191711-1.1732178,3.4771576-1.8921661,5.2950745-2.6105423
		c0.8043823-0.3178558,0.972168-0.530098,0.8641052-1.2570877c-0.6152954-4.1390915-1.2753906-8.2730255-1.7874603-12.425087
		c-0.1621704-1.315033-0.9508057-2.4613037-0.8158264-3.8377991c0.0720978-0.7350006,0.2368774-1.7311096-0.3660278-2.1306992
		c-0.5480804-0.363266-1.2801666,0.3325348-1.8739014,0.6690216c-3.8309937,2.1711197-7.6483459,4.3663712-11.575943,6.6142349
		c-0.0932922-1.2113037,0.2378845-2.1375427,0.9947357-2.8860245c0.5024109-0.4968643,1.2230225-0.8237457,1.5971222-1.3908539
		c1.5514374-2.3518066,2.9584351-4.8073807,3.7997131-7.5067978c1.091217-3.5014267,2.120697-7.0273933,3.0150909-10.5834503
		c1.0444336-4.1526527,2.0121613-8.3171921,2.0931702-12.6579361c0.0231171-1.2378578-0.0461426-2.4590492-0.0787048-3.6871948
		c-0.0754547-2.8471794,0.1494446-5.698967-0.1711731-8.5444183c-0.067215-0.5964127-0.2589569-1.295372,0.3455658-1.7972946
		c0.1460724,0.0615654,0.3232422,0.0889854,0.4337311,0.1896248c4.4418945,4.0458221,9.0895844,7.898716,12.3460388,13.0634842
		c0.2100525,0.3331299,0.3556824,0.7068787,0.5309906,1.0613747c-0.2781677,0.15205-0.5474091,0.3234978-0.8352203,0.4539948
		c-3.8589783,1.7497559-7.7193604,3.4930496-11.4843903,5.4452477c-0.9001465,0.4667168-1.0492706,0.9836159-0.9006348,1.8895302
		c0.3483887,2.1234436,0.5948792,4.2634621,0.8940887,6.3951607c0.493927,3.5187416,0.9736023,7.0397606,1.5076447,10.5524635
		c0.2119141,1.3939438,0.8842773,1.8400421,2.1639404,1.3453217c1.8226929-0.704689,3.5781097-1.5814285,5.3757324-2.3533707
		C217.5746765,68.8109741,221.1095734,67.1195908,224.8478241,65.9284897z"></path>
	<path d="M47.9927254,231.8466492c0.1089478-2.6786652,0.68367-5.3002472,0.9828796-7.956543
		c0.3316193-2.9440308,1.0158577-5.8360291,1.227932-8.808609c0.0990601-1.388443,0.4517746-2.783844,0.609005-4.1882172
		c0.0811501-0.7248077,0.7804756-0.6767883,1.1790886-0.8060913c1.5352097-0.4980469,3.1648865-0.7230225,4.6728401-1.2828369
		c2.5435295-0.9442139,5.2489052-1.1520844,7.820591-1.9132233c1.9787903-0.5856628,4.0209808-0.7286682,6.0264511-1.1135101
		c0.3559341-0.0682831,0.5447388-0.0835571,0.4766541,0.3566742c-0.3781738,2.4451752-0.8954544,4.8802185-1.0814819,7.3401642
		c-0.1521759,2.0121613-0.5636978,3.9786072-0.7765198,5.9771729c-0.2067261,1.94133-0.2731018,3.9220428-0.830658,5.824173
		c-0.2019272,0.688858-0.0385437,1.3229218,0.8387146,1.0372009c3.4191895-1.1135712,7.1290131-0.3748169,10.4595642-1.511795
		c1.680481-0.5736542,3.1694183-0.4434357,4.7590942-0.3658295c0.9688492,0.047287,1.8868332-0.2164917,2.8348083-0.2753906
		c0.6053543-0.0375519,0.8880157-0.4347382,0.9057846-1.0479126c0.0503922-1.738205,0.1862335-3.4785309,0.5538559-5.1726227
		c0.5198212-2.395462,0.4675064-4.8735809,0.996788-7.2358398c0.4682465-2.0897217,0.4880676-4.2068176,0.8583679-6.2910156
		c0.0970383-0.5462036,0.3346252-0.7072144,0.7685699-0.6422424c2.3324509,0.3491516,4.7253113-0.0030975,7.0107727,0.3658447
		c2.1929016,0.3540039,4.3836365,0.3613129,6.5658875,0.608551c1.8696365,0.2118073,3.7345352,0.4658051,5.6006699,0.7077026
		c0.4965057,0.0643768,0.7287903,0.3601685,0.5397568,0.8365784c-0.3095779,0.7801971-0.1345215,1.5706329-0.131134,2.3594666
		c0.0026474,0.6187439,0.1956787,1.283844-0.5154724,1.7189026c-0.1410217,0.0862579-0.142868,0.4297791-0.175148,0.6594238
		c-0.4050598,2.8813477-0.8470688,5.7584686-1.1870728,8.647583c-0.1838531,1.5622559-0.4058228,3.1102448-0.7394028,4.6467438
		c-0.094429,0.4348755,0.0049896,1.1119232,0.5244827,1.0060883c1.5152054-0.3087158,2.5413361,0.8943176,3.8911667,1.0790253
		c0.9216843,0.1260986,2.0388031,0.1261902,2.7219391,0.4965057c1.5363083,0.8327942,3.4100266,0.1949463,4.7801056,1.3580017
		c0.0543289,0.0461426,0.1483765,0.0561218,0.2256851,0.0629883c1.8964844,0.1685181,3.5332794,1.3564606,5.4496613,1.4069977
		c0.6296921,0.0166321,0.9148865,0.5334015,1.4073181,0.7418213c0.549202,0.2324219,0.85009,0.1680756,0.9166183-0.4372101
		c0.1816559-1.6528168,0.1022186-3.3807678,0.5750122-4.9431305c0.5676117-1.8756409,0.4665833-3.8177643,0.9973907-5.7051392
		c0.4551544-1.618454,0.7128143-3.3864288,0.748703-5.1169434c0.0175476-0.8450165,0.4664459-1.6073761,0.3301544-2.4663849
		c-0.0534973-0.3370972,0.1960754-0.353241,0.4713135-0.2790375c0.6872711,0.1853333,1.5866852,0.1400909,2.0268402,0.5702362
		c0.9219666,0.9009705,2.0873718,1.2271271,3.1684113,1.7211304c2.8505707,1.3026276,5.5045471,2.9934998,8.3637238,4.2524719
		c1.8723145,0.8244324,3.4885864,2.0177917,5.218399,3.0449677c0.4133301,0.2454376,0.812439,0.4523315,1.4095306,0.5685577
		c-1.189682,1.0605164-0.7931976,2.4830322-0.95755,3.7154694c-0.4100952,3.0748901-0.9742584,6.127243-1.3432159,9.2107544
		c-0.2084656,1.7418976-0.5462799,3.5029297-0.8153839,5.2500305c-0.175415,1.1388092,1.1085358,1.6100464,1.9102783,1.995224
		c0.6062164,0.2912445,1.1798706,0.6256561,1.6770172,1.0207062c1.2212067,0.9704437,2.5485077,1.7169495,3.9749756,2.3261261
		c0.5444031,0.2324829,0.8643341,0.7841034,1.3761444,1.1174469c2.7731934,1.8062134,5.4809265,3.7134857,8.2668762,5.4991608
		c0.6213531,0.3982697,1.322998,0.6582184,1.8664703,1.2036438c0.2996521,0.3006897,0.5514526,0.2152405,0.618454-0.2703247
		c0.4007874-2.9047852,0.7241974-5.8249512,1.2657013-8.7038574c0.313446-1.6663971,0.527771-3.3280182,0.6950226-5.0080872
		c0.034668-0.3484039,0.0701294-0.6523438,0.0224762-1.0091858c-0.0679626-0.509079-0.2670441-1.0918427,0.3833313-1.4880066
		c0.4530334-0.2759094,0.1963196-0.8104095,0.2288666-1.2289276c0.0264893-0.3408661,0.0780792-0.6424255,0.4317322-0.7717743
		c0.3170929-0.1159973,0.4906921,0.1448212,0.7263489,0.2899475c2.3463745,1.4448395,4.6059265,3.0124054,7.0345459,4.3492584
		c2.2654572,1.2470245,4.4326782,2.7138519,6.7463531,3.8952637c1.2233887,0.6246643,2.3364563,1.4221039,3.5567474,2.0399628
		c0.7817993,0.6575928,0.4546661,1.6274872,0.6542511,2.4437866c0.1576385,0.6448364,0.0820618,1.3466949,0.1097107,2.0172119
		c-0.0671539,2.2146454,0.1561279,4.4378967-0.3074341,6.6542358c-0.4086609,1.9538574-0.5558319,3.9617615-0.9473877,5.9200134
		c-0.6151276,3.0761414-0.661026,3.0669861,2.1571045,4.2341614c0.4255066,2.4451599,0.3362427,4.9286499,0.5386505,7.3911743
		c0.2084961,2.5365906,0.3190918,5.083374,0.3963165,7.6280212c0.0560913,1.8477783-0.1933136,2.2259216-1.9830627,2.7599487
		c-6.0843658,1.8155518-12.3049011,2.962616-18.6189575,3.5969849c-2.6951447,0.270813-5.3895874,0.5818481-8.1060028,0.5651855
		c-0.016861-0.2385864-0.0768585-0.4834595-0.0429688-0.7146301c0.2333679-1.5921326,0.4990845-3.1785889,0.7163696-4.7741699
		c0.206955-1.5196533,0.271347-3.0758972,0.6396027-4.5544128c0.411499-1.6522217,0.4404907-3.3464966,0.8043671-4.9956055
		c0.1146393-0.5195618-0.1749573-0.8242493-0.650238-1.1290588c-4.0979156-2.6280823-8.1638489-5.3059692-12.2430115-7.9633484
		c-2.0214386-1.316864-4.053772-2.6170044-6.0737915-3.9360046c-0.4328308-0.2826538-0.9477081-0.4369202-0.9533386,0.2302246
		c-0.0141144,1.6747437-0.5666809,3.2539673-0.713974,4.9013062c-0.1473541,1.6481323-0.2440948,3.323822-0.6319427,4.9221497
		c-0.5965424,2.458252-0.5681305,4.997467-1.1542511,7.4485779c-0.1399384,0.5853271,0.2434692,1.0134888,0.7220306,1.2649841
		c2.8803101,1.5136414,5.582901,3.3224792,8.2945557,5.1019287c2.2424164,1.4715576,4.6473236,2.7070618,6.6997223,4.464447
		c-5.8480835,0.3429565-11.7030182,0.4462891-17.5592957,0.5012817c0.1710052-1.2423096,0.3327637-2.4859619,0.5151062-3.726593
		c0.2623596-1.7849731,0.4723663-3.581665,0.8381348-5.3457336c0.1921539-0.9267273,0.0708618-1.4282227-0.8385925-1.8852539
		c-3.8662262-1.9431458-7.8097229-3.7131042-11.796875-5.3847961c-2.1485443-0.9007568-4.3485947-1.6784668-6.5219574-2.5205688
		c-0.3054199-0.1183472-0.671051-0.3386536-0.6818771,0.210907c-0.0342941,1.740509-0.4799805,3.4208069-0.6884384,5.1346741
		c-0.2044601,1.6808472-0.2832947,3.3877258-0.6315765,5.0379639c-0.6006241,2.8458557-0.7801285,5.7473755-1.3000488,8.6002502
		c-0.2970047,0.2001953-0.5983353,0.3134155-0.9166641,0.046051c-1.6574326-0.3172302-3.3414383-0.5420227-4.9702454-0.9746704
		c-2.3136673-0.614624-4.6879578-0.8832397-7.0220566-1.3769226c-2.1011124-0.4444275-4.2913208-0.3962708-6.3937607-0.9219971
		c-0.4869156-0.1217346-0.6798248,0.0846252-0.9676895,0.5525208c-0.5668869,0.9213867,0.0202332,2.0109558-0.6076508,2.8615723
		c-6.6594696-0.0010071-13.3189316-0.0020142-19.9782867-0.0030212c0.0332642-0.4295349-0.039711-0.8575745,0.1609039-1.2844543
		c0.2427292-0.5164795,0.3293152-1.2037964-0.0042419-1.5911255c-0.3995056-0.4638977-1.0954208-0.2163696-1.6789322-0.1117554
		c-1.6146393,0.2895203-3.2297287,0.5793762-4.8505325,0.8311157c-2.504921,0.3891296-4.9885254,0.8826294-7.4595718,1.4438171
		c-1.7661514,0.0344238-3.5049515-0.2006531-5.2345848-0.5314331c-0.0103683-0.4786987-0.1423187-0.9944153-0.0099411-1.4297485
		c0.7840462-2.5785522,0.6203384-5.2941589,1.2262077-7.9092712c0.4416351-1.9062805,0.3063469-3.9414063,0.6835098-5.8692017
		c0.2197647-1.1233215,0.0145187-2.2931213,0.5035973-3.3804626c0.308403-0.6856384-0.0948029-0.8791199-0.7188263-0.6903076
		c-2.9384422,0.8890991-5.8791962,1.7711182-8.8092461,2.6872864c-2.9352074,0.9177856-5.8587189,1.8730164-8.7873573,2.8117981
		c0.3517342-5.5429993,0.716507-11.0852356,1.0460739-16.6295471c0.0828629-1.394043,0.0402985-2.7952423,0.0830536-4.1922913
		c0.0113564-0.3709564-0.1890335-0.8058624,0.2266045-1.100708c0.072731,0.4472504,0.0609283,0.856781,0.7897034,0.6029358
		c2.6413841-0.920105,5.3023033-1.786026,7.9684944-2.6325989c2.8170052-0.894455,5.691761-1.57901,8.5495567-2.328186
		c2.2223129-0.5825653,2.7239151,0.0795441,2.8892899-3.2280884c0.0039368-0.078949,0.0236588-0.1570587,0.0356369-0.235611
		c0.3963013-2.6004639,0.9106598-5.189743,1.1582108-7.8042755c0.2931061-3.0956268,0.8140945-6.1539917,1.2256622-9.2298279
		c0.0666656-0.4982605-0.0386047-0.8655243-0.6082153-0.6607361c-1.0129852,0.364212-2.0911102,0.3767853-3.109314,0.6378479
		c-3.6978226,0.9480743-7.3741341,1.9807281-11.0538025,2.9987183
		C51.4366493,231.043396,49.7802124,231.7078247,47.9927254,231.8466492z M82.3245544,265.4352112
		c-0.0007248,3.2073059-0.7896271,6.3203125-1.1253052,9.4848022c-0.3488541,3.2886963-0.9136887,6.5430298-1.3262634,9.8200378
		c-0.0843964,0.6703186,0.1833267,0.8668213,0.8619995,0.920105c1.2124252,0.0953064,2.359642-0.3093262,3.5515671-0.3076477
		c4.3551025,0.006073,8.7102127,0.0010376,13.0653229,0.0050354c0.3572388,0.0003357,0.7245102-0.0089722,1.0697784,0.0660706
		c1.0926666,0.2373352,1.4359055,0.0289612,1.4037933-1.1304626c-0.0300217-1.0837708,0.1634598-2.1687317,0.3802261-3.16922
		c0.5751419-2.6548157,0.6586456-5.3666077,1.181221-8.0282288c0.421463-2.1466064,0.4937286-4.3746948,0.904007-6.5435181
		c0.1089859-0.5760803-0.0614853-0.9026794-0.7382965-0.8970337c-1.3075485,0.0108948-2.6207199-0.1911011-3.9088593-0.2196045
		c-5.1089706-0.1130981-10.2227783-0.0074768-15.3347931,0.0170898c0.2301331-1.6320496,0.3704834-3.2840271,0.7263565-4.8881836
		c0.1925201-0.8677673,0.1922073-1.7294312,0.3078995-2.5899353c0.2824402-2.1008453,0.7165985-4.1772003,0.9012604-6.2958069
		c0.1638412-1.8796234,0.3778076-3.7690125,0.781456-5.6075745c0.1979446-0.9016113,0.0166702-1.1164093-0.7766418-1.0357819
		c-2.1183014,0.215271-4.2394028,0.4155426-6.3494415,0.6965027c-2.6923294,0.3584747-5.3758774,0.7838287-8.0612411,1.1932526
		c-1.247406,0.1902008-2.5008545,0.3636932-3.729454,0.6422882c-0.4570618,0.1036224-0.9377136,0.3216705-1.0028839,1.0110016
		c-0.2925568,3.094101-0.6618881,6.1755524-1.1791153,9.2472839c-0.3972168,2.3590088-0.5346527,4.7631226-0.9368629,7.1353149
		c-0.1484108,0.8753357-0.3605423,1.7824097-0.3420143,2.6987915c0.0108643,0.5375061,0.0734711,0.7567139,0.7639771,0.5976257
		c1.8757782-0.432251,3.7807465-0.7419128,5.6794357-1.069519c2.2495117-0.3881836,4.4955215-0.8190918,6.7598114-1.0927429
		C78.0031128,265.8351746,80.1340332,265.3245544,82.3245544,265.4352112z M91.0191956,224.397995
		c-0.7589417,0-1.5178986-0.001709-2.2768326,0.0007935c-0.3244553,0.0010834-0.7240372-0.00354-0.7044754,0.4355164
		c0.0378036,0.848587-0.3286667,1.6305847-0.3774185,2.4382477c-0.1687622,2.79599-0.6577759,5.5519562-1.0545044,8.3127594
		c-0.1263199,0.8790588-0.2201996,1.7996063-0.3491898,2.6816254c-0.2667923,1.8241425-0.576973,3.6464844-0.7965622,5.4793701
		c-0.0832291,0.6946106,0.1564713,1.0068054,0.9191284,1.0052185c4.7388916-0.0097961,9.4802094-0.1031494,14.2120972,0.27388
		c0.5504913,0.0438538,1.0883484,0.0766144,1.6420288,0.1923218c0.9227295,0.1928101,1.9572144,0.3301697,2.8235092-0.0733643
		c0.735733-0.3427124,0.2438736-1.2430725,0.4037323-1.8748627c0.0097656-0.0385895,0.011116-0.079422,0.022171-0.1175385
		c0.7491608-2.5807343,0.7605362-5.2773438,1.2164841-7.9080963c0.4950562-2.8565063,0.7492523-5.7598572,1.2531204-8.6226959
		c0.1027451-0.5837097,0.0140686-0.8768463-0.728775-1.0269623c-2.838913-0.5737-5.7357483-0.5516052-8.5944138-0.8166656
		C96.1181107,224.5447083,93.5628891,224.3833466,91.0191956,224.397995z M187.9545288,266.3283386
		c0.0572052-1.0195923-0.4205017-1.3459473-1.0335999-1.6725464c-2.3793793-1.2675171-4.7606049-2.5369263-7.0845337-3.9019775
		c-3.7222748-2.1864319-7.401062-4.446991-11.0933838-6.6841583c-0.3840637-0.2326965-0.723175-0.3226776-0.729248,0.2604218
		c-0.0186462,1.7827454-0.5398865,3.4940491-0.6941833,5.258606c-0.1440582,1.6474915-0.2450714,3.3255005-0.6512146,4.9170227
		c-0.6067505,2.3777161-0.6170807,4.8300171-1.1362305,7.2097778c-0.080658,0.369812,0.0583191,0.6663513,0.4313049,0.8910828
		c3.5256805,2.1240845,7.0286865,4.2859802,10.5606842,6.3994446c2.4455109,1.4633484,4.9198151,2.8791504,7.3975525,4.2875366
		c0.4355011,0.2475281,0.9424591,0.7313538,1.3914337,0.5232544c0.4455872-0.206543,0.1083832-0.863678,0.190918-1.3136902
		c0.0285492-0.1556396,0.0601807-0.3108826,0.0833435-0.4673462c0.2872009-1.9403992,0.5840149-3.8795166,0.8559418-5.8220215
		c0.2184601-1.5607605,0.3748016-3.1475525,0.6935425-4.6728516
		C187.5164337,269.7245789,187.4476166,267.8560791,187.9545288,266.3283386z M147.9905701,241.6380005
		c0.0637817-0.5843048-0.1007233-0.7899323-0.4385834-1.0454102c-0.9033356-0.6832123-1.9565582-1.0620728-2.9181213-1.6178589
		c-4.3077545-2.4899445-8.8160858-4.5805054-13.348526-6.6104279c-0.8526306-0.3818512-1.6570282-0.9450684-2.6224976-1.0899811
		c-0.3534546-0.0530701-0.7557678-0.2665558-0.7010727,0.3717651c0.0757523,0.8839111-0.2004089,1.727951-0.2641296,2.5894775
		c-0.1919785,2.5956879-0.8142624,5.1265259-1.0407104,7.7219543c-0.2176895,2.495224-0.7552872,4.9629059-1.1634216,7.4409027
		c-0.1167908,0.7090149,0.2789612,0.9993744,0.8649597,1.2009583c3.3711777,1.1596375,6.5689011,2.7371826,9.8273697,4.1615601
		c2.6215363,1.1459198,5.131546,2.5459747,7.6986389,3.8179169c1.4458313,0.7163391,1.4487762,0.7020264,1.5855713-0.9754028
		c0.0189819-0.2329102,0.1147919-0.4585266,0.1503601-0.6912842c0.2667847-1.7462158,0.5254517-3.4936371,0.7904358-5.2401123
		c0.2764893-1.8221741,0.5410309-3.6463165,0.8409729-5.4646606
		C147.5134735,244.6211853,147.5269928,242.9949493,147.9905701,241.6380005z M102.627594,264.6474609
		c0.1407547,0.3970032-0.1279831,0.9754028,0.4959793,0.9815979c0.5759354,0.0057068,1.0804596,0.2512207,1.6280899,0.3142395
		c3.2446899,0.3733215,6.4218979,1.1037292,9.5995483,1.8240051c2.3749542,0.5383911,4.7459412,1.1002197,7.099617,1.7236328
		c0.9923401,0.2628784,1.2370758-0.1416626,1.1995239-0.9979858c-0.0454254-1.0360107,0.1400452-2.0904236,0.3694458-3.0480957
		c0.6063843-2.5314331,0.6230392-5.1349182,1.1941376-7.6706238c0.4630051-2.0558319,0.401619-4.2170868,0.9579773-6.2813263
		c0.1448135-0.5372772,0.1261215-1.0567627-0.7065353-1.219162c-1.2329788-0.2405243-2.4368362-0.6405029-3.6432877-1.0050201
		c-4.5593948-1.3775482-9.2260284-2.3001862-13.8805008-3.2703552c-1.6792984-0.3500366-1.6877441-0.3021393-1.8004532,1.445282
		c-0.0126724,0.1964874-0.0548401,0.3910217-0.0826035,0.5865479c-0.2867126,2.0190277-0.5853271,4.0364075-0.8561554,6.0575409
		c-0.2250824,1.6796417-0.2575684,3.4037781-0.6666412,5.0351257
		C103.072937,260.9685364,103.1753769,262.8763123,102.627594,264.6474609z"></path>
	<path d="M12.8440065,56.1383438c5.8881826-3.834446,11.8381109-7.5702896,18.078289-11.2812042
		c-0.172142,1.3102341,0.2361107,2.4660225,0.2907009,3.6931648c0.0844784,1.8990211,0.3372631,3.7943726,0.7754745,5.6518478
		c0.8450813,3.5820885,1.4020653,7.2716751,2.6501427,10.7091408c1.5532265,4.2778854,2.6776466,8.7879257,5.6027679,12.5006027
		c0.8721237,1.1069336,1.4982109,2.4731598,1.9305191,3.8730774c0.2424355,0.7850647,0.1507263,1.3569183-0.6685753,1.7797089
		c-0.8847847,0.4565887-1.677166,1.0907745-2.5570602,1.5587616c-0.6885223,0.3662033-0.830513,0.8678055-0.7484093,1.5778275
		c0.6556778,5.6700821,1.3094292,11.3405228,1.9217873,17.0153809c0.1066666,0.9885025,0.3499451,1.03582,1.1380348,0.5082245
		c1.1785927-0.7890244,2.4435539-1.4490356,3.763916-2.2175446c0.1876183,2.0451508,0.3727722,3.9310379,0.5288696,5.8193207
		c0.0812187,0.9825287,0.273056,1.93396,0.6100235,2.8598099c0.2478714,0.6810608,0.462429,1.4089966,0.3649254,2.1105118
		c-0.2895813,2.0835419,0.0843315,4.151741,0.0333023,6.2262344c-0.4178505,0.2873688-0.2165489,0.7202301-0.2257957,1.0836945
		c-0.0413666,1.62603-0.1517792,1.7540436-1.8328896,1.893158c-0.357193,0.03125-0.7163925,0.0626602-1.075592,0.0940781
		c-0.1150322,0.0054779-0.2300568,0.0109558-0.3457642,0.0163879c-0.6634865-2.5823059-0.8332176-5.2449188-1.2726173-7.8639221
		c-0.4745369-2.8284149-0.8508301-5.673317-1.2861328-8.6203995c-6.9916725,4.1454697-13.8487263,8.219902-20.7213497,12.2678909
		c-0.5044975,0.2971497-0.6370869,0.5764923-0.517746,1.1392059c0.170517,0.8040161,0.4198723,1.6090546,0.3120823,2.4525681
		c-1.4887257-0.0267334-2.9376144-0.3600998-4.4006653-0.5715256c0.3866777-0.2783661,0.7535906-0.5873871,1.1598759-0.8306503
		c1.8757133-1.1230545,1.8417187-1.1120071,1.5884647-3.2527008c-0.5745544-4.8565826-1.0976181-9.7192459-1.6665649-14.5765152
		c-0.1194363-1.0196533-0.1239128-2.0631943-0.5051794-3.1885986c-1.5831766,0.9314423-3.11166,1.8407745-4.6498384,2.7333908
		c-2.4821863,1.4404526-4.9647756,2.8804626-7.4627762,4.2930984c-0.3966601,0.2243195-0.7791622,0.5887604-1.3140042,0.4549408
		c1.0235574-8.2248001,2.5240679-16.354454,4.8413839-24.3216629c1.6444211-0.9669952,3.2592664-1.9900742,4.9460282-2.8762589
		c0.8032341-0.4220276,0.938139-0.9164658,0.7835302-1.7214813c-0.3442659-1.7925262-0.623455-3.5975723-0.9262638-5.3980103
		c-0.4733248-2.8143234-0.9442453-5.6290359-1.4161844-8.4435844c0.3478327-2.0585098,1.1199446-3.9895325,1.7935209-5.9497452
		C12.5038776,56.930191,12.683053,56.5373955,12.8440065,56.1383438z M37.4900551,84.3801117
		c-0.0260658-0.1673508-0.0390167-0.2462463-0.0505753-0.3253326c-0.8188095-5.6028061-1.607563-11.2102585-2.4742088-16.8056564
		c-0.2649155-1.7103882,0.1038895-1.7474289-1.7005424-0.778717c-0.3166618,0.1700058-0.633728,0.3392639-0.9498863,0.5101852
		c-6.3304806,3.4224319-12.3814163,7.305397-18.4609413,11.1443176c-0.8515272,0.5377045-0.6831055,1.181076-0.5859365,1.8369141
		c0.8196011,5.5318832,1.7025919,11.0544968,2.4945192,16.59021c0.1445932,1.0107269,0.4347887,1.0296478,1.1831846,0.5703125
		c1.9400063-1.1906891,3.8959427-2.3556595,5.8532104-3.5179443c4.6369114-2.7535477,9.2784557-5.4992981,13.9175205-8.2492218
		C37.1243019,85.1133957,37.6208839,84.9305344,37.4900551,84.3801117z"></path>
	<path d="M48.0069122,231.8319397c0.0022469,2.60112-0.676384,5.1210022-0.918438,7.6869812
		c-0.1843262,1.9539642-0.4944115,3.8924866-0.6334763,5.8494568c-0.0251122,0.353363,0.0304832,0.7323303-0.3824615,0.9212646
		c-0.119648-1.3426056-0.2406006-2.6851196-0.3587761-4.0278931c-0.2835083-3.2214355-0.5327415-6.4431458-0.0562897-9.6689606
		C46.515522,232.5705566,47.1695633,231.9182434,48.0069122,231.8319397z"></path>
	<path d="M31.370966,32.4041214c0.547596,0.7424927,0.6247864,1.4937325,0.0212784,2.2425575
		c-0.1614819,0.2003593-0.2547989,0.4111633-0.184021,0.6573334c0.5716763,1.9883156-0.2568398,3.9509964-0.1135559,5.9333382
		c0.0167332,0.2314644-0.1767521,0.4781265-0.2967739,0.7776031c-0.4065437-2.7520905-0.8045254-5.446228-1.201498-8.1415176
		C30.1133671,33.2920227,30.5463047,32.6114655,31.370966,32.4041214z"></path>
</g>
<g onclick="select(this)" class="" id="c-gola-primaria" fill="#bf0811">
	<path d="M81.8337631,7.9551482c1.7809372-1.4190092,3.4730377-2.9295225,4.8501663-4.7590275
		c1.5450439-2.0525742,3.8180466-2.4387608,6.1472397-2.7100065C93.2521667,0.437086,93.72155,0.6118734,94.0800018,0.24
		c16,0,32,0,48,0c0.8258362,0.4266242,1.7599182,0.3826382,2.635376,0.5993913
		c1.7582092,0.4353179,3.2734985,1.2413597,4.3717957,2.7102425c1.1104889,1.4851677,2.5509338,2.6122496,3.9674988,3.7706835
		c0.1449127,0.1185122,0.2287445,0.3117666,0.3406677,0.4704785c-0.7481842,0.0850201-1.4983826,0.1537113-2.2436371,0.257587
		c-3.1931915,0.4450655-6.3809052,0.9314327-9.5781403,1.3446274c-4.3993683,0.568552-8.8260498,0.8129816-13.2524109,1.0787601
		c-5.0248795,0.3017168-10.0399704,0.7530584-15.0837708,0.4571857c-8.4504852-0.4957085-16.90522-0.9516773-25.2742157-2.3104897
		C85.9269104,8.2878542,83.8680801,8.2533169,81.8337631,7.9551482z"></path>
</g>
<g onclick="select(this)" class="" id="c-detalhe-punho" fill="#082890">
	<path d="M0.24,115.9200058c0.5789765-1.8824921,0.7624918-3.8468094,1.1905526-5.7606049
		c0.0581824-0.2601089-0.0143441-0.5728455,0.314887-0.7109451c0.4094726,0.2549896,0.843851,0.4070969,1.3282617,0.4972076
		c5.709785,1.0620346,11.4361839,2.0172729,17.1664352,2.9633942c5.9369011,0.9802551,11.8601398,1.3885651,17.8513241,1.3506393
		c2.4205627-0.0153122,4.7806892-0.0849228,6.9265518-1.4081802c0.7481804-0.4613647,1.0818634-0.1315155,1.084877,0.7159271
		c0.0014725,0.4139099-0.2949524,1.0129929,0.4480705,1.1690674c0.0767593,1.3550491,0.1535225,2.7100983,0.230278,4.0651321
		c-0.0557747,0.0530472-0.1500893,0.0987396-0.1617813,0.1601715c-0.4963951,2.6075745-0.5020065,2.5301285-3.1701164,2.7541428
		c-3.0185738,0.2534409-6.0040245,0.7482605-9.0601616,0.7218399c-6.1752777-0.0533829-12.258791-0.9222183-18.3460712-1.7839737
		c-4.7689228-0.6751099-9.5072765-1.5391846-14.2103863-2.5847778c-0.5390261-0.1198196-1.0621994-0.3109665-1.5927218-0.4690399
		C0.24,117.0400009,0.24,116.4800034,0.24,115.9200058z"></path>
	<path d="M188.6812744,112.5599823c1.8415375,0.2180023,2.7065735,2.1698303,4.4899597,2.5240936
		c0.4556122,0.0905151,0.8739471,0.357933,1.3724365,0.3677292c3.6352692,0.0714645,7.276123,0.3181305,10.9035339,0.1868286
		c3.0143433-0.1091003,6.0121765-0.6626816,9.0184021-1.0103607c3.2063751-0.3708267,6.414093-0.7300186,9.6210022-1.0962982
		c2.7430267-0.3132935,5.3955688-1.0523529,8.0636902-1.7179031c0.8446655,0.5238724,0.7039185,1.461937,0.7878876,2.2139969
		c0.1720123,1.5407028,0.3506775,3.0860138,0.3776855,4.6480637c0.0172272,0.9962463-0.3174744,1.3810425-1.249588,1.6120834
		c-3.1387787,0.7779388-6.317688,1.3454895-9.5081482,1.8256073c-7.8910522,1.1875-15.8142548,1.9860916-23.8146057,1.7421799
		c-2.7035675-0.0824127-5.3105316-0.4700699-7.667511-1.9013672c-0.3552856-0.2157516-0.7400513-0.2788696-1.1385956-0.321022
		c-0.8007813-0.0846863-1.4325409-0.4291534-1.790802-1.1847534
		C188.0077515,117.7977371,188.4815674,115.1881485,188.6812744,112.5599823z"></path>
</g>
</svg>
