<!--?xml version="1.0" encoding="utf-8"?-->
<!-- Generator: Adobe Illustrator 24.2.3, SVG Export Plug-In . SVG Version: 6.00 Build 0)  -->
<svg version="1.1" id="Camada_1" xmlns="http://www.w3.org/2000/svg" xmlns:xlink="http://www.w3.org/1999/xlink" x="0px" y="0px" viewBox="0 0 229 418" enable-background="new 0 0 229 418" xml:space="preserve">
<g onclick="select(this)" class="" id="gola-primaria" fill="#021c3b">
	<path d="M77.9532471,7.9597087c0.5442505-0.060823,0.9727707-0.3512921,1.3516617-0.7144079
		c0.9517365-0.9121184,2.0429764-1.7265453,2.8068085-2.7772608c1.8079834-2.4870243,4.3546143-3.3584313,7.2153091-3.7517483
		c0.6288223-0.0864561,1.3583603,0.0999947,1.8729782-0.4764293c1.1999969,0,2.4000015,0,3.5999985,0
		c0.1687851,0.4909054,0.5990448,0.3124139,0.9139023,0.3135658c5.578331,0.0204086,11.1567383,0.0201361,16.7350998,0.0349731
		c0.4080353,0.0010852,0.7730331-0.0500705,1.0709991-0.3485389c7.5200043,0,15.0400085,0,22.5599976,0
		c0.0825958,0.4743731,0.4898376,0.314371,0.7612457,0.3588615c0.9795685,0.1605658,1.9686432,0.2631895,2.9482422,0.4236063
		c1.9836426,0.3248397,3.6553192,1.1195358,4.9371796,2.7921867c1.2989502,1.6949463,2.7366943,3.3046651,4.6419373,4.3876162
		c1.3338318,0.559351,1.940094,1.5309258,1.8434601,3.0019283c-0.235611,3.5861683-1.9489136,6.5051785-4.0314026,9.2897568
		c-0.4823914,0.6450272-0.8012085,0.5242634-1.3224487,0.1134567c-1.6621094-1.3100014-3.3261108-2.6210308-5.045578-3.8533516
		c-0.7900696-0.5662289-0.9149628-0.926733-0.2011108-1.7098112c1.5596924-1.7109747,2.8257294-3.6363506,3.6953278-5.9588709
		c-3.8121643,0.2876577-7.46698,0.5966864-11.1264954,0.832839c-8.2862701,0.5347214-16.5606079,1.3604345-24.8863144,0.8980713
		c-7.9773407-0.443017-15.9347458-1.1162539-23.8829803-1.9115543c-1.285965-0.1286755-1.369072-0.044939-0.8895187,1.1417885
		c0.8056946,1.9938097,2.0816574,3.6765404,3.5389481,5.2270527c0.5396957,0.5742092,0.6279068,0.9768744-0.0833054,1.5165873
		c-1.717453,1.3033161-3.394783,2.6610584-5.0562897,4.0355015c-0.5477753,0.4531364-0.8727188,0.4428539-1.3376007-0.1304188
		c-1.9395523-2.3917847-3.4067764-5.0153084-4.1501999-8.0189981C75.8739624,10.416997,76.2670898,9.2020445,77.9532471,7.9597087z"></path>
</g>
<g onclick="select(this)" class="" id="estampa-primaria" fill="#021c3b">
	<path d="M43.1515503,120.3646698c-0.1404991-2.3006744-0.1914711-4.6079102-0.6132278-6.885849
		c-0.0899544-0.485817-0.2391663-0.6317444-0.6915321-0.4280777c-2.4907532,1.1215134-5.2097473,1.1106415-7.8384094,1.4879227
		c-1.4780464,0.2121429-3.0204296-0.0509491-4.5338783-0.0523834c-4.2323608-0.0040283-8.4661789-0.0824814-12.6740704-0.5230713
		c-3.80264-0.3981781-7.5636272-1.0788956-11.1697559-2.440567c-1.449275-0.5472488-2.9991877-0.8545074-4.2283468-1.8888321
		c1.7889749-9.4180679,2.6642451-18.9717102,4.2234063-28.4253159C6.476234,76.0517044,6.7927861,70.8162842,7.9036627,65.691246
		c1.7424269-8.0386963,4.4395752-15.6649666,9.3638182-22.3660049c2.1397705-2.9118538,4.5772095-5.5549202,7.4105587-7.7961693
		c1.3626118-1.0778542,2.3616104-2.5712852,3.923933-3.3974419c3.6044178-1.9060097,7.2547016-3.723999,11.025713-5.2781143
		c9.9812241-4.1134815,19.9857483-8.1736889,29.442276-13.433075c1.9732819-1.0974712,4.0098419-2.0742865,5.5134583-3.8943434
		c0.8124695-0.9834595,1.9979477-1.5784073,3.3699265-1.5663853c-1.6862564,1.2423325-2.0793839,2.4572849-1.5202484,4.7163982
		c0.7434235,3.0036898,2.2106476,5.6272135,4.1501999,8.0189981c0.4648819,0.5732727,0.7898254,0.5835552,1.3376007,0.1304188
		c1.6615067-1.3744431,3.3388367-2.7321854,5.0562897-4.0355015c0.7112122-0.5397129,0.6230011-0.942378,0.0833054-1.5165873
		c-1.4572906-1.5505123-2.7332535-3.233243-3.5389481-5.2270527c-0.4795532-1.1867275-0.3964462-1.2704639,0.8895187-1.1417885
		c7.9482346,0.7953005,15.9056396,1.4685373,23.8829803,1.9115543c8.3257065,0.4623632,16.6000443-0.3633499,24.8863144-0.8980713
		c3.6595154-0.2361526,7.3143311-0.5451813,11.1264954-0.832839c-0.8695984,2.3225203-2.1356354,4.2478962-3.6953278,5.9588709
		c-0.7138519,0.7830782-0.5889587,1.1435823,0.2011108,1.7098112c1.7194672,1.2323208,3.3834686,2.5433502,5.045578,3.8533516
		c0.5212402,0.4108067,0.8400574,0.5315704,1.3224487-0.1134567c2.082489-2.7845783,3.7957916-5.7035885,4.0314026-9.2897568
		c0.0966339-1.4710026-0.5096283-2.4425774-1.8434601-3.0019283c1.8036041-0.1237278,2.9669189,0.9629507,4.043045,2.1744213
		c0.3423309,0.3853559,0.6636658,0.7412128,1.1135864,1.0353756c10.0124969,6.5462341,21.2043915,10.6002197,32.1449432,15.1727829
		c3.9642639,1.6568451,7.7808228,3.6279182,11.7509613,5.2658405c1.1914215,0.4915409,1.9353333,1.6271687,2.9535828,2.3855915
		c3.5110168,2.6150703,6.6709747,5.5916252,9.3223114,9.0906715c4.8722534,6.4300346,7.6369781,13.775341,9.3872375,21.560955
		c0.6486359,2.8853226,1.186264,5.7949905,1.4686127,8.7377701c0.5558472,5.7934952,2.2961578,11.3432922,3.4221191,17.0187912
		c1.0883484,5.4858246,1.7017517,11.0482101,2.7525024,16.5389175c0.0593872,0.3102341,0.0377197,0.6359482,0.053772,0.9545135
		c-3.2637939,1.303833-6.582428,2.4195786-10.0181885,3.2038116c-3.1164703,0.7113266-6.2818298,1.1122208-9.4234467,1.66082
		c-3.0315704,0.5293884-6.0936737,0.7425232-9.1736145,0.7394409c-4.2304077-0.0042343-8.4836426,0.2719727-12.655899-0.596138
		c-1.2034302-0.2503891-1.4215546,0.1192093-1.6173706,1.1066895c-0.3850555,1.9416962-0.2653351,3.8918304-0.2623901,5.8428955
		c-0.4411316,0.8073425-0.294342,1.7092896-0.3958435,2.5675964c-0.9905243,8.376976-1.7194824,16.772728-1.7455292,25.2169876
		c-0.0067902,2.2001038,0.0669098,4.3846893,0.523468,6.5547638c0.4015656,1.9087067-0.0415955,3.8243256-0.2045593,5.7283325
		c-0.181076,2.1157532-0.2705383,4.2298737-0.1432648,6.3460541c0.1518402,2.5245819-0.2316589,5.0275574-0.2313995,7.5436859
		c0.0002747,2.5966339-0.0800171,5.1951904,0.1816406,7.7869263c0.2424622,2.401474-0.2102966,4.7841187-0.2298737,7.1815948
		c-0.0185547,2.2703705,0.5234375,4.434845,1.0016937,6.6138458c1.5915985,7.2516785,1.3577728,14.5254669,0.321991,21.8117981
		c-0.3045654,2.1425323-0.3740692,4.2081604,0.3273163,6.3549805c1.772522,5.4253693,1.8140717,11.004364,0.9409332,16.6020203
		c-0.2309723,1.4807892-0.2497253,2.9243011,0.0909424,4.3914642c0.8872986,3.8212128,0.4440155,7.7200317,0.6459045,11.5819855
		c0.3085022,5.9015503,0.6915588,11.7999573,1.4322815,17.6716309c0.2583313,2.0477295,0.2249298,4.1363525,0.2557526,6.2073364
		c0.0257568,1.7311096-0.3525696,2.2270203-2.0640717,2.7422485c-3.0049744,0.9046326-6.1232452,1.1564636-9.2236786,1.4806824
		c-8.3243256,0.8704529-16.684082,0.875061-25.0398712,1.0386353c-11.5935974,0.2269592-23.1845932,0.774292-34.7774734,0.796814
		c-11.5119629,0.0223999-23.0147552-0.7998352-34.53302-0.8546448c-8.3570328-0.0397644-16.7156677-0.1080933-25.0555153-0.7388611
		c-4.2287102-0.3198242-8.4451218-0.7576904-12.5860748-1.7210693c-3.6356277-0.8458252-3.9869041-1.1677856-3.7778854-4.8088684
		c0.4413528-7.6882935,0.9998283-15.3699951,1.5411453-23.0522461c0.140564-1.9948425,0.2801247-3.9875031,0.2333336-5.9868927
		c-0.0440826-1.8836212,0.0298157-3.7575989,0.3702316-5.6125793c0.4073219-2.2195892,0.4394226-4.4304352,0.1149673-6.671875
		c-0.3644104-2.5174713-0.1079674-5.0299683,0.4367638-7.5027313c0.2282982-1.0363312,0.1923027-2.0486298,0.1161079-3.0909729
		c-0.3318748-4.5399933-1.0253105-9.059433-0.8239441-13.631073c0.1898727-4.3105927,1.2076683-8.4514313,2.6681671-12.4867859
		c0.3758659-1.0385284,0.6182938-2.0305634,0.4542694-3.1416168c-0.1813393-1.228302-0.1615372-2.4718628,0.0717125-3.7012024
		c0.3159981-1.6654663,0.1919746-3.3271332,0.1082954-5.010376c-0.1643028-3.3049622-0.1748161-6.6190948-0.1883888-9.9297028
		c-0.0528755-12.8978577-0.0415001-25.7961121-0.1398544-38.693573c-0.0396805-5.2032166-0.9885941-10.3359528-1.5531769-15.4973145
		C43.6142197,122.9056549,43.766777,121.5702896,43.1515503,120.3646698z"></path>
</g>
<g onclick="select(this)" class="" id="detalhe-punho" fill="#801815">
	<path d="M0.24,114.6542282c0.583228-1.0720215,0.3827578-2.3065491,0.7111229-3.43367
		c0.1536794-0.5275192,0.13833-1.1031189,0.4512064-1.5867462c1.2291592,1.0343246,2.7790718,1.3415833,4.2283468,1.8888321
		c3.6061287,1.3616714,7.367116,2.0423889,11.1697559,2.440567c4.2078915,0.4405899,8.4417095,0.519043,12.6740704,0.5230713
		c1.5134487,0.0014343,3.0558319,0.2645264,4.5338783,0.0523834c2.6286621-0.3772812,5.3476563-0.3664093,7.8384094-1.4879227
		c0.4523659-0.2036667,0.6015778-0.0577393,0.6915321,0.4280777c0.4217567,2.2779388,0.4727287,4.5851746,0.6132278,6.885849
		c-0.5703659,0.5544662-1.3241272,0.738678-2.0481415,0.9182892c-2.2502251,0.558197-4.5420418,0.9585571-6.8565636,1.0050888
		c-7.5839615,0.1524811-15.1675758,0.2204361-22.6745911-1.1818542c-3.0145712-0.5631256-6.0234237-1.1427994-8.9364958-2.1202469
		c-0.8156703-0.2736893-1.598085-0.6463776-2.3957574-0.9736481C0.24,116.8929443,0.24,115.7735825,0.24,114.6542282z"></path>
	<path d="M184.6303711,120.0952835c-0.0029449-1.9510651-0.1226654-3.9011993,0.2623901-5.8428955
		c0.195816-0.9874802,0.4139404-1.3570786,1.6173706-1.1066895c4.1722565,0.8681107,8.4254913,0.5919037,12.655899,0.596138
		c3.0799408,0.0030823,6.1420441-0.2100525,9.1736145-0.7394409c3.1416168-0.5485992,6.3069763-0.9494934,9.4234467-1.66082
		c3.4357605-0.7842331,6.7543945-1.8999786,10.0181885-3.2038116c0.9974213,2.4374161,1.2762146,4.9902496,1.1629181,7.5927658
		c-0.0325317,0.747139-0.7740631,0.8473129-1.2987061,1.0544434c-2.490799,0.9832916-5.0855103,1.6438446-7.6618347,2.3490143
		c-9.1388245,2.5013885-18.4691162,3.110321-27.8868713,2.635231c-2.0218353-0.102005-4.0606384-0.308609-6.0298462-0.8818054
		C185.5262299,120.7300262,184.9997559,120.5578766,184.6303711,120.0952835z"></path>
</g>
<g onclick="select(this)" class="" id="estampa-terciaria" fill="#ffffff">
	<path d="M130.3398895,285.9807129c-0.0002594-86.8105316-0.0017395-173.6210327,0.0202789-260.4315491
		c0.0001831-0.720108-0.4555817-2.0244598,0.5263062-2.029089c0.8028564-0.0037823,0.3260803,1.3103199,0.3263092,2.0003643
		c0.0291138,86.6107788,0.0276337,173.2215424,0.0273743,259.8323669c0,0.1997375-0.0051422,0.3995056-0.0081635,0.5991821
		C130.9414825,286.1788025,130.6431274,286.155304,130.3398895,285.9807129z"></path>
	<path d="M96.9927292,285.6915283c-0.0029297-0.5594788-0.0084229-1.118927-0.0084305-1.6784058
		c-0.0003738-86.2131958-0.000351-172.4263916-0.000351-258.6395569c0-0.5053234,0-1.0106468,0-1.5282784
		c0.6742401,0.0091267,0.866272,0.3505001,0.8811111,0.8494759c0.008316,0.2795601,0.0054474,0.5594902,0.0054474,0.8392544
		c0.0003128,86.5329514,0.0004578,173.0658875,0.0000687,259.5988464c0,0.199707-0.0078506,0.3993835-0.0125198,0.5989685
		C97.5599442,285.9194946,97.2707748,285.925293,96.9927292,285.6915283z"></path>
</g>
<g onclick="select(this)" class="" id="estampa-secundaria" fill="#801815">
	<path d="M128.2354279,286.0477295c-0.0103455-0.3990173-0.0297699-0.7980347-0.0297852-1.197052
		c-0.0013123-86.0658417-0.0022583-172.1316833,0.0164795-258.1975098c0.0001678-0.6922512-0.399765-1.9310398,0.5101776-1.9369183
		c0.777359-0.0050259,0.3392181,1.2357121,0.3394165,1.8919754c0.0249939,86.0658264,0.0237122,172.1316681,0.0230713,258.1975098
		c0,0.3995972-0.0092316,0.7991638-0.0145111,1.1988831C128.8069458,286.1860962,128.5233002,286.1583557,128.2354279,286.0477295z"></path>
	<path d="M99.3997116,285.8063354c-0.0058746-0.4394836-0.0168991-0.8789978-0.0169067-1.3184814
		c-0.0007553-85.8578033-0.0015488-171.7156219,0.0167542-257.5734253c0.0001297-0.5708218-0.3616257-1.6291904,0.3307877-1.6391087
		c0.940834-0.0134773,0.532341,1.0657845,0.5324783,1.6594391c0.0194168,85.8977737,0.0185547,171.7955475,0.0174179,257.6932983
		c-0.0000076,0.3992004-0.0167007,0.7984314-0.0260315,1.1976929
		C99.9664917,285.933197,99.681778,285.9277954,99.3997116,285.8063354z"></path>
	<path d="M126.0531616,286.0875549c-0.0091858-0.4392395-0.0264053-0.878479-0.0264206-1.3177185
		c-0.0011902-85.7345886-0.0023193-171.4691772,0.0216751-257.2037354c0.0001755-0.6248455-0.4632111-1.7668953,0.504303-1.7790279
		c0.6464386-0.0081081,0.2890549,1.1547546,0.2892227,1.7686729c0.0212631,85.7345734,0.0203323,171.469162,0.0185394,257.2037354
		c-0.0000153,0.4385376-0.0261765,0.8771057-0.0408936,1.3156738
		C126.5652618,286.1821899,126.309906,286.1781921,126.0531616,286.0875549z"></path>
	<path d="M101.6483536,285.8601685c-0.0137253-0.4786987-0.0394669-0.957428-0.0394745-1.4361267
		c-0.00177-85.5375977-0.0016937-171.0751801-0.0015488-256.6127625c0-0.3597279-0.0076065-0.7198391,0.0065079-1.0790596
		c0.010704-0.2725163-0.0161896-0.6056805,0.4060059-0.5815201c0.3593063,0.0205631,0.4379501,0.2935047,0.449585,0.5927391
		c0.0093079,0.2395115,0.0074158,0.4795246,0.0074158,0.7193165c0.0001984,85.9372864,0.0001373,171.8745728-0.0005264,257.8118896
		c0,0.1997986-0.0089722,0.3995667-0.0138168,0.5993958C102.1910782,285.8694153,101.9197159,285.8648071,101.6483536,285.8601685z"></path>
	<path d="M119.4129944,286.2991028c-0.0154953-0.3983154-0.0445557-0.7966919-0.0445633-1.1950073
		c-0.0019684-85.187088-0.0019608-170.3742065,0.0001373-255.5612946c0.0000076-0.4382744,0.0040359-0.8797951,0.0570221-1.3136005
		c0.0317078-0.259676,0.2423019-0.4184875,0.519455-0.3712749c0.2499542,0.0425797,0.2577133,0.2687168,0.2640228,0.4670467
		c0.0088882,0.2795792,0.0060196,0.5595722,0.0060196,0.8393879c0.0001678,85.3469925,0.0001907,170.693985-0.0009689,256.0409851
		c0,0.359375-0.0170898,0.7187195-0.0265579,1.0781555C119.9313889,286.4008789,119.6733398,286.4064636,119.4129944,286.2991028z"></path>
	<path d="M108.2826157,286.1253052c-0.0058441-0.3995667-0.0168076-0.7991028-0.0168152-1.1986389
		c-0.0007553-85.1416931-0.0017242-170.2833862,0.0235214-255.4250793c0.0001526-0.4892368-0.4419785-1.4449863,0.3886414-1.4457436
		c0.8287582-0.0007591,0.4471817,0.9639664,0.4472961,1.4831467c0.0193481,85.1416931,0.0186005,170.2834015,0.017334,255.4250946
		c0,0.3992615-0.0184555,0.7985229-0.0286865,1.1977844C108.8298569,286.3017273,108.5547638,286.2469788,108.2826157,286.1253052z"></path>
	<path d="M117.1901016,286.3353882c-0.0074387-0.4793396-0.0213852-0.9587097-0.0213928-1.4380798
		c-0.0009613-84.972702-0.0020065-169.9454041,0.0214767-254.9181213c0.0001602-0.5780964-0.4516373-1.6560249,0.4590073-1.6580296
		c0.6818771-0.0015049,0.326088,1.0746498,0.3262177,1.6508904c0.018219,85.0526428,0.0174484,170.1052856,0.0159149,255.1579285
		c-0.0000076,0.3988647-0.0225143,0.7977295-0.0351563,1.1966248
		C117.7003784,286.3295898,117.4452362,286.332489,117.1901016,286.3353882z"></path>
	<path d="M110.5146713,286.2796936c-0.0123138-0.4789734-0.035408-0.9579468-0.035408-1.4369202
		c-0.0015945-84.9413757-0.0015335-169.8827515-0.0013962-254.8241272c0-0.3597412-0.0036697-0.7196178,0.0048523-1.0791836
		c0.0067673-0.2858219,0.0163422-0.5956841,0.4242935-0.5727577c0.3718185,0.0208969,0.4230652,0.3017387,0.4259644,0.600296
		c0.0027161,0.2797813,0.0043945,0.5595837,0.0043945,0.8393764c0.0001526,85.1412354,0.0001984,170.2824707-0.0012054,255.4237213
		c-0.0000076,0.3590393-0.0205688,0.7181091-0.0317917,1.0772095
		C111.0373917,286.4001465,110.7736282,286.4084778,110.5146713,286.2796936z"></path>
	<path d="M123.8263245,286.1300964c-0.0041504-0.4796448-0.0118942-0.9592896-0.0119095-1.4389343
		c-0.0005417-85.4307709-0.0016403-170.8615417,0.0223541-256.2922974c0.0001602-0.5806637-0.4620438-1.653553,0.454628-1.6675415
		c0.6271591-0.0095692,0.3004227,1.0776272,0.3005447,1.6571846c0.0170898,85.4307632,0.0163269,170.8615265,0.0158615,256.2922668
		c0,0.4796753-0.0069733,0.9593201-0.0105591,1.4389648C124.3416672,286.2209473,124.0848083,286.2367554,123.8263245,286.1300964z"></path>
	<path d="M103.8787384,285.9117432c-0.0038986-0.5195313-0.0112-1.039032-0.0112-1.5585938
		c-0.0005035-85.2146301-0.0004883-170.4292603-0.0004578-255.6438904c0-0.359724-0.0196304-0.7209492,0.007103-1.0786953
		c0.021225-0.2841187-0.1303177-0.7495537,0.3679581-0.7131901c0.3750153,0.0273666,0.4230881,0.420433,0.4241638,0.7553425
		c0.0007706,0.2398109,0.0023346,0.4796219,0.0023346,0.7194328c0.0001068,85.4944153,0.0001373,170.9888458-0.0009308,256.4832458
		c-0.0000076,0.359436-0.0157089,0.7188721-0.0241165,1.0783081
		C104.3780212,286.1326294,104.1275482,286.037384,103.8787384,285.9117432z"></path>
	<path d="M121.6446762,286.1924438c-0.0080338-0.4794006-0.0230789-0.9587708-0.0230865-1.4381714
		c-0.0010452-85.2153625-0.0021896-170.4307251,0.0233765-255.6460571c0.0001755-0.5773335-0.4772034-1.6550179,0.4447556-1.6702156
		c0.6516113-0.0107384,0.3140717,1.0721359,0.3141861,1.6482296c0.0176392,85.1753845,0.0168686,170.3507538,0.0159836,255.5261383
		c0,0.5193481-0.0127106,1.0386963-0.0195084,1.5580139C122.1535721,286.352478,121.9020691,286.3733215,121.6446762,286.1924438z"></path>
	<path d="M106.0976944,286.0553284c-0.0078583-0.399353-0.0226059-0.7987061-0.0226135-1.1980591
		c-0.0010071-85.2227478-0.0016861-170.4454803,0.0147018-255.6682129c0.0000992-0.5387306-0.2999954-1.5499744,0.307991-1.5408287
		c0.8880692,0.0133572,0.4322739,1.0214787,0.4324188,1.563446c0.0233307,85.1827621,0.0223389,170.3655243,0.021347,255.5483093
		c0,0.4394531-0.0145721,0.8788757-0.0222626,1.3183594C106.5825577,286.1633301,106.3382645,286.1683044,106.0976944,286.0553284z"></path>
	<path d="M112.7453003,286.334198c-0.0017548-68.4003754-0.0035934-136.800766-0.0052109-205.2011566
		c-0.0003891-16.9102097-0.000061-33.8204155-0.0000458-50.7306213c0-0.2798367-0.0258102-0.5627251,0.0066681-0.8387547
		c0.0419769-0.3566475-0.1947021-0.9513416,0.3973846-0.9487076c0.5882645,0.0026169,0.341774,0.5967388,0.3961563,0.9534931
		c0.0238342,0.1562881,0.0041656,0.3192062,0.0041656,0.4791145c-0.0000076,85.1507034-0.0000229,170.3014069-0.0003281,255.4521027
		c0,0.2797852-0.0041733,0.5595703-0.0063782,0.8393555C113.2736053,286.3374023,113.0094452,286.3357849,112.7453003,286.334198z"></path>
	<path d="M114.9541016,286.3407593c-0.0024338-2.2385559-0.0069962-4.4771118-0.0070038-6.7156982
		c-0.0003662-83.1077728-0.0014496-166.2155762,0.023468-249.3233643c0.0001678-0.5730667-0.4589844-1.6446056,0.4275055-1.6556797
		c0.6581116-0.0082207,0.3187943,1.0762424,0.3189163,1.6542988c0.0176697,85.346344,0.0163651,170.692688,0.0160675,256.039032
		C115.4735107,286.3398438,115.2138062,286.3403015,114.9541016,286.3407593z"></path>
</g>
</svg>
