<!--?xml version="1.0" encoding="utf-8"?-->
<!-- Generator: Adobe Illustrator 24.2.3, SVG Export Plug-In . SVG Version: 6.00 Build 0)  -->
<svg version="1.1" id="Camada_1" xmlns="http://www.w3.org/2000/svg" xmlns:xlink="http://www.w3.org/1999/xlink" x="0px" y="0px" viewBox="0 0 229 418" style="enable-background:new 0 0 229 418;" xml:space="preserve">
<style type="text/css">
	.st0{fill:#FD0303;}
	.st1{fill:#0101FC;}
	.st2{fill:#508E4A;}
	.st3{fill:#F2F53B;}
</style>
<g onclick="select(this)" class="" id="gola-primaria" fill="#009045">
	<path d="M77.9,8c0.6-0.1,1-0.4,1.4-0.8c0.9-0.9,2-1.7,2.7-2.7c1.8-2.5,4.4-3.4,7.3-3.8c0.6-0.1,1.3,0.1,1.9-0.5
		c1.2,0,2.4,0,3.6,0c0.2,0.5,0.6,0.3,0.9,0.3c5.6,0,11.2,0,16.7,0c0.4,0,0.8-0.1,1.1-0.3c7.5,0,15,0,22.6,0c0.1,0.5,0.5,0.3,0.8,0.4
		c1,0.2,2,0.3,2.9,0.4c2,0.3,3.7,1.1,4.9,2.8c1.3,1.7,2.7,3.3,4.6,4.4c1.3,0.6,1.9,1.5,1.8,3c-0.2,3.7-2.1,6.7-4.3,9.6
		c-0.4,0.5-0.7,0.1-1-0.1c-1.8-1.4-3.5-2.8-5.3-4.1c-0.7-0.5-0.7-0.8-0.1-1.5c1.6-1.8,2.9-3.7,3.8-6.1c-2.6,0.2-5,0.4-7.4,0.6
		c-10.8,0.7-21.5,1.8-32.3,1c-6.7-0.5-13.4-1.1-20.1-1.7c-0.4,0-0.9-0.2-1.2,0c-0.3,0.4,0.1,0.8,0.2,1.2c0.8,2,2.1,3.6,3.5,5.1
		c0.4,0.4,0.8,0.8,0.1,1.3c-1.8,1.4-3.6,2.8-5.3,4.3c-0.5,0.4-0.8,0.3-1.2-0.1c-1.9-2.4-3.4-4.9-4.2-7.9C75.8,10.6,76.3,9.1,77.9,8z
		"></path>
</g>
<g onclick="select(this)" class="" id="detalhe-punho" fill="#005425">
	<path d="M227.8,108.4c0.6,0.8,0.4,1.7,0.7,2.6c0.1,0.4,0.1,0.9,0.4,1.3c0,1.3,0,2.6,0,3.8c-2.6,1.5-5.5,2-8.4,2.9
		c-9.3,2.7-18.8,3.3-28.3,2.8c-2.1-0.1-4.1-0.3-6.2-0.9c-0.5-0.2-1-0.4-1.5-0.7c-0.3-2.5,0.4-4.9,0.5-7.4c3.8,0.7,7.6,1,11.4,1
		c2.5,0,5,0.2,7.4-0.2c3.1-0.5,6.1-1,9.2-1.6C218.1,111.2,223,109.8,227.8,108.4z"></path>
	<path d="M0.2,114.7c0.5-1.2,0.4-2.5,0.7-3.7c0.1-0.4,0-0.9,0.4-1.2c0.3,0.1,0.6,0.3,0.9,0.4c6.3,2.3,12.8,3.4,19.4,4.1
		c3.4,0.3,6.9,0,10.3,0c1.8,0,3.5-0.1,5.3-0.3c1.4-0.2,3,0.1,4.3-0.8c0.4-0.3,0.6,0.1,0.8,0.4c0.4,0.8,0.2,1.7,0.6,2.4
		c0,1.5,0.6,3,0.3,4.5c-2.7,1.3-5.6,1.7-8.5,1.8c-9.4,0.4-18.7,0.1-27.8-2.1c-2.3-0.6-4.5-1.1-6.7-2.2
		C0.2,116.9,0.2,115.8,0.2,114.7z"></path>
</g>
<g onclick="select(this)" class="" id="estampa-primaria" fill="#009045">
	<path d="M42.9,115.9c-0.4-0.8-0.2-1.7-0.6-2.4c-0.2-0.3-0.4-0.7-0.8-0.4c-1.3,0.9-2.9,0.6-4.3,0.8c-1.7,0.2-3.5,0.3-5.3,0.3
		c-3.4,0.1-6.9,0.4-10.3,0c-6.6-0.7-13.1-1.7-19.4-4.1c-0.3-0.1-0.6-0.3-0.9-0.4c1.8-9.5,2.7-19.1,4.3-28.7
		C6.5,76,6.8,70.8,7.9,65.7c1.7-8.1,4.5-15.7,9.4-22.5c2.1-2.9,4.6-5.5,7.4-7.8c1.3-1.1,2.3-2.5,3.8-3.3c3.6-1.9,7.3-3.7,11-5.3
		c10-4.1,20.1-8.2,29.6-13.5c1.9-1.1,3.9-2.1,5.4-3.8c0.8-1,2-1.6,3.4-1.6c-1.7,1.2-2.1,2.6-1.5,4.9c0.8,2.9,2.3,5.5,4.2,7.9
		c0.4,0.5,0.7,0.6,1.2,0.1c1.8-1.4,3.5-2.9,5.3-4.3c0.7-0.6,0.3-0.9-0.1-1.3c-1.4-1.5-2.7-3.2-3.5-5.1C83.4,9.8,83,9.3,83.4,9
		c0.3-0.3,0.8-0.1,1.2,0c6.7,0.6,13.4,1.2,20.1,1.7c10.8,0.8,21.6-0.2,32.3-1c2.4-0.2,4.8-0.4,7.4-0.6c-0.9,2.4-2.2,4.3-3.8,6.1
		c-0.5,0.6-0.6,0.9,0.1,1.5c1.8,1.3,3.6,2.7,5.3,4.1c0.3,0.2,0.6,0.6,1,0.1c2.2-2.8,4-5.8,4.3-9.6c0.1-1.5-0.5-2.4-1.8-3
		c1.8-0.1,3,1,4,2.2c0.3,0.4,0.7,0.7,1.1,1c10,6.5,21.2,10.6,32.2,15.2c4,1.7,7.8,3.6,11.7,5.3c1.6,0.7,2.7,2.3,4.2,3.3
		c3.1,2.3,5.8,5.1,8.2,8.2c4.8,6.4,7.6,13.7,9.3,21.5c0.6,2.9,1.2,5.8,1.5,8.7c0.6,5.8,2.3,11.3,3.4,17c1.1,5.9,1.9,11.8,2.9,17.7
		c-4.9,1.4-9.7,2.8-14.7,3.7c-3.1,0.5-6.1,1-9.2,1.6c-2.4,0.4-4.9,0.2-7.4,0.2c-3.8,0-7.6-0.2-11.4-1c0.4-4.4,1.3-8.8,2.2-13.1
		c0.5-2.6,1.2-5.1,1.8-7.7c-0.4,0.4-0.6,0.8-0.8,1.2c-1.8,4.1-3,8.4-4.2,12.8c-2.4,8.9-3.8,18-4.8,27.2c-0.6,5.2-0.9,10.4-1.2,15.7
		c-0.3,4.9-0.5,9.9-0.5,14.8c0,16.9-0.3,33.9,0.2,50.8c0.2,7.3,0.3,14.6,0.5,21.9c0.2,4.9,0.3,9.7,0.5,14.6c0.2,6,0.5,12,0.7,17.9
		c0.2,5,0.4,10,0.8,15.1c-7.7,1.1-15.4,1.4-23.1,1.5c-12.9,0.2-25.9,0.6-38.8,0.9c-6.8,0.2-13.5-0.5-20.2-0.6
		c-8.7-0.1-17.4-0.2-26.1-0.4c-8.3-0.2-16.6-0.4-24.8-1.8c0.5-3.8,0.5-7.6,0.7-11.3c0.4-5.6,0.6-11.2,0.8-16.9
		c0.1-4.4,0.3-8.9,0.5-13.3c0.3-6.3,0.4-12.5,0.5-18.8c0.1-4,0.2-8,0.2-12c0.1-14.3,0.1-28.5,0.1-42.8c0-2.2,0-4.5-0.1-6.7
		c-0.3-6.3-0.3-12.7-0.9-19c-0.2-2.5-0.3-4.9-0.5-7.4c-0.6-4.9-1.1-9.9-2-14.7c-1.1-6-2.2-12-3.9-17.8c-0.7-2.2-1.2-4.4-2.2-6.6
		c-0.6,0.9,0.2,1.4,0.2,2.1c0.4,3.4,1.1,6.7,1.4,10.1C42.3,111,43.1,113.4,42.9,115.9z"></path>
</g>
<g onclick="select(this)" class="" id="detalhe-lateral" fill="#005425">
	<path d="M180.3,284c-0.4-5-0.6-10-0.8-15.1c-0.3-6-0.5-11.9-0.7-17.9c-0.2-4.9-0.3-9.7-0.5-14.6
		c-0.3-7.3-0.3-14.6-0.5-21.9c-0.4-16.9-0.2-33.9-0.2-50.8c0-4.9,0.2-9.9,0.5-14.8c0.3-5.2,0.7-10.5,1.2-15.7
		c1-9.2,2.5-18.3,4.8-27.2c1.1-4.3,2.4-8.6,4.2-12.8c0.2-0.4,0.4-0.8,0.8-1.2c-0.6,2.6-1.3,5.1-1.8,7.7c-0.9,4.3-1.8,8.7-2.2,13.1
		c-0.1,2.5-0.7,4.9-0.5,7.4c-1.3,10.3-2.3,20.7-2,31.2c0.1,2.4,0.8,4.8,0.4,7.3c-0.3,2.3-0.4,4.7-0.4,7c0.1,6.6,0.1,13.2-0.1,19.7
		c-0.1,4.5,0.7,8.7,1.4,13c0.9,5.1,1,10.2,0.2,15.4c-0.3,2.3-0.5,4.7-0.8,7c0,0.4,0.1,0.8,0.2,1.2c2,5.7,2.5,11.6,1.6,17.6
		c-0.3,2.1-0.3,4.2,0.1,6.3c0.4,2,0.5,4,0.5,6c-0.1,7.4,0.7,14.7,1.4,22c0.2,2.3,0.3,4.6,0.3,6.9c0,1.1-0.5,1.8-1.5,2.2
		C184.2,283.5,182.3,284,180.3,284z"></path>
	<path d="M42.9,115.9c0.2-2.5-0.6-4.9-0.9-7.4c-0.4-3.4-1-6.7-1.4-10.1c-0.1-0.7-0.8-1.2-0.2-2.1
		c0.9,2.2,1.5,4.4,2.2,6.6c1.8,5.8,2.9,11.8,3.9,17.8c0.9,4.9,1.4,9.8,2,14.7c0.3,2.4,0.3,4.9,0.5,7.4c0.6,6.3,0.6,12.6,0.9,19
		c0.1,2.2,0.1,4.5,0.1,6.7c0,14.3,0,28.5-0.1,42.8c0,4-0.1,8-0.2,12c-0.1,6.3-0.3,12.5-0.5,18.8c-0.2,4.4-0.3,8.8-0.5,13.3
		c-0.2,5.6-0.4,11.2-0.8,16.9c-0.3,3.8-0.2,7.6-0.7,11.3c-1.7-0.1-3.4-0.5-5-1.1c-1.6-0.6-2-1.1-2-2.8c0-2.8,0.2-5.6,0.4-8.3
		c0.4-5.3,0.7-10.6,1.2-15.9c0.4-4.8-0.1-9.6,0.9-14.3c0.2-0.9,0.1-1.8,0-2.7c-0.5-3.1-0.3-6.2,0.3-9.3c0.2-0.9,0.1-1.7,0.1-2.6
		c-0.3-4.1-0.9-8.3-0.9-12.4c0-4.8,1.1-9.4,2.7-13.9c0.3-1,0.6-1.9,0.4-2.9c-0.2-1.5-0.1-3,0.1-4.5c0.1-0.6,0.2-1.3,0.2-1.9
		c-0.4-4.8-0.1-9.7-0.4-14.5c-0.1-1.1,0.1-2.2,0.2-3.3c0.1-1.9,0.1-3.7,0-5.6c-0.4-6.8-0.1-13.6,0-20.4c0.1-7.3-0.6-14.6-1.6-21.9
		c-0.2-1.5-0.4-3.1-0.6-4.6C43.5,118.9,43,117.4,42.9,115.9z"></path>
</g>
<g onclick="select(this)" class="" id="estampa-secundaria" fill="#005425">
	<path d="M76.3,12.3c0.8,3,2.2,5.7,4.1,8.1c0.5,0.7,0.9,0.8,1.6,0.3c0.8-0.6,1.2-1.6,2.3-1.7c0.3,0.1,0.4,0.4,0.5,0.6
		c1.6,3.3,3.3,6.6,4.9,9.9c0.1,0.3,0.2,0.7,0.6,0.7c0.4,0,0.4-0.4,0.6-0.7c1.1-2.1,2.2-4.3,3.2-6.4c0.3-0.6,0.6-0.8,1.3-0.3
		c4.8,3.2,10.2,5,15.9,5.8c0.9,0.1,1.6,0.3,1.9,1.3c0.2,0.5,0.6,0.7,0.8,0.1c0.4-1.1,1.2-1.3,2.3-1.3c0.8,0,1.5-0.3,2.3-0.4
		c4.8-0.8,9.2-2.7,13.3-5.3c0.7-0.5,1.1-0.4,1.5,0.4c1,2.1,2.1,4.3,3.2,6.3c0.4,0.8,0.4,1.4,0,2.2c-3.5,7.1-7,14.1-10.5,21.2
		c-0.4,0.9-0.4,1.6,0,2.5c3.5,7.1,7,14.3,10.5,21.4c0.3,0.7,0.4,1.2,0,1.9c-3.6,7.1-7,14.3-10.6,21.4c-0.4,0.9-0.4,1.6,0,2.4
		c3.5,7,6.9,14.1,10.4,21.1c0.5,1,0.5,1.8,0,2.8c-3.6,7-7.1,14.2-10.5,21.3c-0.3,0.6-0.3,1.2,0,1.8c0.9,1.8,1.7,3.5,2.6,5.3
		c2.7,5.4,5.3,10.8,8,16.1c0.4,0.9,0.4,1.5,0,2.3c-1.6,3.2-3.2,6.4-4.8,9.7c-1.9,4-3.9,8-5.8,12c-0.3,0.7-0.3,1.3,0.1,1.9
		c1.6,3.2,3.1,6.4,4.7,9.6c2,4,4,8,6,12c0.2,0.5,0.4,0.9,0.1,1.4c-0.9,1.6-1.6,3.3-2.4,4.9c-3,5.7-5.7,11.6-8.6,17.4
		c-0.2,0.5-0.2,0.9,0,1.4c1,1.9,1.9,3.9,2.8,5.8c2.6,5.3,5.3,10.7,8,16c0.2,0.5,0.5,0.9,0.2,1.4c-1.3,2.5-2.4,5.1-3.8,7.6
		c-1.9,3.6-3.5,7.4-5.4,11c-0.1,0.2-0.1,0.5-0.2,0.8c-1.4,0.1-2.7,0.2-4.1,0.1c0-0.4-0.2-0.8-0.3-1.1c-2.9-5.9-5.8-11.8-8.8-17.7
		c-0.1-0.3-0.2-0.6-0.7-0.7c-1.9,3.9-3.9,7.8-5.8,11.7c-1.3,2.5-2.4,5.1-3.7,7.7c-1.4,0.1-2.7,0-4.1-0.1c-0.1-0.2-0.1-0.4-0.2-0.6
		c-2.8-6.1-5.9-12.1-8.9-18.1c-0.1-0.2-0.1-0.5-0.5-0.5c-3.1,6.3-6.2,12.6-9.3,18.9c-1.5,0.2-3.1,0.1-4.6,0
		c-0.1-0.3-0.1-0.6-0.2-0.8c-2.2-4.4-4.3-8.9-6.5-13.3c-0.8-1.6-1.6-3.1-2.5-4.8c-0.2,0.3-0.3,0.4-0.4,0.6c-2.5,5-5,9.9-7.4,14.9
		c-0.4,0.9-1.1,1.8-1.2,2.8c-1.9,0-3.7-0.1-5.5-0.5c-1.5-3.4-3-6.7-4.8-9.9c-0.2-1.1,0.1-2.2,0.2-3.3c0.2-4.7,0.3-9.4,0.5-14.2
		c0-0.4,0-0.7,0.3-1c0.5-0.5,0.7-1.1,0.9-1.6c1.7-3.4,3.3-6.8,5-10.2c0.5-1.1,0.5-1.9,0-2.9c-1.3-2.6-2.6-5.2-3.9-7.8
		c-0.4-0.8-0.6-1.8-1.3-2.4c0.1-5.9,0-11.8,0.3-17.7c0.1-2.4,0.1-4.9,0.3-7.3c0.2-0.1,0.3-0.2,0.4-0.4c1.5-3.2,3.1-6.3,4.6-9.5
		c0.3-0.5,0.2-1-0.1-1.5c-1.4-2.9-2.9-5.9-4.3-8.8c-0.2-0.3-0.2-0.7-0.7-0.8c0-0.5-0.1-0.9-0.1-1.4c0-5.9,0-11.8,0-17.7
		c0-2.1-0.4-4.2-0.2-6.3c0.7-0.6,0.9-1.6,1.3-2.4c1.2-2.4,2.5-4.9,3.7-7.4c0.3-0.6,0.8-1.2,0.4-2c-2.2-4.6-4.4-9.3-6.8-13.8
		c-0.4-2.7-0.8-5.4-1.1-8.1c-0.2-2.1-0.8-4.2-0.8-6.3c0.1-0.1,0.2-0.2,0.3-0.4c2.7-5.6,5.5-11.1,8.2-16.7c0.5-0.9,0.4-1.7-0.1-2.6
		c-3.5-6.9-6.8-13.8-10.3-20.7c-0.1-0.3-0.2-0.5-0.4-0.8c-0.2-0.4-0.5-0.5-0.7,0c-1.7,3.6-3.7,7-5.2,10.7c-0.2-0.3-0.3-0.6-0.4-1
		c-0.9-2.3-1.5-4.7-2.7-6.9c-2.5-4.6-2.7-9.5-2.3-14.4c0.2-2.8-0.4-5.4-0.3-8.2c0.1-1.1-0.1-2.3,0-3.5c0.5,0.2,0.6,0.7,0.8,1
		c0.8,1.7,1.6,3.3,2.4,5c2.5,5,5,10,7.4,14.9c0.2,0.4,0.2,0.9,0.7,1.2c0.1-0.2,0.2-0.2,0.2-0.3c3.7-7.4,7.3-14.8,11-22.1
		c0.3-0.6,0.2-1,0-1.6c-2.6-5.3-5.3-10.7-7.9-16c-0.2-0.3-0.3-0.8-0.7-1c-0.4-2-1.8-3.6-2.6-5.7c-1.2,2.6-2.3,4.9-3.4,7.2
		c-0.2,0.4-0.5,0.7-0.7,1.1c-2.1,4.3-4.2,8.5-6.3,12.8c-0.4,0.8-1,1.5-1,2.4c-0.1-1.8-0.7-3.5-0.8-5.3c-0.2-2.9-0.7-5.8-1.4-8.6
		c-0.7-2.7-1.6-5.3-1.3-8.2c0-0.4,0.3-0.5,0.6-0.6c3.9-1.5,7.5-3.8,11.4-5.2c0.2-0.1,0.5-0.1,0.7-0.2c0.7,1.4,1.4,2.8,2.2,4.4
		c0.7-1.3,1.3-2.5,1.8-3.7c0.4-1,1.2-1.8,1.2-3l0,0c0.2,0,0.4-0.1,0.5-0.3c4.3-1.9,8.7-3.8,13-5.8c0.6,0,0.7,0.6,0.9,1
		c1.6,3.2,3.2,6.4,4.8,9.6c0.2,0.4,0.4,1,0.9,1c0.5,0,0.7-0.5,1-0.9c0.1-0.2,0.2-0.4,0.3-0.6c2.2-4.4,4.4-8.9,6.6-13.3
		C75.4,13.9,75.7,13,76.3,12.3z M90.2,124.6c0.5-0.2,0.6-0.6,0.8-0.9c3.5-7.1,7-14.2,10.5-21.3c0.3-0.7,0.3-1.3,0-1.9
		c-1.7-3.4-3.3-6.8-4.9-10.1c-1.8-3.7-3.7-7.4-5.6-11.2c-0.2-0.3-0.2-0.8-0.6-0.8c-0.5,0-0.5,0.6-0.7,0.9c-0.3,0.6-0.6,1.3-0.9,1.9
		c-3.1,6-6.1,12.1-9,18.2c-0.3,0.7-0.5,1.4-1.2,2c-3.8-7.8-7.7-15.5-11.6-23.4c-0.3,0.7-0.5,1.2-0.8,1.6c-3.7,6.9-6.9,14-10.4,20.9
		c-0.3,0.7-0.3,1.2,0,1.9c1.1,2.3,2.2,4.5,3.3,6.8c1.5,3.2,3.1,6.3,4.6,9.5c1,2.1,2.1,4.1,3.2,6.3c0.3-0.5,0.5-0.9,0.6-1.2
		c3.4-6.8,6.8-13.7,10.2-20.5c0.2-0.4,0.3-1.2,0.8-1.2c0.6,0,0.7,0.8,0.9,1.3C83.2,110.2,86.6,117.4,90.2,124.6z M67.1,172
		c1-2,1.9-3.8,2.8-5.5c2.8-5.6,5.5-11.3,8.3-16.9c0.1-0.3,0.2-0.7,0.5-0.7c0.4,0,0.4,0.4,0.6,0.7c0.1,0.1,0.1,0.2,0.2,0.3
		c3.4,6.9,6.9,13.9,10.3,20.9c0.1,0.3,0.1,0.8,0.6,0.8c0.4,0,0.4-0.5,0.6-0.8c0.6-1.1,1.2-2.3,1.7-3.4c2.9-5.9,5.8-11.8,8.7-17.7
		c0.3-0.6,0.4-1.1,0.1-1.8c-3.2-6.4-6.3-12.8-9.4-19.1c-0.5-1-1.1-2-1.8-3.2c-0.3,0.6-0.6,1.1-0.8,1.5c-3.4,6.8-6.8,13.7-10.1,20.5
		c-0.2,0.3-0.2,0.9-0.7,0.9c-0.4,0-0.4-0.4-0.6-0.7c-3.6-7.2-7.1-14.5-10.7-21.7c-0.1-0.2-0.2-0.4-0.5-0.4
		c-3.7,7.5-7.4,15.1-11.1,22.7c-0.2,0.4-0.1,0.8,0.1,1.3c0.8,1.6,1.5,3.2,2.3,4.8c1.7,3.6,3.5,7.1,5.2,10.6
		C64.6,167.1,65.8,169.4,67.1,172z M55.7,196c0.1,0.2,0.2,0.5,0.3,0.8c0.7,1.4,1.4,2.9,2.1,4.3c2.7,5.7,5.4,11.3,8.3,16.9
		c0.2,0.3,0.1,0.9,0.6,0.8c0.4,0,0.5-0.6,0.7-0.9c3.5-7.1,7-14.3,10.6-21.4c0.3-0.6,0.3-1.1,0-1.7c-1.7-3.4-3.3-6.8-4.9-10.1
		c-1.9-3.8-3.7-7.6-5.6-11.4c-0.1-0.3-0.2-0.7-0.5-0.7c-0.5,0-0.4,0.5-0.6,0.8c-0.5,1-1.1,2-1.6,3c-3,6.1-6,12.2-9,18.3
		C55.9,195,55.7,195.4,55.7,196z M125.1,101.5c-0.1-0.3-0.3-0.6-0.4-0.9c-3.5-7.1-7-14.3-10.5-21.4c-0.2-0.3-0.2-0.9-0.7-0.9
		c-0.4,0-0.4,0.5-0.6,0.8c-3.5,7-6.9,14-10.4,20.9c-0.4,0.8-0.6,1.5,0,2.3c0.5,0.8,0.9,1.8,1.3,2.7c2.9,6.2,6,12.3,9.1,18.5
		c0.2,0.3,0.2,0.8,0.6,0.8c0.5,0,0.5-0.6,0.7-0.9c3.5-7,6.9-14,10.4-21.1C124.8,102.2,124.9,101.8,125.1,101.5z M55.6,242.8
		c0.1,0.4,0.3,0.7,0.4,1c3.4,7,6.9,14.1,10.3,21.1c0.2,0.3,0.2,0.9,0.6,0.9c0.5,0,0.6-0.6,0.7-1c3.4-6.9,6.8-13.8,10.2-20.6
		c0.5-1.1,0.5-1.9,0-2.9c-3.4-6.9-6.9-13.9-10.3-20.8c-0.1-0.3-0.2-0.8-0.6-0.8c-0.3,0-0.4,0.5-0.5,0.8c-3.5,7.1-7,14.2-10.5,21.3
		C55.8,242.1,55.7,242.4,55.6,242.8z M113.4,218.9c0.2-0.2,0.3-0.3,0.3-0.4c3.8-7.4,7.4-14.9,11.1-22.3c0.2-0.5,0.2-0.9-0.1-1.4
		c-3.5-7.2-7.1-14.3-10.6-21.5c-0.1-0.3-0.2-0.7-0.6-0.7c-0.4,0-0.5,0.5-0.6,0.8c-2.2,4.4-4.4,8.9-6.6,13.3c-1.3,2.8-2.7,5.5-4,8.3
		c-0.2,0.4-0.3,0.8-0.1,1.2c0.5,0.9,0.9,1.9,1.3,2.8c2,4.1,4,8.2,6,12.3C110.9,213.9,112.2,216.3,113.4,218.9z M67,77.5
		c0.2-0.1,0.2-0.1,0.2-0.1c3.7-7.4,7.3-14.9,11-22.3c0.3-0.6,0.2-1,0-1.6c-1.1-2.3-2.2-4.5-3.3-6.8c-2.4-4.8-4.8-9.7-7.2-14.5
		c-0.2-0.4-0.2-1-0.7-1c-0.4,0-0.4,0.6-0.6,0.9c-3.4,6.8-6.7,13.7-10.1,20.5c-0.5,0.9-0.9,1.7-0.3,2.8c3.5,7,7,14,10.4,21.1
		C66.6,76.8,66.8,77.1,67,77.5z M78.9,195.7c0.1,0.3,0.2,0.6,0.3,0.9c0.7,1.4,1.3,2.8,2,4.2c2.8,5.7,5.7,11.5,8.5,17.2
		c0.2,0.3,0.2,0.8,0.6,0.8c0.3,0,0.4-0.5,0.5-0.7c1.4-2.8,2.8-5.5,4.1-8.3c2.2-4.4,4.3-8.8,6.4-13.1c0.4-0.7,0.3-1.4-0.1-2.1
		c-1-1.8-1.8-3.7-2.7-5.6c-2.6-5.3-5.2-10.5-7.8-15.8c-0.1-0.2-0.2-0.6-0.5-0.6c-0.3,0-0.3,0.4-0.4,0.6c-3.5,7.1-7,14.3-10.5,21.4
		C79.2,194.9,79,195.3,78.9,195.7z M102.3,148.4c-0.1,0.6,0.1,0.9,0.3,1.3c3.4,7,6.9,14,10.3,20.9c0.2,0.3,0.2,0.9,0.7,0.9
		c0.5,0,0.6-0.6,0.7-1c3.5-7,6.9-14,10.4-20.9c0.4-0.7,0.4-1.3,0-2c-1.4-2.7-2.7-5.4-4.1-8.1c-2.2-4.4-4.3-8.7-6.5-13.1
		c-0.1-0.3-0.2-0.7-0.6-0.7c-0.4,0-0.4,0.4-0.6,0.7c-3.1,6.3-6.2,12.6-9.3,18.9C103.1,146.3,102.7,147.5,102.3,148.4z M102.2,54.2
		c0,0.4,0.2,0.8,0.4,1.1c3.5,7,6.9,14,10.4,21.1c0.2,0.3,0.2,0.8,0.6,0.8c0.3,0,0.4-0.4,0.6-0.7c3.2-6.6,6.4-13.1,9.7-19.7
		c0.9-1.7,1.1-3.1,0.1-5c-3.4-6.5-6.6-13.2-9.8-19.7c-0.1-0.3-0.2-0.7-0.5-0.7c-0.4,0-0.5,0.5-0.6,0.8c-3.5,7-6.9,14-10.4,21
		C102.4,53.5,102.2,53.8,102.2,54.2z M113.5,266.1c1.1-2,2-3.8,2.9-5.5c2.8-5.7,5.5-11.4,8.3-17c0.3-0.7,0.2-1.2-0.1-1.8
		c-3.5-7.1-7-14.1-10.5-21.2c-0.2-0.3-0.2-0.8-0.7-0.9c-0.4,0.9-0.9,1.7-1.3,2.5c-3.2,6.5-6.3,12.9-9.5,19.4c-0.5,0.9-0.4,1.7,0,2.6
		c1.3,2.6,2.6,5.3,3.9,8C108.8,256.7,111.1,261.3,113.5,266.1z M90.3,77.6c0.2-0.3,0.3-0.4,0.4-0.6c3.6-7.3,7.2-14.6,10.8-21.9
		c0.3-0.7,0.3-1.2-0.1-1.8c-3.5-7-7-14.1-10.5-21.2c-0.2-0.3-0.2-0.8-0.6-0.8c-0.5,0-0.5,0.5-0.7,0.9c-3.5,7-6.9,14.1-10.4,21.2
		c-0.3,0.7-0.3,1.2,0,1.9c1.3,2.6,2.5,5.3,3.8,7.9C85.4,67.9,87.8,72.6,90.3,77.6z M90.2,266.1c1.5-2.6,2.7-5.1,3.9-7.5
		c2.4-5,4.9-10.1,7.4-15.1c0.3-0.6,0.2-1.1-0.1-1.7c-3.5-7.1-7-14.2-10.5-21.3c-0.2-0.3-0.2-0.8-0.7-0.9
		c-3.6,7.3-7.3,14.5-10.7,21.8c-0.5,1-0.5,1.7,0,2.7c3,6.3,6.1,12.5,9.2,18.7C89.2,263.9,89.6,264.9,90.2,266.1z"></path>
	<path d="M143.6,18.9c0.8,0.4,1.6,0.9,2.3,1.5c0.6,0.7,1,0.5,1.5-0.1c2-2.5,3.2-5.3,3.9-8.3c1.4,2.3,2.4,4.7,3.5,7
		c1.7,3.3,3.3,6.7,5,10c0.2,0.5,0.6,1.1,1.1,1.1c0.7,0,0.9-0.7,1.2-1.2c1.8-3.5,3.5-7,5.3-10.5c4.5,1.9,8.9,3.9,13.4,5.8
		c1,2.1,2,4.1,3,6.2c0.1,0.2,0.2,0.5,0.4,0.5c0.4,0,0.4-0.4,0.5-0.6c0.6-1.2,1.3-2.5,1.9-3.7c2.1,0.6,4,1.6,5.9,2.5
		c1.8,0.9,3.6,1.8,5.5,2.5c0.4,0.1,0.9,0.2,1,0.7c-0.1,0.8,0,1.5-0.2,2.3c-1.1,4-2.1,8-2.7,12.1c-0.2,1.7-0.7,3.4-0.4,5.1
		c0.1,0.8,0.1,1.4-0.4,2c-0.3-0.5-0.6-1-0.9-1.6c-2-4.1-4-8.2-6-12.3c-0.2-0.4-0.4-0.9-0.8-1.2c-0.8-2.4-2.1-4.5-3.1-6.8
		c-0.2-0.4-0.5-0.4-0.7,0c-0.8,1.7-1.6,3.4-2.4,5.2c-0.1,0.1-0.2,0.2-0.3,0.4c-2.7,5.5-5.4,11-8.2,16.5c-0.4,0.7-0.2,1.4,0.1,2
		c3.5,7,6.9,14,10.4,21c0.2,0.3,0.2,0.8,0.7,1c0.3-0.6,0.5-1.1,0.8-1.7c2.6-5.3,5.2-10.7,7.9-16c0.6-1.2,1-2.6,2-3.6
		c0.2,1.7,0.1,3.4,0,5.1c-0.3,4.9,0.2,9.8-0.6,14.6c-0.7,4.6-2.1,8.9-4.5,13c-0.4-0.2-0.5-0.7-0.7-1.1c-1.5-2.9-2.9-5.8-4.4-8.7
		c-0.2-0.3-0.2-0.8-0.7-1c-0.1,0.2-0.2,0.3-0.3,0.5c-3.6,7.3-7.2,14.6-10.8,21.9c-0.3,0.6-0.3,1.2,0.1,1.8c2,4.2,4,8.3,6.1,12.5
		c0.7,1.4,1.2,2.8,2.3,4c-0.2,1.3-0.5,2.6-0.6,4c-0.6,4.3-1.1,8.6-1.7,12.9c-2,4.1-4.1,8.2-6.1,12.3c-0.2,0.4-0.1,0.8,0,1.1
		c1.5,3.3,3.1,6.6,4.8,9.8c0.2,2.2-0.2,4.4-0.2,6.6c0.1,5.9,0,11.8,0,17.7c0,1-0.1,2.1-0.1,3.1c-0.1,0.1-0.3,0.1-0.4,0.2
		c-1.5,3-2.9,5.9-4.4,8.9c-0.1,0.3-0.1,0.5,0.1,0.8c1.4,2.9,2.8,5.8,4.2,8.7c0.1,0.2,0.3,0.3,0.4,0.3c0.1,2,0.1,4.1,0.1,6.1
		c0.2,6.9,0.4,13.7,0.4,20.6c-1.9,3.4-3.5,7-5.2,10.5c-0.1,0.3-0.1,0.6,0,0.9c2,4,4,8.1,5.9,12.1c0.4,0.5,0.3,1.1,0.3,1.6
		c0,3.5,0.3,6.9,0.4,10.4c0.1,2.7,0.5,5.3,0.3,8c-1.6,2.6-2.6,5.5-4,8.2c-0.1,0.1,0,0.3-0.1,0.5c-2,0.4-4,0.6-6,0.5
		c-0.1-0.2-0.1-0.5-0.2-0.7c-2.7-5.4-5.2-10.9-8.1-16.3c-0.1-0.3-0.1-0.7-0.5-0.7c-0.4,0-0.4,0.5-0.5,0.7c-2.3,4.6-4.6,9.1-6.8,13.7
		c-0.6,1.2-1.4,2.4-1.6,3.7c-1.8,0.3-3.5,0.2-5.3,0.1c-0.1-0.2-0.1-0.4-0.2-0.6c-2.8-5.7-5.6-11.5-8.5-17.2c-0.4-0.7-0.4-1.3,0-2
		c3.6-7.2,7.2-14.5,10.8-21.7c0.3-0.5,0.4-1,0.1-1.6c-1-2-1.9-4-2.9-6c-2.6-5.3-5.3-10.7-7.9-16c-0.4-0.7-0.2-1.2,0.1-1.8
		c3.6-7.2,7.1-14.4,10.7-21.6c0.3-0.6,0.4-1.2,0.1-1.9c-3.6-7.2-7.1-14.5-10.7-21.7c-0.4-0.7-0.4-1.2,0-2
		c3.6-7.2,7.1-14.4,10.7-21.6c0.3-0.6,0.4-1.1,0.1-1.7c-3.6-7.3-7.2-14.6-10.8-21.9c-0.3-0.7-0.3-1.1,0-1.7
		c3.6-7.2,7.1-14.5,10.7-21.7c0.3-0.6,0.4-1.2,0-1.8c-1.4-2.9-2.7-5.8-4.1-8.6c-2.2-4.4-4.4-8.9-6.6-13.3c-0.3-0.5-0.5-0.9-0.2-1.6
		c1.1-2,2-4.1,3-6.1c2.8-5.3,5.3-10.7,7.9-16.1c0.3-0.5,0.2-0.9,0-1.5c-1.2-2.4-2.3-4.8-3.5-7.1c-2.4-4.9-4.9-9.8-7.4-14.7
		c-0.3-0.6-0.3-1.1,0-1.8c1.6-3.1,3-6.4,4.7-9.4C143,20.4,143.5,19.8,143.6,18.9z M160.8,78.7c-1.1,2.1-2.1,4.1-3.1,6
		c-2.7,5.4-5.3,10.9-7.9,16.3c-0.4,0.8-0.4,1.3,0,2.1c0.9,1.7,1.7,3.4,2.5,5.2c2.7,5.4,5.3,10.7,8,16.1c0.1,0.3,0.1,0.8,0.5,0.9
		c0.5,0,0.5-0.5,0.7-0.9c3.5-7.1,7-14.1,10.5-21.2c0.4-0.8,0.3-1.4-0.1-2.1c-3.5-7.1-7-14.1-10.5-21.2
		C161.3,79.5,161.1,79.1,160.8,78.7z M160.8,219.9c1.4-2.9,2.7-5.4,4-8c2.4-4.8,4.7-9.7,7.1-14.5c0.4-0.7,0.4-1.3,0-2
		c-1-2-2-4.1-3-6.1c-2.5-5.1-5.1-10.2-7.6-15.2c-0.1-0.2-0.1-0.6-0.5-0.6c-0.4,0-0.4,0.4-0.6,0.7c-3.6,7.3-7.2,14.5-10.8,21.8
		c-0.2,0.4-0.2,0.7,0,1.2c2.1,4.1,4.1,8.3,6.1,12.5C157.3,212.8,159,216.2,160.8,219.9z M160.8,220.1c-0.3,0.7-0.6,1-0.7,1.4
		c-3.4,7-6.9,14-10.4,20.9c-0.4,0.7-0.4,1.3,0,2c3.5,7.1,7,14.2,10.5,21.3c0.1,0.3,0.2,0.7,0.6,0.8c0.1-0.1,0.2-0.2,0.2-0.3
		c3.8-7.4,7.4-14.8,11-22.2c0.2-0.5,0.1-0.9-0.1-1.4c-0.9-1.8-1.8-3.7-2.6-5.5c-1.6-3.2-3.1-6.4-4.7-9.6
		C163.5,225.2,162.2,222.8,160.8,220.1z M160.8,126.3c-0.4,0.2-0.5,0.6-0.6,1c-3.5,7.1-7,14.2-10.5,21.3c-0.3,0.6-0.3,1.1,0,1.7
		c3.5,7.1,7,14.1,10.5,21.1c0.2,0.3,0.2,0.9,0.6,0.9c0.5,0,0.6-0.6,0.8-0.9c3.5-7,6.9-14,10.4-21.1c0.3-0.7,0.3-1.2,0-1.9
		c-1.6-3.3-3.2-6.6-4.8-9.9c-1.9-3.9-3.9-7.7-5.8-11.6C161.3,126.6,161.2,126.3,160.8,126.3z M160.9,31.5c-4,7.7-7.6,15.3-11.3,22.8
		c-0.3,0.5-0.1,0.9,0.1,1.3c3.6,7.2,7.1,14.5,10.7,21.7c0.1,0.2,0.1,0.7,0.6,0.7c0.1-0.1,0.1-0.2,0.2-0.3
		c3.6-7.3,7.2-14.6,10.8-21.9c0.4-0.8,0.3-1.3-0.1-2c-2.6-5.2-5.2-10.4-7.7-15.7C163.1,36,162,33.9,160.9,31.5z"></path>
</g>
<path d="M189.1,91.7c0-0.2,0-0.4,0.3-0.6C189.4,91.3,189.4,91.6,189.1,91.7z"></path>
<path d="M195.1,54.5c0-0.1,0.1-0.2,0.1-0.3C195.2,54.3,195.2,54.4,195.1,54.5z"></path>
<path d="M40.3,96.4c0.3,0.2,0.2,0.5,0.3,0.8C40.3,97,40.4,96.7,40.3,96.4z"></path>
</svg>
