<!--?xml version="1.0" encoding="utf-8"?-->
<!-- Generator: Adobe Illustrator 24.2.3, SVG Export Plug-In . SVG Version: 6.00 Build 0)  -->
<svg version="1.1" id="Camada_1" xmlns="http://www.w3.org/2000/svg" xmlns:xlink="http://www.w3.org/1999/xlink" x="0px" y="0px" viewBox="0 0 229 418" enable-background="new 0 0 229 418" xml:space="preserve">
<g onclick="select(this)" class="" id="gola-primaria" fill="#bf0811">
	<path d="M149.99,8.19c1.87,1.16,2.3,2.15,1.71,4.37c-0.78,2.89-1.89,5.63-3.95,7.88c-0.19,0.2-0.31,0.46-0.47,0.69
		c-0.71,0.55-1.25,1.24-1.74,1.97c-5.12,4.99-11,8.78-17.68,11.31c-0.78,0.3-1.6,0.49-2.4,0.73c-2.2,0.39-4.36,1.04-6.61,1.14
		c-0.14-0.56,0.33-0.87,0.58-1.22c1.29-1.78,2.78-3.37,4.4-4.85c1.47-1.34,2.94-2.67,4.41-4c2.81-2.17,5.66-4.29,8.41-6.54
		c2.86-2.34,5.37-5.03,7.22-8.27c0.4-0.7,0.82-1.41,0.99-2.27c-5.92,0.42-11.74,0.75-17.55,1.28c-10.48,0.95-20.92,0.48-31.37-0.47
		C92.2,9.6,88.46,9.25,84.72,8.88c-0.78-0.08-0.92,0.18-0.63,0.85c0.52,1.22,1.12,2.38,1.91,3.45c3.89,5.32,9.37,8.88,14.34,13
		c0.97,0.87,1.96,1.74,2.92,2.62c2.4,2.21,4.88,4.33,6.65,7.12c-0.12,0.42-0.41,0.24-0.67,0.2c-1.59-0.26-3.19-0.51-4.78-0.76
		c-5.9-1.44-11.08-4.33-15.9-7.94c-1.37-1.02-2.69-2.11-4.04-3.17c-0.87-0.95-1.73-1.9-2.6-2.85c-1.96-2.47-3.84-4.99-4.51-8.18
		c-0.15-0.7-0.22-1.41-0.34-2.12c-0.24-1.47,0.71-2.33,1.65-3.19c0.88-0.05,1.42-0.7,1.99-1.23c1.05-0.98,2.1-1.96,2.98-3.12
		c1.34-1.76,3.33-2.26,5.35-2.62c2.56-0.46,5.13-0.47,7.73-0.33c3.67,0.19,7.35,0.08,11.03,0.05c4.11-0.03,8.22-0.27,12.33-0.15
		c4.35,0.13,8.71,0.21,13.05,0.08c2.61-0.08,5.17,0.1,7.72,0.58c1.84,0.35,3.25,1.28,4.46,2.76C146.67,5.57,148.01,7.26,149.99,8.19
		z"></path>
</g>
<g onclick="select(this)" class="" id="detalhe-lateral" fill="#ffffff">
	<path d="M180.99,284.18c-0.22-3.74-0.46-7.49-0.67-11.23c-0.13-2.51-0.22-5.03-0.31-7.54
		c-0.04-1.14,0.11-2.3-0.41-3.4c-0.34-0.71,0.21-1.38,0.18-2.09c-0.25-5.74-0.47-11.49-0.7-17.23c-0.01-0.2-0.03-0.4-0.03-0.6
		c0.09-4.92-0.16-9.83-0.33-14.74c-0.48-13.47-0.47-26.95-0.48-40.42c-0.01-7.88-0.01-15.76,0.08-23.64
		c0.06-4.79,0.27-9.58,0.47-14.36c0.2-4.78,0.77-9.53,1.18-14.29c0.41-4.87,1.07-9.71,1.92-14.51c1.1-6.22,2.27-12.43,4.26-18.44
		c0.11-0.34,0.28-0.69,0.26-1.03c-0.19-3.38,2.58-5.62,3.31-8.67c-1.6,6.82-3.01,13.65-3.92,20.58c-0.45,2.54-0.49,5.11-0.54,7.67
		c-0.25,2.73-0.5,5.47-0.77,8.2c-0.19,1.9-0.5,3.79-0.63,5.69c-0.38,5.49-0.57,11-0.52,16.51c0.01,1.41,0.35,2.76,0.51,4.14
		c0.3,2.56-0.26,5.07-0.38,7.6c-0.06,1.44-0.2,2.86,0.03,4.29c0.27,1.68-0.13,3.34-0.14,5.01c-0.01,3.95-0.2,7.91,0.17,11.86
		c0.07,0.74-0.07,1.51-0.18,2.26c-0.62,4.28,0.61,8.36,1.31,12.5c0.9,5.3,1.03,10.6,0.23,15.93c-0.33,2.24-0.56,4.5-0.74,6.76
		c-0.08,1,0.51,2.06,0.81,3.09c0.98,3.35,1.53,6.78,1.43,10.26c-0.07,2.54-0.39,5.08-0.74,7.61c-0.2,1.47,0.21,2.84,0.38,4.24
		c0.24,1.97,0.5,3.93,0.45,5.92c-0.14,5.08,0.44,10.11,0.87,15.16c0.36,4.19,0.68,8.39,0.97,12.59c0.15,2.13-0.39,2.9-2.44,3.51
		C184.32,283.82,182.69,284.23,180.99,284.18z"></path>
	<path d="M42.28,99.85c0.25,0.93,0.5,1.85,0.75,2.78c0.51,1.13,0.63,2.37,1,3.55c0.85,2.39,1.29,4.88,1.78,7.35
		c0.75,3.79,1.41,7.61,2.05,11.42c0.34,2.03,0.52,4.09,0.83,6.13c0.44,2.85,0.43,5.73,0.74,8.58c0.52,4.71,0.58,9.44,0.93,14.16
		c0.11,1.39,0.08,2.8,0.06,4.19c-0.02,1.72,0.07,3.43,0.25,5.14c0,2.23,0,4.45,0,6.68c0,9.94,0,19.88,0,29.82
		c0,4.11,0,8.21-0.01,12.32c-0.19,1.63-0.29,3.26-0.25,4.9c0.14,5.76-0.21,11.51-0.34,17.26c-0.09,3.95-0.19,7.9-0.4,11.85
		c-0.27,5.29-0.34,10.6-0.55,15.89c-0.2,5.02-0.44,10.04-0.74,15.06c-0.1,1.67-0.27,3.35-0.23,5.02c0.01,0.63-0.5,1.08-0.42,1.7
		c-1.98,0.02-3.82-0.55-5.61-1.34c-0.83-0.37-1.12-0.95-1.14-1.88c-0.12-6.06,0.62-12.07,0.95-18.1c0.28-4.97,0.96-9.93,0.76-14.93
		c-0.06-1.4,0.14-2.78,0.42-4.15c0.41-2.06,0.41-4.13,0.05-6.18c-0.47-2.66-0.08-5.25,0.51-7.82c0.31-1.38,0.03-2.7-0.07-4.03
		c-0.28-3.66-0.68-7.3-0.7-10.98c-0.02-4.03,0.61-7.95,1.96-11.72c0.94-2.63,1.05-5.31,1.29-8.04c0.3-3.4-0.19-6.75,0-10.14
		c0.13-2.38,0.1-4.86-0.25-7.28c-0.23-1.56,0.13-3.1,0.17-4.65c0.12-4.63-0.42-9.26-0.23-13.89c0.08-1.82,0.03-3.64,0-5.46
		c-0.06-4.46,0.01-8.91,0-13.37c-0.02-3.8-0.66-7.54-1.06-11.3c-0.25-2.38-0.55-4.75-0.83-7.12c-0.03-0.23-0.12-0.46-0.18-0.69
		c0.56-0.37,0.33-0.91,0.3-1.4c-0.03-0.55-0.36-1.01-0.43-1.58c-0.19-1.6-0.07-3.23-0.48-4.81c-0.43-4.51-0.85-9.02-1.87-13.45
		c-0.09-0.38-0.02-0.79-0.02-1.19C42.16,98.39,41.91,99.3,42.28,99.85z"></path>
</g>
<g onclick="select(this)" class="" id="detalhe-punho" fill="#082890">
	<path d="M185.27,120.24c0.04-2.57,0.09-5.13,0.54-7.67c0.98,0.6,2.06,0.91,3.18,0.96
		c5.57,0.27,11.15,0.59,16.7-0.02c3.95-0.43,7.87-1.15,11.77-1.96c3.06-0.64,5.93-1.84,8.96-2.5c0.74-0.16,1.47-0.4,2.1-0.84
		c1.03,2.47,1.31,5.05,1.14,7.69c-0.04,0.63-0.76,0.75-1.26,0.95c-2.57,1-5.23,1.68-7.88,2.4c-9.05,2.47-18.29,3.03-27.61,2.6
		c-1.75-0.08-3.48-0.43-5.22-0.67C186.8,121.06,186,120.73,185.27,120.24z"></path>
	<path d="M43.17,112.79c0.41,1.58,0.29,3.21,0.48,4.81c0.07,0.57,0.4,1.03,0.43,1.58c0.03,0.49,0.26,1.04-0.3,1.4
		c-2.64,1.31-5.53,1.62-8.38,1.73c-9.35,0.37-18.67,0.13-27.83-2.09c-1.86-0.45-3.71-0.91-5.49-1.63c-0.79-0.32-1.23-0.76-1.13-1.7
		c0.25-2.45,0.37-4.91,1.19-7.26c5.15,2.13,10.51,3.55,16.04,4.05c6.15,0.56,12.32,0.79,18.51,0.4
		C38.93,113.94,41.08,113.61,43.17,112.79z"></path>
</g>
<g onclick="select(this)" class="" id="gola-secundaria" fill="#082890">
	<path d="M118.85,36.28c-0.34,0.1-0.68,0.21-1.03,0.31c-0.84,0.06-1.68,0.12-2.52,0.18c-1.8-0.26-3.68,0-5.39-0.85
		c-1.77-2.79-4.26-4.92-6.65-7.12c-0.96-0.89-1.95-1.75-2.92-2.62c4.99-0.01,9.98-0.04,14.97-0.04c4.31,0,8.62,0.04,12.93,0.06
		c-1.47,1.33-2.94,2.66-4.41,4c-1.62,1.48-3.11,3.08-4.4,4.85C119.17,35.41,118.71,35.71,118.85,36.28z"></path>
</g>
<g onclick="select(this)" class="" id="estampa-secundaria" fill="#ffffff">
	<path d="M141.59,285.85c1.27-2.89,2.52-5.78,3.8-8.66c0.3-0.67,0.45-1.33,0.45-2.08
		c-0.02-9.48-0.01-18.95-0.03-28.43c0-0.59,0.15-1.08,0.43-1.58c6.51-11.47,13.01-22.95,19.52-34.43c2.48-4.38,4.98-8.75,7.47-13.13
		c0.1-0.18,0.16-0.36,0.54-0.47c-0.06,0.95-0.52,1.72-0.85,2.49c-1.97,4.55-3.99,9.07-6.01,13.6c-0.28,0.64-0.43,1.26-0.43,1.96
		c0.01,9.4,0.01,18.79,0.01,28.19c0,0.65-0.07,1.24-0.4,1.83c-6.56,11.54-13.09,23.09-19.64,34.63c-1.14,2.01-2.39,3.96-3.42,6.04
		C142.55,285.85,142.08,286.22,141.59,285.85z"></path>
	<path d="M59.97,285.08c1.08-2.45,2.12-4.91,3.24-7.34c0.47-1.01,0.67-2,0.67-3.11c-0.03-9.24-0.01-18.47-0.02-27.71
		c0-0.66,0.12-1.23,0.45-1.82c6.56-11.54,13.1-23.08,19.65-34.62c2.34-4.13,4.68-8.26,7.04-12.39c0.12-0.21,0.13-0.58,0.7-0.56
		c-0.44,1.17-0.81,2.31-1.29,3.41c-1.78,4.06-3.58,8.12-5.4,12.16c-0.32,0.71-0.48,1.41-0.48,2.19c0.02,9.4,0.01,18.79,0.02,28.19
		c0,0.66-0.14,1.23-0.47,1.81c-6.51,11.47-13.01,22.95-19.52,34.42c-1.02,1.81-2.07,3.6-3.1,5.4
		C60.96,285.22,60.46,285.19,59.97,285.08z"></path>
	<path d="M104.67,286.1c-0.01-10.23-0.01-20.47-0.03-30.7c0-0.75,0.37-1.29,0.7-1.87
		c8.57-15.12,17.14-30.25,25.71-45.37c0.39-0.68,0.78-1.35,1.25-2.17c0.35,0.7,0,1.1-0.18,1.49c-2.08,4.72-4.16,9.43-6.28,14.13
		c-0.41,0.9-0.58,1.79-0.58,2.77c0.02,9.31,0.01,18.63,0.02,27.94c0,0.71-0.17,1.31-0.51,1.92c-5.81,10.3-11.6,20.61-17.39,30.93
		c-0.19,0.34-0.33,0.72-0.49,1.09C106.15,286.3,105.39,286.44,104.67,286.1z"></path>
	<path d="M145.86,285.79c-0.05-0.47,0.16-0.85,0.38-1.23c8.62-15.22,17.24-30.45,25.87-45.67
		c0.12-0.22,0.13-0.58,0.58-0.57c0.34,0.54,0.03,1.03-0.18,1.51c-1.86,4.2-3.71,8.4-5.59,12.59c-0.28,0.63-0.43,1.26-0.43,1.96
		c0.02,8.79,0.01,17.58,0.01,26.37c0,1.58,0.21,3.19-0.73,4.63c-0.22,0.22-0.51,0.19-0.79,0.19c-6.17,0.09-12.35,0.18-18.52,0.27
		C146.26,285.85,146.06,285.81,145.86,285.79z"></path>
	<path d="M64.09,285.16c-0.1-0.6,0.41-0.92,0.65-1.35c8.47-15,16.96-29.99,25.47-44.98
		c0.42-0.73,0.57-1.66,1.51-2.29c-0.1,1.22-0.68,2.1-1.06,3c-1.85,4.34-3.78,8.64-5.71,12.94c-0.29,0.64-0.42,1.26-0.42,1.96
		c0.01,8.64,0.01,17.28,0.01,25.91c0,1.82,0.24,3.68-0.88,5.31c-0.7,0.26-1.42,0.1-2.13,0.09c-4.71-0.06-9.43-0.12-14.14-0.23
		C66.29,285.5,65.17,285.51,64.09,285.16z"></path>
	<path d="M109.47,286.34c2.28-4.13,4.54-8.26,6.83-12.38c4.74-8.48,9.49-16.96,14.23-25.44
		c0.23-0.41,0.4-0.86,0.62-1.28c0.09-0.17,0.25-0.36,0.48-0.26c0.22,0.09,0.21,0.34,0.15,0.52c-0.22,0.59-0.45,1.18-0.71,1.76
		c-1.76,3.99-3.52,7.97-5.31,11.95c-0.34,0.75-0.5,1.48-0.49,2.31c0.01,7.6,0,15.2-0.01,22.8c-5.16,0.48-10.32,0.24-15.48,0.18
		C109.67,286.49,109.57,286.39,109.47,286.34z"></path>
	<path d="M86.22,285.72c0.34-1.24,1.13-2.26,1.72-3.37c1.2-2.22,2.45-4.41,3.83-6.55c-1.03,3.45-2.76,6.61-4.02,9.95
		C87.24,285.85,86.73,285.9,86.22,285.72z"></path>
	<path d="M168.24,285.31c1.68-3.03,3.36-6.06,5.04-9.09c0.11,0.05,0.21,0.11,0.32,0.16
		c-0.99,3.03-2.52,5.85-3.69,8.8C169.37,285.5,168.8,285.36,168.24,285.31z"></path>
	<path d="M97.73,262.15c-0.31-0.85,0.21-1.39,0.48-2.01c2.03-4.61,4.07-9.22,6.12-13.81
		c0.24-0.54,0.28-1.07,0.28-1.63c0-9.4,0-18.79-0.02-28.19c0-0.75,0.16-1.39,0.53-2.04c6.55-11.54,13.08-23.09,19.63-34.63
		c2.45-4.31,4.92-8.6,7.38-12.9c0.11-0.2,0.24-0.39,0.43-0.7c0.3,0.64-0.03,1.03-0.2,1.43c-2.21,5.01-4.42,10.02-6.66,15.02
		c-0.3,0.68-0.45,1.34-0.45,2.07c0.01,9.36,0,18.71,0.02,28.07c0,0.74-0.14,1.39-0.51,2.04c-6.57,11.57-13.12,23.16-19.69,34.73
		c-2.09,3.68-4.21,7.35-6.33,11.02C98.46,261.15,98.08,261.64,97.73,262.15z"></path>
	<path d="M91.53,81.08c-2,5.27-4.38,10.2-6.57,15.22c-0.28,0.64-0.43,1.26-0.42,1.96
		c0.01,9.44,0.01,18.88,0.02,28.31c0,0.66-0.13,1.23-0.46,1.82c-6.5,11.43-12.98,22.88-19.47,34.32c-2.49,4.38-4.99,8.74-7.51,13.11
		c-0.18,0.32-0.24,0.79-0.75,0.85c-0.32-0.3,0.04-0.5,0.13-0.7c2.34-5.3,4.69-10.59,7.05-15.88c0.25-0.56,0.33-1.13,0.32-1.74
		c-0.01-9.4,0-18.8-0.02-28.19c0-0.79,0.19-1.46,0.58-2.15c6.47-11.4,12.91-22.83,19.4-34.22c2.24-3.92,4.55-7.79,6.67-11.78
		C90.68,81.67,90.8,81.16,91.53,81.08z"></path>
	<path d="M132.04,50.92c0.1,0.55-0.18,1.01-0.39,1.48c-1.99,4.49-3.98,8.99-6,13.48c-0.27,0.6-0.39,1.19-0.39,1.85
		c0.01,9.36,0,18.71,0.02,28.07c0,0.88-0.21,1.62-0.63,2.37c-6.51,11.47-13,22.96-19.5,34.43c-2.41,4.24-4.85,8.46-7.28,12.68
		c-0.16,0.29-0.24,0.72-0.86,0.63c0.4-0.9,0.78-1.78,1.17-2.66c2.01-4.53,4.02-9.06,6.05-13.58c0.27-0.6,0.38-1.19,0.38-1.85
		c-0.01-9.44,0-18.87-0.02-28.31c0-0.71,0.16-1.31,0.51-1.92c6.51-11.47,12.99-22.96,19.5-34.43c2.37-4.17,4.81-8.29,7.22-12.43
		C131.91,50.79,131.98,50.86,132.04,50.92z"></path>
	<path d="M173.59,80.8c-0.46,1.19-0.89,2.4-1.4,3.58c-1.73,3.95-3.49,7.9-5.26,11.83c-0.3,0.67-0.44,1.34-0.44,2.08
		c0.02,9.4,0.01,18.79,0.02,28.19c0,0.7-0.14,1.31-0.49,1.93c-6.42,11.3-12.81,22.61-19.22,33.9c-2.23,3.93-4.49,7.83-6.75,11.75
		c-0.23,0.39-0.37,0.9-0.97,0.91c-0.3-0.38,0.07-0.61,0.18-0.87c2.05-4.64,4.1-9.28,6.18-13.91c0.29-0.64,0.41-1.27,0.41-1.96
		c-0.01-9.36,0-18.71-0.02-28.07c0-0.84,0.2-1.55,0.61-2.26c6.49-11.44,12.94-22.9,19.46-34.32c2.3-4.02,4.66-8.01,6.84-12.1
		C172.9,81.15,173.08,80.87,173.59,80.8z"></path>
	<path d="M174.6,39.55c-0.33,0.83-0.64,1.66-1,2.47c-2.24,5-4.48,10-6.75,14.98c-0.27,0.6-0.36,1.2-0.36,1.85
		c0.01,9.44,0,18.88,0.02,28.32c0,0.7-0.13,1.31-0.48,1.93c-6.5,11.44-12.97,22.89-19.46,34.33c-2.41,4.24-4.84,8.47-7.27,12.7
		c-0.21,0.37-0.36,0.81-0.93,0.93c-0.07-0.7,0.41-1.16,0.65-1.69c2.16-4.9,4.33-9.79,6.52-14.68c0.24-0.53,0.3-1.06,0.3-1.63
		c-0.01-9.2,0.01-18.4-0.02-27.6c0-0.91,0.19-1.69,0.63-2.49c8.92-15.9,17.82-31.82,26.75-47.71
		C173.55,40.63,173.62,39.79,174.6,39.55z"></path>
	<path d="M56.2,137.33c2.44-5.5,4.82-10.89,7.22-16.26c0.3-0.67,0.45-1.33,0.45-2.07
		c-0.02-9.28-0.01-18.56-0.02-27.84c0-0.66,0.13-1.23,0.46-1.82c9.23-16.46,18.44-32.93,27.66-49.39c0.21-0.37,0.31-0.83,0.8-1.07
		c0.28,0.43-0.03,0.76-0.17,1.08c-2.54,5.65-5.08,11.3-7.64,16.94c-0.29,0.63-0.44,1.25-0.44,1.96c0.02,9.44,0,18.88,0.02,28.32
		c0,0.75-0.15,1.39-0.52,2.04c-6.54,11.51-13.05,23.03-19.58,34.54c-2.31,4.07-4.64,8.12-6.98,12.17
		C57.17,136.43,57,137.08,56.2,137.33z"></path>
	<path d="M91.61,158.7c0.27,0.52-0.07,0.93-0.26,1.35c-2.13,4.83-4.26,9.65-6.41,14.47
		c-0.29,0.64-0.41,1.27-0.41,1.96c0.01,9.24,0,18.47,0.02,27.71c0,0.71-0.17,1.31-0.51,1.92c-6.56,11.54-13.09,23.09-19.64,34.63
		c-2.41,4.23-4.86,8.44-7.31,12.65c-0.12,0.2-0.12,0.61-0.61,0.49c-0.16-0.58,0.27-1.04,0.47-1.49c2.17-4.93,4.4-9.84,6.63-14.74
		c0.24-0.53,0.3-1.06,0.3-1.63c-0.01-9.28,0-18.55-0.02-27.83c0-0.79,0.16-1.47,0.55-2.16c6.48-11.4,12.87-22.85,19.43-34.2
		c2.42-4.18,4.79-8.39,7.24-12.56C91.2,159.06,91.25,158.74,91.61,158.7z"></path>
	<path d="M96.75,224.15c2.49-5.61,4.95-11.16,7.43-16.7c0.3-0.67,0.45-1.34,0.45-2.08c-0.02-9.24,0-18.47-0.02-27.71
		c0-0.79,0.19-1.46,0.57-2.15c6.47-11.4,12.87-22.84,19.42-34.2c2.42-4.19,4.85-8.36,7.22-12.57c0.03-0.05,0.13-0.07,0.29-0.14
		c0.34,0.47,0.02,0.88-0.15,1.27c-2.06,4.64-4.12,9.28-6.2,13.91c-0.32,0.71-0.49,1.4-0.49,2.19c0.02,9.24,0.01,18.47,0.02,27.71
		c0,0.71-0.16,1.31-0.51,1.92c-6.36,11.19-12.69,22.39-19.04,33.59c-2.72,4.8-5.47,9.58-8.21,14.36
		C97.38,223.82,97.33,224.2,96.75,224.15z"></path>
	<path d="M56.87,214.73c-0.42-0.59-0.06-0.96,0.08-1.25c2.36-4.85,4.36-9.85,6.62-14.75
		c0.25-0.53,0.29-1.06,0.29-1.63c-0.01-9.28,0-18.55-0.01-27.83c0-0.66,0.12-1.23,0.46-1.82c6.58-11.57,13.13-23.16,19.7-34.74
		c2.43-4.28,4.88-8.54,7.32-12.8c0.12-0.2,0.24-0.39,0.39-0.64c0.41,0.5,0.07,0.86-0.08,1.21c-2.19,4.97-4.39,9.94-6.61,14.9
		c-0.33,0.75-0.51,1.48-0.51,2.3c0.02,9.24,0.01,18.47,0.02,27.71c0,0.71-0.15,1.31-0.5,1.93c-6.51,11.47-12.95,22.99-19.55,34.41
		c-2.26,3.91-4.46,7.85-6.76,11.73C57.49,213.89,57.19,214.27,56.87,214.73z"></path>
	<path d="M138.24,253.96c2.4-5.38,4.72-10.62,7.07-15.85c0.35-0.78,0.54-1.56,0.53-2.42
		c-0.02-9.2-0.01-18.39-0.02-27.59c0-0.74,0.14-1.39,0.51-2.04c6.51-11.47,12.95-22.98,19.54-34.4c2.18-3.77,4.34-7.55,6.51-11.32
		c0.12-0.21,0.19-0.65,0.55-0.46c0.28,0.15,0.1,0.45-0.01,0.73c-1.5,3.96-3.33,7.78-5.09,11.62c-0.97,2.12-1.41,4.23-1.38,6.57
		c0.09,8.4,0.03,16.79,0.05,25.19c0,0.79-0.16,1.46-0.56,2.15c-6.54,11.5-13.04,23.02-19.58,34.52c-2.41,4.24-4.88,8.43-7.31,12.66
		C138.9,253.61,138.78,253.89,138.24,253.96z"></path>
	<path d="M173.32,120.24c-0.17,1.06-0.41,1.78-0.73,2.49c-1.93,4.34-3.85,8.7-5.79,13.04
		c-0.26,0.57-0.31,1.14-0.31,1.74c0.01,9.28,0,18.55,0.02,27.83c0,0.75-0.18,1.38-0.55,2.03c-6.51,11.47-12.95,22.98-19.54,34.4
		c-2.34,4.04-4.62,8.12-6.99,12.14c-0.17,0.29-0.24,0.72-0.75,0.65c-0.33-0.23,0.01-0.42,0.08-0.58c2.24-5.08,4.48-10.16,6.75-15.22
		c0.27-0.61,0.33-1.22,0.33-1.86c-0.01-9.2,0-18.39-0.02-27.59c0-0.75,0.16-1.39,0.53-2.04c6.54-11.5,13.05-23.02,19.57-34.53
		c2.29-4.03,4.59-8.06,6.89-12.08C172.86,120.59,172.97,120.53,173.32,120.24z"></path>
	<path d="M132.85,88.73c-0.75,1.77-1.39,3.36-2.08,4.93c-1.68,3.8-3.36,7.61-5.07,11.39
		c-0.31,0.68-0.42,1.35-0.42,2.08c0.01,9.24,0,18.48,0.02,27.71c0,0.75-0.16,1.39-0.53,2.04c-6.52,11.47-12.96,22.98-19.55,34.41
		c-2.06,3.56-4.08,7.14-6.16,10.69c-0.22,0.38-0.45,0.75-0.71,1.1c-0.13,0.18-0.31,0.43-0.58,0.22c-0.2-0.16-0.02-0.35,0.06-0.53
		c0.63-1.38,1.26-2.76,1.87-4.15c1.54-3.47,3.07-6.95,4.63-10.41c0.24-0.53,0.29-1.06,0.29-1.63c-0.01-9.2,0-18.4-0.02-27.59
		c0-0.87,0.21-1.61,0.64-2.37c6.42-11.3,12.78-22.63,19.23-33.9c2.54-4.44,5.11-8.85,7.57-13.33
		C132.15,89.18,132.2,88.85,132.85,88.73z"></path>
	<path d="M81.93,21.41c0.87,0.95,1.73,1.9,2.6,2.85c0,7.96,0,15.91,0.02,23.87c0,0.54-0.12,1.01-0.38,1.48
		c-8.72,15.54-17.43,31.09-26.15,46.63c-0.39,0.7-0.86,1.35-1.4,1.96c0.03-0.86,0.48-1.54,0.8-2.27c2.04-4.6,4.09-9.19,6.14-13.78
		c0.24-0.53,0.32-1.05,0.32-1.62c-0.01-9.43,0-18.87-0.02-28.3c0-0.83,0.17-1.54,0.59-2.26c5.08-8.83,10.15-17.67,15.19-26.53
		C80.18,22.44,81.02,21.92,81.93,21.41z"></path>
	<path d="M118.85,36.28c2.25-0.1,4.41-0.75,6.61-1.14c-0.3,0.44-0.17,0.93-0.17,1.4
		c-0.01,6.76-0.01,13.51,0.01,20.27c0,0.66-0.14,1.23-0.47,1.81c-6.59,11.61-13.15,23.23-19.74,34.84
		c-2.03,3.58-4.11,7.13-6.16,10.7c-0.28,0.49-0.57,0.97-1.15,1.24c-0.22-0.53,0.17-0.81,0.32-1.15c2.06-4.68,4.13-9.36,6.22-14.03
		c0.26-0.57,0.31-1.14,0.31-1.74c-0.01-9.24,0-18.47-0.02-27.71c0-0.75,0.16-1.39,0.53-2.04c4.06-7.02,8.1-14.06,12.14-21.09
		c0.2-0.34,0.37-0.7,0.55-1.06C118.16,36.49,118.51,36.38,118.85,36.28z"></path>
	<path d="M166.5,40.69c0,1.52-0.12,3.05,0.03,4.56c0.25,2.54-0.55,4.69-1.79,6.88
		c-8.43,14.88-16.76,29.82-25.13,44.74c-0.12,0.21-0.24,0.42-0.35,0.63c-0.14,0.26-0.34,0.57-0.62,0.4
		c-0.38-0.23,0.04-0.46,0.14-0.68c2.29-5.14,4.58-10.29,6.87-15.43c0.21-0.46,0.18-0.93,0.18-1.41c0-9.4,0.01-18.79-0.02-28.19
		c0-0.88,0.21-1.62,0.64-2.37c3.89-6.75,7.77-13.51,11.61-20.29c0.43-0.75,0.74-0.89,1.55-0.5c1.97,0.96,3.99,1.83,6.03,2.66
		c0.68,0.28,0.88,0.64,0.87,1.33C166.47,35.57,166.5,38.13,166.5,40.69z"></path>
	<path d="M186.44,74.67c0-4.68,0.01-9.35-0.01-14.03c0-0.66,0.15-1.23,0.48-1.81c3.16-5.46,6.29-10.95,9.45-16.41
		c0.19-0.32,0.2-0.95,0.84-0.8c0.75,0.17,0.43,0.74,0.36,1.15c-0.46,2.71-0.93,5.41-1.18,8.15c-0.65,7.09-0.66,14.2-0.88,21.3
		c-0.13,4.13-0.94,8.06-3.17,11.75c-4.28,7.07-8.24,14.34-12.33,21.53c-0.1,0.17-0.19,0.35-0.3,0.52c-0.13,0.21-0.31,0.42-0.57,0.24
		c-0.22-0.15-0.02-0.34,0.06-0.51c2.27-5.07,4.52-10.14,6.8-15.21c0.3-0.67,0.46-1.33,0.46-2.07
		C186.43,83.86,186.44,79.27,186.44,74.67z"></path>
	<path d="M43.93,37.25c0,2.42,0,4.73,0,7.05c0,4.2,0,8.4,0,12.6c0,0.48,0,0.93-0.26,1.39
		c-3.15,5.52-6.27,11.06-9.41,16.59c-0.09,0.17-0.23,0.31-0.48,0.66c-0.34-1.69-0.3-3.2-0.33-4.69c-0.04-1.88,0.08-3.76,0.15-5.63
		c0.04-1.09-0.12-2.13-0.33-3.2c-0.26-1.31,0.04-2.68-0.09-4.03c-0.25-2.53-0.35-5.06-0.83-7.6c-0.35-1.9-0.34-3.93-0.67-5.89
		c-0.66-3.93-1.16-2.9,2.44-4.31C37.27,38.95,40.54,38.08,43.93,37.25z"></path>
	<path d="M42.28,99.85c-0.36-0.55-0.12-1.45-1-1.7c-0.83-4.06-2.1-7.99-3.63-11.83c-0.96-2.41-1.61-4.93-2.91-7.2
		c-0.31-0.54,0.03-0.91,0.26-1.31c4.81-8.44,9.62-16.88,14.44-25.31c0.4-0.71,0.69-1.51,1.49-2.25c-0.18,0.95-0.38,1.65-0.68,2.33
		c-1.97,4.42-3.92,8.84-5.9,13.26c-0.29,0.64-0.43,1.26-0.42,1.96c0.01,8.96-0.04,17.92,0.05,26.88
		C43.99,96.66,43.44,98.31,42.28,99.85z"></path>
	<path d="M145.54,23.11c0.49-0.74,1.03-1.43,1.74-1.97c0.41,0.65,0.95,1.14,1.6,1.58c2.32,1.57,4.69,3.05,7.14,4.39
		c0.7,0.38,0.74,0.71,0.36,1.38c-5.64,9.76-11.24,19.53-16.87,29.28c-0.27,0.47-0.42,1.12-1.16,1.33c0.04-0.88,0.56-1.5,0.87-2.19
		c2.09-4.71,4.17-9.42,6.26-14.12c0.2-0.44,0.38-0.87,0.37-1.37c-0.06-5.75,0.11-11.51-0.11-17.26
		C145.71,23.8,145.82,23.41,145.54,23.11z"></path>
	<path d="M109.91,35.92c1.71,0.84,3.59,0.59,5.39,0.85c-5.67,9.96-11.33,19.92-17.02,29.87
		c-0.22,0.38-0.38,1.2-0.85,0.96c-0.62-0.31,0.14-0.78,0.29-1.13c2.17-4.98,4.39-9.94,6.59-14.9c0.18-0.4,0.31-0.8,0.31-1.26
		c-0.01-4.67-0.01-9.35-0.02-14.02c0-0.31-0.1-0.62-0.15-0.93c1.59,0.25,3.19,0.5,4.78,0.76C109.5,36.17,109.79,36.34,109.91,35.92z
		"></path>
	<path d="M56.56,59.11c-0.33-0.5,0.02-0.87,0.16-1.15c2.4-4.95,4.47-10.06,6.76-15.06c0.27-0.59,0.39-1.19,0.39-1.85
		c-0.02-3.04,0-6.07-0.02-9.11c0-0.63,0.12-1.02,0.77-1.28c3.56-1.42,6.98-3.14,10.33-5c0.3-0.17,0.69-0.51,0.97-0.22
		c0.33,0.34-0.16,0.63-0.31,0.91C69.64,36.78,63.66,47.2,57.67,57.62C57.37,58.15,57.1,58.7,56.56,59.11z"></path>
	<path d="M194.66,41.01c-0.1,0.19-0.23,0.44-0.36,0.68c-4.7,8.27-9.39,16.54-14.1,24.81
		c-0.17,0.31-0.3,0.93-0.8,0.63c-0.39-0.24,0.08-0.6,0.22-0.9c2.23-5,4.46-10,6.69-15c0.19-0.43,0.15-0.86,0.14-1.3
		c-0.07-3.72,0.15-7.44-0.12-11.15c-0.04-0.48,0.12-0.57,0.54-0.44c2.45,0.72,4.9,1.44,7.35,2.16
		C194.43,40.56,194.7,40.61,194.66,41.01z"></path>
	<path d="M44.03,106.17c-0.37-1.17-0.49-2.42-1-3.55c2.19-3.02,3.74-6.41,5.65-9.6c0.84-1.39,1.6-2.82,2.49-4.41
		c0.3,0.69,0.01,1.05-0.15,1.41c-2.18,4.94-4.37,9.87-6.55,14.8C44.29,105.25,44.18,105.72,44.03,106.17z"></path>
	<path d="M50.69,211.97c0-4.11,0.01-8.21,0.01-12.32c0-9.94,0-19.88,0-29.82c0-2.23,0-4.46,0-6.68
		c0.06,1.02,0.12,2.03,0.19,3.18c0.76-0.45,0.74-1.33,1.32-1.79c0.13,0.52-0.12,0.92-0.32,1.27c-0.91,1.63-1.09,3.35-1.08,5.19
		c0.05,11.16,0.02,22.32,0.03,33.47c0,0.52-0.28,1.35,1.06,0.76C50.2,207.42,51.11,209.79,50.69,211.97z"></path>
	<path d="M131.84,50.73c0.07-0.16,0.12-0.42,0.35-0.23c0.18,0.15,0.06,0.33-0.15,0.42
		C131.98,50.86,131.91,50.79,131.84,50.73z"></path>
</g>
<g onclick="select(this)" class="" id="estampa-primaria" fill="#bf0811">
	<path d="M2.14,109.63c1.71-8.95,2.5-18.04,4.02-27.02c0.89-5.24,1.17-10.56,2.24-15.78
		c1.75-8.59,4.53-16.73,9.86-23.83c2.1-2.8,4.47-5.33,7.21-7.51c1.37-1.09,2.44-2.5,3.96-3.42c0.32-0.19,0.63-0.45,0.98-0.63
		c8.43-4.19,17.26-7.45,25.84-11.29c5.82-2.61,11.53-5.43,17-8.72c0.55-0.33,1.01-0.74,1.42-1.25c1.05-1.27,2.33-2.17,4.06-2.26
		c-0.94,0.86-1.89,1.72-1.65,3.19c0.12,0.71,0.19,1.42,0.34,2.12c0.67,3.18,2.55,5.7,4.51,8.18c-0.91,0.51-1.74,1.03-2.3,2.01
		c-5.03,8.86-10.11,17.7-15.19,26.53c-0.42,0.72-0.59,1.44-0.59,2.26c0.02,9.43,0.01,18.87,0.02,28.3c0,0.57-0.08,1.1-0.32,1.62
		c-2.06,4.59-4.1,9.19-6.14,13.78c-0.32,0.72-0.77,1.4-0.8,2.27c0.54-0.61,1.01-1.26,1.4-1.96c8.72-15.54,17.43-31.09,26.15-46.63
		c0.26-0.47,0.39-0.93,0.38-1.48c-0.02-7.96-0.02-15.91-0.02-23.87c1.34,1.06,2.67,2.14,4.04,3.17c4.82,3.6,9.99,6.5,15.9,7.94
		c0.05,0.31,0.15,0.62,0.15,0.93c0.01,4.67,0,9.35,0.02,14.02c0,0.46-0.13,0.86-0.31,1.26c-2.21,4.96-4.43,9.92-6.59,14.9
		c-0.15,0.35-0.91,0.82-0.29,1.13c0.48,0.24,0.63-0.58,0.85-0.96c5.68-9.95,11.35-19.91,17.02-29.87c0.84-0.06,1.68-0.12,2.52-0.18
		c-0.18,0.35-0.35,0.71-0.55,1.06c-4.04,7.03-8.08,14.07-12.14,21.09c-0.37,0.65-0.53,1.29-0.53,2.04
		c0.02,9.24,0.01,18.47,0.02,27.71c0,0.6-0.05,1.17-0.31,1.74c-2.09,4.67-4.16,9.35-6.22,14.03c-0.15,0.33-0.54,0.61-0.32,1.15
		c0.57-0.27,0.86-0.75,1.15-1.24c2.05-3.57,4.13-7.12,6.16-10.7c6.58-11.61,13.15-23.23,19.74-34.84c0.33-0.58,0.48-1.15,0.47-1.81
		c-0.02-6.76-0.01-13.51-0.01-20.27c0-0.47-0.12-0.96,0.17-1.4c0.8-0.24,1.62-0.43,2.4-0.73c6.68-2.53,12.57-6.32,17.68-11.31
		c0.27,0.31,0.17,0.69,0.18,1.04c0.22,5.75,0.05,11.51,0.11,17.26c0.01,0.5-0.18,0.93-0.37,1.37c-2.09,4.71-4.18,9.41-6.26,14.12
		c-0.31,0.69-0.82,1.31-0.87,2.19c0.74-0.21,0.89-0.85,1.16-1.33c5.63-9.76,11.24-19.53,16.87-29.28c0.39-0.67,0.34-1-0.36-1.38
		c-2.45-1.34-4.82-2.82-7.14-4.39c-0.64-0.44-1.19-0.93-1.6-1.58c0.15-0.23,0.28-0.49,0.47-0.69c2.06-2.26,3.18-4.99,3.95-7.88
		c0.6-2.22,0.16-3.21-1.71-4.37c1.85-0.13,3.06,0.95,4.16,2.21c0.34,0.39,0.68,0.74,1.12,1.03c9.6,6.32,20.34,10.25,30.85,14.65
		c4.37,1.83,8.63,3.9,12.98,5.78c1.64,0.71,2.75,2.27,4.19,3.34c3.16,2.35,5.89,5.16,8.26,8.31c4.8,6.39,7.49,13.68,9.27,21.39
		c1.09,4.73,1.21,9.61,2.34,14.31c2.19,9.11,3.75,18.32,5.22,27.56c0.07,0.47,0.09,0.95,0.13,1.43c-0.63,0.44-1.36,0.68-2.1,0.84
		c-3.03,0.66-5.9,1.87-8.96,2.5c-3.9,0.81-7.82,1.53-11.77,1.96c-5.56,0.61-11.14,0.29-16.7,0.02c-1.11-0.05-2.2-0.36-3.18-0.96
		c0.91-6.93,2.32-13.76,3.92-20.58c-0.72,3.04-3.49,5.28-3.31,8.67c0.02,0.34-0.15,0.69-0.26,1.03c-1.99,6.02-3.17,12.22-4.26,18.44
		c-0.85,4.81-1.5,9.64-1.92,14.51c-0.4,4.76-0.98,9.51-1.18,14.29c-0.2,4.79-0.41,9.57-0.47,14.36c-0.09,7.88-0.09,15.76-0.08,23.64
		c0.01,13.48,0,26.95,0.48,40.42c0.17,4.91,0.42,9.82,0.33,14.74c0,0.2,0.02,0.4,0.03,0.6c0.23,5.74,0.45,11.49,0.7,17.23
		c0.03,0.72-0.51,1.38-0.18,2.09c0.52,1.09,0.37,2.25,0.41,3.4c0.09,2.51,0.18,5.03,0.31,7.54c0.2,3.74,0.44,7.49,0.67,11.23
		c-3.69,0.44-7.38,0.84-11.09,0.99c1.18-2.96,2.7-5.77,3.69-8.8c-0.11-0.05-0.21-0.11-0.32-0.16c-1.68,3.03-3.36,6.06-5.04,9.09
		c-0.82,0.02-1.65,0.05-2.47,0.07c0.93-1.43,0.73-3.05,0.73-4.63c0-8.79,0.01-17.58-0.01-26.37c0-0.7,0.15-1.32,0.43-1.96
		c1.88-4.19,3.73-8.39,5.59-12.59c0.21-0.48,0.52-0.97,0.18-1.51c-0.45-0.01-0.46,0.35-0.58,0.57
		c-8.63,15.22-17.25,30.45-25.87,45.67c-0.22,0.39-0.43,0.77-0.38,1.23c-0.94,0.01-1.89,0.02-2.83,0.04
		c1.03-2.08,2.28-4.03,3.42-6.04c6.56-11.54,13.09-23.09,19.64-34.63c0.34-0.6,0.4-1.18,0.4-1.83c-0.01-9.4,0-18.79-0.01-28.19
		c0-0.7,0.14-1.32,0.43-1.96c2.02-4.52,4.04-9.05,6.01-13.6c0.33-0.77,0.79-1.54,0.85-2.49c-0.38,0.1-0.44,0.29-0.54,0.47
		c-2.49,4.38-4.98,8.75-7.47,13.13c-6.51,11.47-13.01,22.95-19.52,34.43c-0.28,0.5-0.44,0.99-0.43,1.58
		c0.02,9.48,0.01,18.95,0.03,28.43c0,0.74-0.15,1.41-0.45,2.08c-1.28,2.88-2.54,5.77-3.8,8.66c-5.44,0.15-10.88,0.3-16.33,0.46
		c0.01-7.6,0.02-15.2,0.01-22.8c0-0.82,0.16-1.56,0.49-2.31c1.79-3.97,3.55-7.96,5.31-11.95c0.26-0.58,0.49-1.17,0.71-1.76
		c0.07-0.18,0.07-0.43-0.15-0.52c-0.22-0.09-0.39,0.09-0.48,0.26c-0.22,0.42-0.39,0.87-0.62,1.28c-4.74,8.48-9.5,16.95-14.23,25.44
		c-2.3,4.12-4.56,8.25-6.83,12.38c-0.86-0.02-1.72-0.05-2.57-0.07c0.16-0.36,0.3-0.74,0.49-1.09c5.79-10.31,11.58-20.63,17.39-30.93
		c0.35-0.61,0.52-1.21,0.51-1.92c-0.02-9.31,0-18.63-0.02-27.94c0-0.98,0.17-1.87,0.58-2.77c2.12-4.7,4.2-9.42,6.28-14.13
		c0.17-0.39,0.52-0.79,0.18-1.49c-0.47,0.82-0.86,1.49-1.25,2.17c-8.57,15.12-17.14,30.24-25.71,45.37c-0.33,0.58-0.7,1.12-0.7,1.87
		c0.03,10.23,0.03,20.47,0.03,30.7c-5.64-0.12-11.28-0.24-16.92-0.36c1.26-3.35,2.99-6.51,4.02-9.95c-1.38,2.14-2.63,4.33-3.83,6.55
		c-0.6,1.11-1.38,2.13-1.72,3.37c-0.85-0.01-1.71-0.03-2.56-0.04c1.12-1.63,0.88-3.49,0.88-5.31c0-8.64,0.01-17.28-0.01-25.91
		c0-0.7,0.14-1.32,0.42-1.96c1.93-4.3,3.86-8.6,5.71-12.94c0.38-0.9,0.96-1.78,1.06-3c-0.95,0.64-1.1,1.56-1.51,2.29
		c-8.51,14.98-17,29.98-25.47,44.98c-0.24,0.43-0.76,0.75-0.65,1.35c-0.88,0.32-1.76,0.32-2.63-0.04c1.03-1.8,2.08-3.6,3.1-5.4
		c6.51-11.47,13-22.95,19.52-34.42c0.33-0.58,0.47-1.15,0.47-1.81c-0.01-9.4,0-18.79-0.02-28.19c0-0.78,0.16-1.48,0.48-2.19
		c1.82-4.05,3.62-8.1,5.4-12.16c0.48-1.1,0.85-2.24,1.29-3.41c-0.57-0.02-0.58,0.35-0.7,0.56c-2.36,4.12-4.69,8.26-7.04,12.39
		c-6.55,11.54-13.09,23.09-19.65,34.62c-0.33,0.58-0.45,1.16-0.45,1.82c0.01,9.24,0,18.47,0.02,27.71c0,1.11-0.2,2.11-0.67,3.11
		c-1.12,2.43-2.17,4.89-3.24,7.34c-3.7-0.25-7.39-0.56-11.06-1.14c-0.39-0.06-0.76-0.19-1.14-0.28c-0.08-0.62,0.43-1.07,0.42-1.7
		c-0.04-1.68,0.13-3.35,0.23-5.02c0.3-5.02,0.54-10.04,0.74-15.06c0.21-5.3,0.28-10.6,0.55-15.89c0.2-3.95,0.31-7.9,0.4-11.85
		c0.13-5.75,0.49-11.5,0.34-17.26c-0.04-1.64,0.06-3.27,0.25-4.9c0.42-2.18-0.49-4.55,1.2-6.74c-1.34,0.59-1.06-0.24-1.06-0.76
		c-0.01-11.16,0.02-22.32-0.03-33.47c-0.01-1.84,0.18-3.56,1.08-5.19c0.2-0.35,0.45-0.75,0.32-1.27c-0.58,0.46-0.56,1.34-1.32,1.79
		c-0.07-1.15-0.13-2.16-0.19-3.18c-0.19-1.71-0.28-3.42-0.25-5.14c0.02-1.4,0.05-2.8-0.06-4.19c-0.36-4.72-0.41-9.45-0.93-14.16
		c-0.32-2.85-0.31-5.73-0.74-8.58c-0.31-2.04-0.49-4.1-0.83-6.13c-0.64-3.82-1.3-7.63-2.05-11.42c-0.49-2.47-0.93-4.97-1.78-7.35
		c0.15-0.45,0.26-0.92,0.45-1.35c2.18-4.94,4.37-9.87,6.55-14.8c0.16-0.36,0.45-0.72,0.15-1.41c-0.9,1.59-1.66,3.03-2.49,4.41
		c-1.91,3.18-3.47,6.58-5.65,9.6c-0.25-0.93-0.5-1.85-0.75-2.78c1.16-1.54,1.71-3.18,1.69-5.19c-0.1-8.96-0.04-17.92-0.05-26.88
		c0-0.7,0.14-1.32,0.42-1.96c1.98-4.41,3.93-8.84,5.9-13.26c0.3-0.68,0.5-1.38,0.68-2.33c-0.8,0.74-1.08,1.54-1.49,2.25
		C44.62,60.92,39.81,69.36,35,77.8c-0.23,0.41-0.56,0.78-0.26,1.31c1.3,2.27,1.95,4.8,2.91,7.2c1.53,3.85,2.8,7.77,3.63,11.83
		c0,0.4-0.07,0.81,0.02,1.19c1.02,4.43,1.45,8.94,1.87,13.45c-2.09,0.82-4.24,1.15-6.49,1.29c-6.19,0.39-12.36,0.16-18.51-0.4
		C12.65,113.18,7.28,111.77,2.14,109.63z M131.84,50.73c-2.41,4.14-4.86,8.27-7.22,12.43c-6.52,11.47-12.99,22.95-19.5,34.43
		c-0.35,0.61-0.51,1.22-0.51,1.92c0.02,9.44,0.01,18.87,0.02,28.31c0,0.65-0.11,1.25-0.38,1.85c-2.03,4.52-4.04,9.05-6.05,13.58
		c-0.39,0.87-0.77,1.75-1.17,2.66c0.62,0.09,0.69-0.34,0.86-0.63c2.44-4.22,4.88-8.44,7.28-12.68c6.51-11.47,12.99-22.96,19.5-34.43
		c0.43-0.75,0.64-1.5,0.63-2.37c-0.02-9.36-0.01-18.71-0.02-28.07c0-0.65,0.12-1.24,0.39-1.85c2.02-4.48,4-8.98,6-13.48
		c0.21-0.47,0.49-0.93,0.39-1.48c0.21-0.09,0.32-0.27,0.15-0.42C131.96,50.31,131.91,50.57,131.84,50.73z M97.73,262.15
		c0.35-0.51,0.73-1,1.03-1.53c2.12-3.67,4.24-7.33,6.33-11.02c6.57-11.58,13.11-23.16,19.69-34.73c0.37-0.66,0.51-1.3,0.51-2.04
		c-0.02-9.36-0.01-18.71-0.02-28.07c0-0.74,0.14-1.4,0.45-2.07c2.24-5,4.45-10.01,6.66-15.02c0.17-0.39,0.51-0.79,0.2-1.43
		c-0.19,0.31-0.32,0.5-0.43,0.7c-2.46,4.3-4.94,8.59-7.38,12.9c-6.55,11.54-13.08,23.09-19.63,34.63c-0.37,0.65-0.53,1.29-0.53,2.04
		c0.02,9.4,0.01,18.79,0.02,28.19c0,0.56-0.04,1.09-0.28,1.63c-2.06,4.6-4.1,9.2-6.12,13.81C97.94,260.76,97.42,261.3,97.73,262.15z
		 M91.53,81.08c-0.73,0.08-0.85,0.59-1.03,0.93c-2.12,3.99-4.43,7.86-6.67,11.78c-6.5,11.39-12.93,22.82-19.4,34.22
		c-0.39,0.68-0.58,1.36-0.58,2.15c0.02,9.4,0.01,18.8,0.02,28.19c0,0.61-0.07,1.18-0.32,1.74c-2.36,5.29-4.71,10.58-7.05,15.88
		c-0.09,0.19-0.45,0.39-0.13,0.7c0.51-0.06,0.57-0.53,0.75-0.85c2.51-4.36,5.02-8.73,7.51-13.11c6.49-11.44,12.97-22.88,19.47-34.32
		c0.33-0.58,0.46-1.16,0.46-1.82c-0.01-9.44,0-18.88-0.02-28.31c0-0.7,0.14-1.32,0.42-1.96C87.15,91.28,89.53,86.35,91.53,81.08z
		 M173.59,80.8c-0.51,0.08-0.69,0.35-0.86,0.68c-2.18,4.09-4.54,8.07-6.84,12.1c-6.52,11.42-12.97,22.88-19.46,34.32
		c-0.41,0.72-0.61,1.42-0.61,2.26c0.02,9.36,0.01,18.71,0.02,28.07c0,0.7-0.13,1.33-0.41,1.96c-2.07,4.63-4.13,9.27-6.18,13.91
		c-0.11,0.26-0.48,0.49-0.18,0.87c0.59-0.01,0.74-0.51,0.97-0.91c2.25-3.91,4.52-7.82,6.75-11.75c6.41-11.3,12.8-22.61,19.22-33.9
		c0.35-0.62,0.5-1.23,0.49-1.93c-0.01-9.4,0-18.79-0.02-28.19c0-0.74,0.14-1.4,0.44-2.08c1.77-3.94,3.53-7.88,5.26-11.83
		C172.7,83.2,173.12,81.99,173.59,80.8z M174.6,39.55c-0.98,0.24-1.05,1.08-1.4,1.71c-8.93,15.9-17.82,31.81-26.75,47.71
		c-0.45,0.8-0.64,1.58-0.63,2.49c0.03,9.2,0.01,18.4,0.02,27.6c0,0.57-0.06,1.1-0.3,1.63c-2.19,4.89-4.36,9.78-6.52,14.68
		c-0.24,0.53-0.72,0.99-0.65,1.69c0.57-0.12,0.72-0.56,0.93-0.93c2.43-4.23,4.86-8.45,7.27-12.7c6.49-11.44,12.96-22.89,19.46-34.33
		c0.35-0.62,0.48-1.23,0.48-1.93c-0.01-9.44-0.01-18.88-0.02-28.32c0-0.65,0.09-1.25,0.36-1.85c2.26-4.99,4.51-9.98,6.75-14.98
		C173.96,41.21,174.27,40.37,174.6,39.55z M56.2,137.33c0.8-0.26,0.97-0.91,1.27-1.42c2.34-4.05,4.67-8.1,6.98-12.17
		c6.53-11.51,13.05-23.03,19.58-34.54c0.37-0.65,0.52-1.3,0.52-2.04c-0.02-9.44-0.01-18.88-0.02-28.32c0-0.7,0.15-1.32,0.44-1.96
		c2.56-5.64,5.1-11.29,7.64-16.94c0.14-0.32,0.45-0.64,0.17-1.08c-0.49,0.25-0.59,0.71-0.8,1.07
		c-9.22,16.46-18.44,32.93-27.66,49.39c-0.33,0.58-0.46,1.16-0.46,1.82c0.01,9.28,0,18.56,0.02,27.84c0,0.74-0.15,1.4-0.45,2.07
		C61.02,126.45,58.64,131.83,56.2,137.33z M91.61,158.7c-0.36,0.03-0.41,0.36-0.54,0.58c-2.44,4.17-4.82,8.38-7.24,12.56
		c-6.57,11.35-12.96,22.8-19.43,34.2c-0.39,0.69-0.55,1.37-0.55,2.16c0.02,9.28,0.01,18.55,0.02,27.83c0,0.57-0.05,1.09-0.3,1.63
		c-2.23,4.9-4.46,9.81-6.63,14.74c-0.2,0.45-0.64,0.91-0.47,1.49c0.49,0.11,0.49-0.29,0.61-0.49c2.45-4.21,4.9-8.42,7.31-12.65
		c6.56-11.54,13.09-23.09,19.64-34.63c0.35-0.61,0.52-1.21,0.51-1.92c-0.02-9.24-0.01-18.47-0.02-27.71c0-0.69,0.12-1.32,0.41-1.96
		c2.16-4.81,4.29-9.64,6.41-14.47C91.53,159.63,91.88,159.22,91.61,158.7z M96.75,224.15c0.57,0.06,0.63-0.33,0.77-0.58
		c2.74-4.78,5.49-9.57,8.21-14.36c6.35-11.19,12.68-22.4,19.04-33.59c0.35-0.62,0.51-1.22,0.51-1.92c-0.02-9.24,0-18.47-0.02-27.71
		c0-0.78,0.17-1.48,0.49-2.19c2.08-4.63,4.14-9.27,6.2-13.91c0.17-0.39,0.49-0.8,0.15-1.27c-0.16,0.07-0.26,0.08-0.29,0.14
		c-2.37,4.21-4.8,8.39-7.22,12.57c-6.55,11.35-12.95,22.8-19.42,34.2c-0.39,0.68-0.57,1.35-0.57,2.15
		c0.02,9.24,0.01,18.47,0.02,27.71c0,0.74-0.15,1.41-0.45,2.08C101.7,212.99,99.25,218.53,96.75,224.15z M56.87,214.73
		c0.32-0.45,0.62-0.84,0.86-1.26c2.3-3.88,4.5-7.82,6.76-11.73c6.6-11.42,13.04-22.94,19.55-34.41c0.35-0.61,0.5-1.22,0.5-1.93
		c-0.02-9.24,0-18.47-0.02-27.71c0-0.82,0.17-1.56,0.51-2.3c2.22-4.96,4.42-9.93,6.61-14.9c0.15-0.35,0.49-0.71,0.08-1.21
		c-0.15,0.24-0.28,0.44-0.39,0.64c-2.44,4.27-4.89,8.53-7.32,12.8c-6.57,11.58-13.12,23.16-19.7,34.74
		c-0.33,0.58-0.46,1.16-0.46,1.82c0.01,9.28,0.01,18.55,0.01,27.83c0,0.56-0.04,1.1-0.29,1.63c-2.26,4.89-4.27,9.9-6.62,14.75
		C56.82,213.77,56.46,214.14,56.87,214.73z M138.24,253.96c0.55-0.07,0.66-0.36,0.82-0.64c2.43-4.22,4.91-8.42,7.31-12.66
		c6.54-11.5,13.04-23.02,19.58-34.52c0.39-0.69,0.56-1.37,0.56-2.15c-0.02-8.4,0.04-16.79-0.05-25.19
		c-0.02-2.34,0.41-4.45,1.38-6.57c1.76-3.84,3.59-7.66,5.09-11.62c0.11-0.28,0.28-0.58,0.01-0.73c-0.36-0.2-0.43,0.25-0.55,0.46
		c-2.17,3.77-4.34,7.55-6.51,11.32c-6.59,11.42-13.03,22.94-19.54,34.4c-0.37,0.65-0.51,1.3-0.51,2.04c0.02,9.2,0,18.39,0.02,27.59
		c0,0.87-0.18,1.64-0.53,2.42C142.96,243.34,140.63,248.58,138.24,253.96z M173.32,120.24c-0.35,0.29-0.46,0.34-0.51,0.43
		c-2.3,4.02-4.6,8.05-6.89,12.08c-6.52,11.51-13.04,23.02-19.57,34.53c-0.37,0.65-0.54,1.29-0.53,2.04
		c0.02,9.2,0.01,18.39,0.02,27.59c0,0.64-0.06,1.25-0.33,1.86c-2.27,5.07-4.52,10.14-6.75,15.22c-0.07,0.16-0.41,0.35-0.08,0.58
		c0.51,0.07,0.58-0.36,0.75-0.65c2.37-4.02,4.66-8.1,6.99-12.14c6.6-11.42,13.03-22.93,19.54-34.4c0.37-0.65,0.55-1.28,0.55-2.03
		c-0.02-9.28-0.01-18.55-0.02-27.83c0-0.6,0.05-1.17,0.31-1.74c1.95-4.34,3.86-8.69,5.79-13.04
		C172.91,122.02,173.15,121.3,173.32,120.24z M132.85,88.73c-0.65,0.13-0.7,0.45-0.82,0.67c-2.45,4.48-5.03,8.9-7.57,13.33
		c-6.45,11.28-12.81,22.61-19.23,33.9c-0.43,0.76-0.64,1.5-0.64,2.37c0.02,9.2,0.01,18.4,0.02,27.59c0,0.57-0.05,1.1-0.29,1.63
		c-1.56,3.46-3.09,6.94-4.63,10.41c-0.62,1.39-1.24,2.77-1.87,4.15c-0.08,0.18-0.26,0.37-0.06,0.53c0.26,0.21,0.45-0.04,0.58-0.22
		c0.25-0.35,0.49-0.72,0.71-1.1c2.08-3.55,4.1-7.13,6.16-10.69c6.59-11.42,13.03-22.94,19.55-34.41c0.37-0.65,0.54-1.29,0.53-2.04
		c-0.02-9.24-0.01-18.48-0.02-27.71c0-0.73,0.12-1.41,0.42-2.08c1.71-3.79,3.4-7.59,5.07-11.39
		C131.46,92.09,132.11,90.5,132.85,88.73z M166.5,40.69c0-2.56-0.02-5.12,0.01-7.68c0.01-0.69-0.19-1.06-0.87-1.33
		c-2.03-0.83-4.06-1.7-6.03-2.66c-0.8-0.39-1.12-0.26-1.55,0.5c-3.84,6.78-7.72,13.54-11.61,20.29c-0.43,0.75-0.64,1.5-0.64,2.37
		c0.02,9.4,0.02,18.79,0.02,28.19c0,0.48,0.02,0.95-0.18,1.41c-2.3,5.14-4.58,10.29-6.87,15.43c-0.1,0.22-0.52,0.45-0.14,0.68
		c0.28,0.17,0.49-0.14,0.62-0.4c0.11-0.21,0.23-0.42,0.35-0.63c8.36-14.92,16.7-29.86,25.13-44.74c1.24-2.19,2.04-4.34,1.79-6.88
		C166.38,43.74,166.5,42.21,166.5,40.69z M186.44,74.67c0,4.6-0.01,9.19,0.01,13.79c0,0.74-0.16,1.4-0.46,2.07
		c-2.28,5.07-4.53,10.14-6.8,15.21c-0.08,0.18-0.28,0.36-0.06,0.51c0.26,0.18,0.44-0.03,0.57-0.24c0.11-0.17,0.2-0.35,0.3-0.52
		c4.09-7.19,8.05-14.45,12.33-21.53c2.23-3.69,3.03-7.62,3.17-11.75c0.23-7.1,0.23-14.21,0.88-21.3c0.25-2.74,0.73-5.44,1.18-8.15
		c0.07-0.41,0.38-0.98-0.36-1.15c-0.64-0.15-0.66,0.48-0.84,0.8c-3.16,5.46-6.29,10.95-9.45,16.41c-0.33,0.58-0.48,1.14-0.48,1.81
		C186.45,65.31,186.44,69.99,186.44,74.67z M43.93,37.25c-3.39,0.83-6.66,1.7-9.81,2.93c-3.6,1.4-3.09,0.38-2.44,4.31
		c0.33,1.96,0.31,3.99,0.67,5.89c0.47,2.54,0.58,5.06,0.83,7.6c0.13,1.36-0.16,2.72,0.09,4.03c0.21,1.07,0.37,2.11,0.33,3.2
		c-0.07,1.88-0.19,3.76-0.15,5.63c0.04,1.49-0.01,3,0.33,4.69c0.26-0.35,0.39-0.49,0.48-0.66c3.14-5.53,6.26-11.06,9.41-16.59
		c0.26-0.45,0.26-0.91,0.26-1.39c0-4.2,0-8.4,0-12.6C43.93,41.98,43.93,39.67,43.93,37.25z M56.56,59.11
		c0.53-0.41,0.8-0.96,1.11-1.49c5.98-10.42,11.97-20.84,17.95-31.27c0.16-0.28,0.65-0.57,0.31-0.91c-0.28-0.29-0.67,0.06-0.97,0.22
		c-3.35,1.86-6.77,3.57-10.33,5c-0.65,0.26-0.78,0.66-0.77,1.28c0.02,3.04,0,6.07,0.02,9.11c0,0.66-0.12,1.26-0.39,1.85
		c-2.3,5-4.36,10.1-6.76,15.06C56.59,58.24,56.23,58.61,56.56,59.11z M194.66,41.01c0.03-0.4-0.23-0.45-0.45-0.52
		c-2.45-0.72-4.9-1.44-7.35-2.16c-0.42-0.12-0.57-0.03-0.54,0.44c0.28,3.71,0.06,7.43,0.12,11.15c0.01,0.43,0.05,0.87-0.14,1.3
		c-2.23,5-4.45,10.01-6.69,15c-0.14,0.3-0.61,0.66-0.22,0.9c0.5,0.31,0.63-0.32,0.8-0.63c4.71-8.27,9.4-16.54,14.1-24.81
		C194.43,41.45,194.56,41.2,194.66,41.01z"></path>
	<path d="M128.24,26.2c-4.31-0.02-8.62-0.06-12.93-0.06c-4.99,0-9.98,0.02-14.97,0.04
		c-4.97-4.13-10.45-7.68-14.34-13c-0.78-1.07-1.39-2.23-1.91-3.45c-0.28-0.67-0.15-0.93,0.63-0.85c3.74,0.37,7.48,0.72,11.22,1.06
		c10.44,0.95,20.89,1.43,31.37,0.47c5.81-0.53,11.63-0.85,17.55-1.28c-0.16,0.86-0.58,1.56-0.99,2.27
		c-1.85,3.24-4.36,5.93-7.22,8.27C133.9,21.91,131.05,24.03,128.24,26.2z"></path>
</g>
</svg>
