<!--?xml version="1.0" encoding="utf-8"?-->
<!-- Generator: Adobe Illustrator 24.2.3, SVG Export Plug-In . SVG Version: 6.00 Build 0)  -->
<svg version="1.1" id="Camada_1" xmlns="http://www.w3.org/2000/svg" xmlns:xlink="http://www.w3.org/1999/xlink" x="0px" y="0px" viewBox="0 0 229 418" enable-background="new 0 0 229 418" xml:space="preserve">
<g onclick="select(this)" class="" id="gola-primaria" fill="#082890">
	<path d="M109.3256989,35.9207878c-0.1734467,0.532753-0.5917358,0.2743607-0.9039154,0.2516022
		c-4.1043777-0.299221-7.9513092-1.505722-11.6402817-3.2895241c-5.3551407-2.5894814-10.2299652-5.8816833-14.3707428-10.1524506
		c-2.6511154-2.734333-4.9007111-5.7867432-5.7837296-9.6242762c-0.2346497-1.0197554-0.4030762-2.0421906-0.2305679-3.0806484
		c0.1655655-0.9966812,0.9428787-1.529851,1.6987534-2.062746c0.5144196-0.0249214,0.9029312-0.3084855,1.2525024-0.6408176
		c0.9263763-0.8806958,2.0002518-1.6613083,2.7274628-2.6858997c2.0422745-2.8774152,5.0195923-3.6035271,8.2394028-3.9384618
		c3.0734558-0.3197089,6.1407471,0.0640202,9.2119827,0.0276009c4.3973541-0.0521445,8.7971802,0.0443054,13.1931534-0.0513445
		c7.9102249-0.1721148,15.8182297,0.0474188,23.7272263,0.0364116c0.9124146-0.0012698,1.828537,0.1745476,2.7369537,0.3088157
		c2.2481232,0.332287,4.1498718,1.1915944,5.5701294,3.1200867c1.2012482,1.6310925,2.6129456,3.1247711,4.4388733,4.1271977
		c1.6919098,0.471426,2.2952423,2.5105724,1.6758423,4.7444515c-1.1704712,4.2214594-3.5445099,7.6803961-6.6416321,10.6471872
		c-2.7457275,2.6302032-5.8013458,4.901825-9.102417,6.8089809c-4.071167,2.3520851-8.2753143,4.4175797-12.9284058,5.3568268
		c-1.3970261,0.2819977-2.8357391,0.3577576-4.2551346,0.5281792c0.4981461-1.1476097,1.3241043-2.0655403,2.1212006-3.0007629
		c2.248703-2.6383533,4.9448242-4.810585,7.4805527-7.1498508c2.1459198-1.6623192,4.2819519-3.3376217,6.4404449-4.9834862
		c2.392868-1.8246021,4.6131897-3.8312626,6.5503387-6.1364632c1.4909363-1.7742386,2.8118439-3.6581097,3.6611938-5.995595
		c-2.0445251,0.171031-3.9476471,0.3502245-5.8538818,0.4858923c-5.379715,0.3828764-10.7599335,0.7590179-16.1413574,1.1168613
		c-5.5895386,0.3716831-11.1788483,0.4153547-16.7722092,0.018959c-7.1327515-0.5054932-14.2606812-1.060936-21.3717041-1.816123
		c-0.7256699-0.0770664-0.9725952,0.1089544-0.6669769,0.8316221c0.5152588,1.2184,1.126152,2.3757305,1.9132462,3.447176
		c3.9235306,5.3410435,9.441452,8.9155712,14.446228,13.0588207
		C103.1151276,29.2874451,106.6069336,32.222599,109.3256989,35.9207878z"></path>
</g>
<g onclick="select(this)" class="" id="detalhe-punho" fill="#082890">
	<path d="M0.24,114.41436c0.5066518-1.0333099,0.4623487-2.1853943,0.7029477-3.2761536
		c0.1164828-0.5280762,0.0638708-1.1035385,0.4705237-1.5418396c4.7471166,1.9192047,9.661128,3.2643356,14.739399,3.8523865
		c5.6213551,0.6509323,11.2752342,0.8683701,16.9397697,0.6843262c2.350296-0.076355,4.6895752-0.1641083,7.0189934-0.5657349
		c0.8487549-0.1463318,1.4449158-0.8912582,2.3408813-0.7894821c0.4804115,1.3697586,0.2444649,2.8194885,0.4263916,4.2271881
		c0.1480598,1.1455917,0.8794975,2.2632141,0.3643112,3.4790955c-2.841095,1.3330917-5.9081955,1.7382584-8.9673958,1.7949448
		c-7.0645809,0.130928-14.1399384,0.3043518-21.1575737-0.9066238c-3.6142483-0.6236801-7.2130728-1.2875977-10.7040243-2.4304047
		c-0.7462479-0.2443008-1.4505816-0.6164856-2.1742241-0.9297638C0.24,116.8129883,0.24,115.613678,0.24,114.41436z"></path>
	<path d="M184.6167908,120.2029724c0.0372009-2.5699768,0.0365143-5.1422272,0.4629211-7.688797
		c0.9396362,0.5695877,1.9786682,0.9036407,3.0544434,0.9562988c5.6075439,0.2745056,11.228775,0.5989304,16.8232422-0.0108337
		c3.9904938-0.4349365,7.9450073-1.161026,11.8859558-1.9935684c3.0928345-0.6533813,6.000824-1.8692627,9.0736084-2.5406494
		c0.6487732-0.1417542,1.2501068-0.5003433,1.873291-0.7590942c1.0290527,2.4653549,1.3149261,5.0500107,1.1316986,7.6846695
		c-0.0435181,0.6258698-0.7669983,0.7556763-1.2712555,0.942894c-3.2154999,1.1938553-6.5277557,2.0655441-9.8517761,2.8920898
		c-8.3978119,2.0882339-16.9433594,2.4642563-25.539505,2.1048508c-1.8251953-0.0763016-3.6426392-0.4177322-5.4543915-0.6971664
		C186.0230713,120.9730606,185.2617188,120.7066879,184.6167908,120.2029724z"></path>
</g>
<g onclick="select(this)" class="" id="gola-secundaria" fill="#ffffff">
	<path d="M127.5429077,26.2013435c-2.5357285,2.3392677-5.2318497,4.5114994-7.4805527,7.1498528
		c-0.7970963,0.9352226-1.6230545,1.8531532-2.1212006,3.0007591c-2.3132095,0.5602531-4.6457596,0.380825-6.9806519,0.1973152
		c-0.6160583-0.0484238-1.1409073-0.2847061-1.6344376-0.6280861c-2.7191315-3.6985855-6.2109375-6.6337395-9.5777512-9.6924343
		c2.8338776-0.0287647,5.6676941-0.0822201,8.5014725-0.080719
		C114.6808319,26.1514378,121.1118698,26.1818867,127.5429077,26.2013435z"></path>
</g>
<path d="M189.3682404,91.1565399c0.0375671-0.1338425,0.0751343-0.2676697,0.1127014-0.4015045
	c0.0261383,0.028389,0.072525,0.0551529,0.0749512,0.0854416c0.012146,0.1519699,0.0203705,0.3102493-0.208313,0.2966614
	C189.3475342,91.1370926,189.3682556,91.1565399,189.3682404,91.1565399z"></path>
<g onclick="select(this)" class="" id="estampa-primaria" fill="#bf0811">
	<path d="M42.4525146,112.7778625c-0.8959656-0.1017761-1.4921265,0.6431503-2.3408813,0.7894821
		c-2.3294182,0.4016266-4.6686974,0.4893799-7.0189934,0.5657349c-5.6645355,0.1840439-11.3184147-0.0333939-16.9397697-0.6843262
		c-5.0782709-0.5880508-9.9922829-1.9331818-14.739399-3.8523865c1.6968609-8.914566,2.4887414-17.9633636,4.0001216-26.9052277
		c0.8855782-5.2393951,1.1788788-10.5595551,2.2399788-15.7781677c1.7292542-8.504673,4.4516625-16.5878448,9.6675148-23.6606789
		c2.1221428-2.8776779,4.5377884-5.4906731,7.3400173-7.7103424c1.3638763-1.0803337,2.3639584-2.5835495,3.9253693-3.4050064
		c3.6099453-1.8991852,7.2583332-3.7276974,11.0324497-5.2813187c9.9905014-4.1125946,20.000515-8.1803665,29.4651909-13.4415846
		c1.9752426-1.0979939,3.9976349-2.0948963,5.5164642-3.8997173c0.8439026-1.0028076,2.0582657-1.6470857,3.4946365-1.5515785
		c-0.7558746,0.5328951-1.5331879,1.0660648-1.6987534,2.062746c-0.1725082,1.0384579-0.0040817,2.0608931,0.2305679,3.0806484
		c0.8830185,3.837533,3.1326141,6.8899431,5.7837296,9.6242762c4.1407776,4.2707672,9.0156021,7.5629692,14.3707428,10.1524506
		c3.6889725,1.783802,7.5359039,2.990303,11.6402817,3.2895241c0.3121796,0.0227585,0.7304688,0.2811508,0.9042816-0.2512054
		c0.4935303,0.34338,1.0183792,0.5796623,1.6344376,0.6280861c2.3348923,0.1835098,4.6674423,0.3629379,6.9804306-0.1974907
		c1.4196167-0.1702423,2.8583298-0.2460022,4.2553558-0.5279999c4.6530914-0.9392471,8.8572388-3.0047417,12.9284058-5.3568268
		c3.3010712-1.907156,6.3566895-4.1787777,9.102417-6.8089809c3.0971222-2.9667912,5.4711609-6.4257278,6.6416321-10.6471872
		c0.6194-2.2338791,0.0160675-4.2730255-1.6763763-4.744153c1.9420929-0.322947,3.1181183,0.8977289,4.248703,2.1526375
		c0.3474121,0.3856363,0.6847076,0.7271471,1.1279755,1.0213566c8.8716431,5.8886719,18.7898102,9.6126652,28.5267792,13.6823082
		c5.0673981,2.11796,10.038208,4.4440956,15.0911713,6.5874882c0.2853394,0.1210365,0.5591431,0.2838707,0.8124237,0.4636726
		c11.9666901,8.4952011,19.1779327,20.08321,21.3682709,34.4821701c1.7443542,11.4671555,4.7389374,22.6825333,6.318634,34.166687
		c0.3372803,2.4519806,0.734375,4.8957443,1.1039429,7.3433762c-0.6231995,0.2587509-1.2245331,0.6173401-1.8733063,0.7590942
		c-3.0727844,0.6713867-5.9807739,1.8872681-9.0736084,2.5406494c-3.9409485,0.8325424-7.895462,1.5586319-11.8859558,1.9935684
		c-5.5944672,0.6097641-11.2156982,0.2853394-16.8232422,0.0108337c-1.0757751-0.0526581-2.1148071-0.3867111-3.0544434-0.9562912
		c0.9133911-6.7970581,2.1953278-13.5191116,4.0814209-20.1194687c0.1157684-0.4051895,0.4060059-0.7978287,0.1864471-1.257576
		c0.2286835,0.013588,0.220459-0.1446915,0.208313-0.2966614c-0.0024261-0.0302887-0.0488129-0.0570526-0.0749512-0.0854416
		c-0.0375671,0.1338348-0.0751343,0.267662-0.1127014,0.4015045c-0.3382111,0.0892105-0.3290253,0.4327927-0.4303589,0.6598129
		c-2.0418243,4.5738068-3.5193329,9.3472748-4.7613068,14.1821518c-2.4084015,9.3755341-3.9837952,18.8970871-4.9313965,28.5371094
		c-0.4706268,4.7878876-0.8178406,9.5828094-1.1401062,14.3773499c-0.3235474,4.8140259-0.4896545,9.6474457-0.4935303,14.4725189
		c-0.0137329,17.0256653-0.293335,34.0512085,0.1540527,51.0777435c0.191925,7.3041687,0.2595215,14.6112518,0.5149689,21.9160767
		c0.170105,4.8651276,0.3197784,9.7314301,0.4851532,14.597168c0.2033081,5.9811401,0.4586487,11.9578552,0.7411346,17.9355164
		c0.2373199,5.0215149,0.4161835,10.0449524,0.8100586,15.0577393c-7.654129,1.0699463-15.3581696,1.3612976-23.0732422,1.4522095
		c-12.9472198,0.1525879-25.8881531,0.5621033-38.8301086,0.9285583c-6.7608643,0.1914368-13.4958496-0.465271-20.2470093-0.5768127
		c-8.7105942-0.1439209-17.4220123-0.2460938-26.1319199-0.4232483c-8.3101959-0.1690063-16.6230583-0.3526306-24.8476982-1.7511597
		c0.5422516-3.7596436,0.4815598-7.5604248,0.7390556-11.3394775c0.3821983-5.6092529,0.5796967-11.2329712,0.7604179-16.8535767
		c0.1423416-4.4268494,0.2932549-8.852417,0.473175-13.2781372c0.2545853-6.2624054,0.3896675-12.5300751,0.535202-18.7964172
		c0.0927391-3.9929047,0.1909142-7.9915466,0.1893997-11.9799347c-0.00811-21.4069519,0.6336784-42.8216705-0.6577225-64.2175446
		c-0.2539635-4.2076416-0.5594025-8.4050293-0.9685097-12.6003418c-0.4473228-4.5871887-1.0582695-9.1419525-1.8283081-13.6878357
		c-1.0712128-6.3238525-2.2926559-12.6049652-4.1846809-18.7393494c-0.5815163-1.8854294-1.0368538-3.8216553-1.9383469-5.6982117
		c-0.5278625,0.8900604,0.2040977,1.4512558,0.2923431,2.1296234c0.3710556,2.852478,0.8811569,5.6868515,1.2544365,8.5390854
		C42.1011581,108.9703293,42.5416451,110.8479462,42.4525146,112.7778625z"></path>
	<path d="M127.5429077,26.2013454c-6.4310379-0.0194588-12.8620758-0.0499077-19.2931213-0.0533142
		c-2.8337784-0.0015011-5.6675949,0.0519543-8.5014725,0.080719c-5.0048599-4.1429901-10.5227814-7.7175179-14.446312-13.0585613
		c-0.7870941-1.0714455-1.3979874-2.228776-1.9132462-3.447176c-0.3056183-0.7226677-0.0586929-0.9086885,0.6669769-0.8316221
		c7.1110229,0.755187,14.2389526,1.3106298,21.3717041,1.816123c5.5933609,0.3963957,11.1826706,0.3527241,16.7722092-0.018959
		c5.381424-0.3578434,10.7616425-0.7339849,16.1413574-1.1168613c1.9062347-0.1356678,3.8093567-0.3148613,5.8538818-0.4858923
		c-0.84935,2.3374853-2.1702576,4.2213564-3.6611938,5.995595c-1.937149,2.3052006-4.1574707,4.311861-6.5503387,6.1364632
		C131.8248596,22.8637238,129.6888275,24.5390263,127.5429077,26.2013454z"></path>
</g>
<g onclick="select(this)" class="" id="estampa-terciaria" fill="#ffffff">
	<path d="M52.481636,284.2699585c0.041996-0.4598083,0.4188843-0.2624512,0.6305428-0.2778931
		c1.235405-0.0900574,2.473175-0.1554871,3.7111855-0.2008972c7.5917816-0.2787781,15.1839828-0.5463867,22.7757339-0.8261414
		c1.9567032-0.072113,3.9122849-0.1744995,5.8747635-0.408844c-14.4350204-0.7012329-28.8700523-1.4024963-43.2619095-2.1016541
		c-0.3454437-0.4183655-0.2441292-0.8055725-0.1757507-1.1821289c0.3297005-0.3642578,0.7543182-0.249176,1.1368904-0.2625732
		c5.7943649-0.2026367,11.5894165-0.3860779,17.383503-0.596283c6.1927414-0.2246704,12.3861389-0.4401855,18.5761719-0.7263184
		c2.5175476-0.116394,5.035614-0.1494751,7.5528412-0.2380981c0.5426712-0.0191345,1.0843887-0.0651245,1.6217728-0.2433777
		c-15.337326-0.733551-30.6746559-1.4671021-45.9359131-2.196991c-0.3324623-0.4044189-0.3684044-0.7346497-0.1325493-1.2060547
		c15.8208046-0.6006165,31.6978264-1.2033691,47.5748482-1.8061523c-0.0005951-0.057251-0.0011978-0.114502-0.0018005-0.1716919
		c-15.6830444-0.756958-31.3660965-1.513916-46.9776001-2.267395c-0.3093491-0.380249-0.1880646-0.67099-0.0516052-1.0567322
		c16.737011-0.6298218,33.4784317-1.2598267,50.2198486-1.8898315c0.0050964-0.0346985,0.0102081-0.0694275,0.0153046-0.1041565
		c-16.6578064-0.8032532-33.3156052-1.6065063-49.901783-2.4063416c-0.2304688-0.3216858-0.1871376-0.5388489-0.0502319-0.7534485
		c0.235157-0.2014465,0.5237885-0.1698608,0.8001328-0.1799316c4.7546539-0.1729126,9.5093956-0.3434753,14.2640762-0.515564
		c7.31213-0.2645874,14.6251869-0.5068359,21.9360085-0.8038025c4.1545486-0.1687317,8.307724-0.3648376,12.4651108-0.4542847
		c0.8619156-0.0185242,1.7282028-0.0241394,2.3831558-0.2673035c-17.0814056-0.820282-34.3345718-1.6488342-51.5923729-2.4775696
		c-0.0340614-0.9110413,0.5158157-0.7530212,0.9043198-0.7640991c1.7585526-0.0499268,3.5154114-0.1349182,5.2729301-0.20578
		c5.8330193-0.2351685,11.668808-0.4007263,17.502861-0.6116028c6.3926697-0.2310486,12.7848129-0.4770203,19.1767349-0.7280579
		c3.5134201-0.1379395,7.0259094-0.29953,10.5420837-0.5608215c-1.5911636-0.0905609-3.1816864-0.1948853-4.773613-0.2689972
		c-4.3530655-0.202652-8.7073669-0.3790894-13.0599899-0.5904541c-7.4662247-0.3625488-14.9312668-0.7495728-22.3973694-1.1147614
		c-3.9529266-0.1933594-7.9071198-0.3607635-11.8604774-0.545517c-0.3330536-0.0156097-0.7322807,0.0811615-0.8945847-0.3487244
		c0.1408539-0.4073181,0.4643745-0.295166,0.7202568-0.3043365c5.4744835-0.1959991,10.9494972-0.3774719,16.4237862-0.5786591
		c6.3126869-0.2320404,12.6248894-0.4772949,18.9370766-0.7225494c6.3511963-0.2467346,12.702095-0.5005951,19.0627365-0.913559
		c-18.3171997-0.8849335-36.6343994-1.7698364-55.0004387-2.6571503c0.1649857-0.5136566,0.486618-0.4006653,0.7338295-0.4096832
		c5.0343666-0.1833801,10.0695496-0.3452911,15.1034584-0.5401917c7.0704613-0.2736969,14.1396523-0.5800629,21.2101021-0.8541565
		c3.5960922-0.1394043,7.1937866-0.2371674,10.7906647-0.35672c2.5975189-0.086319,5.1949005-0.1766357,7.7922668-0.2676086
		c0.3537979-0.0123901,0.7195892,0.0249176,1.1755905-0.29422c-18.6770248-0.9042664-37.2165527-1.8018646-55.7560692-2.6994629
		c0.0010796-0.0891266,0.0021629-0.1782532,0.0032425-0.2673798c19.5217552-0.7388153,39.0435066-1.4776306,58.5652657-2.2164612
		c0.0004501-0.0474548,0.0009079-0.0949249,0.0013657-0.1423798c-19.2929306-0.9298706-38.5858612-1.859726-57.878788-2.7895966
		c-0.0015945-0.0518951-0.0031891-0.1037903-0.0047798-0.1556854c19.772789-0.7458038,39.545578-1.4915924,59.318367-2.237381
		c0.0036163-0.0709839,0.0072327-0.1419525,0.0108414-0.2129211c-18.1936798-0.878891-36.3873596-1.7577667-54.5810356-2.6366425
		c0.0006065-0.1213989,0.0012131-0.2427979,0.0018196-0.3641968c19.0065613-0.7196655,38.0131302-1.4393463,57.0196915-2.1590118
		c-0.0018997-0.0655975-0.0037918-0.1311798-0.0056915-0.1967621c-19.0756149-0.9177856-38.1512299-1.8355865-57.2268372-2.7533875
		c0.0006714-0.0518951,0.001339-0.1038055,0.0020065-0.1557159c19.9504395-0.7558899,39.9008636-1.5117798,59.8512955-2.2676849
		c0.000206-0.0537262,0.000412-0.1074371,0.000618-0.1611633c-19.1532822-0.9238739-38.3065567-1.8477478-57.4598351-2.7716217
		c-0.0015678-0.0566559-0.0031319-0.1133118-0.0046921-0.1699677c19.7140465-0.7432098,39.4280968-1.4864197,59.3897667-2.2389679
		c-0.9934235-0.2373352-1.7604218-0.3207245-2.5388107-0.3547058c-6.1512985-0.2685699-12.3031006-0.5270081-18.4532166-0.8208008
		c-9.4237747-0.4501495-18.846283-0.9266357-28.2693939-1.3906097c-2.1497002-0.1058655-4.2996635-0.2062988-6.552803-0.3141632
		c0.2434425-0.4435883,0.5871201-0.3407898,0.8572121-0.3506165c4.7547951-0.1725616,9.5102425-0.327301,14.2649422-0.5023499
		c6.4331131-0.2368317,12.865509-0.4931641,19.298584-0.7309418c7.0322266-0.2599487,14.0650635-0.5032806,21.0971298-0.7674103
		c0.9810486-0.0368652,1.959198-0.1510315,2.9318848-0.3056183c-19.4660339-0.9369354-38.9320602-1.8738708-58.3980904-2.8108063
		c0.0009995-0.0315857,0.0019989-0.0631714,0.0029984-0.0947723c20.450779-0.7750092,40.9015617-1.5500336,61.3523369-2.3250427
		c0.0017242-0.0312042,0.0034485-0.0624237,0.0051804-0.0936432c-18.9133911-0.9111176-37.8267822-1.8222198-56.7401657-2.7333527
		c-0.0017509-0.078476-0.0034981-0.1569672-0.005249-0.2354431c1.3720856-0.0715637,2.7435303-0.1601257,4.1163635-0.2115936
		c4.9146347-0.1842804,9.8299332-0.3505096,14.7445984-0.5337982c6.3526001-0.2368927,12.7056427-0.4644318,19.0570145-0.7312164
		c6.9883652-0.2935028,13.9766388-0.5820465,20.9359436-0.7541351c-0.6763077-0.287735-1.4334488-0.2965088-2.1893234-0.3296509
		c-6.430687-0.2818604-12.861496-0.5612793-19.2916641-0.8546448c-4.7922134-0.2186584-9.5838394-0.450592-14.3751831-0.6878052
		c-7.3869934-0.3656921-14.7708054-0.7993927-22.1644135-1.0236816c-0.2088623-0.0063324-0.4634094,0.0770264-0.6856804-0.2065277
		c0.5529442-0.0429688,1.0558777-0.1011353,1.5602226-0.1182861c5.6346207-0.1916199,11.2699661-0.3626862,16.9041061-0.5671997
		c8.6305313-0.3132629,17.2602005-0.6503906,25.8903732-0.9735565c4.3950882-0.1645966,8.7904968-0.3207855,13.1857529-0.480896
		c1.2341766-0.0449524,2.4738693-0.0214691,3.4577713-0.2812958c-19.2859955-0.9294586-38.8026581-1.8700409-58.3193245-2.8106079
		c0.0004921-0.0509338,0.0009804-0.1018524,0.0014648-0.152771c20.3090553-0.7689362,40.6181068-1.5378418,60.927166-2.3067627
		c0.0002975-0.0219116,0.0006027-0.0438385,0.0008926-0.0657501c-19.5823669-0.9447174-39.1647415-1.8894348-58.8512115-2.8392029
		c1.2981339-0.1430817,2.4917221-0.2841339,3.7014542-0.3238373c7.8727722-0.2582855,15.7450104-0.5328217,23.6168518-0.8179016
		c6.1131287-0.221405,12.2262344-0.4467926,18.3378067-0.7064209c4.4741211-0.1900787,8.9474487-0.3900299,13.4251404-0.4768066
		c0.5000381-0.0096893,0.9990997-0.0697479,1.4926453-0.3068542c-1.6905289-0.053421-3.382225-0.0830994-5.0714188-0.164566
		c-5.7893753-0.2792053-11.5774612-0.5850525-17.3668365-0.864212c-4.3130035-0.207962-8.6274338-0.3861694-12.9408875-0.5850677
		c-7.1084976-0.3277588-14.2165909-0.6641083-21.3252335-0.9885864c-0.675148-0.0308075-1.3222733-0.1917572-2.1198578-0.3293915
		c-0.0170746-0.0004578,0.1929474-0.187439,0.1433258-0.0355988c-0.0063705,0.0195007,0.0410767,0.0821838,0.0619659,0.0814056
		c19.6747284-0.7313995,39.3493195-1.466507,59.0239182-2.2015839c-0.0009003-0.0916443-0.0018082-0.1833038-0.0027008-0.2749481
		c-18.7148132-0.9042664-37.4296341-1.8085327-56.1444473-2.7128143c0.0004349-0.0553589,0.0008698-0.110733,0.001297-0.1660919
		c19.5678253-0.740448,39.1356506-1.480896,58.7034836-2.2213287c0.0021667-0.0815582,0.0043335-0.1631165,0.0065002-0.2446594
		c-18.9082642-0.9110718-37.8165283-1.8221283-56.7971344-2.7366791c0.9378128-0.1939697,1.8212433-0.2636719,2.7143784-0.2929993
		c5.834816-0.1914673,11.6695404-0.3863068,17.5037231-0.5964355c6.3530273-0.2287903,12.7055817-0.4713745,19.0580521-0.7151947
		c7.0710602-0.2713623,14.1418076-0.5509033,21.2349854-0.9521484c-0.3561554-0.0338593-0.7116089-0.0836487-1.068573-0.0991821
		c-4.9133911-0.213974-9.8280182-0.4013824-14.7402573-0.638855c-7.1071091-0.3435822-14.2119827-0.733139-21.3188171-1.0826111
		c-4.3128815-0.2121124-8.627655-0.38591-12.9416046-0.5762939c-2.0768661-0.0916595-4.1536026-0.1873322-6.2308655-0.2690277
		c-0.5206451-0.0204773-1.0097656-0.1511688-1.5154953-0.3039703c19.8070984-0.7476196,39.5924377-1.4944305,59.3777924-2.2412262
		c-0.0010223-0.0595245-0.0020294-0.1190491-0.0030212-0.1785889c-19.4017258-0.9349518-38.8034439-1.8698883-58.2051697-2.8048553
		c-0.0000153-0.0286713-0.0000381-0.0573578-0.0000534-0.0860443c20.1220932-0.7634277,40.2441864-1.5268402,60.3662796-2.2902679
		c0.0011292-0.0600586,0.0022583-0.1201172,0.0033722-0.180191c-18.9273987-0.9118805-37.8548126-1.8237457-56.9990997-2.7460632
		c0.5321274-0.3659821,0.9381332-0.2735291,1.3102188-0.2862549c6.1143723-0.2088776,12.2294388-0.3978577,18.3434372-0.6168518
		c6.1931152-0.221817,12.3851013-0.4749908,18.5778122-0.7082062c6.4326019-0.2422485,12.8655167-0.4758911,19.2980728-0.7194366
		c0.2533722-0.0095825,0.5440216,0.0843964,0.7599487-0.1617737c-0.0742798-0.2851257-0.3100891-0.2240448-0.4828644-0.2321625
		c-3.6338043-0.1711884-7.2683105-0.3273773-10.9019928-0.501358c-6.428894-0.3078156-12.8572922-0.6261444-19.2859573-0.9388428
		c-3.4340134-0.1670532-6.8677139-0.341217-10.3023376-0.4947357c-4.6333923-0.2070923-9.2675095-0.3978729-13.9013824-0.5940247
		c-0.3518677-0.0148773-0.7051163-0.0137482-1.1442795-0.3027496c19.9420929-0.7510834,39.7324448-1.4964447,59.5227966-2.2418213
		c-0.000824-0.0534821-0.0016479-0.1069641-0.0024872-0.1604462c-19.2311325-0.9274597-38.462265-1.8549042-57.6934128-2.7823792
		c-0.0003738-0.0513-0.0007553-0.1026306-0.0011368-0.1539459c19.5720444-0.7395325,39.1440964-1.4790497,58.7161407-2.2185822
		c0.0015717-0.0847168,0.0031586-0.1694489,0.0047455-0.2541656c-18.6872482-0.9041138-37.3744812-1.8082428-56.0203705-2.7103577
		c0.4692154-0.2122192,1.0115204-0.2774811,1.5686417-0.2961426c5.8348083-0.195343,11.6700363-0.3803253,17.503952-0.5999146
		c6.871582-0.2586212,13.7419205-0.5498352,20.6129227-0.8242493c2.3570404-0.0941467,4.7140045-0.1926117,7.0716858-0.2673645
		c4.1167755-0.1305695,8.2340698-0.2437439,12.3511047-0.3661957c0.2782745-0.0082703,0.5560303-0.0332642,1.0795288-0.0656738
		c-0.5787354-0.313446-1.0005188-0.2581024-1.3903503-0.2751312c-2.236557-0.097702-4.4740295-0.1550446-6.710907-0.2696991
		c-7.7056274-0.3950348-15.4148788-0.7186737-23.1221542-1.0819397c-6.4291458-0.303009-12.8598022-0.5834198-19.2849655-0.9566956
		c-2.4333038-0.1413727-4.8791809-0.0547485-7.3010559-0.3930511c-0.1901245-0.0265503-0.3982315,0.0098114-0.5502625-0.1425934
		c19.8072433-0.7486572,39.6177368-1.4974365,59.4282227-2.2462311c-0.0006104-0.0649261-0.0012207-0.1298523-0.0018158-0.1947937
		c-19.2785187-0.9316559-38.5570374-1.8633118-57.835556-2.7949829c0.001091-0.0291901,0.002182-0.0583801,0.003273-0.0875854
		c7.8571014-0.3109436,15.7141876-0.6223755,23.5713196-0.9325104c2.2772369-0.0899048,4.5554047-0.1434784,6.8328934-0.2407684
		c5.8326111-0.2491913,11.6692657-0.4024811,17.5036469-0.612442c4.3553314-0.1567383,8.7096252-0.3422241,13.0644379-0.5136185
		c0.1798859-0.0070877,0.3602753-0.0008926,0.5477142-0.1147919c-19.7447815-0.9474564-39.4895554-1.8949203-59.1937943-2.8404312
		c2.9667816-0.5022125,6.0118561-0.2982941,9.0373154-0.4591522c5.4693604-0.2908096,10.9478683-0.4086227,16.422287-0.6062775
		c6.7928314-0.2452316,13.586441-0.4729919,20.3776855-0.7568665c4.3544159-0.1820068,8.70755-0.3836975,13.0653839-0.4669724
		c0.8026428-0.0153427,1.6181641,0.0056534,2.1936035-0.2501831c-19.3871002-0.9308853-38.9306107-1.8692627-58.4741135-2.8076477
		c0.0017166-0.0463486,0.0034409-0.0926971,0.0051498-0.1390533c2.1544495-0.0946274,4.3083572-0.2043533,6.4634399-0.280983
		c5.8343811-0.2074738,11.6696091-0.3913345,17.5038452-0.6024551c6.2329788-0.2255478,12.4653473-0.4680481,18.6977234-0.7097473
		c5.2733459-0.2044907,10.5463409-0.4174728,15.8193512-0.6298447c0.4352722-0.0175323,0.8695831-0.0590668,1.3043213-0.2201614
		c-19.3729095-0.9372177-38.7458115-1.8744354-58.118721-2.8116608c0.0000534-0.0302505,0.0000992-0.0605011,0.000145-0.0907593
		c20.5246277-0.7737274,41.0492554-1.5474625,61.5738678-2.3211975c0.0028229-0.0281143,0.005661-0.0562286,0.0084839-0.0843353
		c-18.9987946-0.9144363-37.9975815-1.8288727-56.9963684-2.743309c0.8165054-0.4238663,1.6899185-0.3579559,2.5376434-0.39077
		c7.1117325-0.2752762,14.2245865-0.5218506,21.3368759-0.7831268c6.5126419-0.2392502,13.0250931-0.4839935,19.5374832-0.730278
		c3.7954865-0.1435318,7.5906982-0.2949753,11.3860321-0.4423828c0.2298737-0.0089188,0.4654083,0.0073929,0.672348-0.1527634
		c-0.0844269-0.4227524-0.4202423-0.307663-0.6548767-0.3205643c-2.7140808-0.1492386-5.4283752-0.2963257-8.1436157-0.4222107
		c-6.1904297-0.286972-12.3818207-0.5533218-18.5720825-0.8438721c-6.5888443-0.3092575-13.1767502-0.6383286-19.7652283-0.955307
		c-2.1166229-0.1018372-4.233139-0.213913-6.3510284-0.2770004c-0.7194748-0.0214386-1.404808-0.2392731-2.1183777-0.2474747
		c20.2025146-0.764389,40.4050293-1.5287781,60.6075134-2.2931671c0.0007172-0.0539398,0.0014343-0.1078796,0.0021362-0.1618195
		c-19.463623-0.9382553-38.9272537-1.876503-58.3908844-2.8147659c-0.0008621-0.0282974-0.0017242-0.0565872-0.0025787-0.0848923
		c20.1156769-0.7621841,40.2313538-1.5243759,60.3470306-2.2865677c0.0016022-0.0422821,0.0031891-0.084549,0.0048065-0.1268311
		c-0.8307037-0.0711594-1.6601105-0.1697464-2.4923248-0.2088547c-4.2329407-0.1989136-8.4669037-0.3760681-12.6999512-0.5727921
		c-7.1484985-0.3322144-14.2967529-0.6697617-21.4447556-1.0121155c-4.5918579-0.2199402-9.1830063-0.4544067-13.7746735-0.6784363
		c-1.7568283-0.085701-3.5144119-0.1559525-5.2711411-0.2435608c-0.4267426-0.0212936-0.877861,0.0344086-1.33255-0.3106079
		c4.1288071-0.1371307,8.1709747-0.2551041,12.2117615-0.4092484c6.8713226-0.2620926,13.7417603-0.5468292,20.6125793-0.8223343
		c2.3571777-0.0945053,4.715332-0.1536942,7.0727081-0.2536392c5.8325043-0.2472763,11.6686096-0.4095154,17.5032043-0.6077881
		c0.3016205-0.0102463,0.6254272,0.0463867,0.8955994-0.1915359c-0.1150513-0.2947922-0.3406067-0.2110519-0.5012817-0.2184601
		c-5.8305511-0.268692-11.6617432-0.5233612-17.4922028-0.7938766c-6.828949-0.3168411-13.6572876-0.6465836-20.4859085-0.9707108
		c-5.11129-0.2426071-10.2227936-0.4810638-15.3336639-0.7322845c-0.7535095-0.0370483-1.5040512-0.1345139-2.2529068-0.3197021
		c20.2356567-0.7679977,40.4713135-1.5359955,60.7069702-2.3039856c-0.0006104-0.0203323-0.001236-0.0406494-0.0018616-0.0609741
		c-19.6047363-0.9453125-39.2094727-1.890625-58.814209-2.8359299c-0.0009613-0.0502396-0.0019379-0.1004791-0.0029068-0.1507111
		c19.7911911-0.7464142,39.5823746-1.492836,59.373558-2.2392502c0.0028076-0.0696411,0.0056305-0.1392899,0.0084381-0.208931
		c-18.5636597-0.8967056-37.1273193-1.793396-55.8568344-2.6981125c0.3935394-0.4375381,0.7731247-0.3172836,1.0871964-0.3288956
		c4.9944839-0.1845627,9.989624-0.3515396,14.984314-0.5308533c6.9927368-0.2510452,13.9862213-0.4856644,20.9775848-0.7707977
		c6.4317932-0.2623367,12.8620453-0.5588608,19.2976685-0.7190857c0.709549-0.0176544,1.4169922-0.1203766,2.1287537-0.3225327
		c-0.1994171-0.0207901-0.3984375-0.0542984-0.5983124-0.060524c-6.7135315-0.2094345-13.4187775-0.5924301-20.125824-0.9411469
		c-4.2722321-0.2221298-8.5475006-0.3852463-12.8209839-0.5836792c-7.3881989-0.3430557-14.7762527-0.6891098-22.1637878-1.0457001
		c-0.7900925-0.0381317-1.5764008-0.1546097-2.4456711-0.2429962c20.1567001-0.763504,40.2213821-1.5235367,60.2860794-2.2835541
		c0.0009613-0.0602875,0.0019379-0.1205826,0.0029144-0.1808701c-19.0365601-0.9189377-38.0731049-1.8378754-57.1096649-2.756813
		c-0.0015335-0.0578308-0.0030823-0.1156769-0.0046234-0.1735077c20.1849365-0.7615051,40.3698883-1.5230141,60.3009796-2.2749481
		c-0.7187347-0.1424103-1.7086029-0.2540359-2.714035-0.2978172c-8.1484528-0.3547935-16.2967682-0.713665-24.4441376-1.0922623
		c-6.3492889-0.2950401-12.6970215-0.6233292-19.0457611-0.9305267c-3.3941498-0.1642456-6.7889862-0.3149223-10.1834564-0.4726563
		c-0.1919327-0.0089149-0.39505,0.0247612-0.5719681-0.1417198c0.1042175-0.3868332,0.4383011-0.2429543,0.6722794-0.2513771
		c5.0746613-0.1826439,10.1501007-0.3437119,15.2245636-0.5313034c8.4706879-0.3131332,16.9405975-0.6471519,25.4112091-0.9621391
		c4.9545135-0.1842461,9.9099884-0.343399,14.8644867-0.5282631c0.661911-0.0247002,1.3206482-0.1343727,1.9656525-0.3134651
		c-19.1494293-0.9238129-38.2988739-1.8476295-57.4483109-2.7714462c0.0014191-0.0440483,0.0028458-0.0880966,0.0042648-0.1321449
		c20.400238-0.7729225,40.8004913-1.5458488,61.2007446-2.3187714c-0.0000458-0.0193901-0.0000916-0.0387802-0.0001221-0.0581741
		c-19.5255585-0.9437523-39.0511169-1.8875084-58.5766754-2.8312645c-0.0016251-0.0561714-0.0032349-0.1123428-0.0048599-0.1685143
		c20.2065201-0.7612953,40.4130325-1.5225945,60.5684891-2.2819633c-0.2492981-0.2696075-0.6623688-0.2031517-1.0458832-0.2196388
		c-5.0330811-0.2163734-10.0669861-0.4146957-15.0994873-0.6436768c-7.0290375-0.3198357-14.0579987-0.6434097-21.0852814-0.999321
		c-6.5876617-0.3336487-13.1733246-0.7051964-19.765892-0.9357567c-0.6666336-0.0233154-1.3520355,0.0238266-2.047966-0.2875862
		c-0.0922699,0.0009613,0.1193542-0.2412949,0.0725555-0.0886002c-0.0083618,0.0273018,0.0340424,0.1014366,0.051239,0.1008606
		c4.1155853-0.1377029,8.2315674-0.2661705,12.346344-0.4255791c6.7911682-0.2630997,13.5816803-0.5436516,20.3722534-0.8224792
		c2.2371368-0.0918579,4.4754639-0.1416626,6.7129364-0.2365608c5.9924774-0.2541618,11.9888611-0.4166451,17.9832458-0.6280975
		c0.7485046-0.0264053,1.494339-0.1283951,2.2306976-0.3417854c-18.9036255-0.9122391-37.8072662-1.8244743-56.7108917-2.7367096
		c0.0004272-0.0500641,0.000885-0.100132,0.0013275-0.1501999c1.717926-0.0799103,3.4353485-0.1736259,5.1538849-0.237175
		c5.3143158-0.1965103,10.6293488-0.3730087,15.9435272-0.5730095c7.9506989-0.2992363,15.9008942-0.6113663,23.8512726-0.9192238
		c1.5579224-0.0603256,3.116333-0.11306,4.6730652-0.1963768c0.5671387-0.0303497,1.1204834,0.0068665,1.6607819,0.1593781
		c4.262207,1.2031097,8.5843658,2.1931229,12.7918549,3.5903893c0.2462006,0.0817604,0.4845276,0.1872292,0.726532,0.2816582
		c-0.0366058,0.1137123-0.0646667,0.2310219-0.1109924,0.3406181c-5.8256683,13.7825737-11.657135,27.562706-17.4785919,41.3470688
		c-8.5228424,20.1808395-17.0376892,40.3650513-25.5575256,60.5471497
		c-7.0145416,16.6162415-14.0302429,33.2320099-21.0475006,49.8471069
		c-5.790741,13.7110596-11.5857391,27.4203186-17.3765717,41.1313171
		c-5.2630844,12.461441-10.5257492,24.9230347-15.783165,37.3868713c-2.0311356,4.8152771-4.0472794,9.6368408-6.0702515,14.4555359
		c-3.0741043,0.0612793-6.1454239-0.0873718-9.2181168-0.1193848c-5.9479523-0.0618896-11.896759-0.1057434-17.8392563-0.3711243
		C59.6277771,284.9676514,56.0395737,284.7918701,52.481636,284.2699585z"></path>
</g>
<g onclick="select(this)" class="" id="estampa-secundaria" fill="#082890">
	<path d="M90.2698746,285.6182251c2.0229721-4.8186951,4.0391159-9.6402588,6.0702515-14.4555359
		c5.2574158-12.4638367,10.5200806-24.9254303,15.783165-37.3868713
		c5.7908325-13.7109985,11.5858307-27.4202576,17.3765717-41.1313171
		c7.0172577-16.615097,14.032959-33.2308655,21.0475006-49.8471069
		c8.5198364-20.1820984,17.0346832-40.3663101,25.5575256-60.5471497
		c5.8214569-13.7843628,11.6529236-27.5644951,17.4785919-41.3470688c0.0463257-0.1095963,0.0743866-0.2269058,0.1109924-0.3406219
		c1.1014709,0.3202057,2.2344971,0.5596771,3.2528534,1.2607422c-0.4025421,1.5881081-1.1578064,3.037056-1.7858582,4.5280571
		c-5.947403,14.1191711-11.9208527,28.2273674-17.8805084,42.3413658
		c-5.7111206,13.5253143-11.4120789,27.0549011-17.1224976,40.5805054
		c-5.6795349,13.4524841-11.3677368,26.9013062-17.0476837,40.3536072
		c-6.2385406,14.7752686-12.4695587,29.5536804-18.7083893,44.3288116
		c-5.7268753,13.5626831-11.4632187,27.1213531-17.1888123,40.6845551
		c-4.3599319,10.3280945-8.7096024,20.660553-13.0638504,30.9910583
		C92.8560944,285.7318726,91.5629883,285.6759338,90.2698746,285.6182251z"></path>
</g>
<g onclick="select(this)" class="" id="detalhe-lateral" fill="#082890">
	<path d="M180.3169098,283.9697266c-0.3938751-5.0127869-0.5727386-10.0362244-0.8100586-15.0577393
		c-0.282486-5.9776611-0.5378265-11.9543762-0.7411346-17.9355164c-0.1653748-4.8657379-0.3150482-9.7320404-0.4851532-14.597168
		c-0.2554474-7.3048248-0.3230438-14.611908-0.5149689-21.9160767c-0.4473877-17.026535-0.1677856-34.0520782-0.1540527-51.0777435
		c0.0038757-4.8250732,0.1699829-9.658493,0.4935303-14.4725189c0.3222656-4.7945404,0.6694794-9.5894623,1.1401062-14.3773499
		c0.9476013-9.6400223,2.522995-19.1615753,4.9313965-28.5371094c1.2419739-4.834877,2.7194824-9.608345,4.7613068-14.1821518
		c0.1013336-0.2270203,0.0921478-0.5706024,0.4303741-0.6598129l-0.0207214-0.0194473
		c0.2196045,0.4597931-0.0706329,0.8524323-0.1864014,1.2576218c-1.8860931,6.6003571-3.1680298,13.3224106-4.0814209,20.1194611
		c-0.4264069,2.5465698-0.4257202,5.1188202-0.4629211,7.688797c-1.2378235,10.3072052-2.2989655,20.6278992-1.9510498,31.0315857
		c0.0821381,2.4562225,0.7914734,4.8716583,0.4144745,7.3699951c-0.3516235,2.3302765-0.4445953,4.684967-0.4245453,7.0450745
		c0.0559845,6.582428,0.098587,13.1757202-0.1155396,19.7438812c-0.1456757,4.4695435,0.7072906,8.6924438,1.4236298,12.9963837
		c0.8506927,5.1109314,0.9480896,10.2349701,0.2398224,15.3761444c-0.3209076,2.3293762-0.54039,4.6726532-0.8144379,7.008606
		c-0.0490723,0.4181976,0.1008759,0.7893066,0.2301788,1.1618195c1.989563,5.7316895,2.4832916,11.6064911,1.5848999,17.5875092
		c-0.3058167,2.0359802-0.3425293,4.0207977,0.0992279,6.0381927c0.4457397,2.035675,0.5504761,4.1139832,0.5100098,6.1976929
		c-0.1430817,7.3665771,0.683609,14.670929,1.384079,21.9852905c0.2195892,2.2928162,0.3340759,4.5978088,0.3145142,6.9078064
		c-0.0094452,1.1127625-0.4973297,1.8139954-1.5031281,2.1914368
		C184.1745911,283.5326233,182.2864838,283.9595947,180.3169098,283.9697266z"></path>
	<path d="M42.4525146,112.7778625c0.0891304-1.9299164-0.3513565-3.8075333-0.5991211-5.7007065
		c-0.3732796-2.8522339-0.8833809-5.6866074-1.2544365-8.5390854c-0.0882454-0.6783676-0.8202057-1.239563-0.2923431-2.1296234
		c0.9014931,1.8765564,1.3568306,3.8127823,1.9383469,5.6982117c1.892025,6.1343842,3.1134682,12.4154968,4.1846809,18.7393494
		c0.7700386,4.5458832,1.3809853,9.100647,1.8283081,13.6878357c0.4091072,4.1953125,0.7145462,8.3927002,0.9685097,12.6003418
		c1.2914009,21.395874,0.6496124,42.8105927,0.6577225,64.2175446c0.0015144,3.9883881-0.0966606,7.98703-0.1893997,11.9799347
		c-0.1455345,6.2663422-0.2806168,12.5340118-0.535202,18.7964172c-0.1799202,4.4257202-0.3308334,8.8512878-0.473175,13.2781372
		c-0.1807213,5.6206055-0.3782196,11.2443237-0.7604179,16.8535767c-0.2574959,3.7790527-0.196804,7.579834-0.7390556,11.3394775
		c-1.7242279-0.0837708-3.3719635-0.5368042-4.9835625-1.1030884c-1.6184654-0.5686951-2.0121346-1.1141663-1.9840698-2.8423157
		c0.0452156-2.7842407,0.1874161-5.5641479,0.4140472-8.3428955c0.431675-5.2928772,0.7171974-10.5978699,1.1692505-15.8888245
		c0.4074936-4.7694855-0.0650482-9.592804,0.9218788-14.3255157c0.1883888-0.9033813,0.0964546-1.8375397-0.042675-2.744751
		c-0.4781952-3.1182098-0.3503647-6.2133179,0.3311234-9.2835846c0.1949081-0.8781128,0.1388702-1.7289124,0.0771484-2.6109161
		c-0.2841988-4.0611115-0.8382988-8.1011047-0.8580627-12.1838684c-0.0239258-4.942688,1.0864563-9.6556549,2.7438126-14.2636871
		c0.3171997-0.881958,0.5332336-1.7270813,0.4237556-2.675354c-0.1839256-1.5931854-0.141243-3.1873627,0.1506195-4.7743683
		c0.1077003-0.5856476,0.1623573-1.1927948,0.1462173-1.7875824c-0.1308823-4.8229065-0.2779045-9.645401-0.4356956-14.4675293
		c-0.0367355-1.1227112,0.0765038-2.2321014,0.1623611-3.3472748c0.144268-1.8738251,0.1034241-3.7475739-0.048111-5.6235199
		c-0.4092598-5.0663605-0.1779556-10.145752-0.0681305-15.2097778c0.196312-9.0511017-0.2082138-18.0476379-1.5041733-27.0064316
		c-0.2226868-1.5393982-0.3748512-3.0890045-0.5595245-4.6338654c0.5152626-1.2158585-0.2161751-2.3334808-0.3642349-3.4790726
		C42.6969795,115.5973511,42.9329262,114.1476212,42.4525146,112.7778625z"></path>
</g>
</svg>
