<!--?xml version="1.0" encoding="utf-8"?-->
<!-- Generator: Adobe Illustrator 24.2.3, SVG Export Plug-In . SVG Version: 6.00 Build 0)  -->
<svg version="1.1" id="Camada_1" xmlns="http://www.w3.org/2000/svg" xmlns:xlink="http://www.w3.org/1999/xlink" x="0px" y="0px" viewBox="0 0 229 418" style="enable-background:new 0 0 229 418;" xml:space="preserve">
<style type="text/css">
	.st0{fill:#FD0202;}
	.st1{fill:#6ABCB1;}
</style>
<g onclick="select(this)" class="" id="estampa-primaria" fill="#011023">
	<path d="M43.2,120.4c-0.2-1.9-0.3-3.8-0.5-5.7c-0.2-1.5-0.4-1.6-1.9-1.3c-1.1,0.2-2.1,0.4-3.2,0.6c-3.7,0.7-7.5,0.4-11.2,0.4
		c-6.5,0-12.9-0.6-19.2-2.1c-2-0.5-4-1.1-6-1.7c1-4.8,1.7-9.7,2.3-14.5c0.9-6.3,1.9-12.6,2.6-18.9c0.8-6.7,1.9-13.3,4-19.7
		c2.9-8.9,7.8-16.5,15.2-22.4c1.1-0.9,2-2.2,3.3-2.9c3.6-1.9,7.3-3.7,11-5.3c10-4.1,20-8.2,29.5-13.4c2-1.1,4-2.1,5.5-3.9
		c0.8-1,2.1-1.6,3.5-1.6c-1.7,0.9-2,2.4-1.7,4.1c0.4,2.1,1.1,4.2,2.3,6c5.9,8.6,14.3,13.9,24.1,17.1c2,0.7,4.2,1.1,6.6,1
		c-0.8-1.3-1.7-2.3-2.7-3.3c-4.4-4.6-9.3-8.5-14.3-12.4c-2.5-2-4.7-4.2-6.7-6.7c-1-1.2-1.7-2.5-2.3-3.9c-0.3-0.7-0.2-1,0.6-0.9
		c3.5,0.4,7.1,0.7,10.6,1c7.9,0.6,15.8,1.4,23.8,1c6.3-0.4,12.5-0.7,18.8-1.2c2.3-0.2,4.5-0.3,7-0.5c-0.4,0.8-0.6,1.4-1,2
		c-1.2,2.3-2.9,4.2-4.7,6.1c-2.9,3-6.4,5.2-9.5,7.8c-3.5,3-7.1,5.9-10,9.5c-0.4,0.5-0.9,1-1,1.8c1-0.1,2,0,2.9-0.2
		c5.1-0.9,9.7-3.1,14.1-5.6c3.3-1.9,6.4-4.2,9.1-6.8c3.1-3,5.5-6.4,6.6-10.6c0.6-2.2,0-4.3-1.7-4.7c1.9-0.3,3.1,0.9,4.2,2.2
		c0.3,0.4,0.7,0.7,1.1,1c8.9,5.9,18.8,9.6,28.5,13.7c5.1,2.1,10,4.4,15.1,6.6c0.3,0.1,0.6,0.3,0.8,0.5c12,8.5,19.2,20.2,21.4,34.6
		c1.7,11.3,4.7,22.4,6.2,33.7c0.4,2.7,0.8,5.3,1.2,7.9c-0.4,0-0.8,0.1-1.2,0.2c-5.3,2.4-10.8,3.4-16.5,4.2c-4.9,0.7-9.8,1.4-14.8,1
		c-3-0.2-6.1,0-9.1-0.7c-0.4-0.1-1-0.3-1.1,0.5c-0.1,2.1-1,4.2-0.7,6.4c-0.4,0.8-0.3,1.7-0.4,2.6c-1,8.4-1.7,16.8-1.7,25.2
		c0,2.2,0.1,4.4,0.5,6.6c0.4,1.9,0,3.8-0.2,5.7c-0.2,2.1-0.2,4.2-0.1,6.3c0.1,2.2-0.1,4.3-0.2,6.5c-0.1,2.8-0.1,5.7,0.1,8.5
		c0.1,1.7,0.1,3.4-0.1,5c-0.3,3,0.2,5.9,0.8,8.8c1.7,7.3,1.5,14.8,0.4,22.2c-0.3,2.1-0.4,4.2,0.3,6.4c1.8,5.5,1.8,11.1,0.9,16.7
		c-0.2,1.4-0.2,2.7,0.1,4c0.9,3.8,0.5,7.7,0.7,11.6c0.3,6,0.7,12,1.4,17.9c0.3,2,0.2,4.1,0.3,6.1c0,1.8-0.3,2.3-2.1,2.8
		c-3,0.9-6,1.1-9.1,1.5c-7.7,0.8-15.5,0.9-23.2,1c-11.2,0.2-22.5,0.7-33.7,0.8c-12.5,0.2-24.9-0.8-37.4-0.8
		c-8.4,0-16.8-0.1-25.2-0.7c-4.1-0.3-8.3-0.8-12.4-1.7c-0.3-0.1-0.5-0.1-0.8-0.2c-3-0.8-3.3-1.2-3.2-4.2c0.5-7.8,1-15.7,1.6-23.5
		c0.1-2,0.3-4.1,0.2-6.1c0-1.8,0-3.6,0.4-5.4c0.4-2.2,0.5-4.4,0.1-6.7c-0.4-2.5-0.1-5,0.4-7.5c0.2-1.1,0.2-2.1,0.1-3.2
		c-0.3-4.5-1-8.9-0.8-13.4c0.2-4.4,1.2-8.6,2.7-12.7c0.4-1,0.6-2,0.4-3c-0.2-1.2-0.2-2.5,0.1-3.7c0.3-1.7,0.2-3.3,0.1-5
		c-0.2-3.3-0.2-6.6-0.2-9.9c-0.1-12.9,0-25.8-0.1-38.7c0-5.2-1-10.3-1.5-15.5C43.6,122.9,43.7,121.6,43.2,120.4z"></path>
</g>
<g onclick="select(this)" class="" id="gola-primaria" fill="#011023">
	<path d="M149.2,8.3c1.7,0.5,2.3,2.5,1.7,4.7c-1.2,4.2-3.5,7.7-6.6,10.6c-2.7,2.6-5.8,4.9-9.1,6.8
		c-4.4,2.6-9,4.7-14.1,5.6c-1,0.2-1.9,0.1-2.9,0.2c0.1-0.8,0.6-1.3,1-1.8c2.9-3.6,6.4-6.5,10-9.5c3.2-2.6,6.6-4.9,9.5-7.8
		c1.8-1.8,3.4-3.8,4.7-6.1c0.3-0.6,0.6-1.3,1-2c-2.4,0.2-4.7,0.3-7,0.5c-6.3,0.5-12.5,0.9-18.8,1.2c-8,0.5-15.9-0.4-23.8-1
		c-3.5-0.3-7.1-0.6-10.6-1c-0.9-0.1-0.9,0.2-0.6,0.9c0.6,1.4,1.3,2.7,2.3,3.9c2,2.5,4.2,4.7,6.7,6.7c5,3.9,9.9,7.8,14.3,12.4
		c1,1,1.8,2,2.7,3.3c-2.4,0.2-4.5-0.3-6.6-1C93,31.9,84.7,26.7,78.7,18c-1.2-1.8-1.9-3.8-2.3-6c-0.3-1.7,0-3.2,1.7-4.1
		c0.5,0,0.9-0.3,1.3-0.6c0.9-0.9,2-1.7,2.7-2.7c2-2.9,5-3.6,8.2-3.9c3.1-0.3,6.1,0.1,9.2,0c4.4-0.1,8.8,0,13.2-0.1
		c7.9-0.2,15.8,0,23.7,0c0.9,0,1.8,0.2,2.7,0.3c2.2,0.3,4.2,1.2,5.6,3.1C145.9,5.8,147.4,7.3,149.2,8.3z"></path>
</g>
<g onclick="select(this)" class="" id="detalhe-punho" fill="#80b3a3">
	<path d="M0.3,114.4c0.6-1.2,0.4-2.7,0.9-3.9c2,0.6,4,1.2,6,1.7c6.3,1.6,12.7,2.1,19.2,2.1c3.7,0,7.5,0.3,11.2-0.4
		c1.1-0.2,2.1-0.4,3.2-0.6c1.5-0.3,1.7-0.2,1.9,1.3c0.2,1.9,0.3,3.8,0.5,5.7c-0.9,0.7-2,1-3.1,1.2c-2.5,0.5-5,0.8-7.6,0.8
		c-7,0.1-14,0-20.9-1.2c-3-0.6-6-1.1-8.9-2.1c-0.8-0.3-1.6-0.6-2.4-1C0.3,116.8,0.3,115.6,0.3,114.4z"></path>
	<path d="M184.6,120.1c-0.3-2.2,0.6-4.2,0.7-6.4c0-0.8,0.7-0.6,1.1-0.5c3,0.7,6,0.5,9.1,0.7c5,0.3,9.9-0.3,14.8-1
		c5.7-0.8,11.3-1.9,16.5-4.2c0.4-0.2,0.8-0.3,1.2-0.2c1.1,2.3,1.2,4.8,1.1,7.4c0,0.7-0.8,0.8-1.3,1c-2.9,1.1-5.8,1.9-8.8,2.6
		c-8.7,2.3-17.6,2.8-26.6,2.3c-2.1-0.1-4.1-0.3-6.1-0.9C185.5,120.7,185,120.6,184.6,120.1z"></path>
</g>
<g onclick="select(this)" class="" id="estampa-secundaria" fill="#80b3a3">
	<path d="M185.6,248.6c0.4,2.1,0.3,4.2,0.1,6.2c-0.4-0.1-0.8,0.1-1.1,0.3c-6.5,2.8-13.1,5.6-19.6,8.4
		c-17.1,7.3-34.1,14.6-51.2,22c-0.5,0.2-0.9,0.3-1.5,0c-4.4-1.9-8.9-3.8-13.3-5.7c-17.8-7.6-35.6-15.3-53.4-22.9
		c-1.2-0.5-2.3-1.3-3.7-1.3c0.1-2,0.2-4.1,0.3-6.1c0.5,0.1,0.9,0.3,1.3,0.5c9.9,4.3,19.9,8.5,29.8,12.8
		c12.6,5.4,25.2,10.8,37.8,16.2c1.3,0.5,2.4,0.8,3.6,0c0.8-0.5,1.8-0.8,2.6-1.1c11.7-5,23.5-10.1,35.2-15.1
		C163.6,258.1,174.6,253.4,185.6,248.6z"></path>
	<path d="M45.6,185.3c0-2.2-0.5-4.3-0.2-6.5c2.2,0.9,4.3,1.9,6.5,2.8c20,8.6,40.1,17.2,60.1,25.8c0.6,0.3,1.2,0.3,1.8,0
		c7-3,13.9-6,20.9-9c13.3-5.7,26.6-11.4,39.9-17.1c2.6-1.1,5.1-2.4,7.7-3.2c0.4,2.1,0.3,4.2,0.3,6.2c-0.4,0-0.8,0.2-1.1,0.4
		c-6.4,2.7-12.8,5.5-19.1,8.2c-16.1,6.9-32.2,13.8-48.3,20.7c-0.7,0.3-1.3,0.3-2.1,0c-5.7-2.5-11.4-4.9-17.2-7.4
		c-13.8-5.9-27.6-11.8-41.4-17.7C50.9,187.4,48.3,186.1,45.6,185.3z"></path>
	<path d="M182.6,170.4c0,2.1,0.1,4.2-0.2,6.2c-0.3,0.1-0.7,0.2-1,0.3c-8.7,3.7-17.3,7.4-26,11.1
		c-13.8,5.9-27.7,11.9-41.5,17.8c-0.7,0.3-1.2,0.3-1.8,0c-5.7-2.5-11.4-4.9-17.1-7.3c-13.2-5.7-26.4-11.3-39.7-17
		c-3.3-1.4-6.5-3-9.9-4.2c-0.6-2-0.1-4,0.2-6c0.3,0.1,0.5,0.2,0.8,0.3c9.3,4,18.5,7.9,27.7,11.9c12.7,5.4,25.3,10.8,38,16.3
		c0.6,0.3,1.1,0.3,1.7,0c8-3.4,15.9-6.8,23.9-10.2c10.4-4.4,20.7-8.9,31.1-13.3C173.4,174.3,178,172.3,182.6,170.4z"></path>
	<path d="M42.1,247.2c-0.1-1.8,0.2-3.6,0.6-5.3c2.6,1.1,5.1,2.2,7.7,3.3c11.5,4.9,23,9.9,34.6,14.8
		c9,3.9,18,7.7,27,11.6c0.7,0.3,1.3,0.3,2,0c7-3,14.1-6,21.1-9.1c10.6-4.5,21.1-9.1,31.7-13.6c6-2.6,12-5.2,18-7.8
		c-0.4,1.9,0.6,3.6,0.4,5.5c-0.5,0.2-1.1,0.3-1.6,0.6c-9.3,4-18.6,8-28,12c-13.9,6-27.9,12-41.8,18c-0.6,0.3-1.2,0.3-1.8,0
		c-7.6-3.3-15.1-6.5-22.7-9.8c-13.2-5.6-26.3-11.3-39.5-16.9C47.4,249.4,44.8,248.1,42.1,247.2z"></path>
	<path d="M45.6,169.1c-0.3-1.9-0.5-3.8-0.3-5.7c10.5,4.5,21.1,9,31.6,13.5c11.8,5,23.5,10.1,35.2,15.1
		c0.7,0.3,1.1,0.3,1.8,0c8.8-3.8,17.5-7.6,26.3-11.3c11.5-4.9,23-9.9,34.5-14.8c2.6-1.1,5.2-2.4,7.9-3.3c0,1.8,0.2,3.6,0.1,5.3
		c-10.2,4.4-20.4,8.8-30.6,13.1c-12.6,5.4-25.3,10.8-37.9,16.2c-0.9,0.4-1.6,0.3-2.5,0c-8.2-3.5-16.4-7.1-24.5-10.6
		c-11.6-5-23.2-10-34.8-14.9C50.1,170.9,48,169.8,45.6,169.1z"></path>
	<path d="M42.5,234.9c5.5,2.3,10.9,4.7,16.4,7c11.4,4.9,22.8,9.8,34.1,14.6c6.4,2.7,12.8,5.5,19.2,8.2
		c0.6,0.3,1.1,0.3,1.7,0c17.3-7.4,34.6-14.8,51.9-22.2c6.6-2.8,13.2-5.7,19.8-8.5c0.1,1.6,0.1,3.2-0.3,4.8c-0.4,0.1-0.8,0.3-1.1,0.4
		c-7.8,3.3-15.5,6.7-23.3,10c-15.6,6.7-31.1,13.3-46.7,20c-0.8,0.3-1.4,0.3-2.2,0c-7.6-3.3-15.3-6.5-22.9-9.8
		c-12.6-5.4-25.2-10.8-37.7-16.2c-2.8-1.2-5.5-2.5-8.4-3.5C42.5,238.2,42.3,236.6,42.5,234.9z"></path>
	<path d="M45.4,156.7c3,1.3,6,2.5,9.1,3.8c10.3,4.4,20.7,8.9,31,13.3c8.7,3.7,17.4,7.4,26.1,11.2
		c0.9,0.4,1.6,0.5,2.6,0.1c12.6-5.4,25.2-10.8,37.8-16.2c10.3-4.4,20.6-8.9,30.9-13.3c0.1,0,0.2,0,0.2-0.1c0.2,1.6,0,3.2-0.3,4.8
		c-0.5,0-0.9,0.2-1.4,0.4c-5.9,2.6-11.9,5.1-17.8,7.7c-16.5,7.1-33,14.1-49.4,21.2c-0.9,0.4-1.6,0.4-2.4,0
		c-8.3-3.6-16.6-7.2-25-10.7c-10.3-4.4-20.7-8.9-31-13.3c-3.5-1.5-6.9-2.9-10.4-4.4C44.9,159.6,45.2,158.2,45.4,156.7z"></path>
	<path d="M182.4,189.9c-4.2,1.8-8.5,3.6-12.7,5.4c-11.5,4.9-23.1,9.9-34.6,14.8c-7.1,3-14.2,6.1-21.2,9.1
		c-0.6,0.3-1.2,0.3-1.8,0c-9.9-4.3-19.7-8.5-29.6-12.7c-11.5-4.9-23-9.8-34.5-14.8c-0.7-0.3-1.5-0.6-2.2-0.9
		c-0.3-1.2-0.5-2.4-0.3-3.6c1,0,1.7,0.6,2.6,1c10.2,4.4,20.4,8.7,30.6,13.1c11.1,4.8,22.2,9.5,33.2,14.3c0.8,0.3,1.4,0.3,2.1,0
		c7-3.1,14.1-6.1,21.1-9.1c11.5-4.9,23-9.9,34.5-14.8c4.3-1.8,8.6-3.6,12.9-5.5C182.5,187.4,182.5,188.6,182.4,189.9z"></path>
	<path d="M43.3,227.4c2.9,0.9,5.5,2.2,8.3,3.4c18,7.7,36,15.4,54,23.1c2.1,0.9,4.3,1.8,6.4,2.8c0.8,0.4,1.5,0.3,2.3,0
		c6.3-2.7,12.7-5.5,19-8.2c12.1-5.2,24.1-10.4,36.2-15.5c4.8-2,9.5-4.1,14.3-6.1c0.3-0.1,0.6-0.4,1-0.3c0.4,1,0.6,2,0.5,3.1
		c-1.9,0.4-3.6,1.4-5.4,2.2c-12.1,5.1-24.2,10.3-36.2,15.5c-9.9,4.3-19.8,8.5-29.7,12.8c-0.6,0.3-1.1,0.3-1.7,0
		c-12.7-5.5-25.5-10.9-38.2-16.4c-10-4.3-20-8.6-30-12.9c-0.4-0.2-0.7-0.4-1.2-0.2C42.8,229.6,43.2,228.5,43.3,227.4z"></path>
	<path d="M45.4,148.7c2.2,0.6,4.3,1.7,6.4,2.6c14.8,6.3,29.7,12.7,44.5,19.1c5.3,2.3,10.5,4.5,15.7,6.8
		c0.7,0.3,1.2,0.3,1.9,0c14.9-6.4,29.7-12.7,44.6-19.1c7.6-3.2,15.1-6.5,22.7-9.7c0.4-0.2,0.9-0.3,1.3-0.5c0.2,1.1,0.1,2.2,0.1,3.4
		c-1.8,0.4-3.4,1.3-5.1,2c-10.4,4.4-20.8,8.9-31.3,13.4c-10.5,4.5-21,9-31.4,13.5c-1.2,0.5-2.1,0.6-3.4,0.1
		c-20.1-8.7-40.3-17.3-60.4-25.9c-1.9-0.8-3.8-1.6-5.6-2.4C45,150.9,45.4,149.8,45.4,148.7z"></path>
	<path d="M130.8,286.1c-0.1,0.1-0.3,0.2-0.4,0.2c-5.1,0-10.3,0.5-15.4,0.2c8.1-3.5,16.1-7,24.2-10.4
		c12.7-5.5,25.4-10.9,38.2-16.4c2.8-1.2,5.5-2.5,8.4-3.5c0.2,2.1,0.5,4.1,0.4,6.2c-0.4,0.1-0.9,0.3-1.4,0.5c-4.7,2-9.4,4-14.1,6
		c-10.4,4.5-20.8,8.9-31.2,13.4C136.5,283.5,133.6,284.6,130.8,286.1z"></path>
	<path d="M183.6,222.5c-2.7,0.9-5.2,2.1-7.8,3.2c-11,4.7-21.9,9.4-32.9,14.1c-9.3,4-18.7,8-27.9,12
		c-1.4,0.6-2.6,0.6-3.9,0c-10.8-4.7-21.5-9.3-32.3-13.9c-11.4-4.9-22.9-9.8-34.3-14.7c-0.5-0.2-0.9-0.5-1.5-0.4
		c-0.2-1.1-0.5-2.1-0.3-3.2c13,5.6,26,11.1,39,16.7c10.1,4.3,20.3,8.7,30.4,13c0.8,0.4,1.5,0.3,2.3,0c13.8-5.9,27.7-11.9,41.5-17.8
		c9.3-4,18.6-8,27.9-11.9C183.4,220.5,183.4,221.5,183.6,222.5z"></path>
	<path d="M182.6,143.3c-3.2,1.1-6.3,2.6-9.4,3.9c-12.9,5.5-25.8,11-38.6,16.6c-6.9,3-13.8,5.9-20.7,8.9
		c-0.7,0.3-1.3,0.3-1.9,0c-17.8-7.6-35.6-15.3-53.4-22.9c-4-1.7-7.9-3.4-11.9-5.1c-0.4-0.2-0.9-0.4-1.4-0.4c-0.1-1-0.2-1.9,0-2.9
		c2.4,0.7,4.7,1.9,7,2.9c17.1,7.3,34.1,14.6,51.2,21.9c2.9,1.2,5.8,2.5,8.7,3.8c0.5,0.2,0.9,0.2,1.5,0c17.1-7.3,34.1-14.6,51.2-21.9
		c5.5-2.3,10.9-4.7,16.4-7.1c0.4-0.2,0.9-0.3,1.4-0.5C182.9,141.4,182.6,142.3,182.6,143.3z"></path>
	<path d="M111.1,286.5c-2.2,0.2-4.5-0.1-6.7-0.2c-2.7-0.1-5.3-0.1-8-0.2c-0.6,0-1.3-0.1-1.9-0.2
		c-0.3-0.1-0.6-0.3-0.8-0.4c-15.5-6.6-31-13.3-46.5-19.9c-1.9-0.8-3.8-1.8-5.9-2.4c-0.1-2.1,0-4.2,0.5-6.3
		C52.9,261.5,64,266.3,75,271C87.1,276.2,99.1,281.3,111.1,286.5z"></path>
	<path d="M184.1,213.9c-11.4,4.9-22.8,9.8-34.2,14.7c-11.7,5-23.4,10-35.1,15.1c-1.2,0.5-2.1,0.6-3.4,0
		c-12.3-5.3-24.6-10.6-36.9-15.9c-10.6-4.5-21.1-9.1-31.7-13.6c-0.1-0.1-0.3-0.1-0.5-0.1c-0.1-0.7-0.1-1.4,0-2.2
		c1.5,0.2,2.8,1,4.2,1.6c19,8.1,37.9,16.2,56.8,24.4c2.8,1.2,5.6,2.4,8.4,3.6c0.9,0.4,1.6,0.4,2.5,0c13.1-5.7,26.3-11.3,39.4-16.9
		c10-4.3,20-8.6,29.9-12.9c0.3-0.1,0.5-0.2,0.8-0.3C184.4,212.3,184.5,213.1,184.1,213.9z"></path>
	<path d="M183,134.8c-2.3,0.6-4.4,1.8-6.6,2.7c-15,6.4-29.9,12.8-44.9,19.2c-5.8,2.5-11.7,5-17.5,7.5
		c-0.6,0.3-1.1,0.4-1.8,0.1c-13.3-5.8-26.7-11.5-40-17.2c-8.6-3.7-17.2-7.4-25.8-11c-0.4-0.2-0.8-0.4-1.3-0.3
		c-0.3-0.9-0.5-1.7-0.3-2.6c7.8,3.3,15.6,6.6,23.3,10c10.3,4.4,20.7,8.9,31.1,13.3c4.2,1.8,8.4,3.6,12.5,5.4
		c0.8,0.4,1.5,0.4,2.3,0.1c10.3-4.4,20.6-8.9,30.9-13.3c10.4-4.4,20.7-8.9,31.1-13.3c2.4-1,4.8-2.1,7.2-3.2
		C183.4,133.1,183.1,134,183,134.8z"></path>
	<path d="M184.5,205.4c-2.1,0.6-3.9,1.6-5.9,2.4c-17.9,7.6-35.7,15.3-53.6,23c-3.7,1.6-7.3,3.1-11,4.7
		c-0.7,0.3-1.4,0.4-2.1,0c-12.9-5.6-25.7-11.1-38.6-16.6c-9.8-4.2-19.6-8.4-29.4-12.6c-0.2-0.1-0.5-0.1-0.7-0.2
		c-0.1-0.5,0.1-1,0.4-1.5c2.1,0.5,4,1.6,6,2.4c16.7,7.1,33.5,14.3,50.2,21.5c4,1.7,8.1,3.4,12.1,5.2c0.8,0.4,1.4,0.4,2.3,0
		c9.1-3.9,18.1-7.8,27.2-11.7c14.1-6,28.2-12.1,42.3-18.1c0.3-0.1,0.6-0.2,0.9-0.3C184.7,204.3,184.6,204.9,184.5,205.4z"></path>
	<path d="M183.9,126c-8.4,3.6-16.7,7.2-25.1,10.7c-14.8,6.3-29.6,12.7-44.3,19c-1,0.4-1.8,0.4-2.8,0
		c-13.1-5.7-26.3-11.3-39.4-16.9c-8.8-3.8-17.7-7.6-26.5-11.4c-0.5-0.2-1-0.4-1.6-0.5c-0.3-0.6-0.4-1.2-0.2-1.9
		c10.5,4.5,20.9,9,31.4,13.4c11.6,5,23.3,9.9,34.9,15c1.9,0.8,3.5,1,5.5,0.1c18.4-8,36.8-15.9,55.2-23.8c4.1-1.8,8.2-3.5,12.3-5.3
		c0.3-0.1,0.6-0.2,0.9-0.3C184.1,124.9,184.3,125.5,183.9,126z"></path>
	<path d="M186.5,267.8c-2.5,0.7-4.9,2-7.3,3c-11.1,4.7-22.1,9.5-33.1,14.2c-0.6,0.2-1.1,0.5-1.6,0.8
		c-3.1,0.2-6.1,0.4-9.1,0.3c0.3-0.2,0.6-0.3,1-0.5c12.1-5.2,24.1-10.4,36.2-15.5c4.6-2,9.2-3.9,13.8-5.8
		C186.6,265.4,186.5,266.6,186.5,267.8z"></path>
	<path d="M81.1,285.6c-3.5-1.5-6.9-3-10.4-4.5c-9.4-4-18.8-8-28.1-12.1c-0.5-0.2-1-0.5-1.6-0.5
		c-0.3-1.2,0.1-2.4,0.2-3.5c0.4-0.1,0.8,0.2,1.1,0.3c7.3,3.1,14.7,6.3,22,9.4c8.6,3.7,17.3,7.4,25.9,11.1
		C87.2,285.8,84.2,286,81.1,285.6z"></path>
	<path d="M183.8,197.7c-1.4,0-2.5,0.8-3.7,1.3c-22.1,9.5-44.2,18.9-66.3,28.4c-0.6,0.2-1,0.3-1.6,0
		c-12.8-5.5-25.5-11-38.3-16.4c-9.1-3.9-18.3-7.8-27.4-11.8c-0.3-0.1-0.7-0.2-1-0.3c-0.1-0.4-0.1-0.7,0-1.1c6.7,2.9,13.4,5.7,20,8.5
		c11,4.7,21.9,9.4,32.9,14.1c4.6,2,9.2,3.9,13.8,5.9c0.6,0.3,1.1,0.2,1.7-0.1c14.7-6.3,29.4-12.6,44.1-18.9c8.5-3.6,17-7.3,25.5-11
		C183.7,196.9,183.9,197.3,183.8,197.7z"></path>
	<path d="M187.2,276c-5.5,2.4-11.1,4.7-16.6,7.1c-1.7,0.7-3.4,1.3-5,2.3c-1,0.3-1.9,0.3-2.9,0.2
		c8.2-3.5,16.4-7,24.5-10.5C187.2,275.4,187.2,275.7,187.2,276z"></path>
	<path d="M59.8,285.1c-2.8-1.5-5.9-2.6-8.8-3.9c-3.5-1.5-7-3-10.5-4.5c-0.1-0.3-0.2-0.7,0.1-1c4.8,2,9.6,4.1,14.4,6.1
		c2.6,1.1,5.2,2.3,7.8,3.4C61.7,285.5,60.7,285.3,59.8,285.1z"></path>
	<path d="M40.1,96.8c7.4,3.2,14.6,6.3,21.9,9.4c10.3,4.4,20.7,8.9,31.1,13.3c6.3,2.7,12.6,5.4,18.9,8.1
		c0.7,0.3,1.3,0.3,2.1,0c18.4-7.9,36.8-15.8,55.2-23.7c5.9-2.5,11.8-5,17.6-7.6c0.3-0.1,0.5-0.2,0.8-0.3c0.6-0.3,0.6,0.1,0.6,0.5
		c-0.4,1.9-0.8,3.7-1.2,5.6c-0.1,0.6-0.7,0.8-1.1,1c-5.4,2.3-10.7,4.6-16.1,6.9c-12.1,5.2-24.2,10.4-36.4,15.6
		c-6.5,2.8-13.1,5.6-19.6,8.4c-0.6,0.3-1.1,0.2-1.7,0c-12-5.2-24-10.3-36-15.5c-11.1-4.8-22.2-9.5-33.3-14.2c-1.1-0.5-1.8-1-1.8-2.3
		C40.9,100.3,40.4,98.7,40.1,96.8z"></path>
	<path d="M191,87.1c-0.1,1.1-0.6,2.1-1,3c-0.4,1-0.4,2.1-0.9,3.1c-0.4,0.8-0.8,1.1-1.6,1.4
		c-14.8,6.3-29.6,12.7-44.5,19.1c-9.6,4.1-19.3,8.3-28.9,12.4c-0.8,0.4-1.5,0.4-2.4,0C100,121,88.1,116,76.3,110.9
		c-11.1-4.8-22.2-9.6-33.4-14.2c-2.2-0.9-3.7-2.1-4-4.5c-0.1-1.2-0.9-2.3-1-3.6l0,0c0.4-0.1,0.7,0.1,1,0.3
		c15.3,6.6,30.5,13.1,45.8,19.7c9.1,3.9,18.3,7.8,27.4,11.7c0.6,0.3,1.1,0.3,1.7,0c13.8-5.9,27.7-11.9,41.5-17.8
		c11.6-5,23.3-10,34.9-15C190.5,87.3,190.8,87.2,191,87.1L191,87.1z"></path>
	<path d="M194.2,78.1c-0.3,2.2-1,4-1.7,5.9c-0.1,0.3-0.4,0.4-0.7,0.6c-12.1,5.2-24.2,10.4-36.3,15.6
		c-11.1,4.8-22.2,9.5-33.3,14.3c-2.9,1.2-5.7,2.4-8.6,3.7c-0.5,0.2-0.9,0.1-1.4-0.1c-9.2-4-18.4-7.9-27.6-11.9
		c-10.5-4.5-20.9-9-31.4-13.5c-5.3-2.3-10.6-4.6-16-6.8c-0.4-0.2-0.7-0.3-0.9-0.8c-0.6-2-1.3-3.9-2.4-5.9c1.4,0.2,2.4,0.8,3.4,1.2
		c15.6,6.7,31.2,13.4,46.8,20.1c9.3,4,18.6,8,27.9,12c0.8,0.3,1.4,0.1,2-0.2c10.8-4.6,21.5-9.2,32.3-13.8c15.5-6.7,31-13.3,46.6-20
		C193.3,78.4,193.7,78.2,194.2,78.1z"></path>
	<path d="M32.8,71.5c2.6,1.1,5.1,2.2,7.5,3.2c10.4,4.4,20.7,8.9,31,13.3c11.1,4.8,22.2,9.5,33.3,14.3
		c2.5,1.1,5,2.1,7.5,3.2c0.6,0.3,1.2,0.3,1.8,0c15.8-6.8,31.6-13.6,47.4-20.4c10.8-4.6,21.6-9.3,32.5-13.9c0.3-0.1,0.6-0.2,0.9-0.3
		c0.3,1.5-0.2,2.8-0.1,4.2c0,0.6-0.5,0.6-0.8,0.7c-6.5,2.8-13.1,5.6-19.6,8.4c-11.1,4.8-22.2,9.6-33.4,14.3
		c-9,3.9-18.1,7.7-27.1,11.6c-0.7,0.3-1.2,0.1-1.7-0.1c-6.3-2.7-12.7-5.4-19-8.2c-12.8-5.5-25.7-11-38.5-16.5
		c-6.8-2.9-13.7-5.9-20.5-8.8c-0.7-0.3-1-0.7-1.1-1.4C32.8,74,32.6,72.8,32.8,71.5z"></path>
	<path d="M60.4,32.2c2.5-1,4.7-2,6.9-2.9c0.5-0.2,0.9,0,1.4,0.1c11.6,5,23.1,9.9,34.7,14.9c3,1.3,6,2.5,9,3.9
		c0.5,0.2,0.9,0.2,1.5,0c10-4.3,20-8.6,29.9-12.8c4.7-2,9.4-4,14.1-6c0.5-0.2,0.9-0.3,1.4-0.1c2.2,1,4.4,2,6.7,3
		c-2.5,1.1-4.9,2.1-7.2,3.1c-11.1,4.8-22.2,9.5-33.3,14.3c-3.8,1.6-7.6,3.3-11.4,4.9c-0.6,0.3-1.1,0.2-1.7,0
		c-5.6-2.4-11.2-4.8-16.8-7.2c-10.6-4.5-21.1-9.1-31.7-13.6C62.6,33.2,61.6,32.7,60.4,32.2z"></path>
	<path d="M32.9,65.7c0-2.1,0-2,1.8-1.3C46.8,69.6,59,74.8,71.1,80c12,5.2,24.1,10.3,36.1,15.5c1.6,0.7,3.2,1.4,4.8,2.1
		c0.6,0.3,1.2,0.3,1.8,0c8.6-3.7,17.2-7.4,25.9-11.1c10.9-4.7,21.9-9.4,32.8-14.1c7.1-3.1,14.2-6.1,21.4-9.2c0.3-0.1,0.7-0.5,1-0.3
		c0.4,0.3,0.1,0.7,0.1,1.1c0.2,1.8-0.8,2.4-2.3,3c-13.2,5.6-26.4,11.3-39.7,17c-12,5.2-24,10.3-36,15.4c-0.4,0.2-0.9,0.3-1.3,0.6
		c-1.9,1.3-3.6,0.9-5.6,0c-10.3-4.5-20.7-8.9-31-13.4C68.1,82,56.9,77.2,45.8,72.5c-3.9-1.7-7.8-3.4-11.7-5
		C33.2,67.1,32.4,66.7,32.9,65.7z"></path>
	<path d="M186.3,105.6c-0.2,1-0.4,1.9-0.5,2.8c-0.1,0.4-0.5,0.5-0.8,0.7c-2.1,1.5-4.6,1.9-7,2.9
		c-11.7,5.1-23.4,10.1-35.1,15.1c-9.7,4.2-19.4,8.3-29.1,12.5c-0.6,0.3-1.2,0.3-1.8,0c-12.9-5.6-25.9-11.1-38.9-16.7
		c-9.8-4.2-19.6-8.4-29.4-12.6c-1.2-0.5-2-1.1-2-2.5c0-0.6-0.5-1.5-0.1-1.8c0.5-0.4,1.2,0.3,1.8,0.6c22.4,9.6,44.9,19.2,67.3,28.9
		c1.5,0.6,2.7,0.7,4.2,0c14-6.1,28.1-12.1,42.2-18.1c9.3-4,18.6-8,28-12C185.6,105.2,186.3,104.7,186.3,105.6z"></path>
	<path d="M130.3,33.3c2.1-0.4,3.9-1.5,5.8-2.3c4.7-2,9.4-4,14.1-6c0.4-0.2,0.8-0.4,1.2-0.1c1.8,1.1,3.6,2.1,5.6,3.3
		c-4,1.7-7.8,3.3-11.6,5c-10.5,4.5-21.1,9-31.6,13.5c-0.7,0.3-1.2,0.3-1.8,0c-13.8-5.9-27.7-11.8-41.5-17.8c-0.3-0.1-0.7-0.2-1-0.7
		c1.4-0.8,2.9-1.4,4.1-2.3c1.4-1,2.5-0.8,3.9-0.2c11.4,5,22.9,9.9,34.3,14.8c0.6,0.2,1.1,0.4,1.7,0.1c4.8-2.1,9.7-4.2,14.5-6.2
		c0.2-0.1,0.3-0.2,0.4-0.3l0,0c0.4,0,0.8,0,1-0.5l0,0C129.9,33.6,130.2,33.7,130.3,33.3L130.3,33.3z"></path>
	<path d="M195.2,57c0.2,0.8-0.2,1.3-1.1,1.6c-10.4,4.4-20.8,8.9-31.2,13.3c-11.2,4.8-22.4,9.6-33.6,14.4
		c-5.2,2.2-10.3,4.4-15.5,6.7c-0.6,0.2-1,0.2-1.6,0C100.4,88,88.6,82.9,76.7,77.8c-10.2-4.4-20.3-8.7-30.5-13.1
		c-4.3-1.8-8.5-3.7-12.8-5.5c-0.9-0.4-1.5-2.1-1-2.9c0.3-0.4,0.6-0.1,0.8,0c3.9,1.7,7.9,3.4,11.8,5c10.5,4.5,20.9,9,31.4,13.5
		c11.1,4.8,22.2,9.5,33.2,14.3c3.3,1.4,3.3,1.4,6.5,0c10.2-4.4,20.3-8.7,30.5-13.1c11.1-4.7,22.1-9.5,33.1-14.2c4.6-2,9.3-4,13.9-6
		C195.2,55.3,195.2,55.3,195.2,57z"></path>
	<path d="M172.9,34.7c-4.4,1.9-8.6,3.7-12.7,5.4c-10,4.3-20,8.6-29.9,12.9c-5.5,2.4-11,4.7-16.5,7.1
		c-0.6,0.3-1.1,0.2-1.6,0c-19-8.1-37.9-16.3-56.9-24.4c-0.6-0.3-1.2-0.6-2.2-1c1.7-0.6,3.2-1,4.6-1.5c0.4-0.1,0.7,0.1,1,0.3
		c13.9,6,27.8,11.9,41.6,17.8c4,1.7,7.9,3.4,11.9,5.1c0.6,0.3,1.1,0.3,1.7,0c16.1-6.9,32.2-13.8,48.3-20.7c1.7-0.7,3.5-1.5,5.2-2.2
		c0.7-0.3,1.3-0.3,1.9-0.1C170.4,33.8,171.5,34.2,172.9,34.7z"></path>
	<path d="M31.5,49.3c0-1.5,0-1.5,1.2-1C44.9,53.5,57,58.8,69.1,64c11.5,4.9,23,9.8,34.5,14.8c2.8,1.2,5.6,2.4,8.3,3.6
		c0.7,0.3,1.3,0.3,2,0c14.8-6.4,29.7-12.8,44.6-19.1c12-5.2,24.1-10.3,36.1-15.5c0.3-0.1,0.6-0.2,0.9-0.3c0.2-0.1,0.4-0.1,0.5,0.1
		c0.2,0.4-0.5,2.2-1,2.4c-5.1,2.2-10.1,4.3-15.2,6.5c-11.2,4.8-22.4,9.6-33.6,14.4c-10.8,4.6-21.5,9.2-32.3,13.8
		c-0.7,0.3-1.3,0.3-2.1,0c-14.1-6.1-28.3-12.1-42.4-18.2c-12.4-5.3-24.7-10.6-37.1-15.9C31.8,50.3,31.1,50.1,31.5,49.3z"></path>
	<path d="M30.8,41.3c0.9-0.6,1.7-0.8,2.8-0.4c13.7,5.9,27.4,11.8,41.1,17.6c11.6,5,23.2,9.9,34.8,15
		c2.5,1.1,4.5,1.2,7.1,0.1c17.4-7.6,34.9-15,52.4-22.5c8-3.4,15.9-6.8,23.9-10.3c1.1-0.5,1.8-0.1,2.8,0.3c-1.5,1-3,1.4-4.4,2
		c-14.4,6.2-28.9,12.4-43.4,18.6c-11.3,4.9-22.7,9.7-34,14.6c-0.6,0.3-1,0.2-1.6,0c-9.9-4.3-19.8-8.5-29.7-12.7
		c-10.3-4.4-20.6-8.8-30.9-13.3c-6.8-2.9-13.7-5.8-20.5-8.8C31,41.6,30.9,41.5,30.8,41.3z"></path>
	<path d="M41.3,37.8c0.8-0.5,1.4-0.4,2.1-0.1c15.2,6.5,30.5,13.1,45.7,19.6c7.7,3.3,15.3,6.6,23,9.9
		c0.7,0.3,1.2,0.2,1.8-0.1c13.2-5.7,26.4-11.3,39.6-17c9.5-4.1,19.1-8.2,28.6-12.3c0.6-0.3,1.2-0.4,1.9,0c-0.6,0.7-1.3,0.8-1.9,1
		C161,48,139.7,57.2,118.4,66.3c-1.5,0.7-3.1,1.3-4.6,2c-0.6,0.3-1.1,0.2-1.6,0C100.1,63,87.9,57.8,75.8,52.6
		c-10.2-4.4-20.3-8.7-30.5-13C44,39,42.7,38.5,41.3,37.8z"></path>
	<path d="M43,118.3c0-0.3,0-0.6,0-0.9c2.4,0.6,4.6,1.8,6.9,2.8c11,4.7,22,9.4,32.9,14.1c9.8,4.2,19.5,8.4,29.3,12.6
		c0.7,0.3,1.2,0.3,1.9,0c11-4.7,22-9.4,32.9-14.1c11.6-5,23.2-10,34.8-14.9c1-0.4,2.1-0.9,3.1-1.3c0.1,0.4,0.1,0.8-0.2,1.2
		c-4.8,2-9.6,4.1-14.4,6.1c-12.1,5.2-24.1,10.3-36.2,15.5c-6.6,2.8-13.1,5.6-19.7,8.5c-0.8,0.4-1.5,0.4-2.4,0
		c-12.4-5.3-24.7-10.6-37.1-15.9c-10.1-4.3-20.1-8.6-30.2-12.9C44.1,118.7,43.5,118.5,43,118.3z"></path>
	<path d="M81.2,21.4c2.3,2.6,5.1,4.8,7.9,6.9c-2.9-1-5.7-2.4-8.6-3.6c-0.7-0.3-1.4-0.6-2.1-0.9c-0.6-0.3-0.5-0.5,0-0.8
		C79.4,22.5,80.3,22,81.2,21.4z"></path>
	<path d="M140.4,27c0.7-1,1.7-1.5,2.5-2.3c1.2-1.1,2.3-2.3,3.5-3.4c0.6,0.8,1.6,1.1,2.4,2C146,24.5,143.2,25.8,140.4,27
		z"></path>
	<path d="M106.7,36c0.9-0.1,1.7,0.2,2.6,0.2c2.5,0.7,5.1,0.4,7.6,0.5c-1.7,1.6-4,2-6,1.1
		C109.6,37.2,108.1,36.6,106.7,36z"></path>
</g>
<path d="M37.9,88.6C37.9,88.5,37.9,88.5,37.9,88.6C37.9,88.5,37.9,88.5,37.9,88.6C37.9,88.5,37.9,88.5,37.9,88.6
	C37.9,88.6,37.9,88.6,37.9,88.6z"></path>
<path d="M191.1,87.1C191.1,87.1,191.1,87.1,191.1,87.1C191.1,87.1,191.1,87.1,191.1,87.1
	C191,87.1,191.1,87.1,191.1,87.1z"></path>
</svg>
