<!--?xml version="1.0" encoding="utf-8"?-->
<!-- Generator: Adobe Illustrator 24.2.3, SVG Export Plug-In . SVG Version: 6.00 Build 0)  -->
<svg version="1.1" id="Camada_1" xmlns="http://www.w3.org/2000/svg" xmlns:xlink="http://www.w3.org/1999/xlink" x="0px" y="0px" viewBox="0 0 229 418" style="enable-background:new 0 0 229 418;" xml:space="preserve">
<style type="text/css">
	.st0{fill:#FD0202;}
	.st1{fill:#6F8BEC;}
</style>
<g class="" id="gola-primaria" fill="#082890">
	<path d="M78,8c0.8-0.1,1.3-0.6,1.8-1.1c0.8-0.7,1.6-1.4,2.2-2.2c2.4-3.4,5.9-4.1,9.6-4.1c10.8-0.1,21.7,0,32.5,0
		c3.7,0,7.4,0,11,0c2.1,0,4.1,0.4,6.1,0.9c1.2,0.3,2.2,1,3.1,2c1.5,1.8,3,3.7,5.1,4.9c1.9,0.9,2.2,2,1.6,4.7c-0.9,4-3.1,7.3-6,10.1
		c-3.2,3.1-6.7,5.8-10.6,8c-2.5,1.4-5,2.6-7.6,3.6c-4.9,1.8-10,2.5-15.3,2.1c-6.9-0.5-13.4-2.4-19.3-6.2c-4.7-3-9.1-6.2-12.5-10.7
		c-1.6-2.1-2.7-4.4-3.4-7C75.9,10.5,76.2,9.2,78,8z M144.3,9.1c-1.6,0.1-3.1,0.2-4.5,0.3c-8.3,0.7-16.6,1.3-25,1.5
		c-6.4,0.2-12.8-0.5-19.1-1C91.8,9.6,88,9.2,84.1,8.9C83.3,8.8,83,9,83.4,9.8c0.5,1.1,1,2.3,1.8,3.2c3.9,4.9,8.5,9,14.2,11.7
		c5.4,2.7,11.2,4.2,17.3,3.4c9.8-1.2,17.7-6,24.1-13.4C142.3,13.2,143.5,11.4,144.3,9.1z"></path>
</g>
<g class="" id="estampa-primaria" fill="#082890">
	<path d="M229,116.1c-6.9,2.8-14,4.3-21.3,5.2c-6.2,0.8-12.4,0.7-18.6,0c-1.5-0.2-3.1-0.4-4.6-1.3c-0.2,2.1-0.4,4.1-0.6,6
		c-0.9,7.2-1.3,14.5-1.4,21.8c0,2.2,0.1,4.4,0.5,6.6c0.4,2-0.1,3.9-0.2,5.8c0,0.7-0.2,1.4-0.1,2.2c0.2,6.5-0.6,13.1,0,19.6
		c0.1,1.5,0,3-0.1,4.4c-0.3,3.1,0.2,6.1,0.9,9.1c1.6,7.2,1.4,14.5,0.3,21.8c-0.3,2.1-0.4,4.2,0.3,6.4c1.8,5.4,1.8,11,0.9,16.6
		c-0.2,1.5-0.3,2.9,0.1,4.4c0.9,3.8,0.4,7.7,0.6,11.6c0.3,5.9,0.7,11.8,1.4,17.7c0.3,2,0.2,4.1,0.3,6.2c0,1.7-0.4,2.2-2.1,2.7
		c-3,0.9-6.1,1.2-9.2,1.5c-7.7,0.8-15.4,0.9-23.1,1c-11.2,0.2-22.5,0.7-33.7,0.8c-12.5,0.2-24.9-0.8-37.4-0.8
		c-8.4,0-16.8-0.1-25.2-0.7c-4.1-0.3-8.3-0.8-12.4-1.7c-0.2,0-0.3-0.1-0.5-0.1c-3.4-0.8-3.7-1.2-3.5-4.7c0.5-7.7,1-15.5,1.5-23.2
		c0.1-2.1,0.3-4.1,0.2-6.2c0-1.8,0-3.5,0.4-5.3c0.4-2.3,0.5-4.5,0.1-6.8c-0.4-2.5-0.1-5,0.4-7.5c0.2-1,0.2-2,0.1-3
		c-0.3-4.5-1-9.1-0.8-13.6c0.2-4.4,1.2-8.5,2.7-12.6c0.4-1,0.6-2,0.4-3.1c-0.2-1.2-0.2-2.5,0.1-3.7c0.3-1.7,0.2-3.3,0.1-5
		c-0.2-3.3-0.2-6.5-0.2-9.8c-0.1-12.9,0-25.9-0.1-38.8c0-5.1-1-10.2-1.5-15.3c-0.1-1.3-0.3-2.6-0.5-3.8c-8.8,2.5-17.7,2-26.6,1.1
		c-4.7-0.5-9.4-1.3-14-2.8c-0.9-0.3-1.7-0.6-2.5-1.2c0-1,0-2.1,0-3.1c0.4-0.1,0.3-0.4,0.3-0.7c0.3-1.8,0.7-3.7,1-5.5
		c1.9-10,2.9-20.1,4.4-30.1c0.9-6,1.5-12,3.2-17.8c2.7-9.7,7.4-18.3,15.2-24.9c1.1-0.9,2.2-1.9,3.2-2.9c0.6-0.6,1.3-1,2-1.4
		c6.5-3.1,13.1-5.9,19.8-8.7c7.6-3.1,15-6.6,22.1-10.7c1-0.6,2-1.3,2.8-2.2C75.2,8.7,76.4,8,78,8c-1.7,1.3-2.1,2.5-1.5,4.8
		c0.7,2.5,1.8,4.8,3.4,7c3.3,4.5,7.8,7.8,12.5,10.7c5.9,3.7,12.4,5.7,19.3,6.2c5.2,0.4,10.3-0.4,15.3-2.1c2.7-1,5.2-2.2,7.6-3.6
		c3.9-2.2,7.4-4.9,10.6-8c2.8-2.8,5.1-6.1,6-10.1c0.6-2.7,0.2-3.8-1.6-4.7c1.8-0.1,3,1,4.1,2.2c0.3,0.3,0.4,0.7,0.8,0.9
		c4,2.3,7.9,4.8,12.1,6.7c10.4,4.7,21.1,8.8,31.5,13.6c0.7,0.3,1.3,0.7,1.9,1.2c1.1,0.9,2.1,1.8,3.2,2.7c3.7,2.9,6.8,6.3,9.4,10.2
		c4.3,6.6,6.7,13.9,8.3,21.6c1,4.9,1.2,9.8,2.4,14.7c1.5,5.7,2.6,11.5,3.5,17.4c0.5,3.6,1,7.3,1.7,10.8c0.2,0.8-0.2,1.9,0.8,2.5
		C229,113.7,229,114.9,229,116.1z"></path>
	<path d="M144.3,9.1c-0.8,2.3-2.1,4.1-3.5,5.8c-6.4,7.4-14.3,12.2-24.1,13.4c-6.1,0.7-11.8-0.8-17.3-3.4C93.8,22,89.1,18,85.2,13
		c-0.8-1-1.3-2.1-1.8-3.2c-0.4-0.9-0.1-1,0.7-0.9c3.9,0.4,7.7,0.8,11.6,1.1c6.4,0.5,12.7,1.2,19.1,1c8.3-0.2,16.7-0.8,25-1.5
		C141.3,9.3,142.7,9.2,144.3,9.1z"></path>
</g>
<g class="" id="estampa-secundaria" fill="#011023">
	<path d="M151.4,285.6c0-0.5,0-1,0-1.6c0-85.8,0-171.6,0-257.5c0-0.5,0-1,0-1.5c1,0.3,1.5,0.6,1.5,1.8
		c0,86.1,0,172.2,0,258.3c0,0.2,0,0.3,0,0.5C152.4,285.9,151.9,285.9,151.4,285.6z"></path>
	<path d="M74.2,285.5c0-86.2,0-172.4,0-258.6c0-1.1,0.4-1.7,1.5-2c0,0.5,0,0.9,0,1.3c0,86.3,0,172.6,0,258.9
		c0,0.1,0,0.2,0,0.4C75.1,285.6,74.6,285.7,74.2,285.5z"></path>
	<path d="M86.7,26.6c0,0.5-0.1,1-0.1,1.4c0,85.4,0,170.9,0,256.3c0,0.4,0,0.9,0,1.3c-0.5,0.1-1,0.2-1.5,0
		c0-0.5-0.1-1-0.1-1.6c0-85.8,0-171.7,0-257.5c0-0.4,0-0.9,0-1.3C85.7,25.7,86.3,26.1,86.7,26.6z"></path>
	<path d="M140.4,285.8c0-0.6,0-1.1,0-1.7c0-85.2,0-170.4,0-255.5c0-0.5,0.2-1-0.2-1.5c0.5-0.6,1-1.1,1.8-1.3
		c0,0.4,0,0.9,0,1.3c0,85.9,0,171.7,0,257.6c0,0.4,0,0.7,0,1.1C141.4,285.9,140.9,286.2,140.4,285.8z"></path>
	<path d="M162.5,285.5c0-84.3,0-168.5,0-252.8c0-0.3,0-0.7,0-1c0.1-0.3-0.2-0.9,0.3-0.9c0.5,0,1.2,0.1,1.2,0.9
		c0,0.3,0,0.6,0,0.8c0,83.9,0,167.7,0,251.6c0,0.4,0,0.8,0,1.2C163.4,285.7,162.9,285.6,162.5,285.5z"></path>
	<path d="M63.1,285.3c0-84.3,0-168.5,0-252.8c0-0.7-0.2-1.5,0.8-1.7c0.5-0.1,0.7-0.1,0.7,0.5c0,0.2,0,0.5,0,0.7
		c0,84.4,0,168.8,0,253.3c0,0,0,0.1,0,0.1C64.1,285.4,63.6,285.4,63.1,285.3z"></path>
	<path d="M97.8,33.4c-0.2,0.5-0.1,1-0.1,1.4c0,83.3,0,166.5,0,249.8c0,0.4,0,0.9,0,1.3c-0.5,0.2-1,0.2-1.5-0.1
		c0-0.4,0-0.8,0-1.2c0-83.6,0-167.1,0-250.6c0-0.4,0-0.9,0-1.3C96.9,32.7,97.4,33,97.8,33.4z"></path>
	<path d="M129.3,286.2c0-40.5,0-81,0-121.5c0-43.1,0-86.3,0-129.4c0-0.5,0.1-1.1-0.1-1.7c0.5-0.4,1-0.7,1.6-0.7
		c0,0.6,0,1.1,0,1.7c0,83.3,0,166.6,0,249.9c0,0.6,0,1.1,0,1.7C130.4,286.4,129.9,286.4,129.3,286.2z"></path>
	<path d="M109.1,36.5c-0.3,0.1-0.3,0.3-0.3,0.6c0,0.4,0,0.8,0,1.2c0,82.1,0,164.3,0,246.4c0,0.6,0,1.1,0,1.7
		c-0.5,0.1-1,0.1-1.5,0c0-0.5,0-1,0-1.4c0-82.4,0-164.8,0-247.1c0-0.5,0.3-1.2-0.4-1.6C107.6,36,108.4,35.9,109.1,36.5z"></path>
	<path d="M118.3,286.5c0-0.4,0-0.9,0-1.3c0-82.3,0-164.7,0-247c0-0.5,0.3-1.1-0.3-1.6c0.6-0.4,1.2-0.4,1.8-0.3
		c0,0.5,0,1,0,1.4c0,82.4,0,164.9,0,247.3c0,0.5,0,1,0,1.4C119.3,286.6,118.8,286.6,118.3,286.5z"></path>
	<path d="M52.1,284.4c0-0.4,0-0.8,0-1.2c0-82.3,0-164.6,0-246.9c0-0.7-0.3-1.5,0.8-1.7c0.5-0.1,0.8,0,0.7,0.5
		c0,0.2,0,0.5,0,0.7c0,82.6,0,165.2,0,247.8c0,0.3,0,0.6,0,1C53,284.6,52.5,284.8,52.1,284.4z"></path>
	<path d="M173.5,284.9c0-0.5,0-1,0-1.4c0-82.2,0-164.5,0-246.7c0-0.3,0-0.6,0-1s-0.1-0.8,0.5-0.7c0.4,0.1,0.9,0,1,0.6
		c0,0.3,0,0.6,0,1c0,82.3,0,164.6,0,247c0,0.4,0,0.8,0,1.2C174.5,285,174,285,173.5,284.9z"></path>
	<path d="M184.5,283.4c0-13.3,0-26.5,0-39.8c0-5.9,0-11.8,0.1-17.7c0.9,2.8,1.1,5.6,1,8.5c0,2.7-0.5,5.3-0.7,8
		c-0.1,1.6,0.4,3.3,0.5,4.9c0.2,2,0.6,4.1,0.3,6.1c-0.1,0.8-0.2,1.7-0.1,2.5c0.2,2.7,0.4,5.5,0.6,8.2c-0.3,0.5-0.2,1.1-0.2,1.6
		c0,5.7,0,11.5,0,17.2C185.6,283.3,185.1,283.4,184.5,283.4z"></path>
	<path d="M42.2,246c0.4,0.3,0.3,0.6,0.3,1c0,11.9,0,23.8,0,35.7c-0.6,0-1.1-0.2-1.5-0.8c-0.1-4.6,0.2-9.2-0.2-13.8
		c0.4-1.9,0.3-3.8,0.4-5.7c0.4-5.3,1-10.5,0.8-15.8C42,246.4,42,246.1,42.2,246z"></path>
	<path d="M184.5,117.1c0-0.8,0-1.7,0-2.5c0-25.1,0-50.1,0-75.2c0-0.6-0.3-1.5,0.9-1.1c0.3,0.1,0.6,0.3,0.5,0.7
		c0,0.2,0,0.5,0,0.7c0,22.1,0,44.1,0,66.2c0,2.8-0.9,5.5-1.1,8.3c-0.1,1-0.2,1.9-0.2,2.9C184.6,117.1,184.6,117.1,184.5,117.1z"></path>
	<path d="M42.4,111.8c-0.5-3.2-0.9-6.1-1.3-9.1c-0.2-1.4-0.1-2.8-0.1-4.2c0-19.7,0-39.4,0-59.1c0-0.4,0-0.7,0-1.1
		c0-0.7,0.7-0.6,1.1-0.7c0.7-0.1,0.4,0.5,0.4,0.7c0,24.3,0,48.6,0,72.9C42.5,111.3,42.5,111.5,42.4,111.8z"></path>
</g>
</svg>
