<!--?xml version="1.0" encoding="utf-8"?-->
<!-- Generator: Adobe Illustrator 24.2.3, SVG Export Plug-In . SVG Version: 6.00 Build 0)  -->
<svg version="1.1" id="Camada_1" xmlns="http://www.w3.org/2000/svg" xmlns:xlink="http://www.w3.org/1999/xlink" x="0px" y="0px" viewBox="0 0 234 419" style="enable-background:new 0 0 234 419;" xml:space="preserve">
<style type="text/css">
	.st0{fill:#0FBE0A;}
	.st1{fill:#BE0811;}
	.st2{fill:#95FE3C;}
</style>
<g class="" id="c-gola-primaria" fill="#082890">
	<path d="M141.8,0.2c0.9,0.5,2,0.5,3,0.7c1.6,0.4,3,1.1,4.1,2.5c1.3,1.7,3,3,4.6,4.4c-0.7,0.1-1.3,0.1-2,0.2
		c-4.3,0.7-8.7,1.4-13,1.7c-7.5,0.6-15,1.4-22.6,1.3c-11.4-0.1-22.7-1.8-34-3c2-1.6,3.8-3.4,5.4-5.4c1.1-1.3,2.7-1.5,4.2-1.9
		c0.7-0.2,1.5,0.1,2.1-0.5c2.1,0,4.2,0,6.2,0c1.6,0.3,3.2,0.1,4.9,0.1c1.7,0,3.3,0.2,5-0.1c2.7,0,5.4,0,8.2,0c2,0.2,4,0.4,6,0
		C129.8,0.2,135.8,0.2,141.8,0.2z"></path>
</g>
<g class="" id="c-estampa-primaria" fill="#082890">
	<path d="M203.8,32.3c0.2,0.1,0.5,0.2,0.7,0.4c3.7,3.5,7.8,6.7,10.8,11c3.8,5.4,6.5,11.3,8.3,17.7
		c1.7,5.9,2.7,12,3.4,18.1c0.6,4.7,1.5,9.3,2.2,14c0.9,5.7,1.5,11.5,2.8,17.1c0.5,2.1,0.7,4.2,1.2,6.3c0,1,0,1.9,0,2.9
		c-1.4,0.7-3,0.9-4.5,1.2c-9.6,1.8-19.3,3.1-29.1,2.9c-3.1-0.1-6-0.4-8.8-2c-0.9-0.5-2.1-0.2-2.8-1.2c0.3-1.3,0-2.6,0.1-4
		c0.3-2.8,0.9-5.7,0.7-8.5c-0.1-1.7,0-3.4,0.2-5c0.3-2.8,1.3-5.4,1.3-8.2c0-4.2,0.5-8.4,1.4-12.6c0.3-1.6,0.6-3.3,1.9-4.3
		c1.1-0.9,1.8-2,2.5-3.2c2.5-4,3.4-8.6,4.8-13c1.3-4.1,2.3-8.3,2.7-12.6c0.5-5.1,0.2-10.1-0.2-15.2
		C203.5,33.4,203.4,32.8,203.8,32.3z"></path>
	<path d="M0.2,116.3c0.5-1.9,0.8-3.8,1.2-5.7c0.7-3.6,1.3-7.1,1.7-10.7c0.9-6.8,2.8-13.3,4.3-20c0.9-4.3,1.2-8.7,2.2-13
		c1.2-5.3,2.8-10.5,5.2-15.4c3.1-6.5,7.6-12,13.3-16.4c1.1-0.9,2-2.1,3.3-2.7c0.4,0.8,0.4,1.5,0,2.3c-0.1,0.2-0.1,0.4-0.1,0.7
		c0.2,1,0.1,2,0,3C30.9,43.5,31,48.7,32,53.9c0.9,4.8,2.5,9.4,3.9,14.1c1,3.3,2.4,6.3,4.3,9.1c0.9,1.3,1.8,2.8,2.1,4.4
		c0.3,1.3,0.3,2.7,0.6,4c1.3,5.6,1.6,11.4,2.3,17c0.3,2.1,0.2,4.2,0.7,6.3c0.3,1.2,0.9,2.3,0.7,3.5c-0.3,2,0,3.9,0,5.9
		c-0.4,0.4-0.3,1-0.2,1.5c0.1,1.2-0.5,1.6-1.6,1.8c-6.8,1-13.6,1-20.4,0.1c-7.8-1-15.6-2.1-23.3-3.9c-0.3-0.1-0.5-0.1-0.8-0.2
		C0.2,117.1,0.2,116.7,0.2,116.3z"></path>
	<path d="M81.9,8c11.3,1.2,22.6,2.8,34,3c7.6,0.1,15.1-0.6,22.6-1.3c4.4-0.4,8.7-1.1,13-1.7c0.7-0.1,1.3-0.1,2-0.2
		c1.6,0,3,0.6,4,1.8c1.3,1.5,3,2.5,4.7,3.4c9.2,5.2,18.9,9.4,28.7,13.2c4.2,1.7,8.2,3.9,12.4,5.7c0.2,0.1,0.4,0.3,0.6,0.4
		c-0.4,0.5-0.3,1.2-0.3,1.7c0.4,5.1,0.6,10.1,0.2,15.2c-0.4,4.3-1.4,8.5-2.7,12.6c-1.4,4.4-2.3,9-4.8,13c-0.7,1.1-1.3,2.3-2.5,3.2
		c-1.3,1-1.6,2.7-1.9,4.3c-0.8,4.2-1.3,8.4-1.4,12.6c0,2.8-1,5.5-1.3,8.2c-0.2,1.7-0.3,3.3-0.2,5c0.2,2.9-0.4,5.7-0.7,8.5
		c-0.1,1.3,0.1,2.7-0.1,4c-0.4,0.3-0.3,0.7-0.3,1.1c-1.2,10.5-1.5,21-0.9,31.5c0.2,3.2-0.1,6.4-0.3,9.6c-0.4,6,0.1,12.1,0.1,18.1
		c0,2.8-0.1,5.5-0.4,8.3c-0.2,1.9-0.3,3.8,0.1,5.7c0,0.2,0.1,0.5,0.1,0.7c-0.3,3.1,0.5,6.1,1.4,9c1.7,6,1.9,12,1.4,18.2
		c-0.3,3.7-0.8,7.4,0,11.2c0.3,1.3,0.2,2.6,0.1,3.9c-0.4,7.6,0.7,15,1.1,22.6c0.2,5.4,0.7,10.8,0.9,16.3c0.1,1.4,0.3,2.8,0.3,4.2
		c0,2.2-0.2,2.6-2.4,3.2c-4.9,1.5-9.9,2.4-14.9,3c-11.8,1.5-23.8,1.7-35.7,1.8c-20.7,0.2-41.4,0.6-62,0.3c-10-0.2-20-1-29.7-3.8
		c-3.7-1-3.8-1.1-3.6-4.8c0.4-7.1,1-14.1,1.5-21.1c0.2-3.2-0.1-6.4,0.3-9.6c0.1-0.6,0.1-1.1,0.2-1.7c0.9-3.2,0.1-6.4-0.1-9.6
		c-0.2-4.6,0.2-9.2,1.4-13.7c0.4-1.6,0.5-3.1,0.3-4.7c-1.1-8.7-0.9-17.3,1.1-25.9c0.3-1.4,0.4-2.9,0.3-4.3c-0.4-4.7,0-9.4-0.2-14.1
		c-0.2-5.7,0-11.4-0.5-17.1c-0.3-3.6,0.4-7.2,0.3-10.9c-0.3-9.6-0.9-19.2-1.5-28.7c0-0.3,0.1-0.7-0.3-1c0.1-2-0.3-3.9,0-5.9
		c0.2-1.2-0.4-2.3-0.7-3.5c-0.5-2.1-0.4-4.2-0.7-6.3c-0.7-5.7-1-11.4-2.3-17c-0.3-1.3-0.3-2.7-0.6-4c-0.3-1.6-1.2-3.1-2.1-4.4
		c-1.9-2.8-3.4-5.9-4.3-9.1c-1.4-4.7-2.9-9.3-3.9-14.1c-1-5.2-1.1-10.4-0.7-15.6c0.1-1,0.2-2,0-3c-0.1-0.3,0-0.4,0.1-0.7
		c0.4-0.7,0.4-1.5,0-2.3c4.2-2,8.4-4,12.8-5.8c7.1-2.8,14.2-5.9,21.1-9.1c3.9-1.8,7.6-4.1,11.2-6.4c0.5-0.3,0.8-0.7,1.1-1.1
		C78.8,8.9,80.1,7.9,81.9,8z"></path>
</g>
<g class="" id="c-estampa-secundaria" fill="#011023">
	<path d="M73.4,289.3c0-25.8,0-51.6,0-77.4c0-6.7,0-13.4,0-20c0-0.6-0.1-1.1,0.8-1.1c0.5,0.1,0.8,0.2,0.7,0.7
		c0,0.2,0,0.3,0,0.5c0,32.5,0,64.9,0,97.4C74.4,289.4,73.9,289.5,73.4,289.3z"></path>
	<path d="M84.4,289.4c0-7.7,0-15.4,0-23.1c0-24.6,0-49.3,0-73.9c0-0.4,0-0.7,0-1.1c0-0.6,0.4-0.5,0.8-0.5
		c0.3,0,0.8-0.1,0.8,0.5c0,0.4,0,0.7,0,1.1c0,32.3,0,64.7,0,97C85.4,289.4,84.9,289.4,84.4,289.4z"></path>
	<path d="M95.5,289.4c0-32.3,0-64.7,0-97c0-0.4,0-0.7,0-1.1c0-0.6,0.4-0.5,0.8-0.5s0.8-0.1,0.8,0.5c0,0.4,0,0.7,0,1.1
		c0,31.8,0,63.6,0,95.5c0,0.5,0,1,0,1.6C96.5,289.4,96,289.4,95.5,289.4z"></path>
	<path d="M106.5,289.4c0-32.4,0-64.9,0-97.3c0-0.7-0.2-1.5,1-1.3c0.4,0.1,0.6,0.2,0.5,0.6c0,0.4,0,0.7,0,1.1
		c0,32.3,0,64.6,0,96.9C107.5,289.4,107,289.4,106.5,289.4z"></path>
	<path d="M117.6,289.3c0-0.4,0-0.9,0-1.3c0-31.9,0-63.8,0-95.8c0-0.3,0-0.6,0-0.8c0-0.6,0.4-0.6,0.8-0.6
		c0.4,0,0.7,0,0.7,0.5c0,0.2,0,0.5,0,0.7c0,32.2,0,64.3,0,96.5c0,0.2,0,0.5,0,0.7C118.6,289.5,118.1,289.5,117.6,289.3z"></path>
	<path d="M128.6,289.2c0-32.4,0-64.9,0-97.3c0-0.5-0.2-1.1,0.7-1.1s0.8,0.6,0.8,1.1c0,32.4,0,64.9,0,97.3
		C129.6,289.3,129.1,289.3,128.6,289.2z"></path>
	<path d="M139.6,289.1c0-32.4,0-64.8,0-97.2c0-0.6-0.2-1.2,0.8-1.2c1,0,0.7,0.7,0.7,1.1c0,32.4,0,64.8,0,97.2
		C140.6,289.2,140.1,289.2,139.6,289.1z"></path>
	<path d="M150.7,288.9c0-28.7,0-57.5,0-86.2c0-3.6,0-7.3,0-10.9c0-0.6,0-1,0.8-1c0.8,0,0.7,0.4,0.7,0.9
		c0,32.3,0,64.7,0,97c0,0,0,0.1,0,0.1C151.7,289,151.2,289,150.7,288.9z"></path>
	<path d="M62.4,288.5c0-32.1,0-64.2,0-96.3c0-0.6-0.3-1.5,0.9-1.3c0.4,0.1,0.6,0.1,0.6,0.5c0,0.2,0,0.5,0,0.7
		c0,32.1,0,64.2,0,96.2c0,0.1,0,0.2,0,0.4C63.3,288.8,62.8,288.7,62.4,288.5z"></path>
	<path d="M161.8,288.4c0-18.1,0-36.2,0-54.2c0-14.1,0-28.2,0-42.2c0-0.7-0.1-1.3,1-1.1c0.4,0.1,0.6,0.2,0.6,0.6
		c0,0.2,0,0.4,0,0.6c0,31.9,0,63.8,0,95.6c0,0.2,0,0.5,0,0.7C162.7,288.6,162.3,288.5,161.8,288.4z"></path>
	<path d="M172.8,287.5c0-10.1,0-20.3,0-30.5c0-21.6,0-43.2,0-64.8c0-0.4,0-0.7,0-1.1c0-0.6,0.5-0.4,0.8-0.4
		s0.7,0,0.7,0.4c0,0.2,0,0.5,0,0.7c0,31.8,0,63.6,0,95.4C173.8,287.6,173.3,287.6,172.8,287.5z"></path>
	<path d="M51.3,286.6c0-31.6,0-63.2,0-94.8c0-0.6-0.1-1.1,0.8-1.1c0.8,0,0.8,0.4,0.8,1c0,31.7,0,63.5,0,95.2
		C52.3,287,51.8,286.9,51.3,286.6z"></path>
	<path d="M183.8,285.6c0-24.6,0-49.2,0-73.8c0-6.5,0-13,0-19.4c0-0.5-0.6-1.6,0.7-1.6c1.4-0.1,0.8,1,0.8,1.6
		c0,30.4,0,60.9,0,91.3c0,0.6,0,1.1,0,1.7C184.9,285.6,184.3,285.6,183.8,285.6z"></path>
</g>
</svg>
