<!--?xml version="1.0" encoding="utf-8"?-->
<!-- Generator: Adobe Illustrator 24.2.3, SVG Export Plug-In . SVG Version: 6.00 Build 0)  -->
<svg version="1.1" id="Camada_1" xmlns="http://www.w3.org/2000/svg" xmlns:xlink="http://www.w3.org/1999/xlink" x="0px" y="0px" viewBox="0 0 229 418" style="enable-background:new 0 0 229 418;" xml:space="preserve">
<style type="text/css">
	.st0{fill:#FD0202;}
	.st1{fill:#6FC4FC;}
</style>
<g onclick="select(this)" class="" id="estampa-primaria" fill="#082890">
	<path d="M43.2,120.4c-0.2-1.9-0.3-3.8-0.5-5.7c-0.2-1.5-0.4-1.6-1.9-1.3c-1.1,0.2-2.1,0.4-3.2,0.6c-3.7,0.7-7.5,0.4-11.2,0.4
		c-6.5,0-12.9-0.6-19.2-2.1c-2-0.5-4-1.1-6-1.7c1-4.8,1.7-9.7,2.3-14.5c0.9-6.3,1.9-12.6,2.6-18.9c0.8-6.7,1.9-13.3,4-19.7
		c2.9-8.9,7.8-16.5,15.2-22.4c1.1-0.9,2-2.2,3.3-2.9c3.6-1.9,7.3-3.7,11-5.3c10-4.1,20-8.2,29.5-13.4c2-1.1,4-2.1,5.5-3.9
		c0.8-1,2.1-1.6,3.5-1.6c-1.7,0.9-2,2.4-1.7,4.1c0.4,2.1,1.1,4.2,2.3,6c5.9,8.6,14.3,13.9,24.1,17.1c2,0.7,4.2,1.1,6.6,1
		c-0.8-1.3-1.7-2.3-2.7-3.3c-4.4-4.6-9.3-8.5-14.3-12.4c-2.5-2-4.7-4.2-6.7-6.7c-1-1.2-1.7-2.5-2.3-3.9c-0.3-0.7-0.2-1,0.6-0.9
		c3.5,0.4,7.1,0.7,10.6,1c7.9,0.6,15.8,1.4,23.8,1c6.3-0.4,12.5-0.7,18.8-1.2c2.3-0.2,4.5-0.3,7-0.5c-0.4,0.8-0.6,1.4-1,2
		c-1.2,2.3-2.9,4.2-4.7,6.1c-2.9,3-6.4,5.2-9.5,7.8c-3.5,3-7.1,5.9-10,9.5c-0.4,0.5-0.9,1-1,1.8c1-0.1,2,0,2.9-0.2
		c5.1-0.9,9.7-3.1,14.1-5.6c3.3-1.9,6.4-4.2,9.1-6.8c3.1-3,5.5-6.4,6.6-10.6c0.6-2.2,0-4.3-1.7-4.7c1.9-0.3,3.1,0.9,4.2,2.2
		c0.3,0.4,0.7,0.7,1.1,1c8.9,5.9,18.8,9.6,28.5,13.7c5.1,2.1,10,4.4,15.1,6.6c0.3,0.1,0.6,0.3,0.8,0.5c12,8.5,19.2,20.2,21.4,34.6
		c1.7,11.3,4.7,22.4,6.2,33.7c0.4,2.7,0.8,5.3,1.2,7.9c-0.4,0-0.8,0.1-1.2,0.2c-5.3,2.4-10.8,3.4-16.5,4.2c-4.9,0.7-9.8,1.4-14.8,1
		c-3-0.2-6.1,0-9.1-0.7c-0.4-0.1-1-0.3-1.1,0.5c-0.1,2.1-1,4.2-0.7,6.4c-0.4,0.8-0.3,1.7-0.4,2.6c-1,8.4-1.7,16.8-1.7,25.2
		c0,2.2,0.1,4.4,0.5,6.6c0.4,1.9,0,3.8-0.2,5.7c-0.2,2.1-0.2,4.2-0.1,6.3c0.1,2.2-0.1,4.3-0.2,6.5c-0.1,2.8-0.1,5.7,0.1,8.5
		c0.1,1.7,0.1,3.4-0.1,5c-0.3,3,0.2,5.9,0.8,8.8c1.7,7.3,1.5,14.8,0.4,22.2c-0.3,2.1-0.4,4.2,0.3,6.4c1.8,5.5,1.8,11.1,0.9,16.7
		c-0.2,1.4-0.2,2.7,0.1,4c0.9,3.8,0.5,7.7,0.7,11.6c0.3,6,0.7,12,1.4,17.9c0.3,2,0.2,4.1,0.3,6.1c0,1.8-0.3,2.3-2.1,2.8
		c-3,0.9-6,1.1-9.1,1.5c-7.7,0.8-15.5,0.9-23.2,1c-11.2,0.2-22.5,0.7-33.7,0.8c-12.5,0.2-24.9-0.8-37.4-0.8
		c-8.4,0-16.8-0.1-25.2-0.7c-4.1-0.3-8.3-0.8-12.4-1.7c-0.3-0.1-0.5-0.1-0.8-0.2c-3-0.8-3.3-1.2-3.2-4.2c0.5-7.8,1-15.7,1.6-23.5
		c0.1-2,0.3-4.1,0.2-6.1c0-1.8,0-3.6,0.4-5.4c0.4-2.2,0.5-4.4,0.1-6.7c-0.4-2.5-0.1-5,0.4-7.5c0.2-1.1,0.2-2.1,0.1-3.2
		c-0.3-4.5-1-8.9-0.8-13.4c0.2-4.4,1.2-8.6,2.7-12.7c0.4-1,0.6-2,0.4-3c-0.2-1.2-0.2-2.5,0.1-3.7c0.3-1.7,0.2-3.3,0.1-5
		c-0.2-3.3-0.2-6.6-0.2-9.9c-0.1-12.9,0-25.8-0.1-38.7c0-5.2-1-10.3-1.5-15.5C43.6,122.9,43.7,121.6,43.2,120.4z"></path>
</g>
<g onclick="select(this)" class="" id="c-gola-primaria" fill="#082890">
	<path d="M149.2,8.3c1.7,0.5,2.3,2.5,1.7,4.7c-1.2,4.2-3.5,7.7-6.6,10.6c-2.7,2.6-5.8,4.9-9.1,6.8
		c-4.4,2.6-9,4.7-14.1,5.6c-1,0.2-1.9,0.1-2.9,0.2c0.1-0.8,0.6-1.3,1-1.8c2.9-3.6,6.4-6.5,10-9.5c3.2-2.6,6.6-4.9,9.5-7.8
		c1.8-1.8,3.4-3.8,4.7-6.1c0.3-0.6,0.6-1.3,1-2c-2.4,0.2-4.7,0.3-7,0.5c-6.3,0.5-12.5,0.9-18.8,1.2c-8,0.5-15.9-0.4-23.8-1
		c-3.5-0.3-7.1-0.6-10.6-1c-0.9-0.1-0.9,0.2-0.6,0.9c0.6,1.4,1.3,2.7,2.3,3.9c2,2.5,4.2,4.7,6.7,6.7c5,3.9,9.9,7.8,14.3,12.4
		c1,1,1.8,2,2.7,3.3c-2.4,0.2-4.5-0.3-6.6-1C93,31.9,84.7,26.7,78.7,18c-1.2-1.8-1.9-3.8-2.3-6c-0.3-1.7,0-3.2,1.7-4.1
		c0.5,0,0.9-0.3,1.3-0.6c0.9-0.9,2-1.7,2.7-2.7c2-2.9,5-3.6,8.2-3.9c3.1-0.3,6.1,0.1,9.2,0c4.4-0.1,8.8,0,13.2-0.1
		c7.9-0.2,15.8,0,23.7,0c0.9,0,1.8,0.2,2.7,0.3c2.2,0.3,4.2,1.2,5.6,3.1C146,5.8,147.4,7.3,149.2,8.3z"></path>
</g>
<g onclick="select(this)" class="" id="detalhe-punho" fill="#011023">
	<path d="M0.2,114.4c0.6-1.2,0.4-2.7,0.9-3.9c2,0.6,4,1.2,6,1.7c6.3,1.6,12.7,2.1,19.2,2.1c3.7,0,7.5,0.3,11.2-0.4
		c1.1-0.2,2.1-0.4,3.2-0.6c1.5-0.3,1.7-0.2,1.9,1.3c0.2,1.9,0.3,3.8,0.5,5.7c-0.9,0.7-2,1-3.1,1.2c-2.5,0.5-5,0.8-7.6,0.8
		c-7,0.1-14,0-20.9-1.2c-3-0.6-6-1.1-8.9-2.1c-0.8-0.3-1.6-0.6-2.4-1C0.2,116.8,0.2,115.6,0.2,114.4z"></path>
	<path d="M184.6,120.1c-0.3-2.2,0.6-4.2,0.7-6.4c0-0.8,0.7-0.6,1.1-0.5c3,0.7,6,0.5,9.1,0.7c5,0.3,9.9-0.3,14.8-1
		c5.7-0.8,11.3-1.9,16.5-4.2c0.4-0.2,0.8-0.3,1.2-0.2c1.1,2.3,1.2,4.8,1.1,7.4c0,0.7-0.8,0.8-1.3,1c-2.9,1.1-5.8,1.9-8.8,2.6
		c-8.7,2.3-17.6,2.8-26.6,2.3c-2.1-0.1-4.1-0.3-6.1-0.9C185.5,120.7,185,120.6,184.6,120.1z"></path>
</g>
<g onclick="select(this)" class="" id="estampa-secundaria" fill="#011023">
	<path d="M151.4,285.7c0-0.6,0-1.1,0-1.7c0-85.8,0-171.6,0-257.4c0-0.5,0-1,0-1.6c0.9,0.4,1.5,0.7,1.5,1.8
		c0,86.2,0,172.3,0,258.5c0,0.1,0,0.2,0,0.4C152.4,286,151.9,285.9,151.4,285.7z"></path>
	<path d="M74.1,285.5c0-36.3,0-72.6,0-109c0-49.9,0-99.8,0-149.6c0-1.1,0.4-1.6,1.5-2c0,86.9,0,173.7,0,260.6
		C75.1,285.6,74.6,285.7,74.1,285.5z"></path>
	<path d="M85.2,25.3c0.6,0.3,1.1,0.8,1.5,1.3c0,0.5-0.1,1-0.1,1.4c0,85.4,0,170.8,0,256.2c0,0.5,0,1,0,1.4
		c-0.5,0.1-1,0.2-1.5,0c0-0.5-0.1-1-0.1-1.4c0-85.8,0-171.6,0-257.4C85.2,26.4,85.2,25.8,85.2,25.3z"></path>
	<path d="M140,27.1c0.6-0.6,1.1-1.2,1.9-1.5c0,0.6-0.1,1.2-0.1,1.8c0,85.6,0,171.1,0,256.7c0,0.6,0,1.1,0,1.7
		c-0.5,0.3-1,0.3-1.5,0c0-0.6,0-1.1,0-1.7c0-85.2,0-170.3,0-255.5C140.3,28.2,140.6,27.6,140,27.1z"></path>
	<path d="M162.4,285.5c0-0.6,0-1.2,0-1.8c0-83.7,0-167.4,0-251.1c0-0.3,0-0.6,0-0.8c0.1-0.3-0.2-0.9,0.3-0.9
		c0.5,0,1.2,0.1,1.2,0.9c0,0.3,0,0.6,0,1c0,83.8,0,167.6,0,251.4c0,0.4,0,0.9,0,1.3C163.4,285.7,162.9,285.6,162.4,285.5z"></path>
	<path d="M63.1,285.3c0-0.6,0-1.2,0-1.8c0-83.7,0-167.4,0-251c0-0.7-0.2-1.5,0.8-1.7c0.5-0.1,0.7-0.1,0.7,0.4
		c0,0.3,0,0.6,0,1c0,84.4,0,168.8,0,253.2C64.1,285.4,63.6,285.4,63.1,285.3z"></path>
	<path d="M129,33.6c0.5-0.4,1.1-0.7,1.7-0.8c0,0.6,0.1,1.1,0.1,1.7c0,83.3,0,166.6,0,250c0,0.6,0,1.1,0,1.7
		c-0.5,0.2-1,0.2-1.6,0c0-0.5,0-1,0-1.4c0-83.2,0-166.4,0-249.6C129.3,34.7,129.6,34,129,33.6z"></path>
	<path d="M96.2,32.6c0.6,0.1,1.2,0.3,1.6,0.7c0,0.5-0.1,1-0.1,1.4c0,83.3,0,166.6,0,249.8c0,0.4,0,0.9,0,1.3
		c-0.5,0.2-1,0.3-1.5-0.1c0-0.5,0-1,0-1.6c0-83.4,0-166.8,0-250.1C96.2,33.7,96.2,33.1,96.2,32.6z"></path>
	<path d="M106.9,36c0.6-0.1,1.2,0.2,1.8,0.2c0,0.6,0,1.1,0,1.7c0,82.3,0,164.6,0,247c0,0.5,0,1,0,1.4
		c-0.5,0.4-1,0-1.5,0c0-82.9,0-165.8,0-248.8C107.2,37,107.4,36.5,106.9,36z"></path>
	<path d="M118.4,36.4c0.4-0.1,0.9-0.1,1.3-0.2c0,0.5,0,1,0,1.6c0,82.3,0,164.7,0,247c0,0.6,0,1.1,0,1.7
		c-0.5,0.1-1,0.1-1.5,0c0-82.8,0-165.6,0-248.3C118.3,37.6,118.2,37,118.4,36.4z"></path>
	<path d="M52.1,284.4c0-0.4,0-0.8,0-1.2c0-82.3,0-164.6,0-246.9c0-0.7-0.3-1.5,0.8-1.7c0.5-0.1,0.8,0,0.7,0.5
		c0,0.2,0,0.5,0,0.7c0,82.6,0,165.2,0,247.8c0,0.3,0,0.6,0,1C53,284.6,52.5,284.8,52.1,284.4z"></path>
	<path d="M173.5,284.9c0-0.5,0-1,0-1.4c0-82.2,0-164.5,0-246.7c0-0.3,0-0.6,0-1c0-0.3-0.2-0.8,0.4-0.8
		c0.5,0,1.1,0,1.1,0.8c0,0.3,0,0.6,0,0.8c0,82.3,0,164.6,0,246.9c0,0.4,0,0.8,0,1.2C174.5,285,174,284.9,173.5,284.9z"></path>
	<path d="M184.5,283.4c0-19.3,0-38.5,0-57.8c1.1,3.4,1.3,6.9,1.1,10.4c-0.2,2.2-0.6,4.3-0.7,6.5
		c-0.1,1.3,0.4,2.6,0.6,3.9c0.6,4,0.1,8,0.3,11.9c0.1,1.5,0.3,3.1,0.4,4.6c0,0.4,0,0.9,0,1.3c-0.3,0.4-0.2,0.8-0.2,1.3
		c0,5.8,0,11.6,0,17.4C185.6,283.3,185.1,283.5,184.5,283.4z"></path>
	<path d="M42.3,246.2c0.4,0.2,0.3,0.6,0.3,1c0,11.8,0,23.7,0,35.5c-0.6,0-1.1-0.2-1.5-0.8c0-2.3,0-4.7,0-7
		c0-1.5,0.2-3.1-0.2-4.6c0.1-2.7,0.3-5.4,0.4-8.2c0.3-5.1,0.9-10.3,0.7-15.4C42,246.5,42,246.3,42.3,246.2z"></path>
	<path d="M184.5,115.5c0-0.3,0-0.6,0-0.9c0-25.1,0-50.2,0-75.3c0-1.1,0.3-1.3,1.1-1c0.3,0.1,0.4,0.3,0.4,0.6s0,0.6,0,1
		c0,22,0.1,43.9,0,65.8c0,2.7-0.7,5.5-1.1,8.2C184.9,114.4,185,115,184.5,115.5z"></path>
	<path d="M42.5,111.6c-0.5-4.7-1.5-9.3-1.5-14.2c0.1-19.4,0-38.9,0-58.3c0-1,0.1-1.7,1.5-1.6
		C42.5,62.2,42.5,86.9,42.5,111.6z"></path>
</g>
</svg>
