<!--?xml version="1.0" encoding="utf-8"?-->
<!-- Generator: Adobe Illustrator 24.2.3, SVG Export Plug-In . SVG Version: 6.00 Build 0)  -->
<svg version="1.1" id="Camada_1" xmlns="http://www.w3.org/2000/svg" xmlns:xlink="http://www.w3.org/1999/xlink" x="0px" y="0px" viewBox="0 0 229 418" enable-background="new 0 0 229 418" xml:space="preserve">
<g onclick="select(this)" class="" id="estampa-primaria" fill="#000000">
	<path d="M42.9015503,115.9582062c-0.3582153-0.7642746-0.1840019-1.6562042-0.6075783-2.4174118
		c-0.2068787-0.3717728-0.4053726-0.6435699-0.8126144-0.385643c-1.3330765,0.8442764-2.8777161,0.6166916-4.3144798,0.7833557
		c-1.6506691,0.1914902-3.3194733,0.3798523-5.0072746,0.3350449c-1.8687019-0.049614-3.7426872,0.1406937-5.6153297,0.1905441
		c-4.3735962,0.1164551-8.6608295-0.536705-12.9639568-1.267395c-4.1913567-0.7117081-8.2543278-1.7680359-12.204361-3.3069839
		c1.7979251-9.5085754,2.690742-19.1514053,4.2618089-28.6950073c0.8433952-5.1232834,1.1589942-10.3244934,2.2574725-15.4171219
		c1.7712955-8.211853,4.539505-15.9882011,9.6406498-22.7842369c2.098362-2.7955627,4.4700012-5.3400726,7.2143879-7.5032806
		c1.3363495-1.0533485,2.3008671-2.5357018,3.83251-3.3354187c3.6149693-1.8874855,7.2577724-3.7249832,11.0306263-5.2795029
		c9.9878883-4.1152878,19.997757-8.1806355,29.4594574-13.4460382c1.9744949-1.0987949,4.0122757-2.076231,5.5173645-3.8995132
		c0.8103714-0.9816818,1.9930954-1.5898461,3.3724442-1.553793c-1.7018661,1.1601915-2.1499405,2.6644144-1.4915237,5.0432663
		c0.7916718,2.8602848,2.2438583,5.3656378,4.0902557,7.6677713c0.4383774,0.5465698,0.7937775,0.6504498,1.3657074,0.175869
		c1.6908875-1.4030895,3.39254-2.7955418,5.1376801-4.1297684c0.726944-0.5557842,0.4563751-0.9632101,0.0053787-1.4499426
		c-1.4475937-1.5622911-2.7400894-3.2315817-3.5411911-5.2302885c-0.4712296-1.1756763-0.373436-1.2586651,0.9094391-1.138237
		c5.5268402,0.5188293,11.0469513,1.1175938,16.59095,1.4390802c4.657814,0.2700958,9.3065109,0.8889217,13.9781036,0.6748371
		c6.0571289-0.2775784,12.1086197-0.6877708,18.1597137-1.0839634c3.657959-0.2395029,7.3105621-0.5606642,11.1142273-0.8567047
		c-0.8469849,2.3506823-2.1496582,4.2498131-3.6850128,5.9839993c-0.6174011,0.697341-0.6493073,1.0703592,0.1443939,1.63943
		c1.7848511,1.279705,3.5015717,2.6544971,5.2452545,3.9915733c0.3096466,0.2374344,0.5765381,0.58881,0.9760437,0.0750751
		c2.2104645-2.842392,4.0240784-5.8491669,4.2547302-9.577178c0.091217-1.4743109-0.5216522-2.4446402-1.8673248-2.98913
		c1.8109589-0.1458616,2.9689636,0.9549904,4.0524902,2.158989c0.3441467,0.3824158,0.6605682,0.7439976,1.109024,1.0421343
		c8.8989868,5.915884,18.8488464,9.6554871,28.6195068,13.7379513c5.0675659,2.1173687,10.0319061,4.4581718,15.0887146,6.5925102
		c0.284317,0.1200066,0.5492554,0.2973919,0.803009,0.4766598c12.3474121,8.7226372,19.3888855,20.7741318,21.5631561,35.5577736
		c1.3981476,9.5065079,3.740387,18.8089752,5.3299561,28.2635193c0.6953278,4.1357269,1.2913818,8.288147,1.9325714,12.4330292
		c-4.8773041,1.3366852-9.7242584,2.7628632-14.7236633,3.6478729c-3.059021,0.5415192-6.1280823,1.0443039-9.1912689,1.550148
		c-2.4340668,0.4019241-4.9407806,0.1485519-7.4164124,0.1532593c-3.8369598,0.0073166-7.6528015-0.1761093-11.4178925-0.9801178
		c0.006424-0.2779236-0.0164948-0.5599823,0.0235443-0.8328018c0.7101898-4.8389969,1.6134644-9.6413193,2.6732178-14.4167099
		c0.4210815-1.8975601,1.1762238-3.7168427,1.3225861-5.6770554c0.3049774-0.1658936,0.3160553-0.3734512,0.091217-0.6340866
		c-0.1040802,0.2180328-0.2043762,0.4169693-0.0789948,0.643013c-0.501236,0.3148499-0.5702209,0.8867645-0.7771301,1.3630371
		c-1.7913666,4.1231003-3.0579529,8.4283066-4.1745453,12.7650375c-2.4154663,9.3814621-3.9850464,18.9117355-4.934082,28.5586929
		c-0.4713135,4.7909851-0.8210602,9.5890503-1.1429749,14.3869171c-0.3204803,4.7765656-0.4871979,9.5722656-0.4906158,14.359726
		c-0.0122223,17.0743103-0.2897186,34.1485138,0.1535187,51.2236938c0.189682,7.3079681,0.2587585,14.6186981,0.5118103,21.9272461
		c0.1685333,4.8679504,0.324707,9.7367249,0.4883881,14.6051025c0.2025757,6.0246582,0.4620056,12.0448608,0.7454224,18.0659485
		c0.2346649,4.984436,0.4097137,9.9707947,0.8125,14.9457092c-7.6541748,1.0762939-15.3588867,1.3634338-23.0744476,1.4551086
		c-12.948288,0.1537781-25.8903046,0.5632019-38.8333588,0.9298096c-6.7613373,0.1914673-13.4970322-0.4650879-20.2488022-0.5759583
		c-8.7113647-0.1430054-17.4234085-0.2502441-26.1341782-0.4224243c-8.0719566-0.1594849-16.1438904-0.3657227-24.1432991-1.6237793
		c-0.2364006-0.0371704-0.4707642-0.0872803-0.7055664-0.1313171c0.5522766-3.760437,0.4843102-7.563385,0.7422867-11.3439636
		c0.3829613-5.6121521,0.5773125-11.2389221,0.7618713-16.862381c0.1466675-4.4688721,0.2878494-8.9368439,0.4793053-13.404541
		c0.2581787-6.0247192,0.372776-12.0558167,0.5228691-18.0848236c0.1044083-4.1944122,0.1779137-8.3939362,0.1947098-12.5851593
		c0.0682449-17.0319672,0.3574524-34.0655212-0.1396637-51.097641c-0.1268425-4.345932-0.250412-8.6867218-0.4991493-13.0291138
		c-0.2458115-4.2913055-0.5758209-8.5695953-0.994976-12.8463898c-0.4458656-4.5494232-1.0501556-9.068306-1.8188705-13.5770264
		c-1.0780983-6.3233795-2.288002-12.6080475-4.1808014-18.7436981c-0.5832748-1.8907318-1.0551758-3.8256378-1.8989029-5.694313
		c-0.301857,0.297966-0.245224,0.5402145-0.2063065,0.7647934c0.5728493,3.3060379,1.2751579,6.5955887,1.6916161,9.9209976
		C42.2031326,110.1012878,43.0151329,112.9762115,42.9015503,115.9582062z"></path>
</g>
<g onclick="select(this)" class="" id="estampa-secundaria" fill="#9e9e9e">
	<path d="M57.4478302,284.9138489c-0.129715-6.3565063-0.2334023-12.7136841-0.394516-19.0693665
		c-0.3446465-13.5961761-0.2547607-27.1930542-0.0746117-40.7893524c0.0852776-6.4360352,0.2989998-12.8705139,0.4722672-19.3052063
		c0.0267487-0.9933777,0.1490479-1.9841919,0.2688293-2.9745941c0.2284775,4.8349457,0.3048363,9.671051,0.4034386,14.5070801
		c0.3334961,16.3559875,0.2775841,32.7126617,0.0979958,49.0691223c-0.0680275,6.1959229-0.2599754,12.3905334-0.3954391,18.5857239
		C57.690136,285.0855713,57.5635338,285.0877075,57.4478302,284.9138489z"></path>
	<path d="M169.4645691,285.1234741c-0.2721252-4.1092529-0.2160034-8.226532-0.3025208-12.340332
		c-0.3589478-17.0670013-0.3008728-34.1352539-0.1085358-51.2031708c0.0607758-5.3939056,0.2469635-10.7864075,0.3794403-16.1794739
		c0.0156403-0.6364136,0.0545197-1.2722626,0.1786346-1.908783c0.0799103,1.5539703,0.1999512,3.1071167,0.2325592,4.6620789
		c0.1214905,5.793808,0.2753754,11.5869598,0.4004059,17.3806305c0.27005,12.5112305,0.2276764,25.0213928,0.063797,37.5314636
		c-0.0962982,7.3513489-0.338562,14.7007446-0.5151825,22.0510559
		C169.6853638,285.206604,169.5757751,285.2053223,169.4645691,285.1234741z"></path>
	<path d="M167.0851593,285.2984314c-0.1451416-4.8349609-0.2724915-9.6699829-0.2839966-14.5078125
		c-0.020813-8.7578125-0.2495422-17.5144348-0.1536407-26.2729797c0.0752869-6.8777466,0.097702-13.7567291,0.2541962-20.6326752
		c0.0800629-3.5176849,0.0882111-7.0368347,0.2115326-10.5531616c0.0475616-1.3558655,0.1733398-2.7089996,0.2823181-4.3463287
		c0.106842,2.6710663,0.2402344,5.0576019,0.2903595,7.4458923c0.1233063,5.8766174,0.2605133,11.7530518,0.3810272,17.6296844
		c0.2164764,10.5578918,0.1852875,21.1151733,0.0671539,31.6718292c-0.0491791,4.3972168-0.0637054,8.797821-0.2303314,13.1924438
		c-0.0801849,2.1151428-0.0691223,4.2332153-0.2073822,6.3460083
		C167.4976044,285.3922729,167.2931976,285.3862915,167.0851593,285.2984314z"></path>
	<path d="M59.5717697,285.0665588c-0.0728989-2.0757141-0.1713676-4.1509094-0.2145882-6.2272644
		c-0.3053627-14.6694641-0.4183197-29.3405304-0.2212143-44.0120544c0.0885811-6.5933533,0.2883911-13.1853333,0.4581146-19.7774048
		c0.0555-2.1555786,0.1754112-4.3094788,0.2855721-6.4646149c0.2647171,3.3947144,0.2948532,6.7973022,0.3810997,10.1992798
		c0.220871,8.7128143,0.241539,17.4270935,0.2845955,26.1414795c0.0523376,10.5925598-0.0474129,21.1843414-0.1524963,31.7760468
		c-0.0277443,2.7965393-0.1342392,5.5922852-0.2045708,8.3883972
		C59.9792557,285.173584,59.7737045,285.1668396,59.5717697,285.0665588z"></path>
	<path d="M61.5458298,285.1613159c-0.0991249-9.1116333-0.2254753-18.223053-0.28965-27.3349915
		c-0.0627747-8.9128876,0.1299706-17.8243713,0.2913513-26.7352448c0.0875359-4.8337097,0.2701607-9.6656799,0.4135017-14.4983368
		c0.013607-0.4586639,0.053051-0.9165497,0.2801361-1.3860168c0.0301971,0.3671265,0.0835114,0.734024,0.0871811,1.1014252
		c0.0825348,8.272644,0.2991142,16.542984,0.3956604,24.8158112c0.1077385,9.2328186,0.1079369,18.464325,0.0526848,27.6963196
		c-0.032753,5.4729309-0.15028,10.945343-0.2296944,16.4179688
		C62.2027168,285.3500366,61.8654823,285.3701477,61.5458298,285.1613159z"></path>
	<path d="M164.7302399,285.3575134c-0.0192871-0.3586121-0.0504456-0.7171021-0.0561829-1.0759277
		c-0.2246246-14.0329285-0.335434-28.0667419-0.1706848-42.1008606c0.0957031-8.1545105,0.2789612-16.3079987,0.4267731-24.4618683
		c0.0041046-0.2270203-0.059494-0.4733734,0.1562042-0.7214966c0.3416595,0.203125,0.2249298,0.54953,0.2329254,0.8230896
		c0.1071472,3.6761627,0.2066803,7.3525848,0.2998199,11.0291443c0.3209534,12.6704254,0.5131989,25.3433685,0.3394012,38.0167694
		c-0.0843658,6.153717,0.0186157,12.3128967-0.3514862,18.4617004
		C165.318222,285.4407349,165.0259552,285.4502258,164.7302399,285.3575134z"></path>
	<path d="M141.1363678,285.8185425c-0.0159912-0.2788391-0.0441742-0.5576477-0.0461884-0.8365784
		c-0.0651703-9.0742493-0.2146454-18.1481628-0.1123657-27.223053c0.0697937-6.1954803,0.1396942-12.3910675,0.2320099-18.5862885
		c0.0601654-4.036377,0.1681824-8.072052,0.234436-12.1083679c0.0092773-0.5643921,0.1281891-1.0989532,0.2999573-1.6442261
		c0.0841064,2.1425018,0.2006683,4.284317,0.2461853,6.4276428c0.1358032,6.3943329,0.293045,12.7881165,0.4059143,19.1831665
		c0.1792145,10.1542816,0.1281128,20.3074188,0.0639191,30.4612885c-0.009079,1.437439-0.0895691,2.8744202-0.1370087,4.3116455
		C141.9288483,285.908844,141.533493,285.934845,141.1363678,285.8185425z"></path>
	<path d="M84.1079407,285.6448669c-0.0975342-11.2383728-0.1613007-22.4771729-0.0060501-33.7150879
		c0.0944366-6.8362274,0.2921906-13.6711121,0.4629745-20.5061493c0.0507278-2.0305176,0.1674194-4.0593414,0.2906265-6.0887604
		c0.3333893,3.626358,0.2857742,7.264328,0.3896942,10.8975525c0.2321396,8.1159821,0.151001,16.2349854,0.2815399,24.3511658
		c0.1344376,8.3582764-0.106842,16.7121277-0.102005,25.0682068
		C84.9848175,285.8345032,84.5457611,285.8575134,84.1079407,285.6448669z"></path>
	<path d="M86.2501755,285.6704102c-0.0066376-2.5985413-0.0023499-5.1971436-0.0218964-7.7955627
		c-0.0694656-9.2362976,0.0985947-18.4707642,0.2421417-27.704834c0.0863419-5.5544281,0.2960129-11.1069641,0.4556656-16.6601868
		c0.0291748-1.0147705,0.0464859-2.0340881,0.4764862-3.2143402c0,3.3517914-0.0952301,6.4943848,0.0238876,9.6288605
		c0.1518936,3.9968567,0.0993423,7.9943695,0.2054901,11.9901123c0.2962799,11.1530762,0.1286545,22.308136,0.1530228,33.4623413
		c0.0002594,0.1176453-0.025589,0.2353821-0.0392456,0.3530579
		C87.2415924,285.8512878,86.7412949,285.8764343,86.2501755,285.6704102z"></path>
	<path d="M138.7801361,285.9142761c-0.0482788-10.9078369-0.0956421-21.81604,0.0593719-32.723053
		c0.1066895-7.5067444,0.3101349-15.012085,0.4680939-22.4126434c0.1657104,0.9439087,0.3051147,1.9995422,0.3290863,3.0737152
		c0.0953827,4.2726746,0.1809692,8.5458527,0.3206635,12.8171844c0.2612,7.9874573,0.2358093,15.9776459,0.2844696,23.9673004
		c0.030899,5.0710144,0.0092163,10.1416016-0.0972748,15.2117004
		C139.7014771,286.1137695,139.2442017,286.0841675,138.7801361,285.9142761z"></path>
	<path d="M183.7770081,222.8158569c-0.1772766,0.2886505-0.1600037,0.6128693-0.1676636,0.9316101
		c-0.0759125,3.1573486-0.1433411,6.3149261-0.2278595,9.4720306c-0.1012726,3.7819977-0.2168884,7.5635986-0.4207306,11.3451691
		c-0.0826416-1.3944092-0.2152252-2.7879639-0.2398834-4.1833954c-0.1745605-9.8760071-0.3191986-19.7523193-0.4100952-29.6297913
		c-0.0526428-5.7185059-0.0500488-11.436264-0.0510864-17.1543884c-0.0000916-0.4937134-0.1856079-1.05513,0.3113098-1.4538879
		c0.6467743,2.2012634,1.1086273,4.4403076,1.3730469,6.7196808c-0.0360718,0.5433044-0.1012268,1.0864716-0.1035919,1.6299286
		c-0.0192261,4.4142303-0.0292511,8.8285217-0.0332184,13.2427826c-0.000351,0.3884735-0.0787659,0.8031769,0.2075653,1.1448364
		c-0.1454468,1.5700378-0.1876831,3.1589966-0.4706726,4.7038269
		C183.3362579,220.7190399,183.4321747,221.7579193,183.7770081,222.8158569z"></path>
	<path d="M136.5938721,286.0063477c-0.0200195-0.357666-0.0583954-0.7153931-0.0573273-1.0730286
		c0.0258026-8.7164307,0.0100098-17.4332886,0.1000366-26.1491089c0.0672913-6.5140839,0.271286-13.0267639,0.4172211-19.5400085
		c0.0107117-0.477478,0.0443726-0.9544525,0.1386261-1.4326477c0.088089,1.2696533,0.2209473,2.5380707,0.2563324,3.8091888
		c0.1323547,4.7549744,0.2112122,9.5114288,0.349762,14.2662354c0.2830353,9.7130585,0.2260437,19.42836,0.230545,29.1433563
		c0.0001526,0.3162537-0.0449219,0.6325378-0.0689392,0.948822
		C137.5074005,286.1231689,137.0514221,286.1037903,136.5938721,286.0063477z"></path>
	<path d="M88.5873642,285.7471619c-0.0250626-0.3965149-0.0734558-0.7931213-0.0717621-1.1895447
		c0.0369492-8.5979614,0.0320663-17.1964722,0.1370926-25.7936096c0.0737305-6.0353546,0.291153-12.069046,0.4644699-18.1029358
		c0.0250473-0.8719788,0.1624985-1.7407379,0.3933563-2.6063385c0,0.550827-0.0052185,1.1017151,0.0008087,1.6524811
		c0.0546799,4.9973755,0.2084198,9.9930267,0.3122406,14.9892731c0.2060699,9.916275,0.1768875,19.8322906,0.1870193,29.7488251
		c0.0004425,0.4375-0.036087,0.8751221-0.055397,1.3126526C89.4983673,285.8663635,89.0423431,285.8735352,88.5873642,285.7471619z"></path>
	<path d="M44.9251366,200.42099c0.233242,1.94841,0.0913773,3.904007,0.0826492,5.8549347
		c-0.0214272,4.7932739-0.0914459,9.5864105-0.1579895,14.3793945c-0.0787392,5.6715698-0.1626091,11.3431244-0.2693977,17.0142059
		c-0.0345078,1.8324738-0.1484184,3.6634064-0.4224434,5.4986725c0-0.4022827,0.0088158-0.8047943-0.0013618-1.2068329
		c-0.1000748-3.9525757-0.1415672-7.9078827-0.3218613-11.856842c-0.2078209-4.5518188-0.0968704-9.1071014-0.2580643-13.6568909
		c-0.1075439-3.0354767-0.0835152-6.0700226-0.1291733-9.1048126c-0.0081825-0.5436096-0.0343399-1.0869598-0.0521965-1.6304321
		C43.6609192,203.8779449,44.2384949,202.1336975,44.9251366,200.42099z"></path>
	<path d="M90.7688599,285.7647705c-0.0788651-3.9526062-0.0250854-7.9042969,0.0897446-11.8554077
		c0.0092773-0.3190308,0.0472717-0.6376343,0.0475311-0.9563904c0.0052719-6.6309204,0.2988586-13.2555542,0.4373779-19.8835449
		c0.0256958-1.2292938,0.1447754-2.4566498,0.2084427-3.4858551c0.2884216,2.7849884,0.2690582,5.7810059,0.3429108,8.7746124
		c0.1979828,8.026062,0.2699127,16.0532532,0.3123856,24.0811462c0.0059128,1.1166687,0.043663,2.2331543,0.0666733,3.3497314
		C91.7707825,285.8710632,91.2687607,285.8832092,90.7688599,285.7647705z"></path>
	<path d="M134.2755432,286.0534973c0.0736847-7.3172607,0.1086426-14.6351929,0.2440491-21.9512939
		c0.04216-2.2772522,0.1252136-4.5559692,0.1423798-6.8340759c0.0180664-2.3997803,0.153656-4.7914581,0.3628845-7.1837158
		c0.0896759,2.1057892,0.2190094,4.2108307,0.2613068,6.3175964c0.1098785,5.4769287,0.2983551,10.9516602,0.375351,16.4299316
		c0.0617828,4.3973999,0.1730347,8.7937927,0.1355591,13.1921692
		C135.2918243,286.1336975,134.7842407,286.1220398,134.2755432,286.0534973z"></path>
	<path d="M132.0807495,286.0938721c0.0773468-5.8279724,0.1033173-11.6572876,0.2547607-17.4833374
		c0.0705414-2.7134094,0.0894012-5.427124,0.1581573-8.1401672c0.0423126-1.6688843,0.0138702-3.3421021,0.3804932-4.9905548
		c0.0097809-0.0065918,0.0252838-0.0170593,0.0408173-0.0275116c-0.0250702,0.0306396-0.0727539,0.0618439-0.0720062,0.0917816
		c0.2360535,9.2573395,0.5976563,18.5117035,0.6408691,27.7735748c0.0042725,0.916626,0.0483398,1.8330688,0.0739441,2.7495728
		C133.0665131,286.1359253,132.5772247,286.3146667,132.0807495,286.0938721z"></path>
	<path d="M92.9820557,285.7935181c0.1910858-6.146637,0.1721573-12.2970886,0.3664932-18.4444885
		c0.1185837-3.7512207,0.354805-7.4995117,0.3441772-11.2570496c0.1777573,1.3590088,0.3418884,2.7128906,0.3584824,4.0859985
		c0.0946198,7.8281555,0.3525848,15.6540222,0.3298645,23.4839478c-0.0020828,0.7171936,0.0403748,1.4345093,0.0621567,2.1517334
		C93.9551086,285.8833618,93.4678574,285.8908386,92.9820557,285.7935181z"></path>
	<path d="M95.3352585,285.819519c0.0326385-4.8671875,0.161911-9.7317505,0.3497162-14.5955505
		c0.0954742-2.4721069,0.1116333-4.9473267,0.1622391-7.4211121c0.0113449-0.5546875,0.0112457-1.1103516,0.3239517-1.736084
		c0.1546555,8.0012207,0.3071823,15.892395,0.4597168,23.7836304
		C96.1946487,286.0231628,95.7638092,285.9690552,95.3352585,285.819519z"></path>
	<path d="M129.9139862,286.1711121c0.1530762-8.0198669,0.3061523-16.0397644,0.4623871-24.2253723
		c0.2247467,0.9318848,0.3226471,1.7084351,0.339447,2.506073c0.1110535,5.2696838,0.2213898,10.5395508,0.3747864,15.808136
		c0.0569305,1.9552612,0.1625671,3.9086609,0.1238556,5.8656921
		C130.7884064,286.3534241,130.3531647,286.3188477,129.9139862,286.1711121z"></path>
	<path d="M127.7856827,286.2382507c0.1772995-5.948822,0.0844879-11.9047852,0.5130234-17.8504028
		c0.0617828,1.2703552,0.1504059,2.5401001,0.1805115,3.8112488c0.1106415,4.6705322,0.4475555,9.3357239,0.3381958,14.0115051
		C128.4772949,286.3609619,128.1325989,286.341156,127.7856827,286.2382507z"></path>
	<path d="M97.7298737,285.8904114c-0.0840378-4.7142639,0.1984177-9.4190369,0.3670807-14.1267395
		c0.0408554-1.1400757,0.1062775-2.2792969,0.1804047-3.4181213c0.3309555,5.862793,0.3110428,11.7339783,0.5031204,17.5992737
		C98.4228363,286.070343,98.0682983,286.1358948,97.7298737,285.8904114z"></path>
	<path d="M125.6506577,286.2756653c0.0834351-3.8816833,0.1668549-7.7633362,0.2487564-11.5742493
		c0.3545837,0.8952026,0.714035,8.1891174,0.5444794,11.5506287
		C126.1822052,286.3511963,125.9179153,286.3633423,125.6506577,286.2756653z"></path>
	<path d="M100.1120071,285.9992371c-0.0713806-3.7420349,0.1751251-7.4730835,0.3272629-11.4137268
		c0.3189774,0.434845,0.2367706,0.7463684,0.2399673,1.0235596c0.0399323,3.4667969,0.0699158,6.9337158,0.1024551,10.4006042
		C100.557106,286.0936279,100.3337326,286.0992737,100.1120071,285.9992371z"></path>
	<path d="M43.9550171,283.1150513c0.0971527-2.8311768,0.1943054-5.6623535,0.2951851-8.6022949
		c0.3073235,2.978363,0.3671913,5.8562317,0.3513031,8.7370605
		C44.342926,283.4115601,44.1566925,283.2262878,43.9550171,283.1150513z"></path>
	<path d="M182.7024536,283.7772217c-0.0421295-2.7453308-0.0718842-5.4901428,0.3227844-8.3323364
		c0.0916443,2.8098145,0.1795502,5.5046692,0.2674561,8.1994934
		C183.1180725,283.7870178,182.940094,283.9146729,182.7024536,283.7772217z"></path>
	<path d="M102.4295578,286.0480957c0.0608139-1.5888672,0.1216354-3.1777344,0.182457-4.7666321
		c0.3056335,1.5812073,0.3293839,3.1739197,0.3034515,4.7694397
		C102.753067,286.1253967,102.5910568,286.1322327,102.4295578,286.0480957z"></path>
	<path d="M46.3725586,283.6124878c0-1.0596008,0-2.1192017,0-3.3826599
		c0.2812271,1.2660217,0.4200058,2.3400879,0.3256874,3.4363403
		C46.5762329,283.7298584,46.4678802,283.7106934,46.3725586,283.6124878z"></path>
	<path d="M123.6345901,286.2944336c0-0.7774963,0-1.5550537,0-2.33255
		c0.0849304-0.0020447,0.1698608-0.0041504,0.2547913-0.0061951c0.3028717,0.7490234,0.1389618,1.5522156,0.1553345,2.3345032
		C123.9088364,286.3722229,123.77211,286.3713989,123.6345901,286.2944336z"></path>
	<path d="M173.9376526,190.1466827c0.2129211,0.3114624,0.194931,0.8658905,0.2128906,1.4053802
		c0.1157074,3.4750214,0.2390747,6.9498901,0.3302002,10.4255981c0.3362885,12.8276215,0.530304,25.6572266,0.4145813,38.4894714
		c-0.0547791,6.0754547-0.1430664,12.1509247-0.2692261,18.2252808c-0.1078796,5.1938171-0.2899017,10.3861084-0.443924,15.578949
		c-0.0172119,0.5803528,0.012558,1.1764526-0.2636414,1.5674744
		C173.1940918,247.3096619,173.082962,218.6633759,173.9376526,190.1466827z"></path>
	<path d="M132.8141937,139.9528503c1.1087952,28.6256714,1.0495605,57.4083099-0.0052795,85.9110107
		c-0.2605591-1.2115479-0.2684326-2.7237854-0.2934265-4.2342224c-0.0258331-1.5597534-0.0184174-3.1204224-0.066925-4.6793823
		c-0.1990356-6.396698-0.1571045-12.7968445-0.2798767-19.193985c-0.1965027-10.2390594-0.1354065-20.4772339-0.0623169-30.7158661
		c0.0316772-4.4387054,0.1134033-8.8771362,0.1896973-13.3153839c0.0604858-3.5183258,0.1433258-7.0363007,0.2247925-10.5542145
		C132.5475311,142.0193481,132.5532227,140.8634796,132.8141937,139.9528503z"></path>
	<path d="M132.814682,24.0351143c1.1114502,28.4671097,1.042511,57.1253471,0.0059357,85.5791626
		c-0.2380371-0.9891586-0.2827454-2.2067184-0.2945099-3.4262085c-0.0721588-7.4763947-0.2533569-14.9510422-0.3536224-22.4271698
		c-0.1442566-10.7560806-0.1592102-21.5109673-0.0705414-32.2666092c0.0388947-4.7173653,0.1206818-9.4344597,0.200531-14.1513786
		c0.0568237-3.3574524,0.1511383-6.7142696,0.2115784-10.0716782
		C132.5349121,26.1130791,132.640686,24.9672871,132.814682,24.0351143z"></path>
	<path d="M93.7076721,139.6368561c0.1907959,1.1999664,0.3089294,2.5444946,0.3246231,3.9013367
		c0.0859451,7.4347992,0.2643509,14.8680267,0.3597717,22.3029938c0.1118393,8.7151947,0.1288605,17.4293365,0.0738373,26.1439819
		c-0.0393753,6.2357941-0.0892639,12.4725494-0.242775,18.7062073c-0.0885849,3.5966644-0.1133194,7.1936035-0.1865692,10.7900543
		c-0.0309219,1.5187073-0.1377563,3.0279999-0.3462601,4.6188507c-0.1236649-5.0472412-0.1843796-10.0112915-0.3857727-14.9696503
		c-0.1655502-4.0761719-0.1150665-8.153244-0.2253265-12.2284851c-0.2660751-9.8330841-0.1934814-19.667923-0.0934219-29.5013428
		c0.0748215-7.3533478,0.254631-14.706604,0.4824524-22.0569611
		C93.549263,144.7296143,93.562851,142.1141663,93.7076721,139.6368561z"></path>
	<path d="M87.2136078,200.9710541c-0.1987686-0.5959778-0.244194-1.4971161-0.2681885-2.3993683
		c-0.1126785-4.2365112-0.1898956-8.4742126-0.3379135-12.7094727c-0.1997452-5.7159271-0.1543655-11.4350891-0.2788773-17.1511383
		c-0.1498413-6.8781891-0.0981369-13.7552338-0.0617065-20.6327667c0.0220261-4.1580963,0.0777435-8.3165894,0.1754227-12.4735718
		c0.1483765-6.314743,0.3451233-12.6283264,0.525032-18.9423065c0.0200653-0.7043839,0.0409775-1.4120712,0.2458954-1.8423996
		C88.0598297,143.4754639,87.9497833,172.3563232,87.2136078,200.9710541z"></path>
	<path d="M46.4676933,134.694046c-1.0471611-28.6432037-1.1096306-57.1739502-0.0105972-85.574234
		c0.2598801,1.1715965,0.3064346,2.4971275,0.3232155,3.8278732c0.0886955,7.0340958,0.2300186,14.0674934,0.3391342,21.1012154
		c0.1568947,10.1136169,0.1249046,20.2256546,0.0585442,30.3384399c-0.0333023,5.0758209-0.1187096,10.1513901-0.1984634,15.226799
		c-0.0602837,3.8361816-0.1332207,7.6723175-0.2346001,11.5075912
		C46.714447,132.2747192,46.5696144,133.4246674,46.4676933,134.694046z"></path>
	<path d="M102.7158279,165.1449738c0.9459915,28.3860321,0.8348846,56.7774811-0.0002747,85.1688232
		C101.5849075,221.9271851,101.5332947,193.5395203,102.7158279,165.1449738z"></path>
	<path d="M93.7268066,24.12813c0.3404007,2.0864201,0.3001633,4.2457943,0.3556366,6.4013672
		c0.1779556,6.91609,0.1907654,13.8346233,0.3130875,20.7510395c0.1577301,8.9183197,0.1048126,17.8353462,0.057518,26.7528648
		c-0.0290527,5.478035-0.123558,10.9558182-0.2078018,16.4334183c-0.0602646,3.9178772-0.1668015,7.8350677-0.2219849,11.7529984
		c-0.0185165,1.3147659-0.2199707,2.6072235-0.2909317,3.6694031C92.6849365,81.4278183,92.6119843,52.7264214,93.7268066,24.12813z
		"></path>
	<path d="M62.1138878,183.8972321c-1.089592-28.1978607-1.1435776-56.3961411-0.0707741-84.8334503
		c0.336174,0.4512939,0.2766228,0.7682648,0.2812729,1.0502625c0.1245041,7.5554276,0.2249565,15.1112747,0.3663063,22.6663742
		c0.1750259,9.3553391,0.1669197,18.7111435,0.0987091,28.0668259c-0.0498428,6.8364868-0.1574783,13.6726227-0.2537537,20.5086975
		c-0.0540466,3.8373718-0.1347084,7.6743622-0.2120094,11.5113678
		C62.3167191,183.2108002,62.3993874,183.5725861,62.1138878,183.8972321z"></path>
	<path d="M126.0429688,43.3906441c1.1792984,28.1109505,1.1287613,56.2214928,0.0873337,84.5526886
		c-0.3524551-0.4249191-0.2652512-0.7412491-0.2694016-1.016571c-0.1325684-8.7924347-0.2342529-17.5854111-0.3932953-26.3773499
		c-0.1691895-9.3529129-0.1319199-18.705925-0.0783691-28.0588455c0.0324936-5.6752777,0.0936966-11.3515472,0.2456589-17.0245895
		c0.1006165-3.7559662,0.1426468-7.5120926,0.2202072-11.267952
		C125.860672,43.928463,125.7984314,43.6471939,126.0429688,43.3906441z"></path>
	<path d="M46.4213333,250.6315765c-0.1104279-4.2162781-0.1908531-8.2934265-0.3304329-12.3685455
		c-0.1861649-5.4351044-0.1777534-10.8734436-0.3108711-16.3086548c-0.1625633-6.6372223-0.1000404-13.2739258-0.1146202-19.9109344
		c-0.0055771-2.5390625-0.2659607-5.0784912,0.0914955-7.6192017c0.1212845-0.8620605,0.0542946-1.7537994-0.1153717-2.6274109
		c-0.1225548-0.6310425-0.0959167-1.2810669-0.0034103-1.9123688c0.2389183-1.6304626,0.1133728-3.2751617,0.2183647-4.9039459
		c0.2905769-4.5076447,0.1407509-9.0236359,0.380722-13.5315704c0.1187935-2.2315674,0.0206375-4.4746704,0.1029968-6.7139282
		c0.4140129,1.2322693,0.4103317,2.4998779,0.4274559,3.7629395c0.0943108,6.9563599,0.2378044,13.9120178,0.3462296,20.868103
		c0.1639252,10.5166779,0.1363564,21.0318298,0.058239,31.547699c-0.0403938,5.4372864-0.1013908,10.8752899-0.2416534,16.3106842
		c-0.0794258,3.077774-0.1026154,6.1556396-0.1579933,9.2332764
		C46.7480431,247.8158569,46.6503563,249.1637726,46.4213333,250.6315765z"></path>
	<path d="M53.2245369,158.4618835c-1.1160316-27.956543-1.1653976-55.9146652-0.082798-84.0500946
		c0.3766136,0.3692856,0.2762985,0.6952744,0.2807922,0.9681473c0.1329956,8.0753021,0.2350311,16.1511765,0.3902092,24.2260208
		c0.1744156,9.0759048,0.1287651,18.1520538,0.0793266,27.2280273c-0.0333176,6.1169281-0.0897751,12.2349091-0.2464523,18.3495636
		c-0.1054916,4.1171112-0.1427574,8.2343597-0.2232475,12.3512878
		C53.4163399,157.8432159,53.4925461,158.1654663,53.2245369,158.4618835z"></path>
	<path d="M53.2264175,274.3841248c-1.1194763-27.9566956-1.1694336-55.9149017-0.0824699-84.0552826
		c0.3722649,0.3761292,0.2725983,0.7008667,0.2771111,0.9740295c0.1333847,8.0752563,0.2361565,16.1510773,0.3917503,24.2258759
		c0.1748886,9.0759735,0.1285133,18.1521759,0.0792236,27.2281952c-0.0332222,6.1169434-0.0909729,12.2348938-0.2461662,18.3496552
		c-0.1034813,4.0770874-0.1435738,8.1542969-0.2211609,12.2312622
		C53.4180908,273.68573,53.4958801,274.0470581,53.2264175,274.3841248z"></path>
	<path d="M123.8241272,165.137558c1.1789169,28.4701996,1.124382,56.936264,0.000412,85.4013214
		C122.9970322,222.0710449,122.8956223,193.602951,123.8241272,165.137558z"></path>
	<path d="M141.7547302,109.3575974c0.5026245,14.3798065,0.7891998,28.6687698,0.7782898,42.9636765
		c-0.0108795,14.2414703-0.3241425,28.477005-0.7989197,42.7221069c-0.3650513-0.4513245-0.2527161-0.9905396-0.2615814-1.4897461
		c-0.0623779-3.5171814-0.0644836-7.0358124-0.1609039-10.5519104c-0.1961517-7.1526794-0.1550446-14.3077698-0.27211-21.4606018
		c-0.1111908-6.795166-0.08461-13.5891113-0.0511169-20.3833771c0.0283813-5.7550049,0.1218262-11.5098267,0.2098999-17.2643585
		c0.0654297-4.275589,0.1717224-8.5505295,0.2503967-12.825943
		C141.4589539,110.5092545,141.528595,109.9704971,141.7547302,109.3575974z"></path>
	<path d="M173.931366,157.8392639c-0.8336182-28.0922241-0.7457428-55.9359207-0.0158081-83.6505051
		c0.2354126,0.3401718,0.2184906,0.8945236,0.2357025,1.434639c0.1209259,3.794693,0.2470398,7.5892715,0.3483734,11.3845062
		c0.3382568,12.6673813,0.5090332,25.3369217,0.392868,38.0087509c-0.0545959,5.9553452-0.1494293,11.9105453-0.2682648,17.8649521
		c-0.0908813,4.5543365-0.2458649,9.1074371-0.3804321,13.6608276
		C174.2334442,156.8925629,174.315918,157.263916,173.931366,157.8392639z"></path>
	<path d="M180.7613983,167.8322601c1.1710052,27.8589172,1.0061798,55.7223969,0.0543671,83.4066467
		c-0.0375671-0.1531677-0.1513672-0.4907532-0.1972351-0.8373871c-0.0522308-0.3947754-0.0530548-0.7974396-0.0604553-1.1969604
		c-0.1150055-6.1941986-0.2351074-12.3883057-0.3389435-18.5827026
		c-0.2157288-12.8706512-0.2688599-25.7420959-0.1283722-38.6138458c0.0545349-4.9957886,0.1116638-9.9922485,0.2492065-14.9861298
		c0.0737305-2.6769867,0.0931549-5.3541412,0.1614075-8.0306396
		C180.5112305,168.6045837,180.4242401,168.1974335,180.7613983,167.8322601z"></path>
	<path d="M102.6071167,131.8944092c-1.070961-7.9386978-1.0239868-72.6366425,0.0600357-82.6786804
		C103.6812134,53.6305313,103.626915,128.3965454,102.6071167,131.8944092z"></path>
	<path d="M55.4575691,281.5044556c-1.0986824-28.5223846-1.1736145-57.0427551,0.0100975-85.5606689
		C56.3885269,224.4658356,56.2922173,252.9858856,55.4575691,281.5044556z"></path>
	<path d="M165.2084961,185.2874756c-0.9604187-4.5096741-0.9974823-78.8961563-0.1014404-82.4127731
		c0.3283997,0.2466965,0.2471924,0.5745544,0.2552338,0.8497009c0.0933838,3.1953659,0.1826172,6.3908691,0.2642365,9.5865631
		c0.3204498,12.5458679,0.4832306,25.093956,0.3432465,37.6432419c-0.0945129,8.4710388-0.2951202,16.9409637-0.4632263,25.411087
		c-0.0515289,2.5965729-0.1513367,5.192215-0.2324829,7.7881775
		C165.2622223,184.5317841,165.2308502,184.9094849,165.2084961,185.2874756z"></path>
	<path d="M126.0246887,243.6448975c-0.7141876-27.5107727-1.0124741-55.0211792,0.048912-82.5292511
		C127.2304306,188.6257782,127.1423035,216.1353912,126.0246887,243.6448975z"></path>
	<path d="M55.5452957,80.0272446c0.8277855,28.0588837,0.7533302,56.1330338,0.0268059,84.424202
		c-0.3926735-0.4575653-0.2889824-0.82341-0.2973976-1.1361542c-0.1192741-4.4345093-0.1875954-8.8707123-0.3435287-13.3038635
		c-0.2178574-6.1933289-0.1454697-12.3901978-0.2878494-18.5833588c-0.1203918-5.2366943-0.0921822-10.4721298-0.0638199-15.7077255
		c0.0303154-5.5955734,0.1079254-11.1914444,0.2273903-16.7858505c0.123703-5.7928467,0.3195534-11.5841827,0.4932632-17.3758926
		C55.3154335,81.0494308,55.2293129,80.5154343,55.5452957,80.0272446z"></path>
	<path d="M180.772049,52.1297798c1.1041565,26.9603767,1.0395203,53.9213066,0.095459,80.8575439
		c-0.3435211-0.6035767-0.3492126-0.6034851-0.363327-1.4252625c-0.0969391-5.6357956-0.1928558-11.2715988-0.2861481-16.9074554
		c-0.2144318-12.9528427-0.2672882-25.9063492-0.124588-38.8602295c0.0541534-4.916626,0.109848-9.8339462,0.2468567-14.7486534
		c0.0724335-2.5975189,0.0918732-5.1951256,0.1571655-7.7921753
		C180.5069427,52.8766136,180.4104614,52.4722481,180.772049,52.1297798z"></path>
	<path d="M100.4999542,243.5670166c-1.1276321-28.0649872-1.1805573-56.125351-0.0933228-84.2650604
		c0.2961426,0.9405518,0.3035889,1.8339844,0.3169556,2.7304688c0.1435928,9.6356354,0.3433456,19.27005,0.4056015,28.9073792
		c0.0359039,5.5578308,0.0695877,11.1156158,0.0412521,16.6730042c-0.0358963,7.0372467-0.0956192,14.0751495-0.2411118,21.1107635
		c-0.0876465,4.2373352-0.1496124,8.474823-0.2287827,12.7121429
		C100.6872559,242.1471558,100.569458,242.8566284,100.4999542,243.5670166z"></path>
	<path d="M100.5085297,127.6288986c-1.1351929-28.0298538-1.1902161-56.0910645-0.0989761-84.3641663
		c0.2427979,1.0248528,0.303215,1.8573036,0.3149109,2.7041817c0.1325378,9.5961952,0.3448792,19.1908493,0.4039078,28.7886734
		c0.0331955,5.3980026,0.0728989,10.7960587,0.044075,16.1936798c-0.0390778,7.3174362-0.0977478,14.6355133-0.2456284,21.9513397
		c-0.0840378,4.1575241-0.1418304,8.3153229-0.2250824,12.4727173
		C100.6866684,126.1275024,100.575386,126.8777542,100.5085297,127.6288986z"></path>
	<path d="M182.9608917,44.3649483c1.1682129,28.3245964,1.0982361,56.6461067,0.0523834,84.866272
		c-0.1681366-1.4029846-0.2775116-2.9107513-0.3000793-4.4295273c-0.1455231-9.7927094-0.305542-19.5849686-0.3993835-29.3786392
		c-0.0559082-5.8362732-0.0840759-11.6719513-0.0541687-17.507576c0.0336151-6.5554657,0.0822449-13.1119995,0.2414551-19.6652184
		c0.0864105-3.5562134,0.1082153-7.1135635,0.223465-10.6686974
		C182.7593689,46.5079269,182.879715,45.4370728,182.9608917,44.3649483z"></path>
	<path d="M167.3947144,93.3921432c1.1216583,28.4430847,1.0718689,56.8943253,0.0145874,85.4314194
		C166.5401306,168.2858887,166.3641968,107.342453,167.3947144,93.3921432z"></path>
	<path d="M84.9100418,194.3564301c-0.6096725-14.2683716-0.8971558-28.5764465-0.8979797-42.8905945
		c-0.000824-14.2898712,0.286026-28.5744629,0.8085175-42.736763c0.2494583,0.4779205,0.2552109,1.1340942,0.2649689,1.7950287
		c0.1639709,11.115303,0.3665009,22.2295609,0.446312,33.3466263c0.0818253,11.3973999-0.1069412,22.7909698-0.1889267,34.1860809
		c-0.0287552,3.9978943-0.1357956,7.9953766-0.2296066,11.9925385
		C85.0796051,191.4858398,84.9797287,192.9207764,84.9100418,194.3564301z"></path>
	<path d="M123.7842407,52.0649185c0.346199,0.2103271,0.254837,0.4722176,0.2615585,0.6857452
		c0.0917892,2.9167061,0.1612625,5.8341484,0.2597351,8.7506218c0.2159042,6.3948784,0.1905441,12.7937737,0.327301,19.189373
		c0.1419601,6.6382751,0.1449203,13.2761917,0.0425873,19.9121323c-0.0733643,4.757576-0.068306,9.5162582-0.1864166,14.2729111
		c-0.1399078,5.634758-0.3047028,11.2689133-0.4611816,16.9032593c-0.0054626,0.1968384-0.0371475,0.3929596-0.0638657,0.662796
		c-0.4839249-0.2443085-0.3040009-0.6531677-0.3117065-0.9479523c-0.0919571-3.517067-0.1718979-7.0345383-0.2328644-10.5522995
		c-0.2640686-15.2346191-0.3581085-30.4702682-0.215126-45.7066727c0.0480499-5.11763,0.1207504-10.2356949,0.2579193-15.3515167
		c0.0610809-2.2779808,0.1020355-4.5560341,0.1544342-6.8340111
		C123.6237488,52.7395134,123.5552826,52.4124565,123.7842407,52.0649185z"></path>
	<path d="M171.7214813,282.5404053c-0.7525787-28.5418243-0.8571472-57.2940674-0.0005798-85.8978577
		c0.148468,0.4295044,0.238205,1.0282745,0.2535095,1.6500549c0.1080933,4.3946075,0.20784,8.7895813,0.3498383,13.1831665
		c0.2466736,7.6316223,0.2057648,15.2666473,0.3143311,22.899765c0.1313171,9.2338867-0.0917358,18.4643555-0.1781464,27.695816
		c-0.0545654,5.8327026-0.2916412,11.6638184-0.4528046,17.4954529
		C171.9780426,280.6368408,172.0269928,281.7155151,171.7214813,282.5404053z"></path>
	<path d="M139.30159,114.7029648c0.6036835,3.5311356,0.4053497,6.9792175,0.5195313,10.4043198
		c0.2223358,6.6698608,0.3671417,13.3439331,0.3856201,20.0198822c0.015152,5.475296,0.1670227,10.950119,0.1058655,16.4261169
		c-0.0709534,6.3547668-0.1207428,12.7099304-0.2344513,19.0639343c-0.0936584,5.2332764-0.2653046,10.4651794-0.4099579,15.6974792
		c-0.0089569,0.3248138,0.0802917,0.6930695-0.4001617,1.2113647c-0.3309784-14.0195465-0.5238037-27.7688141-0.5337372-41.5227203
		C138.7243805,142.2537231,139.022049,128.5094757,139.30159,114.7029648z"></path>
	<path d="M135.000824,219.1053619c-0.8759155-12.9219513-0.9636383-72.1879883-0.0275726-84.6685333
		C135.9590607,141.0189514,135.9946899,204.9239502,135.000824,219.1053619z"></path>
	<path d="M135.0296936,102.9174957c-0.9071808-10.8015442-0.9202118-77.5412903,0.0376129-83.0614929
		c0.0767212,1.5887756,0.1945648,3.1768246,0.2226563,4.7664604c0.0924683,5.236021,0.2563477,10.470314,0.3638306,15.7060432
		c0.2388611,11.6345367,0.2334442,23.2686768,0.0960846,34.9027252c-0.0839844,7.1141968-0.2916565,14.2270355-0.4635315,21.3400192
		C135.2352295,98.6874924,135.1171265,100.802124,135.0296936,102.9174957z"></path>
	<path d="M96.1309814,231.9245148c-0.2229691-0.4786224-0.2737732-1.101944-0.287674-1.737854
		c-0.1179276-5.3946991-0.1929779-10.7909393-0.377182-16.1834412c-0.2689362-7.8733063-0.2191544-15.7485199-0.2456665-23.6232605
		c-0.0271912-8.0737305-0.0213699-16.1480408,0.1487503-24.2203979c0.1296921-6.1532898,0.3191452-12.3053131,0.4853821-18.4578247
		c0.0158005-0.5851135-0.0232544-1.1853943,0.2715149-1.6438141
		C96.9578857,174.6766663,96.8576126,203.354599,96.1309814,231.9245148z"></path>
	<path d="M96.1319733,30.3410606c0.826973,28.5583382,0.7220078,57.1533241-0.0021439,85.707077
		c-0.2138367-0.5964355-0.2764969-1.2585526-0.2908401-1.9357224c-0.1169281-5.5153122-0.1902313-11.03228-0.3809433-16.5451431
		c-0.2654953-7.6744995-0.2243118-15.3507233-0.2320862-23.0263519c-0.007988-7.8745575,0.0263824-15.7499046,0.136116-23.6236
		c0.0879974-6.314312,0.3154602-12.6266899,0.4842987-18.939846C95.8617401,31.4029446,95.8165283,30.8122711,96.1319733,30.3410606
		z"></path>
	<path d="M59.873806,178.0468597c-1.0802727-28.6867676-1.1292648-57.3723831,0.002224-86.0952454
		C60.887619,107.8823547,60.6914864,165.4391937,59.873806,178.0468597z"></path>
	<path d="M130.4215088,116.265564c-0.7361755-28.7162628-0.8429108-57.4425545-0.0018616-86.1110687
		c0.2536469,0.8226585,0.284256,1.7307377,0.2982025,2.6448441c0.0847015,5.5547523,0.2696228,11.1073227,0.3985748,16.661068
		c0.3377991,14.5497437,0.252121,29.0991898,0.0876465,43.6483307c-0.0812836,7.192215-0.3435669,14.3823471-0.5136414,21.5736771
		C130.6772003,115.2425079,130.550766,115.7696457,130.4215088,116.265564z"></path>
	<path d="M48.8067093,170.9667053c0.8912582,28.6602478,0.7849579,57.3409729,0.0533295,85.984375
		c-0.2152824-1.0554047-0.2978973-2.1615448-0.3122482-3.278244c-0.0724297-5.6361084-0.2571068-11.2699738-0.3864784-16.9047241
		c-0.3304291-14.3921967-0.2486-28.7840271-0.092495-43.1755676c0.0754204-6.9535065,0.3347893-13.9050751,0.5250015-20.857132
		C48.609993,172.1443481,48.7332153,171.5562134,48.8067093,170.9667053z"></path>
	<path d="M178.4139709,257.9363403c-0.7498779-29.0048981-0.8452301-57.7409363-0.0039215-86.5332947
		c0.3119812,1.7001953,0.2962341,3.3674774,0.3496094,5.0296783c0.5478973,17.0634155,0.6679993,34.1314392,0.5133362,51.2015686
		c-0.0521545,5.7555084-0.140213,11.5119171-0.3202362,17.2645264c-0.0912628,2.9163055-0.1162109,5.8336334-0.2146454,8.7494965
		C178.692276,255.0061951,178.5897522,256.3563232,178.4139709,257.9363403z"></path>
	<path d="M130.4894562,231.6159668c-0.8077545-28.5348358-0.9030151-57.0624695-0.071167-85.5197296
		c0.287796,0.5966034,0.2653809,1.3151703,0.2816467,2.029007c0.1303101,5.7133026,0.2459106,11.4269867,0.396698,17.1397552
		c0.3934937,14.9074402,0.2687683,29.8162384,0.0952606,44.7242584c-0.0739136,6.3522644-0.3001404,12.7028961-0.4745789,19.053772
		C130.6937103,229.9021301,130.5679321,230.7583771,130.4894562,231.6159668z"></path>
	<path d="M48.8048897,55.1854477c0.8937874,28.6271515,0.784111,57.2506027,0.0561371,85.7867508
		c-0.3007278-1.1378937-0.2908325-2.3954163-0.3185387-3.6489716c-0.1192665-5.3964081-0.2152023-10.7934494-0.3589134-16.1892166
		c-0.3897934-14.6350021-0.268692-29.2715225-0.1101112-43.9071732c0.0693016-6.3956528,0.3057022-12.7896271,0.4857101-19.1838112
		C48.5860329,57.0889511,48.7203064,56.1379013,48.8048897,55.1854477z"></path>
	<path d="M178.4013977,55.415226c0.3206024,1.7038155,0.3043518,3.3817444,0.358078,5.0542717
		c0.5509338,17.149559,0.6688385,34.303772,0.5121613,51.4600754c-0.0518494,5.6776047-0.1139526,11.3573074-0.3222656,17.0305252
		c-0.151001,4.1121521,0.0003357,8.2375946-0.5270081,12.3374939c-0.2545166-9.4976044-0.4658966-18.9970322-0.5399933-28.4989548
		c-0.0745392-9.5586243-0.0653839-19.1173706-0.0157776-28.6762695
		C177.9161835,74.5679016,178.1781158,65.0178223,178.4013977,55.415226z"></path>
	<path d="M171.6453857,163.081192c-0.7011871-27.4416351-0.7301178-54.8835907,0.067276-82.2125702
		c0.2397614,0.5981598,0.2621613,1.3518448,0.2805328,2.1086655c0.1145325,4.7144318,0.1939087,9.4301376,0.3599854,14.1427765
		c0.2520447,7.1524429,0.1676636,14.3080597,0.2825317,21.4614182c0.1463623,9.1138763-0.0964661,18.2245178-0.1707611,27.3362885
		c-0.0420227,5.1533203-0.2614441,10.3052521-0.4115448,15.4575195c-0.0169525,0.5823212-0.1026459,1.1626434-0.1564789,1.7438812
		C171.8130798,163.1065216,171.7292328,163.0938568,171.6453857,163.081192z"></path>
	<path d="M137.208313,121.7228775c1.1319885,28.2146988,1.0859985,56.4232407,0.0217896,84.6317978
		C136.3512268,199.71315,136.320816,133.6495514,137.208313,121.7228775z"></path>
	<path d="M91.5349197,104.1173401c-1.0325546-28.3111496-1.1558838-56.6022186-0.0360947-84.8937225
		C92.2172546,23.231451,92.6695175,76.4175034,91.5349197,104.1173401z"></path>
	<path d="M89.3663025,206.1656036c-0.0857773-0.9342041-0.2243652-1.8670502-0.2485962-2.8028259
		c-0.1365891-5.276062-0.2330399-10.5531616-0.3665695-15.8293152c-0.3693695-14.5947571-0.2865753-29.1910553-0.1113892-43.7865601
		c0.0772476-6.4355774,0.3058929-12.8694611,0.4849548-19.3035889c0.0231857-0.8333359,0.1615524-1.6634827,0.2548904-2.5764694
		C90.2129135,129.5072174,90.2347412,194.1515045,89.3663025,206.1656036z"></path>
	<path d="M57.6766014,86.9150314c0.9288902,28.1328125,0.8346901,56.2795334,0.06604,84.4273605
		c-0.267395-1.7511292-0.2974129-3.514389-0.3502998-5.2789307c-0.5260201-17.5511169-0.6971626-35.1059265-0.472805-52.6628952
		c0.1016655-7.955986,0.3427124-15.9102631,0.5360222-23.8649445
		C57.4768181,88.6608124,57.6004486,87.7884979,57.6766014,86.9150314z"></path>
	<path d="M51.0048447,153.8145447c-1.1277885-22.4618835-1.1498756-65.0963135,0.0005188-86.8127594
		C51.9030495,82.5067062,51.805542,138.3817291,51.0048447,153.8145447z"></path>
	<path d="M176.2379456,270.4390259c-0.8037109-28.8346252-0.8662262-57.6693878-0.0182343-86.504303
		C177.2368011,199.2234497,177.5192566,245.8006134,176.2379456,270.4390259z"></path>
	<path d="M176.2446594,67.7099915c1.187561,28.8563385,1.1374664,57.712616,0.0040436,86.5688171
		C175.4430847,125.422493,175.3595734,96.5662079,176.2446594,67.7099915z"></path>
	<path d="M128.2493591,238.7823181c-0.8031158-28.9285889-0.8736725-57.8572083-0.0110779-86.7858734
		C129.2943115,170.2617493,129.518692,213.1032562,128.2493591,238.7823181z"></path>
	<path d="M51.0103607,269.0070496c-1.1220093-28.6320038-1.1729584-57.2505951,0.0042534-85.8689117
		C51.9077072,211.7653198,51.817894,240.3926544,51.0103607,269.0070496z"></path>
	<path d="M128.2947235,36.0299759c1.1503448,28.8548431,1.0980835,57.7096405,0.000946,86.5644073
		C127.4838943,108.4044876,127.3688278,50.8707161,128.2947235,36.0299759z"></path>
	<path d="M98.2986755,36.0457649c0.8778076,28.9209023,0.7871017,57.7304115,0.0030365,86.5400696
		c-0.1603622-3.2048416-0.3034592-6.4088135-0.406311-9.6158829c-0.5267181-16.4222183-0.5599442-32.8481979-0.4010696-49.2746353
		c0.0718689-7.4313698,0.3124161-14.8612938,0.5031433-22.2911911C98.0433578,39.6166,98.1954422,37.83181,98.2986755,36.0457649z"></path>
	<path d="M98.3043137,151.9460297c0.8749847,28.84552,0.7808685,57.6911316,0.0086517,86.53685
		C97.2919922,222.8512726,96.985321,174.8781281,98.3043137,151.9460297z"></path>
	<path d="M169.5650177,87.3859406c1.1453705,12.6604385,1.1478424,71.1600952,0.0255585,84.6554413
		C168.7389069,166.3019409,168.7014313,97.5928955,169.5650177,87.3859406z"></path>
	<path d="M91.6035461,134.1979675c0.8655853,28.1982574,0.7849579,56.4180908,0.0221939,84.6380157
		C90.5981522,212.1862946,90.5607224,147.8598022,91.6035461,134.1979675z"></path>
	<path d="M44.3166962,43.4685135c0.8867264,27.6282883,0.8429604,55.2770691-0.0138168,82.9255905
		C43.1791115,98.7594147,43.16745,71.1245956,44.3166962,43.4685135z"></path>
	<path d="M86.429245,17.2445641c0.3153458-0.5464249,1.1527481-0.8032284,0.918045-1.654808
		c0.3663635,0.3117409,0.230629,0.7426929,0.2390366,1.1222858c0.3054199,13.7946548,0.2877197,27.5913486,0.128067,41.3866959
		c-0.0559845,4.8370018-0.0335007,9.6778412-0.2196045,14.5116501c-0.1624832,4.2204971-0.1043777,8.4414215-0.2485275,12.5097504
		c-0.2164307-0.7577209-0.2847519-1.6920776-0.3086014-2.6324997c-0.1074524-4.2365112-0.1834869-8.4741287-0.3319092-12.7092133
		c-0.197525-5.6359177-0.1518936-11.2750092-0.2764435-16.9109764c-0.1511002-6.8380699-0.1019669-13.6750793-0.0634003-20.5124626
		c0.0261688-4.6379013,0.1238708-9.2753944,0.1862183-13.9131126C86.4574814,18.0429459,86.4374695,17.6436749,86.429245,17.2445641
		z"></path>
	<path d="M89.4354172,90.4175491c-0.4086914-2.2855988-0.3162155-4.3661957-0.3862686-6.4391098
		c-0.5307388-15.7041626-0.591835-31.4129295-0.5140762-47.1239471c0.0306625-6.1966705,0.233429-12.3894844,0.3116684-18.5848198
		c0.0027618-0.2188148-0.0928345-0.4771595,0.1702652-0.676548c0.7370758,0.203701,0.7458725,0.7890835,0.7546921,1.4042263
		c0.0602341,4.196291,0.1610489,8.3921833,0.1941452,12.5886364c0.0819778,10.3947449,0.0891113,20.789875-0.0057526,31.1845055
		c-0.0554581,6.0754929-0.1679764,12.1505737-0.2771072,18.225441
		C89.6277237,84.0718994,89.5230026,87.1469803,89.4354172,90.4175491z"></path>
	<path d="M137.1448975,91.4347839c-0.2007599-6.9426041-0.2993622-14.0968857-0.4321136-21.2505951
		c-0.276001-14.8741684-0.2030487-29.7473183-0.0530396-44.6208496c0.0189209-1.8766785,0.0874176-3.7552624,0.1119537-5.6335068
		c0.0036316-0.276371,0.0130005-0.5625858,0.0871124-0.8252182c0.0690613-0.2446804,0.3146057-0.39221,0.5537262-0.391737
		c0.3462067,0.0006866,0.2907257,0.3122673,0.2996826,0.5363483c0.0175629,0.4393616,0.0120544,0.8795891,0.0234985,1.3192635
		c0.4050751,15.5516682,0.3769073,31.1056347,0.1757507,46.6589737c-0.0935516,7.2344208-0.344223,14.4667816-0.5139771,21.7003021
		C137.3760376,89.8416748,137.069809,90.7246399,137.1448975,91.4347839z"></path>
	<path d="M139.9449158,16.2507992c0.1595764,1.5533619,0.1686554,3.1126194,0.1808472,4.6716213
		c0.063446,8.1162682,0.172821,16.2325401,0.1735535,24.3488159c0.0005646,6.3967056-0.101059,12.7939949-0.2169342,19.1899452
		c-0.1013336,5.5947647-0.2924042,11.1878586-0.4286957,16.7820511c-0.0338135,1.3875961-0.1583862,2.7613678-0.3451538,3.9360657
		c-0.0686798-3.5580826-0.1400604-7.3017807-0.2148132-11.0454102c-0.0063934-0.3192215-0.0466614-0.6378174-0.0518951-0.9570236
		c-0.2730865-16.5925903-0.3935852-33.1859589-0.2324677-49.7805328c0.0162964-1.6782494,0.1322632-3.356741,0.1071777-5.0337029
		c-0.013855-0.926281,0.2259369-1.6369267,1.0232239-2.1277866L139.9449158,16.2507992z"></path>
	<path d="M141.1131439,16.9791069c0.5464935,0.2058887,0.9389648,0.6046276,1.3022308,1.039938
		c-0.1390686,1.2797718,0.0475311,2.5548077,0.0578156,3.8326321c0.0740051,9.1982994,0.1095734,18.3969955-0.0176697,27.5945854
		c-0.1023102,7.3957253-0.296051,14.7902336-0.464035,22.184948c-0.0398102,1.753273-0.1388397,3.5051956-0.2116394,5.282402
		c-0.3293457-0.1823959-0.2212677-0.4606094-0.229538-0.6851807c-0.0691528-1.8775177-0.1447754-3.755188-0.1791534-5.633522
		c-0.1433868-7.8360786-0.263092-15.6722183-0.3267822-23.5097961c-0.0523071-6.437809-0.1052704-12.8751717-0.0713959-19.3129044
		C140.9918976,24.1743641,141.0646515,20.5767975,141.1131439,16.9791069z"></path>
	<path d="M84.0485229,19.1552601c0.3119659-0.5645409,0.8813782-0.8129654,1.3919373-1.1336651
		c0.0120926,1.1986542,0.0279922,2.3972836,0.0356369,3.5959663c0.0364685,5.7137947,0.1167068,11.427784,0.0944061,17.1413651
		c-0.0299225,7.6720581-0.0649567,15.3455086-0.2402115,23.01511c-0.1268005,5.5491219-0.0138168,11.1062431-0.5114899,16.6508751
		c-0.0876694-2.1367569-0.2080154-4.2727585-0.256813-6.4104004c-0.1413345-6.1917648-0.2374725-12.3845596-0.3814163-18.5762558
		c-0.2563858-11.0284424-0.1557693-22.0574665-0.0947495-33.0865898
		C84.088028,19.9529438,84.0616074,19.5540657,84.0485229,19.1552601z"></path>
	<path d="M164.5203094,31.6128998c1.476181,0.2920685,1.4879303,0.2922192,1.4695435,1.7275658
		c-0.0721893,5.6343117-0.1237488,11.2691002-0.2377319,16.9026031c-0.116394,5.7524452-0.2964172,11.5036125-0.4510193,17.2552757
		c-0.0106964,0.3975067-0.0417175,0.7944717-0.0665588,1.2515564
		C164.853653,67.9364624,164.2398987,34.7315941,164.5203094,31.6128998z"></path>
	<path d="M62.8117828,31.2215118c-0.0807495,12.2464752-0.2988853,24.387619-0.5258713,36.7226334
		c-0.4111214-0.420166-0.2985268-0.7897491-0.3075142-1.0965958c-0.118206-4.0369873-0.1975021-8.0752068-0.3320923-12.1115952
		c-0.2412415-7.2346573-0.2279205-14.4732399-0.3692093-21.7093582
		C61.2505302,31.6658173,61.2685928,31.6654663,62.8117828,31.2215118z"></path>
	<path d="M166.7649689,32.444767c1.3964691,0.3882256,1.4134064,0.3885803,1.3896332,1.5233269
		c-0.1531067,7.3040543-0.2670593,14.6094322-0.4983368,21.9110641c-0.0808411,2.5522957-0.085144,5.108326-0.2891846,7.6587334
		C166.9219055,53.2127762,166.806427,42.881279,166.7649689,32.444767z"></path>
	<path d="M59.8952103,63.09058c-0.1057816-2.5984573-0.2302895-4.9106483-0.2879677-7.2245102
		c-0.1323128-5.3079338-0.2302094-10.6167221-0.3459015-15.9250832c-0.0452232-2.0748825-0.1090279-4.1493874-0.1483612-6.224369
		c-0.0229492-1.2103691-0.0087051-1.21064,1.3886528-1.6406136C60.4579849,42.3607101,60.3103371,52.5965652,59.8952103,63.09058z"></path>
	<path d="M169.5727386,57.037941c-0.3890228-7.9142914-0.3594971-15.8136864-0.5825958-23.730835
		c1.2117004,0.2473984,1.2166443,0.2473984,1.2168579,1.261776c0.0013733,6.7090454-0.34198,13.4109573-0.4202728,20.1184387
		C169.7774506,55.482605,169.5159302,56.2536736,169.5727386,57.037941z"></path>
	<path d="M57.7231293,55.6282082c-0.1625328-1.3204727-0.276329-2.6676941-0.3035393-4.026535
		c-0.1176796-5.8766823-0.2517128-11.7531662-0.4201965-17.6285629c-0.0254745-0.8884392,0.4955292-0.9347916,1.254303-1.0937157
		C58.0541267,40.520134,58.0660858,48.0607491,57.7231293,55.6282082z"></path>
	<path d="M171.3406525,34.1391792c0.7692566-0.0247917,1.0045013,0.2612114,0.9875488,0.8703079
		c-0.1288452,4.6251335-0.2344513,9.2509117-0.3672943,13.8759193c-0.0119934,0.4174232-0.1647797,0.8308067-0.2687836,1.3251266
		C171.5742035,44.8187332,171.4583435,39.5210686,171.3406525,34.1391792z"></path>
	<path d="M55.5611305,49.8952332c-0.3114357-0.2681274-0.2242088-0.5678215-0.2314568-0.8298683
		c-0.1311455-4.7425308-0.2497101-9.485405-0.3809853-14.227932c-0.0166473-0.6015129-0.0251884-1.154644,0.9575691-1.1045113
		C55.79179,39.0933876,55.6772461,44.457695,55.5611305,49.8952332z"></path>
	<path d="M173.8222961,44.7290916c0-3.2615089,0-6.5230179,0-9.7797623
		c0.4101715-0.0557137,0.6028748,0.1326904,0.5742798,0.462635
		C174.1285248,38.5031662,174.4691925,41.627018,173.8222961,44.7290916z"></path>
	<path d="M53.3661423,34.3729591c0,2.3314209,0,4.5414696,0,6.7515182
		c-0.1030502,0.0024567-0.2061081,0.0049095-0.3091583,0.0073624c-0.0220451-1.1421471-0.0295105-2.2848015-0.0690155-3.426342
		C52.8912125,34.9099388,52.8852615,34.9101448,53.3661423,34.3729591z"></path>
	<path d="M176.3000183,35.696949c0,0.9537277,0,1.9074516,0,2.8611794
		C176.3229675,37.6038094,175.9339447,36.6655731,176.3000183,35.696949z"></path>
	<path d="M51.0609894,37.861515c-0.0728874-0.8951988-0.2166901-1.746273,0-2.6002922
		C51.0609894,36.1279831,51.0609894,36.994751,51.0609894,37.861515z"></path>
	<path d="M87.1304245,15.3683434c-0.2108536-0.1051235-0.360321-0.2659378-0.4424667-0.4878054
		C86.9296188,14.9577227,87.095726,15.1034327,87.1304245,15.3683434z"></path>
	<polygon fill="#2744E7" points="180.8230286,167.0991058 180.8447876,167.1893005 180.785553,167.1837921 	"></polygon>
	<path d="M87.3661346,15.615365c-0.1545868-0.0222473-0.210228-0.1387005-0.2538376-0.266613
		C87.1969147,15.437623,87.2815247,15.5264931,87.3661346,15.615365z"></path>
</g>
<g onclick="select(this)" class="" id="gola-primaria" fill="#000000">
	<path d="M77.9626083,7.975801c0.8916397-0.1464872,1.4546051-0.8052793,2.0635757-1.3673048
		c0.7333908-0.6768517,1.530632-1.3283091,2.0977325-2.1334014c1.7713394-2.514663,4.3414764-3.368772,7.2027588-3.7580032
		C89.9555435,0.6315448,90.6842194,0.8125577,91.2000046,0.24c1.1999969,0,2.4000015,0,3.5999985,0
		c0.1689911,0.4921721,0.5998154,0.3104457,0.9138184,0.3115883c5.5778732,0.0202972,11.1558151,0.0196854,16.7337112,0.0337915
		c0.4070816,0.0010295,0.7741394-0.0454374,1.0724716-0.3453798c7.5200043,0,15.0400085,0,22.5599976,0
		c0.0950165,0.5737573,0.5538483,0.4839317,0.9309387,0.4813282c0.9624634-0.0066444,1.9052887,0.1363344,2.847229,0.3072239
		c1.939621,0.351892,3.5893097,1.1134266,4.84552,2.76226c1.2997437,1.7059848,2.7572174,3.3055561,4.645813,4.420681
		c1.3456726,0.5444899,1.9585419,1.5148191,1.8673248,2.98913c-0.2306519,3.7280111-2.0442657,6.734786-4.2547302,9.577178
		c-0.3995056,0.5137348-0.6663971,0.1623592-0.9760437-0.0750751c-1.7436829-1.3370762-3.4604034-2.7118683-5.2452545-3.9915733
		c-0.7937012-0.5690708-0.761795-0.9420891-0.1443939-1.63943c1.5353546-1.7341862,2.838028-3.633317,3.6850128-5.9839993
		c-3.8036652,0.2960405-7.4562683,0.6172018-11.1142273,0.8567047c-6.0510941,0.3961926-12.1025848,0.806385-18.1597137,1.0839634
		c-4.6715927,0.2140846-9.3202896-0.4047413-13.9781036-0.6748371c-5.5439987-0.3214865-11.0641098-0.9202509-16.59095-1.4390802
		c-1.2828751-0.1204281-1.3806686-0.0374393-0.9094391,1.138237c0.8011017,1.9987068,2.0935974,3.6679974,3.5411911,5.2302885
		c0.4509964,0.4867325,0.7215652,0.8941584-0.0053787,1.4499426c-1.7451401,1.3342266-3.4467926,2.7266788-5.1376801,4.1297684
		c-0.5719299,0.4745808-0.92733,0.3707008-1.3657074-0.175869c-1.8463974-2.3021336-3.298584-4.8074865-4.0902557-7.6677713
		C75.8127365,10.6402187,76.2608109,9.1359959,77.9626083,7.975801z"></path>
</g>
<g onclick="select(this)" class="" id="detalhe-punho" fill="#9e9e9e">
	<path d="M227.8479767,108.4740906c0.6809387,0.9812927,0.4194031,2.2056732,0.8383636,3.2553482
		c0.0808563,0.2025299-0.0243988,0.4886475,0.2736664,0.5905685c0,1.2799988,0,2.5599976,0,3.8399963
		c-2.501297,1.4985352-5.3547058,2.0023651-8.0946045,2.7934341c-9.3957672,2.7127533-19.0183411,3.3735809-28.7368469,2.8892288
		c-2.0160675-0.1004715-4.0475006-0.3125916-6.0154114-0.8739777c-0.5465698-0.1559219-1.0403595-0.3766327-1.4846954-0.7214279
		c-0.2615814-2.493866,0.3591003-4.9316864,0.4702148-7.4018784c3.7651215,0.8038483,7.5809631,0.9872742,11.417923,0.9799576
		c2.4756317-0.0047073,4.9823456,0.2486649,7.4164124-0.1532593c3.0631866-0.5058441,6.1322479-1.0086288,9.1912689-1.550148
		C218.1236725,111.2369232,222.9706268,109.8107452,227.8479767,108.4740906z"></path>
	<path d="M0.24,114.7200012c0.4935786-1.1680832,0.3756018-2.4553986,0.7118917-3.6554031
		c0.1131556-0.4037933-0.0013308-0.8847122,0.424064-1.174881c3.9500327,1.5389481,8.0130043,2.5952759,12.204361,3.3069839
		c4.3031273,0.73069,8.5903606,1.3838501,12.9639568,1.267395c1.8726425-0.0498505,3.7466278-0.2401581,5.6153297-0.1905441
		c1.6878014,0.0448074,3.3566055-0.1435547,5.0072746-0.3350449c1.4367638-0.1666641,2.9814034,0.0609207,4.3144798-0.7833557
		c0.4072418-0.2579269,0.6057358,0.0138702,0.8126144,0.385643c0.4235764,0.7612076,0.2493629,1.6531372,0.6075783,2.4174118
		c0.0719643,1.5249481,0.5883255,3.0182419,0.3252678,4.5670471c-2.7905273,1.3669128-5.828289,1.7201385-8.8434486,1.8076859
		c-7.6257458,0.2214127-15.2557678,0.2586136-22.80797-1.1545029c-3.0544977-0.5715332-6.1004725-1.1680756-9.053031-2.1535645
		c-0.7791134-0.2600555-1.5225506-0.6270065-2.2823682-0.94487C0.24,116.9600067,0.24,115.840004,0.24,114.7200012z"></path>
</g>
<g onclick="select(this)" class="" id="detalhe-lateral" fill="#9e9e9e">
	<path d="M189.118042,91.9186554c-0.1463623,1.9602127-0.9015045,3.7794952-1.3225861,5.6770554
		c-1.0597534,4.7753906-1.963028,9.577713-2.6732178,14.4167099c-0.0400391,0.2728195-0.0171204,0.5548782-0.0235443,0.8328018
		c-0.111145,2.4703522-0.7318268,4.9081726-0.4702454,7.4020386c-1.2538757,10.2727585-2.2885284,20.5608902-1.9748688,30.9319382
		c0.0720215,2.3811188,0.8058167,4.7158966,0.4617004,7.1367035c-0.3488159,2.453949-0.4842682,4.926239-0.4611206,7.4086304
		c0.0614166,6.5872192,0.0962524,13.1849213-0.1150055,19.758316c-0.1437225,4.4715271,0.6984558,8.7001801,1.420929,13.0077209
		c0.8576202,5.1132202,0.9465179,10.2421875,0.2486267,15.3868103c-0.3163147,2.3318787-0.5418854,4.6759796-0.8194733,7.0132599
		c-0.0548706,0.4620361,0.1188354,0.8704834,0.2602692,1.2782745c2.0043488,5.7798157,2.5227356,11.7149811,1.4927216,17.7158661
		c-0.4361725,2.5410614,0.0865479,4.9121246,0.4099731,7.3462219c0.1848602,1.3912201,0.2895203,2.7849121,0.2583923,4.1851196
		c-0.168396,7.5735626,0.6844177,15.0817108,1.3915253,22.6016083c0.2081451,2.2134094,0.1912537,4.4473572,0.3064728,6.6703796
		c0.0629883,1.2152405-0.4994507,1.9846497-1.6034088,2.3692322c-1.8061981,0.6292725-3.6501007,1.0896606-5.5828552,1.0713806
		c-0.4025574-4.9749451-0.5776062-9.9613037-0.8122711-14.9457397c-0.2834167-6.0210876-0.5428467-12.0412903-0.7454224-18.0659485
		c-0.163681-4.8683777-0.3198547-9.7371521-0.4883881-14.6051025c-0.2530518-7.308548-0.3221283-14.619278-0.5118103-21.9272461
		c-0.4432373-17.0751801-0.165741-34.1493835-0.1535187-51.2236938c0.003418-4.7874603,0.1701355-9.5831604,0.4906158-14.359726
		c0.3219147-4.7978668,0.6716614-9.595932,1.1429749-14.3869171c0.9490356-9.6469574,2.5186157-19.1772308,4.934082-28.5586929
		c1.1165924-4.336731,2.3831787-8.6419373,4.1745453-12.7650375c0.2069092-0.4762726,0.2758942-1.0481873,0.7771301-1.3630371
		L189.118042,91.9186554z"></path>
	<path d="M42.9015503,115.9582062c0.1135826-2.9819946-0.6984177-5.8569183-1.0646591-8.7813339
		c-0.4164581-3.3254089-1.1187668-6.6149597-1.6916161-9.9209976c-0.0389175-0.2245789-0.0955505-0.4668274,0.2063065-0.7647934
		c0.8437271,1.8686752,1.3156281,3.8035812,1.8989029,5.694313c1.8927994,6.1356506,3.1027031,12.4203186,4.1808014,18.7436981
		c0.7687149,4.5087204,1.3730049,9.0276031,1.8188705,13.5770264c0.4191551,4.2767944,0.7491646,8.5550842,0.994976,12.8463898
		c0.2487373,4.342392,0.3723068,8.6831818,0.4991493,13.0291138c0.4971161,17.0321198,0.2079086,34.0656738,0.1396637,51.097641
		c-0.0167961,4.1912231-0.0903015,8.3907471-0.1947098,12.5851593c-0.1500931,6.029007-0.2646904,12.0601044-0.5228691,18.0848236
		c-0.1914558,4.4676971-0.3326378,8.9356689-0.4793053,13.404541c-0.1845589,5.6234589-0.3789101,11.2502289-0.7618713,16.862381
		c-0.2579765,3.7805786-0.1900101,7.5835266-0.7422829,11.3439331c-1.6820335-0.0850525-3.2913589-0.5161743-4.8658752-1.0708008
		c-1.7708015-0.6237183-2.1469193-1.1226196-2.1011238-2.9976807c0.0670662-2.7460022,0.1889191-5.4891663,0.4147339-8.2307434
		c0.4395142-5.3359985,0.7224426-10.6850586,1.1794395-16.0193634c0.40205-4.6931-0.0762138-9.439682,0.9062653-14.0965424
		c0.1984291-0.9405518,0.1134071-1.9181824-0.033474-2.8666992c-0.4832382-3.1204681-0.3470268-6.2174377,0.332428-9.2897491
		c0.194416-0.8790894,0.1335144-1.7296448,0.0722351-2.6122131c-0.2877083-4.1437836-0.8593559-8.2657928-0.8530579-12.4330902
		c0.0072861-4.8221283,1.0993767-9.4220276,2.7060051-13.9203339c0.3436127-0.9620819,0.5703545-1.8824768,0.450592-2.9110718
		c-0.1810303-1.5547485-0.1168175-3.1097717,0.1610222-4.658493c0.1121635-0.6252441,0.1574593-1.2737732,0.1400375-1.9091644
		c-0.1323547-4.8263855-0.6007996-9.6680603-0.3563309-14.4740295c0.3014259-5.9256287-0.2448349-11.8179779-0.1113739-17.7312775
		c0.2507629-11.1105499,0.3767052-22.2289581-1.4094315-33.2606583c-0.2549744-1.5747833-0.3950195-3.1681595-0.5882187-4.7529297
		C43.4898758,118.9764481,42.9735146,117.4831543,42.9015503,115.9582062z"></path>
</g>
<path d="M189.1302643,91.9275818c-0.1253815-0.2260437-0.0250854-0.4249802,0.0789948-0.643013
	c0.2248383,0.2606354,0.2137604,0.4681931-0.091217,0.6340866L189.1302643,91.9275818z"></path>
</svg>
