<!--?xml version="1.0" encoding="utf-8"?-->
<!-- Generator: Adobe Illustrator 24.2.3, SVG Export Plug-In . SVG Version: 6.00 Build 0)  -->
<svg version="1.1" id="Camada_1" xmlns="http://www.w3.org/2000/svg" xmlns:xlink="http://www.w3.org/1999/xlink" x="0px" y="0px" viewBox="0 0 229 418" enable-background="new 0 0 229 418" xml:space="preserve">
<g onclick="select(this)" class="" id="estampa-primaria" fill="#000000">
	<path d="M43.184227,120.3591003c-0.1574593-1.9019699-0.2635918-3.8100281-0.4886246-5.7039795
		c-0.1797981-1.5132675-0.3913536-1.6106033-1.9219894-1.3255692c-1.0546684,0.1964035-2.1054993,0.4133453-3.1596031,0.6128845
		c-3.7236557,0.7048569-7.4897099,0.4062195-11.2349834,0.3948441c-6.4752865-0.0196609-12.9171953-0.5751572-19.2143612-2.1471405
		c-2.0026436-0.499939-4.0013113-1.0857773-5.9778385-1.7141418c1.020895-4.8060684,1.6644146-9.6716461,2.3388951-14.5333023
		c0.872649-6.2900543,1.9116194-12.5599365,2.6439087-18.8657761c0.7765994-6.6873932,1.853642-13.2944374,3.974463-19.697525
		c2.9442616-8.8891754,7.7607107-16.5268593,15.1724825-22.392849c1.1417255-0.9036102,1.9524097-2.1724854,3.2811241-2.8633461
		c3.6190052-1.8817024,7.2620258-3.7168369,11.0347271-5.271349c9.9860153-4.1146584,19.9939613-8.1792221,29.4552879-13.4397125
		c1.9744034-1.0977669,3.9967499-2.0936747,5.5144348-3.8991308c0.8429108-1.0027447,2.0579147-1.6459785,3.4937134-1.5504146
		c-1.6598358,0.9146581-2.0019836,2.3754401-1.6840515,4.0964561c0.3956909,2.1419916,1.0861511,4.1798086,2.3278809,5.9871454
		c5.9329224,8.6352997,14.296669,13.8952675,24.0654449,17.1269894c2.041748,0.6754532,4.1874008,1.1419945,6.5661926,0.9732132
		c-0.818985-1.2918892-1.7138596-2.3421478-2.6657181-3.3343887c-4.3846359-4.5706615-9.3081741-8.5244236-14.2901917-12.4103851
		c-2.5010681-1.9508305-4.6982346-4.208477-6.6866608-6.6749144c-0.9601822-1.1910152-1.7149582-2.4964218-2.3023758-3.9077702
		c-0.2885437-0.6932478-0.2463684-1.0194101,0.6452408-0.9307556c3.5362701,0.351614,7.0733414,0.7046528,10.6162415,0.9779987
		c7.921875,0.6111984,15.8302765,1.4430838,23.8044815,0.9912195c6.261795-0.3548279,12.5223312-0.704565,18.7725449-1.2287455
		c2.2623138-0.1897326,4.5277405-0.3423519,6.9600983-0.5245132c-0.3562012,0.7652731-0.6235199,1.4240294-0.9593048,2.0458479
		c-1.2259827,2.2702398-2.8836212,4.2098074-4.6701813,6.0531158c-2.8812408,2.9727859-6.3737335,5.2001953-9.5260773,7.842041
		c-3.523674,2.9530506-7.0875015,5.8638573-9.9547958,9.5003853c-0.3962326,0.5025253-0.8958893,0.9767723-0.9921494,1.7654648
		c1.0281219-0.1467667,1.9737854-0.0354576,2.9256516-0.2119141c5.0719757-0.9402618,9.6617355-3.0744553,14.078331-5.6319599
		c3.2989349-1.9103127,6.3558502-4.1792526,9.1010895-6.8097744c3.0965118-2.9671154,5.4707642-6.4256573,6.640976-10.6468983
		c0.6189423-2.2326078,0.0174561-4.2712574-1.6764832-4.7439165c1.9420471-0.3230171,3.1181183,0.8975677,4.2487946,2.1523972
		c0.3474121,0.3855724,0.6845703,0.7272234,1.1278381,1.02145c8.8714447,5.888566,18.7893372,9.6126204,28.526062,13.6821756
		c5.067276,2.1179237,10.0380096,4.4439087,15.0908356,6.5872955c0.2853851,0.121069,0.5596008,0.2832184,0.8128815,0.4630032
		c12.0054626,8.5214882,19.2169037,20.1563911,21.3936157,34.5978508
		c1.7050781,11.3124924,4.6848145,22.3671265,6.2290497,33.6951218c0.3612823,2.6502228,0.8081512,5.2887878,1.2156677,7.9327545
		c-0.4072723-0.0320892-0.7870331,0.0516357-1.1609039,0.2217789c-5.2508698,2.3895721-10.8408508,3.4043884-16.5039825,4.2465134
		c-4.9055786,0.7294693-9.8006744,1.3550644-14.7624969,1.0241394c-3.0189819-0.2013397-6.0679779-0.007515-9.0567627-0.6636734
		c-0.4004364-0.0879288-1.0440521-0.3493347-1.0703583,0.4709015c-0.0688629,2.1481247-0.9662018,4.2106934-0.6513672,6.3962173
		c-0.4419403,0.8073044-0.2948303,1.7095184-0.3963318,2.5679779c-0.9907074,8.3786392-1.7198181,16.7760849-1.745636,25.2220383
		c-0.0067291,2.2005463,0.0687408,4.3852692,0.5246124,6.5559692c0.4008789,1.9087372-0.0432281,3.8250885-0.2062225,5.7295837
		c-0.1811066,2.1162109-0.2468414,4.2292175-0.1479797,6.3477325c0.1008911,2.1623993-0.1498413,4.3116608-0.2017212,6.4661102
		c-0.0682373,2.8337555-0.1215973,5.6735077,0.1285095,8.5087433c0.1475983,1.6730652,0.0784607,3.3501434-0.098175,5.02742
		c-0.3134613,2.9759674,0.161026,5.8720398,0.824295,8.7793121c1.6766205,7.3491974,1.4777679,14.7560425,0.394516,22.1660767
		c-0.3131714,2.142395-0.3707123,4.2083435,0.3324127,6.3562622c1.789505,5.466568,1.8004761,11.0871277,0.9232635,16.7248077
		c-0.2115173,1.3592529-0.2436066,2.6841888,0.0700836,4.0361938c0.886261,3.8198547,0.4920807,7.7170715,0.6769562,11.5814056
		c0.2862549,5.9835815,0.6884613,11.9625854,1.4403229,17.9147034c0.2537231,2.008667,0.2185516,4.0574036,0.2538147,6.0889282
		c0.0314789,1.8131409-0.3387299,2.3127136-2.0966034,2.8403625c-2.9675903,0.8908081-6.046051,1.1467896-9.1074371,1.463501
		c-7.7273102,0.7994385-15.4857635,0.8745728-23.2448273,1.0192871
		c-11.2361755,0.2095642-22.4684143,0.6523743-33.7049484,0.8126526c-12.4795532,0.178009-24.9379959-0.848877-37.4192505-0.848999
		c-8.3984146-0.0000916-16.799118-0.1004944-25.1803284-0.7364502c-4.1492767-0.3148499-8.2854118-0.7527771-12.3534241-1.6774292
		c-0.2727928-0.0620117-0.5451469-0.1272583-0.8147545-0.2017212c-3.0011635-0.8287048-3.3434029-1.173645-3.1586952-4.2307129
		c0.4741859-7.848175,1.0208855-15.6920776,1.5688667-23.535553c0.1421928-2.0353699,0.2741928-4.0685883,0.2251472-6.1084442
		c-0.0433769-1.8041687,0.0425301-3.5978241,0.3647537-5.3743591c0.4024925-2.2190704,0.4543953-4.4303284,0.1269684-6.6729889
		c-0.3675308-2.5173645-0.1233711-5.0311584,0.42342-7.5046387c0.237915-1.0762024,0.1960411-2.1278687,0.1169281-3.2104492
		c-0.3260307-4.4614716-1.0035973-8.9028625-0.8237762-13.394516c0.1759071-4.393631,1.2030106-8.6131439,2.7054672-12.72258
		c0.3647614-0.9976807,0.5816841-1.9600372,0.4271965-3.0288544c-0.1776123-1.2288208-0.1682091-2.4718018,0.0631027-3.7023163
		c0.3129845-1.6650085,0.2037849-3.326767,0.1185341-5.0112915c-0.1672783-3.3053589-0.1792717-6.6202087-0.1929398-9.9314117
		c-0.0532684-12.9004364-0.0429573-25.8012695-0.1390572-38.7013397c-0.0387688-5.2046204-0.991291-10.3377228-1.5477562-15.5010147
		C43.6215096,122.9213791,43.7198563,121.5897675,43.184227,120.3591003z"></path>
</g>
<g onclick="select(this)" class="" id="estampa-secundaria" fill="#a2cff0">
	<path d="M113.8791199,286.3792419c-5.7036362-0.0522766-11.1337662-0.2828064-16.2632675-0.6396484v-169.832428
		c-18.2300415,0-36.4600792,0-54.6901207,0c-0.2812653-1.6402893-0.7273941-4.3317566-1.2057304-7.6773376
		c-1.2700615-8.8830872-1.0035706-10.0426636-2.1469688-14.0551758c-0.263485-0.9246521-1.1798439-3.531311-3.0125656-8.7446899
		c-1.3585434-3.8645325-1.6098747-4.4663086-1.8131828-4.9355774c-0.7813187-1.8034058-1.280674-2.5662537-1.6122322-4.0045471
		c-0.4134026-1.793335-0.3823471-3.3291321-0.3044205-4.2944946l64.6349182-0.3570557
		c0.0575714-14.4543762,0.1151352-28.908783,0.1727066-43.3631592c1.2012939,1.4081116,3.1835098,3.4129944,6.0917511,5.1296997
		c1.9285202,1.1383667,5.4051056,3.1905518,10.1800003,3.1950073c5.5763016,0.005188,9.6180191-2.7854614,11.6449966-4.1849976
		c1.7745895-1.2252808,3.0763474-2.4716492,3.9280472-3.375c0,14.1900024,0,28.3800049,0,42.5700073
		c21.7100983,0,43.4202118,0,65.1303101,0c-0.0877838,3.6129456-0.6561279,6.4530945-1.1760406,8.4133606
		c-0.2967682,1.1189575-0.5697327,1.920929-2.3128357,6.73526c-2.4184113,6.6794434-2.2479095,6.1159973-2.4589996,6.7601624
		c-1.4988098,4.573822-1.3704681,6.3586121-3.6608429,19.1673584c-0.2342987,1.3103333-0.4298401,2.3776855-0.5531616,3.0466003
		l-54.9400635,0.1850586l0.1655426,169.9440308C124.6830597,286.3084106,119.4085388,286.4299316,113.8791199,286.3792419z"></path>
</g>
<g onclick="select(this)" class="" id="estampa-terciaria" fill="#ffffff">
	<path d="M111.5395813,286.3806763c-0.0155029-0.4384155-0.0446014-0.8768311-0.0445557-1.3152161
		c0.0024719-22.8174438-0.0056839-45.6349335,0.0156631-68.4523621c0.0228882-24.4555664,0.0726013-48.9111023,0.112915-73.3666382
		c0.0249634-15.1447754,0.0542374-30.2895355,0.0815735-45.4343033c0.0005112-0.2797241-0.0175552-0.5610123,0.0058746-0.8387985
		c0.0361023-0.428154-0.1689606-0.567894-0.5635834-0.5500641c-0.3188629,0.0144043-0.6389313,0.0018158-0.9584579,0.0018158
		c-23.0063629-0.0003967-46.0127335-0.0006943-69.0190964-0.0014954c-0.3593597-0.0000153-0.7187195-0.0063171-1.0780792-0.0096893
		c-0.0392456-0.1399384-0.0784874-0.2798615-0.117733-0.4197922c0.4369926-0.0239182,0.8739815-0.068718,1.3109818-0.068779
		c23.1694374-0.0031738,46.338871-0.0025864,69.508316-0.0023499c0.2396851,0,0.4807358,0.0169373,0.7187729-0.0027618
		c0.4973907-0.0411682,0.7580338,0.1341248,0.702858,0.6728592c-0.0243073,0.2373428-0.0047531,0.479187-0.005043,0.7189789
		c-0.0367966,31.3335342-0.0718384,62.6670456-0.1117096,94.0005569c-0.0089951,7.0737762-0.108902,14.1483307-0.0313263,21.2210388
		c0.072319,6.5927887-0.0183945,13.1853638,0.0626907,19.7768097c0.2187653,17.7838593,0.0379181,35.5680237,0.1008835,53.3518677
		c0.0008469,0.2389221-0.0265427,0.4779358-0.0407486,0.7169189
		C111.9730301,286.3797302,111.7563095,286.3802185,111.5395813,286.3806763z"></path>
	<path d="M187.4396667,98.6085205c-0.6789551,0.0061646-1.3579102,0.0177078-2.03685,0.0177078
		c-22.3342285-0.000061-44.668457-0.0029526-67.0026627,0.0014572c-1.5649414,0.0003052-1.373703-0.2430344-1.3716583,1.4099579
		c0.0223541,18.0677032,0.0424805,36.1354065,0.0785446,54.2030792c0.0525894,26.3416901-0.0153809,52.6845856,0.224823,79.0246277
		c0.1574554,17.2668457,0.1024933,34.5324402,0.173439,51.7984619c0.0018082,0.4390869-0.0205231,0.8782959-0.031601,1.3174438
		c-0.2240067-0.0008545-0.4480133-0.0016785-0.6720276-0.0025024c-0.0113754-0.4790039-0.0323868-0.9580078-0.0327148-1.4369812
		c-0.0100098-14.5475464-0.0186157-29.0950928-0.0261154-43.6426239c-0.0095901-18.6238708,0.0004654-37.247757-0.0312805-55.871582
		c-0.0487137-28.5754547-0.1273956-57.1508636-0.1870117-85.7262955c-0.0035858-1.7181244-0.2763062-1.555397,1.4904404-1.5555878
		c22.729866-0.0024414,45.4597244-0.0004044,68.1895828,0.0030289c0.4383392,0.0000687,0.8766632,0.0307007,1.3150024,0.0470886
		C187.4929504,98.333374,187.4662933,98.4709473,187.4396667,98.6085205z"></path>
	<path d="M120.1973419,286.3735962c-0.024437-0.3973999-0.0702438-0.7947998-0.0702438-1.1921997
		c0.0000992-16.0271606,0.0030594-32.0543365,0.0086899-48.0814819c0.0020447-5.8348541,0.0239563-11.669693,0.015564-17.5045319
		c-0.0255051-17.7451019-0.0421219-35.4902649-0.0986176-53.2352905
		c-0.0564957-17.7453918-0.1537247-35.4906921-0.2411957-53.2359848c-0.0147781-2.9972534-0.0810013-5.9942169-0.103157-8.9914703
		c-0.0120621-1.6317596-0.2751694-1.4899368,1.4230194-1.4903641c10.2269669-0.0026093,20.4539566,0.0004044,30.6809311,0.0013199
		c11.1457977,0.0009918,22.2916107,0.0013123,33.4374084,0.0041733c0.4390564,0.0001144,0.8781128,0.0233612,1.3171692,0.0358276
		c0.0341949,0.1634369,0.0194092,0.3190155-0.0742493,0.4618759c-21.5732727-0.0007858-43.1465607-0.0015488-64.7198334-0.0023499
		c-0.1598053,0-0.3196259,0.0010147-0.4794083-0.0004883c-1.3312988-0.0124969-1.1053391,0.0465622-1.0852509,1.0963211
		c0.1927109,10.0709991,0.1375275,20.1434784,0.1798706,30.2153168c0.1110535,26.4193573,0.1186447,52.8395386,0.3333588,79.2580261
		c0.192627,23.7014923,0.0800171,47.4024506,0.1386414,71.1035309c0.0012741,0.5169373,0.0690384,1.0402527-0.0792236,1.5507202
		C120.5863266,286.368866,120.3918304,286.3712158,120.1973419,286.3735962z"></path>
	<path d="M186.9626312,100.8980103c-0.4788208,0.0101929-0.9576263,0.0293198-1.4364319,0.0292892
		c-21.6884308-0.0012665-43.3768768-0.0042191-65.0653-0.006958c-0.2396469-0.0000305-0.4793091-0.0016098-0.7189484,0.0002518
		c-1.1053238,0.0085678-1.1089783,0.0089111-1.1057663,1.0878677c0.0426712,14.3058853,0.0423889,28.6120682,0.1399536,42.9175797
		c0.1580734,23.1768494,0.0407333,46.3545837,0.2108231,69.5306854c0.1724472,23.4960632,0.192627,46.9917603,0.1960297,70.4878845
		c0.0000763,0.478363-0.0322723,0.9567871-0.0494919,1.4351501c-0.2113419-0.0003052-0.4226761-0.0006714-0.6340103-0.0010376
		c-0.0179062-0.438446-0.0514221-0.8768616-0.0514603-1.3153076c-0.0023804-22.4260254,0.007637-44.8520813-0.0046921-67.2781067
		c-0.01017-18.5084229-0.0259552-37.016922-0.0766754-55.5252686c-0.0553284-20.1870575-0.1537476-40.3739777-0.2333374-60.5609589
		c-0.0009384-0.2398453,0.0145874-0.4810486-0.0055618-0.7192383c-0.0364609-0.43116,0.182373-0.5669785,0.5719604-0.5494843
		c0.2392044,0.0107346,0.4793625-0.0002289,0.7190933-0.0001907c22.1357498,0.003334,44.271492,0.0065689,66.4072495,0.0121994
		c0.3986969,0.0001068,0.7973938,0.0292435,1.196106,0.044838
		C187.0743866,100.6345978,187.0491638,100.770752,186.9626312,100.8980103z"></path>
	<path d="M40.3898506,98.2058029c0.4372978-0.0196533,0.8745842-0.0564194,1.3118858-0.0565033
		c22.4518738-0.0039673,44.9037399-0.0061264,67.3556137-0.0034103c1.7694397,0.0002136,1.5069046-0.1786346,1.5041656,1.5411224
		c-0.0401077,25.2602997-0.0848465,50.5205841-0.1342392,75.7808838
		c-0.0254669,13.0295563-0.0793381,26.059082-0.0902023,39.0886536
		c-0.0195389,23.4212036-0.0158997,46.8424377-0.0253983,70.2636414c-0.000206,0.5174255,0.0610428,1.0398865-0.0737991,1.5517273
		c-0.1905365-0.0038757-0.3810654-0.0077515-0.5716019-0.0116577c-0.0303879-0.3162537-0.0875397-0.6325684-0.0873413-0.9487915
		c0.0089722-14.3086853-0.1069794-28.618927,0.0639954-42.9257355c0.3343353-27.9767761,0.1457443-55.9542542,0.2857056-83.931076
		c0.0977783-19.544632,0.092041-39.089798,0.1325302-58.6347198c0.0004196-0.199852-0.0147705-0.4012222,0.004425-0.5992508
		c0.047821-0.4933014-0.1119843-0.7607498-0.6598587-0.7017365c-0.2764435,0.0297775-0.558754,0.0050278-0.8384094,0.005043
		c-22.2925949,0.0009995-44.5852013,0.002182-66.8777924,0.0016479c-0.3988914-0.0000076-0.7977791-0.0205383-1.1966705-0.0314941
		C40.342514,98.4954834,40.3319054,98.3597412,40.3898506,98.2058029z"></path>
	<path d="M106.26651,286.1482239c-0.0159454-0.35849-0.046051-0.7170105-0.0458221-1.075531
		c0.0133972-21.1829224-0.0871964-42.3667603,0.0778503-63.5485077c0.1634979-20.9822998,0.119072-41.9647675,0.2674408-62.9467773
		c0.1192474-16.8656464,0.1617279-33.731842,0.2430496-50.5977707c0.0065536-1.35849,0.0286865-2.71772,0.0869217-4.0747452
		c0.0238037-0.5546417-0.1102905-0.8378067-0.7160416-0.7675858c-0.2759476,0.0319901-0.5586548,0.0057526-0.838295,0.0057983
		c-20.9732056,0.0036621-41.9464188,0.007431-62.9196243,0.0101089c-0.3993797,0.0000534-0.7987556-0.0127029-1.1981392-0.0194931
		c-0.1585045-0.1110153-0.1746864-0.2583923-0.1089439-0.426712c0.4374504-0.0202789,0.874897-0.058197,1.3123474-0.0582962
		c21.1351089-0.0048065,42.2702179-0.0063629,63.4053192-0.0082626c0.2397232-0.0000229,0.4827652,0.0258179,0.7185364-0.0046844
		c0.7040329-0.0910568,0.8652344,0.2346878,0.850853,0.891777c-0.0665131,3.036705-0.1099319,6.0743179-0.1224365,9.111763
		c-0.0661316,16.0685501-0.1179504,32.1371689-0.1794968,48.2057419
		c-0.0724182,18.9062042-0.1946182,37.8123322-0.2132492,56.7185822
		c-0.0220261,22.3433228,0.0439453,44.6867371,0.0690384,67.0301514c0.0005875,0.5186768-0.0312653,1.0374451-0.0479813,1.5561523
		C106.6940613,286.149353,106.4802856,286.1488037,106.26651,286.1482239z"></path>
	<path d="M41.8008156,107.2114639c0.4386673-0.0132828,0.8773346-0.038002,1.3160057-0.0382004
		c19.7360802-0.009201,39.4721603-0.0162582,59.2082367-0.0235519c0.2397079-0.0000916,0.4794312-0.0016632,0.7191238,0.0001526
		c1.092453,0.0082626,1.093399,0.0086136,1.0842361,1.1008606c-0.0914764,10.9112015-0.2020035,21.8222885-0.2710266,32.7336349
		c-0.134758,21.3034821-0.244278,42.6071472-0.3685303,63.9106903c-0.0573425,9.8322296-0.2092056,19.6647491-0.168396,29.496521
		c0.0655365,15.7879181,0.005188,31.5756836,0.0384445,47.3634338c0.0029449,1.3985291-0.0331116,2.7970886-0.051033,4.1956787
		c-0.1647263-0.0000305-0.3294525-0.0000916-0.4941788-0.0001221c0.074028-2.276886-0.2100143-4.5411987-0.2035065-6.8192444
		c0.0363464-12.7358398-0.0918045-25.4732056,0.059166-38.2073822c0.3439941-29.0166016,0.3385391-58.03508,0.5964355-87.0519409
		c0.1335602-15.0284576,0.238945-30.0571747,0.3567963-45.0857697c0.0097275-1.2410736,0.1433945-1.1458206-1.158432-1.1455002
		c-19.7366638,0.0048828-39.47332,0.0119705-59.2099762,0.0163879c-0.4786224,0.0001144-0.9572525-0.0243301-1.4358749-0.0373154
		C41.8124733,107.4836884,41.8066483,107.3475723,41.8008156,107.2114639z"></path>
	<path d="M122.1542053,286.3455505c-0.1802216-0.4220886-0.1090164-0.8674927-0.109375-1.3031616
		c-0.0163116-19.6600647-0.0005035-39.3202362-0.0501785-58.9802399
		c-0.0474548-18.7797241-0.1593781-37.5593109-0.2491074-56.3389282c-0.0668182-13.9855652-0.1326752-27.9711609-0.220192-41.956604
		c-0.0440216-7.032547-0.1353836-14.0647964-0.2050934-21.0971832c-0.0035629-0.3596191,0.0243225-0.7223511-0.0134277-1.0782089
		c-0.0643692-0.6068878,0.2317276-0.7803268,0.7720718-0.7263184c0.1581726,0.0158005,0.3192902,0.0018082,0.4790573,0.0018692
		c20.929039,0.0075073,41.8580704,0.0148621,62.7871017,0.0249023c0.2771759,0.0001297,0.5543213,0.0345078,0.8314667,0.0529022
		c0.0827332,0.1692123,0.0000763,0.2904816-0.1164398,0.4019089c-15.5035706,0.0005417-31.0071106,0.0014191-46.5106812,0.0014343
		c-5.4742584,0.0000076-10.9485168-0.0070648-16.4227753-0.0000458c-1.5076599,0.0019302-1.3164749-0.2006836-1.2956238,1.3594589
		c0.2121964,15.8695221,0.237709,31.7401581,0.301712,47.6105957c0.0635223,15.7505493,0.0867233,31.5016022,0.2381287,47.2513733
		c0.2670975,27.7831879,0.125061,55.5666504,0.1671906,83.3499451c0.0007248,0.4755859,0.0812759,0.9617004-0.1076202,1.4247437
		C122.3383484,286.3445129,122.2462769,286.3450012,122.1542053,286.3455505z"></path>
	<path d="M187.9454041,96.4108047c-15.6583557,0.0047455-31.3167114,0.0102768-46.9750671,0.0139084
		c-8.0289917,0.0018692-16.0579758,0.0003204-24.0869675,0.0003357c-1.5339737,0.0000076-1.5341492,0.0000534-1.5341492,1.484581
		c-0.0000229,62.3041306,0.0000458,124.6082535-0.0012283,186.912384c-0.0000076,0.519043-0.0181885,1.0381165-0.0278702,1.5571594
		c-0.1471329-0.0001526-0.2942581-0.0002747-0.441391-0.0003967c-0.0097275-0.479187-0.027977-0.9583435-0.0279846-1.4375
		c-0.0012589-62.4732666-0.0011902-124.9465027-0.0011826-187.419754c0-1.5984268,0.0000763-1.598526,1.5443802-1.5985413
		c23.3714218-0.0002289,46.7428513-0.000885,70.1142654,0.0023575c0.5171356,0.0000687,1.0342865,0.0446396,1.5514221,0.0684586
		C188.0215302,96.1328049,187.9834595,96.2718048,187.9454041,96.4108047z"></path>
	<path d="M41.4906006,104.9396286c0.4381065-0.0168152,0.8762054-0.0481491,1.3143158-0.0483627
		c20.4920845-0.0098724,40.984169-0.0185165,61.4762497-0.0218277c1.7079163-0.0002823,1.5026169-0.1882248,1.4826813,1.4334564
		c-0.2543716,20.7002029-0.259758,41.4018936-0.3785172,62.1028976
		c-0.0900955,15.7055664-0.1411896,31.4113922-0.2492828,47.1168518
		c-0.158432,23.0187073-0.0648956,46.0375977-0.0991516,69.0563965c-0.0007629,0.5169067,0.0697021,1.0403748-0.0842133,1.5500488
		c-0.107254-0.0021667-0.2145081-0.004364-0.3217621-0.0065613c-0.1385345-0.388031-0.0891495-0.7913513-0.0886993-1.1888428
		c0.0283203-25.4614258-0.0702744-50.9229279,0.1076355-76.3842468c0.1167526-16.7071686,0.1685638-33.4147949,0.2566223-50.1221924
		c0.0705719-13.3898315,0.1476746-26.7796478,0.2311935-40.1694183c0.0241776-3.8767929,0.0844421-7.753334,0.1201172-11.6300812
		c0.0135651-1.474678,0.1462402-1.2809525-1.2588348-1.2808228c-20.2157745,0.0019608-40.4315567,0.0085068-60.6473351,0.0126801
		c-0.5992737,0.0001144-1.1985474-0.0136795-1.7978249-0.0209732
		C41.5327301,105.2056351,41.5116653,105.0726242,41.4906006,104.9396286z"></path>
	<path d="M113.9100037,36.7998352c0.000473,82.7141037,0.0004578,165.4282074-0.0008469,248.1423035
		c-0.0000153,0.4790649-0.0196457,0.9580994-0.0300369,1.4371033c-0.1455383,0.0002441-0.291153,0.0005798-0.4368515,0.000885
		c-0.010376-0.3591919-0.0296936-0.7183228-0.0297012-1.0774841c-0.0012512-82.8369293-0.0012665-165.6738586-0.0008316-248.5107727
		C113.5675278,36.8178329,113.7054443,36.7983627,113.9100037,36.7998352z"></path>
	<path d="M40.8251457,100.4822464c0.478611-0.0141373,0.9572105-0.040535,1.4358215-0.0406494
		c21.8145561-0.0053024,43.6291237-0.0083008,65.4436798-0.0115891c0.1598206-0.0000229,0.3218384,0.016861,0.4790421-0.0034714
		c0.6139069-0.0793686,0.8723984,0.1351395,0.8271942,0.7967377c-0.0680161,0.995636-0.0680847,1.9968872-0.0713882,2.995842
		c-0.0647659,19.5863342-0.1017685,39.1728058-0.1926498,58.7590027
		c-0.1882401,40.5714722-0.0775909,81.1431122-0.1112137,121.7146606c-0.0003357,0.3995056-0.000824,0.799469-0.01931,1.1983643
		c-0.0078812,0.1699829-0.1091614,0.2819214-0.3014221,0.2879639c-0.2264481,0.0070801-0.3915024-0.0641174-0.4039688-0.3146057
		c-0.0138931-0.2791748-0.0138092-0.5592346-0.0135727-0.8388977c0.0146484-16.9481506-0.0952682-33.897583,0.0736847-50.8442078
		c0.2721786-27.2999725,0.1020432-54.6005249,0.281601-81.9003143c0.1098785-16.7077332,0.1383667-33.4159927,0.2034302-50.1240234
		c0.0007782-0.1998596-0.0139465-0.4013214,0.0060959-0.5992508c0.0461273-0.4553528-0.1337967-0.6671829-0.6038818-0.6387787
		c-0.3184052,0.0192337-0.6390076,0.001358-0.9586258,0.0013962c-21.6147919,0.0026398-43.2295876,0.0056076-64.8443756,0.0064087
		c-0.3982735,0.0000153-0.7965508-0.0257416-1.1948242-0.0394745
		C40.8486862,100.7523193,40.8369179,100.6172867,40.8251457,100.4822464z"></path>
	<path d="M185.7057648,107.6122131c-0.478302,0.0155716-0.9565887,0.044838-1.4348907,0.0447464
		c-19.8174133-0.0040741-39.6348419-0.0120697-59.4522552-0.0147629c-1.5750961-0.0002136-1.3568954-0.1601334-1.3462296,1.3103714
		c0.0968857,13.3506088,0.2083893,26.7011032,0.2956772,40.0517807c0.1602173,24.5029144,0.3578033,49.0057831,0.4436722,73.5089874
		c0.0729752,20.8252258,0.0111084,41.6509094,0.0041428,62.4763794c-0.0001144,0.3668518,0.0849991,0.7562866-0.1437836,1.2281799
		c-0.3804626-0.4286804-0.2693405-0.8392639-0.273056-1.2058411c-0.033287-3.2762756-0.0734253-6.5527039-0.0751877-9.829071
		c-0.0067291-12.6315002-0.0370483-25.2631683,0.0134048-37.894516c0.0400848-10.0326843,0.0060043-20.065155-0.101593-30.0963287
		c-0.138443-12.9109039-0.1113129-25.8220062-0.1973038-38.7328186
		c-0.0846634-12.7109375-0.1685867-25.4219055-0.2661896-38.1327515c-0.05616-7.3145981-0.138855-14.6289749-0.2096634-21.9434586
		c-0.0019302-0.199852,0.0103607-0.4011765-0.0094833-0.5992584c-0.0453873-0.45298,0.1279831-0.6735535,0.6022415-0.6363297
		c0.2382278,0.0187073,0.4791946,0.0021133,0.7189102,0.0022049c20.0971146,0.007309,40.1942062,0.0143585,60.2913284,0.0245514
		c0.398056,0.000206,0.7960815,0.0373535,1.1941376,0.0572662
		C185.8189697,107.3693848,185.8011627,107.4962921,185.7057648,107.6122131z"></path>
	<path d="M37.2403221,86.9762039c0.5983276-0.0126572,1.1966553-0.0364532,1.7949791-0.0363617
		c22.494072,0.0031281,44.9881439,0.0084534,67.4822083,0.0134735c0.2397308,0.0000534,0.4794464,0.0003433,0.7191772-0.0000763
		c1.4103622-0.0024872,1.2246628,0.0161819,1.2166443-1.2311859c-0.0909424-14.1498718-0.1893539-28.2996826-0.2752457-42.4495773
		c-0.0151749-2.4994392-0.0229874-4.9989281-0.028511-7.4984283c-0.0053558-2.4171638,0.0909653-0.2575836,0.5300446,0.1814995
		c0.0758057,14.4388771,0.1510849,28.8777504,0.2308578,43.3166008c0.0134735,2.4383545,0.0330963,4.8772202,0.1029282,7.3143234
		c0.0191956,0.6698914-0.1373672,0.9915314-0.8426743,0.8973618c-0.1177673-0.0157242-0.2394409-0.0019531-0.359314-0.0019684
		c-23.3746872-0.0027084-46.7493782-0.0054169-70.1240692-0.0085449c-0.0798416-0.0000153-0.159687-0.0061722-0.2395287-0.0094528
		C37.3303299,87.3218918,37.1767197,87.1953049,37.2403221,86.9762039z"></path>
	<path d="M103.5298462,33.8295135c0.1947021,14.9070435,0.3894043,29.8140869,0.5840912,44.7211304
		c0.001564,0.1198883,0.0016479,0.2398148,0.0045624,0.3596649c0.0450287,1.8525543,0.0451126,1.8532486-1.8676071,1.8523102
		c-22.3702621-0.010994-44.7405205-0.022171-67.1107788-0.0342178c-0.1193848-0.0000687-0.2387619-0.0132141-0.358139-0.0202484
		c-0.1606598-0.1221085-0.2532921-0.2763596-0.2292595-0.4857254c0.4785385-0.0112457,0.9570885-0.0325851,1.4356232-0.0322876
		c22.0790405,0.0133896,44.1580887,0.0286636,66.2371292,0.0437393c0.1597061,0.0001068,0.322052-0.0183411,0.478653,0.00383
		c0.7229767,0.1023102,0.9630127-0.1687469,0.9394531-0.923233c-0.0747986-2.3950043-0.0672226-4.7924881-0.1004715-7.1888885
		c-0.1769333-12.7508888-0.355957-25.5017433-0.5324936-38.252636
		C102.9808884,31.7262154,103.4985504,31.4333458,103.5298462,33.8295135z"></path>
	<path d="M190.8144836,87.4609833c-15.4614563,0.0059586-30.9231873-0.0419617-46.3842316,0.0395584
		c-8.3076935,0.0437927-16.6151276,0.0265198-24.9226151,0.0551529c-1.4864426,0.005127-1.2982483,0.1966095-1.298584-1.2340088
		c-0.0039368-16.6929855-0.0033417-33.3859596-0.0027313-50.0789375c0.1065369-0.5834351,0.5197983-0.9580917,0.4986954-0.0504112
		c0.0008011,16.3906937,0.0006561,32.7813873,0.0006638,49.1720886c0,0.2397079-0.0022202,0.4794312,0.0004044,0.7191086
		c0.0105743,0.9638672,0.0111237,0.9743729,0.9590378,0.9747543c7.4273605,0.0029907,14.8557053,0.0800858,22.281868-0.0144424
		c16.1692352-0.2058334,32.3385162-0.0325317,48.5075531-0.1028824c0.1972504-0.0008621,0.3946686,0.0376892,0.5920105,0.0578384
		C191.0826263,87.209877,190.9338226,87.3280258,190.8144836,87.4609833z"></path>
	<path d="M193.3000641,80.6509705c-3.7931671,0.0269241-7.5863037,0.0724182-11.3794861,0.0773621
		c-12.7003021,0.0165634-25.4009552-0.0353394-38.100769,0.0489197c-6.3872223,0.0423813-12.7741852,0.0361404-19.161232,0.0633316
		c-1.3102798,0.0055771-1.1762695,0.1549454-1.1763153-1.1180344c-0.0004807-14.9475632,0.0014954-29.8951378,0.0033417-44.8427124
		c0.0003281-2.6734543,0.4924622-2.3631516,0.4927826-0.231926c0.0022125,14.7742958,0.0017242,29.5485992,0.0018158,44.3228989
		c0.0000153,1.3725739,0.0004807,1.3725815,1.4025345,1.3730087c0.2396774,0.0000687,0.4793854,0.001564,0.7190399-0.0002136
		c21.9663239-0.162674,43.9330902-0.1363297,65.8997498-0.1539688c0.4785767-0.0003891,0.9571991,0.0218735,1.435791,0.0335693
		C193.4782715,80.3936462,193.4607697,80.5453033,193.3000641,80.6509705z"></path>
	<path d="M115.3389893,36.7396889c0.0035477,11.2539444,0.007225,22.5078888,0.0099335,33.761837
		c0.0015793,6.5924759,0.000351,13.1849594,0.0002136,19.7774429c-0.0000305,1.3638992-0.0332184,1.1429367,1.1603699,1.1430969
		c23.8015747,0.0032883,47.6031189,0.0031052,71.4046936,0.0063477c0.4776306,0.0000534,0.9552307,0.0326614,1.4328613,0.0500717
		c0.0426025,0.1808853-0.0072937,0.3237228-0.172287,0.4192047c-22.3675537,0.0027771-44.7351379,0.0055847-67.1026917,0.0082932
		c-2.1169434,0.0002594-4.2342834-0.0229645-6.3506088,0.0131683c-0.6771088,0.0115585-0.9564133-0.2045746-0.877121-0.8836517
		c0.0322266-0.2759552,0.0052109-0.5588303,0.0052109-0.8385544c-0.000206-17.8075867-0.0004044-35.6151695-0.0005951-53.4227562
		C114.9905853,36.7670097,115.1854095,36.7415962,115.3389893,36.7396889z"></path>
	<path d="M117.0266418,36.5086517c0.0011444,17.1212273,0.001152,34.2424545,0.0013046,51.3636856
		c0,0.1597672,0.019577,0.322464-0.0035782,0.4788055c-0.1000443,0.6754532,0.1717606,0.9519577,0.8538055,0.8600388
		c0.2744827-0.0369797,0.5580978-0.0060349,0.8375626-0.0060425c23.3150864-0.0005646,46.6301651-0.001442,69.9452591,0.0006104
		c0.4776611,0.0000458,0.9553223,0.0343094,1.4329834,0.0526123c0.0276947,0.1826553,0.003891,0.3446426-0.1777802,0.4432449
		c-24.1210632,0.001358-48.2421417,0.0027161-72.3631973,0.0041275c-1.0463104,0.0000534-1.0343246,0.2084198-1.034111-1.0139389
		c0.0030289-17.3655396,0.0055161-34.7310715,0.0086517-52.0966034
		C116.6423492,36.5552444,116.8287048,36.546772,117.0266418,36.5086517z"></path>
	<path d="M36.3034248,84.8217087c0.4933281-0.2456818,1.0215378-0.1254272,1.5318794-0.1254654
		c22.5182571-0.0018997,45.0365143,0.0040131,67.5547791,0.008934c1.5178375,0.0003281,1.5091629,0.000351,1.4638138-1.5209732
		c-0.0333252-1.1178513-0.0490875-2.2364273-0.0574417-3.3547897c-0.1119995-14.9879379-0.2221298-29.9758949-0.3318329-44.9638519
		c-0.016304-2.2275848,0.4843826-2.4018707,0.5018311-0.00103c0.1034012,14.2246246,0.2061157,28.4492569,0.3142319,42.673851
		c0.0173035,2.2776947,0.0519257,4.5556946,0.1208191,6.8322678c0.0189133,0.6252213-0.1671219,0.8954391-0.7986755,0.8180618
		c-0.1574173-0.0192795-0.3192368-0.0026321-0.4790268-0.002655c-23.209877-0.0035477-46.4197388-0.0071182-69.6296082-0.0106964
		C36.3598671,85.0956726,36.2675629,84.9932861,36.3034248,84.8217087z"></path>
	<path d="M110.5547638,36.4543037c0.0001907,17.2833557,0.0009384,34.5667076-0.004837,51.850071
		c-0.0005188,1.559082,0.2566223,1.3986053-1.394577,1.3986664c-23.6450195,0.0008011-47.2900391-0.0033417-70.935051-0.0062943
		c-0.048645-0.1413498-0.09729-0.2826996-0.1459351-0.4240494c0.3571968-0.0230865,0.7143936-0.06633,1.0715942-0.0663681
		c23.2411842-0.002594,46.4823685-0.001297,69.7235565-0.0021667c1.2621613-0.0000458,1.1915436,0.2778854,1.191391-1.2086029
		c-0.0017776-17.2173767-0.0037689-34.4347382-0.0051041-51.6521034
		C110.1949997,36.310997,110.3450012,36.3798332,110.5547638,36.4543037z"></path>
	<path d="M35.6944427,82.585968c0.4616585-0.194664,0.9471397-0.1018448,1.4207001-0.1018982
		c22.2402954-0.0023499,44.4805908,0.0011368,66.7208939,0.0037994c1.434227,0.0001755,1.4364014-0.000351,1.4206085-1.4717331
		c-0.1020432-9.5065079-0.2067032-19.0129967-0.3073654-28.519516c-0.0673141-6.3572044-0.1313782-12.7144394-0.196434-19.0716667
		c-0.0126114-1.2321014,0.4900665,0.2299194,0.5205536,3.4673157c0.0997314,10.5915222,0.1903305,21.1831436,0.299881,31.7745628
		c0.0454712,4.3962555,0.1335907,8.7920685,0.1942978,13.1881943c0.0159607,1.1552887,0.1528625,1.1327972-1.0630264,1.1325684
		c-22.7326889-0.0042572-45.4653778-0.00914-68.1980591-0.0163879c-0.2380447-0.0000763-0.476078-0.0333023-0.714119-0.0510559
		C35.7597275,82.808754,35.7270851,82.6973648,35.6944427,82.585968z"></path>
	<path d="M120.6224289,35.569828c0.0015106,15.9022064,0.0012131,31.804409,0.0013046,47.7066231
		c0.0000076,1.3844223,0.0004272,1.3843307,1.3904495,1.3849182c22.8871384,0.0096054,45.7742844,0.0189362,68.6614151,0.0309982
		c0.437912,0.0002365,0.8757782,0.0326385,1.3136749,0.0500336c0.0402985,0.1806488-0.0079956,0.3250198-0.1725922,0.4217529
		c-17.4057465-0.0005417-34.8114777-0.0010223-52.2172241-0.0016556c-6.108078-0.0002213-12.2161713,0.0025558-18.3242416-0.0039978
		c-1.2972488-0.0013885-1.1490784,0.1648254-1.1492386-1.1420593c-0.0020065-16.1313248-0.001236-32.262661-0.0006561-48.3939934
		C120.1254196,33.021431,120.6222305,33.4089088,120.6224289,35.569828z"></path>
	<path d="M122.3001556,34.999836c0.0021515,15.2661667,0.0017548,30.5323296,0.0017548,45.7984962
		c0,0.1997147-0.0008011,0.3994522,0.0001221,0.5991669c0.0050278,1.0886536,0.0051804,1.090332,1.0705719,1.0902176
		c22.5976715-0.002533,45.195343-0.005806,67.7930145-0.0062408c0.5178375-0.0000076,1.0356903,0.0311508,1.5535278,0.0477829
		c0.0397949,0.1920013-0.0184937,0.3410263-0.1923676,0.4393921c-22.8078766,0.0064011-45.6157379,0.0151291-68.4235992,0.0088196
		c-0.7406998-0.000206-1.687149,0.3629303-2.1724091-0.1650543c-0.4215546-0.4586792-0.1236649-1.3735352-0.1239777-2.085701
		c-0.0066147-15.1822968-0.00811-30.3645859-0.0096359-45.5468826
		C121.7968903,32.5787048,122.2998581,32.8902969,122.3001556,34.999836z"></path>
	<path d="M38.8153191,91.4884109c0.4775047-0.0207214,0.9550018-0.0593414,1.4325142-0.0595322
		c9.8250732-0.0039368,19.6501503,0.0021667,29.4752197-0.0053024c13.6183701-0.0103531,27.2367325-0.0301666,40.8551025-0.0462494
		c1.1267929-0.0013351,1.1296158-0.0024567,1.1267776-1.1466446c-0.0443878-17.8661804-0.0895767-35.7323647-0.1332245-53.5985489
		c0.1382904,0.0176964,0.2432938,0.0176964,0.4146957,0.0540848c0.0021591,18.0665817,0.0043793,36.1331635,0.0049362,54.1997452
		c0.0000229,1.0109024-0.0090714,1.018692-1.0439529,1.0187073c-24.0058212,0.0002975-48.0116501-0.0012207-72.0174713-0.0024033
		C38.8917198,91.7643127,38.8535194,91.6263657,38.8153191,91.4884109z"></path>
	<path d="M188.5596619,94.1722794c-0.3586578,0.0106354-0.7173157,0.0305557-1.0759735,0.0305634
		c-23.9254456,0.0002518-47.8509064,0.0001221-71.7763443-0.0118942c-0.4373703-0.0002213-0.9407501,0.1865158-1.3758392-0.2503433
		c0.4282074-0.4504471,0.9317474-0.2552643,1.3648682-0.2558594c10.7844162-0.0147247,21.56884-0.0140381,32.3532639-0.0151291
		c13.1410217-0.0013275,26.2820587-0.0022354,39.4230804-0.0004425c0.397583,0.0000458,0.7951813,0.0322342,1.1927643,0.0494461
		C188.7002106,93.8861771,188.7043457,94.0466003,188.5596619,94.1722794z"></path>
	<path d="M39.4144592,93.7135239c0.3975906-0.0155029,0.7951813-0.0445862,1.1927757-0.0445786
		c23.6439323,0.0003204,47.2878685,0.0007553,70.931778,0.022934c0.4475555,0.0004196,1.2340164-0.3621063,1.291687,0.2848206
		c0.0356064,0.3992996-0.8093567,0.2124786-1.2494965,0.212738c-23.6439285,0.0137329-47.2878571,0.013649-70.9317932,0.0135117
		c-0.3587952,0-0.7175903-0.0184631-1.0763855-0.0283127C39.4558182,94.0430908,39.3505821,93.9074173,39.4144592,93.7135239z"></path>
</g>
<path d="M189.3682404,91.1565399c0.0375671-0.1338425,0.0751343-0.2676697,0.1127014-0.4015045
	c0.0261383,0.028389,0.072525,0.0551529,0.0749512,0.0854416c0.012146,0.1519699,0.0203705,0.3102493-0.208313,0.2966614
	C189.3475342,91.1370926,189.3682556,91.1565399,189.3682404,91.1565399z"></path>
<g onclick="select(this)" class="" id="gola-primaria" fill="#a2cff0">
	<path d="M149.1920471,8.2665339c1.6939392,0.4726591,2.2954254,2.5113087,1.6764832,4.7439165
		c-1.1702118,4.221241-3.5444641,7.6797829-6.640976,10.6468983c-2.7452393,2.6305218-5.8021545,4.8994617-9.1010895,6.8097744
		c-4.4165955,2.5575047-9.0063553,4.6916981-14.078331,5.6319599c-0.9518661,0.1764565-1.8975296,0.0651474-2.9256516,0.2119141
		c0.0962601-0.7886925,0.5959167-1.2629395,0.9921494-1.7654648c2.8672943-3.636528,6.4311218-6.5473347,9.9547958-9.5003853
		c3.1523438-2.6418457,6.6448364-4.8692551,9.5260773-7.842041c1.7865601-1.8433084,3.4441986-3.782876,4.6701813-6.0531158
		c0.3357849-0.6218185,0.6031036-1.2805748,0.9593048-2.0458479c-2.4323578,0.1821613-4.6977844,0.3347807-6.9600983,0.5245132
		c-6.2502136,0.5241804-12.5107498,0.8739176-18.7725449,1.2287455c-7.974205,0.4518642-15.8826065-0.3800211-23.8044815-0.9912195
		c-3.5429001-0.2733459-7.0799713-0.6263847-10.6162415-0.9779987c-0.8916092-0.0886545-0.9337845,0.2375078-0.6452408,0.9307556
		c0.5874176,1.4113483,1.3421936,2.7167549,2.3023758,3.9077702c1.9884262,2.4664373,4.1855927,4.7240839,6.6866608,6.6749144
		c4.9820175,3.8859615,9.9055557,7.8397236,14.2901917,12.4103851c0.9518585,0.9922409,1.8467331,2.0424995,2.6657181,3.3343887
		c-2.3787918,0.1687813-4.5244446-0.29776-6.5661926-0.9732132c-9.7687759-3.2317219-18.1325226-8.4916897-24.0654449-17.1269894
		c-1.2417297-1.8073368-1.9321899-3.8451538-2.3278809-5.9871454c-0.3179321-1.7210159,0.0242157-3.181798,1.6840515-4.0964561
		c0.5143661-0.0252366,0.9027328-0.3090868,1.2522583-0.6413717c0.9263687-0.8806643,2.0001678-1.6612997,2.7273788-2.6858664
		c2.0422745-2.8773975,5.0196915-3.6030319,8.2393723-3.9380414c3.0733871-0.3197877,6.1406097,0.0641102,9.2117691,0.0276584
		c4.3972549-0.0521912,8.7969818,0.0443268,13.1928406-0.0513675c7.9100418-0.1721947,15.8178406,0.0474255,23.7266388,0.0363705
		c0.912384-0.0012754,1.8285217,0.1743852,2.7368927,0.3086998c2.2479095,0.3323816,4.1504211,1.1903371,5.5703125,3.1194048
		C145.9542999,5.7696943,147.367691,7.2616229,149.1920471,8.2665339z"></path>
</g>
<g onclick="select(this)" class="" id="detalhe-punho" fill="#a2cff0">
	<path d="M0.24,114.41436c0.6107783-1.2420959,0.4154505-2.6777496,0.9468267-3.9383621
		c1.976527,0.6283646,3.9751949,1.2142029,5.9778385,1.7141418c6.2971659,1.5719833,12.7390747,2.1274796,19.2143612,2.1471405
		c3.7452736,0.0113754,7.5113277,0.3100128,11.2349834-0.3948441c1.0541039-0.1995392,2.1049347-0.416481,3.1596031-0.6128845
		c1.5306358-0.2850342,1.7421913-0.1876984,1.9219894,1.3255692c0.2250328,1.8939514,0.3311653,3.8020096,0.4886246,5.7039795
		c-0.9007339,0.7405167-2.0174828,0.9574585-3.1024132,1.1645813c-2.5106468,0.4793091-5.038868,0.7957077-7.609993,0.8197708
		c-6.994585,0.0654373-13.9775391,0.038559-20.892168-1.2381592c-3.0178013-0.5572052-6.0275316-1.1423187-8.9426279-2.1199341
		c-0.8160248-0.273674-1.598931-0.6459885-2.3970258-0.9730606C0.24,116.8129883,0.24,115.613678,0.24,114.41436z"></path>
	<path d="M184.6309204,120.0944595c-0.3148346-2.185524,0.5825043-4.2480927,0.6513672-6.3962173
		c0.0263062-0.8202362,0.6699219-0.5588303,1.0703583-0.4709015c2.9887848,0.6561584,6.0377808,0.4623337,9.0567627,0.6636734
		c4.9618225,0.330925,9.8569183-0.2946701,14.7624969-1.0241394c5.6631317-0.8421249,11.2531128-1.8569412,16.5039825-4.2465134
		c0.3738708-0.1701431,0.7536316-0.2538681,1.1609039-0.2217789c1.1353607,2.336441,1.1766968,4.8449707,1.0996246,7.3563385
		c-0.0221863,0.7228928-0.7844391,0.8354187-1.3140411,1.0370178c-2.8729095,1.0936127-5.8452148,1.8682861-8.8147736,2.6399994
		c-8.731369,2.2690582-17.6292267,2.7698975-26.595108,2.3430557c-2.0615845-0.0981522-4.1379395-0.3113708-6.1459808-0.8887787
		C185.5256805,120.7307129,184.9997711,120.5572357,184.6309204,120.0944595z"></path>
</g>
</svg>
