<!--?xml version="1.0" encoding="utf-8"?-->
<!-- Generator: Adobe Illustrator 24.2.3, SVG Export Plug-In . SVG Version: 6.00 Build 0)  -->
<svg version="1.1" id="Camada_1" xmlns="http://www.w3.org/2000/svg" xmlns:xlink="http://www.w3.org/1999/xlink" x="0px" y="0px" viewBox="0 0 229 418" enable-background="new 0 0 229 418" xml:space="preserve">
<g onclick="select(this)" class="" id="gola-primaria" fill="#021c3b">
	<path d="M77.97,7.97c0.93-0.16,1.51-0.87,2.15-1.45c0.71-0.65,1.47-1.28,2.01-2.05c1.74-2.47,4.26-3.34,7.08-3.74
		c0.67-0.1,1.44,0.11,1.99-0.49c1.2,0,2.4,0,3.6,0c0.17,0.49,0.6,0.31,0.91,0.31c5.58,0.02,11.16,0.02,16.73,0.04
		c0.41,0,0.77-0.05,1.07-0.35c7.52,0,15.04,0,22.56,0c0.08,0.48,0.49,0.31,0.77,0.36c0.95,0.16,1.9,0.26,2.85,0.41
		c2.04,0.32,3.76,1.13,5.07,2.86c1.28,1.68,2.72,3.25,4.58,4.35c1.38,0.59,1.99,1.6,1.87,3.12c-0.3,3.67-2.07,6.65-4.28,9.45
		c-0.41,0.52-0.69,0.1-0.98-0.12c-1.78-1.35-3.54-2.73-5.34-4.06c-0.57-0.42-0.67-0.73-0.15-1.3c1.37-1.52,2.54-3.19,3.4-5.06
		c0.54-1.16,0.52-1.21-0.71-1.12c-3.31,0.25-6.61,0.55-9.92,0.77c-7.77,0.51-15.52,1.3-23.33,0.96c-5.83-0.25-11.64-0.67-17.45-1.21
		c-2.78-0.26-5.57-0.51-8.35-0.74c-0.76-0.06-1.34-0.18-0.73,1.03c1.02,2.02,2.26,3.86,3.77,5.52c0.43,0.47,0.51,0.8-0.05,1.24
		c-1.73,1.35-3.44,2.74-5.14,4.13c-0.54,0.44-0.9,0.46-1.37-0.12c-1.91-2.36-3.37-4.96-4.15-7.91C75.82,10.48,76.27,9.18,77.97,7.97
		z"></path>
</g>
<g onclick="select(this)" class="" id="detalhe-punho" fill="#f6d101">
	<path d="M227.85,108.48c0.69,1.05,0.5,2.32,0.88,3.44c0.07,0.22,0.03,0.47,0.23,0.64c0,1.2,0,2.4,0,3.6
		c-2.21,1.46-4.82,1.85-7.29,2.6c-9.73,2.94-19.72,3.58-29.8,3.1c-2.15-0.1-4.37-0.2-6.4-1.17c0.4-0.53,0.52-0.95-0.39-0.94
		c-0.34,0-0.51-0.16-0.5-0.51c0.09-2.12,0.07-4.25,0.48-6.34c0.16-0.02,0.33-0.08,0.47-0.04c3.59,0.95,7.28,0.9,10.95,0.98
		c2.48,0.05,4.98,0.25,7.42-0.15c3.07-0.5,6.14-1.01,9.2-1.55C218.11,111.23,222.97,109.83,227.85,108.48z"></path>
	<path d="M0.24,114.96c0.24-1.29,0.48-2.59,0.7-3.89c0.07-0.42,0.07-0.86,0.44-1.17c3.99,1.54,8.09,2.61,12.32,3.33
		c4.42,0.76,8.83,1.37,13.32,1.23c1.83-0.06,3.67-0.23,5.49-0.19c1.61,0.04,3.17-0.28,4.77-0.32c1.11-0.03,2.31-0.04,3.28-0.48
		c1.15-0.51,1.71-0.32,2.12,0.76c0.14,0.63,0.2,1.33,0.18,1.92c-0.05,1.39,0.82,2.79,0.01,4.17c-1.91,1.37-4.18,1.58-6.39,1.82
		c-5.05,0.54-10.14,0.39-15.19,0.17c-5.73-0.25-11.4-1.18-16.94-2.78c-1.44-0.41-2.97-0.6-4.12-1.72
		C0.24,116.88,0.24,115.92,0.24,114.96z"></path>
</g>
<g onclick="select(this)" class="" id="detalhe-lateral" fill="#f6d101">
	<path d="M180.3,284.15c-0.34-5.1-0.61-10.19-0.8-15.3c-0.14-3.71-0.33-7.41-0.48-11.12
		c-0.3-7.18-0.53-14.35-0.74-21.54c-0.2-6.75-0.31-13.49-0.51-20.24c-0.41-13.75-0.11-27.49-0.22-41.24
		c0.09-6.58,0.19-13.17,0.28-19.75c0.03-1.88-0.19-3.79,0.08-5.62c0.65-4.33,0.6-8.7,1.13-13.03c0.33-2.67,0.61-5.35,0.89-8.03
		c0.29-2.84,0.73-5.66,1.27-8.46c0.05-0.11,0.14-0.21,0.16-0.32c0.97-6.46,2.49-12.79,4.42-19.03c0.96-3.12,2.03-6.21,3.49-9.22
		c0.18,0.51-0.01,0.88-0.12,1.26c-0.7,2.38-1.32,4.77-1.81,7.2c-0.89,4.38-1.84,8.74-2.26,13.2c-0.41,2.1-0.39,4.22-0.48,6.34
		c-0.01,0.34,0.15,0.51,0.5,0.51c0.91-0.01,0.79,0.41,0.39,0.94c-0.5-0.19-0.89-0.51-0.98,0.5c-0.58,6.43-1.47,12.83-1.71,19.3
		c-0.11,3.04-0.1,6.07-0.15,9.11c-0.02,1.16-0.06,2.32,0.23,3.46c0.78,3.14,0.03,6.27-0.12,9.4c-0.07,1.4-0.15,2.79,0.02,4.18
		c0.29,2.32-0.22,4.62-0.2,6.94c0.04,4,0.35,8.02,0.01,11.98c-0.38,4.44,0.66,8.62,1.38,12.89c0.88,5.19,0.97,10.39,0.24,15.61
		c-0.32,2.29-0.56,4.59-0.78,6.89c-0.04,0.41,0.13,0.86,0.27,1.27c2.03,5.94,2.48,12.01,1.42,18.19c-0.31,1.77-0.14,3.48,0.21,5.21
		c0.42,2.05,0.58,4.12,0.5,6.2c-0.2,5.21,0.46,10.37,0.78,15.56c0.26,4.25,0.98,8.47,0.93,12.75c-0.03,2.1-0.37,2.68-2.4,3.24
		C183.54,283.79,181.96,284.24,180.3,284.15z"></path>
	<path d="M50.12,174.63c-0.21,0.46-0.11,0.95-0.11,1.42c-0.02,11.35,0.05,22.71-0.11,34.06
		c-0.06,4.51-0.12,9.03-0.22,13.54c-0.14,6.19-0.28,12.37-0.53,18.56c-0.18,4.39-0.33,8.77-0.47,13.16
		c-0.19,5.7-0.46,11.4-0.74,17.09c-0.19,3.78-0.48,7.56-0.73,11.34c-1.72-0.09-3.37-0.54-4.98-1.11c-1.72-0.61-2.15-1.2-2.07-3.05
		c0.12-2.79,0.18-5.58,0.44-8.36c0.29-3.14,0.39-6.3,0.7-9.44c0.55-5.73,0.43-11.5,1.01-17.22c0.32-3.17,0.33-6.27,0.05-9.42
		c-0.18-1.99,0.19-3.98,0.61-5.94c0.2-0.91,0.13-1.8,0.07-2.73c-0.28-4.22-0.88-8.42-0.84-12.67c0.05-4.74,1.14-9.26,2.71-13.68
		c0.33-0.92,0.54-1.81,0.45-2.8c-0.15-1.64-0.11-3.27,0.18-4.9c0.13-0.74,0.14-1.52,0.09-2.27c-0.13-1.99-0.17-3.97-0.12-5.98
		c0.05-1.85-0.08-3.74-0.2-5.61c-0.14-2.24,0.15-4.48,0.06-6.7c-0.42-11.27,0.14-22.55-0.28-33.82c-0.18-4.74-0.97-9.46-1.51-14.18
		c-0.14-1.21,0-2.48-0.7-3.59c0.8-1.38-0.06-2.78-0.01-4.17c0.02-0.6-0.03-1.29-0.18-1.92c0.24-1.18-0.21-2.29-0.36-3.43
		c-0.52-3.92-0.89-7.86-1.75-11.73c-0.06-0.29-0.25-0.71,0.21-0.91c0.3,0.09,0.35,0.37,0.41,0.57c1.26,4.16,2.57,8.32,3.44,12.59
		c0.57,2.82,1.13,5.64,1.69,8.46c0.18,0.28,0.21,0.59,0.25,0.91c0.24,1.88,0.49,3.77,0.78,5.64c0.52,3.33,0.83,6.68,1.13,10.03
		c0.21,2.33,0.4,4.67,0.53,7.01c0.21,3.72,0.63,7.42,0.87,11.14c0.18,2.78,0.05,5.58,0.2,8.37
		C50.28,166.79,50.12,170.72,50.12,174.63z"></path>
</g>
<g onclick="select(this)" class="" id="estampa-primaria" fill="#021c3b">
	<path d="M180.3,284.15c-7.66,1.04-15.37,1.35-23.09,1.44c-12.91,0.15-25.82,0.56-38.73,0.93
		c-6.8,0.19-13.58-0.47-20.38-0.58c-8.64-0.14-17.27-0.25-25.91-0.41c-8.36-0.16-16.71-0.39-24.99-1.72
		c0.25-3.78,0.54-7.56,0.73-11.34c0.29-5.7,0.56-11.39,0.74-17.09c0.14-4.39,0.29-8.77,0.47-13.16c0.25-6.18,0.39-12.37,0.53-18.56
		c0.1-4.51,0.16-9.03,0.22-13.54c0.16-11.35,0.08-22.7,0.11-34.06c0-0.47-0.1-0.96,0.11-1.42c0.44,0.03,0.87,0.08,1.31,0.08
		c4.36,0.01,8.72,0,13.08,0c37.68,0,75.36,0.01,113.03,0.01c0.11,13.75-0.19,27.49,0.22,41.24c0.2,6.74,0.31,13.49,0.51,20.24
		c0.21,7.18,0.44,14.36,0.74,21.54c0.16,3.71,0.34,7.41,0.48,11.12C179.69,273.95,179.96,279.05,180.3,284.15z"></path>
	<path d="M46.32,119.79c-0.56-2.82-1.13-5.64-1.69-8.46c-0.86-4.27-2.17-8.43-3.44-12.59
		c-0.06-0.2-0.11-0.48-0.41-0.57c-0.45,0.2-0.27,0.63-0.21,0.91c0.86,3.87,1.24,7.81,1.75,11.73c0.15,1.14,0.61,2.25,0.36,3.43
		c-0.41-1.08-0.98-1.27-2.12-0.76c-0.98,0.43-2.18,0.45-3.28,0.48c-1.6,0.04-3.16,0.36-4.77,0.32c-1.83-0.05-3.66,0.13-5.49,0.19
		c-4.49,0.14-8.9-0.47-13.32-1.23c-4.23-0.73-8.33-1.79-12.32-3.33c1.69-9,2.51-18.12,4.03-27.14c0.88-5.24,1.18-10.56,2.24-15.78
		c1.75-8.63,4.52-16.82,9.86-23.96c1.8-2.41,3.84-4.6,6.09-6.59c1.59-1.4,3.02-3.04,4.79-4.13c2.48-1.53,5.17-2.74,7.83-3.94
		c7.23-3.26,14.69-5.99,21.87-9.38c4.86-2.3,9.68-4.68,14.29-7.47c0.62-0.37,1.13-0.84,1.61-1.39c1.03-1.21,2.26-2.14,3.97-2.14
		c-1.7,1.21-2.15,2.51-1.54,4.82c0.78,2.94,2.24,5.54,4.15,7.91c0.47,0.58,0.83,0.56,1.37,0.12c1.7-1.4,3.4-2.78,5.14-4.13
		c0.57-0.44,0.48-0.77,0.05-1.24c-1.51-1.66-2.75-3.5-3.77-5.52c-0.61-1.21-0.03-1.09,0.73-1.03c2.79,0.23,5.57,0.49,8.35,0.74
		c5.81,0.53,11.62,0.96,17.45,1.21c7.81,0.34,15.56-0.45,23.33-0.96c3.31-0.22,6.61-0.52,9.92-0.77c1.23-0.09,1.25-0.04,0.71,1.12
		c-0.87,1.86-2.03,3.54-3.4,5.06c-0.51,0.57-0.42,0.87,0.15,1.3c1.8,1.33,3.56,2.71,5.34,4.06c0.29,0.22,0.56,0.64,0.98,0.12
		c2.21-2.8,3.98-5.78,4.28-9.45c0.12-1.51-0.49-2.53-1.87-3.12c1.81-0.14,2.97,0.95,4.05,2.16c0.34,0.38,0.66,0.75,1.11,1.04
		c8.69,5.8,18.42,9.48,27.97,13.47c5.29,2.21,10.49,4.61,15.76,6.86c0.22,0.09,0.46,0.17,0.64,0.31
		c8.42,6.41,15.31,13.99,18.76,24.27c1.46,4.37,2.77,8.78,3.33,13.35c0.83,6.72,2.28,13.3,3.75,19.9c1.38,6.24,2.14,12.6,3.14,18.91
		c-4.88,1.35-9.73,2.76-14.73,3.65c-3.06,0.55-6.13,1.05-9.2,1.55c-2.44,0.4-4.94,0.21-7.42,0.15c-3.67-0.08-7.35-0.03-10.95-0.98
		c-0.14-0.04-0.32,0.02-0.47,0.04c0.42-4.46,1.37-8.82,2.26-13.2c0.49-2.43,1.11-4.82,1.81-7.2c0.11-0.38,0.3-0.75,0.12-1.26
		c-1.46,3.01-2.53,6.1-3.49,9.22c-1.93,6.24-3.45,12.57-4.42,19.03c-0.02,0.11-0.1,0.21-0.16,0.32c-0.48-0.02-0.96-0.04-1.44-0.04
		c-44.08,0-88.16,0-132.24,0C47.12,119.77,46.72,119.78,46.32,119.79z"></path>
</g>
<g onclick="select(this)" class="" id="estampa-secundaria" fill="#f6d101">
	<path d="M46.32,119.79c0.4-0.01,0.8-0.02,1.2-0.02c44.08,0,88.16,0,132.24,0c0.48,0,0.96,0.03,1.44,0.04
		c-0.54,2.8-0.98,5.62-1.27,8.46c-0.27,2.68-0.56,5.36-0.89,8.03c-0.53,4.33-0.48,8.71-1.13,13.03c-0.27,1.84-0.06,3.75-0.08,5.62
		c-0.09,6.58-0.18,13.17-0.28,19.75c-37.68,0-75.36-0.01-113.04-0.01c-4.36,0-8.72,0-13.08,0c-0.44,0-0.87-0.05-1.31-0.08
		c0-3.92,0.16-7.84-0.05-11.74c-0.15-2.79-0.02-5.59-0.2-8.37c-0.23-3.72-0.66-7.42-0.87-11.14c-0.13-2.34-0.32-4.67-0.53-7.01
		c-0.3-3.35-0.61-6.71-1.13-10.03c-0.29-1.88-0.54-3.76-0.78-5.64C46.53,120.38,46.5,120.07,46.32,119.79z"></path>
</g>
</svg>
