<!--?xml version="1.0" encoding="utf-8"?-->
<!-- Generator: Adobe Illustrator 24.2.3, SVG Export Plug-In . SVG Version: 6.00 Build 0)  -->
<svg version="1.1" id="Camada_1" xmlns="http://www.w3.org/2000/svg" xmlns:xlink="http://www.w3.org/1999/xlink" x="0px" y="0px" viewBox="0 0 229 418" style="enable-background:new 0 0 229 418;" xml:space="preserve">
<style type="text/css">
	.st0{fill:#FD0202;}
	.st1{fill:#FEE300;}
</style>
<g onclick="select(this)" class="" id="gola-primaria" fill="#000000">
	<path d="M78,8c0.8-0.1,1.3-0.6,1.8-1.1c0.8-0.7,1.6-1.4,2.2-2.2c2.4-3.4,5.9-4.1,9.6-4.1c10.8-0.1,21.7,0,32.5,0
		c3.7,0,7.4,0,11,0c2.1,0,4.1,0.4,6.1,0.9c1.2,0.3,2.2,1,3.1,2c1.5,1.8,3,3.7,5.1,4.9c1.9,0.9,2.2,2,1.6,4.7c-0.9,4-3.1,7.3-6,10.1
		c-3.2,3.1-6.7,5.8-10.6,8c-2.5,1.4-5,2.6-7.6,3.6c-4.9,1.8-10,2.5-15.3,2.1c-6.9-0.5-13.4-2.4-19.3-6.2c-4.7-3-9.1-6.2-12.5-10.7
		c-1.6-2.1-2.7-4.4-3.4-7C75.9,10.5,76.2,9.2,78,8z M144.3,9.1c-1.6,0.1-3.1,0.2-4.5,0.3c-8.3,0.7-16.6,1.3-25,1.5
		c-6.4,0.2-12.8-0.5-19.1-1C91.8,9.6,88,9.2,84.1,8.9C83.3,8.8,83,9,83.4,9.8c0.5,1.1,1,2.3,1.8,3.2c3.9,4.9,8.5,9,14.2,11.7
		c5.4,2.7,11.2,4.2,17.3,3.4c9.8-1.2,17.7-6,24.1-13.4C142.3,13.2,143.5,11.4,144.3,9.1z"></path>
</g>
<g onclick="select(this)" class="" id="estampa-primaria" fill="#000000">
	<path d="M229,116.1c-6.9,2.8-14,4.3-21.3,5.2c-6.2,0.8-12.4,0.7-18.6,0c-1.5-0.2-3.1-0.4-4.6-1.3c-0.2,2.1-0.4,4.1-0.6,6
		c-0.9,7.2-1.3,14.5-1.4,21.8c0,2.2,0.1,4.4,0.5,6.6c0.4,2-0.1,3.9-0.2,5.8c0,0.7-0.2,1.4-0.1,2.2c0.2,6.5-0.6,13.1,0,19.6
		c0.1,1.5,0,3-0.1,4.4c-0.3,3.1,0.2,6.1,0.9,9.1c1.6,7.2,1.4,14.5,0.3,21.8c-0.3,2.1-0.4,4.2,0.3,6.4c1.8,5.4,1.8,11,0.9,16.6
		c-0.2,1.5-0.3,2.9,0.1,4.4c0.9,3.8,0.4,7.7,0.6,11.6c0.3,5.9,0.7,11.8,1.4,17.7c0.3,2,0.2,4.1,0.3,6.2c0,1.7-0.4,2.2-2.1,2.7
		c-3,0.9-6.1,1.2-9.2,1.5c-7.7,0.8-15.4,0.9-23.1,1c-11.2,0.2-22.5,0.7-33.7,0.8c-12.5,0.2-24.9-0.8-37.4-0.8
		c-8.4,0-16.8-0.1-25.2-0.7c-4.1-0.3-8.3-0.8-12.4-1.7c-0.2,0-0.3-0.1-0.5-0.1c-3.4-0.8-3.7-1.2-3.5-4.7c0.5-7.7,1-15.5,1.5-23.2
		c0.1-2.1,0.3-4.1,0.2-6.2c0-1.8,0-3.5,0.4-5.3c0.4-2.3,0.5-4.5,0.1-6.8c-0.4-2.5-0.1-5,0.4-7.5c0.2-1,0.2-2,0.1-3
		c-0.3-4.5-1-9.1-0.8-13.6c0.2-4.4,1.2-8.5,2.7-12.6c0.4-1,0.6-2,0.4-3.1c-0.2-1.2-0.2-2.5,0.1-3.7c0.3-1.7,0.2-3.3,0.1-5
		c-0.2-3.3-0.2-6.5-0.2-9.8c-0.1-12.9,0-25.9-0.1-38.8c0-5.1-1-10.2-1.5-15.3c-0.1-1.3-0.3-2.6-0.5-3.8c-8.8,2.5-17.7,2-26.6,1.1
		c-4.7-0.5-9.4-1.3-14-2.8c-0.9-0.3-1.7-0.6-2.5-1.2c0-1,0-2.1,0-3.1c0.4-0.1,0.3-0.4,0.3-0.7c0.3-1.8,0.7-3.7,1-5.5
		c1.9-10,2.9-20.1,4.4-30.1c0.9-6,1.5-12,3.2-17.8c2.7-9.7,7.4-18.3,15.2-24.9c1.1-0.9,2.2-1.9,3.2-2.9c0.6-0.6,1.3-1,2-1.4
		c6.5-3.1,13.1-5.9,19.8-8.7c7.6-3.1,15-6.6,22.1-10.7c1-0.6,2-1.3,2.8-2.2C75.2,8.7,76.4,8,78,8c-1.7,1.3-2.1,2.5-1.5,4.8
		c0.7,2.5,1.8,4.8,3.4,7c3.3,4.5,7.8,7.8,12.5,10.7c5.9,3.7,12.4,5.7,19.3,6.2c5.2,0.4,10.3-0.4,15.3-2.1c2.7-1,5.2-2.2,7.6-3.6
		c3.9-2.2,7.4-4.9,10.6-8c2.8-2.8,5.1-6.1,6-10.1c0.6-2.7,0.2-3.8-1.6-4.7c1.8-0.1,3,1,4.1,2.2c0.3,0.3,0.4,0.7,0.8,0.9
		c4,2.3,7.9,4.8,12.1,6.7c10.4,4.7,21.1,8.8,31.5,13.6c0.7,0.3,1.3,0.7,1.9,1.2c1.1,0.9,2.1,1.8,3.2,2.7c3.7,2.9,6.8,6.3,9.4,10.2
		c4.3,6.6,6.7,13.9,8.3,21.6c1,4.9,1.2,9.8,2.4,14.7c1.5,5.7,2.6,11.5,3.5,17.4c0.5,3.6,1,7.3,1.7,10.8c0.2,0.8-0.2,1.9,0.8,2.5
		C229,113.7,229,114.9,229,116.1z"></path>
	<path d="M144.3,9.1c-0.8,2.3-2.1,4.1-3.5,5.8c-6.4,7.4-14.3,12.2-24.1,13.4c-6.1,0.7-11.8-0.8-17.3-3.4C93.8,22,89.1,18,85.2,13
		c-0.8-1-1.3-2.1-1.8-3.2c-0.4-0.9-0.1-1,0.7-0.9c3.9,0.4,7.7,0.8,11.6,1.1c6.4,0.5,12.7,1.2,19.1,1c8.3-0.2,16.7-0.8,25-1.5
		C141.3,9.3,142.7,9.2,144.3,9.1z"></path>
</g>
<g onclick="select(this)" class="" id="estampa-secundaria" fill="#ffffff">
	<path d="M186,262.1c0.4,2,0.4,4,0.6,6.1c0.3,3.9,0.9,7.8,0.9,11.7c0,2.5-0.3,3-2.8,3.6c-3.4,0.9-6.9,1.2-10.4,1.5
		c-10.9,1-21.8,0.7-32.7,1c-9.8,0.3-19.7,0.9-29.5,0.6s-19.7-0.5-29.5-0.7c-7.7-0.1-15.4-0.1-23.1-0.6c-5.2-0.4-10.3-0.8-15.3-1.9
		c-0.3-0.1-0.5-0.1-0.8-0.2c-2.8-0.8-3.1-1.2-3-4.1c0.1-5.6,0.7-11.1,1.1-16.7c0.3,0,0.7-0.1,1.1-0.1
		C90.3,262.1,138.1,262.1,186,262.1z"></path>
	<path d="M183.9,223.5c1.6,4.6,1.9,9.3,1.5,14.1c-0.1,1.6-0.3,3.1-0.6,4.6c-0.2,1.1,0.4,2,0.3,3.1c-0.4,0-0.8,0-1.2,0
		c-46.8,0-93.5,0-140.3,0c-0.4,0-0.9-0.1-1.3-0.1c0-0.5,0.1-1,0.2-1.5c0.4-2.2,0.4-4.3,0.1-6.5c-0.3-2.1-0.3-4.1,0.2-6.2
		c0.4-1.9,0.6-3.7,0.3-5.6c-0.1-0.6,0-1.2,0-1.8c0.5,0,1-0.1,1.5-0.1c14.2,0,28.5,0,42.7,0C119.5,223.5,151.7,223.5,183.9,223.5z"></path>
	<path d="M43,120.5c-0.1-3.5-0.7-7-1.1-10.6c-0.2-2.1-0.7-4.1-0.7-6.1c0.4,0,0.8,0.1,1.2,0.1c47.5,0,95.1,0,142.6,0
		c0.4,0,0.8,0,1.2,0c-0.4,2.8-0.9,5.6-1.3,8.4c-0.3,2.7-0.6,5.3-0.6,8c-0.2,1.8-0.5,3.7-0.7,5.5c-0.5,0-1,0-1.4,0
		c-45.7,0-91.5,0-137.2,0c-0.4,0-0.9,0-1.3,0C43.2,124,43.4,122.2,43,120.5z"></path>
	<path d="M43.2,205.3c0.4-1.5,0.7-2.9,1.3-4.4c0.5-1.3,0.7-2.6,0.6-4c-0.1-1.6-0.1-3.3,0.3-4.9c0.2-0.6,0.2-1.3,0.1-1.9
		c-0.3-2.1-0.3-4.3-0.1-6.5c0.5,0,1-0.1,1.5-0.1c44.6,0,89.2,0,133.9,0c0.5,0,1,0,1.6,0c0.2,1.4-0.1,2.8-0.2,4.2
		c-0.2,3.2,0.7,6.1,1.3,9.2c0.5,2.7,1,5.5,0.8,8.3c-0.2,0-0.4,0-0.6,0c-46.4,0-92.8,0-139.3,0C44,205.4,43.6,205.3,43.2,205.3z"></path>
	<path d="M182.3,143.8c-0.1,7.2,0.9,14.4,0,21.6c-0.3,0-0.6,0-1,0c-45,0-90,0-135.1,0c-0.4,0-0.8,0-1.2-0.1
		c-0.3-4.7,0-9.3,0-14c0-2.5,0-5,0.1-7.5c0.5,0,1-0.1,1.5-0.1c42.9,0,85.8,0,128.8,0C177.8,143.8,180,143.8,182.3,143.8z"></path>
	<path d="M36.6,85.8c-2.9-6.1-5-12.3-4-19.2c0.1-0.9-0.1-1.8,0.2-2.6c0.6,0,1.1,0.1,1.7,0.1c52.8,0,105.6,0,158.4,0
		c0.6,0,1.1,0,1.7,0c0,5.7,0.2,11.3-1.4,16.8c-0.5,1.7-1,3.3-1.7,4.9c-0.5,0-1-0.1-1.6-0.1c-50.6,0-101.2,0-151.7,0
		C37.6,85.7,37.1,85.8,36.6,85.8z"></path>
	<path d="M196,47.1c-0.5,0-1,0-1.6,0c-53.8,0-107.6,0-161.3,0c-0.6,0-1.1,0-1.7,0c-0.4-1.9-0.9-3.8-0.9-5.8
		c4.7-2,9.5-3.4,14.4-4.6c8.7-2.2,17.2-4.9,25.2-8.9c3.3-1.6,6.4-3.7,9.6-5.6c0.4-0.3,0.9-0.5,1.4-0.7c2.8,2.9,5.9,5.4,9.3,7.7
		c5.7,3.8,11.9,6.2,18.6,7.1c11.3,1.5,21.1-2.1,30.1-8.5c2.3-1.7,4.5-3.6,6.5-5.6c0.3-0.3,0.5-0.6,0.9-0.6c4.8,3.7,10.1,6.6,15.6,9
		c8.6,3.8,17.7,6.2,26.7,8.6c2.7,0.7,5.4,1.5,7.9,2.5C197,43.5,196.2,45.3,196,47.1z"></path>
</g>
</svg>
