<!--?xml version="1.0" encoding="utf-8"?-->
<!-- Generator: Adobe Illustrator 24.2.3, SVG Export Plug-In . SVG Version: 6.00 Build 0)  -->
<svg version="1.1" id="Camada_1" xmlns="http://www.w3.org/2000/svg" xmlns:xlink="http://www.w3.org/1999/xlink" x="0px" y="0px" viewBox="0 0 229 418" enable-background="new 0 0 229 418" xml:space="preserve">
<g onclick="select(this)" class="" id="estampa-primaria" fill="#bf0811">
	<path d="M43.3875046,115.9281998c-0.3804893-0.7593231-0.1661072-1.6614532-0.6029205-2.4191055
		c-0.1984901-0.3442917-0.3752174-0.7100143-0.7915878-0.4404831c-1.3315773,0.8619843-2.8770103,0.635582-4.3134613,0.805748
		c-1.7313309,0.2050934-3.4885635,0.3136902-5.2500381,0.3458481c-3.4334297,0.0626678-6.8658466,0.3827896-10.2973785,0.0423508
		c-6.6107159-0.6558304-13.1357832-1.740181-19.397501-4.0666275c-0.2976847-0.1105957-0.5830224-0.2543945-0.8740931-0.3827667
		c1.7899306-9.5023575,2.6885967-19.1367569,4.2582512-28.6731644c0.8426151-5.1193008,1.1584306-10.3164978,2.256669-15.4050598
		c1.7446499-8.0836258,4.4581041-15.7489853,9.4218426-22.4775429c2.1457825-2.908699,4.5916576-5.5448303,7.4281387-7.7850304
		c1.3344879-1.0539589,2.2994785-2.5360756,3.8290253-3.3338928c3.6148033-1.8855038,7.2542801-3.7286377,11.0284233-5.2783661
		c10.0274162-4.1174316,20.0643959-8.2123909,29.5621986-13.4859104c1.9391403-1.0766773,3.9338226-2.0501871,5.4105377-3.8396473
		c0.8109818-0.9827251,1.9905396-1.5904641,3.3671417-1.5671678c-1.664093,1.1765685-2.1263809,2.6297307-1.5008545,4.9422078
		c0.7959061,2.9422398,2.2909622,5.5181732,4.2069778,7.8697643c0.3737564,0.4587288,0.6788406,0.5504646,1.1702042,0.1451874
		c1.7568359-1.4490795,3.5236664-2.8873825,5.3231735-4.282795c0.7106628-0.5510674,0.3060226-0.9331846-0.0745773-1.3490562
		c-1.4101791-1.5408764-2.6882477-3.1733322-3.4878387-5.12358c-0.1557007-0.3797646-0.5581665-0.8348761-0.2207336-1.2047291
		c0.2552719-0.2798033,0.7628937-0.0804348,1.1560135-0.0428095c6.6818619,0.6395187,13.3724594,1.1666765,20.0644226,1.69244
		c10.8164597,0.8498087,21.5571899-0.2324715,32.3157806-0.9718924c2.420578-0.1663618,4.8387451-0.3677864,7.4111633-0.5647984
		c-0.8917847,2.3800554-2.210022,4.3141155-3.7774811,6.0769958c-0.5461426,0.6142073-0.6091156,0.941577,0.1091919,1.4620466
		c1.8111115,1.3123245,3.5627594,2.7066383,5.3391113,4.0669384c0.3033295,0.2322807,0.5727844,0.612566,0.9757996,0.093195
		c2.2054596-2.8423271,4.0285034-5.8426857,4.2597656-9.5706816c0.0912781-1.4713221-0.5092316-2.4441967-1.8441772-3.0037222
		c1.8040009-0.1235514,2.9677124,0.963213,4.0435638,2.1754436c0.3423004,0.3857002,0.6642609,0.7411375,1.1140747,1.0351553
		c10.0152283,6.5464888,21.2102356,10.5996943,32.1522675,15.1752443c3.9647217,1.6579075,7.8065491,3.5749054,11.7430115,5.2901115
		c1.6351776,0.7124977,2.7434845,2.2689476,4.1796265,3.3404427c3.1261292,2.3323669,5.8217316,5.1096878,8.1725159,8.219841
		c4.8403625,6.4038811,7.573822,13.7226105,9.31427,21.4695435c0.648407,2.8861542,1.1841888,5.7966232,1.4676514,8.7398987
		c0.558075,5.7943726,2.3275146,11.3395309,3.417038,17.0236282c1.1276703,5.8830719,1.9454803,11.8155975,2.8697968,17.7311859
		c-4.869751,1.3711243-9.7276459,2.7584534-14.7245636,3.6553421c-3.059433,0.5491333-6.129364,1.0498962-9.1941071,1.5534821
		c-2.4351196,0.4001312-4.9387207,0.1601944-7.4136963,0.1605759c-3.8368988,0.0005951-7.6494446-0.2201309-11.4201202-0.9681702
		c0.3979797-4.4217834,1.3395233-8.752449,2.2377625-13.0872345c0.5362549-2.5878677,1.2085876-5.1475754,1.8197479-7.7199402
		c-0.3908234,0.3567734-0.6051025,0.7716446-0.7894287,1.1994095c-1.7770386,4.123909-3.0289459,8.4271622-4.1758423,12.7510147
		c-2.369339,8.9325562-3.8379669,18.0407791-4.8481293,27.214325c-0.5737152,5.2101593-0.938385,10.4479065-1.2374268,15.6823578
		c-0.2820282,4.936264-0.494751,9.884491-0.4939728,14.8274231c0.0026703,16.9393768-0.2863922,33.8787994,0.1625824,50.819046
		c0.1935272,7.3013306,0.2618408,14.6057129,0.5153046,21.9078064c0.1688232,4.8633728,0.3232422,9.7277069,0.4854279,14.5916138
		c0.1993561,5.9791107,0.4654694,11.9532013,0.7396088,17.9288177c0.2302856,5.019989,0.4219666,10.0404358,0.8112335,15.0513
		c-7.654129,1.0700073-15.3581696,1.3612976-23.0732269,1.452179c-12.9472351,0.1525269-25.8881378,0.5621948-38.8301086,0.9285889
		c-6.7608566,0.1913757-13.4958496-0.4653015-20.2470016-0.5768433c-8.7106094-0.1439514-17.42202-0.2460632-26.1319199-0.4232178
		c-8.3101959-0.1690063-16.6230583-0.3525085-24.8476944-1.7511292c0.5418816-3.7588501,0.4816322-7.5588074,0.7390099-11.3370361
		c0.3820419-5.6081238,0.5792046-11.2305908,0.7604103-16.8500214c0.1427193-4.4258575,0.2925491-8.8505402,0.4726982-13.2752838
		c0.2548981-6.2610779,0.389267-12.5274048,0.5358238-18.7924042c0.0933838-3.9920197,0.1545982-7.9874725,0.1912727-11.9777985
		c0.131134-14.2671509,0.08078-28.5359955,0.0866127-42.8041992c0.0009117-2.2374725-0.0170631-4.4768066-0.1053925-6.7121582
		c-0.2500496-6.3277893-0.3140182-12.664093-0.8974266-18.9772339c-0.2267075-2.4532471-0.2513618-4.9276428-0.5398026-7.3721466
		c-0.5810051-4.9239349-1.1191139-9.8507843-2.0031929-14.7410049c-1.0833206-5.9923477-2.1588326-11.9780273-3.9337807-17.8119583
		c-0.6581345-2.1631546-1.2049675-4.3685989-2.1506386-6.554039c-0.583252,0.8811417,0.1611862,1.4419861,0.2478638,2.0992279
		c0.4439659,3.3662796,1.0535736,6.7120743,1.4424057,10.0838013
		C42.7954979,111.0284653,43.5900459,113.4209595,43.3875046,115.9281998z"></path>
</g>
<g onclick="select(this)" class="" id="detalhe-punho" fill="#000000">
	<path d="M228.3225098,108.4025879c0.5749817,0.7692032,0.4148407,1.7266006,0.6702423,2.5743942
		c0.1290283,0.4283524,0.0513458,0.9416275,0.4472504,1.2786179c0,1.2792664,0,2.5585327,0,3.8377991
		c-2.5883942,1.5184555-5.5240936,2.0408173-8.3501892,2.8522034c-9.2681122,2.6609497-18.7564392,3.2958908-28.337616,2.8338699
		c-2.0632324-0.0994873-4.1380768-0.3150177-6.1518097-0.877861c-0.5486603-0.1533432-1.0449371-0.3735123-1.4878845-0.7239075
		c-0.2774658-2.4845276,0.3950195-4.910202,0.4574432-7.3736725c3.770752,0.7478256,7.5832977,0.9685516,11.4201965,0.9679565
		c2.4749756-0.0003815,4.9785767,0.2395554,7.4136963-0.1605759c3.064743-0.5035858,6.1346741-1.0043488,9.1941071-1.5534821
		C218.5948639,111.1610413,223.4527588,109.7737122,228.3225098,108.4025879z"></path>
	<path d="M0.72,114.6542282c0.4893606-1.1710663,0.3771629-2.4589615,0.7112086-3.6613846
		c0.1128705-0.4062881,0.0125914-0.8849258,0.4293164-1.1796799c0.2910706,0.1283722,0.5764085,0.272171,0.8740932,0.3827667
		c6.2617168,2.3264465,12.7867842,3.4107971,19.3974991,4.0666275c3.4315319,0.3404388,6.8639488,0.0203171,10.2973785-0.0423508
		c1.7614746-0.0321579,3.5187073-0.1407547,5.2500381-0.3458481c1.436451-0.170166,2.981884,0.0562363,4.3134613-0.805748
		c0.4163704-0.2695313,0.5930977,0.0961914,0.7915878,0.4404831c0.4368134,0.7576523,0.2224312,1.6597824,0.6029205,2.4191055
		c0.0466232,1.5126266,0.5876122,2.9912491,0.3115692,4.5260544c-2.6691475,1.3422165-5.5943871,1.6769257-8.4834976,1.7902603
		c-9.3506927,0.3668442-18.6755371,0.1407166-27.842226-2.0807114c-2.2731495-0.5508575-4.541153-1.1079407-6.6533499-2.1515045
		C0.72,116.8929443,0.72,115.7735825,0.72,114.6542282z"></path>
</g>
<g onclick="select(this)" class="" id="estampa-secundaria" fill="#000000">
	<path d="M180.8250122,36.5883484c0,0-29.1231232-6.8985176-39.8160095-21.4340324
		c0,0-8.1940002,10.7744303-25.9540024,10.7744303s-22.7173767-5.3288937-27.0673752-9.7590694
		c-6.1074905,5.5631771-12.8427429,9.485508-19.852623,12.8001537c-6.7374649,3.1858311-13.6835098,5.8350468-22.760006,7.6385059
		C61.9550056,36.8328247,180.8250122,36.5883484,180.8250122,36.5883484z"></path>
	<path d="M190.7750092,88.468338c0,0,2.9599457-4.5398254,3.9999695-11.0299988
		s0.8286743-14.970211,0.8286743-14.970211h-35.248642L33.2650032,62.718338c0,0,0.2676201,1.5248337,0.0038109,4.0898285
		c-0.2638092,2.5650024,0.0771751,7.7481232,0.3854218,9.1031265s1.1707611,4.2471924,1.9407654,5.1170349
		c0.5759773,1.313942,2.4252548,7.3894272,3.1300011,7.4400101S190.7750092,88.468338,190.7750092,88.468338z"></path>
	<path d="M183.2450104,139.9783325c0,0,0.3074951-4.6576691,0.3974915-5.8726654
		c0.0900116-1.2149963,0.292923-3.2942657,0.4725189-4.8773193s0.6472168-6.8124161,0.7400208-7.6500092
		s0.3518982-4.3800888,0.4241486-5.1151886s0.2108307-2.4151688,0.2108307-2.4151688l-142.0796204,0.0292816
		c0,0,0.3793831,5.2895584,0.4046249,5.5627518c0.025238,0.273201,0.0228424,1.7117462,0.2471199,3.3899231
		c0.2242737,1.6781845,0.4356613,2.9791107,0.8561783,6.5378876c0.4205208,3.5587769,0.8366699,6.9205322,0.8366699,6.9205322
		l0.0500145,3.5799713L183.2450104,139.9783325z"></path>
	<path d="M183.1850128,191.6469574c0,0-0.3358765-3.735672-0.1852264-5.0706635
		c0.15065-1.3349762,0.4042358-4.268692,0.1297302-5.4196625c-0.2745056-1.1509552-0.1037598-7.7039185-0.0932159-8.0613556
		c0.0105438-0.3574219,0.0737152-3.4592743,0.1487122-3.8769379s0.2717133-1.0026703,0.0664825-2.4989166
		c-0.0664978-0.9000092-0.0051422-1.0210876-0.0051422-1.0210876L45.8550072,165.718338
		c0,0,0.1371918,2.9251251,0.1235962,5.7149811s-0.0197029,7.7173004-0.0022507,8.436615
		c0.0174522,0.7193298,0.0373421,4.2957001,0.1389885,6.5731964c0.1016464,2.2775116,0.159668,5.1452179,0.159668,5.1452179
		L183.1850128,191.6469574z"></path>
	<path d="M187.0850067,268.7383423c0,0,0.4438782,3.0228882,0.6750031,5.744812
		c0.2311249,2.7219543,0.3523865,5.085022,0.1986847,6.3675232c-0.1536865,1.2825012-0.2775879,1.8156128-2.5664673,2.3660583
		c-2.2888641,0.5504456-8.4772186,1.6914368-17.7172241,2.0214233c-9.2399902,0.3300171-26.9405212,0.5662231-29.0127563,0.631073
		s-21.5072479,0.6795654-25.6022491,0.4742432c-4.0949936-0.2052917-23.222908-0.75354-27.5863342-0.7930298
		c-4.3634262-0.0394592-19.9885025-0.2449951-24.4807816-0.5354614s-13.2446251-1.0543823-17.1512527-2.1930847
		c-1.8366241-0.5312195-2.6027603-0.914978-2.8215675-1.7637329s-0.5750847-2.3247681-0.0650711-4.6298828
		c-0.079998-2.3501282,0.0574875-3.4223938,0.25-4c-0.0618477-0.7576294-0.1174889-1.1997681,0.3300133-3.6899414
		C45.3350029,268.7383423,187.0850067,268.7383423,187.0850067,268.7383423z"></path>
	<path d="M185.3950043,243.2083435c0,0,0.2195282-3.5101776,0.5947723-6.0901794
		c0.3752289-2.5800018,0.0484619-9.8536835-0.7331543-11.181839s-1.189743-4.5397797-1.2106781-5.6489716
		s0.2195129-2.9890442,0.2195129-2.9890442s-3.1091766-0.263855-5.8654633-0.1348572
		c-2.7562866,0.1289825-4.9071045,0.1734161-4.9071045,0.1734161l-120.247879-0.0485382l-10.2961159-0.0399933
		c0,0,0.0915642,3.5878601,0.1760788,3.8048248c0.0845146,0.21698,0.4630203,2.3466797,0.4500351,3.8051758
		s0.2300034,3.4099884,0.2300034,3.4099884s-0.4600029,2.9251709-0.6800041,3.6300049s-0.0100021,4.5400085-0.0100021,4.5400085
		s0.3254356,2.58461,0.2614288,3.4548798c-0.0640106,0.870285-0.3314247,3.3051147-0.3314247,3.3051147L185.3950043,243.2083435z"></path>
</g>
<g onclick="select(this)" class="" id="detalhe-lateral" fill="#000000">
	<path d="M180.7968903,283.9697571c-0.389267-5.0108643-0.5809479-10.031311-0.8112335-15.0513
		c-0.2741394-5.9756165-0.5402527-11.949707-0.7396088-17.9288177c-0.1621857-4.8639069-0.3166046-9.728241-0.4854279-14.5916138
		c-0.2534637-7.3020935-0.3217773-14.6064758-0.5153046-21.9078064c-0.4489746-16.9402466-0.1599121-33.8796692-0.1625824-50.819046
		c-0.0007782-4.9429321,0.2119446-9.8911591,0.4939728-14.8274231c0.2990417-5.2344513,0.6637115-10.4721985,1.2374268-15.6823578
		c1.0101624-9.1735458,2.4787903-18.2817688,4.8481293-27.214325c1.1468964-4.3238525,2.3988037-8.6271057,4.1758423-12.7510147
		c0.1843262-0.4277649,0.3986053-0.8426361,0.7894287-1.1994095c-0.6111603,2.5723648-1.283493,5.1320724-1.8197479,7.7199402
		c-0.8982391,4.3347855-1.8397827,8.665451-2.2377625,13.0872345c-0.0625,2.4636841-0.7349854,4.8893585-0.4575195,7.3738861
		c-1.2758331,10.3456116-2.3217926,20.7093811-1.9548645,31.1531219c0.0848389,2.4152832,0.7513123,4.7976074,0.4013214,7.251236
		c-0.3329468,2.3339691-0.4436188,4.6863556-0.4229584,7.0467682c0.057663,6.5835724,0.0962219,13.1778717-0.1157379,19.7472687
		c-0.1442261,4.4696655,0.7029877,8.6943665,1.4201355,12.9989471c0.8516235,5.1116943,0.9524536,10.2363281,0.2455597,15.3785553
		c-0.3202972,2.3298645-0.5408936,4.6733246-0.8157654,7.0095825c-0.0491943,0.4181061,0.0968781,0.7891998,0.2263184,1.1624146
		c1.9881592,5.7323914,2.493515,11.6085815,1.5863037,17.5897217c-0.321701,2.1208649-0.3144531,4.1804047,0.1411743,6.2758179
		c0.4254303,1.9566803,0.509079,3.958847,0.4698334,5.9625092c-0.1443481,7.3678131,0.6830597,14.6733856,1.3834839,21.9889984
		c0.219574,2.2931824,0.3342133,4.5985718,0.3148651,6.9089355c-0.0093384,1.1126404-0.4960938,1.8147888-1.5023651,2.1924744
		C184.6552124,283.5325928,182.7667694,283.9595337,180.7968903,283.9697571z"></path>
	<path d="M43.3875046,115.9281998c0.2025414-2.5072403-0.5920067-4.8997345-0.8747025-7.35112
		c-0.3888321-3.371727-0.9984398-6.7175217-1.4424057-10.0838013c-0.0866776-0.6572418-0.8311157-1.2180862-0.2478638-2.0992279
		c0.9456711,2.1854401,1.4925041,4.3908844,2.1506386,6.554039c1.7749481,5.833931,2.8504601,11.8196106,3.9337807,17.8119583
		c0.884079,4.8902206,1.4221878,9.81707,2.0031929,14.7410049c0.2884407,2.4445038,0.3130951,4.9188995,0.5398026,7.3721466
		c0.5834084,6.3131409,0.647377,12.6494446,0.8974266,18.9772339c0.0883293,2.2353516,0.1063042,4.4746857,0.1053925,6.7121582
		c-0.0058327,14.2682037,0.0445213,28.5370483-0.0866127,42.8041992c-0.0366745,3.9903259-0.0978889,7.9857788-0.1912727,11.9777985
		c-0.1465569,6.2649994-0.2809258,12.5313263-0.5358238,18.7924042c-0.1801491,4.4247437-0.3299789,8.8494263-0.4726982,13.2752838
		c-0.1812057,5.6194305-0.3783684,11.2418976-0.7604103,16.8500214c-0.2573776,3.7782288-0.1971283,7.578186-0.7390099,11.3370361
		c-1.7245865-0.0838623-3.3726768-0.5370178-4.9845734-1.1035767c-1.6185989-0.5689087-2.0116501-1.1138-1.9831123-2.8437195
		c0.0459366-2.7848511,0.1864548-5.5653687,0.4139137-8.3447876c0.433239-5.2938843,0.7164192-10.6002197,1.1700706-15.8921509
		c0.4089508-4.770462-0.068821-9.5951233,0.9217758-14.3286285c0.1891174-0.9036407,0.0947456-1.838028-0.0444946-2.7452698
		c-0.4787102-3.1191711-0.3467941-6.214859,0.3346939-9.2854462c0.1951103-0.8791046,0.1336899-1.7297516,0.0723305-2.6114655
		c-0.2882462-4.1416168-0.8612595-8.2615356-0.8543091-12.4265594c0.0080452-4.8191986,1.1005249-9.4173431,2.7082024-13.9132538
		c0.3438072-0.961441,0.5690727-1.8806915,0.4489937-2.909317c-0.176609-1.5128784-0.1274376-3.0283203,0.1454735-4.536911
		c0.1131401-0.625412,0.2028465-1.277359,0.1551666-1.9060059c-0.3654709-4.8179779-0.0608177-9.6545563-0.424675-14.4716797
		c-0.0846596-1.1208496,0.0723495-2.2323608,0.1582413-3.3475952c0.1443939-1.874649,0.0628281-3.747345-0.0448914-5.6249847
		c-0.3893738-6.7869263-0.1290779-13.5804901-0.0253029-20.3673248c0.1122742-7.3421783-0.643425-14.5998688-1.5617981-21.8567352
		c-0.1952286-1.5427094-0.3826065-3.0864105-0.5735855-4.6296616
		C43.9751167,118.9194489,43.4341278,117.4408264,43.3875046,115.9281998z"></path>
</g>
<g onclick="select(this)" class="has-opacity" id="estampa-terciaria" fill="#000000" opacity="0.3">
	<path d="M185.4400024,46.7799988c-3.2400055,0-6.4799957-0.0099983-9.7200012,0.0099983
		c-0.5200043,0-1.1600037-0.2900009-1.4100037,0.6100006c-0.1000061,0.3499985-0.7299957,0.1500015-1.1100006,0.1500015
		c-6.6399994,0.0099983-13.2799988,0-19.9100037,0.0200005c-0.5399933,0-1.3699951-0.3899994-1.3899994,0.7299995
		c0,0.2099991-0.3200073,0.1699982-0.5099945,0.1800003c-0.4400024,0.0099983-0.8800049,0-1.3200073,0
		c-24.3499985,0-48.7099991,0-73.0599976-0.0099983c-0.5400009,0-1.2799988,0.3499985-1.4499969-0.7000008
		c-0.0699997-0.4199982-0.6999969-0.2000008-1.0800018-0.2000008c-6.5999985-0.0099983-13.2000008,0-19.7900009-0.0299988
		c-0.5999985,0-1.4599991,0.4399986-1.75-0.6500015c-0.0299988-0.1199989-0.6599998-0.0999985-1.0200005-0.0999985
		c-6.3199997-0.0099983-12.6399994,0-18.9500008-0.0099983c-0.3499985,0-0.7599983,0.0400009-1.0400009-0.1199989
		c-0.3400002-0.1800003-0.3199997-0.6500015-0.2299995-0.9900017c0.1200008-0.5099983,0.5999985-0.2700005,0.9099998-0.2700005
		c6.3199997-0.0099983,12.6399994,0,18.9500008-0.0299988c0.5900002,0,1.4599991,0.4700012,1.6500015-0.7400017
		c0.0499992-0.3100014,0.7299995-0.1599998,1.1100006-0.1599998c6.7200012-0.0099983,13.4399986,0,20.1499977-0.0099983
		c0.4800034,0,1.0999985,0.2799988,1.2600021-0.6300011c0.0699997-0.4199982,0.6999969-0.2299995,1.0800018-0.2299995
		c4.8799973-0.0099983,9.7600021-0.0099983,14.6399994-0.0099983c19.7099991,0,39.4300079,0,59.1399994,0.0099983
		c0.5299988,0,1.2799988-0.3699989,1.4600067,0.6800003c0.0599976,0.3600006,0.7200012,0.1699982,1.1000061,0.1699982
		c6.6799927,0.0099983,13.3600006,0,20.0299988,0.0200005c0.5099945,0,1.2100067-0.3100014,1.3500061,0.6899986
		c0.0599976,0.4399986,0.6900024,0.2099991,1.0599976,0.2099991c6.7200012,0.0099983,13.4400024,0.0200005,20.1499939,0
		c0.8000031,0,1.25,0.1100006,0.9199982,1.0400009c-0.1999969,0.5600014-0.6600037,0.3499985-1.0099945,0.3499985
		C192.2400055,46.7900009,188.8399963,46.7799988,185.4400024,46.7799988z"></path>
	<path d="M113.8799973,54.9000015c-12.2799988,0-24.5499954,0-36.8300018-0.0099983
		c-0.5500031,0-1.2699966,0.3499985-1.5199966-0.6500015c-0.0899963-0.3699989-0.7200012-0.1599998-1.0999985-0.1599998
		c-6.5999985-0.0099983-13.2000008,0-19.7999992-0.0200005c-0.6100006,0-1.4500008,0.4199982-1.6899986-0.7200012
		c-0.0600014-0.2999992-0.6500015-0.1399994-1-0.1399994c-5.8800011-0.0099983-11.7600021-0.0099983-17.6399994-0.0099983
		c-0.2799988,0-0.5600014-0.0200005-0.8400002,0c-0.6100006,0.0499992-0.8499985-0.2000008-0.8699989-0.8199997
		c-0.0200005-0.7999992,0.5299988-0.5499992,0.9000015-0.5499992c5.8800011-0.0099983,11.7600021,0.0099983,17.6399994-0.0400009
		c0.7200012-0.0099983,1.7799988,0.6199989,2.1100006-0.7799988c0.0600014-0.2599983,0.6599998-0.1100006,1.0099983-0.1100006
		c6.6399994-0.0099983,13.2800026,0,19.920002-0.0200005c0.5800018,0,1.3199997,0.3400002,1.6399994-0.6300011
		c0.0999985-0.3100014,0.7399979-0.1300011,1.1299973-0.1300011c7.8000031-0.0099983,15.5999985-0.0099983,23.4000015-0.0099983
		c16.6399994,0,33.2699966,0,49.909996,0.0200005c0.6399994,0,1.5299988-0.4599991,1.8800049,0.6500015
		c0.0399933,0.1300011,0.6600037,0.1100006,1.0099945,0.1100006c6.7200012,0.0099983,13.4400024,0,20.1600037,0.0099983
		c0.4900055,0,1.1100006-0.25,1.2299957,0.6699982c0.0700073,0.4799995,0.6900024,0.2400017,1.0500031,0.2400017
		c6.3999939,0.0099983,12.8000031,0.0099983,19.1999969,0.0099983c0.2799988,0,0.5599976,0.0099983,0.8399963,0
		c0.4199982-0.0099983,0.7400055,0.1399994,0.7299957,0.5900002c-0.0099945,0.4300003-0.1999969,0.7799988-0.7200012,0.7799988
		c-0.3200073,0-0.6399994,0-0.9600067,0c-6.2799988,0-12.5599976-0.0099983-18.8399963,0.0099983
		c-0.5399933,0-1.2700043-0.3499985-1.4799957,0.6800003c-0.0800018,0.3800011-0.7200012,0.1800003-1.1000061,0.1800003
		c-6.6399994,0.0099983-13.2799988,0-19.9199982,0.0200005c-0.5500031,0-1.2799988-0.3600006-1.5,0.6699982
		c-0.0700073,0.3400002-0.7200012,0.1500015-1.1100006,0.1500015
		C138.4400024,54.9000015,126.1600037,54.9000015,113.8799973,54.9000015z"></path>
	<path d="M189.8099976,90.9100037c-0.1799927,0.4400024-0.3500061,0.8799973-0.5299988,1.3199997
		c-4.5599976,0.0100021-9.1199951,0.0100021-13.6799927,0.0299988c-0.5,0-1.1100006-0.25-1.25,0.6699982
		c-0.0599976,0.4199982-0.6999969,0.2200012-1.0800018,0.2200012c-6.7200012,0.0100021-13.4400024,0-20.1600037,0.0199966
		c-0.4900055,0-1.1699982-0.2699966-1.2599945,0.6299973c-0.0200043,0.2300034-0.3200073,0.1800003-0.5099945,0.1900024
		c-0.3200073,0.0100021-0.6399994,0-0.9600067,0c-24.3099976,0-48.6300049,0-72.9400024-0.0199966
		c-0.6600037,0-1.6500015,0.5400009-1.9599991-0.7200012c-0.0299988-0.1100006-0.6699982-0.0800018-1.0299988-0.0800018
		c-6.6800003,0-13.3600006,0-20.0400009-0.0199966c-0.5499992,0-1.2999992,0.3499985-1.4599991-0.6999969
		c-0.0600014-0.3499985-0.6399994-0.1800003-0.9799995-0.1800003c-3.7599983-0.0100021-7.5200005-0.0100021-11.2799988-0.0100021
		c-0.3199997,0-0.6699982,0.0500031-0.9500008-0.0699997c-0.4300003-0.1699982-0.4900017-0.6699982-0.4599991-1.0299988
		c0.0299988-0.4599991,0.5099983-0.25,0.7799988-0.25c3.9599991-0.0199966,7.9199982,0,11.8800011-0.0199966
		c0.4599991,0,1.0200005,0.25,1.1899986-0.5800018c0.0900002-0.4599991,0.7000008-0.2399979,1.0699997-0.2399979
		c6.7200012-0.0100021,13.4400024,0,20.159996-0.0199966c0.5,0,1.2699966,0.3700027,1.3300018-0.6600037
		c0.0100021-0.2099991,0.3099976-0.2099991,0.5-0.2099991c0.2799988-0.0100021,0.5599976-0.0100021,0.8399963-0.0100021
		c24.5100021,0,49.0299988,0,73.5400085,0.0199966c0.5200043,0,1.3200073-0.4300003,1.4299927,0.7099991
		c0.0299988,0.3199997,0.7200012,0.1600037,1.1000061,0.1699982c6.6799927,0.0100021,13.3600006,0,20.0400085,0.0100021
		c0.5299988,0,1.1999969-0.2799988,1.3899994,0.6500015c0.0700073,0.3399963,0.6399994,0.1600037,0.9799957,0.1699982
		C180.2899933,90.9100037,185.0500031,90.9100037,189.8099976,90.9100037z"></path>
	<path d="M185.0299988,59.5400009c-3.1999969,0-6.3999939-0.0099983-9.6000061,0.0099983
		c-0.4199982,0-0.9400024-0.2299995-1.0399933,0.5800018c-0.0700073,0.5999985-0.7200012,0.3199997-1.1100006,0.3199997
		c-6.6799927,0.0200005-13.3600006,0-20.0400085,0.0299988c-0.5,0-1.2200012-0.3899994-1.3999939,0.6199989
		c-0.0500031,0.2900009-0.6499939,0.1399994-1,0.1399994c-6.5599976,0.0099983-13.1199951,0.0099983-19.6799927,0.0099983
		c-18.0400009,0-36.0800018,0-54.1100006-0.0099983c-0.5400009,0-1.3199997,0.3699989-1.5199966-0.6500015
		c-0.0199966-0.0999985-0.6600037-0.1100006-1.0100021-0.1100006c-6.7600021-0.0099983-13.5200005,0-20.2799988-0.0099983
		c-0.4900017,0-1.1100006,0.2599983-1.2299995-0.6699982c-0.0600014-0.4900017-0.6800003-0.2400017-1.0400009-0.2400017
		c-5.920002-0.0200005-11.8400002-0.0099983-17.7599983-0.0200005c-0.3699989,0-0.8499985,0.2299995-1.0800018-0.2200012
		c-0.1399994-0.2599983-0.2099991-0.6599998-0.1199989-0.9199982c0.1599998-0.4300003,0.6300011-0.2400017,0.9599991-0.2400017
		c5.9599991-0.0099983,11.920002,0,17.8800011-0.0200005c0.4700012,0,1.1100006,0.3300018,1.3199997-0.5699997
		c0.0900002-0.3800011,0.7200012-0.1800003,1.0999985-0.1800003c6.7200012-0.0099983,13.4400024,0,20.1600037-0.0200005
		c0.5199966,0,1.2600021,0.2999992,1.2799988-0.7099991c0-0.2000008,0.3099976-0.2099991,0.5100021-0.2099991
		c0.2799988,0,0.5599976,0,0.8399963,0c24.5199966,0,49.0400009,0,73.5500107,0.0099983
		c0.5399933,0,1.3000031-0.3699989,1.4100037,0.7299995c0.0299988,0.3499985,0.7100067,0.1800003,1.0899963,0.1800003
		c6.6399994,0.0099983,13.2799988,0,19.9199982,0.0200005c0.5500031,0,1.2799988-0.3400002,1.5399933,0.6300011
		c0.0700073,0.2799988,0.6600037,0.1199989,1.0099945,0.1199989c6.2799988,0.0099983,12.5599976,0,18.8399963,0.0099983
		c0.3699951,0,0.8200073-0.1899986,1.0899963,0.25c0.3399963,0.5600014-0.0299988,1.1300011-0.7599945,1.1300011
		C191.5099945,59.5400009,188.2700043,59.5400009,185.0299988,59.5400009z"></path>
	<path d="M41.7299995,98.6600037c-0.2700005-0.4199982-0.3899994-0.8899994-0.4399986-1.3899994
		c3.5600014-0.0100021,7.1199989-0.0199966,10.6800003-0.0400009c0.4500008,0,1.0099983,0.25,1.2000008-0.5699997
		c0.0900002-0.3799973,0.7200012-0.1900024,1.0999985-0.1900024c6.7200012-0.0100021,13.4399986,0,20.1599998-0.0199966
		c0.5199966,0,1.2699966,0.3199997,1.2900009-0.7099991c0-0.1999969,0.3000031-0.2099991,0.5100021-0.2099991
		c0.2799988,0,0.5599976,0,0.8399963,0c24.5199966,0,49.0299988,0,73.5499954,0.0100021
		c0.5299988,0,1.3000031-0.3899994,1.4199982,0.7099991c0.0399933,0.3799973,0.7100067,0.1900024,1.0800018,0.1900024
		c6.6399994,0.0100021,13.2799988,0,19.9199982,0.0199966c0.5399933,0,1.2899933-0.3899994,1.5299988,0.6299973
		c0.0599976,0.2799988,0.6600037,0.1299973,1.0099945,0.1299973c3.8800049,0.0199966,7.7599945,0.0199966,11.6399994,0.0299988
		c-0.0399933,0.5100021-0.1699982,0.9800034-0.4700012,1.4000015c-3.8399963-0.0100021-7.6799927-0.0199966-11.5099945-0.0299988
		c-0.25,0-0.6999969-0.1399994-0.7200012,0.1900024c-0.0599976,1.0100021-0.7700043,0.7200012-1.3000031,0.7200012
		c-6.7200012,0.0100021-13.4400024,0.0100021-20.1499939,0.0100021c-0.3500061,0-0.9700012-0.1299973-1,0.1399994
		c-0.1399994,1.2300034-1.0500031,0.7600021-1.6300049,0.7600021c-24.3899994,0.0199966-48.7799988,0.0199966-73.1800003,0.0199966
		c-0.3199997,0-0.6399994,0.0199966-0.9599991-0.0100021c-0.1900024-0.0199966-0.5299988-0.0899963-0.5299988-0.1600037
		c-0.0800018-1.1399994-0.9499969-0.7300034-1.5199966-0.7300034c-6.6800003-0.0199966-13.3600006-0.0100021-20.0299988-0.0299988
		c-0.3800011,0-1.0099983,0.2799988-1.0800018-0.3700027c-0.0699997-0.6399994-0.4300003-0.5500031-0.8199997-0.5500031
		C48.7700005,98.6500015,45.25,98.6600037,41.7299995,98.6600037z"></path>
	<path d="M192.6699982,40.2900009c-5.5399933,0-11.0699921-0.0099983-16.6100006,0.0200005
		c-0.6199951,0-1.5299988-0.4799995-1.7599945,0.75c-0.0599976,0.3100014-0.7299957,0.1500015-1.1199951,0.1500015
		c-6.6000061,0.0099983-13.1999969,0-19.8000031,0.0200005c-0.5800018,0-1.3699951-0.3800011-1.5599976,0.7099991
		c-0.0500031,0.3100014-0.6499939,0.1500015-0.9900055,0.1500015c-4.7200012,0.0099983-9.4400024,0.0099983-14.1600037,0.0099983
		c-19.8799973,0-39.75,0-59.6300049-0.0200005c-0.5299988,0-1.3000031,0.4000015-1.4700012-0.6800003
		c-0.0599976-0.3499985-0.7200012-0.1699982-1.0999985-0.1699982c-6.6800003-0.0099983-13.3600006,0-20.0400009-0.0200005
		c-0.5499992,0-1.3100014,0.3400002-1.4300003-0.7299995c-0.0400009-0.3400002-0.6300011-0.1699982-0.9700012-0.1699982
		c-5.7600021-0.0099983-11.5200005-0.0099983-17.2799988-0.0099983c-0.1500015,0-0.2900009,0-0.4399986,0
		c1.4199982-0.7200012,2.8199997-1.4000015,4.4500008-1.4000015c4.4000015,0.0099983,8.7999992,0.0099983,13.2000008-0.0099983
		c0.4300003,0,1.0299988,0.3199997,1.2000008-0.5499992c0.0800018-0.4000015,0.7099991-0.2000008,1.0900002-0.2000008
		c6.7200012-0.0099983,13.4399986,0,20.1599998-0.0200005c0.5100021,0,1.2799988,0.3400002,1.3000031-0.7000008
		c0.0100021-0.2099991,0.3000031-0.2099991,0.5-0.2099991c0.2399979,0,0.4800034,0,0.7200012,0
		c24.5999985,0,49.1899948,0,73.7900009,0.0099983c0.5,0,1.1999969-0.3400002,1.3099976,0.6899986
		c0.0399933,0.4099998,0.6999969,0.2099991,1.0700073,0.2099991c6.6799927,0.0099983,13.3600006,0,20.0400085,0.0200005
		c0.5,0,1.2200012-0.3600006,1.3999939,0.6300011c0.0500031,0.2700005,0.6600037,0.1300011,1.0099945,0.1300011
		c3.7599945,0.0099983,7.5200043,0.0600014,11.2799988-0.0200005
		C188.9100037,38.8400002,190.7599945,39.5999985,192.6699982,40.2900009z"></path>
	<path d="M48.7400017,267.1900024c0-0.4400024,0.0099983-0.8800049,0.0099983-1.3299866
		c1.1599998,0,2.3199997,0,3.4799995-0.0100098c0.2599983,0,0.7000008,0.1300049,0.75-0.1600037
		c0.1899986-1.019989,0.9500008-0.6499939,1.5-0.6600037c6.670002-0.019989,13.3500023-0.0100098,20.0200005-0.019989
		c0.3499985,0,0.9499969,0.1499939,1.0100021-0.1300049c0.2699966-1.2000122,1.1699982-0.730011,1.8099976-0.730011
		c19.2200012-0.019989,38.4500046-0.019989,57.6699905-0.019989c5.2799988,0,10.5500031,0,15.8300018,0.0100098
		c0.3399963,0,0.9400024-0.1600037,1,0.1499939c0.2200012,1.1600037,1.0899963,0.7000122,1.6799927,0.7099915
		c6.5500031,0.0299988,13.1100006,0.019989,19.6600037,0.019989c0.3899994,0,1.0500031-0.1700134,1.1300049,0.1300049
		c0.2899933,1.1099854,1.1199951,0.6499939,1.7299957,0.6799927c1.2400055,0.0599976,2.4799957,0.019989,3.7200012,0.019989
		c0.0099945,0.4500122,0.0099945,0.8999939,0.0200043,1.3399963c-1.4799957,0-2.9499969,0-4.4299927,0.0100098
		c-0.2700043,0-0.7299957-0.1000061-0.7700043,0.1499939c-0.1600037,1.1799927-1.0399933,0.7399902-1.6499939,0.7399902
		c-6.6199951,0.0299988-13.25,0.0100098-19.8699951,0.019989c-0.4900055,0-1.2299957-0.269989-1.0899963,0.730011
		c-0.3800049,0.3200073-0.8399963,0.1799927-1.2700043,0.1799927c-24.5899963,0.0100098-49.1900024,0.0100098-73.7799988,0
		c-0.4300003,0-0.8799973,0.1199951-1.2900009-0.1499939c0.1999969-0.9899902-0.5299988-0.7600098-1.0299988-0.7600098
		c-6.7799988-0.0100098-13.5499992,0-20.3300018-0.0100098c-0.3800011,0-1.0600014,0.1600037-1.0900002-0.1799927
		c-0.1199989-1.1099854-0.9000015-0.6799927-1.4300003-0.7099915
		C50.7299995,267.1600037,49.7299995,267.2000122,48.7400017,267.1900024z"></path>
	<path d="M49.4700012,248.0899963c0-0.5099945,0-1.0200043,0-1.5299988c0.9199982,0,1.8400002,0.0099945,2.7599983,0
		c0.2700005,0,0.7299995,0.1000061,0.7700005-0.1600037c0.1399994-0.9100037,0.8100014-0.6100006,1.2999992-0.6100006
		c6.75-0.0200043,13.5099983-0.0099945,20.2599983-0.0200043c0.3399963,0,0.9499969,0.1499939,0.9899979-0.1399994
		c0.1600037-1.2100067,1.0500031-0.7700043,1.6500015-0.7700043c24.4199982-0.0200043,48.8399963-0.0200043,73.2599945-0.0200043
		c0.3200073,0,0.6399994,0,0.9600067,0c0.1900024,0.0099945,0.4700012-0.0099945,0.4799957,0.2400055
		c0.0099945,0.9400024,0.6900024,0.6799927,1.1900024,0.6799927c6.7100067,0.0099945,13.4299927,0.0099945,20.1399994,0.0099945
		c0.3500061,0,0.9700012-0.0399933,1.0200043,0.1000061c0.4100037,1.1100006,1.3099976,0.6100006,2.0099945,0.6600037
		c0.9100037,0.0700073,1.8399963,0.0200043,2.7599945,0.0200043c0,0.5099945,0,1.0200043,0,1.5399933
		c-1.2400055,0-2.4799957,0-3.7200012,0c-0.2700043,0-0.7299957-0.1000061-0.7700043,0.1499939
		c-0.1399994,0.9100037-0.8099976,0.6100006-1.3000031,0.6100006c-6.7200012,0.0200043-13.4299927,0.0099945-20.1499939,0.0200043
		c-0.3699951,0-1.0200043-0.2100067-1.0599976,0.2100067c-0.1300049,1.1300049-0.9199982,0.6900024-1.4400024,0.6900024
		c-24.5,0.0200043-49.0099945,0.0200043-73.5100021,0.0200043c-0.2799988,0-0.5599976,0-0.8399963,0
		c-0.1999969,0-0.5-0.0099945-0.5100021-0.1999969c-0.0400009-1.1000061-0.8700027-0.7100067-1.4000015-0.7100067
		c-6.6800003-0.0200043-13.3499985-0.0099945-20.0299988-0.0200043c-0.3800011,0-1,0.1999969-1.1100006-0.1699982
		c-0.2299995-0.8399963-0.8300018-0.5700073-1.3199997-0.5899963
		C51.0699997,248.0700073,50.2700005,248.0899963,49.4700012,248.0899963z"></path>
	<path d="M49.9700012,150.5800018c0-0.4400024,0-0.8699951-0.0099983-1.3099976
		c0.7999992-0.0099945,1.5999985-0.0099945,2.4000015-0.0299988c0.2299995,0,0.6100006,0.0700073,0.6300011-0.1699982
		c0.0999985-1.1499939,0.9500008-0.7400055,1.5200005-0.7400055c6.6800003-0.0200043,13.3500023-0.0099945,20.0300026-0.0200043
		c0.3499985,0,0.9700012,0.1399994,1-0.1300049c0.1299973-1.2299957,1.0299988-0.7799988,1.6299973-0.7799988
		c24.4300003-0.0200043,48.8600006-0.0200043,73.2900009-0.0200043c0.3200073,0,0.6399994,0,0.9600067,0
		c0.1900024,0.0099945,0.4700012-0.0099945,0.4700012,0.2400055c0,0.9499969,0.6999969,0.6799927,1.1900024,0.6799927
		c6.7200012,0.0099945,13.4299927,0.0099945,20.1499939,0.0099945c0.3800049,0,1.0599976-0.1699982,1.1000061,0.1699982
		c0.1499939,1.1600037,0.9700012,0.6900024,1.5299988,0.7299957c0.8800049,0.0599976,1.7599945,0.0200043,2.6399994,0.0200043
		c0,0.4600067,0,0.9199982,0,1.3800049c-1.0399933,0-2.0800018,0-3.1199951,0.0099945
		c-0.3099976,0-0.8099976-0.1399994-0.8699951,0.1699982c-0.1699982,0.9100037-0.8300018,0.5899963-1.3099976,0.5899963
		c-6.7200012,0.0200043-13.4400024,0.0099945-20.1600037,0.0200043c-0.3500061,0-0.9700012-0.1300049-1,0.1399994
		c-0.1399994,1.2299957-1.0299988,0.7700043-1.6300049,0.7700043c-24.4000015,0.0200043-48.8000031,0.0200043-73.1900024,0.0200043
		c-0.3199997,0-0.6399994,0.0200043-0.9599991-0.0099945c-0.1900024-0.0200043-0.5199966-0.1000061-0.5299988-0.1699982
		c-0.0699997-1.1499939-0.9400024-0.7299957-1.5100021-0.7400055c-6.6399994-0.0200043-13.2799988-0.0099945-19.9199982-0.0200043
		c-0.3800011,0-1.0099983,0.1999969-1.1100006-0.1600037c-0.2599983-0.8999939-0.9099998-0.5599976-1.4300003-0.6100006
		C51.1699982,150.5899963,50.5699997,150.6000061,49.9700012,150.5800018z"></path>
	<path d="M50.4700012,207.6699982c0.5200005-0.0200043,1.0400009-0.0299988,1.5499992-0.0700073
		c0.4599991-0.0299988,1,0.2200012,1.1199989-0.6300049c0.0800018-0.5399933,0.75-0.2799988,1.1399994-0.2799988
		c6.6699982-0.0200043,13.3499985,0,20.0200043-0.0299988c0.5299988,0,1.3600006,0.3899994,1.4199982-0.6999969
		c0-0.0800018,0.3300018-0.1699982,0.5100021-0.1900024c0.2799988-0.0299988,0.5599976-0.0099945,0.8399963-0.0099945
		c24.5,0,49,0,73.5000076,0.0200043c0.5099945,0,1.3099976-0.4400024,1.4400024,0.6900024
		c0.0399933,0.3999939,0.6999969,0.1999969,1.0700073,0.1999969c6.6699982,0.0099945,13.3500061,0,20.0200043,0.0200043
		c0.5500031,0,1.3399963-0.3500061,1.3999939,0.7400055c0.0200043,0.2899933,0.4799957,0.1699982,0.7400055,0.1699982
		c0.9199982,0.0200043,1.8399963,0.0099945,2.7599945,0.0200043c0,0.4600067,0.0099945,0.9100037,0.0099945,1.3699951
		c-0.9199982,0-1.8399963,0-2.7599945,0.0200043c-0.2299957,0-0.6499939,0.0099945-0.6699982,0.1000061
		c-0.2700043,1.0800018-1.1399994,0.6499939-1.75,0.6499939c-6.5599976,0.0299988-13.1199951,0.0200043-19.6799927,0.0200043
		c-0.3899994,0-1.0800018-0.1600037-1.1100006,0.1499939c-0.1499939,1.2400055-1.0500031,0.75-1.6300049,0.75
		c-24.4000015,0.0200043-48.7900009,0.0200043-73.1900024,0.0200043c-0.3199997,0-0.6399994,0.0099945-0.9599991,0
		c-0.2300034-0.0099945-0.5699997,0.0299988-0.5800018-0.2700043c-0.0299988-0.9700012-0.7399979-0.6399994-1.2099991-0.6399994
		c-6.7600021-0.0200043-13.5200005-0.0099945-20.2799988-0.0200043c-0.3699989,0-0.9599991,0.2200012-1.0699997-0.2400055
		c-0.1500015-0.6900024-0.5999985-0.5-0.9900017-0.5200043c-0.5200005-0.0299988-1.0400009-0.0399933-1.5600014-0.0599976
		C50.5499992,208.5200043,50.5099983,208.0899963,50.4700012,207.6699982z"></path>
	<path d="M45.1599998,111.5599976c-0.0800018-0.4700012-0.1699982-0.9300003-0.25-1.4000015
		c2.4000015,0,4.7999992,0,7.2000008-0.0100021c0.3100014,0,0.8600006,0.1200027,0.8800011-0.1299973
		C53.1100006,108.7799988,54.0200005,109.25,54.6200027,109.25c6.6399994-0.0299988,13.2799988-0.0199966,19.909996-0.0199966
		c0.3499985,0,0.9599991,0.1399994,1.0100021-0.1200027c0.2300034-1.0199966,0.9800034-0.6399994,1.5199966-0.6399994
		c16.8000031-0.0199966,33.5899963-0.0199966,50.3899994-0.0199966c7.7599945,0,15.5200043,0,23.2700043,0.0100021
		c0.3899994,0,1.0599976-0.1699982,1.1199951,0.1399994c0.1999969,0.9899979,0.8999939,0.6200027,1.3999939,0.6200027
		c6.6799927,0.0199966,13.3600006,0.0100021,20.0299988,0.0299988c0.3899994,0,1.0399933-0.2699966,1.1100006,0.3199997
		c0.1000061,0.8000031,0.6100006,0.5800018,1.0299988,0.5899963c2.7200012,0.0100021,5.4400024,0.0100021,8.1600037,0.0100021
		c-0.0899963,0.4700012-0.1699982,0.9400024-0.2599945,1.4100037c-2.6799927-0.0100021-5.3600006-0.0100021-8.0299988-0.0100021
		c-0.2700043,0-0.7299957-0.0999985-0.7700043,0.1500015c-0.1699982,0.9899979-0.9100037,0.5999985-1.4100037,0.5999985
		c-6.6799927,0.0199966-13.3500061,0.0100021-20.0299988,0.0299988c-0.3699951,0-1.0200043-0.2099991-1.0599976,0.2099991
		c-0.1000061,1.0400009-0.8099976,0.6999969-1.3200073,0.6999969c-24.5800018,0.0100021-49.1699982,0.0100021-73.75,0.0100021
		c-0.2399979,0-0.4800034,0-0.7200012,0c-0.1999969,0-0.5100021-0.0100021-0.5199966-0.1999969
		c-0.0400009-1.0999985-0.8600006-0.7099991-1.4000015-0.7099991c-6.6800003-0.0199966-13.3499985-0.0100021-20.0299988-0.0199966
		c-0.3499985,0-0.9700012,0.0400009-1.0200005-0.0999985c-0.4099998-1.1100006-1.3199997-0.6399994-2-0.6500015
		C49.2299995,111.5100021,47.2000008,111.5500031,45.1599998,111.5599976z"></path>
	<path d="M48.9900017,260.8500061c0-0.4599915,0-0.9299927,0-1.3900146c1.0800018,0,2.1599998,0,3.2400017-0.0100098
		c0.2700005,0,0.7400017,0.1000061,0.7700005-0.1400146c0.1100006-1.230011,1.0299988-0.769989,1.6199989-0.769989
		c6.6399994-0.0299988,13.2699966-0.019989,19.909996-0.019989c0.3499985,0,0.9499969,0.1499939,1.0100021-0.1300049
		c0.2399979-1.019989,1-0.6199951,1.5299988-0.6199951C92.0999985,257.75,107.1399994,257.75,122.1699982,257.75
		c9.5200043,0,19.0299988,0,28.5500031,0.0100098c0.3899994,0,1.0599976-0.1600037,1.1199951,0.1300049
		c0.1900024,1,0.8999939,0.6199951,1.3899994,0.6199951c6.6799927,0.019989,13.3500061,0.0100098,20.0299988,0.019989
		c0.3800049,0,1.0399933-0.1799927,1.0800018,0.2099915c0.1199951,0.9899902,0.7799988,0.7000122,1.3099976,0.7099915
		c1.2799988,0.0299988,2.5599976,0.0100098,3.8399963,0.0100098c0,0.4700012,0,0.9299927,0,1.3999939
		c-1.3999939,0-2.8000031,0-4.1999969,0c-0.2700043,0-0.75-0.1000061-0.7700043,0.1300049
		c-0.1300049,1.2200012-1.0399933,0.7600098-1.6300049,0.769989c-6.6000061,0.0299988-13.1900024,0.019989-19.7900085,0.019989
		c-0.3500061,0-0.9799957-0.0100098-1.0099945,0.1099854c-0.2899933,1.0799866-1.1399994,0.6400146-1.7400055,0.6400146
		c-24.3799973,0.019989-48.7700043,0.019989-73.1500015,0.019989c-0.3199997,0-0.6399994,0-0.9599991,0
		c-0.1999969,0-0.4899979,0.0100098-0.5199966-0.1900024c-0.1399994-0.9200134-0.8399963-0.5700073-1.3099976-0.5799866
		c-6.7200012-0.019989-13.4300003-0.0100098-20.1500015-0.019989c-0.3800011,0-1.0400009,0.1700134-1.0900002-0.2000122
		c-0.1399994-1.0799866-0.8899994-0.6700134-1.4300003-0.7000122
		C50.8300018,260.8099976,49.9099998,260.8500061,48.9900017,260.8500061z"></path>
	<path d="M43.6500015,105.0899963c-0.1100006-0.4000015-0.2099991-0.8000031-0.3199997-1.1900024
		c0.3600006-0.2799988,0.7700005-0.1500015,1.1599998-0.1600037c2.5200005-0.0100021,5.0400009,0,7.5499992-0.0100021
		c0.3100014,0,0.8300018,0.1399994,0.9000015-0.1100006c0.2999992-1.2099991,1.2400017-0.7399979,1.9099998-0.7399979
		c6.5499992-0.0299988,13.1099968-0.0100021,19.6599998-0.0299988c0.3700027,0,1.0199966,0.2200012,1.0699997-0.2099991
		c0.1200027-1.0199966,0.8300018-0.6699982,1.3300018-0.6699982c23.7399979-0.0100021,47.4799957-0.0100021,71.2200012-0.0100021
		c1,0,2-0.0100021,3,0.0100021c0.2599945,0,0.7299957-0.1100006,0.75,0.1699982
		c0.0700073,1.1100006,0.8800049,0.7200012,1.4100037,0.7200012c6.6300049,0.0199966,13.2700043,0.0100021,19.8999939,0.0199966
		c0.4100037,0,1.1100006-0.2200012,1.1799927,0.2399979c0.1399994,0.8700027,0.6900024,0.6200027,1.1399994,0.6200027
		c3.2400055,0.0299988,6.4700012,0.0299988,9.7100067,0.0400009c0.0500031,0.4899979-0.2200012,0.9100037-0.3500061,1.3600006
		c-3.1199951,0-6.2400055,0-9.3600006,0.0100021c-0.3399963,0-0.9199982-0.1699982-0.9900055,0.1600037
		c-0.1699982,0.9100037-0.8200073,0.6100006-1.3000031,0.6100006c-6.6799927,0.0199966-13.3600006,0.0100021-20.0399933,0.0199966
		c-0.3899994,0-1.0800018-0.1500015-1.1199951,0.1399994c-0.1999969,1.2799988-1.1399994,0.75-1.75,0.75
		c-24.4000015,0.0299988-48.8000031,0.0199966-73.1999969,0.0199966c-0.3199997,0-0.6399994,0-0.9599991,0
		c-0.1999969,0-0.4800034-0.0199966-0.4800034-0.25c0.0199966-1.0100021-0.7300034-0.6500015-1.1900024-0.6500015
		c-6.7200012-0.0199966-13.4399986-0.0100021-20.1599998-0.0199966c-0.4099998,0-1.0900002,0.2300034-1.1899986-0.2399979
		c-0.1699982-0.8000031-0.7000008-0.5199966-1.0999985-0.5299988
		C49.2400017,105.1100006,46.4399986,105.1100006,43.6500015,105.0899963z"></path>
	<path d="M49.2299995,254.4400024c0-0.4600067,0-0.9199982,0-1.3800049
		c0.9599991,0,1.9199982,0.0099945,2.8800011-0.0099945c0.3100014,0,0.8300018,0.1300049,0.8699989-0.1699982
		c0.1399994-1.0599976,0.9199982-0.6900024,1.4599991-0.6900024c6.6800003-0.0200043,13.3599968-0.0099945,20.0399971-0.0200043
		c0.3499985,0,0.9899979,0.0099945,1.0100021-0.1100006c0.2900009-1.1799927,1.2099991-0.7100067,1.8499985-0.7100067
		c10.5599976-0.0299988,21.1200027-0.0200043,31.6800003-0.0200043c13.8799973,0,27.7600021,0,41.640007,0
		c0.3899994,0,1.1100006,0,1.1300049,0.1100006c0.2400055,1.1399994,1.1100006,0.6999969,1.7200012,0.7100067
		c6.5599976,0.0299988,13.1199951,0.0099945,19.6799927,0.0200043c0.3800049,0,1.0299988-0.1900024,1.1100006,0.1499939
		c0.2599945,1.1300049,1.1000061,0.6699982,1.6999969,0.6999969c1.0800018,0.0599976,2.1600037,0.0200043,3.2400055,0.0200043
		c0,0.4600067,0,0.9199982,0,1.3800049c-1.3200073,0-2.6399994-0.0099945-3.9600067,0.0099945
		c-0.2599945,0-0.6999969-0.1300049-0.7599945,0.1499939c-0.1799927,1.0299988-0.9499969,0.6600037-1.5,0.6600037
		c-6.6300049,0.0200043-13.2700043,0.0099945-19.8999939,0.0200043c-0.3800049,0-1.0299988-0.1900024-1.0899963,0.1799927
		c-0.1699982,1.0600128-0.9199982,0.6800079-1.4499969,0.6800079c-24.5,0.019989-49,0.0100098-73.5,0.0100098
		c-0.2799988,0-0.5599976,0-0.8399963,0c-0.1999969-0.0100098-0.5,0.019989-0.5199966-0.1900024
		c-0.0999985-0.9600067-0.8099976-0.6699982-1.3399963-0.6699982c-6.7099991-0.0099945-13.4300003-0.0099945-20.1399994-0.0200043
		c-0.3800011,0-0.9900017,0.1999969-1.0800018-0.2200012c-0.1699982-0.8099976-0.7099991-0.5899963-1.1800003-0.6000061
		C51.0699997,254.4299927,50.1500015,254.4400024,49.2299995,254.4400024z"></path>
	<path d="M50.2200012,156.9400024c0-0.4100037,0-0.8300018,0-1.2400055
		c0.6800003-0.0299988,1.3499985-0.0599976,2.0299988-0.1000061c0.2700005-0.0200043,0.7299995,0.1000061,0.7599983-0.1699982
		C53.1299973,154.3399963,53.9299965,154.75,54.4599991,154.75c6.6800003-0.0200043,13.3600006-0.0099945,20.0299988-0.0299988
		c0.3700027,0,0.9800034,0.2299957,1.0800018-0.2100067c0.1999969-0.8999939,0.8300018-0.6000061,1.3099976-0.6000061
		c8-0.0200043,16-0.0099945,23.9899979-0.0099945c16.5999985,0,33.1900024,0,49.7900085,0
		c0.3899994,0,1.1100006-0.0099945,1.1300049,0.1000061c0.2700043,1.1999969,1.1999969,0.7100067,1.8300018,0.7100067
		c6.5200043,0.0299988,13.0399933,0.0200043,19.5500031,0.0299988c0.3899994,0,1.0399933-0.1799927,1.1199951,0.1399994
		c0.2700043,1.1100006,1.0800018,0.6699982,1.6999969,0.7100067c0.7599945,0.0599976,1.5200043,0.0200043,2.2799988,0.0200043
		c0,0.4600067-0.0099945,0.9100037-0.0099945,1.3699951c-1,0-2,0-3,0.0099945c-0.2599945,0-0.7200012-0.1199951-0.7400055,0.1799927
		c-0.0899963,1.0700073-0.8600006,0.7299957-1.4100037,0.7299957c-6.6699982,0.0200043-13.3500061,0.0099945-20.0200043,0.0200043
		c-0.3500061,0-0.9100037-0.1699982-1.0099945,0.1300049c-0.3000031,0.9799957-1.0500031,0.6300049-1.6300049,0.6300049
		c-12.1100006,0.0200043-24.2200012,0.0099945-36.3300018,0.0099945c-12.3899994,0-24.7799988,0-37.1699982,0
		c-0.3899994,0-1.0299988,0.1699982-1.1299973-0.1199951c-0.3399963-1.0500031-1.1500015-0.6399994-1.7600021-0.6399994
		c-6.5899963-0.0299988-13.1899986-0.0099945-19.7799988-0.0299988c-0.3899994,0-1.0600014,0.2599945-1.1399994-0.2700043
		c-0.1300011-0.8500061-0.6699982-0.6100006-1.1300011-0.6300049
		C51.4099998,156.9600067,50.8100014,156.9499969,50.2200012,156.9400024z"></path>
	<path d="M178,196.0800018c-0.6799927,0-1.3699951-0.0500031-2.0399933,0.0299988
		c-0.5899963,0.0700073-1.4700012-0.4900055-1.6399994,0.7400055c-0.0500031,0.3300018-0.7200012,0.1600037-1.1100006,0.1600037
		c-6.5599976,0.0099945-13.1199951,0-19.6800079,0.0200043c-0.6000061,0-1.4499969-0.4299927-1.75,0.6499939
		c-0.0399933,0.1300049-0.7400055,0.1100006-1.1300049,0.1100006c-21.9199982,0-43.8300018,0-65.75,0
		c-2.4800034,0-4.9599991,0.0299988-7.4400024-0.0200043c-0.6800003-0.0200043-1.5999985,0.4799957-2-0.6600037
		c-0.0500031-0.1300049-0.6699982-0.0899963-1.0199966-0.0899963c-6.6800003,0-13.3600006,0-20.0400009-0.0200043
		c-0.5499992,0-1.2299995,0.3200073-1.4500008-0.7200012c-0.0900002-0.4499969-1-0.1300049-1.5400009-0.1799927
		c-0.4700012-0.0399933-0.9599991,0.0899963-0.9500008-0.6900024c0.0099983-0.7299957,0.4199982-0.6999969,0.9399986-0.7299957
		c0.6699982-0.0399933,1.5099983,0.3600006,1.8800011-0.6799927c0.0499992-0.1300049,0.6699982-0.0800018,1.0299988-0.0800018
		c6.7200012,0,13.4400024,0,20.159996-0.0200043c0.4700012,0,1.1900024,0.3399963,1.2200012-0.6300049
		C75.6999893,192.980011,76.0299835,193,76.269989,192.9900055c0.3199997-0.0099945,0.6399994,0,0.9599991,0
		c24.4000015,0,48.7900009,0,73.1899948,0.0200043c0.5800018,0,1.4799957-0.4900055,1.6300049,0.75
		c0.0399933,0.3099976,0.7200012,0.1499939,1.1100006,0.1499939c6.5599976,0.0099945,13.1199951,0,19.6800079,0.0200043
		c0.6100006,0,1.4700012-0.4299927,1.75,0.6499939c0.0200043,0.0899963,0.4400024,0.1000061,0.6699982,0.1000061
		c0.9199982,0.0200043,1.8399963,0.0200043,2.7599945,0.0299988C178.0099945,195.1699982,178.0099945,195.6300049,178,196.0800018z"></path>
	<path d="M178.0899963,213.9700012c0.3500061,0.4199982,0.1799927,0.8999939,0.1699982,1.3600006
		c-0.8800049,0-1.7599945-0.0099945-2.6399994,0.0200043c-0.3800049,0.0099945-0.9799957-0.2200012-1.0899963,0.1900024
		c-0.2299957,0.8300018-0.8200073,0.6199951-1.3300018,0.6199951c-6.6799927,0.0099945-13.3500061,0-20.0299988,0.0099945
		c-0.3899994,0-1.0800018-0.1399994-1.1199951,0.1300049c-0.1799927,1.2100067-1.0700073,0.7400055-1.6600037,0.7400055
		C126,217.0600128,101.6100006,217.0600128,77.2200012,217.0600128c-0.3199997,0-0.6399994,0.0099945-0.9599991,0
		c-0.1900024-0.0099945-0.5,0.0299988-0.5299988-0.1799927c-0.1299973-1.0099945-0.9000015-0.6799927-1.4499969-0.6799927
		c-6.6800003-0.0200043-13.3499985-0.0099945-20.0299988-0.0099945c-0.3499985,0-0.9700012,0.0099945-1.0099983-0.1199951
		c-0.3600006-1.1600037-1.2799988-0.5899963-1.9599991-0.7100067c-0.4700012-0.0800018-1.1100006,0.1799927-1.1100006-0.6799927
		c0-0.8500061,0.6300011-0.6199951,1.1100006-0.6799927c0.5800018-0.0700073,1.5099983,0.3000031,1.6599998-0.2100067
		c0.2900009-0.9799957,0.9300003-0.6900024,1.4799995-0.6900024c6.6800003-0.0200043,13.3500023-0.0099945,20.0300026-0.0200043
		c0.3799973,0,1,0.2100067,1.0899963-0.1699982c0.25-1.0099945,0.9899979-0.6399994,1.5299988-0.6399994
		c22.3499985-0.0200043,44.6999969-0.0099945,67.0500031-0.0099945c2.2799988,0,4.5599976,0,6.8399963,0.0099945
		c0.3000031,0,0.8200073-0.1399994,0.8699951,0.1600037c0.1999969,1.0299988,0.9600067,0.6499939,1.5,0.6499939
		c6.6399994,0.0200043,13.2700043,0.0099945,19.9100037,0.0200043c0.3800049,0,1.0200043-0.1999969,1.0899963,0.1900024
		c0.1999969,1.0200043,0.9199982,0.6600037,1.4700012,0.6900024
		C176.5700073,214.0099945,177.3300018,213.9700012,178.0899963,213.9700012z"></path>
	<path d="M49.6699982,144.0700073c-0.1899986-0.4199982-0.2999992-0.8500061-0.1899986-1.3200073
		c0.7200012,0,1.4399986,0.0299988,2.1599998-0.0099945c0.4599991-0.0200043,1.2099991,0.25,1.3300018-0.1799927
		c0.2700005-0.9199982,0.9099998-0.6199951,1.4300003-0.6199951c6.7099991-0.0200043,13.4300003-0.0099945,20.1399994-0.0200043
		c0.3499985,0,0.9599991,0.1499939,1-0.1300049c0.1699982-1.2200012,1.0699997-0.7299957,1.6500015-0.7299957
		c14.4300003-0.0299988,28.8600006-0.0200043,43.2799988-0.0200043c10.0700073,0,20.1399994,0,30.2200012,0.0099945
		c0.3899994,0,1.0700073-0.1600037,1.1199951,0.1199951c0.2299957,1.25,1.1499939,0.7299957,1.7700043,0.7400055
		c6.5099945,0.0399933,13.0299988,0.0200043,19.5399933,0.0299988c0.3899994,0,1.0800018-0.0299988,1.1300049,0.1199951
		c0.3600006,1.0800018,1.2200012,0.6399994,1.8699951,0.6799927c0.9600067,0.0599976,1.9199982,0.0099945,2.8800049,0.0099945
		c0.0500031,0.4700012,0.1000061,0.9400024-0.1999969,1.3500061c-1.1600037,0-2.3200073,0-3.4799957,0.0099945
		c-0.2700043,0-0.7299957-0.1000061-0.7700043,0.1399994c-0.1699982,1.1799927-1.0599976,0.7299957-1.6600037,0.7299957
		c-6.6000061,0.0299988-13.1999969,0.0099945-19.8000031,0.0299988c-0.3699951,0-1.0200043-0.1999969-1.0700073,0.2100067
		c-0.1300049,1.1100006-0.9100037,0.6900024-1.4299927,0.6900024c-24.5100021,0.0200043-49.0299988,0.0200043-73.5400009,0.0200043
		c-0.2799988,0-0.5599976,0-0.8399963,0c-0.1999969,0-0.5100021-0.0099945-0.5100021-0.1999969
		c-0.0199966-1.0299988-0.7799988-0.7100067-1.3000031-0.7100067c-6.7200012-0.0099945-13.4399986-0.0099945-20.1599998-0.0200043
		c-0.3800011,0-1.0600014,0.1600037-1.0999985-0.1799927c-0.1100006-1.0399933-0.8199997-0.6600037-1.3300018-0.6999969
		C51.1100006,144.0700073,50.3899994,144.0899963,49.6699982,144.0700073z"></path>
	<path d="M50.4500008,163.3399963c-0.0099983-0.4299927-0.0200005-0.8600006-0.0400009-1.2899933
		c0.6399994-0.0200043,1.2799988-0.0200043,1.9199982-0.0500031c0.2299995-0.0099945,0.6500015-0.0500031,0.6599998-0.1199951
		c0.1399994-1.0599976,0.9599991-0.6399994,1.4900017-0.6499939c6.670002-0.0299988,13.3500023-0.0200043,20.0200005-0.0200043
		c0.3499985,0,0.9599991,0.1399994,1.0100021-0.1199951c0.25-1.2899933,1.2200012-0.7700043,1.8799973-0.7799988
		c22.4599991-0.0200043,44.9199982-0.0200043,67.3799896-0.0200043c2.0800018,0,4.1600037-0.0099945,6.2299957,0.0099945
		c0.3000031,0,0.8399963-0.1399994,0.8600006,0.1600037c0.0899963,1.2100067,0.9700012,0.7400055,1.5200043,0.7400055
		c6.5899963,0.0299988,13.1900024,0.0200043,19.7799988,0.0299988c0.3899994,0,1.0200043-0.1900024,1.1199951,0.1399994
		c0.3200073,0.9700012,1.0500031,0.5899963,1.6300049,0.6300049c0.7200012,0.0500031,1.4400024,0.0200043,2.1600037,0.0299988
		c-0.0099945,0.4600067-0.0200043,0.9100037-0.0399933,1.3699951c-0.8000031,0-1.6000061-0.0099945-2.3999939,0.0200043
		c-0.3899994,0.0099945-1.0599976-0.1699982-1.1100006,0.1499939c-0.1699982,1.1399994-0.9900055,0.7299957-1.5599976,0.7299957
		c-6.6300049,0.0299988-13.2700043,0.0099945-19.8999939,0.0200043c-0.3500061,0-1,0.0200043-1.0099945,0.1100006
		c-0.1799927,1.1100006-1.0299988,0.6699982-1.5899963,0.6699982c-24.4199982,0.0200043-48.8399963,0.0200043-73.2600021,0.0200043
		c-0.3199997,0-0.6399994,0.0200043-0.9599991-0.0099945c-0.1900024-0.0200043-0.5100021-0.1000061-0.5199966-0.1799927
		c-0.0999985-0.9299927-0.8099976-0.6000061-1.2799988-0.6000061c-6.7099991-0.0200043-13.4300003-0.0099945-20.1399994-0.0299988
		c-0.4599991,0-1.1899986,0.3600006-1.2599983-0.6199951c-0.0299988-0.3899994-0.4300003-0.25-0.6899986-0.2599945
		C51.7200012,163.3699951,51.0800018,163.3600006,50.4500008,163.3399963z"></path>
	<path d="M178.0200043,202.4700012c-0.6799927,0.0099945-1.3699951-0.0399933-2.0399933,0.0399933
		c-0.6000061,0.0700073-1.4499969-0.4600067-1.6699982,0.7200012c-0.0599976,0.3200073-0.7299957,0.1499939-1.1199951,0.1499939
		c-6.6399994,0.0099945-13.2700043,0-19.9100037,0.0200043c-0.5399933,0-1.3300018-0.3800049-1.4199982,0.7200012
		c-0.0200043,0.3000031-0.5599976,0.1600037-0.8600006,0.1600037c-1.6000061,0.0099945-3.1999969,0.0099945-4.8000031,0.0099945
		c-23.0699997,0-46.1399994,0-69.2099991-0.0099945c-0.5400009,0-1.2699966,0.3500061-1.4300003-0.6999969
		c-0.0599976-0.3899994-0.7099991-0.1799927-1.0899963-0.1799927c-6.6800003-0.0099945-13.3499985,0-20.0299988-0.0200043
		c-0.5400009,0-1.2599983,0.3500061-1.4700012-0.6900024c-0.0800018-0.4100037-0.7900009-0.1199951-1.2000008-0.1799927
		c-0.5200005-0.0899963-1.2900009,0.3000031-1.2799988-0.7400055c0.0099983-1.0099945,0.75-0.5500031,1.2099991-0.6399994
		c0.5499992-0.1000061,1.2299995,0.2799988,1.5200005-0.6399994c0.0999985-0.3300018,0.7299995-0.1399994,1.1199989-0.1399994
		c6.7200012-0.0099945,13.4300041,0,20.1499977-0.0200043c0.4700012,0,1.2099991,0.3399963,1.1900024-0.6600037
		c0-0.2299957,0.2799988-0.2400055,0.4800034-0.2400055c0.3199997,0,0.6399994,0,0.9599991,0
		c24.4300003,0,48.8600006,0,73.2900009,0.0200043c0.5800018,0,1.4700012-0.4900055,1.6399994,0.7400055
		c0.0399933,0.3000031,0.7299957,0.1499939,1.1199951,0.1499939c6.5599976,0.0099945,13.1100006-0.0099945,19.6699982,0.0200043
		c0.6100006,0,1.3300018-0.3699951,1.7799988,0.6300049c0.1999969,0.4299927,1.2700043,0.0899963,1.9400024,0.1300049
		c0.4799957,0.0299988,0.9600067,0.0099945,1.4400024,0.0200043
		C178.0099945,201.5700073,178.0099945,202.0200043,178.0200043,202.4700012z"></path>
</g>
<g onclick="select(this)" class="has-opacity" id="estampa-quaternaria" fill="#ffffff" opacity="0.2">
	<path d="M48.5099983,268.8800049c1.5800018,0.0700073,3.1599998-0.1600037,4.7400017,0.1300049l-0.0200005,0.019989
		c-1.5600014,0-3.1300011,0-4.6899986,0C48.5299988,268.9899902,48.5200005,268.9299927,48.5099983,268.8800049z"></path>
	<path d="M145.6199951,285.8200073c1.1900024-0.0400085,2.3899994-0.019989,3.5700073-0.1400146
		c0.7400055-0.0700073,1.6799927,0.4100037,2.1600037-0.6799927c0.0599976-0.1499939,0.6699982-0.0700073,1.0299988-0.0700073
		c6.2599945,0,12.5099945-0.0400085,18.7599945,0.0499878c1.1499939,0.019989,2.1199951-0.5299988,3.2200012-0.519989
		c0.0599976,0.8399963-0.6100006,0.5899963-1.0099945,0.6099854c-2.4700012,0.1700134-4.9299927,0.3800049-7.3999939,0.4400024
		C159.1799927,285.6499939,152.3999939,285.8999939,145.6199951,285.8200073z"></path>
	<path d="M57.1100006,284.9299927c5.8899994,0,11.7799988-0.0100098,17.6699982,0.0100098
		c0.1999969,0,0.9400024-0.3800049,0.5999985,0.4599915c-0.3300018,0.1400146-0.6600037,0.2099915-1.0299988,0.2200012
		c-5.6500015,0.0899963-11.2900009-0.25-16.9300003-0.5700073
		C57.3199997,285.0400085,57.2200012,284.9700012,57.1100006,284.9299927z"></path>
	<path d="M195.3099976,66.2399979C188.3199921,66.25,181.3199921,66.25,174.3300018,66.25
		c-0.3999939,0-0.8899994,0.1800003-0.9199982-0.5699997c-0.0200043-0.7200012-0.6600037-0.4199982-1.0299988-0.4199982
		C167.980011,65.2400055,163.5900116,65.25,159.1900024,65.25c-2.2400055,0-4.4799957,0.0199966-6.7100067-0.0100021
		c-0.5700073-0.0100021-1.4100037,0.4100037-1.3899994-0.8399963c0.0200043-1.1699982,0.8099976-0.7599983,1.3300018-0.7700005
		c6.6300049-0.0200005,13.2700043-0.0299988,19.8999939,0c0.7599945,0,1.2200012-0.1199989,1.1999969-0.9599991
		c7.0399933-0.0099983,14.0800018-0.0099983,21.1100006-0.0499992c0.8000031,0,0.9700012,0.3499985,0.9100037,1.0099983
		C195.4799957,64.5,195.3899994,65.3700027,195.3099976,66.2399979z"></path>
	<path d="M195.1000061,73.6600037c-6.8699951,0-13.7400055,0.0100021-20.6100006,0
		c-0.4700012,0-1.0200043,0.1999969-1.1199951-0.6500015C173.3100128,72.5200043,172.6900177,72.75,172.3300171,72.75
		c-6.7100067-0.0100021-13.4199982-0.0100021-20.1300049-0.0100021c-0.5299988,0-1.1300049,0.1999969-1.0899963-0.7600021
		c0.0299988-0.6999969,0.2400055-0.8799973,0.9100037-0.8700027c1.7200012,0.0400009,3.4400024,0.0100021,5.1499939,0.0100021
		c5.0299988,0,10.0700073,0.0100021,15.1000061-0.0100021c0.4799957,0,1.1699982,0.2900009,1.1999969-0.6800003
		c0.0200043-0.5299988,0.5599976-0.3300018,0.8699951-0.3300018c6.9900055-0.0100021,13.9799957,0,20.9700012,0.0100021
		C195.3200073,71.3000031,195.5200043,72.5,195.1000061,73.6600037z"></path>
	<path d="M193.8200073,81.1299973c-6.5200043,0.0100021-13.0399933,0.0199966-19.5599976,0.0199966
		c-0.2599945,0-0.7299957,0.1100006-0.7400055-0.1699982c-0.0599976-1.2300034-0.9600067-0.8199997-1.5700073-0.8199997
		c-6.5599976-0.0199966-13.1199951-0.0100021-19.6800079-0.0199966c-0.5599976,0-1.1799927,0.2099991-1.1799927-0.8099976
		s0.6300049-0.8099976,1.1900024-0.8099976c6.6399994,0,13.2799988,0,19.9199982-0.0100021
		c0.5200043,0,1.2700043,0.3099976,1.2700043-0.7300034c0-0.3899994,0.4299927-0.2699966,0.6799927-0.2699966
		c6.8399963,0.0100021,13.6799927,0.0199966,20.5200043,0.0299988C194.6199951,78.8000031,194.3399963,80,193.8200073,81.1299973z"></path>
	<path d="M33.1800003,70.1200027c6.3499985,0,12.7099991-0.0100021,19.0599976-0.0100021
		c0.4900017,0,1.0299988-0.1600037,1.0699997,0.6999969c0.0299988,0.5699997,0.6399994,0.3099976,0.9900017,0.3099976
		C59.5299988,71.1399918,64.7699966,71.1299973,70,71.1299973c1.5599976,0,3.1200027,0.0199966,4.6800003-0.0100021
		c0.6100006-0.0100021,0.9300003,0.0699997,0.9300003,0.8300018C75.6100006,72.7299957,75.25,72.75,74.6600037,72.75
		c-6.75-0.0100021-13.5100021-0.0100021-20.2600021,0c-0.4799995,0-1.1300011-0.2799988-1.2000008,0.6699982
		c-0.0299988,0.4199982-0.6100006,0.2300034-0.9399986,0.2300034c-6.3100014,0.0100021-12.6300011,0-18.9400024,0
		C32.9799995,72.4899979,33.1199989,71.3000031,33.1800003,70.1200027z"></path>
	<path d="M173.6699982,88.6999969c-0.1199951-1.1600037-0.8899994-1.1600037-1.8099976-1.1500015
		c-6.5599976,0.0299988-13.1199951,0.0199966-19.6800079,0.0199966c-0.5700073,0-1.1000061,0.0899963-1.0700073-0.8099976
		c0.0200043-0.7300034,0.3000031-0.8399963,0.9299927-0.8300018c3.7599945,0.0199966,7.5200043,0.0100021,11.2799988,0.0100021
		c3.0399933,0,6.0800018,0.0100021,9.1199951-0.0100021c0.4299927,0,0.9400024,0.1999969,1.0500031-0.5899963
		c0.0899963-0.6100006,0.7299957-0.3199997,1.1100006-0.3199997C180.5599823,85,186.5199738,85,192.4799805,85
		c-0.0399933,1.3099976-0.9799957,2.2399979-1.4499969,3.3700027c-0.1799927,0.4400024-0.6699982,0.3499985-1.0700073,0.3499985
		C184.5200043,88.7200012,179.1000061,88.7099991,173.6699982,88.6999969z"></path>
	<path d="M33.9399986,77.5899963c3.5999985-0.0299988,7.1899986-0.0599976,10.7900009-0.0699997
		c2.4799995-0.0100021,4.9599991-0.0100021,7.4399986,0c0.5099983,0,1.1100006-0.2099991,1.1500015,0.7300034
		c0.0200005,0.5199966,0.6599998,0.2600021,1.0099983,0.2600021c6.7200012,0.0199966,13.4299965,0.0100021,20.1499977,0.0199966
		c0.5100021,0,1.0999985-0.2200012,1.1299973,0.75c0.0299988,0.9800034-0.5,0.8799973-1.1200027,0.8799973
		c-6.6800003-0.0100021-13.3499985-0.0100021-20.0299988,0.0100021c-0.5,0-1.2200012-0.3499985-1.25,0.7300034
		c-0.0099983,0.4899979-0.6699982,0.2600021-1.0200005,0.2600021c-5.5600014,0.0199966-11.1199989,0.0100021-16.670002,0.0199966
		C34.7700005,80.0699997,34.2400017,78.8799973,33.9399986,77.5899963z"></path>
	<path d="M53.0499992,62.6800003c0.1699982,0.7400017,0.5600014,0.9700012,1.3800011,0.9700012
		c6.5999985-0.0499992,13.1900024-0.0299988,19.7900009-0.0099983c0.5599976,0,1.4100037-0.4199982,1.3899994,0.829998
		c-0.0199966,1.2900009-0.9199982,0.7600021-1.4400024,0.7600021C67.5699997,65.2700043,60.9799995,65.25,54.3799973,65.2600021
		c-0.4900017,0-1.1199989-0.2699966-1.1599998,0.6999969C53.1999969,66.5,52.5699959,66.25,52.2199974,66.25
		c-6.2799988,0.0199966-12.5499992,0.0100021-18.829998,0.0100021c-0.1699982-1.0899963,0.1300011-2.1999969-0.1899986-3.3899994
		c1.6399994,0,3.1899986,0,4.7299995,0c4.5400009,0,9.0699997,0,13.6100006,0
		C52.0499992,62.8699989,52.5600014,62.9099998,53.0499992,62.6800003z"></path>
	<path d="M36.9399986,85.0400009C42.0999985,85.0299988,47.25,85.0200043,52.4099998,85.0100021
		c0.4399986,0,0.8400002-0.0699997,0.9000015,0.6200027c0.0499992,0.5800018,0.6500015,0.2900009,0.9900017,0.2900009
		c6.7200012,0.0199966,13.4300003,0.0100021,20.1500015,0.0299988c0.4199982,0,1.0800018-0.3600006,1.1500015,0.5699997
		c0.0599976,0.8499985-0.2300034,1.0599976-1.0599976,1.0599976c-6.4400024-0.0299988-12.8699989-0.0100021-19.3099976-0.0299988
		c-0.9900017,0-1.9700012-0.1299973-2.2799988,1.1500015c-4.5200005,0.0100021-9.0400009,0-13.5499992,0.0400009
		c-0.8499985,0.0100021-1.3499985-0.2600021-1.5-1.1399994C37.7299995,86.6900024,37.0400009,85.9700012,36.9399986,85.0400009z"></path>
	<path d="M54.6699982,34.3100014c6.5800018,0.0200005,13.1699982,0.0299988,19.75,0.0699997
		c0.4199982,0,1.0800018-0.3600006,1.1600037,0.5600014c0.0699997,0.8199997-0.1800003,1.0800018-1.0400009,1.0699997
		c-6.7399979-0.0400009-13.4899979-0.0200005-20.2299995-0.0200005c-0.5900002,0-1.2999992-0.1500015-1.0099983,0.8699989
		c-2.6599998,0.2900009-5.3199997,0.0400009-8,0.0200005C48.4399986,36.0200005,51.4900017,34.9300003,54.6699982,34.3100014z"></path>
	<path d="M173.3399963,36.8600006c0.3699951-1.0400009-0.3699951-0.8800011-0.9499969-0.8800011
		c-6.75,0-13.5-0.0099983-20.25,0.0099983c-0.7299957,0-1.0700073-0.1100006-1.0299988-0.9700012
		c0.0399933-0.8899994,0.6100006-0.6699982,1.0800018-0.6699982c6.1900024-0.0099983,12.3800049,0,18.5700073-0.0099983
		c0.4799957,0,0.9600067-0.0299988,1.4400024-0.0400009c2.8500061,0.7999992,5.7100067,1.5999985,8.5599976,2.4000015
		C178.2599945,36.9099998,175.8000031,37.1300011,173.3399963,36.8600006z"></path>
	<path d="M158.3500061,28.5200005c-2.1900024,0.0200005-4.3800049,0.0200005-6.5700073,0.0699997
		c-0.6699982,0.0200005-0.6799927-0.3299999-0.6699982-0.8099995c0.0099945-0.4699993-0.0200043-0.8600006,0.6600037-0.8400002
		c1.1100006,0.0300007,2.2299957-0.0300007,3.3399963-0.0499992
		C156.2599945,27.3099995,157.3200073,27.8899994,158.3500061,28.5200005z"></path>
	<path d="M72.6900024,26.8899994c0.6800003,0.0200005,1.3600006,0.0900002,2.0299988,0.0499992
		s0.8799973,0.1900005,0.8799973,0.8799992c0,0.6900005-0.2900009,0.7800007-0.8600006,0.7700005
		c-1.7900009-0.0400009-3.5899963-0.0499992-5.3899994-0.0699997C70.4199982,27.8799992,71.5,27.2800007,72.6900024,26.8899994z"></path>
	<path d="M180.25,276.5c0.1300049,1.1799927,0.3999939,2.3599854,0.25,3.5599976
		c-2.0399933,0-4.0700073,0-6.1100006,0c-0.2799988,0-0.7799988,0.0100098-0.8000031-0.0700073
		c-0.3399963-1.519989-1.5500031-0.8099976-2.3200073-0.8099976c-6.3099976-0.0599976-12.6199951-0.0299988-18.9299927-0.0400085
		c-0.5700073,0-1.2799988,0.2900085-1.2599945-0.8299866c0.0200043-1.0499878,0.6799927-0.769989,1.2100067-0.769989
		c6.6699982-0.0100098,13.3399963-0.0100098,20.0099945-0.0100098c0.5200043,0,1.1300049,0.2000122,1.1699982-0.730011
		c0.0200043-0.4899902,0.5899963-0.269989,0.8999939-0.2799988C176.3399963,276.4899902,178.2899933,276.5,180.25,276.5z"></path>
	<path d="M179.9400024,269.0400085c0.0299988,1.2000122,0.0599976,2.4100037,0.1000061,3.6099854
		c-1.8800049,0-3.7599945,0.0100098-5.6399994,0c-0.4400024,0-0.9499969,0.1900024-1.0099945-0.6199951
		c-0.0399933-0.6799927-0.6900024-0.3699951-1.0599976-0.3800049c-6.7200012-0.019989-13.4400024-0.0100098-20.1600037-0.019989
		c-0.4600067,0-1.0500031,0.2399902-1.0700073-0.6600037c-0.0200043-0.8200073,0.2599945-0.980011,1.0200043-0.980011
		c6.7200012,0.0299988,13.4400024,0,20.1600037,0.0400085c0.8300018,0,1.2799988-0.1600037,1.2599945-1.0499878
		C175.6699982,269.0100098,177.8099976,269.019989,179.9400024,269.0400085z"></path>
	<path d="M47.9799995,280.0599976c-0.1500015-1.2000122,0.1300011-2.3800049,0.25-3.5599976
		c1.2799988,0,2.5600014-0.019989,3.8400002,0.0100098c0.5299988,0.0100098,1.2099991-0.2799988,1.2599983,0.75
		c0.0200005,0.480011,0.6699982,0.25,1.0299988,0.25c6.7200012,0.019989,13.4299965,0.0100098,20.1499977,0.019989
		c0.4499969,0,1.0599976-0.269989,1.0899963,0.6499939c0.0299988,0.8299866-0.2699966,0.980011-1.0199966,0.980011
		c-6.6399994-0.0299988-13.2700005-0.019989-19.9099998,0c-0.5600014,0-1.4199982-0.4299927-1.4900017,0.75
		c-0.0099983,0.230011-0.4900017,0.1499939-0.7700005,0.1499939
		C50.9399986,280.0599976,49.4599991,280.0599976,47.9799995,280.0599976z"></path>
	<path d="M48.4399986,272.6499939c0.0299988-1.2000122,0.0600014-2.4100037,0.0900002-3.6099854
		c1.5600014,0,3.1300011,0,4.6899986,0c-0.0999985,0.8599854,0.3199997,1,1.1100006,1
		c6.7200012-0.0299988,13.4399986-0.019989,20.1599998-0.0100098c0.4300003,0,1.0500031-0.3099976,1.1100006,0.6199951
		c0.0599976,0.9400024-0.3600006,1.0100098-1.1200027,1.0100098c-6.5199966-0.019989-13.0400009-0.0299988-19.5599976,0.0100098
		c-0.6399994,0-1.6699982-0.5499878-1.7599983,0.8399963c-0.0099983,0.2399902-0.5,0.1400146-0.7599983,0.1499939
		C51.0800018,272.6600037,49.7599983,272.6499939,48.4399986,272.6499939z"></path>
	<path d="M173.5200043,269c2.1499939-0.269989,4.3000031-0.0499878,6.4499969-0.1199951
		c-0.0099945,0.0499878-0.0200043,0.1099854-0.0299988,0.1600037c-2.1399994-0.019989-4.2700043-0.0299988-6.4100037-0.0499878
		C173.5399933,268.9899902,173.5200043,269,173.5200043,269z"></path>
	<path d="M177.9499969,191.8399963c-1.5099945-0.0200043-3.0299988-0.0399933-4.5399933-0.0700073
		c0.2100067-0.9900055-0.3899994-0.9700012-1.1000061-0.9700012c-6.7200012,0.0200043-13.4400024,0.0099945-20.1600037,0.0099945
		c-0.5700073,0-1.0599976,0.1000061-1.0599976-0.8099976c0-0.8800049,0.4499969-0.8300018,1.0500031-0.8300018
		c6.7200012,0.0099945,13.4400024,0.0099945,20.1600037,0c0.3699951,0,1.0200043,0.2200012,1.0500031-0.2400055
		c0.0800018-1.1100006,0.8399963-0.7299957,1.3899994-0.75c0.8800049-0.0399933,1.7599945-0.0299988,2.6399994-0.0099945
		c1.1600037,0.0200043,0.8200073-0.9199982,0.6999969-1.3600006c-0.2299957-0.8300018,0.8999939-2.1399994-0.6799927-2.4499969
		c-1-0.1900024-2.0700073-0.0299988-3.1100006-0.0500031c-0.2899933-0.0099945-0.8000031,0.1600037-0.8099976-0.2599945
		c-0.0200043-1.0399933-0.75-0.7299957-1.2700043-0.7299957c-6.6799927-0.0099945-13.3600006-0.0200043-20.0399933,0
		c-0.6799927,0-1.1300049-0.0299988-1.0599976-0.9299927c0.0700073-0.9299927,0.7200012-0.5800018,1.1399994-0.5899963
		c6.6799927-0.0200043,13.3600006-0.0099945,20.0399933-0.0200043c0.3699951,0,1.0200043,0.2100067,1.0599976-0.2400055
		c0.0899963-1.0599976,0.8099976-0.7599945,1.3800049-0.7700043c0.8800049-0.0299988,1.7599945-0.0299988,2.6399994,0
		c0.5800018,0.0200043,0.8699951-0.2400055,0.75-0.7700043c-0.2299957-1.0200043,0.6100006-2.1999969-0.4799957-3.0599976
		c-0.1300049-0.1000061-0.3899994-0.0200043-0.5899963-0.0200043c-0.9600067,0-1.9199982,0.0099945-2.8800049-0.0099945
		c-0.2599945,0-0.6900024,0.1000061-0.6900024-0.2700043c0.0099945-1.0500031-0.75-0.7299957-1.2599945-0.7299957
		c-6.6799927-0.0099945-13.3600006-0.0099945-20.0399933-0.0099945c-0.5500031,0-1.0800018,0.1300049-1.0800018-0.8000031
		c0-0.8699951,0.4199982-0.8399963,1.0399933-0.8399963c6.7200012,0.0099945,13.4400024,0.0099945,20.1600037,0
		c0.3699951,0,1.0200043,0.2200012,1.0599976-0.2200012c0.0899963-1.0800018,0.8099976-0.75,1.3800049-0.7700043
		c0.8399963-0.0299988,1.6799927-0.0700073,2.5200043,0.0099945c1.0899963,0.0899963,1.0299988-0.6999969,0.8500061-1.2400055
		c-0.3000031-0.8699951,0.9900055-2.3000031-0.8000031-2.5899963c-0.9700012-0.1600037-2-0.0200043-3-0.0399933
		c-0.2599945,0-0.7200012,0.1300049-0.75-0.1600037c-0.1300049-1.1300049-0.9600067-0.7400055-1.5399933-0.7400055
		c-6.6000061-0.0200043-13.1999969-0.0200043-19.8000031-0.0099945c-0.6199951,0-1.1399994,0.0899963-1.1100006-0.8800049
		c0.0299988-0.9600067,0.6000061-0.75,1.1199951-0.75c6.7200012,0,13.4400024-0.0099945,20.1600037,0.0099945
		c0.8000031,0,1.2299957-0.1600037,1.0500031-1.0399933c1.4900055-0.0099945,2.9799957-0.0299988,4.4799957-0.0399933
		c0.2799988,0.3999939,0.1499939,0.8500061,0.1499939,1.2799988c0.0099945,2.4100037-0.1999969,4.8000031-0.0800018,7.2299957
		c0.1499939,2.9900055-0.1100006,6,0.0299988,9.0200043c0.0700073,1.4799957-0.3699951,3.0099945-0.1300049,4.5
		C178.0800018,189.1699982,178.0599976,190.4900055,177.9499969,191.8399963z"></path>
	<path d="M173.5599976,114.3799973c3.0099945,0.1600037,6.0299988,0.0699997,9.0399933,0.0500031
		c0.1399994,1.1800003-0.4199982,2.25-0.4799957,3.4000015c-2.6000061,0-5.1900024,0.0100021-7.7899933,0
		c-0.4100037,0-0.8800049,0.1500015-0.9199982-0.5699997c-0.0399933-0.6999969-0.6600037-0.4199982-1.0299988-0.4199982
		c-5.2700043-0.0199966-10.5399933-0.0100021-15.8200073-0.0100021c-1.5200043,0-3.0399933-0.0100021-4.5500031,0.0100021
		c-0.5200043,0.0100021-0.8999939,0.0199966-0.9100037-0.7200012c-0.0099945-0.7699966,0.3399963-0.8099976,0.9400024-0.8099976
		c6.75,0.0100021,13.5,0,20.25,0.0299988C173.0299988,115.3300018,173.5200043,115.2099991,173.5599976,114.3799973z"></path>
	<path d="M180.7799988,125.3300018c-2.1600037,0-4.3200073,0-6.4700012,0
		c-0.4299927,0-0.8500061,0.0999985-0.8999939-0.5999985c-0.0500031-0.6800003-0.6799927-0.3899994-1.0500031-0.3899994
		c-6.7100067-0.0199966-13.4300079-0.0100021-20.1399994-0.0199966c-0.5099945,0-1.1000061,0.2200012-1.1100006-0.7399979
		c-0.0200043-0.9499969,0.4799957-0.8899994,1.1100006-0.8899994c6.6699982,0.0100021,13.3500061,0.0100021,20.0200043,0
		c0.5399933,0,1.2200012,0.2699966,1.2700043-0.75c0.0200043-0.4400024,0.6000061-0.2399979,0.9299927-0.2399979
		c2.3200073-0.0100021,4.6399994,0,6.9499969,0C181.3200073,122.9300003,181.1499939,124.1500015,180.7799988,125.3300018z"></path>
	<path d="M179.8300018,132.7700043c-1.8399963-0.0099945-3.6799927-0.0200043-5.5099945-0.0299988
		c-0.4100037,0-0.8800049,0.1499939-0.9100037-0.5800018c-0.0299988-0.7200012-0.6699982-0.4100037-1.0299988-0.4199982
		c-5.5899963-0.0200043-11.1900024-0.0099945-16.7799988-0.0099945c-1.0800018,0-2.1600037,0.0099945-3.2400055,0
		c-0.5800018-0.0099945-1.2799988,0.2799988-1.2599945-0.8500061c0.0200043-1.0599976,0.6799927-0.7700043,1.2100067-0.7700043
		c6.3899994-0.0099945,12.7899933,0.0099945,19.1800079-0.0299988c0.7200012-0.0099945,1.8099976,0.6000061,2.1100006-0.7899933
		c0.0200043-0.0899963,0.5099945-0.1000061,0.7799988-0.1000061c1.9600067-0.0099945,3.9199982,0,5.8699951,0
		C180.2799988,130.3999939,180.0899963,131.5899963,179.8300018,132.7700043z"></path>
	<path d="M179.1699982,140.2299957c-1.8600006-0.0099945-3.7299957-0.0299988-5.5899963-0.0399933
		c-0.0899963-0.7400055-0.4299927-0.9900055-1.2400055-0.9799957c-6.7100067,0.0399933-13.4299927,0.0299988-20.1499939,0.0200043
		c-0.5299988,0-1.1300049,0.1999969-1.0899963-0.7599945c0.0299988-0.6900024,0.2200012-0.8800049,0.8999939-0.8699951
		c2.1999969,0.0399933,4.3999939,0.0099945,6.6000061,0.0099945c4.6000061,0,9.1900024,0,13.7899933,0
		c0.4799957,0,1.0599976,0.1900024,1.0899963-0.6799927c0.0200043-0.5299988,0.5599976-0.3200073,0.8699951-0.3300018
		c1.7200012-0.0200043,3.4400024-0.0099945,5.1600037-0.0099945
		C179.3800049,137.8000031,179.2799988,139.0099945,179.1699982,140.2299957z"></path>
	<path d="M178.8800049,243.3999939c-1.8200073-0.0200043-3.6300049-0.0299988-5.4499969-0.0500031
		c0.1600037-0.9400024-0.3800049-0.9900055-1.1199951-0.9799957c-6.7100067,0.0200043-13.4300079,0.0099945-20.1399994,0.0099945
		c-0.5500031,0-1.1100006,0.1399994-1.0800018-0.7899933c0.0299988-0.6900024,0.2299957-0.8699951,0.8999939-0.8600006
		c3.2400055,0.0299988,6.4700012,0.0099945,9.7100067,0.0099945c3.5200043,0,7.0299988,0.0099945,10.5500031-0.0099945
		c0.4900055,0,1.1499939,0.2899933,1.2299957-0.6600037c0.0299988-0.3699951,0.5399933-0.2299957,0.8399963-0.2400055
		c1.4799957-0.0099945,2.9600067-0.0099945,4.4400024-0.0099945
		C178.8000031,241.0200043,178.8399963,242.2100067,178.8800049,243.3999939z"></path>
	<path d="M178.7599945,235.9600067c-1.2799988,0.0099945-2.5599976,0.0500031-3.8399963,0.0099945
		c-0.6100006-0.0200043-1.4600067,0.4100037-1.6000061-0.8000031c-0.0500031-0.3899994-0.7100067-0.1799927-1.0800018-0.1900024
		c-6.7200012-0.0099945-13.4299927-0.0200043-20.1499939,0c-0.6600037,0-1-0.0599976-1-0.8800049
		c0-0.9499969,0.5800018-0.7599945,1.1100006-0.7599945c6.4799957,0,12.9600067,0.0099945,19.4300079-0.0200043
		c0.6900024,0,1.7400055,0.5200043,1.9100037-0.8600006c0.0299988-0.2400055,0.5-0.1300049,0.7700043-0.1300049
		c1.3999939-0.0099945,2.8000031-0.0099945,4.1999969-0.0099945
		C178.5899963,233.5399933,178.6799927,234.75,178.7599945,235.9600067z"></path>
	<path d="M178.5099945,228.4799957c-1.1999969,0-2.3999939,0.0399933-3.5899963-0.0099945
		c-0.6100006-0.0200043-1.4600067,0.4199982-1.5899963-0.7899933c-0.0500031-0.3999939-0.6999969-0.1900024-1.0700073-0.1900024
		c-6.6699982-0.0099945-13.3399963,0-20-0.0299988c-0.3899994,0-1,0.3500061-1.1199951-0.4600067
		c-0.1300049-0.8600006,0.2200012-1.0500031,1.0500031-1.0500031c6.5899963,0.0299988,13.1799927,0.0299988,19.7700043,0.0099945
		c0.6199951,0,1.5,0.3800049,1.5800018-0.8300018c0.0200043-0.3200073,0.4700012-0.1999969,0.7299957-0.1999969
		c1.3600006-0.0099945,2.7200012-0.0099945,4.0700073-0.0099945
		C178.6100006,226.0899963,178.5800018,227.2899933,178.5099945,228.4799957z"></path>
	<path d="M173.5399933,217.4199982c1.5399933-0.0099945,3.0800018-0.0299988,4.6199951-0.0399933
		c0.2799988,1.2299957,0.1000061,2.4600067,0.1000061,3.6999969c-1.1199951,0-2.2400055,0.0299988-3.3600006-0.0099945
		c-0.6100006-0.0200043-1.4600067,0.3999939-1.5899963-0.8099976c-0.0399933-0.3800049-0.7100067-0.1799927-1.0800018-0.1799927
		c-6.6799927-0.0099945-13.3600006-0.0099945-20.0399933-0.0099945c-0.5399933,0-1.1300049,0.1699982-1.1000061-0.7700043
		c0.0200043-0.6900024,0.2299957-0.8800049,0.8999939-0.8699951c2.1199951,0.0399933,4.2400055,0.0099945,6.3600006,0.0099945
		c4.6399994,0,9.2799988-0.0299988,13.9199982,0.0299988C173.1300049,218.4700012,173.5200043,218.2400055,173.5399933,217.4199982z
		"></path>
	<path d="M50.5699997,165.8000031c0.8800011,0.0099945,1.75,0.0299988,2.6300011,0.0399933
		c-0.0600014,0.9100037,0.4099998,1.0399933,1.2299995,1.0399933c6.6800003-0.0299988,13.3600006-0.0200043,20.0299988-0.0200043
		c0.5899963,0,1.1600037-0.1499939,1.1500015,0.8500061c-0.0100021,0.9499969-0.5599976,0.7799988-1.0899963,0.7799988
		c-6.7200012,0-13.4399986,0-20.1500015,0.0200043c-0.3600006,0-1-0.3399963-1.0699997,0.3399963
		c-0.0699997,0.7400055-0.5499992,0.5500031-0.9399986,0.5599976c-1.9900017,0.0599976-1.9900017,0.0599976-1.9900017,2.0599976
		c0,0.0399933,0,0.0800018,0,0.1199951c0.0200005,2-0.1300011,1.6199951,1.6500015,1.6799927
		c0.4099998,0.0099945,1.1599998-0.2200012,1.1800003,0.2100067c0.0699997,1.2200012,0.9099998,0.7700043,1.4599991,0.7799988
		c6.6399994,0.0299988,13.2799988,0.0200043,19.9100037,0c0.7200012,0,1.0800018,0.0899963,1.0400009,0.9600067
		c-0.0299988,0.8999939-0.6100006,0.6699982-1.0699997,0.6699982c-6.7200012,0.0099945-13.4399986,0-20.1500015,0.0200043
		c-0.3699989,0-1.0400009-0.3099976-1.0699997,0.3300018c-0.0499992,0.7799988-0.4900017,0.6600037-0.9599991,0.6699982
		c-1.9799995,0.0399933-1.9799995,0.0399933-1.9799995,2.0599976c0,0.1199951,0.0200005,0.2400055,0,0.3600006
		c-0.2000008,1.1499939,0.25,1.6000061,1.4300003,1.4499969c0.4599991-0.0599976,1.3199997-0.2899933,1.3899994,0.2299957
		c0.1399994,1.0800018,0.8199997,0.7700043,1.3800011,0.7700043c6.6399994,0.0099945,13.2799988,0.0099945,19.909996,0.0099945
		c0.5800018,0,1.1900024-0.1600037,1.1399994,0.8500061c-0.0500031,0.9100037-0.6299973,0.6600037-1.0800018,0.6600037
		c-6.7200012,0.0099945-13.4399986,0-20.1500015,0.0200043c-0.3600006,0-1.0099983-0.2299957-1.0400009,0.2400055
		c-0.0499992,0.9100037-0.5900002,0.7599945-1.1300011,0.7700043c-1.8400002,0.0200043-1.8400002,0.0200043-1.8400002,1.8399963
		c0,0.1600037,0,0.3200073,0,0.4799957c0.0099983,1.8300018-0.0800018,1.4799957,1.5499992,1.5399933
		c0.4399986,0.0200043,1.2299995-0.2700043,1.2700005,0.2400055c0.0999985,1.1300049,0.8499985,0.75,1.3800011,0.75
		c5.3199997,0.0200043,10.6400032,0.0099945,15.9600029,0.0099945c1.4400024,0,2.8799973,0.0200043,4.3199997-0.0099945
		c0.5599976-0.0099945,0.7099991,0.1799927,0.7699966,0.75c0.0899963,0.9700012-0.4700012,0.8899994-1.0999985,0.8899994
		c-6.7600021-0.0099945-13.5200005,0.0099945-20.2700005-0.0200043c-0.7799988,0-1.0999985,0.2100067-0.9700012,0.9900055
		c-0.9099998,0.0200043-1.8199997,0.0399933-2.7299995,0.0599976c-0.1300011-1.3800049,0.0600014-2.7599945,0.0699997-4.1300049
		c0.0099983-3.4400024,0-6.8800049,0-10.3300018c0-1.0800018-0.2400017-2.2200012-0.1199989-3.3099976
		c0.1399994-1.3099976,0.3199997-2.6199951,0.1599998-3.9100037c-0.1399994-1.1499939-0.1899986-2.2899933-0.2000008-3.4299927
		C50.4300003,166.4100037,50.3699989,166.0899963,50.5699997,165.8000031z"></path>
	<path d="M45.8499985,114.4800034c1.9399986-0.0100021,3.8699989-0.0100021,5.8100014-0.0100021
		c0.4700012,0,0.9399986,0.0299988,1.3800011-0.1999969c0.1599998,0.8799973,0.6599998,1.0800018,1.5499992,1.0699997
		c6.5099983-0.0500031,13.0099983-0.0400009,19.5200005,0c0.5,0,1.4599991-0.5999985,1.4800034,0.6999969
		c0.0199966,1.3600006-1,0.7600021-1.5400009,0.7699966c-6.5500031,0.0400009-13.0900002,0.0199966-19.6399994,0.0400009
		c-0.4700012,0-1.1599998-0.3199997-1.1800003,0.6699982c-0.0099983,0.5299988-0.5600014,0.3099976-0.8699989,0.3199997
		c-2,0.0199966-3.9900017,0.0100021-5.9900017,0.0100021C46.2799988,116.6999969,45.7999992,115.6299973,45.8499985,114.4800034z"></path>
	<path d="M47.1100006,121.6900024c1.5600014,0,3.1199989-0.0500031,4.6699982,0.0100021
		c0.5800018,0.0199966,1.5-0.5,1.5600014,0.8099976c0.0200005,0.3499985,0.7099991,0.1699982,1.0800018,0.1800003
		c6.670002,0.0100021,13.3400002,0,20.0099983,0.0199966c0.4199982,0,1.0800018-0.3600006,1.1600037,0.5699997
		c0.0699997,0.8399963-0.1999969,1.0699997-1.0500031,1.0699997c-6.6699982-0.0400009-13.3400002-0.0299988-20.0100021-0.0100021
		c-0.5400009,0-1.3400002-0.3600006-1.3300018,0.7799988c0,0.3399963-0.5400009,0.2099991-0.8300018,0.2099991
		c-1.5600014,0.0199966-3.1100006,0.0100021-4.6699982,0.0100021
		C47.3300018,124.1500015,47.1599998,122.9300003,47.1100006,121.6900024z"></path>
	<path d="M48.2299995,129.1799927c1.2400017,0,2.4799995-0.0299988,3.7099991,0.0099945
		c0.5400009,0.0200043,1.3199997-0.3600006,1.4000015,0.7400055c0.0200005,0.3099976,0.6399994,0.1499939,0.9799995,0.1499939
		c6.7099991,0.0099945,13.4199982,0,20.1299973,0.0200043c0.4199982,0,1.0699997-0.3500061,1.1399994,0.5800018
		c0.0599976,0.8600006-0.2399979,1.0599976-1.0699997,1.0500031c-6.6299973-0.0299988-13.2600021-0.0299988-19.8899994,0
		c-0.5499992,0-1.4399986-0.4400024-1.4300003,0.7899933c0,0.3000031-0.4700012,0.1999969-0.7299995,0.1999969
		c-1.2799988,0.0200043-2.5600014,0.0200043-3.829998,0.0299988
		C48.3899994,131.5899963,48.2000008,130.3999939,48.2299995,129.1799927z"></path>
	<path d="M53.1599998,140.1799927c-1.2799988,0.0200043-2.5699997,0.0299988-3.8499985,0.0500031
		c-0.1100006-1.2100067-0.2099991-2.4199982-0.3199997-3.6399994c1,0,2-0.0200043,2.9900017,0.0099945
		c0.5600014,0.0200043,1.2999992-0.3200073,1.3600006,0.7899933c0.0200005,0.4299927,0.6899986,0.2200012,1.0499992,0.2200012
		c6.7099991,0.0099945,13.4099998,0.0099945,20.1199989,0.0099945c0.5299988,0,1.0800018-0.1799927,1.0999985,0.7700043
		c0.0299988,1.0200043-0.5599976,0.8399963-1.1399994,0.8399963c-6.7099991,0-13.4099998,0.0200043-20.1100006-0.0200043
		C53.5699997,139.1999969,53.1699982,139.3699951,53.1599998,140.1799927z"></path>
	<path d="M49.9700012,232.3300018c0.7599983,0,1.5200005,0,2.2799988,0.0099945
		c0.4900017,0,1.0200005-0.1600037,1.0600014,0.6999969c0.0299988,0.5700073,0.6500015,0.3000031,0.9900017,0.3000031
		c6.1199989,0.0200043,12.2299957,0.0099945,18.3499985,0.0099945c0.6800003,0,1.3600006,0.0299988,2.0400009-0.0099945
		c0.6299973-0.0299988,0.9100037,0.1100006,0.9100037,0.8500061c0,0.8000031-0.3899994,0.7899933-0.9599991,0.7899933
		c-6.7600021-0.0099945-13.5100021-0.0099945-20.2700005,0c-0.4700012,0-1.2000008-0.3300018-1.1300011,0.6900024
		c0.0299988,0.4299927-0.4000015,0.3000031-0.6399994,0.3000031c-0.9599991,0.0099945-1.9199982-0.0099945-2.8800011-0.0200043
		C49.7999992,234.75,49.8899994,233.5399933,49.9700012,232.3300018z"></path>
	<path d="M53.2599983,243.3399963c-1.2200012,0.0200043-2.4399986,0.0399933-3.6599998,0.0500031
		c0.0400009-1.1900024,0.0800018-2.3800049,0.1199989-3.5599976c0.7999992,0,1.5999985-0.0200043,2.4000015,0.0099945
		c0.4900017,0.0200043,1.1199989-0.2799988,1.2200012,0.6799927c0.0499992,0.4499969,0.6800003,0.2200012,1.0400009,0.2200012
		c6.7099991,0.0099945,13.420002,0.0099945,20.1300011,0.0099945c0.5299988,0,1.0800018-0.1799927,1.1100006,0.7700043
		c0.0199966,0.9900055-0.5299988,0.8600006-1.1299973,0.8600006c-6.75,0-13.5,0.0099945-20.25-0.0200043
		C53.4500008,242.3600006,53.1199989,242.5599976,53.2599983,243.3399963z"></path>
	<path d="M50.1699982,224.9199982c0.7200012,0,1.4399986,0,2.1599998,0.0099945
		c0.4700012,0,0.9300003-0.1100006,0.9799995,0.6600037c0.0400009,0.6699982,0.7000008,0.3600006,1.0699997,0.3600006
		c6.7200012,0.0200043,13.4400024,0.0099945,20.159996,0.0200043c0.5299988,0,1.0999985-0.1799927,1.0800018,0.7799988
		c-0.0299988,1-0.6699982,0.7100067-1.1500015,0.7100067c-6.6399994,0.0099945-13.2799988,0-19.9199982,0.0200043
		c-0.5499992,0-1.3400002-0.3399963-1.3300018,0.7799988c0,0.3200073-0.4599991,0.2100067-0.7200012,0.2200012
		c-0.8400002,0.0099945-1.6800003,0-2.5200005,0C49.8899994,227.2899933,49.8899994,226.0899963,50.1699982,224.9199982z"></path>
	<path d="M50.3199997,217.3699951c0.9500008,0.0099945,1.9099998,0.0200043,2.8600006,0.0399933
		c-0.0200005,0.8500061,0.3800011,1.0599976,1.2200012,1.0500031c6.7099991-0.0399933,13.4300003-0.0200043,20.1399994-0.0299988
		c0.5800018,0,1.0800018-0.0800018,1.0599976,0.8200073c-0.0199966,0.75-0.3199997,0.8300018-0.9300003,0.8200073
		c-3.8799973-0.0200043-7.75-0.0099945-11.6300011-0.0099945c-2.920002,0-5.8400002-0.0099945-8.75,0.0099945
		c-0.4599991,0-1.0999985-0.2400055-1.0400009,0.6699982c0.0299988,0.4199982-0.3699989,0.3300018-0.6300011,0.3300018
		c-0.7999992,0.0099945-1.5999985,0-2.4000015,0C50.2200012,219.8399963,50.0400009,218.6000061,50.3199997,217.3699951z"></path>
</g>
<g onclick="select(this)" class="" id="gola-primaria" fill="#000000">
	<path d="M78.4226303,7.9673753c0.58358-0.069356,1.032135-0.3976116,1.4363251-0.7842617
		c0.9175644-0.877727,1.9667511-1.6647758,2.7009888-2.6779346c1.8149261-2.5044103,4.3710556-3.4063895,7.2605591-3.79111
		c0.6240387-0.0830863,1.349823,0.1018219,1.8594971-0.4742064c1.2000046,0,2.4000015,0,3.6000061,0
		c0.1689606,0.4907088,0.5991287,0.3122897,0.914032,0.3134411c5.57827,0.0203979,11.1566238,0.020126,16.7349243,0.0349568
		c0.4080048,0.0010847,0.7730255-0.0500122,1.0710449-0.3483979c7.5199966,0,15.0400009,0,22.5600052,0
		c0.0828094,0.4741868,0.4899597,0.3142419,0.7613983,0.3587393c0.9795685,0.1605679,1.9686432,0.2632271,2.9482422,0.4236295
		c1.9836731,0.3248088,3.6552734,1.119652,4.9371185,2.7922442c1.2989655,1.6949239,2.7367096,3.3046355,4.641922,4.3876176
		c1.3349457,0.5595255,1.9354553,1.5324001,1.8441772,3.0037222c-0.2312622,3.7279959-2.054306,6.7283545-4.2597656,9.5706816
		c-0.4030151,0.519371-0.6724701,0.1390858-0.9757996-0.093195c-1.7763519-1.3603001-3.5279999-2.7546139-5.3391113-4.0669384
		c-0.7183075-0.5204697-0.6553345-0.8478394-0.1091919-1.4620466c1.5674591-1.7628803,2.8856964-3.6969404,3.7774811-6.0769958
		c-2.5724182,0.1970119-4.9905853,0.3984365-7.4111633,0.5647984c-10.7585907,0.7394209-21.499321,1.821701-32.3157806,0.9718924
		c-6.6919632-0.5257635-13.3825607-1.0529213-20.0644226-1.69244c-0.3931198-0.0376253-0.9007416-0.2369938-1.1560135,0.0428095
		c-0.3374329,0.369853,0.065033,0.8249645,0.2207336,1.2047291c0.7995911,1.9502478,2.0776596,3.5827036,3.4878387,5.12358
		c0.3806,0.4158716,0.7852402,0.7979889,0.0745773,1.3490562c-1.7995071,1.3954124-3.5663376,2.8337154-5.3231735,4.282795
		c-0.4913635,0.4052773-0.7964478,0.3135414-1.1702042-0.1451874c-1.9160156-2.3515911-3.4110718-4.9275246-4.2069778-7.8697643
		C76.2963715,10.5971127,76.7586594,9.1439505,78.4226303,7.9673753z"></path>
</g>
</svg>
