<!--?xml version="1.0" encoding="utf-8"?-->
<!-- Generator: Adobe Illustrator 24.2.3, SVG Export Plug-In . SVG Version: 6.00 Build 0)  -->
<svg version="1.1" id="Camada_1" xmlns="http://www.w3.org/2000/svg" xmlns:xlink="http://www.w3.org/1999/xlink" x="0px" y="0px" viewBox="0 0 229 418" enable-background="new 0 0 229 418" xml:space="preserve">
<g onclick="select(this)" class="" id="estampa-primaria" fill="#71aad4">
	<path d="M43.184227,120.3591003c-0.1574593-1.9019699-0.2635918-3.8100281-0.4886246-5.7039795
		c-0.1797981-1.5132675-0.3913536-1.6106033-1.9219894-1.3255692c-1.0546684,0.1964035-2.1054993,0.4133453-3.1596031,0.6128845
		c-3.7236557,0.7048569-7.4897099,0.4062195-11.2349834,0.3948441c-6.4752865-0.0196609-12.9171953-0.5751572-19.2143612-2.1471405
		c-2.0026436-0.499939-4.0013113-1.0857773-5.9778385-1.7141418c1.020895-4.8060684,1.6644146-9.6716461,2.3388951-14.5333023
		c0.872649-6.2900543,1.9116194-12.5599365,2.6439087-18.8657761c0.7765994-6.6873932,1.853642-13.2944374,3.974463-19.697525
		c2.9442616-8.8891754,7.7607107-16.5268593,15.1724825-22.392849c1.1417255-0.9036102,1.9524097-2.1724854,3.2811241-2.8633461
		c3.6190052-1.8817024,7.2620258-3.7168369,11.0347271-5.271349c9.9860153-4.1146584,19.9939613-8.1792221,29.4552879-13.4397125
		c1.9744034-1.0977669,3.9967499-2.0936747,5.5144348-3.8991308c0.8429108-1.0027447,2.0579147-1.6459785,3.4937134-1.5504146
		c-1.6598358,0.9146581-2.0019836,2.3754401-1.6840515,4.0964561c0.3956909,2.1419916,1.0861511,4.1798086,2.3278809,5.9871454
		c5.9329224,8.6352997,14.296669,13.8952675,24.0654449,17.1269894c2.041748,0.6754532,4.1874008,1.1419945,6.5661926,0.9732132
		c-0.818985-1.2918892-1.7138596-2.3421478-2.6657181-3.3343887c-4.3846359-4.5706615-9.3081741-8.5244236-14.2901917-12.4103851
		c-2.5010681-1.9508305-4.6982346-4.208477-6.6866608-6.6749144c-0.9601822-1.1910152-1.7149582-2.4964218-2.3023758-3.9077702
		c-0.2885437-0.6932478-0.2463684-1.0194101,0.6452408-0.9307556c3.5362701,0.351614,7.0733414,0.7046528,10.6162415,0.9779987
		c7.921875,0.6111984,15.8302765,1.4430838,23.8044815,0.9912195c6.261795-0.3548279,12.5223312-0.704565,18.7725449-1.2287455
		c2.2623138-0.1897326,4.5277405-0.3423519,6.9600983-0.5245132c-0.3562012,0.7652731-0.6235199,1.4240294-0.9593048,2.0458479
		c-1.2259827,2.2702398-2.8836212,4.2098074-4.6701813,6.0531158c-2.8812408,2.9727859-6.3737335,5.2001953-9.5260773,7.842041
		c-3.523674,2.9530506-7.0875015,5.8638573-9.9547958,9.5003853c-0.3962326,0.5025253-0.8958893,0.9767723-0.9921494,1.7654648
		c1.0281219-0.1467667,1.9737854-0.0354576,2.9256516-0.2119141c5.0719757-0.9402618,9.6617355-3.0744553,14.078331-5.6319599
		c3.2989349-1.9103127,6.3558502-4.1792526,9.1010895-6.8097744c3.0965118-2.9671154,5.4707642-6.4256573,6.640976-10.6468983
		c0.6189423-2.2326078,0.0174561-4.2712574-1.6764832-4.7439165c1.9420471-0.3230171,3.1181183,0.8975677,4.2487946,2.1523972
		c0.3474121,0.3855724,0.6845703,0.7272234,1.1278381,1.02145c8.8714447,5.888566,18.7893372,9.6126204,28.526062,13.6821756
		c5.067276,2.1179237,10.0380096,4.4439087,15.0908356,6.5872955c0.2853851,0.121069,0.5596008,0.2832184,0.8128815,0.4630032
		c12.0054626,8.5214882,19.2169037,20.1563911,21.3936157,34.5978508
		c1.7050781,11.3124924,4.6848145,22.3671265,6.2290497,33.6951218c0.3612823,2.6502228,0.8081512,5.2887878,1.2156677,7.9327545
		c-0.4072723-0.0320892-0.7870331,0.0516357-1.1609039,0.2217789c-5.2508698,2.3895721-10.8408508,3.4043884-16.5039825,4.2465134
		c-4.9055786,0.7294693-9.8006744,1.3550644-14.7624969,1.0241394c-3.0189819-0.2013397-6.0679779-0.007515-9.0567627-0.6636734
		c-0.4004364-0.0879288-1.0440521-0.3493347-1.0703583,0.4709015c-0.0688629,2.1481247-0.9662018,4.2106934-0.6513672,6.3962173
		c-0.4419403,0.8073044-0.2948303,1.7095184-0.3963318,2.5679779c-0.9907074,8.3786392-1.7198181,16.7760849-1.745636,25.2220383
		c-0.0067291,2.2005463,0.0687408,4.3852692,0.5246124,6.5559692c0.4008789,1.9087372-0.0432281,3.8250885-0.2062225,5.7295837
		c-0.1811066,2.1162109-0.2468414,4.2292175-0.1479797,6.3477325c0.1008911,2.1623993-0.1498413,4.3116608-0.2017212,6.4661102
		c-0.0682373,2.8337555-0.1215973,5.6735077,0.1285095,8.5087433c0.1475983,1.6730652,0.0784607,3.3501434-0.098175,5.02742
		c-0.3134613,2.9759674,0.161026,5.8720398,0.824295,8.7793121c1.6766205,7.3491974,1.4777679,14.7560425,0.394516,22.1660767
		c-0.3131714,2.142395-0.3707123,4.2083435,0.3324127,6.3562622c1.789505,5.466568,1.8004761,11.0871277,0.9232635,16.7248077
		c-0.2115173,1.3592529-0.2436066,2.6841888,0.0700836,4.0361938c0.886261,3.8198547,0.4920807,7.7170715,0.6769562,11.5814056
		c0.2862549,5.9835815,0.6884613,11.9625854,1.4403229,17.9147034c0.2537231,2.008667,0.2185516,4.0574036,0.2538147,6.0889282
		c0.0314789,1.8131409-0.3387299,2.3127136-2.0966034,2.8403625c-2.9675903,0.8908081-6.046051,1.1467896-9.1074371,1.463501
		c-7.7273102,0.7994385-15.4857635,0.8745728-23.2448273,1.0192871
		c-11.2361755,0.2095642-22.4684143,0.6523743-33.7049484,0.8126526c-12.4795532,0.178009-24.9379959-0.848877-37.4192505-0.848999
		c-8.3984146-0.0000916-16.799118-0.1004944-25.1803284-0.7364502c-4.1492767-0.3148499-8.2854118-0.7527771-12.3534241-1.6774292
		c-0.2727928-0.0620117-0.5451469-0.1272583-0.8147545-0.2017212c-3.0011635-0.8287048-3.3434029-1.173645-3.1586952-4.2307129
		c0.4741859-7.848175,1.0208855-15.6920776,1.5688667-23.535553c0.1421928-2.0353699,0.2741928-4.0685883,0.2251472-6.1084442
		c-0.0433769-1.8041687,0.0425301-3.5978241,0.3647537-5.3743591c0.4024925-2.2190704,0.4543953-4.4303284,0.1269684-6.6729889
		c-0.3675308-2.5173645-0.1233711-5.0311584,0.42342-7.5046387c0.237915-1.0762024,0.1960411-2.1278687,0.1169281-3.2104492
		c-0.3260307-4.4614716-1.0035973-8.9028625-0.8237762-13.394516c0.1759071-4.393631,1.2030106-8.6131439,2.7054672-12.72258
		c0.3647614-0.9976807,0.5816841-1.9600372,0.4271965-3.0288544c-0.1776123-1.2288208-0.1682091-2.4718018,0.0631027-3.7023163
		c0.3129845-1.6650085,0.2037849-3.326767,0.1185341-5.0112915c-0.1672783-3.3053589-0.1792717-6.6202087-0.1929398-9.9314117
		c-0.0532684-12.9004364-0.0429573-25.8012695-0.1390572-38.7013397c-0.0387688-5.2046204-0.991291-10.3377228-1.5477562-15.5010147
		C43.6215096,122.9213791,43.7198563,121.5897675,43.184227,120.3591003z"></path>
</g>
<g onclick="select(this)" class="" id="estampa-secundaria" fill="#082890">
	<path fill-rule="evenodd" clip-rule="evenodd" d="M31.3700027,47.7303276h124.3015823l-0.4848175,0.4422722
		h15.483078l-0.1692657,0.2283134h25.1893005l-0.0613708,0.6729431l-25.6979218,0.0936623l-0.0961304,0.1318436
		l-15.9339447,0.0410614l-0.4337006,0.4012146H31.3699989L31.3700027,47.7303276z M151.2454376,52.7009087l0.4337006-0.4012108
		l15.9339447-0.0410614l0.0961304-0.1318436l25.6979218-0.0936661l0.1389465-0.1831474h2.0739136l0.0698853-0.3067818h-1.9110565
		l0.1388397-0.1830101h-25.6384583l0.1692657-0.2283134h-15.483078l0.4848175-0.442276l-121.855217-0.0013657l0.3600101,2.0113182
		L151.2454376,52.7009087z M149.0503845,55.6381798l0.4336853-0.4012108l15.93396-0.0410652l0.0961304-0.1318398
		l25.6979065-0.0936661l0.1389465-0.1831474h3.6539917l0.0599976-0.3067818h-3.4812469l0.1388397-0.1830101H166.084137
		l0.169281-0.2283134H150.77034l0.4848175-0.442276H32.1349983l0.0449982,2.0113106H149.0503845z M146.8514709,58.6146851
		l0.2958527-0.2794456h15.989212l0.1585693-0.2139587h25.6385956l0.1631622-0.1813622l5.7806396-0.000782l0.0112457-0.3049088
		h-5.5168762l0.1799622-0.2000313h-25.7475586l0.1672668-0.2257156h-15.6249084l0.64328-0.6050034H32.3150063l-0.0900078,2.0112076
		H146.8514709z M144.6472778,61.5724831l0.417572-0.393528h15.9809265l0.1311798-0.1807289h25.6632843l0.116806-0.1360893
		l7.9317017-0.0009956v-0.3046989h-7.669342l0.1959991-0.2283859h-25.7520142l0.2001495-0.2757568h-15.6173553l0.516571-0.491127
		H32.4050026l0.0900002,2.0113106H144.6472778z M142.4785461,64.4887009l0.417572-0.3935318h15.9809265l0.1311798-0.1807289
		h25.6632843l0.1167908-0.1360893l9.9359283-0.0011482l0.0254211-0.3045464h-9.6989899l0.1960144-0.2283859h-25.7520142
		l0.2001495-0.2757568h-15.6173553l0.5165558-0.491127H32.5400047l0.1799965,2.0113144H142.4785461z M140.2045288,67.45755
		l0.417572-0.3935318h15.9809265l0.1311798-0.1807251h25.6632843l0.1167908-0.1360931l12.0107269-0.0012817l0.0449982-0.3044052
		h-11.7933655l0.1960144-0.2283859h-25.7520142l0.2001495-0.2757645h-15.6173553l0.5165558-0.4911194H32.6749992
		l-0.045002,2.0113068H140.2045288z M137.9620972,70.4895706l0.417572-0.3935242h15.9809265l0.1311798-0.1807327h25.6632843
		l0.1167908-0.1360855l14.3581543-0.0014267l0.0449982-0.3042679h-14.1407928l0.1960144-0.2283859h-25.7520142l0.2001495-0.2757568
		h-15.6173553l0.5165558-0.491127h-107.58255l-0.0000076,2.0113068H137.9620972z M135.7512512,73.4268417l0.417572-0.3935318
		h15.9809265l0.1311798-0.1807251h25.6632843l0.1167908-0.1360931l16.4902496-0.0015259l0.0449982-0.3041611h-16.2728882
		l0.1960144-0.2283859h-25.7520142l0.2001495-0.2757645h-15.6173553l0.5165558-0.4911194H32.4500008l-0.090004,2.0113068
		H135.7512512z M133.5614624,76.3727646l0.417572-0.3935318h15.9809113l0.1311798-0.1807251h25.6632843l0.116806-0.1360931
		l18.353775-0.0016022l0.0450134-0.3040924h-18.1364288l0.1960144-0.2283783h-25.7520294l0.2001648-0.2757645h-15.6173553
		l0.5165558-0.4911194H32.6300049l0.3149986,2.0113068H133.5614624z M131.2874451,79.3626709l0.417572-0.3935242h15.9809265
		l0.1311646-0.1807327h25.6632843l0.116806-0.1360855l20.1529236-0.0016632l0.0903473-0.3040314h-19.9809113l0.1960144-0.2283859
		h-25.7520294l0.2001648-0.2757568h-15.6173553l0.5165558-0.491127H33.3050003l0.6750031,2.0113068H131.2874451z
		 M129.097641,82.2687302l0.4175873-0.3935318h15.9809113l0.1311798-0.1807251h25.6632843l0.116806-0.1360931l21.5126038-0.0016785
		l0.0899963-0.3040161h-21.3402405l0.1960144-0.2283859h-25.7520294l0.2001648-0.2757568h-15.6173553l0.5165558-0.491127H34.4750023
		l1.034996,2.0113144H129.097641z M127.0763016,85.132309l0.417572-0.3935318h15.9809189l0.1311798-0.1807327h25.6632843
		l0.116806-0.1360855l22.4839325-0.0016708l0.2100067-0.3040237h-22.4315796l0.1960144-0.2283859h-25.7520294l0.2001648-0.2757568
		h-15.6173553l0.5165558-0.491127H35.7350006l0.6749992,2.0113144H127.0763016z M124.654892,88.1643295l0.4175797-0.3935318
		h15.9809189l0.1311798-0.1807327h25.6632843l0.1167908-0.1360855l23.7053528-0.0016708l0.1800079-0.3040237h-23.6229858
		l0.1959991-0.2283859h-25.7520142l0.2001495-0.2757568h-15.6173477l0.5165558-0.491127H36.7249947l0.8549995,2.0113144H124.654892z
		 M122.4229889,91.1542358l0.417572-0.3935318h15.9809265l0.1311798-0.1807251h25.6632843l0.1167908-0.1360931L189.5,90.4422302
		l0.1199951-0.304039h-24.6248932l0.1960144-0.2283859h-25.7520142l0.2001495-0.2757568h-15.6173553l0.5165634-0.491127H37.8949966
		l0.8549995,2.0113144H122.4229889z M120.2542496,94.0809784l0.4175797-0.3935318h15.9809265l0.1311798-0.1807251h25.663269
		l0.116806-0.1360931l25.9609833-0.0016632l0.1200104-0.3040314h-25.818634l0.1960144-0.2283859h-25.7520294l0.2001648-0.2757568
		h-15.6173553l0.5165558-0.491127H38.8399963l0.6300049,2.0113144H120.2542496z M117.9802399,97.0498352l0.417572-0.3935318
		h15.9809265l0.1311798-0.1807327h25.6632843l0.1167908-0.1360855l27.5599976-0.0016937l0.0600128-0.3040009h-27.3576508
		l0.1960144-0.2283859h-25.7520294l0.2001648-0.2757568h-15.6173553l0.5165558-0.491127H39.6949959l0.4050064,2.0113144H117.9802399
		z"></path>
	<path fill-rule="evenodd" clip-rule="evenodd" d="M183.244812,132.0215607h-17.196228l-0.1270752,0.1303101
		h-15.9215851l-0.4914246,0.3407745H44.7894096l-0.1879654-1.5288696h107.1118317l-0.4780426,0.3315125h15.5215759
		l-0.2093506,0.2146759h16.7425842L183.244812,132.0215607z M183.1019287,133.7506714H164.362442l0.1910553-0.1959229h-15.5522461
		l0.4847565-0.3361511H44.8731918l0.1596718,1.5288696h102.2483521l0.4847565-0.3361511h15.95224l0.1453705-0.1490784h19.1989899
		L183.1019287,133.7506714z M182.9319,136.1038666h-20.8643494l0.1726074-0.1770325h-15.6447449l0.663147-0.4598389H45.0983315
		l0.1137505,1.5288544h99.8416901l0.306366-0.2124329h16.044754l0.1637878-0.1679688h21.3299408L182.9319,136.1038666z
		 M182.7984772,138.2973328h-22.8697662l0.2034607-0.2086334h-15.6389771l0.5381775-0.3731842H45.2518463l0.0500298,1.5288391
		h97.5247345l0.4312897-0.2990723h16.0389862l0.1329803-0.1363525h23.3409119L182.7984772,138.2973328z M182.6892395,140.4828186
		h-24.8913879l0.1782837-0.1828308h-15.6703339l0.4985046-0.3456879H45.3093452l0.0107651,1.5288544h95.2794342l0.4709625-0.3265839
		h16.0703583l0.1581268-0.1621552h25.3680573L182.6892395,140.4828186z M181.2882233,142.797821h-25.7477875l0.2070618-0.212326
		h-15.7086792l0.5381165-0.3731384H45.3249359l0.0094337,1.5288391h93.0378113l0.4313965-0.2991333h16.1086426l0.1293793-0.1326752
		h25.736084l0.1119995-0.1122284h1.6963806l0.0070496-0.2330627h-1.4708252L181.2882233,142.797821z M179.2132416,145.0783691
		h-25.8962402l0.1897278-0.1945801h-15.7671814l0.6101532-0.423111H45.3385315l0.0082397,1.5288696h90.7981567l0.359314-0.2491608
		h16.1672058l0.1466827-0.1504364h25.8845825l0.1150818-0.1153107l3.7090759,0.0000153l0.0049133-0.233078h-3.4814148
		L179.2132416,145.0783691z M176.9627075,147.2550507h-25.7685699l0.1400299-0.1436005h-15.7919159l0.5801849-0.4023132h-90.772049
		l0.0071831,1.5288696h88.5600815l0.3893127-0.2699585h16.191925l0.1963959-0.201416h25.756897l0.1390533-0.1393433
		l5.902298,0.0000153l0.0025482-0.2330627h-5.6722717L176.9627075,147.2550507z M174.5889893,149.6121216h-25.693222
		l0.1977692-0.2028351h-15.8495789l0.6513062-0.4516449H45.3607216l0.0062485,1.5288696h86.3235016l0.3181915-0.2206421h16.2496033
		l0.1386414-0.1421814h25.6815643l0.1387024-0.1389923l8.2954102,0.0000458l-0.0071564-0.233078h-8.0557098L174.5889893,149.6121216
		z M172.4790344,151.8008118h-25.5604095l0.167511-0.1717987h-16.0281067l0.6100769-0.4230499H45.3697205l0.0054588,1.5288544
		h84.0881348l0.3975983-0.2757111v0.0264893h16.3899384l0.1688995-0.1731873h25.5487518l0.1390686-0.1393738l10.5527649,0.0000458
		l-0.0236359-0.2330627h-10.2965698L172.4790344,151.8008118z M170.3074951,154.0043182h-25.6947937l0.186676-0.191452h-15.8754272
		l0.5168762-0.3584137H45.3775787l0.0048065,1.5288544h81.8536606l0.4526443-0.3138733h16.2754211l0.1497192-0.1535339h25.683136
		l0.1539612-0.1542816l13.046051,0.000061l-0.0465851-0.2330933h-12.766922L170.3074951,154.0043182z M168.1536407,156.1972046
		h-25.6789246l0.1981964-0.2032471h-15.8791504l0.419838-0.2911224H45.3845024l0.0042686,1.5288696h79.6200409l0.5496597-0.3811493
		h16.2791443l0.1382294-0.1417542h25.6672516l0.1096649-0.1098785l15.3993988,0.000061l0.0086975-0.233078h-15.1755676
		L168.1536407,156.1972046z M166.1391144,158.4461517h-25.6129608l0.1807098-0.185318h-16.1667175l0.4463959-0.3095398H45.3906784
		l0.0038757,1.5288696h77.3871994l0.6998901-0.4853363v0.1225739h16.3899384l0.1557007-0.1596527h25.6013184l0.1390991-0.139389
		l17.1714783,0.000061l0.0265656-0.2330627h-16.9655304L166.1391144,158.4461517z M163.545517,160.9014282h-25.5930634
		l0.2029877-0.2081604h-16.1080322l0.7117462-0.4935608h-77.352417v1.5288696h75.1476364l0.3758392-0.2606354v0.0818939h16.389946
		l0.1334229-0.1368256h25.5814209l0.1391144-0.1394043l19.5484314,0.0000763l0.0239105-0.2330627h-19.3398438
		L163.545517,160.9014282z M161.4682617,163.0007477h-25.4551086l0.1998749-0.2049713h-16.1826859l0.5013733-0.3476715H45.4067459
		l-0.0000038,1.5288544h72.9201965l0.6609039-0.4582977v0.1336975h16.3899231l0.1365204-0.1400146h25.4434662l0.1391144-0.1394196
		l21.5891266,0.0000916l-0.0044403-0.2330627H161.329361L161.4682617,163.0007477z M159.289032,165.2809906h-25.5915527
		l0.1839752-0.1886597h-16.1475677l0.5706635-0.3957062H45.4067459l0.0035057,1.5288391h70.6895142l0.5564651-0.3858643v0.1093292
		h16.3899231l0.1524506-0.1563416h25.5799103l0.1152496-0.1154938l23.7992706,0.0000916l0.0019684-0.2330933h-23.5687408
		L159.289032,165.2809906z M183.5079041,129.2314758h-14.7387238l0.1692963-0.1735992h-15.4829865l0.4847412-0.3361206H44.312027
		l0.1981926,1.5288544h107.2252197l0.4848022-0.3361664h15.8829498l0.1671295-0.171402h15.1863098L183.5079041,129.2314758z"></path>
	<g onclick="select(this)">
		<path fill-rule="evenodd" clip-rule="evenodd" d="M183.2228241,194.9864502H165.83461l-0.1671143,0.1368561
			h-15.8830872l-0.4846649,0.2683868H45.3335724l0.0647469-1.2208862h106.1061859l-0.4846954,0.2684021h15.4829559
			l-0.1693268,0.1386871h16.8013153L183.2228241,194.9864502z M183.5328064,196.3973694h-19.416687l0.2049561-0.1678467h-15.5187531
			l0.475235-0.2631531H45.3498802l0.1283531,1.220871h101.5945358l0.4941406-0.2736206h15.9188843l0.1314697-0.1076813h19.9985504
			L183.5328064,196.3973694z M183.8677673,198.1866455h-21.9410248l0.1910248-0.1564636H146.565567l0.4847107-0.2684021H45.5061188
			l-0.1475639,1.2208862h99.4869385l0.4846802-0.2683716h15.9523315l0.145401-0.1190948h22.5061035L183.8677673,198.1866455z
			 M184.141571,200.0615692h-24.5052948l0.1682281-0.1377716h-15.6434479l0.6617737-0.3664551H45.2054482l-0.4236374,1.220871
			h97.8362427l0.3075714-0.1703186h16.0435791l0.1682281-0.1377716h25.053772L184.141571,200.0615692z M183.2483368,201.8174744
			h-25.7552795l0.2034607-0.1666412h-15.6509552l0.5501099-0.3046265H44.5861435l-0.397213,1.2208862h96.2019501
			l0.4192505-0.2321625h16.0510864l0.1329651-0.108902h25.7436523l0.1040497-0.0832672h1.5165253l-0.0158081-0.1861115h-1.2681732
			L183.2483368,201.8174744z M180.962677,203.5627289h-25.5904236l0.1682281-0.1377716h-15.671402l0.4996338-0.2766571H44.0112991
			l-0.3473473,1.220871h94.4999847l0.4697266-0.2601166h16.0715179l0.1682434-0.1377869h25.5787506l0.1589203-0.127182
			l3.8606567,0.0000153l-0.0097198-0.1861267h-3.6183929L180.962677,203.5627289z M178.8524933,205.411377h-25.747818
			l0.2071228-0.169632h-15.7084808l0.5379486-0.2978973H43.5128365l-0.2938461,1.220871h92.7174988l0.4313965-0.2388763h16.1086273
			l0.129303-0.105896h25.7361755l0.1120911-0.0897064l6.0803833,0.0000153l-0.0033722-0.1861267h-5.8444672L178.8524933,205.411377z
			 M176.7775269,207.2324371h-25.9046326l0.1982117-0.1623383h-15.7544403l0.5973358-0.3307648H43.0938263l-0.2370148,1.2208862
			h90.8524017l0.3720245-0.2060089h16.1546021l0.1662903-0.1362152v0.022995h25.8648987l0.1150208-0.0920715l8.1541901,0.0000305
			l0.0024872-0.1860962h-7.9241638L176.7775269,207.2324371z M174.5269928,208.9691467h-25.7665863l0.1380463-0.1130371h-15.7919159
			l0.5801849-0.3212891H42.7591324l-0.1772041,1.2208862h88.9000244l0.3891602-0.2154999h16.1920471l0.1984253-0.1625061h25.7549133
			l0.1371155-0.109726l10.3351135,0.0000305l0.0073547-0.1860962h-10.1099701L174.5269928,208.9691467z M172.1533051,210.8532562
			h-25.6935883l0.1981659-0.1622925h-15.8496246l0.6513062-0.3606567H42.5132332l-0.1147385,1.2208862h86.8562775
			l0.3180695-0.1761322h16.2497406l0.1383057-0.113266h25.6819153l0.1390686-0.1112976l12.6037903,0.0000458l0.0124359-0.1861267
			h-12.3836975L172.1533051,210.8532562z M170.0433197,212.6097107h-25.571991l0.1791229-0.146698h-16.0270386l0.6089783-0.3372192
			H42.3594627l-0.0503731,1.2208862h84.7185211l0.397644-0.2201843v0.0206146h16.3899307l0.1573181-0.1288452h25.560318
			l0.1502075-0.120224l14.5629883,0.0000458l0.0167694-0.1861115h-14.347229L170.0433197,212.6097107z M167.8717804,214.3604126
			h-25.6908875l0.1828003-0.1497192h-15.8811951l0.522644-0.2894135H42.3090935l-0.0042877,1.2208557h82.495575l0.4466934-0.247345
			h16.2813492l0.1536407-0.125824h25.6792145l0.1540222-0.1232758l16.5523834,0.000061l0.0207367-0.1860962h-16.3406372
			L167.8717804,214.3604126z M165.7179108,216.1115875h-25.678894l0.1982117-0.1623383h-15.8791885l0.4198303-0.2324829H42.3187103
			l0.0502243,1.2208862h80.2041779l0.5495224-0.304306h16.2793121l0.1382141-0.1131897h25.6672516l0.1097107-0.0877991
			l18.531662,0.000061l0.0244293-0.1861267h-18.3236084L165.7179108,216.1115875z M163.7035217,217.9062195H138.09198
			l0.1791992-0.146759h-16.1666946l0.4463272-0.2471619H42.4011688l0.083744,1.2208862h77.8611145l0.5230255-0.2896271h16.5668411
			l0.1572418-0.1287689h25.599884l0.1375732-0.1101227l20.2817078,0.0000763l0.0218201-0.1860962h-20.0710907
			L163.7035217,217.9062195z M161.1098175,219.8681335h-25.5930481l0.2029419-0.166214h-16.1080322l0.7117538-0.3941345H42.5303116
			l0.1058578,1.2208862h75.4825058l0.2576065-0.1426544h16.5081482l0.1334839-0.109314h25.5814056l0.1391296-0.1113586
			l22.7507935,0.0000763l0.0017548-0.1860962h-22.5201111L161.1098175,219.8681335z M159.0325623,221.5445709h-25.4943695
			l0.1998749-0.1636963h-16.1267471l0.4846725-0.2683868H42.6901245l0.1165123,1.2208862h73.0845642l0.4847107-0.2684021h16.5268555
			l0.1365509-0.1118317h25.4827423l0.1391296-0.1113586l24.9309692,0.0000763l-0.023056-0.1860962H158.893631
			L159.0325623,221.5445709z M156.8533325,223.3654022h-25.5914612l0.1838531-0.1505737h-16.147522l0.5707321-0.31604H42.8611412
			l0.1155586,1.2208557h70.6874466l0.3986053-0.2207184h16.5476913l0.1525726-0.1249542h25.5798187l0.1152039-0.0922089
			l27.5400391,0.0000916l-0.0567017-0.1861267h-27.250885L156.8533325,223.3654022z"></path>
	</g>
	<g onclick="select(this)">
		<path d="M185.4080963,246.6985931l-19.4832916-0.0001221l-0.1673126,0.1028442h-15.8829346l-0.4848175,0.2015381
			H42.1099205l0.062664-0.9164734h109.4219131l-0.4845581,0.201416h15.4828339l-0.1694336,0.1041718h18.9426117
			L185.4080963,246.6985931z M156.9433289,268.002594h-25.6048584l0.1972504-0.1140137h-16.0523148l0.4755249-0.2372742H41.0153923
			l-0.0615845,0.9164734h73.1684113l0.3320999-0.1657104h16.1929932l0.1664429-0.0962219l25.6015625-0.0002747l0.1180878-0.067749
			l29.986908-0.0002136l-0.0116119-0.1378479h-29.734726L156.9433289,268.002594z M159.1225586,266.6375732h-24.8286133
			l0.3552856-0.1257324h-16.886055l0.4228134-0.2084351H41.1068039l-0.0622635,0.9165039h75.2822418l0.3947525-0.1945801h16.4767532
			l0.2366791-0.0837402l25.1881104-0.0002136l0.1394348-0.0847778l27.6368256-0.0002136l-0.0115814-0.1378479h-27.3983154
			L159.1225586,266.6375732z M161.1998138,265.3719177h-25.6010132l0.210907-0.1203308h-16.0040131l0.6077423-0.29599h-79.214325
			l-0.0628662,0.916626h77.3950195l0.2200317-0.1071777h16.158371l0.1537781-0.0877075h25.6264648l0.1323242-0.0792847
			l25.4746552-0.0002136l-0.0107727-0.1377563h-25.23349L161.1998138,265.3719177z M163.7935181,263.9042664h-25.620575
			l0.1882324-0.1108398h-16.105629l0.3852692-0.1855774H41.2921867l-0.0633659,0.9165344h79.509407l0.451561-0.2175293h16.2993622
			l0.1652374-0.09729h25.567749l0.1557312-0.0832214l22.8078308-0.0001526l-0.0099945-0.1379395h-22.5393524
			L163.7935181,263.9042664z M165.8079071,262.5570374H140.128006l0.1992188-0.122406h-15.8263245l0.3669739-0.1745911H41.3859062
			l-0.0637894,0.9164734h81.6194153l0.4802322-0.2284851h16.0700378l0.1392365-0.0855713h25.6016083l0.1254425-0.0665894
			l20.7342377-0.0001526l-0.0093079-0.1378784h-20.4649658L165.8079071,262.5570374z M167.9617767,261.2425842h-25.6959229
			l0.187851-0.1154785h-15.8165207l0.457962-0.2148743H41.4801559l-0.0641403,0.9165649h83.7255249l0.4013901-0.1882935h16.0757675
			l0.1506042-0.0926208h25.6174011l0.1755066-0.0931702l18.4421234-0.0001526l-0.008728-0.13797h-18.1732178
			L167.9617767,261.2425842z M170.1333313,259.9284363h-25.5800781l0.1871948-0.1104431h-15.9636841l0.545639-0.2536621H41.5747681
			l-0.0643921,0.9166565h85.8403168l0.3213501-0.1493835h16.1977997l0.1659546-0.0979004h25.5223389l0.1712494-0.0908813
			l16.1941071-0.0001221l-0.0082245-0.13797h-15.925705L170.1333313,259.9284363z M172.2433014,258.6096497h-25.6941376
			l0.1987152-0.1221313h-15.7867126l0.5883942-0.2709045H41.669632l-0.0645294,0.9165039h87.9536743l0.2871552-0.1322021h16.0667419
			l0.1396942-0.0858459h25.6158752l0.1584015-0.084137l14.0204926-0.0000916l-0.0077972-0.1379089h-13.7528381
			L172.2433014,258.6096497z M174.6170044,257.1943359h-25.7575989l0.1290436-0.0843506h-15.7422028l0.5304871-0.2412415H41.7646294
			l-0.0646057,0.9165649h90.0610199l0.3559723-0.1618652h16.0860901l0.1892548-0.1237183h25.6495514l0.1542053-0.0819092
			l11.5729828-0.000061l-0.007431-0.1378784h-11.3057861L174.6170044,257.1943359z M176.8675385,255.8918152h-25.892746
			l0.1863251-0.1174011l-15.7177734-0.0011597l0.5606537-0.2522125H41.8596001l-0.064579,0.9164886h92.1716995l0.335022-0.1507263
			l16.0442657,0.0011902l0.1439667-0.0906982h25.8025818l0.1315002-0.0698853l9.277832-0.000061l-0.0059662-0.1380615h-9.0118713
			L176.8675385,255.8918152z M178.9424896,254.5248871h-25.7489624l0.2082672-0.128006h-15.6741028l0.5035858-0.2237091H41.95298
			l-0.0630035,0.9166412h94.2777481l0.4040222-0.1794586h15.9947662l0.130249-0.0800629h25.6704559l0.1282501-0.0680695
			l7.1663055-0.000061l-0.0019989-0.138092h-6.9040985L178.9424896,254.5248871z M181.0526733,253.1371155h-25.6013031
			l0.1791077-0.1101074h-15.631546l0.4597778-0.2016449H42.0354195l-0.0543747,0.9165344h96.3877716l0.4594421-0.2014771h15.9671173
			l0.1592865-0.0979309h25.5228271l0.1811371-0.0961761l4.9961243-0.0000305v-0.13797h-4.7361908L181.0526733,253.1371155z
			 M183.3383331,251.8271179h-25.7521362l0.2003174-0.1257629H142.169281l0.5163879-0.2237091H42.0965614l-0.038765,0.9164886
			h98.5124512l0.4140015-0.1793671h15.984436l0.1311951-0.0823517h25.6632843l0.1192169-0.0632629l2.7722473-0.0000305
			l0.0001221-0.1380463h-2.5122833L183.3383331,251.8271179z M185.4747925,250.5083923h-25.7476349l0.1673431-0.1029053h-15.6249695
			l0.6432953-0.2757263H42.1261101l-0.0161896,0.9165649h100.664505l0.2972717-0.1274261h15.9878082l0.1601257-0.098465
			l25.6369781,0.0009766l0.1657867-0.0839539h0.6274261l-0.0016022-0.13797h-0.3533325L185.4747925,250.5083923z
			 M185.6080475,249.1012115h-23.5876923l0.1874237-0.1177216h-15.5423584l0.4748535-0.2015381H42.1099243l0.0173111,0.9165802
			h102.8533249l0.4748535-0.2015228h15.9347687l0.1430206-0.0898285l24.0870514,0.0000916L185.6080475,249.1012115z
			 M185.5222015,247.7587433h-21.3292389l0.2181091-0.1296844l-15.5088654,0.0005493l0.4653473-0.1954193H42.1128197
			l-0.0049515,0.9164581h105.0774078l0.4944153-0.2076416l15.8680267-0.0005798l0.1391449-0.0827332l21.8596802-0.0005188
			L185.5222015,247.7587433z"></path>
	</g>
</g>
<g onclick="select(this)" class="" id="gola-primaria" fill="#71aad4">
	<path d="M149.1920471,8.2665339c1.6939392,0.4726591,2.2954254,2.5113087,1.6764832,4.7439165
		c-1.1702118,4.221241-3.5444641,7.6797829-6.640976,10.6468983c-2.7452393,2.6305218-5.8021545,4.8994617-9.1010895,6.8097744
		c-4.4165955,2.5575047-9.0063553,4.6916981-14.078331,5.6319599c-0.9518661,0.1764565-1.8975296,0.0651474-2.9256516,0.2119141
		c0.0962601-0.7886925,0.5959167-1.2629395,0.9921494-1.7654648c2.8672943-3.636528,6.4311218-6.5473347,9.9547958-9.5003853
		c3.1523438-2.6418457,6.6448364-4.8692551,9.5260773-7.842041c1.7865601-1.8433084,3.4441986-3.782876,4.6701813-6.0531158
		c0.3357849-0.6218185,0.6031036-1.2805748,0.9593048-2.0458479c-2.4323578,0.1821613-4.6977844,0.3347807-6.9600983,0.5245132
		c-6.2502136,0.5241804-12.5107498,0.8739176-18.7725449,1.2287455c-7.974205,0.4518642-15.8826065-0.3800211-23.8044815-0.9912195
		c-3.5429001-0.2733459-7.0799713-0.6263847-10.6162415-0.9779987c-0.8916092-0.0886545-0.9337845,0.2375078-0.6452408,0.9307556
		c0.5874176,1.4113483,1.3421936,2.7167549,2.3023758,3.9077702c1.9884262,2.4664373,4.1855927,4.7240839,6.6866608,6.6749144
		c4.9820175,3.8859615,9.9055557,7.8397236,14.2901917,12.4103851c0.9518585,0.9922409,1.8467331,2.0424995,2.6657181,3.3343887
		c-2.3787918,0.1687813-4.5244446-0.29776-6.5661926-0.9732132c-9.7687759-3.2317219-18.1325226-8.4916897-24.0654449-17.1269894
		c-1.2417297-1.8073368-1.9321899-3.8451538-2.3278809-5.9871454c-0.3179321-1.7210159,0.0242157-3.181798,1.6840515-4.0964561
		c0.5143661-0.0252366,0.9027328-0.3090868,1.2522583-0.6413717c0.9263687-0.8806643,2.0001678-1.6612997,2.7273788-2.6858664
		c2.0422745-2.8773975,5.0196915-3.6030319,8.2393723-3.9380414c3.0733871-0.3197877,6.1406097,0.0641102,9.2117691,0.0276584
		c4.3972549-0.0521912,8.7969818,0.0443268,13.1928406-0.0513675c7.9100418-0.1721947,15.8178406,0.0474255,23.7266388,0.0363705
		c0.912384-0.0012754,1.8285217,0.1743852,2.7368927,0.3086998c2.2479095,0.3323816,4.1504211,1.1903371,5.5703125,3.1194048
		C145.9542999,5.7696943,147.367691,7.2616229,149.1920471,8.2665339z"></path>
</g>
<g onclick="select(this)" class="" id="detalhe-punho" fill="#082890">
	<path d="M0.24,114.41436c0.6107783-1.2420959,0.4154505-2.6777496,0.9468267-3.9383621
		c1.976527,0.6283646,3.9751949,1.2142029,5.9778385,1.7141418c6.2971659,1.5719833,12.7390747,2.1274796,19.2143612,2.1471405
		c3.7452736,0.0113754,7.5113277,0.3100128,11.2349834-0.3948441c1.0541039-0.1995392,2.1049347-0.416481,3.1596031-0.6128845
		c1.5306358-0.2850342,1.7421913-0.1876984,1.9219894,1.3255692c0.2250328,1.8939514,0.3311653,3.8020096,0.4886246,5.7039795
		c-0.9007339,0.7405167-2.0174828,0.9574585-3.1024132,1.1645813c-2.5106468,0.4793091-5.038868,0.7957077-7.609993,0.8197708
		c-6.994585,0.0654373-13.9775391,0.038559-20.892168-1.2381592c-3.0178013-0.5572052-6.0275316-1.1423187-8.9426279-2.1199341
		c-0.8160248-0.273674-1.598931-0.6459885-2.3970258-0.9730606C0.24,116.8129883,0.24,115.613678,0.24,114.41436z"></path>
	<path d="M184.6309204,120.0944595c-0.3148346-2.185524,0.5825043-4.2480927,0.6513672-6.3962173
		c0.0263062-0.8202362,0.6699219-0.5588303,1.0703583-0.4709015c2.9887848,0.6561584,6.0377808,0.4623337,9.0567627,0.6636734
		c4.9618225,0.330925,9.8569183-0.2946701,14.7624969-1.0241394c5.6631317-0.8421249,11.2531128-1.8569412,16.5039825-4.2465134
		c0.3738708-0.1701431,0.7536316-0.2538681,1.1609039-0.2217789c1.1353607,2.336441,1.1766968,4.8449707,1.0996246,7.3563385
		c-0.0221863,0.7228928-0.7844391,0.8354187-1.3140411,1.0370178c-2.8729095,1.0936127-5.8452148,1.8682861-8.8147736,2.6399994
		c-8.731369,2.2690582-17.6292267,2.7698975-26.595108,2.3430557c-2.0615845-0.0981522-4.1379395-0.3113708-6.1459808-0.8887787
		C185.5256805,120.7307129,184.9997711,120.5572357,184.6309204,120.0944595z"></path>
</g>
</svg>
