<!--?xml version="1.0" encoding="utf-8"?-->
<!-- Generator: Adobe Illustrator 24.2.3, SVG Export Plug-In . SVG Version: 6.00 Build 0)  -->
<svg version="1.1" id="Camada_1" xmlns="http://www.w3.org/2000/svg" xmlns:xlink="http://www.w3.org/1999/xlink" x="0px" y="0px" viewBox="0 0 229 418" enable-background="new 0 0 229 418" xml:space="preserve">
<g onclick="select(this)" class="" id="estampa-primaria" fill="#000000">
	<path d="M43.184227,120.3591003c-0.1574593-1.9019699-0.2635918-3.8100281-0.4886246-5.7039795
		c-0.1797981-1.5132675-0.3913536-1.6106033-1.9219894-1.3255692c-1.0546684,0.1964035-2.1054993,0.4133453-3.1596031,0.6128845
		c-3.7236557,0.7048569-7.4897099,0.4062195-11.2349834,0.3948441c-6.4752865-0.0196609-12.9171953-0.5751572-19.2143612-2.1471405
		c-2.0026436-0.499939-4.0013113-1.0857773-5.9778385-1.7141418c1.020895-4.8060684,1.6644146-9.6716461,2.3388951-14.5333023
		c0.872649-6.2900543,1.9116194-12.5599365,2.6439087-18.8657761c0.7765994-6.6873932,1.853642-13.2944374,3.974463-19.697525
		c2.9442616-8.8891754,7.7607107-16.5268593,15.1724825-22.392849c1.1417255-0.9036102,1.9524097-2.1724854,3.2811241-2.8633461
		c3.6190052-1.8817024,7.2620258-3.7168369,11.0347271-5.271349c9.9860153-4.1146584,19.9939613-8.1792221,29.4552879-13.4397125
		c1.9744034-1.0977669,3.9967499-2.0936747,5.5144348-3.8991308c0.8429108-1.0027447,2.0579147-1.6459785,3.4937134-1.5504146
		c-1.6598358,0.9146581-2.0019836,2.3754401-1.6840515,4.0964561c0.3956909,2.1419916,1.0861511,4.1798086,2.3278809,5.9871454
		c5.9329224,8.6352997,14.296669,13.8952675,24.0654449,17.1269894c2.041748,0.6754532,4.1874008,1.1419945,6.5661926,0.9732132
		c-0.818985-1.2918892-1.7138596-2.3421478-2.6657181-3.3343887c-4.3846359-4.5706615-9.3081741-8.5244236-14.2901917-12.4103851
		c-2.5010681-1.9508305-4.6982346-4.208477-6.6866608-6.6749144c-0.9601822-1.1910152-1.7149582-2.4964218-2.3023758-3.9077702
		c-0.2885437-0.6932478-0.2463684-1.0194101,0.6452408-0.9307556c3.5362701,0.351614,7.0733414,0.7046528,10.6162415,0.9779987
		c7.921875,0.6111984,15.8302765,1.4430838,23.8044815,0.9912195c6.261795-0.3548279,12.5223312-0.704565,18.7725449-1.2287455
		c2.2623138-0.1897326,4.5277405-0.3423519,6.9600983-0.5245132c-0.3562012,0.7652731-0.6235199,1.4240294-0.9593048,2.0458479
		c-1.2259827,2.2702398-2.8836212,4.2098074-4.6701813,6.0531158c-2.8812408,2.9727859-6.3737335,5.2001953-9.5260773,7.842041
		c-3.523674,2.9530506-7.0875015,5.8638573-9.9547958,9.5003853c-0.3962326,0.5025253-0.8958893,0.9767723-0.9921494,1.7654648
		c1.0281219-0.1467667,1.9737854-0.0354576,2.9256516-0.2119141c5.0719757-0.9402618,9.6617355-3.0744553,14.078331-5.6319599
		c3.2989349-1.9103127,6.3558502-4.1792526,9.1010895-6.8097744c3.0965118-2.9671154,5.4707642-6.4256573,6.640976-10.6468983
		c0.6189423-2.2326078,0.0174561-4.2712574-1.6764832-4.7439165c1.9420471-0.3230171,3.1181183,0.8975677,4.2487946,2.1523972
		c0.3474121,0.3855724,0.6845703,0.7272234,1.1278381,1.02145c8.8714447,5.888566,18.7893372,9.6126204,28.526062,13.6821756
		c5.067276,2.1179237,10.0380096,4.4439087,15.0908356,6.5872955c0.2853851,0.121069,0.5596008,0.2832184,0.8128815,0.4630032
		c12.0054626,8.5214882,19.2169037,20.1563911,21.3936157,34.5978508
		c1.7050781,11.3124924,4.6848145,22.3671265,6.2290497,33.6951218c0.3612823,2.6502228,0.8081512,5.2887878,1.2156677,7.9327545
		c-0.4072723-0.0320892-0.7870331,0.0516357-1.1609039,0.2217789c-5.2508698,2.3895721-10.8408508,3.4043884-16.5039825,4.2465134
		c-4.9055786,0.7294693-9.8006744,1.3550644-14.7624969,1.0241394c-3.0189819-0.2013397-6.0679779-0.007515-9.0567627-0.6636734
		c-0.4004364-0.0879288-1.0440521-0.3493347-1.0703583,0.4709015c-0.0688629,2.1481247-0.9662018,4.2106934-0.6513672,6.3962173
		c-0.4419403,0.8073044-0.2948303,1.7095184-0.3963318,2.5679779c-0.9907074,8.3786392-1.7198181,16.7760849-1.745636,25.2220383
		c-0.0067291,2.2005463,0.0687408,4.3852692,0.5246124,6.5559692c0.4008789,1.9087372-0.0432281,3.8250885-0.2062225,5.7295837
		c-0.1811066,2.1162109-0.2468414,4.2292175-0.1479797,6.3477325c0.1008911,2.1623993-0.1498413,4.3116608-0.2017212,6.4661102
		c-0.0682373,2.8337555-0.1215973,5.6735077,0.1285095,8.5087433c0.1475983,1.6730652,0.0784607,3.3501434-0.098175,5.02742
		c-0.3134613,2.9759674,0.161026,5.8720398,0.824295,8.7793121c1.6766205,7.3491974,1.4777679,14.7560425,0.394516,22.1660767
		c-0.3131714,2.142395-0.3707123,4.2083435,0.3324127,6.3562622c1.789505,5.466568,1.8004761,11.0871277,0.9232635,16.7248077
		c-0.2115173,1.3592529-0.2436066,2.6841888,0.0700836,4.0361938c0.886261,3.8198547,0.4920807,7.7170715,0.6769562,11.5814056
		c0.2862549,5.9835815,0.6884613,11.9625854,1.4403229,17.9147034c0.2537231,2.008667,0.2185516,4.0574036,0.2538147,6.0889282
		c0.0314789,1.8131409-0.3387299,2.3127136-2.0966034,2.8403625c-2.9675903,0.8908081-6.046051,1.1467896-9.1074371,1.463501
		c-7.7273102,0.7994385-15.4857635,0.8745728-23.2448273,1.0192871
		c-11.2361755,0.2095642-22.4684143,0.6523743-33.7049484,0.8126526c-12.4795532,0.178009-24.9379959-0.848877-37.4192505-0.848999
		c-8.3984146-0.0000916-16.799118-0.1004944-25.1803284-0.7364502c-4.1492767-0.3148499-8.2854118-0.7527771-12.3534241-1.6774292
		c-0.2727928-0.0620117-0.5451469-0.1272583-0.8147545-0.2017212c-3.0011635-0.8287048-3.3434029-1.173645-3.1586952-4.2307129
		c0.4741859-7.848175,1.0208855-15.6920776,1.5688667-23.535553c0.1421928-2.0353699,0.2741928-4.0685883,0.2251472-6.1084442
		c-0.0433769-1.8041687,0.0425301-3.5978241,0.3647537-5.3743591c0.4024925-2.2190704,0.4543953-4.4303284,0.1269684-6.6729889
		c-0.3675308-2.5173645-0.1233711-5.0311584,0.42342-7.5046387c0.237915-1.0762024,0.1960411-2.1278687,0.1169281-3.2104492
		c-0.3260307-4.4614716-1.0035973-8.9028625-0.8237762-13.394516c0.1759071-4.393631,1.2030106-8.6131439,2.7054672-12.72258
		c0.3647614-0.9976807,0.5816841-1.9600372,0.4271965-3.0288544c-0.1776123-1.2288208-0.1682091-2.4718018,0.0631027-3.7023163
		c0.3129845-1.6650085,0.2037849-3.326767,0.1185341-5.0112915c-0.1672783-3.3053589-0.1792717-6.6202087-0.1929398-9.9314117
		c-0.0532684-12.9004364-0.0429573-25.8012695-0.1390572-38.7013397c-0.0387688-5.2046204-0.991291-10.3377228-1.5477562-15.5010147
		C43.6215096,122.9213791,43.7198563,121.5897675,43.184227,120.3591003z"></path>
</g>
<g onclick="select(this)" class="" id="gola-primaria" fill="#000000">
	<path d="M149.1920471,8.2665339c1.6939392,0.4726591,2.2954254,2.5113087,1.6764832,4.7439165
		c-1.1702118,4.221241-3.5444641,7.6797829-6.640976,10.6468983c-2.7452393,2.6305218-5.8021545,4.8994617-9.1010895,6.8097744
		c-4.4165955,2.5575047-9.0063553,4.6916981-14.078331,5.6319599c-0.9518661,0.1764565-1.8975296,0.0651474-2.9256516,0.2119141
		c0.0962601-0.7886925,0.5959167-1.2629395,0.9921494-1.7654648c2.8672943-3.636528,6.4311218-6.5473347,9.9547958-9.5003853
		c3.1523438-2.6418457,6.6448364-4.8692551,9.5260773-7.842041c1.7865601-1.8433084,3.4441986-3.782876,4.6701813-6.0531158
		c0.3357849-0.6218185,0.6031036-1.2805748,0.9593048-2.0458479c-2.4323578,0.1821613-4.6977844,0.3347807-6.9600983,0.5245132
		c-6.2502136,0.5241804-12.5107498,0.8739176-18.7725449,1.2287455c-7.974205,0.4518642-15.8826065-0.3800211-23.8044815-0.9912195
		c-3.5429001-0.2733459-7.0799713-0.6263847-10.6162415-0.9779987c-0.8916092-0.0886545-0.9337845,0.2375078-0.6452408,0.9307556
		c0.5874176,1.4113483,1.3421936,2.7167549,2.3023758,3.9077702c1.9884262,2.4664373,4.1855927,4.7240839,6.6866608,6.6749144
		c4.9820175,3.8859615,9.9055557,7.8397236,14.2901917,12.4103851c0.9518585,0.9922409,1.8467331,2.0424995,2.6657181,3.3343887
		c-2.3787918,0.1687813-4.5244446-0.29776-6.5661926-0.9732132c-9.7687759-3.2317219-18.1325226-8.4916897-24.0654449-17.1269894
		c-1.2417297-1.8073368-1.9321899-3.8451538-2.3278809-5.9871454c-0.3179321-1.7210159,0.0242157-3.181798,1.6840515-4.0964561
		c0.5143661-0.0252366,0.9027328-0.3090868,1.2522583-0.6413717c0.9263687-0.8806643,2.0001678-1.6612997,2.7273788-2.6858664
		c2.0422745-2.8773975,5.0196915-3.6030319,8.2393723-3.9380414c3.0733871-0.3197877,6.1406097,0.0641102,9.2117691,0.0276584
		c4.3972549-0.0521912,8.7969818,0.0443268,13.1928406-0.0513675c7.9100418-0.1721947,15.8178406,0.0474255,23.7266388,0.0363705
		c0.912384-0.0012754,1.8285217,0.1743852,2.7368927,0.3086998c2.2479095,0.3323816,4.1504211,1.1903371,5.5703125,3.1194048
		C145.9542999,5.7696943,147.367691,7.2616229,149.1920471,8.2665339z"></path>
</g>
<g onclick="select(this)" class="" id="detalhe-punho" fill="#bf0811">
	<path d="M0.24,114.41436c0.6107783-1.2420959,0.4154505-2.6777496,0.9468267-3.9383621
		c1.976527,0.6283646,3.9751949,1.2142029,5.9778385,1.7141418c6.2971659,1.5719833,12.7390747,2.1274796,19.2143612,2.1471405
		c3.7452736,0.0113754,7.5113277,0.3100128,11.2349834-0.3948441c1.0541039-0.1995392,2.1049347-0.416481,3.1596031-0.6128845
		c1.5306358-0.2850342,1.7421913-0.1876984,1.9219894,1.3255692c0.2250328,1.8939514,0.3311653,3.8020096,0.4886246,5.7039795
		c-0.9007339,0.7405167-2.0174828,0.9574585-3.1024132,1.1645813c-2.5106468,0.4793091-5.038868,0.7957077-7.609993,0.8197708
		c-6.994585,0.0654373-13.9775391,0.038559-20.892168-1.2381592c-3.0178013-0.5572052-6.0275316-1.1423187-8.9426279-2.1199341
		c-0.8160248-0.273674-1.598931-0.6459885-2.3970258-0.9730606C0.24,116.8129883,0.24,115.613678,0.24,114.41436z"></path>
	<path d="M184.6309204,120.0944595c-0.3148346-2.185524,0.5825043-4.2480927,0.6513672-6.3962173
		c0.0263062-0.8202362,0.6699219-0.5588303,1.0703583-0.4709015c2.9887848,0.6561584,6.0377808,0.4623337,9.0567627,0.6636734
		c4.9618225,0.330925,9.8569183-0.2946701,14.7624969-1.0241394c5.6631317-0.8421249,11.2531128-1.8569412,16.5039825-4.2465134
		c0.3738708-0.1701431,0.7536316-0.2538681,1.1609039-0.2217789c1.1353607,2.336441,1.1766968,4.8449707,1.0996246,7.3563385
		c-0.0221863,0.7228928-0.7844391,0.8354187-1.3140411,1.0370178c-2.8729095,1.0936127-5.8452148,1.8682861-8.8147736,2.6399994
		c-8.731369,2.2690582-17.6292267,2.7698975-26.595108,2.3430557c-2.0615845-0.0981522-4.1379395-0.3113708-6.1459808-0.8887787
		C185.5256805,120.7307129,184.9997711,120.5572357,184.6309204,120.0944595z"></path>
</g>
<g onclick="select(this)" class="" id="estampa-secundaria" fill="#bf0811">
	<path d="M33.2611732,76.2480392l54.8586006,20.5217896L75.2108459,80.2122879l38.2298126,17.9026718
		l38.1721954-17.8728256l-12.6437378,16.4233093l55.4616547-20.3622971l0.4098511-10.902771l-44.0235596,23.2184219
		l13.4629364-20.0137177l-50.8393402,29.0982742L62.7574997,68.4573288l13.3874969,20.1825027L32.8139229,65.8985291
		l-0.2101517,5.4913025L33.2611732,76.2480392z"></path>
	<path d="M180.2601013,52.3069191c-0.3898621,1.1358795-1.2665863,1.9611435-1.9211578,2.9214592
		c-1.4557037,2.1356354-3.0381317,4.1847229-4.5580444,6.2769661c-2.0950012,2.8838768-4.1790161,5.7757225-6.2695465,8.662838
		c-2.1371918,2.9515533-4.2771149,5.9011459-6.4111633,8.8549805c-0.0389862,0.0539703-0.0193787,0.1502304-0.0485382,0.439209
		c3.0228271-1.7491684,5.6743164-3.8312454,8.4966583-5.6446686c2.8976898-1.8618469,5.6950226-3.8796463,8.5378265-5.8269577
		c2.8102875-1.9250641,5.6204224-3.8503876,8.4344635-5.7699738c2.8091583-1.9162445,5.6230621-3.8255081,8.5800934-5.8365784
		c-0.0336609,2.206562,0.0278015,4.253643-0.2009888,6.293869c-0.0532074,0.4746132-0.4234772,0.6981468-0.8319244,0.9186401
		c-2.7245483,1.4708099-5.4328156,2.9716873-8.1479187,4.4599915c-4.121521,2.2592316-8.2475891,4.5102386-12.3655243,6.7760696
		c-3.019928,1.6616898-6.0305634,3.340332-9.0440674,5.0136871c-2.7384186,1.5205917-5.4743195,3.0456772-8.216095,4.5601807
		c-0.0904388,0.0499573-0.2326355,0.0063324-0.5367126,0.0063324c3.7792969-6.3084488,7.5037079-12.5252457,11.2681274-18.8088608
		c-0.7346344-0.1974564-1.1162262,0.184166-1.4916077,0.3924789c-3.0474243,1.6910858-6.070282,3.4264526-9.0975647,5.1536636
		c-3.4003296,1.9400482-6.7916718,3.8959503-10.1978607,5.825592c-2.6909637,1.524437-5.4085388,3.0020523-8.096405,4.5318604
		c-3.9462128,2.2460022-7.9013062,4.4770889-11.8503036,6.7175751c-2.8250732,1.6028137-5.6368484,3.2357254-8.5071869,4.7605743
		c-1.1004562,0.5846024-2.1023331,1.3511429-3.2874756,1.7796249c-0.0456161-0.0629196-0.0985336-0.1189423-0.1587601-0.1680679
		c1.8180466-1.4193115,3.8242111-2.5625153,5.7477646-3.8209381c2.5159454-1.6459808,5.0505219-3.2672195,7.5763245-4.9004288
		c4.9536209-3.2030945,9.9173813-6.3905487,14.8693008-9.5962524c4.2632904-2.7599106,8.533905-5.5086365,12.7937622-8.2738037
		c4.029892-2.6158981,8.0734253-5.2120895,12.107193-7.8229408c3.9034424-2.5265083,7.8618164-4.9681473,11.7044983-7.5886765
		c0.2870941-0.1957779,0.6364136-0.300396,0.9568024-0.4473915
		C180.1419983,52.2079697,180.1973572,52.2612839,180.2601013,52.3069191z M167.248764,65.2984619
		c-0.0261536-0.0655746-0.0409698-0.1741714-0.077713-0.1821594c-0.1313171-0.0285339-0.170639,0.0892181-0.1776886,0.1846619
		c-0.0033569,0.0456314,0.0736084,0.0971832,0.1141815,0.1460495
		C167.1548309,65.3972549,167.2021332,65.3475037,167.248764,65.2984619z"></path>
	<g onclick="select(this)">
		<path d="M112.0632095,94.5259933c-1.1036453-0.3232803-2.0360794-1.0050125-3.0088577-1.5622025
			c-2.2416-1.2839127-4.499855-2.5380096-6.7458954-3.8139038c-2.6886749-1.527359-5.3252487-3.1500778-8.050148-4.6087952
			c-2.1063004-1.1275635-4.1608963-2.3427887-6.2518768-3.4949799c-2.8798141-1.5868607-5.7098846-3.2636642-8.5710831-4.8846283
			c-2.0777359-1.1770935-4.1777649-2.314888-6.2564392-3.4903717c-2.8963242-1.6378708-5.7558365-3.3429718-8.6829605-4.9233627
			c-1.5289192-0.8255005-2.9697762-1.8287506-4.7180977-2.3665466c3.7681122,6.2828751,7.5362206,12.5657501,11.3368416,18.9028473
			c-0.6235046,0.2407227-0.999054-0.1713562-1.3474121-0.3725739c-2.2737045-1.3132477-4.6072006-2.5173187-6.8906822-3.8101425
			c-3.3736649-1.9100494-6.7923584-3.7384567-10.1694489-5.6426849c-2.0798569-1.1727676-4.1932068-2.2966232-6.2888794-3.4465179
			c-3.4320602-1.8831711-6.9050674-3.6931076-10.269001-5.6996613c-0.5040398-0.3006516-1.0370712-0.5663223-1.5834732-0.7796707
			c-1.16716-0.455719-1.9178352-1.2281151-1.944664-2.5215416c-0.0335922-1.6192055-0.0080833-3.2396393-0.0080833-5.1070518
			c11.0961113,7.5555267,22.021389,14.9947281,32.9466667,22.4339371c0.0922318-0.0958557,0.1844635-0.1917114,0.2766953-0.2875595
			c-6.5082664-9.0170822-13.0165329-18.0341606-19.5222473-27.0477104c0.3650475-0.3746223,0.5019569,0.0090446,0.7045097,0.1419601
			c4.8084946,3.155407,9.6656036,6.235733,14.4794846,9.3834152c4.0263252,2.6327171,8.0745659,5.2346153,12.1238213,7.8331871
			c5.2351761,3.3595963,10.4549713,6.7420578,15.6711426,10.1308975c3.8379364,2.493454,7.6985931,4.9523621,11.5294113,7.4579544
			c3.6978607,2.4186325,7.4463425,4.7599411,11.1695175,7.1400299c0.0955429,0.0610733,0.1553574,0.178009,0.231842,0.2688828
			C112.1627274,94.4074783,112.1091614,94.4630814,112.0632095,94.5259933z M65.990715,79.3575363
			c-0.08461-0.0585327-0.1499023-0.0381851-0.1618576,0.0649719c-0.0142288,0.1227722,0.0455246,0.206871,0.178421,0.1773834
			c0.0591812-0.0131454,0.1070786-0.0771332,0.1600952-0.1180344C66.1088104,79.4399643,66.0502548,79.3980713,65.990715,79.3575363
			z"></path>
	</g>
</g>
<g onclick="select(this)" class="" id="estampa-terciaria" fill="#343434">
	<path d="M95.0391235,87.2702484c0.522934,0.1030807,0.960762,0.357193,1.3233566,0.7448273
		c0.2711411,0.7083664,0.0081253,1.4553452,0.1572037,2.1725388c-0.0132904,0.5184021-0.0382156,1.0367966-0.0382309,1.555191
		c-0.0017395,64.1647568-0.0016251,128.3294983-0.0022964,192.4942627
		c-0.0000076,0.4792786-0.0097046,0.9585266-0.0148773,1.4378357c-0.5545349,0.1307068-1.106842,0.105957-1.6578598-0.0235291
		c-0.0022812-0.1597595-0.0061951-0.3195496-0.0061951-0.4794006
		c-0.0001831-64.8358917-0.0000076-129.6717682-0.0016632-194.5076599
		c-0.0000076-0.4787216-0.0249405-0.9574432-0.0382309-1.4361649C94.963913,88.5912628,94.5148849,87.8615417,95.0391235,87.2702484
		z"></path>
	<path d="M125.040329,91.1865845c0.5116119-0.2094116,0.866684-0.7009888,1.440567-0.798111
		c0.5141602,0.4132233,0.0808945,1.0049057,0.2786484,1.4777222c-0.0132294,0.5186005-0.038063,1.0372009-0.0380707,1.5557938
		c-0.0017624,53.7511063-0.0012894,107.5021896-0.0019531,161.2532959
		c-0.0001144,10.4702759-0.0041428,20.9405518-0.0063705,31.4107666c-0.5512924,0.1188965-1.1046371,0.13797-1.6608429,0.0341797
		c-0.0042725-0.3994446-0.0116425-0.7990417-0.0116425-1.1985779c-0.0005112-63.5131989-0.0003815-127.0263824-0.002121-190.5395813
		c0-0.5186615-0.0249329-1.0373154-0.0382385-1.5559769C125.013649,92.2796021,125.0270004,91.7330933,125.040329,91.1865845z"></path>
	<path d="M100.5590591,90.3884888c0.4802017,0.2660446,0.9604111,0.5320892,1.4406204,0.7981339
		c0.0133362,0.5464935,0.02668,1.0929794,0.0400085,1.6394806c-0.0133057,0.5186386-0.0382233,1.0372772-0.0382309,1.5559158
		c-0.0017471,63.3509369-0.0016327,126.7019043-0.0019989,190.0528564c-0.0000076,0.4795532-0.005188,0.959137-0.0079498,1.4386597
		c-0.5567627,0.0808105-1.1118774,0.0814819-1.6649551-0.0342712c-0.0032501-0.0397644-0.0086288-0.0796509-0.0086288-0.1195068
		c0.0005188-64.0991211,0.001503-128.1982727,0.0006332-192.2973938c-0.0000076-0.5185699-0.0249329-1.0371552-0.0382309-1.5557251
		C100.4783707,91.3937149,100.0449524,90.8018646,100.5590591,90.3884888z"></path>
	<path d="M119.4803314,94.5064468c0.4374847-0.4161377,0.9683456-0.6941452,1.4805603-0.9997559
		c0.44841,0.2335205,0.12603,0.6820068,0.278656,0.9980164c-0.0132523,0.4786148-0.0381012,0.9572296-0.0381088,1.4358444
		c-0.0017319,62.9482422-0.0016174,125.8964996-0.0020599,188.8447571c0,0.4794617-0.0061951,0.9589844-0.0094986,1.4384766
		c-0.5378265,0.2793274-1.0968704,0.1601868-1.6539459,0.0879822c-0.0065155-0.1193237-0.0177689-0.2387695-0.0177689-0.3582153
		c0.0001755-62.9777679,0.0012054-125.9555206,0.0003891-188.9332886c-0.0000076-0.5185623-0.0249405-1.0371094-0.0382309-1.5556641
		C119.4803314,95.1452179,119.4803314,94.8258286,119.4803314,94.5064468z"></path>
	<path d="M105.8795395,93.5472336c0.6968536,0.0803833,1.1554108,0.5776901,1.6801453,0.9592056
		c0,0.3193893,0,0.6387711,0,0.9581604c-0.013298,0.5186462-0.0382156,1.0372925-0.0382309,1.5559464
		c-0.0017471,62.6310349-0.0016403,125.2620773-0.0022583,187.8931274
		c-0.0000076,0.3995056-0.0088272,0.7989502-0.0135345,1.1984558c-0.5574799,0.0689087-1.1140823,0.1130676-1.6636505-0.0588989
		c-0.0010071-0.4391785-0.0017395-0.8783264-0.0017395-1.3175049
		c-0.0000534-63.0115662,0.0000229-126.0231476-0.0017014-189.0347137
		c-0.0000153-0.3986282-0.0249481-0.7972565-0.0382462-1.1958771
		C105.8267288,94.1858292,105.8531265,93.8665314,105.8795395,93.5472336z"></path>
	<path d="M116.8403244,95.9456177c0.3246384-0.3983536,0.8670959-0.4414063,1.2407684-0.7597656
		c0.3552094-0.0092697,0.5268478,0.1648254,0.5186005,0.5185928c-0.0132904,0.5185776-0.0382156,1.0371628-0.0382385,1.555748
		c-0.0026703,63.0201111-0.0035172,126.0402374-0.0044403,189.0603333c-0.5551376,0.1256409-1.112381,0.0953674-1.6705017,0.022644
		c-0.0022964-0.2796021-0.0060349-0.5593262-0.0060349-0.8390503
		c-0.0002518-62.4281158-0.0001755-124.8562164-0.0019226-187.2843323
		c-0.0000153-0.5186234-0.0249405-1.0372467-0.0382385-1.5558701
		C116.8403244,96.4244766,116.8403244,96.185051,116.8403244,95.9456177z"></path>
	<path d="M108.719101,95.1857376c0.5833054,0.0801315,0.9950714,0.4695358,1.440567,0.798111
		c0.0133438,0.2266846,0.02668,0.4533768,0.0400162,0.6800613c-0.0132904,0.5187607-0.0382156,1.0375137-0.0382309,1.556282
		c-0.0017395,62.1635056-0.0016098,124.3270187-0.0024109,186.4905396
		c-0.0000076,0.5191345-0.0114212,1.0382996-0.0175095,1.5574341c-0.5662231,0.1427002-1.1220856,0.153717-1.654953-0.1298218
		c-0.002739-0.1197815-0.007576-0.239624-0.007576-0.3594666c0.0001907-62.879425,0.0007782-125.7588043-0.0004578-188.6382141
		c-0.0000076-0.4787369-0.0249329-0.9574814-0.0382309-1.4362183
		C108.5006943,95.5140686,108.4364624,95.2567978,108.719101,95.1857376z"></path>
	<path d="M113.9602966,97.6246338c0.4806366-0.4586945,1.1412888-0.602417,1.6801682-0.9591904
		c0.0263672,0.1592636,0.0527344,0.3185196,0.0791016,0.4777832c-0.0132523,0.5186234-0.0381012,1.0372467-0.0381165,1.5558701
		c-0.0023956,62.5482788-0.0029449,125.0965729-0.0035934,187.6448669
		c-0.5584106,0.0840454-1.1167984,0.0847473-1.6754074-0.0004272c-0.0009079-62.3079987-0.0014801-124.6161041-0.003891-186.9241943
		c-0.0000153-0.5186234-0.0250015-1.0372467-0.0383224-1.5558701
		C113.9602585,97.7838516,113.9602814,97.7042465,113.9602966,97.6246338z"></path>
	<path d="M111.399559,96.6654282c0.4981842,0.3293304,1.122673,0.4554596,1.5214615,0.9446869
		c0.052887,0.1643219,0.1057892,0.3286438,0.1586838,0.4929581c-0.0133057,0.5186234-0.0382385,1.0372391-0.0382462,1.5558624
		c-0.0017471,61.8283081-0.0016403,123.6566162-0.0020065,185.4849243c0,0.3995972-0.0050278,0.7991943-0.0077057,1.1987915
		c-0.5563126,0.0733032-1.1119308,0.104187-1.6649246-0.0269775c-0.0022049-0.43927-0.00634-0.878479-0.00634-1.317749
		c-0.0002899-62.2195282-0.0001907-124.4390564-0.001915-186.6585999c-0.0000153-0.3986816-0.0248795-0.7973709-0.0381393-1.1960602
		C111.3468094,96.9839935,111.3731918,96.8247147,111.399559,96.6654282z"></path>
	<path d="M147.0803223,78.4356689c0.3245087-0.3984528,0.8671875-0.4411697,1.2405701-0.7599106
		c0.3888855,0.1869202,0.223175,0.5439148,0.2319641,0.8284302c0.0313873,1.0155716,0.0335693,2.0320435,0.046814,3.048172
		c-0.0648346,0.8798904-0.0649719,1.7597885,0.0001373,2.6396866c-0.0657196,2.9579697-0.0655365,5.9159393-0.0001221,8.873909
		c-0.0132904,0.518425-0.0381927,1.0368576-0.038208,1.5552826c-0.00177,63.1265182-0.0016327,126.2530441-0.0020142,189.3795471
		c0,0.5193176-0.0050659,1.0386658-0.007782,1.5579529c-0.4684296,0.1685486-0.9409332,0.1388855-1.4151001,0.0290527
		c-0.0065002-0.1193848-0.018692-0.2387085-0.018692-0.3580933c0.0001984-63.2961578,0.001358-126.5923462,0.0006561-189.888504
		c-0.0000153-0.5185471-0.0249329-1.0370941-0.0382233-1.5556412c0.0653076-2.4780884,0.0653229-4.9561768,0-7.4342651
		c0.0649414-1.3596268,0.0650635-2.7192459-0.0001068-4.0788651
		C147.1458435,80.9935074,147.1455688,79.714592,147.0803223,78.4356689z"></path>
	<path d="M78.5195313,77.7163239c0.5582199,0.0835876,1.0163498,0.3672256,1.4400253,0.7197266
		c-0.0649338,1.2787857-0.0655212,2.5575714,0.0002213,3.8363495c-0.0652008,1.359642-0.0650558,2.7192917-0.0001144,4.0789413
		c-0.0652847,2.4780655-0.0653152,4.9561462,0.0000229,7.4342117c-0.013298,0.4787292-0.0382233,0.9574585-0.0382385,1.4361877
		c-0.0017471,62.9606171-0.0016251,125.9212189-0.0021133,188.8818359
		c-0.0000076,0.4396057-0.0070343,0.8792114-0.0107956,1.3188171c-0.4746857,0.1273804-0.9482117,0.110199-1.4210968-0.011261
		c-0.002533-0.2397156-0.006958-0.4794617-0.006958-0.7192383c-0.0002899-63.3965759-0.0001984-126.7931824-0.0019226-190.1897583
		c-0.0000153-0.4787292-0.0249405-0.9574509-0.0382309-1.4361801c0.0654144-2.9579468,0.0655899-5.9159012-0.0001068-8.873848
		c0.0650864-0.879837,0.065033-1.7596664,0.0000458-2.6395035C78.4666901,80.2738419,78.4931107,78.9950867,78.5195313,77.7163239z"></path>
	<path d="M81.3591614,79.3547821c0.4565125,0.065094,0.8134613,0.3440323,1.2005234,0.5582962
		c0.0133514,1.266098,0.0267029,2.5321884,0.0400543,3.7982864c-0.0662537,1.9993973-0.0658188,3.9987946-0.0001831,5.9981995
		c-0.0654602,1.6784821-0.0656815,3.3569641,0.0001297,5.0354385c-0.0132904,0.4785156-0.0382309,0.9570313-0.0382385,1.4355469
		c-0.0017471,62.6523972-0.0016174,125.3047867-0.0021744,187.9571838
		c-0.0000076,0.4394226-0.0080719,0.8787842-0.0123749,1.3182068c-0.4776459,0.3139038-0.9453964,0.0953979-1.4150696-0.0262451
		c-0.0039597-0.4395447-0.0111389-0.8791809-0.0111465-1.3187866c-0.0004959-62.8032684-0.0003891-125.6064911-0.0021133-188.409729
		c-0.0000076-0.4787598-0.0248642-0.9575272-0.0381165-1.4362793c0.0651093-2.2382355,0.0653992-4.4764709-0.0002289-6.7146988
		c0.0653458-1.5994263,0.0652618-3.1988449,0.0000458-4.7982712c0.0132523-0.7401733-0.0033035-1.4825745,0.051796-2.2196274
		C81.161499,80.138588,80.895195,79.6689835,81.3591614,79.3547821z"></path>
	<path d="M141.6003418,81.5920792c0.499115-0.1926956,0.8362274-0.684494,1.4001465-0.7575226
		c0.0263977,1.1187668,0.0527954,2.2375336,0.0791779,3.3563004c-0.065567,2.3190765-0.0657196,4.6381607,0.0000916,6.9572449
		c-0.0649109,1.3587112-0.0645905,2.7174301-0.0002289,4.0761566c-0.0132294,0.518631-0.0380096,1.0372696-0.0380402,1.5559006
		c-0.0027924,62.9504166-0.0037842,125.9008408-0.0048523,188.8512878c-0.4729767,0.111084-0.9475708,0.1448669-1.4253845,0.0292053
		c-0.0038147-0.4394836-0.0106201-0.8791199-0.0106354-1.3187256
		c-0.0004578-62.3603668-0.0003357-124.7207489-0.0020752-187.0811005
		c-0.0000153-0.5186996-0.0249786-1.0373993-0.0382843-1.5561066c0.0648499-0.7990494,0.0644531-1.5981064,0.0002136-2.3971634
		c0.0652008-2.7988739,0.0656281-5.5977478-0.0002441-8.3966293
		C141.5735931,83.8046417,141.5869751,82.6983566,141.6003418,81.5920792z"></path>
	<path d="M84.0395203,80.8345566c0.4667206,0.2525177,0.9334412,0.5050354,1.4001617,0.7575531
		c0.0133591,1.1062622,0.0267258,2.2125244,0.0400925,3.3187866c-0.0659027,2.7988968-0.0654755,5.5978012-0.0002518,8.3967056
		c-0.0645065,0.8789063-0.0648041,1.7578049,0.0001526,2.6367035c-0.0132904,0.4786072-0.0382233,0.9572144-0.0382385,1.4358215
		c-0.0017242,62.2700958-0.0016174,124.5401764-0.0021515,186.8102722c0,0.4395752-0.0077286,0.8790894-0.0118408,1.318634
		c-0.4762192,0.1976318-0.9489365,0.2272644-1.4159164-0.0293579c-0.0039215-0.3994446-0.0108566-0.7989807-0.0108566-1.1984558
		c-0.0004807-62.5402679-0.0003738-125.0805206-0.0021133-187.6207886
		c-0.0000153-0.4785767-0.0249329-0.9571609-0.0382309-1.4357376c0.0646896-1.3588791,0.0648117-2.7177505-0.0000916-4.076622
		c0.0659103-2.3190842,0.0656738-4.638176,0.0001068-6.9572678C83.9867401,83.0720596,84.0131302,81.9533081,84.0395203,80.8345566z
		"></path>
	<path d="M138.9203186,83.2329178c0.3923798-0.2877731,0.723877-0.6747971,1.2405243-0.7599182
		c0.3465424,0.1447296,0.2262421,0.4543991,0.2348175,0.7054138c0.0251923,0.7368851,0.030777,1.4744492,0.0440063,2.2117462
		c-0.0657501,3.0386658-0.0659332,6.0773392,0.0000916,9.1160126c-0.0000763,0.5591812-0.0001373,1.1183624-0.0001984,1.6775436
		c-0.0132446,0.4785004-0.0380707,0.9570084-0.0380859,1.4355164
		c-0.0017395,62.2095337-0.0016327,124.4190826-0.0019836,186.6286316c0,0.4793701-0.0052185,0.9587097-0.0079803,1.4380798
		c-0.4568481,0.3043823-0.9328156,0.2493591-1.4154205,0.0753784c-0.0055084-0.4794617-0.0152435-0.9589539-0.0152435-1.4384766
		c-0.0006866-65.5522156-0.0005646-131.1044159-0.0023041-196.6566162c-0.0000153-0.5186768-0.0249939-1.0373459-0.0382996-1.556015
		C138.9854736,85.1511154,138.985321,84.1920166,138.9203186,83.2329178z"></path>
	<path d="M86.8791199,82.4730148c0.5180283,0.0828857,0.8454742,0.4765396,1.2405624,0.759903
		c-0.0649948,0.9591064-0.0651932,1.9182129,0.0000916,2.8773193c-0.0133286,0.5185242-0.0383072,1.037056-0.0383224,1.5555801
		c-0.0017471,65.4524841-0.0016174,130.9049835-0.0023727,196.3574677
		c-0.0000076,0.5189209-0.0108261,1.0378723-0.0165863,1.5567932c-0.4755173,0.1061401-0.9494705,0.1682129-1.4137421-0.0503845
		c-0.0030365-0.3599243-0.008194-0.719635-0.008194-1.0793152c-0.0003662-62.2767181-0.0002594-124.5534515-0.0019913-186.8302002
		c-0.0000153-0.4786758-0.0249329-0.9573441-0.0382309-1.4360275c-0.0000381-0.5593338-0.000061-1.1186676-0.0000992-1.6780014
		c0.0660706-3.0385818,0.0659866-6.0771637,0.0000381-9.1157455c0.0132523-0.5041809-0.0063171-1.0120163,0.0492783-1.5114822
		C86.7019043,83.4085999,86.4013977,82.8736343,86.8791199,82.4730148z"></path>
	<path d="M136.040329,84.9119568c0.4286652-0.3967819,0.9398499-0.6698456,1.4401703-0.9591904
		c0.0263519,0.9587784,0.0526886,1.9175491,0.0790558,2.8763199c-0.0132446,0.5185471-0.0380554,1.0370941-0.0380859,1.5556412
		c-0.0030212,65.8151779-0.0042114,131.6304016-0.0055084,197.4455566
		c-0.4728851,0.1329041-0.9487762,0.1051636-1.4260254,0.0269775c-0.0034943-0.3994141-0.0093384-0.7989807-0.0093384-1.1984863
		c-0.000412-65.2245636-0.0003204-130.4491425-0.0020599-195.6737061c-0.0000153-0.478653-0.0249329-0.9572906-0.038208-1.435936
		C136.1051788,86.6700745,136.1051788,85.7910156,136.040329,84.9119568z"></path>
	<path d="M89.5202332,83.991272c0.6016617,0.1327286,0.9981995,0.5946808,1.4794464,0.9206848
		c-0.0647888,0.8791504-0.0649948,1.7583008,0.0000916,2.6374512c-0.0133209,0.5185776-0.0383072,1.0371552-0.0383148,1.5557327
		c-0.0017548,65.0615768-0.0016403,130.1231689-0.0022354,195.1847839c0,0.4393311-0.0083466,0.8786926-0.0127945,1.3180237
		c-0.4731674,0.0932007-0.9455109,0.1094971-1.4167557-0.0152283c-0.0040512-0.0397339-0.010849-0.0795288-0.010849-0.1192932
		c0.0001602-65.6961975,0.0008698-131.3923645-0.0002518-197.088562c-0.0000076-0.5185699-0.0248642-1.0371552-0.0381165-1.5557251
		C89.4937134,85.8831787,89.5069656,84.937233,89.5202332,83.991272z"></path>
	<path d="M133.4003296,86.3511276c0.3244934-0.3984528,0.8671875-0.4411697,1.2405701-0.7599106
		c0.5185547,0.7637863,0.0776825,1.6371307,0.2786407,2.4371872c-0.0132446,0.5186539-0.0380554,1.0373077-0.0380859,1.5559692
		c-0.0025024,65.4296188-0.0031586,130.8592224-0.0039368,196.2888184c-0.4729919,0.1014709-0.947113,0.1500549-1.4249725,0.0305481
		c-0.0042267-0.4395447-0.0118561-0.8791809-0.0118561-1.3187866c-0.0005188-64.7600403-0.000412-129.5200653-0.0021667-194.2801056
		c-0.0000153-0.5187225-0.0249786-1.0374374-0.038269-1.55616C133.4650421,87.9495163,133.464859,87.150322,133.4003296,86.3511276z
		"></path>
	<path d="M92.1995316,85.6317825c0.6196976-0.029892,0.949234,0.4758606,1.4001389,0.7575684
		c0.0133667,0.7864609,0.0267334,1.5729141,0.0401001,2.3593674c-0.0133286,0.4786835-0.0383072,0.9573669-0.0383148,1.4360428
		c-0.0017471,64.7097549-0.0016327,129.4195251-0.0019684,194.129303c0,0.4395752-0.0047913,0.8792114-0.0073471,1.3187866
		c-0.4771805,0.0924683-0.9534454,0.0943604-1.4289169-0.0142517c-0.0012054-65.344574-0.0020294-130.6892242-0.0046539-196.0338898
		c-0.0000229-0.5186234-0.0249405-1.0372391-0.0382309-1.5558624
		C92.1467285,87.2298203,92.1731339,86.4308014,92.1995316,85.6317825z"></path>
	<path d="M130.5203247,88.0301666c0.3245239-0.3984451,0.8671722-0.4411697,1.2405701-0.7599106
		c0.515686,0.678894,0.0844269,1.4777145,0.2786407,2.197319c-0.0132294,0.4785385-0.0380554,0.9570694-0.0380707,1.4356079
		c-0.0017242,64.569809-0.0016174,129.1396332-0.0019989,193.7094574c0,0.4394226-0.0055542,0.8788757-0.0085144,1.3183289
		c-0.4580994,0.2986145-0.9326935,0.250946-1.4140472,0.0672913c-0.0057678-0.4794006-0.0160522-0.9588623-0.0160522-1.4383545
		c-0.0007172-64.2720947-0.0005646-128.5441742-0.0023193-192.8162689c0-0.5186691-0.0249176-1.0373383-0.038208-1.556015
		C130.58461,89.4684677,130.58461,88.749321,130.5203247,88.0301666z"></path>
	<path d="M152.6403503,87.8285065c0.5125122,0.0552063,0.6872101-0.6152344,1.2005463-0.5582581
		c0.3888702,0.1869507,0.2231903,0.5439453,0.2319946,0.8284836c0.0313873,1.0156174,0.0335693,2.032135,0.046814,3.0483093
		c-0.0133057,0.478775-0.0382385,0.95755-0.0382538,1.4363251c-0.0017242,63.841713-0.0016022,127.6834183-0.0021057,191.5251465
		c0,0.4396057-0.0071716,0.8792114-0.0110016,1.3188171c-0.4705353,0.0666199-0.9380493,0.2875671-1.4151611,0.02771
		c-0.0044556-0.4393311-0.0124664-0.8787231-0.0124664-1.3181152c-0.0005646-63.6514893-0.0004272-127.3029633-0.002182-190.9544373
		c-0.0000153-0.5184784-0.0249786-1.0369644-0.0382843-1.5554428
		C152.6136169,90.3608627,152.6269836,89.0946884,152.6403503,87.8285065z"></path>
	<path d="M73.1990662,87.2702637c0.3789215,0.309761,0.9135895,0.3655243,1.2406158,0.759903
		c-0.065361,1.2788315-0.065361,2.5576477,0,3.8364792c-0.013298,0.478653-0.0382309,0.9573135-0.0382462,1.4359665
		c-0.0017319,62.2263489-0.0015259,124.4526978-0.0021896,186.6790466c-0.0000229,1.7982483-0.008194,3.5964355-0.012558,5.3946838
		c-0.4748535,0.0968323-0.9485703,0.1135254-1.4205551-0.0201416c-0.0022507-0.3992615-0.0056763-0.7986145-0.0056839-1.197937
		c-0.0002441-63.9384003-0.0001602-127.8767853-0.0018921-191.8151703
		c-0.0000153-0.3986893-0.0249329-0.7973633-0.0382233-1.1960526c0.013237-1.0161591,0.0154343-2.0326614,0.046814-3.0482635
		C72.9759445,87.8142319,72.8102646,87.4572601,73.1990662,87.2702637z"></path>
	<path d="M127.9203415,89.5075455c0.466713-0.2525101,0.9334488-0.5050201,1.4001541-0.7575302
		c0.0263519,0.6389542,0.0526886,1.277916,0.0790558,1.9168701c-0.0132446,0.478508-0.0380554,0.9570007-0.0380707,1.4355011
		c-0.0018158,35.9588318-0.000824,71.9176788-0.0019226,107.8765106
		c-0.0008545,28.6868134-0.0040741,57.3736115-0.0062408,86.0604095c-0.4687347,0.1680908-0.9420624,0.1506653-1.4183731,0.0353394
		c-0.0062256-0.1193542-0.0168304-0.2388306-0.0168304-0.3583069c0.000206-64.3378296,0.001236-128.6756592,0.0004272-193.0134888
		c0-0.4386368-0.0249329-0.8772812-0.0382156-1.3159256C127.8936539,90.7604752,127.9069977,90.1340027,127.9203415,89.5075455z"></path>
	<path d="M97.7195358,88.7499924c0.466713,0.2525253,0.9334335,0.5050507,1.4001465,0.757576
		c0.0133667,0.6265488,0.0267258,1.2530975,0.0400925,1.8796387c-0.0133286,0.5184937-0.0383072,1.0369873-0.0383224,1.555481
		c-0.0017395,63.7720795-0.0016251,127.5441437-0.002327,191.3162231c-0.0000076,0.5189514-0.0100098,1.0379333-0.015358,1.5568848
		c-0.4775085,0.0902405-0.955162,0.1829529-1.4137726-0.0771484c-0.0034332-0.3596497-0.0093994-0.7192383-0.0093994-1.0788574
		c-0.000412-64.1456909-0.0002899-128.2913818-0.0020294-192.4370728c-0.0000153-0.5185852-0.0248642-1.0371704-0.0381165-1.5557556
		C97.6668167,90.0279694,97.6931763,89.3889771,97.7195358,88.7499924z"></path>
	<path d="M122.3603287,92.8274155c0.4790039-0.3296051,0.8792801-0.7855835,1.479454-0.9207077
		c0.0132599,0.466217,0.0265198,0.9324493,0.0397568,1.3986664c-0.013237,0.5187073-0.0380554,1.0374298-0.0380707,1.5561371
		c-0.0017395,63.2382813-0.0016251,126.4765625-0.0019302,189.7148438
		c-0.0000153,0.5195618-0.0044861,1.0391235-0.0068893,1.5586853c-0.472496,0.0427246-0.9350357,0.3824768-1.4204712,0.04776
		c-0.004158-0.4393005-0.0114746-0.8787537-0.0114746-1.3181763c-0.0005188-63.1345673-0.0004044-126.2691193-0.0021439-189.403656
		c-0.0000153-0.478508-0.0249405-0.9570313-0.0382385-1.4355392
		C122.360321,93.6260834,122.360321,93.2267456,122.3603287,92.8274155z"></path>
	<path d="M103.2002335,91.906723c0.6016617,0.1327286,0.9982071,0.5946808,1.4794464,0.9206924
		c0.0000305,0.3994217,0.0000687,0.798851,0.0000916,1.1982803c-0.0133209,0.5185776-0.0382996,1.0371552-0.0383148,1.5557327
		c-0.0017548,62.9435959-0.0016098,125.8871994-0.0023651,188.83078c-0.0000076,0.5193787-0.0107651,1.0387573-0.0164948,1.5581055
		c-0.4861832,0.2592468-0.9491653,0.0586853-1.4158707-0.0712585c-0.0022888-0.2396851-0.0062714-0.4794922-0.0062714-0.7192688
		c-0.0002594-63.4393921-0.0001678-126.8787994-0.0018997-190.3181915
		c-0.0000153-0.5187149-0.0248566-1.0374298-0.0381165-1.5561447
		C103.1737137,92.8391953,103.1869659,92.372963,103.2002335,91.906723z"></path>
	<path d="M46.8397751,81.5528564c-0.0133286,0.5184784-0.0383263,1.0369568-0.0383377,1.5554276
		c-0.0017471,66.2847672-0.0015869,132.569519-0.0028496,198.8543091c-0.0000114,0.5189209-0.0180435,1.0378723-0.0276604,1.5568237
		c-0.4052353,0.009552-0.8276291,0.1074219-1.1661148-0.2264099c-0.004055-0.0797424-0.0116806-0.1595459-0.0116768-0.2392883
		c0.0020142-27.6014099,0.0051994-55.2028046,0.0010986-82.8041992c-0.000061-0.4256897,0.1328468-0.8831024-0.175396-1.2717133
		c0.0018234-0.6609344,0.003643-1.3218842,0.0054626-1.9828339c0.2515755-1.200531,0.165657-2.401474,0.0041275-3.6024933
		c0.3994827-1.9858856,0.2023544-3.9789124,0.0703735-5.9710236c-0.0158081-0.2386169-0.0843086-0.4815216-0.0570107-0.7140656
		c0.3749161-3.1937866-0.2296791-6.381546-0.0502472-9.5732727c0.3159599-1.1162567,0.3095169-2.2325897,0.0009575-3.3490143
		c0.1554718-2.4729156,0.1522141-4.9440765-0.0816116-7.412674c-0.0187454-0.1979065-0.0560532-0.396637,0.0481606-0.5840912
		c0.2841148-0.1294708,0.218647-0.3946075,0.2192879-0.6161041c0.0067558-2.3349762,0.0071259-4.6699677,0.0012817-7.0049438
		c-0.0005569-0.2227325,0.0592575-0.4860229-0.2173729-0.6206818c0.0041885-0.5032196,0.0083771-1.0064392,0.0125694-1.5096436
		c0.3544235-0.4150848,0.2028084-0.9168549,0.2041588-1.3766327c0.0149689-5.1134644,0.0115433-10.2270203,0.0123711-15.3405304
		c0.0031052-19.1369247,0.0060997-38.2738419,0.0071983-57.4107666c0.0000153-0.2787323-0.0249214-0.5574722-0.0382156-0.8362045
		c0.013237-2.4525299,0.0170021-4.9051895,0.0501099-7.3574524c0.0048599-0.359848-0.2139626-0.7983398,0.2286186-1.0767136
		c0.4488106-0.0349579,0.6216965,0.4043427,0.9606133,0.5582581C46.8130417,75.9822235,46.8264084,78.7675476,46.8397751,81.5528564
		z"></path>
	<path d="M150.0224152,285.5041504c-0.0074158-0.5192566-0.0213013-1.0385437-0.0213165-1.5578003
		c-0.0009613-63.1881256-0.0008087-126.3762512-0.0025635-189.5643921
		c-0.0000153-0.5186157-0.0249176-1.0372391-0.0381927-1.5558548c0.0659027-3.4375076,0.0658417-6.8750153,0.0000153-10.3125229
		c-0.0000458-0.5601044-0.0000916-1.1202164-0.0001373-1.6803207c0.0649109-1.3588715,0.0647736-2.7177429,0.0001068-4.076622
		c0.3075409-0.3939514,0.8318481-0.4266586,1.2001648-0.7193222c0.0263824,1.4385834,0.0527802,2.8771667,0.0791779,4.3157425
		c0.0000305,0.1603165,0.0000763,0.3206406,0.0001221,0.480957c-0.0658264,2.3181992-0.0652313,4.6363983-0.0002289,6.9545975
		c-0.0278778,0.2272949-0.0557404,0.4545898-0.0836182,0.6818848c0.0000153,0,0.0301666,0.0122833,0.0301666,0.0122833
		c-0.1955566-0.1453934-0.3627167-0.0289841-0.3690491,0.1360245c-0.0072632,0.1897964,0.2184448,0.1003418,0.343338,0.1311417
		c0.0264435,1.1188583,0.0528564,2.237709,0.0792694,3.3565674c-0.0132751,0.5185623-0.0381775,1.0371246-0.0381927,1.5556793
		c-0.0017548,63.4996719-0.0016174,126.9993362-0.0022888,190.4989929c0,0.4393921-0.0096588,0.8787842-0.0149384,1.3181152
		C150.8019714,285.7254333,150.4143372,285.7144165,150.0224152,285.5041504z"></path>
	<path d="M77.0796814,92.8260956c-0.013298,0.5186615-0.0382309,1.037323-0.0382385,1.5559769
		c-0.0017395,63.310051-0.0016327,126.620079-0.0020752,189.9301147c0,0.3595886-0.0065842,0.7191772-0.0100937,1.0787659
		c-0.3943939,0.0953369-0.7882462,0.1016235-1.1814041-0.0071411c-0.0025558-2.038208-0.0073242-4.076416-0.0073395-6.1145935
		c-0.0003967-61.8689423-0.0002289-123.737854-0.0019684-185.6067963c-0.0000153-0.5186386-0.0249405-1.0372849-0.0382309-1.5559235
		c0.0263824-1.1188278,0.0527802-2.2376633,0.0791779-3.3564911c0.4922028-0.2972641-0.044014-0.4820557-0.0790176-0.7216568
		c0.0653915-2.3981094,0.0656738-4.7962265-0.000267-7.1943359c0.0000229-0.1602478,0.0000381-0.3205032,0.0000534-0.480751
		c0.0133133-1.4258194,0.0266266-2.8516541,0.0399475-4.2774734c0.4851532,0.0975037,0.8163605,0.4514999,1.1994476,0.7190628
		c0.0133514,1.4260101,0.0267105,2.8520126,0.040062,4.2780304c-0.0000305,0.560173-0.0000458,1.1203308-0.0000687,1.6805038
		C77.0142365,86.1109695,77.0142136,89.4685287,77.0796814,92.8260956z"></path>
	<path d="M174.7463837,284.6158752c-0.0087433-0.4787292-0.0251007-0.957428-0.0251007-1.4361572
		c-0.0011444-66.0108948-0.0010071-132.0217896-0.0027466-198.0326843c-0.0000153-0.478569-0.0249329-0.9571381-0.0382233-1.4357071
		c0.0133362-2.5453644,0.0266724-5.0907288,0.0400085-7.6360931c0.3202057-0.1860809,0.6403961-0.3721619,0.9605713-0.5582352
		c0.4423676,0.2777786,0.2228851,0.7156525,0.2286682,1.0751877c0.0343475,2.1329041,0.0368958,4.2663116,0.0501251,6.3995514
		c-0.0132904,0.4388046-0.0381927,0.8776169-0.0381927,1.3164215c-0.0010986,66.6001053-0.000412,133.2001953-0.0001984,199.800293
		c0,0.119812-0.0060577,0.239624-0.0093536,0.3594055C175.5578156,284.7879333,175.1524048,284.7043152,174.7463837,284.6158752z"></path>
	<path d="M52.359684,83.7113419c-0.013298,0.5186157-0.0382347,1.0372314-0.0382462,1.5558472
		c-0.0017509,65.8223343-0.0015984,131.6446838-0.0027313,197.4670105
		c-0.0000076,0.5191956-0.0162849,1.0384216-0.0251503,1.5574341c-0.4181366,0.2090149-0.7868423-0.0174561-1.1678162-0.132019
		c-0.0015907-28.4130859-0.0045395-56.8262024-0.0052719-85.2393036
		c-0.000988-38.0844116-0.0001068-76.1688232-0.0019035-114.2532425c-0.0000191-0.4786148-0.0248528-0.9572449-0.038105-1.4358673
		c0.0263519-2.5578766,0.0527115-5.1157608,0.079071-7.6736374c0.4624786,0.0029907,0.7857094,0.3176575,1.1601448,0.5177155
		C52.3330154,78.6206207,52.3463478,81.1659851,52.359684,83.7113419z"></path>
	<path d="M169.2203979,284.9937439c-0.0067444-0.5192566-0.0193787-1.0385132-0.0193787-1.5577698
		c-0.000885-65.4166718-0.0007324-130.8333588-0.0024719-196.250061c-0.0000153-0.5185623-0.0249481-1.0371246-0.0382385-1.5556793
		c0.0133667-2.2255478,0.0266876-4.4510956,0.0400391-6.6766357c0.4325409-0.0699844,0.7843628-0.3206635,1.1601563-0.5176697
		c0.0263977,2.2381821,0.0527954,4.4763641,0.0791779,6.7145462c-0.0132751,0.5187073-0.0381927,1.0373993-0.0381927,1.5561066
		c-0.0005341,65.9935837,0.0007782,131.9871521,0.0015717,197.9807434c0,0.079895-0.0061951,0.159729-0.0096436,0.2395325
		C170.0047302,284.9916382,169.6275635,285.255127,169.2203979,284.9937439z"></path>
	<path d="M57.8797798,85.6305161c-0.0133286,0.4786987-0.0383301,0.9573975-0.0383453,1.4361038
		c-0.0017319,65.5897522-0.0016327,131.1795044-0.0020638,196.7692566
		c-0.0000038,0.3196106-0.0062065,0.6391907-0.0095177,0.9588013c-0.4157295,0.2163696-0.8029556,0.1044006-1.1819458-0.102478
		c-0.0025635-0.4795837-0.0073662-0.959137-0.00737-1.4387207c-0.0003319-65.555603-0.0002365-131.1111908-0.0019684-196.6667938
		c-0.0000076-0.4787369-0.0249405-0.9574661-0.0382423-1.436203c0.0264015-2.2381897,0.0527992-4.4763794,0.0791969-6.7145691
		c0.3682251,0.2928238,0.8926735,0.3252945,1.2001495,0.7193451C57.8141556,81.3136749,57.8138847,83.4720993,57.8797798,85.6305161
		z"></path>
	<path d="M144.4952087,285.6185913c-0.0050049-0.3994446-0.0143738-0.7988892-0.014389-1.1983337
		c-0.0006561-62.7464142-0.0005341-125.4928436-0.0022736-188.2392578c0-0.4786606-0.0249329-0.9573288-0.0382233-1.4359894
		c0.0657806-1.6784668,0.0655518-3.3569336,0.0001526-5.0354004c0.0650024-2.0792923,0.0653687-4.1585846-0.0002594-6.2378693
		c0.0133667-1.1862259,0.0267334-2.3724518,0.0401154-3.5586777c0.3201752-0.1860886,0.6403656-0.3721771,0.9605713-0.5582733
		c0.3885193,0.1864624,0.2223358,0.5429077,0.2320251,0.827179c0.0319519,0.9359665,0.0335236,1.872963,0.0467529,2.8095627
		c-0.065033,1.5994949-0.0652466,3.1989975,0.0001068,4.7984848c-0.0660248,2.1582794-0.0653687,4.3165665-0.0002441,6.4748535
		c-0.0132294,0.3587265-0.0380859,0.7174683-0.0380707,1.0762024c0.0008087,63.3393326,0.0034027,126.6786575,0.005249,190.0180054
		c0,0.0797119-0.0098877,0.1593933-0.0155334,0.2390747C145.280899,285.71521,144.8887329,285.7059631,144.4952087,285.6185913z"></path>
	<path d="M59.2844658,284.8978271c-0.0014153-65.7440186-0.0027428-131.4880219-0.0058899-197.2320404
		c-0.0000267-0.5186157-0.0249481-1.0372391-0.0382423-1.5558548c0.0263939-2.0782776,0.0527916-4.1565475,0.0791817-6.2348251
		c0.5432892,0.0010681,0.7812653,0.5109558,1.2001572,0.7193222c-0.0656929,1.9985123-0.0659332,3.9970245,0.0001068,5.9955368
		c-0.0133286,0.5187149-0.0383186,1.0374298-0.0383339,1.5561447c-0.0017471,65.1585464-0.0016365,130.3171082-0.0022163,195.475647
		c-0.0000076,0.4395752-0.0083504,0.8791504-0.0129814,1.3186646
		C60.0680275,285.0420227,59.6743736,285.0218201,59.2844658,284.8978271z"></path>
	<path d="M163.7001343,285.2485352c-0.0066528-0.5192871-0.0191193-1.0385742-0.0191345-1.5578613
		c-0.0008545-64.7819672-0.0007172-129.5639496-0.0024567-194.345932c-0.0000153-0.5185852-0.0249329-1.0371704-0.0382233-1.5557556
		c0.0649414-1.9184647,0.0649414-3.8369217,0-5.7553787c0.2611694-0.3124008,0.6196136-0.4378586,1.0005798-0.52005
		c0.4091797,0.2348328,0.2231293,0.6310272,0.2301025,0.9525604c0.0332794,1.5340576,0.0354462,3.0687866,0.0486755,4.6032791
		c-0.0132904,0.4787674-0.038208,0.9575272-0.0382233,1.4362946c-0.0016937,65.3217468-0.0015869,130.6434937-0.0019531,195.9652557
		c0,0.2397766-0.005249,0.4795227-0.0081635,0.7192383C164.4935608,285.4638062,164.1032715,285.4849548,163.7001343,285.2485352z"></path>
	<path d="M63.3996773,87.7889862c-0.0132942,0.4785767-0.0382156,0.9571457-0.0382309,1.4357147
		c-0.0016708,65.134552-0.0015182,130.2690887-0.0020943,195.403656c0,0.1593933-0.0095673,0.3187561-0.015419,0.4781189
		c-0.3954849,0.0923767-0.790226,0.1851501-1.1643982-0.0686035c-0.0063629-0.399292-0.0185204-0.7987061-0.0185204-1.1980896
		c-0.000843-65.1114349-0.000721-130.2228851-0.0024567-195.3343201c-0.0000038-0.4786835-0.0249367-0.9573746-0.0382309-1.436058
		c0.0132332-1.5344849,0.0154037-3.0692139,0.0486908-4.6032639c0.0069809-0.3215408-0.1790543-0.7177277,0.2300987-0.9525681
		c0.3809242,0.0823593,0.7394104,0.2078247,1.0004311,0.5204239C63.3348961,83.9523239,63.3346443,85.8706589,63.3996773,87.7889862
		z"></path>
	<path d="M162.2796783,88.0288467c-0.0132904,0.3586807-0.038208,0.7173691-0.038208,1.0760498
		c-0.001709,65.090416-0.0016479,130.1808167-0.0021362,195.2712402c0,0.3191223-0.0067902,0.6382751-0.0110474,0.9574585
		c-0.3882751,0.1447754-0.7784424,0.1309509-1.1696472,0.0185547c-0.0057983-0.4790955-0.0176392-0.9580994-0.0176544-1.4371033
		c-0.0008392-64.5769196-0.0007172-129.1538544-0.0024414-193.7307739c-0.0000153-0.4786148-0.0249329-0.957222-0.0382233-1.4358292
		c0.0648956-1.7585526,0.0648956-3.5171051,0-5.2756577c0.2617493-0.3112335,0.6195984-0.4378204,1.0005188-0.5200577
		c0.4089661,0.2342377,0.2221832,0.6298218,0.2302094,0.9510727
		C162.2652893,85.2783661,162.2664642,86.6537552,162.2796783,88.0288467z"></path>
	<path d="M64.8048935,285.1424255c-0.0015564-52.5564575-0.0031815-105.1128845-0.004631-157.669342
		c-0.000351-12.6295547,0.0003433-25.2591248-0.0017319-37.8886795c-0.0000763-0.4386978-0.024826-0.8774033-0.0380783-1.3160934
		c0.0131989-1.4546661,0.0148315-2.9096069,0.0485535-4.3638c0.0074387-0.3213654-0.1789017-0.7172241,0.2301102-0.9517746
		c0.3809586,0.0821915,0.7392502,0.2079239,1.0005646,0.5200424c-0.0649109,1.7585526-0.0649109,3.5171051,0,5.2756577
		c-0.013298,0.4787216-0.0382309,0.9574509-0.0382385,1.4361725c-0.0017395,64.5563583-0.0016251,129.1127014-0.0020828,193.6690674
		c-0.0000076,0.4396057-0.0067062,0.8791809-0.0104828,1.3186951
		C65.5913239,285.2713928,65.1970062,285.2506714,64.8048935,285.1424255z"></path>
	<path d="M158.171463,285.3883057c-0.0037689-0.4395142-0.0108185-0.8789978-0.0108185-1.3185425
		c-0.000473-64.308609-0.0003662-128.617218-0.0021057-192.9258423c0-0.4786835-0.0249329-0.9573517-0.038208-1.4360275
		c0.0133209-1.5859222,0.0266724-3.1718369,0.0400085-4.7577591c0.3201904-0.1860733,0.6403809-0.3721542,0.960556-0.5582352
		c0.4087372,0.2339249,0.2215271,0.6291122,0.2301483,0.9501801c0.0347748,1.2947235,0.0353088,2.5903625,0.0485077,3.8856659
		c-0.0132294,0.358757-0.0380707,0.7175217-0.0380707,1.0762787c0.0000763,64.9441452,0.0019531,129.8883057,0.0032806,194.832428
		c0,0.079834-0.0069733,0.1596375-0.0110016,0.2394104C158.9606171,285.4881897,158.5664978,285.4814148,158.171463,285.3883057z"></path>
	<path d="M68.9197769,89.7081757c-0.0133286,0.5185699-0.0383072,1.0371399-0.0383224,1.5557098
		c-0.0017548,64.1822357-0.0016098,128.3644562-0.0024567,192.5466614c-0.0000076,0.4793396-0.0120239,0.9586792-0.018631,1.4378967
		c-0.3975296,0.2294922-0.7873001,0.2261658-1.1685028-0.0379944c-0.0038071-0.5193481-0.0111618-1.0386353-0.0111618-1.5579224
		c-0.0005188-64.2896423-0.0003891-128.5792999-0.0021362-192.8689575
		c-0.0000153-0.5184708-0.0249481-1.0369492-0.0382385-1.5554199c0.0263977-1.5985489,0.0527954-3.1970978,0.0791931-4.7956467
		c0.4564514,0.0164566,0.7839737,0.3215256,1.1601563,0.5176849C68.8930435,86.5361786,68.9064102,88.1221771,68.9197769,89.7081757
		z"></path>
	<path d="M71.5597763,90.6676025c-0.0133286,0.5185318-0.0383072,1.037056-0.0383224,1.5555878
		c-0.0016937,64.1733398-0.0015335,128.3466797-0.002388,192.5200348c0,0.1990662-0.013588,0.3981323-0.0208282,0.597229
		c-0.3913498,0.1175232-0.7804871,0.1387939-1.1652985-0.026825c-0.0042419-0.5588074-0.0121994-1.1176453-0.0121994-1.6764526
		c-0.0005722-63.9647369-0.0004425-127.9294891-0.0021896-191.8942261
		c-0.0000153-0.5184555-0.0249329-1.0369034-0.0382309-1.5553589c0.0263977-1.4386368,0.0527954-2.8772812,0.0791931-4.3159256
		c0.4625168,0.0029068,0.7857056,0.3176727,1.1601639,0.5176773C71.5330429,87.8154297,71.546402,89.2415161,71.5597763,90.6676025z
		"></path>
	<path d="M155.5323181,285.4161682c-0.0040588-0.4395752-0.0116577-0.8791809-0.0116577-1.3187561
		c-0.0005035-63.9979248-0.0003967-127.9958801-0.002121-191.9938202c-0.0000153-0.4787521-0.0249329-0.957489-0.0382233-1.4362411
		c0.1654358-1.439682-0.1370392-2.8963242,0.1571045-4.331337c0.2811584-0.1683044,0.5623169-0.3366089,0.8434753-0.5049362
		c0.3893738,0.1877213,0.2245483,0.545578,0.2319031,0.8305283c0.0303192,1.1748199,0.0335541,2.3503418,0.0467377,3.5256042
		c-0.0132294,0.5186996-0.0380707,1.0374069-0.0380859,1.5561066c-0.0016937,64.3541565-0.0015564,128.7083282-0.0018463,193.0625
		c0,0.1997681-0.0043945,0.3995667-0.006897,0.5992737C156.3201904,285.5200195,155.9268188,285.5291748,155.5323181,285.4161682z"></path>
	<path d="M180.2612915,283.9806213c-0.0070343-0.5993347-0.0202179-1.1986389-0.0202332-1.7979736
		c-0.0009155-66.3579254-0.0007935-132.7158356-0.0025177-199.0737457c-0.0000153-0.518692-0.0249939-1.0373764-0.0382996-1.5560684
		c0.065506-2.7980499,0.0653534-5.5960922,0.0000763-8.3941345c0.24823-0.3035202,0.5656128-0.4686966,0.9601898-0.4794617
		c0.0263824,2.7978668,0.0527802,5.5957336,0.0791779,8.3936005c-0.0132751,0.518692-0.038208,1.0373764-0.038208,1.5560684
		c-0.00177,66.6756134-0.0016327,133.3512115-0.0023804,200.026825c0,0.3994446-0.010788,0.7988892-0.0167236,1.1985779
		C180.9007721,284.0828552,180.5816498,284.0363159,180.2612915,283.9806213z"></path>
	<path d="M177.609436,284.3080444c-0.003067-0.4395447-0.0088501-0.8791199-0.0088501-1.3186646
		c-0.000412-66.3070526-0.0003052-132.6141052-0.0020447-198.9211426c-0.0000153-0.5186462-0.0249939-1.0373001-0.0382996-1.5559464
		c0.0654755-2.6381378,0.0652771-5.2762756,0.0000763-7.9144135c0.248703-0.3025589,0.5655518-0.4687958,0.9601898-0.4794617
		c0.0263824,2.6379623,0.0527802,5.2759171,0.0791779,7.9138794c-0.0132751,0.3587875-0.038208,0.7175827-0.038208,1.0763702
		c-0.0017242,66.7079239-0.0016327,133.415802-0.0018005,200.1236877c0,0.3195801-0.0027618,0.6391296-0.0042267,0.9587097
		C178.2508392,284.3166809,177.9567719,284.5273743,177.609436,284.3080444z"></path>
	<path d="M49.4797668,82.5122833c-0.0133324,0.5186157-0.0383186,1.0372314-0.0383339,1.5558472
		c-0.0017509,66.2262421-0.0016289,132.4524994-0.0024376,198.6787567c-0.0000076,0.399292-0.0116653,0.7985535-0.0184288,1.1976624
		c-0.3241768,0.0294189-0.6647034,0.161377-0.9313011-0.1537781c-0.0029678-0.4794006-0.0086708-0.9587708-0.0086708-1.4381409
		c-0.0004005-66.2150421-0.0002937-132.4300995-0.0020218-198.6451416
		c-0.0000114-0.4785843-0.0248604-0.9571686-0.0381126-1.4357529c0.0263519-2.7177734,0.0527039-5.4355545,0.0790558-8.1533356
		c0.3946114,0.0106888,0.7118378,0.1761551,0.9601593,0.4794617C49.414463,77.2360077,49.4142723,79.8741455,49.4797668,82.5122833z
		"></path>
	<path d="M172.10289,284.8412476c-0.0075684-0.4788208-0.0217743-0.9576111-0.0217743-1.4364319
		c-0.0009766-65.7661438-0.0008392-131.5322876-0.0025787-197.2984467
		c-0.0000153-0.4785309-0.0249481-0.9570618-0.0382233-1.4355927c0.0133514-2.3854523,0.0266876-4.7708893,0.0400238-7.1563416
		c0.3067322-0.172554,0.6134338-0.3451157,0.920166-0.5176773c0.0263519,2.3979568,0.0526886,4.7959213,0.0790405,7.1938782
		c-0.0132446,0.5185013-0.0380554,1.0370102-0.0380707,1.5555038c-0.0016937,66.1266022-0.0015564,132.2532196-0.0019226,198.379837
		c0,0.1996155-0.0062256,0.399292-0.0096283,0.598877C172.753006,285.0192871,172.4297028,284.9442444,172.10289,284.8412476z"></path>
	<path d="M54.9996834,84.6707916c-0.0132942,0.5187149-0.0382347,1.0374298-0.0382462,1.5561447
		c-0.0017395,65.7950516-0.0016251,131.5900879-0.0022278,197.3851318c-0.0000038,0.3194885-0.0088348,0.6389465-0.013546,0.9584351
		c-0.3404922,0.1931458-0.6453629,0.088562-0.9387093-0.1122437c-0.0022469-0.5595093-0.0064583-1.1190491-0.0064583-1.6785583
		C54.0001984,217.1022034,54.0003128,151.4246979,53.9985695,85.7472c-0.0000153-0.5187225-0.0249443-1.0374451-0.0382385-1.5561676
		c0.0133018-2.3852615,0.0265999-4.7705231,0.0398979-7.1557846c0.3198166,0.159729,0.6396294,0.319458,0.9594421,0.479187
		C54.9730072,79.8998871,54.9863434,82.2853394,54.9996834,84.6707916z"></path>
	<path d="M166.5746155,285.1455688c-0.0048065-0.4794006-0.0138397-0.9588013-0.0138397-1.4382019
		c-0.0006409-65.1871796-0.0004883-130.3743439-0.0022278-195.5615234c-0.0000153-0.518631-0.0250092-1.037262-0.0383301-1.5558929
		c0.013382-2.0657196,0.0267334-4.1314316,0.0401154-6.1971512c0.319809-0.1597366,0.6396332-0.3194656,0.9594727-0.4791946
		c0.0132904,2.0654526,0.0265961,4.1308975,0.0398865,6.1963501c-0.0133057,0.3986969-0.038208,0.7973785-0.0382233,1.1960678
		c-0.001709,65.497963-0.0016632,130.9959106-0.0018311,196.4938354c0,0.43927-0.0022888,0.8785706-0.0039063,1.3178101
		C167.2056732,285.2579346,166.8912048,285.2379761,166.5746155,285.1455688z"></path>
	<path d="M184.2409515,224.3232422c-0.2526093,0.5730438-0.1569824,1.1800537-0.1572113,1.7732697
		c-0.0070343,19.0744019-0.0085602,38.148819-0.0109406,57.2231903c-0.2604065,0.2878113-0.5955353,0.2240601-0.9230499,0.1960144
		c-0.0098572-0.4388428-0.0283203-0.8777466-0.0283356-1.3165894c-0.0012512-28.3569031-0.0015564-56.7137909,0.002121-85.0706787
		c0.0001221-0.8369904,0.0439911-1.6739807,0.0674591-2.5109558c0.5817871,1.9378357,0.7595062,3.947403,1.0548553,5.9360962
		c-0.0420074,0.3930206-0.1187897,0.7858887-0.1205597,1.1791077c-0.0148773,3.2862854-0.017746,6.5726624-0.017868,9.8589935
		c-0.0000153,0.2715759-0.029129,0.5598145,0.1712189,0.7928467c-0.2490387,2.523056-0.4515076,5.0521088-0.7748871,7.5656128
		c-0.099823,0.7760315-0.1152344,1.4876099,0.1543121,2.2077942
		C183.9214325,222.8616333,184.1231537,223.5809021,184.2409515,224.3232422z"></path>
	<path d="M43.8544044,203.7288055c0.0217247,0.5177917,0.0623817,1.035553,0.0624466,1.5533447
		c0.0032005,25.6910095,0.0029907,51.3820038,0.0017357,77.0730133c-0.0000114,0.198822-0.0193825,0.397644-0.0297127,0.5964661
		c-0.3724365,0.1224365-0.6360855-0.1231079-0.9277534-0.2739258c-0.0003052-12.1741943,0.0054359-24.3484497-0.0069695-36.5226746
		c-0.0020294-1.9918823,0.1405067-3.9922638-0.2367668-5.9722443c-0.0430794-0.226059,0.0184631-0.4741669,0.0435295-0.7107697
		c0.32444-3.0622559,0.2686081-6.126709,0.0571289-9.1921844c0.5604362-1.9663849,0.2226372-3.9449158,0.0836411-5.9214172
		c-0.0558167-0.7937012-0.0934143-1.5887146-0.1393051-2.3831329c0.2126961-0.2799988,0.1531296-0.6119232,0.1545868-0.9225616
		c0.0179443-3.822403,0.0304718-7.6448669,0.0306664-11.4673157c0.0000191-0.3452911,0.0714569-0.7246857-0.2031288-1.0241852
		C42.9636879,206.9158173,43.1849861,205.2709045,43.8544044,203.7288055z"></path>
	<path d="M183.1800842,132.9983521c-0.0199585-1.5136719-0.0568237-3.0273743-0.0572357-4.5410461
		c-0.0042725-15.5168839-0.0023193-31.0337524-0.0043182-46.5506363c-0.000061-0.4378586-0.0249176-0.8757019-0.038208-1.3135529
		c0.0133362-3.0250854,0.0266724-6.0501556,0.0400085-9.0752335c0.2886505,0.0033951,0.489975-0.1905899,0.7205658-0.3184128
		c0.4428101,0.2785568,0.2242126,0.7173462,0.228714,1.0773087c0.0325775,2.6120071,0.03685,5.22435,0.0500793,7.8365936
		c-0.0133057,0.3984756-0.0381317,0.7969437-0.0381927,1.1954193c-0.0019836,12.8606949-0.0035858,25.7213821,0.0027924,38.582077
		c0.0004272,0.8751907-0.0668793,1.7584534,0.1586609,2.621727
		C184.0269928,126.0218506,183.5934448,129.509079,183.1800842,132.9983521z"></path>
	<path d="M43.9596825,80.5931244c-0.013298,0.438652-0.0379143,0.8772888-0.0382614,1.3159409
		c-0.0109673,13.986412-0.0194168,27.9728241-0.0292549,41.9592361c-0.0003357,0.4772949-0.0110016,0.9545746-0.0168495,1.4318695
		c-0.39925-1.6100693-0.3343735-3.2796249-0.6292953-4.9030609c-0.6337051-13.1857529-0.1187286-26.3798065-0.287117-39.5689163
		c-0.0030441-0.2383957-0.0252914-0.4765549-0.038578-0.7148209c0.013237-2.6122208,0.0175209-5.2245636,0.050106-7.8365402
		c0.0044861-0.3599777-0.2141075-0.7987366,0.2286263-1.0773468c0.1987534,0.2533798,0.6168518,0.1863174,0.7606163,0.5200348
		C43.8941994,74.6773911,43.8941841,77.6352615,43.9596825,80.5931244z"></path>
	<path d="M185.8026886,282.8141174c-0.0141602-1.7565613-0.0418243-3.5131531-0.0400543-5.2697144
		c0.006485-6.4277649,0.0227661-12.8555908,0.0353699-19.2833557c0.2847137,1.039917,0.217865,2.1171875,0.3060303,3.1750793
		c0.3042755,3.651001,0.539032,7.3077393,0.8002472,10.9622803c-0.1974945,0.3669434-0.1773987,0.771759-0.1774902,1.1647949
		c-0.0006409,2.8993225,0.0097198,5.7986755,0.0166168,8.6979675
		C186.5691833,282.6822815,186.2196655,282.8055115,185.8026886,282.8141174z"></path>
	<path d="M41.249424,263.668457c0.0016632,6.1040649,0.1012383,12.208252-0.022541,18.3121948
		c-0.628994-0.2399597-0.8474617-0.7259827-0.9467735-1.3669128c-0.1546669-0.99823,0.0086136-1.9830017,0.0035973-2.9733582
		c-0.0182991-3.614563,0.4542351-7.1972961,0.714447-10.793335C41.0747833,265.7879028,40.8976097,264.7055969,41.249424,263.668457
		z"></path>
	<path d="M185.7203217,70.2803497c0.1437225-0.3337708,0.5555725-0.2758179,0.7605743-0.52005
		c0.4429474,0.2787552,0.2245331,0.7177963,0.2286987,1.0778656c0.0321045,2.7717438,0.0368652,5.5438004,0.0500946,8.3157578
		c-0.0132904,2.7540817-0.0382538,5.5081558-0.0372772,8.2622223c0.0017242,4.8709335,0.0295258,9.7418671,0.0246429,14.6127777
		c-0.0017395,1.7213211-0.5188599,3.3648605-0.9866791,5.0392303c0-0.4814835,0-0.9629593-0.0000153-1.4444351
		c-0.0000763-8.2250748,0.0005035-16.4501495-0.0018768-24.6752319c-0.0001221-0.4382706-0.0248718-0.8765488-0.0381622-1.3148193
		C185.7860107,76.515892,185.7860107,73.3981171,185.7203217,70.2803497z"></path>
	<path d="M41.3196831,79.6336746c-0.0132942,2.9558792-0.0342026,5.9117355-0.038166,8.8676224
		c-0.006424,4.7942123-0.0017319,9.5884323-0.0560951,14.3851776c-0.4712906-2.7813721-0.9979897-5.5339813-0.9387703-8.3926315
		c0.1058807-5.1110687,0.0069771-10.2263794-0.006321-15.33992c0.0132332-0.4333954,0.0356064-0.8667297,0.0382118-1.3001862
		c0.0161324-2.6842804,0.0278244-5.3685837,0.0409889-8.0528793c0.3946075,0.0107117,0.7114563,0.1769257,0.9601402,0.4794922
		C41.2539825,73.3981247,41.2539673,76.5158997,41.3196831,79.6336746z"></path>
	<path d="M189.6396942,77.954628c-0.0132294,3.9532471-0.0812988,7.9074783-0.0108948,11.8592453
		c0.0257568,1.4448929-0.4281464,2.7093964-1.0285645,4.0067978c0-5.1286774,0-10.2573624,0-15.3860474
		c0.0133667-3.2650299,0.0267334-6.5300674,0.0401154-9.7950974c0.2278748-0.1339035,0.4304962-0.3249054,0.7204895-0.3184128
		c0.4430542,0.2788239,0.2247314,0.7179794,0.228775,1.0781097
		C189.6214905,72.2508545,189.6264648,75.1027832,189.6396942,77.954628z"></path>
	<path d="M37.6791077,68.3211288c0.29002-0.0065155,0.492672,0.1844711,0.7205658,0.3183975
		c0.0133629,3.2650299,0.0267296,6.5300598,0.0400925,9.7950897c0,3.7638931,0,7.5277863,0,11.2916794
		c-0.6446571-1.2005844-1.0706863-2.3858414-1.027298-3.7535019c0.0821609-2.5901718,0.0011864-5.1855164-0.0120125-7.7787094
		c0.0131912-2.9315796,0.0183105-5.8632355,0.0499573-8.7946167C37.4543076,69.0393066,37.2360497,68.6000595,37.6791077,68.3211288
		z"></path>
	<path d="M192.0005951,66.8818741c0.4436493,0.2787704,0.2252502,0.718277,0.2290344,1.0784683
		c0.0314941,3.011467,0.0368347,6.023201,0.0500793,9.0348663c-0.0071564,2.1894302-0.0391083,4.3791733-0.0110626,6.5681534
		c0.0141907,1.1072388-0.3041687,2.0885696-1.0284119,3.0181046c0-3.0354309,0-6.0708618,0-9.1062927
		c0.0133667-3.424942,0.0267334-6.8498764,0.0401154-10.2748184
		C191.5080872,67.0663147,191.7108765,66.8759308,192.0005951,66.8818741z"></path>
	<path d="M74.4396744,75.3174286c-0.013237,3.0116425-0.0186005,6.0233612-0.0501022,9.0348053
		c-0.0037613,0.3601837,0.2146683,0.7996826-0.2289429,1.0784836c-0.5969391-0.4410858-0.8483276-1.1310577-1.2401428-1.7198868
		c0.0131836-2.6919556,0.0176468-5.3840179,0.0499344-8.0757523c0.0043182-0.359993-0.2141953-0.7988968,0.2286987-1.0775299
		C73.7171249,74.6404572,74.0446396,75.0339966,74.4396744,75.3174286z"></path>
	<path d="M152.8793945,85.4307251c-0.4435883-0.278801-0.225235-0.7182846-0.2289886-1.0784836
		c-0.0314941-3.0114441-0.03685-6.0231705-0.0500793-9.0348129c0.392334-0.287796,0.7238617-0.6747894,1.240509-0.7598877
		c0.4429016,0.2784882,0.2242737,0.7172928,0.2287598,1.0772247c0.0325317,2.611908,0.0367737,5.2241669,0.0499573,7.836319
		C153.8824768,84.2357407,153.5055695,84.9120102,152.8793945,85.4307251z"></path>
	<path d="M35.7597618,67.2009201c0.0133133,3.4246674,0.0266304,6.84935,0.0399399,10.2740173
		c0,1.6139984,0,3.2279968,0,4.8419952c-0.6442451-0.782486-1.126339-1.5493622-1.0195198-2.5809402
		c0.0853348-0.8241272-0.0066223-1.6665955-0.019886-2.5009155c0.0132523-3.0915451,0.018795-6.1831589,0.0501175-9.2745209
		c0.0036507-0.3602295-0.2146912-0.7998352,0.2290039-1.0786896C35.3290901,66.8764572,35.5324631,67.0656662,35.7597618,67.2009201
		z"></path>
	<path d="M156.6805115,72.9191437c0.0263977,2.2381821,0.0527954,4.4763641,0.0791931,6.7145462
		c-0.2891846,0.6386871-0.5650635,1.2868881-1.2005005,1.6781769c-0.0262909-2.5578308-0.0525818-5.1156464-0.0788879-7.6734772
		C155.8934479,73.4204254,156.1372681,72.9202347,156.6805115,72.9191437z"></path>
	<path d="M70.2803268,79.8735428c0.0263901-2.3181381,0.0527802-4.6362686,0.0791702-6.9543991
		c0.5434265,0.0007782,0.7808838,0.5115585,1.2001877,0.719223c-0.013237,2.1922455-0.0154114,4.3846664-0.050621,6.576561
		c-0.0058517,0.3641663,0.2104111,0.7928925-0.1898499,1.0979156
		C70.9729233,80.8330765,70.6266251,80.3533096,70.2803268,79.8735428z"></path>
	<path d="M194.1427002,76.5054321c-0.0073242-3.5942383-0.0146484-7.1884689-0.0219727-10.7827148
		c0.1464691-0.3037796,0.4410248-0.2698212,0.7198944-0.3223419c0.053894,3.9774323,0.0943756,7.9395905-0.5518951,11.8418579
		C194.1035004,77.0590668,194.2671204,76.7470169,194.1427002,76.5054321z"></path>
	<path d="M67.6403046,75.7958908c0.0132523-1.1754303,0.0165405-2.3511124,0.0469131-3.5261078
		c0.00737-0.2849808-0.1575089-0.6429367,0.2321548-0.8304901c0.3201294,0.1863022,0.6402588,0.3725967,0.9603958,0.5588837
		c0.000061,1.4767227,0.0092468,2.9535522-0.0076218,4.4300842c-0.0033112,0.2892151,0.1623306,0.6534271-0.231514,0.8471375
		C68.1793518,76.8685608,67.802124,76.4049606,67.6403046,75.7958908z"></path>
	<path d="M159.1206207,71.4392776c0.3896179,0.187561,0.2248535,0.5455017,0.2322083,0.8304977
		c0.0303345,1.1749954,0.0336151,2.3506775,0.0468597,3.5261154c-0.3334351,0.4931717-0.6668701,0.9863434-1.0003052,1.4795074
		c-0.3938141-0.1937256-0.228241-0.5579224-0.2315369-0.8471451c-0.0168457-1.476532-0.0076599-2.9533615-0.0075989-4.4300919
		C158.4803619,71.8118668,158.8004913,71.6255722,159.1206207,71.4392776z"></path>
	<path d="M65.9997711,70.3191376c-0.1085968,0.9431839,0.2246094,1.9175415-0.2005463,2.8383865
		c-0.3594742-0.5516891-0.8841324-1.0013351-1.0387802-1.6795654c0.0263596-0.5590286,0.0527191-1.1180496,0.0790787-1.6770782
		C65.2956314,69.8185349,65.6240387,70.1217422,65.9997711,70.3191376z"></path>
	<path d="M161.0792542,73.1565857c-0.0130005-0.945816-0.026001-1.8916397-0.0390167-2.8374557
		c0.3202209-0.1862717,0.6404419-0.372551,0.9606628-0.5588226c0.4904175,0.5081024,0.0904846,1.1604691,0.2786255,1.7175522
		C161.9908905,72.1170425,161.7145386,72.7649841,161.0792542,73.1565857z"></path>
	<path d="M32.8139229,66.2337341c-0.0005913,2.7684555-0.0011826,5.536911-0.0017776,8.3053741
		C32.6306114,71.770607,32.5649796,69.0021362,32.8139229,66.2337341z"></path>
	<path d="M163.9193878,69.1200562c-0.1432037-0.0428238-0.2362518-0.1357803-0.2790833-0.278923
		c0.0968018-0.1896591,0.2493439-0.3345337,0.4315796-0.1524124
		C164.2541046,68.8708344,164.1091461,69.0233002,163.9193878,69.1200562z"></path>
	<path d="M63.3997154,68.8411331c-0.0428467,0.1431351-0.1358948,0.2360916-0.2790985,0.278923
		c-0.1897125-0.0967712-0.3347435-0.2491913-0.1524887-0.4313354C63.150383,68.5065689,63.3028946,68.6515198,63.3997154,68.8411331
		z"></path>
</g>
</svg>
