<!--?xml version="1.0" encoding="utf-8"?-->
<!-- Generator: Adobe Illustrator 24.2.3, SVG Export Plug-In . SVG Version: 6.00 Build 0)  -->
<svg version="1.1" id="Camada_1" xmlns="http://www.w3.org/2000/svg" xmlns:xlink="http://www.w3.org/1999/xlink" x="0px" y="0px" viewBox="0 0 229 418" enable-background="new 0 0 229 418" xml:space="preserve">
<g onclick="select(this)" class="" id="gola-primaria" fill="#801815">
	<path d="M77.9532471,7.9597087c0.5442505-0.060823,0.9727707-0.3512921,1.3516617-0.7144079
		c0.9517365-0.9121184,2.0429764-1.7265453,2.8068085-2.7772608c1.8079834-2.4870243,4.3546143-3.3584313,7.2153091-3.7517483
		c0.6288223-0.0864561,1.3583603,0.0999947,1.8729782-0.4764293c1.1999969,0,2.4000015,0,3.5999985,0
		c0.1687851,0.4909054,0.5990448,0.3124139,0.9139023,0.3135658c5.578331,0.0204086,11.1567383,0.0201361,16.7350998,0.0349731
		c0.4080353,0.0010852,0.7730331-0.0500705,1.0709991-0.3485389c7.5200043,0,15.0400085,0,22.5599976,0
		c0.0825958,0.4743731,0.4898376,0.314371,0.7612457,0.3588615c0.9795685,0.1605658,1.9686432,0.2631895,2.9482422,0.4236063
		c1.9836426,0.3248397,3.6553192,1.1195358,4.9371796,2.7921867c1.2989502,1.6949463,2.7366943,3.3046651,4.6419373,4.3876162
		c1.3338318,0.559351,1.940094,1.5309258,1.8434601,3.0019283c-0.235611,3.5861683-1.9489136,6.5051785-4.0314026,9.2897568
		c-0.4823914,0.6450272-0.8012085,0.5242634-1.3224487,0.1134567c-1.6621094-1.3100014-3.3261108-2.6210308-5.045578-3.8533516
		c-0.7900696-0.5662289-0.9149628-0.926733-0.2011108-1.7098112c1.5596924-1.7109747,2.8257294-3.6363506,3.6953278-5.9588709
		c-3.8121643,0.2876577-7.46698,0.5966864-11.1264954,0.832839c-8.2862701,0.5347214-16.5606079,1.3604345-24.8863144,0.8980713
		c-7.9773407-0.443017-15.9347458-1.1162539-23.8829803-1.9115543c-1.285965-0.1286755-1.369072-0.044939-0.8895187,1.1417885
		c0.8056946,1.9938097,2.0816574,3.6765404,3.5389481,5.2270527c0.5396957,0.5742092,0.6279068,0.9768744-0.0833054,1.5165873
		c-1.717453,1.3033161-3.394783,2.6610584-5.0562897,4.0355015c-0.5477753,0.4531364-0.8727188,0.4428539-1.3376007-0.1304188
		c-1.9395523-2.3917847-3.4067764-5.0153084-4.1501999-8.0189981C75.8739624,10.416997,76.2670898,9.2020445,77.9532471,7.9597087z"></path>
</g>
<g onclick="select(this)" class="" id="estampa-primaria" fill="#801815">
	<path d="M43.1515503,120.3646698c-0.1404991-2.3006744-0.1914711-4.6079102-0.6132278-6.885849
		c-0.0899544-0.485817-0.2391663-0.6317444-0.6915321-0.4280777c-2.4907532,1.1215134-5.2097473,1.1106415-7.8384094,1.4879227
		c-1.4780464,0.2121429-3.0204296-0.0509491-4.5338783-0.0523834c-4.2323608-0.0040283-8.4661789-0.0824814-12.6740704-0.5230713
		c-3.80264-0.3981781-7.5636272-1.0788956-11.1697559-2.440567c-1.449275-0.5472488-2.9991877-0.8545074-4.2283468-1.8888321
		c1.7889749-9.4180679,2.6642451-18.9717102,4.2234063-28.4253159C6.476234,76.0517044,6.7927861,70.8162842,7.9036627,65.691246
		c1.7424269-8.0386963,4.4395752-15.6649666,9.3638182-22.3660049c2.1397705-2.9118538,4.5772095-5.5549202,7.4105587-7.7961693
		c1.3626118-1.0778542,2.3616104-2.5712852,3.923933-3.3974419c3.6044178-1.9060097,7.2547016-3.723999,11.025713-5.2781143
		c9.9812241-4.1134815,19.9857483-8.1736889,29.442276-13.433075c1.9732819-1.0974712,4.0098419-2.0742865,5.5134583-3.8943434
		c0.8124695-0.9834595,1.9979477-1.5784073,3.3699265-1.5663853c-1.6862564,1.2423325-2.0793839,2.4572849-1.5202484,4.7163982
		c0.7434235,3.0036898,2.2106476,5.6272135,4.1501999,8.0189981c0.4648819,0.5732727,0.7898254,0.5835552,1.3376007,0.1304188
		c1.6615067-1.3744431,3.3388367-2.7321854,5.0562897-4.0355015c0.7112122-0.5397129,0.6230011-0.942378,0.0833054-1.5165873
		c-1.4572906-1.5505123-2.7332535-3.233243-3.5389481-5.2270527c-0.4795532-1.1867275-0.3964462-1.2704639,0.8895187-1.1417885
		c7.9482346,0.7953005,15.9056396,1.4685373,23.8829803,1.9115543c8.3257065,0.4623632,16.6000443-0.3633499,24.8863144-0.8980713
		c3.6595154-0.2361526,7.3143311-0.5451813,11.1264954-0.832839c-0.8695984,2.3225203-2.1356354,4.2478962-3.6953278,5.9588709
		c-0.7138519,0.7830782-0.5889587,1.1435823,0.2011108,1.7098112c1.7194672,1.2323208,3.3834686,2.5433502,5.045578,3.8533516
		c0.5212402,0.4108067,0.8400574,0.5315704,1.3224487-0.1134567c2.082489-2.7845783,3.7957916-5.7035885,4.0314026-9.2897568
		c0.0966339-1.4710026-0.5096283-2.4425774-1.8434601-3.0019283c1.8036041-0.1237278,2.9669189,0.9629507,4.043045,2.1744213
		c0.3423309,0.3853559,0.6636658,0.7412128,1.1135864,1.0353756c10.0124969,6.5462341,21.2043915,10.6002197,32.1449432,15.1727829
		c3.9642639,1.6568451,7.7808228,3.6279182,11.7509613,5.2658405c1.1914215,0.4915409,1.9353333,1.6271687,2.9535828,2.3855915
		c3.5110168,2.6150703,6.6709747,5.5916252,9.3223114,9.0906715c4.8722534,6.4300346,7.6369781,13.775341,9.3872375,21.560955
		c0.6486359,2.8853226,1.186264,5.7949905,1.4686127,8.7377701c0.5558472,5.7934952,2.2961578,11.3432922,3.4221191,17.0187912
		c1.0883484,5.4858246,1.7017517,11.0482101,2.7525024,16.5389175c0.0593872,0.3102341,0.0377197,0.6359482,0.053772,0.9545135
		c-3.2637939,1.303833-6.582428,2.4195786-10.0181885,3.2038116c-3.1164703,0.7113266-6.2818298,1.1122208-9.4234467,1.66082
		c-3.0315704,0.5293884-6.0936737,0.7425232-9.1736145,0.7394409c-4.2304077-0.0042343-8.4836426,0.2719727-12.655899-0.596138
		c-1.2034302-0.2503891-1.4215546,0.1192093-1.6173706,1.1066895c-0.3850555,1.9416962-0.2653351,3.8918304-0.2623901,5.8428955
		c-0.4411316,0.8073425-0.294342,1.7092896-0.3958435,2.5675964c-0.9905243,8.376976-1.7194824,16.772728-1.7455292,25.2169876
		c-0.0067902,2.2001038,0.0669098,4.3846893,0.523468,6.5547638c0.4015656,1.9087067-0.0415955,3.8243256-0.2045593,5.7283325
		c-0.181076,2.1157532-0.2705383,4.2298737-0.1432648,6.3460541c0.1518402,2.5245819-0.2316589,5.0275574-0.2313995,7.5436859
		c0.0002747,2.5966339-0.0800171,5.1951904,0.1816406,7.7869263c0.2424622,2.401474-0.2102966,4.7841187-0.2298737,7.1815948
		c-0.0185547,2.2703705,0.5234375,4.434845,1.0016937,6.6138458c1.5915985,7.2516785,1.3577728,14.5254669,0.321991,21.8117981
		c-0.3045654,2.1425323-0.3740692,4.2081604,0.3273163,6.3549805c1.772522,5.4253693,1.8140717,11.004364,0.9409332,16.6020203
		c-0.2309723,1.4807892-0.2497253,2.9243011,0.0909424,4.3914642c0.8872986,3.8212128,0.4440155,7.7200317,0.6459045,11.5819855
		c0.3085022,5.9015503,0.6915588,11.7999573,1.4322815,17.6716309c0.2583313,2.0477295,0.2249298,4.1363525,0.2557526,6.2073364
		c0.0257568,1.7311096-0.3525696,2.2270203-2.0640717,2.7422485c-3.0049744,0.9046326-6.1232452,1.1564636-9.2236786,1.4806824
		c-8.3243256,0.8704529-16.684082,0.875061-25.0398712,1.0386353c-11.5935974,0.2269592-23.1845932,0.774292-34.7774734,0.796814
		c-11.5119629,0.0223999-23.0147552-0.7998352-34.53302-0.8546448c-8.3570328-0.0397644-16.7156677-0.1080933-25.0555153-0.7388611
		c-4.2287102-0.3198242-8.4451218-0.7576904-12.5860748-1.7210693c-3.6356277-0.8458252-3.9869041-1.1677856-3.7778854-4.8088684
		c0.4413528-7.6882935,0.9998283-15.3699951,1.5411453-23.0522461c0.140564-1.9948425,0.2801247-3.9875031,0.2333336-5.9868927
		c-0.0440826-1.8836212,0.0298157-3.7575989,0.3702316-5.6125793c0.4073219-2.2195892,0.4394226-4.4304352,0.1149673-6.671875
		c-0.3644104-2.5174713-0.1079674-5.0299683,0.4367638-7.5027313c0.2282982-1.0363312,0.1923027-2.0486298,0.1161079-3.0909729
		c-0.3318748-4.5399933-1.0253105-9.059433-0.8239441-13.631073c0.1898727-4.3105927,1.2076683-8.4514313,2.6681671-12.4867859
		c0.3758659-1.0385284,0.6182938-2.0305634,0.4542694-3.1416168c-0.1813393-1.228302-0.1615372-2.4718628,0.0717125-3.7012024
		c0.3159981-1.6654663,0.1919746-3.3271332,0.1082954-5.010376c-0.1643028-3.3049622-0.1748161-6.6190948-0.1883888-9.9297028
		c-0.0528755-12.8978577-0.0415001-25.7961121-0.1398544-38.693573c-0.0396805-5.2032166-0.9885941-10.3359528-1.5531769-15.4973145
		C43.6142197,122.9056549,43.766777,121.5702896,43.1515503,120.3646698z"></path>
</g>
<g onclick="select(this)" class="" id="detalhe-punho" fill="#bf0811">
	<path d="M0.24,114.6542282c0.583228-1.0720215,0.3827578-2.3065491,0.7111229-3.43367
		c0.1536794-0.5275192,0.13833-1.1031189,0.4512064-1.5867462c1.2291592,1.0343246,2.7790718,1.3415833,4.2283468,1.8888321
		c3.6061287,1.3616714,7.367116,2.0423889,11.1697559,2.440567c4.2078915,0.4405899,8.4417095,0.519043,12.6740704,0.5230713
		c1.5134487,0.0014343,3.0558319,0.2645264,4.5338783,0.0523834c2.6286621-0.3772812,5.3476563-0.3664093,7.8384094-1.4879227
		c0.4523659-0.2036667,0.6015778-0.0577393,0.6915321,0.4280777c0.4217567,2.2779388,0.4727287,4.5851746,0.6132278,6.885849
		c-0.5703659,0.5544662-1.3241272,0.738678-2.0481415,0.9182892c-2.2502251,0.558197-4.5420418,0.9585571-6.8565636,1.0050888
		c-7.5839615,0.1524811-15.1675758,0.2204361-22.6745911-1.1818542c-3.0145712-0.5631256-6.0234237-1.1427994-8.9364958-2.1202469
		c-0.8156703-0.2736893-1.598085-0.6463776-2.3957574-0.9736481C0.24,116.8929443,0.24,115.7735825,0.24,114.6542282z"></path>
	<path d="M184.6303711,120.0952835c-0.0029449-1.9510651-0.1226654-3.9011993,0.2623901-5.8428955
		c0.195816-0.9874802,0.4139404-1.3570786,1.6173706-1.1066895c4.1722565,0.8681107,8.4254913,0.5919037,12.655899,0.596138
		c3.0799408,0.0030823,6.1420441-0.2100525,9.1736145-0.7394409c3.1416168-0.5485992,6.3069763-0.9494934,9.4234467-1.66082
		c3.4357605-0.7842331,6.7543945-1.8999786,10.0181885-3.2038116c0.9974213,2.4374161,1.2762146,4.9902496,1.1629181,7.5927658
		c-0.0325317,0.747139-0.7740631,0.8473129-1.2987061,1.0544434c-2.490799,0.9832916-5.0855103,1.6438446-7.6618347,2.3490143
		c-9.1388245,2.5013885-18.4691162,3.110321-27.8868713,2.635231c-2.0218353-0.102005-4.0606384-0.308609-6.0298462-0.8818054
		C185.5262299,120.7300262,184.9997559,120.5578766,184.6303711,120.0952835z"></path>
</g>
<path d="M185.3574982,247.3600006c-0.1799927-0.2400055-0.1699982-0.5099945-0.1000061-0.7799988
	C185.4375,246.8200073,185.4075012,247.0899963,185.3574982,247.3600006z"></path>
<polygon fill="#F5DC34" points="43.2775002,121.4700012 43.3175011,121.5400009 43.2875023,121.6100006 43.2175026,121.5400009 "></polygon>
<g onclick="select(this)" class="" id="estampa-secundaria" fill="#bf0811">
	<path d="M42.1899986,245.3542938c0.5900002-3.2799988,0.7299995-6.5599976,0.2900009-9.8800049
		c-0.2000008-1.5-0.0900002-3.0399933,0.2299995-4.5299988c0.8899994-4.1499939-0.0499992-8.25-0.2999992-12.3699951
		c-0.0900002-1.4400024-0.1300011-2.8699951-0.1199989-4.3000031c0.3899994,0.0099945,0.6599998,0.2700043,0.9599991,0.4600067
		c2.8600006,1.8300018,5.7099991,3.6799927,8.5800018,5.4900055C72.0599976,233.0243073,92.2900009,245.8143005,112.5,258.6442871
		c0.8300018,0.5299988,1.3700027,0.4599915,2.1200027-0.019989c5.9000015-3.7599792,11.8099976-7.4899902,17.7199936-11.2299805
		c16.7099915-10.5800018,33.4299927-21.1600037,50.1399994-31.75c0.4700012-0.3000031,0.9400024-0.6100006,1.5299988-0.5899963
		c0.0399933,1.7599945-0.2799988,3.4900055-0.5099945,5.2200012c-0.0800018,0.5899963-0.0399933,1.0899963,0.1399994,1.6199951
		c1.9900055,5.8899994,2.5200043,11.9199982,1.4600067,18.0500031c-0.3500061,2.0200043-0.0899963,3.9600067,0.2700043,5.9199982
		c-0.0700073,0.2700043-0.0800018,0.5399933,0.1000061,0.7799988c-0.0099945,0.1399994-0.0200043,0.2899933-0.0299988,0.4299927
		c-0.4499969,0.2599945-0.9100037,0.5-1.3500061,0.7700043c-19.0200043,11.5199738-38.0299988,23.0599823-57.0500031,34.5599823
		c-2.2099991,1.3399963-4.3199997,2.8699951-6.7300034,3.8599854c-4.75,0.1000061-9.4899979,0.1099854-14.2300034-0.25
		c-5.0999985-3.0700073-10.2200012-6.1099854-15.3099976-9.2000122
		c-15.5899963-9.4400024-31.1599998-18.9100037-46.7799988-28.3099823
		C42.6800003,247.7242889,41.8600006,246.9342804,42.1899986,245.3542938z"></path>
	<path d="M43.8600006,203.7342834c0.1699982-0.6900024,0.25-1.4299927,0.5299988-2.0700073
		c0.9500008-2.1300049,0.8199997-4.3600006,1-6.6199951c0.4399986-5.6199951,0-11.2100067-0.0099983-16.8099976
		c0-0.8800049-0.0499992-1.75-0.0699997-2.6300049c0.3600006,0.1600037,0.7400017,0.2899933,1.0800018,0.4900055
		c10.4700012,6.0800018,20.9300041,12.1900024,31.4099998,18.25c11.5200043,6.6600037,23.0800018,13.2599945,34.5999985,19.9199982
		c0.8499985,0.4900055,1.4800034,0.4400024,2.2799988-0.0399933c3.0599976-1.8099976,6.1500015-3.5800018,9.2300034-5.3500061
		c14.3000031-8.25,28.5899963-16.5,42.8899994-24.7400055c5.1900024-2.9900055,10.3999939-5.9600067,15.6000061-8.9300079
		c-0.0599976,4.1100006,0.4900055,8.2100067,0.0500031,12.3399963c-0.3399963,3.1399994,0.6699982,6.1499939,1.25,9.1999969
		c0.3500061,1.8300018,0.6999969,3.6799927,0.6300049,5.5700073c-0.5399933,0.8000031-1.1699982,1.4700012-2.0099945,2
		c-15.3500061,9.8099976-30.6900024,19.6600037-46.0399933,29.4700012c-7.1000061,4.5399933-14.25,9.0099945-21.3700027,13.5399933
		c-0.9599991,0.6100006-1.75,0.6499939-2.7399979,0c-4.0500031-2.6399994-8.1500015-5.2100067-12.2200012-7.8099976
		c-9.7700043-6.2299957-19.5400009-12.4600067-29.3099976-18.6900024
		C61.7099991,215.1342926,52.7900009,209.4342804,43.8600006,203.7342834z"></path>
	<path d="M45.3199997,161.9642792c-0.3400002-2.1100006,0.0600014-4.2200012,0.0299988-6.3300018
		c-0.0600014-3.9499969,0.0200005-7.9100037,0.0400009-11.8600006c0.2599983,0.1000061,0.5400009,0.1600037,0.7799988,0.3000031
		c3.0099983,1.6600037,6.0100021,3.3300018,9.0200005,4.9900055c19.079998,10.5700073,38.170002,21.1399994,57.2400017,31.7299957
		c0.8000031,0.4499969,1.4000015,0.4400024,2.1900024,0c7.5699997-4.2299957,15.1700058-8.4100037,22.7499924-12.6100006
		c12.1600037-6.7400055,24.3099976-13.5,36.4900055-20.2099915c2.8999939-1.6000061,5.7200012-3.3600006,8.75-4.7100067
		c-0.0200043,2-0.0500031,4-0.0399933,6c0,1.3600006,0.0299988,2.7200012,0.2899933,4.0599976
		c0.5299988,2.7200012-0.0099945,5.4100037-0.2200012,8.1199951c-0.1100006,0.0500031-0.2200012,0.0899963-0.3200073,0.1499939
		c-14.25,8.9400024-28.5099945,17.8699951-42.7599945,26.8099976c-8.2299957,5.1600037-16.4499969,10.3199921-24.6699982,15.4900055
		c-0.8499985,0.5299988-1.5800018,0.6999969-2.5299988,0.1000061C97.75,194.8042755,83.1200027,185.6442719,68.4900055,176.4742737
		C60.7700005,171.6342926,53.0400009,166.8042908,45.3199997,161.9642792z"></path>
	<path d="M43.2700005,120.2442856c-0.0900002-3-0.6100006-5.9599991-0.9199982-8.9400024
		c-0.0299988-0.3099976-0.2200012-0.7099991,0.0099983-0.9199982c0.3300018-0.2900009,0.6599998,0.1100006,0.9500008,0.25
		c13.1300011,6.3700027,26.2499962,12.7600021,39.3699989,19.1299973c10,4.8600006,20,9.6999969,29.9899979,14.5699921
		c0.5999985,0.2899933,1.0599976,0.3099976,1.6600037,0.0099945c11.8600006-5.7899933,23.7200012-11.5500031,35.5899963-17.3199997
		c11.3999939-5.5400009,22.8000031-11.0800018,34.1999969-16.6100006c0.3200073-0.1500015,0.6600037-0.2699966,1.1799927-0.4800034
		c-0.1900024,3.4499969-0.7400055,6.7399979-0.7599945,10.0699997c-0.25,2.2200012-0.5099945,4.4400024-0.7599945,6.659996
		c-5.1900024,2.9100037-10.3899994,5.8200073-15.5800018,8.7299957
		c-8.4400024,4.7200012-16.8800049,9.4400024-25.3199921,14.1600037c-9.4199982,5.2700043-18.8300018,10.5299988-28.25,15.8000031
		c-0.7699966,0.4299927-1.4899979,0.4100037-2.2600021-0.0200043c-7.3899994-4.1399994-14.7900009-8.2700043-22.1800003-12.3999939
		c-15.3399963-8.5800018-30.6900024-17.1699982-46.0299988-25.75c-0.4199982-2.0699997-0.5099983-4.1900024-0.7599983-6.2799988
		l0.0400009-0.0699997l-0.0499992-0.0699997C43.3499985,120.5842896,43.3100014,120.4142838,43.2700005,120.2442856z"></path>
	<path d="M185.7100067,256.3542786c0.4100037,5.2999878,0.7599945,10.6000061,1.2599945,15.8900146
		c0.2299957,2.4200134,0.4100037,4.8399963,0.5599976,7.2600098c0.1399994,2.3399963-0.3600006,3.0599976-2.6399994,3.6700134
		c-3.4900055,0.9400024-7.0800018,1.1300049-10.6499939,1.4500122c-10.1199951,0.9100037-20.2799988,0.75-30.4300079,0.9700012
		c-0.8399963,0.019989-1.6799927,0.0400085-2.5200043,0.0599976c-0.7899933-0.2000122-1.6199951,0.1600037-2.5500031-0.1799927
		c0.3999939-0.2799988,0.6799927-0.5,0.9799957-0.6900024c12.8999939-8.019989,25.8000031-16.0499878,38.7200012-24.0499878
		C180.8399963,259.2642822,183.1600037,257.6142578,185.7100067,256.3542786z"></path>
	<path d="M88.0999985,285.544281c-11.6200027-0.25-23.2699966,0-34.8600006-1.1499939
		c-3.6599998-0.3599854-7.3100014-0.7900085-10.8199997-1.9700012c-1.9199982-0.6400146-2.2400017-1.0599976-2.1800003-3.0400085
		c0.2400017-7.5799866,0.9599991-15.1300049,1.4799995-22.6900024c0.4700012-0.0100098,0.8300018,0.269989,1.2000008,0.5
		c14.1399994,8.7799988,28.2799988,17.5599976,42.4000015,26.3699951
		C86.2799988,284.1642761,87.4000015,284.56427,88.0999985,285.544281z"></path>
	<path d="M113.4800034,123.8942871c-0.4199982,0-0.7699966-0.1900024-1.1299973-0.3600006
		c-9.1999969-4.3000031-18.4000015-8.5899963-27.5999985-12.8899994
		c-15.0999985-7.0599976-30.1900024-14.1299973-45.2999992-21.1699982
		c-0.9799995-0.4499969-1.5299988-1.0599976-1.9199982-2.0800018c-1.1899986-3.0800018-2.2299995-6.2300034-3.7099991-9.1999969
		c-0.2200012-0.4499969-0.6199989-1.0800018-0.3100014-1.4400024c0.3800011-0.4400024,0.9399986,0.1299973,1.3800011,0.3000031
		C53.25,84.2842865,71.6200027,91.5142899,89.9800034,98.7442856c7.5500031,2.9700012,15.0999985,5.9300003,22.6399994,8.9300003
		c0.7600021,0.3000031,1.3700027,0.1500015,2.0500031-0.1200027c15.4599991-6.0999985,30.9300003-12.1800003,46.4000015-18.2699966
		c10.7100067-4.2099991,21.4199982-8.4199982,32.1300049-12.6299973c0.3200073-0.1299973,0.6900024-0.4700012,1-0.2399979
		c0.3300018,0.25,0.0500031,0.6699982-0.0200043,1.0100021c-0.6399994,3.3899994-1.6999969,6.6399994-3.1600037,9.7699966
		c-0.2899933,0.6299973-0.7200012,1.0100021-1.3300018,1.2900009c-10.2899933,4.8000031-20.5700073,9.6100006-30.8500061,14.4199982
		c-9.5200043,4.4499969-19.0400085,8.909996-28.5700073,13.3600006c-5.0699997,2.3700027-10.1299973,4.75-15.2099991,7.1100006
		C114.5599976,123.6242828,114.0599976,123.8942871,113.4800034,123.8942871z"></path>
</g>
</svg>
