<!--?xml version="1.0" encoding="utf-8"?-->
<!-- Generator: Adobe Illustrator 24.2.3, SVG Export Plug-In . SVG Version: 6.00 Build 0)  -->
<svg version="1.1" id="Camada_1" xmlns="http://www.w3.org/2000/svg" xmlns:xlink="http://www.w3.org/1999/xlink" x="0px" y="0px" viewBox="0 0 234 419" enable-background="new 0 0 234 419" xml:space="preserve">
<g onclick="select(this)" class="" id="c-gola-primaria" fill="#000000">
	<path d="M82.08,7.93c1.97-1.73,3.69-3.68,5.48-5.58c1.36-1.44,3.41-1.56,5.31-1.81c0.41-0.05,0.89,0.13,1.22-0.29
		c15.92,0,31.84,0,47.76,0c0.94,0.47,1.99,0.45,2.98,0.7c1.63,0.41,3.04,1.12,4.1,2.48c1.27,1.65,2.89,2.95,4.48,4.28
		c-4.25,0.57-8.51,1.15-12.76,1.71c-7.01,0.93-14.08,1.09-21.13,1.55c-4.35,0.28-8.69-0.31-13.04-0.49
		c-3.19-0.13-6.37-0.39-9.55-0.75C91.97,9.16,87.06,8.26,82.08,7.93z"></path>
</g>
<g onclick="select(this)" class="" id="c-estampa-secundaria" fill="#000000">
	<path d="M48.73,190.14c5.76-4.44,11.53-8.87,17.28-13.33c41.94-32.47,83.88-64.95,125.83-97.43
		c0.31-0.24,0.57-0.57,1-0.64c0.34,0.41-0.11,0.63-0.22,0.93c-0.92,2.73-1.25,5.57-1.59,8.42c-0.4,3.37-0.39,6.77-0.74,10.14
		c-0.16,1.49-0.86,2.88-1.01,4.39c-0.18,1.78-0.48,3.56-0.27,5.37c0.16,1.37-0.08,2.7-0.3,4.04c-0.04,0.27-0.08,0.46,0.19,0.58
		c-0.09,0.49-0.16,1.03-0.16,1.5c-0.01,1.16-0.62,2.26-0.28,3.43c-0.21,0.04-0.37,0.13-0.36,0.38c-0.38,0.3-0.75,0.6-1.13,0.89
		c-43.35,33.57-86.7,67.15-130.06,100.72c-3.19,2.47-6.38,4.94-9.6,7.38c-0.15,0.12-0.41,0.95-0.8,0.13
		c1.42-3.53,0.84-7.15,0.43-10.74c-0.81-7.15-0.1-14.19,1.34-21.18C48.64,193.48,48.74,191.82,48.73,190.14z"></path>
	<path d="M44.35,268.35c0.42-4.26,0.84-8.51,0.77-12.8c-0.05-3.17,0.3-6.29,0.88-9.4c0.31-1.67-0.12-3.35-0.26-5.01
		c-0.19-2.28-0.18-4.55-0.12-6.83c1.78-1.36,3.56-2.71,5.33-4.08c45.14-35.1,90.28-70.2,135.42-105.3c0.25-0.2,0.48-0.45,0.77-0.56
		c0.42-0.17,0.17,0.31,0.32,0.42c-0.76,7.62-1.08,15.26-0.82,22.92c0.14,4.18,0.28,8.37,0.06,12.55c-1.11,0.84-2.24,1.67-3.34,2.53
		c-45.97,35.74-91.93,71.48-137.9,107.22c-0.32,0.25-0.6,0.63-1.11,0.66C44.35,269.86,44.35,269.1,44.35,268.35z"></path>
	<path d="M73.67,289.2c-4.69-0.11-9.36-0.59-14.01-1.18c-4.7-0.6-9.36-1.44-13.87-2.91
		c-2.24-0.73-2.41-1.03-2.32-3.36c0.05-1.19,0.15-2.39,0.23-3.58c0.16-0.63,0.48-1.09,1.02-1.5
		c46.89-36.37,93.76-72.76,140.64-109.13c0.34-0.26,0.62-0.64,1.1-0.69c-0.27,4.63,0.22,9.25,0.22,13.88c0,2.96-0.1,5.91-0.49,8.84
		c-0.27,1.97-0.09,3.9,0.14,5.84c0.1,0.84,0.19,1.68,0.06,2.51c-0.21,1.32,0.13,2.52,0.61,3.71c-0.03,0.58-0.55,0.75-0.91,1.03
		c-36.82,28.59-73.65,57.18-110.47,85.78C75.02,288.89,74.42,289.19,73.67,289.2z"></path>
	<path d="M188.39,207.14c1.21,4.98,1.21,10.02,0.83,15.09c-0.19,2.58-0.43,5.17-0.53,7.75
		c-0.04,0.93,0.27,1.88,0.42,2.83c0.49,3.1,0.22,6.21-0.02,9.31c-0.13,0.09-0.27,0.17-0.4,0.26c-18.99,14.75-37.99,29.5-56.97,44.26
		c-1.73,1.34-3.33,2.89-5.78,2.53c-7.07-0.11-14.13,0.1-21.2,0.18c-7.47,0.09-14.93,0.05-22.4,0.06c0.23-0.22,0.44-0.45,0.68-0.65
		c33.87-26.31,67.74-52.61,101.62-78.9C185.86,208.92,186.96,207.8,188.39,207.14z"></path>
</g>
<g onclick="select(this)" class="" id="c-estampa-primaria" fill="#bf0811">
	<path d="M46.56,119.24c0.1-1.99-0.59-3.92-0.47-5.92c0.04-0.68-0.33-0.75-0.83-0.57c-0.37,0.13-0.73,0.31-1.08,0.51
		c-1.07,0.61-2.25,0.92-3.43,0.94c-6.79,0.11-13.57,0.11-20.28-1.29c-2.88-0.6-5.85-0.78-8.75-1.27c-2.87-0.48-5.72-1.12-8.58-1.68
		c-0.51-0.1-1.03-0.16-1.45-0.51c1.54-9.55,3-19.12,5.57-28.47c0.89-3.23,1-6.6,1.58-9.9c0.85-4.84,2.04-9.58,3.71-14.21
		c1.78-4.92,4.11-9.53,7.35-13.63c2.63-3.33,5.75-6.18,9.01-8.9c4.2-3.5,9.33-5.12,14.21-7.21c8.14-3.49,16.36-6.79,24.36-10.61
		c3.14-1.5,6.05-3.41,8.98-5.27c0.41-0.26,0.71-0.62,1.03-0.98c1.17-1.32,2.52-2.33,4.4-2.32c0.07-0.02,0.13-0.04,0.2-0.06
		c0,0-0.01,0.02-0.01,0.02c4.98,0.33,9.89,1.23,14.84,1.8c3.17,0.36,6.36,0.62,9.55,0.75c4.35,0.18,8.69,0.77,13.04,0.49
		c7.05-0.45,14.12-0.62,21.13-1.55c4.25-0.56,8.51-1.14,12.76-1.71c2.07,0.17,3.64,1.2,5,2.73c1.15,1.3,2.78,2,4.28,2.83
		c9,4.97,18.41,9.06,27.95,12.88c3.08,1.23,6.04,2.74,9.08,4.05c6.23,2.7,10.71,7.42,14.83,12.52c5.49,6.79,8.36,14.82,10.34,23.21
		c1.08,4.58,1.71,9.23,2.23,13.91c0.4,3.56,1.17,7.07,1.72,10.61c0.64,4.09,1.18,8.2,1.82,12.29c0.38,2.44,0.82,4.87,1.3,7.29
		c0.12,0.6,0.11,1.19,0.21,1.78c-2.09,0.5-4.16,1.14-6.28,1.46c-4.42,0.65-8.85,1.2-13.29,1.64c-3.01,0.3-5.98,0.97-9.04,0.78
		c-2.07-0.13-4.16-0.24-6.22-0.13c-2.91,0.15-5.44-0.52-7.48-2.68c-0.27-0.29-0.53-0.48-0.92-0.23c-0.27-0.13-0.24-0.32-0.19-0.58
		c0.22-1.34,0.46-2.67,0.3-4.04c-0.21-1.8,0.08-3.58,0.27-5.37c0.16-1.51,0.86-2.91,1.01-4.39c0.36-3.37,0.34-6.77,0.74-10.14
		c0.34-2.84,0.67-5.68,1.59-8.42c0.1-0.3,0.56-0.52,0.22-0.93c-0.43,0.07-0.69,0.4-1,0.64c-41.94,32.47-83.88,64.95-125.83,97.43
		c-5.75,4.45-11.52,8.88-17.28,13.33c-0.55-3.33-0.15-6.68-0.22-10.02c-0.13-5.75-0.15-11.5-0.29-17.25
		c-0.06-2.43-0.45-4.87-0.2-7.29c0.43-4.07,0.27-8.14,0.16-12.21c-0.14-5.05-0.6-10.1-0.85-15.15c-0.11-2.27-0.07-4.55-0.28-6.81
		C46.98,120.66,47.01,119.9,46.56,119.24z"></path>
	<path d="M125.94,289.17c2.45,0.36,4.06-1.19,5.78-2.53c18.98-14.76,37.98-29.51,56.97-44.26
		c0.12-0.1,0.26-0.18,0.4-0.26c0.85,5.16,0.7,10.41,1.18,15.6c0.26,2.82,0.36,5.65,0.55,8.47c0.21,3.14,0.58,6.28,0.6,9.41
		c0.02,1.91,0.47,3.78,0.34,5.7c-0.13,1.87-0.32,2.3-2.1,2.87c-3.84,1.23-7.8,1.99-11.77,2.63c-6.3,1.02-12.65,1.51-19.03,1.74
		c-4.51,0.16-9.01,0.29-13.52,0.46c-5.75,0.22-11.5,0.12-17.25,0.25C127.37,289.26,126.65,289.19,125.94,289.17z"></path>
	<path d="M186.46,166.84c-0.48,0.05-0.76,0.42-1.1,0.69c-46.88,36.38-93.75,72.77-140.64,109.13
		c-0.54,0.42-0.86,0.88-1.02,1.5c0.22-3.27,0.43-6.55,0.65-9.82c0,0.76,0,1.51,0,2.32c0.52-0.03,0.79-0.4,1.11-0.66
		c45.97-35.74,91.93-71.48,137.9-107.22c1.1-0.86,2.22-1.69,3.34-2.53C186.8,162.46,186.53,164.65,186.46,166.84z"></path>
	<path d="M187.47,124.79c-0.16-0.11,0.1-0.59-0.32-0.42c-0.29,0.11-0.52,0.37-0.77,0.56
		c-45.14,35.1-90.28,70.2-135.42,105.3c-1.77,1.37-3.55,2.72-5.33,4.08c-0.06-2.46,0.33-4.87,0.9-7.25c0.39,0.82,0.65-0.02,0.8-0.13
		c3.22-2.44,6.41-4.91,9.6-7.38c43.35-33.57,86.7-67.14,130.06-100.72c0.38-0.29,0.75-0.59,1.13-0.89
		C188.06,120.23,187.76,122.51,187.47,124.79z"></path>
	<path d="M188.39,207.14c-1.43,0.66-2.53,1.78-3.75,2.73c-33.88,26.29-67.75,52.59-101.62,78.9
		c-0.25,0.19-0.46,0.43-0.68,0.65c-2.67,0-5.34,0-8.01,0.01c-0.24,0-0.48-0.01-0.65-0.22c0.75-0.01,1.35-0.32,1.94-0.78
		c36.82-28.6,73.65-57.18,110.47-85.78c0.36-0.28,0.88-0.45,0.91-1.03C187.61,203.42,188.18,205.23,188.39,207.14z"></path>
</g>
<g onclick="select(this)" class="" id="c-detalhe-punho" fill="#000000">
	<path d="M0.24,115.92c0.71-1.84,0.78-3.81,1.23-5.71c0.06-0.26-0.05-0.57,0.22-0.76c0.42,0.34,0.94,0.41,1.45,0.51
		c2.86,0.57,5.7,1.2,8.58,1.68c2.91,0.49,5.87,0.67,8.75,1.27c6.71,1.4,13.49,1.4,20.28,1.29c1.19-0.02,2.37-0.33,3.43-0.94
		c0.34-0.2,0.7-0.38,1.08-0.51c0.5-0.17,0.87-0.1,0.83,0.57c-0.12,1.99,0.57,3.92,0.47,5.92c-0.03,0.02-0.09,0.03-0.1,0.06
		c-0.6,2.17-0.6,2.12-2.98,2.32c-3.41,0.29-6.8,0.92-10.25,0.75c-7.19-0.36-14.29-1.35-21.39-2.47c-3.9-0.62-7.76-1.41-11.61-2.3
		C0.24,117.04,0.24,116.48,0.24,115.92z"></path>
	<path d="M188.46,117.55c-0.34-1.17,0.27-2.27,0.28-3.43c0-0.47,0.07-1,0.16-1.5c0.39-0.25,0.65-0.06,0.92,0.23
		c2.04,2.16,4.58,2.83,7.48,2.68c2.07-0.1,4.15,0,6.22,0.13c3.06,0.19,6.03-0.48,9.04-0.78c4.44-0.44,8.88-0.99,13.29-1.64
		c2.12-0.31,4.19-0.96,6.28-1.46c0.85,0.59,0.66,1.56,0.78,2.37c0.21,1.46,0.16,2.95,0.36,4.41c0.16,1.15-0.46,1.43-1.36,1.64
		c-4.44,1-8.93,1.74-13.45,2.32c-6.26,0.81-12.54,1.46-18.87,1.28c-3.02-0.09-5.98-0.4-8.62-2.07c-0.13-0.08-0.29-0.14-0.44-0.19
		c-2.27-0.69-2.27-0.69-2.14-3.05C188.43,118.19,188.45,117.87,188.46,117.55z"></path>
</g>
</svg>
