<!--?xml version="1.0" encoding="utf-8"?-->
<!-- Generator: Adobe Illustrator 24.2.3, SVG Export Plug-In . SVG Version: 6.00 Build 0)  -->
<svg version="1.1" id="Camada_1" xmlns="http://www.w3.org/2000/svg" xmlns:xlink="http://www.w3.org/1999/xlink" x="0px" y="0px" viewBox="0 0 229 418" enable-background="new 0 0 229 418" xml:space="preserve">
<g onclick="select(this)" class="" id="estampa-secundaria" fill="#000000">
	<path d="M45.66,184.8c0.02-1.06,0.69-1.64,1.47-2.24c48.82-37.79,97.63-75.59,146.44-113.38
		c0.34-0.27,0.7-0.52,1.19-0.88c0.28,1.7-0.01,3.26-0.08,4.81c-0.23,5.27-1.77,10.17-3.96,14.95c-1.76,3.82-2.68,7.94-3.49,12.06
		c-0.69,3.52-1.31,7.06-1.92,10.59c-0.12,0.7-0.59,1-1.06,1.37c-13.15,10.18-26.3,20.37-39.45,30.55
		c-33.6,26.02-67.21,52.05-100.82,78.06c-0.36,0.28-0.64,0.76-1.22,0.63c-0.62-5.35-0.67-10.68,0.73-15.94
		c0.5-1.89,0.99-3.78,1.72-5.6c0.19-0.48,0.44-0.94,0.37-1.49c-0.53-3.86,0.69-7.71,0.01-11.58
		C45.46,186.09,45.62,185.43,45.66,184.8z"></path>
	<path d="M43.35,227.2c9.76-7.58,19.53-15.15,29.28-22.73c37-28.77,73.99-57.54,110.99-86.3
		c0.28-0.22,0.6-0.38,0.9-0.56c0.02,0.87,0.03,1.73,0.05,2.6c-0.46,0.71-0.25,1.53-0.34,2.29c-1,8.46-1.72,16.94-1.78,25.46
		c-0.02,2.12,0.12,4.23,0.44,6.33c-0.64,0.48-1.28,0.96-1.91,1.45c-44.81,34.84-89.62,69.68-134.43,104.52
		c-1.73,1.34-3.36,2.82-5.26,3.94c0.81-7.77,0.53-15.62,1.59-23.38c0.05-0.39,0.08-0.8,0.02-1.19c-0.6-3.75-0.52-7.47,0.34-11.17
		c0.24-0.31,0.2-0.63,0.02-0.95C43.3,227.41,43.32,227.3,43.35,227.2z"></path>
	<path d="M68.14,285.35c-7.95-0.12-15.87-0.52-23.67-2.15c-4.01-0.84-4.2-1.1-4.1-5.13
		c0.06-2.42,0.11-4.85,0.49-7.25c0.25-0.2,0.5-0.39,0.75-0.59c42.07-32.66,84.14-65.31,126.21-97.97c4.64-3.6,9.28-7.22,13.95-10.79
		c0.2-0.16,0.43-1.01,0.94-0.25c0.16,11.58-1.19,23.19,0.64,34.74c-0.23,0.16-0.47,0.31-0.69,0.48
		c-22.17,17.2-44.34,34.41-66.51,51.62C100.14,260.49,84.14,272.92,68.14,285.35z"></path>
	<path d="M184.27,201.56c0.73,6.08-0.15,12.1-0.83,18.12c-0.11,1-0.1,1.95,0.22,2.94c1.34,4.17,2.01,8.45,1.81,12.84
		c-0.13,0.63-0.57,1-1.05,1.37c-10.46,8.11-20.91,16.22-31.36,24.34c-10.8,8.39-21.58,16.79-32.38,25.18
		c-4.27,0.39-8.54,0.17-12.81-0.04c-10.61-0.53-21.24-0.63-31.86-0.73c0.12-0.48,0.55-0.66,0.89-0.92
		c6.81-5.3,13.63-10.6,20.45-15.89c28.57-22.18,57.13-44.37,85.7-66.54C183.41,201.93,183.7,201.46,184.27,201.56z"></path>
</g>
<g onclick="select(this)" class="" id="gola-primaria" fill="#000000">
	<path d="M149.15,8.27c1.77,0.86,2.3,2.04,1.87,4c-0.86,3.91-2.8,7.27-5.57,10.05
		c-6.64,6.68-14.41,11.49-23.72,13.56c-1.17,0.26-2.35,0.42-3.68,0.41c0.48-1.11,1.2-1.95,1.93-2.77
		c3.96-4.44,8.58-8.14,13.29-11.73c3.33-2.53,6.44-5.27,8.84-8.73c0.82-1.18,1.57-2.4,2.08-3.98c-10.23,0.82-20.36,1.85-30.51,1.88
		c-10.18,0.02-20.32-1.18-30.59-2.13c0.44,1.67,1.2,3.01,2.12,4.27c2.36,3.22,5.29,5.86,8.43,8.3c4.71,3.66,9.29,7.47,13.41,11.8
		c0.85,0.89,1.58,1.88,2.36,3.04c-2.08-0.08-3.95-0.42-5.78-0.94c-9.42-2.68-17.3-7.74-23.53-15.31c-1.88-2.28-3.13-4.91-3.67-7.85
		c-0.33-1.78,0-3.26,1.74-4.16c0.56-0.04,0.95-0.41,1.33-0.76c0.9-0.85,1.93-1.62,2.63-2.61c2.01-2.86,4.98-3.54,8.15-3.88
		c1.95-0.21,3.9-0.07,5.86-0.04c5.32,0.07,10.64,0.17,15.95-0.01c7.59-0.25,15.18,0.23,22.77-0.04c1.87-0.07,3.75,0.24,5.58,0.66
		c1.56,0.36,2.86,1.08,3.89,2.38C145.71,5.41,147.18,7.11,149.15,8.27z"></path>
</g>
<g onclick="select(this)" class="" id="detalhe-punho" fill="#000000">
	<path d="M43.15,120.46c-1.57,0.98-3.37,1.23-5.14,1.44c-7.29,0.86-14.58,0.72-21.86-0.13
		c-4.56-0.53-9.07-1.33-13.46-2.73c-0.88-0.28-1.74-0.58-2.45-1.2c0-1.12,0-2.24,0-3.36c0.68-1.22,0.46-2.64,0.91-3.91
		c2.03,0.58,4.04,1.26,6.1,1.73c3.78,0.86,7.58,1.45,11.47,1.71c7.5,0.5,14.98,1.01,22.41-0.7c1.18-0.27,1.48,0.36,1.55,1.31
		C42.84,116.56,42.99,118.51,43.15,120.46z"></path>
	<path d="M184.57,120.21c-0.02-0.87-0.03-1.73-0.05-2.6c0.52-1.18,0.74-2.43,0.76-3.71
		c0.01-0.59,0.19-0.75,0.78-0.65c4.86,0.8,9.76,0.76,14.67,0.77c3.17,0.01,6.25-0.68,9.37-1.08c5.71-0.73,11.33-1.83,16.61-4.25
		c0.38-0.17,0.76-0.23,1.16-0.2c1.02,2.29,1.11,4.72,1.09,7.16c-0.01,0.86-0.76,0.97-1.31,1.18c-2.49,0.98-5.08,1.66-7.67,2.35
		c-10.46,2.76-21.08,3.47-31.82,2.21C186.91,121.23,185.63,121.02,184.57,120.21z"></path>
</g>
<g onclick="select(this)" class="" id="estampa-primaria" fill="#bf0811">
	<path d="M43.15,120.46c-0.15-1.95-0.3-3.89-0.47-5.84c-0.08-0.94-0.37-1.58-1.55-1.31c-7.42,1.7-14.9,1.2-22.41,0.7
		c-3.89-0.26-7.69-0.85-11.47-1.71c-2.06-0.47-4.07-1.15-6.1-1.73c0.72-3.23,1.27-6.5,1.71-9.78c0.95-7.08,1.98-14.15,3-21.23
		c0.72-5.02,1.17-10.07,2.3-15.03c1.89-8.27,4.9-16.04,10.29-22.73c1.91-2.37,4.07-4.51,6.41-6.46c1.19-1,2.25-2.18,3.52-3.06
		c2.16-1.5,4.66-2.36,7.01-3.5c6.03-2.93,12.37-5.18,18.49-7.9c6.09-2.71,12.08-5.63,17.86-8.97c0.93-0.54,1.76-1.19,2.49-2.02
		c1.01-1.17,2.29-1.99,3.94-1.93c-1.74,0.9-2.06,2.39-1.74,4.16c0.54,2.94,1.79,5.57,3.67,7.85c6.23,7.57,14.11,12.63,23.53,15.31
		c1.83,0.52,3.69,0.86,5.78,0.94c-0.78-1.16-1.51-2.14-2.36-3.04c-4.12-4.33-8.7-8.14-13.41-11.8c-3.14-2.44-6.07-5.08-8.43-8.3
		c-0.92-1.25-1.68-2.6-2.12-4.27c10.27,0.94,20.41,2.15,30.59,2.13c10.16-0.02,20.28-1.06,30.51-1.88c-0.51,1.58-1.26,2.8-2.08,3.98
		c-2.4,3.46-5.51,6.2-8.84,8.73c-4.71,3.59-9.33,7.29-13.29,11.73c-0.73,0.82-1.45,1.66-1.93,2.77c1.33,0.02,2.51-0.15,3.68-0.41
		c9.3-2.07,17.08-6.87,23.72-13.56c2.76-2.78,4.71-6.14,5.57-10.05c0.43-1.96-0.09-3.14-1.87-4c1.94-0.33,3.14,0.88,4.27,2.13
		c0.38,0.42,0.76,0.78,1.23,1.1c8.13,5.43,17.2,8.94,26.14,12.69c5.85,2.46,11.65,5,17.45,7.57c1.13,0.5,1.84,1.51,2.79,2.22
		c3.72,2.8,7.12,5.94,9.9,9.7c4.73,6.39,7.39,13.65,9.17,21.31c1.18,5.11,1.38,10.38,2.56,15.48c1.31,5.68,2.67,11.35,3.51,17.13
		c0.53,3.63,1.13,7.26,1.69,10.89c-0.41-0.04-0.79,0.02-1.16,0.2c-5.28,2.42-10.9,3.52-16.61,4.25c-3.12,0.4-6.2,1.08-9.37,1.08
		c-4.9-0.01-9.81,0.04-14.67-0.77c-0.6-0.1-0.77,0.06-0.78,0.65c-0.02,1.28-0.24,2.53-0.76,3.71c-0.3,0.19-0.62,0.35-0.9,0.56
		c-37,28.77-73.99,57.54-110.99,86.3c-9.75,7.58-19.52,15.15-29.28,22.73c-0.48-1.93-0.41-3.92-0.6-5.88
		c0.58,0.12,0.86-0.36,1.22-0.63c33.61-26.02,67.22-52.04,100.82-78.06c13.15-10.18,26.3-20.37,39.45-30.55
		c0.47-0.36,0.94-0.67,1.06-1.37c0.61-3.54,1.23-7.07,1.92-10.59c0.81-4.12,1.74-8.24,3.49-12.06c2.2-4.78,3.74-9.68,3.96-14.95
		c0.07-1.55,0.35-3.11,0.08-4.81c-0.49,0.36-0.84,0.61-1.19,0.88c-48.81,37.8-97.62,75.6-146.44,113.38
		c-0.78,0.6-1.45,1.18-1.47,2.24c-0.16-4.5-0.06-9.02-0.17-13.51c-0.27-10.99,0.2-21.98-0.23-32.95c-0.18-4.66-0.95-9.29-1.49-13.93
		C43.61,123.08,43.77,121.71,43.15,120.46z"></path>
	<path d="M120.67,286.34c10.79-8.39,21.58-16.79,32.38-25.18c10.45-8.12,20.91-16.23,31.36-24.34
		c0.48-0.37,0.93-0.74,1.05-1.37c-0.08,1.03-0.08,2.07-0.25,3.09c-0.45,2.66-0.53,5.29,0.08,7.96c0.44,1.95,0.45,3.96,0.42,5.96
		c-0.11,7.24,0.66,14.43,1.42,21.62c0.24,2.22,0.19,4.46,0.27,6.69c0.05,1.37-0.78,2.01-1.95,2.36c-2.31,0.69-4.69,0.98-7.07,1.26
		c-8.31,0.97-16.65,1.12-25,1.24c-10.11,0.15-20.21,0.46-30.32,0.7C122.27,286.36,121.47,286.34,120.67,286.34z"></path>
	<path d="M182.7,161.22c-0.52-0.77-0.74,0.09-0.94,0.25c-4.67,3.57-9.3,7.19-13.95,10.79
		c-42.07,32.66-84.14,65.31-126.21,97.97c-0.25,0.19-0.5,0.39-0.75,0.59c0.15-2.21,0.29-4.41,0.44-6.62c1.9-1.12,3.53-2.6,5.26-3.94
		c44.82-34.83,89.62-69.68,134.43-104.52c0.63-0.49,1.27-0.97,1.91-1.45c0.43,0.91,0.25,1.88,0.2,2.81
		C183.02,158.48,182.84,159.85,182.7,161.22z"></path>
	<path d="M184.27,201.56c-0.57-0.1-0.86,0.37-1.22,0.65c-28.57,22.18-57.14,44.36-85.7,66.54
		c-6.82,5.29-13.63,10.59-20.45,15.89c-0.34,0.26-0.77,0.44-0.89,0.92c-2.63,0.02-5.25,0-7.87-0.21c16-12.43,32-24.87,48.01-37.29
		c22.17-17.21,44.34-34.41,66.51-51.62c0.22-0.17,0.46-0.32,0.69-0.48C183.9,197.79,184.01,199.69,184.27,201.56z"></path>
	<path d="M43.27,227.51c0.17,0.32,0.21,0.64-0.02,0.95C43.25,228.14,43.26,227.82,43.27,227.51z"></path>
</g>
</svg>
