<!--?xml version="1.0" encoding="utf-8"?-->
<!-- Generator: Adobe Illustrator 24.2.3, SVG Export Plug-In . SVG Version: 6.00 Build 0)  -->
<svg version="1.1" id="Camada_1" xmlns="http://www.w3.org/2000/svg" xmlns:xlink="http://www.w3.org/1999/xlink" x="0px" y="0px" viewBox="0 0 229 418" enable-background="new 0 0 229 418" xml:space="preserve">
<g onclick="select(this)" class="" id="gola-primaria" fill="#000000">
	<path d="M77.653244,7.9597087c0.5442581-0.060823,0.9727783-0.3512921,1.3516617-0.7144079
		c0.9517441-0.9121184,2.0429764-1.7265453,2.8068085-2.7772608c1.8079834-2.4870243,4.3546143-3.3584313,7.2153091-3.7517483
		c0.6288223-0.0864561,1.3583679,0.0999947,1.8729782-0.4764293c1.2000046,0,2.4000015,0,3.5999985,0
		c0.1687927,0.4909054,0.5990448,0.3124139,0.9139023,0.3135658c5.578331,0.0204086,11.1567459,0.0201361,16.7351074,0.0349731
		c0.4080276,0.0010852,0.7730331-0.0500705,1.0709915-0.3485389c7.5200043,0,15.0400085,0,22.5599976,0
		c0.0825958,0.4743731,0.4898376,0.314371,0.7612457,0.3588615c0.9795685,0.1605658,1.9686432,0.2631895,2.9482422,0.4236063
		c1.9836426,0.3248397,3.6553345,1.1195358,4.9371796,2.7921867c1.2989502,1.6949463,2.7366943,3.3046651,4.6419373,4.3876162
		c1.3338318,0.559351,1.940094,1.5309258,1.8434601,3.0019283c-0.235611,3.5861683-1.9489136,6.5051785-4.0314026,9.2897568
		c-0.4823761,0.6450272-0.8012085,0.5242634-1.3224487,0.1134567c-1.6621094-1.3100014-3.3261108-2.6210308-5.045578-3.8533516
		c-0.7900543-0.5662289-0.9149475-0.926733-0.2011108-1.7098112c1.5596924-1.7109747,2.8257294-3.6363506,3.695343-5.9588709
		c-3.8121796,0.2876577-7.4669952,0.5966864-11.1265106,0.832839c-8.2862625,0.5347214-16.5606003,1.3604345-24.8863144,0.8980713
		c-7.9773407-0.443017-15.9347458-1.1162539-23.8829727-1.9115543c-1.2859726-0.1286755-1.369072-0.044939-0.8895187,1.1417885
		c0.8056946,1.9938097,2.0816498,3.6765404,3.5389404,5.2270527c0.5396957,0.5742092,0.6279068,0.9768744-0.0833054,1.5165873
		c-1.717453,1.3033161-3.394783,2.6610584-5.056282,4.0355015c-0.5477829,0.4531364-0.8727188,0.4428539-1.3376007-0.1304188
		c-1.9395599-2.3917847-3.4067841-5.0153084-4.1502075-8.0189981C75.573967,10.416997,75.9670944,9.2020445,77.653244,7.9597087z"></path>
</g>
<g onclick="select(this)" class="" id="estampa-primaria" fill="#bf0811">
	<path d="M42.8515511,120.3646698c-0.1404991-2.3006744-0.1914711-4.6079102-0.6132317-6.885849
		c-0.0899506-0.485817-0.2391624-0.6317444-0.6915283-0.4280777c-2.490757,1.1215134-5.2097473,1.1106415-7.8384094,1.4879227
		c-1.4780464,0.2121429-3.0204315-0.0509491-4.5338783-0.0523834c-4.2323627-0.0040283-8.4661808-0.0824814-12.6740704-0.5230713
		c-3.80264-0.3981781-7.5636282-1.0788956-11.1697569-2.440567c-1.4492748-0.5472488-2.9991877-0.8545074-4.2283468-1.8888321
		c1.788975-9.4180679,2.6642451-18.9717102,4.2234068-28.4253159c0.8504977-5.1567917,1.1670499-10.3922119,2.2779264-15.5172501
		c1.7424278-8.0386963,4.4395752-15.6649666,9.3638191-22.3660049c2.1397686-2.9118538,4.5772095-5.5549202,7.4105568-7.7961693
		c1.3626118-1.0778542,2.3616123-2.5712852,3.9239349-3.3974419c3.6044159-1.9060097,7.2547016-3.723999,11.025713-5.2781143
		c9.9812241-4.1134815,19.9857483-8.1736889,29.4422798-13.433075c1.9732742-1.0974712,4.0098419-2.0742865,5.5134583-3.8943434
		c0.8124695-0.9834595,1.9979401-1.5784073,3.3699265-1.5663853c-1.6862564,1.2423325-2.0793839,2.4572849-1.520256,4.7163982
		c0.7434235,3.0036898,2.2106476,5.6272135,4.1502075,8.0189981c0.4648819,0.5732727,0.7898178,0.5835552,1.3376007,0.1304188
		c1.661499-1.3744431,3.338829-2.7321854,5.056282-4.0355015c0.7112122-0.5397129,0.6230011-0.942378,0.0833054-1.5165873
		c-1.4572906-1.5505123-2.7332458-3.233243-3.5389404-5.2270527c-0.4795532-1.1867275-0.3964539-1.2704639,0.8895187-1.1417885
		c7.9482269,0.7953005,15.905632,1.4685373,23.8829727,1.9115543c8.3257141,0.4623632,16.6000519-0.3633499,24.8863144-0.8980713
		c3.6595154-0.2361526,7.3143311-0.5451813,11.1265106-0.832839c-0.8696136,2.3225203-2.1356506,4.2478962-3.695343,5.9588709
		c-0.7138367,0.7830782-0.5889435,1.1435823,0.2011108,1.7098112c1.7194672,1.2323208,3.3834686,2.5433502,5.045578,3.8533516
		c0.5212402,0.4108067,0.8400726,0.5315704,1.3224487-0.1134567c2.082489-2.7845783,3.7957916-5.7035885,4.0314026-9.2897568
		c0.0966339-1.4710026-0.5096283-2.4425774-1.8434601-3.0019283c1.8036041-0.1237278,2.9669189,0.9629507,4.0430603,2.1744213
		c0.3423157,0.3853559,0.6636505,0.7412128,1.1135712,1.0353756c10.0124969,6.5462341,21.2044067,10.6002197,32.1449585,15.1727829
		c3.9642639,1.6568451,7.7808075,3.6279182,11.750946,5.2658405c1.1914215,0.4915409,1.9353333,1.6271687,2.9535828,2.3855915
		c3.5110168,2.6150703,6.6709747,5.5916252,9.3223114,9.0906715c4.8722534,6.4300346,7.6369781,13.775341,9.3872375,21.560955
		c0.6486359,2.8853226,1.1862793,5.7949905,1.4686279,8.7377701c0.5558319,5.7934952,2.2961578,11.3432922,3.4221039,17.0187912
		c1.0883484,5.4858246,1.7017517,11.0482101,2.7525024,16.5389175c0.0593872,0.3102341,0.0377197,0.6359482,0.053772,0.9545135
		c-3.2637939,1.303833-6.582428,2.4195786-10.0181885,3.2038116c-3.1164703,0.7113266-6.2818298,1.1122208-9.4234314,1.66082
		c-3.0315857,0.5293884-6.093689,0.7425232-9.1736298,0.7394409c-4.2303925-0.0042343-8.4836273,0.2719727-12.6558838-0.596138
		c-1.2034454-0.2503891-1.4215698,0.1192093-1.6173859,1.1066895c-0.3850403,1.9416962-0.2653351,3.8918304-0.2623901,5.8428955
		c-0.4411316,0.8073425-0.294342,1.7092896-0.3958282,2.5675964c-0.9905396,8.376976-1.7194977,16.772728-1.7455444,25.2169876
		c-0.0067749,2.2001038,0.0669098,4.3846893,0.5234833,6.5547638c0.4015503,1.9087067-0.0416107,3.8243256-0.2045746,5.7283325
		c-0.1810608,2.1157532-0.2705383,4.2298737-0.1432648,6.3460541c0.1518402,2.5245819-0.2316589,5.0275574-0.2313995,7.5436859
		c0.0002899,2.5966339-0.0800171,5.1951904,0.1816406,7.7869263c0.2424622,2.401474-0.2102814,4.7841187-0.2298737,7.1815948
		c-0.0185547,2.2703705,0.5234375,4.434845,1.0016937,6.6138458c1.5916138,7.2516785,1.3577728,14.5254669,0.321991,21.8117981
		c-0.3045654,2.1425323-0.3740692,4.2081604,0.3273315,6.3549805c1.772522,5.4253693,1.8140564,11.004364,0.940918,16.6020203
		c-0.2309723,1.4807892-0.2497253,2.9243011,0.0909424,4.3914642c0.8872986,3.8212128,0.4440308,7.7200317,0.6459045,11.5819855
		c0.3085022,5.9015503,0.6915588,11.7999573,1.4322815,17.6716309c0.2583313,2.0477295,0.2249298,4.1363525,0.2557526,6.2073364
		c0.0257568,1.7311096-0.3525543,2.2270203-2.0640717,2.7422485c-3.0049591,0.9046326-6.12323,1.1564636-9.2236786,1.4806824
		c-8.3243256,0.8704529-16.684082,0.875061-25.0398712,1.0386353c-11.5935822,0.2269592-23.1845932,0.774292-34.7774658,0.796814
		c-11.5119705,0.0223999-23.0147629-0.7998352-34.5330276-0.8546448
		c-8.3570328-0.0397644-16.7156601-0.1080933-25.0555115-0.7388611c-4.228714-0.3198242-8.4451218-0.7576904-12.5860748-1.7210693
		c-3.6356277-0.8458252-3.9869041-1.1677856-3.7778854-4.8088684c0.4413528-7.6882935,0.9998283-15.3699951,1.5411453-23.0522461
		c0.140564-1.9948425,0.2801247-3.9875031,0.2333336-5.9868927c-0.0440826-1.8836212,0.0298157-3.7575989,0.3702316-5.6125793
		c0.4073219-2.2195892,0.4394226-4.4304352,0.1149673-6.671875c-0.3644104-2.5174713-0.1079674-5.0299683,0.4367638-7.5027313
		c0.2282982-1.0363312,0.1923027-2.0486298,0.1161079-3.0909729c-0.3318748-4.5399933-1.0253105-9.059433-0.8239441-13.631073
		c0.1898727-4.3105927,1.2076683-8.4514313,2.6681633-12.4867859c0.3758698-1.0385284,0.6182976-2.0305634,0.4542694-3.1416168
		c-0.1813354-1.228302-0.1615334-2.4718628,0.0717163-3.7012024c0.3159981-1.6654663,0.1919708-3.3271332,0.1082916-5.010376
		c-0.164299-3.3049622-0.1748123-6.6190948-0.188385-9.9297028c-0.0528755-12.8978577-0.0415039-25.7961121-0.1398544-38.693573
		c-0.0396805-5.2032166-0.9885941-10.3359528-1.5531807-15.4973145
		C43.3142204,122.9056549,43.466774,121.5702896,42.8515511,120.3646698z"></path>
</g>
<g onclick="select(this)" class="" id="detalhe-punho" fill="#000000">
	<path d="M-0.06,114.6542282c0.583228-1.0720215,0.3827578-2.3065491,0.7111229-3.43367
		c0.1536794-0.5275192,0.13833-1.1031189,0.4512063-1.5867462c1.229159,1.0343246,2.7790718,1.3415833,4.2283468,1.8888321
		c3.6061287,1.3616714,7.3671169,2.0423889,11.1697569,2.440567c4.2078896,0.4405899,8.4417076,0.519043,12.6740704,0.5230713
		c1.5134468,0.0014343,3.0558319,0.2645264,4.5338783,0.0523834c2.6286621-0.3772812,5.3476524-0.3664093,7.8384094-1.4879227
		c0.4523659-0.2036667,0.6015778-0.0577393,0.6915283,0.4280777c0.4217606,2.2779388,0.4727325,4.5851746,0.6132317,6.885849
		c-0.5703659,0.5544662-1.3241272,0.738678-2.0481453,0.9182892c-2.2502213,0.558197-4.542038,0.9585571-6.8565598,1.0050888
		c-7.5839615,0.1524811-15.1675758,0.2204361-22.6745911-1.1818542c-3.0145712-0.5631256-6.0234232-1.1427994-8.9364958-2.1202469
		c-0.8156704-0.2736893-1.598085-0.6463776-2.3957574-0.9736481C-0.06,116.8929443-0.06,115.7735825-0.06,114.6542282z"></path>
	<path d="M184.330368,120.0952835c-0.0029449-1.9510651-0.1226501-3.9011993,0.2623901-5.8428955
		c0.195816-0.9874802,0.4139404-1.3570786,1.6173859-1.1066895c4.1722565,0.8681107,8.4254913,0.5919037,12.6558838,0.596138
		c3.0799408,0.0030823,6.1420441-0.2100525,9.1736298-0.7394409c3.1416016-0.5485992,6.3069611-0.9494934,9.4234314-1.66082
		c3.4357605-0.7842331,6.7543945-1.8999786,10.0181885-3.2038116c0.9974213,2.4374161,1.2762146,4.9902496,1.1629333,7.5927658
		c-0.032547,0.747139-0.7740784,0.8473129-1.2987213,1.0544434c-2.490799,0.9832916-5.085495,1.6438446-7.6618347,2.3490143
		c-9.1388245,2.5013885-18.4691162,3.110321-27.8868713,2.635231c-2.0218353-0.102005-4.0606232-0.308609-6.0298462-0.8818054
		C185.2262268,120.7300262,184.6997528,120.5578766,184.330368,120.0952835z"></path>
</g>
<path d="M44.8800011,138.4299927c0.3199997,0.5599976,0.1399994,1.1600037,0.1399994,1.75
	C44.6699982,139.6199951,44.8499985,139.0200043,44.8800011,138.4299927z"></path>
<path d="M42.3199997,236.5599976c0.1399994,0.1900024,0.1399994,0.3899994,0.0600014,0.6000061
	C42.2000008,236.9700012,42.2000008,236.7700043,42.3199997,236.5599976z"></path>
<path d="M182.1999969,150.2400055c0-0.2400055,0-0.4799957,0-0.7200012
	C182.4100037,149.7599945,182.4100037,150,182.1999969,150.2400055z"></path>
<path d="M184.5899963,242.4199982c-0.0700073-0.2799988-0.0500031-0.5399933,0.1600037-0.7599945
	C184.7899933,241.9299927,184.8000031,242.1999969,184.5899963,242.4199982z"></path>
<path d="M184.0299988,201.5899963C184,201.5399933,183.9599915,201.5,183.9400024,201.4499969
	c-0.0099945-0.0099945,0.0299988-0.0500031,0.0500031-0.0700073
	C184.0500031,201.4499969,184.0599976,201.5200043,184.0299988,201.5899963z"></path>
<path d="M186.1999969,266.3800049l-0.0700073-0.0799866l0.0599976-0.0799866
	C186.2299957,266.269989,186.2299957,266.3200073,186.1999969,266.3800049z"></path>
<g onclick="select(this)" class="has-opacity" id="estampa-terciaria" fill="#000000" opacity="0.3">
	<path d="M41.8100014,248c0.0200005-0.4900055-0.1199989-1,0.1599998-1.4600067
		c3.1599998,0.0099945,6.3199997,0.0200043,9.4700012,0.0200043c0.2700005,0,0.7200012,0.1000061,0.7799988-0.1499939
		c0.2000008-0.9299927,0.9000015-0.6199951,1.4199982-0.6199951c6.7200012-0.0200043,13.4300003-0.0099945,20.1500015-0.0200043
		c0.3499985,0,0.9700012,0.1399994,1-0.1300049c0.1500015-1.2100067,1.0400009-0.7799988,1.6399994-0.7799988
		c24.4199982-0.0200043,48.8499985-0.0200043,73.2699966-0.0200043c0.3200073,0,0.6399994,0,0.9600067,0
		c0.1900024,0.0099945,0.4700012,0,0.4799957,0.2400055c0.0200043,0.9400024,0.7100067,0.6699982,1.1999969,0.6699982
		c6.7200012,0.0099945,13.4299927,0,20.1499939,0.0099945c0.3800049,0,1-0.1999969,1.1000061,0.1900024
		c0.2100067,0.7700043,0.7400055,0.5800018,1.2100067,0.5800018c3.3999939,0.0099945,6.8000031,0,10.1900024,0
		c0.25,0.4799957,0.2299957,0.9900055,0.2200012,1.5099945c-3.4799957,0.0099945-6.9600067,0.0200043-10.4300079,0.0399933
		c-0.3500061,0-0.9299927-0.1499939-1,0.1499939c-0.1900024,0.8899994-0.8300018,0.6000061-1.3200073,0.6000061
		c-6.6799927,0.0200043-13.3500061,0.0099945-20.0299988,0.0200043c-0.3899994,0-1.0700073-0.1600037-1.1199951,0.1399994
		c-0.2100067,1.25-1.1300049,0.7700043-1.7599945,0.7700043c-22.2700043,0.0200043-44.5400009,0.0200043-66.8099976,0.0200043
		c-2.2799988,0-4.5599976,0.0099945-6.8399963-0.0099945c-0.3300018,0-0.9000015,0.1699982-0.9400024-0.25
		c-0.0899963-0.9299927-0.7300034-0.6699982-1.2200012-0.6699982c-6.7600021-0.0099945-13.5100021-0.0099945-20.2700005-0.0099945
		c-0.3499985,0-0.9099998,0.1799927-1.0099983-0.1399994c-0.2999992-0.9100037-0.9799995-0.6100006-1.5499992-0.6199951
		C47.8800011,248.0299988,44.8400002,248.2200012,41.8100014,248z"></path>
	<path d="M42.4700012,208.9600067c0.0699997-0.4400024,0.1500015-0.8899994,0.2200012-1.3300018
		c2.8800011-0.0099945,5.7600021-0.0099945,8.6399994-0.0399933c0.3199997,0,0.8800011,0.2200012,0.9300003-0.2299957
		c0.0999985-0.9199982,0.7299995-0.6799927,1.2299995-0.6799927c6.7599983-0.0099945,13.5200005-0.0099945,20.2700005-0.0099945
		c0.3499985,0,0.9700012,0.1300049,1.0100021-0.1199951c0.1999969-1.2599945,1.1399994-0.7799988,1.7699966-0.7799988
		c24.2699966-0.0200043,48.5499954-0.0200043,72.8199997-0.0200043c0.3999939,0,0.8000031-0.0200043,1.1999969,0.0099945
		c0.1799927,0.0099945,0.5200043,0.0899963,0.5200043,0.1600037c0.0899963,1.1300049,0.9499969,0.7400055,1.5200043,0.7400055
		c6.6399994,0.0200043,13.2799988,0.0099945,19.9100037,0.0299988c0.3899994,0,1.0399933-0.2799988,1.1100006,0.3300018
		c0.1000061,0.8099976,0.6300049,0.5700073,1.0399933,0.5800018c3.1999969,0.0200043,6.3999939,0.0200043,9.6000061,0.0299988
		c-0.0099945,0.4400024-0.0200043,0.8899994-0.0299988,1.3300018c-3.1600037,0.0099945-6.3200073,0.0299988-9.4799957,0.0500031
		c-0.3099976,0-0.8600006-0.0200043-0.8999939,0.1000061c-0.3600006,1.0800018-1.2299957,0.6499939-1.8899994,0.6600037
		c-6.5200043,0.0299988-13.0399933,0.0099945-19.5599976,0.0200043c-0.3899994,0-1.0700073-0.1600037-1.1100006,0.1499939
		c-0.1600037,1.2299957-1.0500031,0.7599945-1.6399994,0.7599945c-24.4000015,0.0200043-48.8000031,0.0200043-73.1999969,0.0200043
		c-0.3199997,0-0.6399994,0.0200043-0.9599991-0.0099945c-0.1900024-0.0200043-0.5199966-0.1000061-0.5299988-0.1699982
		c-0.0800018-1.1399994-0.9499969-0.7299957-1.5199966-0.7299957c-6.6399994-0.0200043-13.2799988-0.0099945-19.9199982-0.0200043
		c-0.3800011,0-1,0.1999969-1.1100006-0.1699982c-0.2400017-0.8300018-0.8300018-0.5800018-1.3199997-0.5899963
		C48.2299995,208.9799957,45.3499985,208.9700012,42.4700012,208.9600067z"></path>
	<path d="M185.4900055,259.4500122c0.0599976,0.4500122,0.1300049,0.8999939,0.1900024,1.3399963
		c-3.6399994,0.019989-7.2700043,0.0299988-10.9100037,0.0599976c-0.3399963,0-0.9499969-0.1499939-0.9900055,0.1499939
		c-0.1499939,1.1199951-0.9600067,0.75-1.5399933,0.7600098c-6.6399994,0.019989-13.2700043,0.0100098-19.9100037,0.019989
		c-0.3800049,0-1.0099945-0.2000122-1.0800018,0.2099915c-0.1499939,0.7999878-0.6699982,0.5499878-1.0800018,0.5499878
		c-24.75,0.0100098-49.4900055,0.0100098-74.2399979,0.0100098c-0.2799988,0-0.7600021,0.0499878-0.8000031-0.0599976
		c-0.5100021-1.230011-1.5599976-0.6799927-2.3600006-0.6900024c-6.4000015-0.0400085-12.7900009-0.019989-19.1900024-0.0400085
		c-0.4199982,0-1.0999985,0.2900085-1.2200012-0.3599854c-0.1100006-0.6199951-0.4500008-0.5400085-0.8400002-0.5400085
		c-3.4399986,0.0100098-6.8699989,0.0299988-10.3100014,0.0400085c-0.3199997-0.480011-0.2599983-0.9400024,0.0699997-1.3900146
		c3.3199997-0.019989,6.6300011-0.0299988,9.9500008-0.0599976c0.3400002,0,0.9500008,0.1499939,0.9900017-0.1400146
		c0.1699982-1.2099915,1.0600014-0.7600098,1.6500015-0.7600098c6.5999985-0.0299988,13.1900024-0.019989,19.7900009-0.019989
		c0.3899994,0,1.0400009,0.1700134,1.1200027-0.1400146c0.2399979-0.9500122,0.9199982-0.6099854,1.4400024-0.6099854
		c19.8700027-0.019989,39.7400055-0.0100098,59.6100006-0.0100098c4.7599945,0,9.5200043,0,14.2700043,0.0100098
		c0.3500061,0,0.9499969-0.1499939,1,0.1499939c0.1499939,0.9299927,0.8099976,0.6099854,1.2899933,0.6099854
		c6.6799927,0.019989,13.3500061,0.0100098,20.0299988,0.019989c0.4100037,0,1.1000061-0.230011,1.1799927,0.2399902
		c0.1399994,0.9100037,0.7299957,0.6700134,1.2299957,0.6700134
		C178.3800049,259.4599915,181.9299927,259.4500122,185.4900055,259.4500122z"></path>
	<path d="M45.1100006,150.6199951c-0.0099983-0.4400024-0.0099983-0.8699951-0.0200005-1.3099976
		c2.079998-0.0200043,4.1599998-0.0299988,6.2400017-0.0599976c0.3100014,0,0.8400002,0.1300049,0.8800011-0.1399994
		c0.1500015-1.2100067,1.0499992-0.75,1.6500015-0.7599945c6.6399994-0.0299988,13.2800026-0.0200043,19.920002-0.0200043
		c0.3499985,0,0.9700012,0.1300049,1-0.1199951c0.1699982-1.2899933,1.1299973-0.7799988,1.75-0.7799988
		c23.3199997-0.0200043,46.6399994-0.0200043,69.9599991-0.0200043c1.2799988,0,2.5599976-0.0099945,3.8399963,0
		c0.2700043,0,0.7299957-0.1100006,0.7599945,0.1600037c0.1100006,1.1399994,0.9400024,0.75,1.5200043,0.75
		c6.6399994,0.0200043,13.2799988,0.0099945,19.9199982,0.0299988c0.3899994,0,1.0299988-0.2700043,1.1100006,0.3300018
		c0.1100006,0.8000031,0.6300049,0.5700073,1.0599976,0.5800018c2.4799957,0.0200043,4.9600067,0.0200043,7.4400024,0.0299988
		c0.0200043,0.0800018,0.0399933,0.1600037,0.0599976,0.2400055c0,0.2400055,0,0.4799957,0,0.7200012
		c-0.0399933,0.1399994-0.0700073,0.2899933-0.1100006,0.4299927c-2.5200043-0.0099945-5.0399933-0.0200043-7.5599976-0.0200043
		c-0.2700043,0-0.7200012-0.1000061-0.7700043,0.1699982c-0.1600037,0.8999939-0.8200073,0.6000061-1.3099976,0.6000061
		c-6.6799927,0.0200043-13.3600006,0.0099945-20.0399933,0.0200043c-0.3899994,0-1.0700073-0.1600037-1.1199951,0.1399994
		c-0.1799927,1.1999969-1.0399933,0.7700043-1.6399994,0.7700043c-24.3899994,0.0200043-48.7900009,0.0200043-73.1800003,0.0200043
		c-0.3199997,0-0.6399994,0.0200043-0.9599991-0.0099945c-0.1900024-0.0200043-0.5199966-0.1000061-0.5299988-0.1699982
		c-0.0899963-1.1399994-0.9499969-0.7299957-1.5299988-0.7299957c-6.6399994-0.0200043-13.2799988-0.0099945-19.9199982-0.0200043
		c-0.3499985,0-0.9700012,0.0500031-1.0200005-0.1000061c-0.4199982-1.0899963-1.3199997-0.6399994-2.0200005-0.6699982
		C48.7099991,150.6000061,46.9099998,150.6199951,45.1100006,150.6199951z"></path>
	<path d="M41.7000008,254.4100037c0.0299988-0.4400024,0.0499992-0.8699951,0.0800018-1.3099976
		c3.1599998-0.0200043,6.3199997-0.0299988,9.4799995-0.0500031c0.3400002,0,0.9199982,0.1600037,0.9700012-0.1999969
		c0.1500015-1,0.8699989-0.6499939,1.3800011-0.6499939c6.6800003-0.0200043,13.3599968-0.0099945,20.0400047-0.0200043
		c0.3799973,0,1.0100021,0.1999969,1.1100006-0.1600037c0.25-0.9700012,0.9599991-0.6699982,1.5199966-0.6699982
		c22.0400009-0.0099945,44.0800018-0.0099945,66.1200027-0.0099945c2.6000061,0,5.1999969,0,7.8000031,0.0099945
		c0.3000031,0,0.8200073-0.1399994,0.8800049,0.1600037c0.1900024,1.0299988,0.9499969,0.6699982,1.5,0.6699982
		c6.6399994,0.0200043,13.2799988,0.0099945,19.9199982,0.0200043c0.3800049,0,1.0099945-0.1999969,1.0899963,0.1999969
		c0.1900024,0.9600067,0.8600006,0.6499939,1.3800049,0.6600037c3.4799957,0.0399933,6.9600067,0.0500031,10.4400024,0.0700073
		c0.0099945,0.3999939,0.0200043,0.8000031,0.0299988,1.1999969c-0.4299927,0.0399933-0.8699951,0.1199951-1.3000031,0.1199951
		c-3.1199951,0.0099945-6.2400055,0-9.3500061,0.0099945c-0.3399963,0-0.9100037-0.1799927-0.9799957,0.1600037
		c-0.2299957,1-0.9700012,0.6499939-1.5200043,0.6499939c-6.6300049,0.0200043-13.2700043,0.0099945-19.8999939,0.0200043
		c-0.3800049,0-1.0299988-0.1900024-1.0899963,0.1900024c-0.1600037,0.9899902-0.8399963,0.6600037-1.3500061,0.6600037
		c-18.0700073,0.0100098-36.1300049,0.0100098-54.1999969,0.0100098c-6.5500031,0-13.1100006,0-19.6600037-0.0100098
		c-0.3799973,0-1,0.2000122-1.0800018-0.2200012c-0.1800003-0.8800049-0.7799988-0.6399994-1.2699966-0.6399994
		c-6.7099991-0.0099945-13.4300003,0-20.1399994-0.0200043c-0.4000015,0-1.0499992,0.2400055-1.1699982-0.2599945
		c-0.1800003-0.75-0.6599998-0.5500031-1.0900002-0.5599976C48.0999985,254.4299927,44.9000015,254.4199982,41.7000008,254.4100037z
		"></path>
	<path d="M151.2100067,268.8800049c-0.3999939,0.2799988-0.8500061,0.1499939-1.2799988,0.1499939
		c-24.5999985,0.0100098-49.1900024,0.0100098-73.7900009,0c-0.4300003,0-0.8799973,0.1199951-1.2900009-0.1400146
		c0.2099991-0.9899902-0.5199966-0.769989-1.0299988-0.769989c-6.7799988-0.0100098-13.5600014,0-20.3499985-0.0100098
		c-0.3699989,0-1.0200005,0.1900024-1.0800018-0.2099915c-0.1399994-1.0100098-0.8300018-0.6700134-1.3499985-0.6900024
		c-3.4300003-0.0799866-6.8600006,0.1099854-10.2799988-0.1099854c0.0099983-0.3800049,0.0200005-0.75,0.0299988-1.1300049
		c0.4399986-0.0400085,0.8699989-0.1099854,1.3100014-0.1099854c3.0400009-0.0100098,6.079998,0,9.1100006-0.0100098
		c0.3400002,0,0.9099998,0.1799927,0.9900017-0.1700134c0.2299995-1,0.9700012-0.6499939,1.5200005-0.6600037
		C60.3600121,265,66.9900131,265.0099792,73.6300125,265c0.3899994,0,1.0500031,0.1700134,1.1200027-0.1400146
		c0.2600021-1.1400146,1.1100006-0.7099915,1.7099991-0.7099915c24.3799973-0.019989,48.7699966-0.019989,73.1500015-0.019989
		c0.3200073,0,0.6399994-0.019989,0.9600067,0.0100098c0.1900024,0.019989,0.5200043,0.0899963,0.5200043,0.1700134
		c0.1000061,1.0700073,0.9100037,0.6799927,1.4499969,0.6799927c6.6399994,0.019989,13.2700043,0.0100098,19.9100037,0.019989
		c0.3999939,0,1.0299988-0.25,1.1600037,0.2799988c0.1799927,0.75,0.6799927,0.5400085,1.1100006,0.5400085
		c3.7599945,0.0100098,7.5200043,0,11.2700043,0c0.0599976,0.1199951,0.1300049,0.25,0.1900024,0.3699951l-0.0599976,0.0799866
		l0.0700073,0.0799866c0,0.25,0,0.4899902,0,0.7399902c-3.75,0.0299988-7.5,0.0599976-11.2599945,0.0899963
		c-0.3600006,0-0.9700012-0.0499878-1.0299988,0.0899963c-0.5399933,1.4100037-1.7200012,0.7900085-2.6000061,0.7999878
		c-6.3500061,0.0499878-12.6999969,0.019989-19.0500031,0.0299988
		C151.7599945,268.1199951,151.0200043,267.8900146,151.2100067,268.8800049z"></path>
	<path d="M74.9400024,216.9799957h0.0199966c-0.0199966-0.8899994-0.6299973-0.8099976-1.25-0.8099976
		c-6.75,0.0099945-13.5,0.0099945-20.25,0c-0.3699989,0-0.9700012,0.2100067-1.0699997-0.2299957
		c-0.1800003-0.8099976-0.7299995-0.5800018-1.1899986-0.6000061c-3.0699997-0.0800018-6.1500015,0.1300049-9.2200012-0.1100006
		c0-0.3699951,0-0.75,0-1.1199951C42.4199982,214.0700073,42.8499985,214,43.2900009,214
		c2.6399994-0.0099945,5.2799988,0,7.9199982-0.0099945c0.3400002,0,0.9300003,0.1600037,0.9900017-0.1699982
		c0.1800003-1.1000061,0.9799995-0.7299957,1.5600014-0.7299957c6.6800003-0.0200043,13.3600006-0.0099945,20.0400009-0.0200043
		c0.3600006,0,0.9300003,0.25,1.0400009-0.2599945c0.1399994-0.6699982,0.5699997-0.5599976,0.9899979-0.5599976
		c24.8300018,0,49.6699982,0,74.5,0c0.2599945,0,0.7100067-0.1199951,0.75,0.1699982
		c0.1600037,0.9499969,0.8600006,0.6499939,1.3899994,0.6499939c6.6799927,0.0099945,13.3600006,0.0099945,20.0400085,0.0200043
		c0.3800049,0,1.0500031-0.1699982,1.1000061,0.1900024c0.1499939,1.0899963,0.9199982,0.6900024,1.4499969,0.6999969
		c2.9199982,0.0599976,5.8300018,0.0700073,8.75,0.0899963c-0.0500031,0.4299927,0.0599976,0.8800049-0.1999969,1.2799988
		c-3,0-5.9900055-0.0099945-8.9900055-0.0099945c-0.3000031,0-0.7799988-0.1600037-0.8500061,0.2100067
		c-0.1600037,0.8999939-0.8099976,0.6100006-1.3000031,0.6100006c-6.7100067,0.0200043-13.4299927,0.0200043-20.1399994-0.0099945
		c-0.7299957,0-1.2400055,0.0800018-1.2799988,0.9299927c-0.4799957-0.0200043-0.9499969-0.0599976-1.4299927-0.0599976
		c-24.3700027,0-48.75,0-73.1200027,0C75.9800034,217.0299988,75.4599991,216.9900055,74.9400024,216.9799957z"></path>
	<path d="M45.0900002,196.0500031c0.0099983-0.4400024,0.0099983-0.8800049,0.0200005-1.3300018
		c2.0800018-0.0099945,4.1599998-0.0200043,6.2399979-0.0399933c0.3100014,0,0.8199997,0.1300049,0.8800011-0.1600037
		c0.1800003-0.8999939,0.8300018-0.6000061,1.3199997-0.6000061c6.7200012-0.0200043,13.4399986-0.0099945,20.1599998-0.0200043
		c0.3700027,0,1.0299988,0.1999969,1.0800018-0.1699982C74.9599991,192.5899963,75.7799988,193,76.3499985,193
		c24.4800034-0.0200043,48.9599991-0.0200043,73.4400101-0.0099945c0.2799988,0,0.5599976-0.0099945,0.8399963,0
		c0.1900024,0.0099945,0.4799957-0.0200043,0.4900055,0.2200012c0.0399933,1.0099945,0.7799988,0.6999969,1.3000031,0.6999969
		c6.6799927,0.0099945,13.3600006,0.0099945,20.0400085,0.0200043c0.3800049,0,1-0.1999969,1.1100006,0.1799927
		c0.2400055,0.8500061,0.8399963,0.5700073,1.3300018,0.5800018c2.6399994,0.0299988,5.2799988,0.0200043,7.9199982,0.0299988
		c0.1399994,0.4400024,0.3099976,0.8800049,0.25,1.3500061c-2.8000031,0.0099945-5.6000061,0.0099945-8.3999939,0.0399933
		c-0.3200073,0-0.8800049-0.2200012-0.9299927,0.2299957c-0.1000061,0.9199982-0.7299957,0.6699982-1.2299957,0.6799927
		c-6.7200012,0.0099945-13.4299927,0-20.1499939,0.0099945c-0.3800049,0-1.0200043-0.1900024-1.1000061,0.1799927
		c-0.1999969,0.9199982-0.8500061,0.5700073-1.3099976,0.5700073c-13.9100037,0.0200043-27.8300018,0.0200043-41.7400055,0.0200043
		c-10.6800003,0-21.3499985,0-32.0299988-0.0099945c-0.3899994,0-1.0199966,0.1799927-1.1299973-0.1300049
		c-0.3399963-0.9600067-1.0699997-0.6300049-1.6600037-0.6300049c-6.6399994-0.0200043-13.2700005-0.0099945-19.9099998-0.0200043
		c-0.3899994,0-1.0400009,0.2599945-1.1199989-0.3200073c-0.1100006-0.7899933-0.6100006-0.5800018-1.0400009-0.5899963
		C49.25,196.0700073,47.1699982,196.0700073,45.0900002,196.0500031z"></path>
	<path d="M182.8099976,155.6300049c0,0.4299927,0.0099945,0.8699951,0.0099945,1.3000031
		c-2.7200012,0.0200043-5.4299927,0.0299988-8.1499939,0.0700073c-0.3200073,0-0.8699951-0.2100067-0.9199982,0.25
		c-0.1000061,0.9400024-0.7599945,0.6499939-1.2400055,0.6499939c-6.7200012,0.0099945-13.4300079,0.0099945-20.1499939,0.0099945
		c-0.3500061,0-0.9199982-0.1699982-1.0099945,0.1199951c-0.3399963,1.0399933-1.1499939,0.6399994-1.7599945,0.6399994
		c-15.5500031,0.0200043-31.0999985,0.0200043-46.6500015,0.0200043c-8.909996,0-17.8300018,0-26.7399979-0.0099945
		c-0.3899994,0-1.0199966,0.1799927-1.1299973-0.1300049c-0.3300018-0.9700012-1.0599976-0.6300049-1.6500015-0.6300049
		c-6.6399994-0.0200043-13.2700005-0.0099945-19.9099998-0.0200043c-0.3899994,0-1.0400009,0.2700043-1.1199989-0.3000031
		c-0.1199989-0.7700043-0.5999985-0.6000061-1.0400009-0.6000061c-2.0800018-0.0299988-4.1500015-0.0500031-6.2299995-0.0700073
		c0-0.4299927,0.0099983-0.8699951,0.0099983-1.3000031c2.0800018-0.0099945,4.1599998-0.0099945,6.2399979-0.0299988
		c0.3100014,0,0.8300018,0.1199951,0.8800011-0.1699982c0.1599998-1.0399933,0.9300003-0.6799927,1.4700012-0.6900024
		c6.6800003-0.0200043,13.3599968-0.0099945,20.0300026-0.0200043c0.3499985,0,0.9400024,0.1499939,1.0100021-0.1199951
		c0.2900009-1.0899963,1.1200027-0.6999969,1.7399979-0.6999969c11.0800018-0.0200043,22.1500015-0.0099945,33.2299957-0.0099945
		c13.4000015,0,26.7900085,0,40.1900024,0c0.3899994,0,1.1000061-0.0099945,1.1300049,0.1100006
		c0.2799988,1.1900024,1.1999969,0.6999969,1.8399963,0.7100067c6.5599976,0.0299988,13.1199951,0.0200043,19.6699982,0.0299988
		c0.3800049,0,1.0099945-0.1900024,1.0700073,0.2299957c0.1300049,0.8600006,0.6999969,0.6100006,1.1600037,0.6199951
		C177.4499969,155.6199951,180.1300049,155.6199951,182.8099976,155.6300049z"></path>
	<path d="M183.8200073,201.1000061c0.0599976,0.0899963,0.1100006,0.1900024,0.1699982,0.2799988
		c-0.0200043,0.0200043-0.0500031,0.0599976-0.0500031,0.0700073c0.0200043,0.0500031,0.0599976,0.0899963,0.0899963,0.1399994
		c0,0.2899933-0.0099945,0.5800018-0.0099945,0.8699951c-3.0800018,0.0099945-6.1600037,0.0200043-9.2400055,0.0399933
		c-0.3500061,0-0.9499969-0.1499939-1,0.1499939c-0.1999969,1.1199951-1.0200043,0.6900024-1.5800018,0.6999969
		c-6.6000061,0.0299988-13.1999969,0.0200043-19.7899933,0.0200043c-0.3899994,0-1.0599976-0.1499939-1.1100006,0.1600037
		c-0.1900024,1.1999969-1.0700073,0.7299957-1.6600037,0.7299957c-24.3899994,0.0200043-48.7799988,0.0200043-73.1699982,0.0200043
		c-0.3199997,0-0.6399994,0.0200043-0.9599991-0.0099945c-0.1900024-0.0200043-0.5199966-0.0899963-0.5299988-0.1600037
		c-0.1100006-1.1399994-0.9800034-0.7200012-1.5500031-0.7200012c-6.6399994-0.0299988-13.2799988-0.0099945-19.9099998-0.0200043
		c-0.3800011,0-1.0099983,0.1900024-1.0900002-0.1999969c-0.1899986-0.9499969-0.8499985-0.6399994-1.3699989-0.6600037
		c-2.3499985-0.0899963-4.7099991,0.1300049-7.0600014-0.1199951c0.1899986-0.4400024,0.0999985-1,0.5699997-1.3200073
		c2.3199997,0.0099945,4.6399994,0.0299988,6.9599991,0.0399933c0.2299995,0,0.6500015-0.0200043,0.6699982-0.1100006
		c0.2700005-1.1000061,1.1399994-0.6499939,1.75-0.6600037c6.5999985-0.0299988,13.1999969-0.0200043,19.8000031-0.0200043
		c0.3499985,0,0.9499969,0.1399994,1.0100021-0.1300049c0.2799988-1.2599945,1.2300034-0.7599945,1.9000015-0.7599945
		c18.6399994-0.0200043,37.2799988-0.0200043,55.9199982-0.0200043c5.8399963,0,11.6800079,0,17.5200043,0
		c0.3500061,0,0.9700012-0.1300049,1,0.1300049c0.1499939,1.2299957,1.0500031,0.75,1.6399994,0.7599945
		c6.6000061,0.0299988,13.1999969,0.0200043,19.8000031,0.0299988c0.3800049,0,1.0099945-0.1900024,1.0899963,0.2200012
		c0.1600037,0.7799988,0.6699982,0.5500031,1.0899963,0.5500031
		C177.7400055,201.1100006,180.7799988,201.1100006,183.8200073,201.1000061z"></path>
	<path d="M182.3500061,162.0299988c-0.0099945,0.4299927-0.0200043,0.8699951-0.0299988,1.3000031
		c-2.5200043,0.0200043-5.0399933,0.0399933-7.5500031,0.0800018c-0.3500061,0-0.9600067-0.1399994-1,0.1600037
		c-0.1399994,1.0800018-0.9100037,0.7100067-1.4600067,0.7100067c-6.6399994,0.0200043-13.2799988,0.0099945-19.9199982,0.0200043
		c-0.3800049,0-1.0399933-0.1699982-1.1000061,0.1600037c-0.1999969,0.9799957-0.8899994,0.6199951-1.3899994,0.6199951
		c-24.5599976,0.0200043-49.1199951,0.0099945-73.6800003,0.0099945c-0.2399979,0-0.4800034,0.0200043-0.7200012-0.0099945
		c-0.1900024-0.0200043-0.5199966-0.0899963-0.5299988-0.1699982c-0.1399994-0.9900055-0.9000015-0.6199951-1.4000015-0.6199951
		c-6.6800003-0.0200043-13.3600006-0.0099945-20.0400009-0.0200043c-0.4099998,0-1.0699997,0.2299957-1.1599998-0.3000031
		c-0.1300011-0.8000031-0.6399994-0.5800018-1.0499992-0.5800018c-2.0800018-0.0200043-4.1599998,0-6.2399979,0
		c-0.1300011-0.4700012-0.1800003-0.9400024-0.0200005-1.4100037c2.079998,0,4.1599998,0.0099945,6.2400017,0
		c0.3100014,0,0.8800011-0.0099945,0.9000015-0.1100006c0.2299995-1.0800018,1.0699997-0.6399994,1.6300011-0.6499939
		c6.6399994-0.0299988,13.2800026-0.0200043,19.920002-0.0200043c0.3499985,0,0.9599991,0.1399994,1.0100021-0.1300049
		c0.2200012-1.2299957,1.1399994-0.7700043,1.7699966-0.7700043c24.3899994-0.0200043,48.7900009-0.0200043,73.1799927-0.0200043
		c0.3200073,0,0.6399994-0.0099945,0.9600067,0.0099945c0.1799927,0.0099945,0.4700012-0.0399933,0.4700012,0.2299957
		c0.0099945,0.9499969,0.6999969,0.6799927,1.1999969,0.6799927c6.7200012,0.0099945,13.4400024,0,20.1600037,0.0099945
		c0.3800049,0,1.0099945-0.1900024,1.1000061,0.1999969c0.1799927,0.8399963,0.75,0.5599976,1.1999969,0.5700073
		C177.3099976,162.0299988,179.8300018,162.0200043,182.3500061,162.0299988z"></path>
	<path d="M182.2899933,144.1100006c-2.4400024,0.0099945-4.8800049,0-7.3200073,0.0399933
		c-0.5099945,0.0099945-1.1999969-0.3200073-1.3800049,0.6499939c-0.0800018,0.3999939-0.7100067,0.2100067-1.0899963,0.2100067
		c-6.6000061,0.0099945-13.1999969,0-19.7899933,0.0299988c-0.5899963,0-1.4900055-0.4600067-1.6300049,0.7700043
		c-0.0299988,0.2700043-0.7299957,0.1300049-1.1199951,0.1300049c-8.1600037,0.0099945-16.3200073,0.0099945-24.4700012,0.0099945
		c-16.3600006,0-32.7099991,0-49.0699997-0.0099945c-0.6200027,0-1.4499969,0.3999939-1.6699982-0.7599945
		c-0.0599976-0.3200073-0.7300034-0.1499939-1.1100006-0.1499939c-6.7200012-0.0099945-13.4399986,0-20.1500015-0.0099945
		c-0.5,0-1.1300011,0.25-1.2400017-0.6600037c-0.0400009-0.3800049-0.5400009-0.2299957-0.8400002-0.2299957
		c-1.6399994-0.0099945-3.2799988,0.0200043-4.9199982-0.0200043c-0.5-0.0099945-1.2999992,0.3600006-1.2900009-0.6999969
		c0.0099983-1.0099945,0.7700005-0.6000061,1.2200012-0.6199951c1.4000015-0.0500031,2.7999992,0.0200043,4.2000008-0.0299988
		c0.6599998-0.0200043,1.5200005,0.3899994,1.8899994-0.6699982c0.0499992-0.1499939,0.7400017-0.1199951,1.1300011-0.1199951
		c6.5999985-0.0099945,13.1999969,0,19.7900009-0.0200043c0.5800018,0,1.3899994,0.3800049,1.5599976-0.7200012
		c0.0400009-0.25,0.5-0.1499939,0.7699966-0.1600037c1.0400009-0.0099945,2.0800018,0,3.1200027,0
		c23.5100021,0,47.0299988,0,70.5399933,0.0200043c0.6399994,0,1.6499939-0.5599976,1.8899994,0.75
		c0.0200043,0.1100006,0.7400055,0.1199951,1.1300049,0.1199951c6.6399994,0.0099945,13.2799988,0,19.9100037,0.0200043
		c0.5299988,0,1.1999969-0.2899933,1.4199982,0.6399994c0.0800018,0.3200073,0.6499939,0.1499939,1,0.1600037
		c2.5200043,0.0299988,5.0399933,0.0500031,7.5500031,0.0700073
		C182.3300018,143.25,182.3099976,143.6799927,182.2899933,144.1100006z"></path>
	<path d="M112.9899979,48.4900017c-12.2799988,0-24.5499954,0-36.8300018-0.0099983
		c-0.5199966,0-1.1999969,0.3100014-1.3499985-0.6699982C74.7399979,47.340004,74.1199951,47.5800056,73.75,47.5800056
		c-6.6399994-0.0099983-13.2799988,0-19.9099998-0.0299988c-0.5699997,0-1.4000015,0.4300003-1.6500015-0.6399994
		c-0.0299988-0.1100006-0.6599998-0.1100006-1.0099983-0.1100006c-6.3199997-0.0099983-12.6399994,0-18.9500008-0.0099983
		c-0.3500004,0-0.7600002,0.0400009-1.0499992-0.1100006c-0.3400002-0.1800003-0.3199997-0.6500015-0.25-0.9799995
		c0.1200008-0.5099983,0.5900002-0.2900009,0.9099998-0.2900009c6.3199997-0.0099983,12.6399994,0,18.9500008-0.0299988
		c0.5999985,0,1.4500008,0.4399986,1.6599998-0.7400017c0.0600014-0.3199997,0.7299995-0.1599998,1.1199989-0.1599998
		c6.6800003-0.0099983,13.3600006,0,20.0299988-0.0200005c0.5100021,0,1.1699982,0.3100014,1.3899994-0.6399994
		c0.0999985-0.4399986,0.7900009-0.2099991,1.1999969-0.2099991c7.7200012-0.0099983,15.4400024-0.0099983,23.1500015-0.0099983
		c16.7900009,0,33.5899963,0,50.3800049,0.0099983c0.5800018,0,1.3500061-0.3600006,1.5800018,0.7000008
		c0.0700073,0.3400002,0.7299957,0.1500015,1.1100006,0.1500015c6.6000061,0.0099983,13.1999969,0,19.7900085,0.0200005
		c0.5700073,0,1.3899994-0.4199982,1.5599976,0.7299995c0.0500031,0.3600006,0.7100067,0.1699982,1.0899963,0.1699982
		c6.6399994,0.0099983,13.2799988,0,19.9100037,0.0299988c0.3899994,0,1.1399994-0.4500008,1.1900024,0.4799995
		c0.0599976,0.9599991-0.6100006,0.9099998-1.2799988,0.9000015c-6.6000061-0.0099983-13.1999969-0.0099983-19.7900085,0.0099983
		c-0.4700012,0-1.1000061-0.3300018-1.3200073,0.5699997c-0.0899963,0.3800011-0.7200012,0.1800003-1.1000061,0.1800003
		c-6.6799927,0.0099983-13.3600006,0-20.0299988,0.0200005c-0.5099945,0-1.2100067-0.3400002-1.3399963,0.6899986
		c-0.0500031,0.4500008-0.6900024,0.2099991-1.0500031,0.2200012c-7.3999939,0.0099983-14.8000031,0.0099983-22.1900024,0.0099983
		C122.9100037,48.4900017,117.9499969,48.4900017,112.9899979,48.4900017z"></path>
	<path d="M184.5099945,53.1800003c-3.2400055,0-6.4799957-0.0099983-9.7200012,0.0099983
		c-0.4499969,0-1.0299988-0.25-1.1699982,0.6100006c-0.0700073,0.4599991-0.6900024,0.25-1.0599976,0.25
		c-6.6000061,0.0099983-13.1999969,0-19.8000031,0.0299988c-0.6100006,0-1.4499969-0.4099998-1.7299957,0.7000008
		c-0.0700073,0.2799988-0.7400055,0.1199989-1.1300049,0.1199989c-11.0399933,0.0099983-22.0699997,0-33.1100006,0
		c-13.4400024,0-26.8700027,0-40.3099976-0.0200005c-0.6200027,0-1.4599991,0.4000015-1.7399979-0.7000008
		c-0.0699997-0.2700005-0.6600037-0.1199989-1.0100021-0.1199989c-6.6800003-0.0099983-13.3600006,0-20.0400009-0.0200005
		c-0.5400009,0-1.2799988,0.3600006-1.4900017-0.6800003c-0.0699997-0.3600006-0.7200012-0.1800003-1.0999985-0.1800003
		c-5.8400002-0.0099983-11.6800003-0.0099983-17.5200005-0.0099983c-0.2400017,0-0.4799995-0.0099983-0.7200012,0
		c-0.5600014,0.0200005-1.0100002,0-1.0300007-0.7799988c-0.0200005-0.8800011,0.5899982-0.5900002,0.9800014-0.5900002
		c6.079998-0.0200005,12.1599998-0.0099983,18.2400017-0.0200005c0.5200005,0,1.2099991,0.3199997,1.3400002-0.6899986
		c0.0499992-0.4199982,0.7000008-0.2099991,1.0699997-0.2200012c6.6399994-0.0099983,13.2800026,0,19.920002-0.0200005
		c0.5899963,0,1.3300018,0.3400002,1.6500015-0.6199989c0.0999985-0.2999992,0.6600037-0.1399994,1.0100021-0.1399994
		c5.6399994-0.0099983,11.2799988-0.0099983,16.9199982-0.0099983c18.840004,0,37.6700058,0,56.5100021,0.0200005
		c0.6499939,0,1.5299988-0.4500008,1.8899994,0.6500015c0.0399933,0.1399994,0.6600037,0.1100006,1.0099945,0.1100006
		c6.7200012,0.0099983,13.4400024,0,20.1600037,0.0099983c0.5099945,0,1.1000061-0.2299995,1.2299957,0.6800003
		c0.0700073,0.4700012,0.6900024,0.2299995,1.0599976,0.2299995c6.3999939,0.0099983,12.8000031,0.0099983,19.1999969,0.0099983
		c0.2799988,0,0.5599976,0,0.8399963,0c0.4199982-0.0099983,0.7299957,0.1500015,0.7100067,0.6100006
		c-0.0200043,0.4300003-0.2200012,0.7700005-0.7400055,0.7700005c-0.3600006,0-0.7200012,0-1.0800018,0
		C190.6699982,53.1800003,187.5899963,53.1800003,184.5099945,53.1800003z"></path>
	<path d="M162.4400024,60.4599991c-3.3200073,0-6.6399994-0.0099983-9.9600067,0.0099983
		c-0.5099945,0-1.1900024-0.3199997-1.4100037,0.6199989c-0.0700073,0.3100014-0.7299957,0.1399994-1.1199951,0.1399994
		c-7,0.0099983-14,0.0099983-21,0.0099983c-17.4799957,0-34.9599991,0-52.4400024-0.0200005
		c-0.6100006,0-1.4700012,0.4500008-1.7699966-0.6500015c-0.0299988-0.1199989-0.6600037-0.1100006-1.0199966-0.1100006
		c-6.7200012-0.0099983-13.4399986,0-20.1599998-0.0099983c-0.5299988,0-1.2000008,0.2799988-1.3400002-0.7000008
		c-0.0600014-0.4300003-0.7000008-0.2099991-1.0600014-0.2099991c-5.920002-0.0099983-11.8400002-0.0099983-17.7599983-0.0200005
		c-0.3600006,0-0.8100014,0.2200012-1.0699997-0.2599983c-0.4200001-0.7400017-0.1100006-1.1300011,0.9300003-1.1300011
		c5.8800011,0,11.7600021,0,17.6399994-0.0099983c0.5600014,0,1.2400017,0.2900009,1.5600014-0.6100006
		c0.1199989-0.3400002,0.7400017-0.1399994,1.1199989-0.1399994c6.7200012-0.0099983,13.4400024,0,20.1600037-0.0099983
		c0.4899979,0,1.1299973,0.2700005,1.2200012-0.6699982c0.0400009-0.4199982,0.6100006-0.25,0.9400024-0.25
		c2.4400024-0.0099983,4.8799973-0.0099983,7.3199997-0.0099983c22.2000046,0,44.4000015,0,66.5899887,0.0200005
		c0.5200043,0,1.3099976-0.4199982,1.4400024,0.7000008c0.0500031,0.4099998,0.6999969,0.2099991,1.0700073,0.2099991
		c6.6799927,0.0099983,13.3600006,0,20.0400085,0.0200005c0.5200043,0,1.1799927-0.2900009,1.4299927,0.6199989
		c0.0899963,0.3199997,0.7299957,0.1399994,1.1199951,0.1399994c6.1999969,0.0099983,12.3999939,0,18.6000061,0.0099983
		c0.3600006,0,0.75-0.0400009,1.0500031,0.0999985c0.3899994,0.1800003,0.2599945,0.6500015,0.1999969,0.9799995
		c-0.1100006,0.5200005-0.5899963,0.3100014-0.8999939,0.3100014c-5.3600006,0.0099983-10.7200012,0.0099983-16.0800018,0.0099983
		c-0.9600067,0-1.9199982-0.0200005-2.8800049,0.0099983c-0.5200043,0.0200005-1.2200012-0.3100014-1.3200073,0.7000008
		c-0.0399933,0.3800011-0.6199951,0.2099991-0.9600067,0.2099991
		C169.2400055,60.4700012,165.8399963,60.4599991,162.4400024,60.4599991z"></path>
	<path d="M63.6699982,99.5699997c-3.4000015,0-6.7999992,0-10.2000008,0
		c-0.5099983,0-1.1199989,0.2200012-1.2200012-0.6900024c-0.0499992-0.4199982-0.6100006-0.2200012-0.9399986-0.2200012
		c-3.3600006-0.0199966-6.7200012,0-10.0800018-0.0199966c-0.3199997,0-0.7799988,0.1999969-0.9399986-0.2699966
		c-0.1800003-0.5500031-0.4900017-1.1500015,0.6199989-1.1399994c3.3600006,0.0500031,6.7200012,0.0299988,10.0800018,0.0100021
		c0.5200005,0,1.1699982,0.3099976,1.4399986-0.5899963c0.1100006-0.3600006,0.7299995-0.1600037,1.1100006-0.1600037
		c6.6399994-0.0100021,13.2800026,0,19.920002-0.0199966c0.5699997,0,1.4400024,0.4100037,1.5199966-0.7399979
		c0-0.0699997,0.3399963-0.1500015,0.5299988-0.1600037c0.3199997-0.0299988,0.6399994-0.0100021,0.9599991-0.0100021
		c24.4000015,0,48.7900009,0,73.1900101,0.0199966c0.5899963,0,1.4700012-0.4599991,1.6399994,0.7600021
		c0.0399933,0.3000031,0.7299957,0.1500015,1.1100006,0.1500015c6.5200043,0.0100021,13.0399933-0.0100021,19.5599976,0.0199966
		c0.6499939,0,1.5299988-0.4400024,1.8899994,0.6500015c0.0399933,0.1200027,0.5899963,0.0999985,0.8999939,0.0999985
		c3.9199982,0.0100021,7.8399963-0.0100021,11.7599945,0.0199966c0.3500061,0,0.9900055-0.3199997,1.0200043,0.3899994
		c0.0200043,0.6600037-0.2799988,1.0199966-1.1000061,1.0100021c-3.9199982-0.0500031-7.8399963-0.0299988-11.7599945-0.0100021
		c-0.4199982,0-0.9400024-0.2399979-1.0399933,0.5800018c-0.0800018,0.6100006-0.7299957,0.3300018-1.1100006,0.3300018
		c-6.6399994,0.0199966-13.2799988,0.0100021-19.9199982,0.0299988c-0.5800018,0-1.4199982-0.3899994-1.5200043,0.7399979
		c-0.0200043,0.2300034-0.4100037,0.1600037-0.6399994,0.1600037c-0.6000061,0.0100021-1.1999969,0-1.8000031,0
		c-24,0-47.9900055,0-71.9899979-0.0199966c-0.6600037,0-1.6800003,0.5400009-1.8799973-0.7799988
		c-0.0100021-0.0800018-0.5899963-0.1100006-0.9000015-0.1100006
		C70.4700012,99.5699997,67.0699997,99.5699997,63.6699982,99.5699997z"></path>
	<path d="M113.1299973,93.9899979c-12.2799988,0-24.5499954,0-36.8300018-0.0100021
		c-0.5500031,0-1.2699966,0.3300018-1.5299988-0.6500015c-0.0999985-0.3700027-0.7200012-0.1600037-1.0999985-0.1600037
		c-6.6399994-0.0100021-13.2700005,0-19.9099998-0.0199966c-0.5800018,0-1.3699989,0.3700027-1.5600014-0.7200012
		c-0.0600014-0.3399963-0.6399994-0.1699982-0.9799995-0.1699982c-3.6800003-0.0100021-7.3600006-0.0100021-11.0400009-0.0100021
		c-0.3199997,0-0.6399994,0.0100021-0.9599991-0.0199966c-0.5999985-0.0599976-0.6399994-0.5699997-0.6500015-0.9899979
		c-0.0099983-0.5100021,0.4700012-0.3199997,0.7299995-0.3199997c3.9599991-0.0199966,7.9199982,0,11.8800011-0.0199966
		c0.4500008,0,1.0099983,0.25,1.2099991-0.5699997c0.1199989-0.5,0.7700005-0.25,1.1800003-0.25
		C60.2899971,90.0600052,67,90.0699997,73.7199936,90.0600052c0.5,0,1.1399994,0.2600021,1.2399979-0.6600037
		c0.0400009-0.3499985,0.5400009-0.2300034,0.8399963-0.2300034c1.4400024-0.0100021,2.8799973-0.0100021,4.3199997-0.0100021
		c23.2300034,0,46.4599991,0,69.6900101,0.0199966c0.5200043,0,1.3200073-0.4300003,1.4400024,0.6999969
		c0.0399933,0.3499985,0.7100067,0.1800003,1.1000061,0.1800003c6.6799927,0.0100021,13.3500061,0,20.0299988,0.0199966
		c0.5299988,0,1.1999969-0.2900009,1.3999939,0.6500015c0.0800018,0.3600006,0.6399994,0.1800003,0.9799957,0.1800003
		c4.4799957,0.0100021,8.9600067-0.0100021,13.4300079,0.0299988c0.3399963,0,1.0800018-0.4400024,1.0500031,0.4499969
		c-0.0200043,0.6800003-0.4700012,0.8899994-1.1499939,0.8799973c-4.4400024-0.0299988-8.8800049-0.0199966-13.3099976,0
		c-0.4499969,0-1.0299988-0.25-1.1699982,0.5999985c-0.0899963,0.5599976-0.7400055,0.2900009-1.1399994,0.2900009
		c-6.6399994,0.0199966-13.2700043,0-19.9100037,0.0299988c-0.5500031,0-1.2799988-0.3600006-1.5200043,0.6500015
		c-0.0800018,0.3600006-0.7200012,0.1600037-1.1000061,0.1600037
		C137.6799927,93.9899979,125.4100037,93.9899979,113.1299973,93.9899979z"></path>
	<path d="M33.5600014,40.2900009c1.6300011-0.8300018,3.2599983-1.4500008,5.1199989-1.4199982
		c4.2000008,0.0699997,8.4000015,0.0299988,12.5999985,0.0099983c0.4099998,0,0.9399986,0.2599983,1.1100006-0.5200005
		c0.0999985-0.4399986,0.7000008-0.2299995,1.0699997-0.2299995c6.7600021-0.0099983,13.5199966-0.0099983,20.2799988-0.0200005
		c0.5,0,1.1900024,0.2599983,1.2099991-0.6800003c0.0100021-0.2200012,0.2900009-0.2200012,0.4899979-0.2299995
		c0.2399979,0,0.4800034,0,0.7200012,0c24.5999985,0,49.1899948,0,73.7900009,0.0099983
		c0.5,0,1.1999969-0.3499985,1.3300018,0.6800003c0.0500031,0.4199982,0.6999969,0.2200012,1.0700073,0.2200012
		c6.6799927,0.0099983,13.3600006,0,20.0400085,0.0200005c0.5099945,0,1.2200012-0.3400002,1.4100037,0.6300011
		c0.0500031,0.2700005,0.6600037,0.1300011,1.0099945,0.1300011c3.8000031,0.0099983,7.6000061,0.0499992,11.3999939-0.0099983
		c2.0500031-0.0400009,3.8399963,0.7799988,5.7200012,1.4199982c-5.6600037,0-11.3199921-0.0099983-16.9799957,0.0099983
		c-0.5099945,0-1.1999969-0.3199997-1.3399963,0.6800003c-0.0599976,0.4099998-0.6999969,0.2299995-1.0700073,0.2299995
		c-6.7200012,0.0099983-13.4400024,0-20.1600037,0.0200005c-0.4799957,0-1.1900024-0.3199997-1.2299957,0.6500015
		c-0.0099945,0.2000008-0.3000031,0.2099991-0.5099945,0.2099991c-0.2799988,0-0.5599976,0-0.8399963,0
		c-24.4799957,0-48.9499969,0-73.4300003-0.0099983c-0.5899963,0-1.3600006,0.3600006-1.5999985-0.7099991
		c-0.0699997-0.3100014-0.7300034-0.1399994-1.1200027-0.1399994c-6.7200012-0.0099983-13.4399986,0-20.1599998-0.0099983
		c-0.5099983,0-1.1100006,0.2200012-1.2400017-0.6800003c-0.0699997-0.4700012-0.6899986-0.2200012-1.0499992-0.2200012
		C45.3199997,40.2900009,39.4399986,40.2900009,33.5600014,40.2900009z"></path>
	<path d="M179.25,111.5500031c-1.3200073,0-2.6399994-0.0299988-3.9600067,0.0199966
		c-0.6300049,0.0199966-1.4400024-0.3899994-1.7799988,0.6399994c-0.0500031,0.1399994-0.6600037,0.1200027-1.0099945,0.1200027
		c-6.7200012,0.0100021-13.4400024,0-20.1600037,0.0100021c-0.5,0-1.1900024-0.2600021-1.1999969,0.6800003
		c0,0.2600021-0.2799988,0.2300034-0.4700012,0.2399979c-0.2799988,0.0100021-0.5599976,0-0.8399963,0
		c-24.5100021,0-49.0299988,0-73.5400009-0.0199966c-0.5299988,0-1.3000031,0.3899994-1.4599991-0.6900024
		c-0.0699997-0.4599991-0.6900024-0.2200012-1.0500031-0.2200012c-6.6399994-0.0100021-13.2799988,0-19.9199982-0.0299988
		c-0.5800018,0-1.3899994,0.4100037-1.6599998-0.6299973c-0.0299988-0.1100006-0.5800018-0.1200027-0.9000015-0.1200027
		c-2.7200012-0.0100021-5.4399986,0-8.1599998-0.0100021c-0.3400002,0-0.7799988,0.1600037-0.9900017-0.2099991
		c-0.1399994-0.2600021-0.1899986-0.6299973-0.1199989-0.9199982c0.0999985-0.4300003,0.5299988-0.25,0.8100014-0.25
		c2.8400002-0.0199966,5.6800003-0.0100021,8.5200005-0.0100021c0.4399986,0,0.9199982,0.1699982,1.0299988-0.5999985
		c0.0900002-0.5699997,0.7400017-0.3099976,1.1300011-0.3099976c6.7599983-0.0199966,13.5200005-0.0100021,20.2800026-0.0199966
		c0.4599991,0,0.9899979,0.2200012,1.2200012-0.5599976c0.1299973-0.4199982,0.7900009-0.1999969,1.2099991-0.1999969
		c14.1200027-0.0100021,28.2300034-0.0100021,42.3499985-0.0100021c10.4400024,0,20.8800049,0,31.3099976,0.0100021
		c0.5,0,1.1900024-0.3600006,1.4199982,0.5899963c0.0899963,0.3499985,0.7299957,0.1600037,1.1100006,0.1600037
		c6.6799927,0.0100021,13.3600006,0,20.0399933,0.0100021c0.5299988,0,1.2100067-0.2699966,1.3300018,0.7099991
		c0.0399933,0.3799973,0.6199951,0.1900024,0.9499969,0.1999969c3.1199951,0.0100021,6.2400055,0,9.3600006,0.0199966
		c0.3800049,0,1.0299988-0.3199997,0.9900055,0.5699997c-0.0299988,0.7200012-0.4199982,0.8300018-1.0200043,0.8199997
		C182.4400024,111.5299988,180.8399963,111.5500031,179.25,111.5500031z"></path>
	<path d="M179.7700043,105.1299973c-1.3600006,0-2.7200012-0.0599976-4.0800018,0.0199966
		c-0.7599945,0.0500031-1.7599945-0.5299988-2.2299957,0.6800003c-0.0599976,0.1399994-0.6699982,0.0800018-1.0299988,0.0800018
		c-6.6399994,0-13.2799988,0-19.9199982,0.0100021c-0.5500031,0-1.3399963-0.3499985-1.4100037,0.7399979
		c-0.0200043,0.2600021-0.4900055,0.1600037-0.75,0.1600037c-1.5200043,0.0100021-3.0399933,0-4.5599976,0
		c-23.1200027,0-46.2299957,0-69.3499985-0.0199966c-0.6100006,0-1.4499969,0.4300003-1.6900024-0.7300034
		c-0.0699997-0.3399963-0.7200012-0.1600037-1.1100006-0.1600037c-6.6399994-0.0100021-13.2799988,0-19.9199982-0.0199966
		c-0.5400009,0-1.3100014,0.3899994-1.5200005-0.6399994c-0.0499992-0.25-0.5800018-0.1299973-0.9000015-0.1299973
		c-2.9599991-0.0100021-5.920002,0-8.8800011-0.0100021c-0.5499992,0-1.2900009,0.25-1.2900009-0.7399979
		c0-1.1100006,0.8600006-0.6100006,1.3199997-0.6200027c2.9199982-0.0500031,5.8400002-0.0100021,8.7600021-0.0400009
		c0.4399986,0,1.0099983,0.2699966,1.1599998-0.5999985c0.0800018-0.4700012,0.7700005-0.25,1.1800003-0.25
		c6.6800003-0.0100021,13.3599968,0,20.0400047-0.0199966c0.5,0,1.2799988,0.3600006,1.3300018-0.6800003
		c0.0100021-0.1999969,0.3000031-0.2099991,0.5-0.2200012c0.2799988,0,0.5599976,0,0.8399963,0
		c24.5200043,0,49.0299988,0,73.5500031,0.0100021c0.5299988,0,1.2899933-0.3799973,1.4499969,0.6900024
		c0.0500031,0.3600006,0.7100067,0.1999969,1.0899963,0.1999969c6.6799927,0.0100021,13.3600006,0,20.0400085,0.0199966
		c0.5099945,0,1.2200012-0.3300018,1.3600006,0.6800003c0.0399933,0.3300018,0.6399994,0.1699982,0.9900055,0.1699982
		c3.4799957,0.0100021,6.9600067,0,10.4400024,0.0199966c0.3600006,0,0.9700012-0.3000031,1,0.4400024
		c0.0200043,0.6500015-0.2599945,0.9800034-1.0099945,0.9599991
		C183.3699951,105.0999985,181.5700073,105.1299973,179.7700043,105.1299973z"></path>
</g>
<g onclick="select(this)" class="" id="estampa-secundaria" fill="#000000">
	<path d="M179.9650116,36.5306854c0,0-29.1231232-6.8985176-39.8160095-21.4340324
		c0,0-8.1940002,10.7744312-25.9540024,10.7744312s-22.7173767-5.3288937-27.0673752-9.7590694
		c-6.1074905,5.5631771-12.8427353,9.485508-19.852623,12.8001537c-6.7374649,3.1858311-13.6835098,5.8350468-22.760006,7.6385059
		C61.095005,36.7751617,179.9650116,36.5306854,179.9650116,36.5306854z"></path>
	<path d="M189.9150085,88.410675c0,0,2.9599457-4.5398254,3.9999695-11.0299988
		s0.8286743-14.970211,0.8286743-14.970211h-35.248642L32.4050026,62.660675c0,0,0.2676201,1.5248337,0.0038109,4.0898285
		c-0.2638092,2.5650024,0.0771751,7.7481232,0.3854218,9.1031265s1.1707611,4.2471924,1.9407654,5.1170349
		c0.5759773,1.313942,2.4252548,7.3894272,3.1300011,7.4400101S189.9150085,88.410675,189.9150085,88.410675z"></path>
	<path d="M182.3850098,139.9206696c0,0,0.3074951-4.6576691,0.3974915-5.8726654
		c0.0900116-1.2149963,0.292923-3.2942657,0.4725189-4.8773193s0.6472168-6.8124161,0.7400208-7.6500092
		s0.3518982-4.3800888,0.4241486-5.1151886s0.2108307-2.4151688,0.2108307-2.4151688L42.550396,114.0195999
		c0,0,0.3793831,5.2895584,0.4046249,5.5627518c0.025238,0.273201,0.0228424,1.7117462,0.2471199,3.3899231
		c0.2242737,1.6781845,0.4356613,2.9791107,0.8561783,6.5378876c0.4205208,3.5587769,0.8366699,6.9205322,0.8366699,6.9205322
		l0.0500145,3.5799713L182.3850098,139.9206696z"></path>
	<path d="M182.3250122,191.5892944c0,0-0.3358765-3.735672-0.1852264-5.0706635
		c0.15065-1.3349762,0.4042358-4.268692,0.1297302-5.4196625c-0.2745056-1.1509552-0.1037598-7.7039185-0.0932159-8.0613556
		c0.0105438-0.3574219,0.0737152-3.4592743,0.1487122-3.8769379s0.2717133-1.0026703,0.0664825-2.4989166
		c-0.0664978-0.9000092-0.0051422-1.0210876-0.0051422-1.0210876L44.9950066,165.660675
		c0,0,0.1371918,2.9251251,0.1235962,5.7149811s-0.0197029,7.7173004-0.0022507,8.436615
		c0.0174522,0.7193298,0.0373421,4.2957001,0.1389885,6.5731964c0.1016464,2.2775116,0.159668,5.1452179,0.159668,5.1452179
		L182.3250122,191.5892944z"></path>
	<path d="M186.2250061,268.6806946c0,0,0.4438782,3.0228882,0.6750031,5.744812
		c0.2311249,2.7219543,0.3523865,5.085022,0.1986847,6.3675232c-0.1536865,1.2825012-0.2775879,1.8156128-2.5664673,2.3660583
		c-2.2888641,0.5504456-8.4772186,1.6914368-17.7172241,2.0214233c-9.2399902,0.3300171-26.9405212,0.5662231-29.0127563,0.631073
		s-21.5072479,0.6795654-25.6022491,0.4742432c-4.0949936-0.2052917-23.222908-0.75354-27.5863342-0.7930298
		c-4.3634262-0.0394592-19.9885025-0.2449951-24.4807816-0.5354614s-13.2446251-1.0543823-17.1512527-2.1930847
		c-1.8366241-0.5312195-2.6027603-0.914978-2.8215675-1.7637329s-0.5750847-2.3247681-0.0650711-4.6298828
		c-0.079998-2.3501282,0.0574875-3.4223938,0.25-4c-0.0618477-0.7576294-0.1174889-1.1997681,0.3300133-3.6899414
		C44.4750023,268.6806946,186.2250061,268.6806946,186.2250061,268.6806946z"></path>
	<path d="M184.5350037,243.1506805c0,0,0.2195282-3.5101776,0.5947723-6.0901794
		c0.3752289-2.5800018,0.0484619-9.8536835-0.7331543-11.181839s-1.189743-4.5397797-1.2106781-5.6489716
		s0.2195129-2.9890442,0.2195129-2.9890442s-3.1091766-0.263855-5.8654633-0.1348572
		c-2.7562866,0.1289825-4.9071045,0.1734161-4.9071045,0.1734161l-120.247879-0.0485382l-10.2961159-0.0399933
		c0,0,0.0915642,3.5878601,0.1760788,3.8048248c0.0845146,0.21698,0.4630203,2.3466797,0.4500351,3.8051758
		s0.2300034,3.4099884,0.2300034,3.4099884s-0.4600029,2.9251709-0.6800041,3.6300049s-0.0100021,4.5400085-0.0100021,4.5400085
		s0.3254356,2.58461,0.2614288,3.4548798c-0.0640106,0.870285-0.3314247,3.3051147-0.3314247,3.3051147L184.5350037,243.1506805z"></path>
</g>
<g onclick="select(this)" class="has-opacity" id="estampa-quaternaria" fill="#ffffff" opacity="0.2">
	<path d="M187.1300049,280.0599976c-4.3999939,0-8.8000031,0.0100098-13.1900024,0
		c-0.5299988,0-1.1900024,0.2900085-1.3500061-0.6900024c-0.0700073-0.4200134-0.6999969-0.2200012-1.0800018-0.2200012
		c-6.6799927-0.0100098-13.3500061-0.0100098-20.0299988-0.0100098c-0.5099945,0-1.1100006,0.230011-1.1300049-0.7399902
		c-0.0200043-0.9599915,0.5099945-0.8900146,1.1399994-0.8900146c5.7599945,0.0100098,11.5200043,0,17.2700043,0
		c0.9199982,0,1.8399963,0.0100098,2.7599945-0.0100098c0.5099945-0.0100098,1.1399994,0.2200012,1.1999969-0.7099915
		c0.0299988-0.5,0.5800018-0.2900085,0.8999939-0.2900085c4.4799957-0.0100098,8.9600067,0,13.4300079,0
		C187.25,277.6900024,187.2799988,278.8699951,187.1300049,280.0599976z"></path>
	<path d="M186.6300049,272.6300049c-4.3500061,0.0100098-8.7100067,0.019989-13.0599976,0.019989
		c-0.4199982,0-0.8699951,0.1199951-0.9100037-0.5899963c-0.0500031-0.6900024-0.6799927-0.4100037-1.0500031-0.4100037
		c-5.3899994-0.019989-10.7899933-0.0100098-16.1800079-0.0100098c-1.3600006,0-2.7200012-0.0299988-4.0700073,0.0100098
		c-0.6699982,0.019989-1.0099945-0.0899963-1-0.8999939c0.0099945-0.8399963,0.4799957-0.75,1.0099945-0.75
		c6.75,0,13.5-0.019989,20.25,0.0299988c0.8300018,0.0100098,1.1399994-0.269989,1.1799927-1.019989l-0.0299988,0.0100098
		c4.4700012-0.019989,8.9400024-0.0499878,13.4100037-0.0700073
		C186.6999969,270.1400146,186.6100006,271.3900146,186.6300049,272.6300049z"></path>
	<path d="M40.0999985,276.5100098c3.7999992,0,7.5900002-0.0100098,11.3899994-0.0100098
		c0.5099983,0,1.0099983-0.1199951,1.0699997,0.7200012c0.0400009,0.5299988,0.6599998,0.2900085,1.0099983,0.2900085
		c6.2400017,0.019989,12.4699974,0.0100098,18.7100029,0.0100098c0.5199966,0,1.0400009,0,1.5599976,0
		c0.5299988-0.0100098,1-0.0799866,1,0.7600098c0.0100021,0.8299866-0.3600006,0.8800049-1.0100021,0.8800049
		c-6.6399994-0.019989-13.2700005-0.019989-19.9099998,0c-0.5699997,0-1.3899994-0.4100037-1.5200005,0.7399902
		c-0.0299988,0.2999878-0.6500015,0.1600037-0.9900017,0.1600037c-3.7999992,0.0100098-7.5999985,0-11.3899994,0
		C39.7099991,278.8699951,39.7900009,277.6900024,40.0999985,276.5100098z"></path>
	<path d="M185.1799927,235.9600067c-3.8000031,0.0099945-7.6000061,0.0099945-11.3999939,0.0099945
		c-0.5200043,0-1.1100006,0.1999969-1.1900024-0.7200012c-0.0399933-0.5-0.6699982-0.2700043-1.0399933-0.2700043
		c-6.7200012-0.0099945-13.4400024-0.0099945-20.1600037-0.0099945c-0.4799957,0-1.0200043,0.1999969-1.0599976-0.6900024
		c-0.0399933-0.8999939,0.3899994-0.9499969,1.0800018-0.9499969c6.6399994,0.0200043,13.2799988,0.0099945,19.9199982,0
		c0.5700073,0,1.3099976,0.3000031,1.3999939-0.7700043c0.0399933-0.4199982,0.6100006-0.2299957,0.9400024-0.2299957
		c3.3600006-0.0099945,6.7200012-0.0599976,10.0800018,0.0200043c1.0500031,0.0299988,1.4400024-0.2700043,1.3000031-1.2799988
		C185.3899994,232.6999969,185.3800049,234.3300018,185.1799927,235.9600067z"></path>
	<path d="M52.5099983,268.9899902c-0.1899986,0.8699951,0.2099991,1.0499878,1.0200005,1.0400085
		c6.75-0.0299988,13.4899979-0.019989,20.2399979-0.0100098c0.4700012,0,1.0299988-0.2000122,1.0599976,0.6799927
		c0.0400009,0.8800049-0.3600006,0.9500122-1.0599976,0.9500122c-6.6699982-0.019989-13.3400002-0.019989-20,0
		c-0.5600014,0-1.3199997-0.3099976-1.3400002,0.7799988c-0.0099983,0.3500061-0.5400009,0.2200012-0.8400002,0.2200012
		c-3.75,0-7.5100021-0.0100098-11.2600021-0.019989c-0.1500015-1.3099976-0.0200005-2.6000061,0.3699989-3.8599854
		c0.0299988,0.0400085,0.0699997,0.0799866,0.1199989,0.1000061c0.2700005,0.0400085,0.5400009,0.1199951,0.8100014,0.1199951
		C45.2599983,269,48.8899994,268.9899902,52.5099983,268.9899902z"></path>
	<path d="M184.5399933,243.3899994c-3.9700012-0.0099945-7.9299927-0.0200043-11.8999939-0.0299988
		c0.1900024-0.9499969-0.3500061-1-1.0899963-1c-6.7100067,0.0200043-13.4300079,0.0099945-20.1399994,0.0200043
		c-0.5899963,0-1.0700073,0.0599976-1.0599976-0.8200073c0-0.8899994,0.5-0.8099976,1.0800018-0.8099976
		c6.5899963,0.0099945,13.1900024,0.0099945,19.7799988-0.0099945c0.5800018,0,1.3800049,0.3699951,1.5800018-0.7200012
		c0.0599976-0.3500061,0.6399994-0.1799927,0.9799957-0.1799927c3.6799927-0.0200043,7.3500061-0.0200043,11.0299988-0.0299988
		c0.1900024,0.6199951-0.1199951,1.2299957-0.0500031,1.8399963c-0.2100067,0.2200012-0.2299957,0.4799957-0.1600037,0.7599945
		C184.5700073,242.7400055,184.5599976,243.0700073,184.5399933,243.3899994z"></path>
	<path d="M184.7599945,228.4900055c-3.6799927,0-7.3500061,0-11.0299988-0.0099945
		c-0.4700012,0-1.0299988,0.2200012-1.1199951-0.6499939c-0.0599976-0.6199951-0.7200012-0.3399963-1.1000061-0.3399963
		c-6.6699982-0.0200043-13.3500061-0.0099945-20.0200043-0.0200043c-0.4400024,0-1.0599976,0.2899933-1.1399994-0.6100006
		c-0.0899963-0.9700012,0.4900055-0.8899994,1.1100006-0.8899994c6.5899963,0.0099945,13.1900024,0.0099945,19.7799988-0.0099945
		c0.6100006,0,1.3899994,0.3099976,1.5099945-0.8000031c0.0399933-0.3999939,0.6199951-0.2200012,0.9499969-0.2200012
		c3-0.0099945,5.9900055-0.0099945,8.9900055-0.0099945c0.4400024,0,0.8800049,0.0599976,1.3000031-0.1300049
		C184.5,225.9700012,184.8099976,227.1900024,184.7599945,228.4900055z"></path>
	<path d="M183.0299988,221.1399994c-3.1100006-0.0200043-6.2200012-0.0399933-9.3399963-0.0700073
		c-0.4600067,0-1.0500031,0.2400055-1.0599976-0.6699982c-0.0099945-0.5899963-0.6300049-0.3200073-0.9700012-0.3200073
		c-4.9499969-0.0200043-9.8999939-0.0099945-14.8500061-0.0099945c-1.8000031,0-3.5899963,0-5.3899994,0
		c-0.5700073,0-1.0800018,0.1000061-1.0800018-0.8000031c0-0.8699951,0.4600067-0.8300018,1.0599976-0.8300018
		c6.7100067,0.0099945,13.4100037-0.0099945,20.1199951,0.0299988c0.8600006,0.0099945,1.2400055-0.2299957,1.2599945-1.0599976
		c3.5599976-0.3300018,7.1199951-0.1900024,10.6800079-0.0800018
		C183.4400024,218.6100006,183.2700043,219.8800049,183.0299988,221.1399994z"></path>
	<path d="M183.5399933,125.3399963c-3.2799988,0-6.5500031-0.0100021-9.8300018-0.0199966
		c-0.4799957,0-1.0200043,0.1900024-1.1100006-0.6699982c-0.0599976-0.5999985-0.7299957-0.3199997-1.1100006-0.3199997
		c-6.6699982-0.0199966-13.3399963-0.0100021-20.0200043-0.0199966c-0.5099945,0-1.1100006,0.2300034-1.1399994-0.7300034
		c-0.0200043-0.9499969,0.4900055-0.9000015,1.1199951-0.9000015c5.6699982,0.0100021,11.3500061,0,17.0200043,0
		c1.0399933,0,2.0800018,0.0100021,3.1199951,0c0.4900055,0,1.0299988,0.1600037,1.1000061-0.6800003
		c0.0500031-0.5699997,0.6499939-0.3099976,1-0.3199997c3.4400024-0.0199966,6.8699951-0.0100021,10.3099976-0.0100021
		C184.0200043,122.9199982,183.9600067,124.1600037,183.5399933,125.3399963z"></path>
	<path d="M52.4300003,217.3600006c-0.0200005,0.8200073,0.2799988,1.1100006,1.1899986,1.1000061
		c6.7200012-0.0500031,13.4399986-0.0299988,20.1599998-0.0299988c0.5800018,0,1.0899963-0.0899963,1.0699997,0.8200073
		c-0.0199966,0.75-0.3300018,0.8300018-0.9400024,0.8200073c-3.6800003-0.0200043-7.3600006-0.0099945-11.0400009-0.0099945
		c-3.0800018,0-6.1599998-0.0099945-9.2399979,0.0099945c-0.4900017,0-1.1399994-0.2700043-1.1699982,0.6999969
		c-0.0099983,0.5-0.5800018,0.2899933-0.8899994,0.2899933c-3.0400009,0.0099945-6.0800018,0-9.1199989-0.0099945
		c-0.3600006-1.2200012-0.4599991-2.4700012-0.4000015-3.7400055c1.2400017-0.0299988,2.4700012-0.1000061,3.7099991-0.0800018
		C47.9799995,217.2899933,50.2099991,217.0599976,52.4300003,217.3600006z"></path>
	<path d="M182.3500061,140.3399963c-3.2299957-0.0299988-6.4600067,0.1399994-9.6900024-0.0899963
		c0.1399994-0.8699951-0.2700043-1.0500031-1.0800018-1.0399933c-6.7100067,0.0299988-13.4300079,0.0200043-20.1399994,0
		c-0.4299927,0-1.0500031,0.3099976-1.1199951-0.6100006c-0.0599976-0.9400024,0.3699951-1.0099945,1.1300049-1.0099945
		c6.3899994,0.0200043,12.7899933,0.0299988,19.1799927-0.0099945c0.7599945-0.0099945,1.9100037,0.6000061,2.1699982-0.8699951
		c0.0099945-0.0800018,0.5-0.1199951,0.7700043-0.1199951c3,0,5.9900055,0.0099945,8.9900055,0.0099945
		C182.6199951,137.8600006,182.7100067,139.1100006,182.3500061,140.3399963z"></path>
	<path d="M182.8200073,132.7299957c-3.0800018,0-6.1600037,0.0099945-9.2400055,0.0099945
		c-0.4100037,0-0.8800049,0.1499939-0.9400024-0.5599976c-0.0700073-0.7700043-0.75-0.4299927-1.1499939-0.4299927
		c-6.6799927-0.0200043-13.3600006-0.0099945-20.0299988-0.0299988c-0.4499969,0-1.0599976,0.2799988-1.1100006-0.6300049
		c-0.0599976-0.9199982,0.3500061-1.0099945,1.1199951-1.0099945c6.5200043,0.0299988,13.0399933,0.0299988,19.5500031,0
		c0.6499939,0,1.5599976,0.4400024,1.7799988-0.7599945c0.0399933-0.2299957,0.4199982-0.1499939,0.6499939-0.1499939
		c3.2799988,0.0099945,6.5599976,0.0399933,9.8300018,0.0599976
		C183.25,130.4199982,183.2200012,131.6000061,182.8200073,132.7299957z"></path>
	<path d="M42.2799988,232.3300018c3.0400009,0,6.0699997,0,9.1100006,0.0099945
		c0.5200005,0,1.1100006-0.1999969,1.1699982,0.7299957c0.0400009,0.5099945,0.6699982,0.2700043,1.0200005,0.2700043
		c6.7099991,0.0200043,13.4299965,0.0099945,20.1400032,0.0200043c0.4400024,0,1.0500031-0.2799988,1.1100006,0.6300049
		c0.0599976,0.9400024-0.3799973,1-1.1299973,1c-6.6299973-0.0200043-13.2700005-0.0200043-19.9000015,0
		c-0.5299988,0-1.3300018-0.3999939-1.3699989,0.75c-0.0099983,0.4100037-0.6100006,0.2299957-0.9399986,0.2299957
		C48.4100037,235.9900055,45.340004,236,42.260006,236.0099945
		C42.0200005,234.7799988,42.0699997,233.5500031,42.2799988,232.3300018z"></path>
	<path d="M52.5099983,243.3500061c-3.4300003,0.0899963-6.8699989,0.1100006-10.2999992-0.0099945
		c0.1800003-1.1799927,0.1300011-2.3899994,0.4700012-3.5500031c2.9199982,0.0099945,5.8300018,0.0200043,8.75,0.0500031
		c0.4599991,0,1.0400009-0.2400055,1.1399994,0.6300049c0.0600014,0.5299988,0.6699982,0.2599945,1.0200005,0.2599945
		c6.7099991,0.0200043,13.420002,0.0099945,20.1300011,0.0200043c0.5100021,0,1.1100006-0.2299957,1.1399994,0.7400055
		c0.0299988,0.9600067-0.4899979,0.8899994-1.1200027,0.8899994c-6.7099991-0.0099945-13.4199982,0-20.1299973-0.0200043
		C52.8600006,242.3699951,52.3199997,242.3999939,52.5099983,243.3500061z"></path>
	<path d="M182.25,191.8699951c-3.1999969,0.1100006-6.4100037,0.25-9.6000061-0.0700073
		c0.1999969-0.9400024-0.3399963-1-1.0800018-1c-6.6799927,0.0200043-13.3500061,0.0099945-20.0299988,0.0099945
		c-0.5599976,0-1.1900024,0.2100067-1.1799927-0.8099976c0.0099945-1.0200043,0.6300049-0.8099976,1.1999969-0.8099976
		c6.6000061,0,13.1900024,0,19.7900085-0.0099945c0.5599976,0,1.3099976,0.3200073,1.4100037-0.7599945
		c0.0399933-0.4299927,0.6100006-0.2299957,0.9400024-0.2299957c2.8000031-0.0299988,5.6000061-0.0399933,8.3899994-0.0599976
		C182.2700043,189.3600006,181.9600067,190.6300049,182.25,191.8699951z"></path>
	<path d="M172.7200012,165.8200073c3.2200012,0.0099945,6.4299927,0.0099945,9.6499939,0.0200043
		c-0.0099945,1.1900024,0.4499969,2.3800049,0,3.5700073c-2.8800049,0-5.75,0.0099945-8.6300049,0
		c-0.4799957,0-1.0099945,0.1799927-1.1399994-0.6499939c-0.0700073-0.4900055-0.6799927-0.2599945-1.0500031-0.2599945
		c-6.7100067-0.0099945-13.4199982-0.0099945-20.1300049-0.0099945c-0.5500031,0-1.1100006,0.1399994-1.0899963-0.7799988
		c0.0200043-0.6999969,0.25-0.8699951,0.9100037-0.8600006c2.5200043,0.0299988,5.0299988,0.0099945,7.5500031,0.0099945
		c4.2299957,0,8.4700012-0.0200043,12.6999969,0.0200043C172.3200073,166.8899994,172.7799988,166.7200012,172.7200012,165.8200073z
		"></path>
	<path d="M42.7200012,224.9199982c2.9199982,0,5.8300018,0,8.75,0c0.5,0,1.0099983-0.1399994,1.0900002,0.6900024
		c0.0600014,0.6000061,0.7200012,0.3300018,1.0999985,0.3300018c6.670002,0.0200043,13.3400002,0.0099945,20.0099983,0.0299988
		c0.4100037,0,1.0899963-0.3600006,1.1600037,0.5700073c0.0500031,0.7400055-0.1900024,0.9600067-0.9300003,0.9499969
		c-3.3499985-0.0399933-6.7099991-0.0200043-10.0699997-0.0200043c-3.4399986,0-6.8699989,0-10.3100014,0
		c-0.4799995,0-1.0400009-0.1799927-1.0699997,0.6799927c-0.0099983,0.5200043-0.5699997,0.3099976-0.8800011,0.3099976
		c-2.8800011,0.0099945-5.75-0.0099945-8.6300011-0.0099945C42.9000015,227.2799988,42.5200005,226.1199951,42.7200012,224.9199982z
		"></path>
	<path d="M182.3200073,184.3200073c-2.8399963,0-5.6799927,0.0099945-8.5099945-0.0099945
		c-0.5,0-1.1100006,0.25-1.1999969-0.6900024c-0.0599976-0.5599976-0.7400055-0.3000031-1.1399994-0.3000031
		c-6.6799927-0.0200043-13.3500061-0.0099945-20.0299988-0.0200043c-0.4100037,0-0.9799957,0.2599945-1.0800018-0.5500031
		c-0.1199951-1,0.4499969-0.9700012,1.1600037-0.9700012c6.4799957,0.0099945,12.9499969,0.0200043,19.4299927-0.0099945
		c0.6699982,0,1.6600037,0.4900055,1.8399963-0.8300018c0.0399933-0.3200073,0.5700073-0.1699982,0.8699951-0.1699982
		c2.8399963-0.0099945,5.6799927-0.0099945,8.5099945-0.0200043
		C182.5599976,181.9199982,182.3500061,183.1199951,182.3200073,184.3200073z"></path>
	<path d="M182.0899963,176.9100037c-2.8000031,0-5.6000061,0.0099945-8.3999939-0.0099945
		c-0.4600067,0-1.0500031,0.2400055-1.0599976-0.6699982c-0.0099945-0.5800018-0.6399994-0.3200073-0.9799957-0.3200073
		c-4.6399994-0.0200043-9.2799988-0.0099945-13.9199982-0.0099945c-2,0-4,0.0200043-6-0.0099945
		c-0.5700073-0.0099945-1.4199982,0.4100037-1.3899994-0.8300018c0.0200043-1.1600037,0.8099976-0.7700043,1.3399963-0.7700043
		c6.5599976-0.0200043,13.1199951-0.0099945,19.6800079-0.0200043c0.5599976,0,1.3099976,0.3099976,1.3899994-0.7700043
		c0.0299988-0.4299927,0.6100006-0.2200012,0.9299927-0.2299957c2.8000031-0.0200043,5.6000061-0.0099945,8.3999939-0.0099945
		C182.0899963,174.4700012,182.0899963,175.6900024,182.0899963,176.9100037z"></path>
	<path d="M43.2099991,121.6699982c2.7599983,0,5.5100021,0.0100021,8.2700005,0.0100021
		c0.4900017,0,1.0200005-0.1500015,1.0699997,0.6900024c0.0400009,0.5599976,0.6500015,0.3000031,1,0.3000031
		c5.4700012,0.0199966,10.9500008,0.0100021,16.420002,0.0100021c1.1200027,0,2.2399979-0.0500031,3.3600006,0.0199966
		c0.5699997,0.0400009,1.5199966-0.5299988,1.5100021,0.8300018c-0.0100021,1.2900009-0.9300003,0.7600021-1.4499969,0.7600021
		c-6.590004,0.0400009-13.1899986,0.0199966-19.7799988,0.0299988c-0.5099983,0-1.1300011-0.2300034-1.1599998,0.7200012
		c-0.0099983,0.4700012-0.5900002,0.2699966-0.9099998,0.2699966c-2.2400017,0.0199966-4.4799995,0-6.7099991,0.0199966
		c-0.4199982,0-0.8899994-0.1600037-1.2400017,0.25C43.25,124.3000031,43.4199982,122.9700012,43.2099991,121.6699982z"></path>
	<path d="M44.0699997,129.1600037c2.4799995,0.0099945,4.9599991,0.0099945,7.4399986,0.0299988
		c0.4300003,0,0.9399986-0.1900024,1.0400009,0.6000061c0.0800018,0.5899963,0.7299995,0.2899933,1.1100006,0.3000031
		c6.6800003,0.0200043,13.3599968,0.0099945,20.0300026,0.0200043c0.5,0,1.1200027-0.25,1.1500015,0.7200012
		c0.0299988,0.9499969-0.4599991,0.9100037-1.1100006,0.8999939c-5.5599976-0.0099945-11.1199989-0.0099945-16.6699982-0.0099945
		c-1.1199989,0-2.2400017-0.0200043-3.3600006,0.0099945c-0.5200005,0.0099945-1.2799988-0.3099976-1.2400017,0.7400055
		c0.0099983,0.2899933-0.3499985,0.2599945-0.5800018,0.2599945c-2.4799995-0.0200043-4.9500008-0.0500031-7.4300003-0.0800018
		C44.1599998,131.5099945,44.0099983,130.3500061,44.0699997,129.1600037z"></path>
	<path d="M52.4300003,140.2299957c-2.4399986,0.2799988-4.8899994,0.0700073-7.3300018,0.1000061
		c-0.0200005-0.0599976-0.0499992-0.1100006-0.0900002-0.1600037c0-0.5899963,0.1800003-1.1900024-0.1399994-1.75
		c0-0.6000061-0.0099983-1.1999969-0.0099983-1.7899933c2.3100014-0.0200043,4.6300011-0.0299988,6.9399986-0.0399933
		c0.2299995,0,0.6199989-0.0500031,0.6300011,0.1999969c0.0400009,1.2599945,0.9799995,0.8000031,1.5699997,0.8000031
		c6.5900002,0.0299988,13.1699982,0.0200043,19.7600021,0.0200043c0.5500031,0,1.1100006-0.1399994,1.0800018,0.7899933
		c-0.0199966,0.7299957-0.2900009,0.8399963-0.9199982,0.8399963c-3.2300034-0.0200043-6.4700012-0.0099945-9.6999969-0.0099945
		c-3.5499992,0-7.1100006,0.0299988-10.6599998-0.0200043C52.7299995,139.1900024,52.4199982,139.4600067,52.4300003,140.2299957z"></path>
	<path d="M45.2299995,177.5099945c0.0200005,0.1199951,0.0600014,0.2299957,0.0600014,0.3500061
		c0.0400009,0.9100037-0.2799988,2.1100006,0.1800003,2.6600037c0.5499992,0.6600037,1.7999992,0.1799927,2.7400017,0.2200012
		c1,0.0399933,2-0.0099945,3,0.0200043c0.5699997,0.0200043,1.2900009-0.3000031,1.3699989,0.7799988
		c0.0299988,0.4299927,0.6899986,0.2299957,1.0600014,0.2299957c6.670002,0.0099945,13.3500023,0,20.0200005,0.0299988
		c0.4199982,0,1.0699997-0.3500061,1.1600037,0.5599976c0.0899963,0.8899994-0.3399963,0.9600067-1.0400009,0.9600067
		c-6.6299973-0.0200043-13.2700005-0.0200043-19.9000015,0c-0.5699997,0-1.4099998-0.3800049-1.4599991,0.8000031
		c-0.0099983,0.3200073-0.5499992,0.1799927-0.8499985,0.1999969c-2.0299988,0.0899963-4.0699997-0.1600037-6.0900002,0.1300049
		C44.9700012,182.1499939,45.0900002,179.8300018,45.2299995,177.5099945z"></path>
	<path d="M45.3100014,173.25c2.079998,0,4.1599998,0,6.2299995,0.0099945
		c0.4399986,0,0.9500008-0.1699982,1,0.6300049C52.5800018,174.5599976,53.2400017,174.25,53.6000023,174.25
		c6.7099991,0.0200043,13.4299965,0.0099945,20.1400032,0.0200043c0.5400009,0,1.0899963-0.1699982,1.1100006,0.7700043
		c0.0199966,1-0.5500031,0.8600006-1.1500015,0.8600006c-6.6299973,0-13.2700005-0.0099945-19.9000015,0.0099945
		c-0.5299988,0-1.3300018-0.3800049-1.3600006,0.75c-0.0099983,0.4100037-0.6100006,0.2299957-0.9399986,0.2299957
		c-2.1199989,0.0200043-4.2299995,0.0200043-6.3499985,0.0299988C44.7700005,175.6900024,44.8400002,174.4600067,45.3100014,173.25z
		"></path>
	<path d="M45.0600014,165.8000031c2.4599991,0.0099945,4.920002,0.0200043,7.3800011,0.0299988
		c-0.0800018,0.9199982,0.4000015,1.0500031,1.2200012,1.0500031c6.6699982-0.0299988,13.3499985-0.0200043,20.0200043,0
		c0.4300003,0,1.0699997-0.3300018,1.1399994,0.5899963c0.0699997,0.8800049-0.2699966,1.0399933-1.0800018,1.0399933
		C67.0700073,168.4799957,60.390007,168.4899902,53.720005,168.5c-0.5200005,0-1.2099991-0.3000031-1.3100014,0.6999969
		c-0.0400009,0.3699951-0.6300011,0.1999969-0.9599991,0.1999969c-2.0400009,0.0399933-4.0699997,0.0599976-6.1100006,0.0899963
		C44.9799995,168.2799988,45.0099983,167.0399933,45.0600014,165.8000031z"></path>
	<path d="M52.5,191.7799988c-2.0699997,0.0200043-4.1300011,0.0299988-6.2000008,0.0700073
		C45.75,191.8600006,45.5,191.6600037,45.5099983,191.0900116c0.0099983-0.4299927,0.0999985-0.8800049-0.1699982-1.2799988
		c0-0.5500031,0-1.1000061,0-1.6499939c2.0400009,0,4.079998,0,6.1199989,0.0099945
		c0.4900017,0,1.0299988-0.1699982,1.0800018,0.6799927c0.0400009,0.5700073,0.6500015,0.3099976,0.9900017,0.3099976
		c5,0.0200043,10,0.0099945,14.9900017,0.0099945c1.6800003,0,3.3600006-0.0099945,5.0400009,0.0099945
		c0.5699997,0.0099945,1.2900009-0.2799988,1.2699966,0.8500061c-0.0199966,1.0700073-0.6999969,0.7700043-1.2200012,0.7700043
		c-6.6800003,0.0099945-13.3499985,0.0200043-20.0299988-0.0099945C52.8499985,190.7899933,52.3199997,190.8399963,52.5,191.7799988
		z"></path>
	<path d="M150.3200073,285.8099976c-0.1100006-0.8999939,0.4499969-0.8999939,1.1100006-0.8999939
		c6.3999939,0.019989,12.7899933,0.0400085,19.1900024-0.0100098c0.7599945-0.0100098,1.9199982,0.5700073,2.1900024-0.8900146
		c0.0200043-0.0799866,0.5099945-0.1000061,0.7799988-0.1000061c2.7200012,0,5.4299927,0.019989,8.1499939,0.0299988
		c-2.1999969,0.5799866-4.4600067,0.7000122-6.6999969,0.9100037c-5.8699951,0.5700073-11.7599945,0.7600098-17.6600037,0.8099976
		C155.0200043,285.6900024,152.6699982,285.8900146,150.3200073,285.8099976z"></path>
	<path d="M194.3399963,73.6699982c-6.8399963,0-13.6799927,0-20.5099945-0.0100021
		c-0.5,0-1.1100006,0.2600021-1.2400055-0.6600037c-0.0700073-0.4599991-0.6900024-0.2399979-1.0599976-0.2399979
		c-6.7200012-0.0100021-13.4400024-0.0100021-20.1499939,0c-0.5899963,0-1.0599976,0.0599976-1.0500031-0.8300018
		c0.0099945-0.9100037,0.5299988-0.8000031,1.0899963-0.8000031c6.6399994,0,13.2799988,0.0100021,19.9100037-0.0100021
		c0.5700073,0,1.2899933,0.3000031,1.4100037-0.7600021c0.0500031-0.4599991,0.6900024-0.2399979,1.0500031-0.2399979
		c6.9199982-0.0100021,13.8399963-0.0100021,20.75-0.0100021C194.5800018,71.3000031,194.8000031,72.5,194.3399963,73.6699982z"></path>
	<path d="M194.5500031,66.25c-6.9199982,0-13.8399963,0.0100021-20.7599945,0
		c-0.5099945,0-1.0899963,0.2099991-1.1799927-0.7200012c-0.0500031-0.5400009-0.75-0.2799988-1.1399994-0.2799988
		c-6.6799927-0.0199966-13.3600006-0.0100021-20.0399933-0.0199966c-0.4700012,0-1.0399933,0.2099991-1.0800018-0.6800003
		c-0.0399933-0.8699989,0.3399963-0.9599991,1.0500031-0.9599991c6.7200012,0.0200005,13.4400024,0,20.1600037,0.0299988
		c0.75,0,1.2400055-0.0900002,1.1999969-0.9700012c4.6699982-0.0200005,9.3399963-0.0400009,14.0099945-0.0600014
		c2.3600006-0.0099983,4.7100067,0.0299988,7.0599976-0.0200005c0.8200073-0.0200005,1.0700073,0.3100014,0.9900055,1.0499992
		C194.7299957,64.5100021,194.6399994,65.3799973,194.5500031,66.25z"></path>
	<path d="M193.0599976,81.1200027c-6.5599976,0.0100021-13.1100006,0.0299988-19.6699982,0.0400009
		c-0.2299957,0-0.6499939,0.0500031-0.6499939-0.1500015c0-1.3600006-1.0200043-0.8399963-1.6199951-0.8399963
		c-6.5599976-0.0299988-13.1199951-0.0199966-19.6699982-0.0199966c-0.5500031,0-1.1100006,0.1399994-1.0899963-0.7799988
		c0.0200043-0.7200012,0.2899933-0.8600006,0.9299927-0.8499985c2.3200073,0.0299988,4.6399994,0.0100021,6.9600067,0.0100021
		c4.4400024,0,8.8800049,0,13.3199921,0c0.5099945,0,1.1699982,0.2200012,1.1699982-0.7200012
		c0-0.3899994,0.4199982-0.2799988,0.6699982-0.2799988c6.8399963,0.0100021,13.6699982,0.0199966,20.5099945,0.0400009
		C193.8899994,78.8000031,193.6199951,80,193.0599976,81.1200027z"></path>
	<path d="M32.4199982,70.0999985c6.3199997,0,12.6399994,0,18.9500008,0.0100021
		c0.5099983,0,1.1199989-0.2200012,1.1899986,0.7099991c0.0400009,0.5400009,0.6599998,0.2900009,1.0099983,0.2900009
		c6.079998,0.0199966,12.1599998,0.0100021,18.2299995,0.0100021c0.6800003,0,1.3600006,0.0100021,2.0400009,0
		c0.5400009-0.0100021,0.9899979-0.0599976,1,0.7699966c0.0100021,0.8399963-0.3799973,0.8700027-1.0199966,0.8700027
		C67.2200012,72.75,60.6199989,72.7400055,54.0299988,72.7700043c-0.5800018,0-1.4799995-0.4800034-1.6399994,0.75
		c-0.0400009,0.2799988-0.6500015,0.1500015-1,0.1500015c-6.2799988,0-12.5600014,0-18.8300018,0
		C32.1800003,72.4899979,32.3400002,71.2900009,32.4199982,70.0999985z"></path>
	<path d="M172.6600037,88.6999969c0.1799927-0.9899979-0.3099976-1.1600037-1.1999969-1.1600037
		c-6.6699982,0.0299988-13.3500061,0.0199966-20.0200043,0.0100021c-0.4700012,0-1.0700073,0.2200012-1.0800018-0.6699982
		c-0.0099945-0.6999969,0.1399994-0.9800034,0.9199982-0.9700012c2.9199982,0.0500031,5.8300018,0.0199966,8.75,0.0199966
		c3.7599945,0,7.5099945,0.0100021,11.2700043-0.0100021c0.5500031,0,1.2799988,0.3399963,1.4700012-0.6999969
		c0.0800018-0.4199982,0.7100067-0.2099991,1.0800018-0.2099991C179.8000031,85,185.75,85,191.7100067,85
		c-0.0200043,1.3000031-0.8999939,2.2699966-1.3699951,3.3899994c-0.1300049,0.3099976-0.4700012,0.4000015-0.8200073,0.4000015
		C183.8999939,88.75,178.2799988,88.7300034,172.6600037,88.6999969z"></path>
	<path d="M33.1500015,77.5400009c6.1500015-0.0100021,12.3100014-0.0199966,18.4599991-0.0199966
		c0.4099998,0,0.8800011-0.1399994,0.9199982,0.5800018c0.0299988,0.7300034,0.6699982,0.4100037,1.0299988,0.4100037
		c6.2299995,0.0199966,12.4700012,0.0199966,18.6999969,0.0199966c0.4800034,0,0.9599991,0,1.4400024,0
		c0.5999985-0.0100021,1.1600037-0.1299973,1.1500015,0.8600006c-0.0100021,0.9499969-0.5800018,0.7699966-1.1100006,0.7699966
		c-6.6699982,0-13.3499985,0-20.0200005,0.0100021c-0.5,0-1.2200012-0.3399963-1.2700005,0.7200012
		c-0.0200005,0.5-0.6699982,0.2699966-1.0200005,0.2699966c-5.5499992,0.0100021-11.1100006,0.0100021-16.670002,0
		C33.9799995,80.0599976,33.4300003,78.8600006,33.1500015,77.5400009z"></path>
	<path d="M52.2900009,62.6800003c0.1699982,0.75,0.5699997,0.9700012,1.3800011,0.9700012
		c6.5499992-0.0499992,13.1000023-0.0400009,19.6499977,0c0.5599976,0,1.5299988-0.5299988,1.5,0.8199997
		c-0.0299988,1.3600006-1.0199966,0.7600021-1.5599976,0.7600021C66.7099991,65.2700043,60.1600037,65.25,53.6100006,65.2600021
		c-0.5,0-1.1100006-0.2399979-1.1699982,0.7099991C52.4100037,66.5,51.7800026,66.2600021,51.4300041,66.2600021
		c-5.829998,0.0199966-11.6599998,0.0100021-17.5,0.0100021c-0.4399986,0-0.8800011,0-1.3199997,0
		c-0.0400009-0.9899979-0.0499992-1.9800034-0.1199989-2.9700012c-0.0499992-0.7099991,0.4799995-0.4000015,0.7299995-0.4000015
		c2.1899986-0.0299988,4.3800011-0.0200005,6.5699997-0.0200005c3.2999992,0,6.6100006-0.0299988,9.9099998,0.0200005
		C50.5900002,62.9000015,51.4099998,62.4599991,52.2900009,62.6800003z"></path>
	<path d="M36.1800003,85.0400009c5.1500015-0.0100021,10.2999992-0.0199966,15.4500008-0.0299988
		c0.4300003,0,0.8199997-0.0800018,0.9199982,0.6100006c0.0800018,0.5999985,0.7299995,0.3000031,1.0999985,0.3000031
		c6.7099991,0.0199966,13.420002,0.0199966,20.1300011,0.0100021c0.5800018,0,1.0599976-0.0800018,1.0599976,0.8199997
		s-0.4899979,0.8199997-1.0699997,0.8199997c-6.6699982-0.0100021-13.3400002,0.0199966-20.0100021-0.0299988
		c-0.9500008-0.0100021-1.3899994,0.2200012-1.3699989,1.1699982c-4.7400017,0.0299988-9.4700012,0.0500031-14.2000008,0.0800018
		c-0.2900009,0-0.6300011-0.0199966-0.7200012-0.3199997C37.1500015,87.2799988,36.3499985,86.2799988,36.1800003,85.0400009z"></path>
	<path d="M184.4900055,114.2300034c0.1600037,1.2200012-0.0800018,2.4100037-0.1999969,3.6100006
		c-3.5200043,0-7.0399933,0-10.5599976-0.0100021c-0.4600067,0-1.0399933,0.25-1.1199951-0.6399994
		c-0.0599976-0.6299973-0.7200012-0.3499985-1.1000061-0.3499985c-6.6799927-0.0199966-13.3600006-0.0100021-20.0400085-0.0199966
		c-0.4299927,0-1.0599976,0.3099976-1.1399994-0.5999985c-0.0800018-0.9300003,0.4199982-0.9199982,1.0800018-0.9199982
		c6.6799927,0.0100021,13.3600006,0,20.0400085,0.0199966c0.8000031,0,1.3200073-0.1200027,1.2700043-1.0400009
		c0.2700043,0.2300034,0.6000061,0.1699982,0.9199982,0.1699982c3.2299957,0,6.4700012,0,9.6999969,0
		C183.7400055,114.4499969,184.1399994,114.4400024,184.4900055,114.2300034z"></path>
	<path d="M42.9300003,117.8799973c-0.2799988-1.1299973-0.4900017-2.2699966-0.4700012-3.4400024
		c2.8499985,0,5.6899986,0,8.5400009,0.0100021c0.4399986,0,0.8600006-0.0199966,1.2700005-0.1900024
		c0.1500015,0.9000015,0.6800003,1.0699997,1.5600014,1.0699997c6.6300011-0.0500031,13.25-0.0299988,19.8799973-0.0100021
		c0.3899994,0,1-0.3300018,1.1100006,0.4899979c0.1200027,0.8899994-0.2900009,1.0400009-1.0800018,1.0299988
		c-5.2300034-0.0299988-10.4599991-0.0199966-15.6899986-0.0199966c-1.3600006,0-2.7200012-0.0400009-4.0699997,0.0199966
		c-0.5999985,0.0199966-1.4900017-0.4499969-1.5699997,0.8099976c-0.0200005,0.3099976-0.6399994,0.1699982-0.9799995,0.1699982
		C48.5999985,117.8499985,45.7700005,117.8700027,42.9300003,117.8799973z"></path>
	<path d="M54,34.1699982c0.4300003,0.2999992,0.9300003,0.1800003,1.4000015,0.1899986
		c6.1100006,0.0099983,12.2200012,0.0099983,18.3199997,0c0.6200027,0,1.1500015-0.0999985,1.1299973,0.8800011
		c-0.0199966,0.9599991-0.6100006,0.75-1.1200027,0.75c-6.8300018,0.0099983-13.6500015,0-20.4799995,0.0099983
		c-0.5600014,0-1.4199982-0.1800003-0.6899986,0.8699989c-2.7000008,0.2900009-5.4000015,0.0299988-8.1399994-0.0499992
		C47.6100006,35.9300003,50.7999992,35.0499992,54,34.1699982z"></path>
	<path d="M172.5399933,36.8600006c0.3899994-1.0600014-0.3899994-0.8800011-0.9600067-0.8800011
		c-6.2700043,0-12.5399933,0-18.8000031,0c-0.4799957,0-0.9600067-0.0299988-1.4400024,0.0099983
		c-0.6600037,0.0600014-1.0200043-0.0499992-1.0099945-0.8699989c0.0099945-0.8100014,0.4400024-0.7700005,0.9900055-0.7700005
		c6.2299957,0.0099983,12.4600067,0.0099983,18.6900024,0c0.4700012,0,0.9600067,0.1100006,1.4100037-0.1500015
		c2.9299927,0.8600006,5.8600006,1.7200012,8.7799988,2.5800018
		C177.6199951,36.9000015,175.0800018,37.1199989,172.5399933,36.8600006z"></path>
	<path d="M157.6100006,28.5300007c-2.1900024,0.0200005-4.3800049,0.0100002-6.5700073,0.0599995
		c-0.6499939,0.0100002-0.6999969-0.2999992-0.6900024-0.7999992c0.0099945-0.4699993-0.0099945-0.8600006,0.6600037-0.8500004
		c1.1100006,0.0200005,2.2299957-0.0300007,3.3399963-0.0499992
		C155.5099945,27.2999992,156.5800018,27.8799992,157.6100006,28.5300007z"></path>
	<path d="M72.0100021,26.7399998c0.6600037,0.4099998,1.4000015,0.1800003,2.0999985,0.2000008
		c0.5899963,0.0100002,0.7300034,0.2399998,0.7300034,0.7900009c-0.0100021,0.5599995-0.0599976,0.8899994-0.7600021,0.8700008
		c-1.8300018-0.0599995-3.6500015-0.0499992-5.4800034-0.0699997
		C69.7300034,27.9300003,70.8700027,27.3299999,72.0100021,26.7399998z"></path>
</g>
</svg>
