<!--?xml version="1.0" encoding="utf-8"?-->
<!-- Generator: Adobe Illustrator 24.2.3, SVG Export Plug-In . SVG Version: 6.00 Build 0)  -->
<svg version="1.1" id="Camada_1" xmlns="http://www.w3.org/2000/svg" xmlns:xlink="http://www.w3.org/1999/xlink" x="0px" y="0px" viewBox="0 0 229 418" enable-background="new 0 0 229 418" xml:space="preserve">
<g onclick="select(this)" class="" id="gola-primaria" fill="#bf0811">
	<path d="M77.9426346,7.9673753c0.58358-0.069356,1.032135-0.3976116,1.4363174-0.7842617
		c0.9175644-0.877727,1.9667511-1.6647758,2.7009964-2.6779346c1.8149261-2.5044103,4.3710556-3.4063895,7.2605515-3.79111
		c0.6240387-0.0830863,1.349823,0.1018219,1.8595047-0.4742064c1.1999969,0,2.4000015,0,3.5999985,0
		c0.1689606,0.4907088,0.5991287,0.3122897,0.914032,0.3134411c5.57827,0.0203979,11.1566238,0.020126,16.7349243,0.0349568
		c0.4080048,0.0010847,0.7730331-0.0500122,1.0710449-0.3483979c7.5200043,0,15.0400085,0,22.5599976,0
		c0.0828247,0.4741868,0.4899597,0.3142419,0.7614136,0.3587393c0.9795685,0.1605679,1.9686279,0.2632271,2.9482269,0.4236295
		c1.9836884,0.3248088,3.6552887,1.119652,4.9371338,2.7922442c1.2989655,1.6949236,2.7367096,3.3046358,4.6419067,4.3876181
		c1.3349609,0.5595255,1.9354553,1.5324001,1.8441772,3.0037222c-0.2312469,3.7279959-2.0542908,6.7283545-4.2597656,9.5706816
		c-0.4029999,0.519371-0.6724548,0.1390858-0.9757843-0.093195c-1.7763519-1.3603001-3.5279999-2.7546139-5.3391266-4.0669384
		c-0.7182922-0.5204697-0.6553192-0.8478394-0.1091766-1.4620466c1.5674438-1.7628803,2.8856964-3.6969404,3.7774658-6.0769958
		c-2.572403,0.1970119-4.9905701,0.3984365-7.4111481,0.5647984c-10.7585907,0.7394209-21.499321,1.821701-32.3157806,0.9718924
		c-6.6919632-0.5257635-13.3825684-1.0529213-20.0644302-1.69244c-0.3931198-0.0376253-0.9007416-0.2369938-1.1560059,0.0428095
		c-0.3374405,0.369853,0.0650253,0.8249645,0.220726,1.2047291c0.7995911,1.9502478,2.0776596,3.5827036,3.4878464,5.12358
		c0.3805923,0.4158716,0.7852325,0.7979889,0.0745773,1.3490562c-1.7995148,1.3954124-3.5663376,2.8337154-5.3231812,4.282795
		c-0.4913559,0.4052773-0.7964401,0.3135414-1.1702042-0.1451874c-1.9160156-2.3515911-3.4110718-4.9275246-4.2069702-7.8697643
		C75.8163681,10.5971127,76.278656,9.1439505,77.9426346,7.9673753z"></path>
</g>
<g onclick="select(this)" class="" id="detalhe-punho" fill="#801815">
	<path d="M227.842514,108.4025879c0.5749817,0.7692032,0.4148407,1.7266006,0.6702271,2.5743942
		c0.1290436,0.4283524,0.0513458,0.9416275,0.4472656,1.2786179c0,1.2792664,0,2.5585327,0,3.8377991
		c-2.5884094,1.5184555-5.5240936,2.0408173-8.3501892,2.8522034c-9.2681122,2.6609497-18.7564545,3.2958908-28.3376312,2.8338699
		c-2.0632172-0.0994873-4.1380615-0.3150177-6.1517944-0.877861c-0.5486603-0.1533432-1.0449371-0.3735123-1.4878845-0.7239075
		c-0.2774811-2.4845276,0.3950195-4.910202,0.4574432-7.3736725c3.770752,0.7478256,7.5832977,0.9685516,11.4201965,0.9679565
		c2.4749756-0.0003815,4.9785767,0.2395554,7.4136963-0.1605759c3.064743-0.5035858,6.1346741-1.0043488,9.1941071-1.5534821
		C218.1148682,111.1610413,222.9727478,109.7737122,227.842514,108.4025879z"></path>
	<path d="M0.24,114.6542282c0.4893606-1.1710663,0.3771629-2.4589615,0.7112085-3.6613846
		c0.1128704-0.4062881,0.0125913-0.8849258,0.4293163-1.1796799c0.2910708,0.1283722,0.5764085,0.272171,0.8740931,0.3827667
		c6.2617168,2.3264465,12.7867851,3.4107971,19.397501,4.0666275c3.4315319,0.3404388,6.8639488,0.0203171,10.2973766-0.0423508
		c1.7614765-0.0321579,3.5187092-0.1407547,5.2500401-0.3458481c1.4364471-0.170166,2.981884,0.0562363,4.3134613-0.805748
		c0.4163704-0.2695313,0.5930977,0.0961914,0.7915878,0.4404831c0.4368095,0.7576523,0.2224312,1.6597824,0.6029205,2.4191055
		c0.0466232,1.5126266,0.5876122,2.9912491,0.3115692,4.5260544c-2.6691475,1.3422165-5.5943871,1.6769257-8.4834976,1.7902603
		c-9.3506947,0.3668442-18.675539,0.1407166-27.842226-2.0807114c-2.2731495-0.5508575-4.541153-1.1079407-6.6533499-2.1515045
		C0.24,116.8929443,0.24,115.7735825,0.24,114.6542282z"></path>
</g>
<g onclick="select(this)" class="" id="estampa-primaria" fill="#bf0811">
	<path d="M42.907505,115.9281998c-0.3804893-0.7593231-0.166111-1.6614532-0.6029205-2.4191055
		c-0.1984901-0.3442917-0.3752174-0.7100143-0.7915878-0.4404831c-1.3315773,0.8619843-2.8770142,0.635582-4.3134613,0.805748
		c-1.7313309,0.2050934-3.4885635,0.3136902-5.2500401,0.3458481c-3.4334278,0.0626678-6.8658447,0.3827896-10.2973766,0.0423508
		c-6.6107159-0.6558304-13.1357841-1.740181-19.397501-4.0666275c-0.2976846-0.1105957-0.5830222-0.2543945-0.8740931-0.3827667
		c1.7899306-9.5023575,2.6885965-19.1367569,4.2582512-28.6731644c0.8426151-5.1193008,1.1584306-10.3164978,2.2566686-15.4050598
		c1.7446499-8.0836258,4.4581051-15.7489853,9.4218407-22.4775429c2.1457844-2.908699,4.5916576-5.5448303,7.4281387-7.7850304
		c1.3344898-1.0539589,2.2994804-2.5360756,3.8290272-3.3338928c3.6148033-1.8855038,7.2542801-3.7286377,11.0284195-5.2783661
		c10.0274162-4.1174316,20.0643997-8.2123909,29.5622063-13.4859104c1.9391403-1.0766773,3.933815-2.0501871,5.4105301-3.8396473
		c0.8109818-0.9827251,1.9905396-1.5904641,3.3671417-1.5671678c-1.664093,1.1765685-2.1263809,2.6297307-1.5008469,4.9422078
		c0.7958984,2.9422398,2.2909546,5.5181732,4.2069702,7.8697643c0.373764,0.4587288,0.6788483,0.5504646,1.1702042,0.1451874
		c1.7568436-1.4490795,3.5236664-2.8873825,5.3231812-4.282795c0.7106552-0.5510674,0.306015-0.9331846-0.0745773-1.3490562
		c-1.4101868-1.5408764-2.6882553-3.1733322-3.4878464-5.12358c-0.1557007-0.3797646-0.5581665-0.8348761-0.220726-1.2047291
		c0.2552643-0.2798033,0.762886-0.0804348,1.1560059-0.0428095c6.6818619,0.6395187,13.372467,1.1666765,20.0644302,1.69244
		c10.8164597,0.8498087,21.5571899-0.2324715,32.3157806-0.9718924c2.420578-0.1663618,4.8387451-0.3677864,7.4111481-0.5647984
		c-0.8917694,2.3800554-2.210022,4.3141155-3.7774658,6.0769958c-0.5461426,0.6142073-0.6091156,0.941577,0.1091766,1.4620466
		c1.8111267,1.3123245,3.5627747,2.7066383,5.3391266,4.0669384c0.3033295,0.2322807,0.5727844,0.612566,0.9757843,0.093195
		c2.2054749-2.8423271,4.0285187-5.8426857,4.2597656-9.5706816c0.0912781-1.4713221-0.5092163-2.4441967-1.8441772-3.0037222
		c1.8040161-0.1235514,2.9677124,0.963213,4.0435791,2.1754436c0.3423004,0.3857002,0.6642609,0.7411375,1.1140747,1.0351553
		c10.015213,6.5464888,21.2102203,10.5996943,32.1522522,15.1752443c3.9647369,1.6579075,7.8065491,3.5749054,11.7430115,5.2901115
		c1.6351929,0.7124977,2.7434998,2.2689476,4.1796417,3.3404427c3.1261292,2.3323669,5.8217316,5.1096878,8.1725159,8.219841
		c4.8403473,6.4038811,7.573822,13.7226105,9.31427,21.4695435c0.648407,2.8861542,1.1841888,5.7966232,1.4676514,8.7398987
		c0.558075,5.7943726,2.3274994,11.3395309,3.417038,17.0236282c1.1276703,5.8830719,1.9454803,11.8155975,2.8697968,17.7311859
		c-4.8697662,1.3711243-9.7276459,2.7584534-14.7245636,3.6553421c-3.059433,0.5491333-6.129364,1.0498962-9.1941071,1.5534821
		c-2.4351196,0.4001312-4.9387207,0.1601944-7.4136963,0.1605759c-3.8368988,0.0005951-7.6494446-0.2201309-11.4201355-0.9681702
		c0.397995-4.4217834,1.3395386-8.752449,2.2377777-13.0872345c0.5362396-2.5878677,1.2085876-5.1475754,1.8197479-7.7199402
		c-0.3908234,0.3567734-0.6051025,0.7716446-0.789444,1.1994095c-1.7770233,4.123909-3.0289459,8.4271622-4.175827,12.7510147
		c-2.369339,8.9325562-3.8379822,18.0407791-4.8481293,27.214325c-0.5737305,5.2101593-0.938385,10.4479065-1.2374268,15.6823578
		c-0.2820282,4.936264-0.494751,9.884491-0.4939728,14.8274231c0.002655,16.9393768-0.2863922,33.8787994,0.1625824,50.819046
		c0.193512,7.3013306,0.2618408,14.6057129,0.5153046,21.9078064c0.1688232,4.8633728,0.3232422,9.7277069,0.4854279,14.5916138
		c0.1993561,5.9791107,0.4654694,11.9532013,0.7395935,17.9288177c0.2303009,5.019989,0.4219818,10.0404358,0.8112488,15.0513
		c-7.654129,1.0700073-15.3581696,1.3612976-23.0732422,1.452179c-12.9472198,0.1525269-25.8881378,0.5621948-38.8300934,0.9285889
		c-6.7608643,0.1913757-13.4958572-0.4653015-20.2470093-0.5768433c-8.7106018-0.1439514-17.4220123-0.2460632-26.1319199-0.4232178
		c-8.3101959-0.1690063-16.6230583-0.3525085-24.8476906-1.7511292c0.5418816-3.7588501,0.4816322-7.5588074,0.7390099-11.3370361
		c0.3820381-5.6081238,0.5792046-11.2305908,0.7604103-16.8500214c0.1427193-4.4258575,0.2925491-8.8505402,0.4726982-13.2752838
		c0.2548981-6.2610779,0.389267-12.5274048,0.5358238-18.7924042c0.0933838-3.9920197,0.1545982-7.9874725,0.1912727-11.9777985
		c0.131134-14.2671509,0.0807762-28.5359955,0.0866127-42.8041992c0.0009117-2.2374725-0.0170631-4.4768066-0.1053925-6.7121582
		c-0.2500496-6.3277893-0.3140182-12.664093-0.8974266-18.9772339c-0.2267075-2.4532471-0.2513618-4.9276428-0.5398026-7.3721466
		c-0.5810051-4.9239349-1.1191139-9.8507843-2.0031929-14.7410049c-1.0833206-5.9923477-2.1588326-11.9780273-3.9337807-17.8119583
		c-0.6581345-2.1631546-1.2049675-4.3685989-2.1506424-6.554039c-0.5832481,0.8811417,0.16119,1.4419861,0.2478676,2.0992279
		c0.4439659,3.3662796,1.0535736,6.7120743,1.4424057,10.0838013
		C42.3154945,111.0284653,43.1100464,113.4209595,42.907505,115.9281998z"></path>
</g>
<g onclick="select(this)" class="" id="detalhe-lateral" fill="#ffffff">
	<path d="M180.3168945,283.9697571c-0.389267-5.0108643-0.5809479-10.031311-0.8112488-15.0513
		c-0.2741241-5.9756165-0.5402374-11.949707-0.7395935-17.9288177c-0.1621857-4.8639069-0.3166046-9.728241-0.4854279-14.5916138
		c-0.2534637-7.3020935-0.3217926-14.6064758-0.5153046-21.9078064c-0.4489746-16.9402466-0.1599274-33.8796692-0.1625824-50.819046
		c-0.0007782-4.9429321,0.2119446-9.8911591,0.4939728-14.8274231c0.2990417-5.2344513,0.6636963-10.4721985,1.2374268-15.6823578
		c1.0101471-9.1735458,2.4787903-18.2817688,4.8481293-27.214325c1.1468811-4.3238525,2.3988037-8.6271057,4.175827-12.7510147
		c0.1843414-0.4277649,0.3986206-0.8426361,0.789444-1.1994095c-0.6111603,2.5723648-1.2835083,5.1320724-1.8197479,7.7199402
		c-0.8982391,4.3347855-1.8397827,8.665451-2.2377777,13.0872345c-0.0624847,2.4636841-0.7349854,4.8893585-0.4575043,7.3738861
		c-1.2758331,10.3456116-2.3217926,20.7093811-1.9548645,31.1531219c0.0848389,2.4152832,0.7513123,4.7976074,0.4013214,7.251236
		c-0.3329468,2.3339691-0.443634,4.6863556-0.4229584,7.0467682c0.0576477,6.5835724,0.0962219,13.1778717-0.1157379,19.7472687
		c-0.1442261,4.4696655,0.7029724,8.6943665,1.4201355,12.9989471c0.8516083,5.1116943,0.9524536,10.2363281,0.2455444,15.3785553
		c-0.320282,2.3298645-0.5408936,4.6733246-0.8157501,7.0095825c-0.0492096,0.4181061,0.0968628,0.7891998,0.2263184,1.1624146
		c1.9881592,5.7323914,2.493515,11.6085815,1.5862885,17.5897217c-0.3216858,2.1208649-0.3144379,4.1804047,0.1411896,6.2758179
		c0.4254303,1.9566803,0.509079,3.958847,0.4698334,5.9625092c-0.1443481,7.3678131,0.6830597,14.6733856,1.3834839,21.9889984
		c0.2195587,2.2931824,0.334198,4.5985718,0.3148499,6.9089355c-0.0093231,1.1126404-0.4960785,1.8147888-1.5023499,2.1924744
		C184.1752014,283.5325928,182.2867737,283.9595337,180.3168945,283.9697571z"></path>
	<path d="M42.907505,115.9281998c0.2025414-2.5072403-0.5920105-4.8997345-0.8747025-7.35112
		c-0.3888321-3.371727-0.9984398-6.7175217-1.4424057-10.0838013c-0.0866776-0.6572418-0.8311157-1.2180862-0.2478676-2.0992279
		c0.9456749,2.1854401,1.4925079,4.3908844,2.1506424,6.554039c1.7749481,5.833931,2.8504601,11.8196106,3.9337807,17.8119583
		c0.884079,4.8902206,1.4221878,9.81707,2.0031929,14.7410049c0.2884407,2.4445038,0.3130951,4.9188995,0.5398026,7.3721466
		c0.5834084,6.3131409,0.647377,12.6494446,0.8974266,18.9772339c0.0883293,2.2353516,0.1063042,4.4746857,0.1053925,6.7121582
		c-0.0058365,14.2682037,0.0445213,28.5370483-0.0866127,42.8041992c-0.0366745,3.9903259-0.0978889,7.9857788-0.1912727,11.9777985
		c-0.1465569,6.2649994-0.2809258,12.5313263-0.5358238,18.7924042c-0.1801491,4.4247437-0.3299789,8.8494263-0.4726982,13.2752838
		c-0.1812057,5.6194305-0.3783722,11.2418976-0.7604103,16.8500214c-0.2573776,3.7782288-0.1971283,7.578186-0.7390099,11.3370361
		c-1.7245903-0.0838623-3.3726768-0.5370178-4.9845734-1.1035767c-1.6185989-0.5689087-2.0116501-1.1138-1.9831123-2.8437195
		c0.0459366-2.7848511,0.186451-5.5653687,0.4139137-8.3447876c0.433239-5.2938843,0.7164192-10.6002197,1.1700706-15.8921509
		c0.4089508-4.770462-0.068821-9.5951233,0.9217758-14.3286285c0.1891174-0.9036407,0.0947456-1.838028-0.0444946-2.7452698
		c-0.4787102-3.1191711-0.3467941-6.214859,0.3346939-9.2854462c0.1951103-0.8791046,0.1336899-1.7297516,0.0723305-2.6114655
		c-0.2882462-4.1416168-0.8612595-8.2615356-0.8543091-12.4265594c0.0080452-4.8191986,1.1005249-9.4173431,2.7082024-13.9132538
		c0.3438072-0.961441,0.5690727-1.8806915,0.4489937-2.909317c-0.176609-1.5128784-0.1274376-3.0283203,0.1454735-4.536911
		c0.1131401-0.625412,0.2028465-1.277359,0.1551666-1.9060059c-0.3654709-4.8179779-0.0608215-9.6545563-0.424675-14.4716797
		c-0.0846634-1.1208496,0.0723495-2.2323608,0.1582413-3.3475952c0.1443939-1.874649,0.0628281-3.747345-0.0448914-5.6249847
		c-0.3893738-6.7869263-0.1290779-13.5804901-0.0253029-20.3673248c0.1122742-7.3421783-0.643425-14.5998688-1.5617981-21.8567352
		c-0.1952324-1.5427094-0.3826065-3.0864105-0.5735855-4.6296616
		C43.4951172,118.9194489,42.9541283,117.4408264,42.907505,115.9281998z"></path>
</g>
<g onclick="select(this)" class="" id="estampa-secundaria" fill="#801815">
	<path d="M87.587677,16.2717838c2.8736649,2.8444405,5.9281845,5.4711704,9.4226151,7.5309925
		c4.7386551,2.7932377,9.9017105,4.2899265,15.3537903,4.867672c-0.0110245,0.0641022,0.0029068,0.165493-0.0396347,0.2031097
		c-0.6204681,0.5488052-1.8219299,0.5098858-1.9959793,1.3792801c-0.2310715,1.1542721-0.0830765,2.3846321-0.0944519,3.5823326
		c-0.0025253,0.2662201,0.1429901,0.450592,0.3659897,0.5750885c0.209259,0.1168213,0.4230804,0.2257156,0.6370316,0.3338852
		c3.1428909,1.5890007,3.1283112,1.5884323,3.0326614,5.0845566c-0.0163116,0.5962639-0.1734848,0.9982491-0.7408066,1.2101173
		c-0.1490021,0.055645-0.2873459,0.1398888-0.4303436,0.2114601c-3.0161896,1.5095291-3.0033646,1.5090828-2.8837433,4.8189697
		c0.0211792,0.5860901,0.1750946,1.0062561,0.7340317,1.2346115c0.147583,0.0602989,0.2860718,0.1428528,0.4286346,0.2153931
		c3.1124954,1.5836792,3.1009674,1.583004,2.88974,5.1489372c-0.0300598,0.5073814-0.1860809,0.8324585-0.6507721,1.0201225
		c-0.1846848,0.0745888-0.3571777,0.1792831-0.5354919,0.2697411c-3.0314178,1.5378609-3.0207062,1.5373573-2.8658447,4.9499092
		c0.022438,0.4945145,0.1304321,0.8502274,0.6118164,1.0394402c0.1853561,0.0728569,0.359314,0.1748352,0.5379333,0.2646103
		c3.2356186,1.6261902,3.2610931,1.6827736,2.8976822,5.2665482c-0.0401001,0.3954697-0.1404343,0.6901169-0.5260925,0.8510971
		c-0.2207413,0.0921402-0.428627,0.2148209-0.6432724,0.3218307c-3.0069733,1.4989853-2.9942093,1.4984589-2.8784943,4.8256836
		c0.0203857,0.586441,0.1727753,1.007515,0.733696,1.2333603c0.1107864,0.0446014,0.2077942,0.1336975,0.3210373,0.1604004
		c2.773819,0.6540527,3.4075012,2.5332718,3.0123596,5.0895615c-0.090004,0.5822296-0.211731,0.98349-0.7714081,1.1922226
		c-0.1488953,0.0555267-0.2858963,0.1427765-0.4286575,0.2148666c-3.0100555,1.5200577-2.9960175,1.5194855-2.868187,4.8300858
		c0.0229492,0.5945358,0.201828,0.9950256,0.7531586,1.2218781c0.1843414,0.0758438,0.3577576,0.1782684,0.5360641,0.2687607
		c3.0270615,1.536087,3.1485214,1.7801437,2.7614288,5.2292404c-0.0456238,0.4064789-0.1830292,0.6740494-0.5552597,0.8331604
		c-0.2201691,0.0941086-0.418602,0.2561798-0.6456375,0.3144836c-2.4921722,0.6401291-3.2684555,2.2693558-2.8668823,4.7062683
		c0.1077423,0.6538086,0.1985931,1.1586609,0.862793,1.3983459c0.0746307,0.0269165,0.1425858,0.0720978,0.2140884,0.1079025
		c3.115242,1.5596237,3.0997086,1.559166,2.9970703,5.0862198c-0.0175705,0.6039658-0.1921234,0.9910736-0.7573395,1.1970215
		c-0.149292,0.0543976-0.2873611,0.1397018-0.4303131,0.2113647c-2.9906998,1.4992142-2.9756088,1.4987335-2.8704453,4.8030014
		c0.019043,0.5985947,0.1952591,0.9787369,0.7532272,1.2095871c0.3670273,0.1518478,0.7152252,0.3584824,1.0521698,0.5716629
		c0.7006073,0.4432526,1.9123306,0.4485779,2.0891495,1.2433701c0.2798843,1.258049,0.1187286,2.6155701,0.1286545,3.9311142
		c0.0025177,0.3355331-0.297554,0.4487076-0.5396729,0.5801086c-0.5268021,0.2858887-1.0887527,0.5176773-1.5824127,0.8512726
		c-0.6109314,0.4128571-1.6946869,0.3711243-1.8155594,1.1927795c-0.1781006,1.2105865-0.0487747,2.4685516-0.014389,3.7053299
		c0.0042343,0.1519623,0.2073898,0.3279037,0.3580856,0.438858c0.1905746,0.1403122,0.4214554,0.2261658,0.635643,0.3341446
		c3.2295685,1.6279449,3.2166138,1.6270828,2.9923401,5.243103c-0.0322876,0.5204926-0.2316971,0.7935791-0.6741333,1.0023956
		c-0.9037476,0.4265442-1.783371,0.9043884-2.6893768,1.3257751c-0.5013657,0.2332001-0.7498856,0.5693817-0.6799622,1.1239777
		c0.0049591,0.0393219,0.0013657,0.079895,0.0002747,0.1198273c-0.0904007,3.3045044-0.1035538,3.3315125,2.8842239,4.7832947
		c0.8221588,0.3994751,1.0603409,0.8982849,1.1941833,1.8100586c0.3561325,2.4260559-0.4557495,3.9540558-2.8461227,4.6071472
		c-1.0048523,0.2745514-1.1591873,0.9732513-1.2854614,1.964386c-0.2805099,2.201889,0.4194183,3.5949554,2.5944061,4.1746979
		c1.3246765,0.3530884,1.4501572,1.2722931,1.5491028,2.5158539c0.1589203,1.9975128-0.3916779,3.293808-2.390274,3.8000488
		c-1.5585556,0.3947601-1.8794098,1.4633331-1.7130737,2.895401c0.125824,1.083313-0.3148346,2.1998444,1.2044754,2.8745117
		c3.1489944,1.3983459,3.2431335,1.7710419,2.8427582,5.1681366c-0.0471573,0.4000854-0.187912,0.6803741-0.5365448,0.8622894
		c-0.2126617,0.1109619-0.4258041,0.2210388-0.6397552,0.3295593c-3.0465927,1.5451202-3.0335617,1.5444183-2.8708038,4.9308319
		c0.026619,0.554184,0.1960983,0.9117279,0.7135468,1.1070862c0.1859589,0.0701599,0.3575897,0.1781311,0.5360718,0.2682343
		c3.017807,1.5237122,3.2320786,1.9456177,2.8001862,5.3162231c-0.0466461,0.3640594-0.1721039,0.5924988-0.4935379,0.7380524
		c-0.2183762,0.0988464-0.4296341,0.2133942-0.6440659,0.3209381c-3.0479736,1.5288849-3.0314255,1.5283203-2.9141998,4.9075165
		c0.0211639,0.6099396,0.2181473,0.9850311,0.7770615,1.1877899c0.1121521,0.0406647,0.2170944,0.1016846,0.3243027,0.1554565
		c3.0523605,1.530365,3.0355301,1.5300293,2.9568787,4.9877472c-0.01474,0.6480865-0.206871,1.0695648-0.8099747,1.3016968
		c-0.1856537,0.0714417-0.3581619,0.1768951-0.536972,0.2662354c-2.9302292,1.4638824-3.092926,1.7928009-2.7095108,5.0302582
		c0.0576782,0.4869995,0.3215637,0.7075195,0.6768723,0.8929596c0.8150711,0.425354,1.6407013,0.8305054,2.4636383,1.2406769
		c0.1786041,0.0890198,0.3851776,0.1356812,0.542511,0.2512665c0.7342834,0.539444,0.4521179,4.475235-0.3462677,4.9226685
		c-0.1742477,0.0976257-0.3573303,0.1793823-0.5344925,0.2719879c-3.0315094,1.5847626-3.0224228,1.5842743-2.7988663,4.9997711
		c0.0324936,0.4963226,0.1554489,0.849411,0.6626587,0.9999847c0.151413,0.0449677,0.2904205,0.1323242,0.4342651,0.2019806
		c3.1564102,1.5284576,3.2421646,1.7014313,2.9533234,5.2507019c-0.0418015,0.5137634-0.2470474,0.8162994-0.6888885,1.0077209
		c-0.1833649,0.0794373-0.3687057,0.1547394-0.5492935,0.240036c-3.0195313,1.4266052-3.1900177,1.7536774-2.8115692,5.103775
		c0.0468597,0.4148102,0.2034531,0.6654358,0.5626984,0.8283234c0.1819,0.0825043,0.3566208,0.1808167,0.5348892,0.2713623
		c3.1084137,1.5789032,3.0952606,1.5783539,2.9535141,5.1109161c-0.0221786,0.5526428-0.1840668,0.8986969-0.6936569,1.1174622
		c-0.4767609,0.2046204-0.9439468,0.4403229-1.3904953,0.704361c-0.6428375,0.3801117-1.7109756,0.4493561-1.8443985,1.1955872
		c-0.221489,1.2388763-0.087204,2.5437775-0.0647125,3.8201752c0.0024872,0.1413269,0.2359619,0.3025665,0.3924637,0.4111633
		c0.1953583,0.1355286,0.4212112,0.2276001,0.635231,0.3357849c3.1183548,1.5761261,3.1072159,1.5755615,2.96492,5.1057739
		c-0.0218124,0.5409698-0.1488266,0.9267578-0.6801529,1.123642c-0.1863632,0.0690918-0.3592682,0.1746063-0.5379639,0.2641907
		c-2.9257584,1.4666138-2.905426,1.4662628-2.8388138,4.7330475c0.0143661,0.7045135,0.2531052,1.1394958,0.8937607,1.3791504
		c0.0743332,0.0277863,0.1419067,0.0734711,0.21315,0.1097717c3.1121979,1.5874176,3.0988235,1.5868683,2.9512939,5.1128693
		c-0.023201,0.5542908-0.1873856,0.9089661-0.6991653,1.1139221c-0.2589951,0.1037292-0.5029221,0.2452087-0.7531052,0.3707275
		c-2.7464218,1.3778687-3.0367279,1.9477844-2.5909348,4.996582c0.0503464,0.3443604,0.1616898,0.6111145,0.4724045,0.7771301
		c0.2115173,0.1129761,0.4227524,0.2266541,0.6361847,0.335968c3.1053848,1.5906677,3.091217,1.5899048,2.9358139,5.1252441
		c-0.0246887,0.5618896-0.2088089,0.9000854-0.71521,1.1020508c-0.2591019,0.1033936-0.5031281,0.244751-0.7531891,0.3705139
		c-2.7956924,1.4057922-3.0075836,1.8264771-2.578598,4.9770813c0.0474319,0.3484192,0.163063,0.6113586,0.4622955,0.7844238
		c0.2073517,0.1199646,0.42173,0.2281494,0.635437,0.3367615c3.1104813,1.5806885,3.0981293,1.5799866,2.9477081,5.1185303
		c-0.0233765,0.5497131-0.182518,0.8998108-0.6942902,1.117981c-0.5139999,0.2191467-0.9915848,0.5258789-1.5098114,0.7323914
		c-1.1826096,0.4712219-2.1154556,1.0281982-1.8704834,2.5927124c0.1464233,0.9350586-0.7667847,0.5157471-1.2130203,0.6874084
		c-13.2572708-0.6661682-26.5309753-0.620575-39.7977142-0.8944702c-7.3931465-0.1526489-14.7824287-0.4504089-22.0924416-1.6881409
		c0.0811234-0.5480042,0.2000999-1.0942383,0.2301598-1.6452942c0.384552-7.0509338,0.7950821-14.1007996,1.1200256-21.1545715
		c0.2955246-6.4151001,0.5426216-12.8332977,0.7221756-19.2526093c0.1696205-6.0641327,0.376873-12.1294708,0.4622536-18.1931915
		c0.0803986-5.7097473,0.3138695-11.4167023,0.308197-17.127594c-0.0046043-4.6346588,0.0033379-9.2693329,0.001194-13.904007
		c-0.0057716-12.4622955,0.1271706-24.9266357-0.2915611-37.3839874c-0.0708847-2.1087646-0.098278-4.2254486-0.2418594-6.3322754
		c-0.2810364-4.1238251-0.5821877-8.2470398-0.9489059-12.3639374c-0.236145-2.651001-0.5689964-5.2949371-0.9224701-7.9334869
		c-0.3579865-2.6722641-0.7383995-5.3441162-1.2149277-7.997139c-0.3749008-2.0872421-0.5352592-4.2206192-1.2304344-6.2457123
		l-0.0091362,0.001442c0.0055161-0.1997681,0.0524902-0.4087143,0.0105209-0.5979614
		c-1.3102646-5.908989-2.7108955-11.7931213-4.9201469-17.4488602c-0.1230545-0.3150101-0.4835587-0.5805511-0.1779594-0.9718781
		c-0.1130028-0.2974625-0.250351-0.5881653-0.3353806-0.8934097c-1.4569054-5.2298965-3.3238106-10.3063049-5.6507034-15.2141418
		c-0.2712326-0.5720596-0.4687195-1.187439-0.6316261-1.8009644c-0.724926-2.730217-0.9074402-5.5598602-0.6255074-8.3132095
		c0.3234138-3.1583939-0.1707764-6.2528725-0.1520004-9.3784485c0.02211-3.6796494-0.5722275-7.325676-1.0289154-10.9720306
		c-0.25243-2.0154991-0.5915966-4.0230942-0.9782085-6.0174904c-0.1672783-0.8629189,0.0110435-1.3202248,0.8692532-1.6298943
		c2.4746323-0.8929062,4.9358978-1.8215179,7.472271-2.5303841c7.2936478-2.0384293,14.6758652-3.7579727,21.7943115-6.4133987
		c7.2577362-2.7073803,14.0029221-6.3584385,20.4477005-10.6089993
		C83.3085632,19.6856422,85.4481201,17.9787121,87.587677,16.2717838z"></path>
	<path d="M110.727005,286.3956604c-0.1926498-2.0904846-0.0422592-1.8816528,1.564682-3.0375366
		c2.1954193-1.5792236,3.8107376-0.3039856,5.4711533,0.7175293c0.8020935,0.4934387,0.2287674,1.5419312,0.313118,2.3348694
		c-2.1283035,0.0012207-4.2566223,0.0024719-6.3831482,0.0036926c-0.1489639-0.1482239-0.3005676-0.1385803-0.4528351-0.0024414
		C111.068985,286.4064026,110.8980026,286.401001,110.727005,286.3956604z"></path>
	<path d="M111.239975,286.4117737c0.1522675-0.1361389,0.3038712-0.1457825,0.4528351,0.0024414
		C111.5406723,286.4134216,111.3903198,286.4125977,111.239975,286.4117737z"></path>
	<path d="M114.7008362,152.6558075c0.1222382-0.555191-0.3475342-1.4252167,0.2380447-1.8358002
		c1.0655518-0.7471466,2.2848663-1.6965027,3.5023651-1.6481323c1.1599045,0.0460968,2.3729248,0.8942108,3.3921127,1.6266632
		c0.7419357,0.5332031,0.2556152,1.570343,0.2981567,2.3769226c0.0273285,0.5183411,0.3103409,1.2214508-0.269043,1.5518799
		c-1.1026917,0.62883-2.2379761,1.428894-3.4348602,1.5859833c-0.8290939,0.1088104-1.7889862-0.730423-2.6815186-1.1643524
		C114.6966476,154.6387329,114.7008209,154.6301575,114.7008362,152.6558075z"></path>
	<path d="M114.6763306,165.4038239c0.1614914-0.6449432-0.3366013-1.5078735,0.3044052-1.9173889
		c1.0666199-0.681366,2.2508469-1.5476837,3.4187927-1.6004333c1.2256622-0.0553284,2.4745102,0.8623962,3.5011368,1.6492767
		c0.638031,0.4890137,0.2044449,1.5048523,0.2345276,2.2801666c0.0205002,0.5284271,0.2895966,1.2349091-0.2701492,1.5663605
		c-1.0930481,0.6472015-2.2403183,1.5458832-3.4117889,1.6218414c-1.1810303,0.0765991-2.3538971-0.8778229-3.4102631-1.5791016
		C114.3306732,166.9516144,114.8500977,166.0775757,114.6763306,165.4038239z"></path>
	<path d="M122.1930618,254.2985382c-0.1748428,0.7071228,0.31604,1.5608978-0.3276901,1.9804535
		c-1.0593567,0.6904297-2.2034836,1.567688-3.4264297,1.583313c-1.2261124,0.015686-2.3998871-0.8457336-3.4186707-1.5769043
		c-0.7447739-0.5345306-0.2470093-1.5693817-0.2982178-2.375412c-0.0333176-0.5244598-0.291481-1.2315674,0.2622147-1.5651855
		c1.0860825-0.6543884,2.2061615-1.5667572,3.4303284-1.5753326c1.2260208-0.0086365,2.3629456,0.8924561,3.4289551,1.5692139
		C122.5516434,252.788269,121.9589005,253.6918335,122.1930618,254.2985382z"></path>
	<path d="M122.1753387,64.0085526c-0.1489487,0.6051865,0.3152771,1.4133911-0.2921753,1.80336
		c-1.0648422,0.6836014-2.1911926,1.5624619-3.4234695,1.5981445c-1.2408371,0.0359421-2.4014282-0.8438644-3.4200363-1.5669403
		c-0.7832794-0.5560303-0.2506256-1.6400909-0.3182678-2.4832115c-0.038826-0.4838333-0.2731628-1.1433372,0.2450256-1.4515114
		c1.0901031-0.6482964,2.1946793-1.575737,3.426445-1.586277c1.2818527-0.0109711,2.4593048,0.891819,3.5183868,1.6390038
		C122.5217514,62.3918381,122.0264053,63.3183632,122.1753387,64.0085526z"></path>
	<path d="M122.1765289,178.109436c-0.1513367,0.6510468,0.327858,1.5110321-0.293541,1.9328308
		c-1.0795441,0.7327271-2.2619171,1.7457886-3.5002136,1.6694946c-1.1753616-0.072403-2.4036255-0.8822021-3.4044342-1.6378632
		c-0.6853714-0.5175018-0.2169189-1.5792542-0.2589874-2.3937378c-0.025383-0.4916229-0.2783203-1.1637421,0.2099075-1.4664307
		c1.1142502-0.6907806,2.2987137-1.6894531,3.527504-1.6309052c1.1709366,0.0557709,2.3581314,0.9222107,3.4232483,1.6100159
		C122.5105438,176.5999908,122.0225372,177.4668884,122.1765289,178.109436z"></path>
	<path d="M122.1638565,267.1083069c-0.1404648,0.587738,0.3407898,1.4400024-0.2904282,1.8592529
		c-1.0526581,0.6990967-2.1876678,1.5678711-3.4210129,1.5966492c-1.2403793,0.0289001-2.4015961-0.8450928-3.4177246-1.5726013
		c-0.7825699-0.5602722-0.2406387-1.6404724-0.3134308-2.4829102c-0.0418472-0.4842529-0.2685623-1.1437073,0.2497711-1.4515381
		c1.0904694-0.6475525,2.1807556-1.4668579,3.4350433-1.5986938c0.9677887-0.1016846,1.7689667,0.8500671,2.7120743,1.1399536
		C122.5077362,265.0255737,122.0877457,266.1211243,122.1638565,267.1083069z"></path>
	<path d="M122.1786957,76.609108c-0.1599274,0.6494293,0.3339081,1.5150909-0.3154831,1.9192886
		c-1.0726624,0.6676483-2.2525406,1.4786682-3.4358292,1.5651321c-1.1974945,0.0875168-2.3939133-0.8260422-3.4094849-1.5598602
		c-0.7406311-0.535141-0.2459869-1.5697861-0.2958832-2.3760223c-0.0324173-0.5238495-0.2915802-1.2285995,0.2644272-1.5632935
		c1.0858536-0.6536179,2.204216-1.5641327,3.4304657-1.5706711c1.2279129-0.0065384,2.365921,0.8875351,3.4270935,1.569931
		C122.5367889,75.0391235,122.0018158,75.9391327,122.1786957,76.609108z"></path>
	<path d="M122.1958389,140.0756989c-0.1989822,0.6814728,0.3359451,1.5314331-0.3586197,1.9502411
		c-1.0872421,0.6555481-2.2841949,1.5663757-3.4317245,1.5621796c-1.1492157-0.0041962-2.3944321-0.8621063-3.4080887-1.6043091
		c-0.7139359-0.5227509-0.2310867-1.57547-0.2767792-2.3867493c-0.0295258-0.5243988-0.2751846-1.2060547,0.3119354-1.5548706
		c1.0941391-0.6499939,2.2383118-1.6434021,3.4250641-1.5683594c1.1773758,0.0744476,2.3672638,0.9120789,3.4221649,1.6103973
		C122.5437241,138.5237427,121.9750824,139.4422455,122.1958389,140.0756989z"></path>
	<path d="M114.6764145,241.583847c0.1542511-0.650589-0.3252792-1.5041962,0.307457-1.9225006
		c1.0530319-0.6961517,2.1846085-1.5738678,3.4184265-1.5940552c1.2913666-0.0211029,2.4639206,0.9117432,3.4888458,1.6840668
		c0.6647263,0.5008698,0.2075577,1.5723572,0.2453461,2.3847351c0.0226746,0.4873352,0.2684097,1.1408386-0.2603073,1.4465485
		c-1.0980682,0.634964-2.2000809,1.557663-3.4311752,1.5794525c-1.2362823,0.0219116-2.3609085-0.8925781-3.4271164-1.5653534
		C114.3162537,243.1539917,114.8536453,242.2528229,114.6764145,241.583847z"></path>
	<path d="M122.1744919,51.1750221c-0.1403122,0.6454086,0.3207245,1.5023956-0.2845154,1.9215736
		c-1.0391235,0.7196579-2.1897125,1.5561447-3.4187546,1.6067162c-1.2414932,0.0510864-2.3979187-0.8396835-3.4224243-1.5564194
		c-0.8002243-0.5598259-0.2500687-1.6370354-0.3279495-2.4773788c-0.045166-0.4871941-0.2627258-1.1527901,0.2362976-1.4599838
		c1.080864-0.6653748,2.213829-1.5994873,3.4223557-1.5834579c1.2477188,0.0165558,2.4522247,0.8839607,3.5261459,1.6134377
		C122.5000153,49.6432343,122.0359802,50.5207863,122.1744919,51.1750221z"></path>
	<path d="M114.6815338,89.1099854c0.1427536-0.6019287-0.3128204-1.4080353,0.2997742-1.7981873
		c1.0662537-0.6790771,2.1898041-1.5657654,3.423317-1.5862961c1.2392426-0.0206223,2.3876648,0.8649368,3.4206543,1.57267
		c0.764183,0.5235519,0.2456741,1.5630875,0.3084335,2.3666c0.0381546,0.4887772,0.2805405,1.1748276-0.1871567,1.466156
		c-1.1073837,0.6897888-2.2093658,1.5867081-3.5084686,1.7031784c-1.0031204,0.08992-1.8446274-0.862709-2.8168259-1.1974487
		C114.22229,91.1549988,114.8540268,90.0067291,114.6815338,89.1099854z"></path>
	<path d="M114.6804428,38.467186c0.1422958-0.6486206-0.3223419-1.5056953,0.2689133-1.9307213
		c1.0254593-0.7371483,2.1931-1.5902405,3.403717-1.6133919c1.2634888-0.0241661,2.4882202,0.8401337,3.5100861,1.6326714
		c0.6983414,0.5416145,0.2214737,1.5729713,0.27285,2.3810043c0.0312195,0.4908409,0.2673264,1.165184-0.2264938,1.4608803
		c-1.1186829,0.6698799-2.2600555,1.6320038-3.5342636,1.6022072c-1.2201843-0.0285378-2.3757095-0.8829689-3.4130707-1.6019974
		C114.3583221,39.9792824,114.8211288,39.1180763,114.6804428,38.467186z"></path>
	<path d="M122.1905899,190.7957306c-0.1695709,0.7039948,0.3174591,1.5653534-0.324646,1.9812012
		c-1.0634766,0.6887054-2.2340927,1.5534515-3.4084778,1.6342621c-1.1855698,0.0815887-2.4043274-0.8305969-3.4010239-1.5942993
		c-0.8036041-0.6157227-0.257782-1.7258301-0.3351517-2.6102295c-0.0386124-0.441391-0.269455-1.0615997,0.2191925-1.3345337
		c1.1131439-0.6217346,2.2668991-1.5231323,3.4422073-1.5846558c1.2331696-0.0645905,2.4412613,0.9005585,3.519928,1.6342163
		C122.5119247,189.3361206,121.989502,190.2084045,122.1905899,190.7957306z"></path>
	<path d="M122.174057,279.7202148c-0.1386566,0.6499634,0.3298187,1.5414124-0.2699127,1.9246826
		c-1.0919266,0.697876-2.3151093,1.5052795-3.5343094,1.5976563c-1.1332397,0.085907-2.2998581-0.8079834-3.2822189-1.5405273
		c-0.7844162-0.5849304-0.313179-1.5624084-0.3646622-2.3602295c-0.033783-0.5235901-0.2975998-1.2310181,0.2380829-1.5689392
		c1.0702438-0.6751404,2.1924515-1.5610962,3.4169846-1.588501c1.2794342-0.0286255,2.4434204,0.8943787,3.5206299,1.614624
		C122.4954834,278.1980591,122.0392914,279.0715942,122.174057,279.7202148z"></path>
	<path d="M122.1884766,228.8914337c-0.1603851,0.6967926,0.3108597,1.5490875-0.3116302,1.9669189
		c-1.0471039,0.7028656-2.1854019,1.5550537-3.4149551,1.59375c-1.23909,0.0389709-2.3841553-0.8493347-3.4186783-1.553421
		c-0.7795258-0.5305328-0.2573013-1.5575256-0.3214645-2.3568115c-0.0420074-0.5233002-0.2593613-1.1892853,0.2864227-1.5639191
		c1.0480042-0.7193756,2.2129669-1.6719971,3.389946-1.5887451c1.2140274,0.0858765,2.4359207,0.9177094,3.5208588,1.6271362
		C122.5077057,227.4013367,122.0035324,228.2969055,122.1884766,228.8914337z"></path>
	<path d="M122.1754456,127.3031616c-0.1312103,0.6623001,0.3207474,1.551178-0.2551575,1.9343262
		c-1.0798187,0.7184448-2.3167877,1.6181946-3.5029297,1.6396637c-1.1334763,0.0205231-2.3750992-0.8529663-3.3994217-1.574295
		c-0.745697-0.5251312-0.242485-1.5611649-0.2958832-2.3634262c-0.0347824-0.5224152-0.2840958-1.2122421,0.2758942-1.5601883
		c1.0744095-0.667572,2.1724243-1.5810089,3.4283981-1.547554c1.2455063,0.0331879,2.3574448,0.9086151,3.4261017,1.5791473
		C122.516861,125.8277283,122.009819,126.6778107,122.1754456,127.3031616z"></path>
	<path d="M122.1723938,216.1753693c-0.1269608,0.6551819,0.3220062,1.5458527-0.252861,1.9368896
		c-1.0760422,0.7319489-2.309494,1.6557312-3.4952698,1.6815186c-1.12677,0.0244904-2.3510513-0.8871765-3.3904953-1.5953217
		c-0.7390518-0.5034943-0.2673111-1.4887085-0.3103943-2.2523804c-0.0316849-0.561615-0.2927094-1.2787933,0.3008118-1.6755524
		c1.0573959-0.7068787,2.2158203-1.6890717,3.4010849-1.5859528c1.2174072,0.1059265,2.423111,0.9603424,3.5115662,1.6737061
		C122.482132,214.715683,122.0455246,215.5610809,122.1723938,216.1753693z"></path>
	<path d="M122.1912613,203.5225983c-0.1815948,0.6846619,0.3252869,1.5335236-0.3374252,1.951828
		c-1.0668716,0.6733856-2.1850662,1.5550232-3.4241104,1.5769043c-1.2458649,0.0219727-2.4266205-0.7936249-3.4092026-1.5744629
		c-0.7514038-0.5971375-0.2332764-1.649292-0.2981949-2.4928894c-0.0366287-0.4759674-0.2802734-1.1237793,0.2781143-1.4286652
		c1.1128464-0.6077271,2.2861862-1.5687714,3.4192123-1.5480042c1.1858902,0.0217285,2.421196,0.9230652,3.5025482,1.6394806
		C122.5080643,202.0349579,122.0008926,202.9242859,122.1912613,203.5225983z"></path>
	<path d="M122.1725769,114.7108383c-0.1280518,0.6147537,0.3104095,1.4605789-0.2384262,1.8186111
		c-1.0910263,0.7117004-2.3220139,1.6269836-3.5110397,1.6503143c-1.1347046,0.0222855-2.3802261-0.8544464-3.4053268-1.5787125
		c-0.7446213-0.5261002-0.243103-1.5656509-0.2959137-2.3704224c-0.0343094-0.5227814-0.2856827-1.2233276,0.2913437-1.5556183
		c1.099472-0.6331482,2.2778397-1.6065063,3.4054947-1.5828781c1.1871719,0.0248871,2.4227753,0.9483032,3.5006485,1.6800537
		C122.4956131,113.1633911,122.0444489,114.0552139,122.1725769,114.7108383z"></path>
	<path d="M122.1925735,101.8980637c-0.1756058,0.7017975,0.324913,1.5672989-0.3116226,1.9771576
		c-1.0962067,0.7058258-2.2762833,1.6700134-3.5305405,1.6205521c-1.1423874-0.0450363-2.33992-0.7874069-3.2966309-1.570015
		c-0.748291-0.6121216-0.2801361-1.5818481-0.3304291-2.386528c-0.0324936-0.5199661-0.3001938-1.2202148,0.2837524-1.5554733
		c1.1007614-0.6319733,2.20327-1.5785065,3.4457397-1.5492783c1.2355118,0.0290527,2.3782806,0.8909073,3.4296799,1.5967102
		C122.5121078,100.4538422,121.9824219,101.3147278,122.1925735,101.8980637z"></path>
	<path d="M118.1227341,70.2750931c-0.1366043,0.5905609,0.3451691,1.4617691-0.2628098,1.8704453
		c-1.0472488,0.7039413-2.1790085,1.5960922-3.4334488,1.5700378c-1.2921066-0.0268402-2.4808884-0.8842545-3.5213165-1.6558914
		c-0.6178207-0.4581985-0.2038345-1.4330368-0.228096-2.1713104c-0.0174255-0.5302811-0.2943344-1.2504196,0.2529449-1.5707474
		c1.1291962-0.6609497,2.3034363-1.4658813,3.5407944-1.6435547c0.8215714-0.1179504,1.7551804,0.8352432,2.6914673,1.1539001
		C118.4900436,68.2798767,118.0305023,69.3318634,118.1227341,70.2750931z"></path>
	<path d="M118.1034164,44.7570496c0.3733139,1.5046883-0.2756958,2.3552551-1.6630173,2.7904434
		c-0.7467575,0.2342529-1.3969879,1.0826378-2.1603928,0.8380203c-1.1618652-0.3722954-2.24646-1.018261-3.3162613-1.6310234
		c-0.538826-0.3086395-0.2232132-0.9513016-0.3085861-1.4407425c-0.3027725-1.7358513,0.2691116-2.9003067,2.0784607-3.3368225
		c0.6492538-0.1566353,1.1835632-0.9865532,1.8137054-0.7699356c1.1568985,0.397686,2.2815399,0.9752197,3.3004227,1.6559868
		C118.4705124,43.2790794,117.9474335,44.1426506,118.1034164,44.7570496z"></path>
	<path d="M118.1202087,260.8060913c-0.1470032,0.5653381,0.3577423,1.4237366-0.2989883,1.8314819
		c-1.0704041,0.6646423-2.1837921,1.5823059-3.4426422,1.5267029c-1.2415009-0.0547791-2.4009857-0.8618774-3.4172211-1.5995178
		c-0.6946793-0.5042419-0.2424393-1.4944153-0.2825165-2.2621155c-0.0273514-0.5239563-0.2925415-1.2297974,0.2750015-1.558136
		c1.0966034-0.6343994,2.1774826-1.4558716,3.4380341-1.5965576c0.9844055-0.1098633,1.7850876,0.8113098,2.7236023,1.1125793
		C118.5008316,258.7052307,118.0404282,259.8077698,118.1202087,260.8060913z"></path>
	<path d="M118.1191788,159.225296c-0.1116409,0.551178,0.3121643,1.3618317-0.2290802,1.761322
		c-1.0179977,0.7514648-2.1873169,1.5893555-3.3969269,1.6295929c-1.2679825,0.0421753-2.446991-0.8926544-3.5143509-1.6299744
		c-0.6864243-0.4741821-0.2770844-1.4167633-0.3008881-2.1453705c-0.0185089-0.5660858-0.3004456-1.3136292,0.309021-1.6705627
		c1.093399-0.6403503,2.2210236-1.3818665,3.4257278-1.6207275c0.9111938-0.1806641,1.7593079,0.8268433,2.6993942,1.1318665
		C118.4906845,157.1287384,118.0456314,158.2310181,118.1191788,159.225296z"></path>
	<path d="M118.1237335,82.983696c-0.1379318,0.5923538,0.3437729,1.4621582-0.2628479,1.8676071
		c-1.0454636,0.698761-2.1833878,1.615036-3.4210587,1.5537872c-1.2653656-0.0626068-2.5112762-0.8204117-3.5221405-1.6316299
		c-0.6338043-0.5086517-0.2053452-1.5071182-0.2427826-2.2825394c-0.0237503-0.4921646-0.2624588-1.1629333,0.2374268-1.4574356
		c1.1224976-0.6612854,2.2282562-1.531395,3.5396347-1.625206c0.9746017-0.0697021,1.7875214,0.8144836,2.7217331,1.1316147
		C118.4971085,80.9891281,118.0261917,82.0480804,118.1237335,82.983696z"></path>
	<path d="M118.1482697,247.8596497c-0.1478577,0.7242889,0.3083191,1.6009369-0.2595673,2.0067596
		c-1.0236969,0.7315369-2.1680069,1.5738068-3.4140167,1.5950012c-1.2979431,0.022049-2.4677505-0.8758545-3.5237198-1.6135864
		c-0.6867752-0.4798126-0.2269211-1.4938812-0.2751083-2.2644348c-0.030899-0.4940796-0.259491-1.1561584,0.2020493-1.4734955
		c1.0803375-0.7428131,2.2745056-1.544754,3.5359573-1.6283264c1.2390442-0.0821075,2.3733063,0.8522034,3.4316177,1.5338745
		C118.4769745,246.4221954,117.9412766,247.2919922,118.1482697,247.8596497z"></path>
	<path d="M118.1540222,171.7228241c-0.1929321,0.7251282,0.3427124,1.6168365-0.3693924,2.0666199
		c-1.0324707,0.6520996-2.1461868,1.5794525-3.3084717,1.5139313c-1.2446594-0.0701599-2.4890213-0.8341675-3.523056-1.6316833
		c-0.6574173-0.5070496-0.2485657-1.4292908-0.2746811-2.1603241c-0.0201035-0.562561-0.2934723-1.2913971,0.3277817-1.6612854
		c1.0880661-0.6478729,2.198761-1.5788879,3.4188156-1.5791016c1.2212753-0.0002136,2.376358,0.8670044,3.4189224,1.5808258
		C118.4683533,170.2792969,117.9463425,171.1335144,118.1540222,171.7228241z"></path>
	<path d="M118.0889893,108.3839111c-0.1758957,0.6541138,0.4945374,1.6680603-0.4418716,2.0147171
		c-1.4503326,0.536911-2.6953049,2.3225708-4.5497589,0.9343643c-0.0630264-0.0471725-0.1396713-0.0765839-0.2110519-0.1120911
		c-2.4656525-1.2263947-2.5217896-1.3302917-2.2262039-4.123497c0.0125427-0.1185303,0.0020828-0.2450485,0.0405884-0.354393
		c0.2435684-0.6917648,3.6900101-2.1773071,4.3651886-1.8723068c0.4715652,0.213028,0.9088745,0.5092621,1.3907852,0.6905136
		C117.7718506,106.0559235,118.5112991,106.8614426,118.0889893,108.3839111z"></path>
	<path d="M118.1276093,197.3438416c-0.1626587,0.5900269,0.3532639,1.4292755-0.3430481,1.8517151
		c-1.0457535,0.6344147-2.1599731,1.6211243-3.3030548,1.5066986c-1.2241135-0.122467-2.4331131-0.9394226-3.5239944-1.6456757
		c-0.6618271-0.4284973-0.2537308-1.3386688-0.2800903-2.0275574c-0.0218964-0.5725403-0.2938232-1.3280487,0.2510071-1.6954346
		c1.0815887-0.7293243,2.2313232-1.5176697,3.5153122-1.6825867c0.9603348-0.1233368,1.7698212,0.8282013,2.6998672,1.151123
		C118.51548,195.2784882,118.0161285,196.3848419,118.1276093,197.3438416z"></path>
	<path d="M118.1323013,57.5656128c-0.1559906,0.6198463,0.337532,1.4675674-0.2869034,1.8955612
		c-1.0416718,0.7139664-2.2085037,1.5111923-3.4399796,1.5342598c-1.2423172,0.0232658-2.395874-0.84515-3.419632-1.5655746
		c-0.7560806-0.5320587-0.2465744-1.5652618-0.3074951-2.3693466c-0.0366669-0.4839973-0.2748108-1.1583519,0.2517624-1.4446068
		c1.1431274-0.6214447,2.2171631-1.5432739,3.5430984-1.6133194c0.9870834-0.0521431,1.7830429,0.8266487,2.7194214,1.1396828
		C118.5277863,55.5886345,118.0008545,56.6716309,118.1323013,57.5656128z"></path>
	<path d="M118.1389084,222.4941711c-0.1363525,0.6812897,0.3165359,1.5617523-0.2443237,1.9640503
		c-1.0232773,0.7340546-2.1836243,1.6852112-3.3779678,1.6502228c-1.3264542-0.0388947-2.7789841-0.8082123-3.6437149-1.8127289
		c-0.6559143-0.7619324-0.2178726-2.1425018-0.1517944-3.2475433c0.0174561-0.2919464,0.2978516-0.4533539,0.5542984-0.5819702
		c0.2848816-0.1428833,0.6089325-0.24086,0.8456497-0.4412994c1.9922028-1.6867676,3.7627106-0.6111298,5.5332947,0.4251709
		C118.5364609,220.9663239,117.9123764,221.8406067,118.1389084,222.4941711z"></path>
	<path d="M118.1248093,121.0633621c-0.1642151,0.6133652,0.3570786,1.4707794-0.3604736,1.9567108
		c-1.0168686,0.6886368-2.162323,1.5041885-3.325386,1.4827271c-1.2600708-0.0232925-2.4673233-0.8772888-3.4984665-1.6673813
		c-0.6399689-0.4903564-0.2376938-1.4302521-0.2638321-2.1646118c-0.0187988-0.5277863-0.2857666-1.2363892,0.2777557-1.5598297
		c1.1331253-0.6503754,2.3008194-1.4548492,3.5366364-1.6368027c0.8207397-0.1208496,1.7598343,0.7969513,2.6899033,1.1255417
		C118.4892883,119.0619507,118.0267868,120.1204376,118.1248093,121.0633621z"></path>
	<path d="M118.1349564,273.3207397c-0.1253815,0.6702576,0.3143005,1.5496521-0.2537842,1.9545898
		c-1.027565,0.7325134-2.1677094,1.5803528-3.4288406,1.5927124c-1.3163147,0.0129395-2.4617004-0.921875-3.5121613-1.6753845
		c-0.6770096-0.4856262-0.2177582-1.4993286-0.2633591-2.2720337c-0.0288773-0.4891968-0.2652359-1.142395,0.2555008-1.4559937
		c1.0901489-0.6564636,2.2013779-1.5618591,3.4443283-1.575592c1.2424164-0.0137329,2.4051514,0.8190918,3.4590302,1.5230103
		C118.4747391,271.8389282,117.9728165,272.69104,118.1349564,273.3207397z"></path>
	<path d="M118.1209106,133.7600861c-0.1304092,0.5840302,0.3395767,1.444519-0.2719498,1.8614655
		c-1.0408325,0.7096558-2.1876602,1.6129456-3.406601,1.5889587c-1.2602463-0.0247803-2.4602966-0.8893433-3.4995804-1.6651154
		c-0.6467743-0.4827881-0.2391434-1.428009-0.2658386-2.1617432c-0.0192108-0.5279846-0.2885971-1.2412567,0.2664719-1.5625
		c1.1305161-0.6542664,2.2942276-1.4092712,3.5373764-1.6580963c0.8978119-0.1796875,1.7523041,0.82724,2.6877441,1.1438141
		C118.4771957,131.7497406,118.0406876,132.807312,118.1209106,133.7600861z"></path>
	<path d="M118.1347275,146.4235229c-0.1467361,0.6426849,0.3312912,1.5156555-0.300148,1.9145966
		c-1.065773,0.6733398-2.2563095,1.4980011-3.4291306,1.5559082c-1.1812363,0.0583038-2.3739243-0.848465-3.3987656-1.583725
		c-0.7380447-0.5295105-0.2822418-1.4924774-0.3283844-2.2573547c-0.0316544-0.5245209-0.2828445-1.2387543,0.2908707-1.5530548
		c1.143486-0.6264648,2.2390594-1.6950989,3.512085-1.6455688c1.208786,0.0469971,2.384903,0.8705597,3.3957748,1.628006
		C118.4508896,144.912323,117.9989243,145.7677307,118.1347275,146.4235229z"></path>
	<path d="M118.1324768,95.6867371c-0.1608353,0.6188431,0.3465958,1.48069-0.3045883,1.8942108
		c-1.0666809,0.6773682-2.1794662,1.5784302-3.4500809,1.5436935c-1.2638397-0.0345306-2.3647614-0.9466324-3.4073334-1.6491165
		c-0.7191391-0.4845352-0.2443848-1.4900436-0.2908478-2.2568741c-0.0315628-0.5211716-0.2917175-1.2194061,0.3107986-1.5478973
		c1.1146393-0.6076813,2.1838837-1.49823,3.4633865-1.542923c0.9644547-0.033699,1.804245,0.7963257,2.7399216,1.1206512
		C118.532074,93.7123947,117.9961929,94.7904358,118.1324768,95.6867371z"></path>
	<path d="M118.1195068,184.5530396c-0.1240616,0.5807495,0.334343,1.4360657-0.2533951,1.8636169
		c-1.02108,0.7428284-2.1894608,1.5821991-3.4018326,1.6152496c-1.2733841,0.0346985-2.4114304-0.968277-3.4959488-1.673645
		c-0.6816711-0.4433136-0.265152-1.4120789-0.2914963-2.1413879c-0.0204391-0.5660858-0.2801819-1.2923431,0.3319016-1.6655121
		c1.0817261-0.6595154,2.1927109-1.5248413,3.4229965-1.5762024c0.8854065-0.0370026,1.7794876,0.8070068,2.7147598,1.1261902
		C118.451088,182.5465698,118.0538788,183.5863953,118.1195068,184.5530396z"></path>
	<path d="M118.1498413,209.8043518c-0.1507874,0.7296906,0.2964783,1.5724945-0.2793427,2.0159149
		c-1.003334,0.7726593-2.226944,1.5636444-3.4063721,1.5785217c-1.2345734,0.0155487-2.4425888-0.8998718-3.503952-1.6450653
		c-0.6704636-0.4707489-0.2486038-1.4166565-0.2845306-2.1458588c-0.0262527-0.5326233-0.2615814-1.2302246,0.2580795-1.5760498
		c1.0871506-0.723526,2.2485123-1.6314087,3.510231-1.6484833c1.1638489-0.0157318,2.304306,0.7996216,3.3244095,1.4828949
		C118.5005951,208.3566589,117.9106827,209.2192078,118.1498413,209.8043518z"></path>
	<path d="M118.1363373,235.2178192c-0.1400604,0.6631622,0.3207016,1.528595-0.2514572,1.9523926
		c-1.0181503,0.7541656-2.207634,1.511261-3.4417038,1.5693359c-1.25457,0.0590515-2.3910065-0.8538971-3.4430389-1.5452728
		c-0.7561951-0.4969635-0.2614822-1.4889984-0.3211823-2.2540131c-0.0383148-0.49086-0.2797546-1.1729279,0.1908188-1.473053
		c1.1034164-0.7037354,2.2134247-1.6524963,3.5135727-1.7039032c1.2660675-0.0500183,2.3821182,0.8657837,3.4482269,1.5434113
		C118.4787292,233.7180328,117.9730301,234.5825043,118.1363373,235.2178192z"></path>
	<path d="M118.1361008,32.0793915c-0.1417313,0.6579018,0.3223572,1.5220184-0.2593613,1.9418564
		c-1.0241394,0.7391624-2.1862183,1.5580635-3.4308472,1.5690651c-1.2953186,0.0114517-2.4754868-0.8688622-3.5224915-1.6284981
		c-0.6355362-0.4610977-0.2252197-1.4277306-0.2445526-2.1622849c-0.0137711-0.5237083-0.308136-1.2298164,0.2638092-1.5573978
		c1.0971527-0.6284008,2.1673584-1.5066872,3.4435349-1.5628452c1.2974854-0.0570946,2.4071045,0.8040085,3.4627686,1.4867363
		C118.4737473,30.5700912,117.9791031,31.4404011,118.1361008,32.0793915z"></path>
	<path d="M121.6689453,27.6313858c-1.5426712,1.6711807-3.3766937,2.0156193-5.1294708,0.8605556
		c1.7838211-0.2915554,3.4643936-0.5662327,5.1449509-0.8409119L121.6689453,27.6313858z"></path>
</g>
<path d="M121.6844254,28.0710297c0.0765457-0.0589943,0.1530991-0.1179867,0.2296448-0.1769791
	c0.0197678,0.0446911,0.0395355,0.0893803,0.0593033,0.1340714c-0.1014252,0.0078239-0.2028503,0.0156479-0.3043518,0.0233669
	C121.6689453,28.0513859,121.6844254,28.0710297,121.6844254,28.0710297z"></path>
<path d="M28.7729321,33.4272537c-0.028801,0.580822-0.0576019,1.161644-0.0864029,1.742466
	c-0.0187912-0.0004082-0.0375786-0.0008163-0.0563698-0.0012283c0-0.5962601,0-1.192524,0-1.788784
	C28.6777515,33.3955536,28.7253418,33.4114037,28.7729321,33.4272537z"></path>
</svg>
