<!--?xml version="1.0" encoding="utf-8"?-->
<!-- Generator: Adobe Illustrator 24.2.3, SVG Export Plug-In . SVG Version: 6.00 Build 0)  -->
<svg version="1.1" id="Camada_1" xmlns="http://www.w3.org/2000/svg" xmlns:xlink="http://www.w3.org/1999/xlink" x="0px" y="0px" viewBox="0 0 229 418" enable-background="new 0 0 229 418" xml:space="preserve">
<g onclick="select(this)" class="" id="estampa-primaria" fill="#ffffff">
	<path d="M43.3251877,120.6400299c0.0328255-2.3720551-0.4479294-4.6726074-0.9674187-6.9681168
		c-0.1202202-0.5312042-0.4143372-0.4315796-0.8002129-0.2821274c-1.717659,0.6652451-3.465416,1.1455765-5.342453,1.1464615
		c-3.6985168,0.0017395-7.3968143,0.1149216-11.0928478-0.1318054c-1.5918961-0.1062698-3.1866016-0.2161865-4.78092-0.2314072
		c-3.9085369-0.0373306-7.615387-1.2645111-11.4230356-1.8909149c-1.8448792-0.3035126-3.6547766-0.8265915-5.4736233-1.2780151
		c-0.7386134-0.1833115-1.4358873-0.4907761-2.0628524-0.9366074c1.7948196-9.4650497,2.6792479-19.0649109,4.2429094-28.5652542
		c0.849421-5.1608276,1.1670041-10.3998489,2.277905-15.5287018c1.742465-8.0446968,4.4394779-15.676693,9.3643827-22.3827934
		c2.140049-2.9140472,4.5777931-5.5591583,7.4117775-7.8018188c1.3627796-1.0784302,2.361639-2.5726166,3.9245949-3.3992348
		c3.6053352-1.9067955,7.2556648-3.7269535,11.0274811-5.2820396c9.9830856-4.1159401,19.9887543-8.180336,29.4469223-13.4433012
		c1.9736176-1.0982161,3.9911194-2.0937567,5.5190811-3.8934603c0.8932724-1.0521345,2.1593018-1.785687,3.7116089-1.5061016
		c-2.2008972,1.5300407-2.4698792,2.3294382-1.9042664,4.9610043c0.3932037,1.8295164,1.1496964,3.4854546,2.1981354,5.0011978
		c4.4804993,6.4775391,9.0317078,12.9020252,14.7170868,18.4176025c3.2086792,3.1128311,6.1320648,6.5533409,9.9883118,8.9315453
		c2.3684692,1.4606743,4.8041458,2.8094711,7.5714264,3.3996239l-0.0155182-0.0165253
		c0.0005417,0.2532463,0.1840134,0.2090645,0.3402023,0.2092285c0.7069626,0.3137627,1.4139786,0.6272964,2.2214355,0.4819565
		c0.1432037-0.000679,0.285553-0.0013733,0.4278946-0.0020676c0.9465103,0.2661324,1.6950989-0.3410454,2.5286942-0.5730972
		c3.5899734-1.1798439,7.055397-2.6777725,9.9528503-5.1221199c5.2933121-4.4655762,10.1697311-9.3770981,14.5357895-14.7566338
		c2.312851-2.8497334,4.3860474-5.8940735,6.5653687-8.8520775c1.6647491-2.2595615,3.0646362-4.6444292,3.7664642-7.4051085
		c0.4756012-1.8707933,0.0718079-3.3725061-1.524292-4.5073223c1.6410065,0.1001673,2.7957306,1.0407495,3.7727356,2.2407551
		c0.3315582,0.4072104,0.6869507,0.7275991,1.1291656,1.0211039c8.8731384,5.8893929,18.7906342,9.6165962,28.5283508,13.6875648
		c5.0677338,2.1186352,10.0373383,4.4492893,15.0912781,6.5920124c0.2848358,0.1207619,0.5545197,0.2901917,0.8082581,0.4695015
		c12.3866272,8.7527809,19.4388123,20.8484116,21.5997467,35.6809959
		c1.3801422,9.4732819,3.7359619,18.7351227,5.3077698,28.1555099c0.6773376,4.0595322,1.2589722,8.135025,1.8840332,12.2032089
		c-0.3144073,0.1669693-0.6130524,0.379509-0.9454346,0.4943771c-7.6457062,2.6421967-15.4737549,4.6348114-23.5565796,4.9960785
		c-5.7097626,0.2552109-11.4874573,0.4986954-17.1700134-0.685112c-0.441864-0.092041-0.6445465,0.0222473-0.7293549,0.4956894
		c-0.3925476,2.1919022-1.0461426,4.3512497-0.7629089,6.6206818c-0.576004,2.0075912-0.5193176,4.0965042-0.7762756,6.144783
		c-0.8967896,7.1488953-1.2922821,14.3323212-1.3660889,21.5348511c-0.0229797,2.2415161,0.0538788,4.4678345,0.5196838,6.6791534
		c0.4022522,1.9098206-0.0415802,3.8268585-0.2045441,5.732132c-0.1810608,2.1171875-0.2475739,4.2311707-0.14888,6.350708
		c0.1007233,2.1633911-0.1486511,4.3136597-0.2010803,6.4691315c-0.0689697,2.835022-0.1222534,5.676178,0.1277161,8.5127258
		c0.147522,1.6738586,0.0896759,3.352478-0.0990601,5.0296326c-0.3492279,3.1034393,0.1965027,6.1215668,0.8816376,9.1379089
		c1.645462,7.2442474,1.3769531,14.5310211,0.3393097,21.8220825c-0.3051605,2.1443787-0.3706207,4.2115479,0.3300323,6.3591309
		c1.7713318,5.4294739,1.8126526,11.0121002,0.9382629,16.6133118c-0.2313538,1.4821472-0.2454681,2.9263763,0.0932312,4.3943939
		c0.8730927,3.7845001,0.4477844,7.6447449,0.6414337,11.4699249c0.3010254,5.9458618,0.6882019,11.8882141,1.4374237,17.8032227
		c0.2545319,2.009491,0.219223,4.0592346,0.2559814,6.0916443c0.0330658,1.8279114-0.3303223,2.3298645-2.0780792,2.8551636
		c-3.0056458,0.9034119-6.1239014,1.1581726-9.2250671,1.4784546c-7.687027,0.7939453-15.4046021,0.8662415-23.1227875,1.0108643
		c-11.2349701,0.2105103-22.4660492,0.6524963-33.7014008,0.8138733
		c-12.4782715,0.1792297-24.9354324-0.8465881-37.415329-0.8483276c-8.3974609-0.0011597-16.7972946-0.099884-25.1777344-0.7358704
		c-4.1889534-0.3178711-8.3641396-0.7600403-12.4701881-1.6979065c-0.1559067-0.035614-0.3131027-0.0661316-0.4678688-0.1061401
		c-3.2493629-0.8399048-3.6074333-1.1913757-3.4103165-4.5153503c0.460907-7.7724609,1.0086174-15.5399475,1.5535736-23.3071594
		c0.1456757-2.0762939,0.2778282-4.1502228,0.2280006-6.2310944c-0.0422707-1.7650146,0.042881-3.5201569,0.3605576-5.2571259
		c0.4134331-2.2605438,0.4554749-4.5117798,0.124012-6.795517c-0.365612-2.5189972-0.0975494-5.0328064,0.4442635-7.5074768
		c0.2181778-0.996521,0.1949005-1.9704437,0.1205864-2.9739532c-0.3364258-4.5428772-1.0249634-9.0656433-0.8369026-13.6397247
		c0.1790504-4.3548889,1.2046204-8.5375671,2.6859703-12.6118927c0.3782005-1.0401917,0.6002884-2.0374146,0.4369202-3.146759
		c-0.1810913-1.2296448-0.1527023-2.4737091,0.079113-3.703598c0.3065872-1.6266022,0.1933861-3.2497253,0.1121597-4.8944397
		c-0.1633339-3.3072205-0.1824417-6.6232605-0.1962395-9.9359283c-0.0539207-12.9464722-0.0431595-25.8933411-0.1401062-38.8394623
		c-0.0383949-5.1265564-0.9984093-10.1811676-1.5110817-15.271286
		C43.659832,123.3368759,43.4832153,121.9893875,43.3251877,120.6400299z"></path>
	<path d="M118.6139908,37.221283c-3.3244858-0.0004387-6.6489716-0.0008812-9.9741135-0.0012779
		c-1.7259674-1.8192406-3.4684143-3.6226349-5.1729202-5.461195c-3.3088074-3.5690079-6.8811264-6.8971043-9.98069-10.6536903
		c-2.949295-3.5744762-5.5266266-7.4079666-7.2650375-11.7455769c1.3525162,0.1145182,2.7055359,0.2262487,4.0580215,0.3440599
		c9.5864487,0.8350477,19.161438,1.8715324,28.8136063,1.3705292c7.2594299-0.3768044,14.5097275-0.8775806,21.7548294-1.4615164
		c-0.1677856,0.9606867-0.655899,1.790309-1.1125031,2.6246986c-2.4091492,4.4024353-5.286499,8.4551849-8.8000488,12.064743
		C126.7845459,28.5660725,122.7173386,32.911274,118.6139908,37.221283z"></path>
</g>
<image overflow="visible" width="375" height="114" xlink:href="DB53F60C.jpg" transform="matrix(1 0 0 1 -7509 -7808)">
</image>
<g onclick="select(this)" class="" id="estampa-secundaria" fill="#65092d">
	<path d="M184.3506622,37.6849518c3.545166,1.0514679,7.1050873,2.0562019,10.630127,3.1713028
		c2.2421875,0.7092857,1.8471375,0.452137,1.4704895,2.5773659c-0.361557,2.0401917-1.015213,4.1182098-0.8723907,6.1272316
		c0.2393341,3.3660736-1.5456085,5.7723846-3.0838013,8.3636475c-2.6733551,4.5035362-5.3414612,9.0102539-8.0331726,13.5028
		c-3.1455383,5.2499924-6.3304749,10.4763947-9.4688721,15.730629
		c-5.4171448,9.0693207-10.8003235,18.1589355-16.2189636,27.2273483
		c-4.3822632,7.3340302-8.808609,14.641716-13.1921997,21.9749374
		c-5.5796204,9.3340302-11.1333466,18.6835175-16.7029114,28.0235596
		c-4.5556412,7.6396942-9.1077805,15.2815552-13.6804504,22.9110565
		c-5.1061249,8.519577-10.2438278,17.0202179-15.3490067,25.5403442
		c-5.0422363,8.4150848-10.0585022,16.8457336-15.0907059,25.2668304
		c-6.1554947,10.3008575-12.3179092,20.59758-18.4729843,30.8986664c-2.9140205,4.8768921-5.8375168,9.7483826-8.702919,14.6537781
		c-0.3805809,0.6515198-0.7781639,0.8132324-1.4303551,0.6953735c-0.6342888-0.1145935-1.2678185-0.1228027-1.8922768,0.0690918
		c-3.6923027-0.2391968-7.3556519-0.6779175-10.9361458-1.6516418c-3.1773834-0.8641357-3.3543968-1.111908-3.2580795-4.3488159
		c0.0094452-0.3175049,0.0316124-0.6346436,0.0478745-0.9519348c0.1390991-0.8389893,0.8310661-1.3385925,1.2351875-2.0146484
		c4.4097786-7.3772583,8.8463058-14.7384033,13.2474937-22.1208496c2.9666748-4.976181,5.9455719-9.9453278,8.9082031-14.9239197
		c5.560215-9.3437195,11.1832695-18.6497498,16.7396507-27.9957581c2.5522537-4.2929993,5.1470566-8.5609741,7.6940536-12.857193
		c4.9734192-8.3890839,10.0126953-16.7387543,14.9989777-25.1201324c2.6150208-4.3955536,5.283493-8.7592926,7.8828354-13.164093
		c2.1078568-3.571991,4.2207031-7.1414185,6.3516388-10.6991882c2.6059036-4.3507233,5.1938324-8.7123413,7.8098145-13.0570984
		c3.1739731-5.2715302,6.3181534-10.5611038,9.4992142-15.8282471c2.1669312-3.5879669,4.3254242-7.1818542,6.4464722-10.795845
		c2.1008911-3.5796356,4.2562103-7.1266022,6.361084-10.7036972c2.4309845-4.1312408,4.9099121-8.2350769,7.383255-12.3415451
		c3.010025-4.9974823,6.0113983-10.0000229,9.0032196-15.0083923c6.0424042-10.1150856,12.0130463-20.273098,18.1425323-30.3361549
		c0.4571533-0.7504921,0.8455048-1.5436897,1.3729401-2.2506027
		C183.4756012,37.867012,183.7468872,37.4253426,184.3506622,37.6849518z"></path>
</g>
<g onclick="select(this)" class="" id="estampa-terciaria" fill="#db9600">
	<path d="M184.3506622,37.6849518c-1.0680237,0.1635132-1.2395172,1.1958313-1.6558228,1.8823128
		c-3.7759247,6.2264633-7.4741974,12.4999962-11.2046051,18.7541351c-4.5272369,7.5900993-9.065979,15.173336-13.5952606,22.7622261
		c-3.6122894,6.0524673-7.208725,12.1144409-10.8295441,18.1618118c-2.6157837,4.3688278-5.2761078,8.7110214-7.8877563,13.0823212
		c-3.962616,6.6325455-7.8881378,13.2872314-11.8521957,19.9188995c-3.1863098,5.3305054-6.4216614,10.6317139-9.6071472,15.9627228
		c-2.9990768,5.019043-5.9525986,10.0653076-8.9423828,15.08992c-2.9312897,4.9263306-5.8846436,9.8394928-8.8253632,14.7601929
		c-4.2057877,7.0375519-8.4025497,14.0805511-12.6151047,21.1140442
		c-3.4571838,5.7722473-6.9408569,11.5286255-10.3960953,17.3020172
		c-3.3504791,5.5983582-6.6716156,11.2142792-10.0202026,16.8137665
		c-4.2708778,7.1417389-8.5650177,14.2695618-12.833046,21.4130096
		c-3.8979149,6.5239563-7.7866211,13.0534973-11.6487503,19.5986633c-0.6726799,1.1400146-1.5319901,2.1228638-2.3234329,3.1652527
		c-0.2317848-3.1643372,0.4814873-6.2687073,0.5997391-9.4113159c0.2627411-6.9826355,1.2425957-13.924057,1.141777-20.930954
		c-0.0320816-2.2293243,0.3615341-4.44664,0.8816528-6.6251831c4.0960312-6.8294983,8.1919785-13.6592712,12.2882042-20.4888916
		c3.5234108-5.8745575,7.0520821-11.7459412,10.5694084-17.6241302c3.7016907-6.1862793,7.3889847-12.3811951,11.0893555-18.5682678
		c3.9258652-6.5641327,7.8695602-13.1176147,11.787262-19.6865845c3.8151932-6.39711,7.6028824-12.8106079,11.4109268-19.2119751
		c3.2552643-5.4721222,6.5105667-10.9442749,9.7870102-16.403717c4.1411514-6.9002609,8.3108673-13.783371,12.4548492-20.6819382
		c3.3212433-5.5289688,6.6239853-11.069046,9.9322281-16.6058121c5.7397461-9.6061478,11.4851227-19.2089386,17.2132416-28.8220215
		c3.9346771-6.6032639,7.8390656-13.2245712,11.7670593-19.8318214c1.8712006-3.1475182,3.7730865-6.2767982,5.6417999-9.4257622
		c0.2718658-0.4581261,0.4745941-0.7217407,1.1095581-0.5338402c5.4282837,1.6063499,10.7563477,3.5482979,16.267807,4.8765984
		C184.1634674,37.516571,184.2527924,37.6184845,184.3506622,37.6849518z"></path>
</g>
<g onclick="select(this)" class="" id="gola-secundaria" fill="#ffffff">
	<path d="M116.3818893,49.0752602c-0.8335953,0.2320518-1.5821838,0.8392296-2.5295258,0.5731316
		c-0.2213287-0.8126259,0.0423508-1.5788918,0.2377701-2.3470345c0.9215317-3.6224289,2.5606842-6.9243164,4.5238571-10.0800743
		c4.1033478-4.310009,8.1705551-8.6552105,12.3211441-12.9192257c3.5135498-3.6095581,6.3908997-7.6623077,8.8000488-12.064743
		c0.456604-0.8343897,0.9447174-1.664012,1.1125031-2.6246986c0.7254181-1.2808037,1.0168915-2.6659756,1.0240326-4.1280823
		c0.0049438-1.0119839-0.4709015-1.6642687-1.4065399-1.9949088c-1.1381073-0.4021833-2.3115997-0.6052649-3.5208588-0.6051569
		c-15.5550461,0.0013869-31.1100845,0.002557-46.6651306-0.0020161c-0.9676132-0.0002847-1.90905,0.1548507-2.8336868,0.4091465
		C85.7430725,3.75981,85.3303909,4.2938833,85.4249954,6.015285c0.0634537,1.1545529,0.1917267,2.3107181,0.7964783,3.3442836
		c1.7381668,4.3375845,4.3154984,8.1710749,7.2647934,11.7455511c3.0995636,3.7565861,6.6718826,7.0846825,9.98069,10.6536903
		c1.7045059,1.8385601,3.4469528,3.6419544,5.1722641,5.461237c0.141243,0.2821579,0.2534637,0.5838699,0.4282455,0.8434486
		c1.7294617,2.5685844,2.9942932,5.3555374,3.8564758,8.3204155c0.3075104,1.0574837,0.7699585,2.1119576,0.5005112,3.2664986
		c-0.8066101,0.1453552-1.5136261-0.1681786-2.2209854-0.4818573c-0.0745163-0.1329575-0.1629486-0.242794-0.3398056-0.2093124
		c0,0,0.0155182,0.0165253,0.0155258,0.0165253c-0.8287582-4.0532646-2.4461288-7.7656937-5.0678101-10.966198
		c-2.5820465-3.1521263-5.5237579-5.9836426-8.3579559-8.9074631c-4.0904999-4.2198277-8.1277618-8.475069-11.0506516-13.641326
		c-2.0527725-3.6283035-4.0921097-7.2516174-3.3573074-11.6774063c0.9002151-1.9448513,2.5582504-2.7752316,4.5620422-3.0655019
		c1.2658463-0.1833732,2.5391769-0.2692522,3.822998-0.268326c14.798584,0.0106764,29.597168,0.0106514,44.3957596,0.0006143
		c1.2835693-0.0008706,2.554718,0.0972143,3.823761,0.2612555c1.9269104,0.2490786,3.4730835,1.1290891,4.5558167,2.769526
		c0.6426849,3.2732768-0.3043823,6.2706151-1.761322,9.1084595c-1.9555206,3.8089981-4.2129364,7.4522362-7.1285858,10.6123257
		c-4.116394,4.4614773-8.3396683,8.8241348-12.4848862,13.2592812
		C119.482933,40.043293,117.3312607,44.2568169,116.3818893,49.0752602z"></path>
</g>
<g onclick="select(this)" class="" id="detalhe-punho" fill="#65092d">
	<path d="M43.3251877,120.6400299c-2.5715904,1.5164185-5.4873352,1.7669296-8.3249054,1.8909454
		c-9.7588749,0.4264908-19.4859047,0.1642303-29.0314045-2.2807388c-1.9600086-0.502037-3.9060934-1.0287094-5.728878-1.9302292
		c0-1.1200027,0-2.2400055,0-3.3600006c0.5341446-1.0446014,0.4600504-2.2130508,0.6742938-3.3226929
		c0.1042186-0.5397873,0.0607879-1.1212234,0.4675303-1.5698166c0.626965,0.4458313,1.324239,0.7532959,2.0628524,0.9366074
		c1.8188467,0.4514236,3.6287441,0.9745026,5.4736233,1.2780151c3.8076487,0.6264038,7.5144987,1.8535843,11.4230356,1.8909149
		c1.5943184,0.0152206,3.189024,0.1251373,4.78092,0.2314072c3.6960335,0.246727,7.394331,0.1335449,11.0928478,0.1318054
		c1.877037-0.000885,3.624794-0.4812164,5.342453-1.1464615c0.3858757-0.1494522,0.6799927-0.2490768,0.8002129,0.2821274
		C42.8772583,115.9674225,43.3580132,118.2679749,43.3251877,120.6400299z"></path>
	<path d="M184.6351166,120.4043655c-0.2832336-2.2694321,0.3703613-4.4287796,0.7629089-6.6206818
		c0.0848083-0.4734421,0.2874908-0.5877304,0.7293549-0.4956894c5.6825562,1.1838074,11.4602509,0.9403229,17.1700134,0.685112
		c8.0828247-0.3612671,15.9108734-2.3538818,23.5565796-4.9960785c0.3323822-0.1148682,0.6310272-0.3274078,0.9454193-0.4943771
		c0.850708,1.1977844,0.5585632,2.6719513,0.9456329,3.988945c0.2308655,0.7854462,0.0882721,1.6727142,0.2303925,2.4939957
		c0.2254181,1.3027115-0.4415131,1.8716736-1.55336,2.240303c-5.2239838,1.7320251-10.5293732,3.0898514-15.9651642,4.0210037
		c-5.9925232,1.0265274-12.0113983,0.9966125-18.0421143,0.9053192c-2.4743195-0.0374527-4.9359589-0.3193283-7.3450165-0.9380722
		C185.5249023,121.0541992,185.0001068,120.8732147,184.6351166,120.4043655z"></path>
</g>
<g onclick="select(this)" class="" id="gola-terciaria" fill="#db9600">
	<path d="M118.6139908,37.221283c-1.9631729,3.1557579-3.6023254,6.4576454-4.5238571,10.0800743
		c-0.1954193,0.7681427-0.4590988,1.5344086-0.2377701,2.3470345c-0.14151,0.0006599-0.2838593,0.0013542-0.427063,0.0020332
		c0.2686005-1.1545563-0.1938477-2.2090302-0.501358-3.2665138c-0.8621826-2.9648781-2.1270142-5.7518311-3.8564758-8.3204155
		c-0.1747818-0.2595787-0.2870026-0.5612907-0.4275894-0.8434868
		C111.9650192,37.2204018,115.289505,37.2208443,118.6139908,37.221283z"></path>
</g>
<path d="M110.8636627,48.95924c0.176857-0.0334816,0.2652893,0.076355,0.3398056,0.2093124
	C111.0476761,49.1683044,110.8642044,49.2124863,110.8636627,48.95924z"></path>
<g onclick="select(this)" class="selected" id="gola-primaria" fill="#65092d">
	<path d="M116.3818893,49.0752602c0.9493713-4.8184433,3.1010437-9.0319672,6.4491577-12.614254
		c4.1452179-4.4351463,8.3684921-8.7978039,12.4848862-13.2592812c2.9156494-3.1600895,5.1730652-6.8033276,7.1285858-10.6123257
		c1.4569397-2.8378448,2.404007-5.8351831,1.761322-9.1084595c1.3447876,1.4383683,2.6348267,2.9316673,4.1723633,4.1779375
		c0.3962708,0.3212066,0.7694702,0.6803355,1.3005981,0.7730041c1.5953674,1.1349335,1.9991608,2.6366463,1.5235596,4.5074396
		c-0.701828,2.7606792-2.1017151,5.1455469-3.7664642,7.4051085c-2.1793213,2.958004-4.2525177,6.0023441-6.5653687,8.8520775
		c-4.3660583,5.3795357-9.2424774,10.2910576-14.5357895,14.7566338
		C123.4372864,46.3974876,119.9718628,47.8954163,116.3818893,49.0752602z"></path>
	<path d="M83.0454636,3.7833724c-0.7348022,4.4257884,1.3045349,8.0491028,3.3573074,11.6774063
		c2.9228897,5.1662569,6.9601517,9.4214983,11.0506516,13.641326c2.834198,2.9238205,5.7759094,5.7553368,8.3579559,8.9074631
		c2.6216812,3.2005043,4.2390518,6.9129333,5.0678101,10.966198c-2.7672882-0.5901527-5.2029648-1.9389496-7.571434-3.3996239
		c-3.8562469-2.3782043-6.7796326-5.8187141-9.9883118-8.9315453c-5.685379-5.5155773-10.2365875-11.9400635-14.7170868-18.4176025
		c-1.048439-1.5157433-1.8049316-3.1716814-2.1981354-5.0011978c-0.5656128-2.631566-0.2966309-3.4309635,1.9042664-4.9610043
		c1.849472-0.9154258,3.0914688-2.4924598,4.3786545-4.0197792C82.8125763,4.09618,82.9263077,3.9374893,83.0454636,3.7833724z"></path>
	<path d="M140.8476868,9.6126156c-7.2451019,0.5839357-14.4953995,1.084712-21.7548294,1.4615164
		c-9.6521683,0.5010033-19.2271576-0.5354815-28.8136063-1.3705292c-1.3524857-0.1178112-2.7055054-0.2295418-4.0580215-0.3440599
		c-0.6045074-1.0335398-0.7327805-2.1897049-0.7962341-3.3442578c-0.0946045-1.7214017,0.3180771-2.255475,2.0205078-2.7236869
		c0.9246368-0.2542958,1.8660736-0.4094312,2.8336868-0.4091465c15.5550461,0.0045731,31.1100845,0.0034029,46.6651306,0.0020161
		c1.209259-0.000108,2.3827515,0.2029736,3.5208588,0.6051569c0.9356384,0.3306401,1.4114838,0.9829249,1.4065399,1.9949088
		C141.8645782,6.94664,141.5731049,8.3318119,140.8476868,9.6126156z"></path>
</g>
</svg>
