<!--?xml version="1.0" encoding="utf-8"?-->
<!-- Generator: Adobe Illustrator 24.2.3, SVG Export Plug-In . SVG Version: 6.00 Build 0)  -->
<svg version="1.1" id="Camada_1" xmlns="http://www.w3.org/2000/svg" xmlns:xlink="http://www.w3.org/1999/xlink" x="0px" y="0px" viewBox="0 0 234 419" style="enable-background:new 0 0 234 419;" xml:space="preserve">
<style type="text/css">
	.st0{fill:#01C801;}
	.st1{fill:#1E8889;}
	.st2{fill:#9D1616;}
	.st3{fill:#0E1880;}
	.st4{fill:#030302;}
</style>
<g onclick="select(this)">
	<path d="M82,7.9c2-1.6,3.7-3.5,5.4-5.4c1-1.2,2.6-1.4,4.1-1.8c0.7-0.2,1.5,0.1,2.1-0.5c2.1,0,4.2,0,6.2,0
		c0.7,0.5,1.5,0.2,2.2,0.2c5.3,0,10.5-0.1,15.8-0.1c1,0,2,0.1,2.9,0c1-0.1,2.1,0.3,3.1-0.2c6,0,12,0,18,0c0.9,0.5,2,0.5,3,0.7
		c1.6,0.4,3,1.1,4.1,2.5c1.3,1.7,2.9,2.9,4.5,4.3c-4.3,0.5-8.6,1.1-12.9,1.6c-7.5,0.9-15.1,1.3-22.7,1.6c-4.5,0.2-9-0.5-13.5-0.6
		C100,10.2,95.8,9.5,91.5,9C88.3,8.6,85.2,8,82,7.9z"></path>
</g>
<path d="M117.8,0.4c-5.3,0-10.5,0.1-15.8,0.1c-0.7,0-1.5,0.3-2.2-0.2c6,0,12,0,18,0L117.8,0.4L117.8,0.4z"></path>
<g onclick="select(this)" class="" id="c-detalhe-lateral" fill="#000000">
	<path d="M46.6,116.3c1,0.4,0.5,1.3,0.7,1.9c0.7,2.3,1,4.7,1.3,7.1c0.3,2.8,0.7,5.6,0.9,8.4c0.4,4.2,0.7,8.3,0.9,12.5
		c0.1,2.4,0.3,4.9,0.4,7.3c0.5,17.7,0.3,35.4,0.3,53.1c0,6.6-0.2,13.2-0.4,19.8c-0.1,2.4-0.1,4.8-0.2,7.2
		c-0.2,6.1-0.3,12.2-0.6,18.3c-0.2,4.1-0.3,8.1-0.5,12.2c-0.2,5.6-0.4,11.2-0.8,16.8c-0.1,1.6-0.1,3.3-0.3,4.9
		c-1-0.1-1.9-0.4-2.8-0.7c-2.1-0.7-2.4-1.1-2.2-3.3c0.4-5.4,0.7-10.8,1.1-16.2c0.3-3.9,0.6-7.8,0.6-11.7c0-2.3,0.2-4.6,0.7-6.9
		c0.5-2.3-0.1-4.6-0.2-6.9c-0.4-5.3,0.2-10.5,1.5-15.7c0.6-2.2,0.1-4.3-0.1-6.4c-0.8-7.5-0.5-15,1.1-22.4c0.5-2.1,0.6-4.3,0.5-6.4
		c-0.3-4.6,0.1-9.3-0.1-13.9c-0.2-5.7,0-11.3-0.5-17c-0.1-0.6-0.1-1.3,0-1.9c0.8-7.2,0.2-14.4-0.2-21.7c-0.2-4.1-0.4-8.2-0.6-12.3
		c-0.1-1.2-0.1-2.5-0.5-3.7C46.6,117.7,46.6,117,46.6,116.3z"></path>
	<path d="M186.8,284.8c-0.2-4.2-0.4-8.4-0.6-12.5c-0.3-6.2-0.5-12.4-0.7-18.6c-0.2-5.1-0.3-10.2-0.5-15.3
		c-1.1-24-0.8-48.1-0.8-72.1c0-6.3,0.2-12.6,0.5-18.9c0.2-4.8,0.6-9.6,1.1-14.4c0.4-4.1,0.8-8.1,1.5-12.2c0.1-0.4,0.1-0.7,0.5-0.9
		c0.1,0.2,0.2,0.4,0.3,0.5c-0.9,0.8-0.5,2-0.6,2.9c-0.7,7.6-0.9,15.3-0.8,23c0.1,3.9,0.5,7.8,0.2,11.7c-0.6,7.7-0.2,15.4-0.1,23.1
		c0,2.7-0.1,5.4-0.5,8.1c-0.2,1.7-0.2,3.5,0.1,5.3c0,0.3,0.1,0.6,0.1,0.8c-0.3,3.2,0.6,6.2,1.4,9.3c1.8,6.1,2,12.4,1.3,18.6
		c-0.4,4.2-0.4,8.3,0.2,12.4c0.1,0.8,0.1,1.6,0,2.4c-0.7,5.4,0.6,10.7,0.7,16.1c0.2,7.1,0.9,14.2,1.3,21.3c0.1,2.1,0.4,4.1,0.3,6.2
		c0,1.2-0.5,1.9-1.6,2.2C189.1,284.2,188,284.7,186.8,284.8z"></path>
</g>
<g onclick="select(this)" class="" id="c-detalhe-punho" fill="#000000">
	<path d="M0.2,116.1c0.6-1.6,0.5-3.3,1-5c0.1-0.5,0-1.1,0.6-1.5c3.1,0.6,6.2,1.2,9.4,1.9c3.4,0.7,6.8,1.3,10.2,1.8
		c1.6,0.2,3.1,0.5,4.7,0.7c4.3,0.4,8.6,0.6,12.9,0.2c2.3-0.2,4.8,0.2,6.6-2.3c0.2,1.1,0.4,2,0.5,2.8c-0.2,0.6,0.7,1,0.5,1.6
		c0,0.7,0,1.4,0,2.2c0,0.1-0.1,0.2-0.1,0.3c0.2,2.3-0.2,2.7-2.4,2.8c-3.6,0.3-7.1,0.9-10.7,0.8c-6.3-0.2-12.5-1.1-18.7-2
		c-4.6-0.7-9.1-1.5-13.6-2.6c-0.3-0.1-0.5-0.2-0.8-0.2C0.2,117.1,0.2,116.6,0.2,116.1z"></path>
	<path d="M188.1,120.4c-0.1-0.2-0.2-0.4-0.3-0.5c0.4-2.1,0.7-4.3,0.9-6.5c0.8-0.1,0.2-0.8,0.7-1.2
		c0.5,0,0.9,0.4,1.3,0.7c2.5,1.9,5.1,3,8.4,3c4.6,0,9.2-0.4,13.7-1c5.3-0.7,10.7-1.3,16-2.3c1.2-0.2,2.3-0.6,3.5-0.9
		c0.2,0.1,0.4,0.2,0.4,0.4c0.2,2.1,0.7,4.3,0.8,6.4c0.1,1-0.3,1.5-1.3,1.7c-3.7,0.9-7.5,1.5-11.3,2.1c-7.1,1-14.3,1.7-21.5,1.5
		c-2.9-0.1-5.6-0.4-8.2-2C190.1,121.3,188.7,121.6,188.1,120.4z"></path>
</g>
<g onclick="select(this)" class="" id="c-estampa-primaria" fill="#343434">
	<path d="M46.6,116.3c0.2-0.6-0.7-1-0.5-1.6c0.5,0,0.7-0.5,0.6-0.7c-0.3-1.2,0-2.5-0.5-3.8c-0.6-1.6-0.9-3.3-0.9-5.1
		c0-1.7,0.1-3.6-0.4-5.2c-0.6-2.2-0.5-4.3-0.8-6.5c-0.4-4-1.5-8-2-12c-0.2-1.7-1.3-3.2-2.2-4.6c-0.8-1.3-1.7-2.5-2.3-3.9
		c-1.3-2.9-2-6-3-8.9c-2.7-8.2-4.2-16.7-3.4-25.4c0.1-1.1,0.1-2.3,0.1-3.4c0-0.9,0.5-1.8,0.1-2.7c3.5-1.6,6.9-3.3,10.4-4.8
		c7.7-3.2,15.4-6.4,23-9.8c4.1-1.8,7.9-4.2,11.7-6.6c0.4-0.3,0.7-0.6,1-1C78.7,8.9,80.1,8,82,7.9c3.2,0,6.3,0.7,9.5,1.1
		c4.3,0.5,8.5,1.1,12.8,1.3c4.5,0.2,9,0.8,13.5,0.6c7.6-0.3,15.1-0.6,22.7-1.6c4.3-0.5,8.6-1.1,12.9-1.6c2,0.1,3.5,1,4.8,2.5
		c0.9,1.1,2.3,1.7,3.5,2.4c9.3,5.2,19,9.5,28.9,13.4c4.4,1.7,8.5,4,12.8,5.8c0.2,0.1,0.3,0.2,0.5,0.4c-0.4,0.8-0.4,1.6,0,2.4
		c0.1,0.3,0.2,0.5,0.1,0.8c-0.3,0.9-0.1,1.8,0,2.7c0.4,5.3,0.2,10.6-0.8,15.8c-0.9,4.8-2.5,9.5-3.9,14.2c-0.9,3-2.2,5.6-3.8,8.2
		c-0.3,0.5-0.6,0.9-1.1,1.2c-0.9,0.5-1.3,1.3-1.6,2.2c-1.3,3.9-1.7,8-1.9,12.1c-0.1,1.9,0,3.8-0.4,5.6c-1,4.3-1.4,8.6-1.3,13
		c0,0.9-0.3,1.9-0.4,2.8c-0.1,2.2-0.5,4.3-0.9,6.5c-0.4,0.1-0.4,0.5-0.5,0.9c-0.7,4-1,8.1-1.5,12.2c-0.5,4.8-0.9,9.6-1.1,14.4
		c-0.3,6.3-0.5,12.6-0.5,18.9c0,24-0.3,48.1,0.8,72.1c0.2,5.1,0.3,10.2,0.5,15.3c0.2,6.2,0.5,12.4,0.7,18.6
		c0.2,4.2,0.4,8.4,0.6,12.5c-7.6,2-15.4,2.9-23.2,3.4c-14.2,0.8-28.4,0.8-42.7,1c-14.7,0.1-29.5,0.4-44.2,0.1
		c-9.4-0.1-18.8-1-27.9-3.3c-0.2,0-0.3-0.1-0.4-0.2c0.2-1.6,0.2-3.3,0.3-4.9c0.4-5.6,0.6-11.2,0.8-16.8c0.1-4.1,0.3-8.1,0.5-12.2
		c0.2-6.1,0.4-12.2,0.6-18.3c0.1-2.4,0.1-4.8,0.2-7.2c0.2-6.6,0.4-13.2,0.4-19.8c0-17.7,0.2-35.4-0.3-53.1c-0.1-2.4-0.2-4.9-0.4-7.3
		c-0.2-4.2-0.6-8.3-0.9-12.5c-0.2-2.8-0.6-5.6-0.9-8.4c-0.2-2.4-0.6-4.8-1.3-7.1C47.1,117.6,47.6,116.7,46.6,116.3z"></path>
	<path d="M188.7,113.4c0.1-0.9,0.4-1.9,0.4-2.8c-0.2-4.4,0.3-8.7,1.3-13c0.4-1.8,0.3-3.7,0.4-5.6
		c0.2-4.1,0.7-8.2,1.9-12.1c0.3-0.9,0.7-1.7,1.6-2.2c0.5-0.3,0.8-0.7,1.1-1.2c1.6-2.6,3-5.3,3.8-8.2c1.4-4.7,3-9.3,3.9-14.2
		c1-5.2,1.2-10.5,0.8-15.8c-0.1-0.9-0.2-1.8,0-2.7c0.1-0.3,0-0.5-0.1-0.8c-0.4-0.8-0.3-1.6,0-2.4c0.2,0.1,0.5,0.2,0.7,0.4
		c3.7,3.5,7.8,6.8,10.8,11c3.9,5.4,6.5,11.4,8.3,17.8c1.9,6.4,2.6,13.1,3.6,19.7c1.6,9.7,2.6,19.5,4.6,29.1c0.1,0.5,0.1,1,0.1,1.4
		c-1.2,0.3-2.3,0.6-3.5,0.9c-5.3,1.1-10.6,1.6-16,2.3c-4.6,0.6-9.1,1-13.7,1c-3.3,0-5.9-1.1-8.4-3c-0.4-0.3-0.8-0.7-1.3-0.7
		C188.9,112.6,189.5,113.3,188.7,113.4z"></path>
	<path d="M31.4,32.4c0.4,0.9,0,1.8-0.1,2.7c0,1.2,0,2.3-0.1,3.4c-0.8,8.7,0.7,17.1,3.4,25.4c1,3,1.7,6,3,8.9
		c0.6,1.4,1.5,2.6,2.3,3.9c0.9,1.5,2.1,2.9,2.2,4.6c0.5,4,1.6,7.9,2,12c0.2,2.2,0.2,4.3,0.8,6.5c0.4,1.7,0.3,3.5,0.4,5.2
		c0,1.7,0.3,3.4,0.9,5.1c0.5,1.2,0.2,2.5,0.5,3.8c0.1,0.3-0.1,0.7-0.6,0.7c-0.2-0.8-0.3-1.7-0.5-2.8c-1.7,2.5-4.3,2.2-6.6,2.3
		c-4.3,0.4-8.6,0.2-12.9-0.2c-1.6-0.2-3.2-0.5-4.7-0.7c-3.4-0.5-6.9-1.1-10.2-1.8c-3.1-0.6-6.2-1.3-9.4-1.9c0.5-3.2,1-6.5,1.4-9.7
		c0.9-6.8,2.8-13.3,4.3-20c0.9-4.3,1.2-8.7,2.2-13c1.6-7.2,3.9-14.1,7.9-20.3c2.8-4.3,6.2-8.1,10.2-11.2
		C29,34.4,29.9,33.1,31.4,32.4z"></path>
</g>
<g onclick="select(this)" class="" id="c-estampa-secundaria" fill="#000000">
	<path d="M227,79.2c-1.1-0.7-2.3-1.5-3.5-2.3c1.1-0.7,1.9-1.4,3.1-1.8C226.8,76.5,227,77.8,227,79.2z"></path>
	<path d="M13.4,54.8c7.2,4.9,14.4,9.8,21.6,14.7c1,0.7,1.9,1.5,2.3,2.7c0.6,2,1.9,3.6,3,5.3c0.3,0.5,0.5,0.8-0.2,1.2
		c-12.3,7.9-24.5,15.8-36.8,23.6c-0.2,0.1-0.4,0.2-0.5,0.2c0.2-1.8,0.4-3.6,0.8-5.3c0.2-0.1,0.4-0.2,0.6-0.3
		c10-6.5,20.1-12.9,30.1-19.4c0.8-0.6,1.7-1.1,2.6-1.7c-8.5-5.8-16.8-11.4-25.1-17C12.4,57.4,12.7,56.1,13.4,54.8z"></path>
	<path d="M10.6,62.9c0.4-0.1,0.6,0.1,0.9,0.3c6,4.1,12,8.2,18,12.3c0.1,0.1,0.2,0.2,0.4,0.3c-1.9,1.2-3.8,2.4-5.6,3.6
		c-6.2,4-12.4,7.9-18.5,11.9c-0.3,0.2-0.7,0.4-1.1,0.6C5,90,5.5,88.1,6.1,86.2c5.4-3.5,10.9-7,16.5-10.5c-0.6-0.4-1-0.7-1.4-1
		c-3.5-2.4-7-4.8-10.5-7.1c-0.5-0.3-1-0.7-0.9-1.4C10.1,65.1,10.4,64,10.6,62.9z"></path>
	<path d="M2.8,103.4c5.7,1.4,11.4,2.9,17,4.3c7.4,1.9,14.9,3.7,22.3,5.6c0.3,0.1,0.7,0.2,1,0.3
		c-1.7,0.5-3.4,0.6-5.1,0.8c-3.2,0.2-6.3-0.1-9.5-0.2c-0.4,0-0.8-0.1-1.1-0.2c-0.2-0.4-0.6-0.3-1-0.4c-8.1-2-16.2-4.1-24.3-6.1
		C2.3,106.1,2.3,104.7,2.8,103.4z"></path>
	<path d="M21.6,41.5c1.4,0,2.7-0.6,4.1-0.9c1.5-0.4,3-0.8,4.5-1.2c0.7-0.2,1.1-0.1,1,0.7C31,41.1,31,42,31,42.9
		c0,0.4-0.2,0.6-0.6,0.8c-4.4,1.1-8.7,2.4-13.1,3.4c1.1-1.9,2.4-3.8,4-5.3C21.5,41.7,21.6,41.7,21.6,41.5L21.6,41.5z"></path>
	<path d="M8.8,71.2c2.2,1.4,4.3,2.8,6.7,4.4c-2.8,1.8-5.4,3.4-8.1,5.1C7.9,77.5,8.4,74.3,8.8,71.2z"></path>
	<path d="M31.4,32.5c0.5,1.6,0.4,2.7-1.9,3.1c-0.9,0.2-1.9,0.4-2.8,0.7C28.4,35,29.7,33.5,31.4,32.5z"></path>
	<path d="M201.6,115.9c-1.1-3.6-2.1-7.1-3.2-10.7c-0.3-0.9,0.4-0.7,0.8-0.7c3.4,0.2,6.9,0.4,10.3,0.6
		c2.4,0.1,4.7,0.2,7.3,0.4c-3.6-4.8-7.1-9.4-10.6-14.2c6-1.4,11.8-2.8,18-4.3c-5.1-3.5-10.1-6.9-15.2-10.3c5.2-3.3,10.3-6.6,15.6-10
		c-2.6-0.7-5.1-1.3-7.5-1.9c-3.3-0.8-6.6-1.7-10-2.5c-1.1-0.3-0.9-0.6-0.4-1.3c3.2-4.2,6.4-8.4,9.6-12.5c0.2-0.3,0.5-0.5,0.5-1
		c-2.8,0.2-5.6,0.4-8.3,0.6c-1.3,0.1-2.6,0.2-3.8,0.3c-0.6,0.1-0.9-0.1-0.7-0.7c0,0,0-0.1,0-0.1c0-3.4,0-3.3,3.3-3.6
		c2.6-0.2,5.2-0.4,7.8-0.6c1.9,2.3,3.4,4.9,4.5,7.7c-2.3,2.7-4.3,5.5-6.6,8.4c3.7,0.9,7.3,1.8,10.8,2.7c0.8,2.7,1.4,5.5,1.9,8.2
		c0,0.2,0,0.4-0.1,0.6c-2,0.9-3.7,2.2-5.5,3.3c-1.3,0.8-2.5,1.6-3.9,2.5c1.6,1.1,3,2.1,4.4,3c2.3,1.5,4.5,3.2,6.9,4.5
		c0.6,1.9,0.9,3.9,1,5.9c-3.7,0.9-7.4,1.7-11.1,2.6c-1.4,0.3-2.9,0.6-4.4,1.2c4.1,5.4,8,10.7,12.1,16.1c-7.4-0.4-14.4-0.8-21.6-1.1
		c0.6,2.3,1.3,4.5,1.9,6.8C204.3,116,203,115.8,201.6,115.9z"></path>
	<path d="M231.6,111.8c-3.5-4.6-7-9.2-10.5-13.8c-1.2-1.6-1.2-1.7,0.7-2.1c2.5-0.6,5-1.2,7.6-1.7c0.2,1.3,0.4,2.7,0.5,4
		c-1,0.3-1.9,0.5-3.1,0.8c1.3,1.7,2.4,3.3,3.8,4.8c0.6,2.7,1.4,5.3,1.5,8.1C231.9,111.8,231.8,111.8,231.6,111.8z"></path>
	<path d="M206.3,34.5c-0.7,2.4-1.4,4.7-2,7.1c0.1-2.1-0.6-4.2-0.3-6.4c0.1-0.9-0.4-1.9-0.1-2.9
		C204.9,32.7,205.5,33.7,206.3,34.5z"></path>
	<path d="M189.2,112.1c-0.6-1.2,0-2.4-0.1-3.6c0-0.4,0.4-0.2,0.6-0.1c0.8,0.3,1.5,0.6,2.5,1c-0.8-2.7-1.4-5.2-2.3-7.6
		c-0.6-1.6,0.5-3,0.4-4.6c0-0.4,0.6-0.4,0.9-0.3c3.4,0.2,6.8,0.4,10.4,0.6c-2.7-3.6-5.3-7.1-8-10.6c4.2-1,8.3-2,12.7-3.1
		c-3.6-2.5-7.1-4.8-10.7-7.3c3.5-2.3,7-4.4,10.7-6.8c-2.1-0.5-3.9-1.1-5.8-1.5c-1.1-0.2-1.3-0.6-0.9-1.7c0.8-2.3,0.7-2.3,3-1.7
		c4,1,8.1,2,12.1,3.1c0.2,0.1,0.5,0,0.7,0.4c-2.3,1.5-4.7,3-7,4.5c-1.6,1-3.2,2.1-4.9,3.1c-1.1,0.7-1.1,0.7-0.1,1.5
		c3.5,2.4,7.1,4.8,10.6,7.2c0.4,0.2,0.7,0.5,1.2,0.9c-2.1,0.5-4.1,1-6.1,1.5c-2.6,0.6-5.3,1.3-7.9,1.9c-1.4,0.3-1.3,0.3-0.5,1.4
		c2.7,3.6,5.4,7.2,8.1,10.7c0.1,0.1,0.2,0.3,0.4,0.5c-1.6,0.3-3.1-0.1-4.7-0.1c-3.4-0.1-6.7-0.3-10-0.5c-0.9-0.1-1.1,0.2-0.8,1.1
		c1.4,4.4,2.6,8.9,3.9,13.3c0,0.1,0.1,0.3,0.2,0.6c-2.5-0.8-4.6-2-6.9-2.6h0c-0.1-0.2-0.3-0.3-0.5-0.2
		C190.1,112.6,189.7,112.3,189.2,112.1z"></path>
	<path d="M209.6,115.4c-0.2-0.7-0.4-1.4-0.6-2.2c3.9,0.2,7.8,0.4,11.6,0.6c0.1,0,0.1,0.1,0.2,0.2
		c-1.7,0.3-3.3,0.7-5,0.9C213.7,115.1,211.7,115.5,209.6,115.4z"></path>
	<path d="M22,99.9c7.3,1.8,14.3,3.6,21.3,5.4c2.1,0.5,2.1,0.6,2.2,2.7c0,0.7,0.4,1.4,0.7,2.3
		c-11.5-2.9-22.8-5.7-34.3-8.7C22,95.1,32,88.7,42.2,82.1c0.3,1.4,0.5,2.6,0.7,3.9c0.2,0.7-0.4,0.8-0.8,1c-6.2,4-12.4,8-18.6,12
		C23.1,99.3,22.7,99.5,22,99.9z"></path>
	<path d="M15.7,51.6c4.1-1.1,8-2.1,11.9-3.1c1-0.3,1.9-0.5,2.9-0.8c0.5-0.1,0.7,0,0.7,0.5c0,0.1,0,0.2,0,0.2
		c0,1.1,0.8,2.5,0.1,3.2c-0.6,0.7-2,0.6-3,0.9c-0.8,0.2-1.6,0.5-2.5,0.7c0.8,0.9,1.8,1.3,2.6,1.9c1.5,1,3.2,1.8,4.4,3.1
		c1.2,1.3,1,3.3,1.7,5c0.1,0.3,0.4,0.6,0.1,1C28.3,60.2,22.1,56,15.7,51.6z"></path>
	<path d="M31.8,98.3c4.1-2.6,8-5.1,11.9-7.7c0.3,1.2,0.3,2.4,0.5,3.5c0.3,1.6-1.3,1.5-1.9,2.4c0,0.1,0.1,0.1,0.1,0.1
		c0.6,0.4,1.6,0.1,1.9,0.8c0.4,1.1,0.9,2.3,0.9,3.6c0,0.5-0.2,0.6-0.7,0.5C40.3,100.5,36.2,99.5,31.8,98.3z"></path>
	<path d="M201.4,62.4c0.6-2.8,1.2-5.5,1.8-8.3c0.5-2.2,0.5-2.2,2.8-2.2c0.6,0,1.1,0,1.7-0.1c0.6,0,1.1-0.1,2-0.2
		C206.8,55.3,204.1,58.8,201.4,62.4z"></path>
</g>
</svg>
