<!--?xml version="1.0" encoding="utf-8"?-->
<!-- Generator: Adobe Illustrator 24.2.3, SVG Export Plug-In . SVG Version: 6.00 Build 0)  -->
<svg version="1.1" id="Camada_1" xmlns="http://www.w3.org/2000/svg" xmlns:xlink="http://www.w3.org/1999/xlink" x="0px" y="0px" viewBox="0 0 234 419" enable-background="new 0 0 234 419" xml:space="preserve">
<path d="M57.83,287.8c0.28-0.05,0.55-0.12,0.77,0.14C58.33,287.99,58.06,288,57.83,287.8z"></path>
<g onclick="select(this)" class="" id="c-detalhe-punho" fill="#082890">
	<path d="M0.24,116.16c0.54-1.57,0.64-3.23,1.02-4.84c0.12-0.53,0.07-1.11,0.49-1.55c1.26,0.45,2.6,0.31,3.89,0.57
		c5.9,1.18,11.86,1.93,17.79,2.95c5.05,0.87,10.15,1.04,15.26,0.93c2.14-0.05,4.3-0.11,6.19-1.44c0.82-0.57,1.23-0.29,1.23,0.76
		c0,0.94,0.11,1.88,0.01,2.83c-0.08,0.72-0.28,1.52,0.32,2.16c-0.02,0.03-0.07,0.07-0.07,0.1c0.15,2.98-0.14,2.77-2.97,3.05
		c-3.34,0.32-6.65,0.85-10.03,0.73c-6.33-0.22-12.58-1.11-18.82-2.03c-4.54-0.67-9.05-1.5-13.52-2.54
		c-0.27-0.06-0.53-0.15-0.79-0.23C0.24,117.12,0.24,116.64,0.24,116.16z"></path>
	<path d="M232.13,111.56c0.62,1.11,0.48,2.36,0.65,3.55c0.06,0.41-0.1,0.9,0.49,1.05c0,1.2,0,2.4,0,3.6
		c-1.77,0.78-3.68,1.04-5.55,1.38c-9.4,1.68-18.85,2.92-28.44,2.7c-2.9-0.07-5.72-0.42-8.27-1.98c-0.29-0.18-0.67-0.27-1.02-0.3
		c-0.81-0.07-1.43-0.4-1.82-1.12c-0.09-2.87,0.39-5.68,0.74-8.51c0.14,0.05,0.33,0.06,0.42,0.15c2.14,2.63,5.07,3.41,8.28,3.63
		c3.84,0.26,7.65,0.07,11.47-0.26c2.74-0.23,5.48-0.43,8.19-0.86C222.27,113.8,227.25,112.92,232.13,111.56z"></path>
</g>
<g onclick="select(this)" class="" id="c-gola-primaria" fill="#bf0811">
	<path d="M141.84,0.24c0.97,0.49,2.06,0.46,3.08,0.73c1.58,0.42,2.95,1.11,3.98,2.44c1.29,1.68,2.95,2.99,4.55,4.36
		c-4.23,0.55-8.45,1.17-12.69,1.65c-8.3,0.92-16.64,1.7-24.99,1.53c-10.03-0.21-20.03-1.04-29.94-2.68
		c-1.26-0.21-2.56,0.24-3.77-0.36c1.94-1.65,3.67-3.48,5.32-5.42c1.02-1.2,2.6-1.44,4.09-1.75c0.71-0.15,1.5,0.07,2.11-0.48
		c2.08,0,4.16,0,6.24,0c0.28,0.53,0.78,0.3,1.17,0.3c7.28,0.02,14.55,0.03,21.83,0.02c0.34,0,0.82,0.27,1-0.32
		C129.84,0.24,135.84,0.24,141.84,0.24z"></path>
	<path d="M123.84,0.24c-0.17,0.59-0.66,0.32-1,0.32c-7.28,0.01-14.55,0-21.83-0.02c-0.39,0-0.9,0.23-1.17-0.3
		C107.84,0.24,115.84,0.24,123.84,0.24z"></path>
</g>
<path d="M47.69,133.44c0.32,0.13,0.37,0.29,0.05,0.49C47.61,133.78,47.59,133.61,47.69,133.44z"></path>
<g onclick="select(this)" class="" id="c-estampa-primaria" fill="#bf0811">
	<path d="M47.45,128.16c0.47,0.3,0.4,0.63,0.05,0.97C47.35,128.81,47.34,128.49,47.45,128.16z"></path>
	<path d="M46.9,119.28c0.55,0.25,0.46,0.59,0.13,0.96C46.84,119.94,46.85,119.61,46.9,119.28z"></path>
	<path d="M47.2,122.64c0.43,0.21,0.4,0.45,0.07,0.73C47.11,123.14,47.11,122.89,47.2,122.64z"></path>
	<path d="M186.91,284.9c1.18-2.56,2.87-4.82,4.15-7.32c0.16-0.32,0.42-0.58,0.32-0.97c0.11,1.11,0.32,2.21,0.31,3.33
		c0,0.6-0.12,1.14-0.36,1.68C190.2,284.14,189.91,284.36,186.91,284.9z"></path>
	<path d="M188.91,111.93c-0.35,2.83-0.83,5.64-0.74,8.51c-0.46,0.25-0.28,0.71-0.33,1.07
		c-1.24,10.51-1.49,21.05-0.95,31.61c0.24,4.65-0.34,9.26-0.41,13.9c-0.07,4.64,0.32,9.27,0.28,13.91
		c-0.02,2.76-0.11,5.51-0.44,8.26c-0.23,1.87-0.26,3.75,0.06,5.62c0.05,0.28,0.12,0.56,0.09,0.83c-0.38,3.35,0.72,6.45,1.56,9.61
		c0.72,2.74,1.33,5.51,1.32,8.37c-0.85-0.05-0.58,0.6-0.58,1.01c-0.02,5-0.01,9.99-0.01,14.99c0.01,0.35,0.02,0.7,0.03,1.04
		c-0.01,2.03-0.06,4.07-0.02,6.1c0.02,0.99-0.18,1.88-0.59,2.77c-2.35,5.2-4.67,10.41-7,15.62c-0.09,0.2-0.34,0.38,0.02,0.75
		c0.41-0.61,0.84-1.18,1.19-1.79c2.24-3.87,4.45-7.75,6.68-11.63c0.15,1.17,0.3,2.33,0.45,3.5c-0.79,0.42-0.7,1.18-0.7,1.89
		c0,9.2-0.01,18.39,0.01,27.59c0,0.87-0.18,1.64-0.53,2.42c-1.11,2.48-2.32,4.91-3.24,7.46c-5.32,1.33-10.73,2.11-16.19,2.56
		c0.13-1.81-0.01-3.59,0.83-5.37c2.34-4.96,4.48-10.02,6.68-15.05c0.1-0.22,0.48-0.51,0.06-0.82c-0.36,0.11-0.4,0.46-0.55,0.72
		c-2.58,4.5-5.18,8.99-7.72,13.51c-1.37,2.43-2.86,4.79-4.01,7.34c-0.85,0.05-1.7,0.11-2.55,0.16c2.26-4,4.51-8,6.8-11.99
		c0.37-0.65,0.54-1.28,0.54-2.03c-0.02-9.31,0-18.63-0.03-27.94c0-0.99,0.2-1.87,0.61-2.76c2.4-5.27,4.78-10.56,7.15-15.84
		c0.35-0.77,0.62-1.58,1.01-2.6c-0.66,0.32-0.73,0.7-0.89,0.99c-2.41,4.33-4.81,8.66-7.23,12.99
		c-7.01,12.52-14.02,25.03-21.03,37.54c-0.2,0.35-0.39,0.68-0.38,1.11c0.03,3.68,0.05,7.35,0.07,11.03
		c-6.21,0.22-12.43,0.31-18.64,0.27c1.94-4.69,4.23-9.24,6.06-13.97c-0.11-0.05-0.21-0.1-0.32-0.14c-2.66,4.71-5.32,9.43-7.98,14.14
		c-0.78,0-1.56-0.01-2.34-0.01c0.58-1.05,1.1-2.13,1.75-3.14c0.74-1.15,1.01-2.34,1-3.72c-0.05-9.11-0.02-18.23-0.03-27.34
		c0-0.7,0.13-1.32,0.42-1.96c2.02-4.48,4.01-8.97,6.01-13.46c0.21-0.48,0.5-0.97,0.04-1.59c-2.49,4.28-4.94,8.43-7.32,12.63
		c-6,10.56-11.91,21.17-17.98,31.69c-1.31,2.26-2.21,4.47-1.86,7.09c-1.49,0.01-2.99,0.01-4.48,0.02c1.68-2.95,3.37-5.89,5.05-8.85
		c6.58-11.61,13.16-23.22,19.75-34.82c0.31-0.55,0.39-1.1,0.39-1.71c-0.01-9.71,0-19.43-0.02-29.14c0-0.43,0.38-1.11-0.46-1.26
		c-0.69-0.12-1.15,0.08-1.54,0.77c-1.52,2.72-3.09,5.41-4.66,8.1c-4.56,7.79-9.01,15.65-13.52,23.48c-0.35,0.61-0.51,1.21-0.51,1.92
		c0.02,9.23,0,18.47,0.02,27.7c0,0.78-0.16,1.48-0.48,2.19c-1.72,3.87-3.41,7.75-5.11,11.63c-4.81,0-9.61,0-14.42,0.01
		c0.01-1.32,0.02-2.64,0.02-3.95c0-0.56-0.01-1.1,0.23-1.64c2.63-5.87,5.24-11.74,7.84-17.61c0.15-0.34,0.53-0.66,0.25-1.21
		c-0.15,0.23-0.26,0.39-0.35,0.56c-2.34,4.13-4.65,8.28-7.02,12.4c-2.19,3.8-4.45,7.57-6.49,11.46c-0.77,0-1.55,0-2.32,0
		c2.42-4.32,4.84-8.64,7.27-12.95c0.37-0.65,0.53-1.29,0.53-2.04c-0.02-9.31,0-18.62-0.03-27.92c0-0.95,0.19-1.8,0.58-2.65
		c2.46-5.42,4.92-10.83,7.32-16.27c0.64-1.45,1.55-2.79,1.88-4.37c0.06-0.07,0.12-0.15,0.18-0.22c-0.04-0.02-0.08-0.04-0.12-0.06
		c-0.01,0.1-0.03,0.2-0.04,0.3c-0.47,0.11-0.53,0.56-0.71,0.89c-1.44,2.58-2.85,5.18-4.3,7.76c-8.32,14.86-16.64,29.71-24.98,44.56
		c-0.37,0.65-0.52,1.3-0.52,2.05c0.03,3.44,0.01,6.88,0.01,10.32c-2.76-0.18-5.52-0.47-8.25-0.91c3.31-5.93,6.62-11.86,9.94-17.78
		c6.17-11.02,12.34-22.03,18.51-33.04c0.27-0.49,0.52-0.96,0.52-1.56c-0.02-7-0.02-13.99,0.01-20.99c0-0.78-0.3-0.93-0.99-0.92
		c-1.56,0.04-3.12,0.05-4.68-0.01c-0.74-0.03-1.13,0.24-1.49,0.88c-4.29,7.54-8.6,15.06-12.93,22.57c-0.46,0.79-0.66,1.57-0.65,2.48
		c0.03,9.31,0.01,18.63,0.03,27.94c0,0.83-0.17,1.56-0.51,2.31c-1.44,3.2-2.89,6.41-4.28,9.63c-1.22,2.82-2.62,5.56-3.67,8.45
		c-2.79-0.38-5.54-0.98-8.29-1.61c1.76-3.98,3.52-7.97,5.27-11.95c-0.11-0.05-0.21-0.1-0.32-0.15c-2.17,3.9-4.34,7.79-6.51,11.69
		c-0.69-0.2-1.38-0.39-2.07-0.59c0.42-0.63,0.48-1.32,0.48-2.05c-0.01-8.39,0.05-16.78-0.04-25.17c-0.03-2.61,0.2-5.07,1.51-7.37
		c0.49-0.86,0.83-1.82,1.23-2.73c1.44-3.25,2.89-6.49,4.31-9.75c0.19-0.44,0.58-0.92,0.21-1.66c-1.04,1.85-1.96,3.56-2.95,5.23
		c-1.78,2.98-3.23,6.15-5.31,8.95c0.05-1.83,0.47-3.6,0.78-5.4c0.41-0.34,0.24-0.81,0.24-1.23c0.01-4.57,0.01-9.15,0-13.73
		c0-0.63,0.07-1.27-0.13-1.9c0.12-0.59,0.17-1.2,0.37-1.75c1.13-3.08,0.74-6.21,0.39-9.34c-0.8-7.09-0.44-14.12,0.99-21.09
		c0.54-2.6,0.71-5.2,0.62-7.85c-0.14-4.15-0.06-8.3-0.14-12.45c-0.11-5.63,0.03-11.27-0.44-16.88c-0.27-3.24,0.43-6.44,0.32-9.69
		c-0.16-4.79-0.23-9.58-0.59-14.37c-0.03-0.35,0-0.71,0.01-1.07c0.31-0.2,0.27-0.36-0.05-0.49c-0.2-1.43-0.22-2.87-0.18-4.31
		c0.35-0.34,0.41-0.67-0.05-0.97c-0.19-1.59-0.18-3.19-0.18-4.79c0.34-0.28,0.36-0.52-0.07-0.73c-0.18-0.79-0.2-1.59-0.16-2.4
		c0.32-0.37,0.42-0.71-0.13-0.96c-0.04-0.24-0.07-0.48-0.11-0.72c0.45-0.48,0.32-1.1,0.21-1.59c-0.32-1.47-0.23-2.95-0.18-4.41
		c0.04-1.12-0.34-2.11-0.56-3.16c-0.07-0.3-0.47-0.51-0.38-0.85c0.42-1.56-0.33-3.03-0.39-4.57c-0.09-1.97-0.48-3.97-0.76-5.94
		c-0.44-3.01-0.43-6.09-1.06-9.09c-0.6-2.87-0.96-5.79-1.53-8.66c-0.16-0.81-0.99-0.69-1.11-1.36c-0.19-1.06-0.75-1.95-1.37-2.83
		c-1.52-2.16-2.59-4.55-3.46-7.03c-0.78-2.25-1.24-4.61-1.98-6.85c-0.81-2.45-1.16-4.99-1.9-7.44c-0.6-2.01-0.72-4.13-0.95-6.23
		c-0.33-2.95-0.29-5.91-0.09-8.84c0.16-2.48-0.08-4.97,0.36-7.43c5.69-2.71,11.44-5.24,17.3-7.57c5.48-2.18,10.85-4.64,16.24-7.04
		c3.98-1.78,7.67-4.09,11.33-6.44c0.33-0.21,0.63-0.49,0.88-0.8c1.22-1.49,2.73-2.42,4.7-2.53c1.21,0.6,2.51,0.15,3.77,0.36
		c9.91,1.64,19.91,2.47,29.94,2.68c8.35,0.17,16.68-0.6,24.99-1.53c4.24-0.47,8.46-1.09,12.69-1.65c1.6,0.03,3.01,0.6,4.04,1.79
		c1.32,1.53,3.01,2.49,4.71,3.44c9.28,5.21,19.04,9.42,28.92,13.34c3.94,1.56,7.67,3.58,11.54,5.29c0.4,0.18,0.75,0.49,1.12,0.74
		c0.16,2.9,0.26,5.81,0.43,8.71c0.27,4.76-0.24,9.46-1.47,14.11c-0.97,3.65-2.04,7.27-3.01,10.91c-0.97,3.65-2.6,6.96-4.44,10.22
		c-0.25,0.44-0.51,0.74-0.92,1.01c-0.62,0.41-1.15,0.92-1.46,1.68c-0.57,1.4-0.95,2.83-1.21,4.33c-0.64,3.65-1.03,7.31-1.12,11.01
		c-0.05,2.1,0.08,4.41-0.84,6.19c-0.98,1.9-0.14,3.9-1.04,5.67c-0.12,0.23-0.05,0.68,0.11,0.91c0.64,0.93,0.47,1.99,0.24,2.88
		C188.85,110.69,188.92,111.29,188.91,111.93z M57.59,248.87c0.26-0.01,0.28-0.22,0.33-0.41c0.23-0.32,0.48-0.63,0.67-0.97
		c5.35-9.32,10.7-18.63,16.05-27.95c1.1-1.93,2.2-3.86,3.38-5.94c-3.7,0-7.17,0.04-10.64-0.03c-1-0.02-1.17,0.34-1.16,1.23
		c0.04,4.48,0.01,8.95,0.03,13.43c0,0.61-0.09,1.17-0.34,1.74c-1.55,3.46-3.08,6.93-4.61,10.4c-1.17,2.66-2.33,5.33-3.49,8
		c-0.2,0.12-0.22,0.31-0.2,0.51c-0.06,0.09-0.12,0.17-0.18,0.26c0.03,0.02,0.07,0.04,0.1,0.06
		C57.54,249.09,57.57,248.98,57.59,248.87z M140.58,285.69c0.74-0.23,0.89-0.62,1.08-0.96c8.45-15.06,16.86-30.14,25.38-45.16
		c1.35-2.38,2-4.72,1.93-7.46c-0.16-5.79-0.07-11.6-0.03-17.4c0.01-0.91-0.25-1.18-1.14-1.13c-1.32,0.08-2.65,0.12-3.96-0.01
		c-1.22-0.12-1.84,0.37-2.42,1.4c-4.21,7.45-8.47,14.87-12.74,22.28c-0.4,0.69-0.56,1.37-0.56,2.15c0.02,9.4,0.01,18.8,0.02,28.2
		c0,0.69-0.11,1.33-0.4,1.97c-1.86,4.15-3.7,8.32-5.55,12.48C141.69,283.2,141.18,284.34,140.58,285.69z M99.79,254.26
		c0.18,0.09,0.35,0.18,0.53,0.28c7.73-13.59,15.46-27.19,23.28-40.94c-5.3,0-10.34,0.03-15.38-0.02c-1.01-0.01-1.26,0.29-1.25,1.27
		c0.04,7.4,0.02,14.8,0.03,22.2c0,0.7-0.13,1.33-0.42,1.96c-1.49,3.28-2.95,6.56-4.41,9.85
		C101.38,250.66,100.59,252.46,99.79,254.26z M159.98,213.6c-3.86,0-7.45,0.02-11.04-0.02c-0.91-0.01-0.79,0.54-0.79,1.1
		c0,4.52-0.01,9.03,0.01,13.55c0,0.7-0.12,1.33-0.41,1.97c-1.96,4.37-3.9,8.75-5.85,13.13c-0.77,1.74-1.54,3.48-2.3,5.22
		c0.08,0.04,0.16,0.08,0.24,0.12C146.51,237.06,153.18,225.44,159.98,213.6z"></path>
	<path d="M31.64,32.27c-0.44,2.46-0.19,4.95-0.36,7.43c-0.19,2.93-0.23,5.89,0.09,8.84
		c0.23,2.09,0.35,4.21,0.95,6.23c0.73,2.46,1.09,4.99,1.9,7.44c0.74,2.25,1.2,4.61,1.98,6.85c0.86,2.48,1.94,4.87,3.46,7.03
		c0.62,0.88,1.18,1.77,1.37,2.83c0.12,0.67,0.94,0.55,1.11,1.36c0.58,2.88,0.94,5.79,1.53,8.66c0.63,3,0.62,6.08,1.06,9.09
		c0.29,1.97,0.68,3.97,0.76,5.94c0.07,1.53,0.82,3,0.39,4.57c-0.09,0.34,0.31,0.55,0.38,0.85c0.23,1.04,0.6,2.04,0.56,3.16
		c-0.05,1.47-0.14,2.94,0.18,4.41c0.11,0.49,0.24,1.12-0.21,1.59c-0.12-0.01-0.24-0.02-0.36-0.03c-0.6-0.64-0.4-1.45-0.32-2.16
		c0.1-0.95-0.01-1.89-0.01-2.83c0-1.05-0.42-1.33-1.23-0.76c-1.89,1.32-4.05,1.39-6.19,1.44c-5.11,0.12-10.21-0.06-15.26-0.93
		c-5.92-1.02-11.89-1.77-17.79-2.95c-1.29-0.26-2.63-0.12-3.89-0.57c0.65-4.27,1.3-8.53,1.95-12.8c0.97-6.33,3.06-12.42,4.07-18.73
		c0.87-5.4,1.54-10.83,3.05-16.11c1.58-5.52,3.65-10.82,6.78-15.67c2.64-4.1,5.91-7.65,9.67-10.74c1.14-0.94,2.34-1.82,3.35-2.9
		C30.91,32.52,31.26,32.38,31.64,32.27z"></path>
	<path d="M188.91,111.93c0.01-0.64-0.07-1.24,0.11-1.93c0.22-0.89,0.4-1.95-0.24-2.88
		c-0.16-0.23-0.23-0.68-0.11-0.91c0.9-1.77,0.05-3.76,1.04-5.67c0.92-1.78,0.79-4.09,0.84-6.19c0.09-3.7,0.48-7.36,1.12-11.01
		c0.26-1.5,0.64-2.92,1.21-4.33c0.31-0.76,0.84-1.27,1.46-1.68c0.41-0.28,0.68-0.57,0.92-1.01c1.84-3.25,3.47-6.57,4.44-10.22
		c0.97-3.65,2.05-7.26,3.01-10.91c1.23-4.65,1.74-9.35,1.47-14.11c-0.17-2.9-0.26-5.81-0.43-8.71c3.49,2.66,6.78,5.54,9.63,8.89
		c5.56,6.54,8.75,14.23,10.92,22.43c1.52,5.73,2.05,11.63,3.03,17.46c1.62,9.73,2.63,19.56,4.68,29.23
		c0.08,0.39,0.08,0.79,0.11,1.19c-4.89,1.36-9.87,2.24-14.87,3.03c-2.72,0.43-5.45,0.63-8.19,0.86c-3.82,0.32-7.64,0.52-11.47,0.26
		c-3.21-0.22-6.14-1-8.28-3.63C189.25,111.98,189.05,111.98,188.91,111.93z"></path>
</g>
<g onclick="select(this)" class="" id="c-estampa-secundaria" fill="#ffffff">
	<path d="M101.42,289.4c1.7-3.88,3.39-7.76,5.11-11.63c0.32-0.71,0.48-1.41,0.48-2.19
		c-0.02-9.23-0.01-18.47-0.02-27.7c0-0.71,0.16-1.31,0.51-1.92c4.51-7.82,8.96-15.68,13.52-23.48c1.57-2.69,3.14-5.38,4.66-8.1
		c0.39-0.69,0.85-0.89,1.54-0.77c0.84,0.15,0.46,0.83,0.46,1.26c0.02,9.71,0.02,19.43,0.02,29.14c0,0.61-0.08,1.16-0.39,1.71
		c-6.59,11.6-13.17,23.21-19.75,34.82c-1.67,2.95-3.36,5.9-5.05,8.85C102.15,289.4,101.79,289.4,101.42,289.4z"></path>
	<path d="M57.79,287.84c1.05-2.89,2.45-5.63,3.67-8.45c1.4-3.22,2.84-6.43,4.28-9.63c0.33-0.74,0.51-1.48,0.51-2.31
		c-0.02-9.31,0-18.63-0.03-27.94c0-0.91,0.2-1.69,0.65-2.48c4.33-7.51,8.64-15.03,12.93-22.57c0.36-0.64,0.75-0.91,1.49-0.88
		c1.56,0.06,3.12,0.05,4.68,0.01c0.69-0.02,0.99,0.13,0.99,0.92c-0.03,7-0.02,13.99-0.01,20.99c0,0.6-0.24,1.08-0.52,1.56
		c-6.17,11.01-12.34,22.03-18.51,33.04c-3.32,5.93-6.63,11.86-9.94,17.78c0,0-0.11,0.02-0.11,0.02L57.79,287.84z"></path>
	<path d="M66.24,288.79c0-3.44,0.01-6.88-0.01-10.32c-0.01-0.75,0.15-1.4,0.52-2.05
		c8.34-14.85,16.66-29.7,24.98-44.56c1.44-2.58,2.86-5.18,4.3-7.76c0.18-0.33,0.24-0.78,0.71-0.89l-0.02-0.02
		c-0.33,1.58-1.24,2.92-1.88,4.37c-2.4,5.44-4.86,10.86-7.32,16.27c-0.39,0.85-0.58,1.7-0.58,2.65c0.02,9.31,0.01,18.62,0.03,27.92
		c0,0.75-0.16,1.39-0.53,2.04c-2.44,4.31-4.85,8.63-7.27,12.94C74.84,289.55,70.53,289.27,66.24,288.79z"></path>
	<path d="M148.2,288.89c-0.02-3.68-0.04-7.35-0.07-11.03c0-0.43,0.19-0.76,0.38-1.11
		c7.01-12.51,14.03-25.03,21.03-37.54c2.42-4.32,4.82-8.66,7.23-12.99c0.17-0.3,0.23-0.68,0.89-0.99c-0.39,1.01-0.66,1.82-1.01,2.6
		c-2.37,5.29-4.74,10.57-7.15,15.84c-0.41,0.89-0.61,1.77-0.61,2.76c0.02,9.31,0.01,18.63,0.03,27.94c0,0.75-0.17,1.38-0.54,2.03
		c-2.29,3.98-4.54,7.99-6.8,11.99C157.14,288.75,152.68,288.92,148.2,288.89z"></path>
	<path d="M107,289.38c-0.34-2.62,0.56-4.83,1.86-7.09c6.07-10.52,11.98-21.13,17.98-31.69
		c2.38-4.19,4.83-8.35,7.32-12.63c0.46,0.63,0.17,1.11-0.04,1.59c-2,4.49-3.99,8.98-6.01,13.46c-0.29,0.64-0.42,1.26-0.42,1.96
		c0.01,9.11-0.01,18.23,0.03,27.34c0.01,1.38-0.26,2.57-1,3.72c-0.65,1.01-1.17,2.09-1.75,3.14c-2.29,0.34-4.6,0.14-6.9,0.18
		C114.39,289.41,110.69,289.37,107,289.38z"></path>
	<path d="M45.32,250.66c2.08-2.8,3.53-5.97,5.31-8.95c0.99-1.66,1.91-3.37,2.95-5.23c0.38,0.73-0.01,1.21-0.21,1.66
		c-1.42,3.26-2.87,6.5-4.31,9.75c-0.41,0.91-0.74,1.87-1.23,2.73c-1.31,2.3-1.54,4.76-1.51,7.37c0.09,8.39,0.03,16.78,0.04,25.17
		c0,0.74-0.07,1.43-0.48,2.05c-2.3-0.59-2.72-1.15-2.55-3.52c0.56-7.88,1.16-15.76,1.69-23.64c0.12-1.83,0.05-3.67,0.08-5.51
		C45.11,251.91,45.05,251.27,45.32,250.66z"></path>
	<path d="M185.07,285.34c0.92-2.56,2.13-4.99,3.24-7.46c0.35-0.78,0.53-1.56,0.53-2.42
		c-0.02-9.2-0.01-18.39-0.01-27.59c0-0.71-0.1-1.47,0.7-1.89c0.61,3.15,0.3,6.36,0.55,9.54c0.52,6.67,0.94,13.36,1.39,20.03
		c0.02,0.35-0.05,0.71-0.08,1.06c0.1,0.39-0.15,0.65-0.32,0.97c-1.28,2.5-2.97,4.77-4.15,7.32
		C186.33,285.18,185.73,285.37,185.07,285.34z"></path>
	<path d="M81.48,289.4c2.04-3.89,4.3-7.65,6.49-11.46c2.37-4.12,4.68-8.27,7.02-12.4c0.1-0.17,0.21-0.33,0.35-0.56
		c0.28,0.55-0.1,0.87-0.25,1.21c-2.6,5.87-5.22,11.75-7.84,17.61c-0.24,0.54-0.23,1.08-0.23,1.64c-0.01,1.32-0.01,2.64-0.02,3.95
		C85.16,289.4,83.32,289.4,81.48,289.4z"></path>
	<path d="M164.15,288.23c1.15-2.55,2.65-4.91,4.01-7.34c2.54-4.52,5.14-9.01,7.72-13.51
		c0.15-0.26,0.19-0.61,0.55-0.72c0.43,0.31,0.04,0.6-0.06,0.82c-2.2,5.03-4.33,10.09-6.68,15.05c-0.84,1.78-0.7,3.56-0.83,5.37
		C167.31,288.12,165.74,288.29,164.15,288.23z"></path>
	<path d="M189.08,242.48c-2.22,3.88-4.44,7.76-6.68,11.63c-0.35,0.61-0.79,1.18-1.19,1.79
		c-0.36-0.37-0.11-0.55-0.02-0.75c2.33-5.21,4.65-10.42,7-15.62c0.4-0.89,0.6-1.78,0.59-2.77c-0.04-2.03,0.01-4.07,0.02-6.1
		C189.69,234.58,189.56,238.53,189.08,242.48z"></path>
	<path d="M127.33,289.19c2.66-4.71,5.32-9.43,7.98-14.14c0.11,0.05,0.21,0.1,0.32,0.14
		c-1.83,4.73-4.13,9.28-6.06,13.97C128.82,289.35,128.07,289.34,127.33,289.19z"></path>
	<path d="M47.95,285.81c2.17-3.9,4.34-7.79,6.51-11.69c0.11,0.05,0.21,0.1,0.32,0.15
		c-1.76,3.98-3.51,7.97-5.27,11.95C48.97,286.16,48.42,286.14,47.95,285.81z"></path>
	<path d="M46.21,228.41c0.2,0.62,0.13,1.26,0.13,1.9c0.01,4.58,0.01,9.15,0,13.73c0,0.41,0.17,0.89-0.24,1.23
		C45.32,239.64,45.06,234.02,46.21,228.41z"></path>
	<path d="M188.75,229.61c0-5,0-9.99,0.01-14.99c0-0.41-0.27-1.06,0.58-1.01c0.37,1.54,0.28,3.11,0.2,4.65
		C189.35,222.05,189.03,225.83,188.75,229.61z"></path>
	<path d="M140.58,285.69c0.6-1.34,1.11-2.49,1.62-3.63c1.85-4.16,3.69-8.33,5.55-12.48c0.29-0.64,0.4-1.27,0.4-1.97
		c-0.01-9.4,0-18.8-0.02-28.2c0-0.78,0.16-1.46,0.56-2.15c4.27-7.41,8.53-14.83,12.74-22.28c0.58-1.03,1.19-1.52,2.42-1.4
		c1.31,0.13,2.64,0.08,3.96,0.01c0.9-0.05,1.15,0.22,1.14,1.13c-0.04,5.8-0.13,11.6,0.03,17.4c0.07,2.74-0.58,5.08-1.93,7.46
		c-8.52,15.02-16.93,30.1-25.38,45.16C141.47,285.07,141.33,285.45,140.58,285.69z"></path>
	<path d="M99.79,254.26c0.8-1.8,1.59-3.6,2.39-5.4c1.46-3.29,2.92-6.58,4.41-9.85c0.29-0.64,0.42-1.27,0.42-1.96
		c-0.01-7.4,0.01-14.8-0.03-22.2c-0.01-0.98,0.24-1.28,1.25-1.27c5.04,0.05,10.07,0.02,15.38,0.02
		c-7.82,13.75-15.55,27.34-23.28,40.94C100.15,254.44,99.97,254.35,99.79,254.26z"></path>
	<path d="M159.98,213.6c-6.8,11.84-13.47,23.46-20.14,35.07c-0.08-0.04-0.16-0.08-0.24-0.12
		c0.77-1.74,1.53-3.48,2.3-5.22c1.94-4.38,3.89-8.76,5.85-13.13c0.29-0.64,0.41-1.27,0.41-1.97c-0.02-4.52-0.01-9.03-0.01-13.55
		c0-0.56-0.12-1.11,0.79-1.1C152.53,213.62,156.12,213.6,159.98,213.6z"></path>
	<path d="M57.81,248.37c1.16-2.67,2.32-5.34,3.49-8c1.53-3.47,3.06-6.94,4.61-10.4c0.25-0.56,0.34-1.13,0.34-1.74
		c-0.01-4.48,0.01-8.95-0.03-13.43c-0.01-0.89,0.16-1.25,1.16-1.23c3.47,0.07,6.94,0.03,10.64,0.03c-1.18,2.08-2.28,4.01-3.38,5.94
		c-5.35,9.32-10.7,18.64-16.05,27.95c-0.2,0.34-0.45,0.65-0.68,0.97C57.88,248.43,57.84,248.4,57.81,248.37z"></path>
</g>
<path d="M96.73,223.21c0.01-0.1,0.03-0.2,0.04-0.3c0.04,0.02,0.08,0.04,0.12,0.06c-0.06,0.07-0.12,0.15-0.18,0.22
	C96.71,223.2,96.73,223.21,96.73,223.21z"></path>
<path d="M57.61,248.88c-0.03-0.21,0-0.39,0.2-0.51c0.04,0.03,0.07,0.06,0.11,0.09c-0.05,0.19-0.07,0.39-0.33,0.41
	L57.61,248.88z"></path>
<path d="M57.59,248.87c-0.02,0.11-0.04,0.22-0.07,0.34c-0.03-0.02-0.07-0.04-0.1-0.06c0.06-0.09,0.12-0.17,0.18-0.26
	C57.61,248.88,57.59,248.87,57.59,248.87z"></path>
</svg>
