<!--?xml version="1.0" encoding="utf-8"?-->
<!-- Generator: Adobe Illustrator 24.2.3, SVG Export Plug-In . SVG Version: 6.00 Build 0)  -->
<svg version="1.1" id="Camada_1" xmlns="http://www.w3.org/2000/svg" xmlns:xlink="http://www.w3.org/1999/xlink" x="0px" y="0px" viewBox="0 0 229 418" enable-background="new 0 0 229 418" xml:space="preserve">
<g onclick="select(this)" class="" id="estampa-primaria" fill="#bf0811">
	<path d="M228.9600067,116.093399c-6.8571014,2.7822495-14.0121155,4.3370743-21.3362427,5.2273712
		c-6.1868591,0.7520599-12.368454,0.6976852-18.5519867,0.0140381c-1.5454559-0.1708679-3.0968781-0.3538818-4.5782013-1.2677536
		c-0.2199554,2.0793762-0.4086456,4.0580902-0.6417084,6.0315781c-0.8538513,7.2303009-1.2928009,14.4857788-1.360672,21.7647858
		c-0.0205078,2.2003937,0.0623932,4.3856812,0.517807,6.556076c0.4091797,1.9500275-0.1010284,3.8995209-0.1977386,5.8493652
		c-0.0355988,0.717926-0.1707764,1.4362183-0.1483612,2.1508484c0.2055359,6.549881-0.5930634,13.0964661-0.0467377,19.6483002
		c0.1228333,1.4733582,0.0373993,2.9524689-0.128479,4.4282837c-0.3486176,3.1020355,0.1955414,6.1179047,0.8783569,9.133194
		c1.6395416,7.239975,1.3817749,14.5227966,0.3444061,21.8104858c-0.3048859,2.1419525-0.3785248,4.2077332,0.3238068,6.355957
		c1.7737885,5.4254761,1.8165588,11.0054626,0.943222,16.6040192c-0.2310028,1.4808197-0.2509308,2.9245453,0.0898895,4.3920746
		c0.8876038,3.8216553,0.4447784,7.7210388,0.6464539,11.5834961c0.308197,5.9023438,0.6915741,11.8015137,1.4323425,17.6740112
		c0.2583313,2.0479736,0.224884,4.1368713,0.2556305,6.2081604c0.0256958,1.7302551-0.3531799,2.2260742-2.0658417,2.7414246
		c-3.0054626,0.9043579-6.1238403,1.1594543-9.2250977,1.4795837c-7.6872864,0.7935486-15.4051208,0.8666382-23.123642,1.0108948
		c-11.2354126,0.2099304-22.4668884,0.6517639-33.7026749,0.8135376c-12.4787674,0.179657-24.936409-0.845459-37.4167862-0.8475647
		c-8.3977737-0.0014343-16.797905-0.1000061-25.1787109-0.73526c-4.1492081-0.3144531-8.2847404-0.7519226-12.3537483-1.6697083
		c-0.1560364-0.0351868-0.3138123-0.0631714-0.4689255-0.1018372c-3.3675385-0.8405762-3.729023-1.1849976-3.5259438-4.6595764
		c0.4517288-7.7287292,1.0040855-15.4518127,1.5478287-23.174942c0.1460991-2.0751343,0.2783318-4.1479645,0.2284355-6.2277222
		c-0.0423241-1.7640381,0.0424042-3.5182648,0.3600349-5.2543335c0.4133606-2.2592926,0.4568634-4.5092621,0.1249275-6.7918701
		c-0.3660889-2.5175629-0.0983963-5.0300446,0.4432831-7.5034943c0.2180901-0.9958496,0.195961-1.9692535,0.1215553-2.9723206
		c-0.336792-4.5404205-1.0248642-9.0607758-0.8374214-13.6324158c0.1784706-4.3526611,1.2044525-8.5330353,2.6853447-12.6053009
		c0.3780708-1.0396423,0.6012306-2.0360565,0.4378281-3.144928c-0.1810989-1.2289734-0.1553574-2.4728088,0.0793152-3.7015228
		c0.3182716-1.6664276,0.183197-3.3283997,0.0996132-5.0111847c-0.1621933-3.2655487-0.1713448-6.5402069-0.1846046-9.8113403
		c-0.0524673-12.9395447-0.0425491-25.8795013-0.1395607-38.8186798c-0.038414-5.1238098-0.9970284-10.1758575-1.5123215-15.2630005
		c-0.131218-1.295433-0.3165131-2.5854034-0.4659805-3.7894058c-8.7987175,2.5404205-17.7214336,1.9815598-26.6416473,1.1304092
		c-4.741806-0.452446-9.4219036-1.3161163-13.9765768-2.7638702C1.8316439,118.6739197,0.9756763,118.3496017,0.24,117.772438
		c0-1.0394058,0-2.078804,0-3.1182098c0.3886503-0.0979767,0.2689478-0.4427795,0.3153924-0.6888885
		c0.3441262-1.8235321,0.6675487-3.6509476,1.0076697-5.4752502c1.8599573-9.9762039,2.9367695-20.0686417,4.416398-30.1010056
		C6.8598299,72.419899,7.5262547,66.427742,9.1545849,60.5976868c2.7158356-9.7237396,7.3670483-18.2610435,15.2138138-24.8508644
		c1.1002979-0.9240494,2.1522732-1.908123,3.1921444-2.9004936c0.5942116-0.5670662,1.2593575-1.017168,1.9867916-1.3651505
		c6.4953289-3.1071453,13.1113338-5.9370537,19.7744732-8.6652718c7.6037102-3.1133347,15.0100632-6.6465206,22.1374359-10.7465782
		c1.0358582-0.5958872,1.9914551-1.2535591,2.7835236-2.2022896c0.9345245-1.11936,2.1475449-1.9064846,3.7101288-1.9072599
		c-1.7067108,1.2581644-2.0866776,2.5338135-1.4845581,4.8333817c0.6667633,2.5464602,1.8320389,4.8321848,3.3867264,6.9568338
		c3.3269501,4.5466557,7.7954407,7.7559929,12.4609528,10.7306004c5.872467,3.7441292,12.360321,5.6922989,19.2632141,6.193306
		c5.2147064,0.378479,10.325737-0.3682213,15.2560577-2.1380272c2.6556473-0.9532814,5.1916733-2.1917076,7.64991-3.5758228
		c3.8891907-2.1898117,7.415802-4.8881588,10.5701141-8.0235748c2.838089-2.8211002,5.0895844-6.0975189,5.9576111-10.0776253
		c0.5877533-2.6949081,0.2448578-3.7869673-1.6442871-4.6568136c1.8040009-0.123147,2.9554596,0.9744577,4.0511017,2.1698017
		c0.2662506,0.2904806,0.4252472,0.6620398,0.7931213,0.8793755c3.9738922,2.3477592,7.8823395,4.7979689,12.1107788,6.7028666
		c10.4204865,4.6943989,21.101532,8.7826443,31.4798737,13.5730629c0.6920013,0.3194237,1.3066406,0.724474,1.8821259,1.2149258
		c1.0639801,0.9067917,2.1244659,1.8196297,3.2219086,2.6849899c3.6716614,2.895256,6.8238068,6.2698441,9.3999634,10.1694183
		c4.342453,6.5732765,6.7271576,13.896862,8.2562561,21.5540199c0.9705048,4.8599472,1.1772461,9.8393097,2.3999023,14.6610107
		c1.4536285,5.7324448,2.6221161,11.5251999,3.4730682,17.381134c0.5265961,3.6238251,1.0268097,7.2561493,1.7411194,10.8444443
		c0.1572876,0.7902069-0.1613617,1.8726273,0.7821503,2.458374
		C228.9600067,113.6947784,228.9600067,114.8940887,228.9600067,116.093399z"></path>
	<path d="M144.3056793,9.0716209c-0.8476105,2.2815924-2.0525665,4.1095562-3.492569,5.7695246
		c-6.4125214,7.3919783-14.2939911,12.224164-24.1360626,13.393693c-6.0921783,0.7239323-11.8413162-0.7903843-17.2688675-3.4482021
		c-5.6494904-2.7665043-10.3205185-6.7929859-14.1956177-11.738184c-0.7673187-0.9792147-1.2875595-2.1031981-1.7957001-3.2364836
		c-0.382309-0.8526554-0.112381-1.0213461,0.7168503-0.9401541c3.8547974,0.3774252,7.7088318,0.7718382,11.5699081,1.07374
		c6.369339,0.4980249,12.7413406,1.1686363,19.1342163,1.0081911c8.3439713-0.2094135,16.6710281-0.8258944,24.9881668-1.5415802
		C141.2539825,9.2892904,142.6843262,9.194108,144.3056793,9.0716209z"></path>
</g>
<g onclick="select(this)" class="" id="estampa-secundaria" fill="#000000">
	<path d="M42.9666595,116.1819382c0.0068893,1.2233124,0.3034592,3.1394196,0.3620415,4.4047852
		c-0.9010925,0.2391968-9.6487007,2.9431076-22.5407314,1.4909973C1.28,120.0751572,1.2324671,118.1966782,0.24,117.772438
		c0.00125-0.9401093,0-1.9188538,0-3.1182098c0-0.0509872,0.2705882-0.0001602,0.3007362-0.4785995
		c0.0267637-0.6282959,0.5633813-3.1857147,0.7934461-4.2679825c0.9792866-5.3416061,1.7393929-10.7162094,2.4158521-16.103157
		c0.6410913-5.1053009,1.5744514-10.1703033,2.1982841-15.2746201c0.5037322-4.1216431,0.9052281-8.2539902,1.7681227-12.3200302
		c1.7733555-8.356205,4.5491304-16.29813,9.7665377-23.2056046c0.722044-0.9559402,1.4873848-1.8813896,2.2689342-2.7897568
		c2.5134716-2.9213028,5.5949459-5.2378731,8.3992996-7.8498535c0.3545189,0.0282097,0.4467068,0.2161255,0.4182224,0.5621758
		c-0.0382442,0.4646072-0.0094757,0.9347305-0.0094757,1.4024887c0.3030148-0.7261734,0.2257996-1.4386101,0.1649113-2.1509895
		c0.0762939-0.304781,0.3070259-0.442791,0.5757751-0.5521088c3.9016094-1.5870705,7.562273-3.6912289,11.4645863-5.2857494
		c7.9889984-3.2643795,15.9924698-6.5026073,23.667614-10.4778175c2.7809067-1.4403229,5.5707855-2.8637733,8.2119446-4.5591631
		c0.4818878-0.3093271,0.8908615-0.6560383,1.2343521-1.1047039c0.7723007-1.0087891,1.7500153-1.7350569,2.9750137-2.1087885
		c0.2056351,0.0572357,0.4347992,0.0671806,0.5629807,0.2800961c-1.3479385,1.0505238-1.2907867,2.5204134-1.005043,3.9340048
		c0.6793747,3.3608608,2.3520508,6.2379465,4.6017456,8.7952814c0.0508652,0.0578232,0.1304703,0.0903625,0.2584305,0.1760521
		c2.1004105-1.6612625,4.2184372-3.3364582,6.3364639-5.0116539c2.6739044,2.6749153,5.5785904,5.0720654,9.0002213,7.2852516
		c-1.8614426,0-3.4140015-0.0315819-4.9648132,0.0069809c-2.7115097,0.0674248-5.423317,0.0008354-8.1373749,0.0880661
		c-1.6505737,0.0530529-3.3412933-0.0552559-5.0136719-0.0913906c-0.4566727-0.0098705-0.9695282-0.1106625-1.3178177,0.3847847
		c0.4761963,0.190834,0.955101,0.1017551,1.4210663,0.1021538c5.5180054,0.0046883,11.0360336,0.0055599,16.5540237-0.0083733
		c1.3593369-0.0034332,2.6014938,0.1519279,3.8964844,0.7982483c3.5954666,1.7944756,7.4170914,3.0026417,11.6108551,3.6098042
		c-1.604332,0.255785-3.0283661-0.0197163-4.4317551,0.189949c0.0357437,0.2651176,0.1810455,0.3596058,0.3386154,0.3604984
		c1.9075241,0.0108204,3.8226242,0.1157379,5.7204895-0.0190163c1.7728271-0.1258736,3.5306702-0.2151394,5.3120041-0.1821556
		c2.2985687,0.0425606,4.5926666,0.2013035,6.8903046,0.2118778c5.3022919,0.0244045,10.6047516,0.0246983,15.907135,0.0280075
		c5.6756439,0.00354,11.3512726-0.0006809,17.0269165-0.0015011c0.403244-0.0000591,0.806488-0.0000076,1.3702087-0.0000076
		c-0.7134399-0.6097965-1.3575287-0.6699772-2.0551758-0.6658306c-4.0211029,0.0239048-8.0423889,0.0240974-12.0636139,0.0204315
		c-1.9983521-0.0018215-3.997879-0.0798931-5.9947662-0.0333557c-3.3896332,0.0789967-6.780426-0.1069889-10.1732178,0.1518936
		c-0.9198532,0.0701923-1.902504,0.2482567-2.8293533,0.0270882c-0.8729019-0.2082996-1.7374115-0.2028217-2.6152878-0.1828251
		c-0.7190628,0.0163822-1.4386063,0.0129299-2.157959,0.0151596c-0.7080307,0.0021935-1.4160843,0.0004807-2.1241226,0.0004807
		c-0.0033569-0.08181-0.0067139-0.16362-0.0100632-0.2454319c3.6675034-0.6963768,7.1306915-1.9592419,10.4322662-3.6770782
		c0.5734406-0.2983608,1.1966705-0.4071617,1.8509369-0.4056683c2.0792084,0.0047493,4.159256-0.0560112,6.2375793-0.0169811
		c2.4320221,0.0456715,4.8680725-0.1601963,7.2977295,0.1724339c1.032074,0.1412964,2.0662231-0.0489082,3.0749969-0.3709278
		c-5.5669861-0.3678036-11.1342621-0.3763428-16.8272705-0.1220322c0.1763458-0.2256966,0.2289581-0.342886,0.319519-0.4016933
		c2.9234924-1.8986397,5.6474762-4.0412674,8.047348-6.578928c0.2599335-0.274826,0.5714264-0.4248505,0.9179688-0.5320415
		c2.1266785,1.6053772,4.1748657,3.3143616,6.3842773,4.8355827c0.5111542-0.1953678,0.7576599-0.6845188,1.0484314-1.0836582
		c1.8665466-2.5623436,3.3303986-5.3032255,3.6542358-8.5348978c0.1547241-1.5442219-0.4910583-2.5821257-1.8822479-3.1990843
		c1.8686371-0.1801519,3.0616302,0.9678717,4.1522827,2.2081871c0.4031067,0.4584122,0.8332977,0.8148184,1.3287964,1.150116
		c6.396759,4.3286257,13.4819641,7.2861557,20.5326691,10.3060341c4.7219238,2.0224419,9.4716797,3.9801121,14.2150269,5.9522343
		c2.9684143,1.2341576,5.767746,2.8412285,8.7861481,3.966135c0.2811127,0.1047745,0.5615845,0.2451172,0.805542,0.4750671
		c1.8049774,1.7012978,3.8474731,3.1195946,5.7105408,4.7528267c6.1928711,5.4288483,10.3332214,12.2070351,13.0289154,19.9182701
		c2.0126343,5.7573471,3.2018127,11.700573,3.85672,17.7555962c0.2928772,2.707695,0.8287201,5.3705215,1.4907684,8.0068359
		c1.6745453,6.6679306,2.8358612,13.4299088,3.7997742,20.231163c0.2237396,1.578598,0.4236908,3.20755,0.7102814,4.7772293
		c0.7886963,3.2005768,0.2187042,4.2205734,1.2187042,4.7962036c0,1.0856247-0.0062561,2.1993713,0,3.5979385
		c-1.9900055,1.0464325-11.088028,4.0863647-20.9692993,5.1820526c-13.113205,1.4518814-20.8757019-0.1456223-22.2395935-0.5986023
		c-0.2062836-0.068512-0.7961121-0.2895203-1.2575378-0.6097946c-0.1380768-2.1338425,0.7004852-6.6284256,0.5578461-6.4471741
		c-0.0380096-1.1232834,0.1529846-2.2330246,0.3371735-3.3254395c0.5552521-3.2931442,1.1793518-6.5754318,1.8257294-9.8522568
		c0.6938477-3.5174942,1.6159973-6.9745178,2.7875366-10.3686142c0.8972778-2.5994415,2.1107941-5.0676575,2.9889069-7.6791916
		c1.5241241-4.5328064,1.7852478-9.2067642,1.8857269-13.9153824c0.0230103-1.0789948-0.0050812-2.1589737,0.0027466-3.2384109
		c0.0118866-1.6365242,0.0164948-1.6366119-1.645752-1.6366119c-52.8275146-0.0000229-105.655014-0.0000153-158.4825134,0
		c-0.2799301,0-0.5619888,0.0224419-0.8393631-0.0041237c-0.6063576-0.058075-0.8201599,0.1736259-0.8537521,0.805378
		c-0.0676346,1.2720795-0.1374626,2.5514984-0.2863579,3.8125534c-0.2839928,2.4052353,0.0465126,4.7765198,0.2450409,7.1499405
		c0.1821671,2.1778564,1.1142845,4.1428833,2.1389847,6.0499344c0.3222084,0.5996399,0.6655159,1.2080841,0.7693863,1.8756866
		c0.168644,1.0839233,0.620739,2.0586319,1.0372467,3.0455551c1.3679199,3.2413101,2.3969955,6.5871201,3.114502,10.0266953
		c0.6425819,3.0803909,1.1624985,6.1844635,1.5024185,9.313179
		C41.9606819,109.1911392,42.8911667,112.6300888,42.9666595,116.1819382z M196.2077942,45.5505562
		c-0.8727112,0.3723831-1.7402496,0.2207184-2.6008301,0.2626114c-0.6467438,0.0314827-1.2460022-0.2198219-1.8965149-0.2041206
		c-1.7973633,0.0433922-3.5965881,0.0237617-5.3948975,0.0090675c-1.1968384-0.0097771-2.3869629-0.0422974-3.572403,0.2222939
		c-0.65625,0.1464767-1.3787537,0.3132973-2.0108795,0.1812401c-1.1363678-0.2373924-2.2722626-0.0857697-3.3899994-0.1094933
		c-3.5732727-0.0758362-7.1497803-0.1771355-10.7275696-0.0728989c-2.7345886,0.0796623-5.471817,0.0743942-8.2094421,0.0160027
		c-2.7546387-0.058754-5.5124817-0.0570946-8.2668304,0.0076942c-1.0089874,0.023735-1.9819336-0.3688469-2.9614258-0.2240334
		c-1.7161713,0.2537231-3.4399872,0.1186256-5.157608,0.206295c-2.4161682,0.1233215-4.8448029,0.0009155-7.2680969-0.0124512
		c-0.2391968-0.0013237-0.4822693,0.0035629-0.7168274,0.0442047c-0.2410583,0.0417747-0.4969635,0.1519775-0.468338,0.4434586
		c0.0279083,0.2841682,0.3553162,0.4074478,0.5382233,0.3707886c0.955658-0.1914825,1.9298706,0.2811623,2.8350525,0.0098038
		c1.66745-0.4998817,3.3226776,0.0297661,4.9731293,0.0070152c1.3877106-0.0191231,2.8344116-0.0387535,4.2446442,0.0085297
		c1.2843781,0.0430679,2.5986328-0.0042534,3.9042816,0.0242996c2.3830109,0.0521164,4.7683411-0.0085602,7.151947,0.027935
		c0.8063507,0.0123482,1.5895081-0.3889732,2.3725433-0.1916199c1.7270203,0.4352646,3.4690857-0.1075516,5.1987,0.1769676
		c1.7737732,0.2917709,3.5653534-0.0315094,5.3519897,0.0234337c1.9127502,0.058815,3.8288116,0.0232849,5.734314,0.2344513
		c0.8088989,0.0896416,1.5746307-0.338253,2.3749084-0.1804543c1.855484,0.3658524,3.705246,0.0827026,5.5584869-0.0002632
		c1.3464508-0.0602913,2.7077179-0.2067642,4.036438-0.1516647c2.4333954,0.1009102,4.8654327,0.0333977,7.296402,0.1166115
		C195.8430328,46.8204193,196.261734,46.4981041,196.2077942,45.5505562z M156.3595886,38.5897141
		c1.7976837,0.0903244,3.5946045,0.2335854,5.3932037,0.2589836c2.9437714,0.0415764,5.8886261,0.0056801,8.8330231,0.0039024
		c4.835495-0.0029106,9.67099-0.0055618,14.506485-0.0056992c0.5720673-0.0000191,1.1343842-0.0287552,1.6736298-0.3376274
		C185.7572479,38.0898247,157.4883423,38.1623688,156.3595886,38.5897141z M190.2843781,41.4322052
		c-0.5242004-0.4001465-1.0030212-0.3775063-1.4751587-0.3713455c-1.3034515,0.0170174-2.605484,0.1388168-3.910553,0.0380669
		c-1.3193359-0.1018486-2.6204681,0.1828651-3.9272766,0.215229c-2.4194489,0.0599098-4.8439178,0.0113373-7.2632751-0.075634
		c-0.752121-0.0270424-1.5350342,0.1436653-2.2356567-0.0186844c-1.8302155-0.4241066-3.6650238-0.0519028-5.4578247,0.0083427
		c-2.9386292,0.0987434-5.8651276-0.2251244-8.795105-0.033535c-0.1937714,0.0126686-0.4194489-0.1012535-0.4553528,0.1821938
		c-0.0337524,0.2664108,0.1941528,0.3091202,0.3970795,0.3171806c1.392746,0.0553207,2.8141632,0.2908249,4.1672821,0.1740723
		c1.5499878-0.1337395,3.0846252-0.0040283,4.6192932-0.0441628c4.9760437-0.1301384,9.9581757-0.0798492,14.9371643-0.025795
		c3.0328979,0.0329323,6.0510254-0.3124847,9.0820923-0.2526093
		C190.0405579,41.5469742,190.1151123,41.4945755,190.2843781,41.4322052z M131.1530304,41.3425827
		c1.5576172,0.64785,23.2015381,0.5868073,24.2478333-0.0132675c-7.6584625-0.1550789-15.3208771-0.0244331-22.9791565-0.2037964
		C132.0007477,41.1156616,131.576004,41.2665291,131.1530304,41.3425827z M93.9421158,38.7843018
		c2.6900406,0.1914711,5.1195145,0.0142097,7.5426712,0.0541534c2.4589081,0.0405312,4.9242401,0.0986786,7.4963531-0.0979004
		c-0.2614822-0.3818359-0.4682922-0.3256264-0.6559982-0.3292007c-1.5041809-0.028656-3.0112762-0.1007271-4.5107574-0.144413
		c-2.7461166-0.0800056-5.4903412-0.0059357-8.2339783-0.0764618
		C95.0705566,38.1773682,94.5905457,38.2824745,93.9421158,38.7843018z M112.921463,38.1500015
		c0.0093155,0.1141663,0.018631,0.2283325,0.0279465,0.3424988c0.3869095,0.2744789,0.8296051,0.1682854,1.2507172,0.1411819
		c0.8304901-0.0534515,1.7145462-0.2355461,2.4821014-0.1264305c1.857338,0.2640419,3.7185287,0.073185,5.5761032,0.2945175
		c1.8493271,0.220356,3.7419205,0.0814934,5.6155777,0.0911407c0.4380722,0.0022545,0.8765335-0.0278473,1.314415-0.0508499
		c0.2180939-0.0114632,0.401947-0.1015358,0.3730621-0.3530312c-0.0328369-0.2860451-0.2351685-0.2009506-0.4410095-0.1931915
		c-1.1323624,0.0426979-2.2761688,0.1569519-3.3950272,0.0420456c-0.6688232-0.0686874-1.336792-0.1624298-2.010849-0.1679001
		c-1.712944-0.0139084-3.4259949-0.0166817-5.1390152-0.0193214
		C116.6908112,38.1477623,114.8061371,38.1500015,112.921463,38.1500015z M195.9578705,42.3735695
		c0.0008392-0.1154366,0.0016479-0.2308693,0.0024719-0.3463058c-4.0718689,0.0074005-8.1442719-0.0965996-12.2153931,0.0675468
		c0.0000153,0.0929222,0.0000458,0.1858406,0.000061,0.278759C187.815979,42.3735695,191.8869171,42.3735695,195.9578705,42.3735695
		z M130.721283,38.7732582c1.6790009,0.0928802,3.1933289,0.1501274,4.7054749-0.0818176
		C133.6253052,38.0108566,131.6193237,38.0259171,130.721283,38.7732582z M148.6864777,38.6067848
		c-0.6739807-0.3701324-3.7365723-0.4586792-4.5427551-0.13134
		C144.8151398,38.9019852,147.529541,38.9804688,148.6864777,38.6067848z M190.9000244,41.3348541
		c1.8392029,0.059494,3.6525574,0.4648361,5.7107391,0.4087486
		C195.8289948,41.2985306,191.9504547,40.9969749,190.9000244,41.3348541z M103.300972,28.5785027
		c-0.8972168-0.3037872-1.7957153-0.2069416-2.6884689-0.1770935c-0.2465286,0.0082417-0.7044983-0.1135426-0.6589966,0.26828
		c0.0610352,0.5120125,0.4611969,0.1677265,0.7377167,0.1360321c0.2729263-0.0312824,0.5946045-0.0935879,0.8211746,0.0135746
		C102.1669998,29.128912,102.7191162,28.787159,103.300972,28.5785027z M148.1035004,23.9163647
		c0.6542511,0.397234,1.2044525,0.34659,1.7678375,0.0222797C149.3249207,23.9104252,148.806778,23.2950516,148.1035004,23.9163647z
		 M138.9911652,61.9677925c-1.1005249-0.5971832-1.1005249-0.5971832-1.6353302,0.108181
		C137.8757629,62.0828857,138.3351593,62.1700668,138.9911652,61.9677925z M138.622818,38.8059921
		c0.2350922-0.008419,0.5802155-0.0079689,0.5362244-0.2943459c-0.0602264-0.3921394-0.4706116-0.3319321-0.7761841-0.3358955
		c-0.229599-0.0029831-0.5799866,0.0004883-0.5309906,0.291748
		C137.9147797,38.8415909,138.3070984,38.8154755,138.622818,38.8059921z M175.5609283,37.0222588
		c0.8902893,0.2086411,0.8902893,0.2086411,1.6439056-0.0555496
		C176.3556213,36.7222786,176.3556213,36.7222786,175.5609283,37.0222588z M155.6831665,38.7569923
		c-0.6087952-0.4323044-0.6087952-0.4323044-1.5612183-0.1040764
		C154.6644745,38.9469681,155.1464386,38.856266,155.6831665,38.7569923z M141.6317139,38.4867821
		c-0.6539307-0.1100426-1.135025-0.1965065-1.8193054,0.1129227
		C140.5249329,38.9374275,141.0049591,38.9994812,141.6317139,38.4867821z M149.4909058,38.5274887
		c0.5090485,0.291214,0.8087463,0.4291534,1.1926117,0.0929832C150.3282318,38.29496,150.011734,38.3754921,149.4909058,38.5274887z
		 M120.0921021,37.0946541c-0.7250519-0.1815376-1.1710129-0.1837807-1.821579-0.0359955
		C118.9188309,37.2622757,119.3652039,37.2016945,120.0921021,37.0946541z M104.135025,28.4233723
		c-0.1376114,0.0428867-0.1769638,0.1444988-0.1209564,0.2522831c0.0251007,0.0483074,0.133461,0.0895615,0.1917267,0.0769863
		c0.1266937-0.0273495,0.1702881-0.1388149,0.1092377-0.2480793
		C104.2878342,28.455864,104.1903915,28.4463997,104.135025,28.4233723z"></path>
	<path d="M182.3953705,179.0309753c-21.0384521,0.0010071-42.0768738,0.0026703-63.1153107,0.0028687
		c-23.9581375,0.0002136-47.9162827-0.0008698-71.8744202-0.0013733c-0.3199768,0-0.6427498-0.0273438-0.959343,0.0053253
		c-0.6620903,0.0682983-0.8286018-0.1950836-0.9138985-0.865036c-0.3365135-2.6433563,0.1421089-5.2544861,0.1735687-7.8798828
		c0.0171738-1.4330292-0.0773811-2.8707733-0.1878662-4.3012543c-0.2188301-2.8333435-0.2732773-5.6634064,0.0222435-8.493103
		c0.1008453-0.9656372-0.1322365-1.9083405-0.1521988-2.8665619c-0.0583038-2.7989044,0.1841011-5.5895691,0.1739731-8.3890381
		c-0.0107079-2.9589386-0.169838-5.9108734-0.24403-8.8662567c-0.0279579-1.113678-0.1958923-2.2247314-0.3192635-3.3348236
		c-0.0789413-0.7103882,0.2433205-1.0864868,0.9704552-1.0042877c3.3439217,0.378067,6.7068901,0.2584381,10.042141,0.0991058
		c2.5935822-0.1238861,5.1898346-0.2409515,7.7655411-0.0934143c2.0735092,0.1187286,4.1535645,0.2736664,6.20578,0.1055145
		c1.7960587-0.1471558,3.5842285-0.1898956,5.3701859-0.1431885c15.0271759,0.3929138,30.056694,0.1021423,45.08461,0.2032166
		c1.198616,0.0080719,2.3602295-0.3350525,3.5668335-0.2406769c2.6636887,0.2083282,5.3367844,0.3553314,8.0052109,0.2193604
		c5.3878021-0.2745209,10.7798309-0.3032227,16.1655121-0.1532898c3.2678528,0.0909882,6.5472107-0.0257416,9.7973175,0.2232361
		c2.4745483,0.1895294,4.9506531,0.2989197,7.3970947,0.1326752c3.9903107-0.2711334,7.9740143-0.0924683,11.9589386-0.1837921
		c0.3921051-0.0089874,0.816803,0.0372009,0.9606018-0.587204c-0.4338531-0.2438049-0.9122009-0.1326752-1.3573761-0.1330566
		c-10.7191772-0.0091858-21.4383545-0.0092773-32.157547-0.0115051c-2.599472-0.0005493-5.1990051,0.0069885-7.7984009-0.0097046
		c-0.9091492-0.0058289-1.8100128,0.0445709-2.7252655-0.189621c-1.0116577-0.2588806-2.0413666,0.1966095-3.0691528,0.1988068
		c-5.3593216,0.0114746-10.718689,0.0002747-16.0780411,0.000412c-17.2781601,0.000412-34.5563202,0.0024261-51.8344841,0.0035858
		c-5.7993965,0.0003967-11.598793,0.0016632-17.3981895-0.0015411c-1.0395699-0.0005798-1.0682411-0.0102234-1.187973-1.0220337
		c-0.2478714-2.0946503-0.4667549-4.192749-0.7113342-6.4145966c3.4300079,0,6.8206024,0.0000305,10.2111931,0
		c3.3593979-0.0000229,6.7187881-0.000145,10.0781822-0.0001755c3.3997498-0.0000229,6.7994995,0.0000458,10.1992493-0.0000229
		c3.3151932-0.0000763,6.630394,0.0003662,9.9525833-0.1492004c-0.3026123-0.4477158-0.710495-0.3322372-1.0716553-0.3325043
		c-9.5985413-0.0068359-19.1970825-0.0048294-28.7956314-0.0042191c-3.1595688,0.000206-6.3191338,0.0012589-9.4787025,0.0001221
		c-0.2795334-0.0001068-0.5610924,0.0046387-0.8380508-0.0259781c-0.3140335-0.0346985-0.3396072-0.2915268-0.336422-0.5359802
		c0.0030823-0.2362213,0.145607-0.3559875,0.3770103-0.3695221c0.159523-0.0093307,0.3197441-0.0078964,0.4790535-0.0195313
		c4.0647392-0.2968216,8.13657-0.1838608,12.2058868-0.2081528c2.1195831-0.0126572,4.2510643-0.1418381,6.3558884,0.0349655
		c2.462616,0.2068634,4.9180679,0.1292191,7.3765411,0.1677246c1.5000534,0.0235291,3.0029831,0.0546875,4.5007019-0.0093994
		c2.1089249-0.0902252,4.2222672-0.3473434,6.3250275-0.1579285c1.3154831,0.1185074,2.6013412-0.0758667,3.9009857-0.0467453
		c0.1478653,0.0033264,0.2975082-0.0721588,0.4356384-0.1082916c0.0319061-0.5148926-0.3317108-0.4085999-0.5753403-0.411232
		c-1.1597672-0.0125961-2.3199692,0.0100327-3.4796066-0.0072937c-0.9913788-0.0148163-1.9867477,0.1044006-2.9709091-0.1906891
		c-0.3675308-0.110199-0.8036346-0.0781097-1.1929855-0.0151596c-2.6208878,0.4237061-5.2587051,0.1913376-7.8863754,0.1949387
		c-8.6928062,0.0119247-17.3856583,0.0106125-26.0784798,0.0345993c-0.064743-0.1290207-0.1294899-0.2580414-0.1942329-0.3870621
		c0.0386467-0.1987534,0.1386948-0.4027557-0.0497971-0.582077c-0.0327759-0.3256378-0.0655556-0.651268-0.0983315-0.9769058
		c0.0142059-0.1304321,0.0284157-0.260849,0.0426216-0.3912811c0.7518425-0.0632324,1.4811516-0.0951614,2.2418594,0.118103
		c0.4652748,0.1304398,0.9827194,0.0902557,1.5507622-0.2357254c0.8162727-0.4684143,1.9016266-0.3082581,2.8047371-0.0938263
		c1.4204445,0.337265,2.7869568,0.2113113,4.1785927-0.0149689c0.1953163-0.0317612,0.4096832-0.0867615,0.5913849-0.0394287
		c1.3529854,0.3524094,2.7350616,0.0153732,4.0978966,0.1911011c0.5399513,0.0696259,1.1008186-0.0676422,1.6504478-0.1331024
		c0.7387962-0.0879822,1.5570679-0.3582687,2.273304,0.2654266c0.3036766,0.2644424,0.8230095,0.2345581,1.144989,0.0427399
		c1.3141556-0.7828903,2.7123489-0.2170258,4.0641098-0.3154221c0.2221756-0.0161819,0.5112152,0.1403122,0.6945801,0.4012604
		c0.2547607,0.3625259,0.7041779,0.3409805,0.9315414,0.0723648c0.5633163-0.665535,1.2882004-0.5907059,1.9872742-0.5258789
		c1.100441,0.1020355,2.1920547,0.0293198,3.290062,0.0199814c5.3974686-0.0458755,10.798317,0.0722198,16.1917267-0.0838013
		c1.7723923-0.0512695,3.4827728,0.3668137,5.2332916,0.2578506c1.3076477-0.0814056,2.6070709-0.2390747,3.9254532-0.2116623
		c2.2380829,0.0465546,4.4779358,0.0102844,6.7170334,0.0060349c2.0564423-0.003891,4.1118546,0.1703339,6.1697235,0.023201
		c0.3924255-0.0280533,0.8086319-0.0796204,1.176796,0.1254959c0.3032913,0.1689758,0.9480896-0.1537552,0.8913727,0.5031662
		c-0.0462952,0.5363541-0.071846,1.0238342-0.8580322,1.3083801c-0.8594131,0.3110352-1.6824493,0.4299088-2.5387192,0.3846741
		c-0.6427307-0.0339432-1.2051086-0.6280975-1.9465485-0.2421036c-0.2273636,0.1183701-0.3117905-0.2329636-0.4018021-0.466774
		c-0.2172928-0.5645294-0.7025375-0.6301117-0.8356781-0.0993195c-0.1988983,0.7929764-0.6908875,0.6032639-1.184082,0.6016693
		c-0.5596161-0.0018234-1.1199265-0.0132065-1.6786194,0.0106049c-0.3669281,0.0156479-0.5953751,0.2290802-0.585495,0.6144028
		c0.0088425,0.3443069,0.2915726,0.2963791,0.5224152,0.3391953c0.4508591,0.0836411,0.878067,0.3805542,1.3593063,0.0306473
		c0.133461-0.0970612,0.3910828-0.0486908,0.5880356-0.0292969c3.0101547,0.2964096,6.0177689-0.111084,9.0301132-0.0213318
		c2.9960098,0.0892563,5.9968262,0.007431,8.9953384,0.0283585c0.7482986,0.0052185,1.5041885-0.1074142,2.2491226,0.1794739
		c0.3598785,0.138588,0.8077698,0.1141586,0.9648285-0.5085068c-2.4236374-0.9295654-5.1016235,0.1272278-7.6925278-0.8784103
		c0.5456924-0.4006119,1.0962982-0.0298538,1.46875-0.4796295c-0.3398209-0.465004-0.9096527-0.0956497-1.275322-0.3533478
		c0.0885086-0.6183701,0.4327393-0.8680878,1.0671921-0.8624802c1.749115,0.0155029,3.4809418,0.1688843,5.2077713,0.4490662
		c0.7005157,0.1136551,1.4413147,0.1916351,1.9519958-0.5322113c0.298172-0.4226379,0.6423798-0.409523,0.9747467-0.0127029
		c0.253952,0.3031921,0.6412048,0.4916153,0.95784,0.3254547c0.6823883-0.358078,1.3965759-0.2338409,2.0949097-0.3364944
		c0.6538849-0.0961151,1.232605-0.2490845,1.7855377,0.2439957c0.1869812,0.1667404,0.5067291,0.1936417,0.6877136,0.0936279
		c1.1696167-0.6462936,2.3991394-0.0880814,3.5920105-0.1645203c2.8260193-0.1811066,5.6722107-0.0949631,8.5085602-0.0359497
		c0.746048,0.0155182,1.5554962-0.4539337,2.269165,0.1835403c0.0729675,0.0651703,0.3596954,0.0184937,0.4382019-0.0714493
		c0.4069977-0.4664001,0.9386139-0.3732147,1.4495697-0.3733063c10.2760773-0.0017853,20.5521698-0.0018463,30.8282623-0.0004807
		c1.1063538,0.000145,1.1063538,0.0052414,1.2080841,1.1580887c-0.0588684,1.0569382-0.0137482,2.1257019-0.3582458,3.1501389
		c-6.3939209,0.0036392-12.7878265,0.0073395-19.1817627,0.0108261c-1.4385529,0.0007782-2.8772125-0.006897-4.3155975,0.0088043
		c-0.2318878,0.0025177-0.5992279-0.1399078-0.6121368,0.3761597c0.7339935,0.2182617,1.491806,0.1023636,2.2345123,0.105072
		c7.2719879,0.0264816,14.5440674,0.0372696,21.8161011,0.0525131c0.0025024,0.1499252,0.0050201,0.2998581,0.0075378,0.4497833
		c-0.1888275,0.1773911-0.168808,0.3876877-0.0955048,0.6063538c-0.0009613,2.1464844-0.4468994,4.2505341-0.6197052,6.3821564
		c-0.1277466,1.5755005-0.0913086,3.1707153-0.4392242,4.7266846c-0.9768829,0.1713715-1.9547882,0.019104-2.9325714,0.0164337
		c-4.67659-0.0127869-9.3538666,0.0419617-14.0296783-0.0198975c-8.4615173-0.1119232-16.9251404,0.2399597-25.3867645-0.1928101
		c-2.2572021-0.1154327-4.5307007-0.0453949-6.807373,0.1361389c-2.1215363,0.1691589-4.2793121,0.1815033-6.4344101-0.1237335
		c-1.9459839-0.2756348-3.9375381,0.0675354-5.9128265-0.034256c-3.4283295-0.176651-6.8436966,0.3811188-10.2746124,0.2341309
		c-0.7183838-0.0307922-1.4393768-0.0131531-2.1588211,0.0006256c-0.2111893,0.0040283-0.4906693-0.0801697-0.5932846,0.347168
		c0.8003311,0.1300659,1.5712128,0.3926086,2.3864975,0.3631287c1.3332443-0.0482483,2.6609802-0.2973175,4.0006332-0.0081329
		c0.334877,0.0722809,0.6959991-0.0145111,1.05513-0.1067963c1.0746384-0.2761688,2.1876373-0.5444031,3.2852478-0.3008881
		c0.5966644,0.13237,1.1737823,0.179718,1.7664108,0.1778717c1.4102631-0.0043945,2.8101349,0.1874542,4.2331009,0.026413
		c2.0868607-0.2362061,4.187294,0.5205841,6.2870712-0.0011444c0.1867676-0.0464172,0.4201813-0.051239,0.5933838,0.0193176
		c0.7337646,0.2987671,1.4990997,0.137146,2.2470093,0.2068329c1.0054626,0.0936584,1.9555206-0.2887878,2.961853-0.253067
		c2.5447388,0.090332,5.1015472-0.1883545,7.6352386,0.2474213c0.7299194,0.1255341,1.3960266-0.2135925,2.1151428-0.2403259
		c3.1768799-0.1181183,6.3474579,0.2419281,9.5269165,0.0405579c2.489563-0.1576996,4.990036-0.0081177,7.483963,0.0025482
		c1.4200287,0.0060577,2.8298798,0.1250153,4.2641907,0.0151825c1.7888489-0.1369934,3.5955048-0.043045,5.3944702-0.0453796
		c1.7190552-0.0022125,3.4425201-0.0753479,5.1557159,0.0248718c1.2909393,0.075531,2.5687408,0.3758698,3.8278809,0.0421906
		c0.3315277,0.4365997-0.0329285,0.9349823,0.2734833,1.3078156c-0.0610352,2.360321-0.1221008,4.7206268-0.183136,7.0809479
		c-0.1292877,0.5701904-0.5110626,0.6789398-1.0467987,0.6580658c-3.4618835-0.1348724-6.935257,0.208786-10.3898468-0.2479706
		c-1.1217194-0.1482849-2.1972046,0.2602234-3.318985,0.2410889c-3.0749512-0.0524597-6.1513672-0.0275421-9.2270813-0.0105743
		c-0.3750916,0.0020752-0.8526154-0.1878815-1.130127,0.2720184c0.1490631,0.1988068,0.3060608,0.2085266,0.4641876,0.2136383
		c2.5168457,0.0814209,5.0337372,0.1603088,7.5504608,0.2449341c1.2353516,0.0415497,2.4591522-0.1717834,3.6821899-0.2055969
		c3.1412506-0.086853,6.2918091-0.119278,9.4282227,0.036438c1.3070831,0.0648804,2.5914154,0.1605835,3.888031-0.0194855
		c0.0144348,0.1553955,0.0288849,0.310791,0.0433197,0.4661865c-0.2069702,0.2434692-0.1100159,0.5351715-0.1186981,0.806015
		c-0.0345001,1.0781097-0.0297699,1.0760345-1.1467285,1.0733032c-2.4785309-0.0060425-4.957077-0.013092-7.4356079-0.0134735
		c-4.9970551-0.0007629-9.9941101-0.0011597-14.9911194,0.0138397c-0.297821,0.0009003-0.7216034-0.1886749-0.9377594,0.4306183
		c1.4049683,0.1115265,2.7592316-0.0300598,4.0722046,0.2806702c0.2645264,0.0626068,0.5585022,0.0194855,0.8367767-0.0022278
		c0.1544952-0.0120239,0.3096161-0.0679321,0.4555206-0.1263885c0.2733765-0.1094055,0.5369568-0.0988159,0.8140259-0.0075684
		c0.9359894,0.3082428,1.9080963,0.1730499,2.8501129,0.1169128c0.8804932-0.0524902,1.816925,0.6819153,2.6682434-0.1781006
		c0.1334381-0.1347809,0.5745087-0.0819092,0.8097839,0.0245972c0.542511,0.2456512,1.0966949,0.1739349,1.6490936,0.1790314
		c1.1992798,0.0110931,2.3988342-0.0053864,3.5980377,0.0089722c0.3456879,0.0041351,0.6999969-0.0847321,1.0270233,0.1838531
		c0.6983185,0.5735931,1.7273865,0.5241394,2.2624054,0.2020111c0.9744415-0.5866852,1.9160767-0.2381592,2.8522186-0.3961334
		c0.3845673-0.0649109,0.578064,0.1717377,0.7917023,0.4037476c0.1122894,1.1409302,0.2245941,2.2818604,0.3368835,3.4227905
		c-1.5388336-0.0285645-3.0765686,0.0493622-4.6170807,0.0218201c-0.9179993-0.0164185-1.7862396-0.2851868-2.7126465-0.2660828
		c-3.1552124,0.065094-6.3096008,0.0660553-9.4654694,0.2162018c-1.5444336,0.0734863-3.1031952,0.133606-4.6839905-0.127594
		c-1.2907715-0.2132721-2.6912231-0.2718658-4.0300293,0.1270447c-0.3651123,0.1087799-0.8330078,0.115509-1.1821442-0.0180664
		c-0.631485-0.2415924-1.2795868-0.2492371-1.8864288-0.1500397c-1.2254791,0.2003632-2.4263,0.0531311-3.640976-0.012207
		c-0.8305664-0.0446777-1.6222229-0.3774567-2.4737854-0.2603149c-0.6235352,0.0857697-1.2201691,0.2792206-1.8733673,0.2650909
		c-2.1164703-0.0458679-4.2363434,0.0354004-6.3514252-0.0357819c-1.3612213-0.0458069-2.6838379,0.3170776-4.0393982,0.2419586
		c-0.2691803-0.0148773-0.6157684-0.0108948-0.5989227,0.3956451c0.0167542,0.4041443,0.365097,0.3678284,0.6310577,0.3527527
		c1.5155792-0.0859222,3.0016327,0.2599487,4.5200195,0.259201c2.1775665-0.0010834,4.3506317-0.2391205,6.53479-0.0458679
		c1.5623932,0.1382294,3.1374969-0.0621796,4.7118225-0.0022125c1.929657,0.0734863,3.8643036,0.0101166,5.7967072,0.0198669
		c1.5712433,0.0079346,3.1314697-0.1524811,4.7172089-0.0651398c1.2336273,0.0679474,2.4990082,0.0395508,3.751358,0.0507813
		c4.0728912,0.0365601,8.1462555,0.0196838,12.2194214,0.0274811c0.3551331,0.0006866,0.7066803,0.0631104,1.058197,0.1055603
		c1.2543182,0.151535,2.5233307,0.3129578,3.7687836-0.0967712c0.1520081,1.2336731,0.0311127,2.4609833-0.0661926,3.69133
		c-0.1789246,2.2623444-0.4920197,4.528717-0.326004,6.7966309
		C183.0139618,170.2193298,182.2824249,174.6143494,182.3953705,179.0309753z M156.6656494,150.1605225
		c0.0001526-0.1139221,0.0003204-0.227829,0.0004578-0.3417358c-1.5960541-0.0983124-3.2137146-0.4019623-4.7820892-0.2370148
		c-1.5574036,0.1638336-3.1007996,0.1451416-4.6472626,0.1579132c-4.4370575,0.0366669-8.8746948,0.0014954-13.3120575,0.0105896
		c-0.3861084,0.0007935-0.8454742-0.1538849-1.3535919,0.4381104c1.7406769-0.0219269,3.2338867,0.5118103,4.7621002,0.2352295
		c0.5978699-0.1082153,1.1880951-0.0852356,1.7744598-0.1695557c1.0861053-0.156189,2.1182404,0.2602386,3.1960907,0.2383881
		c2.1348419-0.0433044,4.2711639-0.0127716,6.4068756-0.0127869c1.6391296,0,3.2794647,0.0376129,4.9169769-0.0138245
		C154.6424713,150.43396,155.6531067,150.2669067,156.6656494,150.1605225z M100.1776657,124.7065506
		c-0.0021515,0.0399323-0.0083618,0.0802002-0.0052338,0.1197052c0.0027695,0.0351257,0.0069962,0.0761566,0.0267792,0.1023331
		c0.0228882,0.0302811,0.0605698,0.0562057,0.0970154,0.0679855c0.0745544,0.0240784,0.1525497,0.0528793,0.2291565,0.0529633
		c8.9156647,0.0092926,17.8313217,0.0166473,26.7469864,0.0209351c0.3160248,0.0001602,0.6399155,0.0431976,0.9429016-0.0956955
		c0.0359039-0.0164795,0.0771027-0.0361404,0.0987549-0.0665054c0.092804-0.1302414-0.1426544-0.051651,0.0027924-0.1183167
		C127.5209351,124.4993439,101.5027466,124.4222183,100.1776657,124.7065506z M115.0252151,147.0753632
		c0.7807312,0.3623352,1.5637054,0.3690643,2.3277054,0.1709747c0.439415-0.1139374,0.8814316-0.190155,1.289299-0.0561829
		c0.8763657,0.2878723,1.8087463,0.3317108,2.6813049,0.3630371c3.1889191,0.1144867,6.3844299,0.0465393,9.577446,0.0429688
		c0.2709808-0.0003204,0.6148682,0.0415344,0.5967102-0.3802338c-0.0179291-0.4164276-0.3630829-0.3373566-0.628891-0.3401947
		c-2.8635101-0.0306702-5.7266006,0.0386047-8.5884323-0.2145538c-1.4133759-0.1250305-2.847023-0.0147095-4.2714081-0.0237274
		C116.9946289,146.6310272,116.0355301,146.980545,115.0252151,147.0753632z M111.5480194,147.2326202
		c-1.6218262-0.542984-13.750885-0.4514923-14.6043777-0.0529633c0.4180374,0.3168488,0.8583908,0.196106,1.2592545,0.1994934
		c1.9516144,0.0164642,3.9218903-0.1510773,5.8499908,0.0645752c1.9920731,0.2227631,3.9674301,0.0843353,5.9485931,0.1299133
		C110.5141068,147.585434,111.0323563,147.3529205,111.5480194,147.2326202z M146.2224121,124.7186508
		c0.3119659,0.4324341,0.6823425,0.3240509,1.0268555,0.3264389c1.7128906,0.0118027,3.4269714-0.0308228,5.1385345,0.0183563
		c1.3007813,0.0373535,2.6026154-0.1602859,3.9103241,0.1656723c0.5810089,0.1448135,1.2388611-0.1300659,1.8035736-0.5093994
		C154.1318359,124.5437775,150.1777191,124.553093,146.2224121,124.7186508z M134.8385925,146.8872681
		c0.0000153-0.0054626,0.0000153-0.0109253,0.0000153-0.0163879c-0.6356354,0-1.2718964-0.0160522-1.906601,0.0082397
		c-0.2391052,0.0091553-0.6399994-0.1234131-0.6203918,0.3146515c0.0102081,0.227417,0.2562408,0.3942871,0.5263214,0.3948059
		c1.3507233,0.002655,2.7014465,0.0026855,4.0521545-0.001358c0.228302-0.0006714,0.3742218-0.1186371,0.3675537-0.360611
		c-0.0068054-0.2464447-0.1748199-0.3361053-0.3930054-0.3376007
		C136.1893158,146.8842773,135.5139465,146.8872681,134.8385925,146.8872681z M107.4364853,137.4659882
		c-1.7043686-0.1962891-3.4098511-0.2592773-5.1150665-0.041687
		C103.2992172,137.9106445,105.6124496,137.9614868,107.4364853,137.4659882z M152.7139587,146.8934326
		c-0.0040741,0.139801-0.0081635,0.2795868-0.0122528,0.4193726c1.2680359,0.1387482,2.5771332-0.0984802,3.8221588,0.2723999
		c0.1933136,0.0575867,0.3975067-0.0481567,0.416153-0.3066406c0.0171661-0.2381287-0.1008606-0.3820038-0.3408508-0.3828888
		C155.3041382,146.8909302,154.0090332,146.8934326,152.7139587,146.8934326z M150.1707916,147.1734314
		c-1.337738-0.4332581-3.8091278-0.3519897-4.6885681,0.1453552
		C147.2290344,147.3835144,148.7005157,147.4118652,150.1707916,147.1734314z M141.0647125,147.4758606
		c-0.4167633-0.8059387-0.8860779-1.0512085-1.3808899-0.705658c-0.1875458,0.1309814-0.3718414,0.4956818-0.0563354,0.5128326
		C140.1119995,147.3093872,140.5403595,147.8123474,141.0647125,147.4758606z M176.2341614,146.4245453
		c0.7631073,0.2227631,1.5269012,0.3562012,2.2615356-0.0443726
		C177.7374268,146.0862732,176.9840546,146.0814362,176.2341614,146.4245453z M141.3747101,147.1095581
		c0.2117767,0.3132477,0.504425,0.475296,0.8549805,0.4747772c0.2790833-0.000412,0.719101,0.1691132,0.77771-0.2638092
		c0.0754852-0.5576324-0.4219208-0.4292297-0.7349091-0.4364166
		C141.9880981,146.8776093,141.6598511,146.770813,141.3747101,147.1095581z M120.5516815,145.7015381
		c0.6062469,0.2386169,1.209877,0.3561554,1.9935684-0.0716705
		C121.7230225,145.3655548,121.133316,145.3651123,120.5516815,145.7015381z M137.4377441,124.7871017
		c-0.5931244-0.206871-1.191452-0.4070053-1.9343414,0.0891342
		C136.2637329,125.1276321,136.8506775,125.103302,137.4377441,124.7871017z M178.0161285,145.6600037
		c-0.6105042-0.2511444-1.216156-0.3450317-2.0294647,0.0671692
		C176.8330536,145.9876251,177.4276733,146.0046997,178.0161285,145.6600037z M88.151329,147.140625
		c0.5264435,0.2282104,1.0532455,0.3629608,1.5350723-0.0807648C89.1690979,146.885849,88.6568985,146.7838593,88.151329,147.140625
		z M150.7426453,147.0201111c0.2042999,0.4702301,0.6551361,0.4584656,1.0403442,0.5098877
		c0.0894775,0.0119324,0.2661133-0.1898193,0.3041229-0.32164c0.0821228-0.2846375-0.155365-0.3193665-0.3550568-0.3206635
		C151.4190369,146.8856812,151.0945282,146.8095398,150.7426453,147.0201111z M140.4875031,169.9274139
		c-0.4744568-0.294754-0.9440002-0.3092041-1.6523285-0.0176086
		C139.5439453,170.2054138,140.0139923,170.1500397,140.4875031,169.9274139z M182.8520508,133.0947571
		c-0.621933-0.5135498-0.9152374-0.5188141-1.6315918-0.0225372
		C181.7822571,133.2785339,182.2970123,133.2560425,182.8520508,133.0947571z M162.7908478,145.7027283
		c0.5288849,0.225769,1.0582886,0.3606262,1.7461548-0.0644531
		C163.8123932,145.3721771,163.2988281,145.3592529,162.7908478,145.7027283z M156.7378387,145.9160004
		c0.1789246-0.0062561,0.3676605-0.0057068,0.3902435-0.1900177c0.0345764-0.2819672-0.2051392-0.2800293-0.3892059-0.2773132
		c-0.1763458,0.002594-0.4369659-0.0387421-0.4213257,0.2449188
		C156.332428,145.9629059,156.5879364,145.8917999,156.7378387,145.9160004z M94.010025,147.1610565
		c0.0158234-0.2196503-0.1397018-0.2509918-0.2916718-0.2674561c-0.1909714-0.0207062-0.4220657-0.0463867-0.5228195,0.1369019
		c-0.0773849,0.1407928,0.0316315,0.2971497,0.2217178,0.304245
		C93.6312714,147.3427429,93.8813553,147.4410553,94.010025,147.1610565z M109.168045,145.6146088
		c0.0247803-0.0743713-0.1095352-0.111908-0.2152939-0.1462402c-0.1617813-0.0525055-0.3531342-0.0211792-0.4145889,0.1266479
		c-0.0658264,0.158371,0.0395126,0.2973175,0.2391357,0.3061066
		C108.9361725,145.9081268,109.0933533,145.9079437,109.168045,145.6146088z M110.8107452,121.7796402
		c0.0566483-0.2080383-0.0360413-0.2740784-0.1593857-0.2809601c-0.0618744-0.0034637-0.1617966,0.0447845-0.1843338,0.0960922
		c-0.0485535,0.1104889-0.0068588,0.2321014,0.1101532,0.2756577
		C110.6988983,121.9157333,110.7872238,121.8415985,110.8107452,121.7796402z M180.4475555,132.9642792
		c-0.0556641-0.1832275-0.1680298-0.2311707-0.2767334-0.1912537c-0.117157,0.0429993-0.1496735,0.1722565-0.0916901,0.2808228
		c0.0272369,0.0509644,0.1252594,0.0964203,0.1859283,0.0904846
		C180.3901978,133.1320496,180.4600983,133.0462494,180.4475555,132.9642792z"></path>
	<path d="M42.680912,237.3881073c0-0.5913544,0-1.182724,0-1.8793488
		c0.8367004,0.1424103,1.5470085,0.237854,2.2862244-0.0143433c0.4593849-0.156723,1.0156822-0.079422,1.5357056,0.0376434
		c1.0762901,0.2423248,2.2191467-0.1233368,3.284481,0.3723907c0.375782,0.1748962,0.7435036-0.2015228,1.1483307-0.2323608
		c1.1357765-0.0864868,2.2468414-0.3807373,3.4098625-0.0217743c0.4972954,0.1535187,1.1001701,0.1185303,1.6498566-0.0940704
		c0.4937859-0.1909637,1.0319939-0.192276,1.5222702-0.0054321c0.5130768,0.1955414,1.0279961,0.129425,1.5392151,0.1183624
		c0.6114044-0.0132751,1.2329941-0.2913208,1.8028526,0.1877289c0.0901527,0.0758057,0.3653946,0.0743408,0.445919-0.00383
		c0.6777649-0.6580505,1.5150757-0.3745117,2.2847633-0.3930817c1.5585632-0.0376129,3.118988-0.0299683,4.6780548-0.0048218
		c1.1492996,0.0185394,2.3055801-0.1206055,3.4461594,0.2042389c0.3700409,0.1053925,0.80896,0.0848694,1.1925735,0.0060425
		c1.4599762-0.299881,2.8966904-0.1366119,4.3672409-0.0298615c2.6139145,0.1898041,5.2395554-0.0031891,7.8391266-0.3939362
		c0.6167297-0.0927124,1.1825714,0.1526337,1.7485504,0.2681885c1.0375595,0.2118225,2.0339203,0.2492065,3.0584717,0.0037537
		c0.3046036-0.0729523,0.6339111-0.0578461,0.9518967-0.0577393c5.397438,0.0016785,10.7949753,0.0243073,16.1922073-0.0067444
		c0.7777786-0.0044708,1.2035446,0.2565765,1.3943176,0.9699097c0.0400543,0.149826-0.0000763,0.353363,0.1606903,0.4242859
		c0.3968964,0.1750946,0.4465256,0.5197601,0.2435532,0.7781677c-0.3034592,0.3863831-0.5090866-0.0358734-0.7636185-0.1867218
		c-0.2782669-0.1648865-0.6929855-0.1933746-0.9184189-0.0158386c-0.7504196,0.5910187-1.6043243,0.3774719-2.4182281,0.3913879
		c-0.6504822,0.0111389-1.30336-0.1608887-1.9549942-0.1596375c-0.5596085,0.0010681-0.8040924-0.3457031-1.0300674-0.897583
		c-0.4595566,0.9137115-1.0107498,1.1876984-1.8814163,0.897522c-0.6519089-0.2172852-1.3237991-0.0297394-2.0057373,0.397644
		c0.5054474,0.4455872,1.062767,0.4757843,1.6411285,0.5222473c0.7522278,0.0604095,1.588913-0.3078461,2.2371368,0.4169769
		c0.0801926,0.0896912,0.4801559,0.0636444,0.5510941-0.0366516c0.4141922-0.5856171,1.0070419-0.378952,1.5323105-0.3813019
		c3.3587494-0.0150604,6.717598-0.0083313,10.076416-0.0067902c1.902626,0.0008698,3.8056412,0.0283813,5.7076721-0.0041351
		c0.6491013-0.0110931,1.2557373,0.1652222,1.8842621,0.2315369c0.2174759,0.0229492,0.5110245,0.0802002,0.597084-0.2338257
		c0.1091537-0.3982849-0.1877518-0.4165955-0.4682541-0.5128021c-0.3439255-0.1179352-0.6354065-0.2753754-1.0132599-0.0595703
		c-0.1891403,0.1080322-0.4649124,0.0914917-0.700592,0.0867004c-1.9531403-0.0397034-3.90728-0.078125-5.9081497-0.5625
		c0.4189682-0.7266388,1.1736679-0.1110535,1.6298218-0.5655365c-0.2838669-0.5952759-0.9690094-0.0860901-1.3838882-0.5153503
		c0.3379669-0.5876312,0.6543503-0.9739838,1.531723-0.8668365c1.8570099,0.2267456,3.7362366,0.2723083,5.6065292,0.3891602
		c0.4491882,0.0280609,0.885582,0.0009155,1.201973-0.3875885c0.3870163-0.4752045,0.8080139-0.4110413,1.2612839-0.0973206
		c0.429039,0.2969513,0.8432083,0.1666565,1.3395233,0.0884857c1.1460342-0.180481,2.3354187-0.6083679,3.492157,0.0312347
		c0.3309326,0.1829834,0.6860504,0.1605682,1.0459442,0.0475311c0.6008911-0.1886749,1.1744385-0.3887329,1.8071442,0.0463257
		c0.1825104,0.1255035,0.6658325-0.0519714,0.9986725-0.0910187c3.5041199-0.4111328,7.0139465-0.0692291,10.5184479-0.1301727
		c4.9284973-0.0857239,9.8599701,0.0083923,14.7901611,0.0092468c7.1164398,0.001236,14.2328796-0.0143127,21.3493195-0.0180206
		c2.0792542-0.0010681,4.1585083,0.0137634,6.2377625,0.0213165c0.1652679,1.5463715-0.0325623,3.059021-0.4232635,4.5537109
		c-0.1991272-0.0138092-0.3981171-0.0368652-0.5974121-0.0401154c-7.7800293-0.1270905-15.5633392,0.2149353-23.342514-0.2055206
		c-2.1116028-0.1141205-4.2346039-0.0215149-6.3523407-0.0123749c-0.2887726,0.0012207-0.6222534-0.0934448-0.8964691,0.2047424
		c0.4497223,0.6345062,1.0716553,0.5062103,1.6407471,0.5068054c9.8293304,0.0101166,19.6586609,0.0150909,29.4879913,0.0212097
		c-0.4067535,2.2442474,0.2271118,4.4044037,0.5264435,6.5922394c0.0370026,0.2705383,0.0073242,0.5502014,0.0085602,0.8256226
		c-1.5575104-0.1355896-3.1130524,0.2576141-4.6722717,0.0172577c-0.1909943-0.0294495-0.3963318-0.0071869-0.5888519,0.0264587
		c-0.1770477,0.030899-0.2619629,0.1806335-0.2256012,0.3503265c0.0216522,0.1010132,0.1044312,0.2529755,0.1804657,0.2666321
		c0.2687073,0.0482788,0.5462799,0.0602264,0.8206024,0.0618439c1.5044403,0.0088501,3.0089111,0.0105133,4.513382,0.0146484
		c0.0598145,0.060318,0.0768127,0.1309204,0.0509949,0.2118683c-0.0119629,0.9966888-0.0614319,1.9947662-0.023056,2.9895172
		c0.026947,0.6989136-0.2468719,0.8736115-0.9082489,0.8600464c-1.7578125-0.0360107-3.5171814,0.012146-5.2756653-0.0031433
		c-1.0743713-0.0093079-2.1730042,0.2621155-3.1881714,0.1672363c-1.165329-0.108963-2.3302612-0.0549164-3.4859772-0.1142426
		c-2.7511749-0.1412048-5.516983-0.1325684-8.2715302-0.0342712c-2.7629547,0.0985565-5.5313721-0.3540192-8.2865906,0.1115265
		c-0.0349579,0.0059204-0.0733948-0.0130005-0.1103058-0.0136108c-3.6436005-0.0590057-7.2828064-0.1957397-10.9319153-0.1437683
		c-7.4272614,0.1057587-14.8570099,0.0356903-22.2857208,0.0383606c-0.2393799,0.0000763-0.4739456,0.0019531-0.7001724,0.1165009
		c-0.4155197,0.2104187-0.8922348,0.2016602-1.288414,0.0659485c-0.7471771-0.2559357-1.4977875-0.1934967-2.2501144-0.1940308
		c-4.2520447-0.0030518-8.5045013,0.0387878-12.7558441-0.0133514c-1.1334686-0.0138855-2.2339096,0.4217834-3.4099426,0.0820313
		c-0.4045105-0.1168671-1.1083145,0.0399017-1.7092743,0.4649353c0.5104828,0.2616272,0.9077759,0.2096558,1.2850266,0.197525
		c2.3058777-0.074295,4.6078949,0.082901,6.9222641-0.1853943c2.1897278-0.2538605,4.4175644,0.0278931,6.6304703,0.0023651
		c0.7717209-0.0088654,1.5656967,0.1873627,2.3633118,0.1872101c15.9096985-0.0031891,31.8195038,0.0330811,47.7290039-0.0227661
		c3.5329895-0.0123901,7.0595093,0.2799988,10.5987091,0.0575714c2.4853058-0.1561432,4.9837646-0.0473938,7.4768219-0.2359314
		c1.7907562-0.1354065,1.7982941-0.0358276,1.811203,1.8022614c0.0114746,1.6364594,0.0112915,1.634964-1.5079651,1.8131866
		c-0.0469208,0.0054932-0.0817871,0.1139526-0.1632385,0.2356262c0.3100586,0.2075195,0.5503845,0.554657,1.0107574,0.2743835
		c0.2636261-0.1605225,0.5485992-0.0289001,0.8224792-0.0522156c0.1439056,1.4986267,0.33638,2.993866,0.3089752,4.5042419
		c-2.5297699,0.1055908-5.0742035-0.1267395-7.5977478,0.1226196c0.0006256,0.1151733,0.0012665,0.2303772,0.0018921,0.3455811
		c1.9304962,0,3.8609924,0,5.7914886,0c-0.813446,0.3526001-1.6397247,0.2524719-2.4586945,0.2626343
		c-1.5194244,0.0188904-3.0750885-0.1834106-4.5471802,0.0838013c-1.147049,0.2081909-2.2513428-0.0289001-3.3683929,0.0384216
		c-1.0657654,0.0643311-2.232132-0.0430908-3.3394775-0.076416c-3.756073-0.1130371-7.517807-0.0598755-11.2770538-0.0291138
		c-0.9673309,0.0079651-1.9649658,0.1494751-2.901947,0.0757751c-1.4780426-0.116272-2.9455719-0.0130005-4.4154053-0.0765381
		c-0.2015228-0.0086975-0.4052887,0.0368347-0.3643799,0.3443604c1.4143066,0.4789429,2.9004822,0.177124,4.3485718,0.3468933
		c1.2185669,0.1428833,2.4547119,0.0850525,3.6821899,0.1721497c0.9356384,0.0664368,1.9598541-0.1412964,2.9487-0.146698
		c2.2396393-0.012207,4.5122681-0.2398376,6.7085876,0.0683594c1.743927,0.2446899,3.4548645,0.0248413,5.1594543,0.0502625
		c1.6419678,0.0245361,3.3312531-0.0310974,4.9966888-0.1217041c0.637085-0.0346375,1.3272095,0.1170044,1.9034882-0.0793457
		c1.1369019-0.3874207,2.2264709,0.0529175,3.336319,0.0169067c0.5179443-0.0167847,1.0088501,0.0430908,1.4793091-0.2125244
		c0.0506592,0.0487976,0.0668488,0.1071167,0.0485535,0.1750488c-0.1156158,0.2738342-0.1865692,0.5436401,0.0705719,0.7839355
		c0.0627747,0.4848633,0.1275787,0.969635,0.055603,1.4596252c-3.1397095,0.131958-6.2873077-0.2024536-9.4252472,0.2367859
		c-1.6743469,0.234314-3.3722076-0.2405396-5.060257,0.0131531c-0.1160889,0.0174255-0.2560425,0.0278015-0.3554535-0.0198975
		c-0.6820374-0.327179-1.4084167-0.2287598-2.1160736-0.2085876c-2.1031647,0.0600281-4.2032623-0.1003418-6.3135986,0.1918335
		c-1.4893494,0.2062073-3.0314789,0.0766602-4.547821,0.0278625c-1.2115784-0.0389709-2.4741058,0.2869568-3.6167297-0.4310913
		c-0.1389771-0.0873413-0.4067688-0.051178-0.581955,0.0148926c-0.7016449,0.2647095-1.3741302,0.6159668-2.1550598,0.2197266
		c-0.19104-0.0969543-0.3706818,0.0725708-0.3776245,0.3229065c-0.0050201,0.1807861,0.0738831,0.3115845,0.2545013,0.341156
		c0.1564026,0.0256042,0.3227539,0.0448303,0.4771881,0.0199585c1.8488922-0.2974548,3.6937561,0.5768127,5.5466309,0.0158691
		c0.2184906-0.0661926,0.4709015-0.0117188,0.6916809,0.120575c0.2914429,0.1746521,0.6455841,0.1723328,0.934021,0.0907288
		c1.4521637-0.4106445,2.9295654-0.1855469,4.393631-0.2124939c2.1562958-0.0397034,4.3139038-0.018158,6.4707947-0.0013733
		c0.3052979,0.0023804,0.862854-0.2468872,0.7126923,0.488739c-0.0283508,0.138916,0.1259308,0.206665,0.2379456,0.206543
		c0.6800232-0.0008545,1.3735962,0.1044922,2.2273865-0.12146c-0.6056519-0.5642395-1.2463684-0.1291504-1.7044525-0.5023193
		c3.5264587,0,7.0183563,0,10.5102386,0c-1.2396393,0.3478394-2.5644531-0.1243591-3.7792358,0.3486023
		c0.0059662,0.1098938,0.0119171,0.2197571,0.017868,0.3296509c2.5735626,0,5.1471252,0,7.7207031,0
		c0.0374756,0.6320496,0.0749664,1.2641296,0.1124573,1.8961792c-0.2359161,0.3585815,0.2856903,1.130188-0.4757538,1.1459656
		c-1.228653,0.0255432-2.458786,0.1069336-3.6964874-0.0852356c-1.3706055-0.2128906-2.8097229-0.3814087-4.1092377,0.2043152
		c-0.8440399,0.3804016-1.5746002,0.2793579-2.3450623,0.0195313c-0.3559265-0.1199951-0.5982513-0.0739746-0.8650055,0.1616821
		c-0.3439484,0.3039246-0.7158356,0.3600769-1.0337677-0.0382385c-0.2822876-0.3536682-0.6946869-0.2835388-0.9914093-0.1974792
		c-0.7998047,0.2318726-1.5525208-0.0171204-2.3064423-0.13974c-0.3299561-0.0536804-0.601593-0.1391907-0.8916931,0.0584106
		c-0.4953156,0.3374023-1.0890961,0.183075-1.6129761,0.3164673c-1.4172974,0.3609009-2.777298-0.808075-4.1848145-0.1023254
		c-1.9509735-0.3179321-3.890152,0.2338562-5.8392639,0.0809021c-0.1583252-0.0124512-0.3274994-0.0198669-0.4777374,0.0211487
		c-0.5916748,0.1617126-1.2331543,0.8069763-1.6834869-0.2141418c-0.0240021-0.0544128-0.2238159-0.0401306-0.3421478-0.0427246
		c-1.4495544-0.032196-2.8899994,0.1423645-4.3516998,0.0840454c-0.9043121-0.0360718-1.8879852,0.1612244-2.83461,0.1398926
		c-1.5871582-0.0357971-3.1871185,0.180603-4.7601776-0.2206116c-0.8890991-0.2267761-1.7686005,0.5119019-2.4992065,0.3201294
		c-0.8679352-0.2278137-1.7307739-0.461731-2.5562286-0.2861023c-1.1547241,0.245697-2.2939301,0.1904297-3.4427185,0.1965332
		c-1.9992523,0.0105591-3.9986115-0.0008545-5.9979248,0.0020447c-0.2325439,0.0003357-0.5114746-0.0256958-0.557663,0.3014526
		c-0.0381927,0.2705994-0.1271973,0.5836182,0.1002808,0.7959595c0.1817932,0.1696472,0.4475403,0.1185303,0.6800995,0.0497437
		c0.2849731-0.0842896,0.4088287-0.497345,0.8241119-0.345459c0.7327423,0.2681274,1.4518433,0.1565247,2.2082672-0.0286865
		c0.6025848-0.147522,1.2865906-0.1174316,1.9066925-0.0083313c1.6204224,0.2850952,3.2180023,0.3122559,4.8399658-0.0011597
		c0.4924011-0.0951538,1.0635986-0.2456055,1.5366974,0.3061829c0.2457275,0.2866211,0.7788849,0.2458496,1.0988007-0.0433655
		c0.5647736-0.5105591,1.2385559-0.3870239,1.8182373-0.2468262c0.6365051,0.1538696,1.2557983,0.1765442,1.8891296,0.178894
		c1.7409821,0.0066223,3.4820099,0.0050049,5.2230225,0.0012512c0.9512024-0.0020752,1.8969421,0.0382385,2.8388977-0.224823
		c1.482193-0.4140015,2.9149323,0.8747253,4.424942,0.1830139c0.0270233-0.0123596,0.0764618,0.016571,0.1125031,0.0327759
		c0.7261963,0.3267822,1.4409943,0.2184753,2.1868286,0.027832c0.427948-0.109375,1.062912-0.6826477,1.2780762,0.3338013
		c0.0456543,0.2157288,0.5409851,0.199585,0.6392212,0.0671387c0.4861145-0.6555786,1.1642151-0.431366,1.7544861-0.4013977
		c1.5332642,0.0778198,3.0592499,0.4420776,4.5962524-0.0055847c0.2117615-0.061676,0.482132-0.0062256,0.7036438,0.0638123
		c1.0588837,0.3347168,2.1961365,0.3358154,3.1903534,0.0807495c0.9417572-0.2415771,1.8022614-0.057251,2.6042023,0.1106873
		c1.134613,0.2376099,2.1877441,0.2055969,3.2627563-0.0804443c0.2758331-0.0734558,0.486496-0.0808716,0.7740021-0.0313721
		c0.7548828,0.1299744,1.5455017-0.0260315,2.2880859,0.3086853c0.1955719,0.0881348,0.5150909,0.0780029,0.6818695-0.1094971
		c0.4139404-0.4654236,0.9459381-0.3463135,1.4530029-0.3518372c1.0395355-0.0113831,2.0792084-0.0088501,3.1188354-0.0120544
		c0.2545776,1.4083557,0.472229,2.8114014,0.5413513,4.2540588c0.0722656,1.5083313,0.222702,3.0171204,0.2552795,4.5304871
		c0.0467834,2.1728821-0.2686005,2.6053467-2.3243713,3.3155823c-1.8271027,0.6311951-3.7422638,0.8035278-5.6368713,1.0348816
		c-6.7502289,0.8241882-13.5271606,1.2290649-20.3301392,1.3007202c-5.1963196,0.054718-10.393692,0.1390991-15.5886383,0.2616577
		c-5.712677,0.1347961-11.4267426,0.2845459-17.1364212,0.4897156c-4.7982407,0.1723633-9.5923386,0.1437073-14.3884277,0.1714783
		c-3.277626,0.0189819-6.5474472-0.2129822-9.8175507-0.4095764c-0.518631-0.031189-1.0382156-0.0544739-1.557663-0.0626526
		c-6.6747055-0.1050415-13.3487091-0.2442627-20.0239944-0.3278503c-4.5561066-0.0570374-9.1146698-0.0819702-13.6694412-0.2229919
		c-6.0728607-0.1880188-12.1395836-0.5026245-18.1576004-1.4060669c-2.2065239-0.3312378-4.4203033-0.6506348-6.5317078-1.4213257
		c-1.8002434-0.657196-2.1215363-1.1003113-2.1183205-2.9844055c0.001503-0.8783569,0.0531273-1.7579956,0.1159058-2.634613
		c0.5359535-7.4844666,1.0794792-14.9683533,1.6224976-22.4522552c0.0115242-0.1586761,0.0441017-0.3158875,0.0668564-0.4737549
		c0.2907562-0.2496796,0.1870804-0.5939484,0.1945267-0.8990173c0.0273361-1.1194916,0.0415497-2.239624,0.0401115-3.3594971
		c-0.0017624-1.377655-0.0988159-1.2460785,1.1949692-1.2481384c2.9861908-0.0046539,5.9724312,0.005249,8.9585762-0.008255
		c13.4297676-0.06073,26.8612633,0.1893768,40.2889366-0.2143707c1.1228714-0.0337219,2.2482986-0.0048828,3.3171463,0.2752533
		c1.0783997,0.2826233,2.1623459,0.265274,3.1987381,0.1223145c0.915184-0.1262512,1.8166199-0.1635437,2.7262497-0.1706543
		c2.2398529-0.0175476,4.4799423-0.0108185,6.7199173-0.0054779c0.4735947,0.0011139,0.9422226,0.09198,1.4082718,0.147995
		c1.2194443,0.1465454,2.4536209,0.1348267,3.6907196-0.0144348c1.532135-0.1848297,3.0909271-0.4189758,4.6158905-0.3124237
		c1.3620148,0.0951538,2.7154617,0.1668396,4.0821686,0.197876c4.7121277,0.1069336,9.4136734-0.2390137,14.1222-0.2463837
		c1.8718567-0.0029297,3.7254791,0.3816986,5.6026001,0.2268372c0.3638-0.0300598,0.8121185-0.0165253,0.7661591-0.5040283
		c-0.0332947-0.3529358-0.4511108-0.1904297-0.7037506-0.2154388c-0.2376862-0.0235291-0.4794922-0.0053406-0.7194977-0.0053406
		c-7.0797577-0.0000305-14.1595612,0.0131226-21.2392426-0.0107727c-1.4655914-0.0049591-2.9468307,0.2022247-4.3992691-0.2151947
		c-0.2576065-0.0740356-0.5889587-0.0843964-0.8303604,0.0135345c-0.7747726,0.3144226-1.5728302,0.2017975-2.3625488,0.2077179
		c-1.9198837,0.0144196-3.8399658,0.0001221-5.7599335,0.0059814c-1.9302521,0.0058899-3.8562469-0.0903473-5.7916183-0.0316162
		c-3.5167389,0.1067963-7.0394363-0.0020447-10.5589294,0.0394592c-3.4904175,0.0411682-6.9794769-0.0438843-10.4699631-0.0288544
		c-11.9596558,0.0514832-23.9196815,0.0197144-35.8795662,0.0197144c-1.9341087,0-1.9341087,0-2.0035248-1.8962402
		c0.1026192-1.8560944,0.4612274-3.6789856,0.7160988-5.5153198c0.4793892-0.0089569,0.9587746-0.0256348,1.4381599-0.0257416
		c10.3122635-0.0020294,20.6245308-0.0019989,30.9367867-0.0037842c0.3193588-0.000061,0.6398773-0.0015869,0.9576035-0.0287476
		c0.176651-0.0150757,0.2722015-0.1583099,0.2747345-0.3313599c0.0025711-0.1752777-0.0946655-0.3152161-0.2719269-0.329834
		c-0.3178635-0.0261993-0.6383286-0.0275269-0.9577026-0.02771c-3.1576538-0.0017242-6.3153,0.0013733-9.4729538-0.0016327
		c-7.6340866-0.0072937-15.2681694-0.0171356-22.9022598-0.0259552c-0.0565147-0.0492096-0.0698318-0.1082001-0.0399437-0.1769257
		c-0.0241699-0.9747772,0.6872025-0.7548218,1.2452393-0.7549896c10.9577904-0.0029755,21.9155769-0.002243,32.8733711-0.0024109
		c0.3199387,0,0.6399231,0.0011139,0.9597931-0.0039978c0.2590866-0.0041351,0.4846649-0.0594177,0.459877-0.3942871
		c-0.0187912-0.2541046-0.2041168-0.3171387-0.413475-0.3273926c-0.2394562-0.0117035-0.4797363-0.0081787-0.7196579-0.0081787
		c-3.8392563-0.000061-7.6785278,0.0040741-11.5177689-0.0000916c-7.6779556-0.0083008-15.3558998-0.0211029-23.0338516-0.0320587
		C42.7379608,237.8183746,42.7094383,237.6032257,42.680912,237.3881073z M118.8366318,240.719635
		c0.3993073,0,0.8093185,0.0568848,1.1949615-0.0157166c0.4006577-0.0754395,1.1164169,0.3638611,1.1386795-0.4244232
		c0.025383-0.8986511-0.7828674-0.4914703-1.1769104-0.4940338c-5.6292648-0.0364838-11.2591095,0.0080261-16.888237-0.0379333
		c-3.3444443-0.0272827-6.69384,0.2071838-10.0329132-0.1412201c-0.2410812-0.0251617-0.3843079-0.0094757-0.4170227,0.2421265
		c-0.0308914,0.2375183-0.0641937,0.5140381,0.2336807,0.5935974c0.2255478,0.0602112,0.4755402,0.0368958,0.714653,0.0369873
		c4.1927261,0.0016479,8.3856277-0.0233917,12.5781097,0.0080414
		C110.4005051,240.5186768,114.6251526,240.2786255,118.8366318,240.719635z M172.334198,248.4256134
		c-0.3983612-0.4985962-0.8666687-0.510498-1.3514862-0.5081787c-1.5846558,0.0075531-3.1693878,0.0027466-4.7540894,0.0027466
		c-3.3851624-0.0000305-6.7703247,0-10.1554871,0c-3.8789368,0-7.7579193-0.0088196-11.6367035,0.0138855
		c-0.3811951,0.0022583-1.0858154-0.2701416-1.0917206,0.3115234c-0.0075684,0.7441406,0.7516937,0.3788605,1.1414795,0.3800659
		c8.8774261,0.0270691,17.7549286,0.0246887,26.632431,0.0175781
		C171.4948578,248.6429443,171.9064026,248.7716675,172.334198,248.4256134z M126.3120575,265.904541
		c0.3940201,0.364563,0.837883,0.2484131,1.2525024,0.2490234c6.4272156,0.0092468,12.8544617,0.0028381,19.2816925,0.0110779
		c0.748764,0.0009766,1.4960938-0.0724182,2.243515,0.1929932c0.3891754,0.1382141,0.8695526,0.0419617,1.3065796,0.0158386
		c0.3316803-0.0198059,0.3131256-0.3002014,0.3118134-0.5372009c-0.0012665-0.2277832-0.1570435-0.4639893-0.3448181-0.3635559
		c-0.7132874,0.3815308-1.3799744-0.0907593-2.0744171-0.0446472c-2.0981293,0.1392822-4.2002869,0.0552368-6.3074493,0.178772
		c-2.7210999,0.1595459-5.4850311,0.3410339-8.2188416-0.1430664c-0.4904938-0.0868835-1.0155792-0.0686035-1.5346527,0.0874634
		c-0.9298248,0.2796021-1.9569244,0.3041077-2.8339691,0.0564575
		C128.2700043,265.2903442,127.3261566,265.6614075,126.3120575,265.904541z M108.0603561,262.6802673
		c0.3335342,0.5499573,0.7562027,0.6760254,1.305542,0.5274963c1.011116-0.273468,2.0299835-0.2627563,3.0454941-0.0035706
		c0.430809,0.1099548,0.863945,0.1364136,1.2876282-0.0177612c0.7768173-0.2826233,1.5919266-0.2113647,2.3629379-0.1127625
		c2.7476807,0.351532,5.4998703,0.2286987,8.2522278,0.1997375c0.2802277-0.0029602,0.7591705,0.1323547,0.6828537-0.3850403
		c-0.0822372-0.5574341-0.5515976-0.3421631-0.8527298-0.2322693c-0.4785919,0.1747742-0.9100342,0.0397949-1.3819351-0.0028687
		c-1.6533127-0.1494446-3.3213043-0.1052856-4.9742203-0.3178406c-0.1778946-0.0228577-0.3724747,0.1426392-0.5637207,0.1555786
		c-1.6693649,0.1129456-3.374733,0.2832947-4.9993515-0.0466309
		C110.7584,262.1464233,109.4693298,262.8488159,108.0603561,262.6802673z M104.4366531,263.2204895
		c-0.153862-0.2460022-0.184166-0.3531799-0.2311325-0.3610229c-1.6324234-0.2740173-3.2734222-0.3098145-4.9284134-0.288269
		c-0.7876663,0.0102844-1.5764771,0.083374-2.3785095,0.0401917c-2.2295074-0.1199951-4.4694824-0.0537415-6.7052231-0.0427551
		c-0.3907089,0.0019226-0.7405319,0.1451721-0.8760986,0.6518555
		C94.3621368,263.2204895,99.336937,263.2204895,104.4366531,263.2204895z M139.6918335,239.8613739
		c0.1401215,0.3984375,0.3110352,0.3952484,0.4620667,0.3963013c1.2351837,0.0087433,2.4716949-0.0243225,3.7053375,0.021759
		c2.098938,0.0783844,4.2001038-0.1717377,6.3042297,0.1528168c0.5956268,0.0918579,1.3423615-0.053833,1.9217529-0.5708771
		C147.9749298,239.8613739,143.8646393,239.8613739,139.6918335,239.8613739z M140.20401,262.6022644
		c-0.9573517,0.0441284-1.0220947,0.0653076-0.9792023,0.3231506c0.0931091,0.5595703,0.5494843,0.3200989,0.8559723,0.3457336
		c0.9422302,0.07901,1.9020844-0.1339722,2.8320007,0.2253113c0.2401276,0.0927429,0.5635834,0.0831909,0.8083649-0.0897827
		c0.2047577-0.1446838,0.3318176-0.3534546,0.2467194-0.6186829c-0.0783081-0.2441101-0.3004303-0.2089844-0.4943848-0.2248535
		C142.324234,262.4691467,141.1835327,262.9931641,140.20401,262.6022644z M125.6518555,263.0023193
		c1.1722565,0.3855591,4.2686768,0.3638916,5.2399139-0.0440369
		C129.0910187,262.5325012,127.4602814,262.2580872,125.6518555,263.0023193z M179.593277,238.5484161
		c1.5599976,0.463501,3.114151,0.4692535,4.9468689,0.0267334
		C182.7030029,237.897522,181.1479797,238.1982727,179.593277,238.5484161z M96.7215729,252.7298584
		c-0.0000076-0.0021973-0.0000076-0.004364-0.0000076-0.0065613c-0.4774323,0-0.9548798-0.0021515-1.4322891,0.0008698
		c-0.2577438,0.0016479-0.4853439,0.055954-0.4611511,0.3878632c0.0248489,0.3408966,0.3097534,0.3763733,0.5221252,0.3135986
		c0.6970367-0.2061615,1.3798676-0.0232697,2.0669098-0.0285339c0.2847214-0.0021973,0.6163788,0.088028,0.8940506-0.0413971
		c0.1228256-0.057251,0.2443008-0.225708,0.2678909-0.3608551c0.0310593-0.177887-0.1284637-0.2638702-0.3061218-0.2644348
		C97.7558441,252.7288208,97.2387085,252.7298584,96.7215729,252.7298584z M129.8815308,240.4795532
		c0.1600952,0,0.2810974,0.0151062,0.3968353-0.0031281c0.2454376-0.038681,0.6398621,0.1396332,0.6799622-0.2392731
		c0.0436401-0.4125671-0.3322144-0.4648285-0.6633911-0.4755096c-0.1185303-0.00383-0.2372437-0.0076752-0.3557587-0.0057831
		c-0.3911133,0.0062714-0.9775085-0.056076-0.9708099,0.4142761
		C128.9767914,240.7612305,129.5991974,240.3499451,129.8815308,240.4795532z M173.1985168,262.147522
		c-1.0460663-0.4521179-2.1485748-0.4070129-2.7938995,0.0726318
		C171.3846893,262.3808899,172.2914581,262.3708496,173.1985168,262.147522z M133.7167511,262.5567932
		c-0.1624451,0-0.2818909-0.0110168-0.3985291,0.0023804c-0.2139435,0.0245667-0.5359802-0.0657043-0.5267639,0.2828979
		c0.0065918,0.2489929,0.2289886,0.3938904,0.4874573,0.4230347c0.1170349,0.0132141,0.2420349,0.0357971,0.3527985,0.009491
		c0.3382416-0.0805054,0.9320679,0.2562561,0.9559479-0.3360596
		C134.6129608,262.3110962,133.9950867,262.6648865,133.7167511,262.5567932z M135.9892426,263.277771
		c0.1844635,0,0.3406067,0.0012512,0.4967041-0.0002747c0.2867889-0.0028381,0.5766144-0.0170288,0.5232239-0.4243774
		c-0.0431213-0.3290405-0.3159332-0.2929077-0.5391693-0.281311c-0.1496887,0.007782-0.3065338,0.1331177-0.4421234,0.1080627
		c-0.3509827-0.0647583-0.809967-0.1942444-0.8244324,0.2857971
		C135.1872559,263.5023499,135.7334747,263.183075,135.9892426,263.277771z M113.3626938,261.3760376
		c0.6820145,0.2067566,1.3721313,0.4180603,2.0035706-0.115509
		C114.6928864,261.1725464,114.0206223,260.9908447,113.3626938,261.3760376z M175.7487793,248.419754
		c0.6071472,0.2485504,1.2102051,0.3495483,1.7754517-0.0817719
		C176.9269257,248.177002,176.3336945,248.0437622,175.7487793,248.419754z M170.7174377,261.3812561
		c0.6059265,0.2461853,1.2078094,0.3510742,2.0044556-0.0655212
		C171.8901367,261.0498352,171.3004608,261.0545959,170.7174377,261.3812561z M146.1464844,263.1253967
		c-0.1910706-0.3778076-0.4719543-0.4890137-0.7646332-0.5433044c-0.3093109-0.057312-0.5758362,0.1128235-0.6088257,0.401123
		c-0.0379486,0.3314514,0.2861481,0.2894287,0.5045471,0.2909851
		C145.543869,263.276123,145.8211365,263.3294373,146.1464844,263.1253967z M158.5632782,261.3464661
		c-0.5254211-0.2413025-1.0478668-0.3442993-1.5371552,0.0656738
		C157.5421753,261.6196594,158.0538177,261.6952209,158.5632782,261.3464661z M82.0027771,263.0209045
		c-0.5237656-0.2434692-1.0443878-0.3465881-1.7535248,0.044342
		C80.9854889,263.3474731,81.4952316,263.3479919,82.0027771,263.0209045z M150.8851624,263.0397949
		c-0.5187683-0.3078003-1.032486-0.3735352-1.7391815,0.0393982
		C149.8667297,263.3391418,150.3794098,263.3555908,150.8851624,263.0397949z M147.7696686,263.0073547
		c-0.4537048-0.2218323-0.9052429-0.3494568-1.4563293,0.0750732
		C146.9185638,263.3460999,147.3508759,263.3638,147.7696686,263.0073547z M177.8745728,248.0348206
		c0.5885925,0.4912567,0.6907959,0.4932404,1.3735809,0.0208893
		C178.7749634,247.8553467,178.3429565,247.8784332,177.8745728,248.0348206z M99.4965057,252.7394409
		c-0.2163544-0.0250854-0.3667908,0.0792999-0.3685074,0.3207397c-0.0010529,0.1487427,0.0138397,0.3378143,0.2405472,0.3314667
		c0.2284851-0.0063934,0.370285-0.1667938,0.4190445-0.3577728
		C99.8308182,252.8645935,99.7160568,252.740921,99.4965057,252.7394409z M101.9374771,261.2796326
		c-0.0822372-0.1535034-0.270752-0.1558533-0.4576721-0.1518555c-0.1990509,0.0042114-0.4355316,0.0363159-0.359108,0.2980347
		c0.0609436,0.2087402,0.3127823,0.1826782,0.5000916,0.1642761
		C101.7642212,261.5759888,101.940506,261.568634,101.9374771,261.2796326z M151.1308136,261.4032288
		c0.0163879-0.2209167-0.1398621-0.2526855-0.2929993-0.2691345c-0.1923523-0.0206909-0.4250336-0.0462036-0.5264893,0.1380005
		c-0.0776825,0.1409607,0.0316772,0.2988281,0.2227936,0.3078918
		C150.7506866,261.5902405,151.0011597,261.6835327,151.1308136,261.4032288z M86.0465546,262.5770264
		c-0.2627411,0.0134888-0.3632126,0.1529541-0.3000031,0.3078308c0.0603485,0.1478577,0.2494202,0.1737976,0.4095306,0.1257019
		c0.1081314-0.0324707,0.2297592-0.0805359,0.1891708-0.2367859
		C86.2954636,262.5820923,86.1443405,262.5687561,86.0465546,262.5770264z M103.6140289,236.9388885
		c0.0314407-0.1884766-0.0570374-0.252182-0.181778-0.2476807c-0.0625076,0.0022583-0.1595154,0.0542755-0.1765289,0.1052399
		c-0.0373306,0.111969,0.0116577,0.2265625,0.1313095,0.2635803
		C103.5155182,237.0997772,103.5914536,237.0191193,103.6140289,236.9388885z M174.9241028,248.4428406
		c0.0272675-0.1483002-0.0601196-0.2176208-0.1845703-0.2227478c-0.0628967-0.0026093-0.1630554,0.0431519-0.1856842,0.0940552
		c-0.0492401,0.110672-0.0061646,0.2310638,0.1118622,0.2731018
		C174.7857666,248.6299896,174.8772888,248.5605316,174.9241028,248.4428406z M148.7558594,262.8438416
		c0.0241089-0.1447144-0.0566254-0.2192383-0.1829224-0.2234497c-0.0627136-0.0021057-0.1609344,0.0441284-0.1845398,0.0954285
		c-0.050705,0.11026-0.0085297,0.2291565,0.1101532,0.2710876
		C148.6183624,263.0292358,148.7095184,262.9616089,148.7558594,262.8438416z"></path>
	<path d="M186.3612518,266.3497009c-0.7932587,0.0916138-1.5841064,0.0495911-2.3852539-0.1082764
		c0.7737122-0.1026611,1.5473938-0.2053528,2.3210754-0.3080139
		C186.3933105,266.0606384,186.4009857,266.2015381,186.3612518,266.3497009z"></path>
	<path d="M120.9335785,120.3270416c-0.1420822,0.4451065-0.1767578,0.5584106-0.2143326,0.6707382
		c-0.4438248,1.3264923-1.1184006,1.696167-2.4897308,1.3927689c-0.19384-0.0428772-0.2745056-0.0813675-0.2196426-0.2872238
		c0.1100235-0.4128876-0.1441879-0.5781937-0.4838028-0.656105c-0.3845139-0.0882187-0.7328033-0.2639313-0.5952835-0.702507
		c0.1259003-0.4015121,0.5285339-0.2862778,0.8058777-0.1644211c0.5627747,0.2472534,1.0620728-0.2505646,1.6083221-0.0872192
		C119.8149185,120.6335907,120.2825241,120.8848877,120.9335785,120.3270416z"></path>
	<path d="M115.7661819,121.8787003c0.0737,0.1910553,0.127388,0.2605438,0.1176605,0.3195724
		c-0.019989,0.1212616-0.1190262,0.1940994-0.2400818,0.1784668c-0.0974808-0.0125961-0.1216431-0.0870056-0.0788422-0.1597595
		C115.6218338,122.1202469,115.6796494,122.0240402,115.7661819,121.8787003z"></path>
	<path d="M113.5114365,235.9121552c-0.0041885,0.276825,0.015358,0.5565033-0.0176163,0.8298645
		c-0.0648804,0.537796-0.349884,0.854248-0.9302063,0.8407135c-0.3163376-0.00737-0.6332474,0.0114136-0.9496613,0.0054626
		c-0.4453735-0.0083771-0.964035,0.1526947-1.029892-0.5926971c-0.0242996-0.2749786-0.3972931-0.3604736-0.6270523-0.5040131
		c-0.3130722-0.1955566-0.1019287-0.3987427-0.0486069-0.6060638c0.0508652-0.1977997,0.1145859-0.4203644,0.3740692-0.328064
		c1.055687,0.3755798,2.2128906-0.1654205,3.2465668,0.3717804L113.5114365,235.9121552z"></path>
	<path d="M113.5290375,235.9291382c-0.0134125-0.2202454,0.0325775-0.3969727,0.3085785-0.3434143
		c0.041832,0.0080872,0.1065063,0.1497498,0.0853806,0.1872101c-0.0887222,0.1574249-0.2611084,0.1275482-0.4115601,0.1392212
		L113.5290375,235.9291382z"></path>
</g>
<g onclick="select(this)" class="" id="gola-primaria" fill="#bf0811">
	<path d="M77.9528961,7.9597788c0.7734909-0.0868554,1.2810745-0.6227632,1.8024139-1.1070566
		c0.7603989-0.7063622,1.6094208-1.3635068,2.2009125-2.1973295c2.3787308-3.3532748,5.9154663-4.1040101,9.6146927-4.1371012
		c10.8288574-0.0968688,21.6591644-0.0327392,32.4889069-0.0323138c3.6765366,0.0001444,7.3533707,0.0263636,11.0294876-0.0132293
		c2.1037445-0.022658,4.1253967,0.4074263,6.1430511,0.9059279c1.240509,0.306494,2.2250671,0.9727898,3.0632935,1.9657297
		c1.5145111,1.7940409,2.9762726,3.6627538,5.0728302,4.8576345c1.8892975,0.8698425,2.232193,1.9619017,1.6444397,4.6568098
		c-0.8680267,3.9801064-3.1195221,7.256525-5.9576111,10.0776253c-3.1543121,3.135416-6.6809235,5.8337631-10.5701141,8.0235748
		c-2.4582367,1.3841152-4.9942627,2.6225414-7.64991,3.5758228c-4.9303207,1.7698059-10.0413513,2.5165062-15.2560577,2.1380272
		c-6.9028931-0.5010071-13.3907471-2.4491768-19.2632141-6.193306c-4.6655121-2.9746075-9.1340027-6.1839447-12.4609528-10.7306004
		c-1.5546875-2.124649-2.7199631-4.4103737-3.3867264-6.9568338C75.8662186,10.4935923,76.2461853,9.2179432,77.9528961,7.9597788z
		 M144.3056793,9.0716209c-1.6213531,0.1224871-3.0516968,0.2176695-4.4796753,0.3405447
		c-8.3171387,0.7156858-16.6441956,1.3321667-24.9881668,1.5415802c-6.3928757,0.1604452-12.7648773-0.5101662-19.1342163-1.0081911
		c-3.8610764-0.3019018-7.7151108-0.6963148-11.5699081-1.07374c-0.8292313-0.081192-1.0991592,0.0874987-0.7168503,0.9401541
		c0.5081406,1.1332855,1.0283813,2.2572689,1.7957001,3.2364836c3.8750992,4.9451981,8.5461273,8.9716797,14.1956177,11.738184
		c5.4275513,2.6578178,11.1766891,4.1721344,17.2688675,3.4482021c9.8420715-1.169529,17.7235413-6.0017147,24.1360626-13.393693
		C142.2531128,13.1811771,143.4580688,11.3532133,144.3056793,9.0716209z"></path>
</g>
</svg>
