<!--?xml version="1.0" encoding="utf-8"?-->
<!-- Generator: Adobe Illustrator 24.2.3, SVG Export Plug-In . SVG Version: 6.00 Build 0)  -->
<svg version="1.1" id="Camada_1" xmlns="http://www.w3.org/2000/svg" xmlns:xlink="http://www.w3.org/1999/xlink" x="0px" y="0px" viewBox="0 0 229 418" enable-background="new 0 0 229 418" xml:space="preserve">
<g class="" id="estampa-primaria" fill="#000000">
	<path d="M43.3361168,120.4746552c-0.2101822-1.7968292-0.4633865-3.5899506-0.6187172-5.3915024
		c-0.1625862-1.8856277-0.2511826-2.0255585-2.0599174-1.648941c-6.8736954,1.431221-13.7845001,1.1175003-20.7246532,0.6410217
		c-4.1520681-0.2850647-8.2633028-0.7054749-12.2979603-1.7260742c-2.161747-0.5468216-4.3023148-1.1773834-6.452384-1.770607
		c0.9832051-4.6944427,1.710304-9.4310074,2.2652452-14.1916885c0.8147309-6.9893265,2.161412-13.9026031,2.9144485-20.9012604
		C7.00946,69.4698257,8.1461086,63.5459442,10.02213,57.7793922c2.9524479-9.0752945,8.0192003-16.63377,15.2955141-22.9292145
		c4.641325-4.0156631,10.1261501-6.1122017,15.5386753-8.4372444c9.5230942-4.090807,19.1496506-7.9399338,28.2282448-12.9891987
		c1.9752045-1.0985622,3.998909-2.0944109,5.5171432-3.9018002c0.8427429-1.0032473,2.0552597-1.6525912,3.4933624-1.5504246
		c-1.6690369,0.911767-1.9942245,2.37745-1.6832047,4.0992002c0.0709457,0.3928022,0.174202,0.7797356,0.2612457,1.1696711
		c0.8237534,3.6903038,2.9550095,6.6721439,5.5161438,9.2610703c5.7755432,5.8382244,12.4840088,10.2771969,20.4383316,12.6342793
		c2.1298523,0.6311302,4.2955933,1.1106682,6.6459579,1.064991c-0.5338974-1.2844391-1.4534302-2.1956291-2.3009262-3.0927887
		c-3.1059952-3.2880211-6.5108948-6.2602386-10.0273743-9.1035366c-3.6951294-2.9877663-7.5911026-5.7475491-10.6006622-9.5057726
		c-1.1553192-1.4426966-2.2062607-2.9282017-2.9025269-4.6584578c-0.3602753-0.8952703-0.0476456-1.0153322,0.7604065-0.9296112
		c8.6987839,0.922802,17.4164963,1.6134081,26.1527786,2.0596113c4.8011017,0.2452154,9.5862045-0.1699533,14.3717422-0.4393368
		c4.1464462-0.233408,8.2862778-0.5848207,12.4287338-0.8880043c2.3001556-0.1683464,4.5997314-0.3447294,6.9456177-0.5209475
		c-0.1444855,0.8089581-0.4932556,1.4364643-0.8457642,2.0579758c-2.4790802,4.3710222-6.1096344,7.6467533-10.0511169,10.6473789
		c-4.6786194,3.5618324-9.2728195,7.2288265-13.2001648,11.6443291c-0.7319489,0.822937-1.4752579,1.6511688-1.9698868,2.8885307
		c1.1166229-0.2099304,2.0835495-0.063839,3.0767593-0.2575684c3.6875992-0.7192917,7.1508179-2.0464096,10.489624-3.7210732
		c5.1791077-2.5976906,9.9228821-5.8279591,13.9182587-10.0487232c2.569397-2.7143421,4.4947815-5.8517628,5.4047394-9.5299778
		c0.6181793-2.4987421-0.2522278-4.1453342-1.7312012-4.5330067c1.943222-0.3242459,3.1177673,0.9020796,4.2467346,2.1567545
		c0.3477783,0.3865013,0.6880035,0.7267332,1.1286316,1.019886c8.8592834,5.8942385,18.7728577,9.6096907,28.4977417,13.6844301
		c5.0627441,2.1213017,10.0329742,4.4418583,15.0825806,6.5857468c0.2867889,0.1217613,0.5728149,0.2649422,0.8249359,0.4459
		c11.2115326,8.0465317,18.1936951,18.8202171,21.0527649,32.3346024
		c1.0608826,5.0147476,1.2833252,10.1653595,2.4897308,15.1304626c2.1820068,8.9800873,3.6789246,18.0787277,5.1480865,27.1876221
		c0.0887604,0.5503616,0.1269836,1.1088715,0.1885681,1.6634598c-0.3645477-0.0474243-0.7153015-0.0071335-1.0527039,0.147644
		c-5.3200073,2.4405899-10.9899139,3.46521-16.7322083,4.322876c-4.8674622,0.7269821-9.7268219,1.3356934-14.646347,1.004715
		c-3.0179901-0.2030563-6.0691071,0.0220795-9.0557098-0.6596832c-0.3630829-0.0828705-1.0329285-0.319397-1.0531616,0.3600006
		c-0.0652313,2.1891479-1.0532837,4.280571-0.6636505,6.5102005c-0.5996704,2.0014877-0.5344086,4.090416-0.7905884,6.1364059
		c-0.8949738,7.1481323-1.2949219,14.3305511-1.3635254,21.5325623c-0.0213623,2.2410431,0.0507813,4.4670715,0.514328,6.6791992
		c0.4084167,1.9490814-0.1002045,3.9014282-0.1983795,5.8523102c-0.0421906,0.8381042-0.1978302,1.6774902-0.1664124,2.5111694
		c0.2422791,6.433075-0.6019745,12.8642731-0.0210724,19.296936c0.2062683,2.2839813-0.212616,4.5477905-0.2432709,6.826355
		c-0.0310822,2.3100128,0.5135193,4.517807,1.0009308,6.7380829c1.592453,7.2540588,1.3647461,14.5321045,0.3311005,21.8229065
		c-0.3036346,2.1416016-0.3860931,4.2071228,0.3188629,6.357605c1.79216,5.467041,1.8125,11.0900421,0.9352264,16.7301788
		c-0.2179413,1.4012146-0.2448883,2.7664795,0.0792084,4.1568146c0.9001465,3.8616333,0.4709167,7.8023071,0.6703339,11.7068024
		c0.3015289,5.9052429,0.6929626,11.8065796,1.4281311,17.6820374c0.2564545,2.0493469,0.2247467,4.1387939,0.2575684,6.210968
		c0.0276184,1.7446289-0.3406372,2.2341309-2.0523682,2.75177c-3.0040741,0.9084167-6.1225128,1.1583557-9.2227325,1.4839783
		c-8.3638763,0.8783264-16.7637329,0.8764343-25.1590729,1.0420837c-11.6733246,0.2302551-23.3444214,0.781311-35.0168152,0.7914429
		c-11.3913727,0.0098877-22.7747269-0.7897339-34.1726074-0.850708c-8.396843-0.0448914-16.7953873-0.10849-25.1746025-0.7459106
		c-4.2282104-0.3216248-8.4446487-0.7641296-12.5834808-1.7372437c-3.5226593-0.8282166-3.8817024-1.1704102-3.6740036-4.7752075
		c0.4454918-7.7318726,1.0047455-15.4573975,1.5502663-23.1832123c0.1466026-2.0762482,0.2673111-4.150238,0.2184067-6.2306976
		c-0.0405502-1.724762,0.0539246-3.4385986,0.3564949-5.1369019c0.4024506-2.2589264,0.4742508-4.5084381,0.1367073-6.79422
		c-0.3715973-2.5163879-0.1149597-5.0323486,0.4303474-7.5068817c0.2282982-1.0359955,0.1989555-2.0488281,0.1221313-3.0924072
		c-0.3344193-4.5423431-1.0253601-9.0643921-0.8279915-13.6383972c0.1861229-4.313385,1.2090988-8.4557495,2.6622276-12.495163
		c0.3737335-1.0388947,0.6244507-2.0293732,0.4623566-3.1422424c-0.1849098-1.2694855-0.1565132-2.5534668,0.0842667-3.8226471
		c0.3010979-1.5870667,0.1834869-3.1711273,0.1076965-4.7750397c-0.1581841-3.3474274-0.1870003-6.7026215-0.2009506-10.0549164
		c-0.0537033-12.9053192-0.0422363-25.8110504-0.1364212-38.7160339
		c-0.0374107-5.1263123-0.9949379-10.1804962-1.5068665-15.2701874
		C43.6686363,123.1601257,43.4931717,121.8183136,43.3361168,120.4746552z"></path>
</g>
<g class="" id="estampa-secundaria" fill="#9e9e9e">
	<path d="M57.4478302,284.9138489c-0.129715-6.3565063-0.2334023-12.7136841-0.394516-19.0693665
		c-0.3446465-13.5961761-0.2547607-27.1930542-0.0746117-40.7893524c0.0852776-6.4360352,0.2989998-12.8705139,0.4722672-19.3052063
		c0.0267487-0.9933777,0.1490479-1.9841919,0.2688293-2.9745941c0.2284775,4.8349457,0.3048363,9.671051,0.4034386,14.5070801
		c0.3334961,16.3559875,0.2775841,32.7126617,0.0979958,49.0691223c-0.0680275,6.1959229-0.2599754,12.3905334-0.3954391,18.5857239
		C57.690136,285.0855713,57.5635338,285.0877075,57.4478302,284.9138489z"></path>
	<path d="M169.4645691,285.1234741c-0.2721252-4.1092529-0.2160034-8.226532-0.3025208-12.340332
		c-0.3589478-17.0670013-0.3008728-34.1352539-0.1085358-51.2031708c0.0607758-5.3939056,0.2469635-10.7864075,0.3794403-16.1794739
		c0.0156403-0.6364136,0.0545197-1.2722626,0.1786346-1.908783c0.0799103,1.5539703,0.1999512,3.1071167,0.2325592,4.6620789
		c0.1214905,5.793808,0.2753754,11.5869598,0.4004059,17.3806305c0.27005,12.5112305,0.2276764,25.0213928,0.063797,37.5314636
		c-0.0962982,7.3513489-0.338562,14.7007446-0.5151825,22.0510559
		C169.6853638,285.206604,169.5757751,285.2053223,169.4645691,285.1234741z"></path>
	<path d="M167.0851593,285.2984314c-0.1451416-4.8349609-0.2724915-9.6699829-0.2839966-14.5078125
		c-0.020813-8.7578125-0.2495422-17.5144348-0.1536407-26.2729797c0.0752869-6.8777466,0.097702-13.7567291,0.2541962-20.6326752
		c0.0800629-3.5176849,0.0882111-7.0368347,0.2115326-10.5531616c0.0475616-1.3558655,0.1733398-2.7089996,0.2823181-4.3463287
		c0.106842,2.6710663,0.2402344,5.0576019,0.2903595,7.4458923c0.1233063,5.8766174,0.2605133,11.7530518,0.3810272,17.6296844
		c0.2164764,10.5578918,0.1852875,21.1151733,0.0671539,31.6718292c-0.0491791,4.3972168-0.0637054,8.797821-0.2303314,13.1924438
		c-0.0801849,2.1151428-0.0691223,4.2332153-0.2073822,6.3460083
		C167.4976044,285.3922729,167.2931976,285.3862915,167.0851593,285.2984314z"></path>
	<path d="M59.5717697,285.0665588c-0.0728989-2.0757141-0.1713676-4.1509094-0.2145882-6.2272644
		c-0.3053627-14.6694641-0.4183197-29.3405304-0.2212143-44.0120544c0.0885811-6.5933533,0.2883911-13.1853333,0.4581146-19.7774048
		c0.0555-2.1555786,0.1754112-4.3094788,0.2855721-6.4646149c0.2647171,3.3947144,0.2948532,6.7973022,0.3810997,10.1992798
		c0.220871,8.7128143,0.241539,17.4270935,0.2845955,26.1414795c0.0523376,10.5925598-0.0474129,21.1843414-0.1524963,31.7760468
		c-0.0277443,2.7965393-0.1342392,5.5922852-0.2045708,8.3883972
		C59.9792557,285.173584,59.7737045,285.1668396,59.5717697,285.0665588z"></path>
	<path d="M61.5458298,285.1613159c-0.0991249-9.1116333-0.2254753-18.223053-0.28965-27.3349915
		c-0.0627747-8.9128876,0.1299706-17.8243713,0.2913513-26.7352448c0.0875359-4.8337097,0.2701607-9.6656799,0.4135017-14.4983368
		c0.013607-0.4586639,0.053051-0.9165497,0.2801361-1.3860168c0.0301971,0.3671265,0.0835114,0.734024,0.0871811,1.1014252
		c0.0825348,8.272644,0.2991142,16.542984,0.3956604,24.8158112c0.1077385,9.2328186,0.1079369,18.464325,0.0526848,27.6963196
		c-0.032753,5.4729309-0.15028,10.945343-0.2296944,16.4179688
		C62.2027168,285.3500366,61.8654823,285.3701477,61.5458298,285.1613159z"></path>
	<path d="M164.7302399,285.3575134c-0.0192871-0.3586121-0.0504456-0.7171021-0.0561829-1.0759277
		c-0.2246246-14.0329285-0.335434-28.0667419-0.1706848-42.1008606c0.0957031-8.1545105,0.2789612-16.3079987,0.4267731-24.4618683
		c0.0041046-0.2270203-0.059494-0.4733734,0.1562042-0.7214966c0.3416595,0.203125,0.2249298,0.54953,0.2329254,0.8230896
		c0.1071472,3.6761627,0.2066803,7.3525848,0.2998199,11.0291443c0.3209534,12.6704254,0.5131989,25.3433685,0.3394012,38.0167694
		c-0.0843658,6.153717,0.0186157,12.3128967-0.3514862,18.4617004
		C165.318222,285.4407349,165.0259552,285.4502258,164.7302399,285.3575134z"></path>
	<path d="M141.1363678,285.8185425c-0.0159912-0.2788391-0.0441742-0.5576477-0.0461884-0.8365784
		c-0.0651703-9.0742493-0.2146454-18.1481628-0.1123657-27.223053c0.0697937-6.1954803,0.1396942-12.3910675,0.2320099-18.5862885
		c0.0601654-4.036377,0.1681824-8.072052,0.234436-12.1083679c0.0092773-0.5643921,0.1281891-1.0989532,0.2999573-1.6442261
		c0.0841064,2.1425018,0.2006683,4.284317,0.2461853,6.4276428c0.1358032,6.3943329,0.293045,12.7881165,0.4059143,19.1831665
		c0.1792145,10.1542816,0.1281128,20.3074188,0.0639191,30.4612885c-0.009079,1.437439-0.0895691,2.8744202-0.1370087,4.3116455
		C141.9288483,285.908844,141.533493,285.934845,141.1363678,285.8185425z"></path>
	<path d="M84.1079407,285.6448669c-0.0975342-11.2383728-0.1613007-22.4771729-0.0060501-33.7150879
		c0.0944366-6.8362274,0.2921906-13.6711121,0.4629745-20.5061493c0.0507278-2.0305176,0.1674194-4.0593414,0.2906265-6.0887604
		c0.3333893,3.626358,0.2857742,7.264328,0.3896942,10.8975525c0.2321396,8.1159821,0.151001,16.2349854,0.2815399,24.3511658
		c0.1344376,8.3582764-0.106842,16.7121277-0.102005,25.0682068
		C84.9848175,285.8345032,84.5457611,285.8575134,84.1079407,285.6448669z"></path>
	<path d="M86.2501755,285.6704102c-0.0066376-2.5985413-0.0023499-5.1971436-0.0218964-7.7955627
		c-0.0694656-9.2362976,0.0985947-18.4707642,0.2421417-27.704834c0.0863419-5.5544281,0.2960129-11.1069641,0.4556656-16.6601868
		c0.0291748-1.0147705,0.0464859-2.0340881,0.4764862-3.2143402c0,3.3517914-0.0952301,6.4943848,0.0238876,9.6288605
		c0.1518936,3.9968567,0.0993423,7.9943695,0.2054901,11.9901123c0.2962799,11.1530762,0.1286545,22.308136,0.1530228,33.4623413
		c0.0002594,0.1176453-0.025589,0.2353821-0.0392456,0.3530579
		C87.2415924,285.8512878,86.7412949,285.8764343,86.2501755,285.6704102z"></path>
	<path d="M138.7801361,285.9142761c-0.0482788-10.9078369-0.0956421-21.81604,0.0593719-32.723053
		c0.1066895-7.5067444,0.3101349-15.012085,0.4680939-22.4126434c0.1657104,0.9439087,0.3051147,1.9995422,0.3290863,3.0737152
		c0.0953827,4.2726746,0.1809692,8.5458527,0.3206635,12.8171844c0.2612,7.9874573,0.2358093,15.9776459,0.2844696,23.9673004
		c0.030899,5.0710144,0.0092163,10.1416016-0.0972748,15.2117004
		C139.7014771,286.1137695,139.2442017,286.0841675,138.7801361,285.9142761z"></path>
	<path d="M183.7770081,222.8158569c-0.1772766,0.2886505-0.1600037,0.6128693-0.1676636,0.9316101
		c-0.0759125,3.1573486-0.1433411,6.3149261-0.2278595,9.4720306c-0.1012726,3.7819977-0.2168884,7.5635986-0.4207306,11.3451691
		c-0.0826416-1.3944092-0.2152252-2.7879639-0.2398834-4.1833954c-0.1745605-9.8760071-0.3191986-19.7523193-0.4100952-29.6297913
		c-0.0526428-5.7185059-0.0500488-11.436264-0.0510864-17.1543884c-0.0000916-0.4937134-0.1856079-1.05513,0.3113098-1.4538879
		c0.6467743,2.2012634,1.1086273,4.4403076,1.3730469,6.7196808c-0.0360718,0.5433044-0.1012268,1.0864716-0.1035919,1.6299286
		c-0.0192261,4.4142303-0.0292511,8.8285217-0.0332184,13.2427826c-0.000351,0.3884735-0.0787659,0.8031769,0.2075653,1.1448364
		c-0.1454468,1.5700378-0.1876831,3.1589966-0.4706726,4.7038269
		C183.3362579,220.7190399,183.4321747,221.7579193,183.7770081,222.8158569z"></path>
	<path d="M136.5938721,286.0063477c-0.0200195-0.357666-0.0583954-0.7153931-0.0573273-1.0730286
		c0.0258026-8.7164307,0.0100098-17.4332886,0.1000366-26.1491089c0.0672913-6.5140839,0.271286-13.0267639,0.4172211-19.5400085
		c0.0107117-0.477478,0.0443726-0.9544525,0.1386261-1.4326477c0.088089,1.2696533,0.2209473,2.5380707,0.2563324,3.8091888
		c0.1323547,4.7549744,0.2112122,9.5114288,0.349762,14.2662354c0.2830353,9.7130585,0.2260437,19.42836,0.230545,29.1433563
		c0.0001526,0.3162537-0.0449219,0.6325378-0.0689392,0.948822
		C137.5074005,286.1231689,137.0514221,286.1037903,136.5938721,286.0063477z"></path>
	<path d="M88.5873642,285.7471619c-0.0250626-0.3965149-0.0734558-0.7931213-0.0717621-1.1895447
		c0.0369492-8.5979614,0.0320663-17.1964722,0.1370926-25.7936096c0.0737305-6.0353546,0.291153-12.069046,0.4644699-18.1029358
		c0.0250473-0.8719788,0.1624985-1.7407379,0.3933563-2.6063385c0,0.550827-0.0052185,1.1017151,0.0008087,1.6524811
		c0.0546799,4.9973755,0.2084198,9.9930267,0.3122406,14.9892731c0.2060699,9.916275,0.1768875,19.8322906,0.1870193,29.7488251
		c0.0004425,0.4375-0.036087,0.8751221-0.055397,1.3126526C89.4983673,285.8663635,89.0423431,285.8735352,88.5873642,285.7471619z"></path>
	<path d="M44.9251366,200.42099c0.233242,1.94841,0.0913773,3.904007,0.0826492,5.8549347
		c-0.0214272,4.7932739-0.0914459,9.5864105-0.1579895,14.3793945c-0.0787392,5.6715698-0.1626091,11.3431244-0.2693977,17.0142059
		c-0.0345078,1.8324738-0.1484184,3.6634064-0.4224434,5.4986725c0-0.4022827,0.0088158-0.8047943-0.0013618-1.2068329
		c-0.1000748-3.9525757-0.1415672-7.9078827-0.3218613-11.856842c-0.2078209-4.5518188-0.0968704-9.1071014-0.2580643-13.6568909
		c-0.1075439-3.0354767-0.0835152-6.0700226-0.1291733-9.1048126c-0.0081825-0.5436096-0.0343399-1.0869598-0.0521965-1.6304321
		C43.6609192,203.8779449,44.2384949,202.1336975,44.9251366,200.42099z"></path>
	<path d="M90.7688599,285.7647705c-0.0788651-3.9526062-0.0250854-7.9042969,0.0897446-11.8554077
		c0.0092773-0.3190308,0.0472717-0.6376343,0.0475311-0.9563904c0.0052719-6.6309204,0.2988586-13.2555542,0.4373779-19.8835449
		c0.0256958-1.2292938,0.1447754-2.4566498,0.2084427-3.4858551c0.2884216,2.7849884,0.2690582,5.7810059,0.3429108,8.7746124
		c0.1979828,8.026062,0.2699127,16.0532532,0.3123856,24.0811462c0.0059128,1.1166687,0.043663,2.2331543,0.0666733,3.3497314
		C91.7707825,285.8710632,91.2687607,285.8832092,90.7688599,285.7647705z"></path>
	<path d="M134.2755432,286.0534973c0.0736847-7.3172607,0.1086426-14.6351929,0.2440491-21.9512939
		c0.04216-2.2772522,0.1252136-4.5559692,0.1423798-6.8340759c0.0180664-2.3997803,0.153656-4.7914581,0.3628845-7.1837158
		c0.0896759,2.1057892,0.2190094,4.2108307,0.2613068,6.3175964c0.1098785,5.4769287,0.2983551,10.9516602,0.375351,16.4299316
		c0.0617828,4.3973999,0.1730347,8.7937927,0.1355591,13.1921692
		C135.2918243,286.1336975,134.7842407,286.1220398,134.2755432,286.0534973z"></path>
	<path d="M132.0807495,286.0938721c0.0773468-5.8279724,0.1033173-11.6572876,0.2547607-17.4833374
		c0.0705414-2.7134094,0.0894012-5.427124,0.1581573-8.1401672c0.0423126-1.6688843,0.0138702-3.3421021,0.3804932-4.9905548
		c0.0097809-0.0065918,0.0252838-0.0170593,0.0408173-0.0275116c-0.0250702,0.0306396-0.0727539,0.0618439-0.0720062,0.0917816
		c0.2360535,9.2573395,0.5976563,18.5117035,0.6408691,27.7735748c0.0042725,0.916626,0.0483398,1.8330688,0.0739441,2.7495728
		C133.0665131,286.1359253,132.5772247,286.3146667,132.0807495,286.0938721z"></path>
	<path d="M92.9820557,285.7935181c0.1910858-6.146637,0.1721573-12.2970886,0.3664932-18.4444885
		c0.1185837-3.7512207,0.354805-7.4995117,0.3441772-11.2570496c0.1777573,1.3590088,0.3418884,2.7128906,0.3584824,4.0859985
		c0.0946198,7.8281555,0.3525848,15.6540222,0.3298645,23.4839478c-0.0020828,0.7171936,0.0403748,1.4345093,0.0621567,2.1517334
		C93.9551086,285.8833618,93.4678574,285.8908386,92.9820557,285.7935181z"></path>
	<path d="M95.3352585,285.819519c0.0326385-4.8671875,0.161911-9.7317505,0.3497162-14.5955505
		c0.0954742-2.4721069,0.1116333-4.9473267,0.1622391-7.4211121c0.0113449-0.5546875,0.0112457-1.1103516,0.3239517-1.736084
		c0.1546555,8.0012207,0.3071823,15.892395,0.4597168,23.7836304
		C96.1946487,286.0231628,95.7638092,285.9690552,95.3352585,285.819519z"></path>
	<path d="M129.9139862,286.1711121c0.1530762-8.0198669,0.3061523-16.0397644,0.4623871-24.2253723
		c0.2247467,0.9318848,0.3226471,1.7084351,0.339447,2.506073c0.1110535,5.2696838,0.2213898,10.5395508,0.3747864,15.808136
		c0.0569305,1.9552612,0.1625671,3.9086609,0.1238556,5.8656921
		C130.7884064,286.3534241,130.3531647,286.3188477,129.9139862,286.1711121z"></path>
	<path d="M127.7856827,286.2382507c0.1772995-5.948822,0.0844879-11.9047852,0.5130234-17.8504028
		c0.0617828,1.2703552,0.1504059,2.5401001,0.1805115,3.8112488c0.1106415,4.6705322,0.4475555,9.3357239,0.3381958,14.0115051
		C128.4772949,286.3609619,128.1325989,286.341156,127.7856827,286.2382507z"></path>
	<path d="M97.7298737,285.8904114c-0.0840378-4.7142639,0.1984177-9.4190369,0.3670807-14.1267395
		c0.0408554-1.1400757,0.1062775-2.2792969,0.1804047-3.4181213c0.3309555,5.862793,0.3110428,11.7339783,0.5031204,17.5992737
		C98.4228363,286.070343,98.0682983,286.1358948,97.7298737,285.8904114z"></path>
	<path d="M125.6506577,286.2756653c0.0834351-3.8816833,0.1668549-7.7633362,0.2487564-11.5742493
		c0.3545837,0.8952026,0.714035,8.1891174,0.5444794,11.5506287
		C126.1822052,286.3511963,125.9179153,286.3633423,125.6506577,286.2756653z"></path>
	<path d="M100.1120071,285.9992371c-0.0713806-3.7420349,0.1751251-7.4730835,0.3272629-11.4137268
		c0.3189774,0.434845,0.2367706,0.7463684,0.2399673,1.0235596c0.0399323,3.4667969,0.0699158,6.9337158,0.1024551,10.4006042
		C100.557106,286.0936279,100.3337326,286.0992737,100.1120071,285.9992371z"></path>
	<path d="M43.9550171,283.1150513c0.0971527-2.8311768,0.1943054-5.6623535,0.2951851-8.6022949
		c0.3073235,2.978363,0.3671913,5.8562317,0.3513031,8.7370605
		C44.342926,283.4115601,44.1566925,283.2262878,43.9550171,283.1150513z"></path>
	<path d="M182.7024536,283.7772217c-0.0421295-2.7453308-0.0718842-5.4901428,0.3227844-8.3323364
		c0.0916443,2.8098145,0.1795502,5.5046692,0.2674561,8.1994934
		C183.1180725,283.7870178,182.940094,283.9146729,182.7024536,283.7772217z"></path>
	<path d="M102.4295578,286.0480957c0.0608139-1.5888672,0.1216354-3.1777344,0.182457-4.7666321
		c0.3056335,1.5812073,0.3293839,3.1739197,0.3034515,4.7694397
		C102.753067,286.1253967,102.5910568,286.1322327,102.4295578,286.0480957z"></path>
	<path d="M46.3725586,283.6124878c0-1.0596008,0-2.1192017,0-3.3826599
		c0.2812271,1.2660217,0.4200058,2.3400879,0.3256874,3.4363403
		C46.5762329,283.7298584,46.4678802,283.7106934,46.3725586,283.6124878z"></path>
	<path d="M123.6345901,286.2944336c0-0.7774963,0-1.5550537,0-2.33255
		c0.0849304-0.0020447,0.1698608-0.0041504,0.2547913-0.0061951c0.3028717,0.7490234,0.1389618,1.5522156,0.1553345,2.3345032
		C123.9088364,286.3722229,123.77211,286.3713989,123.6345901,286.2944336z"></path>
	<path d="M173.9376526,190.1466827c0.2129211,0.3114624,0.194931,0.8658905,0.2128906,1.4053802
		c0.1157074,3.4750214,0.2390747,6.9498901,0.3302002,10.4255981c0.3362885,12.8276215,0.530304,25.6572266,0.4145813,38.4894714
		c-0.0547791,6.0754547-0.1430664,12.1509247-0.2692261,18.2252808c-0.1078796,5.1938171-0.2899017,10.3861084-0.443924,15.578949
		c-0.0172119,0.5803528,0.012558,1.1764526-0.2636414,1.5674744
		C173.1940918,247.3096619,173.082962,218.6633759,173.9376526,190.1466827z"></path>
	<path d="M132.8141937,139.9528503c1.1087952,28.6256714,1.0495605,57.4083099-0.0052795,85.9110107
		c-0.2605591-1.2115479-0.2684326-2.7237854-0.2934265-4.2342224c-0.0258331-1.5597534-0.0184174-3.1204224-0.066925-4.6793823
		c-0.1990356-6.396698-0.1571045-12.7968445-0.2798767-19.193985c-0.1965027-10.2390594-0.1354065-20.4772339-0.0623169-30.7158661
		c0.0316772-4.4387054,0.1134033-8.8771362,0.1896973-13.3153839c0.0604858-3.5183258,0.1433258-7.0363007,0.2247925-10.5542145
		C132.5475311,142.0193481,132.5532227,140.8634796,132.8141937,139.9528503z"></path>
	<path d="M132.814682,24.0351143c1.1114502,28.4671097,1.042511,57.1253471,0.0059357,85.5791626
		c-0.2380371-0.9891586-0.2827454-2.2067184-0.2945099-3.4262085c-0.0721588-7.4763947-0.2533569-14.9510422-0.3536224-22.4271698
		c-0.1442566-10.7560806-0.1592102-21.5109673-0.0705414-32.2666092c0.0388947-4.7173653,0.1206818-9.4344597,0.200531-14.1513786
		c0.0568237-3.3574524,0.1511383-6.7142696,0.2115784-10.0716782
		C132.5349121,26.1130791,132.640686,24.9672871,132.814682,24.0351143z"></path>
	<path d="M93.7076721,139.6368561c0.1907959,1.1999664,0.3089294,2.5444946,0.3246231,3.9013367
		c0.0859451,7.4347992,0.2643509,14.8680267,0.3597717,22.3029938c0.1118393,8.7151947,0.1288605,17.4293365,0.0738373,26.1439819
		c-0.0393753,6.2357941-0.0892639,12.4725494-0.242775,18.7062073c-0.0885849,3.5966644-0.1133194,7.1936035-0.1865692,10.7900543
		c-0.0309219,1.5187073-0.1377563,3.0279999-0.3462601,4.6188507c-0.1236649-5.0472412-0.1843796-10.0112915-0.3857727-14.9696503
		c-0.1655502-4.0761719-0.1150665-8.153244-0.2253265-12.2284851c-0.2660751-9.8330841-0.1934814-19.667923-0.0934219-29.5013428
		c0.0748215-7.3533478,0.254631-14.706604,0.4824524-22.0569611
		C93.549263,144.7296143,93.562851,142.1141663,93.7076721,139.6368561z"></path>
	<path d="M87.2136078,200.9710541c-0.1987686-0.5959778-0.244194-1.4971161-0.2681885-2.3993683
		c-0.1126785-4.2365112-0.1898956-8.4742126-0.3379135-12.7094727c-0.1997452-5.7159271-0.1543655-11.4350891-0.2788773-17.1511383
		c-0.1498413-6.8781891-0.0981369-13.7552338-0.0617065-20.6327667c0.0220261-4.1580963,0.0777435-8.3165894,0.1754227-12.4735718
		c0.1483765-6.314743,0.3451233-12.6283264,0.525032-18.9423065c0.0200653-0.7043839,0.0409775-1.4120712,0.2458954-1.8423996
		C88.0598297,143.4754639,87.9497833,172.3563232,87.2136078,200.9710541z"></path>
	<path d="M46.4676933,134.694046c-1.0471611-28.6432037-1.1096306-57.1739502-0.0105972-85.574234
		c0.2598801,1.1715965,0.3064346,2.4971275,0.3232155,3.8278732c0.0886955,7.0340958,0.2300186,14.0674934,0.3391342,21.1012154
		c0.1568947,10.1136169,0.1249046,20.2256546,0.0585442,30.3384399c-0.0333023,5.0758209-0.1187096,10.1513901-0.1984634,15.226799
		c-0.0602837,3.8361816-0.1332207,7.6723175-0.2346001,11.5075912
		C46.714447,132.2747192,46.5696144,133.4246674,46.4676933,134.694046z"></path>
	<path d="M102.7158279,165.1449738c0.9459915,28.3860321,0.8348846,56.7774811-0.0002747,85.1688232
		C101.5849075,221.9271851,101.5332947,193.5395203,102.7158279,165.1449738z"></path>
	<path d="M93.7268066,24.12813c0.3404007,2.0864201,0.3001633,4.2457943,0.3556366,6.4013672
		c0.1779556,6.91609,0.1907654,13.8346233,0.3130875,20.7510395c0.1577301,8.9183197,0.1048126,17.8353462,0.057518,26.7528648
		c-0.0290527,5.478035-0.123558,10.9558182-0.2078018,16.4334183c-0.0602646,3.9178772-0.1668015,7.8350677-0.2219849,11.7529984
		c-0.0185165,1.3147659-0.2199707,2.6072235-0.2909317,3.6694031C92.6849365,81.4278183,92.6119843,52.7264214,93.7268066,24.12813z
		"></path>
	<path d="M62.1138878,183.8972321c-1.089592-28.1978607-1.1435776-56.3961411-0.0707741-84.8334503
		c0.336174,0.4512939,0.2766228,0.7682648,0.2812729,1.0502625c0.1245041,7.5554276,0.2249565,15.1112747,0.3663063,22.6663742
		c0.1750259,9.3553391,0.1669197,18.7111435,0.0987091,28.0668259c-0.0498428,6.8364868-0.1574783,13.6726227-0.2537537,20.5086975
		c-0.0540466,3.8373718-0.1347084,7.6743622-0.2120094,11.5113678
		C62.3167191,183.2108002,62.3993874,183.5725861,62.1138878,183.8972321z"></path>
	<path d="M126.0429688,43.3906441c1.1792984,28.1109505,1.1287613,56.2214928,0.0873337,84.5526886
		c-0.3524551-0.4249191-0.2652512-0.7412491-0.2694016-1.016571c-0.1325684-8.7924347-0.2342529-17.5854111-0.3932953-26.3773499
		c-0.1691895-9.3529129-0.1319199-18.705925-0.0783691-28.0588455c0.0324936-5.6752777,0.0936966-11.3515472,0.2456589-17.0245895
		c0.1006165-3.7559662,0.1426468-7.5120926,0.2202072-11.267952
		C125.860672,43.928463,125.7984314,43.6471939,126.0429688,43.3906441z"></path>
	<path d="M46.4213333,250.6315765c-0.1104279-4.2162781-0.1908531-8.2934265-0.3304329-12.3685455
		c-0.1861649-5.4351044-0.1777534-10.8734436-0.3108711-16.3086548c-0.1625633-6.6372223-0.1000404-13.2739258-0.1146202-19.9109344
		c-0.0055771-2.5390625-0.2659607-5.0784912,0.0914955-7.6192017c0.1212845-0.8620605,0.0542946-1.7537994-0.1153717-2.6274109
		c-0.1225548-0.6310425-0.0959167-1.2810669-0.0034103-1.9123688c0.2389183-1.6304626,0.1133728-3.2751617,0.2183647-4.9039459
		c0.2905769-4.5076447,0.1407509-9.0236359,0.380722-13.5315704c0.1187935-2.2315674,0.0206375-4.4746704,0.1029968-6.7139282
		c0.4140129,1.2322693,0.4103317,2.4998779,0.4274559,3.7629395c0.0943108,6.9563599,0.2378044,13.9120178,0.3462296,20.868103
		c0.1639252,10.5166779,0.1363564,21.0318298,0.058239,31.547699c-0.0403938,5.4372864-0.1013908,10.8752899-0.2416534,16.3106842
		c-0.0794258,3.077774-0.1026154,6.1556396-0.1579933,9.2332764
		C46.7480431,247.8158569,46.6503563,249.1637726,46.4213333,250.6315765z"></path>
	<path d="M53.2245369,158.4618835c-1.1160316-27.956543-1.1653976-55.9146652-0.082798-84.0500946
		c0.3766136,0.3692856,0.2762985,0.6952744,0.2807922,0.9681473c0.1329956,8.0753021,0.2350311,16.1511765,0.3902092,24.2260208
		c0.1744156,9.0759048,0.1287651,18.1520538,0.0793266,27.2280273c-0.0333176,6.1169281-0.0897751,12.2349091-0.2464523,18.3495636
		c-0.1054916,4.1171112-0.1427574,8.2343597-0.2232475,12.3512878
		C53.4163399,157.8432159,53.4925461,158.1654663,53.2245369,158.4618835z"></path>
	<path d="M53.2264175,274.3841248c-1.1194763-27.9566956-1.1694336-55.9149017-0.0824699-84.0552826
		c0.3722649,0.3761292,0.2725983,0.7008667,0.2771111,0.9740295c0.1333847,8.0752563,0.2361565,16.1510773,0.3917503,24.2258759
		c0.1748886,9.0759735,0.1285133,18.1521759,0.0792236,27.2281952c-0.0332222,6.1169434-0.0909729,12.2348938-0.2461662,18.3496552
		c-0.1034813,4.0770874-0.1435738,8.1542969-0.2211609,12.2312622
		C53.4180908,273.68573,53.4958801,274.0470581,53.2264175,274.3841248z"></path>
	<path d="M123.8241272,165.137558c1.1789169,28.4701996,1.124382,56.936264,0.000412,85.4013214
		C122.9970322,222.0710449,122.8956223,193.602951,123.8241272,165.137558z"></path>
	<path d="M141.7547302,109.3575974c0.5026245,14.3798065,0.7891998,28.6687698,0.7782898,42.9636765
		c-0.0108795,14.2414703-0.3241425,28.477005-0.7989197,42.7221069c-0.3650513-0.4513245-0.2527161-0.9905396-0.2615814-1.4897461
		c-0.0623779-3.5171814-0.0644836-7.0358124-0.1609039-10.5519104c-0.1961517-7.1526794-0.1550446-14.3077698-0.27211-21.4606018
		c-0.1111908-6.795166-0.08461-13.5891113-0.0511169-20.3833771c0.0283813-5.7550049,0.1218262-11.5098267,0.2098999-17.2643585
		c0.0654297-4.275589,0.1717224-8.5505295,0.2503967-12.825943
		C141.4589539,110.5092545,141.528595,109.9704971,141.7547302,109.3575974z"></path>
	<path d="M173.931366,157.8392639c-0.8336182-28.0922241-0.7457428-55.9359207-0.0158081-83.6505051
		c0.2354126,0.3401718,0.2184906,0.8945236,0.2357025,1.434639c0.1209259,3.794693,0.2470398,7.5892715,0.3483734,11.3845062
		c0.3382568,12.6673813,0.5090332,25.3369217,0.392868,38.0087509c-0.0545959,5.9553452-0.1494293,11.9105453-0.2682648,17.8649521
		c-0.0908813,4.5543365-0.2458649,9.1074371-0.3804321,13.6608276
		C174.2334442,156.8925629,174.315918,157.263916,173.931366,157.8392639z"></path>
	<path d="M180.7613983,167.8322601c1.1710052,27.8589172,1.0061798,55.7223969,0.0543671,83.4066467
		c-0.0375671-0.1531677-0.1513672-0.4907532-0.1972351-0.8373871c-0.0522308-0.3947754-0.0530548-0.7974396-0.0604553-1.1969604
		c-0.1150055-6.1941986-0.2351074-12.3883057-0.3389435-18.5827026
		c-0.2157288-12.8706512-0.2688599-25.7420959-0.1283722-38.6138458c0.0545349-4.9957886,0.1116638-9.9922485,0.2492065-14.9861298
		c0.0737305-2.6769867,0.0931549-5.3541412,0.1614075-8.0306396
		C180.5112305,168.6045837,180.4242401,168.1974335,180.7613983,167.8322601z"></path>
	<path d="M102.6071167,131.8944092c-1.070961-7.9386978-1.0239868-72.6366425,0.0600357-82.6786804
		C103.6812134,53.6305313,103.626915,128.3965454,102.6071167,131.8944092z"></path>
	<path d="M55.4575691,281.5044556c-1.0986824-28.5223846-1.1736145-57.0427551,0.0100975-85.5606689
		C56.3885269,224.4658356,56.2922173,252.9858856,55.4575691,281.5044556z"></path>
	<path d="M165.2084961,185.2874756c-0.9604187-4.5096741-0.9974823-78.8961563-0.1014404-82.4127731
		c0.3283997,0.2466965,0.2471924,0.5745544,0.2552338,0.8497009c0.0933838,3.1953659,0.1826172,6.3908691,0.2642365,9.5865631
		c0.3204498,12.5458679,0.4832306,25.093956,0.3432465,37.6432419c-0.0945129,8.4710388-0.2951202,16.9409637-0.4632263,25.411087
		c-0.0515289,2.5965729-0.1513367,5.192215-0.2324829,7.7881775
		C165.2622223,184.5317841,165.2308502,184.9094849,165.2084961,185.2874756z"></path>
	<path d="M126.0246887,243.6448975c-0.7141876-27.5107727-1.0124741-55.0211792,0.048912-82.5292511
		C127.2304306,188.6257782,127.1423035,216.1353912,126.0246887,243.6448975z"></path>
	<path d="M55.5452957,80.0272446c0.8277855,28.0588837,0.7533302,56.1330338,0.0268059,84.424202
		c-0.3926735-0.4575653-0.2889824-0.82341-0.2973976-1.1361542c-0.1192741-4.4345093-0.1875954-8.8707123-0.3435287-13.3038635
		c-0.2178574-6.1933289-0.1454697-12.3901978-0.2878494-18.5833588c-0.1203918-5.2366943-0.0921822-10.4721298-0.0638199-15.7077255
		c0.0303154-5.5955734,0.1079254-11.1914444,0.2273903-16.7858505c0.123703-5.7928467,0.3195534-11.5841827,0.4932632-17.3758926
		C55.3154335,81.0494308,55.2293129,80.5154343,55.5452957,80.0272446z"></path>
	<path d="M180.772049,52.1297798c1.1041565,26.9603767,1.0395203,53.9213066,0.095459,80.8575439
		c-0.3435211-0.6035767-0.3492126-0.6034851-0.363327-1.4252625c-0.0969391-5.6357956-0.1928558-11.2715988-0.2861481-16.9074554
		c-0.2144318-12.9528427-0.2672882-25.9063492-0.124588-38.8602295c0.0541534-4.916626,0.109848-9.8339462,0.2468567-14.7486534
		c0.0724335-2.5975189,0.0918732-5.1951256,0.1571655-7.7921753
		C180.5069427,52.8766136,180.4104614,52.4722481,180.772049,52.1297798z"></path>
	<path d="M100.4999542,243.5670166c-1.1276321-28.0649872-1.1805573-56.125351-0.0933228-84.2650604
		c0.2961426,0.9405518,0.3035889,1.8339844,0.3169556,2.7304688c0.1435928,9.6356354,0.3433456,19.27005,0.4056015,28.9073792
		c0.0359039,5.5578308,0.0695877,11.1156158,0.0412521,16.6730042c-0.0358963,7.0372467-0.0956192,14.0751495-0.2411118,21.1107635
		c-0.0876465,4.2373352-0.1496124,8.474823-0.2287827,12.7121429
		C100.6872559,242.1471558,100.569458,242.8566284,100.4999542,243.5670166z"></path>
	<path d="M100.5085297,127.6288986c-1.1351929-28.0298538-1.1902161-56.0910645-0.0989761-84.3641663
		c0.2427979,1.0248528,0.303215,1.8573036,0.3149109,2.7041817c0.1325378,9.5961952,0.3448792,19.1908493,0.4039078,28.7886734
		c0.0331955,5.3980026,0.0728989,10.7960587,0.044075,16.1936798c-0.0390778,7.3174362-0.0977478,14.6355133-0.2456284,21.9513397
		c-0.0840378,4.1575241-0.1418304,8.3153229-0.2250824,12.4727173
		C100.6866684,126.1275024,100.575386,126.8777542,100.5085297,127.6288986z"></path>
	<path d="M182.9608917,44.3649483c1.1682129,28.3245964,1.0982361,56.6461067,0.0523834,84.866272
		c-0.1681366-1.4029846-0.2775116-2.9107513-0.3000793-4.4295273c-0.1455231-9.7927094-0.305542-19.5849686-0.3993835-29.3786392
		c-0.0559082-5.8362732-0.0840759-11.6719513-0.0541687-17.507576c0.0336151-6.5554657,0.0822449-13.1119995,0.2414551-19.6652184
		c0.0864105-3.5562134,0.1082153-7.1135635,0.223465-10.6686974
		C182.7593689,46.5079269,182.879715,45.4370728,182.9608917,44.3649483z"></path>
	<path d="M167.3947144,93.3921432c1.1216583,28.4430847,1.0718689,56.8943253,0.0145874,85.4314194
		C166.5401306,168.2858887,166.3641968,107.342453,167.3947144,93.3921432z"></path>
	<path d="M84.9100418,194.3564301c-0.6096725-14.2683716-0.8971558-28.5764465-0.8979797-42.8905945
		c-0.000824-14.2898712,0.286026-28.5744629,0.8085175-42.736763c0.2494583,0.4779205,0.2552109,1.1340942,0.2649689,1.7950287
		c0.1639709,11.115303,0.3665009,22.2295609,0.446312,33.3466263c0.0818253,11.3973999-0.1069412,22.7909698-0.1889267,34.1860809
		c-0.0287552,3.9978943-0.1357956,7.9953766-0.2296066,11.9925385
		C85.0796051,191.4858398,84.9797287,192.9207764,84.9100418,194.3564301z"></path>
	<path d="M123.7842407,52.0649185c0.346199,0.2103271,0.254837,0.4722176,0.2615585,0.6857452
		c0.0917892,2.9167061,0.1612625,5.8341484,0.2597351,8.7506218c0.2159042,6.3948784,0.1905441,12.7937737,0.327301,19.189373
		c0.1419601,6.6382751,0.1449203,13.2761917,0.0425873,19.9121323c-0.0733643,4.757576-0.068306,9.5162582-0.1864166,14.2729111
		c-0.1399078,5.634758-0.3047028,11.2689133-0.4611816,16.9032593c-0.0054626,0.1968384-0.0371475,0.3929596-0.0638657,0.662796
		c-0.4839249-0.2443085-0.3040009-0.6531677-0.3117065-0.9479523c-0.0919571-3.517067-0.1718979-7.0345383-0.2328644-10.5522995
		c-0.2640686-15.2346191-0.3581085-30.4702682-0.215126-45.7066727c0.0480499-5.11763,0.1207504-10.2356949,0.2579193-15.3515167
		c0.0610809-2.2779808,0.1020355-4.5560341,0.1544342-6.8340111
		C123.6237488,52.7395134,123.5552826,52.4124565,123.7842407,52.0649185z"></path>
	<path d="M171.7214813,282.5404053c-0.7525787-28.5418243-0.8571472-57.2940674-0.0005798-85.8978577
		c0.148468,0.4295044,0.238205,1.0282745,0.2535095,1.6500549c0.1080933,4.3946075,0.20784,8.7895813,0.3498383,13.1831665
		c0.2466736,7.6316223,0.2057648,15.2666473,0.3143311,22.899765c0.1313171,9.2338867-0.0917358,18.4643555-0.1781464,27.695816
		c-0.0545654,5.8327026-0.2916412,11.6638184-0.4528046,17.4954529
		C171.9780426,280.6368408,172.0269928,281.7155151,171.7214813,282.5404053z"></path>
	<path d="M139.30159,114.7029648c0.6036835,3.5311356,0.4053497,6.9792175,0.5195313,10.4043198
		c0.2223358,6.6698608,0.3671417,13.3439331,0.3856201,20.0198822c0.015152,5.475296,0.1670227,10.950119,0.1058655,16.4261169
		c-0.0709534,6.3547668-0.1207428,12.7099304-0.2344513,19.0639343c-0.0936584,5.2332764-0.2653046,10.4651794-0.4099579,15.6974792
		c-0.0089569,0.3248138,0.0802917,0.6930695-0.4001617,1.2113647c-0.3309784-14.0195465-0.5238037-27.7688141-0.5337372-41.5227203
		C138.7243805,142.2537231,139.022049,128.5094757,139.30159,114.7029648z"></path>
	<path d="M135.000824,219.1053619c-0.8759155-12.9219513-0.9636383-72.1879883-0.0275726-84.6685333
		C135.9590607,141.0189514,135.9946899,204.9239502,135.000824,219.1053619z"></path>
	<path d="M135.0296936,102.9174957c-0.771759-9.1890869-0.8963928-58.8619766-0.3266907-76.8862915
		c0.0999603-3.1628265,0.5588684-2.9983749,0.5869598-1.4087391c0.0924683,5.236021,0.2563477,10.470314,0.3638306,15.7060432
		c0.2388611,11.6345367,0.2334442,23.2686768,0.0960846,34.9027252c-0.0839844,7.1141968-0.2916565,14.2270355-0.4635315,21.3400192
		C135.2352295,98.6874924,135.1171265,100.802124,135.0296936,102.9174957z"></path>
	<path d="M96.1309814,231.9245148c-0.2229691-0.4786224-0.2737732-1.101944-0.287674-1.737854
		c-0.1179276-5.3946991-0.1929779-10.7909393-0.377182-16.1834412c-0.2689362-7.8733063-0.2191544-15.7485199-0.2456665-23.6232605
		c-0.0271912-8.0737305-0.0213699-16.1480408,0.1487503-24.2203979c0.1296921-6.1532898,0.3191452-12.3053131,0.4853821-18.4578247
		c0.0158005-0.5851135-0.0232544-1.1853943,0.2715149-1.6438141
		C96.9578857,174.6766663,96.8576126,203.354599,96.1309814,231.9245148z"></path>
	<path d="M96.1319733,30.3410606c0.826973,28.5583382,0.7220078,57.1533241-0.0021439,85.707077
		c-0.2138367-0.5964355-0.2764969-1.2585526-0.2908401-1.9357224c-0.1169281-5.5153122-0.1902313-11.03228-0.3809433-16.5451431
		c-0.2654953-7.6744995-0.2243118-15.3507233-0.2320862-23.0263519c-0.007988-7.8745575,0.0263824-15.7499046,0.136116-23.6236
		c0.0879974-6.314312,0.3154602-12.6266899,0.4842987-18.939846C95.8617401,31.4029446,95.8165283,30.8122711,96.1319733,30.3410606
		z"></path>
	<path d="M59.873806,178.0468597c-1.0802727-28.6867676-1.1292648-57.3723831,0.002224-86.0952454
		C60.887619,107.8823547,60.6914864,165.4391937,59.873806,178.0468597z"></path>
	<path d="M130.4215088,116.265564c-0.7361755-28.7162628-0.8429108-57.4425545-0.0018616-86.1110687
		c0.2536469,0.8226585,0.284256,1.7307377,0.2982025,2.6448441c0.0847015,5.5547523,0.2696228,11.1073227,0.3985748,16.661068
		c0.3377991,14.5497437,0.252121,29.0991898,0.0876465,43.6483307c-0.0812836,7.192215-0.3435669,14.3823471-0.5136414,21.5736771
		C130.6772003,115.2425079,130.550766,115.7696457,130.4215088,116.265564z"></path>
	<path d="M48.8067093,170.9667053c0.8912582,28.6602478,0.7849579,57.3409729,0.0533295,85.984375
		c-0.2152824-1.0554047-0.2978973-2.1615448-0.3122482-3.278244c-0.0724297-5.6361084-0.2571068-11.2699738-0.3864784-16.9047241
		c-0.3304291-14.3921967-0.2486-28.7840271-0.092495-43.1755676c0.0754204-6.9535065,0.3347893-13.9050751,0.5250015-20.857132
		C48.609993,172.1443481,48.7332153,171.5562134,48.8067093,170.9667053z"></path>
	<path d="M178.4139709,257.9363403c-0.7498779-29.0048981-0.8452301-57.7409363-0.0039215-86.5332947
		c0.3119812,1.7001953,0.2962341,3.3674774,0.3496094,5.0296783c0.5478973,17.0634155,0.6679993,34.1314392,0.5133362,51.2015686
		c-0.0521545,5.7555084-0.140213,11.5119171-0.3202362,17.2645264c-0.0912628,2.9163055-0.1162109,5.8336334-0.2146454,8.7494965
		C178.692276,255.0061951,178.5897522,256.3563232,178.4139709,257.9363403z"></path>
	<path d="M130.4894562,231.6159668c-0.8077545-28.5348358-0.9030151-57.0624695-0.071167-85.5197296
		c0.287796,0.5966034,0.2653809,1.3151703,0.2816467,2.029007c0.1303101,5.7133026,0.2459106,11.4269867,0.396698,17.1397552
		c0.3934937,14.9074402,0.2687683,29.8162384,0.0952606,44.7242584c-0.0739136,6.3522644-0.3001404,12.7028961-0.4745789,19.053772
		C130.6937103,229.9021301,130.5679321,230.7583771,130.4894562,231.6159668z"></path>
	<path d="M48.8048897,55.1854477c0.8937874,28.6271515,0.784111,57.2506027,0.0561371,85.7867508
		c-0.3007278-1.1378937-0.2908325-2.3954163-0.3185387-3.6489716c-0.1192665-5.3964081-0.2152023-10.7934494-0.3589134-16.1892166
		c-0.3897934-14.6350021-0.268692-29.2715225-0.1101112-43.9071732c0.0693016-6.3956528,0.3057022-12.7896271,0.4857101-19.1838112
		C48.5860329,57.0889511,48.7203064,56.1379013,48.8048897,55.1854477z"></path>
	<path d="M178.4013977,55.415226c0.3206024,1.7038155,0.3043518,3.3817444,0.358078,5.0542717
		c0.5509338,17.149559,0.6688385,34.303772,0.5121613,51.4600754c-0.0518494,5.6776047-0.1139526,11.3573074-0.3222656,17.0305252
		c-0.151001,4.1121521,0.0003357,8.2375946-0.5270081,12.3374939c-0.2545166-9.4976044-0.4658966-18.9970322-0.5399933-28.4989548
		c-0.0745392-9.5586243-0.0653839-19.1173706-0.0157776-28.6762695
		C177.9161835,74.5679016,178.1781158,65.0178223,178.4013977,55.415226z"></path>
	<path d="M171.6453857,163.081192c-0.7011871-27.4416351-0.7301178-54.8835907,0.067276-82.2125702
		c0.2397614,0.5981598,0.2621613,1.3518448,0.2805328,2.1086655c0.1145325,4.7144318,0.1939087,9.4301376,0.3599854,14.1427765
		c0.2520447,7.1524429,0.1676636,14.3080597,0.2825317,21.4614182c0.1463623,9.1138763-0.0964661,18.2245178-0.1707611,27.3362885
		c-0.0420227,5.1533203-0.2614441,10.3052521-0.4115448,15.4575195c-0.0169525,0.5823212-0.1026459,1.1626434-0.1564789,1.7438812
		C171.8130798,163.1065216,171.7292328,163.0938568,171.6453857,163.081192z"></path>
	<path d="M137.208313,121.7228775c1.1319885,28.2146988,1.0859985,56.4232407,0.0217896,84.6317978
		C136.3512268,199.71315,136.320816,133.6495514,137.208313,121.7228775z"></path>
	<path d="M91.5349197,104.1173401"></path>
	<path d="M89.3663025,206.1656036c-0.0857773-0.9342041-0.2243652-1.8670502-0.2485962-2.8028259
		c-0.1365891-5.276062-0.2330399-10.5531616-0.3665695-15.8293152c-0.3693695-14.5947571-0.2865753-29.1910553-0.1113892-43.7865601
		c0.0772476-6.4355774,0.3058929-12.8694611,0.4849548-19.3035889c0.0231857-0.8333359,0.1615524-1.6634827,0.2548904-2.5764694
		C90.2129135,129.5072174,90.2347412,194.1515045,89.3663025,206.1656036z"></path>
	<path d="M57.6766014,86.9150314c0.9288902,28.1328125,0.8346901,56.2795334,0.06604,84.4273605
		c-0.267395-1.7511292-0.2974129-3.514389-0.3502998-5.2789307c-0.5260201-17.5511169-0.6971626-35.1059265-0.472805-52.6628952
		c0.1016655-7.955986,0.3427124-15.9102631,0.5360222-23.8649445
		C57.4768181,88.6608124,57.6004486,87.7884979,57.6766014,86.9150314z"></path>
	<path d="M51.0048447,153.8145447c-1.1277885-22.4618835-1.1498756-65.0963135,0.0005188-86.8127594
		C51.9030495,82.5067062,51.805542,138.3817291,51.0048447,153.8145447z"></path>
	<path d="M176.2379456,270.4390259c-0.8037109-28.8346252-0.8662262-57.6693878-0.0182343-86.504303
		C177.2368011,199.2234497,177.5192566,245.8006134,176.2379456,270.4390259z"></path>
	<path d="M176.2446594,67.7099915c1.187561,28.8563385,1.1374664,57.712616,0.0040436,86.5688171
		C175.4430847,125.422493,175.3595734,96.5662079,176.2446594,67.7099915z"></path>
	<path d="M128.2493591,238.7823181c-0.8031158-28.9285889-0.8736725-57.8572083-0.0110779-86.7858734
		C129.2943115,170.2617493,129.518692,213.1032562,128.2493591,238.7823181z"></path>
	<path d="M51.0103607,269.0070496c-1.1220093-28.6320038-1.1729584-57.2505951,0.0042534-85.8689117
		C51.9077072,211.7653198,51.817894,240.3926544,51.0103607,269.0070496z"></path>
	<path d="M128.2947235,36.0299759c1.1503448,28.8548431,1.0980835,57.7096405,0.000946,86.5644073
		C127.4838943,108.4044876,127.3688278,50.8707161,128.2947235,36.0299759z"></path>
	<path d="M98.2986755,36.0457649c0.8778076,28.9209023,0.7871017,57.7304115,0.0030365,86.5400696
		c-0.1603622-3.2048416-0.3034592-6.4088135-0.406311-9.6158829c-0.5267181-16.4222183-0.5599442-32.8481979-0.4010696-49.2746353
		c0.0718689-7.4313698,0.3124161-14.8612938,0.5031433-22.2911911C98.0433578,39.6166,98.1954422,37.83181,98.2986755,36.0457649z"></path>
	<path d="M98.3043137,151.9460297c0.8749847,28.84552,0.7808685,57.6911316,0.0086517,86.53685
		C97.2919922,222.8512726,96.985321,174.8781281,98.3043137,151.9460297z"></path>
	<path d="M169.5650177,87.3859406c1.1453705,12.6604385,1.1478424,71.1600952,0.0255585,84.6554413
		C168.7389069,166.3019409,168.7014313,97.5928955,169.5650177,87.3859406z"></path>
	<path d="M91.6035461,134.1979675c0.8655853,28.1982574,0.7849579,56.4180908,0.0221939,84.6380157
		C90.5981522,212.1862946,90.5607224,147.8598022,91.6035461,134.1979675z"></path>
	<path d="M44.3166962,43.4685135c0.8867264,27.6282883,0.8429604,55.2770691-0.0138168,82.9255905
		C43.1791115,98.7594147,43.16745,71.1245956,44.3166962,43.4685135z"></path>
	<path d="M86.429245,17.2445641c0.3153458-0.5464249,1.148674-0.9121151,1.1570816-0.5325222
		c0.3054199,13.7946548,0.2877197,27.5913486,0.128067,41.3866959c-0.0559845,4.8370018-0.0335007,9.6778412-0.2196045,14.5116501
		c-0.1624832,4.2204971-0.1043777,8.4414215-0.2485275,12.5097504c-0.2164307-0.7577209-0.2847519-1.6920776-0.3086014-2.6324997
		c-0.1074524-4.2365112-0.1834869-8.4741287-0.3319092-12.7092133c-0.197525-5.6359177-0.1518936-11.2750092-0.2764435-16.9109764
		c-0.1511002-6.8380699-0.1019669-13.6750793-0.0634003-20.5124626c0.0261688-4.6379013,0.1238708-9.2753944,0.1862183-13.9131126
		C86.4574814,18.0429459,86.4374695,17.6436749,86.429245,17.2445641z"></path>
	<path d="M89.4354172,90.4175491c-0.4086914-2.2855988-0.3162155-4.3661957-0.3862686-6.4391098
		c-0.5307388-15.7041626-0.591835-31.4129295-0.5140762-47.1239471c0.0306625-6.1966705,0.233429-12.3894844,0.3116684-18.5848198
		c0.0027618-0.2188148-0.0928345-0.4771595,0.1702652-0.676548c0.7370758,0.203701,0.7458725,0.7890835,0.7546921,1.4042263
		c0.0602341,4.196291,0.1610489,8.3921833,0.1941452,12.5886364c0.0819778,10.3947449,0.0891113,20.789875-0.0057526,31.1845055
		c-0.0554581,6.0754929-0.1679764,12.1505737-0.2771072,18.225441
		C89.6277237,84.0718994,89.5230026,87.1469803,89.4354172,90.4175491z"></path>
	<path d="M137.1448975,91.4347839c-0.2007599-6.9426041-0.2993622-14.0968857-0.4321136-21.2505951
		c-0.276001-14.8741684-0.2030487-29.7473183-0.0530396-44.6208496c0.0137177-1.3598366,0.0534515-2.7206745,0.0836334-4.0816593
		c0.0114746-0.5172768,0.980896-1.3528652,0.9923401-0.9131908c0.4050751,15.5516682,0.3769073,31.1056347,0.1757507,46.6589737
		c-0.0935516,7.2344208-0.344223,14.4667816-0.5139771,21.7003021
		C137.3760376,89.8416748,137.069809,90.7246399,137.1448975,91.4347839z"></path>
	<path d="M139.9449158,16.2507992c0.1595764,1.5533619,0.1686554,3.1126194,0.1808472,4.6716213
		c0.063446,8.1162682,0.172821,16.2325401,0.1735535,24.3488159c0.0005646,6.3967056-0.101059,12.7939949-0.2169342,19.1899452
		c-0.1013336,5.5947647-0.2924042,11.1878586-0.4286957,16.7820511c-0.0338135,1.3875961-0.1583862,2.7613678-0.3451538,3.9360657
		c-0.0686798-3.5580826-0.1400604-7.3017807-0.2148132-11.0454102c-0.0063934-0.3192215-0.0466614-0.6378174-0.0518951-0.9570236
		c-0.2730865-16.5925903-0.3935852-33.1859589-0.2324677-49.7805328c0.0162964-1.6782494,0.1322632-3.356741,0.1071777-5.0337029
		c-0.013855-0.926281,0.2259369-1.6369267,1.0232239-2.1277866L139.9449158,16.2507992z"></path>
	<path d="M141.1131439,16.9791069c0.5464935,0.2058887,0.9389648,0.6046276,1.3022308,1.039938
		c-0.1390686,1.2797718,0.0475311,2.5548077,0.0578156,3.8326321c0.0740051,9.1982994,0.1095734,18.3969955-0.0176697,27.5945854
		c-0.1023102,7.3957253-0.296051,14.7902336-0.464035,22.184948c-0.0398102,1.753273-0.1388397,3.5051956-0.2116394,5.282402
		c-0.3293457-0.1823959-0.2212677-0.4606094-0.229538-0.6851807c-0.0691528-1.8775177-0.1447754-3.755188-0.1791534-5.633522
		c-0.1433868-7.8360786-0.263092-15.6722183-0.3267822-23.5097961c-0.0523071-6.437809-0.1052704-12.8751717-0.0713959-19.3129044
		C140.9918976,24.1743641,141.0646515,20.5767975,141.1131439,16.9791069z"></path>
	<path d="M84.0485229,19.1552601c0.3119659-0.5645409,0.8813782-0.8129654,1.3919373-1.1336651
		c0.0120926,1.1986542,0.0279922,2.3972836,0.0356369,3.5959663c0.0364685,5.7137947,0.1167068,11.427784,0.0944061,17.1413651
		c-0.0299225,7.6720581-0.0649567,15.3455086-0.2402115,23.01511c-0.1268005,5.5491219-0.0138168,11.1062431-0.5114899,16.6508751
		c-0.0876694-2.1367569-0.2080154-4.2727585-0.256813-6.4104004c-0.1413345-6.1917648-0.2374725-12.3845596-0.3814163-18.5762558
		c-0.2563858-11.0284424-0.1557693-22.0574665-0.0947495-33.0865898
		C84.088028,19.9529438,84.0616074,19.5540657,84.0485229,19.1552601z"></path>
	<path d="M164.5203094,31.6128998c1.476181,0.2920685,1.4879303,0.2922192,1.4695435,1.7275658
		c-0.0721893,5.6343117-0.1237488,11.2691002-0.2377319,16.9026031c-0.116394,5.7524452-0.2964172,11.5036125-0.4510193,17.2552757
		c-0.0106964,0.3975067-0.0417175,0.7944717-0.0665588,1.2515564
		C164.853653,67.9364624,164.2398987,34.7315941,164.5203094,31.6128998z"></path>
	<path d="M62.8117828,31.2215118c-0.0807495,12.2464752-0.2988853,24.387619-0.5258713,36.7226334
		c-0.4111214-0.420166-0.2985268-0.7897491-0.3075142-1.0965958c-0.118206-4.0369873-0.1975021-8.0752068-0.3320923-12.1115952
		c-0.2412415-7.2346573-0.2279205-14.4732399-0.3692093-21.7093582
		C61.2505302,31.6658173,61.2685928,31.6654663,62.8117828,31.2215118z"></path>
	<path d="M166.7649689,32.444767c1.3964691,0.3882256,1.4134064,0.3885803,1.3896332,1.5233269
		c-0.1531067,7.3040543-0.2670593,14.6094322-0.4983368,21.9110641c-0.0808411,2.5522957-0.085144,5.108326-0.2891846,7.6587334
		C166.9219055,53.2127762,166.806427,42.881279,166.7649689,32.444767z"></path>
	<path d="M59.8952103,63.09058c-0.1057816-2.5984573-0.2302895-4.9106483-0.2879677-7.2245102
		c-0.1323128-5.3079338-0.2302094-10.6167221-0.3459015-15.9250832c-0.0452232-2.0748825-0.1090279-4.1493874-0.1483612-6.224369
		c-0.0229492-1.2103691-0.0087051-1.21064,1.3886528-1.6406136C60.4579849,42.3607101,60.3103371,52.5965652,59.8952103,63.09058z"></path>
	<path d="M169.5727386,57.037941c-0.3890228-7.9142914-0.3594971-15.8136864-0.5825958-23.730835
		c1.2117004,0.2473984,1.2166443,0.2473984,1.2168579,1.261776c0.0013733,6.7090454-0.34198,13.4109573-0.4202728,20.1184387
		C169.7774506,55.482605,169.5159302,56.2536736,169.5727386,57.037941z"></path>
	<path d="M57.7231293,55.6282082c-0.1625328-1.3204727-0.276329-2.6676941-0.3035393-4.026535
		c-0.1176796-5.8766823-0.2517128-11.7531662-0.4201965-17.6285629c-0.0254745-0.8884392,0.4955292-0.9347916,1.254303-1.0937157
		C58.0541267,40.520134,58.0660858,48.0607491,57.7231293,55.6282082z"></path>
	<path d="M171.3406525,34.1391792c0.7692566-0.0247917,1.0045013,0.2612114,0.9875488,0.8703079
		c-0.1288452,4.6251335-0.2344513,9.2509117-0.3672943,13.8759193c-0.0119934,0.4174232-0.1647797,0.8308067-0.2687836,1.3251266
		C171.5742035,44.8187332,171.4583435,39.5210686,171.3406525,34.1391792z"></path>
	<path d="M55.5611305,49.8952332c-0.3114357-0.2681274-0.2242088-0.5678215-0.2314568-0.8298683
		c-0.1311455-4.7425308-0.2497101-9.485405-0.3809853-14.227932c-0.0166473-0.6015129-0.0251884-1.154644,0.9575691-1.1045113
		C55.79179,39.0933876,55.6772461,44.457695,55.5611305,49.8952332z"></path>
	<path d="M173.8222961,44.7290916c0-3.2615089,0-6.5230179,0-9.7797623
		c0.4101715-0.0557137,0.6028748,0.1326904,0.5742798,0.462635
		C174.1285248,38.5031662,174.4691925,41.627018,173.8222961,44.7290916z"></path>
	<path d="M53.3661423,34.3729591c0,2.3314209,0,4.5414696,0,6.7515182
		c-0.1030502,0.0024567-0.2061081,0.0049095-0.3091583,0.0073624c-0.0220451-1.1421471-0.0295105-2.2848015-0.0690155-3.426342
		C52.8912125,34.9099388,52.8852615,34.9101448,53.3661423,34.3729591z"></path>
	<path d="M176.3000183,35.696949c0,0.9537277,0,1.9074516,0,2.8611794
		C176.3229675,37.6038094,175.9339447,36.6655731,176.3000183,35.696949z"></path>
	<path d="M51.0609894,37.861515c-0.0728874-0.8951988-0.2166901-1.746273,0-2.6002922
		C51.0609894,36.1279831,51.0609894,36.994751,51.0609894,37.861515z"></path>
	<polygon fill="#2744E7" points="180.8230286,167.0991058 180.8447876,167.1893005 180.785553,167.1837921 	"></polygon>
</g>
<g class="" id="gola-primaria" fill="#000000">
	<path d="M149.1925812,8.269743c1.4789734,0.3876724,2.3493805,2.0342646,1.7312012,4.5330067
		c-0.9099579,3.678215-2.8353424,6.8156357-5.4047394,9.5299778c-3.9953766,4.2207642-8.739151,7.4510326-13.9182587,10.0487232
		c-3.3388062,1.6746635-6.8020248,3.0017815-10.489624,3.7210732c-0.9932098,0.1937294-1.9601364,0.0476379-3.0767593,0.2575684
		c0.4946289-1.2373619,1.2379379-2.0655937,1.9698868-2.8885307c3.9273453-4.4155025,8.5215454-8.0824966,13.2001648-11.6443291
		c3.9414825-3.0006256,7.5720367-6.2763567,10.0511169-10.6473789c0.3525085-0.6215115,0.7012787-1.2490177,0.8457642-2.0579758
		c-2.3458862,0.176218-4.645462,0.3526011-6.9456177,0.5209475c-4.1424561,0.3031836-8.2822876,0.6545963-12.4287338,0.8880043
		c-4.7855377,0.2693834-9.5706406,0.6845522-14.3717422,0.4393368c-8.7362823-0.4462032-17.4539948-1.1368093-26.1527786-2.0596113
		c-0.8080521-0.085721-1.1206818,0.0343409-0.7604065,0.9296112c0.6962662,1.7302561,1.7472076,3.2157612,2.9025269,4.6584578
		c3.0095596,3.7582235,6.9055328,6.5180063,10.6006622,9.5057726c3.5164795,2.843298,6.9213791,5.8155155,10.0273743,9.1035366
		c0.847496,0.8971596,1.7670288,1.8083496,2.3009262,3.0927887c-2.3503647,0.0456772-4.5161057-0.4338608-6.6459579-1.064991
		c-7.9543228-2.3570824-14.6627884-6.7960548-20.4383316-12.6342793c-2.5611343-2.5889263-4.6923904-5.5707664-5.5161438-9.2610703
		c-0.0870438-0.3899355-0.1903-0.7768688-0.2612457-1.1696711c-0.3110199-1.7217503,0.0141678-3.1874332,1.6832047-4.0992002
		c0.5586929-0.0352974,0.9663391-0.364903,1.3431702-0.7227721c0.8981323-0.852942,1.9341431-1.6141291,2.6379166-2.6081667
		c2.0089035-2.8373833,4.9349976-3.6040525,8.1188278-3.926898c2.0712814-0.2100314,4.1403732-0.0636327,6.2131424-0.0417281
		c5.4365463,0.0574517,10.8757477,0.1029832,16.3108749-0.0022722c7.9102554-0.153188,15.8177567,0.0332518,23.726326,0.0516684
		c1.225769,0.0028543,2.4586029,0.2772096,3.6743011,0.5012605c1.6950073,0.3123879,3.1126556,1.0528792,4.2329712,2.4699326
		C145.7337341,5.4394965,147.1852722,7.1622701,149.1925812,8.269743z"></path>
</g>
<g class="" id="detalhe-punho" fill="#9e9e9e">
	<path d="M0.24,114.4800034c0.5919054-1.2335434,0.4179677-2.652092,0.9424851-3.9014511
		c2.150069,0.5932236,4.290637,1.2237854,6.452384,1.770607c4.034657,1.0205994,8.1458912,1.4410095,12.2979603,1.7260742
		c6.9401531,0.4764786,13.8509579,0.7901993,20.7246532-0.6410217c1.8087349-0.3766174,1.8973312-0.2366867,2.0599174,1.648941
		c0.1553307,1.8015518,0.408535,3.5946732,0.6187172,5.3915024c-2.8209724,1.4041672-5.8979797,1.7682724-8.9545937,1.8574982
		c-7.625452,0.2226334-15.254734,0.254715-22.807106-1.1541138c-3.0943499-0.5772247-6.1756763-1.1966705-9.1687393-2.1837921
		c-0.7417217-0.2446213-1.4448218-0.6063461-2.1656778-0.9142456C0.24,116.8800049,0.24,115.6800079,0.24,114.4800034z"></path>
	<path d="M184.6485748,120.16436c-0.3896332-2.2296295,0.5984192-4.3210526,0.6636505-6.5102005
		c0.0202332-0.6793976,0.6900787-0.4428711,1.0531616-0.3600006c2.9866028,0.6817627,6.0377197,0.4566269,9.0557098,0.6596832
		c4.9195251,0.3309784,9.7788849-0.2777328,14.646347-1.004715c5.7422943-0.857666,11.4122009-1.8822861,16.7322083-4.322876
		c0.3374023-0.1547775,0.6881561-0.1950684,1.0527191-0.147644c1.1144409,2.3423615,1.1694183,4.8498764,1.0798492,7.3615494
		c-0.0251923,0.7068329-0.7940216,0.8254929-1.3274384,1.0259857c-2.9121094,1.0944824-5.9199219,1.8739319-8.9258881,2.6579895
		c-8.7292328,2.2769089-17.6231537,2.7331924-26.5809174,2.3143158c-2.0183258-0.094368-4.055481-0.3039093-6.0210266-0.8830338
		C185.5387878,120.7968369,185.0050049,120.6445847,184.6485748,120.16436z"></path>
</g>
</svg>
