<!--?xml version="1.0" encoding="utf-8"?-->
<!-- Generator: Adobe Illustrator 24.2.3, SVG Export Plug-In . SVG Version: 6.00 Build 0)  -->
<svg version="1.1" id="Camada_1" xmlns="http://www.w3.org/2000/svg" xmlns:xlink="http://www.w3.org/1999/xlink" x="0px" y="0px" viewBox="0 0 229 418" enable-background="new 0 0 229 418" xml:space="preserve">
<g onclick="select(this)" class="" id="estampa-primaria" fill="#ffffff">
	<path d="M43.1577797,120.4319763c-0.1331444-2.2575073-0.2330475-4.5158005-0.6140976-6.7538605
		c-0.1032143-0.6061935-0.2480927-0.7635117-0.8195343-0.5151901c-2.5753326,1.119133-5.3683243,1.2036667-8.0832443,1.458252
		c-2.4830379,0.2328491-5.0145454-0.0454788-7.5244999-0.1064301c-4.3427734-0.1054459-8.6874218-0.2220306-12.9771452-0.9888382
		c-3.4181538-0.6110153-6.766901-1.4842224-9.9895649-2.8108902c-0.6405647-0.2637024-1.1955985-0.6281204-1.7463299-1.0219345
		c1.7879728-9.4235535,2.6640635-18.9825058,4.2230082-28.4415283C6.4767475,76.091835,6.7928009,70.8532791,7.9045849,65.725502
		c1.7700176-8.1636887,4.5197229-15.8993645,9.5808334-22.6658669c2.0926247-2.7977562,4.4556618-5.3477936,7.1953869-7.5122299
		c1.3634644-1.0771637,2.3610077-2.5717964,3.9242687-3.3982277c3.6051579-1.9058933,7.254427-3.7267208,11.025732-5.281601
		c9.9814262-4.1152573,19.9857483-8.1783485,29.4420929-13.4409914c1.9731445-1.0980968,4.0107269-2.0738554,5.5131912-3.8971462
		c0.8112564-0.9844913,1.9984894-1.5786386,3.3706741-1.5650768c-1.9771576,1.0425472-1.8793793,2.8619375-1.5227661,4.5982809
		c0.6309128,3.0719166,2.1655045,5.7339325,4.1546249,8.1455193c0.4057236,0.4919052,0.723259,0.6197052,1.2625885,0.1770668
		c1.7297974-1.419693,3.4736786-2.823595,5.2473907-4.1877403c0.7435913-0.5718918,0.36306-0.9903536-0.0605392-1.4501514
		c-1.4163742-1.5373764-2.6791687-3.1793976-3.4846725-5.1298161c-0.5081329-1.2303572-0.3975296-1.317688,0.9412537-1.1946383
		c5.3301926,0.4899063,10.6587753,1.0123425,15.9972229,1.3928032c4.8539963,0.3459349,9.7080841,0.9332047,14.5817413,0.7113132
		c6.0604172-0.2759237,12.1149292-0.6910152,18.1692657-1.0873117c3.6225281-0.2371168,7.2398529-0.553256,11.0444489-0.8482122
		c-0.8295288,2.2499552-2.0206604,4.1257906-3.5267029,5.7606192c-0.8570404,0.9303417-0.7557831,1.3719425,0.2361145,2.0526142
		c1.5791626,1.0836601,3.0792694,2.2883301,4.5635376,3.5020809c0.7381134,0.6035995,1.1972656,0.7650604,1.8544006-0.1728249
		c1.9233093-2.7450294,3.5836945-5.5637484,3.7983398-9.025279c0.0914459-1.4749069-0.5164948-2.4436598-1.8510895-3.0015402
		c1.805069-0.1290302,2.9675446,0.9602423,4.0461426,2.170207c0.3426666,0.3844185,0.6612396,0.7431192,1.1118469,1.0379772
		c10.0123901,6.551692,21.2060242,10.6058836,32.1462097,15.183404c3.9640808,1.6586246,7.7821655,3.6280708,11.7518158,5.2684746
		c1.1912231,0.4922543,1.9363098,1.6271305,2.9542084,2.3864155c3.5424194,2.6424065,6.7263947,5.6513519,9.3942413,9.1925812
		c4.8312988,6.412899,7.5744629,13.7281952,9.3175507,21.4774704c0.6493683,2.8869781,1.1865082,5.7985992,1.4688416,8.7432404
		c0.5558167,5.797142,2.2962189,11.3504105,3.422226,17.02948c1.0884094,5.4892731,1.701889,11.0551376,2.752655,16.5493011
		c0.0593719,0.3103943,0.0376434,0.6363068,0.0537109,0.9550934c-3.2987213,1.3235931-6.6597748,2.4349976-10.1315613,3.2337265
		c-3.0367279,0.6986465-6.1237183,1.0777283-9.1846924,1.6170425c-3.0667725,0.540329-6.1685028,0.7683411-9.2889404,0.7493134
		c-4.2289276-0.0257874-8.4828186,0.2864685-12.6547546-0.5902405c-1.20401-0.2530289-1.4316864,0.1222992-1.6246643,1.1130066
		c-0.3781281,1.9411774-0.3158417,3.8887177-0.2612,5.8419342c-0.5772858,2.0070114-0.5196991,4.0956879-0.7766418,6.1436005
		c-0.8968658,7.1481628-1.2922211,14.3308716-1.3661346,21.5326996c-0.0230255,2.241272,0.053009,4.4675293,0.5191193,6.6785278
		c0.4026031,1.9098053-0.0408325,3.8264618-0.2037506,5.7315216c-0.1810303,2.1169586-0.2709503,4.2322845-0.1436157,6.3496399
		c0.1518555,2.5260468-0.2313538,5.0304565-0.2312164,7.5479889c0.0001373,2.5981293-0.0803833,5.1981659,0.181427,7.7913666
		c0.2425995,2.4028473-0.2098846,4.7868652-0.2297363,7.1856842c-0.0187836,2.2715912,0.5240326,4.4370728,1.0009155,6.6177368
		c1.5867004,7.2556152,1.3607025,14.5335388,0.3235474,21.824173c-0.3049164,2.1434021-0.3761597,4.2101135,0.3256531,6.3586731
		c1.7730713,5.4281464,1.8151703,11.0104218,0.9422455,16.6113586c-0.2309113,1.4814911-0.2516632,2.9259796,0.0901947,4.3939362
		c0.8995667,3.862915,0.4402161,7.8049011,0.6498108,11.7084808c0.3148804,5.8646545,0.692749,11.7265015,1.4283295,17.5618286
		c0.2582855,2.0488892,0.2250519,4.1386719,0.2561798,6.2108154c0.0260468,1.7346802-0.3510437,2.2309265-2.0608063,2.7463684
		c-3.0047913,0.9057922-6.1231079,1.1577759-9.223526,1.4821472c-8.3242798,0.8709412-16.6839905,0.8759155-25.0397491,1.0395508
		c-11.5935516,0.2269592-23.1844864,0.7744751-34.7773209,0.7973022c-11.5119324,0.0226746-23.0146637-0.800293-34.5328903-0.855072
		c-8.3569794-0.0397644-16.7155609-0.1084595-25.0554161-0.7390137c-4.2688141-0.3227844-8.5254021-0.7648926-12.7032623-1.7471924
		c-3.5191689-0.8274536-3.8727531-1.1688538-3.6649704-4.7828064c0.4422684-7.692627,0.9992447-15.3787842,1.5412292-23.0653381
		c0.1435623-2.0360107,0.2814865-4.0697174,0.2325592-6.1102753c-0.0442352-1.8449707,0.0390892-3.6795807,0.3708687-5.4958344
		c0.4056892-2.2208862,0.4405899-4.4328766,0.1157837-6.6756897c-0.3647766-2.5188141-0.1090546-5.0327759,0.4354477-7.5070496
		c0.2281456-1.0367126,0.1938744-2.0496063,0.1175346-3.0926819c-0.332428-4.5425568-1.0252762-9.0645905-0.8247719-13.6387939
		c0.189064-4.3131561,1.2074547-8.4562988,2.6664658-12.4943695c0.3753433-1.0388489,0.6211166-2.0308075,0.4566879-3.1429596
		c-0.1816826-1.2288818-0.1624031-2.4731903,0.0706406-3.7033234c0.3156853-1.6663513,0.1932678-3.328949,0.1094208-5.0132446
		c-0.1646271-3.3068085-0.1753082-6.6228333-0.1888924-9.935318c-0.0529137-12.9051971-0.041748-25.8108063-0.1397247-38.7156219
		c-0.0395241-5.2062378-0.9890976-10.3417664-1.5522079-15.5062332
		C43.6154823,122.9787064,43.7590141,121.6430893,43.1577797,120.4319763z"></path>
</g>
<image overflow="visible" width="375" height="114" xlink:href="76A7786A.jpg" transform="matrix(1 0 0 1 -7509 -7808)">
</image>
<g onclick="select(this)" class="" id="estampa-secundaria" fill="#65092d">
	<path d="M184.3506622,37.6849518c3.545166,1.0514679,7.1050873,2.0562019,10.630127,3.1713028
		c2.2421875,0.7092857,1.8471375,0.452137,1.4704895,2.5773659c-0.361557,2.0401917-1.015213,4.1182098-0.8723907,6.1272316
		c0.2393341,3.3660736-1.5456085,5.7723846-3.0838013,8.3636475c-2.6733551,4.5035362-5.3414612,9.0102539-8.0331726,13.5028
		c-3.1455383,5.2499924-6.3304749,10.4763947-9.4688721,15.730629
		c-5.4171448,9.0693207-10.8003235,18.1589355-16.2189636,27.2273483
		c-4.3822632,7.3340302-8.808609,14.641716-13.1921997,21.9749374
		c-5.5796204,9.3340302-11.1333466,18.6835175-16.7029114,28.0235596
		c-4.5556412,7.6396942-9.1077805,15.2815552-13.6804504,22.9110565
		c-5.1061249,8.519577-10.2438278,17.0202179-15.3490067,25.5403442
		c-5.0422363,8.4150848-10.0585022,16.8457336-15.0907059,25.2668304
		c-6.1554947,10.3008575-12.3179092,20.59758-18.4729843,30.8986664c-2.9140205,4.8768921-5.8375168,9.7483826-8.702919,14.6537781
		c-0.3805809,0.6515198-0.7781639,0.8132324-1.4303551,0.6953735c-0.6342888-0.1145935-1.2678185-0.1228027-1.8922768,0.0690918
		c-3.6923027-0.2391968-7.3556519-0.6779175-10.9361458-1.6516418c-3.1773834-0.8641357-3.3543968-1.111908-3.2580795-4.3488159
		c0.0094452-0.3175049,0.0316124-0.6346436,0.0478745-0.9519348c0.1390991-0.8389893,0.8310661-1.3385925,1.2351875-2.0146484
		c4.4097786-7.3772583,8.8463058-14.7384033,13.2474937-22.1208496c2.9666748-4.976181,5.9455719-9.9453278,8.9082031-14.9239197
		c5.560215-9.3437195,11.1832695-18.6497498,16.7396507-27.9957581c2.5522537-4.2929993,5.1470566-8.5609741,7.6940536-12.857193
		c4.9734192-8.3890839,10.0126953-16.7387543,14.9989777-25.1201324c2.6150208-4.3955536,5.283493-8.7592926,7.8828354-13.164093
		c2.1078568-3.571991,4.2207031-7.1414185,6.3516388-10.6991882c2.6059036-4.3507233,5.1938324-8.7123413,7.8098145-13.0570984
		c3.1739731-5.2715302,6.3181534-10.5611038,9.4992142-15.8282471c2.1669312-3.5879669,4.3254242-7.1818542,6.4464722-10.795845
		c2.1008911-3.5796356,4.2562103-7.1266022,6.361084-10.7036972c2.4309845-4.1312408,4.9099121-8.2350769,7.383255-12.3415451
		c3.010025-4.9974823,6.0113983-10.0000229,9.0032196-15.0083923c6.0424042-10.1150856,12.0130463-20.273098,18.1425323-30.3361549
		c0.4571533-0.7504921,0.8455048-1.5436897,1.3729401-2.2506027
		C183.4756012,37.867012,183.7468872,37.4253426,184.3506622,37.6849518z"></path>
</g>
<g onclick="select(this)" class="" id="estampa-terciaria" fill="#db9600">
	<path d="M184.3506622,37.6849518c-1.0680237,0.1635132-1.2395172,1.1958313-1.6558228,1.8823128
		c-3.7759247,6.2264633-7.4741974,12.4999962-11.2046051,18.7541351c-4.5272369,7.5900993-9.065979,15.173336-13.5952606,22.7622261
		c-3.6122894,6.0524673-7.208725,12.1144409-10.8295441,18.1618118c-2.6157837,4.3688278-5.2761078,8.7110214-7.8877563,13.0823212
		c-3.962616,6.6325455-7.8881378,13.2872314-11.8521957,19.9188995c-3.1863098,5.3305054-6.4216614,10.6317139-9.6071472,15.9627228
		c-2.9990768,5.019043-5.9525986,10.0653076-8.9423828,15.08992c-2.9312897,4.9263306-5.8846436,9.8394928-8.8253632,14.7601929
		c-4.2057877,7.0375519-8.4025497,14.0805511-12.6151047,21.1140442
		c-3.4571838,5.7722473-6.9408569,11.5286255-10.3960953,17.3020172
		c-3.3504791,5.5983582-6.6716156,11.2142792-10.0202026,16.8137665
		c-4.2708778,7.1417389-8.5650177,14.2695618-12.833046,21.4130096
		c-3.8979149,6.5239563-7.7866211,13.0534973-11.6487503,19.5986633c-0.6726799,1.1400146-1.5319901,2.1228638-2.3234329,3.1652527
		c-0.2317848-3.1643372,0.4814873-6.2687073,0.5997391-9.4113159c0.2627411-6.9826355,1.2425957-13.924057,1.141777-20.930954
		c-0.0320816-2.2293243,0.3615341-4.44664,0.8816528-6.6251831c4.0960312-6.8294983,8.1919785-13.6592712,12.2882042-20.4888916
		c3.5234108-5.8745575,7.0520821-11.7459412,10.5694084-17.6241302c3.7016907-6.1862793,7.3889847-12.3811951,11.0893555-18.5682678
		c3.9258652-6.5641327,7.8695602-13.1176147,11.787262-19.6865845c3.8151932-6.39711,7.6028824-12.8106079,11.4109268-19.2119751
		c3.2552643-5.4721222,6.5105667-10.9442749,9.7870102-16.403717c4.1411514-6.9002609,8.3108673-13.783371,12.4548492-20.6819382
		c3.3212433-5.5289688,6.6239853-11.069046,9.9322281-16.6058121c5.7397461-9.6061478,11.4851227-19.2089386,17.2132416-28.8220215
		c3.9346771-6.6032639,7.8390656-13.2245712,11.7670593-19.8318214c1.8712006-3.1475182,3.7730865-6.2767982,5.6417999-9.4257622
		c0.2718658-0.4581261,0.4745941-0.7217407,1.1095581-0.5338402c5.4282837,1.6063499,10.7563477,3.5482979,16.267807,4.8765984
		C184.1634674,37.516571,184.2527924,37.6184845,184.3506622,37.6849518z"></path>
</g>
<g onclick="select(this)" class="" id="gola-primaria" fill="#65092d">
	<path d="M77.9566269,7.9643593c0.5433121-0.0630779,0.9717407-0.3532591,1.350502-0.7165484
		c0.9514694-0.9126143,2.0431442-1.7269812,2.8063507-2.778368c1.8071671-2.4894934,4.3550568-3.3576338,7.2143021-3.7527018
		C89.9563141,0.6298947,90.6858826,0.8174522,91.2000046,0.24c1.1999969,0,2.4000015,0,3.5999985,0
		c0.1686554,0.4914433,0.5990219,0.3124902,0.913765,0.3136448c5.5784302,0.0204637,11.156929,0.0201891,16.7353897,0.0350896
		c0.4080505,0.0010899,0.7728119-0.0504993,1.0708466-0.3487343c7.5200043,0,15.0400085,0,22.5599976,0
		c0.0817719,0.475216,0.489212,0.3141541,0.760376,0.3591558c0.9005127,0.1494493,1.8086853,0.251949,2.7122498,0.3838596
		c2.1177368,0.3091633,3.8966217,1.1323714,5.2497864,2.9209824c1.2646942,1.6716552,2.696106,3.2340288,4.5595093,4.3031478
		c1.3345947,0.5578804,1.9425354,1.5266333,1.8510895,3.0015402c-0.2146454,3.4615307-1.8750305,6.2802496-3.7983398,9.025279
		c-0.657135,0.9378853-1.1162872,0.7764244-1.8544006,0.1728249c-1.4842682-1.2137508-2.984375-2.4184208-4.5635376-3.5020809
		c-0.9918976-0.6806717-1.0931549-1.1222725-0.2361145-2.0526142c1.5060425-1.6348286,2.6971741-3.510664,3.5267029-5.7606192
		c-3.8045959,0.2949562-7.4219208,0.6110954-11.0444489,0.8482122c-6.0543365,0.3962965-12.1088486,0.811388-18.1692657,1.0873117
		c-4.8736572,0.2218914-9.7277451-0.3653784-14.5817413-0.7113132C95.1534195,9.9352255,89.8248367,9.4127893,84.4946442,8.922883
		c-1.3387833-0.1230497-1.4493866-0.0357189-0.9412537,1.1946383c0.8055038,1.9504185,2.0682983,3.5924397,3.4846725,5.1298161
		c0.4235992,0.4597979,0.8041306,0.8782597,0.0605392,1.4501514c-1.7737122,1.3641453-3.5175934,2.7680473-5.2473907,4.1877403
		c-0.5393295,0.4426384-0.8568649,0.3148384-1.2625885-0.1770668c-1.9891205-2.4115868-3.5237122-5.0736027-4.1546249-8.1455193
		C76.0773849,10.8262997,75.9796066,9.0069094,77.9566269,7.9643593z"></path>
</g>
<g onclick="select(this)" class="" id="detalhe-punho" fill="#65092d">
	<path d="M0.24,114.7200012c0.5644144-1.1200256,0.4030076-2.3887405,0.7285303-3.5580292
		c0.1369813-0.4920425,0.1239579-1.0281448,0.434833-1.4688873c0.5507314,0.3938141,1.1057652,0.7582321,1.7463299,1.0219345
		c3.2226641,1.3266678,6.5714111,2.1998749,9.9895649,2.8108902c4.2897234,0.7668076,8.6343718,0.8833923,12.9771452,0.9888382
		c2.5099545,0.0609512,5.0414619,0.3392792,7.5244999,0.1064301c2.71492-0.2545853,5.5079117-0.339119,8.0832443-1.458252
		c0.5714417-0.2483215,0.71632-0.0910034,0.8195343,0.5151901c0.3810501,2.23806,0.4809532,4.4963531,0.6140976,6.7538605
		c-0.5687408,0.5572357-1.3228264,0.7422333-2.046627,0.9218826c-2.2505684,0.5586166-4.5424194,0.9628906-6.8576736,1.0065155
		c-7.585247,0.1429214-15.1709824,0.225235-22.6801262-1.1807327c-3.0540991-0.5718384-6.0998974-1.1686096-9.0522776-2.1537399
		c-0.7788508-0.2598801-1.5216964-0.6276627-2.2810755-0.9459C0.24,116.9600067,0.24,115.840004,0.24,114.7200012z"></path>
	<path d="M184.6355591,120.1655731c-0.0546417-1.9532166-0.1169281-3.9007568,0.2612-5.8419342
		c0.1929779-0.9907074,0.4206543-1.3660355,1.6246643-1.1130066c4.171936,0.876709,8.425827,0.5644531,12.6547546,0.5902405
		c3.1204376,0.0190277,6.222168-0.2089844,9.2889404-0.7493134c3.0609741-0.5393143,6.1479645-0.918396,9.1846924-1.6170425
		c3.4717865-0.7987289,6.83284-1.9101334,10.1315613-3.2337265c1.0003052,2.4319,1.2690125,4.9805756,1.1668091,7.5787506
		c-0.0299225,0.7608948-0.7602081,0.8617783-1.2806091,1.065834c-2.5613708,1.0042648-5.226532,1.6836243-7.8749542,2.4055634
		c-9.0441284,2.4652786-18.2762604,3.0461731-27.5913696,2.5964508c-2.0578613-0.0993423-4.1311188-0.3100586-6.1351166-0.890358
		C185.5271606,120.8009644,184.999115,120.6344452,184.6355591,120.1655731z"></path>
</g>
</svg>
