<!--?xml version="1.0" encoding="utf-8"?-->
<!-- Generator: Adobe Illustrator 24.2.3, SVG Export Plug-In . SVG Version: 6.00 Build 0)  -->
<svg version="1.1" id="Camada_1" xmlns="http://www.w3.org/2000/svg" xmlns:xlink="http://www.w3.org/1999/xlink" x="0px" y="0px" viewBox="0 0 229 418" style="enable-background:new 0 0 229 418;" xml:space="preserve">
<style type="text/css">
	.st0{fill:#D80101;}
	.st1{fill:#3247B5;}
	.st2{fill:#9B1117;}
	.st3{fill:#0EF403;}
</style>
<g onclick="select(this)" class="" id="gola-primaria" fill="#000000">
	<path d="M149.2,8.3c1.5,0.7,2.1,2,1.8,3.6c-1,5.5-4.2,9.5-8.3,13.1c-3.7,3.3-7.9,6-12.4,8.1c-3.9,1.9-8,3.2-12.4,3.3
		c0.4-1.1,1.2-1.9,2-2.8c2.3-2.7,5-4.9,7.6-7.3c2.3-1.8,4.5-3.5,6.8-5.3c2.3-1.8,4.5-3.8,6.3-6c1.4-1.7,2.7-3.5,3.5-5.8
		c-3.4,0.3-6.7,0.5-10,0.7c-9.2,0.6-18.4,1.6-27.6,0.9c-3.9-0.3-7.9-0.6-11.8-0.9c-3.5-0.3-7.1-0.6-10.6-1c-0.7-0.1-1,0.1-0.7,0.8
		c0.5,1.3,1.2,2.4,2,3.5c3.9,5.3,9.4,8.8,14.4,13c3.4,3.1,6.9,6.1,9.6,9.8c-1.1,0.6-2.3,0.1-3.3-0.1c-9.6-1.8-17.4-6.9-24.1-13.7
		c-2.5-2.5-4.5-5.4-5.3-9c-0.1-0.4-0.2-0.7-0.2-1.1c-0.3-1.8-0.1-3.3,1.6-4.2c0.5,0,0.9-0.3,1.3-0.6c0.9-0.9,2-1.7,2.7-2.7
		c2-2.9,5-3.7,8.2-3.9c1.7-0.1,3.4-0.1,5.1-0.1c5.8,0.1,11.5,0.1,17.3,0c7.9-0.1,15.8,0.1,23.7,0c0.9,0,1.8,0.2,2.7,0.3
		c2.3,0.3,4.1,1.2,5.6,3.1C146,5.8,147.4,7.3,149.2,8.3z"></path>
</g>
<g onclick="select(this)" class="" id="detalhe-lateral" fill="#bf0811">
	<path d="M189.1,91.9c0,1.3-0.5,2.5-0.8,3.7c-1.4,5.6-2.5,11.2-3.2,16.9c-0.1,0.1-0.2,0.3-0.2,0.4
		c-0.1,2.4-0.2,4.9-0.2,7.3c-1.2,10.3-2.3,20.6-2,30.9c0.1,2.3,0.8,4.6,0.5,7c-0.3,2.5-0.5,5-0.5,7.5c0.1,6.6,0.1,13.2-0.1,19.8
		c-0.1,4.5,0.7,8.7,1.4,13c0.8,5.1,0.9,10.2,0.2,15.4c-0.3,2.3-0.5,4.7-0.8,7c-0.1,0.5,0.1,0.9,0.3,1.3c2,5.8,2.5,11.7,1.5,17.7
		c-0.4,2.6,0.1,5,0.4,7.5c0.2,1.3,0.3,2.5,0.2,3.8c-0.2,7.7,0.7,15.2,1.4,22.8c0.2,2.3,0.3,4.5,0.3,6.8c0,1.1-0.5,1.8-1.5,2.2
		c-1.8,0.7-3.7,1.1-5.7,1.1c-0.4-5-0.6-10-0.8-15.1c-0.3-6-0.5-12-0.7-17.9c-0.2-4.9-0.3-9.7-0.5-14.6c-0.3-7.3-0.3-14.6-0.5-21.9
		c-0.4-17.1-0.2-34.2-0.2-51.3c0-4.8,0.2-9.7,0.5-14.5c0.3-4.8,0.7-9.5,1.1-14.3c0.9-9,2.3-17.8,4.4-26.6c1.2-5,2.6-9.9,4.7-14.6
		C188.6,92.8,188.6,92.3,189.1,91.9L189.1,91.9z"></path>
	<path d="M43,116.7c-0.2-4.9-1.2-9.7-1.8-14.6c-0.2-1.6-0.3-3.3-1-4.8c-0.1-0.2-0.1-0.5,0.2-0.8
		c0.9,2.1,1.5,4.3,2.1,6.5c1.8,5.8,2.9,11.8,3.9,17.9c0.9,5.4,1.6,10.8,2.1,16.3c0.3,3.4,0.5,6.7,0.7,10.1
		c1.3,21.6,0.6,43.1,0.6,64.7c0,3.8-0.1,7.6-0.2,11.4c-0.2,6.3-0.3,12.6-0.5,18.9c-0.2,4.4-0.3,8.8-0.5,13.2
		c-0.2,5.7-0.4,11.3-0.8,17c-0.3,3.8-0.2,7.6-0.7,11.3c-1.6-0.1-3.1-0.5-4.6-1c-2.1-0.7-2.4-1.2-2.3-3.4c0.1-2.6,0.2-5.2,0.4-7.9
		c0.4-5.3,0.7-10.6,1.2-15.9c0.4-4.8-0.1-9.6,0.9-14.3c0.2-0.9,0.1-1.8,0-2.7c-0.5-3.2-0.3-6.3,0.3-9.4c0.2-0.8,0.1-1.6,0.1-2.4
		c-0.3-4.2-0.9-8.3-0.9-12.6c0-4.8,1.1-9.4,2.7-13.9c0.3-1,0.6-1.9,0.5-2.9c-0.2-1.6-0.1-3.1,0.2-4.7c0.1-0.6,0.2-1.3,0.1-1.9
		c-0.1-4.8-0.6-9.7-0.4-14.5c0.3-5.9-0.2-11.8-0.1-17.7c0.2-11.1,0.4-22.2-1.4-33.3c-0.3-1.6-0.3-3.2-0.5-4.8
		C43.5,119.2,43.1,118,43,116.7z"></path>
</g>
<g onclick="select(this)" class="" id="detalhe-punho" fill="#bf0811">
	<path d="M0.2,114.5c0.5-1,0.5-2.2,0.7-3.3c0.1-0.5,0.1-1.1,0.5-1.5c0.9,0.3,1.7,0.7,2.6,1c5.3,1.6,10.6,2.9,16.1,3.2
		c5.9,0.3,11.7,0.4,17.6,0.1c1.3-0.1,2.7-0.2,3.9-0.9c0.5-0.3,0.7,0,0.8,0.4c0.2,1.1,0.1,2.2,0.6,3.3c0.1,1.3,0.6,2.5,0.3,3.8
		c-2.8,1.3-5.9,1.8-9,1.8c-7.1,0.1-14.3,0.3-21.4-0.9c-3.6-0.6-7.1-1.3-10.6-2.4c-0.7-0.2-1.4-0.6-2.2-0.9
		C0.2,116.9,0.2,115.7,0.2,114.5z"></path>
	<path d="M184.6,120.3c0.1-2.4,0.1-4.9,0.2-7.3c0-0.1,0.1-0.3,0.2-0.4c1,0.6,2.1,0.9,3.2,1c5.6,0.3,11.1,0.6,16.7,0
		c4-0.4,7.9-1.1,11.8-2c3.1-0.6,5.9-1.8,9-2.5c0.7-0.2,1.5-0.4,2.1-0.8c0.8,1.9,1.2,3.8,1.2,5.9c0,2.3,0,2.3-2.2,3.1
		c-6.7,2.3-13.6,3.8-20.6,4.4c-6,0.5-12,0.5-18.1-0.2C186.9,121.2,185.6,121,184.6,120.3z"></path>
</g>
<g onclick="select(this)" class="" id="gola-secundaria" fill="#bf0811">
	<path d="M109.4,36c-2.8-3.7-6.3-6.7-9.6-9.8c3.1,0,6.1-0.1,9.2-0.1c6.2,0,12.4,0,18.6,0.1c-2.6,2.4-5.4,4.6-7.6,7.3
		c-0.7,0.9-1.5,1.7-2,2.8c-2.4,0.6-4.8,0.4-7.2,0.2C110.3,36.5,109.8,36.3,109.4,36z"></path>
</g>
<path d="M189.1,91.9c0-0.2,0-0.4,0-0.6C189.5,91.6,189.4,91.8,189.1,91.9C189.1,91.9,189.1,91.9,189.1,91.9z"></path>
<g onclick="select(this)" class="" id="estampa-primaria" fill="#000000">
	<path d="M43,116.7c-0.5-1-0.4-2.2-0.6-3.3c-0.1-0.5-0.2-0.8-0.8-0.4c-1.2,0.7-2.6,0.9-3.9,0.9c-5.9,0.3-11.7,0.2-17.6-0.1
		c-5.6-0.3-10.9-1.6-16.1-3.2c-0.9-0.3-1.7-0.7-2.6-1c1.2-6.5,1.9-13.1,2.9-19.6C5.5,82.4,6.2,74.6,7.7,67
		c1.6-8.5,4.4-16.6,9.6-23.7c2.1-2.9,4.6-5.6,7.4-7.8c1.3-1.1,2.3-2.5,3.8-3.3c3.6-1.9,7.3-3.7,11-5.3c10-4.1,20-8.2,29.5-13.4
		c2-1.1,4-2.1,5.5-3.9c0.8-1,2.1-1.7,3.5-1.6c-1.7,1-2,2.5-1.6,4.2c0.1,0.4,0.2,0.7,0.2,1.1c0.8,3.6,2.8,6.5,5.3,9
		c6.7,6.8,14.5,11.9,24.1,13.7c1,0.2,2.2,0.6,3.3,0.1c0.4,0.3,0.9,0.5,1.4,0.6c2.4,0.2,4.8,0.4,7.2-0.2c4.4-0.1,8.5-1.4,12.4-3.3
		c4.5-2.1,8.6-4.8,12.4-8.1c4.1-3.6,7.3-7.6,8.3-13.1c0.3-1.6-0.3-2.9-1.8-3.6c1.9-0.3,3.1,0.9,4.2,2.1c0.4,0.4,0.7,0.8,1.2,1.1
		c8.9,5.9,18.8,9.6,28.5,13.7c5.1,2.1,10,4.4,15.1,6.6c0.3,0.1,0.6,0.3,0.8,0.5c12.4,8.8,19.4,20.8,21.6,35.7
		c1.4,9.5,3.7,18.7,5.3,28.2c0.7,4.1,1.3,8.1,1.9,12.2c-0.7,0.4-1.4,0.7-2.1,0.8c-3,0.7-5.9,1.9-9,2.5c-3.9,0.8-7.8,1.5-11.8,2
		c-5.6,0.6-11.1,0.3-16.7,0c-1.1-0.1-2.2-0.4-3.2-1c0.8-5.7,1.8-11.3,3.2-16.9c0.3-1.2,0.9-2.4,0.8-3.7c0.3-0.2,0.3-0.3,0-0.6
		c0,0.2,0,0.4,0,0.6c-0.5,0.3-0.6,0.9-0.8,1.4c-2,4.7-3.5,9.6-4.7,14.6c-2.1,8.8-3.6,17.6-4.4,26.6c-0.5,4.8-0.8,9.5-1.1,14.3
		c-0.3,4.8-0.5,9.6-0.5,14.5c0,17.1-0.3,34.2,0.2,51.3c0.2,7.3,0.3,14.6,0.5,21.9c0.2,4.9,0.3,9.7,0.5,14.6c0.2,6,0.5,12,0.7,17.9
		c0.2,5,0.4,10,0.8,15.1c-7.7,1.1-15.4,1.4-23.1,1.5c-12.9,0.2-25.8,0.6-38.7,0.9c-6.8,0.2-13.5-0.5-20.3-0.6
		c-8.7-0.1-17.4-0.3-26.2-0.4c-8-0.2-16.1-0.4-24-1.6c-0.3,0-0.6-0.1-0.8-0.2c0.5-3.8,0.5-7.6,0.7-11.3c0.4-5.6,0.6-11.3,0.8-17
		c0.1-4.4,0.3-8.8,0.5-13.2c0.3-6.3,0.4-12.6,0.5-18.9c0.1-3.8,0.2-7.6,0.2-11.4c0-21.6,0.6-43.1-0.6-64.7
		c-0.2-3.4-0.5-6.7-0.7-10.1c-0.5-5.5-1.1-10.9-2.1-16.3c-1-6-2.1-12-3.9-17.9c-0.7-2.2-1.2-4.4-2.1-6.5c-0.4,0.3-0.3,0.6-0.2,0.8
		c0.7,1.5,0.8,3.2,1,4.8C41.7,107,42.8,111.8,43,116.7z"></path>
	<path d="M127.6,26.2c-6.2,0-12.4-0.1-18.6-0.1c-3.1,0-6.1,0.1-9.2,0.1c-5-4.1-10.4-7.7-14.4-13c-0.8-1.1-1.5-2.3-2-3.5
		c-0.3-0.8,0-0.9,0.7-0.8c3.5,0.3,7.1,0.7,10.6,1c3.9,0.3,7.9,0.6,11.8,0.9c9.2,0.7,18.4-0.3,27.6-0.9c3.3-0.2,6.6-0.5,10-0.7
		c-0.8,2.2-2.1,4-3.5,5.8c-1.9,2.3-4,4.2-6.3,6C132.1,22.7,129.8,24.4,127.6,26.2z"></path>
</g>
<path d="M38.4,90C38.4,90,38.4,90,38.4,90C38.3,90,38.4,90,38.4,90C38.4,90,38.4,90,38.4,90z"></path>
<g onclick="select(this)" class="" id="estampa-secundaria" fill="#bf0811">
	<path d="M47.2,283.7c0.1-0.8,0.2-1.7,0.3-2.5c0.4,0,0.9,0,1.3,0c43.3,0,86.6,0,129.8,0c0.4,0,0.9,0,1.3,0
		c0,1,0.4,1.9,0.2,2.8c-0.1,0-0.2,0-0.3,0c-1.4,0-2.8,0-4.2,0c-40.5,0-81,0-121.5,0c-1.4,0-2.7,0-4.1,0
		C49.2,284.1,48.2,283.9,47.2,283.7z"></path>
	<path d="M44.2,108.9c-0.3-0.9-0.5-1.8-0.8-2.7c0.4,0,0.9,0,1.3,0c9.4,0,18.8,0,28.2,0c36.5,0,73.1,0,109.6,0
		c0.5,0,1,0,1.6,0c-0.3,0.9-0.5,1.8-0.8,2.7c-0.6,0-1.1,0-1.7,0c-39.8,0-79.7,0-119.5,0C56.2,108.9,50.2,108.9,44.2,108.9z"></path>
	<path d="M182.6,112.3c-45.9,0-91.8,0-137.7,0c-0.2-0.9-0.4-1.9-0.7-2.8c0.5,0,1-0.1,1.4-0.1c45.4,0,90.8,0,136.1,0
		c0.5,0,1,0,1.4,0.1C183,110.4,182.8,111.4,182.6,112.3z"></path>
	<path d="M177.5,208.3c-0.5,0-0.9,0.1-1.4,0.1c-41.5,0-83.1,0-124.6,0c-0.5,0-0.9-0.1-1.4-0.1c0-0.9,0-1.8,0-2.8
		c0.4-0.2,0.9-0.1,1.3-0.1c41.6,0,83.2,0,124.9,0c0.4,0,0.9-0.1,1.3,0.1C177.5,206.5,177.5,207.4,177.5,208.3z"></path>
	<path d="M47.8,129.9c0.3,0,0.6,0,1,0c41.9,0,83.7,0,125.6,0c1.8,0,3.6,0,5.4,0.1c-0.3,0.9,0,1.9-0.4,2.8
		c-0.4,0-0.8,0-1.2,0c-42.9,0-85.8,0-128.7,0c-0.4,0-0.9,0-1.3,0C48,131.7,47.9,130.8,47.8,129.9z"></path>
	<path d="M48.7,256c0.3,0,0.6,0,1,0c42.8,0,85.7,0,128.5,0c0.2,0,0.4,0,0.6,0c0.3,0.9,0.3,1.9,0.2,2.8
		c-43.5,0-87,0-130.5,0C48.4,257.9,48.5,256.9,48.7,256z"></path>
	<path d="M49.5,230.8c0.3,0,0.6,0,0.8,0c6,0,11.9-0.1,17.9-0.1c36.2,0.2,72.4,0,108.6,0.1c0.4,0,0.8,0,1.2,0
		c0,0.9,0,1.8,0,2.7c-0.5,0-1,0-1.4,0c-41.9,0-83.8,0-125.7,0c-0.5,0-1,0-1.4,0C49.5,232.7,49.5,231.7,49.5,230.8z"></path>
	<path d="M177.8,157.9c-0.5,0-1,0.1-1.4,0.1c-41.7,0-83.3,0-125,0c-0.5,0-1.2,0.3-1.4-0.3c-0.2-0.7-0.1-1.6,0-2.4
		c0-0.2,0.3-0.2,0.5-0.3c0.3,0,0.6,0,1,0c41.7,0,83.3,0,125,0c0.5,0,1,0,1.4,0.1C177.8,156,177.8,156.9,177.8,157.9z"></path>
	<path d="M177.5,183.1c-0.5,0-1,0.1-1.6,0.1c-26,0-51.9,0-77.9,0c-15.6,0-31.1,0-46.7-0.1c-0.4,0-1.1,0.3-1.3-0.3
		c-0.2-0.7,0-1.5,0-2.3c0-0.2,0.3-0.2,0.5-0.2c0.4,0,0.7,0,1.1,0c23.9,0,47.8,0.1,71.6,0c17.5-0.1,35,0,52.6-0.1c0.5,0,1,0,1.6,0
		C177.5,181.2,177.5,182.2,177.5,183.1z"></path>
	<path d="M42.3,102c-0.4-0.7-0.6-1.5-0.7-2.3c33.1,0,66.3,0,99.4,0c15,0,30,0,45,0c-0.2,0.8-0.3,1.6-0.7,2.3
		c-0.6,0-1.1,0-1.7,0c-36.4,0-72.8,0-109.2,0C63.7,102,53,102,42.3,102z"></path>
	<path d="M43.3,105.5c-0.3-0.8-0.5-1.6-0.8-2.5c0.5,0,1-0.1,1.5-0.1c10.4,0,20.8,0,31.2,0c36.1,0,72.2,0,108.3,0
		c0.5,0,1,0.1,1.4,0.1c-0.2,0.8-0.5,1.6-0.7,2.4c-0.3,0-0.6,0-0.8,0C136.7,105.4,90,105.4,43.3,105.5z"></path>
	<path d="M40.5,96.5c0.4-0.3,0.8-0.2,1.3-0.2c37.6,0,75.2-0.1,112.7,0c10.5,0,20.9,0,31.4,0.1c0.4,0,0.7,0.1,1.1,0.1
		c-0.2,0.6-0.4,1.3-0.6,1.9c-10.8,0.1-21.6,0.1-32.4,0.1c-32,0.1-64,0-96,0c-5.6,0-11.3,0-16.9,0C41,97.9,40.6,97.3,40.5,96.5z"></path>
	<path d="M187.5,95.1c-10.7,0-21.4,0-32,0c-0.4,0-0.8,0-1.2,0c-31.6,0-63.1,0-94.7,0c-6.2,0-12.5,0-18.7,0
		c-0.4,0-0.9,0.2-1.2-0.5c-0.6-1.3-0.5-1.5,0.9-1.5c37.7,0,75.3,0,113,0c11.1,0,22.2,0,33.2,0.1c0.5,0,1.1-0.3,1.4,0.4
		C188,94.1,187.8,94.6,187.5,95.1z"></path>
	<path d="M189,91.7c-0.5,0-1,0-1.4,0c-33.3,0-66.6,0-99.8,0c-15.9,0-31.8,0-47.8,0c-0.4,0-0.9,0.2-1.2-0.2
		c-0.2-0.4-0.5-0.8-0.3-1.2c0.2-0.4,0.6-0.2,1-0.2c0.1,0,0.2,0,0.2,0c11.9,0,23.8-0.1,35.8-0.1c37.7,0,75.3,0.1,113,0.1
		c0.7,0,1.5-0.2,0.9,1C189.2,91.2,189.1,91.4,189,91.7z"></path>
	<path d="M114.4,86.6c25.2,0,50.5,0,75.7,0c0.6,0,1.3-0.3,1.2,0.9c0,0.5-0.3,0.3-0.5,0.4c-0.5,0.4-1,0.3-1.5,0.3
		c-19.6,0-39.3,0-58.9,0c-30.5,0-61,0-91.4,0c-0.4,0-0.8,0-1.2,0c-0.7,0-0.6-0.5-0.6-0.9c0-0.5,0.2-0.6,0.6-0.6c0.3,0,0.6,0,1,0
		C64,86.6,89.2,86.6,114.4,86.6C114.4,86.6,114.4,86.6,114.4,86.6z"></path>
	<path d="M114.1,84.8c-25.6,0-51.3,0-76.9,0c-0.4,0-0.7,0-1-0.1c-0.3-0.1-0.2-0.6-0.2-0.9c0.1-0.5,0.5-0.3,0.8-0.3
		c2.5,0,5,0,7.4,0c48.8,0,97.6,0,146.4,0c0.3,0,0.6,0,1,0c0.4,0,1-0.2,1,0.6c0,0.8-0.6,0.6-1,0.6c-9.2,0-18.5,0-27.7,0
		C147.2,84.8,130.7,84.8,114.1,84.8C114.1,84.8,114.1,84.8,114.1,84.8z"></path>
	<path d="M114.1,80.2c26,0,52,0,78,0c0.5,0,1.3-0.4,1.4,0.4c0.1,1-0.9,0.6-1.4,0.6c-52,0-104,0-156,0
		c-0.2,0-0.3,0-0.5,0c-0.4-0.1-1.1,0.3-1.1-0.5c0-0.8,0.7-0.5,1.1-0.5C61.8,80.2,88,80.2,114.1,80.2z"></path>
	<path d="M113.6,74.4c-26.5,0-52.9,0-79.4,0c-0.4,0-1.3,0.4-1.3-0.3c0-0.8,0.8-0.4,1.3-0.4c52.9,0,105.9,0,158.8,0
		c0.5,0,1.4-0.4,1.4,0.4c0,0.6-0.9,0.3-1.3,0.3C166.6,74.4,140.1,74.4,113.6,74.4z"></path>
	<path d="M113.9,77.8c-26.4,0-52.8,0-79.2,0c-0.5,0-1.3,0.4-1.3-0.4c0-0.7,0.9-0.3,1.3-0.3c52.3,0,104.6,0,156.9,0
		c0.8,0,1.5,0,2.3,0c0.3,0,0.5,0,0.5,0.4c0,0.3-0.2,0.4-0.5,0.4c-0.3,0-0.6,0-1,0C166.6,77.8,140.3,77.8,113.9,77.8z"></path>
</g>
</svg>
