<!--?xml version="1.0" encoding="utf-8"?-->
<!-- Generator: Adobe Illustrator 24.2.3, SVG Export Plug-In . SVG Version: 6.00 Build 0)  -->
<svg version="1.1" id="Camada_1" xmlns="http://www.w3.org/2000/svg" xmlns:xlink="http://www.w3.org/1999/xlink" x="0px" y="0px" viewBox="0 0 229 418" enable-background="new 0 0 229 418" xml:space="preserve">
<g onclick="select(this)" class="" id="estampa-primaria" fill="#bf0811">
	<path d="M228.9600067,116.093399c-6.8571014,2.7822495-14.0121155,4.3370743-21.3362427,5.2273712
		c-6.1868591,0.7520599-12.368454,0.6976852-18.5519867,0.0140381c-1.5454559-0.1708679-3.0968781-0.3538818-4.5782013-1.2677536
		c-0.2199554,2.0793762-0.4086456,4.0580902-0.6417084,6.0315781c-0.8538513,7.2303009-1.2928009,14.4857788-1.360672,21.7647858
		c-0.0205078,2.2003937,0.0623932,4.3856812,0.517807,6.556076c0.4091797,1.9500275-0.1010284,3.8995209-0.1977386,5.8493652
		c-0.0355988,0.717926-0.1707764,1.4362183-0.1483612,2.1508484c0.2055359,6.549881-0.5930634,13.0964661-0.0467377,19.6483002
		c0.1228333,1.4733582,0.0373993,2.9524689-0.128479,4.4282837c-0.3486176,3.1020355,0.1955414,6.1179047,0.8783569,9.133194
		c1.6395416,7.239975,1.3817749,14.5227966,0.3444061,21.8104858c-0.3048859,2.1419525-0.3785248,4.2077332,0.3238068,6.355957
		c1.7737885,5.4254761,1.8165588,11.0054626,0.943222,16.6040192c-0.2310028,1.4808197-0.2509308,2.9245453,0.0898895,4.3920746
		c0.8876038,3.8216553,0.4447784,7.7210388,0.6464539,11.5834961c0.308197,5.9023438,0.6915741,11.8015137,1.4323425,17.6740112
		c0.2583313,2.0479736,0.224884,4.1368713,0.2556305,6.2081604c0.0256958,1.7302551-0.3531799,2.2260742-2.0658417,2.7414246
		c-3.0054626,0.9043579-6.1238403,1.1594543-9.2250977,1.4795837c-7.6872864,0.7935486-15.4051208,0.8666382-23.123642,1.0108948
		c-11.2354126,0.2099304-22.4668884,0.6517639-33.7026749,0.8135376c-12.4787674,0.179657-24.936409-0.845459-37.4167862-0.8475647
		c-8.3977737-0.0014343-16.797905-0.1000061-25.1787109-0.73526c-4.1492081-0.3144531-8.2847404-0.7519226-12.3537483-1.6697083
		c-0.1560364-0.0351868-0.3138123-0.0631714-0.4689255-0.1018372c-3.3675385-0.8405762-3.729023-1.1849976-3.5259438-4.6595764
		c0.4517288-7.7287292,1.0040855-15.4518127,1.5478287-23.174942c0.1460991-2.0751343,0.2783318-4.1479645,0.2284355-6.2277222
		c-0.0423241-1.7640381,0.0424042-3.5182648,0.3600349-5.2543335c0.4133606-2.2592926,0.4568634-4.5092621,0.1249275-6.7918701
		c-0.3660889-2.5175629-0.0983963-5.0300446,0.4432831-7.5034943c0.2180901-0.9958496,0.195961-1.9692535,0.1215553-2.9723206
		c-0.336792-4.5404205-1.0248642-9.0607758-0.8374214-13.6324158c0.1784706-4.3526611,1.2044525-8.5330353,2.6853447-12.6053009
		c0.3780708-1.0396423,0.6012306-2.0360565,0.4378281-3.144928c-0.1810989-1.2289734-0.1553574-2.4728088,0.0793152-3.7015228
		c0.3182716-1.6664276,0.183197-3.3283997,0.0996132-5.0111847c-0.1621933-3.2655487-0.1713448-6.5402069-0.1846046-9.8113403
		c-0.0524673-12.9395447-0.0425491-25.8795013-0.1395607-38.8186798c-0.038414-5.1238098-0.9970284-10.1758575-1.5123215-15.2630005
		c-0.131218-1.295433-0.3165131-2.5854034-0.4659805-3.7894058c-8.7987175,2.5404205-17.7214336,1.9815598-26.6416473,1.1304092
		c-4.741806-0.452446-9.4219036-1.3161163-13.9765768-2.7638702C1.8316439,118.6739197,0.9756763,118.3496017,0.24,117.772438
		c0-1.0394058,0-2.078804,0-3.1182098c0.3886503-0.0979767,0.2689478-0.4427795,0.3153924-0.6888885
		c0.3441262-1.8235321,0.6675487-3.6509476,1.0076697-5.4752502c1.8599573-9.9762039,2.9367695-20.0686417,4.416398-30.1010056
		C6.8598299,72.419899,7.5262547,66.427742,9.1545849,60.5976868c2.7158356-9.7237396,7.3670483-18.2610435,15.2138138-24.8508644
		c1.1002979-0.9240494,2.1522732-1.908123,3.1921444-2.9004936c0.5942116-0.5670662,1.2593575-1.017168,1.9867916-1.3651505
		c6.4953289-3.1071453,13.1113338-5.9370537,19.7744732-8.6652718c7.6037102-3.1133347,15.0100632-6.6465206,22.1374359-10.7465782
		c1.0358582-0.5958872,1.9914551-1.2535591,2.7835236-2.2022896c0.9345245-1.11936,2.1475449-1.9064846,3.7101288-1.9072599
		c-1.7067108,1.2581644-2.0866776,2.5338135-1.4845581,4.8333817c0.6667633,2.5464602,1.8320389,4.8321848,3.3867264,6.9568338
		c3.3269501,4.5466557,7.7954407,7.7559929,12.4609528,10.7306004c5.872467,3.7441292,12.360321,5.6922989,19.2632141,6.193306
		c5.2147064,0.378479,10.325737-0.3682213,15.2560577-2.1380272c2.6556473-0.9532814,5.1916733-2.1917076,7.64991-3.5758228
		c3.8891907-2.1898117,7.415802-4.8881588,10.5701141-8.0235748c2.838089-2.8211002,5.0895844-6.0975189,5.9576111-10.0776253
		c0.5877533-2.6949081,0.2448578-3.7869673-1.6442871-4.6568136c1.8040009-0.123147,2.9554596,0.9744577,4.0511017,2.1698017
		c0.2662506,0.2904806,0.4252472,0.6620398,0.7931213,0.8793755c3.9738922,2.3477592,7.8823395,4.7979689,12.1107788,6.7028666
		c10.4204865,4.6943989,21.101532,8.7826443,31.4798737,13.5730629c0.6920013,0.3194237,1.3066406,0.724474,1.8821259,1.2149258
		c1.0639801,0.9067917,2.1244659,1.8196297,3.2219086,2.6849899c3.6716614,2.895256,6.8238068,6.2698441,9.3999634,10.1694183
		c4.342453,6.5732765,6.7271576,13.896862,8.2562561,21.5540199c0.9705048,4.8599472,1.1772461,9.8393097,2.3999023,14.6610107
		c1.4536285,5.7324448,2.6221161,11.5251999,3.4730682,17.381134c0.5265961,3.6238251,1.0268097,7.2561493,1.7411194,10.8444443
		c0.1572876,0.7902069-0.1613617,1.8726273,0.7821503,2.458374
		C228.9600067,113.6947784,228.9600067,114.8940887,228.9600067,116.093399z"></path>
	<path d="M144.3056793,9.0716209c-0.8476105,2.2815924-2.0525665,4.1095562-3.492569,5.7695246
		c-6.4125214,7.3919783-14.2939911,12.224164-24.1360626,13.393693c-6.0921783,0.7239323-11.8413162-0.7903843-17.2688675-3.4482021
		c-5.6494904-2.7665043-10.3205185-6.7929859-14.1956177-11.738184c-0.7673187-0.9792147-1.2875595-2.1031981-1.7957001-3.2364836
		c-0.382309-0.8526554-0.112381-1.0213461,0.7168503-0.9401541c3.8547974,0.3774252,7.7088318,0.7718382,11.5699081,1.07374
		c6.369339,0.4980249,12.7413406,1.1686363,19.1342163,1.0081911c8.3439713-0.2094135,16.6710281-0.8258944,24.9881668-1.5415802
		C141.2539825,9.2892904,142.6843262,9.194108,144.3056793,9.0716209z"></path>
</g>
<g onclick="select(this)" class="" id="estampa-secundaria" fill="#801815">
	<path d="M43.3408546,120.4936371c-0.3208694-3.0441971-0.5865974-6.0954514-0.9757195-9.1308975
		c-0.5618362-4.3827362-1.1721992-8.7602539-1.8381691-13.1283569c-0.6280708-4.1195679-2.1121712-7.9974136-3.4174805-11.9350967
		c-1.2271194-3.7017899-3.5710945-6.9968643-4.0602417-10.9365463c-0.3078117-2.479187-0.5045052-4.9726715-0.272274-7.5035934
		c0.1838226-2.0033188,0.1346054-4.0216751-0.1645775-6.0723572c-0.2434692-1.6687698-0.1301727-3.4586449-0.1895485-5.1948242
		c-0.0721779-2.1105804-0.4087753-4.1739655-0.7507458-6.2594414c-0.3213978-1.9600067-0.4312725-3.9921227-0.6981697-5.9881058
		c-0.1307297-0.9776802-0.8477135-2.0799789-0.3353863-2.8887405c0.6156979-0.9719391,2.0135269-1.0183792,3.0811539-1.4196396
		c4.3337326-1.6287918,8.8312111-2.7084236,13.3046379-3.869751c8.8319206-2.2928314,17.432972-5.2203007,25.4681969-9.6132984
		c2.5190125-1.3771877,4.9393234-2.9355698,7.3956604-4.4260921c0.4109879-0.2493858,0.7923584-0.5408325,1.2811356-0.6208515
		c1.3598633,1.2298965,2.5803223,2.6038876,4.015358,3.7595005c3.5826874,2.885067,7.3284225,5.5355492,11.5017853,7.4822617
		c5.5560226,2.5916595,11.4386902,3.8782654,17.5780258,3.9476242c0.4291992,2.6671791-0.1423492,4.7286797-3.1431503,5.4506416
		c-0.720665,0.1733856-0.9724045,0.7799034-0.9451828,1.5841675c0.1275482,3.769516-0.6093445,2.8046799,2.7281876,4.4351158
		c1.066803,0.5211487,1.2752151,1.1724281,1.4035873,2.2863503c0.2516556,2.1837845-0.5061493,3.4748001-2.5858078,4.0713348
		c-1.2120438,0.3476601-1.4933395,1.161026-1.5926895,2.4197311c-0.1562881,1.9801598,0.4282532,3.2166824,2.350174,3.7672768
		c1.4478836,0.4147911,2.0517197,1.3369484,1.7829895,2.8507347c-0.0894699,0.5040283-0.0424652,1.0392914-0.0066376,1.5567322
		c0.0411911,0.5948334-0.15625,1.0056229-0.730423,1.2190018c-0.186348,0.0692596-0.3595734,0.1739349-0.5385208,0.26297
		c-2.9283676,1.4571152-2.9131012,1.4566422-2.8052673,4.7667236c0.0209351,0.6423416,0.2258301,1.0728302,0.8158188,1.3170395
		c0.1104279,0.0457001,0.21315,0.1098785,0.3200378,0.1643143c3.0729065,1.5646439,3.0575409,1.5641174,2.9454346,5.0076294
		c-0.0196304,0.6029892-0.2010345,0.9897995-0.7593079,1.2045975c-0.1856537,0.0714264-0.358017,0.1773682-0.5365601,0.2673035
		c-2.9277267,1.4747849-2.9172974,1.4743576-2.7827148,4.7787399c0.0217285,0.5336914,0.1427078,0.9124374,0.6652298,1.1434631
		c0.4358597,0.1927109,0.8455811,0.4506073,1.2508087,0.7052002c0.6960983,0.4373627,1.8654327,0.4914703,2.0344925,1.3093262
		c0.2537537,1.2275848,0.0929794,2.5428009,0.0860977,3.8206329c-0.0013504,0.2522964-0.2029114,0.4218903-0.4299393,0.5349808
		c-0.2505188,0.1248016-0.4985962,0.2544861-0.7487259,0.3800888c-2.9448471,1.4787827-2.9299316,1.4783707-2.8596344,4.7346115
		c0.0147476,0.6835098,0.1862335,1.1707764,0.8860245,1.3640289c0.0384979,0.0106277,0.0775604,0.0213013,0.1137924,0.0376663
		c3.252182,1.4684906,3.3769226,1.6976089,3.0749283,5.3088608c-0.0374146,0.4474182-0.169426,0.7641296-0.5812454,0.9524841
		c-0.2179565,0.0996933-0.4278259,0.2169418-0.6422195,0.3245316c-3.032074,1.5217972-3.0191422,1.5210724-2.8520279,4.8589706
		c0.0276718,0.5526428,0.2067108,0.8958664,0.7092743,1.1177979c0.4003754,0.1768188,0.7757645,0.411499,1.1576691,0.6285553
		c0.7175293,0.4078217,1.9085541,0.4520645,2.0868607,1.2300415c0.2788849,1.216774,0.0940399,2.5402832,0.101059,3.8186188
		c0.0021744,0.3964539-0.3195038,0.522522-0.5978851,0.6723557c-0.8439713,0.4542618-1.675705,0.935585-2.542511,1.3416977
		c-0.6702423,0.3140182-0.8261108,0.7937164-0.9326553,1.5015411c-0.3514404,2.3347473,0.3490829,3.9165497,2.7632599,4.5476456
		c1.0283051,0.2688293,1.2773056,0.9937363,1.371994,2.0644379c0.1908417,2.1578827-0.2516022,3.6954193-2.601738,4.2545013
		c-1.2122498,0.2884064-1.4744873,1.1687469-1.5675888,2.4192657c-0.1463852,1.9662628,0.394455,3.2213898,2.3454666,3.7418213
		c1.5383148,0.4103241,1.7990265,1.4316406,1.8466721,2.9443207c0.0564499,1.7919769-0.4782181,2.810257-2.1522141,3.3905334
		c-0.6836853,0.2369843-1.7219772,0.416275-1.855896,1.1549835c-0.2242508,1.236969-0.0852432,2.5419159-0.071846,3.8179932
		c0.0026474,0.251709,0.237175,0.4011536,0.4607315,0.5105743c0.1795349,0.0878754,0.3575211,0.1789093,0.535759,0.2694092
		c3.1257172,1.5872498,3.1098709,1.5868988,3.0251465,5.0670166c-0.0147095,0.6044006-0.1780777,0.9936066-0.7553406,1.1888123
		c-0.1499557,0.0507355-0.2861252,0.1418762-0.4292755,0.2131348c-3.0420074,1.5144043-3.0258255,1.5137787-2.8990479,4.92099
		c0.0226822,0.6096191,0.2261353,0.9840546,0.7778625,1.193985c0.1116486,0.04245,0.2167511,0.1024933,0.3238297,0.1565094
		c3.1260834,1.5768127,3.1121826,1.5763702,2.9812851,5.0947571c-0.0206985,0.5563965-0.1937943,0.8809204-0.6955338,1.1122284
		c-0.9071732,0.4182739-1.7833099,0.903595-2.6884079,1.3267059c-0.5000687,0.2337952-0.7474594,0.5724487-0.6851807,1.1260529
		c0.0088806,0.0789948,0.014389,0.1625214-0.0010452,0.2394257c-0.4899139,2.4434662,0.3795776,4.0482788,2.8535233,4.7072754
		c0.927002,0.2469025,1.1301575,0.8785095,1.2584763,1.8492889c0.3157578,2.3885956-0.4777756,3.8715057-2.8218765,4.5043793
		c-1.0496292,0.283371-1.2536392,0.9974365-1.3399887,2.0602417c-0.1695557,2.086792,0.2876587,3.5180206,2.5399933,4.0639038
		c1.1982956,0.2904053,1.5211258,1.1832733,1.6419754,2.4888611c0.2004166,2.1652222-0.5484009,3.3717804-2.5575027,3.9625397
		c-1.1635666,0.3421173-1.5126801,1.0717468-1.6509857,2.3591003c-0.2462769,2.2924194,0.7877579,3.427002,2.7256241,4.0014954
		c1.198494,0.3552856,1.4780502,1.041626,1.429039,2.2040863c-0.146759,3.4814606,0.6013031,2.5839233-2.7116699,4.2102814
		c-1.0526581,0.5167694-1.3198242,1.1410522-1.4222107,2.2758636c-0.1768417,1.9601898,0.3686447,3.237381,2.321228,3.7807465
		c1.5188141,0.4226685,1.8418121,1.432312,1.8547363,2.954895c0.0144958,1.710083-0.2310486,2.8703461-2.0851746,3.3977661
		c-0.6883392,0.1958466-1.7754211,0.4630127-1.9224091,1.2557678c-0.221405,1.1942444-0.1310806,2.4681854-0.0163651,3.6935425
		c0.0561676,0.6000061,0.7820358,0.8055878,1.2916489,0.952179c2.2420731,0.6450043,3.0096741,2.0578766,2.7207489,4.3531189
		c-0.1241226,0.9860382-0.3220673,1.6667633-1.2405777,2.0519562c-0.0735397,0.0308228-0.1390381,0.0894012-0.214592,0.1056519
		c-2.5588989,0.5504303-2.9722824,2.3135223-2.6782303,4.5694427c0.0879669,0.6749268,0.2530289,1.1440277,0.8929062,1.3937531
		c0.1111755,0.0433655,0.2140503,0.1079102,0.3209381,0.1623077c3.0704041,1.5627136,3.0580139,1.5621033,2.8789825,5.0501556
		c-0.0283127,0.5516205-0.1985779,0.9107361-0.7100906,1.1138916c-0.2220154,0.0881805-0.4289703,0.214035-0.643631,0.3210449
		c-3.0344315,1.5127563-3.0499649,1.5542603-2.7199326,4.9344482c0.0432892,0.4433899,0.2008896,0.7633972,0.5751266,0.9791718
		c0.2074966,0.1196442,0.4152603,0.2594452,0.6417465,0.3223114c2.3640137,0.6564636,3.2650833,2.1497498,2.8872833,4.5947876
		c-0.1293488,0.8370056-0.2394028,1.4599915-1.0973206,1.7354431c-0.0750046,0.0240784-0.1416245,0.0736694-0.2129669,0.1098328
		c-2.8609848,1.4490051-2.8389435,1.4487915-2.8028564,4.6487732c0.0084152,0.7466125,0.2496109,1.2236328,0.9347763,1.4855347
		c0.0741806,0.0283508,0.141777,0.0737,0.2128601,0.1103516c3.0679779,1.5815735,3.0522614,1.5810547,2.937355,5.0126038
		c-0.0202866,0.6057129-0.2087326,0.9867249-0.766304,1.198761c-0.1859131,0.0707397-0.3606186,0.1723328-0.5372467,0.2658386
		c-3.3810425,1.7900696-2.6565094,0.6687317-2.7808533,4.5436707c-0.0275879,0.8594971,0.3068466,1.3326111,1.056427,1.6581116
		c0.7663498,0.3327637,1.4871216,0.7706604,2.2538452,1.1023865c0.6132202,0.2652893,0.6930466,0.7095032,0.7854233,1.3164978
		c0.3681107,2.4188538-0.2280121,4.1913757-2.8353958,4.8579102c-0.341507,0.0872803-0.8179092,0.1894226-0.8039551,0.7383728
		l0.0092316-0.009613c-0.4395294-0.004303-0.4767456,0.2953796-0.477211,0.6270752
		c-0.0007935,0.5794067-0.0049057,1.158783-0.0076294,1.7381897c-4.0638504-0.214325-8.1255722-0.453125-12.1972885-0.5093079
		c-8.7165909-0.1203003-17.4328842-0.2698059-26.1486282-0.4414063c-8.1560555-0.1605835-16.3109055-0.3739014-24.388176-1.6840515
		c-1.7331123-0.2811584-3.4631729-0.5886841-5.1196022-1.196991c-1.7587433-0.6459656-2.0831718-1.1140747-2.0838432-3.0150146
		c-0.0014-3.9530334,0.5087166-7.8764038,0.7014732-11.8169861c0.3397408-6.9454651,1.2991982-13.8571014,1.1314697-20.83078
		c-0.0171661-0.7136536,0.039093-1.4537506,0.213131-2.1432495c0.94207-3.732254,0.0977135-7.4812927,0.1712303-11.2196655
		c0.0164223-0.8353882,0.0547829-1.6957855,0.2639236-2.4974976c0.8948936-3.4304657,0.2605782-6.8540344-0.1262741-10.2389679
		c-0.8383446-7.3354034-0.1048431-14.4307098,2.5780792-21.317215c0.1428413-0.3666534,0.3370247-0.7829895,0.2857819-1.1448364
		c-0.5365219-3.7882385,0.2247124-7.5602417,0.1225128-11.3614044c-0.1423035-5.2925415-0.5768967-10.6082611-0.0938492-15.925354
		c0.1864395-2.0522003-0.1774216-4.1486053-0.1838989-6.225174c-0.0255585-8.1957397,0.0252342-16.3917694-0.0201569-24.5873108
		c-0.0281944-5.0912018-0.9360542-10.1081696-1.4579544-15.157608
		C43.6473045,123.5967407,43.4961777,122.0449677,43.3408546,120.4936371z"></path>
	<path d="M110.6352768,284.1047363c0.6081085-0.0844421,1.1303635-0.4033813,1.6152725-0.7243042
		c1.3960648-0.9240112,2.6289139-0.8375549,4.1736908-0.0874939c1.5331421,0.7443848,1.9067993,1.6862488,1.6530228,3.1623535
		c-2.4730682,0.0012817-4.9462051,0.002594-7.4194336,0.0038757c-0.0045013-0.7880249-0.0089111-1.5760193-0.0133209-2.3640442
		L110.6352768,284.1047363z"></path>
	<path d="M114.6846771,165.3258057c0.1729584-0.6333008-0.3438797-1.4864807,0.3247681-1.9000244
		c1.0746841-0.6647034,2.2556305-1.5384521,3.416893-1.577713c1.2179184-0.0411682,2.473877,0.8577728,3.4872284,1.6576996
		c0.6219864,0.4909973,0.1941681,1.5048676,0.2264557,2.2805481c0.0221176,0.5313263,0.2543716,1.1971588-0.273735,1.5750122
		c-1.0360413,0.7412262-2.2017059,1.5982208-3.3881683,1.6362915c-1.2431717,0.0399017-2.4391785-0.8963928-3.5070038-1.6322632
		C114.3322754,166.9251251,114.8506088,166.013031,114.6846771,165.3258057z"></path>
	<path d="M114.6695557,152.7203522c0.1773605-0.7059021-0.3201599-1.5696106,0.3106384-1.9779816
		c1.059288-0.6857605,2.2302551-1.5259857,3.40625-1.6151581c1.2463379-0.0945129,2.4305496,0.9167938,3.4630356,1.6890717
		c0.7223969,0.540329,0.2368469,1.5738373,0.2876511,2.3821716c0.0305862,0.4866486,0.2793732,1.1539459-0.2170792,1.4568634
		c-1.11409,0.6797638-2.2882156,1.6798401-3.5130386,1.6207886c-1.1661377-0.0562439-2.3499451-0.9108887-3.409584-1.5948486
		C114.3082504,154.2364197,114.9047241,153.3291626,114.6695557,152.7203522z"></path>
	<path d="M114.689743,76.4972382c0.1358719-0.6537476-0.3206635-1.5208282,0.2760468-1.9405365
		c1.0347977-0.7278137,2.1821594-1.5630188,3.4281845-1.6005096c1.2572708-0.0378265,2.4080582,0.8409042,3.4364777,1.5586472
		c0.7551727,0.5270309,0.2526932,1.5731583,0.305809,2.3822403c0.0346832,0.5283279,0.2847748,1.2332001-0.2576904,1.5767899
		c-1.1082458,0.701973-2.310585,1.6003189-3.5717239,1.531929c-1.1502457-0.0623779-2.341835-0.7850723-3.3527145-1.460083
		C114.348671,78.1414337,114.8256607,77.1913986,114.689743,76.4972382z"></path>
	<path d="M122.1798935,254.3993073c-0.1541977,0.6482849,0.3281784,1.5059204-0.3196411,1.9206696
		c-1.0625305,0.6802368-2.1854553,1.5657959-3.4312744,1.5636597c-1.2451477-0.0021362-2.4127731-0.834259-3.4166336-1.5806274
		c-0.7181396-0.5339508-0.2376556-1.5760651-0.2833405-2.3864746c-0.0296555-0.5263214-0.2857971-1.2338104,0.2730637-1.5637817
		c1.0899353-0.6436005,2.1988068-1.5889435,3.4343567-1.5474091c1.2192917,0.0410461,2.3920746,0.8372803,3.4256668,1.5607605
		C122.5237122,252.8292084,122.0168915,253.7207031,122.1798935,254.3993073z"></path>
	<path d="M114.6856079,178.0840149c0.1548767-0.6448517-0.33181-1.5078735,0.2964096-1.9140167
		c1.059433-0.6849365,2.2356339-1.5363922,3.4058914-1.6075287c1.2307587-0.0748138,2.4569092,0.8676453,3.4972458,1.6289063
		c0.6600418,0.4829407,0.2169571,1.4950409,0.2528,2.2655334c0.0245743,0.5285645,0.2873993,1.247406-0.2576294,1.5664215
		c-1.1235886,0.6575928-2.2306061,1.7733612-3.4742737,1.688797c-1.1741104-0.0798187-2.3535995-0.9153748-3.4090195-1.6047974
		C114.3228378,179.6669312,114.8546524,178.7612152,114.6856079,178.0840149z"></path>
	<path d="M114.7037735,63.6552734c0.1400604-0.5725594-0.3495483-1.4287605,0.2969894-1.8458824
		c1.0599136-0.6838188,2.1761017-1.5695877,3.4272537-1.5742722c1.30056-0.0048714,2.481781,0.8884621,3.4898834,1.6730843
		c0.6298065,0.490181,0.1945267,1.5839767,0.2233582,2.4044418c0.0172501,0.4910202,0.2598877,1.1444244-0.266777,1.4494553
		c-1.0964127,0.6350098-2.1739731,1.4691849-3.44104,1.5808716c-0.9828339,0.0866394-1.7771454-0.8344421-2.717392-1.1369095
		C114.3367538,65.7623444,114.7760544,64.6585617,114.7037735,63.6552734z"></path>
	<path d="M122.1800461,267.0820007c-0.1450882,0.6219482,0.3143463,1.45578-0.2629929,1.8256531
		c-1.0953522,0.7017517-2.2053146,1.7850952-3.4979477,1.6752014c-1.1997147-0.1019897-2.4713974-0.7478333-3.4575806-1.4910278
		c-0.6779099-0.5108337-0.1871643-1.657074-0.2357864-2.5160217c-0.0280151-0.4950256-0.2603378-1.1628418,0.2304764-1.4694214
		c1.0775909-0.6730957,2.1865005-1.5529785,3.4361877-1.5915527c1.261879-0.0389404,2.3723297,0.8843079,3.444191,1.5506287
		C122.5416183,265.5037537,122.0059128,266.4133911,122.1800461,267.0820007z"></path>
	<path d="M114.6729279,241.7355194c0.1697388-0.7444916-0.3325882-1.6587524,0.3315811-2.0946503
		c1.0495758-0.6888733,2.1756897-1.5504303,3.4250183-1.5616455c1.3110123-0.0117493,2.4424438,0.9478149,3.4758987,1.7107239
		c0.6380692,0.4710388,0.2029953,1.4992218,0.2327957,2.2733002c0.0202713,0.5265198,0.2874756,1.2324982-0.2824097,1.5576019
		c-1.0980682,0.6264496-2.1837463,1.5630035-3.4365082,1.5497284c-1.2483673-0.0132446-2.3685684-0.8852539-3.4240341-1.5748138
		C114.3512192,243.1750031,114.8768158,242.3155212,114.6729279,241.7355194z"></path>
	<path d="M114.7785721,139.968338c-0.4362564-1.4588928,0.2118912-2.2686005,1.5429688-2.7038422
		c0.7505341-0.2453766,1.439003-1.0865631,2.1543579-0.8888092c1.1631546,0.321579,2.2231064,1.0240936,3.3161316,1.5862274
		c0.263443,0.1354675,0.3237839,0.4184113,0.365921,0.7109833c0.3850479,2.6724243,0.0791321,3.0284576-2.1998291,4.3715973
		c-1.3675461,0.806015-2.3220444,0.276474-3.5036774-0.2412109
		C115.1285248,142.2223511,114.2637253,141.5316772,114.7785721,139.968338z"></path>
	<path d="M122.1988297,51.0086861c-0.1936035,0.7358932,0.3439407,1.6366158-0.3865356,2.0723114
		c-1.0816727,0.6451836-2.1815491,1.5865059-3.442749,1.5249634c-1.2421875-0.0606041-2.4345016-0.8296394-3.3997192-1.6223145
		c-0.6508865-0.5345612-0.2056427-1.586895-0.2450256-2.4046822c-0.0238495-0.495266-0.2551956-1.1588097,0.2338104-1.4659767
		c1.0736771-0.6744423,2.2173004-1.6354561,3.4179382-1.5637093c1.178772,0.0704384,2.3605957,0.8637123,3.4430389,1.5052032
		C122.5637283,49.495472,121.9519119,50.4044952,122.1988297,51.0086861z"></path>
	<path d="M114.6894302,89.1149673c0.1561737-0.6305923-0.3386154-1.4905319,0.3375092-1.9013367
		c1.0803146-0.6564255,2.1855392-1.5858383,3.4481354-1.5440979c1.2505875,0.0413437,2.4240341,0.8492966,3.4172668,1.6168137
		c0.6431122,0.4969559,0.2237396,1.5123062,0.2437592,2.2907486c0.013443,0.5225754,0.3176041,1.2410126-0.2785721,1.5522079
		c-1.1582947,0.6045837-2.204689,1.6197586-3.5486603,1.6306381c-0.9746552,0.0078888-1.7814102-0.851265-2.7169418-1.1871872
		C114.2649918,91.0963211,114.8488541,89.994751,114.6894302,89.1149673z"></path>
	<path d="M122.1781693,279.8837891c-0.1291122,0.6311646,0.3044968,1.4742126-0.2807007,1.8285522
		c-1.1107254,0.6726074-2.3259583,1.4575806-3.5543213,1.5681763c-1.1536407,0.1039429-2.3104706-0.8121948-3.299469-1.5155945
		c-0.7585526-0.5395203-0.2600555-1.5677795-0.31353-2.3727112c-0.0350571-0.5275879-0.290329-1.2422485,0.2362595-1.5762634
		c1.0683212-0.6776123,2.1786118-1.5452576,3.4239044-1.5848083c1.2577667-0.0399475,2.3732071,0.8670349,3.4331284,1.5410461
		C122.5560074,278.2380371,121.9971237,279.1891479,122.1781693,279.8837891z"></path>
	<path d="M114.7388,190.8424988c-0.3931274-1.4603119,0.2442551-2.2790375,1.5834122-2.7190399
		c0.7518005-0.2470093,1.4434204-1.0851288,2.1620941-0.8897095c1.1718521,0.3186188,2.2397156,1.0223236,3.3479614,1.5706024
		c0.353157,0.1747284,0.3074722,0.5166931,0.3270264,0.8358765c0.1802444,2.9410706,0.1869507,2.9512939-2.5316238,4.2811584
		c-0.4805984,0.2351074-0.9416275,0.7732697-1.5270157,0.5016022c-1.1161118-0.5180511-2.2687302-1.0240631-3.2416992-1.7542572
		C114.4068756,192.3294525,114.7784729,191.4507141,114.7388,190.8424988z"></path>
	<path d="M122.1795425,127.383049c-0.1737289,0.6197739,0.3486786,1.4703445-0.3283997,1.8853073
		c-1.0786743,0.6611176-2.2554092,1.5257568-3.4225922,1.5769653c-1.173172,0.0514679-2.381752-0.8411713-3.3861084-1.6101379
		c-0.7137451-0.546463-0.2713623-1.5017471-0.3133316-2.2699509c-0.0288925-0.5287933-0.278801-1.216217,0.2460785-1.5783997
		c1.0419922-0.7190018,2.12397-1.6176682,3.4091644-1.5824432c1.3123627,0.0359344,2.4599609,0.8950119,3.5285492,1.6288071
		C122.4999161,125.8363113,122.0415115,126.7149811,122.1795425,127.383049z"></path>
	<path d="M122.1798325,228.9526367c-0.1568527,0.6472015,0.3313904,1.50737-0.3097763,1.9256897
		c-1.0595245,0.69133-2.184639,1.5740662-3.4389267,1.5736694c-1.2539368-0.0003815-2.435112-0.8218384-3.4223938-1.5892029
		c-0.7311935-0.5683441-0.2179489-1.6602173-0.2815323-2.5139465c-0.0363235-0.4877625-0.2551498-1.1439667,0.2901611-1.4436035
		c1.0777588-0.5922394,2.2008743-1.4519958,3.3343124-1.4989166c1.2489014-0.0517273,2.4389572,0.9106445,3.5326233,1.6240082
		C122.5147858,227.4415436,122.0243607,228.3076172,122.1798325,228.9526367z"></path>
	<path d="M122.1932602,203.4984741c-0.1718445,0.6965637,0.3187485,1.5517426-0.3390427,1.9659882
		c-1.066452,0.6716309-2.1691589,1.5283661-3.4331818,1.5682526c-1.2840118,0.0405273-2.4052048-0.829834-3.4087372-1.5807495
		c-0.6923752-0.5181122-0.2361526-1.4989929-0.2845688-2.2683105c-0.0333328-0.5296326-0.2530746-1.199707,0.2812119-1.5728149
		c1.0438538-0.7289581,2.2026672-1.6083679,3.393486-1.6262512c1.2442703-0.018692,2.4378204,0.907547,3.5096054,1.6434631
		C122.5105743,202.0390472,121.9966583,202.9098206,122.1932602,203.4984741z"></path>
	<path d="M114.6869049,216.2344971c0.1606293-0.6383667-0.3316345-1.4827576,0.2870941-1.9198914
		c1.0342102-0.7306519,2.1845322-1.6298523,3.401207-1.6256561c1.2614059,0.0043488,2.4762955,0.8779907,3.5134888,1.6501923
		c0.6553421,0.4878998,0.2147903,1.5016632,0.2493591,2.2753601c0.0236359,0.5291901,0.2852707,1.2404175-0.2702408,1.5674438
		c-1.0919342,0.642746-2.1905212,1.562851-3.4421844,1.5576324c-1.2495499-0.0052032-2.3751297-0.8822021-3.4308319-1.5740356
		C114.3622818,217.7510223,114.8342514,216.8886108,114.6869049,216.2344971z"></path>
	<path d="M122.1936264,114.5802536c-0.1764603,0.6879883,0.3262177,1.5473022-0.3228073,1.958252
		c-1.0684662,0.6765366-2.2505417,1.5451965-3.4161377,1.5948029c-1.2227631,0.0520325-2.473465-0.8591156-3.4944687-1.6514282
		c-0.6324768-0.4908142-0.2020874-1.5043716-0.2328949-2.27948c-0.0210037-0.5281601-0.279747-1.2282181,0.2825851-1.5617752
		c1.0892258-0.64608,2.2608871-1.629303,3.3843384-1.6109848c1.1834869,0.0192795,2.412468,0.9514389,3.5006104,1.668335
		C122.5071793,113.1014023,122.0042953,113.9809494,122.1936264,114.5802536z"></path>
	<path d="M118.1331711,70.0512543c-0.1529999,0.7205429,0.3144684,1.6099014-0.26651,2.0047226
		c-1.0446167,0.7098923-2.2654037,1.6267319-3.4000244,1.6099014c-1.189209-0.0176392-2.4396133-0.9192886-3.5168076-1.6503677
		c-0.6752472-0.4582901-0.2503204-1.4223175-0.2818604-2.1554184c-0.0229874-0.5341339-0.2883911-1.2635269,0.2372589-1.5824738
		c1.1212845-0.6803436,2.3107147-1.5895081,3.525032-1.677681c1.1714172-0.085083,2.3674774,0.8679428,3.4103928,1.5867538
		C118.4543381,68.6096802,117.9320984,69.4730759,118.1331711,70.0512543z"></path>
	<path d="M122.179985,101.8902283c-0.1632462,0.6386948,0.3399811,1.503273-0.2926559,1.912323
		c-1.0607605,0.6858673-2.2351913,1.526886-3.4104767,1.609436c-1.123085,0.0788956-2.3133621-0.7444229-3.3099823-1.4674149
		c-0.8678894-0.6295776-0.3742142-1.6307068-0.4357834-2.4637146c-0.0384827-0.5206528-0.290329-1.2260132,0.2840805-1.5550385
		c1.0968704-0.6283188,2.1831741-1.5632248,3.4388504-1.5404053c1.248848,0.0227051,2.3727264,0.8831177,3.4231415,1.5802383
		C122.5071106,100.3837128,122.0263596,101.2409592,122.179985,101.8902283z"></path>
	<path d="M118.0708237,44.7001724c0.4258118,1.54002-0.3195419,2.328167-1.6715088,2.7743645
		c-0.7079544,0.2336502-1.3630295,1.0326462-2.0461121,0.8167763c-1.1979141-0.3785591-2.3246384-1.0322914-3.4142303-1.682888
		c-0.5516281-0.3293839-0.1967316-1.0359535-0.2933884-1.5644341c-0.3084412-1.6863098,0.5931244-2.3456535,1.9715881-3.2139969
		c2.2130814-1.3941116,3.5866394,0.0945778,5.1689987,0.8918076
		C118.5055542,43.08424,117.9422455,44.0531998,118.0708237,44.7001724z"></path>
	<path d="M118.1200943,57.4254341c-0.1464081,0.648365,0.3312378,1.5286331-0.2631531,1.9256477
		c-1.0469894,0.6993141-2.2617188,1.6098061-3.3935547,1.5927391c-1.1858521-0.0178833-2.4395828-0.9031258-3.5051346-1.6388435
		c-0.7085495-0.4892273-0.244957-1.4936676-0.2887268-2.2624168c-0.0297775-0.5230484-0.2853546-1.2303162,0.3026199-1.5483055
		c1.1103058-0.6004829,2.1666641-1.5123749,3.4492416-1.5332565c1.2917862-0.0210304,2.3971176,0.8322601,3.4355545,1.5346985
		C118.4482803,55.8957062,117.9761353,56.7740822,118.1200943,57.4254341z"></path>
	<path d="M118.1231537,82.8390884c-0.1817169,0.6669083,0.3682175,1.5741043-0.3354797,2.0082092
		c-1.0357666,0.6389389-2.0974503,1.5132675-3.3409882,1.4765015c-1.3180008-0.0389633-2.4783859-0.8735809-3.5281677-1.6243896
		c-0.6360626-0.4549179-0.2251816-1.4259872-0.2513123-2.1614075c-0.0188599-0.5309143-0.2841721-1.2468872,0.2610092-1.569252
		c1.1251831-0.6653137,2.327446-1.6185989,3.5137711-1.6416473c1.1311493-0.0219803,2.3460236,0.8907394,3.4003983,1.581398
		C118.4550095,81.3097839,117.968071,82.1841736,118.1231537,82.8390884z"></path>
	<path d="M118.1215134,247.9779968c-0.178627,0.6621399,0.369812,1.570816-0.3364182,2.0029907
		c-1.0376129,0.634964-2.0957413,1.5117798-3.3415527,1.4738464c-1.3203812-0.0402222-2.4777145-0.8774719-3.5268555-1.6288757
		c-0.634079-0.4541321-0.2245331-1.426651-0.2493057-2.1624298c-0.0178452-0.5302429-0.2859192-1.2448883,0.2628708-1.5677185
		c1.1269913-0.6629181,2.3298035-1.6153717,3.5165939-1.637619c1.131424-0.0212097,2.3483887,0.888855,3.3987503,1.5843964
		C118.4419937,246.4375305,117.9832764,247.3158569,118.1215134,247.9779968z"></path>
	<path d="M118.0688934,260.7204285c0.5140228,1.6873779-0.5342484,2.3198853-1.8130798,2.8077698
		c-0.6582413,0.2510986-1.2866592,0.9723511-1.9439697,0.744751c-1.1923294-0.4127502-2.342659-1.0225525-3.400589-1.7174988
		c-0.5750122-0.3777161-0.1589737-1.2000122-0.2651825-1.8108521c-0.2398529-1.3792725,0.45961-1.993927,1.5941391-2.7451172
		c2.1528931-1.4255066,3.782486-0.3590393,5.4791565,0.6476135
		C118.5230942,259.1239319,117.9097824,260.0551758,118.0688934,260.7204285z"></path>
	<path d="M118.119545,273.4690857c-0.1576691,0.6327515,0.3376007,1.4945068-0.2939987,1.9064941
		c-1.0204315,0.6656494-2.0920639,1.4981689-3.3284683,1.5094299c-1.3304291,0.0121155-2.4722672-0.8699646-3.5387802-1.5919495
		c-0.7111206-0.4813538-0.244278-1.4920654-0.2888336-2.2607422c-0.0303268-0.5232544-0.2801437-1.2175903,0.3040009-1.5510559
		c1.1350632-0.6480103,2.3000717-1.6731873,3.5269318-1.6020508c1.1662598,0.0676575,2.3564758,0.9196167,3.3875046,1.6396484
		C118.4403915,271.9047241,117.9905243,272.8016357,118.119545,273.4690857z"></path>
	<path d="M118.1363754,159.0630035c-0.1727829,0.704071,0.3132706,1.551178-0.3382187,1.9794922
		c-1.0245514,0.673584-2.1317749,1.5552673-3.316803,1.5398712c-1.2761383-0.0165863-2.462677-0.8903046-3.5137177-1.6608124
		c-0.677887-0.496933-0.2626495-1.4284973-0.3021545-2.1626129c-0.0287933-0.5353088-0.2453308-1.2222595,0.2939987-1.5742645
		c1.0971985-0.7161407,2.2541962-1.6235962,3.5260696-1.6429291c1.1820831-0.0179749,2.2994919,0.8568573,3.3146744,1.5417328
		C118.4851303,157.5455475,117.9151764,158.4455261,118.1363754,159.0630035z"></path>
	<path d="M118.1218491,171.8043976c-0.1485214,0.6582336,0.3217316,1.5107117-0.3061142,1.9385223
		c-1.0129013,0.6902466-2.1314163,1.5522766-3.3119736,1.5517426c-1.2747879-0.0006104-2.4512939-0.8937988-3.5226593-1.6387329
		c-0.6703796-0.4661102-0.2964783-1.3470154-0.3128738-2.0386963c-0.0143967-0.6071167-0.294487-1.3759918,0.3646545-1.7800293
		c1.0826263-0.6635437,2.1945419-1.5667877,3.4296036-1.5845947c1.1924667-0.0171356,2.2962875,0.8607178,3.319603,1.5323792
		C118.4752502,170.2399292,117.949791,171.1349487,118.1218491,171.8043976z"></path>
	<path d="M118.1215439,235.4066772c-0.14814,0.6147156,0.3182678,1.4498749-0.2804031,1.8103485
		c-1.0384598,0.6253052-2.0458603,1.533371-3.3075562,1.5292511c-1.3465347-0.0044098-2.4733734-0.8734589-3.5540085-1.5776062
		c-0.7397079-0.4819946-0.2514343-1.4880829-0.3118515-2.2546387c-0.0389786-0.4944611-0.2651825-1.2011414,0.2030334-1.4700012
		c1.1266403-0.6469574,2.199173-1.5991058,3.5271606-1.6424866c1.2537308-0.0409241,2.3222122,0.7952881,3.3356094,1.4755707
		C118.4778519,233.7767792,117.9517212,234.6981049,118.1215439,235.4066772z"></path>
	<path d="M118.136879,95.4296188c-0.1722488,0.7522812,0.3163071,1.6271744-0.3746719,2.1038208
		c-1.0073776,0.6949158-2.0786514,1.51931-3.3262405,1.5100174c-1.3426361-0.0100098-2.4332199-0.9671173-3.5037003-1.6896896
		c-0.6655884-0.4492874-0.2292786-1.4189911-0.2633057-2.150238c-0.0244751-0.526001-0.2818832-1.2192688,0.2967834-1.5581512
		c1.1307526-0.6622086,2.2992706-1.6590118,3.5334396-1.615799c1.1260071,0.0394135,2.2731934,0.8980255,3.3097839,1.5552826
		C118.4757004,94.0076065,117.9080505,94.8655243,118.136879,95.4296188z"></path>
	<path d="M118.0760345,133.6628723c-0.1701965,0.7193298,0.4990082,1.7612457-0.6257095,2.1806335
		c-1.3947449,0.5201263-2.5998993,2.1340485-4.3509979,0.8353271c-0.126358-0.0937347-0.2837753-0.1455536-0.4266815-0.2170105
		c-2.0322723-1.016098-2.4789658-1.9401703-2.0096741-4.1573181c0.0164795-0.0778809,0.0214233-0.1605377,0.051239-0.2329407
		c0.3350677-0.8138123,3.8029633-2.1224518,4.6053848-1.7368011c0.3599777,0.1730042,0.698555,0.4057007,1.0739059,0.5288086
		C117.7574692,131.3109436,118.4781342,132.1281433,118.0760345,133.6628723z"></path>
	<path d="M118.1212158,184.485611c-0.1728897,0.6640472,0.3543777,1.5539551-0.3531418,2.0095367
		c-1.0287628,0.6623688-2.1278458,1.5465088-3.319458,1.5249329c-1.285881-0.0233154-2.4179611-0.9754333-3.4913559-1.7113647
		c-0.66185-0.4538116-0.2587891-1.3454437-0.2899933-2.0365143c-0.0258255-0.5717926-0.2634277-1.2941895,0.3202896-1.6816559
		c1.0587921-0.7028503,2.2123184-1.6186981,3.4080734-1.5933075c1.1885147,0.0252533,2.4196396,0.7762146,3.4369354,1.5386963
		C118.4309616,182.9844513,117.9799652,183.8224335,118.1212158,184.485611z"></path>
	<path d="M118.1179199,146.3206177c-0.1276779,0.6611786,0.3053131,1.5033722-0.2588348,1.95401
		c-0.9945755,0.7944946-2.238945,1.5003204-3.4280472,1.5635529c-1.2018204,0.0639038-2.3656235-0.8583679-3.4079742-1.5740356
		c-0.7305603-0.5015869-0.320343-1.413208-0.3551712-2.1399536c-0.0254822-0.5319061-0.2743835-1.2316132,0.2540817-1.5785065
		c1.0937958-0.7179871,2.2171478-1.6872406,3.4894867-1.7251282c1.227951-0.0365601,2.376091,0.8631134,3.4171143,1.5753326
		C118.4414825,144.8152161,117.9772491,145.6763306,118.1179199,146.3206177z"></path>
	<path d="M118.1242523,222.5263824c-0.136467,0.6826172,0.3151932,1.5650787-0.2683945,1.9577179
		c-1.0446472,0.7028503-2.2503586,1.5954285-3.3952408,1.6047058c-1.2525101,0.0101166-2.672821-0.8027191-3.5558167-1.7497101
		c-0.7204437-0.7726898-0.2367477-2.1410522-0.2157593-3.2412872c0.0120697-0.6329041,0.6744919-0.6965179,1.1396027-0.8922882
		c0.073349-0.0308838,0.1587677-0.048645,0.2167892-0.0980682c1.9386902-1.6517029,3.7347031-0.7785187,5.5397873,0.2858734
		C118.5371704,220.9546661,117.8758469,221.8504181,118.1242523,222.5263824z"></path>
	<path d="M118.0696259,108.375885c-0.2080154,0.6266098,0.5316162,1.6036606-0.4781876,1.9743958
		c-1.3922043,0.5111313-2.5359344,2.2410202-4.3352661,0.9787827c-0.1613693-0.1131973-0.3560715-0.1786804-0.5347748-0.2673645
		c-2.1292801-1.0567245-2.4860077-1.7842789-2.0706024-4.1297379c0.0627365-0.3542404,0.2204208-0.5758133,0.5312271-0.729393
		c0.9660187-0.4773102,1.9336166-0.9521484,2.8872986-1.4532776c0.3315048-0.1741943,0.6114883-0.0977554,0.9065475,0.0436783
		c0.502243,0.2407532,0.9893265,0.5208588,1.5080032,0.7180939
		C117.8145599,106.0170975,118.5057602,106.8607025,118.0696259,108.375885z"></path>
	<path d="M118.085083,197.3223267c-0.0994797,0.4936523,0.3566895,1.3792877-0.2206192,1.7808838
		c-1.0012741,0.6965179-2.1755753,1.5754242-3.2805786,1.5799408c-1.3116379,0.0053711-2.7460556-0.8005371-3.6851273-1.7627563
		c-0.7158508-0.7334747-0.2156677-2.0711212-0.2227554-3.1369019c-0.0047607-0.7158966,0.7805862-0.6876831,1.2006226-1.0084534
		c1.6993713-1.2978821,3.2981033-1.1591339,5.1466217-0.0916595
		C118.2013092,195.3636627,118.1048355,196.1812286,118.085083,197.3223267z"></path>
	<path d="M118.0761337,209.9399414c0.3833466,1.4796295-0.4522629,1.9951477-1.5959015,2.7296753
		c-2.2188568,1.4251251-3.7216339-0.0466766-5.4442596-0.838028c-0.2813492-0.1292419-0.3431015-0.4006653-0.3873978-0.6942749
		c-0.3723755-2.4679413-0.1206055-2.9698792,2.0821991-4.0792389c1.532074-0.7715607,3.7063751-0.4429626,5.0020294,0.7493134
		C118.4148254,208.4349976,117.9456329,209.250824,118.0761337,209.9399414z"></path>
	<path d="M118.0988388,121.0382767c-0.1418991,0.6763611,0.4238892,1.7531738-0.629158,2.1388855
		c-1.3925934,0.5100861-2.6479111,2.0559082-4.3736191,0.7886276c-0.095253-0.0699463-0.2119064-0.1109314-0.3190155-0.1645584
		c-2.3526917-1.1778564-2.4662247-1.3939896-2.1249924-4.0490723c0.0151978-0.1182404,0.0110474-0.2452087,0.0543747-0.3525925
		c0.3194351-0.7916336,3.7227936-2.1130753,4.4971848-1.7564697c0.3256607,0.1499634,0.6574554,0.2867126,0.9877243,0.4264755
		C118.098877,118.8768234,118.0990067,118.8765182,118.0988388,121.0382767z"></path>
	<path d="M114.6900177,36.6957741c2.1898575,0.0548744,4.3020859-0.5754128,6.4674149-0.7325935
		c1.1682053,0.3780174,1.0929489,1.3443947,0.9810257,2.2461433c-0.0991287,0.7987022,0.5256119,1.8722763-0.6058197,2.3335571
		c-1.452179,0.5920448-2.6242142,1.9626083-4.609108,0.914566c-1.6611862-0.877121-2.5929337-1.768013-2.2248001-3.6878128
		C114.7648392,37.4249153,114.6963654,37.0543861,114.6900177,36.6957741z"></path>
</g>
<g onclick="select(this)" class="" id="gola-primaria" fill="#bf0811">
	<path d="M77.9528961,7.9597788c0.7734909-0.0868554,1.2810745-0.6227632,1.8024139-1.1070566
		c0.7603989-0.7063622,1.6094208-1.3635068,2.2009125-2.1973295c2.3787308-3.3532748,5.9154663-4.1040101,9.6146927-4.1371012
		c10.8288574-0.0968688,21.6591644-0.0327392,32.4889069-0.0323138c3.6765366,0.0001444,7.3533707,0.0263636,11.0294876-0.0132293
		c2.1037445-0.022658,4.1253967,0.4074263,6.1430511,0.9059279c1.240509,0.306494,2.2250671,0.9727898,3.0632935,1.9657297
		c1.5145111,1.7940409,2.9762726,3.6627538,5.0728302,4.8576345c1.8892975,0.8698425,2.232193,1.9619017,1.6444397,4.6568098
		c-0.8680267,3.9801064-3.1195221,7.256525-5.9576111,10.0776253c-3.1543121,3.135416-6.6809235,5.8337631-10.5701141,8.0235748
		c-2.4582367,1.3841152-4.9942627,2.6225414-7.64991,3.5758228c-4.9303207,1.7698059-10.0413513,2.5165062-15.2560577,2.1380272
		c-6.9028931-0.5010071-13.3907471-2.4491768-19.2632141-6.193306c-4.6655121-2.9746075-9.1340027-6.1839447-12.4609528-10.7306004
		c-1.5546875-2.124649-2.7199631-4.4103737-3.3867264-6.9568338C75.8662186,10.4935923,76.2461853,9.2179432,77.9528961,7.9597788z
		 M144.3056793,9.0716209c-1.6213531,0.1224871-3.0516968,0.2176695-4.4796753,0.3405447
		c-8.3171387,0.7156858-16.6441956,1.3321667-24.9881668,1.5415802c-6.3928757,0.1604452-12.7648773-0.5101662-19.1342163-1.0081911
		c-3.8610764-0.3019018-7.7151108-0.6963148-11.5699081-1.07374c-0.8292313-0.081192-1.0991592,0.0874987-0.7168503,0.9401541
		c0.5081406,1.1332855,1.0283813,2.2572689,1.7957001,3.2364836c3.8750992,4.9451981,8.5461273,8.9716797,14.1956177,11.738184
		c5.4275513,2.6578178,11.1766891,4.1721344,17.2688675,3.4482021c9.8420715-1.169529,17.7235413-6.0017147,24.1360626-13.393693
		C142.2531128,13.1811771,143.4580688,11.3532133,144.3056793,9.0716209z"></path>
</g>
</svg>
