<!--?xml version="1.0" encoding="utf-8"?-->
<!-- Generator: Adobe Illustrator 24.2.3, SVG Export Plug-In . SVG Version: 6.00 Build 0)  -->
<svg version="1.1" id="Camada_1" xmlns="http://www.w3.org/2000/svg" xmlns:xlink="http://www.w3.org/1999/xlink" x="0px" y="0px" viewBox="0 0 234 419" enable-background="new 0 0 234 419" xml:space="preserve">
<g onclick="select(this)" class="" id="c-estampa-primaria" fill="#71aad4">
	<path d="M203.844162,32.2869453c0.2441711,0.1307411,0.531662,0.2156067,0.7261047,0.3990097
		c3.7428589,3.5304375,7.8085175,6.74823,10.8167877,10.9962273c3.8219452,5.3969498,6.4827728,11.3448372,8.3044891,17.6818085
		c1.703186,5.9246597,2.6829071,11.9778137,3.4117279,18.0944748c0.556839,4.6732025,1.4604034,9.304451,2.1724701,13.9600525
		c0.8745575,5.7177734,1.5371246,11.466835,2.7715912,17.1301041c0.4525299,2.0759964,0.7129669,4.1969299,1.2326813,6.2644043
		c0,0.9594498,0,1.9188995,0,2.8783493c-1.4297791,0.6664352-2.9842834,0.8879013-4.5068054,1.1686554
		c-9.6035004,1.770874-19.2549896,3.0840302-29.0569153,2.9074402c-3.0704956-0.0553284-6.0487213-0.3875198-8.761673-2.0148087
		c-0.8619995-0.5170517-2.0961304-0.2203445-2.7959442-1.1757126c0.2670593-1.3095169,0.0171661-2.6338272,0.1459351-3.9605942
		c0.2761688-2.8452225,0.8879089-5.6756516,0.7132416-8.5462036c-0.10289-1.6908646,0.0358276-3.351387,0.2414703-5.0090485
		c0.3424835-2.7604828,1.3165741-5.4090576,1.3401642-8.2393646c0.0353394-4.2384491,0.5300293-8.443512,1.3590088-12.5996475
		c0.3097382-1.5529709,0.6103668-3.2689972,1.9078217-4.2638397c1.1487885-0.8808746,1.7591095-2.0262222,2.4583435-3.1680679
		c2.4539032-4.0070267,3.390686-8.5746613,4.7625122-12.9792824c1.2822876-4.1172256,2.2908478-8.2972069,2.6768646-12.605896
		c0.4539642-5.0669441,0.2289734-10.125988-0.1738892-15.1842155
		C203.5438843,33.4400902,203.4263153,32.8149567,203.844162,32.2869453z"></path>
	<path d="M0.24,116.3332977c0.4876597-1.8705444,0.8426896-3.7682343,1.2151847-5.6643295
		c0.6998954-3.5626602,1.2503428-7.1475906,1.7463453-10.7418365c0.9353209-6.7777481,2.8336005-13.3488007,4.2574592-20.0215378
		c0.9158173-4.2918777,1.1679564-8.7035217,2.1534967-12.9911194c1.2189798-5.3031845,2.7884092-10.4830818,5.1563406-15.4060478
		c3.1412992-6.5308037,7.610673-11.9784851,13.318202-16.4118271c1.1254368-0.8741913,1.9700394-2.0906677,3.3144722-2.6887093
		c0.3887768,0.7531357,0.4499092,1.5206947,0.0199051,2.2686043c-0.1334305,0.2320633-0.1415234,0.4070244-0.0868912,0.6593208
		c0.2142849,0.9896927,0.0649796,1.9836044-0.0099182,2.9786911c-0.3932762,5.2251587-0.3019066,10.4221039,0.696209,15.5946388
		c0.924324,4.7901115,2.4936409,9.3919144,3.8647652,14.0543861c0.9656143,3.2835464,2.404953,6.3072052,4.3204002,9.1490707
		c0.8989677,1.3337402,1.7753296,2.7589111,2.1019897,4.3839722c0.2639923,1.3132935,0.3130531,2.6716843,0.6052971,3.9770203
		c1.256649,5.612854,1.5529938,11.3503189,2.2796555,17.0314484c0.2689705,2.1028519,0.1734428,4.2375488,0.6691475,6.3279724
		c0.2741241,1.1560364,0.8885803,2.2605133,0.7164001,3.5047379c-0.2713585,1.9608841,0.0321884,3.9211502-0.0191345,5.8812637
		c-0.434269,0.4314117-0.2524414,0.9857407-0.214817,1.4636459c0.0937195,1.1903839-0.4694519,1.5978546-1.5796242,1.7586365
		c-6.8079414,0.9859543-13.6038055,1.0302734-20.4342308,0.1467514c-7.8117313-1.0104523-15.6038713-2.1042175-23.2902794-3.8549728
		c-0.2681048-0.0610657-0.5336418-0.1333923-0.8003759-0.2004623C0.24,117.132843,0.24,116.7330704,0.24,116.3332977z"></path>
	<path d="M81.8832245,7.9922476c11.3011246,1.2273169,22.5738373,2.8336277,33.9637909,2.9786882
		c7.5525665,0.0961885,15.0744629-0.6367741,22.5928345-1.2755909c4.3710327-0.3713961,8.7034302-1.0662413,13.0371857-1.7368207
		c0.6647949-0.1028652,1.3425751-0.1219411,2.0140686-0.1799874c1.6053162,0.0051417,3.0043488,0.607482,4.0229034,1.7923212
		c1.3142853,1.5288258,3.0072632,2.4741468,4.7064362,3.4258947c9.2055511,5.156291,18.8595276,9.3510447,28.6602936,13.214673
		c4.2363434,1.6700325,8.2157898,3.8823605,12.3980713,5.6596413c0.2095337,0.0890408,0.3777618,0.2751617,0.5652771,0.4159737
		c-0.4177704,0.527916-0.3002014,1.1530495-0.2539368,1.7337494c0.4028625,5.0582275,0.6278534,10.1172714,0.1738892,15.1842155
		c-0.3860168,4.3086891-1.394577,8.4886703-2.6768646,12.605896c-1.3718262,4.4046211-2.308609,8.9722557-4.7625122,12.9792824
		c-0.699234,1.1418457-1.3095551,2.2871933-2.4583435,3.1680679c-1.2974548,0.9948425-1.5980835,2.7108688-1.9078217,4.2638397
		c-0.8289795,4.1561356-1.3236694,8.3611984-1.3590088,12.5996475c-0.0235901,2.830307-0.9976807,5.4788818-1.3401642,8.2393646
		c-0.2056427,1.6576614-0.3443604,3.3181839-0.2414703,5.0090485c0.1746674,2.8705521-0.4370728,5.7009811-0.7132416,8.5462036
		c-0.1287689,1.326767,0.1211243,2.6510773-0.1459351,3.9605942c-0.4451904,0.2543488-0.292099,0.7096634-0.3355408,1.0794525
		c-1.2291412,10.4668274-1.4598083,20.9645081-0.9211578,31.4825745c0.1640167,3.2030334-0.0892792,6.3876343-0.2824097,9.5783081
		c-0.3652802,6.0341797,0.1146698,12.0639496,0.1411285,18.0963898c0.0121155,2.7599487-0.1020966,5.510788-0.4394836,8.2537994
		c-0.2348785,1.9098663-0.259552,3.8273315,0.0752563,5.7353058c0.0413666,0.235733,0.1023254,0.4811859,0.0765991,0.7135468
		c-0.3479309,3.1390228,0.5493622,6.0718689,1.4089203,9.0283356c1.7310181,5.9537659,1.9002533,12.0368042,1.4110718,18.1747131
		c-0.2970886,3.7276611-0.8225708,7.4499054-0.0163269,11.2021637c0.2717285,1.2647095,0.1656189,2.6307831,0.1011658,3.9440918
		c-0.3710175,7.5605621,0.7496643,15.048584,1.0814514,22.5745544c0.2390442,5.4223633,0.7248535,10.8330994,0.9426575,16.2604065
		c0.0555115,1.382782,0.276474,2.7749329,0.2888794,4.1724854c0.019928,2.2460938-0.1770477,2.5755005-2.3623352,3.2271729
		c-4.8733215,1.4533386-9.8569336,2.4101257-14.8961182,3.0440979c-11.8484802,1.4905701-23.7734833,1.660553-35.6864929,1.7833862
		c-20.6748962,0.2131348-41.3520508,0.5888977-62.0273285,0.2730713
		c-10.0053558-0.1528625-19.9647522-1.0462952-29.6645737-3.7737732c-3.6876373-1.0369568-3.8061752-1.0554504-3.5815086-4.8088684
		c0.4221001-7.0517883,0.9946251-14.0946045,1.5138893-21.1405334c0.2350197-3.1889038-0.1084023-6.3981018,0.3477821-9.5786133
		c0.0793533-0.5532532,0.0905342-1.1240387,0.2358475-1.658844c0.8754044-3.2218323,0.0733948-6.433548-0.0536919-9.6438293
		c-0.1831818-4.6274261,0.2295189-9.1902313,1.4309845-13.6504517c0.4299011-1.5959015,0.4755173-3.1370239,0.2797699-4.7210999
		c-1.0725136-8.679306-0.8838158-17.3009796,1.0736694-25.8563232c0.320919-1.4025879,0.4485817-2.8516083,0.3323898-4.2902679
		c-0.380249-4.7082825,0.0083199-9.42276-0.1681137-14.1340485c-0.2137871-5.7085266-0.0382309-11.4276886-0.4554291-17.1329803
		c-0.2658157-3.6351624,0.4149132-7.2435303,0.295063-10.8907166c-0.3150291-9.5868835-0.8651848-19.1593475-1.4672585-28.7301712
		c-0.0208473-0.3313217,0.1232147-0.7376938-0.2781067-0.9712677c0.0513229-1.9601135-0.252224-3.9203796,0.0191345-5.8812637
		c0.1721802-1.2442245-0.442276-2.3487015-0.7164001-3.5047379c-0.4957047-2.0904236-0.400177-4.2251205-0.6691475-6.3279724
		c-0.7266617-5.6811295-1.0230064-11.4185944-2.2796555-17.0314484c-0.292244-1.305336-0.3413048-2.6637268-0.6052971-3.9770203
		c-0.3266602-1.625061-1.203022-3.0502319-2.1019897-4.3839722c-1.9154472-2.8418655-3.3547859-5.8655243-4.3204002-9.1490707
		c-1.3711243-4.6624718-2.9404411-9.2642746-3.8647652-14.0543861c-0.9981155-5.1725349-1.0894852-10.3694801-0.696209-15.5946388
		c0.0748978-0.9950867,0.2242031-1.9889984,0.0099182-2.9786911c-0.0546322-0.2522964-0.0465393-0.4272575,0.0868912-0.6593208
		c0.4300041-0.7479095,0.3688717-1.5154686-0.0199051-2.2686043c4.2200203-1.9893341,8.4092674-4.0453835,12.7522888-5.7645664
		c7.1309395-2.8227787,14.1520844-5.9024734,21.1429634-9.0528946c3.9479599-1.7791424,7.5967026-4.0795488,11.2435379-6.3863611
		c0.4518661-0.2858219,0.7510147-0.7068834,1.1049881-1.0847254C78.7935867,8.8936224,80.0848312,7.9328942,81.8832245,7.9922476z"></path>
</g>
<g onclick="select(this)" class="" id="c-estampa-secundaria" fill="#ffffff">
	<path d="M205.1917725,100.0276337c0.0549622,0.0412521,0.1099091,0.0824966,0.1648712,0.1237564
		c-0.1585083,0.067276-0.1931,0.006752-0.1443024-0.1397629L205.1917725,100.0276337z"></path>
	<path d="M221.7686615,79.4048996c-0.0095978-0.0963745,0.0236053-0.1382217,0.0996246-0.1255341
		c-0.0054779,0.0227737-0.0035553,0.0553741-0.0179901,0.0662079c-0.0280762,0.02108-0.0653381,0.0299606-0.0988159,0.0438919
		L221.7686615,79.4048996z"></path>
	<path d="M43.6712074,89.9514008c0.0237389,0.0148544,0.0474815,0.0297012,0.0712204,0.044548
		c-0.0194168-0.0191574-0.0388374-0.0383148-0.0582581-0.0574799
		C43.6841736,89.9384689,43.6712074,89.9514008,43.6712074,89.9514008z"></path>
	<path d="M221.7514801,79.3894653c-1.512146,1.4173203-3.2502899,2.5499115-4.8577576,3.8475494
		c-1.2381134,0.9994812-2.5061035,1.9620056-3.8319092,2.9964371c1.5691376,1.2797699,3.0912933,2.4973297,4.5871429,3.746376
		c2.8482056,2.3783035,5.7854919,4.6511536,8.5154266,7.1698761c0.1755981,0.1620102,0.3786926,0.294754,0.550293,0.4604416
		c0.9346771,0.9024734,1.9679871,1.3078461,3.2204437,0.6659012c0.0503845,0.1207733,0.1007843,0.241539,0.1511841,0.3622971
		c0.0000153,0-0.0478516,0.0570679-0.0478516,0.0570679l0.0605774,0.0450668
		c0.0105286,0.3645554,0.1157074,0.728653,0.0053253,1.0937958c-0.9879913,0.6672211-1.8869324,0.3257523-2.7858124-0.2218552
		c-2.1925201-1.3357468-4.1637878-2.9622955-6.1066132-4.6246719c-2.8853607-2.4688721-5.7102051-5.005928-8.4030457-7.6841812
		c-0.4752197-0.4726563-0.7682495-0.4494324-1.2677002-0.0307617c-1.4218597,1.1918716-2.3023987,2.7174988-2.904129,4.5260086
		c-0.5378418-1.6628342-0.06427-3.5502625,1.3307343-5.4145737c-1.7525787-1.1089096-3.4971619-2.2196198-5.2486267-3.319397
		c-2.9418488-1.8472443-5.893692-3.6787262-8.8233032-5.545105c-0.2772827-0.176651-0.9708557-0.2836761-0.6388702-0.786293
		c0.3082886-0.4667435,0.702652,0.0854187,1.0086517,0.2557297c4.7794495,2.6600494,9.5474091,5.3407288,14.3217773,8.009903
		c1.0565033,0.5906601,1.0724945,0.5895386,1.9480286-0.1575012c0.881485-0.7521057,1.7275238-1.5461502,2.6176758-2.287529
		c0.4488068-0.3737793,0.4378357-0.6350479,0.0296478-1.0499268c-4.2891846-4.359787-8.560257-8.7373657-12.8383789-13.1080399
		c-0.7774048-0.7942276-1.859787-1.2173233-2.5518341-2.1667175c1.3744507,0.3480377,2.858139,0.3933563,3.9296875,1.5199509
		c4.1039581,4.3147888,8.2029724,8.6342697,12.2977448,12.9577789c0.8865356,0.9360428,0.8606567,0.9157562,2.0704498,0.3667603
		c1.2259674-0.5563202,2.3284454-1.3866653,3.6782227-1.6689529L221.7514801,79.3894653z"></path>
	<path d="M29.4257603,121.9877625c-1.285862-3.1748428-2.7278214-6.2804794-4.1466846-9.3968124
		c-0.2906399-0.6383514-0.5372944-0.8725891-1.3173218-0.6308823c-3.5740452,1.1074982-7.1764755,2.1235123-10.7688227,3.1719894
		c-0.1490917,0.0435104-0.2992649,0.0833206-0.4898491,0.004425c1.7814913-0.6399384,3.5611296-1.28508,5.3448534-1.9187469
		c3.8312893-1.3610306,7.6384888-2.7863388,11.4463348-4.2111206c1.0581703-0.3959198,1.6499577-0.9465637,1.8344975-2.0610657
		c0.078043-0.4713516,0.0386276-1.050087,0.6706829-1.5835876c-0.4607964,2.2561874,0.7365723,3.3204269,2.3753242,4.2803116
		c2.5790863,1.5106659,5.0516548,3.203064,7.5671577,4.8218842c0.2323685,0.1495438,0.4491463,0.323288,0.7413063,0.5352173
		c-0.35783,0.2018356-0.5583649-0.0330811-0.7578354-0.1382217c-3.1051292-1.6366653-6.2116127-3.2709961-9.3020554-4.935051
		c-0.5418358-0.2917633-0.9933357-0.329628-1.5648403-0.0692902c-1.2327728,0.5615463-2.5031796,1.0402603-3.7555008,1.5593491
		c-1.0361252,0.4294662-1.0450783,0.4392166-0.538475,1.3978348c1.4893303,2.8181915,2.9895554,5.6306152,4.4805717,8.4479218
		c0.1648865,0.3115463,0.4066887,0.5964279,0.3955708,0.9805908
		C30.8871174,122.2900467,30.1397076,122.2842178,29.4257603,121.9877625z"></path>
	<path d="M218.1030731,48.1101189c-0.3907623,0.593277-0.721405,0.6750526-1.2562866,0.0626106
		c-1.1273499-1.290863-2.3645172-2.4853058-3.5154419-3.756546c-0.5168762-0.5709152-1.0628052-0.8311386-1.858902-0.8336411
		c-2.193161-0.006897-4.3860016-0.117321-6.578949-0.1864281c-0.1196899-0.0037689-0.2396698-0.0006676-0.3591766-0.0069427
		c-0.2026367-0.0106316-0.4191742-0.0297356-0.4534302-0.2824478c-0.0452728-0.3338051,0.2075958-0.4297791,0.450058-0.3968964
		c0.8795166,0.1192551,0.9176025-0.4022713,0.955719-1.0730972c0.1266022-2.2275963,0.3105469-4.4519539,0.4759827-6.6772957
		c0.0171814-0.2312355-0.0212097-0.4874115,0.2172089-0.6471977c0.0842438,0.0784149,0.1684723,0.156826,0.2527161,0.2352448
		c0.0130463,0.1268616,0.0292358,0.2512131,0.2010345,0.2511482l-0.0148926-0.0143967
		c-0.1315918,2.5617142,0.3072205,5.0885963,0.3227844,7.8255424c1.8883362-0.9345207,3.5855408-1.7744598,5.2827606-2.614399
		c0.4611511,0.2582626,0.7874756,0.6249962,0.9226227,1.1455231c-0.6206818,0.4518433-1.2413635,0.9036903-1.8620453,1.3555374
		c0.0049591,0.0881653,0.009903,0.1763344,0.0148621,0.2645073c1.9096222-0.637722,2.9599152,0.6492767,4.1429901,1.6496849
		c0.2673035,0.2260323,0.4797821,0.5262833,0.8282013,0.6502571c0,0,0.0067291,0.0061989,0.0067291,0.0061951
		c0.0577545,0.0622139,0.1154785,0.1244316,0.1732178,0.1866493
		C217.1042023,46.1465721,217.7106781,47.066494,218.1030731,48.1101189z"></path>
	<path d="M221.9766693,56.3089333c-1.2050781,0.4767456-1.9853516,1.2728653-2.036377,2.6451111
		c-0.011734,0.3154221-0.1157684,0.6263237-0.1572571,0.9419479c-0.1151123,0.8761215-0.4594421,1.4483681-1.3837738,1.8380852
		c-3.8573456,1.6263618-7.6652222,3.3699036-11.4922638,5.0681992c-0.1728668,0.0767212-0.3556519,0.1311798-0.5583496,0.131424
		c2.2675323-1.3447189,4.5957184-2.5624161,6.8261566-3.9483986c1.4905243-0.9262009,2.9929962-1.8329964,4.3825836-2.9138832
		c0.6119995-0.4760704,1.0679779-1.0441933,1.4438782-1.7222252c0.7130432-1.2861176,1.3965302-2.5953903,2.3273468-3.7483101
		C221.6452179,55.1321144,221.8438416,55.7080612,221.9766693,56.3089333z"></path>
	<path d="M203.5902405,123.7194214c-1.4552765-2.7807312-2.9099121-5.5617981-4.3663025-8.3419418
		c-0.4266815-0.8145065-0.4316101-0.8184738,0.425354-1.2551727c1.1264801-0.5740509,2.2564697-1.1421967,3.688324-1.3701401
		c-0.7444153,1.5363998-2.308548,1.3689957-3.4739227,2.0037613c1.8032227,3.0109634,3.6729126,5.9158325,5.2957458,8.9641342
		C204.6363373,123.789299,204.1132813,123.7910843,203.5902405,123.7194214z"></path>
	<path d="M19.8084869,120.9108429c-1.6409416-0.9772949-3.4319782-1.6363678-5.1599474-2.4290161
		c-0.6744652-0.3093948-1.3549786-0.6056137-1.9657574-1.0825653c4.4302588,1.4431915,8.8605185,2.8863831,13.2907782,4.329567
		c-0.7804527,0.1239471-1.5254955-0.1833649-2.2953682-0.1882553c-0.3228302-0.1813812-0.6707802-0.1298904-1.0153866-0.1094131
		C21.7026653,121.305397,20.7381763,121.2034607,19.8084869,120.9108429z"></path>
	<path d="M219.1168213,122.4491501c-0.0345306-1.4599762,0.122879-2.9043045,0.317276-4.5282364
		c1.6800232,1.3300476,3.39534,2.3745193,4.8972473,3.7127151c-0.8139191,0.2368622-1.631958,0.4473648-2.4919586,0.3905487
		c-0.6133118-0.5425186-1.2266388-1.0850296-1.8519135-1.6381226c-0.4197083,0.6539383-0.3560181,1.3197784-0.5281677,1.9253387
		C219.3451385,122.3573151,219.2309875,122.4032288,219.1168213,122.4491501z"></path>
	<path d="M43.9540558,121.5127869c-0.0443039-2.1425705,0.2447433-4.2553177,0.4529076-6.4230347
		c0.7650642,0.1760254,1.2060776,0.6853256,1.78302,0.9373627c0.2577095,0.3889008,0.1826591,0.8139114,0.134285,1.2360153
		c-0.5201035-0.2204895-0.9061775-0.3575974-1.0444374,0.4775162c-0.2045975,1.2358093-0.572113,2.4446869-0.8702621,3.6650314
		C44.2766304,121.5216751,44.1254425,121.5601349,43.9540558,121.5127869z"></path>
	<path d="M204.2297668,93.0556335c-0.1803131,0.8628616-0.9565735,1.2997589-1.4194641,1.9617386
		c-0.4278412,0.6119003-0.9546356,1.1547089-1.439682,1.7301102c1.3036194,1.1190567,2.5623779,2.1996002,3.8211517,3.2801514
		l0.0205688-0.0160065c-1.0116425-0.0121689-1.8272552-0.5996628-2.5895691-1.1026306
		c-1.5446167-1.0191193-2.7085266-0.7588806-4.1218872,0.3662415c-2.84021,2.2609329-5.8459625,4.3141098-8.7838287,6.4524536
		c-0.1491241,0.1085434-0.2816315,0.260498-0.4760132,0.255249c-0.0385132-0.0766144-0.0756378-0.1289291-0.0674591-0.1373367
		c1.7932892-1.8481445,1.9432068-4.27491,2.3335419-6.6159363c0.2295685-1.3767395,0.4493103-2.7551041,0.6772461-4.1321106
		c0.1752472-1.0586624,0.1554871-1.0830231-0.9072571-1.0363235c-0.1900787,0.0083542-0.3849487,0.1230164-0.5831146-0.029892
		c-0.1572113-0.2464371-0.0496826-0.532196-0.0727844-0.8037643c-0.0474396-0.5570526,0.2228546-0.7914734,0.7710724-0.8130264
		c0.9575195-0.0376511,1.9129944-0.1298676,2.8705902-0.1619873c0.7034607-0.0235977,0.8847198-0.3534088,0.9610901-1.0377808
		c0.118988-1.0663605-0.0536652-2.0341339-0.416626-3.0226059c-0.7824097-2.1308289-1.5173798-4.2792206-2.2539215-6.4265289
		c-0.1086578-0.3167877-0.2796021-0.6413345-0.2210388-1.0157547c0.3295898,0.0923004,0.3634796,0.35289,0.4633636,0.564209
		c1.0388031,2.1981049,2.047226,4.4113312,3.130661,6.5872498c0.4581909,0.9202499,0.7284698,1.8327484,0.6229248,2.8613892
		c-0.0487366,0.4749832,0.0165405,0.9614029-0.0285339,1.4370728c-0.054657,0.576683,0.1187592,0.982811,0.623291,1.3031693
		c0.7409058,0.470459,1.466629,0.9715805,2.1560669,1.5139389c0.4924316,0.3873367,0.8968353,0.3367844,1.4070892,0.0365219
		c1.1642761-0.6851349,2.2940979-1.4353638,3.537262-1.9806824L204.2297668,93.0556335z"></path>
	<path d="M17.4540157,50.8165321c-0.630291,5.2199059-1.162693,10.4408264-1.8164673,15.6469383
		c-0.6204281,4.940567-1.1804876,9.8887177-1.7598495,14.8343887c-0.0983372,0.839447-0.3262501,1.6054916-0.7753201,2.3485641
		c-1.6072884,2.6595306-3.1531239,5.3561478-4.7274599,8.0356445c-0.0764551,0.130127-0.2028246,0.230957-0.4883537,0.547905
		C11.1147823,78.2563934,14.284399,64.5364609,17.4540157,50.8165321z"></path>
	<path d="M16.3459606,100.5306854c2.4777813-2.3208237,4.7072372-4.8855515,7.1366501-7.2534485
		c0.3679848-0.3586578,0.23176-0.5413055-0.0823421-0.8493042c-1.2146091-1.1910248-2.7120533-1.9615479-4.1230221-2.8616791
		c-0.3891811-0.2482834-0.7787075-0.4960251-1.2767258-0.8132172c0.8706417-0.3341217,1.4876976-0.1605759,2.1251793,0.2497406
		c1.2412415,0.7989273,2.5503082,1.4951019,3.7700882,2.3238068c0.6185837,0.4202652,1.0533981,0.3168716,1.6043358-0.0600357
		c1.940731-1.3276825,3.903614-2.6230087,5.9985371-4.0245743c0.1933994,1.2592697,0.3683014,2.3980942,0.5857048,3.8136444
		c-0.4974442-0.6232529-0.6273136-1.1227722-0.7789478-1.588356c-0.1842289-0.5656738-0.3869019-0.6969833-0.9122925-0.3227692
		c-1.5239315,1.0854187-3.0753994,2.1322174-4.7193241,3.2653503c1.3855743,0.8461838,2.6964951,1.6369171,3.9955616,2.4466553
		c0.3515053,0.219101,0.5832748,0.1615067,0.7817936-0.1860962c0.250864-0.4392548,0.5131798-0.8719788,0.9264641-1.2573929
		c0,3.7036896,0,7.4073792-0.000618,11.1109543c-0.3002968-0.7046432-0.3532925-1.4475479-0.3858376-2.2025681
		c-0.0583954-1.3549881-0.1679478-2.7077332-0.2321815-4.0625534c-0.0181751-0.3833389-0.1095276-0.6841202-0.4248924-0.9329834
		c-1.5985184-1.2613373-3.1954002-2.5251617-4.7714767-3.8142242c-0.422905-0.3458786-0.6516724-0.2406845-0.9682331,0.1394272
		c-0.9522476,1.1434326-2.1455727,2.0114822-3.3289986,2.9046097c-2.113905,1.5953445-3.8258038,3.6190491-5.6378908,5.5325775
		c-0.1828432,0.1930847-0.2682009,0.5058746-0.7456322,0.5296173c0.5194969-2.8944626,1.0322895-5.751564,1.5450792-8.6086655
		c0.0462971,0.0069504,0.0925922,0.0139008,0.1388855,0.0208511c-0.1117554,2.1268921-0.2235146,4.2537766-0.3352718,6.3806686
		c-0.095417,0.0793076-0.1427307,0.1665115-0.0220394,0.2576523
		C16.2155914,100.6737137,16.2983932,100.5788956,16.3459606,100.5306854z"></path>
	<path d="M43.6841736,89.9384689c-0.5032654-0.0306625-0.7255325-0.4607773-1.0268059-0.7549286
		c-2.1369209-2.0864639-4.248661-4.1983414-6.3088112-6.4473572c-1.0910492,1.099678-1.9215469,2.3529282-2.9726677,3.6187897
		c-0.0288239-1.2322083,0.3037796-2.2593307,0.5647926-3.2642212c0.215004-0.8277359-0.0322189-1.2374344-0.6292-1.6934052
		c-2.0559883-1.5703659-4.0864544-3.1741409-6.1223202-4.7706909c-0.1197205-0.0938873-0.2013607-0.2362595-0.3007183-0.3560791
		l-0.0212593,0.0169144c0.4145851-0.1278763,0.6592865,0.1817551,0.9549961,0.3664246
		c2.1611671,1.349617,4.3441067,2.665947,6.4750957,4.0615234c0.7511673,0.4919434,1.3280563,0.496048,2.0245514-0.052681
		c0.6855507-0.5400925,1.5251808-0.9006653,2.1545601-1.4917297c0.637001-0.5982208,0.2820396-1.6142883,0.722435-2.4203262
		c0.4106178-0.0150604,0.7021179,0.3001328,0.9962006,0.5058212c0.8946533,0.6257629,0.9158173,1.1100082,0.1601372,1.890358
		c-0.7469673,0.771347-1.4985695,1.5385971-2.2128983,2.4865646c1.0357628,0.9755325,1.9864464,2.0539703,3.1160812,2.8912354
		c1.6241913,1.203804,2.2025528,2.8281937,2.3589516,4.7129135c0.0197334,0.237793,0.036026,0.4758606,0.0539131,0.7138062
		L43.6841736,89.9384689z"></path>
	<path d="M35.1600075,73.0213394c-1.739975-0.9802246-3.3184853-2.2033386-4.9647541-3.3228455
		c-4.2224121-2.8713531-8.4136448-5.7885094-12.6171665-8.6876144c-1.0534763-0.7265663-1.0555801-0.7274971-0.7925758-1.9957352
		c0.0646572-0.3117828,0.1530361-0.6185837,0.2260761-0.9287186c0.0708504-0.3008423-0.0351658-0.6388435,0.2457561-0.9852104
		c1.1535854,0.6945381,2.0669346,1.6915321,3.0691395,2.5616302c4.9128342,4.2652473,9.7928181,8.5682945,14.6819286,12.8607979
		c0.1170807,0.1027908,0.2051926,0.2385483,0.3068123,0.3589325C35.2640533,72.9294586,35.2123146,72.9757156,35.1600075,73.0213394
		z"></path>
	<path d="M214.329895,116.3234177c-0.4107361,0.0966187-0.6643219-0.1980362-0.9621735-0.3845367
		c-1.5206909-0.9522018-3.0521851-1.8877106-4.5581055-2.8626633c-0.5795135-0.3751907-1.0995636-0.5018234-1.7733002-0.1977005
		c-0.9773407,0.441185-2.0045319,0.7721252-3.3119812,1.2633591c0.5283203-0.6262512,0.8383331-1.1023865,1.251358-1.4595184
		c0.7363281-0.6366119,0.9086456-1.4474564,0.9532318-2.3518219c0.1806946-3.6648026,0.3793945-7.3287277,0.5740509-10.9928436
		c0.0123596-0.2327881-0.0376434-0.481987,0.3012695-0.8643951c0,1.1214371,0.0028839,2.0672684-0.0005341,3.0130844
		c-0.0102692,2.8336182,0.0080872,5.667923-0.0545807,8.500412c-0.017868,0.8067627,0.1695404,1.3009872,1.001709,1.4485931
		c0.5266876,0.0934067,0.9458923,0.3923645,1.350708,0.7282333c1.713028,1.4212036,3.5740204,2.6582565,5.2091522,4.1768112
		L214.329895,116.3234177z"></path>
	<path d="M17.9898205,45.9933319c0.0826111-0.1420898,0.1652203-0.2841759,0.2478294-0.4262695
		c4.017889,0.3543816,8.0357952,0.7085381,12.0535889,1.0640068c0.1588135,0.0140533,0.3177662,0.0338402,0.4744873,0.0627022
		c0.357008,0.0657501,0.4033089,0.3266373,0.3971081,0.6299095c-0.0090408,0.4424515-0.3282204,0.3931694-0.5964413,0.3600121
		c-1.1487942-0.1420097-2.2953796-0.3019447-3.4425812-0.4567375
		C24.0790958,46.8161316,21.0344772,46.4045906,17.9898205,45.9933319z"></path>
	<path d="M195.2514191,115.7606049c-2.0676422,0.802063-4.1336365,1.6083908-6.2050781,2.4004974
		c-0.2427521,0.0928345-0.5861053,0.2286148-0.6352692-0.2190628c-0.0469818-0.4277725-0.1251831-0.9210892,0.4724121-1.0668411
		c0.5801697-0.1414795,1.1689148-0.247612,1.7526855-0.374855c1.5100403-0.3291245,3.019455-0.6613083,4.5290985-0.9922791
		C195.193985,115.5922394,195.2226868,115.6764221,195.2514191,115.7606049z"></path>
	<path d="M207.0784454,94.9443665c-0.3042755-0.6633682,0.054306-1.3302002-0.3358459-1.747612
		c-0.3753052-0.4015045-1.09935,0.0006104-1.5814972-0.4592056c0.5437622-0.3589478,1.389801,0.1444321,1.7406311-0.6398239
		c0.2589874-0.5789032,0.2285461-1.2534637,0.6403351-1.8784103c0.3228455,0.6383438,0.0120087,1.3311768,0.2896271,1.8690643
		c0.2836304,0.5495529,1.094574,0.3648453,1.5230713,0.8295898c-0.5912628,0.3344116-1.2661896-0.0883331-1.7429199,0.2669525
		C207.1044006,93.5630951,207.5201721,94.3267517,207.0784454,94.9443665z"></path>
	<path d="M32.408493,60.9326363c0.1960144-0.4206276,0.6248169-0.5355835,1.005722-0.7107887
		c-0.1876106,0.4425163-0.4746323,0.7494316-1.0264664,0.692173L32.408493,60.9326363z"></path>
	<path d="M35.3152237,72.882576c0.3178444,0.113327,0.5695038,0.2915497,0.7263374,0.6888962
		c-0.4643898-0.0366974-0.6787987-0.2843781-0.8815536-0.5501328C35.2123146,72.9757156,35.2640533,72.9294586,35.3152237,72.882576
		z"></path>
	<path d="M32.3877487,60.9140205c0.0669479,0.2369308-0.0842896,0.333168-0.2686348,0.3914528
		c-0.0339317,0.0107346-0.1394062-0.0726891-0.1343002-0.0906029c0.0594521-0.208847,0.2257156-0.2723274,0.4236794-0.2822342
		L32.3877487,60.9140205z"></path>
	<path d="M31.1938019,36.6225014c-0.040823-0.0563164-0.1194229-0.1160851-0.1147785-0.1684799
		c0.0118141-0.1332092,0.1192207-0.1840706,0.2314053-0.1218414c0.0461979,0.0256271,0.0728645,0.1362762,0.0629044,0.2012825
		C31.3590679,36.626545,31.279417,36.6531563,31.1938019,36.6225014z"></path>
	<path d="M36.4787712,73.8824692c0.1433029,0.0434952,0.2862015,0.0895386,0.3284683,0.2575836
		c0.0030861,0.0122681-0.0596809,0.0619049-0.0775604,0.055336c-0.1508369-0.0553894-0.2462616-0.1564713-0.2360229-0.3298187
		L36.4787712,73.8824692z"></path>
	<path d="M214.3106995,116.3404312c0.1538849,0.0208206,0.2999573,0.0646057,0.3525696,0.2285156
		c0.0245514,0.0764618-0.0424042,0.1285248-0.1225433,0.0937347c-0.1425476-0.0618744-0.2577057-0.153801-0.2108307-0.3392639
		L214.3106995,116.3404312z"></path>
	<path d="M31.6527481,61.541275c-0.0275288,0.0183945-0.0564289,0.0528641-0.0821972,0.0506706
		c-0.0258236-0.0022049-0.0485229-0.0410004-0.0725937-0.0637589c0.0275803-0.0183525,0.0564804-0.052681,0.0823765-0.0505524
		C31.6060448,61.4797592,31.6287308,61.5185623,31.6527481,61.541275z"></path>
	<path d="M36.4936562,73.8655701c-0.0701294-0.0169296-0.1402626-0.0338669-0.210392-0.0507965
		c0.1425819-0.2007446,0.1416779,0.0124207,0.195507,0.0676956L36.4936562,73.8655701z"></path>
	<path d="M204.2445068,93.0727615c0.0415497-0.0510941,0.0831299-0.1021881,0.1246796-0.1532822
		c0.0829163,0.1777267-0.0206604,0.1646957-0.1394196,0.1361542L204.2445068,93.0727615z"></path>
	<path d="M26.888443,76.2705765c-0.0588703-0.0441818-0.1177425-0.0883636-0.1766148-0.1325455
		c0.1703434-0.0732727,0.2138252-0.0148315,0.1553555,0.1494598L26.888443,76.2705765z"></path>
</g>
<g onclick="select(this)" class="" id="c-gola-primaria" fill="#ffffff">
	<path d="M141.8400116,0.2398625c0.9352417,0.4771891,1.9903564,0.4514143,2.980835,0.7014377
		c1.6293793,0.4112955,3.0397186,1.1099842,4.0979767,2.4798911c1.2979279,1.6801543,2.954361,3.0024004,4.5722809,4.3573456
		c-0.6714935,0.0580463-1.3492737,0.0771222-2.0140686,0.1799874c-4.3337555,0.6705794-8.666153,1.3654246-13.0371857,1.7368207
		c-7.5183716,0.6388168-15.0402679,1.3717794-22.5928345,1.2755909
		c-11.3899536-0.1450605-22.6626663-1.7513714-33.9637909-2.9786882c2.0136108-1.5906281,3.7637787-3.4338651,5.4023972-5.4079289
		c1.0503387-1.2653532,2.6547012-1.5214591,4.1811066-1.8618273c0.7111969-0.1585839,1.5111389,0.0629984,2.1332779-0.4826289
		c2.0799942,0,4.1600037,0,6.2399979,0c1.610321,0.3430655,3.2407608,0.1233167,4.8598785,0.141055
		c1.6586609,0.0181716,3.3290863,0.1942236,4.9801254-0.141055c2.7200012,0,5.4399948,0,8.159996,0c2,0.190501,4,0.3693242,6,0
		C129.8400116,0.2398625,135.8400116,0.2398625,141.8400116,0.2398625z"></path>
</g>
</svg>
