<!--?xml version="1.0" encoding="utf-8"?-->
<!-- Generator: Adobe Illustrator 24.2.3, SVG Export Plug-In . SVG Version: 6.00 Build 0)  -->
<svg version="1.1" id="Camada_1" xmlns="http://www.w3.org/2000/svg" xmlns:xlink="http://www.w3.org/1999/xlink" x="0px" y="0px" viewBox="0 0 229 418" style="enable-background:new 0 0 229 418;" xml:space="preserve">
<style type="text/css">
	.st0{fill:#FD0303;}
	.st1{fill:#8DFA3E;}
</style>
<g onclick="select(this)" class="" id="gola-primaria" fill="#343434">
	<path d="M78,8c0.5-0.1,1-0.4,1.4-0.7c1-0.9,2-1.7,2.8-2.8c1.8-2.5,4.4-3.4,7.2-3.8c0.6-0.1,1.4,0.1,1.9-0.5
		c1.2,0,2.4,0,3.6,0c0.2,0.5,0.6,0.3,0.9,0.3c5.6,0,11.2,0,16.7,0c0.4,0,0.8-0.1,1.1-0.3c7.5,0,15,0,22.6,0c0.1,0.5,0.5,0.3,0.8,0.4
		c1,0.2,2,0.3,2.9,0.4c2,0.3,3.7,1.1,4.9,2.8c1.3,1.7,2.7,3.3,4.6,4.4c1.3,0.6,1.9,1.5,1.8,3c-0.2,3.6-1.9,6.5-4,9.3
		c-0.5,0.6-0.8,0.5-1.3,0.1c-1.7-1.3-3.3-2.6-5-3.9c-0.8-0.6-0.9-0.9-0.2-1.7c1.6-1.7,2.8-3.6,3.7-6c-3.8,0.3-7.5,0.6-11.1,0.8
		c-8.3,0.5-16.6,1.4-24.9,0.9c-8-0.4-15.9-1.1-23.9-1.9c-1.3-0.1-1.4,0-0.9,1.1c0.8,2,2.1,3.7,3.5,5.2c0.5,0.6,0.6,1-0.1,1.5
		c-1.7,1.3-3.4,2.7-5.1,4c-0.5,0.5-0.9,0.4-1.3-0.1c-1.9-2.4-3.4-5-4.2-8C75.9,10.4,76.3,9.2,78,8z"></path>
</g>
<g onclick="select(this)" class="" id="estampa-primaria" fill="#343434">
	<path d="M43.2,120.4c-0.1-2.3-0.2-4.6-0.6-6.9c-0.1-0.5-0.2-0.6-0.7-0.4c-2.5,1.1-5.2,1.1-7.8,1.5c-1.5,0.2-3-0.1-4.5-0.1
		c-4.2,0-8.5-0.1-12.7-0.5c-3.8-0.4-7.6-1.1-11.2-2.4c-1.4-0.5-3-0.9-4.2-1.9c1.8-9.4,2.7-19,4.2-28.4c0.9-5.2,1.2-10.4,2.3-15.5
		c1.7-8,4.4-15.7,9.4-22.4c2.1-2.9,4.6-5.6,7.4-7.8c1.4-1.1,2.4-2.6,3.9-3.4c3.6-1.9,7.3-3.7,11-5.3c10-4.1,20-8.2,29.4-13.4
		c2-1.1,4-2.1,5.5-3.9c0.8-1,2-1.6,3.4-1.6c-1.7,1.2-2.1,2.5-1.5,4.7c0.7,3,2.2,5.6,4.2,8c0.5,0.6,0.8,0.6,1.3,0.1
		c1.7-1.4,3.3-2.7,5.1-4c0.7-0.5,0.6-0.9,0.1-1.5c-1.5-1.6-2.7-3.2-3.5-5.2c-0.5-1.2-0.4-1.3,0.9-1.1c7.9,0.8,15.9,1.5,23.9,1.9
		c8.3,0.5,16.6-0.4,24.9-0.9c3.7-0.2,7.3-0.5,11.1-0.8c-0.9,2.3-2.1,4.2-3.7,6c-0.7,0.8-0.6,1.1,0.2,1.7c1.7,1.2,3.4,2.5,5,3.9
		c0.5,0.4,0.8,0.5,1.3-0.1c2.1-2.8,3.8-5.7,4-9.3c0.1-1.5-0.5-2.4-1.8-3c1.8-0.1,3,1,4,2.2c0.3,0.4,0.7,0.7,1.1,1
		c10,6.5,21.2,10.6,32.1,15.2c4,1.7,7.8,3.6,11.8,5.3c1.2,0.5,1.9,1.6,3,2.4c3.5,2.6,6.7,5.6,9.3,9.1c4.9,6.4,7.6,13.8,9.4,21.6
		c0.6,2.9,1.2,5.8,1.5,8.7c0.6,5.8,2.3,11.3,3.4,17c1.1,5.5,1.7,11,2.8,16.5c0.1,0.3,0,0.6,0.1,1c-3.3,1.3-6.6,2.4-10,3.2
		c-3.1,0.7-6.3,1.1-9.4,1.7c-3,0.5-6.1,0.7-9.2,0.7c-4.2,0-8.5,0.3-12.7-0.6c-1.2-0.3-1.4,0.1-1.6,1.1c-0.4,1.9-0.3,3.9-0.3,5.8
		c-0.4,0.8-0.3,1.7-0.4,2.6c-1,8.4-1.7,16.8-1.7,25.2c0,2.2,0.1,4.4,0.5,6.6c0.4,1.9,0,3.8-0.2,5.7c-0.2,2.1-0.3,4.2-0.1,6.3
		c0.2,2.5-0.2,5-0.2,7.5c0,2.6-0.1,5.2,0.2,7.8c0.2,2.4-0.2,4.8-0.2,7.2c0,2.3,0.5,4.4,1,6.6c1.6,7.3,1.4,14.5,0.3,21.8
		c-0.3,2.1-0.4,4.2,0.3,6.4c1.8,5.4,1.8,11,0.9,16.6c-0.2,1.5-0.2,2.9,0.1,4.4c0.9,3.8,0.4,7.7,0.6,11.6c0.3,5.9,0.7,11.8,1.4,17.7
		c0.3,2,0.2,4.1,0.3,6.2c0,1.7-0.4,2.2-2.1,2.7c-3,0.9-6.1,1.2-9.2,1.5c-8.3,0.9-16.7,0.9-25,1c-11.6,0.2-23.2,0.8-34.8,0.8
		c-11.5,0-23-0.8-34.5-0.9c-8.4,0-16.7-0.1-25.1-0.7c-4.2-0.3-8.4-0.8-12.6-1.7c-3.6-0.8-4-1.2-3.8-4.8c0.4-7.7,1-15.4,1.5-23.1
		c0.1-2,0.3-4,0.2-6c0-1.9,0-3.8,0.4-5.6c0.4-2.2,0.4-4.4,0.1-6.7c-0.4-2.5-0.1-5,0.4-7.5c0.2-1,0.2-2,0.1-3.1
		c-0.3-4.5-1-9.1-0.8-13.6c0.2-4.3,1.2-8.5,2.7-12.5c0.4-1,0.6-2,0.5-3.1c-0.2-1.2-0.2-2.5,0.1-3.7c0.3-1.7,0.2-3.3,0.1-5
		c-0.2-3.3-0.2-6.6-0.2-9.9c-0.1-12.9,0-25.8-0.1-38.7c0-5.2-1-10.3-1.6-15.5C43.6,122.9,43.8,121.6,43.2,120.4z"></path>
</g>
<g onclick="select(this)" class="" id="detalhe-punho" fill="#000000">
	<path d="M0.2,114.7c0.6-1.1,0.4-2.3,0.7-3.4c0.2-0.5,0.1-1.1,0.5-1.6c1.2,1,2.8,1.3,4.2,1.9c3.6,1.4,7.4,2,11.2,2.4
		c4.2,0.4,8.4,0.5,12.7,0.5c1.5,0,3.1,0.3,4.5,0.1c2.6-0.4,5.3-0.4,7.8-1.5c0.5-0.2,0.6-0.1,0.7,0.4c0.4,2.3,0.5,4.6,0.6,6.9
		c-0.6,0.6-1.3,0.7-2,0.9c-2.3,0.6-4.5,1-6.9,1c-7.6,0.2-15.2,0.2-22.7-1.2c-3-0.6-6-1.1-8.9-2.1c-0.8-0.3-1.6-0.6-2.4-1
		C0.2,116.9,0.2,115.8,0.2,114.7z"></path>
	<path d="M184.6,120.1c0-2-0.1-3.9,0.3-5.8c0.2-1,0.4-1.4,1.6-1.1c4.2,0.9,8.4,0.6,12.7,0.6c3.1,0,6.1-0.2,9.2-0.7
		c3.1-0.5,6.3-0.9,9.4-1.7c3.4-0.8,6.8-1.9,10-3.2c1,2.4,1.3,5,1.2,7.6c0,0.7-0.8,0.8-1.3,1.1c-2.5,1-5.1,1.6-7.7,2.3
		c-9.1,2.5-18.5,3.1-27.9,2.6c-2-0.1-4.1-0.3-6-0.9C185.5,120.7,185,120.6,184.6,120.1z"></path>
</g>
<g onclick="select(this)" class="" id="estampa-secundaria" fill="#000000">
	<path d="M182.8,137.2c-0.9-0.3-1.8-0.7-2.8-1c-0.7,6.5-1.3,13-2,19.7c-5.2-5-10.2-9.8-15.4-14.8
		c-3.2,6.3-6.3,12.4-9.5,18.8c-1.6-3.3-3.2-6.4-4.7-9.6c-1.3-2.6-2.6-5.2-3.8-7.9c-0.3-0.7-0.5-0.9-1.2-0.3
		c-4.8,4.5-9.6,8.9-14.5,13.3c-0.1,0.1-0.3,0.3-0.6,0.5c-0.4-6.9-0.9-13.5-1.3-20.3c-6.7,2.8-13.2,5.5-20,8.3c0.8-2.8,1.6-5.4,2.4-8
		c1-3.4,2-6.9,3.1-10.3c0.3-0.8,0.1-0.9-0.8-0.9c-6.9,0.6-13.8,1.2-20.8,1.8c4.3-5.7,8.5-11.3,12.8-17c-7.1-1.8-14.1-3.6-21.3-5.4
		c6.1-3.9,12-7.7,18.1-11.6c-5.8-4-11.6-7.9-17.6-11.9c7-1.8,13.7-3.6,20.6-5.4c-4.1-5.4-8.2-10.8-12.4-16.4
		c1.3,0.1,2.5,0.1,3.6,0.2c5.8,0.5,11.6,0.9,17.4,1.4c0.9,0.1,0.9-0.1,0.7-0.9c-1.9-5.9-3.8-11.8-5.7-17.7c-0.1-0.3-0.1-0.5-0.2-0.8
		c0.1,0,0.1-0.1,0.2-0.2c5.8,2.6,11.7,5.1,17.5,7.7c0.8,0.3,1.6,0.7,2.6,1.1c0.5-7,0.9-13.9,1.4-21c1.3,1.2,2.5,2.3,3.6,3.5
		c3.8,3.6,7.5,7.3,11.2,10.9c0.6,0.6,0.9,0.7,1.3-0.2c2.4-5.1,4.9-10.1,7.4-15.2c0.1-0.2,0.1-0.4,0.2-0.6c0.2-0.4,0.2-1.2,0.6-1.2
		c0.6,0,1.2,0.4,1.5,1c1,1.9,1.9,3.8,2.9,5.8c1.8,3.6,3.6,7.1,5.4,10.8c1.9-1.8,3.8-3.5,5.7-5.2c1.2-1.1,2.4-2.2,3.6-3.3
		c0.4-0.3,0.6-0.5,1.2-0.3c1.7,0.6,3.3,1.1,5,1.6c0.7,0.2,0.7,0.6,0.7,1.2c0.4,4,0.8,8,1.2,12.1c6.5-2.9,12.9-5.7,19.5-8.7
		c-1.8,6.5-3.6,12.8-5.4,19.2c7.5-0.6,14.9-1.1,22.5-1.7c-4.4,5.7-8.6,11.2-12.9,16.8c3.9,1,7.6,1.9,11.4,2.9c2.5,0.6,5,1.2,7.4,1.8
		c0.4,0.8,0.6,1.6,0.6,2.5c-3.2,2-6.4,4-9.6,6c-2.1,1.3-4.2,2.7-6.4,4.1c5.9,4,11.8,8,17.8,12.1c-7.1,1.7-14,3.4-20.9,5
		c1,1.4,1.9,2.6,2.8,3.8c-1.6,0.3-3.1,0.5-4.7,0.4c-1.5-2-3-4.1-4.5-6c-0.5-0.7-0.4-0.9,0.4-1c2.8-0.7,5.7-1.3,8.5-2
		c2.8-0.7,5.5-1.3,8.5-2.1c-5.2-3.5-10.1-6.9-15.2-10.3c5.3-3.3,10.4-6.6,15.6-10c-6.3-1.6-12.4-3.1-18.6-4.7
		c3.7-4.9,7.4-9.6,11.1-14.5c-6.2,0.5-12.1,0.9-18,1.4c-1,0.1-1.2-0.1-0.9-1.1c0.9-3.2,1.8-6.4,2.7-9.5c0.5-1.9,1-3.7,1.6-5.8
		c-0.6,0.2-0.9,0.4-1.3,0.6c-4.8,2.1-9.6,4.3-14.4,6.4c-0.7,0.3-1,0.3-1.1-0.6c-0.3-3.6-0.7-7.2-1-10.8c-0.2-1.9-0.4-3.8-0.6-5.9
		c-0.5,0.4-0.8,0.7-1.1,0.9c-3.8,3.6-7.7,7.1-11.5,10.7c-0.6,0.5-0.9,0.7-1.3-0.2c-1.4-3-3-6-4.5-9c-1-2-2-4-3.1-6.2
		c-2.7,5.6-5.4,11-8.1,16.5c-4.5-4.4-8.9-8.6-13.5-13c-0.4,5.5-0.7,10.6-1,15.7c-0.1,2.5-0.1,2.5-2.3,1.5c-0.3-0.1-0.5-0.2-0.8-0.3
		c-4.8-2.1-9.5-4.2-14.5-6.4c1.8,5.7,3.6,11.3,5.4,16.9c-6.3-0.5-12.5-1-18.9-1.4c3.6,4.8,7.1,9.3,10.7,14
		c-5.9,1.6-11.7,3.1-17.7,4.7c5.2,3.5,10.2,6.9,15.2,10.3c-5.1,3.3-10.1,6.5-15.3,9.8c6.1,1.6,12,3,18.1,4.6
		c-3.7,4.9-7.2,9.6-10.8,14.4c0.2,0.3,0.4,0.2,0.6,0.2c5.6-0.5,11.1-0.9,16.7-1.4c1-0.1,1.2,0.1,0.8,1.1c-0.6,1.6-1,3.2-1.4,4.8
		c-1.1,3.6-2.1,7.1-3.2,10.9c5.8-2.4,11.5-4.8,17.3-7.2c0.4,5.9,0.8,11.7,1.2,17.6c4.6-4.3,9.1-8.3,13.6-12.5
		c2.6,5.3,5.1,10.5,7.6,15.7c0.4,0,0.4-0.2,0.4-0.4c2.5-4.9,5.1-9.9,7.5-14.8c0.4-0.8,0.6-1,1.3-0.3c2.5,2.4,5,4.8,7.5,7.3
		c1.6,1.6,3.3,3.1,4.9,4.7c0.3-0.2,0.3-0.5,0.3-0.7c0.5-5,1-10,1.5-15c0.1-0.9,0.3-1,1.1-0.7c1.9,0.8,3.8,1.6,5.6,2.4
		C183.2,134.4,183.1,135.8,182.8,137.2z"></path>
	<path d="M182.6,182.4c-5.2-5-10.4-9.9-15.7-15c-4.7,9.3-9.4,18.5-14.2,27.9c-4.5-9.3-8.9-18.4-13.4-27.6
		c-8.2,7.5-16.2,14.9-24.4,22.5c-0.2-3.7-0.5-7.2-0.7-10.6c-0.4-6.5-0.9-13-1.3-19.6c-0.1-1.1-0.6-0.6-1.1-0.4
		c-4.3,1.8-8.6,3.6-12.9,5.4c-5.2,2.1-10.3,4.3-15.5,6.4c-0.2,0.1-0.4,0.2-0.7,0.3c-0.3-0.6,0.1-1.1,0.3-1.6
		c2.6-8.7,5.2-17.4,7.8-26.1c0.2-0.8,0.3-1-0.7-0.9c-7.4,0.6-14.9,1.2-22.3,1.9c-3.6,0.3-7.2,0.6-11.1,0.9
		c6.7-8.9,13.2-17.5,19.8-26.3c-11.4-2.9-22.6-5.7-34.1-8.6c9.7-6.3,19.3-12.4,29-18.6C62.4,86,53.6,80,44.6,73.9
		c10.7-2.8,21.1-5.6,31.7-8.4c-6.5-8.6-12.9-17-19.5-25.7c1.9,0.1,3.5,0.2,5.2,0.3c5,0.4,10,0.8,15,1.2c4.2,0.3,8.4,0.6,12.7,1
		c0.8,0.1,1-0.1,0.7-0.9c-2.1-6.1-3.8-12.3-6.1-18.3c-0.4-1.1-0.7-2.2-1-3.3c0.1-0.4,0.2-0.9,0.6-1.1c1.4-0.7,2.4-1.8,3.6-2.7
		c1.4,0.8,2.9,1.4,3.7,3.1c0.3,0.8,1.5,0.8,2.3,1.2c0.4,0.2,1.4,0.1,1.2,0.9c-0.2,0.7-1,0.3-1.5,0.2c-1.5-0.4-3.1-0.9-4.6-1.2
		c-0.6-0.1-0.7,0-0.6,0.6c0.6,2.4,1.3,4.7,2.2,6.9c1.1,2.9,1.9,5.8,2.9,8.8c1,3.2,2,6.3,3.1,9.5c0.2,0.7,0.5,1-0.7,1
		c-9.6-0.8-19.2-1.5-28.7-2.2c-0.3,0-0.6,0-1.1,0c5.9,7.8,11.8,15.5,17.7,23.3c-9.6,2.5-19.1,5-28.8,7.6c8.2,5.6,16.2,11,24.4,16.6
		C70,97.7,61.4,103.3,52.6,109c10.4,2.6,20.5,5.2,30.8,7.8c-6,8-11.9,15.8-18,23.9c1.4-0.1,2.7-0.2,3.9-0.3
		c8.8-0.7,17.7-1.5,26.5-2.3c1-0.1,0.7,0.4,0.5,0.9c-2.4,8.3-4.9,16.5-7.3,24.8c-0.1,0.2-0.1,0.4-0.2,0.7
		c9.3-3.9,18.4-7.7,27.7-11.5c0.6,9.5,1.2,18.8,1.9,28.3c2.6-2.4,5.1-4.6,7.5-6.9c4.7-4.3,9.4-8.6,14-12.9c0.6-0.6,0.8-0.5,1.1,0.2
		c3.8,7.8,7.6,15.6,11.4,23.5c0.1,0.3,0.2,0.5,0.5,0.9c1-2,2-3.8,2.9-5.7c3.2-6.3,6.4-12.5,9.5-18.8c0.5-1,0.8-0.9,1.5-0.2
		c5.2,5,10.4,10,15.6,15C182.6,178.4,182.7,180.4,182.6,182.4z"></path>
	<path d="M182.6,171.2c-2.3-1.9-4.4-4.1-6.5-6.2c-3.8-3.6-7.5-7.2-11.3-10.9c-3.9,7.8-7.9,15.4-11.9,23.3
		c-3.8-7.7-7.4-15.3-11.2-23c-6.7,6.1-13.3,12.2-20,18.4c-0.4-1.4-0.3-2.8-0.4-4.1c-0.5-6.9-0.9-13.8-1.3-20.8
		c-0.1-1.2-0.7-0.5-1.1-0.4c-5.8,2.4-11.6,4.8-17.4,7.2c-2.2,0.9-4.4,1.8-6.8,2.8c2.4-8.1,4.8-16,7.1-24.1
		c-9.4,0.8-18.6,1.6-28.1,2.4c5.5-7.3,10.8-14.4,16.3-21.7c-9.2-2.3-18.3-4.6-27.7-7c7.9-5.1,15.7-10.1,23.5-15.1
		c-7.4-5-14.7-10-22.2-15.1c8.8-2.3,17.4-4.6,26.1-6.9c-5.3-7-10.6-13.9-16-21.1c9.4,0.7,18.6,1.4,27.9,2.1
		C99,42.8,96.3,34.5,93.6,26c1.5,0.3,2.8,0.7,3.8,1.4c3.7,2.2,7.8,3.6,11.7,5.5c3.2,1.5,6.5,2.9,9.7,4.3c0.8,0.4,1.1,0.4,1.2-0.7
		c0.1-2.8,0.4-5.5,0.6-8.2c0-0.8,0.4-1.1,1.1-1.3c0.3-0.1,0.7-0.1,1.1-0.2c1.8-0.5,1.9-0.5,1.8,1.4c-0.3,5.1-0.7,10.3-1,15.6
		c-7.8-3.4-15.4-6.8-23.3-10.3c0.4,1.3,0.8,2.5,1.2,3.6c1.9,5.9,3.8,11.9,5.7,17.8c0.3,0.9,0.1,1.1-0.8,1
		c-5.2-0.4-10.3-0.8-15.5-1.2c-2.7-0.2-5.3-0.4-8.3-0.7c4.8,6.3,9.5,12.5,14.2,18.7c-7.8,2.1-15.4,4.1-23.3,6.2
		c6.7,4.5,13.2,8.9,19.8,13.4c-6.9,4.4-13.7,8.8-20.7,13.3c8.3,2.1,16.3,4.1,24.5,6.2c-4.8,6.4-9.6,12.7-14.5,19.3
		c8.4-0.7,16.6-1.4,24.9-2.1c-2.2,7.2-4.2,14.3-6.3,21.4c0.4,0.2,0.6-0.1,0.9-0.2c6.8-2.8,13.7-5.6,20.4-8.5c1-0.4,1.2-0.2,1.2,0.8
		c0.4,7.2,0.9,14.4,1.4,21.8c6-5.5,11.9-10.9,17.9-16.4c3.4,6.9,6.6,13.6,10,20.6c1.2-2.4,2.3-4.5,3.4-6.7c2.3-4.5,4.6-9,6.9-13.6
		c0.4-0.8,0.7-0.5,1.1-0.1c4.8,4.7,9.6,9.3,14.5,14c0.6,0.6,1.3,1.2,2.1,2c0.5-5.5,1.2-10.8,1.6-16.1c0.3,4.9,1.1,9.7,0.2,14.6
		c-0.2,1.2-0.2,2.5,0,3.7C182.9,168,182.8,169.6,182.6,171.2z"></path>
	<path d="M183.6,129.2c-3-1.2-6-2.4-9-3.7c-0.8-0.3-1-0.3-1.1,0.6c-0.4,4.3-0.8,8.6-1.3,13c0,0.1-0.1,0.2-0.2,0.4
		c-1.6-1.5-3.1-3-4.7-4.5c-2-2-4.1-3.9-6.1-5.9c-0.6-0.6-0.8-0.5-1.2,0.2c-2.1,4.3-4.3,8.5-6.4,12.7c-0.1,0.2-0.3,0.5-0.5,0.9
		c-2.3-4.7-4.5-9.3-6.8-13.9c-3.9,3.6-7.7,7.1-11.7,10.7c-0.4-5.2-0.7-10.2-1-15.3c-5,2.1-9.9,4.1-15,6.2c1.5-5,2.9-9.8,4.3-14.7
		c-5.3,0.4-10.5,0.9-15.9,1.3c3.2-4.3,6.3-8.4,9.5-12.6c-5.1-1.3-10.1-2.5-15.3-3.9c4.4-2.8,8.6-5.5,12.9-8.3c-4.4-3-8.7-5.9-13.2-9
		c5.2-1.4,10.2-2.7,15.3-4.1c-3-4-5.9-7.9-9.1-12c2.2,0.1,4.1,0.3,6,0.4c3.2,0.3,6.4,0.5,9.5,0.8c0.9,0.1,0.6-0.4,0.5-0.9
		c-1.3-4-2.6-8-3.9-12c-0.1-0.4-0.3-0.9-0.4-1.6c1.1,0.5,1.9,0.8,2.8,1.2c3.6,1.6,7.2,3.2,10.8,4.8c0.9,0.4,1.2,0.4,1.3-0.8
		c0.2-4.5,0.6-9.1,0.9-13.6c0-0.2,0.1-0.4,0.1-0.8c1.4,1.3,2.6,2.5,3.9,3.7c2.3,2.2,4.6,4.4,6.9,6.7c0.6,0.6,0.8,0.5,1.2-0.2
		c2.1-4.3,4.2-8.6,6.3-12.9c0.1-0.2,0.2-0.3,0.4-0.7c2.4,4.8,4.7,9.3,7,14c3.9-3.6,7.6-7.1,11.6-10.8c0.5,5.3,1,10.4,1.5,15.6
		c4.7-2.1,9.4-4.2,14.3-6.4c-0.9,3.2-1.7,6.1-2.6,9.1c-0.4,1.4-0.7,2.8-1.2,4.1c-0.3,0.8,0.1,0.9,0.7,0.8c4.6-0.4,9.3-0.7,13.9-1.1
		c0.4,0,0.8,0,1.2,0c-0.1,0.5-0.5,0.8-0.8,1.3c-2.7,3.5-5.3,7-8,10.4c-0.6,0.8-0.3,0.9,0.4,1.1c4.6,1.2,9.3,2.3,13.9,3.5
		c0.2,0.1,0.4,0.1,0.8,0.2c-4.5,2.9-8.8,5.6-13.2,8.4c4.3,2.9,8.5,5.8,13,8.8c-2.2,0.5-4.2,1-6.2,1.5c-2.8,0.7-5.5,1.4-8.3,2
		c-0.9,0.2-0.8,0.5-0.4,1.1c1.9,2.5,3.9,5.1,5.8,7.7c0.2,0.2,0.3,0.5,0.4,0.7c-3.9-0.1-7.8,0.2-11.7-0.8c-0.2-0.1-0.5-0.2-0.6,0.1
		c-0.3,1.3-0.9,2.7-0.8,4c0,1,0.3,2,0.2,3.1c-0.5,2.2-0.5,4.5-0.8,6.7C183.8,127.7,183.7,128.5,183.6,129.2z M124.6,124.2
		c0.8-0.3,1.6-0.6,2.3-0.9c3-1.3,6-2.5,9.1-3.8c0.8-0.3,1-0.2,1,0.7c0,1.3,0.1,2.6,0.2,3.9c0.2,2.6,0.4,5.1,0.6,7.9
		c3.3-3,6.5-5.9,9.7-8.9c1.9,4,3.8,7.8,5.7,11.8c2.1-4.2,4.2-8.2,6.3-12.3c3.3,3.2,6.5,6.2,9.8,9.4c0.4-3.8,0.8-7.4,1.1-11
		c0.1-0.9,0.3-1,1.1-0.6c3.2,1.4,6.4,2.7,9.6,4c0.6,0.2,1.1,0.4,1.9,0.7c-1.2-4-2.3-7.8-3.5-11.7c-0.3-0.8-0.1-1.1,0.8-1
		c1.4,0.1,2.8,0.2,4.2,0.3c2.6,0.1,5.2,0.3,8,0.4c-2.7-3.6-5.3-7.1-8-10.6c4.3-1,8.4-2,12.7-3.1c-3.7-2.5-7.2-4.9-10.7-7.3
		c3.6-2.3,7.1-4.5,10.7-6.8c-4.3-1.1-8.5-2.2-12.8-3.3c2.7-3.5,5.3-6.9,8-10.4c-4.6,0.3-8.8,0.7-13.3,1c1.1-3.9,2.1-7.7,3.3-11.7
		c-3.8,1.7-7.3,3.3-10.9,4.9c-0.7,0.3-1,0.4-1.1-0.6c-0.1-1.8-0.3-3.7-0.5-5.5c-0.2-2.2-0.4-4.5-0.7-7c-3.4,3.1-6.5,6-9.8,9
		c-2-4-3.9-7.8-5.9-11.8c-2.1,4.3-4.1,8.4-6.1,12.5c-3.2-3.1-6.3-6-9.5-9.1c-0.1,0.4-0.1,0.5-0.1,0.7c-0.2,3.8-0.5,7.6-0.7,11.3
		c-0.1,1-0.3,1-1.1,0.6c-1.5-0.7-3.1-1.4-4.6-2c-2.1-0.9-4.2-1.8-6.5-2.9c1.3,4.1,2.6,8,3.8,11.9c-4.5-0.3-8.9-0.7-13.5-1
		c2.6,3.4,5,6.6,7.5,9.8c-4.3,1.1-8.4,2.2-12.7,3.4c3.8,2.6,7.4,5,11,7.5c-3.5,2.3-6.9,4.4-10.4,6.7c4.2,1.1,8.3,2.1,12.3,3.1
		c-2.6,3.5-5.2,6.9-7.8,10.5c4.5-0.4,8.7-0.7,13-1.1c-0.2,0.7-0.4,1.3-0.5,1.8c-1,3.4-2,6.9-3,10.3c0,0-0.1,0.1-0.1,0.1
		C124.5,124.3,124.6,124.3,124.6,124.2z"></path>
	<path d="M42.7,114.8c8.6,2.2,17.3,4.4,25.9,6.5c1,0.3,1.1,0.4,0.5,1.3c-6.8,8.9-13.5,17.9-20.3,26.9
		c-0.1,0.2-0.4,0.3-0.3,0.7c12.3-1,24.7-2.1,37.2-3.1c-3.1,10.4-6.1,20.7-9.3,31.3c11.1-4.6,22-9.1,33-13.7
		c0.7,11.2,1.5,22.3,2.2,33.5c0.5,0,0.7-0.4,0.9-0.6c8.2-7.6,16.5-15.1,24.7-22.7c0.6-0.6,0.9-0.8,1.4,0.2
		c4.2,8.7,8.4,17.3,12.6,25.9c0.4,0.9,0.9,1.8,1.5,2.9c5.1-10.1,10.2-20,15.3-30.1c2.1,2,4.1,3.9,6.1,5.9c2.8,2.6,5.6,5.3,8.3,7.9
		c0.1,2.1,0.2,4.1,0.5,6.1c-3.3-3.2-6.6-6.3-10-9.5c-1.3-1.2-2.5-2.4-3.9-3.7c-5.5,10.9-10.9,21.6-16.5,32.4
		c-3.2-6.6-6.3-12.9-9.4-19.2c-2-4.1-4-8.1-5.9-12.2c-0.4-0.9-0.6-0.8-1.3-0.2c-6.1,5.6-12.2,11.2-18.2,16.8
		c-3.2,2.9-6.3,5.8-9.6,8.8c-0.1-0.6-0.1-1.1-0.2-1.6c-0.2-3.1-0.4-6.1-0.6-9.2c-0.5-8.1-1.1-16.3-1.6-24.4c-0.1-1-0.3-1.1-1.2-0.7
		c-9.9,4.2-19.8,8.3-29.7,12.4c-1.5,0.6-3.1,1.3-4.8,2c3.4-11.4,6.7-22.5,10-33.7c-4.3,0.3-8.4,0.7-12.5,1
		c-7.4,0.6-14.9,1.2-22.3,1.8c-0.4-0.9-0.2-1.9-0.2-2.8c0-1.5,0.1-3.1,0.2-4.6c0.2-0.3,0.5-0.5,0.7-0.8c3-4,6.1-8.1,9.1-12.1
		c2.5-3.3,5-6.7,7.6-10.1c-0.5-0.1-0.9-0.2-1.3-0.3c-6.2-1.6-12.4-3.1-18.5-4.7C42.9,117.7,42.8,116.2,42.7,114.8z"></path>
	<path d="M45.6,170.9c-0.2-1.4-0.3-2.8-0.2-4.2c6.1-0.5,12.3-1,18.5-1.5c-4,13.6-8.1,27.2-12.1,40.9
		c14.6-6.1,29-12.1,43.4-18.1c1,14.8,1.9,29.5,2.9,44.2c0.3-0.2,0.4-0.3,0.5-0.3c11.1-10.2,22.2-20.4,33.3-30.7
		c1.4-1.3,1.4-1.3,2.2,0.4c5.1,10.4,10.1,20.8,15.2,31.2c1,2.1,2,4.1,3.1,6.3c0.9-1.7,1.6-3.1,2.4-4.6c5.7-11.3,11.4-22.6,17.1-33.8
		c0.4-0.7,0.6-0.6,1.1-0.1c1.6,1.6,3.3,3.2,5,4.8c2.1,2,4.1,4.1,6.4,6c0.1,1.8-0.3,3.5-0.5,5.2c-2.9-2.8-5.9-5.6-8.8-8.4
		c-1.5-1.5-1.6-1.5-2.5,0.4c-5.9,11.6-11.8,23.3-17.7,34.9c-0.8,1.6-1.6,3.1-2.5,4.8c-0.4-0.9-0.8-1.5-1.1-2.2
		c-6.2-12.7-12.3-25.4-18.5-38.1c-0.6-1.3-0.6-1.3-1.6-0.3c-10.6,9.7-21.1,19.5-31.7,29.2c-1.5,1.4-3,2.7-4.6,4.2
		c-0.1-1.6-0.3-3-0.3-4.4c-0.4-6.8-0.9-13.5-1.3-20.3c-0.5-7.2-0.9-14.3-1.4-21.5c-0.1-1.1-0.6-0.7-1.1-0.5
		c-11.3,4.7-22.6,9.4-33.8,14.1c-3.7,1.5-7.3,3.1-11.2,4.6c4.3-14.5,8.6-28.9,12.9-43.4C54,170.1,49.8,170.5,45.6,170.9z"></path>
	<path d="M184.1,200.2c0.5,1.5,0.2,3.2,0.5,4.7c0.1,0.4,0.1,0.9-0.3,1.2c-4.1-4-8.3-7.9-12.4-12
		c-0.7-0.6-0.8-0.4-1.1,0.2c-4.8,9.4-9.5,18.8-14.3,28.2c-1.3,2.6-2.6,5.2-4,7.9c-0.2-0.2-0.2-0.3-0.3-0.4c-3.9-8-7.8-16-11.7-24
		c-1.9-3.8-3.7-7.7-5.6-11.5c-0.3-0.7-0.5-0.9-1.2-0.3c-9.1,8.4-18.1,16.7-27.2,25.1c-1.7,1.5-3.3,3-5.1,4.7
		c-0.3-4.6-0.6-9-0.9-13.4c-0.6-9-1.2-18-1.8-27.1c-0.1-0.9-0.1-1.3-1.2-0.8c-10.9,4.6-21.9,9.1-32.8,13.7c-2.3,0.9-4.5,1.9-6.9,2.9
		c3.8-12.9,7.6-25.7,11.4-38.5c-2.6,0.2-5.1,0.4-7.6,0.6c-5.4,0.4-10.9,0.9-16.3,1.3c-0.2-1.4-0.3-2.7,0.1-4.1
		c2.8-0.3,5.6-0.5,8.5-0.7c6.6-0.6,13.1-1.1,19.7-1.7c0.9-0.1,1.4-0.1,1,1.1c-2.6,8.4-5,16.9-7.5,25.4c-0.9,3.1-1.8,6.2-2.8,9.3
		c0.6,0.2,0.9-0.1,1.2-0.3c7.3-3.1,14.7-6.1,22-9.2c4.6-1.9,9.2-3.8,13.8-5.8c0.7-0.3,1.1-0.5,1.1,0.6c0,0.9,0.1,1.9,0.2,2.9
		c0.5,7.8,1.1,15.5,1.6,23.3c0.3,3.9,0.5,7.8,0.8,11.9c10.4-9.5,20.6-18.9,30.8-28.4c5.6,11.6,11.2,22.9,16.8,34.5
		c5.9-11.6,11.7-23.1,17.6-34.6c0.2-0.1,0.3-0.2,0.5-0.3c1.3,1.5,2.6,3.1,4,4.4C177.7,194.2,180.9,197.2,184.1,200.2z"></path>
	<path d="M185.3,234.5c0.4,0.4,0.4,1,0.2,1.4c-0.4,1.3,0,2.6-0.5,3.9c-2.4-2.3-4.9-4.5-7.3-6.9
		c-8.6,16.9-17.1,33.7-25.7,50.6c-8.3-17-16.5-33.9-24.8-50.9c-15.3,14.1-30.6,28.1-46,42.3c-0.3-5.2-0.7-10.2-1-15.1
		c-0.4-5.6-0.7-11.3-1.1-16.9c-0.5-8.2-1.1-16.4-1.6-24.6c-0.1-0.8-0.2-1.1-1.1-0.7c-9.6,4-19.2,8-28.8,12c-1.6,0.7-3.2,1.6-5,1.9
		c-0.1-1.5,0.6-3,0.5-4.5c6.5-2.7,13-5.4,19.5-8.1c5.8-2.4,11.6-4.8,17.4-7.3c0.8-0.3,1.1-0.4,1.1,0.6c-0.1,0.8,0.1,1.7,0.2,2.5
		c0.4,6.6,0.8,13.3,1.3,19.9c0.5,8.3,1.1,16.5,1.6,24.8c0.1,2.2,0.3,4.3,0.5,6.7c1.2-1.1,2.3-2.1,3.3-3.1
		c13.2-12.1,26.4-24.3,39.6-36.4c0.8-0.8,1-0.5,1.4,0.3c7.3,15.1,14.7,30.2,22,45.3c0.3,0.6,0.6,1.3,1,2.1c0.6-1.2,1.1-2.2,1.6-3.2
		c7.5-14.7,14.9-29.4,22.4-44.1c0.5-0.9,0.7-1,1.4-0.3C180.1,229.6,182.7,232.1,185.3,234.5z"></path>
	<path d="M42.5,218.6c7.4-3.1,14.8-6.1,22.2-9.2c7.4-3.1,14.7-6.1,22.1-9.2c0.9-0.4,1.3-0.4,1.4,0.8
		c0.2,4.6,0.6,9.2,0.9,13.8c0.5,7.3,1,14.5,1.5,21.8c0.3,4.1,0.5,8.1,0.8,12.2c0,0.1,0.1,0.2,0.1,0.5c2.1-1.9,4.1-3.7,6.1-5.5
		c10.8-10,21.7-19.9,32.5-29.9c0.8-0.8,1-0.3,1.4,0.4c4,8.3,8.1,16.7,12.1,25c2.8,5.7,5.6,11.5,8.4,17.2c0.1,0.1,0.2,0.3,0.3,0.5
		c1.2-2.4,2.4-4.6,3.5-6.9c6.1-12,12.2-24,18.3-36.1c0.6-1.1,0.9-0.3,1.2,0c2.5,2.4,5.1,4.9,7.6,7.3c0.1,0.1,0.3,0.2,0.5,0.3
		c0.8,2.4,1.6,4.8,1.8,7.3c-0.9-0.5-1.6-1.3-2.3-2c-2.4-2.3-4.8-4.6-7.3-7c-7.8,15.4-15.6,30.6-23.4,46.1c-0.2-0.4-0.3-0.5-0.4-0.7
		c-3.2-6.5-6.4-13.1-9.6-19.6c-4-8.3-8.1-16.6-12.1-24.9c-0.4-0.9-0.6-1-1.4-0.3c-12.7,11.8-25.5,23.5-38.3,35.2
		c-0.8,0.7-1.5,1.6-2.6,2.1c-1.2-17.4-2.3-34.8-3.4-52.2c-0.4,0.2-0.7,0.3-1,0.4c-13.2,5.5-26.3,11-39.5,16.4
		c-0.4,0.2-0.8,0.3-1.3,0.2C42.8,221.4,42.3,220,42.5,218.6z"></path>
	<path d="M42.5,236.1c5.9-2.5,11.8-5,17.8-7.4c4.2-1.8,8.4-3.5,12.6-5.3c0.8-0.3,1.1-0.5,1.2,0.7
		c0.5,8.3,1,16.6,1.6,24.9c0.6,8.4,1.1,16.7,1.7,25c0.2,3,0.4,6,0.7,9.3c2.2-2,4.3-4,6.4-5.9c13.7-12.6,27.3-25.1,41-37.7
		c0.7-0.6,0.8-0.4,1.1,0.3c3.9,8.1,7.9,16.3,11.9,24.5c3.3,6.7,6.5,13.4,9.8,20.1c0.2,0.4,0.5,0.8,0.4,1.2c-1.5,0-2.9,0-4.4,0
		c-0.3-0.6-0.5-1.2-0.8-1.7c-5.9-12.2-11.9-24.5-17.8-36.7c-0.8-1.6-0.8-1.6-2-0.4c-11.4,10.5-22.9,21.1-34.4,31.6
		c-2.5,2.3-5.1,4.5-7.5,7c-1.2,0.4-2.4,0-3.7,0.1c-1.3,0-2.6-0.1-3.9-0.1c-0.1-1.6-0.2-3.2-0.3-4.8c-0.7-9.9-1.3-19.7-1.9-29.6
		c-0.4-7-0.9-14-1.3-21c-0.1-1-0.3-1.2-1.3-0.8c-8.3,3.5-16.6,7-25,10.4c-0.4,0.2-0.8,0.5-1.2,0.3C42.6,238.9,42.5,237.5,42.5,236.1
		z"></path>
	<path d="M87.4,285.6c9.3-8.6,18.6-17.1,27.9-25.7c2.8-2.5,5.5-5.1,8.4-7.7c0.6,1.3,1.2,2.4,1.7,3.6
		c4.7,9.7,9.4,19.4,14.1,29c0.2,0.4,0.5,0.8,0.4,1.2c-1.5,0-2.9,0-4.4,0c-0.3-0.7-0.6-1.4-0.9-2c-3.9-8.1-7.8-16.1-11.7-24.2
		c-0.3-0.7-0.5-1-1.2-0.3c-7.6,7-15.2,14.1-22.9,21.1c-1.9,1.7-3.6,3.6-5.7,5.1C91.2,285.9,89.3,286,87.4,285.6z"></path>
	<path d="M42.3,244.8c0.6,0,1.1-0.3,1.6-0.5c7.4-3.1,14.7-6.1,22.1-9.2c1-0.4,1-0.1,1.1,0.8c0.5,8,1.1,16.1,1.6,24.1
		c0.4,5.7,0.7,11.4,1.1,17c0.2,2.9,0.4,5.7,0.6,8.6c-1.4,0.1-2.7,0.2-4.1-0.2c-0.3-4.8-0.6-9.6-0.9-14.4c-0.5-7.3-0.9-14.5-1.4-21.8
		c-0.2-2.8-0.4-5.5-0.6-8.4c-0.3,0.1-0.5,0.2-0.7,0.2c-4.6,1.9-9.1,3.8-13.7,5.7c-2.3,0.9-4.5,2-6.9,2.7
		C41.9,247.8,42,246.3,42.3,244.8z"></path>
	<path d="M155.4,285.6c1.4-3.1,3-6.1,4.6-9.2c4.5-8.9,9-17.8,13.5-26.6c1.7-3.4,3.5-6.8,5.2-10.3
		c2.2,1.9,4.1,4.2,6.4,5.9c0.5,2,0.8,4,0.5,6.1c-2.1-1.5-3.7-3.6-5.8-5.3c-6.7,13.2-13.4,26.3-20,39.3
		C158.4,285.6,156.9,285.7,155.4,285.6z"></path>
	<path d="M42,253.7c3.5-1.2,6.9-2.8,10.3-4.2c2.2-0.9,4.4-1.8,6.6-2.8c0.7-0.3,0.9-0.2,1,0.6c0.4,7,0.8,13.9,1.3,20.9
		c0.4,5.7,0.8,11.4,1.2,17c-1.4,0.2-2.7-0.1-4.1-0.2c0-0.3,0-0.6,0-1c-0.5-7.3-0.9-14.5-1.4-21.8c-0.2-2.9-0.4-5.7-0.5-8.6
		c-0.1-1.4-0.1-1.4-1.4-0.9c-1.5,0.6-3.1,1.3-4.6,1.9c-2.9,1.1-5.7,2.6-8.7,3.5C41.7,256.7,41.7,255.2,42,253.7z"></path>
	<path d="M98.8,286c3-2.8,5.9-5.5,8.9-8.3c4.2-3.9,8.4-7.7,12.6-11.6c0.7-0.6,1-0.8,1.5,0.3c3,6.3,6,12.5,9.1,18.7
		c0.2,0.4,0.5,0.8,0.4,1.2c-1.5,0-2.9,0-4.4,0c-0.1-0.3-0.2-0.7-0.4-1c-2-4.2-4.1-8.3-6.1-12.5c-0.4-0.9-0.7-0.7-1.3-0.2
		c-1.9,1.8-3.9,3.6-5.9,5.5c-2.9,2.7-5.8,5.4-8.7,8.1C102.7,286.3,100.8,286.1,98.8,286z"></path>
	<path d="M164.4,285.4c1.3-3,2.9-5.9,4.4-8.9c3.9-7.7,7.8-15.4,11.7-23c0.4-0.8,0.6-0.9,1.3-0.2c1.3,1.3,2.6,2.5,4,3.8
		c0.3,2,0.5,4,0.4,6c-1.3-1.2-2.7-2.5-4.1-3.8c-1.2,2.4-2.4,4.6-3.5,6.9c-3.2,6.3-6.4,12.6-9.6,19
		C167.4,285.5,165.9,285.5,164.4,285.4z"></path>
	<path d="M41.3,262.7c3.3-1.4,6.7-2.8,10.1-4.2c1.4-0.6,1.3-0.6,1.5,0.9c0.5,8.1,1.1,16.1,1.7,24.2c0,0.4,0,0.7,0,1.1
		c-1.4,0.1-2.7-0.1-4-0.4c-0.4-6.7-0.8-13.4-1.3-20.3c-1,0.4-1.8,0.8-2.6,1.1c-1.8,0.7-3.5,1.6-5.5,2.1
		C41,265.7,41,264.2,41.3,262.7z"></path>
	<path d="M216.8,54.2c-3.3,0.3-6.7,0.6-10,0.8c-2.1,0.2-4.3,0.3-6.4,0.5c-0.8,0.1-1-0.1-0.7-0.9
		c1.7-5.9,3.4-11.8,5.1-17.7c1.3,0.9,2.4,1.9,3.3,3.2c-1,3.6-2.1,7.2-3.1,10.9c0.5,0,0.8,0,1.1-0.1c3-0.3,6-0.3,9-0.8
		C215.7,51.4,216.4,52.7,216.8,54.2z"></path>
	<path d="M45.3,174.8c2.5-0.2,5.1-0.4,7.7-0.6c-1.1,3.6-2.1,7.1-3.2,10.6c-2.2,7.5-4.5,15-6.7,22.5c0,0.2,0,0.4-0.3,0.5
		c0.2-2.6,1.1-5.1,1.9-7.5c0.4-1.1,0.6-2.2,0.5-3.4c-0.2-1-0.2-2.1,0-3.1c0.3-1.9,0.4-3.9,0.1-5.9c-0.2-1.3,0-2.6,0.3-3.8
		c1-1.6,1.1-3.5,1.8-5.2c-0.8-0.3-1.4,0.1-2.1,0C45.4,177.6,44.9,176.2,45.3,174.8z"></path>
	<path d="M43.7,123.4c4.1,1,8.3,2.1,12.5,3.1c-3.6,4.8-7.1,9.4-10.6,14c-0.1,0.1-0.2,0.1-0.3,0.2c-0.3-2-0.4-4-0.4-6.1
		c1.4-1.9,2.8-3.7,4.3-5.6c-1.8-0.4-3.5-0.8-5.1-1.2C43.8,126.4,43.6,124.9,43.7,123.4z"></path>
	<path d="M173.6,284.7c2-4,4-8,6-12c1-2.1,2.1-4.1,3.1-6.2c0.4-0.8,0.6-0.7,1.1-0.2c0.8,0.9,1.8,1.6,2.6,2.4
		c0.3,1.9,0.5,3.8,0.8,5.7c0,0.2-0.1,0.4-0.2,0.5c-0.7-0.7-1.5-1.4-2.2-2.1c-0.4-0.4-0.6-0.5-0.8,0.1c-1.9,3.8-3.8,7.6-5.7,11.4
		C176.7,285,175.1,284.5,173.6,284.7z"></path>
	<path d="M226.7,101c-4.1-2.8-8.3-5.6-12.5-8.5c1.2-0.8,2.4-1.6,3.6-2.3c2.1-1.3,4.1-2.8,6.3-3.9
		c0.5,1.3,0.9,2.7,0.9,4.1c-1.1,0.7-2.1,1.4-3.2,2.1c1.5,1,2.8,1.9,4.1,2.9C226.4,97.3,226.5,99.1,226.7,101z"></path>
	<path d="M221.8,75.6c-3.7-0.9-7.5-1.9-11.4-2.8c1.4-1.8,2.7-3.5,4-5.2c1.6-2.1,3.1-4.2,4.9-6.2
		c0.6,1.6,1.1,3.3,1.2,5.1c-1,1.2-2,2.4-3.1,3.8c1.4,0.3,2.7,0.6,3.9,0.9C221.7,72.6,221.8,74.1,221.8,75.6z"></path>
	<path d="M40.8,271.7c1.3-0.5,2.7-1,4-1.6c0.8-0.4,1-0.3,1.1,0.6c0.2,4.3,0.5,8.6,0.8,13c-1.4-0.1-2.8-0.3-4.1-1
		c-0.1-2.3-0.3-4.6-0.4-6.8c-0.7-0.1-1.1,0.5-1.7,0.4C40.3,274.7,40.3,273.2,40.8,271.7z"></path>
	<path d="M110.1,286.5c2.1-2.3,4.4-4.2,6.7-6.3c0.7-0.6,1.3-1.8,2.1-1.6c0.5,0.1,0.8,1.4,1.2,2.2c0.8,1.9,2,3.7,2.6,5.7
		c-1.2,0-2.5,0-3.7,0c-0.4,0-0.8-0.1-1.1-0.4c-0.3-0.3-0.6-0.3-0.9-0.1C114.7,287,112.4,286.5,110.1,286.5z"></path>
	<path d="M210.9,112.6c-0.8-0.7,0-0.8,0.4-0.9c5.5-1.3,10.9-2.6,16.4-3.9c0.2,0.1,0.1,0.3,0.2,0.4
		c-2.5,0.9-4.9,1.9-7.5,2.6C217.3,111.6,214.2,112.4,210.9,112.6z"></path>
	<path d="M182.8,283.8c0.8-1.6,1.6-3.2,2.4-4.9c0.9,0.5,1.4,1.3,2.2,1.9c0.3,1.1-0.3,1.7-1.2,2.1
		C185.1,283.4,184,283.8,182.8,283.8z"></path>
	<path d="M202.4,35.1c-1.3,0.6-2.7,1.3-4.2,2c0.5-1.8,0.9-3.3,0.8-4.9C200.3,33.1,201.4,34,202.4,35.1z"></path>
	<path d="M7.7,66.8c5.3-1.4,10.6-2.8,15.9-4.1c7.9-2.1,15.9-4.2,23.9-6.3c0.2-0.1,0.5-0.2,0.7-0.2
		c0.9-0.1,0.9-0.4,0.4-1.1c-3.8-5-7.6-10-11.5-15c-0.6-0.8-0.6-1,0.4-1.3c3-0.9,3-0.9,4.9,1.6c4.4,5.8,8.8,11.6,13.3,17.5
		c0.1,0.2,0.3,0.3,0.2,0.6c-13.1,3.5-26.3,6.9-39.7,10.5c11.3,7.7,22.4,15.2,33.6,22.8c-11.5,7.4-22.9,14.7-34.3,22.1
		c-2,0.1-3.9-0.7-5.8-1c0.3-0.2,0.5-0.4,0.7-0.6c9.3-6,18.6-12,27.9-17.9c1.3-0.8,2.6-1.7,4-2.6c-6.5-4.4-12.9-8.8-19.3-13.1
		c-5.2-3.5-10.3-7-15.5-10.5C7.4,67.6,7.4,67.2,7.7,66.8z"></path>
	<path d="M6.8,72.4c4.1,2.7,8.1,5.5,12.2,8.2C24,84,29,87.4,34,90.8c0.3,0.2,0.7,0.4,1.1,0.8c-2.4,1.6-4.8,3.1-7.2,4.6
		c-7.5,4.8-15.1,9.7-22.6,14.6c-0.3,0.2-0.6,0.3-0.9,0.5c-1.1-0.4-2.2-0.7-3-1.6c0.2-0.5-0.1-1.1,0.4-1.5c0.2-0.1,0.4-0.2,0.6-0.3
		c8.3-5.3,16.5-10.6,24.8-15.9c0.2-0.1,0.5-0.2,0.5-0.5c-1.5-1-3.1-2.1-4.6-3.2c-5.6-3.8-11.1-7.5-16.7-11.3
		C6.2,75.4,6.4,73.9,6.8,72.4z"></path>
	<path d="M28.3,33.3c0.3,2.4,1.3,4.5,1.7,6.8c0.2,0.9,0.5,1.4,1.4,0.7c0.7-0.5,1.2-0.2,1.7,0.5
		c2.9,3.8,5.8,7.7,8.7,11.5c0.5,0.6,0.5,0.8-0.3,1c-10.7,2.8-21.3,5.6-32,8.4c-0.3,0.1-0.6,0.1-0.9,0.1c0.2-1.6,0.7-3.1,1.2-4.6
		c2.6-0.5,5.1-1.3,7.6-1.9c6-1.6,11.9-3.1,18-4.7c-0.1-0.2-0.2-0.3-0.3-0.4c-1.3-1.7-2.7-3.3-3.9-5c-2.4-3.3-4.8-6.5-7.3-9.6
		c0.8-1,1.9-1.7,2.8-2.6C27.2,33.1,27.8,33.4,28.3,33.3z"></path>
	<path d="M5.6,81.3c1,0.3,1.8,1,2.6,1.6c4.1,2.8,8.2,5.5,12.4,8.4C14.5,95.3,8.5,99.1,2.5,103c0.2-1.8,0.3-3.7,0.8-5.4
		c3.2-2,6.5-4.1,9.8-6.2c-1-0.7-1.8-1.3-2.7-1.8C8.7,88.3,7,86.9,5,85.9C4.8,84.3,5.4,82.9,5.6,81.3z"></path>
	<path d="M21.2,38.7c2.5,3.3,5,6.7,7.7,10.1c-2.8,0.7-5.4,1.4-8,2.1c-3,0.8-6.1,1.7-9.1,2.3c0.5-1.7,1.3-3.3,2.3-4.8
		c2.6-0.7,5.2-1.3,8-2.1c-1.3-1.6-2.4-3-3.5-4.5C19.1,40.6,20.1,39.6,21.2,38.7z"></path>
	<path d="M24.2,114.4c-0.5-0.3-1.1-0.1-1.6-0.6c11.4-7.3,22.7-14.6,34.2-22C46.3,84.7,36,77.7,25.5,70.5
		C38,67.2,50.3,64,62.7,60.7c-6.1-8-12-15.9-18.1-23.9c1.3-0.4,2.5-0.7,3.8-1c0.7-0.2,0.8,0.4,1.1,0.7c4.7,6.1,9.3,12.3,14,18.4
		c2,2.7,4.1,5.4,6.2,8.2c-11.5,3-22.8,6-34.4,9.1c9.8,6.6,19.3,13.1,29,19.7c-10.5,6.8-20.9,13.4-31.5,20.3c2.2,0.8,4.3,1,6.3,1.8
		C34.1,114.9,29.1,114.7,24.2,114.4z"></path>
	<path d="M142.9,37c-0.1-0.1-0.3-0.2-0.4-0.4c-3.9-3.8-7.9-7.6-11.9-11.4c-0.2-0.2-0.3-0.4-0.5-0.5
		c-0.7-0.9-0.6-1.1,0.5-1.6c0.7-0.3,1.3-0.5,1.7-1.4c0.4-0.9,1.1-0.3,1.5,0.1c1.2,1.2,2.1,2.7,3.4,3.9c1.4,1.3,2.7,2.6,4,4
		c0.5,0.5,0.8,0.6,1.1-0.2c1-2.4,2.3-4.7,3.6-6.9c0.4-0.7,0.7-0.8,1.4-0.4c2.1,1.2,2.2,1.2,1.3,3.4c-1.5,3.7-3.5,7.2-5.2,10.9
		C143.3,36.7,143.2,37,142.9,37z"></path>
	<path d="M191.7,39.9c-2.8,1.2-5.2,2.3-7.7,3.4c-0.9,0.4-0.8-0.2-0.9-0.7c-0.2-1.7-0.3-3.3-0.5-5.2
		C185.7,38.2,188.6,39,191.7,39.9z"></path>
	<path d="M160.3,29.8c2.6,1,5.2,2.1,7.9,3.2c-1.5,1.4-2.9,2.7-4.5,4.2C162.7,34.5,161.1,32.4,160.3,29.8
		C160.3,29.7,160.3,29.8,160.3,29.8z"></path>
	<path d="M107.5,27.6c2.9,0,5.8,0,8.7,0c0.5,0,0.6,0.3,0.5,0.7c-0.1,0.8-0.2,1.7-0.2,2.5c0,0.8-0.2,1-1,0.7
		c-2.7-1.2-5.4-2.4-8.1-3.6C107.5,27.8,107.5,27.7,107.5,27.6z"></path>
	<path d="M51,35.1c1.4-0.5,2.9-0.8,4.3-1.4c3.9-1.8,8-1.8,12.1-1.4c4,0.5,8,0.7,12.2,1c-1-2.7-1.6-5.4-2.7-7.9
		c-0.4-0.9-0.2-1.3,0.5-1.8c2.3-1.5,2.2-1.5,3.3,1c1.8,4.3,3.1,8.8,4.6,13.4c-11.5-0.9-22.8-1.7-34.2-2.6C51,35.3,51,35.2,51,35.1z"></path>
	<path d="M68.7,28.6c1.7-0.9,3-1.6,4.3-2.3c0.4-0.2,0.6-0.2,0.8,0.3c0.1,0.3,0.3,0.7,0.4,1c0.3,1,0,1.4-1,1.3
		C71.8,28.8,70.4,28.7,68.7,28.6z"></path>
	<path d="M135.3,77.6c-0.9-2.8-1.8-5.5-2.7-8.5c2.8,1.2,5.4,2.3,7.9,3.5c1.1,0.6,1.3,0.2,1.3-0.8
		c0.1-2.6,0.3-5.2,0.5-8.2c2.4,2.3,4.7,4.5,7.1,6.8c1.4-2.9,2.8-5.6,4.2-8.5c0.8,1.1,1.2,2.3,1.9,3.4c0.7,1.2,1.3,2.5,1.8,3.8
		c0.5,1.2,0.9,0.9,1.6,0.3c1.9-1.8,3.9-3.6,6-5.6c0.3,2.8,0.6,5.4,0.8,8.1c0.1,0.9,0.2,1.2,1.2,0.8c2.4-1.2,4.9-2.2,7.7-3.4
		c-0.8,3-1.6,5.7-2.4,8.6c3.3-0.2,6.5-0.5,10-0.7c-2,2.6-3.9,5-5.8,7.6c3.2,0.8,6.3,1.6,9.7,2.5c-2.8,1.8-5.4,3.5-8.2,5.2
		c2.6,1.8,5.2,3.5,7.9,5.4c-3.2,0.8-6.3,1.5-9.4,2.3c1.8,2.4,3.6,4.8,5.5,7.4c-3-0.2-5.8-0.3-8.5-0.4c-0.9-0.1-1.2,0.1-0.9,1.1
		c0.8,2.5,1.5,5.1,2.4,7.9c-2.6-1.1-5-2.1-7.4-3.1c-1.8-0.7-1.7-0.7-1.9,1.1c-0.2,2.3-0.5,4.5-0.7,7c-1.6-1.5-3.1-2.9-4.5-4.3
		c-0.5-0.4-0.9-0.9-1.4-1.3c-1.1-1.1-1.1-1.1-1.8,0.3c-1.2,2.3-2.4,4.7-3.6,7.2c-1.3-2.5-2.5-4.9-3.6-7.4c-0.4-0.8-0.6-0.8-1.3-0.2
		c-2,1.9-4.1,3.8-6.3,5.8c-0.2-2.9-0.4-5.6-0.6-8.3c0-0.8-0.3-0.8-0.9-0.6c-2.6,1.1-5.3,2.2-8.2,3.4c0.7-2.4,1.3-4.5,2-6.7
		c0.6-2,0.6-2-1.5-1.9c-1.3,0.1-2.6,0.2-3.8,0.3c-1.2,0.1-2.4,0.2-3.9,0.3c1.8-2.4,3.4-4.6,5.2-6.8c0.6-0.8,0.4-1-0.4-1.2
		c-2.7-0.7-5.5-1.3-8.4-2.1c2.5-1.6,4.8-3.1,7.1-4.6c0.9-0.5,0.7-0.7,0-1.2c-2.3-1.5-4.6-3.1-7.1-4.8c3.2-0.9,6.2-1.7,9.3-2.5
		c-1.9-2.4-3.6-4.8-5.5-7.3c3.3,0.2,6.4,0.4,9.5,0.6c0.1,0,0.1,0.1,0.2,0.1C135.4,77.9,135.3,77.8,135.3,77.6z M137.5,74.6
		c0,0-0.1-0.1-0.1-0.1c0,0,0,0.1,0,0.1C137.4,74.6,137.5,74.6,137.5,74.6c0.3,2.2,1.4,4.3,1.9,6.6c-2.5-0.2-5-0.3-7.6-0.5
		c1.5,2,2.8,3.8,4.2,5.6c-2.4,0.7-4.7,1.3-7.2,1.9c2.2,1.5,4.1,2.8,6.2,4.3c-2,1.3-3.9,2.6-6,3.9c2.5,0.6,4.7,1.2,7.1,1.8
		c-1.5,2-2.9,3.9-4.4,5.9c2.6-0.2,5-0.4,7.5-0.6c-0.7,2.3-1.3,4.6-2.1,7c2.2-0.9,4.1-1.7,6.1-2.5c0.8-0.3,1.1-0.4,1.1,0.7
		c0.1,2,0.3,4,0.4,6.2c1.6-1.5,3.2-2.8,4.6-4.3c0.9-0.9,1.1-0.5,1.5,0.3c0.8,1.8,1.7,3.5,2.7,5.5c1.2-2.4,2.4-4.6,3.5-6.9
		c1.9,1.8,3.7,3.5,5.5,5.3c0.2-2.1,0.5-3.9,0.6-5.8c0.1-0.9,0.3-1,1.1-0.6c2,0.8,4,1.6,6.1,2.5c-0.6-2.2-1.2-4.2-1.9-6.2
		c-0.2-0.8-0.2-1,0.8-0.9c2.1,0.2,4.2,0.2,6.5,0.3c-1.5-2.1-3-4-4.4-5.9c2.4-0.6,4.7-1.1,7.2-1.8c-2.1-1.4-4-2.8-6.1-4.2
		c2.1-1.3,4-2.6,6.1-3.9c-2.6-0.7-4.9-1.3-7.4-1.9c1.5-2,3-3.9,4.5-5.9c-2.3,0.2-4.4,0.3-6.5,0.5c-0.9,0.1-1.1-0.1-0.8-1
		c0.6-1.8,1-3.6,1.6-5.6c-2,0.9-3.9,1.6-5.6,2.5c-1.1,0.5-1.2,0.2-1.3-0.8c-0.1-2-0.4-4-0.6-6.3c-1.8,1.6-3.4,3.1-4.9,4.6
		c-0.4,0.4-0.7,0.5-0.9-0.1c-0.3-0.6-0.6-1.2-0.9-1.8c-0.7-1.3-1.4-2.7-2.1-4.2c-1,2.2-2,4.1-2.9,6c-0.3,0.7-0.5,1-1.3,0.3
		c-1.5-1.5-3.1-3-4.7-4.5c-0.2,2.2-0.4,4.3-0.4,6.3c0,1-0.4,1-1.1,0.7C141.3,76.3,139.5,75.2,137.5,74.6z"></path>
	<path d="M142.1,79.7c1.8,0.8,3.3,1.4,4.9,2.1c0.1-1.7,0.3-3.3,0.4-5.2c1.1,1.1,2.2,2,3.1,3c0.5,0.6,0.8,0.6,1.1-0.2
		c0.6-1.3,1.3-2.6,2-4.1c0.8,1.6,1.6,3.1,2.4,4.7c1.3-1.2,2.5-2.3,3.9-3.6c0.1,1.6,0.3,3,0.4,4.3c0,0.7,0.2,0.9,0.9,0.6
		c1.2-0.6,2.5-1.1,3.9-1.8c-0.4,1.6-0.8,3.1-1.3,4.6c1.7,0.1,3.4-0.2,5.3-0.3c-1.1,1.4-2.1,2.8-3.2,4.2c1.7,0.4,3.3,0.9,5.2,1.3
		c-1.5,1-2.9,1.9-4.3,2.8c1.4,1,2.8,1.9,4.3,2.9c-1.8,0.4-3.3,0.8-5.1,1.3c1,1.4,2,2.7,3,4.1c-1.4,0.1-2.7,0-4-0.1
		c-0.8-0.1-1.4-0.1-0.9,1.1c0.5,1.2,0.8,2.5,1.2,3.9c-1.5-0.6-2.9-1.2-4.2-1.8c-0.6-0.3-0.8-0.3-0.9,0.5c-0.1,1.3-0.2,2.5-0.4,4
		c-1.2-1.1-2.3-2.1-3.3-3.1c-0.5-0.5-0.8-0.5-1.1,0.2c-0.6,1.3-1.3,2.6-2.1,4.1c-0.6-1.2-1.1-2.3-1.6-3.3c-0.7-1.4-0.7-1.4-1.8-0.3
		c-0.9,0.8-1.7,1.6-2.8,2.5c-0.1-1.6-0.2-2.8-0.3-4.2c0-0.7-0.2-1-0.9-0.6c-1.3,0.6-2.6,1.1-4.2,1.8c0.5-1.7,0.9-3.3,1.4-4.9
		c-1.7,0.1-3.3,0.2-5.2,0.4c1.1-1.5,2.1-2.8,3.1-4.2c-1.6-0.4-3.2-0.8-5-1.3c1.5-0.9,2.8-1.8,4.2-2.7c-1.4-1-2.8-1.9-4.4-3
		c1.8-0.5,3.3-0.9,5.1-1.4c-1-1.3-1.9-2.5-2.9-3.9c1.6-0.1,3,0.1,4.4,0.2c0.8,0.1,0.9-0.1,0.7-0.8C143,82.4,142.6,81.2,142.1,79.7z"></path>
</g>
</svg>
