<!--?xml version="1.0" encoding="utf-8"?-->
<!-- Generator: Adobe Illustrator 24.2.3, SVG Export Plug-In . SVG Version: 6.00 Build 0)  -->
<svg version="1.1" id="Camada_1" xmlns="http://www.w3.org/2000/svg" xmlns:xlink="http://www.w3.org/1999/xlink" x="0px" y="0px" viewBox="0 0 229 418" enable-background="new 0 0 229 418" xml:space="preserve">
<g onclick="select(this)" class="" id="gola-primaria" fill="#021c3b">
	<path d="M77.9528961,7.9597788c0.7734909-0.0868554,1.2810745-0.6227632,1.8024139-1.1070566
		c0.7603989-0.7063622,1.6094208-1.3635068,2.2009125-2.1973295c2.3787308-3.3532748,5.9154663-4.1040101,9.6146927-4.1371012
		c10.8288574-0.0968688,21.6591644-0.0327392,32.4889069-0.0323138c3.6765366,0.0001444,7.3533707,0.0263636,11.0294876-0.0132293
		c2.1037445-0.022658,4.1253967,0.4074263,6.1430511,0.9059279c1.240509,0.306494,2.2250671,0.9727898,3.0632935,1.9657297
		c1.5145111,1.7940409,2.9762726,3.6627538,5.0728302,4.8576345c1.8892975,0.8698425,2.232193,1.9619017,1.6444397,4.6568098
		c-0.8680267,3.9801064-3.1195221,7.256525-5.9576111,10.0776253c-3.1543121,3.135416-6.6809235,5.8337631-10.5701141,8.0235748
		c-2.4582367,1.3841152-4.9942627,2.6225414-7.64991,3.5758228c-4.9303207,1.7698059-10.0413513,2.5165062-15.2560577,2.1380272
		c-6.9028931-0.5010071-13.3907471-2.4491768-19.2632141-6.193306c-4.6655121-2.9746075-9.1340027-6.1839447-12.4609528-10.7306004
		c-1.5546875-2.124649-2.7199631-4.4103737-3.3867264-6.9568338C75.8662186,10.4935923,76.2461853,9.2179432,77.9528961,7.9597788z
		 M144.3056793,9.0716209c-1.6213531,0.1224871-3.0516968,0.2176695-4.4796753,0.3405447
		c-8.3171387,0.7156858-16.6441956,1.3321667-24.9881668,1.5415802c-6.3928757,0.1604452-12.7648773-0.5101662-19.1342163-1.0081911
		c-3.8610764-0.3019018-7.7151108-0.6963148-11.5699081-1.07374c-0.8292313-0.081192-1.0991592,0.0874987-0.7168503,0.9401541
		c0.5081406,1.1332855,1.0283813,2.2572689,1.7957001,3.2364836c3.8750992,4.9451981,8.5461273,8.9716797,14.1956177,11.738184
		c5.4275513,2.6578178,11.1766891,4.1721344,17.2688675,3.4482021c9.8420715-1.169529,17.7235413-6.0017147,24.1360626-13.393693
		C142.2531128,13.1811771,143.4580688,11.3532133,144.3056793,9.0716209z"></path>
</g>
<g onclick="select(this)" class="" id="estampa-primaria" fill="#021c3b">
	<path d="M228.9600067,116.093399c-6.8571014,2.7822495-14.0121155,4.3370743-21.3362427,5.2273712
		c-6.1868591,0.7520599-12.368454,0.6976852-18.5519867,0.0140381c-1.5454559-0.1708679-3.0968781-0.3538818-4.5782013-1.2677536
		c-0.2199554,2.0793762-0.4086456,4.0580902-0.6417084,6.0315781c-0.8538513,7.2303009-1.2928009,14.4857788-1.360672,21.7647858
		c-0.0205078,2.2003937,0.0623932,4.3856812,0.517807,6.556076c0.4091797,1.9500275-0.1010284,3.8995209-0.1977386,5.8493652
		c-0.0355988,0.717926-0.1707764,1.4362183-0.1483612,2.1508484c0.2055359,6.549881-0.5930634,13.0964661-0.0467377,19.6483002
		c0.1228333,1.4733582,0.0373993,2.9524689-0.128479,4.4282837c-0.3486176,3.1020355,0.1955414,6.1179047,0.8783569,9.133194
		c1.6395416,7.239975,1.3817749,14.5227966,0.3444061,21.8104858c-0.3048859,2.1419525-0.3785248,4.2077332,0.3238068,6.355957
		c1.7737885,5.4254761,1.8165588,11.0054626,0.943222,16.6040192c-0.2310028,1.4808197-0.2509308,2.9245453,0.0898895,4.3920746
		c0.8876038,3.8216553,0.4447784,7.7210388,0.6464539,11.5834961c0.308197,5.9023438,0.6915741,11.8015137,1.4323425,17.6740112
		c0.2583313,2.0479736,0.224884,4.1368713,0.2556305,6.2081604c0.0256958,1.7302551-0.3531799,2.2260742-2.0658417,2.7414246
		c-3.0054626,0.9043579-6.1238403,1.1594543-9.2250977,1.4795837c-7.6872864,0.7935486-15.4051208,0.8666382-23.123642,1.0108948
		c-11.2354126,0.2099304-22.4668884,0.6517639-33.7026749,0.8135376c-12.4787674,0.179657-24.936409-0.845459-37.4167862-0.8475647
		c-8.3977737-0.0014343-16.797905-0.1000061-25.1787109-0.73526c-4.1492081-0.3144531-8.2847404-0.7519226-12.3537483-1.6697083
		c-0.1560364-0.0351868-0.3138123-0.0631714-0.4689255-0.1018372c-3.3675385-0.8405762-3.729023-1.1849976-3.5259438-4.6595764
		c0.4517288-7.7287292,1.0040855-15.4518127,1.5478287-23.174942c0.1460991-2.0751343,0.2783318-4.1479645,0.2284355-6.2277222
		c-0.0423241-1.7640381,0.0424042-3.5182648,0.3600349-5.2543335c0.4133606-2.2592926,0.4568634-4.5092621,0.1249275-6.7918701
		c-0.3660889-2.5175629-0.0983963-5.0300446,0.4432831-7.5034943c0.2180901-0.9958496,0.195961-1.9692535,0.1215553-2.9723206
		c-0.336792-4.5404205-1.0248642-9.0607758-0.8374214-13.6324158c0.1784706-4.3526611,1.2044525-8.5330353,2.6853447-12.6053009
		c0.3780708-1.0396423,0.6012306-2.0360565,0.4378281-3.144928c-0.1810989-1.2289734-0.1553574-2.4728088,0.0793152-3.7015228
		c0.3182716-1.6664276,0.183197-3.3283997,0.0996132-5.0111847c-0.1621933-3.2655487-0.1713448-6.5402069-0.1846046-9.8113403
		c-0.0524673-12.9395447-0.0425491-25.8795013-0.1395607-38.8186798c-0.038414-5.1238098-0.9970284-10.1758575-1.5123215-15.2630005
		c-0.131218-1.295433-0.3165131-2.5854034-0.4659805-3.7894058c-8.7987175,2.5404205-17.7214336,1.9815598-26.6416473,1.1304092
		c-4.741806-0.452446-9.4219036-1.3161163-13.9765768-2.7638702C1.8316439,118.6739197,0.9756763,118.3496017,0.24,117.772438
		c0-1.0394058,0-2.078804,0-3.1182098c0.3886503-0.0979767,0.2689478-0.4427795,0.3153924-0.6888885
		c0.3441262-1.8235321,0.6675487-3.6509476,1.0076697-5.4752502c1.8599573-9.9762039,2.9367695-20.0686417,4.416398-30.1010056
		C6.8598299,72.419899,7.5262547,66.427742,9.1545849,60.5976868c2.7158356-9.7237396,7.3670483-18.2610435,15.2138138-24.8508644
		c1.1002979-0.9240494,2.1522732-1.908123,3.1921444-2.9004936c0.5942116-0.5670662,1.2593575-1.017168,1.9867916-1.3651505
		c6.4953289-3.1071453,13.1113338-5.9370537,19.7744732-8.6652718c7.6037102-3.1133347,15.0100632-6.6465206,22.1374359-10.7465782
		c1.0358582-0.5958872,1.9914551-1.2535591,2.7835236-2.2022896c0.9345245-1.11936,2.1475449-1.9064846,3.7101288-1.9072599
		c-1.7067108,1.2581644-2.0866776,2.5338135-1.4845581,4.8333817c0.6667633,2.5464602,1.8320389,4.8321848,3.3867264,6.9568338
		c3.3269501,4.5466557,7.7954407,7.7559929,12.4609528,10.7306004c5.872467,3.7441292,12.360321,5.6922989,19.2632141,6.193306
		c5.2147064,0.378479,10.325737-0.3682213,15.2560577-2.1380272c2.6556473-0.9532814,5.1916733-2.1917076,7.64991-3.5758228
		c3.8891907-2.1898117,7.415802-4.8881588,10.5701141-8.0235748c2.838089-2.8211002,5.0895844-6.0975189,5.9576111-10.0776253
		c0.5877533-2.6949081,0.2448578-3.7869673-1.6442871-4.6568136c1.8040009-0.123147,2.9554596,0.9744577,4.0511017,2.1698017
		c0.2662506,0.2904806,0.4252472,0.6620398,0.7931213,0.8793755c3.9738922,2.3477592,7.8823395,4.7979689,12.1107788,6.7028666
		c10.4204865,4.6943989,21.101532,8.7826443,31.4798737,13.5730629c0.6920013,0.3194237,1.3066406,0.724474,1.8821259,1.2149258
		c1.0639801,0.9067917,2.1244659,1.8196297,3.2219086,2.6849899c3.6716614,2.895256,6.8238068,6.2698441,9.3999634,10.1694183
		c4.342453,6.5732765,6.7271576,13.896862,8.2562561,21.5540199c0.9705048,4.8599472,1.1772461,9.8393097,2.3999023,14.6610107
		c1.4536285,5.7324448,2.6221161,11.5251999,3.4730682,17.381134c0.5265961,3.6238251,1.0268097,7.2561493,1.7411194,10.8444443
		c0.1572876,0.7902069-0.1613617,1.8726273,0.7821503,2.458374
		C228.9600067,113.6947784,228.9600067,114.8940887,228.9600067,116.093399z"></path>
	<path d="M144.3056793,9.0716209c-0.8476105,2.2815924-2.0525665,4.1095562-3.492569,5.7695246
		c-6.4125214,7.3919783-14.2939911,12.224164-24.1360626,13.393693c-6.0921783,0.7239323-11.8413162-0.7903843-17.2688675-3.4482021
		c-5.6494904-2.7665043-10.3205185-6.7929859-14.1956177-11.738184c-0.7673187-0.9792147-1.2875595-2.1031981-1.7957001-3.2364836
		c-0.382309-0.8526554-0.112381-1.0213461,0.7168503-0.9401541c3.8547974,0.3774252,7.7088318,0.7718382,11.5699081,1.07374
		c6.369339,0.4980249,12.7413406,1.1686363,19.1342163,1.0081911c8.3439713-0.2094135,16.6710281-0.8258944,24.9881668-1.5415802
		C141.2539825,9.2892904,142.6843262,9.194108,144.3056793,9.0716209z"></path>
</g>
<g onclick="select(this)" class="" id="estampa-terciaria" fill="#ffffff">
	<path d="M130.3457031,285.9716492c-0.0043182-0.4395447-0.0123901-0.8790588-0.0123901-1.318573
		c-0.0005646-83.2555847-0.0003204-166.5111694-0.0050507-249.7667542
		c-0.0000305-0.5540085,0.0988617-1.1204491-0.1203003-1.6599159c0.2985687-0.2786407,0.5886536-0.5776596,1.0545654-0.5227089
		c-0.0043793,0.5994644-0.0125885,1.1989365-0.0125885,1.7984009c-0.0005798,83.3347702-0.0005035,166.6695404-0.0011292,250.004303
		c-0.0000153,0.4794922-0.0091553,0.9589844-0.014328,1.4385071
		C130.9442749,286.1619873,130.6474304,286.1474915,130.3457031,285.9716492z"></path>
	<path d="M97.9396439,33.4600487c-0.0179367,0.5983353-0.05159,1.1966743-0.0516052,1.7950096
		c-0.0023346,82.9692001-0.0021591,165.938385-0.0031357,248.9075928c-0.0000076,0.5192871-0.0140991,1.0385742-0.0221176,1.5578308
		c-0.2982178,0.1827698-0.5890503,0.181366-0.8717651-0.0325012c-0.003952-0.5193787-0.011673-1.0387573-0.0116806-1.5581665
		c-0.0005264-83.157486-0.0004807-166.3149872-0.0013885-249.4724884c-0.0000076-0.5592537-0.0131302-1.1185112-0.0201187-1.6777878
		C97.3656616,32.975296,97.6752396,33.1715889,97.9396439,33.4600487z"></path>
</g>
<g onclick="select(this)" class="" id="estampa-secundaria" fill="#801815">
	<path d="M129.1517792,33.6763268c-0.0247345,0.5565186-0.0710754,1.1130409-0.0710907,1.6695633
		c-0.0032043,83.1179657-0.0030365,166.2359314-0.0041809,249.3538818c0,0.4390869-0.0166168,0.8781738-0.0259399,1.3174744
		c-0.2471008,0.1551514-0.5017395,0.1421509-0.7598724,0.0365295c-0.0160828-0.4779663-0.0479279-0.9560547-0.0479431-1.4341431
		c-0.0021973-82.8612213-0.0017853-165.7224121-0.0080109-248.5836182
		c-0.0000458-0.6323433,0.1204987-1.2794838-0.1284332-1.8974571
		C128.3879547,33.8338852,128.6750641,33.5409317,129.1517792,33.6763268z"></path>
	<path d="M100.3662567,34.4415588c-0.2219162,0.5814285-0.1122818,1.1872864-0.1123276,1.7804871
		c-0.0056915,82.6843872-0.0053406,165.3687744-0.0072021,248.0531616
		c-0.0000153,0.5184631-0.0270462,1.0368958-0.0420837,1.5553894c-0.260704,0.1026001-0.5181046,0.0890808-0.7728043-0.0176697
		c-0.0089493-0.559082-0.0267487-1.1181946-0.0267563-1.6773376c-0.0012283-82.8097992-0.0009384-165.6196289-0.0061264-248.4294434
		c-0.0000381-0.5537453,0.1013947-1.1192474-0.1057358-1.6619339
		C99.7435074,33.927269,100.0944138,34.0778275,100.3662567,34.4415588z"></path>
	<path d="M125.9792175,285.6784668c0.0147552-0.4786072,0.0424194-0.9571838,0.0424347-1.4357605
		c0.0019073-82.5162048,0.0018921-165.0324097,0-247.5486298c-0.0000153-0.4785843-0.027626-0.9571686-0.0423279-1.4357414
		c-0.019928-0.1110115-0.0398788-0.2220345-0.059845-0.3330536c0.2410126-0.3550148,0.5729446-0.4720688,0.9861679-0.3763237
		c-0.227623,0.5390816-0.1163712,1.1058502-0.1164017,1.6584129c-0.0056992,82.7319565-0.0054016,165.4639282-0.0062943,248.1958923
		c0,0.5593567-0.0129623,1.1186829-0.0197296,1.6780396c-0.2535706,0.0017395-0.5072937,0.0035095-0.7596436,0.0053101
		c-0.0539322-0.0361328-0.1138611-0.0611572-0.1785965-0.0751953
		C125.9861145,285.9512634,126.0103912,285.8276978,125.9792175,285.6784668z"></path>
	<path d="M102.5910721,35.1334648c-0.2284393,0.5803261-0.1189804,1.1868401-0.1190186,1.780117
		c-0.0055771,82.4275208-0.0052795,164.8550415-0.0060577,247.2825623c0,0.5595093-0.0113068,1.1190186-0.0174561,1.6784973
		c-0.2486572-0.0036316-0.4971848-0.0072327-0.7459412-0.0108337c-0.0025787-19.8245544-0.0066605-39.6490936-0.0069275-59.4736176
		c-0.0008774-63.3106689,0.0000153-126.6213226-0.0059052-189.9319763
		c-0.0000534-0.5523224,0.1133881-1.1193199-0.1167374-1.6579514
		C101.9843445,34.6937981,102.3230667,34.8058624,102.5910721,35.1334648z"></path>
	<path d="M123.8410873,286.1318054c-0.0053711-0.5994263-0.01548-1.1988525-0.01548-1.7982788
		c-0.0007019-82.3768463-0.0004883-164.7536926-0.0045013-247.1305237c-0.0000305-0.5555573-0.0580902-1.1111145-0.0887985-1.666893
		c0.2638626-0.3444176,0.6195297-0.3681946,1.0049133-0.2884789c-0.2408066,0.5784035-0.1201172,1.1854439-0.120163,1.7774811
		c-0.0063095,82.471817-0.0059891,164.9436188-0.0064316,247.4154358c-0.0000076,0.5596313-0.0063553,1.1192322-0.0096054,1.6788635
		C124.3493881,286.2201843,124.0962372,286.2366638,123.8410873,286.1318054z"></path>
	<path d="M104.8175735,35.7313538c-0.3063431,0.5650177-0.1533813,1.1768227-0.1534424,1.7641678
		c-0.0080109,82.2611542-0.0075531,164.5223083-0.0088196,246.7834778
		c-0.0000076,0.5592041-0.0181885,1.1184692-0.0280228,1.6776733c-0.2547836,0.1758423-0.4937744,0.0818481-0.731102-0.0423889
		c-0.0055161-0.5193787-0.0156784-1.0387268-0.0156784-1.558075c-0.0007172-82.5147552-0.0006027-165.0295105-0.0020447-247.5442657
		c-0.0000076-0.4788857-0.0209503-0.9577637-0.0317001-1.4366837
		C104.2128525,35.3790283,104.5633392,35.4242058,104.8175735,35.7313538z"></path>
	<path d="M121.6407318,286.1916199c-0.0076752-0.5994263-0.022049-1.198822-0.0220566-1.7982483
		c-0.0009995-82.1504364-0.0005417-164.3008881-0.0088196-246.4513245
		c-0.0000687-0.6261101,0.1626434-1.2810173-0.1844559-1.8780899c0.2994003-0.3344383,0.658493-0.414463,1.0745239-0.2520981
		c-0.0301895,0.5554962-0.086792,1.1109924-0.0868149,1.6664886c-0.0039215,82.3391876-0.0037003,164.67836-0.0047455,247.0175323
		c-0.0000076,0.5593567-0.0150909,1.1186523-0.0232239,1.6779785
		C122.1411972,286.3583679,121.8932037,286.3688049,121.6407318,286.1916199z"></path>
	<path d="M107.0370636,36.183445c-0.3721695,0.5479317-0.1879654,1.1658936-0.1880341,1.7474327
		c-0.0096436,82.1173477-0.0091324,164.2346954-0.0103378,246.3520203
		c-0.0000153,0.5990601-0.0174408,1.1980896-0.0267181,1.7971191c-0.2360611,0.083252-0.4697342,0.087616-0.6997299-0.0212708
		c-0.0092316-0.5589294-0.0269318-1.1178894-0.0269394-1.6768799
		c-0.0012207-82.2424011-0.0009384-164.4848175-0.0065002-246.7272339c-0.0000381-0.5530205,0.107132-1.118824-0.107811-1.6602592
		C106.3980713,35.6543427,106.7212982,35.8979225,107.0370636,36.183445z"></path>
	<path d="M120.2978516,36.258091c-0.0268021,0.5564499-0.077034,1.1129036-0.0770645,1.6693535
		c-0.0034866,82.2258224-0.0032578,164.4516296-0.0044098,246.6774445
		c-0.0000076,0.5592651-0.0164871,1.1185303-0.0256119,1.6778259c-0.2348175,0.1147461-0.4729385,0.1152954-0.7142258,0.0228271
		c-0.0092468-0.5992126-0.026268-1.1983948-0.0262756-1.7975769c-0.0011749-82.0893555-0.0006943-164.1787109-0.0091248-246.2680664
		c-0.000061-0.5860138,0.1606979-1.1989326-0.1594696-1.7610664
		C119.5641556,36.1436043,119.909462,36.1016235,120.2978516,36.258091z"></path>
	<path d="M109.2134628,36.5055809c-0.287056,0.5270462-0.1457214,1.09832-0.1457596,1.6467628
		c-0.0072861,82.1503448-0.0069275,164.3006897-0.0073776,246.4510193c0,0.5196533-0.0064392,1.0393066-0.0095367,1.55896
		c-0.2461548,0.1182556-0.4857483,0.0776367-0.7219849-0.03125c-0.0102081-0.5589905-0.0300903-1.1180115-0.0301056-1.6770325
		c-0.0013733-82.1678009-0.001152-164.3356018-0.0047607-246.503418c-0.0000229-0.5561523-0.0521317-1.1123123-0.0797806-1.6685066
		C108.5993881,36.1242104,108.9414673,36.1584435,109.2134628,36.5055809z"></path>
	<path d="M111.39711,36.7341232c-0.0229721,0.5571098-0.06604,1.1142273-0.0660629,1.6713409
		c-0.0029984,82.0758438-0.0027924,164.1516724-0.0044174,246.2275085
		c-0.0000153,0.5586853-0.0235138,1.1173096-0.0363922,1.6760254c-0.230072-0.0060425-0.4598083-0.0121765-0.6893768-0.018219
		c-0.011322-0.5990295-0.0328827-1.1980591-0.0328979-1.7970886c-0.0014954-82.0170593-0.0010223-164.0341339-0.0090485-246.0512085
		c-0.0000534-0.5867691,0.1555481-1.1999359-0.1640854-1.7615776
		C110.7444305,36.4068222,111.0736771,36.5157471,111.39711,36.7341232z"></path>
	<path d="M117.2028732,286.3360901c-0.0087814-0.5591736-0.025238-1.1182861-0.0252457-1.6774292
		c-0.0011368-82.0840607-0.0009384-164.1681519-0.003891-246.2521973c-0.0000229-0.5571823-0.0426331-1.1143684-0.0653152-1.6715698
		c0.3126755-0.2037735,0.6276093-0.3630714,0.96698-0.0499573c-0.2954559,0.5674324-0.1485748,1.1784096-0.1486282,1.7666931
		c-0.0076752,82.0266495-0.0072861,164.0533142-0.0076523,246.0799561
		c-0.0000076,0.5996094-0.0052872,1.1991882-0.0078659,1.7987671
		C117.6752853,286.3322449,117.4390793,286.3341675,117.2028732,286.3360901z"></path>
	<path d="M113.5330887,36.7376251c-0.0001984,82.601326-0.0003815,165.202652-0.00103,247.8039703
		c-0.0000076,0.5993958-0.0065079,1.198761-0.0100021,1.7981567c-0.2533035-0.0014954-0.5065842-0.0029602-0.7599945-0.004425
		c-0.0029449-3.3567505-0.0081787-6.7135315-0.008194-10.0703125
		c-0.0004578-79.2843628-0.0003204-158.5687256-0.0013428-237.8530884c0-0.5592384-0.014679-1.1184807-0.0220718-1.677803
		C112.998291,36.7352333,113.2656937,36.7364273,113.5330887,36.7376251z"></path>
	<path d="M115.744339,36.7345276c-0.0078125,0.5992165-0.0224686,1.1984367-0.0224915,1.7976532
		c-0.0024719,82.6026688-0.003891,165.2053375-0.0052261,247.8079987c-0.2498245,0.0004578-0.4997635,0.000885-0.7496567,0.0013428
		c-0.0032959-1.8781738-0.0095215-3.7563477-0.0095444-5.6345215
		c-0.0008469-81.3231812-0.0011444-162.6463623-0.0014267-243.9695587
		C115.2188339,36.7364578,115.4815826,36.7354965,115.744339,36.7345276z"></path>
</g>
</svg>
