<!--?xml version="1.0" encoding="utf-8"?-->
<!-- Generator: Adobe Illustrator 25.0.1, SVG Export Plug-In . SVG Version: 6.00 Build 0)  -->
<svg version="1.1" id="Camada_1" xmlns="http://www.w3.org/2000/svg" xmlns:xlink="http://www.w3.org/1999/xlink" x="0px" y="0px" viewBox="0 0 233 419" enable-background="new 0 0 233 419" xml:space="preserve">
<g onclick="select(this)" class="" id="c-estampa-primaria" fill="#000000">
	<path d="M203.844162,32.2869453c0.2441711,0.1307411,0.531662,0.2156067,0.7261047,0.3990097
		c3.7428589,3.5304375,7.8085175,6.74823,10.8167877,10.9962273c3.8219452,5.3969498,6.4827728,11.3448372,8.3044891,17.6818085
		c1.703186,5.9246597,2.6829071,11.9778137,3.4117279,18.0944748c0.556839,4.6732025,1.4604034,9.304451,2.1724701,13.9600525
		c0.8745575,5.7177734,1.5371246,11.466835,2.7715912,17.1301041c0.4525299,2.0759964,0.7129669,4.1969299,1.2326813,6.2644043
		c0,0.9594498,0,1.9188995,0,2.8783493c-1.4297791,0.6664352-2.9842834,0.8879013-4.5068054,1.1686554
		c-9.6035004,1.770874-19.2549896,3.0840302-29.0569153,2.9074402c-3.0704956-0.0553284-6.0487213-0.3875198-8.761673-2.0148087
		c-0.8619995-0.5170517-2.0961304-0.2203445-2.7959442-1.1757126c0.2670593-1.3095169,0.0171661-2.6338272,0.1459351-3.9605942
		c0.2761688-2.8452225,0.8879089-5.6756516,0.7132416-8.5462036c-0.10289-1.6908646,0.0358276-3.351387,0.2414703-5.0090485
		c0.3424835-2.7604828,1.3165741-5.4090576,1.3401642-8.2393646c0.0353394-4.2384491,0.5300293-8.443512,1.3590088-12.5996475
		c0.3097382-1.5529709,0.6103668-3.2689972,1.9078217-4.2638397c1.1487885-0.8808746,1.7591095-2.0262222,2.4583435-3.1680679
		c2.4539032-4.0070267,3.390686-8.5746613,4.7625122-12.9792824c1.2822876-4.1172256,2.2908478-8.2972069,2.6768646-12.605896
		c0.4539642-5.0669441,0.2289734-10.125988-0.1738892-15.1842155
		C203.5438843,33.4400902,203.4263153,32.8149567,203.844162,32.2869453z"></path>
	<path d="M0.24,116.3332977c0.4876597-1.8705444,0.8426896-3.7682343,1.2151847-5.6643295
		c0.6998954-3.5626602,1.2503428-7.1475906,1.7463453-10.7418365c0.9353209-6.7777481,2.8336005-13.3488007,4.2574592-20.0215378
		c0.9158173-4.2918777,1.1679564-8.7035217,2.1534967-12.9911194c1.2189798-5.3031845,2.7884092-10.4830818,5.1563406-15.4060478
		c3.1412992-6.5308037,7.610673-11.9784851,13.318202-16.4118271c1.1254368-0.8741913,1.9700394-2.0906677,3.3144722-2.6887093
		c0.3887768,0.7531357,0.4499092,1.5206947,0.0199051,2.2686043c-0.1334305,0.2320633-0.1415234,0.4070244-0.0868912,0.6593208
		c0.2142849,0.9896927,0.0649796,1.9836044-0.0099182,2.9786911c-0.3932762,5.2251587-0.3019066,10.4221039,0.696209,15.5946388
		c0.924324,4.7901115,2.4936409,9.3919144,3.8647652,14.0543861c0.9656143,3.2835464,2.404953,6.3072052,4.3204002,9.1490707
		c0.8989677,1.3337402,1.7753296,2.7589111,2.1019897,4.3839722c0.2639923,1.3132935,0.3130531,2.6716843,0.6052971,3.9770203
		c1.256649,5.612854,1.5529938,11.3503189,2.2796555,17.0314484c0.2689705,2.1028519,0.1734428,4.2375488,0.6691475,6.3279724
		c0.2741241,1.1560364,0.8885803,2.2605133,0.7164001,3.5047379c-0.2713585,1.9608841,0.0321884,3.9211502-0.0191345,5.8812637
		c-0.434269,0.4314117-0.2524414,0.9857407-0.214817,1.4636459c0.0937195,1.1903839-0.4694519,1.5978546-1.5796242,1.7586365
		c-6.8079414,0.9859543-13.6038055,1.0302734-20.4342308,0.1467514c-7.8117313-1.0104523-15.6038713-2.1042175-23.2902794-3.8549728
		c-0.2681048-0.0610657-0.5336418-0.1333923-0.8003759-0.2004623C0.24,117.132843,0.24,116.7330704,0.24,116.3332977z"></path>
	<path d="M81.8832245,7.9922476c11.3011246,1.2273169,22.5738373,2.8336277,33.9637909,2.9786882
		c7.5525665,0.0961885,15.0744629-0.6367741,22.5928345-1.2755909c4.3710327-0.3713961,8.7034302-1.0662413,13.0371857-1.7368207
		c0.6647949-0.1028652,1.3425751-0.1219411,2.0140686-0.1799874c1.6053162,0.0051417,3.0043488,0.607482,4.0229034,1.7923212
		c1.3142853,1.5288258,3.0072632,2.4741468,4.7064362,3.4258947c9.2055511,5.156291,18.8595276,9.3510447,28.6602936,13.214673
		c4.2363434,1.6700325,8.2157898,3.8823605,12.3980713,5.6596413c0.2095337,0.0890408,0.3777618,0.2751617,0.5652771,0.4159737
		c-0.4177704,0.527916-0.3002014,1.1530495-0.2539368,1.7337494c0.4028625,5.0582275,0.6278534,10.1172714,0.1738892,15.1842155
		c-0.3860168,4.3086891-1.394577,8.4886703-2.6768646,12.605896c-1.3718262,4.4046211-2.308609,8.9722557-4.7625122,12.9792824
		c-0.699234,1.1418457-1.3095551,2.2871933-2.4583435,3.1680679c-1.2974548,0.9948425-1.5980835,2.7108688-1.9078217,4.2638397
		c-0.8289795,4.1561356-1.3236694,8.3611984-1.3590088,12.5996475c-0.0235901,2.830307-0.9976807,5.4788818-1.3401642,8.2393646
		c-0.2056427,1.6576614-0.3443604,3.3181839-0.2414703,5.0090485c0.1746674,2.8705521-0.4370728,5.7009811-0.7132416,8.5462036
		c-0.1287689,1.326767,0.1211243,2.6510773-0.1459351,3.9605942c-0.4451904,0.2543488-0.292099,0.7096634-0.3355408,1.0794525
		c-1.2291412,10.4668274-1.4598083,20.9645081-0.9211578,31.4825745c0.1640167,3.2030334-0.0892792,6.3876343-0.2824097,9.5783081
		c-0.3652802,6.0341797,0.1146698,12.0639496,0.1411285,18.0963898c0.0121155,2.7599487-0.1020966,5.510788-0.4394836,8.2537994
		c-0.2348785,1.9098663-0.259552,3.8273315,0.0752563,5.7353058c0.0413666,0.235733,0.1023254,0.4811859,0.0765991,0.7135468
		c-0.3479309,3.1390228,0.5493622,6.0718689,1.4089203,9.0283356c1.7310181,5.9537659,1.9002533,12.0368042,1.4110718,18.1747131
		c-0.2970886,3.7276611-0.8225708,7.4499054-0.0163269,11.2021637c0.2717285,1.2647095,0.1656189,2.6307831,0.1011658,3.9440918
		c-0.3710175,7.5605621,0.7496643,15.048584,1.0814514,22.5745544c0.2390442,5.4223633,0.7248535,10.8330994,0.9426575,16.2604065
		c0.0555115,1.382782,0.276474,2.7749329,0.2888794,4.1724854c0.019928,2.2460938-0.1770477,2.5755005-2.3623352,3.2271729
		c-4.8733215,1.4533386-9.8569336,2.4101257-14.8961182,3.0440979c-11.8484802,1.4905701-23.7734833,1.660553-35.6864929,1.7833862
		c-20.6748962,0.2131348-41.3520508,0.5888977-62.0273285,0.2730713
		c-10.0053558-0.1528625-19.9647522-1.0462952-29.6645737-3.7737732c-3.6876373-1.0369568-3.8061752-1.0554504-3.5815086-4.8088684
		c0.4221001-7.0517883,0.9946251-14.0946045,1.5138893-21.1405334c0.2350197-3.1889038-0.1084023-6.3981018,0.3477821-9.5786133
		c0.0793533-0.5532532,0.0905342-1.1240387,0.2358475-1.658844c0.8754044-3.2218323,0.0733948-6.433548-0.0536919-9.6438293
		c-0.1831818-4.6274261,0.2295189-9.1902313,1.4309845-13.6504517c0.4299011-1.5959015,0.4755173-3.1370239,0.2797699-4.7210999
		c-1.0725136-8.679306-0.8838158-17.3009796,1.0736694-25.8563232c0.320919-1.4025879,0.4485817-2.8516083,0.3323898-4.2902679
		c-0.380249-4.7082825,0.0083199-9.42276-0.1681137-14.1340485c-0.2137871-5.7085266-0.0382309-11.4276886-0.4554291-17.1329803
		c-0.2658157-3.6351624,0.4149132-7.2435303,0.295063-10.8907166c-0.3150291-9.5868835-0.8651848-19.1593475-1.4672585-28.7301712
		c-0.0208473-0.3313217,0.1232147-0.7376938-0.2781067-0.9712677c0.0513229-1.9601135-0.252224-3.9203796,0.0191345-5.8812637
		c0.1721802-1.2442245-0.442276-2.3487015-0.7164001-3.5047379c-0.4957047-2.0904236-0.400177-4.2251205-0.6691475-6.3279724
		c-0.7266617-5.6811295-1.0230064-11.4185944-2.2796555-17.0314484c-0.292244-1.305336-0.3413048-2.6637268-0.6052971-3.9770203
		c-0.3266602-1.625061-1.203022-3.0502319-2.1019897-4.3839722c-1.9154472-2.8418655-3.3547859-5.8655243-4.3204002-9.1490707
		c-1.3711243-4.6624718-2.9404411-9.2642746-3.8647652-14.0543861c-0.9981155-5.1725349-1.0894852-10.3694801-0.696209-15.5946388
		c0.0748978-0.9950867,0.2242031-1.9889984,0.0099182-2.9786911c-0.0546322-0.2522964-0.0465393-0.4272575,0.0868912-0.6593208
		c0.4300041-0.7479095,0.3688717-1.5154686-0.0199051-2.2686043c4.2200203-1.9893341,8.4092674-4.0453835,12.7522888-5.7645664
		c7.1309395-2.8227787,14.1520844-5.9024734,21.1429634-9.0528946c3.9479599-1.7791424,7.5967026-4.0795488,11.2435379-6.3863611
		c0.4518661-0.2858219,0.7510147-0.7068834,1.1049881-1.0847254C78.7935867,8.8936224,80.0848312,7.9328942,81.8832245,7.9922476z"></path>
</g>
<path d="M-1489.3000488,326.6000061c0.0999756,0.1000061,0.0999756,0.2000122,0,0.2999878
	C-1489.3000488,326.7999878-1489.3000488,326.7000122-1489.3000488,326.6000061z"></path>
<path d="M-1342.6999512,338c0-0.1000061,0-0.2000122,0-0.2999878
	C-1342.5999756,337.7999878-1342.5999756,337.7999878-1342.6999512,338
	C-1342.5999756,337.8999939-1342.5999756,338-1342.6999512,338z"></path>
<path d="M-1475.0999756,352.1000061H-1475H-1475.0999756z"></path>
<path d="M-1350.5999756,87.3000031c-0.0999756-0.0999985-0.0999756-0.0999985-0.1999512-0.1999969
	C-1350.6999512,87.1999969-1350.5999756,87.1999969-1350.5999756,87.3000031z"></path>
<g onclick="select(this)" class="" id="c-estampa-secundaria" fill="#ffffff">
	<path d="M45.6012268,236.6970215c2.9193115,1.4790344,5.6023865,3.3509216,8.3799973,5.063324
		c12.6998367,7.8294983,25.2870178,15.846283,38.0934982,23.4967651
		c10.399704,6.2127075,21.0540009,11.9996948,31.5941772,17.9775696c3.1583786,1.7912598,6.3127289,3.5896301,9.7808075,5.5621338
		c-0.7176056,0.046875-1.0887756,0.0913086-1.460083,0.0922546c-4.5183716,0.0119934-9.0368042,0.0115356-13.55513,0.0314941
		c-0.6555176,0.0028992-1.2403564-0.1124268-1.826828-0.4386902c-19.7207108-10.9710388-39.4480743-21.9301758-59.17799-32.8847504
		c-0.5714264-0.317276-1.0193329-0.7245636-1.4091225-1.2553558c-3.1874352-4.3402405-6.3962746-8.6647949-9.6041336-12.990036
		c-0.2120476-0.2858887-0.4695282-0.5381317-0.7067032-0.8096924
		C45.5204735,239.262207,45.5374413,237.9802551,45.6012268,236.6970215z"></path>
	<path d="M48.0959435,155.2689514c1.2849617,0.3600159,2.3487892,1.1580963,3.4927101,1.7894897
		c34.6183624,19.1075134,69.2305603,38.2262115,103.8433228,57.3438873
		c7.5170898,4.1519012,15.0285645,8.3140411,22.5560455,12.4470825c0.674881,0.3705292,1.0875549,0.8357239,1.3612518,1.5541687
		c0.5531921,1.4519348,1.2145844,2.8623962,1.8070526,4.2999573c0.1417999,0.3440552,0.5507812,0.7462921,0.1846771,1.0869598
		c-0.4060364,0.3778534-0.8097992-0.0365906-1.1753998-0.2481079c-8.7465973-5.0604095-17.4901581-10.1260681-26.2370453-15.1859894
		c-29.5939484-17.1196289-59.1894379-34.2366333-88.783226-51.3565826
		c-5.7041206-3.2998199-11.4032669-6.6082458-17.104702-9.912796
		C47.9425926,156.4774017,47.9472198,155.8709869,48.0959435,155.2689514z"></path>
	<path d="M111.754364,165.8369751c1.1201782,1.299057,2.7830276,1.7920532,4.1186066,2.7706146
		c0.7330856,0.5371094,1.6701126,0.8201752,2.2158585,1.5923309c-0.0651627,0.0957336-0.1303253,0.191452-0.195488,0.2871857
		c-12.8717346-7.8810425-25.7434769-15.7620697-38.7010956-23.695694c0.6753464-0.4638824,1.0512619-0.0084839,1.401413,0.203476
		c8.6436768,5.2330017,17.2747726,10.4867706,25.9112778,15.7316589c0.1997147,0.1212616,0.4358215,0.1827087,0.6553192,0.2714844
		c0.4799576,0.515274,1.0644608,0.821228,1.7797012,0.8940277c-0.3487396-0.5929871-0.9304581-0.8717651-1.4846802-1.1850281
		c-7.9134598-5.1755524-15.8461609-10.3219604-23.7358627-15.5334167
		c-11.9537964-7.8959503-23.7956429-15.9578247-35.5614433-24.1310883
		c-0.2949104-0.2048721-0.5972404-0.3990707-0.8961105-0.5987625c-0.315918-0.8926544-0.2105064-1.8197632-0.2273598-2.7366638
		c1.7458191,0.8106232,3.2217484,2.0410614,4.7941513,3.1155014c17.0832748,11.6732788,34.1272354,23.4042816,51.2499619,35.0193634
		c3.0936661,2.098587,6.700882,3.3224945,10.0133286,5.0364838c0.1035538-0.1360779,0.1647949-0.186264,0.1865387-0.2499084
		c0.174614-0.5113373-0.3488235-1.266449,0.2261887-1.5343781c0.6433182-0.2997894,1.0178604,0.4816284,1.4516678,0.8408356
		c2.585022,2.1404877,5.1409836,4.3160706,7.7061005,6.4805756c0.2989578,0.2522736,0.7669754,0.4680023,0.6508408,0.9167328
		c-0.1400375,0.5410004-0.7338104-0.013031-1.0889282,0.3805542c22.2308197,13.3032379,44.4535828,26.6016235,66.6765289,39.901474
		c0.2871094,0.4783478,0.2229462,1.0132141,0.2532196,1.5318604c0.2305145,1.3207397-0.4615326,0.6993866-0.9350586,0.4271698
		c-5.3190613-3.0572815-10.6315918-6.1260376-15.9524536-9.1802063c-0.3534241-0.2028656-0.6469574-0.6190338-1.1539459-0.4345551
		l0.0146027,0.0114288c-0.2163391-0.5571594-0.6553192-0.7452393-1.2155151-0.7323608l0.0195312,0.0129242
		c-0.0007172-0.4238892-0.3948822-0.4634399-0.6416626-0.6076965
		c-19.1668091-11.2050323-38.0961456-22.7973633-56.8002777-34.7575226
		c-0.1677399-0.107254-0.3488541-0.1936188-0.5239258-0.2891388c-0.1014175-0.0511017-0.2026215-0.1028442-0.3038177-0.1545868
		c-0.1409988-0.1011047-0.2820053-0.2022247-0.4232864-0.3027802c-0.1036835-0.0534515-0.207077-0.1074677-0.3104706-0.161499
		c-0.1401291-0.1000671-0.2802582-0.2001495-0.4206467-0.2998657c-0.1027069-0.0566864-0.2051544-0.113739-0.3075943-0.1707916
		c-0.3298264-0.2827759-0.6169281-0.6661072-1.1955643-0.5447845c0.2026443,0.531601,0.5775375,0.7014465,1.0221176,0.7759705
		c0.0833359,0.0555725,0.1663589,0.1129303,0.2493744,0.1703033c0.0864716,0.2092743,0.2698135,0.2507477,0.4670639,0.2678833
		c0.0923462,0.0643005,0.184166,0.1297607,0.2759705,0.1952057c0.0808563,0.2112579,0.2576294,0.2528992,0.4559479,0.2566376
		C111.5681,165.6971741,111.6612244,165.7670746,111.754364,165.8369751z"></path>
	<path d="M190.691803,264.2739868c-0.2476044,0.5365295-0.4195251,0.0584412-0.5954132-0.0554504
		c-12.2721252-7.9455872-24.5408783-15.8964539-36.8117065-23.8440704
		c-9.7915192-6.3418274-19.5898743-12.6731262-29.3770142-19.0216827
		c-14.9612427-9.7047424-29.9132919-19.4236603-44.8740921-29.1290894
		c-4.0179214-2.6065216-8.0537338-5.1855164-12.0805359-7.7783813c-0.8516235-0.5483398-1.1244507-2.4764709-0.4105759-3.1598511
		c0.4359665-0.4173279,0.8032455,0.0118408,1.1477051,0.2409668c2.5252838,1.6797333,5.0418472,3.3725586,7.5668106,5.0527954
		c11.4333267,7.6083221,22.8658981,15.2177582,34.3035889,22.819519
		c21.9439468,14.5844116,43.8898392,29.1658783,65.8380203,43.7439423
		c5.0497131,3.3540497,10.1118622,6.6894073,15.1682892,10.0333405
		C190.6085052,263.5420837,190.6501465,263.90802,190.691803,264.2739868z"></path>
	<path d="M48.5666733,183.2273407c1.7152824,0.4636688,3.0910187,1.5788116,4.5902786,2.4415588
		c8.8022919,5.0654602,17.5813675,10.1712799,26.3604126,15.2770081
		c10.9760895,6.3834991,21.9410629,12.786087,32.9173431,19.1692352
		c10.0798264,5.8618469,20.1669922,11.7111053,30.2533112,17.5617981
		c9.5393524,5.5334167,19.0836182,11.0583649,28.6175537,16.6010895c0.4816437,0.2800293,1.449646,0.5520172,1.1273193,1.1321106
		c-0.3688507,0.6638336-1.140274-0.0150452-1.630188-0.2910767c-6.7807465-3.8203735-13.5354156-7.6869507-20.3118896-11.5149231
		c-4.6695709-2.6378174-9.365448-5.2290955-14.0451813-7.848999c-6.0431671-3.3832092-12.0872803-6.76474-18.1211472-10.1644745
		c-6.130188-3.4540253-12.2444916-6.936203-18.3729019-10.3933868c-6.9725876-3.9334106-13.9468842-7.8639221-20.932251-11.7745819
		c-4.9048691-2.7458954-9.8415375-5.4351349-14.7420731-8.1886597c-5.2584267-2.9546204-10.4912071-5.954834-15.735199-8.935379
		C48.4270058,185.2737427,48.4119911,184.2498627,48.5666733,183.2273407z"></path>
	<path d="M47.0771408,224.7858276c2.5084648,1.366394,5.0350952,2.7007141,7.5214157,4.1062469
		c4.4498634,2.5155487,8.8737335,5.0770111,13.3115692,7.6138611c6.6454163,3.7988281,13.2880249,7.6026001,19.9420776,11.3862762
		c6.1407547,3.491806,12.2906799,6.9675293,18.4446564,10.4359741c4.8071213,2.7093811,9.6268311,5.3964539,14.4400482,8.0950012
		c0.1391373,0.0780334,0.2610703,0.1885071,0.4035034,0.2584839c0.3484879,0.1711121,0.6850357,0.4171753,0.4842453,0.8181458
		c-0.205513,0.4104004-0.64785,0.2452087-0.9524918,0.0929871c-1.1663971-0.5827637-2.311203-1.2085266-3.4683533-1.8099976
		c-6.7671204-3.517334-13.5307007-7.0415039-20.3042908-10.5463257
		c-16.6384277-8.6091003-33.2816315-17.2089539-49.9230156-25.8123322c-0.2803421-0.144928-0.5620422-0.287262-0.8430862-0.4309387
		C46.366539,227.5723877,46.5785599,226.1470032,47.0771408,224.7858276z"></path>
	<path d="M189.8307037,251.1346283c-2.3986816-1.2483215-4.5544739-2.8793335-6.7967682-4.3679352
		c-13.9656982-9.271286-27.9004364-18.5891266-41.849472-27.8854828
		c-16.8180237-11.208374-33.6405411-22.4100189-50.459549-33.6169128c-1.4782944-0.9850616-2.9492798-1.9812622-4.41362-2.9868469
		c-0.2837372-0.1948547-0.5684891-0.423111-0.6517639-0.8571625c0.8600006-0.2149353,1.3744583,0.4249115,1.9073639,0.7686768
		c30.1354065,19.4386749,60.2518005,38.9068146,90.3707733,58.3709564
		c3.9505157,2.5529785,7.9048004,5.1001587,11.8573456,7.6510315
		C189.9008484,249.1850433,189.9181824,250.1591949,189.8307037,251.1346283z"></path>
	<path d="M188.8514404,231.1769714c-0.4579926,0.0576782-0.7263184-0.2976379-1.0451508-0.5096436
		c-29.6993561-19.7478943-59.3930206-39.5043793-89.0903778-59.2552643
		c-1.5926208-1.0592041-3.2295227-2.0523376-4.8131409-3.1244354c-0.5571823-0.3772125-1.0163269-0.8990326-1.7852859-1.594574
		c1.5268936,0.1076355,2.416275,0.8474121,3.3143845,1.4263c10.2371445,6.5982819,20.4460983,13.2402191,30.6697922,19.859375
		c20.6520157,13.3707733,41.3086319,26.7344208,61.9612808,40.1042023c0.2645721,0.1712646,0.5019379,0.3844757,0.7519379,0.5802612
		C188.8270264,229.5025482,188.8392334,230.3397675,188.8514404,231.1769714z"></path>
	<path d="M191.0090485,283.3010254c-7.6954651-4.3843994-15.3962708-8.759491-23.0849304-13.1557617
		c-8.1064453-4.6351318-16.1951447-9.3013306-24.3031311-13.9337769
		c-7.0321045-4.0177917-14.0853882-7.9985657-21.1201935-12.0116425
		c-9.2337799-5.2674713-18.4549103-10.5571136-27.6885986-15.8247528
		c-6.0524979-3.4528046-12.1241531-6.8720551-18.1751175-10.3275146
		c-5.8544388-3.3432007-11.6857758-6.7268219-17.5419044-10.0670624c-3.7078094-2.1148987-7.4432373-4.181427-11.1631126-6.2752533
		c-0.2407646-0.1355133-0.4542694-0.319397-0.6803207-0.4813538c0.0307198-0.3555603,0.0613098-0.7105713,0.0920486-1.0663452
		c2.0624771,1.1252747,4.1404762,2.2236938,6.1838837,3.3830109c4.3274651,2.4551392,8.6378441,4.9403839,12.9534378,7.4163971
		c4.7405777,2.7198486,9.4743729,5.4515686,14.2198868,8.1627808c4.7914276,2.7374573,9.5956573,5.4524841,14.39048,8.1840057
		c5.8839645,3.3520203,11.7621078,6.7142487,17.6462708,10.0659027c5.9747086,3.4032288,11.9606247,6.7868958,17.9289856,10.2012024
		c6.4521027,3.6910553,12.8817291,7.4213715,19.3358307,11.1089172c5.2984772,3.0273438,10.6243439,6.0067444,15.9273071,9.0262451
		c6.0259094,3.4311218,12.0410614,6.8811035,18.0584106,10.32724c2.5209808,1.4437256,5.035614,2.8985291,7.5531006,4.3483887
		C191.6266937,282.8400879,191.4410248,283.1417847,191.0090485,283.3010254z"></path>
	<path d="M46.6102104,208.9499969c4.7401619,2.690918,9.4726448,5.3954926,14.2228203,8.0686493
		c4.1014481,2.308075,8.2336121,4.5616608,12.3331528,6.8730927c5.9610977,3.3610382,11.897728,6.7654572,17.8587418,10.1266327
		c4.6569901,2.6258698,9.3443832,5.1978455,14.0018311,7.8228912c7.1323318,4.0199432,14.2455063,8.073822,21.3763428,12.0964661
		c5.3507462,3.0184174,10.7213821,6.0016022,16.0742264,9.0163116c5.9014587,3.3237,11.7913666,6.6679077,17.688858,9.9986267
		c5.3751984,3.0357666,10.7578583,6.0583801,16.1289978,9.1012878c2.10112,1.1903992,4.2735596,2.2590027,6.2678375,3.6334229
		c-0.3967285,0.3061523-0.8666534,0.2582092-1.3233795,0.2740173c-1.8158875-0.6699829-3.3865051-1.8013-5.0647583-2.7255249
		c-4.8924255-2.694397-9.7494049-5.4532471-14.6102905-8.2044983c-6.5135803-3.686676-13.0088959-7.4056396-19.5286407-11.0813293
		c-5.9406586-3.3492432-11.9122009-6.6437683-17.8541412-9.9907532c-5.9647369-3.3598022-11.9051514-6.7627106-17.8648911-10.131424
		c-4.5525208-2.5733032-9.122757-5.1152649-13.6774673-7.6847229c-4.8316879-2.7257233-9.6469955-5.4804993-14.4831772-8.1982117
		c-4.0738678-2.2893524-8.1784286-4.5242004-12.249382-6.8186646c-4.718235-2.6592865-9.4086723-5.3677826-14.1235962-8.032959
		c-1.7055588-0.9640961-3.4470177-1.8647461-5.1721039-2.7944641
		C46.6108665,209.8491516,46.6105385,209.3995667,46.6102104,208.9499969z"></path>
	<path d="M188.4377289,207.0627441c-0.4421844,0.2354431-0.6424713-0.1795959-0.8885651-0.3695831
		c-8.8476105-6.8314362-17.6864319-13.6741943-26.5261536-20.5158234c-0.2770386-0.2144318-0.7092896-0.410141-0.4995422-0.8303833
		c0.2135468-0.4278412,0.630249-0.168396,0.9542542-0.0776062c1.4207001,0.3980103,2.830307,0.8379364,4.2586517,1.2055359
		c0.7762146,0.1997833,1.3287354,0.6999664,1.90979,1.1810913c6.7333984,5.5753479,13.4659729,11.1517029,20.1990814,16.7298737
		C188.0914307,205.2687988,188.3994293,206.1359558,188.4377289,207.0627441z"></path>
	<path d="M45.1573792,256.0515442c2.9760437,4.2778015,5.9574432,8.5518799,8.9262238,12.8346863
		c1.9500084,2.8131409,3.8819389,5.6387024,5.821312,8.459198c0.1128273,0.1640625,0.2385445,0.3230896,0.324791,0.5007019
		c0.116375,0.2396545,0.3551064,0.5337219,0.0726318,0.7506409c-0.2477989,0.1903076-0.5420761,0.0020752-0.7422104-0.1965637
		c-0.8490715-0.8429871-1.6869354-1.6973267-2.5261726-2.5501404c-4.0572243-4.1228027-8.113575-8.24646-12.1701775-12.3701477
		C44.9616852,261.00354,45.0595322,258.5275574,45.1573792,256.0515442z"></path>
	<path d="M48.4747925,165.984314c2.2791748,1.2408295,4.3551178,2.7960205,6.510067,4.2272339
		c8.2407417,5.4730072,16.4683647,10.9658356,24.6833839,16.4773102c0.7803802,0.5235748,1.4384766,1.2291718,2.1533432,1.8502655
		l0.0144882-0.0135803c-4.1954727-1.9680634-7.9262924-4.705307-11.8086624-7.1842651
		c-7.2178459-4.6086884-14.3744507-9.3131866-21.5565224-13.9778748
		C48.3676338,166.9033813,48.3751793,166.4437256,48.4747925,165.984314z"></path>
	<path d="M47.9850693,136.9023438c2.5289574,1.367218,4.8286438,3.0908966,7.2226028,4.666214
		c6.1334076,4.0360718,12.2385788,8.115036,18.3485718,12.1865692c0.4201279,0.2799683,0.7958908,0.6299286,1.1742706,0.9674988
		c0.1810608,0.1615448,0.5916824,0.2959442,0.3066406,0.6224976c-0.208992,0.2394104-0.4715195,0.0395203-0.7398987-0.0935669
		c-1.685257-0.8357239-3.1791382-1.9717255-4.7482147-2.9859619c-7.1711235-4.6352386-14.3235245-9.299408-21.4827042-13.9535675
		C48.0392113,137.8418884,48.0121422,137.3721161,47.9850693,136.9023438z"></path>
	<path d="M189.3923187,213.9190063c-1.0228119,0.1695251-1.6710358-0.6115723-2.3981171-1.0535736
		c-5.9091187-3.5921478-11.7793121-7.2483368-17.6540985-10.8967133c-0.4572906-0.2839966-1.0193024-0.4797058-1.2499695-1.0964661
		c0.7420654-0.355835,1.133194,0.801178,1.8411255,0.3783722c0-0.0000305-0.0195312-0.0129547-0.0195465-0.0129547
		c0.1751404,0.6254578,0.6126709,0.8159637,1.2155304,0.7323608c0,0-0.0146027-0.0114288-0.0146179-0.0114441
		c-0.1082458,0.3190002,0.1533508,0.4193878,0.3418732,0.5341949c5.9632568,3.6311493,11.9295502,7.257309,17.8953705,10.8842163
		C189.3640137,213.557663,189.3781738,213.738327,189.3923187,213.9190063z"></path>
	<path d="M77.5546417,157.2146454c0.066246-0.3686981,0.2456436-0.3118744,0.49263-0.1439514
		c0.7116165,0.4838257,1.5707703,0.6711578,2.2794189,1.1861115c2.484108,1.8050232,5.0637894,3.4688416,7.6897125,5.0603943
		c0.5402985,0.3274841,1.0596466,0.6603546,1.4045258,1.2247162c0.0817337,0.1337433,0.3926086,0.1543274,0.1821594,0.3964539
		c-0.1116714,0.1284943-0.2466049,0.0370026-0.4058914-0.0437012c-1.7259293-0.8747253-3.2420044-2.0721283-4.8589554-3.1134491
		c-2.0441284-1.3164368-4.1047134-2.6073303-6.1516571-3.9194336
		C77.9352798,157.7006683,77.563736,157.6325684,77.5546417,157.2146454z"></path>
	<path d="M85.710968,181.0506287c-3.2761459-0.79245-5.4307327-2.9065857-7.7632446-4.7273712
		C80.608078,177.6036377,83.1397629,179.0961456,85.710968,181.0506287z"></path>
	<path d="M167.3981323,200.3992767c-0.0562592,0.0258331-0.1109924,0.0579834-0.1700745,0.0727692
		c-0.0157928,0.0039673-0.0449219-0.0451965-0.0679321-0.0699768c0.0567169-0.0262756,0.1118011-0.0587311,0.1713104-0.0744476
		C167.3462982,200.3236847,167.3754425,200.3737946,167.3981323,200.3992767z"></path>
	<polygon fill="#F90000" points="81.8215866,188.5391235 81.8849335,188.5751343 81.8363876,188.5253143 	"></polygon>
</g>
<g onclick="select(this)">
	<path d="M141.8400116,0.2398625c0.9352417,0.4771891,1.9903564,0.4514143,2.980835,0.7014377
		c1.6293793,0.4112955,3.0397186,1.1099842,4.0979767,2.4798911c1.2979279,1.6801543,2.954361,3.0024004,4.5722809,4.3573456
		c-0.6714935,0.0580463-1.3492737,0.0771222-2.0140686,0.1799874c-4.3337555,0.6705794-8.666153,1.3654246-13.0371857,1.7368207
		c-7.5183716,0.6388168-15.0402679,1.3717794-22.5928345,1.2755909
		c-11.3899536-0.1450605-22.6626663-1.7513714-33.9637909-2.9786882c2.0136108-1.5906281,3.7637787-3.4338651,5.4023972-5.4079289
		c1.0503387-1.2653532,2.6547012-1.5214591,4.1811066-1.8618273c0.7111969-0.1585839,1.5111389,0.0629984,2.1332779-0.4826289
		c2.0799942,0,4.1600037,0,6.2399979,0c1.610321,0.3430655,3.2407608,0.1233167,4.8598785,0.141055
		c1.6586609,0.0181716,3.3290863,0.1942236,4.9801254-0.141055c2.7200012,0,5.4399948,0,8.159996,0c2,0.190501,4,0.3693242,6,0
		C129.8400116,0.2398625,135.8400116,0.2398625,141.8400116,0.2398625z"></path>
</g>
</svg>
