<!--?xml version="1.0" encoding="utf-8"?-->
<!-- Generator: Adobe Illustrator 24.2.3, SVG Export Plug-In . SVG Version: 6.00 Build 0)  -->
<svg version="1.1" id="Camada_1" xmlns="http://www.w3.org/2000/svg" xmlns:xlink="http://www.w3.org/1999/xlink" x="0px" y="0px" viewBox="0 0 229 418" enable-background="new 0 0 229 418" xml:space="preserve">
<g onclick="select(this)" class="" id="gola-primaria" fill="#000000">
	<path d="M77.9528961,7.9597788c0.7734909-0.0868554,1.2810745-0.6227632,1.8024139-1.1070566
		c0.7603989-0.7063622,1.6094208-1.3635068,2.2009125-2.1973295c2.3787308-3.3532748,5.9154663-4.1040101,9.6146927-4.1371012
		c10.8288574-0.0968688,21.6591644-0.0327392,32.4889069-0.0323138c3.6765366,0.0001444,7.3533707,0.0263636,11.0294876-0.0132293
		c2.1037445-0.022658,4.1253967,0.4074263,6.1430511,0.9059279c1.240509,0.306494,2.2250671,0.9727899,3.0632935,1.9657298
		c1.5145111,1.7940407,2.9762726,3.6627541,5.0728302,4.8576345c1.8892975,0.8698425,2.232193,1.9619017,1.6444397,4.6568098
		c-0.8680267,3.9801064-3.1195221,7.256525-5.9576111,10.0776253c-3.1543121,3.135416-6.6809235,5.8337631-10.5701141,8.0235748
		c-2.4582367,1.3841152-4.9942627,2.6225414-7.64991,3.5758228c-4.9303207,1.7698059-10.0413513,2.5165062-15.2560577,2.1380272
		c-6.9028931-0.5010071-13.3907471-2.4491768-19.2632141-6.193306c-4.6655121-2.9746075-9.1340027-6.1839447-12.4609528-10.7306004
		c-1.5546875-2.124649-2.7199631-4.4103737-3.3867264-6.9568338C75.8662186,10.4935923,76.2461853,9.2179432,77.9528961,7.9597788z
		 M144.3056793,9.0716209c-1.6213531,0.1224871-3.0516968,0.2176695-4.4796753,0.3405447
		c-8.3171387,0.7156858-16.6441956,1.3321667-24.9881668,1.5415802c-6.3928757,0.1604452-12.7648773-0.5101662-19.1342163-1.0081911
		c-3.8610764-0.3019018-7.7151108-0.6963148-11.5699081-1.07374c-0.8292313-0.081192-1.0991592,0.0874987-0.7168503,0.9401541
		c0.5081406,1.1332855,1.0283813,2.2572689,1.7957001,3.2364836c3.8750992,4.9451981,8.5461273,8.9716797,14.1956177,11.738184
		c5.4275513,2.6578178,11.1766891,4.1721344,17.2688675,3.4482021c9.8420715-1.169529,17.7235413-6.0017147,24.1360626-13.393693
		C142.2531128,13.1811771,143.4580688,11.3532133,144.3056793,9.0716209z"></path>
</g>
<g onclick="select(this)" class="" id="estampa-primaria" fill="#bf0811">
	<path d="M228.9600067,116.093399c-6.8571014,2.7822495-14.0121155,4.3370743-21.3362427,5.2273712
		c-6.1868591,0.7520599-12.368454,0.6976852-18.5519867,0.0140381c-1.5454559-0.1708679-3.0968781-0.3538818-4.5782013-1.2677536
		c-0.2199554,2.0793762-0.4086456,4.0580902-0.6417084,6.0315781c-0.8538513,7.2303009-1.2928009,14.4857788-1.360672,21.7647858
		c-0.0205078,2.2003937,0.0623932,4.3856812,0.517807,6.556076c0.4091797,1.9500275-0.1010284,3.8995209-0.1977386,5.8493652
		c-0.0355988,0.717926-0.1707764,1.4362183-0.1483612,2.1508484c0.2055359,6.549881-0.5930634,13.0964661-0.0467377,19.6483002
		c0.1228333,1.4733582,0.0373993,2.9524689-0.128479,4.4282837c-0.3486176,3.1020355,0.1955414,6.1179047,0.8783569,9.133194
		c1.6395416,7.239975,1.3817749,14.5227966,0.3444061,21.8104858c-0.3048859,2.1419525-0.3785248,4.2077332,0.3238068,6.355957
		c1.7737885,5.4254761,1.8165588,11.0054626,0.943222,16.6040192c-0.2310028,1.4808197-0.2509308,2.9245453,0.0898895,4.3920746
		c0.8876038,3.8216553,0.4447784,7.7210388,0.6464539,11.5834961c0.308197,5.9023438,0.6915741,11.8015137,1.4323425,17.6740112
		c0.2583313,2.0479736,0.224884,4.1368713,0.2556305,6.2081604c0.0256958,1.7302551-0.3531799,2.2260742-2.0658417,2.7414246
		c-3.0054626,0.9043579-6.1238403,1.1594543-9.2250977,1.4795837c-7.6872864,0.7935486-15.4051208,0.8666382-23.123642,1.0108948
		c-11.2354126,0.2099304-22.4668884,0.6517639-33.7026749,0.8135376c-12.4787674,0.179657-24.936409-0.845459-37.4167862-0.8475647
		c-8.3977737-0.0014343-16.797905-0.1000061-25.1787109-0.73526c-4.1492081-0.3144531-8.2847404-0.7519226-12.3537483-1.6697083
		c-0.1560364-0.0351868-0.3138123-0.0631714-0.4689255-0.1018372c-3.3675385-0.8405762-3.729023-1.1849976-3.5259438-4.6595764
		c0.4517288-7.7287292,1.0040855-15.4518127,1.5478287-23.174942c0.1460991-2.0751343,0.2783318-4.1479645,0.2284355-6.2277222
		c-0.0423241-1.7640381,0.0424042-3.5182648,0.3600349-5.2543335c0.4133606-2.2592926,0.4568634-4.5092621,0.1249275-6.7918701
		c-0.3660889-2.5175629-0.0983963-5.0300446,0.4432831-7.5034943c0.2180901-0.9958496,0.195961-1.9692535,0.1215553-2.9723206
		c-0.336792-4.5404205-1.0248642-9.0607758-0.8374214-13.6324158c0.1784706-4.3526611,1.2044525-8.5330353,2.6853447-12.6053009
		c0.3780708-1.0396423,0.6012306-2.0360565,0.4378281-3.144928c-0.1810989-1.2289734-0.1553574-2.4728088,0.0793152-3.7015228
		c0.3182716-1.6664276,0.183197-3.3283997,0.0996132-5.0111847c-0.1621933-3.2655487-0.1713448-6.5402069-0.1846046-9.8113403
		c-0.0524673-12.9395447-0.0425491-25.8795013-0.1395607-38.8186798c-0.038414-5.1238098-0.9970284-10.1758575-1.5123215-15.2630005
		c-0.131218-1.295433-0.3165131-2.5854034-0.4659805-3.7894058c-8.7987175,2.5404205-17.7214336,1.9815598-26.6416473,1.1304092
		c-4.741806-0.452446-9.4219036-1.3161163-13.9765768-2.7638702C1.8316439,118.6739197,0.9756763,118.3496017,0.24,117.772438
		c0-1.0394058,0-2.078804,0-3.1182098c0.3886503-0.0979767,0.2689478-0.4427795,0.3153924-0.6888885
		c0.3441262-1.8235321,0.6675488-3.6509476,1.0076697-5.4752502c1.8599573-9.9762039,2.9367695-20.0686417,4.416398-30.1010056
		C6.8598299,72.419899,7.5262547,66.427742,9.1545849,60.5976868c2.7158356-9.7237396,7.3670483-18.2610435,15.2138138-24.8508644
		c1.1002979-0.9240494,2.1522732-1.908123,3.1921444-2.9004936c0.5942116-0.5670662,1.2593575-1.017168,1.9867916-1.3651505
		c6.4953289-3.1071453,13.1113338-5.9370537,19.7744732-8.6652718c7.6037102-3.1133347,15.0100632-6.6465206,22.1374359-10.7465782
		c1.0358582-0.5958872,1.9914551-1.2535591,2.7835236-2.2022896c0.9345245-1.11936,2.1475449-1.9064846,3.7101288-1.9072599
		c-1.7067108,1.2581644-2.0866776,2.5338135-1.4845581,4.8333817c0.6667633,2.5464602,1.8320389,4.8321848,3.3867264,6.9568338
		c3.3269501,4.5466557,7.7954407,7.7559929,12.4609528,10.7306004c5.872467,3.7441292,12.360321,5.6922989,19.2632141,6.193306
		c5.2147064,0.378479,10.325737-0.3682213,15.2560577-2.1380272c2.6556473-0.9532814,5.1916733-2.1917076,7.64991-3.5758228
		c3.8891907-2.1898117,7.415802-4.8881588,10.5701141-8.0235748c2.838089-2.8211002,5.0895844-6.0975189,5.9576111-10.0776253
		c0.5877533-2.6949081,0.2448578-3.7869673-1.6442871-4.6568136c1.8040009-0.123147,2.9554596,0.9744577,4.0511017,2.1698017
		c0.2662506,0.2904806,0.4252472,0.6620398,0.7931213,0.8793755c3.9738922,2.3477592,7.8823395,4.7979689,12.1107788,6.7028666
		c10.4204865,4.6943989,21.101532,8.7826443,31.4798737,13.5730629c0.6920013,0.3194237,1.3066406,0.724474,1.8821259,1.2149258
		c1.0639801,0.9067917,2.1244659,1.8196297,3.2219086,2.6849899c3.6716614,2.895256,6.8238068,6.2698441,9.3999634,10.1694183
		c4.342453,6.5732765,6.7271576,13.896862,8.2562561,21.5540199c0.9705048,4.8599472,1.1772461,9.8393097,2.3999023,14.6610107
		c1.4536285,5.7324448,2.6221161,11.5251999,3.4730682,17.381134c0.5265961,3.6238251,1.0268097,7.2561493,1.7411194,10.8444443
		c0.1572876,0.7902069-0.1613617,1.8726273,0.7821503,2.458374
		C228.9600067,113.6947784,228.9600067,114.8940887,228.9600067,116.093399z"></path>
	<path d="M144.3056793,9.0716209c-0.8476105,2.2815924-2.0525665,4.1095562-3.492569,5.7695246
		c-6.4125214,7.3919783-14.2939911,12.224164-24.1360626,13.393693c-6.0921783,0.7239323-11.8413162-0.7903843-17.2688675-3.4482021
		c-5.6494904-2.7665043-10.3205185-6.7929859-14.1956177-11.738184c-0.7673187-0.9792147-1.2875595-2.1031981-1.7957001-3.2364836
		c-0.382309-0.8526554-0.112381-1.0213461,0.7168503-0.9401541c3.8547974,0.3774252,7.7088318,0.7718382,11.5699081,1.07374
		c6.369339,0.4980249,12.7413406,1.1686363,19.1342163,1.0081911c8.3439713-0.2094135,16.6710281-0.8258944,24.9881668-1.5415802
		C141.2539825,9.2892904,142.6843262,9.194108,144.3056793,9.0716209z"></path>
</g>
<path d="M185.1499939,239.4199982c-0.0700073-0.1699982-0.0899963-0.3200073,0.0599976-0.4600067
	C185.2700043,239.1300049,185.2899933,239.2899933,185.1499939,239.4199982z"></path>
<path d="M184.3800049,121.5100021c-0.0800018-0.3399963-0.0599976-0.6699982,0.1199951-0.9800034
	C184.5599976,120.8700027,184.6100006,121.2099991,184.3800049,121.5100021z"></path>
<polygon fill="#E5FB3C" points="41.9399986,254.0099945 41.9700012,254.0599976 41.9300003,254.0899963 41.8600006,254.0399933 "></polygon>
<defs>
	
		<filter id="Adobe_OpacityMaskFilter" filterUnits="userSpaceOnUse" x="31.140873" y="37.1318092" width="165.0991516" height="231.929718">
		<feFlood style="flood-color:white;flood-opacity:1" result="back"></feFlood>
		<feBlend in="SourceGraphic" in2="back" mode="normal"></feBlend>
	</filter>
</defs>
<mask maskUnits="userSpaceOnUse" x="31.140873" y="37.1318092" width="165.0991516" height="231.929718" id="SVGID_2_">
	<g filter="url(#Adobe_OpacityMaskFilter)" onclick="select(this)">
	</g>
</mask>
<g mask="url(#SVGID_2_)" onclick="select(this)" class="has-opacity" id="estampa-terciaria" fill="#000000" opacity="0.3">
	<path d="M151.3899994,217.3800049c-0.4799957,0.0200043-0.9499969,0.0700073-1.4299927,0.0700073
		c-24.4100037,0-48.8300018,0-73.2399979-0.0099945c-0.4899979,0-1.0400009,0.2200012-1.4700012-0.2200012
		c0.0400009-0.9100037-0.4400024-1.0599976-1.2600021-1.0500031c-6.7399979,0.0299988-13.4799995,0.0200043-20.2200012,0.0099945
		c-0.3699989,0-0.9799995,0.2100067-1.0800018-0.2200012c-0.2000008-0.8699951-0.8100014-0.6000061-1.2999992-0.6100006
		c-3.0299988-0.0399933-6.0600014-0.0500031-9.0900002-0.0700073c0-0.3999939,0-0.8000031,0-1.1999969
		c3.0800018-0.0299988,6.1500015-0.0500031,9.2299995-0.0800018c0.3400002,0,0.9099998,0.1699982,0.9700012-0.1900024
		c0.1800003-1.0099945,0.9000015-0.7100067,1.4599991-0.7100067c6.6800003-0.0099945,13.3500023-0.0099945,20.0300026-0.0200043
		c0.3700027,0,0.9899979,0.2100067,1.0899963-0.1799927c0.2399979-0.9199982,0.9000015-0.6300049,1.4300003-0.6300049
		c24.5800018-0.0099945,49.159996-0.0099945,73.7500076-0.0099945c0.2400055,0,0.4799957-0.0200043,0.7200012,0.0099945
		c0.1499939,0.0200043,0.3999939,0.0800018,0.4100037,0.1600037c0.1499939,1.0299988,0.9499969,0.6499939,1.5,0.6600037
		c6.6399994,0.0200043,13.2700043,0.0099945,19.9100037,0.0299988c0.3899994,0,1.0399933-0.2599945,1.1399994,0.2899933
		c0.1499939,0.8500061,0.7200012,0.6000061,1.1799927,0.6000061c3,0.0299988,5.9900055,0.0500031,8.9900055,0.0599976
		c-0.0399933,0.4199982-0.0800018,0.8399963-0.1199951,1.2599945c-2.9600067,0.0099945-5.9100037,0.0099945-8.8699951,0.0299988
		c-0.3399963,0-0.9199982-0.1699982-0.9900055,0.1499939c-0.2299957,0.9799957-0.9499969,0.6699982-1.5099945,0.6699982
		c-6.6300049,0.0200043-13.2599945,0.0299988-19.8899994-0.0099945
		C151.7200012,216.1499939,151.2799988,216.3899994,151.3899994,217.3800049z"></path>
	<path d="M42.0900002,248.0299988c-0.0200005-0.5-0.1100006-1,0.0800018-1.4900055
		c3.1599998,0,6.3199997,0.0099945,9.4799995,0.0099945c0.2700005,0,0.75-0.0099945,0.7799988-0.1199951
		c0.3199997-1.0500031,1.1699982-0.6399994,1.7799988-0.6399994c6.5999985-0.0299988,13.1999969-0.0200043,19.7999954-0.0200043
		c0.3499985,0,1-0.0099945,1.0199966-0.1100006c0.25-1.3699951,1.3099976-0.8000031,2-0.8000031
		c24.2699966-0.0299988,48.5499954-0.0200043,72.8199997-0.0200043c0.3600006,0,0.7200012,0,1.0800018,0.0099945
		c0.1999969,0,0.4700012,0,0.4700012,0.25c0.0299988,0.9299927,0.7100067,0.6699982,1.2100067,0.6699982
		c6.7200012,0.0099945,13.4400024,0,20.1600037,0.0099945c0.3800049,0,1-0.1999969,1.1000061,0.1999969
		c0.2100067,0.8000031,0.7700043,0.5599976,1.2299957,0.5599976c3.3999939,0.0200043,6.8000031,0.0200043,10.1999969,0.0200043
		c0.2299957,0.4799957,0.25,0.9799957,0.2200012,1.5c-3.4799957,0.0099945-6.9600067,0.0200043-10.4300079,0.0399933
		c-0.3500061,0-0.9299927-0.1499939-1.0099945,0.1399994c-0.2400055,0.9299927-0.9199982,0.6100006-1.4400024,0.6100006
		c-6.6799927,0.0200043-13.3500061,0.0099945-20.0299988,0.0200043c-0.3699951,0-1.0099945-0.2100067-1.0700073,0.2200012
		c-0.1499939,1.1100006-0.9299927,0.6900024-1.4499969,0.6900024c-24.5100021,0.0200043-49.0200043,0.0200043-73.5199966,0.0200043
		c-0.2799988,0-0.5599976,0-0.8399963,0c-0.1999969,0-0.4899979-0.0200043-0.4899979-0.2299957
		c-0.0400009-1.0099945-0.7900009-0.6900024-1.3099976-0.6900024c-6.7200012-0.0200043-13.4300003-0.0099945-20.1500015-0.0200043
		c-0.3800011,0-0.9900017,0.1999969-1.0900002-0.2100067c-0.2099991-0.8099976-0.7799988-0.5399933-1.2299995-0.5500031
		C48.3300018,248.0700073,45.2099991,248.0500031,42.0900002,248.0299988z"></path>
	<path d="M184.5700073,207.6300049c-0.0099945,0.4400024-0.0299988,0.8800049-0.0399933,1.3300018
		c-3.1600037,0.0099945-6.3200073,0.0200043-9.4799957,0.0399933c-0.3099976,0-0.8600006-0.0200043-0.8999939,0.1000061
		c-0.3699951,1.0700073-1.2400055,0.6499939-1.8999939,0.6499939c-6.5200043,0.0299988-13.0399933,0.0099945-19.5599976,0.0200043
		c-0.3899994,0-1.0700073-0.1600037-1.1100006,0.1499939c-0.1799927,1.2200012-1.0599976,0.75-1.6499939,0.75
		c-24.4000015,0.0200043-48.7900009,0.0200043-73.1900024,0.0200043c-0.3199997,0-0.6399994,0.0200043-0.9599991-0.0099945
		c-0.1900024-0.0200043-0.5199966-0.1000061-0.5299988-0.1699982c-0.0899963-1.1399994-0.9499969-0.7299957-1.5199966-0.7400055
		C67.0900421,209.75,60.4500427,209.7600098,53.8100433,209.75c-0.3800011,0-1,0.1999969-1.1100006-0.1699982
		c-0.25-0.8300018-0.8400002-0.5700073-1.3300018-0.5800018c-2.8800011-0.0299988-5.7600021-0.0399933-8.6399994-0.0599976
		c-0.0200005-0.4600067,0.0299988-0.9100037,0.2299995-1.3300018c2.8800011-0.0099945,5.7599983-0.0099945,8.6399994-0.0299988
		c0.3199997,0,0.8699989,0.2200012,0.9300003-0.2400055c0.1100006-0.9199982,0.7299995-0.6799927,1.2299995-0.6799927
		c6.7600021-0.0099945,13.5200043-0.0099945,20.2700043-0.0099945c0.3499985,0,0.9700012,0.1300049,1.0100021-0.1300049
		c0.2099991-1.25,1.1399994-0.7700043,1.7799988-0.7799988c24.3499985-0.0200043,48.7000046-0.0200043,73.0500107-0.0200043
		c0.3200073,0,0.6399994-0.0200043,0.9600067,0.0099945c0.1799927,0.0200043,0.5099945,0.0899963,0.5200043,0.1600037
		c0.1000061,1.1199951,0.9499969,0.7299957,1.5299988,0.7400055c6.6399994,0.0200043,13.2799988,0.0099945,19.9100037,0.0200043
		c0.3699951,0,1.0099945-0.1999969,1.0700073,0.2299957c0.1300049,1.0099945,0.8200073,0.6799927,1.3300018,0.6799927
		C178.3300018,207.6199951,181.4499969,207.6199951,184.5700073,207.6300049z"></path>
	<path d="M185.8099976,259.4700012c0.0500031,0.4500122,0.1000061,0.8900146,0.1499939,1.3399963
		c-3.6399994,0.019989-7.2700043,0.0299988-10.9100037,0.0599976c-0.3399963,0-0.9400024-0.1499939-0.9900055,0.1499939
		c-0.1600037,1.1199951-0.9700012,0.75-1.5500031,0.75c-6.5899963,0.019989-13.1900024,0.0100098-19.7799988,0.019989
		c-0.3899994,0-1.0200043-0.1900024-1.1199951,0.1400146c-0.3000031,0.9200134-0.9799957,0.6199951-1.5299988,0.6199951
		c-16.7900085,0.0100098-33.5699997,0.0100098-50.3600006,0.0100098c-7.75,0-15.5100021,0-23.2600021-0.0100098
		c-0.3899994,0-1,0.2000122-1.1200027-0.1400146c-0.3300018-0.8800049-1-0.6099854-1.5699997-0.6099854
		c-6.6299973-0.0100098-13.2700005-0.0100098-19.9000015-0.019989c-0.4099998,0-1.0699997,0.230011-1.1699982-0.2600098
		c-0.1500015-0.7999878-0.6500015-0.6499939-1.1300011-0.6499939c-3.4000015,0-6.7900009,0-10.1899986,0
		c-0.2299995-0.5,0.2200012-0.8999939,0.2099991-1.3599854c3.3199997-0.0100098,6.6399994-0.019989,9.9500008-0.0400085
		c0.3400002,0,0.9399986,0.1600037,0.9799995-0.1600037c0.1500015-1.1300049,0.9599991-0.75,1.5499992-0.75
		c6.6399994-0.019989,13.2700005-0.0100098,19.9099998-0.019989c0.3799973,0,1.0100021,0.1900024,1.1100006-0.1600037
		c0.2300034-0.8699951,0.8499985-0.5799866,1.3399963-0.5899963c2.4000015-0.019989,4.8000031-0.0100098,7.1999969-0.0100098
		c22.1900024,0,44.3800049,0,66.5599976,0c0.3899994,0,1.0899963-0.0299988,1.1300049,0.1099854
		c0.3300018,1.0499878,1.1600037,0.6400146,1.7700043,0.6400146c6.5599976,0.0299988,13.1100006,0.0100098,19.6699982,0.0299988
		c0.3999939,0,1.0700073-0.2399902,1.1600037,0.2799988c0.1399994,0.8299866,0.6600037,0.6400146,1.1300049,0.6400146
		C178.6199951,259.4599915,182.2200012,259.4599915,185.8099976,259.4700012z"></path>
	<path d="M45.3800011,149.3000031c2.079998-0.0099945,4.1599998-0.0299988,6.2400017-0.0500031
		c0.4500008,0,0.9099998,0.1300049,1.0400009-0.6199951c0.0999985-0.5599976,0.7400017-0.2899933,1.1399994-0.2899933
		c6.6800003-0.0200043,13.3600006-0.0099945,20.0299988-0.0299988c0.5400009,0,1.3499985,0.3699951,1.4100037-0.7100067
		c0.0100021-0.1900024,0.3099976-0.1999969,0.5100021-0.2100067c0.2799988,0,0.5599976,0,0.8399963,0
		c24.4700012,0,48.9500046,0,73.4200058,0.0200043c0.5599976,0,1.3899994-0.4199982,1.5399933,0.7299957
		c0.0500031,0.3500061,0.7200012,0.1799927,1.1000061,0.1799927c6.6799927,0.0099945,13.3600006,0,20.0299988,0.0200043
		c0.5200043,0,1.2200012-0.3099976,1.3500061,0.6799927c0.0599976,0.4199982,0.6199951,0.2200012,0.9499969,0.2299957
		c2.1600037,0.0200043,4.3200073,0,6.4799957,0.0099945c0.4400024,0,0.9600067-0.1699982,0.9700012,0.6399994
		c0.0099945,0.8399963-0.4900055,0.75-1.0200043,0.75c-1.8800049,0-3.7599945-0.0299988-5.6399994,0.0200043
		c-0.6999969,0.0200043-1.5899963-0.4199982-2.0299988,0.6600037c-0.0599976,0.1499939-0.6699982,0.1000061-1.0200043,0.1000061
		c-6.6799927,0.0099945-13.3600006,0-20.0400085,0.0099945c-0.5299988,0-1.25-0.2700043-1.3099976,0.7100067
		c-0.0099945,0.2299957-0.3000031,0.2100067-0.5,0.2100067c-0.2799988,0.0099945-0.5599976,0-0.8399963,0
		c-24.4700012,0-48.9499969,0-73.4199982-0.0099945c-0.5800018,0-1.3799973,0.3699951-1.5699997-0.7400055
		c-0.0599976-0.3600006-0.7099991-0.1699982-1.0899963-0.1699982c-6.6800003-0.0099945-13.3600006,0-20.0299988-0.0200043
		c-0.5099983,0-1.2200012,0.3500061-1.4399986-0.6000061c-0.0600014-0.2799988-0.5800018-0.1600037-0.8899994-0.1600037
		c-2.079998-0.0200043-4.1599998-0.0299988-6.2400017-0.0399933
		C45.3800011,150.1699982,45.3800011,149.7299957,45.3800011,149.3000031z"></path>
	<path d="M185.6900024,253.1100006c0,0.4199982-0.0099945,0.8300018-0.0099945,1.25
		c-3.5200043,0.0299988-7.0299988,0.0500031-10.5500031,0.0899963c-0.3500061,0-0.9900055-0.0099945-1.0200043,0.1000061
		c-0.2899933,1.1699982-1.1999969,0.7100067-1.8500061,0.7100067c-6.5200043,0.0299988-13.0399933,0.0200043-19.5500031,0.0299988
		c-0.3800049,0-1.0299988-0.1900024-1.1100006,0.1499939c-0.2400055,1.0499878-1.0099945,0.7000122-1.5899963,0.7000122
		c-16.8699951,0.0100098-33.75,0.0100098-50.6199951,0.0100098c-7.6399994,0-15.2700043,0-22.9100037-0.0100098
		c-0.4199982,0-1.0999985,0.230011-1.1999969-0.2100067c-0.2300034-0.9400024-0.8899994-0.6300049-1.4100037-0.6300049
		c-6.6800003-0.0200043-13.3600006-0.0099945-20.0299988-0.0200043c-0.4000015,0-1.0400009,0.2400055-1.1699982-0.2799988
		c-0.1800003-0.75-0.6800003-0.5399933-1.1100006-0.5399933c-3.2000008-0.0299988-6.4000015-0.0299988-9.5900002-0.0500031
		c-0.0099983-0.1000061-0.0200005-0.1999969-0.0400009-0.3000031l0.0499992-0.0399933l-0.0400009-0.0500031
		c0.0400009-0.3000031,0.0800018-0.6000061,0.1199989-0.9100037c3.1599998-0.0200043,6.3199997-0.0299988,9.4799995-0.0500031
		c0.3400002,0,0.9199982,0.1600037,0.9799995-0.1999969c0.1699982-0.9900055,0.8699989-0.6499939,1.3800011-0.6499939
		c6.6800003-0.0200043,13.3600006-0.0099945,20.0400009-0.0200043c0.3799973,0,1.0100021,0.1999969,1.1100006-0.1699982
		c0.2600021-0.9700012,0.9700012-0.6600037,1.5299988-0.6600037c22.0400009-0.0099945,44.0699997-0.0099945,66.1100082-0.0099945
		c2.6000061,0,5.1999969,0,7.8000031,0.0099945c0.3099976,0,0.8200073-0.1399994,0.8800049,0.1499939
		c0.1999969,1.0099945,0.9499969,0.6699982,1.5099945,0.6699982c6.6399994,0.0200043,13.2799988,0.0099945,19.9199982,0.0200043
		c0.3800049,0,1.0099945-0.1900024,1.0899963,0.1999969c0.1999969,0.9400024,0.8699951,0.6399994,1.3899994,0.6499939
		C178.7299957,253.0800018,182.2100067,253.0899963,185.6900024,253.1100006z"></path>
	<path d="M151.4700012,268.8599854c-0.3899994,0.3099976-0.8500061,0.1700134-1.2700043,0.1700134
		c-24.5899963,0.0100098-49.1900024,0.0100098-73.7799988,0c-0.4300003,0-0.8799973,0.1199951-1.2900009-0.1400146
		c0.1999969-0.980011-0.5199966-0.769989-1.0299988-0.769989c-6.7799988-0.0100098-13.5499992,0-20.3300018-0.0100098
		c-0.3800011,0-1.0299988,0.1900024-1.0800018-0.2000122c-0.1399994-1-0.8199997-0.6900024-1.3400002-0.6900024
		c-3.4300003-0.0400085-6.8499985-0.0599976-10.2799988-0.0799866c0.0200005-0.3999939,0.0299988-0.7999878,0.0499992-1.1900024
		c3.4799995-0.019989,6.9500008-0.0400085,10.4300003-0.0799866c0.3300018,0,0.8800011,0.2000122,0.9700012-0.2000122
		c0.1899986-0.8599854,0.7999992-0.6300049,1.3100014-0.6300049c6.7200012-0.0100098,13.4399986-0.0100098,20.1499977-0.0100098
		c0.3499985,0,0.9800034,0.019989,1.0100021-0.1099854c0.3700027-1.2399902,1.3600006-0.730011,2.0699997-0.730011
		c24.1500015-0.019989,48.3099976-0.019989,72.4599915-0.019989c0.3999939,0,0.8000031-0.0100098,1.1999969,0
		c0.2299957,0.0100098,0.6199951-0.0700073,0.6499939,0.1600037c0.1399994,1.019989,0.8999939,0.6900024,1.4600067,0.6900024
		c6.6399994,0.019989,13.2799988,0.0100098,19.9100037,0.019989c0.3999939,0,1.0599976-0.2399902,1.1600037,0.2799988
		c0.1600037,0.8399963,0.7100067,0.6000061,1.1600037,0.6000061c3.7599945,0.019989,7.5200043,0.0100098,11.2799988,0.0100098
		c0.1900024,0.3900146,0.1499939,0.7999878,0.1399994,1.2099915c-3.7899933,0.019989-7.5800018,0.0400085-11.3699951,0.0700073
		c-0.3500061,0-0.9400024-0.1499939-1,0.1400146c-0.2400055,1.2200012-1.1600037,0.7399902-1.7899933,0.75
		c-6.5800018,0.0299988-13.1699982,0.019989-19.75,0.019989
		C152.0599976,268.1199951,151.3399963,267.8800049,151.4700012,268.8599854z"></path>
	<path d="M45.3699989,196.0599976c0-0.4400024,0-0.8800049,0.0099983-1.3200073
		c2.0800018-0.0099945,4.1599998-0.0200043,6.2299995-0.0500031c0.3100014,0,0.8300018,0.1199951,0.8899994-0.1499939
		c0.2099991-0.9700012,0.9300003-0.6000061,1.4300003-0.6000061c6.670002-0.0200043,13.3500023-0.0099945,20.0200005-0.0200043
		c0.3799973,0,1.0400009,0.1799927,1.0999985-0.1499939c0.1999969-1.1900024,1.0699997-0.75,1.6699982-0.75
		c20.7000046-0.0200043,41.409996-0.0200043,62.109993-0.0200043c3.8399963,0,7.6699982,0,11.5099945,0.0099945
		c0.3500061,0,0.9600067-0.1399994,1,0.1499939c0.1600037,1.2100067,1.0399933,0.7599945,1.6399994,0.7599945
		c6.5899963,0.0299988,13.1900024,0.0099945,19.7799988,0.0200043c0.3800049,0,1-0.1900024,1.1000061,0.1900024
		c0.2100067,0.8099976,0.7700043,0.5500031,1.2200012,0.5599976c2.6799927,0.0299988,5.3500061,0.0399933,8.0299988,0.0500031
		c0.0800018,0.4299927,0.1699982,0.8600006,0.25,1.2899933c-2.8000031,0.0200043-5.5899963,0.0299988-8.3899994,0.0700073
		c-0.3300018,0-0.8999939-0.1900024-0.9499969,0.2100067c-0.1199951,0.9900055-0.8200073,0.6900024-1.3399963,0.6999969
		c-6.6799927,0.0099945-13.3500061,0.0099945-20.0299988,0.0200043c-0.3800049,0-1.0200043-0.1900024-1.1100006,0.1699982
		c-0.2100067,0.8899994-0.8399963,0.5800018-1.3200073,0.5800018c-11.75,0.0200043-23.5100021,0.0099945-35.2599945,0.0099945
		c-12.8300018,0-25.6699982,0-38.5-0.0099945c-0.4199982,0-1.0800018,0.2299957-1.2099991-0.1999969
		c-0.2399979-0.7799988-0.7699966-0.5599976-1.2300034-0.5599976c-6.7600021-0.0099945-13.5100021,0-20.2700005-0.0200043
		c-0.3899994,0-1.0400009,0.2599945-1.1300011-0.3099976c-0.1199989-0.7700043-0.5999985-0.5899963-1.0400009-0.6000061
		C49.5299988,196.0700073,47.4500008,196.0700073,45.3699989,196.0599976z"></path>
	<path d="M45.3699989,155.6300049c2.0400009-0.0099945,4.079998-0.0099945,6.1199989-0.0500031
		c0.4500008-0.0099945,1.0099983,0.25,1.1800003-0.6000061c0.0900002-0.4700012,0.7700005-0.2400055,1.1899986-0.2400055
		c6.6399994-0.0099945,13.2700005,0,19.9099998-0.0200043c0.5500031,0,1.2600021,0.3399963,1.5299988-0.6499939
		c0.0999985-0.3699951,0.8000031-0.1799927,1.2300034-0.1799927c15.75-0.0099945,31.5100021-0.0099945,47.2599945-0.0099945
		c8.8000031,0,17.5899963,0,26.3899994,0.0099945c0.5200043,0,1.1900024-0.3099976,1.3999939,0.6499939
		c0.0800018,0.3600006,0.7200012,0.1799927,1.1000061,0.1799927c6.6399994,0.0099945,13.2700043,0,19.9100037,0.0200043
		c0.5500031,0,1.2899933-0.3500061,1.4900055,0.6799927c0.0599976,0.3200073,0.6499939,0.1600037,1,0.1699982
		c2.6799927,0.0200043,5.3600006,0.0299988,8.0299988,0.0500031c0,0.4299927-0.0099945,0.8699951-0.0099945,1.3000031
		c-2.6799927,0.0200043-5.3600006,0.0299988-8.0399933,0.0500031c-0.3399963,0-0.9299927-0.1600037-0.9799957,0.1699982
		c-0.1699982,1.1100006-0.9700012,0.7299957-1.5500031,0.7400055c-6.6000061,0.0200043-13.1999969,0.0099945-19.8000031,0.0200043
		c-0.3899994,0-1.0200043-0.1900024-1.1199951,0.1499939c-0.2899933,0.9499969-1,0.6100006-1.5500031,0.6100006
		c-7.8800049,0.0200043-15.7599945,0.0099945-23.6399994,0.0099945c-16.6399994,0-33.2799988,0-49.9100037-0.0099945
		c-0.4199982,0-1.0899963,0.2200012-1.2200012-0.1900024c-0.2600021-0.8200073-0.8399963-0.5800018-1.3300018-0.5800018
		c-6.7200012-0.0099945-13.4399986,0-20.1599998-0.0200043c-0.3899994,0-1.0499992,0.2599945-1.1399994-0.2899933
		c-0.1399994-0.8500061-0.6899986-0.6100006-1.1599998-0.6199951c-2.0400009-0.0299988-4.0800018-0.0399933-6.1199989-0.0599976
		C45.3800011,156.5,45.3800011,156.0700073,45.3699989,155.6300049z"></path>
	<path d="M184.2899933,201.5200043c0.0099945,0.3200073,0.0299988,0.6399994,0.0399933,0.9600067
		c-3.0800018,0.0099945-6.1600037,0.0099945-9.2400055,0.0299988c-0.3500061,0-0.9400024-0.1499939-1,0.1399994
		c-0.2200012,1.0700073-1.0099945,0.7100067-1.5899963,0.7100067c-6.6000061,0.0200043-13.1999969,0.0099945-19.8000031,0.0200043
		c-0.3899994,0-1.0700073-0.1499939-1.1199951,0.1499939c-0.1999969,1.1999969-1.0700073,0.7299957-1.6600037,0.7299957
		c-24.4000015,0.0200043-48.8000031,0.0200043-73.1999969,0.0200043c-0.3199997,0-0.6399994,0.0200043-0.9599991-0.0099945
		c-0.1900024-0.0200043-0.5199966-0.1100006-0.5199966-0.1799927c-0.0699997-1.1000061-0.9100037-0.6999969-1.4400024-0.6999969
		c-6.6399994-0.0200043-13.2799988-0.0099945-19.9199982-0.0200043c-0.4199982,0-1.0999985,0.2200012-1.1899986-0.2400055
		c-0.1699982-0.8300018-0.7000008-0.6100006-1.1699982-0.6199951c-2.4000015-0.0200043-4.7999992-0.0200043-7.2000008-0.0200043
		c0-0.4799957,0.1199989-0.9400024,0.3499985-1.3699951c2.3199997-0.0099945,4.6399994-0.0099945,6.9599991-0.0200043
		c0.3100014,0,0.8300018,0.1300049,0.8899994-0.1499939c0.2000008-0.9600067,0.9099998-0.6199951,1.4199982-0.6199951
		c6.6800003-0.0200043,13.3499985-0.0099945,20.0299988-0.0200043c0.3799973,0,1.0199966,0.1900024,1.0999985-0.1799927
		c0.2200012-1.0700073,1-0.7200012,1.5800018-0.7200012c22.3499985-0.0099945,44.6899948-0.0099945,67.0400009-0.0099945
		c2.2799988,0,4.5599976,0,6.8399963,0.0099945c0.3099976,0,0.8500061-0.1199951,0.8800049,0.1499939
		c0.1199951,1.1600037,0.9700012,0.7400055,1.5299988,0.7400055c6.6000061,0.0200043,13.1900024,0.0099945,19.7899933,0.0200043
		c0.4199982,0,1.0800018-0.2200012,1.1999969,0.2299957c0.1900024,0.7599945,0.6999969,0.5299988,1.1100006,0.5299988
		c2.7200012,0.0200043,5.4400024,0.0099945,8.1499939,0.0099945
		C183.5800018,201.1100006,184.0599976,200.9799957,184.2899933,201.5200043z"></path>
	<path d="M45.3199997,163.3899994c-0.0299988-0.0700073-0.0600014-0.1399994-0.0900002-0.1999969
		c-0.0699997-0.9600067,0.3199997-1.2700043,1.3199997-1.2100067c1.7099991,0.1000061,3.4399986,0.0299988,5.1599998,0.0200043
		c0.2700005,0,0.7599983-0.0299988,0.7799988-0.1199951c0.1899986-1.0099945,0.9700012-0.6399994,1.5200005-0.6499939
		c6.6399994-0.0200043,13.2700005-0.0099945,19.9099998-0.0200043c0.3899994,0,1.0500031,0.1699982,1.1100006-0.1499939
		c0.2300034-1.1399994,1.0500031-0.7599945,1.6699982-0.7599945c24.4300003-0.0099945,48.8600006-0.0099945,73.2899933-0.0099945
		c0.3200073,0,0.6399994-0.0099945,0.9600067,0.0099945c0.1900024,0.0099945,0.4700012-0.0399933,0.4700012,0.2299957
		c0.0099945,0.9400024,0.7100067,0.6799927,1.1999969,0.6799927c6.7200012,0.0099945,13.4299927,0,20.1499939,0.0099945
		c0.3800049,0,1.0099945-0.1900024,1.1000061,0.1999969c0.1900024,0.8300018,0.75,0.5599976,1.1999969,0.5700073
		c2.5200043,0.0299988,5.0399933,0.0299988,7.5599976,0.0399933c-0.0099945,0.4299927-0.0200043,0.8699951-0.0299988,1.3000031
		c-2.5200043,0.0200043-5.0399933,0.0399933-7.5500031,0.0700073c-0.3500061,0-0.9499969-0.1499939-0.9900055,0.1699982
		c-0.1600037,1.0700073-0.9299927,0.6999969-1.4700012,0.6999969c-6.6399994,0.0200043-13.2799988,0.0099945-19.9199982,0.0200043
		c-0.3800049,0-1.0200043-0.1799927-1.1000061,0.1799927c-0.2100067,0.9700012-0.9100037,0.6100006-1.3999939,0.6100006
		c-12.2400055,0.0200043-24.4799957,0.0099945-36.7200012,0.0099945c-12.3199997,0-24.6399994,0-36.9599991-0.0099945
		c-0.3899994,0-1.0299988,0.1799927-1.1299973-0.1199951c-0.3499985-1.0200043-1.1399994-0.6699982-1.7699966-0.6699982
		c-6.5999985-0.0200043-13.2000008-0.0099945-19.7999992-0.0200043c-0.4000015,0-1.0400009,0.2400055-1.1399994-0.3200073
		c-0.1300011-0.6999969-0.5600014-0.5500031-0.9599991-0.5500031
		C49.5600014,163.3899994,47.4399986,163.3899994,45.3199997,163.3899994z"></path>
	<path d="M182.5899963,144.1000061c-2.4799957,0.0200043-4.9600067,0.0200043-7.4400024,0.0500031
		c-0.5,0.0099945-1.1000061-0.2400055-1.2799988,0.6399994c-0.0800018,0.4100037-0.7100067,0.2100067-1.0899963,0.2100067
		c-6.7200012,0.0099945-13.4400024,0-20.1600037,0.0200043c-0.5,0-1.1900024-0.2700043-1.2100067,0.6799927
		c0,0.2700043-0.2899933,0.2200012-0.4700012,0.2299957c-0.3200073,0.0200043-0.6399994,0.0099945-0.9600067,0.0099945
		c-24.4000015,0-48.7900009,0-73.1900024-0.0200043c-0.6399994,0-1.5400009,0.4400024-1.7799988-0.7700043
		c-0.0599976-0.2899933-0.7300034-0.1300049-1.1200027-0.1300049c-6.6800003-0.0099945-13.3600006,0-20.0400009-0.0099945
		c-0.5299988,0-1.2099991,0.2799988-1.3499985-0.6799927c-0.0499992-0.3600006-0.5499992-0.2100067-0.8499985-0.2100067
		c-1.7599983-0.0099945-3.5200005-0.0200043-5.2799988,0c-0.5499992,0-0.9199982-0.0700073-0.9000015-0.7700043
		c0.0200005-0.7200012,0.5099983-0.5800018,0.9300003-0.5800018c1.6800003-0.0099945,3.3600006,0.0099945,5.0400009-0.0200043
		c0.4500008-0.0099945,1.0099983,0.2700043,1.2299995-0.5500031c0.1199989-0.4499969,0.7799988-0.2400055,1.2000008-0.2400055
		c6.6399994-0.0099945,13.2799988,0,19.9199982-0.0200043c0.5400009,0,1.3600006,0.3999939,1.4499969-0.6900024
		c0.0100021-0.0700073,0.3399963-0.1600037,0.5299988-0.1799927c0.3199997-0.0299988,0.6399994-0.0099945,0.9599991-0.0099945
		c24.4000015,0,48.7900009,0,73.1900101,0.0200043c0.5899963,0,1.4700012-0.4499969,1.6699982,0.7400055
		c0.0500031,0.2700043,0.7299957,0.1300049,1.1199951,0.1300049c6.6399994,0.0099945,13.2799988,0,19.9199982,0.0200043
		c0.5200043,0,1.1999969-0.3099976,1.4400024,0.6100006c0.0899963,0.3500061,0.6399994,0.1799927,0.9900055,0.1799927
		c2.5200043,0.0200043,5.0399933,0.0299988,7.5599976,0.0500031
		C182.6000061,143.2299957,182.6000061,143.6600037,182.5899963,144.1000061z"></path>
	<path d="M185.0200043,46.7799988c-3.2799988,0-6.5599976-0.0099983-9.8399963,0.0099983
		c-0.4700012,0-1.1000061-0.3199997-1.3200073,0.5699997c-0.0899963,0.3800011-0.7200012,0.1899986-1.1000061,0.1899986
		c-6.6799927,0.0099983-13.3600006,0-20.0399933,0.0200005c-0.5200043,0-1.2799988-0.3199997-1.3099976,0.7000008
		c-0.0099945,0.2400017-0.3000031,0.2000008-0.4900055,0.2099991c-0.2799988,0.0099983-0.5599976,0.0099983-0.8399963,0.0099983
		c-24.5100021,0-49.0299988,0-73.5400009-0.0099983c-0.5500031,0-1.2799988,0.3499985-1.4700012-0.6899986
		c-0.0800018-0.4300003-0.6999969-0.2099991-1.0800018-0.2099991c-6.5599976-0.0099983-13.1199989,0-19.6800003-0.0299988
		c-0.6500015,0-1.5299988,0.4599991-1.8899994-0.6500015c-0.0400009-0.1300011-0.6599998-0.0999985-1.0200005-0.0999985
		c-6.3199997-0.0099983-12.6399994,0-18.9599991-0.0099983c-0.3499985,0-0.75,0.1300011-1.0400009-0.1300011
		c-0.2900009-0.2599983-0.3099995-0.6800003-0.1900005-1.0099983c0.1599998-0.4599991,0.6200008-0.2400017,0.9400005-0.2400017
		c6.3600006-0.0099983,12.7200012,0,19.079998-0.0200005c0.5400009,0,1.2900009,0.3600006,1.4500008-0.6899986
		c0.0600014-0.3800011,0.7099991-0.2099991,1.0900002-0.2099991c6.7200012-0.0099983,13.4400024,0,20.159996-0.0200005
		c0.4700012,0,1.1699982,0.3499985,1.2799988-0.5999985c0.0400009-0.3100014,0.4599991-0.2400017,0.7300034-0.25
		c0.7600021-0.0099983,1.5199966,0,2.2799988,0c23.9500046,0,47.909996,0,71.859993,0.0099983
		c0.5500031,0,1.2700043-0.3300018,1.4799957,0.6800003c0.0800018,0.3600006,0.7200012,0.1699982,1.1000061,0.1699982
		c6.6399994,0.0099983,13.2799988,0,19.9199982,0.0200005c0.5500031,0,1.3000031-0.3400002,1.4600067,0.7200012
		c0.0599976,0.3899994,0.7100067,0.1899986,1.0800018,0.1899986c6.7200012,0.0099983,13.4400024,0.0099983,20.1600037,0.0200005
		c0.3200073,0,0.7899933-0.2099991,0.9299927,0.25c0.0800018,0.2700005-0.0099945,0.6500015-0.1499939,0.9199982
		c-0.2100067,0.4000015-0.6399994,0.2099991-0.9799957,0.2099991
		C191.7400055,46.7900009,188.3800049,46.7799988,185.0200043,46.7799988z"></path>
	<path d="M162.6000061,54.0600014c-3.2799988,0-6.5599976-0.0099983-9.8399963,0.0099983
		c-0.5299988,0-1.25-0.2999992-1.3800049,0.6500015c-0.0299988,0.2099991-0.3300018,0.1699982-0.5200043,0.1800003
		c-0.2400055,0.0099983-0.4799957,0-0.7200012,0c-24.5200043,0-49.0299988,0-73.5500031-0.0099983
		c-0.5599976,0-1.2699966,0.3199997-1.5400009-0.6500015c-0.0999985-0.3800011-0.7200012-0.1699982-1.0999985-0.1699982
		c-6.7200012-0.0099983-13.4399986,0-20.1599998-0.0200005c-0.4900017,0-1.1100006,0.2599983-1.2799988-0.6399994
		c-0.0800018-0.4099998-0.7099991-0.2099991-1.0800018-0.2099991c-5.8800011-0.0099983-11.7599983-0.0099983-17.6399994-0.0099983
		c-0.2799988,0-0.5600014-0.0200005-0.8400002,0c-0.6399994,0.0499992-0.8199997-0.2799988-0.8199997-0.8699989
		c-0.0099983-0.7000008,0.4799995-0.5099983,0.8300018-0.5099983c2.0800018-0.0200005,4.1599998-0.0099983,6.2399979-0.0099983
		c4.0800018,0,8.1599998,0.0099983,12.2399979-0.0099983c0.5,0,1.1100006,0.25,1.2400017-0.6699982
		c0.0600014-0.4500008,0.6899986-0.2400017,1.0600014-0.2400017c6.6800003-0.0099983,13.3600006,0,20.0400009-0.0200005
		c0.5599976,0,1.25,0.2900009,1.5400009-0.6199989c0.0999985-0.3100014,0.6600037-0.1500015,1.0100021-0.1500015
		c3.6800003-0.0099983,7.3600006-0.0099983,11.0400009-0.0099983c20.7999954,0,41.590004,0,62.390007,0.0200005
		c0.6499939,0,1.5299988-0.4300003,1.8999939,0.6500015c0.0500031,0.1399994,0.6600037,0.1100006,1.0099945,0.1100006
		c6.6799927,0.0099983,13.3600006,0,20.0399933,0.0099983c0.5200043,0,1.1999969-0.2900009,1.3600006,0.6800003
		c0.0700073,0.4500008,0.6999969,0.2200012,1.0700073,0.2200012c6.3999939,0.0099983,12.8000031,0.0099983,19.1999969,0.0099983
		c0.2799988,0,0.5599976,0,0.8399963,0c0.4199982,0,0.7200012,0.1699982,0.6900024,0.6300011
		c-0.0299988,0.3800011-0.1799927,0.7099991-0.6399994,0.7400017c-0.3200073,0.0200005-0.6399994,0.0200005-0.9600067,0.0200005
		c-6.3600006,0-12.7200012,0-19.0800018,0.0099983c-0.4799957,0-1.1300049-0.2900009-1.2799988,0.6300011
		c-0.0599976,0.3800011-0.6300049,0.2200012-0.9700012,0.2200012
		C169.4799957,54.0600014,166.0399933,54.0600014,162.6000061,54.0600014z"></path>
	<path d="M113.4000015,61.2400017c-12.2399979,0-24.4700012,0.0099983-36.7099991-0.0200005
		c-0.5800018,0-1.4000015,0.4099998-1.6600037-0.6399994C75,60.4600029,74.3699951,60.4600029,74.0199966,60.4600029
		c-6.7200012-0.0099983-13.4399986,0-20.1500015-0.0099983c-0.5200005,0-1.2000008,0.2999992-1.3499985-0.6800003
		c-0.0699997-0.4599991-0.6899986-0.2200012-1.0600014-0.2200012c-5.920002-0.0099983-11.8400002-0.0099983-17.75-0.0200005
		c-0.3600006,0-0.8499985,0.2299995-1.0600014-0.2599983c-0.1199989-0.2700005-0.1899986-0.6699982-0.0800018-0.9099998
		c0.1800003-0.3800011,0.6399994-0.2099991,0.9799995-0.2099991c5.8800011-0.0099983,11.7599983,0,17.6300011-0.0200005
		c0.5600014,0,1.25,0.2999992,1.5600014-0.6100006c0.1199989-0.3400002,0.7400017-0.1399994,1.1199989-0.1500015
		c6.7200012-0.0099983,13.4400024,0,20.1500015-0.0099983c0.4899979,0,1.1399994,0.2599983,1.2200012-0.6699982
		c0.0299988-0.3899994,0.5299988-0.25,0.8199997-0.25c1.5999985-0.0099983,3.1999969-0.0099983,4.8000031-0.0099983
		c22.9899979,0,45.9800034,0,68.9800034,0.0200005c0.6300049,0,1.5399933-0.4500008,1.7599945,0.7700005
		c0.0599976,0.2999992,0.7299957,0.1399994,1.1199951,0.1399994c6.6399994,0.0099983,13.2799988,0,19.9100037,0.0200005
		c0.5200043,0,1.1900024-0.3300018,1.4499969,0.5999985c0.0899963,0.3199997,0.7299957,0.1500015,1.1199951,0.1500015
		c6.1999969,0.0099983,12.3999939,0,18.5899963,0.0099983c0.3600006,0,0.75-0.0400009,1.0599976,0.0900002
		c0.3999939,0.1800003,0.2700043,0.6399994,0.2100067,0.9700012c-0.1000061,0.5200005-0.5800018,0.3199997-0.8899994,0.3199997
		c-4.5599976,0.0099983-9.1199951,0.0099983-13.6800079,0.0099983c-1.8800049,0-3.7599945,0-5.6399994,0
		c-0.4199982,0-0.8399963-0.1100006-0.9400024,0.5800018c-0.0899963,0.6199989-0.7299957,0.3300018-1.1100006,0.3300018
		c-6.6799927,0.0200005-13.3600006,0.0099983-20.0299988,0.0299988c-0.5099945,0-1.1900024-0.3300018-1.4199982,0.6100006
		c-0.0800018,0.3199997-0.7299957,0.1399994-1.1199951,0.1399994
		C137.9499969,61.2400017,125.6800003,61.2400017,113.4000015,61.2400017z"></path>
	<path d="M113.2799988,100.4899979c-12.2799988,0-24.5500031,0-36.8300018-0.0100021
		c-0.5299988,0-1.1999969,0.2799988-1.3700027-0.6900024c-0.0800018-0.4499969-0.6999969-0.2099991-1.0599976-0.2099991
		c-6.7200012-0.0100021-13.4399986,0-20.1500015-0.0199966c-0.5200005,0-1.2200012,0.3099976-1.3400002-0.6900024
		c-0.0499992-0.4199982-0.6100006-0.2200012-0.9399986-0.2200012c-3.3199997-0.0199966-6.6399994-0.0100021-9.9599991-0.0199966
		c-0.3400002,0-0.7900009,0.1699982-1-0.1800003c-0.1699982-0.2799988-0.2400017-0.7099991-0.1699982-1.0299988
		c0.0699997-0.3099976,0.4799995-0.1800003,0.7400017-0.1800003c3.3600006-0.0100021,6.7200012,0.0100021,10.079998-0.0199966
		c0.5200005,0,1.1699982,0.2900009,1.4399986-0.5899963c0.1100006-0.3499985,0.7299995-0.1600037,1.1199989-0.1600037
		c6.5999985-0.0100021,13.1999969,0,19.7900009-0.0199966c0.5999985,0,1.5199966,0.4599991,1.6399994-0.75
		c0.0100021-0.0699997,0.3399963-0.1399994,0.5299988-0.1600037c0.2799988-0.0299988,0.5599976-0.0100021,0.8399963-0.0100021
		c24.4300003,0,48.8600006,0,73.2900009,0.0199966c0.6000061,0,1.4700012-0.4499969,1.6499939,0.7600021
		c0.0500031,0.3099976,0.7299957,0.1500015,1.1100006,0.1500015c6.6799927,0.0100021,13.3600006,0,20.0299988,0.0199966
		c0.4799957,0,1.1199951-0.3000031,1.3300018,0.5899963c0.0700073,0.3199997,0.6499939,0.1600037,0.9900055,0.1600037
		c3.9199982,0.0100021,7.8399963,0,11.7599945,0.0199966c0.3500061,0,0.9900055-0.3099976,1.0099945,0.4000015
		c0.0200043,0.6699982-0.3099976,1.0100021-1.1100006,1c-3.9199982-0.0500031-7.8399963-0.0299988-11.7599945-0.0199966
		c-0.4299927,0-0.9299927-0.1999969-1.0399933,0.5899963c-0.0800018,0.5999985-0.7299957,0.3199997-1.1199951,0.3199997
		c-6.6000061,0.0199966-13.1999969,0-19.7900085,0.0299988c-0.6000061,0-1.4600067-0.4400024-1.6600037,0.7399979
		c-0.0599976,0.3300018-0.7200012,0.1600037-1.1100006,0.1600037
		C137.9100037,100.4899979,125.5899963,100.4899979,113.2799988,100.4899979z"></path>
	<path d="M181.6300049,92.2399979c-2.2400055,0-4.4799957-0.0100021-6.7200012,0.0100021
		c-0.3999939,0-0.8699951-0.1600037-0.9799957,0.5500031c-0.1000061,0.6399994-0.7200012,0.3499985-1.1000061,0.3499985
		c-6.5599976,0.0199966-13.1199951,0-19.6800079,0.0299988c-0.6399994,0-1.5500031-0.4800034-1.8500061,0.6999969
		c-0.0299988,0.1299973-0.7400055,0.1100006-1.1300049,0.1100006c-10.2799988,0.0100021-20.5599976,0-30.8300018,0
		c-14.1600037,0-28.3099976,0.0100021-42.4700012-0.0199966c-0.6500015,0-1.5699997,0.4499969-1.8600006-0.7200012
		c-0.0299988-0.1100006-0.6699982-0.0899963-1.0199966-0.0899963c-6.6800003-0.0100021-13.3600006,0-20.0400009-0.0100021
		c-0.5600014,0-1.2900009,0.3099976-1.4599991-0.6999969c-0.0600014-0.3700027-0.6300011-0.1900024-0.9700012-0.1999969
		c-3.6399994-0.0100021-7.2799988-0.0100021-10.9199982-0.0100021c-0.2400017,0-0.4799995-0.0199966-0.7200012,0
		c-0.6599998,0.0699997-1-0.25-1.0099983-0.8799973c-0.0099983-0.7600021,0.6100006-0.4499969,0.9500008-0.4499969
		c3.8800011-0.0199966,7.7600021-0.0100021,11.6399994-0.0199966c0.4599991,0,1.0099983,0.2399979,1.2099991-0.5699997
		c0.1300011-0.5100021,0.7700005-0.25,1.1800003-0.25c6.6800003-0.0199966,13.3600006,0,20.0400009-0.0199966
		c0.5100021,0,1.2300034,0.3300018,1.3600006-0.6600037c0.0400009-0.3399963,0.5400009-0.2200012,0.8499985-0.2300034
		c0.9599991-0.0100021,1.9199982,0,2.8799973,0c23.6699982,0,47.3499985,0,71.019989,0.0199966
		c0.5500031,0,1.3999939-0.4499969,1.5500031,0.7200012c0.0399933,0.3099976,0.7200012,0.1600037,1.1100006,0.1600037
		c6.6399994,0.0100021,13.2799988,0,19.9199982,0.0199966c0.5700073,0,1.2799988-0.3000031,1.5099945,0.6800003
		c0.0800018,0.3199997,0.6499939,0.1500015,1,0.1500015c4.4799957,0.0100021,8.9600067,0,13.4400024,0.0199966
		c0.3500061,0,1-0.3300018,1.0200043,0.3799973c0.0200043,0.6299973-0.3500061,0.9700012-1.0800018,0.9499969
		C186.1799927,92.2099991,183.8999939,92.2399979,181.6300049,92.2399979z"></path>
	<path d="M33.8300018,40.2999992c1.4700012-0.7299995,2.9199982-1.4199982,4.5999985-1.4099998
		c4.3199997,0.0299988,8.6399994,0.0200005,12.9599991,0c0.4900017,0,1.0800018,0.2400017,1.3199997-0.5900002
		c0.1100006-0.3699989,0.7299995-0.1699982,1.1100006-0.1699982c6.7200012-0.0099983,13.4400024,0,20.159996-0.0200005
		c0.4899979,0,1.1399994,0.2799988,1.25-0.6500015c0.0500031-0.4399986,0.6100006-0.25,0.9400024-0.25
		c2.6800003-0.0099983,5.3600006-0.0099983,8.0400009-0.0099983c21.8799973,0,43.7600021,0,65.640007,0.0200005
		c0.6199951,0,1.5299988-0.4700012,1.7599945,0.7599983c0.0599976,0.2999992,0.7299957,0.1399994,1.1199951,0.1399994
		c6.6000061,0.0099983,13.1999969,0,19.8000031,0.0200005c0.5399933,0,1.3000031-0.4000015,1.5399933,0.6199989
		c0.0599976,0.2799988,0.6600037,0.1300011,1.0099945,0.1300011c3.8399963,0.0099983,7.6799927,0.0400009,11.5200043-0.0099983
		c2-0.0200005,3.7700043,0.75,5.6000061,1.4099998c-5.6600037,0-11.3300018,0-16.9900055,0.0099983
		c-0.5299988,0-1.1900024-0.2799988-1.3399963,0.6899986c-0.0599976,0.4000015-0.6999969,0.2200012-1.0800018,0.2200012
		c-6.6799927,0.0099983-13.3600006,0-20.0399933,0.0200005c-0.5099945,0-1.2799988-0.3499985-1.3500061,0.6599998
		c-0.0099945,0.0699997-0.3300018,0.1599998-0.5200043,0.1800003c-0.3600006,0.0299988-0.7200012,0.0099983-1.0800018,0.0099983
		c-24.2799988,0-48.5599976,0-72.8399963-0.0200005c-0.6900024,0-1.5999985,0.4399986-1.9499969-0.7299995
		c-0.0800018-0.2799988-0.6699982-0.1199989-1.0199966-0.1199989c-6.6800003-0.0099983-13.3600006,0-20.0400009-0.0200005
		c-0.5600014,0-1.2900009,0.3100014-1.4500008-0.7299995c-0.0600014-0.3600006-0.7099991-0.1699982-1.0900002-0.1699982
		c-5.6800003-0.0099983-11.3600006-0.0099983-17.0400009-0.0099983
		C34.1899986,40.2999992,34.0099983,40.2999992,33.8300018,40.2999992z"></path>
	<path d="M179.5599976,111.5500031c-1.3600006,0-2.7200012-0.0299988-4.0800018,0.0100021
		c-0.6000061,0.0199966-1.3300018-0.3199997-1.6699982,0.6200027c-0.1100006,0.3099976-0.6600037,0.1299973-1.0099945,0.1299973
		c-6.6000061,0.0100021-13.1999969,0-19.8000031,0.0199966c-0.6000061,0-1.4900055-0.4599991-1.6399994,0.7600021
		c-0.0399933,0.2799988-0.5700073,0.1500015-0.8800049,0.1500015c-2.6799927,0.0100021-5.3600006,0.0100021-8.0399933,0.0100021
		c-21.8799973,0-43.7599945,0-65.6299973-0.0199966c-0.6299973,0-1.5800018,0.5-1.75-0.7900009
		c-0.0299988-0.2399979-0.6600037-0.1200027-1.0100021-0.1200027c-6.6399994-0.0100021-13.2799988,0-19.9199982-0.0199966
		c-0.5800018,0-1.3899994,0.3899994-1.6699982-0.6299973c-0.0299988-0.1200027-0.5800018-0.1200027-0.9000015-0.1200027
		c-2.7599983-0.0100021-5.5200005,0-8.2799988-0.0100021c-0.4300003,0-0.8800011,0.0999985-1-0.5599976
		c-0.1399994-0.7600021,0.2099991-0.8600006,0.8400002-0.8499985c2.7999992,0.0199966,5.5999985,0.0199966,8.3999977,0
		c0.4599991,0,1,0.2099991,1.1399994-0.6200027c0.0900002-0.5400009,0.75-0.2799988,1.1500015-0.2799988
		c6.6800003-0.0199966,13.3600006-0.0100021,20.0400009-0.0199966c0.5199966,0,1.1500015,0.2900009,1.4499969-0.5800018
		c0.1399994-0.4000015,0.8000031-0.1699982,1.2300034-0.1699982c23.1200027-0.0100021,46.2399979-0.0100021,69.3499985-0.0100021
		c1.3600006,0,2.7200012-0.0299988,4.0800018,0.0100021c0.5899963,0.0199966,1.3300018-0.3399963,1.6499939,0.6299973
		c0.1000061,0.3000031,0.6600037,0.1299973,1.0099945,0.1299973c6.6000061,0.0100021,13.1999969,0,19.8000031,0.0199966
		c0.6000061,0,1.5-0.4499969,1.6499939,0.7600021c0.0299988,0.2600021,0.5700073,0.1399994,0.8800049,0.1399994
		c3.1199951,0.0100021,6.2400055-0.0100021,9.3600006,0.0199966c0.3800049,0,1.0299988-0.3499985,1.0399933,0.5299988
		c0.0099945,0.8000031-0.4700012,0.8700027-1.1000061,0.8600006
		C182.6799927,111.5299988,181.1199951,111.5500031,179.5599976,111.5500031z"></path>
	<path d="M180.1100006,105.1299973c-1.7599945,0-3.5200043-0.0100021-5.2799988,0.0100021
		c-0.3600006,0-0.7599945-0.1399994-0.9199982,0.4700012c-0.1399994,0.5500031-0.75,0.2900009-1.1499939,0.2900009
		c-6.6799927,0.0199966-13.3600006,0.0100021-20.0400085,0.0199966c-0.5099945,0-1.2799988-0.3300018-1.3200073,0.6900024
		c-0.0099945,0.2300034-0.3000031,0.1999969-0.4900055,0.2099991c-0.2400055,0.0100021-0.4799957,0.0100021-0.7200012,0.0100021
		c-24.5599976,0-49.1199951,0-73.6800003-0.0100021c-0.5699997,0-1.2699966,0.2900009-1.4700012-0.7099991
		c-0.0800018-0.3899994-0.7099991-0.1900024-1.0899963-0.1900024c-6.6800003-0.0100021-13.3600006,0-20.0400009-0.0199966
		c-0.5200005,0-1.2099991,0.3300018-1.4300003-0.6200027c-0.0699997-0.3000031-0.6500015-0.1399994-1-0.1399994
		c-3-0.0100021-6-0.0100021-9,0c-0.5499992,0-1.0400009,0.0299988-1.0699997-0.7399979
		c-0.0400009-0.9400024,0.6399994-0.6399994,1.0800018-0.6500015c3-0.0199966,6,0,9-0.0199966
		c0.4500008,0,1.0099983,0.2399979,1.1699982-0.6100006c0.0900002-0.4599991,0.7700005-0.2399979,1.1899986-0.2399979
		c6.6800003-0.0100021,13.3599968,0,20.0399971-0.0199966c0.5199966,0,1.2900009,0.3199997,1.3300018-0.6999969
		c0-0.0699997,0.3300018-0.1699982,0.5100021-0.1900024c0.3199997-0.0299988,0.6399994-0.0100021,0.9599991-0.0100021
		c24.4400024,0,48.8800049,0,73.3199921,0.0100021c0.5700073,0,1.3699951-0.4000015,1.5500031,0.7200012
		c0.0500031,0.3199997,0.7200012,0.1699982,1.1100006,0.1699982c6.6000061,0.0100021,13.1999969,0,19.8000031,0.0199966
		c0.5800018,0,1.3800049-0.3899994,1.6000061,0.6999969c0.0599976,0.3000031,0.6499939,0.1500015,1,0.1500015
		c3.4400024,0.0100021,6.8800049-0.0100021,10.3199921,0.0199966c0.3699951,0,1.0700073-0.3799973,1.0700073,0.4899979
		c0,0.6999969-0.3600006,0.9300003-1.0700073,0.9100037C183.6300049,105.0999985,181.8699951,105.1299973,180.1100006,105.1299973z"></path>
</g>
<g onclick="select(this)" class="" id="estampa-secundaria" fill="#000000">
	<path d="M180.2700043,36.7299995c0,0-21.2100067-5.1598301-33.7100067-15.2799988
		c0,0-14.3000031,15.1391258-32.0599976,15.1391258S85.4599991,25.7701683,81.1100006,21.3400002
		C76.2006683,24.5079632,63.3399849,33.0701675,44.8199921,36.75
		C61.4000015,36.974472,180.2700043,36.7299995,180.2700043,36.7299995z"></path>
	<path d="M190.2200012,88.6100006c0,0,2.9599457-4.5398254,3.9999695-11.0299988
		s0.8286743-14.970211,0.8286743-14.970211h-35.248642l-127.090004,0.2502098c0,0,0.2676201,1.5248337,0.0038109,4.0898285
		c-0.2638092,2.5650024,0.0771751,7.7481232,0.3854218,9.1031265s1.1707611,4.2471924,1.9407654,5.1170349
		c0.5759773,1.313942,2.4252548,7.3894272,3.1300011,7.4400101S190.2200012,88.6100006,190.2200012,88.6100006z"></path>
	<path d="M182.6900024,140.1199951c0,0,0.3074951-4.6576691,0.3974915-5.8726654
		c0.0900116-1.2149963,0.292923-3.2942657,0.4725189-4.8773193s0.6472168-6.8124161,0.7400208-7.6500092
		s0.3518982-4.3800888,0.4241486-5.1151886s0.2108307-2.4151688,0.2108307-2.4151688l-142.0796204,0.0292816
		c0,0,0.3793831,5.2895584,0.4046249,5.5627518c0.025238,0.273201,0.0228424,1.7117462,0.2471199,3.3899231
		c0.2242737,1.6781845,0.4356613,2.9791107,0.8561783,6.5378876c0.4205208,3.5587769,0.8366699,6.9205322,0.8366699,6.9205322
		L45.25,140.2099915L182.6900024,140.1199951z"></path>
	<path d="M182.6300049,191.78862c0,0-0.3358765-3.735672-0.1852264-5.0706635
		c0.15065-1.3349762,0.4042358-4.268692,0.1297302-5.4196625c-0.2745056-1.1509552-0.1037598-7.7039185-0.0932159-8.0613556
		c0.0105438-0.3574219,0.0737152-3.4592743,0.1487122-3.8769379s0.2717133-1.0026703,0.0664825-2.4989166
		c-0.0664978-0.9000092-0.0051422-1.0210876-0.0051422-1.0210876l-137.3913422,0.0200043
		c0,0,0.1371918,2.9251251,0.1235962,5.7149811s-0.0197029,7.7173004-0.0022507,8.436615
		c0.0174522,0.7193298,0.0373421,4.2957001,0.1389885,6.5731964c0.1016464,2.2775116,0.159668,5.1452179,0.159668,5.1452179
		L182.6300049,191.78862z"></path>
	<path d="M186.5299988,268.8800049c0,0,0.4438782,3.0228882,0.6750031,5.744812
		c0.2311249,2.7219543,0.3523865,5.085022,0.1986847,6.3675232c-0.1536865,1.2825012-0.2775879,1.8156128-2.5664673,2.3660583
		c-2.2888641,0.5504456-8.4772186,1.6914368-17.7172241,2.0214233c-9.2399902,0.3300171-26.9405212,0.5662231-29.0127563,0.631073
		s-21.5072403,0.6795654-25.6022415,0.4742432c-4.0949936-0.2052917-23.222908-0.75354-27.5863342-0.7930298
		c-4.3634262-0.0394592-19.9885025-0.2449951-24.4807854-0.5354614c-4.4922752-0.2904663-13.2446251-1.0543823-17.1512527-2.1930847
		c-1.8366241-0.5312195-2.6027603-0.914978-2.8215675-1.7637329s-0.5750847-2.3247681-0.0650711-4.6298828
		c-0.079998-2.3501282,0.0574875-3.4223938,0.25-4c-0.0618477-0.7576294-0.1174889-1.1997681,0.3300133-3.6899414
		C44.7799988,268.8800049,186.5299988,268.8800049,186.5299988,268.8800049z"></path>
	<path d="M184.8399963,243.3500061c0,0,0.2195282-3.5101776,0.5947723-6.0901794
		c0.3752289-2.5800018,0.0484619-9.8536835-0.7331543-11.181839s-1.189743-4.5397797-1.2106781-5.6489716
		s0.2195129-2.9890442,0.2195129-2.9890442s-3.1091766-0.263855-5.8654633-0.1348572
		c-2.7562866,0.1289825-4.9071045,0.1734161-4.9071045,0.1734161l-120.247879-0.0485382l-10.2961159-0.0399933
		c0,0,0.0915642,3.5878601,0.1760788,3.8048248c0.0845146,0.21698,0.4630203,2.3466797,0.4500351,3.8051758
		s0.2300034,3.4099884,0.2300034,3.4099884s-0.4600029,2.9251709-0.6800041,3.6300049s-0.0100021,4.5400085-0.0100021,4.5400085
		s0.3254356,2.58461,0.2614288,3.4548798c-0.0640106,0.870285-0.3314247,3.3051147-0.3314247,3.3051147L184.8399963,243.3500061z"></path>
</g>
<g onclick="select(this)" class="has-opacity" id="estampa-quaternaria" fill="#ffffff" opacity="0.2">
	<path d="M45.5900002,173.3000031c2.1199989-0.0099945,4.2400017-0.0299988,6.3600006-0.0299988
		c0.2900009,0,0.7799988-0.1499939,0.7900009,0.2799988c0.0099983,0.9400024,0.6500015,0.7200012,1.1599998,0.7200012
		c6.6800003,0.0099945,13.3600006,0,20.0299988,0.0200043c0.4199982,0,1.0899963-0.3600006,1.1800003,0.5500031
		c0.0800018,0.8300018-0.1900024,1.0800018-1.0500031,1.0800018c-6.5999985-0.0299988-13.2000008-0.0299988-19.7900009,0
		c-0.5800018,0-1.5200005-0.4700012-1.5600014,0.8099976c-0.0099983,0.2899933-0.5600014,0.1799927-0.8699989,0.1799927
		c-1.7999992,0.0099945-3.5999985,0.0399933-5.4000015-0.0099945c-0.7400017-0.0200043-0.9300003,0.1900024-0.9199982,0.9400024
		c0.0200005,2.9299927-0.0099983,2.9299927,2.9300003,2.9299927c1.0400009,0,2.0800018-0.0200043,3.1199989,0.0099945
		c0.5400009,0.0099945,1.1899986-0.2599945,1.2900009,0.7400055c0.0499992,0.5099945,0.75,0.2599945,1.1500015,0.2599945
		c6.6800003,0.0200043,13.3599968,0.0099945,20.0300026,0.0200043c0.4000015,0,1.0100021-0.2899933,1.0599976,0.5500031
		c0.0400009,0.6900024-0.1100006,1.0099945-0.9000015,0.9900055c-1.8399963-0.0599976-3.6800003-0.0200043-5.5199966-0.0200043
		c-4.9599991,0-9.9199982,0-14.8699989,0c-0.4900017,0-1.0400009-0.1699982-1.0800018,0.6799927
		c-0.0200005,0.5099945-0.5699997,0.3099976-0.8899994,0.3099976c-1.7200012,0.0200043-3.4399986,0.0099945-5.1599998,0.0099945
		c-0.4000015,0-0.8499985-0.1000061-1,0.4499969c-0.3400002-3.25-0.2299995-6.5099945-0.3800011-9.7599945
		C45.2799988,174.4400024,45.1599998,173.8099976,45.5900002,173.3000031z"></path>
	<path d="M187.3999939,280c-4.5899963,0.019989-9.1900024,0.0400085-13.7799988,0.0599976
		c-0.1600037,0-0.4299927,0-0.4499969-0.0599976c-0.5299988-1.5-1.8000031-0.8099976-2.7100067-0.8200073
		c-6.2299957-0.0599976-12.4700012-0.0299988-18.6999969-0.0400085c-0.5200043,0-1.1100006,0.2099915-1.1300049-0.75
		s0.5200043-0.8800049,1.1399994-0.8800049c6.6300049,0.0100098,13.2700043,0.0100098,19.8999939-0.0100098
		c0.5299988,0,1.2100067,0.2900085,1.3300018-0.7099915c0.0599976-0.519989,0.6699982-0.2799988,1.0299988-0.2799988
		c4.4400024-0.0100098,8.8699951-0.0100098,13.3099976,0C187.5,277.6700134,187.5599976,278.8299866,187.3999939,280z"></path>
	<path d="M186.8899994,272.5700073c-4.4299927,0.2099915-8.8699951,0.0400085-13.3000031,0.0799866
		c-0.1900024,0-0.5299988-0.0799866-0.5299988-0.1400146c-0.0899963-1.3699951-1.1399994-0.8399963-1.8000031-0.8500061
		c-6.5200043-0.0299988-13.0299988-0.019989-19.5500031-0.019989c-0.5800018,0-1.1000061,0.0799866-1.0800018-0.8099976
		C150.6399841,270.0899963,150.9599915,270,151.5699921,270c3.4400024,0.019989,6.8800049,0.0100098,10.3199921,0.0100098
		c3.3600006,0,6.7200012-0.0299988,10.0800018,0.019989c0.7799988,0.0100098,1.0899963-0.25,1.1000061-0.9700012
		c4.5099945,0,9.0200043-0.0100098,13.5299988-0.0100098C186.8099976,270.2099915,186.9199982,271.3800049,186.8899994,272.5700073z
		"></path>
	<path d="M185.4100037,236.9100037c0.0500031-0.75-0.2899933-0.9600067-1.0399933-0.9499969
		c-3.4400024,0.0399933-6.8699951,0.0200043-10.3099976,0.0099945c-0.5200043,0-1.1100006,0.1999969-1.1999969-0.7100067
		c-0.0500031-0.5-0.6699982-0.2799988-1.0299988-0.2799988c-6.5500031-0.0099945-13.1000061-0.0099945-19.6600037-0.0099945
		c-0.2400055,0-0.4799957-0.0200043-0.7200012,0c-0.6199951,0.0700073-0.8300018-0.1699982-0.8300018-0.8000031
		c0-0.6100006,0.1799927-0.8500061,0.8200073-0.8399963c2.4400024,0.0299988,4.8699951,0.0099945,7.3099976,0.0099945
		c4.3099976,0,8.6300049,0,12.9400024,0c0.5500031,0,1.2100067,0.2200012,1.3000031-0.75
		c0.0399933-0.4400024,0.6100006-0.25,0.9400024-0.25c3.4799957-0.0099945,6.9499969-0.0099945,10.4299927-0.0099945
		c0.5,0,1.0700073,0.1199951,1.0399933-0.6799927C185.6199951,233.4100037,185.6900024,235.1600037,185.4100037,236.9100037z"></path>
	<path d="M40.3800011,276.5700073c3.9099998-0.019989,7.829998-0.0499878,11.7400017-0.0599976
		c0.1899986,0,0.5299988,0.0700073,0.5400009,0.1400146c0.1599998,1.3699951,1.2099991,0.8500061,1.9099998,0.8500061
		c6.4700012,0.0299988,12.9500008,0.0100098,19.420002,0.0299988c0.4400024,0,1.0599976-0.2999878,1.1200027,0.6199951
		c0.0599976,0.9200134-0.3600006,1.0100098-1.1200027,1.0100098c-6.5899963-0.019989-13.1899986-0.019989-19.7799988,0
		c-0.5699997,0-1.4199982-0.4100037-1.5099983,0.7399902c-0.0200005,0.2099915-0.4199982,0.1600037-0.6500015,0.1600037
		c-3.920002-0.019989-7.829998-0.0299988-11.75-0.0499878C40,278.8500061,40.1800003,277.7099915,40.3800011,276.5700073z"></path>
	<path d="M52.7200012,269.0899963c-0.0600014,0.7900085,0.3400002,0.9500122,1.0699997,0.9400024
		c6.75-0.0299988,13.5-0.019989,20.2399979-0.019989c0.5500031,0,1.1100006-0.1400146,1.0899963,0.7900085
		c-0.0199966,0.7200012-0.2900009,0.8599854-0.9199982,0.8500061c-2.1999969-0.0299988-4.3899994-0.0100098-6.5899963-0.0100098
		c-4.5900002,0-9.1800003,0-13.7799988,0.0100098c-0.4599991,0-1.0999985-0.230011-1.0800018,0.6600037
		c0.0099983,0.3999939-0.3699989,0.3399963-0.6300011,0.3399963c-3.829998-0.019989-7.6599998-0.0499878-11.4900017-0.0799866
		c-0.1500015-1.1900024,0.1399994-2.3500061,0.2900009-3.519989
		C44.8600006,269.0599976,48.7900009,269.0700073,52.7200012,269.0899963z"></path>
	<path d="M184.8399963,243.3500061c-3.9600067,0-7.9199982,0-11.8800049-0.0099945
		c0.1000061-0.9199982-0.4299927-0.9799957-1.1699982-0.9700012c-6.6699982,0.0200043-13.3300018,0.0200043-20,0
		c-0.4299927,0-1.0800018,0.3300018-1.1600037-0.5800018c-0.0800018-0.8600006,0.2599945-1.0599976,1.0800018-1.0599976
		c6.5899963,0.0299988,13.1699982,0.0200043,19.7599945,0c0.5899963,0,1.4199982,0.3699951,1.5599976-0.7200012
		c0.0299988-0.1999969,0.3300018-0.1799927,0.5200043-0.1799927c3.8300018,0.0200043,7.6600037,0.0500031,11.4900055,0.0800018
		C185.2400055,241.0800018,184.6999969,242.1900024,184.8399963,243.3500061z"></path>
	<path d="M185.0200043,228.4400024c-3.7599945,0.0099945-7.5200043,0.0299988-11.2799988,0.0500031
		c-0.4199982,0-0.7599945,0.0200043-0.8399963-0.5700073c-0.1000061-0.7599945-0.7599945-0.4299927-1.1600037-0.4299927
		c-6.6399994-0.0200043-13.2799988-0.0099945-19.9199982-0.0299988c-0.3999939,0-1.0200043,0.3200073-1.1699982-0.4400024
		c-0.1600037-0.8200073,0.1600037-1.1000061,1.0200043-1.0899963c6.6399994,0.0299988,13.2799988,0.0200043,19.9199982,0.0099945
		c0.5800018,0,1.3200073,0.2599945,1.4100037-0.7799988c0.0299988-0.3800049,0.5399933-0.2400055,0.8300018-0.2400055
		c3.4799957,0,6.9600067,0.0099945,10.4400024,0.0200043C184.8099976,226.0599976,185.0099945,227.2299957,185.0200043,228.4400024z
		"></path>
	<path d="M183.8200073,125.3399963c-3.2799988,0-6.5599976-0.0100021-9.8399963-0.0100021
		c-0.4900055,0-1.0099945,0.1500015-1.1100006-0.6800003c-0.0700073-0.5899963-0.7400055-0.3099976-1.1199951-0.3099976
		c-6.6799927-0.0199966-13.3600006-0.0100021-20.0399933-0.0100021c-0.5599976,0-1.0800018,0.1100006-1.0899963-0.8000031
		c-0.0099945-1,0.6000061-0.8399963,1.1799927-0.8399963c6.6000061,0,13.1999969,0,19.8000031-0.0100021
		c0.5700073,0,1.3200073,0.3000031,1.4100037-0.7600021c0.0299988-0.3899994,0.5399933-0.2300034,0.8300018-0.2300034
		c3.4799957,0,6.9600067,0.0100021,10.4400024,0.0199966C184.1799927,122.9300003,184.1900024,124.1600037,183.8200073,125.3399963z
		"></path>
	<path d="M183.2899933,221.0299988c-3.1999969,0.0099945-6.3899994,0.0299988-9.5899963,0.0399933
		c-0.4199982,0-0.7599945,0.0399933-0.7799988-0.5899963c-0.0200043-0.7400055-0.6699982-0.3999939-1.0200043-0.4100037
		c-6.3500061-0.0200043-12.7100067-0.0200043-19.0599976-0.0200043c-0.3999939,0-0.8000031-0.0099945-1.1999969,0
		c-0.5299988,0.0099945-1.0099945,0.0899963-1.0200043-0.75c-0.0099945-0.8000031,0.3399963-0.8999939,1.0099945-0.8899994
		c6.7100067,0.0200043,13.4300079,0,20.1399994,0.0299988c0.8099976,0,1.2899933-0.1499939,1.2700043-1.0299988
		l-0.0200043,0.0099945c3.4900055-0.0099945,6.9799957-0.0200043,10.4700012-0.0299988
		c0.1000061,0.0200043,0.1999969,0.0500031,0.3000031,0.0700073
		C183.6300049,218.6600037,183.4600067,219.8500061,183.2899933,221.0299988z"></path>
	<path d="M42.5699997,232.0399933c0.2999992,0.4900055,0.7799988,0.2799988,1.1800003,0.2899933
		c2.6800003,0.0200043,5.3600006,0,8.0400009,0.0200043c0.4300003,0,0.9599991-0.1999969,1.0200005,0.6100006
		c0.0499992,0.6799927,0.6899986,0.3800049,1.0600014,0.3800049c6.7200012,0.0200043,13.4300003,0.0099945,20.1500015,0.0200043
		c0.4599991,0,1.0400009-0.2400055,1.0899963,0.6600037C75.1699982,235,74.6699982,235,73.9599991,234.9900055
		c-6.5999985-0.0200043-13.1899986-0.0200043-19.7900009,0c-0.5600014,0-1.4199982-0.4199982-1.4700012,0.7899933
		c-0.0099983,0.3300018-0.6300011,0.1900024-0.9700012,0.1900024c-2.7200012,0.0099945-5.4399986,0.0099945-8.1599998,0.0099945
		c-0.4599991,0-0.9900017-0.1199951-1.0099983,0.6000061C42.3300018,235.0599976,42.3499985,233.5500031,42.5699997,232.0399933z"></path>
	<path d="M183.0800018,132.7299957c-3.0800018,0-6.1499939,0.0099945-9.2299957,0.0099945
		c-0.4100037,0-0.8699951,0.1300049-0.9499969-0.5700073c-0.0800018-0.75-0.7599945-0.4199982-1.1600037-0.4199982
		c-6.6699982-0.0200043-13.3399963-0.0200043-20.0099945-0.0200043c-0.5399933,0-1.0899963,0.1499939-1.1100006-0.7799988
		c-0.0200043-0.9900055,0.5599976-0.8500061,1.1600037-0.8500061c6.6300049,0,13.2599945,0.0099945,19.8899994-0.0099945
		c0.5399933,0,1.2400055,0.2599945,1.3399963-0.6999969c0.0299988-0.2599945,0.3899994-0.2200012,0.6199951-0.2200012
		c3.1600037,0,6.3099976,0,9.4700012,0.0200043c0.1499939,0,0.3000031,0.1100006,0.4400024,0.1600037
		C183.2700043,130.4700012,183.5800018,131.6600037,183.0800018,132.7299957z"></path>
	<path d="M52.7000008,217.4199982c-0.0200005,0.8699951,0.4199982,1.0500031,1.25,1.0399933
		c6.6800003-0.0399933,13.3599968-0.0200043,20.0400047-0.0200043c0.5100021,0,1.1100006-0.2299957,1.1399994,0.7400055
		s-0.4899979,0.8899994-1.1200027,0.8899994c-6.4800034-0.0099945-12.9599991,0-19.4400024,0c-0.4000015,0-0.7999992,0-1.2000008,0
		c-0.2000008,0-0.5200005-0.0099945-0.5200005,0.1699982c0,1.2700043-0.9500008,0.8099976-1.5499992,0.8200073
		c-2.920002,0.0299988-5.8400002-0.0099945-8.7599983-0.0200043c-0.0900002-1.2200012-0.1699982-2.4299927-0.2599983-3.6499939
		c0.0900002,0,0.1800003,0.0099945,0.2700005,0.0099945c3.3800011,0.0099945,6.75,0.0200043,10.1300011,0.0299988
		C52.6800003,217.4299927,52.7000008,217.4199982,52.7000008,217.4199982z"></path>
	<path d="M52.7700005,243.3399963c-3.4300003,0-6.8499985,0-10.2799988,0
		c0.2099991-1.1399994,0.1399994-2.3300018,0.4799995-3.4499969c3.0299988-0.0200043,6.0600014-0.0399933,9.0900002-0.0599976
		c0.1899986,0,0.5400009,0.0299988,0.5600014,0.1100006c0.2999992,1.3300018,1.3600006,0.7799988,2.0800018,0.7799988
		c6.4300003,0.0399933,12.8499985,0.0299988,19.2799988,0.0200043c0.6100006,0,1.1600037-0.1100006,1.1399994,0.8699951
		c-0.0199966,0.9499969-0.5999985,0.7599945-1.1200027,0.7599945c-6.7099991,0-13.4099998,0.0099945-20.1200027-0.0099945
		C53.1500015,242.3699951,52.6100006,242.3999939,52.7700005,243.3399963z"></path>
	<path d="M182.6900024,140.1199951c-3.1999969,0.1999969-6.4100037,0.0800018-9.6199951,0.0599976
		c-0.0700073-0.7799988-0.4799957-0.9799957-1.2599945-0.9700012c-6.6799927,0.0399933-13.3600006,0.0200043-20.0399933,0.0200043
		c-0.5700073,0-1.1900024,0.1999969-1.1699982-0.8200073c0.0099945-1.0299988,0.6699982-0.8000031,1.2100067-0.8000031
		c6.6000061-0.0099945,13.1999969,0,19.8000031-0.0099945c0.5800018,0,1.3300018,0.2799988,1.3899994-0.7799988
		c0.0200043-0.3300018,0.4600067-0.2299957,0.7200012-0.2299957c3.0399933,0.0099945,6.0800018,0.0299988,9.1100006,0.0500031
		C183.1000061,137.8099976,182.3800049,138.9400024,182.6900024,140.1199951z"></path>
	<path d="M173.0299988,165.8399963c3.2100067,0,6.4100037,0.0099945,9.6199951,0.0099945
		c-0.0599976,1.1699982,0.3899994,2.3399963-0.0299988,3.5099945c-2.9600067,0.0200043-5.9199982,0.0399933-8.8699951,0.0500031
		c-0.2299957,0-0.6399994-0.0299988-0.6600037-0.1199951c-0.25-1.2299957-1.2100067-0.7799988-1.8999939-0.7799988
		C164.75,168.4799957,158.3099976,168.5,151.8800049,168.4899902c-0.5700073,0-1.3000031,0.3000031-1.2799988-0.8300018
		c0.0200043-1.1499939,0.8000031-0.7799988,1.3399963-0.7799988c6.6000061-0.0200043,13.1999969-0.0299988,19.7900085,0.0099945
		C172.5500031,166.8800049,173.0200043,166.7200012,173.0299988,165.8399963z"></path>
	<path d="M182.5899963,184.2799988c-2.9499969,0.0099945-5.9100037,0.0299988-8.8600006,0.0299988
		c-0.2599945,0-0.6999969,0.1100006-0.7200012-0.2200012c-0.0599976-1.0599976-0.8200073-0.7700043-1.3899994-0.7700043
		c-6.6300049-0.0099945-13.2599945,0-19.8899994-0.0200043c-0.3999939,0-0.9900055,0.3000031-1.1000061-0.5099945
		c-0.1199951-0.9100037,0.3200073-1.0299988,1.1000061-1.0299988c6.0700073,0.0299988,12.1399994,0.0099945,18.2100067,0.0099945
		c0.6799927,0,1.3600006,0,2.0399933,0c0.4900055,0,0.9799957,0.0599976,0.9900055-0.6699982
		c0.0099945-0.3899994,0.3699951-0.3500061,0.6399994-0.3500061c2.9499969,0.0200043,5.8999939,0.0500031,8.8500061,0.0800018
		C182.8099976,181.9799957,182.6399994,183.1300049,182.5899963,184.2799988z"></path>
	<path d="M43.0200005,225c3.0400009-0.0200043,6.0699997-0.0500031,9.1100006-0.0700073
		c0.2299995,0,0.5999985-0.0299988,0.5999985,0.2400055C52.75,226.25,53.5299988,225.9499969,54.0900002,225.9499969
		c6.6399994,0.0099945,13.2800026,0.0099945,19.920002,0.0099945c0.5199966,0,1.1600037-0.1900024,1.1100006,0.7700043
		c-0.0299988,0.5700073-0.1900024,0.7899933-0.7600021,0.7599945c-0.5599976-0.0299988-1.1200027-0.0099945-1.6800003-0.0099945
		c-6.1999969,0-12.4000015-0.0099945-18.5999985,0.0099945c-0.5600014,0-1.3499985-0.3300018-1.3499985,0.7700043
		c0,0.2599945-0.3800011,0.2299957-0.6100006,0.2200012c-2.9599991-0.0200043-5.9099998-0.0500031-8.8699989-0.0700073
		C43.1899986,227.2700043,42.8199997,226.1499939,43.0200005,225z"></path>
	<path d="M182.5200043,191.5399933c-0.1100006,0.2700043-0.3500061,0.3000031-0.5899963,0.2899933
		c-2.9799957-0.0200043-5.9600067-0.0399933-8.9400024-0.0599976c0.0700073-0.8899994-0.4299927-0.9799957-1.1799927-0.9799957
		c-6.6699982,0.0299988-13.3500061,0.0200043-20.0200043,0.0099945c-0.5599976,0-1.1900024,0.2100067-1.1699982-0.8200073
		c0.0200043-1.0099945,0.6300049-0.8099976,1.1999969-0.8099976c6.5899963,0,13.1900024,0,19.7799988-0.0099945
		c0.5599976,0,1.3399963,0.3200073,1.3999939-0.75c0.0200043-0.3399963,0.4499969-0.2400055,0.7100067-0.2400055
		c2.8800049,0.0099945,5.75,0.0299988,8.6300049,0.0500031
		C182.3999939,189.3300018,182.4600067,190.4299927,182.5200043,191.5399933z"></path>
	<path d="M182.3600006,176.8800049c-2.8699951,0.0099945-5.75,0.0200043-8.6199951,0.0200043
		c-0.2599945,0-0.7299957,0.1199951-0.7299957-0.1900024c0.0200043-1.2200012-0.8600006-0.8000031-1.4299927-0.8000031
		c-6.5899963-0.0200043-13.1799927-0.0099945-19.7700043-0.0200043c-0.5599976,0-1.1900024,0.2100067-1.1900024-0.8099976
		c0-1.0099945,0.6300049-0.8099976,1.1900024-0.8099976c6.6699982,0,13.3399963,0,20-0.0099945
		c0.4700012,0,1.1799927,0.3200073,1.1499939-0.6900024c-0.0099945-0.4799957,0.4799957-0.3000031,0.7599945-0.3000031
		c2.8699951-0.0099945,5.75,0.0099945,8.6199951,0.0200043
		C182.3600006,174.4799957,182.3600006,175.6799927,182.3600006,176.8800049z"></path>
	<path d="M43.5,121.6999969c2.7999992-0.0100021,5.5999985-0.0100021,8.3899994-0.0100021
		c0.4199982,0,0.8699989-0.1200027,0.9199982,0.5899963c0.0400009,0.7099991,0.6800003,0.4000015,1.0400009,0.4000015
		c6.5200005,0.0199966,13.0299988,0.0100021,19.5499954,0.0100021c0.2399979,0,0.4800034,0.0100021,0.7200012,0
		c0.5400009-0.0199966,0.9899979-0.0599976,1,0.7699966c0.0100021,0.8300018-0.3600006,0.8799973-1.0100021,0.8799973
		c-6.6800003-0.0199966-13.3499985-0.0199966-20.0299988,0c-0.5400009,0-1.3499985-0.3600006-1.3600006,0.7600021
		c0,0.3099976-0.4599991,0.2200012-0.7200012,0.2200012c-2.7599983-0.0100021-5.5200005-0.0299988-8.2700005-0.0400009
		C43.7999992,124.0800018,43.2700005,122.9100037,43.5,121.6999969z"></path>
	<path d="M44.25,128.6100006c0.1300011,0.6100006,0.5900002,0.5800018,1.0600014,0.5700073
		c2.1599998-0.0099945,4.3100014-0.0099945,6.4700012,0c0.4199982,0,0.9500008-0.2100067,1.0499992,0.5899963
		c0.0800018,0.6100006,0.7299995,0.3099976,1.0999985,0.3099976c6.7099991,0.0200043,13.4199982,0.0099945,20.1200027,0.0200043
		c0.4700012,0,1.0299988-0.1999969,1.0699997,0.6799927c0.0400009,0.8800049-0.3600006,0.9499969-1.0599976,0.9499969
		c-6.6299973-0.0200043-13.2600021-0.0200043-19.8899994,0c-0.5699997,0-1.4199982-0.4100037-1.4599991,0.7799988
		c-0.0099983,0.3300018-0.5499992,0.2100067-0.8499985,0.2100067c-2.4000015,0.0099945-4.7900009,0-7.1899986,0
		C44.5400009,131.3600006,44.3899994,129.9900055,44.25,128.6100006z"></path>
	<path d="M52.6800003,140.1699982c-2.4799995,0.0099945-4.9599991,0.0299988-7.4300003,0.0399933
		c-0.2599983-1.1999969-0.1100006-2.3999939-0.0900002-3.6000061c2.2400017-0.0099945,4.4700012-0.0200043,6.7099991-0.0200043
		c0.2999992,0,0.8199997-0.1300049,0.8400002,0.2200012c0.0699997,1.1699982,0.9099998,0.7799988,1.4799995,0.7799988
		c6.4700012,0.0200043,12.9399986,0,19.4099998,0.0399933c0.5599976,0,1.5400009-0.5399933,1.5100021,0.8200073
		s-1.0199966,0.75-1.5599976,0.75C67,139.239975,60.4500046,139.239975,53.9000015,139.2099762
		C53.1300011,139.1999969,52.6800003,139.3399963,52.6800003,140.1699982z"></path>
	<path d="M45.2999992,165.8600006c2.4700012,0,4.9399986-0.0099945,7.4099998-0.0099945
		c-0.0200005,0.7799988,0.2799988,1.0399933,1.1300011,1.0399933c6.7099991-0.0399933,13.420002-0.0299988,20.1199989-0.0099945
		c0.4300003,0,1.0699997-0.3300018,1.1500015,0.5899963c0.0699997,0.8800049-0.2699966,1.0500031-1.0800018,1.0399933
		c-6.6699982-0.0299988-13.3400002-0.0200043-20-0.0099945c-0.5099983,0-1.2400017-0.3300018-1.3100014,0.6900024
		c-0.0200005,0.3200073-0.4599991,0.2200012-0.7299995,0.2200012c-2.1199989,0-4.2299995-0.0200043-6.3499985-0.0299988
		C45.2700005,168.2299957,45.3499985,167.0399933,45.2999992,165.8600006z"></path>
	<path d="M52.7700005,191.7700043c-2.3499985,0.0800018-4.7000008,0.1600037-7.0499992-0.0399933
		c-0.0200005-1.1699982-0.0499992-2.3399963-0.0699997-3.5200043c2.1199989-0.0099945,4.2299995-0.0299988,6.3499985-0.0399933
		c0.4099998,0,0.7799988-0.0399933,0.8100014,0.5800018c0.0400009,0.7200012,0.6699982,0.4100037,1.0299988,0.4199982
		c5.5099983,0.0200043,11.0300026,0.0099945,16.5400047,0.0099945c1.1600037,0,2.3199997-0.0099945,3.4800034,0.0099945
		c0.5800018,0.0099945,1.2900009-0.2700043,1.2699966,0.8500061c-0.0199966,1.0599976-0.6999969,0.7700043-1.2200012,0.7700043
		c-5.7099991,0.0099945-11.4300003,0.0099945-17.1399994,0.0099945c-1,0-2,0.0500031-3-0.0200043
		C52.9900017,190.7400055,52.6500015,190.9799957,52.7700005,191.7700043z"></path>
	<path d="M145.1499939,285.8099976c1.3099976-0.0499878,2.6199951-0.0700073,3.9299927-0.1499939
		c0.6199951-0.0299988,1.3699951,0.269989,1.7299957-0.6400146c0.0599976-0.1499939,0.6699982-0.1000061,1.0200043-0.1000061
		c6.5899963,0,13.1699982,0.0100098,19.7599945,0c0.5599976,0,1.3399963,0.2799988,1.4100037-0.769989
		c0.0200043-0.3399963,0.4499969-0.2399902,0.7100067-0.2399902c2.6699982,0.019989,5.3399963,0.0499878,8.0099945,0.0799866
		c-3.9199982,0.7900085-7.8999939,1.0400085-11.8800049,1.2600098
		C161.6100006,285.7200012,153.3800049,285.8200073,145.1499939,285.8099976z"></path>
	<path d="M173.0599976,268.9700012c2.0200043-0.25,4.0500031-0.0799866,6.0700073-0.1000061
		c2.4700012-0.0299988,4.9299927,0,7.3999939,0.0100098c0.0200043,0.0599976,0.0399933,0.1199951,0.0599976,0.1799927
		c-4.5099945,0-9.0200043,0.0100098-13.5299988,0.0100098l-0.0399933-0.0499878L173.0599976,268.9700012z"></path>
	<path d="M40.9799995,268.8800049c3.9300003,0.0100098,7.8600006-0.1400146,11.7900009,0.0799866
		l0.0200005,0.0799866l-0.0600014,0.0499878c-3.9300003-0.0100098-7.8600006-0.019989-11.7900009-0.0299988
		C40.9399986,268.9899902,40.9599991,268.9400024,40.9799995,268.8800049z"></path>
	<path d="M182.2799988,283.8800049c0.2200012-0.1099854,0.4499969-0.1900024,0.6900024-0.1099854
		C182.7599945,283.9599915,182.5200043,283.9200134,182.2799988,283.8800049z"></path>
	<path d="M194.8200073,66.2300034C187.8300018,66.2400055,180.8400116,66.25,173.8500061,66.25
		c-0.4199982,0-0.8699951,0.1299973-0.9199982-0.5800018c-0.0500031-0.6900024-0.6699982-0.4100037-1.0500031-0.4100037
		c-5.0700073-0.0199966-10.1499939-0.0100021-15.2200012-0.0100021c-1.6799927,0-3.3600006-0.0199966-5.0299988,0.0100021
		c-0.6699982,0.0100021-1.0099945-0.0899963-1.0099945-0.9000015c0.0099945-0.8300018,0.4900055-0.75,1.0200043-0.75
		c6.6300049,0,13.2599945-0.0099983,19.8899994,0.0200005c0.7799988,0,1.3600006-0.0900002,1.5299988-0.9599991
		c7.0200043-0.0099983,14.0500031-0.0099983,21.0699921-0.0600014c0.8099976-0.0099983,0.9600067,0.3499985,0.9100037,1
		C194.9799957,64.4899979,194.8999939,65.3600006,194.8200073,66.2300034z"></path>
	<path d="M194.6199951,73.6500015c-6.8800049,0-13.7599945,0.0100021-20.6399994,0.0100021
		c-0.4400024,0-0.9400024,0.1800003-1.0800018-0.5699997c-0.1100006-0.6100006-0.7299957-0.3300018-1.1199951-0.3300018
		c-6.6799927-0.0199966-13.3600006-0.0100021-20.0400085-0.0199966c-0.5299988,0-1.1000061,0.1900024-1.1199951-0.7600021
		c-0.0099945-0.9800034,0.5500031-0.8700027,1.1600037-0.8700027c6.6399994,0,13.2799988,0,19.9199982,0
		c0.5500031,0,1.2299957,0.2300034,1.3000031-0.75c0.0299988-0.4000015,0.5299988-0.25,0.8200073-0.25
		c7,0,14,0.0100021,21,0.0199966C194.8399963,71.3099976,194.9700012,72.5,194.6199951,73.6500015z"></path>
	<path d="M193.3500061,81.1500015c-6.4700012,0-12.9499969,0.0100021-19.4199982,0.0100021
		c-0.4499969,0-0.9400024,0.1399994-1.0200043-0.6299973c-0.0700073-0.6399994-0.6999969-0.3600006-1.0800018-0.3700027
		c-6.7100067-0.0199966-13.4300079-0.0100021-20.1399994-0.0100021c-0.5800018,0-1.0700073,0.0800018-1.0800018-0.8099976
		c-0.0099945-1.0100021,0.6199951-0.8199997,1.1900024-0.8199997c6.6300049,0,13.2700043,0,19.8999939-0.0100021
		c0.5299988,0,1.2599945,0.2900009,1.2899933-0.7200012c0.0099945-0.3799973,0.4299927-0.2699966,0.6799927-0.2699966
		c6.8300018,0.0100021,13.6600037,0.0199966,20.5,0.0400009C194.1100006,78.8000031,193.8300018,80,193.3500061,81.1500015z"></path>
	<path d="M32.7099991,70.1299973C39.1100006,70.1199951,45.5,70.1100006,51.9000015,70.1100006
		c0.4199982,0,0.8699989-0.1100006,0.9099998,0.5999985c0.0499992,0.6900024,0.6800003,0.4000015,1.0499992,0.4000015
		c6.1599998,0.0199966,12.3099976,0.0100021,18.4700012,0.0100021c0.5999985,0,1.1999969,0.0100021,1.8000031,0
		c0.5400009-0.0100021,0.9899979-0.0500031,1,0.7699966c0.0100021,0.8399963-0.3899994,0.8700027-1.0199966,0.8600006
		c-6.5999985-0.0100021-13.1899986-0.0199966-19.7900009,0.0100021c-0.5900002,0-1.4900017-0.4700012-1.6399994,0.75
		c-0.0299988,0.2600021-0.5800018,0.1500015-0.8899994,0.1500015c-6.3199997,0-12.6300011,0-18.9500008-0.0100021
		C32.5499992,72.4899979,32.6300011,71.3099976,32.7099991,70.1299973z"></path>
	<path d="M33.4500008,77.5800018c4.5099983-0.0199966,9.0200005-0.0500031,13.5400009-0.0699997
		c1.4399986-0.0100021,2.8800011-0.0400009,4.3100014,0.0199966c0.5999985,0.0199966,1.4900017-0.4400024,1.5800018,0.8199997
		c0.0200005,0.3300018,0.7200012,0.1699982,1.0999985,0.1699982c6.6699982,0.0100021,13.340004,0,20.0100021,0.0199966
		c0.4300003,0,1.0599976-0.3000031,1.1299973,0.6100006c0.0699997,0.9199982-0.3399963,1.0199966-1.1100006,1.0199966
		C67.340004,80.1399918,60.670002,80.1499939,54,80.1599884c-0.5200005,0-1.2200012-0.3199997-1.2700005,0.7300034
		c-0.0299988,0.4800034-0.6699982,0.2600021-1.0299988,0.2600021c-5.5499992,0.0199966-11.1100006,0.0100021-16.6599998,0.0100021
		C34.3100014,80.0599976,33.7799988,78.8600006,33.4500008,77.5800018z"></path>
	<path d="M52.5699997,62.6800003c0.1699982,0.7400017,0.5900002,0.9700012,1.3899994,0.9599991
		c6.4700012-0.0499992,12.9400024-0.0499992,19.409996,0.0099983c0.5800018,0.0099983,1.7600021-0.7099991,1.7200012,0.8100014
		c-0.0400009,1.5100021-1.1999969,0.7399979-1.7799988,0.75C66.8399963,65.2699966,60.3699989,65.25,53.8999977,65.25
		c-0.5099983,0-1.1500015-0.2300034-1.1599998,0.7099991c-0.0099983,0.4400024-0.5,0.2900009-0.7900009,0.2900009
		c-6.3499985,0-12.7000008-0.0199966-19.0499992-0.0299988c-0.1500015-1.0899963,0.1500015-2.1999969-0.1899986-3.3600006
		c3.6899986,0,7.3100014,0,10.9300003,0c2.5099983,0,5.0200005,0,7.5299988,0
		C51.6500015,62.8699989,52.1300011,62.9199982,52.5699997,62.6800003z"></path>
	<path d="M190.2200012,88.6100006c-5.4700012,0.0100021-10.9400024,0.0199966-16.4199982,0.0299988
		c-0.4600067,0-0.8500061,0.0199966-0.8999939-0.6399994c-0.0500031-0.6999969-0.6699982-0.4199982-1.0399933-0.4199982
		c-4.4299927-0.0199966-8.8699951-0.0100021-13.3000031-0.0100021c-2.1999969,0-4.3899994,0.0199966-6.5899963-0.0100021
		c-0.5399933-0.0100021-1.3200073,0.3700027-1.3399963-0.7799988c-0.0200043-1.2399979,0.8399963-0.8199997,1.3999939-0.8300018
		c6.5099945-0.0199966,13.0200043-0.0100021,19.5299988-0.0299988c0.5500031,0,1.2899933,0.3300018,1.4700012-0.6999969
		c0.0700073-0.3899994,0.6300049-0.2099991,0.9700012-0.2099991c5.9900055-0.0100021,11.9799957,0,17.9799957,0
		C191.75,86.3899994,191.1499939,87.5800018,190.2200012,88.6100006z"></path>
	<path d="M36.4700012,85.0500031c5.1899986-0.0100021,10.3899994-0.0299988,15.5800018-0.0400009
		c0.1899986,0,0.5400009,0.0199966,0.5600014,0.0999985c0.3699989,1.4400024,1.5299988,0.7900009,2.3100014,0.7900009
		c6.3499985,0.0500031,12.7099991,0.0299988,19.0599976,0.0299988c0.6100006,0,1.1600037-0.1200027,1.1399994,0.8700027
		C75.1000061,87.75,74.5200043,87.5600052,74,87.5600052c-6.6699982,0.0100021-13.3499985,0-20.0200005,0.0100021
		c-0.5299988,0-1.25-0.2799988-1.25,0.75c0,0.4300003-0.4900017,0.3000031-0.7799988,0.3000031
		c-4.5999985,0-9.1899986-0.0100021-13.7900009-0.0199966C37.1800003,87.6200027,36.9700012,86.2699966,36.4700012,85.0500031z"></path>
	<path d="M184.6199951,117.7699966c-3.6699982,0.0199966-7.3500061,0.0400009-11.0200043,0.0500031
		c-0.1900024,0-0.5299988-0.0599976-0.5399933-0.1299973c-0.1900024-1.3300018-1.2200012-0.8499985-1.9400024-0.8600006
		c-6.4700012-0.0299988-12.9400024-0.0199966-19.4100037-0.0199966c-0.5399933,0-1.1499939,0.1600037-1.1000061-0.7799988
		c0.0299988-0.5599976,0.1799927-0.8199997,0.7599945-0.7600021c0.2799988,0.0299988,0.5599976,0,0.8399963,0
		c6.5099945,0,13.0200043-0.0199966,19.5299988,0.0199966c0.8300018,0,1.2700043-0.1900024,1.2899933-1.0500031
		c3.7100067-0.0100021,7.4299927-0.0100021,11.1399994-0.0500031c0.6499939-0.0100021,0.8399963,0.1900024,0.7400055,0.8300018
		C184.7599945,115.9499969,184.7100067,116.8600006,184.6199951,117.7699966z"></path>
	<path d="M52.7099991,114.2600021c-0.0499992,0.9000015,0.4199982,1.0500031,1.2400017,1.0500031
		c6.6800003-0.0400009,13.3500023-0.0299988,20.0300026-0.0100021c0.4300003,0,1.0599976-0.3199997,1.1299973,0.6100006
		s-0.4199982,0.9199982-1.0800018,0.9199982c-4.3600006-0.0100021-8.7099991-0.0100021-13.0699997-0.0100021
		c-2.4000015,0-4.7999992-0.0100021-7.2000008,0.0100021c-0.4300003,0-1.0299988-0.2099991-0.9900017,0.6100006
		c0.0200005,0.3099976-0.2400017,0.3899994-0.4900017,0.3799973c-3.0699997-0.0699997-6.1399994,0.1600037-9.2099991-0.1200027
		c-0.0400009-0.3600006-0.0800018-0.7099991-0.1199989-1.0599976c-0.2299995-2.4199982-0.2299995-2.4300003,2.2700005-2.4199982
		C47.7200012,114.2300034,50.2200012,114.25,52.7099991,114.2600021z"></path>
	<path d="M54.1899986,34.2999992c6.5999985,0.0200005,13.1899986,0.0299988,19.7899971,0.0600014
		c0.4300003,0,1.0599976-0.3100014,1.1299973,0.6100006C75.1799927,35.8899994,74.7799911,36,73.9999924,35.9900017
		c-6.7200012-0.0299988-13.4300003-0.0099983-20.1500015-0.0200005c-0.5900002,0-1.3100014-0.1599998-1.0299988,0.8699989
		c-2.6500015,0.2900009-5.3100014,0.0400009-8-0.0900002C47.9500008,35.9399986,51.0699997,35.1199989,54.1899986,34.2999992z"></path>
	<path d="M172.9199982,36.8600006c0.2599945-1.0099983-0.4299927-0.8800011-1.0399933-0.8800011
		c-6.7200012,0-13.4400024-0.0099983-20.1600037,0.0200005c-0.8000031,0-1.1600037-0.1599998-1.0899963-1.0400009
		c0.0800018-0.9000015,0.7200012-0.5900002,1.1600037-0.5900002c6.1600037-0.0200005,12.3200073-0.0099983,18.4799957-0.0200005
		c0.4799957,0,0.9600067-0.0299988,1.4400024-0.0499992c2.8500061,0.8100014,5.7100067,1.6199989,8.5599976,2.4300003
		C177.8000031,36.9099998,175.3600006,37.1199989,172.9199982,36.8600006z"></path>
	<path d="M157.8200073,28.5c-2.1799927,0.0300007-4.3600006,0.0300007-6.5299988,0.0900002
		c-0.6699982,0.0200005-0.6600037-0.3600006-0.6600037-0.8299999c-0.0099945-0.4899998,0.0399933-0.8400002,0.6900024-0.8299999
		c1.1100006,0.0200005,2.2200012-0.0300007,3.3200073-0.0499992C155.7599945,27.3099995,156.7799988,27.9099998,157.8200073,28.5z"></path>
	<path d="M72.2099991,26.8899994c0.6699982,0.0200005,1.3499985,0.0799999,2.0199966,0.0499992
		c0.6600037-0.0300007,0.9000015,0.1700001,0.8899994,0.8700008c-0.0100021,0.6700001-0.2699966,0.7999992-0.8499985,0.7800007
		c-1.7799988-0.0499992-3.5699997-0.0599995-5.3499985-0.0799999
		C69.9700012,27.8899994,71.0500031,27.3099995,72.2099991,26.8899994z"></path>
	<path d="M173.0299988,217.4400024c1.2899933-0.3399963,2.6100006-0.1399994,3.9199982-0.1300049
		c2.1900024,0.0099945,4.3800049-0.1699982,6.5599976,0.1000061
		C180.0099945,217.4199982,176.5200043,217.4299927,173.0299988,217.4400024z"></path>
	<path d="M42.5600014,217.3999939c3.3800011-0.1600037,6.75-0.2299957,10.1300011,0.0299988
		C49.3100014,217.4199982,45.9300003,217.4100037,42.5600014,217.3999939z"></path>
</g>
</svg>
