<!--?xml version="1.0" encoding="utf-8"?-->
<!-- Generator: Adobe Illustrator 24.2.3, SVG Export Plug-In . SVG Version: 6.00 Build 0)  -->
<svg version="1.1" id="Camada_1" xmlns="http://www.w3.org/2000/svg" xmlns:xlink="http://www.w3.org/1999/xlink" x="0px" y="0px" viewBox="0 0 229 418" style="enable-background:new 0 0 229 418;" xml:space="preserve">
<style type="text/css">
	.st0{fill:#1F49C1;}
	.st1{fill:#FB0101;}
	.st2{fill:#F802E2;}
	.st3{fill:#00FC07;}
	.st4{fill:#ABF883;}
	.st5{fill:#2A3CBE;}
	.st6{fill:#354AC1;}
	.st7{fill:#B82C21;}
	.st8{fill:#A036CE;}
</style>
<g onclick="select(this)" class="" id="gola-secundaria" fill="#bf0811">
	<path d="M116.8,49c-0.8,0.2-1.6,0.8-2.5,0.6c-0.2-0.8,0-1.6,0.2-2.3c0.9-3.6,2.6-6.9,4.5-10.1
		c4.1-4.3,8.1-8.6,12.2-12.8c3.1-3.1,5.7-6.6,7.9-10.4c0.8-1.4,1.8-2.7,2.1-4.4c0.8-1.3,1-2.7,1-4.1c0-1-0.5-1.7-1.4-2
		c-1.1-0.4-2.2-0.6-3.3-0.6c-15.7,0-31.3,0-47,0c-1.2,0-2.4,0.2-3.5,0.7c-0.7,0.3-1.2,0.8-1.2,1.6c0,1.4,0.1,2.9,0.8,4.2
		c0,0.6,0.3,1.1,0.6,1.6c2.4,4.4,5.1,8.7,8.6,12.4c4.4,4.6,8.9,9.1,13.2,13.9c2.2,3.3,3.9,6.9,4.8,10.8c0.1,0.6,0.2,1.1,0,1.7
		c-0.8,0.1-1.5-0.1-2.2-0.5c-0.1-0.1-0.2-0.2-0.3-0.2c0,0,0,0,0,0c-1-4.6-2.9-8.8-6.2-12.2c-2.7-2.9-5.4-5.8-8.2-8.6
		c-3.8-3.9-7.4-8-10.2-12.8c-2-3.3-3.5-6.8-3.5-10.8c0.4-2,2.3-3.5,4.8-3.8c1.3-0.2,2.6-0.3,3.9-0.3c14.8,0,29.5,0,44.3,0
		c1.7,0,3.4,0.1,5,0.5c1.5,0.4,2.7,1.2,3.3,2.6c0.8,2.8-0.1,5.5-1.2,8c-1.9,4.2-4.4,8.1-7.5,11.5c-4.1,4.5-8.4,8.9-12.6,13.3
		C119.9,40,117.8,44.2,116.8,49z"></path>
</g>
<g onclick="select(this)" class="" id="detalhe-punho" fill="#ffffff">
	<path d="M43.8,120.6c-1.4,1-3.1,1.2-4.8,1.5c-6.7,0.9-13.5,0.7-20.2,0.2c-5.1-0.4-10.1-1.3-15-2.7
		c-1.1-0.3-2.1-0.8-3.1-1.2c0-1.1,0-2.2,0-3.4c0.5-1,0.4-2.2,0.7-3.2c0.1-0.6,0.1-1.2,0.5-1.7c0.5,0.4,1.1,0.7,1.7,0.8
		c1.7,0.4,3.4,0.9,5.1,1.2c3.7,0.7,7.3,1.9,11.2,2c1.9,0.1,3.7,0.2,5.6,0.3c3.7,0.3,7.4,0.1,11.1,0.2c1.9,0,3.7-0.5,5.5-1.2
		c0.4-0.2,0.7-0.3,0.8,0.3C43.3,115.9,43.8,118.2,43.8,120.6z"></path>
	<path d="M185.1,120.3c-0.2-2.2,0.4-4.4,0.7-6.5c0.1-0.6,0.3-0.7,0.9-0.6c5.6,1.2,11.4,0.9,17.1,0.7
		c8.1-0.4,15.9-2.4,23.6-5c0.3-0.1,0.6-0.3,0.9-0.5c0.8,1.2,0.6,2.7,0.9,4c0.2,0.8,0.1,1.7,0.2,2.5c0.2,1.3-0.5,1.9-1.6,2.2
		c-5.8,1.9-11.6,3.3-17.6,4.3c-5.5,0.8-10.9,0.7-16.4,0.7c-2.5,0-4.9-0.3-7.3-0.9C186,121,185.4,120.8,185.1,120.3z"></path>
</g>
<g onclick="select(this)" class="" id="gola-terciaria" fill="#ffffff">
	<path d="M113.8,49.6c0.1-0.6,0.1-1.1,0-1.7c-0.9-3.9-2.6-7.5-4.8-10.8c3.4,0,6.7,0,10.1,0c-2,3.1-3.6,6.5-4.5,10.1
		c-0.2,0.8-0.5,1.5-0.2,2.3C114.2,49.6,114,49.6,113.8,49.6z"></path>
</g>
<path d="M111.3,48.9c0.2,0,0.3,0.1,0.3,0.2C111.5,49.1,111.3,49.2,111.3,48.9z"></path>
<g onclick="select(this)" class="" id="estampa-primaria" fill="#082890">
	<path d="M43.8,120.6c0-2.4-0.5-4.7-1-7c-0.1-0.5-0.4-0.4-0.8-0.3c-1.8,0.7-3.5,1.2-5.5,1.2c-3.7,0-7.4,0.1-11.1-0.2
		c-1.9-0.1-3.7-0.3-5.6-0.3c-3.8-0.1-7.4-1.3-11.2-2c-1.7-0.3-3.4-0.8-5.1-1.2c-0.6-0.2-1.2-0.4-1.7-0.8c1.8-9.5,2.7-19.1,4.2-28.6
		C6.9,76.3,7.2,71.1,8.3,66c1.8-8.2,4.5-16,9.6-22.8c2-2.7,4.3-5.2,7-7.4c1.4-1.1,2.5-2.7,4.1-3.5c3.6-1.9,7.3-3.7,11-5.3
		C50.1,23,60,18.9,69.5,13.7c2-1.1,4.1-2.1,5.6-4c0.9-1,2.1-1.8,3.7-1.4c-2,1.2-2.4,2.2-2,4.5c0.4,2.3,1.5,4.3,2.8,6.2
		c5.6,8.3,11.9,15.8,19.2,22.6c3.1,2.9,6.5,5.2,10.4,6.7c0.7,0.3,1.4,0.8,2.2,0.7l0,0c0,0.2,0.2,0.2,0.3,0.2
		c0.7,0.3,1.4,0.6,2.2,0.5c0.2,0,0.3,0,0.5,0c0.9,0.3,1.7-0.4,2.5-0.6c0.9-0.3,1.8-0.7,2.7-1c5.3-1.9,9.2-5.7,13.1-9.5
		c6-5.7,11-12.2,15.8-19c1.5-2.1,2.8-4.4,3.3-7c0.4-1.8-0.1-3.2-1.6-4.2c1.7,0,2.8,1,3.8,2.2c0.3,0.4,0.7,0.7,1.1,1
		c10,6.5,21.2,10.6,32.2,15.2c4,1.7,7.9,3.4,11.7,5.3c2.2,1.1,3.9,3,5.8,4.6c7.7,6.5,12.3,15,14.9,24.6c1.1,4,1.9,8,2.4,12.1
		c0.6,5.6,2.1,10.9,3.2,16.3c1.3,6.2,2.1,12.4,3.1,18.7c-0.3,0.2-0.6,0.4-0.9,0.5c-7.6,2.6-15.5,4.6-23.6,5
		c-5.7,0.3-11.4,0.5-17.1-0.7c-0.6-0.1-0.8,0-0.9,0.6c-0.4,2.2-1,4.3-0.7,6.5c-0.4,0.8-0.3,1.7-0.4,2.6c-1,8.4-1.7,16.8-1.7,25.2
		c0,2.2,0.1,4.4,0.5,6.6c0.4,1.9,0,3.8-0.2,5.7c-0.2,2.1-0.2,4.2-0.1,6.3c0.1,2.2-0.1,4.3-0.2,6.5c-0.1,2.8-0.1,5.7,0.1,8.5
		c0.1,1.7,0.1,3.4-0.1,5c-0.3,3.1,0.2,6.1,0.9,9.1c1.6,7.2,1.4,14.5,0.3,21.8c-0.3,2.1-0.4,4.2,0.3,6.4c1.8,5.4,1.8,11,0.9,16.6
		c-0.2,1.5-0.2,2.9,0.1,4.4c0.9,3.8,0.4,7.6,0.6,11.5c0.3,5.9,0.7,11.9,1.4,17.8c0.3,2,0.2,4.1,0.3,6.1c0,1.8-0.3,2.3-2.1,2.9
		c-3,0.9-6.1,1.2-9.2,1.5c-7.7,0.8-15.4,0.9-23.1,1c-11.2,0.2-22.5,0.7-33.7,0.8c-12.5,0.2-24.9-0.8-37.4-0.8
		c-8.4,0-16.8-0.1-25.2-0.7c-4.1-0.3-8.3-0.8-12.4-1.7c-0.2,0-0.4-0.1-0.6-0.1c-3.2-0.8-3.6-1.2-3.4-4.5c0.5-7.8,1-15.5,1.6-23.3
		c0.1-2,0.3-4.1,0.2-6.1c0-1.8,0-3.6,0.4-5.4c0.4-2.3,0.5-4.5,0.1-6.8c-0.3-1.8-0.3-3.7,0.1-5.5c0.7-2.7,0.4-5.5,0.2-8.2
		c-0.3-3.5-0.7-7-0.6-10.5c0.2-4.3,1.2-8.4,2.6-12.4c0.4-1.1,0.7-2.1,0.5-3.3c-0.2-1.2-0.2-2.5,0.1-3.7c0.3-1.6,0.2-3.2,0.1-4.9
		c-0.2-3.3-0.2-6.6-0.2-9.9c-0.1-12.9,0-25.9-0.1-38.8c0-5.1-1-10.2-1.5-15.3C44.1,123.3,43.9,121.9,43.8,120.6z"></path>
	<path d="M119.1,37.2c-3.4,0-6.7,0-10.1,0c-4.2-4.8-8.8-9.3-13.2-13.9c-3.5-3.7-6.2-7.9-8.6-12.4c-0.3-0.5-0.5-1-0.6-1.6
		c3.1,0.3,6.1,0.6,9.2,0.8c8.4,0.6,16.7,1.4,25.1,0.8c6.8-0.5,13.5-0.9,20.3-1.4c-0.3,1.6-1.3,3-2.1,4.4c-2.2,3.8-4.8,7.2-7.9,10.4
		C127.2,28.6,123.2,32.9,119.1,37.2z"></path>
</g>
<g onclick="select(this)" class="" id="gola-primaria" fill="#082890">
	<path d="M116.8,49c1-4.8,3.1-9,6.5-12.6c4.2-4.5,8.4-8.8,12.6-13.3c3.1-3.4,5.6-7.3,7.5-11.5c1.2-2.5,2-5.1,1.2-8
		c1,0.6,1.6,1.6,2.4,2.4c1,0.9,1.8,1.9,3,2.4c1.6,1.1,2,2.4,1.6,4.2c-0.5,2.6-1.8,4.9-3.3,7c-4.7,6.7-9.8,13.2-15.8,19
		c-3.9,3.8-7.9,7.5-13.1,9.5C118.6,48.4,117.7,48.7,116.8,49z"></path>
	<path d="M83.2,4.5c0,4,1.6,7.4,3.5,10.8c2.8,4.8,6.4,8.9,10.2,12.8c2.8,2.8,5.5,5.7,8.2,8.6c3.2,3.5,5.2,7.6,6.2,12.2
		c-0.8,0.1-1.5-0.4-2.2-0.7c-3.9-1.5-7.3-3.8-10.4-6.7c-7.3-6.8-13.6-14.3-19.2-22.6c-1.3-1.9-2.3-3.9-2.8-6.2c-0.4-2.2,0-3.3,2-4.5
		c1.2-0.5,2-1.6,3-2.5C82.2,5.4,82.5,4.8,83.2,4.5z"></path>
	<path d="M141.3,9.6c-6.8,0.5-13.5,0.9-20.3,1.4c-8.4,0.6-16.7-0.2-25.1-0.8c-3.1-0.2-6.1-0.5-9.2-0.8
		C86,8,85.8,6.6,85.9,5.2c0-0.8,0.5-1.3,1.2-1.6c1.1-0.5,2.3-0.7,3.5-0.7c15.7,0,31.3,0,47,0c1.1,0,2.2,0.2,3.3,0.6
		c0.9,0.3,1.4,1,1.4,2C142.3,6.9,142,8.3,141.3,9.6z"></path>
</g>
<path d="M43.1,220.6c0,0.2,0,0.3,0,0.5C43,220.9,43,220.7,43.1,220.6z"></path>
<g onclick="select(this)" class="" id="estampa-terciaria" fill="#bf0811">
	<path d="M43,244.3c6.5,0.1,13.1,0.1,19.7,0.2c4.1,0.1,8.2,0.1,12.3,0.2c9.1,0.1,18.2,0,27.2,0.4
		c5.6,0.2,11.2,0,16.9,0.3c-0.5,0.4-1,0.3-1.5,0.3c-6,0-12.1,0-18.1,0.1c-6.8,0.1-13.7,0.1-20.5,0.2c-10.1,0.2-20.1,0.2-30.2,0.3
		c-2,0-4.1,0.2-6.1,0.1C42.7,245.6,42.6,244.9,43,244.3z"></path>
	<path d="M183.1,163.3c-8.6-0.1-17.2-0.3-25.8-0.4c-2.7,0-5.4-0.1-8.1-0.1c-7.1-0.1-14.2-0.1-21.3-0.2
		c-0.8,0-1.6-0.1-2.4-0.2c3.8-0.3,7.6-0.3,11.4-0.4c7.6-0.1,15.1-0.2,22.6-0.3c6-0.1,12.1-0.2,18.1-0.3c1.9,0,3.8-0.2,5.6-0.1
		C183.1,162.1,183.1,162.7,183.1,163.3z"></path>
	<path d="M46.1,193.5c5.7,0.1,11.3,0,17,0.2c4.1,0.1,8.1,0.1,12.2,0.2c6.2,0.2,12.4,0.2,18.6,0.3c0.7,0,1.4,0.2,2.2,0.4
		c-0.4,0.3-0.7,0.2-1,0.2c-7.2,0.1-14.3,0-21.5,0.2c-5.3,0.1-10.6,0.1-15.9,0.2c-4,0.1-7.9,0.1-11.8,0.2
		C45.8,194.6,45.8,194,46.1,193.5z"></path>
	<path d="M185.9,231.4c-9.2-0.1-18.5-0.3-27.7-0.4c-1.8,0-3.7,0.1-5.5-0.1c-1.7-0.3-3.3-0.4-5-0.6c3.3,0,6.5,0,9.8,0
		c5.3-0.1,10.6-0.2,15.9-0.3c4.1-0.1,8.1-0.2,12.2-0.3C185.9,230.2,185.9,230.8,185.9,231.4z"></path>
	<path d="M186.1,255.4c-6.8-0.2-13.6-0.4-19.8-0.5c0.9,0.1,2.4-0.1,3.9-0.4c1-0.1,2.1-0.2,3.1-0.2
		c4.3-0.2,8.6-0.3,12.9-0.4C186.2,254.4,186.2,254.9,186.1,255.4z"></path>
	<path d="M45.8,152.5c3.2,0.1,6.5,0.2,9.7,0.4c0,0.1,0,0.3,0,0.4c-3.2,0.1-6.5,0.2-9.7,0.3
		C45.7,153.1,45.7,152.8,45.8,152.5z"></path>
	<path d="M115.8,110.4c-5.6,0-11.2,0-16.8,0c-3.5,0-6.9,0.1-10.4,0.1c-8.3,0.1-16.7,0.1-25.1,0.2
		c-6.6,0.1-13.3,0.2-19.9,0.3c-1.1,0-1-0.6-1.1-1.3c-0.1-0.9,0.5-0.8,1-0.8c8.9,0.2,17.8,0.3,26.7,0.5c2.6,0,5.2,0.1,7.8,0.1
		c9.2,0.1,18.5,0.2,27.7,0.3c2.4,0,4.8,0.1,7.2,0.1c1,0,1.9,0.4,2.8,0.2C115.8,110.2,115.8,110.3,115.8,110.4z"></path>
	<path d="M144.2,69.9c2.4-0.8,4.8-0.4,7.2-0.5c5.9-0.2,11.9-0.2,17.9-0.3c4.9-0.1,9.8-0.2,14.7-0.3
		c3.6-0.1,7.1-0.2,10.6-0.3c0.8,0,0.8,0.4,0.7,0.9c-0.1,0.6,0.4,1.6-0.9,1.5c-2.2-0.2-4.5-0.1-6.7-0.1c-2.4,0-4.8-0.1-7.2-0.2
		c-5.6-0.1-11.1-0.2-16.6-0.2c-6.6,0-13.2,0-19.8,0C144.2,70.2,144.2,70.1,144.2,69.9z"></path>
	<path d="M63,60.3C54,61.3,45.1,61,36.3,61.4c-0.8,0-1.7,0.1-2.5,0.1c-1.5,0-0.5-1.1-0.7-1.7c-0.2-0.7,0.3-0.8,0.8-0.7
		c6.3,0.5,12.6,0.7,19,0.8C56.2,60,59.5,60.1,63,60.3z"></path>
</g>
<g onclick="select(this)" class="" id="estampa-secundaria" fill="#ffffff">
	<path d="M187.7,276.5c0.1,0.9-0.3,1.1-1.2,1.1c-6.2-0.1-12.3,0-18.5-0.1c-7-0.2-14-0.1-21-0.2
		c-10.4-0.2-20.8-0.2-31.2-0.3c-1.4,0-2.8-0.4-4.3-0.2c1.9-0.4,3.7,0.3,5.6,0.1c1.3-0.1,2.7,0.1,3.9,0c5.7-0.9,11.5-0.3,17.2-0.6
		c2.5-0.1,5.1,0,7.7-0.1c4.1-0.1,8.1-0.1,12.2-0.1c7.5-0.1,14.9-0.2,22.4-0.4c1.9,0,3.8,0,5.8-0.1c0.4,0,0.9,0,1.1,0.5
		C187.7,276.2,187.7,276.4,187.7,276.5z"></path>
	<path d="M43.2,220.2c3.1,0.1,6.2,0.3,9.3,0.3c5.5,0.1,11.1,0.2,16.6,0.3c0.4,0,0.8,0.1,1.1,0.6c-1.3,0-2.7,0-4,0
		c-7.2,0.1-14.4,0.2-21.5,0.3c-0.5,0-1-0.1-1.4-0.1c0-0.2-0.1-0.4-0.1-0.7c0-0.2,0-0.3,0-0.5C43.2,220.4,43.2,220.3,43.2,220.2z"></path>
	<path d="M182.9,186.6c-5.5-0.1-10.9-0.2-16.4-0.4c5.5-0.8,11-0.7,16.5-0.9C183.1,185.8,183.2,186.2,182.9,186.6z"></path>
	<path d="M183,150.8c-2.9-0.1-5.9-0.1-8.8-0.2c-1.6-0.1-3.3,0.2-5.1-0.5c4.7-0.2,9.3-0.3,13.8-0.5
		C183.1,150,183,150.4,183,150.8z"></path>
	<path d="M45.2,131.7c3.2,0.1,6.3,0.2,9.4,0.3c0.2,0,0.5-0.1,0.5,0.3c0,0.3-0.3,0.3-0.5,0.3c-1.3,0.1-2.5,0.1-3.8,0.1
		c-1.8,0-3.7,0-5.5,0.1C45.1,132.4,45.1,132,45.2,131.7z"></path>
	<path d="M114.3,96.1c7.6,0,15.1,0,22.6,0c7.1-0.1,14.2-0.1,21.3-0.3c6.8-0.2,13.6-0.1,20.4-0.3c3-0.1,6,0,9-0.2
		c0.4,0,1.2-0.4,1.1,0.4c-0.1,0.6,0.2,1.8-1.1,1.7c-5-0.1-10.1-0.1-15.1-0.2c-3.2-0.1-6.5,0-9.7-0.1c-5.1-0.1-10.3,0-15.5-0.1
		c-9.9-0.3-19.7-0.1-29.6-0.3c-1.1,0-2.3-0.2-3.4-0.1C114.3,96.5,114.3,96.3,114.3,96.1z"></path>
	<path d="M91,33.8c0.2,0.2,0.5,0.5,0.7,0.7c-1,0-2,0.1-3,0.1c-8,0.1-16.1,0.2-24.1,0.2c-3.8,0-7.6,0-11,0
		c1.9-0.5,4-1.5,6.4-1.5c8.7,0.2,17.4,0.2,26.1,0.3C87.7,33.7,89.3,33.7,91,33.8z"></path>
	<path d="M164.7,49.7c1.4-0.2,2.9-0.1,4.4-0.3c6.9-0.8,13.9-0.5,20.9-1c1.8-0.1,3.6-0.1,5.4-0.1c0.5,0,1.1-0.2,1,0.7
		c-0.1,0.6,0.2,1.5-1.1,1.4c-2-0.1-4,0-6-0.1c-3.4-0.1-6.7-0.2-10.1-0.3C174.4,49.9,169.5,49.8,164.7,49.7z"></path>
</g>
<path d="M111.3,49c0.1,0.1,0.2,0.1,0.3,0.2C111.5,49.2,111.3,49.2,111.3,49z"></path>
</svg>
