<!--?xml version="1.0" encoding="utf-8"?-->
<!-- Generator: Adobe Illustrator 24.2.3, SVG Export Plug-In . SVG Version: 6.00 Build 0)  -->
<svg version="1.1" id="Camada_1" xmlns="http://www.w3.org/2000/svg" xmlns:xlink="http://www.w3.org/1999/xlink" x="0px" y="0px" viewBox="0 0 234 419" enable-background="new 0 0 234 419" xml:space="preserve">
<g onclick="select(this)" class="" id="c-estampa-primaria" fill="#ffffff">
	<path d="M81.8580551,7.9835963c2.1281433,0.2338386,4.2658386,0.3423991,6.3920059,0.6339555
		c4.4136581,0.6052332,8.8413925,1.1088181,13.2653046,1.6377201c1.3858948,0.1656914,2.7916336,0.1836939,4.1780319,0.225687
		c4.3462448,0.1316462,8.6712265,0.7026958,13.0308685,0.5542564c4.9799805-0.1695662,9.939003-0.6464396,14.9111862-0.9240065
		c6.0475006-0.3375921,12.0287933-1.2249546,18.0034943-2.1704445c0.6270294-0.099225,1.2711792-0.0903177,1.9083557-0.1320987
		c1.6199799-0.0121517,2.9975739,0.6290498,4.0176239,1.8190274c1.18013,1.376708,2.6810913,2.262785,4.2083435,3.1218662
		c8.5497437,4.8092785,17.4604187,8.8590717,26.5822144,12.44133c5.1021423,2.0036812,9.9898682,4.4678211,14.9754791,6.7215424
		c0.1760254,0.0795631,0.3200073,0.2300129,0.4785004,0.3471203c-0.3276367,0.5461655-0.4387512,1.2117538-0.234436,1.7355881
		c0.486496,1.2473412,0.0323029,2.498024,0.193161,3.7340813c0.0461578,0.3548164,0.0099335,0.7196808,0.0437775,1.0768776
		c0.4802704,5.0693855,0.1956482,10.1060295-0.7172546,15.1047745c-0.8250427,4.5177765-2.3676605,8.8456726-3.5833282,13.2605057
		c-0.7703705,2.7976837-1.9322662,5.3985367-3.3066101,7.9221268c-0.4357452,0.8001251-0.8538971,1.7621384-1.5587006,2.2333984
		c-1.751358,1.1710358-2.2255707,2.9605255-2.6317749,4.763176c-0.9034729,4.0094604-1.278183,8.095459-1.4307251,12.1977692
		c-0.0726318,1.9536362-0.1398315,3.8975906-0.7333527,5.7834167c-1.3188782,4.1903458-0.5819244,8.5378647-0.9559631,12.8009415
		c-0.0123901,0.1412659,0.1016693,0.2936249,0.157135,0.4399643c-0.050827,0.3859406-0.0521545,0.7876053-0.1621704,1.1568756
		c-0.3977356,1.3349838,0.1290588,2.8359604-0.7417297,4.0812988c-0.6769104,0.4831696-0.8384399,1.2613678-0.9182281,1.9723282
		c-0.6777802,6.0399323-1.3856049,12.0785217-1.917038,18.1322174c-0.428421,4.880249-0.7996368,9.7780609-0.8777161,14.673172
		c-0.0891876,5.5931702-0.3906097,11.1808777-0.3261108,16.7791595c0.1694641,14.7097778-0.2562866,29.4231873,0.23526,44.1312561
		c0.1388245,4.1539001,0.0108032,8.3076477,0.1750793,12.4651031c0.2615509,6.6190491,0.4896698,13.2403717,0.7184143,19.8610077
		c0.15979,4.6251221,0.2966614,9.2501678,0.4897461,13.8748932c0.1646729,3.9437866,0.3563538,7.8876953,0.4886627,11.8312073
		c0.1418152,4.2267456,0.4624023,8.442749,0.5853119,12.6685486c-6.4370422,1.6742859-12.9883423,2.6364441-19.6147003,3.105957
		c-15.2886963,1.0833435-30.6052094,1.0558777-45.9200592,1.199646c-14.877121,0.1396179-29.7553101,0.3595581-44.6301727,0.1205139
		c-9.3597488-0.1503601-18.6840019-0.9620056-27.8058319-3.294342c-0.1514664-0.0387268-0.2946472-0.1098633-0.4407806-0.1659851
		c0.1389503-1.6291809,0.1358643-3.2646179,0.2435493-4.8975525c0.3645592-5.5281372,0.6039238-11.0662842,0.7853661-16.6040955
		c0.1358414-4.1461792,0.296093-8.2900696,0.4768867-12.4345093c0.248703-5.7011108,0.3732681-11.4077759,0.5359116-17.1124725
		c0.0784988-2.7531738-0.0649681-5.5070038,0.2022476-8.2616272c0.4827652-4.9765167,0.3438911-9.9888,0.3426857-14.9680328
		c-0.0049362-20.4558105,0.6601563-40.9199371-0.5072403-61.368454c-0.1792412-3.1395874-0.2942696-6.2830048-0.4969406-9.4238281
		c-0.296978-4.6023712-0.7423325-9.1852722-1.2411499-13.7693024c-0.4935341-4.5355606-1.2735596-9.0156708-2.1321869-13.4882431
		c0.0190773-1.440361-0.1012306-2.8619995-0.5438271-4.2441559c-0.2038651-0.6366425-0.36409-1.2810593-0.5071754-1.9380646
		c-0.352356-1.6178818-0.2228127-3.258049-0.3241119-4.8721237c-0.1109314-1.7675858-0.7032623-3.4501343-0.7543144-5.1666183
		c-0.089344-3.0037842-0.4519119-5.9463348-1.0065384-8.8894577c-0.4118538-2.1855011-0.7909012-4.3778229-1.083374-6.5903244
		c-0.273838-2.0715714-1.5592499-3.8345184-2.7072029-5.5783463c-0.7021904-1.0666962-1.4645004-2.104599-1.9332771-3.2983398
		c-2.2738953-5.7904892-4.0975304-11.7233238-5.4414024-17.79636c-0.85252-3.8525925-1.2769947-7.7524376-1.1472282-11.7147598
		c0.0770035-2.3513222,0.0520439-4.7069016,0.3130665-7.0476379c0.0658455-0.5904732-0.3550186-1.1474266-0.02882-1.739624
		c0.416235-0.755661,0.3474674-1.5256042-0.0092583-2.2864532c4.2559147-1.9969311,8.4775639-4.0659313,12.8534641-5.8014832
		c7.0857925-2.8103352,14.0674591-5.8668938,21.0127487-9.0069199c3.9414978-1.7819843,7.592514-4.0726099,11.2326813-6.3844156
		c0.4515533-0.2867746,0.7524719-0.7025681,1.1046829-1.0813026C78.7727966,8.9101152,80.0685806,7.9574499,81.8580551,7.9835963z"></path>
	<path d="M189.0510406,113.3130264c-0.0551147-0.1471939-0.1691742-0.2995529-0.1567841-0.4408188
		c0.3740387-4.2630768-0.362915-8.6105957,0.9559631-12.8009415c0.5935211-1.8858261,0.6607208-3.8297806,0.7333527-5.7834167
		c0.1525421-4.1023102,0.5272522-8.1883087,1.4307251-12.1977692c0.4062042-1.8026505,0.8804169-3.5921402,2.6317749-4.763176
		c0.7048035-0.4712601,1.1229553-1.4332733,1.5587006-2.2333984c1.3743439-2.5235901,2.5362396-5.1244431,3.3066101-7.9221268
		c1.2156677-4.4148331,2.7582855-8.7427292,3.5833282-13.2605057c0.9129028-4.998745,1.197525-10.0353889,0.7172546-15.1047745
		c-0.033844-0.3571968,0.0023804-0.7220612-0.0437775-1.0768776c-0.1608582-1.2360573,0.293335-2.4867401-0.193161-3.7340813
		c-0.2043152-0.5238342-0.0932007-1.1894226,0.234436-1.7355881c1.8174591,1.0571327,3.1095886,2.7241821,4.6880341,4.0611343
		c7.6025543,6.4393692,12.0891266,14.8393555,14.9355927,24.2232819c1.8835144,6.2093887,2.9201508,12.5783997,3.6741028,19.0179138
		c0.5473022,4.6746902,1.4640198,9.3053665,2.1769867,13.9616318c0.8755951,5.7182999,1.4894562,11.478653,2.7884674,17.1284409
		c0.079422,0.3454361,0.0524445,0.7153244,0.0748901,1.0739441c-1.1985474,0.2977295-2.3873444,0.644043-3.597168,0.8845367
		c-5.2733765,1.0483322-10.6157837,1.6302261-15.9414368,2.3284225c-4.5469971,0.5961227-9.0929565,0.9767838-13.6932831,1.0205231
		c-3.219162,0.0305939-5.8176727-1.059166-8.2521515-2.9212112c-0.4428406-0.338707-0.8512421-0.7321472-1.4813538-0.7825012
		C189.1384277,112.6083679,189.0947266,112.960701,189.0510406,113.3130264z"></path>
	<path d="M46.5984573,113.5769119c-0.0262222,0.5643692,0.0691566,1.1507492-0.2992477,1.6534119
		c-0.5079575-0.9235077-0.3191452-2.0217972-0.7852402-3.1452484c-2.2311592,2.6585617-5.3019104,1.9235458-8.1163673,2.1845627
		c-4.9980202,0.4635315-9.963419,0.0150604-14.8977375-0.7378998c-3.3447762-0.5103912-6.6623507-1.2005844-9.9897423-1.8229218
		c-3.5935507-0.6721191-7.1843677-1.3588486-10.7761421-2.0392838c1.0089324-6.227005,1.6012859-12.537735,3.1574006-18.6553497
		c1.9134207-7.5223236,3.1039934-15.1678467,4.510396-22.7834702c1.58708-8.5939865,4.4463224-16.7619438,9.6820316-23.9032173
		c2.5375748-3.461132,5.4739933-6.5772552,8.928812-9.1511574c1.1776657-0.8773804,2.0319977-2.1448402,3.4125347-2.7617455
		c0.3565636,0.7609024,0.4253311,1.5308456,0.0090961,2.2865067c-0.3261986,0.5921974,0.0946655,1.1491508,0.02882,1.739624
		c-0.2610226,2.3407364-0.236063,4.6963158-0.3130665,7.0476379c-0.1297665,3.9623222,0.2947083,7.8621674,1.1472282,11.7147598
		c1.3438721,6.0730362,3.1675072,12.0058708,5.4414024,17.79636c0.4687767,1.1937408,1.2310867,2.2316437,1.9332771,3.2983398
		c1.147953,1.7438278,2.4333649,3.5067749,2.7072029,5.5783463c0.2924728,2.2125015,0.6715202,4.4048233,1.083374,6.5903244
		c0.5546265,2.9431229,0.9171944,5.8856735,1.0065384,8.8894577c0.0510521,1.7164841,0.643383,3.3990326,0.7543144,5.1666183
		c0.1012993,1.6140747-0.028244,3.2542419,0.3241119,4.8721237c0.1430855,0.6570053,0.3033104,1.3014221,0.5071754,1.9380646
		C46.4972267,110.7149124,46.6175346,112.1365509,46.5984573,113.5769119z"></path>
</g>
<g onclick="select(this)" class="" id="c-estampa-secundaria" fill="#000000">
	<path d="M211.0678101,123.3024368c-0.3715515-1.8261337-0.8825378-3.6194839-1.2240753-5.4543991
		c-0.7427063-3.9904327-1.5257721-7.973526-2.317688-11.9545898c-0.8232574-4.1387329-1.6670685-8.273468-2.5187378-12.4064789
		c-1.1365051-5.5151596-2.2947235-11.0258484-3.432785-16.5406876c-0.588089-2.8498611-1.1582184-5.7034683-1.7248535-8.5576935
		c-0.1722565-0.8676529-0.2520905-1.7311554,0.1093903-2.5910645c0.5569458-1.3249054,0.8534698-2.7373886,1.2918854-4.1025047
		c0.0123596,0.2717552,0.1067505,0.5001183,0.2939453,0.6672935c0.205719,0.1837273,0.3545685,0.0482368,0.4483643-0.1492233
		c0.0320892-0.0675354,0.0429688-0.1652565,0.0206604-0.2355919c-0.759201-2.3950005,0.4342499-4.5595016,0.8794403-6.7874336
		c1.0645752-5.3276482,1.3525085-10.6813812,1.009201-16.0855598c-0.0757751-1.1928024-0.2336578-2.3836021-0.1090851-3.5705452
		c0.3247986-0.0330162,0.4012146,0.163044,0.4156342,0.3618889c0.1846466,2.5494423,1.0914154,4.9536362,1.4941559,7.459198
		c0.1450806,0.9025536,0.4573517,1.7800751,0.3130188,2.7212486c-0.034256,0.2233887,0.0534058,0.4758835,0.1232452,0.703228
		c0.8539429,2.7794838,1.1719513,5.6789932,1.9058533,8.485054c-0.2938538,1.3211136,0.2341919,2.5781555,0.3312378,3.8692284
		c0.0794525,1.0565834,0.4221954,2.0943298,0.6592712,3.1379128c0.520462,2.2911873,0.8510437,4.6195183,1.4113312,6.904705
		c0.9281006,3.7851257,1.8113251,7.5817871,2.6603394,11.3854446c0.249939,1.1198959,0.2829285,2.2889709,0.4039764,3.4291611
		c0.1576233,1.4848862,0.5050964,2.927948,0.9413147,4.307312c1.272171,4.0229111,1.6046448,8.1978226,2.292511,12.3164139
		c0.3077698,1.8427048,0.7627258,3.6618805,1.0390778,5.5084686c0.2350464,1.5705032,0.3434296,3.1572495,0.666275,4.7202225
		c0.3709106,1.795578,0.6495056,3.6116638,1.235199,5.3549728c0.1038666,0.3091431,0.1894073,0.6128845,0.1986847,0.9279175
		c0.048233,1.6389008,0.3766785,3.2302094,0.7712402,4.8128662c0.0241852,0.097023-0.0564423,0.220192-0.0883026,0.3311844
		c-0.1686707-0.0073013-0.3373413-0.0146027-0.506012-0.0218964c-0.4524231-1.1040955-0.6886292-2.2815933-1.1327972-3.3963776
		c-0.1843109,1.2021942,0.2032166,2.3053284,0.5552673,3.4219666c-0.3327026,0.1191101-0.625824,0.2240524-0.9189606,0.3289795
		c-0.1358337,0.0109634-0.2716522,0.0219193-0.407486,0.0328827c-0.5202026-0.0826721-1.0177765-0.0076447-1.4942169,0.2145081
		c-0.1425171,0.0099564-0.2850189,0.0199127-0.427536,0.0298615c-0.1655731-0.1348648-0.3212891-0.1337357-0.4649506,0.0337067
		c-0.1644745,0.0132141-0.3289337,0.0264435-0.4934082,0.0396576c-0.2197876-0.0934753-0.4128418-0.0562363-0.5777893,0.1182556
		c-0.2587128,0.0036316-0.5174255,0.0072479-0.7761383,0.0108643c-0.531311-1.9961166-0.8832397-4.0301056-1.2727966-6.0559082
		c-0.5398407-2.8072968-1.0641937-5.6175613-1.6037598-8.4249039c-0.5021973-2.6128006-1.0211639-5.222374-1.5227509-7.8352814
		c-0.6210327-3.2350922-1.2220612-6.4740295-1.8494415-9.7078781c-0.7190704-3.7065506-1.4671021-7.4074936-2.1845551-11.1143646
		c-0.5276337-2.7261963-1.0217438-5.4588699-1.5393677-8.1870422c-0.4507751-2.3759689-0.8714294-4.7590561-1.3973083-7.118515
		c-0.1520081-0.6819725-0.0345764-1.4825935-0.5998688-2.1148491c-0.9765167,1.0417099-0.4392242,2.2566414-0.5671844,3.3567696
		c-0.1027985,0.8838654,0.4224548,2.8592682,0.7992096,3.2820282c0.3073578-0.3790588-0.196991-0.8692551,0.1881714-1.2625732
		c0.4469452,0.349884,0.3688354,0.8460617,0.3708344,1.31073c0.0086823,2.0029602,0.414978,3.9537125,0.8864288,5.8790588
		c0.3494873,1.4272842,0.6299896,2.8615417,0.8947449,4.3036957c0.2199097,1.1978989,0.0453644,2.4847412,0.8091278,3.5694122
		c0.1216888,0.1728287,0.109314,0.4640656,0.1027985,0.6989975c-0.0278778,1.0088272,0.2310181,1.9787445,0.3575134,2.9668427
		c0.2542725,1.9859467,0.8472748,3.9030838,1.1211548,5.8826981c0.25383,1.8348083,0.5588989,3.6673737,0.9144745,5.4788589
		c0.4038544,2.0574493,0.8868256,4.1106567,1.517395,6.1256256c0.3065948,0.9797363,0.4619904,2.0176849,0.7825928,3.0038986
		c0.102005,0.3137665,0.1625671,0.6359253,0.0882416,0.9425812c-0.4751587,1.9602966-0.0402222,3.8659744,0.3158417,5.7773209
		c0.0317535,0.1704712,0.151474,0.2711945,0.3487701,0.2886505c0.2606049-0.9900589-0.1264648-1.9952087,0.0161285-2.9956665
		c0.0792236,0.9151764,0.5206757,1.7603531,0.4959412,2.6659164c-0.0385437,1.4111328,0.2516785,2.7729416,0.4877625,4.1471252
		c0.1214294,0.7068558,0.0422821,1.5026779,0.4128265,2.0990753c0.6011658,0.9675522,0.6931915,2.0183334,0.8342285,3.0806503
		c-0.1706543,0.0507278-0.3413239,0.1014709-0.5119781,0.1521988c-0.1134491-0.0988464-0.2083282-0.0637512-0.2935791,0.0407028
		C211.9060059,123.3132477,211.4868927,123.3078384,211.0678101,123.3024368z M213.6132813,89.7845535
		c-0.5634003,0.2819519-0.4195862,0.7761765-0.3706512,1.2403641c0.2089386,1.9824829,0.8070221,3.8943634,1.0751343,5.8644867
		c0.2274628,1.6712875,0.72789,3.2879868,0.8359528,4.9918594c0.0583344,0.9197006,0.2019196,1.9332581,0.897995,2.9242477
		c0.0594025-1.4540024-0.223877-2.7011414-0.4092407-3.9015961c-0.5320282-3.4457092-1.3657379-6.8448334-2.0805206-10.2623367
		c-0.0617371-0.2951965-0.2953186-0.5965652,0.028595-0.8794403c0.1852875-0.2041702,0.6757813-0.1689072,0.5128479-0.6460342
		c-0.2929993-0.8580322-0.2777405-1.8042145-0.7664337-2.9045105
		C213.2899323,87.6098785,213.6759338,88.6796036,213.6132813,89.7845535z M211.1568756,79.4642563
		c0.2120972-1.6457062-0.4145355-4.7852325-1.1183777-5.6821671
		C210.2950897,75.8061905,210.6458435,77.6494217,211.1568756,79.4642563z M217.6398315,113.2797318
		c-0.0577545,1.7844315-0.0899811,3.565712,0.6061096,5.257225
		C218.6201477,116.7135162,218.2343903,114.983757,217.6398315,113.2797318z M203.8678894,82.3201828
		c0.1626129-1.4822693-0.450882-4.5325546-1.1313019-5.2751999
		C203.0102234,78.983757,203.2975464,80.6717911,203.8678894,82.3201828z M207.3549805,99.5434952
		c-0.1042175,1.4706497,0.103653,2.8918762,0.7007599,4.4813538
		C208.162674,102.3239136,207.7684326,100.9321823,207.3549805,99.5434952z M201.3230133,69.7436981
		c0.0336151-1.2899857-0.2465363-2.3634186-0.6817322-3.4051743
		C200.7622681,67.444458,200.7596588,68.5756378,201.3230133,69.7436981z M209.4278412,110.613678
		c-0.1109772,0.011528-0.2219696,0.023056-0.3329468,0.0345917c0.1865234,0.9690704,0.324234,1.9487076,0.8162231,2.8530045
		C209.7500305,112.5387421,209.5889282,111.5762177,209.4278412,110.613678z M209.6444397,71.667923
		c-0.0348206-0.9708633-0.1316376-1.3229828-0.6387177-2.0610046
		C209.2553101,70.435791,209.2289886,71.0582123,209.6444397,71.667923z M212.6646423,87.1992111
		c0.2910919-0.6993179,0.0348358-1.1033936-0.243866-1.6436157
		C212.2234955,86.3546219,212.2169037,86.3560867,212.6646423,87.1992111z M210.6522675,117.5933151
		c-0.0139313-0.0953979-0.030777-0.2108078-0.0476074-0.3262329c-0.0201569,0.0564651-0.0592041,0.1139221-0.0562897,0.1691666
		c0.0051117,0.0967941,0.035965,0.1922379,0.056015,0.2882462
		C210.6177216,117.6879883,210.6310425,117.6514893,210.6522675,117.5933151z"></path>
	<path d="M31.4518547,32.7508316c0.5055809,0.5699997,0.3446903,1.2604179,0.077055,1.7804642
		c-0.2289028,0.4447975-0.2625809,0.803791-0.1349812,1.2167892c0.2107239,0.6820793,0.0145302,1.3515167-0.0417786,2.017971
		c-0.2962379,3.5064926-0.4355736,7.0235634-0.1508675,10.526165c0.2712936,3.3375435,0.9079399,6.6330185,1.7593956,9.8789024
		c0.0607262,0.2314796,0.1153374,0.467804,0.2075157,0.6872978c0.9908066,2.3591805,0.3658714,4.706089-0.0396233,7.0565872
		c-0.6439857,3.7329102-1.2840824,7.466507-1.9211826,11.200592c-0.8179359,4.7940292-1.6319466,9.588707-2.4463902,14.3833313
		c-0.7211075,4.2451477-1.433588,8.4917755-2.1625862,12.7355652c-0.7221107,4.2037048-1.4523983,8.4060593-2.1986256,12.6055298
		c-0.1263618,0.7111282-0.1886005,1.4241562-0.2483654,2.1401749c-0.0769386,0.9217529-0.2544174,1.8106384-0.8438034,2.5638275
		c-1.4618111-0.1817322-2.9286537-0.331192-4.3834305-0.5580368c-0.7956219-0.1240616-1.6227474-0.1396103-2.3713055-0.5009155
		c0.0762062-0.2253952,0.1816807-0.4454193,0.2240963-0.677002c0.4281826-2.3379364,0.6507607-4.7045517,1.2208633-7.0275269
		c0.5487232-2.2358627,0.7180386-4.5573883,1.0710487-6.8343887c0.7830315-5.0506897,1.3684807-10.1273041,2.1536522-15.175827
		c0.1403713-0.9025421,0.2114315-1.8216248,0.5280933-2.6965485c0.8456097-2.33638,1.2306576-4.7659836,1.3645229-7.2359543
		c0.0237331-0.437851,0.023468-0.8707275,0.1109924-1.3045959c1.2220802-6.0582657,2.6520367-12.0738678,3.6824741-18.1719208
		c0.3251495-1.924221,0.8711243-3.8365173,0.8869457-5.7780571c0.0118465-1.4537163,0.2347031-2.8365746,0.530817-4.2280235
		c0.315279-1.4814835,0.5999508-2.9687119,0.7410526-4.4748764c0.0569992-0.6084404,0.4640236-1.1074295,0.4272346-1.7228088
		c-0.0627689-1.0499535,0.1814632-2.0620995,0.3691216-3.0821075c0.5688286-3.0918579,1.4022579-6.1399994,1.5413055-9.3030701
		L31.4518547,32.7508316z M21.2238998,102.6827393c0.6845818-4.5460968,1.6150608-9.0505219,2.212759-13.6110764
		c-0.029417,0.0089111-0.0588341,0.0178223-0.2206421,0.0668259
		C22.4545765,93.5961075,21.2345047,98.0408173,21.2238998,102.6827393z M19.4367847,112.5629578
		c-0.7348061,2.3599472-0.8155727,3.7337036-0.3443356,4.9364243
		C19.5031948,115.8201218,19.5949478,114.1935272,19.4367847,112.5629578z M25.2103939,78.2576981
		c0.4252472-1.7376022,0.7808495-3.4707794,0.7794876-5.2549973C25.5900192,74.7372284,25.021656,76.4444809,25.2103939,78.2576981z
		 M22.5380211,88.3885422c0.1021595,0.0199661,0.204319,0.0399399,0.3064804,0.059906
		c0.1941891-0.8269882,0.0510712-1.7075348,0.2068005-2.5429611C22.880209,86.7331696,22.7091141,87.5608521,22.5380211,88.3885422z
		 M17.8598652,120.3487778c0.1767597-0.7661591,0.5718632-1.5009689,0.4571228-2.5658722
		C17.9860268,118.7530746,17.7509289,119.5098648,17.8598652,120.3487778z"></path>
	<path d="M24.3041401,121.6639252c-0.0095596-0.8874359,0.399086-1.6834946,0.5569592-2.537674
		c0.3684864-1.9936752,0.7411957-3.9766312,0.7926521-6.0176086c0.0286598-1.1367569,0.2862091-2.267746,0.4668999-3.594368
		c0.4617119,0.8886108-0.1746407,1.6717453,0.293951,2.367485c0.4372692-0.2822342,0.3855591-0.7318726,0.4227772-1.0952225
		c0.1246586-1.2170334,0.2568398-2.4476089-0.0597305-3.6535187c-0.1316242-0.5013733,0.023016-0.944931,0.1237583-1.4005051
		c0.6377087-2.8838196,1.4673119-5.7257996,1.9503975-8.642601c0.350256-2.114769,0.5959835-4.2466583,0.9245796-6.3652878
		c0.2875557-1.8540268,0.6145687-3.7022247,0.947546-5.5487671c0.1140747-0.6326065,0.210165-1.2656631,0.1922874-1.9051285
		c-0.0227604-0.8140488,0.130125-1.5554962,0.4795151-2.3110199c0.4402771-0.9520416,0.2632332-2.0449753,0.4534206-3.0652847
		c0.2552624-1.3693924,0.5373402-2.7338409,0.7907429-4.1023407c0.3550911-1.9176712,0.7663002-3.8371811,0.7472153-5.8042755
		c-0.0081596-0.8408661,0.2102737-1.6326752,0.496582-2.4364777c0.0350456,0.7287979,0.0700912,1.4576035,0.1051407,2.186409
		c0.0687218,0.0063705,0.1374435,0.0127335,0.2061691,0.019104c0.2088509-1.1370697,0.4176941-2.2741394,0.5839653-3.17939
		c0.3368378,0.7611618,0.4472618,1.8375778,0.9034767,2.8178101c0.3280296,0.7048264,0.3285561,1.4442368,0.1909561,2.2238617
		c-0.7356339,4.168129-1.4348717,8.3427353-2.1358643,12.5169144c-1.6293869,9.7025146-3.2440014,19.4075089-4.8828182,29.108429
		c-0.5975628,3.537262-1.2467384,7.0658112-1.872366,10.5983353
		C26.0814362,121.9056854,25.1944809,121.7594528,24.3041401,121.6639252z M29.4107475,98.8924713
		c-0.3269482,1.0146179-0.5099163,2.4800797-0.5003624,3.6819916
		C29.2735386,101.4154053,29.6318836,99.9701004,29.4107475,98.8924713z M33.1841011,77.200264
		c0.2653351-0.3501968,0.5744476-0.7200928,0.105114-1.2672501C33.0443153,76.4274216,33.0898438,76.8026276,33.1841011,77.200264z
		 M32.8514557,78.8314819c0.2100182-0.3837051,0.4672661-0.804863,0.1242714-1.4592972
		C32.9224319,77.9980469,32.88694,78.4147644,32.8514557,78.8314819z"></path>
	<path d="M11.5246992,119.7609558c0.7092876-1.9287949,0.8546877-3.9743652,1.2015285-5.9742508
		c2.2061386-12.7206345,4.3783674-25.4471283,6.5592585-38.1721344c1.7485237-10.2022629,3.4933014-20.4051704,5.2401962-30.6077156
		c0.3439693-2.0089149,0.6936169-4.0168648,1.0328293-6.026577c0.0995445-0.5897522,0.2119637-1.1817474,0.1054554-1.7850304
		c0.5216274-0.7467613,1.3124599-1.2045364,1.955162-1.8213234c0.4568958,0.2631569,0.1904755,0.6357002,0.1151409,0.9490433
		c-0.2317886,0.964077-0.4615498,1.9535942-0.5708523,2.9128647c-0.3662701,3.2144585-1.0845585,6.3574409-1.6832371,9.5247688
		c-0.3461227,1.8311615-0.7250729,3.6564865-1.118906,5.4780273c-0.1096535,0.507164-0.0728226,1.0270309-0.2494926,1.5305061
		c-0.4731312,1.3483353-0.6900845,2.755867-0.8697186,4.1691246c-0.1992207,1.5673256-0.3451939,3.1447258-0.6258984,4.6975746
		c-0.3949432,2.1848297-0.8275719,4.3613815-1.3745594,6.5201263c-0.6954346,2.744606-1.1560383,5.5452499-1.5282116,8.3569183
		c-0.2777596,2.098381-0.6009808,4.1907196-0.8952122,6.2869873c-0.0292168,0.2081528-0.1127033,0.6463547,0.0943089,0.5851974
		c0.6817398-0.2014465,0.5494537,0.3236771,0.5121422,0.562767c-0.1720142,1.1022949-0.2972622,2.2329865-0.6567593,3.2787399
		c-0.3312683,0.9636307-0.5273495,1.9321899-0.5702114,2.9220123c-0.0517159,1.1943588-0.1568279,2.3702469-0.3855743,3.5458527
		c-0.2356415,1.2110291-0.5111656,2.41436-0.6183109,3.654274c-0.0954533,1.1045914-0.2372551,2.2345581-0.5808563,3.2802887
		c-0.3624725,1.1031723-0.6853571,2.210144-0.8944397,3.3434677c-0.8103619,4.3925934-1.2631197,8.8431091-2.1188269,13.2290344
		C12.9146748,120.0232315,12.1848297,120.0562592,11.5246992,119.7609558z"></path>
	<path d="M209.7110443,37.4479866c-0.069046,2.345993,0.6287994,4.5788422,1.0416412,6.8501434
		c0.7771301,4.2752075,1.6296387,8.5367546,2.4568787,12.8027992c0.797348,4.1119003,1.6068878,8.2214432,2.4027252,12.3336411
		c0.8405914,4.3433914,1.6655731,8.6897964,2.5079956,13.0328293c0.896225,4.6203995,1.8087921,9.2376404,2.7071228,13.8576279
		c0.9051514,4.655014,1.8012848,9.3117752,2.7019501,13.9676514c0.7194214,3.7189026,1.3636475,7.4530258,2.2539063,11.137352
		c-0.6216888,0.087944-1.2433624,0.1758804-1.865036,0.2638321c-0.7157288-2.5772552-1.0317078-5.228569-1.4866791-7.8556519
		c-0.489975-2.8292313-0.9094543-5.6758041-1.7106628-8.4451065c-0.1652985-0.5713425-0.4626465-1.0774307-0.5864105-1.6805878
		c-0.4078674-1.9875793-0.4867859-4.0367279-1.1099243-5.9808197c-0.2328186-0.7263184-0.2927856-1.4665756-0.3710175-2.2195282
		c-0.0696259-0.6699677-0.056076-1.3433456-0.1242981-2.0135345c-0.16362-1.6075211-0.9520569-3.0310135-1.2016907-4.6120682
		c-0.1206207-0.7639694,0.1131592-1.5360641-0.0951538-2.2391281c-0.2601013-0.8778763-0.3687592-1.7891846-0.6721649-2.6532593
		c-0.1143951-0.3257828-0.2442627-0.6729202-0.0092163-1.0166473c1.0189972,1.3036118,0.1855164,3.1145477,1.1463776,4.5243683
		c0.3764496-0.5208511,0.0198059-0.8766556-0.0143433-1.2524338c-0.2930908-3.225769-1.0176392-6.3863373-1.5810242-9.5667877
		c-0.5526123-3.1196747-1.478302-6.1728363-2.2268372-9.2584534c-0.2516022-1.0371475-0.663147-2.0880661-0.643692-3.1259842
		c0.0287018-1.5301285-0.4017181-2.9551468-0.6294708-4.4237328c-0.1935425-1.2480621-0.6610107-2.453392-0.8736725-3.6843147
		c-0.4928589-2.8528099-1.346344-5.6184158-1.8731232-8.4586258c-0.3110657-1.6771431-0.8090363-3.3125191-1.0424652-5.0111046
		c-0.1234894-0.8983917-0.1354828-1.8361435-0.4081421-2.6903877c-0.4408264-1.3811378-0.6524353-2.7845383-0.7757416-4.2138252
		C208.5877533,36.0222359,209.0625458,36.845932,209.7110443,37.4479866z M218.0222931,89.8939056
		c0.0979309-0.6821518,0.1671753-1.3598862-0.2606812-2.0804443
		C217.3938141,88.6564178,217.8941193,89.2465363,218.0222931,89.8939056z"></path>
	<path d="M14.4015741,120.2408142c0.6137943-1.9490662,0.819994-3.979805,1.1671286-5.9797592
		c1.502718-8.6576614,2.9622707-17.3227921,4.4476528-25.9834747c1.7960148-10.4718704,3.6024532-20.9419327,5.4039955-31.4128532
		c1.1851521-6.88834,2.3732433-13.7761688,3.5473614-20.6663895c0.0919819-0.5397873,0.3029003-1.0914993,0.0452271-1.6472511
		c0.3421936-0.6019058,0.8224792-1.0588951,1.4398479-1.3720207c0.0179443,0.3188095-0.0005608,0.6283264-0.062645,0.9486694
		c-0.2504826,1.2924957-0.468317,2.591423-0.689827,3.8894043c-0.6039906,3.5392342-1.1489639,7.0896111-1.819725,10.6160889
		c-0.7523365,3.9553337-1.419672,7.9237976-2.0589828,11.8977699c-0.2978954,1.8517265-0.4656601,3.7319489-0.8853664,5.5548172
		c-0.6904354,2.9986954-1.0228462,6.0547562-1.6181583,9.0694351c-1.0275497,5.2035065-1.8474331,10.448616-2.7183666,15.6822815
		c-0.759201,4.5622406-1.6028538,9.1087875-2.4219456,13.6601944c-0.9536552,5.2991257-1.8120995,10.6153946-2.7118616,15.9242172
		C15.0965967,120.4469681,14.7446394,120.370018,14.4015741,120.2408142z"></path>
	<path d="M206.1989594,34.5493126c0.2034302,2.8312187,0.8167572,5.5966454,1.3519592,8.3740273
		c1.5997772,8.3020821,3.2015381,16.6037865,4.8141174,24.9033813c1.0188141,5.2434464,2.0728455,10.4800797,3.0851746,15.724762
		c1.3904877,7.2039032,2.7523956,14.4133224,4.1344147,21.6188583c0.8188019,4.2689667,1.6409607,8.5373611,2.4884949,12.8006668
		c0.201767,1.0148621,0.5076141,2.0092621,0.7731323,3.0110779c0.0818481,0.3088455,0.1988831,0.6098175,0.1136017,0.9373932
		c-0.0802307,0.0202026-0.1604462,0.0404129-0.2406769,0.0606308c-0.0791473,0.0079651-0.1582947,0.0159302-0.237442,0.0238876
		c-0.1563568-0.0356445-0.3126984-0.0712967-0.4690552-0.1069565c-1.2756653-5.4604111-2.0845795-11.0104065-3.1717529-16.5067902
		c-0.6324463-3.1975174-1.3646698-6.3752594-2.0025482-9.5717697c-0.6375732-3.1949005-1.1729126-6.4104156-1.8266144-9.6018295
		c-0.863205-4.214241-1.5592499-8.4600143-2.501358-12.6603851c-0.696991-3.1077194-1.1927032-6.2605362-1.7804718-9.3928223
		c-0.4252777-2.2664185-0.8899384-4.526104-1.2743073-6.7994041c-0.7298584-4.3167305-1.8178101-8.5616684-2.5169373-12.8857231
		c-0.4186249-2.589241-0.9795227-5.1571655-1.5369263-7.7215347c-0.256546-1.1802254-0.2280731-2.3802376-0.4111481-3.5614586
		C205.5909271,33.4703712,205.9098816,33.9965019,206.1989594,34.5493126z"></path>
	<path d="M27.8570042,120.4817657c0.6701641-1.9225464,1.0181446-3.9225616,1.404295-5.9119339
		c0.2890453-1.4891281,0.4802361-2.9987946,0.8105164-4.4779816c0.4297676-1.9247589,0.2409286-3.9030991,0.5981541-5.829361
		c0.5015068-2.7042618,0.9795074-5.4131317,1.5143414-8.1107635c0.1051331-0.530304,0.3965111-1.0126038,0.5140877-1.5701065
		c0.3535652-1.6764832,0.0569611-3.4266739,0.5998116-5.0686874c0.4650116-1.4065475,0.7534943-2.8425064,0.9149628-4.3123093
		c0.0419846-0.3821106,0.1124496-0.7902832,0.50177-1.1929321c0.0984726,1.3548889-0.2460938,2.5695114-0.3629227,3.8071442
		c0.6131554-1.4413528,0.857708-2.9591064,1.0831833-4.4794617c0.0331383-0.2234268-0.1094322-0.3752899-0.3674202-0.2780609
		c-0.0938187,0.035347-0.1617203,0.6759796-0.2616997,0.0113983c-0.1078529-0.7169647-0.0839043-1.454422,0.1822472-2.1222687
		c0.6108856-1.5328751,0.6263199-3.1817474,1.0137596-4.7553406c0.0542526-0.2203522,0.1179657-0.4383774,0.239769-0.8881454
		c0.0984459,0.9039459-0.1576958,1.4979935-0.2337761,2.1168823c-0.0239334,0.1946869-0.0109444,0.4135361,0.2636108,0.4279022
		c0.216423,0.0113144,0.234314-0.1888123,0.2708893-0.3307953c0.0596237-0.2314606,0.1211014-0.4704819,0.1244278-0.7071152
		c0.0216675-1.542038,0.4818153-3.0359955,0.4544868-4.6539612c0.4192429,0.8362579,0.5166664,1.7208633,0.3094444,3.0014038
		c-0.2616539,1.616951-0.5505486,3.2294769-0.8265305,4.8441238c-1.4197426,8.3062286-2.83918,16.6125259-4.2585869,24.918808
		c-0.8815289,5.1586304-1.7569199,10.3183289-2.6523724,15.4745407c-0.1018085,0.5862274-0.3157024,1.1530075-0.4776249,1.7287979
		c-0.5042973-0.1224213-1.0419827-0.0074005-1.5342064-0.2157211c0.0895233-0.3921432,0.4641876-0.7427444,0.1734276-1.1903
		l-0.0238705,0.0156631c0.125597,0.0396957,0.2192612-0.009079,0.2196503-0.134552
		c0.0004005-0.1289215-0.0977879-0.1696701-0.2208538-0.1337357L27.8570042,120.4817657z M35.1811066,82.7364883
		c0.0837402,0.0277176,0.1674843,0.0554199,0.2512283,0.0831375c0.1863136-0.3979645,0.4716301-0.790123-0.1251793-1.4334869
		C35.2535744,81.9601288,35.2173386,82.3483124,35.1811066,82.7364883z M35.7376518,80.1770248
		c-0.2802887,0.5430679-0.491272,0.8586807-0.1328545,1.2483673C35.9867439,81.1135559,35.9656334,80.7890549,35.7376518,80.1770248
		z M35.7889633,80.1446533c0.3779984-0.2763138,0.5570679-0.5952911,0.152977-0.9766083
		C35.6709557,79.469017,35.6819229,79.7900467,35.7889633,80.1446533z M34.2311592,88.1055603
		c-0.2235756,0.2117691-0.2567596,0.4259186-0.0560417,0.6739197
		C34.4082794,88.5687561,34.4297791,88.3536072,34.2311592,88.1055603z M36.3857002,78.6747894
		c0.0055466-0.3161011-0.1160583-0.4739609-0.259407-0.4273682c-0.1906586,0.0619888-0.2645073,0.2656326-0.2505569,0.4908752
		c0.0098114,0.1584091,0.1342278,0.2408447,0.2167587,0.2302399C36.3193359,78.9393997,36.3832855,78.7491608,36.3857002,78.6747894
		z"></path>
	<path d="M207.7252045,123.3009109c-0.2819366-3.2527847-0.9610748-6.4388428-1.5989685-9.6331024
		c-0.6152649-3.0810471-1.1807861-6.1719894-1.7835083-9.2555847c-0.6637573-3.3958435-1.3625946-6.7848892-2.0146027-10.1829453
		c-0.9889221-5.1537476-1.9446411-10.3138351-2.9280243-15.4686432c-0.2387085-1.2512436-0.5352173-2.488121-0.4792175-3.7800369
		c0.0174408-0.4026566,0.0492096-0.7714081,0.2620087-1.1553345c0.1404114,0.2931137-0.2047272,0.4179001-0.1222382,0.6723938
		c0.5419312,1.6722412,0.3929901,3.4694672,0.9191132,5.146286c0.023468,0.0747681,0.0155182,0.1588974,0.0276489,0.2378235
		c0.026825,0.1745605,0.1322174,0.3306274,0.3007355,0.2990494c0.211792-0.0396729,0.3233337-0.2224045,0.2471619-0.4474564
		c-0.2557678-0.7557144-0.0542297-1.5729065-0.3665466-2.3194427c0.6006165,1.5144119,0.4568787,3.2174225,1.265686,4.6725006
		c0.038147,0.0686493,0.0828705,0.1500244,0.0791779,0.2231674c-0.0801086,1.5817413,0.5977936,3.0213013,0.8381348,4.5396347
		c0.1933136,1.2210846,0.4365387,2.4104004,0.8381653,3.5868149c0.3936005,1.1529083,0.6015625,2.3435593,0.4792938,3.6139221
		c-0.0764465,0.7943344,0.1225891,1.7086182,0.4774475,2.4319992c0.7904816,1.611412,0.9035797,3.3625336,1.2569733,5.0592575
		c0.2265778,1.0878601,0.4264984,2.1825714,0.7071533,3.2577896c0.3752289,1.4375076,0.3452606,2.9228439,0.5189209,4.3816223
		c0.2222595,1.8668976,0.693573,3.6755829,1.0101929,5.517807c0.4454956,2.5922165,1.1752014,5.118103,1.8391113,7.6589737
		c0.1003876,0.3842087,0.2464294,0.7653046,0.1436157,1.1754227
		C209.0108337,123.3949127,208.296814,123.9365387,207.7252045,123.3009109z M200.9470215,84.2161865
		c0.0480194,0.2158051-0.0066528,0.5521011,0.3262482,0.5185471c0.2972107-0.029953,0.2882538-0.3265152,0.2328339-0.5614624
		c-0.0252533-0.1070175-0.1194153-0.1977768-0.1823273-0.2959137c0.0040894-0.6773453-0.1703339-1.3262558-0.3091125-1.9815063
		c-0.0352783-0.1666565-0.092041-0.3358002-0.2695618-0.3156052c-0.2324982,0.0264435-0.2938843,0.2250671-0.2512665,0.4372787
		C200.6411591,82.7511597,200.7954102,83.4834137,200.9470215,84.2161865z M202.1004791,88.5927734
		c0.2049561,1.4579315,0.4043884,2.9332733,1.154953,4.4743958
		C203.0632172,91.3964767,202.6987305,89.9728546,202.1004791,88.5927734z M200.5575562,81.4166107
		c0.1451874-0.5743408,0.1451874-0.5743408-0.2165375-1.0520554
		C200.1929169,80.7964401,200.2138367,81.1122437,200.5575562,81.4166107z M201.4816589,86.1662064
		c0.2924652-0.1005249,0.2822113-0.2711945,0.2868958-0.4183273c0.0072784-0.2287827,0.036438-0.5576782-0.2613678-0.5556412
		c-0.3871307,0.002655-0.3200073,0.3402252-0.2718201,0.6093903
		C201.2642365,85.9628525,201.3429565,86.0911636,201.4816589,86.1662064z M201.6720581,86.6423492
		c-0.1932831,0.0603714-0.2049866,0.2054214-0.1889496,0.3634186c0.01651,0.1626511,0.0883789,0.338562,0.2363281,0.3579483
		c0.1509857,0.0197754,0.2548065-0.1203766,0.2247772-0.3022232
		C201.9139404,86.8781128,201.8856506,86.6942673,201.6720581,86.6423492z"></path>
	<path d="M203.974411,32.4099998c0,0.7835159,0,1.5670319,0,2.3505478
		c-0.6265259-0.6752815-0.3635712-1.4808769-0.3950043-2.2406044
		C203.7110748,32.4832954,203.8427429,32.4466438,203.974411,32.4099998z"></path>
	<path d="M209.1797028,115.6980438c0.2256317,0.2988358,0.1651306,0.5865555-0.0046692,0.8872833
		C209.0174255,116.2830048,208.9377899,115.9945984,209.1797028,115.6980438z"></path>
	<path d="M209.4054413,117.105072c0.1927185,0.3532791,0.2199249,0.6307068,0.0050201,0.9145355
		C209.263092,117.7552414,209.2468414,117.4976044,209.4054413,117.105072z"></path>
	<path d="M209.6755676,119.4530792c-0.161499-0.3449478-0.1856689-0.5980682-0.0025024-0.8513184
		C209.8252411,118.8559875,209.8747253,119.1075134,209.6755676,119.4530792z"></path>
	<path d="M27.8550491,120.7175217c-0.0207462-0.0494614-0.0518398-0.0976944-0.0579414-0.1489029
		c-0.0031185-0.0261993,0.0384979-0.0577316,0.0598965-0.086853l-0.027029-0.0168686
		c-0.0181026,0.0298843-0.0538425,0.0617905-0.0507069,0.0892563c0.0069447,0.0608597,0.0334072,0.1194916,0.0519104,0.1790314
		L27.8550491,120.7175217z"></path>
	<path d="M215.820694,78.6815796c0.2249298,0.978096,0.3880005,1.6871872,0.573288,2.4928818
		C215.7264709,80.357872,215.7264709,80.357872,215.820694,78.6815796z"></path>
	<path d="M215.7208862,78.0860367c-0.2643127-0.2886276-0.2224884-0.5121841-0.1077423-0.7800903
		C215.8421936,77.5655365,215.6994476,77.7915421,215.7208862,78.0860367z"></path>
	<path d="M215.4081879,76.4667053c-0.0401001-0.0344467-0.1042633-0.0622406-0.1159821-0.1045609
		c-0.0396271-0.1431503-0.0799561-0.2962265,0.0525208-0.4156876c0.0104065-0.0093918,0.1197662,0.0482407,0.1272888,0.0858994
		C215.5010834,76.1775131,215.5278931,76.3302307,215.4081879,76.4667053z"></path>
	<path d="M20.0225525,81.7390823c0.0685997,1.3545532-0.4316444,2.6004333-0.6762829,3.8951416
		C19.1173973,84.2490387,19.4901123,82.9788055,20.0225525,81.7390823z"></path>
	<path d="M20.4995785,77.6966248c0.2644329,0.9042969,0.2040501,1.775032-0.2773247,2.66008
		C19.968399,79.3932953,20.5317402,78.5771255,20.4995785,77.6966248z"></path>
	<path d="M20.7583733,77.179245c-0.176012-0.3575516-0.1700592-0.6945038-0.0002785-1.0490112
		C20.9452763,76.4848175,20.8949051,76.8217621,20.7583733,77.179245z"></path>
	<path d="M20.9892406,75.7597351c-0.14394-0.3636551-0.162075-0.6894684,0.0207081-1.0792999
		C21.2149296,75.0731277,21.1330013,75.3982086,20.9892406,75.7597351z"></path>
	<path d="M21.2499218,73.2640762c0.1655388,0.2563782,0.1310787,0.5131378,0.0161839,0.776886
		C21.0539684,73.7829514,21.0902481,73.5261536,21.2499218,73.2640762z"></path>
	<path d="M19.9707775,81.359024c0.0211582-0.2707138,0.0324726-0.4154587,0.0437851-0.5602036
		c0.1931114,0.0457077,0.0602245,0.1854401,0.0734711,0.2794037C20.0949631,81.127388,20.0468445,81.1843109,19.9707775,81.359024z"></path>
	<path d="M202.2403412,66.781601c0.1914978,0.1701431,0.2560272,0.4604645,0.0630646,0.5382004
		c-0.2346039,0.0945282-0.1512909-0.2029419-0.1581421-0.3418808
		C202.1422119,66.9159241,202.2048035,66.8506851,202.2403412,66.781601z"></path>
</g>
<g onclick="select(this)" class="" id="c-gola-primaria" fill="#ffffff">
	<path d="M81.8580551,7.9835963c1.698204-1.3369398,3.3569641-2.7328925,4.6171494-4.4986877
		c1.2718124-1.7820867,3.0869598-2.4098542,5.0991058-2.7747858C92.253685,0.5869062,93.0128555,0.76786,93.6000061,0.24
		c8.0799942,0,16.1600037,0,24.2399979,0c2,0.2377515,4,0.3660933,6,0c6.0000076,0,12.0000076,0,18.0000076,0
		c0.9415283,0.4736482,2.0010071,0.450251,2.9966583,0.7015663c1.6403046,0.4140347,3.0483246,1.1346107,4.1073303,2.5050223
		c1.3052368,1.6890111,2.9615326,3.0213346,4.603302,4.3620772c-0.6371765,0.0417809-1.2813263,0.0328736-1.9083557,0.1320987
		c-5.9747009,0.9454899-11.9559937,1.8328524-18.0034943,2.1704445c-4.9721832,0.2775669-9.9312057,0.7544403-14.9111862,0.9240065
		c-4.359642,0.1484394-8.6846237-0.4226103-13.0308685-0.5542564c-1.3863983-0.0419931-2.7921371-0.0599957-4.1780319-0.225687
		c-4.423912-0.5289021-8.8516464-1.0324869-13.2653046-1.6377201C86.1238937,8.3259954,83.9861984,8.2174349,81.8580551,7.9835963z"></path>
</g>
<g onclick="select(this)" class="" id="c-detalhe-lateral" fill="#000000">
	<path d="M46.5984573,113.5769119c0.8586273,4.4725723,1.6386528,8.9526825,2.1321869,13.4882431
		c0.4988174,4.5840302,0.9441719,9.1669312,1.2411499,13.7693024c0.2026711,3.1408234,0.3176994,6.2842407,0.4969406,9.4238281
		c1.1673965,20.4485168,0.5023041,40.9126434,0.5072403,61.368454c0.0012054,4.9792328,0.1400795,9.9915161-0.3426857,14.9680328
		c-0.2672157,2.7546234-0.1237488,5.5084534-0.2022476,8.2616272c-0.1626434,5.7046967-0.2872086,11.4113617-0.5359116,17.1124725
		c-0.1807938,4.1444397-0.3410454,8.2883301-0.4768867,12.4345093c-0.1814423,5.5378113-0.4208069,11.0759583-0.7853661,16.6040955
		c-0.1076851,1.6329346-0.104599,3.2683716-0.2435493,4.897583c-0.0408897-0.0000305-0.0816765,0.0050354-0.1207237-0.0010681
		c-4.664753-0.7244263-5.2914047-1.6237793-4.8072586-6.7875366c0.2455597-2.6190491,0.5007591-5.2390442,0.656002-7.8642883
		c0.3797302-6.4214172,1.0538902-12.8269653,1.0024719-19.2732544c-0.0101089-1.2669983,0.1517448-2.5687103,0.4594231-3.7980652
		c0.6893005-2.7542725,0.1676331-5.4806976-0.0383072-8.2067108c-0.398571-5.2760162,0.1435127-10.4516907,1.5237236-15.5354919
		c0.6022377-2.2182312,0.099102-4.3840637-0.1206207-6.5354767c-0.7653923-7.4944611-0.4966202-14.919754,1.0929985-22.2820587
		c0.5638962-2.6116791,0.5894699-5.2269287,0.4373436-7.8679657c-0.2390671-4.1503906,0.1028595-8.3033752-0.0697708-12.4582062
		c-0.2371254-5.7073212-0.0024185-11.4295502-0.505806-17.1308594c-0.059536-0.6743317-0.1083908-1.3693542-0.0155907-2.0343018
		c0.7906189-5.6651917,0.3340569-11.3456421,0.0393906-16.9996185c-0.2931633-5.625061-0.5051308-11.2555923-0.8648415-16.8775024
		c-0.0749779-1.1717911-0.0390434-2.3641205-0.4846649-3.4865036c-0.1395721-1.1747971,0.3028183-2.3947144-0.2738876-3.5358276
		C46.667614,114.7276611,46.5722351,114.1412811,46.5984573,113.5769119z"></path>
	<path d="M186.8008728,284.9392395c-0.1229095-4.2257996-0.4434967-8.441803-0.5853119-12.6685486
		c-0.132309-3.943512-0.3239899-7.8874207-0.4886627-11.8312073c-0.1930847-4.6247253-0.3299561-9.2497711-0.4897461-13.8748932
		c-0.2287445-6.620636-0.4568634-13.2419586-0.7184143-19.8610077c-0.1642761-4.1574554-0.0362549-8.311203-0.1750793-12.4651031
		c-0.4915466-14.7080688-0.0657959-29.4214783-0.23526-44.1312561c-0.0644989-5.5982819,0.2369232-11.1859894,0.3261108-16.7791595
		c0.0780792-4.8951111,0.449295-9.792923,0.8777161-14.673172c0.5314331-6.0536957,1.2392578-12.0922852,1.917038-18.1322174
		c0.0797882-0.7109604,0.2413177-1.4891586,0.918335-1.9722366c-0.0214996,0.6485443,0.103653,1.3106155-0.1795807,1.9347534
		c-0.4635162,1.9399567-0.3752441,3.9355545-0.5561066,5.9021759c-0.8177032,8.8916855-0.9378052,17.8043594-0.4579926,26.7192764
		c0.2285919,4.2474823-0.2272034,8.4676514-0.3691559,12.6984711c-0.169281,5.0442505,0.2913513,10.0682678,0.2419891,15.1049805
		c-0.0278473,2.8404846-0.1205292,5.6720428-0.4734192,8.4955597c-0.2134399,1.7077484-0.2323456,3.4289703,0.0491791,5.1404724
		c0.0583344,0.3545074,0.1529388,0.72229,0.1134796,1.0706635c-0.3606415,3.1831207,0.5791473,6.1537933,1.4381714,9.1434631
		c1.7585297,6.1201935,1.8533173,12.3588104,1.3459167,18.6489716c-0.2750854,3.4103088-0.7511444,6.8083801-0.0207214,10.2524414
		c0.3602142,1.6984406,0.2653809,3.495163,0.1134796,5.2572479c-0.2055511,2.3844604-0.2533112,4.74617,0.1579437,7.1489716
		c0.7022552,4.102829,0.4032593,8.2912903,0.7608795,12.4349823c0.4912415,5.6921997,0.833374,11.3986511,1.1487122,17.1039734
		c0.1142731,2.0674438,0.3803711,4.1285095,0.2982178,6.2113953c-0.0435638,1.1039429-0.4625702,1.8201294-1.5064087,2.1775818
		C189.1212006,284.3831482,188.0046692,284.8197327,186.8008728,284.9392395z"></path>
</g>
<g onclick="select(this)" class="" id="c-detalhe-punho" fill="#000000">
	<path d="M0.24,116.1600037c0.69712-1.8766556,0.5781184-3.914978,1.1528097-5.8155289
		c0.0734786-0.2430038-0.0531212-0.5927124,0.3411709-0.674942c3.591774,0.6804352,7.182591,1.3671646,10.7761421,2.0392838
		c3.3273916,0.6223373,6.6449661,1.3125305,9.9897423,1.8229218c4.9343185,0.7529602,9.8997173,1.2014313,14.8977375,0.7378998
		c2.8144569-0.2610168,5.8852081,0.473999,8.1163673-2.1845627c0.466095,1.1234512,0.2772827,2.2217407,0.7851486,3.1454468
		c0.5767975,1.1409149,0.134407,2.3608322,0.2740402,3.5356293c-0.3884583,0.1947632-0.2289581,0.5572586-0.2394142,0.8502502
		c-0.0591583,1.6574707-0.1896095,1.720665-1.8397064,1.9825439c-7.4972954,1.1898422-14.97089,0.8450623-22.4534702-0.1684341
		c-7.0455074-0.9542923-14.0725622-1.9977951-21.0063133-3.5957413c-0.2685242-0.061882-0.5296699-0.1557846-0.7942533-0.2347641
		C0.24,117.1200027,0.24,116.640007,0.24,116.1600037z"></path>
	<path d="M187.9680176,120.4851913c0.2832336-0.6241379,0.1580811-1.2862091,0.1795807-1.9347534
		c0.8706818-1.24543,0.3438873-2.7464066,0.7416229-4.0813904c0.1100159-0.3692703,0.1113434-0.7709351,0.1621704-1.1568756
		c0.043335-0.3514709,0.0870361-0.703804,0.1307526-1.0565033c0.6301117,0.050354,1.0385132,0.4437943,1.4813538,0.7825012
		c2.4344788,1.8620453,5.0329895,2.9518051,8.2521515,2.9212112c4.6003265-0.0437393,9.146286-0.4244003,13.6932831-1.0205231
		c5.3256531-0.6981964,10.6680603-1.2800903,15.9414368-2.3284225c1.2098236-0.2404938,2.3986206-0.5868073,3.597168-0.8845367
		c0.20578,0.0669098,0.3428955,0.1936798,0.363327,0.4202957c0.1937408,2.1484528,0.6473236,4.2625885,0.7942657,6.4213028
		c0.0733948,1.0780487-0.3539429,1.4582367-1.3179474,1.6786728c-4.3675537,0.998703-8.7806244,1.7369766-13.2177277,2.3207779
		c-6.4241333,0.8452225-12.8670959,1.4513855-19.3621521,1.2750168c-2.9469299-0.0800476-5.8189697-0.4116745-8.3982391-2.0057831
		c-0.1339569-0.0827866-0.2849426-0.1598053-0.4374084-0.1872101
		C189.6062164,121.4754333,188.6012726,121.3994827,187.9680176,120.4851913z"></path>
</g>
</svg>
