<!--?xml version="1.0" encoding="utf-8"?-->
<!-- Generator: Adobe Illustrator 24.2.3, SVG Export Plug-In . SVG Version: 6.00 Build 0)  -->
<svg version="1.1" id="Camada_1" xmlns="http://www.w3.org/2000/svg" xmlns:xlink="http://www.w3.org/1999/xlink" x="0px" y="0px" viewBox="0 0 229 418" style="enable-background:new 0 0 229 418;" xml:space="preserve">
<style type="text/css">
	.st0{fill:#FD0202;}
	.st1{fill:#554C00;}
</style>
<g onclick="select(this)" class="" id="gola-primaria" fill="#011023">
	<path d="M78,8c0.8-0.1,1.3-0.6,1.8-1.1c0.8-0.7,1.6-1.4,2.2-2.2c2.4-3.4,5.9-4.1,9.6-4.1c10.8-0.1,21.7,0,32.5,0
		c3.7,0,7.4,0,11,0c2.1,0,4.1,0.4,6.1,0.9c1.2,0.3,2.2,1,3.1,2c1.5,1.8,3,3.7,5.1,4.9c1.9,0.9,2.2,2,1.6,4.7c-0.9,4-3.1,7.3-6,10.1
		c-3.2,3.1-6.7,5.8-10.6,8c-2.5,1.4-5,2.6-7.6,3.6c-4.9,1.8-10,2.5-15.3,2.1c-6.9-0.5-13.4-2.4-19.3-6.2c-4.7-3-9.1-6.2-12.5-10.7
		c-1.6-2.1-2.7-4.4-3.4-7C75.9,10.5,76.2,9.2,78,8z M144.3,9.1c-1.6,0.1-3.1,0.2-4.5,0.3c-8.3,0.7-16.6,1.3-25,1.5
		c-6.4,0.2-12.8-0.5-19.1-1C91.8,9.6,88,9.2,84.1,8.9C83.3,8.8,83,9,83.4,9.8c0.5,1.1,1,2.3,1.8,3.2c3.9,4.9,8.5,9,14.2,11.7
		c5.4,2.7,11.2,4.2,17.3,3.4c9.8-1.2,17.7-6,24.1-13.4C142.3,13.2,143.5,11.4,144.3,9.1z"></path>
</g>
<g onclick="select(this)" class="" id="estampa-primaria" fill="#011023">
	<path d="M229,116.1c-6.9,2.8-14,4.3-21.3,5.2c-6.2,0.8-12.4,0.7-18.6,0c-1.5-0.2-3.1-0.4-4.6-1.3c-0.2,2.1-0.4,4.1-0.6,6
		c-0.9,7.2-1.3,14.5-1.4,21.8c0,2.2,0.1,4.4,0.5,6.6c0.4,2-0.1,3.9-0.2,5.8c0,0.7-0.2,1.4-0.1,2.2c0.2,6.5-0.6,13.1,0,19.6
		c0.1,1.5,0,3-0.1,4.4c-0.3,3.1,0.2,6.1,0.9,9.1c1.6,7.2,1.4,14.5,0.3,21.8c-0.3,2.1-0.4,4.2,0.3,6.4c1.8,5.4,1.8,11,0.9,16.6
		c-0.2,1.5-0.3,2.9,0.1,4.4c0.9,3.8,0.4,7.7,0.6,11.6c0.3,5.9,0.7,11.8,1.4,17.7c0.3,2,0.2,4.1,0.3,6.2c0,1.7-0.4,2.2-2.1,2.7
		c-3,0.9-6.1,1.2-9.2,1.5c-7.7,0.8-15.4,0.9-23.1,1c-11.2,0.2-22.5,0.7-33.7,0.8c-12.5,0.2-24.9-0.8-37.4-0.8
		c-8.4,0-16.8-0.1-25.2-0.7c-4.1-0.3-8.3-0.8-12.4-1.7c-0.2,0-0.3-0.1-0.5-0.1c-3.4-0.8-3.7-1.2-3.5-4.7c0.5-7.7,1-15.5,1.5-23.2
		c0.1-2.1,0.3-4.1,0.2-6.2c0-1.8,0-3.5,0.4-5.3c0.4-2.3,0.5-4.5,0.1-6.8c-0.4-2.5-0.1-5,0.4-7.5c0.2-1,0.2-2,0.1-3
		c-0.3-4.5-1-9.1-0.8-13.6c0.2-4.4,1.2-8.5,2.7-12.6c0.4-1,0.6-2,0.4-3.1c-0.2-1.2-0.2-2.5,0.1-3.7c0.3-1.7,0.2-3.3,0.1-5
		c-0.2-3.3-0.2-6.5-0.2-9.8c-0.1-12.9,0-25.9-0.1-38.8c0-5.1-1-10.2-1.5-15.3c-0.1-1.3-0.3-2.6-0.5-3.8c-8.8,2.5-17.7,2-26.6,1.1
		c-4.7-0.5-9.4-1.3-14-2.8c-0.9-0.3-1.7-0.6-2.5-1.2c0-1,0-2.1,0-3.1c0.4-0.1,0.3-0.4,0.3-0.7c0.3-1.8,0.7-3.7,1-5.5
		c1.9-10,2.9-20.1,4.4-30.1c0.9-6,1.5-12,3.2-17.8c2.7-9.7,7.4-18.3,15.2-24.9c1.1-0.9,2.2-1.9,3.2-2.9c0.6-0.6,1.3-1,2-1.4
		c6.5-3.1,13.1-5.9,19.8-8.7c7.6-3.1,15-6.6,22.1-10.7c1-0.6,2-1.3,2.8-2.2C75.2,8.7,76.4,8,78,8c-1.7,1.3-2.1,2.5-1.5,4.8
		c0.7,2.5,1.8,4.8,3.4,7c3.3,4.5,7.8,7.8,12.5,10.7c5.9,3.7,12.4,5.7,19.3,6.2c5.2,0.4,10.3-0.4,15.3-2.1c2.7-1,5.2-2.2,7.6-3.6
		c3.9-2.2,7.4-4.9,10.6-8c2.8-2.8,5.1-6.1,6-10.1c0.6-2.7,0.2-3.8-1.6-4.7c1.8-0.1,3,1,4.1,2.2c0.3,0.3,0.4,0.7,0.8,0.9
		c4,2.3,7.9,4.8,12.1,6.7c10.4,4.7,21.1,8.8,31.5,13.6c0.7,0.3,1.3,0.7,1.9,1.2c1.1,0.9,2.1,1.8,3.2,2.7c3.7,2.9,6.8,6.3,9.4,10.2
		c4.3,6.6,6.7,13.9,8.3,21.6c1,4.9,1.2,9.8,2.4,14.7c1.5,5.7,2.6,11.5,3.5,17.4c0.5,3.6,1,7.3,1.7,10.8c0.2,0.8-0.2,1.9,0.8,2.5
		C229,113.7,229,114.9,229,116.1z"></path>
	<path d="M144.3,9.1c-0.8,2.3-2.1,4.1-3.5,5.8c-6.4,7.4-14.3,12.2-24.1,13.4c-6.1,0.7-11.8-0.8-17.3-3.4C93.8,22,89.1,18,85.2,13
		c-0.8-1-1.3-2.1-1.8-3.2c-0.4-0.9-0.1-1,0.7-0.9c3.9,0.4,7.7,0.8,11.6,1.1c6.4,0.5,12.7,1.2,19.1,1c8.3-0.2,16.7-0.8,25-1.5
		C141.3,9.3,142.7,9.2,144.3,9.1z"></path>
</g>
<g onclick="select(this)" class="" id="estampa-secundaria" fill="#71aad4">
	<path d="M40.5,273.4c0.2-1.9,0.4-3.8,0.6-5.8c0.6,0,1.1,0,1.7,0c47.4,0,94.8,0,142.2,0c0.5,0,1,0,1.6,0
		c0.3,2.3,0.3,4.6,0.7,6.8c0.1,0.4,0.1,0.9-0.1,1.3c-0.6,0-1.2,0-1.8,0c-47.5,0-94.9,0-142.4,0C40.3,275.7,40.6,276.2,40.5,273.4z"></path>
	<path d="M42.1,247.7c0-0.1,0.1-0.3,0.1-0.4c0.6,0,1.1,0,1.7,0c46.6,0,93.2,0,139.8,0c0.6,0,1.1,0,1.7-0.1
		c0.3,0.3,0.2,0.8,0.3,1.2c-0.1,0.6-0.1,1.3,0.1,1.9c0,0.7,0,1.3,0,2c-0.2,0.9-0.3,1.7-0.1,2.6c0,0.1,0,0.3,0,0.4
		c-0.5,0-1,0.1-1.6,0.1c-46.9,0-93.7,0-140.6,0c-0.3,0-0.6,0-1,0c-0.4,0-0.5-0.3-0.7-0.5c0.1-0.9,0.1-1.8,0.2-2.6
		C42.3,250.7,42.3,249.2,42.1,247.7z"></path>
	<path d="M185.7,257.5c0.2,2.6,0.4,5.3,0.6,7.9c-0.5,0-1,0.1-1.4,0.1c-47.4,0-94.8,0-142.2,0c-0.5,0-1-0.1-1.5-0.1
		c0-0.1,0-0.3,0-0.4c0.2-0.2,0.2-0.3,0-0.5c0.1-1.8,0.3-3.5,0.4-5.3c0.2-0.5,0.2-0.9,0.1-1.4c0-0.1,0.1-0.2,0.1-0.3
		c0.4,0,0.9,0,1.3,0c47.1,0,94.2,0,141.3,0C184.8,257.5,185.3,257.5,185.7,257.5z"></path>
	<path d="M187.3,277.7c0,0.8,0.1,1.7,0.1,2.5c0,2-0.3,2.4-2.2,3c-2.8,0.8-5.6,1.1-8.5,1.4c-8.6,0.9-17.2,0.9-25.9,1.1
		c-10.3,0.1-20.6,0.3-30.8,0.5c-12.7,0.2-25.4-0.6-38.1-0.6c-7.5,0-15-0.1-22.5-0.5c-5.2-0.3-10.3-0.8-15.3-1.9
		c-3.7-0.9-4-1.5-3.7-5.5c0.5,0,1,0,1.6,0c48,0,95.9,0,143.9,0C186.3,277.7,186.8,277.7,187.3,277.7z"></path>
	<path d="M183.4,219.8c-0.3,1.6,0.4,3,0.8,4.4c0.3,1,0.6,2.1,0.6,3.2c-0.5,0-1,0-1.6,0c-34.8,0-69.7,0-104.5,0
		c-11.8,0-23.7,0-35.5,0c-0.5-2.3-0.4-4.6-0.7-6.9c0.1-0.1,0.1-0.2,0-0.3c0-0.1,0-0.3,0-0.4c0.4,0,0.8-0.1,1.2-0.1
		C90.3,219.8,136.9,219.8,183.4,219.8z"></path>
	<path d="M185.3,237.9c0,0.6,0,1.3-0.1,1.9c-0.3,1.8-0.4,3.7,0,5.5c-0.4,0-0.7,0-1.1,0c-46.8,0-93.6,0-140.4,0
		c-0.4,0-0.9,0-1.3-0.1c0.1-1.1,0.2-2.3,0.4-3.4c0.2-1.4,0-2.7,0-4c0.4,0,0.8,0,1.2,0C91,237.9,138.1,237.9,185.3,237.9z"></path>
	<path d="M185.1,228.9c0.6,2.3,0.5,4.6,0.4,6.9c-0.5,0-1,0-1.6,0c-46.6,0-93.2,0-139.8,0c-0.5,0-1,0-1.6,0
		c-0.3-2.4,0-4.6,0.7-6.9c0.2,0,0.3,0,0.5,0c46.6,0,93.2,0,139.9,0C184.1,229,184.6,229,185.1,228.9z"></path>
	<path d="M42.5,218.1c0-0.1-0.1-0.3-0.1-0.4c0.1-1.7,0.4-3.3,0.3-5c0-0.8,0.1-1.1,0.9-1c0.1,0,0.2,0,0.2,0
		c46.8,0,93.6,0,140.4,0c-0.1,2.1-0.3,4.3-0.7,6.4C136.6,218.1,89.5,218.1,42.5,218.1z"></path>
	<path d="M184.5,204.2c0.1,1.7,0.2,3.4,0,5.1c-0.5,0-1,0.1-1.6,0.1c-46.2,0-92.5,0-138.7,0c-0.5,0-1,0-1.6-0.1
		c0.2-2.1,0.6-4.1,1.4-6.1c0.6,0,1.1,0,1.7,0c45.6,0,91.1,0,136.6,0c0.6,0,1.3,0,1.9,0c0.1,0.2,0.1,0.3,0.1,0.5
		C184.3,203.9,184.4,204.1,184.5,204.2z"></path>
	<path d="M183.3,195.4c0.4,1.8,0.7,3.6,0.9,5.4c-0.5,0-1,0.1-1.6,0.1c-9.6,0-19.2,0-28.8,0c-36.3,0-72.7,0-109,0
		c0.8-1.8,0.5-3.7,0.5-5.5c0.5,0,1,0,1.6,0c44.9,0,89.9,0,134.8,0C182.3,195.3,182.8,195.4,183.3,195.4z"></path>
	<path d="M45.6,188.9c0-0.4-0.1-0.8-0.1-1.2c0.1-0.3,0.1-0.5,0-0.8c0-0.1,0-0.2,0.1-0.3c45.1,0,90.2,0,135.2,0
		c0.6,0,1.1,0,1.7,0.1c-0.1,1.4-0.1,2.7,0.1,4.1c-0.1,0.3-0.1,0.5,0.1,0.7c0,0.1,0,0.3,0,0.4c-0.5,0-1,0-1.6,0
		c-44.6,0-89.2,0-133.8,0c-0.5,0-1,0-1.4-0.1c0-0.4,0-0.7,0-1.1C45.9,190.2,45.9,189.5,45.6,188.9z"></path>
	<path d="M45.4,178.4c0.4,0,0.8-0.1,1.2-0.1c45.1,0,90.1,0,135.2,0c0.2,0,0.4,0,0.6,0c0.1,1.4,0.1,2.9,0.2,4.3
		c-0.5,0-1,0-1.4,0c-44.7,0-89.3,0-134,0c-0.5,0-1,0-1.6,0c0-0.2-0.1-0.5-0.1-0.7c0.1-1,0.1-2.1-0.1-3.1
		C45.4,178.7,45.4,178.5,45.4,178.4z"></path>
	<path d="M182.4,173.8c-45.3,0-90.6,0-135.9,0c-0.4,0-0.7,0-1.1-0.1c0-0.1,0-0.3,0-0.4c0.3-0.5,0.2-1,0.1-1.5
		c0-0.6,0.1-1.3,0.1-1.9c0.5,0,1-0.1,1.4-0.1c44.8,0,89.6,0,134.3,0c0.4,0,0.8,0,1.2,0C182.7,171.2,182.5,172.5,182.4,173.8z"></path>
	<path d="M182.6,165.1c-0.5,0-1,0.1-1.4,0.1c-44.8,0-89.7,0-134.5,0c-0.4,0-0.9,0-1.3,0c0-0.4-0.1-0.8-0.1-1.2
		c0.1-0.6,0.2-1.1,0-1.7c0-0.1,0.1-0.2,0.1-0.3c0.6,0,1.2,0,1.8,0c44.7,0,89.3,0,134,0c0.5,0,1,0,1.6,0
		C182.6,163,182.6,164.1,182.6,165.1z"></path>
	<path d="M183.1,156.9c-0.5,0-1,0-1.6,0c-44.8,0-89.6,0-134.4,0c-0.6,0-1.1,0-1.7,0c-0.1-0.8-0.2-1.6-0.1-2.4
		c7,0,14,0,21,0c38.3,0,76.6,0,114.9,0c0.6,0,1.1,0,1.7-0.1C183.3,155.3,183.2,156.1,183.1,156.9z"></path>
	<path d="M182.4,148.6c-0.6,0-1.1,0-1.7,0c-44.5,0-89,0-133.5,0c-0.6,0-1.2,0-1.8,0c0-0.7,0-1.4,0-2.1
		c0.6,0,1.1-0.1,1.7-0.1c44.6,0,89.2,0,133.8,0c0.6,0,1.1,0.1,1.7,0.1c0,0.1,0,0.3,0,0.5c-0.2,0.4-0.2,0.8,0,1.2
		C182.5,148.3,182.5,148.4,182.4,148.6z"></path>
	<path d="M182.6,139.7c-45.6,0-91.2,0-136.8,0c-0.2,0-0.3,0-0.5,0c-0.1-0.6,0-1.1,0-1.6c31.2,0,62.4,0,93.6,0
		c14.1,0,28.2,0,42.2,0c0.5,0,1,0,1.6,0c0,0.1,0,0.3,0,0.4c-0.2,0.2-0.2,0.5,0,0.8C182.7,139.4,182.7,139.5,182.6,139.7z"></path>
	<path d="M183.4,130.8c-0.6,0-1.2,0-1.8,0c-45.7,0-91.3,0-137,0c0-0.1-0.1-0.2-0.1-0.3c0,0,0.1-0.1,0.1-0.1
		c0-0.1-0.1-0.1-0.1-0.2c0-0.2,0-0.3,0-0.5c0.5,0,1,0,1.6,0c45.3,0,90.6,0,135.9,0c0.5,0,1,0.1,1.6,0.1
		C183.4,130.2,183.4,130.5,183.4,130.8z"></path>
	<path d="M184.2,122.6c-0.6,0-1.1,0.1-1.7,0.1c-46.3,0-92.6,0-138.9,0c-0.2-0.2-0.2-0.5,0-0.7c0.6,0,1.1,0.1,1.7,0.1
		c45.6,0,91.3,0,136.9,0c0.7,0,1.4,0,2,0C184.2,122.2,184.2,122.4,184.2,122.6z"></path>
	<path d="M182.6,191.5c-0.2-0.2-0.2-0.5-0.1-0.7C182.7,191,182.7,191.3,182.6,191.5z"></path>
	<path d="M113.8,113.6c23.3,0,46.6,0,69.8,0c0.4,0,1.3-0.4,1.3,0.3c0,0.7-0.8,0.4-1.3,0.4c-46.5,0-93,0-139.5,0
		c-0.5,0-1.4,0.3-1.4-0.5c0-0.6,0.9-0.3,1.3-0.3C67.3,113.6,90.5,113.6,113.8,113.6z"></path>
</g>
</svg>
