<!--?xml version="1.0" encoding="utf-8"?-->
<!-- Generator: Adobe Illustrator 24.2.3, SVG Export Plug-In . SVG Version: 6.00 Build 0)  -->
<svg version="1.1" id="Camada_1" xmlns="http://www.w3.org/2000/svg" xmlns:xlink="http://www.w3.org/1999/xlink" x="0px" y="0px" viewBox="0 0 229 418" enable-background="new 0 0 229 418" xml:space="preserve">
<g onclick="select(this)" class="" id="detalhe-punho" fill="#801815">
	<path d="M43.3154755,120.5660324c-1.4355507,0.9719238-3.1036453,1.2496643-4.7561264,1.4678955
		c-6.7249794,0.8881226-13.4724941,0.7420044-20.2071953,0.1770859c-5.0925493-0.4271774-10.1221333-1.2906342-15.0371294-2.7495346
		C2.2495277,119.1452103,1.2605952,118.665741,0.24,118.2521973c0-1.1193542,0-2.2387161,0-3.3580704
		c0.5486878-1.013916,0.4496389-2.1613922,0.6660056-3.2437286c0.1129808-0.5651779,0.0608322-1.1747894,0.4776655-1.6509933
		c0.5223107,0.3816452,1.097532,0.671875,1.7198904,0.8264084c1.7042122,0.4231491,3.402638,0.891655,5.1287928,1.1999283
		c3.7223806,0.6647568,7.3449764,1.8807755,11.1703939,1.9861069c1.8743458,0.0515976,3.7485161,0.1686249,5.6183205,0.3134079
		c3.6989613,0.2864227,7.4015083,0.1185532,11.1025429,0.1539001c1.9179955,0.0183182,3.7075233-0.4855804,5.4632797-1.1675491
		c0.3865089-0.150116,0.6609917-0.2605591,0.7769508,0.2810745
		C42.8564644,115.8936157,43.3439445,118.1943893,43.3154755,120.5660324z"></path>
	<path d="M184.629776,120.3339005c-0.2430878-2.2250748,0.3524628-4.353035,0.7284698-6.5097427
		c0.1014557-0.5819016,0.306015-0.7070084,0.8614807-0.5922012c5.6474152,1.1671143,11.3917694,0.9484406,17.0656738,0.6848907
		c8.0842285-0.3754807,15.92099-2.3513718,23.569519-5.0004501c0.3325653-0.1151886,0.6316833-0.326828,0.9463959-0.4935226
		c0.846756,1.1987991,0.5564423,2.6714325,0.9425964,3.9882355c0.2302704,0.7852707,0.0896912,1.6713486,0.2314148,2.4921799
		c0.2250977,1.3037643-0.4503174,1.8661575-1.5581207,2.2358398c-5.7537537,1.920105-11.6115112,3.3484344-17.6209106,4.2630234
		c-5.4544983,0.8301239-10.9163971,0.6914978-16.3850403,0.6551743c-2.4737091-0.0164337-4.9351349-0.3196335-7.3445587-0.9341354
		C185.5209961,120.9840088,184.999527,120.7955399,184.629776,120.3339005z"></path>
</g>
<path d="M110.8693695,48.9228668c0.1762924-0.023571,0.263092,0.0835304,0.3273773,0.2237511
	C111.0420837,49.1388245,110.8634338,49.1658516,110.8693695,48.9228668z"></path>
<g onclick="select(this)" class="" id="estampa-primaria" fill="#021c3b">
	<path d="M43.3154755,120.5660324c0.0284691-2.3716431-0.4590111-4.6724167-0.9516335-6.9733505
		c-0.1159592-0.5416336-0.3904419-0.4311905-0.7769508-0.2810745c-1.7557564,0.6819687-3.5452843,1.1858673-5.4632797,1.1675491
		c-3.7010345-0.035347-7.4035816,0.1325226-11.1025429-0.1539001c-1.8698044-0.144783-3.7439747-0.2618103-5.6183205-0.3134079
		c-3.8254175-0.1053314-7.4480133-1.3213501-11.1703939-1.9861069c-1.7261548-0.3082733-3.4245806-0.7767792-5.1287928-1.1999283
		c-0.6223583-0.1545334-1.1975796-0.4447632-1.7198904-0.8264084c1.7932036-9.4621811,2.67781-19.0589294,4.2438087-28.5559235
		c0.8441892-5.1195831,1.1583543-10.316803,2.2550154-15.4061127c1.7680922-8.2052307,4.5233822-15.9794159,9.6139402-22.7770844
		c2.0456562-2.7316666,4.3404846-5.240078,7.0205536-7.3503761c1.4273224-1.1238823,2.477396-2.6746292,4.1114101-3.5436478
		c3.6025047-1.9159126,7.2584648-3.7254333,11.0307045-5.28339c9.9449806-4.1073265,19.921032-8.1443062,29.3457184-13.3891525
		c2.0102844-1.118721,4.0503998-2.1454039,5.6226578-3.9533529c0.8873672-1.0203838,2.1224518-1.8366318,3.6931229-1.4204988
		c-2.0108643,1.1796284-2.439743,2.2058954-2.0199966,4.4530277c0.4275513,2.2889194,1.4937973,4.2651157,2.7723083,6.1657696
		c5.5502777,8.2511082,11.9080429,15.8050308,19.1893234,22.5971069c3.0789642,2.872097,6.4627762,5.1818428,10.3784943,6.7113991
		c0.7296219,0.2850113,1.4053192,0.7671661,2.2481384,0.6932755l-0.0195007-0.0175781
		c-0.0059357,0.2429848,0.1727142,0.2159576,0.3275986,0.2236862c0.6926956,0.3319168,1.3995209,0.5992584,2.1911774,0.4788704
		c0.1675644-0.000515,0.3351364-0.00103,0.5027008-0.0015411c0.9370193,0.2686615,1.6577377-0.3968735,2.4910507-0.5761108
		c0.8983688-0.3311958,1.796051-0.6642799,2.6952209-0.9932899c5.258667-1.92416,9.1676788-5.6882591,13.1161346-9.452404
		c5.9939117-5.7141266,11.0227661-12.2141247,15.7610931-18.9537144c1.4871521-2.1152267,2.7719421-4.3775358,3.2985382-6.9872799
		c0.372467-1.8458881-0.0813293-3.1546144-1.6365662-4.2228565c1.689743-0.0080633,2.787796,1.0322161,3.800415,2.1853056
		c0.3409882,0.3882942,0.6674042,0.7393484,1.116394,1.0329866c10.0146484,6.5494308,21.2131042,10.5967216,32.1548157,15.1745586
		c3.9646301,1.6587296,7.8813324,3.4354458,11.7173004,5.3391037c2.1572418,1.0705643,3.9098053,2.9785423,5.7968903,4.5659981
		c7.7440948,6.5144882,12.2818298,14.9835739,14.937027,24.5909424c1.0978088,3.9723244,1.9447174,8.0021782,2.3507385,12.0990181
		c0.5504456,5.5546799,2.1298981,10.8914719,3.243454,16.3265305c1.266861,6.1833954,2.1013794,12.4376221,3.0679626,18.6702042
		c-0.3147125,0.1666946-0.6138306,0.378334-0.9463959,0.4935226c-7.6485291,2.6490784-15.4852905,4.6249695-23.569519,5.0004501
		c-5.6739044,0.2635498-11.4182587,0.4822235-17.0656738-0.6848907c-0.5554657-0.1148071-0.760025,0.0102997-0.8614807,0.5922012
		c-0.3760071,2.1567078-0.9715576,4.284668-0.7284698,6.5097427c-0.4395447,0.8079529-0.2937622,1.7098999-0.3952789,2.5685043
		c-0.9904785,8.3778839-1.7196045,16.7745209-1.7455292,25.2196808c-0.0067596,2.2003479,0.0678711,4.3850098,0.5240631,6.5554199
		c0.4012146,1.9087219-0.0424194,3.824707-0.2053833,5.7289886c-0.1811066,2.1159973-0.2472534,4.2288055-0.1484985,6.3471375
		c0.1008301,2.1621704-0.1491394,4.3112488-0.201355,6.4654999c-0.0686493,2.8334503-0.1219788,5.6729736,0.1280365,8.5079346
		c0.1475372,1.6729126,0.0890656,3.3505859-0.0995636,5.0267944c-0.3490601,3.1017303,0.1976471,6.1180725,0.8823853,9.132782
		c1.6445313,7.2402039,1.376709,14.5228577,0.3382416,21.8097839c-0.3054504,2.1432648-0.3711243,4.2084198,0.33078,6.3557587
		c1.7736206,5.4257813,1.8118896,11.0058594,0.9376068,16.6037598c-0.2313843,1.4815369-0.2441101,2.924942,0.0944519,4.391922
		c0.8729248,3.7824249,0.4466705,7.6405487,0.6409302,11.4634857c0.3019714,5.9425049,0.6891174,11.8815613,1.4377136,17.7932434
		c0.2543182,2.0083618,0.2190552,4.0569458,0.2554779,6.0882263c0.0326843,1.8235168-0.3323059,2.3253479-2.0823517,2.8504028
		c-3.0059357,0.901886-6.1241455,1.1565552-9.2253571,1.4766541c-7.6871338,0.7934875-15.4048157,0.8653259-23.1230621,1.0100403
		c-11.2351074,0.2105713-22.4662933,0.6520691-33.7017746,0.8132324
		c-12.4784012,0.1789856-24.9356842-0.8466187-37.4157257-0.8479919
		c-8.3975601-0.0009155-16.7974777-0.1001892-25.1780052-0.7355652c-4.1490288-0.3145447-8.2845459-0.7521667-12.3531036-1.6717529
		c-0.1949997-0.0440674-0.3914108-0.0827026-0.5848618-0.1327515c-3.2452545-0.839325-3.60149-1.1888428-3.4040909-4.5171509
		c0.4607124-7.7680969,1.009407-15.5311584,1.5535927-23.2940521c0.142662-2.0351257,0.2767639-4.0680084,0.2285728-6.1076813
		c-0.0426178-1.8038025,0.03442-3.5982361,0.3603058-5.374054c0.4145927-2.2592163,0.4561462-4.5098877,0.1247139-6.7920074
		c-0.264679-1.8225403-0.3195381-3.6938171,0.1233063-5.4887848c0.676609-2.7424774,0.4015732-5.4645386,0.1611404-8.211441
		c-0.3064613-3.501236-0.7323151-6.9971313-0.5579529-10.5271454c0.2109222-4.2702332,1.2140503-8.371933,2.6384811-12.3757019
		c0.3826904-1.0757294,0.6632652-2.0986328,0.4853249-3.2543335c-0.1889801-1.2274475-0.1528969-2.4721222,0.079216-3.7011414
		c0.3070526-1.6258392,0.1913109-3.2480927,0.1103516-4.8917236c-0.1628189-3.3054199-0.1816635-6.6195679-0.195446-9.9303894
		c-0.0538597-12.9391785-0.0427551-25.8787994-0.1403427-38.817627c-0.0386467-5.1235809-0.9980011-10.1754761-1.512352-15.2625809
		C43.6579247,123.2591858,43.4763603,121.9136505,43.3154755,120.5660324z"></path>
	<path d="M118.6460648,37.2008209c-3.3701782,0.0023422-6.7403717,0.0046844-10.1104202,0.0070038
		c-4.2255859-4.7959595-8.777092-9.2850685-13.1581726-13.9347305c-3.4844666-3.6980877-6.1815872-7.9202614-8.5695572-12.3653116
		c-0.2612915-0.4863997-0.5407562-0.9795322-0.5622482-1.558548c3.0596466,0.2729836,6.1170883,0.5771656,9.1797791,0.813076
		c8.3534698,0.6434383,16.702774,1.4236479,25.0988083,0.8302774c6.7656326-0.4781485,13.5331192-0.9303112,20.2997818-1.3940048
		c-0.3109283,1.6447992-1.2687531,2.9918385-2.0830841,4.3920069c-2.1966553,3.7769995-4.815094,7.2333136-7.8688354,10.3761835
		C126.7548981,28.6041565,122.7176437,32.9191399,118.6460648,37.2008209z"></path>
</g>
<g onclick="select(this)" class="" id="estampa-terciaria" fill="#ffffff">
	<path d="M130.3457031,285.9716492c-0.0043182-0.4395447-0.0123901-0.8790588-0.0123901-1.318573
		c-0.0005646-83.2555847-0.0003204-166.5111694-0.0050507-249.7667542
		c-0.0000305-0.5540085,0.0988617-1.1204491-0.1203003-1.6599159c0.2985687-0.2786407,0.5886536-0.5776596,1.0545654-0.5227089
		c-0.0043793,0.5994644-0.0125885,1.1989365-0.0125885,1.7984009c-0.0005798,83.3347702-0.0005035,166.6695404-0.0011292,250.004303
		c-0.0000153,0.4794922-0.0091553,0.9589844-0.014328,1.4385071
		C130.9442749,286.1619873,130.6474304,286.1474915,130.3457031,285.9716492z"></path>
	<path d="M97.9396439,33.4600487c-0.0179367,0.5983353-0.05159,1.1966743-0.0516052,1.7950096
		c-0.0023346,82.9692001-0.0021591,165.938385-0.0031357,248.9075928c-0.0000076,0.5192871-0.0140991,1.0385742-0.0221176,1.5578308
		c-0.2982178,0.1827698-0.5890503,0.181366-0.8717651-0.0325012c-0.003952-0.5193787-0.011673-1.0387573-0.0116806-1.5581665
		c-0.0005264-83.157486-0.0004807-166.3149872-0.0013885-249.4724884c-0.0000076-0.5592537-0.0131302-1.1185112-0.0201187-1.6777878
		C97.3656616,32.975296,97.6752396,33.1715889,97.9396439,33.4600487z"></path>
</g>
<g onclick="select(this)" class="" id="estampa-secundaria" fill="#801815">
	<path d="M129.1517792,33.6763268c-0.0247345,0.5565186-0.0710754,1.1130409-0.0710907,1.6695633
		c-0.0032043,83.1179657-0.0030365,166.2359314-0.0041809,249.3538818c0,0.4390869-0.0166168,0.8781738-0.0259399,1.3174744
		c-0.2471008,0.1551514-0.5017395,0.1421509-0.7598724,0.0365295c-0.0160828-0.4779663-0.0479279-0.9560547-0.0479431-1.4341431
		c-0.0021973-82.8612213-0.0017853-165.7224121-0.0080109-248.5836182
		c-0.0000458-0.6323433,0.1204987-1.2794838-0.1284332-1.8974571
		C128.3879547,33.8338852,128.6750641,33.5409317,129.1517792,33.6763268z"></path>
	<path d="M100.3662567,34.4415588c-0.2219162,0.5814285-0.1122818,1.1872864-0.1123276,1.7804871
		c-0.0056915,82.6843872-0.0053406,165.3687744-0.0072021,248.0531616
		c-0.0000153,0.5184631-0.0270462,1.0368958-0.0420837,1.5553894c-0.260704,0.1026001-0.5181046,0.0890808-0.7728043-0.0176697
		c-0.0089493-0.559082-0.0267487-1.1181946-0.0267563-1.6773376c-0.0012283-82.8097992-0.0009384-165.6196289-0.0061264-248.4294434
		c-0.0000381-0.5537453,0.1013947-1.1192474-0.1057358-1.6619339
		C99.7435074,33.927269,100.0944138,34.0778275,100.3662567,34.4415588z"></path>
	<path d="M125.9792175,285.6784668c0.0147552-0.4786072,0.0424194-0.9571838,0.0424347-1.4357605
		c0.0019073-82.5162048,0.0018921-165.0324097,0-247.5486298c-0.0000153-0.4785843-0.027626-0.9571686-0.0423279-1.4357414
		c-0.019928-0.1110115-0.0398788-0.2220345-0.059845-0.3330536c0.2410126-0.3550148,0.5729446-0.4720688,0.9861679-0.3763237
		c-0.227623,0.5390816-0.1163712,1.1058502-0.1164017,1.6584129c-0.0056992,82.7319565-0.0054016,165.4639282-0.0062943,248.1958923
		c0,0.5593567-0.0129623,1.1186829-0.0197296,1.6780396c-0.2535706,0.0017395-0.5072937,0.0035095-0.7596436,0.0053101
		c-0.0539322-0.0361328-0.1138611-0.0611572-0.1785965-0.0751953
		C125.9861145,285.9512634,126.0103912,285.8276978,125.9792175,285.6784668z"></path>
	<path d="M102.5910721,35.1334648c-0.2284393,0.5803261-0.1189804,1.1868401-0.1190186,1.780117
		c-0.0055771,82.4275208-0.0052795,164.8550415-0.0060577,247.2825623c0,0.5595093-0.0113068,1.1190186-0.0174561,1.6784973
		c-0.2486572-0.0036316-0.4971848-0.0072327-0.7459412-0.0108337c-0.0025787-19.8245544-0.0066605-39.6490936-0.0069275-59.4736176
		c-0.0008774-63.3106689,0.0000153-126.6213226-0.0059052-189.9319763
		c-0.0000534-0.5523224,0.1133881-1.1193199-0.1167374-1.6579514
		C101.9843445,34.6937981,102.3230667,34.8058624,102.5910721,35.1334648z"></path>
	<path d="M123.8410873,286.1318054c-0.0053711-0.5994263-0.01548-1.1988525-0.01548-1.7982788
		c-0.0007019-82.3768463-0.0004883-164.7536926-0.0045013-247.1305237c-0.0000305-0.5555573-0.0580902-1.1111145-0.0887985-1.666893
		c0.2638626-0.3444176,0.6195297-0.3681946,1.0049133-0.2884789c-0.2408066,0.5784035-0.1201172,1.1854439-0.120163,1.7774811
		c-0.0063095,82.471817-0.0059891,164.9436188-0.0064316,247.4154358c-0.0000076,0.5596313-0.0063553,1.1192322-0.0096054,1.6788635
		C124.3493881,286.2201843,124.0962372,286.2366638,123.8410873,286.1318054z"></path>
	<path d="M104.8175735,35.7313538c-0.3063431,0.5650177-0.1533813,1.1768227-0.1534424,1.7641678
		c-0.0080109,82.2611542-0.0075531,164.5223083-0.0088196,246.7834778
		c-0.0000076,0.5592041-0.0181885,1.1184692-0.0280228,1.6776733c-0.2547836,0.1758423-0.4937744,0.0818481-0.731102-0.0423889
		c-0.0055161-0.5193787-0.0156784-1.0387268-0.0156784-1.558075c-0.0007172-82.5147552-0.0006027-165.0295105-0.0020447-247.5442657
		c-0.0000076-0.4788857-0.0209503-0.9577637-0.0317001-1.4366837
		C104.2128525,35.3790283,104.5633392,35.4242058,104.8175735,35.7313538z"></path>
	<path d="M121.6407318,286.1916199c-0.0076752-0.5994263-0.022049-1.198822-0.0220566-1.7982483
		c-0.0009995-82.1504364-0.0005417-164.3008881-0.0088196-246.4513245
		c-0.0000687-0.6261101,0.1626434-1.2810173-0.1844559-1.8780899c0.2994003-0.3344383,0.658493-0.414463,1.0745239-0.2520981
		c-0.0301895,0.5554962-0.086792,1.1109924-0.0868149,1.6664886c-0.0039215,82.3391876-0.0037003,164.67836-0.0047455,247.0175323
		c-0.0000076,0.5593567-0.0150909,1.1186523-0.0232239,1.6779785
		C122.1411972,286.3583679,121.8932037,286.3688049,121.6407318,286.1916199z"></path>
	<path d="M107.0370636,36.183445c-0.3721695,0.5479317-0.1879654,1.1658936-0.1880341,1.7474327
		c-0.0096436,82.1173477-0.0091324,164.2346954-0.0103378,246.3520203
		c-0.0000153,0.5990601-0.0174408,1.1980896-0.0267181,1.7971191c-0.2360611,0.083252-0.4697342,0.087616-0.6997299-0.0212708
		c-0.0092316-0.5589294-0.0269318-1.1178894-0.0269394-1.6768799
		c-0.0012207-82.2424011-0.0009384-164.4848175-0.0065002-246.7272339c-0.0000381-0.5530205,0.107132-1.118824-0.107811-1.6602592
		C106.3980713,35.6543427,106.7212982,35.8979225,107.0370636,36.183445z"></path>
	<path d="M120.220787,37.9274445c-0.0034866,82.2258224-0.0032578,164.4516296-0.0044098,246.6774445
		c-0.0000076,0.5592651-0.0164871,1.1185303-0.0256119,1.6778259c-0.2348175,0.1147461-0.4729385,0.1152954-0.7142258,0.0228271
		c-0.0092468-0.5992126-0.026268-1.1983948-0.0262756-1.7975769c-0.0011749-82.0893555-0.0006943-164.1787109-0.0091248-246.2680664
		C119.4410782,37.6538925,120.2208176,37.3709946,120.220787,37.9274445z"></path>
	<path d="M109.0677032,38.1523438c-0.0072861,82.1503448-0.0069275,164.3006897-0.0073776,246.4510193
		c0,0.5196533-0.0064392,1.0393066-0.0095367,1.55896c-0.2461548,0.1182556-0.4857483,0.0776367-0.7219849-0.03125
		c-0.0102081-0.5589905-0.0300903-1.1180115-0.0301056-1.6770325c-0.0013733-82.1678009-0.001152-164.3356018-0.0047607-246.503418
		C108.2939148,37.394474,109.0677414,37.6039009,109.0677032,38.1523438z"></path>
	<path d="M111.3310471,38.4054642c-0.0029984,82.0758438-0.0027924,164.1516724-0.0044174,246.2275085
		c-0.0000153,0.5586853-0.0235138,1.1173096-0.0363922,1.6760254c-0.230072-0.0060425-0.4598083-0.0121765-0.6893768-0.018219
		c-0.011322-0.5990295-0.0328827-1.1980591-0.0328979-1.7970886c-0.0014954-82.0170593-0.0010223-164.0341339-0.0090485-246.0512085
		C110.5588608,37.8557053,111.3310699,37.8483505,111.3310471,38.4054642z"></path>
	<path d="M117.2028732,286.3360901c-0.0087814-0.5591736-0.025238-1.1182861-0.0252457-1.6774292
		c-0.0011368-82.0840607-0.0009384-164.1681519-0.003891-246.2521973c-0.0000229-0.5571823,0.7530899-0.5431175,0.7530365,0.045166
		c-0.0076752,82.0266495-0.0072861,164.0533142-0.0076523,246.0799561
		c-0.0000076,0.5996094-0.0052872,1.1991882-0.0078659,1.7987671
		C117.6752853,286.3322449,117.4390793,286.3341675,117.2028732,286.3360901z"></path>
	<path d="M113.5330811,38.3523254c-0.0001984,82.0630875-0.0003815,164.1261749-0.0010223,246.18927
		c-0.0000076,0.5993958-0.0065079,1.198761-0.0100021,1.7981567c-0.2533035-0.0014954-0.5065842-0.0029602-0.7599945-0.004425
		c-0.0029449-3.3567505-0.0081787-6.7135315-0.008194-10.0703125
		c-0.0004578-79.2843628-0.0003204-158.5687256-0.0013428-237.8530884
		C112.7525253,37.852684,113.5330811,37.8140907,113.5330811,38.3523254z"></path>
	<path d="M115.7218475,38.5321808c-0.0024719,82.6026688-0.003891,165.2053375-0.0052261,247.8079987
		c-0.2498245,0.0004578-0.4997635,0.000885-0.7496567,0.0013428c-0.0032959-1.8781738-0.0095215-3.7563477-0.0095444-5.6345215
		c-0.0008392-80.717392-0.0011368-161.4347839-0.0014267-242.1521759
		C114.9559937,37.9490318,115.7218704,37.9329643,115.7218475,38.5321808z"></path>
</g>
<g onclick="select(this)" class="" id="gola-primaria" fill="#021c3b">
	<path d="M116.381897,49.0477715c0.9636459-4.8089638,3.1056976-9.0236206,6.4560394-12.6026421
		c4.17379-4.4586735,8.4458771-8.8270798,12.5557861-13.343298c3.1049347-3.4118843,5.5716858-7.3001604,7.5047913-11.4869471
		c1.1612701-2.5151167,2.0049286-5.1494989,1.2373657-7.9960232c1.0215149,0.579803,1.5800476,1.6334033,2.4385681,2.3822198
		c0.9803619,0.8550615,1.8003998,1.9075398,3.041687,2.4371476c1.5554199,1.0682402,2.0092163,2.3769665,1.6367493,4.2228546
		c-0.5265961,2.6097441-1.8113861,4.8720531-3.2985382,6.9872799c-4.738327,6.7395897-9.7671814,13.2395878-15.7610931,18.9537144
		c-3.9484558,3.7641449-7.8574677,7.528244-13.1161346,9.452404
		C118.177948,48.3834915,117.2802658,48.7165756,116.381897,49.0477715z"></path>
	<path d="M82.7743149,4.5448394c-0.0166931,3.9794221,1.5683289,7.4199071,3.5216599,10.769886
		c2.7818604,4.770915,6.3688583,8.8787489,10.2087784,12.8014402c2.7669525,2.8265953,5.5028687,5.6848869,8.1998749,8.5781593
		c3.2402039,3.4760017,5.169342,7.6360779,6.1842422,12.2461243c-0.8428192,0.0738869-1.5185165-0.408268-2.2481384-0.6932793
		c-3.9157181-1.5295563-7.29953-3.8393021-10.3784943-6.7113991c-7.2812805-6.7920761-13.6390457-14.3459988-19.1893234-22.5971069
		c-1.278511-1.9006538-2.3447571-3.8768501-2.7723083-6.1657696c-0.4197464-2.2471323,0.0091324-3.2733994,2.0199966-4.4530277
		c1.2253876-0.542841,2.0059662-1.6151767,2.9658661-2.4759879C81.7761993,5.4046993,82.0902557,4.761116,82.7743149,4.5448394z"></path>
	<path d="M140.8240356,9.5985832c-6.7666626,0.4636936-13.5341492,0.9158564-20.2997818,1.3940048
		c-8.3960342,0.5933704-16.7453384-0.1868391-25.0988083-0.8302774c-3.0626907-0.2359104-6.1201324-0.5400925-9.1797791-0.813076
		c-0.7080841-1.3048449-0.8547058-2.723803-0.8089294-4.1702523c0.0253525-0.8010435,0.4879379-1.3244181,1.2209396-1.6196523
		c1.125473-0.4533081,2.3055878-0.6607053,3.5079956-0.6614058c15.6694565-0.0091302,31.3389206-0.0079172,47.0083847,0.0003197
		c1.1230621,0.0005903,2.2216339,0.2132609,3.2826538,0.5918701c0.9343262,0.3334045,1.4256592,0.9818466,1.4058533,1.9923222
		C141.8340759,6.9350324,141.5774231,8.3291445,140.8240356,9.5985832z"></path>
</g>
<g onclick="select(this)" class="" id="gola-secundaria" fill="#801815">
	<path d="M116.381897,49.0477715c-0.833313,0.1792374-1.5540314,0.8447723-2.4916306,0.5762138
		c-0.2429886-0.8100166,0.0134811-1.5773506,0.2099228-2.3466339c0.9254532-3.6241417,2.5626907-6.9285126,4.5458755-10.0765305
		c4.071579-4.2816811,8.1088333-8.5966644,12.2260513-12.8340473c3.0537415-3.1428699,5.6721802-6.599184,7.8688354-10.3761835
		c0.8143311-1.4001684,1.7721558-2.7472076,2.0830841-4.3920069c0.7533875-1.2694387,1.0100403-2.6635509,1.0385284-4.116147
		c0.0198059-1.0104756-0.4715271-1.6589177-1.4058533-1.9923222c-1.0610199-0.3786092-2.1595917-0.5912797-3.2826538-0.5918701
		c-15.6694641-0.0082369-31.3389282-0.00945-47.0083847-0.0003197c-1.2024078,0.0007005-2.3825226,0.2080977-3.5079956,0.6614058
		c-0.7330017,0.2952342-1.1955872,0.8186088-1.2209396,1.6196523c-0.0457764,1.4464493,0.1008453,2.8654075,0.8091202,4.1703057
		c0.0213013,0.5789623,0.300766,1.0720949,0.5620575,1.5584946c2.38797,4.4450502,5.0850906,8.6672239,8.5695572,12.3653116
		c4.3810806,4.649662,8.9325867,9.1387711,13.1583099,13.9347115c2.2260818,3.3094826,3.8987961,6.8636017,4.8087921,10.7629395
		c0.1308823,0.5608521,0.1703644,1.0992241,0.0435715,1.6546783c-0.7916565,0.120388-1.4984818-0.1469536-2.1913986-0.4788055
		c-0.0642853-0.1402206-0.1510849-0.2473221-0.3273773-0.2237511c0,0,0.0195007,0.0175781,0.0195007,0.0175819
		c-1.0149002-4.6100464-2.9440384-8.7701225-6.1842422-12.2461243c-2.6970062-2.8932724-5.4329224-5.751564-8.1998749-8.5781593
		c-3.83992-3.9226913-7.426918-8.0305252-10.2087784-12.8014402c-1.953331-3.3499784-3.538353-6.7904634-3.5216599-10.769886
		c0.3887329-1.9640388,2.3138046-3.5002825,4.8151779-3.8288832c1.3080978-0.1718415,2.6194916-0.2685983,3.9428711-0.2676472
		c14.7557983,0.0106048,29.5116043,0.0095289,44.2674103,0.0041322c1.6841431-0.000616,3.3609924,0.0772934,4.9909973,0.5180932
		c1.4780121,0.3996955,2.6998138,1.1730733,3.345108,2.6483269c0.7675629,2.8465242-0.0760956,5.4809065-1.2373657,7.9960232
		c-1.9331055,4.1867867-4.3998566,8.0750628-7.5047913,11.4869471c-4.1099091,4.5162182-8.3819962,8.8846245-12.5557861,13.343298
		C119.4875946,40.0241508,117.3455429,44.2388077,116.381897,49.0477715z"></path>
</g>
<g onclick="select(this)" class="" id="gola-terciaria" fill="#ffffff">
	<path d="M113.3881454,49.6254234c0.1267929-0.5554543,0.0873108-1.0938263-0.0435715-1.6546783
		c-0.909996-3.8993378-2.5827103-7.4534569-4.8089294-10.7629204c3.3700485-0.0023193,6.740242-0.0046616,10.1104202-0.0070076
		c-1.9831848,3.1480217-3.6204224,6.4523926-4.5458755,10.0765343c-0.1964417,0.7692833-0.4529114,1.5366173-0.2099228,2.3466339
		C113.7232819,49.6243935,113.5557098,49.6249084,113.3881454,49.6254234z"></path>
</g>
</svg>
