<!--?xml version="1.0" encoding="utf-8"?-->
<!-- Generator: Adobe Illustrator 24.2.3, SVG Export Plug-In . SVG Version: 6.00 Build 0)  -->
<svg version="1.1" id="Camada_1" xmlns="http://www.w3.org/2000/svg" xmlns:xlink="http://www.w3.org/1999/xlink" x="0px" y="0px" viewBox="0 0 229 418" enable-background="new 0 0 229 418" xml:space="preserve">
<g onclick="select(this)" class="" id="gola-primaria" fill="#021c3b">
	<path d="M77.9566269,7.9643593c0.5433121-0.0630779,0.9717407-0.3532591,1.350502-0.7165484
		c0.9514694-0.9126143,2.0431442-1.7269812,2.8063507-2.778368c1.8071671-2.4894934,4.3550568-3.3576338,7.2143021-3.7527018
		C89.9563141,0.6298947,90.6858826,0.8174522,91.2000046,0.24c1.1999969,0,2.4000015,0,3.5999985,0
		c0.1686554,0.4914433,0.5990219,0.3124902,0.913765,0.3136448c5.5784302,0.0204637,11.156929,0.0201891,16.7353897,0.0350896
		c0.4080505,0.0010899,0.7728119-0.0504993,1.0708466-0.3487343c7.5200043,0,15.0400085,0,22.5599976,0
		c0.0817719,0.475216,0.489212,0.3141541,0.760376,0.3591558c0.9005127,0.1494493,1.8086853,0.251949,2.7122498,0.3838596
		c2.1177368,0.3091633,3.8966217,1.1323714,5.2497864,2.9209824c1.2646942,1.6716552,2.696106,3.2340288,4.5595093,4.3031478
		c1.3345947,0.5578804,1.9425354,1.5266333,1.8510895,3.0015402c-0.2146454,3.4615307-1.8750305,6.2802496-3.7983398,9.025279
		c-0.657135,0.9378853-1.1162872,0.7764244-1.8544006,0.1728249c-1.4842682-1.2137508-2.984375-2.4184208-4.5635376-3.5020809
		c-0.9918976-0.6806717-1.0931549-1.1222725-0.2361145-2.0526142c1.5060425-1.6348286,2.6971741-3.510664,3.5267029-5.7606192
		c-3.8045959,0.2949562-7.4219208,0.6110954-11.0444489,0.8482122c-6.0543365,0.3962965-12.1088486,0.811388-18.1692657,1.0873117
		c-4.8736572,0.2218914-9.7277451-0.3653784-14.5817413-0.7113132C95.1534195,9.9352255,89.8248367,9.4127893,84.4946442,8.922883
		c-1.3387833-0.1230497-1.4493866-0.0357189-0.9412537,1.1946383c0.8055038,1.9504185,2.0682983,3.5924397,3.4846725,5.1298161
		c0.4235992,0.4597979,0.8041306,0.8782597,0.0605392,1.4501514c-1.7737122,1.3641453-3.5175934,2.7680473-5.2473907,4.1877403
		c-0.5393295,0.4426384-0.8568649,0.3148384-1.2625885-0.1770668c-1.9891205-2.4115868-3.5237122-5.0736027-4.1546249-8.1455193
		C76.0773849,10.8262997,75.9796066,9.0069094,77.9566269,7.9643593z"></path>
</g>
<g onclick="select(this)" class="" id="estampa-primaria" fill="#ffffff">
	<path d="M43.1577797,120.4319763c-0.1331444-2.2575073-0.2330475-4.5158005-0.6140976-6.7538605
		c-0.1032143-0.6061935-0.2480927-0.7635117-0.8195343-0.5151901c-2.5753326,1.119133-5.3683243,1.2036667-8.0832443,1.458252
		c-2.4830379,0.2328491-5.0145454-0.0454788-7.5244999-0.1064301c-4.3427734-0.1054459-8.6874218-0.2220306-12.9771452-0.9888382
		c-3.4181538-0.6110153-6.766901-1.4842224-9.9895649-2.8108902c-0.6405647-0.2637024-1.1955985-0.6281204-1.7463299-1.0219345
		c1.7879728-9.4235535,2.6640635-18.9825058,4.2230082-28.4415283C6.4767475,76.091835,6.7928009,70.8532791,7.9045849,65.725502
		c1.7700176-8.1636887,4.5197229-15.8993645,9.5808334-22.6658669c2.0926247-2.7977562,4.4556618-5.3477936,7.1953869-7.5122299
		c1.3634644-1.0771637,2.3610077-2.5717964,3.9242687-3.3982277c3.6051579-1.9058933,7.254427-3.7267208,11.025732-5.281601
		c9.9814262-4.1152573,19.9857483-8.1783485,29.4420929-13.4409914c1.9731445-1.0980968,4.0107269-2.0738554,5.5131912-3.8971462
		c0.8112564-0.9844913,1.9984894-1.5786386,3.3706741-1.5650768c-1.9771576,1.0425472-1.8793793,2.8619375-1.5227661,4.5982809
		c0.6309128,3.0719166,2.1655045,5.7339325,4.1546249,8.1455193c0.4057236,0.4919052,0.723259,0.6197052,1.2625885,0.1770668
		c1.7297974-1.419693,3.4736786-2.823595,5.2473907-4.1877403c0.7435913-0.5718918,0.36306-0.9903536-0.0605392-1.4501514
		c-1.4163742-1.5373764-2.6791687-3.1793976-3.4846725-5.1298161c-0.5081329-1.2303572-0.3975296-1.317688,0.9412537-1.1946383
		c5.3301926,0.4899063,10.6587753,1.0123425,15.9972229,1.3928032c4.8539963,0.3459349,9.7080841,0.9332047,14.5817413,0.7113132
		c6.0604172-0.2759237,12.1149292-0.6910152,18.1692657-1.0873117c3.6225281-0.2371168,7.2398529-0.553256,11.0444489-0.8482122
		c-0.8295288,2.2499552-2.0206604,4.1257906-3.5267029,5.7606192c-0.8570404,0.9303417-0.7557831,1.3719425,0.2361145,2.0526142
		c1.5791626,1.0836601,3.0792694,2.2883301,4.5635376,3.5020809c0.7381134,0.6035995,1.1972656,0.7650604,1.8544006-0.1728249
		c1.9233093-2.7450294,3.5836945-5.5637484,3.7983398-9.025279c0.0914459-1.4749069-0.5164948-2.4436598-1.8510895-3.0015402
		c1.805069-0.1290302,2.9675446,0.9602423,4.0461426,2.170207c0.3426666,0.3844185,0.6612396,0.7431192,1.1118469,1.0379772
		c10.0123901,6.551692,21.2060242,10.6058836,32.1462097,15.183404c3.9640808,1.6586246,7.7821655,3.6280708,11.7518158,5.2684746
		c1.1912231,0.4922543,1.9363098,1.6271305,2.9542084,2.3864155c3.5424194,2.6424065,6.7263947,5.6513519,9.3942413,9.1925812
		c4.8312988,6.412899,7.5744629,13.7281952,9.3175507,21.4774704c0.6493683,2.8869781,1.1865082,5.7985992,1.4688416,8.7432404
		c0.5558167,5.797142,2.2962189,11.3504105,3.422226,17.02948c1.0884094,5.4892731,1.701889,11.0551376,2.752655,16.5493011
		c0.0593719,0.3103943,0.0376434,0.6363068,0.0537109,0.9550934c-3.2987213,1.3235931-6.6597748,2.4349976-10.1315613,3.2337265
		c-3.0367279,0.6986465-6.1237183,1.0777283-9.1846924,1.6170425c-3.0667725,0.540329-6.1685028,0.7683411-9.2889404,0.7493134
		c-4.2289276-0.0257874-8.4828186,0.2864685-12.6547546-0.5902405c-1.20401-0.2530289-1.4316864,0.1222992-1.6246643,1.1130066
		c-0.3781281,1.9411774-0.3158417,3.8887177-0.2612,5.8419342c-0.5772858,2.0070114-0.5196991,4.0956879-0.7766418,6.1436005
		c-0.8968658,7.1481628-1.2922211,14.3308716-1.3661346,21.5326996c-0.0230255,2.241272,0.053009,4.4675293,0.5191193,6.6785278
		c0.4026031,1.9098053-0.0408325,3.8264618-0.2037506,5.7315216c-0.1810303,2.1169586-0.2709503,4.2322845-0.1436157,6.3496399
		c0.1518555,2.5260468-0.2313538,5.0304565-0.2312164,7.5479889c0.0001373,2.5981293-0.0803833,5.1981659,0.181427,7.7913666
		c0.2425995,2.4028473-0.2098846,4.7868652-0.2297363,7.1856842c-0.0187836,2.2715912,0.5240326,4.4370728,1.0009155,6.6177368
		c1.5867004,7.2556152,1.3607025,14.5335388,0.3235474,21.824173c-0.3049164,2.1434021-0.3761597,4.2101135,0.3256531,6.3586731
		c1.7730713,5.4281464,1.8151703,11.0104218,0.9422455,16.6113586c-0.2309113,1.4814911-0.2516632,2.9259796,0.0901947,4.3939362
		c0.8995667,3.862915,0.4402161,7.8049011,0.6498108,11.7084808c0.3148804,5.8646545,0.692749,11.7265015,1.4283295,17.5618286
		c0.2582855,2.0488892,0.2250519,4.1386719,0.2561798,6.2108154c0.0260468,1.7346802-0.3510437,2.2309265-2.0608063,2.7463684
		c-3.0047913,0.9057922-6.1231079,1.1577759-9.223526,1.4821472c-8.3242798,0.8709412-16.6839905,0.8759155-25.0397491,1.0395508
		c-11.5935516,0.2269592-23.1844864,0.7744751-34.7773209,0.7973022c-11.5119324,0.0226746-23.0146637-0.800293-34.5328903-0.855072
		c-8.3569794-0.0397644-16.7155609-0.1084595-25.0554161-0.7390137c-4.2688141-0.3227844-8.5254021-0.7648926-12.7032623-1.7471924
		c-3.5191689-0.8274536-3.8727531-1.1688538-3.6649704-4.7828064c0.4422684-7.692627,0.9992447-15.3787842,1.5412292-23.0653381
		c0.1435623-2.0360107,0.2814865-4.0697174,0.2325592-6.1102753c-0.0442352-1.8449707,0.0390892-3.6795807,0.3708687-5.4958344
		c0.4056892-2.2208862,0.4405899-4.4328766,0.1157837-6.6756897c-0.3647766-2.5188141-0.1090546-5.0327759,0.4354477-7.5070496
		c0.2281456-1.0367126,0.1938744-2.0496063,0.1175346-3.0926819c-0.332428-4.5425568-1.0252762-9.0645905-0.8247719-13.6387939
		c0.189064-4.3131561,1.2074547-8.4562988,2.6664658-12.4943695c0.3753433-1.0388489,0.6211166-2.0308075,0.4566879-3.1429596
		c-0.1816826-1.2288818-0.1624031-2.4731903,0.0706406-3.7033234c0.3156853-1.6663513,0.1932678-3.328949,0.1094208-5.0132446
		c-0.1646271-3.3068085-0.1753082-6.6228333-0.1888924-9.935318c-0.0529137-12.9051971-0.041748-25.8108063-0.1397247-38.7156219
		c-0.0395241-5.2062378-0.9890976-10.3417664-1.5522079-15.5062332
		C43.6154823,122.9787064,43.7590141,121.6430893,43.1577797,120.4319763z"></path>
</g>
<g onclick="select(this)" class="" id="detalhe-punho" fill="#021c3b">
	<path d="M0.24,114.7200012c0.5644144-1.1200256,0.4030076-2.3887405,0.7285303-3.5580292
		c0.1369813-0.4920425,0.1239579-1.0281448,0.434833-1.4688873c0.5507314,0.3938141,1.1057652,0.7582321,1.7463299,1.0219345
		c3.2226641,1.3266678,6.5714111,2.1998749,9.9895649,2.8108902c4.2897234,0.7668076,8.6343718,0.8833923,12.9771452,0.9888382
		c2.5099545,0.0609512,5.0414619,0.3392792,7.5244999,0.1064301c2.71492-0.2545853,5.5079117-0.339119,8.0832443-1.458252
		c0.5714417-0.2483215,0.71632-0.0910034,0.8195343,0.5151901c0.3810501,2.23806,0.4809532,4.4963531,0.6140976,6.7538605
		c-0.5687408,0.5572357-1.3228264,0.7422333-2.046627,0.9218826c-2.2505684,0.5586166-4.5424194,0.9628906-6.8576736,1.0065155
		c-7.585247,0.1429214-15.1709824,0.225235-22.6801262-1.1807327c-3.0540991-0.5718384-6.0998974-1.1686096-9.0522776-2.1537399
		c-0.7788508-0.2598801-1.5216964-0.6276627-2.2810755-0.9459C0.24,116.9600067,0.24,115.840004,0.24,114.7200012z"></path>
	<path d="M184.6355591,120.1655731c-0.0546417-1.9532166-0.1169281-3.9007568,0.2612-5.8419342
		c0.1929779-0.9907074,0.4206543-1.3660355,1.6246643-1.1130066c4.171936,0.876709,8.425827,0.5644531,12.6547546,0.5902405
		c3.1204376,0.0190277,6.222168-0.2089844,9.2889404-0.7493134c3.0609741-0.5393143,6.1479645-0.918396,9.1846924-1.6170425
		c3.4717865-0.7987289,6.83284-1.9101334,10.1315613-3.2337265c1.0003052,2.4319,1.2690125,4.9805756,1.1668091,7.5787506
		c-0.0299225,0.7608948-0.7602081,0.8617783-1.2806091,1.065834c-2.5613708,1.0042648-5.226532,1.6836243-7.8749542,2.4055634
		c-9.0441284,2.4652786-18.2762604,3.0461731-27.5913696,2.5964508c-2.0578613-0.0993423-4.1311188-0.3100586-6.1351166-0.890358
		C185.5271606,120.8009644,184.999115,120.6344452,184.6355591,120.1655731z"></path>
</g>
<g onclick="select(this)">
	<image overflow="visible" width="844" height="408" xlink:href="276E78EE.jpg" transform="matrix(1 0 0 1 -7894 -7770.1103516)">
	</image>
</g>
<g onclick="select(this)" class="" id="estampa-secundaria" fill="#f6d101">
	<path d="M161.8733215,134.8813477c1.8543854,1.6996765,3.6966705,3.4128571,5.5713348,5.089859
		c0.4886475,0.4371033,0.5886536,0.6762238,0.0137024,1.1652679c-1.6425171,1.3971405-3.2026978,2.8906555-4.8292236,4.307251
		c-0.5503693,0.4793243-0.7319489,0.7768402-0.0818481,1.3720551c1.6791992,1.5374756,3.3012238,3.1394043,4.903244,4.7580109
		c0.5622711,0.5681,0.9402313,0.4937286,1.4712067-0.0255585c1.6566772-1.6202393,3.3325653-3.2223358,5.045517-4.782608
		c0.5306396-0.4833069,0.3495941-0.712677-0.0773315-1.0890045c-1.6481781-1.4528351-3.2279968-2.9864349-4.9204102-4.3844757
		c-0.797699-0.6589661-0.5494537-0.9724579,0.0644226-1.5137634c1.9154663-1.6890564,3.7860718-3.4289551,5.674057-5.1491547
		c0.4547729-0.3759613,0.9172668-0.7429962,1.3630676-1.129303c2.604599-2.2570496,5.0404663-4.7048035,7.743866-6.8502579
		c-0.2729187,2.975914-0.6149902,5.9474411-0.8041229,8.9286728c-0.3765259,5.9356537-0.7967377,11.8862457-0.1118774,17.8168488
		c0.2508087,2.1718292,0.2530212,4.2911835-0.02211,6.4297485c-0.4607239,3.5814667-0.0052338,7.1788635-0.2303467,10.7627563
		c-0.0749512,1.1933136-0.1759033,2.3849945-0.264801,3.5775299c-0.745636,0.6504211-1.489502,1.3029175-2.2375793,1.9505615
		c-1.9406738,1.6800995-3.7247162,3.5377808-5.7747803,5.0938721c-1.8079071-1.7517548-3.5986023-3.5218811-5.4342957-5.2440033
		c-0.5457001-0.5119171-0.6548767-0.8029785-0.0224152-1.3690491c1.7274628-1.5460815,3.3654633-3.1916809,5.0691528-4.7650757
		c0.4313202-0.3983307,0.4374084-0.6073761-0.0114899-0.9991302c-1.6868439-1.4721222-3.3565979-2.9655304-4.9886932-4.4978638
		c-0.621048-0.5830994-1.076416-0.5794678-1.6901398,0.0002136c-1.5404663,1.4550018-3.0983582,2.8950195-4.7119446,4.2673492
		c-0.5893707,0.5012817-0.5971527,0.7598419-0.0477295,1.2778625c1.5711975,1.4813385,3.0238037,3.094635,4.6538391,4.5049133
		c0.8935547,0.7731018,0.6411133,1.1416931-0.0476685,1.7973938c-1.7076721,1.6256256-3.3462219,3.3238831-5.0125427,4.9929504
		c-0.5354919,0.075119-0.7611847-0.3836212-1.0674133-0.659256c-3.6472931-3.2829132-7.2752228-6.5872803-10.9189453-9.8741302
		c-4.293808-3.8732147-8.5981293-7.734787-12.8978729-11.6014252c-0.4393768-0.2940216-0.9334869-0.151413-1.3999786-0.151535
		c-28.1281509-0.0075684-56.2563095-0.0121307-84.3844376,0.0157776c-0.9705429,0.0009613-1.6206512-0.2627716-2.2455788-1.0024109
		c-1.2350807-1.4618378-2.575161-2.8349762-3.8718376-4.2447662c0.0104561-1.2028046,0.020916-2.4056244,0.0314217-3.6085968
		c2.8234215-0.3272705,5.6467896-0.6544037,8.7077332-1.0090637c-3.0401764-2.6660156-5.8793449-5.1557465-8.7185211-7.6454926
		c-0.0001526-0.299408-0.0003128-0.5987854-0.0003052-0.8986511c3.5899582-0.227005,7.1797485-0.453537,10.2917862-0.6499329
		c-2.5158081-2.7071991-5.151123-5.543808-7.7877655-8.3791809c-0.3010178-0.3237-0.6742554-0.3637543-1.0988884-0.3186646
		c-0.7134972,0.0757599-1.4321976,0.1026001-2.1487083,0.1500397c-0.1420631-0.9100037-0.2841263-1.8200073-0.426281-2.7310944
		c1.0932541,0.2682343,1.7774124,1.1726532,2.6825752,1.7349701c0.3698235,0.2297211,0.6698875,0.5485687,1.1745491,0.4862671
		c3.6243401-0.4474945,7.2504959-0.8802032,11.0948448-1.3439941c-3.0861168-2.7305603-6.0261154-5.3318329-8.9661064-7.9330902
		c0.0158882-0.0964966,0.0317802-0.1929932,0.0476685-0.2894897c4.2064209,0,8.4128342,0,12.6188965-0.0001526
		c0.4998055,0.2029724,1.0251579,0.1301651,1.5411682,0.1302109c27.0585632,0.0026398,54.1171265,0.0053635,81.1756668-0.0127945
		c0.8126221-0.0005417,1.4263611,0.2032623,2.0320892,0.7592392c3.0911255,2.8372421,6.2125092,5.6416855,9.3373413,8.4419327
		C158.5618896,132.0036774,160.2241211,133.4352417,161.8733215,134.8813477z M174.4312897,158.0666504
		c-0.1351929-0.145752-0.2364502-0.2674103-0.3503265-0.3757935c-1.7616425-1.6768494-3.5343781-3.3421783-5.281723-5.033783
		c-0.4817505-0.4663849-0.8383636-0.4165497-1.2935638,0.0353546c-1.6693115,1.6572876-3.3501587,3.3036804-5.058548,4.9204712
		c-0.4650726,0.4401398-0.4615021,0.6921692,0.023056,1.1149902c1.6516113,1.4411774,3.2733307,2.9171906,4.8857727,4.4023285
		c0.5267029,0.4851227,0.9573669,0.554657,1.5206604,0.0321655c1.6657715-1.5450592,3.3684692-3.0502777,5.0535126-4.5746155
		C174.1040802,158.4304199,174.2566528,158.2493896,174.4312897,158.0666504z"></path>
	<path d="M43.237854,120.5011597c-0.1532707-1.7735519-0.3065414-3.5471039-0.485775-5.621048
		c2.4317245,2.1827698,4.6695366,4.1914902,7.1310883,6.4010315c-2.3116035,0.2084503-4.3519592,0.3924484-6.3922462,0.5762863
		C43.4066124,121.4052429,43.3222313,120.9532013,43.237854,120.5011597z"></path>
</g>
<path d="M182.4307098,186.2645874c0.0508575-0.0930634,0.1016998-0.1861267,0.1523895-0.2788239
	C182.5321808,186.0789642,182.4814453,186.1717834,182.4307098,186.2645874z"></path>
<g onclick="select(this)" class="" id="estampa-terciaria" fill="#021c3b">
	<path d="M137.2411499,159.0404053c4.2997437,3.8666382,8.6040649,7.7282104,12.8978729,11.6014252
		c3.6437225,3.28685,7.2716522,6.591217,10.9189453,9.8741302c0.3062286,0.2756348,0.5319214,0.734375,1.0676575,0.6593933
		c1.8839569,1.724762,3.7723236,3.4443359,5.6469574,5.1787567c0.3356476,0.3105164,0.5818634,0.4395905,0.9841919,0.0601807
		c1.8562317-1.750351,3.7391815-3.4724121,5.6125488-5.2046204c2.0500488-1.5561066,3.8340912-3.4137878,5.774765-5.0938873
		c0.7480774-0.647644,1.4919434-1.3001404,2.2375793-1.9505615c-0.0363312,3.9419861,0.4368286,7.875412,0.2014313,11.8205414
		c-0.0506897,0.0926971-0.101532,0.1857605-0.1523895,0.2788239c0.0000153,0.0000153-0.0018768,0.0041962-0.0018158,0.0041046
		c-2.2341919,1.9929504-4.4892426,3.9634857-6.6886444,5.9942932c-0.5747528,0.5307312-0.8907166,0.6404724-1.5152893,0.0350037
		c-1.721405-1.6687469-3.557785-3.2185364-5.2905273-4.8761902c-0.5476074-0.5238647-0.8286285-0.4599457-1.3367462,0.0274048
		c-1.673111,1.6048279-3.4350281,3.1177521-5.0918579,4.7385559c-0.6585236,0.6442108-1.0399933,0.6412354-1.7253418,0.0161438
		c-8.4480591-7.7050629-16.934494-15.368042-25.3843994-23.0710754c-0.7054138-0.6430817-1.4015045-0.8835754-2.3447418-0.882782
		c-27.432785,0.0230255-54.865593,0.0136414-82.2983551,0.0392303c-0.9636917,0.000885-1.6246605-0.2290955-2.2360153-1.007019
		c-0.9836311-1.2516327-2.1049881-2.3950348-3.1681595-3.5841675c-0.2093773-1.5406494-0.2021713-3.0817261-0.0090828-4.6231689
		c30.1144409-0.0004883,60.2288818-0.0007629,90.3433151-0.0027771
		C136.2024078,159.072113,136.7217865,159.0514526,137.2411499,159.0404053z"></path>
	<path d="M183.8149261,126.6496658c-2.7033997,2.1454544-5.139267,4.5932083-7.743866,6.8502579
		c-0.4458008,0.3863068-0.9082947,0.7533417-1.3630676,1.129303c-1.8441162-1.7623291-3.6817322-3.5315247-5.5374451-5.2815094
		c-0.401413-0.3785553-0.6125336-0.6243896-0.067627-1.1120605c5.1387634-4.5990143,10.2526703-9.2258301,15.3769073-13.8411484
		c0.107132-0.0965118,0.2516479-0.1515198,0.4723358-0.2806931c-0.1524811,2.1684952-0.2966919,4.2195969-0.4405975,6.2703476
		c-0.1660004,1.6535263-0.3277893,3.3078766-0.5016174,4.960968
		C183.9639893,125.7819748,183.8809509,126.2149277,183.8149261,126.6496658z"></path>
	<path d="M161.8733063,134.8813324c-1.6491852-1.4460907-3.3114166-2.877655-4.9448242-4.3414001
		c-3.1248322-2.8002472-6.2462158-5.6046906-9.3373413-8.4419327c-0.6057281-0.5559769-1.2194672-0.7597809-2.0320892-0.7592392
		c-27.0585403,0.018158-54.1171036,0.0154343-81.1756668,0.0127945c-0.5160103-0.0000458-1.0413628,0.0727615-1.5411682-0.1302109
		c-2.4384003-2.7343674-4.8771629-5.4688873-7.3320656-8.2215042c0.3539619-0.3202438,0.7254982-0.1678162,1.0540428-0.1679077
		c30.9013824-0.0088882,61.8027649-0.0058746,92.7041321-0.0222931c0.7689972-0.000412,1.340744,0.2024841,1.9161072,0.7252884
		c5.4720306,4.9721298,10.9693451,9.9164581,16.4628143,14.8649597c0.1177368,0.1060486,0.2764282,0.1666718,0.4455719,0.2658234
		C165.9398041,130.8173828,163.9065552,132.84935,161.8733063,134.8813324z"></path>
	<path d="M40.8581963,100.3328552c4.5771332,4.0902176,8.9872665,8.0312042,13.6933861,12.2366867
		c-1.8269272,0-3.2813568-0.0084076-4.7356529,0.0019608c-2.1564522,0.0153809-4.313282,0.0249557-6.468914,0.078743
		c-0.6494751,0.0162125-0.9111366-0.1972504-0.9929428-0.8540115
		C41.8904495,108.0743561,41.3878021,104.3573303,40.8581963,100.3328552z"></path>
</g>
</svg>
