<!--?xml version="1.0" encoding="utf-8"?-->
<!-- Generator: Adobe Illustrator 24.2.3, SVG Export Plug-In . SVG Version: 6.00 Build 0)  -->
<svg version="1.1" id="Camada_1" xmlns="http://www.w3.org/2000/svg" xmlns:xlink="http://www.w3.org/1999/xlink" x="0px" y="0px" viewBox="0 0 229 418" enable-background="new 0 0 229 418" xml:space="preserve">
<g onclick="select(this)" class="" id="gola-primaria" fill="#ffffff">
	<path d="M77.9426346,7.9673753c0.58358-0.069356,1.032135-0.3976116,1.4363174-0.7842617
		c0.9175644-0.877727,1.9667511-1.6647758,2.7009964-2.6779346c1.8149261-2.5044103,4.3710556-3.4063895,7.2605515-3.79111
		c0.6240387-0.0830863,1.349823,0.1018219,1.8595047-0.4742064c1.1999969,0,2.4000015,0,3.5999985,0
		c0.1689606,0.4907088,0.5991287,0.3122897,0.914032,0.3134411c5.57827,0.0203979,11.1566238,0.020126,16.7349243,0.0349568
		c0.4080048,0.0010847,0.7730331-0.0500122,1.0710449-0.3483979c7.5200043,0,15.0400085,0,22.5599976,0
		c0.0828247,0.4741868,0.4899597,0.3142419,0.7614136,0.3587393c0.9795685,0.1605679,1.9686279,0.2632271,2.9482269,0.4236295
		c1.9836884,0.3248088,3.6552887,1.119652,4.9371338,2.7922442c1.2989655,1.6949236,2.7367096,3.3046358,4.6419067,4.3876181
		c1.3349609,0.5595255,1.9354553,1.5324001,1.8441772,3.0037222c-0.2312469,3.7279959-2.0542908,6.7283545-4.2597656,9.5706816
		c-0.4029999,0.519371-0.6724548,0.1390858-0.9757843-0.093195c-1.7763519-1.3603001-3.5279999-2.7546139-5.3391266-4.0669384
		c-0.7182922-0.5204697-0.6553192-0.8478394-0.1091766-1.4620466c1.5674438-1.7628803,2.8856964-3.6969404,3.7774658-6.0769958
		c-2.572403,0.1970119-4.9905701,0.3984365-7.4111481,0.5647984c-10.7585907,0.7394209-21.499321,1.821701-32.3157806,0.9718924
		c-6.6919632-0.5257635-13.3825684-1.0529213-20.0644302-1.69244c-0.3931198-0.0376253-0.9007416-0.2369938-1.1560059,0.0428095
		c-0.3374405,0.369853,0.0650253,0.8249645,0.220726,1.2047291c0.7995911,1.9502478,2.0776596,3.5827036,3.4878464,5.12358
		c0.3805923,0.4158716,0.7852325,0.7979889,0.0745773,1.3490562c-1.7995148,1.3954124-3.5663376,2.8337154-5.3231812,4.282795
		c-0.4913559,0.4052773-0.7964401,0.3135414-1.1702042-0.1451874c-1.9160156-2.3515911-3.4110718-4.9275246-4.2069702-7.8697643
		C75.8163681,10.5971127,76.278656,9.1439505,77.9426346,7.9673753z"></path>
</g>
<g onclick="select(this)" class="" id="detalhe-punho" fill="#005425">
	<path d="M227.842514,108.4025879c0.5749817,0.7692032,0.4148407,1.7266006,0.6702271,2.5743942
		c0.1290436,0.4283524,0.0513458,0.9416275,0.4472656,1.2786179c0,1.2792664,0,2.5585327,0,3.8377991
		c-2.5884094,1.5184555-5.5240936,2.0408173-8.3501892,2.8522034c-9.2681122,2.6609497-18.7564545,3.2958908-28.3376312,2.8338699
		c-2.0632172-0.0994873-4.1380615-0.3150177-6.1517944-0.877861c-0.5486603-0.1533432-1.0449371-0.3735123-1.4878845-0.7239075
		c-0.2774811-2.4845276,0.3950195-4.910202,0.4574432-7.3736725c3.770752,0.7478256,7.5832977,0.9685516,11.4201965,0.9679565
		c2.4749756-0.0003815,4.9785767,0.2395554,7.4136963-0.1605759c3.064743-0.5035858,6.1346741-1.0043488,9.1941071-1.5534821
		C218.1148682,111.1610413,222.9727478,109.7737122,227.842514,108.4025879z"></path>
	<path d="M0.24,114.6542282c0.4893606-1.1710663,0.3771629-2.4589615,0.7112085-3.6613846
		c0.1128704-0.4062881,0.0125913-0.8849258,0.4293163-1.1796799c0.2910708,0.1283722,0.5764085,0.272171,0.8740931,0.3827667
		c6.2617168,2.3264465,12.7867851,3.4107971,19.397501,4.0666275c3.4315319,0.3404388,6.8639488,0.0203171,10.2973766-0.0423508
		c1.7614765-0.0321579,3.5187092-0.1407547,5.2500401-0.3458481c1.4364471-0.170166,2.981884,0.0562363,4.3134613-0.805748
		c0.4163704-0.2695313,0.5930977,0.0961914,0.7915878,0.4404831c0.4368095,0.7576523,0.2224312,1.6597824,0.6029205,2.4191055
		c0.0466232,1.5126266,0.5876122,2.9912491,0.3115692,4.5260544c-2.6691475,1.3422165-5.5943871,1.6769257-8.4834976,1.7902603
		c-9.3506947,0.3668442-18.675539,0.1407166-27.842226-2.0807114c-2.2731495-0.5508575-4.541153-1.1079407-6.6533499-2.1515045
		C0.24,116.8929443,0.24,115.7735825,0.24,114.6542282z"></path>
</g>
<g onclick="select(this)" class="" id="estampa-primaria" fill="#ffffff">
	<path d="M42.907505,115.9281998c-0.3804893-0.7593231-0.166111-1.6614532-0.6029205-2.4191055
		c-0.1984901-0.3442917-0.3752174-0.7100143-0.7915878-0.4404831c-1.3315773,0.8619843-2.8770142,0.635582-4.3134613,0.805748
		c-1.7313309,0.2050934-3.4885635,0.3136902-5.2500401,0.3458481c-3.4334278,0.0626678-6.8658447,0.3827896-10.2973766,0.0423508
		c-6.6107159-0.6558304-13.1357841-1.740181-19.397501-4.0666275c-0.2976846-0.1105957-0.5830222-0.2543945-0.8740931-0.3827667
		c1.7899306-9.5023575,2.6885965-19.1367569,4.2582512-28.6731644c0.8426151-5.1193008,1.1584306-10.3164978,2.2566686-15.4050598
		c1.7446499-8.0836258,4.4581051-15.7489853,9.4218407-22.4775429c2.1457844-2.908699,4.5916576-5.5448303,7.4281387-7.7850304
		c1.3344898-1.0539589,2.2994804-2.5360756,3.8290272-3.3338928c3.6148033-1.8855038,7.2542801-3.7286377,11.0284195-5.2783661
		c10.0274162-4.1174316,20.0643997-8.2123909,29.5622063-13.4859104c1.9391403-1.0766773,3.933815-2.0501871,5.4105301-3.8396473
		c0.8109818-0.9827251,1.9905396-1.5904641,3.3671417-1.5671678c-1.664093,1.1765685-2.1263809,2.6297307-1.5008469,4.9422078
		c0.7958984,2.9422398,2.2909546,5.5181732,4.2069702,7.8697643c0.373764,0.4587288,0.6788483,0.5504646,1.1702042,0.1451874
		c1.7568436-1.4490795,3.5236664-2.8873825,5.3231812-4.282795c0.7106552-0.5510674,0.306015-0.9331846-0.0745773-1.3490562
		c-1.4101868-1.5408764-2.6882553-3.1733322-3.4878464-5.12358c-0.1557007-0.3797646-0.5581665-0.8348761-0.220726-1.2047291
		c0.2552643-0.2798033,0.762886-0.0804348,1.1560059-0.0428095c6.6818619,0.6395187,13.372467,1.1666765,20.0644302,1.69244
		c10.8164597,0.8498087,21.5571899-0.2324715,32.3157806-0.9718924c2.420578-0.1663618,4.8387451-0.3677864,7.4111481-0.5647984
		c-0.8917694,2.3800554-2.210022,4.3141155-3.7774658,6.0769958c-0.5461426,0.6142073-0.6091156,0.941577,0.1091766,1.4620466
		c1.8111267,1.3123245,3.5627747,2.7066383,5.3391266,4.0669384c0.3033295,0.2322807,0.5727844,0.612566,0.9757843,0.093195
		c2.2054749-2.8423271,4.0285187-5.8426857,4.2597656-9.5706816c0.0912781-1.4713221-0.5092163-2.4441967-1.8441772-3.0037222
		c1.8040161-0.1235514,2.9677124,0.963213,4.0435791,2.1754436c0.3423004,0.3857002,0.6642609,0.7411375,1.1140747,1.0351553
		c10.015213,6.5464888,21.2102203,10.5996943,32.1522522,15.1752443c3.9647369,1.6579075,7.8065491,3.5749054,11.7430115,5.2901115
		c1.6351929,0.7124977,2.7434998,2.2689476,4.1796417,3.3404427c3.1261292,2.3323669,5.8217316,5.1096878,8.1725159,8.219841
		c4.8403473,6.4038811,7.573822,13.7226105,9.31427,21.4695435c0.648407,2.8861542,1.1841888,5.7966232,1.4676514,8.7398987
		c0.558075,5.7943726,2.3274994,11.3395309,3.417038,17.0236282c1.1276703,5.8830719,1.9454803,11.8155975,2.8697968,17.7311859
		c-4.8697662,1.3711243-9.7276459,2.7584534-14.7245636,3.6553421c-3.059433,0.5491333-6.129364,1.0498962-9.1941071,1.5534821
		c-2.4351196,0.4001312-4.9387207,0.1601944-7.4136963,0.1605759c-3.8368988,0.0005951-7.6494446-0.2201309-11.4201355-0.9681702
		c0.397995-4.4217834,1.3395386-8.752449,2.2377777-13.0872345c0.5362396-2.5878677,1.2085876-5.1475754,1.8197479-7.7199402
		c-0.3908234,0.3567734-0.6051025,0.7716446-0.789444,1.1994095c-1.7770233,4.123909-3.0289459,8.4271622-4.175827,12.7510147
		c-2.369339,8.9325562-3.8379822,18.0407791-4.8481293,27.214325c-0.5737305,5.2101593-0.938385,10.4479065-1.2374268,15.6823578
		c-0.2820282,4.936264-0.494751,9.884491-0.4939728,14.8274231c0.002655,16.9393768-0.2863922,33.8787994,0.1625824,50.819046
		c0.193512,7.3013306,0.2618408,14.6057129,0.5153046,21.9078064c0.1688232,4.8633728,0.3232422,9.7277069,0.4854279,14.5916138
		c0.1993561,5.9791107,0.4654694,11.9532013,0.7395935,17.9288177c0.2303009,5.019989,0.4219818,10.0404358,0.8112488,15.0513
		c-7.654129,1.0700073-15.3581696,1.3612976-23.0732422,1.452179c-12.9472198,0.1525269-25.8881378,0.5621948-38.8300934,0.9285889
		c-6.7608643,0.1913757-13.4958572-0.4653015-20.2470093-0.5768433c-8.7106018-0.1439514-17.4220123-0.2460632-26.1319199-0.4232178
		c-8.3101959-0.1690063-16.6230583-0.3525085-24.8476906-1.7511292c0.5418816-3.7588501,0.4816322-7.5588074,0.7390099-11.3370361
		c0.3820381-5.6081238,0.5792046-11.2305908,0.7604103-16.8500214c0.1427193-4.4258575,0.2925491-8.8505402,0.4726982-13.2752838
		c0.2548981-6.2610779,0.389267-12.5274048,0.5358238-18.7924042c0.0933838-3.9920197,0.1545982-7.9874725,0.1912727-11.9777985
		c0.131134-14.2671509,0.0807762-28.5359955,0.0866127-42.8041992c0.0009117-2.2374725-0.0170631-4.4768066-0.1053925-6.7121582
		c-0.2500496-6.3277893-0.3140182-12.664093-0.8974266-18.9772339c-0.2267075-2.4532471-0.2513618-4.9276428-0.5398026-7.3721466
		c-0.5810051-4.9239349-1.1191139-9.8507843-2.0031929-14.7410049c-1.0833206-5.9923477-2.1588326-11.9780273-3.9337807-17.8119583
		c-0.6581345-2.1631546-1.2049675-4.3685989-2.1506424-6.554039c-0.5832481,0.8811417,0.16119,1.4419861,0.2478676,2.0992279
		c0.4439659,3.3662796,1.0535736,6.7120743,1.4424057,10.0838013
		C42.3154945,111.0284653,43.1100464,113.4209595,42.907505,115.9281998z"></path>
</g>
<g onclick="select(this)" class="" id="estampa-secundaria" fill="#005425">
	<path d="M42.731369,115.3902359c-0.0987129-1.2293472-0.218029-2.4572754-0.4434242-3.6756134
		c-0.3732681-2.0176697-0.4633331-4.0860519-0.7805748-6.116066c-0.4812317-3.0793839-0.8572426-6.1779633-1.559597-9.2203369
		c-0.2439041-1.0565033-0.1809349-1.1419525,0.9393997-1.1453476c1.8798599-0.0056992,3.7597504-0.0015793,5.6396255-0.0015793
		c46.7568855,0,93.5137787-0.0000153,140.2706757,0.0000153c1.7407227,0,1.7502289,0.0024185,1.3566589,1.6445465
		c-0.9865265,4.1161652-1.7747192,8.2693024-2.4341278,12.4504318c-0.3178864,2.0156326-0.5784454,3.9456863-0.6986237,5.9837494
		c-0.0059814,0.1013031-0.3474884,0.0682678-0.8992767,0.0715942c-0.206955-0.0194321-0.5143127-0.0100937-0.9728241-0.0101089
		c-46.2769165-0.0016022-92.5538483-0.0012894-138.83078-0.0012894c-0.3952179,0-0.7904396,0-1.2774849,0
		C42.9821167,115.3740692,42.812706,115.3825378,42.731369,115.3902359z"></path>
	<path d="M194.8647156,72.1708527c-0.1248932,3.9457321-0.9388733,7.7656708-2.2367401,11.5244217
		c-1.0104828,2.9263916-2.5805969,5.6330719-3.2866669,8.7920227c-0.2936554-0.1921768-0.4763489-0.4530258-0.8056641-0.3998871
		c-0.3117828,0.0503159-0.6381683,0.0100174-0.9581299,0.0100174c-48.8751678-0.0000381-97.7503128-0.0000381-146.6254578-0.0000305
		c-0.239975,0-0.4825325,0.0226669-0.7194252-0.0043106c-0.663887,0.041748-1.0551224,0.0342484-1.2887878,0.0277023
		c-0.4203911-1.3501434-0.804142-2.7161942-1.3644638-4.0056c-1.2491684-2.874588-2.0380211-5.9190369-3.4595184-8.737236
		c-1.0163727-2.0149994-1.5470085-4.2395859-1.484684-6.5541382c0.005661-0.2102737,0.0114136-0.4207077,0.016655-0.6312256
		c0.2757034,0.0111237,0.3688812,0.015358,0.7777596,0.018692c0.3196831,0.0026016,0.6398087,0.0014725,0.9597549,0.0014725
		C87.3041,72.2129288,140.2188416,72.2129211,193.133606,72.2129211c0.1199799,0,0.239975,0.0007706,0.3599548-0.0001297
		c0.3436127-0.0025864,0.5809784-0.0283203,0.752533-0.0384903
		C194.6310577,72.1514816,194.6931763,72.1599503,194.8647156,72.1708527z"></path>
</g>
<g onclick="select(this)" class="" id="detalhe-lateral" fill="#005425">
	<path d="M180.3168945,283.9697571c-0.389267-5.0108643-0.5809479-10.031311-0.8112488-15.0513
		c-0.2741241-5.9756165-0.5402374-11.949707-0.7395935-17.9288177c-0.1621857-4.8639069-0.3166046-9.728241-0.4854279-14.5916138
		c-0.2534637-7.3020935-0.3217926-14.6064758-0.5153046-21.9078064c-0.4489746-16.9402466-0.1599274-33.8796692-0.1625824-50.819046
		c-0.0007782-4.9429321,0.2119446-9.8911591,0.4939728-14.8274231c0.2990417-5.2344513,0.6636963-10.4721985,1.2374268-15.6823578
		c1.0101471-9.1735458,2.4787903-18.2817688,4.8481293-27.214325c1.1468811-4.3238525,2.3988037-8.6271057,4.175827-12.7510147
		c0.1843414-0.4277649,0.3986206-0.8426361,0.789444-1.1994095c-0.6111603,2.5723648-1.2835083,5.1320724-1.8197479,7.7199402
		c-0.8982391,4.3347855-1.8397827,8.665451-2.2377777,13.0872345c-0.0624847,2.4636841-0.7349854,4.8893585-0.4575043,7.3738861
		c-1.2758331,10.3456116-2.3217926,20.7093811-1.9548645,31.1531219c0.0848389,2.4152832,0.7513123,4.7976074,0.4013214,7.251236
		c-0.3329468,2.3339691-0.443634,4.6863556-0.4229584,7.0467682c0.0576477,6.5835724,0.0962219,13.1778717-0.1157379,19.7472687
		c-0.1442261,4.4696655,0.7029724,8.6943665,1.4201355,12.9989471c0.8516083,5.1116943,0.9524536,10.2363281,0.2455444,15.3785553
		c-0.320282,2.3298645-0.5408936,4.6733246-0.8157501,7.0095825c-0.0492096,0.4181061,0.0968628,0.7891998,0.2263184,1.1624146
		c1.9881592,5.7323914,2.493515,11.6085815,1.5862885,17.5897217c-0.3216858,2.1208649-0.3144379,4.1804047,0.1411896,6.2758179
		c0.4254303,1.9566803,0.509079,3.958847,0.4698334,5.9625092c-0.1443481,7.3678131,0.6830597,14.6733856,1.3834839,21.9889984
		c0.2195587,2.2931824,0.334198,4.5985718,0.3148499,6.9089355c-0.0093231,1.1126404-0.4960785,1.8147888-1.5023499,2.1924744
		C184.1752014,283.5325928,182.2867737,283.9595337,180.3168945,283.9697571z"></path>
	<path d="M42.907505,115.9281998c0.2025414-2.5072403-0.5920105-4.8997345-0.8747025-7.35112
		c-0.3888321-3.371727-0.9984398-6.7175217-1.4424057-10.0838013c-0.0866776-0.6572418-0.8311157-1.2180862-0.2478676-2.0992279
		c0.9456749,2.1854401,1.4925079,4.3908844,2.1506424,6.554039c1.7749481,5.833931,2.8504601,11.8196106,3.9337807,17.8119583
		c0.884079,4.8902206,1.4221878,9.81707,2.0031929,14.7410049c0.2884407,2.4445038,0.3130951,4.9188995,0.5398026,7.3721466
		c0.5834084,6.3131409,0.647377,12.6494446,0.8974266,18.9772339c0.0883293,2.2353516,0.1063042,4.4746857,0.1053925,6.7121582
		c-0.0058365,14.2682037,0.0445213,28.5370483-0.0866127,42.8041992c-0.0366745,3.9903259-0.0978889,7.9857788-0.1912727,11.9777985
		c-0.1465569,6.2649994-0.2809258,12.5313263-0.5358238,18.7924042c-0.1801491,4.4247437-0.3299789,8.8494263-0.4726982,13.2752838
		c-0.1812057,5.6194305-0.3783722,11.2418976-0.7604103,16.8500214c-0.2573776,3.7782288-0.1971283,7.578186-0.7390099,11.3370361
		c-1.7245903-0.0838623-3.3726768-0.5370178-4.9845734-1.1035767c-1.6185989-0.5689087-2.0116501-1.1138-1.9831123-2.8437195
		c0.0459366-2.7848511,0.186451-5.5653687,0.4139137-8.3447876c0.433239-5.2938843,0.7164192-10.6002197,1.1700706-15.8921509
		c0.4089508-4.770462-0.068821-9.5951233,0.9217758-14.3286285c0.1891174-0.9036407,0.0947456-1.838028-0.0444946-2.7452698
		c-0.4787102-3.1191711-0.3467941-6.214859,0.3346939-9.2854462c0.1951103-0.8791046,0.1336899-1.7297516,0.0723305-2.6114655
		c-0.2882462-4.1416168-0.8612595-8.2615356-0.8543091-12.4265594c0.0080452-4.8191986,1.1005249-9.4173431,2.7082024-13.9132538
		c0.3438072-0.961441,0.5690727-1.8806915,0.4489937-2.909317c-0.176609-1.5128784-0.1274376-3.0283203,0.1454735-4.536911
		c0.1131401-0.625412,0.2028465-1.277359,0.1551666-1.9060059c-0.3654709-4.8179779-0.0608215-9.6545563-0.424675-14.4716797
		c-0.0846634-1.1208496,0.0723495-2.2323608,0.1582413-3.3475952c0.1443939-1.874649,0.0628281-3.747345-0.0448914-5.6249847
		c-0.3893738-6.7869263-0.1290779-13.5804901-0.0253029-20.3673248c0.1122742-7.3421783-0.643425-14.5998688-1.5617981-21.8567352
		c-0.1952324-1.5427094-0.3826065-3.0864105-0.5735855-4.6296616
		C43.4951172,118.9194489,42.9541283,117.4408264,42.907505,115.9281998z"></path>
</g>
</svg>
