<!--?xml version="1.0" encoding="utf-8"?-->
<!-- Generator: Adobe Illustrator 24.2.3, SVG Export Plug-In . SVG Version: 6.00 Build 0)  -->
<svg version="1.1" id="Camada_1" xmlns="http://www.w3.org/2000/svg" xmlns:xlink="http://www.w3.org/1999/xlink" x="0px" y="0px" viewBox="0 0 229 418" enable-background="new 0 0 229 418" xml:space="preserve">
<g onclick="select(this)" class="" id="gola-primaria" fill="#021c3b">
	<path d="M77.95,7.96c0.59-0.06,1.04-0.4,1.44-0.79c0.92-0.88,1.97-1.68,2.71-2.7C83.92,2,86.45,1.1,89.31,0.72
		c0.64-0.08,1.36,0.06,1.89-0.48c1.2,0,2.4,0,3.6,0c0.24,0.57,0.76,0.34,1.15,0.34c5.46,0.02,10.92,0.02,16.38,0.02
		c0.43,0,0.89,0.06,1.19-0.36c7.52,0,15.04,0,22.56,0c0.29,0.54,0.84,0.33,1.27,0.42c1.09,0.22,2.21,0.35,3.3,0.56
		c1.54,0.3,2.79,1.04,3.81,2.29c1.43,1.76,2.9,3.52,4.91,4.69c1.32,0.57,1.93,1.53,1.85,3.01c-0.18,3.34-1.75,6.1-3.61,8.73
		c-0.92,1.29-0.99,1.24-2.22,0.29c-1.46-1.12-2.87-2.31-4.39-3.33c-1.03-0.69-1.03-1.15-0.21-2.05c1.5-1.64,2.69-3.52,3.54-5.79
		c-2.18,0.18-4.17,0.37-6.15,0.51c-5.42,0.37-10.85,0.65-16.27,1.08c-6.6,0.52-13.17,0.25-19.75-0.21
		c-6.02-0.42-12.03-0.98-18.03-1.56c-0.89-0.09-1.01,0.15-0.69,0.96c0.82,2.09,2.13,3.84,3.64,5.45c0.55,0.58,0.61,0.98-0.09,1.52
		c-1.72,1.31-3.4,2.66-5.06,4.04c-0.55,0.46-0.86,0.44-1.32-0.14c-1.94-2.4-3.4-5.02-4.15-8.03C75.88,10.45,76.27,9.22,77.95,7.96z"></path>
</g>
<g onclick="select(this)" class="" id="estampa-primaria" fill="#021c3b">
	<path d="M43.08,119.72c-0.13-1.99-0.14-3.98-0.54-5.94c-0.12-0.58-0.12-0.85-0.84-0.61
		c-3.9,1.31-7.92,1.55-12.01,1.42c-4.22-0.14-8.46-0.11-12.66-0.54c-3.89-0.4-7.72-1.08-11.4-2.46c-1.45-0.54-2.99-0.86-4.23-1.88
		c1.79-9.43,2.67-18.99,4.23-28.45c0.85-5.16,1.17-10.4,2.28-15.53c1.77-8.17,4.52-15.91,9.58-22.67c1.78-2.38,3.78-4.55,6-6.52
		c1.64-1.45,3.14-3.14,4.98-4.28c2.48-1.54,5.18-2.71,7.85-3.92c7.05-3.2,14.33-5.85,21.33-9.14c5.01-2.36,9.98-4.8,14.73-7.67
		c0.62-0.37,1.14-0.82,1.61-1.39c1.02-1.22,2.27-2.13,3.96-2.17c-1.68,1.26-2.07,2.5-1.52,4.72c0.75,3,2.22,5.63,4.15,8.03
		c0.46,0.58,0.77,0.59,1.32,0.14c1.66-1.38,3.34-2.74,5.06-4.04c0.7-0.53,0.64-0.93,0.09-1.52c-1.51-1.62-2.81-3.37-3.64-5.45
		c-0.32-0.81-0.2-1.05,0.69-0.96c6.01,0.58,12.01,1.14,18.03,1.56c6.58,0.46,13.16,0.74,19.75,0.21c5.42-0.43,10.85-0.71,16.27-1.08
		c1.99-0.13,3.97-0.33,6.15-0.51c-0.84,2.27-2.04,4.15-3.54,5.79c-0.82,0.9-0.82,1.36,0.21,2.05c1.52,1.02,2.93,2.21,4.39,3.33
		c1.23,0.95,1.31,1,2.22-0.29c1.86-2.62,3.43-5.38,3.61-8.73c0.08-1.48-0.53-2.44-1.85-3.01c1.81-0.12,2.97,0.97,4.05,2.18
		c0.34,0.39,0.67,0.74,1.12,1.04c9.78,6.43,20.72,10.41,31.41,14.89c4.19,1.76,8.24,3.81,12.44,5.54c1.2,0.49,1.94,1.63,2.96,2.39
		c3.54,2.64,6.73,5.65,9.41,9.19c4.84,6.42,7.59,13.73,9.33,21.49c0.76,3.4,1.27,6.84,1.67,10.29c0.56,4.9,2.01,9.62,3.01,14.43
		c1.23,5.87,1.88,11.84,2.98,17.73c0.05,0.27,0.03,0.56,0.04,0.84c-3.3,1.33-6.66,2.44-10.14,3.23c-3.04,0.7-6.13,1.08-9.19,1.62
		c-3.11,0.55-6.25,0.78-9.41,0.75c-4.35-0.04-8.72,0.29-13.01-0.7c-0.77-0.18-0.88,0.23-1.01,0.77c-0.46,1.92-0.5,3.87-0.35,5.83
		c-0.52,0.02-1.04,0.04-1.56,0.04c-46.08,0-92.17,0-138.25,0C44.28,119.77,43.68,119.74,43.08,119.72z"></path>
	<path d="M182.4,174.71c-0.12,4.35,0.51,8.69,0.03,13.06c-0.29,2.6,0.33,5.16,0.9,7.7
		c1.64,7.32,1.46,14.68,0.39,22.05c-0.32,2.19-0.37,4.29,0.34,6.48c1.76,5.39,1.79,10.93,0.93,16.49c-0.24,1.52-0.25,3.01,0.1,4.51
		c0.91,3.9,0.42,7.89,0.64,11.83c0.33,5.78,0.68,11.57,1.42,17.32c0.26,2.05,0.23,4.14,0.26,6.21c0.03,1.77-0.33,2.25-2.01,2.79
		c-2.3,0.73-4.69,0.98-7.08,1.26c-8.39,0.99-16.83,1.1-25.26,1.25c-11.67,0.21-23.34,0.72-35.01,0.83
		c-12.07,0.11-24.13-0.84-36.21-0.86c-8.4-0.02-16.79-0.1-25.17-0.74c-4.15-0.31-8.28-0.75-12.35-1.68
		c-0.23-0.05-0.47-0.11-0.7-0.17c-3.12-0.84-3.47-1.18-3.28-4.38c0.47-7.81,1.01-15.62,1.56-23.42c0.14-2.04,0.28-4.07,0.23-6.11
		c-0.04-1.76,0.03-3.52,0.35-5.26c0.41-2.3,0.48-4.59,0.14-6.91c-0.36-2.43-0.13-4.87,0.41-7.27c0.27-1.19,0.21-2.37,0.12-3.57
		c-0.3-3.91-0.82-7.79-0.84-11.72c-0.02-4.9,1.07-9.59,2.72-14.17c0.38-1.04,0.6-2.04,0.43-3.15c-0.18-1.23-0.15-2.47,0.08-3.7
		c0.31-1.63,0.2-3.25,0.11-4.89c-0.17-3.15-0.14-6.3-0.21-9.45c-0.02-1.16-0.1-2.32-0.1-3.47c0-0.36-0.2-0.81,0.23-1.1
		c0.27,0.46,0.72,0.24,1.08,0.24C91.89,174.71,137.15,174.71,182.4,174.71z"></path>
</g>
<g onclick="select(this)" class="" id="estampa-secundaria" fill="#f6d101">
	<path d="M182.4,174.71c-45.25,0-90.5,0-135.75-0.01c-0.36,0-0.81,0.23-1.08-0.24c-0.31-0.81-0.08-1.63-0.05-2.45
		c0.05-1.55-0.09-3.11-0.15-4.66c-0.35-8.94,0.14-17.89-0.07-26.84c-0.12-5.12-0.94-10.18-1.49-15.26
		c-0.12-1.07-0.31-2.14-0.33-3.22c-0.02-1.04-0.16-1.71-1.39-1.07c0.23-0.5-0.03-1.4,1-1.26c0.6,0.02,1.2,0.04,1.8,0.04
		c46.08,0,92.17,0,138.25,0c0.52,0,1.04-0.03,1.56-0.04c0.47,0.15,1.63-0.24,0.78,0.97c-0.32,0.09-0.48-0.24-0.9-0.3
		c-0.23,2.04-0.46,4.07-0.69,6.1c-0.85,7.62-1.32,15.25-1.31,22.92c0,2.84,0.91,5.6,0.55,8.45c-0.33,2.69-0.62,5.4-0.44,8.12
		C182.87,168.91,182.56,171.81,182.4,174.71z"></path>
</g>
<g onclick="select(this)" class="" id="detalhe-punho" fill="#f6d101">
	<path d="M0.24,115.2c0.57-1.24,0.36-2.62,0.73-3.9c0.15-0.53,0.15-1.09,0.43-1.58c1.23,1.03,2.78,1.34,4.23,1.88
		c3.68,1.38,7.51,2.06,11.4,2.46c4.21,0.43,8.44,0.4,12.66,0.54c4.09,0.13,8.11-0.11,12.01-1.42c0.72-0.24,0.72,0.02,0.84,0.61
		c0.4,1.97,0.41,3.96,0.54,5.94c-1.04-0.14-0.77,0.76-1,1.26c-2.42,0.92-4.98,1.23-7.52,1.34c-9.29,0.37-18.55,0.08-27.65-2.1
		c-2.28-0.54-4.53-1.13-6.66-2.14C0.24,117.12,0.24,116.16,0.24,115.2z"></path>
	<path d="M185.46,120.69c0.85-1.21-0.3-0.82-0.78-0.97c-0.15-1.96-0.12-3.91,0.35-5.83
		c0.13-0.54,0.24-0.95,1.01-0.77c4.29,0.98,8.66,0.66,13.01,0.7c3.16,0.03,6.3-0.21,9.41-0.75c3.06-0.54,6.15-0.92,9.19-1.62
		c3.47-0.8,6.84-1.9,10.14-3.23c0.95,2.4,1.24,4.91,1.17,7.47c-0.02,0.85-0.78,0.95-1.33,1.16c-2.91,1.1-5.91,1.9-8.92,2.66
		c-9.44,2.39-19.03,2.95-28.71,2.1C188.47,121.48,186.9,121.38,185.46,120.69z"></path>
</g>
</svg>
