<!--?xml version="1.0" encoding="utf-8"?-->
<!-- Generator: Adobe Illustrator 24.2.3, SVG Export Plug-In . SVG Version: 6.00 Build 0)  -->
<svg version="1.1" id="Camada_1" xmlns="http://www.w3.org/2000/svg" xmlns:xlink="http://www.w3.org/1999/xlink" x="0px" y="0px" viewBox="0 0 229 418" enable-background="new 0 0 229 418" xml:space="preserve">
<g onclick="select(this)" class="" id="estampa-primaria" fill="#021c3b">
	<path d="M228.9600067,116.1600037c-6.8573608,2.7827988-14.012085,4.3406754-21.3363495,5.2295303
		c-6.1865082,0.7507629-12.3683929,0.6981201-18.5518646,0.0141602c-1.5450592-0.1708984-3.0964508-0.3526306-4.5778809-1.2681656
		c-0.2169952,2.0427322-0.4040222,3.9826508-0.6320343,5.9177551c-0.8618011,7.3140564-1.3113098,14.6531677-1.3702393,22.0167847
		c-0.0173035,2.1614838,0.0713806,4.3074493,0.516861,6.4402771c0.4073029,1.9498596-0.0998688,3.9020081-0.1979218,5.8531799
		c-0.0421448,0.8382263-0.1979218,1.6777191-0.1665344,2.5115509c0.242218,6.434021-0.5886841,12.8650208-0.0313416,19.3006744
		c0.131073,1.5136261,0.0321655,3.0341797-0.1354828,4.5505066c-0.3388214,3.0646515,0.2162628,6.0424805,0.888443,9.0185089
		c1.6364441,7.2451019,1.3792725,14.5308533,0.3453064,21.8226624c-0.3037415,2.1420898-0.3855896,4.2071381,0.3206482,6.3586578
		c1.7946777,5.467392,1.8110352,11.0920105,0.9322662,16.7324371c-0.2185211,1.4025421-0.2377777,2.7680054,0.0836639,4.1573029
		c0.8846588,3.8234863,0.4741974,7.7231598,0.6637421,11.5890808c0.2915344,5.9466248,0.6890106,11.888916,1.4359894,17.8041687
		c0.2438354,1.9310303,0.2092438,3.8996887,0.2574005,5.8522644c0.0527649,2.1405029-0.3005829,2.6210632-2.4157562,3.2075806
		c-2.8646393,0.794342-5.8190155,1.0609741-8.761795,1.3639832c-7.7271729,0.7956848-15.4845428,0.8746948-23.2430573,1.0188599
		c-11.2753754,0.2095337-22.5467682,0.6609192-33.8225098,0.8162231
		c-12.438446,0.1713562-24.8563919-0.8457642-37.2967606-0.8506165c-8.3976974-0.0032349-16.7977066-0.0982056-25.178421-0.7355652
		c-4.1890564-0.3185425-8.3643112-0.7582092-12.4702377-1.697113c-0.1558876-0.035675-0.3135872-0.0641479-0.4683266-0.104126
		c-3.2452049-0.8378296-3.6082077-1.1939087-3.4111176-4.5150146c0.4636269-7.8121643,1.0338669-15.6180115,1.5500145-23.4270782
		c0.1054497-1.595459,0.2506523-3.1955872,0.2229881-4.790863c-0.0473404-2.7297363,0.1034393-5.4339447,0.5875511-8.1213531
		c0.2500763-1.3882141,0.2259979-2.7841339,0.0151443-4.1764221c-0.4365196-2.8824615-0.2956657-5.7467041,0.3321266-8.5827179
		c0.2205505-0.9962769,0.1968765-1.9702454,0.1224289-2.9738007c-0.3369904-4.542984-1.021347-9.0657196-0.838974-13.6401062
		c0.1720695-4.3159637,1.1946259-8.4609985,2.6406822-12.5021362c0.4013214-1.1215515,0.6408043-2.1886902,0.4723244-3.3767853
		c-0.1687775-1.1901703-0.1351967-2.394989,0.0903816-3.5845947c0.3084717-1.6267548,0.1929054-3.2503662,0.1125488-4.8949585
		c-0.1616058-3.3076172-0.1834526-6.6237335-0.1970177-9.9365997c-0.052845-12.9072418-0.042881-25.8148804-0.1347389-38.7217865
		c-0.0367775-5.1676178-1.0135727-10.2604523-1.5068283-15.3927841c-0.1257133-1.3080597-0.4853134-2.589325-0.4131927-3.8757019
		c-7.8684654,2.5462418-15.929512,2.0281906-23.9619179,1.4885941c-5.6706181-0.380928-11.2758665-1.3124695-16.7199078-3.0362549
		c-0.8791176-0.2783661-1.7338984-0.6045914-2.47031-1.1801987c0-1.0400009,0-2.0799942,0-3.1200027
		c0.7839233-1.5675049,0.8099706-3.3187027,1.1322011-4.9857101c1.8816141-9.7342224,2.8292222-19.6107941,4.3741846-29.3990555
		c0.8903303-5.6407928,1.325304-11.3509674,2.6825323-16.9219055c2.1208677-8.70541,5.5588036-16.7387733,11.6269484-23.4972649
		c2.3090782-2.5717659,5.1204948-4.5879822,7.5157013-7.0551529c0.576973-0.5943108,1.271637-1.010725,1.9922924-1.3597908
		c6.8783321-3.3316536,13.9418278-6.2391987,20.9893589-9.1878891c7.5772324-3.1703224,14.9921684-6.6858664,22.0402946-10.9327602
		c0.5205917-0.3136797,0.9388657-0.705184,1.332901-1.1698313c1.057663-1.2472076,2.2910309-2.2285705,4.0455093-2.2414079
		c-1.1952667,0.7149806-1.7738953,1.6796479-1.6796951,3.1586633c0.1656342,2.6004715,1.1424484,4.8796759,2.4790344,7.0355616
		c2.8858032,4.6547432,7.0452805,7.9896545,11.4976883,11.021534c8.4040756,5.7227726,17.621521,8.2862186,27.7946777,7.311491
		c2.921814-0.2799454,5.7238159-0.997406,8.5060272-1.8678017c2.7591858-0.863205,5.2772217-2.2729034,7.793808-3.6233177
		c3.9675446-2.1290226,7.4513397-4.9575424,10.659256-8.1302776c2.8668976-2.8354588,5.0182343-6.0763798,6.0192871-10.0144882
		c0.6301117-2.4788532,0.1496582-3.7491312-1.6930847-4.649085c1.8110504-0.1460323,2.9575653,0.9652777,4.0596466,2.1531324
		c0.2682648,0.2891378,0.4216614,0.6678896,0.7888641,0.8850985c3.9733429,2.350481,7.8821411,4.8019476,12.1104736,6.7087107
		c10.4221191,4.6998501,21.1058655,8.7906857,31.4871674,13.5836029c0.7298584,0.3369656,1.3702698,0.7726593,1.9723816,1.2949181
		c0.9357605,0.811657,1.8710632,1.6272087,2.8497467,2.3853722c2.9891663,2.3157005,5.6452942,4.9609528,7.9433899,7.9606667
		c5.453476,7.1183891,8.2686005,15.3348503,10.0013275,24.0093994c0.9792633,4.9025955,1.1637573,9.9325867,2.4346924,14.7875519
		c2.2414246,8.5621185,3.4134674,17.3215179,4.8167419,26.0400467c0.2710724,1.6842041,0.4395752,3.4221878,1.1466522,5.019989
		C228.9600067,114.0800095,228.9600067,115.1200027,228.9600067,116.1600037z"></path>
	<path d="M144.21698,9.0870171c-3.2720032,10.3374939-19.6696625,19.9784584-32.480835,19.2489719
		c-10.9315491-0.6224556-26.9761276-11.5331841-28.5077438-19.4994621
		c10.157402,0.8995571,20.2723083,2.1809816,30.4367905,2.1495667
		C123.8319626,10.9546719,133.9690247,9.9049759,144.21698,9.0870171z"></path>
</g>
<g onclick="select(this)" class="" id="estampa-secundaria" fill="#bf0811">
	<path d="M143.1725616,285.882019c-1.0506744,0.0558167-2.4859009,0.0865784-3.4353027,0.1063538
		c-9.1017456,0.1898193-18.2015991,0.772522-27.3044586,0.5321045c-9.257431-0.2444153-19.0159836-0.7012939-28.2778015-0.7879333
		c0.0200119-0.5578308,0.0556488-1.1145325,0.0556717-1.672699c0.0024872-85.8752594,0.0007324-171.6672516,0-257.542511
		c0-0.479784,0.0055618-1.5231113,0-2.0031528c3.0322037,2.2001781,6.4859467,4.9803905,9.7730103,6.8104057
		c6.9875031,3.8901749,14.5360718,5.7620087,22.4546661,5.2629013c8.4517441-0.5327034,16.0215683-3.8183632,22.8142471-8.878437
		c1.1131134-0.8291912,2.8936768-2.612196,4.1265106-3.2807102c-0.0081635,0.3994598,0,1.5770302,0,1.9764919
		c-0.0010529,85.9652939-0.2312927,172.2597351-0.2291107,258.2249756
		C143.1500092,285.0682068,143.155426,285.4436646,143.1725616,285.882019z"></path>
</g>
<g onclick="select(this)" class="" id="estampa-terciaria" fill="#ffffff">
	<path d="M84.7030258,24.9932404c0.0056305,0.479784,0.0162048,0.9595699,0.0162048,1.4393539
		c0.0007324,85.8752518,0.0008163,171.7505188-0.0016708,257.6257629c-0.0000229,0.5581665-0.0360489,1.1163635-0.0560608,1.6741943
		c-1.5033569,0.1690979-2.9972382,0.0460815-4.4894257-0.1335754c-0.0039597-0.4398193-0.0114441-0.8796082-0.0114441-1.3194275
		c-0.0005035-87.4567566-0.000618-174.9134979,0.0026855-262.3702393c0.0000229-0.5171223,0.0478516-1.0342445,0.0731964-1.5507202
		C81.5928192,22.0315342,83.1183395,23.5409012,84.7030258,24.9932404z"></path>
	<path d="M142.5603638,285.8986511c-0.0171356-0.4383545,0.0018005-1.1543274,0.0017853-1.5926819
		c-0.002182-85.9653015-0.0021362-171.930603-0.0010834-257.895874c0-0.3994617,0.0153198-0.7989254,0.023468-1.1985302
		c1.489151-1.4679146,2.9783325-2.9356823,4.4674988-4.40345c0.0226288,0.4373016,0.0650482,0.8746014,0.0650635,1.311903
		c0.0028839,87.4184113,0.0031128,174.8368225-0.0067291,262.255249c-0.000061,0.4163513-0.0257263,1.0446167,0.0084686,1.4045105
		C145.6207886,285.8095703,144.0081024,285.9027405,142.5603638,285.8986511z"></path>
</g>
<g onclick="select(this)" class="" id="gola-primaria" fill="#021c3b">
	<path d="M77.9719238,7.969233c0.9347-0.1562185,1.5103531-0.8625746,2.1502304-1.4465899
		c0.7069397-0.645227,1.4712753-1.2745314,2.0082016-2.0507722c2.1033096-3.040709,5.3332443-3.885504,8.6122055-3.9147363
		c15.2177811-0.1356687,30.4375076-0.0768437,45.6563797-0.0336667c1.8729248,0.0053136,3.7169037,0.4812707,5.5058594,1.0726919
		c0.8923645,0.2950147,1.5990906,0.843742,2.2200623,1.563037c1.5876007,1.8389177,3.0818024,3.7833462,5.2238464,5.0523243
		c1.8429565,0.8999453,2.32341,2.1702232,1.6932983,4.6490765c-1.0010529,3.9381084-3.1523895,7.1790295-6.0192871,10.0144882
		c-3.2079163,3.1727352-6.6917114,6.001255-10.659256,8.1302776c-2.5165863,1.3504143-5.0346222,2.7601128-7.793808,3.6233177
		c-2.7822113,0.8703957-5.5842133,1.5878563-8.5060272,1.8678017c-10.1731567,0.9747276-19.3906021-1.5887184-27.7946777-7.311491
		c-4.4524078-3.0318794-8.6118851-6.3667908-11.4976883-11.021534c-1.336586-2.1558857-2.3134003-4.4350901-2.4790344-7.0355616
		C76.1980286,9.648881,76.7766571,8.6842136,77.9719238,7.969233z M144.21698,9.0870171
		c-10.2479553,0.8179588-20.3850174,1.8676548-30.5517883,1.8990765
		c-10.1644821,0.031415-20.2793884-1.2500095-30.4367905-2.1495667
		c1.5316162,7.9662781,17.5761948,18.8770065,28.5077438,19.4994621
		C124.5473175,29.0654755,140.9449768,19.424511,144.21698,9.0870171z"></path>
</g>
</svg>
