<!--?xml version="1.0" encoding="utf-8"?-->
<!-- Generator: Adobe Illustrator 25.0.1, SVG Export Plug-In . SVG Version: 6.00 Build 0)  -->
<svg version="1.1" id="Camada_1" xmlns="http://www.w3.org/2000/svg" xmlns:xlink="http://www.w3.org/1999/xlink" x="0px" y="0px" viewBox="0 0 229 418" enable-background="new 0 0 229 418" xml:space="preserve">
<g onclick="select(this)" class="" id="estampa-primaria" fill="#000000">
	<path d="M42.907505,115.9281998c-0.3804893-0.7593231-0.166111-1.6614532-0.6029205-2.4191055
		c-0.1984901-0.3442917-0.3752174-0.7100143-0.7915878-0.4404831c-1.3315773,0.8619843-2.8770142,0.635582-4.3134613,0.805748
		c-1.7313309,0.2050934-3.4885635,0.3136902-5.2500401,0.3458481c-3.4334278,0.0626678-6.8658447,0.3827896-10.2973766,0.0423508
		c-6.6107159-0.6558304-13.1357841-1.740181-19.397501-4.0666275c-0.2976846-0.1105957-0.5830222-0.2543945-0.8740931-0.3827667
		c1.7899306-9.5023575,2.6885965-19.1367569,4.2582512-28.6731644c0.8426151-5.1193008,1.1584306-10.3164978,2.2566686-15.4050598
		c1.7446499-8.0836258,4.4581051-15.7489853,9.4218407-22.4775429c2.1457844-2.908699,4.5916576-5.5448303,7.4281387-7.7850304
		c1.3344898-1.0539589,2.2994804-2.5360756,3.8290272-3.3338928c3.6148033-1.8855038,7.2542801-3.7286377,11.0284195-5.2783661
		c10.0274162-4.1174316,20.0643997-8.2123909,29.5622063-13.4859104c1.9391403-1.0766773,3.933815-2.0501871,5.4105301-3.8396473
		c0.8109818-0.9827251,1.9905396-1.5904641,3.3671417-1.5671678c-1.664093,1.1765685-2.1263809,2.6297307-1.5008469,4.9422078
		c0.7958984,2.9422398,2.2909546,5.5181732,4.2069702,7.8697643c0.373764,0.4587288,0.6788483,0.5504646,1.1702042,0.1451874
		c1.7568436-1.4490795,3.5236664-2.8873825,5.3231812-4.282795c0.7106552-0.5510674,0.306015-0.9331846-0.0745773-1.3490562
		c-1.4101868-1.5408764-2.6882553-3.1733322-3.4878464-5.12358c-0.1557007-0.3797646-0.5581665-0.8348761-0.220726-1.2047291
		c0.2552643-0.2798033,0.762886-0.0804348,1.1560059-0.0428095c6.6818619,0.6395187,13.372467,1.1666765,20.0644302,1.69244
		c10.8164597,0.8498087,21.5571899-0.2324715,32.3157806-0.9718924c2.420578-0.1663618,4.8387451-0.3677864,7.4111481-0.5647984
		c-0.8917694,2.3800554-2.210022,4.3141155-3.7774658,6.0769958c-0.5461426,0.6142073-0.6091156,0.941577,0.1091766,1.4620466
		c1.8111267,1.3123245,3.5627747,2.7066383,5.3391266,4.0669384c0.3033295,0.2322807,0.5727844,0.612566,0.9757843,0.093195
		c2.2054749-2.8423271,4.0285187-5.8426857,4.2597656-9.5706816c0.0912781-1.4713221-0.5092163-2.4441967-1.8441772-3.0037222
		c1.8040161-0.1235514,2.9677124,0.963213,4.0435791,2.1754436c0.3423004,0.3857002,0.6642609,0.7411375,1.1140747,1.0351553
		c10.015213,6.5464888,21.2102203,10.5996943,32.1522522,15.1752443c3.9647369,1.6579075,7.8065491,3.5749054,11.7430115,5.2901115
		c1.6351929,0.7124977,2.7434998,2.2689476,4.1796417,3.3404427c3.1261292,2.3323669,5.8217316,5.1096878,8.1725159,8.219841
		c4.8403473,6.4038811,7.573822,13.7226105,9.31427,21.4695435c0.648407,2.8861542,1.1841888,5.7966232,1.4676514,8.7398987
		c0.558075,5.7943726,2.3274994,11.3395309,3.417038,17.0236282c1.1276703,5.8830719,1.9454803,11.8155975,2.8697968,17.7311859
		c-4.8697662,1.3711243-9.7276459,2.7584534-14.7245636,3.6553421c-3.059433,0.5491333-6.129364,1.0498962-9.1941071,1.5534821
		c-2.4351196,0.4001312-4.9387207,0.1601944-7.4136963,0.1605759c-3.8368988,0.0005951-7.6494446-0.2201309-11.4201355-0.9681702
		c0.397995-4.4217834,1.3395386-8.752449,2.2377777-13.0872345c0.5362396-2.5878677,1.2085876-5.1475754,1.8197479-7.7199402
		c-0.3908234,0.3567734-0.6051025,0.7716446-0.789444,1.1994095c-1.7770233,4.123909-3.0289459,8.4271622-4.175827,12.7510147
		c-2.369339,8.9325562-3.8379822,18.0407791-4.8481293,27.214325c-0.5737305,5.2101593-0.938385,10.4479065-1.2374268,15.6823578
		c-0.2820282,4.936264-0.494751,9.884491-0.4939728,14.8274231c0.002655,16.9393768-0.2863922,33.8787994,0.1625824,50.819046
		c0.193512,7.3013306,0.2618408,14.6057129,0.5153046,21.9078064c0.1688232,4.8633728,0.3232422,9.7277069,0.4854279,14.5916138
		c0.1993561,5.9791107,0.4654694,11.9532013,0.7395935,17.9288177c0.2303009,5.019989,0.4219818,10.0404358,0.8112488,15.0513
		c-7.654129,1.0700073-15.3581696,1.3612976-23.0732422,1.452179c-12.9472198,0.1525269-25.8881378,0.5621948-38.8300934,0.9285889
		c-6.7608643,0.1913757-13.4958572-0.4653015-20.2470093-0.5768433c-8.7106018-0.1439514-17.4220123-0.2460632-26.1319199-0.4232178
		c-8.3101959-0.1690063-16.6230583-0.3525085-24.8476906-1.7511292c0.5418816-3.7588501,0.4816322-7.5588074,0.7390099-11.3370361
		c0.3820381-5.6081238,0.5792046-11.2305908,0.7604103-16.8500214c0.1427193-4.4258575,0.2925491-8.8505402,0.4726982-13.2752838
		c0.2548981-6.2610779,0.389267-12.5274048,0.5358238-18.7924042c0.0933838-3.9920197,0.1545982-7.9874725,0.1912727-11.9777985
		c0.131134-14.2671509,0.0807762-28.5359955,0.0866127-42.8041992c0.0009117-2.2374725-0.0170631-4.4768066-0.1053925-6.7121582
		c-0.2500496-6.3277893-0.3140182-12.664093-0.8974266-18.9772339c-0.2267075-2.4532471-0.2513618-4.9276428-0.5398026-7.3721466
		c-0.5810051-4.9239349-1.1191139-9.8507843-2.0031929-14.7410049c-1.0833206-5.9923477-2.1588326-11.9780273-3.9337807-17.8119583
		c-0.6581345-2.1631546-1.2049675-4.3685989-2.1506424-6.554039c-0.5832481,0.8811417,0.16119,1.4419861,0.2478676,2.0992279
		c0.4439659,3.3662796,1.0535736,6.7120743,1.4424057,10.0838013
		C42.3154945,111.0284653,43.1100464,113.4209595,42.907505,115.9281998z"></path>
</g>
<g onclick="select(this)" class="" id="estampa-secundaria" fill="#ffffff">
	<path d="M184.7915955,243.4868164c-2.7389679,3.6741028-5.4900665,7.3392639-8.2046509,11.031311
		c-0.4410858,0.599884-0.9550171,1.0426331-1.5941467,1.3975372c-17.6972046,9.8270721-35.3910675,19.6601715-53.0835114,29.4958344
		c-0.4125214,0.2293396-0.8025665,0.4990234-1.2031097,0.7497253c-0.0000153-0.0001221,0.0291824-0.0151672,0.0292053-0.0151062
		c-0.1072464,0.0458069-0.2145309,0.0915833-0.3218155,0.1373596c-5.2984467,0.237854-10.5909805,0.1514282-15.8763962-0.2895508
		c6.0531998-3.4387207,12.0647049-6.9521484,18.1659775-10.3023071
		c18.6075668-10.2171936,36.4249649-21.7386322,54.49543-32.8430176c2.6780243-1.6456604,5.2799377-3.4182129,8.0626221-4.8919067
		C185.10466,239.8000793,184.9481506,241.6434631,184.7915955,243.4868164z"></path>
	<path d="M182.9370117,158.286972c-11.9298096,6.8929901-23.8625183,13.7809753-35.7888947,20.6799316
		c-31.596756,18.2774353-63.1907959,36.5595398-94.7855072,54.8404846c-0.3436279,0.1988373-0.7289352,0.5426941-1.091259,0.2786865
		c-0.4307327-0.3138428-0.0416794-0.724823,0.1029663-1.0686035c0.7418098-1.763031,1.1872101-3.7671051,2.3362198-5.2094879
		c1.1272011-1.4149933,3.1468124-1.9604187,4.7851906-2.8659058c41.1757736-22.756897,82.3578491-45.5023956,123.5401001-68.2475739
		c0.3475952-0.1919708,0.7129517-0.3518219,1.0700073-0.5266418
		C183.1284943,156.8805237,183.2528687,157.6012573,182.9370117,158.286972z"></path>
	<path d="M120.5960083,165.8340454c-6.2750702,3.9392548-12.5439911,7.8883362-18.8263779,11.8158875
		c-16.7221832,10.4542236-33.6938705,20.4920044-50.7714157,30.3526459
		c-2.4193497,1.3969574-4.8404922,2.7911377-7.2767715,4.1581879c-0.3967667,0.2226257-0.8476677,0.7927856-1.2485771,0.497345
		c-0.4499474-0.3315582-0.3163376-0.9951782-0.1273804-1.5273285c0.0621262-0.2028961,0.1271248-0.4115601,0.1920166-0.6195374
		c16.6255455-9.9454346,33.2512398-19.89151,49.8768272-29.8377533c5.4851761-3.2814789,10.9701538-6.5632935,16.4549561-9.8454132
		c0.4069824-0.2435303,0.8117218-0.4907837,1.2078552-0.7304688c-0.0966034-0.5716705-0.8700943,0.013443-0.8556747-0.5840759
		c0.0097427-0.4038696,0.3576508-0.5989838,0.6302948-0.828598c2.6598511-2.2400208,5.3155899-4.4849701,7.9852371-6.7132874
		c0.3504715-0.2925262,0.6553802-0.8822327,1.1791382-0.6665192c0.5657349,0.2330322,0.1490173,0.8448334,0.2400208,1.2776947
		c0.0311127,0.1480103,0.0445709,0.2997437,0.088356,0.60495c3.4300079-1.7921448,7.0729904-3.0233459,10.2003784-5.1469727
		c17.9835968-12.2116547,35.8989563-24.5236206,53.8396149-36.7984543c0.3267975-0.2236023,0.6800995-0.4085236,1.0210419-0.6113434
		c-0.0368195,0.9772491,0.0292816,1.9659576-0.3287964,2.9067688
		c-11.1551819,7.6723099-22.3112793,15.3437729-33.6157837,22.7955093
		c-8.1027222,5.341156-16.2438354,10.6241302-24.3668747,15.934494c-0.3334427,0.2180023-0.6573334,0.4506378-0.9852982,0.6766357
		c-0.5490723,0.3217316-1.146698,0.5825195-1.4841385,1.1951141c0.6961975-0.1063995,1.3052979-0.3626099,1.7744522-0.9004517
		c2.9096222-1.4962463,5.6166229-3.3327026,8.4096069-5.0236359c6.1645813-3.7321777,12.2996979-7.5129852,18.4568939-11.257431
		c0.2183075-0.1327667,0.4824219-0.473587,0.9937286,0.0059509c-12.8490448,7.9449005-25.5678177,15.9622803-38.5442581,23.5587463
		c-0.0692596-0.1103668-0.1385269-0.2207336-0.2077942-0.3311005c1.5787201-0.9619598,3.1665649-1.9094391,4.7312927-2.893631
		c0.5584793-0.3512726,1.254631-0.5456238,1.5656433-1.2207489c0.0933075-0.0694733,0.186821-0.1387024,0.2803421-0.2079315
		c0.19767-0.0046539,0.3745499-0.0461121,0.4553909-0.2573853c0.0918274-0.0647736,0.1839294-0.1292725,0.2760315-0.1937561
		c0.1968536-0.0180206,0.3798065-0.0601807,0.4665451-0.2690277c0.0825195-0.0564728,0.1655655-0.1125031,0.2486038-0.1685486
		c0.4341354-0.116745,0.9093475-0.1876526,0.9487991-0.9159241c-0.4782333,0.1708527-0.8445282,0.340744-1.1194687,0.6818695
		c-0.102356,0.0564728-0.2047119,0.112915-0.3070602,0.1693878c-0.1403503,0.1003876-0.2807159,0.2007751-0.4210358,0.3012085
		c-0.1032257,0.0532532-0.2064667,0.1065063-0.3097153,0.159729c-0.1413116,0.1014252-0.2826233,0.2028503-0.4238815,0.3043518
		C120.7978897,165.732193,120.6969452,165.7831116,120.5960083,165.8340454z"></path>
	<path d="M41.3007965,263.8809814c8.1350021-5.3895874,16.27668-10.7690887,24.4037857-16.1705627
		c26.5449753-17.642334,53.0851517-35.2919006,79.6260147-52.9404755
		c6.484024-4.3116302,12.9636078-8.6299744,19.4451599-12.9452972c1.0907898-0.7262268,1.1672821-0.6251221,1.5543213,0.6061707
		c0.3776093,1.2012482,0.0357819,1.8062134-1.0153351,2.483429c-17.9149933,11.5422516-35.8027649,23.1267395-53.6877213,34.7155151
		c-20.6267166,13.3653412-41.2434311,26.7461395-61.8682785,40.1143799
		c-2.8575249,1.8521423-5.7368317,3.6707153-8.6060867,5.5047302
		C41.0571899,264.7771606,41.0336571,264.313324,41.3007965,263.8809814z"></path>
	<path d="M182.3627167,187.5475311c-3.2392273,1.7903137-6.487854,3.5639191-9.7151947,5.3753815
		c-3.5633087,2.0000763-7.1008606,4.0459442-10.6609192,6.0518494c-4.7284241,2.6641998-9.4696198,5.3058167-14.2019348,7.9631195
		c-5.7166748,3.2100525-11.4311981,6.4239044-17.1440582,9.6407318c-6.0232544,3.3916473-12.0391388,6.7963867-18.0663528,10.180954
		c-4.8721313,2.7359161-9.7611008,5.4418793-14.6339569,8.1765594c-5.9140167,3.3189545-11.8224945,6.6478119-17.726799,9.9839935
		c-6.1223602,3.4593811-12.2326355,6.9401703-18.3624115,10.386322c-0.5212746,0.2930603-1.3901978,0.9658051-1.6762314,0.4350891
		c-0.4230614-0.7849884,0.6767044-0.977356,1.1983681-1.2809448c9.0880165-5.2885895,18.1973305-10.5406189,27.2884483-15.8238983
		c7.0919342-4.12146,14.1578445-8.287674,21.248642-12.4111023c10.6212769-6.1764832,21.2577438-12.3268433,31.8811722-18.499649
		c9.4527435-5.492569,18.8912201-11.0096893,28.346756-16.4975281c4.1484985-2.4077301,8.3236542-4.7696228,12.4866943-7.1525726
		C182.692337,185.2445984,182.6672668,186.406601,182.3627167,187.5475311z"></path>
	<path d="M42.1396217,248.8075409c19.1621017-12.3787842,38.3281059-24.7515411,57.4850578-37.1382904
		c14.8541031-9.6045685,29.6961365-19.2277374,44.547348-28.8367615c0.5950165-0.3850098,1.22995-0.7082062,1.8449097-1.0626373
		c0.2743225-0.1581116,0.6196899-0.399353,0.8089752-0.0171661c0.1405182,0.283783-0.2523041,0.403244-0.4664612,0.5735168
		c-3.2236633,2.5629272-6.7734375,4.6476593-10.1892548,6.9256134
		c-28.2618408,18.8471069-56.5430069,37.6652985-84.8156128,56.4963074
		c-3.0719299,2.0460663-6.0805016,4.187912-9.2474747,6.0896454
		C42.0129089,250.8264618,41.9677887,249.8158417,42.1396217,248.8075409z"></path>
	<path d="M185.2719574,229.7837372c-5.4961395,2.8588867-10.9854736,5.7309265-16.4897308,8.5741425
		c-15.2793579,7.8924866-30.5685577,15.7659302-45.8452835,23.6634521
		c-3.5099564,1.8145447-6.9821091,3.7020264-10.481102,5.5379639c-0.4662399,0.2446594-1.1446838,0.7748108-1.4821777,0.1920776
		c-0.3919983-0.6768799,0.5028687-0.8798828,0.9309998-1.1217651c6.6606293-3.7626953,13.3483887-7.4774475,20.0065002-11.2445526
		c7.143158-4.0415649,14.2585754-8.1321106,21.3922882-12.1903992c5.1400604-2.924118,10.2962799-5.8198853,15.4340973-8.747879
		c4.913269-2.7999878,9.8115692-5.6261902,14.7184753-8.4373474c0.3392029-0.1943207,0.695282-0.3592224,1.0435181-0.5377655
		C184.9867554,226.8679199,185.2780609,228.2992249,185.2719574,229.7837372z"></path>
	<path d="M43.0681648,229.2247925c13.5175781-8.7441711,27.0379753-17.4839935,40.5520363-26.2335968
		c17.8720398-11.5711212,35.7386398-23.15065,53.6102676-34.7224121c0.6165619-0.399231,1.276413-0.7323303,1.8871307-1.1396179
		c0.263916-0.1760254,0.5565643-0.3236542,0.7290955-0.0626221c0.1921387,0.2906952-0.1571045,0.4968719-0.3620911,0.6615753
		c-0.5838776,0.469101-1.1650391,0.9475555-1.7875671,1.3618317
		c-31.3292542,20.8480072-62.6625671,41.6899414-93.9976501,62.5292053
		c-0.3633842,0.2416534-0.7557106,0.4398499-1.1345291,0.658844
		C42.5764847,231.2349243,42.7384377,230.2160492,43.0681648,229.2247925z"></path>
	<path d="M184.2946014,202.1703339c-1.9887848,1.0908356-3.9925385,2.1554565-5.9629364,3.2785339
		c-3.1006775,1.7672882-6.1738739,3.5826721-9.2678986,5.3617096c-4.2792053,2.460495-8.5615082,4.915741-12.852356,7.3558502
		c-5.303772,3.0161133-10.6231537,6.0048065-15.925766,9.0229492c-5.962326,3.3936462-11.9105988,6.8119812-17.8702927,10.2102509
		c-5.3978348,3.0778961-10.8085785,6.1331635-16.2030563,9.2168884c-5.3596802,3.0639038-10.6987991,6.1637268-16.060318,9.2243347
		c-6.97995,3.9845276-13.9794312,7.934845-20.9586487,11.9206238c-6.464035,3.6915588-12.9055672,7.4224548-19.3714981,11.1106262
		c-2.2899399,1.3061829-4.622612,2.5375061-6.9357872,3.8032532c-0.4137878-0.0690308-0.8258171-0.1425781-1.1376724-0.4621277
		c2.5875816-1.489624,5.1716576-2.98526,7.7632484-4.4677734c7.1507378-4.0905762,14.3030205-8.1784363,21.4577713-12.2619934
		c5.4009781-3.0826111,10.8106537-6.1500244,16.2093277-9.2366638c5.8705292-3.3564301,11.7292099-6.7335358,17.5997391-10.08992
		c5.2209473-2.9849854,10.4505081-5.954895,15.6772156-8.9297791c6.5019608-3.7007141,13.0059204-7.3979187,19.5070953-11.1000214
		c6.061615-3.4517975,12.1250763-6.9003448,18.1794739-10.3647461c4.8010712-2.7472839,9.5832214-5.5275726,14.3857727-8.2722321
		c3.8815613-2.2183228,7.7809906-4.4053955,11.6724091-6.6068878
		C184.3913116,201.3002014,184.3717804,201.7331543,184.2946014,202.1703339z"></path>
	<path d="M52.6042099,284.3450928c4.8224106-2.7368469,9.6379318-5.4858704,14.4691925-8.2070007
		c4.6696472-2.6300659,9.3611984-5.221283,14.0327835-7.8479309c5.8368912-3.2819214,11.6613464-6.5859375,17.4947052-9.874176
		c4.8074265-2.7098694,9.6240234-5.4035339,14.4292374-8.1172943c5.9287567-3.3482971,11.8442459-6.7200317,17.7761917-10.0626526
		c4.6631775-2.6277313,9.3514252-5.2110443,14.0124207-7.8426056c4.7287445-2.6697845,9.4284515-5.3909607,14.1582031-8.0589447
		c4.1019135-2.3138428,8.2375641-4.5679474,12.3408356-6.8794403c3.9648285-2.233551,7.9040222-4.512558,11.8648224-6.7533264
		c0.3967896-0.2244568,0.7737579-0.5394287,1.2719116-0.5467834c0.1278687,0.4742432,0.0837097,0.9279633-0.161087,1.3578339
		c-2.5954132,1.1306915-4.9360962,2.7290497-7.4267426,4.0544739c-2.8740234,1.52948-5.664093,3.216095-8.4979095,4.8215942
		c-4.7809296,2.7086334-9.5653076,5.4112854-14.3526611,8.1085815c-4.0114746,2.2601624-8.0322418,4.5038605-12.0435028,6.764389
		c-4.7937164,2.7014618-9.5765076,5.4224091-14.3738174,8.1175232c-4.1150818,2.3118439-8.2505569,4.5874634-12.3650055,6.9004669
		c-4.5616989,2.5644379-9.1062012,5.1594238-13.6647568,7.7294464c-4.8070831,2.710144-9.6259842,5.3993835-14.4322891,8.1109009
		c-5.7955933,3.2696533-11.5821381,6.5552673-17.3748779,9.8299255c-4.7245178,2.6707764-9.4525528,5.3353271-14.1784706,8.0036316
		c-0.3052711,0.1723938-0.6057892,0.3531189-0.9085884,0.5299683
		C53.9714661,284.632843,53.2850304,284.5309753,52.6042099,284.3450928z"></path>
	<path d="M43.4037895,205.6920624c7.0533752-5.8328552,14.1523399-11.6120148,21.1320152-17.5316467
		c2.0605087-1.7475891,4.6063614-1.8636475,6.921257-2.7475281c0.2104797-0.080368,0.4896393-0.0796051,0.5690231,0.2476196
		c0.08284,0.3414764-0.1630936,0.5130005-0.3813858,0.6815338c-1.1070328,0.85466-2.2239685,1.6965332-3.3297119,2.5528412
		c-8.2152634,6.3620758-16.4281616,12.7272339-24.64505,19.0872345c-0.282196,0.2184448-0.5986938,0.3926239-0.8991508,0.5880432
		C42.8440094,207.5809326,42.9189796,206.5914917,43.4037895,205.6920624z"></path>
	<path d="M186.2413788,265.2232056c-3.146698,2.9476929-6.04039,6.1446533-9.0751038,9.2026672
		c-1.34935,1.3597412-2.6872101,2.730896-4.03508,4.0921326c-0.2518463,0.2543335-0.5843506,0.5736694-0.9064026,0.2680664
		c-0.256546-0.2434387,0.0267639-0.5939941,0.2037048-0.8511353c4.3574677-6.3318787,8.7182922-12.6614685,13.0826111-18.9886475
		c0.0630035-0.0913391,0.1775208-0.1472473,0.2680359-0.2199707
		C186.0776978,260.8814697,186.311676,263.0415344,186.2413788,265.2232056z"></path>
	<path d="M182.6383514,168.5728607c-6.4650269,4.1877899-12.9243011,8.3845062-19.3973236,12.5599213
		c-3.6754913,2.3708496-7.3734894,4.7068787-11.165329,7.1248932c-0.2112427-0.8785248,0.3860474-1.0472412,0.7678833-1.3036194
		c5.763031-3.869873,11.5312653-7.7320404,17.3050842-11.5858307c3.7862854-2.5272064,7.5824585-5.0396118,11.3775177-7.5536499
		c0.3628082-0.2403412,0.7493134-0.4449463,1.1248169-0.6662445
		C182.806015,167.6245422,182.8766479,168.1000671,182.6383514,168.5728607z"></path>
	<path d="M182.6325226,139.8422241c-7.1646118,4.6319122-14.328476,9.2649536-21.4945679,13.894577
		c-1.1456299,0.7401581-2.2451172,1.5746002-3.7220764,1.9586334c0.0723724-0.7409058,0.5701752-1.0232849,0.9889526-1.3022766
		c7.9971161-5.328125,16.00354-10.6422882,24.0102844-15.9559784c0.0966187-0.0641327,0.2223816-0.0843658,0.3345337-0.1255646
		C182.8736572,138.8339691,182.8385315,139.3446198,182.6325226,139.8422241z"></path>
	<path d="M142.7082367,165.1241302c2.6858826-2.3435822,5.8604279-3.8836517,8.6380005-6.0040894
		c0.9427643-0.7197266,1.9796753-1.2604523,3.0528412-1.7431793c0.1814575-0.0816498,0.3947601-0.4056854,0.5745697-0.0412903
		c0.1218567,0.2469025-0.0498505,0.4351349-0.2796936,0.5774078c-0.6430511,0.397995-1.2659302,0.8289337-1.9130707,1.2198792
		c-2.6602783,1.6071167-5.2607117,3.3054352-7.7967529,5.1013184
		C144.291214,164.7248535,143.4921112,164.9131927,142.7082367,165.1241302z"></path>
</g>
<g onclick="select(this)" class="" id="gola-primaria" fill="#000000">
	<path d="M77.9426346,7.9673753c0.58358-0.069356,1.032135-0.3976116,1.4363174-0.7842617
		c0.9175644-0.877727,1.9667511-1.6647758,2.7009964-2.6779346c1.8149261-2.5044103,4.3710556-3.4063895,7.2605515-3.79111
		c0.6240387-0.0830863,1.349823,0.1018219,1.8595047-0.4742064c1.1999969,0,2.4000015,0,3.5999985,0
		c0.1689606,0.4907088,0.5991287,0.3122897,0.914032,0.3134411c5.57827,0.0203979,11.1566238,0.020126,16.7349243,0.0349568
		c0.4080048,0.0010847,0.7730331-0.0500122,1.0710449-0.3483979c7.5200043,0,15.0400085,0,22.5599976,0
		c0.0828247,0.4741868,0.4899597,0.3142419,0.7614136,0.3587393c0.9795685,0.1605679,1.9686279,0.2632271,2.9482269,0.4236295
		c1.9836884,0.3248088,3.6552887,1.119652,4.9371338,2.7922442c1.2989655,1.6949236,2.7367096,3.3046358,4.6419067,4.3876181
		c1.3349609,0.5595255,1.9354553,1.5324001,1.8441772,3.0037222c-0.2312469,3.7279959-2.0542908,6.7283545-4.2597656,9.5706816
		c-0.4029999,0.519371-0.6724548,0.1390858-0.9757843-0.093195c-1.7763519-1.3603001-3.5279999-2.7546139-5.3391266-4.0669384
		c-0.7182922-0.5204697-0.6553192-0.8478394-0.1091766-1.4620466c1.5674438-1.7628803,2.8856964-3.6969404,3.7774658-6.0769958
		c-2.572403,0.1970119-4.9905701,0.3984365-7.4111481,0.5647984c-10.7585907,0.7394209-21.499321,1.821701-32.3157806,0.9718924
		c-6.6919632-0.5257635-13.3825684-1.0529213-20.0644302-1.69244c-0.3931198-0.0376253-0.9007416-0.2369938-1.1560059,0.0428095
		c-0.3374405,0.369853,0.0650253,0.8249645,0.220726,1.2047291c0.7995911,1.9502478,2.0776596,3.5827036,3.4878464,5.12358
		c0.3805923,0.4158716,0.7852325,0.7979889,0.0745773,1.3490562c-1.7995148,1.3954124-3.5663376,2.8337154-5.3231812,4.282795
		c-0.4913559,0.4052773-0.7964401,0.3135414-1.1702042-0.1451874c-1.9160156-2.3515911-3.4110718-4.9275246-4.2069702-7.8697643
		C75.8163681,10.5971127,76.278656,9.1439505,77.9426346,7.9673753z"></path>
</g>
<g onclick="select(this)" class="" id="detalhe-punho" fill="#ffffff">
	<path d="M227.842514,108.4025879c0.5749817,0.7692032,0.4148407,1.7266006,0.6702271,2.5743942
		c0.1290436,0.4283524,0.0513458,0.9416275,0.4472656,1.2786179c0,1.2792664,0,2.5585327,0,3.8377991
		c-2.5884094,1.5184555-5.5240936,2.0408173-8.3501892,2.8522034c-9.2681122,2.6609497-18.7564545,3.2958908-28.3376312,2.8338699
		c-2.0632172-0.0994873-4.1380615-0.3150177-6.1517944-0.877861c-0.5486603-0.1533432-1.0449371-0.3735123-1.4878845-0.7239075
		c-0.2774811-2.4845276,0.3950195-4.910202,0.4574432-7.3736725c3.770752,0.7478256,7.5832977,0.9685516,11.4201965,0.9679565
		c2.4749756-0.0003815,4.9785767,0.2395554,7.4136963-0.1605759c3.064743-0.5035858,6.1346741-1.0043488,9.1941071-1.5534821
		C218.1148682,111.1610413,222.9727478,109.7737122,227.842514,108.4025879z"></path>
	<path d="M0.24,114.6542282c0.4893606-1.1710663,0.3771629-2.4589615,0.7112085-3.6613846
		c0.1128704-0.4062881,0.0125913-0.8849258,0.4293163-1.1796799c0.2910708,0.1283722,0.5764085,0.272171,0.8740931,0.3827667
		c6.2617168,2.3264465,12.7867851,3.4107971,19.397501,4.0666275c3.4315319,0.3404388,6.8639488,0.0203171,10.2973766-0.0423508
		c1.7614765-0.0321579,3.5187092-0.1407547,5.2500401-0.3458481c1.4364471-0.170166,2.981884,0.0562363,4.3134613-0.805748
		c0.4163704-0.2695312,0.5930977,0.0961914,0.7915878,0.4404831c0.4368095,0.7576523,0.2224312,1.6597824,0.6029205,2.4191055
		c0.0466232,1.5126266,0.5876122,2.9912491,0.3115692,4.5260544c-2.6691475,1.3422165-5.5943871,1.6769257-8.4834976,1.7902603
		c-9.3506947,0.3668442-18.675539,0.1407166-27.842226-2.0807114c-2.2731495-0.5508575-4.541153-1.1079407-6.6533499-2.1515045
		C0.24,116.8929443,0.24,115.7735825,0.24,114.6542282z"></path>
</g>
<g onclick="select(this)" class="" id="detalhe-lateral" fill="#ffffff">
	<path d="M180.3168945,283.9697571c-0.389267-5.0108643-0.5809479-10.031311-0.8112488-15.0513
		c-0.2741241-5.9756165-0.5402374-11.949707-0.7395935-17.9288177c-0.1621857-4.8639069-0.3166046-9.728241-0.4854279-14.5916138
		c-0.2534637-7.3020935-0.3217926-14.6064758-0.5153046-21.9078064c-0.4489746-16.9402466-0.1599274-33.8796692-0.1625824-50.819046
		c-0.0007782-4.9429321,0.2119446-9.8911591,0.4939728-14.8274231c0.2990417-5.2344513,0.6636963-10.4721985,1.2374268-15.6823578
		c1.0101471-9.1735458,2.4787903-18.2817688,4.8481293-27.214325c1.1468811-4.3238525,2.3988037-8.6271057,4.175827-12.7510147
		c0.1843414-0.4277649,0.3986206-0.8426361,0.789444-1.1994095c-0.6111603,2.5723648-1.2835083,5.1320724-1.8197479,7.7199402
		c-0.8982391,4.3347855-1.8397827,8.665451-2.2377777,13.0872345c-0.0624847,2.4636841-0.7349854,4.8893585-0.4575043,7.3738861
		c-1.2758331,10.3456116-2.3217926,20.7093811-1.9548645,31.1531219c0.0848389,2.4152832,0.7513123,4.7976074,0.4013214,7.251236
		c-0.3329468,2.3339691-0.443634,4.6863556-0.4229584,7.0467682c0.0576477,6.5835724,0.0962219,13.1778717-0.1157379,19.7472687
		c-0.1442261,4.4696655,0.7029724,8.6943665,1.4201355,12.9989471c0.8516083,5.1116943,0.9524536,10.2363281,0.2455444,15.3785553
		c-0.320282,2.3298645-0.5408936,4.6733246-0.8157501,7.0095825c-0.0492096,0.4181061,0.0968628,0.7891998,0.2263184,1.1624146
		c1.9881592,5.7323914,2.493515,11.6085815,1.5862885,17.5897217c-0.3216858,2.1208649-0.3144379,4.1804047,0.1411896,6.2758179
		c0.4254303,1.9566803,0.509079,3.958847,0.4698334,5.9625092c-0.1443481,7.3678131,0.6830597,14.6733856,1.3834839,21.9889984
		c0.2195587,2.2931824,0.334198,4.5985718,0.3148499,6.9089355c-0.0093231,1.1126404-0.4960785,1.8147888-1.5023499,2.1924744
		C184.1752014,283.5325928,182.2867737,283.9595337,180.3168945,283.9697571z"></path>
	<path d="M42.907505,115.9281998c0.2025414-2.5072403-0.5920105-4.8997345-0.8747025-7.35112
		c-0.3888321-3.371727-0.9984398-6.7175217-1.4424057-10.0838013c-0.0866776-0.6572418-0.8311157-1.2180862-0.2478676-2.0992279
		c0.9456749,2.1854401,1.4925079,4.3908844,2.1506424,6.554039c1.7749481,5.833931,2.8504601,11.8196106,3.9337807,17.8119583
		c0.884079,4.8902206,1.4221878,9.81707,2.0031929,14.7410049c0.2884407,2.4445038,0.3130951,4.9188995,0.5398026,7.3721466
		c0.5834084,6.3131409,0.647377,12.6494446,0.8974266,18.9772339c0.0883293,2.2353516,0.1063042,4.4746857,0.1053925,6.7121582
		c-0.0058365,14.2682037,0.0445213,28.5370483-0.0866127,42.8041992c-0.0366745,3.9903259-0.0978889,7.9857788-0.1912727,11.9777985
		c-0.1465569,6.2649994-0.2809258,12.5313263-0.5358238,18.7924042c-0.1801491,4.4247437-0.3299789,8.8494263-0.4726982,13.2752838
		c-0.1812057,5.6194305-0.3783722,11.2418976-0.7604103,16.8500214c-0.2573776,3.7782288-0.1971283,7.578186-0.7390099,11.3370361
		c-1.7245903-0.0838623-3.3726768-0.5370178-4.9845734-1.1035767c-1.6185989-0.5689087-2.0116501-1.1138-1.9831123-2.8437195
		c0.0459366-2.7848511,0.186451-5.5653687,0.4139137-8.3447876c0.433239-5.2938843,0.7164192-10.6002197,1.1700706-15.8921509
		c0.4089508-4.770462-0.068821-9.5951233,0.9217758-14.3286285c0.1891174-0.9036407,0.0947456-1.838028-0.0444946-2.7452698
		c-0.4787102-3.1191711-0.3467941-6.214859,0.3346939-9.2854462c0.1951103-0.8791046,0.1336899-1.7297516,0.0723305-2.6114655
		c-0.2882462-4.1416168-0.8612595-8.2615356-0.8543091-12.4265594c0.0080452-4.8191986,1.1005249-9.4173431,2.7082024-13.9132538
		c0.3438072-0.961441,0.5690727-1.8806915,0.4489937-2.909317c-0.176609-1.5128784-0.1274376-3.0283203,0.1454735-4.536911
		c0.1131401-0.625412,0.2028465-1.277359,0.1551666-1.9060059c-0.3654709-4.8179779-0.0608215-9.6545563-0.424675-14.4716797
		c-0.0846634-1.1208496,0.0723495-2.2323608,0.1582413-3.3475952c0.1443939-1.874649,0.0628281-3.747345-0.0448914-5.6249847
		c-0.3893738-6.7869263-0.1290779-13.5804901-0.0253029-20.3673248c0.1122742-7.3421783-0.643425-14.5998688-1.5617981-21.8567352
		c-0.1952324-1.5427094-0.3826065-3.0864105-0.5735855-4.6296616
		C43.4951172,118.9194489,42.9541283,117.4408264,42.907505,115.9281998z"></path>
</g>
</svg>
