<!--?xml version="1.0" encoding="utf-8"?-->
<!-- Generator: Adobe Illustrator 23.1.0, SVG Export Plug-In . SVG Version: 6.00 Build 0)  -->
<svg version="1.1" id="Camada_1" xmlns="http://www.w3.org/2000/svg" xmlns:xlink="http://www.w3.org/1999/xlink" x="0px" y="0px" viewBox="0 0 229 418" enable-background="new 0 0 229 418" xml:space="preserve">
<g onclick="select(this)" class="" id="calcao-primaria" fill="#ffffff">
	<path d="M195.35,410.52c-10.55,2.6-21.21,4.63-32,5.91c-6.31,0.75-12.63,1.34-18.96,1.89
		c-0.29,0.03-0.65-0.13-0.86,0.24c-4.56,0-9.12,0-13.68,0c-0.22-0.39-0.63-0.29-0.96-0.35c-1.73-0.32-3.46-0.67-5.2-0.88
		c-0.93-0.11-1.2-0.55-1.23-1.38c-0.1-2.23-0.21-4.46-0.35-6.69c-0.6-9.67-2.14-19.23-3.64-28.78c-1.89-12-3.83-23.98-4.73-36.1
		c-0.09-1.24-0.19-2.47-0.3-3.71c-0.04-0.42-0.2-0.83-0.62-0.95c-0.47-0.13-0.69,0.31-0.9,0.63c-0.35,0.54-0.57,1.11-0.64,1.78
		c-0.62,6.48-1.08,12.98-2.03,19.43c-0.75,5.07-2.32,9.96-3.1,15.02c-1.51,9.79-4.14,19.38-4.98,29.28
		c-0.15,1.82-0.71,3.63-0.69,5.44c0.01,1.59,0.12,3.18-0.11,4.77c-0.1,0.73-0.37,1.05-1.18,1.17c-2.51,0.36-5,0.87-7.5,1.32
		c-3.2,0-6.4,0-9.6,0c-0.11-0.54-0.57-0.35-0.88-0.37c-6.82-0.45-13.61-1.1-20.4-1.8c-9.64-1-19.06-3.02-28.2-6.26
		c0.41-2.08,0.88-4.14,1.22-6.23c1.85-11.28,3.22-22.62,4.52-33.97c1.68-14.69,3.27-29.39,4.8-44.09c1.42-13.59,2.72-27.2,4.07-40.8
		c0.05-0.48,0.13-0.97-0.4-1.26c11.34,1.73,22.78,1.7,34.21,1.86c9.99,0.14,19.98,0.42,29.97,0.81c9.71,0.37,19.42-0.32,29.13-0.54
		c4.24-0.1,8.47-0.22,12.71-0.25c9.24-0.07,18.46-0.32,27.64-1.48c0.58,6.01,1.14,12.02,1.75,18.02
		c1.15,11.37,2.32,22.74,3.52,34.11c1.12,10.57,2.24,21.14,3.45,31.7c1.27,11.03,2.59,22.06,4.29,33.04
		C193.97,404.22,194.37,407.43,195.35,410.52z"></path>
</g>
<g onclick="select(this)" class="" id="calcao-detalhe-lateral" fill="#011023">
	<path d="M46.81,283.77c0.53,0.29,0.45,0.78,0.4,1.26c-1.35,13.6-2.65,27.21-4.07,40.8
		c-1.54,14.7-3.13,29.4-4.8,44.09c-1.29,11.35-2.67,22.69-4.52,33.97c-0.34,2.09-0.81,4.15-1.22,6.23
		c-2.22-0.64-4.44-1.26-6.65-1.93c-0.53-0.16-1.15-0.43-0.88-1.17c1.08-2.96,0.83-6.1,1.33-9.14c0.91-5.52,0.79-11.14,1.66-16.67
		c1.15-7.3,1.97-14.65,2.71-21.99c0.79-7.79,1.89-15.55,2.73-23.33c0.82-7.66,2.4-15.21,3.31-22.86c0.37-3.1,0.12-6.23,0.36-9.34
		c0.35-4.5,1.07-8.95,1.59-13.43c0.37-3.21,0.86-6.4,1.3-9.6c0.02-0.14,0.06-0.28,0.1-0.49C41.94,282.33,44.76,282.34,46.81,283.77z
		"></path>
	<path d="M195.35,410.52c-0.98-3.09-1.38-6.31-1.87-9.49c-1.7-10.98-3.02-22.01-4.29-33.04
		c-1.21-10.56-2.34-21.13-3.45-31.7c-1.2-11.37-2.36-22.74-3.52-34.11c-0.61-6-1.17-12.01-1.75-18.02c1.74-1.16,3.64-1.96,5.62-2.58
		c0.77-0.24,1.19-0.25,1.33,0.78c0.79,5.74,1.61,11.46,2.2,17.23c0.48,4.74,0.61,9.48,0.76,14.23c0.11,3.57,0.97,7.11,1.46,10.67
		c1.28,9.25,3.56,18.33,4.46,27.64c0.5,5.13,1.07,10.25,1.19,15.41c0.13,5.36,0.9,10.66,1.77,15.95c0.52,3.2,0.44,6.46,0.81,9.67
		c0.48,4.24,1.15,8.45,2.07,12.62c0.51,2.31,0.37,2.61-1.82,3.37C198.68,409.72,197.03,410.17,195.35,410.52z"></path>
</g>
</svg>
