<!--?xml version="1.0" encoding="utf-8"?-->
<!-- Generator: Adobe Illustrator 24.2.3, SVG Export Plug-In . SVG Version: 6.00 Build 0)  -->
<svg version="1.1" id="Camada_1" xmlns="http://www.w3.org/2000/svg" xmlns:xlink="http://www.w3.org/1999/xlink" x="0px" y="0px" viewBox="0 0 234 419" style="enable-background:new 0 0 234 419;" xml:space="preserve">
<style type="text/css">
	.st0{fill:#0FBE0A;}
	.st1{fill:#BE0811;}
	.st2{fill:#7AD5BC;}
	.st3{fill:#020404;}
</style>
<g onclick="select(this)" class="" id="c-gola-primaria" fill="#343434">
	<path d="M141.8,0.2c0.9,0.5,2,0.5,3,0.7c1.6,0.4,3,1.1,4.1,2.5c1.3,1.7,3,3,4.6,4.4c-0.7,0.1-1.3,0.1-2,0.2
		c-4.3,0.7-8.7,1.4-13,1.7c-7.5,0.6-15,1.4-22.6,1.3c-11.4-0.1-22.7-1.8-34-3c2-1.6,3.8-3.4,5.4-5.4c1.1-1.3,2.7-1.5,4.2-1.9
		c0.7-0.2,1.5,0.1,2.1-0.5c2.1,0,4.2,0,6.2,0c1.6,0.3,3.2,0.1,4.9,0.1c1.7,0,3.3,0.2,5-0.1c2.7,0,5.4,0,8.2,0c2,0.2,4,0.4,6,0
		C129.8,0.2,135.8,0.2,141.8,0.2z"></path>
</g>
<g onclick="select(this)" class="" id="c-estampa-primaria" fill="#343434">
	<path d="M203.8,32.3c0.2,0.1,0.5,0.2,0.7,0.4c3.7,3.5,7.8,6.7,10.8,11c3.8,5.4,6.5,11.3,8.3,17.7
		c1.7,5.9,2.7,12,3.4,18.1c0.6,4.7,1.5,9.3,2.2,14c0.9,5.7,1.5,11.5,2.8,17.1c0.5,2.1,0.7,4.2,1.2,6.3c0,1,0,1.9,0,2.9
		c-1.4,0.7-3,0.9-4.5,1.2c-9.6,1.8-19.3,3.1-29.1,2.9c-3.1-0.1-6-0.4-8.8-2c-0.9-0.5-2.1-0.2-2.8-1.2c0.3-1.3,0-2.6,0.1-4
		c0.3-2.8,0.9-5.7,0.7-8.5c-0.1-1.7,0-3.4,0.2-5c0.3-2.8,1.3-5.4,1.3-8.2c0-4.2,0.5-8.4,1.4-12.6c0.3-1.6,0.6-3.3,1.9-4.3
		c1.1-0.9,1.8-2,2.5-3.2c2.5-4,3.4-8.6,4.8-13c1.3-4.1,2.3-8.3,2.7-12.6c0.5-5.1,0.2-10.1-0.2-15.2
		C203.5,33.4,203.4,32.8,203.8,32.3z"></path>
	<path d="M0.2,116.3c0.5-1.9,0.8-3.8,1.2-5.7c0.7-3.6,1.3-7.1,1.7-10.7c0.9-6.8,2.8-13.3,4.3-20c0.9-4.3,1.2-8.7,2.2-13
		c1.2-5.3,2.8-10.5,5.2-15.4c3.1-6.5,7.6-12,13.3-16.4c1.1-0.9,2-2.1,3.3-2.7c0.4,0.8,0.4,1.5,0,2.3c-0.1,0.2-0.1,0.4-0.1,0.7
		c0.2,1,0.1,2,0,3C30.9,43.5,31,48.7,32,53.9c0.9,4.8,2.5,9.4,3.9,14.1c1,3.3,2.4,6.3,4.3,9.1c0.9,1.3,1.8,2.8,2.1,4.4
		c0.3,1.3,0.3,2.7,0.6,4c1.3,5.6,1.6,11.4,2.3,17c0.3,2.1,0.2,4.2,0.7,6.3c0.3,1.2,0.9,2.3,0.7,3.5c-0.3,2,0,3.9,0,5.9
		c-0.4,0.4-0.3,1-0.2,1.5c0.1,1.2-0.5,1.6-1.6,1.8c-6.8,1-13.6,1-20.4,0.1c-7.8-1-15.6-2.1-23.3-3.9c-0.3-0.1-0.5-0.1-0.8-0.2
		C0.2,117.1,0.2,116.7,0.2,116.3z"></path>
	<path d="M81.9,8c11.3,1.2,22.6,2.8,34,3c7.6,0.1,15.1-0.6,22.6-1.3c4.4-0.4,8.7-1.1,13-1.7c0.7-0.1,1.3-0.1,2-0.2
		c1.6,0,3,0.6,4,1.8c1.3,1.5,3,2.5,4.7,3.4c9.2,5.2,18.9,9.4,28.7,13.2c4.2,1.7,8.2,3.9,12.4,5.7c0.2,0.1,0.4,0.3,0.6,0.4
		c-0.4,0.5-0.3,1.2-0.3,1.7c0.4,5.1,0.6,10.1,0.2,15.2c-0.4,4.3-1.4,8.5-2.7,12.6c-1.4,4.4-2.3,9-4.8,13c-0.7,1.1-1.3,2.3-2.5,3.2
		c-1.3,1-1.6,2.7-1.9,4.3c-0.8,4.2-1.3,8.4-1.4,12.6c0,2.8-1,5.5-1.3,8.2c-0.2,1.7-0.3,3.3-0.2,5c0.2,2.9-0.4,5.7-0.7,8.5
		c-0.1,1.3,0.1,2.7-0.1,4c-0.4,0.3-0.3,0.7-0.3,1.1c-1.2,10.5-1.5,21-0.9,31.5c0.2,3.2-0.1,6.4-0.3,9.6c-0.4,6,0.1,12.1,0.1,18.1
		c0,2.8-0.1,5.5-0.4,8.3c-0.2,1.9-0.3,3.8,0.1,5.7c0,0.2,0.1,0.5,0.1,0.7c-0.3,3.1,0.5,6.1,1.4,9c1.7,6,1.9,12,1.4,18.2
		c-0.3,3.7-0.8,7.4,0,11.2c0.3,1.3,0.2,2.6,0.1,3.9c-0.4,7.6,0.7,15,1.1,22.6c0.2,5.4,0.7,10.8,0.9,16.3c0.1,1.4,0.3,2.8,0.3,4.2
		c0,2.2-0.2,2.6-2.4,3.2c-4.9,1.5-9.9,2.4-14.9,3c-11.8,1.5-23.8,1.7-35.7,1.8c-20.7,0.2-41.4,0.6-62,0.3c-10-0.2-20-1-29.7-3.8
		c-3.7-1-3.8-1.1-3.6-4.8c0.4-7.1,1-14.1,1.5-21.1c0.2-3.2-0.1-6.4,0.3-9.6c0.1-0.6,0.1-1.1,0.2-1.7c0.9-3.2,0.1-6.4-0.1-9.6
		c-0.2-4.6,0.2-9.2,1.4-13.7c0.4-1.6,0.5-3.1,0.3-4.7c-1.1-8.7-0.9-17.3,1.1-25.9c0.3-1.4,0.4-2.9,0.3-4.3c-0.4-4.7,0-9.4-0.2-14.1
		c-0.2-5.7,0-11.4-0.5-17.1c-0.3-3.6,0.4-7.2,0.3-10.9c-0.3-9.6-0.9-19.2-1.5-28.7c0-0.3,0.1-0.7-0.3-1c0.1-2-0.3-3.9,0-5.9
		c0.2-1.2-0.4-2.3-0.7-3.5c-0.5-2.1-0.4-4.2-0.7-6.3c-0.7-5.7-1-11.4-2.3-17c-0.3-1.3-0.3-2.7-0.6-4c-0.3-1.6-1.2-3.1-2.1-4.4
		c-1.9-2.8-3.4-5.9-4.3-9.1c-1.4-4.7-2.9-9.3-3.9-14.1c-1-5.2-1.1-10.4-0.7-15.6c0.1-1,0.2-2,0-3c-0.1-0.3,0-0.4,0.1-0.7
		c0.4-0.7,0.4-1.5,0-2.3c4.2-2,8.4-4,12.8-5.8c7.1-2.8,14.2-5.9,21.1-9.1c3.9-1.8,7.6-4.1,11.2-6.4c0.5-0.3,0.8-0.7,1.1-1.1
		C78.8,8.9,80.1,7.9,81.9,8z"></path>
</g>
<path d="M215.3,123.1c0.2-0.2,0.3-0.2,0.5-0.1C215.6,123.2,215.4,123.2,215.3,123.1z"></path>
<path d="M8.9,71.3c0,0.2,0,0.4-0.2,0.6C8.6,71.6,8.6,71.4,8.9,71.3z"></path>
<path d="M21.6,41.5c-0.1,0.3-0.3,0.2-0.5,0.3C21.2,41.6,21.4,41.4,21.6,41.5z"></path>
<path d="M230.8,104.2c-0.2-0.1-0.3-0.3-0.3-0.5C230.9,103.8,230.9,103.9,230.8,104.2z"></path>
<path d="M232.5,113c-0.1-0.1-0.1-0.1-0.2-0.2C232.5,112.7,232.5,112.9,232.5,113z"></path>
<g onclick="select(this)" class="" id="c-estampa-secundaria" fill="#000000">
	<path d="M232.6,114.3c0.5,0.5,0.1,1.3,0.6,1.8c0,0.8,0,1.6,0,2.4c-2.4-0.1-4.9-0.2-7.3-0.3c-3.5-0.2-7.1-0.4-10.6-0.6
		c-0.7,0-0.9,0.1-0.6,0.9c0.5,1.4,0.8,2.9,1.2,4.4c-0.1,0-0.1,0.1-0.2,0.1c-0.2-0.1-0.4-0.1-0.5,0.1c-1.1,0.1-2.2,0.2-3.3,0.3
		c-0.9-3.1-1.8-6.3-2.8-9.4c-0.2-0.6-0.1-0.7,0.5-0.7c3.8,0.2,7.6,0.4,11.4,0.6C225,114,228.8,114.2,232.6,114.3z"></path>
	<path d="M188.3,120c0-0.9,0.1-1.8,0.1-2.7c0.1-1.6,0.1-1.6,1.5-1c4.3,1.8,8.7,3.6,13,5.3c0.1,0,0.2,0,0.3,0
		c0-0.1,0-0.2-0.1-0.3c-1.5-5.2-3-10.3-4.5-15.5c-0.4-1.3-0.4-1.3,1-1.2c5.5,0.3,10.9,0.6,16.4,0.8c0.2,0,0.4,0,0.8,0
		c-3.6-4.8-7.1-9.4-10.6-14.1c6-1.4,11.9-2.8,18-4.3c-5.1-3.5-10.1-6.9-15.2-10.3c5.2-3.3,10.3-6.6,15.6-10
		c-2.7-0.7-5.1-1.3-7.6-1.9c-3.3-0.8-6.6-1.7-10-2.5c-0.8-0.2-0.9-0.3-0.4-1.1c3.3-4.2,6.5-8.5,9.8-12.7c0.2-0.3,0.4-0.5,0.7-1
		c-2,0.1-3.9,0.3-5.7,0.4c-2.2,0.2-4.4,0.3-6.7,0.5c-0.6,0.1-0.9,0-0.8-0.7c0.1-1.1-0.3-2.5,0.4-3.2c0.6-0.7,2-0.3,3.1-0.4
		c2.5-0.2,5.1-0.4,7.6-0.6c1.9,2.3,3.3,4.9,4.5,7.7c-2.2,2.8-4.3,5.5-6.6,8.4c3.8,1,7.3,1.8,10.9,2.7c0.8,2.8,1.5,5.6,1.9,8.5
		c-3.1,2-6.2,3.9-9.4,6c1.5,1,2.8,1.9,4.1,2.8c2.4,1.6,4.8,3.2,7.2,4.8c0.5,1.9,0.9,3.8,1,5.8c-4.9,1.2-9.9,2.3-14.8,3.5
		c-1,0.2-0.4,0.6-0.2,1c3.6,4.8,7.2,9.5,10.7,14.3c0.2,0.3,0.7,0.6,0.6,1.1c-7.1-0.4-14.2-0.7-21.3-1.1c1.5,4.9,2.9,9.8,4.3,14.7
		c-5.9,0.4-11.8,0.9-17.2-2.3c-0.4-0.2-0.8-0.4-1.1-0.3C188.5,121.6,188.4,120.9,188.3,120z"></path>
	<path d="M2.7,103.5c3.9,0.8,7.8,1.9,11.6,2.8c10.3,2.6,20.7,5.2,31,7.8c0.7,0.2,1.1,0.4,1,1.2
		c-0.1,0.9,0.5,1.8,0.3,2.7c-0.4,0.6-0.2,1.2-0.2,1.8c0.1,1.1-0.5,1.6-1.5,1.7c-0.7,0-1.4,0.1-2.1,0.2c0.4-1.3,1.6-2.1,2.2-3.3
		c-0.2-0.1-0.4-0.2-0.5-0.2c-6.8-1.7-13.5-3.4-20.3-5.1c-7-1.8-14.1-3.6-21.1-5.3c-0.5-0.1-0.9-0.3-0.8-0.9
		C2.3,105.7,2.5,104.6,2.7,103.5z"></path>
	<path d="M1.4,111.6c2.5,0.3,4.9,1.1,7.3,1.7c9.6,2.4,19.2,4.8,28.8,7.2c0.2,0.1,0.4,0.2,0.7,0.2c-0.2,0.7-0.8,1-1,1.6
		c-4.1,0.2-8.1-0.1-12.1-0.7c-4.4-1.1-8.8-2.3-13.2-3.4c-3.8-1-7.5-1.9-11.2-2.9C0.8,114.1,0.9,112.8,1.4,111.6z"></path>
	<path d="M13.4,54.8c7.4,5,14.7,10,22.1,15c0.8,0.5,1.4,1.1,1.7,2.1c0.7,2.1,1.9,3.8,3.2,5.6c0.4,0.6,0.4,0.9-0.3,1.4
		c-12.2,7.8-24.4,15.6-36.6,23.5c-0.2,0.1-0.4,0.2-0.6,0.3c0.2-1.8,0.4-3.6,0.8-5.3c11.1-7.1,22.2-14.3,33.4-21.4
		c-0.3-0.2-0.4-0.3-0.5-0.3c-7.9-5.3-15.7-10.7-23.6-16c-0.4-0.3-1.1-0.4-1-1.2C12.6,57.2,12.7,55.9,13.4,54.8z"></path>
	<path d="M10.6,62.9c0.3-0.1,0.5,0,0.8,0.2c6.1,4.2,12.3,8.4,18.4,12.5c0,0.4-0.4,0.5-0.6,0.7
		c-7.8,5-15.6,10.1-23.5,15.1c-0.2,0.1-0.6,1-0.9,0.1c0.4-1.7,0.9-3.4,1.3-5.2c5.5-3.5,10.9-7,16.5-10.6c-4.4-3-8.6-5.9-12.9-8.8
		C10,65.6,10.3,64.3,10.6,62.9z"></path>
	<path d="M21.6,41.6c2.8-0.4,5.5-1.4,8.2-2c1.1-0.3,1.4-0.2,1.3,1c-0.2,3-0.1,3-3,3.8c-3.2,0.8-6.4,1.7-9.6,2.5
		c-0.4,0.1-0.8,0.3-1.2,0.2c1.1-1.9,2.4-3.5,3.8-5.2C21.3,41.8,21.6,41.8,21.6,41.6L21.6,41.6z"></path>
	<path d="M8.9,71.3c2.3,1.2,4.3,2.9,6.6,4.3c-2.8,1.7-5.3,3.6-8.1,5.1c0.4-2.9,0.9-5.9,1.3-8.8
		C8.9,71.7,8.9,71.5,8.9,71.3L8.9,71.3z"></path>
	<path d="M31.4,32.5c0.6,1.9,0.2,2.6-1.7,3.1c-1,0.2-1.9,0.5-2.9,0.7C28.4,35,29.7,33.5,31.4,32.5z"></path>
	<path d="M232.3,112.8c-3.8-5-7.6-10-11.3-15c-0.4-0.5-0.7-0.9-1.1-1.5c3.3-0.7,6.4-1.7,9.5-2.2c0.2,1.3,0.3,2.7,0.5,4
		c-0.8,0.2-1.6,0.4-2.4,0.6c-0.5,0.1-0.6,0.3-0.2,0.7c1.1,1.4,2.1,2.9,3.4,4.3l0,0c0,0.2,0.1,0.4,0.3,0.5c0.5,2.8,1.1,5.6,1.6,8.4
		C232.5,112.7,232.4,112.8,232.3,112.8z"></path>
	<path d="M206.2,34.3c-0.5,2.5-1.3,5-2.1,7.5c0.2-2.2-0.5-4.3-0.2-6.5c0.1-0.9-0.4-1.9-0.1-2.9
		C204.9,32.7,205.4,33.7,206.2,34.3z"></path>
	<path d="M227,79.2c-1.1-0.7-2.3-1.5-3.5-2.3c1.1-0.7,1.9-1.4,3-1.8C226.7,76.5,226.9,77.8,227,79.2z"></path>
	<path d="M195.8,76.4c3.6-2.3,7-4.5,10.7-6.8c-2.2-0.6-4.2-1.1-6.2-1.6c-0.8-0.2-0.9-0.4-0.7-1.2c0.8-2.7,0.8-2.7,3.4-2
		c4.1,1.1,8.3,2.1,12.7,3.2c-1.6,1-3,1.9-4.4,2.8c-2.7,1.7-5.3,3.4-8,5.1c-0.8,0.5-0.8,0.7,0,1.2c3.8,2.6,7.6,5.2,11.4,7.7
		c0.2,0.1,0.4,0.3,0.7,0.5c-5.1,1.2-10.1,2.4-15.3,3.7c3.1,4.1,6.1,8.2,9.3,12.3c-1.7,0.2-3.2-0.1-4.7-0.1
		c-3.4-0.1-6.8-0.3-10.2-0.6c-1-0.1-0.9,0.3-0.7,1c1.4,4.6,2.7,9.2,4.1,14c-1.1-0.4-2-0.8-3-1.2c-1.8-0.7-3.5-1.5-5.3-2.2
		c-0.6-0.3-0.8-0.6-0.7-1.3c0.1-0.9,0.1-1.9,0.1-2.9c1.1,0.2,2,0.8,3.1,1.1c-0.6-2.2-1.1-4.3-1.9-6.3c-0.8-2-0.2-3.8,0.1-5.7
		c0.1-0.7,0.7-0.5,1.2-0.4c3.3,0.2,6.7,0.4,10.2,0.6c-2.7-3.6-5.3-7.1-8-10.6c4.3-1,8.4-2,12.7-3.1
		C202.9,81.3,199.4,78.9,195.8,76.4z"></path>
	<path d="M46.2,110.3c-11.5-2.9-22.8-5.8-34.4-8.7C22,95.1,32,88.6,42.2,82.1c0.3,1.4,0.4,2.6,0.7,3.8
		c0.2,0.8-0.5,0.9-0.8,1.1c-5.5,3.6-11.1,7.1-16.6,10.7c-1.1,0.7-2.1,1.4-3.4,2.2c3.5,0.9,6.7,1.7,9.9,2.5c4.1,1,8.1,2.1,12.2,3.1
		c1,0.2,1.4,0.8,1.3,1.6C45.5,108.2,45.9,109.1,46.2,110.3z"></path>
	<path d="M15.7,51.7c3.1-0.8,6-1.6,8.9-2.4c1.9-0.5,3.8-1,5.7-1.5c0.6-0.2,0.9-0.1,0.9,0.6c0,0.7,0.1,1.4,0.2,2.1
		c0.2,1-0.2,1.4-1.2,1.6c-1.5,0.3-3,0.8-4.8,1.2c1.5,1,2.8,2.1,4.3,2.9c2.4,1.3,3.9,3,4.2,5.8c0.1,0.8,0.5,1.5,0.8,2.6
		C28.2,60.2,22,56,15.7,51.7z"></path>
	<path d="M42.3,96.5c2.3,0.1,2.3,1.9,2.8,3.4c0,0,0,0.1,0,0.1c0.3,1.7,0.3,1.8-1.4,1.3c-3.9-1-7.7-1.9-11.9-3
		c4.1-2.6,7.9-5.1,11.9-7.7c0.3,1.5,0.5,2.8,0.5,4.2c0,0.5-0.5,0.6-0.8,0.8C43.1,96,42.7,96.2,42.3,96.5z"></path>
	<path d="M209.6,51.6c-2.9,3.8-5.6,7.3-8.3,10.9c0.6-2.8,1.3-5.5,1.9-8.3c0.4-2.2,0.5-2.2,2.8-2.3
		C207.1,51.8,208.2,51.7,209.6,51.6z"></path>
</g>
<path d="M203.2,121.3c0,0.1,0,0.2,0.1,0.3c-0.1,0-0.2,0-0.3,0C203,121.5,203.1,121.4,203.2,121.3z"></path>
</svg>
