<!--?xml version="1.0" encoding="utf-8"?-->
<!-- Generator: Adobe Illustrator 24.2.3, SVG Export Plug-In . SVG Version: 6.00 Build 0)  -->
<svg version="1.1" id="Camada_1" xmlns="http://www.w3.org/2000/svg" xmlns:xlink="http://www.w3.org/1999/xlink" x="0px" y="0px" viewBox="0 0 229 418" enable-background="new 0 0 229 418" xml:space="preserve">
<g onclick="select(this)" class="" id="gola-primaria" fill="#021c3b">
	<path d="M77.9719238,7.969233c0.9347-0.1562185,1.5103531-0.8625746,2.1502304-1.4465899
		c0.7069397-0.645227,1.4712753-1.2745314,2.0082016-2.0507722c2.1033096-3.040709,5.3332443-3.885504,8.6122055-3.9147363
		c15.2177811-0.1356687,30.4375076-0.0768437,45.6563797-0.0336667c1.8729248,0.0053136,3.7169037,0.4812706,5.5058594,1.0726919
		c0.8923645,0.2950147,1.5990906,0.8437419,2.2200623,1.5630372c1.5876007,1.8389177,3.0818024,3.7833462,5.2238464,5.0523243
		c1.8429565,0.8999453,2.32341,2.1702232,1.6932983,4.6490765c-1.0010529,3.9381084-3.1523895,7.1790295-6.0192871,10.0144882
		c-3.2079163,3.1727352-6.6917114,6.001255-10.659256,8.1302776c-2.5165863,1.3504143-5.0346222,2.7601128-7.793808,3.6233177
		c-2.7822113,0.8703957-5.5842133,1.5878563-8.5060272,1.8678017c-10.1731567,0.9747276-19.3906021-1.5887184-27.7946777-7.311491
		c-4.4524078-3.0318794-8.6118851-6.3667908-11.4976883-11.021534c-1.336586-2.1558857-2.3134003-4.4350901-2.4790344-7.0355616
		C76.1980286,9.648881,76.7766571,8.6842136,77.9719238,7.969233z M144.21698,9.0870171
		c-10.2479553,0.8179588-20.3850174,1.8676548-30.5517883,1.8990765
		c-10.1644821,0.031415-20.2793884-1.2500095-30.4367905-2.1495667
		c1.5316162,7.9662781,17.5761948,18.8770065,28.5077438,19.4994621
		C124.5473175,29.0654755,140.9449768,19.424511,144.21698,9.0870171z"></path>
</g>
<g onclick="select(this)">
	<image overflow="visible" width="844" height="408" xlink:href="64E6BF78.jpg" transform="matrix(1 0 0 1 -7894 -7770.1103516)">
	</image>
</g>
<g onclick="select(this)" class="" id="estampa-primaria" fill="#ffffff">
	<path d="M228.9600067,116.1600037c-6.8573608,2.7827988-14.012085,4.3406754-21.3363495,5.2295303
		c-6.1865082,0.7507629-12.3683929,0.6981201-18.5518646,0.0141602c-1.5450592-0.1708984-3.0964508-0.3526306-4.5778809-1.2681656
		c-0.2169952,2.0427322-0.4040222,3.9826508-0.6320343,5.9177551c-0.8618011,7.3140564-1.3113098,14.6531677-1.3702393,22.0167847
		c-0.0173035,2.1614838,0.0713806,4.3074493,0.516861,6.4402771c0.4073029,1.9498596-0.0998688,3.9020081-0.1979218,5.8531799
		c-0.0421448,0.8382263-0.1979218,1.6777191-0.1665344,2.5115509c0.242218,6.434021-0.5886841,12.8650208-0.0313416,19.3006744
		c0.131073,1.5136261,0.0321655,3.0341797-0.1354828,4.5505066c-0.3388214,3.0646515,0.2162628,6.0424805,0.888443,9.0185089
		c1.6364441,7.2451019,1.3792725,14.5308533,0.3453064,21.8226624c-0.3037415,2.1420898-0.3855896,4.2071381,0.3206482,6.3586578
		c1.7946777,5.467392,1.8110352,11.0920105,0.9322662,16.7324371c-0.2185211,1.4025421-0.2377777,2.7680054,0.0836639,4.1573029
		c0.8846588,3.8234863,0.4741974,7.7231598,0.6637421,11.5890808c0.2915344,5.9466248,0.6890106,11.888916,1.4359894,17.8041687
		c0.2438354,1.9310303,0.2092438,3.8996887,0.2574005,5.8522644c0.0527649,2.1405029-0.3005829,2.6210632-2.4157562,3.2075806
		c-2.8646393,0.794342-5.8190155,1.0609741-8.761795,1.3639832c-7.7271729,0.7956848-15.4845428,0.8746948-23.2430573,1.0188599
		c-11.2753754,0.2095337-22.5467682,0.6609192-33.8225098,0.8162231
		c-12.438446,0.1713562-24.8563919-0.8457642-37.2967606-0.8506165c-8.3976974-0.0032349-16.7977066-0.0982056-25.178421-0.7355652
		c-4.1890564-0.3185425-8.3643112-0.7582092-12.4702377-1.697113c-0.1558876-0.035675-0.3135872-0.0641479-0.4683266-0.104126
		c-3.2452049-0.8378296-3.6082077-1.1939087-3.4111176-4.5150146c0.4636269-7.8121643,1.0338669-15.6180115,1.5500145-23.4270782
		c0.1054497-1.595459,0.2506523-3.1955872,0.2229881-4.790863c-0.0473404-2.7297363,0.1034393-5.4339447,0.5875511-8.1213531
		c0.2500763-1.3882141,0.2259979-2.7841339,0.0151443-4.1764221c-0.4365196-2.8824615-0.2956657-5.7467041,0.3321266-8.5827179
		c0.2205505-0.9962769,0.1968765-1.9702454,0.1224289-2.9738007c-0.3369904-4.542984-1.021347-9.0657196-0.838974-13.6401062
		c0.1720695-4.3159637,1.1946259-8.4609985,2.6406822-12.5021362c0.4013214-1.1215515,0.6408043-2.1886902,0.4723244-3.3767853
		c-0.1687775-1.1901703-0.1351967-2.394989,0.0903816-3.5845947c0.3084717-1.6267548,0.1929054-3.2503662,0.1125488-4.8949585
		c-0.1616058-3.3076172-0.1834526-6.6237335-0.1970177-9.9365997c-0.052845-12.9072418-0.042881-25.8148804-0.1347389-38.7217865
		c-0.0367775-5.1676178-1.0135727-10.2604523-1.5068283-15.3927841c-0.1257133-1.3080597-0.4853134-2.589325-0.4131927-3.8757019
		c-7.8684654,2.5462418-15.929512,2.0281906-23.9619179,1.4885941c-5.6706181-0.380928-11.2758665-1.3124695-16.7199078-3.0362549
		C1.8311924,118.7418365,0.9764115,118.4156113,0.24,117.840004c0-1.0400009,0-2.0799942,0-3.1200027
		c0.7839233-1.5675049,0.8099706-3.3187027,1.1322011-4.9857101c1.8816141-9.7342224,2.8292222-19.6107941,4.3741846-29.3990555
		c0.8903303-5.6407928,1.325304-11.3509674,2.6825323-16.9219055c2.1208677-8.70541,5.5588036-16.7387733,11.6269484-23.4972649
		c2.3090782-2.5717659,5.1204948-4.5879822,7.5157013-7.0551529c0.576973-0.5943108,1.271637-1.010725,1.9922924-1.3597908
		c6.8783321-3.3316536,13.9418278-6.2391987,20.9893589-9.1878891c7.5772324-3.1703224,14.9921684-6.6858664,22.0402946-10.9327602
		c0.5205917-0.3136797,0.9388657-0.705184,1.332901-1.1698313c1.057663-1.2472076,2.2910309-2.2285705,4.0455093-2.2414079
		c-1.1952667,0.7149806-1.7738953,1.6796479-1.6796951,3.1586633c0.1656342,2.6004715,1.1424484,4.8796759,2.4790344,7.0355616
		c2.8858032,4.6547432,7.0452805,7.9896545,11.4976883,11.021534c8.4040756,5.7227726,17.621521,8.2862186,27.7946777,7.311491
		c2.921814-0.2799454,5.7238159-0.997406,8.5060272-1.8678017c2.7591858-0.863205,5.2772217-2.2729034,7.793808-3.6233177
		c3.9675446-2.1290226,7.4513397-4.9575424,10.659256-8.1302776c2.8668976-2.8354588,5.0182343-6.0763798,6.0192871-10.0144882
		c0.6301117-2.4788532,0.1496582-3.7491312-1.6930847-4.649085c1.8110504-0.1460323,2.9575653,0.9652777,4.0596466,2.1531324
		c0.2682648,0.2891378,0.4216614,0.6678896,0.7888641,0.8850985c3.9733429,2.350481,7.8821411,4.8019476,12.1104736,6.7087107
		c10.4221191,4.6998501,21.1058655,8.7906857,31.4871674,13.5836029c0.7298584,0.3369656,1.3702698,0.7726593,1.9723816,1.2949181
		c0.9357605,0.811657,1.8710632,1.6272087,2.8497467,2.3853722c2.9891663,2.3157005,5.6452942,4.9609528,7.9433899,7.9606667
		c5.453476,7.1183891,8.2686005,15.3348503,10.0013275,24.0093994c0.9792633,4.9025955,1.1637573,9.9325867,2.4346924,14.7875519
		c2.2414246,8.5621185,3.4134674,17.3215179,4.8167419,26.0400467c0.2710724,1.6842041,0.4395752,3.4221878,1.1466522,5.019989
		C228.9600067,114.0800095,228.9600067,115.1200027,228.9600067,116.1600037z"></path>
	<path d="M144.21698,9.0870171c-3.2720032,10.3374939-19.6696625,19.9784584-32.480835,19.2489719
		c-10.9315491-0.6224556-26.9761276-11.5331841-28.5077438-19.4994621
		c10.157402,0.8995571,20.2723083,2.1809816,30.4367905,2.1495667
		C123.8319626,10.9546719,133.9690247,9.9049759,144.21698,9.0870171z"></path>
</g>
<g onclick="select(this)" class="" id="estampa-secundaria" fill="#f6d101">
	<path d="M161.8733215,134.8813477c1.8543854,1.6996765,3.6966705,3.4128571,5.5713348,5.089859
		c0.4886475,0.4371033,0.5886536,0.6762238,0.0137024,1.1652679c-1.6425171,1.3971405-3.2026978,2.8906555-4.8292236,4.307251
		c-0.5503693,0.4793243-0.7319489,0.7768402-0.0818481,1.3720551c1.6791992,1.5374756,3.3012238,3.1394043,4.903244,4.7580109
		c0.5622711,0.5681,0.9402313,0.4937286,1.4712067-0.0255585c1.6566772-1.6202393,3.3325653-3.2223358,5.045517-4.782608
		c0.5306396-0.4833069,0.3495941-0.712677-0.0773315-1.0890045c-1.6481781-1.4528351-3.2279968-2.9864349-4.9204102-4.3844757
		c-0.797699-0.6589661-0.5494537-0.9724579,0.0644226-1.5137634c1.9154663-1.6890564,3.7860718-3.4289551,5.674057-5.1491547
		c0.4547729-0.3759613,0.9172668-0.7429962,1.3630676-1.129303c2.604599-2.2570496,5.0404663-4.7048035,7.743866-6.8502579
		c-0.2729187,2.975914-0.6149902,5.9474411-0.8041229,8.9286728c-0.3765259,5.9356537-0.7967377,11.8862457-0.1118774,17.8168488
		c0.2508087,2.1718292,0.2530212,4.2911835-0.02211,6.4297485c-0.4607239,3.5814667-0.0052338,7.1788635-0.2303467,10.7627563
		c-0.0749512,1.1933136-0.1759033,2.3849945-0.264801,3.5775299c-0.745636,0.6504211-1.489502,1.3029175-2.2375793,1.9505615
		c-1.9406738,1.6800995-3.7247162,3.5377808-5.7747803,5.0938721c-1.8079071-1.7517548-3.5986023-3.5218811-5.4342957-5.2440033
		c-0.5457001-0.5119171-0.6548767-0.8029785-0.0224152-1.3690491c1.7274628-1.5460815,3.3654633-3.1916809,5.0691528-4.7650757
		c0.4313202-0.3983307,0.4374084-0.6073761-0.0114899-0.9991302c-1.6868439-1.4721222-3.3565979-2.9655304-4.9886932-4.4978638
		c-0.621048-0.5830994-1.076416-0.5794678-1.6901398,0.0002136c-1.5404663,1.4550018-3.0983582,2.8950195-4.7119446,4.2673492
		c-0.5893707,0.5012817-0.5971527,0.7598419-0.0477295,1.2778625c1.5711975,1.4813385,3.0238037,3.094635,4.6538391,4.5049133
		c0.8935547,0.7731018,0.6411133,1.1416931-0.0476685,1.7973938c-1.7076721,1.6256256-3.3462219,3.3238831-5.0125427,4.9929504
		c-0.5354919,0.075119-0.7611847-0.3836212-1.0674133-0.659256c-3.6472931-3.2829132-7.2752228-6.5872803-10.9189453-9.8741302
		c-4.293808-3.8732147-8.5981293-7.734787-12.8978729-11.6014252c-0.4393768-0.2940216-0.9334869-0.151413-1.3999786-0.151535
		c-28.1281509-0.0075684-56.2563095-0.0121307-84.3844376,0.0157776c-0.9705429,0.0009613-1.6206512-0.2627716-2.2455788-1.0024109
		c-1.2350807-1.4618378-2.575161-2.8349762-3.8718376-4.2447662c0.0104561-1.2028046,0.020916-2.4056244,0.0314217-3.6085968
		c2.8234215-0.3272705,5.6467896-0.6544037,8.7077332-1.0090637c-3.0401764-2.6660156-5.8793449-5.1557465-8.7185211-7.6454926
		c-0.0001526-0.299408-0.0003128-0.5987854-0.0003052-0.8986511c3.5899582-0.227005,7.1797485-0.453537,10.2917862-0.6499329
		c-2.5158081-2.7071991-5.151123-5.543808-7.7877655-8.3791809c-0.3010178-0.3237-0.6742554-0.3637543-1.0988884-0.3186646
		c-0.7134972,0.0757599-1.4321976,0.1026001-2.1487083,0.1500397c-0.1420631-0.9100037-0.2841263-1.8200073-0.426281-2.7310944
		c1.0932541,0.2682343,1.7774124,1.1726532,2.6825752,1.7349701c0.3698235,0.2297211,0.6698875,0.5485687,1.1745491,0.4862671
		c3.6243401-0.4474945,7.2504959-0.8802032,11.0948448-1.3439941c-3.0861168-2.7305603-6.0261154-5.3318329-8.9661064-7.9330902
		c0.0158882-0.0964966,0.0317802-0.1929932,0.0476685-0.2894897c4.2064209,0,8.4128342,0,12.6188965-0.0001526
		c0.4998055,0.2029724,1.0251579,0.1301651,1.5411682,0.1302109c27.0585632,0.0026398,54.1171265,0.0053635,81.1756668-0.0127945
		c0.8126221-0.0005417,1.4263611,0.2032623,2.0320892,0.7592392c3.0911255,2.8372421,6.2125092,5.6416855,9.3373413,8.4419327
		C158.5618896,132.0036774,160.2241211,133.4352417,161.8733215,134.8813477z M174.4312897,158.0666504
		c-0.1351929-0.145752-0.2364502-0.2674103-0.3503265-0.3757935c-1.7616425-1.6768494-3.5343781-3.3421783-5.281723-5.033783
		c-0.4817505-0.4663849-0.8383636-0.4165497-1.2935638,0.0353546c-1.6693115,1.6572876-3.3501587,3.3036804-5.058548,4.9204712
		c-0.4650726,0.4401398-0.4615021,0.6921692,0.023056,1.1149902c1.6516113,1.4411774,3.2733307,2.9171906,4.8857727,4.4023285
		c0.5267029,0.4851227,0.9573669,0.554657,1.5206604,0.0321655c1.6657715-1.5450592,3.3684692-3.0502777,5.0535126-4.5746155
		C174.1040802,158.4304199,174.2566528,158.2493896,174.4312897,158.0666504z"></path>
	<path d="M43.237854,120.5011597c-0.1532707-1.7735519-0.3065414-3.5471039-0.485775-5.621048
		c2.4317245,2.1827698,4.6695366,4.1914902,7.1310883,6.4010315c-2.3116035,0.2084503-4.3519592,0.3924484-6.3922462,0.5762863
		C43.4066124,121.4052429,43.3222313,120.9532013,43.237854,120.5011597z"></path>
</g>
<path d="M182.4307098,186.2645874c0.0508575-0.0930634,0.1016998-0.1861267,0.1523895-0.2788239
	C182.5321808,186.0789642,182.4814453,186.1717834,182.4307098,186.2645874z"></path>
<g onclick="select(this)" class="" id="estampa-terciaria" fill="#021c3b">
	<path d="M137.2411499,159.0404053c4.2997437,3.8666382,8.6040649,7.7282104,12.8978729,11.6014252
		c3.6437225,3.28685,7.2716522,6.591217,10.9189453,9.8741302c0.3062286,0.2756348,0.5319214,0.734375,1.0676575,0.6593933
		c1.8839569,1.724762,3.7723236,3.4443359,5.6469574,5.1787567c0.3356476,0.3105164,0.5818634,0.4395905,0.9841919,0.0601807
		c1.8562317-1.750351,3.7391815-3.4724121,5.6125488-5.2046204c2.0500488-1.5561066,3.8340912-3.4137878,5.774765-5.0938873
		c0.7480774-0.647644,1.4919434-1.3001404,2.2375793-1.9505615c-0.0363312,3.9419861,0.4368286,7.875412,0.2014313,11.8205414
		c-0.0506897,0.0926971-0.101532,0.1857605-0.1523895,0.2788239c0.0000153,0.0000153-0.0018768,0.0041962-0.0018158,0.0041046
		c-2.2341919,1.9929504-4.4892426,3.9634857-6.6886444,5.9942932c-0.5747528,0.5307312-0.8907166,0.6404724-1.5152893,0.0350037
		c-1.721405-1.6687469-3.557785-3.2185364-5.2905273-4.8761902c-0.5476074-0.5238647-0.8286285-0.4599457-1.3367462,0.0274048
		c-1.673111,1.6048279-3.4350281,3.1177521-5.0918579,4.7385559c-0.6585236,0.6442108-1.0399933,0.6412354-1.7253418,0.0161438
		c-8.4480591-7.7050629-16.934494-15.368042-25.3843994-23.0710754c-0.7054138-0.6430817-1.4015045-0.8835754-2.3447418-0.882782
		c-27.432785,0.0230255-54.865593,0.0136414-82.2983551,0.0392303c-0.9636917,0.000885-1.6246605-0.2290955-2.2360153-1.007019
		c-0.9836311-1.2516327-2.1049881-2.3950348-3.1681595-3.5841675c-0.2093773-1.5406494-0.2021713-3.0817261-0.0090828-4.6231689
		c30.1144409-0.0004883,60.2288818-0.0007629,90.3433151-0.0027771
		C136.2024078,159.072113,136.7217865,159.0514526,137.2411499,159.0404053z"></path>
	<path d="M183.8149261,126.6496658c-2.7033997,2.1454544-5.139267,4.5932083-7.743866,6.8502579
		c-0.4458008,0.3863068-0.9082947,0.7533417-1.3630676,1.129303c-1.8441162-1.7623291-3.6817322-3.5315247-5.5374451-5.2815094
		c-0.401413-0.3785553-0.6125336-0.6243896-0.067627-1.1120605c5.1387634-4.5990143,10.2526703-9.2258301,15.3769073-13.8411484
		c0.107132-0.0965118,0.2516479-0.1515198,0.4723358-0.2806931c-0.1524811,2.1684952-0.2966919,4.2195969-0.4405975,6.2703476
		c-0.1660004,1.6535263-0.3277893,3.3078766-0.5016174,4.960968
		C183.9639893,125.7819748,183.8809509,126.2149277,183.8149261,126.6496658z"></path>
	<path d="M161.8733063,134.8813324c-1.6491852-1.4460907-3.3114166-2.877655-4.9448242-4.3414001
		c-3.1248322-2.8002472-6.2462158-5.6046906-9.3373413-8.4419327c-0.6057281-0.5559769-1.2194672-0.7597809-2.0320892-0.7592392
		c-27.0585403,0.018158-54.1171036,0.0154343-81.1756668,0.0127945c-0.5160103-0.0000458-1.0413628,0.0727615-1.5411682-0.1302109
		c-2.4384003-2.7343674-4.8771629-5.4688873-7.3320656-8.2215042c0.3539619-0.3202438,0.7254982-0.1678162,1.0540428-0.1679077
		c30.9013824-0.0088882,61.8027649-0.0058746,92.7041321-0.0222931c0.7689972-0.000412,1.340744,0.2024841,1.9161072,0.7252884
		c5.4720306,4.9721298,10.9693451,9.9164581,16.4628143,14.8649597c0.1177368,0.1060486,0.2764282,0.1666718,0.4455719,0.2658234
		C165.9398041,130.8173828,163.9065552,132.84935,161.8733063,134.8813324z"></path>
	<path d="M40.8581963,100.3328552c4.5771332,4.0902176,8.9872665,8.0312042,13.6933861,12.2366867
		c-1.8269272,0-3.2813568-0.0084076-4.7356529,0.0019608c-2.1564522,0.0153809-4.313282,0.0249557-6.468914,0.078743
		c-0.6494751,0.0162125-0.9111366-0.1972504-0.9929428-0.8540115
		C41.8904495,108.0743561,41.3878021,104.3573303,40.8581963,100.3328552z"></path>
</g>
</svg>
