<!--?xml version="1.0" encoding="utf-8"?-->
<!-- Generator: Adobe Illustrator 24.2.3, SVG Export Plug-In . SVG Version: 6.00 Build 0)  -->
<svg version="1.1" id="Camada_1" xmlns="http://www.w3.org/2000/svg" xmlns:xlink="http://www.w3.org/1999/xlink" x="0px" y="0px" viewBox="0 0 229 418" enable-background="new 0 0 229 418" xml:space="preserve">
<g onclick="select(this)" class="" id="estampa-primaria" fill="#71aad4">
	<path d="M43.184227,120.3591003c-0.1574593-1.9019699-0.2635918-3.8100281-0.4886246-5.7039795
		c-0.1797981-1.5132675-0.3913536-1.6106033-1.9219894-1.3255692c-1.0546684,0.1964035-2.1054993,0.4133453-3.1596031,0.6128845
		c-3.7236557,0.7048569-7.4897099,0.4062195-11.2349834,0.3948441c-6.4752865-0.0196609-12.9171953-0.5751572-19.2143612-2.1471405
		c-2.0026436-0.499939-4.0013113-1.0857773-5.9778385-1.7141418c1.020895-4.8060684,1.6644146-9.6716461,2.3388951-14.5333023
		c0.872649-6.2900543,1.9116194-12.5599365,2.6439087-18.8657761c0.7765994-6.6873932,1.853642-13.2944374,3.974463-19.697525
		c2.9442616-8.8891754,7.7607107-16.5268593,15.1724825-22.392849c1.1417255-0.9036102,1.9524097-2.1724854,3.2811241-2.8633461
		c3.6190052-1.8817024,7.2620258-3.7168369,11.0347271-5.271349c9.9860153-4.1146584,19.9939613-8.1792221,29.4552879-13.4397125
		c1.9744034-1.0977669,3.9967499-2.0936747,5.5144348-3.8991308c0.8429108-1.0027447,2.0579147-1.6459785,3.4937134-1.5504146
		c-1.6598358,0.9146581-2.0019836,2.3754401-1.6840515,4.0964561c0.3956909,2.1419916,1.0861511,4.1798086,2.3278809,5.9871454
		c5.9329224,8.6352997,14.296669,13.8952675,24.0654449,17.1269894c2.041748,0.6754532,4.1874008,1.1419945,6.5661926,0.9732132
		c-0.818985-1.2918892-1.7138596-2.3421478-2.6657181-3.3343887c-4.3846359-4.5706615-9.3081741-8.5244236-14.2901917-12.4103851
		c-2.5010681-1.9508305-4.6982346-4.208477-6.6866608-6.6749144c-0.9601822-1.1910152-1.7149582-2.4964218-2.3023758-3.9077702
		c-0.2885437-0.6932478-0.2463684-1.0194101,0.6452408-0.9307556c3.5362701,0.351614,7.0733414,0.7046528,10.6162415,0.9779987
		c7.921875,0.6111984,15.8302765,1.4430838,23.8044815,0.9912195c6.261795-0.3548279,12.5223312-0.704565,18.7725449-1.2287455
		c2.2623138-0.1897326,4.5277405-0.3423519,6.9600983-0.5245132c-0.3562012,0.7652731-0.6235199,1.4240294-0.9593048,2.0458479
		c-1.2259827,2.2702398-2.8836212,4.2098074-4.6701813,6.0531158c-2.8812408,2.9727859-6.3737335,5.2001953-9.5260773,7.842041
		c-3.523674,2.9530506-7.0875015,5.8638573-9.9547958,9.5003853c-0.3962326,0.5025253-0.8958893,0.9767723-0.9921494,1.7654648
		c1.0281219-0.1467667,1.9737854-0.0354576,2.9256516-0.2119141c5.0719757-0.9402618,9.6617355-3.0744553,14.078331-5.6319599
		c3.2989349-1.9103127,6.3558502-4.1792526,9.1010895-6.8097744c3.0965118-2.9671154,5.4707642-6.4256573,6.640976-10.6468983
		c0.6189423-2.2326078,0.0174561-4.2712574-1.6764832-4.7439165c1.9420471-0.3230171,3.1181183,0.8975677,4.2487946,2.1523972
		c0.3474121,0.3855724,0.6845703,0.7272234,1.1278381,1.02145c8.8714447,5.888566,18.7893372,9.6126204,28.526062,13.6821756
		c5.067276,2.1179237,10.0380096,4.4439087,15.0908356,6.5872955c0.2853851,0.121069,0.5596008,0.2832184,0.8128815,0.4630032
		c12.0054626,8.5214882,19.2169037,20.1563911,21.3936157,34.5978508
		c1.7050781,11.3124924,4.6848145,22.3671265,6.2290497,33.6951218c0.3612823,2.6502228,0.8081512,5.2887878,1.2156677,7.9327545
		c-0.4072723-0.0320892-0.7870331,0.0516357-1.1609039,0.2217789c-5.2508698,2.3895721-10.8408508,3.4043884-16.5039825,4.2465134
		c-4.9055786,0.7294693-9.8006744,1.3550644-14.7624969,1.0241394c-3.0189819-0.2013397-6.0679779-0.007515-9.0567627-0.6636734
		c-0.4004364-0.0879288-1.0440521-0.3493347-1.0703583,0.4709015c-0.0688629,2.1481247-0.9662018,4.2106934-0.6513672,6.3962173
		c-0.4419403,0.8073044-0.2948303,1.7095184-0.3963318,2.5679779c-0.9907074,8.3786392-1.7198181,16.7760849-1.745636,25.2220383
		c-0.0067291,2.2005463,0.0687408,4.3852692,0.5246124,6.5559692c0.4008789,1.9087372-0.0432281,3.8250885-0.2062225,5.7295837
		c-0.1811066,2.1162109-0.2468414,4.2292175-0.1479797,6.3477325c0.1008911,2.1623993-0.1498413,4.3116608-0.2017212,6.4661102
		c-0.0682373,2.8337555-0.1215973,5.6735077,0.1285095,8.5087433c0.1475983,1.6730652,0.0784607,3.3501434-0.098175,5.02742
		c-0.3134613,2.9759674,0.161026,5.8720398,0.824295,8.7793121c1.6766205,7.3491974,1.4777679,14.7560425,0.394516,22.1660767
		c-0.3131714,2.142395-0.3707123,4.2083435,0.3324127,6.3562622c1.789505,5.466568,1.8004761,11.0871277,0.9232635,16.7248077
		c-0.2115173,1.3592529-0.2436066,2.6841888,0.0700836,4.0361938c0.886261,3.8198547,0.4920807,7.7170715,0.6769562,11.5814056
		c0.2862549,5.9835815,0.6884613,11.9625854,1.4403229,17.9147034c0.2537231,2.008667,0.2185516,4.0574036,0.2538147,6.0889282
		c0.0314789,1.8131409-0.3387299,2.3127136-2.0966034,2.8403625c-2.9675903,0.8908081-6.046051,1.1467896-9.1074371,1.463501
		c-7.7273102,0.7994385-15.4857635,0.8745728-23.2448273,1.0192871
		c-11.2361755,0.2095642-22.4684143,0.6523743-33.7049484,0.8126526c-12.4795532,0.178009-24.9379959-0.848877-37.4192505-0.848999
		c-8.3984146-0.0000916-16.799118-0.1004944-25.1803284-0.7364502c-4.1492767-0.3148499-8.2854118-0.7527771-12.3534241-1.6774292
		c-0.2727928-0.0620117-0.5451469-0.1272583-0.8147545-0.2017212c-3.0011635-0.8287048-3.3434029-1.173645-3.1586952-4.2307129
		c0.4741859-7.848175,1.0208855-15.6920776,1.5688667-23.535553c0.1421928-2.0353699,0.2741928-4.0685883,0.2251472-6.1084442
		c-0.0433769-1.8041687,0.0425301-3.5978241,0.3647537-5.3743591c0.4024925-2.2190704,0.4543953-4.4303284,0.1269684-6.6729889
		c-0.3675308-2.5173645-0.1233711-5.0311584,0.42342-7.5046387c0.237915-1.0762024,0.1960411-2.1278687,0.1169281-3.2104492
		c-0.3260307-4.4614716-1.0035973-8.9028625-0.8237762-13.394516c0.1759071-4.393631,1.2030106-8.6131439,2.7054672-12.72258
		c0.3647614-0.9976807,0.5816841-1.9600372,0.4271965-3.0288544c-0.1776123-1.2288208-0.1682091-2.4718018,0.0631027-3.7023163
		c0.3129845-1.6650085,0.2037849-3.326767,0.1185341-5.0112915c-0.1672783-3.3053589-0.1792717-6.6202087-0.1929398-9.9314117
		c-0.0532684-12.9004364-0.0429573-25.8012695-0.1390572-38.7013397c-0.0387688-5.2046204-0.991291-10.3377228-1.5477562-15.5010147
		C43.6215096,122.9213791,43.7198563,121.5897675,43.184227,120.3591003z"></path>
</g>
<g onclick="select(this)" class="" id="gola-primaria" fill="#021c3b">
	<path d="M149.1920471,8.2665339c1.6939392,0.4726591,2.2954254,2.5113087,1.6764832,4.7439165
		c-1.1702118,4.221241-3.5444641,7.6797829-6.640976,10.6468983c-2.7452393,2.6305218-5.8021545,4.8994617-9.1010895,6.8097744
		c-4.4165955,2.5575047-9.0063553,4.6916981-14.078331,5.6319599c-0.9518661,0.1764565-1.8975296,0.0651474-2.9256516,0.2119141
		c0.0962601-0.7886925,0.5959167-1.2629395,0.9921494-1.7654648c2.8672943-3.636528,6.4311218-6.5473347,9.9547958-9.5003853
		c3.1523438-2.6418457,6.6448364-4.8692551,9.5260773-7.842041c1.7865601-1.8433084,3.4441986-3.782876,4.6701813-6.0531158
		c0.3357849-0.6218185,0.6031036-1.2805748,0.9593048-2.0458479c-2.4323578,0.1821613-4.6977844,0.3347807-6.9600983,0.5245132
		c-6.2502136,0.5241804-12.5107498,0.8739176-18.7725449,1.2287455c-7.974205,0.4518642-15.8826065-0.3800211-23.8044815-0.9912195
		c-3.5429001-0.2733459-7.0799713-0.6263847-10.6162415-0.9779987c-0.8916092-0.0886545-0.9337845,0.2375078-0.6452408,0.9307556
		c0.5874176,1.4113483,1.3421936,2.7167549,2.3023758,3.9077702c1.9884262,2.4664373,4.1855927,4.7240839,6.6866608,6.6749144
		c4.9820175,3.8859615,9.9055557,7.8397236,14.2901917,12.4103851c0.9518585,0.9922409,1.8467331,2.0424995,2.6657181,3.3343887
		c-2.3787918,0.1687813-4.5244446-0.29776-6.5661926-0.9732132c-9.7687759-3.2317219-18.1325226-8.4916897-24.0654449-17.1269894
		c-1.2417297-1.8073368-1.9321899-3.8451538-2.3278809-5.9871454c-0.3179321-1.7210159,0.0242157-3.181798,1.6840515-4.0964561
		c0.5143661-0.0252366,0.9027328-0.3090868,1.2522583-0.6413717c0.9263687-0.8806643,2.0001678-1.6612997,2.7273788-2.6858664
		c2.0422745-2.8773975,5.0196915-3.6030319,8.2393723-3.9380414c3.0733871-0.3197877,6.1406097,0.0641102,9.2117691,0.0276584
		c4.3972549-0.0521912,8.7969818,0.0443268,13.1928406-0.0513675c7.9100418-0.1721947,15.8178406,0.0474255,23.7266388,0.0363705
		c0.912384-0.0012754,1.8285217,0.1743852,2.7368927,0.3086998c2.2479095,0.3323816,4.1504211,1.1903371,5.5703125,3.1194048
		C145.9542999,5.7696943,147.367691,7.2616229,149.1920471,8.2665339z"></path>
</g>
<g onclick="select(this)" class="" id="detalhe-punho" fill="#021c3b">
	<path d="M0.24,114.41436c0.6107783-1.2420959,0.4154505-2.6777496,0.9468267-3.9383621
		c1.976527,0.6283646,3.9751949,1.2142029,5.9778385,1.7141418c6.2971659,1.5719833,12.7390747,2.1274796,19.2143612,2.1471405
		c3.7452736,0.0113754,7.5113277,0.3100128,11.2349834-0.3948441c1.0541039-0.1995392,2.1049347-0.416481,3.1596031-0.6128845
		c1.5306358-0.2850342,1.7421913-0.1876984,1.9219894,1.3255692c0.2250328,1.8939514,0.3311653,3.8020096,0.4886246,5.7039795
		c-0.9007339,0.7405167-2.0174828,0.9574585-3.1024132,1.1645813c-2.5106468,0.4793091-5.038868,0.7957077-7.609993,0.8197708
		c-6.994585,0.0654373-13.9775391,0.038559-20.892168-1.2381592c-3.0178013-0.5572052-6.0275316-1.1423187-8.9426279-2.1199341
		c-0.8160248-0.273674-1.598931-0.6459885-2.3970258-0.9730606C0.24,116.8129883,0.24,115.613678,0.24,114.41436z"></path>
	<path d="M184.6309204,120.0944595c-0.3148346-2.185524,0.5825043-4.2480927,0.6513672-6.3962173
		c0.0263062-0.8202362,0.6699219-0.5588303,1.0703583-0.4709015c2.9887848,0.6561584,6.0377808,0.4623337,9.0567627,0.6636734
		c4.9618225,0.330925,9.8569183-0.2946701,14.7624969-1.0241394c5.6631317-0.8421249,11.2531128-1.8569412,16.5039825-4.2465134
		c0.3738708-0.1701431,0.7536316-0.2538681,1.1609039-0.2217789c1.1353607,2.336441,1.1766968,4.8449707,1.0996246,7.3563385
		c-0.0221863,0.7228928-0.7844391,0.8354187-1.3140411,1.0370178c-2.8729095,1.0936127-5.8452148,1.8682861-8.8147736,2.6399994
		c-8.731369,2.2690582-17.6292267,2.7698975-26.595108,2.3430557c-2.0615845-0.0981522-4.1379395-0.3113708-6.1459808-0.8887787
		C185.5256805,120.7307129,184.9997711,120.5572357,184.6309204,120.0944595z"></path>
</g>
<g onclick="select(this)" class="" id="estampa-secundaria" fill="#021c3b">
	<path d="M43.316925,120.4275131c-0.1719704-3.5095444-0.6853294-6.9850922-1.1276131-10.4635925
		c-0.7550583-5.9383545-1.4463615-11.8944473-3.0803909-17.6823959c-0.6836128-2.4214401-1.5465012-4.7760849-2.5187263-7.0988388
		c-1.2730637-3.0415039-1.1876984-3.0949707,1.7950172-4.4927444c7.9775696-3.7384491,15.9382477-7.5130997,23.9947968-11.0804062
		C74.5906372,64.2028503,86.8603821,58.929966,99.6060028,54.89217c6.8368759-2.1659088,13.8290176-2.4258232,20.9495468-1.3242035
		c9.4470901,1.4615669,18.1026688,5.3333702,26.9940872,8.4733849c10.3364258,3.6503296,20.465271,7.8493729,30.512085,12.2332306
		c4.8594971,2.1203918,9.6564484,4.3836212,14.4946136,6.553421c0.5626831,0.2523499,0.7144012,0.5007248,0.4744415,1.0774612
		c-0.7800903,1.8749161-1.2962189,3.8397598-2.1981659,5.6847305c-1.8617096,3.8081894-2.5233765,7.9975433-3.4595032,12.0841904
		c-1.481308,6.466568-2.5205231,13.0071869-2.8459625,19.6457214c-0.0135498,0.2762604,0.0075226,0.5542221,0.0124359,0.8313599
		c-0.3253937,3.0885239-0.6477356,6.1774139-0.9797211,9.2652512c-0.0467834,0.4349823-0.1406708,0.8649139-0.2127533,1.2971649
		c-2.5793457-0.1872711-5.1411133,0.199585-7.7306976,0.1624603c-12.5855865-0.1804962-25.1745911-0.1083221-37.7620087-0.1855621
		c-6.5479279-0.0401917-13.095047-0.0068359-19.6448517-0.1200714c-11.6650009-0.2016602-23.3357697-0.1054993-35.0039825-0.0774231
		c-12.8581161,0.0309448-25.7180405-0.1938019-38.5738869,0.2286072
		C44.1934242,127.2904358,43.7551765,123.8589706,43.316925,120.4275131z"></path>
	<path d="M182.5967407,143.4724274c0.1101685,2.6290283-0.434967,5.3022308,0.065033,7.8773804
		c0.7455597,3.8400116,0.1946564,7.6142273,0.0025635,11.4220276c-0.1061554,2.1044159-0.0230408,4.2183685-0.0252533,6.3280182
		c-45.6791687,0.2720337-91.3582993,0.2774811-137.0374451-0.0007782c-0.3374405-2.0182495-0.3347549-4.0618591-0.3340759-6.092865
		c0.0021744-6.5104675,0.0839615-13.020874,0.1349907-19.53125c1.6770058-0.0353699,3.3540535-0.1015015,5.031105-0.1017303
		c42.2173462-0.005722,84.4347-0.0057831,126.6520309-0.0000916
		C178.9227142,143.3733826,180.7597198,143.437851,182.5967407,143.4724274z"></path>
	<path d="M182.6146393,183.2797546c-0.0255127,2.9896393-0.5478973,5.9988251,0.0601654,8.9631348
		c0.5452728,2.6581879,1.1613007,5.3001404,1.4755402,7.9986267c0.1384888,1.1891785,0.2224731,2.3847046,0.3312378,3.5772858
		c-0.4784241,0.0213776-0.9568634,0.0615387-1.4353333,0.0615082c-7.4772949-0.0005188-14.9546051-0.010376-22.4319-0.0100861
		c-38.9061279,0.0014954-77.8122635,0.0052643-116.718399,0.0082092c-0.0325432-1.3789673,0.605999-2.5715332,1.0959625-3.7957153
		c0.377224-0.9425049,0.5813293-1.8616486,0.4421463-2.8919983c-0.1920509-1.4217377-0.1565132-2.8553772,0.1144371-4.2758179
		c0.2554092-1.3389893,0.3071899-2.6903229,0.0798378-4.0350189c-0.3156815-1.867157,0.0157928-3.7267609,0.0078812-5.5895844
		c1.9187012-0.0165863,3.8374214-0.0475159,5.7561378-0.0476532c41.6619415-0.0027161,83.3238831-0.0025787,124.9858246-0.0003204
		C178.4570007,183.2424469,180.5358124,183.2667236,182.6146393,183.2797546z"></path>
	<path d="M42.5231133,217.8283844c3.3980713,0.0039368,6.7961464,0.0112457,10.1942177,0.0113068
		c40.6260757,0.0007935,81.2521515,0.000946,121.8782349-0.0003815c2.998291-0.0000916,5.9965973-0.0129242,8.9949188-0.0197449
		c-0.5711823,2.7654419,0.3751068,5.329071,1.0110474,7.9454803c0.3571472,1.4693909,0.5305939,2.983429,0.7867432,4.4771881
		c-0.0927124,0.1168213-0.0791626,0.2222595,0.0343323,0.3168488c0.0054779,0.2025299,0.0109558,0.4050446,0.0163879,0.607605
		c-2.8778534,0.0287933-5.7557068,0.0821991-8.6335297,0.0825653c-42.0292969,0.0054169-84.0586014,0.005249-126.0879059,0.0001831
		c-2.6380196-0.0003204-5.2760315-0.0519867-7.9139862-0.0796509c1.0243607-3.9518127-0.0226288-7.870697-0.1897507-11.8035126
		C42.5920296,218.8532867,42.5537567,218.3410034,42.5231133,217.8283844z"></path>
	<path d="M42.26474,245.4008179c3.7968292,0.0017853,7.5936584,0.0050659,11.3904877,0.0050964
		c40.2501984,0.0003815,80.5003815,0.0016632,120.7505798-0.0021362c3.5568085-0.0003357,7.1136017-0.0345459,10.6705933-0.0529327
		c0.7659454,2.6678009,0.7137756,5.3969116,0.6109161,8.1298828c-3.4335938,0.0566559-6.8674469-0.0644989-10.2978973-0.0691223
		c-41.6587982-0.0562439-83.3177338-0.0519409-124.9765472-0.0019684c-2.790184,0.0033417-5.585598,0.1173553-8.3798981,0.0922394
		C42.2015724,250.8041229,41.8571129,248.0917358,42.26474,245.4008179z"></path>
	<path d="M41.2364426,267.4020996c3.3554726,0.0415955,6.7109413,0.1187744,10.0664215,0.1194153
		c41.4966354,0.0083008,82.9932632,0.007019,124.4899063,0.0026245c3.5564575-0.0003967,7.112915-0.0405273,10.669342-0.0622253
		c0.0789948,1.1065369,0.1580048,2.2130737,0.2370148,3.3196411c-0.479599,0.0076904-0.9591827,0.0221252-1.438797,0.0221252
		c-47.6570587,0.0010071-95.3141327,0.0010376-142.9711914-0.0002747c-0.4794426,0-0.9588814-0.0187073-1.4382095-0.0285339
		C40.9084358,269.6425781,40.7627296,268.486969,41.2364426,267.4020996z"></path>
</g>
</svg>
