<!--?xml version="1.0" encoding="utf-8"?-->
<!-- Generator: Adobe Illustrator 24.2.3, SVG Export Plug-In . SVG Version: 6.00 Build 0)  -->
<svg version="1.1" id="Camada_1" xmlns="http://www.w3.org/2000/svg" xmlns:xlink="http://www.w3.org/1999/xlink" x="0px" y="0px" viewBox="0 0 229 418" enable-background="new 0 0 229 418" xml:space="preserve">
<g onclick="select(this)" class="" id="detalhe-punho" fill="#ce6b03">
	<path d="M0.24,114.41436c0.5066518-1.0333099,0.4623487-2.1853943,0.7029477-3.2761536
		c0.1164828-0.5280762,0.0638708-1.1035385,0.4705237-1.5418396c4.7471166,1.9192047,9.661128,3.2643356,14.739399,3.8523865
		c5.6213551,0.6509323,11.2752342,0.8683701,16.9397697,0.6843262c2.350296-0.076355,4.6895752-0.1641083,7.0189934-0.5657349
		c0.8487549-0.1463318,1.4449158-0.8912582,2.3408813-0.7894821c0.4804115,1.3697586,0.2444649,2.8194885,0.4263916,4.2271881
		c0.1480598,1.1455917,0.8794975,2.2632141,0.3643112,3.4790955c-2.841095,1.3330917-5.9081955,1.7382584-8.9673958,1.7949448
		c-7.0645809,0.130928-14.1399384,0.3043518-21.1575737-0.9066238c-3.6142483-0.6236801-7.2130728-1.2875977-10.7040243-2.4304047
		c-0.7462479-0.2443008-1.4505816-0.6164856-2.1742241-0.9297638C0.24,116.8129883,0.24,115.613678,0.24,114.41436z"></path>
	<path d="M184.6167908,120.2029724c0.0372009-2.5699768,0.0365143-5.1422272,0.4629211-7.688797
		c0.9396362,0.5695877,1.9786682,0.9036407,3.0544434,0.9562988c5.6075439,0.2745056,11.228775,0.5989304,16.8232422-0.0108337
		c3.9904938-0.4349365,7.9450073-1.161026,11.8859558-1.9935684c3.0928345-0.6533813,6.000824-1.8692627,9.0736084-2.5406494
		c0.6487732-0.1417542,1.2501068-0.5003433,1.873291-0.7590942c1.0290527,2.4653549,1.3149261,5.0500107,1.1316986,7.6846695
		c-0.0435181,0.6258698-0.7669983,0.7556763-1.2712555,0.942894c-3.2154999,1.1938553-6.5277557,2.0655441-9.8517761,2.8920898
		c-8.3978119,2.0882339-16.9433594,2.4642563-25.539505,2.1048508c-1.8251953-0.0763016-3.6426392-0.4177322-5.4543915-0.6971664
		C186.0230713,120.9730606,185.2617188,120.7066879,184.6167908,120.2029724z"></path>
</g>
<g onclick="select(this)" class="" id="gola-secundaria" fill="#ce6b03">
	<path d="M127.5429077,26.2013435c-2.5357285,2.3392677-5.2318497,4.5114994-7.4805527,7.1498528
		c-0.7970963,0.9352226-1.6230545,1.8531532-2.1212006,3.0007591c-2.3132095,0.5602531-4.6457596,0.380825-6.9806519,0.1973152
		c-0.6160583-0.0484238-1.1409073-0.2847061-1.6344376-0.6280861c-2.7191315-3.6985855-6.2109375-6.6337395-9.5777512-9.6924343
		c2.8338776-0.0287647,5.6676941-0.0822201,8.5014725-0.080719
		C114.6808319,26.1514378,121.1118698,26.1818867,127.5429077,26.2013435z"></path>
</g>
<path d="M189.3682404,91.1565399c0.0375671-0.1338425,0.0751343-0.2676697,0.1127014-0.4015045
	c0.0261383,0.028389,0.072525,0.0551529,0.0749512,0.0854416c0.012146,0.1519699,0.0203705,0.3102493-0.208313,0.2966614
	C189.3475342,91.1370926,189.3682556,91.1565399,189.3682404,91.1565399z"></path>
<g onclick="select(this)" class="" id="estampa-primaria" fill="#104969">
	<path d="M42.4525146,112.7778625c-0.8959656-0.1017761-1.4921265,0.6431503-2.3408813,0.7894821
		c-2.3294182,0.4016266-4.6686974,0.4893799-7.0189934,0.5657349c-5.6645355,0.1840439-11.3184147-0.0333939-16.9397697-0.6843262
		c-5.0782709-0.5880508-9.9922829-1.9331818-14.739399-3.8523865c1.6968609-8.914566,2.4887414-17.9633636,4.0001216-26.9052277
		c0.8855782-5.2393951,1.1788788-10.5595551,2.2399788-15.7781677c1.7292542-8.504673,4.4516625-16.5878448,9.6675148-23.6606789
		c2.1221428-2.8776779,4.5377884-5.4906731,7.3400173-7.7103424c1.3638763-1.0803337,2.3639584-2.5835495,3.9253693-3.4050064
		c3.6099453-1.8991852,7.2583332-3.7276974,11.0324497-5.2813187c9.9905014-4.1125946,20.000515-8.1803665,29.4651909-13.4415846
		c1.9752426-1.0979939,3.9976349-2.0948963,5.5164642-3.8997173c0.8439026-1.0028076,2.0582657-1.6470857,3.4946365-1.5515785
		c-0.7558746,0.5328951-1.5331879,1.0660648-1.6987534,2.062746c-0.1725082,1.0384579-0.0040817,2.0608931,0.2305679,3.0806484
		c0.8830185,3.837533,3.1326141,6.8899431,5.7837296,9.6242762c4.1407776,4.2707672,9.0156021,7.5629692,14.3707428,10.1524506
		c3.6889725,1.783802,7.5359039,2.990303,11.6402817,3.2895241c0.3121796,0.0227585,0.7304688,0.2811508,0.9042816-0.2512054
		c0.4935303,0.34338,1.0183792,0.5796623,1.6344376,0.6280861c2.3348923,0.1835098,4.6674423,0.3629379,6.9804306-0.1974907
		c1.4196167-0.1702423,2.8583298-0.2460022,4.2553558-0.5279999c4.6530914-0.9392471,8.8572388-3.0047417,12.9284058-5.3568268
		c3.3010712-1.907156,6.3566895-4.1787777,9.102417-6.8089809c3.0971222-2.9667912,5.4711609-6.4257278,6.6416321-10.6471872
		c0.6194-2.2338791,0.0160675-4.2730255-1.6763763-4.744153c1.9420929-0.322947,3.1181183,0.8977289,4.248703,2.1526375
		c0.3474121,0.3856363,0.6847076,0.7271471,1.1279755,1.0213566c8.8716431,5.8886719,18.7898102,9.6126652,28.5267792,13.6823082
		c5.0673981,2.11796,10.038208,4.4440956,15.0911713,6.5874882c0.2853394,0.1210365,0.5591431,0.2838707,0.8124237,0.4636726
		c11.9666901,8.4952011,19.1779327,20.08321,21.3682709,34.4821701c1.7443542,11.4671555,4.7389374,22.6825333,6.318634,34.166687
		c0.3372803,2.4519806,0.734375,4.8957443,1.1039429,7.3433762c-0.6231995,0.2587509-1.2245331,0.6173401-1.8733063,0.7590942
		c-3.0727844,0.6713867-5.9807739,1.8872681-9.0736084,2.5406494c-3.9409485,0.8325424-7.895462,1.5586319-11.8859558,1.9935684
		c-5.5944672,0.6097641-11.2156982,0.2853394-16.8232422,0.0108337c-1.0757751-0.0526581-2.1148071-0.3867111-3.0544434-0.9562912
		c0.9133911-6.7970581,2.1953278-13.5191116,4.0814209-20.1194687c0.1157684-0.4051895,0.4060059-0.7978287,0.1864471-1.257576
		c0.2286835,0.013588,0.220459-0.1446915,0.208313-0.2966614c-0.0024261-0.0302887-0.0488129-0.0570526-0.0749512-0.0854416
		c-0.0375671,0.1338348-0.0751343,0.267662-0.1127014,0.4015045c-0.3382111,0.0892105-0.3290253,0.4327927-0.4303589,0.6598129
		c-2.0418243,4.5738068-3.5193329,9.3472748-4.7613068,14.1821518c-2.4084015,9.3755341-3.9837952,18.8970871-4.9313965,28.5371094
		c-0.4706268,4.7878876-0.8178406,9.5828094-1.1401062,14.3773499c-0.3235474,4.8140259-0.4896545,9.6474457-0.4935303,14.4725189
		c-0.0137329,17.0256653-0.293335,34.0512085,0.1540527,51.0777435c0.191925,7.3041687,0.2595215,14.6112518,0.5149689,21.9160767
		c0.170105,4.8651276,0.3197784,9.7314301,0.4851532,14.597168c0.2033081,5.9811401,0.4586487,11.9578552,0.7411346,17.9355164
		c0.2373199,5.0215149,0.4161835,10.0449524,0.8100586,15.0577393c-7.654129,1.0699463-15.3581696,1.3612976-23.0732422,1.4522095
		c-12.9472198,0.1525879-25.8881531,0.5621033-38.8301086,0.9285583c-6.7608643,0.1914368-13.4958496-0.465271-20.2470093-0.5768127
		c-8.7105942-0.1439209-17.4220123-0.2460938-26.1319199-0.4232483c-8.3101959-0.1690063-16.6230583-0.3526306-24.8476982-1.7511597
		c0.5422516-3.7596436,0.4815598-7.5604248,0.7390556-11.3394775c0.3821983-5.6092529,0.5796967-11.2329712,0.7604179-16.8535767
		c0.1423416-4.4268494,0.2932549-8.852417,0.473175-13.2781372c0.2545853-6.2624054,0.3896675-12.5300751,0.535202-18.7964172
		c0.0927391-3.9929047,0.1909142-7.9915466,0.1893997-11.9799347c-0.00811-21.4069519,0.6336784-42.8216705-0.6577225-64.2175446
		c-0.2539635-4.2076416-0.5594025-8.4050293-0.9685097-12.6003418c-0.4473228-4.5871887-1.0582695-9.1419525-1.8283081-13.6878357
		c-1.0712128-6.3238525-2.2926559-12.6049652-4.1846809-18.7393494c-0.5815163-1.8854294-1.0368538-3.8216553-1.9383469-5.6982117
		c-0.5278625,0.8900604,0.2040977,1.4512558,0.2923431,2.1296234c0.3710556,2.852478,0.8811569,5.6868515,1.2544365,8.5390854
		C42.1011581,108.9703293,42.5416451,110.8479462,42.4525146,112.7778625z"></path>
	<path d="M127.5429077,26.2013454c-6.4310379-0.0194588-12.8620758-0.0499077-19.2931213-0.0533142
		c-2.8337784-0.0015011-5.6675949,0.0519543-8.5014725,0.080719c-5.0048599-4.1429901-10.5227814-7.7175179-14.446312-13.0585613
		c-0.7870941-1.0714455-1.3979874-2.228776-1.9132462-3.447176c-0.3056183-0.7226677-0.0586929-0.9086885,0.6669769-0.8316221
		c7.1110229,0.755187,14.2389526,1.3106298,21.3717041,1.816123c5.5933609,0.3963957,11.1826706,0.3527241,16.7722092-0.018959
		c5.381424-0.3578434,10.7616425-0.7339849,16.1413574-1.1168613c1.9062347-0.1356678,3.8093567-0.3148613,5.8538818-0.4858923
		c-0.84935,2.3374853-2.1702576,4.2213564-3.6611938,5.995595c-1.937149,2.3052006-4.1574707,4.311861-6.5503387,6.1364632
		C131.8248596,22.8637238,129.6888275,24.5390263,127.5429077,26.2013454z"></path>
</g>
<g onclick="select(this)" class="selected" id="estampa-secundaria" fill="#000000">
	<path d="M100.0137329,106.0974121v26.4266968l0.8812866-0.7142944v-26.4299927L100.0137329,106.0974121z
		 M97.0887451,108.4790649v26.4157715l0.9000244-0.7294922v-26.4191284L97.0887451,108.4790649z M94.2537231,110.7874756v26.4050903
		l0.8550415-0.6929932v-26.4083252L94.2537231,110.7874756z M77.8775024,124.1220093l-0.9675293,0.7878418v26.3399658
		l0.9675293-0.7841797V124.1220093z M78.4400024,123.6640015v26.3457031l0.8549805-0.6929932v-26.348938L78.4400024,123.6640015z
		 M79.8574829,122.5097656v26.3510742l0.8775024-0.7112427v-26.3543701L79.8574829,122.5097656z M81.2974854,121.3372192v26.3564453
		l0.8550415-0.6929932v-26.3596802L81.2974854,121.3372192z M82.7150269,120.1829834v26.3618164l0.8549805-0.6929932v-26.3649902
		L82.7150269,120.1829834z M84.1325073,119.0287476v26.3671265l0.8999634-0.7294312v-26.3704834L84.1325073,119.0287476z
		 M85.5949707,117.8379517v26.3726196l0.9000244-0.7294922v-26.3759766L85.5949707,117.8379517z M87.0574951,116.6470947v26.3780518
		l0.8887329-0.7203369v-26.3814087L87.0574951,116.6470947z M88.508728,115.4653931v26.3834839l0.8550415-0.6929932V114.769165
		L88.508728,115.4653931z M89.9262695,114.3111572v26.388855l0.9074707-0.7355347v-26.3922729L89.9262695,114.3111572z
		 M91.3962402,113.1141968v26.3944092l0.8549805-0.6929932v-26.397583L91.3962402,113.1141968z M92.8137207,111.960022v26.3997192
		l0.8775024-0.7112427v-26.4030151L92.8137207,111.960022z M95.6712646,109.6332397v26.4104614l0.8549805-0.6929932v-26.4136353
		L95.6712646,109.6332397z M98.5512695,107.288208v26.4212036l0.8999634-0.7294312v-26.4245605L98.5512695,107.288208z
		 M77.2231064,97.7860794h0.3168945v26.8687897h-0.3168945V97.7860794z M78.7090454,96.6310806h0.3168945v26.8687897h-0.3168945
		V96.6310806z M80.0740585,95.6164322h0.3168945v26.8687897h-0.3168945V95.6164322z M81.5599976,94.4614334h0.3168945v26.8687897
		h-0.3168945V94.4614334z M82.9831085,93.1360779h0.3168945v26.8687897h-0.3168945V93.1360779z M84.4690475,91.9810791h0.3168945
		v26.8687897h-0.3168945V91.9810791z M85.8340607,90.9664383h0.3168945v26.8687897h-0.3168945V90.9664383z M87.3199997,89.8114319
		h0.3168945v26.8687897h-0.3168945V89.8114319z M88.7281036,88.3390121h0.3168945v26.8687897h-0.3168945V88.3390121z
		 M90.2140427,87.1840057h0.3168945v26.8687897h-0.3168945V87.1840057z M91.5790634,86.1693649h0.3168945v26.8687897h-0.3168945
		V86.1693649z M93.0650024,85.0143661h0.3168945v26.8687897h-0.3168945V85.0143661z M94.4881058,83.6890106h0.3168945v26.8687897
		h-0.3168945V83.6890106z M95.9740448,82.5340118h0.3168945v26.8687897h-0.3168945V82.5340118z M97.3390579,81.5193634h0.3168945
		v26.8687897h-0.3168945V81.5193634z M98.8249969,80.3643646h0.3168945v26.8687897h-0.3168945V80.3643646z M100.295929,79.0593643
		h0.3168945v26.8687897h-0.3168945V79.0593643z M100.0137329,53.6713562V80.098053l0.8812866-0.7142944V52.9537659
		L100.0137329,53.6713562z M97.0887451,56.053009v26.4157715l0.9000244-0.7294922V55.3201599L97.0887451,56.053009z
		 M94.2537231,58.3614197V84.76651l0.8550415-0.6929932V57.6651917L94.2537231,58.3614197z M77.8775024,71.6959534
		l-0.9675293,0.7878418V98.823761l0.9675293-0.7841797V71.6959534z M78.4400024,71.2379456v26.3457031l0.8549805-0.6929932
		v-26.348938L78.4400024,71.2379456z M79.8574829,70.0837097v26.3510742l0.8775024-0.7112427V69.3691711L79.8574829,70.0837097z
		 M81.2974854,68.9111633v26.3564453l0.8550415-0.6929932V68.2149353L81.2974854,68.9111633z M82.7150269,67.7569275v26.3618164
		l0.8549805-0.6929932V67.0607605L82.7150269,67.7569275z M84.1325073,66.6026917v26.3671265l0.8999634-0.7294312V65.8699036
		L84.1325073,66.6026917z M85.5949707,65.4118958v26.3726196l0.9000244-0.7294922V64.6790466L85.5949707,65.4118958z
		 M87.0574951,64.2210388v26.3780518l0.8887329-0.7203369V63.497345L87.0574951,64.2210388z M88.508728,63.0393372V89.422821
		l0.8550415-0.6929932V62.3431091L88.508728,63.0393372z M89.9262695,61.8851013v26.388855l0.9074707-0.7355347V61.1461487
		L89.9262695,61.8851013z M91.3962402,60.6881409V87.08255l0.8549805-0.6929932v-26.397583L91.3962402,60.6881409z
		 M92.8137207,59.5339661v26.3997192l0.8775024-0.7112427V58.8194275L92.8137207,59.5339661z M95.6712646,57.2071838v26.4104614
		l0.8549805-0.6929932V56.5110168L95.6712646,57.2071838z M98.5512695,54.8621521v26.4212036l0.8999634-0.7294312V54.129364
		L98.5512695,54.8621521z M77.2231064,45.3600235h0.3168945v26.8687897h-0.3168945V45.3600235z M78.7090454,44.2050247h0.3168945
		v26.8687897h-0.3168945V44.2050247z M80.0740585,43.1903763h0.3168945V70.059166h-0.3168945V43.1903763z M81.5599976,42.0353775
		h0.3168945v26.8687897h-0.3168945V42.0353775z M82.9831085,40.710022h0.3168945v26.8687897h-0.3168945V40.710022z
		 M84.4690475,39.5550232h0.3168945v26.8687897h-0.3168945V39.5550232z M85.8340607,38.5403824h0.3168945v26.8687897h-0.3168945
		V38.5403824z M87.3199997,37.385376h0.3168945v26.8687897h-0.3168945V37.385376z M88.7281036,35.9129562h0.3168945v26.8687897
		h-0.3168945V35.9129562z M90.2140427,34.7579498h0.3168945v26.8687897h-0.3168945V34.7579498z M91.5790634,33.743309h0.3168945
		v26.8687897h-0.3168945V33.743309z M93.0650024,32.5883102h0.3168945v26.8687897h-0.3168945V32.5883102z M94.8050003,31.9412937
		v26.1904507h-0.3168945V31.7687321L94.8050003,31.9412937z M96.2909393,32.7001534v24.2765923h-0.3168945v-24.431633
		L96.2909393,32.7001534z M97.6559525,33.3284569v22.6336403h-0.3168945V33.1883125L97.6559525,33.3284569z M99.1418915,33.9417229
		v20.8653755h-0.3168945V33.8169708L99.1418915,33.9417229z M100.6128235,34.4803619v19.0217361h-0.3168945v-19.132267
		L100.6128235,34.4803619z M76.9099731,23.5248318v22.4978733l0.9675293-0.7841797V22.9098358L76.9099731,23.5248318z
		 M78.4400024,22.6548271v22.1277657l0.8549805-0.6929932V22.1148319L78.4400024,22.6548271z M79.8574829,21.8298302V43.633728
		l0.8775024-0.7112427V21.1548328L79.8574829,21.8298302z M81.2974854,21.5614433v20.9051094l0.8550415-0.6929932V22.5109158
		L81.2974854,21.5614433z M82.7150269,23.0953407V41.317688l0.8549805-0.6929932V23.9318905L82.7150269,23.0953407z
		 M84.1325073,24.4524708v15.7162914l0.8999634-0.7294312V25.2431488L84.1325073,24.4524708z M85.6062241,25.7234268v13.3050308
		l0.9000244-0.7294922V26.4445L85.6062241,25.7234268z M87.0574951,26.8689804v10.9290543l0.8887329-0.7203369v-9.5481586
		L87.0574951,26.8689804z M88.508728,27.9342861v8.687479l0.8550415-0.6929932v-7.3963356L88.508728,27.9342861z
		 M89.9262695,28.9161224v6.556778l0.9074707-0.7355347v-5.2161579L89.9262695,28.9161224z M91.3962402,29.8889389v4.3925552
		l0.8549805-0.6929932v-3.1492462L91.3962402,29.8889389z M92.8137207,30.7926941v2.3399353l0.8775024-0.7112427v-1.1031895
		L92.8137207,30.7926941z M100.0137329,158.8839722v26.4266968l0.8812866-0.7142944v-26.4299927L100.0137329,158.8839722z
		 M97.0887451,161.265625v26.4157715l0.9000244-0.7294922v-26.4191284L97.0887451,161.265625z M94.2537231,163.5740356v26.4050903
		l0.8550415-0.6929932v-26.4083252L94.2537231,163.5740356z M77.8775024,176.9085693l-0.9675293,0.7878418v26.3399658
		l0.9675293-0.7841797V176.9085693z M78.4400024,176.4505615v26.3457031l0.8549805-0.6929932v-26.348938L78.4400024,176.4505615z
		 M79.8574829,175.2963257v26.3510742l0.8775024-0.7112427v-26.3543701L79.8574829,175.2963257z M81.2974854,174.1237793v26.3564453
		l0.8550415-0.6929932v-26.3596802L81.2974854,174.1237793z M82.7150269,172.9695435v26.3618164l0.8549805-0.6929932v-26.3649902
		L82.7150269,172.9695435z M84.1325073,171.8153076v26.3671265l0.8999634-0.7294312v-26.3704834L84.1325073,171.8153076z
		 M85.5949707,170.6245117v26.3726196l0.9000244-0.7294922v-26.3759766L85.5949707,170.6245117z M87.0574951,169.4336548v26.3780518
		l0.8887329-0.7203369v-26.3814087L87.0574951,169.4336548z M88.508728,168.2519531v26.3834839l0.8550415-0.6929932v-26.3867188
		L88.508728,168.2519531z M89.9262695,167.0977173v26.388855l0.9074707-0.7355347v-26.3922729L89.9262695,167.0977173z
		 M91.3962402,165.9007568v26.3944092l0.8549805-0.6929932v-26.397583L91.3962402,165.9007568z M92.8137207,164.746582v26.3997192
		l0.8775024-0.7112427v-26.4030151L92.8137207,164.746582z M95.6712646,162.4197998v26.4104614l0.8549805-0.6929932v-26.4136353
		L95.6712646,162.4197998z M98.5512695,160.0747681v26.4212036l0.8999634-0.7294312V159.34198L98.5512695,160.0747681z
		 M77.2231064,150.5726318h0.3168945v26.8687897h-0.3168945V150.5726318z M78.7090454,149.4176331h0.3168945v26.8687897h-0.3168945
		V149.4176331z M80.0740585,148.4029846h0.3168945v26.8687897h-0.3168945V148.4029846z M81.5599976,147.2479858h0.3168945
		v26.8687897h-0.3168945V147.2479858z M82.9831085,145.9226379h0.3168945v26.8687897h-0.3168945V145.9226379z
		 M84.4690475,144.7676392h0.3168945v26.8687897h-0.3168945V144.7676392z M85.8340607,143.7529907h0.3168945v26.8687897h-0.3168945
		V143.7529907z M87.3199997,142.5979919h0.3168945v26.8687897h-0.3168945V142.5979919z M88.7281036,141.1255646h0.3168945
		v26.8687897h-0.3168945V141.1255646z M90.2140427,139.9705658h0.3168945v26.8687897h-0.3168945V139.9705658z
		 M91.5790634,138.9559174h0.3168945v26.8687897h-0.3168945V138.9559174z M93.0650024,137.8009186h0.3168945v26.8687897h-0.3168945
		V137.8009186z M94.4881058,136.4755554h0.3168945v26.8687897h-0.3168945V136.4755554z M95.9740448,135.3205566h0.3168945
		v26.8687897h-0.3168945V135.3205566z M97.3390579,134.3059235h0.3168945v26.8687897h-0.3168945V134.3059235z
		 M98.8249969,133.1509094h0.3168945v26.8687897h-0.3168945V133.1509094z M100.295929,131.8459167h0.3168945v26.8687897h-0.3168945
		V131.8459167z M100.0137329,211.670517v26.4266968l0.8812866-0.7142944v-26.4299927L100.0137329,211.670517z
		 M97.0887451,214.0521698v26.4157715l0.9000244-0.7294922v-26.4191284L97.0887451,214.0521698z M94.2537231,216.3605804v26.4050903
		l0.8550415-0.6929932v-26.4083252L94.2537231,216.3605804z M77.8775024,229.6951141l-0.9675293,0.7878418v26.3399811
		l0.9675293-0.7841797V229.6951141z M78.4400024,229.2371063v26.3457031l0.8549805-0.6929932v-26.348938L78.4400024,229.2371063z
		 M79.8574829,228.0828705v26.3510742l0.8775024-0.7112427v-26.3543701L79.8574829,228.0828705z M81.2974854,226.9103241v26.3564453
		l0.8550415-0.6929932v-26.3596802L81.2974854,226.9103241z M82.7150269,225.7560883v26.3618164l0.8549805-0.6929932v-26.3649902
		L82.7150269,225.7560883z M84.1325073,224.6018524v26.3671265l0.8999634-0.7294312v-26.3704834L84.1325073,224.6018524z
		 M85.5949707,223.4110565v26.3726196l0.9000244-0.7294922v-26.3759766L85.5949707,223.4110565z M87.0574951,222.2201996v26.3780518
		l0.8887329-0.7203369v-26.3814087L87.0574951,222.2201996z M88.508728,221.0384979v26.3834839l0.8550415-0.6929932v-26.3867188
		L88.508728,221.0384979z M89.9262695,219.8842621v26.388855l0.9074707-0.7355347v-26.3922729L89.9262695,219.8842621z
		 M91.3962402,218.6873016v26.3944092l0.8549805-0.6929932v-26.397583L91.3962402,218.6873016z M92.8137207,217.5331268v26.3997192
		l0.8775024-0.7112427v-26.4030151L92.8137207,217.5331268z M95.6712646,215.2063446v26.4104614l0.8549805-0.6929932v-26.4136353
		L95.6712646,215.2063446z M98.5512695,212.8613129v26.4212036l0.8999634-0.7294312v-26.4245605L98.5512695,212.8613129z
		 M77.2231064,203.3591919h0.3168945v26.8687897h-0.3168945V203.3591919z M78.7090454,202.2041931h0.3168945v26.8687897h-0.3168945
		V202.2041931z M80.0740585,201.1895447h0.3168945v26.8687897h-0.3168945V201.1895447z M81.5599976,200.0345459h0.3168945
		v26.8687897h-0.3168945V200.0345459z M82.9831085,198.7091827h0.3168945v26.8687897h-0.3168945V198.7091827z
		 M84.4690475,197.554184h0.3168945v26.8687897h-0.3168945V197.554184z M85.8340607,196.5395508h0.3168945v26.8687897h-0.3168945
		V196.5395508z M87.3199997,195.3845367h0.3168945v26.8687897h-0.3168945V195.3845367z M88.7281036,193.9121094h0.3168945
		v26.8687897h-0.3168945V193.9121094z M90.2140427,192.7571106h0.3168945v26.8687897h-0.3168945V192.7571106z
		 M91.5790634,191.7424774h0.3168945v26.8687897h-0.3168945V191.7424774z M93.0650024,190.5874634h0.3168945v26.8687897h-0.3168945
		V190.5874634z M94.4881058,189.2621155h0.3168945v26.8687897h-0.3168945V189.2621155z M95.9740448,188.1071167h0.3168945
		v26.8687897h-0.3168945V188.1071167z M97.3390579,187.0924683h0.3168945v26.8687897h-0.3168945V187.0924683z
		 M98.8249969,185.9374695h0.3168945v26.8687897h-0.3168945V185.9374695z M100.295929,184.6324768h0.3168945v26.8687897h-0.3168945
		V184.6324768z M100.0137329,263.7505188V285.9263l0.8812866,0.0358276v-22.9291992L100.0137329,263.7505188z
		 M97.0887451,266.1321716v19.6838074l0.9000244,0.033783v-20.4504395L97.0887451,266.1321716z M94.2537231,268.4405823v17.2724915
		l0.8550415,0.0302734v-17.9989929L94.2537231,268.4405823z M77.8775024,281.775116l-0.9675293,0.7878418v2.8771362
		l0.9675293,0.0057373V281.775116z M78.4400024,281.3171082v4.1313782l0.8549805,0.0031433v-4.8307495L78.4400024,281.3171082z
		 M79.8574829,280.1628723v5.2902832l0.8775024,0.0015869v-6.0064087L79.8574829,280.1628723z M81.2974854,278.9903259v6.4649963
		l0.8550415,0.0004883v-7.1617126L81.2974854,278.9903259z M82.7150269,277.8360901v7.6211548l0.8549805,0.0047607v-8.3220825
		L82.7150269,277.8360901z M84.1325073,276.6818542v8.7848511l0.8999634,0.0100098v-9.5276489L84.1325073,276.6818542z
		 M85.5949707,275.4910583v9.9933777l0.9000244,0.0146179v-10.7408447L85.5949707,275.4910583z M87.0574951,274.3002014v11.2093201
		l0.8887329,0.0184631v-11.9514771L87.0574951,274.3002014z M88.508728,273.1184998v12.4223633l0.8550415,0.0211792v-13.1397705
		L88.508728,273.1184998z M89.9262695,271.9642639v13.6127014l0.9074707,0.0256042v-14.3772583L89.9262695,271.9642639z
		 M91.3962402,270.7673035v14.8520508l0.8549805,0.0266418v-15.5748596L91.3962402,270.7673035z M92.8137207,269.6131287v16.0510864
		l0.8775024,0.0294495v-16.7950745L92.8137207,269.6131287z M95.6712646,267.2863464v18.4773254l0.8549805,0.0314026v-19.204895
		L95.6712646,267.2863464z M98.5512695,264.9413147v20.9296875l0.8999634,0.0340576v-21.6965332L98.5512695,264.9413147z
		 M77.2231064,255.4391937h0.3168945v26.8687897h-0.3168945V255.4391937z M78.7090454,254.2841949h0.3168945v26.8687897h-0.3168945
		V254.2841949z M80.0740585,253.2695465h0.3168945v26.8687897h-0.3168945V253.2695465z M81.5599976,252.1145477h0.3168945
		v26.8687897h-0.3168945V252.1145477z M82.9831085,250.7891846h0.3168945v26.8687744h-0.3168945V250.7891846z
		 M84.4690475,249.6341858h0.3168945v26.8687744h-0.3168945V249.6341858z M85.8340607,248.6195526h0.3168945v26.8687897h-0.3168945
		V248.6195526z M87.3199997,247.4645386h0.3168945v26.8687744h-0.3168945V247.4645386z M88.7281036,245.9921112h0.3168945
		v26.8687897h-0.3168945V245.9921112z M90.2140427,244.8371124h0.3168945v26.8687897h-0.3168945V244.8371124z
		 M91.5790634,243.8224792h0.3168945v26.8687744h-0.3168945V243.8224792z M93.0650024,242.6674652h0.3168945v26.8687897h-0.3168945
		V242.6674652z M94.4881058,241.3421173h0.3168945v26.8687897h-0.3168945V241.3421173z M95.9740448,240.1871185h0.3168945
		v26.8687897h-0.3168945V240.1871185z M97.3390579,239.1724701h0.3168945v26.8687897h-0.3168945V239.1724701z
		 M98.8249969,238.0174713h0.3168945v26.8687897h-0.3168945V238.0174713z M100.295929,236.7124786h0.3168945v26.8687897h-0.3168945
		V236.7124786z M148.1937256,131.747406v26.4266968l0.8812866-0.7142944v-26.4299927L148.1937256,131.747406z
		 M145.2687378,134.1290588v26.4157715l0.9000244-0.7294922v-26.4191284L145.2687378,134.1290588z M142.4337158,136.4374695
		v26.4050903l0.8550415-0.6929932v-26.4083252L142.4337158,136.4374695z M126.0575027,149.7720032l-0.9675293,0.7878418v26.3399658
		l0.9675293-0.7841797V149.7720032z M126.6200027,149.3139954v26.3457031l0.8549805-0.6929932v-26.348938L126.6200027,149.3139954z
		 M128.0374756,148.1597595v26.3510742l0.8775024-0.7112427v-26.3543701L128.0374756,148.1597595z M129.477478,146.9872131
		v26.3564453l0.8550415-0.6929932v-26.3596802L129.477478,146.9872131z M130.8950195,145.8329773v26.3618164L131.75,171.5018005
		v-26.3649902L130.8950195,145.8329773z M132.3125,144.6787415v26.3671265l0.8999634-0.7294312v-26.3704834L132.3125,144.6787415z
		 M133.7749634,143.4879456v26.3726196l0.9000244-0.7294922v-26.3759766L133.7749634,143.4879456z M135.2374878,142.2970886
		v26.3780518l0.8887329-0.7203369v-26.3814087L135.2374878,142.2970886z M136.6887207,141.115387v26.3834839l0.8550415-0.6929932
		v-26.3867188L136.6887207,141.115387z M138.1062622,139.9611511v26.388855l0.9074707-0.7355347v-26.3922729
		L138.1062622,139.9611511z M139.5762329,138.7641907v26.3944092l0.8549805-0.6929932v-26.397583L139.5762329,138.7641907z
		 M140.9937134,137.6100159v26.3997192l0.8775024-0.7112427v-26.4030151L140.9937134,137.6100159z M143.8512573,135.2832336
		v26.4104614l0.8549805-0.6929932v-26.4136353L143.8512573,135.2832336z M146.7312622,132.9382019v26.4212036l0.8999634-0.7294312
		v-26.4245605L146.7312622,132.9382019z M125.4031067,123.4360809h0.3168945v26.8687897h-0.3168945V123.4360809z
		 M126.8890457,122.2810822h0.3168945v26.8687897h-0.3168945V122.2810822z M128.2540588,121.2664337h0.3168945v26.8687897
		h-0.3168945V121.2664337z M129.7399902,120.1114349h0.3168945v26.8687897h-0.3168945V120.1114349z M131.1631012,118.7860794
		h0.3168945v26.868782h-0.3168945V118.7860794z M132.6490479,117.6310806h0.3168945v26.868782h-0.3168945V117.6310806z
		 M134.0140533,116.6164398h0.3168945v26.8687897h-0.3168945V116.6164398z M135.5,115.4614334h0.3168945v26.868782H135.5
		V115.4614334z M136.9080963,113.9890137h0.3168945v26.8687897h-0.3168945V113.9890137z M138.394043,112.8340073h0.3168945
		v26.868782h-0.3168945V112.8340073z M139.7590637,111.8193665h0.3168945v26.8687897h-0.3168945V111.8193665z
		 M141.2449951,110.6643677h0.3168945v26.8687897h-0.3168945V110.6643677z M142.6681061,109.3390121h0.3168945v26.868782h-0.3168945
		V109.3390121z M144.1540375,108.1840134h0.3168945v26.868782h-0.3168945V108.1840134z M145.5190582,107.1693649h0.3168945
		v26.868782h-0.3168945V107.1693649z M147.0049896,106.0143661h0.3168945v26.868782h-0.3168945V106.0143661z
		 M148.4759216,104.7093658h0.3168945v26.8687897h-0.3168945V104.7093658z M148.1937256,79.3213577v26.4266968l0.8812866-0.7142944
		V78.6037674L148.1937256,79.3213577z M145.2687378,81.7030106v26.4157715l0.9000244-0.7294922V80.9701614L145.2687378,81.7030106z
		 M142.4337158,84.0114212v26.4050903l0.8550415-0.6929932V83.3151932L142.4337158,84.0114212z M126.0575027,97.3459549
		l-0.9675293,0.7878418v26.3399658l0.9675293-0.7841797V97.3459549z M126.6200027,96.8879471v26.3457031l0.8549805-0.6929932
		v-26.348938L126.6200027,96.8879471z M128.0374756,95.7337112v26.3510742l0.8775024-0.7112427V95.0191727L128.0374756,95.7337112z
		 M129.477478,94.5611649v26.3564453l0.8550415-0.6929932V93.8649368L129.477478,94.5611649z M130.8950195,93.406929v26.3618164
		L131.75,119.0757523V92.710762L130.8950195,93.406929z M132.3125,92.2526932v26.3671265l0.8999634-0.7294312V91.5199051
		L132.3125,92.2526932z M133.7749634,91.0618973v26.3726196l0.9000244-0.7294922V90.3290482L133.7749634,91.0618973z
		 M135.2374878,89.8710403v26.3780518l0.8887329-0.7203369V89.1473465L135.2374878,89.8710403z M136.6887207,88.6893387v26.3834839
		l0.8550415-0.6929932V87.9931107L136.6887207,88.6893387z M138.1062622,87.5351028v26.388855l0.9074707-0.7355347V86.7961502
		L138.1062622,87.5351028z M139.5762329,86.3381424v26.3944092l0.8549805-0.6929932v-26.397583L139.5762329,86.3381424z
		 M140.9937134,85.1839676v26.3997192l0.8775024-0.7112427V84.469429L140.9937134,85.1839676z M143.8512573,82.8571854v26.4104614
		l0.8549805-0.6929932V82.1610184L143.8512573,82.8571854z M146.7312622,80.5121536v26.4212036l0.8999634-0.7294312V79.7793655
		L146.7312622,80.5121536z M125.4031067,71.010025h0.3168945v26.8687897h-0.3168945V71.010025z M126.8890457,69.8550262h0.3168945
		v26.8687897h-0.3168945V69.8550262z M128.2540588,68.8403778h0.3168945v26.8687897h-0.3168945V68.8403778z M129.7399902,67.685379
		h0.3168945v26.8687897h-0.3168945V67.685379z M131.1631012,66.3600235h0.3168945v26.8687897h-0.3168945V66.3600235z
		 M132.6490479,65.2050247h0.3168945v26.8687897h-0.3168945V65.2050247z M134.0140533,64.1903839h0.3168945v26.8687897h-0.3168945
		V64.1903839z M135.5,63.0353775h0.3168945v26.8687897H135.5V63.0353775z M136.9080963,61.5629578h0.3168945v26.8687897h-0.3168945
		V61.5629578z M138.394043,60.4079514h0.3168945V87.276741h-0.3168945V60.4079514z M139.7590637,59.3933105h0.3168945v26.8687897
		h-0.3168945V59.3933105z M141.2449951,58.2383118h0.3168945v26.8687897h-0.3168945V58.2383118z M142.6681061,56.9129562h0.3168945
		v26.8687897h-0.3168945V56.9129562z M144.1540375,55.7579575h0.3168945v26.8687897h-0.3168945V55.7579575z M145.5190582,54.743309
		h0.3168945v26.8687897h-0.3168945V54.743309z M147.0049896,53.5883102h0.3168945v26.8687897h-0.3168945V53.5883102z
		 M148.4759216,52.2833099h0.3168945v26.8687897h-0.3168945V52.2833099z M148.1937256,26.5202999v26.4266987l0.8812866-0.7142944
		V25.8027096L148.1937256,26.5202999z M145.2687378,28.9019527v26.4157734l0.9000244-0.7294922V28.1691036L145.2687378,28.9019527z
		 M142.4337158,31.2103634v26.4050922l0.8550415-0.6929932V30.5141354L142.4337158,31.2103634z M126.0575027,44.544899
		l-0.9675293,0.7878418v26.3399658l0.9675293-0.7841797V44.544899z M126.6200027,44.0868912v26.3457031l0.8549805-0.6929932
		v-26.348938L126.6200027,44.0868912z M128.0374756,42.9326553v26.3510742l0.8775024-0.7112427V42.2181168L128.0374756,42.9326553z
		 M129.477478,41.7601089v26.3564453l0.8550415-0.6929932V41.0638809L129.477478,41.7601089z M130.8950195,40.6058731v26.3618164
		L131.75,66.2746964V39.9097061L130.8950195,40.6058731z M132.3125,39.4516373v26.3671265l0.8999634-0.7294312V38.7188492
		L132.3125,39.4516373z M133.7749634,38.2608414V64.633461l0.9000244-0.7294922V37.5279922L133.7749634,38.2608414z
		 M135.2374878,37.0699844v26.3780518l0.8887329-0.7203369V36.3462906L135.2374878,37.0699844z M136.6887207,35.8882828v26.3834839
		l0.8550415-0.6929932V35.1920547L136.6887207,35.8882828z M138.1062622,34.7340469v26.388855l0.9074707-0.7355347V33.9950943
		L138.1062622,34.7340469z M139.5762329,33.5370865v26.3944092l0.8549805-0.6929932v-26.397583L139.5762329,33.5370865z
		 M140.9937134,32.3829117v26.3997192l0.8775024-0.7112427v-26.403017L140.9937134,32.3829117z M143.8512573,30.0561275v26.4104633
		l0.8549805-0.6929932V29.3599606L143.8512573,30.0561275z M146.7312622,27.7110958v26.4212055l0.8999634-0.7294312V26.9783077
		L146.7312622,27.7110958z M125.7200012,34.4756775v10.6020813h-0.3168945V34.6398354L125.7200012,34.4756775z
		 M127.2059402,33.9798279V43.92276h-0.3168945v-9.7929268L127.2059402,33.9798279z M128.5709534,33.4548302v9.4532814h-0.3168945
		v-9.3632813L128.5709534,33.4548302z M130.0568848,32.8248291v8.9282837h-0.3168945v-8.6582832L130.0568848,32.8248291z
		 M131.4799957,32.1048355v8.3229218h-0.3168945v-8.1579285L131.4799957,32.1048355z M132.9659424,31.3848343v7.8879242h-0.3168945
		v-7.7679234L132.9659424,31.3848343z M134.3309479,30.5898285v7.6682892h-0.3168945v-7.5182819L134.3309479,30.5898285z
		 M135.8168945,29.6898308v7.4132805H135.5v-7.277422L135.8168945,29.6898308z M137.2249908,28.7448292v6.8858624h-0.3168945
		v-6.7358589L137.2249908,28.7448292z M138.7109375,27.6648331v6.8108521h-0.3168945v-6.6158543L138.7109375,27.6648331z
		 M140.0759583,26.779829v6.6812153h-0.3168945v-6.4676819L140.0759583,26.779829z M141.5618896,25.5498314v6.7562141h-0.3168945
		v-6.5033321L141.5618896,25.5498314z M142.9850006,24.3798275v6.6008606h-0.3168945v-6.4508553L142.9850006,24.3798275z
		 M144.470932,22.9098282v6.9158611h-0.3168945v-6.6458607L144.470932,22.9098282z M145.8359528,21.5898304v7.2212105h-0.3168945
		v-6.9812126L145.8359528,21.5898304z M147.3218842,22.0054379v5.6506042h-0.3168945v-5.8862095L147.3218842,22.0054379z
		 M148.7928162,22.9098301v3.4412117h-0.3168945v-3.883709L148.7928162,22.9098301z M148.1937256,184.5339661v26.4266968
		l0.8812866-0.7142944v-26.4299927L148.1937256,184.5339661z M145.2687378,186.9156189v26.4157715l0.9000244-0.7294922v-26.4191284
		L145.2687378,186.9156189z M142.4337158,189.2240295v26.4050903l0.8550415-0.6929932v-26.4083252L142.4337158,189.2240295z
		 M126.0575027,202.5585632l-0.9675293,0.7878418v26.3399658l0.9675293-0.7841797V202.5585632z M126.6200027,202.1005554v26.3457031
		l0.8549805-0.6929932v-26.348938L126.6200027,202.1005554z M128.0374756,200.9463196v26.3510742l0.8775024-0.7112427V200.231781
		L128.0374756,200.9463196z M129.477478,199.7737732v26.3564453l0.8550415-0.6929932v-26.3596802L129.477478,199.7737732z
		 M130.8950195,198.6195374v26.3618164L131.75,224.2883606v-26.3649902L130.8950195,198.6195374z M132.3125,197.4653015v26.3671265
		l0.8999634-0.7294312v-26.3704834L132.3125,197.4653015z M133.7749634,196.2745056v26.3726196l0.9000244-0.7294922v-26.3759766
		L133.7749634,196.2745056z M135.2374878,195.0836487v26.3780518l0.8887329-0.7203369v-26.3814087L135.2374878,195.0836487z
		 M136.6887207,193.901947v26.3834839l0.8550415-0.6929932V193.205719L136.6887207,193.901947z M138.1062622,192.7477112v26.388855
		l0.9074707-0.7355347v-26.3922729L138.1062622,192.7477112z M139.5762329,191.5507507v26.3944092l0.8549805-0.6929932v-26.397583
		L139.5762329,191.5507507z M140.9937134,190.3965759v26.3997192l0.8775024-0.7112427v-26.4030151L140.9937134,190.3965759z
		 M143.8512573,188.0697937v26.4104614l0.8549805-0.6929932v-26.4136353L143.8512573,188.0697937z M146.7312622,185.724762
		v26.4212036l0.8999634-0.7294312v-26.4245605L146.7312622,185.724762z M125.4031067,176.2226257h0.3168945v26.8687897h-0.3168945
		V176.2226257z M126.8890457,175.067627h0.3168945v26.8687897h-0.3168945V175.067627z M128.2540588,174.0529785h0.3168945
		v26.8687897h-0.3168945V174.0529785z M129.7399902,172.8979797h0.3168945v26.8687897h-0.3168945V172.8979797z
		 M131.1631012,171.5726318h0.3168945v26.8687897h-0.3168945V171.5726318z M132.6490479,170.4176331h0.3168945v26.8687897
		h-0.3168945V170.4176331z M134.0140533,169.4029846h0.3168945v26.8687897h-0.3168945V169.4029846z M135.5,168.2479858h0.3168945
		v26.8687897H135.5V168.2479858z M136.9080963,166.7755585h0.3168945v26.8687897h-0.3168945V166.7755585z M138.394043,165.6205597
		h0.3168945v26.8687897h-0.3168945V165.6205597z M139.7590637,164.6059113h0.3168945v26.8687897h-0.3168945V164.6059113z
		 M141.2449951,163.4509125h0.3168945v26.8687897h-0.3168945V163.4509125z M142.6681061,162.1255493h0.3168945v26.8687897
		h-0.3168945V162.1255493z M144.1540375,160.9705505h0.3168945v26.8687897h-0.3168945V160.9705505z M145.5190582,159.9559174
		h0.3168945v26.8687897h-0.3168945V159.9559174z M147.0049896,158.8009033h0.3168945v26.8687897h-0.3168945V158.8009033z
		 M148.4759216,157.4959106h0.3168945v26.8687897h-0.3168945V157.4959106z M148.1937256,237.3205109v26.426712l0.8812866-0.7142944
		v-26.4300079L148.1937256,237.3205109z M145.2687378,239.7021637v26.4157867l0.9000244-0.7294922v-26.4191437
		L145.2687378,239.7021637z M142.4337158,242.0105743v26.4051056l0.8550415-0.6929932v-26.4083405L142.4337158,242.0105743z
		 M126.0575027,255.345108l-0.9675293,0.7878571v26.3399658l0.9675293-0.7841797V255.345108z M126.6200027,254.8871002v26.3457184
		l0.8549805-0.6929932v-26.3489532L126.6200027,254.8871002z M128.0374756,253.7328644v26.3510895l0.8775024-0.7112427v-26.3543854
		L128.0374756,253.7328644z M129.477478,252.560318v26.3564606l0.8550415-0.6929932V251.86409L129.477478,252.560318z
		 M130.8950195,251.4060822v26.3618317L131.75,277.0749207v-26.3650055L130.8950195,251.4060822z M132.3125,250.2518463v26.3671417
		l0.8999634-0.7294312v-26.3704987L132.3125,250.2518463z M133.7749634,249.0610504v26.3726349l0.9000244-0.7294922v-26.3759918
		L133.7749634,249.0610504z M135.2374878,247.8701935v26.378067l0.8887329-0.7203369v-26.381424L135.2374878,247.8701935z
		 M136.6887207,246.6884918v26.3834991l0.8550415-0.6929932v-26.386734L136.6887207,246.6884918z M138.1062622,245.534256
		v26.3888702l0.9074707-0.7355347v-26.3922882L138.1062622,245.534256z M139.5762329,244.3372955V270.73172l0.8549805-0.6929932
		v-26.3975983L139.5762329,244.3372955z M140.9937134,243.1831207v26.3997345l0.8775024-0.7112427v-26.4030304
		L140.9937134,243.1831207z M143.8512573,240.8563385v26.4104767l0.8549805-0.6929932v-26.4136505L143.8512573,240.8563385z
		 M146.7312622,238.5113068v26.4212189l0.8999634-0.7294312v-26.4245758L146.7312622,238.5113068z M125.4031067,229.0091858
		h0.3168945v26.8687897h-0.3168945V229.0091858z M126.8890457,227.854187h0.3168945v26.8687897h-0.3168945V227.854187z
		 M128.2540588,226.8395386h0.3168945v26.8687897h-0.3168945V226.8395386z M129.7399902,225.6845398h0.3168945v26.8687897
		h-0.3168945V225.6845398z M131.1631012,224.3591766h0.3168945v26.8687897h-0.3168945V224.3591766z M132.6490479,223.2041779
		h0.3168945v26.8687897h-0.3168945V223.2041779z M134.0140533,222.1895447h0.3168945v26.8687897h-0.3168945V222.1895447z
		 M135.5,221.0345306h0.3168945v26.8687897H135.5V221.0345306z M136.9080963,219.5621033h0.3168945v26.8687897h-0.3168945
		V219.5621033z M138.394043,218.4071045h0.3168945v26.8687897h-0.3168945V218.4071045z M139.7590637,217.3924713h0.3168945
		v26.8687897h-0.3168945V217.3924713z M141.2449951,216.2374573h0.3168945v26.8687897h-0.3168945V216.2374573z
		 M142.6681061,214.9121094h0.3168945v26.8687897h-0.3168945V214.9121094z M144.1540375,213.7571106h0.3168945v26.8687897
		h-0.3168945V213.7571106z M145.5190582,212.7424622h0.3168945v26.8687897h-0.3168945V212.7424622z M147.0049896,211.5874634
		h0.3168945v26.8687897h-0.3168945V211.5874634z M148.4759216,210.2824707h0.3168945v26.8687897h-0.3168945V210.2824707z
		 M125.4031067,281.0892029h0.3168945v5.3481445h-0.3168945V281.0892029z M126.8890457,279.9342041h0.3168945v6.4468689
		l-0.3168945-0.0112305V279.9342041z M128.2540588,278.9195557h0.3168945v7.4052734h-0.3168945V278.9195557z
		 M129.7399902,277.7645569h0.3168945v8.5040283l-0.3168945,0.0112305V277.7645569z M131.1631012,276.4391785h0.3168945v9.7956543
		h-0.3168945V276.4391785z M132.6490479,275.2841797h0.3168945v10.8944092h-0.3168945V275.2841797z M134.0140533,274.2695618
		h0.3168945v11.8865051l-0.3168945,0.011261V274.2695618z M135.5,273.1145325h0.3168945v13.0350647L135.5,286.1750183V273.1145325z
		 M136.9080963,271.6421204h0.3168945v14.5159607h-0.3168945V271.6421204z M138.394043,270.4871216h0.3168945v15.5438843h-0.3168945
		V270.4871216z M139.7590637,269.4724731h0.3168945v16.4992371l-0.3168945,0.0169373V269.4724731z M141.2449951,268.3174744
		h0.3168945v17.6203613l-0.3168945,0.0169373V268.3174744z M142.6681061,266.9921265h0.3168945v18.9457092h-0.3168945V266.9921265z
		 M144.1540375,265.8371277h0.3168945v20.0752869l-0.3168945-0.0084534V265.8371277z M145.5190582,264.8224792h0.3168945v21.0984192
		h-0.3168945V264.8224792z M147.0049896,263.6674805h0.3168945v22.2449341l-0.3168945-0.0084534V263.6674805z
		 M148.4759216,262.3624878h0.3168945v23.4223328h-0.3168945V262.3624878z M174.3762817,149.0718842l-0.9675293,0.7878418
		v26.3399658l0.9675293-0.7841797V149.0718842z M174.9387817,148.6138763v26.3457031l0.8549805-0.6929932v-26.348938
		L174.9387817,148.6138763z M176.3562622,147.4596405v26.3510742l0.8775024-0.7112427v-26.3543701L176.3562622,147.4596405z
		 M177.7962646,146.2870941v26.3564453l0.8550415-0.6929932v-26.3596802L177.7962646,146.2870941z M179.2138062,145.1328583
		v26.3618164l0.8549805-0.6929932v-26.3649902L179.2138062,145.1328583z M180.6312866,143.9786224v26.3671265l0.8999634-0.7294312
		v-26.3704834L180.6312866,143.9786224z M181.8882904,143.2415466v26.3726349l0.3975372-0.6906128v-7.4399872l0.5024872-5.4900208
		c-0.098999-2.1296082-0.1980133-4.2592163-0.2970276-6.3888245c-0.102356-2.2013855,0.1698151-4.6182556,0.0674591-6.8196411
		C182.4600983,142.8654175,181.9869385,143.1612244,181.8882904,143.2415466z M173.7218781,122.7359543h0.3168945v26.868782
		h-0.3168945V122.7359543z M175.2078247,121.5809555h0.3168945v26.868782h-0.3168945V121.5809555z M176.5728302,120.5663071
		h0.3168945v26.868782h-0.3168945V120.5663071z M178.0587769,119.4113083h0.3168945v26.868782h-0.3168945V119.4113083z
		 M179.4818878,118.0859528h0.3168945v26.8687897h-0.3168945V118.0859528z M180.9678192,116.930954h0.3168945v26.8687897h-0.3168945
		V116.930954z M182.33284,115.9163132h0.3168945v20.603508l-0.2432556,6.3729095l-0.2432556,0.1602783L182.33284,115.9163132z
		 M183.8187714,114.7613068h0.3168945v7.9746475l-0.3168945,2.0838776V114.7613068z M190.7525024,83.3112946V86.98983
		l0.8550415-1.2900009v-3.0847626L190.7525024,83.3112946z M174.3762817,96.6458282l-0.9675293,0.7878418v26.3399658
		l0.9675293-0.7841797V96.6458282z M174.9387817,96.1878204v26.3457031l0.8549805-0.6929932v-26.348938L174.9387817,96.1878204z
		 M176.3562622,95.0335846v26.3510742l0.8775024-0.7112427V94.319046L176.3562622,95.0335846z M177.7962646,93.8610382v26.3564453
		l0.8550415-0.6929932V93.1648102L177.7962646,93.8610382z M179.2138062,92.7068024v26.3618164l0.8549805-0.6929932V92.0106354
		L179.2138062,92.7068024z M180.6312866,91.5525665v26.3671265l0.8999634-0.7294312V90.8197784L180.6312866,91.5525665z
		 M182.09375,90.3617706v26.3726196l0.9000244-0.7294922V89.6289215L182.09375,90.3617706z M183.5562744,89.1709137v26.3780518
		l0.8887329-0.7203369V88.4472198L183.5562744,89.1709137z M185.0075073,87.989212v22.5206223l0.8550415-3.8186951V87.292984
		L185.0075073,87.989212z M186.4250488,86.8349762v15.8448563l0.9074707-3.5099945V86.0960236L186.4250488,86.8349762z
		 M187.8950195,85.6380157v10.2318115L188.75,92.9598312v-8.0179825L187.8950195,85.6380157z M189.3125,84.4838409v6.3359299
		l0.8775024-2.1799393v-4.8705292L189.3125,84.4838409z M192.1700439,82.1570587v1.2627716l0.8549805-1.9589386
		L192.1700439,82.1570587z M173.7218781,70.3098984h0.3168945V97.178688h-0.3168945V70.3098984z M175.2078247,69.1548996h0.3168945
		v26.8687897h-0.3168945V69.1548996z M176.5728302,68.1402512h0.3168945v26.8687897h-0.3168945V68.1402512z M178.0587769,66.9852524
		h0.3168945v26.8687897h-0.3168945V66.9852524z M179.4818878,65.6598969h0.3168945v26.8687897h-0.3168945V65.6598969z
		 M180.9678192,64.5048981h0.3168945v26.8687897h-0.3168945V64.5048981z M182.33284,63.4902534h0.3168945v26.8687935H182.33284
		V63.4902534z M183.8187714,62.335247h0.3168945v26.8687935h-0.3168945V62.335247z M185.2268829,60.8628273h0.3168945v26.8687935
		h-0.3168945V60.8628273z M186.7128143,59.7078209h0.3168945v26.8687935h-0.3168945V59.7078209z M188.0778351,58.6931801h0.3168945
		v26.8687935h-0.3168945V58.6931801z M189.5637817,57.5381813h0.3168945v26.8687935h-0.3168945V57.5381813z M190.9868774,56.2128258
		h0.3168945v26.8687935h-0.3168945V56.2128258z M192.4728241,55.057827h0.3168945v26.8687935h-0.3168945V55.057827z
		 M193.8378296,54.0431786h0.3168945v21.3066521l-0.3168945,2.0999985V54.0431786z M196.5125122,41.2323341v2.1323357
		l0.4124908-2.1038551L196.5125122,41.2323341z M193.5875244,40.3323288v14.2852669l0.9000244-0.7294922V40.6248322
		L193.5875244,40.3323288z M190.7525024,39.499836v17.4154892l0.8550415-0.6929932V39.7276306L190.7525024,39.499836z
		 M174.3762817,43.8447685l-0.9675293,0.7878418V70.97258l0.9675293-0.7841797V43.8447685z M174.9387817,43.3867607v26.3457069
		l0.8549805-0.6929932V42.6905327L174.9387817,43.3867607z M176.3562622,42.2325249v26.351078l0.8775024-0.7112427V41.5179863
		L176.3562622,42.2325249z M177.7962646,41.0599785v26.3564491l0.8550415-0.6929932v-26.359684L177.7962646,41.0599785z
		 M179.2138062,39.9057426v26.3618202l0.8549805-0.6929932v-26.364994L179.2138062,39.9057426z M180.6312866,38.7515068v26.3671303
		l0.8999634-0.7294312V38.0187187L180.6312866,38.7515068z M182.09375,37.5607109v26.3726196l0.9000244-0.7294922V37.3698349
		l-0.37854-0.2337494L182.09375,37.5607109z M183.5562744,37.3514137v25.396492l0.8887329-0.7203369V37.6359367
		L183.5562744,37.3514137z M185.0075073,37.8348312v23.736805l0.8550415-0.6929932V38.0187187L185.0075073,37.8348312z
		 M186.4250488,38.284832v22.1379395l0.9074707-0.7355347V38.5726357L186.4250488,38.284832z M187.8950195,38.6898308v20.5415344
		L188.75,58.538372V38.8923302L187.8950195,38.6898308z M189.3125,39.0273285v19.055172l0.8775024-0.7112427v-18.073925
		L189.3125,39.0273285z M192.1700439,39.92733v15.8391304l0.8549805-0.6929932V40.1748314L192.1700439,39.92733z
		 M195.0500488,40.8948288v12.5373421l0.8999634-7.4523354v-4.8150024L195.0500488,40.8948288z M174.0387726,34.7598267v9.6178017
		h-0.3168945v-9.737793L174.0387726,34.7598267z M175.5247192,35.1498299v8.0727997h-0.3168945v-8.2920647L175.5247192,35.1498299z
		 M176.8897247,35.5895882v6.6183929h-0.3168945v-6.6981544L176.8897247,35.5895882z M178.3756714,36.0639496v4.9890327h-0.3168945
		v-5.1245651L178.3756714,36.0639496z M179.7987823,36.4027672v3.3248596h-0.3168945v-3.4180374L179.7987823,36.4027672z
		 M181.2847137,36.7415962v1.8310318h-0.3168945v-1.8733826L181.2847137,36.7415962z M182.6497345,37.204834v0.3531532H182.33284
		v-0.4131584L182.6497345,37.204834z M174.3762817,201.8584442l-0.9675293,0.7878418v26.3399658l0.9675293-0.7841797V201.8584442z
		 M174.9387817,201.4004364v26.3457031l0.8549805-0.6929932v-26.348938L174.9387817,201.4004364z M176.3562622,200.2462006
		v26.3510742l0.8775024-0.7112427V199.531662L176.3562622,200.2462006z M177.7962646,199.0736542v26.3564453l0.8550415-0.6929932
		v-26.3596802L177.7962646,199.0736542z M179.2138062,197.9194183v26.3618164l0.8549805-0.6929932v-26.3649902
		L179.2138062,197.9194183z M180.6312866,196.7651825v26.3671265l0.8999634-0.7294312v-26.3704834L180.6312866,196.7651825z
		 M182.09375,195.5743866v26.3726196l0.9000244-0.7294922v-26.3759766L182.09375,195.5743866z M183.5562744,197.5398254v19.5599976
		l0.7685852-7.6508484L184.25,202.8498383L183.5562744,197.5398254z M173.7218781,175.5225067h0.3168945v26.8687897h-0.3168945
		V175.5225067z M175.2078247,174.3675079h0.3168945v26.8687897h-0.3168945V174.3675079z M176.5728302,173.3528595h0.3168945
		v26.8687897h-0.3168945V173.3528595z M178.0587769,172.1978607h0.3168945v26.8687897h-0.3168945V172.1978607z
		 M179.4818878,170.8725128h0.3168945v26.8687897h-0.3168945V170.8725128z M180.9678192,169.717514h0.3168945v26.8687897h-0.3168945
		V169.717514z M182.6497345,193.5198364v2.0518188H182.33284v-3.701828L182.6497345,193.5198364z M174.3762817,254.644989
		l-0.9675293,0.7878418v26.3399658l0.9675293-0.7841797V254.644989z M174.9387817,254.1869812v26.3457031l0.8549805-0.6929932
		v-26.348938L174.9387817,254.1869812z M176.3562622,253.0327454v26.3510742l0.8775024-0.7112427v-26.3543701
		L176.3562622,253.0327454z M177.7962646,251.860199v26.3564453l0.8550415-0.6929932v-26.3596802L177.7962646,251.860199z
		 M179.2138062,250.7059631v26.3618164l0.8549805-0.6929932v-26.3649902L179.2138062,250.7059631z M180.6312866,249.5517273
		v26.3671265l0.8999634-0.7294312v-26.3704834L180.6312866,249.5517273z M182.09375,248.3609314v26.3726196l0.9000244-0.7294922
		v-26.3759766L182.09375,248.3609314z M183.5562744,247.1700745v26.3780518l0.8887329-0.7203369v-26.3814087
		L183.5562744,247.1700745z M185.0075073,245.9883728v26.3834839l0.8550415-0.6929932v-10.809021l-0.5952911-15.0929871
		L185.0075073,245.9883728z M173.7218781,228.3090668h0.3168945v26.8687897h-0.3168945V228.3090668z M175.2078247,227.154068
		h0.3168945v26.8687897h-0.3168945V227.154068z M176.5728302,226.1394196h0.3168945v26.8687897h-0.3168945V226.1394196z
		 M178.0587769,224.9844208h0.3168945v26.8687897h-0.3168945V224.9844208z M179.4818878,223.6590576h0.3168945v26.8687897
		h-0.3168945V223.6590576z M180.9678192,222.5040588h0.3168945v26.8687897h-0.3168945V222.5040588z M182.33284,221.4894257
		h0.3168945v26.8687897H182.33284V221.4894257z M184.1356659,224.4498291v22.7533722h-0.3168945V223.392334L184.1356659,224.4498291
		z M173.7218781,280.3890686h0.3168945v4.2557678l-0.3168945,0.0149841V280.3890686z M175.2078247,279.2340698h0.3168945v5.2757568
		l-0.3168945,0.0150146V279.2340698z M176.5728302,278.2194214h0.3168945v6.1569519l-0.3168945,0.0584717V278.2194214z
		 M178.0587769,277.0644226h0.3168945v7.1903992h-0.3168945V277.0644226z M179.4818878,275.7390442h0.3168945v8.3357849
		l-0.3168945,0.0150146V275.7390442z M180.9678192,274.5840454h0.3168945v9.2957764l-0.3168945,0.0450134V274.5840454z
		 M182.33284,273.5694275h0.3168945v10.0704041l-0.3168945,0.0599976V273.5694275z M183.8187714,272.4143982h0.3168945v10.8954163
		l-0.3168945,0.0600281V272.4143982z M185.2268829,270.9419861h0.3168945v12.0228577l-0.3168945,0.0599976V270.9419861z
		 M187.0297089,274.5840454v7.4957886l-0.3168945,0.2850037v-9.9504395L187.0297089,274.5840454z M51.9199638,158.102417v26.4266968
		l0.8812866-0.7142944v-26.4299927L51.9199638,158.102417z M48.994976,160.4840698v26.4157715l0.9000244-0.7294922v-26.4191284
		L48.994976,160.4840698z M46.1599541,162.7924805v26.4050903l0.8550415-0.6929932v-26.4083252L46.1599541,162.7924805z
		 M45.5974541,187.5401764v-24.2896881l-0.1936493,0.1576843c-0.0316277,5.0683289-0.0181427,10.206131,0.0442162,15.4115448
		C45.4831085,181.748764,45.5331497,184.6556854,45.5974541,187.5401764z M47.5774956,161.6382446v26.4104614l0.8549805-0.6929932
		v-26.4136353L47.5774956,161.6382446z M50.4575005,159.2932129v26.4212036l0.8999634-0.7294312v-26.4245605L50.4575005,159.2932129
		z M46.3943367,135.6940155h0.3168945v26.8687897h-0.3168945V135.6940155z M47.8802757,134.5390167h0.3168945v26.8687897h-0.3168945
		V134.5390167z M49.2452888,133.5243683h0.3168945v26.8687897h-0.3168945V133.5243683z M50.7312279,132.3693695h0.3168945
		v26.8687897h-0.3168945V132.3693695z M52.2021599,131.0643616h0.3168945v26.8687897h-0.3168945V131.0643616z
		 M51.9199638,105.6763535v26.4267044l0.8812866-0.7142944v-26.4300003L51.9199638,105.6763535z M48.994976,108.0580063v26.4157791
		l0.9000244-0.7294922v-26.419136L48.994976,108.0580063z M46.1599541,110.3664169v26.405098l0.8550415-0.6929932v-26.4083328
		L46.1599541,110.3664169z M43.3024712,112.6931381v7.8935852l0.8549805,6.9281235v-15.5178757L43.3024712,112.6931381z
		 M44.7199516,111.5389633v20.375206l0.5218124,5.6015625l0.35569-0.2882843v-26.4030228L44.7199516,111.5389633z
		 M47.5774956,109.2121811v26.4104691l0.8549805-0.6929932v-26.4136429L47.5774956,109.2121811z M50.4575005,106.8671494v26.4212112
		l0.8999634-0.7294312v-26.4245682L50.4575005,106.8671494z M39.2262306,89.3903732h0.3168945v5.142334l-0.3168945-0.9428711
		V89.3903732z M40.6343346,87.9179535h0.3168945v14.1018829l-0.3168945-1.3800049V87.9179535z M42.1202736,86.7629471h0.3168945
		v26.5968857l-0.3168945-1.897728V86.7629471z M43.4852943,85.7483063h0.3168945v26.8687897h-0.3168945V85.7483063z
		 M44.9712334,84.5933075h0.3168945v26.8687897h-0.3168945V84.5933075z M46.3943367,83.267952h0.3168945v26.8687897h-0.3168945
		V83.267952z M47.8802757,82.1129532h0.3168945v26.8687897h-0.3168945V82.1129532z M49.2452888,81.0983047h0.3168945v26.8687897
		h-0.3168945V81.0983047z M50.7312279,79.943306h0.3168945v26.8687897h-0.3168945V79.943306z M52.2021599,78.6383057h0.3168945
		v26.8687897h-0.3168945V78.6383057z M51.9199638,52.8753014v26.426693l0.8812866-0.7142944V52.157711L51.9199638,52.8753014z
		 M48.994976,55.2569542v26.4157677l0.9000244-0.7294922V54.5241051L48.994976,55.2569542z M46.1599541,57.5653648v26.4050865
		l0.8550415-0.6929932V56.8691368L46.1599541,57.5653648z M33.2037163,68.1151047v9.6347275l0.8550415,1.8299942V67.4188766
		L33.2037163,68.1151047z M34.6212578,66.9608688v13.7289658l0.8549805,1.7399979V66.2647018L34.6212578,66.9608688z
		 M36.0387383,65.806633v18.7866821l0.8999634,1.9765244V65.0738449L36.0387383,65.806633z M37.5012016,64.6158371v23.302124
		l0.9000244,2.3410034V63.8829918L37.5012016,64.6158371z M38.963726,63.424984v26.3780479l0.8887329-0.7203369V62.7012901
		L38.963726,63.424984z M40.414959,62.2432823v26.3834801l0.8550415-0.6929932V61.5470543L40.414959,62.2432823z
		 M41.8325005,61.0890465v26.3888512l0.9074707-0.7355347V60.3500938L41.8325005,61.0890465z M43.3024712,59.892086v26.3944054
		l0.8549805-0.6929932V59.195919L43.3024712,59.892086z M44.7199516,58.7379112v26.3997154l0.8775024-0.7112427V58.0233727
		L44.7199516,58.7379112z M47.5774956,56.411129v26.4104576l0.8549805-0.6929932V55.714962L47.5774956,56.411129z
		 M50.4575005,54.0660973v26.4211998l0.8999634-0.7294312V53.3333092L50.4575005,54.0660973z M31.9802895,42.3943214h0.3168945
		v12.5405159l-0.3168945-1.5864754V42.3943214z M33.4662285,41.2393227h0.3168945v26.8687859h-0.3168945V41.2393227z
		 M34.8893394,39.9139671h0.3168945V66.782753h-0.3168945V39.9139671z M36.692173,38.9015961v26.7261581h-0.3168945V39.1848335
		L36.692173,38.9015961z M38.0571861,38.2173271v26.3957863h-0.3168945V38.4760818L38.0571861,38.2173271z M39.5431252,37.8573265
		v25.6007843h-0.3168945V37.9810829L39.5431252,37.8573265z M40.9512291,37.4523277v24.5333633h-0.3168945V37.5760765
		L40.9512291,37.4523277z M42.4371681,37.0585823v23.7721024h-0.3168945V37.1485863L42.4371681,37.0585823z M43.8021889,36.7210846
		v23.0949593h-0.3168945V36.7660866L43.8021889,36.7210846z M45.2881279,36.4173279v22.2437172h-0.3168945V36.4623299
		L45.2881279,36.4173279z M46.7112312,35.9673386v21.368351h-0.3168945V36.0460854L46.7112312,35.9673386z M48.1971703,35.5398331
		v20.6408577h-0.3168945V35.70858L48.1971703,35.5398331z M49.5621834,35.2585754v19.9074669h-0.3168945V35.3598328
		L49.5621834,35.2585754z M51.0481224,34.8198357v19.1912079h-0.3168945V34.954834L51.0481224,34.8198357z M52.5190544,34.3698349
		v18.3362083h-0.3168945v-18.246212L52.5190544,34.3698349z M30.3462334,40.9848328v1.2374992l0.2690411,1.956768
		l0.5859394-0.474926v-3.0118446L30.3462334,40.9848328z M31.7637138,40.5235863v2.7247162l0.8775024-0.7112427v-2.4297295
		L31.7637138,40.5235863z M33.2037163,39.9139633v2.1671638l0.8550415-0.6929932v-1.7870483L33.2037163,39.9139633z
		 M34.6212578,39.3535843v1.5786781l0.8549805-0.6929932v-1.0544357L34.6212578,39.3535843z M36.0387383,38.971077v0.8122597
		l0.8999634-0.7294312v-0.3640709L36.0387383,38.971077z M51.9199638,210.8889771v26.4266968l0.8812866-0.7142944v-26.4299927
		L51.9199638,210.8889771z M48.994976,213.2706299v26.4157715l0.9000244-0.7294922v-26.4191284L48.994976,213.2706299z
		 M46.1599541,215.5790405v26.4050903l0.8550415-0.6929932v-26.4083252L46.1599541,215.5790405z M43.3024712,217.9057617v26.3944092
		l0.8549805-0.6929932v-26.397583L43.3024712,217.9057617z M44.7199516,216.7515869v26.3997192l0.8775024-0.7112427v-26.4030151
		L44.7199516,216.7515869z M47.5774956,214.4248047v26.4104614l0.8549805-0.6929932v-26.4136353L47.5774956,214.4248047z
		 M50.4575005,212.0797729v26.4212036l0.8999634-0.7294312v-26.4245605L50.4575005,212.0797729z M42.4371681,211.0840607v7.3093109
		l-0.1584473-3.8795471L42.4371681,211.0840607z M43.8021889,203.8683014v13.9614105h-0.3168945v-12.7776947L43.8021889,203.8683014
		z M45.2881279,199.2681427v17.4065704h-0.3168945v-16.4798737L45.2881279,199.2681427z M46.3943367,188.4805603h0.3168945
		V215.34935h-0.3168945V188.4805603z M47.8802757,187.3255615h0.3168945v26.8687897h-0.3168945V187.3255615z
		 M49.2452888,186.3109283h0.3168945v26.8687897h-0.3168945V186.3109283z M50.7312279,185.1559143h0.3168945v26.8687897h-0.3168945
		V185.1559143z M52.2021599,183.8509216h0.3168945v26.8687897h-0.3168945V183.8509216z M51.9199638,263.6755066v20.6080933
		l0.8812866,0.094574v-21.4202576L51.9199638,263.6755066z M48.994976,266.0571594v17.8504944l0.9000244,0.1268921v-18.7102356
		L48.994976,266.0571594z M46.1599541,268.3655701v15.0647583l0.8550415,0.111084V267.669342L46.1599541,268.3655701z
		 M40.414959,277.0289917v3.8190308c0.0316124,0.1512451,0.0981331,0.3764343,0.2486916,0.6137085
		c0.2037849,0.321167,0.4594688,0.5036316,0.6063499,0.592804c0-3.2357483,0-6.4715271,0-9.7072449l-0.595253,0.4846802
		L40.414959,277.0289917z M41.8325005,271.8892517v10.4914551l0.9074707,0.2689819v-11.4993896L41.8325005,271.8892517z
		 M43.3024712,270.6923218v12.1123657l0.8549805,0.2080383v-13.016571L43.3024712,270.6923218z M44.7199516,269.5381165v13.5977478
		l0.8775024,0.18396v-14.4962463L44.7199516,269.5381165z M47.5774956,267.2113342v16.4733887l0.8549805,0.1380005v-17.3075562
		L47.5774956,267.2113342z M50.4575005,264.8663025v19.2422485l0.8999634,0.1105347v-20.0855713L50.4575005,264.8663025z
		 M40.9512291,268.6063538v4.1795349l-0.2777939,0.0648499L40.9512291,268.6063538z M42.4371681,245.0014648v26.629425h-0.3168945
		v-24.4927216l0.1361809-1.9902191L42.4371681,245.0014648z M43.4852943,243.7474823h0.3168945v26.8687897h-0.3168945V243.7474823z
		 M44.9712334,242.5924683h0.3168945v26.8687744h-0.3168945V242.5924683z M46.3943367,241.2671204h0.3168945v26.8687744h-0.3168945
		V241.2671204z M47.8802757,240.1121216h0.3168945v26.8687744h-0.3168945V240.1121216z M49.2452888,239.0974731h0.3168945
		v26.8687744h-0.3168945V239.0974731z M50.7312279,237.9424744h0.3168945v26.8687744h-0.3168945V237.9424744z
		 M52.2021599,236.6374817h0.3168945v26.8687744h-0.3168945V236.6374817z"></path>
</g>
<g onclick="select(this)" class="" id="detalhe-lateral" fill="#ce6b03">
	<path d="M42.4525146,112.7778625c0.0891304-1.9299164-0.3513565-3.8075333-0.5991211-5.7007065
		c-0.3732796-2.8522339-0.8833809-5.6866074-1.2544365-8.5390854c-0.0882454-0.6783676-0.8202057-1.239563-0.2923431-2.1296234
		c0.9014931,1.8765564,1.3568306,3.8127823,1.9383469,5.6982117c1.892025,6.1343842,3.1134682,12.4154968,4.1846809,18.7393494
		c0.7700386,4.5458832,1.3809853,9.100647,1.8283081,13.6878357c0.4091072,4.1953125,0.7145462,8.3927002,0.9685097,12.6003418
		c1.2914009,21.395874,0.6496124,42.8105927,0.6577225,64.2175446c0.0015144,3.9883881-0.0966606,7.98703-0.1893997,11.9799347
		c-0.1455345,6.2663422-0.2806168,12.5340118-0.535202,18.7964172c-0.1799202,4.4257202-0.3308334,8.8512878-0.473175,13.2781372
		c-0.1807213,5.6206055-0.3782196,11.2443237-0.7604179,16.8535767c-0.2574959,3.7790527-0.196804,7.579834-0.7390556,11.3394775
		c-1.7242279-0.0837708-3.3719635-0.5368042-4.9835625-1.1030884c-1.6184654-0.5686951-2.0121346-1.1141663-1.9840698-2.8423157
		c0.0452156-2.7842407,0.1874161-5.5641479,0.4140472-8.3428955c0.431675-5.2928772,0.7171974-10.5978699,1.1692505-15.8888245
		c0.4074936-4.7694855-0.0650482-9.592804,0.9218788-14.3255157c0.1883888-0.9033813,0.0964546-1.8375397-0.042675-2.744751
		c-0.4781952-3.1182098-0.3503647-6.2133179,0.3311234-9.2835846c0.1949081-0.8781128,0.1388702-1.7289124,0.0771484-2.6109161
		c-0.2841988-4.0611115-0.8382988-8.1011047-0.8580627-12.1838684c-0.0239258-4.942688,1.0864563-9.6556549,2.7438126-14.2636871
		c0.3171997-0.881958,0.5332336-1.7270813,0.4237556-2.675354c-0.1839256-1.5931854-0.141243-3.1873627,0.1506195-4.7743683
		c0.1077003-0.5856476,0.1623573-1.1927948,0.1462173-1.7875824c-0.1308823-4.8229065-0.2779045-9.645401-0.4356956-14.4675293
		c-0.0367355-1.1227112,0.0765038-2.2321014,0.1623611-3.3472748c0.144268-1.8738251,0.1034241-3.7475739-0.048111-5.6235199
		c-0.4092598-5.0663605-0.1779556-10.145752-0.0681305-15.2097778c0.196312-9.0511017-0.2082138-18.0476379-1.5041733-27.0064316
		c-0.2226868-1.5393982-0.3748512-3.0890045-0.5595245-4.6338654c0.5152626-1.2158585-0.2161751-2.3334808-0.3642349-3.4790726
		C42.6969795,115.5973511,42.9329262,114.1476212,42.4525146,112.7778625z"></path>
	<path d="M180.3169098,283.9697266c-0.3938751-5.0127869-0.5727386-10.0362244-0.8100586-15.0577393
		c-0.282486-5.9776611-0.5378265-11.9543762-0.7411346-17.9355164c-0.1653748-4.8657379-0.3150482-9.7320404-0.4851532-14.597168
		c-0.2554474-7.3048248-0.3230438-14.611908-0.5149689-21.9160767c-0.4473877-17.026535-0.1677856-34.0520782-0.1540527-51.0777435
		c0.0038757-4.8250732,0.1699829-9.658493,0.4935303-14.4725189c0.3222656-4.7945404,0.6694794-9.5894623,1.1401062-14.3773499
		c0.9476013-9.6400223,2.522995-19.1615753,4.9313965-28.5371094c1.2419739-4.834877,2.7194824-9.608345,4.7613068-14.1821518
		c0.1013336-0.2270203,0.0921478-0.5706024,0.4303741-0.6598129l-0.0207214-0.0194473
		c0.2196045,0.4597931-0.0706329,0.8524323-0.1864014,1.2576218c-1.8860931,6.6003571-3.1680298,13.3224106-4.0814209,20.1194611
		c-0.4264069,2.5465698-0.4257202,5.1188202-0.4629211,7.688797c-1.2378235,10.3072052-2.2989655,20.6278992-1.9510498,31.0315857
		c0.0821381,2.4562225,0.7914734,4.8716583,0.4144745,7.3699951c-0.3516235,2.3302765-0.4445953,4.684967-0.4245453,7.0450745
		c0.0559845,6.582428,0.098587,13.1757202-0.1155396,19.7438812c-0.1456757,4.4695435,0.7072906,8.6924438,1.4236298,12.9963837
		c0.8506927,5.1109314,0.9480896,10.2349701,0.2398224,15.3761444c-0.3209076,2.3293762-0.54039,4.6726532-0.8144379,7.008606
		c-0.0490723,0.4181976,0.1008759,0.7893066,0.2301788,1.1618195c1.989563,5.7316895,2.4832916,11.6064911,1.5848999,17.5875092
		c-0.3058167,2.0359802-0.3425293,4.0207977,0.0992279,6.0381927c0.4457397,2.035675,0.5504761,4.1139832,0.5100098,6.1976929
		c-0.1430817,7.3665771,0.683609,14.670929,1.384079,21.9852905c0.2195892,2.2928162,0.3340759,4.5978088,0.3145142,6.9078064
		c-0.0094452,1.1127625-0.4973297,1.8139954-1.5031281,2.1914368
		C184.1745911,283.5326233,182.2864838,283.9595947,180.3169098,283.9697266z"></path>
</g>
<g onclick="select(this)" class="" id="gola-primaria" fill="#104969">
	<path d="M109.3256989,35.9207878c-0.1734467,0.532753-0.5917358,0.2743607-0.9039154,0.2516022
		c-4.1043777-0.299221-7.9513092-1.505722-11.6402817-3.2895241c-5.3551407-2.5894814-10.2299652-5.8816833-14.3707428-10.1524506
		c-2.6511154-2.734333-4.9007111-5.7867432-5.7837296-9.6242762c-0.2346497-1.0197554-0.4030762-2.0421906-0.2305679-3.0806484
		c0.1655655-0.9966812,0.9428787-1.529851,1.6987534-2.062746c0.5144196-0.0249214,0.9029312-0.3084855,1.2525024-0.6408176
		c0.9263763-0.8806958,2.0002518-1.6613083,2.7274628-2.6858997c2.0422745-2.8774152,5.0195923-3.6035271,8.2394028-3.9384618
		c3.0734558-0.3197089,6.1407471,0.0640202,9.2119827,0.0276009c4.3973541-0.0521445,8.7971802,0.0443054,13.1931534-0.0513445
		c7.9102249-0.1721148,15.8182297,0.0474188,23.7272263,0.0364116c0.9124146-0.0012698,1.828537,0.1745476,2.7369537,0.3088157
		c2.2481232,0.332287,4.1498718,1.1915944,5.5701294,3.1200867c1.2012482,1.6310925,2.6129456,3.1247711,4.4388733,4.1271977
		c1.6919098,0.471426,2.2952423,2.5105724,1.6758423,4.7444515c-1.1704712,4.2214594-3.5445099,7.6803961-6.6416321,10.6471872
		c-2.7457275,2.6302032-5.8013458,4.901825-9.102417,6.8089809c-4.071167,2.3520851-8.2753143,4.4175797-12.9284058,5.3568268
		c-1.3970261,0.2819977-2.8357391,0.3577576-4.2551346,0.5281792c0.4981461-1.1476097,1.3241043-2.0655403,2.1212006-3.0007629
		c2.248703-2.6383533,4.9448242-4.810585,7.4805527-7.1498508c2.1459198-1.6623192,4.2819519-3.3376217,6.4404449-4.9834862
		c2.392868-1.8246021,4.6131897-3.8312626,6.5503387-6.1364632c1.4909363-1.7742386,2.8118439-3.6581097,3.6611938-5.995595
		c-2.0445251,0.171031-3.9476471,0.3502245-5.8538818,0.4858923c-5.379715,0.3828764-10.7599335,0.7590179-16.1413574,1.1168613
		c-5.5895386,0.3716831-11.1788483,0.4153547-16.7722092,0.018959c-7.1327515-0.5054932-14.2606812-1.060936-21.3717041-1.816123
		c-0.7256699-0.0770664-0.9725952,0.1089544-0.6669769,0.8316221c0.5152588,1.2184,1.126152,2.3757305,1.9132462,3.447176
		c3.9235306,5.3410435,9.441452,8.9155712,14.446228,13.0588207
		C103.1151276,29.2874451,106.6069336,32.222599,109.3256989,35.9207878z"></path>
</g>
</svg>
