<!--?xml version="1.0" encoding="utf-8"?-->
<!-- Generator: Adobe Illustrator 24.2.3, SVG Export Plug-In . SVG Version: 6.00 Build 0)  -->
<svg version="1.1" id="Camada_1" xmlns="http://www.w3.org/2000/svg" xmlns:xlink="http://www.w3.org/1999/xlink" x="0px" y="0px" viewBox="0 0 234 419" enable-background="new 0 0 234 419" xml:space="preserve">
<g onclick="select(this)" class="" id="c-estampa-primaria" fill="#ffffff">
	<path d="M46.7812424,118.801651c-0.0767593-1.3550415-0.1535225-2.7100906-0.2302551-4.065239
		c0.4013672-3.5744247-0.8350601-6.9751587-1.197998-10.4692993c-0.2240105-2.1566772,0.1601028-4.4605942-0.9499817-6.5027618
		c0.2355576-4.1750107-0.9775124-8.179451-1.426548-12.2726135c-0.4060669-3.7014923-1.5520096-7.0640182-3.7860184-10.060585
		c-0.5201302-0.6976852-0.8810234-1.516983-1.2921524-2.2925415c-1.677639-3.1646805-2.3670807-6.6731339-3.4572754-10.0403824
		c-2.0804443-6.425808-3.4284821-12.9882317-3.4827595-19.7759361c-0.0089321-1.1172714,0.2226963-2.2094421,0.2825794-3.323185
		c0.1069202-1.9885635-0.031992-3.9983482,0.41399-5.9693832c0.1208649-0.5341721,0.1112595-1.1201401-0.2297115-1.6233521
		c4.2176952-1.9782009,8.3974285-4.0383091,12.7343388-5.7551689c7.1586761-2.8339195,14.2072411-5.9264126,21.2225914-9.0958195
		c3.9044266-1.7639484,7.5148468-4.0420628,11.1217957-6.3282051c0.4499207-0.285161,0.7661057-0.6875992,1.1115265-1.0751286
		c1.1253662-1.2625484,2.460701-2.1400995,4.2184219-2.1968918c2.0342941,0.2981586,4.0931244,0.332696,6.1293793,0.6633081
		c8.3689957,1.3588123,16.8237305,1.8147812,25.2742157,2.3104897c5.0438004,0.2958727,10.0588913-0.1554689,15.0837708-0.4571857
		c4.4263611-0.2657785,8.8530426-0.5102081,13.2524109-1.0787601c3.1972351-0.4131947,6.3849487-0.8995619,9.5781403-1.3446274
		c0.7452545-0.1038756,1.4954529-0.1725669,2.2436371-0.2575908c2.121933,0.0199952,3.6186676,1.1140513,4.9762115,2.6535583
		c1.0045471,1.1392441,2.449173,1.775898,3.7708893,2.5178118c9.4977875,5.3313141,19.4880676,9.6015377,29.5888672,13.6187572
		c3.9791565,1.5825596,7.694046,3.71805,11.6465302,5.3458309c0.175293,0.0721912,0.3132019,0.2351036,0.4684601,0.3557205
		c-0.4079285,0.5212479-0.4852905,1.2034378-0.2796631,1.7151718c0.4703064,1.1705475,0.0795288,2.3345184,0.1885529,3.492691
		c0.2788696,2.9625435,0.4180298,5.9366302,0.21492,8.9047165c-0.1652222,2.4147797-0.3381958,4.8516769-0.8126831,7.2176094
		c-0.8205414,4.091507-1.927063,8.1246033-3.2659149,12.0813484c-0.7891998,2.3323593-1.2008057,4.7971497-2.3715668,6.9949417
		c-0.8932037,1.6767578-1.6652374,3.4834824-3.0967407,4.7557755c-0.9084167,0.8073883-1.5977325,1.6723328-1.9496765,2.7775726
		c-1.364624,4.2856903-1.6241455,8.7427216-1.8916321,13.1865921c-0.1507416,2.5039444-0.2486572,4.9903641-0.9338226,7.4368515
		c-0.6354523,2.2689285-0.8999939,4.6388016-0.7013855,6.9787903c0.1374512,1.619606-0.1228943,3.1615524-0.2654114,4.7354507
		c-0.199707,2.6281662-0.6735229,5.2377548-0.5346069,7.8888626c-0.4046021,0.2297211-0.2497864,0.6383972-0.2887878,0.9698486
		c-1.2409821,10.5508347-1.5160522,21.1339188-0.9441376,31.7361374c0.2012024,3.7296448-0.1597748,7.4324341-0.3361053,11.1412354
		c-0.262619,5.5241699,0.213913,11.0307312,0.1908417,16.5469666c-0.0117188,2.8013611-0.1040344,5.5931549-0.4458923,8.3774872
		c-0.229599,1.8701782-0.2544708,3.7494659,0.0692902,5.618988c0.0408783,0.2360382,0.1015015,0.4797211,0.0812073,0.7136383
		c-0.2680206,3.0862274,0.4954071,5.9898071,1.3647308,8.9197235c1.7740479,5.9790039,1.9671478,12.1114349,1.4671631,18.2951355
		c-0.304718,3.7687531-0.8326721,7.5328827-0.0215759,11.3268585c0.2705383,1.2654877,0.1589813,2.6315765,0.0978851,3.9459076
		c-0.3535004,7.6035309,0.7575989,15.1347504,1.1002197,22.7034912c0.2419739,5.3453979,0.699646,10.6801758,0.9318695,16.0290222
		c0.0671234,1.5462036,0.2884521,3.096344,0.2848511,4.6539917c-0.0040741,1.7576904-0.2527008,2.1624756-1.9380493,2.6928101
		c-4.9689331,1.5635681-10.0740662,2.5220642-15.2290955,3.1793518c-11.8852539,1.5155029-23.8502808,1.6738586-35.8022308,1.801239
		c-20.6729507,0.2202759-41.3482971,0.5737-62.0217361,0.2687988c-10.004837-0.1476135-19.9621696-1.0458984-29.6603622-3.7771912
		c-3.6833267-1.037323-3.8044777-1.0596008-3.5799179-4.8108521c0.4223289-7.0551758,0.9893608-14.1017761,1.5130119-21.1507263
		c0.2370186-3.1905823-0.110363-6.4012756,0.3509216-9.5829163c0.0802193-0.55336,0.0910225-1.1242676,0.2354774-1.6596527
		c0.8587952-3.1829681,0.0915489-6.3565979-0.0495949-9.5281372c-0.2078438-4.6702271,0.2217903-9.2737427,1.4198914-13.7774353
		c0.4246025-1.5960999,0.4807281-3.1339264,0.2883301-4.7227325c-1.0463257-8.6404877-0.9161263-17.2292023,1.0487061-25.7495117
		c0.3325615-1.4421234,0.4711723-2.9310913,0.3530312-4.4104767c-0.3794022-4.7510529,0.0122833-9.5081787-0.1689415-14.2619019
		c-0.2146835-5.6312866-0.0821152-11.2704773-0.4309502-16.9023743c-0.2619247-4.228714,0.4452324-8.447998,0.241684-12.6940918
		C47.8281784,137.1582184,47.4722786,127.9711685,46.7812424,118.801651z"></path>
	<path d="M188.6812744,112.5599823c0.1425171-1.5738983,0.4028625-3.1158447,0.2654114-4.7354507
		c-0.1986084-2.3399887,0.0659332-4.7098618,0.7013855-6.9787903c0.6851654-2.4464874,0.7830811-4.9329071,0.9338226-7.4368515
		c0.2674866-4.4438705,0.5270081-8.9009018,1.8916321-13.1865921c0.351944-1.1052399,1.0412598-1.9701843,1.9496765-2.7775726
		c1.4315033-1.2722931,2.203537-3.0790176,3.0967407-4.7557755c1.1707611-2.1977921,1.5823669-4.6625824,2.3715668-6.9949417
		c1.3388519-3.9567451,2.4453735-7.9898415,3.2659149-12.0813484c0.4744873-2.3659325,0.6474609-4.8028297,0.8126831-7.2176094
		c0.2031097-2.9680862,0.0639496-5.942173-0.21492-8.9047165c-0.109024-1.1581726,0.2817535-2.3221436-0.1885529-3.492691
		c-0.2056274-0.511734-0.1282654-1.193924,0.2796631-1.7151718c0.2102203,0.1116676,0.4566498,0.1841888,0.6252136,0.3406334
		c3.9205627,3.6386032,8.1220245,7.0112839,11.1985168,11.465538c3.6876678,5.3391647,6.2693787,11.1972656,8.0645142,17.4220467
		c1.855957,6.4356842,2.5604248,13.0691071,3.6264191,19.6522064c1.570282,9.6975555,2.6261597,19.4785385,4.6393738,29.104805
		c0.1053619,0.5038223,0.102417,1.0303116,0.1499481,1.5463715c-2.6681061,0.6655502-5.3206482,1.4046097-8.0636749,1.7179031
		c-3.2069092,0.3662796-6.4146271,0.7254715-9.6210022,1.0962982c-3.0062256,0.3476791-6.0040588,0.9012604-9.0184021,1.0103607
		c-3.6274109,0.1313019-7.2682648-0.1153641-10.9035339-0.1868286c-0.4984894-0.0097961-0.9168243-0.2772141-1.3724365-0.3677292
		C191.3878479,114.7298126,190.5228119,112.7779846,188.6812744,112.5599823z"></path>
	<path d="M31.4251118,32.4063721c0.340971,0.503212,0.3505764,1.08918,0.2297115,1.6233521
		c-0.445982,1.971035-0.3070698,3.9808197-0.41399,5.9693832c-0.0598831,1.1137428-0.2915115,2.2059135-0.2825794,3.323185
		c0.0542774,6.7877045,1.4023151,13.3501282,3.4827595,19.7759361c1.0901947,3.3672485,1.7796364,6.8757019,3.4572754,10.0403824
		c0.411129,0.7755585,0.7720222,1.5948563,1.2921524,2.2925415c2.2340088,2.9965668,3.3799515,6.3590927,3.7860184,10.060585
		c0.4490356,4.0931625,1.6621056,8.0976028,1.426548,12.2726135c1.1100845,2.0421677,0.7259712,4.3460846,0.9499817,6.5027618
		c0.3629379,3.4941406,1.5993652,6.8948746,1.197998,10.4692993c-0.7430496-0.1559753-0.4466248-0.7550583-0.4480972-1.1689682
		c-0.0030136-0.8474426-0.3366966-1.1772919-1.084877-0.7159271c-2.1458626,1.3232574-4.5059891,1.392868-6.9265518,1.4081802
		c-5.9911842,0.0379257-11.914423-0.3703842-17.8513241-1.3506393c-5.7302513-0.9461212-11.4566507-1.9013596-17.1664352-2.9633942
		c-0.4844108-0.0901108-0.9187891-0.242218-1.3282617-0.4972076c1.2825927-8.0049973,2.2239013-16.0782471,4.4298015-23.9057312
		c1.4928513-5.2972641,1.9323235-10.7706375,2.9552269-16.1442108c1.5344801-8.0610313,3.9434853-15.8129349,8.3927479-22.8015022
		c2.7514877-4.3218231,6.1713905-8.0597153,10.2077255-11.2039833
		C28.9818478,34.4185829,29.9585438,33.1073418,31.4251118,32.4063721z"></path>
</g>
<g onclick="select(this)" class="" id="c-estampa-secundaria" fill="#000000">
	<path d="M233.280014,120.0000076c-3.9235382,0.9146347-7.8752136,1.6795425-11.8641663,2.2509918
		c-7.9579163,1.1400604-15.9394226,1.9686356-23.9928894,1.5474777c-2.1082764-0.11026-4.2005768-0.5256577-6.0379791-1.6773071
		c-1.0589905-0.6637573-2.4757843-0.3307343-3.4077606-1.4724197c-0.7240143,5.9256363-1.0207672,11.6998215-1.2476349,17.4853134
		c-0.2384338,6.0804138,0.2146149,12.1450806,0.1870575,18.216629c-0.0166779,3.6731567-0.3260498,7.3440552-0.4026489,11.0180817
		c-0.1091003,5.2348938,0.3564911,10.4641876,0.2258606,15.7017822c-0.0508423,2.0391235-0.1901703,4.0684814-0.4256897,6.0954285
		c-0.2219543,1.9100647-0.2604523,3.8275299,0.0749207,5.7360992c0.0551605,0.3139191,0.1302032,0.6434631,0.0901489,0.9520416
		c-0.4207153,3.2415161,0.7007141,6.2126923,1.5454712,9.2442474c0.9235687,3.3144684,1.4165802,6.7049561,1.4865265,10.1509247
		c-0.519516,0.0102539-1.039032,0.0294037-1.558548,0.0294342c-22.039032,0.0014954-44.0780945,0.0009613-66.1171417,0.00354
		c-0.4783859,0.000061-0.9567795,0.0332947-1.4351654,0.0510406c-1.5583344-0.0181122-3.1205826,0.0245972-4.6736526-0.0753937
		c-0.2667236,0.3819122-0.3285141,0.2970428-0.3267212,1.4319153c0.0374298,23.7568817-0.0613327,47.3430328-0.0600052,71.0999908
		c0.0000305,0.5177917-1.0242615,1.1202393-0.8310547,1.6211243c-13.1970367-0.0058289-26.3964386,0.1375427-39.5902252-0.0726013
		c-8.1121368-0.1292114-16.2125969-0.8384399-24.1455269-2.7492981c-1.780407-0.428894-3.5520668-0.9154053-5.2923851-1.4836731
		c-1.9731216-0.6443481-2.2397614-1.0691223-2.1130714-3.1652832c0.1828461-3.0251465,0.4712868-6.0441589,0.6367531-9.0700378
		c0.3623009-6.6253052,1.1761131-13.2261963,1.0729218-19.8770599c-0.023632-1.5230255,0.0853615-3.0574799,0.4609795-4.523407
		c0.735527-2.8705292,0.2206116-5.718277,0.0079803-8.5670624c-0.3908691-5.2367401,0.1446991-10.3768921,1.5150871-15.4254303
		c0.6120987-2.2549896,0.1082878-4.4638519-0.1176987-6.6562958c-0.7730637-7.4999542-0.4547653-14.9255219,1.1087265-22.2947693
		c0.4349594-2.0500793,0.6359901-4.1070251,0.4959145-6.1920929c-0.3165817-4.7123718,0.056221-9.4294739-0.1318741-14.143692
		c-0.2262764-5.6710052-0.0120888-11.355423-0.5023003-17.0196075c-0.0515862-0.5960846-0.1036491-1.2059937-0.03759-1.7962952
		c0.8097954-7.2361755,0.1747093-14.4485931-0.2817001-21.6686707c-0.2596436-4.1073456-0.355999-8.2248154-0.5542603-12.3363571
		c-0.0583038-1.2090759-0.0655556-2.4335556-0.4799309-3.598938c-0.0697021-0.6215668-0.1934853-1.242691-0.1986504-1.8647995
		c-0.0138397-1.6671066,0.3524055-3.413002-0.0221977-4.987236c-1.0970039-4.6100998-1.2612305-9.34375-1.9407806-13.9983673
		c-0.6015205-4.1201401-1.0700378-8.2839584-1.6317749-12.427681c-0.475071-3.5044785-1.4321098-6.7334061-3.5117302-9.6271896
		c-0.7150917-0.9950409-1.246933-2.1331863-1.779789-3.2455673c-1.386631-2.8946915-2.0792542-6.0304413-3.0514908-9.0675316
		c-1.9539032-6.1036835-3.3202591-12.3150635-3.4621696-18.766674c-0.0700493-3.1846771,0.6733856-6.3622246,0.0373135-9.5504036
		c-0.0631542-0.3165436,0.0672207-0.743679,0.252861-1.0230904c0.4031696-0.6068192,0.3628864-1.1845322,0.0935383-1.7995338
		c0.1988297-0.1274605,0.3865433-0.2782784,0.5981102-0.3789825c6.0758286-2.892067,12.299427-5.4404583,18.4974899-8.0547981
		c7.9126549-3.337553,15.947155-6.445385,23.2628441-11.047822c1.5458298-0.9725161,3.1520081-1.8359632,4.3856812-3.2742214
		c0.9526138-1.1105871,2.2733536-1.7201371,3.7985077-1.7241364c10.8237915,1.2925396,22.0525208,2.577837,32.9639969,2.8896494
		c-0.0270233,0.4772577,0.0006027,0.9404583,0,1.4178391c-0.005928,4.6783676,0.1349945,9.451622,0.1350021,14.1299992
		s0.1582108,9.2042389,0.1349945,13.8824997c-0.0033417,0.6731529-0.0449982,0.9225006,0.1249695,1.0479088
		c1.7149582-0.0811272,3.4349594-0.0554352,5.1529007-0.0735474c0.3580093,0.0177498,0.7160263,0.0510139,1.074028,0.0510445
		c27.0899353,0.0024147,54.1798706,0.0022087,81.2698059,0.0021935c0.1997681,0,0.4015198-0.0184402,0.598938,0.0030289
		c0.5489197,0.0597153,0.7181549-0.2231293,0.6507416-0.7094803c-0.291275-2.1014442-0.052063-4.2320023-0.3690033-6.3370972
		c-0.0955963-0.6348953-0.2509308-1.3643227,0.2724304-1.9517975c1.5356598,0.773098,2.4815826,2.2267189,3.780426,3.2811279
		c3.5913239,2.9154778,6.6944275,6.3078957,9.1672211,10.2189102c5.5940247,8.8476105,8.3597717,18.6902008,9.6567078,28.9508514
		c1.0721283,8.4820023,2.7030334,16.8737411,3.7807465,25.3524551c0.4913025,3.8651581,1.1839142,7.7104721,1.9478912,11.5322647
		c0.2871246,1.4363785,0.2810974,2.9721832,1.0497131,4.2998123
		C233.280014,117.2799988,233.280014,118.640007,233.280014,120.0000076z"></path>
</g>
<g onclick="select(this)" class="" id="c-estampa-terciaria" fill="#bf083c">
	<path d="M120.4003754,215.3332977c0.0040741,24.6304626,0.0081482,49.2608795,0.011795,73.8912201
		c-1.9600677,0.3183899-3.9354706,0.1373901-5.9034271,0.1864319c-0.1930084-0.500885-0.1403961-1.0250854-0.1404266-1.5428772
		c-0.0013275-23.756958,0.0080261-47.5139008-0.0294037-71.2707825c-0.0017929-1.1348724,0.3282776-1.407608,1.3878098-1.3393707
		C117.2797928,215.3579102,118.842041,215.3152008,120.4003754,215.3332977z"></path>
	<path d="M120.4646683,10.9930868c-0.0195084,1.9182425-0.0540161,3.8364697-0.0559082,5.7547293
		c-0.0080414,8.1596203-0.0064011,16.3192539-0.0083466,24.4788799c-1.7179871,0.0181084-3.4379883-0.0075836-5.1529465,0.0735435
		c-0.8090439,0.0382729-0.8958588-0.3029442-0.8925171-0.9760971c0.0232162-4.6782608,0.0122375-9.3566895,0.0122299-14.0350666
		s-0.0023499-9.3567581,0.0035782-14.0351267c0.0006027-0.4773808,0.0508728-0.9546986,0.0778961-1.4319563
		C116.4508362,10.9853926,118.4678726,10.6330862,120.4646683,10.9930868z"></path>
</g>
<g onclick="select(this)" class="" id="c-gola-primaria" fill="#000000">
	<path d="M81.8337631,7.9551482c1.7809372-1.4190092,3.4730377-2.9295225,4.8501663-4.7590275
		c1.5450439-2.0525742,3.8180466-2.4387608,6.1472397-2.7100065C93.2521667,0.437086,93.72155,0.6118734,94.0800018,0.24
		c16,0,32,0,48,0c0.8258362,0.4266242,1.7599182,0.3826382,2.635376,0.5993913
		c1.7582092,0.4353179,3.2734985,1.2413597,4.3717957,2.7102425c1.1104889,1.4851677,2.5509338,2.6122496,3.9674988,3.7706835
		c0.1449127,0.1185122,0.2287445,0.3117666,0.3406677,0.4704785c-0.7481842,0.0850201-1.4983826,0.1537113-2.2436371,0.257587
		c-3.1931915,0.4450655-6.3809052,0.9314327-9.5781403,1.3446274c-4.3993683,0.568552-8.8260498,0.8129816-13.2524109,1.0787601
		c-5.0248795,0.3017168-10.0399704,0.7530584-15.0837708,0.4571857c-8.4504852-0.4957085-16.90522-0.9516773-25.2742157-2.3104897
		C85.9269104,8.2878542,83.8680801,8.2533169,81.8337631,7.9551482z"></path>
</g>
<g onclick="select(this)" class="" id="c-detalhe-punho" fill="#bf083c">
	<path d="M0.24,115.9200058c0.5789765-1.8824921,0.7624918-3.8468094,1.1905526-5.7606049
		c0.0581824-0.2601089-0.0143441-0.5728455,0.3148869-0.7109451c0.4094727,0.2549896,0.8438511,0.4070969,1.3282619,0.4972076
		c5.709785,1.0620346,11.4361839,2.0172729,17.1664352,2.9633942c5.9369011,0.9802551,11.8601398,1.3885651,17.8513241,1.3506393
		c2.4205627-0.0153122,4.7806892-0.0849228,6.9265518-1.4081802c0.7481804-0.4613647,1.0818634-0.1315155,1.084877,0.7159271
		c0.0014725,0.4139099-0.2949524,1.0129929,0.4480705,1.1690674c0.0767593,1.3550491,0.1535225,2.7100983,0.230278,4.0651321
		c-0.0557747,0.0530472-0.1500893,0.0987396-0.1617813,0.1601715c-0.4963951,2.6075745-0.5020065,2.5301285-3.1701164,2.7541428
		c-3.0185738,0.2534409-6.0040245,0.7482605-9.0601616,0.7218399c-6.1752777-0.0533829-12.258791-0.9222183-18.3460712-1.7839737
		c-4.7689228-0.6751099-9.5072765-1.5391846-14.2103863-2.5847778c-0.539026-0.1198196-1.0621994-0.3109665-1.5927218-0.4690399
		C0.24,117.0400009,0.24,116.4800034,0.24,115.9200058z"></path>
	<path d="M188.6812744,112.5599823c1.8415375,0.2180023,2.7065735,2.1698303,4.4899597,2.5240936
		c0.4556122,0.0905151,0.8739471,0.357933,1.3724365,0.3677292c3.6352692,0.0714645,7.276123,0.3181305,10.9035339,0.1868286
		c3.0143433-0.1091003,6.0121765-0.6626816,9.0184021-1.0103607c3.2063751-0.3708267,6.414093-0.7300186,9.6210022-1.0962982
		c2.7430267-0.3132935,5.3955688-1.0523529,8.0636902-1.7179031c0.8446655,0.5238724,0.7039185,1.461937,0.7878876,2.2139969
		c0.1720123,1.5407028,0.3506775,3.0860138,0.3776855,4.6480637c0.0172272,0.9962463-0.3174744,1.3810425-1.249588,1.6120834
		c-3.1387787,0.7779388-6.317688,1.3454895-9.5081482,1.8256073c-7.8910522,1.1875-15.8142548,1.9860916-23.8146057,1.7421799
		c-2.7035675-0.0824127-5.3105316-0.4700699-7.667511-1.9013672c-0.3552856-0.2157516-0.7400513-0.2788696-1.1385956-0.321022
		c-0.8007813-0.0846863-1.4325409-0.4291534-1.790802-1.1847534
		C188.0077515,117.7977371,188.4815674,115.1881485,188.6812744,112.5599823z"></path>
</g>
</svg>
