<!--?xml version="1.0" encoding="utf-8"?-->
<!-- Generator: Adobe Illustrator 25.0.1, SVG Export Plug-In . SVG Version: 6.00 Build 0)  -->
<svg version="1.1" id="Camada_1" xmlns="http://www.w3.org/2000/svg" xmlns:xlink="http://www.w3.org/1999/xlink" x="0px" y="0px" viewBox="0 0 229 418" enable-background="new 0 0 229 418" xml:space="preserve">
<g class="" id="estampa-primaria" fill="#ffff00">
	<path d="M42.4525146,112.7778625c-0.8959656-0.1017761-1.4921265,0.6431503-2.3408813,0.7894821
		c-2.3294182,0.4016266-4.6686974,0.4893799-7.0189934,0.5657349c-5.6645355,0.1840439-11.3184147-0.0333939-16.9397697-0.6843262
		c-5.0782709-0.5880508-9.9922829-1.9331818-14.739399-3.8523865c1.6968609-8.914566,2.4887414-17.9633636,4.0001216-26.9052277
		c0.8855782-5.2393951,1.1788788-10.5595551,2.2399788-15.7781677c1.7292542-8.504673,4.4516625-16.5878448,9.6675148-23.6606789
		c2.1221428-2.8776779,4.5377884-5.4906731,7.3400173-7.7103424c1.3638763-1.0803337,2.3639584-2.5835495,3.9253693-3.4050064
		c3.6099453-1.8991852,7.2583332-3.7276974,11.0324497-5.2813187c9.9905014-4.1125946,20.000515-8.1803665,29.4651909-13.4415846
		c1.9752426-1.0979939,3.9976349-2.0948963,5.5164642-3.8997173c0.8439026-1.0028076,2.0582657-1.6470857,3.4946365-1.5515785
		c-0.7558746,0.5328951-1.5331879,1.0660648-1.6987534,2.062746c-0.1725082,1.0384579-0.0040817,2.0608931,0.2305679,3.0806484
		c0.8830185,3.837533,3.1326141,6.8899431,5.7837296,9.6242762c4.1407776,4.2707672,9.0156021,7.5629692,14.3707428,10.1524506
		c3.6889725,1.783802,7.5359039,2.990303,11.6402817,3.2895241c0.3121796,0.0227585,0.7304688,0.2811508,0.9042816-0.2512054
		c0.4935303,0.34338,1.0183792,0.5796623,1.6344376,0.6280861c2.3348923,0.1835098,4.6674423,0.3629379,6.9804306-0.1974907
		c1.4196167-0.1702423,2.8583298-0.2460022,4.2553558-0.5279999c4.6530914-0.9392471,8.8572388-3.0047417,12.9284058-5.3568268
		c3.3010712-1.907156,6.3566895-4.1787777,9.102417-6.8089809c3.0971222-2.9667912,5.4711609-6.4257278,6.6416321-10.6471872
		c0.6194-2.2338791,0.0160675-4.2730255-1.6763763-4.744153c1.9420929-0.322947,3.1181183,0.8977289,4.248703,2.1526375
		c0.3474121,0.3856363,0.6847076,0.7271471,1.1279755,1.0213566c8.8716431,5.8886719,18.7898102,9.6126652,28.5267792,13.6823082
		c5.0673981,2.11796,10.038208,4.4440956,15.0911713,6.5874882c0.2853394,0.1210365,0.5591431,0.2838707,0.8124237,0.4636726
		c11.9666901,8.4952011,19.1779327,20.08321,21.3682709,34.4821701c1.7443542,11.4671555,4.7389374,22.6825333,6.318634,34.166687
		c0.3372803,2.4519806,0.734375,4.8957443,1.1039429,7.3433762c-0.6231995,0.2587509-1.2245331,0.6173401-1.8733063,0.7590942
		c-3.0727844,0.6713867-5.9807739,1.8872681-9.0736084,2.5406494c-3.9409485,0.8325424-7.895462,1.5586319-11.8859558,1.9935684
		c-5.5944672,0.6097641-11.2156982,0.2853394-16.8232422,0.0108337c-1.0757751-0.0526581-2.1148071-0.3867111-3.0544434-0.9562912
		c0.9133911-6.7970581,2.1953278-13.5191116,4.0814209-20.1194687c0.1157684-0.4051895,0.4060059-0.7978287,0.1864471-1.257576
		c0.2286835,0.013588,0.220459-0.1446915,0.208313-0.2966614c-0.0024261-0.0302887-0.0488129-0.0570526-0.0749512-0.0854416
		c-0.0375671,0.1338348-0.0751343,0.267662-0.1127014,0.4015045c-0.3382111,0.0892105-0.3290253,0.4327927-0.4303589,0.6598129
		c-2.0418243,4.5738068-3.5193329,9.3472748-4.7613068,14.1821518c-2.4084015,9.3755341-3.9837952,18.8970871-4.9313965,28.5371094
		c-0.4706268,4.7878876-0.8178406,9.5828094-1.1401062,14.3773499c-0.3235474,4.8140259-0.4896545,9.6474457-0.4935303,14.4725189
		c-0.0137329,17.0256653-0.293335,34.0512085,0.1540527,51.0777435c0.191925,7.3041687,0.2595215,14.6112518,0.5149689,21.9160767
		c0.170105,4.8651276,0.3197784,9.7314301,0.4851532,14.597168c0.2033081,5.9811401,0.4586487,11.9578552,0.7411346,17.9355164
		c0.2373199,5.0215149,0.4161835,10.0449524,0.8100586,15.0577393c-7.654129,1.0699463-15.3581696,1.3612976-23.0732422,1.4522095
		c-12.9472198,0.1525879-25.8881531,0.5621033-38.8301086,0.9285583c-6.7608643,0.1914368-13.4958496-0.465271-20.2470093-0.5768127
		c-8.7105942-0.1439209-17.4220123-0.2460938-26.1319199-0.4232483c-8.3101959-0.1690063-16.6230583-0.3526306-24.8476982-1.7511597
		c0.5422516-3.7596436,0.4815598-7.5604248,0.7390556-11.3394775c0.3821983-5.6092529,0.5796967-11.2329712,0.7604179-16.8535767
		c0.1423416-4.4268494,0.2932549-8.852417,0.473175-13.2781372c0.2545853-6.2624054,0.3896675-12.5300751,0.535202-18.7964172
		c0.0927391-3.9929047,0.1909142-7.9915466,0.1893997-11.9799347c-0.00811-21.4069519,0.6336784-42.8216705-0.6577225-64.2175446
		c-0.2539635-4.2076416-0.5594025-8.4050293-0.9685097-12.6003418c-0.4473228-4.5871887-1.0582695-9.1419525-1.8283081-13.6878357
		c-1.0712128-6.3238525-2.2926559-12.6049652-4.1846809-18.7393494c-0.5815163-1.8854294-1.0368538-3.8216553-1.9383469-5.6982117
		c-0.5278625,0.8900604,0.2040977,1.4512558,0.2923431,2.1296234c0.3710556,2.852478,0.8811569,5.6868515,1.2544365,8.5390854
		C42.1011581,108.9703293,42.5416451,110.8479462,42.4525146,112.7778625z"></path>
	<path d="M127.5429077,26.2013454c-6.4310379-0.0194588-12.8620758-0.0499077-19.2931213-0.0533142
		c-2.8337784-0.0015011-5.6675949,0.0519543-8.5014725,0.080719c-5.0048599-4.1429901-10.5227814-7.7175179-14.446312-13.0585613
		c-0.7870941-1.0714455-1.3979874-2.228776-1.9132462-3.447176c-0.3056183-0.7226677-0.0586929-0.9086885,0.6669769-0.8316221
		c7.1110229,0.755187,14.2389526,1.3106298,21.3717041,1.816123c5.5933609,0.3963957,11.1826706,0.3527241,16.7722092-0.018959
		c5.381424-0.3578434,10.7616425-0.7339849,16.1413574-1.1168613c1.9062347-0.1356678,3.8093567-0.3148613,5.8538818-0.4858923
		c-0.84935,2.3374853-2.1702576,4.2213564-3.6611938,5.995595c-1.937149,2.3052006-4.1574707,4.311861-6.5503387,6.1364632
		C131.8248596,22.8637238,129.6888275,24.5390263,127.5429077,26.2013454z"></path>
</g>
<g class="" id="estampa-secundaria" fill="#000000">
	<path d="M130.9745636,285.9783325c-1.2259674,0.0000305-2.4519348,0.0000305-3.8798065,0.0000305
		c6.0373993-9.8823242,11.9858704-19.6190491,17.9343109-29.3557739c-0.0818329-0.0854492-0.1636963-0.170929-0.2455444-0.2563782
		c-7.6964722,6.0666504-15.3929291,12.1333008-23.0894012,18.1999512c-0.057106-0.0766907-0.114212-0.1533508-0.1713257-0.2300415
		c5.4426422-5.996582,10.8876801-11.9910278,16.3274078-17.9902344
		c13.0416718-14.3829651,26.0805969-28.7683868,39.1212311-43.1522827c2.2002563-2.4269257,4.4009857-4.8534393,6.6083374-7.2739105
		c0.2937164-0.3220825,0.6279755-0.6072693,0.9432983-0.9098663c0.3254089,4.1561584-0.3737793,8.2509155-0.7775879,12.3605957
		c-0.1933136,1.9674377-0.6122437,3.9191437,0.0981293,5.8637543c-4.5593567,6.0377655-9.1188812,12.0752106-13.6724243,18.1171265
		c-0.0237427,0.0315094,0.0367737,0.1264648,0.0787506,0.2558899c1.2059937-0.2273712,2.4150085-0.462326,3.6266937-0.6824188
		c3.760376-0.6829834,7.5217896-1.3603058,11.2827911-2.0398254c-0.0427704,0.2009735-0.0855408,0.4019318-0.1283569,0.6030731
		c-0.2428741,0.2054749-0.4980774,0.397934-0.7268066,0.6178589c-13.4959564,12.9746246-26.9866333,25.9547577-40.486557,38.9252472
		c-2.3853149,2.2917786-4.8083496,4.5443726-7.2139893,6.815033
		C134.7273407,285.8901978,132.8509521,285.9342651,130.9745636,285.9783325z"></path>
	<path d="M143.9687195,186.5298767c-4.8002014,4.3447876-9.5930939,8.6976624-14.401947,13.0328522
		c-15.557579,14.0252686-31.1210175,28.0440063-46.6821747,42.0652618
		c-0.1186295,0.1199036-0.4239883,0.2268219-0.3062134,0.3689423c0.1931686,0.233078,0.3578796-0.0213928,0.48806-0.186615
		c4.1839294-2.4429474,8.3664093-4.8883972,12.5530624-7.3267212c0.8211594-0.4782257,1.6585083-0.9287262,2.4883957-1.3920135
		c0.0530853,0.0597229,0.1056366,0.1199188,0.1576462,0.1805725c-8.4430695,7.2800293-16.8841476,14.5623779-25.3297272,21.8394775
		c-9.7454338,8.3971252-19.4948235,16.7896118-29.3532867,25.279541c4.2245827,1.4446716,8.3520432,2.8561707,12.4794197,4.2677002
		c-4.3413239-0.2597961-8.6515732-0.7651367-12.8600235-1.8896179c-2.7723579-0.7407837-3.0211143-1.1404724-2.9187012-4.0496216
		c0.2566986-7.2919006,0.9897156-14.5514526,1.5149231-21.8246765c8.3610954-5.8080444,16.717514-11.6236572,25.0846901-17.4237518
		c25.2992325-17.5372925,50.6025238-35.0687561,75.9059753-52.6000061c0.2926788-0.2027588,0.6085663-0.3720551,0.91362-0.5569763
		C143.7911987,186.3861237,143.8799591,186.4579926,143.9687195,186.5298767z"></path>
	<path d="M101.1037369,249.5732269c11.4066849-12.1445312,22.8102875-24.2919464,34.2208481-36.4328461
		c12.8886108-13.713501,25.7801514-27.4242096,38.6781158-41.1289368c2.8455505-3.0235443,5.7233582-6.0167847,8.5863342-9.023819
		c0.2596741,4.7112885-0.2981415,9.4146423-0.1587524,14.1212463c0.1228485,4.1476593,0.1728821,8.2905426-0.0192108,12.4362488
		c-0.0592651,1.2794037,0.1165619,2.542099,0.4351807,3.7833252c-10.8729248,8.9673615-21.74617,17.9342804-32.618576,26.9022217
		c-3.2651978,2.6932831-6.5254517,5.3925323-9.796051,8.0792236c-0.3177032,0.2609863-0.5882263,0.7097626-1.2024689,0.4275055
		c3.5726929-4.5478973,7.1413879-9.0761261,10.6937256-13.6171722c3.095932-3.9575958,6.1733856-7.9296417,9.2589722-11.8953094
		c0.0961761-0.0469818,0.2297516-0.1040955,0.1284943-0.2219696c-0.0437775-0.0509644-0.2012634-0.0043793-0.3071136-0.0020905
		c-6.2638855,5.0778046-12.5316162,10.1508942-18.790863,15.2344055
		c-12.7361832,10.3439178-25.4675522,20.6937714-38.2030334,31.0385742
		c-0.2136307,0.1735077-0.454277,0.3138275-0.6822968,0.4696503
		C101.2526016,249.6867371,101.1781693,249.6299591,101.1037369,249.5732269z"></path>
	<path d="M55.5591164,223.1512299c-3.8897934,2.5366821-7.7782631,5.0753937-11.6715622,7.6067047
		c-0.3588791,0.2333069-0.6733208,0.5757599-1.1564865,0.5608063c1.0466957-3.6240997,0.1455116-7.244278-0.0377235-10.8651886
		c-0.0500603-0.9891968-0.1822624-1.9742737-0.2768288-2.9621429c-0.3827286-1.5513611,0.695488-2.1189117,1.7669449-2.8104095
		c13.0803375-8.4414368,26.1411705-16.9130859,39.2090721-25.373764c0.3321457-0.2150421,0.6871109-0.3948822,1.0314255-0.591156
		c0.0756454,0.0591125,0.1512833,0.1181946,0.2269211,0.1772766c-2.7240601,3.6104279-5.4481277,7.2208405-8.1721573,10.8312988
		c-0.0564423,0.0825043-0.1797256,0.2036438-0.1581192,0.240921c0.1078415,0.1862183,0.2392502,0.0642548,0.3591843-0.0121765
		c7.1395645-3.1836548,14.2797546-6.3658905,21.4182892-9.5518494c2.075882-0.9264832,4.1426468-1.8735657,6.2252197-2.7846527
		c0.2944717-0.1288605,0.5901108-0.4659576,1.0871048-0.1181793c-0.6773682,0.5338745-1.3239746,1.047287-1.9745102,1.5556488
		c-16.5232544,12.9123383-33.0468369,25.8242493-49.571373,38.7349243
		c-0.2198639,0.1717987-0.4527359,0.3269653-0.6795387,0.4898834c-0.0607758-0.0680084-0.1215553-0.1360474-0.1823425-0.2040558
		c0.9047356-1.575943,1.8094673-3.151886,2.7141991-4.727829c0.0603485-0.0755768,0.1881981-0.1848145,0.1700325-0.2211761
		C55.7760506,222.9044037,55.6671448,223.0869293,55.5591164,223.1512299z"></path>
	<path d="M164.0867157,285.246521c2.7012024-3.4034119,5.3897247-6.8169556,8.1064758-10.2078857
		c4.2398682-5.2919312,8.4976501-10.569519,12.7528839-15.8491211c0.2463074-0.3055725,0.5378723-0.5747375,0.8083344-0.8608093
		c0.3925171,4.7333069,0.720871,9.4732361,1.2039642,14.1973572c0.2513428,2.4578552,0.419632,4.9129639,0.4720001,7.3782349
		c0.0455627,2.1465759-0.3072357,2.627533-2.3999023,3.2226562c-2.3527222,0.6690979-4.7801056,0.9276428-7.2016449,1.1962585
		C173.2618408,284.829834,168.6841278,285.1872559,164.0867157,285.246521z"></path>
	<path d="M112.4776535,253.9248505c-9.0141068,8.7181854-18.0283737,17.436142-27.04216,26.1546478
		c-1.8362122,1.776062-3.6706161,3.5540161-5.5057373,5.3310547c-5.7720413-0.0140381-11.5447006-0.0028687-17.3100281-0.3583984
		c10.717659-6.7689819,21.4354935-13.5383911,32.153511-20.3075562c5.4957733-3.4708862,10.9913254-6.9421387,16.4890671-10.4099426
		c0.3346024-0.2110443,0.6878433-0.3926086,1.0324097-0.5878754
		C112.35569,253.8061218,112.4166641,253.865509,112.4776535,253.9248505z"></path>
	<path d="M45.835289,191.557373c9.5847015-3.9884491,19.1694031-7.9768982,28.7541046-11.9653168
		c0.0406189,0.0744781,0.0812378,0.1489868,0.1218567,0.2234802c-0.9318466,0.6587524-1.8605423,1.3220215-2.7960587,1.9755402
		c-8.6326447,6.0304413-17.26577,12.0601959-25.9025497,18.0847015c-0.3520851,0.245575-0.6535835,0.5975952-1.1294975,0.6257935
		c0.6759377-1.3491058,0.7618713-2.7519226,0.548893-4.2369232C45.205101,194.6823578,45.5785217,193.1170502,45.835289,191.557373z
		"></path>
	<path d="M128.7404327,57.6914711c-10.878685,9.7044792-21.7573624,19.4089622-32.6360474,29.1134453
		c0.0261993,0.0699234,0.0523987,0.1398544,0.0785904,0.2097702c5.9624023-2.8040237,11.9247894-5.6080551,18.0357056-8.481926
		c-0.1386337,0.9462891-0.6474686,1.4539108-1.203064,1.9471512C99.6225586,92.3694763,86.232338,104.2622452,72.8414688,116.154274
		c-1.4256668,1.2660828-2.8522797,2.5311127-4.4180908,3.9205246c0.4412231-3.2770081,0.8544617-6.3462448,1.2677002-9.4154739
		c-0.0598831-0.029068-0.1197662-0.0581284-0.1796417-0.0871964c-6.9867477,9.6203995-13.9734955,19.2407837-20.9602432,28.8611755
		c-0.0710678-0.0397186-0.1421318-0.0794373-0.2131958-0.1191559c4.9556847-11.9304352,9.911377-23.8608856,14.8864059-35.8378754
		c-0.4938507-0.1768036-0.8520126,0.1391602-1.2230301,0.2864761c-6.1571159,2.4444809-12.3185616,4.8787155-18.4521179,7.3811569
		c-1.0269356,0.4189911-1.2789459,0.2242889-1.3084297-0.8222885c-0.04245-1.5069351-0.9564972-3.1833954-0.3125763-4.4458313
		c0.6346931-1.2443466,2.2028847-2.0172882,3.37183-2.9845886c15.0882874-12.485527,30.1782913-24.9689865,45.2688599-37.4517441
		c0.3858948-0.3192062,0.7831573-0.6246643,1.3668823-0.7468643c-3.0116196,3.5789337-6.0232391,7.1578674-9.0347366,10.7368546
		c-0.0280457,0.0920944-0.0993195,0.2508469-0.0772247,0.2650986c0.1212997,0.0782928,0.1965027,0.0015717,0.228363-0.1245499
		c4.9797974-2.5220261,9.9620819-5.0391541,14.9384003-7.5680389c2.7039261-1.3740921,5.3951187-2.7732239,8.1000519-4.1453094
		c0.2621765-0.1329994,0.5094299-0.4332199,0.9993896-0.1661377c-4.4043121,4.0969086-8.7742462,8.1618423-13.1598511,12.2413483
		c0.5390015,0.357811,0.9234772-0.0839767,1.3243866-0.3024368c10.8295746-5.9007874,21.6542587-11.8105087,32.4816971-17.7151947
		c0.2764587-0.1507645,0.5746155-0.2618217,0.8626404-0.3913956
		C128.6467896,57.5784683,128.6939392,57.6346817,128.7404327,57.6914711z"></path>
	<path d="M123.7098389,99.4206543c4.0814209-1.9322205,8.1628265-3.8644409,12.2442474-5.7966614
		c0.0357208,0.0625305,0.0798035,0.1184769,0.1322784,0.1678314c-4.5627899,4.171051-9.1255569,8.3421097-13.6883392,12.5131607
		c-0.0755692-0.0429382-0.1511307-0.0858765-0.2266998-0.1288147c0.3469849-1.0457306,0.6939774-2.0914612,1.1439743-3.4476395
		c-3.7748718,2.2652283-7.3267517,4.3966522-10.8786316,6.5280762c-0.0434647-0.0482178-0.0891724-0.0942078-0.1371307-0.1379623
		c0.371994-1.16922,0.743988-2.3384399,1.1242142-3.5335236c-0.3652954-0.2405777-0.6423798,0.1234207-0.9268112,0.2558899
		c-2.7487488,1.2800522-5.4809189,2.5956421-8.2281265,3.8790436c-0.3408127,0.1592178-0.6396637,0.505249-1.0881042,0.3625183
		l0.0267868,0.0202713c1.559021-3.0006332,3.4806976-5.7847061,5.1973267-8.6912537
		c0.4360886-0.7383881,0.889122-1.4667816,1.5015335-2.4749603c-7.7107849,3.9539948-15.1423035,7.7647781-22.5738144,11.5755692
		c-0.0450592-0.0892868-0.0901184-0.1785736-0.1351776-0.2678604
		c18.1424332-14.7014771,36.2848663-29.4029617,54.4273148-44.1044464c0.0757294,0.0688629,0.1514587,0.1377258,0.2271881,0.2065887
		c-6.9436798,8.8083954-13.8873596,17.6167831-20.8310318,26.4251785c0.0949554,0.1008377,0.1899033,0.2016754,0.2848663,0.3025208
		c6.0044479-4.6849747,12.0089035-9.3699493,18.0133438-14.0549316c0.0559998,0.0610809,0.1119995,0.1221619,0.1679993,0.1832428
		c-2.8806915,3.6232147-5.7633362,7.2448578-8.6414337,10.8701248c-2.4308929,3.0619888-4.8565216,6.1281586-7.2844543,9.1924973
		c-0.0665054,0.0645599-0.1980591,0.1749878-0.1897278,0.1867905
		C123.4923096,99.6232071,123.6019974,99.5083313,123.7098389,99.4206543z M120.6990128,93.2844925
		c-0.1023712,0.0296249-0.2318192,0.0661011-0.1281891,0.19487c0.0296402,0.0368271,0.1893158-0.0308762,0.289299-0.0506821
		c0.0872955-0.0976791,0.270668-0.2041168,0.101326-0.3332291C120.7717667,92.9508362,120.7584763,93.177681,120.6990128,93.2844925
		z"></path>
	<path d="M36.9386826,54.6685753c2.4993362-2.7294006,4.9986763-5.4588051,7.4980087-8.1882057
		c-0.0650826-0.0991211-0.1301651-0.1982422-0.1952477-0.2973595c-3.9611816,2.1974678-7.9223671,4.3949394-11.8841171,6.5927238
		c-1.0950184-2.0452156-0.6199436-4.2964096-1.0953884-6.3901825c-0.2735367-1.2046127-0.3469372-2.4560089-0.6423416-3.6538506
		c-0.2592354-1.0511818,0.0179596-1.5563889,1.0557728-1.9538383c4.9938202-1.9124641,10.1555214-3.2408676,15.3157883-4.5924568
		C56.28545,33.75103,65.3390579,30.6714859,73.7337799,25.8998909c1.8716125-1.0638371,3.6920471-2.217823,5.532692-3.3358192
		c2.2022858-1.337656,1.7057877-1.3783855,3.5468674,0.6274319C67.5571747,33.757412,52.3180733,44.3115044,37.078968,54.865593
		C37.0322075,54.7999229,36.9854431,54.7342491,36.9386826,54.6685753z"></path>
	<path d="M170.5242462,106.8433075c-3.6835175,2.4100266-7.3670349,4.8200378-11.0505524,7.2300568
		c-0.0441589-0.0613937-0.0926514-0.1191711-0.145462-0.1733322c3.413208-3.2476273,6.8161316-6.5061417,10.2418365-9.7405243
		c6.5112-6.1475372,13.0334778-12.283371,19.5605011-18.414093c0.2976227-0.2795715,0.5145569-0.6732864,1.0763702-0.6312103
		c1.5340424,0.1148682,1.6679688,0.380722,1.0023041,1.7798386c-1.8309479,3.8482513-2.8352661,7.9614182-3.7552185,12.0944595
		c-0.4329376,1.9449997-0.8249054,3.9006577-1.1664124,5.8634872c-0.1017456,0.5849609-0.3703766,0.9179459-0.845108,1.1978378
		c-9.7320404,5.7375793-19.4602966,11.4816132-29.1889343,17.224968c-0.2744904,0.1620483-0.53862,0.3589249-0.8724518,0.2083969
		c5.1163788-5.4693985,10.2347565-10.9409561,15.3529358-16.4126892c0.0263062-0.0885391,0.0528259-0.1768951,0.079361-0.2652588
		C170.7170105,106.8179321,170.6206207,106.8306198,170.5242462,106.8433075z"></path>
	<path d="M174.7104034,76.0279312c4.5813446-5.4323425,9.1608887-10.8661957,13.744873-16.2963219
		c2.0616455-2.4422073,4.1308289-4.8780746,6.2001953-7.313736c0.2540283-0.2989769,0.5305786-0.5788155,0.8080444-0.8798332
		c0.4401703,0.4859695,0.4087677,0.9332008,0.2096405,1.4640808c-0.4393921,1.1715546-0.5379028,2.4023819-0.5504608,3.6513214
		c-0.0236664,2.349102-0.1127167,4.6974907-0.144989,7.0465813c-0.0125885,0.9182472-0.2895813,1.4946861-1.1958008,1.9889107
		c-6.3408661,3.4580002-12.6335754,7.004158-18.9417267,10.5220871
		C174.8058624,76.1436539,174.7626038,76.0826263,174.7104034,76.0279312z"></path>
	<path d="M179.0250702,121.3555145c1.8449249-2.0107803,3.6898499-4.0215607,5.8002625-6.3217087
		c-0.0856476,1.300148-0.1434174,2.2555618-0.2140045,3.2100143c-0.0281982,0.3816833-0.3593445,0.4985733-0.6337433,0.6455612
		c-1.6066132,0.8605957-3.2168884,1.7143555-4.8259277,2.5704269
		C179.1087341,121.4259262,179.0665283,121.3911514,179.0250702,121.3555145z"></path>
	<path d="M143.7024384,186.3142395c0.1746826-0.214325,0.4698486-0.5414734,0.6449432-0.3439331
		c0.2539215,0.2865448-0.207962,0.3886414-0.3786926,0.5595703
		C143.8799591,186.4579926,143.7911987,186.3861237,143.7024384,186.3142395z"></path>
	<path d="M100.8152542,250.1906433c-0.1432037,0.2129822-0.2552338,0.476532-0.90345,0.296936
		c0.3526688-0.227066,0.5635452-0.3628387,0.774437-0.4986115
		C100.7292557,250.0562286,100.7722549,250.1234589,100.8152542,250.1906433z"></path>
	<path d="M179.1516571,121.4598083c-0.078537,0.1483765-0.2546844,0.2691727-0.3461914,0.148735
		c-0.1186829-0.1561966,0.047699-0.2475586,0.2196045-0.2530365
		C179.0665283,121.3911514,179.1087341,121.4259262,179.1516571,121.4598083z"></path>
	<path d="M75.1031952,179.401474c0.0314178-0.0204468,0.0628433-0.0409088,0.0942612-0.0613708
		c-0.0044861,0.0038452-0.0084457,0.009903-0.0135574,0.0111542c-0.0367584,0.0088196-0.0737534,0.0166931-0.110672,0.0248871
		L75.1031952,179.401474z"></path>
	<path d="M129.1594238,57.353611c-0.139679,0.112606-0.2793579,0.2252121-0.4190216,0.3378372
		c-0.046463-0.0567665-0.0936127-0.1129799-0.1414642-0.1686211c0.1624298-0.1889191,0.3066406-0.4489403,0.5935211-0.1517982
		L129.1594238,57.353611z"></path>
	<path d="M53.1849823,228.2791748c-0.1355019,0.0878296-0.2264748,0.4038391-0.4167976,0.1959991
		c-0.1346588-0.14711,0.0758514-0.307312,0.2344513-0.4000549
		C53.0634232,228.1431274,53.1242027,228.2111664,53.1849823,228.2791748z"></path>
	<path d="M98.1079025,233.0915833c0.1511459-0.1725922,0.2729568-0.4429016,0.5585938-0.1674957
		l-0.0288239-0.0196838c-0.124054,0.1225739-0.2481155,0.2451324-0.3721466,0.3677368
		C98.2135391,233.2115021,98.1609879,233.1513062,98.1079025,233.0915833z"></path>
	<path d="M159.4736938,114.0733566c-0.185257,0.07164-0.3762207,0.2370758-0.5407104-0.0328598
		c0.1317596-0.046814,0.263504-0.0936356,0.3952484-0.1404648
		C159.3810425,113.9541931,159.4295349,114.0119705,159.4736938,114.0733566z"></path>
	<path d="M112.2947159,253.7467804c0.1348114-0.1780243,0.2402649-0.4356384,0.52948-0.1951294l-0.0276108-0.0199432
		c0.0143585,0.2288513-0.2019806,0.2707214-0.3189468,0.3931427
		C112.4166641,253.865509,112.35569,253.8061218,112.2947159,253.7467804z"></path>
	<path d="M139.9514771,78.7199936c-0.0076904-0.0580444-0.0153961-0.1160965-0.0231018-0.1741409
		c0.0456543,0.0036392,0.0913086,0.0072708,0.1369781,0.0109024c-0.0444946,0.0456314-0.0889893,0.0912628-0.1341705,0.13591
		C139.9304962,78.6917038,139.9514771,78.7199936,139.9514771,78.7199936z"></path>
	<path d="M75.0732269,179.3761444c0.0000458,0.0641327,0.0000992,0.1282654,0.0001526,0.1924133
		c-0.0493698-0.0160675-0.0987396-0.0321198-0.1481094-0.0481873c0.0598907-0.0391541,0.1197891-0.0782776,0.1788101-0.1181641
		C75.1031952,179.401474,75.0732269,179.3761444,75.0732269,179.3761444z"></path>
	<path d="M103.1807098,110.0825729c-0.0095444,0.0542603-0.0190887,0.1085281-0.0286407,0.1627884
		c-0.0329208-0.0120163-0.0658493-0.0240326-0.0987701-0.0360336c0.0514755-0.0354385,0.102951-0.0708771,0.1543045-0.1063995
		C103.2074966,110.1028442,103.1807098,110.0825729,103.1807098,110.0825729z"></path>
	<path d="M112.4366684,109.2565994c-0.0978851,0.0792007-0.1984634,0.1231461-0.2858734-0.0055008
		c-0.0048828-0.0071793,0.0967178-0.0866318,0.1487427-0.1324463
		C112.347496,109.1623993,112.3932037,109.2083893,112.4366684,109.2565994z"></path>
	<path d="M84.7063522,188.5185852c0.0680084-0.0572052,0.1758347-0.1761475,0.1978149-0.1619873
		c0.2003632,0.1290588-0.003479,0.2082825-0.0536041,0.30867C84.8048019,188.6140289,84.7567444,188.5651703,84.7063522,188.5185852
		z"></path>
	<path d="M84.4239578,188.7160797c0.0941315-0.0658264,0.1882629-0.1316681,0.2823868-0.1974945
		c0.0503998,0.0465851,0.0984573,0.0954437,0.1442184,0.1466827c-0.0665359,0.0760956-0.1331329,0.1520844-0.1996994,0.2280884
		C84.5752411,188.8342743,84.4996033,188.7751923,84.4239578,188.7160797z"></path>
	<path d="M37.078968,54.8656006c-0.0832405,0.0591125-0.1664772,0.1182327-0.2500687,0.1767769
		c-0.0372429-0.0415154-0.0754471-0.0811958-0.1149635-0.1196098c0.074913-0.0847321,0.1498299-0.1694641,0.2247467-0.2541962
		C36.9854431,54.7342491,37.0322075,54.7999229,37.078968,54.8656006z"></path>
	<path d="M98.6664963,232.9240875c-0.008255-0.0609741-0.0165024-0.1219482-0.0247574-0.1829224
		c0.0535736,0.0134735,0.107132,0.026947,0.1606979,0.0404205c-0.054924,0.0409393-0.109848,0.0818939-0.1647644,0.122818
		L98.6664963,232.9240875z"></path>
	<path d="M135.9540863,93.6239929c0.1029053-0.01371,0.2791595-0.0663681,0.2961273-0.0344391
		c0.0767975,0.1444397-0.0548553,0.1749496-0.1638489,0.2022705
		C136.0338898,93.7424698,135.9898071,93.6865234,135.9540863,93.6239929z"></path>
	<path d="M139.319046,79.0192566c0.0868225-0.0666656,0.1736603-0.1333237,0.260498-0.1999969
		c0.0410614,0.0391693,0.0820923,0.0783615,0.1230927,0.1175766c-0.0718689,0.0885468-0.1437225,0.1771011-0.2155914,0.2656555
		C139.4310455,79.1414108,139.3750458,79.0803299,139.319046,79.0192566z"></path>
	<path d="M36.4086189,55.111496c0.1017761-0.0629082,0.2035446-0.1258202,0.3053169-0.1887283
		c0.0395164,0.038414,0.0777206,0.0780945,0.1149635,0.119606c-0.1340485,0.1443062-0.2775116,0.2093887-0.4465981,0.0519981
		L36.4086189,55.111496z"></path>
	<path d="M101.3270416,249.7434845c-0.0856552,0.0746613-0.1713104,0.149292-0.2569504,0.2239685
		c-0.0699005-0.0497589-0.1397934-0.099472-0.2097015-0.1491852c0.081131-0.0816956,0.1622696-0.1633606,0.2433777-0.2450256
		C101.1781693,249.6299591,101.2526016,249.6867371,101.3270416,249.7434845z"></path>
	<path d="M129.1924591,57.3710289c-0.0292816-0.0533791-0.0585632-0.1067543-0.0878448-0.1601372
		c0.0544586-0.0133362,0.108902-0.0266762,0.1633759-0.0400124c-0.0375366,0.0601616-0.075058,0.1203232-0.1105804,0.1816101
		C129.1594238,57.353611,129.1924591,57.3710289,129.1924591,57.3710289z"></path>
	<path d="M112.8241959,253.551651c-0.0912857-0.0994873-0.0726013-0.1796875,0.0496292-0.227951
		c0.02742-0.0108337,0.0702286,0.0172882,0.1059418,0.0274658c-0.0610657,0.0601807-0.1221313,0.1203766-0.1831894,0.180542
		C112.7965851,253.5317078,112.8241959,253.551651,112.8241959,253.551651z"></path>
	<path d="M174.8401794,76.2110214c-0.1069489,0.0422668-0.2199097,0.2150955-0.3132629,0.0038986
		c-0.0130768-0.0295486,0.1187286-0.1230698,0.1834869-0.1869888
		C174.7626038,76.0826263,174.8058624,76.1436539,174.8401794,76.2110214z"></path>
	<path d="M139.5795441,78.8192596c0.0976562-0.1285095,0.1918945-0.2695999,0.3713074-0.1002121
		c0.0006256,0.000946-0.0203552-0.0273438-0.0196686-0.0263824c-0.0095062,0.1443863-0.076828,0.2340012-0.2285461,0.2441788
		C139.6616364,78.8976212,139.6206055,78.858429,139.5795441,78.8192596z"></path>
	<path d="M36.3823013,55.0943718c0.0260353,0.0573807,0.0520744,0.1147614,0.0781097,0.172142
		c-0.0294189,0.0120621-0.0588417,0.024128-0.0882607,0.0361977c0.0145111-0.0622063,0.0290222-0.1244087,0.0400009-0.1889153
		C36.4086189,55.111496,36.3823013,55.0943718,36.3823013,55.0943718z"></path>
	<path d="M101.0700912,249.967453c-0.0849533,0.0744019-0.1698914,0.1487885-0.254837,0.2231903
		c-0.0429993-0.0671844-0.0859985-0.1344147-0.1289978-0.2016449c0.0580597-0.0569153,0.1161194-0.1138153,0.1741562-0.1707306
		C100.9302979,249.867981,101.0001907,249.9176941,101.0700912,249.967453z"></path>
</g>
<g class="" id="gola-primaria" fill="#000000">
	<path d="M109.3256989,35.9207878c-0.1734467,0.532753-0.5917358,0.2743607-0.9039154,0.2516022
		c-4.1043777-0.299221-7.9513092-1.505722-11.6402817-3.2895241c-5.3551407-2.5894814-10.2299652-5.8816833-14.3707428-10.1524506
		c-2.6511154-2.734333-4.9007111-5.7867432-5.7837296-9.6242762c-0.2346497-1.0197554-0.4030762-2.0421906-0.2305679-3.0806484
		c0.1655655-0.9966812,0.9428787-1.529851,1.6987534-2.062746c0.5144196-0.0249214,0.9029312-0.3084855,1.2525024-0.6408176
		c0.9263763-0.8806958,2.0002518-1.6613083,2.7274628-2.6858997c2.0422745-2.8774152,5.0195923-3.6035271,8.2394028-3.9384618
		c3.0734558-0.3197089,6.1407471,0.0640202,9.2119827,0.0276009c4.3973541-0.0521445,8.7971802,0.0443054,13.1931534-0.0513445
		c7.9102249-0.1721148,15.8182297,0.0474188,23.7272263,0.0364116c0.9124146-0.0012698,1.828537,0.1745476,2.7369537,0.3088157
		c2.2481232,0.332287,4.1498718,1.1915944,5.5701294,3.1200867c1.2012482,1.6310925,2.6129456,3.1247711,4.4388733,4.1271977
		c1.6919098,0.471426,2.2952423,2.5105724,1.6758423,4.7444515c-1.1704712,4.2214594-3.5445099,7.6803961-6.6416321,10.6471872
		c-2.7457275,2.6302032-5.8013458,4.901825-9.102417,6.8089809c-4.071167,2.3520851-8.2753143,4.4175797-12.9284058,5.3568268
		c-1.3970261,0.2819977-2.8357391,0.3577576-4.2551346,0.5281792c0.4981461-1.1476097,1.3241043-2.0655403,2.1212006-3.0007629
		c2.248703-2.6383533,4.9448242-4.810585,7.4805527-7.1498508c2.1459198-1.6623192,4.2819519-3.3376217,6.4404449-4.9834862
		c2.392868-1.8246021,4.6131897-3.8312626,6.5503387-6.1364632c1.4909363-1.7742386,2.8118439-3.6581097,3.6611938-5.995595
		c-2.0445251,0.171031-3.9476471,0.3502245-5.8538818,0.4858923c-5.379715,0.3828764-10.7599335,0.7590179-16.1413574,1.1168613
		c-5.5895386,0.3716831-11.1788483,0.4153547-16.7722092,0.018959c-7.1327515-0.5054932-14.2606812-1.060936-21.3717041-1.816123
		c-0.7256699-0.0770664-0.9725952,0.1089544-0.6669769,0.8316221c0.5152588,1.2184,1.126152,2.3757305,1.9132462,3.447176
		c3.9235306,5.3410435,9.441452,8.9155712,14.446228,13.0588207
		C103.1151276,29.2874451,106.6069336,32.222599,109.3256989,35.9207878z"></path>
</g>
<g class="" id="detalhe-lateral" fill="#000000">
	<path d="M180.3169098,283.9697266c-0.3938751-5.0127869-0.5727386-10.0362244-0.8100586-15.0577393
		c-0.282486-5.9776611-0.5378265-11.9543762-0.7411346-17.9355164c-0.1653748-4.8657379-0.3150482-9.7320404-0.4851532-14.597168
		c-0.2554474-7.3048248-0.3230438-14.611908-0.5149689-21.9160767c-0.4473877-17.026535-0.1677856-34.0520782-0.1540527-51.0777435
		c0.0038757-4.8250732,0.1699829-9.658493,0.4935303-14.4725189c0.3222656-4.7945404,0.6694794-9.5894623,1.1401062-14.3773499
		c0.9476013-9.6400223,2.522995-19.1615753,4.9313965-28.5371094c1.2419739-4.834877,2.7194824-9.608345,4.7613068-14.1821518
		c0.1013336-0.2270203,0.0921478-0.5706024,0.4303741-0.6598129l-0.0207214-0.0194473
		c0.2196045,0.4597931-0.0706329,0.8524323-0.1864014,1.2576218c-1.8860931,6.6003571-3.1680298,13.3224106-4.0814209,20.1194611
		c-0.4264069,2.5465698-0.4257202,5.1188202-0.4629211,7.688797c-1.2378235,10.3072052-2.2989655,20.6278992-1.9510498,31.0315857
		c0.0821381,2.4562225,0.7914734,4.8716583,0.4144745,7.3699951c-0.3516235,2.3302765-0.4445953,4.684967-0.4245453,7.0450745
		c0.0559845,6.582428,0.098587,13.1757202-0.1155396,19.7438812c-0.1456757,4.4695435,0.7072906,8.6924438,1.4236298,12.9963837
		c0.8506927,5.1109314,0.9480896,10.2349701,0.2398224,15.3761444c-0.3209076,2.3293762-0.54039,4.6726532-0.8144379,7.008606
		c-0.0490723,0.4181976,0.1008759,0.7893066,0.2301788,1.1618195c1.989563,5.7316895,2.4832916,11.6064911,1.5848999,17.5875092
		c-0.3058167,2.0359802-0.3425293,4.0207977,0.0992279,6.0381927c0.4457397,2.035675,0.5504761,4.1139832,0.5100098,6.1976929
		c-0.1430817,7.3665771,0.683609,14.670929,1.384079,21.9852905c0.2195892,2.2928162,0.3340759,4.5978088,0.3145142,6.9078064
		c-0.0094452,1.1127625-0.4973297,1.8139954-1.5031281,2.1914368
		C184.1745911,283.5326233,182.2864838,283.9595947,180.3169098,283.9697266z"></path>
	<path d="M42.4525146,112.7778625c0.0891304-1.9299164-0.3513565-3.8075333-0.5991211-5.7007065
		c-0.3732796-2.8522339-0.8833809-5.6866074-1.2544365-8.5390854c-0.0882454-0.6783676-0.8202057-1.239563-0.2923431-2.1296234
		c0.9014931,1.8765564,1.3568306,3.8127823,1.9383469,5.6982117c1.892025,6.1343842,3.1134682,12.4154968,4.1846809,18.7393494
		c0.7700386,4.5458832,1.3809853,9.100647,1.8283081,13.6878357c0.4091072,4.1953125,0.7145462,8.3927002,0.9685097,12.6003418
		c1.2914009,21.395874,0.6496124,42.8105927,0.6577225,64.2175446c0.0015144,3.9883881-0.0966606,7.98703-0.1893997,11.9799347
		c-0.1455345,6.2663422-0.2806168,12.5340118-0.535202,18.7964172c-0.1799202,4.4257202-0.3308334,8.8512878-0.473175,13.2781372
		c-0.1807213,5.6206055-0.3782196,11.2443237-0.7604179,16.8535767c-0.2574959,3.7790527-0.196804,7.579834-0.7390556,11.3394775
		c-1.7242279-0.0837708-3.3719635-0.5368042-4.9835625-1.1030884c-1.6184654-0.5686951-2.0121346-1.1141663-1.9840698-2.8423157
		c0.0452156-2.7842407,0.1874161-5.5641479,0.4140472-8.3428955c0.431675-5.2928772,0.7171974-10.5978699,1.1692505-15.8888245
		c0.4074936-4.7694855-0.0650482-9.592804,0.9218788-14.3255157c0.1883888-0.9033813,0.0964546-1.8375397-0.042675-2.744751
		c-0.4781952-3.1182098-0.3503647-6.2133179,0.3311234-9.2835846c0.1949081-0.8781128,0.1388702-1.7289124,0.0771484-2.6109161
		c-0.2841988-4.0611115-0.8382988-8.1011047-0.8580627-12.1838684c-0.0239258-4.942688,1.0864563-9.6556549,2.7438126-14.2636871
		c0.3171997-0.881958,0.5332336-1.7270813,0.4237556-2.675354c-0.1839256-1.5931854-0.141243-3.1873627,0.1506195-4.7743683
		c0.1077003-0.5856476,0.1623573-1.1927948,0.1462173-1.7875824c-0.1308823-4.8229065-0.2779045-9.645401-0.4356956-14.4675293
		c-0.0367355-1.1227112,0.0765038-2.2321014,0.1623611-3.3472748c0.144268-1.8738251,0.1034241-3.7475739-0.048111-5.6235199
		c-0.4092598-5.0663605-0.1779556-10.145752-0.0681305-15.2097778c0.196312-9.0511017-0.2082138-18.0476379-1.5041733-27.0064316
		c-0.2226868-1.5393982-0.3748512-3.0890045-0.5595245-4.6338654c0.5152626-1.2158585-0.2161751-2.3334808-0.3642349-3.4790726
		C42.6969795,115.5973511,42.9329262,114.1476212,42.4525146,112.7778625z"></path>
</g>
<g class="" id="detalhe-punho" fill="#000000">
	<path d="M0.24,114.41436c0.5066518-1.0333099,0.4623487-2.1853943,0.7029477-3.2761536
		c0.1164828-0.5280762,0.0638708-1.1035385,0.4705237-1.5418396c4.7471166,1.9192047,9.661128,3.2643356,14.739399,3.8523865
		c5.6213551,0.6509323,11.2752342,0.8683701,16.9397697,0.6843262c2.350296-0.076355,4.6895752-0.1641083,7.0189934-0.5657349
		c0.8487549-0.1463318,1.4449158-0.8912582,2.3408813-0.7894821c0.4804115,1.3697586,0.2444649,2.8194885,0.4263916,4.2271881
		c0.1480598,1.1455917,0.8794975,2.2632141,0.3643112,3.4790955c-2.841095,1.3330917-5.9081955,1.7382584-8.9673958,1.7949448
		c-7.0645809,0.130928-14.1399384,0.3043518-21.1575737-0.9066238c-3.6142483-0.6236801-7.2130728-1.2875977-10.7040243-2.4304047
		c-0.7462479-0.2443008-1.4505816-0.6164856-2.1742241-0.9297638C0.24,116.8129883,0.24,115.613678,0.24,114.41436z"></path>
	<path d="M184.6167908,120.2029724c0.0372009-2.5699768,0.0365143-5.1422272,0.4629211-7.688797
		c0.9396362,0.5695877,1.9786682,0.9036407,3.0544434,0.9562988c5.6075439,0.2745056,11.228775,0.5989304,16.8232422-0.0108337
		c3.9904938-0.4349365,7.9450073-1.161026,11.8859558-1.9935684c3.0928345-0.6533813,6.000824-1.8692627,9.0736084-2.5406494
		c0.6487732-0.1417542,1.2501068-0.5003433,1.873291-0.7590942c1.0290527,2.4653549,1.3149261,5.0500107,1.1316986,7.6846695
		c-0.0435181,0.6258698-0.7669983,0.7556763-1.2712555,0.942894c-3.2154999,1.1938553-6.5277557,2.0655441-9.8517761,2.8920898
		c-8.3978119,2.0882339-16.9433594,2.4642563-25.539505,2.1048508c-1.8251953-0.0763016-3.6426392-0.4177322-5.4543915-0.6971664
		C186.0230713,120.9730606,185.2617188,120.7066879,184.6167908,120.2029724z"></path>
</g>
<g class="" id="gola-secundaria" fill="#ffffff">
	<path d="M127.5429077,26.2013435c-2.5357285,2.3392677-5.2318497,4.5114994-7.4805527,7.1498528
		c-0.7970963,0.9352226-1.6230545,1.8531532-2.1212006,3.0007591c-2.3132095,0.5602531-4.6457596,0.380825-6.9806519,0.1973152
		c-0.6160583-0.0484238-1.1409073-0.2847061-1.6344376-0.6280861c-2.7191315-3.6985855-6.2109375-6.6337395-9.5777512-9.6924343
		c2.8338776-0.0287647,5.6676941-0.0822201,8.5014725-0.080719
		C114.6808319,26.1514378,121.1118698,26.1818867,127.5429077,26.2013435z"></path>
</g>
<path d="M189.3682404,91.1565399c0.0375671-0.1338425,0.0751343-0.2676697,0.1127014-0.4015045
	c0.0261383,0.028389,0.072525,0.0551529,0.0749512,0.0854416c0.012146,0.1519699,0.0203705,0.3102493-0.208313,0.2966614
	C189.3475342,91.1370926,189.3682556,91.1565399,189.3682404,91.1565399z"></path>
</svg>
