<!--?xml version="1.0" encoding="utf-8"?-->
<!-- Generator: Adobe Illustrator 24.2.3, SVG Export Plug-In . SVG Version: 6.00 Build 0)  -->
<svg version="1.1" id="Camada_1" xmlns="http://www.w3.org/2000/svg" xmlns:xlink="http://www.w3.org/1999/xlink" x="0px" y="0px" viewBox="0 0 229 418" enable-background="new 0 0 229 418" xml:space="preserve">
<g onclick="select(this)" class="" id="gola-primaria" fill="#000000">
	<path d="M77.98,7.95c0.56-0.04,0.97-0.36,1.34-0.72c0.95-0.91,2.04-1.72,2.8-2.77c1.81-2.48,4.35-3.35,7.21-3.74
		c0.63-0.09,1.36,0.1,1.87-0.48c1.2,0,2.4,0,3.6,0c0.17,0.49,0.6,0.31,0.91,0.31c5.58,0.02,11.16,0.02,16.73,0.03
		c0.41,0,0.77-0.05,1.07-0.35c7.52,0,15.04,0,22.56,0c0.05,0.42,0.41,0.31,0.65,0.35c0.91,0.14,1.82,0.25,2.73,0.38
		c2.18,0.3,4,1.14,5.39,2.98c1.24,1.65,2.66,3.19,4.5,4.24c1.29,0.58,1.96,1.51,1.87,3c-0.24,3.73-2.08,6.73-4.27,9.58
		c-0.35,0.45-0.6,0.17-0.88-0.04c-1.84-1.41-3.68-2.83-5.53-4.22c-0.49-0.37-0.54-0.62-0.11-1.11c1.39-1.56,2.59-3.25,3.49-5.15
		c0.57-1.2,0.53-1.27-0.78-1.17c-4.86,0.36-9.72,0.74-14.59,1.1c-8.62,0.64-17.23,0.98-25.87,0.23c-6.17-0.54-12.35-0.96-18.52-1.59
		c-1.02-0.1-1.18,0.15-0.79,1.06c0.91,2.13,2.26,3.95,3.82,5.63c0.44,0.47,0.44,0.72-0.07,1.12c-1.76,1.38-3.51,2.78-5.22,4.23
		c-0.57,0.48-0.87,0.38-1.32-0.17c-1.91-2.37-3.32-4.98-4.11-7.93C75.85,10.48,76.26,9.2,77.98,7.95z"></path>
</g>
<g onclick="select(this)" class="" id="estampa-secundaria" fill="#000000">
	<path d="M45.62,185.04c-0.1-1.6,1.17-2.2,2.18-2.98c48.58-37.63,97.17-75.25,145.76-112.88
		c0.34-0.27,0.7-0.52,1.17-0.87c0.31,1.61,0,3.1-0.05,4.57c-0.2,5.31-1.7,10.27-3.93,15.08c-1.77,3.82-2.69,7.93-3.52,12.05
		c-0.72,3.56-1.33,7.13-1.94,10.71c-0.11,0.64-0.52,0.95-0.96,1.29c-13.34,10.33-26.68,20.66-40.02,30.99
		c-33.22,25.73-66.45,51.46-99.68,77.17c-0.57,0.44-1,1.17-1.88,1.1c-0.62-5.35-0.66-10.67,0.73-15.92
		c0.37-1.39,0.65-2.82,1.21-4.12c0.73-1.71,1.03-3.4,0.72-5.22c-0.07-0.39-0.07-0.81,0-1.19c0.46-2.57,0.46-5.15,0.16-7.74
		C45.49,186.4,45.6,185.72,45.62,185.04z"></path>
	<path d="M43.39,227.09c3.28-2.28,6.36-4.83,9.51-7.28c29-22.54,57.99-45.09,86.99-67.64
		c14.51-11.29,29.03-22.57,43.55-33.85c0.34-0.27,0.63-0.62,1.09-0.71c0.02,0.87,0.03,1.73,0.05,2.6c-0.47,0.7-0.25,1.52-0.34,2.28
		c-1,8.47-1.72,16.97-1.79,25.51c-0.02,2.12,0.14,4.22,0.43,6.31c-0.36,0.26-0.72,0.5-1.07,0.77c-8.14,6.33-16.27,12.67-24.41,19
		c-37.01,28.78-74.02,57.56-111.04,86.33c-1.67,1.3-3.25,2.71-5.07,3.81c0.27-3.98,0.67-7.95,0.78-11.93
		c0.11-3.95,0.19-7.89,0.84-11.79c0.05-0.31,0.03-0.64-0.02-0.95c-0.6-3.7-0.51-7.39,0.34-11.04c0.26-0.32,0.23-0.66,0.03-1
		C43.31,227.36,43.35,227.22,43.39,227.09z"></path>
	<path d="M68.14,285.35c-7.95-0.11-15.88-0.51-23.69-2.15c-4-0.84-4.19-1.09-4.09-5.15c0.06-2.42,0.1-4.85,0.5-7.26
		c10.86-8.43,21.73-16.86,32.59-25.29c32.44-25.18,64.87-50.36,97.31-75.53c3.73-2.89,7.46-5.78,11.18-8.68
		c0.37-0.29,0.71-0.6,0.74,0.22c0.13,6.91-0.61,13.82-0.07,20.73c0.11,1.48-0.02,2.95-0.15,4.43c-0.25,2.77-0.05,5.51,0.72,8.19
		c0.11,0.39,0.22,0.77,0.14,1.18c-0.3,0.19-0.61,0.37-0.89,0.58c-25.73,19.97-51.46,39.93-77.18,59.9
		C92.87,266.13,80.51,275.74,68.14,285.35z"></path>
	<path d="M184.28,201.62c0.72,6.05-0.15,12.03-0.83,18.02c-0.11,1-0.12,1.96,0.2,2.94c1.33,4.1,1.98,8.3,1.84,12.61
		c-0.19,0.24-0.18,0.51-0.09,0.78c-0.05,0.11-0.09,0.21-0.14,0.32c-0.49,0.11-0.81,0.5-1.18,0.79
		c-13.97,10.83-27.93,21.67-41.88,32.52c-7.16,5.57-14.32,11.15-21.47,16.73c-3.14,0.32-6.3,0.3-9.45,0.13
		c-11.72-0.64-23.45-0.79-35.18-0.89c0.03-0.54,0.51-0.68,0.84-0.93c10.79-8.39,21.58-16.77,32.37-25.16
		c24.59-19.09,49.17-38.19,73.77-57.27C183.41,201.94,183.68,201.42,184.28,201.62z"></path>
</g>
<g onclick="select(this)" class="" id="detalhe-punho" fill="#000000">
	<path d="M0.24,115.44c0.64-1.27,0.31-2.7,0.72-4.01c0.18-0.56,0.28-1.14,0.41-1.72c1.21,0.97,2.71,1.29,4.12,1.84
		c3.52,1.38,7.21,2.03,10.91,2.46c3.24,0.37,6.52,0.4,9.79,0.52c2.63,0.09,5.28,0.33,7.88,0.07c2.79-0.28,5.66-0.34,8.26-1.7
		c0.58,2.57,0.63,5.08,0.75,7.57c-1.09,0.74-2.35,0.98-3.61,1.19c-6.91,1.15-13.86,0.94-20.8,0.37c-5.42-0.45-10.78-1.33-15.99-2.99
		c-0.88-0.28-1.75-0.58-2.45-1.2C0.24,117.04,0.24,116.24,0.24,115.44z"></path>
	<path d="M184.57,120.21c-0.02-0.87-0.03-1.73-0.05-2.6c0.18-1.26,0.36-2.52,0.54-3.79c0.09-0.64,0.34-0.83,1.05-0.67
		c4.25,0.94,8.57,0.69,12.88,0.68c3.03,0,6.05-0.18,9.05-0.72c3.22-0.57,6.46-0.97,9.65-1.68c3.48-0.77,6.83-1.91,10.13-3.22
		c0.85,2.35,1.17,4.77,1.16,7.26c0,0.94-0.68,1.11-1.28,1.34c-2.61,1.01-5.3,1.73-8,2.43c-10.33,2.69-20.81,3.39-31.42,2.15
		C186.98,121.24,185.67,121.04,184.57,120.21z"></path>
</g>
<g onclick="select(this)" class="" id="estampa-primaria" fill="#bf0811">
	<path d="M43.09,120.47c-0.12-2.5-0.17-5-0.75-7.57c-2.6,1.36-5.48,1.42-8.26,1.7c-2.6,0.26-5.26,0.03-7.88-0.07
		c-3.27-0.12-6.55-0.15-9.79-0.52c-3.71-0.43-7.4-1.07-10.91-2.46c-1.41-0.55-2.9-0.87-4.12-1.84c1.95-10.07,2.94-20.29,4.52-30.43
		c0.87-5.56,1.36-11.17,2.73-16.64c1.91-7.6,4.89-14.69,9.84-20.86c1.88-2.34,3.97-4.5,6.33-6.36c1.38-1.08,2.46-2.49,3.96-3.44
		c0.86-0.54,1.8-0.81,2.68-1.27c7.93-4.16,16.44-7.03,24.55-10.76c5.37-2.47,10.67-5.08,15.78-8.06c0.9-0.52,1.7-1.15,2.39-1.95
		c0.99-1.14,2.2-1.96,3.8-1.99c-1.72,1.25-2.13,2.53-1.51,4.82c0.79,2.94,2.2,5.56,4.11,7.93c0.44,0.55,0.74,0.65,1.32,0.17
		c1.71-1.44,3.46-2.85,5.22-4.23c0.51-0.4,0.51-0.65,0.07-1.12c-1.55-1.68-2.9-3.5-3.82-5.63c-0.39-0.91-0.23-1.17,0.79-1.06
		c6.16,0.63,12.35,1.05,18.52,1.59c8.64,0.76,17.25,0.41,25.87-0.23c4.86-0.36,9.72-0.74,14.59-1.1c1.31-0.1,1.35-0.03,0.78,1.17
		c-0.9,1.89-2.1,3.59-3.49,5.15c-0.44,0.49-0.38,0.74,0.11,1.11c1.86,1.39,3.69,2.81,5.53,4.22c0.28,0.22,0.53,0.5,0.88,0.04
		c2.19-2.85,4.03-5.85,4.27-9.58c0.1-1.49-0.57-2.42-1.87-3c1.79-0.1,2.98,0.96,4.06,2.17c0.37,0.42,0.74,0.79,1.21,1.11
		c8.13,5.43,17.21,8.94,26.15,12.7c5.85,2.46,11.66,5,17.46,7.57c1.1,0.48,1.78,1.45,2.7,2.14c4.55,3.4,8.57,7.31,11.64,12.13
		c3.95,6.18,6.25,12.99,7.78,20.12c1.04,4.89,1.16,9.93,2.41,14.77c2.22,8.56,3.44,17.3,4.93,26c0.07,0.43,0.09,0.87,0.13,1.31
		c-3.3,1.32-6.65,2.45-10.13,3.22c-3.19,0.71-6.44,1.11-9.65,1.68c-3,0.53-6.02,0.71-9.05,0.72c-4.3,0-8.63,0.26-12.88-0.68
		c-0.71-0.16-0.96,0.03-1.05,0.67c-0.18,1.26-0.36,2.52-0.54,3.79c-0.46,0.09-0.75,0.45-1.09,0.71
		c-14.52,11.28-29.03,22.57-43.55,33.85c-29,22.55-57.99,45.1-86.99,67.64c-3.15,2.45-6.23,5-9.51,7.28
		c-0.6-1.9-0.41-3.88-0.64-5.81c0.88,0.07,1.31-0.67,1.88-1.1c33.23-25.71,66.46-51.44,99.68-77.17
		c13.34-10.33,26.68-20.66,40.02-30.99c0.44-0.34,0.85-0.65,0.96-1.29c0.62-3.57,1.22-7.15,1.94-10.71
		c0.83-4.11,1.75-8.23,3.52-12.05c2.23-4.81,3.73-9.77,3.93-15.08c0.05-1.47,0.37-2.96,0.05-4.57c-0.47,0.35-0.83,0.6-1.17,0.87
		c-48.59,37.62-97.17,75.25-145.76,112.88c-1.01,0.78-2.28,1.38-2.18,2.98c-0.1-3.27-0.32-6.55-0.27-9.82
		c0.17-11.63-0.1-23.25-0.03-34.88c0.03-4.56-0.79-9.06-1.27-13.59c-0.19-1.79-0.39-3.57-0.6-5.36
		C43.41,121.06,43.55,120.65,43.09,120.47z"></path>
	<path d="M120.71,286.33c7.16-5.58,14.31-11.16,21.47-16.73c13.96-10.85,27.92-21.68,41.88-32.52
		c0.37-0.29,0.69-0.68,1.18-0.79c0.27,1.45-0.06,2.88-0.29,4.28c-0.26,1.62-0.15,3.18,0.16,4.75c0.44,2.28,0.67,4.58,0.6,6.91
		c-0.21,6.89,0.64,13.71,1.24,20.55c0.22,2.54,0.46,5.08,0.46,7.63c0,1.73-0.4,2.27-2.06,2.76c-3.01,0.87-6.11,1.15-9.21,1.48
		c-8.83,0.92-17.7,0.9-26.57,1.03c-9.15,0.14-18.29,0.45-27.43,0.68C121.67,286.37,121.19,286.34,120.71,286.33z"></path>
	<path d="M182.68,161.51c-0.03-0.81-0.37-0.51-0.74-0.22c-3.72,2.9-7.45,5.78-11.18,8.68
		c-32.44,25.18-64.87,50.36-97.31,75.53c-10.86,8.43-21.73,16.86-32.59,25.29c0.14-2.19,0.29-4.39,0.43-6.58
		c1.82-1.1,3.4-2.51,5.07-3.81c37.02-28.77,74.03-57.55,111.04-86.33c8.14-6.33,16.28-12.67,24.41-19c0.35-0.27,0.71-0.51,1.07-0.77
		c0.4,0.66,0.27,1.4,0.23,2.1C183.01,158.11,182.83,159.81,182.68,161.51z"></path>
	<path d="M184.28,201.62c-0.59-0.2-0.86,0.32-1.21,0.59c-24.59,19.08-49.18,38.18-73.77,57.27
		c-10.79,8.38-21.59,16.77-32.37,25.16c-0.33,0.26-0.81,0.4-0.84,0.93c-2.65,0-5.3,0.03-7.94-0.22
		c12.37-9.61,24.73-19.22,37.1-28.83c25.72-19.97,51.45-39.94,77.18-59.9c0.28-0.22,0.59-0.39,0.89-0.58
		C183.95,197.84,184.03,199.74,184.28,201.62z"></path>
	<path d="M43.27,227.5c0.2,0.34,0.22,0.67-0.03,1C43.16,228.16,43.13,227.83,43.27,227.5z"></path>
</g>
</svg>
