<!--?xml version="1.0" encoding="utf-8"?-->
<!-- Generator: Adobe Illustrator 24.2.3, SVG Export Plug-In . SVG Version: 6.00 Build 0)  -->
<svg version="1.1" id="Camada_1" xmlns="http://www.w3.org/2000/svg" xmlns:xlink="http://www.w3.org/1999/xlink" x="0px" y="0px" viewBox="0 0 229 418" enable-background="new 0 0 229 418" xml:space="preserve">
<g onclick="select(this)" class="" id="estampa-primaria" fill="#bf0811">
	<path d="M43.184227,120.3591003c-0.1574593-1.9019699-0.2635918-3.8100281-0.4886246-5.7039795
		c-0.1797981-1.5132675-0.3913536-1.6106033-1.9219894-1.3255692c-1.0546684,0.1964035-2.1054993,0.4133453-3.1596031,0.6128845
		c-3.7236557,0.7048569-7.4897099,0.4062195-11.2349834,0.3948441c-6.4752865-0.0196609-12.9171953-0.5751572-19.2143612-2.1471405
		c-2.0026436-0.499939-4.0013113-1.0857773-5.9778385-1.7141418c1.020895-4.8060684,1.6644146-9.6716461,2.3388951-14.5333023
		c0.872649-6.2900543,1.9116194-12.5599365,2.6439087-18.8657761c0.7765994-6.6873932,1.853642-13.2944374,3.974463-19.697525
		c2.9442616-8.8891754,7.7607107-16.5268593,15.1724825-22.392849c1.1417255-0.9036102,1.9524097-2.1724854,3.2811241-2.8633461
		c3.6190052-1.8817024,7.2620258-3.7168369,11.0347271-5.271349c9.9860153-4.1146584,19.9939613-8.1792221,29.4552879-13.4397125
		c1.9744034-1.0977669,3.9967499-2.0936747,5.5144348-3.8991308c0.8429108-1.0027447,2.0579147-1.6459785,3.4937134-1.5504146
		c-1.6598358,0.9146581-2.0019836,2.3754401-1.6840515,4.0964561c0.3956909,2.1419916,1.0861511,4.1798086,2.3278809,5.9871454
		c5.9329224,8.6352997,14.296669,13.8952675,24.0654449,17.1269894c2.041748,0.6754532,4.1874008,1.1419945,6.5661926,0.9732132
		c-0.818985-1.2918892-1.7138596-2.3421478-2.6657181-3.3343887c-4.3846359-4.5706615-9.3081741-8.5244236-14.2901917-12.4103851
		c-2.5010681-1.9508305-4.6982346-4.208477-6.6866608-6.6749144c-0.9601822-1.1910152-1.7149582-2.4964218-2.3023758-3.9077702
		c-0.2885437-0.6932478-0.2463684-1.0194101,0.6452408-0.9307556c3.5362701,0.351614,7.0733414,0.7046528,10.6162415,0.9779987
		c7.921875,0.6111984,15.8302765,1.4430838,23.8044815,0.9912195c6.261795-0.3548279,12.5223312-0.704565,18.7725449-1.2287455
		c2.2623138-0.1897326,4.5277405-0.3423519,6.9600983-0.5245132c-0.3562012,0.7652731-0.6235199,1.4240294-0.9593048,2.0458479
		c-1.2259827,2.2702398-2.8836212,4.2098074-4.6701813,6.0531158c-2.8812408,2.9727859-6.3737335,5.2001953-9.5260773,7.842041
		c-3.523674,2.9530506-7.0875015,5.8638573-9.9547958,9.5003853c-0.3962326,0.5025253-0.8958893,0.9767723-0.9921494,1.7654648
		c1.0281219-0.1467667,1.9737854-0.0354576,2.9256516-0.2119141c5.0719757-0.9402618,9.6617355-3.0744553,14.078331-5.6319599
		c3.2989349-1.9103127,6.3558502-4.1792526,9.1010895-6.8097744c3.0965118-2.9671154,5.4707642-6.4256573,6.640976-10.6468983
		c0.6189423-2.2326078,0.0174561-4.2712574-1.6764832-4.7439165c1.9420471-0.3230171,3.1181183,0.8975677,4.2487946,2.1523972
		c0.3474121,0.3855724,0.6845703,0.7272234,1.1278381,1.02145c8.8714447,5.888566,18.7893372,9.6126204,28.526062,13.6821756
		c5.067276,2.1179237,10.0380096,4.4439087,15.0908356,6.5872955c0.2853851,0.121069,0.5596008,0.2832184,0.8128815,0.4630032
		c12.0054626,8.5214882,19.2169037,20.1563911,21.3936157,34.5978508
		c1.7050781,11.3124924,4.6848145,22.3671265,6.2290497,33.6951218c0.3612823,2.6502228,0.8081512,5.2887878,1.2156677,7.9327545
		c-0.4072723-0.0320892-0.7870331,0.0516357-1.1609039,0.2217789c-5.2508698,2.3895721-10.8408508,3.4043884-16.5039825,4.2465134
		c-4.9055786,0.7294693-9.8006744,1.3550644-14.7624969,1.0241394c-3.0189819-0.2013397-6.0679779-0.007515-9.0567627-0.6636734
		c-0.4004364-0.0879288-1.0440521-0.3493347-1.0703583,0.4709015c-0.0688629,2.1481247-0.9662018,4.2106934-0.6513672,6.3962173
		c-0.4419403,0.8073044-0.2948303,1.7095184-0.3963318,2.5679779c-0.9907074,8.3786392-1.7198181,16.7760849-1.745636,25.2220383
		c-0.0067291,2.2005463,0.0687408,4.3852692,0.5246124,6.5559692c0.4008789,1.9087372-0.0432281,3.8250885-0.2062225,5.7295837
		c-0.1811066,2.1162109-0.2468414,4.2292175-0.1479797,6.3477325c0.1008911,2.1623993-0.1498413,4.3116608-0.2017212,6.4661102
		c-0.0682373,2.8337555-0.1215973,5.6735077,0.1285095,8.5087433c0.1475983,1.6730652,0.0784607,3.3501434-0.098175,5.02742
		c-0.3134613,2.9759674,0.161026,5.8720398,0.824295,8.7793121c1.6766205,7.3491974,1.4777679,14.7560425,0.394516,22.1660767
		c-0.3131714,2.142395-0.3707123,4.2083435,0.3324127,6.3562622c1.789505,5.466568,1.8004761,11.0871277,0.9232635,16.7248077
		c-0.2115173,1.3592529-0.2436066,2.6841888,0.0700836,4.0361938c0.886261,3.8198547,0.4920807,7.7170715,0.6769562,11.5814056
		c0.2862549,5.9835815,0.6884613,11.9625854,1.4403229,17.9147034c0.2537231,2.008667,0.2185516,4.0574036,0.2538147,6.0889282
		c0.0314789,1.8131409-0.3387299,2.3127136-2.0966034,2.8403625c-2.9675903,0.8908081-6.046051,1.1467896-9.1074371,1.463501
		c-7.7273102,0.7994385-15.4857635,0.8745728-23.2448273,1.0192871
		c-11.2361755,0.2095642-22.4684143,0.6523743-33.7049484,0.8126526c-12.4795532,0.178009-24.9379959-0.848877-37.4192505-0.848999
		c-8.3984146-0.0000916-16.799118-0.1004944-25.1803284-0.7364502c-4.1492767-0.3148499-8.2854118-0.7527771-12.3534241-1.6774292
		c-0.2727928-0.0620117-0.5451469-0.1272583-0.8147545-0.2017212c-3.0011635-0.8287048-3.3434029-1.173645-3.1586952-4.2307129
		c0.4741859-7.848175,1.0208855-15.6920776,1.5688667-23.535553c0.1421928-2.0353699,0.2741928-4.0685883,0.2251472-6.1084442
		c-0.0433769-1.8041687,0.0425301-3.5978241,0.3647537-5.3743591c0.4024925-2.2190704,0.4543953-4.4303284,0.1269684-6.6729889
		c-0.3675308-2.5173645-0.1233711-5.0311584,0.42342-7.5046387c0.237915-1.0762024,0.1960411-2.1278687,0.1169281-3.2104492
		c-0.3260307-4.4614716-1.0035973-8.9028625-0.8237762-13.394516c0.1759071-4.393631,1.2030106-8.6131439,2.7054672-12.72258
		c0.3647614-0.9976807,0.5816841-1.9600372,0.4271965-3.0288544c-0.1776123-1.2288208-0.1682091-2.4718018,0.0631027-3.7023163
		c0.3129845-1.6650085,0.2037849-3.326767,0.1185341-5.0112915c-0.1672783-3.3053589-0.1792717-6.6202087-0.1929398-9.9314117
		c-0.0532684-12.9004364-0.0429573-25.8012695-0.1390572-38.7013397c-0.0387688-5.2046204-0.991291-10.3377228-1.5477562-15.5010147
		C43.6215096,122.9213791,43.7198563,121.5897675,43.184227,120.3591003z"></path>
</g>
<g onclick="select(this)" class="" id="detalhe-punho" fill="#801815">
	<path d="M0.24,114.41436c0.6107783-1.2420959,0.4154505-2.6777496,0.9468267-3.9383621
		c1.976527,0.6283646,3.9751949,1.2142029,5.9778385,1.7141418c6.2971659,1.5719833,12.7390747,2.1274796,19.2143612,2.1471405
		c3.7452736,0.0113754,7.5113277,0.3100128,11.2349834-0.3948441c1.0541039-0.1995392,2.1049347-0.416481,3.1596031-0.6128845
		c1.5306358-0.2850342,1.7421913-0.1876984,1.9219894,1.3255692c0.2250328,1.8939514,0.3311653,3.8020096,0.4886246,5.7039795
		c-0.9007339,0.7405167-2.0174828,0.9574585-3.1024132,1.1645813c-2.5106468,0.4793091-5.038868,0.7957077-7.609993,0.8197708
		c-6.994585,0.0654373-13.9775391,0.038559-20.892168-1.2381592c-3.0178013-0.5572052-6.0275316-1.1423187-8.9426279-2.1199341
		c-0.8160248-0.273674-1.598931-0.6459885-2.3970258-0.9730606C0.24,116.8129883,0.24,115.613678,0.24,114.41436z"></path>
	<path d="M184.6309204,120.0944595c-0.3148346-2.185524,0.5825043-4.2480927,0.6513672-6.3962173
		c0.0263062-0.8202362,0.6699219-0.5588303,1.0703583-0.4709015c2.9887848,0.6561584,6.0377808,0.4623337,9.0567627,0.6636734
		c4.9618225,0.330925,9.8569183-0.2946701,14.7624969-1.0241394c5.6631317-0.8421249,11.2531128-1.8569412,16.5039825-4.2465134
		c0.3738708-0.1701431,0.7536316-0.2538681,1.1609039-0.2217789c1.1353607,2.336441,1.1766968,4.8449707,1.0996246,7.3563385
		c-0.0221863,0.7228928-0.7844391,0.8354187-1.3140411,1.0370178c-2.8729095,1.0936127-5.8452148,1.8682861-8.8147736,2.6399994
		c-8.731369,2.2690582-17.6292267,2.7698975-26.595108,2.3430557c-2.0615845-0.0981522-4.1379395-0.3113708-6.1459808-0.8887787
		C185.5256805,120.7307129,184.9997711,120.5572357,184.6309204,120.0944595z"></path>
</g>
<g onclick="select(this)" class="" id="estampa-secundaria" fill="#801815">
	<path d="M43.3408546,120.4936371c-0.3208694-3.0441971-0.5865974-6.0954514-0.9757195-9.1308975
		c-0.5618362-4.3827362-1.1721992-8.7602539-1.8381691-13.1283569c-0.6280708-4.1195679-2.1121712-7.9974136-3.4174805-11.9350967
		c-1.2271194-3.7017899-3.5710945-6.9968643-4.0602417-10.9365463c-0.3078117-2.479187-0.5045052-4.9726715-0.272274-7.5035934
		c0.1838226-2.0033188,0.1346054-4.0216751-0.1645775-6.0723572c-0.2434692-1.6687698-0.1301727-3.4586449-0.1895485-5.1948242
		c-0.0721779-2.1105804-0.4087753-4.1739655-0.7507458-6.2594414c-0.3213978-1.9600067-0.4312725-3.9921227-0.6981697-5.9881058
		c-0.1307297-0.9776802-0.8477135-2.0799789-0.3353863-2.8887405c0.6156979-0.9719391,2.0135269-1.0183792,3.0811539-1.4196396
		c4.3337326-1.6287918,8.8312111-2.7084236,13.3046379-3.869751c8.8319206-2.2928314,17.432972-5.2203007,25.4681969-9.6132984
		c2.5190125-1.3771877,4.9393234-2.9355698,7.3956604-4.4260921c0.4109879-0.2493858,0.7923584-0.5408325,1.2811356-0.6208515
		c1.3598633,1.2298965,2.5803223,2.6038876,4.015358,3.7595005c3.5826874,2.885067,7.3284225,5.5355492,11.5017853,7.4822617
		c5.5560226,2.5916595,11.4386902,3.8782654,17.5780258,3.9476242c0.4291992,2.6671791-0.1423492,4.7286797-3.1431503,5.4506416
		c-0.720665,0.1733856-0.9724045,0.7799034-0.9451828,1.5841675c0.1275482,3.769516-0.6093445,2.8046799,2.7281876,4.4351158
		c1.066803,0.5211487,1.2752151,1.1724281,1.4035873,2.2863503c0.2516556,2.1837845-0.5061493,3.4748001-2.5858078,4.0713348
		c-1.2120438,0.3476601-1.4933395,1.161026-1.5926895,2.4197311c-0.1562881,1.9801598,0.4282532,3.2166824,2.350174,3.7672768
		c1.4478836,0.4147911,2.0517197,1.3369484,1.7829895,2.8507347c-0.0894699,0.5040283-0.0424652,1.0392914-0.0066376,1.5567322
		c0.0411911,0.5948334-0.15625,1.0056229-0.730423,1.2190018c-0.186348,0.0692596-0.3595734,0.1739349-0.5385208,0.26297
		c-2.9283676,1.4571152-2.9131012,1.4566422-2.8052673,4.7667236c0.0209351,0.6423416,0.2258301,1.0728302,0.8158188,1.3170395
		c0.1104279,0.0457001,0.21315,0.1098785,0.3200378,0.1643143c3.0729065,1.5646439,3.0575409,1.5641174,2.9454346,5.0076294
		c-0.0196304,0.6029892-0.2010345,0.9897995-0.7593079,1.2045975c-0.1856537,0.0714264-0.358017,0.1773682-0.5365601,0.2673035
		c-2.9277267,1.4747849-2.9172974,1.4743576-2.7827148,4.7787399c0.0217285,0.5336914,0.1427078,0.9124374,0.6652298,1.1434631
		c0.4358597,0.1927109,0.8455811,0.4506073,1.2508087,0.7052002c0.6960983,0.4373627,1.8654327,0.4914703,2.0344925,1.3093262
		c0.2537537,1.2275848,0.0929794,2.5428009,0.0860977,3.8206329c-0.0013504,0.2522964-0.2029114,0.4218903-0.4299393,0.5349808
		c-0.2505188,0.1248016-0.4985962,0.2544861-0.7487259,0.3800888c-2.9448471,1.4787827-2.9299316,1.4783707-2.8596344,4.7346115
		c0.0147476,0.6835098,0.1862335,1.1707764,0.8860245,1.3640289c0.0384979,0.0106277,0.0775604,0.0213013,0.1137924,0.0376663
		c3.252182,1.4684906,3.3769226,1.6976089,3.0749283,5.3088608c-0.0374146,0.4474182-0.169426,0.7641296-0.5812454,0.9524841
		c-0.2179565,0.0996933-0.4278259,0.2169418-0.6422195,0.3245316c-3.032074,1.5217972-3.0191422,1.5210724-2.8520279,4.8589706
		c0.0276718,0.5526428,0.2067108,0.8958664,0.7092743,1.1177979c0.4003754,0.1768188,0.7757645,0.411499,1.1576691,0.6285553
		c0.7175293,0.4078217,1.9085541,0.4520645,2.0868607,1.2300415c0.2788849,1.216774,0.0940399,2.5402832,0.101059,3.8186188
		c0.0021744,0.3964539-0.3195038,0.522522-0.5978851,0.6723557c-0.8439713,0.4542618-1.675705,0.935585-2.542511,1.3416977
		c-0.6702423,0.3140182-0.8261108,0.7937164-0.9326553,1.5015411c-0.3514404,2.3347473,0.3490829,3.9165497,2.7632599,4.5476456
		c1.0283051,0.2688293,1.2773056,0.9937363,1.371994,2.0644379c0.1908417,2.1578827-0.2516022,3.6954193-2.601738,4.2545013
		c-1.2122498,0.2884064-1.4744873,1.1687469-1.5675888,2.4192657c-0.1463852,1.9662628,0.394455,3.2213898,2.3454666,3.7418213
		c1.5383148,0.4103241,1.7990265,1.4316406,1.8466721,2.9443207c0.0564499,1.7919769-0.4782181,2.810257-2.1522141,3.3905334
		c-0.6836853,0.2369843-1.7219772,0.416275-1.855896,1.1549835c-0.2242508,1.236969-0.0852432,2.5419159-0.071846,3.8179932
		c0.0026474,0.251709,0.237175,0.4011536,0.4607315,0.5105743c0.1795349,0.0878754,0.3575211,0.1789093,0.535759,0.2694092
		c3.1257172,1.5872498,3.1098709,1.5868988,3.0251465,5.0670166c-0.0147095,0.6044006-0.1780777,0.9936066-0.7553406,1.1888123
		c-0.1499557,0.0507355-0.2861252,0.1418762-0.4292755,0.2131348c-3.0420074,1.5144043-3.0258255,1.5137787-2.8990479,4.92099
		c0.0226822,0.6096191,0.2261353,0.9840546,0.7778625,1.193985c0.1116486,0.04245,0.2167511,0.1024933,0.3238297,0.1565094
		c3.1260834,1.5768127,3.1121826,1.5763702,2.9812851,5.0947571c-0.0206985,0.5563965-0.1937943,0.8809204-0.6955338,1.1122284
		c-0.9071732,0.4182739-1.7833099,0.903595-2.6884079,1.3267059c-0.5000687,0.2337952-0.7474594,0.5724487-0.6851807,1.1260529
		c0.0088806,0.0789948,0.014389,0.1625214-0.0010452,0.2394257c-0.4899139,2.4434662,0.3795776,4.0482788,2.8535233,4.7072754
		c0.927002,0.2469025,1.1301575,0.8785095,1.2584763,1.8492889c0.3157578,2.3885956-0.4777756,3.8715057-2.8218765,4.5043793
		c-1.0496292,0.283371-1.2536392,0.9974365-1.3399887,2.0602417c-0.1695557,2.086792,0.2876587,3.5180206,2.5399933,4.0639038
		c1.1982956,0.2904053,1.5211258,1.1832733,1.6419754,2.4888611c0.2004166,2.1652222-0.5484009,3.3717804-2.5575027,3.9625397
		c-1.1635666,0.3421173-1.5126801,1.0717468-1.6509857,2.3591003c-0.2462769,2.2924194,0.7877579,3.427002,2.7256241,4.0014954
		c1.198494,0.3552856,1.4780502,1.041626,1.429039,2.2040863c-0.146759,3.4814606,0.6013031,2.5839233-2.7116699,4.2102814
		c-1.0526581,0.5167694-1.3198242,1.1410522-1.4222107,2.2758636c-0.1768417,1.9601898,0.3686447,3.237381,2.321228,3.7807465
		c1.5188141,0.4226685,1.8418121,1.432312,1.8547363,2.954895c0.0144958,1.710083-0.2310486,2.8703461-2.0851746,3.3977661
		c-0.6883392,0.1958466-1.7754211,0.4630127-1.9224091,1.2557678c-0.221405,1.1942444-0.1310806,2.4681854-0.0163651,3.6935425
		c0.0561676,0.6000061,0.7820358,0.8055878,1.2916489,0.952179c2.2420731,0.6450043,3.0096741,2.0578766,2.7207489,4.3531189
		c-0.1241226,0.9860382-0.3220673,1.6667633-1.2405777,2.0519562c-0.0735397,0.0308228-0.1390381,0.0894012-0.214592,0.1056519
		c-2.5588989,0.5504303-2.9722824,2.3135223-2.6782303,4.5694427c0.0879669,0.6749268,0.2530289,1.1440277,0.8929062,1.3937531
		c0.1111755,0.0433655,0.2140503,0.1079102,0.3209381,0.1623077c3.0704041,1.5627136,3.0580139,1.5621033,2.8789825,5.0501556
		c-0.0283127,0.5516205-0.1985779,0.9107361-0.7100906,1.1138916c-0.2220154,0.0881805-0.4289703,0.214035-0.643631,0.3210449
		c-3.0344315,1.5127563-3.0499649,1.5542603-2.7199326,4.9344482c0.0432892,0.4433899,0.2008896,0.7633972,0.5751266,0.9791718
		c0.2074966,0.1196442,0.4152603,0.2594452,0.6417465,0.3223114c2.3640137,0.6564636,3.2650833,2.1497498,2.8872833,4.5947876
		c-0.1293488,0.8370056-0.2394028,1.4599915-1.0973206,1.7354431c-0.0750046,0.0240784-0.1416245,0.0736694-0.2129669,0.1098328
		c-2.8609848,1.4490051-2.8389435,1.4487915-2.8028564,4.6487732c0.0084152,0.7466125,0.2496109,1.2236328,0.9347763,1.4855347
		c0.0741806,0.0283508,0.141777,0.0737,0.2128601,0.1103516c3.0679779,1.5815735,3.0522614,1.5810547,2.937355,5.0126038
		c-0.0202866,0.6057129-0.2087326,0.9867249-0.766304,1.198761c-0.1859131,0.0707397-0.3606186,0.1723328-0.5372467,0.2658386
		c-3.3810425,1.7900696-2.6565094,0.6687317-2.7808533,4.5436707c-0.0275879,0.8594971,0.3068466,1.3326111,1.056427,1.6581116
		c0.7663498,0.3327637,1.4871216,0.7706604,2.2538452,1.1023865c0.6132202,0.2652893,0.6930466,0.7095032,0.7854233,1.3164978
		c0.3681107,2.4188538-0.2280121,4.1913757-2.8353958,4.8579102c-0.341507,0.0872803-0.8179092,0.1894226-0.8039551,0.7383728
		l0.0092316-0.009613c-0.4395294-0.004303-0.4767456,0.2953796-0.477211,0.6270752
		c-0.0007935,0.5794067-0.0049057,1.158783-0.0076294,1.7381897c-4.0638504-0.214325-8.1255722-0.453125-12.1972885-0.5093079
		c-8.7165909-0.1203003-17.4328842-0.2698059-26.1486282-0.4414063c-8.1560555-0.1605835-16.3109055-0.3739014-24.388176-1.6840515
		c-1.7331123-0.2811584-3.4631729-0.5886841-5.1196022-1.196991c-1.7587433-0.6459656-2.0831718-1.1140747-2.0838432-3.0150146
		c-0.0014-3.9530334,0.5087166-7.8764038,0.7014732-11.8169861c0.3397408-6.9454651,1.2991982-13.8571014,1.1314697-20.83078
		c-0.0171661-0.7136536,0.039093-1.4537506,0.213131-2.1432495c0.94207-3.732254,0.0977135-7.4812927,0.1712303-11.2196655
		c0.0164223-0.8353882,0.0547829-1.6957855,0.2639236-2.4974976c0.8948936-3.4304657,0.2605782-6.8540344-0.1262741-10.2389679
		c-0.8383446-7.3354034-0.1048431-14.4307098,2.5780792-21.317215c0.1428413-0.3666534,0.3370247-0.7829895,0.2857819-1.1448364
		c-0.5365219-3.7882385,0.2247124-7.5602417,0.1225128-11.3614044c-0.1423035-5.2925415-0.5768967-10.6082611-0.0938492-15.925354
		c0.1864395-2.0522003-0.1774216-4.1486053-0.1838989-6.225174c-0.0255585-8.1957397,0.0252342-16.3917694-0.0201569-24.5873108
		c-0.0281944-5.0912018-0.9360542-10.1081696-1.4579544-15.157608
		C43.6473045,123.5967407,43.4961777,122.0449677,43.3408546,120.4936371z"></path>
	<path d="M110.6352768,284.1047363c0.6081085-0.0844421,1.1303635-0.4033813,1.6152725-0.7243042
		c1.3960648-0.9240112,2.6289139-0.8375549,4.1736908-0.0874939c1.5331421,0.7443848,1.9067993,1.6862488,1.6530228,3.1623535
		c-2.4730682,0.0012817-4.9462051,0.002594-7.4194336,0.0038757c-0.0045013-0.7880249-0.0089111-1.5760193-0.0133209-2.3640442
		L110.6352768,284.1047363z"></path>
	<path d="M114.6846771,165.3258057c0.1729584-0.6333008-0.3438797-1.4864807,0.3247681-1.9000244
		c1.0746841-0.6647034,2.2556305-1.5384521,3.416893-1.577713c1.2179184-0.0411682,2.473877,0.8577728,3.4872284,1.6576996
		c0.6219864,0.4909973,0.1941681,1.5048676,0.2264557,2.2805481c0.0221176,0.5313263,0.2543716,1.1971588-0.273735,1.5750122
		c-1.0360413,0.7412262-2.2017059,1.5982208-3.3881683,1.6362915c-1.2431717,0.0399017-2.4391785-0.8963928-3.5070038-1.6322632
		C114.3322754,166.9251251,114.8506088,166.013031,114.6846771,165.3258057z"></path>
	<path d="M114.6695557,152.7203522c0.1773605-0.7059021-0.3201599-1.5696106,0.3106384-1.9779816
		c1.059288-0.6857605,2.2302551-1.5259857,3.40625-1.6151581c1.2463379-0.0945129,2.4305496,0.9167938,3.4630356,1.6890717
		c0.7223969,0.540329,0.2368469,1.5738373,0.2876511,2.3821716c0.0305862,0.4866486,0.2793732,1.1539459-0.2170792,1.4568634
		c-1.11409,0.6797638-2.2882156,1.6798401-3.5130386,1.6207886c-1.1661377-0.0562439-2.3499451-0.9108887-3.409584-1.5948486
		C114.3082504,154.2364197,114.9047241,153.3291626,114.6695557,152.7203522z"></path>
	<path d="M114.689743,76.4972382c0.1358719-0.6537476-0.3206635-1.5208282,0.2760468-1.9405365
		c1.0347977-0.7278137,2.1821594-1.5630188,3.4281845-1.6005096c1.2572708-0.0378265,2.4080582,0.8409042,3.4364777,1.5586472
		c0.7551727,0.5270309,0.2526932,1.5731583,0.305809,2.3822403c0.0346832,0.5283279,0.2847748,1.2332001-0.2576904,1.5767899
		c-1.1082458,0.701973-2.310585,1.6003189-3.5717239,1.531929c-1.1502457-0.0623779-2.341835-0.7850723-3.3527145-1.460083
		C114.348671,78.1414337,114.8256607,77.1913986,114.689743,76.4972382z"></path>
	<path d="M122.1798935,254.3993073c-0.1541977,0.6482849,0.3281784,1.5059204-0.3196411,1.9206696
		c-1.0625305,0.6802368-2.1854553,1.5657959-3.4312744,1.5636597c-1.2451477-0.0021362-2.4127731-0.834259-3.4166336-1.5806274
		c-0.7181396-0.5339508-0.2376556-1.5760651-0.2833405-2.3864746c-0.0296555-0.5263214-0.2857971-1.2338104,0.2730637-1.5637817
		c1.0899353-0.6436005,2.1988068-1.5889435,3.4343567-1.5474091c1.2192917,0.0410461,2.3920746,0.8372803,3.4256668,1.5607605
		C122.5237122,252.8292084,122.0168915,253.7207031,122.1798935,254.3993073z"></path>
	<path d="M114.6856079,178.0840149c0.1548767-0.6448517-0.33181-1.5078735,0.2964096-1.9140167
		c1.059433-0.6849365,2.2356339-1.5363922,3.4058914-1.6075287c1.2307587-0.0748138,2.4569092,0.8676453,3.4972458,1.6289063
		c0.6600418,0.4829407,0.2169571,1.4950409,0.2528,2.2655334c0.0245743,0.5285645,0.2873993,1.247406-0.2576294,1.5664215
		c-1.1235886,0.6575928-2.2306061,1.7733612-3.4742737,1.688797c-1.1741104-0.0798187-2.3535995-0.9153748-3.4090195-1.6047974
		C114.3228378,179.6669312,114.8546524,178.7612152,114.6856079,178.0840149z"></path>
	<path d="M114.7037735,63.6552734c0.1400604-0.5725594-0.3495483-1.4287605,0.2969894-1.8458824
		c1.0599136-0.6838188,2.1761017-1.5695877,3.4272537-1.5742722c1.30056-0.0048714,2.481781,0.8884621,3.4898834,1.6730843
		c0.6298065,0.490181,0.1945267,1.5839767,0.2233582,2.4044418c0.0172501,0.4910202,0.2598877,1.1444244-0.266777,1.4494553
		c-1.0964127,0.6350098-2.1739731,1.4691849-3.44104,1.5808716c-0.9828339,0.0866394-1.7771454-0.8344421-2.717392-1.1369095
		C114.3367538,65.7623444,114.7760544,64.6585617,114.7037735,63.6552734z"></path>
	<path d="M122.1800461,267.0820007c-0.1450882,0.6219482,0.3143463,1.45578-0.2629929,1.8256531
		c-1.0953522,0.7017517-2.2053146,1.7850952-3.4979477,1.6752014c-1.1997147-0.1019897-2.4713974-0.7478333-3.4575806-1.4910278
		c-0.6779099-0.5108337-0.1871643-1.657074-0.2357864-2.5160217c-0.0280151-0.4950256-0.2603378-1.1628418,0.2304764-1.4694214
		c1.0775909-0.6730957,2.1865005-1.5529785,3.4361877-1.5915527c1.261879-0.0389404,2.3723297,0.8843079,3.444191,1.5506287
		C122.5416183,265.5037537,122.0059128,266.4133911,122.1800461,267.0820007z"></path>
	<path d="M114.6729279,241.7355194c0.1697388-0.7444916-0.3325882-1.6587524,0.3315811-2.0946503
		c1.0495758-0.6888733,2.1756897-1.5504303,3.4250183-1.5616455c1.3110123-0.0117493,2.4424438,0.9478149,3.4758987,1.7107239
		c0.6380692,0.4710388,0.2029953,1.4992218,0.2327957,2.2733002c0.0202713,0.5265198,0.2874756,1.2324982-0.2824097,1.5576019
		c-1.0980682,0.6264496-2.1837463,1.5630035-3.4365082,1.5497284c-1.2483673-0.0132446-2.3685684-0.8852539-3.4240341-1.5748138
		C114.3512192,243.1750031,114.8768158,242.3155212,114.6729279,241.7355194z"></path>
	<path d="M114.7785721,139.968338c-0.4362564-1.4588928,0.2118912-2.2686005,1.5429688-2.7038422
		c0.7505341-0.2453766,1.439003-1.0865631,2.1543579-0.8888092c1.1631546,0.321579,2.2231064,1.0240936,3.3161316,1.5862274
		c0.263443,0.1354675,0.3237839,0.4184113,0.365921,0.7109833c0.3850479,2.6724243,0.0791321,3.0284576-2.1998291,4.3715973
		c-1.3675461,0.806015-2.3220444,0.276474-3.5036774-0.2412109
		C115.1285248,142.2223511,114.2637253,141.5316772,114.7785721,139.968338z"></path>
	<path d="M122.1988297,51.0086861c-0.1936035,0.7358932,0.3439407,1.6366158-0.3865356,2.0723114
		c-1.0816727,0.6451836-2.1815491,1.5865059-3.442749,1.5249634c-1.2421875-0.0606041-2.4345016-0.8296394-3.3997192-1.6223145
		c-0.6508865-0.5345612-0.2056427-1.586895-0.2450256-2.4046822c-0.0238495-0.495266-0.2551956-1.1588097,0.2338104-1.4659767
		c1.0736771-0.6744423,2.2173004-1.6354561,3.4179382-1.5637093c1.178772,0.0704384,2.3605957,0.8637123,3.4430389,1.5052032
		C122.5637283,49.495472,121.9519119,50.4044952,122.1988297,51.0086861z"></path>
	<path d="M114.6894302,89.1149673c0.1561737-0.6305923-0.3386154-1.4905319,0.3375092-1.9013367
		c1.0803146-0.6564255,2.1855392-1.5858383,3.4481354-1.5440979c1.2505875,0.0413437,2.4240341,0.8492966,3.4172668,1.6168137
		c0.6431122,0.4969559,0.2237396,1.5123062,0.2437592,2.2907486c0.013443,0.5225754,0.3176041,1.2410126-0.2785721,1.5522079
		c-1.1582947,0.6045837-2.204689,1.6197586-3.5486603,1.6306381c-0.9746552,0.0078888-1.7814102-0.851265-2.7169418-1.1871872
		C114.2649918,91.0963211,114.8488541,89.994751,114.6894302,89.1149673z"></path>
	<path d="M122.1781693,279.8837891c-0.1291122,0.6311646,0.3044968,1.4742126-0.2807007,1.8285522
		c-1.1107254,0.6726074-2.3259583,1.4575806-3.5543213,1.5681763c-1.1536407,0.1039429-2.3104706-0.8121948-3.299469-1.5155945
		c-0.7585526-0.5395203-0.2600555-1.5677795-0.31353-2.3727112c-0.0350571-0.5275879-0.290329-1.2422485,0.2362595-1.5762634
		c1.0683212-0.6776123,2.1786118-1.5452576,3.4239044-1.5848083c1.2577667-0.0399475,2.3732071,0.8670349,3.4331284,1.5410461
		C122.5560074,278.2380371,121.9971237,279.1891479,122.1781693,279.8837891z"></path>
	<path d="M114.7388,190.8424988c-0.3931274-1.4603119,0.2442551-2.2790375,1.5834122-2.7190399
		c0.7518005-0.2470093,1.4434204-1.0851288,2.1620941-0.8897095c1.1718521,0.3186188,2.2397156,1.0223236,3.3479614,1.5706024
		c0.353157,0.1747284,0.3074722,0.5166931,0.3270264,0.8358765c0.1802444,2.9410706,0.1869507,2.9512939-2.5316238,4.2811584
		c-0.4805984,0.2351074-0.9416275,0.7732697-1.5270157,0.5016022c-1.1161118-0.5180511-2.2687302-1.0240631-3.2416992-1.7542572
		C114.4068756,192.3294525,114.7784729,191.4507141,114.7388,190.8424988z"></path>
	<path d="M122.1795425,127.383049c-0.1737289,0.6197739,0.3486786,1.4703445-0.3283997,1.8853073
		c-1.0786743,0.6611176-2.2554092,1.5257568-3.4225922,1.5769653c-1.173172,0.0514679-2.381752-0.8411713-3.3861084-1.6101379
		c-0.7137451-0.546463-0.2713623-1.5017471-0.3133316-2.2699509c-0.0288925-0.5287933-0.278801-1.216217,0.2460785-1.5783997
		c1.0419922-0.7190018,2.12397-1.6176682,3.4091644-1.5824432c1.3123627,0.0359344,2.4599609,0.8950119,3.5285492,1.6288071
		C122.4999161,125.8363113,122.0415115,126.7149811,122.1795425,127.383049z"></path>
	<path d="M122.1798325,228.9526367c-0.1568527,0.6472015,0.3313904,1.50737-0.3097763,1.9256897
		c-1.0595245,0.69133-2.184639,1.5740662-3.4389267,1.5736694c-1.2539368-0.0003815-2.435112-0.8218384-3.4223938-1.5892029
		c-0.7311935-0.5683441-0.2179489-1.6602173-0.2815323-2.5139465c-0.0363235-0.4877625-0.2551498-1.1439667,0.2901611-1.4436035
		c1.0777588-0.5922394,2.2008743-1.4519958,3.3343124-1.4989166c1.2489014-0.0517273,2.4389572,0.9106445,3.5326233,1.6240082
		C122.5147858,227.4415436,122.0243607,228.3076172,122.1798325,228.9526367z"></path>
	<path d="M122.1932602,203.4984741c-0.1718445,0.6965637,0.3187485,1.5517426-0.3390427,1.9659882
		c-1.066452,0.6716309-2.1691589,1.5283661-3.4331818,1.5682526c-1.2840118,0.0405273-2.4052048-0.829834-3.4087372-1.5807495
		c-0.6923752-0.5181122-0.2361526-1.4989929-0.2845688-2.2683105c-0.0333328-0.5296326-0.2530746-1.199707,0.2812119-1.5728149
		c1.0438538-0.7289581,2.2026672-1.6083679,3.393486-1.6262512c1.2442703-0.018692,2.4378204,0.907547,3.5096054,1.6434631
		C122.5105743,202.0390472,121.9966583,202.9098206,122.1932602,203.4984741z"></path>
	<path d="M114.6869049,216.2344971c0.1606293-0.6383667-0.3316345-1.4827576,0.2870941-1.9198914
		c1.0342102-0.7306519,2.1845322-1.6298523,3.401207-1.6256561c1.2614059,0.0043488,2.4762955,0.8779907,3.5134888,1.6501923
		c0.6553421,0.4878998,0.2147903,1.5016632,0.2493591,2.2753601c0.0236359,0.5291901,0.2852707,1.2404175-0.2702408,1.5674438
		c-1.0919342,0.642746-2.1905212,1.562851-3.4421844,1.5576324c-1.2495499-0.0052032-2.3751297-0.8822021-3.4308319-1.5740356
		C114.3622818,217.7510223,114.8342514,216.8886108,114.6869049,216.2344971z"></path>
	<path d="M122.1936264,114.5802536c-0.1764603,0.6879883,0.3262177,1.5473022-0.3228073,1.958252
		c-1.0684662,0.6765366-2.2505417,1.5451965-3.4161377,1.5948029c-1.2227631,0.0520325-2.473465-0.8591156-3.4944687-1.6514282
		c-0.6324768-0.4908142-0.2020874-1.5043716-0.2328949-2.27948c-0.0210037-0.5281601-0.279747-1.2282181,0.2825851-1.5617752
		c1.0892258-0.64608,2.2608871-1.629303,3.3843384-1.6109848c1.1834869,0.0192795,2.412468,0.9514389,3.5006104,1.668335
		C122.5071793,113.1014023,122.0042953,113.9809494,122.1936264,114.5802536z"></path>
	<path d="M118.1331711,70.0512543c-0.1529999,0.7205429,0.3144684,1.6099014-0.26651,2.0047226
		c-1.0446167,0.7098923-2.2654037,1.6267319-3.4000244,1.6099014c-1.189209-0.0176392-2.4396133-0.9192886-3.5168076-1.6503677
		c-0.6752472-0.4582901-0.2503204-1.4223175-0.2818604-2.1554184c-0.0229874-0.5341339-0.2883911-1.2635269,0.2372589-1.5824738
		c1.1212845-0.6803436,2.3107147-1.5895081,3.525032-1.677681c1.1714172-0.085083,2.3674774,0.8679428,3.4103928,1.5867538
		C118.4543381,68.6096802,117.9320984,69.4730759,118.1331711,70.0512543z"></path>
	<path d="M122.179985,101.8902283c-0.1632462,0.6386948,0.3399811,1.503273-0.2926559,1.912323
		c-1.0607605,0.6858673-2.2351913,1.526886-3.4104767,1.609436c-1.123085,0.0788956-2.3133621-0.7444229-3.3099823-1.4674149
		c-0.8678894-0.6295776-0.3742142-1.6307068-0.4357834-2.4637146c-0.0384827-0.5206528-0.290329-1.2260132,0.2840805-1.5550385
		c1.0968704-0.6283188,2.1831741-1.5632248,3.4388504-1.5404053c1.248848,0.0227051,2.3727264,0.8831177,3.4231415,1.5802383
		C122.5071106,100.3837128,122.0263596,101.2409592,122.179985,101.8902283z"></path>
	<path d="M118.0708237,44.7001724c0.4258118,1.54002-0.3195419,2.328167-1.6715088,2.7743645
		c-0.7079544,0.2336502-1.3630295,1.0326462-2.0461121,0.8167763c-1.1979141-0.3785591-2.3246384-1.0322914-3.4142303-1.682888
		c-0.5516281-0.3293839-0.1967316-1.0359535-0.2933884-1.5644341c-0.3084412-1.6863098,0.5931244-2.3456535,1.9715881-3.2139969
		c2.2130814-1.3941116,3.5866394,0.0945778,5.1689987,0.8918076
		C118.5055542,43.08424,117.9422455,44.0531998,118.0708237,44.7001724z"></path>
	<path d="M118.1200943,57.4254341c-0.1464081,0.648365,0.3312378,1.5286331-0.2631531,1.9256477
		c-1.0469894,0.6993141-2.2617188,1.6098061-3.3935547,1.5927391c-1.1858521-0.0178833-2.4395828-0.9031258-3.5051346-1.6388435
		c-0.7085495-0.4892273-0.244957-1.4936676-0.2887268-2.2624168c-0.0297775-0.5230484-0.2853546-1.2303162,0.3026199-1.5483055
		c1.1103058-0.6004829,2.1666641-1.5123749,3.4492416-1.5332565c1.2917862-0.0210304,2.3971176,0.8322601,3.4355545,1.5346985
		C118.4482803,55.8957062,117.9761353,56.7740822,118.1200943,57.4254341z"></path>
	<path d="M118.1231537,82.8390884c-0.1817169,0.6669083,0.3682175,1.5741043-0.3354797,2.0082092
		c-1.0357666,0.6389389-2.0974503,1.5132675-3.3409882,1.4765015c-1.3180008-0.0389633-2.4783859-0.8735809-3.5281677-1.6243896
		c-0.6360626-0.4549179-0.2251816-1.4259872-0.2513123-2.1614075c-0.0188599-0.5309143-0.2841721-1.2468872,0.2610092-1.569252
		c1.1251831-0.6653137,2.327446-1.6185989,3.5137711-1.6416473c1.1311493-0.0219803,2.3460236,0.8907394,3.4003983,1.581398
		C118.4550095,81.3097839,117.968071,82.1841736,118.1231537,82.8390884z"></path>
	<path d="M118.1215134,247.9779968c-0.178627,0.6621399,0.369812,1.570816-0.3364182,2.0029907
		c-1.0376129,0.634964-2.0957413,1.5117798-3.3415527,1.4738464c-1.3203812-0.0402222-2.4777145-0.8774719-3.5268555-1.6288757
		c-0.634079-0.4541321-0.2245331-1.426651-0.2493057-2.1624298c-0.0178452-0.5302429-0.2859192-1.2448883,0.2628708-1.5677185
		c1.1269913-0.6629181,2.3298035-1.6153717,3.5165939-1.637619c1.131424-0.0212097,2.3483887,0.888855,3.3987503,1.5843964
		C118.4419937,246.4375305,117.9832764,247.3158569,118.1215134,247.9779968z"></path>
	<path d="M118.0688934,260.7204285c0.5140228,1.6873779-0.5342484,2.3198853-1.8130798,2.8077698
		c-0.6582413,0.2510986-1.2866592,0.9723511-1.9439697,0.744751c-1.1923294-0.4127502-2.342659-1.0225525-3.400589-1.7174988
		c-0.5750122-0.3777161-0.1589737-1.2000122-0.2651825-1.8108521c-0.2398529-1.3792725,0.45961-1.993927,1.5941391-2.7451172
		c2.1528931-1.4255066,3.782486-0.3590393,5.4791565,0.6476135
		C118.5230942,259.1239319,117.9097824,260.0551758,118.0688934,260.7204285z"></path>
	<path d="M118.119545,273.4690857c-0.1576691,0.6327515,0.3376007,1.4945068-0.2939987,1.9064941
		c-1.0204315,0.6656494-2.0920639,1.4981689-3.3284683,1.5094299c-1.3304291,0.0121155-2.4722672-0.8699646-3.5387802-1.5919495
		c-0.7111206-0.4813538-0.244278-1.4920654-0.2888336-2.2607422c-0.0303268-0.5232544-0.2801437-1.2175903,0.3040009-1.5510559
		c1.1350632-0.6480103,2.3000717-1.6731873,3.5269318-1.6020508c1.1662598,0.0676575,2.3564758,0.9196167,3.3875046,1.6396484
		C118.4403915,271.9047241,117.9905243,272.8016357,118.119545,273.4690857z"></path>
	<path d="M118.1363754,159.0630035c-0.1727829,0.704071,0.3132706,1.551178-0.3382187,1.9794922
		c-1.0245514,0.673584-2.1317749,1.5552673-3.316803,1.5398712c-1.2761383-0.0165863-2.462677-0.8903046-3.5137177-1.6608124
		c-0.677887-0.496933-0.2626495-1.4284973-0.3021545-2.1626129c-0.0287933-0.5353088-0.2453308-1.2222595,0.2939987-1.5742645
		c1.0971985-0.7161407,2.2541962-1.6235962,3.5260696-1.6429291c1.1820831-0.0179749,2.2994919,0.8568573,3.3146744,1.5417328
		C118.4851303,157.5455475,117.9151764,158.4455261,118.1363754,159.0630035z"></path>
	<path d="M118.1218491,171.8043976c-0.1485214,0.6582336,0.3217316,1.5107117-0.3061142,1.9385223
		c-1.0129013,0.6902466-2.1314163,1.5522766-3.3119736,1.5517426c-1.2747879-0.0006104-2.4512939-0.8937988-3.5226593-1.6387329
		c-0.6703796-0.4661102-0.2964783-1.3470154-0.3128738-2.0386963c-0.0143967-0.6071167-0.294487-1.3759918,0.3646545-1.7800293
		c1.0826263-0.6635437,2.1945419-1.5667877,3.4296036-1.5845947c1.1924667-0.0171356,2.2962875,0.8607178,3.319603,1.5323792
		C118.4752502,170.2399292,117.949791,171.1349487,118.1218491,171.8043976z"></path>
	<path d="M118.1215439,235.4066772c-0.14814,0.6147156,0.3182678,1.4498749-0.2804031,1.8103485
		c-1.0384598,0.6253052-2.0458603,1.533371-3.3075562,1.5292511c-1.3465347-0.0044098-2.4733734-0.8734589-3.5540085-1.5776062
		c-0.7397079-0.4819946-0.2514343-1.4880829-0.3118515-2.2546387c-0.0389786-0.4944611-0.2651825-1.2011414,0.2030334-1.4700012
		c1.1266403-0.6469574,2.199173-1.5991058,3.5271606-1.6424866c1.2537308-0.0409241,2.3222122,0.7952881,3.3356094,1.4755707
		C118.4778519,233.7767792,117.9517212,234.6981049,118.1215439,235.4066772z"></path>
	<path d="M118.136879,95.4296188c-0.1722488,0.7522812,0.3163071,1.6271744-0.3746719,2.1038208
		c-1.0073776,0.6949158-2.0786514,1.51931-3.3262405,1.5100174c-1.3426361-0.0100098-2.4332199-0.9671173-3.5037003-1.6896896
		c-0.6655884-0.4492874-0.2292786-1.4189911-0.2633057-2.150238c-0.0244751-0.526001-0.2818832-1.2192688,0.2967834-1.5581512
		c1.1307526-0.6622086,2.2992706-1.6590118,3.5334396-1.615799c1.1260071,0.0394135,2.2731934,0.8980255,3.3097839,1.5552826
		C118.4757004,94.0076065,117.9080505,94.8655243,118.136879,95.4296188z"></path>
	<path d="M118.0760345,133.6628723c-0.1701965,0.7193298,0.4990082,1.7612457-0.6257095,2.1806335
		c-1.3947449,0.5201263-2.5998993,2.1340485-4.3509979,0.8353271c-0.126358-0.0937347-0.2837753-0.1455536-0.4266815-0.2170105
		c-2.0322723-1.016098-2.4789658-1.9401703-2.0096741-4.1573181c0.0164795-0.0778809,0.0214233-0.1605377,0.051239-0.2329407
		c0.3350677-0.8138123,3.8029633-2.1224518,4.6053848-1.7368011c0.3599777,0.1730042,0.698555,0.4057007,1.0739059,0.5288086
		C117.7574692,131.3109436,118.4781342,132.1281433,118.0760345,133.6628723z"></path>
	<path d="M118.1212158,184.485611c-0.1728897,0.6640472,0.3543777,1.5539551-0.3531418,2.0095367
		c-1.0287628,0.6623688-2.1278458,1.5465088-3.319458,1.5249329c-1.285881-0.0233154-2.4179611-0.9754333-3.4913559-1.7113647
		c-0.66185-0.4538116-0.2587891-1.3454437-0.2899933-2.0365143c-0.0258255-0.5717926-0.2634277-1.2941895,0.3202896-1.6816559
		c1.0587921-0.7028503,2.2123184-1.6186981,3.4080734-1.5933075c1.1885147,0.0252533,2.4196396,0.7762146,3.4369354,1.5386963
		C118.4309616,182.9844513,117.9799652,183.8224335,118.1212158,184.485611z"></path>
	<path d="M118.1179199,146.3206177c-0.1276779,0.6611786,0.3053131,1.5033722-0.2588348,1.95401
		c-0.9945755,0.7944946-2.238945,1.5003204-3.4280472,1.5635529c-1.2018204,0.0639038-2.3656235-0.8583679-3.4079742-1.5740356
		c-0.7305603-0.5015869-0.320343-1.413208-0.3551712-2.1399536c-0.0254822-0.5319061-0.2743835-1.2316132,0.2540817-1.5785065
		c1.0937958-0.7179871,2.2171478-1.6872406,3.4894867-1.7251282c1.227951-0.0365601,2.376091,0.8631134,3.4171143,1.5753326
		C118.4414825,144.8152161,117.9772491,145.6763306,118.1179199,146.3206177z"></path>
	<path d="M118.1242523,222.5263824c-0.136467,0.6826172,0.3151932,1.5650787-0.2683945,1.9577179
		c-1.0446472,0.7028503-2.2503586,1.5954285-3.3952408,1.6047058c-1.2525101,0.0101166-2.672821-0.8027191-3.5558167-1.7497101
		c-0.7204437-0.7726898-0.2367477-2.1410522-0.2157593-3.2412872c0.0120697-0.6329041,0.6744919-0.6965179,1.1396027-0.8922882
		c0.073349-0.0308838,0.1587677-0.048645,0.2167892-0.0980682c1.9386902-1.6517029,3.7347031-0.7785187,5.5397873,0.2858734
		C118.5371704,220.9546661,117.8758469,221.8504181,118.1242523,222.5263824z"></path>
	<path d="M118.0696259,108.375885c-0.2080154,0.6266098,0.5316162,1.6036606-0.4781876,1.9743958
		c-1.3922043,0.5111313-2.5359344,2.2410202-4.3352661,0.9787827c-0.1613693-0.1131973-0.3560715-0.1786804-0.5347748-0.2673645
		c-2.1292801-1.0567245-2.4860077-1.7842789-2.0706024-4.1297379c0.0627365-0.3542404,0.2204208-0.5758133,0.5312271-0.729393
		c0.9660187-0.4773102,1.9336166-0.9521484,2.8872986-1.4532776c0.3315048-0.1741943,0.6114883-0.0977554,0.9065475,0.0436783
		c0.502243,0.2407532,0.9893265,0.5208588,1.5080032,0.7180939
		C117.8145599,106.0170975,118.5057602,106.8607025,118.0696259,108.375885z"></path>
	<path d="M118.085083,197.3223267c-0.0994797,0.4936523,0.3566895,1.3792877-0.2206192,1.7808838
		c-1.0012741,0.6965179-2.1755753,1.5754242-3.2805786,1.5799408c-1.3116379,0.0053711-2.7460556-0.8005371-3.6851273-1.7627563
		c-0.7158508-0.7334747-0.2156677-2.0711212-0.2227554-3.1369019c-0.0047607-0.7158966,0.7805862-0.6876831,1.2006226-1.0084534
		c1.6993713-1.2978821,3.2981033-1.1591339,5.1466217-0.0916595
		C118.2013092,195.3636627,118.1048355,196.1812286,118.085083,197.3223267z"></path>
	<path d="M118.0761337,209.9399414c0.3833466,1.4796295-0.4522629,1.9951477-1.5959015,2.7296753
		c-2.2188568,1.4251251-3.7216339-0.0466766-5.4442596-0.838028c-0.2813492-0.1292419-0.3431015-0.4006653-0.3873978-0.6942749
		c-0.3723755-2.4679413-0.1206055-2.9698792,2.0821991-4.0792389c1.532074-0.7715607,3.7063751-0.4429626,5.0020294,0.7493134
		C118.4148254,208.4349976,117.9456329,209.250824,118.0761337,209.9399414z"></path>
	<path d="M118.0988388,121.0382767c-0.1418991,0.6763611,0.4238892,1.7531738-0.629158,2.1388855
		c-1.3925934,0.5100861-2.6479111,2.0559082-4.3736191,0.7886276c-0.095253-0.0699463-0.2119064-0.1109314-0.3190155-0.1645584
		c-2.3526917-1.1778564-2.4662247-1.3939896-2.1249924-4.0490723c0.0151978-0.1182404,0.0110474-0.2452087,0.0543747-0.3525925
		c0.3194351-0.7916336,3.7227936-2.1130753,4.4971848-1.7564697c0.3256607,0.1499634,0.6574554,0.2867126,0.9877243,0.4264755
		C118.098877,118.8768234,118.0990067,118.8765182,118.0988388,121.0382767z"></path>
	<path d="M114.6900177,36.6957741c2.1898575,0.0548744,4.3020859-0.5754128,6.4674149-0.7325935
		c1.1682053,0.3780174,1.0929489,1.3443947,0.9810257,2.2461433c-0.0991287,0.7987022,0.5256119,1.8722763-0.6058197,2.3335571
		c-1.452179,0.5920448-2.6242142,1.9626083-4.609108,0.914566c-1.6611862-0.877121-2.5929337-1.768013-2.2248001-3.6878128
		C114.7648392,37.4249153,114.6963654,37.0543861,114.6900177,36.6957741z"></path>
</g>
<g onclick="select(this)" class="" id="gola-primaria" fill="#bf0811">
	<path d="M149.1920471,8.2665339c1.6939392,0.4726591,2.2954254,2.5113087,1.6764832,4.7439165
		c-1.1702118,4.221241-3.5444641,7.6797829-6.640976,10.6468983c-2.7452393,2.6305218-5.8021545,4.8994617-9.1010895,6.8097744
		c-4.4165955,2.5575047-9.0063553,4.6916981-14.078331,5.6319599c-0.9518661,0.1764565-1.8975296,0.0651474-2.9256516,0.2119141
		c0.0962601-0.7886925,0.5959167-1.2629395,0.9921494-1.7654648c2.8672943-3.636528,6.4311218-6.5473347,9.9547958-9.5003853
		c3.1523438-2.6418457,6.6448364-4.8692551,9.5260773-7.842041c1.7865601-1.8433084,3.4441986-3.782876,4.6701813-6.0531158
		c0.3357849-0.6218185,0.6031036-1.2805748,0.9593048-2.0458479c-2.4323578,0.1821613-4.6977844,0.3347807-6.9600983,0.5245132
		c-6.2502136,0.5241804-12.5107498,0.8739176-18.7725449,1.2287455c-7.974205,0.4518642-15.8826065-0.3800211-23.8044815-0.9912195
		c-3.5429001-0.2733459-7.0799713-0.6263847-10.6162415-0.9779987c-0.8916092-0.0886545-0.9337845,0.2375078-0.6452408,0.9307556
		c0.5874176,1.4113483,1.3421936,2.7167549,2.3023758,3.9077702c1.9884262,2.4664373,4.1855927,4.7240839,6.6866608,6.6749144
		c4.9820175,3.8859615,9.9055557,7.8397236,14.2901917,12.4103851c0.9518585,0.9922409,1.8467331,2.0424995,2.6657181,3.3343887
		c-2.3787918,0.1687813-4.5244446-0.29776-6.5661926-0.9732132c-9.7687759-3.2317219-18.1325226-8.4916897-24.0654449-17.1269894
		c-1.2417297-1.8073368-1.9321899-3.8451538-2.3278809-5.9871454c-0.3179321-1.7210159,0.0242157-3.181798,1.6840515-4.0964561
		c0.5143661-0.0252366,0.9027328-0.3090868,1.2522583-0.6413717c0.9263687-0.8806643,2.0001678-1.6612997,2.7273788-2.6858664
		c2.0422745-2.8773975,5.0196915-3.6030319,8.2393723-3.9380414c3.0733871-0.3197877,6.1406097,0.0641102,9.2117691,0.0276584
		c4.3972549-0.0521912,8.7969818,0.0443268,13.1928406-0.0513675c7.9100418-0.1721947,15.8178406,0.0474255,23.7266388,0.0363705
		c0.912384-0.0012754,1.8285217,0.1743852,2.7368927,0.3086998c2.2479095,0.3323816,4.1504211,1.1903371,5.5703125,3.1194048
		C145.9542999,5.7696943,147.367691,7.2616229,149.1920471,8.2665339z"></path>
</g>
</svg>
