<!--?xml version="1.0" encoding="utf-8"?-->
<!-- Generator: Adobe Illustrator 24.2.3, SVG Export Plug-In . SVG Version: 6.00 Build 0)  -->
<svg version="1.1" id="Camada_1" xmlns="http://www.w3.org/2000/svg" xmlns:xlink="http://www.w3.org/1999/xlink" x="0px" y="0px" viewBox="0 0 229 418" style="enable-background:new 0 0 229 418;" xml:space="preserve">
<style type="text/css">
	.st0{fill:#FC0101;}
	.st1{fill:#2145B9;}
	.st2{fill:#BF0086;}
</style>
<g onclick="select(this)" class="" id="gola-primaria" fill="#011023">
	<path d="M109,35.9c-0.2,0.5-0.6,0.3-0.9,0.3c-4.1-0.3-8-1.5-11.6-3.3c-5.4-2.6-10.2-5.9-14.4-10.2
		c-2.7-2.7-4.9-5.8-5.8-9.6c-0.2-1-0.4-2-0.2-3.1C76.2,9,77,8.5,77.8,8c0.5,0,0.9-0.3,1.3-0.6c0.9-0.9,2-1.7,2.7-2.7
		c2-2.9,5-3.6,8.2-3.9c3.1-0.3,6.1,0.1,9.2,0c4.4-0.1,8.8,0,13.2-0.1c7.9-0.2,15.8,0,23.7,0c0.9,0,1.8,0.2,2.7,0.3
		c2.2,0.3,4.1,1.2,5.6,3.1c1.2,1.6,2.6,3.1,4.4,4.1c1.7,0.5,2.3,2.5,1.7,4.7c-1.2,4.2-3.5,7.7-6.6,10.6c-2.7,2.6-5.8,4.9-9.1,6.8
		c-4.1,2.4-8.3,4.4-12.9,5.4c-1.4,0.3-2.8,0.4-4.3,0.5c0.5-1.1,1.3-2.1,2.1-3c2.2-2.6,4.9-4.8,7.5-7.1c2.1-1.7,4.3-3.3,6.4-5
		c2.4-1.8,4.6-3.8,6.6-6.1c1.5-1.8,2.8-3.7,3.7-6c-2,0.2-3.9,0.4-5.9,0.5c-5.4,0.4-10.8,0.8-16.1,1.1c-5.6,0.4-11.2,0.4-16.8,0
		C98,10.2,90.9,9.6,83.7,8.9c-0.7-0.1-1,0.1-0.7,0.8c0.5,1.2,1.1,2.4,1.9,3.4c3.9,5.3,9.4,8.9,14.4,13.1
		C102.8,29.3,106.3,32.2,109,35.9z"></path>
</g>
<g onclick="select(this)" class="" id="detalhe-lateral" fill="#80b3a3">
	<path d="M180,284c-0.4-5-0.6-10-0.8-15.1c-0.3-6-0.5-12-0.7-17.9c-0.2-4.9-0.3-9.7-0.5-14.6
		c-0.3-7.3-0.3-14.6-0.5-21.9c-0.4-17-0.2-34.1-0.2-51.1c0-4.8,0.2-9.7,0.5-14.5c0.3-4.8,0.7-9.6,1.1-14.4
		c0.9-9.6,2.5-19.2,4.9-28.5c1.2-4.8,2.7-9.6,4.8-14.2c0.1-0.2,0.1-0.6,0.4-0.7l0,0c0.2,0.5-0.1,0.9-0.2,1.3
		c-1.9,6.6-3.2,13.3-4.1,20.1c-0.4,2.5-0.4,5.1-0.5,7.7c-1.2,10.3-2.3,20.6-2,31c0.1,2.5,0.8,4.9,0.4,7.4c-0.4,2.3-0.4,4.7-0.4,7
		c0.1,6.6,0.1,13.2-0.1,19.7c-0.1,4.5,0.7,8.7,1.4,13c0.9,5.1,0.9,10.2,0.2,15.4c-0.3,2.3-0.5,4.7-0.8,7c0,0.4,0.1,0.8,0.2,1.2
		c2,5.7,2.5,11.6,1.6,17.6c-0.3,2-0.3,4,0.1,6c0.4,2,0.6,4.1,0.5,6.2c-0.1,7.4,0.7,14.7,1.4,22c0.2,2.3,0.3,4.6,0.3,6.9
		c0,1.1-0.5,1.8-1.5,2.2C183.9,283.5,182,284,180,284z"></path>
	<path d="M42.1,112.8c0.1-1.9-0.4-3.8-0.6-5.7c-0.4-2.9-0.9-5.7-1.3-8.5c-0.1-0.7-0.8-1.2-0.3-2.1
		c0.9,1.9,1.4,3.8,1.9,5.7c1.9,6.1,3.1,12.4,4.2,18.7c0.8,4.5,1.4,9.1,1.8,13.7c0.4,4.2,0.7,8.4,1,12.6c1.3,21.4,0.6,42.8,0.7,64.2
		c0,4-0.1,8-0.2,12c-0.1,6.3-0.3,12.5-0.5,18.8c-0.2,4.4-0.3,8.9-0.5,13.3c-0.2,5.6-0.4,11.2-0.8,16.9c-0.3,3.8-0.2,7.6-0.7,11.3
		c-1.7-0.1-3.4-0.5-5-1.1c-1.6-0.6-2-1.1-2-2.8c0-2.8,0.2-5.6,0.4-8.3c0.4-5.3,0.7-10.6,1.2-15.9c0.4-4.8-0.1-9.6,0.9-14.3
		c0.2-0.9,0.1-1.8,0-2.7c-0.5-3.1-0.4-6.2,0.3-9.3c0.2-0.9,0.1-1.7,0.1-2.6c-0.3-4.1-0.8-8.1-0.9-12.2c0-4.9,1.1-9.7,2.7-14.3
		c0.3-0.9,0.5-1.7,0.4-2.7c-0.2-1.6-0.1-3.2,0.2-4.8c0.1-0.6,0.2-1.2,0.1-1.8c-0.1-4.8-0.3-9.6-0.4-14.5c0-1.1,0.1-2.2,0.2-3.3
		c0.1-1.9,0.1-3.7,0-5.6c-0.4-5.1-0.2-10.1-0.1-15.2c0.2-9.1-0.2-18-1.5-27c-0.2-1.5-0.4-3.1-0.6-4.6c0.5-1.2-0.2-2.3-0.4-3.5
		C42.4,115.6,42.6,114.1,42.1,112.8z"></path>
</g>
<g onclick="select(this)" class="" id="detalhe-punho" fill="#80b3a3">
	<path d="M-0.1,114.4c0.5-1,0.5-2.2,0.7-3.3c0.1-0.5,0.1-1.1,0.5-1.5c4.7,1.9,9.7,3.3,14.7,3.9
		c5.6,0.7,11.3,0.9,16.9,0.7c2.4-0.1,4.7-0.2,7-0.6c0.8-0.1,1.4-0.9,2.3-0.8c0.5,1.4,0.2,2.8,0.4,4.2c0.1,1.1,0.9,2.3,0.4,3.5
		c-2.8,1.3-5.9,1.7-9,1.8c-7.1,0.1-14.1,0.3-21.2-0.9c-3.6-0.6-7.2-1.3-10.7-2.4c-0.7-0.2-1.5-0.6-2.2-0.9
		C-0.1,116.8-0.1,115.6-0.1,114.4z"></path>
	<path d="M184.3,120.2c0-2.6,0-5.1,0.5-7.7c0.9,0.6,2,0.9,3.1,1c5.6,0.3,11.2,0.6,16.8,0c4-0.4,7.9-1.2,11.9-2
		c3.1-0.7,6-1.9,9.1-2.5c0.6-0.1,1.3-0.5,1.9-0.8c1,2.5,1.3,5.1,1.1,7.7c0,0.6-0.8,0.8-1.3,0.9c-3.2,1.2-6.5,2.1-9.9,2.9
		c-8.4,2.1-16.9,2.5-25.5,2.1c-1.8-0.1-3.6-0.4-5.5-0.7C185.7,121,184.9,120.7,184.3,120.2z"></path>
</g>
<g onclick="select(this)" class="" id="gola-secundaria" fill="#80b3a3">
	<path d="M127.2,26.2c-2.5,2.3-5.2,4.5-7.5,7.1c-0.8,0.9-1.6,1.9-2.1,3c-2.3,0.6-4.6,0.4-7,0.2c-0.6,0-1.1-0.3-1.6-0.6
		c-2.7-3.7-6.2-6.6-9.6-9.7c2.8,0,5.7-0.1,8.5-0.1C114.4,26.2,120.8,26.2,127.2,26.2z"></path>
</g>
<path d="M189.1,91.2c0-0.1,0.1-0.3,0.1-0.4c0,0,0.1,0.1,0.1,0.1C189.3,91,189.3,91.2,189.1,91.2
	C189,91.1,189.1,91.2,189.1,91.2z"></path>
<g onclick="select(this)" class="" id="estampa-primaria" fill="#011023">
	<path d="M42.1,112.8c-0.9-0.1-1.5,0.6-2.3,0.8c-2.3,0.4-4.7,0.5-7,0.6c-5.7,0.2-11.3,0-16.9-0.7c-5.1-0.6-10-1.9-14.7-3.9
		c1.7-8.9,2.5-18,4-26.9C6,77.5,6.3,72.1,7.3,66.9c1.7-8.5,4.5-16.6,9.7-23.7c2.1-2.9,4.5-5.5,7.3-7.7c1.4-1.1,2.4-2.6,3.9-3.4
		c3.6-1.9,7.3-3.7,11-5.3c10-4.1,20-8.2,29.5-13.4c2-1.1,4-2.1,5.5-3.9c0.8-1,2.1-1.6,3.5-1.6C77,8.5,76.2,9,76.1,10
		c-0.2,1,0,2.1,0.2,3.1c0.9,3.8,3.1,6.9,5.8,9.6c4.1,4.3,9,7.6,14.4,10.2c3.7,1.8,7.5,3,11.6,3.3c0.3,0,0.7,0.3,0.9-0.3
		c0.5,0.3,1,0.6,1.6,0.6c2.3,0.2,4.7,0.4,7-0.2c1.4-0.2,2.9-0.2,4.3-0.5c4.7-0.9,8.9-3,12.9-5.4c3.3-1.9,6.4-4.2,9.1-6.8
		c3.1-3,5.5-6.4,6.6-10.6c0.6-2.2,0-4.3-1.7-4.7c1.9-0.3,3.1,0.9,4.2,2.2c0.3,0.4,0.7,0.7,1.1,1c8.9,5.9,18.8,9.6,28.5,13.7
		c5.1,2.1,10,4.4,15.1,6.6c0.3,0.1,0.6,0.3,0.8,0.5c12,8.5,19.2,20.1,21.4,34.5c1.7,11.5,4.7,22.7,6.3,34.2c0.3,2.5,0.7,4.9,1.1,7.3
		c-0.6,0.3-1.2,0.6-1.9,0.8c-3.1,0.7-6,1.9-9.1,2.5c-3.9,0.8-7.9,1.6-11.9,2c-5.6,0.6-11.2,0.3-16.8,0c-1.1-0.1-2.1-0.4-3.1-1
		c0.9-6.8,2.2-13.5,4.1-20.1c0.1-0.4,0.4-0.8,0.2-1.3c0.2,0,0.2-0.1,0.2-0.3c0,0,0-0.1-0.1-0.1c0,0.1-0.1,0.3-0.1,0.4
		c-0.3,0.1-0.3,0.4-0.4,0.7c-2,4.6-3.5,9.3-4.8,14.2c-2.4,9.4-4,18.9-4.9,28.5c-0.5,4.8-0.8,9.6-1.1,14.4c-0.3,4.8-0.5,9.6-0.5,14.5
		c0,17-0.3,34.1,0.2,51.1c0.2,7.3,0.3,14.6,0.5,21.9c0.2,4.9,0.3,9.7,0.5,14.6c0.2,6,0.5,12,0.7,17.9c0.2,5,0.4,10,0.8,15.1
		c-7.7,1.1-15.4,1.4-23.1,1.5c-12.9,0.2-25.9,0.6-38.8,0.9c-6.8,0.2-13.5-0.5-20.2-0.6c-8.7-0.1-17.4-0.2-26.1-0.4
		c-8.3-0.2-16.6-0.4-24.8-1.8c0.5-3.8,0.5-7.6,0.7-11.3c0.4-5.6,0.6-11.2,0.8-16.9c0.1-4.4,0.3-8.9,0.5-13.3
		c0.3-6.3,0.4-12.5,0.5-18.8c0.1-4,0.2-8,0.2-12c0-21.4,0.6-42.8-0.7-64.2c-0.3-4.2-0.6-8.4-1-12.6c-0.4-4.6-1.1-9.1-1.8-13.7
		c-1.1-6.3-2.3-12.6-4.2-18.7c-0.6-1.9-1-3.8-1.9-5.7c-0.5,0.9,0.2,1.5,0.3,2.1c0.4,2.9,0.9,5.7,1.3,8.5
		C41.8,109,42.2,110.8,42.1,112.8z"></path>
	<path d="M127.2,26.2c-6.4,0-12.9,0-19.3-0.1c-2.8,0-5.7,0.1-8.5,0.1c-5-4.1-10.5-7.7-14.4-13.1c-0.8-1.1-1.4-2.2-1.9-3.4
		C82.8,9,83,8.8,83.7,8.9c7.1,0.8,14.2,1.3,21.4,1.8c5.6,0.4,11.2,0.4,16.8,0c5.4-0.4,10.8-0.7,16.1-1.1c1.9-0.1,3.8-0.3,5.9-0.5
		c-0.8,2.3-2.2,4.2-3.7,6c-1.9,2.3-4.2,4.3-6.6,6.1C131.5,22.9,129.4,24.5,127.2,26.2z"></path>
</g>
<g onclick="select(this)" class="" id="estampa-secundaria" fill="#80b3a3">
	<path d="M178.7,259c-0.1,2.1,0.4,4.2,0.3,6.3c-0.3,0.1-0.5,0.2-0.8,0.3c-11.4,4.9-22.8,9.8-34.2,14.6
		c-4.5,1.9-9,3.9-13.5,5.9h0c-0.9,0.1-1.9,0.1-2.8,0.2c-4.3,0.1-8.6,0.2-12.8,0.3c0.3-0.4,0.8-0.5,1.2-0.7c2.6-1.1,5.1-2.2,7.7-3.3
		C142.1,274.7,160.4,266.8,178.7,259z"></path>
	<path d="M48,265.9c-0.2-2.1,0.2-4.1,0.3-6.2c0.1,0,0.2,0.1,0.3,0.1c19.4,8.3,38.9,16.7,58.3,25c1,0.5,2.1,0.9,3.1,1.4
		c0,0.1-0.1,0.1-0.1,0.2c-0.7,0-1.4,0-2.1,0c-4.5-0.2-9-0.4-13.5-0.5c-0.1,0-0.1-0.1-0.2-0.1C78.7,279.1,63.4,272.5,48,265.9z"></path>
	<path d="M179.2,270.7c-7.5,3.2-14.9,6.4-22.4,9.6c-4.3,1.8-8.6,3.7-12.8,5.5c-2.9,0.1-5.9,0.2-8.9,0.2
		c0.4-0.2,0.8-0.5,1.3-0.6c4.1-1.8,8.1-3.5,12.2-5.2c10.1-4.3,20.3-8.7,30.4-13C179.3,268.3,179.3,269.5,179.2,270.7z"></path>
	<path d="M80.9,285.6c-5.7-2.5-11.5-5-17.2-7.4c-5.3-2.3-10.6-4.5-15.9-6.8c0-1.2-0.2-2.4,0.2-3.6
		c0.3,0.1,0.5,0.2,0.8,0.3c13.1,5.6,26.3,11.3,39.4,16.9c0.5,0.2,1.1,0.3,1.4,0.8C86.6,285.7,83.8,285.8,80.9,285.6z"></path>
	<path d="M179.7,279.1c-4.8,2-9.7,4-14.4,6.2c-0.2,0-0.5,0.1-0.7,0.1c-0.4-0.1-0.8-0.1-1.2,0.1c-0.1,0-0.3,0-0.4,0
		c0.2-0.5,0.7-0.6,1.1-0.8c5.2-2.2,10.4-4.4,15.5-6.7C179.7,278.4,179.7,278.8,179.7,279.1z"></path>
	<path d="M59.6,285.1c-4.1-1.8-8.2-3.5-12.3-5.3c0-0.3,0-0.7,0-1c4.8,2,9.5,4,14.3,6.1c0.2,0.1,0.3,0.3,0.4,0.4
		c-0.1,0-0.3,0-0.4,0c-0.4-0.2-0.8-0.2-1.2-0.1C60,285.1,59.8,285.1,59.6,285.1z"></path>
	<path d="M188.8,91.9c-0.7,0.8-0.7,1.9-1.3,2.7c-12.7,5.4-25.5,10.9-38.2,16.3c-11.8,5.1-23.6,10.1-35.4,15.2
		c-0.7,0.3-1.4,0.4-2.2,0.1c-22.1-9.5-44.2-19-66.3-28.4c-1.7-0.7-3.3-1.4-5-2.1c-0.4-0.2-0.8-0.4-1-0.9c-0.6-2.1-1.2-4.1-1.9-6.2
		l0,0c0.5-0.2,0.8,0.1,1.2,0.3C63,99.2,87.1,109.6,111.2,120c1,0.4,1.8,0.5,2.8,0.1c22-9.5,43.9-18.9,65.9-28.3
		c3.5-1.5,7.1-3,10.8-4.6C190.1,88.8,189.4,90.4,188.8,91.9z"></path>
	<path d="M42.7,104.4c-0.5-1.6-1-3.2-1.5-4.8c-0.2-0.5-0.2-1-0.7-1.3c0.1-0.4-0.5-0.8-0.1-1.1c0.4-0.3,0.8,0.1,1.1,0.3
		c23.4,10,46.8,20.1,70.2,30.1c0.7,0.3,1.3,0.3,2,0c24-10.3,48-20.6,72-30.9c0.4-0.2,0.7-0.4,1.1-0.3c-0.8,2.4-1.6,4.8-2.3,7.2
		c-0.2,0.1-0.5,0.1-0.7,0.2c-23.4,10-46.8,20.1-70.2,30.1c-0.6,0.3-1.1,0.3-1.7,0.1c-14.3-6.2-28.5-12.3-42.8-18.4
		C60.3,112,51.5,108.2,42.7,104.4z"></path>
	<path d="M193.6,78.2c0,2.1-0.9,3.9-1.6,5.8c-0.1,0.4-0.6,0.5-1,0.6c-23.9,10.2-47.8,20.5-71.7,30.7
		c-2,0.8-4,1.7-5.9,2.6c-0.6,0.3-1,0.2-1.6,0C88.6,108,65.3,98,42,88c-1.6-0.7-3.2-1.4-4.8-2.1c-0.4-0.2-0.9-0.3-1-0.9
		c-0.5-2-1.4-3.9-2.3-5.8c0.6-0.2,1,0.2,1.4,0.3c25.5,10.9,51,21.8,76.5,32.8c0.7,0.3,1.3,0.3,2,0c26.2-11.3,52.5-22.5,78.7-33.8
		C192.8,78.5,193.2,78.2,193.6,78.2L193.6,78.2z"></path>
	<path d="M32.4,71.5c4.1,1.8,8.1,3.4,12,5.2c22.3,9.6,44.7,19.2,67,28.8c0.8,0.4,1.5,0.4,2.3,0
		c20.4-8.8,40.9-17.5,61.3-26.3c6.1-2.6,12.2-5.2,18.3-7.8c0.3-0.1,0.6-0.3,1.1-0.3c-0.1,1.3-0.2,2.5-0.2,3.8c0,0.7-0.6,0.9-1.1,1.1
		c-8.1,3.5-16.1,6.9-24.2,10.4c-18.4,7.9-36.8,15.8-55.3,23.7c-0.8,0.3-1.4,0.3-2.1,0C85.7,98.9,59.8,87.8,33.9,76.7
		c-0.9-0.4-1.3-0.9-1.3-1.8C32.6,73.9,32.5,72.8,32.4,71.5z"></path>
	<path d="M165.5,32.2c-3.6,1.6-7.1,3.1-10.6,4.6c-13.8,5.9-27.5,11.8-41.3,17.7c-0.7,0.3-1.3,0.3-2,0
		C94.8,47.2,78,39.9,61.2,32.7c-0.3-0.1-0.6-0.3-1.1-0.5c2.5-1,4.8-2,7.2-3c0.5-0.2,0.9,0.2,1.3,0.4c14.3,6.1,28.6,12.2,42.8,18.4
		c0.9,0.4,1.7,0.4,2.6,0c14.4-6.2,28.8-12.3,43.1-18.5c0.8-0.4,1.5-0.4,2.4,0C161.4,30.4,163.4,31.2,165.5,32.2z"></path>
	<path d="M32.6,63.6c3.8,1.6,7.4,3.2,11,4.7c22.7,9.7,45.4,19.5,68.1,29.2c0.7,0.3,1.2,0.3,1.9,0
		c25.7-11,51.4-22.1,77.1-33.1c1.2-0.5,2.5-1.1,3.8-1.6c0,1,0,1.9,0,2.8c0,0.8-0.7,0.8-1.2,1c-9.5,4.1-18.9,8.1-28.4,12.2
		c-17.1,7.3-34.2,14.7-51.3,22c-0.8,0.3-1.4,0.3-2.1,0c-26-11.1-52-22.3-77.9-33.4c-0.9-0.4-1.3-0.8-1.1-1.8
		C32.7,65.1,32.6,64.5,32.6,63.6z"></path>
	<path d="M128.4,33.9c0.4-0.2,0.9-0.3,1.3-0.5c0.5,0.2,0.9-0.1,1.4-0.3c6.2-2.6,12.4-5.3,18.6-8
		c0.7-0.3,1.2-0.3,1.9,0.1c1.6,1,3.3,2,5.1,3c-6.6,2.8-13,5.6-19.4,8.3c-7.9,3.4-15.8,6.8-23.8,10.2c-0.6,0.2-1,0.3-1.6,0.1
		c-14-6-28-12-42-18c-0.2-0.1-0.4-0.2-0.7-0.4c2-1.1,3.9-2.2,5.8-3.3c0.4-0.2,0.8,0,1.1,0.2c11.8,5.1,23.6,10.1,35.4,15.2
		c0.8,0.3,1.4,0.4,2.3,0c4.5-2,9-3.9,13.5-5.8C127.7,34.5,128.4,34.5,128.4,33.9z"></path>
	<path d="M194.8,55.4c0.1,2.7,0.1,2.7-2.2,3.7C166.3,70.4,140,81.7,113.7,93c-0.7,0.3-1.3,0.3-2,0
		c-26-11.2-52-22.3-78-33.5c-1.4-0.6-1.9-1.5-1.5-3c0.2-0.7,0.7-0.2,0.9-0.1c2.8,1.2,5.7,2.4,8.5,3.6c23.3,10,46.6,20,69.9,30
		c0.9,0.4,1.7,0.3,2.6-0.1c22.7-9.8,45.3-19.5,68-29.2c3.9-1.7,7.7-3.3,11.6-5C194,55.7,194.3,55.6,194.8,55.4z"></path>
	<path d="M52.8,34.6c1.6-0.5,3-1,4.4-1.5c0.5-0.2,0.9,0.2,1.4,0.3c17.7,7.6,35.5,15.2,53.2,22.8c0.7,0.3,1.3,0.3,2,0
		c17.7-7.6,35.4-15.2,53.2-22.8c0.9-0.4,1.6-0.4,2.4,0c1,0.4,2.1,0.8,3.4,1.2c-3,1.3-5.9,2.5-8.7,3.8c-16.7,7.2-33.5,14.3-50.2,21.5
		c-0.7,0.3-1.2,0.3-1.9,0C92.4,51.6,73,43.3,53.7,35C53.5,34.9,53.2,34.8,52.8,34.6z"></path>
	<path d="M195.7,47.2c0.1,1.8-0.7,2.6-2.2,3.3c-26.6,11.3-53.1,22.7-79.7,34.1c-0.8,0.3-1.4,0.3-2.3,0
		C85.2,73.3,58.7,62,32.3,50.7c-0.8-0.3-1.4-1.7-1-2.4c0.3-0.5,0.6-0.1,0.9,0c3.2,1.4,6.5,2.8,9.7,4.2C62.6,61.3,83.3,70.2,104,79
		c2.6,1.1,5.1,2.2,7.7,3.3c0.7,0.3,1.3,0.3,2,0c27-11.6,53.9-23.1,80.9-34.7C194.9,47.5,195.3,47.4,195.7,47.2z"></path>
	<path d="M195.2,41.4c-3.3,1.4-6.5,2.8-9.8,4.2c-23.9,10.2-47.7,20.5-71.5,30.7c-0.8,0.3-1.4,0.4-2.3,0
		C84.8,64.8,57.9,53.3,31.1,41.7c-0.2-0.1-0.4-0.2-0.7-0.3c1-0.5,1.7-0.9,2.8-0.5c26.1,11.3,52.3,22.5,78.5,33.7
		c0.8,0.3,1.4,0.3,2.2,0c26.2-11.2,52.3-22.4,78.5-33.7C193.4,40.5,194.2,40.9,195.2,41.4z"></path>
	<path d="M183.8,38c-0.2,0.4-0.7,0.5-1,0.6c-23,9.9-46.1,19.8-69.1,29.6c-0.6,0.3-1.1,0.4-1.8,0.1
		c-23.3-10-46.6-20-69.9-30c-0.3-0.1-0.6-0.3-0.9-0.4c0.8-0.6,1.4-0.3,2.2,0c22.7,9.8,45.4,19.5,68.1,29.2c0.9,0.4,1.7,0.4,2.6,0
		c22.5-9.7,45-19.3,67.6-29C182.3,37.8,183,37.3,183.8,38z"></path>
	<path d="M81,21.5c2.3,2.6,5,4.7,7.8,6.8c-1.4-0.2-2.5-1-3.8-1.5c-2.5-1-4.9-2.1-7.6-3.2C78.8,22.8,79.9,22.1,81,21.5z"></path>
	<path d="M140.4,26.6c1.9-1.7,4-3.4,5.7-5.3c0.8,0.6,1.6,1.2,2.5,1.9c-1.2,0.5-2.2,1-3.4,1.5
		C143.6,25.4,142.1,26.3,140.4,26.6z"></path>
	<path d="M108.9,35.9c2.3,1.2,4.8,0.8,7.3,0.8c0.5,0,0.9-0.1,1.4-0.2c-1.5,0.7-3.1,1.4-4.6,2.1c-0.2,0.1-0.5,0.2-0.7,0
		c-1.9-0.9-3.9-1.5-5.8-2.6c0.6,0.1,1.2,0.2,1.7,0.2C108.7,36.2,108.9,36.3,108.9,35.9z"></path>
	<path d="M106.4,35.9c0,0,0.1,0,0.1,0L106.4,35.9L106.4,35.9z"></path>
	<path d="M37.6,88.6C37.6,88.6,37.6,88.5,37.6,88.6C37.6,88.5,37.6,88.6,37.6,88.6C37.6,88.6,37.6,88.6,37.6,88.6z"></path>
	<path d="M193.6,78.2C193.7,78.2,193.7,78.2,193.6,78.2C193.7,78.2,193.6,78.2,193.6,78.2
		C193.6,78.2,193.6,78.2,193.6,78.2z"></path>
	<path d="M140.1,26.8c0.1,0,0.2-0.1,0.2-0.1C140.4,26.8,140.3,26.8,140.1,26.8z"></path>
	<path d="M49.7,187c0-2.1,0-4.2,0-6.3c0.3,0.1,0.7,0.3,1,0.4c20.4,8.7,40.7,17.5,61.1,26.2c0.7,0.3,1.2,0.3,1.8,0
		c4.9-2.1,9.8-4.2,14.8-6.3c16.3-7,32.6-14,48.9-20.9c0,2.1,0,4.2,0,6.3c-21.2,9.1-42.4,18.2-63.6,27.3c-0.6,0.3-1.1,0.4-1.8,0.1
		C91.2,204.8,70.4,195.9,49.7,187z"></path>
	<path d="M178.7,257.6c-16.2,7-32.5,13.9-48.7,20.9c-5.5,2.3-10.9,4.7-16.4,7c-0.7,0.3-1.2,0.2-1.9,0
		c-21-9-41.9-18-62.9-27c-0.2-0.1-0.4-0.1-0.6-0.2c0.1-2,0.2-4,0.2-6c0.4,0.2,0.9,0.4,1.3,0.5c20.6,8.8,41.2,17.7,61.8,26.5
		c0.7,0.3,1.3,0.4,2,0.1c13.1-5.6,26.2-11.3,39.3-16.9c8.5-3.6,17-7.3,25.5-10.9C178.6,253.6,178.6,255.6,178.7,257.6z"></path>
	<path d="M49.7,179.3c0-2,0-4,0-6.1c0.3,0.1,0.7,0.2,1,0.4c20.3,8.7,40.7,17.4,61,26.2c0.7,0.3,1.2,0.3,1.9,0
		c13.1-5.6,26.1-11.2,39.2-16.8c8.1-3.5,16.3-7,24.4-10.4c0,2,0,4,0,6.1c-21.2,9.1-42.3,18.2-63.5,27.3c-0.7,0.3-1.3,0.3-2,0
		c-7.6-3.3-15.1-6.5-22.7-9.7C75.9,190.5,62.8,184.9,49.7,179.3z"></path>
	<path d="M48.6,250.1c0-1.8,0.1-3.6,0.1-5.4c20.9,9,41.9,18,62.9,27c0.8,0.3,1.4,0.4,2.3,0
		c16.1-6.9,32.1-13.8,48.2-20.7c5.4-2.3,10.8-4.6,16.2-6.9c0,1.8,0,3.6,0,5.5c-0.3,0.1-0.6,0.2-0.9,0.3
		c-21.2,9.1-42.4,18.2-63.6,27.3c-0.8,0.3-1.4,0.3-2.1,0c-9.1-3.9-18.3-7.8-27.4-11.8C72.4,260.2,60.5,255.1,48.6,250.1z"></path>
	<path d="M49.7,170.9c0-1.8,0-3.6,0-5.4c3,1.3,6,2.5,8.9,3.8c17.8,7.6,35.5,15.2,53.3,22.8c0.5,0.2,1,0.3,1.6,0.1
		c16.4-7.1,32.9-14.1,49.3-21.1c4.8-2.1,9.7-4.1,14.5-6.2c0,1.8,0,3.6,0,5.4c-21.1,9-42.2,18.1-63.2,27.1c-0.9,0.4-1.6,0.4-2.6,0
		C90.9,188.5,70.3,179.7,49.7,170.9z"></path>
	<path d="M49,237.8c13.9,6,27.8,11.9,41.7,17.9c6.9,3,13.9,5.9,20.8,8.9c0.9,0.4,1.6,0.4,2.5,0c20.9-9,41.9-18,62.8-27
		c0.4-0.2,0.8-0.3,1.2-0.5c0,1.5,0,3,0,4.5c-0.4,0.1-0.7,0.3-1.1,0.5c-21.1,9-42.2,18.1-63.2,27.1c-0.7,0.3-1.2,0.3-1.9,0
		c-10.6-4.6-21.2-9.1-31.8-13.6c-10.3-4.4-20.7-8.9-31-13.3C48.9,240.9,49,239.4,49,237.8z"></path>
	<path d="M49.5,158.4c19.7,8.4,39.4,16.8,59.1,25.4c2.9,1.3,5.2,1.4,8.1,0.1c20-8.8,40.2-17.3,60.3-25.9
		c0.2-0.1,0.4-0.1,0.6-0.2c0,1.6,0.2,3.1-0.2,4.6c-0.2,0.1-0.5,0.1-0.7,0.3c-21,9-42,18-63,27c-0.7,0.3-1.2,0.3-1.9,0
		c-12.8-5.5-25.6-11-38.4-16.5c-7.9-3.4-15.8-6.7-23.7-10.1C49.4,161.6,49.4,160,49.5,158.4z"></path>
	<path d="M182.8,109.9c-13.1,5.6-26.2,11.2-39.3,16.8c-10,4.3-20,8.6-29.9,12.9c-0.7,0.3-1.2,0.3-1.9,0
		c-22-9.5-44-18.9-66-28.3c-0.5-0.2-1-0.4-1.5-0.6c-0.3-1.4-0.7-2.7-1-4.1c0.4,0.1,0.8,0.3,1.1,0.4c22.5,9.6,45,19.3,67.4,28.9
		c0.7,0.3,1.2,0.3,1.8,0c15.8-6.8,31.7-13.6,47.5-20.4c7.6-3.3,15.2-6.5,22.8-9.7C183.6,107.2,183.3,108.6,182.8,109.9z"></path>
	<path d="M177.2,191.9c-10.5,4.5-21,9-31.5,13.5c-10.8,4.6-21.6,9.2-32.3,13.9c-0.6,0.3-1,0.2-1.6-0.1
		c-18.8-8.1-37.6-16.1-56.4-24.2c-1.9-0.8-3.8-1.6-5.7-2.5c0-1.2,0-2.4,0-3.6c0.4,0.2,0.9,0.3,1.3,0.5c20.1,8.6,40.3,17.3,60.4,25.9
		c0.7,0.3,1.3,0.5,2.1,0.1c16.3-7.1,32.7-14.1,49.1-21.1c4.8-2.1,9.7-4.1,14.6-6.2C177.2,189.5,177.2,190.7,177.2,191.9z"></path>
	<path d="M49.2,230c20.8,8.9,41.5,17.8,62.3,26.7c1,0.4,1.8,0.3,2.7-0.1c20.9-9,41.7-17.9,62.6-26.9
		c0.3-0.1,0.7-0.3,1-0.4c0,1.1,0,2.2,0,3.3c-21.4,9.2-42.8,18.4-64.2,27.6c-0.7,0.3-1.2,0.1-1.8-0.1c-20.7-8.9-41.4-17.8-62.2-26.6
		c-0.1-0.1-0.2-0.1-0.3-0.1C49.2,232.2,49.2,231.1,49.2,230z"></path>
	<path d="M49.2,150.4c4.8,2.1,9.7,4.1,14.5,6.2c16,6.9,32.1,13.7,48.1,20.6c0.6,0.3,1.1,0.3,1.8,0
		c21-9,42.1-18.1,63.1-27.1c0.3-0.1,0.7-0.3,1-0.4c0,1.1,0,2.2,0,3.3c-20.3,8.7-40.7,17.3-60.9,26.2c-3,1.3-5.3,1.3-8.2,0
		c-19.5-8.5-39.1-16.9-58.7-25.3c-0.2-0.1-0.3-0.1-0.5-0.1C49,152.7,49.2,151.5,49.2,150.4z"></path>
	<path d="M178,145c-14.2,6.1-28.4,12.2-42.6,18.3c-7.3,3.1-14.6,6.2-21.9,9.4c-0.6,0.3-1.1,0.2-1.7,0
		c-17.7-7.6-35.4-15.2-53-22.8c-3.3-1.4-6.5-2.8-9.8-4.2c0.1-1-0.4-1.9-0.2-2.9c8.6,3.7,17.2,7.4,25.9,11.1
		c12.4,5.3,24.7,10.6,37.1,15.9c0.8,0.3,1.4,0.3,2.1,0c21.4-9.2,42.8-18.3,64.1-27.5c0.1-0.1,0.2-0.1,0.3-0.1
		C178.4,143.1,178.2,144.1,178,145z"></path>
	<path d="M177.5,224.8c-14.5,6.2-29,12.4-43.5,18.6c-6.8,2.9-13.5,5.8-20.2,8.7c-0.8,0.4-1.5,0.4-2.3,0
		c-20.4-8.8-40.8-17.5-61.3-26.3c-0.3-0.1-0.6-0.2-0.9-0.4c0-0.9,0-1.9,0.1-2.8c9.3,4,18.6,7.9,27.9,11.9
		c11.4,4.9,22.9,9.8,34.3,14.7c0.8,0.4,1.5,0.3,2.2-0.1c21-9.1,42.1-18.1,63.2-27.1c0.1-0.1,0.3-0.1,0.4-0.2
		C177.5,223,177.5,223.9,177.5,224.8z"></path>
	<path d="M178.7,136.4c-21.6,9.3-43.3,18.6-64.9,27.9c-0.8,0.3-1.4,0.3-2.1,0c-21.1-9.1-42.2-18.1-63.3-27.1
		c0,0-0.1,0-0.1,0c-0.1-0.8-0.2-1.6-0.3-2.4c7.6,3.3,15.3,6.5,22.9,9.8c13.6,5.8,27.2,11.7,40.8,17.5c0.8,0.4,1.5,0.2,2.3-0.1
		c21.3-9.1,42.5-18.3,63.8-27.4c0.4-0.2,0.8-0.3,1.2-0.5C179.1,134.9,178.7,135.6,178.7,136.4z"></path>
	<path d="M177.5,216.6c-21.3,9.1-42.6,18.2-63.8,27.4c-0.8,0.3-1.3,0.2-2-0.1c-20.7-8.9-41.5-17.8-62.2-26.6
		c0-0.8,0-1.5,0-2.3c9.7,4.2,19.5,8.3,29.2,12.5c11,4.7,22.1,9.5,33.1,14.2c0.6,0.3,1.1,0.3,1.8,0c16.5-7.1,33-14.2,49.5-21.3
		c4.8-2.1,9.6-4.1,14.4-6.1C177.5,215,177.5,215.8,177.5,216.6z"></path>
	<path d="M179.7,127.7c-11.7,5-23.4,10-35.1,15c-10.3,4.4-20.6,8.8-30.8,13.2c-0.8,0.3-1.4,0.3-2.1,0
		c-21.1-9.1-42.1-18.1-63.2-27.1c-0.4-0.2-0.8-0.3-1.1-0.4c-0.3-0.5-0.2-1.1-0.1-1.7c3.6,1.3,7.1,3,10.7,4.5
		c18,7.7,35.9,15.4,53.9,23.1c0.7,0.3,1.2,0.2,1.8,0c21.7-9.3,43.3-18.6,65-27.9c0.4-0.2,0.9-0.3,1.3-0.5
		C179.9,126.5,179.8,127.1,179.7,127.7z"></path>
	<path d="M177.3,208.3c-20.9,9-41.9,17.9-62.8,26.9c-1.2,0.5-2.2,0.6-3.4,0c-20.2-8.7-40.4-17.4-60.6-26
		c-0.2-0.1-0.5-0.2-0.7-0.3c0-0.6,0-1.1,0-1.6c9.6,4.1,19.2,8.2,28.7,12.3c11.1,4.8,22.2,9.5,33.2,14.3c0.7,0.3,1.3,0.3,2,0
		c20.8-9,41.7-17.9,62.5-26.8c0.3-0.1,0.7-0.3,1-0.4C177.3,207.2,177.3,207.8,177.3,208.3z"></path>
	<path d="M181.1,118.9c-9.1,3.9-18.1,7.7-27.2,11.6c-13.5,5.8-26.9,11.5-40.4,17.3c-0.7,0.3-1.3,0.2-1.9-0.1
		c-21.4-9.2-42.9-18.4-64.4-27.6c-0.4-0.2-0.9-0.4-1.3-0.6c-0.2-0.3-0.1-0.7-0.1-1c6.3,2.7,12.6,5.4,18.9,8.1
		c15.6,6.7,31.2,13.4,46.8,20.1c0.9,0.4,1.5,0.3,2.4,0c22.2-9.6,44.4-19.1,66.7-28.6c0.3-0.1,0.5-0.2,0.8-0.3
		C181.3,118.2,181.2,118.5,181.1,118.9z"></path>
	<path d="M177.2,200.2c-15.9,6.8-31.8,13.6-47.7,20.4c-5.3,2.3-10.7,4.5-16,6.9c-0.7,0.3-1.2,0.3-1.9,0
		c-20.7-8.9-41.3-17.7-62-26.6c0-0.3,0-0.6,0-1c6.9,2.9,13.8,5.9,20.7,8.9c13.8,5.9,27.5,11.8,41.3,17.7c0.7,0.3,1.3,0.3,2,0
		c20.9-9,41.8-18,62.7-26.9c0.3-0.1,0.5-0.2,0.8-0.3C177.2,199.5,177.2,199.8,177.2,200.2z"></path>
	<path d="M47.1,126.6c0,0,0.1,0.1,0.1,0.1C47.2,126.7,47.2,126.6,47.1,126.6z"></path>
</g>
</svg>
