<!--?xml version="1.0" encoding="utf-8"?-->
<!-- Generator: Adobe Illustrator 24.2.3, SVG Export Plug-In . SVG Version: 6.00 Build 0)  -->
<svg version="1.1" id="Camada_1" xmlns="http://www.w3.org/2000/svg" xmlns:xlink="http://www.w3.org/1999/xlink" x="0px" y="0px" viewBox="0 0 229 418" enable-background="new 0 0 229 418" xml:space="preserve">
<g onclick="select(this)" class="" id="estampa-primaria" fill="#71aad4">
	<path d="M42.4525146,112.7778625c-0.8959656-0.1017761-1.4921265,0.6431503-2.3408813,0.7894821
		c-2.3294182,0.4016266-4.6686974,0.4893799-7.0189934,0.5657349c-5.6645355,0.1840439-11.3184147-0.0333939-16.9397697-0.6843262
		c-5.0782709-0.5880508-9.9922829-1.9331818-14.739399-3.8523865c1.6968609-8.914566,2.4887414-17.9633636,4.0001216-26.9052277
		c0.8855782-5.2393951,1.1788788-10.5595551,2.2399788-15.7781677c1.7292542-8.504673,4.4516625-16.5878448,9.6675148-23.6606789
		c2.1221428-2.8776779,4.5377884-5.4906731,7.3400173-7.7103424c1.3638763-1.0803337,2.3639584-2.5835495,3.9253693-3.4050064
		c3.6099453-1.8991852,7.2583332-3.7276974,11.0324497-5.2813187c9.9905014-4.1125946,20.000515-8.1803665,29.4651909-13.4415846
		c1.9752426-1.0979939,3.9976349-2.0948963,5.5164642-3.8997173c0.8439026-1.0028076,2.0582657-1.6470857,3.4946365-1.5515785
		c-0.7558746,0.5328951-1.5331879,1.0660648-1.6987534,2.062746c-0.1725082,1.0384579-0.0040817,2.0608931,0.2305679,3.0806484
		c0.8830185,3.837533,3.1326141,6.8899431,5.7837296,9.6242762c4.1407776,4.2707672,9.0156021,7.5629692,14.3707428,10.1524506
		c3.6889725,1.783802,7.5359039,2.990303,11.6402817,3.2895241c0.3121796,0.0227585,0.7304688,0.2811508,0.9042816-0.2512054
		c0.4935303,0.34338,1.0183792,0.5796623,1.6344376,0.6280861c2.3348923,0.1835098,4.6674423,0.3629379,6.9804306-0.1974907
		c1.4196167-0.1702423,2.8583298-0.2460022,4.2553558-0.5279999c4.6530914-0.9392471,8.8572388-3.0047417,12.9284058-5.3568268
		c3.3010712-1.907156,6.3566895-4.1787777,9.102417-6.8089809c3.0971222-2.9667912,5.4711609-6.4257278,6.6416321-10.6471872
		c0.6194-2.2338791,0.0160675-4.2730255-1.6763763-4.744153c1.9420929-0.322947,3.1181183,0.8977289,4.248703,2.1526375
		c0.3474121,0.3856363,0.6847076,0.7271471,1.1279755,1.0213566c8.8716431,5.8886719,18.7898102,9.6126652,28.5267792,13.6823082
		c5.0673981,2.11796,10.038208,4.4440956,15.0911713,6.5874882c0.2853394,0.1210365,0.5591431,0.2838707,0.8124237,0.4636726
		c11.9666901,8.4952011,19.1779327,20.08321,21.3682709,34.4821701c1.7443542,11.4671555,4.7389374,22.6825333,6.318634,34.166687
		c0.3372803,2.4519806,0.734375,4.8957443,1.1039429,7.3433762c-0.6231995,0.2587509-1.2245331,0.6173401-1.8733063,0.7590942
		c-3.0727844,0.6713867-5.9807739,1.8872681-9.0736084,2.5406494c-3.9409485,0.8325424-7.895462,1.5586319-11.8859558,1.9935684
		c-5.5944672,0.6097641-11.2156982,0.2853394-16.8232422,0.0108337c-1.0757751-0.0526581-2.1148071-0.3867111-3.0544434-0.9562912
		c0.9133911-6.7970581,2.1953278-13.5191116,4.0814209-20.1194687c0.1157684-0.4051895,0.4060059-0.7978287,0.1864471-1.257576
		c0.2286835,0.013588,0.220459-0.1446915,0.208313-0.2966614c-0.0024261-0.0302887-0.0488129-0.0570526-0.0749512-0.0854416
		c-0.0375671,0.1338348-0.0751343,0.267662-0.1127014,0.4015045c-0.3382111,0.0892105-0.3290253,0.4327927-0.4303589,0.6598129
		c-2.0418243,4.5738068-3.5193329,9.3472748-4.7613068,14.1821518c-2.4084015,9.3755341-3.9837952,18.8970871-4.9313965,28.5371094
		c-0.4706268,4.7878876-0.8178406,9.5828094-1.1401062,14.3773499c-0.3235474,4.8140259-0.4896545,9.6474457-0.4935303,14.4725189
		c-0.0137329,17.0256653-0.293335,34.0512085,0.1540527,51.0777435c0.191925,7.3041687,0.2595215,14.6112518,0.5149689,21.9160767
		c0.170105,4.8651276,0.3197784,9.7314301,0.4851532,14.597168c0.2033081,5.9811401,0.4586487,11.9578552,0.7411346,17.9355164
		c0.2373199,5.0215149,0.4161835,10.0449524,0.8100586,15.0577393c-7.654129,1.0699463-15.3581696,1.3612976-23.0732422,1.4522095
		c-12.9472198,0.1525879-25.8881531,0.5621033-38.8301086,0.9285583c-6.7608643,0.1914368-13.4958496-0.465271-20.2470093-0.5768127
		c-8.7105942-0.1439209-17.4220123-0.2460938-26.1319199-0.4232483c-8.3101959-0.1690063-16.6230583-0.3526306-24.8476982-1.7511597
		c0.5422516-3.7596436,0.4815598-7.5604248,0.7390556-11.3394775c0.3821983-5.6092529,0.5796967-11.2329712,0.7604179-16.8535767
		c0.1423416-4.4268494,0.2932549-8.852417,0.473175-13.2781372c0.2545853-6.2624054,0.3896675-12.5300751,0.535202-18.7964172
		c0.0927391-3.9929047,0.1909142-7.9915466,0.1893997-11.9799347c-0.00811-21.4069519,0.6336784-42.8216705-0.6577225-64.2175446
		c-0.2539635-4.2076416-0.5594025-8.4050293-0.9685097-12.6003418c-0.4473228-4.5871887-1.0582695-9.1419525-1.8283081-13.6878357
		c-1.0712128-6.3238525-2.2926559-12.6049652-4.1846809-18.7393494c-0.5815163-1.8854294-1.0368538-3.8216553-1.9383469-5.6982117
		c-0.5278625,0.8900604,0.2040977,1.4512558,0.2923431,2.1296234c0.3710556,2.852478,0.8811569,5.6868515,1.2544365,8.5390854
		C42.1011581,108.9703293,42.5416451,110.8479462,42.4525146,112.7778625z"></path>
	<path d="M127.5429077,26.2013454c-6.4310379-0.0194588-12.8620758-0.0499077-19.2931213-0.0533142
		c-2.8337784-0.0015011-5.6675949,0.0519543-8.5014725,0.080719c-5.0048599-4.1429901-10.5227814-7.7175179-14.446312-13.0585613
		c-0.7870941-1.0714455-1.3979874-2.228776-1.9132462-3.447176c-0.3056183-0.7226677-0.0586929-0.9086885,0.6669769-0.8316221
		c7.1110229,0.755187,14.2389526,1.3106298,21.3717041,1.816123c5.5933609,0.3963957,11.1826706,0.3527241,16.7722092-0.018959
		c5.381424-0.3578434,10.7616425-0.7339849,16.1413574-1.1168613c1.9062347-0.1356678,3.8093567-0.3148613,5.8538818-0.4858923
		c-0.84935,2.3374853-2.1702576,4.2213564-3.6611938,5.995595c-1.937149,2.3052006-4.1574707,4.311861-6.5503387,6.1364632
		C131.8248596,22.8637238,129.6888275,24.5390263,127.5429077,26.2013454z"></path>
</g>
<g onclick="select(this)" class="" id="estampa-secundaria" fill="#082890">
	<path fill-rule="evenodd" clip-rule="evenodd" d="M31.3700027,47.7303276h124.3015823l-0.4848175,0.4422722
		h15.483078l-0.1692657,0.2283134h25.1893005l-0.0613708,0.6729431l-25.6979218,0.0936623l-0.0961304,0.1318436
		l-15.9339447,0.0410614l-0.4337006,0.4012146H31.3699989L31.3700027,47.7303276z M151.2454376,52.7009087l0.4337006-0.4012108
		l15.9339447-0.0410614l0.0961304-0.1318436l25.6979218-0.0936661l0.1389465-0.1831474h2.0739136l0.0698853-0.3067818h-1.9110565
		l0.1388397-0.1830101h-25.6384583l0.1692657-0.2283134h-15.483078l0.4848175-0.442276l-121.855217-0.0013657l0.3600101,2.0113182
		L151.2454376,52.7009087z M149.0503845,55.6381798l0.4336853-0.4012108l15.93396-0.0410652l0.0961304-0.1318398
		l25.6979065-0.0936661l0.1389465-0.1831474h3.6539917l0.0599976-0.3067818h-3.4812469l0.1388397-0.1830101H166.084137
		l0.169281-0.2283134H150.77034l0.4848175-0.442276H32.1349983l0.0449982,2.0113106H149.0503845z M146.8514709,58.6146851
		l0.2958527-0.2794456h15.989212l0.1585693-0.2139587h25.6385956l0.1631622-0.1813622l5.7806396-0.000782l0.0112457-0.3049088
		h-5.5168762l0.1799622-0.2000313h-25.7475586l0.1672668-0.2257156h-15.6249084l0.64328-0.6050034H32.3150063l-0.0900078,2.0112076
		H146.8514709z M144.6472778,61.5724831l0.417572-0.393528h15.9809265l0.1311798-0.1807289h25.6632843l0.116806-0.1360893
		l7.9317017-0.0009956v-0.3046989h-7.669342l0.1959991-0.2283859h-25.7520142l0.2001495-0.2757568h-15.6173553l0.516571-0.491127
		H32.4050026l0.0900002,2.0113106H144.6472778z M142.4785461,64.4887009l0.417572-0.3935318h15.9809265l0.1311798-0.1807289
		h25.6632843l0.1167908-0.1360893l9.9359283-0.0011482l0.0254211-0.3045464h-9.6989899l0.1960144-0.2283859h-25.7520142
		l0.2001495-0.2757568h-15.6173553l0.5165558-0.491127H32.5400047l0.1799965,2.0113144H142.4785461z M140.2045288,67.45755
		l0.417572-0.3935318h15.9809265l0.1311798-0.1807251h25.6632843l0.1167908-0.1360931l12.0107269-0.0012817l0.0449982-0.3044052
		h-11.7933655l0.1960144-0.2283859h-25.7520142l0.2001495-0.2757645h-15.6173553l0.5165558-0.4911194H32.6749992
		l-0.045002,2.0113068H140.2045288z M137.9620972,70.4895706l0.417572-0.3935242h15.9809265l0.1311798-0.1807327h25.6632843
		l0.1167908-0.1360855l14.3581543-0.0014267l0.0449982-0.3042679h-14.1407928l0.1960144-0.2283859h-25.7520142l0.2001495-0.2757568
		h-15.6173553l0.5165558-0.491127h-107.58255l-0.0000076,2.0113068H137.9620972z M135.7512512,73.4268417l0.417572-0.3935318
		h15.9809265l0.1311798-0.1807251h25.6632843l0.1167908-0.1360931l16.4902496-0.0015259l0.0449982-0.3041611h-16.2728882
		l0.1960144-0.2283859h-25.7520142l0.2001495-0.2757645h-15.6173553l0.5165558-0.4911194H32.4500008l-0.090004,2.0113068
		H135.7512512z M133.5614624,76.3727646l0.417572-0.3935318h15.9809113l0.1311798-0.1807251h25.6632843l0.116806-0.1360931
		l18.353775-0.0016022l0.0450134-0.3040924h-18.1364288l0.1960144-0.2283783h-25.7520294l0.2001648-0.2757645h-15.6173553
		l0.5165558-0.4911194H32.6300049l0.3149986,2.0113068H133.5614624z M131.2874451,79.3626709l0.417572-0.3935242h15.9809265
		l0.1311646-0.1807327h25.6632843l0.116806-0.1360855l20.1529236-0.0016632l0.0903473-0.3040314h-19.9809113l0.1960144-0.2283859
		h-25.7520294l0.2001648-0.2757568h-15.6173553l0.5165558-0.491127H33.3050003l0.6750031,2.0113068H131.2874451z
		 M129.097641,82.2687302l0.4175873-0.3935318h15.9809113l0.1311798-0.1807251h25.6632843l0.116806-0.1360931l21.5126038-0.0016785
		l0.0899963-0.3040161h-21.3402405l0.1960144-0.2283859h-25.7520294l0.2001648-0.2757568h-15.6173553l0.5165558-0.491127H34.4750023
		l1.034996,2.0113144H129.097641z M127.0763016,85.132309l0.417572-0.3935318h15.9809189l0.1311798-0.1807327h25.6632843
		l0.116806-0.1360855l22.4839325-0.0016708l0.2100067-0.3040237h-22.4315796l0.1960144-0.2283859h-25.7520294l0.2001648-0.2757568
		h-15.6173553l0.5165558-0.491127H35.7350006l0.6749992,2.0113144H127.0763016z M124.654892,88.1643295l0.4175797-0.3935318
		h15.9809189l0.1311798-0.1807327h25.6632843l0.1167908-0.1360855l23.7053528-0.0016708l0.1800079-0.3040237h-23.6229858
		l0.1959991-0.2283859h-25.7520142l0.2001495-0.2757568h-15.6173477l0.5165558-0.491127H36.7249947l0.8549995,2.0113144H124.654892z
		 M122.4229889,91.1542358l0.417572-0.3935318h15.9809265l0.1311798-0.1807251h25.6632843l0.1167908-0.1360931L189.5,90.4422302
		l0.1199951-0.304039h-24.6248932l0.1960144-0.2283859h-25.7520142l0.2001495-0.2757568h-15.6173553l0.5165634-0.491127H37.8949966
		l0.8549995,2.0113144H122.4229889z M120.2542496,94.0809784l0.4175797-0.3935318h15.9809265l0.1311798-0.1807251h25.663269
		l0.116806-0.1360931l25.9609833-0.0016632l0.1200104-0.3040314h-25.818634l0.1960144-0.2283859h-25.7520294l0.2001648-0.2757568
		h-15.6173553l0.5165558-0.491127H38.8399963l0.6300049,2.0113144H120.2542496z M117.9802399,97.0498352l0.417572-0.3935318
		h15.9809265l0.1311798-0.1807327h25.6632843l0.1167908-0.1360855l27.5599976-0.0016937l0.0600128-0.3040009h-27.3576508
		l0.1960144-0.2283859h-25.7520294l0.2001648-0.2757568h-15.6173553l0.5165558-0.491127H39.6949959l0.4050064,2.0113144H117.9802399
		z"></path>
	<path fill-rule="evenodd" clip-rule="evenodd" d="M183.244812,132.0215607h-17.196228l-0.1270752,0.1303101
		h-15.9215851l-0.4914246,0.3407745H44.7894096l-0.1879654-1.5288696h107.1118317l-0.4780426,0.3315125h15.5215759
		l-0.2093506,0.2146759h16.7425842L183.244812,132.0215607z M183.1019287,133.7506714H164.362442l0.1910553-0.1959229h-15.5522461
		l0.4847565-0.3361511H44.8731918l0.1596718,1.5288696h102.2483521l0.4847565-0.3361511h15.95224l0.1453705-0.1490784h19.1989899
		L183.1019287,133.7506714z M182.9319,136.1038666h-20.8643494l0.1726074-0.1770325h-15.6447449l0.663147-0.4598389H45.0983315
		l0.1137505,1.5288544h99.8416901l0.306366-0.2124329h16.044754l0.1637878-0.1679688h21.3299408L182.9319,136.1038666z
		 M182.7984772,138.2973328h-22.8697662l0.2034607-0.2086334h-15.6389771l0.5381775-0.3731842H45.2518463l0.0500298,1.5288391
		h97.5247345l0.4312897-0.2990723h16.0389862l0.1329803-0.1363525h23.3409119L182.7984772,138.2973328z M182.6892395,140.4828186
		h-24.8913879l0.1782837-0.1828308h-15.6703339l0.4985046-0.3456879H45.3093452l0.0107651,1.5288544h95.2794342l0.4709625-0.3265839
		h16.0703583l0.1581268-0.1621552h25.3680573L182.6892395,140.4828186z M181.2882233,142.797821h-25.7477875l0.2070618-0.212326
		h-15.7086792l0.5381165-0.3731384H45.3249359l0.0094337,1.5288391h93.0378113l0.4313965-0.2991333h16.1086426l0.1293793-0.1326752
		h25.736084l0.1119995-0.1122284h1.6963806l0.0070496-0.2330627h-1.4708252L181.2882233,142.797821z M179.2132416,145.0783691
		h-25.8962402l0.1897278-0.1945801h-15.7671814l0.6101532-0.423111H45.3385315l0.0082397,1.5288696h90.7981567l0.359314-0.2491608
		h16.1672058l0.1466827-0.1504364h25.8845825l0.1150818-0.1153107l3.7090759,0.0000153l0.0049133-0.233078h-3.4814148
		L179.2132416,145.0783691z M176.9627075,147.2550507h-25.7685699l0.1400299-0.1436005h-15.7919159l0.5801849-0.4023132h-90.772049
		l0.0071831,1.5288696h88.5600815l0.3893127-0.2699585h16.191925l0.1963959-0.201416h25.756897l0.1390533-0.1393433
		l5.902298,0.0000153l0.0025482-0.2330627h-5.6722717L176.9627075,147.2550507z M174.5889893,149.6121216h-25.693222
		l0.1977692-0.2028351h-15.8495789l0.6513062-0.4516449H45.3607216l0.0062485,1.5288696h86.3235016l0.3181915-0.2206421h16.2496033
		l0.1386414-0.1421814h25.6815643l0.1387024-0.1389923l8.2954102,0.0000458l-0.0071564-0.233078h-8.0557098L174.5889893,149.6121216
		z M172.4790344,151.8008118h-25.5604095l0.167511-0.1717987h-16.0281067l0.6100769-0.4230499H45.3697205l0.0054588,1.5288544
		h84.0881348l0.3975983-0.2757111v0.0264893h16.3899384l0.1688995-0.1731873h25.5487518l0.1390686-0.1393738l10.5527649,0.0000458
		l-0.0236359-0.2330627h-10.2965698L172.4790344,151.8008118z M170.3074951,154.0043182h-25.6947937l0.186676-0.191452h-15.8754272
		l0.5168762-0.3584137H45.3775787l0.0048065,1.5288544h81.8536606l0.4526443-0.3138733h16.2754211l0.1497192-0.1535339h25.683136
		l0.1539612-0.1542816l13.046051,0.000061l-0.0465851-0.2330933h-12.766922L170.3074951,154.0043182z M168.1536407,156.1972046
		h-25.6789246l0.1981964-0.2032471h-15.8791504l0.419838-0.2911224H45.3845024l0.0042686,1.5288696h79.6200409l0.5496597-0.3811493
		h16.2791443l0.1382294-0.1417542h25.6672516l0.1096649-0.1098785l15.3993988,0.000061l0.0086975-0.233078h-15.1755676
		L168.1536407,156.1972046z M166.1391144,158.4461517h-25.6129608l0.1807098-0.185318h-16.1667175l0.4463959-0.3095398H45.3906784
		l0.0038757,1.5288696h77.3871994l0.6998901-0.4853363v0.1225739h16.3899384l0.1557007-0.1596527h25.6013184l0.1390991-0.139389
		l17.1714783,0.000061l0.0265656-0.2330627h-16.9655304L166.1391144,158.4461517z M163.545517,160.9014282h-25.5930634
		l0.2029877-0.2081604h-16.1080322l0.7117462-0.4935608h-77.352417v1.5288696h75.1476364l0.3758392-0.2606354v0.0818939h16.389946
		l0.1334229-0.1368256h25.5814209l0.1391144-0.1394043l19.5484314,0.0000763l0.0239105-0.2330627h-19.3398438
		L163.545517,160.9014282z M161.4682617,163.0007477h-25.4551086l0.1998749-0.2049713h-16.1826859l0.5013733-0.3476715H45.4067459
		l-0.0000038,1.5288544h72.9201965l0.6609039-0.4582977v0.1336975h16.3899231l0.1365204-0.1400146h25.4434662l0.1391144-0.1394196
		l21.5891266,0.0000916l-0.0044403-0.2330627H161.329361L161.4682617,163.0007477z M159.289032,165.2809906h-25.5915527
		l0.1839752-0.1886597h-16.1475677l0.5706635-0.3957062H45.4067459l0.0035057,1.5288391h70.6895142l0.5564651-0.3858643v0.1093292
		h16.3899231l0.1524506-0.1563416h25.5799103l0.1152496-0.1154938l23.7992706,0.0000916l0.0019684-0.2330933h-23.5687408
		L159.289032,165.2809906z M183.5079041,129.2314758h-14.7387238l0.1692963-0.1735992h-15.4829865l0.4847412-0.3361206H44.312027
		l0.1981926,1.5288544h107.2252197l0.4848022-0.3361664h15.8829498l0.1671295-0.171402h15.1863098L183.5079041,129.2314758z"></path>
	<g onclick="select(this)">
		<path fill-rule="evenodd" clip-rule="evenodd" d="M183.2228241,194.9864502H165.83461l-0.1671143,0.1368561
			h-15.8830872l-0.4846649,0.2683868H45.3335724l0.0647469-1.2208862h106.1061859l-0.4846954,0.2684021h15.4829559
			l-0.1693268,0.1386871h16.8013153L183.2228241,194.9864502z M183.5328064,196.3973694h-19.416687l0.2049561-0.1678467h-15.5187531
			l0.475235-0.2631531H45.3498802l0.1283531,1.220871h101.5945358l0.4941406-0.2736206h15.9188843l0.1314697-0.1076813h19.9985504
			L183.5328064,196.3973694z M183.8677673,198.1866455h-21.9410248l0.1910248-0.1564636H146.565567l0.4847107-0.2684021H45.5061188
			l-0.1475639,1.2208862h99.4869385l0.4846802-0.2683716h15.9523315l0.145401-0.1190948h22.5061035L183.8677673,198.1866455z
			 M184.141571,200.0615692h-24.5052948l0.1682281-0.1377716h-15.6434479l0.6617737-0.3664551H45.2054482l-0.4236374,1.220871
			h97.8362427l0.3075714-0.1703186h16.0435791l0.1682281-0.1377716h25.053772L184.141571,200.0615692z M183.2483368,201.8174744
			h-25.7552795l0.2034607-0.1666412h-15.6509552l0.5501099-0.3046265H44.5861435l-0.397213,1.2208862h96.2019501
			l0.4192505-0.2321625h16.0510864l0.1329651-0.108902h25.7436523l0.1040497-0.0832672h1.5165253l-0.0158081-0.1861115h-1.2681732
			L183.2483368,201.8174744z M180.962677,203.5627289h-25.5904236l0.1682281-0.1377716h-15.671402l0.4996338-0.2766571H44.0112991
			l-0.3473473,1.220871h94.4999847l0.4697266-0.2601166h16.0715179l0.1682434-0.1377869h25.5787506l0.1589203-0.127182
			l3.8606567,0.0000153l-0.0097198-0.1861267h-3.6183929L180.962677,203.5627289z M178.8524933,205.411377h-25.747818
			l0.2071228-0.169632h-15.7084808l0.5379486-0.2978973H43.5128365l-0.2938461,1.220871h92.7174988l0.4313965-0.2388763h16.1086273
			l0.129303-0.105896h25.7361755l0.1120911-0.0897064l6.0803833,0.0000153l-0.0033722-0.1861267h-5.8444672L178.8524933,205.411377z
			 M176.7775269,207.2324371h-25.9046326l0.1982117-0.1623383h-15.7544403l0.5973358-0.3307648H43.0938263l-0.2370148,1.2208862
			h90.8524017l0.3720245-0.2060089h16.1546021l0.1662903-0.1362152v0.022995h25.8648987l0.1150208-0.0920715l8.1541901,0.0000305
			l0.0024872-0.1860962h-7.9241638L176.7775269,207.2324371z M174.5269928,208.9691467h-25.7665863l0.1380463-0.1130371h-15.7919159
			l0.5801849-0.3212891H42.7591324l-0.1772041,1.2208862h88.9000244l0.3891602-0.2154999h16.1920471l0.1984253-0.1625061h25.7549133
			l0.1371155-0.109726l10.3351135,0.0000305l0.0073547-0.1860962h-10.1099701L174.5269928,208.9691467z M172.1533051,210.8532562
			h-25.6935883l0.1981659-0.1622925h-15.8496246l0.6513062-0.3606567H42.5132332l-0.1147385,1.2208862h86.8562775
			l0.3180695-0.1761322h16.2497406l0.1383057-0.113266h25.6819153l0.1390686-0.1112976l12.6037903,0.0000458l0.0124359-0.1861267
			h-12.3836975L172.1533051,210.8532562z M170.0433197,212.6097107h-25.571991l0.1791229-0.146698h-16.0270386l0.6089783-0.3372192
			H42.3594627l-0.0503731,1.2208862h84.7185211l0.397644-0.2201843v0.0206146h16.3899307l0.1573181-0.1288452h25.560318
			l0.1502075-0.120224l14.5629883,0.0000458l0.0167694-0.1861115h-14.347229L170.0433197,212.6097107z M167.8717804,214.3604126
			h-25.6908875l0.1828003-0.1497192h-15.8811951l0.522644-0.2894135H42.3090935l-0.0042877,1.2208557h82.495575l0.4466934-0.247345
			h16.2813492l0.1536407-0.125824h25.6792145l0.1540222-0.1232758l16.5523834,0.000061l0.0207367-0.1860962h-16.3406372
			L167.8717804,214.3604126z M165.7179108,216.1115875h-25.678894l0.1982117-0.1623383h-15.8791885l0.4198303-0.2324829H42.3187103
			l0.0502243,1.2208862h80.2041779l0.5495224-0.304306h16.2793121l0.1382141-0.1131897h25.6672516l0.1097107-0.0877991
			l18.531662,0.000061l0.0244293-0.1861267h-18.3236084L165.7179108,216.1115875z M163.7035217,217.9062195H138.09198
			l0.1791992-0.146759h-16.1666946l0.4463272-0.2471619H42.4011688l0.083744,1.2208862h77.8611145l0.5230255-0.2896271h16.5668411
			l0.1572418-0.1287689h25.599884l0.1375732-0.1101227l20.2817078,0.0000763l0.0218201-0.1860962h-20.0710907
			L163.7035217,217.9062195z M161.1098175,219.8681335h-25.5930481l0.2029419-0.166214h-16.1080322l0.7117538-0.3941345H42.5303116
			l0.1058578,1.2208862h75.4825058l0.2576065-0.1426544h16.5081482l0.1334839-0.109314h25.5814056l0.1391296-0.1113586
			l22.7507935,0.0000763l0.0017548-0.1860962h-22.5201111L161.1098175,219.8681335z M159.0325623,221.5445709h-25.4943695
			l0.1998749-0.1636963h-16.1267471l0.4846725-0.2683868H42.6901245l0.1165123,1.2208862h73.0845642l0.4847107-0.2684021h16.5268555
			l0.1365509-0.1118317h25.4827423l0.1391296-0.1113586l24.9309692,0.0000763l-0.023056-0.1860962H158.893631
			L159.0325623,221.5445709z M156.8533325,223.3654022h-25.5914612l0.1838531-0.1505737h-16.147522l0.5707321-0.31604H42.8611412
			l0.1155586,1.2208557h70.6874466l0.3986053-0.2207184h16.5476913l0.1525726-0.1249542h25.5798187l0.1152039-0.0922089
			l27.5400391,0.0000916l-0.0567017-0.1861267h-27.250885L156.8533325,223.3654022z"></path>
	</g>
	<g onclick="select(this)">
		<path d="M185.4080963,246.6985931l-19.4832916-0.0001221l-0.1673126,0.1028442h-15.8829346l-0.4848175,0.2015381
			H42.1099205l0.062664-0.9164734h109.4219131l-0.4845581,0.201416h15.4828339l-0.1694336,0.1041718h18.9426117
			L185.4080963,246.6985931z M156.9433289,268.002594h-25.6048584l0.1972504-0.1140137h-16.0523148l0.4755249-0.2372742H41.0153923
			l-0.0615845,0.9164734h73.1684113l0.3320999-0.1657104h16.1929932l0.1664429-0.0962219l25.6015625-0.0002747l0.1180878-0.067749
			l29.986908-0.0002136l-0.0116119-0.1378479h-29.734726L156.9433289,268.002594z M159.1225586,266.6375732h-24.8286133
			l0.3552856-0.1257324h-16.886055l0.4228134-0.2084351H41.1068039l-0.0622635,0.9165039h75.2822418l0.3947525-0.1945801h16.4767532
			l0.2366791-0.0837402l25.1881104-0.0002136l0.1394348-0.0847778l27.6368256-0.0002136l-0.0115814-0.1378479h-27.3983154
			L159.1225586,266.6375732z M161.1998138,265.3719177h-25.6010132l0.210907-0.1203308h-16.0040131l0.6077423-0.29599h-79.214325
			l-0.0628662,0.916626h77.3950195l0.2200317-0.1071777h16.158371l0.1537781-0.0877075h25.6264648l0.1323242-0.0792847
			l25.4746552-0.0002136l-0.0107727-0.1377563h-25.23349L161.1998138,265.3719177z M163.7935181,263.9042664h-25.620575
			l0.1882324-0.1108398h-16.105629l0.3852692-0.1855774H41.2921867l-0.0633659,0.9165344h79.509407l0.451561-0.2175293h16.2993622
			l0.1652374-0.09729h25.567749l0.1557312-0.0832214l22.8078308-0.0001526l-0.0099945-0.1379395h-22.5393524
			L163.7935181,263.9042664z M165.8079071,262.5570374H140.128006l0.1992188-0.122406h-15.8263245l0.3669739-0.1745911H41.3859062
			l-0.0637894,0.9164734h81.6194153l0.4802322-0.2284851h16.0700378l0.1392365-0.0855713h25.6016083l0.1254425-0.0665894
			l20.7342377-0.0001526l-0.0093079-0.1378784h-20.4649658L165.8079071,262.5570374z M167.9617767,261.2425842h-25.6959229
			l0.187851-0.1154785h-15.8165207l0.457962-0.2148743H41.4801559l-0.0641403,0.9165649h83.7255249l0.4013901-0.1882935h16.0757675
			l0.1506042-0.0926208h25.6174011l0.1755066-0.0931702l18.4421234-0.0001526l-0.008728-0.13797h-18.1732178
			L167.9617767,261.2425842z M170.1333313,259.9284363h-25.5800781l0.1871948-0.1104431h-15.9636841l0.545639-0.2536621H41.5747681
			l-0.0643921,0.9166565h85.8403168l0.3213501-0.1493835h16.1977997l0.1659546-0.0979004h25.5223389l0.1712494-0.0908813
			l16.1941071-0.0001221l-0.0082245-0.13797h-15.925705L170.1333313,259.9284363z M172.2433014,258.6096497h-25.6941376
			l0.1987152-0.1221313h-15.7867126l0.5883942-0.2709045H41.669632l-0.0645294,0.9165039h87.9536743l0.2871552-0.1322021h16.0667419
			l0.1396942-0.0858459h25.6158752l0.1584015-0.084137l14.0204926-0.0000916l-0.0077972-0.1379089h-13.7528381
			L172.2433014,258.6096497z M174.6170044,257.1943359h-25.7575989l0.1290436-0.0843506h-15.7422028l0.5304871-0.2412415H41.7646294
			l-0.0646057,0.9165649h90.0610199l0.3559723-0.1618652h16.0860901l0.1892548-0.1237183h25.6495514l0.1542053-0.0819092
			l11.5729828-0.000061l-0.007431-0.1378784h-11.3057861L174.6170044,257.1943359z M176.8675385,255.8918152h-25.892746
			l0.1863251-0.1174011l-15.7177734-0.0011597l0.5606537-0.2522125H41.8596001l-0.064579,0.9164886h92.1716995l0.335022-0.1507263
			l16.0442657,0.0011902l0.1439667-0.0906982h25.8025818l0.1315002-0.0698853l9.277832-0.000061l-0.0059662-0.1380615h-9.0118713
			L176.8675385,255.8918152z M178.9424896,254.5248871h-25.7489624l0.2082672-0.128006h-15.6741028l0.5035858-0.2237091H41.95298
			l-0.0630035,0.9166412h94.2777481l0.4040222-0.1794586h15.9947662l0.130249-0.0800629h25.6704559l0.1282501-0.0680695
			l7.1663055-0.000061l-0.0019989-0.138092h-6.9040985L178.9424896,254.5248871z M181.0526733,253.1371155h-25.6013031
			l0.1791077-0.1101074h-15.631546l0.4597778-0.2016449H42.0354195l-0.0543747,0.9165344h96.3877716l0.4594421-0.2014771h15.9671173
			l0.1592865-0.0979309h25.5228271l0.1811371-0.0961761l4.9961243-0.0000305v-0.13797h-4.7361908L181.0526733,253.1371155z
			 M183.3383331,251.8271179h-25.7521362l0.2003174-0.1257629H142.169281l0.5163879-0.2237091H42.0965614l-0.038765,0.9164886
			h98.5124512l0.4140015-0.1793671h15.984436l0.1311951-0.0823517h25.6632843l0.1192169-0.0632629l2.7722473-0.0000305
			l0.0001221-0.1380463h-2.5122833L183.3383331,251.8271179z M185.4747925,250.5083923h-25.7476349l0.1673431-0.1029053h-15.6249695
			l0.6432953-0.2757263H42.1261101l-0.0161896,0.9165649h100.664505l0.2972717-0.1274261h15.9878082l0.1601257-0.098465
			l25.6369781,0.0009766l0.1657867-0.0839539h0.6274261l-0.0016022-0.13797h-0.3533325L185.4747925,250.5083923z
			 M185.6080475,249.1012115h-23.5876923l0.1874237-0.1177216h-15.5423584l0.4748535-0.2015381H42.1099243l0.0173111,0.9165802
			h102.8533249l0.4748535-0.2015228h15.9347687l0.1430206-0.0898285l24.0870514,0.0000916L185.6080475,249.1012115z
			 M185.5222015,247.7587433h-21.3292389l0.2181091-0.1296844l-15.5088654,0.0005493l0.4653473-0.1954193H42.1128197
			l-0.0049515,0.9164581h105.0774078l0.4944153-0.2076416l15.8680267-0.0005798l0.1391449-0.0827332l21.8596802-0.0005188
			L185.5222015,247.7587433z"></path>
	</g>
</g>
<g onclick="select(this)" class="" id="gola-primaria" fill="#71aad4">
	<path d="M109.3256989,35.9207878c-0.1734467,0.532753-0.5917358,0.2743607-0.9039154,0.2516022
		c-4.1043777-0.299221-7.9513092-1.505722-11.6402817-3.2895241c-5.3551407-2.5894814-10.2299652-5.8816833-14.3707428-10.1524506
		c-2.6511154-2.734333-4.9007111-5.7867432-5.7837296-9.6242762c-0.2346497-1.0197554-0.4030762-2.0421906-0.2305679-3.0806484
		c0.1655655-0.9966812,0.9428787-1.529851,1.6987534-2.062746c0.5144196-0.0249214,0.9029312-0.3084855,1.2525024-0.6408176
		c0.9263763-0.8806958,2.0002518-1.6613083,2.7274628-2.6858997c2.0422745-2.8774152,5.0195923-3.6035271,8.2394028-3.9384618
		c3.0734558-0.3197089,6.1407471,0.0640202,9.2119827,0.0276009c4.3973541-0.0521445,8.7971802,0.0443054,13.1931534-0.0513445
		c7.9102249-0.1721148,15.8182297,0.0474188,23.7272263,0.0364116c0.9124146-0.0012698,1.828537,0.1745476,2.7369537,0.3088157
		c2.2481232,0.332287,4.1498718,1.1915944,5.5701294,3.1200867c1.2012482,1.6310925,2.6129456,3.1247711,4.4388733,4.1271977
		c1.6919098,0.471426,2.2952423,2.5105724,1.6758423,4.7444515c-1.1704712,4.2214594-3.5445099,7.6803961-6.6416321,10.6471872
		c-2.7457275,2.6302032-5.8013458,4.901825-9.102417,6.8089809c-4.071167,2.3520851-8.2753143,4.4175797-12.9284058,5.3568268
		c-1.3970261,0.2819977-2.8357391,0.3577576-4.2551346,0.5281792c0.4981461-1.1476097,1.3241043-2.0655403,2.1212006-3.0007629
		c2.248703-2.6383533,4.9448242-4.810585,7.4805527-7.1498508c2.1459198-1.6623192,4.2819519-3.3376217,6.4404449-4.9834862
		c2.392868-1.8246021,4.6131897-3.8312626,6.5503387-6.1364632c1.4909363-1.7742386,2.8118439-3.6581097,3.6611938-5.995595
		c-2.0445251,0.171031-3.9476471,0.3502245-5.8538818,0.4858923c-5.379715,0.3828764-10.7599335,0.7590179-16.1413574,1.1168613
		c-5.5895386,0.3716831-11.1788483,0.4153547-16.7722092,0.018959c-7.1327515-0.5054932-14.2606812-1.060936-21.3717041-1.816123
		c-0.7256699-0.0770664-0.9725952,0.1089544-0.6669769,0.8316221c0.5152588,1.2184,1.126152,2.3757305,1.9132462,3.447176
		c3.9235306,5.3410435,9.441452,8.9155712,14.446228,13.0588207
		C103.1151276,29.2874451,106.6069336,32.222599,109.3256989,35.9207878z"></path>
</g>
<g onclick="select(this)" class="" id="detalhe-lateral" fill="#082890">
	<path d="M180.3169098,283.9697266c-0.3938751-5.0127869-0.5727386-10.0362244-0.8100586-15.0577393
		c-0.282486-5.9776611-0.5378265-11.9543762-0.7411346-17.9355164c-0.1653748-4.8657379-0.3150482-9.7320404-0.4851532-14.597168
		c-0.2554474-7.3048248-0.3230438-14.611908-0.5149689-21.9160767c-0.4473877-17.026535-0.1677856-34.0520782-0.1540527-51.0777435
		c0.0038757-4.8250732,0.1699829-9.658493,0.4935303-14.4725189c0.3222656-4.7945404,0.6694794-9.5894623,1.1401062-14.3773499
		c0.9476013-9.6400223,2.522995-19.1615753,4.9313965-28.5371094c1.2419739-4.834877,2.7194824-9.608345,4.7613068-14.1821518
		c0.1013336-0.2270203,0.0921478-0.5706024,0.4303741-0.6598129l-0.0207214-0.0194473
		c0.2196045,0.4597931-0.0706329,0.8524323-0.1864014,1.2576218c-1.8860931,6.6003571-3.1680298,13.3224106-4.0814209,20.1194611
		c-0.4264069,2.5465698-0.4257202,5.1188202-0.4629211,7.688797c-1.2378235,10.3072052-2.2989655,20.6278992-1.9510498,31.0315857
		c0.0821381,2.4562225,0.7914734,4.8716583,0.4144745,7.3699951c-0.3516235,2.3302765-0.4445953,4.684967-0.4245453,7.0450745
		c0.0559845,6.582428,0.098587,13.1757202-0.1155396,19.7438812c-0.1456757,4.4695435,0.7072906,8.6924438,1.4236298,12.9963837
		c0.8506927,5.1109314,0.9480896,10.2349701,0.2398224,15.3761444c-0.3209076,2.3293762-0.54039,4.6726532-0.8144379,7.008606
		c-0.0490723,0.4181976,0.1008759,0.7893066,0.2301788,1.1618195c1.989563,5.7316895,2.4832916,11.6064911,1.5848999,17.5875092
		c-0.3058167,2.0359802-0.3425293,4.0207977,0.0992279,6.0381927c0.4457397,2.035675,0.5504761,4.1139832,0.5100098,6.1976929
		c-0.1430817,7.3665771,0.683609,14.670929,1.384079,21.9852905c0.2195892,2.2928162,0.3340759,4.5978088,0.3145142,6.9078064
		c-0.0094452,1.1127625-0.4973297,1.8139954-1.5031281,2.1914368
		C184.1745911,283.5326233,182.2864838,283.9595947,180.3169098,283.9697266z"></path>
	<path d="M42.4525146,112.7778625c0.0891304-1.9299164-0.3513565-3.8075333-0.5991211-5.7007065
		c-0.3732796-2.8522339-0.8833809-5.6866074-1.2544365-8.5390854c-0.0882454-0.6783676-0.8202057-1.239563-0.2923431-2.1296234
		c0.9014931,1.8765564,1.3568306,3.8127823,1.9383469,5.6982117c1.892025,6.1343842,3.1134682,12.4154968,4.1846809,18.7393494
		c0.7700386,4.5458832,1.3809853,9.100647,1.8283081,13.6878357c0.4091072,4.1953125,0.7145462,8.3927002,0.9685097,12.6003418
		c1.2914009,21.395874,0.6496124,42.8105927,0.6577225,64.2175446c0.0015144,3.9883881-0.0966606,7.98703-0.1893997,11.9799347
		c-0.1455345,6.2663422-0.2806168,12.5340118-0.535202,18.7964172c-0.1799202,4.4257202-0.3308334,8.8512878-0.473175,13.2781372
		c-0.1807213,5.6206055-0.3782196,11.2443237-0.7604179,16.8535767c-0.2574959,3.7790527-0.196804,7.579834-0.7390556,11.3394775
		c-1.7242279-0.0837708-3.3719635-0.5368042-4.9835625-1.1030884c-1.6184654-0.5686951-2.0121346-1.1141663-1.9840698-2.8423157
		c0.0452156-2.7842407,0.1874161-5.5641479,0.4140472-8.3428955c0.431675-5.2928772,0.7171974-10.5978699,1.1692505-15.8888245
		c0.4074936-4.7694855-0.0650482-9.592804,0.9218788-14.3255157c0.1883888-0.9033813,0.0964546-1.8375397-0.042675-2.744751
		c-0.4781952-3.1182098-0.3503647-6.2133179,0.3311234-9.2835846c0.1949081-0.8781128,0.1388702-1.7289124,0.0771484-2.6109161
		c-0.2841988-4.0611115-0.8382988-8.1011047-0.8580627-12.1838684c-0.0239258-4.942688,1.0864563-9.6556549,2.7438126-14.2636871
		c0.3171997-0.881958,0.5332336-1.7270813,0.4237556-2.675354c-0.1839256-1.5931854-0.141243-3.1873627,0.1506195-4.7743683
		c0.1077003-0.5856476,0.1623573-1.1927948,0.1462173-1.7875824c-0.1308823-4.8229065-0.2779045-9.645401-0.4356956-14.4675293
		c-0.0367355-1.1227112,0.0765038-2.2321014,0.1623611-3.3472748c0.144268-1.8738251,0.1034241-3.7475739-0.048111-5.6235199
		c-0.4092598-5.0663605-0.1779556-10.145752-0.0681305-15.2097778c0.196312-9.0511017-0.2082138-18.0476379-1.5041733-27.0064316
		c-0.2226868-1.5393982-0.3748512-3.0890045-0.5595245-4.6338654c0.5152626-1.2158585-0.2161751-2.3334808-0.3642349-3.4790726
		C42.6969795,115.5973511,42.9329262,114.1476212,42.4525146,112.7778625z"></path>
</g>
<g onclick="select(this)" class="" id="detalhe-punho" fill="#082890">
	<path d="M0.24,114.41436c0.5066518-1.0333099,0.4623487-2.1853943,0.7029477-3.2761536
		c0.1164828-0.5280762,0.0638708-1.1035385,0.4705237-1.5418396c4.7471166,1.9192047,9.661128,3.2643356,14.739399,3.8523865
		c5.6213551,0.6509323,11.2752342,0.8683701,16.9397697,0.6843262c2.350296-0.076355,4.6895752-0.1641083,7.0189934-0.5657349
		c0.8487549-0.1463318,1.4449158-0.8912582,2.3408813-0.7894821c0.4804115,1.3697586,0.2444649,2.8194885,0.4263916,4.2271881
		c0.1480598,1.1455917,0.8794975,2.2632141,0.3643112,3.4790955c-2.841095,1.3330917-5.9081955,1.7382584-8.9673958,1.7949448
		c-7.0645809,0.130928-14.1399384,0.3043518-21.1575737-0.9066238c-3.6142483-0.6236801-7.2130728-1.2875977-10.7040243-2.4304047
		c-0.7462479-0.2443008-1.4505816-0.6164856-2.1742241-0.9297638C0.24,116.8129883,0.24,115.613678,0.24,114.41436z"></path>
	<path d="M184.6167908,120.2029724c0.0372009-2.5699768,0.0365143-5.1422272,0.4629211-7.688797
		c0.9396362,0.5695877,1.9786682,0.9036407,3.0544434,0.9562988c5.6075439,0.2745056,11.228775,0.5989304,16.8232422-0.0108337
		c3.9904938-0.4349365,7.9450073-1.161026,11.8859558-1.9935684c3.0928345-0.6533813,6.000824-1.8692627,9.0736084-2.5406494
		c0.6487732-0.1417542,1.2501068-0.5003433,1.873291-0.7590942c1.0290527,2.4653549,1.3149261,5.0500107,1.1316986,7.6846695
		c-0.0435181,0.6258698-0.7669983,0.7556763-1.2712555,0.942894c-3.2154999,1.1938553-6.5277557,2.0655441-9.8517761,2.8920898
		c-8.3978119,2.0882339-16.9433594,2.4642563-25.539505,2.1048508c-1.8251953-0.0763016-3.6426392-0.4177322-5.4543915-0.6971664
		C186.0230713,120.9730606,185.2617188,120.7066879,184.6167908,120.2029724z"></path>
</g>
<g onclick="select(this)" class="" id="gola-secundaria" fill="#082890">
	<path d="M127.5429077,26.2013435c-2.5357285,2.3392677-5.2318497,4.5114994-7.4805527,7.1498528
		c-0.7970963,0.9352226-1.6230545,1.8531532-2.1212006,3.0007591c-2.3132095,0.5602531-4.6457596,0.380825-6.9806519,0.1973152
		c-0.6160583-0.0484238-1.1409073-0.2847061-1.6344376-0.6280861c-2.7191315-3.6985855-6.2109375-6.6337395-9.5777512-9.6924343
		c2.8338776-0.0287647,5.6676941-0.0822201,8.5014725-0.080719
		C114.6808319,26.1514378,121.1118698,26.1818867,127.5429077,26.2013435z"></path>
</g>
<path d="M189.3682404,91.1565399c0.0375671-0.1338425,0.0751343-0.2676697,0.1127014-0.4015045
	c0.0261383,0.028389,0.072525,0.0551529,0.0749512,0.0854416c0.012146,0.1519699,0.0203705,0.3102493-0.208313,0.2966614
	C189.3475342,91.1370926,189.3682556,91.1565399,189.3682404,91.1565399z"></path>
</svg>
