<!--?xml version="1.0" encoding="utf-8"?-->
<!-- Generator: Adobe Illustrator 24.2.3, SVG Export Plug-In . SVG Version: 6.00 Build 0)  -->
<svg version="1.1" id="Camada_1" xmlns="http://www.w3.org/2000/svg" xmlns:xlink="http://www.w3.org/1999/xlink" x="0px" y="0px" viewBox="0 0 229 418" style="enable-background:new 0 0 229 418;" xml:space="preserve">
<style type="text/css">
	.st0{fill:#1F49C1;}
	.st1{fill:#FB0101;}
	.st2{fill:#F802E2;}
	.st3{fill:#00FC07;}
	.st4{fill:#CFE33D;}
	.st5{fill:#DDF13D;}
	.st6{fill:#E2F53C;}
</style>
<g onclick="select(this)" class="" id="gola-secundaria" fill="#71aad4">
	<path d="M116.8,49c-0.8,0.2-1.6,0.8-2.5,0.6c-0.2-0.8,0-1.6,0.2-2.3c0.9-3.6,2.6-6.9,4.5-10.1
		c4.1-4.3,8.1-8.6,12.2-12.8c3.1-3.1,5.7-6.6,7.9-10.4c0.8-1.4,1.8-2.7,2.1-4.4c0.8-1.3,1-2.7,1-4.1c0-1-0.5-1.7-1.4-2
		c-1.1-0.4-2.2-0.6-3.3-0.6c-15.7,0-31.3,0-47,0c-1.2,0-2.4,0.2-3.5,0.7c-0.7,0.3-1.2,0.8-1.2,1.6c0,1.4,0.1,2.9,0.8,4.2
		c0,0.6,0.3,1.1,0.6,1.6c2.4,4.4,5.1,8.7,8.6,12.4c4.4,4.6,8.9,9.1,13.2,13.9c2.2,3.3,3.9,6.9,4.8,10.8c0.1,0.6,0.2,1.1,0,1.7
		c-0.8,0.1-1.5-0.1-2.2-0.5c-0.1-0.1-0.2-0.2-0.3-0.2c0,0,0,0,0,0c-1-4.6-2.9-8.8-6.2-12.2c-2.7-2.9-5.4-5.8-8.2-8.6
		c-3.8-3.9-7.4-8-10.2-12.8c-2-3.3-3.5-6.8-3.5-10.8c0.4-2,2.3-3.5,4.8-3.8c1.3-0.2,2.6-0.3,3.9-0.3c14.8,0,29.5,0,44.3,0
		c1.7,0,3.4,0.1,5,0.5c1.5,0.4,2.7,1.2,3.3,2.6c0.8,2.8-0.1,5.5-1.2,8c-1.9,4.2-4.4,8.1-7.5,11.5c-4.1,4.5-8.4,8.9-12.6,13.3
		C119.9,40,117.8,44.2,116.8,49z"></path>
</g>
<g onclick="select(this)" class="" id="detalhe-punho" fill="#71aad4">
	<path d="M43.8,120.6c-1.4,1-3.1,1.2-4.8,1.5c-6.7,0.9-13.5,0.7-20.2,0.2c-5.1-0.4-10.1-1.3-15-2.7
		c-1.1-0.3-2.1-0.8-3.1-1.2c0-1.1,0-2.2,0-3.4c0.5-1,0.4-2.2,0.7-3.2c0.1-0.6,0.1-1.2,0.5-1.7c0.5,0.4,1.1,0.7,1.7,0.8
		c1.7,0.4,3.4,0.9,5.1,1.2c3.7,0.7,7.3,1.9,11.2,2c1.9,0.1,3.7,0.2,5.6,0.3c3.7,0.3,7.4,0.1,11.1,0.2c1.9,0,3.7-0.5,5.5-1.2
		c0.4-0.2,0.7-0.3,0.8,0.3C43.3,115.9,43.8,118.2,43.8,120.6z"></path>
	<path d="M185.1,120.3c-0.2-2.2,0.4-4.4,0.7-6.5c0.1-0.6,0.3-0.7,0.9-0.6c5.6,1.2,11.4,0.9,17.1,0.7
		c8.1-0.4,15.9-2.4,23.6-5c0.3-0.1,0.6-0.3,0.9-0.5c0.8,1.2,0.6,2.7,0.9,4c0.2,0.8,0.1,1.7,0.2,2.5c0.2,1.3-0.5,1.9-1.6,2.2
		c-5.8,1.9-11.6,3.3-17.6,4.3c-5.5,0.8-10.9,0.7-16.4,0.7c-2.5,0-4.9-0.3-7.3-0.9C186,121,185.4,120.8,185.1,120.3z"></path>
</g>
<g onclick="select(this)" class="" id="gola-terciaria" fill="#ffffff">
	<path d="M113.8,49.6c0.1-0.6,0.1-1.1,0-1.7c-0.9-3.9-2.6-7.5-4.8-10.8c3.4,0,6.7,0,10.1,0c-2,3.1-3.6,6.5-4.5,10.1
		c-0.2,0.8-0.5,1.5-0.2,2.3C114.2,49.6,114,49.6,113.8,49.6z"></path>
</g>
<path d="M111.3,48.9c0.2,0,0.3,0.1,0.3,0.2C111.5,49.1,111.3,49.2,111.3,48.9z"></path>
<g onclick="select(this)" class="" id="estampa-primaria" fill="#021c3b">
	<path d="M43.8,120.6c0-2.4-0.5-4.7-1-7c-0.1-0.5-0.4-0.4-0.8-0.3c-1.8,0.7-3.5,1.2-5.5,1.2c-3.7,0-7.4,0.1-11.1-0.2
		c-1.9-0.1-3.7-0.3-5.6-0.3c-3.8-0.1-7.4-1.3-11.2-2c-1.7-0.3-3.4-0.8-5.1-1.2c-0.6-0.2-1.2-0.4-1.7-0.8c1.8-9.5,2.7-19.1,4.2-28.6
		C6.9,76.3,7.2,71.1,8.3,66c1.8-8.2,4.5-16,9.6-22.8c2-2.7,4.3-5.2,7-7.4c1.4-1.1,2.5-2.7,4.1-3.5c3.6-1.9,7.3-3.7,11-5.3
		C50.1,23,60,18.9,69.5,13.7c2-1.1,4.1-2.1,5.6-4c0.9-1,2.1-1.8,3.7-1.4c-2,1.2-2.4,2.2-2,4.5c0.4,2.3,1.5,4.3,2.8,6.2
		c5.6,8.3,11.9,15.8,19.2,22.6c3.1,2.9,6.5,5.2,10.4,6.7c0.7,0.3,1.4,0.8,2.2,0.7l0,0c0,0.2,0.2,0.2,0.3,0.2
		c0.7,0.3,1.4,0.6,2.2,0.5c0.2,0,0.3,0,0.5,0c0.9,0.3,1.7-0.4,2.5-0.6c0.9-0.3,1.8-0.7,2.7-1c5.3-1.9,9.2-5.7,13.1-9.5
		c6-5.7,11-12.2,15.8-19c1.5-2.1,2.8-4.4,3.3-7c0.4-1.8-0.1-3.2-1.6-4.2c1.7,0,2.8,1,3.8,2.2c0.3,0.4,0.7,0.7,1.1,1
		c10,6.5,21.2,10.6,32.2,15.2c4,1.7,7.9,3.4,11.7,5.3c2.2,1.1,3.9,3,5.8,4.6c7.7,6.5,12.3,15,14.9,24.6c1.1,4,1.9,8,2.4,12.1
		c0.6,5.6,2.1,10.9,3.2,16.3c1.3,6.2,2.1,12.4,3.1,18.7c-0.3,0.2-0.6,0.4-0.9,0.5c-7.6,2.6-15.5,4.6-23.6,5
		c-5.7,0.3-11.4,0.5-17.1-0.7c-0.6-0.1-0.8,0-0.9,0.6c-0.4,2.2-1,4.3-0.7,6.5c-0.4,0.8-0.3,1.7-0.4,2.6c-1,8.4-1.7,16.8-1.7,25.2
		c0,2.2,0.1,4.4,0.5,6.6c0.4,1.9,0,3.8-0.2,5.7c-0.2,2.1-0.2,4.2-0.1,6.3c0.1,2.2-0.1,4.3-0.2,6.5c-0.1,2.8-0.1,5.7,0.1,8.5
		c0.1,1.7,0.1,3.4-0.1,5c-0.3,3.1,0.2,6.1,0.9,9.1c1.6,7.2,1.4,14.5,0.3,21.8c-0.3,2.1-0.4,4.2,0.3,6.4c1.8,5.4,1.8,11,0.9,16.6
		c-0.2,1.5-0.2,2.9,0.1,4.4c0.9,3.8,0.4,7.6,0.6,11.5c0.3,5.9,0.7,11.9,1.4,17.8c0.3,2,0.2,4.1,0.3,6.1c0,1.8-0.3,2.3-2.1,2.9
		c-3,0.9-6.1,1.2-9.2,1.5c-7.7,0.8-15.4,0.9-23.1,1c-11.2,0.2-22.5,0.7-33.7,0.8c-12.5,0.2-24.9-0.8-37.4-0.8
		c-8.4,0-16.8-0.1-25.2-0.7c-4.1-0.3-8.3-0.8-12.4-1.7c-0.2,0-0.4-0.1-0.6-0.1c-3.2-0.8-3.6-1.2-3.4-4.5c0.5-7.8,1-15.5,1.6-23.3
		c0.1-2,0.3-4.1,0.2-6.1c0-1.8,0-3.6,0.4-5.4c0.4-2.3,0.5-4.5,0.1-6.8c-0.3-1.8-0.3-3.7,0.1-5.5c0.7-2.7,0.4-5.5,0.2-8.2
		c-0.3-3.5-0.7-7-0.6-10.5c0.2-4.3,1.2-8.4,2.6-12.4c0.4-1.1,0.7-2.1,0.5-3.3c-0.2-1.2-0.2-2.5,0.1-3.7c0.3-1.6,0.2-3.2,0.1-4.9
		c-0.2-3.3-0.2-6.6-0.2-9.9c-0.1-12.9,0-25.9-0.1-38.8c0-5.1-1-10.2-1.5-15.3C44.1,123.3,43.9,121.9,43.8,120.6z"></path>
	<path d="M119.1,37.2c-3.4,0-6.7,0-10.1,0c-4.2-4.8-8.8-9.3-13.2-13.9c-3.5-3.7-6.2-7.9-8.6-12.4c-0.3-0.5-0.5-1-0.6-1.6
		c3.1,0.3,6.1,0.6,9.2,0.8c8.4,0.6,16.7,1.4,25.1,0.8c6.8-0.5,13.5-0.9,20.3-1.4c-0.3,1.6-1.3,3-2.1,4.4c-2.2,3.8-4.8,7.2-7.9,10.4
		C127.2,28.6,123.2,32.9,119.1,37.2z"></path>
</g>
<g onclick="select(this)" class="" id="gola-primaria" fill="#021c3b">
	<path d="M116.8,49c1-4.8,3.1-9,6.5-12.6c4.2-4.5,8.4-8.8,12.6-13.3c3.1-3.4,5.6-7.3,7.5-11.5c1.2-2.5,2-5.1,1.2-8
		c1,0.6,1.6,1.6,2.4,2.4c1,0.9,1.8,1.9,3,2.4c1.6,1.1,2,2.4,1.6,4.2c-0.5,2.6-1.8,4.9-3.3,7c-4.7,6.7-9.8,13.2-15.8,19
		c-3.9,3.8-7.9,7.5-13.1,9.5C118.6,48.4,117.7,48.7,116.8,49z"></path>
	<path d="M83.2,4.5c0,4,1.6,7.4,3.5,10.8c2.8,4.8,6.4,8.9,10.2,12.8c2.8,2.8,5.5,5.7,8.2,8.6c3.2,3.5,5.2,7.6,6.2,12.2
		c-0.8,0.1-1.5-0.4-2.2-0.7c-3.9-1.5-7.3-3.8-10.4-6.7c-7.3-6.8-13.6-14.3-19.2-22.6c-1.3-1.9-2.3-3.9-2.8-6.2c-0.4-2.2,0-3.3,2-4.5
		c1.2-0.5,2-1.6,3-2.5C82.2,5.4,82.5,4.8,83.2,4.5z"></path>
	<path d="M141.3,9.6c-6.8,0.5-13.5,0.9-20.3,1.4c-8.4,0.6-16.7-0.2-25.1-0.8c-3.1-0.2-6.1-0.5-9.2-0.8
		C86,8,85.8,6.6,85.9,5.2c0-0.8,0.5-1.3,1.2-1.6c1.1-0.5,2.3-0.7,3.5-0.7c15.7,0,31.3,0,47,0c1.1,0,2.2,0.2,3.3,0.6
		c0.9,0.3,1.4,1,1.4,2C142.3,6.9,142,8.3,141.3,9.6z"></path>
</g>
<path d="M41.3,282c0.2,0,0.4,0.1,0.4,0.4C41.5,282.3,41.4,282.2,41.3,282z"></path>
<g onclick="select(this)" class="" id="estampa-secundaria" fill="#71aad4">
	<path d="M187.4,274.1c0.4,1.3,0.5,2.6,0.2,3.9c-0.5,0.1-0.9,0.2-1.4,0.3c-6.3,1.9-12.7,3.1-19.2,3.9
		c-8.5,1.1-17.1,1.4-25.7,1.4c-22,0-44,0-66-0.1c-10.5,0-20.9-0.8-31.3-2.7c-3.5-0.7-3.7-0.7-3-4.4c10,2.2,20.1,3.2,30.3,3.3
		c24.3,0.1,48.5,0.1,72.8,0.1c9.9,0,19.8-0.7,29.6-2.4C178.3,276.6,182.9,275.7,187.4,274.1z"></path>
	<path d="M186.2,261.1c0.3,1.2,0.6,2.5,0.1,3.7c-0.3,0.1-0.6,0.1-0.8,0.2c-2.9,0.8-5.9,1.6-8.9,2.2
		c-2.5,0.4-5,0.8-7.4,1.3c-2.5,0.5-4.9,0.5-7.4,0.9c-1.1,0.2-2.3,0.1-3.4,0.2c-2.6,0.3-5.1,0.5-7.7,0.5c-2.6,0-5.1,0-7.6,0.1
		c-0.3,0-0.6,0-0.8,0c-21.5,0-43,0-64.4,0c-0.3,0-0.6,0-0.9,0c-2,0-4.1-0.1-6.1-0.1c-1.8,0-3.5,0.1-5.3,0c-1.7-0.2-3.4-0.1-5.1-0.3
		c-2.2-0.3-4.4-0.3-6.6-0.6c-1.9-0.2-3.8-0.7-5.7-0.9c-2.1-0.3-4.2-0.6-6.3-1.1c0-1.2-0.1-2.4,0.3-3.6c0.4,0.1,0.9,0.2,1.3,0.3
		c10.1,2,20.3,2.8,30.5,2.9c20.9,0.1,41.9,0,62.8,0c9,0,18.1-0.1,27.1-1C171.3,264.6,178.9,263.3,186.2,261.1z"></path>
	<path d="M187,269.9c0.3,1.2,0.5,2.5,0.3,3.7c-2,0.5-3.9,1-5.9,1.5c-12.4,3-25,3.9-37.7,4c-17.4,0.1-34.8,0-52.2,0
		c-7.4,0-14.7,0.1-22.1-0.2c-9.5-0.4-19-1.2-28.3-3.2c-0.2-0.8-0.1-1.7,0-2.5c0.1-0.8,0.3-1.1,1.3-0.9c7.2,1.6,14.4,2.3,21.7,2.8
		c5.2,0.3,10.5,0.4,15.7,0.4c23.4-0.1,46.8,0.3,70.2-0.2C162.5,275,174.9,273.6,187,269.9z"></path>
	<path d="M186.4,265.4c0.6,1.2,0.6,2.4,0.4,3.7c-0.2,0-0.4,0-0.6,0.1c-11.4,3.3-23,4.7-34.8,5.1
		c-11.6,0.4-23.2,0.2-34.8,0.2c-15,0-29.9,0.2-44.9-0.1c-9.9-0.2-19.7-1-29.4-3c-0.8-0.2-1.2-0.5-1.1-1.3c0-0.1,0-0.1-0.1-0.2
		c0.2-0.2,0.3-0.4,0.1-0.6c0-0.6-0.2-1.2,0.2-1.7c0.8,0.1,1.5,0.5,2.4,0.4c0.3,0.2,0.7,0.2,1,0.2c0.2,0,0.3,0,0.4,0.1
		c0.2,0.2,0.5,0.2,0.8,0.2c0.2,0,0.3,0,0.5,0c0.3,0.2,0.6,0.2,1,0.2c0.2,0,0.3,0,0.5,0c0.4,0.2,0.8,0.3,1.2,0.2c0.2,0,0.3,0,0.5,0
		c0.4,0.2,0.8,0.2,1.2,0.2c0.2,0,0.3,0,0.5,0c0.4,0.2,0.8,0.2,1.2,0.2c0.2,0,0.3,0,0.5,0.1c0.5,0.2,1.1,0.2,1.7,0.2
		c0.2,0,0.3,0,0.5,0c0.6,0.3,1.3,0.2,2,0.2c0.1,0,0.2,0,0.3,0c0.8,0.3,1.6,0.2,2.4,0.2c0.2,0,0.3,0,0.5,0c0.9,0.3,1.9,0.2,2.9,0.2
		c0.2,0,0.3,0,0.5,0c1.3,0.3,2.7,0.2,4.1,0.2c0.4,0,0.8,0,1.2,0c0.8,0.3,1.6,0.2,2.4,0.2c15.8,0,31.7,0,47.5,0
		c10.1,0,20.1,0,30.2-0.1c0.6,0,1.2,0.1,1.8-0.2c0.4,0,0.8,0,1.2,0c1.4,0,2.7,0.1,4.1-0.2c0.2,0,0.5,0,0.7,0c0.9,0,1.8,0.1,2.6-0.2
		c0.2,0,0.3,0,0.5,0c0.8,0,1.6,0.1,2.4-0.2c0.1,0,0.2,0,0.3,0c0.7,0,1.4,0,2.1-0.2c0.1,0,0.2,0,0.3,0c0.6,0,1.1,0,1.7-0.2
		c0.1,0,0.3,0,0.5-0.1c0.4,0,0.8,0,1.2-0.2c0.2,0,0.5,0,0.7-0.1c0.3,0,0.7,0,1-0.2c0.1,0,0.3,0,0.5,0c0.4,0,0.8,0,1.2-0.2
		c0.2,0,0.3,0,0.5,0c0.3,0,0.7,0,1-0.2c0.2,0,0.3,0,0.5,0c0.3,0,0.7,0,0.9-0.2c0.1,0,0.2,0,0.3,0c0.4,0,0.7,0,1-0.2
		C179.4,267.5,183,266.7,186.4,265.4z"></path>
	<path d="M186,256.7c0.2,1.2,0.4,2.3,0.2,3.5c-14,3.9-28.3,5.2-42.7,5.2c-22.4,0-44.8,0-67.2,0c-5.7,0-11.3-0.3-17-0.7
		c-5.5-0.4-10.9-1.2-16.3-2.2c-0.3-0.1-0.6-0.2-1-0.2l0,0c-0.2-0.8,0.1-1.7,0-2.5c0-0.8,0.3-0.9,1-0.8c11.2,2.2,22.5,3,33.9,3
		c21.5,0,42.9,0,64.4,0c6.1,0,12.2-0.2,18.3-0.7C168.6,260.6,177.4,259.3,186,256.7z"></path>
	<path d="M186,252.2c0.2,1.2,0.1,2.4-0.1,3.6c-2.4,0.6-4.7,1.2-7.1,1.7c-11.4,2.5-22.9,3.3-34.5,3.4
		c-22.3,0.1-44.7,0-67,0c-11.4,0-22.7-0.7-33.9-2.9c-0.8-0.1-1.3-0.4-1.2-1.3c0-0.4,0.2-0.8,0.2-1.2c-0.1-1.1,0.5-1.1,1.3-0.9
		c10.3,2,20.8,2.8,31.2,2.8c20.8,0.1,41.5,0,62.2,0c8,0,15.9-0.1,23.8-0.8C169.5,256,177.8,254.7,186,252.2z"></path>
	<path d="M185.6,247.8c0.8,1.1,0.5,2.2,0.4,3.4c-0.1,0-0.2,0-0.4,0.1c-11.1,3.1-22.4,4.4-33.8,4.9
		c-8.4,0.3-16.8,0.2-25.2,0.2c-20.7-0.1-41.3,0.3-62-0.3c-1.1-0.3-2.2-0.2-3.3-0.2c-0.2,0-0.3,0-0.5,0c-0.7-0.3-1.4-0.2-2.2-0.2
		c-0.2,0-0.5,0-0.7-0.1c-0.7-0.3-1.4-0.2-2.2-0.2c-0.1,0-0.2,0-0.3,0c-0.6-0.3-1.3-0.2-1.9-0.2c-0.1,0-0.2,0-0.3,0
		c-0.5-0.3-1.1-0.3-1.7-0.2c-0.1,0-0.2,0-0.3,0c-0.4-0.2-0.8-0.2-1.2-0.2c-0.2,0-0.5,0-0.7-0.1c-0.3-0.2-0.6-0.2-1-0.2
		c-0.2,0-0.3,0-0.5,0c-0.4-0.2-0.8-0.3-1.2-0.2c-0.1-0.1-0.2-0.1-0.2,0c-0.4-0.2-0.8-0.2-1.2-0.2h0c-0.4-0.2-0.8-0.2-1.2-0.2
		c-0.1,0-0.2,0-0.2-0.1c-0.3-0.2-0.6-0.2-1-0.2c-0.1-0.1-0.1-0.1-0.2-0.1c-0.2-1.1,0-2.2,0-3.3c4,0.6,8,1.4,12,1.8
		c4.9,0.5,9.9,1,14.8,1.1c22.5,0.1,44.9,0,67.4,0.1c10.2,0,20.4-0.1,30.6-1.5C173.6,250.8,179.7,249.6,185.6,247.8z"></path>
	<path d="M185.8,234.4c0.2,1.2,0.1,2.4-0.3,3.5c-2.7,0.6-5.4,1.3-8.1,1.8c-10.9,2.2-21.9,3.1-33,3.1
		c-22.4,0.1-44.7,0.1-67.1,0c-10.9,0-21.8-0.7-32.6-2.6c-0.8-0.1-1.4-0.2-1.5-1.4c-0.2-2.2-0.3-2.2,1.8-1.8c9.5,1.7,19,2.5,28.6,2.5
		c23.3,0.1,46.6,0,70,0c7.6,0,15.1-0.4,22.6-1.3C172.9,237.5,179.4,236.3,185.8,234.4z"></path>
	<path d="M185,243.6c0.5,1,0.6,2.1,0.6,3.2c-2.2,0.6-4.4,1.1-6.6,1.7c-0.3,0.1-0.5,0.1-0.7,0.2c-0.1,0-0.1,0-0.2,0
		c-0.4,0-0.7,0-1,0.2c-0.2,0-0.3,0-0.5,0.1c-0.3-0.1-0.5,0-0.7,0.2c-0.2,0-0.3,0-0.5,0.1c-0.3,0-0.6,0-0.9,0.2c-0.2,0-0.3,0-0.5,0
		c-0.3,0-0.6,0-0.9,0.2c-0.2,0-0.3,0-0.5,0.1c-0.3,0-0.6,0-0.9,0.2c-0.1,0-0.2,0-0.3,0c-0.4,0-0.8-0.1-1.2,0.2c-0.1,0-0.2,0-0.2,0
		c-0.5,0-1-0.1-1.5,0.2c-0.1,0-0.3,0-0.5,0.1c-0.6,0-1.1-0.1-1.6,0.2c-0.1,0-0.2,0-0.3,0c-0.6,0-1.3-0.1-1.9,0.2c-0.1,0-0.2,0-0.3,0
		c-0.7,0-1.4,0-2.1,0.2c-0.1,0-0.2,0-0.3,0c-0.9,0-1.8,0-2.6,0.2c-0.1,0-0.2,0-0.3,0c-1.1,0-2.2,0.1-3.3,0.2c-0.3,0-0.5,0-0.8,0
		c-1.3,0-2.6,0-3.8,0.2c-0.8,0-1.6,0-2.4,0c-0.2,0-0.4,0-0.6,0c-23.1,0-46.2,0-69.2,0.1c-2.3,0-4.6,0-7,0c-0.9,0-1.8,0-2.7,0
		c-1.3-0.2-2.7-0.2-4.1-0.2c-0.2,0-0.3,0-0.5,0c-1-0.2-2.1-0.2-3.1-0.2c-0.2,0-0.3,0-0.5,0c-0.9-0.2-1.8-0.2-2.6-0.2
		c-0.1,0-0.2,0-0.3,0c-0.7-0.2-1.4-0.2-2.1-0.2c-0.1,0-0.2,0-0.3,0c-0.6-0.3-1.3-0.2-1.9-0.2c-0.1,0-0.2,0-0.3,0
		c-0.5-0.3-1.1-0.2-1.6-0.2c-0.1,0-0.2,0-0.3,0c-0.4-0.3-0.9-0.2-1.4-0.2c-0.2,0-0.3,0-0.5-0.1c-0.3-0.2-0.6-0.2-1-0.2
		c-0.2,0-0.3,0-0.5-0.1c-0.3-0.2-0.6-0.2-0.9-0.2c-0.2,0-0.3,0-0.5-0.1c-0.3-0.2-0.6-0.2-0.9-0.2c-0.2,0-0.3,0-0.5-0.1
		c-0.3-0.2-0.6-0.2-0.9-0.2c-0.2,0-0.3,0-0.5-0.1c-0.2-0.2-0.5-0.2-0.7-0.2c-0.1-0.1-0.1-0.1-0.2-0.1c0-0.7,0-1.4,0-2
		c0-1,0.3-1.2,1.3-1.1c9.8,1.9,19.8,2.7,29.8,2.8c23.4,0.1,46.7,0.1,70.1,0c5.2,0,10.5-0.2,15.7-0.7
		C168.2,247.2,176.7,246,185,243.6z"></path>
	<path d="M185.5,238.7c0,1.3-0.1,2.6-0.5,3.8c-0.3,0-0.6,0.1-0.8,0.1c-11.6,3.1-23.5,4.5-35.4,4.6
		c-27.7,0.1-55.5,0.5-83.2-0.2c-6.9-0.2-13.7-1-20.5-2.2c-1.9-0.4-1.9-0.4-1.9-2.3c0.4-0.3-0.3-1.4,0.9-1.1c9.8,2,19.8,2.7,29.8,2.8
		c21.8,0.1,43.7,0,65.5,0.1c9.5,0,18.9-0.2,28.3-1.5C173.7,241.7,179.8,240.9,185.5,238.7z"></path>
	<path d="M185.5,229.6c0.4,1.1,0.5,2.3,0.3,3.5c-0.2,0-0.3,0.1-0.5,0.1c-9.2,2.6-18.7,3.9-28.2,4.5
		c-7.7,0.5-15.3,0.5-23,0.5c-20.9-0.1-41.9,0.2-62.9-0.1c-8.6-0.1-17.2-0.9-25.8-2.4c-2.4-0.4-2.4-0.4-2.4-3.1
		c0.3-0.4,0.7-0.3,1.1-0.2c10.2,2,20.5,2.7,30.9,2.8c22.8,0.1,45.6,0.1,68.3,0c11,0,21.9-0.7,32.7-2.9
		C179.2,231.6,182.5,231.2,185.5,229.6z"></path>
	<path d="M184.7,225.6c0.5,0.9,0.7,1.9,0.6,2.9c-2.3,0.8-4.7,1.3-7.1,1.8c-11.4,2.4-23,3.2-34.7,3.3
		c-21.3,0.1-42.7,0-64.1,0c-11.4,0-22.8-0.5-34-2.5c-2.2-0.4-2.3-0.3-1.7-2.6c0-0.1,0-0.1,0.1-0.2c0.1-0.4,0.2-0.5,0.7-0.4
		c10.4,2,21,2.7,31.6,2.7c22.6,0.1,45.3,0,67.9,0c9.8,0,19.6-0.6,29.3-2.4C177.1,227.6,181,226.9,184.7,225.6z"></path>
	<path d="M183.6,221.5c0.5,0.9,0.8,1.9,0.8,2.9c-12.4,3.3-25.1,4.6-37.8,4.7c-23.1,0.1-46.1,0.1-69.2,0.1
		c-10.5,0-20.9-0.6-31.3-2.4c-3.2-0.5-2.6-0.2-2.6-3.5c0.5,0.1,1,0.2,1.5,0.3c9.6,1.8,19.3,2.5,29.1,2.5c22.3,0.1,44.6,0,66.9,0
		c10.1,0,20.2-0.5,30.2-2C175.5,223.5,179.6,222.7,183.6,221.5z"></path>
	<path d="M148.8,221.5c0.7,0,1.4,0,2.2,0c1.3,0.1,2.6,0.1,3.8-0.2c0.2,0,0.5,0,0.7,0c1.1,0,2.1,0.1,3.1-0.2
		c3.4,0,6.7-0.5,10-1c4.8-0.7,9.6-1.5,14.2-2.8c0.3-0.1,0.7-0.2,1-0.3c0.6,1.1,0.2,2.2-0.2,3.2c-0.9,0.2-1.8,0.4-2.7,0.6
		c-11.6,2.7-23.3,3.8-35.2,3.9c-23.9,0.1-47.8,0.1-71.7,0c-7.4,0-14.9-0.6-22.2-1.4c-0.4-0.2-0.8-0.2-1.2-0.2c-0.2,0-0.3,0-0.5-0.1
		c-0.4-0.3-0.8-0.2-1.2-0.2c-0.2,0-0.3,0-0.5-0.1c-0.3-0.2-0.6-0.2-1-0.2c-0.2,0-0.3,0-0.5-0.1c-0.3-0.2-0.6-0.2-0.9-0.2
		c-0.2,0-0.3,0-0.5-0.1c-0.2-0.2-0.5-0.2-0.7-0.2c-0.2,0-0.5-0.1-0.7-0.1c-0.4-0.2-0.8-0.4-1.2-0.6c0-0.9,0-1.7,0-2.6
		c2.5,0.4,5,0.9,7.4,1.2c3.5,0.4,7,1,10.5,1.1c1,0.3,2.1,0.2,3.2,0.2c0.2,0,0.5,0,0.7,0c1.3,0.3,2.6,0.2,3.8,0.2
		c0.7,0,1.4,0,2.2,0.1c1,0.3,2,0.2,3,0.2c24.1,0,48.1,0,72.2,0C146.9,221.7,147.9,221.8,148.8,221.5z"></path>
	<path d="M62.4,219.6c-0.3,0-0.6,0-1-0.1c-0.5-0.3-1.1-0.2-1.7-0.2c-0.5,0-0.9-0.1-1.4-0.1c-0.5-0.2-1-0.2-1.5-0.2
		c-0.4,0-0.8,0-1.2-0.1c-0.4-0.2-0.8-0.2-1.3-0.2c-0.3,0-0.6,0-0.9-0.1c-0.3-0.2-0.7-0.2-1-0.2c-0.3,0-0.6-0.1-0.9-0.1
		c-0.3-0.2-0.6-0.2-1-0.2c-0.2,0-0.5,0-0.7-0.1c-0.4-0.2-0.8-0.2-1.2-0.2c-0.1,0-0.3,0-0.4,0c-0.3-0.2-0.7-0.2-1-0.2
		c-0.1,0-0.2,0-0.2,0c-0.4-0.2-0.8-0.2-1.2-0.2c-0.6-0.3-1.4-0.3-1.9-0.3c-1.3,0-1.2-0.7-1.2-1.5c0-1.8,0-1.7,1.8-1.4
		c7.7,1.4,15.4,2.3,23.2,2.4c26.1,0.5,52.2,0.2,78.3,0.2c12.7,0,25.3-1.3,37.6-4.6c0.3-0.1,0.6-0.2,0.9-0.3c0.1,1.1,0.1,2.1-0.4,3.2
		c-1.6,0.2-3.1,0.9-4.8,1.2c-1.9,0.4-3.8,0.7-5.7,1c-0.4,0-0.7,0-1,0.2c-0.1,0-0.3,0-0.4,0.1c-0.4,0-0.7,0-1,0.2c-0.1,0-0.3,0-0.4,0
		c-0.4,0-0.8,0-1.2,0.2c-0.2,0-0.5,0-0.7,0.1c-0.4-0.1-0.7,0-1,0.2c-0.2,0-0.4,0-0.7,0.1c-0.4,0-0.9,0-1.2,0.2c-0.3,0-0.6,0-0.9,0.1
		c-0.4,0-0.9,0-1.2,0.2c-0.4,0-0.8,0-1.2,0.1c-0.5,0-1,0-1.5,0.2c-0.4,0-0.8,0-1.2,0.1c-0.6,0-1.2-0.1-1.7,0.2c-0.4,0-0.8,0-1.2,0.1
		c-1,0-1.9-0.1-2.9,0.2c-0.3,0-0.6,0-0.9,0c-1.9,0-3.7-0.1-5.5,0.2c-1,0-1.9,0-2.9,0.1c-0.4,0-0.7-0.1-1.1-0.1
		c-21.8,0-43.7,0-65.5,0c-1.2,0-2.5,0-3.7,0c-0.9,0-1.8,0-2.6-0.1c-1.8-0.3-3.7-0.2-5.5-0.2c-0.4,0-0.8,0-1.2-0.1
		C64.3,219.6,63.4,219.6,62.4,219.6z"></path>
	<path d="M183.4,208.1c0.2,0,0.3-0.1,0.5-0.1c0.2,0,0.3,0,0.5-0.2l0,0c0.2,0,0.4-0.1,0.5-0.1c0.3,1,0.1,2-0.1,3
		c-5.9,1.5-11.9,2.7-18,3.4c-7.4,0.9-14.9,1.4-22.4,1.4c-24.2,0-48.4,0-72.5-0.1c-9.3,0-18.5-1-27.7-2.6c-1-0.2-1.4-0.6-1.2-1.6
		c0.1-1.1,0.5-1.6,1.6-1.2c0.1,0,0.2,0,0.2,0c0.2,0.2,0.5,0.2,0.8,0.1c0.2,0,0.3,0.1,0.5,0.1c0.2,0.2,0.5,0.2,0.7,0.2
		c0.2,0,0.5,0.1,0.7,0.1c0.2,0.2,0.5,0.2,0.7,0.2c9.4,1.5,18.9,2.1,28.4,2.1c24.7,0,49.5,0.2,74.2-0.1c7.4-0.1,14.7-0.8,21.9-2.1
		c0.3,0,0.5,0,0.7-0.2c0.2,0,0.3-0.1,0.5-0.1c0.3,0,0.7,0.1,0.9-0.2c0.2,0,0.3-0.1,0.5-0.1c0.3,0,0.5,0.1,0.7-0.1
		c0.1,0,0.2,0,0.2-0.1c0.3,0,0.7,0,1-0.2c0.2,0,0.3-0.1,0.5-0.1c0.2,0,0.4-0.1,0.5-0.1c0.1,0,0.3-0.1,0.4-0.1c0.3,0,0.5,0,0.7-0.2
		c0.2,0,0.3-0.1,0.5-0.1c0.2-0.1,0.3-0.1,0.5-0.1c0.1,0,0.3,0,0.5-0.1c0.2,0,0.4,0,0.5-0.2c0.1,0,0.3,0,0.5-0.1c0.2,0,0.4,0,0.5-0.2
		c0.1,0,0.3-0.1,0.5-0.1C183.1,208.3,183.3,208.2,183.4,208.1z"></path>
	<path d="M74.7,211c-1.7,0-3.3,0-5-0.1c-1.1-0.2-2.3-0.2-3.4-0.2c-0.7,0-1.4,0-2.1-0.1c-0.7-0.2-1.5-0.2-2.2-0.2
		c-0.5,0-0.9,0-1.4-0.1c-0.6-0.2-1.1-0.2-1.7-0.2c-0.4,0-0.8,0-1.2-0.1c-0.5-0.2-1-0.2-1.5-0.2c-0.3,0-0.6,0-0.9-0.1
		c-0.4-0.2-0.8-0.2-1.2-0.2c-0.3,0-0.6,0-0.9-0.1c-0.4-0.2-0.8-0.2-1.3-0.2c-0.1,0-0.3,0-0.4-0.1c-0.4-0.2-0.8-0.2-1.2-0.2
		c-0.2,0-0.3,0-0.5-0.1c-0.4-0.2-0.8-0.2-1.2-0.2c-0.1,0-0.2,0-0.3,0c-0.4-0.2-0.8-0.2-1.2-0.2c-0.2,0-0.3-0.1-0.5-0.1
		c-0.2-0.2-0.5-0.2-0.7-0.1c-0.2,0-0.3,0-0.5-0.1c-0.3-0.2-0.6-0.2-0.9-0.2c-0.2,0-0.3,0-0.5-0.1c-0.7-0.8-0.1-1.7,0.1-2.5
		c0.2-0.6,0.9-0.2,1.3-0.1c10.2,1.9,20.6,2.5,30.9,2.5c23,0.1,46.1,0.1,69.1,0c11.9-0.1,23.6-1.1,35.2-3.8c1.4-0.3,2.8-0.6,4.1-1.2
		c0.3,1,0.5,2,0.2,3c-0.2,0.1-0.5,0.1-0.7,0.2c-0.1,0-0.2,0-0.3,0.1c-0.3,0-0.5,0-0.7,0.2c-0.1,0-0.2,0-0.3,0.1
		c-0.2,0.1-0.5,0.1-0.7,0.2c-0.1,0-0.2,0-0.3,0.1c-0.2,0.1-0.4,0.1-0.5,0.2c-0.1,0-0.3,0.1-0.4,0.1c-0.2,0.1-0.4,0.1-0.5,0.2
		c-0.1,0-0.3,0-0.4,0.1c-0.3,0-0.5,0-0.8,0.2c-0.6,0.1-1.1,0.2-1.7,0.3c-0.3,0-0.5,0-0.7,0.2c-0.2,0-0.3,0-0.5,0.1
		c-0.3,0-0.5,0-0.7,0.2c-0.2,0-0.3,0-0.5,0.1c-0.3-0.1-0.5,0-0.8,0.2c-0.2,0-0.5,0.1-0.7,0.1c-0.3-0.1-0.5,0-0.7,0.1
		c-0.1,0-0.3,0.1-0.5,0.1c-0.4,0-0.8,0-1.2,0.2c-0.1,0-0.2,0-0.3,0c-0.4,0-0.8,0-1.2,0.2c-0.1,0-0.3,0-0.5,0.1c-0.4,0-0.8,0-1.2,0.2
		c-0.1,0-0.3,0-0.4,0.1c-0.5,0-1,0-1.5,0.2c-0.2,0-0.5,0-0.7,0.1c-0.4-0.1-0.8,0-1.2,0.2c-0.3,0-0.6,0-0.9,0.1c-0.5,0-1,0-1.5,0.2
		c-0.4,0-0.8,0-1.2,0.1c-0.6,0-1.2,0-1.7,0.2c-0.5,0-0.9,0-1.4,0.1c-0.7,0-1.5,0-2.2,0.2c-0.7,0-1.4,0-2.1,0.1c-1.1,0-2.3,0-3.4,0.2
		c-1.6,0-3.2,0-4.8,0.1c-0.4,0-0.7,0-1.1,0c-22,0-44.1,0-66.1,0C76.9,211,75.8,211,74.7,211z"></path>
	<path d="M184.5,201.7c-3.9,0.9-7.7,1.8-11.6,2.5c-8.7,1.4-17.4,2.2-26.1,2.2c-24.9,0.1-49.8,0.1-74.8,0
		c-8.8,0-17.7-0.8-26.4-2.4c-0.5-0.1-1.4,0.1-1-0.9c0.3-0.7-0.2-2,1.5-1.7c10,1.8,20.1,2.4,30.2,2.4c23,0,46.1,0.1,69.1,0
		c12.2,0,24.4-1.1,36.3-4.1c0.8-0.2,1.6-0.5,2.4-0.7C184.6,199.8,184.7,200.8,184.5,201.7z"></path>
	<path d="M183.9,197.4c-3.7,0.8-7.5,1.7-11.3,2.3c-8.7,1.4-17.5,2.1-26.3,2.2c-25.8,0.1-51.7,0.3-77.5-0.1
		c-7.4-0.1-14.8-0.9-22.1-2.1c-1.7-0.3-0.8-1.5-0.9-2.3c-0.1-0.8,0.8-0.4,1.2-0.3c9.6,1.6,19.3,2.2,29,2.2c23.2,0,46.3,0,69.4,0
		c12.2,0,24.3-1.1,36.1-4.1c0.5-0.1,1.1-0.3,1.6-0.5C184,195.5,184,196.4,183.9,197.4z"></path>
	<path d="M182.8,181.4c0.4,0.9,0.5,1.7,0.1,2.6c-1.4,0.3-2.9,0.7-4.3,1c-11.6,2.4-23.3,3.3-35,3.4
		c-22.2,0.1-44.4,0-66.6,0c-5.9,0-11.8-0.3-17.6-0.7c-4-0.3-8-0.8-11.9-1.4c-0.5-0.1-1.2,0.2-1.4-0.6c0-0.1,0-0.3,0-0.4
		c0.2-0.4,0.2-0.8,0-1.2c0,0,0.1-0.1,0.1-0.1c0-0.1,0-0.1-0.1-0.2c0.2-0.1,0.5-0.1,0.7-0.2c0.3,0,0.6,0.1,0.9,0.1
		c0.2,0.1,0.4,0.1,0.6,0.1c0.4,0,0.7,0.1,1.1,0.1c0.2,0.2,0.4,0.2,0.6,0.2c0.4,0,0.7,0.1,1.1,0.1c0.3,0.2,0.5,0.2,0.8,0.2
		c0.4,0.1,0.7,0.2,1.1,0.1c0.3,0.2,0.5,0.2,0.8,0.2c0.4,0.1,0.7,0.2,1.1,0.1c0.3,0.2,0.7,0.2,1.1,0.2c0.4,0.1,0.7,0.2,1.1,0.1
		c0.4,0.2,0.9,0.2,1.3,0.1c0.4,0.1,0.9,0.2,1.3,0.1c0.5,0.3,1,0.2,1.5,0.1c0.5,0.1,1,0.2,1.6,0.1c0.7,0.3,1.5,0.2,2.3,0.1
		c0.8,0.1,1.5,0.2,2.3,0.1c1.2,0.3,2.5,0.2,3.7,0.2c0.4,0,0.9,0.1,1.3,0.1c23.9,0,47.9,0,71.8,0c1.5,0,2.9-0.1,4.4-0.1
		c1.2,0,2.5,0.2,3.7-0.2c0.8,0.1,1.5,0,2.3-0.1c0.8,0,1.5,0.1,2.3-0.2c0.5,0.1,1.1,0,1.6-0.1c0.6,0,1.2,0.1,1.8-0.1
		c0.4,0.1,0.7,0,1.1-0.1c0.4,0,0.9,0.1,1.3-0.1c0.5,0.1,0.9,0,1.3-0.1c0.3,0.1,0.6,0,0.8-0.1c0.4,0.1,0.7,0.1,1.1-0.1
		c0.3,0.1,0.6,0,0.8-0.2c0.4,0.1,0.7,0,1.1-0.1c0.3,0,0.6,0,0.8-0.2c0.4,0,0.7-0.1,1.1-0.1c0.2,0,0.4,0,0.6-0.2
		c0.4,0,0.7-0.1,1.1-0.1c0.2,0,0.4,0,0.6-0.1c0.3,0,0.6-0.1,0.9-0.1c0.2,0,0.4,0,0.6-0.2c0.3,0,0.6-0.1,0.9-0.1c0.2,0,0.4,0,0.6-0.1
		c0.3,0,0.6-0.1,0.9-0.1c0.1,0,0.2-0.1,0.4-0.1c0.2,0,0.4-0.1,0.6-0.1c0.2,0,0.4,0,0.6-0.1c0.2,0,0.4-0.1,0.6-0.1
		c0.2,0,0.4,0,0.6-0.1c0.2,0,0.4-0.1,0.6-0.1c0.2,0,0.4,0,0.5-0.1c0.1,0,0.3-0.1,0.4-0.1c0.2,0,0.4-0.1,0.5-0.1
		c0.1,0,0.3-0.1,0.4-0.1c0.2-0.1,0.4-0.1,0.5-0.1c0.1,0,0.3-0.1,0.4-0.1c0.2-0.1,0.4-0.1,0.5-0.2
		C182.6,181.4,182.7,181.4,182.8,181.4z"></path>
	<path d="M183,193.1c-4,0.9-8,1.8-12.1,2.4c-9.4,1.4-18.9,1.9-28.4,1.9c-23.5,0-47,0-70.5-0.1c-8.4,0-16.8-0.8-25.1-2.1
		c-1.4-0.2-0.8-1-0.8-1.7c0-0.8,0.4-1,1.2-0.8c9.6,1.7,19.4,2.2,29.1,2.2c23,0,45.9,0.1,68.9,0c12.3-0.1,24.4-1.1,36.4-4
		c0.4-0.1,0.8-0.3,1.1-0.4C183.1,191.2,183.1,192.1,183,193.1z"></path>
	<path d="M182.6,188.6c-3.6,0.7-7.3,1.6-10.9,2.1c-9.3,1.4-18.8,2-28.2,2c-23.5,0-47,0-70.5,0c-8.3,0-16.5-0.7-24.7-1.9
		c-2.2-0.4-2.3-0.4-2.1-2.9c9.2,1.6,18.6,2.3,27.9,2.3c21,0.1,42.1,0,63.1,0.1c8.4,0,16.9-0.1,25.3-0.9c6.9-0.7,13.7-1.7,20.4-3.5
		C183.1,186.9,183,187.8,182.6,188.6z"></path>
	<path d="M172.8,179.1c0.1,0,0.1,0,0.2,0c0.4,0,0.8,0,1.2-0.2c0.1,0,0.2,0,0.2,0c0.4,0,0.7,0,1-0.2c0.2,0,0.3,0,0.5-0.1
		c0.3,0,0.5,0,0.7-0.2c0.2,0,0.3,0,0.5-0.1c0.3,0.1,0.5,0,0.7-0.2c0.2,0,0.3,0,0.5-0.1c0.3,0.1,0.5,0,0.7-0.2c0.1,0,0.2,0,0.3,0
		c0.3,0.1,0.5,0,0.7-0.2c0.9-0.1,1.8-0.4,2.7-0.6c0.4,0.8,0.4,1.7,0,2.5c-7.6,2.1-15.4,3.1-23.3,3.6c-0.5,0-1-0.1-1.5,0.2
		c-0.7,0-1.4,0.1-2.1,0.1c-0.7,0-1.4-0.1-2,0.2c-1.1,0-2.2,0.1-3.3,0.1c-1.5,0-2.9-0.1-4.4,0.2c-0.2,0-0.4,0-0.6,0
		c-22.3,0-44.7,0-67,0c-1.6,0-3.3,0-4.9,0c-1.4-0.3-2.8-0.2-4.2-0.2c-1.1,0-2.2-0.1-3.3-0.1c-0.7-0.2-1.3-0.2-2-0.2
		c-0.8,0-1.5-0.1-2.3-0.1c-0.4-0.2-0.8-0.2-1.3-0.1c-1.1,0-2.2,0-3.2-0.1c-1.9-0.3-3.9-0.4-5.8-0.7c-1.8-0.3-3.7-0.4-5.4-0.9
		c0-0.5,0-1,0-1.4c0-0.4-0.2-0.9,0.5-1c0.1,0.1,0.1,0.1,0.2,0c0.4,0.2,0.8,0.2,1.2,0.2c0.1,0,0.2,0,0.2,0c0.4,0.3,0.8,0.2,1.2,0.2
		c0.1,0,0.2,0,0.3,0c0.4,0.3,0.9,0.2,1.4,0.2c0.2,0,0.3,0,0.5,0.1c0.5,0.3,0.9,0.2,1.4,0.2c0.2,0,0.3,0,0.5,0.1
		c0.4,0.2,0.8,0.2,1.2,0.2c0.3,0,0.6,0,1,0.1c0.4,0.2,0.8,0.2,1.2,0.2c0.4,0,0.8,0,1.2,0.1c0.5,0.2,1.1,0.2,1.7,0.2
		c0.5,0,1,0,1.4,0.1c0.7,0.3,1.4,0.2,2.2,0.2c0.6,0,1.1,0,1.7,0.1c1,0.3,2.1,0.2,3.1,0.2c1,0,2.1,0,3.1,0.1c0.9,0.2,1.8,0.2,2.7,0.2
		c23.9,0,47.7,0,71.6,0c0.9,0,1.8,0.1,2.7-0.2c1,0,2.1,0,3.1-0.1c1.1,0.1,2.1,0.1,3.1-0.2c0.6,0,1.3,0,1.9-0.1
		c0.6,0,1.3,0.1,1.9-0.2c0.5,0,0.9,0,1.4-0.1c0.6,0,1.1,0,1.7-0.2c0.4,0,0.8,0,1.2-0.1c0.4,0,0.8,0.1,1.2-0.2c0.3,0,0.6,0,0.9-0.1
		c0.4,0,0.8,0.1,1.2-0.2c0.2,0,0.3,0,0.5-0.1c0.5,0,1,0.1,1.4-0.2c0.2,0,0.3,0,0.5-0.1c0.5,0,1,0.1,1.4-0.2c0.1,0,0.2,0,0.3,0
		c0.4,0,0.8,0.1,1.2-0.2c0.1,0,0.1,0,0.2,0C172,179.3,172.4,179.3,172.8,179.1z"></path>
	<path d="M182.7,175c-4.1,0.9-8.2,1.8-12.3,2.4c-9.2,1.3-18.4,1.9-27.6,1.9c-23.4,0-46.8,0-70.2-0.1
		c-8.5,0-17-0.8-25.4-2.1c-1.2-0.2-1.7-1.1-1.2-2.2c0.2-0.5,0.6-0.2,0.9-0.2c5.6,0.9,11.2,1.5,16.8,1.8c4.2,0.3,8.4,0.4,12.6,0.4
		c24.3,0,48.6,0.1,72.9-0.1c10.9-0.1,21.8-1.3,32.4-3.9c0.4-0.1,0.9-0.2,1.3-0.4C182.9,173.3,183.1,174.2,182.7,175z"></path>
	<path d="M182.9,170.4c-4.3,0.9-8.5,1.8-12.8,2.5c-7.3,1.1-14.7,1.7-22.1,1.7c-25.4,0.1-50.9,0.1-76.3,0
		c-8.2,0-16.4-0.8-24.5-2.1c-1.3-0.2-1.1-1-1-1.8c0-1,0.8-0.6,1.3-0.5c9.6,1.6,19.2,2.1,28.9,2.1c24.6,0,49.1,0.2,73.7-0.1
		c10.6-0.1,21.2-1.4,31.6-3.9c0.5-0.1,0.9-0.3,1.4-0.4C183.3,168.8,183.3,169.6,182.9,170.4z"></path>
	<path d="M187.7,278.5c0.4,1.1,0.3,2.3,0.1,3.4c-0.1,0.6-0.7,0.7-1.2,0.9c-3.9,1.4-7.9,1.9-12,2.3
		c-8.4,0.8-16.9,0.7-25.4,0.9c-10.2,0.3-20.5,0.8-30.7,0.7c-18.9-0.2-37.7-0.8-56.6-1.3c-5.9-0.2-11.7-0.7-17.5-2
		c-1-0.2-2-0.6-3.1-1c0-0.3-0.2-0.4-0.4-0.4l0,0c-0.3-1.1,0.3-1,1-0.8c10.7,2.2,21.6,3.1,32.5,3.1c21.3,0.1,42.5,0,63.8,0
		c11.3,0,22.5-0.4,33.7-2.2C177.3,281.4,182.6,280.3,187.7,278.5z"></path>
	<path d="M182.9,165.9c-5.9,1.4-11.9,2.5-17.9,3.1c-6.4,0.7-12.8,1.1-19.1,1.1c-24.1,0.1-48.2,0.1-72.3,0
		c-8.7,0-17.3-0.7-25.9-2.1c-0.6-0.1-1.3,0.1-1.6-0.7c-0.4-1.4-0.1-1.8,1.3-1.6c9.6,1.6,19.4,2.2,29.2,2.2c23,0,46,0.1,69,0
		c12.1-0.1,24.2-1.1,36-4c0.5-0.1,1-0.3,1.5-0.4C183.2,164.3,183.2,165.1,182.9,165.9z"></path>
	<path d="M47.3,163.5c-0.2,0-0.5-0.1-0.7-0.1c-1.4-0.4-0.7-1.5-0.8-2.4c0.2,0,0.4,0,0.7,0c0.2,0.2,0.5,0.2,0.8,0.2
		c0.2,0,0.5,0.1,0.7,0.1c0.2,0.2,0.5,0.2,0.8,0.2c0.3,0,0.6,0.1,0.9,0.1c0.2,0.2,0.5,0.2,0.8,0.2c0.3,0,0.6,0.1,0.9,0.1
		c0.3,0.2,0.7,0.2,1,0.2c0.3,0,0.6,0,0.9,0.1c0.3,0.2,0.7,0.2,1,0.2c0.4,0,0.8,0.1,1.1,0.1c0.3,0.2,0.7,0.2,1,0.2
		c0.5,0.1,0.9,0.1,1.4,0.1c0.4,0.2,0.8,0.2,1.3,0.2c0.5,0.1,1.1,0.2,1.6,0.1c0.5,0.2,1,0.2,1.5,0.1c0.5,0.1,1.1,0.2,1.6,0.1
		c1,0.2,2,0.2,3,0.2c0.6,0.1,1.2,0.2,1.8,0.1c2.5,0.3,5,0.2,7.5,0.2c0.4,0,0.8,0.1,1.2,0.1c21.7,0,43.4,0,65.1,0
		c0.4,0,0.8,0,1.2-0.1c2.5,0.1,5,0.1,7.5-0.2c0.7,0.1,1.4,0.1,2.1-0.1c1,0.1,2,0,2.9-0.2c0.5,0.1,0.9,0,1.4-0.1
		c0.5,0.1,1,0.1,1.5-0.1c0.5,0.1,1.1,0.1,1.6-0.1c0.4,0.1,0.9,0,1.3-0.2c0.5,0.1,0.9,0.1,1.4-0.1c0.4,0.1,0.7,0,1-0.2
		c0.4,0,0.8-0.1,1.1-0.1c0.4,0.1,0.7,0,1-0.2c0.3,0,0.6,0,0.9-0.1c0.4,0,0.7,0,1-0.2c0.3,0,0.6-0.1,0.9-0.1c0.3,0,0.6,0,0.8-0.2
		c0.3,0,0.6-0.1,0.9-0.1c0.3,0,0.5,0,0.8-0.2c0.2,0,0.4-0.1,0.7-0.1c0.3,0.1,0.6,0,0.8-0.2c0.2,0,0.4-0.1,0.7-0.1
		c0.3,0.1,0.5,0,0.8-0.2c0.1,0,0.3-0.1,0.4-0.1c0.3,0,0.7,0,1-0.2c0.1,0,0.2,0,0.2-0.1c0.3,0,0.7,0,1-0.2c0.1,0,0.2,0,0.2-0.1
		c0.3,0,0.6,0,0.8-0.2c0.1,0,0.3-0.1,0.4-0.1c0.2-0.1,0.4-0.1,0.6-0.2c0.1,0,0.3,0,0.4-0.1c0.3,0,0.5-0.1,0.8-0.2
		c0.1,0,0.3,0,0.4-0.1c0.2-0.1,0.4-0.1,0.5-0.2c0.7,0,1.4-0.2,2-0.5c0.1,0.8,0.2,1.7-0.3,2.4c-3.4,0.7-6.9,1.5-10.3,2.1
		c-9.7,1.6-19.4,2.2-29.3,2.2c-23.9,0-47.7,0-71.6-0.1c-2.4,0-4.8-0.1-7.2-0.2c-0.9-0.3-1.8-0.2-2.7-0.2c-0.3,0-0.6-0.1-0.9-0.1
		c-0.7-0.3-1.5-0.2-2.2-0.2c-0.2,0-0.5,0-0.7-0.1c-0.5-0.3-1.1-0.2-1.7-0.2c-0.3,0-0.6-0.1-0.9-0.1c-0.5-0.3-1-0.2-1.5-0.2
		c-0.2,0-0.5,0-0.7-0.1c-0.4-0.2-0.8-0.2-1.2-0.2c-0.2,0-0.5-0.1-0.7-0.1c-0.3-0.2-0.6-0.2-1-0.2c-0.2,0-0.5,0-0.7-0.1
		c-0.3-0.2-0.6-0.2-1-0.2c-0.2,0-0.5,0-0.7-0.1C47.8,163.5,47.6,163.5,47.3,163.5z"></path>
	<path d="M52.1,159.7c-0.2,0-0.5-0.1-0.7-0.1c-0.4-0.3-0.8-0.2-1.2-0.2c-0.2,0-0.4-0.1-0.7-0.1
		c-0.2-0.2-0.5-0.2-0.8-0.1c-0.2,0-0.5-0.1-0.7-0.1c-0.2-0.2-0.5-0.2-0.7-0.2c-0.5-0.1-0.9-0.2-1.4-0.3c0.1-2.1,0.1-2,2.2-1.7
		c8.7,1.4,17.5,2,26.3,2c25.1,0,50.2,0.1,75.3-0.1c11-0.1,21.8-1.4,32.5-4.1c0.4-0.1,0.7-0.2,1-0.3c0.6,0.7,0.6,1.4,0.2,2.2
		c-0.4,0.1-0.7,0.2-1.1,0.3c-0.1,0-0.3,0.1-0.4,0.1c-0.2,0-0.4,0.1-0.6,0.1c-0.1,0-0.3,0.1-0.4,0.1c-0.2,0.1-0.4,0.1-0.6,0.1
		c-0.1,0-0.3,0.1-0.4,0.1c-0.2,0.1-0.4,0.1-0.6,0.2c-0.2,0-0.4,0.1-0.6,0.1c-0.2,0.1-0.4,0.1-0.5,0.1c-0.2,0-0.4,0.1-0.7,0.1
		c-0.2,0.1-0.3,0.1-0.5,0.1c-0.2,0-0.4,0.1-0.7,0.1c-0.2,0.1-0.4,0.1-0.5,0.2c-0.2,0-0.4,0.1-0.7,0.1c-0.2,0-0.4,0-0.6,0.1
		c-0.3,0-0.6,0.1-0.9,0.1c-0.2,0-0.4,0-0.6,0.1c-0.3,0-0.6,0.1-0.9,0.1c-0.2,0-0.4,0-0.6,0.1c-0.2,0-0.4,0.1-0.6,0.1
		c-0.4,0-0.7-0.1-1,0.2c-0.2,0-0.4,0.1-0.6,0.1c-0.4,0-0.8-0.1-1.2,0.2c-0.2,0-0.5,0.1-0.7,0.1c-0.4,0-0.7-0.1-1,0.1
		c-0.3,0-0.6,0.1-0.9,0.1c-0.4,0-0.9-0.1-1.3,0.1c-0.3,0-0.6,0.1-0.9,0.1c-0.4-0.1-0.9-0.1-1.3,0.1c-0.5-0.1-0.9,0-1.4,0.1
		c-0.4-0.1-0.9-0.1-1.3,0.1c-0.5-0.1-1.1,0-1.6,0.1c-0.6,0-1.2-0.1-1.8,0.2c-0.8,0-1.6,0.1-2.3,0.1c-0.8,0-1.7-0.1-2.5,0.2
		c-1.7,0-3.5,0.1-5.2,0.1c-0.3,0-0.6,0-0.8,0c-22.3,0-44.7,0-67.1,0c-1.5,0-3,0-4.6,0c-1.8,0-3.6-0.1-5.4-0.1
		c-0.7-0.3-1.5-0.2-2.2-0.2c-0.8,0-1.6-0.1-2.4-0.1c-0.6-0.2-1.3-0.2-1.9-0.2c-0.5-0.1-1.1-0.2-1.6-0.1c-0.4-0.2-0.8-0.2-1.3-0.1
		c-0.5-0.1-0.9-0.2-1.4-0.1c-0.4-0.2-0.8-0.2-1.3-0.1c-0.3,0-0.6-0.1-0.9-0.1c-0.4-0.2-0.8-0.2-1.3-0.1c-0.2,0-0.5-0.1-0.7-0.1
		C52.9,159.6,52.5,159.6,52.1,159.7z"></path>
	<path d="M182.9,143.2c-4.9,1.1-9.8,2.1-14.7,2.7c-8.1,1.1-16.2,1.5-24.3,1.5c-22,0-44,0.1-66,0
		c-10.4,0-20.7-0.5-30.9-2.3c-0.9-0.2-1.3-0.8-1-1.7c0.2-0.6,0.7-0.3,1-0.2c3,0.5,6,0.9,9,1.2c6.3,0.6,12.5,1,18.8,1
		c24.5,0,49,0.1,73.5-0.1c11.1-0.1,22.1-1.3,32.9-3.9c0.6-0.1,1.1-0.3,1.7-0.5C183.2,141.8,183.2,142.5,182.9,143.2z"></path>
	<path d="M182.9,152.2c-5.8,1.4-11.6,2.4-17.6,3.1c-6,0.7-12,1.1-18.1,1.1c-25.2,0.1-50.4,0.1-75.6,0
		c-8.2,0-16.5-0.8-24.6-2.1c-0.5-0.1-1.2,0.1-1.3-0.8c-0.1-1.3,0-1.4,1.4-1.2c10,1.6,20.1,2.2,30.2,2.2c21.6,0,43.2,0,64.8,0
		c12.1,0,24-0.8,35.9-3.3c1.6-0.3,3.2-0.8,4.8-1.1C183,150.8,183.3,151.5,182.9,152.2z"></path>
	<path d="M182.8,147.7c-12.8,3.2-25.8,4.3-38.9,4.3c-24.1,0-48.1,0-72.2-0.1c-8.3,0-16.6-0.8-24.8-2.1
		c-0.8-0.1-1.3-1.1-0.9-1.8c0.2-0.4,0.6-0.2,0.8-0.1c4,0.6,8.1,1.1,12.1,1.5c5.6,0.5,11.3,0.7,16.9,0.7c23.9,0,47.8,0.1,71.7-0.1
		c11.9-0.1,23.7-1.3,35.3-4.3C183.1,146.3,183,147,182.8,147.7z"></path>
	<path d="M45.4,134.6c0.2-0.6,0.6-0.4,1-0.3c10.5,1.8,21,2.4,31.7,2.3c22.6,0,45.2,0.1,67.8-0.1c12-0.1,23.9-1.1,35.6-4
		c0.7-0.2,1.5-0.4,2.2-0.6c0.1,0.7,0.2,1.4-0.2,2c-4.8,1.1-9.7,2.2-14.6,2.8c-8.2,1.1-16.4,1.6-24.6,1.6c-22.9,0-45.9,0-68.8,0
		c-9.4,0-18.7-0.7-27.9-2.1C46.3,136.1,45.3,136,45.4,134.6z"></path>
	<path d="M183.8,129.3c-6,1.5-12,2.6-18.1,3.3c-7.8,0.9-15.5,1.3-23.3,1.3c-22.2,0-44.5,0-66.7,0
		c-9.8,0-19.7-0.7-29.4-2.4c-0.5-0.1-1,0-1.2-0.7c-0.2-1.1-0.2-1.3,1-1.1c9.3,1.6,18.6,2.3,28.1,2.4c25.1,0,50.2,0.1,75.2-0.1
		c11.4-0.1,22.7-1.4,33.8-4.3c0.3-0.1,0.6-0.2,0.9-0.3C184.1,128,184.2,128.7,183.8,129.3z"></path>
	<path d="M183,138.6c-4.8,1.1-9.7,2.1-14.6,2.8c-8.5,1.1-17,1.6-25.5,1.6c-23.3,0-46.6,0-69.8,0
		c-8.8,0-17.5-0.7-26.2-2.2c-0.4-0.1-1,0.1-1.1-0.6c-0.2-1.1,0-1.4,1.2-1.2c9.7,1.6,19.5,2.2,29.4,2.2c23.2,0,46.4,0.1,69.6-0.1
		c12.3-0.1,24.4-1.2,36.4-4.2c0.3-0.1,0.5-0.2,0.8-0.3C183.5,137.2,183.2,137.9,183,138.6z"></path>
	<path d="M184.3,124.6c-5.3,1.3-10.7,2.4-16.1,3.1c-5.9,0.8-11.8,1.3-17.7,1.4c-24.9,0.4-49.7,0.1-74.6,0.1
		c-10.1,0-20.2-0.6-30.2-2.4c-0.2,0-0.5,0-0.7-0.1c-0.7-0.3-0.6-0.9-0.5-1.4c0.1-0.5,0.6-0.2,0.9-0.2c8.4,1.5,16.9,2.2,25.4,2.4
		c11.7,0.3,23.4,0.1,35.2,0.1c13.1,0,26.2,0.1,39.2,0c12.2-0.1,24.3-1.1,36.1-4c1.1-0.3,2.2-0.6,3.2-0.8
		C184.8,123.4,184.7,124.1,184.3,124.6z"></path>
	<path d="M184.8,118.2c0.5,0.6,0.2,1.1,0.1,1.7c-4.9,1.2-9.8,2.3-14.8,3c-7.9,1.1-15.7,1.8-23.7,1.8
		c-24.4,0.1-48.7,0.1-73.1,0c-9.6,0-19.1-0.8-28.5-2.6c-0.4-0.1-0.8-0.1-0.9-0.6c0-0.4-0.4-1,0.4-1.1c7.1,1.4,14.3,2.2,21.5,2.4
		c19.5,0.6,38.9,0.2,58.4,0.3c9.8,0,19.6,0.3,29.4-0.3C164.2,122.3,174.7,121.1,184.8,118.2z"></path>
	<path d="M185.5,113.7c-0.1,0.5-0.1,0.9-0.1,1.4c-4.9,1.6-10,2.5-15.1,3.3c-8.8,1.3-17.6,1.8-26.5,1.9
		c-22.7,0-45.4,0-68.1,0c-10.4,0-20.8-0.7-31-2.6c-0.2,0-0.5-0.1-0.7-0.2c-0.6-0.3-0.5-0.9-0.4-1.3c0.1-0.5,0.5-0.2,0.8-0.1
		c10.6,2,21.3,2.7,32.1,2.7c23.7,0,47.3,0.1,71-0.1c11.7-0.1,23.4-1.3,34.8-4.1C183.3,114.2,184.4,113.7,185.5,113.7z"></path>
	<path d="M186.9,104.2c0.1,1.1-0.3,1.6-1.2,1.8c-8.7,2.5-17.6,3.8-26.7,4.5c-6,0.5-12,0.6-18,0.6
		c-23.7-0.1-47.3,0.2-71-0.1c-8.8-0.1-17.6-1-26.2-2.7c-0.2,0-0.5-0.1-0.7-0.2c-0.8-0.1-0.7-0.8-0.7-1.3c0.1-0.6,0.6-0.2,0.9-0.1
		c11.5,2.2,23.1,2.9,34.7,2.9c22.5,0,45.1,0.1,67.7,0c12.2-0.1,24.4-1.2,36.3-4.1C183.5,105.2,185.2,104.7,186.9,104.2z"></path>
	<path d="M109.9,106.6c-12.1,0-24.2,0.1-36.3,0c-10.3-0.1-20.4-0.9-30.5-2.9c-0.3-0.1-0.5-0.1-0.8-0.2
		c-0.7-0.2-0.6-0.8-0.5-1.2c0.1-0.6,0.6-0.2,0.9-0.2c10,2.1,20.2,2.9,30.4,3c25.3,0.1,50.6,0.1,75.9-0.1c12.1-0.1,24.2-1.5,35.9-4.8
		c0.7-0.2,1.4-0.4,2.1-0.6c0.3-0.1,0.8-0.5,0.9-0.1c0.2,0.4,0,1-0.5,1.4c-0.2,0.1-0.4,0.1-0.6,0.2c-7.3,2.2-14.8,3.5-22.4,4.4
		c-10,1.1-19.9,1.1-29.9,1.1C126.2,106.6,118.1,106.6,109.9,106.6C109.9,106.6,109.9,106.6,109.9,106.6z"></path>
	<path d="M186,109c0.2,1.1-0.2,1.6-1.2,1.8c-7.2,1.9-14.5,3.2-21.9,3.9c-9.4,0.9-18.8,1-28.3,1c-21,0-42,0-63-0.1
		c-9.1-0.1-18.2-0.9-27.2-2.6c-0.3-0.1-0.5-0.1-0.8-0.2c-0.7-0.2-0.7-0.8-0.6-1.2c0.1-0.6,0.6-0.3,0.9-0.2
		c12.1,2.3,24.3,2.8,36.5,2.8c21.3,0,42.6,0,63.8,0c14.1-0.1,28-1.3,41.6-5.2C185.9,109,185.9,109,186,109z"></path>
	<path d="M190.6,89.6c0.1,1-0.4,1.4-1.3,1.7c-5.9,1.9-11.8,3.3-17.9,4.2c-10.9,1.7-21.9,2.1-33,2.1
		c-19.1,0-38.3,0-57.5,0c-9.2,0-18.3-0.2-27.4-1.3c-4.2-0.5-8.4-1.2-12.5-2c-0.8-0.2-1.3-0.5-1.3-1.6c1.2,0.3,2.5,0.5,3.7,0.7
		c10,2,20.2,2.8,30.4,2.8c23.9,0.1,47.9,0.1,71.9,0c12.9-0.1,25.7-1.2,38.2-4.6C186,91,188.2,90.3,190.6,89.6z"></path>
	<path d="M194.3,79.3c0.1,0.9-0.4,1.2-1.1,1.5c-6.4,2.5-12.9,4.2-19.6,5.3c-10.6,1.8-21.2,2.4-31.9,2.4
		c-22.1,0-44.1,0-66.2,0c-11.7,0-23.4-0.9-34.9-3.5c-1.1-0.3-2.3-0.5-3.4-0.8c-0.6-0.1-1-0.6-0.8-1.1c0.2-0.5,0.7-0.1,1,0
		c9.9,2.5,19.9,3.8,30,4c26.2,0.6,52.4,0.3,78.6,0.2c11.7,0,23.3-1.1,34.7-3.8c4.2-1,8.4-2.3,12.5-3.9
		C193.5,79.4,193.8,79.1,194.3,79.3z"></path>
	<path d="M34,77.7c3.2,0.9,6.3,1.7,9.5,2.3c8.7,1.7,17.4,2.5,26.2,2.7c14.9,0.4,29.8,0.1,44.6,0.2
		c10.4,0,20.8,0.1,31.2,0c12.2-0.1,24.4-1.1,36.3-4.1c4-1,7.9-2.3,11.7-3.8c0.4-0.2,1.1-0.9,1.4-0.2c0.4,0.8-0.6,1-1.1,1.2
		c-4.2,1.8-8.6,3.1-13,4.1c-9.4,2.2-19.1,3.4-28.8,3.6c-26.5,0.6-52.9,0.3-79.4,0.2c-11.9,0-23.6-1.2-35.2-4.1
		c-0.8-0.2-1.5-0.4-2.3-0.6C34.5,79,34,78.7,34,77.7z"></path>
	<path d="M192.7,84.3c0,1-0.4,1.4-1.2,1.7c-7.4,2.7-15,4.3-22.8,5.4c-9.6,1.3-19.2,1.6-28.8,1.6c-21.3,0-42.5,0-63.8,0
		c-10.8,0-21.5-0.7-32.1-2.8c-1.6-0.3-3.1-0.7-4.7-1c-0.8-0.2-1.1-0.5-1.1-1.4c1.5,0.3,2.9,0.6,4.3,0.9c10.2,2.1,20.6,3,31,3
		c26.2,0.1,52.3,0.4,78.5-0.2c13.2-0.3,26.2-2.1,38.7-6.6C191.3,84.8,191.9,84.5,192.7,84.3z"></path>
	<path d="M189,94.5c0.1,1.1-0.4,1.5-1.2,1.8c-7.2,2.3-14.6,3.6-22,4.5c-9.6,1.1-19.3,1.3-29,1.3
		c-21.7-0.1-43.4,0.1-65.2-0.1c-9.9-0.1-19.8-1-29.5-3c-0.9-0.2-1.2-0.6-1.2-1.5c1.9,0.3,3.8,0.7,5.7,1c7.7,1.3,15.5,2,23.3,2.2
		c12.4,0.3,24.7,0.1,37.1,0.2c11.6,0,23.3,0,34.9,0c11.1,0,22.1-0.7,33.1-2.6C179.7,97.3,184.3,96.1,189,94.5z"></path>
	<path d="M115.5,79.4c-18.2,0-30.7,0.1-43.1,0c-10.9-0.1-21.7-1.1-32.4-3.5c-2-0.5-4-1.1-6-1.6
		c-0.5-0.1-0.9-0.4-0.7-0.9c0.2-0.6,0.7-0.2,1-0.1c10.7,3.1,21.6,4.4,32.7,4.8c14.8,0.6,29.6,0.2,44.4,0.2c12.8,0,25.6,0.2,38.4-0.1
		c12.5-0.3,24.8-1.7,36.8-5.3c2.6-0.8,5.2-1.7,7.8-2.8c0.3-0.1,0.8-0.7,1.1,0c0.2,0.6-0.3,0.8-0.8,1c-2.4,1.1-4.9,1.9-7.4,2.7
		c-8.9,2.8-18,4.2-27.2,4.9C143.2,80,126.4,79.1,115.5,79.4z"></path>
	<path d="M104,74.8c-7.3-0.1-20.5,0.2-33.7-0.1c-11.9-0.3-23.7-1.5-35.2-4.7c-0.4-0.1-0.8-0.2-1.3-0.4
		c-0.4-0.1-0.8-0.3-0.7-0.8c0.2-0.5,0.6-0.2,0.9-0.1c3.3,1,6.6,1.8,10,2.4C52,72.6,60,73.5,68,73.6c25.9,0.5,51.8,0.2,77.6,0.2
		c11.8,0,23.6-1.1,35.1-3.8c4.6-1.1,9.2-2.5,13.6-4.3c0.3-0.1,0.8-0.7,1.1-0.1c0.3,0.6-0.3,0.8-0.8,1c-4.9,2.1-9.9,3.6-15.1,4.7
		c-11.3,2.5-22.7,3.4-34.2,3.5C133.5,74.9,121.6,74.8,104,74.8z"></path>
	<path d="M112.9,70.3c-14.8,0-26.4,0.1-38.1,0c-12.3-0.1-24.5-1.1-36.5-4c-1.4-0.3-2.9-0.7-4.3-1.1
		c-0.3-0.1-0.8-0.2-0.6-0.7c0.2-0.6,0.6-0.2,0.9-0.2c11,3.2,22.3,4.4,33.7,4.9c10.3,0.4,20.7,0.2,31.1,0.2c15.5,0,30.9,0.1,46.4,0
		c12.2-0.1,24.4-1.1,36.3-4.1c4.2-1,8.3-2.3,12.3-4c1.4-0.6,1.5-0.6,1.5-0.3c0.1,0.9-0.8,0.9-1.3,1.2c-4.4,1.9-8.9,3.3-13.6,4.4
		c-8.9,2.1-18,3.2-27.2,3.6C139,70.7,124.4,70.1,112.9,70.3z"></path>
	<path d="M109.8,65.7c-12.6,0-25.2,0.1-37.8,0c-12.2-0.2-24.3-1.4-36.2-4.5c-0.7-0.2-1.5-0.4-2.2-0.6
		c-0.4-0.1-0.5-0.4-0.4-0.7c0.2-0.5,0.5-0.1,0.7,0c9.3,2.7,18.8,4,28.5,4.7c5.1,0.4,10.2,0.5,15.4,0.5c22.5,0,45,0,67.6-0.1
		c11.1,0,22.1-0.9,33-3.3c5.6-1.2,11-2.8,16.2-5c0.3-0.1,0.8-0.7,1.1-0.2c0.3,0.6-0.4,0.8-0.8,0.9c-5.9,2.6-12.1,4.3-18.4,5.5
		c-10.7,2.1-21.5,2.8-32.3,2.9C132.6,65.8,121.2,65.8,109.8,65.7C109.8,65.8,109.8,65.8,109.8,65.7z"></path>
	<path d="M197.5,42.1c-0.2,0.8-0.9,0.9-1.4,1.1c-7.8,3.5-16,5.6-24.4,6.9c-9.2,1.5-18.4,2-27.7,2.1
		c-22.8,0-45.5,0.1-68.3,0c-12.5,0-25-1-37.2-4c-2-0.5-3.9-1.1-5.9-1.6c-0.4-0.1-1-0.1-0.8-0.6c0.1-0.5,0.7-0.1,1,0
		C42.7,49,53,50.5,63.5,51c17.7,0.9,35.5,0.3,53.3,0.4c11.5,0.1,23,0.3,34.5-0.2c13.1-0.5,26.1-2,38.6-6.3c2.2-0.8,4.3-1.6,6.4-2.6
		C196.6,42.2,196.9,41.9,197.5,42.1z"></path>
	<path d="M107.3,61.2c-10.9-0.1-24.2,0.2-37.6-0.1c-12-0.3-23.9-1.6-35.5-5c-0.5-0.2-1.5-0.1-1.3-0.8
		c0.2-0.7,1,0,1.5,0.1c7.5,2.1,15,3.3,22.7,4.1c9.3,0.9,18.7,1,28,0.9c20,0,40.1,0.1,60.1-0.1c12.2-0.1,24.4-1.1,36.3-4
		c4.6-1.1,9.1-2.6,13.4-4.5c0.3-0.1,0.8-0.7,1.1-0.1c0.2,0.6-0.5,0.6-0.8,0.8c-7.7,3.4-15.7,5.3-24,6.6c-10.9,1.7-21.9,2.1-32.9,2
		C128.9,61.2,119.3,61.2,107.3,61.2z"></path>
	<path d="M32,50.3c2.5,0.7,5,1.3,7.4,1.9c7.9,1.9,15.9,2.8,24,3.3c9.4,0.6,18.7,0.4,28.1,0.4c18.9,0,37.8,0.1,56.7-0.1
		c12.3-0.1,24.5-1.4,36.4-4.7c3.7-1,7.4-2.3,10.9-3.9c0.3-0.1,0.8-0.7,1-0.2c0.3,0.5-0.4,0.7-0.8,0.9c-6.1,2.7-12.4,4.6-19,5.9
		c-11.4,2.3-23,3-34.6,3c-23.7,0-47.5,0.1-71.3-0.1c-12.8-0.1-25.4-1.6-37.8-5.2C32.7,51.2,32,51.2,32,50.3z"></path>
	<path d="M105.8,46.9c0.5,0.3,1,0.5,1.5,0.7c-13.9,0-27.8,0.3-41.7-0.3c-10.4-0.5-20.8-1.8-30.9-4.6
		c-1.1-0.3-2.3-0.7-3.5-1c0.5-0.6,0.9-0.4,1.3-0.3c13.2,4,26.8,5.3,40.5,5.5C83.6,47,94.2,47,104.9,47
		C105.2,47,105.5,46.9,105.8,46.9z"></path>
	<path d="M120.4,47.6c0.5-0.2,1-0.4,1.5-0.7c12.3,0,24.5,0.3,36.8-0.6c10.9-0.8,21.7-2.5,32-6.2
		c0.4-0.2,0.9-0.2,1.4-0.1c-0.2,0.5-0.7,0.5-1.1,0.6c-8,2.9-16.4,4.6-24.8,5.6C150.9,48.2,135.6,47.6,120.4,47.6z"></path>
	<path d="M99.4,42.5c0.3,0.2,0.5,0.4,0.8,0.7c-9.5,0-19,0.1-28.4-0.1c-7.4-0.1-14.7-0.7-22-1.7
		c-3.8-0.6-7.6-1.2-11.5-2.2c0.7-0.4,1.2-0.3,1.7-0.2c12.2,2.8,24.7,3.6,37.2,3.6C84.5,42.5,92,42.5,99.4,42.5z"></path>
	<path d="M127.7,43.1c0.3-0.2,0.5-0.4,0.7-0.7c9.4,0,18.9,0.2,28.3-0.4c9.3-0.6,18.6-1.9,27.7-4
		C165.8,43.5,146.8,43.3,127.7,43.1z"></path>
	<path d="M94.8,37.9c0.2,0.2,0.4,0.4,0.7,0.7c-15.8,0-31.6,0.5-47.6-2.1c1-0.5,1.8-0.3,2.5-0.2c9.5,1.4,19,1.7,28.6,1.7
		c4.8,0,9.6,0,14.4,0C93.8,38,94.3,37.9,94.8,37.9z"></path>
	<path d="M132.5,38.6c0.2-0.2,0.4-0.4,0.6-0.6c14.3,0.2,28.5-0.1,42.6-2.5C161.4,38.6,147,38.7,132.5,38.6z"></path>
	<path d="M90.5,33.5c0.2,0.2,0.3,0.3,0.5,0.5c-10.7,0.1-21.4,0.2-32.2-0.7c0.6-0.6,1.2-0.4,1.8-0.4
		c9.8,0.8,19.6,0.6,29.3,0.6C90.1,33.5,90.3,33.5,90.5,33.5z"></path>
	<path d="M136.9,34c0.2-0.2,0.3-0.3,0.5-0.5c9.8,0.1,19.6-0.3,29.4-1.1c-2.8,0.7-5.6,0.9-8.4,1.1c-7,0.5-14,0.6-21,0.6
		C137.3,34.1,137.1,34,136.9,34z"></path>
	<path d="M86.6,29c0.1,0.1,0.2,0.3,0.4,0.4c-5.6,0.1-11.2,0.1-16.9,0c0-0.1,0-0.3,0-0.4C75.6,29,81.1,29,86.6,29z"></path>
</g>
<path d="M180.8,208.8c-0.2,0.1-0.3,0.1-0.5,0.1C180.4,208.9,180.6,208.9,180.8,208.8z"></path>
<path d="M180.3,182.1c0.2,0,0.4-0.1,0.5-0.1C180.6,182,180.4,182,180.3,182.1z"></path>
<path d="M175.9,183c0.1,0,0.2-0.1,0.4-0.1C176.2,182.9,176.1,183,175.9,183z"></path>
</svg>
