<!--?xml version="1.0" encoding="utf-8"?-->
<!-- Generator: Adobe Illustrator 24.2.3, SVG Export Plug-In . SVG Version: 6.00 Build 0)  -->
<svg version="1.1" id="Camada_1" xmlns="http://www.w3.org/2000/svg" xmlns:xlink="http://www.w3.org/1999/xlink" x="0px" y="0px" viewBox="0 0 229 418" style="enable-background:new 0 0 229 418;" xml:space="preserve">
<style type="text/css">
	.st0{fill:#1F49C1;}
	.st1{fill:#FB0101;}
	.st2{fill:#F802E2;}
	.st3{fill:#00FC07;}
	.st4{fill:#96F853;}
	.st5{fill:#383A37;}
</style>
<g onclick="select(this)" class="" id="gola-secundaria" fill="#ededed">
	<path d="M116.1,49c-0.8,0.2-1.6,0.8-2.5,0.6c-0.2-0.8,0-1.6,0.2-2.3c0.9-3.6,2.6-6.9,4.5-10.1
		c4.1-4.3,8.1-8.6,12.2-12.8c3.1-3.1,5.7-6.6,7.9-10.4c0.8-1.4,1.8-2.7,2.1-4.4c0.8-1.3,1-2.7,1-4.1c0-1-0.5-1.7-1.4-2
		c-1.1-0.4-2.2-0.6-3.3-0.6c-15.7,0-31.3,0-47,0c-1.2,0-2.4,0.2-3.5,0.7c-0.7,0.3-1.2,0.8-1.2,1.6c0,1.4,0.1,2.9,0.8,4.2
		c0,0.6,0.3,1.1,0.6,1.6c2.4,4.4,5.1,8.7,8.6,12.4c4.4,4.6,8.9,9.1,13.2,13.9c2.2,3.3,3.9,6.9,4.8,10.8c0.1,0.6,0.2,1.1,0,1.7
		c-0.8,0.1-1.5-0.1-2.2-0.5c-0.1-0.1-0.2-0.2-0.3-0.2c0,0,0,0,0,0c-1-4.6-2.9-8.8-6.2-12.2c-2.7-2.9-5.4-5.8-8.2-8.6
		c-3.8-3.9-7.4-8-10.2-12.8c-2-3.3-3.5-6.8-3.5-10.8c0.4-2,2.3-3.5,4.8-3.8c1.3-0.2,2.6-0.3,3.9-0.3c14.8,0,29.5,0,44.3,0
		c1.7,0,3.4,0.1,5,0.5c1.5,0.4,2.7,1.2,3.3,2.6c0.8,2.8-0.1,5.5-1.2,8c-1.9,4.2-4.4,8.1-7.5,11.5c-4.1,4.5-8.4,8.9-12.6,13.3
		C119.2,40,117.1,44.2,116.1,49z"></path>
</g>
<g onclick="select(this)" class="" id="detalhe-punho" fill="#ededed">
	<path d="M43.1,120.6c-1.4,1-3.1,1.2-4.8,1.5c-6.7,0.9-13.5,0.7-20.2,0.2c-5.1-0.4-10.1-1.3-15-2.7
		C2,119.1,1,118.7,0,118.3c0-1.1,0-2.2,0-3.4c0.5-1,0.4-2.2,0.7-3.2c0.1-0.6,0.1-1.2,0.5-1.7c0.5,0.4,1.1,0.7,1.7,0.8
		c1.7,0.4,3.4,0.9,5.1,1.2c3.7,0.7,7.3,1.9,11.2,2c1.9,0.1,3.7,0.2,5.6,0.3c3.7,0.3,7.4,0.1,11.1,0.2c1.9,0,3.7-0.5,5.5-1.2
		c0.4-0.2,0.7-0.3,0.8,0.3C42.6,115.9,43.1,118.2,43.1,120.6z"></path>
	<path d="M184.4,120.3c-0.2-2.2,0.4-4.4,0.7-6.5c0.1-0.6,0.3-0.7,0.9-0.6c5.6,1.2,11.4,0.9,17.1,0.7
		c8.1-0.4,15.9-2.4,23.6-5c0.3-0.1,0.6-0.3,0.9-0.5c0.8,1.2,0.6,2.7,0.9,4c0.2,0.8,0.1,1.7,0.2,2.5c0.2,1.3-0.5,1.9-1.6,2.2
		c-5.8,1.9-11.6,3.3-17.6,4.3c-5.5,0.8-10.9,0.7-16.4,0.7c-2.5,0-4.9-0.3-7.3-0.9C185.3,121,184.8,120.8,184.4,120.3z"></path>
</g>
<g onclick="select(this)" class="" id="gola-terciaria" fill="#000000">
	<path d="M113.1,49.6c0.1-0.6,0.1-1.1,0-1.7c-0.9-3.9-2.6-7.5-4.8-10.8c3.4,0,6.7,0,10.1,0c-2,3.1-3.6,6.5-4.5,10.1
		c-0.2,0.8-0.5,1.5-0.2,2.3C113.5,49.6,113.3,49.6,113.1,49.6z"></path>
</g>
<path d="M110.6,48.9c0.2,0,0.3,0.1,0.3,0.2C110.8,49.1,110.6,49.2,110.6,48.9z"></path>
<g onclick="select(this)" class="" id="estampa-primaria" fill="#ffffff">
	<path d="M43.1,120.6c0-2.4-0.5-4.7-1-7c-0.1-0.5-0.4-0.4-0.8-0.3c-1.8,0.7-3.5,1.2-5.5,1.2c-3.7,0-7.4,0.1-11.1-0.2
		c-1.9-0.1-3.7-0.3-5.6-0.3c-3.8-0.1-7.4-1.3-11.2-2c-1.7-0.3-3.4-0.8-5.1-1.2c-0.6-0.2-1.2-0.4-1.7-0.8c1.8-9.5,2.7-19.1,4.2-28.6
		C6.2,76.3,6.5,71.1,7.6,66c1.8-8.2,4.5-16,9.6-22.8c2-2.7,4.3-5.2,7-7.4c1.4-1.1,2.5-2.7,4.1-3.5c3.6-1.9,7.3-3.7,11-5.3
		c9.9-4.1,19.9-8.1,29.3-13.4c2-1.1,4.1-2.1,5.6-4c0.9-1,2.1-1.8,3.7-1.4c-2,1.2-2.4,2.2-2,4.5c0.4,2.3,1.5,4.3,2.8,6.2
		c5.6,8.3,11.9,15.8,19.2,22.6c3.1,2.9,6.5,5.2,10.4,6.7c0.7,0.3,1.4,0.8,2.2,0.7l0,0c0,0.2,0.2,0.2,0.3,0.2
		c0.7,0.3,1.4,0.6,2.2,0.5c0.2,0,0.3,0,0.5,0c0.9,0.3,1.7-0.4,2.5-0.6c0.9-0.3,1.8-0.7,2.7-1c5.3-1.9,9.2-5.7,13.1-9.5
		c6-5.7,11-12.2,15.8-19c1.5-2.1,2.8-4.4,3.3-7c0.4-1.8-0.1-3.2-1.6-4.2c1.7,0,2.8,1,3.8,2.2c0.3,0.4,0.7,0.7,1.1,1
		c10,6.5,21.2,10.6,32.2,15.2c4,1.7,7.9,3.4,11.7,5.3c2.2,1.1,3.9,3,5.8,4.6c7.7,6.5,12.3,15,14.9,24.6c1.1,4,1.9,8,2.4,12.1
		c0.6,5.6,2.1,10.9,3.2,16.3c1.3,6.2,2.1,12.4,3.1,18.7c-0.3,0.2-0.6,0.4-0.9,0.5c-7.6,2.6-15.5,4.6-23.6,5
		c-5.7,0.3-11.4,0.5-17.1-0.7c-0.6-0.1-0.8,0-0.9,0.6c-0.4,2.2-1,4.3-0.7,6.5c-0.4,0.8-0.3,1.7-0.4,2.6c-1,8.4-1.7,16.8-1.7,25.2
		c0,2.2,0.1,4.4,0.5,6.6c0.4,1.9,0,3.8-0.2,5.7c-0.2,2.1-0.2,4.2-0.1,6.3c0.1,2.2-0.1,4.3-0.2,6.5c-0.1,2.8-0.1,5.7,0.1,8.5
		c0.1,1.7,0.1,3.4-0.1,5c-0.3,3.1,0.2,6.1,0.9,9.1c1.6,7.2,1.4,14.5,0.3,21.8c-0.3,2.1-0.4,4.2,0.3,6.4c1.8,5.4,1.8,11,0.9,16.6
		c-0.2,1.5-0.2,2.9,0.1,4.4c0.9,3.8,0.4,7.6,0.6,11.5c0.3,5.9,0.7,11.9,1.4,17.8c0.3,2,0.2,4.1,0.3,6.1c0,1.8-0.3,2.3-2.1,2.9
		c-3,0.9-6.1,1.2-9.2,1.5c-7.7,0.8-15.4,0.9-23.1,1c-11.2,0.2-22.5,0.7-33.7,0.8c-12.5,0.2-24.9-0.8-37.4-0.8
		c-8.4,0-16.8-0.1-25.2-0.7c-4.1-0.3-8.3-0.8-12.4-1.7c-0.2,0-0.4-0.1-0.6-0.1c-3.2-0.8-3.6-1.2-3.4-4.5c0.5-7.8,1-15.5,1.6-23.3
		c0.1-2,0.3-4.1,0.2-6.1c0-1.8,0-3.6,0.4-5.4c0.4-2.3,0.5-4.5,0.1-6.8c-0.3-1.8-0.3-3.7,0.1-5.5c0.7-2.7,0.4-5.5,0.2-8.2
		c-0.3-3.5-0.7-7-0.6-10.5c0.2-4.3,1.2-8.4,2.6-12.4c0.4-1.1,0.7-2.1,0.5-3.3c-0.2-1.2-0.2-2.5,0.1-3.7c0.3-1.6,0.2-3.2,0.1-4.9
		c-0.2-3.3-0.2-6.6-0.2-9.9c-0.1-12.9,0-25.9-0.1-38.8c0-5.1-1-10.2-1.5-15.3C43.4,123.3,43.2,121.9,43.1,120.6z"></path>
	<path d="M118.4,37.2c-3.4,0-6.7,0-10.1,0c-4.2-4.8-8.8-9.3-13.2-13.9c-3.5-3.7-6.2-7.9-8.6-12.4c-0.3-0.5-0.5-1-0.6-1.6
		c3.1,0.3,6.1,0.6,9.2,0.8c8.4,0.6,16.7,1.4,25.1,0.8c6.8-0.5,13.5-0.9,20.3-1.4c-0.3,1.6-1.3,3-2.1,4.4c-2.2,3.8-4.8,7.2-7.9,10.4
		C126.5,28.6,122.5,32.9,118.4,37.2z"></path>
</g>
<g onclick="select(this)" class="" id="gola-primaria" fill="#ffffff">
	<path d="M116.1,49c1-4.8,3.1-9,6.5-12.6c4.2-4.5,8.4-8.8,12.6-13.3c3.1-3.4,5.6-7.3,7.5-11.5c1.2-2.5,2-5.1,1.2-8
		c1,0.6,1.6,1.6,2.4,2.4c1,0.9,1.8,1.9,3,2.4c1.6,1.1,2,2.4,1.6,4.2c-0.5,2.6-1.8,4.9-3.3,7c-4.7,6.7-9.8,13.2-15.8,19
		c-3.9,3.8-7.9,7.5-13.1,9.5C117.9,48.4,117,48.7,116.1,49z"></path>
	<path d="M82.5,4.5c0,4,1.6,7.4,3.5,10.8c2.8,4.8,6.4,8.9,10.2,12.8c2.8,2.8,5.5,5.7,8.2,8.6c3.2,3.5,5.2,7.6,6.2,12.2
		c-0.8,0.1-1.5-0.4-2.2-0.7c-3.9-1.5-7.3-3.8-10.4-6.7c-7.3-6.8-13.6-14.3-19.2-22.6c-1.3-1.9-2.3-3.9-2.8-6.2c-0.4-2.2,0-3.3,2-4.5
		c1.2-0.5,2-1.6,3-2.5C81.5,5.4,81.9,4.8,82.5,4.5z"></path>
	<path d="M140.6,9.6c-6.8,0.5-13.5,0.9-20.3,1.4c-8.4,0.6-16.7-0.2-25.1-0.8c-3.1-0.2-6.1-0.5-9.2-0.8
		c-0.7-1.3-0.9-2.7-0.8-4.2c0-0.8,0.5-1.3,1.2-1.6c1.1-0.5,2.3-0.7,3.5-0.7c15.7,0,31.3,0,47,0c1.1,0,2.2,0.2,3.3,0.6
		c0.9,0.3,1.4,1,1.4,2C141.6,6.9,141.3,8.3,140.6,9.6z"></path>
</g>
<g onclick="select(this)" class="" id="estampa-secundaria" fill="#ededed">
	<path d="M182.6,159.2c0.1,1.3-0.1,2.6-0.3,3.8c-6.1-0.6-12.1-1.2-18.2-1.9c-3.5-0.4-7-0.7-10.5-1.1
		c-0.6-0.1-1-0.1-1.1,0.7c-0.1,1.7-0.3,3.3-0.4,5c-0.1,0.8,0.2,1,0.9,1.1c1.8,0.1,3.6,0.3,5.4,0.5c8,0.8,15.9,1.6,23.9,2.4
		c0.1,1.7-0.2,3.4-0.2,5.2c-4.4-0.5-8.7-1-13.1-1.6c-5.5-0.7-11.1-1.3-16.6-2c-0.7-0.1-0.8,0.2-0.8,0.8c-0.1,1.7-0.3,3.3-0.4,5
		c-3.1-0.3-6.3-0.6-9.4-1c-5.5-0.6-11-1.2-16.5-1.9c-4.4-0.5-8.9-1-13.3-1.4c-0.5-0.1-1-0.2-1.3,0.3c-0.6,0.9-1.2,1.9-1.8,2.9
		c2.6,0.3,5.1,0.7,7.5,1c7.3,0.9,14.5,1.9,21.8,2.8c3.8,0.5,7.7,1,11.5,1.5c0.7,0.1,1.1,0,1.1-0.9c0-1.1,0.2-2.3,0.4-3.4
		c4.8,0.5,9.6,1.1,14.5,1.6c5.5,0.6,11.1,1.2,16.6,1.8c0.3,1.7,0.2,3.5,0.1,5.2c-0.3-0.1-0.5-0.1-0.8-0.2
		c-9.9-1.3-19.8-2.5-29.7-3.9c-0.9-0.1-1.1,0.2-1.1,1c-0.1,1.7-0.3,3.3-0.5,5l0,0c-2,0.2-4-0.4-6-0.6c-3.7-0.4-7.3-0.9-11-1.3
		c-0.8-0.1-1.1,0.1-0.9,0.9c0.3,1,0.4,2.1,0.6,3.1c-2.8-0.4-5.6-0.7-8.6-1.1c1-1.1,1.8-1.9,2.5-2.8c0.2-0.2,0.6-0.4,0.4-0.8
		c-0.1-0.3-0.5-0.2-0.8-0.2c-6.4-0.8-12.8-1.4-19.1-2.4c-2.1-0.3-3.2,0.2-3.9,2.1c0,0,0,0.1-0.1,0.1c-0.5,0.6-0.4,0.9,0.4,1
		c2.9,0.4,5.8,0.8,8.8,1.2c3.8,0.5,7.7,1,11.5,1.9c-1.6,1.8-3.3,3.6-5,5.4c0.2,0.1,0.2,0.2,0.3,0.2c4.5,0.6,8.9,1.2,13.4,1.8
		c0.8,0.1,1.1-0.1,0.9-1c-0.4-1.8-0.8-3.7-0.9-5.5c5.6,0.8,11.2,1.6,16.7,2.3c0.1,0.1,0.1,0.1,0.2,0.2c-0.2,2-0.4,4.1-0.6,6.1
		c-0.5,0-1,0-1.4-0.1c-4.3-0.6-8.6-1.2-12.9-1.8c-0.7-0.1-0.9,0.1-0.7,0.8c0.2,0.9,0.4,1.8,0.5,2.7c0.1,0.7,0.4,0.9,1.1,1
		c4.1,0.6,8.1,1.2,12.2,1.9c0.6,0.1,0.9-0.1,0.9-0.7c0.1-1.3,0.2-2.5,0.3-3.8c1.6,0.2,3.3,0.5,5,0.7c10,1.4,19.9,2.7,29.9,4.1
		c0.3,1.7,0.5,3.5,0.1,5.3c-0.3-0.1-0.6-0.1-0.9-0.2c-7.9-1.2-15.8-2.4-23.6-3.6c-3.1-0.5-6.3-0.9-9.4-1.4c-1-0.2-1.5,0-1.4,1.2
		c0,1-0.1,2.1-0.2,3.1c-0.1,0.7,0.1,0.9,0.9,1.1c5.8,0.8,11.5,1.7,17.3,2.6c5.7,0.9,11.4,1.7,17.1,2.6c0.1,2-0.3,3.9-0.6,5.8
		c-0.4,0-0.9,0-1.3-0.1c-7.1-1.1-14.1-2.3-21.1-3.5c-4-0.6-7.9-1.3-11.9-2c-0.6-0.1-0.9,0.1-0.9,0.7c0,0.8-0.1,1.6-0.2,2.4
		c-0.2,1.7-0.2,1.7,1.4,1.9c7.3,1.2,14.6,2.4,22,3.5c4.3,0.7,8.6,1.3,12.9,2c0.8,2.1,1.2,4.3,1.1,6.5c-2.6-0.4-5.3-0.9-7.9-1.3
		c-9.8-1.7-19.5-3.4-29.2-5.1c-0.8-0.1-1,0.1-1.1,0.8c-0.1,1.1-0.2,2.3-0.3,3.4c-2-0.4-4.1-0.7-6.1-1.1c-0.8-0.2-0.8,0-0.7,0.7
		c0.4,2,0.7,4.1,1,6.1c-0.3,0-0.6,0-0.8-0.1c-15.5-2.9-31-5.8-46.5-8.7c-1-0.2-2.1-0.2-3.2-0.8c1.6-1.8,3.1-3.4,4.8-5.2
		c-4-0.7-7.7-1.3-11.4-2c-0.7-0.1-1,0.2-1.3,0.6c-0.8,1.3-1.6,2.7-2.5,4c-0.4,0.6-0.3,0.7,0.4,0.8c1.3,0.2,2.7,0.5,4,0.7
		c1.9,0.4,3.9,0.7,5.9,1.1c-1.1,1.2-2,2.3-3.1,3.4c3.2,0.6,6.1,1.1,9,1.6c11.3,2.1,22.6,4.1,33.9,6.2c3.5,0.6,7,1.3,10.5,1.9
		c0.6,0.1,1,0.1,0.8-0.7c-0.3-1-0.4-2-0.6-3.1c1.5,0.3,3,0.5,4.4,0.9c0.7,0.2,0.8-0.1,0.8-0.7c0.1-2,0.3-3.9,0.5-5.9
		c0.2,0,0.3,0,0.5,0c8.1,1.4,16.1,2.8,24.2,4.2c4.6,0.8,9.3,1.6,13.9,2.3c0.1,2.5-0.4,4.9-0.8,7.4c-0.2,0-0.5,0-0.7-0.1
		c-11.7-2.2-23.4-4.4-35.1-6.6c-2.8-0.5-2.8-0.6-2.8,2.3c0,0.7,0.3,0.9,0.9,1c7.8,1.4,15.5,2.8,23.3,4.3c5,0.9,10,1.8,15,2.7
		c0.7,2.4,0.6,4.8,0.4,7.3c-0.4-0.1-0.9-0.1-1.3-0.2c-12.6-2.5-25.3-4.9-37.9-7.5c-0.8-0.2-1.1,0-1.1,0.8c0,0.6-0.1,1.3-0.2,1.9
		c-0.2,1.1,0.2,1.6,1.3,1.8c8.3,1.6,16.7,3.3,25,4.9c4.7,0.9,9.5,1.9,14.2,2.8c0.4,2.4,0.5,4.8,0.6,7.2c-3.2-0.7-6.4-1.3-9.6-2
		c-17.9-3.7-35.8-7.5-53.8-11.2c-15.2-3.2-30.5-6.3-45.7-9.6c-1.8-0.4-3.1-0.2-4.2,1.4c-0.2,0.3-0.7,0.4-0.6,0.8
		c0.1,0.3,0.6,0.3,0.9,0.3c3.6,0.7,7.1,1.5,10.7,2.2c17,3.5,33.9,7,50.9,10.5c13.5,2.8,27,5.6,40.6,8.4c3.7,0.8,7.4,1.5,11,2.2
		c0.3,2.8,0.8,5.5,0.8,8.4c-3.1-0.7-6.2-1.3-9.4-2c-18.8-4.1-37.6-8.3-56.4-12.4c-16.8-3.7-33.5-7.4-50.3-11.1
		c-1.3-0.3-2.7-0.6-4.1-1c1.7-1.8,3.3-3.5,4.9-5.3c-1.8-0.4-3.4-0.8-5-1.1c0-0.2,0-0.2,0-0.3c0.3-0.5,0.6-1,0.9-1.5
		c0.8-1.3,0.8-1.2-0.6-1.5c-4.5-0.9-8.9-1.9-13.4-2.8c-3.8-0.8-7.7-1.6-11.5-2.3c-0.2-1.9-0.1-3.7,0.4-5.5c0.3,0,0.6,0.1,1,0.1
		c8.3,1.6,16.6,3.3,24.9,4.9c3.3,0.6,3.3,0.6,5-2.3c0-0.1,0.1-0.1,0.1-0.2c0.5-0.6,0.3-0.8-0.4-0.9c-2.3-0.4-4.5-0.9-6.8-1.3
		c-7.8-1.5-15.7-3-23.5-4.6c-0.5-1.7-0.5-3.5-0.5-5.3c0.2,0,0.3,0,0.5,0c5.8,1.1,11.5,2.1,17.3,3.2c5.3,1,10.7,2,16,2.9
		c0.4,0.1,1,0.3,1.3-0.2c0.6-1,1.4-2,1.9-3.2c-9.7-1.8-19.4-3.6-29-5.4c-2.8-0.5-5.5-1.2-8.3-1.5c0-1.6,0-3.2,0-4.9
		c0-0.3,0-0.6,0.3-0.9c12.6,2.2,25.1,4.3,37.7,6.5c3,0.5,2.9,0.6,4.8-2.4c0.6-0.9,0.3-1.1-0.6-1.2c-3.6-0.6-7.2-1.2-10.7-1.8
		c-10.2-1.8-20.3-3.5-30.5-5.3c0.1-1.5,0.5-2.9,1.1-4.2c2.5,0.4,5,0.8,7.6,1.2c11.4,1.8,22.8,3.6,34.1,5.5c2.3,0.4,2.3,0.4,3.6-1.6
		c0.4-0.6,0.7-1.2,1.2-1.8c0.5-0.7,0.4-0.9-0.5-1c-2.1-0.3-4.2-0.6-6.3-1c-9.6-1.6-19.3-3.2-28.9-4.7c-3.2-0.5-6.5-1-9.7-1.5
		c-0.2-1.4-0.4-2.9,0.1-4.3c1.9,0.3,3.9,0.6,5.8,0.9c7.8,1.2,15.6,2.3,23.4,3.5c6.1,0.9,12.2,1.8,18.2,2.8c0.7,0.1,1.1,0,1.5-0.6
		c0.7-1.2,1.4-2.3,2.1-3.5c0.5-0.7,0.2-0.8-0.5-0.9c-1.8-0.2-3.6-0.5-5.4-0.8c-8.8-1.3-17.6-2.7-26.4-4c-6.3-1-12.5-1.9-18.8-2.9
		c-0.3-1-0.2-2,0.1-2.9c4,0.5,8.1,1,12.1,1.6c8.1,1.1,16.1,2.2,24.2,3.3c5.8,0.8,11.6,1.6,17.4,2.4c-0.6,0.9-1.1,1.8-1.7,2.8
		c-0.3,0.5-0.3,0.8,0.4,0.9c3.8,0.5,7.6,1.1,11.4,1.7c2.1,0.3,4.2,0.7,6.5,1c-1.6,1.7-2.9,3.2-4.4,4.8c0.3,0.1,0.5,0.1,0.6,0.1
		c3.7,0.6,7.3,1.1,11,1.6c4,0.6,8,1.2,11.9,1.8c0.7,0.1,1.1,0.1,0.8-0.8c-0.2-0.8-0.3-1.6-0.4-2.5c-0.4-2.1-0.5-2.2-2.6-2.5
		c-0.2,0-0.3,0-0.5-0.1c-5.2-0.8-10.3-1.6-15.5-2.4c-0.8-0.1-0.8-0.3-0.3-0.8c0.9-0.9,1.7-1.9,2.7-2.9c-2.7-0.4-5.1-0.7-7.6-1.1
		c-4.1-0.6-8.1-1.1-12.2-1.7c1.1-1.7,2.1-3.5,3.2-5.2c0.5-0.8,0.4-0.9-0.5-1.1c-6.6-0.9-13.1-1.8-19.7-2.7
		c-12.3-1.7-24.6-3.4-36.9-5.2c-0.2-0.9-0.5-1.8-0.1-2.7c1.7,0.2,3.4,0.4,5.1,0.6c6.1,0.8,12.2,1.5,18.3,2.3
		c7.1,0.9,14.2,1.7,21.3,2.6c4.7,0.6,9.4,1.2,14.1,1.7c0.5,0.1,1,0.3,1.4-0.3c1-1.6,2-3.3,3-4.9c0.4-0.6,0.2-0.7-0.4-0.8
		c-1.1-0.1-2.2-0.3-3.3-0.4c-7.1-0.9-14.2-1.8-21.2-2.7c-6.7-0.9-13.4-1.7-20-2.6c-6-0.8-12-1.6-18-2.4c-0.2-0.9-0.2-1.7-0.1-2.6
		c4,0.4,8,0.8,12,1.3c6.8,0.8,13.5,1.5,20.3,2.3c6.1,0.7,12.3,1.4,18.4,2.1c4.7,0.5,9.3,1,14,1.5c0.5,0.1,1,0.2,1.3-0.3
		c1.1-1.8,2.2-3.5,3.3-5.4c-4.7-0.5-9.2-1.1-13.7-1.6c-6.5-0.8-13-1.6-19.5-2.3c-5.6-0.7-11.2-1.3-16.9-2
		c-6.5-0.8-12.9-1.5-19.3-2.3c-0.2-0.9,0-1.7,0-2.6c4.1,0.4,8.2,0.8,12.3,1.2c5.1,0.5,10.2,1,15.2,1.5c7.5,0.8,15,1.6,22.5,2.3
		c6,0.6,12.1,1.2,18.1,1.9c3.6,0.4,3.6,0.5,5.5-2.7c0.3-0.4,0.3-0.7,0-1.2c-0.4-0.9-1.2-1.7-1.4-2.8c5.3,0.6,10.6,1.1,15.9,1.7
		c5.7,0.6,11.4,1.1,17.1,1.8c2.7,0.3,2,0.6,2.4-2.1c0.1-0.7-0.1-1-0.9-1.1c-3.7-0.3-7.3-0.6-11-1c-6.7-0.6-13.4-1.2-20.1-1.8
		c-1.6-0.1-3.3-0.2-5.2-0.4c0.7,1.1,1.2,2,1.7,2.9c-4-0.4-7.9-0.8-11.9-1.2c-8.9-0.9-17.8-1.8-26.8-2.8c-11.2-1.2-22.4-2.4-33.5-3.5
		c-0.1-0.7-0.2-1.3,0-2c4.9,0.4,9.8,0.8,14.6,1.3c4.8,0.4,9.5,0.8,14.3,1.3c6.7,0.6,13.3,1.2,20,1.8c5,0.5,10,0.9,15,1.4
		c2.1,0.2,4.2,0.4,6.5,0.6c-1.5-2.6-2.6-5.1-4.2-7.5c1-0.2,2.1,0,3.1,0.1c8.3,0.8,16.6,1.5,24.9,2.3c6.7,0.6,13.4,1.2,20.1,1.8
		c0.7,0.1,1.4,0.4,2,0c1.3-0.8,2.4-1.8,3.9-2.9c-18.7-1.4-36.9-2.9-55.3-4.3c0.2,1.2,1.2,1.9,1.3,3c-0.9-0.1-1.9-0.2-2.8-0.3
		c-3.2-0.4-6.3-0.6-9.5-0.9c-5.6-0.5-11.3-1-16.9-1.5c-7.5-0.7-15.1-1.4-22.6-2.1c-4.8-0.4-9.6-0.9-14.4-1.3c-0.3-0.6-0.2-1.3-0.1-2
		c0.2,0,0.4,0,0.6,0c8.3,0.6,16.6,1.3,24.9,1.9c6.6,0.5,13.2,1.1,19.8,1.6c4.3,0.3,8.7,0.7,13,1c2.1,0.2,4.2,0.3,6.5,0.5
		c-0.3-0.6-0.5-1-0.8-1.4c-1.3-2.4-2.5-4.8-3.8-7.2c23.2,1.9,46.4,3.7,69.9,5.6c-3.2,2.5-6.2,4.8-9.5,7.4c5.8,0.4,11.2,0.8,16.6,1.2
		c0.2,1.3,0.1,2.6,0.1,3.9c-5.3-0.5-10.6-0.9-15.8-1.4c-4.9-0.5-4.9-0.6-8.8,2.4c-1.5,1.1-2.9,2.3-4.7,3.6
		C163.1,157.4,172.9,158.3,182.6,159.2z M136.8,212.2c-9.6-1.6-19.2-3.1-28.8-4.7c-0.5-0.1-0.8-0.1-1.2,0.3
		c-1.2,1.3-2.4,2.6-3.6,3.8c0.2,0.4,0.5,0.3,0.8,0.4c8.3,1.3,16.7,2.7,25,4c2.6,0.4,5.1,0.8,7.7,1.2c0.8,0.1,1.1,0,0.8-0.9
		C137.2,214.9,137,213.5,136.8,212.2c0.2,0,0.5,0,0.7,0c3.1,0.5,6.2,1,9.3,1.6c0.8,0.1,1.3,0.1,1.3-0.9c0-1.1,0.1-2.1,0.3-3.2
		c0.1-0.8-0.2-1.1-0.9-1.2c-3.4-0.5-6.9-0.9-10.3-1.5c-1.2-0.2-1.1,0.3-1,1.1C136.4,209.4,136.8,210.7,136.8,212.2z M139,223.2
		c-0.9,0.2-1.7-0.3-2.5-0.5c-7.7-1.3-15.5-2.7-23.2-4c-4.8-0.8-9.6-1.6-14.4-2.4c1.3-1.5,2.6-2.9,3.9-4.5c-3.6-0.6-7-1.2-10.4-1.7
		c-1.3-0.2-2.8-0.8-4-0.4c-1.2,0.4-1.5,2.2-2.4,3.3c-0.6,0.8-0.2,1,0.5,1.1c1.5,0.3,3.1,0.5,4.6,0.8c2.6,0.5,5.2,0.8,7.7,1.4
		c-1.1,1.2-2.3,2.4-3.4,3.7c0.3,0.1,0.4,0.1,0.5,0.2c8.8,1.5,17.6,3.1,26.4,4.6c5.3,0.9,10.6,1.9,15.9,2.8c1.3,0.2,1.4,0.1,1.1-1.2
		C139.2,225.2,138.8,224.2,139,223.2c0.5,0,0.9,0,1.4,0.1c1.9,0.3,3.8,0.7,5.6,1c0.5,0.1,1.1,0.3,1.1-0.6c0.1-1.3,0.1-2.6,0.3-3.9
		c0.1-0.7-0.1-0.9-0.8-1c-2.6-0.4-5.3-0.9-7.9-1.3c-0.6-0.1-0.8,0-0.7,0.7C138.3,219.9,138.6,221.5,139,223.2z M142.8,245.3
		c-0.4,0.2-0.9,0-1.3-0.1c-5.4-1.1-10.9-2.1-16.3-3.2c-13.9-2.7-27.8-5.5-41.7-8.2c-0.4-0.1-0.9-0.2-1.2,0.2c-1,1-1.9,2.1-3,3.3
		c21.5,4.3,42.9,8.5,64.3,12.7C143.3,248.3,143,246.8,142.8,245.3c0.4,0.1,0.8,0.2,1.2,0.4c0.9,0.3,1.2,0,1.2-0.9
		c0.1-1.2,0.2-2.4,0.4-3.7c0.2-1.2,0-1.9-1.4-1.9c-0.5,0-1-0.1-1.4-0.3c-1-0.4-1,0.2-0.9,0.9C142.2,241.7,142.5,243.5,142.8,245.3z
		 M114.7,166.8c3.7,0.4,7.2,0.8,10.7,1.2c8.3,1,16.7,2,25.1,3c0.9,0.1,1.4,0,1.4-1.1c0-0.8,0.1-1.5,0.2-2.3c0.1-0.7-0.1-0.9-0.8-1
		c-2.3-0.2-4.5-0.4-6.8-0.7c-5.2-0.5-10.4-1.1-15.6-1.6c-3.7-0.4-7.4-0.7-11.1-1.1c-0.5-0.1-0.9-0.1-1.2,0.5
		C115.9,164.8,115.3,165.7,114.7,166.8z M111,203.1c-0.3-0.1-0.4-0.2-0.5-0.2c-4.3-0.6-8.7-1.1-13-2c-2.8-0.6-4.6-0.1-5.6,2.6
		c-0.1,0.1-0.2,0.3-0.3,0.4c-0.5,0.6-0.3,0.8,0.4,0.9c4.7,0.8,9.4,1.5,14.2,2.3c0.5,0.1,0.9,0,1.3-0.4
		C108.7,205.5,109.8,204.3,111,203.1z M87.1,228.8c-2.3-0.4-4.4-0.8-6.5-1.2c-3.2-0.6-3.1-0.6-4.9,2.1c-0.3,0.5-0.6,1-0.9,1.5
		c-0.4,0.6-0.3,0.8,0.4,0.9c2.3,0.4,4.5,0.9,6.8,1.3c0.5,0.1,0.8,0,1.2-0.4C84.3,231.7,85.6,230.4,87.1,228.8z M68.7,241
		c1.9,0.4,3.7,0.8,5.4,1.1c0.2,0,0.4,0,0.6-0.1c1.4-1.5,2.9-3,4.4-4.6c-2.1-0.4-3.9-0.8-5.7-1.2c-0.3-0.1-0.7-0.1-1.1-0.2
		c-0.5-0.2-0.7,0.2-0.9,0.5C70.5,238,69.6,239.4,68.7,241z M127.9,185c1.4,0.1,3,0.9,3.9,0.3c0.7-0.5-0.2-2.1-0.3-3.2
		c0-0.2,0-0.4-0.3-0.6C130.1,182.6,129.1,183.7,127.9,185z"></path>
	<path d="M162.5,285.5c-3.4,0.1-6.8,0.3-10.2,0.3c-6.3,0-12.5,0.2-18.8,0.4c-0.3,0-0.6,0-0.8-0.1
		c-0.5-0.2-1.1-0.4-1.6-0.5c-22.5-5.4-45-10.9-67.5-16.3c-7.5-1.8-15-3.6-22.6-5.4c-0.1-1.9,0.2-3.8,0.4-5.6
		c3.8,0.9,7.6,1.7,11.4,2.5c3.1,0.7,3.1,0.7,4.7-2c0.3-0.6,0.3-0.8-0.4-0.9c-5.1-1.2-10.3-2.4-15.4-3.5c0-1.9,0-3.8,0-5.7
		c0.2,0,0.4,0,0.6,0.1c5.9,1.3,11.8,2.6,17.8,3.9c0.5,0.1,1,0.4,1.4-0.3c0.5-0.9,1-1.7,1.6-2.6C56,248.1,49,246.6,42,245
		c0-1.5,0.5-3,0.5-4.5c0-0.5-0.2-1,0-1.5c4.5,0.9,9,1.8,13.5,2.7c3.3,0.7,6.6,1.4,9.8,2c0.8,0.1,0.8,0.4,0.4,1
		c-0.5,0.8-1,1.6-1.4,2.3c-0.5,0.8-1.5,1.7-1.3,2.3c0.2,0.7,1.6,0.5,2.5,0.8c0,0,0.1,0,0.1,0c0.8,0.1,0.7,0.4,0.2,0.9
		c-0.7,0.7-1.4,1.5-2.1,2.3c0.2,0.1,0.3,0.2,0.4,0.2c19.6,4.3,39.2,8.5,58.8,12.8c17.7,3.9,35.4,7.7,53.1,11.5
		c3.5,0.8,7,1.5,10.5,2.2c0.2,1.9-0.1,2.5-1.9,3c-2.6,0.9-5.4,1.1-8.1,1.4c-1.5,0.2-3,0.4-4.5,0.3c-0.2-0.1-0.4-0.2-0.6-0.2
		c-17.4-4-34.8-8.1-52.1-12.1c-18.1-4.2-36.1-8.4-54.2-12.6c-2-0.5-4.1-1-6.2-1.5c1.6-1.7,3-3.2,4.5-4.9c-0.8-0.2-1.5-0.4-2.1-0.5
		c-0.5-0.1-0.8,0.1-1,0.5c-0.9,1.5-1.8,3-2.8,4.5c1.4,0.5,1.3,0.5,0.4,1.6c-0.6,0.7-1.3,1.2-1.8,2.1c0.3,0.1,0.5,0.1,0.8,0.2
		c11.3,2.6,22.7,5.1,34,7.7c18.7,4.2,37.4,8.5,56,12.7C152.5,283.3,157.5,284.4,162.5,285.5z"></path>
	<path d="M43,118.9c18.5,1.1,37,2.2,55.6,3.3c-0.2-1-0.8-1.7-1.2-2.4c-1-2-2.1-3.9-3.2-5.9c-0.3-0.5-0.6-0.8-1.3-0.9
		c-4.3-0.2-8.5-0.5-12.8-0.8c-8.4-0.5-16.8-1.1-25.2-1.5c-4.1-0.2-8.1-0.7-12.2-0.5c-0.5,0-1.1,0-1.1-0.8c0-0.8,0.7-0.4,1-0.4
		c5.3,0.2,10.6,0.4,15.9,0.7c5.5,0.3,11,0.5,16.5,0.8c6,0.3,11.9,0.6,17.9,0.9c0.3,1,0.8,1.6,2,1.7c6,0.3,11.9,0.7,17.9,1
		c7.2,0.4,14.4,0.9,21.6,1.3c5.1,0.3,10.2,0.6,15.3,0.9c7.2,0.4,14.4,0.9,21.6,1.3c4.3,0.3,8.6,0.5,12.9,0.8c0,0.7,0,1.3,0,1.9
		c-0.3,2.3-0.6,4.6-0.9,7c-3.8-0.2-7.6-0.5-11.3-0.7c-8.1-0.5-16.1-0.9-24.2-1.4c-6.8-0.4-13.6-0.8-20.4-1.2
		c-8.9-0.5-17.8-1-26.6-1.5c-1.7-0.1-1.7-0.1-1.3,1.4l0,0c-6.1-0.4-12.2-0.8-18.3-1.2c-7.3-0.5-14.7-1.1-22.1-1.6
		c-5.4-0.4-10.7-0.7-16.1-1.1C43,119.6,43,119.3,43,118.9z"></path>
	<path d="M44.2,129.1c-0.3-0.3-0.2-0.6-0.2-0.9c2.1-0.1,4.2,0.2,6.3,0.4c6.8,0.5,13.7,1,20.5,1.4
		c8.6,0.6,17.3,1.2,25.9,1.7c2.4,0.2,4.9,0.3,7.6,0.5c-1.6-2.9-3.1-5.7-4.7-8.4l0,0c0.2,0,0.3,0,0.5,0c8.8,0.6,17.6,1.2,26.3,1.9
		c5.8,0.4,11.5,0.8,17.3,1.2c7.6,0.5,15.2,1,22.8,1.5c5.6,0.4,11.2,0.8,16.8,1.2c-0.1,1.4,0,2.8-0.4,4.1c-1.5,1.1-3,2.3-4.6,3.5
		c1.6,0.5,3,0.2,4.3,0.5c0.1,0.8,0.2,1.6-0.1,2.5c-2.4-0.2-4.7-0.4-7.4-0.5c1-0.8,1.8-1.4,2.6-2c-0.2-0.4-0.5-0.3-0.7-0.3
		c-5.1-0.3-10.3-0.6-15.4-1c-7.8-0.5-15.6-1.1-23.4-1.6c-3.9-0.3-7.9-0.5-11.8-0.8c-6.7-0.5-13.4-0.9-20.2-1.4
		c-0.5,0-1.1-0.3-1.4,0.1c-0.3,0.4,0.3,0.9,0.5,1.4c-0.4,0-0.7,0-1.1,0c-4.7-0.4-9.4-0.8-14.2-1.2c-8-0.6-16-1.3-24.1-1.9
		C58.7,130.3,51.4,129.7,44.2,129.1z"></path>
	<path d="M124.4,286.3c-1.2,0.3-2.4,0.2-3.6,0.2c-9.1,0.3-18.1-0.4-27.2-0.7c-1.6,0-3.2-0.1-4.8-0.1
		c-0.1-0.8-0.8-0.5-1.2-0.6c-9.4-2.4-18.8-4.8-28.1-7.3c-6.4-1.6-12.8-3.3-19.2-4.9c0.1-2,0.2-3.9,0.5-5.9c2.1,0.5,4.1,0.9,6.2,1.4
		c16.5,3.8,33.1,7.6,49.6,11.5C105.9,282.1,115.2,284.2,124.4,286.3z"></path>
	<path d="M150.2,187.7c4.1,0.5,8.2,1.1,12.3,1.6c6.3,0.8,12.6,1.5,18.9,2.3c0.3,0,0.6,0,0.8,0.1c0.3,1.8,1,3.5,1.1,5.4
		c-7.8-1.1-15.6-2.2-23.4-3.3c-3.1-0.4-6.2-0.9-9.2-1.3c-0.3,0-0.6-0.1-0.8,0c-0.1-0.1-0.1-0.1-0.2-0.2
		C150.2,190.7,149.9,189.2,150.2,187.7L150.2,187.7z"></path>
	<path d="M76.8,285.4c-0.3,0.4-0.8,0.2-1.2,0.2c-4.3-0.1-8.6,0-12.9-0.3c-5.3-0.3-10.5-0.6-15.8-1.4
		c-1.7-0.3-3.5-0.8-5.1-1.3c-1.1-0.4-2-1-1.8-2.5c0.2-1.2-0.3-2.5,0.3-3.7c0.3,0.1,0.7,0.1,1.1,0.2c9.8,2.4,19.7,4.7,29.5,7.1
		C72.9,284.2,75,284.5,76.8,285.4z"></path>
	<path d="M227.4,107.1c-0.4-0.2-0.5-0.4-0.1-0.7C227.4,106.6,227.4,106.8,227.4,107.1z"></path>
	<path d="M226.9,104.2c-0.3-0.1-0.4-0.3-0.1-0.5C226.9,103.8,226.9,104,226.9,104.2z"></path>
	<path d="M226.6,102.7c-0.3-0.1-0.4-0.3-0.1-0.5C226.7,102.4,226.7,102.6,226.6,102.7z"></path>
	<path d="M224.7,91c-0.3-0.1-0.4-0.2-0.1-0.5C224.7,90.6,224.8,90.8,224.7,91z"></path>
	<path d="M224,87.6c-0.3-0.1-0.4-0.2-0.1-0.5C223.9,87.3,223.9,87.5,224,87.6z"></path>
	<path d="M226.1,99.4c-0.3-0.1-0.4-0.3-0.1-0.5C226.1,99,226.2,99.2,226.1,99.4z"></path>
	<path d="M227.1,105.6c-0.3-0.1-0.4-0.3-0.1-0.5C227.1,105.3,227.2,105.4,227.1,105.6z"></path>
	<polygon class="st4" points="172.4,284.9 172.4,284.8 172.5,284.9 172.4,285 	"></polygon>
	<path d="M185.8,107.1c-0.1,0.1-0.1,0.1,0,0.2c-0.3,0.3-0.6,0.3-1,0.3c-6.2-0.3-12.4-0.6-18.7-0.9l0,0
		c-0.1-0.4,0.1-0.8,0.3-1.1c0.3-0.8,0.2-1-0.7-1.1c-1.4,0-2.8-0.1-4.2-0.2c-5.5-0.3-11-0.4-16.4-0.6c1.9-2.9,3.9-5.8,5.9-8.9
		c-1-0.1-2-0.2-2.9-0.2c-4.1-0.1-8.2-0.2-12.3-0.4c-7.3-0.3-14.7-0.6-22-0.8c-3.2-0.1-6.3-0.2-9.4-0.3c-7.3-0.3-14.7-0.5-22-0.8
		c-4.3-0.2-8.5-0.3-12.8-0.4c-7.2-0.3-14.4-0.5-21.6-0.8c-3.1-0.1-6.1-0.2-9.2-0.3c-0.3-0.1-0.3-0.3-0.1-0.6
		c1.1,0.3,2.3,0.2,3.5,0.2c6,0.1,11.9,0.1,17.9,0.3c4.8,0.2,9.6,0.1,14.4,0.3c8.1,0.2,16.3,0.4,24.4,0.5c6.3,0.1,12.6,0.3,18.9,0.4
		c8.3,0.2,16.5,0.3,24.8,0.5c3,0.1,6.1,0.1,9.1,0.2c0.5,0,0.9,0.1,1.3-0.4c1.6-2.4,3.3-4.9,5-7.5c-1.6-0.1-3-0.2-4.4-0.2
		c-4.7-0.1-9.4-0.1-14.1-0.2c-7.2-0.1-14.5-0.2-21.7-0.4c-5.3-0.2-10.7-0.2-16-0.3c-7.3-0.1-14.6-0.3-21.9-0.4
		c-5.2-0.1-10.5-0.2-15.7-0.3c-9.1-0.3-18.2-0.4-27.3-0.5c-0.4,0-0.8,0-1.1-0.3c0.2-0.3,0.5-0.1,0.7-0.1c6,0,12.1,0,18.1,0.1
		c0.2,0,0.3,0,0.5,0c14.6,0,29.1,0,43.7,0.1c15.5,0.1,30.9,0.1,46.4,0.2c4.9,0,9.8,0,14.6,0.1l0,0c-0.4,0.6-1,1.1-1.1,1.9
		c1.9,0.3,3.7,0.2,5.5,0.3c3.1,0.1,6.2,0,9.3,0.3l0,0c-0.7,2.3-1.4,4.6-2.2,6.9c-0.3,0.9-0.3,1.2,0.8,1.2c5.6,0.1,11.3,0.2,16.9,0.3
		c0,0.1,0,0.1,0,0.1c0,0.1,0,0.1,0,0.2c-0.2,0.2-0.2,0.5-0.2,0.7c-0.1,0.1-0.1,0.1,0,0.2c-0.2,0.2-0.3,0.5-0.2,0.8
		c-0.1,0.1-0.1,0.1,0,0.2c-0.2,0.2-0.4,0.3-0.7,0.3c-5.5-0.2-11.1-0.4-16.6-0.6c-0.6,0-1.2-0.1-1.4,0.7c-0.8,2.5-1.6,5-2.4,7.5
		c-0.2,0.7,0.1,0.7,0.6,0.7c1.3,0,2.6,0,3.8,0.1c4.9,0.2,9.7,0.3,14.6,0.5c0,0.2,0,0.5,0,0.7c-0.1,0.1-0.1,0.1,0,0.2
		C185.7,106.2,185.8,106.6,185.8,107.1z M170.2,93.2c-0.1,0-0.3-0.1-0.5-0.1c-4.4-0.1-8.7-0.2-13-0.3c-1.3,0-2.6-0.1-3.8,0
		c-0.9,0-1.2,0.9-1.4,1.6c-0.1,0.4,0.4,0.3,0.7,0.3c5.3,0.2,10.5,0.3,15.8,0.5C169.9,95.3,169.9,95.3,170.2,93.2z"></path>
	<path d="M184.8,115.3c-0.1,0.2-0.1,0.4-0.1,0.6c-3.9-0.2-7.9-0.4-11.8-0.6c-4.8-0.2-9.6-0.5-14.4-0.7
		c-7-0.3-13.9-0.7-20.9-1c-4.8-0.2-9.6-0.5-14.4-0.7c-7.9-0.3-15.8-0.7-23.7-1c-0.3,0-0.9,0.2-0.9-0.4c2.7,0.2,5.3,0.2,8,0.2
		c6,0.1,11.9,0.1,17.9,0.3c4.6,0.2,9.2,0.1,13.8,0.3c0.9,0,1.5-0.2,1.9-1c1.1-1.8,2.4-3.6,3.6-5.4c-0.3-0.3-0.6-0.3-0.9-0.3
		c-5.3-0.2-10.6-0.4-15.9-0.6c-6.6-0.3-13.2-0.6-19.8-0.9c-5-0.2-10-0.5-14.9-0.7c-7.6-0.4-15.2-0.8-22.8-1.1
		c-4.7-0.2-9.5-0.4-14.2-0.6c-4.7-0.2-9.4-0.4-14.1-0.7c0-0.2,0-0.3,0-0.5c3.6,0.1,7.3,0.2,10.9,0.3c7.5,0.2,14.9,0.5,22.4,0.7
		c5.1,0.2,10.2,0.3,15.3,0.5c7.4,0.2,14.8,0.5,22.2,0.7c4.5,0.2,9,0.3,13.5,0.5c6.7,0.2,13.3,0.4,20,0.7c-0.3,0.5-0.6,1.1-1.1,1.8
		c3.9,0.2,7.6,0.4,11.3,0.6c3.6,0.2,7.2,0.2,10.7,0.6l0,0c-0.6,1.7-1.1,3.5-1.7,5.3c0.6,0,1,0,1.4,0c5.6,0,11.2,0,16.7-0.1
		c2.3,0,2.3,0,2.2,2.2C184.8,114.4,184.8,114.9,184.8,115.3z"></path>
	<path d="M192.5,83c-0.1,0.3-0.2,0.6-0.3,0.9c-0.1,0.2-0.2,0.3-0.2,0.5c-0.1,0.1-0.1,0.1-0.1,0.2
		c-0.1,0.2-0.1,0.3-0.2,0.5l0,0c-0.2,0-0.3,0-0.5,0.1c-6.1-0.1-12.2-0.2-18.3-0.3l0,0c0.1-0.4,0.3-0.9,0.4-1.4
		c0.3-0.6,0.1-0.9-0.6-0.9c-3.3,0-6.6-0.1-9.9-0.1c-1.2,0-2.4,0-3.6-0.1l0,0c0.7-1.7,1.9-3,2.9-4.5c1-1.5,2-3,3-4.4
		c-0.1-0.3-0.3-0.2-0.4-0.2c-4.5-0.1-9-0.1-13.5-0.2c-8.4,0-16.8,0-25.2-0.1c-4.9,0-9.8,0-14.8-0.1c-10-0.2-20.1-0.1-30.1-0.2
		c-10.3-0.2-20.7-0.1-31-0.2c0-0.2,0-0.3,0-0.5c0.3,0,0.6,0.1,0.8,0.1c8.4,0,16.8,0.2,25.2,0.1c20.5-0.3,41,0,61.5-0.1
		c9.5,0,18.9,0,28.4,0c-0.5,0.7-0.5,1,0.6,1c3.4,0,6.7,0.1,10.1,0.2l0,0c-0.7,2.1-1.4,4.2-2.1,6.3c-0.3,0.9-1,2.2-0.6,2.7
		c0.5,0.7,1.8,0.2,2.8,0.3c5.1,0.1,10.3,0.1,15.5,0.1C192.4,82.8,192.5,82.9,192.5,83z"></path>
	<path d="M166.2,72.3c2.1-3.2,4.2-6.3,6.5-9.7c-30.1,0.2-60,0.3-90,0.4c0.2-0.4,0.5-0.3,0.7-0.3
		c6.6-0.1,13.2-0.2,19.8-0.3c5.8-0.1,11.7-0.1,17.5-0.2c10.6-0.3,21.2-0.4,31.8-0.5c6.6-0.1,13.2-0.2,19.8-0.4c0.5,0,1,0,1.4-0.3
		c0.1,0.5-0.6,0.8-0.4,1.4c2.4,0,4.9,0,7.3,0l0,0c-1,3.2-2,6.4-3.1,9.6c0,0.1,0,0.2,0.2,0.1c5.6,0,11.2,0,16.8,0
		c0.1,0.5,0.1,1.1-0.3,1.5c-0.5,0-0.9-0.1-1.4-0.1c-5.3-0.1-10.6-0.1-15.9-0.2l0,0c0.4-1.1-0.1-1.2-1.1-1.2
		C172.6,72.3,169.4,72.3,166.2,72.3z"></path>
	<path d="M173.6,61c2.1-3,4.1-6,6.4-9.2c-24,0.3-47.6,0.6-71.3,0.9c0-0.1,0-0.2,0-0.3c1.7-0.1,3.4-0.1,5.2-0.2
		c8.8-0.3,17.7-0.3,26.5-0.6c6.7-0.2,13.3-0.4,20-0.5c6.5-0.1,13-0.4,19.5-0.5c0.7,0,1.1-0.2,1.5-0.8c1.6-2.5,3.3-4.9,4.9-7.4
		c0.3-0.5,0.6-0.9,1.2-1.2c-0.5,1.5-1,3-1.4,4.6c-0.4,1.3-0.8,2.5-1.2,3.8c-0.3,0.9-0.1,1,0.8,1c2.9-0.1,5.9-0.2,8.9-0.2
		c0.5,0,1.1-0.2,1.1,0.7c0,0.8-0.5,0.7-1,0.7c-3.1,0-6.2,0.1-9.2,0c-0.9,0-1.3,0.2-1.5,1.1c-0.8,2.5-1.6,5-2.4,7.5
		c-0.3,0.8-0.1,1,0.7,1c4.3-0.1,8.5-0.2,12.8-0.3c0.1,0.5,0.2,1.1-0.3,1.5c-4.6,0-9.3,0-13.9,0l0,0c0.3-1-0.1-1.3-1.1-1.2
		c-1.6,0.1-3.3,0.1-4.9,0.1C174.1,61.3,173.8,61.3,173.6,61z"></path>
	<path d="M128.6,41.6L128.6,41.6c4.3-0.5,8.5-0.4,12.7-0.6c7-0.3,13.9-0.6,20.9-0.8c3.6-0.1,7.3-0.2,10.9-0.4
		c5-0.2,10.1-0.3,15.1-0.5c1.6-0.1,2.8,0.7,4.2,0.9c0,0.2,0,0.2,0,0.3c0,0-0.1-0.1-0.1-0.1c-7,0.2-14,0.3-21.1,0.5
		c-2.9,0.1-5.9,0.1-8.9,0.2c-10.8,0.2-21.6,0.5-32.4,0.7C129.6,41.8,129.1,41.9,128.6,41.6z"></path>
	<path d="M97,111.4c-0.9,0.4-1.8,0.3-2.7,0C95.2,111.4,96.1,111.4,97,111.4z"></path>
	<path d="M177.4,72c0.1,0,0.1,0.1,0.2,0.1C177.4,72.2,177.4,72.2,177.4,72z"></path>
</g>
</svg>
