<!--?xml version="1.0" encoding="utf-8"?-->
<!-- Generator: Adobe Illustrator 24.2.3, SVG Export Plug-In . SVG Version: 6.00 Build 0)  -->
<svg version="1.1" id="Camada_1" xmlns="http://www.w3.org/2000/svg" xmlns:xlink="http://www.w3.org/1999/xlink" x="0px" y="0px" viewBox="0 0 234 419" enable-background="new 0 0 234 419" xml:space="preserve">
<g onclick="select(this)" class="" id="c-estampa-primaria" fill="#80b3a3">
	<path d="M46.7812424,118.801651c-0.0767593-1.3550415-0.1535225-2.7100906-0.2302551-4.065239
		c0.4013672-3.5744247-0.8350601-6.9751587-1.197998-10.4692993c-0.2240105-2.1566772,0.1601028-4.4605942-0.9499817-6.5027618
		c0.2355576-4.1750107-0.9775124-8.179451-1.426548-12.2726135c-0.4060669-3.7014923-1.5520096-7.0640182-3.7860184-10.060585
		c-0.5201302-0.6976852-0.8810234-1.516983-1.2921524-2.2925415c-1.677639-3.1646805-2.3670807-6.6731339-3.4572754-10.0403824
		c-2.0804443-6.425808-3.4284821-12.9882317-3.4827595-19.7759361c-0.0089321-1.1172714,0.2226963-2.2094421,0.2825794-3.323185
		c0.1069202-1.9885635-0.031992-3.9983482,0.41399-5.9693832c0.1208649-0.5341721,0.1112595-1.1201401-0.2297115-1.6233521
		c4.2176952-1.9782009,8.3974285-4.0383091,12.7343388-5.7551689c7.1586761-2.8339195,14.2072411-5.9264126,21.2225914-9.0958195
		c3.9044266-1.7639484,7.5148468-4.0420628,11.1217957-6.3282051c0.4499207-0.285161,0.7661057-0.6875992,1.1115265-1.0751286
		c1.1253662-1.2625484,2.460701-2.1400995,4.2184219-2.1968918c2.0342941,0.2981586,4.0931244,0.332696,6.1293793,0.6633081
		c8.3689957,1.3588123,16.8237305,1.8147812,25.2742157,2.3104897c5.0438004,0.2958727,10.0588913-0.1554689,15.0837708-0.4571857
		c4.4263611-0.2657785,8.8530426-0.5102081,13.2524109-1.0787601c3.1972351-0.4131947,6.3849487-0.8995619,9.5781403-1.3446274
		c0.7452545-0.1038756,1.4954529-0.1725669,2.2436371-0.2575908c2.121933,0.0199952,3.6186676,1.1140513,4.9762115,2.6535583
		c1.0045471,1.1392441,2.449173,1.775898,3.7708893,2.5178118c9.4977875,5.3313141,19.4880676,9.6015377,29.5888672,13.6187572
		c3.9791565,1.5825596,7.694046,3.71805,11.6465302,5.3458309c0.175293,0.0721912,0.3132019,0.2351036,0.4684601,0.3557205
		c-0.4079285,0.5212479-0.4852905,1.2034378-0.2796631,1.7151718c0.4703064,1.1705475,0.0795288,2.3345184,0.1885529,3.492691
		c0.2788696,2.9625435,0.4180298,5.9366302,0.21492,8.9047165c-0.1652222,2.4147797-0.3381958,4.8516769-0.8126831,7.2176094
		c-0.8205414,4.091507-1.927063,8.1246033-3.2659149,12.0813484c-0.7891998,2.3323593-1.2008057,4.7971497-2.3715668,6.9949417
		c-0.8932037,1.6767578-1.6652374,3.4834824-3.0967407,4.7557755c-0.9084167,0.8073883-1.5977325,1.6723328-1.9496765,2.7775726
		c-1.364624,4.2856903-1.6241455,8.7427216-1.8916321,13.1865921c-0.1507416,2.5039444-0.2486572,4.9903641-0.9338226,7.4368515
		c-0.6354523,2.2689285-0.8999939,4.6388016-0.7013855,6.9787903c0.1374512,1.619606-0.1228943,3.1615524-0.2654114,4.7354507
		c-0.199707,2.6281662-0.6735229,5.2377548-0.5346069,7.8888626c-0.4046021,0.2297211-0.2497864,0.6383972-0.2887878,0.9698486
		c-1.2409821,10.5508347-1.5160522,21.1339188-0.9441376,31.7361374c0.2012024,3.7296448-0.1597748,7.4324341-0.3361053,11.1412354
		c-0.262619,5.5241699,0.213913,11.0307312,0.1908417,16.5469666c-0.0117188,2.8013611-0.1040344,5.5931549-0.4458923,8.3774872
		c-0.229599,1.8701782-0.2544708,3.7494659,0.0692902,5.618988c0.0408783,0.2360382,0.1015015,0.4797211,0.0812073,0.7136383
		c-0.2680206,3.0862274,0.4954071,5.9898071,1.3647308,8.9197235c1.7740479,5.9790039,1.9671478,12.1114349,1.4671631,18.2951355
		c-0.304718,3.7687531-0.8326721,7.5328827-0.0215759,11.3268585c0.2705383,1.2654877,0.1589813,2.6315765,0.0978851,3.9459076
		c-0.3535004,7.6035309,0.7575989,15.1347504,1.1002197,22.7034912c0.2419739,5.3453979,0.699646,10.6801758,0.9318695,16.0290222
		c0.0671234,1.5462036,0.2884521,3.096344,0.2848511,4.6539917c-0.0040741,1.7576904-0.2527008,2.1624756-1.9380493,2.6928101
		c-4.9689331,1.5635681-10.0740662,2.5220642-15.2290955,3.1793518c-11.8852539,1.5155029-23.8502808,1.6738586-35.8022308,1.801239
		c-20.6729507,0.2202759-41.3482971,0.5737-62.0217361,0.2687988c-10.004837-0.1476135-19.9621696-1.0458984-29.6603622-3.7771912
		c-3.6833267-1.037323-3.8044777-1.0596008-3.5799179-4.8108521c0.4223289-7.0551758,0.9893608-14.1017761,1.5130119-21.1507263
		c0.2370186-3.1905823-0.110363-6.4012756,0.3509216-9.5829163c0.0802193-0.55336,0.0910225-1.1242676,0.2354774-1.6596527
		c0.8587952-3.1829681,0.0915489-6.3565979-0.0495949-9.5281372c-0.2078438-4.6702271,0.2217903-9.2737427,1.4198914-13.7774353
		c0.4246025-1.5960999,0.4807281-3.1339264,0.2883301-4.7227325c-1.0463257-8.6404877-0.9161263-17.2292023,1.0487061-25.7495117
		c0.3325615-1.4421234,0.4711723-2.9310913,0.3530312-4.4104767c-0.3794022-4.7510529,0.0122833-9.5081787-0.1689415-14.2619019
		c-0.2146835-5.6312866-0.0821152-11.2704773-0.4309502-16.9023743c-0.2619247-4.228714,0.4452324-8.447998,0.241684-12.6940918
		C47.8281784,137.1582184,47.4722786,127.9711685,46.7812424,118.801651z"></path>
	<path d="M188.6812744,112.5599823c0.1425171-1.5738983,0.4028625-3.1158447,0.2654114-4.7354507
		c-0.1986084-2.3399887,0.0659332-4.7098618,0.7013855-6.9787903c0.6851654-2.4464874,0.7830811-4.9329071,0.9338226-7.4368515
		c0.2674866-4.4438705,0.5270081-8.9009018,1.8916321-13.1865921c0.351944-1.1052399,1.0412598-1.9701843,1.9496765-2.7775726
		c1.4315033-1.2722931,2.203537-3.0790176,3.0967407-4.7557755c1.1707611-2.1977921,1.5823669-4.6625824,2.3715668-6.9949417
		c1.3388519-3.9567451,2.4453735-7.9898415,3.2659149-12.0813484c0.4744873-2.3659325,0.6474609-4.8028297,0.8126831-7.2176094
		c0.2031097-2.9680862,0.0639496-5.942173-0.21492-8.9047165c-0.109024-1.1581726,0.2817535-2.3221436-0.1885529-3.492691
		c-0.2056274-0.511734-0.1282654-1.193924,0.2796631-1.7151718c0.2102203,0.1116676,0.4566498,0.1841888,0.6252136,0.3406334
		c3.9205627,3.6386032,8.1220245,7.0112839,11.1985168,11.465538c3.6876678,5.3391647,6.2693787,11.1972656,8.0645142,17.4220467
		c1.855957,6.4356842,2.5604248,13.0691071,3.6264191,19.6522064c1.570282,9.6975555,2.6261597,19.4785385,4.6393738,29.104805
		c0.1053619,0.5038223,0.102417,1.0303116,0.1499481,1.5463715c-2.6681061,0.6655502-5.3206482,1.4046097-8.0636749,1.7179031
		c-3.2069092,0.3662796-6.4146271,0.7254715-9.6210022,1.0962982c-3.0062256,0.3476791-6.0040588,0.9012604-9.0184021,1.0103607
		c-3.6274109,0.1313019-7.2682648-0.1153641-10.9035339-0.1868286c-0.4984894-0.0097961-0.9168243-0.2772141-1.3724365-0.3677292
		C191.3878479,114.7298126,190.5228119,112.7779846,188.6812744,112.5599823z"></path>
	<path d="M31.4251118,32.4063721c0.340971,0.503212,0.3505764,1.08918,0.2297115,1.6233521
		c-0.445982,1.971035-0.3070698,3.9808197-0.41399,5.9693832c-0.0598831,1.1137428-0.2915115,2.2059135-0.2825794,3.323185
		c0.0542774,6.7877045,1.4023151,13.3501282,3.4827595,19.7759361c1.0901947,3.3672485,1.7796364,6.8757019,3.4572754,10.0403824
		c0.411129,0.7755585,0.7720222,1.5948563,1.2921524,2.2925415c2.2340088,2.9965668,3.3799515,6.3590927,3.7860184,10.060585
		c0.4490356,4.0931625,1.6621056,8.0976028,1.426548,12.2726135c1.1100845,2.0421677,0.7259712,4.3460846,0.9499817,6.5027618
		c0.3629379,3.4941406,1.5993652,6.8948746,1.197998,10.4692993c-0.7430496-0.1559753-0.4466248-0.7550583-0.4480972-1.1689682
		c-0.0030136-0.8474426-0.3366966-1.1772919-1.084877-0.7159271c-2.1458626,1.3232574-4.5059891,1.392868-6.9265518,1.4081802
		c-5.9911842,0.0379257-11.914423-0.3703842-17.8513241-1.3506393c-5.7302513-0.9461212-11.4566507-1.9013596-17.1664352-2.9633942
		c-0.4844108-0.0901108-0.9187891-0.242218-1.3282617-0.4972076c1.2825927-8.0049973,2.2239013-16.0782471,4.4298015-23.9057312
		c1.4928513-5.2972641,1.9323239-10.7706375,2.9552264-16.1442108c1.5344801-8.0610313,3.9434853-15.8129349,8.3927488-22.8015022
		c2.7514877-4.3218231,6.1713905-8.0597153,10.2077255-11.2039833
		C28.9818478,34.4185829,29.9585438,33.1073418,31.4251118,32.4063721z"></path>
</g>
<g onclick="select(this)" class="" id="c-estampa-secundaria" fill="#021c3b">
	<path d="M46.5425072,118.0607529c-0.4131775,0.5682755-0.1804314,1.216774-0.2061501,1.8265152
		c-0.049469,1.1726151-0.2153091,1.4723816-1.3355331,1.5726471c-4.2932358,0.3842468-8.5571518,1.2107315-12.899559,0.8843155
		c-3.9878273-0.2997742-7.9681053-0.6755371-11.9320621-1.2071991c-6.4161329-0.8605804-12.806057-1.8747253-19.1189804-3.3291855
		c-0.2716166-0.0625839-0.5402181-0.1382599-0.8102236-0.20784C0.24,117.1200027,0.24,116.640007,0.24,116.1600037
		c0.1707267-0.0678864,0.2220892-0.2112885,0.2344799-0.3766174c0.1342778-1.7916641,0.8036169-3.476532,1.0167756-5.2606888
		c0.2121067-1.7753525,0.6731458-3.5196457,0.9258592-5.2917023c0.9252546-6.4880295,1.9818373-12.9492874,3.6346145-19.2998123
		c0.8961973-3.4434891,1.6940022-6.9015808,2.1233778-10.4468842c0.73174-6.041893,2.0260077-11.9620934,4.0226965-17.7269402
		c2.5246344-7.2891273,6.3326111-13.7517967,11.8713093-19.1818275c2.1481895-2.1060448,4.6412296-3.7963982,6.7826767-5.9005394
		c0.2742729-0.2694969,0.6635704-0.4497147,1.0301914-0.5929565c2.4585876-0.9606075,4.764595-2.2519951,7.1832619-3.2965412
		c7.2907982-3.1486664,14.6988487-6.0181923,21.9392548-9.2899551c4.1121635-1.8581867,8.19067-3.7680397,12.0169182-6.166563
		c1.8155212-1.1380796,3.7075577-2.1602488,5.1806564-3.8135252c0.9711151-1.0898991,2.304985-1.6997719,3.8468704-1.6320715
		c3.1266327,0.3581533,6.2606125,0.6625767,9.3780899,1.0878067c4.0687103,0.5549774,8.1504669,0.9198551,12.2478027,1.1677732
		c1.7136993,0.1036892,3.4333725,0.1091309,5.1405106,0.2576427c3.9813461,0.3463554,7.966011,0.6175356,11.9593582,0.405179
		c5.3388672-0.2839098,10.6737671-0.6456232,16.0084991-1.0020466c1.7493134-0.1168747,3.5006561-0.2630472,5.2372894-0.4978409
		c3.7447205-0.5062847,7.4804993-1.0786934,11.2199402-1.6240454c1.6910095-0.0180254,3.1842804,0.5730581,4.2797852,1.8139887
		c1.3592072,1.5396366,3.0739594,2.5252209,4.8155823,3.486124c6.8853302,3.7988472,13.9456329,7.2387638,21.2166901,10.2405548
		c0.3560791,0.1470165,0.8708649,0.1646862,0.9667358,0.5955429c0.1243286,0.5588608,0.5292206,0.5346603,0.8999939,0.5756702
		c1.2459106,0.1378098,2.4130402,0.5234184,3.5540924,1.0244007c1.0592651,0.4650593,2.1217957,0.9275017,3.2046051,1.3331623
		c3.5958405,1.3471584,6.8992767,3.3253002,10.4325256,4.8039608c1.0112762,0.4232159,1.8943481,1.007906,2.6593628,1.787508
		c0.7558289,0.7702599,1.5319824,1.5178871,2.3637085,2.2096596c4.694519,3.9045792,8.4816742,8.5337334,11.324707,13.9566422
		c3.9448547,7.5245438,6.0596619,15.5990334,7.3455505,23.9277458c0.4445648,2.8793335,0.6742706,5.7924042,1.1389771,8.6679459
		c0.8540192,5.2844543,1.7657928,10.5585632,2.4847412,15.8650208c0.5304108,3.9146423,1.0912933,7.8263779,1.9216919,11.6952133
		c0.2812958,1.3105316,0.4927063,2.6424789,0.6974945,3.9719086c0.1168671,0.7586517,0.1284027,1.6453094,0.7333374,2.2871094
		c0,1.359993,0,2.7200012,0,4.0800018c-1.3495178,0.0971222-2.6212463,0.5678253-3.9383087,0.8266525
		c-5.0972748,1.0017014-10.2306213,1.7339935-15.3921967,2.3135452c-5.0106506,0.5625992-10.0296021,0.8030548-15.066452,0.6856079
		c-2.7408905-0.0639114-5.4094543-0.4713287-7.803421-1.9443741c-0.3176422-0.1954422-0.6633606-0.2590637-1.0163574-0.3282928
		c-1.64888-0.3233719-1.6517487-0.3293915-1.7180023-2.0035553c0.2249451-2.2906342,0.2280731-4.5988846,0.5522003-6.8818207
		c0.3046722-2.1456451,0.1560059-4.3039246,0.1793671-6.4580688c0.0216675-1.9983215,0.194519-3.9873428,0.77034-5.9127502
		c0.5192413-1.7361755,0.6000519-3.5213013,0.7757416-5.3076248c0.1799164-1.8292542,0.1140594-3.6646729,0.3405151-5.4932404
		c0.2794495-2.2565536,0.5377655-4.5117645,1.0008392-6.7400894c0.428421-2.0615692,0.7232208-4.1844559,2.8273773-5.3666382
		c0.1599731-0.0898666,0.2677307-0.2913513,0.3723602-0.4581451c1.6566315-2.6412201,3.1393433-5.3569794,3.9979401-8.3884125
		c1.2693176-4.4816284,2.8113098-8.8868637,3.7233582-13.467926c0.1971588-0.9901848,0.2244873-0.9928436-0.6291046-1.3151054
		c-8.1299896-3.0693054-16.3894806-5.7344322-24.7938843-7.9486046c-6.0844574-1.6029701-12.2092133-3.0172729-18.4004669-4.1551132
		c-3.604248-0.6623878-7.2176208-1.2682304-10.8433685-1.7765121c-3.9457397-0.553154-7.9107971-0.9635506-11.8834991-1.316391
		c-4.8527985-0.4310074-9.7120743-0.7024651-14.576828-0.8474083c-3.5559616-0.1059532-7.1189194-0.0853119-10.6762619-0.0073776
		c-4.0290527,0.0882683-8.0533676,0.308403-12.074852,0.6195526c-2.3069153,0.1784935-4.6156921,0.3649101-6.9132843,0.6076622
		c-3.3647385,0.3554955-6.7175064,0.8350601-10.0669937,1.3359909c-5.7147827,0.8546791-11.3738327,1.9809265-16.9922943,3.3080254
		c-8.7326889,2.0627022-17.2973442,4.6778564-25.6477509,7.9787903c-2.151371,0.8504448-4.2718811,1.7694435-6.3923073,2.6922035
		c-0.6804008,0.296093-0.8996162,0.6219368-0.6555634,1.360817c0.2729797,0.826458,0.3995094,1.701088,0.593132,2.5539894
		c0.8127441,3.5801659,2.0869293,7.024044,3.1380959,10.5334435c0.6506653,2.172287,1.4227333,4.3186569,2.6323395,6.2642288
		c0.5481682,0.881691,1.1245041,1.7488098,1.73843,2.5855942c0.3834534,0.5226517,0.363739,1.2930145,0.7750168,1.6720963
		c0.8567429,0.7896729,1.0440521,1.8632889,1.1283035,2.8063736c0.1129875,1.2646866,0.3413391,2.500351,0.5411644,3.7427368
		c0.4617119,2.8705368,1.1753502,5.6934433,1.3592606,8.6180725c0.1212997,1.9288177,0.2394905,3.8545456,0.7430267,5.7785645
		c0.4842186,1.8501968,0.0489082,3.8680496,0.327774,5.8060608c0.1761017,1.2238312,0.2197037,2.4893723,0.6642036,3.6362915
		c0.6312447,1.6287766,0.7003632,3.2445679,0.3623962,4.9212494c-0.1107292,0.5493317-0.2179031,1.1624146-0.00037,1.6548691
		C46.6217918,116.8191833,46.5177345,117.4333954,46.5425072,118.0607529z"></path>
</g>
<g onclick="select(this)" class="" id="c-gola-primaria" fill="#021c3b">
	<path d="M81.8337631,7.9551482c1.7809372-1.4190092,3.4730377-2.9295225,4.8501663-4.7590275
		c1.5450439-2.0525742,3.8180466-2.4387608,6.1472397-2.7100065C93.2521667,0.437086,93.72155,0.6118734,94.0800018,0.24
		c16,0,32,0,48,0c0.8258362,0.4266242,1.7599182,0.3826382,2.635376,0.5993913
		c1.7582092,0.4353179,3.2734985,1.2413597,4.3717957,2.7102425c1.1104889,1.4851677,2.5509338,2.6122496,3.9674988,3.7706835
		c0.1449127,0.1185122,0.2287445,0.3117666,0.3406677,0.4704785c-0.7481842,0.0850201-1.4983826,0.1537113-2.2436371,0.257587
		c-3.1931915,0.4450655-6.3809052,0.9314327-9.5781403,1.3446274c-4.3993683,0.568552-8.8260498,0.8129816-13.2524109,1.0787601
		c-5.0248795,0.3017168-10.0399704,0.7530584-15.0837708,0.4571857c-8.4504852-0.4957085-16.90522-0.9516773-25.2742157-2.3104897
		C85.9269104,8.2878542,83.8680801,8.2533169,81.8337631,7.9551482z"></path>
</g>
<g onclick="select(this)" class="" id="c-detalhe-punho" fill="#80b3a3">
	<path d="M0.24,115.9200058c0.5789765-1.8824921,0.7624918-3.8468094,1.1905526-5.7606049
		c0.0581824-0.2601089-0.0143441-0.5728455,0.314887-0.7109451c0.4094726,0.2549896,0.843851,0.4070969,1.3282617,0.4972076
		c5.709785,1.0620346,11.4361839,2.0172729,17.1664352,2.9633942c5.9369011,0.9802551,11.8601398,1.3885651,17.8513241,1.3506393
		c2.4205627-0.0153122,4.7806892-0.0849228,6.9265518-1.4081802c0.7481804-0.4613647,1.0818634-0.1315155,1.084877,0.7159271
		c0.0014725,0.4139099-0.2949524,1.0129929,0.4480705,1.1690674c0.0767593,1.3550491,0.1535225,2.7100983,0.230278,4.0651321
		c-0.0557747,0.0530472-0.1500893,0.0987396-0.1617813,0.1601715c-0.4963951,2.6075745-0.5020065,2.5301285-3.1701164,2.7541428
		c-3.0185738,0.2534409-6.0040245,0.7482605-9.0601616,0.7218399c-6.1752777-0.0533829-12.258791-0.9222183-18.3460712-1.7839737
		c-4.7689228-0.6751099-9.5072765-1.5391846-14.2103863-2.5847778c-0.5390261-0.1198196-1.0621994-0.3109665-1.5927218-0.4690399
		C0.24,117.0400009,0.24,116.4800034,0.24,115.9200058z"></path>
	<path d="M188.6812744,112.5599823c1.8415375,0.2180023,2.7065735,2.1698303,4.4899597,2.5240936
		c0.4556122,0.0905151,0.8739471,0.357933,1.3724365,0.3677292c3.6352692,0.0714645,7.276123,0.3181305,10.9035339,0.1868286
		c3.0143433-0.1091003,6.0121765-0.6626816,9.0184021-1.0103607c3.2063751-0.3708267,6.414093-0.7300186,9.6210022-1.0962982
		c2.7430267-0.3132935,5.3955688-1.0523529,8.0636902-1.7179031c0.8446655,0.5238724,0.7039185,1.461937,0.7878876,2.2139969
		c0.1720123,1.5407028,0.3506775,3.0860138,0.3776855,4.6480637c0.0172272,0.9962463-0.3174744,1.3810425-1.249588,1.6120834
		c-3.1387787,0.7779388-6.317688,1.3454895-9.5081482,1.8256073c-7.8910522,1.1875-15.8142548,1.9860916-23.8146057,1.7421799
		c-2.7035675-0.0824127-5.3105316-0.4700699-7.667511-1.9013672c-0.3552856-0.2157516-0.7400513-0.2788696-1.1385956-0.321022
		c-0.8007813-0.0846863-1.4325409-0.4291534-1.790802-1.1847534
		C188.0077515,117.7977371,188.4815674,115.1881485,188.6812744,112.5599823z"></path>
</g>
</svg>
