<!--?xml version="1.0" encoding="utf-8"?-->
<!-- Generator: Adobe Illustrator 24.2.3, SVG Export Plug-In . SVG Version: 6.00 Build 0)  -->
<svg version="1.1" id="Camada_1" xmlns="http://www.w3.org/2000/svg" xmlns:xlink="http://www.w3.org/1999/xlink" x="0px" y="0px" viewBox="0 0 229 418" style="enable-background:new 0 0 229 418;" xml:space="preserve">
<style type="text/css">
	.st0{fill:#FD0202;}
	.st1{fill:#008F45;}
	.st2{fill:#13E3DA;}
</style>
<g onclick="select(this)" class="" id="estampa-primaria" fill="#009045">
	<path d="M43.2,120.4c-0.2-1.9-0.3-3.8-0.5-5.7c-0.2-1.5-0.4-1.6-1.9-1.3c-1.1,0.2-2.1,0.4-3.2,0.6c-3.7,0.7-7.5,0.4-11.2,0.4
		c-6.5,0-12.9-0.6-19.2-2.1c-2-0.5-4-1.1-6-1.7c1-4.8,1.7-9.7,2.3-14.5c0.9-6.3,1.9-12.6,2.6-18.9c0.8-6.7,1.9-13.3,4-19.7
		c2.9-8.9,7.8-16.5,15.2-22.4c1.1-0.9,2-2.2,3.3-2.9c3.6-1.9,7.3-3.7,11-5.3c10-4.1,20-8.2,29.5-13.4c2-1.1,4-2.1,5.5-3.9
		c0.8-1,2.1-1.6,3.5-1.6c-1.7,0.9-2,2.4-1.7,4.1c0.4,2.1,1.1,4.2,2.3,6c5.9,8.6,14.3,13.9,24.1,17.1c2,0.7,4.2,1.1,6.6,1
		c-0.8-1.3-1.7-2.3-2.7-3.3c-4.4-4.6-9.3-8.5-14.3-12.4c-2.5-2-4.7-4.2-6.7-6.7c-1-1.2-1.7-2.5-2.3-3.9c-0.3-0.7-0.2-1,0.6-0.9
		c3.5,0.4,7.1,0.7,10.6,1c7.9,0.6,15.8,1.4,23.8,1c6.3-0.4,12.5-0.7,18.8-1.2c2.3-0.2,4.5-0.3,7-0.5c-0.4,0.8-0.6,1.4-1,2
		c-1.2,2.3-2.9,4.2-4.7,6.1c-2.9,3-6.4,5.2-9.5,7.8c-3.5,3-7.1,5.9-10,9.5c-0.4,0.5-0.9,1-1,1.8c1-0.1,2,0,2.9-0.2
		c5.1-0.9,9.7-3.1,14.1-5.6c3.3-1.9,6.4-4.2,9.1-6.8c3.1-3,5.5-6.4,6.6-10.6c0.6-2.2,0-4.3-1.7-4.7c1.9-0.3,3.1,0.9,4.2,2.2
		c0.3,0.4,0.7,0.7,1.1,1c8.9,5.9,18.8,9.6,28.5,13.7c5.1,2.1,10,4.4,15.1,6.6c0.3,0.1,0.6,0.3,0.8,0.5c12,8.5,19.2,20.2,21.4,34.6
		c1.7,11.3,4.7,22.4,6.2,33.7c0.4,2.7,0.8,5.3,1.2,7.9c-0.4,0-0.8,0.1-1.2,0.2c-5.3,2.4-10.8,3.4-16.5,4.2c-4.9,0.7-9.8,1.4-14.8,1
		c-3-0.2-6.1,0-9.1-0.7c-0.4-0.1-1-0.3-1.1,0.5c-0.1,2.1-1,4.2-0.7,6.4c-0.4,0.8-0.3,1.7-0.4,2.6c-1,8.4-1.7,16.8-1.7,25.2
		c0,2.2,0.1,4.4,0.5,6.6c0.4,1.9,0,3.8-0.2,5.7c-0.2,2.1-0.2,4.2-0.1,6.3c0.1,2.2-0.1,4.3-0.2,6.5c-0.1,2.8-0.1,5.7,0.1,8.5
		c0.1,1.7,0.1,3.4-0.1,5c-0.3,3,0.2,5.9,0.8,8.8c1.7,7.3,1.5,14.8,0.4,22.2c-0.3,2.1-0.4,4.2,0.3,6.4c1.8,5.5,1.8,11.1,0.9,16.7
		c-0.2,1.4-0.2,2.7,0.1,4c0.9,3.8,0.5,7.7,0.7,11.6c0.3,6,0.7,12,1.4,17.9c0.3,2,0.2,4.1,0.3,6.1c0,1.8-0.3,2.3-2.1,2.8
		c-3,0.9-6,1.1-9.1,1.5c-7.7,0.8-15.5,0.9-23.2,1c-11.2,0.2-22.5,0.7-33.7,0.8c-12.5,0.2-24.9-0.8-37.4-0.8
		c-8.4,0-16.8-0.1-25.2-0.7c-4.1-0.3-8.3-0.8-12.4-1.7c-0.3-0.1-0.5-0.1-0.8-0.2c-3-0.8-3.3-1.2-3.2-4.2c0.5-7.8,1-15.7,1.6-23.5
		c0.1-2,0.3-4.1,0.2-6.1c0-1.8,0-3.6,0.4-5.4c0.4-2.2,0.5-4.4,0.1-6.7c-0.4-2.5-0.1-5,0.4-7.5c0.2-1.1,0.2-2.1,0.1-3.2
		c-0.3-4.5-1-8.9-0.8-13.4c0.2-4.4,1.2-8.6,2.7-12.7c0.4-1,0.6-2,0.4-3c-0.2-1.2-0.2-2.5,0.1-3.7c0.3-1.7,0.2-3.3,0.1-5
		c-0.2-3.3-0.2-6.6-0.2-9.9c-0.1-12.9,0-25.8-0.1-38.7c0-5.2-1-10.3-1.5-15.5C43.6,122.9,43.7,121.6,43.2,120.4z"></path>
</g>
<g onclick="select(this)" class="" id="gola-primaria" fill="#009045">
	<path d="M149.2,8.3c1.7,0.5,2.3,2.5,1.7,4.7c-1.2,4.2-3.5,7.7-6.6,10.6c-2.7,2.6-5.8,4.9-9.1,6.8
		c-4.4,2.6-9,4.7-14.1,5.6c-1,0.2-1.9,0.1-2.9,0.2c0.1-0.8,0.6-1.3,1-1.8c2.9-3.6,6.4-6.5,10-9.5c3.2-2.6,6.6-4.9,9.5-7.8
		c1.8-1.8,3.4-3.8,4.7-6.1c0.3-0.6,0.6-1.3,1-2c-2.4,0.2-4.7,0.3-7,0.5c-6.3,0.5-12.5,0.9-18.8,1.2c-8,0.5-15.9-0.4-23.8-1
		c-3.5-0.3-7.1-0.6-10.6-1c-0.9-0.1-0.9,0.2-0.6,0.9c0.6,1.4,1.3,2.7,2.3,3.9c2,2.5,4.2,4.7,6.7,6.7c5,3.9,9.9,7.8,14.3,12.4
		c1,1,1.8,2,2.7,3.3c-2.4,0.2-4.5-0.3-6.6-1C93,31.9,84.7,26.7,78.7,18c-1.2-1.8-1.9-3.8-2.3-6c-0.3-1.7,0-3.2,1.7-4.1
		c0.5,0,0.9-0.3,1.3-0.6c0.9-0.9,2-1.7,2.7-2.7c2-2.9,5-3.6,8.2-3.9c3.1-0.3,6.1,0.1,9.2,0c4.4-0.1,8.8,0,13.2-0.1
		c7.9-0.2,15.8,0,23.7,0c0.9,0,1.8,0.2,2.7,0.3c2.2,0.3,4.2,1.2,5.6,3.1C146,5.8,147.4,7.3,149.2,8.3z"></path>
</g>
<g onclick="select(this)" class="" id="detalhe-punho" fill="#005425">
	<path d="M0.2,114.4c0.6-1.2,0.4-2.7,0.9-3.9c2,0.6,4,1.2,6,1.7c6.3,1.6,12.7,2.1,19.2,2.1c3.7,0,7.5,0.3,11.2-0.4
		c1.1-0.2,2.1-0.4,3.2-0.6c1.5-0.3,1.7-0.2,1.9,1.3c0.2,1.9,0.3,3.8,0.5,5.7c-0.9,0.7-2,1-3.1,1.2c-2.5,0.5-5,0.8-7.6,0.8
		c-7,0.1-14,0-20.9-1.2c-3-0.6-6-1.1-8.9-2.1c-0.8-0.3-1.6-0.6-2.4-1C0.2,116.8,0.2,115.6,0.2,114.4z"></path>
	<path d="M184.6,120.1c-0.3-2.2,0.6-4.2,0.7-6.4c0-0.8,0.7-0.6,1.1-0.5c3,0.7,6,0.5,9.1,0.7c5,0.3,9.9-0.3,14.8-1
		c5.7-0.8,11.3-1.9,16.5-4.2c0.4-0.2,0.8-0.3,1.2-0.2c1.1,2.3,1.2,4.8,1.1,7.4c0,0.7-0.8,0.8-1.3,1c-2.9,1.1-5.8,1.9-8.8,2.6
		c-8.7,2.3-17.6,2.8-26.6,2.3c-2.1-0.1-4.1-0.3-6.1-0.9C185.5,120.7,185,120.6,184.6,120.1z"></path>
</g>
<g onclick="select(this)" class="" id="estampa-secundaria" fill="#005425">
	<path d="M28.5,32.2c0.2-0.2,0.5-0.4,0.7-0.5c4-1.7,7.8-3.9,11.9-5.4c0.1,0,0.2,0,0.3-0.1c0.7,1.4,1.4,2.9,2.2,4.4
		c1.1-2.4,2.4-4.4,3.2-6.7h0.1h-0.1c0.1,0,0.2-0.1,0.3-0.2c4.5-2,9-4,13.4-5.9c1.8,3.5,3.5,7,5.3,10.5c0.2,0.4,0.2,1.2,0.9,1.1
		c0.6-0.1,1.1-0.4,1.4-1.1c2.4-5,4.9-10,7.4-14.9c0.2-0.4,0.2-0.9,0.7-1c0.4,1.4,0.8,2.9,1.6,4.2c1.6,3,3.8,5.6,6.3,7.9
		c1.8,1.7,3.9,3.2,5.8,4.7c1.5,1.1,3.4,2,5.2,2.9c4.5,2.2,9.2,3.9,14.2,4.2c1.3,0.2,1.1,0.8,0.6,1.8c-2.5,5-4.9,10-7.4,15
		c-0.4,0.8-0.4,1.5,0,2.4c3.4,6.9,6.9,13.9,10.3,20.8c0.2,0.3,0.2,0.9,0.7,0.9c0.4,0,0.5-0.6,0.7-0.9c3.5-7.1,6.9-14.2,10.4-21.3
		c0.3-0.6,0.3-1.1,0-1.7c-2.4-4.9-4.9-9.9-7.3-14.8c-0.7-1.5-0.7-1.5,0.7-2.1c4.4-0.3,8.5-1.6,12.5-3.4c2.1-1,4-2.2,6.1-3.2
		c0.3,0.8,0.1,1.4-0.2,2.1c-3.2,6.5-6.3,13-9.7,19.4c-1.1,2-1.4,3.8,0,5.7c0.3,0.5,0.5,1.1,0.7,1.6c3,6.1,5.9,12.1,9,18.1
		c0.4,0.8,0.4,1.3,0,2.1c-3.6,7.2-7.1,14.3-10.7,21.5c-0.3,0.6-0.3,1.1,0,1.8c1.2,2.5,2.5,4.9,3.6,7.4c2.1,4.6,4.4,9.1,6.8,13.6
		c0.7,1.3,0.6,2.3,0,3.6c-3.6,6.9-6.9,13.9-10.3,20.9c-0.3,0.6-0.3,1.2,0,1.8c0.9,1.9,1.8,3.8,2.8,5.7c2.6,5.3,5.2,10.5,7.9,15.8
		c0.3,0.5,0.5,1,0.2,1.6c-0.9,1.8-1.7,3.6-2.6,5.4c-2.9,5.4-5.4,11-8.2,16.6c-0.5,1-0.3,1.8,0.1,2.7c3.5,7,6.9,14,10.4,21
		c0.4,0.7,0.3,1.2,0,1.9c-1.2,2.4-2.4,4.8-3.6,7.2c-2.5,4.9-4.8,9.8-7.2,14.8c-0.3,0.5-0.3,0.9,0,1.4c1.4,2.8,2.8,5.7,4.1,8.5
		c2.2,4.4,4.4,8.9,6.6,13.3c0.2,0.5,0.5,0.9,0.2,1.5c-0.5,0.9-0.9,1.9-1.3,2.8c-2.5,5-5,10.1-7.5,15.1c-0.2,0.5-0.5,0.9-0.5,1.4
		c-1.3,0.1-2.7,0.2-4.1,0.1c0-0.4-0.2-0.8-0.3-1.1c-2.9-5.9-5.8-11.7-8.7-17.6c-0.2-0.3-0.2-0.7-0.6-0.8c-0.6,1-1.1,2-1.6,3
		c-2.2,4.5-4.5,9-6.6,13.5c-0.4,0.9-1,1.8-1.1,2.8c-1.5,0.1-3,0.1-4.5-0.1c0-0.4-0.1-0.8-0.3-1.1c-1.1-2.3-2.2-4.5-3.3-6.8
		c-1.9-3.8-3.7-7.5-5.8-11.5c-3.2,6.5-6.1,12.7-9.2,19c-1.5,0.2-3.2,0.1-4.8,0c0-0.5-0.2-0.6-0.4-1c-1-2-2-3.9-2.9-5.9
		c-1.9-3.9-3.9-7.8-5.8-11.6c-0.5,0.1-0.5,0.5-0.7,0.8c-2.1,4.2-4.2,8.4-6.3,12.5c-0.8,1.6-1.6,3.1-2.1,4.8
		c-1.9,0.1-3.7-0.1-5.5-0.5c-2.7-6-5.8-11.9-8.9-18.1c-0.6,1.2-1,2.1-1.5,3s-0.7,2-1.6,2.8c0.2-3.4,0.5-6.7,0.7-10.1
		c0.9,0.7,1.1,1.9,1.7,2.8c0.2,0.3,0.2,0.9,0.7,0.9s0.6-0.6,0.8-1c3.3-6.7,6.6-13.4,10-20.1c0.8-1.5,0.7-2.6,0-4
		c-3.2-6.5-6.4-12.9-9.6-19.4c-0.3-0.6-0.4-1.5-1.1-1.6c-0.5,0-0.5,1-0.9,1.4l-0.1,0.1c-0.3-1.6-0.5-3.2-0.4-4.8
		c0.3,0.5,0.5,1,0.8,1.5c0.2,0.3,0.2,0.8,0.6,0.8c0.4,0,0.5-0.5,0.6-0.8c3.5-7.1,7-14.2,10.6-21.3c0.3-0.5,0.4-1,0.1-1.6
		c-0.7-1.4-1.3-2.7-2-4.1c-1-2.2-2.1-4.4-3.2-6.6c-1.5-3-3-6-4.5-8.9c0.1-2.1,0.1-4.3,0.2-6.4c-0.1-0.4,0.1-0.8,0.3-1.1
		c0.8-1.6,1.6-3.2,2.4-4.8c2.1-4.2,4-8.4,6.2-12.6c0.8-1.5,0.6-2.7-0.1-4c-3-6.1-6-12.2-9-18.3c-0.4-0.8-0.8-1.6-1.4-2.2
		c-0.2-0.6-0.3-1.1-0.2-1.7c0.7-0.6,1-1.4,1.4-2.2c3.2-6.6,6.4-13.1,9.6-19.7c0.4-0.8,0.3-1.4,0-2.2c-3.5-6.9-6.9-13.9-10.3-20.8
		c-0.1-0.3-0.3-0.5-0.4-0.8c-0.3-0.5-0.5-0.6-0.8,0c-1.7,3.5-3.6,6.9-5.2,10.5c-0.3-0.3-0.3-0.7-0.5-1.1c-0.8-2-1.3-4.2-2.3-6
		c-2.4-4.4-3-9-2.6-13.8c0.3-3-0.2-5.9-0.2-8.9c0-1.6-0.2-3.2-0.2-4.8c3.7,7.6,7.5,15.2,11.2,22.7c0.3,0,0.4-0.2,0.5-0.3
		c3.7-7.4,7.3-14.8,11-22.2c0.3-0.5,0.1-1-0.1-1.5c-2.6-5.3-5.3-10.7-7.9-16c-0.2-0.3-0.3-0.8-0.7-0.9c-0.4-2-1.6-3.7-2.6-5.6
		c-1.2,2.5-2.3,4.8-3.4,7.1c-0.2,0.3-0.4,0.6-0.6,0.9c-2.2,4.4-4.3,8.8-6.5,13.2c-0.3,0.7-0.6,1.4-0.9,2.1c-0.1-1.8-0.8-3.4-0.9-5.2
		c-0.1-2.9-0.7-5.8-1.4-8.6c-0.6-2.5-1.6-4.9-1.3-7.5C28.7,32.6,28.5,32.4,28.5,32.2z M67.1,124.7c0.2-0.3,0.4-0.6,0.5-0.9
		c1.4-2.7,2.7-5.4,4.1-8.2c2.2-4.4,4.3-8.7,6.4-13.1c0.1-0.2,0.2-0.6,0.5-0.6c0.4,0,0.5,0.4,0.6,0.6c0.7,1.5,1.5,2.9,2.2,4.4
		c2.8,5.7,5.7,11.5,8.5,17.2c0.3,0.6,0.5,0.3,0.7,0s0.3-0.6,0.4-0.8c3.4-6.9,6.8-13.8,10.2-20.6c0.4-0.9,0.4-1.6,0-2.4
		c-3.5-7.1-7-14.2-10.5-21.3c-0.1-0.3-0.2-0.7-0.6-0.6c-0.3,0-0.4,0.4-0.5,0.6c-1.5,3.5-3.4,6.8-5,10.2c-1.4,3-2.9,6-4.4,9.1
		c-0.5,1-1,2-1.6,3.2c-3.9-8-7.8-15.7-11.6-23.5c-1.8,3.4-3.4,6.7-5,9.9c-2,4.2-4.1,8.4-6.2,12.6c-0.3,0.7-0.3,1.3,0,1.9
		c1,2,1.9,4,2.9,5.9c2.5,5.1,5.1,10.2,7.7,15.3C66.6,124,66.7,124.4,67.1,124.7z M66.9,172.6c-0.3,0.1-0.3,0.3-0.4,0.5
		c-3.5,7.2-7.1,14.3-10.6,21.5c-0.3,0.7-0.5,1.3-0.1,2c3.6,7.1,6.8,14.4,10.6,21.3c0.2,0.3,0.2,0.7,0.5,0.7c0.4,0,0.4-0.4,0.6-0.7
		c3.6-7.3,7.2-14.5,10.8-21.8c0.2-0.4,0.3-0.6,0-1.1c-1.8-3.5-3.5-7.1-5.3-10.6c-0.3-0.7-0.7-1.4-1-2.1c-1.4-3.2-3.3-6.2-4.7-9.4
		C67.3,172.8,67.2,172.6,66.9,172.6z M113.5,124.6c0.2-0.3,0.3-0.4,0.4-0.6c3.6-7.3,7.2-14.5,10.8-21.8c0.3-0.5,0.2-1,0-1.5
		c-0.6-1.2-1.1-2.5-1.7-3.7c-2.9-5.9-5.9-11.9-8.8-17.8c-0.2-0.3-0.2-0.9-0.7-0.9c-0.4,0-0.5,0.6-0.7,0.9
		c-3.1,6.2-6.1,12.4-9.2,18.6c-0.5,1-0.9,2-1.4,2.9c-0.3,0.5-0.2,0.9,0.1,1.3c1,2,1.9,3.9,2.9,5.9c1.8,3.7,3.6,7.4,5.4,11.1
		C111.5,120.9,112.5,122.7,113.5,124.6z M67,219.7c-0.3,0.1-0.4,0.3-0.5,0.5c-3.6,7.2-7.2,14.5-10.7,21.7c-0.3,0.6-0.3,1.1,0,1.7
		c0.9,1.8,1.7,3.5,2.5,5.3c2.6,5.4,5.1,10.8,8,16c0.2,0.3,0.1,0.9,0.6,0.9c0.4,0,0.5-0.6,0.7-0.9c3.4-6.8,6.7-13.7,10.2-20.5
		c0.6-1.2,0.6-2.2-0.1-3.2c-0.4-0.7-0.8-1.5-1.1-2.2c-3-6.1-6-12.1-9-18.2C67.5,220.4,67.4,219.9,67,219.7z M67.1,77.4
		c1.4-3.2,3.2-6.1,4.6-9.2c2.1-4.4,4.3-8.8,6.4-13.1c0.3-0.6,0.4-1.1,0.1-1.7c-1-1.9-1.9-3.9-2.8-5.8c-2.5-5-5-10-7.5-15
		c-0.3-0.5-0.5-1-0.8-1.6c-0.4,0.2-0.5,0.5-0.6,0.7c-3.6,7.3-7.1,14.5-10.7,21.8c-0.3,0.7-0.2,1.3,0.1,1.9c3.5,7,7,14,10.4,21.1
		C66.5,76.8,66.6,77.1,67.1,77.4z M113.3,218.8c0.5-0.3,0.6-0.7,0.8-1c1.1-2.3,2.4-4.5,3.5-6.8c2.3-4.9,4.7-9.6,7.1-14.4
		c0.3-0.7,0.3-1.2,0-1.9c-1.2-2.3-2.3-4.6-3.4-6.9c-2.3-4.7-4.7-9.5-7-14.2c-0.2-0.3-0.2-0.9-0.7-0.9c-0.4,0-0.5,0.6-0.7,0.9
		c-1.6,3.2-3.2,6.4-4.7,9.6c-1.9,3.9-3.8,7.9-5.8,11.8c-0.3,0.5-0.3,0.9,0,1.4c1.1,2.1,2.1,4.3,3.1,6.5c1.5,3.1,3,6.1,4.5,9.1
		C111,214.3,112.2,216.6,113.3,218.8z M90.2,218.8c0.4-0.1,0.5-0.5,0.6-0.8c1.4-2.8,2.7-5.7,4.2-8.5c2.2-4.3,4.3-8.6,6.4-13
		c0.3-0.7,0.2-1.3-0.1-1.9c-3.4-6.8-6.7-13.5-10.1-20.3c-0.3-0.6-0.4-1.6-1.1-1.6c-0.5,0-0.6,1-0.9,1.6c-3.3,6.6-6.6,13.3-9.8,19.9
		c-0.4,0.8-0.8,1.5-0.3,2.5c3.6,7.2,7.2,14.5,10.7,21.7C89.9,218.5,89.9,218.8,90.2,218.8z M67,171.9c0.3-0.5,0.5-0.9,0.7-1.3
		c3.4-6.8,6.7-13.6,10.1-20.4c0.5-1.1,0.7-2.1,0-3.1c-0.4-0.6-0.6-1.3-0.9-1.9c-3.1-6.4-6.3-12.7-9.4-19.1c-0.1-0.2-0.1-0.6-0.6-0.6
		c-3.7,7.5-7.4,15-11.1,22.5c-0.3,0.6-0.1,1,0.2,1.5c3,6.1,5.9,12.1,8.9,18.2C65.5,169,66.2,170.4,67,171.9z M102.2,148.3
		c-0.1,0.7,0.1,1,0.3,1.4c3.4,6.9,6.8,13.9,10.3,20.8c0.2,0.4,0.2,1,0.7,1c0.4,0,0.5-0.6,0.7-0.9c3.5-7,6.9-14,10.4-21
		c0.3-0.7,0.3-1.2,0-1.9c-1.9-3.8-3.8-7.7-5.7-11.5c-1.6-3.2-3.2-6.4-4.8-9.5c-0.2-0.3-0.2-0.9-0.7-0.9s-0.4,0.6-0.6,0.9
		c-1.5,2.5-2.6,5.2-3.9,7.8c-1.7,3.5-3.5,7-5.2,10.5C103.2,146.1,102.6,147.4,102.2,148.3z M113.5,265.9c1.2-2.4,2.5-4.7,3.7-7.1
		c2.5-5,4.9-10.1,7.3-15.1c0.3-0.7,0.3-1.2,0-1.9c-3.5-7-6.9-14-10.4-21.1c-0.2-0.4-0.3-0.8-0.7-1.1c-1.1,2-2.1,4-3.1,6.1
		c-2.5,5.3-5.2,10.6-7.8,15.8c-0.4,0.9-0.5,1.7,0,2.6c3.4,6.9,6.8,13.7,10.2,20.6C112.9,265.1,113,265.6,113.5,265.9z M90.1,77.5
		c0.2-0.2,0.3-0.3,0.3-0.3c3.7-7.4,7.3-14.8,11-22.2c0.3-0.6,0.2-1-0.1-1.6c-1.4-2.9-2.8-5.8-4.3-8.7c-2.1-4.2-4.1-8.3-6.2-12.4
		c-0.2-0.3-0.2-0.9-0.7-0.9c-0.4,0-0.5,0.6-0.7,0.9c-0.6,1.2-1.1,2.4-1.7,3.6c-3,5.8-5.8,11.7-8.6,17.5c-0.3,0.6-0.4,1.2,0,1.8
		c0.8,1.6,1.6,3.2,2.3,4.9c1,2,1.9,4,2.9,6C86.3,69.8,88.2,73.6,90.1,77.5z M90.2,266c0.3-0.5,0.5-0.9,0.7-1.3
		c1.4-2.3,2.3-4.8,3.6-7.2c2.5-4.6,4.6-9.3,6.9-14c0.3-0.6,0.2-1.1-0.1-1.7c-3.5-7-7-14.1-10.5-21.1c-0.2-0.3-0.3-0.8-0.7-1
		c-0.1,0.1-0.1,0.2-0.2,0.3c-3.7,7.4-7.4,14.8-10.9,22.3c-0.2,0.5-0.2,0.9,0.1,1.4c0.6,1.3,1.2,2.5,1.8,3.8
		c2.6,5.2,5.2,10.4,7.8,15.5C89.1,263.9,89.4,265,90.2,266z M101.7,148.6c-0.5-1.1-1-2.3-1.6-3.5c-3.1-6.2-6.2-12.4-9.3-18.7
		c-0.1-0.3-0.2-0.7-0.5-0.7c-0.4,0-0.5,0.5-0.6,0.8c-3.5,7.1-7,14.2-10.5,21.3c-0.3,0.5-0.3,1-0.1,1.6c0.9,1.8,1.7,3.5,2.6,5.3
		c2.7,5.4,5.3,10.7,8,16.1c0.1,0.3,0.1,0.8,0.6,0.8c0.3,0,0.4-0.4,0.6-0.7c3.5-7.1,7.1-14.3,10.6-21.4
		C101.5,149.1,101.6,148.9,101.7,148.6z"></path>
	<path d="M167.2,18.4c4.3,1.9,8.7,3.7,13,5.6c0.1,0,0.1,0.1,0.2,0.1c0.1,0,0.1,0.1,0.2,0.1c1,2.1,2,4.1,3,6.2
		c0.1,0.2,0.2,0.5,0.4,0.5c0.3,0,0.4-0.4,0.5-0.6c0.6-1.2,1.2-2.5,1.8-3.7c2.2,0.7,4.3,1.7,6.3,2.7c1.6,0.8,3.3,1.6,5,2.3
		c0.4,0.2,0.9,0.2,1.2,0.7c0,0.6,0.1,1.3-0.1,1.9c-0.8,3.3-1.7,6.6-2.3,10c-0.4,2.3-0.8,4.7-0.9,7.1c0,1.1,0.1,2.1-0.5,3
		c0-0.5-0.2-1-0.4-1.5c-2.3-4.7-4.6-9.3-6.9-14c-1.1-2.2-2.2-4.4-3.3-6.6c-0.2-0.3-0.4-1-0.7-0.2c-0.8,1.7-1.9,3.3-2.4,5.2
		c-0.4,0.3-0.5,0.7-0.7,1.1c-2.5,5-4.9,10.1-7.5,15.2c-0.5,1-0.5,1.9,0,2.9c3.5,7,6.9,14,10.4,21.1c0.1,0.3,0.2,0.7,0.6,0.7
		c0.3-0.1,0.3-0.4,0.4-0.7c2.5-5.1,5.1-10.1,7.6-15.2c1-2,2.1-4,2.8-6.2c0,0.4,0.1,0.9,0.1,1.3c-0.2,5.7-0.1,11.5-0.5,17.2
		c-0.4,5.6-2.4,10.7-4.8,15.7c-1.5-3.6-3.4-6.9-5.1-10.4c-0.1-0.3-0.2-0.7-0.5-0.8c-0.4-0.1-0.5,0.5-0.6,0.8
		c-3.5,7.1-7,14.2-10.5,21.3c-0.4,0.7-0.4,1.4,0,2.2c3.4,6.9,6.8,13.8,10.3,20.7c0.1,0.3,0.2,0.7,0.7,0.8c0.1,0.8-0.1,1.6-0.2,2.4
		c-0.1,0.1-0.3,0.2-0.3,0.3c-3.6,7.1-7.1,14.2-10.5,21.4c-0.3,0.6-0.1,1,0.1,1.5c1.5,3,3,6.1,4.4,9.1c1.6,3.4,3.4,6.7,5.1,10.1
		c-0.1,2.4-0.2,4.8-0.2,7.2c0,0-0.1,0-0.1,0.1c-3.3,6.3-6.3,12.8-9.4,19.3c-0.2,0.4-0.1,0.7,0.1,1c0.4,0.9,0.8,1.8,1.2,2.6
		c2.9,5.9,5.8,11.8,8.7,17.6c0.2,0.4,0.3,0.9,0.8,1.2c0.2,1.1-0.3,2.2-0.2,3.4c-0.2,0.4-0.5,0.7-0.7,1.1c-2.4,4.9-4.8,9.8-7.3,14.7
		c-0.8,1.6-1.6,3.3-2.4,5c-0.3,0.6-0.3,1.1,0,1.7c1,2,1.9,4,2.9,6c2.5,5.2,5.1,10.3,7.6,15.5c0.1,0.3,0.2,0.7,0.6,0.7
		c0.4,0,0.4-0.4,0.6-0.7c0.5-1,0.9-2,1.4-2.9c0.5,3,0.6,6,0.7,9c-1-1.1-1.3-2.5-2.1-3.7c-0.2-0.3-0.1-0.7-0.5-0.8
		c-0.5,0-0.5,0.4-0.7,0.7c-2.6,5.2-5.1,10.4-7.7,15.6c-0.1,0.3-0.1,0.2-0.2,0.5c-2.2,0.1-4.3,0.3-6.3,0.5c-0.1-0.4-0.2-0.3-0.3-0.7
		c-1.7-3.5-3.4-7-5.1-10.5c-1-2-2.1-4.1-3.2-6.2c-0.2,0.3-0.3,0.4-0.4,0.6c-2.4,4.8-4.8,9.5-7.1,14.3c-0.6,1.1-1.2,1.7-1.4,3
		c-1.7,0.3-3.8,0.2-5.6,0.1c-0.4-1.1-0.8-1.6-1.3-2.7c-2.2-4.9-4.8-9.7-7.2-14.5c-0.4-0.7-0.4-1.3,0-2c3.6-7.2,7.1-14.4,10.7-21.6
		c0.3-0.7,0.4-1.2,0-1.9c-0.9-1.6-1.6-3.3-2.4-5c-2.8-5.6-5.5-11.1-8.3-16.6c-0.4-0.7-0.3-1.3,0-2c3.6-7.2,7.1-14.4,10.7-21.6
		c0.3-0.6,0.5-1.1,0.2-1.8c-3.6-7.3-7.1-14.6-10.8-21.8c-0.4-0.8-0.4-1.3,0-2.1c3.6-7.1,7.1-14.3,10.6-21.5c0.3-0.6,0.4-1.1,0-1.8
		c-2-4.1-3.9-8.1-5.9-12.2c-1.6-3.1-3.2-6.3-4.8-9.4c-0.4-0.8-0.4-1.4,0-2.2c3.6-7.1,7.1-14.3,10.6-21.4c0.4-0.8,0.4-1.4,0-2.1
		c-2.6-5.3-5.2-10.7-7.8-16.1c-0.9-1.9-1.9-3.9-2.9-5.8c-0.3-0.6-0.3-1.1,0-1.7c1-2,1.9-4,2.9-5.9c2.8-5.3,5.3-10.7,7.9-16
		c0.3-0.6,0.3-1.1,0-1.7c-1.3-2.5-2.4-5-3.7-7.5c-2.3-4.7-4.7-9.5-7.1-14.2c-0.3-0.6-0.4-1.1,0-1.8c0.4-0.8,0.9-1.5,1-2.4
		c0.5-0.4,1-0.9,1.6-1.3c5-3.8,9.1-8.3,10.7-14.6c0.6,0.2,0.6,0.8,0.9,1.2c2.5,5,4.9,10,7.4,15c0.1,0.3,0.3,0.6,0.5,0.8
		c0.8,1,1.5,0.9,2-0.2C163.6,25.6,165.4,22,167.2,18.4z M160.7,78.5c-3.9,7.8-7.6,15.4-11.3,22.9c-0.2,0.5-0.1,0.8,0.1,1.2
		c0.9,1.9,1.8,3.8,2.8,5.7c2.6,5.3,5.3,10.6,7.9,15.9c0.2,0.3,0.1,0.9,0.6,0.9c0.4,0,0.5-0.6,0.7-0.9c3.5-7,6.9-14,10.4-21.1
		c0.4-0.8,0.4-1.4,0-2.2c-1.6-3.2-3.1-6.4-4.7-9.6C165.1,87.2,163,83,160.7,78.5z M160.7,219.7c0.2-0.3,0.4-0.5,0.5-0.7
		c3.6-7.3,7.2-14.6,10.8-21.9c0.3-0.6,0.2-1,0-1.6c-1.1-2.3-2.2-4.6-3.4-6.9c-2.4-4.9-4.8-9.7-7.3-14.6c-0.1-0.3-0.1-0.7-0.5-0.7
		s-0.4,0.4-0.6,0.7c-3.6,7.2-7.1,14.5-10.7,21.7c-0.2,0.4-0.3,0.8,0,1.2c0.7,1.3,1.3,2.7,1.9,4c1.8,3.6,3.5,7.3,5.3,10.9
		C158,214.4,159.3,216.9,160.7,219.7z M160.6,220.4c-0.1,0.2-0.3,0.4-0.4,0.7c-3.6,7.2-7.1,14.5-10.7,21.7c-0.3,0.6-0.2,1,0,1.6
		c3.6,7.1,7.1,14.3,10.6,21.5c0.1,0.3,0.2,0.7,0.7,0.8c1.2-2.4,2.5-4.8,3.7-7.2c2.4-5,4.9-10,7.3-14.9c0.3-0.6,0.3-1.1,0-1.8
		c-0.8-1.5-1.5-3.1-2.2-4.6c-2.8-5.5-5.5-11.1-8.3-16.6C161.2,221,161.1,220.6,160.6,220.4z M160.8,78.1c0.1-0.1,0.2-0.2,0.2-0.3
		c3.7-7.3,7.3-14.6,10.8-21.9c0.3-0.7,0.5-1.2,0.1-1.9c-3.6-7.2-7.1-14.3-10.6-21.5c-0.1-0.3-0.2-0.7-0.6-0.8
		c-1.1,2.1-2.2,4.1-3.2,6.2c-2.6,5.4-5.2,10.8-7.9,16.2c-0.3,0.6-0.3,1.1,0,1.7c3.5,7.1,7,14.2,10.5,21.3
		C160.3,77.4,160.4,77.8,160.8,78.1z M172.3,149.3c-0.1-0.3-0.2-0.6-0.3-0.8c-0.8-1.8-1.6-3.6-2.5-5.3c-2.7-5.3-5-10.7-7.9-15.8
		c-0.2-0.4-0.1-1-0.7-1c-0.5,0-0.6,0.6-0.8,1c-3.2,6.4-6.3,12.9-9.6,19.3c-0.9,1.8-1.5,3.4,0,5.2c0.4,0.4,0.4,1,0.7,1.5
		c3,6,5.9,12,8.9,18c0.2,0.3,0.2,0.9,0.7,0.9s0.5-0.6,0.7-0.9c3.5-7.1,7-14.1,10.5-21.2C172,149.9,172.1,149.6,172.3,149.3z"></path>
</g>
<path d="M47.2,23.8c-0.1,0-0.2,0.1-0.3,0.2C47.1,23.9,47.2,23.8,47.2,23.8z"></path>
<path d="M180.5,24.2c-0.1,0-0.1-0.1-0.2-0.1C180.4,24.1,180.4,24.1,180.5,24.2z"></path>
</svg>
