<!--?xml version="1.0" encoding="utf-8"?-->
<!-- Generator: Adobe Illustrator 24.2.3, SVG Export Plug-In . SVG Version: 6.00 Build 0)  -->
<svg version="1.1" id="Camada_1" xmlns="http://www.w3.org/2000/svg" xmlns:xlink="http://www.w3.org/1999/xlink" x="0px" y="0px" viewBox="0 0 229 418" style="enable-background:new 0 0 229 418;" xml:space="preserve">
<style type="text/css">
	.st0{fill:#FD0303;}
	.st1{fill:#0101FC;}
	.st2{fill:#32EE02;}
	.st3{fill:#003E94;}
</style>
<g onclick="select(this)" class="" id="gola-primaria" fill="#011023">
	<path d="M77.9,8c0.6-0.1,1-0.4,1.4-0.8c0.9-0.9,2-1.7,2.7-2.7c1.8-2.5,4.4-3.4,7.3-3.8c0.6-0.1,1.3,0.1,1.9-0.5
		c1.2,0,2.4,0,3.6,0c0.2,0.5,0.6,0.3,0.9,0.3c5.6,0,11.2,0,16.7,0c0.4,0,0.8-0.1,1.1-0.3c7.5,0,15,0,22.6,0c0.1,0.5,0.5,0.3,0.8,0.4
		c1,0.2,2,0.3,2.9,0.4c2,0.3,3.7,1.1,4.9,2.8c1.3,1.7,2.7,3.3,4.6,4.4c1.3,0.6,1.9,1.5,1.8,3c-0.2,3.7-2.1,6.7-4.3,9.6
		c-0.4,0.5-0.7,0.1-1-0.1c-1.8-1.4-3.5-2.8-5.3-4.1c-0.7-0.5-0.7-0.8-0.1-1.5c1.6-1.8,2.9-3.7,3.8-6.1c-2.6,0.2-5,0.4-7.4,0.6
		c-10.8,0.7-21.5,1.8-32.3,1c-6.7-0.5-13.4-1.1-20.1-1.7c-0.4,0-0.9-0.2-1.2,0c-0.3,0.4,0.1,0.8,0.2,1.2c0.8,2,2.1,3.6,3.5,5.1
		c0.4,0.4,0.8,0.8,0.1,1.3c-1.8,1.4-3.6,2.8-5.3,4.3c-0.5,0.4-0.8,0.3-1.2-0.1c-1.9-2.4-3.4-4.9-4.2-7.9C75.8,10.6,76.2,9.1,77.9,8z
		"></path>
</g>
<g onclick="select(this)" class="" id="detalhe-punho" fill="#9e9e9e">
	<path d="M227.8,108.4c0.6,0.8,0.4,1.7,0.7,2.6c0.1,0.4,0.1,0.9,0.4,1.3c0,1.3,0,2.6,0,3.8c-2.6,1.5-5.5,2-8.4,2.9
		c-9.3,2.7-18.8,3.3-28.3,2.8c-2.1-0.1-4.1-0.3-6.2-0.9c-0.5-0.2-1-0.4-1.5-0.7c-0.3-2.5,0.4-4.9,0.5-7.4c3.8,0.7,7.6,1,11.4,1
		c2.5,0,5,0.2,7.4-0.2c3.1-0.5,6.1-1,9.2-1.6C218.1,111.2,222.9,109.8,227.8,108.4z"></path>
	<path d="M0.2,114.7c0.5-1.2,0.4-2.5,0.7-3.7c0.1-0.4,0-0.9,0.4-1.2c0.3,0.1,0.6,0.3,0.9,0.4c6.3,2.3,12.8,3.4,19.4,4.1
		c3.4,0.3,6.9,0,10.3,0c1.8,0,3.5-0.1,5.3-0.3c1.4-0.2,3,0.1,4.3-0.8c0.4-0.3,0.6,0.1,0.8,0.4c0.4,0.8,0.2,1.7,0.6,2.4
		c0,1.5,0.6,3,0.3,4.5c-2.7,1.3-5.6,1.7-8.5,1.8c-9.4,0.4-18.7,0.1-27.8-2.1c-2.3-0.6-4.5-1.1-6.7-2.2
		C0.2,116.9,0.2,115.8,0.2,114.7z"></path>
</g>
<g onclick="select(this)" class="" id="estampa-primaria" fill="#011023">
	<path d="M42.9,115.9c-0.4-0.8-0.2-1.7-0.6-2.4c-0.2-0.3-0.4-0.7-0.8-0.4c-1.3,0.9-2.9,0.6-4.3,0.8c-1.7,0.2-3.5,0.3-5.3,0.3
		c-3.4,0.1-6.9,0.4-10.3,0c-6.6-0.7-13.1-1.7-19.4-4.1c-0.3-0.1-0.6-0.3-0.9-0.4c1.8-9.5,2.7-19.1,4.3-28.7
		C6.4,76,6.8,70.8,7.9,65.7c1.7-8.1,4.5-15.7,9.4-22.5c2.1-2.9,4.6-5.5,7.4-7.8c1.3-1.1,2.3-2.5,3.8-3.3c3.6-1.9,7.3-3.7,11-5.3
		c10-4.1,20.1-8.2,29.6-13.5c1.9-1.1,3.9-2.1,5.4-3.8c0.8-1,2-1.6,3.4-1.6c-1.7,1.2-2.1,2.6-1.5,4.9c0.8,2.9,2.3,5.5,4.2,7.9
		c0.4,0.5,0.7,0.6,1.2,0.1c1.8-1.4,3.5-2.9,5.3-4.3c0.7-0.6,0.3-0.9-0.1-1.3c-1.4-1.5-2.7-3.2-3.5-5.1C83.4,9.8,83,9.3,83.3,9
		c0.3-0.3,0.8-0.1,1.2,0c6.7,0.6,13.4,1.2,20.1,1.7c10.8,0.8,21.6-0.2,32.3-1c2.4-0.2,4.8-0.4,7.4-0.6c-0.9,2.4-2.2,4.3-3.8,6.1
		c-0.5,0.6-0.6,0.9,0.1,1.5c1.8,1.3,3.6,2.7,5.3,4.1c0.3,0.2,0.6,0.6,1,0.1c2.2-2.8,4-5.8,4.3-9.6c0.1-1.5-0.5-2.4-1.8-3
		c1.8-0.1,3,1,4,2.2c0.3,0.4,0.7,0.7,1.1,1c10,6.5,21.2,10.6,32.2,15.2c4,1.7,7.8,3.6,11.7,5.3c1.6,0.7,2.7,2.3,4.2,3.3
		c3.1,2.3,5.8,5.1,8.2,8.2c4.8,6.4,7.6,13.7,9.3,21.5c0.6,2.9,1.2,5.8,1.5,8.7c0.6,5.8,2.3,11.3,3.4,17c1.1,5.9,1.9,11.8,2.9,17.7
		c-4.9,1.4-9.7,2.8-14.7,3.7c-3.1,0.5-6.1,1-9.2,1.6c-2.4,0.4-4.9,0.2-7.4,0.2c-3.8,0-7.6-0.2-11.4-1c0.4-4.4,1.3-8.8,2.2-13.1
		c0.5-2.6,1.2-5.1,1.8-7.7c-0.4,0.4-0.6,0.8-0.8,1.2c-1.8,4.1-3,8.4-4.2,12.8c-2.4,8.9-3.8,18-4.8,27.2c-0.6,5.2-0.9,10.4-1.2,15.7
		c-0.3,4.9-0.5,9.9-0.5,14.8c0,16.9-0.3,33.9,0.2,50.8c0.2,7.3,0.3,14.6,0.5,21.9c0.2,4.9,0.3,9.7,0.5,14.6c0.2,6,0.5,12,0.7,17.9
		c0.2,5,0.4,10,0.8,15.1c-7.7,1.1-15.4,1.4-23.1,1.5c-12.9,0.2-25.9,0.6-38.8,0.9c-6.8,0.2-13.5-0.5-20.2-0.6
		c-8.7-0.1-17.4-0.2-26.1-0.4c-8.3-0.2-16.6-0.4-24.8-1.8c0.5-3.8,0.5-7.6,0.7-11.3c0.4-5.6,0.6-11.2,0.8-16.9
		c0.1-4.4,0.3-8.9,0.5-13.3c0.3-6.3,0.4-12.5,0.5-18.8c0.1-4,0.2-8,0.2-12c0.1-14.3,0.1-28.5,0.1-42.8c0-2.2,0-4.5-0.1-6.7
		c-0.3-6.3-0.3-12.7-0.9-19c-0.2-2.5-0.3-4.9-0.5-7.4c-0.6-4.9-1.1-9.9-2-14.7c-1.1-6-2.2-12-3.9-17.8c-0.7-2.2-1.2-4.4-2.2-6.6
		c-0.6,0.9,0.2,1.4,0.2,2.1c0.4,3.4,1.1,6.7,1.4,10.1C42.3,111,43.1,113.4,42.9,115.9z"></path>
</g>
<g onclick="select(this)" class="" id="detalhe-lateral" fill="#9e9e9e">
	<path d="M180.3,284c-0.4-5-0.6-10-0.8-15.1c-0.3-6-0.5-11.9-0.7-17.9c-0.2-4.9-0.3-9.7-0.5-14.6
		c-0.3-7.3-0.3-14.6-0.5-21.9c-0.4-16.9-0.2-33.9-0.2-50.8c0-4.9,0.2-9.9,0.5-14.8c0.3-5.2,0.7-10.5,1.2-15.7
		c1-9.2,2.5-18.3,4.8-27.2c1.1-4.3,2.4-8.6,4.2-12.8c0.2-0.4,0.4-0.8,0.8-1.2c-0.6,2.6-1.3,5.1-1.8,7.7c-0.9,4.3-1.8,8.7-2.2,13.1
		c-0.1,2.5-0.7,4.9-0.5,7.4c-1.3,10.3-2.3,20.7-2,31.2c0.1,2.4,0.8,4.8,0.4,7.3c-0.3,2.3-0.4,4.7-0.4,7c0.1,6.6,0.1,13.2-0.1,19.7
		c-0.1,4.5,0.7,8.7,1.4,13c0.9,5.1,1,10.2,0.2,15.4c-0.3,2.3-0.5,4.7-0.8,7c0,0.4,0.1,0.8,0.2,1.2c2,5.7,2.5,11.6,1.6,17.6
		c-0.3,2.1-0.3,4.2,0.1,6.3c0.4,2,0.5,4,0.5,6c-0.1,7.4,0.7,14.7,1.4,22c0.2,2.3,0.3,4.6,0.3,6.9c0,1.1-0.5,1.8-1.5,2.2
		C184.1,283.5,182.2,284,180.3,284z"></path>
	<path d="M42.9,115.9c0.2-2.5-0.6-4.9-0.9-7.4c-0.4-3.4-1-6.7-1.4-10.1c-0.1-0.7-0.8-1.2-0.2-2.1
		c0.9,2.2,1.5,4.4,2.2,6.6c1.8,5.8,2.9,11.8,3.9,17.8c0.9,4.9,1.4,9.8,2,14.7c0.3,2.4,0.3,4.9,0.5,7.4c0.6,6.3,0.6,12.6,0.9,19
		c0.1,2.2,0.1,4.5,0.1,6.7c0,14.3,0,28.5-0.1,42.8c0,4-0.1,8-0.2,12c-0.1,6.3-0.3,12.5-0.5,18.8c-0.2,4.4-0.3,8.8-0.5,13.3
		c-0.2,5.6-0.4,11.2-0.8,16.9c-0.3,3.8-0.2,7.6-0.7,11.3c-1.7-0.1-3.4-0.5-5-1.1c-1.6-0.6-2-1.1-2-2.8c0-2.8,0.2-5.6,0.4-8.3
		c0.4-5.3,0.7-10.6,1.2-15.9c0.4-4.8-0.1-9.6,0.9-14.3c0.2-0.9,0.1-1.8,0-2.7c-0.5-3.1-0.3-6.2,0.3-9.3c0.2-0.9,0.1-1.7,0.1-2.6
		c-0.3-4.1-0.9-8.3-0.9-12.4c0-4.8,1.1-9.4,2.7-13.9c0.3-1,0.6-1.9,0.4-2.9c-0.2-1.5-0.1-3,0.1-4.5c0.1-0.6,0.2-1.3,0.2-1.9
		c-0.4-4.8-0.1-9.7-0.4-14.5c-0.1-1.1,0.1-2.2,0.2-3.3c0.1-1.9,0.1-3.7,0-5.6c-0.4-6.8-0.1-13.6,0-20.4c0.1-7.3-0.6-14.6-1.6-21.9
		c-0.2-1.5-0.4-3.1-0.6-4.6C43.5,118.9,42.9,117.4,42.9,115.9z"></path>
</g>
<g onclick="select(this)" class="" id="estampa-terciaria" fill="#000000">
	<path d="M74.1,285.4c1.7-2.9,3.7-5.6,5.6-8.4c15.4-22.7,30.9-45.4,46.4-68.1c17.3-25.4,34.6-50.7,51.9-76.1
		c0.5-0.7,0.8-1.6,1.5-2.1c0.1,0.9,0,1.9-0.3,2.8c-0.9,0.6-1.3,1.6-1.9,2.5c-23.3,34.2-46.6,68.4-69.9,102.6
		c-10.4,15.2-20.7,30.4-31,45.6c-0.3,0.4-0.5,0.8-0.8,1.2C75.1,285.5,74.6,285.4,74.1,285.4z"></path>
	<path d="M178.2,146.7c-1.5,1.8-2.7,3.8-4,5.7c-20.9,30.7-41.8,61.3-62.7,92c-9.1,13.3-18.2,26.7-27.3,40
		c-0.2,0.3-0.4,0.7-0.7,1c-0.5,0.2-0.9,0.2-1.4,0c1.5-2.2,2.9-4.4,4.4-6.6c29.8-43.8,59.7-87.6,89.6-131.4c0.7-1,1.4-1.9,2.1-2.9
		C178.2,145.3,178.2,146,178.2,146.7z"></path>
	<path d="M177.7,159.4c-1.3,1.8-2.5,3.6-3.8,5.4c-26.2,38.5-52.4,76.9-78.6,115.4c-1.2,1.8-2.5,3.6-3.7,5.5
		c-0.5,0-0.9,0-1.4,0c1.6-2.7,3.5-5.3,5.3-7.9c22.2-32.6,44.4-65.2,66.7-97.8c5.2-7.6,10.3-15.2,15.5-22.8
		C177.7,157.9,177.7,158.6,177.7,159.4z"></path>
	<path d="M177.4,171.8c-0.4,0.2-0.6,0.6-0.9,1c-25.4,37.3-50.8,74.6-76.2,111.8c-0.3,0.4-0.5,0.8-0.8,1.2
		c-0.4,0.1-0.9,0.1-1.3,0c1.2-2.1,2.6-4,4-6c24.6-36.2,49.3-72.3,73.9-108.5c0.4-0.6,0.8-1.3,1.3-1.9
		C177.5,170.2,177.5,171,177.4,171.8z"></path>
	<path d="M177.4,183.8c-0.6,0.4-0.9,1-1.3,1.6c-21.6,31.7-43.2,63.4-64.8,95.1c-1.3,1.9-2.5,3.8-3.8,5.7
		c-0.5,0.1-0.9,0.1-1.4,0c3-4.4,6-8.9,9-13.3c16-23.5,32.1-47.1,48.1-70.6c4.5-6.5,8.9-13.1,13.4-19.6c0.2-0.3,0.4-0.7,0.8-0.9
		C177.5,182.4,177.5,183.1,177.4,183.8z"></path>
	<path d="M177.4,195.6c-1.5,1.7-2.6,3.6-3.9,5.5c-19.2,28.1-38.3,56.2-57.4,84.3c-0.2,0.3-0.4,0.7-0.6,1
		c-0.5,0-1,0-1.4,0c2.7-4,5.4-8,8.1-12c13.5-19.7,26.9-39.5,40.4-59.2c4.9-7.3,9.9-14.5,14.9-21.8
		C177.5,194.1,177.5,194.8,177.4,195.6z"></path>
	<path d="M122.3,286.2c2.5-3.8,5.1-7.6,7.6-11.3c14.4-21.1,28.8-42.2,43.1-63.3c1.5-2.1,2.9-4.3,4.3-6.4
		c0.1,0.8,0.1,1.6,0,2.4c-2.1,2.6-3.9,5.5-5.8,8.2c-16,23.4-31.9,46.9-47.9,70.3C123.3,286.2,122.8,286.4,122.3,286.2z"></path>
	<path d="M130.5,286c4.5-6.6,8.9-13.2,13.4-19.7c10.2-15,20.4-30,30.6-45c0.2-0.4,0.5-0.7,0.8-1.1
		c0.2-0.3,0.5-0.7,0.9-0.5c0.3,0.2,0.2,0.7,0.1,1c-0.1,0.4-0.4,0.8-0.7,1.1c-14.2,20.9-28.5,41.8-42.7,62.7
		c-0.3,0.4-0.6,0.9-0.8,1.3C131.5,286.1,131,286.2,130.5,286z"></path>
	<path d="M177.9,230.5c-4.9,7.2-9.9,14.4-14.8,21.5c-7.6,11.2-15.3,22.4-22.9,33.6c-0.5,0.2-1,0.3-1.5,0.1
		c3.1-4.6,6.2-9.3,9.4-13.9c7-10.3,14-20.5,21-30.8c2.9-4.3,5.8-8.5,8.7-12.7C177.9,229.1,177.9,229.8,177.9,230.5z"></path>
	<path d="M178.2,242c-3.3,4.9-6.7,9.7-10,14.6c-6.3,9.2-12.5,18.3-18.8,27.5c-0.3,0.4-0.6,0.9-0.8,1.3
		c-0.5,0.2-0.9,0.1-1.4,0.1c0.6-1.3,1.6-2.5,2.4-3.7c9.4-13.9,18.8-27.7,28.3-41.6c0.1-0.2,0.3-0.3,0.4-0.4
		C178.2,240.6,178.2,241.3,178.2,242z"></path>
	<path d="M178.7,253.4c-1.7,2-3.1,4.3-4.6,6.5c-5.6,8.2-11.2,16.5-16.9,24.7c-0.2,0.2-0.3,0.5-0.4,0.7
		c-0.5,0.1-0.9,0.1-1.4,0c2.3-3.4,4.6-6.9,6.9-10.3c5.2-7.7,10.5-15.5,15.7-23.2c0.2-0.3,0.4-0.6,0.7-0.8
		C178.7,251.8,178.7,252.6,178.7,253.4z"></path>
	<path d="M179.1,264.5c-2.1,2.6-3.8,5.5-5.7,8.2c-2.8,4.1-5.6,8.2-8.4,12.4c-0.5,0.1-0.9,0.2-1.4,0.1
		c1.7-2.5,3.3-5,5-7.5c3.2-4.7,6.4-9.4,9.6-14.1c0.2-0.4,0.4-0.8,0.8-1C179.3,263.2,179.2,263.9,179.1,264.5z"></path>
	<path d="M179.6,275.8c-2.1,2.6-3.8,5.5-5.7,8.2c-0.2,0.2-0.3,0.5-0.5,0.7c-0.4,0.1-0.9,0.2-1.3,0.1
		c0.7-1.5,1.7-2.7,2.6-4.1c1.6-2.4,3.3-4.8,4.9-7.2C179.8,274.3,179.7,275,179.6,275.8z"></path>
</g>
<g onclick="select(this)" class="" id="estampa-secundaria" fill="#9e9e9e">
	<path d="M47.6,277.4c2.7-3.9,5.4-7.9,8.1-11.9c14.4-21.1,28.8-42.3,43.2-63.4c9.5-13.9,19-27.9,28.5-41.8
		c12.7-18.6,25.4-37.2,38.1-55.9c9.4-13.8,18.8-27.6,28.2-41.4c0.2-0.4,0.5-0.7,0.9-1.3c0,2.1-0.1,4,0,5.9c0.2,2.4-0.5,4.3-1.9,6.2
		c-17.2,25.1-34.3,50.3-51.5,75.5c-11.1,16.2-22.2,32.5-33.2,48.7c-11.6,17-23.2,34.1-34.8,51.1c-7.5,11-15,22-22.5,33
		c-0.6,0.8-0.9,2-2.3,1.5c-0.5-0.1-0.9-0.1-1.4-0.2C47.4,281.5,47.1,279.4,47.6,277.4z"></path>
	<path d="M52.8,284.3c0.1-0.8,0.7-1.3,1.2-1.9c12.7-18.7,25.5-37.4,38.2-56.1c16.8-24.6,33.6-49.2,50.3-73.8
		c10.2-14.9,20.3-29.9,30.5-44.8c6.7-9.9,13.5-19.7,20.2-29.6c0.2-0.3,0.5-0.6,0.8-0.9c-0.6,5-2.8,9.4-4.8,13.9
		c-1.1,1.9-1.6,4.2-2.6,6.1c-0.2,0.1-0.3,0.3-0.2,0.6l0,0c-0.6,0.1-0.7,0.6-0.9,1c-11.3,16.5-22.5,33.1-33.8,49.6
		c-12.9,18.9-25.8,37.8-38.7,56.8c-14,20.6-28.1,41.1-42.1,61.7c-4.1,6-8.2,11.9-12.3,17.9C56.6,284.8,54.7,284.6,52.8,284.3z"></path>
	<path d="M68.2,285.2c-2,0.1-4.1,0.1-6.1-0.2c-0.1-0.5,0.2-0.7,0.5-1.1c2.2-3.3,4.5-6.6,6.8-9.9
		c11.5-16.8,23-33.7,34.4-50.5c13.5-19.9,27.1-39.8,40.6-59.6c11.7-17.2,23.5-34.5,35.3-51.7c1.5-2.1,2.8-4.4,4.5-6.3
		c-1.1,4.6-2.1,9.1-2.9,13.8c-0.5,0.2-0.6,0.6-0.9,1c-2.5,3.7-5.1,7.4-7.6,11.1c-11.5,16.9-23.1,33.9-34.6,50.8
		c-12.2,18-24.5,35.9-36.7,53.9c-8.6,12.6-17.2,25.2-25.8,37.9C73.1,277.9,70.6,281.5,68.2,285.2z"></path>
	<path d="M47.9,272.2c-0.2-3.1,0.4-6.2,0.3-9.3c0-0.2,0.1-0.5,0.2-0.7c4.2-6.1,8.3-12.1,12.5-18.2
		c12.4-18.1,24.7-36.3,37.1-54.4c14.1-20.7,28.2-41.4,42.3-62c16.3-23.8,32.5-47.7,48.8-71.5c2.3-3.4,4.7-6.9,7.2-10.6
		c-0.2,1.8-0.6,3.2-0.5,4.6c0.1,1.9-0.5,3.8-0.6,5.6c0,0.6-0.3,1.1-0.6,1.7C185.2,70.9,176,84.5,166.7,98
		c-9.1,13.4-18.3,26.8-27.4,40.2c-7.2,10.5-14.3,21-21.5,31.5c-10.5,15.4-21,30.8-31.5,46.2c-12.7,18.6-25.3,37.2-38,55.8
		C48.2,271.9,48,272.1,47.9,272.2z"></path>
	<path d="M48.4,258.2c0.1-2,0.2-4,0.2-6c2.1-3,4.2-6,6.2-9c14.4-21.1,28.7-42.2,43.1-63.2c13.7-20,27.4-40.1,41-60.1
		c12.2-17.9,24.4-35.8,36.6-53.7c5.6-8.3,11.3-16.6,16.9-24.9c0.7-1,1.3-0.7,2.1-0.5c1.7,0.6,1.7,0.6,0.7,2.1
		c-14.5,21.3-29.1,42.7-43.6,64c-11.5,16.8-23,33.7-34.5,50.5c-15.8,23.1-31.5,46.2-47.3,69.4c-7,10.3-14,20.5-21,30.8
		C48.8,257.8,48.6,258,48.4,258.2z"></path>
	<path d="M48.9,246.5c-0.2-2,0.1-4,0.2-6c3.6-5.2,7.2-10.5,10.8-15.7c9.4-13.7,18.7-27.5,28.1-41.2
		c11.4-16.7,22.8-33.3,34.1-50c9.5-14,19.1-28,28.6-42c11.7-17.2,23.5-34.4,35.2-51.6c0.3-0.5,0.5-1.4,1.2-1.3
		c0.9,0,1.7,0.4,2.5,0.7c0.6,0.2,0,0.6-0.1,0.8c-2,2.9-3.9,5.8-5.9,8.7c-6.3,9.2-12.5,18.4-18.8,27.5c-12.3,18-24.6,36.1-36.9,54.1
		c-9.3,13.7-18.7,27.4-28,41.1c-11.3,16.5-22.6,33.1-33.9,49.6c-5.5,8.1-11.1,16.2-16.6,24.4C49.3,246,49.1,246.3,48.9,246.5z"></path>
	<path d="M49.3,234.7c0-1.9,0.1-3.8,0.1-5.7c4.3-6.3,8.6-12.5,12.9-18.8c12.3-18,24.6-36,36.8-54
		c8.3-12.2,16.6-24.3,24.8-36.5c14-20.5,28-41.1,42-61.6c4.6-6.8,9.2-13.5,13.8-20.3c0.3-0.4,0.4-1,1-0.9c0.9,0.2,1.8,0.4,2.6,0.8
		c0.3,0.2-0.1,0.6-0.3,0.9c-2,2.9-3.9,5.7-5.9,8.6c-10.7,15.7-21.4,31.4-32.1,47.2c-13.6,19.9-27.2,39.8-40.7,59.7
		c-14,20.5-28,41-42,61.5c-4.1,6-8.2,12.1-12.4,18.1C49.8,234.1,49.7,234.5,49.3,234.7z"></path>
	<path d="M49.6,222.9c0-1.9,0-3.8,0-5.7c3-4.4,6-8.7,9-13.1C71,186,83.3,167.9,95.6,149.9
		c11.6-17.1,23.3-34.2,34.9-51.2c14.2-20.9,28.5-41.8,42.8-62.7c0.3-0.4,0.4-1,1-0.9c0.9,0.2,1.8,0.4,2.6,0.8
		c0.4,0.2-0.1,0.5-0.2,0.8c-2.8,4.2-5.7,8.3-8.5,12.5C156.6,66.1,145,83,133.5,100c-13,19.1-26.1,38.2-39.1,57.4
		c-12.3,18-24.5,36-36.8,54C54.9,215.2,52.3,219,49.6,222.9z"></path>
	<path d="M49.9,209.2c-0.1-1.9-0.1-3.8,0-5.7c5-7.3,10-14.6,15-21.9c10.2-14.9,20.3-29.9,30.5-44.8
		c12.9-19,25.9-38,38.8-57c10.6-15.6,21.3-31.2,31.8-46.8c0.6-0.9,1.2-0.6,1.9-0.4c1.8,0.7,1.8,0.7,0.8,2.2
		c-10.7,15.7-21.4,31.4-32.1,47c-9,13.2-18,26.4-27,39.6c-10.2,14.9-20.3,29.8-30.5,44.7c-9.2,13.5-18.4,27.1-27.7,40.6
		C51,207.7,50.4,208.5,49.9,209.2z"></path>
	<path d="M49.9,196.3c-0.1-1.4-0.1-2.7,0-4.1c4.1-5.9,8.1-11.9,12.2-17.8c9.2-13.5,18.4-27,27.5-40.4
		c9.4-13.7,18.7-27.5,28.1-41.2c8.6-12.6,17.2-25.2,25.7-37.7c5.5-8.1,11-16.1,16.5-24.2c0.7-1,1.6-1.1,2.5-0.3c0.5,0.5,0,0.7-0.2,1
		c-2.3,3.4-4.6,6.8-6.9,10.1c-7.7,11.4-15.5,22.7-23.2,34.1c-14.9,21.8-29.7,43.6-44.6,65.4c-12.3,18-24.6,36.1-36.9,54.1
		C50.5,195.6,50.2,196,49.9,196.3z"></path>
	<path d="M49.9,185c-0.1-1-0.1-1.9,0-2.9c2.5-3.6,5-7.2,7.5-10.8c10.7-15.7,21.5-31.5,32.2-47.3
		c9.4-13.7,18.7-27.5,28.1-41.2c11.4-16.7,22.8-33.4,34.2-50.1c1.1-1.6,2.1-3.1,3.1-4.7c0.4-0.7,0.8-0.6,1.4-0.2
		c0.8,0.4,0.2,0.8,0,1.1c-15.1,22.2-30.3,44.4-45.4,66.6c-11.3,16.5-22.5,33.1-33.8,49.7C68.1,158.4,59,171.6,49.9,185
		C50,184.9,49.9,185,49.9,185z"></path>
</g>
</svg>
