<!--?xml version="1.0" encoding="utf-8"?-->
<!-- Generator: Adobe Illustrator 24.2.3, SVG Export Plug-In . SVG Version: 6.00 Build 0)  -->
<svg version="1.1" id="Camada_1" xmlns="http://www.w3.org/2000/svg" xmlns:xlink="http://www.w3.org/1999/xlink" x="0px" y="0px" viewBox="0 0 229 418" enable-background="new 0 0 229 418" xml:space="preserve">
<g onclick="select(this)" class="" id="estampa-primaria" fill="#082890">
	<path d="M43.1577797,120.4319763c-0.1331444-2.2575073-0.2330475-4.5158005-0.6140976-6.7538605
		c-0.1032143-0.6061935-0.2480927-0.7635117-0.8195343-0.5151901c-2.5753326,1.119133-5.3683243,1.2036667-8.0832443,1.458252
		c-2.4830379,0.2328491-5.0145454-0.0454788-7.5244999-0.1064301c-4.3427734-0.1054459-8.6874218-0.2220306-12.9771452-0.9888382
		c-3.4181538-0.6110153-6.766901-1.4842224-9.9895649-2.8108902c-0.6405647-0.2637024-1.1955985-0.6281204-1.7463299-1.0219345
		c1.7879728-9.4235535,2.6640635-18.9825058,4.2230082-28.4415283C6.4767475,76.091835,6.7928009,70.8532791,7.9045849,65.725502
		c1.7700176-8.1636887,4.5197229-15.8993645,9.5808334-22.6658669c2.0926247-2.7977562,4.4556618-5.3477936,7.1953869-7.5122299
		c1.3634644-1.0771637,2.3610077-2.5717964,3.9242687-3.3982277c3.6051579-1.9058933,7.254427-3.7267208,11.025732-5.281601
		c9.9814262-4.1152573,19.9857483-8.1783485,29.4420929-13.4409914c1.9731445-1.0980968,4.0107269-2.0738554,5.5131912-3.8971462
		c0.8112564-0.9844913,1.9984894-1.5786386,3.3706741-1.5650768c-1.9771576,1.0425472-1.8793793,2.8619375-1.5227661,4.5982809
		c0.6309128,3.0719166,2.1655045,5.7339325,4.1546249,8.1455193c0.4057236,0.4919052,0.723259,0.6197052,1.2625885,0.1770668
		c1.7297974-1.419693,3.4736786-2.823595,5.2473907-4.1877403c0.7435913-0.5718918,0.36306-0.9903536-0.0605392-1.4501514
		c-1.4163742-1.5373764-2.6791687-3.1793976-3.4846725-5.1298161c-0.5081329-1.2303572-0.3975296-1.317688,0.9412537-1.1946383
		c5.3301926,0.4899063,10.6587753,1.0123425,15.9972229,1.3928032c4.8539963,0.3459349,9.7080841,0.9332047,14.5817413,0.7113132
		c6.0604172-0.2759237,12.1149292-0.6910152,18.1692657-1.0873117c3.6225281-0.2371168,7.2398529-0.553256,11.0444489-0.8482122
		c-0.8295288,2.2499552-2.0206604,4.1257906-3.5267029,5.7606192c-0.8570404,0.9303417-0.7557831,1.3719425,0.2361145,2.0526142
		c1.5791626,1.0836601,3.0792694,2.2883301,4.5635376,3.5020809c0.7381134,0.6035995,1.1972656,0.7650604,1.8544006-0.1728249
		c1.9233093-2.7450294,3.5836945-5.5637484,3.7983398-9.025279c0.0914459-1.4749069-0.5164948-2.4436598-1.8510895-3.0015402
		c1.805069-0.1290302,2.9675446,0.9602423,4.0461426,2.170207c0.3426666,0.3844185,0.6612396,0.7431192,1.1118469,1.0379772
		c10.0123901,6.551692,21.2060242,10.6058836,32.1462097,15.183404c3.9640808,1.6586246,7.7821655,3.6280708,11.7518158,5.2684746
		c1.1912231,0.4922543,1.9363098,1.6271305,2.9542084,2.3864155c3.5424194,2.6424065,6.7263947,5.6513519,9.3942413,9.1925812
		c4.8312988,6.412899,7.5744629,13.7281952,9.3175507,21.4774704c0.6493683,2.8869781,1.1865082,5.7985992,1.4688416,8.7432404
		c0.5558167,5.797142,2.2962189,11.3504105,3.422226,17.02948c1.0884094,5.4892731,1.701889,11.0551376,2.752655,16.5493011
		c0.0593719,0.3103943,0.0376434,0.6363068,0.0537109,0.9550934c-3.2987213,1.3235931-6.6597748,2.4349976-10.1315613,3.2337265
		c-3.0367279,0.6986465-6.1237183,1.0777283-9.1846924,1.6170425c-3.0667725,0.540329-6.1685028,0.7683411-9.2889404,0.7493134
		c-4.2289276-0.0257874-8.4828186,0.2864685-12.6547546-0.5902405c-1.20401-0.2530289-1.4316864,0.1222992-1.6246643,1.1130066
		c-0.3781281,1.9411774-0.3158417,3.8887177-0.2612,5.8419342c-0.5772858,2.0070114-0.5196991,4.0956879-0.7766418,6.1436005
		c-0.8968658,7.1481628-1.2922211,14.3308716-1.3661346,21.5326996c-0.0230255,2.241272,0.053009,4.4675293,0.5191193,6.6785278
		c0.4026031,1.9098053-0.0408325,3.8264618-0.2037506,5.7315216c-0.1810303,2.1169586-0.2709503,4.2322845-0.1436157,6.3496399
		c0.1518555,2.5260468-0.2313538,5.0304565-0.2312164,7.5479889c0.0001373,2.5981293-0.0803833,5.1981659,0.181427,7.7913666
		c0.2425995,2.4028473-0.2098846,4.7868652-0.2297363,7.1856842c-0.0187836,2.2715912,0.5240326,4.4370728,1.0009155,6.6177368
		c1.5867004,7.2556152,1.3607025,14.5335388,0.3235474,21.824173c-0.3049164,2.1434021-0.3761597,4.2101135,0.3256531,6.3586731
		c1.7730713,5.4281464,1.8151703,11.0104218,0.9422455,16.6113586c-0.2309113,1.4814911-0.2516632,2.9259796,0.0901947,4.3939362
		c0.8995667,3.862915,0.4402161,7.8049011,0.6498108,11.7084808c0.3148804,5.8646545,0.692749,11.7265015,1.4283295,17.5618286
		c0.2582855,2.0488892,0.2250519,4.1386719,0.2561798,6.2108154c0.0260468,1.7346802-0.3510437,2.2309265-2.0608063,2.7463684
		c-3.0047913,0.9057922-6.1231079,1.1577759-9.223526,1.4821472c-8.3242798,0.8709412-16.6839905,0.8759155-25.0397491,1.0395508
		c-11.5935516,0.2269592-23.1844864,0.7744751-34.7773209,0.7973022c-11.5119324,0.0226746-23.0146637-0.800293-34.5328903-0.855072
		c-8.3569794-0.0397644-16.7155609-0.1084595-25.0554161-0.7390137c-4.2688141-0.3227844-8.5254021-0.7648926-12.7032623-1.7471924
		c-3.5191689-0.8274536-3.8727531-1.1688538-3.6649704-4.7828064c0.4422684-7.692627,0.9992447-15.3787842,1.5412292-23.0653381
		c0.1435623-2.0360107,0.2814865-4.0697174,0.2325592-6.1102753c-0.0442352-1.8449707,0.0390892-3.6795807,0.3708687-5.4958344
		c0.4056892-2.2208862,0.4405899-4.4328766,0.1157837-6.6756897c-0.3647766-2.5188141-0.1090546-5.0327759,0.4354477-7.5070496
		c0.2281456-1.0367126,0.1938744-2.0496063,0.1175346-3.0926819c-0.332428-4.5425568-1.0252762-9.0645905-0.8247719-13.6387939
		c0.189064-4.3131561,1.2074547-8.4562988,2.6664658-12.4943695c0.3753433-1.0388489,0.6211166-2.0308075,0.4566879-3.1429596
		c-0.1816826-1.2288818-0.1624031-2.4731903,0.0706406-3.7033234c0.3156853-1.6663513,0.1932678-3.328949,0.1094208-5.0132446
		c-0.1646271-3.3068085-0.1753082-6.6228333-0.1888924-9.935318c-0.0529137-12.9051971-0.041748-25.8108063-0.1397247-38.7156219
		c-0.0395241-5.2062378-0.9890976-10.3417664-1.5522079-15.5062332
		C43.6154823,122.9787064,43.7590141,121.6430893,43.1577797,120.4319763z"></path>
</g>
<image overflow="visible" width="461" height="78" xlink:href="B12A4580.jpg" transform="matrix(1 0 0 1 -7894 -7770.1103516)">
</image>
<g onclick="select(this)" class="" id="estampa-secundaria" fill="#801815">
	<path d="M174.3967743,284.8035889c-2.2888794,0.3658142-4.6030426,0.4369812-6.9106445,0.5372314
		c-7.9725189,0.3463135-15.9520721,0.3966064-23.9300842,0.5079651c-3.189209,0.0445251-6.3735046,0.3215637-9.5663452,0.2087708
		c-0.0103455-3.4763184-0.0186768-6.9526978-0.0322571-10.4290161c-0.0042877-1.0965271-0.0107422-1.105957-1.1199646-1.1061707
		c-12.6282501-0.0022278-25.2564926-0.0021362-37.8847351-0.0002441c-1.1310577,0.0001831-1.1337891,0.0081177-1.1372757,1.2060852
		c-0.0097809,3.3566589-0.0170898,6.7132874-0.0253677,10.0699158c-4.2320404,0.0722656-8.4625473-0.0267334-12.6933746-0.1066284
		c-5.9881973-0.1130066-11.9797058-0.0915527-17.9637604-0.3673706c-3.265976-0.1506042-6.5410118-0.2246704-9.7799492-0.7469788
		c-0.0114555-2.9985046-0.020237-5.9970093-0.03582-8.9955139c-0.0054398-1.0455933-0.013092-1.0570679-1.0478897-1.0586548
		c-3.5587997-0.0054321-7.1176186,0.0004578-10.6764221-0.0036621c-1.0022507-0.0011597-1.002243-0.0101318-1.0699997-1.0344849
		c0.5970192-5.726532,0.7297363-11.4873657,1.2662277-17.2178345c0.276268-2.950882,0.3171196-5.9043579,0.3011894-8.8639069
		c-0.0081825-1.5211792,0.229435-3.0294647,0.4875832-4.5244598c0.2883415-1.6698151,0.3317337-3.3236084,0.0520859-4.9978943
		c-0.1976509-1.1833191-0.2488937-2.3825073-0.1245499-3.5823669c3.2323647-0.019455,6.4647331-0.0380859,9.6970901-0.0588226
		c1.103981-0.0070953,1.1141472-0.0095215,1.1143646-1.1003418c0.0025063-12.6552734,0.002739-25.3105164-0.000164-37.9657898
		c-0.0002365-1.0375671-0.0129166-1.042984-1.0525017-1.0514069c-2.2746735-0.0184479-4.5493965-0.030838-6.8240967-0.0456696
		c0.3623199-2.3826599-0.034687-4.7770844,0.0616302-7.1439667c0.1512833-3.7178345-0.1630669-7.4077911-0.1953621-11.1105042
		c-0.010498-1.2036133,0.1872673-2.3835907,0.23983-3.5783997c0.1406631-3.1971436-0.3143158-6.3751526-0.2820587-9.5677338
		c0.0302124-2.9907074,0.0692863-5.9813385,0.1044617-8.9719849c2.3184814-0.0187531,4.6370125-0.0336914,6.9554367-0.058075
		c0.9747658-0.0102539,0.9917641-0.0193024,0.9920578-0.9961548c0.0038795-12.6396942,0.0037918-25.2793884,0.0001144-37.9190903
		c-0.0002975-1.0189056-0.0159531-1.0294266-1.0807228-1.0316849c-2.8399239-0.0060349-5.6801147-0.0228577-8.5196228,0.0119858
		c-0.7348518,0.0090179-1.0250359-0.1625671-1.1043015-0.9677658c-0.210762-2.1410217-0.5495338-4.2696075-0.8447762-6.4021072
		c-0.5134621-3.7086487-0.9708443-7.4230499-1.9090614-11.0632019c-1.327137-5.1490784-3.1815605-10.1060791-5.3208427-14.9597473
		c-0.8771057-1.9900284-1.5740967-4.0011978-1.6882362-6.1920395c-0.0340958-0.6544495,0.1352882-0.9414215,0.850174-0.912941
		c1.2380028,0.0493469,2.4793968,0.0134048,3.719368,0.0133896c4.9598808-0.0000381,9.9197693,0.0027313,14.8796425-0.0023193
		c0.9988098-0.0010147,0.9998817-0.0146408,1.0199738-0.9636917c0.0050774-0.2398911,0.0008049-0.4799805,0.0008049-0.7199707
		c0.0000038-11.8797188-0.0000229-23.7594337,0.0000763-35.6391525c0.0000038-0.3199883,0.0058975-0.6400528,0.0006104-0.9599419
		c-0.0051231-0.3096809,0.0827484-0.5332489,0.4201736-0.6266861c2.0638618-0.5715141,4.0310364-1.3907547,6.2706299-1.3756027
		c10.7992516,0.073082,21.5992622,0.0336227,32.3990059,0.0319214c1.2383118-0.0001907,1.243515-0.0064545,1.2448578-1.241724
		c0.003212-2.9599285-0.003212-5.9198742,0.0063019-8.8797741c0.0012207-0.3806629-0.1013489-0.7832508,0.138237-1.2105312
		c13.4640961,9.1702003,26.8783493,9.296814,40.3285904-0.3637676c0,2.5642834-0.0001526,4.9151478,0.0000305,7.2660141
		c0.0001068,1.2399673,0.012558,2.4800987-0.0045166,3.7198257c-0.006897,0.5013008,0.1738586,0.7461281,0.6960754,0.7131996
		c0.3187103-0.020092,0.6397552-0.0023308,0.9597626-0.0023308c9.6797485,0.0000801,19.3598175,0.039917,29.039093-0.0285149
		c2.3602448-0.0166893,4.60495,0.2758484,6.7789459,1.1704941c0.5528564,0.22752,1.115509,0.4318466,1.6770172,0.6376495
		c1.2834473,0.4703979,1.1552124,0.0977898,1.1558533,1.6490936c0.004776,11.5997238,0.0026093,23.1994438,0.002594,34.7991676
		c0,2.0266266-0.0000458,2.0266266,2.0031128,2.0266266c5.6398773,0.0000076,11.2797241-0.0006638,16.9195862,0.0005035
		c1.2887573,0.0002747,1.3222809,0.0060043,1.2124786,1.3217316c-0.0760498,0.9112167-0.2745056,1.8115463-0.3937531,2.7199478
		c-0.4141388,3.1545258-1.4619293,6.1500092-2.6981812,9.028717c-1.1062622,2.5760193-2.0683746,5.1772842-2.831192,7.8611984
		c-1.231842,4.3340988-2.0380402,8.7643738-2.816391,13.1939316c-0.3500824,1.9923248-0.8609314,3.9793167-0.782608,6.0333328
		c-0.0101166,0.080864-0.0202332,0.1617279-0.0303802,0.2425995c-3.1160583,0.1565628-6.2341766,0.0280685-9.3511047,0.0670624
		c-1.225235,0.0153275-1.2303162,0.0084457-1.2307129,1.2473755c-0.0019073,5.8378067-0.0008545,11.6756134-0.0008545,17.5134125
		c-0.0000153,6.6374969-0.0002136,13.2749786,0.0001068,19.9124908c0.000061,1.380127-0.0903625,1.2742157,1.3151398,1.2790985
		c2.3588104,0.0081787,4.7176208,0.0173798,7.0764313,0.0261536c0.5244598,1.4377899,0.3546906,2.9234924,0.2129211,4.3822632
		c-0.2238922,2.3034363-0.5295563,4.6063995-0.3956299,6.9191437c0.2082214,3.5960999-0.2483215,7.1716614-0.2142792,10.7599487
		c0.0177765,1.8739624,0.0053101,3.745163,0.1559753,5.6190643c0.1469116,1.8269806,0.0797424,3.6588745-0.0984039,5.4945374
		c-0.2356873,2.4285889-0.0996704,4.8540039,0.5592194,7.2259827c-2.5145874,0.0153656-5.0291748,0.0283661-7.5437317,0.0471649
		c-1.0522766,0.0078888-1.0655975,0.0134888-1.0658264,1.0406494c-0.0029602,12.6972809-0.0030212,25.3945465,0.0009918,38.0918274
		c0.0003052,0.9670868,0.0172119,0.9791718,0.9910736,0.9830017c2.0762329,0.008194,4.1525726-0.0046692,6.2288208,0.0052185
		c1.2763214,0.0060883,2.5525208,0.0383301,3.8287659,0.0588379c0.107132,2.0059357-0.163269,3.9911804-0.4744568,5.95578
		c-0.2935791,1.8535614-0.1373596,3.6356659,0.2118683,5.4548645c0.4677734,2.4366455,0.6035919,4.910965,0.4945374,7.3937073
		c-0.1846008,4.2033844,0.3283386,8.3720856,0.6300049,12.5507355c0.1694794,2.3479309,0.4046021,4.6911621,0.5708466,7.0392761
		c0.0423737,0.5984802,0.349411,1.1530457,0.2446594,1.7659912c-0.4367218,0.0197144-0.8734283,0.0556335-1.3101807,0.0564575
		c-2.668869,0.0053101-5.3381195-0.023468-8.006424,0.0152588c-1.0993347,0.0159302-2.2143555-0.2045593-3.3005829,0.1427612
		c-0.2394714,1.0588379-0.0872498,2.1321106-0.1041718,3.1978455
		C174.4029999,280.1836243,174.4085083,282.4937439,174.3967743,284.8035889z M93.6550217,93.5136108
		c0-1.479248-0.0000153-2.9584808,0-4.4377289c0.0000458-4.8774948,0.0027771-9.7549896-0.0020599-14.6324921
		c-0.0009918-1.0006104-0.0140076-1.0008774-0.962677-1.0218353c-0.1198807-0.002655-0.2398682-0.0003662-0.3598099-0.0003662
		c-12.5135727,0.0000076-25.027153-0.0000076-37.5407333,0.0001755c-0.2398682,0.0000076-0.4801102,0.011528-0.7195053,0.0014954
		c-0.396244-0.0166168-0.5965652,0.1474075-0.5814934,0.5606155c0.0116539,0.3193436-0.0014725,0.6395416-0.0014801,0.9593658
		c-0.0002098,12.353653-0.0001755,24.7073212-0.0001717,37.0609741c0,0.2398758,0.0228691,0.4823761-0.0042877,0.7191391
		c-0.0755081,0.6581955,0.2566185,0.849968,0.84589,0.7870255c0.1581039-0.0168915,0.319561-0.0022812,0.4794769-0.0022812
		c12.5135841,0.0000229,25.0271568,0.0000381,37.5407372-0.0001144c0.2398682,0,0.4800491-0.0103607,0.7195282-0.0012665
		c0.395546,0.0150223,0.595665-0.1558304,0.585022-0.5627747c-0.007309-0.2796249,0.0014572-0.5596313,0.0014648-0.8394775
		C93.655098,105.9072495,93.6550522,99.7104263,93.6550217,93.5136108z M154.1964111,73.4211655
		c-6.2752991,0-12.5505981-0.0007401-18.8258972,0.0006256c-1.2374268,0.000267-1.2425232,0.0040054-1.2426453,1.2189407
		c-0.0013123,12.5506058-0.0012665,25.1012115-0.0001221,37.6518173c0.0001068,1.2106323,0.0046997,1.2144852,1.2483368,1.2145767
		c12.5506134,0.0009766,25.1012115,0.0009918,37.651825-0.0000153c1.2372131-0.0000992,1.2416229-0.0040588,1.2417297-1.2203293
		c0.0010986-12.5506058,0.0011597-25.1012115-0.0001221-37.6518173c-0.0001068-1.2095108-0.0051575-1.2129745-1.2471924-1.2132187
		C166.7470245,73.4204788,160.4717255,73.4211578,154.1964111,73.4211655z M93.6551361,174.0064545
		c0-6.3174438,0.000885-12.6348877-0.0007858-18.9523315c-0.0003128-1.2107544-0.0049438-1.2150726-1.2514496-1.2151794
		c-12.5549164-0.0010986-25.1098328-0.0010681-37.6647568-0.000061c-1.2453613,0.0000763-1.2502594,0.0040436-1.2503738,1.2116699
		c-0.0012169,12.5549316-0.0012054,25.109848,0.0000191,37.6647644c0.0001221,1.2108612,0.0050125,1.21492,1.2464104,1.2150116
		c12.5549164,0.0010681,25.1098404,0.0010834,37.6647568,0.0000458c1.2536011-0.0000916,1.2556229-0.0041809,1.2557907-1.3314667
		C93.6555176,186.401413,93.6550827,180.203949,93.6551361,174.0064545z M154.1949158,153.8382721
		c-6.2759705,0-12.5519409-0.0007782-18.8279266,0.0006714c-1.2346649,0.0002899-1.2391815,0.0042419-1.2393036,1.2220764
		c-0.0011292,12.5519409-0.0011139,25.1038818,0.0001068,37.6558228c0.0001221,1.2097473,0.0049744,1.2134857,1.2466278,1.2135925
		c12.5519409,0.0009613,25.1038971,0.0009766,37.655838-0.0000458c1.2344208-0.0000916,1.239212-0.0041046,1.2393188-1.2215729
		c0.0012054-12.5519409,0.0012054-25.1038971,0.0000153-37.655838c-0.0001068-1.2101135-0.0048981-1.2138062-1.2467499-1.2140808
		C166.7468567,153.8375397,160.4709015,153.8382721,154.1949158,153.8382721z M114.0048218,194.1208801
		c-6.3180008,0-12.6360092-0.0008392-18.9540176,0.0007324c-1.2298737,0.0003052-1.2349396,0.0046387-1.2350693,1.2298584
		c-0.0012436,12.5560303-0.0012054,25.1120605,0.0000916,37.6681061c0.0001221,1.2159271,0.0051651,1.2197418,1.2352982,1.2198334
		c12.5560303,0.0009613,25.1120682,0.0009918,37.6680984-0.0000305c1.2328339-0.0001068,1.2382965-0.0041351,1.2384491-1.2201233
		c0.0014191-12.5560455,0.0014038-25.1120758,0.0001831-37.6681061c-0.0001221-1.2246094-0.005127-1.229187-1.2389526-1.2295074
		C126.4808807,194.1199799,120.2428513,194.1208801,114.0048218,194.1208801z M73.6844101,234.2438965
		c-6.3171463,0-12.634285-0.0007019-18.9514313,0.0006256c-1.2405396,0.0002594-1.2451324,0.0039063-1.2452469,1.2145081
		c-0.0011482,12.5543213-0.001194,25.1086578,0.0000877,37.6629791c0.0001259,1.2043457,0.0052414,1.208252,1.2529564,1.208374
		c12.5543213,0.0010376,25.1086426,0.0010681,37.6629715,0c1.2454529-0.0001221,1.2504883-0.0043335,1.250618-1.216156
		c0.0012589-12.5543213,0.0012436-25.1086426-0.0000153-37.6629639c-0.0001144-1.2026672-0.0051727-1.2064514-1.2584152-1.2067261
		C86.1587677,234.2431335,79.9215851,234.2438965,73.6844101,234.2438965z M154.3300781,234.2438965
		c-6.3156586,0-12.6313171-0.0006714-18.9469757,0.0005646c-1.2502441,0.0002441-1.2552185,0.0036316-1.2553406,1.203949
		c-0.0012207,12.5513763-0.0011749,25.1027374-0.000061,37.6540985c0.0001068,1.2235718,0.0044861,1.2277527,1.2322998,1.2278748
		c12.5513916,0.0010681,25.1027527,0.0010376,37.6541443,0.0001221c1.2498932-0.0000916,1.2552185-0.0036621,1.2553558-1.2054443
		c0.0013275-12.5513916,0.0012207-25.1027832,0.0001831-37.6541443c-0.0000916-1.2221527-0.0042572-1.2260895-1.2324524-1.2263641
		C166.8015137,234.243103,160.5658112,234.2438965,154.3300781,234.2438965z M113.8333969,73.2263184
		c6.3179169,0,12.6358414,0.0011139,18.9537735-0.0009918c1.1637573-0.0003967,1.1703186-0.006424,1.1704712-1.1736679
		c0.0016174-12.5158882,0.0016022-25.0317726,0.0000458-37.5476608c-0.0001678-1.2290802-0.0063934-1.2348137-1.2468719-1.2349548
		c-12.5558624-0.0014496-25.1117325-0.0014801-37.6675949,0.0000458c-1.2219925,0.0001488-1.2273331,0.0062141-1.227478,1.2502785
		c-0.0013504,12.5158844-0.0014572,25.0317726,0.0002213,37.547657c0.0001526,1.1523819,0.0069885,1.1579819,1.1836166,1.1583557
		C101.2775192,73.2273636,107.5554504,73.2263107,113.8333969,73.2263184z M113.7972412,153.6475677
		c6.2375793,0,12.4751511,0.0025482,18.7127228-0.001709c1.6404877-0.0011139,1.4453278,0.1440277,1.4463348-1.5011749
		c0.0050812-8.3567505,0.0023193-16.7134857,0.0023193-25.0702286c0-4.1183929,0.0036469-8.2368011-0.002655-12.3551941
		c-0.0015259-0.9987793-0.0165558-0.9995804-0.9709778-1.021843c-0.1998291-0.0046539-0.399826-0.0007553-0.599762-0.0007553
		c-12.3551788-0.0000076-24.7103806,0-37.065567,0.0000381c-0.2399063,0-0.4810944,0.0165176-0.7194519-0.0025864
		c-0.5364761-0.0429764-0.8546524,0.1232834-0.7879639,0.7307816c0.0216751,0.1975098,0.0027161,0.3994675,0.0027161,0.5993881
		c-0.0000381,12.4351578-0.0000305,24.8703079,0.0000153,37.3054733c0,0.1999207,0.0133972,0.4008179-0.0016937,0.5995636
		c-0.0371628,0.4895477,0.1300507,0.7670746,0.6717834,0.7205963c0.238121-0.0204315,0.4795151-0.0023956,0.7194214-0.0023956
		C101.4020691,153.647583,107.5996552,153.6475677,113.7972412,153.6475677z"></path>
</g>
<g onclick="select(this)" class="" id="gola-primaria" fill="#082890">
	<path d="M77.9566269,7.9643593c0.5433121-0.0630779,0.9717407-0.3532591,1.350502-0.7165484
		c0.9514694-0.9126143,2.0431442-1.7269812,2.8063507-2.778368c1.8071671-2.4894934,4.3550568-3.3576338,7.2143021-3.7527018
		C89.9563141,0.6298947,90.6858826,0.8174522,91.2000046,0.24c1.1999969,0,2.4000015,0,3.5999985,0
		c0.1686554,0.4914433,0.5990219,0.3124902,0.913765,0.3136448c5.5784302,0.0204637,11.156929,0.0201891,16.7353897,0.0350896
		c0.4080505,0.0010899,0.7728119-0.0504993,1.0708466-0.3487343c7.5200043,0,15.0400085,0,22.5599976,0
		c0.0817719,0.475216,0.489212,0.3141541,0.760376,0.3591558c0.9005127,0.1494493,1.8086853,0.251949,2.7122498,0.3838596
		c2.1177368,0.3091633,3.8966217,1.1323714,5.2497864,2.9209824c1.2646942,1.6716552,2.696106,3.2340288,4.5595093,4.3031478
		c1.3345947,0.5578804,1.9425354,1.5266333,1.8510895,3.0015402c-0.2146454,3.4615307-1.8750305,6.2802496-3.7983398,9.025279
		c-0.657135,0.9378853-1.1162872,0.7764244-1.8544006,0.1728249c-1.4842682-1.2137508-2.984375-2.4184208-4.5635376-3.5020809
		c-0.9918976-0.6806717-1.0931549-1.1222725-0.2361145-2.0526142c1.5060425-1.6348286,2.6971741-3.510664,3.5267029-5.7606192
		c-3.8045959,0.2949562-7.4219208,0.6110954-11.0444489,0.8482122c-6.0543365,0.3962965-12.1088486,0.811388-18.1692657,1.0873117
		c-4.8736572,0.2218914-9.7277451-0.3653784-14.5817413-0.7113132C95.1534195,9.9352255,89.8248367,9.4127893,84.4946442,8.922883
		c-1.3387833-0.1230497-1.4493866-0.0357189-0.9412537,1.1946383c0.8055038,1.9504185,2.0682983,3.5924397,3.4846725,5.1298161
		c0.4235992,0.4597979,0.8041306,0.8782597,0.0605392,1.4501514c-1.7737122,1.3641453-3.5175934,2.7680473-5.2473907,4.1877403
		c-0.5393295,0.4426384-0.8568649,0.3148384-1.2625885-0.1770668c-1.9891205-2.4115868-3.5237122-5.0736027-4.1546249-8.1455193
		C76.0773849,10.8262997,75.9796066,9.0069094,77.9566269,7.9643593z"></path>
</g>
<g onclick="select(this)" class="" id="detalhe-punho" fill="#801815">
	<path d="M0.24,114.7200012c0.5644144-1.1200256,0.4030076-2.3887405,0.7285303-3.5580292
		c0.1369813-0.4920425,0.1239579-1.0281448,0.434833-1.4688873c0.5507314,0.3938141,1.1057652,0.7582321,1.7463299,1.0219345
		c3.2226641,1.3266678,6.5714111,2.1998749,9.9895649,2.8108902c4.2897234,0.7668076,8.6343718,0.8833923,12.9771452,0.9888382
		c2.5099545,0.0609512,5.0414619,0.3392792,7.5244999,0.1064301c2.71492-0.2545853,5.5079117-0.339119,8.0832443-1.458252
		c0.5714417-0.2483215,0.71632-0.0910034,0.8195343,0.5151901c0.3810501,2.23806,0.4809532,4.4963531,0.6140976,6.7538605
		c-0.5687408,0.5572357-1.3228264,0.7422333-2.046627,0.9218826c-2.2505684,0.5586166-4.5424194,0.9628906-6.8576736,1.0065155
		c-7.585247,0.1429214-15.1709824,0.225235-22.6801262-1.1807327c-3.0540991-0.5718384-6.0998974-1.1686096-9.0522776-2.1537399
		c-0.7788508-0.2598801-1.5216964-0.6276627-2.2810755-0.9459C0.24,116.9600067,0.24,115.840004,0.24,114.7200012z"></path>
	<path d="M184.6355591,120.1655731c-0.0546417-1.9532166-0.1169281-3.9007568,0.2612-5.8419342
		c0.1929779-0.9907074,0.4206543-1.3660355,1.6246643-1.1130066c4.171936,0.876709,8.425827,0.5644531,12.6547546,0.5902405
		c3.1204376,0.0190277,6.222168-0.2089844,9.2889404-0.7493134c3.0609741-0.5393143,6.1479645-0.918396,9.1846924-1.6170425
		c3.4717865-0.7987289,6.83284-1.9101334,10.1315613-3.2337265c1.0003052,2.4319,1.2690125,4.9805756,1.1668091,7.5787506
		c-0.0299225,0.7608948-0.7602081,0.8617783-1.2806091,1.065834c-2.5613708,1.0042648-5.226532,1.6836243-7.8749542,2.4055634
		c-9.0441284,2.4652786-18.2762604,3.0461731-27.5913696,2.5964508c-2.0578613-0.0993423-4.1311188-0.3100586-6.1351166-0.890358
		C185.5271606,120.8009644,184.999115,120.6344452,184.6355591,120.1655731z"></path>
</g>
</svg>
