<!--?xml version="1.0" encoding="utf-8"?-->
<!-- Generator: Adobe Illustrator 24.2.3, SVG Export Plug-In . SVG Version: 6.00 Build 0)  -->
<svg version="1.1" id="Camada_1" xmlns="http://www.w3.org/2000/svg" xmlns:xlink="http://www.w3.org/1999/xlink" x="0px" y="0px" viewBox="0 0 234 419" enable-background="new 0 0 234 419" xml:space="preserve">
<g onclick="select(this)" class="" id="c-estampa-primaria" fill="#082890">
	<path d="M46.7812424,118.801651c-0.0767593-1.3550415-0.1535225-2.7100906-0.2302551-4.065239
		c0.4013672-3.5744247-0.8350601-6.9751587-1.197998-10.4692993c-0.2240105-2.1566772,0.1601028-4.4605942-0.9499817-6.5027618
		c0.2355576-4.1750107-0.9775124-8.179451-1.426548-12.2726135c-0.4060669-3.7014923-1.5520096-7.0640182-3.7860184-10.060585
		c-0.5201302-0.6976852-0.8810234-1.516983-1.2921524-2.2925415c-1.677639-3.1646805-2.3670807-6.6731339-3.4572754-10.0403824
		c-2.0804443-6.425808-3.4284821-12.9882317-3.4827595-19.7759361c-0.0089321-1.1172714,0.2226963-2.2094421,0.2825794-3.323185
		c0.1069202-1.9885635-0.031992-3.9983482,0.41399-5.9693832c0.1208649-0.5341721,0.1112595-1.1201401-0.2297115-1.6233521
		c4.2176952-1.9782009,8.3974285-4.0383091,12.7343388-5.7551689c7.1586761-2.8339195,14.2072411-5.9264126,21.2225914-9.0958195
		c3.9044266-1.7639484,7.5148468-4.0420628,11.1217957-6.3282051c0.4499207-0.285161,0.7661057-0.6875992,1.1115265-1.0751286
		c1.1253662-1.2625484,2.460701-2.1400995,4.2184219-2.1968918c2.0342941,0.2981586,4.0931244,0.332696,6.1293793,0.6633081
		c8.3689957,1.3588123,16.8237305,1.8147812,25.2742157,2.3104897c5.0438004,0.2958727,10.0588913-0.1554689,15.0837708-0.4571857
		c4.4263611-0.2657785,8.8530426-0.5102081,13.2524109-1.0787601c3.1972351-0.4131947,6.3849487-0.8995619,9.5781403-1.3446274
		c0.7452545-0.1038756,1.4954529-0.1725669,2.2436371-0.2575908c2.121933,0.0199952,3.6186676,1.1140513,4.9762115,2.6535583
		c1.0045471,1.1392441,2.449173,1.775898,3.7708893,2.5178118c9.4977875,5.3313141,19.4880676,9.6015377,29.5888672,13.6187572
		c3.9791565,1.5825596,7.694046,3.71805,11.6465302,5.3458309c0.175293,0.0721912,0.3132019,0.2351036,0.4684601,0.3557205
		c-0.4079285,0.5212479-0.4852905,1.2034378-0.2796631,1.7151718c0.4703064,1.1705475,0.0795288,2.3345184,0.1885529,3.492691
		c0.2788696,2.9625435,0.4180298,5.9366302,0.21492,8.9047165c-0.1652222,2.4147797-0.3381958,4.8516769-0.8126831,7.2176094
		c-0.8205414,4.091507-1.927063,8.1246033-3.2659149,12.0813484c-0.7891998,2.3323593-1.2008057,4.7971497-2.3715668,6.9949417
		c-0.8932037,1.6767578-1.6652374,3.4834824-3.0967407,4.7557755c-0.9084167,0.8073883-1.5977325,1.6723328-1.9496765,2.7775726
		c-1.364624,4.2856903-1.6241455,8.7427216-1.8916321,13.1865921c-0.1507416,2.5039444-0.2486572,4.9903641-0.9338226,7.4368515
		c-0.6354523,2.2689285-0.8999939,4.6388016-0.7013855,6.9787903c0.1374512,1.619606-0.1228943,3.1615524-0.2654114,4.7354507
		c-0.199707,2.6281662-0.6735229,5.2377548-0.5346069,7.8888626c-0.4046021,0.2297211-0.2497864,0.6383972-0.2887878,0.9698486
		c-1.2409821,10.5508347-1.5160522,21.1339188-0.9441376,31.7361374c0.2012024,3.7296448-0.1597748,7.4324341-0.3361053,11.1412354
		c-0.262619,5.5241699,0.213913,11.0307312,0.1908417,16.5469666c-0.0117188,2.8013611-0.1040344,5.5931549-0.4458923,8.3774872
		c-0.229599,1.8701782-0.2544708,3.7494659,0.0692902,5.618988c0.0408783,0.2360382,0.1015015,0.4797211,0.0812073,0.7136383
		c-0.2680206,3.0862274,0.4954071,5.9898071,1.3647308,8.9197235c1.7740479,5.9790039,1.9671478,12.1114349,1.4671631,18.2951355
		c-0.304718,3.7687531-0.8326721,7.5328827-0.0215759,11.3268585c0.2705383,1.2654877,0.1589813,2.6315765,0.0978851,3.9459076
		c-0.3535004,7.6035309,0.7575989,15.1347504,1.1002197,22.7034912c0.2419739,5.3453979,0.699646,10.6801758,0.9318695,16.0290222
		c0.0671234,1.5462036,0.2884521,3.096344,0.2848511,4.6539917c-0.0040741,1.7576904-0.2527008,2.1624756-1.9380493,2.6928101
		c-4.9689331,1.5635681-10.0740662,2.5220642-15.2290955,3.1793518c-11.8852539,1.5155029-23.8502808,1.6738586-35.8022308,1.801239
		c-20.6729507,0.2202759-41.3482971,0.5737-62.0217361,0.2687988c-10.004837-0.1476135-19.9621696-1.0458984-29.6603622-3.7771912
		c-3.6833267-1.037323-3.8044777-1.0596008-3.5799179-4.8108521c0.4223289-7.0551758,0.9893608-14.1017761,1.5130119-21.1507263
		c0.2370186-3.1905823-0.110363-6.4012756,0.3509216-9.5829163c0.0802193-0.55336,0.0910225-1.1242676,0.2354774-1.6596527
		c0.8587952-3.1829681,0.0915489-6.3565979-0.0495949-9.5281372c-0.2078438-4.6702271,0.2217903-9.2737427,1.4198914-13.7774353
		c0.4246025-1.5960999,0.4807281-3.1339264,0.2883301-4.7227325c-1.0463257-8.6404877-0.9161263-17.2292023,1.0487061-25.7495117
		c0.3325615-1.4421234,0.4711723-2.9310913,0.3530312-4.4104767c-0.3794022-4.7510529,0.0122833-9.5081787-0.1689415-14.2619019
		c-0.2146835-5.6312866-0.0821152-11.2704773-0.4309502-16.9023743c-0.2619247-4.228714,0.4452324-8.447998,0.241684-12.6940918
		C47.8281784,137.1582184,47.4722786,127.9711685,46.7812424,118.801651z"></path>
	<path d="M188.6812744,112.5599823c0.1425171-1.5738983,0.4028625-3.1158447,0.2654114-4.7354507
		c-0.1986084-2.3399887,0.0659332-4.7098618,0.7013855-6.9787903c0.6851654-2.4464874,0.7830811-4.9329071,0.9338226-7.4368515
		c0.2674866-4.4438705,0.5270081-8.9009018,1.8916321-13.1865921c0.351944-1.1052399,1.0412598-1.9701843,1.9496765-2.7775726
		c1.4315033-1.2722931,2.203537-3.0790176,3.0967407-4.7557755c1.1707611-2.1977921,1.5823669-4.6625824,2.3715668-6.9949417
		c1.3388519-3.9567451,2.4453735-7.9898415,3.2659149-12.0813484c0.4744873-2.3659325,0.6474609-4.8028297,0.8126831-7.2176094
		c0.2031097-2.9680862,0.0639496-5.942173-0.21492-8.9047165c-0.109024-1.1581726,0.2817535-2.3221436-0.1885529-3.492691
		c-0.2056274-0.511734-0.1282654-1.193924,0.2796631-1.7151718c0.2102203,0.1116676,0.4566498,0.1841888,0.6252136,0.3406334
		c3.9205627,3.6386032,8.1220245,7.0112839,11.1985168,11.465538c3.6876678,5.3391647,6.2693787,11.1972656,8.0645142,17.4220467
		c1.855957,6.4356842,2.5604248,13.0691071,3.6264191,19.6522064c1.570282,9.6975555,2.6261597,19.4785385,4.6393738,29.104805
		c0.1053619,0.5038223,0.102417,1.0303116,0.1499481,1.5463715c-2.6681061,0.6655502-5.3206482,1.4046097-8.0636749,1.7179031
		c-3.2069092,0.3662796-6.4146271,0.7254715-9.6210022,1.0962982c-3.0062256,0.3476791-6.0040588,0.9012604-9.0184021,1.0103607
		c-3.6274109,0.1313019-7.2682648-0.1153641-10.9035339-0.1868286c-0.4984894-0.0097961-0.9168243-0.2772141-1.3724365-0.3677292
		C191.3878479,114.7298126,190.5228119,112.7779846,188.6812744,112.5599823z"></path>
	<path d="M31.4251118,32.4063721c0.340971,0.503212,0.3505764,1.08918,0.2297115,1.6233521
		c-0.445982,1.971035-0.3070698,3.9808197-0.41399,5.9693832c-0.0598831,1.1137428-0.2915115,2.2059135-0.2825794,3.323185
		c0.0542774,6.7877045,1.4023151,13.3501282,3.4827595,19.7759361c1.0901947,3.3672485,1.7796364,6.8757019,3.4572754,10.0403824
		c0.411129,0.7755585,0.7720222,1.5948563,1.2921524,2.2925415c2.2340088,2.9965668,3.3799515,6.3590927,3.7860184,10.060585
		c0.4490356,4.0931625,1.6621056,8.0976028,1.426548,12.2726135c1.1100845,2.0421677,0.7259712,4.3460846,0.9499817,6.5027618
		c0.3629379,3.4941406,1.5993652,6.8948746,1.197998,10.4692993c-0.7430496-0.1559753-0.4466248-0.7550583-0.4480972-1.1689682
		c-0.0030136-0.8474426-0.3366966-1.1772919-1.084877-0.7159271c-2.1458626,1.3232574-4.5059891,1.392868-6.9265518,1.4081802
		c-5.9911842,0.0379257-11.914423-0.3703842-17.8513241-1.3506393c-5.7302513-0.9461212-11.4566507-1.9013596-17.1664352-2.9633942
		c-0.4844108-0.0901108-0.9187891-0.242218-1.3282617-0.4972076c1.2825927-8.0049973,2.2239013-16.0782471,4.4298015-23.9057312
		c1.4928513-5.2972641,1.9323239-10.7706375,2.9552264-16.1442108c1.5344801-8.0610313,3.9434853-15.8129349,8.3927488-22.8015022
		c2.7514877-4.3218231,6.1713905-8.0597153,10.2077255-11.2039833
		C28.9818478,34.4185829,29.9585438,33.1073418,31.4251118,32.4063721z"></path>
</g>
<g onclick="select(this)" class="" id="c-estampa-secundaria" fill="#801815">
	<path d="M45.6066628,234.0228271c3.1188774-0.0077057,6.2377586-0.0128784,9.3566208-0.0242615
		c1.3191109-0.0048218,1.2442169,0.151474,1.2448883-1.2043152c0.0024567-4.9586945-0.0010033-9.9173889,0.005497-14.8760834
		c0.0004578-0.3499908-0.0879707-0.7153931,0.113987-1.08255c2.2995338,0.6237488,4.5958061,1.2695313,6.9042664,1.8683167
		c5.9854012,1.5525818,12.0361443,2.7672882,18.1700172,3.5830078c4.6797409,0.6223602,9.3678513,1.0030518,14.0908356,0.9268951
		c1.3156052-0.021225,1.193924-0.1372833,1.1955185,1.2393494c0.0032959,2.8392639-0.0024261,5.6785126,0.0031281,8.5177765
		c0.001976,1.0101929,0.0119781,1.026062,0.936409,1.0263214c12.7566528,0.00354,25.513298,0.0035706,38.2699509,0.0000153
		c0.9357758-0.0002594,0.9468689-0.0161591,0.9490356-1.0176849c0.0061646-2.8392334,0.000885-5.6785126,0.0030975-8.5177612
		c0.0010681-1.3748932-0.107132-1.2170105,1.1890869-1.2815857c6.1409302-0.3059082,12.2671051-0.7538605,18.3618622-1.6211853
		c6.487381-0.9232025,12.8773346-2.2360535,19.0921631-4.3376312c1.8057861-0.6106262,1.8025513-0.6202087,1.8025513,1.2442932
		c0.0000153,4.678772-0.0075226,9.3575592,0.0039368,14.0363007c0.0042877,1.75-0.2122498,1.4841614,1.5534821,1.4939117
		c3.4788666,0.0191803,6.9578552,0.0161896,10.4367828,0.0223846c0.2201233,1.5860596,0.2317047,3.1733398,0.109024,4.7706604
		c-0.1858978,2.420578-0.3598633,4.833252,0.1724091,7.2536926c0.5345917,2.4309998,0.3243256,4.9311066,0.4428864,7.3996277
		c0.2107086,4.3867188,0.6785126,8.7544861,0.904068,13.1389465c0.1311035,2.5478821,0.3747711,5.0906372,0.3659973,7.6452332
		c-0.4388123,0.0143738-0.877594,0.0409241-1.3164215,0.0412598c-3.8766327,0.0032654-7.7532654-0.0013123-11.6299133,0.0039063
		c-1.0285492,0.0013733-1.0383148,0.0132141-1.0405579,1.0609436c-0.008255,3.8365784-0.0093842,7.6731873-0.0131989,11.5097961
		c-2.1843567,0.4851379-4.41008,0.6880188-6.6291962,0.8944092c-9.0241547,0.8392029-18.0750885,1.1460571-27.1335602,1.2745667
		c-0.1591797,0.0022888-0.3185883-0.0124817-0.47789-0.0193481c-1.7186432,0.0045471-3.4372864,0.0132446-5.1559296,0.0120239
		c-1.0249939-0.0007324-1.0349426-0.0077209-1.036377-1.063324c-0.0048065-3.5179749-0.0018005-7.0359497-0.0018616-10.5539246
		c0-0.79953-0.0166626-1.5995483,0.0057983-2.3984375c0.0136871-0.4877319-0.1268005-0.7696838-0.669632-0.7207031
		c-0.1982269,0.0179138-0.3995056,0.0020142-0.5993805,0.0020142c-12.552803-0.0000305-25.1056137-0.0005493-37.6584167,0.0007324
		c-1.3211136,0.0001221-1.2370224-0.1146851-1.2379608,1.2181702c-0.0032654,4.6372986-0.0047836,9.2746582-0.006958,13.9119568
		c-7.1068497,0.0729675-14.2155991,0.1374207-21.3199539-0.026886c-5.9449921-0.1374512-11.8791695-0.5689087-17.7656593-1.4795227
		c-0.4646072-0.0718994-0.9617653-0.0573425-1.3845596-0.3267822c-0.0010681-4.0282288-0.0009613-8.0564575-0.0039063-12.0846863
		c-0.000885-1.2083435-0.004776-1.2079468-1.2424812-1.2130432c-3.6683922-0.0151672-7.3367767-0.0306702-11.0051689-0.0460205
		c0.257618-3.7414246,0.5055199-7.4835205,0.7762642-11.223999c0.1816101-2.5090637,0.3925514-5.0171204,0.3456688-7.5350037
		c-0.0536919-2.8834534,0.1143379-5.7500916,0.7365379-8.5675201c0.39925-1.8078613-0.0284271-3.5686951-0.1233711-5.3474884
		C45.5621643,239.0406799,45.2433128,236.5367889,45.6066628,234.0228271z M76.4393768,234.0046082
		c-6.2759399,0-12.5518837-0.0005798-18.8278236,0.0005035c-1.2483864,0.0002136-1.2528648,0.0031891-1.2529678,1.1986389
		c-0.0011101,12.5518494-0.0009499,25.103714-0.0003242,37.6555634c0.0000687,1.3541565-0.0872116,1.2318726,1.2205048,1.2320251
		c12.591835,0.0016479,25.18367,0.0014038,37.7755127,0.0002747c1.1913071-0.0001221,1.1978378-0.0048218,1.1979752-1.1395569
		c0.0015717-12.5918274,0.0014648-25.1836548,0.0001297-37.7754974c-0.0001221-1.1645355-0.0054779-1.1705627-1.1652832-1.1709442
		C89.0711899,234.0035095,82.7552872,234.0046082,76.4393768,234.0046082z M157.0804443,274.0923462
		c6.2783661,0,12.5567322,0.0006104,18.8350983-0.0005493c1.2372742-0.0002441,1.2417297-0.0034485,1.2418365-1.211792
		c0.0011139-12.5567322,0.0010834-25.1134491,0.000061-37.6701965c-0.0000916-1.2014618-0.0042877-1.2046356-1.2466278-1.2046967
		c-12.5567474-0.0008087-25.1134796-0.0013428-37.6702271,0.0007629c-1.3001099,0.0002136-1.2427368-0.1523285-1.2427368,1.2095337
		c0.0000916,12.5567474-0.0003662,25.1134796,0.0007172,37.6702423c0.0001068,1.2028198,0.0044708,1.2059631,1.2467651,1.2062073
		C144.5236969,274.0929871,150.8020782,274.0923462,157.0804443,274.0923462z"></path>
</g>
<g onclick="select(this)" class="" id="c-gola-primaria" fill="#082890">
	<path d="M81.8337631,7.9551482c1.7809372-1.4190092,3.4730377-2.9295225,4.8501663-4.7590275
		c1.5450439-2.0525742,3.8180466-2.4387608,6.1472397-2.7100065C93.2521667,0.437086,93.72155,0.6118734,94.0800018,0.24
		c16,0,32,0,48,0c0.8258362,0.4266242,1.7599182,0.3826382,2.635376,0.5993913
		c1.7582092,0.4353179,3.2734985,1.2413597,4.3717957,2.7102425c1.1104889,1.4851677,2.5509338,2.6122496,3.9674988,3.7706835
		c0.1449127,0.1185122,0.2287445,0.3117666,0.3406677,0.4704785c-0.7481842,0.0850201-1.4983826,0.1537113-2.2436371,0.257587
		c-3.1931915,0.4450655-6.3809052,0.9314327-9.5781403,1.3446274c-4.3993683,0.568552-8.8260498,0.8129816-13.2524109,1.0787601
		c-5.0248795,0.3017168-10.0399704,0.7530584-15.0837708,0.4571857c-8.4504852-0.4957085-16.90522-0.9516773-25.2742157-2.3104897
		C85.9269104,8.2878542,83.8680801,8.2533169,81.8337631,7.9551482z"></path>
</g>
<g onclick="select(this)" class="" id="c-detalhe-punho" fill="#801815">
	<path d="M0.24,115.9200058c0.5789765-1.8824921,0.7624918-3.8468094,1.1905526-5.7606049
		c0.0581824-0.2601089-0.0143441-0.5728455,0.314887-0.7109451c0.4094726,0.2549896,0.843851,0.4070969,1.3282617,0.4972076
		c5.709785,1.0620346,11.4361839,2.0172729,17.1664352,2.9633942c5.9369011,0.9802551,11.8601398,1.3885651,17.8513241,1.3506393
		c2.4205627-0.0153122,4.7806892-0.0849228,6.9265518-1.4081802c0.7481804-0.4613647,1.0818634-0.1315155,1.084877,0.7159271
		c0.0014725,0.4139099-0.2949524,1.0129929,0.4480705,1.1690674c0.0767593,1.3550491,0.1535225,2.7100983,0.230278,4.0651321
		c-0.0557747,0.0530472-0.1500893,0.0987396-0.1617813,0.1601715c-0.4963951,2.6075745-0.5020065,2.5301285-3.1701164,2.7541428
		c-3.0185738,0.2534409-6.0040245,0.7482605-9.0601616,0.7218399c-6.1752777-0.0533829-12.258791-0.9222183-18.3460712-1.7839737
		c-4.7689228-0.6751099-9.5072765-1.5391846-14.2103863-2.5847778c-0.5390261-0.1198196-1.0621994-0.3109665-1.5927218-0.4690399
		C0.24,117.0400009,0.24,116.4800034,0.24,115.9200058z"></path>
	<path d="M188.6812744,112.5599823c1.8415375,0.2180023,2.7065735,2.1698303,4.4899597,2.5240936
		c0.4556122,0.0905151,0.8739471,0.357933,1.3724365,0.3677292c3.6352692,0.0714645,7.276123,0.3181305,10.9035339,0.1868286
		c3.0143433-0.1091003,6.0121765-0.6626816,9.0184021-1.0103607c3.2063751-0.3708267,6.414093-0.7300186,9.6210022-1.0962982
		c2.7430267-0.3132935,5.3955688-1.0523529,8.0636902-1.7179031c0.8446655,0.5238724,0.7039185,1.461937,0.7878876,2.2139969
		c0.1720123,1.5407028,0.3506775,3.0860138,0.3776855,4.6480637c0.0172272,0.9962463-0.3174744,1.3810425-1.249588,1.6120834
		c-3.1387787,0.7779388-6.317688,1.3454895-9.5081482,1.8256073c-7.8910522,1.1875-15.8142548,1.9860916-23.8146057,1.7421799
		c-2.7035675-0.0824127-5.3105316-0.4700699-7.667511-1.9013672c-0.3552856-0.2157516-0.7400513-0.2788696-1.1385956-0.321022
		c-0.8007813-0.0846863-1.4325409-0.4291534-1.790802-1.1847534
		C188.0077515,117.7977371,188.4815674,115.1881485,188.6812744,112.5599823z"></path>
</g>
</svg>
