<!--?xml version="1.0" encoding="utf-8"?-->
<!-- Generator: Adobe Illustrator 24.2.3, SVG Export Plug-In . SVG Version: 6.00 Build 0)  -->
<svg version="1.1" id="Camada_1" xmlns="http://www.w3.org/2000/svg" xmlns:xlink="http://www.w3.org/1999/xlink" x="0px" y="0px" viewBox="0 0 229 418" style="enable-background:new 0 0 229 418;" xml:space="preserve">
<style type="text/css">
	.st0{fill:#FD0303;}
	.st1{fill:#0101FC;}
	.st2{fill:#8B1016;}
	.st3{fill:#1C287A;}
</style>
<g onclick="select(this)" class="" id="gola-primaria" fill="#ffffff">
	<path d="M77.9,8c0.6-0.1,1-0.4,1.4-0.8c0.9-0.9,2-1.7,2.7-2.7c1.8-2.5,4.4-3.4,7.3-3.8c0.6-0.1,1.3,0.1,1.9-0.5
		c1.2,0,2.4,0,3.6,0c0.2,0.5,0.6,0.3,0.9,0.3c5.6,0,11.2,0,16.7,0c0.4,0,0.8-0.1,1.1-0.3c7.5,0,15,0,22.6,0c0.1,0.5,0.5,0.3,0.8,0.4
		c1,0.2,2,0.3,2.9,0.4c2,0.3,3.7,1.1,4.9,2.8c1.3,1.7,2.7,3.3,4.6,4.4c1.3,0.6,1.9,1.5,1.8,3c-0.2,3.7-2.1,6.7-4.3,9.6
		c-0.4,0.5-0.7,0.1-1-0.1c-1.8-1.4-3.5-2.8-5.3-4.1c-0.7-0.5-0.7-0.8-0.1-1.5c1.6-1.8,2.9-3.7,3.8-6.1c-2.6,0.2-5,0.4-7.4,0.6
		c-10.8,0.7-21.5,1.8-32.3,1c-6.7-0.5-13.4-1.1-20.1-1.7c-0.4,0-0.9-0.2-1.2,0c-0.3,0.4,0.1,0.8,0.2,1.2c0.8,2,2.1,3.6,3.5,5.1
		c0.4,0.4,0.8,0.8,0.1,1.3c-1.8,1.4-3.6,2.8-5.3,4.3c-0.5,0.4-0.8,0.3-1.2-0.1c-1.9-2.4-3.4-4.9-4.2-7.9C75.8,10.6,76.3,9.1,77.9,8z
		"></path>
</g>
<g onclick="select(this)" class="" id="detalhe-punho" fill="#bf0811">
	<path d="M227.8,108.4c0.6,0.8,0.4,1.7,0.7,2.6c0.1,0.4,0.1,0.9,0.4,1.3c0,1.3,0,2.6,0,3.8c-2.6,1.5-5.5,2-8.4,2.9
		c-9.3,2.7-18.8,3.3-28.3,2.8c-2.1-0.1-4.1-0.3-6.2-0.9c-0.5-0.2-1-0.4-1.5-0.7c-0.3-2.5,0.4-4.9,0.5-7.4c3.8,0.7,7.6,1,11.4,1
		c2.5,0,5,0.2,7.4-0.2c3.1-0.5,6.1-1,9.2-1.6C218.1,111.2,223,109.8,227.8,108.4z"></path>
	<path d="M0.2,114.7c0.5-1.2,0.4-2.5,0.7-3.7c0.1-0.4,0-0.9,0.4-1.2c0.3,0.1,0.6,0.3,0.9,0.4c6.3,2.3,12.8,3.4,19.4,4.1
		c3.4,0.3,6.9,0,10.3,0c1.8,0,3.5-0.1,5.3-0.3c1.4-0.2,3,0.1,4.3-0.8c0.4-0.3,0.6,0.1,0.8,0.4c0.4,0.8,0.2,1.7,0.6,2.4
		c0,1.5,0.6,3,0.3,4.5c-2.7,1.3-5.6,1.7-8.5,1.8c-9.4,0.4-18.7,0.1-27.8-2.1c-2.3-0.6-4.5-1.1-6.7-2.2
		C0.2,116.9,0.2,115.8,0.2,114.7z"></path>
</g>
<g onclick="select(this)" class="" id="estampa-primaria" fill="#ffffff">
	<path d="M42.9,115.9c-0.4-0.8-0.2-1.7-0.6-2.4c-0.2-0.3-0.4-0.7-0.8-0.4c-1.3,0.9-2.9,0.6-4.3,0.8c-1.7,0.2-3.5,0.3-5.3,0.3
		c-3.4,0.1-6.9,0.4-10.3,0c-6.6-0.7-13.1-1.7-19.4-4.1c-0.3-0.1-0.6-0.3-0.9-0.4c1.8-9.5,2.7-19.1,4.3-28.7
		C6.5,76,6.8,70.8,7.9,65.7c1.7-8.1,4.5-15.7,9.4-22.5c2.1-2.9,4.6-5.5,7.4-7.8c1.3-1.1,2.3-2.5,3.8-3.3c3.6-1.9,7.3-3.7,11-5.3
		c10-4.1,20.1-8.2,29.6-13.5c1.9-1.1,3.9-2.1,5.4-3.8c0.8-1,2-1.6,3.4-1.6c-1.7,1.2-2.1,2.6-1.5,4.9c0.8,2.9,2.3,5.5,4.2,7.9
		c0.4,0.5,0.7,0.6,1.2,0.1c1.8-1.4,3.5-2.9,5.3-4.3c0.7-0.6,0.3-0.9-0.1-1.3c-1.4-1.5-2.7-3.2-3.5-5.1C83.4,9.8,83,9.3,83.4,9
		c0.3-0.3,0.8-0.1,1.2,0c6.7,0.6,13.4,1.2,20.1,1.7c10.8,0.8,21.6-0.2,32.3-1c2.4-0.2,4.8-0.4,7.4-0.6c-0.9,2.4-2.2,4.3-3.8,6.1
		c-0.5,0.6-0.6,0.9,0.1,1.5c1.8,1.3,3.6,2.7,5.3,4.1c0.3,0.2,0.6,0.6,1,0.1c2.2-2.8,4-5.8,4.3-9.6c0.1-1.5-0.5-2.4-1.8-3
		c1.8-0.1,3,1,4,2.2c0.3,0.4,0.7,0.7,1.1,1c10,6.5,21.2,10.6,32.2,15.2c4,1.7,7.8,3.6,11.7,5.3c1.6,0.7,2.7,2.3,4.2,3.3
		c3.1,2.3,5.8,5.1,8.2,8.2c4.8,6.4,7.6,13.7,9.3,21.5c0.6,2.9,1.2,5.8,1.5,8.7c0.6,5.8,2.3,11.3,3.4,17c1.1,5.9,1.9,11.8,2.9,17.7
		c-4.9,1.4-9.7,2.8-14.7,3.7c-3.1,0.5-6.1,1-9.2,1.6c-2.4,0.4-4.9,0.2-7.4,0.2c-3.8,0-7.6-0.2-11.4-1c0.4-4.4,1.3-8.8,2.2-13.1
		c0.5-2.6,1.2-5.1,1.8-7.7c-0.4,0.4-0.6,0.8-0.8,1.2c-1.8,4.1-3,8.4-4.2,12.8c-2.4,8.9-3.8,18-4.8,27.2c-0.6,5.2-0.9,10.4-1.2,15.7
		c-0.3,4.9-0.5,9.9-0.5,14.8c0,16.9-0.3,33.9,0.2,50.8c0.2,7.3,0.3,14.6,0.5,21.9c0.2,4.9,0.3,9.7,0.5,14.6c0.2,6,0.5,12,0.7,17.9
		c0.2,5,0.4,10,0.8,15.1c-7.7,1.1-15.4,1.4-23.1,1.5c-12.9,0.2-25.9,0.6-38.8,0.9c-6.8,0.2-13.5-0.5-20.2-0.6
		c-8.7-0.1-17.4-0.2-26.1-0.4c-8.3-0.2-16.6-0.4-24.8-1.8c0.5-3.8,0.5-7.6,0.7-11.3c0.4-5.6,0.6-11.2,0.8-16.9
		c0.1-4.4,0.3-8.9,0.5-13.3c0.3-6.3,0.4-12.5,0.5-18.8c0.1-4,0.2-8,0.2-12c0.1-14.3,0.1-28.5,0.1-42.8c0-2.2,0-4.5-0.1-6.7
		c-0.3-6.3-0.3-12.7-0.9-19c-0.2-2.5-0.3-4.9-0.5-7.4c-0.6-4.9-1.1-9.9-2-14.7c-1.1-6-2.2-12-3.9-17.8c-0.7-2.2-1.2-4.4-2.2-6.6
		c-0.6,0.9,0.2,1.4,0.2,2.1c0.4,3.4,1.1,6.7,1.4,10.1C42.3,111,43.1,113.4,42.9,115.9z"></path>
</g>
<g onclick="select(this)" class="" id="detalhe-lateral" fill="#bf0811">
	<path d="M180.3,284c-0.4-5-0.6-10-0.8-15.1c-0.3-6-0.5-11.9-0.7-17.9c-0.2-4.9-0.3-9.7-0.5-14.6
		c-0.3-7.3-0.3-14.6-0.5-21.9c-0.4-16.9-0.2-33.9-0.2-50.8c0-4.9,0.2-9.9,0.5-14.8c0.3-5.2,0.7-10.5,1.2-15.7
		c1-9.2,2.5-18.3,4.8-27.2c1.1-4.3,2.4-8.6,4.2-12.8c0.2-0.4,0.4-0.8,0.8-1.2c-0.6,2.6-1.3,5.1-1.8,7.7c-0.9,4.3-1.8,8.7-2.2,13.1
		c-0.1,2.5-0.7,4.9-0.5,7.4c-1.3,10.3-2.3,20.7-2,31.2c0.1,2.4,0.8,4.8,0.4,7.3c-0.3,2.3-0.4,4.7-0.4,7c0.1,6.6,0.1,13.2-0.1,19.7
		c-0.1,4.5,0.7,8.7,1.4,13c0.9,5.1,1,10.2,0.2,15.4c-0.3,2.3-0.5,4.7-0.8,7c0,0.4,0.1,0.8,0.2,1.2c2,5.7,2.5,11.6,1.6,17.6
		c-0.3,2.1-0.3,4.2,0.1,6.3c0.4,2,0.5,4,0.5,6c-0.1,7.4,0.7,14.7,1.4,22c0.2,2.3,0.3,4.6,0.3,6.9c0,1.1-0.5,1.8-1.5,2.2
		C184.2,283.5,182.3,284,180.3,284z"></path>
	<path d="M42.9,115.9c0.2-2.5-0.6-4.9-0.9-7.4c-0.4-3.4-1-6.7-1.4-10.1c-0.1-0.7-0.8-1.2-0.2-2.1
		c0.9,2.2,1.5,4.4,2.2,6.6c1.8,5.8,2.9,11.8,3.9,17.8c0.9,4.9,1.4,9.8,2,14.7c0.3,2.4,0.3,4.9,0.5,7.4c0.6,6.3,0.6,12.6,0.9,19
		c0.1,2.2,0.1,4.5,0.1,6.7c0,14.3,0,28.5-0.1,42.8c0,4-0.1,8-0.2,12c-0.1,6.3-0.3,12.5-0.5,18.8c-0.2,4.4-0.3,8.8-0.5,13.3
		c-0.2,5.6-0.4,11.2-0.8,16.9c-0.3,3.8-0.2,7.6-0.7,11.3c-1.7-0.1-3.4-0.5-5-1.1c-1.6-0.6-2-1.1-2-2.8c0-2.8,0.2-5.6,0.4-8.3
		c0.4-5.3,0.7-10.6,1.2-15.9c0.4-4.8-0.1-9.6,0.9-14.3c0.2-0.9,0.1-1.8,0-2.7c-0.5-3.1-0.3-6.2,0.3-9.3c0.2-0.9,0.1-1.7,0.1-2.6
		c-0.3-4.1-0.9-8.3-0.9-12.4c0-4.8,1.1-9.4,2.7-13.9c0.3-1,0.6-1.9,0.4-2.9c-0.2-1.5-0.1-3,0.1-4.5c0.1-0.6,0.2-1.3,0.2-1.9
		c-0.4-4.8-0.1-9.7-0.4-14.5c-0.1-1.1,0.1-2.2,0.2-3.3c0.1-1.9,0.1-3.7,0-5.6c-0.4-6.8-0.1-13.6,0-20.4c0.1-7.3-0.6-14.6-1.6-21.9
		c-0.2-1.5-0.4-3.1-0.6-4.6C43.5,118.9,43,117.4,42.9,115.9z"></path>
</g>
<path d="M54.5,284.7c0.1-0.1,0.2-0.1,0.3,0C54.8,284.8,54.7,284.8,54.5,284.7z"></path>
<path d="M56.5,284.9c0.1-0.2,0.3-0.2,0.4,0C56.7,284.9,56.6,284.9,56.5,284.9z"></path>
<path d="M194.9,60.9c0,0,0-0.1,0-0.1L194.9,60.9L194.9,60.9z"></path>
<path d="M50.1,166.6c0,0.6,0,1.2,0,1.8l0,0C50,167.8,50,167.3,50.1,166.6C50,166.7,50.1,166.6,50.1,166.6z"></path>
<g onclick="select(this)" class="" id="estampa-secundaria" fill="#082890">
	<path d="M194.4,75c0-1.6,0-1.6-1.7-1.6c-5-0.1-10-0.2-15-0.5c-2.3-0.1-4.5,0-6.8-0.4c-0.2,0-0.3,0-0.5,0
		c-0.2,0-0.6,0.1-0.6-0.3c0-0.3,0.3-0.4,0.6-0.4c0.4,0,0.8-0.1,1.2-0.1c0.3,0,0.6,0,0.8,0c4.1-0.2,8.1-0.5,12.2-0.7
		c3-0.1,6-0.2,9-0.2c0.7,0,1.1-0.2,1.1-1c0-0.8-0.3-1.1-1-1c-1.1,0-2.2-0.2-3.3-0.1c-5.1,0.1-10.2-0.5-15.3-0.6
		c-0.4-0.2-0.9-0.2-1.4-0.2c-0.3,0-0.9,0.2-0.9-0.3c0-0.5,0.6-0.4,0.9-0.4c0.7-0.1,1.4,0.2,2.1-0.2c5.2-0.2,10.5-0.3,15.7-0.5
		c0.8,0,1.7-0.2,2.5-0.2c1.1,0,0.5-1,0.8-1.4C194.9,68.3,195,71.7,194.4,75z"></path>
	<path d="M191.1,86.9c-4.1,0-8.2,0.1-12.4-0.1c-4.1-0.2-8.3,0-12.4-0.6c-1.1-0.2-2.2,0.1-3.3,0.2
		c-0.6-0.4-0.6-0.8,0-1.2c4.5,0.3,9-0.2,13.5-0.3c5.2-0.1,10.4-0.3,15.6-0.4C192.1,85.4,191.8,86.3,191.1,86.9z"></path>
	<path d="M161.7,89.9c1.7,0.2,3.4-0.1,5.1-0.2c4.6-0.2,9.2-0.3,13.8-0.5c3.1-0.1,6.3-0.1,9.4-0.1c0,0.1,0,0.3,0,0.4
		c-0.2,0.1-0.3,0.3-0.2,0.5l0,0c-0.2,0.1-0.3,0.3-0.2,0.5c0,0.1,0,0.1,0,0.1c-0.2,0.3-0.4,0.5-0.5,0.8c-4.5,0-9,0-13.5-0.1
		c-4.9-0.1-9.8-0.4-14.7-0.7c-0.3-0.1-0.7,0.1-0.7-0.3c0-0.5,0.4-0.3,0.7-0.4C161.1,90,161.4,89.9,161.7,89.9z"></path>
	<path d="M192.8,82.6c-8.6-0.1-17.1-0.5-25.7-0.9c-0.7,0-1.4-0.1-2-0.1c-0.3,0-0.7,0-0.7-0.4c0-0.4,0.4-0.2,0.7-0.2
		c0.8,0,1.7-0.1,2.5-0.1c4.2-0.2,8.5-0.5,12.7-0.6c2.7-0.1,5.3-0.1,8-0.1c1.8,0,3.6,0,5.4-0.1C193.5,81,193.3,81.8,192.8,82.6z"></path>
	<path d="M170.1,76.3c4.1-0.2,8.1-0.5,12.1-0.6c2.8-0.1,5.6-0.1,8.4-0.1c1.2,0,2.5,0,3.7-0.1c0.1,0.9,0.1,1.7-0.4,2.5
		c-0.6,0-1.1,0-1.7-0.1c-5.6-0.2-11.3-0.3-16.9-0.5c-1.9-0.1-3.8-0.4-5.7-0.4c-0.8-0.2-1.6,0.2-2.4-0.3
		C168.2,76.1,169.2,76.4,170.1,76.3z"></path>
	<path d="M194.8,64.3c-2.5-0.3-5.1-0.3-7.6-0.3c-3.5,0-7-0.7-10.5-0.5c-0.2,0-0.4-0.2-0.7-0.2c-0.1-0.8,0.8-0.2,1-0.7
		c5.4-0.1,10.8-0.8,16.2-0.7c0.6,0,1.1-0.2,1.6-0.2C195.1,62.6,195.1,63.5,194.8,64.3z"></path>
	<path d="M181.1,58c3.3-0.3,6.6-0.2,10-0.6c1.3-0.2,2.6-0.1,3.9-0.1c0.2,0.8,0.1,1.7,0,2.5c-0.3-0.1-0.6-0.3-0.9-0.2
		c-4.9,0.2-9.7-0.5-14.6-0.5c-0.3-0.4-0.9,0-1.1-0.5C179.3,58.1,180.2,58.1,181.1,58z"></path>
	<path d="M195.1,55.2c-1.9-0.5-3.8-0.2-5.7-0.3c-1.9-0.3-3.8-0.5-5.7-0.5c-0.9,0-1.8-0.2-2.8-0.4c1-0.5,1.8-0.5,2.6-0.5
		c1.7-0.1,3.4-0.3,5.1-0.4c2.3-0.1,4.7-0.2,7-0.3C195.5,53.6,195.7,54.5,195.1,55.2z"></path>
	<path d="M195.6,50.6c-1.6-0.3-3.3-0.2-5-0.3c-2.1-0.6-4.4-0.2-6.9-0.8c0.9-0.4,1.6-0.5,2.2-0.5
		c2.1-0.2,4.1-0.3,6.2-0.5c1.3,0,2.5-0.1,3.8-0.1C195.9,49.2,195.9,49.9,195.6,50.6z"></path>
	<path d="M196.1,45.9c-1.7-0.1-3.5-0.2-5.2-0.3c-1.3-0.6-2.8,0.2-4.2-0.8c0.7-0.3,1.3-0.3,1.9-0.4
		c2-0.2,4.1-0.2,6.1-0.5c0.6,0,1.2,0,1.9,0C196.6,44.6,196.4,45.3,196.1,45.9z"></path>
	<path d="M195,56.8c-0.1-0.3-0.1-0.6,0-0.8C195.1,56.3,195.1,56.5,195,56.8z"></path>
	<path d="M55.5,40.8c-4,0.2-8,0.5-12,0.7c-2.5,0.1-4.9,0-7.4,0c-1.8,0-3.7,0-5.5,0c0-0.1-0.1-0.1-0.1-0.2
		c2.1-0.8,4.1-1.8,6.4-2.2c2.5,0,5,0,7.4,0.1c3.7,0.3,7.5,0.5,11.2,0.6c1.1,0.2,2.2-0.3,3.3,0.5C57.7,40.9,56.5,40.8,55.5,40.8z"></path>
	<path d="M51.2,45.4c-3.3,0.2-6.6,0.5-9.9,0.6c-2.3,0.1-4.6,0.1-7,0.1c-1,0-2,0-3,0c-0.4-0.8-0.5-1.6-0.4-2.5
		c3.1,0,6.2,0,9.2,0.1c4.2,0.2,8.4,0.4,12.6,0.7c1.1,0.1,2.2-0.1,3.3,0.5C54.4,45.6,52.8,45.3,51.2,45.4z"></path>
	<path d="M48.3,50c-5.5,0.3-11,0.7-16.5,0.7c-0.6-0.8,0-1.7-0.1-2.5c5.6-0.1,11.1,0.5,16.6,0.6c1,0.3,2,0.1,3.1,0.2
		c0.7,0,1.3,0.1,1.9,0.5C51.5,50.1,49.9,49.8,48.3,50z"></path>
	<path d="M45.4,54.5c-1.9,0.1-3.9,0.3-5.8,0.4c-2.4,0.1-4.8,0.2-7.2,0.3c-0.2-0.8-0.4-1.6-0.2-2.5
		c4.4,0.2,8.8,0.4,13.1,0.5c1.6,0.3,3.3,0,4.9,0.9C48.7,54.3,47,54.4,45.4,54.5z"></path>
	<path d="M32.6,57.3c3.5,0,7.1,0.6,10.6,0.5c0.8,0,1.6,0.3,2.4,0.2c0.7,0,1.5-0.1,2.1,0.6c-0.9,0.3-1.8,0-2.6,0.4
		c-4.2,0.2-8.3,0.4-12.5,0.6C32.5,58.8,32.2,58.1,32.6,57.3z"></path>
	<path d="M35.8,72.7c-1,0.1-1.9,0.2-2.9,0.2c-0.3-2.1-0.3-4.2,0-6.3c2.4,0.1,4.8,0.2,7.2,0.3c0.6,0.4,1.5,0,2.1,0.8
		c-1,0.2-2,0-2.8,0.3c-1.9,0.2-3.9,0.2-5.8,0.5c-1.2,0.1-0.5,1.2-0.7,1.8c-0.1,0.5,0.1,0.8,0.7,0.9c1.2,0.2,2.5,0.2,3.7,0.2
		c0.5,0.5,1.5-0.1,2,0.8C38,72.5,36.9,72.6,35.8,72.7z"></path>
	<path d="M42.5,63.6c-2.9-0.1-5.8,0.5-8.7,0.5c-0.5,0-0.7,0.2-0.7,0.7c0,0.5-0.1,0.9-0.1,1.4c0-1.4-0.1-2.8-0.3-4.3
		c3.7,0.4,7.3,0.5,11,0.7c0.4,0.1,0.8,0.1,1.3,0.6C44,63.3,43.3,63.5,42.5,63.6z"></path>
	<path d="M153.1,112.4c4.6-0.1,9.2-0.1,13.8-0.3c4.9-0.3,9.8-0.1,14.7-0.2c0.4,0,0.7,0,1.1,0.1c0,0.8-0.2,1.6-0.4,2.3
		c-4.6,0-9.2,0.2-13.8-0.1c-5.1-0.2-10.3,0-15.4-0.5l-0.1-0.1c-0.6,0-1.2,0-1.8-0.1c-1.6-0.1-3.3,0-4.9-0.7
		C148.5,112.7,150.8,112.6,153.1,112.4z"></path>
	<path d="M183.2,109.7c-4.4,0-8.8,0.2-13.2-0.1c-3.1-0.2-6.3-0.1-9.4-0.2c-2.8-0.1-5.6-0.5-8.5-0.4
		c-1.1-0.2-2.2,0.3-3.5-0.6c1.3-0.3,2.4-0.5,3.5-0.4c5.7-0.1,11.3-0.4,17-0.6c4.9-0.2,9.8-0.1,14.7-0.1
		C183.6,108.1,183.6,108.9,183.2,109.7z"></path>
	<path d="M184.4,105.1c-5.5,0.1-10.9,0.2-16.4-0.2c-2.9-0.2-5.7-0.2-8.6-0.3c-2.3,0-4.5-0.4-6.8-0.2
		c-0.6-0.1-1.1-0.2-1.7-0.3c0.6-0.5,1.4-0.3,2-0.6c3.9-0.1,7.8-0.1,11.7-0.3c3.5-0.2,7,0,10.5-0.3c3.3-0.2,6.6-0.1,9.9-0.1
		C185,103.6,184.7,104.3,184.4,105.1z"></path>
	<path d="M152.1,117.1c4.4-0.2,8.8-0.3,13.1-0.5c5.5-0.2,11.1-0.2,16.6-0.2c-0.2,0.8-0.1,1.6-0.5,2.3
		c-6.1,0.2-12.1-0.2-18.1-0.3c-3.8-0.1-7.5-0.4-11.3-0.4c-1.2-0.1-2.5-0.2-3.7-0.4c1-0.6,2.1-0.2,3-0.6c0.1,0,0.3,0,0.5,0
		C151.8,117.1,152,117.1,152.1,117.1z"></path>
	<path d="M185.7,100.6c-3.5,0-7,0-10.4-0.1c-5.2-0.1-10.4-0.3-15.6-0.5c-1.6-0.1-3.3-0.2-4.9-0.2
		c-0.3-0.4-0.9-0.1-1.4-0.4c0.7-0.1,1.2-0.3,1.8-0.4c4.6-0.2,9.2-0.4,13.9-0.6c0.6,0,1.3,0,1.9,0c5.1,0,10.3-0.4,15.5-0.2
		C186.2,99,186,99.8,185.7,100.6z"></path>
	<path d="M187.2,96c-3.7,0-7.4,0.2-11-0.1c-2.8-0.2-5.6-0.1-8.4-0.2c-3.5-0.2-7.1-0.5-10.6-0.5
		c-0.5-0.9,0.3-0.6,0.7-0.7c3.6,0.2,7.2-0.4,10.9-0.4c5.9-0.1,11.9-0.4,17.8-0.4c0.5,0,1-0.1,1.5,0.2
		C187.9,94.6,187.6,95.3,187.2,96z"></path>
	<path d="M180.6,123.3c-5.4,0.1-10.8-0.1-16.1-0.4c-0.6,0-1.2,0-1.8,0c-2.6,0.1-5.3-0.2-7.9-0.2
		c-1.1-0.1-2.3-0.2-3.4-0.3c0-0.1,0-0.2,0-0.3c0.8-0.1,1.7-0.2,2.5-0.3c6.3-0.2,12.6-0.5,19-0.6c2.3,0,4.7-0.1,7-0.1
		c0.4,0,0.8-0.1,1.1,0.2C180.9,121.9,181,122.7,180.6,123.3z"></path>
	<path d="M180,127.8c-4.4,0.1-8.8-0.2-13.1-0.4c-2-0.1-4.1-0.1-6.1-0.1c-1.3-0.3-2.7-0.1-4-0.2c-1,0-1.9-0.1-2.9-0.5
		c0.6-0.4,1.1-0.5,1.7-0.5c5.6-0.2,11.1-0.5,16.7-0.7c2.7-0.1,5.4,0,8,0C180.4,126.4,179.9,127.1,180,127.8z"></path>
	<path d="M179.5,132.4c-5.3-0.3-10.5-0.2-15.8-0.6c-0.6-0.1-1.2,0-1.8,0c-2,0-4-0.1-6.3-0.6c2-0.5,3.7-0.4,5.3-0.4
		c4.6-0.2,9.2-0.4,13.8-0.6c1.6-0.1,3.3,0,4.9,0C179.6,130.9,179.6,131.7,179.5,132.4z"></path>
	<path d="M163.4,135.2c5.3-0.1,10.5-0.6,15.8-0.5c-0.1,0.7-0.2,1.4-0.3,2.1c-4.7,0.1-9.5-0.3-14.2-0.4
		c-2.1-0.1-4.2,0.1-6.3-0.6C160.2,135.1,161.9,135.6,163.4,135.2z"></path>
	<path d="M162.3,139.9c0.1,0,0.3,0,0.4,0c0.1,0,0.2,0,0.3,0c4.4-0.2,8.9-0.5,13.3-0.7c0.8,0,1.7,0,2.5,0
		c0.1,0.7,0,1.4-0.2,2.1c-5-0.2-10-0.3-15.1-0.5c-0.6-0.4-1.4,0-2-0.6C161.8,140.2,162,140,162.3,139.9z"></path>
	<path d="M178.3,145.9c-3.4-0.1-6.8-0.3-10.2-0.4c-1,0.1-2-0.1-3-0.3c-0.2,0-0.5-0.1-0.5-0.4c0-0.3,0.3-0.2,0.5-0.2
		c0.2,0,0.4,0,0.6,0c3.9-0.2,7.8-0.4,11.6-0.7c0.4,0,0.8,0.1,1.2,0.1C178.4,144.6,178.3,145.2,178.3,145.9z"></path>
	<path d="M178,150.2c-0.8,0-1.7,0-2.5,0c-1.2-0.4-2.4-0.2-3.6-0.2c-1.7-0.1-3.3-0.2-5.1-0.5c0.8-0.5,1.6-0.4,2.4-0.4
		c1.6,0,3.3-0.1,4.9-0.5c1.3,0,2.6,0,3.9,0C178,149.1,178,149.7,178,150.2z"></path>
	<path d="M177.8,154.6c-2.6,0-5.3,0-7.9-0.6c2.2-0.6,4.6-0.3,6.8-0.8c0.4,0,0.8,0.1,1.2,0.1
		C177.9,153.7,177.8,154.1,177.8,154.6z"></path>
	<path d="M71.3,221.5c3,0.1,6,0.3,9,0.4c-3.3,0.6-6.6,0.8-9.9,0.9c-2.5,0.2-5,0.1-7.5,0.3c-2,0.2-4,0.1-6,0.1
		c-2.4,0-4.8,0-7.2,0c0-0.7,0-1.4,0-2.1c4.9-0.1,9.7,0.2,14.6,0.3C66.7,221.4,69,221.5,71.3,221.5z"></path>
	<path d="M71.3,226.1c2.1,0.1,4.2,0.1,6.4,0.6c-1.7,0.3-3.2,0.4-4.7,0.4c-0.5,0-1-0.1-1.4,0.2c-5.1,0-10.1,0.3-15.1,0.3
		c-2.3,0-4.6,0.1-6.9,0.1c0-0.7-0.2-1.4,0.2-2.1c6.2,0.1,12.4,0.1,18.5,0.3C69.2,225.9,70.3,226.1,71.3,226.1z"></path>
	<path d="M72.2,217c1.4,0.1,2.9,0.2,4.4,0.3c0.3,0,0.7-0.1,1.1,0.3c-1.9,0.5-3.8,0.3-5.6,0.6c-6.9,0-13.9,0.7-20.8,0.5
		c-0.5,0-1,0-1.4-0.1c-0.1-0.7-0.1-1.4,0-2c4.5-0.1,8.9,0.2,13.4,0.4C66.1,217,69.2,217,72.2,217z"></path>
	<path d="M71.5,230.7c0.7,0.4,1.6,0,2.4,0.4c-1,0.6-2,0.5-2.9,0.8c-0.6-0.6-1.3,0-1.9,0c-3.5-0.1-7,0.2-10.5,0.3
		c-3,0.1-6.1,0.1-9.1,0.2c0-0.8,0-1.6,0-2.4c5.7,0,11.4,0.5,17.1,0.5C68.2,230.5,69.9,230.6,71.5,230.7z"></path>
	<path d="M71.6,212.6c0.7,0.1,1.3,0,2,0.4c-0.5,0.5-1.2,0.4-1.8,0.5c-2.7,0.1-5.5,0.2-8.2,0.4
		c-4.2,0.3-8.4,0.2-12.6,0.3c-0.7,0-1.2,0-1.1-0.9c0-0.4,0-0.8,0.1-1.2c4.3-0.1,8.7,0.1,13,0.4c1.5,0.1,3,0,4.6,0h0
		c0.3,0,0.6,0,0.9,0.1c0.3,0.2,0.5,0.1,0.8,0.1C70,212.7,70.8,212.6,71.6,212.6z"></path>
	<path d="M68.6,235.2c1.2,0.1,2.3,0.2,3.5,0.3c-1,0.6-2.2,0.2-3.3,0.6c-5.5,0.2-11,0.4-16.5,0.7c-1,0-2.1,0-3.1,0
		c-0.1-0.8-0.1-1.6,0.2-2.3c5.2,0.2,10.5,0.2,15.7,0.6C66.3,235.2,67.5,235.2,68.6,235.2z"></path>
	<path d="M67.4,207.8c1.3,0.4,2.8,0.2,4.1,0.5c0.2,0.1,0.5,0,0.8,0.4c-2.1,0.1-4,0.3-6,0.4c-3.9,0.1-7.7,0.3-11.6,0.4
		c-1.6,0-3.1,0-4.7,0c-0.1-0.7-0.1-1.4,0-2c3.3,0.1,6.6,0.1,9.9,0.2C62.4,207.8,64.9,207.9,67.4,207.8z"></path>
	<path d="M65.3,239.7c1.3,0.1,2.6,0.3,3.9,0.4c0,0.1,0,0.2,0,0.3c-1.5,0.1-2.9,0.3-4.4,0.4c-4.8,0.2-9.6,0.4-14.4,0.6
		c-0.4,0-0.8,0-1.2,0c0-0.8,0-1.5,0-2.3c0.3,0.1,0.6,0.2,0.9,0.2C55.2,239.2,60.2,239.6,65.3,239.7z"></path>
	<path d="M66.8,203.5c0.9,0.1,1.8,0.2,2.7,0.3c0,0.1,0,0.2,0,0.3c-0.8,0.1-1.7,0.1-2.5,0.1c-3.5,0.2-6.9,0.3-10.4,0.6
		c-2.2,0.2-4.4,0.2-6.6,0c-0.1-0.7-0.1-1.3,0-2c3.3,0.1,6.5,0.3,9.8,0.4C62.1,203.3,64.4,203.3,66.8,203.5z"></path>
	<path d="M62.6,244.3c1.2,0.5,2.5,0,3.8,0.7c-1.8,0.2-3.4,0.1-5,0.5c-4.2,0.1-8.3,0.2-12.5,0.3c0-0.6,0-1.3,0-2
		c3.9,0.1,7.7,0.1,11.6,0.5c0.3,0,0.6,0,1,0h0C61.9,244.3,62.3,244.3,62.6,244.3z"></path>
	<path d="M64.9,198.8c0.5,0.4,1.2,0.3,1.7,0.7c-0.5,0.1-1.1,0.2-1.6,0.4c-4.6-0.1-9.2,0.6-13.8,0.5
		c-0.4,0-0.8,0-1.2-0.1c-0.1-0.7-0.1-1.4,0-2c4.2,0.2,8.4,0.4,12.6,0.6C63.4,199,64.2,199,64.9,198.8z"></path>
	<path d="M58.3,248.7c1.8,0.2,3.6,0.4,5.4,0.5c0,0.1,0,0.2,0,0.3c-1.9,0.2-3.7,0.4-5.6,0.6c-3.1,0-6.1,0.4-9.2,0.2
		c0-0.6,0.1-1.3,0.2-1.9C52.1,248.3,55.2,248.7,58.3,248.7z"></path>
	<path d="M62.8,194.4c0.2,0.1,0.4,0.2,0.7,0.2c0.2,0.1,0.5,0,0.5,0.3c0,0.1-0.4,0.2-0.6,0.3c-0.6,0.1-1.3,0.1-1.9,0.1
		c-3.3,0-6.7,0.3-10,0.5c-0.5,0-1,0-1.4,0c-0.1-0.6-0.1-1.2,0-1.8c3.7,0.1,7.5,0.2,11.2,0.3c0.4,0.3,0.8,0.1,1.2,0.2
		C62.5,194.4,62.7,194.4,62.8,194.4z"></path>
	<path d="M57.6,253.3c1.1,0.3,2.2,0.4,3.4,0.6c-1.2,0.5-2.5,0.1-3.7,0.7c-2.8,0.1-5.7,0.2-8.6,0.3c0-0.6,0-1.2,0-1.8
		C51.7,252.9,54.7,253.3,57.6,253.3z"></path>
	<path d="M58.5,189.7c0.8,0.3,1.7,0.3,2.8,0.5c-0.7,0.4-1.2,0.5-1.8,0.6c-3.2,0-6.3,0.3-9.5,0.4c-0.1-0.6-0.1-1.2,0-1.8
		C52.8,189.8,55.7,189.5,58.5,189.7z"></path>
	<path d="M55.4,258c0.9,0.1,1.8,0.2,2.8,0.4c0,0.1,0,0.2,0,0.2c-1.6,0.2-3.2,0.4-4.9,0.5c-1.6,0-3.2,0-4.8,0.1
		c0-0.5,0-1.1,0-1.6C50.8,257.7,53.1,257.9,55.4,258z"></path>
	<path d="M55.2,185.3c1.1,0.1,2.1,0.3,3.2,0.4c0,0.1,0,0.2,0,0.2c-0.8,0.1-1.7,0.2-2.5,0.4c-2,0.1-3.9,0.1-5.9,0.2
		c-0.1-0.5-0.1-0.9,0-1.4C51.8,184.9,53.5,185.3,55.2,185.3z"></path>
	<path d="M52.1,262.4c1,0.4,2.2,0,3.4,0.7c-1.3,0.4-2.5,0.1-3.7,0.6c-1.2,0-2.3,0-3.5,0.1c-0.1-0.5-0.2-1,0.2-1.4
		C49.7,262.4,50.9,262.4,52.1,262.4z"></path>
	<path d="M50.1,176c1.1,0.6,2.4,0.1,3.5,0.7c-0.9,0.8-2.1,0.1-3,0.7c-0.2,0-0.3,0-0.5-0.1
		C49.9,176.8,49.9,176.4,50.1,176C50,176,50.1,176,50.1,176z"></path>
	<path d="M50.2,181.2c0.2,0,0.3,0,0.5,0c0.3,0,0.7-0.1,0.6,0.4c0,0.4-0.4,0.3-0.7,0.3c-0.2,0-0.4,0-0.6,0
		C50,181.6,50.1,181.4,50.2,181.2z"></path>
	<path d="M50.1,171.2c0,0.1,0,0.2,0,0.2c0.9,0.6,0.1,1.1-0.1,1.6l0,0C49.9,172.4,49.9,171.8,50.1,171.2
		C50,171.2,50.1,171.2,50.1,171.2z"></path>
	<path d="M50,180.7c0,0.1,0.1,0.3,0.1,0.4C49.9,181.1,49.9,180.9,50,180.7z"></path>
	<path d="M58.8,35.3c1,0,1.8,0.1,3,0.4c-1.4,0.7-2.8,0.3-4.1,0.7c-4,0-8,0.2-12,0.5c-0.3,0-0.5,0-0.8-0.1
		c2.4-0.7,4.8-1.3,7.3-2C54.3,35.2,56.5,35.3,58.8,35.3z"></path>
	<path d="M156.3,94.9C156.3,95,156.3,95,156.3,94.9c-0.1,0-0.1-0.1-0.1-0.1C156.2,94.9,156.3,94.8,156.3,94.9
		C156.3,94.9,156.3,94.9,156.3,94.9z"></path>
</g>
<path d="M153,113.6L153,113.6C153.1,113.7,153,113.6,153,113.6z"></path>
<path d="M61.6,244.3L61.6,244.3L61.6,244.3z"></path>
<g onclick="select(this)" class="" id="estampa-terciaria" fill="#bf0811">
	<path d="M57.2,284.9c3.8,0,7.6-0.1,11.4,0.2c2.1,0.1,4.2,0.2,6.3,0.2c21.3,0,42.6,0.1,63.8,0c6.6,0,13.2-0.2,19.8-0.4
		c5.4-0.2,10.9-0.1,16.3-0.2c0.1,0,0.1,0,0.2,0.1c-4.1,0.6-8.3,0.8-12.4,0.8c-14.7,0.2-29.4,0.6-44.1,1c-7.5,0.2-15-0.5-22.5-0.6
		c-8.9-0.1-17.8-0.2-26.8-0.4c-3.7-0.1-7.3-0.3-11-0.5C57.8,285,57.5,285,57.2,284.9z"></path>
	<path d="M170.1,76.3c-0.9,0.1-1.9-0.1-2.9,0.5c0.8,0.5,1.7,0.2,2.4,0.3c-0.2,0.6-0.6,0.4-1,0.4c-9.4,0-18.9,0.3-28.3,0
		c-22.5-0.7-45.1-0.2-67.6-0.3c-3.4,0-6.8,0-10.2,0.2c-9.7,0.4-19.3,0.1-29,0.2c-0.2-0.6-0.3-1.3-0.4-1.9c2.9,0,5.8-0.2,8.8,0
		c5,0.3,10.1,0.1,15.1,0.2c24.8,0.9,49.7,0.2,74.5,0.4c3.6,0,7.1-0.1,10.6-0.3c5-0.3,10.1-0.1,15.1-0.3c2.8-0.1,5.5-0.2,8.3-0.2
		c1.4,0,2.7,0.3,4.1,0.2C169.9,75.8,170.1,75.9,170.1,76.3z"></path>
	<path d="M167.5,80.8c-0.8,0-1.7,0-2.5,0.1c-0.3,0-0.7-0.2-0.7,0.2c0,0.4,0.4,0.4,0.7,0.4c0.7,0,1.4,0.1,2,0.1
		c-0.1,0.6-0.6,0.4-1,0.4c-9.4,0-18.8,0.1-28.2-0.1c-3.4-0.1-6.8-0.1-10.2-0.2c-19.6-0.4-39.3-0.1-58.9-0.2c-3.4,0-6.9,0-10.3,0.2
		C51.3,82.2,44.1,82,37,82.1c-0.4,0-0.9-0.1-1.3,0.2c-0.5-0.6-0.9-1.3-1.1-2.1c6.6,0.1,13.3,0.1,19.9,0.3c3.5,0.1,7,0.1,10.4,0.2
		c20.2,0.5,40.4,0.1,60.6,0.2c4.3,0,8.6-0.1,12.9-0.3c3.6-0.1,7.2-0.1,10.8-0.2c4.4,0,8.9-0.3,13.3-0.2c1.6,0,3.1,0.5,4.6,0.1
		C167.6,80.2,167.5,80.6,167.5,80.8z"></path>
	<path d="M163,85.2c-0.6,0.4-0.5,0.8,0,1.2c-0.3,0.5-0.7,0.5-1.2,0.5c-4,0-8.1,0.2-12.1-0.1c-4.8-0.3-9.6,0-14.4-0.3
		c-3.4-0.2-6.8-0.1-10.2-0.2c-20.1-0.5-40.1-0.1-60.2-0.2c-3.5,0-7,0-10.5,0.2c-4.5,0.3-9,0.1-13.5,0.2c-1.2,0-2.4,0-3.5,0.4
		c-0.5-0.6-0.9-1.3-0.9-2.1c5.2,0,10.4-0.1,15.6,0.1c3.5,0.1,6.9,0.1,10.4,0.2c16.9,0.4,33.8,0,50.7,0.2c7,0.1,14-0.1,21-0.3
		c8-0.2,16-0.1,24-0.2c1,0,2.1,0,3.1-0.1C161.9,84.7,162.5,84.7,163,85.2z"></path>
	<path d="M160.9,90.7c-0.1,0.7-0.7,0.7-1.2,0.7c-4.5-0.1-8.9,0.1-13.4-0.2c-2.7-0.2-5.4-0.1-8.1-0.1
		c-3.6-0.1-7.3-0.1-10.9-0.2c-22-0.5-44-0.2-66-0.2c-7.5,0-14.9,0.5-22.3,0.4c-0.4-0.5-0.5-1.1-0.6-1.7c2.2,0,4.5,0,6.7,0.1
		c5,0.1,10.1,0.2,15.1,0.3c19.9,0.4,39.9,0.1,59.8,0.1c3.5,0,7,0,10.5-0.2c10.1-0.4,20.1-0.1,30.2-0.2c0.4,0,0.9-0.3,1.1,0.4
		c-0.3,0-0.6,0.1-0.9,0.1c-0.3,0-0.7-0.1-0.7,0.4C160.2,90.8,160.6,90.7,160.9,90.7z"></path>
	<path d="M39.7,94.1c4.4,0.1,8.8,0,13.2,0.3c6.4,0.3,12.8,0.2,19.2,0.2c16.1,0,32.2,0.1,48.3-0.1
		c6.7-0.1,13.4-0.2,20.1-0.4c5.5-0.2,10.9-0.1,16.4-0.2c0.4,0,1.1-0.3,1.1,0.6c-0.4,0.1-1.2-0.2-0.7,0.7c-0.5,0.5-1.1,0.5-1.8,0.5
		c-8.9-0.1-17.8,0.2-26.7-0.2c-4.6-0.2-9.2-0.3-13.8-0.3c-21.4,0.2-42.8-0.3-64.3,0.2c-3.5,0.1-6.9,0.2-10.4,0.2c-0.1,0-0.1,0-0.2,0
		C39.9,95.2,39.8,94.6,39.7,94.1z M156.3,94.9C156.3,94.9,156.3,94.9,156.3,94.9c0-0.1-0.1-0.1-0.1-0.1
		C156.2,94.9,156.2,94.9,156.3,94.9C156.3,95,156.3,94.9,156.3,94.9z"></path>
	<path d="M47.8,275.5c1,0.2,2,0.2,3,0.2c5,0,10-0.1,15,0.1c5.6,0.2,11.1,0.1,16.7,0.3c19.9,0.5,39.7,0.2,59.6,0.1
		c5.5,0,11,0.1,16.4-0.3c6.4-0.5,12.8-0.2,19.1-0.3c0.8,0,1.5-0.4,2.3-0.2c0,0.7,0,1.4,0,2.1c-4.7,0.3-9.4,0.1-14,0.1
		c-5.3,0-10.6-0.1-15.9-0.3c-17.5-0.7-35-0.2-52.5-0.3c-4.6,0-9.3-0.1-13.9,0c-8.5,0.3-17,0.4-25.5,0.5c-3.4,0.1-6.8,0.1-10.2,0.1
		C47.8,276.9,47.8,276.2,47.8,275.5z"></path>
	<path d="M55.4,258c0.2-0.6,0.7-0.5,1.1-0.5c8.5,0,17,0,25.4,0.1c2,0,4,0.1,6,0.1c21.4,0.5,42.8,0.1,64.3,0.2
		c5.2,0,10.5-0.2,15.7-0.3c3.7-0.1,7.4-0.1,11.1-0.2c0,0.6,0,1.3,0,1.9c-4.7-0.3-9.4-0.1-14.1-0.3c-3-0.1-6.1-0.2-9.1-0.2
		c-20.7,0-41.5,0-62.2,0c-6.3,0-12.5,0.1-18.8,0.3c-6.8,0.2-13.6,0.1-20.4,0.1c-0.4,0-0.8,0.1-1.1-0.3c1.6-0.2,3.2-0.4,4.9-0.5
		c0-0.1,0-0.2,0-0.2C57.3,258.2,56.3,258.1,55.4,258z"></path>
	<path d="M177.5,186.7c-5.8-0.1-11.5-0.1-17.3-0.3c-22.3-0.5-44.6-0.1-66.9-0.1c-3.8,0-7.7,0-11.5,0.2
		c-8,0.4-16,0.1-24,0.2c-0.7,0-1.5,0.3-2-0.5c0.8-0.1,1.7-0.2,2.5-0.4c0-0.1,0-0.2,0-0.2c-1.1-0.1-2.1-0.3-3.2-0.4
		c0.2-0.7,0.8-0.4,1.2-0.4c8.5,0,17-0.2,25.4,0.1c17.1,0.7,34.1,0.3,51.2,0.4c9.4,0.1,18.8,0.1,28.2-0.1c4.7-0.1,9.4-0.4,14.1-0.4
		c0.7,0,1.4,0,2.1,0C177.6,185.5,177.6,186.1,177.5,186.7z"></path>
	<path d="M177.5,182.1c-5.5-0.1-10.9-0.1-16.4-0.2c-16.7-0.4-33.4-0.1-50.1-0.2c-6.3,0-12.6-0.1-19,0
		c-6.6,0.2-13.1,0-19.7,0.3c-5.8,0.2-11.5,0-17.3,0.2c-1.1,0-1.3-1-2.2-1.3c-0.1,0-0.2-0.6,0.3-0.7c0.3,0,0.6,0,0.8,0
		c5.6,0,11.2-0.1,16.8,0.1c4.3,0.2,8.7,0.1,13.1,0.2c14,0.5,28,0.1,42,0.2c11,0.1,21.9,0.1,32.9-0.1c2.6,0,5.2,0.1,7.8-0.3
		c0.6-0.1,1.3,0.1,1.9,0.1c3,0.1,6.1-0.4,9.1-0.2C177.6,180.9,177.6,181.5,177.5,182.1z"></path>
	<path d="M179.6,273c-3.1,0.1-6.2,0.1-9.3-0.1c-2.7-0.2-5.4,0-8-0.1c-24.8-0.7-49.6-0.4-74.3-0.4c-3.8,0-7.7,0-11.5,0.2
		c-3.4,0.2-6.7,0.1-10.1,0.2c-5.5,0.1-11.1,0.1-16.7,0.2c-0.6,0-1.1,0-1.7-0.1c-0.2-0.5,0.3-1,0.3-1.5c0.8-0.7,1.7-0.3,2.5-0.3
		c3.8,0,7.7,0,11.5,0c7.5,0.1,15,0.1,22.5,0.3c20.3,0.4,40.5,0.2,60.8,0.1c5.5,0,11,0,16.5-0.3c5.8-0.3,11.6-0.1,17.4-0.2
		C179.5,271.8,179.5,272.4,179.6,273z"></path>
	<path d="M178.8,254.8c-5.4,0.1-10.7-0.4-16-0.4c-21,0-42,0-63,0c-2.6,0-5.2-0.1-7.8,0.1c-11,0.6-22,0.3-32.9,0.4
		c-0.6,0-1.2-0.1-1.8-0.3c1.1-0.6,2.5-0.2,3.7-0.7c-1.2-0.2-2.3-0.2-3.4-0.6c0.6-0.5,1.4-0.3,2-0.3c8.1,0,16.2-0.1,24.3,0.1
		c3.8,0.1,7.6,0.1,11.4,0.2c21.8,0.5,43.6,0.1,65.5,0.2c3.6,0,7.3,0,10.9-0.2c2.4-0.1,4.7-0.1,7.1-0.1
		C178.8,253.6,178.8,254.2,178.8,254.8z"></path>
	<path d="M178.5,245.7c-3.7-0.3-7.4,0-11-0.3c-2.4-0.2-4.8-0.1-7.2-0.1c-18.4,0-36.8-0.1-55.2,0
		c-8.9,0.1-17.7,0.3-26.6,0.5c-4.9,0.1-9.8,0-14.7,0.2c-0.8,0-1.6-0.1-2.4-0.5c1.6-0.4,3.2-0.3,5-0.5c-1.3-0.7-2.7-0.2-3.8-0.7
		c0.4-0.7,1-0.6,1.7-0.6c8.3,0.1,16.6,0,24.9,0.3c3.5,0.1,6.9,0.1,10.4,0.2c20.9,0.5,41.9,0.1,62.8,0.2c5.4,0,10.7-0.2,16.1-0.3
		C178.5,244.6,178.5,245.2,178.5,245.7z"></path>
	<path d="M177.5,168.4c-5.4,0-10.8,0-16.2,0c-5.3,0-10.5-0.1-15.8-0.3c-20.6-0.5-41.2-0.2-61.7-0.1
		c-10.7,0.1-21.5,0.4-32.2,0.4c-0.5,0-1-0.1-1.5-0.1c0-0.6,0-1.2,0-1.8c3.3,0,6.6-0.1,9.9,0.1c2.5,0.2,5,0.1,7.5,0.1
		c5,0.1,10.1,0.1,15.1,0.2c19.5,0.4,38.9,0.2,58.4,0.1c8.3,0,16.7-0.3,25-0.5c3.8-0.1,7.7-0.1,11.5-0.1
		C177.6,167.2,177.6,167.8,177.5,168.4z"></path>
	<path d="M58.5,189.7c0.6-0.3,1.2-0.3,1.8-0.3c8.4,0,16.8-0.2,25.2,0.1c24.2,0.8,48.3,0.2,72.5,0.4
		c4.1,0,8.2,0,12.3-0.3c2.4-0.1,4.8-0.1,7.2-0.1c0.1,0.6,0.1,1.2,0,1.8c-4.6-0.1-9.3,0-13.9-0.3c-2.4-0.1-4.7-0.2-7.1-0.2
		c-20.1,0-40.2-0.1-60.3,0.1c-4,0-8,0.1-12,0.2c-7.8,0.4-15.5,0.1-23.3,0.2c-0.5,0-1.2,0.1-1.5-0.5c0.6,0,1.1-0.1,1.8-0.6
		C60.2,190,59.3,190,58.5,189.7z"></path>
	<path d="M58.3,248.7c1.4-0.4,2.9-0.4,4.3-0.4c7.9,0,15.9,0.1,23.8,0.2c3.2,0.1,6.4,0.4,9.7,0.4
		c22.7,0.1,45.3,0.1,67.9,0c3.9,0,7.7-0.1,11.6-0.3c0.9,0,1.9-0.2,2.9-0.2c0,0.5,0,1,0.1,1.6c-3.3,0.1-6.5,0.1-9.8-0.1
		c-1.9-0.2-3.8-0.1-5.8-0.1c-20.6,0-41.2,0-61.8,0c-6.2,0-12.3,0.2-18.4,0.3c-7.1,0.2-14.1,0.1-21.2,0.1c-1.2,0-2.4-0.3-3.6-0.2
		c1.9-0.2,3.7-0.4,5.6-0.6c0-0.1,0-0.2,0-0.3C61.9,249,60.1,248.9,58.3,248.7z"></path>
	<path d="M177.5,163.9c-8.6,0-17.3,0.1-25.9-0.1c-2.7-0.1-5.4-0.1-8-0.2c-20.9-0.4-41.7-0.1-62.6-0.2
		c-3.8,0-7.6,0-11.4,0.2c-6.5,0.3-13.1,0.2-19.7,0.1c0-0.6,0-1.2,0-1.8c4.4-0.2,8.8,0.4,13.2,0.2c0.2,0,0.3,0,0.5,0
		c11.7,0.6,23.4,0.4,35,0.4c13.3,0,26.6,0.1,39.8,0c8.5-0.1,17.1-0.3,25.6-0.5c4.5-0.1,9-0.1,13.5-0.1
		C177.3,162.6,177.2,163.2,177.5,163.9z"></path>
	<path d="M48.6,267.6c0.9-1.3,2.2-1,3.5-1c6,0,12.1-0.1,18.1,0.1c4.2,0.1,8.3,0.1,12.5,0.2c15.7,0.5,31.5,0.1,47.2,0.2
		c8,0,16.1,0.1,24.1-0.1c4.1-0.1,8.3,0,12.4-0.2c4.3-0.2,8.6-0.1,12.8-0.2c0.1,0.6,0.1,1.1,0.2,1.7c-4.7,0-9.4,0.1-14.1,0
		c-5,0-10.1-0.2-15.1-0.3c-19.5-0.4-39-0.1-58.5-0.1c-3.8,0-7.5,0-11.3,0.2c-10.4,0.4-20.8,0.2-31.3,0.2c-0.3,0-0.7,0.1-0.9-0.2
		C48.3,267.8,48.2,267.6,48.6,267.6z"></path>
	<path d="M52.1,262.4c0.7-0.3,1.4-0.3,2.2-0.3c8.3,0,16.6-0.2,25,0.1c24.7,0.8,49.3,0.2,74,0.4c3.7,0,7.4,0,11-0.3
		c4.9-0.3,9.9-0.1,14.9-0.2c0.3,0.6,0.3,1.2,0.2,1.9c-5.6-0.2-11.1-0.1-16.6-0.3c-3.4-0.1-6.7-0.1-10.1-0.2
		c-19.4-0.4-38.8-0.1-58.3-0.1c-3.3,0-6.6,0-9.8,0.2c-4.7,0.3-9.3,0-14,0.2c-5.8,0.3-11.6,0.1-17.4,0.2c-0.5,0-1,0.2-1.3-0.4
		c1.1-0.5,2.4-0.2,3.7-0.6C54.3,262.3,53.1,262.8,52.1,262.4z"></path>
	<path d="M177.5,173c-4.3,0-8.6,0.1-12.9-0.1c-3.5-0.2-7,0-10.6-0.1c-22.3-0.5-44.5-0.1-66.8-0.2
		c-6.5,0-12.9,0.2-19.4,0.3c-5.7,0.1-11.4,0.1-17.1,0.2c-0.2,0-0.5-0.1-0.7-0.1c0.2-0.5,1-1,0.1-1.6c0,0,0-0.1,0-0.2
		c4.6,0,9.3-0.2,13.9,0.1c2.5,0.1,5,0.1,7.4,0.1c5,0,10.1,0.2,15.1,0.3c19.2,0.3,38.3,0.1,57.5,0.1c3.5,0,7,0,10.4-0.2
		c4.4-0.3,8.7,0,13.1-0.3c3.4-0.2,6.7-0.1,10.1-0.1C177.6,171.8,177.6,172.4,177.5,173z"></path>
	<path d="M50.1,176c2.4,0,4.7-0.1,7.1-0.1c7.2,0,14.4-0.1,21.6,0.1c24.2,0.5,48.4,0.2,72.6,0.2c8.3,0,16.5-0.3,24.8-0.3
		c0.5,0,1,0,1.4,0.1c0.1,0.5,0.1,0.9,0,1.4c-5,0-10,0-15,0.1c-3.4,0.1-6.9-0.1-10.3-0.2c-12.5-0.2-24.9,0-37.4-0.1
		c-8.9-0.1-17.8-0.1-26.7,0c-12.1,0.2-24.2,0.2-36.3,0.2c-0.4,0-0.9,0-1.3,0c0.9-0.6,2.2,0.1,3-0.7C52.4,176,51.2,176.5,50.1,176z"></path>
	<path d="M177.6,158.9c-0.3,0.8-1.1,0.6-1.7,0.6c-1,0.1-2,0.1-3,0c-4.1-0.4-8.3-0.1-12.4-0.2
		c-6.1-0.1-12.1-0.1-18.2-0.3c-23.1-0.5-46.2-0.1-69.3-0.1c-3.9,0-7.8,0-11.6,0.2c-3.5,0.2-7,0-10.4,0.2c-0.4,0-0.9,0.1-1.3-0.2
		c0-0.5,0-0.9,0-1.4c5.5,0,10.9-0.2,16.4,0.1c1.5,0.1,3,0,4.4,0c6.3,0.2,12.6,0.2,18.9,0.2c15.6,0,31.1,0.1,46.7,0
		c3.7,0,7.4-0.1,11-0.2c10.2-0.4,20.4-0.2,30.6-0.1C178,158.2,176.6,158.4,177.6,158.9z"></path>
	<path d="M178,227.2c-3.7-0.4-7.4-0.2-11.1-0.2c-15.5,0-31-0.1-46.5,0c-3.7,0-7.4,0-11.1,0.2c-3.6,0.2-7.2,0.1-10.8,0.2
		c-8.5,0.3-17.1,0.2-25.6,0.2c-0.4,0-1.1,0.3-1.3-0.4c0.4-0.3,0.9-0.2,1.4-0.2c1.5,0,3.1-0.1,4.7-0.4c-2.2-0.5-4.3-0.5-6.4-0.6
		c0.2-0.2,0.4-0.2,0.7-0.2c6.1-0.3,12.2-0.3,18.3-0.2c5.8,0.2,11.7,0.1,17.5,0.2c23.1,0.5,46.2,0.1,69.3,0.2c0.3,0,0.6,0,0.8,0
		C178.1,226.5,178.1,226.9,178,227.2z"></path>
	<path d="M71.5,230.7c0.4-0.9,1.3-0.7,2-0.7c7.7,0.2,15.3,0.1,23,0.3c2.6,0.1,5.3,0.1,7.9,0.2
		c24.3,0.5,48.6,0.1,72.9,0.2c0.2,0,0.5,0,0.7,0c0,0.4,0,0.7,0,1.1c-1.7,0.2-3.3-0.2-5-0.2c-18.8,0-37.6-0.1-56.4,0
		c-3.8,0-7.5,0.1-11.3,0.2c-11.2,0.4-22.4,0.1-33.6,0.2c-0.3,0-0.6,0.1-0.8-0.2c0.9-0.3,1.9-0.2,2.9-0.8
		C73.1,230.7,72.2,231.1,71.5,230.7z"></path>
	<path d="M49.5,153.2c4.2-0.1,8.3-0.2,12.4,0.1c1.5,0.1,3.1,0,4.7,0.1c13.6,0.4,27.3,0.1,40.9,0.2c8.7,0,17.3,0.1,26,0
		c3.7-0.1,7.4-0.1,11.1-0.2c10.7-0.4,21.3-0.2,32-0.2c-2.2,0.5-4.6,0.2-6.8,0.8c2.6,0.6,5.3,0.6,7.9,0.6c0,0.1,0,0.1,0,0.2
		c-2.8,0.1-5.5,0.3-8.3,0.2c-6.5-0.2-13.1,0-19.6-0.2c-3.8-0.1-7.6-0.1-11.4-0.2c-20.9-0.5-41.8-0.1-62.7-0.2
		c-5.6,0-11.2,0.2-16.8,0.3c-3.1,0.1-6.2,0.1-9.3,0.1C49.7,154.3,49.6,153.7,49.5,153.2z"></path>
	<path d="M68.6,235.2c0.2-0.5,0.7-0.5,1.1-0.5c5.5,0,11-0.2,16.4,0c3.1,0.1,6.2,0.1,9.2,0.2c25,0.6,50,0.2,75,0.3
		c2.6,0,5.2,0,7.8,0c0.3,0.4,0.2,0.8,0.1,1.1c-21.8-0.5-43.6-0.1-65.5-0.2c-5.9,0-11.7,0.2-17.6,0.3c-8.4,0.2-16.9,0.1-25.3,0.2
		c-0.4,0-0.9,0.1-1.1-0.5c1-0.4,2.2-0.1,3.3-0.6C70.9,235.4,69.8,235.3,68.6,235.2z"></path>
	<path d="M177.6,209c-16.6,0-33.1,0-49.7,0c-9,0-18-0.1-27.1,0.1c-5.2,0.1-10.3,0-15.4,0.2c-4.6,0.2-9.1,0.1-13.7,0.1
		c-1.8,0-3.6-0.3-5.4-0.4c1.9-0.1,3.9-0.3,6-0.4c-0.3-0.4-0.5-0.3-0.8-0.4c-1.3-0.3-2.8-0.1-4.1-0.5c7.5-0.5,15.1-0.2,22.6-0.2
		c5.6,0,11.3,0,16.9,0.3c6,0.3,12.1,0.2,18.1,0.2c16.4,0,32.8,0,49.2,0c1.1,0,2.3-0.1,3.4-0.2c0.4,0,0.8,0.1,0.8,0.6
		C178.3,209.1,177.9,209,177.6,209z"></path>
	<path d="M62.8,194.4c0.2-0.6,0.7-0.4,1.1-0.4c6.5,0,13-0.1,19.4,0.1c5.6,0.1,11.2,0.1,16.8,0.2
		c20.5,0.5,41.1,0.2,61.6,0.1c5.3,0,10.5-0.1,15.8-0.2c0.1,0.5,0.1,1,0,1.5c-4.9-0.1-9.8-0.1-14.7-0.3c-19.7-0.4-39.4-0.3-59.1-0.1
		c-13,0.1-26,0.4-39,0.4c-0.5,0-1.1,0.3-1.3-0.4c0.2-0.1,0.6-0.1,0.6-0.3c0-0.3-0.3-0.3-0.5-0.3C63.2,194.6,63,194.5,62.8,194.4z"></path>
	<path d="M178.3,240.9c-23.1-0.5-46.3-0.1-69.4-0.2c-5.8,0-11.5,0.1-17.2,0.3c-7.9,0.2-15.9,0.1-23.8,0.2
		c-0.8,0-1.7,0.1-2.5-0.1c-0.3-0.1-0.4-0.1-0.5-0.4c1.5-0.1,2.9-0.3,4.4-0.4c0-0.1,0-0.2,0-0.3c-1.3-0.1-2.6-0.3-3.9-0.4
		c1-0.3,2.1-0.4,3.2-0.4c4.9,0,9.9-0.1,14.9,0c4.8,0.2,9.7,0,14.5,0.2c3.4,0.2,6.8,0.1,10.2,0.2c19.7,0.4,39.3,0.1,59,0.1
		c3.8,0,7.6-0.1,11.4-0.2C178.3,240.1,178.3,240.5,178.3,240.9z"></path>
	<path d="M71.6,212.6c0.2-0.6,0.8-0.6,1.3-0.6c6.4,0,12.9-0.1,19.3,0.1c6.1,0.2,12.2,0.3,18.3,0.4
		c22,0.4,43.9,0.1,65.9,0.2c0.4,0,0.9,0.1,1.3-0.2c0.3,0,0.7,0,0.7,0.5c0,0.4-0.1,0.7-0.6,0.7c-1.5-0.3-3-0.2-4.5-0.2
		c-19.7,0-39.4-0.1-59.2,0.1c-8.9,0.1-17.9,0.3-26.8,0.5c-4.2,0.1-8.3,0-12.5,0.1c-0.8,0-1.6-0.3-2.4-0.1c-0.3,0.1-0.6-0.2-0.6-0.6
		c0.6-0.1,1.2,0,1.8-0.5C72.9,212.6,72.2,212.7,71.6,212.6z"></path>
	<path d="M177.6,204.5c-8.5-0.2-16.9-0.3-25.4-0.3c-14.5,0-29-0.1-43.5,0c-8.6,0.1-17.2,0.3-25.7,0.5
		c-4.6,0.1-9.1,0-13.7,0.1c-0.8,0-1.6,0.1-2.3-0.6c0.8-0.1,1.7-0.1,2.5-0.1c0-0.1,0-0.2,0-0.3c-0.9-0.1-1.8-0.2-2.7-0.3
		c0-0.6,0.5-0.5,0.9-0.5c8,0,16-0.1,24,0.1c3.5,0.1,6.9,0.1,10.4,0.2c18.9,0.5,37.9,0.1,56.8,0.2c6.2,0,12.5,0,18.7-0.2
		c0.6,0,0.6,0.6,0.6,0.9C178.2,204.7,177.8,204.4,177.6,204.5z"></path>
	<path d="M177.5,200.2c-3.7-0.4-7.4-0.2-11.1-0.3c-20.1-0.4-40.1-0.3-60.2-0.1c-12.1,0.1-24.3,0.4-36.4,0.4
		c-1.6,0-3.2,0.5-4.8-0.3c0.5-0.1,1.1-0.2,1.6-0.4c-0.6-0.4-1.2-0.4-1.7-0.7c0.1-0.3,0.3-0.4,0.7-0.4c6.7,0.1,13.3,0,20,0.2
		c4.6,0.1,9.1,0.1,13.7,0.3c12.9,0.4,25.9,0.1,38.8,0.2c10.3,0.1,20.6,0.1,30.9-0.1c2.8,0,5.7-0.1,8.5-0.2
		C178.7,199.2,177.9,199.7,177.5,200.2z"></path>
	<path d="M177.8,222.5c-19.6,0-39.3-0.1-58.9,0c-3.7,0-7.4,0-11.1,0.2c-5.4,0.3-10.9,0-16.3,0.3
		c-4.7,0.2-9.4,0.2-14.1,0.1c-2.3-0.1-4.7,0.1-7-0.3c3.3-0.1,6.6-0.3,9.9-0.9c-3-0.1-6-0.3-9-0.4c0.2-0.1,0.4-0.2,0.6-0.2
		c6.8-0.3,13.6-0.3,20.4-0.2c3.1,0.1,6.2,0.1,9.3,0.1c5.3,0.1,10.6,0.2,15.9,0.3c20.1,0.4,40.2,0.1,60.3,0.2
		C177.8,222,177.8,222.3,177.8,222.5z"></path>
	<path d="M177.8,218c-5.4,0-10.9,0-16.3,0c-14.8,0-29.5-0.1-44.3,0c-3.9,0-7.9,0.1-11.8,0.2
		c-10.8,0.4-21.7,0.2-32.5,0.2c-0.3,0-0.7,0.1-0.9-0.2c1.8-0.3,3.7-0.1,5.6-0.6c-0.3-0.4-0.7-0.3-1.1-0.3c-1.4-0.1-2.9-0.2-4.4-0.3
		c1.3-0.6,2.8-0.4,4.2-0.5c3.6-0.1,7.1-0.2,10.7,0c5.4,0.3,10.8,0,16.2,0.2c3.6,0.2,7.2,0.1,10.8,0.2c20.3,0.4,40.5,0.1,60.8,0.2
		c1,0,2,0,3,0C178.1,217.4,177.7,217.7,177.8,218z"></path>
	<path d="M47.5,280.3c7.4,0,14.8-0.2,22.2,0.1c23.2,0.8,46.4,0.2,69.7,0.4c3,0,6,0,9-0.2c7.8-0.4,15.5-0.1,23.3-0.3
		c2.1-0.1,4.2,0,6.3,0.1c0.2,0,0.6-0.1,0.6,0.1c0.1,0.3-0.3,0.4-0.4,0.6c-1.1,1.6-2.9,1.1-4.2,1.1c-7.1,0.1-14.1,0-21.2-0.2
		c-3.4-0.1-6.9-0.1-10.3-0.2c-20.9-0.4-41.7-0.2-62.6-0.1c-8.7,0-17.5,0.4-26.2,0.5c-2,0-4.1,0.2-6.1,0.1
		C47.5,281.5,47.5,280.9,47.5,280.3z"></path>
	<path d="M163.4,135.2c-1.6,0.4-3.3-0.1-4.9,0.6c2.1,0.7,4.2,0.5,6.3,0.6c-2.6,0.2-5.3,0.4-8,0.4
		c-5.1,0-10.2,0.1-15.3-0.1c-4.3-0.2-8.6,0-12.9-0.2c-7.5-0.4-15-0.2-22.5-0.2c-15.2-0.1-30.4,0-45.7,0c-4,0-7.9,0.2-11.8,0.2
		c0-0.4,0-0.9-0.1-1.3c4.6-0.1,9.3-0.2,13.9,0.2c0.4,0,0.7,0,1.1,0c18.4,0,36.7,0.1,55.1-0.1c5.5,0,11,0,16.5-0.3
		c5.2-0.3,10.5,0,15.7-0.2c3.8-0.2,7.7,0.1,11.5,0.1C162.6,134.9,163.1,134.8,163.4,135.2z"></path>
	<path d="M161,130.8c-1.7,0.1-3.4-0.1-5.3,0.4c2.3,0.5,4.3,0.6,6.3,0.6c-0.3,0.5-0.7,0.4-1.2,0.4c-2,0-4,0.1-6.1,0.1
		c-5.8-0.1-11.6,0.1-17.4-0.1c-4.2-0.1-8.4,0-12.6-0.2c-7.2-0.4-14.5-0.2-21.7-0.2c-16.6,0-33.3,0-49.9,0c-1.7,0-3.4,0.3-5.1,0.1
		c0-0.4,0-0.9,0-1.3c3.2-0.3,6.5,0.2,9.7,0.2c19.6,0,39.2,0.1,58.8,0c5.3,0,10.7-0.2,16.1-0.3c3.1-0.1,6.1,0,9.2-0.3
		c1.5-0.1,3.1,0.1,4.7,0.1c1.8,0,3.7-0.1,5.5-0.1c2.8-0.1,5.7,0.1,8.5,0.2C160.7,130.4,161,130.4,161,130.8z"></path>
	<path d="M153.1,112.4c-2.3,0.2-4.5,0.3-6.8,0.5c1.6,0.7,3.2,0.6,4.9,0.7c-0.2,0.6-0.7,0.3-1,0.3
		c-11.8,0-23.5,0.3-35.3-0.1c-22.6-0.7-45.2-0.2-67.8-0.4c-0.6,0-1.3,0-1.9,0.1c-0.1-0.3-0.2-0.6-0.3-0.9c20,0,40.1,0.1,60.1-0.1
		c6.1-0.1,12.2,0,18.3-0.3c8.2-0.3,16.4-0.4,24.7-0.3C149.7,112,151.4,111.9,153.1,112.4z"></path>
	<path d="M174.1,148.6c-1.6,0.3-3.2,0.4-4.9,0.5c-0.8,0-1.5-0.1-2.4,0.4c1.8,0.3,3.4,0.5,5.1,0.5c1.2,0,2.4-0.2,3.6,0.2
		c-6.8,0.4-13.7,0.3-20.5,0.2c-8.2-0.2-16.4-0.3-24.7-0.5c-16.4-0.4-32.8,0-49.3-0.2c-2.6,0-5.3-0.1-7.9,0c-5.5,0.3-11,0.1-16.5,0.3
		c-2.4,0.1-4.8,0.1-7.2,0.1c0-0.5,0-1.1,0-1.6c6.2,0.1,12.4,0.1,18.6,0.3c1.7,0.1,3.3,0.1,5,0.1c19.1,0,38.2,0.1,57.3,0
		c4,0,8.1,0,12.1-0.2c4-0.2,8-0.2,12-0.2c4.1,0,8.2-0.4,12.3-0.2C169.2,148.5,171.6,148.5,174.1,148.6z"></path>
	<path d="M152.9,103.5c-0.6,0.3-1.4,0.1-2,0.6c0.6,0.1,1.1,0.2,1.7,0.3c-0.2,0.8-0.9,0.4-1.3,0.4
		c-3.9,0.2-7.9,0.3-11.8,0.1c-4.1-0.2-8.3,0-12.5-0.1c-4.1-0.1-8.2-0.1-12.3-0.2c-7.6-0.3-15.1-0.1-22.6-0.2
		c-13.8-0.1-27.5-0.1-41.2,0c-2.6,0-5.2,0.2-7.8,0.2c-0.4-0.3-0.2-0.9-0.5-1.3c2.3,0.3,4.7,0.2,7,0.2c21.2,0,42.4,0,63.7,0
		c6.2,0,12.3-0.2,18.4-0.3c6.1-0.2,12.2-0.1,18.3-0.1C151,103,152,103,152.9,103.5z"></path>
	<path d="M155.5,126.3c-0.6,0-1.1,0.1-1.7,0.5c1,0.4,1.9,0.4,2.9,0.5c1.3,0.1,2.7-0.1,4,0.2c-0.2,0.3-0.5,0.3-0.7,0.3
		c-6.7,0.3-13.3,0-20,0c-0.3,0-0.6,0-1,0c-6-0.1-12-0.1-18-0.3c-20.2-0.5-40.4-0.1-60.7-0.2c-3.4,0-6.7,0-10.1,0
		c-1,0-1.9,0.4-2.8,0.2c-0.1-0.4-0.2-0.8-0.3-1.3c2.8,0.1,5.5,0.2,8.3,0.2c20.8,0,41.7,0.2,62.5-0.1c11.5-0.1,23-0.4,34.5-0.4
		C153.5,125.8,154.6,125.8,155.5,126.3z"></path>
	<path d="M152.1,108c-1.1-0.1-2.1,0.1-3.5,0.4c1.2,0.9,2.4,0.5,3.5,0.6c0,0.3-0.2,0.4-0.5,0.4
		c-4.6,0.2-9.2,0.4-13.9,0.1c-3.2-0.2-6.4-0.1-9.6-0.1c-5.4-0.1-10.8,0-16.2-0.3c-4.6-0.2-9.3-0.1-13.9-0.2c-16.9,0-33.9,0-50.8,0
		c-1,0-2.1,0.1-3.1,0.2c0-0.4-0.3-0.7-0.3-1.1c0.6,0,1.3,0,1.9,0c21.6,0,43.2,0,64.8,0c6.3,0,12.5-0.3,18.8-0.3
		c3.6,0,7.2-0.1,10.8-0.1c3.7-0.1,7.4,0.1,11.1,0.2C151.6,107.8,151.9,107.8,152.1,108z"></path>
	<path d="M155.2,99.1c-0.5,0.1-1.1,0.2-1.8,0.4c0.5,0.3,1.1,0,1.4,0.4c-0.3,0.6-0.9,0.5-1.4,0.5
		c-8.5,0-16.9,0.1-25.4-0.1c-3.6-0.1-7.1-0.1-10.7-0.2c-21.1-0.4-42.3-0.1-63.4-0.2c-3.6,0-7.3,0.1-10.9,0.2c-0.4,0-0.9,0.1-1.3,0.2
		c-0.3-0.5-0.5-1-0.5-1.5c4.9,0.1,9.9,0,14.8,0.4c0.4,0,0.7,0,1.1,0c18.3,0,36.5,0.1,54.8-0.1c8.1-0.1,16.1-0.3,24.2-0.5
		c6-0.2,12-0.1,18-0.1C154.6,98.4,155.3,98.1,155.2,99.1z"></path>
	<path d="M165.6,144.5c-0.2,0-0.4,0-0.6,0c-0.2,0-0.4,0-0.5,0.2c0,0.3,0.2,0.4,0.5,0.4c1,0.1,2,0.4,3,0.3
		c-1.3,0.5-2.8,0.5-4.1,0.4c-7.3-0.1-14.6-0.1-21.9-0.3c-3.7-0.1-7.4-0.1-11.1-0.2c-21.8-0.4-43.7-0.1-65.5-0.1
		c-3.7,0-7.4,0-11.1,0.2c-1.7,0.1-3.3,0.1-5,0.2c0-0.5,0-1,0-1.5c4.8,0,9.7-0.1,14.5,0.1c16.6,0.4,33.2,0.1,49.8,0.2
		c4.9,0,9.8,0.2,14.7,0c6.3-0.3,12.5-0.1,18.8-0.3c5.1-0.2,10.2-0.1,15.3-0.1C163.5,144.1,164.6,144.1,165.6,144.5z"></path>
	<path d="M162.3,139.9c-0.3,0.1-0.6,0.2-0.9,0.4c0.6,0.6,1.4,0.2,2,0.6c-1,0.8-2.2,0.5-3.3,0.5c-7.4,0-14.7,0-22-0.3
		c-3.6-0.1-7.3-0.1-10.9-0.2c-21.5-0.4-43-0.1-64.5-0.1c-3.6,0-7.2,0.1-10.8,0.2c-1,0-2,0.3-3,0.2c-0.2-0.5-0.3-1.1-0.2-1.6
		c25.6,0.9,51.2,0.3,76.9,0.4c4,0,7.9-0.1,11.9-0.2c7.9-0.4,15.8-0.1,23.7-0.2C161.6,139.5,162.1,139.3,162.3,139.9z"></path>
	<path d="M151.3,117.1c-1,0.4-2,0-3,0.6c1.2,0.1,2.5,0.2,3.7,0.4c-0.2,0.5-0.7,0.4-1.1,0.5c-6.2,0-12.4,0.2-18.6,0
		c-4.5-0.1-9,0-13.5-0.2c-3.3-0.2-6.7-0.1-10.1-0.2c-17.8-0.5-35.7-0.1-53.5-0.2c-3.1,0-6.1,0.1-9.2,0.2c0-0.3,0-0.6,0-0.9
		c0.8-0.3,1.6,0,2.4,0c20,0,40.1,0,60.1,0c5.7,0,11.4-0.1,17.1-0.3c8.2-0.3,16.5-0.1,24.7-0.2C150.6,116.7,151.1,116.5,151.3,117.1z
		"></path>
	<path d="M81.3,21.4c0.6,0.5,1.2,0,1.8,0c3.2,0,6.3,0,9.5,0c1.2,0,2.1,0.6,3,1.6c-0.5,0-0.9,0-1.2,0
		c-4.5,0.1-9,0.2-13.5,0.2c-0.8,0-1.7,0.2-2.5-0.1c0.8-0.8,1.8-1.2,2.7-1.8C81.2,21.3,81.3,21.3,81.3,21.4z"></path>
	<path d="M87.1,16.8c1.3-0.1,1.9,0.7,2.7,1.7c-1.9,0.1-3.6-0.1-5.2,0.2C85.3,18,86,17.1,87.1,16.8z"></path>
	<path d="M55.5,39.8c1.5-0.4,3-0.4,4.5-0.4c5.2-0.1,10.3-0.1,15.5,0c4.2,0.2,8.4,0.1,12.6,0.2c15.3,0.5,30.7,0.1,46,0.2
		c8.9,0.1,17.9,0.1,26.9-0.1c4.2-0.1,8.5,0,12.7-0.2c4.9-0.2,9.7-0.1,14.6-0.2c0.3,0,0.6,0.1,0.9-0.2c2.1,0.8,4.3,1.6,6.5,2.1
		c-5.5,0.5-11,0.3-16.5,0.2c-6.2-0.2-12.4-0.3-18.5-0.4c-22.4-0.5-44.9-0.2-67.4-0.1c-3.9,0-7.9,0-11.8,0.2
		c-7.5,0.3-14.9,0.4-22.4,0.4c-1,0-2-0.3-3.1-0.3c-0.3,0-0.4-0.2-0.5-0.5c1.1,0,2.2,0.1,3.3-0.5C57.7,39.5,56.6,40,55.5,39.8z"></path>
	<path d="M58.8,35.3c0.5-0.4,1.3-0.4,1.8-0.4c3.2,0,6.3-0.1,9.5,0.1c3.3,0.2,6.6,0.1,9.8,0.1c5.3,0.1,10.6,0.1,15.9,0.2
		c18.3,0.5,36.6,0.1,54.9,0.2c2.9,0,5.9,0.1,8.8,0c3.8-0.2,7.6-0.1,11.4-0.3c0.9,0,1.9,0,2.8-0.3c2,0.5,4.1,1.1,6,1.8
		c-5.7-0.1-11.4-0.1-17.1-0.3c-1.6,0-3.3-0.1-4.9-0.1c-20.2,0-40.5-0.1-60.7,0c-3.9,0-7.9,0-11.8,0.2c-3.3,0.2-6.6,0.1-9.9,0.2
		c-4.8,0.1-9.5,0.2-14.3,0.2c-1.1,0-2.3,0-3.3-0.5c1.3-0.4,2.7,0,4.1-0.7C60.7,35.4,59.7,35.3,58.8,35.3z"></path>
	<path d="M164.7,31.6c-0.6,0-1.1,0.1-1.7,0.1c-20.5,0-40.9,0-61.4,0c-4.2,0-8.3,0-12.4,0.2c-9.1,0.4-18.1,0.1-27.2,0.2
		c-0.3,0-0.7,0.1-1-0.3c1.5-0.6,3-1.3,4.6-1.9c0.3,0.3,0.6,0.2,0.9,0.2c5.6,0.1,11.2,0.2,16.8,0.2c5.1,0.1,10.2,0.1,15.3,0.2
		c16.8,0.5,33.6,0.1,50.5,0.2c4.2,0,8.3,0,12.5,0c0.4,0,0.8,0.1,1.1-0.2C163.3,30.9,164,31.1,164.7,31.6z"></path>
	<path d="M155.1,27.1c-0.5,0-1,0.1-1.4,0.1c-9.6,0-19.3,0-28.9,0c-0.4,0-0.8,0-1.4,0c0.9-0.8,1.8-0.8,2.7-0.8
		c8.7,0,17.4,0,26.1,0c0.5,0,1,0.1,1.4-0.2C154.1,26.4,154.7,26.6,155.1,27.1z"></path>
	<path d="M147.9,22.5c-5,0-10,0-15,0c0.3-0.7,0.8-0.7,1.3-0.7c3.9,0,7.8,0,11.6,0c0.5,0,1,0.2,1.5,0.3
		C147.5,22.3,147.7,22.4,147.9,22.5z"></path>
	<path d="M74.2,25.7c0.3,0.3,0.8,0.2,1.2,0.2c6.7,0,13.4-0.1,20.1,0.1c2.4,0.1,4.9-0.1,7.3,0.4c0.5,0.1,1.1,0.2,1.6,0.6
		c-2,0.5-4,0.2-6,0.3c-8.9,0.3-17.7,0.3-26.6,0.2c-0.2,0-0.5-0.1-0.7-0.1C72,26.8,73,26.2,74.2,25.7z"></path>
	<path d="M42.5,63.6c0.8-0.1,1.5-0.2,2.4-0.4c-0.5-0.4-0.9-0.5-1.3-0.6c0.4-0.8,1.1-0.7,1.8-0.7
		c4.1,0.3,8.1,0.1,12.2,0.2c4.8,0.1,9.7,0.2,14.5,0.3c23.1,0.5,46.1,0.2,69.2,0.2c4.3,0,8.6,0,12.9-0.3c4.4-0.2,8.9-0.1,13.3-0.2
		c2.8-0.1,5.6-0.1,8.4-0.2c0.5,0,1.1-0.1,1.1,0.7c-0.2,0.5-1.1-0.1-1,0.7c-0.1,0.6-0.5,0.7-1.1,0.7c-4.8,0-9.7,0.1-14.5-0.1
		c-2.8-0.1-5.5-0.1-8.3-0.2c-24.8-0.5-49.6-0.2-74.5-0.2c-5.4,0-10.9,0.1-16.3,0.3c-5.8,0.2-11.5,0-17.3,0.1
		C43.5,64.1,42.9,64.2,42.5,63.6z"></path>
	<path d="M45.2,59c0.8-0.4,1.7,0,2.6-0.4c-0.7-0.6-1.4-0.5-2.1-0.6c1.2-0.9,2.5-0.7,3.8-0.6c0.6,0.1,1.3,0.1,1.9,0.1
		c5,0,10-0.1,15,0.1c3.9,0.1,7.7,0.1,11.6,0.2c17,0.5,34.1,0.1,51.1,0.2c5.6,0,11.3,0.1,16.9-0.1c4-0.1,8,0,12-0.2
		c4.8-0.2,9.6-0.2,14.4-0.2c2.4,0,4.9-0.3,7.3-0.2c0.6,0,1.3-0.1,1.6,0.6c-0.9,0-1.8,0.1-2.8,0.4c0.3,0.5,0.9,0.2,1.1,0.5
		c-0.4,0.4-0.9,0.3-1.4,0.3c-9.3,0-18.6,0.1-27.8-0.1c-22.6-0.5-45.1-0.2-67.6-0.2c-11.8,0-23.7,0.2-35.5,0.2
		C46.5,59.3,45.8,59.5,45.2,59z"></path>
	<path d="M51.2,45.4c1.6-0.2,3.3,0.2,4.9-0.5c-1.1-0.6-2.2-0.5-3.3-0.5c1.1-0.3,2.3-0.4,3.5-0.5c2.8,0,5.6-0.1,8.4,0
		c5.3,0.3,10.5,0.1,15.8,0.2c3.3,0.1,6.5,0.2,9.8,0.2c20,0,40.1,0,60.1,0.1c4.1,0,8.1-0.3,12.2-0.3c5,0,10,0.1,15-0.1
		c5.7-0.3,11.4,0,17.1-0.1c-2,0.3-4.1,0.3-6.1,0.5c-0.6,0-1.1,0.1-1.9,0.4c1.4,0.9,3,0.1,4.2,0.8c-6.9,0.4-13.7,0.2-20.6,0.2
		c-4,0-8.1-0.1-12.1-0.2c-11.3-0.4-22.5-0.1-33.8-0.2c-11.2-0.1-22.4-0.1-33.6,0c-4.5,0-9,0.1-13.5,0.3C70.1,46,63,45.8,55.8,45.8
		C54.3,45.8,52.7,45.8,51.2,45.4z"></path>
	<path d="M48.3,50c1.6-0.2,3.3,0.2,5-0.5C52.6,49,52,49,51.3,49c-1-0.1-2.1,0.1-3.1-0.2c1.8-0.5,3.7-0.2,5.6-0.3
		c5.7-0.1,11.4-0.1,17,0.1c4.2,0.2,8.3,0.1,12.5,0.2c22,0.6,44,0.1,66,0.2c5.4,0,10.7-0.1,16.1-0.3c8.9-0.3,17.7-0.1,26.6-0.2
		c-2.1,0.2-4.1,0.3-6.2,0.5c-0.6,0-1.3,0.1-2.2,0.5c2.5,0.7,4.8,0.2,6.9,0.8c-7.8,0-15.7,0.1-23.5,0c-3.9-0.1-7.7-0.1-11.6-0.2
		c-20.8-0.5-41.6-0.1-62.4-0.2c-6.6,0-13.2,0-19.8,0.3c-7.9,0.3-15.9,0.1-23.8,0.2C49,50.4,48.5,50.5,48.3,50z"></path>
	<path d="M39.3,68.1c0.9-0.3,1.8-0.1,2.8-0.3c-0.6-0.8-1.5-0.3-2.1-0.8c0.3-0.4,0.7-0.3,1.1-0.3
		c6.9,0,13.8-0.1,20.7,0.1c3.6,0.1,7.1,0.1,10.7,0.2c21.8,0.5,43.6,0.1,65.4,0.2c4,0,8-0.1,12-0.2c8.3-0.3,16.5-0.2,24.8-0.2
		c0.4,0,0.7-0.1,1,0.3c-0.7,0.4-1.4,0.1-2.1,0.2c-0.4,0.1-0.9-0.1-0.9,0.4c0,0.5,0.6,0.3,0.9,0.3c0.5,0.1,0.9,0,1.4,0.2
		c-0.5,0.5-1.1,0.5-1.7,0.5c-5.6-0.1-11.2,0.1-16.8-0.2c-7.4-0.3-14.9-0.3-22.3-0.3c-22.9,0.1-45.9-0.3-68.8,0.2
		c-3.2,0.1-6.4,0.1-9.6,0.2c-5.2,0.2-10.4,0.1-15.6,0.1C39.9,68.6,39.4,68.7,39.3,68.1z"></path>
	<path d="M45.4,54.5c1.6-0.1,3.2-0.2,4.8-0.3c-1.5-0.9-3.3-0.6-4.9-0.9c1.2-0.4,2.5-0.2,3.7-0.2c6.6,0,13.1-0.1,19.7,0
		c3.9,0.1,7.9,0.1,11.8,0.2c13,0.5,26,0.1,39.1,0.2c10,0,20,0.1,30-0.1c4-0.1,8,0,12-0.2c9-0.4,18-0.1,27-0.2
		c-1.7,0.1-3.4,0.3-5.1,0.4c-0.8,0.1-1.6,0-2.6,0.5c1.1,0.3,1.9,0.4,2.8,0.4c1.9,0,3.8,0.2,5.7,0.5c-5,0.1-10,0.3-15,0.2
		c-8.7-0.2-17.5-0.3-26.2-0.5c-19.7-0.4-39.3-0.1-59-0.1c-6.6,0-13.3,0.1-19.9,0.3c-6.7,0.2-13.4,0.4-20.1,0.4
		c-1.1,0-2.2-0.1-3.3-0.2C45.6,54.9,45.5,54.8,45.4,54.5z"></path>
	<path d="M35.8,72.7c1.1-0.1,2.3-0.3,3.5-0.4c-0.5-0.9-1.5-0.3-2-0.8c0.3-0.3,0.7-0.3,1.1-0.3
		c7.5,0.1,15.1-0.2,22.7,0.2c4.1,0.2,8.2,0.2,12.3,0.2c22,0,43.9,0,65.8-0.1c2.9,0,5.7-0.2,8.6-0.3c7.6-0.2,15.2-0.1,22.8-0.1
		c0.4,0,0.8-0.2,1,0.4c-0.4,0-0.8,0-1.2,0.1c-0.3,0-0.6,0.1-0.6,0.4c0,0.4,0.4,0.2,0.6,0.3c0.1,0,0.3,0,0.5,0
		c-0.1,0.6-0.6,0.7-1.1,0.7c-4.6,0-9.2,0.2-13.8-0.1c-4.4-0.2-8.7-0.1-13.1-0.2c-23.7-0.6-47.4-0.1-71.1-0.2
		c-6.3,0-12.5,0.2-18.8,0.3c-5.4,0.1-10.9,0.1-16.3,0.2C36.5,73.2,35.8,73.5,35.8,72.7z"></path>
	<path d="M153.9,121.7c-0.8,0.1-1.7,0.2-2.5,0.3c0,0.1,0,0.2,0,0.3c1.1,0.1,2.3,0.2,3.4,0.3c-0.1,0.7-0.7,0.4-1.1,0.5
		c-2.9,0.3-5.8,0.2-8.7,0.1c-4.3-0.2-8.6,0-12.8-0.1c-4.9-0.1-9.8-0.1-14.7-0.2c-18.5-0.6-36.9-0.1-55.4-0.2c-5.1,0-10.2,0-15.2,0
		c-0.2-0.8,0.1-1,0.9-1c1.7,0,3.4,0,5.2,0c19.5,0,38.9,0,58.4,0c3.4,0,6.8,0.1,10.2-0.1c9.8-0.6,19.6-0.4,29.4-0.4
		C151.9,121.2,152.9,121.3,153.9,121.7z"></path>
	<path d="M152.1,117.1c-0.1,0-0.3,0-0.4,0C151.8,116.9,151.9,116.9,152.1,117.1z"></path>
	<path d="M163,139.9c-0.1,0-0.2,0-0.3,0C162.8,139.8,162.9,139.8,163,139.9z"></path>
	<path d="M62.4,194.4c-0.4,0-0.8,0.1-1.2-0.2C61.6,194.2,62.1,194.1,62.4,194.4z"></path>
	<path d="M69.3,212.5c-0.3,0.1-0.6,0.1-0.8-0.1C68.8,212.1,69.1,212,69.3,212.5z"></path>
</g>
<polygon class="st2" points="67.6,212.4 67.6,212.4 67.6,212.3 "></polygon>
</svg>
