<!--?xml version="1.0" encoding="utf-8"?-->
<!-- Generator: Adobe Illustrator 24.2.3, SVG Export Plug-In . SVG Version: 6.00 Build 0)  -->
<svg version="1.1" id="Camada_1" xmlns="http://www.w3.org/2000/svg" xmlns:xlink="http://www.w3.org/1999/xlink" x="0px" y="0px" viewBox="0 0 229 418" style="enable-background:new 0 0 229 418;" xml:space="preserve">
<style type="text/css">
	.st0{fill:#D90202;}
	.st1{fill:#79D5FA;}
	.st2{fill:#9B1118;}
	.st3{fill:#CA84F8;}
	.st4{fill:#0906FE;}
</style>
<g onclick="select(this)" class="" id="gola-primaria" fill="#000000">
	<path d="M78,8c0.9-0.2,1.5-0.9,2.2-1.4c0.7-0.6,1.5-1.3,2-2.1c2.1-3,5.3-3.9,8.6-3.9c15.2-0.1,30.4-0.1,45.7,0
		c1.9,0,3.7,0.5,5.5,1.1c0.9,0.3,1.6,0.8,2.2,1.6c1.6,1.8,3.1,3.8,5.2,5.1c1.8,0.9,2.3,2.2,1.7,4.6c-1,3.9-3.2,7.2-6,10
		c-3.2,3.2-6.7,6-10.7,8.1c-2.5,1.4-5,2.8-7.8,3.6c-2.8,0.9-5.6,1.6-8.5,1.9c-10.2,1-19.4-1.6-27.8-7.3c-4.5-3-8.6-6.4-11.5-11
		c-1.3-2.2-2.3-4.4-2.5-7C76.2,9.6,76.8,8.7,78,8z M144.2,9.1C134,9.9,123.8,11,113.7,11c-10.2,0-20.3-1.3-30.4-2.1
		c1.5,8,17.6,18.9,28.5,19.5C124.5,29.1,140.9,19.4,144.2,9.1z"></path>
</g>
<g onclick="select(this)" class="" id="estampa-primaria" fill="#000000">
	<path d="M229,116.2c-6.9,2.8-14,4.3-21.3,5.2c-6.2,0.8-12.4,0.7-18.6,0c-1.5-0.2-3.1-0.4-4.6-1.3c-0.2,2-0.4,4-0.6,5.9
		c-0.9,7.3-1.3,14.7-1.4,22c0,2.2,0.1,4.3,0.5,6.4c0.4,1.9-0.1,3.9-0.2,5.9c0,0.8-0.2,1.7-0.2,2.5c0.2,6.4-0.6,12.9,0,19.3
		c0.1,1.5,0,3-0.1,4.6c-0.3,3.1,0.2,6,0.9,9c1.6,7.2,1.4,14.5,0.3,21.8c-0.3,2.1-0.4,4.2,0.3,6.4c1.8,5.5,1.8,11.1,0.9,16.7
		c-0.2,1.4-0.2,2.8,0.1,4.2c0.9,3.8,0.5,7.7,0.7,11.6c0.3,5.9,0.7,11.9,1.4,17.8c0.2,1.9,0.2,3.9,0.3,5.9c0.1,2.1-0.3,2.6-2.4,3.2
		c-2.9,0.8-5.8,1.1-8.8,1.4c-7.7,0.8-15.5,0.9-23.2,1c-11.3,0.2-22.5,0.7-33.8,0.8c-12.4,0.2-24.9-0.8-37.3-0.9
		c-8.4,0-16.8-0.1-25.2-0.7c-4.2-0.3-8.4-0.8-12.5-1.7c-0.2,0-0.3-0.1-0.5-0.1c-3.2-0.8-3.6-1.2-3.4-4.5c0.5-7.8,1-15.6,1.6-23.4
		c0.1-1.6,0.3-3.2,0.2-4.8c0-2.7,0.1-5.4,0.6-8.1c0.3-1.4,0.2-2.8,0-4.2c-0.4-2.9-0.3-5.7,0.3-8.6c0.2-1,0.2-2,0.1-3
		c-0.3-4.5-1-9.1-0.8-13.6c0.2-4.3,1.2-8.5,2.6-12.5c0.4-1.1,0.6-2.2,0.5-3.4c-0.2-1.2-0.1-2.4,0.1-3.6c0.3-1.6,0.2-3.3,0.1-4.9
		c-0.2-3.3-0.2-6.6-0.2-9.9c-0.1-12.9,0-25.8-0.1-38.7c0-5.2-1-10.3-1.5-15.4c-0.1-1.3-0.5-2.6-0.4-3.9c-7.9,2.5-15.9,2-24,1.5
		c-5.7-0.4-11.3-1.3-16.7-3c-0.9-0.3-1.7-0.6-2.5-1.2c0-1,0-2.1,0-3.1c0.8-1.6,0.8-3.3,1.1-5c1.9-9.7,2.8-19.6,4.4-29.4
		C6.6,74.7,7.1,69,8.4,63.4c2.1-8.7,5.6-16.7,11.6-23.5c2.3-2.6,5.1-4.6,7.5-7.1c0.6-0.6,1.3-1,2-1.4c6.9-3.3,13.9-6.2,21-9.2
		c7.6-3.2,15-6.7,22-10.9c0.5-0.3,0.9-0.7,1.3-1.2C75,9,76.2,8,78,8c-1.2,0.7-1.8,1.7-1.7,3.2c0.2,2.6,1.1,4.9,2.5,7
		c2.9,4.7,7,8,11.5,11c8.4,5.7,17.6,8.3,27.8,7.3c2.9-0.3,5.7-1,8.5-1.9c2.8-0.9,5.3-2.3,7.8-3.6c4-2.1,7.5-5,10.7-8.1
		c2.9-2.8,5-6.1,6-10c0.6-2.5,0.1-3.7-1.7-4.6c1.8-0.1,3,1,4.1,2.2c0.3,0.3,0.4,0.7,0.8,0.9c4,2.4,7.9,4.8,12.1,6.7
		c10.4,4.7,21.1,8.8,31.5,13.6c0.7,0.3,1.4,0.8,2,1.3c0.9,0.8,1.9,1.6,2.8,2.4c3,2.3,5.6,5,7.9,8c5.5,7.1,8.3,15.3,10,24
		c1,4.9,1.2,9.9,2.4,14.8c2.2,8.6,3.4,17.3,4.8,26c0.3,1.7,0.4,3.4,1.1,5C229,114.1,229,115.1,229,116.2z"></path>
	<path d="M144.2,9.1c-3.3,10.3-19.7,20-32.5,19.2c-10.9-0.6-27-11.5-28.5-19.5c10.2,0.9,20.3,2.2,30.4,2.1
		C123.8,11,134,9.9,144.2,9.1z"></path>
</g>
<path d="M228.7,112.1c0.1,0,0.2,0,0.3-0.1c0,0.6,0,1.3,0,1.9C228.9,113.4,228.6,112.8,228.7,112.1z"></path>
<path d="M0.2,114.5c0.1,0,0.1,0.1,0.2,0.1c0,0.3,0.1,0.6-0.2,0.9C0.2,115.1,0.2,114.8,0.2,114.5z"></path>
<path d="M43.7,122.7c0.2,0.2,0.2,0.5,0.1,0.7C43.6,123.2,43.6,123,43.7,122.7z"></path>
<path d="M43.9,125.2c0.2,0.1,0.2,0.3,0,0.4C43.8,125.5,43.8,125.3,43.9,125.2z"></path>
<path d="M44.2,127.3c0.2,0.1,0.2,0.1,0,0.2C44.2,127.5,44.1,127.5,44.2,127.3C44.1,127.4,44.1,127.3,44.2,127.3z"></path>
<path d="M39.4,93.4c-0.1-0.1-0.1-0.3-0.2-0.4c0,0,0.1,0,0.1,0C39.3,93.1,39.3,93.2,39.4,93.4
	C39.4,93.4,39.4,93.4,39.4,93.4z"></path>
<path d="M38.4,90C38.4,90,38.4,90,38.4,90C38.3,90,38.4,90,38.4,90C38.4,90,38.4,90,38.4,90z"></path>
<path d="M41.7,257.4c0.1,0.4,0.1,0.7-0.1,1C41.5,258.1,41.5,257.7,41.7,257.4z"></path>
<path d="M42.9,207.7c0,0.1,0,0.2-0.1,0.3C42.8,207.9,42.8,207.8,42.9,207.7z"></path>
<g onclick="select(this)" class="" id="estampa-secundaria" fill="#bf0811">
	<path d="M43,230.6c6.5,0,12.9,0,19.4,0c3.4,0,6.8,0,10.2,0c37.2,0,74.3,0,111.5,0c0.4,0,0.7,0,1.1,0
		c0.2,1,0.3,1.9,0.2,2.9c-0.5,0-1,0-1.6,0c-46.6,0-93.2,0-139.7,0c-0.5,0-1,0-1.6,0C42.5,232.5,42.6,231.5,43,230.6z"></path>
	<path d="M43.5,205.4c2.8,0,5.7,0,8.5,0c43.6,0,87.1,0,130.7,0c0.6,0,1.2,0,1.8,0c0.2,1,0.2,2,0,2.9c-0.5,0-1,0-1.6,0
		c-46.2,0-92.4,0-138.5,0c-0.5,0-1,0-1.6-0.1c0-0.1,0-0.2,0-0.3c0-0.1,0-0.2,0.1-0.3C43.1,206.9,43.1,206.1,43.5,205.4z"></path>
	<path d="M41.8,256c0.6,0,1.1-0.1,1.7-0.1c46.8,0,93.5,0,140.3,0c1.2,0,1.9,0.2,1.9,1.5c0,0.4,0,0.9,0,1.3
		c-47.7,0-95.4,0-143.1,0c-0.3,0-0.6-0.1-1-0.1c0-0.1,0-0.2,0-0.3c0.2-0.3,0.2-0.7,0.1-1C41.8,256.9,41.8,256.5,41.8,256z"></path>
	<path d="M40.5,281.1c48.4,0,96.8,0,145.2,0c0.5,0,1.2-0.4,1.5,0.5c-0.4,0.9-1.3,1.1-2.1,1.4c-1.8,0.5-3.6,0.7-5.4,1
		c-1.1,0-2.2,0-3.4,0c-40.9,0-81.9,0-122.8,0c-1.2,0-2.3,0-3.5,0c-2.6-0.3-5.3-0.6-7.8-1.5C41.6,282.2,40.8,282.1,40.5,281.1z"></path>
	<path d="M183.1,132.6c-0.5,0-1,0-1.4,0c-45.1,0-90.3,0-135.4,0c-0.6,0-1.4,0.2-1.6-0.8c0-0.3,0-0.6-0.1-0.9
		c-0.1-1,0.3-1.2,1.2-1.2c43,0,86,0,129,0c2.5,0,5,0,7.4,0c0.4,0,0.9-0.2,1.1,0.4C183.3,131,183.2,131.8,183.1,132.6z"></path>
	<path d="M182.6,183.2c-21.9,0-43.8,0-65.7,0c-23.3,0-46.6-0.1-69.9-0.1c-0.4,0-0.9-0.1-1.3-0.1c0-0.5-0.1-0.9-0.1-1.4
		c-0.2-1.2,0.4-1.3,1.4-1.3c25.3,0,50.7,0.1,76,0c19.8-0.1,39.6,0,59.4-0.1C182.7,181.2,182.7,182.2,182.6,183.2z"></path>
	<path d="M45.4,155c0.5,0,1,0,1.6,0c44,0,88,0,132,0c1.4,0,2.7,0,4.1,0.1c0.2,0.8,0,1.5,0,2.3c-0.2,0.4-0.4,0.6-0.9,0.6
		c-0.8,0-1.7,0-2.5,0c-44.2,0-88.4,0-132.6,0c-0.6,0-1.1-0.1-1.7-0.1C45.4,156.9,45.4,155.9,45.4,155z"></path>
	<path d="M113.9,106.1c23.5,0,47,0,70.5,0c0.5,0,1.5-0.5,1.5,0.5c0,1.8-0.4,2.2-1.6,2.2c-38.7,0-77.3,0-116,0
		c-8.3,0-16.6,0-24.8,0c-0.4,0-1.1,0.3-1.3-0.3c-0.2-0.7-0.3-1.5-0.3-2.2c0-0.3,0.4-0.3,0.6-0.3c0.6,0,1.1,0,1.7,0
		C67.4,106,90.6,106,113.9,106.1C113.9,106,113.9,106,113.9,106.1z"></path>
	<path d="M113.9,109.3c23.4,0,46.8,0,70.2,0c0.4,0,1.3-0.6,1.3,0.5c0,2.1-0.2,2.4-1.4,2.4c-38,0-76.1,0-114.1,0
		c-8.6,0-17.3,0-25.9,0c-0.5,0-1.1,0.3-1.3-0.3c-0.3-0.7-0.4-1.6-0.3-2.3c0-0.5,0.7-0.3,1-0.3c4.3,0,8.6,0,12.8,0
		C75.4,109.3,94.6,109.3,113.9,109.3z"></path>
	<path d="M114.1,96.3c13.1,0,26.2,0,39.4,0c11.1,0,22.2,0,33.2,0.1c0.4,0,1.2-0.4,1.1,0.5c-0.1,0.7,0.1,1.8-1.2,1.6
		c-0.2,0-0.4,0-0.6,0c-33,0-65.9,0-98.9,0c-15.1,0-30.2,0-45.4,0c-0.6,0-1.3,0.2-1.5-0.8c-0.3-1.5-0.3-1.5,1.2-1.5
		C65.7,96.3,89.9,96.3,114.1,96.3z"></path>
	<path d="M114,99.6c23.9,0,47.8,0,71.8,0c0.5,0,1.3-0.5,1.4,0.5c0.1,1.3-0.4,1.8-1.5,1.8c-15.3,0-30.6,0-46,0
		c-32.4,0-64.7,0-97.1,0c-1.5,0-1.8-0.4-1.8-1.9c0-0.4,0.1-0.5,0.5-0.5c0.4,0,0.7,0,1.1,0C66.2,99.6,90.1,99.6,114,99.6
		C114,99.6,114,99.6,114,99.6z"></path>
	<path d="M114,102.9c23.7,0,47.3,0,71,0c0.5,0,1.4-0.6,1.4,0.6c0.1,1.5-0.3,1.9-1.5,1.9c-28.1,0-56.1,0-84.2,0
		c-19.2,0-38.4,0-57.6,0c-1.4,0-2-0.7-1.8-2.1c0-0.3,0.2-0.4,0.5-0.4c0.4,0,0.7,0,1.1,0C66.6,102.8,90.3,102.8,114,102.9
		C114,102.8,114,102.8,114,102.9z"></path>
	<path d="M114.1,89.8c24.8,0,49.5,0,74.3,0c0.5,0,1.3-0.4,1.3,0.4c0,0.8-0.5,1.3-1.5,1.3c-24.7,0-49.4,0-74.2,0
		c-24.5,0-49,0-73.6,0c-0.3,0-0.6,0-1,0c-1,0-1-0.8-1-1.3c-0.1-0.7,0.6-0.4,1-0.4c22.5,0,45,0,67.6,0
		C109.4,89.8,111.8,89.8,114.1,89.8C114.1,89.8,114.1,89.8,114.1,89.8z"></path>
	<path d="M188.8,93.1c-0.3,1.9-0.3,1.9-2,1.9c-32.8,0-65.6,0-98.4,0c-15.7,0-31.4,0-47.2,0c-0.5,0-1.2,0.3-1.5-0.6
		c-0.4-1.2-0.4-1.4,0.9-1.4c37.8,0,75.5,0,113.3,0c11.2,0,22.4,0,33.6,0C187.9,93.1,188.3,93.1,188.8,93.1z"></path>
	<path d="M191.2,86.6c-0.2,1.3-0.9,1.5-2,1.5c-33.5,0-66.9,0-100.4,0c-16.5,0-33,0-49.4,0c-0.3,0-0.6,0-0.8,0
		c-0.9,0.1-1.2-0.5-1.2-1.1c0-0.8,0.7-0.4,1.1-0.4c14,0,28.1,0,42.1,0c36.4,0,72.8,0,109.2,0C190.2,86.6,190.7,86.6,191.2,86.6z"></path>
	<path d="M114.2,83.4c25.4,0,50.9,0,76.3,0c0.4,0,0.7,0,1.1,0c0.3,0,0.7-0.1,0.6,0.4c0,0.3-0.1,0.8-0.6,0.8
		c-0.4,0-0.8,0-1.2,0c-50.9,0-101.8,0-152.6,0c-0.2,0-0.4,0-0.6,0c-0.7,0.1-1.3,0-1.2-0.9c0.1-0.8,0.8-0.4,1.1-0.4
		c12.9,0,25.8,0,38.8,0C88.7,83.4,101.5,83.4,114.2,83.4z"></path>
	<path d="M34.6,80.1c0.5,0,1,0,1.4,0c52,0,104,0,156,0c0.5,0,1.3-0.4,1.4,0.4c0.1,1-0.9,0.6-1.5,0.6
		c-51.9,0-103.7,0-155.6,0C35.6,81.1,34.8,81.3,34.6,80.1z"></path>
	<path d="M113.6,74.4c-26.4,0-52.9,0-79.3,0c-0.5,0-1.3,0.4-1.3-0.4c0-0.6,0.9-0.3,1.3-0.3c52.9,0,105.7,0,158.6,0
		c0.5,0,1.4-0.4,1.4,0.4c0,0.7-0.9,0.3-1.4,0.3C166.5,74.4,140.1,74.4,113.6,74.4z"></path>
	<path d="M113.9,77.7c-26.3,0-52.6,0-78.9,0c-0.5,0-1.5,0.4-1.4-0.5c0-0.6,0.9-0.3,1.4-0.3c52.1,0,104.2,0,156.3,0
		c0.8,0,1.6,0,2.4,0c0.2,0,0.5,0,0.5,0.3c0,0.3-0.2,0.4-0.5,0.4c-0.4,0-0.7,0-1.1,0C166.3,77.7,140.1,77.7,113.9,77.7z"></path>
</g>
</svg>
