<!--?xml version="1.0" encoding="utf-8"?-->
<!-- Generator: Adobe Illustrator 24.2.3, SVG Export Plug-In . SVG Version: 6.00 Build 0)  -->
<svg version="1.1" id="Camada_1" xmlns="http://www.w3.org/2000/svg" xmlns:xlink="http://www.w3.org/1999/xlink" x="0px" y="0px" viewBox="0 0 229 418" style="enable-background:new 0 0 229 418;" xml:space="preserve">
<style type="text/css">
	.st0{fill:#FD0202;}
	.st1{fill:#D970DB;}
	.st2{fill:#70EE02;}
</style>
<g onclick="select(this)" class="" id="gola-primaria" fill="#011023">
	<path d="M78,8c0.8-0.1,1.3-0.6,1.8-1.1c0.8-0.7,1.6-1.4,2.2-2.2c2.4-3.4,5.9-4.1,9.6-4.1c10.8-0.1,21.7,0,32.5,0
		c3.7,0,7.4,0,11,0c2.1,0,4.1,0.4,6.1,0.9c1.2,0.3,2.2,1,3.1,2c1.5,1.8,3,3.7,5.1,4.9c1.9,0.9,2.2,2,1.6,4.7c-0.9,4-3.1,7.3-6,10.1
		c-3.2,3.1-6.7,5.8-10.6,8c-2.5,1.4-5,2.6-7.6,3.6c-4.9,1.8-10,2.5-15.3,2.1c-6.9-0.5-13.4-2.4-19.3-6.2c-4.7-3-9.1-6.2-12.5-10.7
		c-1.6-2.1-2.7-4.4-3.4-7C75.9,10.5,76.2,9.2,78,8z M144.3,9.1c-1.6,0.1-3.1,0.2-4.5,0.3c-8.3,0.7-16.6,1.3-25,1.5
		c-6.4,0.2-12.8-0.5-19.1-1C91.8,9.6,88,9.2,84.1,8.9C83.3,8.8,83,9,83.4,9.8c0.5,1.1,1,2.3,1.8,3.2c3.9,4.9,8.5,9,14.2,11.7
		c5.4,2.7,11.2,4.2,17.3,3.4c9.8-1.2,17.7-6,24.1-13.4C142.3,13.2,143.5,11.4,144.3,9.1z"></path>
</g>
<g onclick="select(this)" class="" id="estampa-primaria" fill="#011023">
	<path d="M229,116.1c-6.9,2.8-14,4.3-21.3,5.2c-6.2,0.8-12.4,0.7-18.6,0c-1.5-0.2-3.1-0.4-4.6-1.3c-0.2,2.1-0.4,4.1-0.6,6
		c-0.9,7.2-1.3,14.5-1.4,21.8c0,2.2,0.1,4.4,0.5,6.6c0.4,2-0.1,3.9-0.2,5.8c0,0.7-0.2,1.4-0.1,2.2c0.2,6.5-0.6,13.1,0,19.6
		c0.1,1.5,0,3-0.1,4.4c-0.3,3.1,0.2,6.1,0.9,9.1c1.6,7.2,1.4,14.5,0.3,21.8c-0.3,2.1-0.4,4.2,0.3,6.4c1.8,5.4,1.8,11,0.9,16.6
		c-0.2,1.5-0.3,2.9,0.1,4.4c0.9,3.8,0.4,7.7,0.6,11.6c0.3,5.9,0.7,11.8,1.4,17.7c0.3,2,0.2,4.1,0.3,6.2c0,1.7-0.4,2.2-2.1,2.7
		c-3,0.9-6.1,1.2-9.2,1.5c-7.7,0.8-15.4,0.9-23.1,1c-11.2,0.2-22.5,0.7-33.7,0.8c-12.5,0.2-24.9-0.8-37.4-0.8
		c-8.4,0-16.8-0.1-25.2-0.7c-4.1-0.3-8.3-0.8-12.4-1.7c-0.2,0-0.3-0.1-0.5-0.1c-3.4-0.8-3.7-1.2-3.5-4.7c0.5-7.7,1-15.5,1.5-23.2
		c0.1-2.1,0.3-4.1,0.2-6.2c0-1.8,0-3.5,0.4-5.3c0.4-2.3,0.5-4.5,0.1-6.8c-0.4-2.5-0.1-5,0.4-7.5c0.2-1,0.2-2,0.1-3
		c-0.3-4.5-1-9.1-0.8-13.6c0.2-4.4,1.2-8.5,2.7-12.6c0.4-1,0.6-2,0.4-3.1c-0.2-1.2-0.2-2.5,0.1-3.7c0.3-1.7,0.2-3.3,0.1-5
		c-0.2-3.3-0.2-6.5-0.2-9.8c-0.1-12.9,0-25.9-0.1-38.8c0-5.1-1-10.2-1.5-15.3c-0.1-1.3-0.3-2.6-0.5-3.8c-8.8,2.5-17.7,2-26.6,1.1
		c-4.7-0.5-9.4-1.3-14-2.8c-0.9-0.3-1.7-0.6-2.5-1.2c0-1,0-2.1,0-3.1c0.4-0.1,0.3-0.4,0.3-0.7c0.3-1.8,0.7-3.7,1-5.5
		c1.9-10,2.9-20.1,4.4-30.1c0.9-6,1.5-12,3.2-17.8c2.7-9.7,7.4-18.3,15.2-24.9c1.1-0.9,2.2-1.9,3.2-2.9c0.6-0.6,1.3-1,2-1.4
		c6.5-3.1,13.1-5.9,19.8-8.7c7.6-3.1,15-6.6,22.1-10.7c1-0.6,2-1.3,2.8-2.2C75.2,8.7,76.4,8,78,8c-1.7,1.3-2.1,2.5-1.5,4.8
		c0.7,2.5,1.8,4.8,3.4,7c3.3,4.5,7.8,7.8,12.5,10.7c5.9,3.7,12.4,5.7,19.3,6.2c5.2,0.4,10.3-0.4,15.3-2.1c2.7-1,5.2-2.2,7.6-3.6
		c3.9-2.2,7.4-4.9,10.6-8c2.8-2.8,5.1-6.1,6-10.1c0.6-2.7,0.2-3.8-1.6-4.7c1.8-0.1,3,1,4.1,2.2c0.3,0.3,0.4,0.7,0.8,0.9
		c4,2.3,7.9,4.8,12.1,6.7c10.4,4.7,21.1,8.8,31.5,13.6c0.7,0.3,1.3,0.7,1.9,1.2c1.1,0.9,2.1,1.8,3.2,2.7c3.7,2.9,6.8,6.3,9.4,10.2
		c4.3,6.6,6.7,13.9,8.3,21.6c1,4.9,1.2,9.8,2.4,14.7c1.5,5.7,2.6,11.5,3.5,17.4c0.5,3.6,1,7.3,1.7,10.8c0.2,0.8-0.2,1.9,0.8,2.5
		C229,113.7,229,114.9,229,116.1z"></path>
	<path d="M144.3,9.1c-0.8,2.3-2.1,4.1-3.5,5.8c-6.4,7.4-14.3,12.2-24.1,13.4c-6.1,0.7-11.8-0.8-17.3-3.4C93.8,22,89.1,18,85.2,13
		c-0.8-1-1.3-2.1-1.8-3.2c-0.4-0.9-0.1-1,0.7-0.9c3.9,0.4,7.7,0.8,11.6,1.1c6.4,0.5,12.7,1.2,19.1,1c8.3-0.2,16.7-0.8,25-1.5
		C141.3,9.3,142.7,9.2,144.3,9.1z"></path>
</g>
<g onclick="select(this)" class="" id="estampa-secundaria" fill="#9e9e9e">
	<path d="M40.5,273.7c0.5-0.2,0.6-0.7,0.9-1.1c18.8-27.6,37.7-55.3,56.5-83c21.1-30.9,42.2-61.8,63.2-92.7
		c11.4-16.7,22.8-33.4,34.2-50.2c0.2-0.3,0.5-0.6,0.9-1.2c-0.2,1.7-0.5,3.1-0.5,4.4c0.1,2-0.5,4-0.6,6c0,0.6-0.3,1-0.6,1.4
		C185.3,71,176,84.5,166.8,98.1c-12.3,18-24.6,36.1-36.9,54.1c-10.5,15.5-21.1,30.9-31.6,46.4c-12.3,18.1-24.6,36.1-36.9,54.2
		c-6.3,9.2-12.5,18.4-18.8,27.5c-0.4,0.5-0.8,1-1.3,1.5c-0.9-0.5-1.1-1.3-1-2.2c0.1-1.5,0-3.1,0-4.7
		C40.3,274.5,40.3,274.1,40.5,273.7z"></path>
	<path d="M44.2,282.8c0.3-0.9,1-1.7,1.6-2.5c13-19.1,26.1-38.3,39.1-57.4c13.5-19.9,27.1-39.7,40.6-59.6
		c11.6-16.9,23.1-33.9,34.6-50.8c11.3-16.5,22.5-33,33.8-49.6c0.2-0.4,0.5-0.7,0.8-1.1c0.4,0.3,0.2,0.6,0.2,0.9
		c0,2.5-0.1,4.9-0.1,7.4c0,0.6-0.2,1.1-0.5,1.6c-17.5,25.7-35.1,51.4-52.6,77.1c-14,20.5-28,41-41.9,61.5
		c-13.5,19.8-26.9,39.5-40.4,59.3c-2.7,4-5.5,8.1-8.2,12.1c-0.5,0.7-0.9,1.4-1.6,1.9C47.8,283.9,45.9,283.6,44.2,282.8z"></path>
	<path d="M52.8,284.2c1.4-2.1,2.8-4.2,4.3-6.3c14.8-21.8,29.7-43.5,44.5-65.3c16.7-24.5,33.4-48.9,50.1-73.4
		c13.9-20.4,27.8-40.8,41.7-61.2c0.2-0.4,0.5-0.7,0.9-1.3c-0.2,1.5-0.4,2.7-0.8,3.9c-0.8,2.5-1.9,4.9-2.6,7.3
		c-1.7,6.2-5.5,11.1-9,16.3c-13.1,19.2-26.1,38.4-39.2,57.6c-13.6,20-27.3,40-40.9,60c-13.7,20.1-27.4,40.2-41,60.3
		c-0.6,0.9-1.3,1.8-1.9,2.7C56.8,284.8,54.8,284.7,52.8,284.2z"></path>
	<path d="M62.2,285c-0.2-0.5,0.3-0.8,0.5-1.2c18.4-27.1,36.9-54.1,55.3-81.2c15.7-23,31.3-46,47-68.9
		c7-10.3,14-20.5,21-30.8c0.2-0.3,0.4-0.5,0.6-0.8c0.1,0.3,0.2,0.6,0.2,0.8c-0.2,1.2-0.7,2.5,1.1,3c0,0,0,0.3,0,0.4
		c-0.2,3.1-1.3,5.8-3.2,8.4c-7.9,10.8-15.3,22.1-22.9,33.2c-10,14.7-20,29.4-30.1,44.1c-9.3,13.7-18.6,27.3-28,41
		c-10.6,15.6-21.2,31.1-31.8,46.7c-1.3,1.8-2.6,3.6-3.7,5.6C66.2,285.4,64.2,285.3,62.2,285z"></path>
	<path d="M41.5,263.1c5-7.4,10-14.8,15-22.1c9.3-13.6,18.6-27.3,27.9-40.9c9.3-13.6,18.6-27.3,27.9-40.9
		c9.2-13.5,18.4-27,27.6-40.5c6.9-10.1,13.8-20.3,20.7-30.4c9.2-13.5,18.4-27,27.6-40.5c1.4-2,2.9-4.1,4.2-6.1
		c0.6-0.9,1.1-1.1,2.1-0.8c1.8,0.7,1.8,0.6,0.8,2.2c-14.5,21.3-29,42.6-43.6,63.9c-16.2,23.7-32.4,47.5-48.6,71.2
		c-17.9,26.3-35.9,52.6-53.9,79c-2.4,3.5-4.9,6.9-7.3,10.4c-0.2,0.3-0.4,0.8-1,0.7C41,266.5,40.9,264.8,41.5,263.1z"></path>
	<path d="M42.1,250.7c0.5-0.1,0.7-0.5,0.9-0.9c15.1-22.2,30.2-44.3,45.3-66.5c13.6-20,27.3-40,41-60
		c11.3-16.6,22.7-33.3,34-50c7.7-11.2,15.3-22.5,23-33.7c0.3-0.4,0.4-1.1,1-1c0.9,0.1,1.8,0.4,2.6,0.8c0.4,0.2-0.1,0.5-0.2,0.8
		c-2.7,4-5.4,7.9-8.1,11.9c-13.1,19.2-26.1,38.3-39.2,57.5c-13.5,19.8-27,39.6-40.5,59.4c-13.8,20.2-27.5,40.4-41.3,60.7
		c-6.1,8.9-12.1,17.8-18.2,26.7c-0.2,0.3-0.3,0.6-0.7,0.8C41.6,255,42,252.9,42.1,250.7z"></path>
	<path d="M43,238.5c0.5-0.2,0.6-0.6,0.9-1c9.2-13.5,18.4-27.1,27.7-40.6c13.5-19.9,27.1-39.7,40.6-59.6
		c9.4-13.8,18.8-27.6,28.2-41.3c11.2-16.5,22.5-33,33.7-49.4c1.9-2.8,3.9-5.7,5.8-8.5c0.6-0.9,1.2-1.2,2.2-0.8
		c1.8,0.6,1.8,0.5,0.7,2.1c-19,27.9-38,55.8-57,83.7c-18,26.4-36,52.7-53.9,79.1c-9.6,14-19.1,28.1-28.7,42.1
		c-0.2,0.4-0.4,0.8-0.8,1c-0.1-1.8,0.5-3.6,0.6-5.4C42.9,239.3,42.9,238.9,43,238.5z"></path>
	<path d="M43.2,227c8.5-12.5,17-25,25.6-37.6c13.2-19.4,26.4-38.7,39.6-58.1c13.6-19.9,27.2-39.8,40.7-59.7
		c8.1-11.9,16.2-23.8,24.3-35.7c0.3-0.4,0.4-1,1-0.9c0.9,0.2,1.8,0.4,2.6,0.9c0.4,0.2-0.2,0.6-0.3,0.9c-3.3,4.9-6.7,9.8-10.1,14.8
		c-17.3,25.4-34.6,50.8-51.9,76.2c-18,26.4-36,52.9-54,79.3c-5.8,8.5-11.6,17-17.4,25.4c-0.2,0.3-0.3,0.7-0.7,0.7
		c-0.3-1.5,0.4-3,0.5-4.4C43,228.2,43.1,227.6,43.2,227z"></path>
	<path d="M42.3,214.3c1.3-0.9,2-2.3,2.9-3.6c6.8-9.8,13.5-19.7,20.2-29.6c10-14.7,20-29.3,30-44
		c13.8-20.3,27.6-40.6,41.5-60.9c9.8-14.3,19.5-28.7,29.3-43c0.5-0.7,0.8-0.9,1.6-0.6c2.1,0.8,2.1,0.8,0.9,2.5
		c-13.7,20.1-27.4,40.2-41.1,60.2c-13.6,20-27.2,40-40.8,60c-13.6,20-27.2,40-40.9,59.9c-1,1.4-1.9,2.8-3,4.2
		c-0.3,0.5,0,0.9-0.2,1.4C42.3,218.8,42.1,216.5,42.3,214.3z"></path>
	<path d="M45.6,198.6c1-0.9,1.6-2.2,2.4-3.3c13.7-20,27.3-40,40.9-60.1c17.2-25.2,34.4-50.4,51.5-75.6
		c6.6-9.6,13.2-19.3,19.7-28.9c0.5-0.8,1.8-0.8,2.5-0.1c0.4,0.5-0.1,0.7-0.3,1c-2.4,3.5-4.8,7-7.1,10.5c-8.5,12.5-17,24.9-25.5,37.4
		c-13.7,20.1-27.3,40.1-41,60.2c-12.4,18.2-24.8,36.3-37.1,54.5c-2.8,4.1-5.6,8.3-8.4,12.4C43.4,203.8,44.2,201.1,45.6,198.6z"></path>
	<path d="M45.6,188.7c2.5-3.6,4.9-7.2,7.4-10.8c14.5-21.2,28.9-42.4,43.4-63.6c13.6-20,27.3-40,40.9-60.1
		c5.9-8.7,11.8-17.4,17.8-26c0.2-0.3,0.3-0.9,0.9-0.7c0.7,0.3,1.1,0.5,0.5,1.4c-7.4,10.8-14.8,21.7-22.2,32.6
		c-10.4,15.3-20.9,30.6-31.3,46c-12.9,18.9-25.8,37.8-38.7,56.8c-5.9,8.7-11.9,17.4-17.8,26.2c-0.2,0.3-0.4,0.5-0.6,0.7
		C45.5,190.3,45.6,189.5,45.6,188.7z"></path>
</g>
<g onclick="select(this)" class="" id="estampa-terciaria" fill="#000000">
	<path d="M183.8,126.8c-1.2,1.2-1.9,2.7-2.9,4.1c-15.2,22.3-30.4,44.5-45.6,66.8c-19.6,28.8-39.3,57.6-58.9,86.5
		c-0.3,0.4-0.5,0.8-0.8,1.2c-0.5,0.1-0.9,0.1-1.4,0c1.9-2.9,3.8-5.7,5.7-8.6c24.9-36.6,49.8-73.1,74.7-109.6
		c7.9-11.6,15.8-23.2,23.8-34.9c1.5-2.2,3-4.4,4.5-6.6c0.3-0.4,0.5-0.9,1-0.9C184.1,125.4,183.9,126.1,183.8,126.8z"></path>
	<path d="M182.6,140.3c-1.2,1.7-2.5,3.5-3.7,5.3c-11.2,16.8-22.7,33.4-34.1,50.2c-20.1,29.6-40.3,59.1-60.4,88.7
		c-0.2,0.4-0.5,0.7-0.7,1.1c-0.5,0.2-0.9,0.2-1.4,0c1.5-2.2,2.9-4.4,4.4-6.6c29.9-43.8,59.7-87.6,89.6-131.5
		c1.9-2.8,3.9-5.6,5.8-8.3c0.1-0.2,0.2-0.6,0.6-0.5C182.9,139.1,182.7,139.7,182.6,140.3z"></path>
	<path d="M182.6,151.5c-5.6,9.2-11.8,18-17.8,26.8c-24.1,35.3-48.2,70.7-72.3,106c-0.3,0.4-0.5,0.8-0.8,1.2
		c-0.5,0.1-0.9,0.1-1.4,0c1.7-2.6,3.4-5.2,5.2-7.8c27.1-39.7,54.1-79.4,81.2-119.2c1.7-2.5,3.3-5,4.9-7.5c0.2-0.3,0.3-0.8,0.8-0.9
		C182.7,150.7,182.6,151.1,182.6,151.5z"></path>
	<path d="M182.6,163.8c-3.8,5.7-7.6,11.4-11.4,17c-23.6,34.6-47.2,69.2-70.7,103.8c-0.3,0.4-0.5,0.8-0.8,1.2
		c-0.4,0.1-0.9,0.1-1.3-0.1c0.3-0.8,0.8-1.4,1.3-2c25.6-37.5,51.2-75.1,76.7-112.6c1.8-2.7,3.6-5.3,5.5-8c0.2-0.3,0.4-0.7,0.8-0.9
		C182.6,162.8,182.6,163.3,182.6,163.8z"></path>
	<path d="M182.4,176.7c-3.4,4.4-6.5,9.1-9.6,13.7c-21.4,31.4-42.9,62.9-64.3,94.3c-0.3,0.4-0.6,0.9-0.8,1.3
		c-0.5,0.1-0.9,0.1-1.4,0c3-4.4,5.9-8.7,8.9-13.1c19.8-29.1,39.7-58.3,59.6-87.4c2.4-3.5,4.8-6.9,7.2-10.3c0.1-0.2,0.3-0.3,0.5-0.5
		C182.4,175.5,182.4,176.1,182.4,176.7z"></path>
	<path d="M182.4,187.9c-21.7,32.6-44,64.8-66,97.2c-0.3,0.4-0.5,0.8-0.8,1.2c-0.5,0-1,0-1.4,0c3.4-5,6.8-10.1,10.2-15.1
		c17-25,34.1-50,51.1-74.9c2-3,4-6.1,6-9.1c0.3-0.4,0.4-1,1-1C182.4,186.8,182.4,187.3,182.4,187.9z"></path>
	<path d="M183.8,198c-6.3,9.2-12.5,18.5-18.8,27.7c-13.7,20.1-27.4,40.3-41.1,60.4c-0.5,0.1-0.9,0.3-1.4,0.1
		c2.7-4,5.4-8,8.1-12c14.2-20.9,28.5-41.7,42.6-62.6c3.1-4.5,6.2-9,9.3-13.5c0.3-0.4,0.5-1,1.1-1.2
		C183.8,197.3,183.9,197.6,183.8,198z"></path>
	<path d="M184.5,208.7c-1.9,2.9-3.9,5.7-5.8,8.6c-15,22.6-30.5,44.8-45.7,67.3c-0.3,0.4-0.6,0.9-0.8,1.3
		c-0.5,0.3-1,0.3-1.5,0.1c5.1-7.5,10.1-14.9,15.2-22.4c11.2-16.4,22.4-32.9,33.6-49.3c1.4-2.1,2.8-4.3,4.2-6.4
		c0.3-0.4,0.4-0.9,0.9-1.1C184.6,207.5,184.6,208.1,184.5,208.7z"></path>
	<path d="M183.6,222.1c-4.6,6.8-9.1,13.5-13.7,20.3c-9.8,14.4-19.6,28.8-29.4,43.2c-0.5,0.2-1,0.3-1.5,0.1
		c2.7-4,5.4-8.1,8.2-12.1c7.5-11,15-22,22.5-33c4.2-6.2,8.5-12.4,12.8-18.5c0.2-0.3,0.4-0.8,0.9-0.8
		C183.4,221.6,183.5,221.9,183.6,222.1z"></path>
	<path d="M185.4,231.2c-4.5,6.8-9,13.5-13.6,20.3c-7.4,11-14.9,21.9-22.4,32.9c-0.3,0.4-0.5,0.8-0.8,1.2
		c-0.5,0.2-0.9,0.1-1.4,0c2.2-3.6,4.7-7,7-10.4c7.8-11.5,15.6-22.9,23.4-34.4c2.3-3.3,4.5-6.7,6.8-10c0.2-0.4,0.4-0.8,0.9-0.9
		C185.3,230.3,185.4,230.7,185.4,231.2z"></path>
	<path d="M184.8,244.6c-1,0.9-1.6,2.1-2.3,3.2c-8.3,12.2-16.6,24.3-24.9,36.5c-0.2,0.4-0.5,0.7-0.7,1.1
		c-0.5,0.1-0.9,0.1-1.4,0c2.4-3.6,4.9-7.3,7.3-10.9c7-10.2,13.8-20.5,20.9-30.6c0.2-0.3,0.3-1,1-0.8
		C184.9,243.6,184.8,244.1,184.8,244.6z"></path>
	<path d="M185.6,254.9c-2.3,3.3-4.5,6.7-6.7,10.1c-2.4,3.7-4.9,7.2-7.4,10.9c-2.1,3.1-4.2,6.2-6.3,9.3
		c-0.5,0.1-0.9,0.2-1.4,0.1c2-3,4-6,6.1-9c5-7.4,10.1-14.9,15.1-22.3c0.2-0.3,0.2-0.9,0.8-0.7C185.7,253.8,185.7,254.3,185.6,254.9z
		"></path>
	<path d="M186.4,266c-2.2,2.9-4.1,5.9-6.2,8.9c-2.2,3.2-4.4,6.5-6.6,9.8c-0.4,0.1-0.9,0.2-1.4,0.1c0.3-1,1-1.8,1.6-2.6
		c3.9-5.7,7.7-11.4,11.6-17.1c0.2-0.4,0.5-0.7,0.8-1C186.3,264.7,186.5,265.3,186.4,266z"></path>
	<path d="M187.3,276.6c-1.6,2.4-3.2,4.7-4.8,7.1c-0.5,0.2-1,0.4-1.6,0.3c2.1-3.1,4.2-6.3,6.3-9.4
		C187.2,275.2,187.2,275.9,187.3,276.6z"></path>
</g>
</svg>
