<!--?xml version="1.0" encoding="utf-8"?-->
<!-- Generator: Adobe Illustrator 24.2.3, SVG Export Plug-In . SVG Version: 6.00 Build 0)  -->
<svg version="1.1" id="Camada_1" xmlns="http://www.w3.org/2000/svg" xmlns:xlink="http://www.w3.org/1999/xlink" x="0px" y="0px" viewBox="0 0 229 418" enable-background="new 0 0 229 418" xml:space="preserve">
<g onclick="select(this)" class="" id="estampa-primaria" fill="#000000">
	<path d="M42.4525146,112.7778625c-0.8959656-0.1017761-1.4921265,0.6431503-2.3408813,0.7894821
		c-2.3294182,0.4016266-4.6686974,0.4893799-7.0189934,0.5657349c-5.6645355,0.1840439-11.3184147-0.0333939-16.9397697-0.6843262
		c-5.0782709-0.5880508-9.9922829-1.9331818-14.739399-3.8523865c1.6968609-8.914566,2.4887414-17.9633636,4.0001216-26.9052277
		c0.8855782-5.2393951,1.1788788-10.5595551,2.2399788-15.7781677c1.7292542-8.504673,4.4516625-16.5878448,9.6675148-23.6606789
		c2.1221428-2.8776779,4.5377884-5.4906731,7.3400173-7.7103424c1.3638763-1.0803337,2.3639584-2.5835495,3.9253693-3.4050064
		c3.6099453-1.8991852,7.2583332-3.7276974,11.0324497-5.2813187c9.9905014-4.1125946,20.000515-8.1803665,29.4651909-13.4415846
		c1.9752426-1.0979939,3.9976349-2.0948963,5.5164642-3.8997173c0.8439026-1.0028076,2.0582657-1.6470857,3.4946365-1.5515785
		c-0.7558746,0.5328951-1.5331879,1.0660648-1.6987534,2.062746c-0.1725082,1.0384579-0.0040817,2.0608931,0.2305679,3.0806484
		c0.8830185,3.837533,3.1326141,6.8899431,5.7837296,9.6242762c4.1407776,4.2707672,9.0156021,7.5629692,14.3707428,10.1524506
		c3.6889725,1.783802,7.5359039,2.990303,11.6402817,3.2895241c0.3121796,0.0227585,0.7304688,0.2811508,0.9042816-0.2512054
		c0.4935303,0.34338,1.0183792,0.5796623,1.6344376,0.6280861c2.3348923,0.1835098,4.6674423,0.3629379,6.9804306-0.1974907
		c1.4196167-0.1702423,2.8583298-0.2460022,4.2553558-0.5279999c4.6530914-0.9392471,8.8572388-3.0047417,12.9284058-5.3568268
		c3.3010712-1.907156,6.3566895-4.1787777,9.102417-6.8089809c3.0971222-2.9667912,5.4711609-6.4257278,6.6416321-10.6471872
		c0.6194-2.2338791,0.0160675-4.2730255-1.6763763-4.744153c1.9420929-0.322947,3.1181183,0.8977289,4.248703,2.1526375
		c0.3474121,0.3856363,0.6847076,0.7271471,1.1279755,1.0213566c8.8716431,5.8886719,18.7898102,9.6126652,28.5267792,13.6823082
		c5.0673981,2.11796,10.038208,4.4440956,15.0911713,6.5874882c0.2853394,0.1210365,0.5591431,0.2838707,0.8124237,0.4636726
		c11.9666901,8.4952011,19.1779327,20.08321,21.3682709,34.4821701c1.7443542,11.4671555,4.7389374,22.6825333,6.318634,34.166687
		c0.3372803,2.4519806,0.734375,4.8957443,1.1039429,7.3433762c-0.6231995,0.2587509-1.2245331,0.6173401-1.8733063,0.7590942
		c-3.0727844,0.6713867-5.9807739,1.8872681-9.0736084,2.5406494c-3.9409485,0.8325424-7.895462,1.5586319-11.8859558,1.9935684
		c-5.5944672,0.6097641-11.2156982,0.2853394-16.8232422,0.0108337c-1.0757751-0.0526581-2.1148071-0.3867111-3.0544434-0.9562912
		c0.9133911-6.7970581,2.1953278-13.5191116,4.0814209-20.1194687c0.1157684-0.4051895,0.4060059-0.7978287,0.1864471-1.257576
		c0.2286835,0.013588,0.220459-0.1446915,0.208313-0.2966614c-0.0024261-0.0302887-0.0488129-0.0570526-0.0749512-0.0854416
		c-0.0375671,0.1338348-0.0751343,0.267662-0.1127014,0.4015045c-0.3382111,0.0892105-0.3290253,0.4327927-0.4303589,0.6598129
		c-2.0418243,4.5738068-3.5193329,9.3472748-4.7613068,14.1821518c-2.4084015,9.3755341-3.9837952,18.8970871-4.9313965,28.5371094
		c-0.4706268,4.7878876-0.8178406,9.5828094-1.1401062,14.3773499c-0.3235474,4.8140259-0.4896545,9.6474457-0.4935303,14.4725189
		c-0.0137329,17.0256653-0.293335,34.0512085,0.1540527,51.0777435c0.191925,7.3041687,0.2595215,14.6112518,0.5149689,21.9160767
		c0.170105,4.8651276,0.3197784,9.7314301,0.4851532,14.597168c0.2033081,5.9811401,0.4586487,11.9578552,0.7411346,17.9355164
		c0.2373199,5.0215149,0.4161835,10.0449524,0.8100586,15.0577393c-7.654129,1.0699463-15.3581696,1.3612976-23.0732422,1.4522095
		c-12.9472198,0.1525879-25.8881531,0.5621033-38.8301086,0.9285583c-6.7608643,0.1914368-13.4958496-0.465271-20.2470093-0.5768127
		c-8.7105942-0.1439209-17.4220123-0.2460938-26.1319199-0.4232483c-8.3101959-0.1690063-16.6230583-0.3526306-24.8476982-1.7511597
		c0.5422516-3.7596436,0.4815598-7.5604248,0.7390556-11.3394775c0.3821983-5.6092529,0.5796967-11.2329712,0.7604179-16.8535767
		c0.1423416-4.4268494,0.2932549-8.852417,0.473175-13.2781372c0.2545853-6.2624054,0.3896675-12.5300751,0.535202-18.7964172
		c0.0927391-3.9929047,0.1909142-7.9915466,0.1893997-11.9799347c-0.00811-21.4069519,0.6336784-42.8216705-0.6577225-64.2175446
		c-0.2539635-4.2076416-0.5594025-8.4050293-0.9685097-12.6003418c-0.4473228-4.5871887-1.0582695-9.1419525-1.8283081-13.6878357
		c-1.0712128-6.3238525-2.2926559-12.6049652-4.1846809-18.7393494c-0.5815163-1.8854294-1.0368538-3.8216553-1.9383469-5.6982117
		c-0.5278625,0.8900604,0.2040977,1.4512558,0.2923431,2.1296234c0.3710556,2.852478,0.8811569,5.6868515,1.2544365,8.5390854
		C42.1011581,108.9703293,42.5416451,110.8479462,42.4525146,112.7778625z"></path>
	<path d="M127.5429077,26.2013454c-6.4310379-0.0194588-12.8620758-0.0499077-19.2931213-0.0533142
		c-2.8337784-0.0015011-5.6675949,0.0519543-8.5014725,0.080719c-5.0048599-4.1429901-10.5227814-7.7175179-14.446312-13.0585613
		c-0.7870941-1.0714455-1.3979874-2.228776-1.9132462-3.447176c-0.3056183-0.7226677-0.0586929-0.9086885,0.6669769-0.8316221
		c7.1110229,0.755187,14.2389526,1.3106298,21.3717041,1.816123c5.5933609,0.3963957,11.1826706,0.3527241,16.7722092-0.018959
		c5.381424-0.3578434,10.7616425-0.7339849,16.1413574-1.1168613c1.9062347-0.1356678,3.8093567-0.3148613,5.8538818-0.4858923
		c-0.84935,2.3374853-2.1702576,4.2213564-3.6611938,5.995595c-1.937149,2.3052006-4.1574707,4.311861-6.5503387,6.1364632
		C131.8248596,22.8637238,129.6888275,24.5390263,127.5429077,26.2013454z"></path>
	<path d="M127.5255051,26.2418995c-2.5523682-0.0284119-5.1047058-0.0767078-7.6571274-0.0813141
		c-6.3903656-0.0115356-12.780777-0.0047665-19.1711578,0.0015316c-0.3134613,0.000309-0.6268463,0.0659237-0.9403763,0.1012421
		c-4.9975662-4.1447105-10.5121841-7.7160892-14.4339752-13.053092c-0.7866364-1.0705051-1.3983536-2.2221498-1.9186478-3.436965
		c-0.3206635-0.7487297-0.1581573-0.9799347,0.6754303-0.8946657c5.7192459,0.5850334,11.4511261,1.03022,17.1781921,1.5284071
		c8.3437271,0.7258034,16.6734238,0.6392813,25.0110168,0.0271654c5.0572815-0.3712854,10.1148071-0.7391167,15.1717377-1.1149502
		c0.8710632-0.0647364,1.7396851-0.1618061,2.7033539-0.2528105c-0.265152,1.206234-0.8553467,2.1439848-1.4375916,3.0719643
		c-1.8225098,2.9047232-4.1485291,5.3771706-6.7917328,7.5327969
		C133.1625214,21.9156437,130.3254395,24.0560246,127.5255051,26.2418995z"></path>
</g>
<g onclick="select(this)" class="" id="gola-primaria" fill="#000000">
	<path d="M109.3256989,35.9207878c-0.1734467,0.532753-0.5917358,0.2743607-0.9039154,0.2516022
		c-4.1043777-0.299221-7.9513092-1.505722-11.6402817-3.2895241c-5.3551407-2.5894814-10.2299652-5.8816833-14.3707428-10.1524506
		c-2.6511154-2.734333-4.9007111-5.7867432-5.7837296-9.6242762c-0.2346497-1.0197554-0.4030762-2.0421906-0.2305679-3.0806484
		c0.1655655-0.9966812,0.9428787-1.529851,1.6987534-2.062746c0.5144196-0.0249214,0.9029312-0.3084855,1.2525024-0.6408176
		c0.9263763-0.8806958,2.0002518-1.6613083,2.7274628-2.6858997c2.0422745-2.8774152,5.0195923-3.6035271,8.2394028-3.9384618
		c3.0734558-0.3197089,6.1407471,0.0640202,9.2119827,0.0276009c4.3973541-0.0521445,8.7971802,0.0443054,13.1931534-0.0513445
		c7.9102249-0.1721148,15.8182297,0.0474188,23.7272263,0.0364116c0.9124146-0.0012698,1.828537,0.1745476,2.7369537,0.3088157
		c2.2481232,0.332287,4.1498718,1.1915944,5.5701294,3.1200867c1.2012482,1.6310925,2.6129456,3.1247711,4.4388733,4.1271977
		c1.6919098,0.471426,2.2952423,2.5105724,1.6758423,4.7444515c-1.1704712,4.2214594-3.5445099,7.6803961-6.6416321,10.6471872
		c-2.7457275,2.6302032-5.8013458,4.901825-9.102417,6.8089809c-4.071167,2.3520851-8.2753143,4.4175797-12.9284058,5.3568268
		c-1.3970261,0.2819977-2.8357391,0.3577576-4.2551346,0.5281792c0.4981461-1.1476097,1.3241043-2.0655403,2.1212006-3.0007629
		c2.248703-2.6383533,4.9448242-4.810585,7.4805527-7.1498508c2.1459198-1.6623192,4.2819519-3.3376217,6.4404449-4.9834862
		c2.392868-1.8246021,4.6131897-3.8312626,6.5503387-6.1364632c1.4909363-1.7742386,2.8118439-3.6581097,3.6611938-5.995595
		c-2.0445251,0.171031-3.9476471,0.3502245-5.8538818,0.4858923c-5.379715,0.3828764-10.7599335,0.7590179-16.1413574,1.1168613
		c-5.5895386,0.3716831-11.1788483,0.4153547-16.7722092,0.018959c-7.1327515-0.5054932-14.2606812-1.060936-21.3717041-1.816123
		c-0.7256699-0.0770664-0.9725952,0.1089544-0.6669769,0.8316221c0.5152588,1.2184,1.126152,2.3757305,1.9132462,3.447176
		c3.9235306,5.3410435,9.441452,8.9155712,14.446228,13.0588207
		C103.1151276,29.2874451,106.6069336,32.222599,109.3256989,35.9207878z"></path>
</g>
<g onclick="select(this)" class="" id="detalhe-lateral" fill="#bf0811">
	<path d="M180.3169098,283.9697266c-0.3938751-5.0127869-0.5727386-10.0362244-0.8100586-15.0577393
		c-0.282486-5.9776611-0.5378265-11.9543762-0.7411346-17.9355164c-0.1653748-4.8657379-0.3150482-9.7320404-0.4851532-14.597168
		c-0.2554474-7.3048248-0.3230438-14.611908-0.5149689-21.9160767c-0.4473877-17.026535-0.1677856-34.0520782-0.1540527-51.0777435
		c0.0038757-4.8250732,0.1699829-9.658493,0.4935303-14.4725189c0.3222656-4.7945404,0.6694794-9.5894623,1.1401062-14.3773499
		c0.9476013-9.6400223,2.522995-19.1615753,4.9313965-28.5371094c1.2419739-4.834877,2.7194824-9.608345,4.7613068-14.1821518
		c0.1013336-0.2270203,0.0921478-0.5706024,0.4303741-0.6598129l-0.0207214-0.0194473
		c0.2196045,0.4597931-0.0706329,0.8524323-0.1864014,1.2576218c-1.8860931,6.6003571-3.1680298,13.3224106-4.0814209,20.1194611
		c-0.4264069,2.5465698-0.4257202,5.1188202-0.4629211,7.688797c-1.2378235,10.3072052-2.2989655,20.6278992-1.9510498,31.0315857
		c0.0821381,2.4562225,0.7914734,4.8716583,0.4144745,7.3699951c-0.3516235,2.3302765-0.4445953,4.684967-0.4245453,7.0450745
		c0.0559845,6.582428,0.098587,13.1757202-0.1155396,19.7438812c-0.1456757,4.4695435,0.7072906,8.6924438,1.4236298,12.9963837
		c0.8506927,5.1109314,0.9480896,10.2349701,0.2398224,15.3761444c-0.3209076,2.3293762-0.54039,4.6726532-0.8144379,7.008606
		c-0.0490723,0.4181976,0.1008759,0.7893066,0.2301788,1.1618195c1.989563,5.7316895,2.4832916,11.6064911,1.5848999,17.5875092
		c-0.3058167,2.0359802-0.3425293,4.0207977,0.0992279,6.0381927c0.4457397,2.035675,0.5504761,4.1139832,0.5100098,6.1976929
		c-0.1430817,7.3665771,0.683609,14.670929,1.384079,21.9852905c0.2195892,2.2928162,0.3340759,4.5978088,0.3145142,6.9078064
		c-0.0094452,1.1127625-0.4973297,1.8139954-1.5031281,2.1914368
		C184.1745911,283.5326233,182.2864838,283.9595947,180.3169098,283.9697266z"></path>
	<path d="M42.4525146,112.7778625c0.0891304-1.9299164-0.3513565-3.8075333-0.5991211-5.7007065
		c-0.3732796-2.8522339-0.8833809-5.6866074-1.2544365-8.5390854c-0.0882454-0.6783676-0.8202057-1.239563-0.2923431-2.1296234
		c0.9014931,1.8765564,1.3568306,3.8127823,1.9383469,5.6982117c1.892025,6.1343842,3.1134682,12.4154968,4.1846809,18.7393494
		c0.7700386,4.5458832,1.3809853,9.100647,1.8283081,13.6878357c0.4091072,4.1953125,0.7145462,8.3927002,0.9685097,12.6003418
		c1.2914009,21.395874,0.6496124,42.8105927,0.6577225,64.2175446c0.0015144,3.9883881-0.0966606,7.98703-0.1893997,11.9799347
		c-0.1455345,6.2663422-0.2806168,12.5340118-0.535202,18.7964172c-0.1799202,4.4257202-0.3308334,8.8512878-0.473175,13.2781372
		c-0.1807213,5.6206055-0.3782196,11.2443237-0.7604179,16.8535767c-0.2574959,3.7790527-0.196804,7.579834-0.7390556,11.3394775
		c-1.7242279-0.0837708-3.3719635-0.5368042-4.9835625-1.1030884c-1.6184654-0.5686951-2.0121346-1.1141663-1.9840698-2.8423157
		c0.0452156-2.7842407,0.1874161-5.5641479,0.4140472-8.3428955c0.431675-5.2928772,0.7171974-10.5978699,1.1692505-15.8888245
		c0.4074936-4.7694855-0.0650482-9.592804,0.9218788-14.3255157c0.1883888-0.9033813,0.0964546-1.8375397-0.042675-2.744751
		c-0.4781952-3.1182098-0.3503647-6.2133179,0.3311234-9.2835846c0.1949081-0.8781128,0.1388702-1.7289124,0.0771484-2.6109161
		c-0.2841988-4.0611115-0.8382988-8.1011047-0.8580627-12.1838684c-0.0239258-4.942688,1.0864563-9.6556549,2.7438126-14.2636871
		c0.3171997-0.881958,0.5332336-1.7270813,0.4237556-2.675354c-0.1839256-1.5931854-0.141243-3.1873627,0.1506195-4.7743683
		c0.1077003-0.5856476,0.1623573-1.1927948,0.1462173-1.7875824c-0.1308823-4.8229065-0.2779045-9.645401-0.4356956-14.4675293
		c-0.0367355-1.1227112,0.0765038-2.2321014,0.1623611-3.3472748c0.144268-1.8738251,0.1034241-3.7475739-0.048111-5.6235199
		c-0.4092598-5.0663605-0.1779556-10.145752-0.0681305-15.2097778c0.196312-9.0511017-0.2082138-18.0476379-1.5041733-27.0064316
		c-0.2226868-1.5393982-0.3748512-3.0890045-0.5595245-4.6338654c0.5152626-1.2158585-0.2161751-2.3334808-0.3642349-3.4790726
		C42.6969795,115.5973511,42.9329262,114.1476212,42.4525146,112.7778625z"></path>
</g>
<g onclick="select(this)" class="" id="detalhe-punho" fill="#bf0811">
	<path d="M0.24,114.41436c0.5066518-1.0333099,0.4623487-2.1853943,0.7029477-3.2761536
		c0.1164828-0.5280762,0.0638708-1.1035385,0.4705237-1.5418396c4.7471166,1.9192047,9.661128,3.2643356,14.739399,3.8523865
		c5.6213551,0.6509323,11.2752342,0.8683701,16.9397697,0.6843262c2.350296-0.076355,4.6895752-0.1641083,7.0189934-0.5657349
		c0.8487549-0.1463318,1.4449158-0.8912582,2.3408813-0.7894821c0.4804115,1.3697586,0.2444649,2.8194885,0.4263916,4.2271881
		c0.1480598,1.1455917,0.8794975,2.2632141,0.3643112,3.4790955c-2.841095,1.3330917-5.9081955,1.7382584-8.9673958,1.7949448
		c-7.0645809,0.130928-14.1399384,0.3043518-21.1575737-0.9066238c-3.6142483-0.6236801-7.2130728-1.2875977-10.7040243-2.4304047
		c-0.7462479-0.2443008-1.4505816-0.6164856-2.1742241-0.9297638C0.24,116.8129883,0.24,115.613678,0.24,114.41436z"></path>
	<path d="M184.6167908,120.2029724c0.0372009-2.5699768,0.0365143-5.1422272,0.4629211-7.688797
		c0.9396362,0.5695877,1.9786682,0.9036407,3.0544434,0.9562988c5.6075439,0.2745056,11.228775,0.5989304,16.8232422-0.0108337
		c3.9904938-0.4349365,7.9450073-1.161026,11.8859558-1.9935684c3.0928345-0.6533813,6.000824-1.8692627,9.0736084-2.5406494
		c0.6487732-0.1417542,1.2501068-0.5003433,1.873291-0.7590942c1.0290527,2.4653549,1.3149261,5.0500107,1.1316986,7.6846695
		c-0.0435181,0.6258698-0.7669983,0.7556763-1.2712555,0.942894c-3.2154999,1.1938553-6.5277557,2.0655441-9.8517761,2.8920898
		c-8.3978119,2.0882339-16.9433594,2.4642563-25.539505,2.1048508c-1.8251953-0.0763016-3.6426392-0.4177322-5.4543915-0.6971664
		C186.0230713,120.9730606,185.2617188,120.7066879,184.6167908,120.2029724z"></path>
</g>
<g onclick="select(this)" class="" id="gola-secundaria" fill="#009045">
	<path d="M127.5429077,26.2013435c-2.5357285,2.3392677-5.2318497,4.5114994-7.4805527,7.1498528
		c-0.7970963,0.9352226-1.6230545,1.8531532-2.1212006,3.0007591c-2.3132095,0.5602531-4.6457596,0.380825-6.9806519,0.1973152
		c-0.6160583-0.0484238-1.1409073-0.2847061-1.6344376-0.6280861c-2.7191315-3.6985855-6.2109375-6.6337395-9.5777512-9.6924343
		c2.8338776-0.0287647,5.6676941-0.0822201,8.5014725-0.080719
		C114.6808319,26.1514378,121.1118698,26.1818867,127.5429077,26.2013435z"></path>
</g>
<path d="M189.3682404,91.1565399c0.0375671-0.1338425,0.0751343-0.2676697,0.1127014-0.4015045
	c0.0261383,0.028389,0.072525,0.0551529,0.0749512,0.0854416c0.012146,0.1519699,0.0203705,0.3102493-0.208313,0.2966614
	C189.3475342,91.1370926,189.3682556,91.1565399,189.3682404,91.1565399z"></path>
<g onclick="select(this)" class="" id="estampa-secundaria" fill="#009045">
	<path d="M106.5578995,286.0759888c-0.0011673-48.4893494-0.0006409-96.9786987-0.0187759-145.4680481
		c-0.0002899-0.7794189,0.2102966-1.3484344,0.760231-1.9001312c1.2351379-1.2391052,2.4071045-2.5411072,3.8478622-4.0765381
		c0,0.7556,0,1.2051086,0,1.6546173c0.0000076,49.4090576,0.0000458,98.8181152-0.0003738,148.2271729
		c-0.0000076,0.5992126-0.0059586,1.1983948-0.0092087,1.7976074c-0.1595001-0.0072937-0.3189163-0.0145874-0.4787903-0.0219727
		c-0.0004654-14.1383057-0.0004654-28.2765808-0.0004654-42.414856c-0.1711044,0.0006714-0.3422165,0.0013428-0.5133209,0.0020142
		c0,14.1212769,0,28.2425232,0,42.3638c-0.1646729,0.1328735-0.3212357,0.1586609-0.461319-0.0348816
		c-0.0143127-14.4386292-0.0285034-28.8772583-0.0427017-43.3158417c-0.1369019-0.0021973-0.2737961-0.0043945-0.4107056-0.0065918
		c-0.0181351,0.3388977-0.0508347,0.6777191-0.0522919,1.0166779c-0.0589447,13.7297974-0.1149368,27.4595947-0.1723938,41.1894226
		c-0.0014954,0.3590698-0.0150681,0.7181091-0.0230255,1.077179c-0.0905151-0.0057373-0.1810379-0.0114746-0.2715073-0.0171814
		c-0.0185776-14.2954712-0.0370941-28.5909729-0.0562592-42.8864441c-0.0004807-0.3592377,0.0173569-0.7211761-0.0204391-1.0768433
		c-0.028038-0.2637482-0.0717239-0.5820007-0.6270218-0.4609375c0,14.7854614,0,29.5940247,0,44.4026184
		c-0.0956726-0.0039368-0.1913452-0.007843-0.2867889-0.0117493c-0.0591736-14.6599731-0.1186142-29.3199463-0.1779099-43.9799194
		c-0.0011292-0.2797241,0.0190125-0.5613098-0.0068588-0.8386383c-0.0227814-0.2440491,0.1009064-0.5966949-0.5042725-0.622818
		c0,15.1458282,0,30.2801514,0,45.4144897C106.8736725,286.084137,106.7157898,286.0800476,106.5578995,286.0759888z"></path>
	<path d="M100.2999268,285.8360291c-0.0021591-0.6791382-0.0031052-1.3583069-0.0066528-2.0374146
		c-0.2370377-45.3117371-0.1576614-90.6238708-0.1921005-135.9358978c-0.0007553-0.9878998,0.2175522-1.7284393,0.9514923-2.4294281
		c1.2286911-1.1735382,2.3482819-2.4611664,3.5515137-3.7409058c0.3900986,0.5522308,0.2306747,1.0423889,0.2308044,1.4945526
		c0.0095749,32.4099731,0.0079498,64.819931,0.0097198,97.2299042c0.0007935,14.7063293,0.0063934,29.4126892,0.0113907,44.1190186
		c0.0001678,0.4793091,0.0175629,0.9586487,0.0265121,1.4379883c-0.1705933,0.1582031-0.3309021,0.1678162-0.4774323-0.0316467
		c-0.0000839-15.9602966-0.0000839-31.920578-0.0000839-47.8808594c-0.2315903,0.000351-0.4631805,0.0007019-0.6947632,0.0010529
		c0,15.9493103,0,31.8986359,0,47.8479462c-0.1058121-0.0032654-0.2116318-0.0065308-0.3170547-0.0098267
		c-0.0602722-15.8138428-0.1209717-31.6277008-0.181488-47.4415283c-0.0012283-0.3195953,0.0247574-0.6418762-0.0091858-0.9578552
		c-0.0244522-0.2275085,0.1533585-0.5948334-0.4705353-0.6244354c0,16.3464966,0,32.6768036,0,49.0071259
		c-0.157486-0.0037231-0.3149719-0.0074158-0.4727478-0.0110779c-0.0118027-16.7200012-0.0233383-33.4400024-0.0348663-50.1599731
		c-0.167038,0.0006561-0.3340683,0.0013275-0.5011063,0.0019989c0,16.7177734,0,33.4355621,0,50.1533356
		c-0.1492462-0.0043945-0.2985001-0.0087891-0.4478683-0.0131836c-0.0134583-17.0412598-0.0268021-34.0825043-0.0401535-51.123764
		c-0.2167053,0.0005341-0.433403,0.0010834-0.6501083,0.0016174c0,17.0361328,0,34.0722809,0,51.1084137
		C100.4901199,285.8394775,100.3950272,285.837738,100.2999268,285.8360291z"></path>
	<path d="M180.5180511,124.1132431c-0.1098633,1.6649094-0.3621979,3.3076553-0.7676239,4.9264755
		c-20.9062805,0.0003815-41.812561-0.0068665-62.7187729,0.0236359c-1.0682449,0.0015564-1.4065857-0.2362061-1.4051285-1.3670807
		c0.0339661-26.3675003,0.0238876-52.7350388,0.029007-79.1025696c0.0007706-3.9544983,0.0367203-7.9089851,0.0562668-11.8634758
		c0.7466049-0.3408356,1.6880722,0.0115738,2.3426666-0.6573067c0.7710266,0.3787956,1.5243149-0.2581177,2.2917709-0.0398827
		c-0.0357132,0.475605-0.1011887,0.9510956-0.1012421,1.4265938c-0.0032272,28.3754463,0.0079041,56.7509041-0.0296783,85.126297
		c-0.0016327,1.2361908,0.3318863,1.5026703,1.5233994,1.5002747c19.0743637-0.0384445,38.1488419-0.0275269,57.2232895-0.0248184
		C179.4806976,124.0614624,179.9993591,124.0952072,180.5180511,124.1132431z"></path>
	<path d="M48.7584572,138.6682434c-0.2760468-1.6092529-0.4590721-3.2276917-0.4805794-4.8621826
		c20.6316528-0.0001221,41.2633362-0.0001221,62.1606827-0.0001221c-1.5631104,1.6663666-2.955101,3.1755676-4.3804855,4.6526031
		c-0.3705902,0.3840332-0.9175491,0.1963196-1.3835907,0.1965027c-18.0787354,0.0074921-36.1574631,0.0063171-54.2361946,0.0066528
		C49.8783455,138.6617126,49.3184013,138.6659851,48.7584572,138.6682434z"></path>
	<path d="M49.2367477,145.6024475c-0.1138-1.6453552-0.2276039-3.2907104-0.3412361-4.9358978
		c0.4382744-0.0219116,0.8763695-0.0632019,1.314476-0.0632935c17.4681816-0.0032654,34.936367-0.0038452,52.4045448,0.0038605
		c0.3781052,0.0001678,0.7856979-0.1275635,1.2772064,0.2068939c-1.3992462,1.5133209-2.7694626,2.9933319-4.1371841,4.4756165
		c-0.4212189,0.4564972-0.9716644,0.2884369-1.4713669,0.288681c-15.8292923,0.0079498-31.6585846,0.0063629-47.4878769,0.0072784
		C50.2757912,145.5856171,49.7562675,145.5965729,49.2367477,145.6024475z"></path>
	<path d="M181.6299591,117.2689896c-0.0700989,1.6515732-0.4447784,3.2540741-0.7841492,4.8624344
		c-19.1560059-0.0046463-38.3120575-0.0229721-57.4679794,0.0167923c-1.2473907,0.002594-1.4934158-0.3494873-1.4918594-1.5298386
		c0.0364532-27.6984482,0.031456-55.3969498,0.0305023-83.0954437c-0.0000229-0.5172348-0.0432358-1.0344734-0.0662842-1.551712
		c1.5697556-0.7215958,3.2244034-1.1482315,4.9253922-1.4159355c-0.471077,0.4615898-0.2877579,1.0539246-0.2877579,1.5924606
		c0.0001526,26.5614662,0.0169678,53.1229324-0.0077744,79.6843643c-0.0010529,1.1385574,0.2672424,1.4607239,1.4367752,1.4582977
		C145.8211212,117.2532883,163.7255707,117.2670593,181.6299591,117.2689896z"></path>
</g>
<g onclick="select(this)" class="" id="estampa-terciaria" fill="#bf0811">
	<path d="M115.6504059,286.34198c0-50.4317932,0-100.8636017,0-151.5780029
		c1.5879593,1.6756744,3.0249252,3.1793976,4.4435577,4.7001953c0.2679977,0.2872772,0.1492538,0.6898499,0.149292,1.0419617
		c0.003624,39.5634613,0.0067215,79.1269073,0.0009995,118.6903687c-0.0013046,9.0301208-0.0338211,18.0602417-0.0525436,27.0904846
		c-0.1376724,0.0057678-0.2747726,0.0114136-0.4121017,0.0170593c-0.0002213-15.2129211-0.0002213-30.425827-0.0002213-45.6387329
		c-0.1188583-0.0055695-0.237709-0.0111084-0.3565674-0.0166779c-0.2545319,0.318512-0.1662292,0.7211609-0.1676254,1.0925751
		c-0.0542679,14.4583435-0.1042023,28.9167175-0.1555786,43.375061c-0.0014191,0.3991699-0.0123749,0.7983093-0.018898,1.1974487
		c-0.0942917,0.0008545-0.1885757,0.0016785-0.2829742,0.0024719c-0.0001144-14.8900452-0.0001144-29.7800903-0.0001144-44.6701355
		c-0.2062607-0.0004272-0.4125366-0.0008698-0.6187973-0.0013275c-0.0289993,14.8946075-0.0579987,29.7891998-0.0869827,44.6837921
		c-0.0995636,0.0013428-0.1991196,0.0026855-0.2984848,0.0040283c-0.0714264-14.4859009-0.1430435-28.9717407-0.2146606-43.4575958
		c-0.1558228-0.0000763-0.3116455-0.0001373-0.4674683-0.0002136c0,14.487442,0,28.9748993,0,43.462326
		c-0.1545715,0.0013123-0.3091354,0.002594-0.4637985,0.0038757c-0.0000916-14.1071777-0.0000916-28.2142944-0.0000916-42.3214722
		c-0.229866,0.0003204-0.4597321,0.0006561-0.6895905,0.0009918c0,14.1069183,0,28.213913,0,42.3208466
		C115.8553009,286.3415222,115.752861,286.3417664,115.6504059,286.34198z"></path>
	<path d="M121.9628143,286.1952515c-0.0172119-16.1843872-0.0452805-32.3687744-0.0493317-48.5531769
		c-0.0078964-31.5306702-0.0023422-63.0613251-0.0023575-94.59198c0-0.4360199,0-0.8720245,0-1.5783539
		c1.5750504,1.6972351,2.9999161,3.2173767,4.4041443,4.7563019c0.3615112,0.3961945,0.1893616,0.9216003,0.1895905,1.387558
		c0.0076675,15.2258301,0.0062561,30.4516602,0.0062561,45.6774902c0,30.6514893,0.0001068,61.3029785-0.0005417,91.9544373
		c-0.0000153,0.2794495-0.0097656,0.5588684-0.0149994,0.8383179c-0.1480331,0.0019531-0.2960434,0.0039063-0.4444733,0.0058289
		c-0.0004272-17.122467-0.0004272-34.2449799-0.0004272-51.3674622c-0.1617203-0.0005798-0.3234558-0.0011444-0.4851685-0.0017242
		c-0.0181351,17.1279907-0.0362701,34.2560272-0.0544052,51.3840179c-0.1510849,0.0032959-0.3021851,0.0066223-0.4533997,0.0099182
		c-0.0001144-16.7528076-0.0001144-33.5055695-0.0001144-50.2583771c-0.2307434,0.0002441-0.4615021,0.000473-0.6922455,0.0007172
		c0,16.7561646,0,33.5122986,0,50.2684631c-0.0985565,0.0013123-0.1971054,0.002655-0.2956467,0.0040283
		c0-16.4252625,0-32.8505402,0-49.2757721c-0.1973877-0.0007477-0.3947601-0.0015106-0.5921478-0.0022583
		c-0.0821381,16.4291687-0.1020889,32.8589325-0.1089401,49.2888031c-0.0989838,0.004364-0.1979752,0.0086975-0.2966461,0.0130615
		c0.0003204-16.0369873,0.0003204-32.0739441,0.0003204-48.1109161c-0.2099457-0.0005341-0.4198837-0.0010834-0.6298218-0.0016022
		c-0.0178223,16.0445862-0.0356445,32.0891724-0.0534592,48.1337891
		C122.2552338,286.3696289,122.1135025,286.3834534,121.9628143,286.1952515z"></path>
	<path d="M47.765316,129.0987244c-0.4478111-1.5848389-0.5041885-3.2311249-0.7615089-4.845932
		c0.5194626-0.0077744,1.0388985-0.0221558,1.5583344-0.0221939c18.8691254-0.0011444,37.7382507-0.0084915,56.6073303,0.0193405
		c1.0368195,0.0015335,1.4146042-0.1822891,1.4131699-1.3450546c-0.035202-28.5670776-0.0247269-57.134201-0.0270462-85.7013168
		c-0.0000305-0.3950768-0.0592194-0.7901497-0.0907974-1.1852226c0.7527084-0.2604027,1.47509,0.0255699,2.2018433,0.140564
		c0.6039581,0.0955658,0.6052246-0.1347046,0.3731613-0.5545921c0.7387772,0.5379982,1.5626068,0.8584709,2.4570389,1.0063591
		c-0.6764755,0.3061256-0.3611374,0.9126892-0.3612976,1.3714828c-0.0065384,19.1775284,0.0090103,38.3550606,0.0171204,57.532589
		c0.0045242,10.7075958-0.0241547,21.4153442,0.0341034,32.1226273c0.0068741,1.2632294-0.3710098,1.4877167-1.537674,1.4857635
		C89.0212097,129.0885315,68.3932571,129.0984344,47.765316,129.0987244z"></path>
	<path d="M179.2504272,133.8612823c-0.0480652,1.6596375-0.2267609,3.3063812-0.4886322,4.9446411
		c-18.9953613,0.0061951-37.9907532,0.0125275-56.9861374,0.0199432c-0.4025803,0.0001526-0.7888718,0.0044708-1.1030655-0.3323364
		c-1.381546-1.4808807-2.7752457-2.9504547-4.360733-4.6322479
		C137.4727325,133.8612823,158.3615875,133.8612823,179.2504272,133.8612823z"></path>
	<path d="M178.5809326,140.7926331c0.0657196,1.6062927-0.1189117,3.1966858-0.3041992,4.7870026
		c-16.6343842,0.0009155-33.2687683-0.002533-49.9031372,0.0165253c-0.7756958,0.000885-1.3599472-0.1702576-1.8803177-0.7803802
		c-1.113327-1.3053589-2.290535-2.5563354-3.4424286-3.8307037c0.058609-0.2843781,0.2916183-0.2093353,0.4692459-0.2093048
		C141.8737183,140.7791443,160.2273102,140.7859955,178.5809326,140.7926331z"></path>
	<path d="M46.7023125,122.2970505c-0.3050652-1.6509171-0.6962662-3.2878189-0.8091354-4.9699097
		c17.5160522-0.0052032,35.0321159-0.0080872,52.5481758-0.0192184c1.9146957-0.0012207,1.6855469,0.2319412,1.6859665-1.6278152
		c0.0050735-22.4222031,0.0100708-44.8444138-0.0022125-67.2666016c-0.0025787-4.7106514-0.075264-9.4212608-0.1159363-14.1319122
		c1.7145157,0.3064384,3.3960037,0.7256317,4.9813766,1.4699745c-0.036705,0.3535004-0.103447,0.7068672-0.1054382,1.0606003
		c-0.0225449,3.9942818-0.0476913,7.9886208-0.048378,11.9829445c-0.0041428,23.9299889-0.002037,47.8599739-0.0020905,71.7899628
		c-0.0000076,1.6986237-0.0003052,1.6990204-1.6509247,1.6993942
		C84.3565826,122.2887344,65.5294418,122.2928772,46.7023125,122.2970505z"></path>
</g>
</svg>
