<!--?xml version="1.0" encoding="utf-8"?-->
<!-- Generator: Adobe Illustrator 24.2.3, SVG Export Plug-In . SVG Version: 6.00 Build 0)  -->
<svg version="1.1" id="Camada_1" xmlns="http://www.w3.org/2000/svg" xmlns:xlink="http://www.w3.org/1999/xlink" x="0px" y="0px" viewBox="0 0 234 419" enable-background="new 0 0 234 419" xml:space="preserve">
<g onclick="select(this)" class="" id="c-estampa-primaria" fill="#000000">
	<path d="M203.8481445,32.2849159c0.2733612,0.1604042,0.5708771,0.2904015,0.8166046,0.4855919
		c10.1934357,8.097538,16.7264557,18.4920502,19.7406769,31.1624031c1.3156738,5.5304527,2.1201019,11.1262856,2.8589172,16.7503777
		c0.7853088,5.9780655,2.0123901,11.8930054,2.7430725,17.8821259c0.5366974,4.3988342,1.4193268,8.7404251,2.1559753,13.1058731
		c0.295166,1.7492371,0.7399445,3.4732361,1.1166229,5.2087173c0,1.0400009,0,2.0799942,0,3.1200027
		c-3.4725342,0.6932068-6.930191,1.4599991-10.4356842,1.9851532c-7.909256,1.1848984-15.839798,2.074646-23.8575287,1.8457947
		c-2.7822266-0.0794144-5.4807281-0.4779205-7.9298401-1.9480133c-0.9024353-0.5416794-2.1662292-0.2684326-2.9029846-1.2300415
		c0.2688904-1.316597,0.0011139-2.6468201,0.1371002-3.9801941c0.2865295-2.8091202,0.8761292-5.6096268,0.7207947-8.438652
		c-0.0996246-1.8141327-0.0415497-3.608551,0.2869415-5.360611c0.6316071-3.3688812,1.3149261-6.7051315,1.3777924-10.1658249
		c0.0608368-3.3481369,0.5196533-6.681694,1.169632-9.9771957c0.3327179-1.687027,0.608017-3.5219574,1.935791-4.6486588
		c1.1835175-1.004303,1.8728638-2.2306137,2.6439362-3.4755554c2.2871704-3.6928864,3.1268463-7.9170227,4.4206543-11.9715691
		c1.5924988-4.9905891,2.813797-10.0751648,3.0822906-15.3227806c0.2247772-4.3931122,0.0685272-8.7906647-0.3508911-13.1755104
		C203.5188141,33.5174217,203.4062805,32.8494492,203.8481445,32.2849159z"></path>
	<path d="M0.2399995,116.4000015c0.399185-1.8922958,0.799469-3.7843704,1.1973213-5.6769562
		c0.7557379-3.5950317,1.2740778-7.2296677,1.7788385-10.8652496c0.9360142-6.7417221,2.82582-13.2774429,4.2380471-19.9159927
		c0.9136963-4.2950821,1.1781006-8.7065964,2.1538181-12.9991989c1.6027546-7.0512085,3.8377247-13.8576012,7.709631-20.030159
		c2.8096523-4.4791069,6.3248539-8.3409767,10.4916039-11.5832138c1.2201328-0.9494095,2.1715469-2.2270851,3.5974598-2.9157181
		c0.4099369,0.6662521,0.4419193,1.4347343,0.1382961,2.0692863c-0.2152138,0.449791-0.1616917,0.7930489-0.1441879,1.2197151
		c0.0342674,0.8352928,0.0156841,1.6772957-0.048399,2.5113449c-0.4047756,5.2684402-0.3183575,10.5060043,0.6755486,15.7215233
		c0.9136086,4.7941933,2.5120964,9.3892784,3.8648491,14.0577736c0.9538307,3.2917786,2.4152908,6.308815,4.3256798,9.1502304
		c0.9041595,1.3447952,1.7529297,2.7824936,2.0988045,4.4022293c0.2643013,1.2377777,0.2809448,2.5299835,0.5647354,3.7618027
		c1.2920723,5.6083755,1.5527992,11.3525467,2.3044052,17.0313492c0.3198662,2.4167862,0.118721,4.8932114,0.9038162,7.2596741
		c0.9446068,2.8472748,0.1950455,5.799736,0.4697647,8.691185c-0.4242325,0.4347916-0.2552414,0.9884033-0.2157516,1.4687424
		c0.0981331,1.1936646-0.469696,1.5954514-1.5789948,1.7577744c-6.8483009,1.0021439-13.6845741,1.0294571-20.5538235,0.1363907
		c-7.7710991-1.0103149-15.5229502-2.1032639-23.1701145-3.8450165c-0.2689192-0.0612564-0.5343109-0.1380005-0.8013471-0.2075119
		C0.24,117.2000046,0.24,116.8000031,0.2399995,116.4000015z"></path>
	<path d="M81.823288,7.9650545c1.9934082,0.3215485,4.0147324,0.3453741,6.0175018,0.640172
		c4.3357544,0.6382046,8.6799698,1.2529287,13.0565262,1.5606709c3.2246933,0.2267466,6.4560547,0.3632717,9.6785965,0.6149492
		c9.5678558,0.7472439,19.057663-0.3929901,28.5632477-1.1391325c4.128891-0.3240967,8.2168884-0.9859095,12.2993011-1.6656175
		c0.7037506-0.1171703,1.4390411,0.1176696,2.1117249-0.2280664c2.0036011,0.1280026,3.4710388,1.1499219,4.7623291,2.6352201
		c1.0020142,1.1525526,2.4355621,1.7944317,3.7543793,2.5350733c9.5250549,5.349247,19.5428619,9.6385212,29.6754913,13.6653786
		c3.976944,1.5805016,7.6895142,3.7146816,11.6385498,5.343462c0.1751251,0.0722313,0.3122101,0.2366428,0.4671021,0.357935
		c-0.4417572,0.5643501-0.3292236,1.2323227-0.2700195,1.8512497c0.4194183,4.3848457,0.5756683,8.7823982,0.3508911,13.1755104
		c-0.2684937,5.2476158-1.4897919,10.3321915-3.0822906,15.3227806c-1.293808,4.0545464-2.1334839,8.2786827-4.4206543,11.9715691
		c-0.7710724,1.2449417-1.4604187,2.4712524-2.6439362,3.4755554c-1.327774,1.1267014-1.6030731,2.9616318-1.935791,4.6486588
		c-0.6499786,3.2955017-1.1087952,6.6290588-1.169632,9.9771957c-0.0628662,3.4606934-0.7461853,6.7969437-1.3777924,10.1658249
		c-0.3284912,1.7520599-0.3865662,3.5464783-0.2869415,5.360611c0.1553345,2.8290253-0.4342651,5.6295319-0.7207947,8.438652
		c-0.1359863,1.333374,0.1317902,2.6635971-0.1371002,3.9801941c-0.4350891,0.263176-0.2786713,0.715744-0.3222961,1.0867538
		c-1.2314911,10.473053-1.4573364,20.9770508-0.9196167,31.5013428c0.1637268,3.2047577-0.0886078,6.3917847-0.2826843,9.5842133
		c-0.3670654,6.0379333,0.1181488,12.0710449,0.138382,18.1070557c0.0092773,2.7614899-0.1012573,5.5138702-0.4396057,8.2587128
		c-0.230484,1.8700409-0.2589111,3.7496338,0.0620117,5.6197815c0.0405121,0.2361603,0.1031952,0.4799652,0.0820007,0.7135315
		c-0.2838898,3.1296539,0.5130768,6.0734406,1.3882141,9.0382385c1.7550659,5.945816,1.9432831,12.0373993,1.4457397,18.179657
		c-0.3086853,3.81073-0.8158722,7.6157532-0.0127716,11.4479828c0.2575378,1.2289734,0.1828766,2.5572357,0.0838165,3.8262939
		c-0.5065918,6.489624,0.6947327,12.8989105,0.8700562,19.3584442c0.1549835,5.7108765,0.6989136,11.4110413,1.0653229,17.1163025
		c0.1377563,2.1451721,0.3072357,4.2897949,0.3751221,6.437439c0.0753174,2.3829956-0.1534729,2.7092896-2.47435,3.3816528
		c-5.4622803,1.5823669-11.0361633,2.6375427-16.6871033,3.2367249
		c-13.3432159,1.4147339-26.7450714,1.5118408-40.1407776,1.6253357
		c-18.5563354,0.1572266-37.1143112,0.4963074-55.6699982,0.2002258
		c-10.0061951-0.1596985-19.9645538-1.045929-29.6639862-3.7774963c-3.6877174-1.0385132-3.8098068-1.0596008-3.5862617-4.8075562
		c0.4208603-7.0561829,0.9863625-14.1039124,1.5108299-21.1536865c0.2403526-3.2307434-0.1090736-6.4821472,0.3631821-9.7032776
		c0.0753365-0.5138397,0.0891571-1.0436249,0.2247772-1.5405273c0.8576775-3.1424103,0.1064415-6.2772522-0.0441322-9.4089661
		c-0.2265205-4.7113037,0.2113113-9.3542786,1.4141121-13.8990173c0.4223328-1.5957642,0.482132-3.1339722,0.2889442-4.7234497
		c-1.0502625-8.64151-0.9072342-17.2306824,1.0492516-25.7521515c0.3312035-1.4425507,0.4703064-2.931427,0.352829-4.410965
		c-0.3772812-4.7516632,0.0093384-9.5094604-0.1702347-14.2636719c-0.2127266-5.6320648-0.0184174-11.2757263-0.4517708-16.9031372
		c-0.2772369-3.6000824,0.4068794-7.1681213,0.2987823-10.7771759c-0.2909508-9.7139587-0.8827171-19.4097748-1.4747162-29.1067886
		c-0.0180473-0.2956238,0.0988655-0.6580276-0.2670059-0.8550949c-0.2747269-2.891449,0.4748344-5.8439102-0.4697723-8.691185
		c-0.7850952-2.3664627-0.58395-4.8428879-0.9038162-7.2596741c-0.751606-5.6788025-1.0123329-11.4229736-2.3044052-17.0313492
		c-0.2837906-1.2318192-0.3004341-2.524025-0.5647354-3.7618027c-0.3458748-1.6197357-1.1946449-3.0574341-2.0988045-4.4022293
		c-1.9103889-2.8414154-3.3718491-5.8584518-4.3256798-9.1502304c-1.3527527-4.6684952-2.9512405-9.2635803-3.8648491-14.0577736
		c-0.993906-5.215519-1.0803242-10.453083-0.6755486-15.7215233c0.0640831-0.8340492,0.0826664-1.6760521,0.048399-2.5113449
		c-0.0175037-0.4266663-0.0710258-0.7699242,0.1441879-1.2197151c0.3036232-0.634552,0.2716408-1.4030342-0.1382961-2.0692863
		c4.2559662-1.9924374,8.4742508-4.0644321,12.8492203-5.7981129c7.1582146-2.8366089,14.2091217-5.9274197,21.2222939-9.103754
		c3.9020462-1.7672758,7.5174866-4.0415754,11.1048813-6.3594131c0.3909531-0.2525949,0.6922226-0.6504011,1.0171356-0.997653
		C78.7506943,8.925046,80.0445404,7.9794731,81.823288,7.9650545z"></path>
</g>
<g onclick="select(this)" class="" id="c-gola-primaria" fill="#000000">
	<g onclick="select(this)" class="">
		<path d="M141.8400116,0.24c0.9922028,0.443942,2.0863342,0.4432228,3.1212463,0.7119551
			c1.5948029,0.4141034,2.9456177,1.1452026,3.9819489,2.4655819c1.312851,1.6726964,2.9248657,3.042248,4.6069794,4.330493
			c-0.6726837,0.3457355-1.4079742,0.1108961-2.1117249,0.2280664c-4.0824127,0.6797075-8.1704102,1.3415213-12.2993011,1.6656179
			c-9.5055847,0.7461424-18.9953918,1.8863764-28.5632477,1.1391325c-3.2225418-0.2516775-6.4539032-0.3882027-9.6785965-0.6149492
			c-4.3765564-0.3077421-8.7207718-0.9224663-13.0565262-1.5606709c-2.0027695-0.2947979-4.0240936-0.3186235-6.0175018-0.640172
			c1.4946442-1.1410213,3.0271301-2.2916799,4.0825272-3.8432322c1.6976776-2.4957705,4.1216736-3.3664002,6.9380951-3.6106215
			C93.2578812,0.4753051,93.7339325,0.6215557,94.0800018,0.24c5.1999969,0,10.4000015,0,15.6000061,0
			c0.1824341,0.2900842,0.4767609,0.2445723,0.7512207,0.2438418c2.4752502-0.0065889,4.9504929-0.0159816,7.4257355-0.0245517
			c1.5542297,0.0137005,3.1087189,0.0476147,4.6625366,0.0282343c0.4406052-0.0054955,0.9597549,0.2416847,1.3205032-0.2475244
			C129.8400116,0.24,135.8400116,0.24,141.8400116,0.24z"></path>
	</g>
	<path d="M123.7110138,0.4671958c-7.7468414,0.0066971-15.4936905,0.0136903-23.2405319,0.0186887
		C100.2322769,0.4860382,99.9852753,0.4878634,99.840004,0.24c8,0,16,0,24-0.000001
		C123.7969971,0.3157303,123.7540054,0.3914625,123.7110138,0.4671958z"></path>
</g>
<g onclick="select(this)" class="" id="c-estampa-secundaria" fill="#877844">
	<path d="M81.9908676,7.9056053c3.7164459,0.0971155,7.3621216,0.8282051,11.035881,1.2867002
		c3.5210037,0.4394312,7.0437164,0.9203539,10.5805893,1.0594759c5.7418671,0.2258558,11.4768982,0.8798475,17.2326431,0.532506
		c5.5322266-0.3338509,11.0578766-0.7748222,16.5886383-1.1347103c5.3295135-0.3467932,10.5683899-1.3962507,15.8652649-1.9928112
		c1.6922607-0.0020461,3.1793365,0.6178446,4.2655945,1.8551683c1.3295135,1.5144062,3.0100708,2.4846239,4.7117157,3.4247122
		c8.3439026,4.6096983,16.9859772,8.5886469,25.8617249,12.0595617c5.1612549,2.0183353,10.1245117,4.4736748,15.1468506,6.7990761
		c0.2792358,0.1292839,0.6071167,0.2242584,0.727356,0.5688744c-0.3753204,0.3579826-0.2589264,0.8237038-0.2419281,1.2482986
		c0.1380615,3.4471741,0.434433,6.8949852,0.4026489,10.3400154c-0.0315704,3.422802-0.1876984,6.8613853-0.9555054,10.2298813
		c-0.1374207,0.6030159-0.423111,0.8587646-1.0717468,0.8030357c-0.7546539-0.0648422-1.5186005-0.0251427-2.2785187-0.0251083
		c-55.3560181,0.0024261-110.7120209,0.0014534-166.0680084,0.0337219
		c-1.2442703,0.0007248-1.7769356-0.2583847-2.0272369-1.6008415c-0.9463596-5.0756149-0.9791679-10.1668167-0.582716-15.2798462
		c0.1239052-1.5979424-0.5444088-3.2610817,0.4116764-4.8059769c0.1212196-0.1958694-0.0960426-0.6012154-0.1564999-0.9095039
		c2.532774-1.2175217,5.0242252-2.5317745,7.6058979-3.6348686c8.5719376-3.6626091,17.2333527-7.1144257,25.7158203-10.9884853
		c4.1147308-1.8792515,7.9702835-4.2011404,11.7602005-6.6478834c0.4491959-0.2900066,0.7514572-0.7095232,1.1091309-1.0832567
		C78.8212357,8.7989836,80.1587143,7.8455377,81.9908676,7.9056053z"></path>
</g>
<path d="M30.9487476,32.6056938c0.0283966-0.1490021,0.1076813-0.2142677,0.2602997-0.1582985
	C31.1220779,32.5002174,31.0354156,32.5529556,30.9487476,32.6056938z"></path>
<path d="M109.6681976,0.4586848c-3.0312729,0.0145092-6.0625381,0.0311106-9.0938263,0.0398865
	c-0.266449,0.0007714-0.5729904,0.061978-0.7343674-0.2587088c3.2799988,0,6.5600052,0,9.840004,0
	C109.6772995,0.3128695,109.6733627,0.3858103,109.6681976,0.4586848z"></path>
<path d="M133.2000122,0.2398625c-0.1258545,0.3692227-0.4487152,0.2638085-0.7002411,0.2635011
	c-2.8855591-0.0035268-5.7711258-0.0192114-8.6566772-0.031656c-0.0066452-0.0772061-0.0076752-0.1544882-0.0030899-0.2318451
	C126.9600067,0.2398625,130.0800018,0.2398625,133.2000122,0.2398625z"></path>
<path d="M109.6681976,0.4586848c0.0051651-0.0728745,0.0091019-0.1458153,0.0118103-0.2188223
	c2.7200012,0,5.4399948,0,8.159996,0c0.0018158,0.0739217,0.005867,0.1477203,0.0121689,0.2213959
	C115.124176,0.4604005,112.3961945,0.4595426,109.6681976,0.4586848z"></path>
<path d="M117.8521729,0.4612584c-0.0063019-0.0736756-0.0103531-0.1474743-0.0121689-0.2213959c2,0,4,0,6,0
	c-0.0045853,0.0773569-0.0035553,0.154639,0.0030899,0.2318451C121.8461151,0.4682237,119.8491516,0.464741,117.8521729,0.4612584z"></path>
<g onclick="select(this)" class="" id="c-detalhe-punho" fill="#877844">
	<path d="M0.2399997,116.0934372c0.4027714-1.9985123,0.8053151-3.9970779,1.2085985-5.9954834
		c0.0516928-0.2561569-0.0349213-0.5754776,0.3141818-0.6983948c0.3969409,0.2957916,0.8602586,0.3933792,1.3365779,0.4819183
		c5.6840782,1.0565338,11.3596659,2.1336517,17.0936527,2.9321899c4.0749264,0.5675049,8.1203194,1.3074875,12.2458401,1.3149872
		c3.1899376,0.0057983,6.3856316,0.2644424,9.5702019-0.1855164c1.1030617-0.1558533,2.0180435-0.7225647,2.9972534-1.164238
		c0.4100304-0.1849365,1.0423393-0.4891968,1.0699234,0.3300171c0.0606956,1.8019562,0.8188934,3.542984,0.4509964,5.3762131
		c0.0023117,0.0797882,0.0073547,0.1596069,0.0065308,0.239357c-0.0256424,2.4762344-0.2699776,2.6792755-2.7186317,2.8735428
		c-3.4558067,0.2741623-6.8773575,0.8683548-10.3740044,0.7480164c-6.3601456-0.218895-12.6405697-1.1057892-18.9197807-2.0284576
		c-4.5707188-0.671608-9.1072845-1.5342407-13.6159554-2.5435638c-0.2061896-0.0461502-0.4453551-0.2184677-0.6653849-0.0015488
		C0.24,117.2127914,0.24,116.6531219,0.2399997,116.0934372z"></path>
	<path d="M188.2043915,120.5987473c0.024353-2.4632492,0.1218414-4.922821,0.5325165-7.3562317
		c0.1293793-0.7666931,0.4836578-1.0945358,1.1672668-0.3823242c2.0262909,2.111084,4.5424652,2.7571259,7.4002686,2.5957489
		c1.6269379-0.0918579,3.2712402,0.0348282,4.9031219,0.1368332c3.6915588,0.230751,7.3070984-0.448204,10.9439545-0.8611679
		c4.1581268-0.4721451,8.3224945-0.9123459,12.4615021-1.5204391c2.1996918-0.3231888,4.3514557-0.972168,6.5248413-1.474144
		c0.6715546,0.1323853,0.5318604,0.7490997,0.6046753,1.154808c0.3456268,1.9256668,0.4254761,3.8803329,0.5631714,5.8301239
		c0.067215,0.9514236-0.3643494,1.2536469-1.1520844,1.4404984c-3.7714233,0.8945618-7.5856781,1.5633698-11.4204407,2.0993423
		c-7.0449982,0.9846649-14.1102295,1.6986465-21.2437897,1.521225c-2.9898071-0.0743408-5.8792877-0.4095612-8.5132751-1.9817581
		C190.1123047,121.2856445,188.8666992,121.6100235,188.2043915,120.5987473z"></path>
</g>
</svg>
