<!--?xml version="1.0" encoding="utf-8"?-->
<!-- Generator: Adobe Illustrator 24.2.3, SVG Export Plug-In . SVG Version: 6.00 Build 0)  -->
<svg version="1.1" id="Camada_1" xmlns="http://www.w3.org/2000/svg" xmlns:xlink="http://www.w3.org/1999/xlink" x="0px" y="0px" viewBox="0 0 229 418" enable-background="new 0 0 229 418" xml:space="preserve">
<g onclick="select(this)" class="" id="gola-primaria" fill="#000000">
	<path d="M77.9532471,7.9597087c0.5442505-0.060823,0.9727707-0.3512921,1.3516617-0.7144079
		c0.9517365-0.9121184,2.0429764-1.7265453,2.8068085-2.7772608c1.8079834-2.4870243,4.3546143-3.3584313,7.2153091-3.7517483
		c0.6288223-0.0864561,1.3583603,0.0999947,1.8729782-0.4764293c1.1999969,0,2.4000015,0,3.5999985,0
		c0.1687851,0.4909054,0.5990448,0.3124139,0.9139023,0.3135658c5.578331,0.0204086,11.1567383,0.0201361,16.7350998,0.0349731
		c0.4080353,0.0010852,0.7730331-0.0500705,1.0709991-0.3485389c7.5200043,0,15.0400085,0,22.5599976,0
		c0.0825958,0.4743731,0.4898376,0.314371,0.7612457,0.3588615c0.9795685,0.1605658,1.9686432,0.2631895,2.9482422,0.4236063
		c1.9836426,0.3248397,3.6553192,1.1195358,4.9371796,2.7921867c1.2989502,1.6949463,2.7366943,3.3046651,4.6419373,4.3876162
		c1.3338318,0.559351,1.940094,1.5309258,1.8434601,3.0019283c-0.235611,3.5861683-1.9489136,6.5051785-4.0314026,9.2897568
		c-0.4823914,0.6450272-0.8012085,0.5242634-1.3224487,0.1134567c-1.6621094-1.3100014-3.3261108-2.6210308-5.045578-3.8533516
		c-0.7900696-0.5662289-0.9149628-0.926733-0.2011108-1.7098112c1.5596924-1.7109747,2.8257294-3.6363506,3.6953278-5.9588709
		c-3.8121643,0.2876577-7.46698,0.5966864-11.1264954,0.832839c-8.2862701,0.5347214-16.5606079,1.3604345-24.8863144,0.8980713
		c-7.9773407-0.443017-15.9347458-1.1162539-23.8829803-1.9115543c-1.285965-0.1286755-1.369072-0.044939-0.8895187,1.1417885
		c0.8056946,1.9938097,2.0816574,3.6765404,3.5389481,5.2270527c0.5396957,0.5742092,0.6279068,0.9768744-0.0833054,1.5165873
		c-1.717453,1.3033161-3.394783,2.6610584-5.0562897,4.0355015c-0.5477753,0.4531364-0.8727188,0.4428539-1.3376007-0.1304188
		c-1.9395523-2.3917847-3.4067764-5.0153084-4.1501999-8.0189981C75.8739624,10.416997,76.2670898,9.2020445,77.9532471,7.9597087z"></path>
</g>
<g onclick="select(this)" class="" id="estampa-primaria" fill="#000000">
	<path d="M43.1515503,120.3646698c-0.1404991-2.3006744-0.1914711-4.6079102-0.6132278-6.885849
		c-0.0899544-0.485817-0.2391663-0.6317444-0.6915321-0.4280777c-2.4907532,1.1215134-5.2097473,1.1106415-7.8384094,1.4879227
		c-1.4780464,0.2121429-3.0204296-0.0509491-4.5338783-0.0523834c-4.2323608-0.0040283-8.4661789-0.0824814-12.6740704-0.5230713
		c-3.80264-0.3981781-7.5636272-1.0788956-11.1697559-2.440567c-1.449275-0.5472488-2.9991877-0.8545074-4.2283468-1.8888321
		c1.7889749-9.4180679,2.6642451-18.9717102,4.2234063-28.4253159C6.476234,76.0517044,6.7927861,70.8162842,7.9036627,65.691246
		c1.7424269-8.0386963,4.4395752-15.6649666,9.3638182-22.3660049c2.1397705-2.9118538,4.5772095-5.5549202,7.4105587-7.7961693
		c1.3626118-1.0778542,2.3616104-2.5712852,3.923933-3.3974419c3.6044178-1.9060097,7.2547016-3.723999,11.025713-5.2781143
		c9.9812241-4.1134815,19.9857483-8.1736889,29.442276-13.433075c1.9732819-1.0974712,4.0098419-2.0742865,5.5134583-3.8943434
		c0.8124695-0.9834595,1.9979477-1.5784073,3.3699265-1.5663853c-1.6862564,1.2423325-2.0793839,2.4572849-1.5202484,4.7163982
		c0.7434235,3.0036898,2.2106476,5.6272135,4.1501999,8.0189981c0.4648819,0.5732727,0.7898254,0.5835552,1.3376007,0.1304188
		c1.6615067-1.3744431,3.3388367-2.7321854,5.0562897-4.0355015c0.7112122-0.5397129,0.6230011-0.942378,0.0833054-1.5165873
		c-1.4572906-1.5505123-2.7332535-3.233243-3.5389481-5.2270527c-0.4795532-1.1867275-0.3964462-1.2704639,0.8895187-1.1417885
		c7.9482346,0.7953005,15.9056396,1.4685373,23.8829803,1.9115543c8.3257065,0.4623632,16.6000443-0.3633499,24.8863144-0.8980713
		c3.6595154-0.2361526,7.3143311-0.5451813,11.1264954-0.832839c-0.8695984,2.3225203-2.1356354,4.2478962-3.6953278,5.9588709
		c-0.7138519,0.7830782-0.5889587,1.1435823,0.2011108,1.7098112c1.7194672,1.2323208,3.3834686,2.5433502,5.045578,3.8533516
		c0.5212402,0.4108067,0.8400574,0.5315704,1.3224487-0.1134567c2.082489-2.7845783,3.7957916-5.7035885,4.0314026-9.2897568
		c0.0966339-1.4710026-0.5096283-2.4425774-1.8434601-3.0019283c1.8036041-0.1237278,2.9669189,0.9629507,4.043045,2.1744213
		c0.3423309,0.3853559,0.6636658,0.7412128,1.1135864,1.0353756c10.0124969,6.5462341,21.2043915,10.6002197,32.1449432,15.1727829
		c3.9642639,1.6568451,7.7808228,3.6279182,11.7509613,5.2658405c1.1914215,0.4915409,1.9353333,1.6271687,2.9535828,2.3855915
		c3.5110168,2.6150703,6.6709747,5.5916252,9.3223114,9.0906715c4.8722534,6.4300346,7.6369781,13.775341,9.3872375,21.560955
		c0.6486359,2.8853226,1.186264,5.7949905,1.4686127,8.7377701c0.5558472,5.7934952,2.2961578,11.3432922,3.4221191,17.0187912
		c1.0883484,5.4858246,1.7017517,11.0482101,2.7525024,16.5389175c0.0593872,0.3102341,0.0377197,0.6359482,0.053772,0.9545135
		c-3.2637939,1.303833-6.582428,2.4195786-10.0181885,3.2038116c-3.1164703,0.7113266-6.2818298,1.1122208-9.4234467,1.66082
		c-3.0315704,0.5293884-6.0936737,0.7425232-9.1736145,0.7394409c-4.2304077-0.0042343-8.4836426,0.2719727-12.655899-0.596138
		c-1.2034302-0.2503891-1.4215546,0.1192093-1.6173706,1.1066895c-0.3850555,1.9416962-0.2653351,3.8918304-0.2623901,5.8428955
		c-0.4411316,0.8073425-0.294342,1.7092896-0.3958435,2.5675964c-0.9905243,8.376976-1.7194824,16.772728-1.7455292,25.2169876
		c-0.0067902,2.2001038,0.0669098,4.3846893,0.523468,6.5547638c0.4015656,1.9087067-0.0415955,3.8243256-0.2045593,5.7283325
		c-0.181076,2.1157532-0.2705383,4.2298737-0.1432648,6.3460541c0.1518402,2.5245819-0.2316589,5.0275574-0.2313995,7.5436859
		c0.0002747,2.5966339-0.0800171,5.1951904,0.1816406,7.7869263c0.2424622,2.401474-0.2102966,4.7841187-0.2298737,7.1815948
		c-0.0185547,2.2703705,0.5234375,4.434845,1.0016937,6.6138458c1.5915985,7.2516785,1.3577728,14.5254669,0.321991,21.8117981
		c-0.3045654,2.1425323-0.3740692,4.2081604,0.3273163,6.3549805c1.772522,5.4253693,1.8140717,11.004364,0.9409332,16.6020203
		c-0.2309723,1.4807892-0.2497253,2.9243011,0.0909424,4.3914642c0.8872986,3.8212128,0.4440155,7.7200317,0.6459045,11.5819855
		c0.3085022,5.9015503,0.6915588,11.7999573,1.4322815,17.6716309c0.2583313,2.0477295,0.2249298,4.1363525,0.2557526,6.2073364
		c0.0257568,1.7311096-0.3525696,2.2270203-2.0640717,2.7422485c-3.0049744,0.9046326-6.1232452,1.1564636-9.2236786,1.4806824
		c-8.3243256,0.8704529-16.684082,0.875061-25.0398712,1.0386353c-11.5935974,0.2269592-23.1845932,0.774292-34.7774734,0.796814
		c-11.5119629,0.0223999-23.0147552-0.7998352-34.53302-0.8546448c-8.3570328-0.0397644-16.7156677-0.1080933-25.0555153-0.7388611
		c-4.2287102-0.3198242-8.4451218-0.7576904-12.5860748-1.7210693c-3.6356277-0.8458252-3.9869041-1.1677856-3.7778854-4.8088684
		c0.4413528-7.6882935,0.9998283-15.3699951,1.5411453-23.0522461c0.140564-1.9948425,0.2801247-3.9875031,0.2333336-5.9868927
		c-0.0440826-1.8836212,0.0298157-3.7575989,0.3702316-5.6125793c0.4073219-2.2195892,0.4394226-4.4304352,0.1149673-6.671875
		c-0.3644104-2.5174713-0.1079674-5.0299683,0.4367638-7.5027313c0.2282982-1.0363312,0.1923027-2.0486298,0.1161079-3.0909729
		c-0.3318748-4.5399933-1.0253105-9.059433-0.8239441-13.631073c0.1898727-4.3105927,1.2076683-8.4514313,2.6681671-12.4867859
		c0.3758659-1.0385284,0.6182938-2.0305634,0.4542694-3.1416168c-0.1813393-1.228302-0.1615372-2.4718628,0.0717125-3.7012024
		c0.3159981-1.6654663,0.1919746-3.3271332,0.1082954-5.010376c-0.1643028-3.3049622-0.1748161-6.6190948-0.1883888-9.9297028
		c-0.0528755-12.8978577-0.0415001-25.7961121-0.1398544-38.693573c-0.0396805-5.2032166-0.9885941-10.3359528-1.5531769-15.4973145
		C43.6142197,122.9056549,43.766777,121.5702896,43.1515503,120.3646698z"></path>
</g>
<g onclick="select(this)" class="" id="detalhe-punho" fill="#877844">
	<path d="M0.24,114.6542282c0.583228-1.0720215,0.3827578-2.3065491,0.7111229-3.43367
		c0.1536794-0.5275192,0.13833-1.1031189,0.4512064-1.5867462c1.2291592,1.0343246,2.7790718,1.3415833,4.2283468,1.8888321
		c3.6061287,1.3616714,7.367116,2.0423889,11.1697559,2.440567c4.2078915,0.4405899,8.4417095,0.519043,12.6740704,0.5230713
		c1.5134487,0.0014343,3.0558319,0.2645264,4.5338783,0.0523834c2.6286621-0.3772812,5.3476563-0.3664093,7.8384094-1.4879227
		c0.4523659-0.2036667,0.6015778-0.0577393,0.6915321,0.4280777c0.4217567,2.2779388,0.4727287,4.5851746,0.6132278,6.885849
		c-0.5703659,0.5544662-1.3241272,0.738678-2.0481415,0.9182892c-2.2502251,0.558197-4.5420418,0.9585571-6.8565636,1.0050888
		c-7.5839615,0.1524811-15.1675758,0.2204361-22.6745911-1.1818542c-3.0145712-0.5631256-6.0234237-1.1427994-8.9364958-2.1202469
		c-0.8156703-0.2736893-1.598085-0.6463776-2.3957574-0.9736481C0.24,116.8929443,0.24,115.7735825,0.24,114.6542282z"></path>
	<path d="M184.6303711,120.0952835c-0.0029449-1.9510651-0.1226654-3.9011993,0.2623901-5.8428955
		c0.195816-0.9874802,0.4139404-1.3570786,1.6173706-1.1066895c4.1722565,0.8681107,8.4254913,0.5919037,12.655899,0.596138
		c3.0799408,0.0030823,6.1420441-0.2100525,9.1736145-0.7394409c3.1416168-0.5485992,6.3069763-0.9494934,9.4234467-1.66082
		c3.4357605-0.7842331,6.7543945-1.8999786,10.0181885-3.2038116c0.9974213,2.4374161,1.2762146,4.9902496,1.1629181,7.5927658
		c-0.0325317,0.747139-0.7740631,0.8473129-1.2987061,1.0544434c-2.490799,0.9832916-5.0855103,1.6438446-7.6618347,2.3490143
		c-9.1388245,2.5013885-18.4691162,3.110321-27.8868713,2.635231c-2.0218353-0.102005-4.0606384-0.308609-6.0298462-0.8818054
		C185.5262299,120.7300262,184.9997559,120.5578766,184.6303711,120.0952835z"></path>
</g>
<g onclick="select(this)" class="" id="estampa-secundaria" fill="#877844">
	<path d="M198.978302,32.2235031c0.1078491,1.7100449-0.4309845,3.3080788-0.8548584,4.9258881
		c-1.1431122,4.3630714-1.9488983,8.7855186-2.3379517,13.2810287c-0.1150818,1.3294601,0.130661,2.6786461-0.4100037,3.9904594
		c-0.2253876,0.5468559-0.4426422,0.7902985-1.0062256,0.7505302c-0.2785645-0.0196609-0.5596924-0.0030785-0.8396606-0.0030785
		c-53.3145447,0.0000114-106.6290817-0.0040321-159.9436035,0.0276756c-1.1171341,0.0006638-1.482132-0.3122215-1.4027901-1.3801155
		c0.0807648-1.0870552-0.2555828-2.1166992-0.5016212-3.1709213c-0.339819-1.4560318-0.2179832-2.982872-0.4519596-4.4759789
		c-0.6052608-3.8625298-1.3429413-7.6917458-2.5640297-11.4086914c-0.2718582-0.8275299,0.3311729-1.7448921-0.3676376-2.4792633
		c3.1941605-1.5866566,6.3371906-3.287241,9.5936222-4.7326374c4.8782806-2.1652699,9.8032951-4.2346249,14.768261-6.1933079
		c6.8317871-2.6951523,13.2032318-6.280036,19.5999985-9.8268747c0.7045441-0.3906536,1.254303-0.9409227,1.7881546-1.55124
		c1.0424728-1.1917896,2.2595749-2.1457276,3.9903259-2.0417314c-1.9378204,1.2550254-2.0048141,3.0250659-1.4428558,5.0185809
		c0.7770767,2.7566118,2.0629349,5.2355528,3.8371582,7.4788294c0.4803085,0.6072769,0.853981,0.8066578,1.5395126,0.2146339
		c1.829071-1.5795918,3.7190628-3.0887222,5.5848846-4.6256084c1.4164124,1.6981068,3.1019211,3.1128788,4.8417969,4.4504433
		c7.9154816,6.0851574,16.6943741,9.3913155,26.7825699,7.5324841c8.4612503-1.5590534,15.3426132-6.0177727,20.9804459-12.4509468
		c-0.0674286,0.5371628,0.3422699,0.7757797,0.6791992,1.0380154c1.7304077,1.3467102,3.4773407,2.6722755,5.2010193,4.0274258
		c0.3459015,0.2719402,0.60672,0.340517,0.9073181-0.0201378c2.1844482-2.6208439,3.7294922-5.5529881,4.2411957-8.9547739
		c0.2400055-1.5955048-0.4185944-2.7841167-1.9049072-3.4775705c1.9160461-0.2055888,3.1348419,0.9419975,4.235199,2.244791
		c0.3401642,0.4027519,0.6940155,0.7288761,1.1331635,1.0155458c9.7995911,6.3971834,20.7499084,10.3693895,31.4496765,14.8552275
		c4.1760406,1.7507801,8.2026978,3.8221512,12.3955994,5.5264721
		C198.6963043,31.8887348,199.0039368,31.8735161,198.978302,32.2235031z"></path>
</g>
<g onclick="select(this)" class="" id="estampa-terciaria" fill="#ffffff">
	<path d="M113.7752533,61.6446571c26.4749298,0,52.9498596-0.0000076,79.4247894,0.0000153
		c1.6729279,0.0000076,1.6717377,0.000103,1.6702881,1.728653c-0.0019531,2.3166847-0.0241089,4.6337013,0.0103455,6.9498634
		c0.0110016,0.7397079-0.2447052,1.0051498-0.9744263,0.9281998c-0.5142365-0.0542297-1.038681-0.0121994-1.5585938-0.0121994
		c-52.7498169-0.0000916-105.4996414-0.0045242-158.2494507,0.0281067
		c-1.1908569,0.0007324-1.5770569-0.2482529-1.4977379-1.4808807c0.1095123-1.7017975,0.0472984-3.4108047,0.3140373-5.1100998
		c0.0964699-0.6145477,0.0703545-1.3145142-0.1312675-1.8952332c-0.3684235-1.0611153,0.0678406-1.1522865,0.9673653-1.1509857
		c14.2372398,0.0206146,28.4745216,0.0145378,42.7117958,0.0145531
		C88.9000168,61.6446648,101.3376389,61.6446571,113.7752533,61.6446571z"></path>
</g>
</svg>
