<!--?xml version="1.0" encoding="utf-8"?-->
<!-- Generator: Adobe Illustrator 24.2.3, SVG Export Plug-In . SVG Version: 6.00 Build 0)  -->
<svg version="1.1" id="Camada_1" xmlns="http://www.w3.org/2000/svg" xmlns:xlink="http://www.w3.org/1999/xlink" x="0px" y="0px" viewBox="0 0 229 418" enable-background="new 0 0 229 418" xml:space="preserve">
<g onclick="select(this)" class="" id="estampa-primaria" fill="#ffffff">
	<path d="M43.3361168,120.4746552c-0.2101822-1.7968292-0.4633865-3.5899506-0.6187172-5.3915024
		c-0.1625862-1.8856277-0.2511826-2.0255585-2.0599174-1.648941c-6.8736954,1.431221-13.7845001,1.1175003-20.7246532,0.6410217
		c-4.1520681-0.2850647-8.2633028-0.7054749-12.2979603-1.7260742c-2.161747-0.5468216-4.3023148-1.1773834-6.452384-1.770607
		c0.9832051-4.6944427,1.710304-9.4310074,2.2652452-14.1916885c0.8147309-6.9893265,2.161412-13.9026031,2.9144485-20.9012604
		C7.00946,69.4698257,8.1461086,63.5459442,10.02213,57.7793922c2.9524479-9.0752945,8.0192003-16.63377,15.2955141-22.9292145
		c4.641325-4.0156631,10.1261501-6.1122017,15.5386753-8.4372444c9.5230942-4.090807,19.1496506-7.9399338,28.2282448-12.9891987
		c1.9752045-1.0985622,3.998909-2.0944109,5.5171432-3.9018002c0.8427429-1.0032473,2.0552597-1.6525912,3.4933624-1.5504246
		c-1.6690369,0.911767-1.9942245,2.37745-1.6832047,4.0992002c0.0709457,0.3928022,0.174202,0.7797356,0.2612457,1.1696711
		c0.8237534,3.6903038,2.9550095,6.6721439,5.5161438,9.2610703c5.7755432,5.8382244,12.4840088,10.2771969,20.4383316,12.6342793
		c2.1298523,0.6311302,4.2955933,1.1106682,6.6459579,1.064991c-0.5338974-1.2844391-1.4534302-2.1956291-2.3009262-3.0927887
		c-3.1059952-3.2880211-6.5108948-6.2602386-10.0273743-9.1035366c-3.6951294-2.9877663-7.5911026-5.7475491-10.6006622-9.5057726
		c-1.1553192-1.4426966-2.2062607-2.9282017-2.9025269-4.6584578c-0.3602753-0.8952703-0.0476456-1.0153322,0.7604065-0.9296112
		c8.6987839,0.922802,17.4164963,1.6134081,26.1527786,2.0596113c4.8011017,0.2452154,9.5862045-0.1699533,14.3717422-0.4393368
		c4.1464462-0.233408,8.2862778-0.5848207,12.4287338-0.8880043c2.3001556-0.1683464,4.5997314-0.3447294,6.9456177-0.5209475
		c-0.1444855,0.8089581-0.4932556,1.4364643-0.8457642,2.0579758c-2.4790802,4.3710222-6.1096344,7.6467533-10.0511169,10.6473789
		c-4.6786194,3.5618324-9.2728195,7.2288265-13.2001648,11.6443291c-0.7319489,0.822937-1.4752579,1.6511688-1.9698868,2.8885307
		c1.1166229-0.2099304,2.0835495-0.063839,3.0767593-0.2575684c3.6875992-0.7192917,7.1508179-2.0464096,10.489624-3.7210732
		c5.1791077-2.5976906,9.9228821-5.8279591,13.9182587-10.0487232c2.569397-2.7143421,4.4947815-5.8517628,5.4047394-9.5299778
		c0.6181793-2.4987421-0.2522278-4.1453342-1.7312012-4.5330067c1.943222-0.3242459,3.1177673,0.9020796,4.2467346,2.1567545
		c0.3477783,0.3865013,0.6880035,0.7267332,1.1286316,1.019886c8.8592834,5.8942385,18.7728577,9.6096907,28.4977417,13.6844301
		c5.0627441,2.1213017,10.0329742,4.4418583,15.0825806,6.5857468c0.2867889,0.1217613,0.5728149,0.2649422,0.8249359,0.4459
		c11.2115326,8.0465317,18.1936951,18.8202171,21.0527649,32.3346024
		c1.0608826,5.0147476,1.2833252,10.1653595,2.4897308,15.1304626c2.1820068,8.9800873,3.6789246,18.0787277,5.1480865,27.1876221
		c0.0887604,0.5503616,0.1269836,1.1088715,0.1885681,1.6634598c-0.3645477-0.0474243-0.7153015-0.0071335-1.0527039,0.147644
		c-5.3200073,2.4405899-10.9899139,3.46521-16.7322083,4.322876c-4.8674622,0.7269821-9.7268219,1.3356934-14.646347,1.004715
		c-3.0179901-0.2030563-6.0691071,0.0220795-9.0557098-0.6596832c-0.3630829-0.0828705-1.0329285-0.319397-1.0531616,0.3600006
		c-0.0652313,2.1891479-1.0532837,4.280571-0.6636505,6.5102005c-0.5996704,2.0014877-0.5344086,4.090416-0.7905884,6.1364059
		c-0.8949738,7.1481323-1.2949219,14.3305511-1.3635254,21.5325623c-0.0213623,2.2410431,0.0507813,4.4670715,0.514328,6.6791992
		c0.4084167,1.9490814-0.1002045,3.9014282-0.1983795,5.8523102c-0.0421906,0.8381042-0.1978302,1.6774902-0.1664124,2.5111694
		c0.2422791,6.433075-0.6019745,12.8642731-0.0210724,19.296936c0.2062683,2.2839813-0.212616,4.5477905-0.2432709,6.826355
		c-0.0310822,2.3100128,0.5135193,4.517807,1.0009308,6.7380829c1.592453,7.2540588,1.3647461,14.5321045,0.3311005,21.8229065
		c-0.3036346,2.1416016-0.3860931,4.2071228,0.3188629,6.357605c1.79216,5.467041,1.8125,11.0900421,0.9352264,16.7301788
		c-0.2179413,1.4012146-0.2448883,2.7664795,0.0792084,4.1568146c0.9001465,3.8616333,0.4709167,7.8023071,0.6703339,11.7068024
		c0.3015289,5.9052429,0.6929626,11.8065796,1.4281311,17.6820374c0.2564545,2.0493469,0.2247467,4.1387939,0.2575684,6.210968
		c0.0276184,1.7446289-0.3406372,2.2341309-2.0523682,2.75177c-3.0040741,0.9084167-6.1225128,1.1583557-9.2227325,1.4839783
		c-8.3638763,0.8783264-16.7637329,0.8764343-25.1590729,1.0420837c-11.6733246,0.2302551-23.3444214,0.781311-35.0168152,0.7914429
		c-11.3913727,0.0098877-22.7747269-0.7897339-34.1726074-0.850708c-8.396843-0.0448914-16.7953873-0.10849-25.1746025-0.7459106
		c-4.2282104-0.3216248-8.4446487-0.7641296-12.5834808-1.7372437c-3.5226593-0.8282166-3.8817024-1.1704102-3.6740036-4.7752075
		c0.4454918-7.7318726,1.0047455-15.4573975,1.5502663-23.1832123c0.1466026-2.0762482,0.2673111-4.150238,0.2184067-6.2306976
		c-0.0405502-1.724762,0.0539246-3.4385986,0.3564949-5.1369019c0.4024506-2.2589264,0.4742508-4.5084381,0.1367073-6.79422
		c-0.3715973-2.5163879-0.1149597-5.0323486,0.4303474-7.5068817c0.2282982-1.0359955,0.1989555-2.0488281,0.1221313-3.0924072
		c-0.3344193-4.5423431-1.0253601-9.0643921-0.8279915-13.6383972c0.1861229-4.313385,1.2090988-8.4557495,2.6622276-12.495163
		c0.3737335-1.0388947,0.6244507-2.0293732,0.4623566-3.1422424c-0.1849098-1.2694855-0.1565132-2.5534668,0.0842667-3.8226471
		c0.3010979-1.5870667,0.1834869-3.1711273,0.1076965-4.7750397c-0.1581841-3.3474274-0.1870003-6.7026215-0.2009506-10.0549164
		c-0.0537033-12.9053192-0.0422363-25.8110504-0.1364212-38.7160339
		c-0.0374107-5.1263123-0.9949379-10.1804962-1.5068665-15.2701874
		C43.6686363,123.1601257,43.4931717,121.8183136,43.3361168,120.4746552z"></path>
</g>
<g onclick="select(this)" class="selected" id="estampa-terciaria" fill="#bf0811">
	<path d="M160,30c-0.0048828,0.5996571,0,0.4003429,0,1c-0.0006256,84.5209732,0.0007172,169.4790192,0,254
		c0,1-0.6516418,0.2566223-0.6572113,0.5762329c-1.5456238,0.221283-3.1030426,0.2014771-4.6576843,0.2124023
		c-2.4369812,0.0171509-4.8740692,0.1193848-7.3112335,0.0095825C146,286,146,284.598938,146,283.9992981
		C145.9994202,197.3447571,145.9984894,110.6545334,146,24c0.0000153-0.5592442-0.0116577-1.4407558,0-2
		c0,0,1.9315948,0.4809151,2.1522827,0.6345539c3.4840546,2.425539,7.133606,4.5659637,10.9647369,6.3963509C160,30,160,29,160,30z"></path>
</g>
<g onclick="select(this)" class="" id="estampa-secundaria" fill="#000000">
	<path d="M146.4300842,21.1076565c-0.264801,0.8697166,0.5967865,0.8696899,0.9654083,1.2503033
		c-0.0116577,0.5592461-0.0335083,1.1184883-0.0335236,1.6777325c-0.0015106,86.6545334-0.0014648,173.3090668-0.000885,259.9635925
		c0,0.5996399,0.0083466,1.1992493,0.0127869,1.7989197c-3.9719391,0.1210632-7.9438324,0.2437134-11.9159393,0.3585205
		c-0.19133,0.0055542-0.3846436-0.0576172-0.5770111-0.0888367c-0.0003204-88.086731,0.0006104-176.1734619-0.0193024-264.2601929
		c-0.0001831-0.8448849,0.2346344-1.4063282,0.9070587-1.9128685c1.2783508-0.9629498,2.4211273-2.0871506,3.5317383-3.240675
		c0.2180481-0.2264633,0.4019165-0.5038815,0.7362366-0.5881443c1.4877472,1.3592968,3.158371,2.4869823,4.7329712,3.7362823
		C145.321167,20.2398796,145.8764801,20.6726742,146.4300842,21.1076565z"></path>
	<path d="M159.3740997,29.2555637c3.9598236,1.8100128,7.9889679,3.4461765,12.1281433,4.8017864
		c0.4689941,0.1536026,0.6226959,0.4240952,0.5828552,0.886158c-0.027359,0.3175125-0.0050659,0.6392975-0.0050659,0.9591751
		c0.0000153,82.4882965-0.0000763,164.9766083,0.0019073,247.4649048c0.0000153,0.5185547,0.0287323,1.0371399,0.0440369,1.5556946
		c-0.0554047,0.3635864-0.3121185,0.3822632-0.6114655,0.39151c-4.0564728,0.1246643-8.1109467,0.3369141-12.1717224,0.2614441
		c0.0055695-0.3196106,0.0160217-0.6391907,0.0160217-0.9587708c0.0007172-84.5209808,0.0006561-169.0419617,0.0012817-253.5629272
		C159.3600922,30.4548779,159.3692169,29.8552208,159.3740997,29.2555637z"></path>
</g>
<g onclick="select(this)">
	<image overflow="visible" width="466" height="309" xlink:href="3C78E0CA.jpg" transform="matrix(1 0 0 1 -7894 -7770.1103516)">
	</image>
</g>
<image overflow="visible" width="466" height="309" xlink:href="3C78E0CE.jpg" transform="matrix(1 0 0 1 -7894 -7770.1103516)">
</image>
<g onclick="select(this)" class="" id="gola-primaria" fill="#ffffff">
	<path d="M149.1925812,8.269743c1.4789734,0.3876724,2.3493805,2.0342646,1.7312012,4.5330067
		c-0.9099579,3.678215-2.8353424,6.8156357-5.4047394,9.5299778c-3.9953766,4.2207642-8.739151,7.4510326-13.9182587,10.0487232
		c-3.3388062,1.6746635-6.8020248,3.0017815-10.489624,3.7210732c-0.9932098,0.1937294-1.9601364,0.0476379-3.0767593,0.2575684
		c0.4946289-1.2373619,1.2379379-2.0655937,1.9698868-2.8885307c3.9273453-4.4155025,8.5215454-8.0824966,13.2001648-11.6443291
		c3.9414825-3.0006256,7.5720367-6.2763567,10.0511169-10.6473789c0.3525085-0.6215115,0.7012787-1.2490177,0.8457642-2.0579758
		c-2.3458862,0.176218-4.645462,0.3526011-6.9456177,0.5209475c-4.1424561,0.3031836-8.2822876,0.6545963-12.4287338,0.8880043
		c-4.7855377,0.2693834-9.5706406,0.6845522-14.3717422,0.4393368c-8.7362823-0.4462032-17.4539948-1.1368093-26.1527786-2.0596113
		c-0.8080521-0.085721-1.1206818,0.0343409-0.7604065,0.9296112c0.6962662,1.7302561,1.7472076,3.2157612,2.9025269,4.6584578
		c3.0095596,3.7582235,6.9055328,6.5180063,10.6006622,9.5057726c3.5164795,2.843298,6.9213791,5.8155155,10.0273743,9.1035366
		c0.847496,0.8971596,1.7670288,1.8083496,2.3009262,3.0927887c-2.3503647,0.0456772-4.5161057-0.4338608-6.6459579-1.064991
		c-7.9543228-2.3570824-14.6627884-6.7960548-20.4383316-12.6342793c-2.5611343-2.5889263-4.6923904-5.5707664-5.5161438-9.2610703
		c-0.0870438-0.3899355-0.1903-0.7768688-0.2612457-1.1696711c-0.3110199-1.7217503,0.0141678-3.1874332,1.6832047-4.0992002
		c0.5586929-0.0352974,0.9663391-0.364903,1.3431702-0.7227721c0.8981323-0.852942,1.9341431-1.6141291,2.6379166-2.6081667
		c2.0089035-2.8373833,4.9349976-3.6040525,8.1188278-3.926898c2.0712814-0.2100314,4.1403732-0.0636327,6.2131424-0.0417281
		c5.4365463,0.0574517,10.8757477,0.1029832,16.3108749-0.0022722c7.9102554-0.153188,15.8177567,0.0332518,23.726326,0.0516684
		c1.225769,0.0028543,2.4586029,0.2772096,3.6743011,0.5012605c1.6950073,0.3123879,3.1126556,1.0528792,4.2329712,2.4699326
		C145.7337341,5.4394965,147.1852722,7.1622701,149.1925812,8.269743z"></path>
</g>
<g onclick="select(this)" class="" id="detalhe-punho" fill="#bf0811">
	<path d="M0.24,114.4800034c0.5919054-1.2335434,0.4179677-2.652092,0.9424851-3.9014511
		c2.150069,0.5932236,4.290637,1.2237854,6.452384,1.770607c4.034657,1.0205994,8.1458912,1.4410095,12.2979603,1.7260742
		c6.9401531,0.4764786,13.8509579,0.7901993,20.7246532-0.6410217c1.8087349-0.3766174,1.8973312-0.2366867,2.0599174,1.648941
		c0.1553307,1.8015518,0.408535,3.5946732,0.6187172,5.3915024c-2.8209724,1.4041672-5.8979797,1.7682724-8.9545937,1.8574982
		c-7.625452,0.2226334-15.254734,0.254715-22.807106-1.1541138c-3.0943499-0.5772247-6.1756763-1.1966705-9.1687393-2.1837921
		c-0.7417217-0.2446213-1.4448218-0.6063461-2.1656778-0.9142456C0.24,116.8800049,0.24,115.6800079,0.24,114.4800034z"></path>
	<path d="M184.6485748,120.16436c-0.3896332-2.2296295,0.5984192-4.3210526,0.6636505-6.5102005
		c0.0202332-0.6793976,0.6900787-0.4428711,1.0531616-0.3600006c2.9866028,0.6817627,6.0377197,0.4566269,9.0557098,0.6596832
		c4.9195251,0.3309784,9.7788849-0.2777328,14.646347-1.004715c5.7422943-0.857666,11.4122009-1.8822861,16.7322083-4.322876
		c0.3374023-0.1547775,0.6881561-0.1950684,1.0527191-0.147644c1.1144409,2.3423615,1.1694183,4.8498764,1.0798492,7.3615494
		c-0.0251923,0.7068329-0.7940216,0.8254929-1.3274384,1.0259857c-2.9121094,1.0944824-5.9199219,1.8739319-8.9258881,2.6579895
		c-8.7292328,2.2769089-17.6231537,2.7331924-26.5809174,2.3143158c-2.0183258-0.094368-4.055481-0.3039093-6.0210266-0.8830338
		C185.5387878,120.7968369,185.0050049,120.6445847,184.6485748,120.16436z"></path>
</g>
</svg>
