<!--?xml version="1.0" encoding="utf-8"?-->
<!-- Generator: Adobe Illustrator 24.2.3, SVG Export Plug-In . SVG Version: 6.00 Build 0)  -->
<svg version="1.1" id="Camada_1" xmlns="http://www.w3.org/2000/svg" xmlns:xlink="http://www.w3.org/1999/xlink" x="0px" y="0px" viewBox="0 0 229 418" enable-background="new 0 0 229 418" xml:space="preserve">
<g onclick="select(this)" class="" id="gola-primaria" fill="#082890">
	<path d="M77.9719238,7.969233c0.9347-0.1562185,1.5103531-0.8625746,2.1502304-1.4465899
		c0.7069397-0.645227,1.4712753-1.2745314,2.0082016-2.0507722c2.1033096-3.040709,5.3332443-3.885504,8.6122055-3.9147363
		c15.2177811-0.1356687,30.4375076-0.0768437,45.6563797-0.0336667c1.8729248,0.0053136,3.7169037,0.4812707,5.5058594,1.0726919
		c0.8923645,0.2950147,1.5990906,0.843742,2.2200623,1.563037c1.5876007,1.8389177,3.0818024,3.7833462,5.2238464,5.0523243
		c1.8429565,0.8999453,2.32341,2.1702232,1.6932983,4.6490765c-1.0010529,3.9381084-3.1523895,7.1790295-6.0192871,10.0144882
		c-3.2079163,3.1727352-6.6917114,6.001255-10.659256,8.1302776c-2.5165863,1.3504143-5.0346222,2.7601128-7.793808,3.6233177
		c-2.7822113,0.8703957-5.5842133,1.5878563-8.5060272,1.8678017c-10.1731567,0.9747276-19.3906021-1.5887184-27.7946777-7.311491
		c-4.4524078-3.0318794-8.6118851-6.3667908-11.4976883-11.021534c-1.336586-2.1558857-2.3134003-4.4350901-2.4790344-7.0355616
		C76.1980286,9.648881,76.7766571,8.6842136,77.9719238,7.969233z M144.21698,9.0870171
		c-10.2479553,0.8179588-20.3850174,1.8676548-30.5517883,1.8990765
		c-10.1644821,0.031415-20.2793884-1.2500095-30.4367905-2.1495667
		c1.5316162,7.9662781,17.5761948,18.8770065,28.5077438,19.4994621
		C124.5473175,29.0654755,140.9449768,19.424511,144.21698,9.0870171z"></path>
</g>
<g onclick="select(this)" class="" id="estampa-primaria" fill="#bf0811">
	<path d="M228.9600067,116.1600037c-6.8573608,2.7827988-14.012085,4.3406754-21.3363495,5.2295303
		c-6.1865082,0.7507629-12.3683929,0.6981201-18.5518646,0.0141602c-1.5450592-0.1708984-3.0964508-0.3526306-4.5778809-1.2681656
		c-0.2169952,2.0427322-0.4040222,3.9826508-0.6320343,5.9177551c-0.8618011,7.3140564-1.3113098,14.6531677-1.3702393,22.0167847
		c-0.0173035,2.1614838,0.0713806,4.3074493,0.516861,6.4402771c0.4073029,1.9498596-0.0998688,3.9020081-0.1979218,5.8531799
		c-0.0421448,0.8382263-0.1979218,1.6777191-0.1665344,2.5115509c0.242218,6.434021-0.5886841,12.8650208-0.0313416,19.3006744
		c0.131073,1.5136261,0.0321655,3.0341797-0.1354828,4.5505066c-0.3388214,3.0646515,0.2162628,6.0424805,0.888443,9.0185089
		c1.6364441,7.2451019,1.3792725,14.5308533,0.3453064,21.8226624c-0.3037415,2.1420898-0.3855896,4.2071381,0.3206482,6.3586578
		c1.7946777,5.467392,1.8110352,11.0920105,0.9322662,16.7324371c-0.2185211,1.4025421-0.2377777,2.7680054,0.0836639,4.1573029
		c0.8846588,3.8234863,0.4741974,7.7231598,0.6637421,11.5890808c0.2915344,5.9466248,0.6890106,11.888916,1.4359894,17.8041687
		c0.2438354,1.9310303,0.2092438,3.8996887,0.2574005,5.8522644c0.0527649,2.1405029-0.3005829,2.6210632-2.4157562,3.2075806
		c-2.8646393,0.794342-5.8190155,1.0609741-8.761795,1.3639832c-7.7271729,0.7956848-15.4845428,0.8746948-23.2430573,1.0188599
		c-11.2753754,0.2095337-22.5467682,0.6609192-33.8225098,0.8162231
		c-12.438446,0.1713562-24.8563919-0.8457642-37.2967606-0.8506165c-8.3976974-0.0032349-16.7977066-0.0982056-25.178421-0.7355652
		c-4.1890564-0.3185425-8.3643112-0.7582092-12.4702377-1.697113c-0.1558876-0.035675-0.3135872-0.0641479-0.4683266-0.104126
		c-3.2452049-0.8378296-3.6082077-1.1939087-3.4111176-4.5150146c0.4636269-7.8121643,1.0338669-15.6180115,1.5500145-23.4270782
		c0.1054497-1.595459,0.2506523-3.1955872,0.2229881-4.790863c-0.0473404-2.7297363,0.1034393-5.4339447,0.5875511-8.1213531
		c0.2500763-1.3882141,0.2259979-2.7841339,0.0151443-4.1764221c-0.4365196-2.8824615-0.2956657-5.7467041,0.3321266-8.5827179
		c0.2205505-0.9962769,0.1968765-1.9702454,0.1224289-2.9738007c-0.3369904-4.542984-1.021347-9.0657196-0.838974-13.6401062
		c0.1720695-4.3159637,1.1946259-8.4609985,2.6406822-12.5021362c0.4013214-1.1215515,0.6408043-2.1886902,0.4723244-3.3767853
		c-0.1687775-1.1901703-0.1351967-2.394989,0.0903816-3.5845947c0.3084717-1.6267548,0.1929054-3.2503662,0.1125488-4.8949585
		c-0.1616058-3.3076172-0.1834526-6.6237335-0.1970177-9.9365997c-0.052845-12.9072418-0.042881-25.8148804-0.1347389-38.7217865
		c-0.0367775-5.1676178-1.0135727-10.2604523-1.5068283-15.3927841c-0.1257133-1.3080597-0.4853134-2.589325-0.4131927-3.8757019
		c-7.8684654,2.5462418-15.929512,2.0281906-23.9619179,1.4885941c-5.6706181-0.380928-11.2758665-1.3124695-16.7199078-3.0362549
		c-0.8791176-0.2783661-1.7338984-0.6045914-2.47031-1.1801987c0-1.0400009,0-2.0799942,0-3.1200027
		c0.7839233-1.5675049,0.8099706-3.3187027,1.1322011-4.9857101c1.8816141-9.7342224,2.8292222-19.6107941,4.3741846-29.3990555
		c0.8903303-5.6407928,1.325304-11.3509674,2.6825323-16.9219055c2.1208677-8.70541,5.5588036-16.7387733,11.6269484-23.4972649
		c2.3090782-2.5717659,5.1204948-4.5879822,7.5157013-7.0551529c0.576973-0.5943108,1.271637-1.010725,1.9922924-1.3597908
		c6.8783321-3.3316536,13.9418278-6.2391987,20.9893589-9.1878891c7.5772324-3.1703224,14.9921684-6.6858664,22.0402946-10.9327602
		c0.5205917-0.3136797,0.9388657-0.705184,1.332901-1.1698313c1.057663-1.2472076,2.2910309-2.2285705,4.0455093-2.2414079
		c-1.1952667,0.7149806-1.7738953,1.6796479-1.6796951,3.1586633c0.1656342,2.6004715,1.1424484,4.8796759,2.4790344,7.0355616
		c2.8858032,4.6547432,7.0452805,7.9896545,11.4976883,11.021534c8.4040756,5.7227726,17.621521,8.2862186,27.7946777,7.311491
		c2.921814-0.2799454,5.7238159-0.997406,8.5060272-1.8678017c2.7591858-0.863205,5.2772217-2.2729034,7.793808-3.6233177
		c3.9675446-2.1290226,7.4513397-4.9575424,10.659256-8.1302776c2.8668976-2.8354588,5.0182343-6.0763798,6.0192871-10.0144882
		c0.6301117-2.4788532,0.1496582-3.7491312-1.6930847-4.649085c1.8110504-0.1460323,2.9575653,0.9652777,4.0596466,2.1531324
		c0.2682648,0.2891378,0.4216614,0.6678896,0.7888641,0.8850985c3.9733429,2.350481,7.8821411,4.8019476,12.1104736,6.7087107
		c10.4221191,4.6998501,21.1058655,8.7906857,31.4871674,13.5836029c0.7298584,0.3369656,1.3702698,0.7726593,1.9723816,1.2949181
		c0.9357605,0.811657,1.8710632,1.6272087,2.8497467,2.3853722c2.9891663,2.3157005,5.6452942,4.9609528,7.9433899,7.9606667
		c5.453476,7.1183891,8.2686005,15.3348503,10.0013275,24.0093994c0.9792633,4.9025955,1.1637573,9.9325867,2.4346924,14.7875519
		c2.2414246,8.5621185,3.4134674,17.3215179,4.8167419,26.0400467c0.2710724,1.6842041,0.4395752,3.4221878,1.1466522,5.019989
		C228.9600067,114.0800095,228.9600067,115.1200027,228.9600067,116.1600037z"></path>
	<path d="M144.21698,9.0870171c-3.2720032,10.3374939-19.6696625,19.9784584-32.480835,19.2489719
		c-10.9315491-0.6224556-26.9761276-11.5331841-28.5077438-19.4994621
		c10.157402,0.8995571,20.2723083,2.1809816,30.4367905,2.1495667
		C123.8319626,10.9546719,133.9690247,9.9049759,144.21698,9.0870171z"></path>
</g>
<g onclick="select(this)" class="" id="estampa-terciaria" fill="#ffffff">
	<path d="M52.481636,284.2699585c0.041996-0.4598083,0.4188843-0.2624512,0.6305428-0.2778931
		c1.235405-0.0900574,2.473175-0.1554871,3.7111855-0.2008972c7.5917816-0.2787781,15.1839828-0.5463867,22.7757339-0.8261414
		c1.9567032-0.072113,3.9122849-0.1744995,5.8747635-0.408844c-14.4350204-0.7012329-28.8700523-1.4024963-43.2619095-2.1016541
		c-0.3454437-0.4183655-0.2441292-0.8055725-0.1757507-1.1821289c0.3297005-0.3642578,0.7543182-0.249176,1.1368904-0.2625732
		c5.7943649-0.2026367,11.5894165-0.3860779,17.383503-0.596283c6.1927414-0.2246704,12.3861389-0.4401855,18.5761719-0.7263184
		c2.5175476-0.116394,5.035614-0.1494751,7.5528412-0.2380981c0.5426712-0.0191345,1.0843887-0.0651245,1.6217728-0.2433777
		c-15.337326-0.733551-30.6746559-1.4671021-45.9359131-2.196991c-0.3324623-0.4044189-0.3684044-0.7346497-0.1325493-1.2060547
		c15.8208046-0.6006165,31.6978264-1.2033691,47.5748482-1.8061523c-0.0005951-0.057251-0.0011978-0.114502-0.0018005-0.1716919
		c-15.6830444-0.756958-31.3660965-1.513916-46.9776001-2.267395c-0.3093491-0.380249-0.1880646-0.67099-0.0516052-1.0567322
		c16.737011-0.6298218,33.4784317-1.2598267,50.2198486-1.8898315c0.0050964-0.0346985,0.0102081-0.0694275,0.0153046-0.1041565
		c-16.6578064-0.8032532-33.3156052-1.6065063-49.901783-2.4063416c-0.2304688-0.3216858-0.1871376-0.5388489-0.0502319-0.7534485
		c0.235157-0.2014465,0.5237885-0.1698608,0.8001328-0.1799316c4.7546539-0.1729126,9.5093956-0.3434753,14.2640762-0.515564
		c7.31213-0.2645874,14.6251869-0.5068359,21.9360085-0.8038025c4.1545486-0.1687317,8.307724-0.3648376,12.4651108-0.4542847
		c0.8619156-0.0185242,1.7282028-0.0241394,2.3831558-0.2673035c-17.0814056-0.820282-34.3345718-1.6488342-51.5923729-2.4775696
		c-0.0340614-0.9110413,0.5158157-0.7530212,0.9043198-0.7640991c1.7585526-0.0499268,3.5154114-0.1349182,5.2729301-0.20578
		c5.8330193-0.2351685,11.668808-0.4007263,17.502861-0.6116028c6.3926697-0.2310486,12.7848129-0.4770203,19.1767349-0.7280579
		c3.5134201-0.1379395,7.0259094-0.29953,10.5420837-0.5608215c-1.5911636-0.0905609-3.1816864-0.1948853-4.773613-0.2689972
		c-4.3530655-0.202652-8.7073669-0.3790894-13.0599899-0.5904541c-7.4662247-0.3625488-14.9312668-0.7495728-22.3973694-1.1147614
		c-3.9529266-0.1933594-7.9071198-0.3607635-11.8604774-0.545517c-0.3330536-0.0156097-0.7322807,0.0811615-0.8945847-0.3487244
		c0.1408539-0.4073181,0.4643745-0.295166,0.7202568-0.3043365c5.4744835-0.1959991,10.9494972-0.3774719,16.4237862-0.5786591
		c6.3126869-0.2320404,12.6248894-0.4772949,18.9370766-0.7225494c6.3511963-0.2467346,12.702095-0.5005951,19.0627365-0.913559
		c-18.3171997-0.8849335-36.6343994-1.7698364-55.0004387-2.6571503c0.1649857-0.5136566,0.486618-0.4006653,0.7338295-0.4096832
		c5.0343666-0.1833801,10.0695496-0.3452911,15.1034584-0.5401917c7.0704613-0.2736969,14.1396523-0.5800629,21.2101021-0.8541565
		c3.5960922-0.1394043,7.1937866-0.2371674,10.7906647-0.35672c2.5975189-0.086319,5.1949005-0.1766357,7.7922668-0.2676086
		c0.3537979-0.0123901,0.7195892,0.0249176,1.1755905-0.29422c-18.6770248-0.9042664-37.2165527-1.8018646-55.7560692-2.6994629
		c0.0010796-0.0891266,0.0021629-0.1782532,0.0032425-0.2673798c19.5217552-0.7388153,39.0435066-1.4776306,58.5652657-2.2164612
		c0.0004501-0.0474548,0.0009079-0.0949249,0.0013657-0.1423798c-19.2929306-0.9298706-38.5858612-1.859726-57.878788-2.7895966
		c-0.0015945-0.0518951-0.0031891-0.1037903-0.0047798-0.1556854c19.772789-0.7458038,39.545578-1.4915924,59.318367-2.237381
		c0.0036163-0.0709839,0.0072327-0.1419525,0.0108414-0.2129211c-18.1936798-0.878891-36.3873596-1.7577667-54.5810356-2.6366425
		c0.0006065-0.1213989,0.0012131-0.2427979,0.0018196-0.3641968c19.0065613-0.7196655,38.0131302-1.4393463,57.0196915-2.1590118
		c-0.0018997-0.0655975-0.0037918-0.1311798-0.0056915-0.1967621c-19.0756149-0.9177856-38.1512299-1.8355865-57.2268372-2.7533875
		c0.0006714-0.0518951,0.001339-0.1038055,0.0020065-0.1557159c19.9504395-0.7558899,39.9008636-1.5117798,59.8512955-2.2676849
		c0.000206-0.0537262,0.000412-0.1074371,0.000618-0.1611633c-19.1532822-0.9238739-38.3065567-1.8477478-57.4598351-2.7716217
		c-0.0015678-0.0566559-0.0031319-0.1133118-0.0046921-0.1699677c19.7140465-0.7432098,39.4280968-1.4864197,59.3897667-2.2389679
		c-0.9934235-0.2373352-1.7604218-0.3207245-2.5388107-0.3547058c-6.1512985-0.2685699-12.3031006-0.5270081-18.4532166-0.8208008
		c-9.4237747-0.4501495-18.846283-0.9266357-28.2693939-1.3906097c-2.1497002-0.1058655-4.2996635-0.2062988-6.552803-0.3141632
		c0.2434425-0.4435883,0.5871201-0.3407898,0.8572121-0.3506165c4.7547951-0.1725616,9.5102425-0.327301,14.2649422-0.5023499
		c6.4331131-0.2368317,12.865509-0.4931641,19.298584-0.7309418c7.0322266-0.2599487,14.0650635-0.5032806,21.0971298-0.7674103
		c0.9810486-0.0368652,1.959198-0.1510315,2.9318848-0.3056183c-19.4660339-0.9369354-38.9320602-1.8738708-58.3980904-2.8108063
		c0.0009995-0.0315857,0.0019989-0.0631714,0.0029984-0.0947723c20.450779-0.7750092,40.9015617-1.5500336,61.3523369-2.3250427
		c0.0017242-0.0312042,0.0034485-0.0624237,0.0051804-0.0936432c-18.9133911-0.9111176-37.8267822-1.8222198-56.7401657-2.7333527
		c-0.0017509-0.078476-0.0034981-0.1569672-0.005249-0.2354431c1.3720856-0.0715637,2.7435303-0.1601257,4.1163635-0.2115936
		c4.9146347-0.1842804,9.8299332-0.3505096,14.7445984-0.5337982c6.3526001-0.2368927,12.7056427-0.4644318,19.0570145-0.7312164
		c6.9883652-0.2935028,13.9766388-0.5820465,20.9359436-0.7541351c-0.6763077-0.287735-1.4334488-0.2965088-2.1893234-0.3296509
		c-6.430687-0.2818604-12.861496-0.5612793-19.2916641-0.8546448c-4.7922134-0.2186584-9.5838394-0.450592-14.3751831-0.6878052
		c-7.3869934-0.3656921-14.7708054-0.7993927-22.1644135-1.0236816c-0.2088623-0.0063324-0.4634094,0.0770264-0.6856804-0.2065277
		c0.5529442-0.0429688,1.0558777-0.1011353,1.5602226-0.1182861c5.6346207-0.1916199,11.2699661-0.3626862,16.9041061-0.5671997
		c8.6305313-0.3132629,17.2602005-0.6503906,25.8903732-0.9735565c4.3950882-0.1645966,8.7904968-0.3207855,13.1857529-0.480896
		c1.2341766-0.0449524,2.4738693-0.0214691,3.4577713-0.2812958c-19.2859955-0.9294586-38.8026581-1.8700409-58.3193245-2.8106079
		c0.0004921-0.0509338,0.0009804-0.1018524,0.0014648-0.152771c20.3090553-0.7689362,40.6181068-1.5378418,60.927166-2.3067627
		c0.0002975-0.0219116,0.0006027-0.0438385,0.0008926-0.0657501c-19.5823669-0.9447174-39.1647415-1.8894348-58.8512115-2.8392029
		c1.2981339-0.1430817,2.4917221-0.2841339,3.7014542-0.3238373c7.8727722-0.2582855,15.7450104-0.5328217,23.6168518-0.8179016
		c6.1131287-0.221405,12.2262344-0.4467926,18.3378067-0.7064209c4.4741211-0.1900787,8.9474487-0.3900299,13.4251404-0.4768066
		c0.5000381-0.0096893,0.9990997-0.0697479,1.4926453-0.3068542c-1.6905289-0.053421-3.382225-0.0830994-5.0714188-0.164566
		c-5.7893753-0.2792053-11.5774612-0.5850525-17.3668365-0.864212c-4.3130035-0.207962-8.6274338-0.3861694-12.9408875-0.5850677
		c-7.1084976-0.3277588-14.2165909-0.6641083-21.3252335-0.9885864c-0.675148-0.0308075-1.3222733-0.1917572-2.1198578-0.3293915
		c-0.0170746-0.0004578,0.1929474-0.187439,0.1433258-0.0355988c-0.0063705,0.0195007,0.0410767,0.0821838,0.0619659,0.0814056
		c19.6747284-0.7313995,39.3493195-1.466507,59.0239182-2.2015839c-0.0009003-0.0916443-0.0018082-0.1833038-0.0027008-0.2749481
		c-18.7148132-0.9042664-37.4296341-1.8085327-56.1444473-2.7128143c0.0004349-0.0553589,0.0008698-0.110733,0.001297-0.1660919
		c19.5678253-0.740448,39.1356506-1.480896,58.7034836-2.2213287c0.0021667-0.0815582,0.0043335-0.1631165,0.0065002-0.2446594
		c-18.9082642-0.9110718-37.8165283-1.8221283-56.7971344-2.7366791c0.9378128-0.1939697,1.8212433-0.2636719,2.7143784-0.2929993
		c5.834816-0.1914673,11.6695404-0.3863068,17.5037231-0.5964355c6.3530273-0.2287903,12.7055817-0.4713745,19.0580521-0.7151947
		c7.0710602-0.2713623,14.1418076-0.5509033,21.2349854-0.9521484c-0.3561554-0.0338593-0.7116089-0.0836487-1.068573-0.0991821
		c-4.9133911-0.213974-9.8280182-0.4013824-14.7402573-0.638855c-7.1071091-0.3435822-14.2119827-0.733139-21.3188171-1.0826111
		c-4.3128815-0.2121124-8.627655-0.38591-12.9416046-0.5762939c-2.0768661-0.0916595-4.1536026-0.1873322-6.2308655-0.2690277
		c-0.5206451-0.0204773-1.0097656-0.1511688-1.5154953-0.3039703c19.8070984-0.7476196,39.5924377-1.4944305,59.3777924-2.2412262
		c-0.0010223-0.0595245-0.0020294-0.1190491-0.0030212-0.1785889c-19.4017258-0.9349518-38.8034439-1.8698883-58.2051697-2.8048553
		c-0.0000153-0.0286713-0.0000381-0.0573578-0.0000534-0.0860443c20.1220932-0.7634277,40.2441864-1.5268402,60.3662796-2.2902679
		c0.0011292-0.0600586,0.0022583-0.1201172,0.0033722-0.180191c-18.9273987-0.9118805-37.8548126-1.8237457-56.9990997-2.7460632
		c0.5321274-0.3659821,0.9381332-0.2735291,1.3102188-0.2862549c6.1143723-0.2088776,12.2294388-0.3978577,18.3434372-0.6168518
		c6.1931152-0.221817,12.3851013-0.4749908,18.5778122-0.7082062c6.4326019-0.2422485,12.8655167-0.4758911,19.2980728-0.7194366
		c0.2533722-0.0095825,0.5440216,0.0843964,0.7599487-0.1617737c-0.0742798-0.2851257-0.3100891-0.2240448-0.4828644-0.2321625
		c-3.6338043-0.1711884-7.2683105-0.3273773-10.9019928-0.501358c-6.428894-0.3078156-12.8572922-0.6261444-19.2859573-0.9388428
		c-3.4340134-0.1670532-6.8677139-0.341217-10.3023376-0.4947357c-4.6333923-0.2070923-9.2675095-0.3978729-13.9013824-0.5940247
		c-0.3518677-0.0148773-0.7051163-0.0137482-1.1442795-0.3027496c19.9420929-0.7510834,39.7324448-1.4964447,59.5227966-2.2418213
		c-0.000824-0.0534821-0.0016479-0.1069641-0.0024872-0.1604462c-19.2311325-0.9274597-38.462265-1.8549042-57.6934128-2.7823792
		c-0.0003738-0.0513-0.0007553-0.1026306-0.0011368-0.1539459c19.5720444-0.7395325,39.1440964-1.4790497,58.7161407-2.2185822
		c0.0015717-0.0847168,0.0031586-0.1694489,0.0047455-0.2541656c-18.6872482-0.9041138-37.3744812-1.8082428-56.0203705-2.7103577
		c0.4692154-0.2122192,1.0115204-0.2774811,1.5686417-0.2961426c5.8348083-0.195343,11.6700363-0.3803253,17.503952-0.5999146
		c6.871582-0.2586212,13.7419205-0.5498352,20.6129227-0.8242493c2.3570404-0.0941467,4.7140045-0.1926117,7.0716858-0.2673645
		c4.1167755-0.1305695,8.2340698-0.2437439,12.3511047-0.3661957c0.2782745-0.0082703,0.5560303-0.0332642,1.0795288-0.0656738
		c-0.5787354-0.313446-1.0005188-0.2581024-1.3903503-0.2751312c-2.236557-0.097702-4.4740295-0.1550446-6.710907-0.2696991
		c-7.7056274-0.3950348-15.4148788-0.7186737-23.1221542-1.0819397c-6.4291458-0.303009-12.8598022-0.5834198-19.2849655-0.9566956
		c-2.4333038-0.1413727-4.8791809-0.0547485-7.3010559-0.3930511c-0.1901245-0.0265503-0.3982315,0.0098114-0.5502625-0.1425934
		c19.8072433-0.7486572,39.6177368-1.4974365,59.4282227-2.2462311c-0.0006104-0.0649261-0.0012207-0.1298523-0.0018158-0.1947937
		c-19.2785187-0.9316559-38.5570374-1.8633118-57.835556-2.7949829c0.001091-0.0291901,0.002182-0.0583801,0.003273-0.0875854
		c7.8571014-0.3109436,15.7141876-0.6223755,23.5713196-0.9325104c2.2772369-0.0899048,4.5554047-0.1434784,6.8328934-0.2407684
		c5.8326111-0.2491913,11.6692657-0.4024811,17.5036469-0.612442c4.3553314-0.1567383,8.7096252-0.3422241,13.0644379-0.5136185
		c0.1798859-0.0070877,0.3602753-0.0008926,0.5477142-0.1147919c-19.7447815-0.9474564-39.4895554-1.8949203-59.1937943-2.8404312
		c2.9667816-0.5022125,6.0118561-0.2982941,9.0373154-0.4591522c5.4693604-0.2908096,10.9478683-0.4086227,16.422287-0.6062775
		c6.7928314-0.2452316,13.586441-0.4729919,20.3776855-0.7568665c4.3544159-0.1820068,8.70755-0.3836975,13.0653839-0.4669724
		c0.8026428-0.0153427,1.6181641,0.0056534,2.1936035-0.2501831c-19.3871002-0.9308853-38.9306107-1.8692627-58.4741135-2.8076477
		c0.0017166-0.0463486,0.0034409-0.0926971,0.0051498-0.1390533c2.1544495-0.0946274,4.3083572-0.2043533,6.4634399-0.280983
		c5.8343811-0.2074738,11.6696091-0.3913345,17.5038452-0.6024551c6.2329788-0.2255478,12.4653473-0.4680481,18.6977234-0.7097473
		c5.2733459-0.2044907,10.5463409-0.4174728,15.8193512-0.6298447c0.4352722-0.0175323,0.8695831-0.0590668,1.3043213-0.2201614
		c-19.3729095-0.9372177-38.7458115-1.8744354-58.118721-2.8116608c0.0000534-0.0302505,0.0000992-0.0605011,0.000145-0.0907593
		c20.5246277-0.7737274,41.0492554-1.5474625,61.5738678-2.3211975c0.0028229-0.0281143,0.005661-0.0562286,0.0084839-0.0843353
		c-18.9987946-0.9144363-37.9975815-1.8288727-56.9963684-2.743309c0.8165054-0.4238663,1.6899185-0.3579559,2.5376434-0.39077
		c7.1117325-0.2752762,14.2245865-0.5218506,21.3368759-0.7831268c6.5126419-0.2392502,13.0250931-0.4839935,19.5374832-0.730278
		c3.7954865-0.1435318,7.5906982-0.2949753,11.3860321-0.4423828c0.2298737-0.0089188,0.4654083,0.0073929,0.672348-0.1527634
		c-0.0844269-0.4227524-0.4202423-0.307663-0.6548767-0.3205643c-2.7140808-0.1492386-5.4283752-0.2963257-8.1436157-0.4222107
		c-6.1904297-0.286972-12.3818207-0.5533218-18.5720825-0.8438721c-6.5888443-0.3092575-13.1767502-0.6383286-19.7652283-0.955307
		c-2.1166229-0.1018372-4.233139-0.213913-6.3510284-0.2770004c-0.7194748-0.0214386-1.404808-0.2392731-2.1183777-0.2474747
		c20.2025146-0.764389,40.4050293-1.5287781,60.6075134-2.2931671c0.0007172-0.0539398,0.0014343-0.1078796,0.0021362-0.1618195
		c-19.463623-0.9382553-38.9272537-1.876503-58.3908844-2.8147659c-0.0008621-0.0282974-0.0017242-0.0565872-0.0025787-0.0848923
		c20.1156769-0.7621841,40.2313538-1.5243759,60.3470306-2.2865677c0.0016022-0.0422821,0.0031891-0.084549,0.0048065-0.1268311
		c-0.8307037-0.0711594-1.6601105-0.1697464-2.4923248-0.2088547c-4.2329407-0.1989136-8.4669037-0.3760681-12.6999512-0.5727921
		c-7.1484985-0.3322144-14.2967529-0.6697617-21.4447556-1.0121155c-4.5918579-0.2199402-9.1830063-0.4544067-13.7746735-0.6784363
		c-1.7568283-0.085701-3.5144119-0.1559525-5.2711411-0.2435608c-0.4267426-0.0212936-0.877861,0.0344086-1.33255-0.3106079
		c4.1288071-0.1371307,8.1709747-0.2551041,12.2117615-0.4092484c6.8713226-0.2620926,13.7417603-0.5468292,20.6125793-0.8223343
		c2.3571777-0.0945053,4.715332-0.1536942,7.0727081-0.2536392c5.8325043-0.2472763,11.6686096-0.4095154,17.5032043-0.6077881
		c0.3016205-0.0102463,0.6254272,0.0463867,0.8955994-0.1915359c-0.1150513-0.2947922-0.3406067-0.2110519-0.5012817-0.2184601
		c-5.8305511-0.268692-11.6617432-0.5233612-17.4922028-0.7938766c-6.828949-0.3168411-13.6572876-0.6465836-20.4859085-0.9707108
		c-5.11129-0.2426071-10.2227936-0.4810638-15.3336639-0.7322845c-0.7535095-0.0370483-1.5040512-0.1345139-2.2529068-0.3197021
		c20.2356567-0.7679977,40.4713135-1.5359955,60.7069702-2.3039856c-0.0006104-0.0203323-0.001236-0.0406494-0.0018616-0.0609741
		c-19.6047363-0.9453125-39.2094727-1.890625-58.814209-2.8359299c-0.0009613-0.0502396-0.0019379-0.1004791-0.0029068-0.1507111
		c19.7911911-0.7464142,39.5823746-1.492836,59.373558-2.2392502c0.0028076-0.0696411,0.0056305-0.1392899,0.0084381-0.208931
		c-18.5636597-0.8967056-37.1273193-1.793396-55.8568344-2.6981125c0.3935394-0.4375381,0.7731247-0.3172836,1.0871964-0.3288956
		c4.9944839-0.1845627,9.989624-0.3515396,14.984314-0.5308533c6.9927368-0.2510452,13.9862213-0.4856644,20.9775848-0.7707977
		c6.4317932-0.2623367,12.8620453-0.5588608,19.2976685-0.7190857c0.709549-0.0176544,1.4169922-0.1203766,2.1287537-0.3225327
		c-0.1994171-0.0207901-0.3984375-0.0542984-0.5983124-0.060524c-6.7135315-0.2094345-13.4187775-0.5924301-20.125824-0.9411469
		c-4.2722321-0.2221298-8.5475006-0.3852463-12.8209839-0.5836792c-7.3881989-0.3430557-14.7762527-0.6891098-22.1637878-1.0457001
		c-0.7900925-0.0381317-1.5764008-0.1546097-2.4456711-0.2429962c20.1567001-0.763504,40.2213821-1.5235367,60.2860794-2.2835541
		c0.0009613-0.0602875,0.0019379-0.1205826,0.0029144-0.1808701c-19.0365601-0.9189377-38.0731049-1.8378754-57.1096649-2.756813
		c-0.0015335-0.0578308-0.0030823-0.1156769-0.0046234-0.1735077c20.1849365-0.7615051,40.3698883-1.5230141,60.3009796-2.2749481
		c-0.7187347-0.1424103-1.7086029-0.2540359-2.714035-0.2978172c-8.1484528-0.3547935-16.2967682-0.713665-24.4441376-1.0922623
		c-6.3492889-0.2950401-12.6970215-0.6233292-19.0457611-0.9305267c-3.3941498-0.1642456-6.7889862-0.3149223-10.1834564-0.4726563
		c-0.1919327-0.0089149-0.39505,0.0247612-0.5719681-0.1417198c0.1042175-0.3868332,0.4383011-0.2429543,0.6722794-0.2513771
		c5.0746613-0.1826439,10.1501007-0.3437119,15.2245636-0.5313034c8.4706879-0.3131332,16.9405975-0.6471519,25.4112091-0.9621391
		c4.9545135-0.1842461,9.9099884-0.343399,14.8644867-0.5282631c0.661911-0.0247002,1.3206482-0.1343727,1.9656525-0.3134651
		c-19.1494293-0.9238129-38.2988739-1.8476295-57.4483109-2.7714462c0.0014191-0.0440483,0.0028458-0.0880966,0.0042648-0.1321449
		c20.400238-0.7729225,40.8004913-1.5458488,61.2007446-2.3187714c-0.0000458-0.0193901-0.0000916-0.0387802-0.0001221-0.0581741
		c-19.5255585-0.9437523-39.0511169-1.8875084-58.5766754-2.8312645c-0.0016251-0.0561714-0.0032349-0.1123428-0.0048599-0.1685143
		c20.2065201-0.7612953,40.4130325-1.5225945,60.5684891-2.2819633c-0.2492981-0.2696075-0.6623688-0.2031517-1.0458832-0.2196388
		c-5.0330811-0.2163734-10.0669861-0.4146957-15.0994873-0.6436768c-7.0290375-0.3198357-14.0579987-0.6434097-21.0852814-0.999321
		c-6.5876617-0.3336487-13.1733246-0.7051964-19.765892-0.9357567c-0.6666336-0.0233154-1.3520355,0.0238266-2.047966-0.2875862
		c-0.0922699,0.0009613,0.1193542-0.2412949,0.0725555-0.0886002c-0.0083618,0.0273018,0.0340424,0.1014366,0.051239,0.1008606
		c4.1155853-0.1377029,8.2315674-0.2661705,12.346344-0.4255791c6.7911682-0.2630997,13.5816803-0.5436516,20.3722534-0.8224792
		c2.2371368-0.0918579,4.4754639-0.1416626,6.7129364-0.2365608c5.9924774-0.2541618,11.9888611-0.4166451,17.9832458-0.6280975
		c0.7485046-0.0264053,1.494339-0.1283951,2.2306976-0.3417854c-18.9036255-0.9122391-37.8072662-1.8244743-56.7108917-2.7367096
		c0.0004272-0.0500641,0.000885-0.100132,0.0013275-0.1501999c1.717926-0.0799103,3.4353485-0.1736259,5.1538849-0.237175
		c5.3143158-0.1965103,10.6293488-0.3730087,15.9435272-0.5730095c7.9506989-0.2992363,15.9008942-0.6113663,23.8512726-0.9192238
		c1.5579224-0.0603256,3.116333-0.11306,4.6730652-0.1963768c0.5671387-0.0303497,1.1204834,0.0068665,1.6607819,0.1593781
		c4.262207,1.2031097,8.5843658,2.1931229,12.7918549,3.5903893c0.2462006,0.0817604,0.4845276,0.1872292,0.726532,0.2816582
		c-0.0366058,0.1137123-0.0646667,0.2310219-0.1109924,0.3406181c-5.8256683,13.7825737-11.657135,27.562706-17.4785919,41.3470688
		c-8.5228424,20.1808395-17.0376892,40.3650513-25.5575256,60.5471497
		c-7.0145416,16.6162415-14.0302429,33.2320099-21.0475006,49.8471069
		c-5.790741,13.7110596-11.5857391,27.4203186-17.3765717,41.1313171
		c-5.2630844,12.461441-10.5257492,24.9230347-15.783165,37.3868713c-2.0311356,4.8152771-4.0472794,9.6368408-6.0702515,14.4555359
		c-3.0741043,0.0612793-6.1454239-0.0873718-9.2181168-0.1193848c-5.9479523-0.0618896-11.896759-0.1057434-17.8392563-0.3711243
		C59.6277771,284.9676514,56.0395737,284.7918701,52.481636,284.2699585z"></path>
</g>
<g onclick="select(this)" class="" id="estampa-secundaria" fill="#082890">
	<path d="M90.2698746,285.6182251c2.0229721-4.8186951,4.0391159-9.6402588,6.0702515-14.4555359
		c5.2574158-12.4638367,10.5200806-24.9254303,15.783165-37.3868713
		c5.7908325-13.7109985,11.5858307-27.4202576,17.3765717-41.1313171
		c7.0172577-16.615097,14.032959-33.2308655,21.0475006-49.8471069
		c8.5198364-20.1820984,17.0346832-40.3663101,25.5575256-60.5471497
		c5.8214569-13.7843628,11.6529236-27.5644951,17.4785919-41.3470688c0.0463257-0.1095963,0.0743866-0.2269058,0.1109924-0.3406219
		c1.1014709,0.3202057,2.2344971,0.5596771,3.2528534,1.2607422c-0.4025421,1.5881081-1.1578064,3.037056-1.7858582,4.5280571
		c-5.947403,14.1191711-11.9208527,28.2273674-17.8805084,42.3413658
		c-5.7111206,13.5253143-11.4120789,27.0549011-17.1224976,40.5805054
		c-5.6795349,13.4524841-11.3677368,26.9013062-17.0476837,40.3536072
		c-6.2385406,14.7752686-12.4695587,29.5536804-18.7083893,44.3288116
		c-5.7268753,13.5626831-11.4632187,27.1213531-17.1888123,40.6845551
		c-4.3599319,10.3280945-8.7096024,20.660553-13.0638504,30.9910583
		C92.8560944,285.7318726,91.5629883,285.6759338,90.2698746,285.6182251z"></path>
</g>
</svg>
