<!--?xml version="1.0" encoding="utf-8"?-->
<!-- Generator: Adobe Illustrator 24.2.3, SVG Export Plug-In . SVG Version: 6.00 Build 0)  -->
<svg version="1.1" id="Camada_1" xmlns="http://www.w3.org/2000/svg" xmlns:xlink="http://www.w3.org/1999/xlink" x="0px" y="0px" viewBox="0 0 229 418" enable-background="new 0 0 229 418" xml:space="preserve">
<g onclick="select(this)" class="" id="estampa-secundaria" fill="#f6d101">
	<path d="M182.4,174.71c-45.16,0-90.32,0-135.48,0.04c-0.95,0-1.2-0.47-1.48-1.12c0.3-4.12-0.35-8.21-0.3-12.32
		c0.07-5.47,0.07-10.93,0.18-16.4c0.13-6.57-0.77-13.06-1.53-19.56c-0.13-1.11-0.34-2.22-0.34-3.33c0-1.14-0.36-1.49-1.42-1.05
		c0.05-1.16,0.77-1.21,1.73-1.21c46.9,0.02,93.79,0.01,140.69,0.04c0.36,0,1.79-0.68,1.03,0.87c-0.29-0.09-0.58-0.18-0.94-0.28
		c-0.4,3.84-0.79,7.64-1.18,11.45c-0.45,4.41-0.54,8.84-0.79,13.25c-0.18,3.16-0.12,6.23,0.48,9.34c0.44,2.29-0.08,4.62-0.26,6.92
		c-0.13,1.6-0.23,3.2-0.11,4.78C182.9,169,182.55,171.84,182.4,174.71z"></path>
</g>
<g onclick="select(this)" class="" id="gola-primaria" fill="#021c3b">
	<path d="M77.98,7.97c0.9-0.14,1.45-0.81,2.06-1.37c0.74-0.67,1.53-1.33,2.1-2.14c2.12-3.04,5.35-3.88,8.63-3.9
		c15.2-0.14,30.4-0.08,45.6-0.03c1.87,0.01,3.72,0.48,5.51,1.07c0.89,0.29,1.61,0.84,2.23,1.56c1.59,1.84,3.09,3.78,5.23,5.06
		c1.97,0.89,2.23,2.05,1.7,4.52c-0.89,4.1-3.19,7.49-6.13,10.37c-4.37,4.28-9.32,7.78-14.96,10.18c-3.79,1.61-7.7,2.84-11.88,3.24
		c-11.29,1.07-21.19-2.28-30.15-8.98c-4.08-3.05-7.71-6.47-10.08-11.05c-0.84-1.63-1.41-3.36-1.55-5.24
		C76.18,9.74,76.75,8.72,77.98,7.97z M144.29,9.09c-2.6,0.19-5.05,0.39-7.5,0.56c-9.28,0.62-18.54,1.63-27.86,1.18
		c-4.47-0.22-8.93-0.51-13.38-0.9c-3.82-0.34-7.63-0.68-11.45-1.05c-0.92-0.09-1.03,0.2-0.68,0.98c0.49,1.1,0.99,2.19,1.73,3.14
		c4,5.11,8.83,9.26,14.71,12.03c5.31,2.5,10.91,3.94,16.83,3.23c9.3-1.11,16.88-5.56,23.19-12.33
		C141.71,13.97,143.28,11.81,144.29,9.09z"></path>
</g>
<g onclick="select(this)" class="" id="estampa-primaria" fill="#021c3b">
	<path d="M228.96,116.16c-6.93,2.81-14.15,4.38-21.55,5.25c-6.58,0.77-13.15,0.71-19.72-0.21
		c-0.75-0.1-1.47-0.36-2.2-0.54c0.76-1.55-0.67-0.87-1.03-0.87c-46.9-0.03-93.79-0.02-140.69-0.04c-0.96,0-1.68,0.05-1.73,1.21
		c-2.47,0.89-5.07,1.18-7.65,1.31c-10.19,0.52-20.29-0.11-30.19-2.81c-1.38-0.38-2.79-0.73-3.95-1.63c0-1.04,0-2.08,0-3.12
		c0.62-1.33,0.67-2.78,0.95-4.18c0.64-3.25,1.23-6.51,1.68-9.8C4.31,90.33,5.66,79.9,7.23,69.51c1.15-7.64,3.4-14.94,7.16-21.76
		c3.4-6.16,8.48-10.76,13.68-15.28c0.44-0.38,0.94-0.71,1.46-0.96c6.4-3.05,12.91-5.85,19.46-8.54c8.12-3.34,16.07-7.06,23.61-11.59
		c0.52-0.31,0.94-0.71,1.33-1.17c1.06-1.25,2.3-2.22,4.05-2.24c-1.23,0.75-1.8,1.77-1.69,3.29c0.14,1.88,0.71,3.61,1.55,5.24
		c2.36,4.58,6,8,10.08,11.05c8.96,6.7,18.86,10.05,30.15,8.98c4.18-0.4,8.09-1.62,11.88-3.24c5.63-2.4,10.59-5.9,14.96-10.18
		c2.95-2.89,5.25-6.27,6.13-10.37c0.53-2.47,0.27-3.63-1.7-4.52c1.76-0.15,2.89,0.91,3.99,2.05c0.3,0.31,0.46,0.74,0.86,0.98
		c4.17,2.49,8.31,5.01,12.77,7.01c10.25,4.6,20.76,8.61,30.95,13.35c0.7,0.32,1.29,0.75,1.87,1.24c0.97,0.83,1.94,1.67,2.94,2.46
		c2.85,2.23,5.4,4.75,7.62,7.6c5.6,7.17,8.46,15.5,10.22,24.29c0.97,4.86,1.18,9.84,2.4,14.67c1.45,5.74,2.62,11.53,3.47,17.39
		c0.53,3.63,1.03,7.26,1.74,10.85c0.16,0.79-0.16,1.88,0.78,2.46C228.96,113.76,228.96,114.96,228.96,116.16z"></path>
	<path d="M182.4,174.71c-0.13,4.31,0.52,8.62,0.04,12.94c-0.3,2.69,0.33,5.32,0.91,7.94
		c1.63,7.32,1.43,14.69,0.35,22.06c-0.31,2.15-0.34,4.22,0.36,6.36c1.75,5.39,1.79,10.93,0.93,16.49c-0.24,1.52-0.25,3.01,0.1,4.51
		c0.91,3.9,0.42,7.89,0.64,11.83c0.33,5.78,0.69,11.57,1.42,17.32c0.27,2.09,0.23,4.22,0.26,6.33c0.02,1.63-0.35,2.12-1.9,2.63
		c-2.33,0.76-4.77,1-7.19,1.29c-8.59,1.02-17.23,1.1-25.87,1.26c-11.63,0.22-23.26,0.74-34.9,0.82
		c-11.91,0.08-23.81-0.83-35.73-0.86c-8.4-0.02-16.79-0.11-25.17-0.74c-4.15-0.31-8.28-0.75-12.35-1.68
		c-0.27-0.06-0.54-0.13-0.81-0.2c-3.02-0.83-3.29-1.15-3.16-4.24c0.33-7.86,1.03-15.7,1.58-23.54c0.14-2,0.27-3.99,0.23-5.99
		c-0.04-1.84,0.03-3.68,0.36-5.5c0.42-2.26,0.44-4.51,0.12-6.79c-0.35-2.48-0.1-4.95,0.43-7.39c0.24-1.08,0.2-2.13,0.12-3.21
		c-0.33-4.46-1-8.91-0.83-13.4c0.17-4.4,1.2-8.62,2.7-12.73c0.36-1,0.59-1.96,0.44-3.03c-0.19-1.27-0.17-2.55,0.08-3.82
		c0.31-1.63,0.19-3.25,0.11-4.89c-0.16-3.35-0.15-6.7-0.2-10.06c-0.03-1.6-0.27-3.19,0-4.78c0.28,0.65,0.52,1.12,1.48,1.12
		C92.08,174.71,137.24,174.71,182.4,174.71z"></path>
	<path d="M144.29,9.09c-1.01,2.72-2.58,4.88-4.41,6.83c-6.3,6.77-13.89,11.22-23.19,12.33
		c-5.93,0.71-11.52-0.74-16.83-3.23c-5.89-2.77-10.71-6.92-14.71-12.03c-0.74-0.95-1.23-2.05-1.73-3.14
		c-0.35-0.77-0.24-1.07,0.68-0.98c3.81,0.37,7.63,0.71,11.45,1.05c4.45,0.39,8.92,0.69,13.38,0.9c9.32,0.45,18.58-0.56,27.86-1.18
		C139.25,9.49,141.7,9.29,144.29,9.09z"></path>
</g>
</svg>
