<!--?xml version="1.0" encoding="utf-8"?-->
<!-- Generator: Adobe Illustrator 24.2.3, SVG Export Plug-In . SVG Version: 6.00 Build 0)  -->
<svg version="1.1" id="Camada_1" xmlns="http://www.w3.org/2000/svg" xmlns:xlink="http://www.w3.org/1999/xlink" x="0px" y="0px" viewBox="0 0 229 418" enable-background="new 0 0 229 418" xml:space="preserve">
<g onclick="select(this)" class="" id="gola-secundaria" fill="#005425">
	<path d="M116.2800293,49.0477715c-0.8324432,0.1792336-1.5524063,0.84478-2.4890213,0.5762062
		c-0.2427444-0.8100166,0.0134964-1.5773354,0.2097244-2.3466263c0.924469-3.6241455,2.5600052-6.9285049,4.5410919-10.0765305
		c4.0673141-4.2816811,8.1003723-8.5966415,12.2132568-12.8340511c3.0505066-3.1428795,5.666275-6.5991573,7.8605957-10.3761816
		c0.813446-1.400176,1.7702789-2.7472067,2.0808868-4.392005c0.752594-1.2694387,1.0089874-2.6635509,1.0374451-4.116147
		c0.0197906-1.0104756-0.4710388-1.6589177-1.4043732-1.9923222c-1.059906-0.3786092-2.1573334-0.5912797-3.2792206-0.5918701
		c-15.6530609-0.0082369-31.3061142-0.00945-46.9591675-0.0003197c-1.2011414,0.0007005-2.3800201,0.2080977-3.5043182,0.6614058
		c-0.7322311,0.2952342-1.1943359,0.8186088-1.2196579,1.6196523c-0.0457306,1.4464493,0.1007385,2.8654075,0.8082733,4.1703057
		c0.0212784,0.5789633,0.3004456,1.072094,0.5614777,1.5584917c2.3854523,4.4450531,5.0797653,8.6672306,8.5605774,12.3653183
		c4.3764877,4.649662,8.9232254,9.1387672,13.1445236,13.9347076c2.2237625,3.3094826,3.8946991,6.8636131,4.8037567,10.7629471
		c0.1307526,0.5608444,0.1701813,1.0992203,0.0435562,1.6546745c-0.7908325,0.120369-1.496933-0.1469421-2.1891327-0.4788094
		c-0.0642166-0.1402206-0.1509247-0.2473221-0.327034-0.2237511c0,0,0.0194855,0.0175781,0.0194855,0.0175819
		c-1.013855-4.6100388-2.9409485-8.7701302-6.1777725-12.2461243c-2.694191-2.8932686-5.4272232-5.7515678-8.1912689-8.5781612
		c-3.8358994-3.9226933-7.4191589-8.0305157-10.1981125-12.8014355c-1.9512863-3.3499756-3.5346451-6.7904654-3.5179596-10.7698879
		c0.3883133-1.9640367,2.3113785-3.5002863,4.8101273-3.8288841c1.3067322-0.1718405,2.6167526-0.2685975,3.9387436-0.2676463
		c14.7403488,0.0106049,29.4807205,0.009529,44.2210846,0.0041321c1.6823578-0.000616,3.3574524,0.0772974,4.9857483,0.5180936
		c1.4764557,0.3996994,2.696991,1.1730776,3.3416138,2.6483264c0.7667542,2.8465245-0.0760193,5.4809065-1.236084,7.9960232
		c-1.931076,4.1867867-4.3952484,8.0750628-7.496933,11.4869471c-4.1056061,4.5162182-8.3732147,8.8846245-12.5426407,13.343298
		C119.3824692,40.0241508,117.2426682,44.2388077,116.2800293,49.0477715z"></path>
</g>
<g onclick="select(this)" class="" id="detalhe-punho" fill="#005425">
	<path d="M43.2901154,120.5660324c-1.4340477,0.9719238-3.1003952,1.2496643-4.7511444,1.4678955
		c-6.7179394,0.8881226-13.4583912,0.7420044-20.186039,0.1770859c-5.0872173-0.4271774-10.1115341-1.2906342-15.0213842-2.7495346
		c-1.0643811-0.3162613-2.0522819-0.7957306-3.0718036-1.2092819c0-1.1193542,0-2.2387161,0-3.3580704
		c0.548113-1.013916,0.4491681-2.1613922,0.665308-3.2437286c0.1128626-0.5651779,0.0607683-1.1747894,0.4771655-1.6509933
		c0.5217633,0.3816452,1.0963807,0.671875,1.7180874,0.8264084c1.7024279,0.4231491,3.399075,0.891655,5.1234226,1.1999283
		c3.7184801,0.664772,7.3372869,1.8807755,11.1586962,1.9861069c1.872385,0.0515976,3.7445946,0.1686249,5.6124401,0.3134079
		c3.6950874,0.2864227,7.3937588,0.1185684,11.0909176,0.1539078c1.9159851,0.0183105,3.70364-0.4855881,5.4575577-1.1675568
		c0.3861046-0.150116,0.6603012-0.2605591,0.7761383,0.2810745
		C42.8315811,115.8936157,43.3185463,118.1943893,43.2901154,120.5660324z"></path>
	<path d="M184.4564362,120.3339005c-0.2428284-2.2250748,0.3521118-4.353035,0.7277069-6.5097427
		c0.1013336-0.5819092,0.3057098-0.7070084,0.8605804-0.5922089c5.64151,1.1671219,11.3798523,0.9484482,17.0478058,0.6848984
		c8.0757599-0.3754883,15.9043274-2.3513718,23.5448456-5.0004501c0.3322144-0.1151886,0.631012-0.326828,0.9454041-0.4935226
		c0.845871,1.1987991,0.5559387,2.6714172,0.9416046,3.9882355c0.2300262,0.7852859,0.0895996,1.6713562,0.2311707,2.4921875
		c0.2248383,1.3037567-0.4498749,1.8661346-1.5565033,2.235817c-5.7477264,1.920105-11.59935,3.3484344-17.6024628,4.2630386
		c-5.4487762,0.8301392-10.9049683,0.6914749-16.3678741,0.6551666c-2.4711304-0.0164185-4.9299622-0.3196335-7.336853-0.9341354
		C185.3467102,120.9840164,184.8257904,120.7955322,184.4564362,120.3339005z"></path>
</g>
<g onclick="select(this)" class="" id="gola-terciaria" fill="#000000">
	<path d="M118.5418243,37.2008171c-1.9810867,3.1480293-3.6166229,6.4523888-4.5410919,10.0765343
		c-0.196228,0.7692909-0.4524689,1.5366096-0.2097244,2.3466301c-0.1664352,0.0004921-0.3334503,0.0010872-0.5010223,0.001564
		c0.1260757-0.5555725,0.086647-1.0939484-0.0441055-1.6547928c-0.9090576-3.899334-2.5799942-7.4534645-4.8038864-10.762928
		C111.8085098,37.2055054,115.1751709,37.2031631,118.5418243,37.2008171z"></path>
</g>
<path d="M110.7732697,48.9228668c0.1761093-0.023571,0.2628174,0.0835304,0.327034,0.2237511
	C110.9458008,49.1388245,110.7673416,49.1658516,110.7732697,48.9228668z"></path>
<g onclick="select(this)" class="" id="estampa-primaria" fill="#ffffff">
	<path d="M43.2901154,120.5660324c0.0284309-2.3716431-0.4585342-4.6724167-0.9506378-6.9733505
		c-0.1158371-0.5416336-0.3900337-0.4311905-0.7761383-0.2810745c-1.7539177,0.6819687-3.5415726,1.1858673-5.4575577,1.1675568
		c-3.6971588-0.0353394-7.3958302,0.132515-11.0909176-0.1539078c-1.8678455-0.144783-3.7400551-0.2618103-5.6124401-0.3134079
		c-3.8214092-0.1053314-7.4402161-1.3213348-11.1586962-1.9861069c-1.7243476-0.3082733-3.4209948-0.7767792-5.1234226-1.1999283
		c-0.6217067-0.1545334-1.1963241-0.4447632-1.7180874-0.8264084c1.791326-9.4621811,2.6750057-19.0589294,4.2393627-28.5559235
		c0.8433037-5.1195831,1.1571431-10.316803,2.252656-15.4061127c1.7662401-8.2052269,4.5186424-15.9794197,9.6038675-22.7770844
		c2.0435143-2.7316628,4.3359451-5.2400703,7.0132065-7.3503723c1.4258251-1.1238823,2.4747925-2.6746483,4.1071014-3.5436478
		c3.5987473-1.9158821,7.2508583-3.7254448,11.0191536-5.2833977c9.9345665-4.1073151,19.9001694-8.1443005,29.3149948-13.389143
		c2.0081711-1.1187201,4.0461578-2.1453896,5.6167755-3.9533415c0.8864365-1.0203934,2.120224-1.8366351,3.6892471-1.420516
		c-2.0087509,1.1796293-2.4371796,2.2058859-2.0178757,4.4530277c0.4271088,2.2889175,1.4922333,4.2651157,2.7694016,6.1657696
		c5.5444565,8.2511177,11.8955994,15.8050117,19.1692352,22.5971069c3.0757294,2.8721046,6.4560089,5.1818428,10.3676224,6.7113991
		c0.7288589,0.2850113,1.4038544,0.7671661,2.2457886,0.6932755l-0.0194855-0.0175781
		c-0.005928,0.2429848,0.1725311,0.2159576,0.3272552,0.2236862c0.6919785,0.3319321,1.3980789,0.5992432,2.1894608,0.4789925
		c0.167572-0.0004768,0.3345871-0.0010719,0.5016022-0.001667c0.9360352,0.2686729,1.6559982-0.3968735,2.4884415-0.5761032
		c0.8974228-0.3311958,1.7941666-0.6642799,2.6923904-0.9932861c5.2531509-1.9241714,9.1580582-5.6882515,13.1023788-9.4524002
		c5.9876556-5.7141266,11.0112457-12.2141418,15.7446289-18.9537182c1.4855804-2.1152287,2.7690277-4.3775415,3.2950592-6.9872856
		c0.3720703-1.8459053-0.0812225-3.154623-1.6348419-4.2228584c1.687973-0.0080633,2.7848663,1.0322113,3.7964478,2.1853065
		c0.3406372,0.3882923,0.6667023,0.7393408,1.1152344,1.0329771c10.0041504,6.5494299,21.1908569,10.5967283,32.121109,15.1745653
		c3.9604645,1.6587353,7.8730774,3.4354343,11.7050323,5.339098c2.1549988,1.0705643,3.9057159,2.97855,5.7908325,4.5660057
		c7.7359772,6.5144768,12.2689819,14.9835587,14.9213867,24.5909348c1.0966644,3.9723167,1.9427185,8.0021629,2.3482971,12.0990181
		c0.5499115,5.5546722,2.1276703,10.8914642,3.2400513,16.3265228c1.2655334,6.1834106,2.0992126,12.4376297,3.064743,18.6702194
		c-0.3143921,0.1666946-0.6131897,0.378334-0.9454041,0.4935226c-7.6405182,2.6490784-15.4690857,4.6249619-23.5448456,5.0004501
		c-5.6679535,0.2635498-11.4062958,0.4822235-17.0478058-0.6848984c-0.5548706-0.1147995-0.7592468,0.0102997-0.8605804,0.5922089
		c-0.3755951,2.1567078-0.9705353,4.284668-0.7277069,6.5097427c-0.4390717,0.8079529-0.2934418,1.7098999-0.3948517,2.5685043
		c-0.9894409,8.3778839-1.717804,16.7745209-1.7437134,25.2196808c-0.0067444,2.2003479,0.0677948,4.3850098,0.5235138,6.5554199
		c0.4008026,1.9087219-0.0423737,3.824707-0.2051697,5.7289886c-0.1809082,2.1159973-0.246994,4.2288055-0.1483307,6.3471375
		c0.1007233,2.1621704-0.1490021,4.3112488-0.2011566,6.4654999c-0.068573,2.8334503-0.1218414,5.6729736,0.1279144,8.5079346
		c0.1473694,1.6729126,0.088974,3.3505859-0.0994568,5.0267944c-0.3486938,3.1017303,0.1974335,6.1180725,0.8814545,9.132782
		c1.642807,7.2402039,1.3752594,14.5228577,0.3378906,21.8097839c-0.30513,2.1432648-0.3707428,4.2084198,0.3304291,6.3557587
		c1.771759,5.4257813,1.8099976,11.0058594,0.936615,16.6037598c-0.2311401,1.4815369-0.2438354,2.924942,0.0943604,4.391922
		c0.8720093,3.7824249,0.4462128,7.6405487,0.6402588,11.4634857c0.301651,5.9425049,0.6884003,11.8815613,1.436203,17.7932434
		c0.2540588,2.0083618,0.2188416,4.0569458,0.2552185,6.0882263c0.0326538,1.8235168-0.331955,2.3253479-2.0801697,2.8504028
		c-3.0027771,0.901886-6.1177368,1.1565552-9.2156982,1.4766541c-7.6790924,0.7934875-15.3886871,0.8653259-23.0988464,1.0100403
		c-11.2233429,0.2105713-22.4427795,0.6520691-33.6664886,0.8132324
		c-12.465332,0.1789856-24.9095688-0.8466187-37.3765488-0.8479919c-8.3887634-0.0009155-16.7798843-0.1001892-25.151638-0.7355652
		c-4.1446838-0.3145447-8.2758713-0.7521667-12.340168-1.6717529c-0.1947975-0.0440674-0.3910027-0.0827026-0.5842476-0.1327515
		c-3.2418594-0.839325-3.5977211-1.1888428-3.400528-4.5171509c0.460228-7.7680969,1.0083466-15.5311584,1.5519638-23.2940521
		c0.1425133-2.0351257,0.276474-4.0680084,0.2283363-6.1076813c-0.042572-1.8038025,0.0343819-3.5982361,0.3599243-5.374054
		c0.4141579-2.2592163,0.4556732-4.5098877,0.1245842-6.7920074c-0.2644081-1.822525-0.3191986-3.6938171,0.1231804-5.4887848
		c0.6758995-2.7424774,0.4011536-5.4645386,0.1609726-8.211441c-0.3061447-3.501236-0.7315483-6.9971313-0.557373-10.5271454
		c0.210701-4.2702332,1.21278-8.371933,2.6357193-12.3757019c0.3822937-1.0757294,0.662571-2.0986328,0.4848175-3.2543335
		c-0.1887817-1.2274475-0.1527405-2.4721222,0.0791321-3.7011414c0.3067322-1.6258392,0.1911087-3.2480927,0.1102371-4.8917236
		c-0.1626472-3.3054199-0.1814728-6.6195679-0.1952438-9.9303894c-0.0538025-12.9391785-0.0427094-25.8787994-0.1401978-38.817627
		c-0.0386047-5.1235809-0.9969521-10.1754761-1.5107613-15.2625809
		C43.632206,123.2591858,43.4508286,121.9136505,43.2901154,120.5660324z"></path>
	<path d="M118.5418243,37.2008209c-3.3666534,0.0023422-6.7333145,0.0046844-10.0998306,0.0070038
		c-4.2211685-4.7959595-8.7679062-9.2850647-13.1443939-13.9347267c-3.4808121-3.6980877-6.1751251-7.9202652-8.5605774-12.3653183
		c-0.2610321-0.4863977-0.5401993-0.9795284-0.5616684-1.5585451c3.0564423,0.2729836,6.1106796,0.5771656,9.170166,0.813076
		c8.3447266,0.6434383,16.6852798,1.4236488,25.072525,0.8302784c6.7585526-0.4781466,13.5189362-0.9303131,20.2785187-1.3940058
		c-0.3106079,1.6447983-1.2674408,2.9918289-2.0808868,4.392005c-2.1943207,3.7770243-4.8100891,7.2333021-7.8605957,10.3761816
		C126.6421967,28.6041794,122.6091385,32.9191399,118.5418243,37.2008209z"></path>
</g>
<g onclick="select(this)" class="" id="gola-primaria" fill="#ffffff">
	<path d="M116.2800293,49.0477753c0.9626389-4.8089676,3.1024399-9.0236244,6.4492722-12.6026459
		c4.169426-4.4586735,8.4370346-8.8270798,12.5426407-13.343298c3.1016846-3.4118843,5.5658569-7.3001604,7.496933-11.4869471
		c1.1600647-2.5151167,2.0028381-5.1494989,1.236084-7.9960232c1.0204315,0.5798037,1.5783691,1.6334045,2.4360046,2.3822167
		c0.9793396,0.8550673,1.7985077,1.9075451,3.0384979,2.437151c1.5538025,1.0682335,2.0070953,2.3769512,1.635025,4.2228565
		c-0.5260315,2.6097441-1.8094788,4.872057-3.2950592,6.9872856c-4.7333832,6.7395763-9.7569733,13.2395916-15.7446289,18.9537182
		c-3.9443207,3.7641487-7.8492279,7.5282288-13.1023788,9.4524002
		C118.0741959,48.3834953,117.1774521,48.7165794,116.2800293,49.0477753z"></path>
	<path d="M82.7076416,4.5448394c-0.0166855,3.979423,1.5666733,7.4199128,3.5179596,10.7698879
		c2.7789536,4.7709198,6.3622131,8.8787422,10.1981125,12.8014355c2.7640457,2.8265934,5.4970779,5.6848927,8.1912689,8.5781612
		c3.236824,3.4759941,5.1639175,7.6360855,6.1777725,12.2461243c-0.8419342,0.0738869-1.5169296-0.408268-2.2457886-0.6932793
		c-3.9116135-1.5295563-7.291893-3.8392944-10.3676224-6.7113991c-7.2736359-6.7920952-13.6247787-14.3459892-19.1692352-22.5971069
		c-1.2771683-1.9006538-2.3422928-3.876852-2.7694016-6.1657696c-0.4193039-2.2471418,0.0091248-3.2733984,2.0178757-4.4530277
		c1.2241135-0.5428443,2.0038757-1.6151705,2.9627609-2.475987C81.7105637,5.4047003,82.0242996,4.7611246,82.7076416,4.5448394z"></path>
	<path d="M140.6965637,9.5985832c-6.7595825,0.4636927-13.5199661,0.9158592-20.2785187,1.3940058
		c-8.3872452,0.5933704-16.7277985-0.1868401-25.072525-0.8302784c-3.0594864-0.2359104-6.1137238-0.5400925-9.170166-0.813076
		c-0.7073441-1.3048449-0.8538132-2.723803-0.8080826-4.1702523c0.025322-0.8010435,0.4874268-1.3244181,1.2196579-1.6196523
		c1.1242981-0.4533081,2.3031769-0.6607053,3.5043182-0.6614058c15.6530533-0.0091302,31.3061066-0.0079172,46.9591675,0.0003197
		c1.1218872,0.0005903,2.2193146,0.2132609,3.2792206,0.5918701c0.9333344,0.3334045,1.4241638,0.9818466,1.4043732,1.9923222
		C141.7055511,6.9350324,141.4491577,8.3291445,140.6965637,9.5985832z"></path>
</g>
<g onclick="select(this)" class="" id="estampa-secundaria" fill="#005425">
	<path d="M42.731369,115.3902359c-0.0987129-1.2293472-0.218029-2.4572754-0.4434242-3.6756134
		c-0.3732681-2.0176697-0.4633331-4.0860519-0.7805748-6.116066c-0.4812317-3.0793839-0.8572426-6.1779633-1.559597-9.2203369
		c-0.2439041-1.0565033-0.1809349-1.1419525,0.9393997-1.1453476c1.8798599-0.0056992,3.7597504-0.0015793,5.6396255-0.0015793
		c46.7568855,0,93.5137787-0.0000153,140.2706757,0.0000153c1.7407227,0,1.7502289,0.0024185,1.3566589,1.6445465
		c-0.9865265,4.1161652-1.7747192,8.2693024-2.4341278,12.4504318c-0.3178864,2.0156326-0.5784454,3.9456863-0.6986237,5.9837494
		c-0.0059814,0.1013031-0.3474884,0.0682678-0.8992767,0.0715942c-0.206955-0.0194321-0.5143127-0.0100937-0.9728241-0.0101089
		c-46.2769165-0.0016022-92.5538483-0.0012894-138.83078-0.0012894c-0.3952179,0-0.7904396,0-1.2774849,0
		C42.9821167,115.3740692,42.812706,115.3825378,42.731369,115.3902359z"></path>
	<path d="M194.8647156,72.1708527c-0.1248932,3.9457321-0.9388733,7.7656708-2.2367401,11.5244217
		c-1.0104828,2.9263916-2.5805969,5.6330719-3.2866669,8.7920227c-0.2936554-0.1921768-0.4763489-0.4530258-0.8056641-0.3998871
		c-0.3117828,0.0503159-0.6381683,0.0100174-0.9581299,0.0100174c-48.8751678-0.0000381-97.7503128-0.0000381-146.6254578-0.0000305
		c-0.239975,0-0.4825325,0.0226669-0.7194252-0.0043106c-0.663887,0.041748-1.0551224,0.0342484-1.2887878,0.0277023
		c-0.4203911-1.3501434-0.804142-2.7161942-1.3644638-4.0056c-1.2491684-2.874588-2.0380211-5.9190369-3.4595184-8.737236
		c-1.0163727-2.0149994-1.5470085-4.2395859-1.484684-6.5541382c0.005661-0.2102737,0.0114136-0.4207077,0.016655-0.6312256
		c0.2757034,0.0111237,0.3688812,0.015358,0.7777596,0.018692c0.3196831,0.0026016,0.6398087,0.0014725,0.9597549,0.0014725
		C87.3041,72.2129288,140.2188416,72.2129211,193.133606,72.2129211c0.1199799,0,0.239975,0.0007706,0.3599548-0.0001297
		c0.3436127-0.0025864,0.5809784-0.0283203,0.752533-0.0384903
		C194.6310577,72.1514816,194.6931763,72.1599503,194.8647156,72.1708527z"></path>
</g>
</svg>
