<!--?xml version="1.0" encoding="utf-8"?-->
<!-- Generator: Adobe Illustrator 24.2.3, SVG Export Plug-In . SVG Version: 6.00 Build 0)  -->
<svg version="1.1" id="Camada_1" xmlns="http://www.w3.org/2000/svg" xmlns:xlink="http://www.w3.org/1999/xlink" x="0px" y="0px" viewBox="0 0 229 418" style="enable-background:new 0 0 229 418;" xml:space="preserve">
<style type="text/css">
	.st0{fill:#FD0303;}
	.st1{fill:#DCE741;}
	.st2{fill:#FCFFF4;}
</style>
<g onclick="select(this)" class="" id="gola-primaria" fill="#000000">
	<path d="M78,8c0.5-0.1,1-0.4,1.4-0.7c1-0.9,2-1.7,2.8-2.8c1.8-2.5,4.4-3.4,7.2-3.8c0.6-0.1,1.4,0.1,1.9-0.5
		c1.2,0,2.4,0,3.6,0c0.2,0.5,0.6,0.3,0.9,0.3c5.6,0,11.2,0,16.7,0c0.4,0,0.8-0.1,1.1-0.3c7.5,0,15,0,22.6,0c0.1,0.5,0.5,0.3,0.8,0.4
		c1,0.2,2,0.3,2.9,0.4c2,0.3,3.7,1.1,4.9,2.8c1.3,1.7,2.7,3.3,4.6,4.4c1.3,0.6,1.9,1.5,1.8,3c-0.2,3.6-1.9,6.5-4,9.3
		c-0.5,0.6-0.8,0.5-1.3,0.1c-1.7-1.3-3.3-2.6-5-3.9c-0.8-0.6-0.9-0.9-0.2-1.7c1.6-1.7,2.8-3.6,3.7-6c-3.8,0.3-7.5,0.6-11.1,0.8
		c-8.3,0.5-16.6,1.4-24.9,0.9c-8-0.4-15.9-1.1-23.9-1.9c-1.3-0.1-1.4,0-0.9,1.1c0.8,2,2.1,3.7,3.5,5.2c0.5,0.6,0.6,1-0.1,1.5
		c-1.7,1.3-3.4,2.7-5.1,4c-0.5,0.5-0.9,0.4-1.3-0.1c-1.9-2.4-3.4-5-4.2-8C75.9,10.4,76.3,9.2,78,8z"></path>
</g>
<g onclick="select(this)" class="" id="estampa-primaria" fill="#000000">
	<path d="M43.2,120.4c-0.1-2.3-0.2-4.6-0.6-6.9c-0.1-0.5-0.2-0.6-0.7-0.4c-2.5,1.1-5.2,1.1-7.8,1.5c-1.5,0.2-3-0.1-4.5-0.1
		c-4.2,0-8.5-0.1-12.7-0.5c-3.8-0.4-7.6-1.1-11.2-2.4c-1.4-0.5-3-0.9-4.2-1.9c1.8-9.4,2.7-19,4.2-28.4c0.9-5.2,1.2-10.4,2.3-15.5
		c1.7-8,4.4-15.7,9.4-22.4c2.1-2.9,4.6-5.6,7.4-7.8c1.4-1.1,2.4-2.6,3.9-3.4c3.6-1.9,7.3-3.7,11-5.3c10-4.1,20-8.2,29.4-13.4
		c2-1.1,4-2.1,5.5-3.9c0.8-1,2-1.6,3.4-1.6c-1.7,1.2-2.1,2.5-1.5,4.7c0.7,3,2.2,5.6,4.2,8c0.5,0.6,0.8,0.6,1.3,0.1
		c1.7-1.4,3.3-2.7,5.1-4c0.7-0.5,0.6-0.9,0.1-1.5c-1.5-1.6-2.7-3.2-3.5-5.2c-0.5-1.2-0.4-1.3,0.9-1.1c7.9,0.8,15.9,1.5,23.9,1.9
		c8.3,0.5,16.6-0.4,24.9-0.9c3.7-0.2,7.3-0.5,11.1-0.8c-0.9,2.3-2.1,4.2-3.7,6c-0.7,0.8-0.6,1.1,0.2,1.7c1.7,1.2,3.4,2.5,5,3.9
		c0.5,0.4,0.8,0.5,1.3-0.1c2.1-2.8,3.8-5.7,4-9.3c0.1-1.5-0.5-2.4-1.8-3c1.8-0.1,3,1,4,2.2c0.3,0.4,0.7,0.7,1.1,1
		c10,6.5,21.2,10.6,32.1,15.2c4,1.7,7.8,3.6,11.8,5.3c1.2,0.5,1.9,1.6,3,2.4c3.5,2.6,6.7,5.6,9.3,9.1c4.9,6.4,7.6,13.8,9.4,21.6
		c0.6,2.9,1.2,5.8,1.5,8.7c0.6,5.8,2.3,11.3,3.4,17c1.1,5.5,1.7,11,2.8,16.5c0.1,0.3,0,0.6,0.1,1c-3.3,1.3-6.6,2.4-10,3.2
		c-3.1,0.7-6.3,1.1-9.4,1.7c-3,0.5-6.1,0.7-9.2,0.7c-4.2,0-8.5,0.3-12.7-0.6c-1.2-0.3-1.4,0.1-1.6,1.1c-0.4,1.9-0.3,3.9-0.3,5.8
		c-0.4,0.8-0.3,1.7-0.4,2.6c-1,8.4-1.7,16.8-1.7,25.2c0,2.2,0.1,4.4,0.5,6.6c0.4,1.9,0,3.8-0.2,5.7c-0.2,2.1-0.3,4.2-0.1,6.3
		c0.2,2.5-0.2,5-0.2,7.5c0,2.6-0.1,5.2,0.2,7.8c0.2,2.4-0.2,4.8-0.2,7.2c0,2.3,0.5,4.4,1,6.6c1.6,7.3,1.4,14.5,0.3,21.8
		c-0.3,2.1-0.4,4.2,0.3,6.4c1.8,5.4,1.8,11,0.9,16.6c-0.2,1.5-0.2,2.9,0.1,4.4c0.9,3.8,0.4,7.7,0.6,11.6c0.3,5.9,0.7,11.8,1.4,17.7
		c0.3,2,0.2,4.1,0.3,6.2c0,1.7-0.4,2.2-2.1,2.7c-3,0.9-6.1,1.2-9.2,1.5c-8.3,0.9-16.7,0.9-25,1c-11.6,0.2-23.2,0.8-34.8,0.8
		c-11.5,0-23-0.8-34.5-0.9c-8.4,0-16.7-0.1-25.1-0.7c-4.2-0.3-8.4-0.8-12.6-1.7c-3.6-0.8-4-1.2-3.8-4.8c0.4-7.7,1-15.4,1.5-23.1
		c0.1-2,0.3-4,0.2-6c0-1.9,0-3.8,0.4-5.6c0.4-2.2,0.4-4.4,0.1-6.7c-0.4-2.5-0.1-5,0.4-7.5c0.2-1,0.2-2,0.1-3.1
		c-0.3-4.5-1-9.1-0.8-13.6c0.2-4.3,1.2-8.5,2.7-12.5c0.4-1,0.6-2,0.5-3.1c-0.2-1.2-0.2-2.5,0.1-3.7c0.3-1.7,0.2-3.3,0.1-5
		c-0.2-3.3-0.2-6.6-0.2-9.9c-0.1-12.9,0-25.8-0.1-38.7c0-5.2-1-10.3-1.6-15.5C43.6,122.9,43.8,121.6,43.2,120.4z"></path>
</g>
<g onclick="select(this)" class="" id="detalhe-punho" fill="#ffffff">
	<path d="M0.2,114.7c0.6-1.1,0.4-2.3,0.7-3.4c0.2-0.5,0.1-1.1,0.5-1.6c1.2,1,2.8,1.3,4.2,1.9c3.6,1.4,7.4,2,11.2,2.4
		c4.2,0.4,8.4,0.5,12.7,0.5c1.5,0,3.1,0.3,4.5,0.1c2.6-0.4,5.3-0.4,7.8-1.5c0.5-0.2,0.6-0.1,0.7,0.4c0.4,2.3,0.5,4.6,0.6,6.9
		c-0.6,0.6-1.3,0.7-2,0.9c-2.3,0.6-4.5,1-6.9,1c-7.6,0.2-15.2,0.2-22.7-1.2c-3-0.6-6-1.1-8.9-2.1c-0.8-0.3-1.6-0.6-2.4-1
		C0.2,116.9,0.2,115.8,0.2,114.7z"></path>
	<path d="M184.6,120.1c0-2-0.1-3.9,0.3-5.8c0.2-1,0.4-1.4,1.6-1.1c4.2,0.9,8.4,0.6,12.7,0.6c3.1,0,6.1-0.2,9.2-0.7
		c3.1-0.5,6.3-0.9,9.4-1.7c3.4-0.8,6.8-1.9,10-3.2c1,2.4,1.3,5,1.2,7.6c0,0.7-0.8,0.8-1.3,1.1c-2.5,1-5.1,1.6-7.7,2.3
		c-9.1,2.5-18.5,3.1-27.9,2.6c-2-0.1-4.1-0.3-6-0.9C185.5,120.7,185,120.6,184.6,120.1z"></path>
</g>
<path d="M184.1,125.2c0-0.1-0.1-0.1-0.1-0.2c0,0,0.1-0.1,0.1-0.1C184.1,125,184.1,125,184.1,125.2
	C184.1,125.2,184.1,125.2,184.1,125.2z"></path>
<g onclick="select(this)" class="" id="estampa-secundaria" fill="#ffffff">
	<path d="M186.1,262.1c0.3,3.5,0.5,7,0.9,10.5c0.3,2.5,0.4,5,0.5,7.5c0,2.1-0.3,2.6-2.3,3.1c-2.8,0.8-5.7,1.1-8.6,1.4
		c-8.6,0.9-17.1,0.9-25.7,1.1c-11.5,0.3-23,0.7-34.5,0.8c-9.5,0.1-19-0.7-28.5-0.8c-7.6-0.1-15.2-0.2-22.8-0.4
		c-6.8-0.2-13.7-0.6-20.3-2.1c-4-0.9-4.3-1.2-4.1-5.2c0.2-4.8,0.6-9.6,0.9-14.5c0.3-0.6-0.2-1.5,1.2-1.5
		C90.5,262.1,138.3,262.1,186.1,262.1z"></path>
	<path d="M42.6,244.1c0.4-2.1,0.6-4.3,0.3-6.4c-0.4-2.5-0.4-5,0.3-7.5c0.6-2.3,0-4.4,0-6.6c0.6,0,1.1-0.1,1.7-0.1
		c45.9,0,91.7,0,137.6,0c0.5,0,1,0,1.6,0c1.8,5.1,1.9,10.4,1.3,15.7c-0.2,1.9-0.7,3.8-0.1,5.7c-0.2,0.7-0.8,0.4-1.2,0.4
		c-46.7,0-93.4,0-140.1,0C42.8,245.3,42.5,245.1,42.6,244.1z"></path>
	<path d="M42.7,113c-0.1-2.6-0.5-5.3-1-7.8c-0.2-1.1,0.1-1.3,1.2-1.3c32.3,0,64.6,0,96.9,0c15.2,0,30.4,0,45.5,0
		c1,0,1.3,0.1,1.1,1.2c-0.5,2.7-1.1,5.4-1.2,8.2c-0.2,2.5-0.5,5.1-0.7,7.6c-0.1,1.4-0.2,2.8-0.4,4.1c0,0-0.1,0.1-0.1,0.1
		c0,0.1,0,0.1,0.1,0.2c-0.1,0.1-0.1,0.3-0.1,0.4c-0.4,0-0.8,0-1.2,0c-45.8,0-91.5,0-137.3,0c-0.4,0-0.9,0-1.3-0.1
		c-0.2-1.8-0.4-3.5-0.6-5.3C43.3,117.9,43.1,115.4,42.7,113z"></path>
	<path d="M182.7,183.7c-0.1,1.6-0.2,3.2-0.2,4.8c-0.1,2.2,0.3,4.4,0.8,6.5c0.8,3.4,1.3,6.9,1.3,10.4c-0.5,0-1,0-1.4,0
		c-46,0-91.9,0-137.9,0c-0.3,0-0.6,0-0.8,0c-0.6,0.1-0.5-0.3-0.5-0.7c0.6-1.9,1-3.8,1.8-5.6c0.3-0.6,0.1-1.4,0-2
		c-0.1-1.2-0.2-2.3,0-3.5c0.7-2.9-0.2-5.7,0.1-8.6c0-1.4,0.8-1.4,2-1.4c44.4,0,88.8,0,133.2,0C181.5,183.7,182.1,183.7,182.7,183.7z
		"></path>
	<path d="M45.6,165.4c0-5.1,0-10.3,0-15.4c0.2-1.6,0.1-3.1,0.1-4.7c0-1.3,0.3-1.6,1.6-1.6c44.7,0,89.3,0,134,0
		c0.5,0,1,0,1.4,0c-0.2,7.2,0.9,14.4,0,21.6c-0.5,0-1,0.1-1.4,0.1c-44.7,0-89.5,0-134.2,0C46.5,165.4,46,165.4,45.6,165.4z"></path>
	<path d="M146.2,21c2.4,2.4,5.3,4,8.2,5.7c8,4.6,16.6,7.6,25.4,10.1c5.2,1.5,10.4,2.7,15.5,4.4c1.6,0.6,1.8,0.8,1.4,2.5
		c-0.3,1-0.5,1.9-0.6,2.9c0,0.5-0.2,0.6-0.7,0.6c-0.3,0-0.6,0-0.8,0c-53.9,0-107.7,0-161.5,0c-1.2,0-1.7-0.3-1.7-1.5
		c0-1.1-0.3-2.1-0.5-3.2c-0.2-0.8,0.1-1.1,0.8-1.4c4.8-1.9,9.8-3.2,14.8-4.5c8.3-2.1,16.5-4.8,24.1-8.7c3.8-1.9,7.3-4.1,10.9-6.4
		c2.1-1.7,4.3-3.4,6.4-5.1c2.2,2.1,4.3,4.1,6.8,5.8c8.5,5.7,17.6,8.2,27.7,5.3c7.1-2,12.9-6,17.9-11.3
		C142.1,17.7,144.2,19.3,146.2,21z"></path>
	<path d="M114.1,64.1c26.5,0,52.9,0,79.3,0c1.2,0,1.4,0.3,1.4,1.4c-0.1,3-0.1,6-0.3,9c-0.2,3.7-1.4,7.2-2.6,10.7
		c-0.1,0.4-0.3,0.6-0.8,0.6c-0.3,0-0.6,0-1,0c-50.6,0-101.2,0-151.9,0c-1.2,0-1.8-0.4-2-1.5c-0.2-1.1-0.6-2.1-1.1-3
		C33,77.3,32.9,73,33,68.7c0-1.2,0.1-2.5,0.2-3.7c0-0.6,0.2-1,0.9-0.9c0.3,0,0.6,0,0.8,0C61.3,64.1,87.7,64.1,114.1,64.1z"></path>
</g>
</svg>
