<!--?xml version="1.0" encoding="utf-8"?-->
<!-- Generator: Adobe Illustrator 24.2.3, SVG Export Plug-In . SVG Version: 6.00 Build 0)  -->
<svg version="1.1" id="Camada_1" xmlns="http://www.w3.org/2000/svg" xmlns:xlink="http://www.w3.org/1999/xlink" x="0px" y="0px" viewBox="0 0 234 419" enable-background="new 0 0 234 419" xml:space="preserve">
<g onclick="select(this)" class="" id="c-estampa-primaria" fill="#082890">
	<path d="M46.5797157,116.2950058c0.185257-0.6483917-0.6537361-0.9849701-0.4953499-1.6253433
		c0.5182152,0.0226059,0.6628151-0.4720535,0.6060638-0.7240372c-0.280571-1.2458649-0.0024986-2.5490494-0.4596062-3.7740936
		c-0.6063385-1.6249771-0.8805771-3.309021-0.9140816-5.0521164c-0.0335388-1.7450027,0.0705605-3.5604324-0.3755188-5.2129059
		c-0.5828209-2.158989-0.539711-4.3322754-0.7531052-6.4977798c-0.3980331-4.0393677-1.520134-7.9533386-1.9846001-11.9856033
		c-0.1975327-1.7148361-1.3414497-3.1512909-2.2492752-4.6143951c-0.7971649-1.2847672-1.6851196-2.5023575-2.3088303-3.903244
		c-1.2873306-2.891449-2.0342979-5.9559021-3.0267525-8.9413643c-2.7424545-8.2497559-4.2003059-16.6715012-3.3990879-25.3932762
		c0.1052742-1.1459999,0.1410866-2.2846794,0.1466522-3.4348526c0.0043144-0.891304,0.4792271-1.795208,0.052166-2.7290077
		c3.4728107-1.6030388,6.8956928-3.326992,10.4286785-4.7843227c7.7137451-3.1818562,15.4091187-6.4014969,23.0177917-9.8284798
		c4.0938568-1.843895,7.8964233-4.1892042,11.6719589-6.589592c0.4143219-0.2634115,0.7095108-0.6315708,1.0264282-0.9923935
		c1.1756058-1.3385038,2.5758896-2.2574015,4.4347382-2.2701569c3.1979675,0.0525031,6.3340836,0.674572,9.4939804,1.0660105
		c4.2705994,0.5290289,8.5308456,1.1491327,12.8368759,1.3105574c4.464386,0.1673594,8.9158554,0.8124199,13.38237,0.6483946
		c7.6079636-0.2793884,15.2081909-0.7163286,22.7851257-1.5451574c4.3106537-0.4715357,8.5646973-1.341507,12.8898468-1.6806526
		c2.0128479,0.0676675,3.5430756,1.0186796,4.8133698,2.5284395c0.9441833,1.1221704,2.2803955,1.7418261,3.5247192,2.4450235
		c9.2702637,5.2388725,19.0028076,9.4937687,28.8939819,13.3912182c4.3552551,1.716116,8.4536591,3.9741306,12.7511292,5.8048477
		c0.1732025,0.0737801,0.3069153,0.2401142,0.4586182,0.3631573c-0.3523254,0.8024063-0.4155426,1.6195412-0.0298767,2.4191933
		c0.1311951,0.2720184,0.181839,0.4944839,0.0951538,0.7878418c-0.2670898,0.9039192-0.1110077,1.8232651-0.0374908,2.7345352
		c0.4286499,5.3122177,0.2358093,10.5978088-0.7501373,15.8386192c-0.9081573,4.8272133-2.5077057,9.4690361-3.8674164,14.1763763
		c-0.8522186,2.9503632-2.1963043,5.6354218-3.8081818,8.2168579c-0.3022461,0.4840775-0.6337433,0.9346771-1.132782,1.2096786
		c-0.875824,0.4826508-1.296402,1.3258286-1.5685272,2.1804428c-1.2528992,3.9347839-1.6907501,8.009079-1.938736,12.110878
		c-0.1130219,1.8693085-0.019928,3.7922363-0.4386902,5.5937042c-1.001297,4.3073273-1.4461823,8.6330566-1.2836304,13.0452652
		c0.0344086,0.9342422-0.2644653,1.8807449-0.4099274,2.8218384c-0.1396332,2.1776733-0.4706116,4.32901-0.8825073,6.4693375
		c-0.4181519,0.1386261-0.4368439,0.4838867-0.5017548,0.8530045c-0.7082367,4.0284653-1.0413055,8.1047592-1.4679413,12.1644669
		c-0.5024567,4.7813721-0.8779907,9.5827484-1.1015625,14.3850861c-0.2931519,6.2973938-0.5302429,12.6040497-0.5359344,18.9069672
		c-0.021698,24.0374298-0.3027039,48.0778046,0.8050842,72.1051788c0.2349701,5.0960693,0.3302917,10.2025604,0.5016632,15.3040771
		c0.208786,6.2147522,0.4924774,12.4246521,0.7497253,18.6366577c0.1732025,4.1817932,0.4486237,8.3577271,0.6026001,12.5396729
		c-7.607132,1.9840088-15.3674011,2.9150085-23.1973114,3.3590088c-14.212677,0.8060303-28.4416962,0.8194885-42.6705322,0.9506836
		c-14.7494659,0.1360168-29.499939,0.3515015-44.247261,0.1172791c-9.3971634-0.1492004-18.7562866-0.9642639-27.9142876-3.2998352
		c-0.151947-0.0387268-0.2957077-0.1096191-0.4425812-0.1655273c0.1843681-1.6255493,0.1574097-3.2635803,0.2652817-4.8948059
		c0.3707848-5.6069336,0.6154099-11.223999,0.8027077-16.8406982c0.1355629-4.0651855,0.3074532-8.1278992,0.473423-12.1915894
		c0.2491112-6.0993042,0.3875389-12.2032623,0.5507965-18.3058472c0.0640221-2.3931427,0.0883255-4.7858124,0.176075-7.1799927
		c0.2413216-6.5841522,0.4173012-13.1746826,0.4211426-19.7628021c0.0103149-17.6988831,0.2436218-35.4001617-0.2846985-53.0953064
		c-0.0724525-2.4267578-0.2412376-4.8573608-0.3755302-7.2850342c-0.2304344-4.1654358-0.5802383-8.3254242-0.9457321-12.4819031
		c-0.2467003-2.805603-0.6307182-5.598877-0.9080925-8.4021149c-0.2370377-2.3955841-0.5713921-4.7791977-1.272316-7.0769653
		C47.065361,117.5858994,47.5537605,116.6536255,46.5797157,116.2950058z"></path>
	<path d="M188.6579132,113.4088669c0.1453094-0.9408493,0.4441833-1.887352,0.4097748-2.8215942
		c-0.1625519-4.4122086,0.2823334-8.7379379,1.2836304-13.0452652c0.4187622-1.8014679,0.3256683-3.7243958,0.4386902-5.5937042
		c0.2479858-4.101799,0.6858368-8.1760941,1.938736-12.110878c0.2721252-0.8546143,0.6927032-1.6977921,1.5685272-2.1804428
		c0.4990387-0.2750015,0.8305359-0.7256012,1.132782-1.2096786c1.6118774-2.5814362,2.9559631-5.2664948,3.8081818-8.2168579
		c1.3597107-4.7073402,2.959259-9.3491631,3.8674164-14.1763763c0.9859467-5.2408104,1.1787872-10.5264015,0.7501373-15.8386192
		c-0.0735168-0.9112701-0.229599-1.830616,0.0374908-2.7345352c0.0866852-0.2933578,0.0360413-0.5158234-0.0951538-0.7878418
		c-0.3856659-0.7996521-0.3224487-1.616787,0.0298767-2.4191895c0.244751,0.1315155,0.5320892,0.2172737,0.7270813,0.4009552
		c3.7481689,3.5309639,7.8153381,6.7530899,10.8273773,11.0032272c3.8502655,5.4328995,6.5025024,11.4290199,8.3473663,17.8068161
		c1.8612213,6.4343071,2.5635376,13.068676,3.6293793,19.6519051c1.5700531,9.6974792,2.6227722,19.4789429,4.6446838,29.1037216
		c0.0975342,0.4642105,0.0895996,0.9505463,0.1307678,1.4267502c-1.1613007,0.2897034-2.3131256,0.6268082-3.4855652,0.8605957
		c-5.2816315,1.0531921-10.633194,1.6348572-15.9672394,2.3379288c-4.5540771,0.6002655-9.1077118,0.9758301-13.7149963,1.0247879
		c-3.2663116,0.0347137-5.9070282-1.0543747-8.3687897-2.9666061c-0.4225311-0.328186-0.8148651-0.729599-1.2762299-0.7082291
		C188.8727264,112.589859,189.4504089,113.3088074,188.6579132,113.4088669z"></path>
	<path d="M31.4183903,32.4069862c0.4270611,0.9337997-0.0478516,1.8377037-0.052166,2.7290077
		c-0.0055656,1.1501732-0.041378,2.2888527-0.1466522,3.4348526c-0.801218,8.7217751,0.6566334,17.1435204,3.3990879,25.3932762
		c0.9924545,2.9854622,1.7394218,6.0499153,3.0267525,8.9413643c0.6237106,1.4008865,1.5116653,2.6184769,2.3088303,3.903244
		c0.9078255,1.4631042,2.0517426,2.899559,2.2492752,4.6143951c0.4644661,4.0322647,1.5865669,7.9462357,1.9846001,11.9856033
		c0.2133942,2.1655045,0.1702843,4.3387909,0.7531052,6.4977798c0.4460793,1.6524734,0.34198,3.4679031,0.3755188,5.2129059
		c0.0335045,1.7430954,0.3077431,3.4271393,0.9140816,5.0521164c0.4571075,1.2250443,0.1790352,2.5282288,0.4596062,3.7740936
		c0.0567513,0.2519836-0.0878487,0.7466431-0.6060638,0.7240372c-0.1596222-0.8463593-0.3192825-1.6928635-0.5350494-2.8368607
		c-1.7375069,2.5469818-4.2785683,2.1537476-6.5608978,2.3492203c-4.2981262,0.368103-8.6075993,0.2233887-12.8986778-0.2197342
		c-1.5838432-0.163559-3.1528378-0.4698334-4.7291145-0.707634c-3.4245071-0.5166168-6.853446-1.0724945-10.2325821-1.7766113
		c-3.1150322-0.6491089-6.2374821-1.2606277-9.3613768-1.8658905c0.4811549-3.2370834,0.9884026-6.4704666,1.4379306-9.7118454
		c0.9398181-6.77668,2.8408673-13.3459015,4.2595739-20.0188599c0.9125152-4.2920761,1.1723132-8.7018204,2.1520391-12.9902496
		c1.6359644-7.1609039,3.9090691-14.073616,7.905407-20.3133125c2.7608185-4.3106155,6.1670017-8.0535927,10.2035542-11.1928902
		C28.9751701,34.4128494,29.9475403,33.098835,31.4183903,32.4069862z"></path>
</g>
<path d="M47.6899986,133.4400024c0.3199997,0.1300049,0.3699989,0.2899933,0.0499992,0.4900055
	C47.6100006,133.7799988,47.5900002,133.6100006,47.6899986,133.4400024z"></path>
<path d="M96.7300034,223.2100067c0.0100021-0.1000061,0.0299988-0.1999969,0.0400009-0.3000031
	c0.0400009,0.0200043,0.0800018,0.0399933,0.1200027,0.0599976c-0.0599976,0.0700073-0.1200027,0.1499939-0.1800003,0.2200012
	C96.7099991,223.1999969,96.7300034,223.2100067,96.7300034,223.2100067z"></path>
<path d="M57.6100006,248.8800049c-0.0299988-0.2100067,0-0.3899994,0.2000008-0.5099945
	c0.0400009,0.0299988,0.0699997,0.0599976,0.1100006,0.0899963c-0.0499992,0.1900024-0.0699997,0.3899994-0.3300018,0.4100037
	L57.6100006,248.8800049z"></path>
<path d="M57.5900002,248.8699951c-0.0200005,0.1100006-0.0400009,0.2200012-0.0699997,0.3399963
	c-0.0299988-0.0200043-0.0699997-0.0399933-0.0999985-0.0599976c0.0600014-0.0899963,0.1199989-0.1699982,0.1800003-0.2599945
	C57.6100006,248.8800049,57.5900002,248.8699951,57.5900002,248.8699951z"></path>
<g onclick="select(this)" class="" id="c-estampa-secundaria" fill="#bf0811">
	<path d="M95.6299591,213.6099854c0.0081177,0.6374054-0.010498,75.130249,0,75.6093445
		c-8.5959015,0.0324707-17.9237671,0.2939148-26.5109329-0.3234253c-2.4718399-0.1776733-4.9403381-0.4032898-7.4089279-0.6231079
		c-0.4324493-0.0385132-1.4615364-0.2910767-1.8898621-0.3728333c0.0224419-0.437561-0.0838852-73.8551178-0.1152344-74.289978
		C65.763176,213.5691986,87.9874725,213.6099854,95.6299591,213.6099854z"></path>
	<path d="M138.3874969,213.6099854c4.4666595,0,28.3405457,0,36.1425018,0
		c-0.0228271,0.4775696,0.0425262,73.0192566,0.0695343,73.454895c-3.4625244,0.6457825-7.7439423,0.9276733-11.2450409,1.1508789
		c-7.4548035,0.4751282-14.9246674,0.5751038-22.3904877,0.7628784c-0.5556335,0.0139771-2.021225-0.0408325-2.5765076-0.0636292
		C138.4221802,288.3610535,138.395462,214.0893707,138.3874969,213.6099854z"></path>
</g>
<g onclick="select(this)" class="" id="c-estampa-terciaria" fill="#f6d101">
	<path d="M94.9012527,289.2193298c-0.010498-0.4790955-0.0301743-0.9582214-0.0301819-1.4373169
		c-0.0013351-92.1290283-0.0012283,21.2590637-0.0024796-70.8699646c-0.0000076-0.6382294-0.0179901-2.6646576-0.0261078-3.302063
		c1.0793991,0,2.0281067,0,3.1048126,0c-0.0091171,5.035614-0.0260925,11.8442841-0.0261612,16.8798523
		c-0.0012054,88.0871582-0.0003433-29.3427734,0.0000687,58.7443848
		C96.9145584,289.229248,95.9079056,289.2242737,94.9012527,289.2193298z"></path>
	<path d="M57.6246414,287.6321106c-0.004055-0.4395447-0.0116463-0.8790894-0.0116501-1.3186646
		c-0.0007248-88.4164429-0.0009232,15.7130127-0.0011215-72.7034607c0.9381294,0,1.935894,0,2.787487,0
		c0.0307045,0.4352722,0.0876198,12.5566101,0.0876389,12.9914856c0.0040131,88.5453491,0.0039635-28.4263916,0.0011253,60.1189575
		c-0.0000153,0.4377441-0.041626,0.8754883-0.0640678,1.3130493
		C59.4661026,288.0713196,58.5367889,287.9115295,57.6246414,287.6321106z"></path>
	<path d="M176.6292419,213.6099854c-0.0007629,88.4536133-0.0014038,32.3700104-0.002594,72.0167236
		c0,0.3996582-0.0043182,0.7993164-0.0066528,1.1989136c-0.9146423,0.2349243-1.8401489,0.3897095-2.7879639,0.3777771
		c-0.0267334-0.4361267-0.0773926-0.8718262-0.0774078-1.3074646c-0.0034485-88.4976501-0.0034332,27.9687805-0.0005341-60.5288391
		c0.0000153-0.4777069,0.0410156-11.279541,0.0638428-11.7571106C175.1906128,213.6307678,176,213.6099854,176.6292419,213.6099854z
		"></path>
	<path d="M139.3733368,213.6099854c0.0079651,0.4793854,0.022934,1.9609528,0.022934,2.4403381
		c0.0010223,92.0556641,0.0011444-20.8527985-0.0031738,71.2028503c-0.0000305,0.5539551-0.0626831,1.1078796-0.0973663,1.6618347
		c-0.829071,0.1610107-1.6605988,0.1268311-2.4929504,0.0475769c-0.0105286-0.5189209-0.0303192-1.0378113-0.0303345-1.5567017
		c-0.0013428-91.9479065-0.001236,21.0682983-0.0025787-70.8795776c-0.0000153-0.5590057-0.019455-2.3574066-0.0298309-2.9163208
		C137.5915222,213.6099854,138.497879,213.6099854,139.3733368,213.6099854z"></path>
</g>
<path d="M174.5299988,213.6099854"></path>
<g onclick="select(this)" class="" id="c-gola-primaria" fill="#082890">
	<path d="M81.9974747,7.942389c1.9662018-1.639194,3.7164612-3.4804702,5.368721-5.4389744
		c1.0231857-1.2128421,2.6112137-1.4482877,4.1002197-1.7811556c0.711174-0.1589819,1.5133362,0.0712702,2.1335907-0.4823964
		c2.0799942,0,4.1600037,0,6.2399979,0c0.3020325,0.3884744,0.7345963,0.2425592,1.1111908,0.2409851
		c5.6189728-0.023485,11.2378845-0.0607007,16.8568115-0.0946772c0.9025421,0.0061946,1.8072205,0.0540661,2.7070847,0.0079637
		c1.1081009-0.0567717,2.2357788,0.2831496,3.324913-0.1542716c6.0000076,0,12.0000076,0,18.0000076,0
		c0.9375916,0.4764533,1.994339,0.4536026,2.9870453,0.7034569c1.6346588,0.4114371,3.0479279,1.1160941,4.1027832,2.4926033
		c1.2668915,1.6532269,2.9177704,2.9250007,4.4563446,4.3052711c-4.3251495,0.3391457-8.5791931,1.2091169-12.8898468,1.6806526
		c-7.5769348,0.8288288-15.1771622,1.265769-22.7851257,1.5451574c-4.4665146,0.1640253-8.917984-0.4810352-13.38237-0.6483946
		c-4.3060303-0.1614246-8.5662766-0.7815285-12.8368759-1.3105574C88.3320694,8.6166134,85.1959534,7.9945445,81.9974747,7.942389z"></path>
</g>
<g onclick="select(this)" class="" id="c-detalhe-lateral" fill="#bf0811">
	<path d="M46.5797157,116.2950058c0.9740448,0.3586197,0.4856453,1.2908936,0.6785011,1.9231033
		c0.7009239,2.2977676,1.0352783,4.6813812,1.272316,7.0769653c0.2773743,2.8032379,0.6613922,5.5965118,0.9080925,8.4021149
		c0.3654938,4.1564789,0.7152977,8.3164673,0.9457321,12.4819031c0.1342926,2.4276733,0.3030777,4.8582764,0.3755302,7.2850342
		c0.5283203,17.6951447,0.2950134,35.3964233,0.2846985,53.0953064c-0.0038414,6.5881195-0.179821,13.1786499-0.4211426,19.7628021
		c-0.0877495,2.3941803-0.1120529,4.78685-0.176075,7.1799927c-0.1632576,6.1025848-0.3016853,12.206543-0.5507965,18.3058472
		c-0.1659698,4.0636902-0.3378601,8.1264038-0.473423,12.1915894c-0.1872978,5.6166992-0.4319229,11.2337646-0.8027077,16.8406982
		c-0.107872,1.6312256-0.0809135,3.2692566-0.2652855,4.8948059c-0.9660378-0.0799255-1.8645859-0.4169312-2.7645454-0.7364807
		c-2.1119881-0.7497559-2.3783302-1.1219177-2.2291679-3.3309326c0.365612-5.4145813,0.7419052-10.8285522,1.1430168-16.2406006
		c0.2895012-3.9061279,0.60812-7.8092041,0.5538788-11.7314758c-0.0321693-2.3263092,0.2490234-4.6259613,0.7108879-6.9003906
		c0.4717331-2.3229675-0.0629578-4.6105652-0.2311668-6.9013977c-0.3904762-5.3178558,0.1611633-10.5299683,1.5381432-15.6553192
		c0.5846863-2.1763306,0.0955772-4.3043823-0.1239929-6.4151001c-0.7838097-7.5346069-0.4827576-14.9959106,1.0954742-22.4003143
		c0.4538231-2.1291199,0.6349106-4.2657013,0.4849167-6.4291229c-0.3209496-4.6291351,0.0652962-9.2625427-0.1253052-13.8943329
		c-0.2332001-5.667038-0.0037804-11.3484802-0.5024414-17.0091248c-0.0559425-0.6350555-0.0988388-1.2852783-0.0287743-1.9152222
		c0.8043365-7.2314453,0.1681633-14.4430084-0.2433624-21.6602936c-0.2342491-4.1082001-0.3552399-8.2228241-0.5834808-12.3314438
		c-0.0690269-1.2425842-0.1393394-2.4995728-0.4780693-3.7142181
		C46.5740395,117.7445984,46.5768776,117.0197983,46.5797157,116.2950058z"></path>
	<path d="M186.8271332,284.7735596c-0.1539764-4.1819458-0.4293976-8.3578796-0.6026001-12.5396729
		c-0.2572479-6.2120056-0.5409393-12.4219055-0.7497253-18.6366577c-0.1713715-5.1015167-0.2666931-10.2080078-0.5016632-15.3040771
		c-1.1077881-24.0273743-0.8267822-48.067749-0.8050842-72.1051788c0.0056915-6.3029175,0.2427826-12.6095734,0.5359344-18.9069672
		c0.2235718-4.8023376,0.5991058-9.603714,1.1015625-14.3850861c0.4266357-4.0597076,0.7597046-8.1360016,1.4679413-12.1644669
		c0.0649109-0.3691177,0.0836029-0.7143784,0.5006866-0.852684c0.1143646,0.1809769,0.2297974,0.361618,0.3452301,0.5422745
		c-0.9155579,0.7990112-0.5123444,1.9574509-0.5983582,2.8825455c-0.710144,7.6379242-0.9434662,15.3020477-0.7991638,22.9731445
		c0.0736237,3.9143829,0.5305634,7.8399353,0.2224884,11.739502c-0.6091919,7.7103577-0.2359924,15.4100037-0.1281891,23.1159515
		c0.0380096,2.7167816-0.1179962,5.4292297-0.4608002,8.1316376c-0.2215729,1.746521-0.2428284,3.5065613,0.0569458,5.2558289
		c0.0471649,0.2751923,0.1174927,0.5605164,0.089798,0.8322754c-0.3273621,3.2137909,0.5558319,6.2301178,1.4368286,9.2599487
		c1.776947,6.111145,1.9732208,12.3596497,1.322403,18.6335297c-0.4307861,4.152771-0.3736572,8.2683868,0.1582031,12.3973541
		c0.1008759,0.7832031,0.0873718,1.6023254-0.0135803,2.3868561c-0.6959076,5.4082184,0.5662842,10.7305756,0.7112274,16.1060791
		c0.1914978,7.1008148,0.9172668,14.1861115,1.3373413,21.2825775c0.1222687,2.0654602,0.3727264,4.1258545,0.3047638,6.2073059
		c-0.0380554,1.1656799-0.5097198,1.8869629-1.5921173,2.2428589
		C189.0699463,284.229187,187.9905243,284.6563416,186.8271332,284.7735596z"></path>
</g>
<g onclick="select(this)" class="" id="c-detalhe-punho" fill="#bf0811">
	<path d="M0.24,116.0934372c0.6099691-1.6036377,0.5354484-3.3398285,0.9660289-4.9766235
		c0.1357286-0.5159531,0.0380955-1.12957,0.5606382-1.5046616c3.1238949,0.6052628,6.2463446,1.2167816,9.3613768,1.8658905
		c3.3791361,0.7041168,6.808075,1.2599945,10.2325821,1.7766113c1.5762768,0.2378006,3.1452713,0.544075,4.7291145,0.707634
		c4.2910786,0.4431229,8.6005516,0.5878372,12.8986778,0.2197342c2.2823296-0.1954727,4.823391,0.1977615,6.5608978-2.3492203
		c0.2157669,1.1439972,0.3754272,1.9905014,0.5350876,2.8370056c-0.1584244,0.6402283,0.6805687,0.9768066,0.4953117,1.6251984
		c-0.0028381,0.7247925-0.0056763,1.4495926-0.0085144,2.1743851c-0.0448265,0.0914841-0.1344299,0.1862946-0.1279335,0.2739792
		c0.1689758,2.2800522-0.163063,2.6571503-2.4049683,2.8243332c-3.5738373,0.2664871-7.1095161,0.9167099-10.7256699,0.773407
		c-6.2733345-0.2486115-12.4740543-1.1022491-18.6703339-2.0134277c-4.5695629-0.6719666-9.1108589-1.5093994-13.6113749-2.5555573
		c-0.2677359-0.0622406-0.5274647-0.1588821-0.7909204-0.2395096C0.24,117.052887,0.24,116.5731659,0.24,116.0934372z"></path>
	<path d="M188.1194153,120.4210434c-0.1154327-0.1806564-0.2308655-0.3612976-0.3452301-0.5422745
		c0.4129639-2.1406479,0.7439423-4.2919846,0.8835754-6.4696579c0.7926483-0.1003036,0.2149658-0.819252,0.6640778-1.1933746
		c0.4613647-0.0213699,0.8536987,0.380043,1.2762299,0.7082291c2.4617615,1.9122314,5.102478,3.0013199,8.3687897,2.9666061
		c4.6072845-0.0489578,9.1609192-0.4245224,13.7149963-1.0247879c5.3340454-0.7030716,10.6856079-1.2847366,15.9672394-2.3379288
		c1.1724396-0.2337875,2.3242645-0.5708923,3.4855652-0.8605957c0.2128906,0.0527039,0.3546906,0.176712,0.3748016,0.403244
		c0.1905823,2.1474304,0.6912689,4.2533722,0.795578,6.4173126c0.0500793,1.0388031-0.2937164,1.4709549-1.2895355,1.6987762
		c-3.7425079,0.8562546-7.5182648,1.5250092-11.3158569,2.0600967c-7.1294098,1.0045853-14.2813416,1.7277603-21.499527,1.5248642
		c-2.8661957-0.0805511-5.6458893-0.443428-8.1666565-1.9624786
		C190.1119995,121.2537994,188.7405243,121.6243439,188.1194153,120.4210434z"></path>
</g>
</svg>
