<!--?xml version="1.0" encoding="utf-8"?-->
<!-- Generator: Adobe Illustrator 24.2.3, SVG Export Plug-In . SVG Version: 6.00 Build 0)  -->
<svg version="1.1" id="Camada_1" xmlns="http://www.w3.org/2000/svg" xmlns:xlink="http://www.w3.org/1999/xlink" x="0px" y="0px" viewBox="0 0 229 418" enable-background="new 0 0 229 418" xml:space="preserve">
<g onclick="select(this)" class="" id="estampa-primaria" fill="#801815">
	<path d="M42.3625145,112.8678589c-0.8959656-0.1017761-1.4921265,0.643158-2.3408813,0.7894897
		c-2.3294182,0.401619-4.6686974,0.4893723-7.0189934,0.5657349c-5.6645336,0.1840363-11.3184147-0.0334015-16.9397678-0.6843262
		c-5.0782728-0.5880508-9.9922848-1.9331894-14.7394009-3.8523865c1.6968607-8.914566,2.4887409-17.9633636,4.0001211-26.9052277
		c0.8855782-5.2394028,1.1788788-10.5595627,2.2399793-15.7781754c1.7292547-8.5046692,4.4516621-16.587841,9.6675167-23.660675
		c2.1221409-2.8776779,4.5377865-5.4906731,7.3400173-7.7103424c1.3638744-1.0803337,2.3639565-2.5835495,3.9253674-3.4050102
		c3.6099453-1.8991814,7.2583332-3.7276936,11.0324497-5.2813148c9.9905014-4.1125946,20.000515-8.1803665,29.4651947-13.4415846
		c1.975235-1.0979939,3.9976273-2.0948963,5.5164566-3.8997173c0.8439026-1.0028076,2.0582657-1.6470857,3.4946442-1.5515785
		c-0.7558823,0.5328951-1.5331955,1.0660648-1.698761,2.062746c-0.1725006,1.0384579-0.0040741,2.0608931,0.2305679,3.0806475
		c0.8830261,3.837534,3.1326218,6.8899441,5.7837296,9.6242771c4.1407776,4.2707653,9.0156021,7.5629692,14.3707504,10.1524506
		c3.6889648,1.783802,7.5359039,2.990303,11.6402817,3.2895203c0.3121796,0.0227623,0.7304611,0.2811546,0.9042816-0.2512016
		c0.4935303,0.34338,1.0183716,0.5796623,1.6344376,0.6280861c2.3348846,0.1835098,4.6674347,0.3629379,6.980423-0.1974907
		c1.4196167-0.1702423,2.8583298-0.246006,4.2553635-0.5279999c4.6530838-0.9392471,8.8572388-3.0047417,12.9284058-5.3568268
		c3.3010712-1.907156,6.3566895-4.1787777,9.102417-6.8089809c3.0971222-2.9667931,5.4711609-6.4257278,6.6416321-10.6471872
		c0.6194-2.2338791,0.0160675-4.2730255-1.6763763-4.744153c1.9420776-0.3229475,3.1181183,0.8977289,4.248703,2.1526375
		c0.3474121,0.3856363,0.6847076,0.7271471,1.1279755,1.0213556c8.8716431,5.8886728,18.7898102,9.6126661,28.5267792,13.6823092
		c5.0673981,2.11796,10.038208,4.4440956,15.0911713,6.5874882c0.2853394,0.1210365,0.5591431,0.2838707,0.8124237,0.4636726
		c11.9666901,8.4952011,19.1779327,20.08321,21.3682709,34.4821663c1.744339,11.4671555,4.7389374,22.6825409,6.318634,34.1666946
		c0.3372803,2.451973,0.734375,4.8957443,1.1039429,7.3433762c-0.6231995,0.2587433-1.2245331,0.6173401-1.8733215,0.7590942
		c-3.0727692,0.6713791-5.9807587,1.8872681-9.0736084,2.5406418c-3.9409332,0.8325424-7.895462,1.5586319-11.8859406,1.993576
		c-5.5944672,0.6097641-11.2157135,0.2853394-16.8232422,0.0108337c-1.0757751-0.0526657-2.1148224-0.3867111-3.0544434-0.9562988
		c0.9133911-6.7970505,2.1953278-13.5191116,4.0814056-20.1194687c0.1157837-0.4051819,0.4060211-0.797821,0.1864624-1.2575684
		c0.2286835,0.0135803,0.220459-0.1446991,0.2082977-0.296669c-0.0024109-0.0302811-0.0487976-0.0570526-0.0749359-0.0854416
		c-0.0375671,0.1338348-0.0751343,0.2676697-0.1127014,0.4015045c-0.3382111,0.0892105-0.3290253,0.4328003-0.4303589,0.6598129
		c-2.0418396,4.5738144-3.5193329,9.3472748-4.761322,14.1821594c-2.4083862,9.3755264-3.9837799,18.8970795-4.9313965,28.5371017
		c-0.4706116,4.7878876-0.8178253,9.5828247-1.1400909,14.3773651c-0.3235474,4.8140259-0.4896545,9.6474304-0.4935455,14.4725037
		c-0.0137177,17.0256653-0.293335,34.0512085,0.154068,51.0777588c0.191925,7.3041534,0.2595215,14.6112366,0.5149536,21.9160767
		c0.1701202,4.8651123,0.3197784,9.7314148,0.4851685,14.5971527c0.2033081,5.9811401,0.4586334,11.9578552,0.7411346,17.9355164
		c0.2373199,5.0215149,0.4161682,10.0449524,0.8100586,15.0577393c-7.654129,1.0699463-15.3581696,1.3612976-23.0732422,1.4522095
		c-12.9472198,0.1525879-25.8881531,0.5621033-38.8301163,0.9285583c-6.7608566,0.1914368-13.495842-0.465271-20.2470016-0.5768127
		c-8.7106018-0.1439209-17.42202-0.2460938-26.1319199-0.4232483c-8.3101997-0.1690063-16.6230621-0.3526306-24.847702-1.7511597
		c0.5422516-3.7596436,0.4815598-7.5604248,0.7390556-11.3394775c0.3821983-5.6092529,0.5796967-11.2329712,0.7604179-16.8535767
		c0.1423416-4.4268494,0.2932549-8.852417,0.473175-13.2781219c0.2545853-6.2624207,0.3896675-12.5300751,0.535202-18.7964325
		c0.0927391-3.9929047,0.1909142-7.9915314,0.1893997-11.9799347c-0.00811-21.4069519,0.6336784-42.8216553-0.6577225-64.2175293
		c-0.2539635-4.2076569-0.5593987-8.4050446-0.9685097-12.6003571c-0.4473228-4.5871887-1.0582695-9.1419525-1.8283081-13.6878281
		c-1.0712128-6.3238525-2.2926559-12.6049652-4.1846809-18.739357c-0.5815163-1.8854218-1.0368538-3.8216476-1.9383469-5.6982117
		c-0.5278625,0.8900681,0.2040977,1.4512634,0.2923431,2.1296234c0.3710556,2.852478,0.8811569,5.6868591,1.2544365,8.5390854
		C42.011158,109.0603333,42.4516449,110.9379501,42.3625145,112.8678589z"></path>
	<path d="M127.4529114,26.2913456c-6.4310379-0.0194588-12.8620758-0.0499077-19.2931213-0.0533142
		c-2.833786-0.0015011-5.6675949,0.0519543-8.5014801,0.0807171c-5.0048599-4.1429882-10.5227737-7.7175159-14.446312-13.0585594
		c-0.7870865-1.0714464-1.3979874-2.228776-1.9132462-3.447176c-0.3056183-0.7226677-0.0586853-0.9086885,0.6669846-0.8316221
		c7.1110229,0.755187,14.2389526,1.3106298,21.3717041,1.816123c5.5933609,0.3963957,11.182663,0.3527241,16.7722015-0.018959
		c5.381424-0.3578434,10.7616501-0.7339849,16.1413651-1.1168623c1.9062347-0.1356668,3.8093567-0.3148603,5.8538818-0.4858913
		c-0.84935,2.3374853-2.1702576,4.2213564-3.6612091,5.995595c-1.9371338,2.3052006-4.1574554,4.311861-6.5503387,6.1364632
		C131.734848,22.9537239,129.5988312,24.6290245,127.4529114,26.2913456z"></path>
</g>
<g onclick="select(this)" class="" id="gola-primaria" fill="#801815">
	<path d="M109.2357025,36.010788c-0.1734543,0.532753-0.5917358,0.2743607-0.9039154,0.2515984
		c-4.1043777-0.2992172-7.9513168-1.5057182-11.6402817-3.2895203c-5.3551483-2.5894814-10.2299728-5.8816853-14.3707504-10.1524506
		c-2.6511078-2.734333-4.9007034-5.7867432-5.7837296-9.6242771c-0.234642-1.0197544-0.4030685-2.0421896-0.2305679-3.0806475
		c0.1655655-0.9966812,0.9428787-1.529851,1.698761-2.062746c0.5144196-0.0249214,0.9029312-0.3084855,1.2525024-0.6408176
		c0.9263687-0.8806958,2.0002518-1.6613083,2.7274551-2.6859002c2.0422821-2.8774149,5.0195923-3.6035268,8.2394104-3.9384615
		c3.0734558-0.3197089,6.1407394,0.0640202,9.2119751,0.0276009c4.3973618-0.0521445,8.7971878,0.0443054,13.1931534-0.0513445
		c7.9102325-0.1721148,15.8182373,0.0474189,23.7272339,0.0364117c0.9124146-0.0012699,1.828537,0.1745476,2.7369385,0.3088157
		c2.2481232,0.3322868,4.1498718,1.1915945,5.5701447,3.1200867c1.2012482,1.6310925,2.6129456,3.1247706,4.4388733,4.1271968
		c1.6919098,0.471427,2.2952423,2.5105734,1.6758423,4.7444525c-1.1704712,4.2214594-3.5445099,7.6803942-6.6416321,10.6471872
		c-2.7457275,2.6302032-5.8013458,4.901825-9.102417,6.8089809c-4.071167,2.3520851-8.275322,4.4175797-12.9284058,5.3568268
		c-1.3970337,0.2819939-2.8357468,0.3577576-4.2551422,0.5281792c0.4981537-1.1476097,1.3241119-2.0655403,2.1212082-3.0007629
		c2.248703-2.6383533,4.9448166-4.810585,7.4805527-7.1498508c2.1459198-1.6623211,4.2819366-3.3376217,6.4404297-4.9834862
		c2.3928833-1.8246021,4.613205-3.8312626,6.5503387-6.1364632c1.4909515-1.7742386,2.8118591-3.6581097,3.6612091-5.995595
		c-2.0445251,0.171031-3.9476471,0.3502245-5.8538818,0.4858913c-5.379715,0.3828773-10.7599411,0.7590189-16.1413651,1.1168623
		c-5.5895386,0.3716831-11.1788406,0.4153547-16.7722015,0.018959c-7.1327515-0.5054932-14.2606812-1.060936-21.3717041-1.816123
		c-0.7256699-0.0770664-0.9726028,0.1089544-0.6669846,0.8316221c0.5152588,1.2184,1.1261597,2.3757296,1.9132462,3.447176
		c3.9235382,5.3410435,9.441452,8.9155712,14.4462357,13.0588207
		C103.0251312,29.3774452,106.5169296,32.3125954,109.2357025,36.010788z"></path>
</g>
<g onclick="select(this)" class="" id="detalhe-lateral" fill="#bf0811">
	<path d="M180.2269135,284.0597229c-0.3938904-5.0127869-0.5727386-10.0362244-0.8100586-15.0577393
		c-0.2825012-5.9776611-0.5378265-11.9543762-0.7411346-17.9355164c-0.16539-4.8657379-0.3150482-9.7320404-0.4851685-14.5971527
		c-0.2554321-7.3048401-0.3230286-14.6119232-0.5149536-21.9160767c-0.447403-17.0265503-0.1677856-34.0520935-0.154068-51.0777588
		c0.003891-4.8250732,0.1699982-9.6584778,0.4935455-14.4725037c0.3222656-4.7945404,0.6694794-9.5894775,1.1400909-14.3773651
		c0.9476166-9.6400223,2.5230103-19.1615753,4.9313965-28.5371017c1.2419891-4.8348846,2.7194824-9.608345,4.761322-14.1821594
		c0.1013336-0.2270126,0.0921478-0.5706024,0.4303741-0.6598129l-0.0207367-0.0194397
		c0.2196198,0.4597931-0.0706177,0.8524323-0.1864014,1.2576141c-1.8860779,6.6003571-3.1680145,13.3224182-4.0814209,20.1194611
		c-0.4263916,2.5465698-0.425705,5.1188278-0.4629211,7.6888046c-1.2378235,10.3071976-2.2989502,20.6279068-1.9510345,31.0315781
		c0.0821381,2.4562225,0.7914734,4.8716736,0.4144745,7.3700104c-0.3516388,2.3302612-0.4446106,4.6849518-0.4245453,7.0450592
		c0.0559845,6.5824432,0.0985718,13.1757202-0.1155396,19.7438965c-0.1456757,4.4695282,0.7072906,8.6924286,1.4236298,12.9963684
		c0.8506927,5.1109467,0.9480896,10.2349701,0.2398224,15.3761597c-0.3209076,2.3293762-0.5404053,4.6726379-0.8144379,7.0085907
		c-0.0490723,0.4182129,0.1008759,0.7893066,0.2301788,1.1618195c1.9895477,5.7316895,2.4832916,11.6064911,1.5848999,17.5875244
		c-0.3058319,2.035965-0.3425293,4.0207977,0.0992126,6.0381927c0.445755,2.0356598,0.5504913,4.1139679,0.510025,6.1976776
		c-0.1430969,7.3665771,0.683609,14.670929,1.384079,21.9852905c0.2195892,2.2928162,0.3340759,4.5978088,0.3144989,6.9078064
		c-0.0094299,1.112793-0.4973297,1.8139954-1.5031128,2.1914368
		C184.0845947,283.6226501,182.1964874,284.0495911,180.2269135,284.0597229z"></path>
	<path d="M42.3625145,112.8678589c0.0891304-1.9299088-0.3513565-3.8075256-0.5991211-5.7007065
		c-0.3732796-2.8522263-0.8833809-5.6866074-1.2544365-8.5390854c-0.0882454-0.67836-0.8202057-1.2395554-0.2923431-2.1296234
		c0.9014931,1.876564,1.3568306,3.8127899,1.9383469,5.6982117c1.892025,6.1343918,3.1134682,12.4155045,4.1846809,18.739357
		c0.7700386,4.5458755,1.3809853,9.1006393,1.8283081,13.6878281c0.409111,4.1953125,0.7145462,8.3927002,0.9685097,12.6003571
		c1.2914009,21.395874,0.6496124,42.8105774,0.6577225,64.2175293c0.0015144,3.9884033-0.0966606,7.98703-0.1893997,11.9799347
		c-0.1455345,6.2663574-0.2806168,12.5340118-0.535202,18.7964325c-0.1799202,4.425705-0.3308334,8.8512726-0.473175,13.2781219
		c-0.1807213,5.6206055-0.3782196,11.2443237-0.7604179,16.8535767c-0.2574959,3.7790527-0.196804,7.579834-0.7390556,11.3394775
		c-1.7242279-0.0837708-3.3719635-0.5368042-4.9835625-1.1030884c-1.6184654-0.5686951-2.0121346-1.1141663-1.9840698-2.8423157
		c0.0452156-2.7842407,0.1874161-5.5641479,0.4140472-8.3428955c0.431675-5.2928772,0.7171974-10.5978699,1.1692505-15.8888245
		c0.4074936-4.7694855-0.0650482-9.5927887,0.9218788-14.3255005c0.1883888-0.9033966,0.0964546-1.8375549-0.042675-2.7447662
		c-0.4781952-3.1182098-0.3503647-6.2133179,0.3311234-9.2835846c0.1949081-0.8781128,0.1388702-1.7289124,0.0771484-2.6109009
		c-0.2841988-4.0611267-0.8382988-8.10112-0.8580627-12.1838837c-0.0239258-4.942688,1.0864563-9.6556396,2.7438126-14.2636871
		c0.3171997-0.881958,0.5332336-1.727066,0.4237556-2.675354c-0.1839256-1.5931854-0.141243-3.1873474,0.1506195-4.7743683
		c0.1077042-0.5856323,0.1623573-1.1927948,0.1462173-1.7875671c-0.1308823-4.8229218-0.2779045-9.6454163-0.4356956-14.4675446
		c-0.0367355-1.1227112,0.0765038-2.2321014,0.1623611-3.3472595c0.144268-1.8738403,0.1034241-3.7475891-0.048111-5.6235352
		c-0.4092598-5.0663605-0.1779556-10.145752-0.0681305-15.2097778c0.196312-9.0511017-0.2082138-18.0476379-1.5041733-27.0064316
		c-0.2226868-1.5393982-0.3748512-3.0890045-0.5595245-4.6338654c0.5152626-1.2158508-0.2161751-2.3334808-0.3642349-3.4790726
		C42.6069794,115.6873474,42.842926,114.2376175,42.3625145,112.8678589z"></path>
</g>
<g onclick="select(this)" class="" id="detalhe-punho" fill="#bf0811">
	<path d="M0.15,114.504364c0.5066518-1.0333099,0.4623487-2.1854019,0.7029477-3.2761536
		c0.1164827-0.5280762,0.0638708-1.1035385,0.4705237-1.5418396c4.7471161,1.9191971,9.661128,3.2643356,14.7394009,3.8523865
		c5.6213531,0.6509247,11.2752342,0.8683624,16.9397678,0.6843262c2.350296-0.0763626,4.6895752-0.1641159,7.0189934-0.5657349
		c0.8487549-0.1463318,1.4449158-0.8912659,2.3408813-0.7894897c0.4804115,1.3697586,0.2444649,2.8194885,0.4263916,4.2271881
		c0.1480598,1.1455917,0.8794975,2.2632217,0.3643112,3.4790955c-2.841095,1.3330917-5.9081955,1.738266-8.9673958,1.7949524
		c-7.0645809,0.130928-14.1399384,0.3043518-21.1575737-0.9066315c-3.6142483-0.6236801-7.2130723-1.2875977-10.7040234-2.430397
		c-0.7462479-0.2443085-1.4505817-0.6164932-2.1742244-0.9297714C0.15,116.9029846,0.15,115.7036743,0.15,114.504364z"></path>
	<path d="M184.5267792,120.2929764c0.0372162-2.5699768,0.0365295-5.1422348,0.4629211-7.6888046
		c0.9396362,0.5695953,1.9786835,0.9036407,3.0544586,0.9563065c5.6075287,0.2745056,11.228775,0.5989304,16.8232422-0.0108337
		c3.9904785-0.4349442,7.9450073-1.1610336,11.8859406-1.993576c3.0928497-0.6533737,6.0008392-1.8692627,9.0736084-2.5406418
		c0.6487885-0.1417542,1.2501221-0.500351,1.8733063-0.7590942c1.0290527,2.4653549,1.3149261,5.0500031,1.1316986,7.6846619
		c-0.0435181,0.6258698-0.7669983,0.7556763-1.2712555,0.9429016c-3.2154999,1.1938477-6.527771,2.0655441-9.8517761,2.8920898
		c-8.3978119,2.0882339-16.9433594,2.4642563-25.539505,2.1048508c-1.8251953-0.0763092-3.6426392-0.4177322-5.4543915-0.6971664
		C185.9330597,121.0630646,185.1717224,120.7966843,184.5267792,120.2929764z"></path>
</g>
<g onclick="select(this)" class="" id="gola-secundaria" fill="#bf0811">
	<path d="M127.4529114,26.2913437c-2.5357361,2.3392677-5.2318497,4.5114994-7.4805527,7.1498528
		c-0.7970963,0.9352226-1.6230545,1.8531532-2.1212082,3.0007591c-2.3132095,0.5602531-4.6457596,0.380825-6.9806442,0.1973152
		c-0.616066-0.0484238-1.1409073-0.2847061-1.6344376-0.6280861c-2.7191391-3.6985893-6.2109375-6.6337395-9.5777588-9.6924362
		c2.8338852-0.0287628,5.6676941-0.0822182,8.5014801-0.0807171
		C114.5908356,26.2414379,121.0218735,26.2718868,127.4529114,26.2913437z"></path>
</g>
<path d="M44.6800003,112.1299973c0.0699997,0.0699997,0.1300011,0.1299973,0.2000008,0.1999969
	C44.8100014,112.2699966,44.7400017,112.1999969,44.6800003,112.1299973z"></path>
<g onclick="select(this)" class="" id="estampa-secundaria" fill="#bf0811">
	<path d="M121.0699997,286.2426758c-0.3099976,0.0700073-0.6200027,0.1900024-0.9199982,0.1900024
		c-4.6999969,0.0400085-9.409996,0.1499939-14.0999985-0.2799988c-6.2200012-3.75-12.4400024-7.5-18.6600037-11.2600098
		c-12.8799973-7.7900085-25.75-15.5799866-38.6199989-23.3800049c-0.1500015-0.8099976,0.1500015-1.5800018,0.1699982-2.3800049
		c0.1800003-6.2599945,0.3499985-12.5099945,0.5200005-18.7700043c0.0999985-3.7100067,0.1899986-7.4100037,0.2900009-11.1199951
		c0.3899994,0.1999969,0.7900009,0.3800049,1.1599998,0.6100006c20.5699959,13,41.1499977,26.0099945,61.7099953,39.0299988
		c0.5899963,0.3699951,1.0100021,0.5299988,1.6999969,0.0899963c18.2899933-11.6000061,36.5999908-23.1900024,54.9199982-34.7400055
		c2.8300018-1.7899933,5.5800018-3.7299957,8.5599976-5.2799988c0.1000061,4.1499939,0.1900024,8.3000031,0.2899933,12.4400024
		c0.0200043,1,0.0200043,2,0.0599976,2.9900055c0.2100067,5.6199951,0.4199982,11.2299957,0.6399994,16.8500061
		c-0.25,0.1300049-0.5,0.2599945-0.7400055,0.3999939c-15.4100037,9.3399963-30.8300018,18.6700134-46.2400055,28.019989
		C128.1999969,281.8326721,124.6399994,284.0526733,121.0699997,286.2426758z"></path>
	<path d="M179.0200043,260.6226807c0.2599945,5.2600098,0.4499969,10.519989,0.8300018,15.7600098
		c0.1900024,2.5799866,0.0399933,5.2000122,0.6100006,7.75c-4.4700012,0.6000061-8.9700012,0.9500122-13.4700012,1.1400146
		c-8.5399933,0.3699951-17.0800018,0.3399963-25.6199951,0.5400085c-1,0.019989-1.9900055,0.0400085-2.9900055,0.0700073
		c0.3300018-0.230011,0.6499939-0.4700012,0.9799957-0.6799927c6.8800049-4.2799988,13.75-8.5599976,20.6300049-12.8299866
		C166.3200073,268.4526672,172.6699982,264.5426636,179.0200043,260.6226807z"></path>
	<path d="M47.0200005,283.6026917c0.7299995-2.1600037,0.4599991-4.4200134,0.6300011-6.6300049
		c0.3400002-4.3699951,0.3899994-8.769989,0.5900002-13.1600037c0.0400009-0.9599915,0.1699982-1.9100037,0.2599983-2.8599854
		c0.3199997,0.1600037,0.6500015,0.2999878,0.9500008,0.4899902c9.2599983,5.75,18.5300026,11.5,27.7800026,17.2600098
		c3.6900024,2.2999878,7.3600006,4.6400146,11.0400009,6.9599915c-6.8600006-0.0899963-13.7299957-0.1400146-20.5899963-0.2799988
		c-5.6699982-0.1199951-11.3300018-0.3800049-16.9500008-1.1199951
		C49.4900017,284.1026917,48.2099991,284.0826721,47.0200005,283.6026917z"></path>
	<path d="M177.5399933,207.3526764c-2.7899933,2.0800018-5.7799988,3.8399963-8.7100067,5.7200012
		c-13.1100006,8.4199982-26.25,16.8000031-39.3899994,25.1800079c-4.8499985,3.0899963-9.75,6.1199951-14.5899963,9.2200012
		c-0.9899979,0.6300049-1.7799988,0.5599976-2.7399979-0.0599976
		c-20.0299988-12.8000031-40.0800018-25.5800018-60.1300011-38.3600006c-0.6699982-0.4299927-1.3400002-0.8699951-2-1.3099976
		c0-9.7400055,0-19.4900055,0-29.2299957c0.3899994,0,0.6699982,0.2400055,0.9799995,0.4199982
		c2.4500008,1.4199982,4.9099998,2.8399963,7.3600006,4.2700043c18.0200043,10.5099945,36.0599976,20.9799957,54.1999969,31.2900085
		c0.7099991,0.3999939,1.2099991,0.4499969,1.9499969,0.0200043c18.9900055-10.9900055,37.9900055-21.9600067,57-32.9000092
		c2-1.1499939,3.9100037-2.4799957,6.0599976-3.3600006C177.5399933,187.9526825,177.5399933,197.6526794,177.5399933,207.3526764z"></path>
	<path d="M49.9799995,164.9926758c-0.0699997-2.5099945-0.3300018-5.0099945-0.2900009-7.5299988
		c0.0400009-3.3399963-0.1800003-6.6799927-0.4700012-10.0099945c-0.0400009-0.4700012,0.0200005-0.9600067,0.0299988-1.4299927
		c3.4000015,1.8600006,6.8100014,3.6900024,10.2000008,5.5700073c17.6600037,9.7700043,35.3099976,19.5500031,52.9599991,29.3500061
		c0.7900009,0.4400024,1.3899994,0.4799957,2.1900024,0.0299988c5.5100021-3.0899963,11.0500031-6.1199951,16.5699997-9.1800079
		c10.7700043-5.9600067,21.5299988-11.9400024,32.3000031-17.8999939c4.9299927-2.7299957,9.8800049-5.4299927,14.8099976-8.1399994
		c-0.1300049,2.6199951-0.2599945,5.2400055-0.3800049,7.8600006c-0.0299988,0.7200012-0.0800018,1.4400024-0.0700073,2.1499939
		c0.0500031,2.9600067-0.0700073,5.9100037-0.2799988,8.8500061c-0.6300049,0.4199982-1.25,0.8600006-1.8899994,1.2599945
		c-6.3999939,4.0200043-12.8099976,8.0299988-19.2100067,12.0399933
		c-13.7899933,8.6399994-27.5800018,17.2799988-41.3499985,25.9499969c-1.1399994,0.7200012-1.9899979,0.7299957-3.1399994,0
		c-6.840004-4.3699951-13.7300034-8.6499939-20.6100006-12.9600067
		C77.5599976,182.2726746,63.7700005,173.6326752,49.9799995,164.9926758z"></path>
	<path d="M44.8600006,111.7626724c0.4399986-0.1399994,0.7700005,0.1600037,1.1100006,0.3300018
		C61.75,119.7626724,77.5200043,127.4326706,93.3000031,135.1026764c6.4700012,3.1399994,12.9499969,6.2599945,19.4100037,9.4300079
		c0.6200027,0.3000031,1.0800018,0.2599945,1.6699982-0.0299988c8.2200012-4.0099945,16.4599915-8.0099945,24.6900024-12
		c14.3800049-6.980011,28.75-13.9700089,43.1300049-20.9500046c0.2100067-0.0999985,0.4400024-0.1699982,0.6699982-0.25
		c-1.0700073,5.5100021-2.1300049,11.0299988-2.8200073,16.6100006c-0.0500031,0.390007-0.1900024,0.7800064-0.2799988,1.1600113
		c-13.1800079,7.3699951-26.3699951,14.7299957-39.5500031,22.1000061
		c-8.2700043,4.6199951-16.5400009,9.2299957-24.7700043,13.8999939c-1.3300018,0.75-2.4199982,0.8699951-3.7600021,0.0200043
		c-1.9499969-1.2400055-4.0299988-2.2899933-6.0500031-3.4199982
		c-19.2799988-10.7799988-38.5699997-21.5700073-57.8499985-32.3500061
		c-0.7700005-4.8000107-1.4000015-9.640007-2.4500008-14.390007C45.0900002,113.872673,44.9599991,112.82267,44.8600006,111.7626724
		z"></path>
	<path d="M33.3499985,76.622673C38.4199982,78.6126709,43.25,80.5126724,48.079998,82.412674
		c18.1499977,7.1399994,36.2999992,14.2799988,54.4500008,21.4199982c3.4199982,1.3499985,6.8399963,2.6900024,10.25,4.0699997
		c0.5299988,0.2099991,0.9599991,0.1999969,1.4899979-0.0100021c25.4300003-10.0299988,50.8700027-20.0499954,76.3000107-30.0599976
		c1-0.4000015,2.0200043-0.7600021,3.0200043-1.1699982c0.5800018-0.2399979,0.8600006-0.1500015,0.7200012,0.5199966
		c-0.8099976,3.7099991-1.7400055,7.3799973-3.6799927,10.6999969c-0.3000031,0.5100021-0.7799988,0.6600037-1.2400055,0.8700027
		c-10.3600006,4.8499985-20.7200012,9.6800003-31.0800018,14.5199966
		c-14.4900055,6.7699966-28.9799957,13.5400009-43.4499969,20.3300018
		c-0.9599991,0.4499969-1.7699966,0.4199982-2.7200012-0.0299988c-15.7399979-7.3899994-31.5-14.75-47.25-22.1100006
		c-8.4700012-3.9599991-16.9400024-7.9400024-25.4400024-11.8600006c-0.9900017-0.4599991-1.5099983-1.0800018-1.9300003-2.0699997
		c-1.1800003-2.7900009-1.9000015-5.7600021-3.4099998-8.4199982C33.7200012,78.4326706,33.5,77.662674,33.3499985,76.622673z"></path>
</g>
<path d="M189.278244,91.2465363c0.0375671-0.1338348,0.0751343-0.2676697,0.1127014-0.4015045
	c0.0261383,0.028389,0.072525,0.0551605,0.0749359,0.0854416c0.0121613,0.1519699,0.0203857,0.3102493-0.2082977,0.296669
	C189.2575226,91.2270966,189.2782593,91.2465363,189.278244,91.2465363z"></path>
</svg>
