<!--?xml version="1.0" encoding="utf-8"?-->
<!-- Generator: Adobe Illustrator 24.2.3, SVG Export Plug-In . SVG Version: 6.00 Build 0)  -->
<svg version="1.1" id="Camada_1" xmlns="http://www.w3.org/2000/svg" xmlns:xlink="http://www.w3.org/1999/xlink" x="0px" y="0px" viewBox="0 0 229 418" enable-background="new 0 0 229 418" xml:space="preserve">
<g onclick="select(this)" class="" id="gola-secundaria" fill="#000000">
	<path d="M115.48,49.66c-0.33,0-0.65-0.01-0.98-0.01c-0.33-0.52-0.21-1.05-0.08-1.6c0.91-3.91,2.56-7.49,4.77-10.82
		c3.17-3.66,6.59-7.07,9.97-10.53c3.78-3.87,7.37-7.89,10.04-12.63c0.82-1.46,1.73-2.87,2.19-4.51c0.61-1.28,0.94-2.62,0.95-4.04
		c0.01-1.01-0.46-1.67-1.4-2c-1.06-0.38-2.16-0.59-3.28-0.59c-15.68-0.01-31.36-0.01-47.04,0c-1.09,0-2.15,0.21-3.18,0.54
		C86.4,3.77,85.86,4.47,85.9,5.6c0.05,1.29,0.23,2.54,0.78,3.72c0.14,0.41,0.24,0.85,0.44,1.23c2.03,3.91,4.29,7.69,7.21,11.01
		c4.73,5.37,9.95,10.28,14.68,15.66c0.14,0.24,0.25,0.49,0.41,0.72c2.15,3.11,3.55,6.55,4.44,10.21c0.13,0.52,0.18,1.01-0.1,1.49
		c-0.33,0-0.66,0-0.99,0.01c-0.52-0.19-1.05-0.39-1.57-0.58c0.25-0.18,0.18-0.41,0.11-0.65c-1.08-3.88-2.57-7.57-5.23-10.66
		c-2.92-3.39-6.08-6.55-9.22-9.74c-4.08-4.14-7.79-8.55-10.64-13.65c-1.72-3.07-2.99-6.25-2.96-9.83c0.36-1.97,2.33-3.52,4.87-3.84
		c0.55-0.07,1.1-0.16,1.64-0.24c9.12,0.01,18.24,0.02,27.36,0.02c7.12,0,14.24-0.01,21.36-0.02c0.78,0.13,1.55,0.24,2.33,0.39
		c1.68,0.31,2.97,1.21,3.88,2.65c0.62,2.92-0.1,5.65-1.34,8.24c-2.2,4.6-4.99,8.82-8.48,12.56c-4.18,4.46-8.46,8.82-12.54,13.37
		c-2.9,3.24-4.58,7.17-5.48,11.42C116.39,49.27,115.94,49.46,115.48,49.66z"></path>
</g>
<g onclick="select(this)" class="" id="detalhe-punho" fill="#000000">
	<path d="M185.1,120.37c-0.24-2.3,0.52-4.5,0.72-6.76c0.04-0.49,0.25-0.45,0.63-0.37
		c5.72,1.23,11.54,0.87,17.31,0.75c5.19-0.1,10.27-1.3,15.31-2.55c2.72-0.67,5.39-1.49,8.04-2.38c0.41-0.14,0.86-0.22,1.16-0.58
		c0.12,0.15,0.33,0.28,0.35,0.44c0.25,2.13,0.85,4.21,0.86,6.39c0.01,1.02-0.45,1.44-1.26,1.73c-2.92,1.07-5.93,1.9-8.94,2.67
		c-8.69,2.23-17.54,2.81-26.47,2.34c-2.06-0.11-4.14-0.31-6.15-0.87C186.07,121.04,185.51,120.85,185.1,120.37z"></path>
	<path d="M1.9,110.06c0.71,0.57,1.55,0.84,2.41,1.02c4.48,0.98,8.96,1.97,13.47,2.86c1.32,0.26,2.7,0.28,4.06,0.3
		c4.07,0.06,8.14,0.34,12.22,0.32c2.83-0.01,5.56-0.15,8.18-1.27c0.21-0.09,0.48-0.29,0.55,0.1c0.45,2.42,1.13,4.81,0.88,7.31
		c-2.62,1.38-5.53,1.64-8.38,1.79c-10.39,0.54-20.7-0.02-30.79-2.82c-0.96-0.27-1.9-0.63-2.83-0.99c-0.59-0.23-1.01-0.62-0.93-1.36
		c0.27-2.34,0.52-4.67,0.8-7.01C1.55,110.23,1.77,110.15,1.9,110.06z"></path>
</g>
<g onclick="select(this)" class="" id="estampa-secundaria" fill="#000000">
	<path d="M115.51,286.76c-0.01-0.56-0.02-1.12-0.02-1.68c0-38.59,0-77.18-0.02-115.77c0-1.03,0.09-1.34,1.25-1.06
		c5.04,1.21,10.11,2.34,15.18,3.44c0.87,0.19,1.14,0.49,1.13,1.39c-0.04,7.52-0.02,15.04-0.02,22.55c0,29.71,0,59.42,0,89.14
		c0,0.52-0.02,1.04-0.03,1.56C127.16,286.47,121.33,286.61,115.51,286.76z"></path>
	<path d="M95.28,286.08c-0.02-0.52-0.04-1.04-0.04-1.56c0-37.12,0-74.24-0.03-111.36c0-1.12,0.34-1.47,1.38-1.69
		c5.12-1.08,10.22-2.23,15.32-3.39c0.73-0.17,0.94,0.02,0.86,0.72c-0.04,0.36-0.01,0.72-0.01,1.08c0,38.36,0,76.72,0,115.08
		c0,0.6-0.02,1.2-0.04,1.8C106.91,286.53,101.09,286.3,95.28,286.08z"></path>
	<path d="M170.47,285.32c-0.01-0.44-0.03-0.88-0.03-1.32c0-34.63,0-69.27,0-103.9c0-0.32,0-0.63,0-1.04
		c2.07,0.57,4.07,1.13,6.06,1.67c0.37,0.1,0.55,0.26,0.52,0.66c-0.03,0.36-0.01,0.72-0.01,1.08c0,33.55,0,67.11,0,100.66
		c0,0.56-0.01,1.12-0.01,1.68C174.83,285.1,172.66,285.33,170.47,285.32z"></path>
	<path d="M51.1,284.41c0.01-0.44,0.02-0.88,0.02-1.32c0-33.67,0.01-67.33-0.02-101c0-0.93,0.24-1.31,1.15-1.52
		c1.82-0.42,3.61-0.97,5.4-1.46c0.28,0.2,0.17,0.45,0.17,0.67c0,34.78,0,69.57,0,104.35c0,0.32-0.02,0.64-0.03,0.96
		C55.54,285.05,53.3,284.91,51.1,284.41z"></path>
	<path d="M179.6,284.59c-0.03-0.4-0.08-0.8-0.08-1.19c0-33.58,0-67.16,0-100.74c0-0.32,0-0.63,0-1.06
		c1.23,0.33,2.38,0.63,3.53,0.93c0.02,0.92,0.15,1.85,0.03,2.75c-0.48,3.7-0.02,7.31,0.79,10.92c1.44,6.43,1.47,12.91,0.57,19.42
		c-0.23,1.7-0.4,3.41-0.59,5.12c-0.05,0.47-0.07,0.95,0.1,1.42c2.18,6.21,2.51,12.57,1.46,19.03c-0.19,1.2-0.22,2.37,0.06,3.56
		c0.95,4.06,0.6,8.19,0.68,12.3c0.02,1.04,0.07,2.08,0.1,3.11c-0.01,7.68-0.02,15.36-0.03,23.04
		C184.13,284.12,181.83,284.18,179.6,284.59z"></path>
	<path d="M46.07,182.17c0.12,0.01,0.24,0.04,0.35,0.02c0.69-0.15,1.68-0.66,2.01-0.38c0.5,0.42,0.17,1.41,0.17,2.15
		c0.01,33.38,0.01,66.77,0.01,100.15c-2.28-0.24-4.54-0.58-6.62-1.62c-0.01-6.96-0.02-13.92-0.02-20.88
		c0.17-4.71,0.41-9.42,0.72-14.11c0.31-4.66,0.55-9.29,0.28-13.95c-0.01-0.2-0.02-0.41,0.03-0.6c1.22-4.64,0.38-9.29-0.06-13.92
		c-0.62-6.54,0.38-12.81,2.68-18.92c0.31-0.81,0.43-1.59,0.32-2.45c-0.18-1.43-0.15-2.86,0.09-4.3c0.24-1.49,0.28-2.94-0.08-4.47
		c-0.3-1.31-0.36-2.77,0.13-4.12c0.11-0.31-0.03-0.51-0.1-0.78C45.84,183.39,45.66,182.76,46.07,182.17z"></path>
	<path d="M95.33,38.25c1.74,1.65,3.45,3.34,5.24,4.93c3.1,2.74,6.75,4.52,10.62,5.89c0.52,0.19,1.05,0.39,1.57,0.58
		c0,27.11,0,54.22,0,81.44c-2.36-0.51-4.61-1-6.87-1.49c-3.27-0.72-6.54-1.47-9.82-2.17c-0.63-0.13-0.92-0.36-0.84-1.01
		c0.04-0.31,0.01-0.64,0.01-0.96c0-28.55,0-57.11,0-85.66C95.24,39.29,95.3,38.77,95.33,38.25z"></path>
	<path d="M116.85,49.08c5.38-1.7,10.01-4.6,13.92-8.65c0.69-0.71,1.44-1.36,2.17-2.04c0.02,0.48,0.07,0.96,0.07,1.43
		c0,28.64,0,57.28,0.02,85.92c0,0.99-0.21,1.43-1.26,1.66c-5.04,1.07-10.06,2.21-15.08,3.39c-0.96,0.23-1.23,0.14-1.23-0.96
		c0.03-26.72,0.02-53.44,0.02-80.16C115.94,49.46,116.39,49.27,116.85,49.08z"></path>
	<path d="M57.81,33.41c0,0.62,0,1.06,0,1.5c0,26.92-0.01,53.84,0.03,80.75c0,1.06-0.2,1.27-1.2,0.94
		c-1.55-0.51-3.14-0.94-4.73-1.32c-0.63-0.15-0.88-0.42-0.79-1.05c0.04-0.27,0.01-0.56,0.01-0.84c0-25.52,0.01-51.04-0.03-76.55
		c0-1.11,0.34-1.51,1.34-1.77C54.21,34.61,55.94,34,57.81,33.41z"></path>
	<path d="M170.47,116.88c0-27.68,0-55.26,0-82.98c2.05,0.67,4.07,1.33,6.1,1.97c0.38,0.12,0.47,0.37,0.44,0.73
		c-0.02,0.32,0,0.64,0,0.96c0,25.47-0.01,50.93,0.02,76.4c0,0.89-0.24,1.25-1.1,1.45C174.12,115.84,172.33,116.37,170.47,116.88z"></path>
	<path d="M48.61,75.37c0,12.59-0.01,25.18,0.02,37.78c0,0.93-0.11,1.29-1.14,0.92c-1.16-0.42-2.37-0.74-3.58-0.99
		c-0.78-0.16-0.99-0.58-1.09-1.3c-0.57-4.12-0.85-8.25-0.84-12.42c0.06-20.03,0.03-40.05,0-60.08c0-1.05,0.19-1.57,1.31-1.77
		c1.52-0.27,3.03-0.7,4.51-1.15c0.71-0.21,0.86,0,0.81,0.63c-0.02,0.24,0,0.48,0,0.72C48.61,50.26,48.61,62.82,48.61,75.37z"></path>
	<path d="M179.52,36.74c2.01,0.53,3.87,1.09,5.77,1.51c0.82,0.18,0.95,0.55,0.95,1.3
		c-0.03,6.36-0.02,12.71-0.02,19.07c0,16.19-0.01,32.38,0.01,48.58c0,1.69-0.42,3.33-0.58,5c-0.03,0.35-0.16,0.56-0.55,0.66
		c-1.66,0.44-3.31,0.9-4.96,1.37c-0.47,0.13-0.68,0.03-0.62-0.48c0.02-0.16,0-0.32,0-0.48c0-25.19,0-50.38,0-75.56
		C179.52,37.42,179.52,37.14,179.52,36.74z"></path>
</g>
<g onclick="select(this)" class="" id="gola-terciaria" fill="#ffffff">
	<path d="M119.19,37.22c-2.21,3.33-3.86,6.91-4.77,10.82c-0.13,0.56-0.24,1.08,0.08,1.6c-0.25,0-0.5,0-0.75,0
		c0.29-0.48,0.23-0.97,0.1-1.49c-0.89-3.66-2.28-7.1-4.44-10.21c-0.16-0.23-0.27-0.48-0.41-0.72
		C112.4,37.22,115.8,37.22,119.19,37.22z"></path>
</g>
<g onclick="select(this)" class="" id="estampa-primaria" fill="#ffff00">
	<path d="M170.47,285.32c-4.36,0.4-8.74,0.48-13.12,0.53c-5.74,0.05-11.48,0.06-17.21,0.29
		c-2.39,0.1-4.77,0.12-7.16,0.19c0.01-0.52,0.03-1.04,0.03-1.56c0-29.71,0-59.42,0-89.14c0-7.52-0.02-15.04,0.02-22.55
		c0-0.9-0.26-1.21-1.13-1.39c-5.07-1.1-10.14-2.22-15.18-3.44c-1.16-0.28-1.25,0.03-1.25,1.06c0.03,38.59,0.02,77.18,0.02,115.77
		c0,0.56,0.02,1.12,0.02,1.68c-0.93,0-1.86,0-2.79-0.01c0.01-0.6,0.04-1.2,0.04-1.8c0-38.36,0-76.72,0-115.08
		c0-0.36-0.03-0.72,0.01-1.08c0.08-0.7-0.13-0.88-0.86-0.72c-5.1,1.16-10.2,2.31-15.32,3.39c-1.04,0.22-1.38,0.57-1.38,1.69
		c0.04,37.12,0.03,74.24,0.03,111.36c0,0.52,0.03,1.04,0.04,1.56c-7.94-0.02-15.87-0.24-23.8-0.31c-4.05-0.04-8.11-0.14-12.16-0.43
		c-0.51-0.04-1.02-0.17-1.53-0.25c0.01-0.32,0.03-0.64,0.03-0.96c0-34.78,0-69.57,0-104.35c0-0.21,0.12-0.47-0.17-0.67
		c-1.79,0.49-3.58,1.05-5.4,1.46c-0.91,0.21-1.15,0.59-1.15,1.52c0.03,33.67,0.03,67.33,0.02,101c0,0.44-0.01,0.88-0.02,1.32
		c-0.85,0.01-1.69,0.01-2.49-0.31c0-33.38,0-66.77-0.01-100.15c0-0.74,0.33-1.73-0.17-2.15c-0.33-0.28-1.31,0.24-2.01,0.38
		c-0.11,0.02-0.23-0.01-0.35-0.02c-0.27-2.02-0.18-4.06-0.25-6.09c-0.04-1.21,0.29-2.38,0.25-3.57
		c-0.43-11.26-0.05-22.52-0.29-33.78c-0.07-3.36-0.56-6.72-1.06-10.06c-0.35-2.31-0.53-4.65-0.79-6.98
		c-0.04-0.34,0.09-0.73-0.27-0.99c0.25-2.5-0.43-4.89-0.88-7.31c-0.07-0.39-0.34-0.19-0.55-0.1c-2.62,1.12-5.35,1.26-8.18,1.27
		c-4.08,0.02-8.15-0.27-12.22-0.32c-1.35-0.02-2.73-0.04-4.06-0.3c-4.5-0.89-8.98-1.88-13.47-2.86c-0.86-0.19-1.7-0.46-2.41-1.02
		c0.36-2.19,0.76-4.38,1.08-6.58c0.47-3.22,0.89-6.45,1.34-9.68c0.5-3.54,1.01-7.08,1.51-10.62c0.39-2.75,0.8-5.5,1.11-8.26
		c0.58-5.11,1.57-10.14,2.99-15.08c1.49-5.17,3.64-10.05,6.62-14.54c2.53-3.8,5.54-7.19,9.19-9.99c1.23-0.94,2.15-2.23,3.48-3.1
		c0.89-0.58,1.89-0.81,2.8-1.29c7.29-3.83,15.08-6.53,22.58-9.88c6.16-2.76,12.23-5.7,18.05-9.13c0.95-0.56,1.64-1.39,2.42-2.13
		c1.11-1.05,2.33-1.82,3.96-1.55c-2.25,1.19-2.74,2.27-2.2,4.77c0.35,1.61,0.92,3.12,1.81,4.51c2.49,3.91,5.31,7.57,8.09,11.26
		c2.57,3.42,5.67,6.38,8.6,9.49c-0.03,0.52-0.09,1.03-0.09,1.55c0,28.55,0,57.11,0,85.66c0,0.32,0.03,0.64-0.01,0.96
		c-0.08,0.66,0.21,0.88,0.84,1.01c3.28,0.69,6.55,1.44,9.82,2.17c2.25,0.5,4.51,0.98,6.87,1.49c0-27.23,0-54.34,0-81.44
		c0.33,0,0.66,0,0.99-0.01c0.25,0,0.5,0,0.75,0c0.33,0,0.65,0.01,0.98,0.01c0,26.72,0.01,53.44-0.02,80.16
		c0,1.1,0.26,1.19,1.23,0.96c5.02-1.17,10.04-2.32,15.08-3.39c1.05-0.22,1.26-0.67,1.26-1.66C133,97.09,133,68.45,133,39.81
		c0-0.48-0.05-0.96-0.07-1.43c5.81-5.6,10.77-11.9,15.32-18.53c1.52-2.21,2.91-4.47,3.47-7.16c0.38-1.83-0.07-3.16-1.61-4.24
		c1.51-0.06,2.63,0.81,3.47,1.83c0.85,1.03,1.92,1.65,2.98,2.33c5.08,3.28,10.61,5.66,16.1,8.15c7.45,3.38,15.21,6.02,22.51,9.72
		c0.78,0.4,1.59,0.76,2.43,1c2.2,0.61,3.49,2.47,5.18,3.75c4.52,3.43,8.3,7.55,11.18,12.48c3.19,5.47,5.18,11.36,6.63,17.49
		c1.32,5.58,1.44,11.36,2.86,16.92c1.81,7.1,3.13,14.28,4.09,21.54c0.21,1.61,0.75,3.18,0.72,4.83c-0.31,0.36-0.75,0.44-1.16,0.58
		c-2.65,0.89-5.32,1.7-8.04,2.38c-5.04,1.25-10.12,2.45-15.31,2.55c-5.77,0.12-11.58,0.48-17.31-0.75
		c-0.38-0.08-0.58-0.12-0.63,0.37c-0.2,2.26-0.96,4.45-0.72,6.76c-0.57,1.16-0.38,2.44-0.48,3.64c-0.42,4.63-1.04,9.24-1.32,13.89
		c-0.13,2.24-0.17,4.47-0.16,6.69c0.02,2.46-0.44,4.91-0.07,7.39c0.16,1.06,0.42,2.11,0.51,3.17c0.17,1.96-0.15,3.9-0.33,5.84
		c-0.03,0.32-0.13,0.63-0.12,0.94c0.16,5.79-0.3,11.58-0.27,17.37c0.01,1.08,0.43,2.12,0.19,3.21c-1.15-0.3-2.29-0.61-3.53-0.93
		c0,0.43,0,0.75,0,1.06c0,33.58,0,67.16,0,100.74c0,0.4,0.05,0.8,0.08,1.19c-0.87,0.07-1.74,0.15-2.61,0.22
		c0-0.56,0.01-1.12,0.01-1.68c0-33.55,0-67.11,0-100.66c0-0.36-0.02-0.72,0.01-1.08c0.03-0.4-0.15-0.56-0.52-0.66
		c-2-0.54-3.99-1.09-6.06-1.67c0,0.41,0,0.73,0,1.04c0,34.63,0,69.27,0,103.9C170.44,284.44,170.46,284.88,170.47,285.32z
		 M57.81,33.41c-1.87,0.59-3.61,1.2-5.38,1.66c-1.01,0.26-1.35,0.67-1.34,1.77c0.04,25.52,0.03,51.04,0.03,76.55
		c0,0.28,0.03,0.56-0.01,0.84c-0.09,0.64,0.16,0.9,0.79,1.05c1.59,0.38,3.17,0.81,4.73,1.32c1,0.33,1.2,0.12,1.2-0.94
		c-0.03-26.92-0.03-53.84-0.03-80.75C57.81,34.47,57.81,34.04,57.81,33.41z M170.47,116.88c1.86-0.51,3.65-1.04,5.46-1.47
		c0.86-0.2,1.1-0.56,1.1-1.45c-0.03-25.47-0.02-50.93-0.02-76.4c0-0.32-0.02-0.64,0-0.96c0.03-0.36-0.07-0.61-0.44-0.73
		c-2.02-0.65-4.04-1.31-6.1-1.97C170.47,61.62,170.47,89.2,170.47,116.88z M48.61,75.37c0-12.55,0-25.1,0-37.66
		c0-0.24-0.02-0.48,0-0.72c0.06-0.64-0.1-0.85-0.81-0.63c-1.49,0.45-2.99,0.87-4.51,1.15c-1.12,0.2-1.31,0.73-1.31,1.77
		c0.03,20.03,0.06,40.05,0,60.08c-0.01,4.17,0.26,8.3,0.84,12.42c0.1,0.72,0.31,1.14,1.09,1.3c1.21,0.25,2.42,0.57,3.58,0.99
		c1.03,0.37,1.15,0.01,1.14-0.92C48.6,100.55,48.61,87.96,48.61,75.37z M179.52,36.74c0,0.4,0,0.68,0,0.96c0,25.19,0,50.38,0,75.56
		c0,0.16,0.02,0.32,0,0.48c-0.06,0.51,0.15,0.62,0.62,0.48c1.65-0.47,3.3-0.94,4.96-1.37c0.39-0.1,0.52-0.32,0.55-0.66
		c0.15-1.67,0.58-3.3,0.58-5c-0.01-16.19-0.01-32.38-0.01-48.58c0-6.36-0.01-12.71,0.02-19.07c0-0.75-0.13-1.12-0.95-1.3
		C183.4,37.83,181.53,37.27,179.52,36.74z"></path>
	<path d="M186.24,283.2c0.01-7.68,0.02-15.36,0.03-23.04c0.45,1.13,0.25,2.34,0.39,3.51
		c0.31,2.67,0.24,5.39,0.59,8.06c0.4,3.07,0.71,6.14,0.68,9.24C187.91,282.17,187.46,282.95,186.24,283.2z"></path>
	<path d="M41.97,261.6c0.01,6.96,0.02,13.92,0.02,20.88c-0.86-0.18-1.18-0.83-1.17-1.58
		c0.01-1.67,0.08-3.34,0.09-5.01c0.01-3.22,0.65-6.37,0.67-9.58C41.58,264.75,41.62,263.15,41.97,261.6z"></path>
	<path d="M119.19,37.22c-3.39,0-6.79,0-10.18,0c-4.72-5.38-9.94-10.29-14.68-15.66c-2.92-3.32-5.18-7.09-7.21-11.01
		c-0.2-0.38-0.29-0.82-0.44-1.23c2.46,0.21,4.93,0.45,7.39,0.64c8.67,0.65,17.33,1.58,26.05,1.02c7.09-0.46,14.17-0.95,21.26-1.42
		c-0.45,1.64-1.37,3.05-2.19,4.51c-2.67,4.75-6.26,8.76-10.04,12.63C125.79,30.15,122.36,33.56,119.19,37.22z"></path>
</g>
<g onclick="select(this)" class="" id="gola-primaria" fill="#ffff00">
	<path d="M116.85,49.08c0.89-4.26,2.57-8.18,5.48-11.42c4.08-4.55,8.36-8.91,12.54-13.37
		c3.49-3.73,6.28-7.96,8.48-12.56c1.24-2.59,1.96-5.32,1.34-8.24c1.37,1.44,2.67,2.95,4.23,4.21c0.37,0.3,0.71,0.64,1.2,0.75
		c1.54,1.08,1.99,2.41,1.61,4.24c-0.56,2.69-1.95,4.95-3.47,7.16c-4.56,6.63-9.51,12.93-15.32,18.53c-0.72,0.68-1.48,1.33-2.17,2.04
		C126.85,44.48,122.23,47.38,116.85,49.08z"></path>
	<path d="M83.25,4.55c-0.03,3.58,1.25,6.76,2.96,9.83c2.85,5.1,6.57,9.5,10.64,13.65c3.13,3.19,6.3,6.35,9.22,9.74
		c2.66,3.09,4.14,6.78,5.23,10.66c0.07,0.23,0.13,0.47-0.11,0.65c-3.87-1.37-7.52-3.15-10.62-5.89c-1.79-1.59-3.5-3.28-5.24-4.93
		c-2.93-3.1-6.02-6.07-8.6-9.49c-2.78-3.69-5.6-7.36-8.09-11.26c-0.89-1.39-1.47-2.9-1.81-4.51c-0.54-2.49-0.05-3.57,2.2-4.77
		c1.21-0.7,2.07-1.78,3.07-2.72C82.46,5.17,82.7,4.66,83.25,4.55z"></path>
	<path d="M141.38,9.54c-7.09,0.48-14.17,0.97-21.26,1.42c-8.72,0.56-17.38-0.36-26.05-1.02
		c-2.47-0.19-4.93-0.42-7.39-0.64c-0.56-1.18-0.73-2.43-0.78-3.72c-0.04-1.12,0.5-1.82,1.54-2.15c1.03-0.33,2.09-0.54,3.18-0.54
		c15.68,0,31.36-0.01,47.04,0c1.12,0,2.22,0.21,3.28,0.59c0.93,0.34,1.41,0.99,1.4,2C142.33,6.93,141.99,8.27,141.38,9.54z"></path>
</g>
</svg>
