<!--?xml version="1.0" encoding="utf-8"?-->
<!-- Generator: Adobe Illustrator 24.2.3, SVG Export Plug-In . SVG Version: 6.00 Build 0)  -->
<svg version="1.1" id="Camada_1" xmlns="http://www.w3.org/2000/svg" xmlns:xlink="http://www.w3.org/1999/xlink" x="0px" y="0px" viewBox="0 0 229 418" style="enable-background:new 0 0 229 418;" xml:space="preserve">
<style type="text/css">
	.st0{fill:#1F49C1;}
	.st1{fill:#FB0101;}
	.st2{fill:#F802E2;}
	.st3{fill:#00FC07;}
	.st4{fill:#D814DC;}
	.st5{fill:#D724D5;}
	.st6{fill:#191C10;}
	.st7{fill:#12140B;}
	.st8{fill:#070908;}
</style>
<g onclick="select(this)" class="" id="gola-secundaria" fill="#021c3b">
	<path d="M116.9,49c-0.8,0.2-1.6,0.8-2.5,0.6c-0.2-0.8,0-1.6,0.2-2.3c0.9-3.6,2.6-6.9,4.5-10.1
		c4.1-4.3,8.1-8.6,12.2-12.8c3.1-3.1,5.7-6.6,7.9-10.4c0.8-1.4,1.8-2.7,2.1-4.4c0.8-1.3,1-2.7,1-4.1c0-1-0.5-1.7-1.4-2
		c-1.1-0.4-2.2-0.6-3.3-0.6c-15.7,0-31.3,0-47,0c-1.2,0-2.4,0.2-3.5,0.7C86.4,3.9,86,4.4,86,5.2c0,1.4,0.1,2.9,0.8,4.2
		c0,0.6,0.3,1.1,0.6,1.6c2.4,4.4,5.1,8.7,8.6,12.4c4.4,4.6,8.9,9.1,13.2,13.9c2.2,3.3,3.9,6.9,4.8,10.8c0.1,0.6,0.2,1.1,0,1.7
		c-0.8,0.1-1.5-0.1-2.2-0.5c-0.1-0.1-0.2-0.2-0.3-0.2c0,0,0,0,0,0c-1-4.6-2.9-8.8-6.2-12.2c-2.7-2.9-5.4-5.8-8.2-8.6
		c-3.8-3.9-7.4-8-10.2-12.8c-2-3.3-3.5-6.8-3.5-10.8c0.4-2,2.3-3.5,4.8-3.8c1.3-0.2,2.6-0.3,3.9-0.3c14.8,0,29.5,0,44.3,0
		c1.7,0,3.4,0.1,5,0.5c1.5,0.4,2.7,1.2,3.3,2.6c0.8,2.8-0.1,5.5-1.2,8c-1.9,4.2-4.4,8.1-7.5,11.5c-4.1,4.5-8.4,8.9-12.6,13.3
		C120,40,117.9,44.2,116.9,49z"></path>
</g>
<g onclick="select(this)" class="" id="detalhe-punho" fill="#021c3b">
	<path d="M43.8,120.6c-1.4,1-3.1,1.2-4.8,1.5c-6.7,0.9-13.5,0.7-20.2,0.2c-5.1-0.4-10.1-1.3-15-2.7
		c-1.1-0.3-2.1-0.8-3.1-1.2c0-1.1,0-2.2,0-3.4c0.5-1,0.4-2.2,0.7-3.2c0.1-0.6,0.1-1.2,0.5-1.7c0.5,0.4,1.1,0.7,1.7,0.8
		c1.7,0.4,3.4,0.9,5.1,1.2c3.7,0.7,7.3,1.9,11.2,2c1.9,0.1,3.7,0.2,5.6,0.3c3.7,0.3,7.4,0.1,11.1,0.2c1.9,0,3.7-0.5,5.5-1.2
		c0.4-0.2,0.7-0.3,0.8,0.3C43.4,115.9,43.9,118.2,43.8,120.6z"></path>
	<path d="M185.2,120.3c-0.2-2.2,0.4-4.4,0.7-6.5c0.1-0.6,0.3-0.7,0.9-0.6c5.6,1.2,11.4,0.9,17.1,0.7
		c8.1-0.4,15.9-2.4,23.6-5c0.3-0.1,0.6-0.3,0.9-0.5c0.8,1.2,0.6,2.7,0.9,4c0.2,0.8,0.1,1.7,0.2,2.5c0.2,1.3-0.5,1.9-1.6,2.2
		c-5.8,1.9-11.6,3.3-17.6,4.3c-5.5,0.8-10.9,0.7-16.4,0.7c-2.5,0-4.9-0.3-7.3-0.9C186,121,185.5,120.8,185.2,120.3z"></path>
</g>
<g onclick="select(this)" class="" id="gola-terciaria" fill="#bf0811">
	<path d="M113.9,49.6c0.1-0.6,0.1-1.1,0-1.7c-0.9-3.9-2.6-7.5-4.8-10.8c3.4,0,6.7,0,10.1,0c-2,3.1-3.6,6.5-4.5,10.1
		c-0.2,0.8-0.5,1.5-0.2,2.3C114.2,49.6,114.1,49.6,113.9,49.6z"></path>
</g>
<path d="M111.4,48.9c0.2,0,0.3,0.1,0.3,0.2C111.6,49.1,111.4,49.2,111.4,48.9z"></path>
<g onclick="select(this)" class="" id="estampa-primaria" fill="#ffffff">
	<path d="M43.8,120.6c0-2.4-0.5-4.7-1-7c-0.1-0.5-0.4-0.4-0.8-0.3c-1.8,0.7-3.5,1.2-5.5,1.2c-3.7,0-7.4,0.1-11.1-0.2
		c-1.9-0.1-3.7-0.3-5.6-0.3c-3.8-0.1-7.4-1.3-11.2-2c-1.7-0.3-3.4-0.8-5.1-1.2c-0.6-0.2-1.2-0.4-1.7-0.8c1.8-9.5,2.7-19.1,4.2-28.6
		C7,76.3,7.3,71.1,8.4,66c1.8-8.2,4.5-16,9.6-22.8c2-2.7,4.3-5.2,7-7.4c1.4-1.1,2.5-2.7,4.1-3.5c3.6-1.9,7.3-3.7,11-5.3
		c9.9-4.1,19.9-8.1,29.3-13.4c2-1.1,4.1-2.1,5.6-4c0.9-1,2.1-1.8,3.7-1.4c-2,1.2-2.4,2.2-2,4.5c0.4,2.3,1.5,4.3,2.8,6.2
		c5.6,8.3,11.9,15.8,19.2,22.6c3.1,2.9,6.5,5.2,10.4,6.7c0.7,0.3,1.4,0.8,2.2,0.7l0,0c0,0.2,0.2,0.2,0.3,0.2
		c0.7,0.3,1.4,0.6,2.2,0.5c0.2,0,0.3,0,0.5,0c0.9,0.3,1.7-0.4,2.5-0.6c0.9-0.3,1.8-0.7,2.7-1c5.3-1.9,9.2-5.7,13.1-9.5
		c6-5.7,11-12.2,15.8-19c1.5-2.1,2.8-4.4,3.3-7c0.4-1.8-0.1-3.2-1.6-4.2c1.7,0,2.8,1,3.8,2.2c0.3,0.4,0.7,0.7,1.1,1
		c10,6.5,21.2,10.6,32.2,15.2c4,1.7,7.9,3.4,11.7,5.3c2.2,1.1,3.9,3,5.8,4.6c7.7,6.5,12.3,15,14.9,24.6c1.1,4,1.9,8,2.4,12.1
		c0.6,5.6,2.1,10.9,3.2,16.3c1.3,6.2,2.1,12.4,3.1,18.7c-0.3,0.2-0.6,0.4-0.9,0.5c-7.6,2.6-15.5,4.6-23.6,5
		c-5.7,0.3-11.4,0.5-17.1-0.7c-0.6-0.1-0.8,0-0.9,0.6c-0.4,2.2-1,4.3-0.7,6.5c-0.4,0.8-0.3,1.7-0.4,2.6c-1,8.4-1.7,16.8-1.7,25.2
		c0,2.2,0.1,4.4,0.5,6.6c0.4,1.9,0,3.8-0.2,5.7c-0.2,2.1-0.2,4.2-0.1,6.3c0.1,2.2-0.1,4.3-0.2,6.5c-0.1,2.8-0.1,5.7,0.1,8.5
		c0.1,1.7,0.1,3.4-0.1,5c-0.3,3.1,0.2,6.1,0.9,9.1c1.6,7.2,1.4,14.5,0.3,21.8c-0.3,2.1-0.4,4.2,0.3,6.4c1.8,5.4,1.8,11,0.9,16.6
		c-0.2,1.5-0.2,2.9,0.1,4.4c0.9,3.8,0.4,7.6,0.6,11.5c0.3,5.9,0.7,11.9,1.4,17.8c0.3,2,0.2,4.1,0.3,6.1c0,1.8-0.3,2.3-2.1,2.9
		c-3,0.9-6.1,1.2-9.2,1.5c-7.7,0.8-15.4,0.9-23.1,1c-11.2,0.2-22.5,0.7-33.7,0.8c-12.5,0.2-24.9-0.8-37.4-0.8
		c-8.4,0-16.8-0.1-25.2-0.7c-4.1-0.3-8.3-0.8-12.4-1.7c-0.2,0-0.4-0.1-0.6-0.1c-3.2-0.8-3.6-1.2-3.4-4.5c0.5-7.8,1-15.5,1.6-23.3
		c0.1-2,0.3-4.1,0.2-6.1c0-1.8,0-3.6,0.4-5.4c0.4-2.3,0.5-4.5,0.1-6.8c-0.3-1.8-0.3-3.7,0.1-5.5c0.7-2.7,0.4-5.5,0.2-8.2
		c-0.3-3.5-0.7-7-0.6-10.5c0.2-4.3,1.2-8.4,2.6-12.4c0.4-1.1,0.7-2.1,0.5-3.3c-0.2-1.2-0.2-2.5,0.1-3.7c0.3-1.6,0.2-3.2,0.1-4.9
		c-0.2-3.3-0.2-6.6-0.2-9.9c-0.1-12.9,0-25.9-0.1-38.8c0-5.1-1-10.2-1.5-15.3C44.2,123.3,44,121.9,43.8,120.6z"></path>
	<path d="M119.2,37.2c-3.4,0-6.7,0-10.1,0c-4.2-4.8-8.8-9.3-13.2-13.9c-3.5-3.7-6.2-7.9-8.6-12.4c-0.3-0.5-0.5-1-0.6-1.6
		c3.1,0.3,6.1,0.6,9.2,0.8c8.4,0.6,16.7,1.4,25.1,0.8c6.8-0.5,13.5-0.9,20.3-1.4c-0.3,1.6-1.3,3-2.1,4.4c-2.2,3.8-4.8,7.2-7.9,10.4
		C127.3,28.6,123.2,32.9,119.2,37.2z"></path>
</g>
<g onclick="select(this)" class="" id="gola-primaria" fill="#ffffff">
	<path d="M116.9,49c1-4.8,3.1-9,6.5-12.6c4.2-4.5,8.4-8.8,12.6-13.3c3.1-3.4,5.6-7.3,7.5-11.5c1.2-2.5,2-5.1,1.2-8
		c1,0.6,1.6,1.6,2.4,2.4c1,0.9,1.8,1.9,3,2.4c1.6,1.1,2,2.4,1.6,4.2c-0.5,2.6-1.8,4.9-3.3,7c-4.7,6.7-9.8,13.2-15.8,19
		c-3.9,3.8-7.9,7.5-13.1,9.5C118.7,48.4,117.8,48.7,116.9,49z"></path>
	<path d="M83.3,4.5c0,4,1.6,7.4,3.5,10.8c2.8,4.8,6.4,8.9,10.2,12.8c2.8,2.8,5.5,5.7,8.2,8.6c3.2,3.5,5.2,7.6,6.2,12.2
		c-0.8,0.1-1.5-0.4-2.2-0.7c-3.9-1.5-7.3-3.8-10.4-6.7c-7.3-6.8-13.6-14.3-19.2-22.6c-1.3-1.9-2.3-3.9-2.8-6.2c-0.4-2.2,0-3.3,2-4.5
		c1.2-0.5,2-1.6,3-2.5C82.3,5.4,82.6,4.8,83.3,4.5z"></path>
	<path d="M141.3,9.6c-6.8,0.5-13.5,0.9-20.3,1.4c-8.4,0.6-16.7-0.2-25.1-0.8c-3.1-0.2-6.1-0.5-9.2-0.8
		C86.1,8,85.9,6.6,86,5.2c0-0.8,0.5-1.3,1.2-1.6c1.1-0.5,2.3-0.7,3.5-0.7c15.7,0,31.3,0,47,0c1.1,0,2.2,0.2,3.3,0.6
		c0.9,0.3,1.4,1,1.4,2C142.4,6.9,142.1,8.3,141.3,9.6z"></path>
</g>
<g onclick="select(this)" class="" id="estampa-terciaria" fill="#bf0811">
	<path d="M85.7,53.1c1.7-0.4,3.4-0.5,5.1-0.5c3.7-0.1,7.3-0.1,11,0.4c1.3,0.2,2.8-0.2,4.2-0.3c2.8-0.1,5.6,0,8.4,0.3
		c1.3,0.1,2.7-0.2,4-0.3c4-0.3,8.1-0.2,12.1,0.2c0.2,0,0.5,0,0.7,0.3c-4.9,0.6-9.8,0.6-14.7,0.1c-1.8-0.2-3.6,0.2-5.4,0.2
		c-2.9,0-5.7,0-8.6-0.3c-1.6-0.2-3.2,0.3-4.8,0.3C93.6,53.7,89.6,53.8,85.7,53.1z"></path>
	<path d="M92.2,75.4c5-0.6,9.9-0.6,14.9-0.1c1.7,0.2,3.3-0.3,5-0.3c3.8-0.1,7.5-0.2,11.2,0.4c-2.6,0.5-5.2,0.6-7.8,0.5
		c-6-0.4-12,0.1-18,0C95.7,75.9,93.9,75.9,92.2,75.4z"></path>
	<path d="M93.8,106.6c1.1-0.1,2.2-0.3,3.3-0.3c3.2,0,6.5-0.1,9.7,0.3c1.8,0.2,3.7-0.2,5.6-0.3c3.1-0.2,6.3,0,9.4,0.3
		c0,0.1,0,0.2,0,0.3c-1.3,0.1-2.7,0.3-4,0.3c-3.6,0-7.1-0.2-10.7-0.2c-3.2,0-6.4,0.3-9.7,0.2c-1.2,0-2.4-0.2-3.6-0.3
		C93.8,106.8,93.8,106.7,93.8,106.6z"></path>
	<path d="M95.5,57.4c3.3,0,6.5-0.5,9.8-0.3c6,0.5,12-0.3,18,0c0.9,0,1.8,0.2,2.7,0.2c0,0.1,0,0.2,0,0.3
		c-1,0.1-2,0.3-3.1,0.3c-3.9,0-7.9,0.1-11.9-0.3c-1.8-0.2-3.7,0.2-5.6,0.3c-3.3,0.2-6.6-0.2-9.9-0.3C95.5,57.7,95.5,57.5,95.5,57.4z
		"></path>
	<path d="M122.7,62c-1.4,0.5-2.6,0.5-3.8,0.4c-3.5,0-6.9,0.3-10.4-0.4c-0.5-0.1-1,0.2-1.5,0.2c-4.5,0.3-9,0.3-13.5,0
		c-0.3,0-0.5-0.1-1.1-0.2c1.6-0.4,3-0.5,4.4-0.4c3.8,0,7.5-0.2,11.2,0.3c1.5,0.2,3-0.3,4.5-0.3C115.9,61.6,119.2,61.5,122.7,62z"></path>
	<path d="M125.1,62c6.2-0.7,12-0.7,18,0C141,62.8,128.1,62.9,125.1,62z"></path>
	<path d="M70.3,62c6.2-0.6,12-0.7,17.9,0C86.4,62.8,73.3,62.9,70.3,62z"></path>
	<path d="M152.3,106.8c-5.8,0.7-11.6,0.7-17.4,0C140.7,106,146.5,106.1,152.3,106.8z"></path>
	<path d="M68,106.7c4.4-0.6,13.5-0.6,17.7,0C84.1,107.5,70.9,107.6,68,106.7z"></path>
	<path d="M146.6,75.5c-5.8,0.6-11.6,0.6-17.6,0.1C131.4,74.7,143,74.7,146.6,75.5z"></path>
	<path d="M89.9,75.5c-2.9,0.7-14.2,0.7-17.4,0.1C74.7,74.7,86.1,74.7,89.9,75.5z"></path>
	<path d="M118,48.8c0.3-0.1,0.6-0.2,0.9-0.3c1.7-0.1,3.4-0.3,5.1-0.3c4.1-0.1,8.2-0.2,12.3,0.5
		C130.2,49.6,124.1,49.1,118,48.8z"></path>
	<path d="M119.1,97.8c5.6-0.7,11.1-0.7,16.7,0C130.2,98.6,124.7,98.5,119.1,97.8z"></path>
	<path d="M71.7,88.9c5.8-0.7,11.6-0.7,17.3,0C83.3,89.6,77.5,89.6,71.7,88.9z"></path>
	<path d="M88.8,138c-5.8,0.7-11.6,0.7-17.3,0C77.2,137.3,83,137.3,88.8,138z"></path>
	<path d="M80.7,133.6c5.6-0.8,11.1-0.8,16.7,0C91.8,134.3,86.3,134.3,80.7,133.6z"></path>
	<path d="M77.5,102.3c2.2-0.7,14.5-0.7,16.8,0C91.8,103,80.1,103,77.5,102.3z"></path>
	<path d="M81,84.4c5.6-0.8,11.1-0.8,16.6,0C92.1,85.1,86.6,85.1,81,84.4z"></path>
	<path d="M125.3,111.2c5.6-0.7,11.2-0.7,16.8,0C136.5,111.9,130.9,111.9,125.3,111.2z"></path>
	<path d="M103.6,147c-5.6,0.7-11.2,0.7-16.7,0C92.5,146.2,98.1,146.3,103.6,147z"></path>
	<path d="M90.2,120.2c-5.3,0.6-10.6,0.6-15.8,0C76.8,119.4,86.8,119.3,90.2,120.2z"></path>
	<path d="M100,97.8c-5.3,0.7-10.7,0.7-16,0C89.3,97.1,94.7,97.1,100,97.8z"></path>
	<path d="M104.4,66.5c-1.4,0.5-2.8,0.5-4.3,0.5c-3.8,0-7.7,0.2-11.5-0.3c-0.2,0-0.4-0.1-0.6-0.3
		c1.7-0.1,3.4-0.3,5.1-0.3C96.9,66,100.6,65.9,104.4,66.5C104.4,66.5,104.4,66.5,104.4,66.5z"></path>
	<path d="M118.1,66.4c5.2-0.6,10.3-0.4,15.5,0.2c-5.2,0.6-10.5,0.7-15.7,0.2C117.9,66.6,118,66.5,118.1,66.4z"></path>
	<path d="M128.7,84.4c-5.3,0.7-10.6,0.7-15.9,0C116.2,83.7,123.9,83.6,128.7,84.4z"></path>
	<path d="M97.9,71.2c-5.3,0.6-10.6,0.5-15.9,0c-0.1,0-0.2-0.1-0.5-0.3c5.6-0.6,11-0.6,16.4-0.1
		C97.9,70.9,97.9,71,97.9,71.2z"></path>
	<path d="M109.6,142.4c-2.8,0.8-14.1,0.8-16.2,0C96.7,141.8,104.8,141.8,109.6,142.4z"></path>
	<path d="M128.1,102.3c-5.3,0.7-10.7,0.7-16,0C117.5,101.6,122.8,101.6,128.1,102.3z"></path>
	<path d="M110,70.9c4.5-0.6,12.6-0.6,16.2,0C124.6,71.7,112.4,71.8,110,70.9z"></path>
	<path d="M104.1,111.3c-5.6,0.6-10.9,0.6-16.5,0C89.7,110.5,101.2,110.4,104.1,111.3z"></path>
	<path d="M77.6,151.4c5.8-0.7,11.6-0.7,17.5,0C89.3,152.1,83.4,152.1,77.6,151.4z"></path>
	<path d="M86.9,129c5.5-0.6,10.8-0.6,16.1,0C101.7,129.8,89.2,129.9,86.9,129z"></path>
	<path d="M145.9,93.4c-5.8,0.6-11.5,0.6-17.5,0.1C130.1,92.7,143.1,92.6,145.9,93.4z"></path>
	<path d="M128.4,120.1c-1.9,0.7-12.6,0.8-15.3,0.1C115.8,119.5,124.6,119.5,128.4,120.1z"></path>
	<path d="M98.1,115.7c-5.6,0.6-11.2,0.6-17,0.1C83.1,115,94.8,114.9,98.1,115.7z"></path>
	<path d="M119.8,79.9c5.5-0.7,11.1-0.7,16.6,0C130.8,80.6,125.3,80.5,119.8,79.9z"></path>
	<path d="M104.2,48.7c-5.1,0.6-10.2,0.6-15.6,0.1C90.4,48,101.2,48,104.2,48.7z"></path>
	<path d="M118.4,115.7c5.3-0.7,10.7-0.7,16.1,0C129.1,116.3,123.7,116.3,118.4,115.7z"></path>
	<path d="M95.5,57.4c0,0.1,0,0.3,0,0.4c-5.4,0.5-10.7,0.4-16.1-0.2C84.8,57,90.2,56.9,95.5,57.4z"></path>
	<path d="M91.9,124.6c5.1-0.6,10.2-0.6,15.4-0.1C105.6,125.3,95,125.3,91.9,124.6z"></path>
	<path d="M113.5,138c-5.1,0.6-10.2,0.6-15.3,0C103.3,137.4,108.4,137.4,113.5,138z"></path>
	<path d="M122.7,88.9c-5.1,0.6-10.1,0.6-15.2,0C112.6,88.2,117.7,88.2,122.7,88.9z"></path>
	<path d="M109.6,120.2c-4.6,0.6-9.2,0.5-13.8,0C100.4,119.5,105,119.6,109.6,120.2z"></path>
	<path d="M104.1,93.3c-1.3,0.4-2.7,0.4-4,0.5c-3.4,0-6.8,0.2-10.2-0.2c-0.2,0-0.4-0.1-0.7-0.4c1.5-0.1,3.1-0.3,4.6-0.3
		c3-0.1,6.1-0.1,9.1,0.3C103.4,93.2,103.7,93.3,104.1,93.3C104.1,93.4,104.1,93.3,104.1,93.3z"></path>
	<path d="M102,79.8c3.1-0.1,6.3-0.5,9.4-0.3c1.8,0.1,3.7,0.2,5.5,0.3c0,0.1,0,0.2,0,0.3c-1.1,0.1-2.2,0.3-3.2,0.3
		c-3.5,0-7.1,0.2-10.6-0.3c-0.3-0.1-0.7,0-1.1,0.1C102,80,102,79.9,102,79.8z"></path>
	<path d="M102,79.8c0,0.1,0,0.2,0,0.3c-4.6,0.5-9.2,0.4-13.8-0.2C92.8,79.3,97.4,79.2,102,79.8z"></path>
	<path d="M104.1,93.3L104.1,93.3C105,92.9,106,93,107,93c3.7-0.2,7.3-0.2,11,0.2c0.1,0,0.3,0,0.4,0.3
		c-1.4,0.1-2.7,0.3-4.1,0.3c-3,0.1-6.1,0.1-9.1-0.2C104.8,93.5,104.5,93.4,104.1,93.3z"></path>
	<path d="M110.1,124.6c4.6-0.7,9.2-0.7,13.8,0C119.3,125.2,114.7,125.1,110.1,124.6z"></path>
	<path d="M116,133.6c-4.6,0.5-9.3,0.5-13.9,0C106.7,132.9,111.3,132.9,116,133.6z"></path>
	<path d="M92.8,88.9c4.6-0.6,9.1-0.5,13.7,0C101.9,89.5,97.4,89.4,92.8,88.9z"></path>
	<path d="M97.4,102.3c4.3-0.6,8.6-0.6,13,0C106.1,102.9,101.8,102.9,97.4,102.3z"></path>
	<path d="M107.6,129.1c4.1-0.6,8.1-0.6,12.2,0C115.7,129.7,111.6,129.6,107.6,129.1z"></path>
	<path d="M118.1,66.4c-0.1,0.1-0.1,0.2-0.2,0.3c-3,0.1-6,0.4-9,0.3c-1.5-0.1-3-0.1-4.5-0.5v0c4.1-0.6,8.1-0.6,12.2-0.1
		C117.1,66.5,117.6,66.1,118.1,66.4z"></path>
	<path d="M113.5,115.7c-4.1,0.5-8.2,0.5-12.4,0.1C102.6,115.1,111.2,115,113.5,115.7z"></path>
	<path d="M117.3,111.2c-4.2,0.6-8.4,0.5-12.5,0C108.9,110.6,113.1,110.6,117.3,111.2z"></path>
	<path d="M98.6,84.4c3.8-0.6,7.5-0.5,11.3,0C106.2,84.9,102.4,84.9,98.6,84.4z"></path>
	<path d="M97.9,71.2c0-0.1,0-0.2,0-0.3c2.4,0,4.8-0.4,7.3-0.3c1.4,0.1,2.7,0.1,4.1,0.5c-1,0.4-2.1,0.4-3.1,0.5
		C103.4,71.6,100.6,71.3,97.9,71.2z"></path>
	<path d="M102,97.8c4-0.5,8.1-0.5,12.3-0.1C112.5,98.4,104.8,98.4,102,97.8z"></path>
	<path d="M101,43.7c0.4,0.3,0.8,0.6,1.1,0.9c-3,0.2-6,0.2-9-0.4C95.8,43.7,98.4,43.8,101,43.7z"></path>
</g>
<g onclick="select(this)" class="" id="estampa-secundaria" fill="#021c3b">
	<path d="M111.8,244.4c3.7-0.6,7.5-0.7,11.2-0.1c0.5,0.1,0.9-0.1,1.4-0.2c3.5-0.2,6.9-0.4,10.4,0.2
		c0.4,0.1,0.8-0.1,1.1-0.2c4.1-0.4,8.1-0.4,12.2,0c0.2,0,0.4,0,0.6,0.3c-6.2,1-12.4,0.1-18.6,0.2C124,244.7,117.9,245.3,111.8,244.4
		z"></path>
	<path d="M130.1,248.8c-3.6,0.4-6.9,0.6-10.2-0.1c-0.6-0.1-0.9,0.2-1.3,0.2c-4.7,0.4-9.5,0.4-14.2-0.1
		c0.8-0.4,1.6-0.3,2.4-0.4c0.9-0.1,1.8-0.2,2.6-0.2c3.3,0,6.7-0.2,10,0.6c0.4,0.1,0.7-0.3,1.1-0.3c2.9-0.3,5.9-0.3,8.8,0
		C129.5,248.6,129.6,248.7,130.1,248.8z"></path>
	<path d="M137.3,240.1c-7.6,0.4-15.3,0.3-22.9,0c1.9-0.6,3.8-0.6,5.7-0.6c1.9,0,3.8,0.3,5.7,0.3c1.9,0,3.9-0.3,5.8-0.3
		C133.6,239.6,135.5,239.5,137.3,240.1z"></path>
	<path d="M88.7,270.5c5.6-0.6,11.3-0.6,17.2-0.1C103.6,271.2,91.5,271.3,88.7,270.5z"></path>
	<path d="M139.9,270.6c2.6-0.7,14-0.7,17,0C154.6,271.2,142.8,271.3,139.9,270.6z"></path>
	<path d="M139.1,253.1c5.7-0.7,11.4-0.7,17,0C150.4,253.8,144.8,253.8,139.1,253.1z"></path>
	<path d="M89.4,213.8c5.7-0.7,11.4-0.7,17.1,0C100.8,214.5,95.1,214.4,89.4,213.8z"></path>
	<path d="M162.2,170c-5.7,0.6-11.3,0.6-17,0C150.8,169.3,156.5,169.3,162.2,170z"></path>
	<path d="M108.8,196.3c-5.7,0.6-11.3,0.6-17,0.1C94.3,195.6,104.3,195.5,108.8,196.3z"></path>
	<path d="M146.5,226.9c5.6-0.7,11.3-0.7,17,0C157.8,227.5,152.1,227.5,146.5,226.9z"></path>
	<path d="M149.8,152.6c5.6-0.6,11.3-0.6,16.9,0C161.1,153.1,155.4,153.1,149.8,152.6z"></path>
	<path d="M94.8,226.9c3.2-0.7,14.7-0.7,17.2,0C109.4,227.5,98.8,227.6,94.8,226.9z"></path>
	<path d="M142.4,139.4c5.7-0.7,11.3-0.7,17,0C153.7,140.1,148.1,140,142.4,139.4z"></path>
	<path d="M149.7,275c-5.4,0.7-10.9,0.7-16.3,0C138.8,274.3,144.3,274.3,149.7,275z"></path>
	<path d="M98.5,209.4c5.4-0.7,10.9-0.7,16.5-0.1C112.2,210,102.3,210.1,98.5,209.4z"></path>
	<path d="M125.6,130.7c5.5-0.8,10.9-0.7,16.4,0C136.5,131.4,131.1,131.3,125.6,130.7z"></path>
	<path d="M156.8,156.9c-5.4,0.7-10.9,0.7-16.3,0C145.9,156.2,151.4,156.2,156.8,156.9z"></path>
	<path d="M100.8,191.9c3-0.6,12.8-0.6,16.2,0C114.9,192.5,103.4,192.6,100.8,191.9z"></path>
	<path d="M141.4,187.5c5.4-0.7,10.9-0.7,16.3,0C152.3,188.2,146.8,188.2,141.4,187.5z"></path>
	<path d="M98.3,275c5.2-0.7,10.4-0.7,15.6,0C108.8,275.7,103.6,275.6,98.3,275z"></path>
	<path d="M145,213.8c5.3-0.7,10.5-0.7,15.8,0C155.6,214.5,150.3,214.5,145,213.8z"></path>
	<path d="M95.8,178.8c5.4-0.7,10.8-0.7,16.2,0C106.6,179.4,101.2,179.4,95.8,178.8z"></path>
	<path d="M149.5,209.4c-5.2,0.6-10.4,0.6-15.7,0C139,208.7,144.2,208.7,149.5,209.4z"></path>
	<path d="M136.4,174.4c5.1-0.6,10.2-0.7,15.3,0C146.6,175.1,141.5,175.1,136.4,174.4z"></path>
	<path d="M118.9,135c5.2-0.7,10.4-0.7,15.6,0C129.3,135.8,124.1,135.7,118.9,135z"></path>
	<path d="M102,174.4c5.2-0.7,10.3-0.7,15.5,0C112.4,175.1,107.2,175.1,102,174.4z"></path>
	<path d="M150.4,191.9c-3.1,0.6-12.6,0.6-15.7,0.1C137.1,191.2,146.1,191.2,150.4,191.9z"></path>
	<path d="M142.2,148.3c-5.4,0.6-10.5,0.6-15.8,0C128.2,147.4,139.6,147.4,142.2,148.3z"></path>
	<path d="M135,126.3c5.6-0.7,11.2-0.6,16.9-0.1C150.6,127,138.3,127.1,135,126.3z"></path>
	<path d="M103.6,183.1c-2.4,0.7-14.3,0.7-16.9,0C92.3,182.4,98,182.5,103.6,183.1z"></path>
	<path d="M103.3,283.7c-2.9,0.6-14.5,0.6-17.2,0C87.6,283,100.2,282.9,103.3,283.7z"></path>
	<path d="M150.7,183.1c5.6-0.7,11.3-0.7,16.9,0C162,183.8,156.4,183.8,150.7,183.1z"></path>
	<path d="M106.5,270.6c4.9-0.7,9.7-0.7,14.6,0C116.3,271.2,111.4,271.2,106.5,270.6z"></path>
	<path d="M150.1,200.6c5.6-0.6,11.1-0.6,16.7,0C161.2,201.3,155.7,201.3,150.1,200.6z"></path>
	<path d="M157.1,205c-3.3,0.6-14.1,0.6-16.5,0C142.6,204.3,154,204.3,157.1,205z"></path>
	<path d="M104,222.5c5.4-0.7,10.8-0.7,16.3,0C114.8,223.1,109.4,223.1,104,222.5z"></path>
	<path d="M149.5,143.8c-5.4,0.6-10.8,0.6-16.3,0C138.6,143.1,144,143.1,149.5,143.8z"></path>
	<path d="M112.4,240.1c-5.4,0.6-10.8,0.6-16.4,0.1C97.8,239.3,109.7,239.2,112.4,240.1z"></path>
	<path d="M132,257.4c5.4-0.5,10.8-0.5,16.3-0.1C146.8,258.2,134.4,258.3,132,257.4z"></path>
	<path d="M138.1,231.3c4.9-0.6,9.7-0.7,14.6,0C147.8,231.8,143,231.8,138.1,231.3z"></path>
	<path d="M120.9,235.6c-4.9,0.7-9.8,0.7-14.7,0C111.1,234.9,116,234.9,120.9,235.6z"></path>
	<path d="M88.3,165.7c5.4-0.7,10.8-0.7,16.2,0C99.1,166.3,93.7,166.2,88.3,165.7z"></path>
	<path d="M153.3,218.1c-4.8,0.6-9.7,0.6-14.5,0C143.6,217.4,148.4,217.4,153.3,218.1z"></path>
	<path d="M110.4,266.3c-4.6,0.6-9.2,0.5-13.8,0c0-0.1,0-0.2,0-0.3c1.2-0.1,2.5-0.3,3.7-0.3c3.4-0.1,6.8-0.3,10.1,0.4
		C110.4,266.2,110.4,266.3,110.4,266.3z"></path>
	<path d="M110.9,253.2c-4.9,0.7-9.5,0.6-14.4,0C99.3,252.4,107.3,252.4,110.9,253.2z"></path>
	<path d="M120.3,205c-5.2,0.6-10.4,0.6-15.6,0C109.9,204.3,115.1,204.4,120.3,205z"></path>
	<path d="M109.4,279.5c-5.1,0.5-10.2,0.4-15.3-0.2c5.1-0.6,10.2-0.7,15.3-0.2C109.4,279.3,109.4,279.4,109.4,279.5z"></path>
	<path d="M142.2,279.4c-5.2,0.6-10.4,0.6-15.8,0.1C128.2,278.7,139.2,278.6,142.2,279.4z"></path>
	<path d="M136.1,152.6c-4.9,0.6-9.8,0.6-15.1,0.1C123.7,151.9,133.1,151.9,136.1,152.6z"></path>
	<path d="M125.8,218.1c-5.2,0.6-10.4,0.6-15.6,0C115.4,217.5,120.6,217.5,125.8,218.1z"></path>
	<path d="M92.1,257.4c4.5-0.6,12.8-0.5,15.4,0.1C105.6,258.2,94.3,258.2,92.1,257.4z"></path>
	<path d="M154,240.1c-5,0.6-9.9,0.6-15.1,0.1C140.6,239.3,151.2,239.2,154,240.1z"></path>
	<path d="M138.4,266.2c-5,0.6-10,0.6-15,0C128.4,265.6,133.4,265.6,138.4,266.2z"></path>
	<path d="M128.6,139.4c-4.9,0.6-9.9,0.6-14.8,0C118.8,138.8,123.7,138.8,128.6,139.4z"></path>
	<path d="M129,213.8c-4.7,0.5-9.3,0.5-13.9,0C117.4,213.1,125.1,213.1,129,213.8z"></path>
	<path d="M136.4,283.7c-4.9,0.6-9.9,0.6-14.9,0C126.4,283.1,131.4,283.1,136.4,283.7z"></path>
	<path d="M119.1,283.7c-4.9,0.6-9.9,0.6-14.9,0C109.2,283.1,114.1,283.1,119.1,283.7z"></path>
	<path d="M128.6,165.6c4.9-0.6,9.9-0.6,14.9-0.1C142.2,166.3,131.7,166.4,128.6,165.6z"></path>
	<path d="M120,187.5c-4.4,0.7-8.8,0.7-13.2,0C111.2,186.8,115.6,186.8,120,187.5z"></path>
	<path d="M109.8,200.6c4.9-0.6,9.8-0.6,14.6,0C119.5,201.2,114.7,201.3,109.8,200.6z"></path>
	<path d="M126.7,261.9c1.8-0.5,3.6-0.5,5.4-0.5c2.7-0.1,5.4-0.1,8.1,0.2c0.4,0,0.9,0.1,1.3,0.5c-4.8,0.4-9.5,0.4-14.2,0
		C127.2,262,127,261.9,126.7,261.9C126.7,261.8,126.7,261.9,126.7,261.9z"></path>
	<path d="M94.8,161.3c4.9-0.6,9.8-0.7,14.7,0C104.6,161.9,99.7,161.9,94.8,161.3z"></path>
	<path d="M129.3,196.1c5.2-0.5,10.1-0.5,15.1,0C143,196.9,131.7,196.9,129.3,196.1z"></path>
	<path d="M134.2,161.3c4.8-0.6,9.7-0.7,14.5,0C143.9,161.9,139,161.9,134.2,161.3z"></path>
	<path d="M99.2,156.9c2.9-0.5,11.3-0.5,14.9,0C112.4,157.5,101,157.5,99.2,156.9z"></path>
	<path d="M121.9,170.1c-5.2,0.4-10.2,0.4-15.4,0C108.7,169.4,119.3,169.4,121.9,170.1z"></path>
	<path d="M109.4,279.5c0-0.1,0-0.3,0-0.4c4,0,8-0.5,12-0.2c1.1,0.1,2.1,0.2,3.2,0.4c-1.4,0.4-2.9,0.4-4.4,0.5
		c-2.6,0.1-5.1,0.1-7.6-0.2C111.5,279.5,110.5,279.3,109.4,279.5z"></path>
	<path d="M145.1,235.6c-4.1,0.7-8.2,0.7-12.4,0C136.9,234.9,141,234.9,145.1,235.6z"></path>
	<path d="M140.1,200.6c-4.5,0.6-9,0.6-13.5,0C131.1,200,135.6,200.1,140.1,200.6z"></path>
	<path d="M130.8,248.6c4.2-0.7,8.3-0.4,12.5,0.1c-4.1,0.6-8.3,0.7-12.4,0.1C130.8,248.8,130.8,248.7,130.8,248.6z"></path>
	<path d="M124.3,143.8c-4.5,0.6-9,0.6-13.6,0C115.3,143.2,119.8,143.2,124.3,143.8z"></path>
	<path d="M133.9,222.3c4.3-0.5,8.5-0.4,12.7,0.2c-4.3,0.6-8.6,0.7-12.9,0.2C133.8,222.6,133.8,222.4,133.9,222.3z"></path>
	<path d="M126.7,196.3c-4.5,0.5-9,0.5-13.4,0.1C115.5,195.7,123.1,195.6,126.7,196.3z"></path>
	<path d="M143.2,178.8c-4.2,0.6-8.3,0.6-12.5,0C134.9,178.1,139.1,178.2,143.2,178.8z"></path>
	<path d="M139.2,183.2c-4.2,0.5-8.4,0.5-12.8,0.1C127.9,182.5,136.9,182.4,139.2,183.2z"></path>
	<path d="M110.6,165.6c4.5-0.5,8.9-0.5,13.4,0C121.6,166.2,112.9,166.2,110.6,165.6z"></path>
	<path d="M136,187.5c-4.5,0.6-8.9,0.6-13.4,0C127.1,186.9,131.6,187,136,187.5z"></path>
	<path d="M131.7,156.9c-4.5,0.6-8.9,0.5-13.4,0C122.8,156.3,127.3,156.3,131.7,156.9z"></path>
	<path d="M124.5,231.3c-4.2,0.6-8.1,0.5-12.3,0C114.4,230.6,121.5,230.6,124.5,231.3z"></path>
	<path d="M118.8,209.4c2.5-0.7,10.9-0.7,13.7,0C127.8,209.9,123.3,209.9,118.8,209.4z"></path>
	<path d="M125.6,170.1c4.5-0.6,9-0.6,13.5,0C134.7,170.6,130.1,170.5,125.6,170.1z"></path>
	<path d="M115.7,261.9c-4,0.6-8.1,0.6-12.1,0C107.6,261.2,111.6,261.2,115.7,261.9z"></path>
	<path d="M124.1,205c3.9-0.5,7.9-0.5,12-0.1C134.7,205.6,127.8,205.7,124.1,205z"></path>
	<path d="M128.1,275c-4,0.5-7.9,0.5-11.9,0C120.2,274.4,124.1,274.4,128.1,275z"></path>
	<path d="M122.2,253c4-0.6,8.1-0.4,12.4,0c-1.1,0.4-2,0.5-2.9,0.5c-3.2,0-6.4,0.3-9.6-0.3
		C122.2,253.1,122.2,253.1,122.2,253z"></path>
	<path d="M116.4,226.9c3.9-0.6,7.8-0.6,11.7,0C124.2,227.4,120.3,227.5,116.4,226.9z"></path>
	<path d="M119.5,257.6c-0.5-0.1-1-0.1-1.6,0c-3.1,0.5-6.1,0.4-9.2,0c-0.1,0-0.3-0.1-0.6-0.3c3.4-0.5,6.7-0.5,9.9-0.1
		c0.5,0.1,0.9,0,1.4,0C119.5,257.4,119.5,257.5,119.5,257.6z"></path>
	<path d="M130,213.8c4.1-0.6,8.3-0.6,12.4,0C138.2,214.3,134.1,214.3,130,213.8z"></path>
	<path d="M129.1,226.9c3.9-0.7,7.8-0.7,11.6,0C136.8,227.5,132.9,227.4,129.1,226.9z"></path>
	<path d="M127.2,161.3c-3.7,0.5-7.4,0.4-11.1,0C119.8,160.6,123.5,160.7,127.2,161.3z"></path>
	<path d="M120.6,148.3c-4.3,0.4-8.2,0.4-12.3,0C109.8,147.6,118,147.5,120.6,148.3z"></path>
	<path d="M110.4,266.3c0-0.1,0-0.1,0-0.2c2.5-0.2,5-0.5,7.5-0.4c1.3,0.1,2.7,0.2,4,0.4c-3.4,0.6-6.8,0.6-10.3,0.1
		C111.2,266.3,110.8,266.3,110.4,266.3z"></path>
	<path d="M133.9,222.3c-0.1,0.1-0.1,0.3-0.2,0.4c-2.5-0.1-5,0.4-7.5,0.3c-1.3-0.1-2.6-0.2-3.9-0.3c0-0.1,0-0.2,0-0.4
		c1.5-0.1,2.9-0.2,4.4-0.3c1.8-0.1,3.6,0.1,5.4,0.3C132.7,222.4,133.3,222.2,133.9,222.3z"></path>
	<path d="M103.1,152.6c4.5-0.6,8.9-0.6,13.4,0C112,153.1,107.5,153,103.1,152.6z"></path>
	<path d="M128.6,178.8c-1.5,0.6-8.7,0.6-10.6,0.1C119.7,178.2,126.5,178.1,128.6,178.8z"></path>
	<path d="M119.5,257.6c0-0.1,0-0.2,0-0.3c3.6-0.4,7.1-0.4,10.7,0.2C126.7,258,123.1,258,119.5,257.6z"></path>
	<path d="M136.1,270.6c-4.5,0.5-8.9,0.5-13.3,0C127.2,270.1,131.7,270,136.1,270.6z"></path>
	<path d="M126.7,261.9L126.7,261.9c-3.4,0.6-6.8,0.5-10.1,0C120,261.4,123.3,261.2,126.7,261.9z"></path>
	<path d="M137.8,218.1c-1.9,0.6-9.2,0.6-10.8,0C130.7,217.6,134.3,217.6,137.8,218.1z"></path>
	<path d="M114,183.1c3.2-0.5,6.3-0.4,9.6-0.1C122.2,183.7,116.6,183.8,114,183.1z"></path>
	<path d="M123.2,174.4c3.9-0.6,7.9-0.6,11.9,0C131.1,174.9,127.2,174.8,123.2,174.4z"></path>
	<path d="M122.2,253c0,0.1,0,0.1,0,0.1c-2.4,0.3-4.8,0.4-7.2,0.4c-1.2,0-2.4,0-3.8-0.5c3.6-0.5,6.8-0.5,10-0.1
		C121.5,253,121.8,253.1,122.2,253z"></path>
	<path d="M118.7,191.9c3.9-0.5,7.8-0.5,11.8,0C126.5,192.4,122.6,192.4,118.7,191.9z"></path>
	<path d="M125,231.3c3.8-0.6,7.6-0.5,11.4,0C132.5,231.8,128.8,231.7,125,231.3z"></path>
	<path d="M131.7,235.6c-3.2,0.5-6.3,0.4-9.5,0C125.4,235.1,128.5,235.1,131.7,235.6z"></path>
	<path d="M130.8,248.6c0,0.1,0,0.1,0,0.2c-0.1,0-0.4,0.1-0.4-0.1C130.4,248.6,130.6,248.6,130.8,248.6z"></path>
</g>
</svg>
