<!--?xml version="1.0" encoding="utf-8"?-->
<!-- Generator: Adobe Illustrator 24.2.3, SVG Export Plug-In . SVG Version: 6.00 Build 0)  -->
<svg version="1.1" id="Camada_1" xmlns="http://www.w3.org/2000/svg" xmlns:xlink="http://www.w3.org/1999/xlink" x="0px" y="0px" viewBox="0 0 229 418" enable-background="new 0 0 229 418" xml:space="preserve">
<g onclick="select(this)" class="" id="estampa-primaria" fill="#082890">
	<path d="M43.1515503,120.3646698c-0.1404991-2.3006744-0.1914711-4.6079102-0.6132278-6.885849
		c-0.0899544-0.485817-0.2391663-0.6317444-0.6915321-0.4280777c-2.4907532,1.1215134-5.2097473,1.1106415-7.8384094,1.4879227
		c-1.4780464,0.2121429-3.0204296-0.0509491-4.5338783-0.0523834c-4.2323608-0.0040283-8.4661789-0.0824814-12.6740704-0.5230713
		c-3.80264-0.3981781-7.5636272-1.0788956-11.1697559-2.440567c-1.449275-0.5472488-2.9991877-0.8545074-4.2283468-1.8888321
		c1.7889749-9.4180679,2.6642451-18.9717102,4.2234063-28.4253159C6.476234,76.0517044,6.7927861,70.8162842,7.9036627,65.691246
		c1.7424269-8.0386963,4.4395752-15.6649666,9.3638182-22.3660049c2.1397705-2.9118538,4.5772095-5.5549202,7.4105587-7.7961693
		c1.3626118-1.0778542,2.3616104-2.5712852,3.923933-3.3974419c3.6044178-1.9060097,7.2547016-3.723999,11.025713-5.2781143
		c9.9812241-4.1134815,19.9857483-8.1736889,29.442276-13.433075c1.9732819-1.0974712,4.0098419-2.0742865,5.5134583-3.8943434
		c0.8124695-0.9834595,1.9979477-1.5784073,3.3699265-1.5663853c-1.6862564,1.2423325-2.0793839,2.4572849-1.5202484,4.7163982
		c0.7434235,3.0036898,2.2106476,5.6272135,4.1501999,8.0189981c0.4648819,0.5732727,0.7898254,0.5835552,1.3376007,0.1304188
		c1.6615067-1.3744431,3.3388367-2.7321854,5.0562897-4.0355015c0.7112122-0.5397129,0.6230011-0.942378,0.0833054-1.5165873
		c-1.4572906-1.5505123-2.7332535-3.233243-3.5389481-5.2270527c-0.4795532-1.1867275-0.3964462-1.2704639,0.8895187-1.1417885
		c7.9482346,0.7953005,15.9056396,1.4685373,23.8829803,1.9115543c8.3257065,0.4623632,16.6000443-0.3633499,24.8863144-0.8980713
		c3.6595154-0.2361526,7.3143311-0.5451813,11.1264954-0.832839c-0.8695984,2.3225203-2.1356354,4.2478962-3.6953278,5.9588709
		c-0.7138519,0.7830782-0.5889587,1.1435823,0.2011108,1.7098112c1.7194672,1.2323208,3.3834686,2.5433502,5.045578,3.8533516
		c0.5212402,0.4108067,0.8400574,0.5315704,1.3224487-0.1134567c2.082489-2.7845783,3.7957916-5.7035885,4.0314026-9.2897568
		c0.0966339-1.4710026-0.5096283-2.4425774-1.8434601-3.0019283c1.8036041-0.1237278,2.9669189,0.9629507,4.043045,2.1744213
		c0.3423309,0.3853559,0.6636658,0.7412128,1.1135864,1.0353756c10.0124969,6.5462341,21.2043915,10.6002197,32.1449432,15.1727829
		c3.9642639,1.6568451,7.7808228,3.6279182,11.7509613,5.2658405c1.1914215,0.4915409,1.9353333,1.6271687,2.9535828,2.3855915
		c3.5110168,2.6150703,6.6709747,5.5916252,9.3223114,9.0906715c4.8722534,6.4300346,7.6369781,13.775341,9.3872375,21.560955
		c0.6486359,2.8853226,1.186264,5.7949905,1.4686127,8.7377701c0.5558472,5.7934952,2.2961578,11.3432922,3.4221191,17.0187912
		c1.0883484,5.4858246,1.7017517,11.0482101,2.7525024,16.5389175c0.0593872,0.3102341,0.0377197,0.6359482,0.053772,0.9545135
		c-3.2637939,1.303833-6.582428,2.4195786-10.0181885,3.2038116c-3.1164703,0.7113266-6.2818298,1.1122208-9.4234467,1.66082
		c-3.0315704,0.5293884-6.0936737,0.7425232-9.1736145,0.7394409c-4.2304077-0.0042343-8.4836426,0.2719727-12.655899-0.596138
		c-1.2034302-0.2503891-1.4215546,0.1192093-1.6173706,1.1066895c-0.3850555,1.9416962-0.2653351,3.8918304-0.2623901,5.8428955
		c-0.4411316,0.8073425-0.294342,1.7092896-0.3958435,2.5675964c-0.9905243,8.376976-1.7194824,16.772728-1.7455292,25.2169876
		c-0.0067902,2.2001038,0.0669098,4.3846893,0.523468,6.5547638c0.4015656,1.9087067-0.0415955,3.8243256-0.2045593,5.7283325
		c-0.181076,2.1157532-0.2705383,4.2298737-0.1432648,6.3460541c0.1518402,2.5245819-0.2316589,5.0275574-0.2313995,7.5436859
		c0.0002747,2.5966339-0.0800171,5.1951904,0.1816406,7.7869263c0.2424622,2.401474-0.2102966,4.7841187-0.2298737,7.1815948
		c-0.0185547,2.2703705,0.5234375,4.434845,1.0016937,6.6138458c1.5915985,7.2516785,1.3577728,14.5254669,0.321991,21.8117981
		c-0.3045654,2.1425323-0.3740692,4.2081604,0.3273163,6.3549805c1.772522,5.4253693,1.8140717,11.004364,0.9409332,16.6020203
		c-0.2309723,1.4807892-0.2497253,2.9243011,0.0909424,4.3914642c0.8872986,3.8212128,0.4440155,7.7200317,0.6459045,11.5819855
		c0.3085022,5.9015503,0.6915588,11.7999573,1.4322815,17.6716309c0.2583313,2.0477295,0.2249298,4.1363525,0.2557526,6.2073364
		c0.0257568,1.7311096-0.3525696,2.2270203-2.0640717,2.7422485c-3.0049744,0.9046326-6.1232452,1.1564636-9.2236786,1.4806824
		c-8.3243256,0.8704529-16.684082,0.875061-25.0398712,1.0386353c-11.5935974,0.2269592-23.1845932,0.774292-34.7774734,0.796814
		c-11.5119629,0.0223999-23.0147552-0.7998352-34.53302-0.8546448c-8.3570328-0.0397644-16.7156677-0.1080933-25.0555153-0.7388611
		c-4.2287102-0.3198242-8.4451218-0.7576904-12.5860748-1.7210693c-3.6356277-0.8458252-3.9869041-1.1677856-3.7778854-4.8088684
		c0.4413528-7.6882935,0.9998283-15.3699951,1.5411453-23.0522461c0.140564-1.9948425,0.2801247-3.9875031,0.2333336-5.9868927
		c-0.0440826-1.8836212,0.0298157-3.7575989,0.3702316-5.6125793c0.4073219-2.2195892,0.4394226-4.4304352,0.1149673-6.671875
		c-0.3644104-2.5174713-0.1079674-5.0299683,0.4367638-7.5027313c0.2282982-1.0363312,0.1923027-2.0486298,0.1161079-3.0909729
		c-0.3318748-4.5399933-1.0253105-9.059433-0.8239441-13.631073c0.1898727-4.3105927,1.2076683-8.4514313,2.6681671-12.4867859
		c0.3758659-1.0385284,0.6182938-2.0305634,0.4542694-3.1416168c-0.1813393-1.228302-0.1615372-2.4718628,0.0717125-3.7012024
		c0.3159981-1.6654663,0.1919746-3.3271332,0.1082954-5.010376c-0.1643028-3.3049622-0.1748161-6.6190948-0.1883888-9.9297028
		c-0.0528755-12.8978577-0.0415001-25.7961121-0.1398544-38.693573c-0.0396805-5.2032166-0.9885941-10.3359528-1.5531769-15.4973145
		C43.6142197,122.9056549,43.766777,121.5702896,43.1515503,120.3646698z"></path>
</g>
<g onclick="select(this)" class="" id="estampa-secundaria" fill="#bf0811">
	<path d="M134.9600067,20.824831c1.4060516-1.347496,3.6539001-3.5068474,5.0591125-4.8545103
		c2.1171875,1.757329,4.4272003,3.2749567,6.4467468,5.1550646c-0.2289276,0.5054321,0.1058502,0.702919,0.4733124,0.9121342
		c0.655838,0.3734207,1.3132324,0.7478867,1.9424896,1.1634865c3.3625641,2.2208118,6.8368225,4.2364006,10.4691162,5.9946117
		c3.522583,1.705101,8.1852264,3.4266319,11.8042145,4.8892136c-0.0066071,0.3995705-0.4592285,250.2958374-0.4312439,250.7324829
		c-2.4827576,0.4632568-5.4965973,0.4759521-7.998703,0.5437317c-8.6528168,0.2344971-17.3084412,0.3655396-25.9630737,0.5310364
		c-0.3561249,0.0068054-0.7131805-0.035614-1.068573-0.0549927c-0.6585693,0.0154419-0.5234528-1.0133972-0.523407-1.5672607
		C135.1755219,196.2159729,134.9597168,108.8787003,134.9600067,20.824831z"></path>
	<path d="M87.4564667,15.9365864c1.2686081,1.2367859,3.1485367,3.3732452,4.7413406,4.3591995
		c0.0009537,0.3996944-0.3401566,175.9908752-0.3328094,263.6890564c0.0000458,0.5485229,0.1500015,1.6487732-0.4525223,1.6034241
		c-4.1972656,0.1703491-8.3909073-0.0804443-12.5864868-0.1101379c-6.5562973-0.0464478-13.1117859-0.1420898-19.6589928-0.525177
		c-0.7905922-0.0462646-1.7719955-0.3381042-2.9873276-0.2560425c0.0298004-0.3961182-0.0979309-167.7478027-0.0987511-251.1205597
		c1.1063766-0.2653351,1.3835411-0.4900055,1.6816711-0.5922165c6.2351265-2.1376305,12.2673874-4.7322731,17.8707962-8.2215214
		c1.8136368-1.1293545,3.8074493-2.001812,5.3788986-3.5072594c1.7804718-0.9108124,3.0243988-2.5085239,4.6440048-3.6350861
		C86.3152847,17.1618786,87.0927582,16.7462177,87.4564667,15.9365864z"></path>
</g>
<g onclick="select(this)" class="" id="estampa-terciaria" fill="#f6d101">
	<path d="M91.4124756,285.5882568c-0.2810287-0.5285339-0.1400223-1.0991821-0.1400681-1.6477356
		c-0.0073395-87.6981506-0.007019-175.3963318-0.0071716-263.0945129c0-0.3996906-0.0022125-0.7993774-0.0031662-1.1990719
		c0.9144287,0.6324615,1.8251801,1.2699718,2.7442551,1.8952751c0.4648285,0.3162556,0.3098373,0.7879314,0.3103867,1.2050972
		c0.0082932,6.3135414,0.0057373,12.6270943,0.0057373,18.9406509c0.0000076,80.8370056,0.0001221,161.6740112-0.002243,242.5110321
		c-0.0000153,0.4781799-0.034256,0.9564209-0.052536,1.4346008
		C93.3159256,285.6184998,92.3642044,285.603363,91.4124756,285.5882568z"></path>
	<path d="M54.0605164,284.4508667c-0.0166016-0.5184937-0.0477257-1.0369873-0.0477371-1.555481
		c-0.0021477-82.2222443-0.0020599-164.4444885-0.0020599-246.666748c0-1.9766846-0.000843-1.9792671,1.8517189-2.5851097
		c0.3378944-0.1105003,0.6858177-0.1903648,1.0291786-0.2843513c0.0008965,83.3727875,0.0018311,166.7455444-0.0011253,250.1183014
		c-0.0000153,0.3962402-0.0554543,0.7924805-0.0852509,1.1885986
		C55.8756332,284.779541,54.9723206,284.5610352,54.0605164,284.4508667z"></path>
	<path d="M170.1681671,33.6807556c2.8605652,0.7243462,2.8605652,0.7243462,2.8605652,3.6141434
		c0,81.9148712,0.0001068,163.8297424-0.0022736,245.7446289c-0.0000153,0.5580139-0.0343933,1.1160278-0.0527344,1.6739807
		c-0.9084625,0.1427917-1.8165894,0.2904358-2.741684,0.1911926c-0.0277405-0.4367981-0.0802002-0.8734131-0.0802002-1.3100586
		c-0.0036163-82.9050598-0.0034943-165.8101196-0.0026398-248.7151642
		C170.1492004,34.4799004,170.1615601,34.0803261,170.1681671,33.6807556z"></path>
	<path d="M135.8017731,20.0129776c-0.0002747,88.0538635-0.0003204,176.1077271-0.0058441,264.1615906
		c-0.0000458,0.5538635,0.1013947,1.1190796-0.1025238,1.6625366c-0.8253632,0.0193176-1.6495361,0.0387268-2.4736786,0.058075
		c-0.0168152-0.5585327-0.0483551-1.1170654-0.0483704-1.6756287
		c-0.0021667-86.5476685,0.0101318-173.0953369-0.0676422-259.6429443
		C133.1016388,22.2488174,133.8906555,20.9385948,135.8017731,20.0129776z"></path>
</g>
<g onclick="select(this)" class="" id="gola-primaria" fill="#082890">
	<path d="M77.9532471,7.9597087c0.5442505-0.060823,0.9727707-0.3512921,1.3516617-0.7144079
		c0.9517365-0.9121184,2.0429764-1.7265453,2.8068085-2.7772608c1.8079834-2.4870243,4.3546143-3.3584313,7.2153091-3.7517483
		c0.6288223-0.0864561,1.3583603,0.0999947,1.8729782-0.4764293c1.1999969,0,2.4000015,0,3.5999985,0
		c0.1687851,0.4909054,0.5990448,0.3124139,0.9139023,0.3135658c5.578331,0.0204086,11.1567383,0.0201361,16.7350998,0.0349731
		c0.4080353,0.0010852,0.7730331-0.0500705,1.0709991-0.3485389c7.5200043,0,15.0400085,0,22.5599976,0
		c0.0825958,0.4743731,0.4898376,0.314371,0.7612457,0.3588615c0.9795685,0.1605658,1.9686432,0.2631895,2.9482422,0.4236063
		c1.9836426,0.3248397,3.6553192,1.1195358,4.9371796,2.7921867c1.2989502,1.6949463,2.7366943,3.3046651,4.6419373,4.3876162
		c1.3338318,0.559351,1.940094,1.5309258,1.8434601,3.0019283c-0.235611,3.5861683-1.9489136,6.5051785-4.0314026,9.2897568
		c-0.4823914,0.6450272-0.8012085,0.5242634-1.3224487,0.1134567c-1.6621094-1.3100014-3.3261108-2.6210308-5.045578-3.8533516
		c-0.7900696-0.5662289-0.9149628-0.926733-0.2011108-1.7098112c1.5596924-1.7109747,2.8257294-3.6363506,3.6953278-5.9588709
		c-3.8121643,0.2876577-7.46698,0.5966864-11.1264954,0.832839c-8.2862701,0.5347214-16.5606079,1.3604345-24.8863144,0.8980713
		c-7.9773407-0.443017-15.9347458-1.1162539-23.8829803-1.9115543c-1.285965-0.1286755-1.369072-0.044939-0.8895187,1.1417885
		c0.8056946,1.9938097,2.0816574,3.6765404,3.5389481,5.2270527c0.5396957,0.5742092,0.6279068,0.9768744-0.0833054,1.5165873
		c-1.717453,1.3033161-3.394783,2.6610584-5.0562897,4.0355015c-0.5477753,0.4531364-0.8727188,0.4428539-1.3376007-0.1304188
		c-1.9395523-2.3917847-3.4067764-5.0153084-4.1501999-8.0189981C75.8739624,10.416997,76.2670898,9.2020445,77.9532471,7.9597087z"></path>
</g>
<g onclick="select(this)" class="" id="detalhe-punho" fill="#bf0811">
	<path d="M0.24,114.6542282c0.583228-1.0720215,0.3827578-2.3065491,0.7111229-3.43367
		c0.1536794-0.5275192,0.13833-1.1031189,0.4512064-1.5867462c1.2291592,1.0343246,2.7790718,1.3415833,4.2283468,1.8888321
		c3.6061287,1.3616714,7.367116,2.0423889,11.1697559,2.440567c4.2078915,0.4405899,8.4417095,0.519043,12.6740704,0.5230713
		c1.5134487,0.0014343,3.0558319,0.2645264,4.5338783,0.0523834c2.6286621-0.3772812,5.3476563-0.3664093,7.8384094-1.4879227
		c0.4523659-0.2036667,0.6015778-0.0577393,0.6915321,0.4280777c0.4217567,2.2779388,0.4727287,4.5851746,0.6132278,6.885849
		c-0.5703659,0.5544662-1.3241272,0.738678-2.0481415,0.9182892c-2.2502251,0.558197-4.5420418,0.9585571-6.8565636,1.0050888
		c-7.5839615,0.1524811-15.1675758,0.2204361-22.6745911-1.1818542c-3.0145712-0.5631256-6.0234237-1.1427994-8.9364958-2.1202469
		c-0.8156703-0.2736893-1.598085-0.6463776-2.3957574-0.9736481C0.24,116.8929443,0.24,115.7735825,0.24,114.6542282z"></path>
	<path d="M184.6303711,120.0952835c-0.0029449-1.9510651-0.1226654-3.9011993,0.2623901-5.8428955
		c0.195816-0.9874802,0.4139404-1.3570786,1.6173706-1.1066895c4.1722565,0.8681107,8.4254913,0.5919037,12.655899,0.596138
		c3.0799408,0.0030823,6.1420441-0.2100525,9.1736145-0.7394409c3.1416168-0.5485992,6.3069763-0.9494934,9.4234467-1.66082
		c3.4357605-0.7842331,6.7543945-1.8999786,10.0181885-3.2038116c0.9974213,2.4374161,1.2762146,4.9902496,1.1629181,7.5927658
		c-0.0325317,0.747139-0.7740631,0.8473129-1.2987061,1.0544434c-2.490799,0.9832916-5.0855103,1.6438446-7.6618347,2.3490143
		c-9.1388245,2.5013885-18.4691162,3.110321-27.8868713,2.635231c-2.0218353-0.102005-4.0606384-0.308609-6.0298462-0.8818054
		C185.5262299,120.7300262,184.9997559,120.5578766,184.6303711,120.0952835z"></path>
</g>
</svg>
