<!--?xml version="1.0" encoding="utf-8"?-->
<!-- Generator: Adobe Illustrator 24.2.3, SVG Export Plug-In . SVG Version: 6.00 Build 0)  -->
<svg version="1.1" id="Camada_1" xmlns="http://www.w3.org/2000/svg" xmlns:xlink="http://www.w3.org/1999/xlink" x="0px" y="0px" viewBox="0 0 229 418" enable-background="new 0 0 229 418" xml:space="preserve">
<g onclick="select(this)" class="" id="estampa-primaria" fill="#082890">
	<path d="M42.9015503,115.9582062c-0.3582153-0.7642746-0.1840019-1.6562042-0.6075783-2.4174118
		c-0.2068787-0.3717728-0.4053726-0.6435699-0.8126144-0.385643c-1.3330765,0.8442764-2.8777161,0.6166916-4.3144798,0.7833557
		c-1.6506691,0.1914902-3.3194733,0.3798523-5.0072746,0.3350449c-1.8687019-0.049614-3.7426872,0.1406937-5.6153297,0.1905441
		c-4.3735962,0.1164551-8.6608295-0.536705-12.9639568-1.267395c-4.1913567-0.7117081-8.2543278-1.7680359-12.204361-3.3069839
		c1.7979251-9.5085754,2.690742-19.1514053,4.2618089-28.6950073c0.8433952-5.1232834,1.1589942-10.3244934,2.2574725-15.4171219
		c1.7712955-8.211853,4.539505-15.9882011,9.6406498-22.7842369c2.098362-2.7955627,4.4700012-5.3400726,7.2143879-7.5032806
		c1.3363495-1.0533485,2.3008671-2.5357018,3.83251-3.3354187c3.6149693-1.8874855,7.2577724-3.7249832,11.0306263-5.2795029
		c9.9878883-4.1152878,19.997757-8.1806355,29.4594574-13.4460382c1.9744949-1.0987949,4.0122757-2.076231,5.5173645-3.8995132
		c0.8103714-0.9816818,1.9930954-1.5898461,3.3724442-1.553793c-1.7018661,1.1601915-2.1499405,2.6644144-1.4915237,5.0432663
		c0.7916718,2.8602848,2.2438583,5.3656378,4.0902557,7.6677713c0.4383774,0.5465698,0.7937775,0.6504498,1.3657074,0.175869
		c1.6908875-1.4030895,3.39254-2.7955418,5.1376801-4.1297684c0.726944-0.5557842,0.4563751-0.9632101,0.0053787-1.4499426
		c-1.4475937-1.5622911-2.7400894-3.2315817-3.5411911-5.2302885c-0.4712296-1.1756763-0.373436-1.2586651,0.9094391-1.138237
		c5.5268402,0.5188293,11.0469513,1.1175938,16.59095,1.4390802c4.657814,0.2700958,9.3065109,0.8889217,13.9781036,0.6748371
		c6.0571289-0.2775784,12.1086197-0.6877708,18.1597137-1.0839634c3.657959-0.2395029,7.3105621-0.5606642,11.1142273-0.8567047
		c-0.8469849,2.3506823-2.1496582,4.2498131-3.6850128,5.9839993c-0.6174011,0.697341-0.6493073,1.0703592,0.1443939,1.63943
		c1.7848511,1.279705,3.5015717,2.6544971,5.2452545,3.9915733c0.3096466,0.2374344,0.5765381,0.58881,0.9760437,0.0750751
		c2.2104645-2.842392,4.0240784-5.8491669,4.2547302-9.577178c0.091217-1.4743109-0.5216522-2.4446402-1.8673248-2.98913
		c1.8109589-0.1458616,2.9689636,0.9549904,4.0524902,2.158989c0.3441467,0.3824158,0.6605682,0.7439976,1.109024,1.0421343
		c8.8989868,5.915884,18.8488464,9.6554871,28.6195068,13.7379513c5.0675659,2.1173687,10.0319061,4.4581718,15.0887146,6.5925102
		c0.284317,0.1200066,0.5492554,0.2973919,0.803009,0.4766598c12.3474121,8.7226372,19.3888855,20.7741318,21.5631561,35.5577736
		c1.3981476,9.5065079,3.740387,18.8089752,5.3299561,28.2635193c0.6953278,4.1357269,1.2913818,8.288147,1.9325714,12.4330292
		c-4.8773041,1.3366852-9.7242584,2.7628632-14.7236633,3.6478729c-3.059021,0.5415192-6.1280823,1.0443039-9.1912689,1.550148
		c-2.4340668,0.4019241-4.9407806,0.1485519-7.4164124,0.1532593c-3.8369598,0.0073166-7.6528015-0.1761093-11.4178925-0.9801178
		c0.006424-0.2779236-0.0164948-0.5599823,0.0235443-0.8328018c0.7101898-4.8389969,1.6134644-9.6413193,2.6732178-14.4167099
		c0.4210815-1.8975601,1.1762238-3.7168427,1.3225861-5.6770554c0.3049774-0.1658936,0.3160553-0.3734512,0.091217-0.6340866
		c-0.1040802,0.2180328-0.2043762,0.4169693-0.0789948,0.643013c-0.501236,0.3148499-0.5702209,0.8867645-0.7771301,1.3630371
		c-1.7913666,4.1231003-3.0579529,8.4283066-4.1745453,12.7650375c-2.4154663,9.3814621-3.9850464,18.9117355-4.934082,28.5586929
		c-0.4713135,4.7909851-0.8210602,9.5890503-1.1429749,14.3869171c-0.3204803,4.7765656-0.4871979,9.5722656-0.4906158,14.359726
		c-0.0122223,17.0743103-0.2897186,34.1485138,0.1535187,51.2236938c0.189682,7.3079681,0.2587585,14.6186981,0.5118103,21.9272461
		c0.1685333,4.8679504,0.324707,9.7367249,0.4883881,14.6051025c0.2025757,6.0246582,0.4620056,12.0448608,0.7454224,18.0659485
		c0.2346649,4.984436,0.4097137,9.9707947,0.8125,14.9457092c-7.6541748,1.0762939-15.3588867,1.3634338-23.0744476,1.4551086
		c-12.948288,0.1537781-25.8903046,0.5632019-38.8333588,0.9298096c-6.7613373,0.1914673-13.4970322-0.4650879-20.2488022-0.5759583
		c-8.7113647-0.1430054-17.4234085-0.2502441-26.1341782-0.4224243c-8.0719566-0.1594849-16.1438904-0.3657227-24.1432991-1.6237793
		c-0.2364006-0.0371704-0.4707642-0.0872803-0.7055664-0.1313171c0.5522766-3.760437,0.4843102-7.563385,0.7422867-11.3439636
		c0.3829613-5.6121521,0.5773125-11.2389221,0.7618713-16.862381c0.1466675-4.4688721,0.2878494-8.9368439,0.4793053-13.404541
		c0.2581787-6.0247192,0.372776-12.0558167,0.5228691-18.0848236c0.1044083-4.1944122,0.1779137-8.3939362,0.1947098-12.5851593
		c0.0682449-17.0319672,0.3574524-34.0655212-0.1396637-51.097641c-0.1268425-4.345932-0.250412-8.6867218-0.4991493-13.0291138
		c-0.2458115-4.2913055-0.5758209-8.5695953-0.994976-12.8463898c-0.4458656-4.5494232-1.0501556-9.068306-1.8188705-13.5770264
		c-1.0780983-6.3233795-2.288002-12.6080475-4.1808014-18.7436981c-0.5832748-1.8907318-1.0551758-3.8256378-1.8989029-5.694313
		c-0.301857,0.297966-0.245224,0.5402145-0.2063065,0.7647934c0.5728493,3.3060379,1.2751579,6.5955887,1.6916161,9.9209976
		C42.2031326,110.1012878,43.0151329,112.9762115,42.9015503,115.9582062z"></path>
</g>
<image overflow="visible" width="461" height="78" xlink:href="6BCFDED9.jpg" transform="matrix(1 0 0 1 -7894 -7770.1103516)">
</image>
<g onclick="select(this)" class="" id="estampa-secundaria" fill="#801815">
	<path d="M174.3967743,284.8035889c-2.2888794,0.3658142-4.6030426,0.4369812-6.9106445,0.5372314
		c-7.9725189,0.3463135-15.9520721,0.3966064-23.9300842,0.5079651c-3.189209,0.0445251-6.3735046,0.3215637-9.5663452,0.2087708
		c-0.0103455-3.4763184-0.0186768-6.9526978-0.0322571-10.4290161c-0.0042877-1.0965271-0.0107422-1.105957-1.1199646-1.1061707
		c-12.6282501-0.0022278-25.2564926-0.0021362-37.8847351-0.0002441c-1.1310577,0.0001831-1.1337891,0.0081177-1.1372757,1.2060852
		c-0.0097809,3.3566589-0.0170898,6.7132874-0.0253677,10.0699158c-4.2320404,0.0722656-8.4625473-0.0267334-12.6933746-0.1066284
		c-5.9881973-0.1130066-11.9797058-0.0915527-17.9637604-0.3673706c-3.265976-0.1506042-6.5410118-0.2246704-9.7799492-0.7469788
		c-0.0114555-2.9985046-0.020237-5.9970093-0.03582-8.9955139c-0.0054398-1.0455933-0.013092-1.0570679-1.0478897-1.0586548
		c-3.5587997-0.0054321-7.1176186,0.0004578-10.6764221-0.0036621c-1.0022507-0.0011597-1.002243-0.0101318-1.0699997-1.0344849
		c0.5970192-5.726532,0.7297363-11.4873657,1.2662277-17.2178345c0.276268-2.950882,0.3171196-5.9043579,0.3011894-8.8639069
		c-0.0081825-1.5211792,0.229435-3.0294647,0.4875832-4.5244598c0.2883415-1.6698151,0.3317337-3.3236084,0.0520859-4.9978943
		c-0.1976509-1.1833191-0.2488937-2.3825073-0.1245499-3.5823669c3.2323647-0.019455,6.4647331-0.0380859,9.6970901-0.0588226
		c1.103981-0.0070953,1.1141472-0.0095215,1.1143646-1.1003418c0.0025063-12.6552734,0.002739-25.3105164-0.000164-37.9657898
		c-0.0002365-1.0375671-0.0129166-1.042984-1.0525017-1.0514069c-2.2746735-0.0184479-4.5493965-0.030838-6.8240967-0.0456696
		c0.3623199-2.3826599-0.034687-4.7770844,0.0616302-7.1439667c0.1512833-3.7178345-0.1630669-7.4077911-0.1953621-11.1105042
		c-0.010498-1.2036133,0.1872673-2.3835907,0.23983-3.5783997c0.1406631-3.1971436-0.3143158-6.3751526-0.2820587-9.5677338
		c0.0302124-2.9907074,0.0692863-5.9813385,0.1044617-8.9719849c2.3184814-0.0187531,4.6370125-0.0336914,6.9554367-0.058075
		c0.9747658-0.0102539,0.9917641-0.0193024,0.9920578-0.9961548c0.0038795-12.6396942,0.0037918-25.2793884,0.0001144-37.9190903
		c-0.0002975-1.0189056-0.0159531-1.0294266-1.0807228-1.0316849c-2.8399239-0.0060349-5.6801147-0.0228577-8.5196228,0.0119858
		c-0.7348518,0.0090179-1.0250359-0.1625671-1.1043015-0.9677658c-0.210762-2.1410217-0.5495338-4.2696075-0.8447762-6.4021072
		c-0.5134621-3.7086487-0.9708443-7.4230499-1.9090614-11.0632019c-1.327137-5.1490784-3.1815605-10.1060791-5.3208427-14.9597473
		c-0.8771057-1.9900284-1.5740967-4.0011978-1.6882362-6.1920395c-0.0340958-0.6544495,0.1352882-0.9414215,0.850174-0.912941
		c1.2380028,0.0493469,2.4793968,0.0134048,3.719368,0.0133896c4.9598808-0.0000381,9.9197693,0.0027313,14.8796425-0.0023193
		c0.9988098-0.0010147,0.9998817-0.0146408,1.0199738-0.9636917c0.0050774-0.2398911,0.0008049-0.4799805,0.0008049-0.7199707
		c0.0000038-11.8797188-0.0000229-23.7594337,0.0000763-35.6391525c0.0000038-0.3199883,0.0058975-0.6400528,0.0006104-0.9599419
		c-0.0051231-0.3096809,0.0827484-0.5332489,0.4201736-0.6266861c2.0638618-0.5715141,4.0310364-1.3907547,6.2706299-1.3756027
		c10.7992516,0.073082,21.5992622,0.0336227,32.3990059,0.0319214c1.2383118-0.0001907,1.243515-0.0064545,1.2448578-1.241724
		c0.003212-2.9599285-0.003212-5.9198742,0.0063019-8.8797741c0.0012207-0.3806629-0.1013489-0.7832508,0.138237-1.2105312
		c13.4640961,9.1702003,26.8783493,9.296814,40.3285904-0.3637676c0,2.5642834-0.0001526,4.9151478,0.0000305,7.2660141
		c0.0001068,1.2399673,0.012558,2.4800987-0.0045166,3.7198257c-0.006897,0.5013008,0.1738586,0.7461281,0.6960754,0.7131996
		c0.3187103-0.020092,0.6397552-0.0023308,0.9597626-0.0023308c9.6797485,0.0000801,19.3598175,0.039917,29.039093-0.0285149
		c2.3602448-0.0166893,4.60495,0.2758484,6.7789459,1.1704941c0.5528564,0.22752,1.115509,0.4318466,1.6770172,0.6376495
		c1.2834473,0.4703979,1.1552124,0.0977898,1.1558533,1.6490936c0.004776,11.5997238,0.0026093,23.1994438,0.002594,34.7991676
		c0,2.0266266-0.0000458,2.0266266,2.0031128,2.0266266c5.6398773,0.0000076,11.2797241-0.0006638,16.9195862,0.0005035
		c1.2887573,0.0002747,1.3222809,0.0060043,1.2124786,1.3217316c-0.0760498,0.9112167-0.2745056,1.8115463-0.3937531,2.7199478
		c-0.4141388,3.1545258-1.4619293,6.1500092-2.6981812,9.028717c-1.1062622,2.5760193-2.0683746,5.1772842-2.831192,7.8611984
		c-1.231842,4.3340988-2.0380402,8.7643738-2.816391,13.1939316c-0.3500824,1.9923248-0.8609314,3.9793167-0.782608,6.0333328
		c-0.0101166,0.080864-0.0202332,0.1617279-0.0303802,0.2425995c-3.1160583,0.1565628-6.2341766,0.0280685-9.3511047,0.0670624
		c-1.225235,0.0153275-1.2303162,0.0084457-1.2307129,1.2473755c-0.0019073,5.8378067-0.0008545,11.6756134-0.0008545,17.5134125
		c-0.0000153,6.6374969-0.0002136,13.2749786,0.0001068,19.9124908c0.000061,1.380127-0.0903625,1.2742157,1.3151398,1.2790985
		c2.3588104,0.0081787,4.7176208,0.0173798,7.0764313,0.0261536c0.5244598,1.4377899,0.3546906,2.9234924,0.2129211,4.3822632
		c-0.2238922,2.3034363-0.5295563,4.6063995-0.3956299,6.9191437c0.2082214,3.5960999-0.2483215,7.1716614-0.2142792,10.7599487
		c0.0177765,1.8739624,0.0053101,3.745163,0.1559753,5.6190643c0.1469116,1.8269806,0.0797424,3.6588745-0.0984039,5.4945374
		c-0.2356873,2.4285889-0.0996704,4.8540039,0.5592194,7.2259827c-2.5145874,0.0153656-5.0291748,0.0283661-7.5437317,0.0471649
		c-1.0522766,0.0078888-1.0655975,0.0134888-1.0658264,1.0406494c-0.0029602,12.6972809-0.0030212,25.3945465,0.0009918,38.0918274
		c0.0003052,0.9670868,0.0172119,0.9791718,0.9910736,0.9830017c2.0762329,0.008194,4.1525726-0.0046692,6.2288208,0.0052185
		c1.2763214,0.0060883,2.5525208,0.0383301,3.8287659,0.0588379c0.107132,2.0059357-0.163269,3.9911804-0.4744568,5.95578
		c-0.2935791,1.8535614-0.1373596,3.6356659,0.2118683,5.4548645c0.4677734,2.4366455,0.6035919,4.910965,0.4945374,7.3937073
		c-0.1846008,4.2033844,0.3283386,8.3720856,0.6300049,12.5507355c0.1694794,2.3479309,0.4046021,4.6911621,0.5708466,7.0392761
		c0.0423737,0.5984802,0.349411,1.1530457,0.2446594,1.7659912c-0.4367218,0.0197144-0.8734283,0.0556335-1.3101807,0.0564575
		c-2.668869,0.0053101-5.3381195-0.023468-8.006424,0.0152588c-1.0993347,0.0159302-2.2143555-0.2045593-3.3005829,0.1427612
		c-0.2394714,1.0588379-0.0872498,2.1321106-0.1041718,3.1978455
		C174.4029999,280.1836243,174.4085083,282.4937439,174.3967743,284.8035889z M93.6550217,93.5136108
		c0-1.479248-0.0000153-2.9584808,0-4.4377289c0.0000458-4.8774948,0.0027771-9.7549896-0.0020599-14.6324921
		c-0.0009918-1.0006104-0.0140076-1.0008774-0.962677-1.0218353c-0.1198807-0.002655-0.2398682-0.0003662-0.3598099-0.0003662
		c-12.5135727,0.0000076-25.027153-0.0000076-37.5407333,0.0001755c-0.2398682,0.0000076-0.4801102,0.011528-0.7195053,0.0014954
		c-0.396244-0.0166168-0.5965652,0.1474075-0.5814934,0.5606155c0.0116539,0.3193436-0.0014725,0.6395416-0.0014801,0.9593658
		c-0.0002098,12.353653-0.0001755,24.7073212-0.0001717,37.0609741c0,0.2398758,0.0228691,0.4823761-0.0042877,0.7191391
		c-0.0755081,0.6581955,0.2566185,0.849968,0.84589,0.7870255c0.1581039-0.0168915,0.319561-0.0022812,0.4794769-0.0022812
		c12.5135841,0.0000229,25.0271568,0.0000381,37.5407372-0.0001144c0.2398682,0,0.4800491-0.0103607,0.7195282-0.0012665
		c0.395546,0.0150223,0.595665-0.1558304,0.585022-0.5627747c-0.007309-0.2796249,0.0014572-0.5596313,0.0014648-0.8394775
		C93.655098,105.9072495,93.6550522,99.7104263,93.6550217,93.5136108z M154.1964111,73.4211655
		c-6.2752991,0-12.5505981-0.0007401-18.8258972,0.0006256c-1.2374268,0.000267-1.2425232,0.0040054-1.2426453,1.2189407
		c-0.0013123,12.5506058-0.0012665,25.1012115-0.0001221,37.6518173c0.0001068,1.2106323,0.0046997,1.2144852,1.2483368,1.2145767
		c12.5506134,0.0009766,25.1012115,0.0009918,37.651825-0.0000153c1.2372131-0.0000992,1.2416229-0.0040588,1.2417297-1.2203293
		c0.0010986-12.5506058,0.0011597-25.1012115-0.0001221-37.6518173c-0.0001068-1.2095108-0.0051575-1.2129745-1.2471924-1.2132187
		C166.7470245,73.4204788,160.4717255,73.4211578,154.1964111,73.4211655z M93.6551361,174.0064545
		c0-6.3174438,0.000885-12.6348877-0.0007858-18.9523315c-0.0003128-1.2107544-0.0049438-1.2150726-1.2514496-1.2151794
		c-12.5549164-0.0010986-25.1098328-0.0010681-37.6647568-0.000061c-1.2453613,0.0000763-1.2502594,0.0040436-1.2503738,1.2116699
		c-0.0012169,12.5549316-0.0012054,25.109848,0.0000191,37.6647644c0.0001221,1.2108612,0.0050125,1.21492,1.2464104,1.2150116
		c12.5549164,0.0010681,25.1098404,0.0010834,37.6647568,0.0000458c1.2536011-0.0000916,1.2556229-0.0041809,1.2557907-1.3314667
		C93.6555176,186.401413,93.6550827,180.203949,93.6551361,174.0064545z M154.1949158,153.8382721
		c-6.2759705,0-12.5519409-0.0007782-18.8279266,0.0006714c-1.2346649,0.0002899-1.2391815,0.0042419-1.2393036,1.2220764
		c-0.0011292,12.5519409-0.0011139,25.1038818,0.0001068,37.6558228c0.0001221,1.2097473,0.0049744,1.2134857,1.2466278,1.2135925
		c12.5519409,0.0009613,25.1038971,0.0009766,37.655838-0.0000458c1.2344208-0.0000916,1.239212-0.0041046,1.2393188-1.2215729
		c0.0012054-12.5519409,0.0012054-25.1038971,0.0000153-37.655838c-0.0001068-1.2101135-0.0048981-1.2138062-1.2467499-1.2140808
		C166.7468567,153.8375397,160.4709015,153.8382721,154.1949158,153.8382721z M114.0048218,194.1208801
		c-6.3180008,0-12.6360092-0.0008392-18.9540176,0.0007324c-1.2298737,0.0003052-1.2349396,0.0046387-1.2350693,1.2298584
		c-0.0012436,12.5560303-0.0012054,25.1120605,0.0000916,37.6681061c0.0001221,1.2159271,0.0051651,1.2197418,1.2352982,1.2198334
		c12.5560303,0.0009613,25.1120682,0.0009918,37.6680984-0.0000305c1.2328339-0.0001068,1.2382965-0.0041351,1.2384491-1.2201233
		c0.0014191-12.5560455,0.0014038-25.1120758,0.0001831-37.6681061c-0.0001221-1.2246094-0.005127-1.229187-1.2389526-1.2295074
		C126.4808807,194.1199799,120.2428513,194.1208801,114.0048218,194.1208801z M73.6844101,234.2438965
		c-6.3171463,0-12.634285-0.0007019-18.9514313,0.0006256c-1.2405396,0.0002594-1.2451324,0.0039063-1.2452469,1.2145081
		c-0.0011482,12.5543213-0.001194,25.1086578,0.0000877,37.6629791c0.0001259,1.2043457,0.0052414,1.208252,1.2529564,1.208374
		c12.5543213,0.0010376,25.1086426,0.0010681,37.6629715,0c1.2454529-0.0001221,1.2504883-0.0043335,1.250618-1.216156
		c0.0012589-12.5543213,0.0012436-25.1086426-0.0000153-37.6629639c-0.0001144-1.2026672-0.0051727-1.2064514-1.2584152-1.2067261
		C86.1587677,234.2431335,79.9215851,234.2438965,73.6844101,234.2438965z M154.3300781,234.2438965
		c-6.3156586,0-12.6313171-0.0006714-18.9469757,0.0005646c-1.2502441,0.0002441-1.2552185,0.0036316-1.2553406,1.203949
		c-0.0012207,12.5513763-0.0011749,25.1027374-0.000061,37.6540985c0.0001068,1.2235718,0.0044861,1.2277527,1.2322998,1.2278748
		c12.5513916,0.0010681,25.1027527,0.0010376,37.6541443,0.0001221c1.2498932-0.0000916,1.2552185-0.0036621,1.2553558-1.2054443
		c0.0013275-12.5513916,0.0012207-25.1027832,0.0001831-37.6541443c-0.0000916-1.2221527-0.0042572-1.2260895-1.2324524-1.2263641
		C166.8015137,234.243103,160.5658112,234.2438965,154.3300781,234.2438965z M113.8333969,73.2263184
		c6.3179169,0,12.6358414,0.0011139,18.9537735-0.0009918c1.1637573-0.0003967,1.1703186-0.006424,1.1704712-1.1736679
		c0.0016174-12.5158882,0.0016022-25.0317726,0.0000458-37.5476608c-0.0001678-1.2290802-0.0063934-1.2348137-1.2468719-1.2349548
		c-12.5558624-0.0014496-25.1117325-0.0014801-37.6675949,0.0000458c-1.2219925,0.0001488-1.2273331,0.0062141-1.227478,1.2502785
		c-0.0013504,12.5158844-0.0014572,25.0317726,0.0002213,37.547657c0.0001526,1.1523819,0.0069885,1.1579819,1.1836166,1.1583557
		C101.2775192,73.2273636,107.5554504,73.2263107,113.8333969,73.2263184z M113.7972412,153.6475677
		c6.2375793,0,12.4751511,0.0025482,18.7127228-0.001709c1.6404877-0.0011139,1.4453278,0.1440277,1.4463348-1.5011749
		c0.0050812-8.3567505,0.0023193-16.7134857,0.0023193-25.0702286c0-4.1183929,0.0036469-8.2368011-0.002655-12.3551941
		c-0.0015259-0.9987793-0.0165558-0.9995804-0.9709778-1.021843c-0.1998291-0.0046539-0.399826-0.0007553-0.599762-0.0007553
		c-12.3551788-0.0000076-24.7103806,0-37.065567,0.0000381c-0.2399063,0-0.4810944,0.0165176-0.7194519-0.0025864
		c-0.5364761-0.0429764-0.8546524,0.1232834-0.7879639,0.7307816c0.0216751,0.1975098,0.0027161,0.3994675,0.0027161,0.5993881
		c-0.0000381,12.4351578-0.0000305,24.8703079,0.0000153,37.3054733c0,0.1999207,0.0133972,0.4008179-0.0016937,0.5995636
		c-0.0371628,0.4895477,0.1300507,0.7670746,0.6717834,0.7205963c0.238121-0.0204315,0.4795151-0.0023956,0.7194214-0.0023956
		C101.4020691,153.647583,107.5996552,153.6475677,113.7972412,153.6475677z"></path>
</g>
<g onclick="select(this)" class="" id="gola-primaria" fill="#082890">
	<path d="M77.9626083,7.975801c0.8916397-0.1464872,1.4546051-0.8052793,2.0635757-1.3673048
		c0.7333908-0.6768517,1.530632-1.3283091,2.0977325-2.1334014c1.7713394-2.514663,4.3414764-3.368772,7.2027588-3.7580032
		C89.9555435,0.6315448,90.6842194,0.8125577,91.2000046,0.24c1.1999969,0,2.4000015,0,3.5999985,0
		c0.1689911,0.4921721,0.5998154,0.3104457,0.9138184,0.3115883c5.5778732,0.0202972,11.1558151,0.0196854,16.7337112,0.0337915
		c0.4070816,0.0010295,0.7741394-0.0454374,1.0724716-0.3453798c7.5200043,0,15.0400085,0,22.5599976,0
		c0.0950165,0.5737573,0.5538483,0.4839317,0.9309387,0.4813282c0.9624634-0.0066444,1.9052887,0.1363344,2.847229,0.3072239
		c1.939621,0.351892,3.5893097,1.1134266,4.84552,2.76226c1.2997437,1.7059848,2.7572174,3.3055561,4.645813,4.420681
		c1.3456726,0.5444899,1.9585419,1.5148191,1.8673248,2.98913c-0.2306519,3.7280111-2.0442657,6.734786-4.2547302,9.577178
		c-0.3995056,0.5137348-0.6663971,0.1623592-0.9760437-0.0750751c-1.7436829-1.3370762-3.4604034-2.7118683-5.2452545-3.9915733
		c-0.7937012-0.5690708-0.761795-0.9420891-0.1443939-1.63943c1.5353546-1.7341862,2.838028-3.633317,3.6850128-5.9839993
		c-3.8036652,0.2960405-7.4562683,0.6172018-11.1142273,0.8567047c-6.0510941,0.3961926-12.1025848,0.806385-18.1597137,1.0839634
		c-4.6715927,0.2140846-9.3202896-0.4047413-13.9781036-0.6748371c-5.5439987-0.3214865-11.0641098-0.9202509-16.59095-1.4390802
		c-1.2828751-0.1204281-1.3806686-0.0374393-0.9094391,1.138237c0.8011017,1.9987068,2.0935974,3.6679974,3.5411911,5.2302885
		c0.4509964,0.4867325,0.7215652,0.8941584-0.0053787,1.4499426c-1.7451401,1.3342266-3.4467926,2.7266788-5.1376801,4.1297684
		c-0.5719299,0.4745808-0.92733,0.3707008-1.3657074-0.175869c-1.8463974-2.3021336-3.298584-4.8074865-4.0902557-7.6677713
		C75.8127365,10.6402187,76.2608109,9.1359959,77.9626083,7.975801z"></path>
</g>
<g onclick="select(this)" class="" id="detalhe-punho" fill="#801815">
	<path d="M227.8479767,108.4740906c0.6809387,0.9812927,0.4194031,2.2056732,0.8383636,3.2553482
		c0.0808563,0.2025299-0.0243988,0.4886475,0.2736664,0.5905685c0,1.2799988,0,2.5599976,0,3.8399963
		c-2.501297,1.4985352-5.3547058,2.0023651-8.0946045,2.7934341c-9.3957672,2.7127533-19.0183411,3.3735809-28.7368469,2.8892288
		c-2.0160675-0.1004715-4.0475006-0.3125916-6.0154114-0.8739777c-0.5465698-0.1559219-1.0403595-0.3766327-1.4846954-0.7214279
		c-0.2615814-2.493866,0.3591003-4.9316864,0.4702148-7.4018784c3.7651215,0.8038483,7.5809631,0.9872742,11.417923,0.9799576
		c2.4756317-0.0047073,4.9823456,0.2486649,7.4164124-0.1532593c3.0631866-0.5058441,6.1322479-1.0086288,9.1912689-1.550148
		C218.1236725,111.2369232,222.9706268,109.8107452,227.8479767,108.4740906z"></path>
	<path d="M0.24,114.7200012c0.4935786-1.1680832,0.3756018-2.4553986,0.7118917-3.6554031
		c0.1131556-0.4037933-0.0013308-0.8847122,0.424064-1.174881c3.9500327,1.5389481,8.0130043,2.5952759,12.204361,3.3069839
		c4.3031273,0.73069,8.5903606,1.3838501,12.9639568,1.267395c1.8726425-0.0498505,3.7466278-0.2401581,5.6153297-0.1905441
		c1.6878014,0.0448074,3.3566055-0.1435547,5.0072746-0.3350449c1.4367638-0.1666641,2.9814034,0.0609207,4.3144798-0.7833557
		c0.4072418-0.2579269,0.6057358,0.0138702,0.8126144,0.385643c0.4235764,0.7612076,0.2493629,1.6531372,0.6075783,2.4174118
		c0.0719643,1.5249481,0.5883255,3.0182419,0.3252678,4.5670471c-2.7905273,1.3669128-5.828289,1.7201385-8.8434486,1.8076859
		c-7.6257458,0.2214127-15.2557678,0.2586136-22.80797-1.1545029c-3.0544977-0.5715332-6.1004725-1.1680756-9.053031-2.1535645
		c-0.7791134-0.2600555-1.5225506-0.6270065-2.2823682-0.94487C0.24,116.9600067,0.24,115.840004,0.24,114.7200012z"></path>
</g>
<g onclick="select(this)" class="" id="detalhe-lateral" fill="#801815">
	<path d="M189.118042,91.9186554c-0.1463623,1.9602127-0.9015045,3.7794952-1.3225861,5.6770554
		c-1.0597534,4.7753906-1.963028,9.577713-2.6732178,14.4167099c-0.0400391,0.2728195-0.0171204,0.5548782-0.0235443,0.8328018
		c-0.111145,2.4703522-0.7318268,4.9081726-0.4702454,7.4020386c-1.2538757,10.2727585-2.2885284,20.5608902-1.9748688,30.9319382
		c0.0720215,2.3811188,0.8058167,4.7158966,0.4617004,7.1367035c-0.3488159,2.453949-0.4842682,4.926239-0.4611206,7.4086304
		c0.0614166,6.5872192,0.0962524,13.1849213-0.1150055,19.758316c-0.1437225,4.4715271,0.6984558,8.7001801,1.420929,13.0077209
		c0.8576202,5.1132202,0.9465179,10.2421875,0.2486267,15.3868103c-0.3163147,2.3318787-0.5418854,4.6759796-0.8194733,7.0132599
		c-0.0548706,0.4620361,0.1188354,0.8704834,0.2602692,1.2782745c2.0043488,5.7798157,2.5227356,11.7149811,1.4927216,17.7158661
		c-0.4361725,2.5410614,0.0865479,4.9121246,0.4099731,7.3462219c0.1848602,1.3912201,0.2895203,2.7849121,0.2583923,4.1851196
		c-0.168396,7.5735626,0.6844177,15.0817108,1.3915253,22.6016083c0.2081451,2.2134094,0.1912537,4.4473572,0.3064728,6.6703796
		c0.0629883,1.2152405-0.4994507,1.9846497-1.6034088,2.3692322c-1.8061981,0.6292725-3.6501007,1.0896606-5.5828552,1.0713806
		c-0.4025574-4.9749451-0.5776062-9.9613037-0.8122711-14.9457397c-0.2834167-6.0210876-0.5428467-12.0412903-0.7454224-18.0659485
		c-0.163681-4.8683777-0.3198547-9.7371521-0.4883881-14.6051025c-0.2530518-7.308548-0.3221283-14.619278-0.5118103-21.9272461
		c-0.4432373-17.0751801-0.165741-34.1493835-0.1535187-51.2236938c0.003418-4.7874603,0.1701355-9.5831604,0.4906158-14.359726
		c0.3219147-4.7978668,0.6716614-9.595932,1.1429749-14.3869171c0.9490356-9.6469574,2.5186157-19.1772308,4.934082-28.5586929
		c1.1165924-4.336731,2.3831787-8.6419373,4.1745453-12.7650375c0.2069092-0.4762726,0.2758942-1.0481873,0.7771301-1.3630371
		L189.118042,91.9186554z"></path>
	<path d="M42.9015503,115.9582062c0.1135826-2.9819946-0.6984177-5.8569183-1.0646591-8.7813339
		c-0.4164581-3.3254089-1.1187668-6.6149597-1.6916161-9.9209976c-0.0389175-0.2245789-0.0955505-0.4668274,0.2063065-0.7647934
		c0.8437271,1.8686752,1.3156281,3.8035812,1.8989029,5.694313c1.8927994,6.1356506,3.1027031,12.4203186,4.1808014,18.7436981
		c0.7687149,4.5087204,1.3730049,9.0276031,1.8188705,13.5770264c0.4191551,4.2767944,0.7491646,8.5550842,0.994976,12.8463898
		c0.2487373,4.342392,0.3723068,8.6831818,0.4991493,13.0291138c0.4971161,17.0321198,0.2079086,34.0656738,0.1396637,51.097641
		c-0.0167961,4.1912231-0.0903015,8.3907471-0.1947098,12.5851593c-0.1500931,6.029007-0.2646904,12.0601044-0.5228691,18.0848236
		c-0.1914558,4.4676971-0.3326378,8.9356689-0.4793053,13.404541c-0.1845589,5.6234589-0.3789101,11.2502289-0.7618713,16.862381
		c-0.2579765,3.7805786-0.1900101,7.5835266-0.7422829,11.3439331c-1.6820335-0.0850525-3.2913589-0.5161743-4.8658752-1.0708008
		c-1.7708015-0.6237183-2.1469193-1.1226196-2.1011238-2.9976807c0.0670662-2.7460022,0.1889191-5.4891663,0.4147339-8.2307434
		c0.4395142-5.3359985,0.7224426-10.6850586,1.1794395-16.0193634c0.40205-4.6931-0.0762138-9.439682,0.9062653-14.0965424
		c0.1984291-0.9405518,0.1134071-1.9181824-0.033474-2.8666992c-0.4832382-3.1204681-0.3470268-6.2174377,0.332428-9.2897491
		c0.194416-0.8790894,0.1335144-1.7296448,0.0722351-2.6122131c-0.2877083-4.1437836-0.8593559-8.2657928-0.8530579-12.4330902
		c0.0072861-4.8221283,1.0993767-9.4220276,2.7060051-13.9203339c0.3436127-0.9620819,0.5703545-1.8824768,0.450592-2.9110718
		c-0.1810303-1.5547485-0.1168175-3.1097717,0.1610222-4.658493c0.1121635-0.6252441,0.1574593-1.2737732,0.1400375-1.9091644
		c-0.1323547-4.8263855-0.6007996-9.6680603-0.3563309-14.4740295c0.3014259-5.9256287-0.2448349-11.8179779-0.1113739-17.7312775
		c0.2507629-11.1105499,0.3767052-22.2289581-1.4094315-33.2606583c-0.2549744-1.5747833-0.3950195-3.1681595-0.5882187-4.7529297
		C43.4898758,118.9764481,42.9735146,117.4831543,42.9015503,115.9582062z"></path>
</g>
<path d="M189.1302643,91.9275818c-0.1253815-0.2260437-0.0250854-0.4249802,0.0789948-0.643013
	c0.2248383,0.2606354,0.2137604,0.4681931-0.091217,0.6340866L189.1302643,91.9275818z"></path>
</svg>
