<!--?xml version="1.0" encoding="utf-8"?-->
<!-- Generator: Adobe Illustrator 24.2.3, SVG Export Plug-In . SVG Version: 6.00 Build 0)  -->
<svg version="1.1" id="Camada_1" xmlns="http://www.w3.org/2000/svg" xmlns:xlink="http://www.w3.org/1999/xlink" x="0px" y="0px" viewBox="0 0 229 418" enable-background="new 0 0 229 418" xml:space="preserve">
<g onclick="select(this)" class="" id="gola-primaria" fill="#000000">
	<path d="M77.9426346,7.9673753c0.58358-0.069356,1.032135-0.3976116,1.4363174-0.7842617
		c0.9175644-0.877727,1.9667511-1.6647758,2.7009964-2.6779346c1.8149261-2.5044103,4.3710556-3.4063895,7.2605515-3.79111
		c0.6240387-0.0830863,1.349823,0.1018219,1.8595047-0.4742064c1.1999969,0,2.4000015,0,3.5999985,0
		c0.1689606,0.4907088,0.5991287,0.3122897,0.914032,0.3134411c5.57827,0.0203979,11.1566238,0.020126,16.7349243,0.0349568
		c0.4080048,0.0010847,0.7730331-0.0500122,1.0710449-0.3483979c7.5200043,0,15.0400085,0,22.5599976,0
		c0.0828247,0.4741868,0.4899597,0.3142419,0.7614136,0.3587393c0.9795685,0.1605679,1.9686279,0.2632271,2.9482269,0.4236295
		c1.9836884,0.3248088,3.6552887,1.119652,4.9371338,2.7922442c1.2989655,1.6949236,2.7367096,3.3046358,4.6419067,4.3876181
		c1.3349609,0.5595255,1.9354553,1.5324001,1.8441772,3.0037222c-0.2312469,3.7279959-2.0542908,6.7283545-4.2597656,9.5706816
		c-0.4029999,0.519371-0.6724548,0.1390858-0.9757843-0.093195c-1.7763519-1.3603001-3.5279999-2.7546139-5.3391266-4.0669384
		c-0.7182922-0.5204697-0.6553192-0.8478394-0.1091766-1.4620466c1.5674438-1.7628803,2.8856964-3.6969404,3.7774658-6.0769958
		c-2.572403,0.1970119-4.9905701,0.3984365-7.4111481,0.5647984c-10.7585907,0.7394209-21.499321,1.821701-32.3157806,0.9718924
		c-6.6919632-0.5257635-13.3825684-1.0529213-20.0644302-1.69244c-0.3931198-0.0376253-0.9007416-0.2369938-1.1560059,0.0428095
		c-0.3374405,0.369853,0.0650253,0.8249645,0.220726,1.2047291c0.7995911,1.9502478,2.0776596,3.5827036,3.4878464,5.12358
		c0.3805923,0.4158716,0.7852325,0.7979889,0.0745773,1.3490562c-1.7995148,1.3954124-3.5663376,2.8337154-5.3231812,4.282795
		c-0.4913559,0.4052773-0.7964401,0.3135414-1.1702042-0.1451874c-1.9160156-2.3515911-3.4110718-4.9275246-4.2069702-7.8697643
		C75.8163681,10.5971127,76.278656,9.1439505,77.9426346,7.9673753z"></path>
</g>
<g onclick="select(this)" class="" id="detalhe-punho" fill="#bf0811">
	<path d="M227.842514,108.4025879c0.5749817,0.7692032,0.4148407,1.7266006,0.6702271,2.5743942
		c0.1290436,0.4283524,0.0513458,0.9416275,0.4472656,1.2786179c0,1.2792664,0,2.5585327,0,3.8377991
		c-2.5884094,1.5184555-5.5240936,2.0408173-8.3501892,2.8522034c-9.2681122,2.6609497-18.7564545,3.2958908-28.3376312,2.8338699
		c-2.0632172-0.0994873-4.1380615-0.3150177-6.1517944-0.877861c-0.5486603-0.1533432-1.0449371-0.3735123-1.4878845-0.7239075
		c-0.2774811-2.4845276,0.3950195-4.910202,0.4574432-7.3736725c3.770752,0.7478256,7.5832977,0.9685516,11.4201965,0.9679565
		c2.4749756-0.0003815,4.9785767,0.2395554,7.4136963-0.1605759c3.064743-0.5035858,6.1346741-1.0043488,9.1941071-1.5534821
		C218.1148682,111.1610413,222.9727478,109.7737122,227.842514,108.4025879z"></path>
	<path d="M0.24,114.6542282c0.4893606-1.1710663,0.3771629-2.4589615,0.7112085-3.6613846
		c0.1128704-0.4062881,0.0125913-0.8849258,0.4293163-1.1796799c0.2910708,0.1283722,0.5764085,0.272171,0.8740931,0.3827667
		c6.2617168,2.3264465,12.7867851,3.4107971,19.397501,4.0666275c3.4315319,0.3404388,6.8639488,0.0203171,10.2973766-0.0423508
		c1.7614765-0.0321579,3.5187092-0.1407547,5.2500401-0.3458481c1.4364471-0.170166,2.981884,0.0562363,4.3134613-0.805748
		c0.4163704-0.2695313,0.5930977,0.0961914,0.7915878,0.4404831c0.4368095,0.7576523,0.2224312,1.6597824,0.6029205,2.4191055
		c0.0466232,1.5126266,0.5876122,2.9912491,0.3115692,4.5260544c-2.6691475,1.3422165-5.5943871,1.6769257-8.4834976,1.7902603
		c-9.3506947,0.3668442-18.675539,0.1407166-27.842226-2.0807114c-2.2731495-0.5508575-4.541153-1.1079407-6.6533499-2.1515045
		C0.24,116.8929443,0.24,115.7735825,0.24,114.6542282z"></path>
</g>
<g onclick="select(this)" class="" id="estampa-primaria" fill="#000000">
	<path d="M42.907505,115.9281998c-0.3804893-0.7593231-0.166111-1.6614532-0.6029205-2.4191055
		c-0.1984901-0.3442917-0.3752174-0.7100143-0.7915878-0.4404831c-1.3315773,0.8619843-2.8770142,0.635582-4.3134613,0.805748
		c-1.7313309,0.2050934-3.4885635,0.3136902-5.2500401,0.3458481c-3.4334278,0.0626678-6.8658447,0.3827896-10.2973766,0.0423508
		c-6.6107159-0.6558304-13.1357841-1.740181-19.397501-4.0666275c-0.2976846-0.1105957-0.5830222-0.2543945-0.8740931-0.3827667
		c1.7899306-9.5023575,2.6885965-19.1367569,4.2582512-28.6731644c0.8426151-5.1193008,1.1584306-10.3164978,2.2566686-15.4050598
		c1.7446499-8.0836258,4.4581051-15.7489853,9.4218407-22.4775429c2.1457844-2.908699,4.5916576-5.5448303,7.4281387-7.7850304
		c1.3344898-1.0539589,2.2994804-2.5360756,3.8290272-3.3338928c3.6148033-1.8855038,7.2542801-3.7286377,11.0284195-5.2783661
		c10.0274162-4.1174316,20.0643997-8.2123909,29.5622063-13.4859104c1.9391403-1.0766773,3.933815-2.0501871,5.4105301-3.8396473
		c0.8109818-0.9827251,1.9905396-1.5904641,3.3671417-1.5671678c-1.664093,1.1765685-2.1263809,2.6297307-1.5008469,4.9422078
		c0.7958984,2.9422398,2.2909546,5.5181732,4.2069702,7.8697643c0.373764,0.4587288,0.6788483,0.5504646,1.1702042,0.1451874
		c1.7568436-1.4490795,3.5236664-2.8873825,5.3231812-4.282795c0.7106552-0.5510674,0.306015-0.9331846-0.0745773-1.3490562
		c-1.4101868-1.5408764-2.6882553-3.1733322-3.4878464-5.12358c-0.1557007-0.3797646-0.5581665-0.8348761-0.220726-1.2047291
		c0.2552643-0.2798033,0.762886-0.0804348,1.1560059-0.0428095c6.6818619,0.6395187,13.372467,1.1666765,20.0644302,1.69244
		c10.8164597,0.8498087,21.5571899-0.2324715,32.3157806-0.9718924c2.420578-0.1663618,4.8387451-0.3677864,7.4111481-0.5647984
		c-0.8917694,2.3800554-2.210022,4.3141155-3.7774658,6.0769958c-0.5461426,0.6142073-0.6091156,0.941577,0.1091766,1.4620466
		c1.8111267,1.3123245,3.5627747,2.7066383,5.3391266,4.0669384c0.3033295,0.2322807,0.5727844,0.612566,0.9757843,0.093195
		c2.2054749-2.8423271,4.0285187-5.8426857,4.2597656-9.5706816c0.0912781-1.4713221-0.5092163-2.4441967-1.8441772-3.0037222
		c1.8040161-0.1235514,2.9677124,0.963213,4.0435791,2.1754436c0.3423004,0.3857002,0.6642609,0.7411375,1.1140747,1.0351553
		c10.015213,6.5464888,21.2102203,10.5996943,32.1522522,15.1752443c3.9647369,1.6579075,7.8065491,3.5749054,11.7430115,5.2901115
		c1.6351929,0.7124977,2.7434998,2.2689476,4.1796417,3.3404427c3.1261292,2.3323669,5.8217316,5.1096878,8.1725159,8.219841
		c4.8403473,6.4038811,7.573822,13.7226105,9.31427,21.4695435c0.648407,2.8861542,1.1841888,5.7966232,1.4676514,8.7398987
		c0.558075,5.7943726,2.3274994,11.3395309,3.417038,17.0236282c1.1276703,5.8830719,1.9454803,11.8155975,2.8697968,17.7311859
		c-4.8697662,1.3711243-9.7276459,2.7584534-14.7245636,3.6553421c-3.059433,0.5491333-6.129364,1.0498962-9.1941071,1.5534821
		c-2.4351196,0.4001312-4.9387207,0.1601944-7.4136963,0.1605759c-3.8368988,0.0005951-7.6494446-0.2201309-11.4201355-0.9681702
		c0.397995-4.4217834,1.3395386-8.752449,2.2377777-13.0872345c0.5362396-2.5878677,1.2085876-5.1475754,1.8197479-7.7199402
		c-0.3908234,0.3567734-0.6051025,0.7716446-0.789444,1.1994095c-1.7770233,4.123909-3.0289459,8.4271622-4.175827,12.7510147
		c-2.369339,8.9325562-3.8379822,18.0407791-4.8481293,27.214325c-0.5737305,5.2101593-0.938385,10.4479065-1.2374268,15.6823578
		c-0.2820282,4.936264-0.494751,9.884491-0.4939728,14.8274231c0.002655,16.9393768-0.2863922,33.8787994,0.1625824,50.819046
		c0.193512,7.3013306,0.2618408,14.6057129,0.5153046,21.9078064c0.1688232,4.8633728,0.3232422,9.7277069,0.4854279,14.5916138
		c0.1993561,5.9791107,0.4654694,11.9532013,0.7395935,17.9288177c0.2303009,5.019989,0.4219818,10.0404358,0.8112488,15.0513
		c-7.654129,1.0700073-15.3581696,1.3612976-23.0732422,1.452179c-12.9472198,0.1525269-25.8881378,0.5621948-38.8300934,0.9285889
		c-6.7608643,0.1913757-13.4958572-0.4653015-20.2470093-0.5768433c-8.7106018-0.1439514-17.4220123-0.2460632-26.1319199-0.4232178
		c-8.3101959-0.1690063-16.6230583-0.3525085-24.8476906-1.7511292c0.5418816-3.7588501,0.4816322-7.5588074,0.7390099-11.3370361
		c0.3820381-5.6081238,0.5792046-11.2305908,0.7604103-16.8500214c0.1427193-4.4258575,0.2925491-8.8505402,0.4726982-13.2752838
		c0.2548981-6.2610779,0.389267-12.5274048,0.5358238-18.7924042c0.0933838-3.9920197,0.1545982-7.9874725,0.1912727-11.9777985
		c0.131134-14.2671509,0.0807762-28.5359955,0.0866127-42.8041992c0.0009117-2.2374725-0.0170631-4.4768066-0.1053925-6.7121582
		c-0.2500496-6.3277893-0.3140182-12.664093-0.8974266-18.9772339c-0.2267075-2.4532471-0.2513618-4.9276428-0.5398026-7.3721466
		c-0.5810051-4.9239349-1.1191139-9.8507843-2.0031929-14.7410049c-1.0833206-5.9923477-2.1588326-11.9780273-3.9337807-17.8119583
		c-0.6581345-2.1631546-1.2049675-4.3685989-2.1506424-6.554039c-0.5832481,0.8811417,0.16119,1.4419861,0.2478676,2.0992279
		c0.4439659,3.3662796,1.0535736,6.7120743,1.4424057,10.0838013
		C42.3154945,111.0284653,43.1100464,113.4209595,42.907505,115.9281998z"></path>
</g>
<g onclick="select(this)" class="" id="detalhe-lateral" fill="#bf0811">
	<path d="M180.3168945,283.9697571c-0.389267-5.0108643-0.5809479-10.031311-0.8112488-15.0513
		c-0.2741241-5.9756165-0.5402374-11.949707-0.7395935-17.9288177c-0.1621857-4.8639069-0.3166046-9.728241-0.4854279-14.5916138
		c-0.2534637-7.3020935-0.3217926-14.6064758-0.5153046-21.9078064c-0.4489746-16.9402466-0.1599274-33.8796692-0.1625824-50.819046
		c-0.0007782-4.9429321,0.2119446-9.8911591,0.4939728-14.8274231c0.2990417-5.2344513,0.6636963-10.4721985,1.2374268-15.6823578
		c1.0101471-9.1735458,2.4787903-18.2817688,4.8481293-27.214325c1.1468811-4.3238525,2.3988037-8.6271057,4.175827-12.7510147
		c0.1843414-0.4277649,0.3986206-0.8426361,0.789444-1.1994095c-0.6111603,2.5723648-1.2835083,5.1320724-1.8197479,7.7199402
		c-0.8982391,4.3347855-1.8397827,8.665451-2.2377777,13.0872345c-0.0624847,2.4636841-0.7349854,4.8893585-0.4575043,7.3738861
		c-1.2758331,10.3456116-2.3217926,20.7093811-1.9548645,31.1531219c0.0848389,2.4152832,0.7513123,4.7976074,0.4013214,7.251236
		c-0.3329468,2.3339691-0.443634,4.6863556-0.4229584,7.0467682c0.0576477,6.5835724,0.0962219,13.1778717-0.1157379,19.7472687
		c-0.1442261,4.4696655,0.7029724,8.6943665,1.4201355,12.9989471c0.8516083,5.1116943,0.9524536,10.2363281,0.2455444,15.3785553
		c-0.320282,2.3298645-0.5408936,4.6733246-0.8157501,7.0095825c-0.0492096,0.4181061,0.0968628,0.7891998,0.2263184,1.1624146
		c1.9881592,5.7323914,2.493515,11.6085815,1.5862885,17.5897217c-0.3216858,2.1208649-0.3144379,4.1804047,0.1411896,6.2758179
		c0.4254303,1.9566803,0.509079,3.958847,0.4698334,5.9625092c-0.1443481,7.3678131,0.6830597,14.6733856,1.3834839,21.9889984
		c0.2195587,2.2931824,0.334198,4.5985718,0.3148499,6.9089355c-0.0093231,1.1126404-0.4960785,1.8147888-1.5023499,2.1924744
		C184.1752014,283.5325928,182.2867737,283.9595337,180.3168945,283.9697571z"></path>
	<path d="M42.907505,115.9281998c0.2025414-2.5072403-0.5920105-4.8997345-0.8747025-7.35112
		c-0.3888321-3.371727-0.9984398-6.7175217-1.4424057-10.0838013c-0.0866776-0.6572418-0.8311157-1.2180862-0.2478676-2.0992279
		c0.9456749,2.1854401,1.4925079,4.3908844,2.1506424,6.554039c1.7749481,5.833931,2.8504601,11.8196106,3.9337807,17.8119583
		c0.884079,4.8902206,1.4221878,9.81707,2.0031929,14.7410049c0.2884407,2.4445038,0.3130951,4.9188995,0.5398026,7.3721466
		c0.5834084,6.3131409,0.647377,12.6494446,0.8974266,18.9772339c0.0883293,2.2353516,0.1063042,4.4746857,0.1053925,6.7121582
		c-0.0058365,14.2682037,0.0445213,28.5370483-0.0866127,42.8041992c-0.0366745,3.9903259-0.0978889,7.9857788-0.1912727,11.9777985
		c-0.1465569,6.2649994-0.2809258,12.5313263-0.5358238,18.7924042c-0.1801491,4.4247437-0.3299789,8.8494263-0.4726982,13.2752838
		c-0.1812057,5.6194305-0.3783722,11.2418976-0.7604103,16.8500214c-0.2573776,3.7782288-0.1971283,7.578186-0.7390099,11.3370361
		c-1.7245903-0.0838623-3.3726768-0.5370178-4.9845734-1.1035767c-1.6185989-0.5689087-2.0116501-1.1138-1.9831123-2.8437195
		c0.0459366-2.7848511,0.186451-5.5653687,0.4139137-8.3447876c0.433239-5.2938843,0.7164192-10.6002197,1.1700706-15.8921509
		c0.4089508-4.770462-0.068821-9.5951233,0.9217758-14.3286285c0.1891174-0.9036407,0.0947456-1.838028-0.0444946-2.7452698
		c-0.4787102-3.1191711-0.3467941-6.214859,0.3346939-9.2854462c0.1951103-0.8791046,0.1336899-1.7297516,0.0723305-2.6114655
		c-0.2882462-4.1416168-0.8612595-8.2615356-0.8543091-12.4265594c0.0080452-4.8191986,1.1005249-9.4173431,2.7082024-13.9132538
		c0.3438072-0.961441,0.5690727-1.8806915,0.4489937-2.909317c-0.176609-1.5128784-0.1274376-3.0283203,0.1454735-4.536911
		c0.1131401-0.625412,0.2028465-1.277359,0.1551666-1.9060059c-0.3654709-4.8179779-0.0608215-9.6545563-0.424675-14.4716797
		c-0.0846634-1.1208496,0.0723495-2.2323608,0.1582413-3.3475952c0.1443939-1.874649,0.0628281-3.747345-0.0448914-5.6249847
		c-0.3893738-6.7869263-0.1290779-13.5804901-0.0253029-20.3673248c0.1122742-7.3421783-0.643425-14.5998688-1.5617981-21.8567352
		c-0.1952324-1.5427094-0.3826065-3.0864105-0.5735855-4.6296616
		C43.4951172,118.9194489,42.9541283,117.4408264,42.907505,115.9281998z"></path>
</g>
<g onclick="select(this)" class="" id="estampa-secundaria" fill="#009045">
	<path d="M106.5578842,286.0759583c-0.0011826-48.4893646-0.0006485-96.9787598-0.0188141-145.4681396
		c-0.0002899-0.7794647,0.2104034-1.3484344,0.7602921-1.900116c1.2350693-1.23909,2.4070129-2.5410156,3.8479004-4.0765991
		c0,0.7556458,0.0000076,1.2051544,0.0000076,1.6546478c0.0000076,49.4090729,0.0000381,98.818161-0.0003891,148.2272491
		c-0.0000076,0.5992126-0.0059891,1.1984253-0.0092773,1.7976685c-0.1594925-0.0072937-0.3188934-0.0145874-0.4787598-0.0219727
		c-0.0004578-14.1383057-0.0004578-28.2765808-0.0004578-42.4148102c-0.1711044,0.0006714-0.3422089,0.0013428-0.5133133,0.0020142
		c0,14.1212311,0,28.2424774,0,42.3636932c-0.1646805,0.1329346-0.3212585,0.158844-0.4613266-0.0348511
		c-0.0143433-14.4386292-0.0285568-28.8772278-0.0427704-43.3157959c-0.5783997,0.3089752-0.4574127,0.6743317-0.4589691,1.0101166
		c-0.0635223,13.7297516-0.1188278,27.459549-0.1762543,41.1893463c-0.0015106,0.3590698-0.0151367,0.7181091-0.0231018,1.077179
		c-0.0905457-0.0057373-0.1810684-0.0114746-0.271553-0.0171814c-0.0185852-14.2954407-0.0371552-28.5908813-0.0563354-42.8863373
		c-0.0004883-0.3592377,0.0173645-0.7211609-0.0204086-1.0768433c-0.0280151-0.2637329-0.07164-0.5820007-0.6269531-0.460968
		c0,14.7854462,0,29.5939789,0,44.4025421c-0.0956802-0.0039368-0.1913681-0.0078125-0.2868118-0.0117493
		c-0.0591965-14.6599426-0.1186371-29.3198853-0.1779327-43.9798431c-0.0011292-0.2797394,0.0190048-0.5613098-0.0068741-0.8386383
		c-0.0227737-0.2440338,0.1009827-0.5966797-0.5042114-0.6228638c0,15.1458282,0,30.2801514,0,45.4144287
		C106.8736801,286.0840759,106.7157822,286.0799866,106.5578842,286.0759583z"></path>
	<path d="M100.2999268,285.835968c-0.002182-0.6791077-0.0031738-1.3582458-0.0067291-2.037384
		c-0.2370224-45.3118134-0.1576233-90.6240387-0.1920853-135.9361267c-0.0007553-0.9879913,0.2185059-1.727829,0.9515152-2.4294891
		c1.2273254-1.1747742,2.344574-2.4644165,3.5469284-3.7470856c0.3949661,0.5583649,0.2353287,1.0485687,0.235466,1.5007172
		c0.0095901,32.3700714,0.0079422,64.7401428,0.0097046,97.1102142c0.0007935,14.7463379,0.0064011,29.4926453,0.0113907,44.2389832
		c0.0001602,0.4793396,0.0175476,0.9586487,0.0264816,1.4380493c-0.1706085,0.1582336-0.3309097,0.1679077-0.4774094-0.0316772
		c-0.0000839-15.9602661-0.0000839-31.920578-0.0000839-47.8808441c-0.2315903,0.000351-0.4631805,0.0007019-0.6947632,0.0010529
		c0,15.9493256,0,31.8986206,0,47.8479309c-0.1058197-0.0032654-0.211647-0.0065308-0.3170776-0.0098267
		c-0.0602798-15.8138123-0.1209869-31.6276398-0.1815338-47.4414673c-0.0012207-0.3195953,0.0247879-0.6418915-0.0091934-0.9578552
		c-0.0244522-0.227478,0.15345-0.5948181-0.4704742-0.6244812c0,16.3465118,0,32.6767883,0,49.0070801
		c-0.1574707-0.0037231-0.3149567-0.0073853-0.4727173-0.0110779c-0.0118484-16.7200012-0.0234146-33.4399719-0.0349884-50.1599579
		c-0.1670151,0.0006561-0.3340225,0.0013275-0.50103,0.0019989c0,16.7177887,0,33.4355774,0,50.1533508
		c-0.1492615-0.0043945-0.2985229-0.0087891-0.4478989-0.0131836c-0.0134735-17.0412292-0.026825-34.0825043-0.0401764-51.1237488
		c-0.2166748,0.0005341-0.4333496,0.0010834-0.6500244,0.0016022c0,17.0361328,0,34.0722809,0,51.1083832
		C100.4901276,285.8394165,100.3950272,285.8377075,100.2999268,285.835968z"></path>
	<path d="M180.5372314,124.1088638c-0.1876221,1.6532135-0.3596039,3.3089294-0.7817078,4.9249039
		c-20.9567566,0.0024109-41.9135284-0.0024567-62.8702393,0.0295563c-1.0135574,0.0015564-1.254364-0.2916412-1.2533951-1.2746429
		c0.0261536-26.4207611,0.0192871-52.8415527,0.0221939-79.2623367c0.0006866-6.2752609,0.0377197-12.5506439,0.0027084-18.8256645
		c-0.0054016-0.9686985,0.2908249-1.360136,1.2452164-1.4223976c0.8721085-0.0568943,1.7386398-0.2349434,2.600708-0.3964863
		c0.5083694-0.0952644,0.7695923,0.021759,0.739418,0.582859c-0.0192795,0.3586559-0.0015182,0.7192631-0.001503,1.0789967
		c0.0017395,30.9774628,0.0022049,61.9549294,0.0080338,92.9323883c0.0003281,1.7622375-0.2153473,1.5801315,1.62043,1.580513
		c19.0370789,0.0040359,38.0741577,0.0021057,57.1112366,0.0045776
		C179.4992981,124.0612106,180.01828,124.0922623,180.5372314,124.1088638z"></path>
	<path d="M181.6283417,117.2627945c-0.0826721,1.6417389-0.450882,3.2373352-0.7829132,4.8386154
		c-19.2793427,0.005127-38.5586548,0.0036316-57.8379364,0.036232c-0.9376373,0.0015793-1.1124115-0.3133087-1.1117935-1.1701126
		c0.0221939-30.8614349,0.0238876-61.7228928,0.0087433-92.5843353c-0.0003738-0.7629719,0.2034454-1.1455135,0.9760742-1.3443146
		c0.9616547-0.2474384,1.8965759-0.6196136,2.8159714-1.0027885c0.6030655-0.2513371,0.8127594-0.0998268,0.7854233,0.5210686
		c-0.014061,0.3191681-0.0013351,0.6395016-0.0012283,0.9593086c0.0083618,29.4221573,0.0252762,58.8443222-0.0051575,88.2664413
		c-0.0012589,1.2268677,0.3064575,1.5114136,1.5143356,1.5086288
		C145.8692932,117.2502441,163.7488251,117.2629089,181.6283417,117.2627945z"></path>
	<path d="M48.7563705,138.6685638c-0.2823677-1.6114502-0.4537888-3.2339478-0.486042-4.8705292
		c20.639637-0.0002136,41.2792931-0.0002136,62.1713066-0.0002136c-1.5348663,1.6471558-2.8867111,3.094162-4.2337341,4.5456085
		c-0.4555435,0.4908752-1.0464172,0.31073-1.5842667,0.3109741c-18.1029358,0.0085449-36.205864,0.007019-54.3087997,0.0073853
		C49.7953491,138.6617889,49.2758598,138.6661987,48.7563705,138.6685638z"></path>
	<path d="M49.2416992,145.5836945c-0.1178932-1.6399994-0.2357903-3.2799988-0.3537102-4.9197083
		c0.3981934-0.0209808,0.7964134-0.0608063,1.1946449-0.0608826c17.5485001-0.0031281,35.0970078-0.0035858,52.6455078,0.0035095
		c0.339386,0.0001373,0.708725-0.1213531,1.1563187,0.2140045c-1.3897018,1.5037842-2.759079,2.9827728-4.1248398,4.4651184
		c-0.4211197,0.4570923-0.9700928,0.2926025-1.4700623,0.2928162
		C81.9402618,145.5858154,65.5909805,145.5840912,49.2416992,145.5836945z"></path>
</g>
<g onclick="select(this)" class="" id="estampa-terciaria" fill="#bf0811">
	<path d="M115.6504135,286.34198c0-50.4318542,0-100.863678,0-151.5780945
		c1.5879288,1.6756439,3.0249023,3.1793976,4.443573,4.7001801c0.2680206,0.2873077,0.1493073,0.6898346,0.1493378,1.0419464
		c0.0036316,39.5634918,0.0067139,79.1269989,0.0009842,118.6904907
		c-0.0013046,9.0301208-0.0338287,18.0602112-0.0525589,27.0904541c-0.1376953,0.0057678-0.2748184,0.0114441-0.4121628,0.0170898
		c-0.0002213-15.2129211-0.0002213-30.4257965-0.0002213-45.6387024c-0.1188507-0.0055695-0.2376938-0.0111084-0.3565445-0.0166779
		c-0.2544708,0.3185425-0.1661758,0.7211761-0.1675644,1.0925751c-0.0542755,14.458313-0.1041718,28.916687-0.1555328,43.375
		c-0.0014191,0.3991699-0.0124283,0.7983093-0.0189667,1.1974487c-0.0943146,0.000824-0.1886292,0.0016479-0.2830429,0.0024719
		c-0.0001144-14.8900146-0.0001144-29.7800293-0.0001144-44.6700439c-0.2062149-0.000412-0.4124451-0.000824-0.6186676-0.001236
		c-0.0290222,14.8945465-0.0580521,29.7890778-0.0870667,44.6836395c-0.0995712,0.0013428-0.1991272,0.0027161-0.2985001,0.0040588
		c-0.0714569-14.4859009-0.1431122-28.9717407-0.2147598-43.4575958c-0.1557846-0.0000916-0.3115692-0.0001831-0.4673462-0.0002747
		c0,14.487442,0,28.9748993,0,43.4623566c-0.1545868,0.0012817-0.3091736,0.0025635-0.4638596,0.0038757
		c-0.0000839-14.1071777-0.0000839-28.214325-0.0000839-42.3214874c-0.2298508,0.0003052-0.4597092,0.0006256-0.6895523,0.000946
		c0,14.1069794,0,28.2139435,0,42.3209076C115.8553085,286.3415222,115.7528687,286.3417664,115.6504135,286.34198z"></path>
	<path d="M121.9627991,286.1951904c-0.0171967-15.9446106-0.0453262-31.8892517-0.0492706-47.8338776
		c-0.0078583-31.7704773-0.0024185-63.5409393-0.0024567-95.3114014c0-0.4362488,0.0000076-0.8724823,0.0000076-1.5783234
		c1.5750809,1.6972809,2.9999466,3.2174225,4.4042206,4.7563324c0.3615341,0.396225,0.1893997,0.9216003,0.1896362,1.3875275
		c0.0076599,15.2658234,0.0062866,30.5316162,0.0062866,45.7974243c0.0000153,30.6115417,0.0000839,61.223114-0.0005722,91.8346252
		c0,0.2794495-0.0098038,0.5588989-0.0150604,0.8383484c-0.1480331,0.0019531-0.2960434,0.0038757-0.4444733,0.0057983
		c-0.0004272-17.1224365-0.0004272-34.2449188-0.0004272-51.3673706c-0.1617203-0.0005798-0.3234253-0.0011444-0.4851456-0.0017242
		c-0.0181351,17.1279907-0.0362701,34.2559662-0.0544052,51.3839264c-0.1510925,0.0033264-0.3021927,0.0066528-0.4534073,0.0099487
		c-0.0001373-16.7527771-0.0001373-33.5055695-0.0001373-50.2583466c-0.2307358,0.0002441-0.4614792,0.000473-0.6922226,0.0007172
		c0,16.756134,0,33.5122681,0,50.2684021c-0.0985718,0.0013123-0.1971283,0.002655-0.2956772,0.0040283
		c0-16.4252319,0-32.8504791,0-49.2757111c-0.1973572-0.0007324-0.394722-0.0014954-0.5920792-0.002243
		c-0.0821762,16.4291534-0.1020279,32.8588867-0.1089859,49.2886963c-0.0989914,0.004364-0.197998,0.0086975-0.296669,0.0130615
		c0.0003052-16.0369263,0.0003052-32.0738831,0.0003052-48.1108093c-0.2099075-0.0005493-0.4198151-0.0010834-0.6297226-0.0016174
		c-0.0178375,16.0445862-0.0356903,32.0891418-0.0535355,48.133728
		C122.2552261,286.3696899,122.1134949,286.383606,121.9627991,286.1951904z"></path>
	<path d="M47.7638359,129.0977783c-0.4455566-1.585556-0.4824028-3.2351074-0.759655-4.8469238
		c14.8387489-0.0070267,29.6775665-0.014679,44.5163879-0.0210037c4.5597076-0.0019455,9.1199112-0.0369797,13.6787491,0.026207
		c1.1012421,0.0152512,1.3802567-0.2827301,1.3792267-1.3826828c-0.0291519-31.2200317-0.0210876-62.4401093-0.0190582-93.6601791
		c0.0001068-1.6683254,0.0003891-1.6686268,1.6187668-1.3063107c0.11689,0.0261688,0.2304153,0.0682735,0.3478012,0.0911922
		c2.5946426,0.5066166,2.59375,0.5062962,2.5946503,3.1898232c0.0107803,32.0992584,0.0219116,64.1985168,0.0327148,96.2977753
		c0.0005417,1.6113968-0.0004501,1.6121292-1.5935974,1.6121445
		C88.9611588,129.0979309,68.3624954,129.0978241,47.7638359,129.0977783z"></path>
	<path d="M46.693676,122.2541809c-0.2846298-1.6393661-0.6877136-3.259491-0.8011742-4.9266052
		c17.3956795-0.0053787,34.7913818-0.0108871,52.1870728-0.0161819c2.0509872-0.0006256,2.0509338-0.0000992,2.0509338-2.1090469
		c-0.0000076-22.1019592,0.0042038-44.2039261-0.0023346-66.3058929c-0.0022049-7.4325752-0.0149765-14.8652611-0.067688-22.2975826
		c-0.0074463-1.0504456,0.1697159-1.3974934,1.2143936-0.8444633c0.6652069,0.3521461,1.3859711,0.6672096,2.1186218,0.8089809
		c1.1983261,0.231884,1.5211334,0.8161678,1.5189056,2.042551c-0.0558319,30.7741489-0.0647659,61.5483856-0.0655136,92.3226089
		c-0.0000229,0.862236-0.0259552,1.3827972-1.1683578,1.3806686c-18.8353653-0.0350647-37.6708298-0.0252686-56.5062675-0.0268707
		C47.0127373,122.2823334,46.8532066,122.2639771,46.693676,122.2541809z"></path>
	<path d="M179.2509766,133.8614502c-0.0613251,1.6585846-0.2283173,3.3067017-0.4898682,4.9452209
		c-18.9953918,0.0059662-37.9907837,0.0120697-56.9861984,0.0192719c-0.4026871,0.0001526-0.7886963,0.003891-1.102829-0.3328552
		c-1.3814316-1.4808655-2.7750549-2.9503326-4.3600616-4.6316376
		C137.4729919,133.8614502,158.3619995,133.8614502,179.2509766,133.8614502z"></path>
	<path d="M178.5809479,140.7912903c0.0599213,1.6060944-0.1153259,3.1973267-0.3032074,4.7877655
		c-16.6345673,0.0011139-33.2691345-0.0021057-49.9036865,0.0171051c-0.7755508,0.0009155-1.360054-0.1697235-1.8805161-0.7799835
		c-1.1132965-1.3054199-2.2905426-2.556366-3.4425125-3.8307037c0.0577469-0.2848969,0.2909012-0.2098389,0.4684296-0.2098083
		C141.873291,140.7786255,160.2271271,140.7850647,178.5809479,140.7912903z"></path>
</g>
<path d="M28.7728214,32.8150291c0,0.6331215,0,1.266243,0,1.8993607
	C28.5880337,34.0849876,28.3169136,33.4643097,28.7728214,32.8150291z"></path>
<path d="M40.5405312,97.1612701c-0.2679443-0.0559311-0.2355347-0.2663956-0.2218361-0.4550171
	c0.0033188-0.045639,0.0788193-0.0860443,0.1211281-0.1288605c0.0412865,0.1877518,0.0825729,0.3755112,0.1238861,0.5632401
	C40.5637283,97.1406097,40.5405312,97.1612701,40.5405312,97.1612701z"></path>
<path d="M45.1073151,113.8342514c-0.2988129-0.2228165-0.6353264-0.4340973-0.2639885-0.8620071
	C45.2645149,113.1575775,45.0380096,113.5411682,45.1073151,113.8342514z"></path>
</svg>
