<!--?xml version="1.0" encoding="utf-8"?-->
<!-- Generator: Adobe Illustrator 24.2.3, SVG Export Plug-In . SVG Version: 6.00 Build 0)  -->
<svg version="1.1" id="Camada_1" xmlns="http://www.w3.org/2000/svg" xmlns:xlink="http://www.w3.org/1999/xlink" x="0px" y="0px" viewBox="0 0 234 419" enable-background="new 0 0 234 419" xml:space="preserve">
<g onclick="select(this)" class="" id="c-detalhe-punho" fill="#082890">
	<path d="M0.24,116.16c0.54-1.57,0.64-3.23,1.02-4.84c0.12-0.53,0.07-1.11,0.49-1.55c1.26,0.44,2.6,0.31,3.89,0.57
		c5.89,1.18,11.86,1.93,17.78,2.95c5.09,0.87,10.23,1.05,15.37,0.93c2.1-0.05,4.24-0.09,6.06-1.44c0.6-0.44,1.11-0.35,1.34,0.46
		c-0.04,1.29-0.08,2.58-0.1,3.87c-0.01,0.5-0.08,1.03,0.36,1.42c-0.02,0.03-0.07,0.06-0.07,0.09c0.15,3.03-0.2,2.77-2.97,3.05
		c-3.34,0.33-6.65,0.85-10.03,0.73c-6.33-0.22-12.58-1.11-18.82-2.03c-4.54-0.67-9.05-1.5-13.52-2.54
		c-0.27-0.06-0.53-0.15-0.79-0.23C0.24,117.12,0.24,116.64,0.24,116.16z"></path>
	<path d="M232.13,111.56c0.62,1.11,0.48,2.36,0.65,3.55c0.06,0.41-0.1,0.9,0.49,1.05c0,1.2,0,2.4,0,3.6
		c-1.77,0.78-3.68,1.04-5.55,1.38c-9.4,1.68-18.85,2.92-28.44,2.7c-2.9-0.07-5.72-0.42-8.27-1.98c-0.29-0.18-0.67-0.27-1.02-0.3
		c-0.81-0.07-1.43-0.4-1.82-1.12c-0.1-2.87,0.4-5.68,0.74-8.51c0.14,0.05,0.33,0.05,0.42,0.15c2.14,2.63,5.07,3.41,8.28,3.63
		c3.84,0.26,7.65,0.07,11.47-0.26c2.74-0.23,5.48-0.43,8.19-0.86C222.27,113.8,227.25,112.92,232.13,111.56z"></path>
</g>
<g onclick="select(this)" class="" id="c-gola-primaria" fill="#bf0811">
	<path d="M109.67,0.44c-3.12,0.19-6.23,0.04-9.35,0.07c-0.2,0-0.4-0.05-0.48-0.27c3.28,0,6.56,0,9.84,0
		C109.68,0.31,109.67,0.38,109.67,0.44z"></path>
	<g onclick="select(this)" class="">
		<path d="M141.84,0.24c0.97,0.48,2.06,0.46,3.08,0.73c1.58,0.42,2.95,1.11,3.98,2.44c1.29,1.68,2.95,2.99,4.55,4.36
			c-4.27,0.55-8.53,1.17-12.81,1.65c-8.3,0.94-16.64,1.69-24.99,1.52c-9.99-0.21-19.94-1.05-29.81-2.68
			c-1.26-0.21-2.56,0.24-3.77-0.36c1.94-1.65,3.67-3.48,5.32-5.42c1.02-1.2,2.6-1.44,4.09-1.75c0.71-0.15,1.5,0.07,2.11-0.48
			c2.08,0,4.16,0,6.24,0c0.08,0.23,0.28,0.27,0.48,0.27c3.12-0.03,6.24,0.13,9.35-0.07c2.72,0,5.45,0.01,8.17,0.01
			c1.82,0.03,3.64,0.07,5.46,0.09c0.22,0,0.5,0.04,0.53-0.31C129.84,0.24,135.84,0.24,141.84,0.24z"></path>
		<path d="M109.67,0.44c0-0.07,0-0.14,0.01-0.2c2.72,0,5.44,0,8.16,0c0,0.07,0.01,0.14,0.01,0.21
			C115.12,0.45,112.4,0.45,109.67,0.44z"></path>
	</g>
	<path d="M117.85,0.45c0-0.07,0-0.14-0.01-0.21c2,0,4,0,6,0c-0.03,0.35-0.31,0.31-0.53,0.31
		C121.49,0.52,119.67,0.49,117.85,0.45z"></path>
</g>
<path d="M57.83,287.8c0.28-0.05,0.55-0.12,0.77,0.14C58.33,287.99,58.06,288,57.83,287.8z"></path>
<g onclick="select(this)" class="" id="c-estampa-terciaria" fill="#082890">
	<path d="M152.48,288.75c-0.08-3.32,0.35-6.61,0.54-9.91c0.48-8.21,0.99-16.42,1.49-24.63
		c0.26-4.22,0.53-8.44,1.07-12.66c0.18,15.62,0.37,31.23,0.55,46.85c0.1,0,0.2,0,0.3,0c0.28-13.82,0.56-27.65,0.83-41.49
		c0.4,0.06,0.32,0.3,0.32,0.47c0,13.55-0.01,27.1-0.02,40.66c0,0.2-0.04,0.4-0.07,0.59C155.83,288.66,154.15,288.71,152.48,288.75z"></path>
	<path d="M59.48,283.89c0,1.02,0,2.04,0,3.06c0,0.39,0.1,0.8-0.32,1.06c-0.19-0.02-0.38-0.04-0.56-0.06
		c-0.22-0.26-0.5-0.19-0.77-0.14c-0.58-0.09-1.17-0.19-1.75-0.28c-0.2-1.8,0-3.59,0.05-5.38c0.48-16.42,0.96-32.85,1.44-49.27
		c0.02-0.59,0-1.19,0.25-1.78c0.1,2.94,0.22,5.88,0.3,8.82c0.31,10.43,0.6,20.86,0.9,31.29c0.11,3.8,0.2,7.59,0.32,11.39
		C59.36,283.02,59.43,283.45,59.48,283.89z"></path>
	<path d="M185.29,285.31c0.19-4.55,0.37-9.09,0.57-13.64c0.11-2.51,0.25-5.02,0.35-7.53
		c0.27-6.66,0.51-13.32,0.79-19.99c0.23-5.37,0.52-10.73,0.78-16.1c0.1,0,0.2,0,0.3,0c0.2,18.79,0.41,37.59,0.61,56.38
		C187.6,284.92,186.46,285.17,185.29,285.31z"></path>
	<path d="M52.27,286.8c0.49-17.42,0.99-34.84,1.49-52.32c0.61,0.17,0.46,0.51,0.47,0.74
		c0.16,5.63,0.34,11.26,0.47,16.89c0.27,11.34,0.51,22.69,0.75,34.03c0.01,0.43,0.11,0.88-0.12,1.29
		C54.31,287.25,53.25,287.22,52.27,286.8z"></path>
	<path d="M174.52,287.34c0-6.33-0.09-12.66,0.14-18.99c0.33-10.77,0.66-21.54,0.99-32.31c0.1,0,0.21,0,0.31,0
		c0.49,16.93,0.98,33.87,1.47,50.8C176.49,287.2,175.5,287.23,174.52,287.34z"></path>
	<path d="M178.06,286.77c0.27-10.9,0.54-21.81,0.8-32.71c0.15-5.95,0.28-11.9,0.43-17.85
		c0.01-0.23,0.05-0.46,0.08-0.69c0.1,0,0.21,0,0.31,0c0.51,16.9,1.01,33.79,1.52,50.69C180.17,286.49,179.13,286.73,178.06,286.77z"></path>
	<path d="M48.82,286.04c0.3-17.93,0.61-35.86,0.91-53.79c0.74,3.74,0.57,7.53,0.69,11.3
		c0.45,14.27,0.86,28.54,1.28,42.8c0,0.12-0.01,0.24-0.02,0.36C50.71,286.59,49.74,286.42,48.82,286.04z"></path>
	<path d="M44.39,284.58c0.02-13.07,1.36-26.07,1.78-39.13c0.13,0,0.26,0,0.39,0c0.09,1.45,0.22,2.91,0.28,4.36
		c0.34,9.02,0.65,18.05,0.98,27.07c0.11,2.99,0.28,5.99,0.42,8.98C46.89,285.64,45.56,285.35,44.39,284.58z"></path>
	<path d="M181.8,286.06c0.33-10.11,0.65-20.22,0.98-30.33c0.19-5.87,0.38-11.75,0.57-17.62
		c0.01-0.36,0-0.71,0.06-1.07c0.54,1.84,0.5,3.73,0.54,5.61c0.25,14.27,0.47,28.55,0.71,42.82
		C183.71,285.74,182.78,286.02,181.8,286.06z"></path>
	<path d="M148.93,288.88c-0.3-0.4-0.14-0.86-0.11-1.28c0.54-10.16,1.1-20.33,1.64-30.49
		c0.21-4.01,0.39-8.02,0.58-12.03c0.13,0,0.25,0,0.38,0c0,3.11-0.03,6.22,0.01,9.33c0.14,11.02,0.32,22.05,0.47,33.07
		c0.01,0.43-0.06,0.87-0.09,1.3C150.85,288.81,149.89,288.85,148.93,288.88z"></path>
	<path d="M145.02,288.94c-0.18-1.24,0.08-2.47,0.14-3.7c0.39-8.58,0.8-17.17,1.19-25.75
		c0.19-4.19,0.38-8.37,0.57-12.56c0.11,0,0.22,0,0.34,0c0,1.81-0.04,3.62,0.01,5.42c0.28,11.75,0.57,23.5,0.86,35.26
		c0.01,0.43,0.12,0.88-0.09,1.3C147.02,288.91,146.02,288.92,145.02,288.94z"></path>
	<path d="M141.68,288.93c0.34-8.5,0.68-17,1.01-25.5c0.16-4.23,0.3-8.46,0.45-12.7c0.01-0.37,0.05-0.74,0.08-1.12
		c0.1,0,0.21,0,0.31,0.01c0,1.29-0.03,2.58,0,3.87c0.29,11.14,0.59,22.28,0.87,33.42c0.02,0.68-0.02,1.35-0.03,2.03
		c-0.15,0.01-0.3,0.03-0.45,0.04C143.18,288.97,142.43,288.95,141.68,288.93z"></path>
	<path d="M189.15,284.32c0-6.78,0-13.56,0-20.34c1.19,6.63,0.87,13.32,0.94,19.99
		C189.82,284.2,189.51,284.33,189.15,284.32z"></path>
	<path d="M79.19,241.58c0.18,2.95,0.35,5.9,0.53,8.84c0.42,6.66,0.85,13.31,1.27,19.97
		c0.36,5.74,0.7,11.48,1.07,17.22c0.05,0.83-0.16,1.09-1.03,1.07c-2.68-0.08-2.7-0.04-2.67-2.69c0.13-12.95,0.26-25.9,0.43-38.85
		C78.81,245.28,78.71,243.41,79.19,241.58z"></path>
	<path d="M120.84,288.98c-0.92,0.53-1.92,0.21-2.88,0.22c-0.5,0.01-0.43-0.48-0.43-0.82
		c0.01-1.06,0.03-2.13,0.05-3.19c0.23-9.29,0.47-18.59,0.7-27.89c0.09-3.47,0.17-6.94,0.28-10.41c0.01-0.39-0.2-0.88,0.28-1.18
		c0,0,0.08,0.05,0.08,0.05c0.08,4.11,0.3,8.22,0.51,12.33c0.44,8.41,0.83,16.83,1.23,25.25
		C120.75,285.22,120.78,287.1,120.84,288.98z"></path>
	<path d="M117.13,285.22c0.02,1.06,0.02,2.12,0.05,3.19c0.02,0.58-0.16,0.91-0.79,0.85
		c-0.85-0.08-1.73,0.2-2.56-0.18c0.23-4.87,0.46-9.74,0.69-14.61c0.36-7.59,0.73-15.17,1.06-22.76c0.08-1.97,0.01-3.95,0.01-5.93
		c0.17,0,0.33,0,0.5,0C116.43,258.93,116.78,272.08,117.13,285.22z"></path>
	<path d="M83.41,245.08c0.25,4.67,0.5,9.33,0.76,14c0.47,8.53,0.96,17.06,1.43,25.6c0.06,1.08,0.02,2.16,0.1,3.23
		c0.05,0.69-0.24,0.8-0.83,0.79c-2.88-0.08-2.3,0.37-2.27-2.22c0.18-12.94,0.41-25.89,0.61-38.83c0.01-0.84,0-1.67,0-2.51
		C83.28,245.12,83.35,245.1,83.41,245.08z"></path>
	<path d="M87.56,246.93c0.25,5.34,0.51,10.69,0.76,16.03c0.38,7.98,0.77,15.97,1.14,23.95
		c0.03,0.57,0.38,1.49-0.13,1.66c-0.83,0.27-1.82,0.18-2.72,0.05c-0.48-0.07-0.25-0.69-0.24-1.05c0.15-6.51,0.31-13.03,0.48-19.54
		c0.17-6.67,0.33-13.35,0.5-20.02c0.01-0.36,0-0.71,0-1.07C87.42,246.94,87.49,246.94,87.56,246.93z"></path>
	<path d="M113.3,289.09c-1.02,0.27-2.03,0.38-3.02-0.11c0.58-13.47,1.15-26.94,1.73-40.41c0.08,0,0.17,0,0.25,0
		C112.61,262.07,112.95,275.58,113.3,289.09z"></path>
	<path d="M124.43,288.99c-1,0.4-2.01,0.32-3.02,0.07c0.34-13.5,0.69-26.99,1.03-40.49c0.08,0,0.16-0.01,0.24-0.01
		C123.26,262.04,123.85,275.51,124.43,288.99z"></path>
	<path d="M91.28,249.64c0.28,6.99,0.55,13.98,0.83,20.97c0.23,5.71,0.44,11.43,0.7,17.14
		c0.04,0.92-0.32,1.15-1.09,0.99c-0.67-0.14-1.74,0.54-1.69-1.03c0.37-12.51,0.67-25.02,1-37.54c0-0.18,0.03-0.37,0.05-0.55
		C91.15,249.62,91.21,249.63,91.28,249.64z"></path>
	<path d="M77.34,246.64c0,2.83-0.04,5.39,0.01,7.94c0.2,10.86,0.43,21.73,0.65,32.59c0.01,0.28-0.01,0.56,0.01,0.84
		c0.02,0.4-0.12,0.59-0.54,0.58c-0.41-0.01-0.58-0.2-0.55-0.6c0.01-0.16,0-0.32,0-0.48c-0.01-13.27-0.01-26.54-0.01-39.81
		C76.9,247.44,76.77,247.14,77.34,246.64z"></path>
</g>
<g onclick="select(this)" class="" id="c-estampa-primaria" fill="#bf0811">
	<path d="M141.68,288.93c0.75,0.02,1.5,0.04,2.25,0.06c-1.58,0.23-3.18,0.17-4.77,0.18
		c-9.28,0.09-18.57,0.16-27.86,0.24c-0.4,0-0.79-0.04-1.19-0.06c-0.18-0.22,0.09-0.26,0.16-0.38c0.99,0.5,2,0.38,3.02,0.11
		c0.18,0,0.35,0,0.53-0.01c0.83,0.39,1.71,0.1,2.56,0.18c0.64,0.06,0.82-0.28,0.79-0.85c-0.04-1.06-0.04-2.12-0.05-3.19
		c0.15-0.01,0.3-0.01,0.45-0.03c-0.02,1.06-0.04,2.12-0.05,3.19c0,0.34-0.07,0.83,0.43,0.82c0.96-0.02,1.96,0.3,2.88-0.22
		c0.19,0.03,0.38,0.06,0.57,0.08c1.01,0.25,2.03,0.33,3.02-0.07c2.57,0.36,2.57,0.36,2.57-2.11c0-32.77,0-65.54,0-98.31
		c0-1.77,0.29-1.96,2.13-1.39c-1.93,0.05-1.93,0.05-1.93,2.04c0,5.92,0,11.84,0,17.75c0,26.83,0.01,53.66-0.03,80.49
		c0,1.23,0.31,1.55,1.53,1.52c3.6-0.08,7.2-0.03,10.8-0.03c1.61,0,1.61,0,1.61-1.62c0-26.43,0-52.86-0.01-79.29
		c0-0.48,0.02-0.96,0.03-1.44c0.26,0.49,0.14,1.02,0.14,1.53c0.02,26.47,0.04,52.95,0.07,79.42
		C141.36,288.01,141.01,288.61,141.68,288.93z"></path>
	<path d="M188.91,111.93c-0.34,2.83-0.84,5.64-0.74,8.51c-0.46,0.25-0.28,0.71-0.33,1.07
		c-1.24,10.51-1.5,21.06-0.94,31.62c0.23,4.41-0.29,8.79-0.39,13.18c-0.12,4.84,0.3,9.67,0.26,14.51c-0.03,2.8-0.1,5.59-0.45,8.38
		c-0.23,1.87-0.26,3.75,0.06,5.62c0.04,0.24,0.1,0.48,0.08,0.71c-0.31,3.17,0.54,6.15,1.42,9.15c1.74,5.95,1.9,12.04,1.41,18.18
		c-0.3,3.73-0.81,7.45-0.01,11.21c0.27,1.27,0.16,2.63,0.1,3.95c-0.35,7.6,0.76,15.14,1.1,22.71c0.24,5.35,0.69,10.68,0.94,16.03
		c0.08,1.67,0.27,3.34,0.29,5.02c0.01,1.15-0.45,1.92-1.61,2.19c-0.06-6.67,0.25-13.36-0.94-19.99c0,6.78,0,13.56,0,20.34
		c-0.16,0.04-0.32,0.07-0.48,0.11c-0.2-18.79-0.41-37.59-0.61-56.38c-0.1,0-0.2,0-0.3,0c-0.26,5.37-0.54,10.73-0.78,16.1
		c-0.29,6.66-0.52,13.32-0.79,19.99c-0.1,2.51-0.24,5.02-0.35,7.53c-0.19,4.55-0.38,9.09-0.57,13.64c-0.21,0.05-0.43,0.11-0.64,0.16
		c-0.23-14.28-0.46-28.55-0.71-42.82c-0.03-1.88,0-3.77-0.54-5.61c-0.06,0.36-0.05,0.71-0.06,1.07c-0.19,5.87-0.38,11.75-0.57,17.62
		c-0.33,10.11-0.65,20.22-0.98,30.33c-0.2,0.05-0.4,0.09-0.6,0.14c-0.51-16.9-1.01-33.79-1.52-50.69c-0.1,0-0.21,0-0.31,0
		c-0.03,0.23-0.08,0.46-0.08,0.69c-0.15,5.95-0.28,11.9-0.43,17.85c-0.27,10.9-0.53,21.81-0.8,32.71c-0.21,0.02-0.42,0.05-0.63,0.07
		c-0.49-16.93-0.98-33.87-1.47-50.8c-0.1,0-0.21,0-0.31,0c-0.33,10.77-0.66,21.54-0.99,32.32c-0.04-0.47-0.1-0.95-0.1-1.43
		c-0.1-16.83,0.14-33.67-0.24-50.5c-0.21-9.15-0.24-18.31-0.35-27.47c-0.03-2.28,0.24-1.88-1.99-2c-1.12-0.06-1.31,0.38-1.33,1.37
		c-0.06,5.76-0.21,11.51-0.29,17.27c-0.04,2.41-0.01,4.82-0.01,7.23c-0.14,0-0.27,0-0.41,0c0-0.44,0.01-0.87,0-1.31
		c-0.1-7.52-0.2-15.03-0.34-22.55c-0.02-0.83,0.58-2.02-1.25-2.04c-1.8-0.03-1.28,1.11-1.29,1.97c-0.12,5.2-0.19,10.39-0.28,15.59
		c-0.01,0.39-0.04,0.78-0.05,1.16c-0.29-5.75-0.49-11.5-0.59-17.25c-0.02-1.15-0.33-1.45-1.47-1.47c-1.17-0.01-1.25,0.48-1.26,1.42
		c-0.05,7.56-0.14,15.11-0.22,22.67c0,0.44,0,0.87,0,1.31c-0.15,0-0.31,0-0.46,0c0-3.35,0.04-6.71-0.01-10.06
		c-0.07-4.72-0.19-9.43-0.3-14.15c-0.01-0.41,0.15-0.91-0.43-1.12c-1.41-0.52-2.35,0.09-2.35,1.55
		c-0.02,33.31-0.04,66.63-0.05,99.94c-0.69,0.04-1.39,0.08-2.08,0.12c0.02-0.2,0.07-0.4,0.07-0.59c0.01-13.55,0.02-27.1,0.02-40.66
		c0-0.17,0.08-0.41-0.32-0.47c-0.28,13.84-0.56,27.67-0.83,41.49c-0.1,0-0.2,0-0.3,0c-0.18-15.62-0.37-31.23-0.55-46.85
		c-0.54,4.22-0.81,8.44-1.07,12.66c-0.5,8.21-1.01,16.42-1.49,24.63c-0.19,3.3-0.62,6.6-0.54,9.91c-0.22,0.01-0.45,0.02-0.67,0.03
		c0.03-0.43,0.09-0.87,0.09-1.3c-0.15-11.02-0.33-22.05-0.47-33.07c-0.04-3.11-0.01-6.22-0.01-9.33c-0.13,0-0.25,0-0.38,0
		c-0.19,4.01-0.37,8.02-0.58,12.03c-0.54,10.16-1.1,20.33-1.64,30.49c-0.02,0.42-0.18,0.88,0.11,1.28c-0.3,0.01-0.6,0.01-0.9,0.02
		c0.2-0.42,0.1-0.87,0.09-1.3c-0.29-11.75-0.58-23.5-0.86-35.26c-0.04-1.81-0.01-3.61-0.01-5.42c-0.11,0-0.22,0-0.34,0
		c-0.19,4.19-0.38,8.37-0.57,12.56c-0.4,8.58-0.8,17.17-1.19,25.75c-0.06,1.23-0.32,2.46-0.14,3.7c-0.21,0-0.43,0.01-0.64,0.01
		c0.01-0.68,0.05-1.35,0.03-2.03c-0.29-11.14-0.59-22.28-0.87-33.42c-0.03-1.29,0-2.58,0-3.87c-0.1,0-0.21,0-0.31-0.01
		c-0.03,0.37-0.06,0.74-0.08,1.12c-0.15,4.23-0.29,8.46-0.45,12.7c-0.33,8.5-0.67,17-1.01,25.5c-0.66-0.32-0.32-0.92-0.32-1.37
		c-0.04-26.47-0.05-52.95-0.07-79.42c0-0.51,0.11-1.04-0.14-1.53c-0.01-6.24-0.02-12.47-0.17-18.71c-0.03-1.27-0.85-0.86-1.48-0.91
		c-0.68-0.05-1.29-0.14-1.31,0.96c-0.08,4.79-0.27,9.59-0.39,14.38c-0.13,5.59-0.21,11.19-0.34,16.79
		c-0.02,1.02-0.16,2.03-0.24,3.04c-0.14-0.49-0.13-0.97-0.14-1.44c-0.16-10.87-0.33-21.75-0.48-32.62
		c-0.01-0.76-0.11-1.16-1.03-1.15c-0.87,0.01-1.17,0.21-1.18,1.13c-0.07,7-0.2,13.99-0.29,20.99c-0.03,2.06,0,4.12,0,6.18
		c-0.2,0-0.39,0-0.59,0c0-2.91,0.05-5.83-0.01-8.74c-0.13-6.15-0.33-12.31-0.45-18.46c-0.02-0.83-0.26-1.08-1.09-1.09
		c-0.9-0.01-1.35,0.2-1.27,1.18c0.04,0.47-0.04,0.96-0.04,1.44c-0.05,9.56-0.08,19.11-0.14,28.67c-0.01,1.08-0.13,2.16-0.2,3.25
		c-0.26-4.96-0.36-9.92-0.49-14.87c-0.14-4.95-0.32-9.91-0.48-14.86c0-1.52,0.22-3.06-0.19-4.56l0-0.01
		c-1.85-0.57-2.13-0.38-2.13,1.39c0,32.77,0,65.54,0,98.31c0,2.47,0,2.47-2.57,2.11c-0.58-13.48-1.17-26.95-1.75-40.43
		c-0.08,0-0.16,0.01-0.24,0.01c-0.34,13.5-0.69,26.99-1.03,40.49c-0.19-0.03-0.38-0.06-0.57-0.08c-0.06-1.88-0.09-3.75-0.18-5.63
		c-0.4-8.42-0.79-16.83-1.23-25.25c-0.22-4.11-0.43-8.22-0.51-12.33c0.09-0.95,0.26-1.9,0.26-2.86c0.03-7.43,0.3-14.86,0.46-22.29
		c0.21-9.15,0.23-18.31,0.35-27.47c0.02-1.68,0.05-3.36,0.14-5.03c0.04-0.77-0.07-1.22-1-1.17c-0.77,0.04-1.36-0.04-1.32,1.09
		c0.14,3.87,0.17,7.75,0.23,11.63c0.13,9.24,0.16,18.47,0.39,27.71c0.15,6.11,0.34,12.22,0.41,18.33c-0.49,0.29-0.27,0.79-0.28,1.18
		c-0.11,3.47-0.19,6.94-0.28,10.41c-0.23,9.3-0.47,18.6-0.7,27.89c-0.15,0.01-0.3,0.01-0.45,0.02c-0.35-13.15-0.69-26.29-1.04-39.44
		c-0.17,0-0.33,0-0.5,0c0,1.98,0.07,3.96-0.01,5.93c-0.33,7.59-0.7,15.17-1.06,22.76c-0.23,4.87-0.46,9.74-0.69,14.61
		c-0.18,0-0.35,0-0.53,0c-0.35-13.51-0.69-27.02-1.04-40.52c-0.08,0-0.17,0-0.25,0c-0.58,13.47-1.15,26.94-1.73,40.41
		c-0.08,0.12-0.34,0.15-0.16,0.38c-0.65,0.01-1.3,0.02-1.95,0.03c0.01-0.2,0.03-0.4,0.03-0.6c-0.09-20.39,0.15-40.79-0.13-61.18
		c-0.18-13.08-0.23-26.15-0.33-39.23c0-0.28-0.01-0.56-0.01-0.84c-0.01-0.33-0.17-0.47-0.5-0.54c-1.52-0.32-1.99,0.01-2.03,1.51
		c-0.11,3.76-0.21,7.51-0.3,11.27c-0.18,6.83-0.35,13.67-0.53,20.5c-0.01,0.29,0.07,0.61-0.4,1.16c0-1.36,0.01-2.41,0-3.46
		c-0.07-9.96-0.16-19.91-0.21-29.87c0-0.76-0.13-1.08-1.02-1.16c-1.41-0.13-1.34,0.73-1.36,1.62c-0.13,5.56-0.28,11.11-0.37,16.67
		c-0.06,3.66-0.01,7.32-0.01,10.98c-0.11,0-0.23,0-0.34,0c-0.29-0.62-0.26-1.3-0.27-1.96c-0.11-8.68-0.23-17.35-0.32-26.03
		c-0.01-0.87-0.16-1.28-1.18-1.28c-1.09,0-0.99,0.6-1,1.3c-0.02,1.36-0.11,2.72-0.13,4.07c-0.11,8.56-0.21,17.11-0.33,25.67
		c0,0.35,0.13,0.76-0.21,1.07c-0.31-0.22-0.23-0.47-0.24-0.69c-0.08-3.52-0.14-7.04-0.22-10.55c-0.15-6.6-0.35-13.19-0.44-19.79
		c-0.02-1.29-0.77-0.99-1.49-1.04c-0.78-0.06-1.24,0.03-1.24,1.05c0,5.28-0.13,10.56-0.13,15.83c-0.02,28.52-0.01,57.03-0.01,85.55
		c-6.27,0.03-12.54,0.11-18.82-0.08c0-0.84-0.01-1.68-0.01-2.52c0-23.75,0.01-47.5,0-71.25c0-9.12-0.06-18.23-0.03-27.35
		c0-1.19-0.52-1.24-1.44-1.25c-0.95-0.01-1.39,0.11-1.41,1.27c-0.1,6.63-0.29,13.27-0.47,19.9c-0.01,0.28,0.12,0.63-0.27,0.84
		c-0.3-0.47-0.17-0.95-0.17-1.41c-0.03-6.44-0.07-12.87-0.06-19.31c0-1-0.29-1.32-1.29-1.28c-0.93,0.04-1.53,0-1.54,1.29
		c-0.01,4.44-0.16,8.87-0.26,13.31c-0.01,0.39,0.12,0.84-0.25,1.22c-0.35-0.46-0.21-0.91-0.22-1.33c-0.04-4.04-0.05-8.08-0.08-12.11
		c-0.02-2.3-0.02-2.29-2.34-2.37c-0.08,0.05-0.16,0.11-0.23,0.16c-0.06,2.77,0.08,5.55-0.16,8.32c-0.27,1.59,0.14,3.24-0.26,5
		c-0.5-0.71-0.12-1.36-0.39-1.9c-0.19-2.02-0.16-4.05-0.1-6.08c0.39-1.19,0.27-2.36-0.13-3.51c-0.06-0.64-0.13-1.28-0.19-1.92
		c-0.06-0.03-0.12-0.05-0.17-0.07c-0.64,0.01-1.28,0.07-1.92,0.02c-0.76-0.06-1.07,0.18-1.05,0.99c0.03,1.2-0.08,2.39-0.1,3.59
		c-0.17,11.71-0.43,23.42-0.48,35.13c-0.08,17.59-0.01,35.18-0.01,52.77c0,1.48-0.07,2.95-0.11,4.43c-0.05-0.43-0.12-0.87-0.14-1.31
		c-0.11-3.8-0.21-7.59-0.32-11.39c-0.3-10.43-0.6-20.86-0.9-31.29c-0.09-2.94-0.2-5.88-0.3-8.82c-0.25,0.6-0.23,1.19-0.25,1.78
		c-0.48,16.42-0.96,32.85-1.44,49.27c-0.05,1.79-0.24,3.59-0.05,5.38c-0.25-0.03-0.5-0.06-0.75-0.09c0.23-0.41,0.13-0.86,0.12-1.29
		c-0.24-11.34-0.49-22.69-0.75-34.03c-0.13-5.63-0.31-11.26-0.47-16.89c-0.01-0.24,0.14-0.57-0.47-0.74
		c-0.5,17.49-0.99,34.9-1.49,52.32c-0.2-0.03-0.39-0.06-0.59-0.08c0.01-0.12,0.03-0.24,0.02-0.36c-0.42-14.27-0.84-28.54-1.28-42.8
		c-0.12-3.77,0.05-7.56-0.69-11.3c-0.3,17.93-0.61,35.86-0.91,53.79c-0.2-0.05-0.39-0.11-0.59-0.16c-0.14-2.99-0.3-5.98-0.42-8.98
		c-0.34-9.02-0.65-18.05-0.98-27.07c-0.05-1.45-0.18-2.91-0.28-4.36c-0.13,0-0.26,0-0.39,0c-0.42,13.05-1.76,26.05-1.78,39.13
		c-1.2-0.46-1.02-1.54-0.98-2.45c0.12-2.58,0.36-5.16,0.51-7.75c0.42-7.13,1.27-14.25,1.19-21.41c-0.01-0.99,0.03-2.02,0.25-2.98
		c0.79-3.48,0.5-6.96,0.21-10.46c-0.39-4.86,0.09-9.66,1.34-14.36c0.46-1.72,0.48-3.37,0.28-5.07c-0.98-8.35-0.91-16.65,0.98-24.89
		c0.05,6.67,0.11,13.35,0.16,20.02c0.12,0,0.23,0,0.35,0c0.25-9.11,0.5-18.21,0.77-27.32c0.02-0.74-0.21-1.05-0.95-0.94
		c-0.02-3.67,0-7.35-0.07-11.02c-0.11-5.64-0.06-11.27-0.41-16.91c-0.26-4.23,0.43-8.45,0.24-12.7c-0.4-8.95-0.82-17.89-1.43-26.83
		c-0.02-0.34,0.19-0.85-0.4-0.98c-0.44-0.39-0.37-0.92-0.36-1.42c0.02-1.29,0.06-2.58,0.1-3.87c0.17-0.9,0.27-1.75-0.19-2.65
		c-0.41-0.81-0.68-1.71-0.86-2.59c-0.67-3.43-0.16-6.93-0.84-10.43c-0.59-3.03-0.54-6.23-1.08-9.32c-0.38-2.15-0.91-4.27-1.01-6.46
		c-0.08-1.64-1.31-2.86-1.95-4.29c-0.71-1.58-1.86-2.94-2.6-4.59c-0.63-1.4-1.22-2.77-1.66-4.26c-1.21-4.07-2.33-8.16-3.56-12.22
		c-1.2-3.97-1.42-8.02-1.71-12.09c-0.11-1.49,0.25-2.93,0.28-4.41c0.04-1.98-0.05-3.98,0.44-5.93c0.13-0.53-0.01-1.03-0.48-1.38
		c5.86-2.81,11.79-5.44,17.83-7.84c5.53-2.2,10.94-4.67,16.37-7.1c4.03-1.8,7.75-4.14,11.44-6.51c0.3-0.19,0.56-0.45,0.78-0.73
		c1.22-1.5,2.73-2.43,4.7-2.54c1.21,0.6,2.51,0.15,3.77,0.36c9.87,1.62,19.83,2.47,29.81,2.68c8.35,0.17,16.68-0.58,24.99-1.52
		c4.28-0.49,8.54-1.1,12.81-1.65c1.6,0.03,3.01,0.6,4.04,1.79c1.32,1.53,3,2.49,4.71,3.44c8.45,4.71,17.25,8.7,26.25,12.24
		c4.83,1.9,9.5,4.17,14.19,6.39c0.5,0.24,1.04,0.49,1.39,0.98c-0.5,1,0.38,1.94,0.17,2.87c-0.33,1.47-0.08,2.9,0.01,4.34
		c0.11,1.79,0.54,3.64,0.2,5.35c-0.58,2.91-0.12,5.92-1.09,8.77c-0.44,1.31-0.56,2.72-0.94,4.06c-1.45,5.08-2.48,10.3-4.96,15.05
		c-0.95,1.83-1.57,3.81-3.39,5.06c-0.7,0.48-1.06,1.29-1.29,2.09c-1.08,3.93-1.48,7.94-1.72,12c-0.11,1.86-0.1,3.73-0.39,5.58
		c-0.3,1.93-0.88,3.79-1.25,5.7C188.81,106.27,189.39,109.13,188.91,111.93z M79.19,241.58c-0.48,1.83-0.37,3.7-0.4,5.56
		c-0.17,12.95-0.3,25.9-0.43,38.85c-0.03,2.65-0.01,2.61,2.67,2.69c0.87,0.03,1.08-0.24,1.03-1.07c-0.38-5.74-0.71-11.48-1.07-17.22
		c-0.42-6.66-0.85-13.31-1.27-19.97C79.54,247.48,79.37,244.53,79.19,241.58z M114.87,245.45c0.3-7.19,0.33-14.37,0.8-21.53
		c0.11-1.67,0.12-3.35,0.16-5.03c0.25-10.27,0.48-20.54,0.76-30.81c0.03-0.94-0.29-1.17-1.16-1.12c-0.79,0.04-1.44-0.09-1.4,1.13
		c0.13,3.71,0.14,7.43,0.17,11.15c0.09,9.43,0.17,18.87,0.24,28.3c0.04,5.4,0.07,10.79,0.12,16.19
		C114.56,244.31,114.49,244.92,114.87,245.45z M83.41,245.08c-0.07,0.02-0.13,0.03-0.2,0.05c0,0.84,0.01,1.67,0,2.51
		c-0.21,12.94-0.43,25.89-0.61,38.83c-0.04,2.59-0.61,2.14,2.27,2.22c0.59,0.02,0.88-0.1,0.83-0.79c-0.08-1.07-0.04-2.16-0.1-3.23
		c-0.47-8.53-0.96-17.06-1.43-25.6C83.91,254.41,83.66,249.75,83.41,245.08z M123.02,230.76c0.12-0.02,0.25-0.04,0.37-0.06
		c-0.15-2.24,0.32-4.44,0.35-6.67c0.15-11.95,0.25-23.9,0.4-35.84c0.01-1.04-0.34-1.23-1.29-1.25c-1.07-0.03-1.24,0.38-1.21,1.33
		c0.19,6.07,0.33,12.14,0.48,18.21c0.18,7.11,0.35,14.22,0.55,21.33C122.71,228.79,122.9,229.78,123.02,230.76z M87.56,246.93
		c-0.07,0-0.14,0.01-0.21,0.01c0,0.36,0.01,0.71,0,1.07c-0.17,6.67-0.33,13.35-0.5,20.02c-0.16,6.51-0.33,13.03-0.48,19.54
		c-0.01,0.37-0.24,0.99,0.24,1.05c0.9,0.13,1.89,0.22,2.72-0.05c0.52-0.17,0.16-1.09,0.13-1.66c-0.37-7.98-0.76-15.97-1.14-23.95
		C88.06,257.62,87.81,252.28,87.56,246.93z M110.35,207.87c0.1,0,0.21,0,0.31,0c0,6.59,0,13.18,0,19.78c0,0.32,0.01,0.64,0.05,0.96
		c0.02,0.21,0.14,0.37,0.39,0.35c0.2-0.02,0.29-0.18,0.27-0.33c-0.09-0.82,0.36-1.54,0.38-2.33c0.33-12.7,0.65-25.4,1.01-38.1
		c0.03-0.9-0.15-1.27-1.16-1.25c-0.97,0.02-1.29,0.25-1.28,1.27C110.38,194.76,110.35,201.32,110.35,207.87z M91.28,249.64
		c-0.07-0.01-0.14-0.01-0.21-0.02c-0.02,0.18-0.04,0.37-0.05,0.55c-0.33,12.51-0.64,25.03-1,37.54c-0.05,1.57,1.02,0.9,1.69,1.03
		c0.77,0.16,1.14-0.07,1.09-0.99c-0.27-5.71-0.48-11.43-0.7-17.14C91.83,263.62,91.56,256.63,91.28,249.64z M145.35,190.48
		c0.02,0,0.05,0,0.07,0c0-0.76-0.03-1.52,0.01-2.28c0.04-0.75,0.03-1.27-1.02-1.27c-1,0-1.19,0.35-1.17,1.25
		c0.11,5.2,0.18,10.39,0.24,15.59c0.09,7.96,0.17,15.91,0.25,23.87c0,0.2,0,0.4,0.01,0.6c0.01,0.2,0.05,0.43,0.3,0.43
		c0.24,0,0.3-0.23,0.32-0.43c0.02-0.2,0.02-0.4,0.03-0.6C144.71,215.26,145.03,202.87,145.35,190.48z M90.96,207.96
		c0.16,0,0.31,0,0.47,0c0-6.59-0.02-13.18,0.02-19.77c0-0.9-0.17-1.25-1.17-1.25c-1.05,0-1.03,0.53-1.01,1.27
		c0.16,5.39,0.31,10.78,0.45,16.17c0.2,7.79,0.37,15.57,0.57,23.36c0.01,0.34-0.21,0.95,0.4,0.91c0.46-0.03,0.26-0.59,0.26-0.92
		C90.96,221.14,90.96,214.55,90.96,207.96z M152.58,228.6c0.39-0.31,0.21-0.75,0.21-1.11c0.03-3.84,0.02-7.67,0.05-11.51
		c0.04-5.23,0.12-10.47,0.17-15.7c0.04-4.12,0.04-8.23,0.09-12.35c0.01-0.73-0.21-0.95-0.95-0.98c-0.96-0.04-1.01,0.44-0.99,1.17
		c0.18,5.43,0.35,10.86,0.49,16.29c0.21,7.71,0.39,15.42,0.59,23.13C152.26,227.9,152.1,228.34,152.58,228.6z M82.27,228.81
		c0.09-1.16,0.19-2.07,0.22-2.98c0.12-4.83,0.21-9.67,0.34-14.51c0.09-3.32,0.23-6.63,0.33-9.94c0.14-4.51,0.25-9.03,0.38-13.54
		c0.02-0.59-0.13-0.84-0.79-0.88c-0.89-0.05-1.17,0.22-1.15,1.14c0.1,5.31,0.16,10.63,0.2,15.95c0.06,7.76,0.09,15.51,0.14,23.27
		C81.94,227.72,81.78,228.17,82.27,228.81z M86.01,228.83c0.64-0.35,0.6-0.56,0.61-0.75c0.22-13.38,0.44-26.76,0.68-40.14
		c0.01-0.71-0.17-0.99-0.93-0.99c-0.75,0-0.96,0.26-0.94,0.98c0.1,3.55,0.18,7.11,0.23,10.66c0.13,8.51,0.24,17.02,0.35,25.53
		C86.03,225.62,86.01,227.12,86.01,228.83z M148.71,205.42c0.19,0,0.38,0,0.58,0c0-5.79-0.01-11.58,0.01-17.38
		c0-0.7-0.07-1.1-0.95-1.1c-0.89,0-0.95,0.42-0.93,1.11c0.08,2.24,0.13,4.47,0.17,6.71c0.15,9.23,0.3,18.45,0.46,27.68
		c0.01,0.38-0.25,1.07,0.42,1.02c0.47-0.03,0.23-0.67,0.23-1.03C148.71,216.76,148.71,211.09,148.71,205.42z M156.19,221.29
		c0.5-0.32,0.31-0.76,0.32-1.11c0.03-1.44,0.02-2.88,0.04-4.32c0.12-9.31,0.24-18.62,0.39-27.93c0.01-0.87-0.37-0.96-1.08-0.97
		c-0.76-0.01-0.92,0.25-0.89,0.99c0.14,3.39,0.22,6.79,0.31,10.19c0.2,7.15,0.38,14.3,0.59,21.45
		C155.88,220.14,155.81,220.75,156.19,221.29z M78.09,220.94c0.87-0.61,0.74-1.19,0.75-1.66c0.3-10.38,0.58-20.76,0.88-31.13
		c0.02-0.71,0.02-1.2-0.96-1.2c-0.97,0-0.99,0.47-0.97,1.19c0.08,4.19,0.14,8.38,0.18,12.58c0.05,5.15,0.08,10.31,0.12,15.46
		C78.1,217.67,78.09,219.18,78.09,220.94z M77.34,246.64c-0.57,0.51-0.45,0.8-0.45,1.06c0,13.27,0.01,26.54,0.01,39.81
		c0,0.16,0.01,0.32,0,0.48c-0.02,0.4,0.14,0.59,0.55,0.6c0.43,0.02,0.57-0.18,0.54-0.58c-0.02-0.28,0-0.56-0.01-0.84
		c-0.22-10.86-0.44-21.72-0.65-32.59C77.3,252.02,77.34,249.47,77.34,246.64z M176.5,221.91c0.03,0,0.05,0,0.08,0
		c0.08-1.83,0.2-3.66,0.25-5.5c0.07-2.6,0.07-5.19,0.14-7.79c0.18-6.91,0.36-13.82,0.59-20.72c0.03-1.04-0.55-1.01-1.2-0.9
		c-0.74,0.13-0.43,0.77-0.42,1.18c0.1,10.15,0.21,20.3,0.34,30.45C176.28,219.72,176.42,220.82,176.5,221.91z M56.9,221.42
		c0.04-0.02,0.08-0.03,0.12-0.05c0.09-0.71,0.24-1.42,0.25-2.13c0.13-10.44,0.25-20.88,0.38-31.31c0.01-0.6-0.06-0.98-0.82-0.97
		c-0.78,0.01-0.81,0.44-0.79,1.01c0.13,4.08,0.25,8.15,0.36,12.23C56.57,207.27,56.73,214.35,56.9,221.42z M52.66,217.34
		c0.36-0.66,0.29-1.3,0.29-1.93c0.12-8.74,0.23-17.48,0.35-26.23c0.01-0.56,0.07-1.11,0.08-1.67c0.01-0.41-0.26-0.53-0.63-0.53
		c-0.35,0-0.65,0.06-0.66,0.5c-0.01,0.32-0.01,0.64,0,0.96C52.31,198.05,52.26,207.67,52.66,217.34z M180.83,217.04
		c0.08-1.23,0.23-2.7,0.25-4.17c0.14-8.15,0.24-16.29,0.36-24.44c0-0.32,0.01-0.64,0-0.96c-0.01-0.35-0.22-0.48-0.55-0.48
		c-0.36-0.01-0.65,0.06-0.65,0.5c-0.01,0.32,0,0.64,0,0.96c0.09,6.67,0.2,13.34,0.28,20.01
		C180.57,211.39,180.51,214.35,180.83,217.04z M184.84,211.2c0.05,0.02,0.1,0.03,0.15,0.05c0.09-1.3,0.24-2.6,0.27-3.9
		c0.08-3.24,0.11-6.47,0.15-9.71c0.03-3.24,0.03-6.48,0.05-9.72c0-0.49,0.06-0.97-0.7-0.96c-0.78,0.01-0.64,0.53-0.65,1
		c0,0.08,0,0.16,0,0.24c0.18,6.67,0.35,13.35,0.54,20.02C184.69,209.22,184.78,210.21,184.84,211.2z"></path>
	<path d="M30.95,32.61c0.46,0.36,0.61,0.85,0.48,1.38c-0.49,1.95-0.4,3.95-0.44,5.93c-0.03,1.48-0.38,2.92-0.28,4.41
		c0.29,4.07,0.51,8.12,1.71,12.09c1.23,4.06,2.36,8.15,3.56,12.22c0.44,1.49,1.02,2.85,1.66,4.26c0.74,1.65,1.9,3.01,2.6,4.59
		c0.64,1.43,1.87,2.65,1.95,4.29c0.11,2.2,0.64,4.32,1.01,6.46c0.54,3.1,0.49,6.3,1.08,9.32c0.68,3.5,0.17,7,0.84,10.43
		c0.17,0.89,0.45,1.79,0.86,2.59c0.45,0.9,0.36,1.75,0.19,2.65c-0.22-0.8-0.74-0.9-1.34-0.46c-1.82,1.34-3.96,1.39-6.06,1.44
		c-5.15,0.12-10.29-0.05-15.37-0.93c-5.92-1.02-11.89-1.77-17.78-2.95c-1.29-0.26-2.63-0.12-3.89-0.57
		c0.65-4.26,1.28-8.53,1.95-12.78c0.9-5.77,2.61-11.36,3.77-17.06c0.88-4.3,1.17-8.7,2.15-12.99c1.65-7.24,3.96-14.22,8.02-20.52
		c2.6-4.03,5.82-7.5,9.48-10.57C28.4,34.77,29.67,33.69,30.95,32.61z"></path>
	<path d="M188.91,111.93c0.48-2.8-0.1-5.66,0.45-8.45c0.37-1.91,0.95-3.77,1.25-5.7c0.29-1.86,0.28-3.73,0.39-5.58
		c0.25-4.05,0.65-8.07,1.72-12c0.22-0.81,0.59-1.62,1.29-2.09c1.82-1.25,2.44-3.23,3.39-5.06c2.48-4.76,3.51-9.97,4.96-15.05
		c0.38-1.33,0.49-2.75,0.94-4.06c0.97-2.85,0.51-5.86,1.09-8.77c0.34-1.7-0.09-3.56-0.2-5.35c-0.09-1.45-0.34-2.88-0.01-4.34
		c0.21-0.93-0.67-1.87-0.17-2.87c0.31,0.15,0.69,0.23,0.94,0.46c3.67,3.43,7.61,6.62,10.53,10.78c3.61,5.14,6.18,10.78,7.99,16.79
		c2.01,6.68,2.79,13.58,3.88,20.44c1.56,9.77,2.63,19.63,4.68,29.32c0.08,0.39,0.08,0.79,0.11,1.19c-4.89,1.36-9.87,2.24-14.87,3.03
		c-2.72,0.43-5.45,0.63-8.19,0.86c-3.82,0.32-7.64,0.52-11.47,0.26c-3.21-0.22-6.14-1-8.28-3.63
		C189.25,111.98,189.05,111.98,188.91,111.93z"></path>
	<path d="M64.4,195.44c0.19,2.27-0.01,4.53-0.05,6.79c-0.04,2.03-0.02,4.06-0.04,6.09c0,0.37,0.06,0.76-0.13,1.09
		c-0.14,0-0.29-0.01-0.43-0.01c0-3.62,0-7.24,0-10.85c0.27,0.54-0.11,1.18,0.39,1.9C64.54,198.67,64.13,197.03,64.4,195.44z"></path>
	<path d="M63.64,192.46c-0.29-1.16-0.23-2.34-0.13-3.51C63.91,190.11,64.03,191.28,63.64,192.46z"></path>
</g>
<g onclick="select(this)" class="" id="c-estampa-secundaria" fill="#ffffff">
	<path d="M59.48,283.89c0.04-1.48,0.11-2.95,0.11-4.43c0-17.59-0.07-35.18,0.01-52.77
		c0.05-11.71,0.31-23.42,0.48-35.13c0.02-1.2,0.13-2.4,0.1-3.59c-0.02-0.81,0.29-1.05,1.05-0.99c0.63,0.05,1.28-0.01,1.92-0.02
		c0.04,0.07,0.1,0.1,0.17,0.07c0.06,0.64,0.13,1.28,0.19,1.92c-0.11,1.18-0.17,2.35,0.13,3.51c-0.05,2.03-0.08,4.06,0.1,6.08
		c0,3.62,0,7.24,0,10.85c0.14,0,0.29,0.01,0.43,0.01c0.2-0.33,0.13-0.72,0.13-1.09c0.02-2.03,0.01-4.06,0.04-6.09
		c0.04-2.26,0.24-4.53,0.05-6.79c0.24-2.77,0.1-5.54,0.16-8.32c0.08-0.05,0.16-0.11,0.23-0.16c2.32,0.08,2.33,0.08,2.34,2.37
		c0.03,4.04,0.04,8.08,0.08,12.11c0,0.41-0.13,0.86,0.22,1.33c0.37-0.38,0.24-0.83,0.25-1.22c0.11-4.44,0.26-8.87,0.26-13.31
		c0-1.28,0.61-1.25,1.54-1.29c1-0.04,1.29,0.28,1.29,1.28c-0.02,6.44,0.02,12.87,0.06,19.31c0,0.45-0.14,0.94,0.17,1.41
		c0.39-0.21,0.26-0.56,0.27-0.84c0.17-6.63,0.37-13.27,0.47-19.9c0.02-1.15,0.46-1.28,1.41-1.27c0.92,0.01,1.44,0.06,1.44,1.25
		c-0.03,9.12,0.03,18.23,0.03,27.35c0.01,23.75,0,47.5,0,71.25c0,0.84,0.01,1.68,0.01,2.52c-3.12,0.07-6.21-0.28-9.31-0.52
		c-2.06-0.16-4.15-0.16-6.15-0.81c0.41-0.26,0.32-0.67,0.32-1.06C59.48,285.92,59.48,284.9,59.48,283.89z"></path>
	<path d="M159.58,288.5c0.02-33.31,0.03-66.63,0.05-99.94c0-1.46,0.94-2.07,2.35-1.55c0.58,0.21,0.42,0.72,0.43,1.12
		c0.11,4.72,0.24,9.43,0.3,14.15c0.05,3.35,0.01,6.71,0.01,10.06c0.15,0,0.31,0,0.46,0c0-0.44,0-0.87,0-1.31
		c0.08-7.56,0.17-15.11,0.22-22.67c0.01-0.94,0.08-1.43,1.26-1.42c1.15,0.01,1.45,0.32,1.47,1.47c0.1,5.75,0.29,11.5,0.59,17.25
		c0.02-0.39,0.05-0.78,0.05-1.16c0.09-5.2,0.16-10.39,0.28-15.59c0.02-0.86-0.51-2,1.29-1.97c1.82,0.03,1.23,1.22,1.25,2.04
		c0.14,7.52,0.23,15.03,0.34,22.55c0.01,0.44,0,0.87,0,1.31c0.14,0,0.27,0,0.41,0c0-2.41-0.03-4.82,0.01-7.23
		c0.09-5.76,0.23-11.51,0.29-17.27c0.01-1,0.21-1.43,1.33-1.37c2.23,0.12,1.96-0.29,1.99,2c0.12,9.16,0.14,18.31,0.35,27.47
		c0.38,16.83,0.14,33.67,0.24,50.5c0,0.48,0.07,0.95,0.1,1.42c-0.22,6.33-0.13,12.66-0.14,18.99
		C169.57,288.07,164.59,288.49,159.58,288.5z"></path>
	<path d="M93.44,289.41c0-28.52,0-57.03,0.01-85.55c0-5.28,0.13-10.56,0.13-15.83c0-1.01,0.45-1.11,1.24-1.05
		c0.72,0.05,1.47-0.25,1.49,1.04c0.09,6.6,0.29,13.19,0.44,19.79c0.08,3.52,0.14,7.04,0.22,10.55c0,0.22-0.07,0.48,0.24,0.69
		c0.34-0.3,0.21-0.71,0.21-1.07c0.11-8.56,0.21-17.11,0.33-25.67c0.02-1.36,0.1-2.72,0.13-4.07c0.01-0.7-0.09-1.3,1-1.3
		c1.02,0,1.17,0.41,1.18,1.28c0.09,8.68,0.21,17.35,0.32,26.03c0.01,0.67-0.02,1.34,0.27,1.96c0.11,0,0.23,0,0.34,0
		c0-3.66-0.05-7.32,0.01-10.98c0.09-5.56,0.24-11.11,0.37-16.67c0.02-0.89-0.05-1.74,1.36-1.62c0.89,0.08,1.02,0.39,1.02,1.16
		c0.06,9.96,0.14,19.91,0.21,29.87c0.01,1.05,0,2.1,0,3.46c0.47-0.55,0.39-0.88,0.4-1.16c0.18-6.83,0.35-13.67,0.53-20.5
		c0.1-3.76,0.19-7.51,0.3-11.27c0.04-1.5,0.52-1.83,2.03-1.51c0.33,0.07,0.49,0.21,0.5,0.54c0.01,0.28,0.01,0.56,0.01,0.84
		c0.11,13.08,0.15,26.15,0.33,39.23c0.28,20.39,0.04,40.79,0.13,61.18c0,0.2-0.02,0.4-0.03,0.6
		C103.26,289.39,98.35,289.4,93.44,289.41z"></path>
	<path d="M48.51,186.97c0.74-0.11,0.97,0.2,0.95,0.94c-0.27,9.1-0.52,18.21-0.77,27.32c-0.12,0-0.23,0-0.35,0
		c-0.05-6.67-0.11-13.35-0.16-20.02C48.68,192.48,48.46,189.72,48.51,186.97z"></path>
	<path d="M141.14,206.61c-0.01,0.48-0.03,0.96-0.03,1.44c0,26.43,0,52.86,0.01,79.29c0,1.62,0,1.62-1.61,1.62
		c-3.6,0-7.2-0.05-10.8,0.03c-1.21,0.03-1.53-0.29-1.53-1.52c0.04-26.83,0.03-53.66,0.03-80.49c0-5.92,0-11.84,0-17.75
		c0-1.99,0-1.99,1.93-2.04c0,0,0,0.01,0,0.01c0.07,1.52-0.25,3.06,0.19,4.56c0.16,4.95,0.34,9.9,0.48,14.86
		c0.14,4.95,0.23,9.91,0.49,14.87c0.07-1.08,0.19-2.16,0.2-3.25c0.06-9.56,0.1-19.11,0.14-28.67c0-0.48,0.08-0.96,0.04-1.44
		c-0.08-0.97,0.37-1.19,1.27-1.18c0.83,0.01,1.08,0.26,1.09,1.09c0.13,6.15,0.33,12.31,0.45,18.46c0.06,2.91,0.01,5.83,0.01,8.74
		c0.2,0,0.39,0,0.59,0c0-2.06-0.02-4.12,0-6.18c0.09-7,0.22-13.99,0.29-20.99c0.01-0.93,0.31-1.12,1.18-1.13
		c0.91-0.01,1.02,0.38,1.03,1.15c0.14,10.87,0.32,21.75,0.48,32.62c0.01,0.48,0,0.96,0.14,1.44c0.08-1.01,0.22-2.03,0.24-3.04
		c0.13-5.59,0.21-11.19,0.34-16.79c0.11-4.79,0.31-9.59,0.39-14.38c0.02-1.1,0.63-1.01,1.31-0.96c0.63,0.05,1.45-0.37,1.48,0.91
		C141.12,194.14,141.13,200.37,141.14,206.61z"></path>
	<path d="M114.87,245.45c-0.38-0.53-0.31-1.14-0.31-1.72c-0.04-5.4-0.07-10.79-0.12-16.19
		c-0.08-9.44-0.16-18.87-0.24-28.3c-0.03-3.72-0.05-7.44-0.17-11.15c-0.04-1.22,0.61-1.09,1.4-1.13c0.87-0.05,1.18,0.18,1.16,1.12
		c-0.28,10.27-0.51,20.54-0.76,30.81c-0.04,1.68-0.05,3.36-0.16,5.03C115.2,231.08,115.17,238.26,114.87,245.45z"></path>
	<path d="M118.92,245.77c0,0-0.08-0.05-0.08-0.05c-0.08-6.11-0.26-12.22-0.41-18.33
		c-0.23-9.23-0.26-18.47-0.39-27.71c-0.05-3.88-0.09-7.76-0.23-11.63c-0.04-1.14,0.55-1.05,1.32-1.09c0.93-0.05,1.04,0.4,1,1.17
		c-0.08,1.68-0.12,3.35-0.14,5.03c-0.11,9.16-0.14,18.31-0.35,27.47c-0.17,7.43-0.43,14.86-0.46,22.29
		C119.18,243.87,119.01,244.82,118.92,245.77z"></path>
	<path d="M123.02,230.76c-0.12-0.99-0.32-1.97-0.35-2.96c-0.2-7.11-0.37-14.22-0.55-21.33
		c-0.15-6.07-0.29-12.14-0.48-18.21c-0.03-0.94,0.14-1.35,1.21-1.33c0.95,0.02,1.3,0.21,1.29,1.25c-0.16,11.95-0.25,23.9-0.4,35.84
		c-0.03,2.22-0.5,4.43-0.35,6.67C123.27,230.72,123.15,230.74,123.02,230.76z"></path>
	<path d="M110.35,207.87c0-6.55,0.02-13.11-0.02-19.66c-0.01-1.02,0.31-1.26,1.28-1.27
		c1.01-0.02,1.18,0.35,1.16,1.25c-0.35,12.7-0.68,25.4-1.01,38.1c-0.02,0.8-0.47,1.52-0.38,2.33c0.02,0.15-0.07,0.31-0.27,0.33
		c-0.25,0.02-0.37-0.14-0.39-0.35c-0.04-0.32-0.05-0.64-0.05-0.96c0-6.59,0-13.18,0-19.78
		C110.56,207.87,110.46,207.87,110.35,207.87z"></path>
	<path d="M145.35,190.48c-0.32,12.39-0.63,24.78-0.95,37.16c-0.01,0.2-0.01,0.4-0.03,0.6
		c-0.02,0.2-0.08,0.43-0.32,0.43c-0.25,0-0.29-0.23-0.3-0.43c-0.01-0.2-0.01-0.4-0.01-0.6c-0.08-7.96-0.16-15.91-0.25-23.87
		c-0.06-5.2-0.13-10.39-0.24-15.59c-0.02-0.9,0.17-1.25,1.17-1.25c1.05,0,1.06,0.51,1.02,1.27c-0.04,0.76-0.01,1.52-0.01,2.28
		C145.4,190.48,145.37,190.48,145.35,190.48z"></path>
	<path d="M90.96,207.96c0,6.59,0,13.18-0.01,19.77c0,0.32,0.2,0.89-0.26,0.92c-0.61,0.04-0.39-0.57-0.4-0.91
		c-0.2-7.79-0.38-15.57-0.57-23.36c-0.14-5.39-0.29-10.78-0.45-16.17c-0.02-0.75-0.04-1.27,1.01-1.27c1,0,1.17,0.35,1.17,1.25
		c-0.03,6.59-0.02,13.18-0.02,19.77C91.27,207.96,91.12,207.96,90.96,207.96z"></path>
	<path d="M152.58,228.6c-0.47-0.25-0.32-0.7-0.33-1.06c-0.2-7.71-0.38-15.42-0.59-23.13
		c-0.15-5.43-0.32-10.86-0.49-16.29c-0.02-0.73,0.03-1.21,0.99-1.17c0.74,0.03,0.96,0.25,0.95,0.98c-0.05,4.12-0.05,8.23-0.09,12.35
		c-0.05,5.23-0.12,10.47-0.17,15.7c-0.03,3.84-0.02,7.67-0.05,11.51C152.79,227.85,152.97,228.28,152.58,228.6z"></path>
	<path d="M82.27,228.81c-0.49-0.64-0.33-1.09-0.33-1.5c-0.05-7.76-0.08-15.51-0.14-23.27
		c-0.04-5.32-0.1-10.63-0.2-15.95c-0.02-0.92,0.26-1.19,1.15-1.14c0.66,0.04,0.81,0.29,0.79,0.88c-0.14,4.51-0.25,9.03-0.38,13.54
		c-0.1,3.31-0.24,6.63-0.33,9.94c-0.13,4.83-0.21,9.67-0.34,14.51C82.46,226.74,82.36,227.65,82.27,228.81z"></path>
	<path d="M86.01,228.83c0-1.71,0.02-3.21,0-4.7c-0.11-8.51-0.23-17.02-0.35-25.53c-0.05-3.55-0.13-7.11-0.23-10.66
		c-0.02-0.72,0.19-0.98,0.94-0.98c0.76,0,0.94,0.27,0.93,0.99c-0.24,13.38-0.45,26.76-0.68,40.14
		C86.61,228.27,86.65,228.48,86.01,228.83z"></path>
	<path d="M148.71,205.42c0,5.67,0.01,11.34-0.01,17.02c0,0.35,0.24,0.99-0.23,1.03c-0.67,0.05-0.41-0.64-0.42-1.02
		c-0.16-9.23-0.31-18.45-0.46-27.68c-0.04-2.24-0.09-4.47-0.17-6.71c-0.02-0.69,0.04-1.11,0.93-1.11c0.87,0,0.95,0.4,0.95,1.1
		c-0.02,5.79-0.01,11.58-0.01,17.38C149.09,205.42,148.9,205.42,148.71,205.42z"></path>
	<path d="M156.19,221.29c-0.38-0.54-0.31-1.14-0.32-1.7c-0.21-7.15-0.4-14.3-0.59-21.45
		c-0.09-3.4-0.16-6.79-0.31-10.19c-0.03-0.75,0.13-1,0.89-0.99c0.71,0.01,1.09,0.1,1.08,0.97c-0.15,9.31-0.27,18.62-0.39,27.93
		c-0.02,1.44,0,2.88-0.04,4.32C156.5,220.53,156.69,220.97,156.19,221.29z"></path>
	<path d="M78.09,220.94c0-1.76,0.01-3.27,0-4.77c-0.03-5.15-0.06-10.31-0.12-15.46c-0.04-4.19-0.1-8.39-0.18-12.58
		c-0.01-0.72,0-1.19,0.97-1.19c0.98,0,0.98,0.5,0.96,1.2c-0.3,10.38-0.58,20.76-0.88,31.13C78.83,219.75,78.96,220.33,78.09,220.94z
		"></path>
	<path d="M176.5,221.91c-0.08-1.1-0.22-2.19-0.24-3.29c-0.13-10.15-0.25-20.3-0.34-30.45c0-0.41-0.31-1.05,0.42-1.18
		c0.66-0.11,1.24-0.14,1.2,0.9c-0.23,6.91-0.41,13.82-0.59,20.72c-0.07,2.6-0.07,5.19-0.14,7.79c-0.05,1.83-0.16,3.67-0.25,5.5
		C176.55,221.91,176.53,221.91,176.5,221.91z"></path>
	<path d="M56.9,221.42c-0.17-7.07-0.34-14.15-0.52-21.22c-0.1-4.08-0.23-8.15-0.36-12.23
		c-0.02-0.57,0.01-1,0.79-1.01c0.76-0.01,0.83,0.37,0.82,0.97c-0.13,10.44-0.24,20.88-0.38,31.31c-0.01,0.71-0.16,1.42-0.25,2.13
		C56.98,221.39,56.94,221.4,56.9,221.42z"></path>
	<path d="M52.66,217.34c-0.4-9.67-0.35-19.29-0.57-28.91c-0.01-0.32-0.01-0.64,0-0.96c0.01-0.44,0.3-0.5,0.66-0.5
		c0.37,0,0.64,0.12,0.63,0.53c-0.01,0.56-0.07,1.11-0.08,1.67c-0.12,8.74-0.23,17.48-0.35,26.23
		C52.95,216.04,53.02,216.68,52.66,217.34z"></path>
	<path d="M180.83,217.04c-0.33-2.69-0.26-5.64-0.3-8.59c-0.09-6.67-0.19-13.34-0.28-20.01c0-0.32-0.01-0.64,0-0.96
		c0.01-0.44,0.3-0.5,0.65-0.5c0.33,0.01,0.54,0.13,0.55,0.48c0.01,0.32,0.01,0.64,0,0.96c-0.12,8.15-0.22,16.3-0.36,24.44
		C181.06,214.34,180.91,215.81,180.83,217.04z"></path>
	<path d="M184.84,211.2c-0.06-0.99-0.15-1.99-0.18-2.98c-0.19-6.67-0.36-13.35-0.54-20.02c0-0.08,0-0.16,0-0.24
		c0-0.47-0.13-0.99,0.65-1c0.75-0.01,0.7,0.46,0.7,0.96c-0.02,3.24-0.02,6.48-0.05,9.72c-0.03,3.24-0.07,6.48-0.15,9.71
		c-0.03,1.3-0.18,2.6-0.27,3.9C184.94,211.24,184.89,211.22,184.84,211.2z"></path>
	<path d="M129.33,191.76c-0.45-1.51-0.12-3.04-0.19-4.56C129.54,188.7,129.33,190.23,129.33,191.76z"></path>
</g>
<path d="M64.8,186.96c-0.08,0.05-0.16,0.11-0.23,0.16C64.64,187.07,64.72,187.02,64.8,186.96z"></path>
<path d="M63.33,187.03c-0.08,0.02-0.13,0-0.17-0.07C63.21,186.98,63.27,187.01,63.33,187.03z"></path>
</svg>
