<!--?xml version="1.0" encoding="utf-8"?-->
<!-- Generator: Adobe Illustrator 24.2.3, SVG Export Plug-In . SVG Version: 6.00 Build 0)  -->
<svg version="1.1" id="Camada_1" xmlns="http://www.w3.org/2000/svg" xmlns:xlink="http://www.w3.org/1999/xlink" x="0px" y="0px" viewBox="0 0 229 418" enable-background="new 0 0 229 418" xml:space="preserve">
<g onclick="select(this)" class="" id="gola-secundaria" fill="#082890">
	<path d="M83.32,3.98c1.53-3.07,4.4-3.47,7.34-3.49c9.91-0.06,19.82-0.04,29.73-0.04c5.59,0,11.19-0.01,16.78,0.03
		c1.07,0.01,2.15,0.12,3.22,0.28c1.96,0.29,3.48,1.31,4.54,3c-0.12,0.13-0.3,0.28,0.06,0.32c0,0-0.01-0.01-0.01-0.01
		c0,2.41-0.33,4.77-1.32,6.99c-1.94,4.34-4.44,8.34-7.6,11.86c-4.03,4.49-8.26,8.79-12.39,13.19c-1.29,1.37-2.47,2.82-3.45,4.44
		c-1.61,2.66-2.59,5.57-3.52,8.5c-0.66,0.34-1.34,0.65-2.11,0.6c-0.54-0.77-0.14-1.54,0.06-2.29c0.95-3.64,2.53-7.01,4.61-10.14
		c3.12-3.7,6.56-7.1,9.95-10.55c4.34-4.41,8.28-9.1,11.12-14.64c0.41-0.8,1.01-1.54,0.98-2.52c0.73-0.83,0.8-1.9,0.98-2.9
		c0.39-2.13-0.29-3.04-2.43-3.45c-0.7-0.13-1.42-0.26-2.13-0.26C122,2.9,106.29,2.9,90.58,2.91c-1.2,0-2.38,0.21-3.5,0.69
		c-0.73,0.31-1.15,0.86-1.16,1.66c-0.03,1.41,0.12,2.79,0.82,4.05c0.01,0.62,0.3,1.16,0.58,1.68c2.39,4.44,5.11,8.65,8.59,12.36
		c4.34,4.63,8.91,9.05,13.05,13.88c0.16,0.27,0.29,0.56,0.47,0.82c2.11,3.09,3.49,6.49,4.37,10.12c0.13,0.52,0.19,1.01-0.13,1.49
		c-0.82,0.09-1.52-0.38-2.28-0.54c-0.89-4.12-2.49-7.95-5.21-11.19c-2.9-3.46-6.14-6.63-9.3-9.86c-4.11-4.18-7.87-8.61-10.71-13.78
		c-1.24-2.25-2.25-4.57-2.71-7.13C83.25,6.06,83.53,5.02,83.32,3.98z"></path>
</g>
<g onclick="select(this)" class="" id="detalhe-punho" fill="#082890">
	<path d="M185.05,120.42c0.14-1.41-0.22-2.85,0.26-4.25c0.37-0.64,0.5-1.34,0.48-2.06c-0.02-0.75,0.1-1.08,0.99-0.82
		c2.32,0.68,4.73,0.64,7.11,0.75c2.23,0.1,4.47,0.02,6.7,0.02c5.12,0,10.15-0.67,15.14-1.82c3.69-0.85,7.36-1.77,10.94-3.02
		c0.55-0.19,1.18-0.26,1.6-0.74c0.87,1.19,0.56,2.67,0.94,3.98c0.24,0.82,0.1,1.75,0.24,2.61c0.2,1.2-0.41,1.73-1.43,2.07
		c-5.2,1.77-10.5,3.13-15.93,4.06c-5.86,1-11.75,1.05-17.65,0.94c-2.63-0.05-5.25-0.31-7.82-0.94
		C186.03,121.06,185.52,120.79,185.05,120.42z"></path>
	<path d="M43.37,116.15c0.11,0.84,0.22,1.68,0.32,2.52c-0.12,0.75,0.38,1.61-0.41,2.24
		c-2.53,1.24-5.31,1.51-8.03,1.63c-9.71,0.42-19.38,0.1-28.87-2.32c-1.58-0.4-3.16-0.82-4.67-1.45c-0.7-0.3-1.07-0.74-0.99-1.56
		c0.25-2.4,0.38-4.82,1.14-7.15c0.84,0.57,1.76,0.88,2.75,1.1c3.5,0.75,7,1.54,10.49,2.34c2.19,0.5,4.42,0.64,6.64,0.72
		c4.06,0.14,8.11,0.38,12.18,0.35c2.86-0.02,5.63-0.12,8.27-1.27c0.42-0.18,0.55-0.05,0.68,0.32c0.13,0.36-0.06,0.82,0.34,1.1
		c0,0-0.01-0.02-0.01-0.02C43.19,115.2,43.11,115.69,43.37,116.15z"></path>
</g>
<g onclick="select(this)" class="" id="estampa-terciaria" fill="#082890">
	<path d="M41.25,281.95c0.09-3.31,0.2-6.63,0.27-9.94c0.1-4.91,0.44-9.8,0.91-14.68c0.3-3.07,0.25-6.14,0.28-9.21
		c0.01-1.7,0.27-3.38,0.81-5.04c0.54,13.44,1.09,26.88,1.63,40.31c0.19,0,0.38,0,0.56,0c0.3-17.92,0.61-35.84,0.91-53.76
		c0.63,3.06,0.57,6.16,0.65,9.25c0.24,8.79,0.5,17.57,0.76,26.36c0.16,5.75,0.32,11.5,0.49,17.25c0.02,0.56,0.09,1.11,0.14,1.67
		c-2.31-0.1-4.52-0.63-6.65-1.5C41.68,282.53,41.33,282.36,41.25,281.95z"></path>
	<path d="M110.64,286.55c0.7-14.42,1.41-28.84,2.11-43.26c0.07,0,0.15-0.01,0.22-0.01
		c0.34,13.16,0.68,26.32,1.02,39.57c0.67-0.24,0.49-0.74,0.5-1.11c0.11-3.88,0.2-7.75,0.3-11.63c0.22-8.67,0.43-17.34,0.65-26.01
		c0.01-0.27,0.05-0.55,0.09-0.85c0.55,0.19,0.34,0.62,0.34,0.91c0.1,8.35,0.81,16.68,1.06,25.02c0.16,5.19,0.59,10.36,0.71,15.56
		c0.01,0.68,0.13,1.35,0.19,2.03c-1.24,0.29-2.47,0.44-3.7-0.09c-0.32-0.14-0.68-0.18-1.03-0.01
		C112.26,287.07,111.44,286.95,110.64,286.55z"></path>
	<path d="M182.09,284.2c0.19-4.78,0.38-9.57,0.57-14.35c0.24-5.74,0.48-11.47,0.73-17.21
		c0.24-5.62,0.47-11.24,0.72-16.85c0.14-3.27,0.31-6.53,0.47-9.8c0.01-0.24,0-0.48,0.24-0.64c0,0-0.01-0.01-0.01-0.01
		c0.07,1.59,0.16,3.19,0.2,4.78c0.12,5.87-0.02,11.74,0.22,17.62c0.26,6.31,0.03,12.62,0.23,18.93c0.18,5.59,0.09,11.19,0.12,16.79
		C184.49,284.05,183.31,284.21,182.09,284.2z"></path>
	<path d="M52.82,284.7c0.57-18.73,1.15-37.46,1.72-56.18c0.06,0,0.11,0,0.17,0c0.56,18.85,1.12,37.7,1.67,56.55
		C55.17,285.19,53.98,285.07,52.82,284.7z"></path>
	<path d="M170.85,285.35c0.43-3.62,0.23-7.26,0.44-10.89c0.27-4.62,0.22-9.26,0.36-13.89
		c0.23-7.86,0.48-15.72,0.74-23.59c0.07-2.03,0.18-4.06,0.36-6.09c0.1,3.9,0.2,7.79,0.31,11.69c0.16,5.67,0.32,11.34,0.49,17
		c0.15,4.99,0.2,9.98,0.51,14.96c0.22,3.51-0.04,7.03,0.36,10.53C173.26,285.48,172.06,285.43,170.85,285.35z"></path>
	<path d="M49.11,284.24c0.2-2.55,0.11-5.11,0.25-7.66c0.24-4.5,0.24-9.02,0.35-13.53c0.16-6.07,0.31-12.13,0.5-18.2
		c0.12-4.07,0.29-8.14,0.44-12.21c0.01-0.23,0.05-0.47,0.08-0.71c0.56,0.07,0.36,0.48,0.37,0.74c0.1,3.75,0.19,7.51,0.27,11.26
		c0.17,7.59,0.32,15.17,0.5,22.76c0.14,5.99,0.32,11.98,0.48,17.96C51.25,284.75,50.17,284.61,49.11,284.24z"></path>
	<path d="M149.25,285.97c0.98-15.66,1.96-31.33,2.94-46.99c0.1,0,0.2,0,0.3,0c0.21,15.63,0.2,31.27,0.62,46.9
		C151.83,286.24,150.54,286.1,149.25,285.97z"></path>
	<path d="M75.13,285.79c0.38-15.6,0.47-31.2,0.56-46.8c0.12,0,0.23,0,0.35,0c0.98,15.62,1.96,31.23,2.94,46.85
		C77.7,286.16,76.41,285.97,75.13,285.79z"></path>
	<path d="M174.87,285.06c0.1-3.59,0.2-7.19,0.28-10.78c0.12-5.35,0.16-10.71,0.35-16.06
		c0.23-6.59,0.4-13.17,0.51-19.76c0.03-1.84,0.09-3.7,0.2-5.61c0.58,0.2,0.41,0.58,0.41,0.85c0.1,4.03,0.15,8.07,0.27,12.1
		c0.27,8.74,0.63,17.48,0.77,26.22c0.07,4.23,0.3,8.46,0.46,12.69C177.07,285.04,175.98,285.17,174.87,285.06z"></path>
	<path d="M178.58,284.65c0.58-17.2,1.16-34.39,1.75-51.61c0.34,0.67,0.37,1.37,0.38,2.1
		c0.17,11.42,0.29,22.85,0.57,34.27c0.12,4.95-0.01,9.91,0.35,14.85C180.65,284.67,179.63,284.73,178.58,284.65z"></path>
	<path d="M79.42,285.84c0.23-5.99,0.15-11.99,0.33-17.98c0.18-6.2,0.09-12.39,0.21-18.58
		c0.04-2.27,0.01-4.54,0.01-6.82c0.11,0,0.23,0,0.34,0c0.77,14.47,1.54,28.95,2.31,43.42C81.55,286.13,80.48,286.17,79.42,285.84z"></path>
	<path d="M145.61,286.03c0.19-3.42,0.37-6.85,0.56-10.27c0.39-7.01,0.79-14.01,1.16-21.02
		c0.22-4.1,0.39-8.2,0.74-12.3c0.25,14.51,0.5,29.03,0.75,43.54C147.76,286.2,146.69,286.2,145.61,286.03z"></path>
	<path d="M141.79,286.09c0.68-13.92,1.35-27.84,2.03-41.76c0.12,0,0.24,0,0.36,0c0,2-0.04,3.99,0.01,5.99
		c0.18,8.23,0.3,16.47,0.61,24.7c0.14,3.68-0.01,7.36,0.26,11.03C143.97,286.31,142.88,286.44,141.79,286.09z"></path>
	<path d="M83.18,285.89c0.02-0.32,0.06-0.64,0.07-0.96c0.1-5.47,0.17-10.94,0.31-16.41
		c0.21-8.06,0.49-16.12,0.86-24.18c0.67,13.87,1.35,27.74,2.02,41.61C85.35,286.12,84.27,286.18,83.18,285.89z"></path>
	<path d="M107.05,286.49c0.43-2.61,0.24-5.26,0.41-7.89c0.33-4.98,0.4-9.98,0.61-14.97
		c0.23-5.63,0.48-11.26,0.73-16.88c0.01-0.23,0.1-0.45,0.33-0.67c0.36,13.53,0.72,27.06,1.08,40.58
		C109.14,286.89,108.09,286.79,107.05,286.49z"></path>
	<path d="M118.25,286.76c0.1-3.24,0.21-6.47,0.29-9.71c0.2-7.83,0.4-15.66,0.56-23.5c0.05-2.51,0.01-5.03,0.17-7.54
		c0.57,2.52,0.5,5.07,0.63,7.6c0.33,6.5,0.51,13.02,0.83,19.52c0.19,3.95,0.43,7.9,0.5,11.85c0.01,0.55,0.14,1.11,0.21,1.66
		C120.39,286.94,119.32,286.91,118.25,286.76z"></path>
	<path d="M138.45,286.24c0,0,0.02-0.11,0.02-0.11c0.5-12.14,1.01-24.28,1.51-36.42c0.11,0,0.21,0,0.32,0
		c0.35,12.13,0.71,24.26,1.06,36.39C140.42,286.5,139.43,286.31,138.45,286.24z"></path>
	<path d="M89.76,285.88c-0.01,0.05-0.01,0.09,0.02,0.14c-0.98,0.07-1.97,0.22-2.93-0.11
		c0.08-1.51,0.18-3.03,0.22-4.54c0.21-8.27,0.41-16.53,0.59-24.8c0.05-2.23,0.01-4.47,0.15-6.71c0.61,1.35,0.63,2.78,0.68,4.19
		c0.37,9.38,0.71,18.75,1.06,28.13C89.6,283.41,89.69,284.65,89.76,285.88z"></path>
	<path d="M154.56,282.14c-0.01,1.26-0.02,2.51-0.04,3.77c-0.4,0.16-0.81,0.29-1.2-0.03
		c0.04-3.36,0.07-6.71,0.14-10.07c0.15-7.79,0.27-15.57,0.51-23.36c0.07-2.36,0.02-4.71,0.13-7.07c0.02-0.37-0.12-0.78,0.25-1.22
		c0.26,0.5,0.15,0.97,0.15,1.41c0.01,11.63,0.02,23.26,0.03,34.89C154.52,281.02,154.55,281.58,154.56,282.14z"></path>
	<path d="M73.73,285.76c0-13.83,0-27.66,0-41.49c0.13,0,0.27,0,0.4-0.01c0.26,13.84,0.52,27.68,0.77,41.52
		C74.51,285.96,74.12,285.93,73.73,285.76z"></path>
	<path d="M185.97,283.37c0.03-6.1,0.04-12.2,0.09-18.3c0.01-1.13-0.02-2.29,0.38-3.39c0.18,2.19,0.35,4.38,0.53,6.57
		c0.01,4.89,0.02,9.78,0.02,14.67C186.71,283.19,186.41,283.44,185.97,283.37z"></path>
</g>
<path d="M144.98,4.07c-0.36-0.04-0.18-0.19-0.06-0.32C144.94,3.86,144.96,3.97,144.98,4.07z"></path>
<g onclick="select(this)" class="" id="estampa-secundaria" fill="#ffffff">
	<path d="M187,282.92c-0.01-4.89-0.02-9.78-0.02-14.67c0.37,4.14,1.02,8.26,0.96,12.43
		C187.92,281.53,188.04,282.48,187,282.92z"></path>
	<path d="M164.83,99.34c-0.33-0.38-0.19-0.84-0.19-1.26c-0.01-4.29-0.01-8.57-0.01-12.86
		c0.05,0.15,0.15,0.29,0.15,0.44C164.81,90.22,164.82,94.78,164.83,99.34z"></path>
	<path d="M164.62,84.72c-0.1,0.06-0.2,0.13-0.29,0.19c-0.25-2.44,0.26-4.85,0.17-7.29c0.16,2.06,0.02,4.13,0.27,6.18
		C164.81,84.11,164.85,84.45,164.62,84.72z"></path>
	<path d="M104.35,137.25c-0.33-0.38-0.18-0.84-0.18-1.26c-0.01-5.88-0.01-11.77-0.01-17.65
		c0.27,0.4,0.15,0.85,0.15,1.28c0.06,5.81,0.11,11.62,0.15,17.43C104.46,137.12,104.39,137.19,104.35,137.25z"></path>
	<path d="M104.58,160.78c-0.32-0.38-0.18-0.84-0.18-1.26c-0.01-5.96-0.01-11.93-0.01-17.89
		c0.05,0.15,0.15,0.3,0.15,0.44C104.56,148.3,104.57,154.54,104.58,160.78z"></path>
	<path d="M104.11,114.22c-0.06-0.14-0.18-0.28-0.18-0.43c0.01-4.7,0.04-9.39,0.06-14.09
		c0.23,3.58,0.08,7.16,0.15,10.74C104.16,111.7,104.12,112.96,104.11,114.22z"></path>
	<path d="M95.52,111.15c0,4.13,0,8.26-0.01,12.38c0,0.42,0.15,0.88-0.19,1.25c0.02-4.4,0.03-8.8,0.06-13.19
		C95.38,111.44,95.47,111.29,95.52,111.15z"></path>
	<path d="M103.96,98.89c-0.07,0-0.15-0.01-0.22-0.01c0-1.99,0-3.98,0-5.97c0.11,0,0.22,0,0.33,0
		C104.02,94.91,104.24,96.9,103.96,98.89z"></path>
	<path d="M56.92,285.1c0.05-0.43,0.14-0.87,0.14-1.3c0.01-23.72,0.05-47.44-0.03-71.16
		c-0.02-5.88-0.2-11.76-0.08-17.63c0.23-11.43,0.34-22.87,0.5-34.3c0.07-5.08,0.12-10.15,0.2-15.23
		c0.17-10.51,0.26-21.03,0.51-31.54c0.14-5.8,0.04-11.6,0.22-17.39c0.19-5.88,0.13-11.76,0.24-17.63c0.03-1.31,0.16-2.63,0.33-3.95
		c0.02,0.3,0.05,0.6,0.05,0.9c0.1,5.28,0.18,10.55,0.29,15.83c0.15,7.07,0.34,14.15,0.5,21.22c0.15,6.43,0.3,12.87,0.46,19.3
		c0.17,7.23,0.34,14.47,0.51,21.7c0.13,5.47,0.28,10.95,0.42,16.42c0.01,0.31-0.08,0.64,0.16,0.93c0.52-0.14,0.3-0.58,0.31-0.87
		c0.08-3.56,0.09-7.11,0.17-10.67c0.2-9.47,0.19-18.95,0.39-28.43c0.23-11.19,0.33-22.39,0.5-33.58c0.05-3.44,0.1-6.87,0.17-10.31
		c0.01-0.3-0.05-0.62,0.18-0.94c0.43,0.26,0.28,0.66,0.28,0.97c0.09,3.76,0.08,7.51,0.17,11.27c0.21,8.95,0.2,17.91,0.39,26.87
		c0.23,10.39,0.37,20.79,0.49,31.18c0.03,2.2,0.09,4.39,0.14,6.59c0.01,0.32-0.14,0.71,0.24,0.98c0.35-0.16,0.26-0.46,0.27-0.71
		c0.06-1.96,0.13-3.91,0.18-5.87c0.2-8.23,0.39-16.47,0.58-24.7c0.16-6.55,0.28-13.11,0.49-19.66c0.29-9.35,0.61-18.7,0.69-28.05
		c0-0.25,0.07-0.49,0.11-0.74c0.1,0.01,0.2,0.02,0.3,0.03c0.26,30.91,0.53,61.81,0.79,92.72c0.04,0,0.08,0,0.11,0
		c0.1-1.83,0.24-3.65,0.28-5.48c0.21-8.27,0.38-16.55,0.58-24.82c0.14-5.99,0.28-11.99,0.47-17.98c0.3-9.31,0.58-18.62,0.74-27.93
		c0.1-5.47,0.3-10.95,0.45-16.42c0.01-0.31,0.03-0.62,0.05-0.94c0.11,0,0.23,0,0.34,0c0,2.75-0.01,5.5,0,8.26
		c0.03,8.2-0.04,16.4,0.13,24.6c0.18,8.6,0.03,17.2,0.24,25.79c0.21,8.2,0.03,16.4,0.24,24.59c0.23,9.48,0.02,18.96,0.25,28.43
		c0.2,8.28,0,16.56,0.24,24.83c0.23,7.96,0.01,15.92,0.24,23.87c0.24,8.12,0.03,16.24,0.25,24.35c0.16,5.76,0.06,11.52,0.21,17.27
		c-1.99,0.21-3.99,0.07-5.98,0.02c-3.15-0.09-6.3-0.29-9.45-0.46C57.36,285.31,57.14,285.18,56.92,285.1z"></path>
	<path d="M164.83,99.34c0.08,2.44,0.19,4.87,0.23,7.31c0.13,8.8,0.16,17.59,0.35,26.39
		c0.15,6.52,0.07,13.04,0.27,19.55c0.16,5.28,0.12,10.56,0.2,15.83c0.05,3.19,0.01,6.39,0.01,9.58c0.11,0,0.22,0,0.33,0.01
		c0.02-0.19,0.06-0.39,0.06-0.58c0.1-4.84,0.18-9.67,0.29-14.51c0.16-7.31,0.34-14.63,0.52-21.94c0.15-6.51,0.3-13.03,0.46-19.54
		c0.17-6.95,0.34-13.91,0.51-20.86c0.16-6.63,0.3-13.27,0.47-19.9c0.04-1.59,0.17-3.18,0.35-4.78c0.02,0.28,0.05,0.57,0.05,0.85
		c0.1,7.32,0.19,14.63,0.29,21.95c0.09,7.28,0.13,14.56,0.29,21.83c0.25,11.47,0.37,22.95,0.48,34.42
		c0.1,10.32,0.22,20.63,0.49,30.94c0.35,13.44,0.09,26.87,0.13,40.31c0.06,19.16,0.01,38.32,0.02,57.48c0,0.56,0.02,1.12,0.04,1.68
		c-1.38,0.47-2.83,0.31-4.23,0.38c-3.69,0.2-7.39,0.21-11.09,0.29c-0.27,0.01-0.54-0.08-0.81-0.13c0.01-1.26,0.02-2.51,0.04-3.77
		c0.29-0.48,0.18-1.01,0.18-1.52c0.04-7.08-0.05-14.16,0.13-21.24c0.21-8.2-0.01-16.4,0.23-24.59c0.26-8.92,0.02-17.83,0.25-26.75
		c0.21-8.24,0.02-16.48,0.24-24.71c0.22-8.16,0.02-16.32,0.24-24.47c0.23-8.56,0.03-17.12,0.24-25.67
		c0.23-9.32,0.03-18.64,0.25-27.95c0.11-4.52,0.09-9.03,0.15-13.55c0-0.29-0.12-0.64,0.2-0.88c0.41,0.09,0.28,0.43,0.29,0.67
		c0.09,3.04,0.16,6.07,0.23,9.11c0.18,7.11,0.35,14.22,0.54,21.34c0.14,5.47,0.28,10.95,0.45,16.42c0.31,9.87,0.56,19.74,0.78,29.61
		c0.07,3.03,0.09,6.07,0.36,9.12c0.07-0.95,0.21-1.91,0.21-2.86c0.05-9.68-0.02-19.36,0.15-29.04c0.16-9.28,0.04-18.56,0.24-27.83
		c0.19-8.6,0.13-17.19,0.21-25.79c0.03-2.91,0-5.82,0-8.73c0.12,0,0.24,0,0.37,0c0.75,29.1,1.51,58.21,2.26,87.31
		c0.12,0,0.25,0,0.37,0c0-2.39-0.02-4.78,0-7.17c0.09-7.56,0.2-15.11,0.3-22.67c0.09-6.44,0.11-12.88,0.31-19.31
		c0.17-5.32,0.03-10.64,0.23-15.95c0.23-6.32,0.1-12.63,0.18-18.95c0.01-0.39-0.08-0.8,0.15-1.17c0.1-0.06,0.2-0.13,0.29-0.19
		c0.01,0.17,0.01,0.33,0.02,0.5c0,4.29,0,8.57,0.01,12.86C164.65,98.5,164.5,98.96,164.83,99.34z"></path>
	<path d="M122.16,286.64c0.01-0.28,0.03-0.56,0.03-0.84c0.09-10.32,0.1-20.63,0.29-30.95
		c0.17-9.12,0.07-18.23,0.25-27.35c0.13-6.72,0.05-13.44,0.23-20.15c0.2-7.44,0.05-14.88,0.24-22.31
		c0.19-7.76,0.06-15.52,0.24-23.27c0.21-9.4,0.05-18.79,0.25-28.19c0.16-7.28,0.14-14.55,0.21-21.83
		c0.05-5.39,0.01-10.79,0.01-16.18c0.11,0,0.22,0,0.33,0c0.09,1.32,0.23,2.65,0.26,3.97c0.13,4.96,0.21,9.91,0.34,14.87
		c0.23,9.19,0.48,18.38,0.73,27.57c0.15,5.71,0.32,11.42,0.48,17.14c0.17,6.19,0.26,12.39,0.52,18.58c0.11,2.59,0.07,5.19,0.45,7.78
		c0.28-30.7,0.56-61.39,0.84-92.09c0.08,0,0.15,0,0.23,0c0.75,28.87,1.51,57.73,2.26,86.6c0.06,0,0.12,0,0.18,0
		c0.48-29.09,0.96-58.18,1.45-87.27c0.08,0,0.15,0,0.23,0c0.49,31.17,0.98,62.35,1.46,93.52c0.06,0,0.12,0,0.18,0
		c0.02-0.27,0.04-0.54,0.05-0.81c0.19-7.87,0.38-15.75,0.57-23.62c0.16-6.55,0.32-13.11,0.48-19.66c0.15-6.07,0.32-12.15,0.48-18.22
		c0.16-6.39,0.31-12.79,0.48-19.18c0.15-5.67,0.31-11.35,0.47-17.02c0.01-0.19,0.03-0.39,0.13-0.58c0.09,1.95,0.23,3.9,0.25,5.85
		c0.13,11.44,0.15,22.87,0.39,34.31c0.14,6.84,0.01,13.68,0.23,20.51c0.2,6.24,0.02,12.48,0.24,18.71
		c0.21,5.84,0.03,11.68,0.23,17.51c0.23,6.56,0.04,13.12,0.25,19.67c0.19,5.96,0.18,11.91,0.18,17.87
		c0.02,21.03-0.02,42.06-0.03,63.09c0,0.49-0.22,1.05,0.24,1.47c0,0-0.02,0.11-0.02,0.11c-1.94,0.24-3.88,0.27-5.83,0.31
		c-3.02,0.05-6.04,0.15-9.06,0.22C123.1,286.77,122.61,286.91,122.16,286.64z"></path>
	<path d="M96.68,137.98c0.07,2.08,0.19,4.15,0.22,6.23c0.13,9.39,0.25,18.79,0.35,28.18
		c0.03,3.07,0.01,6.15,0.01,9.22c0.21,0,0.42,0,0.63,0c0-2.83-0.05-5.67,0.01-8.5c0.17-8.47,0.37-16.94,0.57-25.41
		c0.13-5.67,0.3-11.34,0.44-17.02c0.18-6.87,0.34-13.74,0.52-20.61c0.16-6.03,0.34-12.06,0.71-18.09
		c0.26,30.81,0.51,61.62,0.77,92.5c0.55-0.23,0.35-0.65,0.36-0.95c0.19-6.91,0.37-13.82,0.55-20.73c0.16-5.99,0.28-11.98,0.49-17.97
		c0.3-8.47,0.51-16.93,0.73-25.4c0.17-6.47,0.44-12.94,0.41-19.41c0-0.4-0.01-0.8,0.28-1.13c0.07,0,0.15,0,0.22,0.01
		c0.15,0.27,0.12,0.54,0.04,0.82c-0.02,4.7-0.05,9.39-0.06,14.09c0,0.14,0.11,0.28,0.18,0.43c0.02,1.38,0.03,2.75,0.05,4.13
		c0,5.88,0,11.77,0.01,17.65c0,0.42-0.15,0.88,0.18,1.26c0.02,1.46,0.03,2.91,0.05,4.37c0,5.96,0,11.93,0.01,17.89
		c0,0.42-0.14,0.88,0.18,1.26c0.02,0.36,0.05,0.72,0.06,1.08c0.1,11.44,0.13,22.87,0.32,34.31c0.11,6.28,0,12.56,0.21,18.83
		c0.25,7.75,0.12,15.51,0.23,23.26c0.13,8.8,0.17,17.59,0.26,26.39c0.07,6.84,0.15,13.67,0.22,20.51c0,0.44,0.04,0.88,0.06,1.32
		c-1.83,0.25-3.64-0.08-5.46-0.11c-3.57-0.07-7.14-0.05-10.71-0.33c-0.02-0.04-0.03-0.09-0.02-0.14c0.35-0.33,0.21-0.75,0.21-1.13
		c0-14.96,0.1-29.92-0.06-44.87c-0.09-8.24-0.24-16.47-0.06-24.71c0.15-6.88,0.02-13.76,0.23-20.63c0.19-6.24,0.01-12.48,0.23-18.71
		c0.21-6,0.02-12,0.24-17.99c0.22-6.24,0.04-12.48,0.24-18.71c0.22-6.76,0.02-13.52,0.24-20.27c0.2-6,0.1-11.99,0.22-17.99
		c0.03-1.28,0.15-2.56,0.23-3.89c0.55,0.17,0.44,0.5,0.45,0.74c0.18,6.95,0.35,13.91,0.51,20.86c0.17,7.19,0.28,14.39,0.5,21.58
		c0.19,6.27,0.35,12.55,0.48,18.82c0.18,9.07,0.46,18.13,0.81,27.21c0.02-0.24,0.06-0.48,0.06-0.73c0.11-7,0.21-13.99,0.31-20.99
		c0.16-10.23,0.32-20.47,0.49-30.7c0.05-3,0.14-5.99,0.22-8.99c0.34-0.37,0.19-0.83,0.19-1.25c0.01-4.13,0.01-8.26,0.01-12.38
		c0.01-0.49,0.02-0.99,0.03-1.48c0.35-0.37,0.2-0.83,0.2-1.25c0.01-3.73,0.01-7.46,0.01-11.2c0.01-0.17,0.01-0.33,0.02-0.5
		c0,0,0.1,0,0.1,0l0.1,0c0.01,0.17,0.01,0.33,0.02,0.5c0,3.97,0,7.94,0.01,11.91c0,0.42-0.15,0.88,0.2,1.25
		c0.01,0.49,0.02,0.99,0.03,1.48c0,3.81,0,7.62,0.01,11.43c0,0.42-0.15,0.88,0.2,1.25c0.01,0.49,0.02,0.99,0.03,1.48
		c0,3.57,0,7.14,0.01,10.71C96.49,137.15,96.34,137.61,96.68,137.98z"></path>
	<path d="M183.43,135.71c-0.41-15.22-0.82-30.43-1.22-45.65c-0.08,0-0.15,0-0.23,0
		c-0.28,28.09-0.56,56.18-0.84,84.38c-0.55-0.31-0.36-0.71-0.37-1.01c-0.2-7.95-0.37-15.91-0.58-23.86
		c-0.21-8.07-0.47-16.14-0.7-24.21c-0.16-5.71-0.22-11.43-0.51-17.14c-0.21-3.98,0.09-7.99-0.54-12.19
		c-0.43,24.59-0.86,48.94-1.3,73.36c-0.67-0.16-0.49-0.59-0.49-0.89c-0.05-2.28-0.11-4.55-0.16-6.83
		c-0.17-8.19-0.18-16.39-0.38-24.59c-0.14-5.88-0.07-11.76-0.26-17.63c-0.15-4.44-0.04-8.88-0.21-13.31
		c-0.15-3.72-0.16-7.43-0.2-11.15c0-0.27,0.07-0.56-0.18-0.82c-0.45,0.19-0.26,0.61-0.27,0.91c-0.11,4.72-0.15,9.43-0.32,14.15
		c-0.23,6.43-0.37,12.86-0.49,19.3c-0.1,5.87-0.26,11.75-0.48,17.62c-0.23,6.47-0.34,12.95-0.48,19.42
		c-0.12,5.83-0.35,11.66-0.59,17.49c-0.08-1.73-0.21-3.45-0.23-5.18c-0.06-5.24-0.06-10.48-0.13-15.72
		c-0.14-10.47-0.25-20.95-0.5-31.42c-0.15-6.6-0.05-13.2-0.23-19.79c-0.15-5.52-0.07-11.04-0.25-16.55
		c-0.13-3.88-0.11-7.75-0.17-11.63c-0.11-7.44-0.11-14.88-0.3-22.31c-0.22-8.32-0.03-16.63-0.14-24.95
		c-0.01-0.99,0.13-1.42,1.24-0.99c4.43,1.7,9.05,2.8,13.62,4.04c0.75,0.2,0.95,0.51,0.94,1.22c-0.11,9.4-0.17,18.79-0.33,28.19
		c-0.03,2.04-0.09,4.07-0.12,6.11c-0.12,10.88-0.2,21.75-0.34,32.63c-0.04,3.15-0.25,6.3-0.39,9.45c-0.47,1.39-0.12,2.83-0.26,4.25
		c-0.32,3.05-0.64,6.09-0.96,9.14C183.86,131.61,183.64,133.66,183.43,135.71z"></path>
	<path d="M43.2,114.73c-0.36-3.8-0.78-7.58-1.57-11.33c-0.36-1.7-0.85-3.48-0.37-5.29c0.09-0.34,0.03-0.72,0.03-1.08
		c-0.1-11.52-0.12-23.04-0.34-34.55c-0.12-6.4-0.1-12.8-0.21-19.19c-0.02-1.32-0.09-2.63-0.14-3.95c-0.02-0.54,0.13-0.85,0.73-1.02
		c4.8-1.34,9.67-2.39,14.4-3.99c1-0.34,0.67,0.5,0.67,0.9c0.02,6.48,0.05,12.96,0,19.44c-0.06,7.96-0.12,15.92-0.32,23.87
		c-0.13,5.08-0.05,10.16-0.21,15.23c-0.23,7.04-0.14,14.08-0.24,21.11c-0.15,10.55-0.25,21.11-0.5,31.66
		c-0.15,6.04-0.04,12.08-0.24,18.11c-0.1,3.2-0.08,6.4-0.14,9.59c-0.01,0.43,0.05,0.89-0.47,1.31c-0.08-1.16-0.19-2.23-0.21-3.3
		c-0.13-5.72-0.21-11.43-0.34-17.15c-0.14-6.11-0.32-12.23-0.48-18.34c-0.16-6.15-0.27-12.31-0.49-18.46
		c-0.22-6.31-0.42-12.62-0.47-18.94c-0.03-3.03,0-6.07,0-9.1c-0.12,0-0.24,0-0.36-0.01c-0.09,1.12-0.24,2.25-0.26,3.37
		c-0.11,7.44-0.19,14.87-0.29,22.31c-0.09,6.88-0.14,13.75-0.3,20.63c-0.24,9.87-0.33,19.75-0.51,29.62
		c-0.07,4.27-0.05,8.54-0.42,12.81c-0.49-27.65-0.98-55.31-1.46-82.96c-0.04,0-0.07,0-0.11,0c-0.09,1.56-0.22,3.12-0.26,4.67
		c-0.13,5.24-0.21,10.47-0.35,15.71c-0.22,8.31-0.48,16.62-0.73,24.93c-0.14,4.71-0.29,9.43-0.42,14.14
		c-0.19,6.83-0.36,13.67-0.54,20.5c-0.01,0.48,0.01,0.97-0.37,1.35c-0.23-0.7-0.14-1.43-0.12-2.14c0.29-9.09-0.24-18.18,0.01-27.27
		c0.12-4.43,0.05-8.85-0.35-13.27c0.23-0.58,0.15-1.19,0.14-1.78c-0.06-4.28-0.08-8.55-0.14-12.83c-0.13-9.63-0.11-19.27-0.16-28.91
		c-0.01-1.23-0.14-2.45-0.21-3.68c-0.12,0-0.23,0-0.35,0.01c0,2.44,0.03,4.87-0.01,7.31c-0.08,5.03-0.14,10.07-0.34,15.1
		c-0.1,2.56-0.13,5.11-0.21,7.67c-0.01,0.41,0.16,0.92-0.45,1.1c-0.11-0.84-0.22-1.68-0.32-2.52c-0.02-0.49,0.19-1-0.18-1.44
		L43.2,114.73z"></path>
	<path d="M81.62,21.99c1.9,2.5,3.78,5,5.69,7.49c0.77,1.01,1.6,1.97,2.4,2.95c-0.22,55.25-1.34,110.5-1.83,165.75
		c-0.16,0-0.32,0-0.47,0c0-2.12,0.03-4.24-0.01-6.36c-0.1-5.48-0.21-10.95-0.34-16.43c-0.23-9.35-0.48-18.7-0.73-28.05
		c-0.15-5.47-0.32-10.95-0.47-16.42c-0.17-6.47-0.32-12.95-0.49-19.42c-0.04-1.31-0.16-2.62-0.4-3.93c0,0.45,0.01,0.89,0,1.34
		c-0.1,7.64-0.2,15.27-0.32,22.91c-0.15,9.15-0.26,18.31-0.5,27.46c-0.14,5.08-0.05,10.16-0.22,15.23
		c-0.22,6.28-0.16,12.55-0.27,18.83c-0.01,0.79-0.16,1.58-0.53,2.37c0-3.2,0.03-6.4-0.01-9.6c-0.09-8.32-0.13-16.64-0.36-24.95
		c-0.15-5.36-0.14-10.71-0.24-16.07c-0.17-8.71-0.3-17.43-0.47-26.14c-0.03-1.31-0.34-2.6-0.19-4c-0.34,0.25-0.23,0.51-0.23,0.72
		c-0.19,7.15-0.35,14.31-0.54,21.46c-0.23,8.47-0.44,16.94-0.73,25.41c-0.3,8.47-0.57,16.94-0.72,25.41
		c-0.03,1.74-0.19,3.49-0.4,5.23c-0.27-29.1-0.55-58.2-0.82-87.3c-0.03,0-0.06,0-0.09,0c-0.09,1.42-0.22,2.83-0.26,4.25
		c-0.21,7.51-0.39,15.02-0.59,22.54c-0.15,5.55-0.28,11.11-0.48,16.66c-0.3,8.23-0.59,16.46-0.73,24.69
		c-0.08,4.75-0.29,9.51-0.46,14.26c-0.01,0.38,0.1,0.79-0.19,1.26c-0.27-0.45-0.17-0.88-0.18-1.28c-0.04-7.08,0.01-14.16-0.14-21.24
		c-0.15-6.8-0.04-13.6-0.24-20.39c-0.15-5.04-0.11-10.08-0.17-15.11c-0.12-9.96-0.12-19.91-0.32-29.87
		c-0.14-7.28-0.02-14.56-0.23-21.83c-0.19-6.84-0.03-13.68-0.24-20.51c-0.22-7.32-0.05-14.64-0.25-21.95
		c-0.09-3.24-0.09-6.48-0.13-9.71c-0.01-0.43-0.09-0.87,0.41-1.15C76.67,25.07,79,23.29,81.62,21.99z"></path>
	<path d="M138.49,32.66c3.12-3.49,5.7-7.4,8.59-11.06c0.98,1.68,2.69,2.58,4.28,3.33c2.62,1.23,3.37,2.96,3.19,5.79
		c-0.49,7.7-0.11,15.43-0.33,23.15c-0.19,6.88-0.04,13.76-0.24,20.63c-0.2,7.08-0.05,14.16-0.24,21.23
		c-0.21,8.12-0.04,16.24-0.24,24.35c-0.18,7.2-0.05,14.4-0.25,21.59c-0.18,6.44-0.06,12.88-0.23,19.31
		c-0.21,8.04-0.15,16.07-0.24,24.11c-0.01,1.31-0.15,2.63-0.31,3.94c-0.09-2.25-0.21-4.51-0.28-6.76
		c-0.21-7.51-0.35-15.03-0.6-22.54c-0.27-8.03-0.53-16.06-0.72-24.09c-0.15-6.35-0.42-12.7-0.64-19.05
		c-0.01-0.3,0.04-0.62-0.55-0.82c-0.23,23.61-0.45,47.23-0.68,70.9c-0.65-0.16-0.46-0.59-0.47-0.89
		c-0.18-6.59-0.34-13.19-0.52-19.78c-0.24-8.59-0.48-17.18-0.73-25.77c-0.15-5.31-0.35-10.62-0.47-15.94
		c-0.06-2.74-0.01-5.49-0.01-8.43c-0.83,0.37-0.64,0.79-0.64,1.09c-0.1,3.88-0.1,7.75-0.2,11.63c-0.21,8.35-0.14,16.72-0.41,25.07
		c-0.16,4.95,0.08,9.92-0.36,14.86c-0.49,5.47-0.16,10.94-0.25,16.4c-0.01,0.41,0.15,0.87-0.22,1.27c-0.45-0.22-0.28-0.63-0.28-0.94
		c-0.1-6.56-0.19-13.11-0.28-19.67c-0.08-5.72-0.15-11.43-0.25-17.15c-0.15-8.47-0.31-16.95-0.47-25.42
		c-0.05-2.48-0.11-4.95-0.16-7.43c-0.01-0.26,0.04-0.55-0.2-0.78c-0.51,0.17-0.32,0.6-0.33,0.91c-0.18,6.83-0.31,13.67-0.52,20.5
		c-0.28,9.27-0.6,18.54-0.74,27.81c-0.06,4.24-0.27,8.47-0.39,12.7c-0.2,6.99-0.38,13.98-0.67,20.97c-0.08-1.79-0.22-3.58-0.24-5.37
		c-0.06-5.12,0.02-10.24-0.13-15.36c-0.22-7.44-0.05-14.88-0.25-22.31c-0.18-6.28-0.02-12.56-0.23-18.83
		c-0.21-6.04-0.02-12.08-0.24-18.11c-0.22-6.2-0.03-12.4-0.24-18.59c-0.24-7.08-0.03-14.16-0.25-21.23
		c-0.19-6.12-0.03-12.24-0.23-18.35C138.36,50.57,138.63,41.62,138.49,32.66z"></path>
	<path d="M106.15,47.05c1.78,0.6,3.42,1.56,5.24,2.05c0.77,0.16,1.46,0.63,2.28,0.55c0.3,0,0.6,0,0.89,0
		c0.78,0.06,1.45-0.25,2.11-0.6c1.84-0.37,3.45-1.33,5.19-1.96c0.12,11.72-0.29,23.43-0.27,35.15c0,1.48-0.1,2.95-0.12,4.43
		c-0.12,11.32-0.15,22.64-0.37,33.95c-0.15,7.48-0.02,14.96-0.23,22.43c-0.18,6.72-0.03,13.44-0.25,20.15c-0.16,5-0.1,10-0.17,14.99
		c-0.1,7.04-0.09,14.08-0.29,21.11c-0.06,2.1-0.13,4.22-0.32,6.34c-0.03-0.11-0.07-0.21-0.07-0.32c-0.09-3.52-0.18-7.03-0.26-10.55
		c-0.18-7.59-0.34-15.19-0.53-22.78c-0.15-6.03-0.32-12.07-0.48-18.1c-0.16-6.35-0.31-12.71-0.48-19.06
		c-0.12-4.31-0.27-8.63-0.42-12.94c-0.01-0.29,0.12-0.64-0.31-0.9c-0.28,0.35-0.18,0.75-0.19,1.11c-0.1,8.88-0.11,17.76-0.33,26.63
		c-0.15,6.24-0.03,12.48-0.24,18.71c-0.18,5.32-0.08,10.64-0.22,15.95c-0.3,11.47-0.39,22.94-0.51,34.41
		c-0.25-1.82-0.31-3.65-0.33-5.49c-0.11-9.56-0.16-19.12-0.38-28.67c-0.14-6.08-0.12-12.16-0.21-18.23
		c-0.15-9.47-0.28-18.95-0.5-28.42c-0.07-2.76-0.08-5.52-0.15-8.27c-0.01-0.33,0.07-0.69-0.19-1c-0.42,0.25-0.29,0.61-0.29,0.89
		c-0.08,2.88-0.15,5.75-0.21,8.63c-0.19,8.91-0.37,17.83-0.58,26.74c-0.14,6.27-0.32,12.55-0.47,18.82
		c-0.16,6.63-0.23,13.27-0.51,19.9c-0.18,4.41,0.05,8.84-0.53,13.26c-0.29-33.61-0.58-67.19-0.87-100.77c-0.13,0-0.26,0-0.4,0
		c0,2.39,0.03,4.78-0.01,7.18c-0.09,5.28-0.2,10.55-0.32,15.83c-0.15,6.11-0.27,12.23-0.49,18.34c-0.22,6.11-0.32,12.23-0.48,18.34
		c-0.24,9.03-0.56,18.06-0.75,27.09c-0.05,2.47-0.08,4.95-0.4,7.43c0-0.74,0.01-1.49,0-2.23c-0.09-9.72-0.11-19.44-0.3-29.15
		c-0.18-9.64-0.06-19.28-0.26-28.91c-0.17-8.12-0.02-16.24-0.23-24.35c-0.2-7.64-0.04-15.28-0.24-22.91
		c-0.2-7.92-0.05-15.84-0.24-23.75c-0.21-9.08-0.11-18.16-0.22-27.23C106.25,49.61,106.19,48.33,106.15,47.05z"></path>
	<path d="M188.95,68.68c0.22,1.24,0.33,2.21,0.35,3.2c0.14,6.18,0.28,12.37,0.49,18.55
		c0.06,1.77-0.39,3.37-1.05,4.98C188.98,86.59,188.84,77.77,188.95,68.68z"></path>
	<path d="M38.76,89.66c-0.53-1.11-0.98-2.17-0.83-3.52c0.25-2.41,0.24-4.86,0.26-7.3c0.03-3.27,0.15-6.54,0.34-9.66
		C38.98,75.89,38.72,82.76,38.76,89.66z"></path>
	<path d="M192.55,84.71c-0.03-6.27,0.08-12.44,0.27-18.62c0.23,4.91,0.37,9.81,0.41,14.72
		C193.24,82.13,193.43,83.44,192.55,84.71z"></path>
	<path d="M95.98,96.72l-0.1,0c0,0-0.1,0-0.1,0c-0.36-1.33-0.21-2.69-0.11-4.02c0.1-1.27,0.11-2.54,0.19-3.66
		c0.09,2.07,0.2,4.3,0.28,6.52C96.15,95.95,96.26,96.37,95.98,96.72z"></path>
	<path d="M96.21,110.38c-0.35-0.37-0.2-0.83-0.2-1.25c-0.01-3.97-0.01-7.94-0.01-11.91c0.28,0.4,0.15,0.85,0.16,1.27
		c0.09,3.86-0.07,7.72,0.18,11.57C96.35,110.17,96.25,110.28,96.21,110.38z"></path>
	<path d="M95.76,97.22c0,3.73,0,7.46-0.01,11.2c0,0.42,0.15,0.88-0.2,1.25c-0.39-0.65-0.01-1.32-0.01-1.98
		c-0.02-3.06,0.03-6.13,0.06-9.19C95.61,98.06,95.48,97.61,95.76,97.22z"></path>
	<path d="M96.45,124.54c-0.35-0.37-0.2-0.83-0.2-1.25c-0.01-3.81-0.01-7.62-0.01-11.43c0.32,0.6,0.15,1.25,0.16,1.87
		c0.1,3.5-0.06,7,0.19,10.49C96.59,124.33,96.49,124.44,96.45,124.54z"></path>
	<path d="M96.68,137.98c-0.34-0.37-0.19-0.83-0.19-1.25c-0.01-3.57-0.01-7.14-0.01-10.71
		c0.32,0.56,0.16,1.18,0.16,1.76C96.67,131.19,96.67,134.58,96.68,137.98z"></path>
</g>
<g onclick="select(this)" class="" id="estampa-primaria" fill="#bf0811">
	<path d="M1.86,110.06c1.8-9.5,2.69-19.14,4.26-28.68c0.85-5.16,1.17-10.4,2.28-15.52
		c1.78-8.16,4.55-15.89,9.62-22.65c2.1-2.79,4.48-5.32,7.21-7.5c1.36-1.09,2.44-2.5,3.96-3.41c0.32-0.2,0.63-0.45,0.98-0.62
		c8.57-4.26,17.55-7.57,26.27-11.49c5.6-2.52,11.09-5.25,16.36-8.4c0.65-0.39,1.18-0.9,1.71-1.47c1.14-1.22,2.37-2.39,4.29-2
		c-2,1.16-2.46,2.21-2.01,4.44c0.4,1.98,1.17,3.79,2.3,5.46c0.85,1.25,1.69,2.5,2.53,3.76c-2.62,1.29-4.95,3.08-7.5,4.49
		c-0.5,0.28-0.42,0.72-0.41,1.15c0.05,3.24,0.04,6.47,0.13,9.71c0.2,7.31,0.03,14.63,0.25,21.95c0.21,6.83,0.04,13.67,0.24,20.51
		c0.21,7.27,0.09,14.55,0.23,21.83c0.2,9.95,0.2,19.91,0.32,29.87c0.06,5.04,0.02,10.07,0.17,15.11c0.2,6.79,0.09,13.59,0.24,20.39
		c0.15,7.08,0.1,14.16,0.14,21.24c0,0.39-0.1,0.82,0.18,1.28c0.29-0.47,0.18-0.88,0.19-1.26c0.16-4.75,0.38-9.51,0.46-14.26
		c0.14-8.23,0.43-16.46,0.73-24.69c0.2-5.55,0.33-11.11,0.48-16.66c0.2-7.51,0.38-15.03,0.59-22.54c0.04-1.42,0.17-2.83,0.26-4.25
		c0.03,0,0.06,0,0.09,0c0.27,29.1,0.55,58.2,0.82,87.3c0.2-1.74,0.37-3.49,0.4-5.23c0.15-8.47,0.42-16.94,0.72-25.41
		c0.3-8.47,0.5-16.94,0.73-25.41c0.19-7.15,0.36-14.31,0.54-21.46c0.01-0.22-0.1-0.47,0.23-0.72c-0.15,1.4,0.16,2.69,0.19,4
		c0.18,8.71,0.31,17.43,0.47,26.14c0.1,5.36,0.09,10.71,0.24,16.07c0.23,8.31,0.27,16.63,0.36,24.95c0.04,3.2,0.01,6.4,0.01,9.6
		c0.37-0.79,0.51-1.57,0.53-2.37c0.12-6.28,0.06-12.55,0.27-18.83c0.18-5.07,0.08-10.15,0.22-15.23c0.25-9.15,0.36-18.31,0.5-27.46
		c0.12-7.64,0.21-15.27,0.32-22.91c0.01-0.45,0-0.89,0-1.34c0.24,1.31,0.37,2.62,0.4,3.93c0.18,6.47,0.32,12.95,0.49,19.42
		c0.15,5.47,0.32,10.95,0.47,16.42c0.25,9.35,0.5,18.7,0.73,28.05c0.13,5.48,0.24,10.95,0.34,16.43c0.04,2.12,0.01,4.24,0.01,6.36
		c0.16,0,0.32,0,0.47,0c0.49-55.25,1.61-110.5,1.83-165.75c0.13,0.09,0.27,0.17,0.38,0.28c5.02,5.15,9.64,10.75,16.06,14.34
		c0.04,1.28,0.09,2.55,0.11,3.83c0.11,9.08,0.01,18.16,0.22,27.23c0.19,7.92,0.04,15.83,0.24,23.75c0.2,7.63,0.04,15.27,0.24,22.91
		c0.21,8.11,0.07,16.23,0.23,24.35c0.2,9.63,0.08,19.27,0.26,28.91c0.18,9.72,0.2,19.43,0.3,29.15c0.01,0.74,0,1.49,0,2.23
		c0.31-2.48,0.34-4.96,0.4-7.43c0.19-9.03,0.51-18.06,0.75-27.09c0.16-6.11,0.26-12.23,0.48-18.34c0.22-6.11,0.35-12.23,0.49-18.34
		c0.13-5.28,0.24-10.55,0.32-15.83c0.04-2.39,0.01-4.78,0.01-7.18c0.13,0,0.26,0,0.4,0c0.29,33.58,0.58,67.16,0.87,100.77
		c0.58-4.43,0.34-8.85,0.53-13.26c0.28-6.63,0.34-13.27,0.51-19.9c0.15-6.27,0.33-12.55,0.47-18.82c0.2-8.91,0.38-17.83,0.58-26.74
		c0.06-2.88,0.13-5.75,0.21-8.63c0.01-0.28-0.13-0.64,0.29-0.89c0.25,0.31,0.18,0.67,0.19,1c0.07,2.76,0.08,5.52,0.15,8.27
		c0.22,9.47,0.35,18.95,0.5,28.42c0.1,6.08,0.08,12.15,0.21,18.23c0.22,9.55,0.27,19.11,0.38,28.67c0.02,1.84,0.08,3.66,0.33,5.49
		c0.12-11.47,0.21-22.94,0.51-34.41c0.14-5.32,0.04-10.63,0.22-15.95c0.21-6.23,0.09-12.47,0.24-18.71
		c0.21-8.87,0.22-17.75,0.33-26.63c0-0.36-0.1-0.77,0.19-1.11c0.43,0.26,0.3,0.61,0.31,0.9c0.15,4.31,0.3,8.63,0.42,12.94
		c0.17,6.35,0.32,12.71,0.48,19.06c0.16,6.03,0.33,12.07,0.48,18.1c0.19,7.59,0.35,15.19,0.53,22.78c0.08,3.52,0.17,7.03,0.26,10.55
		c0,0.11,0.05,0.21,0.07,0.32c0.19-2.12,0.26-4.24,0.32-6.34c0.2-7.03,0.19-14.07,0.29-21.11c0.07-5,0.02-9.99,0.17-14.99
		c0.21-6.71,0.06-13.43,0.25-20.15c0.21-7.47,0.08-14.95,0.23-22.43c0.22-11.31,0.25-22.63,0.37-33.95
		c0.02-1.48,0.12-2.96,0.12-4.43c-0.02-11.72,0.39-23.43,0.27-35.15c3.63-1.78,6.63-4.39,9.46-7.22c2.39-2.39,4.77-4.8,7.16-7.21
		c0.13,8.96-0.13,17.91,0.16,26.87c0.2,6.11,0.03,12.23,0.23,18.35c0.22,7.07,0.01,14.15,0.25,21.23
		c0.21,6.19,0.01,12.39,0.24,18.59c0.22,6.03,0.03,12.07,0.24,18.11c0.21,6.27,0.06,12.55,0.23,18.83
		c0.21,7.43,0.04,14.87,0.25,22.31c0.15,5.12,0.07,10.24,0.13,15.36c0.02,1.79,0.16,3.58,0.24,5.37c0.29-6.99,0.47-13.98,0.67-20.97
		c0.12-4.23,0.33-8.47,0.39-12.7c0.13-9.27,0.45-18.54,0.74-27.81c0.21-6.83,0.34-13.67,0.52-20.5c0.01-0.31-0.18-0.73,0.33-0.91
		c0.24,0.23,0.19,0.51,0.2,0.78c0.06,2.48,0.12,4.95,0.16,7.43c0.16,8.47,0.33,16.95,0.47,25.42c0.1,5.72,0.17,11.43,0.25,17.15
		c0.09,6.56,0.18,13.11,0.28,19.67c0,0.31-0.16,0.72,0.28,0.94c0.37-0.4,0.21-0.86,0.22-1.27c0.09-5.47-0.23-10.94,0.25-16.4
		c0.44-4.94,0.2-9.91,0.36-14.86c0.26-8.35,0.2-16.71,0.41-25.07c0.1-3.88,0.1-7.76,0.2-11.63c0.01-0.3-0.19-0.71,0.64-1.09
		c0,2.95-0.05,5.69,0.01,8.43c0.12,5.31,0.32,10.63,0.47,15.94c0.25,8.59,0.49,17.18,0.73,25.77c0.18,6.59,0.34,13.19,0.52,19.78
		c0.01,0.29-0.18,0.73,0.47,0.89c0.23-23.67,0.45-47.29,0.68-70.9c0.6,0.2,0.54,0.52,0.55,0.82c0.22,6.35,0.49,12.7,0.64,19.05
		c0.19,8.03,0.45,16.06,0.72,24.09c0.25,7.51,0.39,15.03,0.6,22.54c0.06,2.26,0.18,4.51,0.28,6.76c0.16-1.32,0.3-2.63,0.31-3.94
		c0.09-8.04,0.03-16.08,0.24-24.11c0.17-6.44,0.05-12.87,0.23-19.31c0.2-7.19,0.07-14.39,0.25-21.59c0.2-8.11,0.03-16.23,0.24-24.35
		c0.19-7.07,0.04-14.15,0.24-21.23c0.2-6.87,0.05-13.75,0.24-20.63c0.22-7.71-0.16-15.44,0.33-23.15c0.18-2.83-0.57-4.55-3.19-5.79
		c-1.59-0.75-3.3-1.65-4.28-3.33c0.21-0.34,0.42-0.68,0.64-1.01c1.64-2.4,3.29-4.8,3.95-7.72c0.44-1.94,0-3.34-1.62-4.43
		c1.74-0.02,2.87,1.05,3.89,2.25c0.34,0.4,0.69,0.72,1.14,1.01c9.99,6.52,21.16,10.57,32.07,15.13c3.97,1.66,7.88,3.45,11.73,5.34
		c2.13,1.05,3.85,2.93,5.71,4.49c7.79,6.53,12.37,15.03,15.03,24.69c1.14,4.13,1.99,8.32,2.42,12.58
		c0.54,5.36,2.05,10.51,3.16,15.74c1.25,5.91,1.9,11.91,3.02,17.84c0.06,0.31,0.04,0.64,0.05,0.96c-0.42,0.48-1.05,0.55-1.6,0.74
		c-3.58,1.24-7.25,2.16-10.94,3.02c-4.99,1.15-10.02,1.83-15.14,1.82c-2.23,0-4.47,0.08-6.7-0.02c-2.38-0.11-4.8-0.06-7.11-0.75
		c-0.89-0.26-1.01,0.07-0.99,0.82c0.02,0.72-0.12,1.42-0.48,2.06c0.13-3.15,0.35-6.3,0.39-9.45c0.14-10.88,0.22-21.75,0.34-32.63
		c0.02-2.04,0.08-4.08,0.12-6.11c0.16-9.4,0.21-18.79,0.33-28.19c0.01-0.71-0.19-1.02-0.94-1.22c-4.57-1.25-9.19-2.34-13.62-4.04
		c-1.12-0.43-1.26,0-1.24,0.99c0.1,8.32-0.08,16.63,0.14,24.95c0.19,7.43,0.19,14.87,0.3,22.31c0.06,3.88,0.05,7.75,0.17,11.63
		c0.18,5.51,0.1,11.03,0.25,16.55c0.18,6.59,0.08,13.19,0.23,19.79c0.25,10.47,0.36,20.95,0.5,31.42
		c0.07,5.24,0.07,10.48,0.13,15.72c0.02,1.73,0.15,3.45,0.23,5.18c0.24-5.83,0.47-11.66,0.59-17.49c0.14-6.47,0.25-12.95,0.48-19.42
		c0.21-5.87,0.37-11.74,0.48-17.62c0.11-6.43,0.26-12.87,0.49-19.3c0.17-4.71,0.21-9.43,0.32-14.15c0.01-0.3-0.18-0.72,0.27-0.91
		c0.25,0.26,0.17,0.56,0.18,0.82c0.04,3.72,0.05,7.43,0.2,11.15c0.17,4.43,0.07,8.87,0.21,13.31c0.2,5.87,0.12,11.75,0.26,17.63
		c0.2,8.19,0.2,16.39,0.38,24.59c0.05,2.28,0.11,4.55,0.16,6.83c0.01,0.29-0.18,0.73,0.49,0.89c0.43-24.41,0.86-48.77,1.3-73.36
		c0.63,4.2,0.33,8.2,0.54,12.19c0.3,5.71,0.35,11.42,0.51,17.14c0.23,8.07,0.49,16.14,0.7,24.21c0.21,7.95,0.38,15.91,0.58,23.86
		c0.01,0.3-0.17,0.7,0.37,1.01c0.28-28.21,0.56-56.3,0.84-84.38c0.08,0,0.15,0,0.23,0c0.41,15.22,0.82,30.43,1.22,45.65
		c-0.31,5.35-0.74,10.71-0.27,16.04c0.31,3.53,0.09,6.99,0.07,10.49c-0.05,6.71-0.67,13.41-0.11,20.12c0.2,2.44-0.27,4.86-0.24,7.3
		c0.03,2.11,0.52,4.11,0.97,6.14c1.59,7.24,1.49,14.53,0.35,21.8c-0.42,2.69-0.16,5.21,0.62,7.75c-0.24,0.16-0.22,0.4-0.24,0.64
		c-0.16,3.27-0.32,6.53-0.47,9.8c-0.25,5.62-0.48,11.24-0.72,16.85c-0.24,5.74-0.49,11.47-0.73,17.21
		c-0.2,4.78-0.38,9.57-0.57,14.35c-0.15,0.02-0.3,0.04-0.46,0.06c-0.36-4.94-0.23-9.9-0.35-14.85c-0.28-11.42-0.4-22.84-0.57-34.27
		c-0.01-0.73-0.05-1.44-0.38-2.1c-0.58,17.22-1.16,34.41-1.75,51.61c-0.15,0.02-0.3,0.04-0.45,0.05c-0.16-4.23-0.4-8.46-0.46-12.69
		c-0.14-8.75-0.5-17.48-0.77-26.22c-0.12-4.03-0.17-8.07-0.27-12.1c-0.01-0.27,0.16-0.65-0.41-0.85c-0.11,1.91-0.17,3.77-0.2,5.61
		c-0.11,6.59-0.28,13.18-0.51,19.76c-0.19,5.35-0.23,10.7-0.35,16.06c-0.08,3.59-0.19,7.19-0.28,10.78c-0.15,0-0.3,0.01-0.45,0.01
		c-0.4-3.5-0.14-7.02-0.36-10.53c-0.31-4.98-0.36-9.97-0.51-14.96c-0.17-5.67-0.33-11.34-0.49-17c-0.11-3.9-0.21-7.79-0.31-11.69
		c-0.19,2.03-0.3,4.06-0.36,6.09c-0.25,7.86-0.51,15.72-0.74,23.59c-0.13,4.63-0.09,9.27-0.36,13.89
		c-0.21,3.63-0.01,7.27-0.44,10.89l-0.1,0.03c0,0-0.1-0.01-0.1-0.01c-0.01-0.56-0.04-1.12-0.04-1.68c0-19.16,0.04-38.32-0.02-57.48
		c-0.04-13.44,0.22-26.87-0.13-40.31c-0.27-10.31-0.39-20.63-0.49-30.94c-0.11-11.48-0.22-22.95-0.48-34.42
		c-0.16-7.28-0.2-14.55-0.29-21.83c-0.1-7.32-0.19-14.63-0.29-21.95c0-0.28-0.03-0.57-0.05-0.85c-0.18,1.6-0.31,3.19-0.35,4.78
		c-0.17,6.63-0.31,13.27-0.47,19.9c-0.17,6.95-0.34,13.91-0.51,20.86c-0.16,6.51-0.31,13.03-0.46,19.54
		c-0.17,7.31-0.35,14.63-0.52,21.94c-0.11,4.84-0.19,9.67-0.29,14.51c0,0.19-0.04,0.39-0.06,0.58c-0.11,0-0.22,0-0.33-0.01
		c0-3.19,0.04-6.39-0.01-9.58c-0.08-5.28-0.04-10.55-0.2-15.83c-0.2-6.51-0.12-13.03-0.27-19.55c-0.2-8.79-0.23-17.59-0.35-26.39
		c-0.03-2.44-0.15-4.87-0.23-7.31c-0.01-4.56-0.03-9.12-0.05-13.68c0-0.15-0.1-0.29-0.15-0.44c-0.01-0.17-0.01-0.33-0.02-0.5
		c0.23-0.27,0.19-0.61,0.15-0.92c-0.26-2.05-0.11-4.12-0.27-6.18c0.09,2.43-0.42,4.85-0.17,7.29c-0.23,0.37-0.15,0.78-0.15,1.17
		c-0.08,6.32,0.05,12.63-0.18,18.95c-0.2,5.31-0.06,10.63-0.23,15.95c-0.2,6.43-0.22,12.87-0.31,19.31
		c-0.11,7.56-0.21,15.11-0.3,22.67c-0.03,2.39,0,4.78,0,7.17c-0.12,0-0.25,0-0.37,0c-0.75-29.1-1.51-58.21-2.26-87.31
		c-0.12,0-0.24,0-0.37,0c0,2.91,0.02,5.82,0,8.73c-0.08,8.6-0.02,17.19-0.21,25.79c-0.2,9.27-0.08,18.55-0.24,27.83
		c-0.17,9.68-0.1,19.36-0.15,29.04c-0.01,0.95-0.14,1.91-0.21,2.86c-0.26-3.04-0.29-6.08-0.36-9.12
		c-0.22-9.87-0.48-19.74-0.78-29.61c-0.17-5.47-0.31-10.95-0.45-16.42c-0.18-7.11-0.36-14.22-0.54-21.34
		c-0.08-3.04-0.15-6.07-0.23-9.11c-0.01-0.24,0.12-0.58-0.29-0.67c-0.32,0.24-0.19,0.58-0.2,0.88c-0.07,4.52-0.05,9.03-0.15,13.55
		c-0.22,9.31-0.02,18.63-0.25,27.95c-0.21,8.55-0.01,17.11-0.24,25.67c-0.22,8.15-0.02,16.31-0.24,24.47
		c-0.22,8.23-0.03,16.47-0.24,24.71c-0.23,8.91,0.01,17.83-0.25,26.75c-0.24,8.19-0.01,16.39-0.23,24.59
		c-0.18,7.08-0.09,14.16-0.13,21.24c0,0.51,0.11,1.04-0.18,1.52c-0.01-0.56-0.04-1.12-0.04-1.68c-0.01-11.63-0.01-23.26-0.03-34.89
		c0-0.44,0.11-0.91-0.15-1.41c-0.36,0.44-0.23,0.85-0.25,1.22c-0.1,2.35-0.05,4.71-0.13,7.07c-0.23,7.78-0.36,15.57-0.51,23.36
		c-0.06,3.36-0.09,6.71-0.14,10.07l-0.11,0.02c0,0-0.11-0.02-0.11-0.02c-0.41-15.63-0.4-31.27-0.62-46.9c-0.1,0-0.2,0-0.3,0
		c-0.98,15.66-1.96,31.33-2.94,46.99c-0.14,0-0.28,0-0.42,0c-0.25-14.51-0.5-29.03-0.75-43.54c-0.36,4.1-0.53,8.2-0.74,12.3
		c-0.37,7.01-0.77,14.01-1.16,21.02c-0.19,3.42-0.37,6.85-0.56,10.27c-0.18,0-0.37,0.01-0.56,0.01c-0.28-3.67-0.13-7.35-0.26-11.03
		c-0.31-8.23-0.43-16.46-0.61-24.7c-0.04-1.99-0.01-3.99-0.01-5.99c-0.12,0-0.24,0-0.36,0c-0.68,13.92-1.35,27.84-2.03,41.76
		c-0.14,0-0.28,0-0.42,0c-0.35-12.13-0.71-24.26-1.06-36.39c-0.11,0-0.21,0-0.32,0c-0.5,12.14-1.01,24.28-1.51,36.42
		c-0.46-0.43-0.24-0.98-0.24-1.47c0-21.03,0.05-42.06,0.03-63.09c-0.01-5.96,0.01-11.91-0.18-17.87
		c-0.21-6.55-0.02-13.11-0.25-19.67c-0.21-5.83-0.03-11.67-0.23-17.51c-0.22-6.23-0.04-12.47-0.24-18.71
		c-0.22-6.83-0.09-13.67-0.23-20.51c-0.23-11.43-0.25-22.87-0.39-34.31c-0.02-1.95-0.16-3.9-0.25-5.85
		c-0.1,0.19-0.12,0.38-0.13,0.58c-0.16,5.67-0.32,11.35-0.47,17.02c-0.17,6.39-0.32,12.79-0.48,19.18
		c-0.16,6.07-0.32,12.15-0.48,18.22c-0.17,6.55-0.32,13.11-0.48,19.66c-0.19,7.87-0.38,15.75-0.57,23.62
		c-0.01,0.27-0.03,0.54-0.05,0.81c-0.06,0-0.12,0-0.18,0c-0.49-31.17-0.98-62.35-1.46-93.52c-0.08,0-0.15,0-0.23,0
		c-0.48,29.09-0.96,58.18-1.45,87.27c-0.06,0-0.12,0-0.18,0c-0.75-28.87-1.51-57.73-2.26-86.6c-0.08,0-0.15,0-0.23,0
		c-0.28,30.7-0.56,61.39-0.84,92.09c-0.37-2.59-0.34-5.19-0.45-7.78c-0.26-6.19-0.35-12.38-0.52-18.58
		c-0.15-5.71-0.32-11.42-0.48-17.14c-0.25-9.19-0.5-18.38-0.73-27.57c-0.13-4.96-0.21-9.91-0.34-14.87
		c-0.03-1.32-0.17-2.65-0.26-3.97c-0.11,0-0.22,0-0.33,0c0,5.39,0.04,10.79-0.01,16.18c-0.06,7.28-0.05,14.55-0.21,21.83
		c-0.2,9.39-0.04,18.79-0.25,28.19c-0.18,7.75-0.04,15.51-0.24,23.27c-0.19,7.43-0.04,14.87-0.24,22.31
		c-0.18,6.71-0.1,13.43-0.23,20.15c-0.18,9.11-0.08,18.23-0.25,27.35c-0.19,10.31-0.2,20.63-0.29,30.95c0,0.28-0.02,0.56-0.03,0.84
		c-0.24,0-0.48,0.01-0.72,0.01c-0.07-0.55-0.2-1.11-0.21-1.66c-0.07-3.96-0.3-7.9-0.5-11.85c-0.31-6.51-0.49-13.02-0.83-19.52
		c-0.13-2.53-0.06-5.09-0.63-7.6c-0.16,2.52-0.12,5.03-0.17,7.54c-0.17,7.83-0.36,15.66-0.56,23.5c-0.08,3.24-0.19,6.47-0.29,9.71
		c-0.14,0-0.28,0-0.43,0c-0.07-0.68-0.18-1.35-0.19-2.03c-0.11-5.19-0.55-10.37-0.71-15.56c-0.25-8.35-0.95-16.67-1.06-25.02
		c0-0.3,0.21-0.73-0.34-0.91c-0.03,0.31-0.08,0.58-0.09,0.85c-0.22,8.67-0.43,17.34-0.65,26.01c-0.1,3.88-0.19,7.75-0.3,11.63
		c-0.01,0.38,0.17,0.87-0.5,1.11c-0.34-13.25-0.68-26.41-1.02-39.57c-0.07,0-0.15,0.01-0.22,0.01c-0.7,14.42-1.41,28.84-2.11,43.26
		c-0.11,0.15-0.26,0.16-0.43,0.11c-0.36-13.53-0.72-27.06-1.08-40.58c-0.24,0.22-0.32,0.45-0.33,0.67
		c-0.25,5.63-0.5,11.26-0.73,16.88c-0.2,4.99-0.28,9.99-0.61,14.97c-0.17,2.63,0.02,5.28-0.41,7.89c-0.37-0.01-0.74-0.02-1.11-0.03
		c-0.02-0.44-0.06-0.88-0.06-1.32c-0.08-6.84-0.16-13.67-0.22-20.51c-0.09-8.8-0.13-17.59-0.26-26.39
		c-0.11-7.75,0.02-15.51-0.23-23.26c-0.2-6.27-0.1-12.55-0.21-18.83c-0.19-11.43-0.22-22.87-0.32-34.31c0-0.36-0.04-0.72-0.06-1.08
		c-0.01-6.24-0.02-12.47-0.04-18.71c0-0.15-0.1-0.3-0.15-0.44c-0.02-1.46-0.03-2.91-0.05-4.37c0.04-0.07,0.11-0.13,0.11-0.2
		c-0.05-5.81-0.09-11.62-0.15-17.43c0-0.43,0.12-0.88-0.15-1.28c-0.02-1.38-0.03-2.75-0.05-4.13c0.01-1.26,0.05-2.51,0.03-3.77
		c-0.07-3.58,0.09-7.16-0.15-10.74c0.09-0.28,0.11-0.55-0.04-0.82c0.29-1.99,0.07-3.98,0.1-5.97c-0.11,0-0.22,0-0.33,0
		c0,1.99,0,3.98,0,5.97c-0.29,0.33-0.28,0.73-0.28,1.13c0.03,6.48-0.24,12.94-0.41,19.41c-0.22,8.47-0.43,16.94-0.73,25.4
		c-0.21,5.99-0.33,11.98-0.49,17.97c-0.18,6.91-0.36,13.82-0.55,20.73c-0.01,0.3,0.18,0.72-0.36,0.95
		c-0.26-30.88-0.51-61.69-0.77-92.5c-0.37,6.03-0.55,12.06-0.71,18.09c-0.18,6.87-0.35,13.74-0.52,20.61
		c-0.15,5.67-0.31,11.34-0.44,17.02c-0.2,8.47-0.4,16.94-0.57,25.41c-0.06,2.83-0.01,5.67-0.01,8.5c-0.21,0-0.42,0-0.63,0
		c0-3.07,0.03-6.15-0.01-9.22c-0.1-9.39-0.22-18.79-0.35-28.18c-0.03-2.08-0.14-4.15-0.22-6.23c-0.01-3.4-0.01-6.8-0.04-10.2
		c-0.01-0.59,0.15-1.2-0.16-1.76c-0.01-0.49-0.02-0.99-0.03-1.48c0.05-0.11,0.15-0.21,0.14-0.32c-0.25-3.49-0.09-6.99-0.19-10.49
		c-0.02-0.62,0.16-1.27-0.16-1.87c-0.01-0.49-0.02-0.99-0.03-1.48c0.05-0.11,0.15-0.21,0.14-0.32c-0.25-3.86-0.09-7.72-0.18-11.57
		c-0.01-0.43,0.12-0.88-0.16-1.27c-0.01-0.17-0.01-0.33-0.02-0.5c0.28-0.35,0.17-0.77,0.16-1.15c-0.08-2.22-0.19-4.45-0.28-6.52
		c-0.08,1.12-0.09,2.39-0.19,3.66c-0.1,1.33-0.25,2.69,0.11,4.02c-0.01,0.17-0.01,0.33-0.02,0.5c-0.28,0.4-0.15,0.85-0.16,1.28
		c-0.04,3.06-0.08,6.13-0.06,9.19c0,0.66-0.38,1.33,0.01,1.98c-0.01,0.49-0.02,0.99-0.03,1.48c-0.05,0.15-0.14,0.3-0.15,0.44
		c-0.03,4.4-0.04,8.79-0.06,13.19c-0.07,3-0.17,5.99-0.22,8.99c-0.17,10.23-0.33,20.47-0.49,30.7c-0.11,7-0.21,13.99-0.31,20.99
		c0,0.24-0.04,0.48-0.06,0.73c-0.35-9.07-0.63-18.14-0.81-27.21c-0.13-6.27-0.29-12.55-0.48-18.82c-0.22-7.19-0.33-14.39-0.5-21.58
		c-0.16-6.95-0.34-13.91-0.51-20.86c-0.01-0.25,0.11-0.57-0.45-0.74c-0.08,1.33-0.2,2.6-0.23,3.89c-0.13,6-0.03,11.99-0.22,17.99
		c-0.22,6.75-0.02,13.51-0.24,20.27c-0.2,6.23-0.02,12.47-0.24,18.71c-0.22,5.99-0.03,11.99-0.24,17.99
		c-0.22,6.23-0.04,12.47-0.23,18.71c-0.21,6.87-0.08,13.75-0.23,20.63c-0.18,8.23-0.03,16.47,0.06,24.71
		c0.17,14.96,0.06,29.92,0.06,44.87c0,0.38,0.14,0.81-0.21,1.13c-0.07-1.23-0.16-2.47-0.21-3.7c-0.36-9.38-0.69-18.75-1.06-28.13
		c-0.06-1.41-0.07-2.84-0.68-4.19c-0.14,2.24-0.1,4.47-0.15,6.71c-0.18,8.27-0.38,16.53-0.59,24.8c-0.04,1.52-0.15,3.03-0.22,4.54
		c-0.13,0.01-0.27,0.02-0.4,0.04c-0.67-13.87-1.35-27.74-2.02-41.61c-0.37,8.06-0.64,16.12-0.86,24.18
		c-0.15,5.47-0.21,10.94-0.31,16.41c-0.01,0.32-0.04,0.64-0.07,0.96c-0.19,0-0.38-0.01-0.56-0.01c-0.77-14.47-1.54-28.95-2.31-43.42
		c-0.11,0-0.23,0-0.34,0c0,2.27,0.04,4.55-0.01,6.82c-0.12,6.19-0.03,12.39-0.21,18.58c-0.18,5.99-0.1,11.99-0.33,17.98
		c-0.15,0-0.29,0-0.44,0c-0.98-15.62-1.96-31.23-2.94-46.85c-0.12,0-0.23,0-0.35,0c-0.1,15.6-0.19,31.2-0.56,46.8l-0.11,0.02
		c0,0-0.11-0.02-0.11-0.02c-0.26-13.84-0.52-27.68-0.77-41.52c-0.13,0-0.27,0-0.4,0.01c0,13.83,0,27.66,0,41.49
		c-0.24,0-0.48,0-0.72,0c-0.15-5.76-0.05-11.51-0.21-17.27c-0.22-8.11-0.01-16.23-0.25-24.35c-0.23-7.95-0.01-15.91-0.24-23.87
		c-0.24-8.27-0.04-16.55-0.24-24.83c-0.23-9.47-0.01-18.95-0.25-28.43c-0.2-8.19-0.03-16.39-0.24-24.59
		c-0.22-8.59-0.07-17.19-0.24-25.79c-0.17-8.2-0.1-16.4-0.13-24.6c-0.01-2.75,0-5.5,0-8.26c-0.11,0-0.23,0-0.34,0
		c-0.02,0.31-0.04,0.62-0.05,0.94c-0.16,5.47-0.36,10.95-0.45,16.42c-0.16,9.31-0.45,18.62-0.74,27.93
		c-0.19,5.99-0.33,11.99-0.47,17.98c-0.2,8.27-0.37,16.55-0.58,24.82c-0.05,1.83-0.19,3.65-0.28,5.48c-0.04,0-0.08,0-0.11,0
		c-0.26-30.91-0.53-61.81-0.79-92.72c-0.1-0.01-0.2-0.02-0.3-0.03c-0.04,0.25-0.11,0.49-0.11,0.74c-0.08,9.35-0.39,18.7-0.69,28.05
		c-0.21,6.55-0.33,13.11-0.49,19.66c-0.2,8.23-0.39,16.47-0.58,24.7c-0.05,1.96-0.11,3.91-0.18,5.87c-0.01,0.25,0.08,0.56-0.27,0.71
		c-0.38-0.26-0.23-0.65-0.24-0.98c-0.05-2.2-0.12-4.4-0.14-6.59c-0.12-10.39-0.27-20.79-0.49-31.18c-0.2-8.95-0.19-17.91-0.39-26.87
		c-0.09-3.76-0.08-7.52-0.17-11.27c-0.01-0.31,0.15-0.71-0.28-0.97c-0.23,0.32-0.17,0.64-0.18,0.94c-0.07,3.44-0.11,6.87-0.17,10.31
		c-0.17,11.19-0.27,22.39-0.5,33.58c-0.19,9.47-0.19,18.95-0.39,28.43c-0.07,3.56-0.09,7.12-0.17,10.67
		c-0.01,0.3,0.21,0.73-0.31,0.87c-0.24-0.29-0.15-0.62-0.16-0.93c-0.15-5.47-0.29-10.95-0.42-16.42c-0.18-7.23-0.34-14.47-0.51-21.7
		c-0.15-6.43-0.3-12.87-0.46-19.3c-0.17-7.07-0.35-14.15-0.5-21.22c-0.12-5.28-0.2-10.55-0.29-15.83c-0.01-0.3-0.03-0.6-0.05-0.9
		c-0.17,1.32-0.3,2.63-0.33,3.95c-0.11,5.88-0.05,11.75-0.24,17.63c-0.19,5.79-0.09,11.59-0.22,17.39
		c-0.25,10.51-0.34,21.03-0.51,31.54c-0.08,5.08-0.13,10.16-0.2,15.23c-0.16,11.43-0.27,22.87-0.5,34.3
		c-0.12,5.88,0.06,11.76,0.08,17.63c0.08,23.72,0.03,47.44,0.03,71.16c0,0.43-0.09,0.87-0.14,1.3c-0.18-0.01-0.36-0.03-0.54-0.04
		c-0.56-18.85-1.12-37.7-1.67-56.55c-0.06,0-0.11,0-0.17,0c-0.57,18.73-1.15,37.46-1.72,56.18c-0.15-0.02-0.31-0.03-0.46-0.05
		c-0.16-5.99-0.34-11.97-0.48-17.96c-0.18-7.59-0.34-15.17-0.5-22.76c-0.08-3.75-0.17-7.51-0.27-11.26
		c-0.01-0.26,0.19-0.67-0.37-0.74c-0.03,0.25-0.07,0.48-0.08,0.71c-0.15,4.07-0.32,8.14-0.44,12.21c-0.18,6.07-0.34,12.13-0.5,18.2
		c-0.12,4.51-0.12,9.03-0.35,13.53c-0.13,2.55-0.05,5.11-0.25,7.66c-0.16-0.03-0.31-0.06-0.46-0.09c-0.05-0.56-0.12-1.11-0.14-1.67
		c-0.17-5.75-0.32-11.5-0.49-17.25c-0.25-8.79-0.52-17.57-0.76-26.36c-0.08-3.09-0.02-6.2-0.65-9.25
		c-0.3,17.92-0.61,35.84-0.91,53.76c-0.19,0-0.38,0-0.56,0c-0.54-13.44-1.09-26.88-1.63-40.31c-0.53,1.67-0.79,3.34-0.81,5.04
		c-0.02,3.07,0.02,6.15-0.28,9.21c-0.47,4.88-0.81,9.77-0.91,14.68c-0.07,3.31-0.18,6.63-0.27,9.94c-0.71-0.68-0.49-1.57-0.48-2.37
		c0.08-5.91,0.8-11.78,1.11-17.67c0.25-4.79,0.51-9.58,0.8-14.36c0.28-4.58,0.62-9.14,0.28-13.72c-0.03-0.39-0.02-0.82,0.08-1.19
		c1.09-3.96,0.52-7.95,0.05-11.9c-0.85-7.22,0.01-14.18,2.64-20.94c0.17-0.45,0.34-0.89,0.27-1.39c-0.29-2.12-0.16-4.22,0.21-6.32
		c0.09-0.5,0.07-1.04,0.03-1.55c-0.36-4.38-0.12-8.78-0.35-13.16c0.38-0.38,0.36-0.87,0.37-1.35c0.18-6.83,0.36-13.67,0.54-20.5
		c0.13-4.71,0.28-9.43,0.42-14.14c0.25-8.31,0.51-16.62,0.73-24.93c0.14-5.24,0.22-10.47,0.35-15.71c0.04-1.56,0.17-3.12,0.26-4.67
		c0.04,0,0.07,0,0.11,0c0.49,27.65,0.98,55.31,1.46,82.96c0.36-4.27,0.34-8.54,0.42-12.81c0.17-9.87,0.27-19.75,0.51-29.62
		c0.17-6.88,0.21-13.75,0.3-20.63c0.1-7.44,0.18-14.87,0.29-22.31c0.02-1.12,0.17-2.25,0.26-3.37c0.12,0,0.24,0,0.36,0.01
		c0,3.03-0.02,6.07,0,9.1c0.05,6.32,0.25,12.63,0.47,18.94c0.21,6.15,0.33,12.31,0.49,18.46c0.16,6.11,0.34,12.23,0.48,18.34
		c0.13,5.72,0.22,11.43,0.34,17.15c0.02,1.07,0.14,2.14,0.21,3.3c0.51-0.42,0.46-0.88,0.47-1.31c0.06-3.2,0.04-6.39,0.14-9.59
		c0.19-6.03,0.09-12.07,0.24-18.11c0.25-10.55,0.35-21.11,0.5-31.66c0.1-7.04,0.01-14.08,0.24-21.11
		c0.16-5.08,0.09-10.15,0.21-15.23c0.2-7.95,0.26-15.91,0.32-23.87c0.05-6.48,0.02-12.96,0-19.44c0-0.4,0.33-1.24-0.67-0.9
		c-4.72,1.6-9.6,2.65-14.4,3.99c-0.61,0.17-0.76,0.48-0.73,1.02c0.05,1.32,0.12,2.63,0.14,3.95c0.11,6.4,0.09,12.79,0.21,19.19
		c0.22,11.51,0.24,23.03,0.34,34.55c0,0.36,0.06,0.74-0.03,1.08c-0.48,1.81,0.01,3.59,0.37,5.29c0.79,3.75,1.21,7.53,1.57,11.33
		c-0.4-0.28-0.21-0.74-0.34-1.1c-0.13-0.37-0.25-0.51-0.68-0.32c-2.65,1.15-5.42,1.25-8.27,1.27c-4.07,0.03-8.12-0.21-12.18-0.35
		c-2.22-0.08-4.45-0.22-6.64-0.72c-3.49-0.8-6.99-1.59-10.49-2.34C3.62,110.95,2.69,110.64,1.86,110.06z M188.95,68.68
		c-0.11,9.09,0.02,17.91-0.21,26.73c0.66-1.61,1.11-3.21,1.05-4.98c-0.21-6.18-0.35-12.37-0.49-18.55
		C189.28,70.89,189.17,69.92,188.95,68.68z M38.76,89.66c-0.04-6.9,0.22-13.77-0.23-20.48c-0.19,3.12-0.31,6.39-0.34,9.66
		c-0.02,2.43,0,4.88-0.26,7.3C37.78,87.49,38.23,88.55,38.76,89.66z M192.55,84.71c0.88-1.27,0.7-2.57,0.68-3.89
		c-0.04-4.91-0.18-9.82-0.41-14.72C192.62,72.26,192.51,78.44,192.55,84.71z"></path>
	<path d="M43.28,120.9c0.79-0.63,0.29-1.49,0.41-2.24c0.6-0.18,0.43-0.69,0.45-1.1c0.09-2.56,0.11-5.11,0.21-7.67
		c0.2-5.03,0.26-10.07,0.34-15.1c0.04-2.43,0.01-4.87,0.01-7.31c0.12,0,0.23,0,0.35-0.01c0.07,1.23,0.2,2.45,0.21,3.68
		c0.06,9.64,0.03,19.27,0.16,28.91c0.06,4.28,0.08,8.55,0.14,12.83c0.01,0.59,0.1,1.2-0.14,1.78c-0.5-4.34-0.99-8.69-1.5-13.03
		C43.89,121.27,44.07,120.65,43.28,120.9z"></path>
	<path d="M185.58,283.46c-0.03-5.6,0.06-11.2-0.12-16.79c-0.21-6.31,0.02-12.63-0.23-18.93
		c-0.24-5.87-0.1-11.75-0.22-17.62c-0.03-1.6-0.13-3.19-0.2-4.78c1.13,3.63,1.35,7.35,1.12,11.11c-0.07,1.11-0.17,2.23-0.35,3.33
		c-0.36,2.15-0.32,4.25,0.14,6.4c0.5,2.34,0.58,4.75,0.46,7.15c-0.14,2.8,0.14,5.57,0.27,8.36c-0.4,1.1-0.37,2.26-0.38,3.39
		c-0.06,6.1-0.07,12.2-0.09,18.3C185.84,283.4,185.71,283.43,185.58,283.46z"></path>
	<path d="M43.37,116.15c-0.27-0.45-0.18-0.95-0.18-1.44C43.56,115.15,43.36,115.66,43.37,116.15z"></path>
	<path d="M141.28,9.52c0.04,0.98-0.57,1.72-0.98,2.52c-2.84,5.54-6.78,10.23-11.12,14.64
		c-3.39,3.44-6.83,6.84-9.95,10.55c-3.42,0-6.84,0-10.27,0c-4.14-4.82-8.71-9.24-13.05-13.88c-3.48-3.71-6.19-7.91-8.59-12.36
		c-0.28-0.52-0.57-1.06-0.58-1.68c4.57,0.36,9.14,0.7,13.71,1.07c6.64,0.54,13.27,0.88,19.95,0.51
		C127.37,10.5,134.32,9.95,141.28,9.52z"></path>
</g>
<g onclick="select(this)" class="" id="gola-primaria" fill="#bf0811">
	<path d="M116.68,49.05c0.94-2.93,1.91-5.84,3.52-8.5c0.98-1.62,2.16-3.07,3.45-4.44c4.13-4.4,8.36-8.7,12.39-13.19
		c3.16-3.52,5.67-7.52,7.6-11.86c0.99-2.23,1.32-4.58,1.32-6.99c0.86,0.34,1.24,1.19,1.89,1.75c1.04,0.91,1.91,2.02,3.2,2.63
		c1.62,1.1,2.07,2.49,1.62,4.43c-0.67,2.92-2.31,5.31-3.95,7.72c-0.22,0.33-0.43,0.67-0.64,1.01c-2.9,3.66-5.47,7.58-8.59,11.06
		c-2.38,2.4-4.76,4.81-7.16,7.21c-2.83,2.83-5.83,5.44-9.46,7.22C120.14,47.71,118.52,48.68,116.68,49.05z"></path>
	<path d="M83.32,3.98c0.21,1.04-0.06,2.08,0.13,3.16c0.47,2.57,1.48,4.88,2.71,7.13c2.84,5.16,6.61,9.6,10.71,13.78
		c3.17,3.22,6.4,6.39,9.3,9.86c2.72,3.25,4.32,7.07,5.21,11.19c-1.82-0.49-3.46-1.45-5.24-2.05c-6.42-3.59-11.04-9.19-16.06-14.34
		c-0.11-0.11-0.25-0.19-0.38-0.28c-0.8-0.98-1.63-1.95-2.4-2.95c-1.91-2.49-3.8-4.99-5.69-7.49c-0.84-1.25-1.68-2.51-2.53-3.76
		c-1.13-1.67-1.9-3.48-2.3-5.46c-0.45-2.23,0.01-3.29,2.01-4.44C80.65,7.23,82.06,5.68,83.32,3.98z"></path>
	<path d="M141.28,9.52c-6.96,0.43-13.92,0.99-20.88,1.37c-6.68,0.37-13.31,0.03-19.95-0.51
		C95.88,10,91.31,9.66,86.74,9.3c-0.7-1.26-0.85-2.64-0.82-4.05c0.02-0.8,0.43-1.35,1.16-1.66c1.12-0.47,2.3-0.69,3.5-0.69
		c15.71-0.01,31.42-0.01,47.12,0c0.71,0,1.43,0.12,2.13,0.26c2.14,0.4,2.82,1.32,2.43,3.45C142.08,7.61,142.02,8.69,141.28,9.52z"></path>
</g>
<g onclick="select(this)" class="" id="gola-terciaria" fill="#ffffff">
	<path d="M108.97,37.22c3.42,0,6.85,0,10.27,0c-2.08,3.13-3.66,6.49-4.61,10.14c-0.19,0.74-0.6,1.51-0.06,2.29
		c-0.3,0-0.6,0-0.89,0c0.32-0.47,0.26-0.96,0.13-1.49c-0.88-3.62-2.26-7.03-4.37-10.12C109.26,37.78,109.12,37.49,108.97,37.22z"></path>
</g>
</svg>
