<!--?xml version="1.0" encoding="utf-8"?-->
<!-- Generator: Adobe Illustrator 23.1.0, SVG Export Plug-In . SVG Version: 6.00 Build 0)  -->
<svg version="1.1" id="Camada_1" xmlns="http://www.w3.org/2000/svg" xmlns:xlink="http://www.w3.org/1999/xlink" x="0px" y="0px" viewBox="0 0 234 419" enable-background="new 0 0 234 419" xml:space="preserve">
<g onclick="select(this)" class="" id="c-calcao-primaria" fill="#80b3a3">
	<path d="M201.45,410.06c-12.83,3.17-25.69,6.23-38.87,7.66c-3.49,0.38-6.99,0.72-10.51,0.88
		c-0.37,0.02-0.8-0.16-1.12,0.2c-3.2,0-6.4,0-9.6,0c-0.21-0.44-0.63-0.25-0.95-0.29c-2.39-0.3-4.73-0.74-6.91-1.84
		c-1.65-0.82-2.53-2.08-2.75-3.92c-0.17-1.51-0.01-3.04-0.15-4.54c-0.83-8.8-2.11-17.53-4.13-26.14c-1.32-5.6-1.75-11.37-3.34-16.92
		c-0.73-2.57-1.11-5.23-1.46-7.89c-0.73-5.55-1.17-11.13-1.69-16.7c-0.08-0.82,0.02-1.71-0.69-2.35c-0.31-0.28-0.56-0.78-1.07-0.62
		c-0.53,0.17-0.41,0.72-0.44,1.14c-1,15.1-3.65,29.98-5.82,44.92c-1.02,7-2.19,13.98-2.59,21.05c-0.14,2.47-0.34,4.94-0.42,7.41
		c-0.04,1.18-0.48,1.96-1.46,2.65c-2.62,1.84-5.54,2.78-8.64,3.34c-1.35,0.24-2.75,0.16-4.05,0.69c-4.24,0-8.48,0-12.72,0
		c-2.01-0.49-4.08-0.43-6.11-0.7c-10.33-1.34-20.56-3.24-30.7-5.6c-3.92-0.91-7.46-2.78-11.02-4.57c0.09-0.39,0.2-0.77,0.27-1.17
		c1.61-9.58,2.78-19.22,3.97-28.86c1.6-13.01,3.01-26.05,4.41-39.09c1.16-10.85,2.24-21.71,3.33-32.56
		c0.68-6.76,1.32-13.53,1.97-20.29c9.99,2.52,20.17,3.39,30.43,3.45c20.55,0.12,41.11-0.02,61.66-0.3
		c10.83-0.15,21.67-0.35,32.46-1.55c4.81-0.53,9.56-1.45,14.26-2.58c1.51,15.1,2.99,30.21,4.54,45.3
		c2.18,21.14,4.44,42.27,7.28,63.33C199.56,399.12,200.27,404.62,201.45,410.06z"></path>
</g>
<g onclick="select(this)" class="selected" id="c-calcao-detalhe-lateral" fill="#021c3b">
	<path d="M201.45,410.06c-1.18-5.43-1.89-10.94-2.63-16.44c-2.83-21.06-5.1-42.19-7.28-63.33
		c-1.56-15.1-3.03-30.2-4.54-45.3c1.38-0.5,2.83-0.8,4.28-1.51c0.06,3.97,1.31,7.58,1.97,11.31c0.45,2.56,0.18,5.17,0.62,7.75
		c1.67,9.76,2.42,19.67,4.27,29.39c1.58,8.28,2.01,16.64,2.76,24.98c0.47,5.13,1.11,10.24,1.97,15.32
		c0.62,3.62,0.76,7.32,1.39,10.93c0.98,5.6,0.84,11.3,1.92,16.89c0.37,1.91,0.5,3.93,0.69,5.9c0.13,1.36-0.42,2.21-1.6,2.76
		C204.05,409.28,202.79,409.76,201.45,410.06z"></path>
	<path d="M48.19,285.96c-0.66,6.76-1.29,13.53-1.97,20.29c-1.09,10.86-2.17,21.71-3.33,32.56
		c-1.39,13.04-2.8,26.07-4.41,39.09c-1.19,9.64-2.35,19.28-3.97,28.86c-0.07,0.39-0.18,0.78-0.27,1.17
		c-1.62-0.48-2.8-1.84-4.47-2.22c-0.35-0.08-0.23-0.46-0.25-0.72c-0.09-1.17,0.12-2.32,0.36-3.45c1.18-5.47,1.72-11.03,2.24-16.59
		c0.45-4.86,0.95-9.71,1.24-14.57c0.18-2.99-0.17-6,0-8.99c0.58-10.38,1.79-20.68,3.7-30.92c1.47-7.84,3.77-15.55,4.27-23.55
		c0.36-5.75,1.04-11.46,1.65-17.18c0.19-1.82,0.45-3.64,0.7-5.57C45.13,285.11,46.7,285.43,48.19,285.96z"></path>
</g>
</svg>
