<!--?xml version="1.0" encoding="utf-8"?-->
<!-- Generator: Adobe Illustrator 24.2.3, SVG Export Plug-In . SVG Version: 6.00 Build 0)  -->
<svg version="1.1" id="Camada_1" xmlns="http://www.w3.org/2000/svg" xmlns:xlink="http://www.w3.org/1999/xlink" x="0px" y="0px" viewBox="0 0 229 418" style="enable-background:new 0 0 229 418;" xml:space="preserve">
<style type="text/css">
	.st0{fill:#1F49C1;}
	.st1{fill:#FB0101;}
	.st2{fill:#F802E2;}
	.st3{fill:#00FC07;}
	.st4{fill:#617F4E;}
	.st5{fill:#C8F2FC;}
	.st6{fill:#D90102;}
</style>
<g onclick="select(this)" class="" id="gola-secundaria" fill="#005425">
	<path d="M116.9,49c-0.8,0.2-1.6,0.8-2.5,0.6c-0.2-0.8,0-1.6,0.2-2.3c0.9-3.6,2.6-6.9,4.5-10.1
		c4.1-4.3,8.1-8.6,12.2-12.8c3.1-3.1,5.7-6.6,7.9-10.4c0.8-1.4,1.8-2.7,2.1-4.4c0.8-1.3,1-2.7,1-4.1c0-1-0.5-1.7-1.4-2
		c-1.1-0.4-2.2-0.6-3.3-0.6c-15.7,0-31.3,0-47,0c-1.2,0-2.4,0.2-3.5,0.7c-0.7,0.3-1.2,0.8-1.2,1.6c0,1.4,0.1,2.9,0.8,4.2
		c0,0.6,0.3,1.1,0.6,1.6c2.4,4.4,5.1,8.7,8.6,12.4c4.4,4.6,8.9,9.1,13.2,13.9c2.2,3.3,3.9,6.9,4.8,10.8c0.1,0.6,0.2,1.1,0,1.7
		c-0.8,0.1-1.5-0.1-2.2-0.5c-0.1-0.1-0.2-0.2-0.3-0.2c0,0,0,0,0,0c-1-4.6-2.9-8.8-6.2-12.2c-2.7-2.9-5.4-5.8-8.2-8.6
		c-3.8-3.9-7.4-8-10.2-12.8c-2-3.3-3.5-6.8-3.5-10.8c0.4-2,2.3-3.5,4.8-3.8c1.3-0.2,2.6-0.3,3.9-0.3c14.8,0,29.5,0,44.3,0
		c1.7,0,3.4,0.1,5,0.5c1.5,0.4,2.7,1.2,3.3,2.6c0.8,2.8-0.1,5.5-1.2,8c-1.9,4.2-4.4,8.1-7.5,11.5c-4.1,4.5-8.4,8.9-12.6,13.3
		C120,40,117.9,44.2,116.9,49z"></path>
</g>
<g onclick="select(this)" class="" id="detalhe-punho" fill="#005425">
	<path d="M43.8,120.6c-1.4,1-3.1,1.2-4.8,1.5c-6.7,0.9-13.5,0.7-20.2,0.2c-5.1-0.4-10.1-1.3-15-2.7
		c-1.1-0.3-2.1-0.8-3.1-1.2c0-1.1,0-2.2,0-3.4c0.5-1,0.4-2.2,0.7-3.2c0.1-0.6,0.1-1.2,0.5-1.7c0.5,0.4,1.1,0.7,1.7,0.8
		c1.7,0.4,3.4,0.9,5.1,1.2c3.7,0.7,7.3,1.9,11.2,2c1.9,0.1,3.7,0.2,5.6,0.3c3.7,0.3,7.4,0.1,11.1,0.2c1.9,0,3.7-0.5,5.5-1.2
		c0.4-0.2,0.7-0.3,0.8,0.3C43.4,115.9,43.9,118.2,43.8,120.6z"></path>
	<path d="M185.1,120.3c-0.2-2.2,0.4-4.4,0.7-6.5c0.1-0.6,0.3-0.7,0.9-0.6c5.6,1.2,11.4,0.9,17.1,0.7
		c8.1-0.4,15.9-2.4,23.6-5c0.3-0.1,0.6-0.3,0.9-0.5c0.8,1.2,0.6,2.7,0.9,4c0.2,0.8,0.1,1.7,0.2,2.5c0.2,1.3-0.5,1.9-1.6,2.2
		c-5.8,1.9-11.6,3.3-17.6,4.3c-5.5,0.8-10.9,0.7-16.4,0.7c-2.5,0-4.9-0.3-7.3-0.9C186,121,185.5,120.8,185.1,120.3z"></path>
</g>
<g onclick="select(this)" class="" id="gola-terciaria" fill="#ffffff">
	<path d="M113.9,49.6c0.1-0.6,0.1-1.1,0-1.7c-0.9-3.9-2.6-7.5-4.8-10.8c3.4,0,6.7,0,10.1,0c-2,3.1-3.6,6.5-4.5,10.1
		c-0.2,0.8-0.5,1.5-0.2,2.3C114.2,49.6,114.1,49.6,113.9,49.6z"></path>
</g>
<path d="M111.4,48.9c0.2,0,0.3,0.1,0.3,0.2C111.6,49.1,111.4,49.2,111.4,48.9z"></path>
<g onclick="select(this)" class="" id="estampa-primaria" fill="#009045">
	<path d="M43.8,120.6c0-2.4-0.5-4.7-1-7c-0.1-0.5-0.4-0.4-0.8-0.3c-1.8,0.7-3.5,1.2-5.5,1.2c-3.7,0-7.4,0.1-11.1-0.2
		c-1.9-0.1-3.7-0.3-5.6-0.3c-3.8-0.1-7.4-1.3-11.2-2c-1.7-0.3-3.4-0.8-5.1-1.2c-0.6-0.2-1.2-0.4-1.7-0.8c1.8-9.5,2.7-19.1,4.2-28.6
		C7,76.3,7.3,71.1,8.4,66c1.8-8.2,4.5-16,9.6-22.8c2-2.7,4.3-5.2,7-7.4c1.4-1.1,2.5-2.7,4.1-3.5c3.6-1.9,7.3-3.7,11-5.3
		c9.9-4.1,19.9-8.1,29.3-13.4c2-1.1,4.1-2.1,5.6-4c0.9-1,2.1-1.8,3.7-1.4c-2,1.2-2.4,2.2-2,4.5c0.4,2.3,1.5,4.3,2.8,6.2
		c5.6,8.3,11.9,15.8,19.2,22.6c3.1,2.9,6.5,5.2,10.4,6.7c0.7,0.3,1.4,0.8,2.2,0.7l0,0c0,0.2,0.2,0.2,0.3,0.2
		c0.7,0.3,1.4,0.6,2.2,0.5c0.2,0,0.3,0,0.5,0c0.9,0.3,1.7-0.4,2.5-0.6c0.9-0.3,1.8-0.7,2.7-1c5.3-1.9,9.2-5.7,13.1-9.5
		c6-5.7,11-12.2,15.8-19c1.5-2.1,2.8-4.4,3.3-7c0.4-1.8-0.1-3.2-1.6-4.2c1.7,0,2.8,1,3.8,2.2c0.3,0.4,0.7,0.7,1.1,1
		c10,6.5,21.2,10.6,32.2,15.2c4,1.7,7.9,3.4,11.7,5.3c2.2,1.1,3.9,3,5.8,4.6c7.7,6.5,12.3,15,14.9,24.6c1.1,4,1.9,8,2.4,12.1
		c0.6,5.6,2.1,10.9,3.2,16.3c1.3,6.2,2.1,12.4,3.1,18.7c-0.3,0.2-0.6,0.4-0.9,0.5c-7.6,2.6-15.5,4.6-23.6,5
		c-5.7,0.3-11.4,0.5-17.1-0.7c-0.6-0.1-0.8,0-0.9,0.6c-0.4,2.2-1,4.3-0.7,6.5c-0.4,0.8-0.3,1.7-0.4,2.6c-1,8.4-1.7,16.8-1.7,25.2
		c0,2.2,0.1,4.4,0.5,6.6c0.4,1.9,0,3.8-0.2,5.7c-0.2,2.1-0.2,4.2-0.1,6.3c0.1,2.2-0.1,4.3-0.2,6.5c-0.1,2.8-0.1,5.7,0.1,8.5
		c0.1,1.7,0.1,3.4-0.1,5c-0.3,3.1,0.2,6.1,0.9,9.1c1.6,7.2,1.4,14.5,0.3,21.8c-0.3,2.1-0.4,4.2,0.3,6.4c1.8,5.4,1.8,11,0.9,16.6
		c-0.2,1.5-0.2,2.9,0.1,4.4c0.9,3.8,0.4,7.6,0.6,11.5c0.3,5.9,0.7,11.9,1.4,17.8c0.3,2,0.2,4.1,0.3,6.1c0,1.8-0.3,2.3-2.1,2.9
		c-3,0.9-6.1,1.2-9.2,1.5c-7.7,0.8-15.4,0.9-23.1,1c-11.2,0.2-22.5,0.7-33.7,0.8c-12.5,0.2-24.9-0.8-37.4-0.8
		c-8.4,0-16.8-0.1-25.2-0.7c-4.1-0.3-8.3-0.8-12.4-1.7c-0.2,0-0.4-0.1-0.6-0.1c-3.2-0.8-3.6-1.2-3.4-4.5c0.5-7.8,1-15.5,1.6-23.3
		c0.1-2,0.3-4.1,0.2-6.1c0-1.8,0-3.6,0.4-5.4c0.4-2.3,0.5-4.5,0.1-6.8c-0.3-1.8-0.3-3.7,0.1-5.5c0.7-2.7,0.4-5.5,0.2-8.2
		c-0.3-3.5-0.7-7-0.6-10.5c0.2-4.3,1.2-8.4,2.6-12.4c0.4-1.1,0.7-2.1,0.5-3.3c-0.2-1.2-0.2-2.5,0.1-3.7c0.3-1.6,0.2-3.2,0.1-4.9
		c-0.2-3.3-0.2-6.6-0.2-9.9c-0.1-12.9,0-25.9-0.1-38.8c0-5.1-1-10.2-1.5-15.3C44.2,123.3,44,121.9,43.8,120.6z"></path>
	<path d="M119.2,37.2c-3.4,0-6.7,0-10.1,0c-4.2-4.8-8.8-9.3-13.2-13.9c-3.5-3.7-6.2-7.9-8.6-12.4c-0.3-0.5-0.5-1-0.6-1.6
		c3.1,0.3,6.1,0.6,9.2,0.8c8.4,0.6,16.7,1.4,25.1,0.8c6.8-0.5,13.5-0.9,20.3-1.4c-0.3,1.6-1.3,3-2.1,4.4c-2.2,3.8-4.8,7.2-7.9,10.4
		C127.3,28.6,123.2,32.9,119.2,37.2z"></path>
</g>
<g onclick="select(this)" class="" id="gola-primaria" fill="#009045">
	<path d="M116.9,49c1-4.8,3.1-9,6.5-12.6c4.2-4.5,8.4-8.8,12.6-13.3c3.1-3.4,5.6-7.3,7.5-11.5c1.2-2.5,2-5.1,1.2-8
		c1,0.6,1.6,1.6,2.4,2.4c1,0.9,1.8,1.9,3,2.4c1.6,1.1,2,2.4,1.6,4.2c-0.5,2.6-1.8,4.9-3.3,7c-4.7,6.7-9.8,13.2-15.8,19
		c-3.9,3.8-7.9,7.5-13.1,9.5C118.7,48.4,117.8,48.7,116.9,49z"></path>
	<path d="M83.3,4.5c0,4,1.6,7.4,3.5,10.8c2.8,4.8,6.4,8.9,10.2,12.8c2.8,2.8,5.5,5.7,8.2,8.6c3.2,3.5,5.2,7.6,6.2,12.2
		c-0.8,0.1-1.5-0.4-2.2-0.7c-3.9-1.5-7.3-3.8-10.4-6.7c-7.3-6.8-13.6-14.3-19.2-22.6c-1.3-1.9-2.3-3.9-2.8-6.2c-0.4-2.2,0-3.3,2-4.5
		c1.2-0.5,2-1.6,3-2.5C82.3,5.4,82.6,4.8,83.3,4.5z"></path>
	<path d="M141.3,9.6c-6.8,0.5-13.5,0.9-20.3,1.4c-8.4,0.6-16.7-0.2-25.1-0.8c-3.1-0.2-6.1-0.5-9.2-0.8
		C86,8,85.9,6.6,85.9,5.2c0-0.8,0.5-1.3,1.2-1.6c1.1-0.5,2.3-0.7,3.5-0.7c15.7,0,31.3,0,47,0c1.1,0,2.2,0.2,3.3,0.6
		c0.9,0.3,1.4,1,1.4,2C142.3,6.9,142.1,8.3,141.3,9.6z"></path>
</g>
<g onclick="select(this)" class="" id="estampa-secundaria" fill="#005425">
	<path d="M104.4,286.3c-1.3,0-2.6,0-3.9-0.1c-3.2-6.4-6.4-12.9-9.7-19.5c-3.2,6.6-6.3,12.9-9.4,19.1c-1.5,0-3,0-4.4,0
		c-3-6.3-6.2-12.6-9.4-19c-0.5,1-0.9,1.8-1.3,2.6c-2.5,5.2-5.3,10.4-7.7,15.7c-1.8,0.2-3.7,0-5.5-0.4c-2.8-6-5.8-11.8-8.9-18
		c-0.9,1.8-1.6,3.3-2.4,4.8c-0.2,0.3-0.1,0.9-0.7,0.8c0.4-3.3,0.5-6.6,0.7-9.9c0.6-0.1,0.6,0.5,0.7,0.8c0.6,1,1.1,2.1,1.7,3.3
		c0.3-0.6,0.5-1,0.7-1.4c3.4-6.8,6.7-13.7,10.1-20.5c0.6-1.1,0.5-2,0-3.1c-3-6.1-6-12.2-9-18.3c-0.6-1.1-1.2-2.3-1.8-3.5
		c-0.5,0.6-0.5,1.3-1.1,1.6c-0.1-1.4-0.3-2.7-0.4-4c1,0.2,0.7,1.5,1.5,1.9c0.1-0.2,0.2-0.3,0.3-0.5c3.3-6.8,6.6-13.6,10.1-20.3
		c0.9-1.7,0.9-3.1,0-4.9c-3-5.9-5.8-11.9-8.9-17.8c0.1-2.4,0.2-4.8,0.2-7.2c3.3-6.3,6.3-12.6,9.4-19c0.2-0.5,0.2-0.9,0-1.4
		c-3.6-7.4-7.2-14.9-11-22.2c0-0.3-0.1-0.6-0.1-0.9c3.7-7.4,7.3-14.8,11-22.2c0.3-0.7,0.4-1.3,0-2c-3.3-6.6-6.5-13.3-9.8-19.9
		c-0.4-0.8-0.8-1.7-1.4-2.6c-1.9,3.8-3.7,7.4-5.6,11.2c-1.6-3.8-2.7-7.4-4.4-10.8c-0.6-1.3-0.8-2.7-0.9-4.1c-0.2-2.8-0.3-5.5,0-8.3
		c0.2-2.4-0.5-4.8-0.4-7.2c0.1-1.2-0.1-2.4-0.1-3.6c0.5,0.5,0.8,1,1,1.5c3.4,6.9,6.7,13.8,10.2,20.6c0.1,0.1,0.1,0.1,0.2,0.2
		c0-0.1,0.1-0.1,0.1-0.2c3.8-7.4,7.4-14.9,11.1-22.3c0.3-0.6,0.2-1-0.1-1.6c-1.3-2.6-2.5-5.2-3.8-7.8c-2.4-4.9-4.8-9.7-7.3-14.8
		c-3.8,7.8-7.6,15.4-11.4,23c0.1-1.7-0.8-3.2-0.9-4.9c-0.1-2.8-0.7-5.7-1.4-8.5c-0.7-2.7-1.6-5.4-1.4-8.2c0.1-0.1,0.2-0.3,0.3-0.3
		c4.2-1.8,8.1-4.1,12.4-5.6c0.7,1.4,1.5,2.8,2.3,4.4c1.2-2.4,2.2-4.5,3.2-6.6c3.6-1.6,7.2-3.2,10.8-4.8c1-0.4,2-0.9,2.9-1.3
		c2.1,4.1,4.1,8.3,6.3,12.7c1.2-2.4,2.3-4.6,3.4-6.8c1.9-3.9,3.8-7.9,5.8-11.8c0.6,3.3,2.3,6,4.2,8.6c3,4,5.9,8.1,9.1,11.9
		c-0.1,0.1-0.1,0.1-0.1,0.2c-3.4,7-6.8,13.9-10.3,20.8c-0.3,0.6-0.1,1.1,0.1,1.7c1.8,3.7,3.5,7.3,5.3,11c1.8,3.8,3.7,7.5,5.7,11.3
		c0.2-0.3,0.2-0.4,0.3-0.5c3.6-7.3,7.2-14.6,10.8-21.9c0.3-0.6,0.3-1.1,0-1.8c-2.6-5.2-5.1-10.3-7.6-15.5c-0.2-0.4-0.6-0.7-0.4-1.2
		c0.2,0.1,0.4,0.2,0.5,0.3c3.6,3.6,7.1,7.3,11.7,9.8c-1,2.1-2,4.3-3.1,6.4c-0.4,0.8-0.4,1.4,0,2.2c3.5,7.1,7,14.2,10.5,21.3
		c0.1,0.2,0.1,0.6,0.5,0.7c0.1-0.1,0.2-0.3,0.3-0.4c3.6-7.3,7.2-14.7,10.9-22c0.3-0.5,0.2-0.9-0.1-1.3c-1.1-2.2-2.2-4.4-3.3-6.7
		c3-1.7,5.8-3.6,8.2-6.2c1.2-1.2,2.5-2.3,3.8-3.5c0.1,0.4-0.1,0.7-0.3,1c-2.4,4.8-4.7,9.7-7.1,14.5c-0.5,1.1-0.6,1.9,0,3
		c3.5,7,6.9,14,10.4,21.1c0.4,0.8,0.3,1.3,0,2.1c-3.5,7.1-7,14.3-10.6,21.4c-0.4,0.8-0.4,1.4,0,2.1c3.6,7.2,7.1,14.4,10.7,21.6
		c0.4,0.8,0.4,1.3,0,2.1c-3.6,7.2-7.1,14.3-10.6,21.5c-0.4,0.7-0.3,1.3,0,2c3.6,7.2,7.1,14.3,10.6,21.5c0.2,0.5,0.5,0.9,0.2,1.6
		c-1,2-2,4-3,6c-2.6,5.3-5.2,10.6-7.8,15.9c-0.4,0.8-0.4,1.5,0,2.4c3.6,7.2,7.1,14.3,10.6,21.5c0.3,0.6,0.3,1.1,0,1.6
		c-3.6,7.2-7.1,14.4-10.7,21.6c-0.4,0.8-0.4,1.4,0,2.2c3.6,7.2,7.1,14.3,10.6,21.5c0.3,0.6,0.4,1.1,0,1.8c-3.2,6.3-6.3,12.7-9.4,19
		c-1.3,0-2.5,0.2-3.8,0c-3.1-6.6-6.4-13.1-9.7-19.8C110.7,273.4,107.5,279.9,104.4,286.3z M102.5,101.5c3.9,8,7.6,15.7,11.6,23.5
		c0.3-0.6,0.5-0.9,0.7-1.3c3.4-6.9,6.8-13.8,10.2-20.6c0.5-1,0.5-1.8,0-2.8c-3.5-7-6.9-14-10.3-21c-0.2-0.3-0.2-0.8-0.8-0.9
		c-3.8,7.7-7.6,15.4-11.5,23.2c-3.9-7.9-7.6-15.7-11.6-23.3c-0.2,0.1-0.3,0.2-0.3,0.2c-3.6,7.3-7.2,14.7-10.9,22
		c-0.4,0.8-0.3,1.3,0.1,2c3.6,7.2,7.1,14.3,10.6,21.5c0.1,0.2,0.1,0.6,0.6,0.6C94.9,117.2,98.6,109.5,102.5,101.5z M67.6,78.2
		c-0.2,0.3-0.3,0.3-0.3,0.4c-3.7,7.4-7.3,14.8-11,22.2c-0.3,0.6-0.2,1,0.1,1.6c2.7,5.5,5.4,11,8.1,16.5c1,2,2,4,3,6
		c0.1-0.1,0.2-0.1,0.3-0.2c3.7-7.5,7.4-15,11.1-22.4c0.2-0.5,0.2-0.9-0.1-1.3c-1-2-1.9-4-2.9-6C73.1,89.4,70.4,83.9,67.6,78.2z
		 M67.6,172.6c-0.2,0.3-0.4,0.5-0.4,0.7c-3.6,7.3-7.2,14.6-10.8,21.8c-0.3,0.7-0.3,1.3,0,1.9c2.7,5.5,5.4,11,8.1,16.4
		c0.9,1.9,1.9,3.8,3,5.9c0.2-0.3,0.3-0.5,0.4-0.6c3.7-7.4,7.3-14.8,10.9-22.1c0.3-0.6,0.1-1-0.1-1.4c-1.7-3.4-3.3-6.9-5-10.3
		C71.7,180.7,69.7,176.8,67.6,172.6z M67.6,219.8c-0.2,0.2-0.3,0.3-0.4,0.5c-3.6,7.4-7.3,14.8-10.9,22.1c-0.3,0.6-0.2,1.1,0.1,1.6
		c3.3,6.6,6.5,13.3,9.8,19.9c0.4,0.8,0.8,1.6,1.3,2.5c0.3-0.5,0.5-0.9,0.7-1.2c3.4-6.9,6.8-13.8,10.3-20.7c0.5-1,0.5-1.8,0-2.8
		c-2.3-4.5-4.5-9-6.7-13.6C70.4,225.3,69,222.6,67.6,219.8z M67.6,31.2c-0.2,0.3-0.3,0.3-0.3,0.4C63.6,39,60,46.4,56.3,53.8
		c-0.3,0.6-0.2,1.1,0.1,1.7c3.5,7.2,7.1,14.3,10.6,21.5c0.1,0.3,0.1,0.6,0.6,0.7c3.8-7.5,7.5-15.1,11.2-22.7
		c0.2-0.5,0.1-0.8-0.1-1.2c-1-2-1.9-4-2.9-6C73.1,42.2,70.4,36.8,67.6,31.2z M113.9,219.3c0.2-0.3,0.3-0.4,0.4-0.6
		c3.6-7.4,7.3-14.8,10.9-22.1c0.3-0.5,0.2-0.9,0-1.5c-3.6-7.2-7.1-14.4-10.7-21.6c-0.1-0.3-0.2-0.6-0.5-0.7c-0.1,0-0.1,0-0.1,0.1
		c-3.7,7.5-7.4,15-11.1,22.6c-0.2,0.4-0.1,0.7,0.1,1.1C106.5,204.1,110.2,211.6,113.9,219.3z M90.9,172.7c-0.2,0.1-0.3,0.2-0.3,0.2
		c-3.6,7.4-7.3,14.8-10.9,22.1c-0.3,0.7-0.3,1.2,0,1.9c3.5,7.1,7,14.1,10.4,21.2c0.2,0.3,0.2,0.8,0.7,1c0.1-0.1,0.2-0.3,0.3-0.4
		c3.6-7.3,7.2-14.6,10.8-21.8c0.4-0.8,0.3-1.5-0.1-2.2c-2.9-5.8-5.7-11.5-8.5-17.3C92.5,175.8,91.7,174.3,90.9,172.7z M67.6,125.4
		c-3.8,7.7-7.4,15.2-11.1,22.6c-0.3,0.6-0.3,1.1,0,1.7c3.1,6.3,6.2,12.6,9.3,18.9c0.6,1.1,1.2,2.3,1.9,3.6
		c3.8-7.8,7.5-15.3,11.2-22.8c0.2-0.5,0.2-0.9-0.1-1.4c-1.5-3-2.9-6-4.3-8.9C72.2,134.6,69.9,130.1,67.6,125.4z M114.1,172.1
		c0.3-0.6,0.5-1,0.7-1.4c3.4-6.8,6.7-13.7,10.1-20.5c0.5-1,0.5-1.8,0-2.8c-3.5-6.9-6.9-13.9-10.3-20.8c-0.2-0.3-0.2-0.7-0.7-0.8
		c-0.1,0.1-0.2,0.2-0.2,0.4c-3.6,7.3-7.2,14.6-10.8,21.8c-0.3,0.6-0.3,1.2,0,1.8c3.5,7.1,7,14.3,10.6,21.4
		C113.7,171.4,113.8,171.6,114.1,172.1z M114,266.4c0.3-0.6,0.5-1,0.7-1.4c3.4-6.9,6.8-13.8,10.3-20.7c0.4-0.9,0.4-1.6,0-2.4
		c-3.5-7-6.9-14-10.3-20.9c-0.2-0.3-0.2-0.8-0.7-0.9c-0.1,0.1-0.2,0.2-0.2,0.3c-3.5,7.1-7,14.2-10.5,21.3c-0.6,1.1-0.6,2,0,3.1
		c2.9,5.8,5.8,11.7,8.7,17.5C112.6,263.5,113.2,264.8,114,266.4z M90.8,171.9c0.3-0.1,0.4-0.4,0.5-0.6c3.6-7.2,7.1-14.5,10.7-21.7
		c0.3-0.6,0.2-1-0.1-1.6c-3.5-7-6.9-14-10.4-21.1c-0.2-0.4-0.3-0.8-0.7-1.2c-0.1,0.2-0.2,0.3-0.3,0.5c-3.6,7.3-7.3,14.6-10.8,21.9
		c-0.3,0.5-0.3,0.9,0,1.4c3.5,7.1,7,14.1,10.4,21.2C90.3,171.1,90.4,171.6,90.8,171.9z M90.8,219.7c-0.2,0.4-0.3,0.5-0.4,0.6
		c-3.6,7.3-7.2,14.6-10.8,21.8c-0.3,0.7-0.3,1.2,0,1.9c3.5,7.1,7,14.2,10.5,21.3c0.2,0.3,0.2,0.7,0.6,0.8c0.1-0.1,0.1-0.1,0.2-0.2
		c3.6-7.1,7.1-14.3,10.7-21.5c0.5-1.1,0.6-1.9-0.1-3c-0.7-1-1.1-2.2-1.7-3.3C96.9,232.1,93.9,226,90.8,219.7z"></path>
	<path d="M183.1,169.7c-0.1,2.4-0.2,4.8-0.2,7.2c-3.4,6.3-6.4,12.9-9.6,19.3c-0.3,0.5,0,0.9,0.2,1.4
		c1.2,2.4,2.4,4.9,3.6,7.3c2.3,4.7,4.5,9.3,7,13.9c-0.1,1.2-0.2,2.3-0.3,3.5c-0.1,0.1-0.2,0.2-0.2,0.3c-3.4,6.8-6.7,13.7-10.1,20.5
		c-0.3,0.6-0.2,1.1,0.1,1.7c3.5,7.1,7,14.3,10.6,21.4c0.1,0.3,0.2,0.6,0.6,0.8c0.4-0.8,0.8-1.6,1.2-2.4c0.2-0.3,0.1-0.9,0.8-0.7
		c0.2,2.8,0.4,5.5,0.6,8.3c-0.6,0.1-0.5-0.4-0.6-0.7c-0.7-1.3-1.3-2.5-2.1-4c-3,6-5.9,11.7-8.6,17.5c-1.4,0.4-2.8,0.4-4.2,0.5
		c-0.5,0-1.1,0.6-1.6,0.1c0-0.1,0-0.2-0.1-0.3c-2.8-5.7-5.7-11.4-8.5-17.1c-0.1-0.2-0.2-0.3-0.4-0.2c-3,6-6.1,12-8.9,18.1
		c-1.6,0.4-3.3,0.2-5,0.2c-3-6.1-6-12.2-9.1-18.3c-0.3-0.5-0.1-0.8,0.1-1.2c3.6-7.3,7.2-14.6,10.8-21.9c0.3-0.6,0.3-1.1,0-1.8
		c-3.6-7.2-7.1-14.5-10.7-21.7c-0.3-0.7-0.4-1.2,0-1.9c3.6-7.2,7.1-14.4,10.7-21.6c0.4-0.9,0.4-1.5,0-2.3
		c-3.6-7.2-7.1-14.4-10.7-21.6c-0.3-0.6-0.3-1,0-1.5c3.6-7.3,7.2-14.6,10.8-21.8c0.3-0.6,0.3-1.1,0-1.8c-3.6-7.3-7.2-14.6-10.8-21.8
		c-0.3-0.6-0.3-1.1,0-1.7c3.6-7.3,7.2-14.6,10.8-21.8c0.3-0.7,0.3-1.2,0-1.9c-3.6-7.2-7.1-14.5-10.7-21.7c-0.4-0.8-0.4-1.3,0-2.1
		c3.6-7.2,7.1-14.4,10.7-21.6c0.3-0.6,0.3-1.1,0-1.8c-3.6-7.2-7.1-14.4-10.7-21.6c2.2-2.7,4.4-5.4,6.4-8.2c2.7-3.8,5.9-7.4,7-12.2
		c3.1,6.3,6.2,12.7,9.5,19.3c2.3-4.5,4.4-8.7,6.5-12.9c3.9,1.7,7.9,3.4,11.8,5.1c0.4,0.2,0.7,0.3,1.1,0.4c0.1,0,0.2,0.1,0.3,0.1
		c0,0.1,0.1,0.1,0.2,0.1c1.1,2.3,2.3,4.5,3.5,7c0.9-1.7,1.6-3.2,2.3-4.6c3,1.1,5.9,2.4,8.8,3.9c1.2,0.6,2.7,0.8,3.7,1.8
		c-0.1,0.8,0,1.5-0.2,2.3c-1.1,3.9-2.1,7.8-2.6,11.8c-0.3,2-0.9,3.9-0.4,5.9c0.1,0.4-0.1,1-0.6,1.4c-3.7-7.4-7.3-14.8-11-22.4
		c-0.4,0.9-0.8,1.5-1.1,2.2c-3.3,6.6-6.6,13.3-9.8,19.9c-0.4,0.7-0.8,1.4-0.3,2.3c3.4,6.8,6.8,13.7,10.1,20.5c0.3,0.6,0.6,1.2,1,2
		c3.6-7.4,7.2-14.5,10.7-21.7c0.2,0.4,0.2,0.8,0.2,1.2c-0.1,3-0.3,6.1-0.2,9.1c0.2,8.1-1.1,15.8-5,23c-1.9-3.7-3.7-7.4-5.6-11.3
		c-0.2,0.3-0.3,0.4-0.4,0.5c-3.6,7.3-7.3,14.7-10.9,22c-0.3,0.6-0.3,1.2,0.1,1.8c2,4.1,4,8.1,5.9,12.2c1.6,3.4,3.3,6.7,5,10.1
		c-0.1,0.5-0.1,0.9-0.2,1.4c-3.7,7.2-7.3,14.6-10.8,21.9c-0.3,0.6-0.1,1.1,0.1,1.6C176.8,156.8,179.9,163.3,183.1,169.7z
		 M161.3,125.6c0.2-0.2,0.3-0.2,0.3-0.3c3.7-7.4,7.4-14.9,11.1-22.3c0.2-0.5,0.1-0.9-0.1-1.4c-3.7-7.4-7.4-14.9-11-22.4
		c-0.1-0.1-0.1-0.2-0.1-0.3c-0.2,0.1-0.3,0.2-0.3,0.2c-3.7,7.5-7.3,14.9-11,22.4c-0.3,0.5-0.2,0.9,0,1.4c1.6,3.2,3.1,6.4,4.7,9.6
		C156.9,116.9,159.1,121.2,161.3,125.6z M161.4,173.2c-0.1,0.2-0.2,0.3-0.3,0.4c-3.7,7.5-7.4,15-11.1,22.5c-0.2,0.5-0.1,0.8,0.1,1.2
		c1.8,3.7,3.6,7.4,5.4,11.1c1.9,3.8,3.8,7.6,5.8,11.7c0.1-0.3,0.2-0.4,0.2-0.5c3.7-7.4,7.3-14.9,11-22.4c0.3-0.6,0.1-1.1-0.1-1.6
		c-2.7-5.6-5.4-11.1-8.2-16.7C163.4,177.1,162.4,175.2,161.4,173.2z M161.3,220.3c-0.3,0.5-0.4,0.7-0.5,1c-3.5,7.1-7,14.2-10.5,21.3
		c-0.4,0.9-0.4,1.6,0,2.4c3.2,6.4,6.3,12.7,9.4,19.1c0.5,1,0.9,1.9,1.5,3c0.2-0.3,0.3-0.4,0.4-0.6c3.6-7.4,7.2-14.7,10.9-22
		c0.3-0.6,0.2-1,0-1.6c-1.1-2.2-2.1-4.4-3.2-6.6C166.7,231.1,164.1,225.8,161.3,220.3z M161.3,31.7c-3.9,7.8-7.5,15.4-11.3,22.9
		c-0.2,0.5-0.2,0.9,0,1.3c2.9,5.8,5.7,11.5,8.5,17.3c0.9,1.7,1.8,3.5,2.7,5.4c0.5-1.1,1-2,1.4-2.9c3.1-6.3,6.2-12.5,9.3-18.8
		c0.6-1.2,0.6-2.2,0-3.5c-2.6-5.2-5.1-10.4-7.7-15.6C163.4,35.9,162.4,33.9,161.3,31.7z M161.4,126.2c-0.2,0.3-0.3,0.4-0.4,0.6
		c-3.6,7.3-7.2,14.6-10.8,21.9c-0.3,0.6-0.3,1.1,0,1.7c3.6,7.2,7.1,14.4,10.7,21.6c0.1,0.2,0.1,0.6,0.6,0.6c0.1-0.3,0.3-0.5,0.5-0.8
		c3.5-7.2,7.1-14.3,10.6-21.5c0.3-0.7,0.2-1.2-0.1-1.8c-2.1-4.4-4.3-8.8-6.4-13.1C164.5,132.3,163,129.3,161.4,126.2z"></path>
</g>
<path d="M181,24.4c-0.1,0-0.2-0.1-0.3-0.1C180.8,24.3,180.9,24.4,181,24.4z"></path>
<path d="M44.1,77.5c0.1,0,0.2,0,0.3,0c0,0.1-0.1,0.1-0.1,0.2C44.2,77.6,44.2,77.6,44.1,77.5z"></path>
<path d="M133.9,37.5c0-0.2,0.1-0.3,0.2-0.3C134.1,37.3,134.1,37.5,133.9,37.5z"></path>
<path d="M111.7,49.2c-0.2,0-0.3,0-0.3-0.2C111.5,48.9,111.6,49,111.7,49.2z"></path>
<path d="M93.9,36.9c-0.3,0-0.3-0.2-0.3-0.5C93.8,36.5,93.9,36.7,93.9,36.9z"></path>
</svg>
