<!--?xml version="1.0" encoding="utf-8"?-->
<!-- Generator: Adobe Illustrator 24.2.3, SVG Export Plug-In . SVG Version: 6.00 Build 0)  -->
<svg version="1.1" id="Camada_1" xmlns="http://www.w3.org/2000/svg" xmlns:xlink="http://www.w3.org/1999/xlink" x="0px" y="0px" viewBox="0 0 229 418" enable-background="new 0 0 229 418" xml:space="preserve">
<g onclick="select(this)" class="" id="gola-secundaria" fill="#bf0811">
	<path d="M116.381897,49.0477715c-0.833313,0.1792374-1.5540314,0.8447723-2.4916306,0.5762138
		c-0.2429886-0.8100166,0.0134811-1.5773506,0.2099228-2.3466339c0.9254532-3.6241417,2.5626907-6.9285126,4.5458755-10.0765305
		c4.071579-4.2816811,8.1088333-8.5966644,12.2260513-12.8340473c3.0537415-3.1428699,5.6721802-6.599184,7.8688354-10.3761835
		c0.8143311-1.4001684,1.7721558-2.7472076,2.0830841-4.3920069c0.7533875-1.2694387,1.0100403-2.6635509,1.0385284-4.116147
		c0.0198059-1.0104756-0.4715271-1.6589177-1.4058533-1.9923222c-1.0610199-0.3786092-2.1595917-0.5912797-3.2826538-0.5918701
		c-15.6694641-0.0082369-31.3389282-0.00945-47.0083847-0.0003197c-1.2024078,0.0007005-2.3825226,0.2080977-3.5079956,0.6614058
		c-0.7330017,0.2952342-1.1955872,0.8186088-1.2209396,1.6196523c-0.0457764,1.4464493,0.1008453,2.8654075,0.8091202,4.1703057
		c0.0213013,0.5789623,0.300766,1.0720949,0.5620575,1.5584946c2.38797,4.4450502,5.0850906,8.6672239,8.5695572,12.3653116
		c4.3810806,4.649662,8.9325867,9.1387711,13.1583099,13.9347115c2.2260818,3.3094826,3.8987961,6.8636017,4.8087921,10.7629395
		c0.1308823,0.5608521,0.1703644,1.0992241,0.0435715,1.6546783c-0.7916565,0.120388-1.4984818-0.1469536-2.1913986-0.4788055
		c-0.0642853-0.1402206-0.1510849-0.2473221-0.3273773-0.2237511c0,0,0.0195007,0.0175781,0.0195007,0.0175819
		c-1.0149002-4.6100464-2.9440384-8.7701225-6.1842422-12.2461243c-2.6970062-2.8932724-5.4329224-5.751564-8.1998749-8.5781593
		c-3.83992-3.9226913-7.426918-8.0305252-10.2087784-12.8014402c-1.953331-3.3499784-3.538353-6.7904634-3.5216599-10.769886
		c0.3887329-1.9640388,2.3138046-3.5002825,4.8151779-3.8288832c1.3080978-0.1718415,2.6194916-0.2685983,3.9428711-0.2676472
		c14.7557983,0.0106048,29.5116043,0.0095289,44.2674103,0.0041322c1.6841431-0.000616,3.3609924,0.0772934,4.9909973,0.5180932
		c1.4780121,0.3996955,2.6998138,1.1730733,3.345108,2.6483269c0.7675629,2.8465242-0.0760956,5.4809065-1.2373657,7.9960232
		c-1.9331055,4.1867867-4.3998566,8.0750628-7.5047913,11.4869471c-4.1099091,4.5162182-8.3819962,8.8846245-12.5557861,13.343298
		C119.4875946,40.0241508,117.3455429,44.2388077,116.381897,49.0477715z"></path>
</g>
<g onclick="select(this)" class="" id="detalhe-punho" fill="#082890">
	<path d="M43.3154755,120.5660324c-1.4355507,0.9719238-3.1036453,1.2496643-4.7561264,1.4678955
		c-6.7249794,0.8881226-13.4724941,0.7420044-20.2071953,0.1770859c-5.0925493-0.4271774-10.1221333-1.2906342-15.0371294-2.7495346
		C2.2495277,119.1452103,1.2605952,118.665741,0.24,118.2521973c0-1.1193542,0-2.2387161,0-3.3580704
		c0.5486878-1.013916,0.4496389-2.1613922,0.6660056-3.2437286c0.1129808-0.5651779,0.0608322-1.1747894,0.4776655-1.6509933
		c0.5223107,0.3816452,1.097532,0.671875,1.7198904,0.8264084c1.7042122,0.4231491,3.402638,0.891655,5.1287928,1.1999283
		c3.7223806,0.6647568,7.3449764,1.8807755,11.1703939,1.9861069c1.8743458,0.0515976,3.7485161,0.1686249,5.6183205,0.3134079
		c3.6989613,0.2864227,7.4015083,0.1185532,11.1025429,0.1539001c1.9179955,0.0183182,3.7075233-0.4855804,5.4632797-1.1675491
		c0.3865089-0.150116,0.6609917-0.2605591,0.7769508,0.2810745
		C42.8564644,115.8936157,43.3439445,118.1943893,43.3154755,120.5660324z"></path>
	<path d="M184.629776,120.3339005c-0.2430878-2.2250748,0.3524628-4.353035,0.7284698-6.5097427
		c0.1014557-0.5819016,0.306015-0.7070084,0.8614807-0.5922012c5.6474152,1.1671143,11.3917694,0.9484406,17.0656738,0.6848907
		c8.0842285-0.3754807,15.92099-2.3513718,23.569519-5.0004501c0.3325653-0.1151886,0.6316833-0.326828,0.9463959-0.4935226
		c0.846756,1.1987991,0.5564423,2.6714325,0.9425964,3.9882355c0.2302704,0.7852707,0.0896912,1.6713486,0.2314148,2.4921799
		c0.2250977,1.3037643-0.4503174,1.8661575-1.5581207,2.2358398c-5.7537537,1.920105-11.6115112,3.3484344-17.6209106,4.2630234
		c-5.4544983,0.8301239-10.9163971,0.6914978-16.3850403,0.6551743c-2.4737091-0.0164337-4.9351349-0.3196335-7.3445587-0.9341354
		C185.5209961,120.9840088,184.999527,120.7955399,184.629776,120.3339005z"></path>
</g>
<g onclick="select(this)" class="" id="gola-terciaria" fill="#ffffff">
	<path d="M113.3881454,49.6254234c0.1267929-0.5554543,0.0873108-1.0938263-0.0435715-1.6546783
		c-0.909996-3.8993378-2.5827103-7.4534569-4.8089294-10.7629204c3.3700485-0.0023193,6.740242-0.0046616,10.1104202-0.0070076
		c-1.9831848,3.1480217-3.6204224,6.4523926-4.5458755,10.0765343c-0.1964417,0.7692833-0.4529114,1.5366173-0.2099228,2.3466339
		C113.7232819,49.6243935,113.5557098,49.6249084,113.3881454,49.6254234z"></path>
</g>
<path d="M110.8693695,48.9228668c0.1762924-0.023571,0.263092,0.0835304,0.3273773,0.2237511
	C111.0420837,49.1388245,110.8634338,49.1658516,110.8693695,48.9228668z"></path>
<g onclick="select(this)" class="" id="estampa-primaria" fill="#bf0811">
	<path d="M43.3154755,120.5660324c0.0284691-2.3716431-0.4590111-4.6724167-0.9516335-6.9733505
		c-0.1159592-0.5416336-0.3904419-0.4311905-0.7769508-0.2810745c-1.7557564,0.6819687-3.5452843,1.1858673-5.4632797,1.1675491
		c-3.7010345-0.035347-7.4035816,0.1325226-11.1025429-0.1539001c-1.8698044-0.144783-3.7439747-0.2618103-5.6183205-0.3134079
		c-3.8254175-0.1053314-7.4480133-1.3213501-11.1703939-1.9861069c-1.7261548-0.3082733-3.4245806-0.7767792-5.1287928-1.1999283
		c-0.6223583-0.1545334-1.1975796-0.4447632-1.7198904-0.8264084c1.7932036-9.4621811,2.67781-19.0589294,4.2438087-28.5559235
		c0.8441892-5.1195831,1.1583543-10.316803,2.2550154-15.4061127c1.7680922-8.2052307,4.5233822-15.9794159,9.6139402-22.7770844
		c2.0456562-2.7316666,4.3404846-5.240078,7.0205536-7.3503761c1.4273224-1.1238823,2.477396-2.6746292,4.1114101-3.5436478
		c3.6025047-1.9159126,7.2584648-3.7254333,11.0307045-5.28339c9.9449806-4.1073265,19.921032-8.1443062,29.3457184-13.3891525
		c2.0102844-1.118721,4.0503998-2.1454039,5.6226578-3.9533529c0.8873672-1.0203838,2.1224518-1.8366318,3.6931229-1.4204988
		c-2.0108643,1.1796284-2.439743,2.2058954-2.0199966,4.4530277c0.4275513,2.2889194,1.4937973,4.2651157,2.7723083,6.1657696
		c5.5502777,8.2511082,11.9080429,15.8050308,19.1893234,22.5971069c3.0789642,2.872097,6.4627762,5.1818428,10.3784943,6.7113991
		c0.7296219,0.2850113,1.4053192,0.7671661,2.2481384,0.6932755l-0.0195007-0.0175781
		c-0.0059357,0.2429848,0.1727142,0.2159576,0.3275986,0.2236862c0.6926956,0.3319168,1.3995209,0.5992584,2.1911774,0.4788704
		c0.1675644-0.000515,0.3351364-0.00103,0.5027008-0.0015411c0.9370193,0.2686615,1.6577377-0.3968735,2.4910507-0.5761108
		c0.8983688-0.3311958,1.796051-0.6642799,2.6952209-0.9932899c5.258667-1.92416,9.1676788-5.6882591,13.1161346-9.452404
		c5.9939117-5.7141266,11.0227661-12.2141247,15.7610931-18.9537144c1.4871521-2.1152267,2.7719421-4.3775358,3.2985382-6.9872799
		c0.372467-1.8458881-0.0813293-3.1546144-1.6365662-4.2228565c1.689743-0.0080633,2.787796,1.0322161,3.800415,2.1853056
		c0.3409882,0.3882942,0.6674042,0.7393484,1.116394,1.0329866c10.0146484,6.5494308,21.2131042,10.5967216,32.1548157,15.1745586
		c3.9646301,1.6587296,7.8813324,3.4354458,11.7173004,5.3391037c2.1572418,1.0705643,3.9098053,2.9785423,5.7968903,4.5659981
		c7.7440948,6.5144882,12.2818298,14.9835739,14.937027,24.5909424c1.0978088,3.9723244,1.9447174,8.0021782,2.3507385,12.0990181
		c0.5504456,5.5546799,2.1298981,10.8914719,3.243454,16.3265305c1.266861,6.1833954,2.1013794,12.4376221,3.0679626,18.6702042
		c-0.3147125,0.1666946-0.6138306,0.378334-0.9463959,0.4935226c-7.6485291,2.6490784-15.4852905,4.6249695-23.569519,5.0004501
		c-5.6739044,0.2635498-11.4182587,0.4822235-17.0656738-0.6848907c-0.5554657-0.1148071-0.760025,0.0102997-0.8614807,0.5922012
		c-0.3760071,2.1567078-0.9715576,4.284668-0.7284698,6.5097427c-0.4395447,0.8079529-0.2937622,1.7098999-0.3952789,2.5685043
		c-0.9904785,8.3778839-1.7196045,16.7745209-1.7455292,25.2196808c-0.0067596,2.2003479,0.0678711,4.3850098,0.5240631,6.5554199
		c0.4012146,1.9087219-0.0424194,3.824707-0.2053833,5.7289886c-0.1811066,2.1159973-0.2472534,4.2288055-0.1484985,6.3471375
		c0.1008301,2.1621704-0.1491394,4.3112488-0.201355,6.4654999c-0.0686493,2.8334503-0.1219788,5.6729736,0.1280365,8.5079346
		c0.1475372,1.6729126,0.0890656,3.3505859-0.0995636,5.0267944c-0.3490601,3.1017303,0.1976471,6.1180725,0.8823853,9.132782
		c1.6445313,7.2402039,1.376709,14.5228577,0.3382416,21.8097839c-0.3054504,2.1432648-0.3711243,4.2084198,0.33078,6.3557587
		c1.7736206,5.4257813,1.8118896,11.0058594,0.9376068,16.6037598c-0.2313843,1.4815369-0.2441101,2.924942,0.0944519,4.391922
		c0.8729248,3.7824249,0.4466705,7.6405487,0.6409302,11.4634857c0.3019714,5.9425049,0.6891174,11.8815613,1.4377136,17.7932434
		c0.2543182,2.0083618,0.2190552,4.0569458,0.2554779,6.0882263c0.0326843,1.8235168-0.3323059,2.3253479-2.0823517,2.8504028
		c-3.0059357,0.901886-6.1241455,1.1565552-9.2253571,1.4766541c-7.6871338,0.7934875-15.4048157,0.8653259-23.1230621,1.0100403
		c-11.2351074,0.2105713-22.4662933,0.6520691-33.7017746,0.8132324
		c-12.4784012,0.1789856-24.9356842-0.8466187-37.4157257-0.8479919
		c-8.3975601-0.0009155-16.7974777-0.1001892-25.1780052-0.7355652c-4.1490288-0.3145447-8.2845459-0.7521667-12.3531036-1.6717529
		c-0.1949997-0.0440674-0.3914108-0.0827026-0.5848618-0.1327515c-3.2452545-0.839325-3.60149-1.1888428-3.4040909-4.5171509
		c0.4607124-7.7680969,1.009407-15.5311584,1.5535927-23.2940521c0.142662-2.0351257,0.2767639-4.0680084,0.2285728-6.1076813
		c-0.0426178-1.8038025,0.03442-3.5982361,0.3603058-5.374054c0.4145927-2.2592163,0.4561462-4.5098877,0.1247139-6.7920074
		c-0.264679-1.8225403-0.3195381-3.6938171,0.1233063-5.4887848c0.676609-2.7424774,0.4015732-5.4645386,0.1611404-8.211441
		c-0.3064613-3.501236-0.7323151-6.9971313-0.5579529-10.5271454c0.2109222-4.2702332,1.2140503-8.371933,2.6384811-12.3757019
		c0.3826904-1.0757294,0.6632652-2.0986328,0.4853249-3.2543335c-0.1889801-1.2274475-0.1528969-2.4721222,0.079216-3.7011414
		c0.3070526-1.6258392,0.1913109-3.2480927,0.1103516-4.8917236c-0.1628189-3.3054199-0.1816635-6.6195679-0.195446-9.9303894
		c-0.0538597-12.9391785-0.0427551-25.8787994-0.1403427-38.817627c-0.0386467-5.1235809-0.9980011-10.1754761-1.512352-15.2625809
		C43.6579247,123.2591858,43.4763603,121.9136505,43.3154755,120.5660324z"></path>
	<path d="M118.6460648,37.2008209c-3.3701782,0.0023422-6.7403717,0.0046844-10.1104202,0.0070038
		c-4.2255859-4.7959595-8.777092-9.2850685-13.1581726-13.9347305c-3.4844666-3.6980877-6.1815872-7.9202614-8.5695572-12.3653116
		c-0.2612915-0.4863997-0.5407562-0.9795322-0.5622482-1.558548c3.0596466,0.2729836,6.1170883,0.5771656,9.1797791,0.813076
		c8.3534698,0.6434383,16.702774,1.4236479,25.0988083,0.8302774c6.7656326-0.4781485,13.5331192-0.9303112,20.2997818-1.3940048
		c-0.3109283,1.6447992-1.2687531,2.9918385-2.0830841,4.3920069c-2.1966553,3.7769995-4.815094,7.2333136-7.8688354,10.3761835
		C126.7548981,28.6041565,122.7176437,32.9191399,118.6460648,37.2008209z"></path>
</g>
<g onclick="select(this)" class="" id="estampa-terciaria" fill="#ffffff">
	<path d="M52.481636,284.2699585c0.041996-0.4598083,0.4188843-0.2624512,0.6305428-0.2778931
		c1.235405-0.0900574,2.473175-0.1554871,3.7111855-0.2008972c7.5917816-0.2787781,15.1839828-0.5463867,22.7757339-0.8261414
		c1.9567032-0.072113,3.9122849-0.1744995,5.8747635-0.408844c-14.4350204-0.7012329-28.8700523-1.4024963-43.2619095-2.1016541
		c-0.3454437-0.4183655-0.2441292-0.8055725-0.1757507-1.1821289c0.3297005-0.3642578,0.7543182-0.249176,1.1368904-0.2625732
		c5.7943649-0.2026367,11.5894165-0.3860779,17.383503-0.596283c6.1927414-0.2246704,12.3861389-0.4401855,18.5761719-0.7263184
		c2.5175476-0.116394,5.035614-0.1494751,7.5528412-0.2380981c0.5426712-0.0191345,1.0843887-0.0651245,1.6217728-0.2433777
		c-15.337326-0.733551-30.6746559-1.4671021-45.9359131-2.196991c-0.3324623-0.4044189-0.3684044-0.7346497-0.1325493-1.2060547
		c15.8208046-0.6006165,31.6978264-1.2033691,47.5748482-1.8061523c-0.0005951-0.057251-0.0011978-0.114502-0.0018005-0.1716919
		c-15.6830444-0.756958-31.3660965-1.513916-46.9776001-2.267395c-0.3093491-0.380249-0.1880646-0.67099-0.0516052-1.0567322
		c16.737011-0.6298218,33.4784317-1.2598267,50.2198486-1.8898315c0.0050964-0.0346985,0.0102081-0.0694275,0.0153046-0.1041565
		c-16.6578064-0.8032532-33.3156052-1.6065063-49.901783-2.4063416c-0.2304688-0.3216858-0.1871376-0.5388489-0.0502319-0.7534485
		c0.235157-0.2014465,0.5237885-0.1698608,0.8001328-0.1799316c4.7546539-0.1729126,9.5093956-0.3434753,14.2640762-0.515564
		c7.31213-0.2645874,14.6251869-0.5068359,21.9360085-0.8038025c4.1545486-0.1687317,8.307724-0.3648376,12.4651108-0.4542847
		c0.8619156-0.0185242,1.7282028-0.0241394,2.3831558-0.2673035c-17.0814056-0.820282-34.3345718-1.6488342-51.5923729-2.4775696
		c-0.0340614-0.9110413,0.5158157-0.7530212,0.9043198-0.7640991c1.7585526-0.0499268,3.5154114-0.1349182,5.2729301-0.20578
		c5.8330193-0.2351685,11.668808-0.4007263,17.502861-0.6116028c6.3926697-0.2310486,12.7848129-0.4770203,19.1767349-0.7280579
		c3.5134201-0.1379395,7.0259094-0.29953,10.5420837-0.5608215c-1.5911636-0.0905609-3.1816864-0.1948853-4.773613-0.2689972
		c-4.3530655-0.202652-8.7073669-0.3790894-13.0599899-0.5904541c-7.4662247-0.3625488-14.9312668-0.7495728-22.3973694-1.1147614
		c-3.9529266-0.1933594-7.9071198-0.3607635-11.8604774-0.545517c-0.3330536-0.0156097-0.7322807,0.0811615-0.8945847-0.3487244
		c0.1408539-0.4073181,0.4643745-0.295166,0.7202568-0.3043365c5.4744835-0.1959991,10.9494972-0.3774719,16.4237862-0.5786591
		c6.3126869-0.2320404,12.6248894-0.4772949,18.9370766-0.7225494c6.3511963-0.2467346,12.702095-0.5005951,19.0627365-0.913559
		c-18.3171997-0.8849335-36.6343994-1.7698364-55.0004387-2.6571503c0.1649857-0.5136566,0.486618-0.4006653,0.7338295-0.4096832
		c5.0343666-0.1833801,10.0695496-0.3452911,15.1034584-0.5401917c7.0704613-0.2736969,14.1396523-0.5800629,21.2101021-0.8541565
		c3.5960922-0.1394043,7.1937866-0.2371674,10.7906647-0.35672c2.5975189-0.086319,5.1949005-0.1766357,7.7922668-0.2676086
		c0.3537979-0.0123901,0.7195892,0.0249176,1.1755905-0.29422c-18.6770248-0.9042664-37.2165527-1.8018646-55.7560692-2.6994629
		c0.0010796-0.0891266,0.0021629-0.1782532,0.0032425-0.2673798c19.5217552-0.7388153,39.0435066-1.4776306,58.5652657-2.2164612
		c0.0004501-0.0474548,0.0009079-0.0949249,0.0013657-0.1423798c-19.2929306-0.9298706-38.5858612-1.859726-57.878788-2.7895966
		c-0.0015945-0.0518951-0.0031891-0.1037903-0.0047798-0.1556854c19.772789-0.7458038,39.545578-1.4915924,59.318367-2.237381
		c0.0036163-0.0709839,0.0072327-0.1419525,0.0108414-0.2129211c-18.1936798-0.878891-36.3873596-1.7577667-54.5810356-2.6366425
		c0.0006065-0.1213989,0.0012131-0.2427979,0.0018196-0.3641968c19.0065613-0.7196655,38.0131302-1.4393463,57.0196915-2.1590118
		c-0.0018997-0.0655975-0.0037918-0.1311798-0.0056915-0.1967621c-19.0756149-0.9177856-38.1512299-1.8355865-57.2268372-2.7533875
		c0.0006714-0.0518951,0.001339-0.1038055,0.0020065-0.1557159c19.9504395-0.7558899,39.9008636-1.5117798,59.8512955-2.2676849
		c0.000206-0.0537262,0.000412-0.1074371,0.000618-0.1611633c-19.1532822-0.9238739-38.3065567-1.8477478-57.4598351-2.7716217
		c-0.0015678-0.0566559-0.0031319-0.1133118-0.0046921-0.1699677c19.7140465-0.7432098,39.4280968-1.4864197,59.3897667-2.2389679
		c-0.9934235-0.2373352-1.7604218-0.3207245-2.5388107-0.3547058c-6.1512985-0.2685699-12.3031006-0.5270081-18.4532166-0.8208008
		c-9.4237747-0.4501495-18.846283-0.9266357-28.2693939-1.3906097c-2.1497002-0.1058655-4.2996635-0.2062988-6.552803-0.3141632
		c0.2434425-0.4435883,0.5871201-0.3407898,0.8572121-0.3506165c4.7547951-0.1725616,9.5102425-0.327301,14.2649422-0.5023499
		c6.4331131-0.2368317,12.865509-0.4931641,19.298584-0.7309418c7.0322266-0.2599487,14.0650635-0.5032806,21.0971298-0.7674103
		c0.9810486-0.0368652,1.959198-0.1510315,2.9318848-0.3056183c-19.4660339-0.9369354-38.9320602-1.8738708-58.3980904-2.8108063
		c0.0009995-0.0315857,0.0019989-0.0631714,0.0029984-0.0947723c20.450779-0.7750092,40.9015617-1.5500336,61.3523369-2.3250427
		c0.0017242-0.0312042,0.0034485-0.0624237,0.0051804-0.0936432c-18.9133911-0.9111176-37.8267822-1.8222198-56.7401657-2.7333527
		c-0.0017509-0.078476-0.0034981-0.1569672-0.005249-0.2354431c1.3720856-0.0715637,2.7435303-0.1601257,4.1163635-0.2115936
		c4.9146347-0.1842804,9.8299332-0.3505096,14.7445984-0.5337982c6.3526001-0.2368927,12.7056427-0.4644318,19.0570145-0.7312164
		c6.9883652-0.2935028,13.9766388-0.5820465,20.9359436-0.7541351c-0.6763077-0.287735-1.4334488-0.2965088-2.1893234-0.3296509
		c-6.430687-0.2818604-12.861496-0.5612793-19.2916641-0.8546448c-4.7922134-0.2186584-9.5838394-0.450592-14.3751831-0.6878052
		c-7.3869934-0.3656921-14.7708054-0.7993927-22.1644135-1.0236816c-0.2088623-0.0063324-0.4634094,0.0770264-0.6856804-0.2065277
		c0.5529442-0.0429688,1.0558777-0.1011353,1.5602226-0.1182861c5.6346207-0.1916199,11.2699661-0.3626862,16.9041061-0.5671997
		c8.6305313-0.3132629,17.2602005-0.6503906,25.8903732-0.9735565c4.3950882-0.1645966,8.7904968-0.3207855,13.1857529-0.480896
		c1.2341766-0.0449524,2.4738693-0.0214691,3.4577713-0.2812958c-19.2859955-0.9294586-38.8026581-1.8700409-58.3193245-2.8106079
		c0.0004921-0.0509338,0.0009804-0.1018524,0.0014648-0.152771c20.3090553-0.7689362,40.6181068-1.5378418,60.927166-2.3067627
		c0.0002975-0.0219116,0.0006027-0.0438385,0.0008926-0.0657501c-19.5823669-0.9447174-39.1647415-1.8894348-58.8512115-2.8392029
		c1.2981339-0.1430817,2.4917221-0.2841339,3.7014542-0.3238373c7.8727722-0.2582855,15.7450104-0.5328217,23.6168518-0.8179016
		c6.1131287-0.221405,12.2262344-0.4467926,18.3378067-0.7064209c4.4741211-0.1900787,8.9474487-0.3900299,13.4251404-0.4768066
		c0.5000381-0.0096893,0.9990997-0.0697479,1.4926453-0.3068542c-1.6905289-0.053421-3.382225-0.0830994-5.0714188-0.164566
		c-5.7893753-0.2792053-11.5774612-0.5850525-17.3668365-0.864212c-4.3130035-0.207962-8.6274338-0.3861694-12.9408875-0.5850677
		c-7.1084976-0.3277588-14.2165909-0.6641083-21.3252335-0.9885864c-0.675148-0.0308075-1.3222733-0.1917572-2.1198578-0.3293915
		c-0.0170746-0.0004578,0.1929474-0.187439,0.1433258-0.0355988c-0.0063705,0.0195007,0.0410767,0.0821838,0.0619659,0.0814056
		c19.6747284-0.7313995,39.3493195-1.466507,59.0239182-2.2015839c-0.0009003-0.0916443-0.0018082-0.1833038-0.0027008-0.2749481
		c-18.7148132-0.9042664-37.4296341-1.8085327-56.1444473-2.7128143c0.0004349-0.0553589,0.0008698-0.110733,0.001297-0.1660919
		c19.5678253-0.740448,39.1356506-1.480896,58.7034836-2.2213287c0.0021667-0.0815582,0.0043335-0.1631165,0.0065002-0.2446594
		c-18.9082642-0.9110718-37.8165283-1.8221283-56.7971344-2.7366791c0.9378128-0.1939697,1.8212433-0.2636719,2.7143784-0.2929993
		c5.834816-0.1914673,11.6695404-0.3863068,17.5037231-0.5964355c6.3530273-0.2287903,12.7055817-0.4713745,19.0580521-0.7151947
		c7.0710602-0.2713623,14.1418076-0.5509033,21.2349854-0.9521484c-0.3561554-0.0338593-0.7116089-0.0836487-1.068573-0.0991821
		c-4.9133911-0.213974-9.8280182-0.4013824-14.7402573-0.638855c-7.1071091-0.3435822-14.2119827-0.733139-21.3188171-1.0826111
		c-4.3128815-0.2121124-8.627655-0.38591-12.9416046-0.5762939c-2.0768661-0.0916595-4.1536026-0.1873322-6.2308655-0.2690277
		c-0.5206451-0.0204773-1.0097656-0.1511688-1.5154953-0.3039703c19.8070984-0.7476196,39.5924377-1.4944305,59.3777924-2.2412262
		c-0.0010223-0.0595245-0.0020294-0.1190491-0.0030212-0.1785889c-19.4017258-0.9349518-38.8034439-1.8698883-58.2051697-2.8048553
		c-0.0000153-0.0286713-0.0000381-0.0573578-0.0000534-0.0860443c20.1220932-0.7634277,40.2441864-1.5268402,60.3662796-2.2902679
		c0.0011292-0.0600586,0.0022583-0.1201172,0.0033722-0.180191c-18.9273987-0.9118805-37.8548126-1.8237457-56.9990997-2.7460632
		c0.5321274-0.3659821,0.9381332-0.2735291,1.3102188-0.2862549c6.1143723-0.2088776,12.2294388-0.3978577,18.3434372-0.6168518
		c6.1931152-0.221817,12.3851013-0.4749908,18.5778122-0.7082062c6.4326019-0.2422485,12.8655167-0.4758911,19.2980728-0.7194366
		c0.2533722-0.0095825,0.5440216,0.0843964,0.7599487-0.1617737c-0.0742798-0.2851257-0.3100891-0.2240448-0.4828644-0.2321625
		c-3.6338043-0.1711884-7.2683105-0.3273773-10.9019928-0.501358c-6.428894-0.3078156-12.8572922-0.6261444-19.2859573-0.9388428
		c-3.4340134-0.1670532-6.8677139-0.341217-10.3023376-0.4947357c-4.6333923-0.2070923-9.2675095-0.3978729-13.9013824-0.5940247
		c-0.3518677-0.0148773-0.7051163-0.0137482-1.1442795-0.3027496c19.9420929-0.7510834,39.7324448-1.4964447,59.5227966-2.2418213
		c-0.000824-0.0534821-0.0016479-0.1069641-0.0024872-0.1604462c-19.2311325-0.9274597-38.462265-1.8549042-57.6934128-2.7823792
		c-0.0003738-0.0513-0.0007553-0.1026306-0.0011368-0.1539459c19.5720444-0.7395325,39.1440964-1.4790497,58.7161407-2.2185822
		c0.0015717-0.0847168,0.0031586-0.1694489,0.0047455-0.2541656c-18.6872482-0.9041138-37.3744812-1.8082428-56.0203705-2.7103577
		c0.4692154-0.2122192,1.0115204-0.2774811,1.5686417-0.2961426c5.8348083-0.195343,11.6700363-0.3803253,17.503952-0.5999146
		c6.871582-0.2586212,13.7419205-0.5498352,20.6129227-0.8242493c2.3570404-0.0941467,4.7140045-0.1926117,7.0716858-0.2673645
		c4.1167755-0.1305695,8.2340698-0.2437439,12.3511047-0.3661957c0.2782745-0.0082703,0.5560303-0.0332642,1.0795288-0.0656738
		c-0.5787354-0.313446-1.0005188-0.2581024-1.3903503-0.2751312c-2.236557-0.097702-4.4740295-0.1550446-6.710907-0.2696991
		c-7.7056274-0.3950348-15.4148788-0.7186737-23.1221542-1.0819397c-6.4291458-0.303009-12.8598022-0.5834198-19.2849655-0.9566956
		c-2.4333038-0.1413727-4.8791809-0.0547485-7.3010559-0.3930511c-0.1901245-0.0265503-0.3982315,0.0098114-0.5502625-0.1425934
		c19.8072433-0.7486572,39.6177368-1.4974365,59.4282227-2.2462311c-0.0006104-0.0649261-0.0012207-0.1298523-0.0018158-0.1947937
		c-19.2785187-0.9316559-38.5570374-1.8633118-57.835556-2.7949829c0.001091-0.0291901,0.002182-0.0583801,0.003273-0.0875854
		c7.8571014-0.3109436,15.7141876-0.6223755,23.5713196-0.9325104c2.2772369-0.0899048,4.5554047-0.1434784,6.8328934-0.2407684
		c5.8326111-0.2491913,11.6692657-0.4024811,17.5036469-0.612442c4.3553314-0.1567383,8.7096252-0.3422241,13.0644379-0.5136185
		c0.1798859-0.0070877,0.3602753-0.0008926,0.5477142-0.1147919c-19.7447815-0.9474564-39.4895554-1.8949203-59.1937943-2.8404312
		c2.9667816-0.5022125,6.0118561-0.2982941,9.0373154-0.4591522c5.4693604-0.2908096,10.9478683-0.4086227,16.422287-0.6062775
		c6.7928314-0.2452316,13.586441-0.4729919,20.3776855-0.7568665c4.3544159-0.1820068,8.70755-0.3836975,13.0653839-0.4669724
		c0.8026428-0.0153427,1.6181641,0.0056534,2.1936035-0.2501831c-19.3871002-0.9308853-38.9306107-1.8692627-58.4741135-2.8076477
		c0.0017166-0.0463486,0.0034409-0.0926971,0.0051498-0.1390533c2.1544495-0.0946274,4.3083572-0.2043533,6.4634399-0.280983
		c5.8343811-0.2074738,11.6696091-0.3913345,17.5038452-0.6024551c6.2329788-0.2255478,12.4653473-0.4680481,18.6977234-0.7097473
		c5.2733459-0.2044907,10.5463409-0.4174728,15.8193512-0.6298447c0.4352722-0.0175323,0.8695831-0.0590668,1.3043213-0.2201614
		c-19.3729095-0.9372177-38.7458115-1.8744354-58.118721-2.8116608c0.0000534-0.0302505,0.0000992-0.0605011,0.000145-0.0907593
		c20.5246277-0.7737274,41.0492554-1.5474625,61.5738678-2.3211975c0.0028229-0.0281143,0.005661-0.0562286,0.0084839-0.0843353
		c-18.9987946-0.9144363-37.9975815-1.8288727-56.9963684-2.743309c0.8165054-0.4238663,1.6899185-0.3579559,2.5376434-0.39077
		c7.1117325-0.2752762,14.2245865-0.5218506,21.3368759-0.7831268c6.5126419-0.2392502,13.0250931-0.4839935,19.5374832-0.730278
		c3.7954865-0.1435318,7.5906982-0.2949753,11.3860321-0.4423828c0.2298737-0.0089188,0.4654083,0.0073929,0.672348-0.1527634
		c-0.0844269-0.4227524-0.4202423-0.307663-0.6548767-0.3205643c-2.7140808-0.1492386-5.4283752-0.2963257-8.1436157-0.4222107
		c-6.1904297-0.286972-12.3818207-0.5533218-18.5720825-0.8438721c-6.5888443-0.3092575-13.1767502-0.6383286-19.7652283-0.955307
		c-2.1166229-0.1018372-4.233139-0.213913-6.3510284-0.2770004c-0.7194748-0.0214386-1.404808-0.2392731-2.1183777-0.2474747
		c20.2025146-0.764389,40.4050293-1.5287781,60.6075134-2.2931671c0.0007172-0.0539398,0.0014343-0.1078796,0.0021362-0.1618195
		c-19.463623-0.9382553-38.9272537-1.876503-58.3908844-2.8147659c-0.0008621-0.0282974-0.0017242-0.0565872-0.0025787-0.0848923
		c20.1156769-0.7621841,40.2313538-1.5243759,60.3470306-2.2865677c0.0016022-0.0422821,0.0031891-0.084549,0.0048065-0.1268311
		c-0.8307037-0.0711594-1.6601105-0.1697464-2.4923248-0.2088547c-4.2329407-0.1989136-8.4669037-0.3760681-12.6999512-0.5727921
		c-7.1484985-0.3322144-14.2967529-0.6697617-21.4447556-1.0121155c-4.5918579-0.2199402-9.1830063-0.4544067-13.7746735-0.6784363
		c-1.7568283-0.085701-3.5144119-0.1559525-5.2711411-0.2435608c-0.4267426-0.0212936-0.877861,0.0344086-1.33255-0.3106079
		c4.1288071-0.1371307,8.1709747-0.2551041,12.2117615-0.4092484c6.8713226-0.2620926,13.7417603-0.5468292,20.6125793-0.8223343
		c2.3571777-0.0945053,4.715332-0.1536942,7.0727081-0.2536392c5.8325043-0.2472763,11.6686096-0.4095154,17.5032043-0.6077881
		c0.3016205-0.0102463,0.6254272,0.0463867,0.8955994-0.1915359c-0.1150513-0.2947922-0.3406067-0.2110519-0.5012817-0.2184601
		c-5.8305511-0.268692-11.6617432-0.5233612-17.4922028-0.7938766c-6.828949-0.3168411-13.6572876-0.6465836-20.4859085-0.9707108
		c-5.11129-0.2426071-10.2227936-0.4810638-15.3336639-0.7322845c-0.7535095-0.0370483-1.5040512-0.1345139-2.2529068-0.3197021
		c20.2356567-0.7679977,40.4713135-1.5359955,60.7069702-2.3039856c-0.0006104-0.0203323-0.001236-0.0406494-0.0018616-0.0609741
		c-19.6047363-0.9453125-39.2094727-1.890625-58.814209-2.8359299c-0.0009613-0.0502396-0.0019379-0.1004791-0.0029068-0.1507111
		c19.7911911-0.7464142,39.5823746-1.492836,59.373558-2.2392502c0.0028076-0.0696411,0.0056305-0.1392899,0.0084381-0.208931
		c-18.5636597-0.8967056-37.1273193-1.793396-55.8568344-2.6981125c0.3935394-0.4375381,0.7731247-0.3172836,1.0871964-0.3288956
		c4.9944839-0.1845627,9.989624-0.3515396,14.984314-0.5308533c6.9927368-0.2510452,13.9862213-0.4856644,20.9775848-0.7707977
		c6.4317932-0.2623367,12.8620453-0.5588608,19.2976685-0.7190857c0.709549-0.0176544,1.4169922-0.1203766,2.1287537-0.3225327
		c-0.1994171-0.0207901-0.3984375-0.0542984-0.5983124-0.060524c-6.7135315-0.2094345-13.4187775-0.5924301-20.125824-0.9411469
		c-4.2722321-0.2221298-8.5475006-0.3852463-12.8209839-0.5836792c-7.3881989-0.3430557-14.7762527-0.6891098-22.1637878-1.0457001
		c-0.7900925-0.0381317-1.5764008-0.1546097-2.4456711-0.2429962c20.1567001-0.763504,40.2213821-1.5235367,60.2860794-2.2835541
		c0.0009613-0.0602875,0.0019379-0.1205826,0.0029144-0.1808701c-19.0365601-0.9189377-38.0731049-1.8378754-57.1096649-2.756813
		c-0.0015335-0.0578308-0.0030823-0.1156769-0.0046234-0.1735077c20.1849365-0.7615051,40.3698883-1.5230141,60.3009796-2.2749481
		c-0.7187347-0.1424103-1.7086029-0.2540359-2.714035-0.2978172c-8.1484528-0.3547935-16.2967682-0.713665-24.4441376-1.0922623
		c-6.3492889-0.2950401-12.6970215-0.6233292-19.0457611-0.9305267c-3.3941498-0.1642456-6.7889862-0.3149223-10.1834564-0.4726563
		c-0.1919327-0.0089149-0.39505,0.0247612-0.5719681-0.1417198c0.1042175-0.3868332,0.4383011-0.2429543,0.6722794-0.2513771
		c5.0746613-0.1826439,10.1501007-0.3437119,15.2245636-0.5313034c8.4706879-0.3131332,16.9405975-0.6471519,25.4112091-0.9621391
		c4.9545135-0.1842461,9.9099884-0.343399,14.8644867-0.5282631c0.661911-0.0247002,1.3206482-0.1343727,1.9656525-0.3134651
		c-19.1494293-0.9238129-38.2988739-1.8476295-57.4483109-2.7714462c0.0014191-0.0440483,0.0028458-0.0880966,0.0042648-0.1321449
		c20.400238-0.7729225,40.8004913-1.5458488,61.2007446-2.3187714c-0.0000458-0.0193901-0.0000916-0.0387802-0.0001221-0.0581741
		c-19.5255585-0.9437523-39.0511169-1.8875084-58.5766754-2.8312645c-0.0016251-0.0561714-0.0032349-0.1123428-0.0048599-0.1685143
		c20.2065201-0.7612953,40.4130325-1.5225945,60.5684891-2.2819633c-0.2492981-0.2696075-0.6623688-0.2031517-1.0458832-0.2196388
		c-5.0330811-0.2163734-10.0669861-0.4146957-15.0994873-0.6436768c-7.0290375-0.3198357-14.0579987-0.6434097-21.0852814-0.999321
		c-6.5876617-0.3336487-13.1733246-0.7051964-19.765892-0.9357567c-0.6666336-0.0233154-1.3520355,0.0238266-2.047966-0.2875862
		c-0.0922699,0.0009613,0.1193542-0.2412949,0.0725555-0.0886002c-0.0083618,0.0273018,0.0340424,0.1014366,0.051239,0.1008606
		c4.1155853-0.1377029,8.2315674-0.2661705,12.346344-0.4255791c6.7911682-0.2630997,13.5816803-0.5436516,20.3722534-0.8224792
		c2.2371368-0.0918579,4.4754639-0.1416626,6.7129364-0.2365608c5.9924774-0.2541618,11.9888611-0.4166451,17.9832458-0.6280975
		c0.7485046-0.0264053,1.494339-0.1283951,2.2306976-0.3417854c-18.9036255-0.9122391-37.8072662-1.8244743-56.7108917-2.7367096
		c0.0004272-0.0500641,0.000885-0.100132,0.0013275-0.1501999c1.717926-0.0799103,3.4353485-0.1736259,5.1538849-0.237175
		c5.3143158-0.1965103,10.6293488-0.3730087,15.9435272-0.5730095c7.9506989-0.2992363,15.9008942-0.6113663,23.8512726-0.9192238
		c1.5579224-0.0603256,3.116333-0.11306,4.6730652-0.1963768c0.5671387-0.0303497,1.1204834,0.0068665,1.6607819,0.1593781
		c4.262207,1.2031097,8.5843658,2.1931229,12.7918549,3.5903893c0.2462006,0.0817604,0.4845276,0.1872292,0.726532,0.2816582
		c-0.0366058,0.1137123-0.0646667,0.2310219-0.1109924,0.3406181c-5.8256683,13.7825737-11.657135,27.562706-17.4785919,41.3470688
		c-8.5228424,20.1808395-17.0376892,40.3650513-25.5575256,60.5471497
		c-7.0145416,16.6162415-14.0302429,33.2320099-21.0475006,49.8471069
		c-5.790741,13.7110596-11.5857391,27.4203186-17.3765717,41.1313171
		c-5.2630844,12.461441-10.5257492,24.9230347-15.783165,37.3868713c-2.0311356,4.8152771-4.0472794,9.6368408-6.0702515,14.4555359
		c-3.0741043,0.0612793-6.1454239-0.0873718-9.2181168-0.1193848c-5.9479523-0.0618896-11.896759-0.1057434-17.8392563-0.3711243
		C59.6277771,284.9676514,56.0395737,284.7918701,52.481636,284.2699585z"></path>
</g>
<g onclick="select(this)" class="" id="estampa-secundaria" fill="#082890">
	<path d="M90.2698746,285.6182251c2.0229721-4.8186951,4.0391159-9.6402588,6.0702515-14.4555359
		c5.2574158-12.4638367,10.5200806-24.9254303,15.783165-37.3868713
		c5.7908325-13.7109985,11.5858307-27.4202576,17.3765717-41.1313171
		c7.0172577-16.615097,14.032959-33.2308655,21.0475006-49.8471069
		c8.5198364-20.1820984,17.0346832-40.3663101,25.5575256-60.5471497
		c5.8214569-13.7843628,11.6529236-27.5644951,17.4785919-41.3470688c0.0463257-0.1095963,0.0743866-0.2269058,0.1109924-0.3406219
		c1.1014709,0.3202057,2.2344971,0.5596771,3.2528534,1.2607422c-0.4025421,1.5881081-1.1578064,3.037056-1.7858582,4.5280571
		c-5.947403,14.1191711-11.9208527,28.2273674-17.8805084,42.3413658
		c-5.7111206,13.5253143-11.4120789,27.0549011-17.1224976,40.5805054
		c-5.6795349,13.4524841-11.3677368,26.9013062-17.0476837,40.3536072
		c-6.2385406,14.7752686-12.4695587,29.5536804-18.7083893,44.3288116
		c-5.7268753,13.5626831-11.4632187,27.1213531-17.1888123,40.6845551
		c-4.3599319,10.3280945-8.7096024,20.660553-13.0638504,30.9910583
		C92.8560944,285.7318726,91.5629883,285.6759338,90.2698746,285.6182251z"></path>
</g>
<g onclick="select(this)" class="" id="gola-primaria" fill="#082890">
	<path d="M82.7743149,4.5448394c-0.0166931,3.9794221,1.5683289,7.4199071,3.5216599,10.769886
		c2.7818604,4.770915,6.3688583,8.8787489,10.2087784,12.8014402c2.7669525,2.8265953,5.5028687,5.6848869,8.1998749,8.5781593
		c3.2402039,3.4760017,5.169342,7.6360779,6.1842422,12.2461243c-0.8428192,0.0738869-1.5185165-0.408268-2.2481384-0.6932793
		c-3.9157181-1.5295563-7.29953-3.8393021-10.3784943-6.7113991c-7.2812805-6.7920761-13.6390457-14.3459988-19.1893234-22.5971069
		c-1.278511-1.9006538-2.3447571-3.8768501-2.7723083-6.1657696c-0.4197464-2.2471323,0.0091324-3.2733994,2.0199966-4.4530277
		c1.2253876-0.542841,2.0059662-1.6151767,2.9658661-2.4759879C81.7761993,5.4046993,82.0902557,4.761116,82.7743149,4.5448394z"></path>
	<path d="M140.8240356,9.5985832c-6.7666626,0.4636936-13.5341492,0.9158564-20.2997818,1.3940048
		c-8.3960342,0.5933704-16.7453384-0.1868391-25.0988083-0.8302774c-3.0626907-0.2359104-6.1201324-0.5400925-9.1797791-0.813076
		c-0.7080841-1.3048449-0.8547058-2.723803-0.8089294-4.1702523c0.0253525-0.8010435,0.4879379-1.3244181,1.2209396-1.6196523
		c1.125473-0.4533081,2.3055878-0.6607053,3.5079956-0.6614058c15.6694565-0.0091302,31.3389206-0.0079172,47.0083847,0.0003197
		c1.1230621,0.0005903,2.2216339,0.2132609,3.2826538,0.5918701c0.9343262,0.3334045,1.4256592,0.9818466,1.4058533,1.9923222
		C141.8340759,6.9350324,141.5774231,8.3291445,140.8240356,9.5985832z"></path>
	<path d="M116.381897,49.0477715c0.9636459-4.8089638,3.1056976-9.0236206,6.4560394-12.6026421
		c4.17379-4.4586735,8.4458771-8.8270798,12.5557861-13.343298c3.1049347-3.4118843,5.5716858-7.3001604,7.5047913-11.4869471
		c1.1612701-2.5151167,2.0049286-5.1494989,1.2373657-7.9960232c1.0215149,0.579803,1.5800476,1.6334033,2.4385681,2.3822198
		c0.9803619,0.8550615,1.8003998,1.9075398,3.041687,2.4371476c1.5554199,1.0682402,2.0092163,2.3769665,1.6367493,4.2228546
		c-0.5265961,2.6097441-1.8113861,4.8720531-3.2985382,6.9872799c-4.738327,6.7395897-9.7671814,13.2395878-15.7610931,18.9537144
		c-3.9484558,3.7641449-7.8574677,7.528244-13.1161346,9.452404
		C118.177948,48.3834915,117.2802658,48.7165756,116.381897,49.0477715z"></path>
</g>
</svg>
