<!--?xml version="1.0" encoding="utf-8"?-->
<!-- Generator: Adobe Illustrator 24.2.3, SVG Export Plug-In . SVG Version: 6.00 Build 0)  -->
<svg version="1.1" id="Camada_1" xmlns="http://www.w3.org/2000/svg" xmlns:xlink="http://www.w3.org/1999/xlink" x="0px" y="0px" viewBox="0 0 229 418" enable-background="new 0 0 229 418" xml:space="preserve">
<g class="" id="calcao-primaria" fill="#db9600">
	<path d="M84.48,418.56c-2.3-0.49-4.65-0.43-6.98-0.63c-10.55-0.9-21.12-1.65-31.49-3.91c-6.05-1.32-11.89-3.42-17.8-5.23
		c-1.01-0.31-2.37-0.16-2.95-1.1c-0.55-0.89,0.36-1.94,0.43-2.95c0.35-4.75,1.25-9.44,1.46-14.22c0.22-5.11,1.16-10.16,1.8-15.24
		c0.93-7.34,1.77-14.68,2.51-22.04c0.6-5.92,1.5-11.82,2.12-17.74c0.66-6.32,1.91-12.55,2.78-18.84c0.46-3.3,0.73-6.59,0.74-9.91
		c0.02-5.5,1.06-10.89,1.68-16.33c0.38-3.37,0.88-6.73,1.39-10.13c0.1,1.52,1.17,2.06,2.38,2.43c3.73,1.15,7.59,1.56,11.45,1.93
		c10.53,1.01,21.09,0.86,31.65,1.04c8.4,0.14,16.79,0.33,25.18,0.77c6.28,0.33,12.55-0.12,18.83-0.27
		c10.55-0.26,21.11-0.5,31.67-0.67c6.88-0.11,13.75-0.53,20.56-1.59c1.84-0.29,3.74-0.48,5.44-1.87c0.33,2.26,0.64,4.37,0.93,6.48
		c0.92,6.73,1.98,13.47,1.97,20.26c-0.01,6.01,1.13,11.83,1.86,17.74c0.74,5.99,2.45,11.8,3.13,17.8c0.87,7.62,2.08,15.2,2.19,22.9
		c0.09,6.12,1.29,12.15,2,18.22c0.55,4.76,0.59,9.58,1.53,14.3c0.43,2.14,0.8,4.3,1.25,6.43c0.4,1.86,0.35,2.11-1.42,2.74
		c-4.26,1.52-8.68,2.42-13.09,3.39c-8.35,1.82-16.77,3.31-25.27,4.26c-6.08,0.68-12.18,1.18-18.26,1.77
		c-0.37,0.04-0.8-0.13-1.12,0.23c-4.48,0-8.96,0-13.44,0c0.08-0.35-0.21-0.25-0.36-0.28c-1.73-0.32-3.45-0.73-5.2-0.89
		c-1.32-0.12-1.58-0.74-1.64-1.9c-0.19-3.87-0.35-7.74-0.76-11.59c-1.16-10.89-2.87-21.7-4.63-32.5
		c-1.18-7.22-2.17-14.46-2.79-21.75c-0.25-2.91-0.51-5.81-0.77-8.72c-0.04-0.49-0.11-1.05-0.62-1.2c-0.58-0.17-0.78,0.42-1.03,0.8
		c-0.74,1.1-0.57,2.38-0.7,3.59c-0.57,5.68-1,11.38-1.81,17.04c-0.74,5.23-2.39,10.27-3.17,15.5c-1.36,9.08-3.88,17.97-4.72,27.15
		c-0.29,3.16-1.08,6.28-0.84,9.49c0.08,1-0.09,1.99-0.25,2.98c-0.08,0.49-0.23,0.86-0.86,0.94c-1.51,0.19-3.01,0.41-4.49,0.75
		c-0.93,0.21-1.96-0.01-2.81,0.6C89.6,418.56,87.04,418.56,84.48,418.56z"></path>
</g>
</svg>
