<!--?xml version="1.0" encoding="utf-8"?-->
<!-- Generator: Adobe Illustrator 24.2.3, SVG Export Plug-In . SVG Version: 6.00 Build 0)  -->
<svg version="1.1" id="Camada_1" xmlns="http://www.w3.org/2000/svg" xmlns:xlink="http://www.w3.org/1999/xlink" x="0px" y="0px" viewBox="0 0 229 418" style="enable-background:new 0 0 229 418;" xml:space="preserve">
<style type="text/css">
	.st0{fill:#FC0101;}
	.st1{fill:#2145B9;}
	.st2{fill:#ECD331;}
</style>
<g onclick="select(this)" class="" id="gola-primaria" fill="#ffffff">
	<path d="M109.3,35.9c-0.2,0.5-0.6,0.3-0.9,0.3c-4.1-0.3-8-1.5-11.6-3.3c-5.4-2.6-10.2-5.9-14.4-10.2
		c-2.7-2.7-4.9-5.8-5.8-9.6c-0.2-1-0.4-2-0.2-3.1c0.2-1,0.9-1.5,1.7-2.1c0.5,0,0.9-0.3,1.3-0.6c0.9-0.9,2-1.7,2.7-2.7
		c2-2.9,5-3.6,8.2-3.9c3.1-0.3,6.1,0.1,9.2,0c4.4-0.1,8.8,0,13.2-0.1c7.9-0.2,15.8,0,23.7,0c0.9,0,1.8,0.2,2.7,0.3
		c2.2,0.3,4.1,1.2,5.6,3.1c1.2,1.6,2.6,3.1,4.4,4.1c1.7,0.5,2.3,2.5,1.7,4.7c-1.2,4.2-3.5,7.7-6.6,10.6c-2.7,2.6-5.8,4.9-9.1,6.8
		c-4.1,2.4-8.3,4.4-12.9,5.4c-1.4,0.3-2.8,0.4-4.3,0.5c0.5-1.1,1.3-2.1,2.1-3c2.2-2.6,4.9-4.8,7.5-7.1c2.1-1.7,4.3-3.3,6.4-5
		c2.4-1.8,4.6-3.8,6.6-6.1c1.5-1.8,2.8-3.7,3.7-6c-2,0.2-3.9,0.4-5.9,0.5c-5.4,0.4-10.8,0.8-16.1,1.1c-5.6,0.4-11.2,0.4-16.8,0
		c-7.1-0.5-14.3-1.1-21.4-1.8c-0.7-0.1-1,0.1-0.7,0.8c0.5,1.2,1.1,2.4,1.9,3.4c3.9,5.3,9.4,8.9,14.4,13.1
		C103.1,29.3,106.6,32.2,109.3,35.9z"></path>
</g>
<g onclick="select(this)" class="" id="detalhe-lateral" fill="#ededed">
	<path d="M180.3,284c-0.4-5-0.6-10-0.8-15.1c-0.3-6-0.5-12-0.7-17.9c-0.2-4.9-0.3-9.7-0.5-14.6
		c-0.3-7.3-0.3-14.6-0.5-21.9c-0.4-17-0.2-34.1-0.2-51.1c0-4.8,0.2-9.7,0.5-14.5c0.3-4.8,0.7-9.6,1.1-14.4
		c0.9-9.6,2.5-19.2,4.9-28.5c1.2-4.8,2.7-9.6,4.8-14.2c0.1-0.2,0.1-0.6,0.4-0.7l0,0c0.2,0.5-0.1,0.9-0.2,1.3
		c-1.9,6.6-3.2,13.3-4.1,20.1c-0.4,2.5-0.4,5.1-0.5,7.7c-1.2,10.3-2.3,20.6-2,31c0.1,2.5,0.8,4.9,0.4,7.4c-0.4,2.3-0.4,4.7-0.4,7
		c0.1,6.6,0.1,13.2-0.1,19.7c-0.1,4.5,0.7,8.7,1.4,13c0.9,5.1,0.9,10.2,0.2,15.4c-0.3,2.3-0.5,4.7-0.8,7c0,0.4,0.1,0.8,0.2,1.2
		c2,5.7,2.5,11.6,1.6,17.6c-0.3,2-0.3,4,0.1,6c0.4,2,0.6,4.1,0.5,6.2c-0.1,7.4,0.7,14.7,1.4,22c0.2,2.3,0.3,4.6,0.3,6.9
		c0,1.1-0.5,1.8-1.5,2.2C184.2,283.5,182.3,284,180.3,284z"></path>
	<path d="M42.5,112.8c0.1-1.9-0.4-3.8-0.6-5.7c-0.4-2.9-0.9-5.7-1.3-8.5c-0.1-0.7-0.8-1.2-0.3-2.1
		c0.9,1.9,1.4,3.8,1.9,5.7c1.9,6.1,3.1,12.4,4.2,18.7c0.8,4.5,1.4,9.1,1.8,13.7c0.4,4.2,0.7,8.4,1,12.6c1.3,21.4,0.6,42.8,0.7,64.2
		c0,4-0.1,8-0.2,12c-0.1,6.3-0.3,12.5-0.5,18.8c-0.2,4.4-0.3,8.9-0.5,13.3c-0.2,5.6-0.4,11.2-0.8,16.9c-0.3,3.8-0.2,7.6-0.7,11.3
		c-1.7-0.1-3.4-0.5-5-1.1c-1.6-0.6-2-1.1-2-2.8c0-2.8,0.2-5.6,0.4-8.3c0.4-5.3,0.7-10.6,1.2-15.9c0.4-4.8-0.1-9.6,0.9-14.3
		c0.2-0.9,0.1-1.8,0-2.7c-0.5-3.1-0.4-6.2,0.3-9.3c0.2-0.9,0.1-1.7,0.1-2.6c-0.3-4.1-0.8-8.1-0.9-12.2c0-4.9,1.1-9.7,2.7-14.3
		c0.3-0.9,0.5-1.7,0.4-2.7c-0.2-1.6-0.1-3.2,0.2-4.8c0.1-0.6,0.2-1.2,0.1-1.8c-0.1-4.8-0.3-9.6-0.4-14.5c0-1.1,0.1-2.2,0.2-3.3
		c0.1-1.9,0.1-3.7,0-5.6c-0.4-5.1-0.2-10.1-0.1-15.2c0.2-9.1-0.2-18-1.5-27c-0.2-1.5-0.4-3.1-0.6-4.6c0.5-1.2-0.2-2.3-0.4-3.5
		C42.7,115.6,42.9,114.1,42.5,112.8z"></path>
</g>
<g onclick="select(this)" class="" id="detalhe-punho" fill="#ededed">
	<path d="M0.2,114.4c0.5-1,0.5-2.2,0.7-3.3c0.1-0.5,0.1-1.1,0.5-1.5c4.7,1.9,9.7,3.3,14.7,3.9
		c5.6,0.7,11.3,0.9,16.9,0.7c2.4-0.1,4.7-0.2,7-0.6c0.8-0.1,1.4-0.9,2.3-0.8c0.5,1.4,0.2,2.8,0.4,4.2c0.1,1.1,0.9,2.3,0.4,3.5
		c-2.8,1.3-5.9,1.7-9,1.8c-7.1,0.1-14.1,0.3-21.2-0.9c-3.6-0.6-7.2-1.3-10.7-2.4c-0.7-0.2-1.5-0.6-2.2-0.9
		C0.2,116.8,0.2,115.6,0.2,114.4z"></path>
	<path d="M184.6,120.2c0-2.6,0-5.1,0.5-7.7c0.9,0.6,2,0.9,3.1,1c5.6,0.3,11.2,0.6,16.8,0c4-0.4,7.9-1.2,11.9-2
		c3.1-0.7,6-1.9,9.1-2.5c0.6-0.1,1.3-0.5,1.9-0.8c1,2.5,1.3,5.1,1.1,7.7c0,0.6-0.8,0.8-1.3,0.9c-3.2,1.2-6.5,2.1-9.9,2.9
		c-8.4,2.1-16.9,2.5-25.5,2.1c-1.8-0.1-3.6-0.4-5.5-0.7C186,121,185.3,120.7,184.6,120.2z"></path>
</g>
<g onclick="select(this)" class="" id="gola-secundaria" fill="#ededed">
	<path d="M127.5,26.2c-2.5,2.3-5.2,4.5-7.5,7.1c-0.8,0.9-1.6,1.9-2.1,3c-2.3,0.6-4.6,0.4-7,0.2c-0.6,0-1.1-0.3-1.6-0.6
		c-2.7-3.7-6.2-6.6-9.6-9.7c2.8,0,5.7-0.1,8.5-0.1C114.7,26.2,121.1,26.2,127.5,26.2z"></path>
</g>
<path d="M189.4,91.2c0-0.1,0.1-0.3,0.1-0.4c0,0,0.1,0.1,0.1,0.1C189.6,91,189.6,91.2,189.4,91.2
	C189.3,91.1,189.4,91.2,189.4,91.2z"></path>
<g onclick="select(this)" class="" id="estampa-primaria" fill="#ffffff">
	<path d="M42.5,112.8c-0.9-0.1-1.5,0.6-2.3,0.8c-2.3,0.4-4.7,0.5-7,0.6c-5.7,0.2-11.3,0-16.9-0.7c-5.1-0.6-10-1.9-14.7-3.9
		c1.7-8.9,2.5-18,4-26.9c0.9-5.2,1.2-10.6,2.2-15.8c1.7-8.5,4.5-16.6,9.7-23.7c2.1-2.9,4.5-5.5,7.3-7.7c1.4-1.1,2.4-2.6,3.9-3.4
		c3.6-1.9,7.3-3.7,11-5.3c10-4.1,20-8.2,29.5-13.4c2-1.1,4-2.1,5.5-3.9c0.8-1,2.1-1.6,3.5-1.6C77.3,8.5,76.6,9,76.4,10
		c-0.2,1,0,2.1,0.2,3.1c0.9,3.8,3.1,6.9,5.8,9.6c4.1,4.3,9,7.6,14.4,10.2c3.7,1.8,7.5,3,11.6,3.3c0.3,0,0.7,0.3,0.9-0.3
		c0.5,0.3,1,0.6,1.6,0.6c2.3,0.2,4.7,0.4,7-0.2c1.4-0.2,2.9-0.2,4.3-0.5c4.7-0.9,8.9-3,12.9-5.4c3.3-1.9,6.4-4.2,9.1-6.8
		c3.1-3,5.5-6.4,6.6-10.6c0.6-2.2,0-4.3-1.7-4.7c1.9-0.3,3.1,0.9,4.2,2.2c0.3,0.4,0.7,0.7,1.1,1c8.9,5.9,18.8,9.6,28.5,13.7
		c5.1,2.1,10,4.4,15.1,6.6c0.3,0.1,0.6,0.3,0.8,0.5c12,8.5,19.2,20.1,21.4,34.5c1.7,11.5,4.7,22.7,6.3,34.2c0.3,2.5,0.7,4.9,1.1,7.3
		c-0.6,0.3-1.2,0.6-1.9,0.8c-3.1,0.7-6,1.9-9.1,2.5c-3.9,0.8-7.9,1.6-11.9,2c-5.6,0.6-11.2,0.3-16.8,0c-1.1-0.1-2.1-0.4-3.1-1
		c0.9-6.8,2.2-13.5,4.1-20.1c0.1-0.4,0.4-0.8,0.2-1.3c0.2,0,0.2-0.1,0.2-0.3c0,0,0-0.1-0.1-0.1c0,0.1-0.1,0.3-0.1,0.4
		c-0.3,0.1-0.3,0.4-0.4,0.7c-2,4.6-3.5,9.3-4.8,14.2c-2.4,9.4-4,18.9-4.9,28.5c-0.5,4.8-0.8,9.6-1.1,14.4c-0.3,4.8-0.5,9.6-0.5,14.5
		c0,17-0.3,34.1,0.2,51.1c0.2,7.3,0.3,14.6,0.5,21.9c0.2,4.9,0.3,9.7,0.5,14.6c0.2,6,0.5,12,0.7,17.9c0.2,5,0.4,10,0.8,15.1
		c-7.7,1.1-15.4,1.4-23.1,1.5c-12.9,0.2-25.9,0.6-38.8,0.9c-6.8,0.2-13.5-0.5-20.2-0.6c-8.7-0.1-17.4-0.2-26.1-0.4
		c-8.3-0.2-16.6-0.4-24.8-1.8c0.5-3.8,0.5-7.6,0.7-11.3c0.4-5.6,0.6-11.2,0.8-16.9c0.1-4.4,0.3-8.9,0.5-13.3
		c0.3-6.3,0.4-12.5,0.5-18.8c0.1-4,0.2-8,0.2-12c0-21.4,0.6-42.8-0.7-64.2c-0.3-4.2-0.6-8.4-1-12.6c-0.4-4.6-1.1-9.1-1.8-13.7
		c-1.1-6.3-2.3-12.6-4.2-18.7c-0.6-1.9-1-3.8-1.9-5.7c-0.5,0.9,0.2,1.5,0.3,2.1c0.4,2.9,0.9,5.7,1.3,8.5
		C42.1,109,42.5,110.8,42.5,112.8z"></path>
	<path d="M127.5,26.2c-6.4,0-12.9,0-19.3-0.1c-2.8,0-5.7,0.1-8.5,0.1c-5-4.1-10.5-7.7-14.4-13.1c-0.8-1.1-1.4-2.2-1.9-3.4
		c-0.3-0.7-0.1-0.9,0.7-0.8c7.1,0.8,14.2,1.3,21.4,1.8c5.6,0.4,11.2,0.4,16.8,0c5.4-0.4,10.8-0.7,16.1-1.1c1.9-0.1,3.8-0.3,5.9-0.5
		c-0.8,2.3-2.2,4.2-3.7,6c-1.9,2.3-4.2,4.3-6.6,6.1C131.8,22.9,129.7,24.5,127.5,26.2z"></path>
</g>
<g onclick="select(this)" class="" id="estampa-secundaria" fill="#ededed">
	<path d="M180.3,284.2c-2.5,0.4-4.9,0.8-7.4,0.7c-0.2-0.1-0.4-0.2-0.6-0.2c-18.8-4.4-37.5-8.7-56.3-13.1
		c-16.4-3.8-32.7-7.6-49.1-11.4c-2.3-0.5-4.7-1.1-7.2-1.7c1.5-1.7,3-3.2,4.5-4.9c-0.8-0.2-1.4-0.3-2-0.5c-0.6-0.2-0.9,0-1.2,0.5
		c-0.9,1.5-1.8,2.9-2.7,4.4c1.3,0.6,1.3,0.6,0.3,1.7c-0.6,0.7-1.3,1.2-1.8,2c11.7,2.6,23.2,5.3,34.8,7.9c17.9,4,35.9,8.1,53.8,12.2
		c5.7,1.3,11.4,2.5,17.2,3.8c-3.4,0.1-6.8,0.3-10.1,0.3c-6.3,0-12.5,0.2-18.8,0.4c-0.3,0-0.5-0.1-0.8-0.1c-0.2-0.1-0.4-0.2-0.5-0.2
		c-9.6-2.3-19.2-4.6-28.8-7c-8.9-2.2-17.9-4.3-26.9-6.5c-9.5-2.3-19-4.6-28.5-6.9c-0.2-1.9,0.3-3.8,0.3-5.7c2.2,0.5,4.3,1,6.5,1.5
		c0.5,0.1,1,0.3,1.4-0.3c0.5-0.9,1.1-1.8,1.7-2.8c-3.2-0.8-6.3-1.5-9.4-2.2c0-1.5,0-2.9,0-4.4c0-0.4-0.1-1,0.3-1.3
		c3.8,0.8,7.5,1.6,11.3,2.4c0.4,0.1,1,0.4,1.3-0.2c0.6-0.9,1.1-1.8,1.7-2.8c-4.9-1.1-9.6-2.1-14.4-3.2c-0.2-2.1,0.3-4.1,0.3-6.1
		c5.7,1.1,11.3,2.3,17,3.4c0.7,0.1,0.6,0.5,0.3,0.9c-0.8,1.4-1.7,2.7-2.5,4.1c-0.4,0.6-0.5,1,0.4,1c0.6,0.1,1.2,0.3,1.8,0.4
		c1.1,0.1,0.8,0.5,0.3,1.1c-0.7,0.7-1.3,1.4-2,2.1c0.3,0.1,0.4,0.2,0.6,0.2c14.3,3.1,28.6,6.2,42.8,9.3c11.9,2.6,23.9,5.2,35.8,7.8
		c12.1,2.6,24.2,5.3,36.3,7.9C180.1,280.5,179.8,282.4,180.3,284.2z"></path>
	<path d="M47.8,274.8c0.1-2,0.2-4,0.3-6.1c0.3,0,0.6,0.1,0.9,0.1c4.3,1,8.5,2,12.8,3c16.2,3.7,32.4,7.5,48.6,11.2
		c4.8,1.1,9.6,2.4,14.5,3.3c-1,0.3-2.1,0.2-3.1,0.2c-9.3,0.3-18.5-0.4-27.8-0.6c-1.6,0-3.2-0.1-4.8-0.1c0.1-0.4-0.3-0.4-0.5-0.5
		c-3.7-1-7.3-1.9-11-2.8C67.7,279.9,57.7,277.4,47.8,274.8z"></path>
	<path d="M47.7,278.2c3.2,0.5,6.3,1.4,9.5,2.2c6.9,1.6,13.8,3.3,20.7,5c0.5,0.1,0.9,0.2,1.4,0.3c-3.8,0-7.7,0-11.5-0.1
		c-7-0.2-14-0.5-20.9-1.7c-0.2,0-0.3-0.1-0.4-0.2c0.7,0.1,0.8-0.4,0.8-1C47.2,281.2,47.3,279.7,47.7,278.2z"></path>
	<polygon class="st2" points="172.6,284.9 172.7,284.9 172.8,284.9 172.7,285 	"></polygon>
	<path d="M188.3,93.5c-0.4,0.8-0.7,1.6-1.1,2.5c-1.2,0-2.5,0-3.7-0.1c-4.3-0.2-8.5-0.3-12.8-0.5c-0.4,0-0.8,0.1-0.9,0.5
		c-0.9,2.8-1.8,5.5-2.7,8.4c5.9,0.2,11.6,0.4,17.4,0.6c0,0.8-0.4,1.6-0.7,2.4c-0.4,0-0.9,0-1.3,0c-5.4-0.2-10.8-0.5-16.2-0.7l0,0
		c0,0,0-0.1,0-0.1c0.4-2.1,0.4-2-1.9-2.1c-6.3-0.2-12.6-0.4-19.2-0.6c2-3.1,4-5.9,6.1-9.2c-2.2,0-4,0-5.8,0
		c-5.4-0.2-10.7-0.3-16-0.5c-6.8-0.2-13.6-0.4-20.3-0.7c-4.7-0.2-9.3-0.3-14-0.5c-6.8-0.2-13.7-0.4-20.5-0.7
		c-4.7-0.2-9.4-0.4-14.1-0.5c-6.8-0.2-13.6-0.5-20.3-0.7c-0.6,0-1.2-0.2-2-0.3c0.9-0.5,1.6-0.3,2.3-0.3c2.1,0,4.2,0.1,6.3,0.2
		c4.3,0.1,8.5,0.1,12.8,0.2c8.2,0.2,16.5,0.3,24.7,0.5c7.9,0.2,15.7,0.3,23.6,0.5c8.3,0.2,16.5,0.4,24.8,0.5
		c6.2,0.1,12.5,0.3,18.7,0.4c0.9,0,1.4-0.2,1.9-1c1.5-2.3,3-4.6,4.6-7c-1.6-0.1-3-0.2-4.4-0.2c-4.7-0.1-9.4-0.1-14.1-0.2
		c-7.2-0.1-14.4-0.2-21.6-0.4c-5.4-0.2-10.8-0.2-16.2-0.3c-7.3-0.1-14.5-0.3-21.8-0.4c-5.3-0.1-10.6-0.2-15.9-0.3
		c-9-0.3-18-0.4-27.1-0.5c-0.7,0-1.1-0.4,0.4-0.4c40.7,0,81.4,0.3,122.1,0.5c-0.1,0.8-0.7,1.2-0.9,1.9c1,0.1,1.9,0.2,2.8,0.2
		c3.7,0,7.4,0,11.1,0.2c0.8,0,1,0.2,0.7,1c-0.7,2.1-1.4,4.2-2.1,6.3c-0.3,0.8-0.1,1,0.7,1C177.3,93.2,182.8,93.4,188.3,93.5z
		 M157.7,93.2c0-0.1,0-0.2,0-0.3c-1.5,0-2.9,0-4.4,0c-0.6,0-1.7,1.1-1.6,1.5c0.2,0.7,0.9,0.3,1.3,0.3c3.4,0.1,6.8,0.2,10.2,0.3
		c1.9,0.1,3.9,0.2,5.9,0.2c0.7,0,1.6-0.9,1.4-1.8c-0.1-0.7-0.8-0.3-1.2-0.3C165.4,93.1,161.6,93.2,157.7,93.2z"></path>
	<path d="M41.8,100.8c0-0.2,0-0.3-0.1-0.5c5.8,0.2,11.6,0.3,17.4,0.5c4.5,0.1,9,0.3,13.5,0.5c5.7,0.2,11.5,0.3,17.2,0.5
		c5.1,0.2,10.2,0.3,15.3,0.5c7.4,0.2,14.8,0.4,22.3,0.7c5.1,0.2,10.3,0.4,15.4,0.5c0.8,0,1.5,0.1,2.3,0.2c0,0.7-0.7,1-0.8,1.7
		c7.3,0.6,14.6,0.6,21.9,1.2l0,0c-0.6,1.7-1.1,3.5-1.7,5.3c0.6,0,1.1,0,1.6,0c5.5,0,11,0,16.5,0c-0.1,1.3-0.4,2.6-0.7,3.8
		c-5-0.2-10-0.5-14.9-0.7c-5.3-0.3-10.7-0.5-16-0.8c-6.1-0.3-12.3-0.6-18.4-0.9c-4.2-0.2-8.4-0.4-12.6-0.6
		c-6.1-0.3-12.3-0.6-18.4-0.9c-2.3-0.1-4.5-0.2-6.8-0.3c0.3-0.1,0.6-0.1,0.9-0.1c4.5,0.1,9,0.2,13.5,0.3c3.4,0.1,6.9,0.1,10.3,0.2
		c6.4,0.1,12.8,0.2,19.2,0.3c0.4,0,0.9,0,1.2-0.4c1.3-2,2.7-4,4.1-6.1c-1.7-0.3-3.3-0.2-4.8-0.3c-7.5-0.4-15.1-0.8-22.6-1.1
		c-6.2-0.3-12.4-0.5-18.7-0.8c-7.4-0.3-14.9-0.8-22.3-1.1c-6.3-0.3-12.7-0.6-19-0.8C51.7,101.3,46.8,101,41.8,100.8z"></path>
	<path d="M177.1,73.4c-0.9,2.7-1.7,5.5-2.7,8.2c-0.3,0.9,0,1,0.8,1c5.3,0,10.6,0,16,0c0.5,0,1.4-0.4,1.5,0.6
		c0.1,1.2-0.7,2-1.7,2c-5.6-0.1-11.1-0.2-16.7-0.3c-0.9,0-0.9-0.3-0.7-1c0.1-0.3,0.2-0.7,0.4-1.1c-4.8-0.3-9.5-0.3-14.4-0.3
		c2.1-3.1,4.1-6.1,6.1-9.2c-38.5-0.3-76.8-0.5-115.2-0.8c0.5-0.4,1-0.3,1.3-0.3c5.1,0,10.2,0.1,15.4,0c23.6-0.2,47.3-0.1,70.9-0.2
		c9,0,18.1,0,27.1,0c0.4,0,1.5-0.6,0.9,0.8c-0.1,0.3,0.5,0.2,0.8,0.2C170.3,73.3,173.7,73.4,177.1,73.4
		C177.1,73.4,177.1,73.4,177.1,73.4z"></path>
	<path d="M180.7,62.4c0.3-1-0.1-1.3-1.1-1.2c-1.8,0.1-3.7,0-5.8,0c2.1-3.2,4.1-6.2,6.3-9.5c-23.9,0.3-47.6,0.6-71.2,0.9
		c0-0.1,0-0.2,0-0.3c1.7-0.1,3.5-0.1,5.2-0.2c6.1-0.2,12.2-0.2,18.3-0.4c9.4-0.3,18.8-0.5,28.1-0.7c6.5-0.1,13-0.4,19.5-0.5
		c0.8,0,1.1-0.3,1.5-0.9c1.9-2.8,3.7-5.6,5.6-8.4c0.1-0.2,0.2-0.3,0.5-0.4c-1,3.2-2,6.3-3,9.3c3.3,0,6.4,0,9.6,0
		c0.5,0,1.4-0.5,1.4,0.8c0,0.3,0,0.4,0,0.5c-3.5,0-7.1,0.1-10.6,0.1c-0.7,0-1.1,0.2-1.3,0.9c-0.8,2.5-1.6,5.1-2.5,7.6
		c-0.3,0.8-0.1,1,0.7,1c3.9-0.1,7.9-0.2,11.9-0.2c0.3,0,1-0.3,1,0.4c0,0.6-0.2,1-1.1,1C189.5,62.3,185.1,62.4,180.7,62.4L180.7,62.4
		z"></path>
	<path d="M180.7,62.4c-0.9,2.9-1.9,5.8-2.9,8.8c-0.3,0.9-0.2,1.1,0.8,1.1c5-0.1,10,0,15,0c0.5,0,1-0.1,1,0.7
		s-0.6,0.7-1,0.7c-5.5-0.1-11-0.2-16.5-0.3l0,0c0.4-1.1-0.1-1.2-1.1-1.2c-3.1,0.1-6.2,0-9.6,0c2.2-3.3,4.3-6.4,6.5-9.8
		c-30.2,0.2-60.1,0.3-90,0.4c0-0.1,0-0.2,0-0.2c0.3,0,0.5-0.1,0.8-0.1c8-0.1,16-0.1,24-0.3c4.4-0.1,8.8-0.1,13.2-0.2
		c6.3-0.2,12.5-0.1,18.8-0.3c4.4-0.1,8.9-0.1,13.3-0.2c4.2-0.1,8.4-0.1,12.6-0.2c2.7-0.1,5.4,0,8-0.2c0.3,0.4-0.4,0.6-0.2,1.2
		C175.8,62.4,178.3,62.4,180.7,62.4C180.7,62.4,180.7,62.4,180.7,62.4z"></path>
	<path d="M127.1,41.5c3.1-0.1,6.1-0.2,9.2-0.3c6.9-0.3,13.9-0.6,20.8-0.8c5.5-0.2,10.9-0.4,16.4-0.6
		c5-0.2,10.1-0.3,15.1-0.5c1.4-0.1,2.6,0.6,3.9,1.1c-21.8,0.5-43.6,1-65.4,1.5C127.1,41.8,127.1,41.6,127.1,41.5z"></path>
	<path d="M179.7,275.2c-5.3-1.2-10.7-2.3-16-3.5c-19.8-4.3-39.5-8.7-59.3-13c-12.1-2.6-24.2-5.3-36.2-8
		c-0.3-0.1-0.6-0.2-1.1-0.3c1.7-1.8,3.2-3.5,4.9-5.3c-1.8-0.4-3.4-0.7-5.2-1.1c0.6-1,1.2-1.9,1.8-3c-2.7-0.6-5.2-1.1-7.8-1.6
		c-3.9-0.8-7.8-1.6-11.7-2.4c0.1-1.9,0.2-3.8,0.3-5.7c6.8,1.3,13.5,2.7,20.3,4c2.2,0.4,2.2,0.4,3.4-1.5c0.2-0.3,0.3-0.6,0.6-0.9
		c0.5-0.7,0.6-1-0.5-1.2c-4-0.7-8-1.6-12-2.3c-4-0.8-7.9-1.5-11.9-2.3c0.1-1.8,0.2-3.5,0.3-5.3c3.6,0.6,7.2,1.2,10.7,1.9
		c5.3,1,10.7,2,16,2.9c0.5,0.1,1,0.3,1.4-0.4c0.6-1,1.2-1.9,1.8-3c-0.2-0.1-0.3-0.2-0.4-0.2c-5.3-1-10.5-1.9-15.8-2.9
		c-4.6-0.9-9.2-1.7-13.8-2.6c-0.2-1.9,0-3.7,0.2-5.6c6,1,12.1,2,18.2,3.1c4.7,0.8,9.3,1.6,14,2.5c0.4,0.1,1,0.2,1.3-0.3
		c0.7-1.1,1.4-2.2,2.1-3.4c-0.5-0.1-0.8-0.2-1.2-0.3c-6.4-1.1-12.8-2.2-19.2-3.3c-5-0.9-10-1.7-15-2.5c-0.5-1.5-0.2-3.1-0.2-4.6
		c4.5,0.7,9,1.4,13.5,2.1c8.1,1.3,16.1,2.6,24.2,3.9c0.5,0.1,0.9,0,1.2-0.5c0.6-1,1.2-2.1,1.9-3.1c0.6-0.8,0.4-1.1-0.6-1.2
		c-6.7-1-13.3-2.1-20-3.2c-6.7-1.1-13.5-2.2-20.2-3.3c-0.1-1.4-0.1-2.8,0-4.2c3.1,0.4,6.2,0.9,9.2,1.4c7.4,1.1,14.7,2.2,22.1,3.3
		c3.9,0.6,7.8,1.2,11.7,1.8c0.7,0.1,1.2-0.1,1.6-0.7c0.7-1.2,1.4-2.3,2.1-3.5c0.4-0.6,0.2-0.7-0.4-0.8c-6.8-1-13.6-2.1-20.5-3.1
		c-8.6-1.3-17.3-2.6-25.9-3.9c-0.1-1-0.1-2,0-3c5.5,0.7,11.1,1.4,16.6,2.2c6.9,0.9,13.8,1.9,20.7,2.8c4,0.6,8.1,1.1,12.1,1.7l0,0
		c-0.5,0.9-1,1.7-1.5,2.6c-0.5,0.7-0.5,0.9,0.5,1.1c5.4,0.8,10.9,1.6,16.3,2.4c0.4,0.1,0.9-0.1,1,0.4c0.1,0.4-0.4,0.6-0.6,0.8
		c-1.1,1.2-2.3,2.5-3.6,3.9c3.9,0.6,7.7,1.1,11.4,1.7c4.1,0.6,8.2,1.2,12.3,1.8c0.7,0.1,0.9,0.1,0.7-0.8c-0.4-1.6-0.6-3.2-0.8-4.8
		l0,0c4.4,0.7,8.9,1.4,13.3,2.1c0.5,0.1,0.7-0.1,0.8-0.6c0.1-1.3,0.3-2.6,0.4-3.9l0,0c1.7,0.2,3.4,0.5,5.1,0.7
		c7.6,1,15.1,2.1,22.7,3.1c0,1.7,0,3.4,0,5.1c-0.2,0-0.3,0-0.5,0c-8.2-1.3-16.5-2.5-24.7-3.8c-2.8-0.4-2.8-0.5-3.2,2.2
		c-0.4,2.7-0.4,2.7,2.4,3c0.1,0,0.2,0,0.2,0c8.7,1.3,17.4,2.6,26,3.9c0.4,2,0.2,4,0.2,6c-8.9-1.4-17.7-2.8-26.6-4.3
		c-2.9-0.5-2.9-0.5-3.1,2.3c0,0.3-0.1,0.6-0.1,0.9c-0.2,0.8,0.1,1.2,1,1.3c1.2,0.1,2.4,0.4,3.6,0.6c8.5,1.4,16.9,2.7,25.4,4.1
		c0.1,2.1,0.5,4.1,0.2,6.2c-9.9-1.7-19.8-3.4-29.6-5.2c-0.9-0.2-1.1,0.2-1.2,0.9c-0.1,1.1,0,2.2-0.3,3.3c-2-0.4-4.1-0.7-6.1-1.1
		c-0.8-0.2-0.8,0-0.7,0.7c0.4,2,0.7,4.1,1,6.1c-0.3,0-0.6,0-0.8-0.1c-15.1-2.8-30.1-5.6-45.2-8.4c-1.5-0.3-2.9-0.6-4.6-0.9
		c1.7-1.9,3.2-3.5,4.8-5.3c-4-0.7-7.7-1.3-11.4-2c-0.6-0.1-0.9,0.1-1.2,0.5c-0.8,1.4-1.7,2.7-2.5,4.1c-0.4,0.6-0.2,0.7,0.4,0.8
		c1.8,0.3,3.5,0.6,5.3,1c1.5,0.3,3,0.6,4.6,0.9c-1,1.3-2.1,2.1-3,3.5c3,0.6,5.9,1.1,8.8,1.6c11.3,2.1,22.6,4.1,33.9,6.2
		c3.5,0.6,7.1,1.3,10.6,1.9c0.6,0.1,1,0.1,0.8-0.7c-0.3-1-0.4-2-0.6-3.1c1.5,0.3,3,0.5,4.4,0.9c0.7,0.2,0.8-0.1,0.8-0.7
		c0.1-2,0.3-3.9,0.5-5.9c0.8,0.1,1.6,0.2,2.5,0.4c9.6,1.7,19.1,3.3,28.7,5c0.5,2.5,0.2,4.9,0.2,7.4c-2.9-0.5-5.8-1-8.7-1.6
		c-7.4-1.4-14.7-2.8-22.1-4.2c-0.3-0.1-0.9-0.3-1,0.1c-0.4,1-0.4,2.1-0.3,3.1c0.1,0.7,0.9,0.5,1.4,0.6c6.1,1.1,12.3,2.3,18.5,3.4
		c4.2,0.8,8.3,1.5,12.5,2.2c0.1,2.4,0.2,4.8,0.2,7.2c-6.5-1.3-13-2.5-19.5-3.8c-4.3-0.8-8.5-1.7-12.8-2.5c-0.7-0.1-1.1-0.2-1.1,0.7
		c0,0.9-0.1,1.8-0.2,2.6c-0.1,0.6,0.2,0.9,0.7,1c1.4,0.3,2.7,0.6,4.1,0.8c9.6,1.9,19.3,3.8,29,5.7c0.2,2.3-0.1,4.7,0.3,7
		c-0.9-0.2-1.7-0.3-2.6-0.5c-17.1-3.6-34.3-7.1-51.4-10.7c-16.5-3.4-33-6.9-49.6-10.4c-0.4-0.1-0.8-0.2-1.1,0.2
		c-0.7,0.8-1.4,1.5-2.3,2.4c0.7,0.2,1.3,0.3,1.8,0.4c14.8,3.1,29.6,6.1,44.4,9.2c13.6,2.8,27.1,5.6,40.7,8.4
		c6.7,1.4,13.4,2.8,20.1,4.1C179.7,269.8,179.4,272.5,179.7,275.2z M137.3,212.2c-0.1,0-0.2,0-0.2,0c-9.6-1.6-19.2-3.1-28.8-4.7
		c-0.3-0.1-0.7-0.2-1,0.1c-1.3,1.3-2.5,2.7-3.9,4.1c0.6,0.1,0.9,0.2,1.2,0.2c4.3,0.7,8.6,1.4,12.9,2.1c6.6,1.1,13.2,2.1,19.7,3.2
		c0.7,0.1,0.9,0,0.8-0.8C137.6,215,137.1,213.6,137.3,212.2c0.2,0,0.4,0,0.6,0c3.1,0.5,6.2,1,9.3,1.6c0.5,0.1,1.1,0.2,1.1-0.6
		c0.1-1.3,0.2-2.5,0.3-3.8c0.1-0.5-0.1-0.8-0.6-0.9c-3.7-0.5-7.4-1.1-11.1-1.6c-0.5-0.1-0.6,0.1-0.5,0.5
		C136.6,208.9,136.7,210.6,137.3,212.2z M139.2,223.2c-1.6,0-3.1-0.6-4.7-0.9c-9-1.5-18-3.1-27-4.7c-2.8-0.5-5.5-1-8.5-1.5
		c1.4-1.5,2.7-2.9,4-4.4c-4.7-0.8-9.2-1.5-13.7-2.2c-0.4-0.1-0.9-0.3-1.2,0.2c-0.8,1.3-1.6,2.6-2.5,4c4.5,0.8,8.8,1.6,13.4,2.3
		c-1.2,1.3-2.3,2.5-3.5,3.8c2.2,0.4,4.2,0.7,6.1,1.1c9.2,1.6,18.3,3.2,27.5,4.8c3.1,0.5,6.2,1.1,9.3,1.6c1,0.2,1.3-0.1,1.1-1.1
		C139.4,225.3,139.1,224.3,139.2,223.2c0.4,0,0.9,0,1.3,0.1c1.9,0.3,3.8,0.7,5.8,1c0.5,0.1,1.1,0.3,1.1-0.6c0.1-1.3,0.1-2.6,0.3-3.9
		c0.1-0.7-0.1-0.9-0.8-1c-2.6-0.4-5.3-0.9-7.9-1.3c-0.6-0.1-0.8,0.1-0.7,0.7C138.6,219.9,138.9,221.5,139.2,223.2z M143,245.3
		c-0.4,0.2-0.9,0-1.3-0.1c-8.6-1.7-17.3-3.4-25.9-5.1c-10.7-2.1-21.4-4.2-32.1-6.3c-0.4-0.1-0.9-0.2-1.2,0.2c-1,1.1-2,2.1-3,3.3
		c21.5,4.3,42.9,8.5,64.3,12.7C143.5,248.3,143.3,246.8,143,245.3c0.4,0.1,0.8,0.2,1.2,0.4c0.9,0.3,1.2,0,1.2-0.9
		c0.1-1.2,0.2-2.4,0.4-3.7c0.2-1.2,0-1.9-1.4-1.9c-0.5,0-1-0.1-1.4-0.3c-1.1-0.4-1,0.2-0.9,0.9C142.4,241.7,142.7,243.5,143,245.3z
		 M111.3,203c-5.8-0.9-11.2-1.7-16.7-2.5c-0.3-0.1-0.6,0-0.8,0.4c-0.8,1.3-1.6,2.5-2.4,3.8c5.1,0.8,10.1,1.7,15.1,2.5
		c0.5,0.1,0.9,0,1.3-0.4C108.9,205.5,110.1,204.3,111.3,203z M87.3,228.8c-3.3-0.6-6.3-1.2-9.3-1.7c-0.4-0.1-0.6,0.3-0.8,0.6
		c-0.7,1.2-1.5,2.4-2.2,3.5c-0.3,0.5-0.4,0.8,0.3,0.9c2.3,0.4,4.5,0.9,6.8,1.3c0.3,0.1,0.7,0.2,1-0.2
		C84.4,231.9,85.8,230.4,87.3,228.8z M68.9,241c1.9,0.4,3.6,0.8,5.3,1.1c0.3,0.1,0.6,0.1,0.8-0.1c1.4-1.5,2.8-3,4.3-4.6
		c-2.4-0.5-4.6-0.9-6.7-1.4c-0.5-0.1-0.7,0.1-0.9,0.5C70.8,238,69.9,239.4,68.9,241z"></path>
	<path d="M50,178.3c0-0.9,0-1.8,0-2.8c6.2,0.8,12.4,1.5,18.6,2.3c7.2,0.9,14.3,1.7,21.5,2.6c4.7,0.6,9.3,1.2,14,1.7
		c0.4,0.1,1,0.3,1.3-0.2c1.2-1.9,2.3-3.7,3.5-5.7c-5.8-0.8-11.4-1.5-17-2.2c-6.6-0.8-13.1-1.7-19.7-2.5c-7.4-0.9-14.9-1.9-22.3-2.9
		c0-0.9,0-1.8,0-2.8c0.5,0.1,1,0.1,1.4,0.2c4.2,0.5,8.3,0.9,12.5,1.4c6.9,0.8,13.7,1.5,20.6,2.3c4.7,0.5,9.3,1,14,1.6
		c3.9,0.4,7.8,0.9,11.8,1.3c0.4,0.1,0.9,0.2,1.2-0.3c1.1-1.8,2.2-3.5,3.3-5.3c-21.8-2.6-43.4-5.2-65-7.8c0-0.9,0-1.8,0-2.6
		c0.9,0.1,1.8,0.2,2.7,0.3c6.8,0.7,13.6,1.3,20.3,2c7.5,0.8,15,1.5,22.5,2.3c6.1,0.6,12.1,1.2,18.2,1.9c3.6,0.4,3.6,0.5,5.4-2.7
		c0.3-0.4,0.3-0.7,0-1.2c-0.4-0.9-1.2-1.7-1.4-2.8c5.3,0.6,10.6,1.1,15.8,1.6c5.8,0.6,11.5,1.2,17.3,1.8c2.7,0.3,2,0.6,2.4-2.1
		c0.1-0.7-0.1-1-0.9-1.1c-6.4-0.6-12.8-1.1-19.2-1.7c-5-0.4-10.1-0.9-15.1-1.4c-0.6-0.1-1.4-0.2-1.6,0c-0.4,0.4,0.3,1,0.5,1.4
		c0.2,0.5,0.5,0.9,0.8,1.4c-5.3-0.5-10.6-1-15.8-1.5c-7.4-0.8-14.7-1.5-22.1-2.3c-5-0.5-10.1-1.1-15.1-1.6c-5-0.5-10.1-1-15.1-1.5
		c-0.1-0.7-0.2-1.4-0.3-2.1c3.5,0.3,7,0.6,10.5,0.9c4.9,0.4,9.8,0.9,14.7,1.3c6.6,0.6,13.3,1.2,19.9,1.8c5,0.5,10.1,0.9,15.1,1.4
		c2.1,0.2,4.1,0.4,6.4,0.5c-1.4-2.6-2.7-5-4-7.5c1.9-0.1,3.6,0.2,5.3,0.3c8.5,0.7,16.9,1.5,25.4,2.3c5.8,0.5,11.5,1.1,17.3,1.6
		c0.7,0.1,1.4,0.3,2,0c1.3-0.8,2.4-1.8,4-2.9c-18.7-1.4-37-2.9-55.5-4.3c0.4,0.8,0.8,1.5,1.1,2.1c0.4,0.7,0.2,0.8-0.5,0.8
		c-2.5-0.2-5.1-0.4-7.6-0.6c-6.4-0.6-12.9-1.2-19.3-1.8c-4.9-0.4-9.8-0.9-14.8-1.3c-6.8-0.6-13.6-1.2-20.4-1.9c0-0.7,0-1.4,0-2
		c0.2,0,0.4-0.1,0.6-0.1c7.1,0.6,14.2,1.1,21.3,1.7c6.9,0.5,13.8,1.1,20.6,1.6c4,0.3,7.9,0.6,11.9,0.9c2.2,0.2,4.4,0.3,6.8,0.5
		c-1.6-2.9-3.1-5.7-4.6-8.6c23.4,1.9,46.6,3.7,70,5.6c-3.3,2.5-6.3,4.8-9.5,7.3c4.2,0.4,8.2,0.7,12.2,1.1c0,1.2-0.1,2.5-0.1,3.7
		c-4.8-0.4-9.7-0.9-14.5-1.4c-1.3-0.1-2.3,0-3.3,0.9c-1.5,1.3-3.1,2.4-4.6,3.6c-0.7,0.5-1.4,0.9-2.1,1.8c8.2,0.7,16.3,1.4,24.3,2.1
		c0.2,1.3-0.1,2.5-0.2,3.8c-5.3-0.5-10.6-1-15.8-1.6c-2.6-0.3-5.2-0.5-7.9-0.8c-0.5-0.1-0.9-0.1-1,0.6c-0.1,1.8-0.3,3.5-0.5,5.2
		c-0.1,0.6,0.1,0.8,0.8,0.9c1.9,0.1,3.8,0.4,5.7,0.6c6.1,0.6,12.3,1.2,18.4,1.8c0,1.7,0,3.4,0,5.1c-3.4-0.4-6.7-0.8-10.1-1.2
		c-4.8-0.6-9.6-1.1-14.4-1.7c-0.6-0.1-0.9,0-1,0.8c-0.1,1.7-0.3,3.3-0.4,5c-3.1-0.3-6.2-0.6-9.3-1c-5.6-0.6-11.1-1.3-16.6-1.9
		c-4.4-0.5-8.9-1-13.3-1.4c-0.5-0.1-1-0.2-1.3,0.3c-0.6,0.9-1.2,1.9-1.8,2.9c3.8,0.5,7.5,1,11.2,1.4c6,0.8,12,1.5,18,2.3
		c3.9,0.5,7.8,1,11.6,1.5c0.7,0.1,1.1,0,1.1-0.9c0-1.1,0.3-2.3,0.4-3.4c8.7,1,17.4,1.9,26.1,2.9c0.1,1.7,0.1,3.3,0,5
		c-8.4-1.1-16.7-2.1-25.1-3.3c-1.1-0.1-1.5,0-1.5,1.2c0,1.6-0.3,3.2-0.4,4.7l0,0c-2.8,0.1-5.4-0.6-8.2-0.8c-3-0.3-6-0.7-9-1.1
		c-0.7-0.1-0.9,0.1-0.8,0.8c0.3,1.1,0.4,2.2,0.6,3.3c-2.8-0.4-5.6-0.7-8.6-1.1c1.2-1.3,2.2-2.4,3.3-3.6c-6.9-0.8-13.6-1.5-20.2-2.5
		c-2.2-0.4-3.2,0.5-4,2.2c-0.3,0.7-0.3,0.9,0.5,1c5.3,0.7,10.6,1.4,15.9,2.2c1.5,0.2,2.9,0.4,4.6,0.7c-1.8,2-3.5,3.8-5.2,5.6
		c0.2,0.1,0.2,0.2,0.3,0.2c4.5,0.6,8.9,1.2,13.4,1.8c1,0.1,1-0.3,0.9-1.1c-0.4-1.8-0.8-3.6-0.9-5.4c5.6,0.8,11.2,1.6,16.7,2.3
		c0.1,0.1,0.1,0.1,0.2,0.2c-0.1,2-0.2,4.1-0.6,6.1l0,0c-0.6,0.1-1.1,0-1.7-0.1c-4.3-0.6-8.5-1.2-12.8-1.8c-0.7-0.1-0.7,0.1-0.6,0.7
		c0.3,1.2,0.4,2.4,0.6,3.5l0,0c0,0-0.1,0-0.1,0c-6.2-0.7-12.3-1.9-18.4-2.7c-0.7-0.1-0.4-0.4-0.1-0.7c0.9-1,1.7-1.9,2.7-3
		c-3.3-0.4-6.4-0.9-9.5-1.3c-3.4-0.5-6.9-1-10.3-1.5l0,0c1.1-1.8,2.1-3.6,3.2-5.3c0.4-0.7,0.3-0.9-0.5-0.9c-2.2-0.3-4.4-0.6-6.6-0.9
		c-7.9-1.1-15.7-2.2-23.6-3.3C64.6,180.3,57.3,179.3,50,178.3z M114.9,166.8c3.7,0.4,7.2,0.8,10.7,1.2c8.4,1,16.7,2,25.1,3
		c0.9,0.1,1.4,0,1.4-1.1c0-0.8,0.1-1.5,0.2-2.3c0.1-0.7-0.1-0.9-0.8-1c-2.3-0.2-4.5-0.5-6.8-0.7c-5.2-0.5-10.4-1.1-15.6-1.6
		c-3.7-0.4-7.4-0.7-11.1-1.1c-0.5-0.1-0.9-0.1-1.2,0.5C116.2,164.8,115.6,165.7,114.9,166.8z M131.6,181.4c-1.2,1.3-2.2,2.4-3.4,3.6
		c1.2,0.4,2.3,0.3,3.4,0.5c0.5,0.1,0.7-0.1,0.6-0.7C132,183.7,131.8,182.6,131.6,181.4z"></path>
	<path d="M44.2,109c7,0.3,13.9,0.6,20.9,1c6.8,0.3,13.7,0.7,20.6,1c2.3,0.1,4.5,0.3,6.8,0.4c0.6,0,1,0.2,1.2,0.8
		c0.3,0.7,0.8,0.9,1.5,0.9c7.5,0.4,15.1,0.8,22.6,1.3c6.8,0.4,13.6,0.8,20.4,1.2c6.7,0.4,13.4,0.8,20.2,1.2
		c6.8,0.4,13.6,0.8,20.4,1.2c0.9,0.1,1.8,0.2,2.7,0.3c-0.3,3-0.9,5.9-1.5,8.8c-3.7-0.1-7.4-0.4-11.1-0.6c-6.9-0.4-13.8-0.8-20.7-1.2
		c-6.8-0.4-13.6-0.8-20.4-1.2c-8.9-0.5-17.8-1-26.6-1.5c-1.7-0.1-1.7-0.1-1.3,1.4l0,0c-1.9-0.1-3.9-0.3-5.8-0.4
		c-7.5-0.5-15-1-22.5-1.5c-8.4-0.6-16.8-1.2-25.1-1.7c-0.1-0.3-0.4-0.7-0.3-1.1c4.7,0.3,9.4,0.6,14.1,0.8c6.9,0.4,13.8,0.8,20.7,1.2
		c5.1,0.3,10.3,0.6,15.4,0.9c0.8,0,1.7,0.2,2.7,0c-1.6-2.9-3.1-5.7-4.6-8.5c-0.2-0.4-0.5-0.5-1-0.5c-3.2-0.2-6.4-0.4-9.7-0.6
		c-4.9-0.3-9.7-0.5-14.6-0.8c-8.2-0.5-16.5-1-24.7-1.5C44.3,109.7,44.1,109.4,44.2,109z"></path>
	<path d="M47.8,129.4c0-0.3,0-0.6,0-0.9c0.3,0,0.5-0.1,0.8,0c5.9,0.4,11.8,0.8,17.6,1.2c6.8,0.5,13.7,0.9,20.5,1.4
		c4.1,0.3,8.2,0.6,12.3,0.9c1.8,0.1,3.6,0.2,5.5,0.3c-1.6-2.9-3.1-5.7-4.7-8.4l0,0c5.6,0.3,11.1,0.7,16.7,1.1c7.5,0.6,15,1,22.5,1.5
		c8.4,0.6,16.7,1.2,25,1.8c5.2,0.4,10.4,0.7,15.6,1.1c-0.2,1.8-0.3,3.6-0.5,5.4c-0.2,1.7-0.4,3.4-0.5,5.1c-1.1-0.1-2.2-0.2-3.4-0.3
		c0.8-0.9,1.8-1.3,2.5-2.2c-1.3-0.1-2.5-0.2-3.7-0.3c-6.9-0.5-13.8-0.9-20.8-1.4c-6.6-0.4-13.2-0.9-19.8-1.3
		c-9.2-0.6-18.4-1.3-27.7-1.9c-0.9-0.1-1.4,0-0.7,1c0.1,0.1,0.2,0.3-0.1,0.6C86.1,132.5,66.9,130.9,47.8,129.4z"></path>
	<path d="M150.5,187.7c4.3,0.6,8.5,1.1,12.8,1.6c4.7,0.6,9.5,1.2,14.2,1.7c0.1,1.7,0.1,3.3,0,5
		c-5.5-0.8-10.9-1.5-16.4-2.3c-3.5-0.5-7-1-10.5-1.5c-0.1,0-0.3,0-0.5,0.1c-0.1-0.1-0.1-0.1-0.2-0.2
		C150.4,190.7,150.1,189.2,150.5,187.7L150.5,187.7z"></path>
</g>
</svg>
