<!--?xml version="1.0" encoding="utf-8"?-->
<!-- Generator: Adobe Illustrator 24.2.3, SVG Export Plug-In . SVG Version: 6.00 Build 0)  -->
<svg version="1.1" id="Camada_1" xmlns="http://www.w3.org/2000/svg" xmlns:xlink="http://www.w3.org/1999/xlink" x="0px" y="0px" viewBox="0 0 229 418" style="enable-background:new 0 0 229 418;" xml:space="preserve">
<style type="text/css">
	.st0{fill:#D90303;}
	.st1{fill:#79D5FA;}
	.st2{fill:#9B1118;}
	.st3{fill:#0906FE;}
</style>
<g onclick="select(this)" class="" id="gola-primaria" fill="#000000">
	<path d="M78,8c0.5-0.1,1-0.4,1.4-0.7c1-0.9,2-1.7,2.8-2.8c1.8-2.5,4.4-3.4,7.2-3.8c0.6-0.1,1.4,0.1,1.9-0.5
		c1.2,0,2.4,0,3.6,0c0.2,0.5,0.6,0.3,0.9,0.3c5.6,0,11.2,0,16.7,0c0.4,0,0.8-0.1,1.1-0.3c7.5,0,15,0,22.6,0c0.1,0.5,0.5,0.3,0.8,0.4
		c0.9,0.1,1.8,0.3,2.7,0.4c2.1,0.3,3.9,1.1,5.2,2.9c1.3,1.7,2.7,3.2,4.6,4.3c1.3,0.6,1.9,1.5,1.9,3c-0.2,3.5-1.9,6.3-3.8,9
		c-0.7,0.9-1.1,0.8-1.9,0.2c-1.5-1.2-3-2.4-4.6-3.5c-1-0.7-1.1-1.1-0.2-2.1c1.5-1.6,2.7-3.5,3.5-5.8c-3.8,0.3-7.4,0.6-11,0.8
		c-6.1,0.4-12.1,0.8-18.2,1.1c-4.9,0.2-9.7-0.4-14.6-0.7c-5.3-0.4-10.7-0.9-16-1.4c-1.3-0.1-1.4,0-0.9,1.2c0.8,2,2.1,3.6,3.5,5.1
		c0.4,0.5,0.8,0.9,0.1,1.5c-1.8,1.4-3.5,2.8-5.2,4.2c-0.5,0.4-0.9,0.3-1.3-0.2c-2-2.4-3.5-5.1-4.2-8.1C76.1,10.8,76,9,78,8z"></path>
</g>
<g onclick="select(this)" class="" id="estampa-primaria" fill="#000000">
	<path d="M43.2,120.4c-0.1-2.3-0.2-4.5-0.6-6.8c-0.1-0.6-0.2-0.8-0.8-0.5c-2.6,1.1-5.4,1.2-8.1,1.5c-2.5,0.2-5,0-7.5-0.1
		c-4.3-0.1-8.7-0.2-13-1c-3.4-0.6-6.8-1.5-10-2.8c-0.6-0.3-1.2-0.6-1.7-1c1.8-9.4,2.7-19,4.2-28.4c0.9-5.2,1.2-10.4,2.3-15.5
		c1.8-8.2,4.5-15.9,9.6-22.7c2.1-2.8,4.5-5.3,7.2-7.5c1.4-1.1,2.4-2.6,3.9-3.4c3.6-1.9,7.3-3.7,11-5.3c10-4.1,20-8.2,29.4-13.4
		c2-1.1,4-2.1,5.5-3.9c0.8-1,2-1.6,3.4-1.6c-2,1-1.9,2.9-1.5,4.6c0.6,3.1,2.2,5.7,4.2,8.1c0.4,0.5,0.7,0.6,1.3,0.2
		c1.7-1.4,3.5-2.8,5.2-4.2c0.7-0.6,0.4-1-0.1-1.5c-1.4-1.5-2.7-3.2-3.5-5.1c-0.5-1.2-0.4-1.3,0.9-1.2c5.3,0.5,10.7,1,16,1.4
		c4.9,0.3,9.7,0.9,14.6,0.7c6.1-0.3,12.1-0.7,18.2-1.1c3.6-0.2,7.2-0.6,11-0.8c-0.8,2.2-2,4.1-3.5,5.8c-0.9,0.9-0.8,1.4,0.2,2.1
		c1.6,1.1,3.1,2.3,4.6,3.5c0.7,0.6,1.2,0.8,1.9-0.2c1.9-2.7,3.6-5.6,3.8-9c0.1-1.5-0.5-2.4-1.9-3c1.8-0.1,3,1,4,2.2
		c0.3,0.4,0.7,0.7,1.1,1c10,6.6,21.2,10.6,32.1,15.2c4,1.7,7.8,3.6,11.8,5.3c1.2,0.5,1.9,1.6,3,2.4c3.5,2.6,6.7,5.7,9.4,9.2
		c4.8,6.4,7.6,13.7,9.3,21.5c0.6,2.9,1.2,5.8,1.5,8.7c0.6,5.8,2.3,11.4,3.4,17c1.1,5.5,1.7,11.1,2.8,16.5c0.1,0.3,0,0.6,0.1,1
		c-3.3,1.3-6.7,2.4-10.1,3.2c-3,0.7-6.1,1.1-9.2,1.6c-3.1,0.5-6.2,0.8-9.3,0.7c-4.2,0-8.5,0.3-12.7-0.6c-1.2-0.3-1.4,0.1-1.6,1.1
		c-0.4,1.9-0.3,3.9-0.3,5.8c-0.6,2-0.5,4.1-0.8,6.1c-0.9,7.1-1.3,14.3-1.4,21.5c0,2.2,0.1,4.5,0.5,6.7c0.4,1.9,0,3.8-0.2,5.7
		c-0.2,2.1-0.3,4.2-0.1,6.3c0.2,2.5-0.2,5-0.2,7.5c0,2.6-0.1,5.2,0.2,7.8c0.2,2.4-0.2,4.8-0.2,7.2c0,2.3,0.5,4.4,1,6.6
		c1.6,7.3,1.4,14.5,0.3,21.8c-0.3,2.1-0.4,4.2,0.3,6.4c1.8,5.4,1.8,11,0.9,16.6c-0.2,1.5-0.3,2.9,0.1,4.4c0.9,3.9,0.4,7.8,0.6,11.7
		c0.3,5.9,0.7,11.7,1.4,17.6c0.3,2,0.2,4.1,0.3,6.2c0,1.7-0.4,2.2-2.1,2.7c-3,0.9-6.1,1.2-9.2,1.5c-8.3,0.9-16.7,0.9-25,1
		c-11.6,0.2-23.2,0.8-34.8,0.8c-11.5,0-23-0.8-34.5-0.9c-8.4,0-16.7-0.1-25.1-0.7c-4.3-0.3-8.5-0.8-12.7-1.7
		c-3.5-0.8-3.9-1.2-3.7-4.8c0.4-7.7,1-15.4,1.5-23.1c0.1-2,0.3-4.1,0.2-6.1c0-1.8,0-3.7,0.4-5.5c0.4-2.2,0.4-4.4,0.1-6.7
		c-0.4-2.5-0.1-5,0.4-7.5c0.2-1,0.2-2,0.1-3.1c-0.3-4.5-1-9.1-0.8-13.6c0.2-4.3,1.2-8.5,2.7-12.5c0.4-1,0.6-2,0.5-3.1
		c-0.2-1.2-0.2-2.5,0.1-3.7c0.3-1.7,0.2-3.3,0.1-5c-0.2-3.3-0.2-6.6-0.2-9.9c-0.1-12.9,0-25.8-0.1-38.7c0-5.2-1-10.3-1.6-15.5
		C43.6,123,43.8,121.6,43.2,120.4z"></path>
</g>
<g onclick="select(this)" class="" id="detalhe-punho" fill="#bf0811">
	<path d="M0.2,114.7c0.6-1.1,0.4-2.4,0.7-3.6c0.1-0.5,0.1-1,0.4-1.5c0.6,0.4,1.1,0.8,1.7,1c3.2,1.3,6.6,2.2,10,2.8
		c4.3,0.8,8.6,0.9,13,1c2.5,0.1,5,0.3,7.5,0.1c2.7-0.3,5.5-0.3,8.1-1.5c0.6-0.2,0.7-0.1,0.8,0.5c0.4,2.2,0.5,4.5,0.6,6.8
		c-0.6,0.6-1.3,0.7-2,0.9c-2.3,0.6-4.5,1-6.9,1c-7.6,0.1-15.2,0.2-22.7-1.2c-3.1-0.6-6.1-1.2-9.1-2.2c-0.8-0.3-1.5-0.6-2.3-0.9
		C0.2,117,0.2,115.8,0.2,114.7z"></path>
	<path d="M184.6,120.2c-0.1-2-0.1-3.9,0.3-5.8c0.2-1,0.4-1.4,1.6-1.1c4.2,0.9,8.4,0.6,12.7,0.6c3.1,0,6.2-0.2,9.3-0.7
		c3.1-0.5,6.1-0.9,9.2-1.6c3.5-0.8,6.8-1.9,10.1-3.2c1,2.4,1.3,5,1.2,7.6c0,0.8-0.8,0.9-1.3,1.1c-2.6,1-5.2,1.7-7.9,2.4
		c-9,2.5-18.3,3-27.6,2.6c-2.1-0.1-4.1-0.3-6.1-0.9C185.5,120.8,185,120.6,184.6,120.2z"></path>
</g>
<path d="M228.7,112.1c0.1,0,0.2,0,0.3-0.1c0,0.6,0,1.3,0,1.9C228.9,113.4,228.6,112.8,228.7,112.1z"></path>
<path d="M0.2,114.5c0.1,0,0.1,0.1,0.2,0.1c0,0.3,0.1,0.6-0.2,0.9C0.2,115.1,0.2,114.8,0.2,114.5z"></path>
<path d="M43.7,122.7c0.2,0.2,0.2,0.5,0.1,0.7C43.6,123.2,43.6,123,43.7,122.7z"></path>
<path d="M43.9,125.2c0.2,0.1,0.2,0.3,0,0.4C43.8,125.5,43.8,125.3,43.9,125.2z"></path>
<path d="M44.2,127.3c0.2,0.1,0.2,0.1,0,0.2C44.2,127.5,44.1,127.5,44.2,127.3C44.1,127.4,44.1,127.3,44.2,127.3z"></path>
<path d="M39.4,93.4c-0.1-0.1-0.1-0.3-0.2-0.4c0,0,0.1,0,0.1,0C39.3,93.1,39.3,93.2,39.4,93.4
	C39.4,93.4,39.4,93.4,39.4,93.4z"></path>
<path d="M38.4,90C38.4,90,38.4,90,38.4,90C38.3,90,38.4,90,38.4,90C38.4,90,38.4,90,38.4,90z"></path>
<g onclick="select(this)" class="" id="estampa-secundaria" fill="#bf0811">
	<path d="M43.1,230.8c6.5,0,12.9,0,19.4,0c3.4,0,6.8,0,10.2,0c37.2,0,74.3,0,111.5,0c0.4,0,0.7,0,1.1,0
		c0.2,1,0.3,1.9,0.2,2.9c-0.5,0-1,0-1.6,0c-46.6,0-93.2,0-139.7,0c-0.5,0-1,0-1.6,0C42.6,232.7,42.6,231.7,43.1,230.8z"></path>
	<path d="M43.6,205.6c2.8,0,5.7,0,8.5,0c43.6,0,87.1,0,130.7,0c0.6,0,1.2,0,1.8,0c0.2,1,0.2,2,0,2.9c-0.5,0-1,0-1.6,0
		c-46.2,0-92.4,0-138.5,0c-0.5,0-1,0-1.6-0.1c0-0.1,0-0.2,0-0.3c0-0.1,0-0.2,0.1-0.3C43.2,207.1,43.2,206.3,43.6,205.6z"></path>
	<path d="M41.9,256.2c0.6,0,1.1-0.1,1.7-0.1c46.8,0,93.5,0,140.3,0c1.2,0,1.9,0.2,1.9,1.5c0,0.4,0,0.9,0,1.3
		c-47.7,0-95.4,0-143.1,0c-0.3,0-0.6-0.1-1-0.1c0-0.1,0-0.2,0-0.3c0.2-0.3,0.2-0.7,0.1-1C41.8,257.1,41.9,256.7,41.9,256.2z"></path>
	<path d="M40.6,281.3c48.4,0,96.8,0,145.2,0c0.5,0,1.2-0.4,1.5,0.5c-0.4,0.9-1.3,1.1-2.1,1.4c-1.8,0.5-3.6,0.7-5.4,1
		c-1.1,0-2.2,0-3.4,0c-40.9,0-81.9,0-122.8,0c-1.2,0-2.3,0-3.5,0c-2.6-0.3-5.3-0.6-7.8-1.5C41.7,282.4,40.9,282.3,40.6,281.3z"></path>
	<path d="M183.2,132.8c-0.5,0-1,0-1.4,0c-45.1,0-90.3,0-135.4,0c-0.6,0-1.4,0.2-1.6-0.8c0-0.3,0-0.6-0.1-0.9
		c-0.1-1,0.3-1.2,1.2-1.2c43,0,86,0,129,0c2.5,0,5,0,7.4,0c0.4,0,0.9-0.2,1.1,0.4C183.4,131.2,183.3,132,183.2,132.8z"></path>
	<path d="M182.7,183.4c-21.9,0-43.8,0-65.7,0c-23.3,0-46.6-0.1-69.9-0.1c-0.4,0-0.9-0.1-1.3-0.1c0-0.5-0.1-0.9-0.1-1.4
		c-0.2-1.2,0.4-1.3,1.4-1.3c25.3,0,50.7,0.1,76,0c19.8-0.1,39.6,0,59.4-0.1C182.8,181.4,182.8,182.4,182.7,183.4z"></path>
	<path d="M45.5,155.2c0.5,0,1,0,1.6,0c44,0,88,0,132,0c1.4,0,2.7,0,4.1,0.1c0.2,0.8,0,1.5,0,2.3
		c-0.2,0.4-0.4,0.6-0.9,0.6c-0.8,0-1.7,0-2.5,0c-44.2,0-88.4,0-132.6,0c-0.6,0-1.1-0.1-1.7-0.1C45.5,157.1,45.5,156.1,45.5,155.2z"></path>
	<path d="M114,106.3c23.5,0,47,0,70.5,0c0.5,0,1.5-0.5,1.5,0.5c0,1.8-0.4,2.2-1.6,2.2c-38.7,0-77.3,0-116,0
		c-8.3,0-16.6,0-24.8,0c-0.4,0-1.1,0.3-1.3-0.3c-0.2-0.7-0.3-1.5-0.3-2.2c0-0.3,0.4-0.3,0.6-0.3c0.6,0,1.1,0,1.7,0
		C67.5,106.2,90.7,106.2,114,106.3C114,106.2,114,106.2,114,106.3z"></path>
	<path d="M114,109.5c23.4,0,46.8,0,70.2,0c0.4,0,1.3-0.6,1.3,0.5c0,2.1-0.2,2.4-1.4,2.4c-38,0-76.1,0-114.1,0
		c-8.6,0-17.3,0-25.9,0c-0.5,0-1.1,0.3-1.3-0.3c-0.3-0.7-0.4-1.6-0.3-2.3c0-0.5,0.7-0.3,1-0.3c4.3,0,8.6,0,12.8,0
		C75.5,109.5,94.7,109.5,114,109.5z"></path>
	<path d="M114.2,96.5c13.1,0,26.2,0,39.4,0c11.1,0,22.2,0,33.2,0.1c0.4,0,1.2-0.4,1.1,0.5c-0.1,0.7,0.1,1.8-1.2,1.6
		c-0.2,0-0.4,0-0.6,0c-33,0-65.9,0-98.9,0c-15.1,0-30.2,0-45.4,0c-0.6,0-1.3,0.2-1.5-0.8c-0.3-1.5-0.3-1.5,1.2-1.5
		C65.8,96.5,90,96.5,114.2,96.5z"></path>
	<path d="M114.1,99.8c23.9,0,47.8,0,71.8,0c0.5,0,1.3-0.5,1.4,0.5c0.1,1.3-0.4,1.8-1.5,1.8c-15.3,0-30.6,0-46,0
		c-32.4,0-64.7,0-97.1,0c-1.5,0-1.8-0.4-1.8-1.9c0-0.4,0.1-0.5,0.5-0.5c0.4,0,0.7,0,1.1,0C66.3,99.7,90.2,99.7,114.1,99.8
		C114.1,99.8,114.1,99.8,114.1,99.8z"></path>
	<path d="M114.1,103.1c23.7,0,47.3,0,71,0c0.5,0,1.4-0.6,1.4,0.6c0.1,1.5-0.3,1.9-1.5,1.9c-28.1,0-56.1,0-84.2,0
		c-19.2,0-38.4,0-57.6,0c-1.4,0-2-0.7-1.8-2.1c0-0.3,0.2-0.4,0.5-0.4c0.4,0,0.7,0,1.1,0C66.7,103,90.4,103,114.1,103.1
		C114.1,103,114.1,103,114.1,103.1z"></path>
	<path d="M114.2,90c24.8,0,49.5,0,74.3,0c0.5,0,1.3-0.4,1.3,0.4c0,0.8-0.5,1.3-1.5,1.3c-24.7,0-49.4,0-74.2,0
		c-24.5,0-49,0-73.6,0c-0.3,0-0.6,0-1,0c-1,0-1-0.8-1-1.3c-0.1-0.7,0.6-0.4,1-0.4c22.5,0,45,0,67.6,0C109.5,90,111.8,90,114.2,90
		C114.2,90,114.2,90,114.2,90z"></path>
	<path d="M188.8,93.3c-0.3,1.9-0.3,1.9-2,1.9c-32.8,0-65.6,0-98.4,0c-15.7,0-31.4,0-47.2,0c-0.5,0-1.2,0.3-1.5-0.6
		c-0.4-1.2-0.4-1.4,0.9-1.4c37.8,0,75.5,0,113.3,0c11.2,0,22.4,0,33.6,0C188,93.3,188.4,93.3,188.8,93.3z"></path>
	<path d="M191.3,86.8c-0.2,1.3-0.9,1.5-2,1.5c-33.5,0-66.9,0-100.4,0c-16.5,0-33,0-49.4,0c-0.3,0-0.6,0-0.8,0
		c-0.9,0.1-1.2-0.5-1.2-1.1c0-0.8,0.7-0.4,1.1-0.4c14,0,28.1,0,42.1,0c36.4,0,72.8,0,109.2,0C190.3,86.8,190.7,86.8,191.3,86.8z"></path>
	<path d="M114.3,83.6c25.4,0,50.9,0,76.3,0c0.4,0,0.7,0,1.1,0c0.3,0,0.7-0.1,0.6,0.4c0,0.3-0.1,0.8-0.6,0.8
		c-0.4,0-0.8,0-1.2,0c-50.9,0-101.8,0-152.6,0c-0.2,0-0.4,0-0.6,0c-0.7,0.1-1.3,0-1.2-0.9c0.1-0.8,0.8-0.4,1.1-0.4
		c12.9,0,25.8,0,38.8,0C88.8,83.6,101.6,83.6,114.3,83.6z"></path>
	<path d="M34.7,80.3c0.5,0,1,0,1.4,0c52,0,104,0,156,0c0.5,0,1.3-0.4,1.4,0.4c0.1,1-0.9,0.6-1.5,0.6
		c-51.9,0-103.7,0-155.6,0C35.7,81.3,34.9,81.5,34.7,80.3z"></path>
	<path d="M113.7,74.6c-26.4,0-52.9,0-79.3,0c-0.5,0-1.3,0.4-1.3-0.4c0-0.6,0.9-0.3,1.3-0.3c52.9,0,105.7,0,158.6,0
		c0.5,0,1.4-0.4,1.4,0.4c0,0.7-0.9,0.3-1.4,0.3C166.6,74.6,140.1,74.6,113.7,74.6z"></path>
	<path d="M114,77.9c-26.3,0-52.6,0-78.9,0c-0.5,0-1.5,0.4-1.4-0.5c0-0.6,0.9-0.3,1.4-0.3c52.1,0,104.2,0,156.3,0
		c0.8,0,1.6,0,2.4,0c0.2,0,0.5,0,0.5,0.3c0,0.3-0.2,0.4-0.5,0.4c-0.4,0-0.7,0-1.1,0C166.4,77.9,140.2,77.9,114,77.9z"></path>
</g>
</svg>
