<!--?xml version="1.0" encoding="utf-8"?-->
<!-- Generator: Adobe Illustrator 24.2.3, SVG Export Plug-In . SVG Version: 6.00 Build 0)  -->
<svg version="1.1" id="Camada_1" xmlns="http://www.w3.org/2000/svg" xmlns:xlink="http://www.w3.org/1999/xlink" x="0px" y="0px" viewBox="0 0 234 419" enable-background="new 0 0 234 419" xml:space="preserve">
<g onclick="select(this)" class="" id="c-estampa-primaria" fill="#bf0811">
	<path d="M203.8483276,32.2845345c0.2733459,0.1604347,0.5708313,0.2904778,0.8165588,0.4856949
		c10.1933899,8.0975609,16.7267914,18.4918518,19.7408295,31.162365c1.3155975,5.5304718,2.1200409,11.1263275,2.858902,16.7504196
		c0.7853394,5.9780731,2.0124207,11.8930359,2.7431183,17.882164c0.5366821,4.3988495,1.4192352,8.7404556,2.1559143,13.1059036
		c0.2952118,1.7492828,0.7397766,3.4733658,1.1163635,5.2089233c0,1.0400009,0,2.0799942,0,3.1200027
		c-3.4725342,0.6932068-6.930191,1.4599991-10.4356842,1.9851532c-7.909256,1.1848984-15.839798,2.074646-23.8575287,1.8457947
		c-2.7822266-0.0794144-5.4807281-0.4779205-7.9298401-1.9480133c-0.9024353-0.5416794-2.1662292-0.2684326-2.9029846-1.2300415
		c0.2689056-1.316597,0.0010986-2.6468201,0.1371002-3.9802017c0.2865295-2.8091431,0.8761597-5.6096573,0.7208099-8.4386902
		c-0.0996094-1.8141556-0.0415955-3.6085663,0.2869263-5.3606339c0.6317139-3.3688889,1.312149-6.7053375,1.3780975-10.1658249
		c0.0653229-3.4284363,0.5329742-6.8417206,1.217804-10.212204c0.3261261-1.605011,0.6104584-3.3583603,1.8852844-4.4149857
		c1.1981354-0.9930725,1.8749847-2.2294006,2.6460571-3.4743271c2.2872925-3.6928635,3.1263275-7.9172363,4.4207764-11.9716034
		c1.6056061-5.028965,2.8253326-10.1539421,3.0865784-15.4427185c0.2150421-4.3534508,0.0613708-8.7109032-0.3554077-13.0557632
		C203.518631,33.5170288,203.4064331,32.8490295,203.8483276,32.2845345z"></path>
	<path d="M0.2399999,116.4000015c0.3990944-1.8923798,0.7992355-3.7845383,1.1970596-5.6771851
		c0.7556592-3.5950546,1.2740115-7.2296906,1.7788073-10.8652725c0.9360778-6.7417145,2.825887-13.2774429,4.2380676-19.9160233
		c0.9136658-4.2950897,1.1781807-8.706604,2.153883-12.9992218c1.6027317-7.0512238,3.8376999-13.8576126,7.7096853-20.0301361
		c2.8096981-4.4790878,6.324873-8.3409996,10.4916496-11.5832138c1.2201462-0.9494095,2.1714745-2.2272186,3.5975418-2.9156609
		c0.409853,0.666275,0.4419289,1.4347534,0.1384087,2.0693893c-0.2150822,0.4497261-0.1618748,0.7929611-0.1443195,1.219677
		c0.0343647,0.8352852,0.0157471,1.6772995-0.048336,2.5113487c-0.40481,5.2684479-0.3184166,10.5060234,0.6754837,15.7215576
		c0.9136086,4.7941971,2.5120468,9.3893089,3.8648491,14.0578041c0.9538612,3.291748,2.4152756,6.3087997,4.3255997,9.1502914
		c0.9040985,1.3447723,1.7531815,2.7823563,2.0989113,4.4021835c0.2641869,1.2378159,0.280941,2.5299911,0.5647278,3.7618179
		c1.2920685,5.6083755,1.5528221,11.352562,2.3044205,17.0313797c0.3198624,2.4167786,0.1186905,4.8932114,0.9038048,7.2596741
		c0.9446297,2.8472748,0.1950264,5.7997513,0.4697762,8.6912003c-0.4242439,0.4347839-0.2552528,0.9883957-0.2157631,1.4687347
		c0.0981255,1.1936569-0.469677,1.5954437-1.5789909,1.757782c-6.8482971,1.0021515-13.6845665,1.0294418-20.5538177,0.1363907
		c-7.7710991-1.0103149-15.5229464-2.1032791-23.1701088-3.8450317c-0.2689152-0.0612564-0.5343078-0.13797-0.8013411-0.2074814
		C0.24,117.2000046,0.24,116.8000031,0.2399999,116.4000015z"></path>
	<path d="M81.8232574,7.9648337c1.9933167,0.3221059,4.0146713,0.3454776,6.0174026,0.6403394
		c4.3357544,0.6383495,8.6800003,1.2529688,13.0565796,1.560708c3.2247009,0.2267456,6.4560852,0.363286,9.6786346,0.6149645
		c9.567894,0.7472448,19.0577316-0.3929892,28.5633621-1.1391401c4.1289215-0.3241014,8.2169189-0.9859085,12.2993622-1.6656408
		c0.7037048-0.1171703,1.4390411,0.1179075,2.1116333-0.2282166c2.0036774,0.1278214,3.4710236,1.1499076,4.7623596,2.6351333
		c1.0020447,1.1525259,2.4355469,1.7944489,3.754364,2.5350866c9.5250549,5.3492413,19.5428925,9.6384945,29.6755066,13.6653862
		c3.976944,1.5805149,7.6895142,3.714653,11.6385498,5.343462c0.1751404,0.0722351,0.3122711,0.2365589,0.4672089,0.3578014
		c-0.4417877,0.564312-0.3295898,1.2323112-0.2702179,1.8512306c0.4167786,4.3448601,0.5704498,8.7023125,0.3554077,13.0557632
		c-0.2612457,5.2887764-1.4809723,10.4137535-3.0865784,15.4427185c-1.2944489,4.0543671-2.1334839,8.2787399-4.4207764,11.9716034
		c-0.7710724,1.2449265-1.4479218,2.4812546-2.6460571,3.4743271c-1.274826,1.0566254-1.5591583,2.8099747-1.8852844,4.4149857
		c-0.6848297,3.3704834-1.1524811,6.7837677-1.217804,10.212204c-0.0659485,3.4604874-0.7463837,6.796936-1.3780975,10.1658249
		c-0.3285217,1.7520676-0.3865356,3.5464783-0.2869263,5.3606339c0.1553497,2.8290329-0.4342804,5.6295471-0.7208099,8.4386902
		c-0.1360016,1.3333817,0.1318054,2.6636047-0.1371002,3.9802017c-0.4350891,0.263176-0.2786713,0.715744-0.3222961,1.0867538
		c-1.2314911,10.473053-1.4573364,20.9770508-0.9196167,31.5013428c0.1637268,3.2047577-0.0886078,6.3917847-0.2826843,9.5842133
		c-0.3670654,6.0379333,0.1181488,12.0710449,0.138382,18.1070557c0.0092773,2.7614899-0.1012573,5.5138702-0.4396057,8.2587128
		c-0.230484,1.8700409-0.2589111,3.7496338,0.0620117,5.6197815c0.0405121,0.2361603,0.1031952,0.4799652,0.0820007,0.7135315
		c-0.2838898,3.1296539,0.5130768,6.0734406,1.3882141,9.0382385c1.7550659,5.945816,1.9432831,12.0373993,1.4457397,18.179657
		c-0.3086853,3.81073-0.8158722,7.6157532-0.0127716,11.4479828c0.2575378,1.2289734,0.1828766,2.5572357,0.0838165,3.8262939
		c-0.5065918,6.489624,0.6947327,12.8989105,0.8700562,19.3584442c0.1549835,5.7108765,0.6989136,11.4110413,1.0653229,17.1163025
		c0.1377563,2.1451721,0.3072357,4.2897949,0.3751221,6.437439c0.0753174,2.3829956-0.1534729,2.7092896-2.47435,3.3816528
		c-5.4622803,1.5823669-11.0361633,2.6375427-16.6871033,3.2367249
		c-13.3432159,1.4147339-26.7450714,1.5118408-40.1407776,1.6253357
		c-18.5563354,0.1572266-37.1143112,0.4963074-55.6699982,0.2002258
		c-10.0061951-0.1596985-19.9645538-1.045929-29.6639862-3.7774963c-3.6877174-1.0385132-3.8098068-1.0596008-3.5862617-4.8075562
		c0.4208603-7.0561829,0.9863625-14.1039124,1.5108299-21.1536865c0.2403526-3.2307434-0.1090736-6.4821472,0.3631821-9.7032776
		c0.0753365-0.5138397,0.0891571-1.0436249,0.2247772-1.5405273c0.8576775-3.1424103,0.1064415-6.2772522-0.0441322-9.4089661
		c-0.2265205-4.7113037,0.2113113-9.3542786,1.4141121-13.8990173c0.4223328-1.5957642,0.482132-3.1339722,0.2889442-4.7234497
		c-1.0502625-8.64151-0.9072342-17.2306824,1.0492516-25.7521515c0.3312035-1.4425507,0.4703064-2.931427,0.352829-4.410965
		c-0.3772812-4.7516632,0.0093384-9.5094604-0.1702347-14.2636719c-0.2127266-5.6320648-0.0184174-11.2757263-0.4517708-16.9031372
		c-0.2772369-3.6000824,0.4068794-7.1681213,0.2987823-10.7771759c-0.2909508-9.7139587-0.8827133-19.4097748-1.4747124-29.1067963
		c-0.0180473-0.2956238,0.0988388-0.6580276-0.2670174-0.8551025c-0.2747612-2.891449,0.4748421-5.8439255-0.4697876-8.6912003
		c-0.7851143-2.3664627-0.5839424-4.8428955-0.9038048-7.2596741c-0.7515984-5.6788177-1.012352-11.4230042-2.3044205-17.0313797
		c-0.2837868-1.2318268-0.3005409-2.5240021-0.5647278-3.7618179c-0.3457298-1.6198273-1.1948128-3.0574112-2.0989113-4.4021835
		c-1.9103241-2.8414917-3.3717384-5.8585434-4.3255997-9.1502914c-1.3528023-4.6684952-2.9512405-9.263607-3.8648491-14.0578041
		c-0.9939003-5.2155342-1.0802937-10.4531097-0.6754837-15.7215576c0.0640831-0.8340492,0.0827007-1.6760635,0.048336-2.5113487
		c-0.0175552-0.4267159-0.0707626-0.7699509,0.1443195-1.219677c0.3035202-0.6346359,0.2714443-1.4031143-0.1384087-2.0693893
		c4.2559223-1.9925022,8.474226-4.0644226,12.849184-5.7981167c7.1582146-2.8366299,14.2091446-5.927412,21.2223091-9.1037693
		c3.9020386-1.7672882,7.5175247-4.0415335,11.1048813-6.3594542c0.3909531-0.2526073,0.6922073-0.6504154,1.0171356-0.9976597
		C78.7506866,8.9248152,80.0444946,7.9791746,81.8232574,7.9648337z"></path>
</g>
<path d="M24.7249336,205.5652008c0.0279827,0.0209503,0.0745239,0.0376282,0.0805492,0.0636749
	c0.0200806,0.0868073-0.0246429,0.1400452-0.1131268,0.1357117c-0.0293312-0.0014038-0.0762424-0.0344543-0.08181-0.0602417
	C24.5914154,205.6158142,24.6363468,205.5679626,24.7249336,205.5652008z"></path>
<g onclick="select(this)" class="" id="c-estampa-secundaria" fill="#801815">
	<path d="M31.2945557,53.6755371l-6.3219604-9.12854l-5.2322998-1.2687378
		c-0.1172485,0.1522217-0.2393188,0.3011475-0.3546143,0.4546509l5.7427368,1.2554932L31.2945557,53.6755371z"></path>
	<path d="M21.309082,41.34375c-0.4572144,0.5355835-0.9008789,1.0800171-1.3328857,1.632019l5.2077026,1.2628174
		l6.1586914,8.8925781c-0.1424561-0.7959595-0.2565308-1.5899658-0.3395996-2.3794556l-6.4194336-8.5323486L21.309082,41.34375z"></path>
	<path d="M29.1177368,51.2971802L24.8945313,45.34729l-5.7659302-1.2605591
		c-0.105957,0.1437378-0.2088013,0.2897949-0.3131104,0.4346313l6.2578125,1.2171631L29.1177368,51.2971802z"></path>
	<path d="M26.9273071,49.0491333l-2.1113892-2.9019775l-6.2902222-1.2235107
		c-0.0966797,0.137146-0.1965942,0.2719727-0.2918091,0.4101563l6.7827148,1.1539307L26.9273071,49.0491333z"></path>
	<path d="M22.9668579,65.5528564L8.9655762,69.3208008c-0.0257568,0.1257324-0.0457764,0.2521973-0.0704346,0.3780518
		l14.0187378-3.4151611L38.123291,76.3848877l2.0731812,0.6965942c-0.1581421-0.2006836-0.3132935-0.4191284-0.4680786-0.6399536
		l-2.6074219-0.8501587L22.9668579,65.5528564z"></path>
	<path d="M24.5050049,37.9888916l6.2955322,7.0250244c0.0117798-0.5427856,0.0287476-1.081604,0.0522461-1.6144409
		l-5.8094482-5.906189C24.8613281,37.6554565,24.6843872,37.8236084,24.5050049,37.9888916z"></path>
	<path d="M25.4028931,37.1818237l5.4810181,5.5722656c0.0264893-0.5165405,0.0561523-1.0274048,0.0884399-1.5325928
		l-4.9572754-4.5699463C25.8098755,36.8269653,25.6060791,37.0039673,25.4028931,37.1818237z"></path>
	<path d="M24.7390747,46.947876l-6.8077393-1.1582031c-0.0863647,0.1283569-0.1715088,0.2575684-0.2566528,0.3867798
		l7.2788086,1.05896L24.7390747,46.947876z"></path>
	<path d="M31.8201294,32.2270508c0.0167236-0.0842285,0.0336304-0.1673584,0.0507813-0.2507935
		c-0.0924683,0.0388794-0.1834106,0.0812378-0.276123,0.1196289L31.8201294,32.2270508z"></path>
	<path d="M217.3443604,46.4363403c-0.1192627-0.1904907-0.2396851-0.380249-0.3616943-0.5689697
		c-3.4268188,0.2843628-6.8537598,0.5684814-10.2805176,0.8540039l-3.2401123-1.7681274
		c-0.0227051,0.3622437-0.0516968,0.7386475-0.0786133,1.1102295l2.3185425,1.3163452L217.3443604,46.4363403z"></path>
	<path d="M27.5022583,35.3812256l3.6601563,3.0426025c0.0337524-0.4923096,0.0643311-0.9743652,0.0925903-1.4508057
		l-2.9956665-2.2306519C28.0076294,34.9560547,27.755127,35.1688843,27.5022583,35.3812256z"></path>
	<path d="M30.7999268,47.4071655c-0.0131836-0.5859375-0.0195313-1.1694336-0.0131226-1.746582l-6.5986328-7.3632813
		c-0.2415161,0.2279663-0.4781494,0.461731-0.7146606,0.6956177c-0.0946655,0.0962524-0.1907959,0.1914673-0.284668,0.2883911
		L24.43927,39.647522L30.7999268,47.4071655z"></path>
	<path d="M26.4005737,36.3175659l4.6138306,4.2532959c0.0336914-0.5008545,0.0678711-0.9940186,0.1019287-1.4815674
		l-4.0341797-3.3535767C26.8533325,35.9277954,26.6286621,36.1245728,26.4005737,36.3175659z"></path>
	<path d="M36.5905762,73.6187134l-13.3425293-10.12854L9.336792,67.579834
		c-0.0229492,0.1027222-0.0458374,0.2054443-0.0686035,0.3082886l13.9492798-3.7539673L36.5905762,73.6187134z"></path>
	<path d="M33.5955811,69.6500854l-10.0664063-8.2000732L9.7389526,65.8384399
		c-0.0184937,0.0778198-0.0377197,0.1553955-0.0560913,0.2332764l13.8391113-4.0684814L33.5955811,69.6500854z"></path>
	<path d="M24.5874023,48.5515137l-7.8200073-0.9428711c-0.0678101,0.1113281-0.1366577,0.2219849-0.2036133,0.3339844
		l8.1564331,0.7781372L24.5874023,48.5515137z"></path>
	<polygon fill="none" points="12.263855,57.15448 12.2597046,57.1659546 12.6549683,57.1089478 	"></polygon>
	<path d="M40.5430908,91.6190186l-20.0223999-8.8007202L6.5009766,83.4490967
		c-0.069397,0.3000488-0.1408691,0.5996094-0.2119751,0.899231l14.0803223-0.1884766l20.9335327,8.7162476h0.0018921
		l2.802063,1.1763916c-0.0405884-0.3424683-0.0813599-0.6838989-0.1224976-1.0251465l-3.4299927-1.4026489L40.5430908,91.6190186z"></path>
	<path d="M20.8445435,80.5808105L6.8981934,81.637085c-0.0599365,0.2805786-0.114563,0.5623779-0.1769409,0.8424072
		l13.9785156-0.6290283l20.2130737,8.8845215l0.0003052-0.0006714l2.9382935,1.2015381
		c-0.0397339-0.3226318-0.0797729-0.6437378-0.1200562-0.9630737l-3.5805054-1.4255981L20.8445435,80.5808105z"></path>
	<path d="M12.684082,55.9951172c-0.006897,0.0180664-0.0129395,0.036438-0.0197754,0.0545044l1.9169312-0.2230835
		L12.684082,55.9951172z"></path>
	<path d="M24.3648682,50.960144l-9.2529907-0.4090576c-0.0419922,0.0811768-0.0828857,0.163147-0.1244507,0.2446899
		l9.3826904,0.1705933L24.3648682,50.960144z"></path>
	<path d="M24.4387817,50.1569214l-8.7904053-0.6148682c-0.0505371,0.0923462-0.1036987,0.1828003-0.1537476,0.2755737
		l8.9923096,0.397583L24.4387817,50.1569214z"></path>
	<path d="M13.5948486,53.7410278c-0.0197144,0.0457153-0.0369263,0.0921021-0.0564575,0.1378174l5.0473633-0.3111572
		L13.5948486,53.7410278z"></path>
	<path d="M14.5847168,51.5874634c-0.0152588,0.0313721-0.0321045,0.0615845-0.0473022,0.0929565
		c-0.019043,0.0393066-0.0354004,0.0794067-0.0543213,0.1187134l8.1149902-0.065918L14.5847168,51.5874634z"></path>
	<path d="M14.0933838,52.6511841c-0.0268555,0.0584717-0.0537109,0.1170044-0.0803223,0.1755981l6.5758667-0.2283936
		L14.0933838,52.6511841z"></path>
	<path d="M220.8779907,78.5688477l6.2313843-0.4222412c-0.0229492-0.1730957-0.0466309-0.3460693-0.0695801-0.519165
		l-6.8465576,0.4556274l-14.1346436,4.93396c-4.6395264-0.6351318-9.2875366-1.2573853-13.9313354-1.894104
		c-0.0872192,0.4002075-0.1744385,0.8275757-0.2614746,1.2744751l15.4985962,1.3973389L220.8779907,78.5688477z"></path>
	<path d="M215.8103027,94.6478271l10.1966553-7.1292725l2.4970093-0.1902466
		c-0.0617676-0.3768311-0.1220703-0.7539063-0.1838989-1.1307373l-2.9990234,0.2237549l-10.7434082,6.8068237
		c-8.1375122,0.7989502-16.2749023,1.6012573-24.4118042,2.4061279c-0.1188354,0.8479614-0.244751,1.5612183-0.3688965,2.1724243
		l0.546936,0.1348877L215.8103027,94.6478271z"></path>
	<path d="M218.6846924,98.8475342l9.0834961-7.7626953l1.3154297-0.1046143
		c-0.0704956-0.4553223-0.1439209-0.9102173-0.2165527-1.3651733l-1.7948608,0.1397095l-9.6212769,7.4313354
		c-8.8294067,1.397583-17.6593018,2.7942505-26.4886475,4.1924438l-1.8616943-0.4775391
		C189.0373535,101.2663574,189,101.6191406,189,102c0,0.2453003-0.0152588,0.6425781-0.041626,1.1481323l2.6833496,0.7166748
		L218.6846924,98.8475342z"></path>
	<path d="M218.7921753,48.9110107c-0.0898438-0.1644287-0.1773682-0.3303833-0.2689819-0.4935913
		c-4.7137451,0.3720703-9.4274902,0.7440186-14.1410522,1.1179199l-1.2261353-0.7252808
		c-0.0327759,0.3457642-0.0707397,0.7026978-0.1069336,1.0558472l0.3724976,0.2298584L218.7921753,48.9110107z"></path>
	<path d="M203.2449951,80.0679932l-10.0043335-2.4204102l0,0
		c-0.1182251,0.1008301-0.2553101,0.3894653-0.4020386,0.8007813l11.7592163,2.2016602l14.6049805-4.5906372l7.5527954-0.4937134
		c-0.0182495-0.1108398-0.0343018-0.2221069-0.0526123-0.3329468l-8.1801147,0.5256348L203.2449951,80.0679932z"></path>
	<path d="M225.1380615,85.8567505l3.0890503-0.2304688c-0.0557861-0.3401489-0.1107178-0.680481-0.1660156-1.0206909
		l-3.6051025,0.2636108l-11.3065186,6.4951172c-7.5599365,0.4962769-15.1201172,0.9902954-22.6794434,1.4916992
		c-0.0685425,0.8139648-0.1451416,1.5412598-0.227356,2.1921997l24.1438599-2.3795776L225.1380615,85.8567505z"></path>
	<path d="M217.2437744,96.7054443l9.6405029-7.446106l1.9028931-0.1480713
		c-0.0668335-0.414978-0.1297607-0.8306885-0.1975708-1.2456055l-2.3950806,0.1824951l-10.1816406,7.1188354
		c-8.5668945,1.1077881-17.1341553,2.2141113-25.7007446,3.3240356l-0.6265869-0.154541
		c-0.1864014,0.8486328-0.3588257,1.4909058-0.4848633,2.0650024l1.789917,0.4591064L217.2437744,96.7054443z"></path>
	<path d="M220.0401001,77.2884521l6.8920288-0.4586182c-0.0189209-0.1419067-0.0391235-0.2836914-0.0581055-0.4255981
		l-7.515564,0.491272l-14.7067261,4.6223755l-12.0691528-2.2594604c-0.0892944,0.3171387-0.1808472,0.6782837-0.2737427,1.0681763
		l13.6709595,1.8699951L220.0401001,77.2884521z"></path>
	<path d="M39.7023926,87.4750366l-18.5424194-9.1091309L7.2706299,79.8331299
		c-0.0097656,0.0518799-0.0164185,0.104248-0.0263672,0.1561279c-0.0402832,0.2102661-0.0898438,0.418335-0.131958,0.6281738
		l13.913269-1.053833l19.4915771,9.0526123l3.0686035,1.2217407c-0.0395508-0.3042603-0.0794067-0.6045532-0.1193848-0.9036865
		l-3.7235107-1.4428711L39.7023926,87.4750366z"></path>
	<path d="M222.5656128,81.2964478l4.9312134-0.3468018c-0.0339355-0.2374878-0.0714722-0.4744263-0.1044922-0.7120361
		l-5.5065308,0.3800049l-12.9994507,5.5586548c-5.8458252-0.2754517-11.6918945-0.5514526-17.5380249-0.822876
		c-0.0860596,0.5473633-0.1685791,1.1073608-0.2478027,1.675293l19.0530396,0.1280518L222.5656128,81.2964478z"></path>
	<path d="M223.4165649,82.749939l4.2993164-0.3082275c-0.041748-0.2703247-0.0792847-0.5413208-0.1192017-0.8118896
		l-4.8607788,0.3417969l-12.4328613,5.8701172c-6.4319458-0.0444336-12.8639526-0.0880737-19.2959595-0.1296387
		c-0.0812988,0.6148071-0.1567383,1.2345581-0.2263184,1.8543701l20.7762451-0.638855L223.4165649,82.749939z"></path>
	<path d="M224.2730713,84.2688599l3.6893921-0.2697754c-0.0491943-0.3047485-0.1001587-0.6092529-0.1486816-0.9141846
		l-4.2202759,0.3026123l-11.8687744,6.182373c-7.0049438,0.2130127-14.0100708,0.4271851-21.0147705,0.6461792
		c-0.0714722,0.6817627-0.1347656,1.3589478-0.1871338,2.0231934l22.4451294-1.4762573L224.2730713,84.2688599z"></path>
	<path d="M221.4413452,54.4622803c-0.0197754-0.0479736-0.0402832-0.0957031-0.0601807-0.1436157l-2.633606,0.8505249
		c-5.4998779,0.3815918-10.9996948,0.7632446-16.4995728,1.1453857c-0.0128174,0.0888062-0.0264893,0.1793823-0.0394897,0.2685547
		l15.3166504-1.0346069L221.4413452,54.4622803z"></path>
	<path d="M212.8956909,40.4555664c-0.2084351-0.2371826-0.3994751-0.4855347-0.6134644-0.7191162
		c-0.0842285-0.0919189-0.1776733-0.173645-0.2631226-0.2642212l-8.4470825-3.8482666
		c0.0206299,0.4210815,0.0380859,0.8502808,0.0510254,1.2910156l7.7976685,3.675354L212.8956909,40.4555664z"></path>
	<path d="M213.8938599,41.6256714c-0.1972656-0.2402344-0.4040527-0.4744263-0.6066895-0.7111816
		c-0.6513672,0.0594482-1.3027344,0.1188354-1.9540405,0.1784668l-7.6970215-3.6278687
		c0.0087891,0.4080811,0.013916,0.824707,0.0159302,1.2493896l6.6253052,3.2339478L213.8938599,41.6256714z"></path>
	<path d="M208.2193604,35.8876953l-4.7625732-2.0990601c0.0350342,0.4337769,0.0661011,0.8780518,0.0922241,1.3353271
		l7.5779419,3.4522705C210.182251,37.6524048,209.2059326,36.763916,208.2193604,35.8876953z"></path>
	<path d="M215.7173462,44.0059204c-0.1546631-0.2156372-0.3143921-0.4278564-0.4729004-0.6409302
		c-2.0751953,0.1807251-4.1504517,0.3613281-6.2255859,0.5426025l-5.3904419-2.7277222
		c-0.0094604,0.3832397-0.024292,0.7786255-0.0390625,1.1740723l4.3980713,2.3097534L215.7173462,44.0059204z"></path>
	<path d="M214.8339233,42.8086548c-0.1724854-0.2247925-0.333313-0.4572754-0.5102539-0.6791382
		c-1.3829956,0.123291-2.7660522,0.24646-4.1489868,0.3702393l-6.5210571-3.1830444
		c-0.0011597,0.3952026-0.0067139,0.8005981-0.013855,1.2099609l5.4917603,2.7789917L214.8339233,42.8086548z"></path>
	<path d="M224.6970215,64.4712524c-0.0241699-0.0974121-0.0473022-0.1951904-0.0718384-0.2925415l-12.2214355,0.9691162
		L224.6970215,64.4712524z"></path>
	<path d="M220.5565796,52.4144897c-0.0144043-0.0316162-0.0302124-0.0627441-0.0447388-0.0943604
		c-5.9655151,0.4354248-11.9309082,0.8727417-17.8962402,1.3100586c-0.0150146,0.1171875-0.0321655,0.2388306-0.0475464,0.3567505
		l17.0300293-1.2141724L220.5565796,52.4144897z"></path>
	<path d="M220.9864502,53.3773804c-0.0111694-0.0256958-0.0212402-0.0517578-0.0324707-0.0773926
		c-0.3857422,0.144165-0.7714844,0.288269-1.1571045,0.4324951c-5.7868652,0.4102173-11.5733643,0.824646-17.3599243,1.2377319
		c-0.0143433,0.1051025-0.0270386,0.2069092-0.041626,0.3126221l16.1654663-1.1221313L220.9864502,53.3773804z"></path>
	<path d="M222.9006348,58.3122559c-0.0303345-0.0888672-0.0560303-0.1790771-0.086731-0.2678223
		c-2.4036255,0.4776611-4.8074341,0.954895-7.2106323,1.4349365c-4.6759644,0.2959595-9.3516235,0.5964966-14.0273438,0.8961182
		c-0.0095825,0.0470581-0.0213623,0.0893555-0.0310059,0.1361694l12.871521-0.7990112L222.9006348,58.3122559z"></path>
	<path d="M216.5673828,45.2142334c-0.1353149-0.2019653-0.2670898-0.40625-0.4056396-0.6060791
		c-2.7669067,0.2351685-5.5338135,0.4699097-8.3005371,0.7063599l-4.2974854-2.256958
		c-0.0166016,0.3721924-0.0391846,0.7579346-0.0604858,1.140686l3.3416138,1.8235474L216.5673828,45.2142334z"></path>
	<path d="M222.4058838,56.9399414c-0.0288696-0.0787964-0.0581055-0.1574707-0.0872192-0.236145
		c-1.8890381,0.446106-3.7780151,0.8919678-5.6668701,1.3388672c-4.944458,0.322998-9.8886108,0.6491089-14.8329468,0.9745483
		c-0.0105591,0.0604248-0.0214844,0.1203003-0.0321655,0.1803589l13.6587524-0.8724365L222.4058838,56.9399414z"></path>
	<path d="M221.9295044,55.6502686c-0.0255127-0.0655518-0.0473633-0.1323853-0.0731201-0.197876
		c-1.3865356,0.3845215-2.7731323,0.769043-4.159668,1.1537476c-5.2157593,0.3516235-10.4315186,0.7044067-15.6471558,1.0570679
		c-0.0114746,0.0758667-0.0213623,0.1482544-0.03302,0.2243652l14.467041-0.9506226L221.9295044,55.6502686z"></path>
	<path d="M219.2266846,49.708313c-5.3354492,0.4110718-10.6711426,0.8221436-16.0065918,1.2338867l-0.2657471-0.1640015
		c-0.0228271,0.2089233-0.0460205,0.4187622-0.0700073,0.630249l16.5895996-1.246521
		C219.3955688,50.0079346,219.3065796,49.8612671,219.2266846,49.708313z"></path>
	<path d="M64.8234253,284.2436523l-20.9350586-11.7716064
		c-0.0078735,0.0983887-0.0123291,0.1970825-0.0211792,0.2953491l20.8461914,11.5351563L64.8234253,284.2436523z"></path>
	<path d="M65.0308838,283.1282349l-21.059021-12.026062c-0.0033569,0.0750732-0.0075073,0.1502075-0.0108643,0.2252808
		l21.0278931,11.8240356L65.0308838,283.1282349z"></path>
	<path d="M79.6871338,278.6913452l-6.711792,3.4658813l6.2252197-3.095459l14.3115234,6.8606567l18.8667603,3.5532837
		c0.513916-0.0007935,1.027771-0.0007324,1.541687-0.0014648c0.2445068-0.0003662,0.4863281,0.0068359,0.7265015,0.0231323
		c-6.9664307-1.328064-13.9329834-2.6546631-20.8988647-3.9854736L79.6871338,278.6913452z"></path>
	<path d="M119.4504395,287.8264771c-8.3671265-1.6311646-16.7334595-3.2662964-25.0999756-4.9000244
		l-14.159668-7.0272827l-5.885437,3.2658691l5.6190796-3.0095825l14.4477539,7.0894165l24.4505005,4.7189941l20.5501709-2.5579834
		l3.9243774,3.8327026c0.4417114-0.0092773,0.8834229-0.013855,1.3250732-0.0245361l-4.4424438-4.3721313L119.4504395,287.8264771z"></path>
	<path d="M79.2059326,280.1043701l-15.3056641,7.6109009l-20.319397-10.8671265
		c-0.0059204,0.147644-0.0110474,0.2954102-0.0209351,0.442749l20.2746582,10.6488037l15.3198242-7.3262329l14.2421875,6.7459106
		l11.4240112,2.1236572c0.8406982-0.0014038,1.6812744-0.0009766,2.5219727-0.0024414l-14.1287231-2.6609497L79.2059326,280.1043701
		z"></path>
	<path d="M143.8406982,265.3581543l-0.0523071-0.0507202l-18.7183228,4.8501587l-15.0810547-5.0663452
		c-0.3464966-0.0106201-0.6973877-0.0159912-1.0414429-0.02948l16.2081299,5.21521L143.8406982,265.3581543z"></path>
	<path d="M98.2622681,264.1541748c-0.7542114-0.0985107-1.5072021-0.1981201-2.2469482-0.3094482l25.682373,7.510498
		C113.8858643,268.9553223,106.0739746,266.5548706,98.2622681,264.1541748z"></path>
	<path d="M143.0222778,264.5440674l-0.119873-0.1148682l-17.9039307,4.5580444l-10.9844971-3.8422852
		c-0.3063354,0.0006714-0.6173706,0.0071411-0.921814,0.0055542l12.0137329,4.0358887L143.0222778,264.5440674z"></path>
	<path d="M142.1865845,263.7009888l-0.1894531-0.1787109l-17.0905151,4.2664185l-7.4293213-2.6994629
		c-0.288147,0.008606-0.5814819,0.0241089-0.868042,0.0307007l8.4265137,2.9475708L142.1865845,263.7009888z"></path>
	<path d="M139.6303711,267.4846191l-14.5023804,3.8178711
		c-6.694397-2.1540527-13.388916-4.3083496-20.0836182-6.4622192c-0.4628296-0.0333252-0.9194946-0.072876-1.3774414-0.1112061
		l21.5210571,6.6126709L139.6303711,267.4846191z"></path>
	<path d="M79.6756592,277.6101074l14.3773193,6.9738159l24.1142578,4.5986328l20.0377808-2.0834961l2.2473755,2.1771851
		c0.4799194-0.0040283,0.9597778-0.0092163,1.4396362-0.0139771l-2.8685913-2.8015137l-20.2300415,2.5180664
		c-8.2480469-1.590271-16.4956055-3.1831665-24.7434082-4.7753296l-14.109314-6.9233398l-10.0528564,5.3842163
		L79.6756592,277.6101074z"></path>
	<path d="M189.4454956,244.6192017c-0.0803833-0.3834229-0.1254272-0.7662964-0.1556396-1.1486816
		c-0.5402222,0.3567505-1.1226196,0.7357178-1.742981,1.1334229c0.6842041,0.2939453,1.3683472,0.5880127,2.0524902,0.8821411
		C189.5476685,245.1971436,189.5058594,244.9070435,189.4454956,244.6192017z"></path>
	<path d="M44.8606567,257.6835327c-0.0027466,0.0946045-0.0103149,0.1889648-0.0134277,0.2835693l22.2056885,13.8209229
		l11.2261353-7.4194336l-11.4188232,6.7337036L44.8606567,257.6835327z"></path>
	<path d="M231.3970947,106.5631104l-4.3861694-0.3652344l-0.786499,1.0596313l5.425415,0.6167603
		C231.5620117,107.4379272,231.4805298,107.0003052,231.3970947,106.5631104z"></path>
	<path d="M231.0709229,104.7165527l-2.9203491-0.1428223l-0.8206177,1.0977783l3.9611816,0.329834
		C231.2124023,105.5740967,231.1411133,105.1454468,231.0709229,104.7165527z"></path>
	<path d="M232.5501099,112.5497437l-8.960144-1.4793701l-0.6801758,0.9484253l9.8500366,1.8423462
		C232.6811523,113.425354,232.614563,112.9874268,232.5501099,112.5497437z"></path>
	<path d="M230.8423462,103.2398071c-0.0120239-0.0916138-0.0256348-0.1830444-0.0377197-0.2746582l-1.5129395-0.0147705
		l-0.8547974,1.1369019l2.5559692,0.125C230.9430542,103.8880615,230.8851929,103.5653687,230.8423462,103.2398071z"></path>
	<path d="M188.0672607,280.1254883l3.7064819,2.272522c0.0126343-0.0722046,0.0167236-0.1522827,0.024231-0.2290649
		l-3.5635986-2.2028809L188.0672607,280.1254883z"></path>
	<path d="M138.4174194,263.559021c-1.0482788,0.1646118-2.1105347,0.3145752-3.1830444,0.4534912l-10.4368286,2.5484619
		l-4.1676636-1.5695801C120.4187622,264.9924927,120.211792,265,120,265
		c-0.1030884,0.005127-0.2028809,0.0059204-0.3057861,0.0108032l5.2565308,1.9099731L138.4174194,263.559021z"></path>
	<path d="M187.1799316,281.506958l3.72229,2.2631836c0.0839844-0.0551147,0.1540527-0.1203613,0.2261353-0.1831055
		l-3.8306274-2.3485718L187.1799316,281.506958z"></path>
	<path d="M187.7701416,256.9730225l-15.3847656-3.9575195c-0.9463501,0.4473267-1.9227295,0.8932495-2.9238892,1.336731
		l19.2373047,5.3983765l1.9752197,1.0526123c-0.0072632-0.1022339-0.0148315-0.2045288-0.0220947-0.3068237
		c-0.0548706-0.7130127-0.1121826-1.4258423-0.1680298-2.138855L187.7701416,256.9730225z"></path>
	<path d="M190.4337158,257.7217407c-0.0633545-0.8016357-0.1246338-1.6033936-0.1898193-2.4049072l-3.2203369-1.5734253
		l-10.9453735-2.5441895c-0.9423828,0.4819946-1.9174194,0.9663086-2.9255981,1.4508667l14.8050537,3.8083496
		L190.4337158,257.7217407z"></path>
	<path d="M18.1229858,99.2312622L3.6304932,96.375c-0.0743408,0.4154053-0.1540527,0.829895-0.2250977,1.2458496
		l14.5003662,3.4230347c8.5530396,2.6582031,17.3546753,5.0320435,25.9696045,7.5449219
		c0.6888428,0.3432617,1.3765259,0.6891479,2.0653076,1.0325317c-0.0668945-0.4324341-0.1377563-0.9376831-0.2124634-1.5095215
		l-2.4639282-1.2025757L18.1229858,99.2312622z"></path>
	<path d="M45.7391968,245.5897217l19.7215576,10.5222168l2.199585-0.3864136
		c-0.8265381-0.3572998-1.6351929-0.717041-2.4244385-1.0797729l-0.2386475,0.0259399l-3.5960083-1.8718262
		c-1.0473633-0.52771-2.0618286-1.0545654-3.0310669-1.5776978l-12.5934448-6.5551758
		C45.7716675,244.9749756,45.7590942,245.2825317,45.7391968,245.5897217z"></path>
	<path d="M18.4758301,96.7988281l-14.5037842-2.31073c-0.0769043,0.3983765-0.1436157,0.7984009-0.21698,1.1973877
		l14.5167236,2.8610229c8.4193726,2.5648804,16.8382568,5.1342163,25.2537231,7.7121582
		c0.649353,0.315979,1.2977905,0.6342163,1.9470825,0.9503174c-0.038147-0.3406372-0.0233765-0.6884766,0.0143433-1.0404053
		c-0.0123291-0.1032104-0.0244751-0.2043457-0.0369263-0.3098755l-2.5585938-1.218811L18.4758301,96.7988281z"></path>
	<path d="M17.1677246,106.1395264l27.3936768,7.2077637c0.6620483,0.3460083,1.3230591,0.6942139,1.9851074,1.0403442
		c-0.0498657-0.5408936-0.1057129-1.0823364-0.1671143-1.6218262l-2.3936768-1.2254028l-26.6105347-7.3562622l-14.3898315-3.9760132
		c-0.0689087,0.4389038-0.1398926,0.8774414-0.206665,1.3167725c-0.0019531,0.0128784-0.0039673,0.0256958-0.0058594,0.0385132
		l14.3950195,4.5756226L17.1677246,106.1395264z"></path>
	<path d="M191.3703003,272.1033936c-0.0314331-0.5531006-0.0552979-1.1065674-0.0811157-1.6599121l-0.5592041-0.3404541
		l-32.8411255-11.2791748c-1.0039673,0.3325806-2.0220337,0.6586304-3.0618286,0.9736328l36.600769,13.258728
		C191.4086914,272.7385864,191.3883667,272.4210815,191.3703003,272.1033936z"></path>
	<path d="M46.8398438,244.227478c-0.3824463-0.2542114-0.7453613-0.4963379-1.0927734-0.7284546
		c0.0032349,0.055542,0.0115967,0.1114502,0.0140381,0.1669312L46.8398438,244.227478z"></path>
	<path d="M21.7819214,74.0066528l-13.934082,2.2717896C7.8162231,76.49646,7.7859497,76.7146606,7.753479,76.9325562
		l13.9151611-1.8747559l18.0762329,9.4041748l3.2612305,1.2293701c-0.0407104-0.2674561-0.0817261-0.52771-0.1227417-0.7859497
		l-4.0110474-1.4702148L21.7819214,74.0066528z"></path>
	<path d="M16.6151123,109.2765503l-14.2233887-5.1317749c-0.0183716,0.1276855-0.038208,0.2550659-0.0565186,0.3828125
		c-0.0516357,0.3602905-0.1115723,0.7200317-0.1651611,1.0802612l14.2060547,5.7563477l28.8374023,6.8771973
		c0.5523071,0.3027954,1.104248,0.6063843,1.6565552,0.9091797c-0.0253296-0.5475464-0.0566406-1.1263428-0.0927734-1.7218018
		l-2.0883179-1.1201172L16.6151123,109.2765503z"></path>
	<path d="M17.0037231,106.7142334l-0.0153198-0.0036621L2.684021,102.1638184
		c-0.0702515,0.4702759-0.1398315,0.9407349-0.208252,1.411377l14.293335,5.1571045l28.119751,7.0436401
		c0.6154785,0.329834,1.2305908,0.6604004,1.8460693,0.9902344c-0.0365601-0.546875-0.0785522-1.1049805-0.1259766-1.6699219
		l-2.2698364-1.1895752L17.0037231,106.7142334z"></path>
	<path d="M21.4745483,76.1748657L7.5720825,78.0478516c-0.0385742,0.2406006-0.0808105,0.4805908-0.1217041,0.7207642
		l13.9006958-1.4683228l18.7994385,9.2354126l3.1555176,1.2227173c-0.0395508-0.2839355-0.0790405-0.5681152-0.1189575-0.8451538
		l-3.8909302-1.4667358L21.4745483,76.1748657z"></path>
	<path d="M17.7554321,101.6925049l-14.460144-3.4133301c-0.0724487,0.4337769-0.1398315,0.8685303-0.2093506,1.3028564
		l14.4541626,3.9937744l26.6837158,7.3765259c0.6885986,0.3512573,1.3764038,0.7044678,2.0649414,1.0558472
		c-0.0675659-0.5365601-0.1421509-1.064209-0.2232056-1.5813599l-2.4349976-1.2173462L17.7554321,101.6925049z"></path>
	<path d="M191.4899292,274.0866089l-39.5257568-13.4622192
		c-0.6074219,0.1681519-1.2197266,0.333313-1.8383179,0.4943237l41.3731079,13.1177368
		C191.4958496,274.1865234,191.493042,274.1365356,191.4899292,274.0866089z"></path>
	<path d="M191.5269165,274.7006226l-0.0150146-0.0095215l-42.1726074-13.3712158
		c-0.7093506,0.1796265-1.4226074,0.3565063-2.1461792,0.5258789l44.3377075,12.9200439
		C191.52948,274.7440796,191.5282593,274.7223511,191.5269165,274.7006226z"></path>
	<path d="M129.444519,264.621582c-0.8810425,0.0704346-1.7709351,0.1293945-2.6663818,0.1806641l-2.1074219,0.5018921
		l-0.9447632-0.368103c-0.3184204,0.0100098-0.6376953,0.0185547-0.9577637,0.026062l2.0776978,0.7824707L129.444519,264.621582z"></path>
	<path d="M191.4506836,273.4359741c-12.423584-4.5004272-24.928833-8.9003906-37.3781128-13.4179077
		c-0.4788818,0.1417847-0.956543,0.2842407-1.4428101,0.421814l38.8348389,13.2267456
		C191.4598999,273.5897217,191.4553833,273.5128784,191.4506836,273.4359741z"></path>
	<path stroke="#000000" stroke-width="0" stroke-linecap="round" stroke-linejoin="round" d="M49.9399414,286.4976807
		c-0.3018799-0.0743408-0.6021729-0.1563721-0.9033203-0.2342529"></path>
	<path d="M190.7183228,261.3983765l-0.0014038-0.0007324c0.0336304,0.4763184,0.0698853,0.9525146,0.1030273,1.428894
		C190.7866211,262.3504028,190.7538452,261.8742676,190.7183228,261.3983765z"></path>
	<path d="M189.9900513,266.7861328l1.140686,0.6641235c-0.0109253-0.1711426-0.0234375-0.3422852-0.0344849-0.5134888
		l-0.9315186-0.5422974l-28.0106201-9.0649414c-0.2150269,0.079834-0.4380493,0.1569214-0.6549072,0.236145L189.9900513,266.7861328
		z"></path>
	<path d="M189.2536621,263.4939575l1.6738281,0.9321289c-0.0125122-0.1842041-0.0245972-0.3684082-0.0371704-0.5526123
		l-1.4595337-0.8127441l-23.6322632-7.1538696c-0.2286377,0.0930176-0.4575806,0.1859131-0.6887207,0.2783813
		L189.2536621,263.4939575z"></path>
	<path d="M162.0952759,288.6060181c-0.0003052-0.0003052-0.0006104-0.0006104-0.0009155-0.0009155
		c-0.0480957,0.0026245-0.0961914,0.0068359-0.1442871,0.0094604
		C161.9984741,288.6116943,162.046875,288.6088867,162.0952759,288.6060181z"></path>
	<path d="M179.3748169,286.7443237l0.0019531-0.0018311c-0.1992188,0.0358887-0.3974609,0.0767212-0.5968628,0.1115112
		C178.9783325,286.8178711,179.1765137,286.7809448,179.3748169,286.7443237z"></path>
	<path d="M66.2374878,262.9834595l-21.1921997-12.1244507c-0.0476685,0.3981323-0.0947266,0.7959595-0.1088257,1.197876
		l21.2077637,12.1333618l11.9527588-4.5408936c-0.5565186-0.1787109-1.1071777-0.3600464-1.6515503-0.5441284
		L66.2374878,262.9834595z"></path>
	<path d="M190.6760864,260.8043213c-0.0077515-0.1026611-0.0162964-0.2052612-0.0241699-0.3079224
		c0.0072632,0.1022949,0.0148315,0.2045898,0.0220947,0.3068237L190.6760864,260.8043213z"></path>
	<path d="M65.9952393,260.72052l-20.6962891-11.576355c-0.0323486,0.1711426-0.059082,0.3422852-0.0956421,0.5134277
		c-0.0401611,0.1879883-0.0548096,0.3831177-0.0863647,0.5739746l20.7624512,11.6134033l9.7254028-3.0268555
		c-0.5506592-0.190979-1.0940552-0.3847046-1.631958-0.5804443L65.9952393,260.72052z"></path>
	<path d="M45.0337524,250.852417l0.0115356,0.0065918c0.0151978-0.1269531,0.0161743-0.255127,0.034668-0.381897
		C45.06427,250.6021729,45.0477905,250.7271729,45.0337524,250.852417z"></path>
	<path d="M79.4980469,289.520752c0.1621094,0.0003662,0.3242188-0.0007324,0.4863281-0.0007935
		c-0.1676636-0.0012207-0.3353271-0.0050659-0.5029297-0.0065918L79.4980469,289.520752z"></path>
	<path d="M65.2359009,254.645752c-1.331665-0.6119385-2.609436-1.2285156-3.8346558-1.8458862l3.5960083,1.8718262
		L65.2359009,254.645752z"></path>
	<path d="M169.4614868,254.3522339c-0.2416382,0.1070557-0.4766846,0.2147217-0.7214966,0.3213501l19.7698364,5.5478516
		l2.2070923,1.1762085c-0.0139771-0.1981812-0.0288696-0.3962402-0.0429077-0.5944214l-1.9752197-1.0526123L169.4614868,254.3522339
		z"></path>
	<path d="M190.7299805,270.1030273l0.5592041,0.3404541c0.0258179,0.5533447,0.0496826,1.1068115,0.0811157,1.6599121
		c0.0180664,0.317688,0.0383911,0.6351929,0.0574951,0.9528198l-36.600769-13.258728
		c-0.2484131,0.0752563-0.5040283,0.1464233-0.7544556,0.2205811c12.4492798,4.5175171,24.9545288,8.9174805,37.3781128,13.4179077
		c0.0046997,0.0769043,0.0092163,0.1537476,0.013916,0.2306519l-38.8348389-13.2267456
		c-0.22052,0.0623779-0.4436035,0.1229858-0.6655884,0.1845093l39.5257568,13.4622192
		c0.0031128,0.0499268,0.0059204,0.0999146,0.0090332,0.1498413l-41.3731079-13.1177368
		c-0.2609863,0.0679321-0.5236206,0.1345825-0.7865601,0.2011719l42.1726074,13.3712158l0.0150146,0.0095215
		c0.0013428,0.0217285,0.0025635,0.043457,0.0039063,0.0651855l-44.3377075-12.9200439
		c-2.8192749,0.65979-5.7467041,1.2376099-8.7756958,1.7132568l-13.4666748,3.3617554l-5.2565308-1.9099731
		c-0.7461548,0.0355225-1.4810181,0.0563354-2.2169189,0.0784302l7.4293213,2.6994629l17.0905151-4.2664185l0.1894531,0.1787109
		l-17.1508179,4.3665161l-8.4265137-2.9475708c-0.8746338,0.0202637-1.7352905,0.0230713-2.5952759,0.0250244l10.9844971,3.8422852
		l17.9039307-4.5580444l0.119873,0.1148682l-17.9163818,4.642334l-12.0137329-4.0358887
		c-1.0465088-0.0054321-2.0786133-0.0278931-3.1031494-0.0592651l15.0810547,5.0663452l18.7183228-4.8501587l0.0523071,0.0507202
		l-18.6849976,4.9188232l-16.2081299-5.21521c-1.321167-0.0517578-2.6192627-0.1290894-3.9031982-0.2214966
		c6.6947021,2.1538696,13.3892212,4.3081665,20.0836182,6.4622192l14.5023804-3.8178711l-14.4423828,3.8571167
		l-21.5210571-6.6126709c-1.8399658-0.1540527-3.6431274-0.3448486-5.4046631-0.5748901
		c7.8117065,2.4006958,15.6235962,4.8011475,23.4354248,7.2010498l-25.682373-7.510498
		c-6.3596191-0.9572754-12.1878052-2.3753662-17.473877-4.0489502l-12.0769043,5.4251709l-21.5509033-12.6032715
		c0,0.0464478-0.0061035,0.0935059-0.0056763,0.1398926c0.0089722,1.0239868-0.000061,2.0469971-0.0210571,3.0692749
		l21.7463379,12.9917603l13.3773804-6.9445801l-13.1403198,7.7487183L44.875061,256.206665
		c-0.097168,4.0935059-0.3988037,8.1751709-0.7157593,12.2558594l10.4080811,6.1200562l-10.4145508-6.0366211
		c-0.0316162,0.4066162-0.0630493,0.8132324-0.0946655,1.2198486l18.1208496,10.5032959l-18.1323853-10.3546143
		c-0.1098633,1.4151001-0.2150879,2.8305664-0.3135376,4.2463379c0.0094604-0.1025391,0.0180054-0.2052002,0.0284424-0.3077393
		l20.8486938,11.5365601l-0.1809692,0.0934448L43.729248,274.2184448c-0.0245972,0.3543701-0.0483398,0.7088623-0.0715332,1.0632935
		l20.6002197,11.2102661l-0.3400879,0.1690674l-20.2935181-10.8531494c0.0006104-0.0209351,0.0016479-0.0418091,0.0021973-0.0627441
		c-0.0100098,0.1578979-0.0221558,0.3156738-0.0318604,0.4735718c-0.0730591,1.1895142-0.1744385,2.3776245-0.2647705,3.56604
		l16.6122437,8.5620728c0.480896,0.0635986,0.9589233,0.1409302,1.4411621,0.1983643
		c1.5708618,0.1869507,3.1430054,0.3290405,4.7155762,0.4527588l12.7838135-5.8710938l13.6104126,6.368042
		c-0.480835-0.000061-0.9616699,0.0016479-1.4425049,0.0014038l-12.4411011-5.7484741l-12.0100098,5.2893066
		c0.6066284,0.0458374,1.2134399,0.0848389,1.8202515,0.1228027l10.182373-4.4841919l10.4371948,4.8225098
		c-0.18573-0.0001831-0.371521,0.0007935-0.557251,0.0005493c-0.3678589-0.0004272-0.7357788,0.0028687-1.1036987,0.003418
		l-9.0580444-4.132019l-9.114563,3.8427734c0.628418,0.0360718,1.2570801,0.065979,1.8856812,0.0947266l7.2174683-3.0430298
		l7.1106567,3.2436523c-0.6278687,0.0028076-1.2556763,0.0026245-1.8835449,0.0056763l-5.5084229-2.4801636l-5.7622681,2.3217163
		c0.6411133,0.0249634,1.2819214,0.0584106,1.9231567,0.0770874l3.8226929-1.5402222l3.6087036,1.6247559
		c-0.545166,0.0015259-1.090332,0.0024414-1.635498,0.0027466c5.1407471,0.0386963,10.2843628-0.0263672,15.4254761-0.0049438
		c6.1586914,0.0257568,12.317688-0.0132446,18.4765625-0.0264893c0.6397095-0.0013428,1.3015137,0.2644653,1.8713989,0.2462769
		c-0.0489502-0.0168457-0.0975952-0.0369263-0.1466064-0.0535278c0.0963135,0.0183716,0.192688,0.0367432,0.2890015,0.0551147
		c1.7825317-0.1879883,3.5767212,0.4025879,5.329834-0.1400757c0.4182129-0.1294556,0.7787476-0.0443726,1.1616821,0.09198
		c1.1282959,0.4017944,2.2556152,0.4882813,3.3668823-0.0653687c0.4519043-0.2250977,0.9378052-0.1660767,1.4143066-0.1723633
		c0.0159302-0.0001831,0.0319214-0.0003052,0.0478516-0.0004883c-0.1206055-0.0002441-0.2412109-0.0026245-0.3617554-0.0021973
		c-0.3565674,0.0011597-0.7352905-0.0725098-1.0595703,0.1213989c-0.1000977,0.0598755-0.2007446,0.1055908-0.3013916,0.1519775
		l-2.2515869,0.1855469c-0.2589111-0.0522461-0.5181885-0.1199341-0.7774048-0.1976929l15.3899536-1.6003418l1.2199707,1.1820068
		c-0.5755615,0.005188-1.151062,0.0134888-1.7265625,0.020752l-0.5438232-0.5223999l-7.7824707,0.6413574
		c4.7573242-0.0527954,9.5151367-0.092041,14.2711182-0.1918945l-3.9243774-3.8327026l-20.5501709,2.5579834l-24.4505005-4.7189941
		l-14.4477539-7.0894165l-5.6190796,3.0095825l5.885437-3.2658691l14.159668,7.0272827
		c8.3665161,1.633728,16.7328491,3.2688599,25.0999756,4.9000244l20.7294312-2.9845581l4.4424438,4.3721313
		c0.4814453-0.0116577,0.9632568-0.0132446,1.4447021-0.0267944l-5.531189-5.4432983l-19.4806519,2.8048096l20.274292-3.2959595
		l5.953186,5.9014282c0.4910278-0.0140381,0.9821167-0.0281982,1.4732056-0.0421753l-7.0629883-7.0016479l-15.6137085,2.5383911
		l16.3944092-2.9559937l7.4000244,7.3869629c0.5053101-0.0145874,1.0105591-0.0300903,1.5158691-0.045166l-8.5459595-8.5308838
		l-11.4411011,2.0628052l12.2171631-2.4095459l8.803894,8.8468018c0.5192871-0.0159912,1.0385132-0.0338135,1.5577393-0.0509644
		l-9.9880371-10.0366211l-6.1072388,1.2045288l6.8596191-1.4639893c2.8380737,2.8699951,7.6184082,7.6353149,10.2567139,10.2613525
		c0.4984741-0.017334,0.9969482-0.0343628,1.4953613-0.0532227l-11.3709717-11.4992065l-1.1951904,0.2550659l1.9403687-0.4441528
		c3.2074585,3.2633057,8.6674805,8.7484131,11.559082,11.6498413c0.5126953-0.0205688,1.0253296-0.0405884,1.5379028-0.0633545
		l-12.6550293-12.8753052l0.6795044-0.1655884c3.5543213,3.6372681,9.6668701,9.8284302,12.8041382,13.0029907
		c0.5330811-0.0250854,1.06604-0.0541992,1.598938-0.0821533l-0.536377-0.5338135l-13.3510132-13.6627197l0.6002197-0.1547852
		c3.8903809,4.0033569,10.6184082,10.8762207,13.9851685,14.3134155c3.460022-0.1907959,6.9160767-0.4463501,10.3643799-0.8290405
		c0.5847778-0.0648804,1.164978-0.1557007,1.7480469-0.2303467l6.6470337-3.6690674l-4.6831665,3.4102173
		c0.8474121-0.125,1.6903076-0.2733765,2.5336914-0.4196777l2.2914429-1.6685791l-1.6190186,1.5438843
		c3.2289429-0.5812988,6.4307861-1.3033447,9.5921021-2.2150269l-2.4624634-1.4846191l0.1438599-0.3279419l2.7701416,1.6843262
		c2.1986084-0.6577148,2.4853516-1.0838013,2.4028931-3.420166c-0.1566772-4.4421387-0.3963013-8.8792725-0.6781006-13.3140869
		c0.043396,0.7705688,0.0858154,1.5410767,0.1211548,2.3117065l-0.3765259-0.2293091l-32.3988037-11.1271973
		c-0.2011108,0.067749-0.3995972,0.1365356-0.6021729,0.2036743L190.7299805,270.1030273z M43.9718628,271.1021729
		l21.059021,12.026062l-0.0419922,0.0232544l-21.0278931-11.8240356
		C43.9643555,271.2523804,43.9685059,271.1772461,43.9718628,271.1021729z M43.8671875,272.767395
		c0.0088501-0.0982666,0.0133057-0.1969604,0.0211792-0.2953491l20.9350586,11.7716064l-0.1100464,0.0588989L43.8671875,272.767395z
		 M104.8206177,289.4830322l-11.4240112-2.1236572l-14.2421875-6.7459106l-15.3198242,7.3262329l-20.2746582-10.6488037
		c0.0098877-0.1473389,0.0150146-0.295105,0.0209351-0.442749l20.319397,10.8671265l15.3056641-7.6109009l14.0079346,6.715271
		l14.1287231,2.6609497C106.5018921,289.4820557,105.6613159,289.4816284,104.8206177,289.4830322z M113.9205322,289.4742432
		c-0.513916,0.0007324-1.027771,0.0006714-1.541687,0.0014648l-18.8667603-3.5532837l-14.3115234-6.8606567l-6.2252197,3.095459
		l6.711792-3.4658813l14.0610352,6.8205566c6.9658813,1.3308105,13.9324341,2.6574097,20.8988647,3.9854736
		C114.4068604,289.4810791,114.1650391,289.473877,113.9205322,289.4742432z M79.9406738,277.2801514l14.109314,6.9233398
		c8.2478027,1.5921631,16.4953613,3.1850586,24.7434082,4.7753296l20.2300415-2.5180664l2.8685913,2.8015137
		c-0.4798584,0.0047607-0.9597168,0.0099487-1.4396362,0.0139771l-2.2473755-2.1771851l-20.0377808,2.0834961l-24.1142578-4.5986328
		l-14.3773193-6.9738159l-9.7878418,5.0542603L79.9406738,277.2801514z M67.0529175,271.7880249L44.847229,257.9671021
		c0.0031128-0.0946045,0.0106812-0.1889648,0.0134277-0.2835693l21.9995728,13.4187622l11.4188232-6.7337036L67.0529175,271.7880249
		z M190.9022217,283.7701416l-3.72229-2.2631836l0.1177979-0.2684937l3.8306274,2.3485718
		C191.0562744,283.6497803,190.9862061,283.7150269,190.9022217,283.7701416z M191.7737427,282.3980103l-3.7064819-2.272522
		l0.1671143-0.1594238l3.5635986,2.2028809C191.7904663,282.2457275,191.786377,282.3258057,191.7737427,282.3980103z"></path>
	<path d="M126.7781372,264.8022461c-1.0080566,0.0577393-2.026123,0.1015015-3.0521851,0.1337891l0.9447632,0.368103
		L126.7781372,264.8022461z"></path>
	<path d="M135.234375,264.0125122c-1.8936768,0.2453003-3.8223267,0.4517822-5.789856,0.6090698l-4.5986328,1.1229858
		l-2.0776978-0.7824707c-0.708374,0.0165405-1.4216309,0.0254517-2.1383057,0.0292969l4.1676636,1.5695801L135.234375,264.0125122z"></path>
	<path d="M66.4091187,289.024292c-0.1034546-0.0079346-0.2067871-0.0181885-0.3102417-0.0263062l-0.0039063,0.00177
		C66.199646,289.0081177,66.3043823,289.0161133,66.4091187,289.024292z"></path>
	<path d="M143.3058472,289.2470093c0.4406128-0.0059814,0.8810425-0.0196533,1.3215942-0.0279541l-0.005127-0.0050049
		c-0.4416504,0.0106812-0.8833618,0.0152588-1.3250732,0.0245361L143.3058472,289.2470093z"></path>
	<path d="M75.8198242,289.4656372c1.2202759,0.0265503,2.440918,0.0368042,3.6616211,0.0477295l-1.7559814-0.7800903
		L75.8198242,289.4656372z"></path>
	<path d="M187.0235596,253.7434082l3.2203369,1.5734253c0.0651855,0.8015137,0.1264648,1.6032715,0.1898193,2.4049072
		l-2.4760742-1.2633057l-14.8050537-3.8083496c-0.2537231,0.1219482-0.5093994,0.2435303-0.7672119,0.3654175l15.3847656,3.9575195
		l2.7137451,1.3845215c0.0558472,0.7130127,0.1131592,1.4258423,0.1680298,2.138855
		c-0.1271973-1.788208-0.253479-3.5764771-0.3869019-5.364502c-0.0545654-0.7311401-0.0953369-1.4630737-0.1328125-2.1951904
		c0.0090942,0.5692749,0.0168457,1.1391602,0.0609741,1.7062378l-2.9754028-1.4537354l-10.3383179-2.4030762
		c-0.2644653,0.1375732-0.5313721,0.2750244-0.8012695,0.4130859L187.0235596,253.7434082z"></path>
	<path d="M65.4607544,256.1119385l-19.7215576-10.5222168c0.0198975-0.3071899,0.0324707-0.6147461,0.0375366-0.9227295
		l12.5934448,6.5551758c-4.8146973-2.5985718-8.6636353-5.0890503-11.5303345-6.9946899l-1.0787354-0.5615234
		c-0.0024414-0.055481-0.0108032-0.1113892-0.0140381-0.1669312c-0.0167847-0.0112305-0.0322876-0.0215454-0.0490112-0.0327148
		c0.0361328,1.1781616,0.0145874,2.3538208-0.0957031,3.5279541c0.0159912-0.1311035,0.0338135-0.262207,0.0480957-0.3933716
		l19.6555786,10.4871826l3.9343872-0.6911621c-0.5355225-0.2220459-1.0593872-0.4462891-1.5800781-0.6713867L65.4607544,256.1119385
		z"></path>
	<path d="M65.7364502,258.4309692l-20.1715088-11.0235596c-0.0386963,0.3481445-0.0856323,0.696167-0.1401978,1.0441284
		l20.1757202,11.0257568l7.0786133-1.7211304c-0.5438232-0.2053223-1.0899048-0.4099731-1.6201782-0.6193848L65.7364502,258.4309692
		z"></path>
	<path stroke="#000000" stroke-width="0" stroke-linecap="round" stroke-linejoin="round" d="M45.5054932,121.5643311
		c-0.0539551,0.017395-0.1129761,0.0318604-0.1725464,0.0460205"></path>
	<path d="M230.4613647,118.2614136l-0.0476074-0.0107422c-0.6790771,0.2202759-1.3546143,0.4535522-2.0390015,0.6538086
		C229.072998,118.7001953,229.7684937,118.4855347,230.4613647,118.2614136z"></path>
	<path d="M45.0344849,121.6732788c0.0514526-0.0055542,0.0905151-0.0209351,0.1385498-0.0292358
		c-0.1842041,0.0332642-0.3887329,0.057312-0.6271973,0.0714722c-0.5180664,0.0308228-1.0354614,0.0772705-1.5523682,0.1248169
		c-0.7186279,0.06604-1.4349365,0.1495361-2.1509399,0.2348633c0.2412109-0.0610962,0.4825439-0.1220093,0.7221069-0.1896362
		c-0.2477417,0.0727539-0.4985962,0.1318359-0.7489624,0.192749c-0.1234741,0.0147095-0.2471313,0.0288086-0.3706055,0.0435181
		L15.567688,116.742981l-14.062561-7.0125122c-0.0288086,0.1602783-0.05896,0.3203125-0.0893555,0.4802856l13.9978638,6.9803467
		l23.5583496,5.0935669c-1.0390625,0.1090088-2.0812988,0.1968384-3.135376,0.2016602
		c-2.5557251,0.0117798-5.0980225-0.1086426-7.6363525-0.3069458l-13.0498657-2.6864014l-14.0537109-7.7003174
		c-0.0320435,0.149231-0.062439,0.2987671-0.0951538,0.447876l13.9974976,7.6693726l9.2062988,1.8951416
		c-0.1480103-0.0164185-0.2960815-0.0287476-0.4440918-0.0456543c-4.2858276-0.4896851-8.5506592-1.1140137-12.7993774-1.8419189
		c3.1062622,0.5403442,6.2218628,1.0283203,9.3518677,1.4362183c5.6747437,0.7394409,11.3589478,1.3712158,17.09021,1.0872803
		C39.9539185,122.3146362,42.4926147,121.9489136,45.0344849,121.6732788z"></path>
	<path d="M0.2399902,116.4161987l3.1555786,2.0570068c0.3338623,0.0668945,0.6676025,0.1351929,1.0016479,0.2010498
		l-4.1572266-2.710022C0.2399902,116.1149292,0.2399902,116.2655029,0.2399902,116.4161987z"></path>
	<path d="M4.4296265,118.6953735c0.7504272,0.1530762,1.5036011,0.2907715,2.255127,0.4379272
		c-0.7637939-0.145813-1.5245361-0.3086548-2.2875366-0.4590454L4.4296265,118.6953735z"></path>
	<path d="M3.420166,118.4892578l-0.0245972-0.0160522c-1.0519409-0.2106934-2.105835-0.4099121-3.1555786-0.6332397
		C1.3007813,118.0523682,2.3602905,118.2716064,3.420166,118.4892578z"></path>
	<path d="M0.7254028,113.4847412c-0.1644897,0.7313232-0.3292847,1.4625854-0.4854126,2.1952515
		c0.1203003-0.4639282,0.2258301-0.9309692,0.3254395-1.3991699l9.0003052,5.390686
		c0.3772583,0.0678101,0.7543945,0.1359253,1.131958,0.2020264l-10.0457153-6.0169678
		C0.6772461,113.7327881,0.7005615,113.6086426,0.7254028,113.4847412z"></path>
	<path d="M43.2241211,281.3671875l12.5380859,6.3363037c0.9171753,0.1605225,1.8359985,0.3130493,2.758606,0.4478149
		l-15.2354736-7.6995239C43.2647095,280.756897,43.239502,281.0618286,43.2241211,281.3671875z"></path>
	<path d="M45.776062,285.3571167c0.7316895,0.2243042,1.4710083,0.4121094,2.2074585,0.6135864
		c-0.3850708-0.1100464-0.7705688-0.2180176-1.1541748-0.3336182l-3.2784424-1.588562
		C43.9058838,284.6372681,44.5702515,284.9874878,45.776062,285.3571167z"></path>
	<path d="M43.2510986,283.1252441c0.0203857,0.1481323,0.0482788,0.2885132,0.0837402,0.4159546
		C43.2997437,283.4134521,43.272583,283.274231,43.2510986,283.1252441z"></path>
	<path d="M43.2510986,283.1252441c-0.0031128-0.0227051-0.0062256-0.0454712-0.0090332-0.0686646l-0.0053101-0.0026245
		C43.2400513,283.0801392,43.2474365,283.0996704,43.2510986,283.1252441z"></path>
	<path d="M43.3348389,283.5411987c0.0111694,0.0406494,0.0246582,0.0795898,0.0373535,0.1181641
		C43.3591919,283.6206665,43.3461304,283.5818481,43.3348389,283.5411987z"></path>
	<path d="M43.3721924,283.6593628c0.0375366,0.1120605,0.0822754,0.2194824,0.1350098,0.3171387
		C43.4547729,283.8789063,43.409729,283.7734985,43.3721924,283.6593628z"></path>
	<path d="M43.2420654,283.0565796l7.161499,3.5455322c1.109375,0.2662964,2.2214355,0.5194702,3.3401489,0.7410889
		l-10.5484619-5.22229C43.1898804,282.4804688,43.2088013,282.7805786,43.2420654,283.0565796z"></path>
	<path d="M43.5509033,284.0485229c-0.0144653-0.0240479-0.0303345-0.0471802-0.0437012-0.0720215
		c0.0106201,0.0197144,0.0159912,0.0449829,0.0272217,0.0640259L43.5509033,284.0485229z"></path>
	<path stroke="#000000" stroke-width="0" stroke-linecap="round" stroke-linejoin="round" d="M220.2462158,122.5105591
		c-0.0411987,0.0055542-0.0822754,0.0117188-0.1234741,0.017334"></path>
	<path d="M189.6516113,218.6936646c-0.0068359,0.1890259-0.0183105,0.378418-0.0254517,0.5675049
		c0.0005493,0.0326538,0.0009766,0.0651855,0.0015259,0.0978394
		C189.6326294,219.1375122,189.6486816,218.914917,189.6516113,218.6936646z"></path>
	<path d="M216.6674194,122.9730835c0.1264038-0.0153198,0.2524414-0.0325317,0.3787842-0.0480347
		c-0.3140869,0.0380249-0.6278687,0.0787354-0.9421387,0.1148682
		C216.2918091,123.0172729,216.4796753,122.9959106,216.6674194,122.9730835z"></path>
	<path d="M198.6345825,123.897522c0.777832,0.0652466,1.5634155,0.1077881,2.3670654,0.1004028
		c1.2472534-0.0114746,2.4916992-0.0419922,3.7341309-0.0874634
		C202.703186,123.9342651,200.668396,123.9051514,198.6345825,123.897522z"></path>
	<path d="M189.4454956,244.6192017c0.0603638,0.2878418,0.1021729,0.5779419,0.1538696,0.8668823
		c-0.6841431-0.2941284-1.3682861-0.5881958-2.0524902-0.8821411c-0.2365723,0.1516113-0.4690552,0.3013916-0.7171021,0.458313
		l2.8995972,1.2462769c-0.0946045-0.9590454-0.2227173-1.9161377-0.3897705-2.8709717
		c-0.0169067,0.0111694-0.0328369,0.0217896-0.0497437,0.032959
		C189.3200684,243.8529053,189.3651123,244.2357788,189.4454956,244.6192017z"></path>
	<path d="M185.5327148,247.3494263l4.4212036,1.9827881c-0.0134888-0.2455444-0.0296631-0.4908447-0.0449219-0.7362061
		c-1.395813-0.6296387-2.7922974-1.2619019-4.1877441-1.8884888l-1.2041016-0.2144775
		c-0.2825317,0.1712036-0.5754395,0.3456421-0.8692627,0.5206909L185.5327148,247.3494263z"></path>
	<path d="M186.2734375,250.5345459l3.8275146,1.7913818c-0.0112305-0.2338257-0.0228271-0.4675903-0.0336914-0.7014771
		c-1.1937866-0.56073-2.3873291-1.1212769-3.590271-1.6842651l-5.8164063-1.1988525
		c-0.2759399,0.1550293-0.5460205,0.3086548-0.8296509,0.465332L186.2734375,250.5345459z"></path>
	<path d="M46.8956909,121.5108643c0.0184326,0.2010498,0.0360107,0.4020996,0.052124,0.6031494l0.0252686,0.0141602
		c-0.0042114-0.1825562-0.0093994-0.378479-0.0150146-0.5822754
		C46.9372559,121.5342407,46.9165039,121.522522,46.8956909,121.5108643z"></path>
	<path d="M45.3551636,121.2197876l0.401123,0.2251587c0.1602173-0.0943604,0.288208-0.2145386,0.3936157-0.3528442
		c-0.2050781-0.1149292-0.40979-0.2303467-0.6148682-0.3452148l-29.5574341-6.711792L1.8533936,107.663269
		c0.0279541-0.1670532,0.0515747-0.3345947,0.0775146-0.5018311c-0.0526733,0.3377075-0.1085815,0.6749268-0.1629639,1.0123291
		l14.0518188,6.3392334L45.3551636,121.2197876z"></path>
	<path d="M208.2193604,35.8876953c0.9865723,0.8762207,1.9628906,1.7647095,2.9075928,2.6885376l-7.5779419-3.4522705
		c0.0092773,0.1625366,0.0148926,0.3344727,0.0230103,0.5l8.4470825,3.8482666
		c0.0854492,0.0905762,0.178894,0.1723022,0.2631226,0.2642212c0.2139893,0.2335815,0.4050293,0.4819336,0.6134644,0.7191162
		l-1.4749756,0.1347656l-7.7976685-3.675354c0.0053101,0.1810303,0.0091553,0.3657227,0.0130615,0.5501099l7.6970215,3.6278687
		c0.6513062-0.0596313,1.3026733-0.1190186,1.9540405-0.1784668c0.2026367,0.2367554,0.4094238,0.4709473,0.6066895,0.7111816
		l-3.6165161,0.3227539l-6.6253052-3.2339478c0.0009155,0.1997681,0.0021973,0.3988037,0.0015869,0.6022339l6.5210571,3.1830444
		c1.3829346-0.1237793,2.7659912-0.2469482,4.1489868-0.3702393c0.1769409,0.2218628,0.3377686,0.4543457,0.5102539,0.6791382
		l-5.7023926,0.4970093l-5.4917603-2.7789917c-0.0037842,0.2177124-0.0057983,0.4314575-0.0113525,0.6531982l5.3904419,2.7277222
		c2.0751343-0.1812744,4.1503906-0.3618774,6.2255859-0.5426025c0.1585083,0.2130737,0.3182373,0.425293,0.4729004,0.6409302
		l-7.7299194,0.6577759l-4.3980713-2.3097534c-0.0087891,0.2351074-0.0149536,0.4641724-0.0256348,0.7036133l4.2974854,2.256958
		c2.7667236-0.2364502,5.5336304-0.4711914,8.3005371-0.7063599c0.1385498,0.1998291,0.2703247,0.4041138,0.4056396,0.6060791
		l-9.7225342,0.8075562l-3.3416138-1.8235474c-0.0140381,0.2523804-0.0250854,0.4979248-0.0411987,0.7550049l3.2401123,1.7681274
		c3.4267578-0.2855225,6.8536987-0.5696411,10.2805176-0.8540039c0.1220093,0.1887207,0.2424316,0.378479,0.3616943,0.5689697
		l-11.642395,0.9434814l-2.3185425-1.3163452c-0.0194702,0.269104-0.0360718,0.5317993-0.0578003,0.8057861l2.2175293,1.2589722
		c4.0818481-0.331543,8.1638794-0.6619873,12.2459106-0.9924927c0.0609741,0.1012573,0.1227417,0.2019043,0.1849976,0.3022461
		c-0.6505737-1.0969849-1.3266602-2.1828613-2.0579834-3.2443237c-1.9993286-2.9019165-4.3949585-5.4817505-7.052124-7.810791
		c-1.1112061-0.9740601-2.2019043-1.9733887-3.2677612-2.9968262c-0.1333618-0.1280518-0.2747803-0.2419434-0.4143677-0.3591309
		c0.6694946,0.697998,1.3726196,1.3594971,2.0878296,2.0080566l-3.8536377-1.6984253
		c0.0134888,0.1509399,0.0283813,0.2982178,0.0407715,0.4520874L208.2193604,35.8876953z"></path>
	<path d="M204.4008179,32.434021c-0.3695679-0.2498169-0.7575073-0.4737549-1.1537476-0.6884155
		c0.0084839,0.0688477,0.0170288,0.1373291,0.0252686,0.2068481L204.4008179,32.434021z"></path>
	<path d="M45.213501,118.241394l-28.8374023-6.8771973l-14.2060547-5.7563477
		c0.0535889-0.3602295,0.1135254-0.7199707,0.1651611-1.0802612c0.0183105-0.1277466,0.038147-0.255127,0.0565186-0.3828125
		l14.2233887,5.1317749l28.0738525,7.0321045l2.0883179,1.1201172c-0.0133667-0.2191162-0.0274048-0.4388428-0.0423584-0.6625977
		c-0.6154785-0.329834-1.2305908-0.6604004-1.8460693-0.9902344l-28.119751-7.0436401l-14.293335-5.1571045
		c0.0684204-0.4706421,0.1380005-0.9411011,0.208252-1.411377l14.3043823,4.5467529l0.0153198,0.0036621l27.3353882,7.1924438
		l2.2698364,1.1895752c-0.0197754-0.2359009-0.0405884-0.4713135-0.062439-0.7086182
		c-0.6620483-0.3461304-1.3230591-0.6943359-1.9851074-1.0403442l-27.3936768-7.2077637l0.0001221-0.0004883l-14.3950195-4.5756226
		c-0.2515869,1.6825562-0.4984741,3.3658447-0.7568359,5.0472412c0.0230713-0.1538696,0.0477905-0.3075562,0.0712891-0.4614258
		l14.1346436,5.727417l28.8059082,6.8696289l1.5883789,0.8717651c-0.0091553,0.0849609-0.0170898,0.1697998-0.0305786,0.2536011
		c-0.022522,0.1400757-0.0476074,0.2669678-0.0748901,0.3858643c0.0639038-0.2562256,0.1148682-0.5233765,0.1531982-0.8026123
		c0.0322266,0.2279663,0.0546875,0.4557495,0.0827637,0.6836548c-0.0142822-0.1572876-0.0275269-0.3145752-0.0419312-0.4718628
		l0.1918945,0.1053467c-0.0084229-0.2046509-0.0167236-0.4074097-0.0266113-0.62146
		C46.317749,118.8477783,45.7658081,118.5441895,45.213501,118.241394z"></path>
	<path d="M38.5223389,78.3691406l-15.9186401-9.9205933L8.5751953,71.4992065
		c-0.0251465,0.1733398-0.0557251,0.3455811-0.0795898,0.519165c-0.0352783,0.2565918-0.0839233,0.5100708-0.1209106,0.7662964
		l14.0123901-3.0470581l15.630249,9.7409668l4.1217651,1.4263916c-0.1223145-0.5356445-0.2453613-1.0090942-0.3688965-1.4118652
		L38.5223389,78.3691406z"></path>
	<path d="M41,78c-0.2728271-0.2728271-0.5400391-0.5840454-0.8035278-0.9185181l-2.0731812-0.6965942L22.9138794,66.2836914
		L8.8951416,69.6988525c0.0246582-0.1258545,0.0446777-0.2523193,0.0704346-0.3780518l14.0012817-3.7679443l14.1541138,10.0385132
		l2.6074219,0.8501587C36.359375,71.633667,33.7817383,62.236084,32,56
		c-0.2735596-0.9575195-0.4866333-1.9146118-0.6574097-2.8688354l-6.1586914-8.8925781l-5.2077026-1.2628174
		c0.4320068-0.552002,0.8756714-1.0964355,1.3328857-1.632019l3.2744751,0.8756104l6.4194336,8.5323486
		c-0.0251465-0.2389526-0.0424805-0.4764404-0.0628662-0.7145996l-6.1329956-8.1515503l-3.2173462-0.8602905
		c-3.6561279,4.1599731-6.5568237,8.8920288-8.6629028,14.2169189c-2.0205688,5.1087646-3.4626465,10.4005127-4.2832642,15.8105469
		l14.0336914-3.4189453l14.8895874,9.8890381l3.9877319,1.3399048C41.3703003,78.3929443,41.1851196,78.0925903,41,78z
		 M19.7402954,43.2782593l5.2322998,1.2687378l6.3219604,9.12854l-6.1661377-8.6871338l-5.7427368-1.2554932
		C19.5009766,43.5794067,19.6230469,43.430481,19.7402954,43.2782593z M19.1286011,44.086731l5.7659302,1.2605591
		l4.2232056,5.9498901l-4.0444336-5.5586548l-6.2578125-1.2171631C18.9197998,44.3765259,19.022644,44.2304688,19.1286011,44.086731
		z M18.5256958,44.923645l6.2902222,1.2235107l2.1113892,2.9019775l-1.9107056-2.5614014l-6.7827148-1.1539307
		C18.3291016,45.1956177,18.4290161,45.060791,18.5256958,44.923645z M17.9313354,45.7896729l6.8077393,1.1582031
		l0.2144165,0.2875366l-7.2788086-1.05896C17.7598267,46.0472412,17.8449707,45.9180298,17.9313354,45.7896729z
		 M16.767395,47.6086426l7.8200073,0.9428711l0.1328125,0.1692505l-8.1564331-0.7781372
		C16.6307373,47.8306274,16.699585,47.7199707,16.767395,47.6086426z M15.6483765,49.5420532l8.7904053,0.6148682
		l0.0481567,0.0582886l-8.9923096-0.397583C15.5446777,49.7248535,15.5978394,49.6343994,15.6483765,49.5420532z
		 M15.1118774,50.5510864l9.2529907,0.4090576l0.005249,0.0062256l-9.3826904-0.1705933
		C15.0289917,50.7142334,15.0698853,50.6322632,15.1118774,50.5510864z M14.5374146,51.6804199
		c0.0151978-0.0313721,0.0320435-0.0615845,0.0473022-0.0929565l8.0133667,0.145752l-8.1149902,0.065918
		C14.5020142,51.7598267,14.5183716,51.7197266,14.5374146,51.6804199z M14.0933838,52.6511841l6.4955444-0.0527954
		l-6.5758667,0.2283936C14.0396729,52.7681885,14.0665283,52.7096558,14.0933838,52.6511841z M13.5948486,53.7410278
		l4.9909058-0.1733398l-5.0473633,0.3111572C13.5579224,53.8331299,13.5751343,53.7867432,13.5948486,53.7410278z
		 M12.684082,55.9951172l1.8971558-0.1685791l-1.9169312,0.2230835
		C12.6711426,56.0315552,12.6771851,56.0131836,12.684082,55.9951172z M12.263855,57.15448l0.3911133-0.0455322
		l-0.3952637,0.0570068C12.2611084,57.1621094,12.2625122,57.1583252,12.263855,57.15448z M9.7389526,65.8384399
		l13.7902222-4.3884277l10.0664063,8.2000732l-10.0736084-7.6468506L9.6828613,66.0717163
		C9.7012329,65.9938354,9.720459,65.9162598,9.7389526,65.8384399z M9.336792,67.579834l13.9112549-4.0896606l13.3425293,10.12854
		l-13.3731079-9.4845581L9.2681885,67.8881226C9.2909546,67.7852783,9.3138428,67.6825562,9.336792,67.579834z"></path>
	<path d="M41.3047485,92.8760986h-0.0018921l-20.9335327-8.7162476L6.2890015,84.3483276
		c0.071106-0.2996216,0.1425781-0.5991821,0.2119751-0.899231l14.0197144-0.6307983l20.0223999,8.8007202l0.0112305,0.0056763
		l3.4299927,1.4026489c-0.0440063-0.3651123-0.0881348-0.729248-0.1328735-1.0914917L40.913147,90.734314l-0.0003052,0.0006714
		l-20.2130737-8.8845215L6.7212524,82.4794922c0.0623779-0.2800293,0.1170044-0.5618286,0.1769409-0.8424072l13.9463501-1.0562744
		l19.3063354,8.9663696l3.5805054,1.4255981c-0.0481567-0.3817139-0.0968018-0.7592773-0.1456299-1.1348267l-3.0686035-1.2217407
		l-19.4915771-9.0526123l-13.913269,1.053833c0.0421143-0.2098389,0.0916748-0.4179077,0.131958-0.6281738
		c0.0099487-0.0518799,0.0166016-0.104248,0.0263672-0.1561279l13.8893433-1.4672241l18.5424194,9.1091309l0.0404663,0.0163574
		l3.7235107,1.4428711c-0.0531006-0.3973999-0.1065063-0.7893677-0.1603394-1.1758423l-3.1555176-1.2227173L21.3510742,77.300293
		L7.4503784,78.7686157c0.0408936-0.2401733,0.0831299-0.4801636,0.1217041-0.7207642l13.9024658-1.8729858l17.8215942,9.2716675
		l3.8909302,1.4667358c-0.0599365-0.4163818-0.1202393-0.8235474-0.1809692-1.2219238l-3.2612305-1.2293701l-18.0762329-9.4041748
		L7.753479,76.9325562c0.0324707-0.2178955,0.0627441-0.4360962,0.0943604-0.6541138l13.934082-2.2717896l17.0903931,9.4285278
		l4.0110474,1.4702148c-0.1964111-1.2357178-0.3960571-2.362915-0.5981445-3.3311768l-3.3509521-1.1937866l-16.6377563-9.7478027
		L8.2931519,73.3018799c-0.8047485,5.4110718-1.9586792,10.7396851-3.2059937,16.0533447
		c0.0330811-0.1414185,0.0654907-0.282959,0.0993652-0.4241333l14.3362427,0.7547607l22.2133179,8.3208008l2.9745483,1.3148804
		c-0.1917114-1.7124023-0.3936157-3.4932251-0.6038208-5.269043L41.3047485,92.8760986z"></path>
	<path d="M21.5795288,41.022522l0.0102539,0.0027466c0.3079834-0.3504028,0.6114502-0.7042236,0.9302979-1.0464478
		C22.2030029,40.3244629,21.8856201,40.6699219,21.5795288,41.022522z"></path>
	<path d="M222.4518433,112.6954346l10.4777832,1.9597778c0.0906372,0.3477173,0.2011108,0.6908569,0.3504028,1.0247803
		c-0.3415527-1.5046997-0.6630859-3.0132446-0.9738159-4.5238647c0.0372925,0.1879883,0.0757446,0.3757935,0.1110229,0.5641479
		c0.0062256,0.0333252,0.0101318,0.0673828,0.0161133,0.100769l-8.4199219-1.3901367l0.7167969-0.9851074l7.4415894,1.0476685
		c-0.0455322-0.2252808-0.0922852-0.4503784-0.1370239-0.6758423l-6.9169922-0.9738159l0.7521362-1.0223389l5.9051514,0.6713257
		c-0.3988647-2.0914917-0.7635498-4.1895142-1.0762939-6.2972412c0.0146484,0.1065063,0.0297241,0.2130127,0.0439453,0.3195801
		l-1.2001343-0.0117798l0.8883057-1.1755371l0.1403809-0.0049438c-0.0360718-0.2451172-0.071228-0.4904175-0.1070557-0.7355347
		l-5.9271851,7.81073l-30.2004395,8.4682007l-6.2440186-1.9904175C188.0352783,115.5765991,188,116,188,116
		c0.027832,1.7664185,0.055603,3.5327759,0.0834351,5.2991943c0.1020508-0.1593018,0.2994385-0.1502075,0.7641602,0.0440674
		c0.973999,0.4071045,1.9512939,0.7792969,2.9375,1.1083374c-0.7693481-0.3190308-1.5366821-0.6491699-2.3222046-0.9360352
		c0.1019897-0.3735352,0.3417969-0.4851685,0.8082886-0.3806152c9.2213745,2.0678711,18.4602661,1.5386353,27.6895142,0.0900269
		c-0.2957153,0.0463867-0.5914307,0.0890503-0.887085,0.1334839l-0.3879395-0.0095825l0.121582-0.0262451l0.1019897-0.4554443
		l1.21698,0.3296509c0.7789307-0.1237793,1.5542603-0.2615356,2.3278809-0.406311l0.0056152,0.0015259
		c0.0343628-0.0064087,0.0682983-0.0139771,0.1026611-0.0204468c0.2203369-0.0414429,0.4395752-0.0882568,0.6596069-0.1312256
		c0.4290161-0.0838623,0.8586426-0.1651001,1.2858887-0.2559814l-0.0212402-0.0054321
		c0.6795044-0.1445923,1.3564453-0.2991943,2.0314941-0.4607544l0.0284424,0.0072632
		c0.3599243-0.0861206,0.7174683-0.1814575,1.0761108-0.2723999c0.1188354-0.0301514,0.237793-0.0595703,0.3564453-0.090271
		c0.2105103-0.0544434,0.4223022-0.1039429,0.6323242-0.1600952l-0.0264893-0.0064087
		c0.5975952-0.15979,1.1956787-0.3178711,1.7894897-0.4916382l-8.7485962-2.1138306l0.0332031-0.0507202l0.5392456-0.7883301
		l10.2154541,2.2988892c0.5308228-0.1721802,1.0661011-0.3276367,1.593811-0.5110474l-11.2937012-2.541626l0.5999146-0.8770142
		l11.9662476,2.4762573c0-0.2720337,0-0.5440674,0-0.8161011l-11.4697876-2.3734741L222.4518433,112.6954346z
		 M229.291687,102.9503784l1.5129395,0.0147705c0.012085,0.0916138,0.0256958,0.1830444,0.0377197,0.2746582
		c0.0428467,0.3255615,0.100708,0.6482544,0.1505127,0.9724731l-2.5559692-0.125L229.291687,102.9503784z M228.1505737,104.5737305
		l2.9203491,0.1428223c0.0701904,0.428894,0.1414795,0.8575439,0.2202148,1.28479l-3.9611816-0.329834L228.1505737,104.5737305z
		 M227.0109253,106.197876l4.3861694,0.3652344c0.0834351,0.4371948,0.164917,0.8748169,0.2527466,1.3111572l-5.425415-0.6167603
		L227.0109253,106.197876z M223.5899658,111.0703735l8.960144,1.4793701
		c0.0644531,0.4376831,0.1310425,0.8756104,0.2097168,1.3114014l-9.8500366-1.8423462L223.5899658,111.0703735z"></path>
	<path d="M193.6387939,113.84729c9.8770142-2.5537109,19.7530518-5.1113892,29.6309814-7.6620483l6.8388672-8.0409546
		c-0.0239258-0.1665649-0.048645-0.3330078-0.0725098-0.4996338l-6.9768066,8.203125l-29.4095459,7.6047363l-5.3126831-1.616272
		c-0.010376,0.1311646-0.0206909,0.2611694-0.0308228,0.3887939L193.6387939,113.84729z"></path>
	<path d="M17.3751831,104.1841431l26.6105347,7.3562622l2.3936768,1.2254028
		c-0.0289307-0.2539673-0.05896-0.5059814-0.0906372-0.7576294c-0.6885376-0.3513794-1.3763428-0.7045898-2.0649414-1.0558472
		l-26.6837158-7.3765259L3.0859375,99.5820313c0.069519-0.4343262,0.1369019-0.8690796,0.2093506-1.3028564l14.460144,3.4133301
		l25.8751221,7.5169678l2.4349976,1.2173462C46.043335,110.2850952,46.0232544,110.1396484,46,110
		c-0.019165-0.1151123-0.0394287-0.2498779-0.0593262-0.3786621c-0.6887817-0.3433838-1.3764648-0.68927-2.0653076-1.0325317
		c-8.6149292-2.5128784-17.4165649-4.8867188-25.9696045-7.5449219L3.4053955,97.6208496
		C3.4764404,97.204895,3.5561523,96.7904053,3.6304932,96.375l14.4924927,2.8562622l25.1412964,7.6779785l2.4639282,1.2025757
		c-0.0765991-0.5859375-0.1569824-1.2353516-0.241272-1.9432373c-0.0377197,0.3519287-0.0524902,0.6997681-0.0143433,1.0404053
		c-0.649292-0.3161011-1.2977295-0.6343384-1.9470825-0.9503174c-8.4154663-2.5779419-16.8343506-5.1472778-25.2537231-7.7121582
		L3.7550659,95.6854858c0.0733643-0.3989868,0.1400757-0.7990112,0.21698-1.1973877l14.5037842,2.31073l24.4155884,7.8410645
		l2.5585938,1.218811c-0.1848755-1.5672607-0.387207-3.3839722-0.6035767-5.3223877l-2.3954468-1.0859375l-0.0315552-0.0126343
		l-23.0731201-8.2057495l-14.4040527-1.255188c-0.093689,0.3972168-0.1835938,0.7949829-0.2779541,1.1921387
		c-0.8128052,3.4211426-1.3664551,6.8856812-1.8856201,10.355957c0.0667725-0.4393311,0.1377563-0.8778687,0.206665-1.3167725
		L17.3751831,104.1841431z"></path>
	<path d="M46.5107422,120.2575073c-0.0310669,0.1245117-0.0586548,0.2519531-0.1018677,0.366272
		C46.4467163,120.5134277,46.4801636,120.3907471,46.5107422,120.2575073z"></path>
	<path d="M2.772644,101.5633545l0.0001831,0.000061c0.0018921-0.0128174,0.0039063-0.0256348,0.0058594-0.0385132
		C2.7767334,101.5377197,2.7745972,101.5505371,2.772644,101.5633545z"></path>
	<path d="M204.3821411,49.5353394c4.713562-0.3739014,9.4273071-0.7458496,14.1410522-1.1179199
		c0.0916138,0.163208,0.1791382,0.3291626,0.2689819,0.4935913l-15.3706055,1.1847534l-0.3724976-0.2298584
		c-0.0310669,0.3030396-0.0610962,0.6037598-0.0947266,0.9122925l0.2657471,0.1640015
		c5.3354492-0.4117432,10.6711426-0.8228149,16.0065918-1.2338867c0.079895,0.1529541,0.1688843,0.2996216,0.2472534,0.4536133
		l-16.5895996,1.246521c-0.0823364,0.7255249-0.171875,1.4660645-0.2687378,2.2217407
		c5.965332-0.4373169,11.9307251-0.8746338,17.8962402-1.3100586c0.0145264,0.0316162,0.0303345,0.0627441,0.0447388,0.0943604
		l-0.9584961,0.3582764l-17.0300293,1.2141724c-0.0423584,0.3250732-0.0860596,0.6525879-0.1311035,0.9832764
		c5.7865601-0.4130859,11.5730591-0.8275146,17.3599243-1.2377319c0.3856201-0.1442261,0.7713623-0.2883301,1.1571045-0.4324951
		c0.0112305,0.0256348,0.0213013,0.0516968,0.0324707,0.0773926l-2.4256592,0.7833252l-16.1654663,1.1221313
		c-0.0469971,0.3395996-0.0974731,0.6862183-0.1473389,1.0317383c5.4998779-0.3821411,10.9996948-0.7637939,16.4995728-1.1453857
		l2.633606-0.8505249c0.0198975,0.0479126,0.0404053,0.0956421,0.0601807,0.1436157l-3.9161987,1.0862427l-15.3166504,1.0346069
		c-0.0523682,0.3587036-0.1034546,0.7150269-0.1589355,1.0800781c5.2156372-0.3526611,10.4313965-0.7054443,15.6471558-1.0570679
		c1.3865356-0.3847046,2.7731323-0.7692261,4.159668-1.1537476c0.0257568,0.0654907,0.0476074,0.1323242,0.0731201,0.197876
		l-5.4459229,1.2866821l-14.467041,0.9506226C202.0106812,57.9257202,202.0058594,57.961792,202,58
		c-0.0539551,0.3508301-0.121521,0.6765747-0.1811523,1.0172119c4.9443359-0.3254395,9.8884888-0.6515503,14.8329468-0.9745483
		c1.888855-0.4468994,3.777832-0.8927612,5.6668701-1.3388672c0.0291138,0.0786743,0.0583496,0.1573486,0.0872192,0.236145
		l-6.9604492,1.3851929l-13.6587524,0.8724365c-0.0702515,0.3928833-0.1335449,0.798645-0.2107544,1.1779175
		c4.6757202-0.2996216,9.3513794-0.6001587,14.0273438-0.8961182c2.4031982-0.4800415,4.8070068-0.9572754,7.2106323-1.4349365
		c0.0307007,0.0887451,0.0563965,0.1789551,0.086731,0.2678223l-8.4841919,1.4003906l-12.871521,0.7990112
		c-1.7825928,8.6270142-5.2807007,13.7230225-7.1442261,15.9124756l7.4361572,2.2421875l15.8563843-3.9980469l8.8292236-0.5579224
		c-0.0518799-0.3077393-0.1055298-0.6152344-0.1582031-0.9228516l-8.8167114,0.5570068l-15.6886597,3.9558716l-1.355957-0.4088135
		l16.3557129-3.6678467l9.4793701-0.5891113c-0.3729248-2.1715698-0.7595215-4.3408203-1.1809692-6.5043945
		c-1.3040771-6.6950684-3.6226196-13.0195923-7.0512085-18.8632202l-13.5445557,1.0707397l-1.3295898-0.786438
		c-0.0251465,0.2861328-0.0480957,0.5673828-0.0756836,0.8587646L204.3821411,49.5353394z M224.6970215,64.4712524
		l-12.2932739,0.6765747l12.2214355-0.9691162C224.6497192,64.276062,224.6728516,64.3738403,224.6970215,64.4712524z"></path>
	<path d="M29.986084,33.2167969c-0.1528931,0.1421509-0.3046875,0.2855835-0.456665,0.4285889l1.8817749,1.2449951
		c0.0244751-0.2269897,0.0484619-0.4541626,0.0783081-0.678894L29.986084,33.2167969z"></path>
	<path d="M23.1799316,39.2786865l0.0089111,0.0026245c0.0938721-0.0969238,0.1900024-0.1921387,0.284668-0.2883911
		C23.3763428,39.0889893,23.2750244,39.1801758,23.1799316,39.2786865z"></path>
	<path d="M30.7868042,45.6605835c0.0023804-0.2169189,0.0090332-0.4311523,0.0137329-0.6466675l-6.2955322-7.0250244
		c0.1793823-0.1652832,0.3563232-0.3334351,0.5383301-0.4956055l5.8094482,5.906189
		c0.0095215-0.2163086,0.0200806-0.4308472,0.0311279-0.6453857l-5.4810181-5.5722656
		c0.203186-0.1778564,0.4069824-0.3548584,0.6121826-0.5302734l4.9572754,4.5699463
		c0.013916-0.2177734,0.0275879-0.4351196,0.0420532-0.6506348l-4.6138306-4.2532959
		c0.2280884-0.1929932,0.4527588-0.3897705,0.6815796-0.5818481l4.0341797,3.3535767
		c0.0155029-0.2224731,0.0310669-0.4459839,0.0460815-0.6654663l-3.6601563-3.0426025
		c0.2528687-0.2123413,0.5053711-0.4251709,0.7570801-0.638855l2.9956665,2.2306519
		c0.0136108-0.2298584,0.0278931-0.4611206,0.0395508-0.6870728l-2.5863037-1.9258423
		c0.0153809-0.0132446,0.0299683-0.0274658,0.0452881-0.0408325c-0.0164185,0.0126953-0.0306396,0.027832-0.0471802,0.0404053
		c-1.8884888,1.4345703-3.6177979,2.9905396-5.2328491,4.6332397c0.2365112-0.2338867,0.4731445-0.4676514,0.7146606-0.6956177
		L30.7868042,45.6605835z"></path>
	<path d="M193.2406616,77.647583l10.0043335,2.4204102l15.2778931-4.3096313l8.1801147-0.5256348
		c-0.0485229-0.2930298-0.0898438-0.5872803-0.1390381-0.880188l-8.1895752,0.5263062l-15.1503906,4.2736206l-9.253418-2.2387085
		C193.6239014,77.291626,193.3609619,77.5449829,193.2406616,77.647583z"></path>
	<path d="M204.5978394,80.6500244l-11.7592163-2.2016602c-0.0825806,0.2313843-0.1676636,0.4959717-0.2560425,0.8100586
		l12.0691528,2.2594604l14.7067261-4.6223755l7.515564-0.491272c0.0189819,0.1419067,0.0391846,0.2836914,0.0581055,0.4255981
		l-6.8920288,0.4586182l-14.0603027,4.9081421l-13.6709595-1.8699951c-0.0601807,0.2528687-0.1207275,0.5169067-0.1815796,0.7963257
		c4.6437988,0.6367188,9.2918091,1.2589722,13.9313354,1.894104l14.1346436-4.93396l6.8465576-0.4556274
		c0.0229492,0.1730957,0.0466309,0.3460693,0.0695801,0.519165l-6.2313843,0.4222412l-13.5136108,5.2258911l-15.4985962-1.3973389
		c-0.1777344,0.9127808-0.3526001,1.9074707-0.5174561,2.9559937c5.8461304,0.2714233,11.6921997,0.5474243,17.5380249,0.822876
		l12.9994507-5.5586548l5.5065308-0.3800049c0.03302,0.2376099,0.0705566,0.4745483,0.1044922,0.7120361l-4.9312134,0.3468018
		l-12.4120483,5.8602905l-19.0530396-0.1280518c-0.0316772,0.2272949-0.0631104,0.4540405-0.0934448,0.6834106
		c6.4320068,0.0415649,12.8640137,0.0852051,19.2959595,0.1296387l12.4328613-5.8701172l4.8607788-0.3417969
		c0.039917,0.2705688,0.0774536,0.5415649,0.1192017,0.8118896l-4.2993164,0.3082275l-11.8595581,6.1776733l-20.7762451,0.638855
		c-0.0244141,0.217041-0.0480957,0.4330444-0.0708008,0.6495972c7.0046997-0.2189941,14.0098267-0.4331665,21.0147705-0.6461792
		l11.8687744-6.182373l4.2202759-0.3026123c0.0485229,0.3049316,0.0994873,0.609436,0.1486816,0.9141846l-3.6893921,0.2697754
		l-11.3051147,6.4941406l-22.4451294,1.4762573c-0.0039063,0.0498657-0.0090332,0.1010742-0.0128174,0.1507568
		c-0.0125122,0.1633911-0.0267944,0.3092651-0.039978,0.4660034c7.5593262-0.5014038,15.1195068-0.9954224,22.6794434-1.4916992
		l11.3065186-6.4951172l3.6051025-0.2636108c0.0552979,0.34021,0.1102295,0.680542,0.1660156,1.0206909l-3.0890503,0.2304688
		l-10.7515259,6.8118896l-24.1438599,2.3795776c-0.0253296,0.2005615-0.0507202,0.399292-0.0768433,0.5860596
		c8.1369019-0.8048706,16.274292-1.6071777,24.4118042-2.4061279l10.7434082-6.8068237l2.9990234-0.2237549
		c0.0618286,0.3768311,0.1221313,0.7539063,0.1838989,1.1307373l-2.4970093,0.1902466l-10.1966553,7.1292725l-25.4664307,3.2937622
		l-0.546936-0.1348877c-0.0374146,0.1843262-0.074646,0.3624878-0.1113892,0.5297852l0.6265869,0.154541
		c8.5665894-1.1099243,17.1338501-2.2162476,25.7007446-3.3240356l10.1816406-7.1188354l2.3950806-0.1824951
		c0.0678101,0.414917,0.1307373,0.8306274,0.1975708,1.2456055l-1.9028931,0.1480713l-9.6405029,7.446106l-26.2531738,4.1551514
		l-1.789917-0.4591064c-0.0374756,0.1707153-0.0720215,0.3374634-0.1000977,0.4995117l1.8616943,0.4775391
		c8.8293457-1.3981934,17.6592407-2.7948608,26.4886475-4.1924438l9.6212769-7.4313354l1.7948608-0.1397095
		c0.0726318,0.4549561,0.1460571,0.9098511,0.2165527,1.3651733l-1.3154297,0.1046143l-9.0834961,7.7626953l-27.0429688,5.0172729
		l-2.6833496-0.7166748c-0.0079346,0.1518555-0.0169067,0.3138428-0.0267334,0.484436l2.6903687,0.7185669
		c9.0912476-1.6867065,18.1815186-3.3772583,27.2733154-5.0600586l9.0617065-7.7440796l1.1975708-0.0952148
		c-0.7529297-5.3029785-1.5288086-10.6022949-2.3989868-15.8861084l-7.5527954,0.4937134L204.5978394,80.6500244z"></path>
	<path d="M192.9605103,110.5783081c9.6137085-2.2677002,19.2287598-4.5293579,28.8431396-6.7946167l7.9185181-8.3436279
		c-0.0205078-0.1443481-0.0411377-0.2886353-0.0616455-0.4329834l-0.100647,0.0083618l-7.9674683,8.3953857l-28.6226807,6.7424316
		l-4.402771-1.2805786c-0.0106201,0.1396484-0.0212402,0.2790527-0.0318604,0.4185181L192.9605103,110.5783081z"></path>
	<path d="M24.43927,39.647522l-1.2504272-0.3662109c-0.1079712,0.1115112-0.2207031,0.2194824-0.3276367,0.3318481
		l1.3430176,0.3933716l6.612915,8.0673828c-0.0083008-0.2230835-0.0122681-0.4447632-0.0172119-0.666748L24.43927,39.647522z"></path>
	<path d="M192.2875977,107.4154053c9.352356-1.9782715,18.7054443-3.9524536,28.0584106-5.9275513l8.5026245-8.057251
		l0.5806885-0.0472412c-0.020813-0.1465454-0.041748-0.2931519-0.062561-0.4396973l-0.7068481,0.0574951l-8.5257568,8.0791626
		l-27.8327026,5.8797607l-3.522644-0.9810791c-0.010376,0.1481934-0.0209961,0.2984619-0.0317993,0.4503174L192.2875977,107.4154053
		z"></path>
	<path d="M226.7595825,75.5654297c-0.0151367-0.111145-0.0301514-0.22229-0.0454712-0.3334351l-0.0111084,0.0007324
		c0.0183105,0.1108398,0.0343628,0.2221069,0.0526123,0.3329468L226.7595825,75.5654297z"></path>
	<path d="M31.5947876,32.0958862c0.0927124-0.0383911,0.1836548-0.0807495,0.276123-0.1196289
		c0.0029907-0.0144043,0.0061646-0.0281982,0.0091553-0.0425415c-0.0926514,0.041687-0.1852417,0.0834351-0.2779541,0.125061
		c-0.244873,0.1100464-0.461731,0.2514038-0.6745605,0.3973389l0.7669678,0.4464111
		c0.0402222-0.2271729,0.081543-0.453064,0.1256104-0.6754761L31.5947876,32.0958862z"></path>
</g>
<g onclick="select(this)" class="" id="c-gola-primaria" fill="#000000">
	<path d="M141.8400116,0.24c0.9924622,0.4431632,2.086441,0.4431034,3.1214447,0.7117371
		c1.5948334,0.4139404,2.9455872,1.1451814,3.9818878,2.4655492c1.312851,1.672699,2.9249878,3.0421085,4.6068878,4.3305616
		c-0.6725922,0.3461242-1.4079285,0.1110463-2.1116333,0.2282166c-4.0824432,0.6797323-8.1704407,1.3415394-12.2993622,1.6656408
		c-9.5056305,0.746151-18.9954681,1.886385-28.5633621,1.1391401c-3.2225494-0.2516785-6.4539337-0.3882189-9.6786346-0.6149645
		c-4.3765793-0.3077393-8.7208252-0.9223585-13.0565796-1.560708c-2.0027313-0.2948618-4.024086-0.3182335-6.0174026-0.6403394
		c1.4944687-1.1411915,3.0270386-2.2916994,4.0824432-3.8432579c1.6976318-2.4956884,4.1215515-3.3665047,6.9380035-3.6106102
		C93.2577438,0.4750811,93.733696,0.6210111,94.0800018,0.24c7.9200058,0,15.840004,0,23.7600021,0c2,0.1722626,4,0.3261583,6,0
		C129.8400116,0.24,135.8400116,0.24,141.8400116,0.24z"></path>
</g>
</svg>
