<!--?xml version="1.0" encoding="utf-8"?-->
<!-- Generator: Adobe Illustrator 24.2.3, SVG Export Plug-In . SVG Version: 6.00 Build 0)  -->
<svg version="1.1" id="Camada_1" xmlns="http://www.w3.org/2000/svg" xmlns:xlink="http://www.w3.org/1999/xlink" x="0px" y="0px" viewBox="0 0 234 419" style="enable-background:new 0 0 234 419;" xml:space="preserve">
<style type="text/css">
	.st0{fill:#01C801;}
	.st1{fill:#1E8889;}
	.st2{fill:#9D1616;}
	.st3{fill:#0E1880;}
	.st4{fill:#C0171D;}
	.st5{fill:#DCBA31;}
</style>
<g onclick="select(this)" class="" id="c-gola-primaria" fill="#082890">
	<path d="M82,7.9c2-1.6,3.7-3.5,5.4-5.4c1-1.2,2.6-1.4,4.1-1.8c0.7-0.2,1.5,0.1,2.1-0.5c2.1,0,4.2,0,6.2,0
		c0.7,0.5,1.5,0.2,2.2,0.2c5.3,0,10.5-0.1,15.8-0.1c1,0,2,0.1,2.9,0c1-0.1,2.1,0.3,3.1-0.2c6,0,12,0,18,0c0.9,0.5,2,0.5,3,0.7
		c1.6,0.4,3,1.1,4.1,2.5c1.3,1.7,2.9,2.9,4.5,4.3c-4.3,0.5-8.6,1.1-12.9,1.6c-7.5,0.9-15.1,1.3-22.7,1.6c-4.5,0.2-9-0.5-13.5-0.6
		C100,10.2,95.8,9.5,91.5,9C88.3,8.6,85.2,8,82,7.9z"></path>
</g>
<path d="M117.8,0.4c-5.3,0-10.5,0.1-15.8,0.1c-0.7,0-1.5,0.3-2.2-0.2c6,0,12,0,18,0L117.8,0.4L117.8,0.4z"></path>
<g onclick="select(this)" class="" id="c-detalhe-lateral" fill="#ffffff">
	<path d="M46.6,116.3c1,0.4,0.5,1.3,0.7,1.9c0.7,2.3,1,4.7,1.3,7.1c0.3,2.8,0.7,5.6,0.9,8.4c0.4,4.2,0.7,8.3,0.9,12.5
		c0.1,2.4,0.3,4.9,0.4,7.3c0.5,17.7,0.3,35.4,0.3,53.1c0,6.6-0.2,13.2-0.4,19.8c-0.1,2.4-0.1,4.8-0.2,7.2
		c-0.2,6.1-0.3,12.2-0.6,18.3c-0.2,4.1-0.3,8.1-0.5,12.2c-0.2,5.6-0.4,11.2-0.8,16.8c-0.1,1.6-0.1,3.3-0.3,4.9
		c-1-0.1-1.9-0.4-2.8-0.7c-2.1-0.7-2.4-1.1-2.2-3.3c0.4-5.4,0.7-10.8,1.1-16.2c0.3-3.9,0.6-7.8,0.6-11.7c0-2.3,0.2-4.6,0.7-6.9
		c0.5-2.3-0.1-4.6-0.2-6.9c-0.4-5.3,0.2-10.5,1.5-15.7c0.6-2.2,0.1-4.3-0.1-6.4c-0.8-7.5-0.5-15,1.1-22.4c0.5-2.1,0.6-4.3,0.5-6.4
		c-0.3-4.6,0.1-9.3-0.1-13.9c-0.2-5.7,0-11.3-0.5-17c-0.1-0.6-0.1-1.3,0-1.9c0.8-7.2,0.2-14.4-0.2-21.7c-0.2-4.1-0.4-8.2-0.6-12.3
		c-0.1-1.2-0.1-2.5-0.5-3.7C46.6,117.7,46.6,117,46.6,116.3z"></path>
	<path d="M186.8,284.8c-0.2-4.2-0.4-8.4-0.6-12.5c-0.3-6.2-0.5-12.4-0.7-18.6c-0.2-5.1-0.3-10.2-0.5-15.3
		c-1.1-24-0.8-48.1-0.8-72.1c0-6.3,0.2-12.6,0.5-18.9c0.2-4.8,0.6-9.6,1.1-14.4c0.4-4.1,0.8-8.1,1.5-12.2c0.1-0.4,0.1-0.7,0.5-0.9
		c0.1,0.2,0.2,0.4,0.3,0.5c-0.9,0.8-0.5,2-0.6,2.9c-0.7,7.6-0.9,15.3-0.8,23c0.1,3.9,0.5,7.8,0.2,11.7c-0.6,7.7-0.2,15.4-0.1,23.1
		c0,2.7-0.1,5.4-0.5,8.1c-0.2,1.7-0.2,3.5,0.1,5.3c0,0.3,0.1,0.6,0.1,0.8c-0.3,3.2,0.6,6.2,1.4,9.3c1.8,6.1,2,12.4,1.3,18.6
		c-0.4,4.2-0.4,8.3,0.2,12.4c0.1,0.8,0.1,1.6,0,2.4c-0.7,5.4,0.6,10.7,0.7,16.1c0.2,7.1,0.9,14.2,1.3,21.3c0.1,2.1,0.4,4.1,0.3,6.2
		c0,1.2-0.5,1.9-1.6,2.2C189.1,284.2,188,284.7,186.8,284.8z"></path>
</g>
<g onclick="select(this)" class="" id="c-detalhe-punho" fill="#ffffff">
	<path d="M0.2,116.1c0.6-1.6,0.5-3.3,1-5c0.1-0.5,0-1.1,0.6-1.5c3.1,0.6,6.2,1.2,9.4,1.9c3.4,0.7,6.8,1.3,10.2,1.8
		c1.6,0.2,3.1,0.5,4.7,0.7c4.3,0.4,8.6,0.6,12.9,0.2c2.3-0.2,4.8,0.2,6.6-2.3c0.2,1.1,0.4,2,0.5,2.8c-0.2,0.6,0.7,1,0.5,1.6
		c0,0.7,0,1.4,0,2.2c0,0.1-0.1,0.2-0.1,0.3c0.2,2.3-0.2,2.7-2.4,2.8c-3.6,0.3-7.1,0.9-10.7,0.8c-6.3-0.2-12.5-1.1-18.7-2
		c-4.6-0.7-9.1-1.5-13.6-2.6c-0.3-0.1-0.5-0.2-0.8-0.2C0.2,117.1,0.2,116.6,0.2,116.1z"></path>
	<path d="M188.1,120.4c-0.1-0.2-0.2-0.4-0.3-0.5c0.4-2.1,0.7-4.3,0.9-6.5c0.8-0.1,0.2-0.8,0.7-1.2
		c0.5,0,0.9,0.4,1.3,0.7c2.5,1.9,5.1,3,8.4,3c4.6,0,9.2-0.4,13.7-1c5.3-0.7,10.7-1.3,16-2.3c1.2-0.2,2.3-0.6,3.5-0.9
		c0.2,0.1,0.4,0.2,0.4,0.4c0.2,2.1,0.7,4.3,0.8,6.4c0.1,1-0.3,1.5-1.3,1.7c-3.7,0.9-7.5,1.5-11.3,2.1c-7.1,1-14.3,1.7-21.5,1.5
		c-2.9-0.1-5.6-0.4-8.2-2C190.1,121.3,188.7,121.6,188.1,120.4z"></path>
</g>
<g onclick="select(this)" class="" id="c-estampa-primaria" fill="#082890">
	<path d="M46.6,116.3c0.2-0.6-0.7-1-0.5-1.6c0.5,0,0.7-0.5,0.6-0.7c-0.3-1.2,0-2.5-0.5-3.8c-0.6-1.6-0.9-3.3-0.9-5.1
		c0-1.7,0.1-3.6-0.4-5.2c-0.6-2.2-0.5-4.3-0.8-6.5c-0.4-4-1.5-8-2-12c-0.2-1.7-1.3-3.2-2.2-4.6c-0.8-1.3-1.7-2.5-2.3-3.9
		c-1.3-2.9-2-6-3-8.9c-2.7-8.2-4.2-16.7-3.4-25.4c0.1-1.1,0.1-2.3,0.1-3.4c0-0.9,0.5-1.8,0.1-2.7c3.5-1.6,6.9-3.3,10.4-4.8
		c7.7-3.2,15.4-6.4,23-9.8c4.1-1.8,7.9-4.2,11.7-6.6c0.4-0.3,0.7-0.6,1-1C78.7,8.9,80.1,8,82,7.9c3.2,0,6.3,0.7,9.5,1.1
		c4.3,0.5,8.5,1.1,12.8,1.3c4.5,0.2,9,0.8,13.5,0.6c7.6-0.3,15.1-0.6,22.7-1.6c4.3-0.5,8.6-1.1,12.9-1.6c2,0.1,3.5,1,4.8,2.5
		c0.9,1.1,2.3,1.7,3.5,2.4c9.3,5.2,19,9.5,28.9,13.4c4.4,1.7,8.5,4,12.8,5.8c0.2,0.1,0.3,0.2,0.5,0.4c-0.4,0.8-0.4,1.6,0,2.4
		c0.1,0.3,0.2,0.5,0.1,0.8c-0.3,0.9-0.1,1.8,0,2.7c0.4,5.3,0.2,10.6-0.8,15.8c-0.9,4.8-2.5,9.5-3.9,14.2c-0.9,3-2.2,5.6-3.8,8.2
		c-0.3,0.5-0.6,0.9-1.1,1.2c-0.9,0.5-1.3,1.3-1.6,2.2c-1.3,3.9-1.7,8-1.9,12.1c-0.1,1.9,0,3.8-0.4,5.6c-1,4.3-1.4,8.6-1.3,13
		c0,0.9-0.3,1.9-0.4,2.8c-0.1,2.2-0.5,4.3-0.9,6.5c-0.4,0.1-0.4,0.5-0.5,0.9c-0.7,4-1,8.1-1.5,12.2c-0.5,4.8-0.9,9.6-1.1,14.4
		c-0.3,6.3-0.5,12.6-0.5,18.9c0,24-0.3,48.1,0.8,72.1c0.2,5.1,0.3,10.2,0.5,15.3c0.2,6.2,0.5,12.4,0.7,18.6
		c0.2,4.2,0.4,8.4,0.6,12.5c-7.6,2-15.4,2.9-23.2,3.4c-14.2,0.8-28.4,0.8-42.7,1c-14.7,0.1-29.5,0.4-44.2,0.1
		c-9.4-0.1-18.8-1-27.9-3.3c-0.2,0-0.3-0.1-0.4-0.2c0.2-1.6,0.2-3.3,0.3-4.9c0.4-5.6,0.6-11.2,0.8-16.8c0.1-4.1,0.3-8.1,0.5-12.2
		c0.2-6.1,0.4-12.2,0.6-18.3c0.1-2.4,0.1-4.8,0.2-7.2c0.2-6.6,0.4-13.2,0.4-19.8c0-17.7,0.2-35.4-0.3-53.1c-0.1-2.4-0.2-4.9-0.4-7.3
		c-0.2-4.2-0.6-8.3-0.9-12.5c-0.2-2.8-0.6-5.6-0.9-8.4c-0.2-2.4-0.6-4.8-1.3-7.1C47.1,117.6,47.6,116.7,46.6,116.3z"></path>
	<path d="M188.7,113.4c0.1-0.9,0.4-1.9,0.4-2.8c-0.2-4.4,0.3-8.7,1.3-13c0.4-1.8,0.3-3.7,0.4-5.6
		c0.2-4.1,0.7-8.2,1.9-12.1c0.3-0.9,0.7-1.7,1.6-2.2c0.5-0.3,0.8-0.7,1.1-1.2c1.6-2.6,3-5.3,3.8-8.2c1.4-4.7,3-9.3,3.9-14.2
		c1-5.2,1.2-10.5,0.8-15.8c-0.1-0.9-0.2-1.8,0-2.7c0.1-0.3,0-0.5-0.1-0.8c-0.4-0.8-0.3-1.6,0-2.4c0.2,0.1,0.5,0.2,0.7,0.4
		c3.7,3.5,7.8,6.8,10.8,11c3.9,5.4,6.5,11.4,8.3,17.8c1.9,6.4,2.6,13.1,3.6,19.7c1.6,9.7,2.6,19.5,4.6,29.1c0.1,0.5,0.1,1,0.1,1.4
		c-1.2,0.3-2.3,0.6-3.5,0.9c-5.3,1.1-10.6,1.6-16,2.3c-4.6,0.6-9.1,1-13.7,1c-3.3,0-5.9-1.1-8.4-3c-0.4-0.3-0.8-0.7-1.3-0.7
		C188.9,112.6,189.5,113.3,188.7,113.4z"></path>
	<path d="M31.4,32.4c0.4,0.9,0,1.8-0.1,2.7c0,1.2,0,2.3-0.1,3.4c-0.8,8.7,0.7,17.1,3.4,25.4c1,3,1.7,6,3,8.9
		c0.6,1.4,1.5,2.6,2.3,3.9c0.9,1.5,2.1,2.9,2.2,4.6c0.5,4,1.6,7.9,2,12c0.2,2.2,0.2,4.3,0.8,6.5c0.4,1.7,0.3,3.5,0.4,5.2
		c0,1.7,0.3,3.4,0.9,5.1c0.5,1.2,0.2,2.5,0.5,3.8c0.1,0.3-0.1,0.7-0.6,0.7c-0.2-0.8-0.3-1.7-0.5-2.8c-1.7,2.5-4.3,2.2-6.6,2.3
		c-4.3,0.4-8.6,0.2-12.9-0.2c-1.6-0.2-3.2-0.5-4.7-0.7c-3.4-0.5-6.9-1.1-10.2-1.8c-3.1-0.6-6.2-1.3-9.4-1.9c0.5-3.2,1-6.5,1.4-9.7
		c0.9-6.8,2.8-13.3,4.3-20c0.9-4.3,1.2-8.7,2.2-13c1.6-7.2,3.9-14.1,7.9-20.3c2.8-4.3,6.2-8.1,10.2-11.2
		C29,34.4,29.9,33.1,31.4,32.4z"></path>
</g>
<g onclick="select(this)" class="" id="c-estampa-terciaria" fill="#bf0811">
	<path d="M46.5,110.6c-0.6-0.6-0.6-1.4-0.7-2.2c3.9,0,7.8,0,11.6,0.1c5.1,0.2,10.2,0,15.3,0.2
		c5.9,0.2,11.9,0.1,17.9,0.2c6.3,0.1,12.6,0.1,18.9,0.2c2.6,0.1,5.2,0.2,7.8,0.1c0.1,0,0.2,0.1,0.3,0.2c-0.4,0.4-0.8,0.2-1.2,0.2
		c-4.4,0-8.7,0.1-13.1,0.1C91.6,110,79.8,110,68,110.2c-6.5,0.1-13,0.2-19.4,0.2C47.9,110.4,47.2,110.6,46.5,110.6z"></path>
	<path d="M50.1,245.2c0-0.4,0.1-0.9,0.1-1.3c3.1,0,6.2-0.1,9.3,0.1c3,0.2,6,0.1,9,0.1c4.5,0,9-0.1,13.4,0.1
		c5.4,0.2,10.9,0.1,16.3,0.2c5.2,0.2,10.5,0.1,15.7,0.2c3,0.1,6.1,0,9.3,0.2c-0.7,0.4-1.3,0.4-1.9,0.4c-9.3,0-18.6,0-27.9,0.1
		c-6.9,0.1-13.8,0.1-20.7,0.2c-6.2,0.1-12.5,0.1-18.7,0.2c-1,0-1.9-0.1-2.9,0.1C50.5,246,50.1,245.9,50.1,245.2z"></path>
	<path d="M199.1,68c0,0.9-0.3,1.7-0.7,2.5c-2.6-0.4-5.2-0.2-7.8-0.2c-5.6-0.1-11.2-0.1-16.8-0.3
		c-4.3-0.1-8.6,0-12.8-0.2c-4.3-0.2-8.7,0-13.2-0.2c0.8-0.3,1.4-0.5,2.1-0.5c3.9-0.1,7.8-0.1,11.7-0.2c5.4-0.2,10.8-0.2,16.2-0.3
		c6.5-0.2,13.1-0.4,19.6-0.4C198,68.1,198.6,68.1,199.1,68z"></path>
	<path d="M184.1,162.7c-4.6,0-9.2,0.1-13.8-0.1c-7.7-0.3-15.4,0-23.1-0.3c-5.3-0.2-10.6-0.1-15.8-0.2
		c-0.2,0-0.4,0-0.6-0.1c0.1-0.5,0.4-0.3,0.6-0.3c6.3-0.1,12.6-0.1,18.9-0.3c6.4-0.2,12.7-0.1,19.1-0.3c4-0.1,8-0.1,12-0.2
		c0.3,0,0.6,0,0.8,0C184.2,160.7,184.2,160.7,184.1,162.7C184.1,162.8,184.1,162.7,184.1,162.7z"></path>
	<path d="M51.1,194.7c0-0.5,0-1.1,0-1.6c3.5-0.2,6.9-0.1,10.4,0c2.3,0.1,4.5,0.1,6.8,0.1c5.6,0.1,11.3,0.2,16.9,0.2
		c4.2,0.1,8.4,0.1,12.6,0.2c0.7,0,1.3,0.2,1.9,0.5c-0.2,0-0.5,0.1-0.7,0.1c-6.9,0.1-13.8,0-20.7,0.2c-8.1,0.2-16.3,0.2-24.4,0.3
		C52.9,194.7,52,195,51.1,194.7z"></path>
	<path d="M33.9,61.2c-0.6-0.8-0.7-1.7-0.7-2.6c5,0,10,0.5,15,0.7c2.4,0.1,4.7,0.1,7.1,0.1c4.8,0.1,9.6,0.3,14.5,0.4
		c0.1,0,0.3,0.1,0.4,0.2C58.1,60.5,46,60.6,33.9,61.2z"></path>
	<path d="M151.1,229.8c1.9,0,3.8,0,5.7,0c3.8,0,7.5,0,11.3-0.1c4.9-0.1,9.7-0.3,14.6-0.4c0.4,0,0.8,0,1.2,0
		c0.6-0.1,0.8,0.3,0.8,0.9c0,0.6-0.1,0.8-0.8,0.8c-7.3-0.1-14.5-0.1-21.8-0.4c-3.2-0.1-6.5-0.1-9.7-0.1c-0.4,0-0.8,0-1.3,0
		C151.1,230.2,151.1,230,151.1,229.8z"></path>
	<path d="M185.5,253.6c0,0.3,0,0.7,0,1c-0.5,0.4-1.1,0.2-1.6,0.2c-4.6-0.1-9.2-0.3-13.8-0.4c-0.1,0-0.3,0-0.7-0.1
		c0.8-0.5,1.5-0.3,2.1-0.3c4.5-0.2,8.9-0.3,13.4-0.5C185.1,253.5,185.3,253.6,185.5,253.6z"></path>
</g>
<g onclick="select(this)" class="" id="c-estampa-secundaria" fill="#ffffff">
	<path d="M31.2,34.9c-0.2-0.2-0.3-0.4-0.1-0.6c0.5-0.6,0.5-1.2,0.3-1.9c0.1-0.3,0.4-0.3,0.6-0.3c1,0.1,2.1,0.2,3.1,0.2
		c6.5,0,12.9,0.4,19.4,0.4c7.1,0,14.2,0.1,21.2,0.3c6.9,0.2,13.9,0.1,20.8,0.3c4.8,0.1,9.6,0.1,14.4,0.2c1.6,0,3.1,0.5,4.5,0.3
		c-9.7,0.5-19.4,0.2-29.2,0.4c-3.5,0.1-6.9,0.1-10.4,0.2c-5.3,0.2-10.6,0.1-15.8,0.1c-6.1,0-12.2,0-18.2,0.2
		C38.2,34.8,34.7,34.5,31.2,34.9z"></path>
	<path d="M190.5,94.9c0,0.7,0.2,1.4-0.2,2.1c-1.8,0-3.7-0.1-5.5-0.1c-5.3-0.1-10.6,0-15.8-0.1
		c-6.1-0.1-12.2-0.1-18.4-0.2c-8.7-0.2-17.4-0.2-26.1-0.2c-2.1,0-4.2-0.3-6.3-0.2c7.7-0.6,15.4-0.3,23.1-0.5
		c3.2-0.1,6.5-0.1,9.7-0.2c6-0.1,12.1-0.1,18.1-0.2c4.6-0.1,9.2-0.1,13.8-0.2C185.4,95,188,94.9,190.5,94.9z"></path>
	<path d="M186.3,275.2c0.1,0.6,0.1,1.2,0.2,1.7c-1.4,0.3-2.8,0.2-4.2,0.1c-4.1-0.3-8.1-0.1-12.2-0.2
		c-6.4-0.2-12.7-0.1-19.1-0.2c-7.6-0.1-15.1-0.1-22.6-0.2c-0.4,0-0.8,0.1-1.1-0.4c0.3-0.4,0.7-0.2,1-0.2c6.7-0.1,13.4,0,20.1-0.2
		c3.1-0.1,6.3-0.1,9.5-0.1c8.9-0.2,17.7-0.2,26.6-0.3C185.1,275.3,185.7,274.9,186.3,275.2z"></path>
	<path d="M203.9,47.6c0.1,0.9,0.1,1.7-0.4,2.5c-2.5-0.1-5-0.2-7.5-0.3c-4.9-0.1-9.9-0.2-14.8-0.3c-4-0.2-8-0.2-12-0.3
		c-0.8,0-1.6-0.2-2.5-0.4C179.1,48.5,191.5,48.1,203.9,47.6z"></path>
	<path d="M50.7,221.1c0-0.3,0-0.7,0-1c0.1-0.1,0.2-0.2,0.3-0.2c7.3,0.2,14.7,0.3,22,0.5c0.2,0,0.4,0,0.6,0.4
		c-1.2,0.1-2.4,0.1-3.6,0.1c-6.3,0.1-12.6,0.2-18.9,0.3C51,221.3,50.9,221.2,50.7,221.1z"></path>
	<path d="M184.1,185.1c0,0.3,0,0.6,0,0.9c-1.1,0.3-2.1,0-3.2,0c-3.5,0-7.1-0.1-10.6-0.3c3.7-0.5,7.4-0.7,11.1-0.6
		C182.3,185.1,183.2,184.6,184.1,185.1z"></path>
	<path d="M184.7,149.6c0,0.1,0,0.3,0,0.4c-0.3,0.4-0.7,0.2-1,0.2c-2.9,0-5.8-0.1-8.6-0.1c-0.7,0-1.3-0.4-2-0.3
		c2.6-0.4,5.3-0.3,8-0.4C182.3,149.4,183.5,149,184.7,149.6z"></path>
	<path d="M49.3,132.2c0-0.3,0-0.6,0-0.9c2.2,0,4.4,0.1,6.5,0.1c0.5,0,0.8,0.6,1.5,0.6c0.5-0.1,0.9-0.6,1.5-0.4
		c-0.2,0.3-0.4,0.6-0.9,0.6C55,132.1,52.1,132.2,49.3,132.2z"></path>
</g>
</svg>
