<!--?xml version="1.0" encoding="utf-8"?-->
<!-- Generator: Adobe Illustrator 24.2.3, SVG Export Plug-In . SVG Version: 6.00 Build 0)  -->
<svg version="1.1" id="Camada_1" xmlns="http://www.w3.org/2000/svg" xmlns:xlink="http://www.w3.org/1999/xlink" x="0px" y="0px" viewBox="0 0 229 418" enable-background="new 0 0 229 418" xml:space="preserve">
<g onclick="select(this)" class="" id="estampa-primaria" fill="#ffffff">
	<path d="M43.1577797,120.4319763c-0.1331444-2.2575073-0.2330475-4.5158005-0.6140976-6.7538605
		c-0.1032143-0.6061935-0.2480927-0.7635117-0.8195343-0.5151901c-2.5753326,1.119133-5.3683243,1.2036667-8.0832443,1.458252
		c-2.4830379,0.2328491-5.0145454-0.0454788-7.5244999-0.1064301c-4.3427734-0.1054459-8.6874218-0.2220306-12.9771452-0.9888382
		c-3.4181538-0.6110153-6.766901-1.4842224-9.9895649-2.8108902c-0.6405647-0.2637024-1.1955985-0.6281204-1.7463299-1.0219345
		c1.7879728-9.4235535,2.6640635-18.9825058,4.2230082-28.4415283C6.4767475,76.091835,6.7928009,70.8532791,7.9045849,65.725502
		c1.7700176-8.1636887,4.5197229-15.8993645,9.5808334-22.6658669c2.0926247-2.7977562,4.4556618-5.3477936,7.1953869-7.5122299
		c1.3634644-1.0771637,2.3610077-2.5717964,3.9242687-3.3982277c3.6051579-1.9058933,7.254427-3.7267208,11.025732-5.281601
		c9.9814262-4.1152573,19.9857483-8.1783485,29.4420929-13.4409914c1.9731445-1.0980968,4.0107269-2.0738554,5.5131912-3.8971462
		c0.8112564-0.9844913,1.9984894-1.5786386,3.3706741-1.5650768c-1.9771576,1.0425472-1.8793793,2.8619375-1.5227661,4.5982809
		c0.6309128,3.0719166,2.1655045,5.7339325,4.1546249,8.1455193c0.4057236,0.4919052,0.723259,0.6197052,1.2625885,0.1770668
		c1.7297974-1.419693,3.4736786-2.823595,5.2473907-4.1877403c0.7435913-0.5718918,0.36306-0.9903536-0.0605392-1.4501514
		c-1.4163742-1.5373764-2.6791687-3.1793976-3.4846725-5.1298161c-0.5081329-1.2303572-0.3975296-1.317688,0.9412537-1.1946383
		c5.3301926,0.4899063,10.6587753,1.0123425,15.9972229,1.3928032c4.8539963,0.3459349,9.7080841,0.9332047,14.5817413,0.7113132
		c6.0604172-0.2759237,12.1149292-0.6910152,18.1692657-1.0873117c3.6225281-0.2371168,7.2398529-0.553256,11.0444489-0.8482122
		c-0.8295288,2.2499552-2.0206604,4.1257906-3.5267029,5.7606192c-0.8570404,0.9303417-0.7557831,1.3719425,0.2361145,2.0526142
		c1.5791626,1.0836601,3.0792694,2.2883301,4.5635376,3.5020809c0.7381134,0.6035995,1.1972656,0.7650604,1.8544006-0.1728249
		c1.9233093-2.7450294,3.5836945-5.5637484,3.7983398-9.025279c0.0914459-1.4749069-0.5164948-2.4436598-1.8510895-3.0015402
		c1.805069-0.1290302,2.9675446,0.9602423,4.0461426,2.170207c0.3426666,0.3844185,0.6612396,0.7431192,1.1118469,1.0379772
		c10.0123901,6.551692,21.2060242,10.6058836,32.1462097,15.183404c3.9640808,1.6586246,7.7821655,3.6280708,11.7518158,5.2684746
		c1.1912231,0.4922543,1.9363098,1.6271305,2.9542084,2.3864155c3.5424194,2.6424065,6.7263947,5.6513519,9.3942413,9.1925812
		c4.8312988,6.412899,7.5744629,13.7281952,9.3175507,21.4774704c0.6493683,2.8869781,1.1865082,5.7985992,1.4688416,8.7432404
		c0.5558167,5.797142,2.2962189,11.3504105,3.422226,17.02948c1.0884094,5.4892731,1.701889,11.0551376,2.752655,16.5493011
		c0.0593719,0.3103943,0.0376434,0.6363068,0.0537109,0.9550934c-3.2987213,1.3235931-6.6597748,2.4349976-10.1315613,3.2337265
		c-3.0367279,0.6986465-6.1237183,1.0777283-9.1846924,1.6170425c-3.0667725,0.540329-6.1685028,0.7683411-9.2889404,0.7493134
		c-4.2289276-0.0257874-8.4828186,0.2864685-12.6547546-0.5902405c-1.20401-0.2530289-1.4316864,0.1222992-1.6246643,1.1130066
		c-0.3781281,1.9411774-0.3158417,3.8887177-0.2612,5.8419342c-0.5772858,2.0070114-0.5196991,4.0956879-0.7766418,6.1436005
		c-0.8968658,7.1481628-1.2922211,14.3308716-1.3661346,21.5326996c-0.0230255,2.241272,0.053009,4.4675293,0.5191193,6.6785278
		c0.4026031,1.9098053-0.0408325,3.8264618-0.2037506,5.7315216c-0.1810303,2.1169586-0.2709503,4.2322845-0.1436157,6.3496399
		c0.1518555,2.5260468-0.2313538,5.0304565-0.2312164,7.5479889c0.0001373,2.5981293-0.0803833,5.1981659,0.181427,7.7913666
		c0.2425995,2.4028473-0.2098846,4.7868652-0.2297363,7.1856842c-0.0187836,2.2715912,0.5240326,4.4370728,1.0009155,6.6177368
		c1.5867004,7.2556152,1.3607025,14.5335388,0.3235474,21.824173c-0.3049164,2.1434021-0.3761597,4.2101135,0.3256531,6.3586731
		c1.7730713,5.4281464,1.8151703,11.0104218,0.9422455,16.6113586c-0.2309113,1.4814911-0.2516632,2.9259796,0.0901947,4.3939362
		c0.8995667,3.862915,0.4402161,7.8049011,0.6498108,11.7084808c0.3148804,5.8646545,0.692749,11.7265015,1.4283295,17.5618286
		c0.2582855,2.0488892,0.2250519,4.1386719,0.2561798,6.2108154c0.0260468,1.7346802-0.3510437,2.2309265-2.0608063,2.7463684
		c-3.0047913,0.9057922-6.1231079,1.1577759-9.223526,1.4821472c-8.3242798,0.8709412-16.6839905,0.8759155-25.0397491,1.0395508
		c-11.5935516,0.2269592-23.1844864,0.7744751-34.7773209,0.7973022c-11.5119324,0.0226746-23.0146637-0.800293-34.5328903-0.855072
		c-8.3569794-0.0397644-16.7155609-0.1084595-25.0554161-0.7390137c-4.2688141-0.3227844-8.5254021-0.7648926-12.7032623-1.7471924
		c-3.5191689-0.8274536-3.8727531-1.1688538-3.6649704-4.7828064c0.4422684-7.692627,0.9992447-15.3787842,1.5412292-23.0653381
		c0.1435623-2.0360107,0.2814865-4.0697174,0.2325592-6.1102753c-0.0442352-1.8449707,0.0390892-3.6795807,0.3708687-5.4958344
		c0.4056892-2.2208862,0.4405899-4.4328766,0.1157837-6.6756897c-0.3647766-2.5188141-0.1090546-5.0327759,0.4354477-7.5070496
		c0.2281456-1.0367126,0.1938744-2.0496063,0.1175346-3.0926819c-0.332428-4.5425568-1.0252762-9.0645905-0.8247719-13.6387939
		c0.189064-4.3131561,1.2074547-8.4562988,2.6664658-12.4943695c0.3753433-1.0388489,0.6211166-2.0308075,0.4566879-3.1429596
		c-0.1816826-1.2288818-0.1624031-2.4731903,0.0706406-3.7033234c0.3156853-1.6663513,0.1932678-3.328949,0.1094208-5.0132446
		c-0.1646271-3.3068085-0.1753082-6.6228333-0.1888924-9.935318c-0.0529137-12.9051971-0.041748-25.8108063-0.1397247-38.7156219
		c-0.0395241-5.2062378-0.9890976-10.3417664-1.5522079-15.5062332
		C43.6154823,122.9787064,43.7590141,121.6430893,43.1577797,120.4319763z"></path>
</g>
<g onclick="select(this)" class="has-opacity" id="estampa-quinaria" fill="#9e9e9e" opacity="0.5">
	<path d="M111.7721634,276.4884949c4.5504456-0.0066833,9.1009064-0.0090942,13.6513062-0.0261536
		c0.5117188-0.0018921,0.8131485,0.067688,0.8040848,0.7066956c-0.0430679,3.0325012-0.0432587,6.0656128-0.0587234,9.0984802
		c-4.7925797,0.2946472-9.5889206,0.3691101-14.3886414,0.2459106
		C111.7775116,283.1717834,111.7748413,279.8301392,111.7721634,276.4884949z"></path>
	<path d="M88.0339737,157.4366455c0.7718277-0.0066071,1.5436707-0.0131989,2.315506-0.0198059
		c1.2210159,0.0149689,2.4426956,0.0102692,3.6628799,0.0506134c1.1355286,0.0375519,2.2779465-0.1422424,3.4068222,0.1030121
		c-0.0018997,4.4792175-0.0019684,8.9584503-0.0070953,13.4376526c-0.0011749,1.0234528-0.0092239,1.0326233-1.0574493,1.0329285
		c-8.9584579,0.0025177-17.9169235,0.0025482-26.8753815-0.0000458c-1.038765-0.0002899-1.0472336-0.0097961-1.0471878-1.0420837
		c0.0000992-2.3594666,0.0093079-4.7189331,0.0148239-7.0783997c0.3176117-0.0159607,0.6352081-0.0455475,0.9528198-0.0458069
		c3.9817047-0.0031128,7.9634094,0.0015411,11.9450912-0.0046234c0.9044266-0.0014038,0.9129868-0.0168457,0.9201813-0.9197845
		c0.014595-1.8310242,0.0189285-3.6621094,0.0274963-5.4931641
		C84.2063141,157.4503174,86.1201401,157.4434814,88.0339737,157.4366455z"></path>
	<path d="M196.2431488,116.1435242c-2.1568146,0.0000992-4.3136444,0.0071564-6.4704132-0.0034485
		c-0.8397217-0.0041275-0.8579559-0.0222473-0.8592987-0.8656158c-0.0067596-4.2337189,0.0056-8.4675064-0.0131683-12.7011566
		c-0.0026245-0.5917892,0.1330109-0.8528519,0.7903748-0.8492889c4.3534393,0.0235519,8.707077,0.0203629,13.0605774,0.0025177
		c0.5777893-0.0023651,0.7536774,0.195694,0.751297,0.7639771c-0.0182037,4.3135376-0.0209961,8.627243,0.0024414,12.9407425
		c0.0033875,0.6230087-0.2633209,0.7243118-0.7914429,0.7198257
		C200.5568695,116.1327209,198.3999481,116.143425,196.2431488,116.1435242z"></path>
	<path d="M75.6742477,247.6636353c-2.0769272,0-4.1538696,0.004303-6.2307816-0.0018768
		c-0.9971542-0.0029907-1.0097809-0.0119476-1.0109329-0.956192c-0.0051041-4.1538544-0.0052032-8.3077087-0.0000992-12.4615784
		c0.0011978-0.9714508,0.0137939-0.9845886,0.9868546-0.9858093c4.2337265-0.0052643,8.4674835-0.006134,12.7012024,0.0009766
		c0.8658295,0.0014648,0.8870773,0.020462,0.8885574,0.8401794c0.0076599,4.2337341,0.0071335,8.4674835,0.000351,12.7012177
		c-0.0013351,0.8377686-0.0196686,0.8555145-0.8647385,0.8595886
		C79.9879074,247.6706085,77.8310547,247.6636353,75.6742477,247.6636353z"></path>
	<path d="M148.7539215,80.3729019c2.1174622-0.0001678,4.2349701-0.0072784,6.3523865,0.0033417
		c0.8456879,0.0042419,0.8658142,0.0220184,0.8672943,0.8605804c0.0074158,4.2349167,0.0074463,8.4698563-0.000061,12.7047729
		c-0.0014648,0.8178711-0.0222778,0.8358307-0.8882446,0.837204c-4.2349396,0.0066681-8.4698639,0.0079575-12.7047729-0.0011215
		c-0.8994446-0.0019226-0.9656677-0.0632172-0.967865-0.9489746c-0.0104828-4.2349014,0.0039978-8.4698868-0.0147247-12.7047348
		c-0.0025482-0.5790176,0.1969147-0.7657318,0.7639771-0.7599716
		C144.3590546,80.3863144,146.5565491,80.3730774,148.7539215,80.3729019z"></path>
	<path d="M126.9652481,226.5535126c0.0138016-2.2389374,0.0242615-4.47789,0.0429382-6.7167816
		c0.0080566-0.967804,0.0157471-0.9806366,1.0005112-0.9818726c4.1994171-0.005249,8.3988495-0.0054779,12.5982666,0.0002899
		c0.9549713,0.0013275,0.9664764,0.0156708,0.9676056,1.0045929c0.0047455,4.1594238,0.0050812,8.3188324-0.000412,12.4782562
		c-0.0012054,0.905365-0.0152283,0.9113922-0.925293,0.9236603c-1.1194458,0.0150757-2.2390594,0.0187378-3.3585968,0.0273132
		c-2.9869843-0.0052338-5.9739838-0.0090027-8.960968-0.016449c-1.139946-0.0028381-1.1427383-0.0066833-1.1449661-1.1849213
		c-0.0028763-1.5134735,0.0088196-3.0270386-0.0080032-4.540329
		C127.1725845,227.2113037,127.3335876,226.8197784,126.9652481,226.5535126z"></path>
	<path d="M185.0309906,48.5997505c-0.0001831-2.0777779,0.0250549-4.1560402-0.0144501-6.2330704
		c-0.0130615-0.6870117,0.2164764-0.8762474,0.8844604-0.8706436c3.4360657,0.0288124,6.8725433,0.0091209,10.3088379,0.0180779
		c0.7957764,0.0020676,0.7883759,0.022007,0.6553955,0.8771973c-0.4319153,2.7775726-0.9385223,5.5441742-1.2332611,8.3419724
		c-0.0166931,0.1584625-0.0593414,0.3352432-0.0108032,0.476284c0.5059509,1.4702682-0.3730621,2.7776299-0.4697571,4.1738129
		c-0.0291443,0.4208908-0.2251282,0.5368309-0.6082458,0.5359879c-2.9568176-0.006485-5.9137421-0.013298-8.8704376,0.0065346
		c-0.5625153,0.0037689-0.6506805-0.2622185-0.6477051-0.733242
		C185.0388794,52.9950981,185.0311737,50.7973976,185.0309906,48.5997505z"></path>
	<path d="M37.6553345,87.6456985c0.0449715,0.3782578,0.00597,0.7805405,0.3103256,1.0845871
		c0.4955025,1.5516739,1.0030212,3.0996399,1.4816513,4.6565018c0.255722,0.8318253,0.2017021,0.9093628-0.6434593,0.9119034
		c-3.5581245,0.0107193-7.1163502-0.0049896-10.6744022,0.0144196c-0.5767708,0.0031433-0.7519131-0.1945343-0.7494411-0.7636261
		c0.0187492-4.317688,0.017437-8.6355133,0.0018177-12.9532242c-0.0022144-0.6128159,0.2186184-0.8698273,0.8370838-0.8636856
		c1.7589169,0.0174713,3.5181503,0.0121918,5.2771873,0.002739c0.5851097-0.0031357,0.9161339,0.2813187,1.2272797,0.7689514
		c0.9811974,1.5377274,1.2497902,3.34272,1.9564705,4.9796829C36.9931374,86.2096634,37.329464,86.9254227,37.6553345,87.6456985z"></path>
	<path d="M61.2565575,41.0614357c-2.117733,0.0000534-4.2354965,0.0071945-6.3531761-0.0034561
		c-0.8489151-0.0042725-0.8649673-0.0219727-0.8709106-0.8598671c-0.0116196-1.6381607-0.0076714-3.2764778-0.0017052-4.9147034
		c0.0039291-1.0793076,0.0052185-1.0958595,1.03722-1.4280396c3.29562-1.0607834,6.5587196-2.2086239,9.7399902-3.5796604
		c1.0225677-0.4406929,2.0495605-0.8719044,3.0621033-1.3346539c0.5229034-0.2389774,0.7335281-0.1174393,0.7324677,0.4615917
		c-0.0067444,3.6760502-0.0107422,7.3521519,0.0045166,11.0281506c0.002388,0.5761604-0.3021622,0.6373367-0.7575912,0.6352081
		C65.6518784,41.0557327,63.4542007,41.0613861,61.2565575,41.0614357z"></path>
</g>
<g onclick="select(this)" class="" id="estampa-secundaria" fill="#f6d101">
	<path d="M18.7954445,121.9114609c-0.0060978-3.4740601-0.0171375-6.9481201-0.0147114-10.4221802
		c0.0005836-0.8363953,0.0210819-0.8565826,0.8701859-0.8577957c4.8319225-0.0068817,9.663866-0.006958,14.4957905,0.0001144
		c0.8390465,0.0012283,0.8576698,0.0220947,0.8587723,0.8647385c0.0046463,3.5540237-0.0027962,7.108078-0.0058212,10.6621246
		c-0.4272003,0.2912445-0.9163933,0.2188644-1.3863716,0.219902c-3.9312,0.0086594-7.8624172,0.0087738-11.7936268,0.0114594
		c-0.2723637-0.255661-0.5804005-0.1843033-0.8901653-0.0971069
		C20.2425537,122.0290146,19.4473114,122.3714905,18.7954445,121.9114609z"></path>
	<path d="M55.7911148,284.8175354c-0.0197105-3.1131287-0.0226364-6.2265625-0.070961-9.3392639
		c-0.0120506-0.7763672,0.4623375-0.6826782,0.9424171-0.6824951c3.3144531,0.0012512,6.6289063,0.0007629,9.9433556,0.0008545
		c1.5573959,0.0000305,3.1149597,0.013092,4.6720886-0.0073547c0.5101013-0.0066528,0.7040253,0.1647644,0.6951675,0.6913147
		c-0.0564423,3.3519897,0.0737686,6.7054749-0.0746307,10.0570374c-3.8268433,0.0464172-7.6445313-0.1708069-11.4629822-0.3826599
		C58.8850594,285.0689087,57.3259048,285.116394,55.7911148,284.8175354z"></path>
	<path d="M18.225359,42.2221298c0.7162247-0.0573921,0.7097378,0.4030685,0.7084656,0.9254112
		c-0.0109825,4.511261-0.00737,9.0225639-0.0045681,13.5338516c0.000227,0.3613739-0.1223412,0.714035-0.1347504,1.0547943
		c-0.0250874,0.688797-0.3865871,0.7460938-0.9325275,0.7422256c-2.6347713-0.0186729-5.2697239-0.0120201-7.9046125-0.0143585
		c-0.2030792-0.3676071-0.0004463-0.685379,0.1120691-1.0223122c1.7225142-5.1583176,4.0811195-9.991375,7.3335819-14.3682098
		C17.6395569,42.7552147,17.8686981,42.4260941,18.225359,42.2221298z"></path>
	<path d="M112.0556717,274.8075256c-2.3998108,0.0000305-4.7996445,0.0063171-7.1994171-0.0033569
		c-0.853302-0.0034485-0.8733444-0.0211182-0.874527-0.8560181c-0.006813-4.7996216,0.0045929-9.5993042-0.013443-14.3988647
		c-0.0022278-0.5929871,0.130127-0.852417,0.7905426-0.8492737c4.879509,0.0231018,9.759201,0.0207825,14.6387634,0.0021057
		c0.6103973-0.0023499,0.8288879,0.1647949,0.8256149,0.8093872c-0.0246048,4.8394775-0.0261993,9.6792603,0.0014114,14.5187073
		c0.0038681,0.6771851-0.2675629,0.7915649-0.8495941,0.786438
		C116.9354019,274.7950439,114.4954834,274.8075256,112.0556717,274.8075256z"></path>
	<path d="M96.0407944,226.561264c-2.4397354,0.0002594-4.8796387-0.0154572-7.3190689,0.0113831
		c-0.606102,0.0066681-0.841095-0.1478577-0.8378067-0.8017578c0.0243683-4.8393402,0.024971-9.6789246-0.0003586-14.5182495
		c-0.0034866-0.6654358,0.2505875-0.7967834,0.84655-0.7945862c4.8793945,0.0179749,9.7588959,0.0166016,14.6383057,0.0014496
		c0.5531464-0.001709,0.7743835,0.142746,0.7718582,0.7410736c-0.0205765,4.879364-0.0212784,9.7589264,0.0006638,14.6382751
		c0.0027466,0.6121826-0.2400055,0.7349243-0.7810211,0.7306366
		C100.9203415,226.5501099,98.4805222,226.5610352,96.0407944,226.561264z"></path>
	<path d="M130.0836639,56.903904c-2.3977737,0-4.7955856,0.0059509-7.1933136-0.0030708
		c-0.9009628-0.0033913-0.9156265-0.0192261-0.916626-0.9351044c-0.0051956-4.7555923-0.0053406-9.5111961,0.0006943-14.2667847
		c0.0010834-0.8543434,0.0181961-0.8760643,0.8491974-0.8773232c4.8355179-0.0073166,9.6710434-0.0072403,14.5065536-0.0000916
		c0.8372192,0.001236,0.8548737,0.0223503,0.8559723,0.8707314c0.0061951,4.7555885,0.0059052,9.5111923,0.0008698,14.2667847
		c-0.0009918,0.9220314-0.0151367,0.938282-0.9100037,0.9417229C134.8792572,56.909977,132.4814606,56.903904,130.0836639,56.903904
		z"></path>
	<path d="M185.5297546,74.6675339c0.0003662,4.1976624,0.0033569,8.3953323-0.000824,12.5930023
		c-0.0009918,0.9922943-0.0121613,1.0059204-0.9644012,1.0069351c-4.7173767,0.0050659-9.4347534,0.0049973-14.1521301,0.0000992
		c-0.9610596-0.0010071-0.9724426-0.0141525-0.9733276-0.9959641c-0.0042725-4.7573547-0.0047455-9.5147095,0.0003662-14.2720642
		c0.0010223-0.9487991,0.0149536-0.9601593,1.0075226-0.9605637c3.6379395-0.0014725,7.2758636,0.0052872,10.9138031,0.0089569
		c0.0205383,0.6320038,0.0703125,1.2648315,0.0523682,1.8957443c-0.014328,0.5036926,0.1478577,0.6995926,0.67453,0.6906433
		C183.2345123,74.6148376,184.3823242,74.6529617,185.5297546,74.6675339z"></path>
	<path d="M124.3711243,242.6359558c-0.0159454-1.4202271-0.0568771-2.8408356-0.0358124-4.2605133
		c0.0087128-0.5876007-0.1211853-0.8575287-0.7763367-0.8222351c-0.7846146,0.0422668-1.5750656-0.0239258-2.3629837-0.0431213
		c-0.0013733-3.2585602-0.0051117-6.5171051-0.0029602-9.7756653c0.0008698-1.3270569-0.1117706-1.1770782,1.2419968-1.1821442
		c1.5100479-0.0056458,3.0201416,0.0003204,4.53022,0.001236c0.3683395,0.2662659,0.2073364,0.6577911,0.2110825,0.9937592
		c0.0168228,1.5132904,0.005127,3.0268555,0.0080032,4.540329c0.0022278,1.1782379,0.0050201,1.1820831,1.1449661,1.1849213
		c2.9869843,0.0074463,5.9739838,0.0112152,8.960968,0.016449c-0.0013733,2.7877655,0.0007019,5.575531-0.0060272,8.3632813
		c-0.0023499,0.9723969-0.0122375,0.9842072-0.9655609,0.9851074
		C132.3361511,242.6411133,128.3536224,242.6371002,124.3711243,242.6359558z"></path>
	<path d="M82.2924805,157.4571381c-0.0145721-2.2295074-0.026886-4.4590302-0.0447464-6.6885071
		c-0.0077591-0.9700928-0.0128784-0.9802551-0.975914-0.9822083c-2.70858-0.0055237-5.4171906,0.0007782-8.1257706-0.0044708
		c-0.4366455-0.0008545-0.87323-0.036911-1.3098373-0.0567017c-0.0075607-2.2788696,0.0064621-4.5581665-0.0363083-6.83638
		c-0.012207-0.6508179,0.2228394-0.8095398,0.8311691-0.8071899c4.838089,0.0187531,9.6763,0.0071716,14.5144577,0.013443
		c0.8866272,0.0011444,0.8997421,0.019104,0.8997803,0.9472504c0.0002213,4.7980957-0.0068283,9.5961761-0.0113373,14.3942719
		C86.1201401,157.4434814,84.2063141,157.4503174,82.2924805,157.4571381z"></path>
	<path d="M88.0436859,16.6073093c0.5269394,0.2638741,0.8505325,0.7288933,1.2465134,1.0981159
		c3.4060135,3.1758404,7.0697784,5.9734039,11.3967438,7.801466c0.8789215,0.3713341,1.7680435,0.7186451,2.6535492,1.0743256
		c0.7560349,0.3036804,0.9024353,0.5723686,0.7907104,1.3291588c-0.0434189,0.2940598-0.1750717,0.4256039-0.4540253,0.4330845
		c-0.2396317,0.0064316-0.4794998,0.0058632-0.7192688,0.0058784c-4.6359406,0.0002918-9.2718735,0.0015736-13.907814-0.0007515
		c-1.1480484-0.0005741-1.1514053-0.0060654-1.1521072-1.1858654c-0.0018768-3.1572304-0.0042801-6.3144741,0.0048065-9.4716797
		C87.9037704,17.3517017,87.8019638,16.9893188,88.0436859,16.6073093z"></path>
</g>
<g onclick="select(this)" class="has-opacity" id="estampa-quaternaria" fill="#f6d101" opacity="0.5">
	<path d="M215.0768738,50.4095001c-0.0042725,1.6390572-0.0291748,3.2784462-0.0019836,4.9169769
		c0.0099335,0.5994453-0.1394348,0.8366127-0.7966309,0.8323517c-4.2782745-0.0277443-8.5568695-0.0258446-12.8351898-0.0016251
		c-0.6409912,0.0036278-0.8023987-0.2108307-0.7989197-0.8270149c0.0239868-4.238327,0.0093231-8.4768639,0.0152283-12.7153206
		c0.0011902-0.8625641,0.0170593-0.8715248,0.9589386-0.8769608c2.558548-0.0147667,5.1171112-0.0211868,7.6756744-0.0309181
		c1.7923279,1.7845535,3.0953674,3.9253044,4.384613,6.071228
		C214.1893921,48.6284523,214.6133728,49.5308533,215.0768738,50.4095001z"></path>
	<path d="M45.4002495,143.1249084c2.1283455-0.02388,4.2566872-0.04776,6.3850327-0.0716248
		c0.0111427,1.4793396,0.0087738,2.9589691,0.0392761,4.437912c0.0146561,0.7104797-0.2968102,1.5950165,0.1487732,2.0858002
		c0.4612999,0.5081177,1.3600845,0.1684265,2.0650024,0.1839752c1.6786842,0.0370636,3.3583565,0.0293274,5.037632,0.0397034
		c-0.0039444,2.3477478-0.0223122,4.6956482-0.0014648,7.0431976c0.0050697,0.571228-0.1785583,0.7605286-0.7545128,0.7555389
		c-4.2961082-0.037262-8.5924492-0.0475159-12.8887177-0.0662384c-0.0356636-1.1096191-0.1039009-2.2193604-0.1010284-3.3288879
		C45.339817,150.5111237,45.3749275,146.8180237,45.4002495,143.1249084z"></path>
	<path d="M133.6742859,286.0837402c-0.0097504-2.9534912-0.0087128-5.9071045-0.0389099-8.8603821
		c-0.0056305-0.5505371,0.1296082-0.7744751,0.7294769-0.7715149c4.3507843,0.0217285,8.7017365,0.0149841,13.0526123,0.0067749
		c0.4266663-0.000824,0.6671448,0.0857544,0.6565704,0.5897827c-0.0611267,2.9111023,0.0910034,5.8243408-0.083313,8.7346191
		C143.2185822,285.8832703,138.4464264,285.9835205,133.6742859,286.0837402z"></path>
	<path d="M178.3195648,284.4725647c-0.3022766-0.0509338-0.4978638-0.1747437-0.496521-0.5346375
		c0.008606-2.3074646,0.016449-4.6151733-0.00383-6.9225464c-0.0057068-0.6509705,0.4194489-0.5501099,0.8053131-0.5505676
		c2.3871307-0.0028381,4.7742615-0.0006104,7.161377-0.0022888c0.4772949-0.0003357,0.9545746-0.0100403,1.4318695-0.0154419
		c0.3383331,1.6915894,0.2611084,3.4015503,0.132019,5.0991516c-0.069809,0.9177551-0.8952332,1.2817688-1.6493378,1.552063
		c-1.5046997,0.5393372-3.0797424,0.7919006-4.6589203,1.0071106
		C180.1343842,284.2290649,179.2269135,284.3502502,178.3195648,284.4725647z"></path>
	<path d="M111.7721634,276.4884949c0.0026779,3.3416443,0.0053482,6.6832886,0.0080261,10.0249329
		c-2.2126389-0.0906677-4.4253616-0.1795044-6.6376801-0.2774658c-0.1091309-0.0048523-0.2147369-0.0891113-0.3219757-0.1364136
		c0.0009079-2.9885559,0.0265656-5.9775391-0.0192871-8.9653625c-0.0086136-0.5610657,0.1302185-0.6833801,0.6349564-0.6776123
		C107.5480423,276.4807434,109.6601486,276.480072,111.7721634,276.4884949z"></path>
	<path d="M40.3481827,276.5253601c1.2259674-0.134613,2.4567299-0.0119019,3.6832657-0.0689087
		c0.5644608-0.0262451,0.641983,0.2608032,0.637146,0.7251892c-0.0210686,2.0220642-0.0202484,4.0444031-0.0273819,6.0666199
		c-1.1210556-0.0906067-2.1611824-0.4503479-3.1620293-0.9448547c-0.6841545-0.3380127-1.0749588-0.8354797-1.1966248-1.6338501
		C40.0701447,279.2756653,40.4113998,277.9067078,40.3481827,276.5253601z"></path>
	<path d="M141.8410339,172.0128326c-2.1183777-0.0000763-4.2367706,0.0060883-6.3551025-0.0028992
		c-0.9427185-0.0039825-0.9647522-0.017807-0.9665375-0.9144745c-0.0084534-4.2366943-0.009079-8.473465,0.0005493-12.7101593
		c0.0019989-0.872818,0.0294952-0.8993378,0.858902-0.9010773c4.2766724-0.0089111,8.5534363,0.0053253,12.8300476-0.0147552
		c0.611084-0.0028687,0.82547,0.1622772,0.8213654,0.808609c-0.0274353,4.3164978-0.0287628,8.6333466,0.0009613,12.9498138
		c0.0046082,0.6665649-0.2423401,0.8018646-0.8352051,0.7948608
		C146.0779266,171.9976654,143.9593964,172.0129242,141.8410339,172.0128326z"></path>
	<path d="M97.4191818,157.5704651c-1.1288757-0.2452545-2.2712936-0.0654602-3.4068222-0.1030121
		c-1.2201843-0.0403442-2.441864-0.0356445-3.6628799-0.0506134c-0.0095139-4.4739838-0.0241013-8.9479523-0.0242615-13.421936
		c-0.0000229-0.895813,0.0253143-0.9138947,0.9698868-0.9154968c4.2348557-0.0071716,8.4697342-0.0072937,12.7045975,0.0003967
		c0.8293839,0.0015106,0.8441544,0.0226898,0.8452682,0.874588c0.0055237,4.2348785,0.0063705,8.4697418-0.000412,12.7046204
		c-0.001442,0.9008789-0.0191574,0.9227905-0.9536743,0.9260712
		C101.733696,157.5926514,99.5764236,157.5768127,97.4191818,157.5704651z"></path>
	<path d="M44.6567688,116.2790604c-0.0001144-2.0793915-0.0058937-4.1588058,0.0027046-6.2381592
		c0.003479-0.8408127,0.0177307-0.8600693,0.8529625-0.8614578c4.2387466-0.007019,8.477623,0.0124741,12.7161522-0.0184784
		c0.7131844-0.0051956,0.8511772,0.2576599,0.8475571,0.9014969c-0.023632,4.1986389-0.0089569,8.3974686-0.0146065,12.5962372
		c-0.0012245,0.9078751-0.0158501,0.9223251-0.9152679,0.9235077c-4.198761,0.0055695-8.3975334,0.0058899-12.5962982-0.0002747
		c-0.8794937-0.0012894-0.8886642-0.0175705-0.8912392-0.9447479
		C44.6528511,120.5178299,44.6568756,118.3984375,44.6567688,116.2790604z"></path>
	<path d="M44.6627579,63.115696c0.000061,2.1177406-0.0258217,4.2359657,0.0148773,6.3529243
		c0.0132523,0.6893311-0.2157402,0.8704758-0.8817215,0.8647308c-3.3961143-0.0292816-6.7926216-0.010994-10.1889839-0.0151749
		c-0.9352036-0.0011444-1.0891571-0.1592636-1.2064705-1.1566772c-0.0916862-0.7795334,0.1974983-1.5905533-0.2015076-2.3474655
		c-0.0552025-0.1047134,0.014019-0.2756882,0.1296425-0.2880936c0.7600594-0.0815659,0.5289383-0.6623001,0.5512238-1.0932922
		c0.0620003-1.1992264,0.0742645-2.3961563-0.3679314-3.5459404c-0.0558434-0.1452103-0.1221237-0.3282356-0.0811386-0.4624672
		c0.4844208-1.586483-0.0921669-3.1671791-0.0219688-4.7524796c0.024704-0.5578957,0.1253777-0.7746773,0.7201538-0.7712059
		c3.5960312,0.0209885,7.1924438,0.0299339,10.7882347-0.0062675c0.7136612-0.0071831,0.7567253,0.322834,0.7523918,0.8682594
		C44.6527138,58.880146,44.6626968,60.9979591,44.6627579,63.115696z"></path>
	<path d="M51.8455124,218.8355713c-0.0074348-2.7822418-0.0112953-5.5645142-0.02425-8.3467255
		c-0.0045166-0.9689026-0.0147057-0.9767761-0.9813347-0.9844666c-2.0664063-0.016449-4.1328926-0.023819-6.1993446-0.0349121
		c0.0053978-1.438385,0.0425529-2.8777008,0.0017052-4.3147736c-0.0181847-0.6398315,0.2113838-0.8458099,0.819973-0.8441162
		c4.3154488,0.0120544,8.6309624,0.0128937,12.9463959-0.0015717c0.5481758-0.0018311,0.6634064,0.2403259,0.6620827,0.7270355
		c-0.0118828,4.3554077-0.0153809,8.710907,0.0033417,13.0662689c0.0024681,0.5743408-0.1787834,0.7627716-0.7556648,0.7545471
		C56.1611176,218.8261261,54.0032005,218.8390198,51.8455124,218.8355713z"></path>
	<path d="M96.2144699,65.934967c0.0101166,2.5547562,0.0179672,5.1095505,0.0314484,7.6642914
		c0.0054169,1.0245667,0.0110092,1.0299835,1.0523148,1.0348816c2.5150528,0.0118179,5.0301132,0.0180435,7.5451813,0.0265198
		c0.0013885,1.6358719-0.0262756,3.2725296,0.0186005,4.9072113c0.0177307,0.6461487-0.2092743,0.8116989-0.820015,0.8088379
		c-4.2691498-0.0199738-8.5384521-0.0058899-12.8076859-0.014389c-0.876358-0.0017395-0.9062042-0.024353-0.9083099-0.853241
		c-0.0108414-4.2692261,0.0043259-8.5385208-0.0160675-12.8076782c-0.0027771-0.5809402,0.1899567-0.7650986,0.7581329-0.7581863
		C92.7832565,65.9640732,94.4989624,65.9409409,96.2144699,65.934967z"></path>
	<path d="M119.2680969,209.4691162c-2.6342392,0.0112305-5.2684784,0.0188751-7.9026718,0.0354919
		c-0.9738083,0.0061493-0.9832306,0.0157166-0.9895859,0.9849243c-0.0183029,2.7936554-0.0282211,5.5873566-0.0414276,8.3810425
		c-1.5561371-0.0081635-3.1126175-0.0383301-4.6682281-0.0133209c-0.5982208,0.009613-0.8441238-0.1401825-0.8403168-0.7949219
		c0.0250473-4.3097534,0.0243912-8.619812,0.0001831-12.9295959c-0.0035248-0.6278839,0.1797409-0.8313446,0.8136978-0.8279572
		c4.2299728,0.0226288,8.460144,0.006012,12.6902161,0.0163116c0.9028549,0.0021973,0.9115143,0.0291748,0.9201355,0.9581299
		C119.2630539,206.6757965,119.2627563,208.0724945,119.2680969,209.4691162z"></path>
	<path d="M163.4241333,31.0625c2.7393036,1.0718727,5.3785858,2.0789948,8.0534363,2.9910049
		c1.8115997,0.6176872,3.6161041,1.2592392,5.467926,1.742836c0.7077484,0.1848259,0.9432526,0.5273056,0.9012909,1.2521935
		c-0.0645599,1.1154976-0.0392761,2.2381325-0.0071716,3.3564491c0.0152435,0.5314102-0.1897278,0.6768036-0.6935425,0.6752052
		c-4.3569946-0.0138168-8.714035-0.0113144-13.0710602-0.0026131c-0.4310913,0.0008583-0.6604309-0.0978508-0.6581573-0.5940285
		C163.4312286,37.3718643,163.4241333,34.2600822,163.4241333,31.0625z"></path>
	<path d="M181.3937988,94.7370758c0.0117188,2.2616501,0.0254669,4.5233078,0.0343781,6.7849655
		c0.0051727,1.3178482-0.0756683,1.1887283,1.244339,1.1924896c1.3493958,0.0038452,2.6987915,0.0037613,4.0481873,0.0054016
		c-0.3338318,1.9597931-0.6710663,3.9190369-0.9988708,5.8798447c-0.0723877,0.4330368-0.3074036,0.589653-0.7394104,0.5871735
		c-2.1936798-0.0125198-4.3875122-0.0116577-6.5812073-0.0013885c-0.3975067,0.0018692-0.6015778-0.1271667-0.5765228-0.5475845
		c0.0142059-0.2384186,0.0006104-0.4784546,0.0006104-0.7177658c-0.0001373-3.9886475-0.002594-7.9773026,0.0038147-11.9659424
		c0.0006409-0.3936157-0.081131-0.7988205,0.0966644-1.1797867l0.0641327,0.0057831l0.0574493-0.0295029
		C179.1628418,94.7462006,180.2783203,94.7416382,181.3937988,94.7370758z"></path>
</g>
<g onclick="select(this)" class="" id="estampa-terciaria" fill="#9e9e9e">
	<path d="M7.6919508,67.242157c3.9555607-0.0020065,7.9111242-0.0064163,11.866683-0.0043716
		c1.0340157,0.0005341,1.0427284,0.0097656,1.0437088,1.0458679c0.0037937,3.9955292,0.0034885,7.9910507,0.0001888,11.9865799
		c-0.0008793,1.0675278-0.0082455,1.0786743-1.0098248,1.0798492c-4.0354757,0.004715-8.0709658,0.004715-12.1064425-0.0000687
		c-0.9807239-0.0011673-0.98668-0.0125427-0.9959807-0.9691238c-0.0163059-1.6770477-0.0244837-3.354187-0.0360665-5.0312881
		c0.0813289-2.5599365,0.5247269-5.0716705,1.0055609-7.5786743C7.4975734,67.5738602,7.5128069,67.3739929,7.6919508,67.242157z"></path>
	<path d="M42.6779823,237.5958252c2.7578354-0.0075226,5.5156784-0.0218048,8.2734985-0.0184174
		c0.8343239,0.0010223,0.8541222,0.0233917,0.8556824,0.876236c0.0074692,4.0770264,0.0053368,8.154068-0.0002289,12.2311096
		c-0.000515,0.3744812,0.1295357,0.8586121-0.5209122,0.8484344c-3.0744514-0.0481262-6.1508255,0.1139679-9.2239189-0.0841064
		c-0.0979729-3.2288055,0.0175209-6.4426727,0.6488228-9.6230164c0.0536346-0.2701874,0.028511-0.556015,0.0399857-0.8345947
		c0.0288162-0.0228424,0.062088-0.0418854,0.0855789-0.0693054c0.0613899-0.0717316,0.050663-0.137619-0.0261765-0.1925507
		c0.1444092-0.4059601,0.148056-0.8121033,0.0014114-1.2184143c0.0215187-0.0300446,0.0679283-0.0726166,0.0602112-0.0879211
		c-0.0315781-0.0626068-0.0796738-0.1168823-0.1216888-0.1742401
		C42.7261581,238.6979675,42.7020721,238.1468964,42.6779823,237.5958252z"></path>
	<path d="M42.7039986,209.4739532c0.6455269-0.0014954,1.2910576-0.0029907,1.9365845-0.0044861
		c2.066452,0.0110931,4.1329384,0.0184631,6.1993446,0.0349121c0.966629,0.0076904,0.9768181,0.015564,0.9813347,0.9844666
		c0.0129547,2.7822113,0.0168152,5.5644836,0.0242462,8.3467407c-0.011673,1.2384033-0.0182304,2.4768677-0.0367508,3.7151794
		c-0.0132942,0.8885956-0.0203781,0.9020538-0.9467926,0.9057465c-2.6378517,0.0104828-5.275753,0.0088196-7.9136391,0.0119629
		c-0.4013023-0.9003906-0.2192039-1.8792725-0.3526535-2.8173218c-0.4285049-3.0119781-0.3881836-6.0552368-0.2745781-9.0885468
		C42.3469238,210.8730469,42.4055328,210.1380768,42.7039986,209.4739532z"></path>
	<path d="M184.5052948,209.4493713c-0.8352356,0.0147552-1.6707458,0.0215912-2.5056305,0.0476837
		c-0.4002991,0.0125122-0.5905914-0.146225-0.5769501-0.5558319c0.0119019-0.3579102,0.0001678-0.7165833,0.0001526-1.0749207
		c-0.0001831-3.7427521-0.0030518-7.4855042,0.0014038-11.228241c0.0016632-1.3849487-0.1507111-1.2491302,1.300827-1.2575378
		c0.1985016-0.0011444,0.3971558,0.0210724,0.5957184,0.032486
		C184.2922363,200.0431366,184.9194794,204.7023163,184.5052948,209.4493713z"></path>
	<path d="M182.4154968,149.794281c-0.9780731-0.0887909-0.989624-0.0887756-0.9906921-0.9868317
		c-0.0046692-3.9131317-0.0100403-7.8262787,0.0022125-11.7393646c0.0043793-1.4008942-0.30336-1.4569092,1.4052887-1.3860626
		c0.1349335,1.5869293,0.0228271,3.1759338-0.0833588,4.7532501c-0.1842651,2.7370453-0.0703278,5.4753723-0.177124,8.2107239
		C182.5567932,149.030777,182.7000732,149.4439392,182.4154968,149.794281z"></path>
	<path d="M96.2144699,65.9349594c0.0115738-1.5151901,0.0174637-3.0304565,0.0369492-4.5455437
		c0.01091-0.8477058,0.0210495-0.8681984,0.8540039-0.8697395c4.1480179-0.0076561,8.2961044,0.0066566,12.4440231-0.0147095
		c0.6129379-0.0031586,0.8304596,0.1703949,0.8267899,0.8076248c-0.0238876,4.1478958-0.0083847,8.2959976-0.0155411,12.4440079
		c-0.0014648,0.8488998-0.020401,0.8621292-0.8520508,0.872551c-1.5549622,0.0195007-3.1101379,0.0219574-4.6652298,0.0315094
		c-2.5150681-0.0084763-5.0301285-0.0147018-7.5451813-0.0265198c-1.0413055-0.0048981-1.0468979-0.0103149-1.0523148-1.0348816
		C96.2324371,71.0445175,96.2245865,68.4897232,96.2144699,65.9349594z"></path>
	<path d="M214.2006989,89.2489929c-2.0388336,0-4.0776672,0.0053558-6.1164703-0.0024033
		c-0.9315643-0.0035477-0.9481354-0.0152435-0.9495087-0.8967209c-0.006424-4.1176147-0.0068512-8.23526,0.0004272-12.3528748
		c0.0014801-0.8400879,0.0209808-0.8593597,0.8613739-0.8608246c4.1176453-0.0071945,8.2352753-0.007019,12.3529053-0.0001755
		c0.8780212,0.0014572,0.8915558,0.0191879,0.8928223,0.9543152c0.0055237,4.0776443,0.0057373,8.1553116,0.0000305,12.2329636
		c-0.0012817,0.9057388-0.0159149,0.9191132-0.9251099,0.9229965
		C218.2783813,89.2549667,216.2395325,89.2489929,214.2006989,89.2489929z"></path>
	<path d="M82.2924805,157.4571381c-0.0085678,1.8310547-0.0129013,3.6621399-0.0274963,5.4931641
		c-0.0071945,0.9029388-0.0157547,0.9183807-0.9201813,0.9197845c-3.9816818,0.0061646-7.9633865,0.0015106-11.9450912,0.0046234
		c-0.3176117,0.0002594-0.6352081,0.0298462-0.9528198,0.0458069c-0.3284225-0.1489563-0.2740402-0.4470978-0.2741394-0.7187347
		c-0.0013962-4.211853,0.0104599-8.4237823-0.0130463-12.635498c-0.0035248-0.6313171,0.204628-0.8253937,0.8192978-0.805603
		c0.9510345,0.0306396,1.9046707-0.0195313,2.8572083-0.0354309c0.4366074,0.0197906,0.8731918,0.0558472,1.3098373,0.0567017
		c2.70858,0.005249,5.4171906-0.0010529,8.1257706,0.0044708c0.9630356,0.0019531,0.9681549,0.0121155,0.975914,0.9822083
		C82.2655945,152.9981079,82.2779083,155.2276306,82.2924805,157.4571381z"></path>
	<path d="M37.6553345,87.6456985c0.0125427-3.912674,0.0232124-7.8253555,0.03862-11.7380219
		c0.0055656-1.4141388-0.14785-1.2744064,1.2869949-1.2760773c3.9133339-0.0045547,7.8266678-0.003624,11.7400017-0.0002823
		c1.0813866,0.0009232,1.0876083,0.0082855,1.0884247,1.1207504c0.0028992,3.9532623,0.0041695,7.9065399-0.0007286,11.8597946
		c-0.0013771,1.1101685-0.0195427,1.1309052-1.1449966,1.1311417c-4.2326622,0.0008926-8.4653282-0.0076904-12.6979904-0.0127182
		C37.6613045,88.426239,37.7003059,88.0239563,37.6553345,87.6456985z"></path>
	<path d="M75.1875381,223.4590454c-2.0360184-0.0000305-4.072319-0.0184021-6.1079102,0.0110016
		c-0.6232605,0.0090027-0.9295807-0.0921783-0.9235916-0.8317719c0.0332489-4.1117096,0.0270157-8.2238922,0.0040588-12.3357391
		c-0.0034714-0.6225281,0.1866455-0.8237762,0.8133392-0.8204193c4.1517792,0.0222321,8.3037491,0.0068207,12.4556274,0.0151062
		c0.8310394,0.0016632,0.8506546,0.024292,0.8522339,0.8791504c0.0074844,4.0720215,0.0075378,8.1441193-0.0000458,12.216156
		c-0.001564,0.840744-0.0216751,0.8585968-0.8658829,0.8629913
		C79.3394775,223.4663544,77.2634888,223.4590759,75.1875381,223.4590454z"></path>
	<path d="M160.4388123,181.4152832c1.9988098-0.0000458,3.9976807-0.0074615,5.9964294,0.0034485
		c0.8491364,0.0046387,0.870636,0.0220337,0.8722687,0.8562469c0.0080872,4.0775757,0.0079346,8.1551666,0.0002594,12.2327423
		c-0.0016022,0.8461761-0.0219116,0.8674316-0.8583527,0.8690796c-4.0775604,0.0079651-8.1551666,0.0076752-12.2327271,0.0002441
		c-0.8460693-0.0015411-0.8665009-0.0211639-0.8680725-0.8551025c-0.0076599-4.0775757-0.0075836-8.1551666-0.0001068-12.2327423
		c0.0015564-0.8478241,0.0211945-0.8659363,0.8540344-0.870285
		C156.2812347,181.4080811,158.3600616,181.4153442,160.4388123,181.4152832z"></path>
	<path d="M119.2680893,209.4691162c1.4391632,0.0083008,2.8787308,0.0391083,4.3173141,0.0137329
		c0.5775681-0.0101929,0.7547455,0.1877136,0.7521362,0.758606c-0.0189438,4.1583252-0.0193329,8.3168182,0.0004654,12.4751434
		c0.002739,0.5774231-0.1856079,0.7546387-0.7564392,0.7520599c-4.1583252-0.0188141-8.3168106-0.0184937-12.4751358-0.0002136
		c-0.5745087,0.0025177-0.7676086-0.1885834-0.7563629-0.7604675c0.0251617-1.2785339-0.0069046-2.558197-0.0156555-3.8374023
		c0.0132065-2.7936859,0.0231247-5.5873871,0.0414276-8.3810425c0.0063553-0.9692078,0.0157776-0.978775,0.9895859-0.9849243
		C113.9996185,209.4879913,116.6338577,209.4803467,119.2680893,209.4691162z"></path>
	<path d="M59.0759659,149.8006744c-1.6792755-0.010376-3.3589478-0.0026398-5.037632-0.0397034
		c-0.7049179-0.0155487-1.6037025,0.3241425-2.0650024-0.1839752c-0.4455833-0.4907837-0.1341171-1.3753204-0.1487732-2.0858002
		c-0.0305023-1.4789429-0.0281334-2.9585724-0.0392761-4.437912c0.0072975-2.0772858,0.0109329-4.1546173,0.0234947-6.231842
		c0.006012-0.9940186,0.013649-1.0087585,0.9623489-1.0101624c4.0352097-0.0059814,8.0704918,0.0089569,12.1055756-0.0140839
		c0.6407928-0.0036621,0.915062,0.1312408,0.9097137,0.8481903c-0.0307083,4.1148834-0.0282745,8.2302094-0.0015182,12.3451538
		c0.0042648,0.6560059-0.2414017,0.8006897-0.8367386,0.794693
		C62.9910088,149.7655182,61.0333977,149.7919617,59.0759659,149.8006744z"></path>
	<path d="M124.3711166,242.6359558c-0.0146103,2.5984955-0.0286407,5.196991-0.0440674,7.7955017
		c-0.0065155,1.0960236-0.0078506,1.1029358-1.102951,1.1038513c-3.9192429,0.0031891-7.8384933,0.0033569-11.7577286-0.0000305
		c-1.0968933-0.000946-1.1038971-0.0083771-1.1047974-1.1088104c-0.0032272-3.9192352-0.003479-7.8384857,0.0001678-11.7577362
		c0.0010071-1.0861969,0.0089645-1.0926208,1.1223602-1.094101c2.8394547-0.0037842,5.6789093,0.0012054,8.5183487-0.0040588
		c0.3978806-0.0007324,0.7957001-0.0393982,1.1935425-0.0604858c0.7879181,0.0191956,1.5783691,0.0853882,2.3629837,0.0431213
		c0.6551514-0.0352936,0.7850494,0.2346344,0.7763367,0.8222351
		C124.3142471,239.7951202,124.3551788,241.2157288,124.3711166,242.6359558z"></path>
	<path d="M185.5297546,74.6675339c-1.1474304-0.0145721-2.2952423-0.0526962-3.4420929-0.0332108
		c-0.5266724,0.0089493-0.688858-0.1869507-0.67453-0.6906433c0.0179443-0.6309128-0.0318298-1.2637405-0.0523682-1.8957443
		c0.139389-3.1517944,0.0124359-6.3054886,0.0715942-9.4575462c0.0123749-0.6599731-0.3072662-1.4848366,0.1935883-1.9401054
		c0.4398041-0.3997841,1.2247467-0.1247063,1.8551178-0.1272736c3.4737701-0.0141449,6.9476471-0.0102158,10.4214783-0.004509
		c0.9920502,0.0016327,0.9988556,0.0138817,0.9937897,0.9740143c-0.0130615,2.4749298,0.0534058,4.9545593-0.0822296,7.4229431
		c-0.0807037,1.4687881-0.1370544,2.9392929-0.2224731,4.4078827c-0.0760803,1.3070221-0.1090698,1.3035583-1.397583,1.3089752
		C190.6392822,74.6430664,188.0845032,74.6556931,185.5297546,74.6675339z"></path>
	<path d="M181.3937988,94.7370758c0.0097046-1.7993393,0.0376892-3.5988846,0.0185242-5.3979111
		c-0.0061646-0.5772552,0.1921539-0.7604675,0.7636871-0.7552261c2.6392517,0.0242386,5.2788391,0.0112915,7.9182739,0.0174561
		c0.1121216,0.0002594,0.2241211,0.0578308,0.395401,0.1050186c-0.38591,1.1449509-0.8108368,2.2574158-1.1359253,3.3983231
		c-0.9486694,3.3292694-1.6599579,6.716568-2.3909912,10.0983353c-0.0423431,0.1959305-0.0470734,0.3975525-0.2420654,0.516861
		c-1.3493958-0.0016403-2.6987915-0.0015564-4.0481873-0.0054016c-1.3200073-0.0037613-1.2391663,0.1253586-1.244339-1.1924896
		C181.4192657,99.2603836,181.4055176,96.9987259,181.3937988,94.7370758z"></path>
	<path d="M178.0473633,94.7507629l-0.0574493,0.0295029l-0.0641327-0.0057831
		C177.940155,94.6325607,177.9869385,94.6566467,178.0473633,94.7507629z"></path>
</g>
<g onclick="select(this)" class="" id="gola-primaria" fill="#f6d101">
	<path d="M77.9566269,7.9643593c0.5433121-0.0630779,0.9717407-0.3532591,1.350502-0.7165484
		c0.9514694-0.9126143,2.0431442-1.7269812,2.8063507-2.778368c1.8071671-2.4894934,4.3550568-3.3576338,7.2143021-3.7527018
		C89.9563141,0.6298947,90.6858826,0.8174522,91.2000046,0.24c1.1999969,0,2.4000015,0,3.5999985,0
		c0.1686554,0.4914433,0.5990219,0.3124902,0.913765,0.3136448c5.5784302,0.0204637,11.156929,0.0201891,16.7353897,0.0350896
		c0.4080505,0.0010899,0.7728119-0.0504993,1.0708466-0.3487343c7.5200043,0,15.0400085,0,22.5599976,0
		c0.0817719,0.475216,0.489212,0.3141541,0.760376,0.3591558c0.9005127,0.1494493,1.8086853,0.251949,2.7122498,0.3838596
		c2.1177368,0.3091633,3.8966217,1.1323714,5.2497864,2.9209824c1.2646942,1.6716552,2.696106,3.2340288,4.5595093,4.3031478
		c1.3345947,0.5578804,1.9425354,1.5266333,1.8510895,3.0015402c-0.2146454,3.4615307-1.8750305,6.2802496-3.7983398,9.025279
		c-0.657135,0.9378853-1.1162872,0.7764244-1.8544006,0.1728249c-1.4842682-1.2137508-2.984375-2.4184208-4.5635376-3.5020809
		c-0.9918976-0.6806717-1.0931549-1.1222725-0.2361145-2.0526142c1.5060425-1.6348286,2.6971741-3.510664,3.5267029-5.7606192
		c-3.8045959,0.2949562-7.4219208,0.6110954-11.0444489,0.8482122c-6.0543365,0.3962965-12.1088486,0.811388-18.1692657,1.0873117
		c-4.8736572,0.2218914-9.7277451-0.3653784-14.5817413-0.7113132C95.1534195,9.9352255,89.8248367,9.4127893,84.4946442,8.922883
		c-1.3387833-0.1230497-1.4493866-0.0357189-0.9412537,1.1946383c0.8055038,1.9504185,2.0682983,3.5924397,3.4846725,5.1298161
		c0.4235992,0.4597979,0.8041306,0.8782597,0.0605392,1.4501514c-1.7737122,1.3641453-3.5175934,2.7680473-5.2473907,4.1877403
		c-0.5393295,0.4426384-0.8568649,0.3148384-1.2625885-0.1770668c-1.9891205-2.4115868-3.5237122-5.0736027-4.1546249-8.1455193
		C76.0773849,10.8262997,75.9796066,9.0069094,77.9566269,7.9643593z"></path>
</g>
<g onclick="select(this)" class="" id="detalhe-punho" fill="#f6d101">
	<path d="M0.24,114.7200012c0.5644144-1.1200256,0.4030076-2.3887405,0.7285303-3.5580292
		c0.1369813-0.4920425,0.1239579-1.0281448,0.434833-1.4688873c0.5507314,0.3938141,1.1057652,0.7582321,1.7463299,1.0219345
		c3.2226641,1.3266678,6.5714111,2.1998749,9.9895649,2.8108902c4.2897234,0.7668076,8.6343718,0.8833923,12.9771452,0.9888382
		c2.5099545,0.0609512,5.0414619,0.3392792,7.5244999,0.1064301c2.71492-0.2545853,5.5079117-0.339119,8.0832443-1.458252
		c0.5714417-0.2483215,0.71632-0.0910034,0.8195343,0.5151901c0.3810501,2.23806,0.4809532,4.4963531,0.6140976,6.7538605
		c-0.5687408,0.5572357-1.3228264,0.7422333-2.046627,0.9218826c-2.2505684,0.5586166-4.5424194,0.9628906-6.8576736,1.0065155
		c-7.585247,0.1429214-15.1709824,0.225235-22.6801262-1.1807327c-3.0540991-0.5718384-6.0998974-1.1686096-9.0522776-2.1537399
		c-0.7788508-0.2598801-1.5216964-0.6276627-2.2810755-0.9459C0.24,116.9600067,0.24,115.840004,0.24,114.7200012z"></path>
	<path d="M184.6355591,120.1655731c-0.0546417-1.9532166-0.1169281-3.9007568,0.2612-5.8419342
		c0.1929779-0.9907074,0.4206543-1.3660355,1.6246643-1.1130066c4.171936,0.876709,8.425827,0.5644531,12.6547546,0.5902405
		c3.1204376,0.0190277,6.222168-0.2089844,9.2889404-0.7493134c3.0609741-0.5393143,6.1479645-0.918396,9.1846924-1.6170425
		c3.4717865-0.7987289,6.83284-1.9101334,10.1315613-3.2337265c1.0003052,2.4319,1.2690125,4.9805756,1.1668091,7.5787506
		c-0.0299225,0.7608948-0.7602081,0.8617783-1.2806091,1.065834c-2.5613708,1.0042648-5.226532,1.6836243-7.8749542,2.4055634
		c-9.0441284,2.4652786-18.2762604,3.0461731-27.5913696,2.5964508c-2.0578613-0.0993423-4.1311188-0.3100586-6.1351166-0.890358
		C185.5271606,120.8009644,184.999115,120.6344452,184.6355591,120.1655731z"></path>
</g>
</svg>
