<!--?xml version="1.0" encoding="utf-8"?-->
<!-- Generator: Adobe Illustrator 24.2.3, SVG Export Plug-In . SVG Version: 6.00 Build 0)  -->
<svg version="1.1" id="Camada_1" xmlns="http://www.w3.org/2000/svg" xmlns:xlink="http://www.w3.org/1999/xlink" x="0px" y="0px" viewBox="0 0 229 418" enable-background="new 0 0 229 418" xml:space="preserve">
<g onclick="select(this)" class="" id="gola-primaria" fill="#000000">
	<path d="M77.8916168,7.9597087c0.5436859-0.060823,0.971756-0.351294,1.3502426-0.7144103
		c0.950737-0.9121199,2.0408325-1.7265477,2.8038712-2.7772617c1.8060913-2.4870088,4.3500519-3.3584328,7.207756-3.7517452
		c0.6281586-0.086455,1.3569412,0.0999943,1.8710175-0.4764292c1.1987381,0,2.3974838,0,3.5962296,0
		c0.1686096,0.4909052,0.5984116,0.3124138,0.912941,0.3135657c5.5724945,0.0204086,11.1450577,0.0201361,16.7175827,0.0349731
		c0.4076004,0.0010852,0.7722244-0.0500705,1.06987-0.3485388c7.5121307,0,15.0242615,0,22.536377,0
		c0.0825043,0.4743731,0.4893188,0.3143728,0.760437,0.3588615c0.9785461,0.1605658,1.9665985,0.2631956,2.9451599,0.423605
		c1.9815979,0.3248264,3.6515045,1.1195586,4.9320221,2.7921858c1.2976074,1.6949353,2.7338104,3.3046737,4.6370697,4.3876185
		c1.3324432,0.5593596,1.9380798,1.5309305,1.8415222,3.0019503c-0.2353821,3.5861559-1.9468842,6.5051641-4.0271912,9.2897482
		c-0.4818878,0.6450195-0.8003693,0.5242462-1.3210602,0.11343c-1.6603699-1.3099957-3.3226318-2.6210251-5.0402985-3.8533478
		c-0.7892456-0.5662422-0.9139557-0.9267673-0.200882-1.7098122c1.5580902-1.7109709,2.8227386-3.6363726,3.6915283-5.9588633
		c-3.8082428,0.2876616-7.4592285,0.596693-11.1149139,0.8328428c-8.2775879,0.5347176-16.5432663,1.3604374-24.8602676,0.8980703
		c-7.9689865-0.4430208-15.9180527-1.1162529-23.8579559-1.9115543c-1.2846222-0.1286745-1.3676376-0.0449419-0.888588,1.1417885
		c0.8048477,1.9938078,2.0794678,3.676548,3.5352325,5.2270594c0.5391312,0.5742064,0.6272659,0.9768639-0.0832214,1.5165844
		c-1.7156601,1.3033085-3.3912277,2.6610622-5.0509949,4.0355034c-0.5472031,0.4531384-0.8718033,0.4428349-1.3361893-0.1304264
		c-1.9375229-2.3917847-3.4031982-5.0153141-4.1458511-8.0190001C75.8145065,10.4169922,76.2072296,9.2020407,77.8916168,7.9597087z
		"></path>
</g>
<g onclick="select(this)" class="" id="estampa-primaria" fill="#000000">
	<path d="M43.1263618,120.3646698c-0.1403465-2.3006744-0.1912766-4.6079102-0.6125793-6.8858566
		c-0.0898552-0.4858322-0.2389526-0.631752-0.6908188-0.4280777c-2.4881477,1.121521-5.2042923,1.1106339-7.8301926,1.4879379
		c-1.4765015,0.2121353-3.0172768-0.050972-4.5291386-0.0524063c-4.227932-0.0040207-8.4573174-0.0824738-12.6608028-0.523056
		c-3.7986622-0.3981628-7.5557051-1.0789337-11.1580629-2.4405746c-1.447762-0.547226-2.9960463-0.8544846-4.2239103-1.8888245
		c1.7871019-9.4180679,2.6614566-18.9717255,4.2189865-28.4253311c0.849607-5.1567917,1.1658249-10.3922119,2.2755399-15.5172501
		c1.7406039-8.0386963,4.4349284-15.6649666,9.3540249-22.3660049c2.1375313-2.9118538,4.5724182-5.554924,7.4028072-7.7961693
		c1.3611851-1.0778503,2.3591328-2.5712776,3.9198265-3.3974342c3.6006508-1.9060001,7.2471085-3.7240009,11.0141716-5.2781181
		c9.9707718-4.1134815,19.9648285-8.1736889,29.4114418-13.4330854c1.9712143-1.0974722,4.0056686-2.0742655,5.5076981-3.8943491
		c0.8115921-0.9834528,1.9958344-1.5783787,3.3663635-1.5663576c-1.6844864,1.2423286-2.0772095,2.4572802-1.5186539,4.7163944
		c0.7426529,3.003686,2.2083282,5.6272154,4.1458511,8.0190001c0.464386,0.5732613,0.7889862,0.5835648,1.3361893,0.1304264
		c1.6597672-1.3744411,3.3353348-2.7321949,5.0509949-4.0355034c0.7104874-0.5397205,0.6223526-0.942378,0.0832214-1.5165844
		c-1.4557648-1.5505114-2.7303848-3.2332516-3.5352325-5.2270594c-0.4790497-1.1867304-0.3960342-1.270463,0.888588-1.1417885
		c7.9399033,0.7953014,15.8889694,1.4685335,23.8579559,1.9115543c8.3170013,0.4623671,16.5826797-0.3633528,24.8602676-0.8980703
		c3.6556854-0.2361498,7.3066711-0.5451813,11.1149139-0.8328428c-0.8687897,2.3224907-2.1334381,4.2478924-3.6915283,5.9588633
		c-0.7130737,0.7830448-0.5883636,1.1435699,0.200882,1.7098122c1.7176666,1.2323227,3.3799286,2.5433521,5.0402985,3.8533478
		c0.5206909,0.4108162,0.8391724,0.5315895,1.3210602-0.11343c2.080307-2.784584,3.7918091-5.7035923,4.0271912-9.2897482
		c0.0965576-1.4710197-0.509079-2.4425907-1.8415222-3.0019503c1.8017426-0.1237612,2.9637909,0.9629784,4.0388184,2.1744261
		c0.3419647,0.3853502,0.6629639,0.7412071,1.1124115,1.0353699c10.0020142,6.5462332,21.1822052,10.6002207,32.1112976,15.1727839
		c3.9601135,1.6568451,7.7726593,3.6279163,11.7386475,5.2658367c1.1901703,0.4915447,1.9333038,1.6271763,2.9505005,2.3855953
		c3.5073242,2.6150703,6.6639862,5.5916252,9.3125458,9.0906715c4.8671417,6.4300346,7.6289825,13.775341,9.3773956,21.560955
		c0.6479492,2.8853226,1.1850281,5.7949905,1.4670868,8.7377701c0.5552521,5.7934952,2.2937469,11.3432922,3.4185333,17.0187912
		c1.087204,5.4858246,1.6999664,11.0482101,2.7496185,16.5389175c0.0593109,0.3102341,0.037674,0.6359482,0.0537109,0.9545135
		c-3.260376,1.3038406-6.575531,2.4195786-10.0077057,3.2038116c-3.1131897,0.7113266-6.2752533,1.1122208-9.413559,1.66082
		c-3.0284119,0.5293884-6.0873108,0.7425156-9.164032,0.7394409c-4.2259674-0.0042267-8.4747467,0.2719269-12.6426239-0.5961533
		c-1.202179-0.2503891-1.420105,0.1192169-1.6157227,1.1067047c-0.3846283,1.9416885-0.2650452,3.8918304-0.262085,5.8428955
		c-0.4406586,0.8073425-0.2940216,1.7092896-0.3954163,2.5675964c-0.9894867,8.376976-1.7176971,16.772728-1.7437134,25.2169876
		c-0.0067749,2.2001038,0.066864,4.3846893,0.522934,6.5547638c0.4011536,1.9087067-0.0415649,3.8243256-0.204361,5.7283325
		c-0.1808777,2.1157532-0.2702484,4.2298737-0.1431122,6.3460541c0.1516724,2.5245819-0.2314148,5.0275574-0.2311554,7.5436859
		c0.0002747,2.5966339-0.0799561,5.1951904,0.1814575,7.7869263c0.2422028,2.401474-0.210083,4.7841187-0.2296448,7.1815948
		c-0.0185394,2.2703705,0.5229034,4.434845,1.0006409,6.6138458c1.5899506,7.2516785,1.3563538,14.5254669,0.3216705,21.8117981
		c-0.3042603,2.1425323-0.3736725,4.2081604,0.3269806,6.3549805c1.7706604,5.4253693,1.8121643,11.0043793,0.9399109,16.6020355
		c-0.2307434,1.4807892-0.2493896,2.9243011,0.0909119,4.391449c0.8863525,3.8212128,0.4435577,7.7200317,0.6452179,11.581955
		c0.3081665,5.9016113,0.6908264,11.7999878,1.4307709,17.6716614c0.2580414,2.0477295,0.2246857,4.1363525,0.2554626,6.2073364
		c0.0257416,1.7311401-0.3521576,2.2269897-2.0619202,2.7422485c-3.0018311,0.9046631-6.1168365,1.1564636-9.214035,1.4806824
		c-8.3155975,0.8704529-16.6665955,0.875061-25.0136414,1.0386353c-11.5814514,0.2269592-23.1603165,0.774292-34.7410507,0.796814
		c-11.4999237,0.0223999-22.9906693-0.7998352-34.4968719-0.8546448c-8.3482819-0.0397644-16.6981583-0.1080933-25.029274-0.7388611
		c-4.2242851-0.3198242-8.4362793-0.7576904-12.5729027-1.7210388c-3.631813-0.8458252-3.982708-1.1678162-3.7739105-4.8089294
		c0.4408875-7.6882629,0.9987984-15.3699951,1.539547-23.0522156c0.1404114-1.9948425,0.2798271-3.9875031,0.2330818-5.9869232
		c-0.0440369-1.8836212,0.0297737-3.7575836,0.3698349-5.6125793c0.4068947-2.219574,0.4389648-4.4304199,0.1148491-6.671875
		c-0.3640251-2.5174561-0.1078529-5.029953,0.4363098-7.5027161c0.228054-1.0363464,0.1920967-2.048645,0.1159859-3.0909882
		c-0.3315239-4.5399933-1.0242348-9.059433-0.8230782-13.6310577c0.1896744-4.3105927,1.2064095-8.4514313,2.6653786-12.4868011
		c0.3754768-1.0385132,0.6176338-2.0305481,0.4537811-3.1416016c-0.1811371-1.228302-0.1613503-2.4718628,0.0716515-3.7012024
		c0.3156662-1.6654816,0.191761-3.3271484,0.1081696-5.0103912c-0.1641312-3.3049469-0.1746254-6.6190948-0.1881828-9.9296875
		c-0.0528259-12.8978577-0.0414581-25.7961121-0.1397133-38.6935883
		c-0.0396385-5.2032166-0.9875679-10.3359528-1.5515594-15.4973145
		C43.5885391,122.905632,43.7409363,121.570282,43.1263618,120.3646698z"></path>
</g>
<g onclick="select(this)" class="" id="detalhe-punho" fill="#bf0811">
	<path d="M0.2597441,114.6542282c0.5826161-1.0720291,0.3823544-2.3065491,0.7103746-3.43367
		c0.1535189-0.5275192,0.1381884-1.1031189,0.4507377-1.5867462c1.2278641,1.0343399,2.7761483,1.3415985,4.2239103,1.8888245
		c3.6023579,1.3616409,7.3594007,2.0424118,11.1580629,2.4405746c4.2034855,0.4405823,8.4328709,0.5190353,12.6608028,0.523056
		c1.5118618,0.0014343,3.0526371,0.2645416,4.5291386,0.0524063c2.6259003-0.3773041,5.3420448-0.3664169,7.8301926-1.4879379
		c0.4518661-0.2036743,0.6009636-0.0577545,0.6908188,0.4280777c0.4213028,2.2779465,0.4722328,4.5851822,0.6125793,6.8858566
		c-0.5697708,0.5544662-1.3227386,0.738678-2.0459976,0.9182892c-2.2478676,0.5582123-4.5372849,0.9585571-6.8493805,1.0050888
		c-7.5760174,0.1524887-15.1516876,0.2204285-22.6508408-1.1818466c-3.0114145-0.5631256-6.0171142-1.1427994-8.9271336-2.1202545
		c-0.814823-0.2736816-1.5964231-0.6463776-2.3932652-0.9736481C0.2597441,116.8929443,0.2597441,115.7735825,0.2597441,114.6542282
		z"></path>
	<path d="M184.4570313,120.0952835c-0.0029602-1.9510651-0.1225433-3.901207,0.262085-5.8428955
		c0.1956177-0.9874878,0.4135437-1.3570938,1.6157227-1.1067047c4.1678772,0.8680801,8.4166565,0.5919266,12.6426239,0.5961533
		c3.0767212,0.0030746,6.1356201-0.2100525,9.164032-0.7394409c3.1383057-0.5485992,6.3003693-0.9494934,9.413559-1.66082
		c3.4321747-0.7842331,6.7473297-1.899971,10.0077057-3.2038116c0.9964294,2.4374161,1.2748718,4.9902725,1.1617432,7.5927887
		c-0.032486,0.7471466-0.7733002,0.84729-1.2974243,1.0544205c-2.4881592,0.9832916-5.0801544,1.6438522-7.6537933,2.3490219
		c-9.1292419,2.5013733-18.4497681,3.1103134-27.8576508,2.6352234c-2.0197144-0.102005-4.0563812-0.308609-6.0235443-0.8818054
		C185.351944,120.7300262,184.8260345,120.557869,184.4570313,120.0952835z"></path>
</g>
<g onclick="select(this)" class="" id="estampa-secundaria" fill="#009045">
	<path d="M183.5382385,129.0257721c-22.274231,0.0050659-44.5484467,0.0058594-66.8226624,0.0316925
		c-0.8391876,0.0009613-1.0800552-0.2405853-1.0791779-1.0785065c0.0278854-26.8578873,0.0326233-53.7157974,0.0403748-80.5737
		c0.0017014-5.8751984,0.0355835-11.7507591-0.027153-17.6252785c-0.0120544-1.1280937,0.3910522-1.4770927,1.4126663-1.5156727
		c0.7140961-0.0269642,1.4512863-0.0983486,2.1276245-0.3106689c0.9558945-0.3000736,1.0644531,0.1050625,1.0621185,0.9108887
		c-0.0187225,6.4746494-0.0065613,12.9493771-0.006424,19.4240856c0.0005188,24.7397995,0.0000229,49.479599,0.0001221,74.2194061
		c0.0000076,1.5495148,0.0008545,1.5505447,1.5351334,1.5508652c20.7546463,0.0042725,41.5093002,0.0082397,62.2639084,0.0130157
		C184.0447083,125.7409058,183.8062897,127.3848495,183.5382385,129.0257721z"></path>
	<path d="M184.2523499,122.0881042c-0.4791412,0.0097046-0.9582825,0.0278625-1.4374084,0.0279007
		c-19.7953796,0.0014191-39.5907745-0.0078659-59.3860855,0.0246048c-1.1414719,0.0018768-1.5520172-0.1821365-1.5501022-1.4710693
		c0.0455627-30.6551743,0.0431519-61.3104286,0.0185928-91.9656372c-0.0007935-0.9908867,0.2238541-1.5375481,1.2436066-1.7643223
		c0.8505783-0.1891518,1.6803207-0.5163555,2.481575-0.8681927c0.6255951-0.2746983,0.8985214-0.199419,0.860321,0.5236244
		c-0.0168457,0.31884-0.0022583,0.6393299-0.0021667,0.9590721c0.0083618,29.4160767,0.0263519,58.8321724-0.0078125,88.2481995
		c-0.0014801,1.2674408,0.3684845,1.4885483,1.5358429,1.4862518c18.3956451-0.0361557,36.7913666-0.0240555,55.1870728-0.0329666
		c0.4627228-0.0002289,0.9634705,0.1592102,1.3863068-0.186348c0.3722229,1.0085678,0.1303558,2.0514374,0.1701965,3.0787506
		C184.2247467,120.7017899,184.5173798,121.4667206,184.2523499,122.0881042z"></path>
	<path d="M106.5578079,286.0759583c-0.001152-48.4893646-0.0006027-96.9787445-0.0187378-145.4681244
		c-0.0002899-0.7794647,0.2103958-1.3484344,0.7602921-1.900116c1.2350693-1.23909,2.4070206-2.5410004,3.8478928-4.0765533
		c0,0.7556152,0,1.2051239,0,1.6546326c0.0000076,49.4090729,0.0000381,98.8181458-0.0003815,148.2272339
		c-0.0000076,0.5992126-0.0059052,1.1983948-0.0091476,1.7975769c-0.1595535-0.0072937-0.3190384-0.0145874-0.4789734-0.0219421
		c-0.0004501-14.1382751-0.0004501-28.2765198-0.0004501-42.4147339c-0.1710663,0.0006714-0.3421249,0.0013428-0.5131912,0.0020142
		c0,14.1212158,0,28.2424316,0,42.3636475c-0.164711,0.1329346-0.321312,0.1586914-0.4614334-0.0348816
		c-0.0142975-14.4385986-0.0284882-28.8771667-0.0426712-43.3157043c-0.5783997,0.3089752-0.4574509,0.6743164-0.4590149,1.0101166
		c-0.0635147,13.7297516-0.1188202,27.4594879-0.1762619,41.1892853c-0.001503,0.3590698-0.0150757,0.7181091-0.0230103,1.077179
		c-0.0905838-0.0057068-0.18116-0.0114441-0.271698-0.0171814c-0.0185547-14.2954407-0.0370865-28.5908508-0.0562439-42.8863068
		c-0.0004807-0.3592377,0.0173645-0.7211609-0.0204163-1.0768433c-0.0280228-0.2637177-0.0716324-0.5820007-0.6268921-0.460968
		c0,14.7854462,0,29.5939789,0,44.4025116c-0.095726-0.0039063-0.1914597-0.0078125-0.2869568-0.0117493
		c-0.0591583-14.6599426-0.1185684-29.3198853-0.1778412-43.9798126c-0.0011292-0.2797394,0.0189972-0.5613098-0.0068665-0.8386536
		c-0.0227661-0.2440491,0.1008911-0.5966492-0.5041809-0.6228638c0,15.145813,0,30.2801361,0,45.414444
		C106.8736877,286.0841064,106.715744,286.0800171,106.5578079,286.0759583z"></path>
	<path d="M100.2998428,285.835968c-0.0021591-0.6791077-0.0030823-1.3582458-0.0066376-2.037384
		c-0.236969-45.3117676-0.1576843-90.6239319-0.19207-135.9359741c-0.0007553-0.9879608,0.2176361-1.7284546,0.9515457-2.4294128
		c1.2285156-1.1733856,2.3479767-2.4608459,3.5515442-3.7409363c0.3900833,0.5522919,0.2306671,1.04245,0.2308044,1.4946442
		c0.0095673,32.4499512,0.0079422,64.8998871,0.009697,97.3498383c0.0007858,14.6663971,0.0064011,29.3327942,0.0113907,43.999176
		c0.0001602,0.4792786,0.0175858,0.9585876,0.0265503,1.4379272c-0.1706161,0.1581116-0.3309784,0.1679688-0.4775085-0.0317078
		c-0.0000916-15.9602356-0.0000916-31.9204865-0.0000916-47.8807373c-0.2315521,0.000351-0.4631042,0.0007019-0.6946564,0.0010529
		c0,15.9493103,0,31.8985748,0,47.8478546c-0.1058655-0.0032654-0.211731-0.0065308-0.3172073-0.0098267
		c-0.0602646-15.8138123-0.1209564-31.6276093-0.1814728-47.4414063c-0.0012207-0.3195801,0.0247879-0.6418915-0.0091858-0.95784
		c-0.0244598-0.227478,0.1534653-0.5948334-0.4704208-0.6244812c0,16.3464966,0,32.6767426,0,49.0070038
		c-0.1575241-0.0036926-0.3150482-0.0073853-0.472847-0.0110474c-0.0118103-16.7200012-0.0233383-33.4399414-0.0348663-50.1599121
		c-0.1669998,0.0006714-0.3340073,0.0013428-0.5010071,0.0020142c0,16.7177582,0,33.4355164,0,50.1532593
		c-0.1493073-0.0043945-0.2986221-0.0087891-0.4480515-0.0131836c-0.0134354-17.0412292-0.026741-34.0824738-0.0400543-51.1237183
		c-0.2166672,0.0005341-0.433342,0.0010834-0.6500092,0.0016022c0,17.0361328,0,34.0722504,0,51.1083527
		C100.4901352,285.8394165,100.394989,285.8377075,100.2998428,285.835968z"></path>
	<path d="M44.9069023,133.8267365c18.0707321-0.0066223,36.1414604-0.0134583,54.2121925-0.0196838
		c3.6763153-0.0012512,7.3526306-0.0001526,11.3228302-0.0001526c-0.8988724,0.953537-1.7628555,1.6592407-2.3589478,2.5450287
		c-1.3607712,2.02211-3.1891403,2.3751068-5.5239563,2.3630981c-19.0699997-0.0982513-38.1406937-0.0598755-57.2111778-0.0629425
		C45.041687,137.0582275,44.9069328,135.4486237,44.9069023,133.8267365z"></path>
	<path d="M45.369873,140.6046906c19.4560242,0,38.912056,0,58.7209625,0
		c-1.616066,1.740097-3.0065536,3.2484589-4.4117432,4.7430267c-0.3820953,0.4063873-0.9084854,0.2302246-1.370842,0.2304382
		c-17.0333252,0.0079803-34.0666428,0.0067139-51.0999756,0.0066681c-0.5995178,0-1.1990433-0.000473-1.7985764-0.0009918
		C45.2523651,143.9250946,45.2571373,142.2653198,45.369873,140.6046906z"></path>
</g>
<g onclick="select(this)" class="" id="estampa-terciaria" fill="#bf0811">
	<path d="M43.8391495,124.3335571c0.4738731-0.0346527,0.9477386-0.0995026,1.4216194-0.0996246
		c19.9555168-0.0050659,39.9110603-0.0146713,59.8665047,0.0224304c1.1424866,0.002121,1.4556198-0.2541656,1.454361-1.4301529
		c-0.0334091-31.1750641-0.0241623-62.3501625-0.0221634-93.5252609c0.0001144-1.7532902,0.000267-1.7534809,1.6492691-1.3852272
		c0.0779037,0.0173969,0.1527252,0.0491962,0.2308884,0.064867c0.8531647,0.171072,1.9879303,0.0678024,2.48629,0.5815563
		c0.5739822,0.5917206,0.186348,1.7481308,0.1869202,2.6566372c0.020195,32.0941124,0.0297546,64.1882324,0.0405502,96.2823334
		c0.0005341,1.5960312-0.0005035,1.5966721-1.6086044,1.5966873c-21.2352295,0.0001526-42.470459,0.0004425-63.7056885-0.0021057
		c-0.4786301-0.000061-0.9572639-0.0328217-1.435894-0.050354
		C44.0261307,127.4973602,43.8777008,125.9220352,43.8391495,124.3335571z"></path>
	<path d="M43.0347443,117.2799606c4.8393745,0.0104599,9.6787529,0.028511,14.5181313,0.029953
		c13.7595634,0.0040894,27.5191689-0.0113144,41.2786293,0.0263824c1.0626526,0.0029068,1.3247223-0.2725296,1.3232422-1.3272934
		c-0.0317993-22.6662292-0.020195-45.3325195-0.0265579-67.9987946c-0.0020065-7.1543083-0.0200806-14.3086815-0.0626984-21.4628334
		c-0.0056229-0.9427776,0.1229553-1.3983688,1.1451569-0.8159523c0.4123001,0.2349052,0.8809433,0.3732204,1.3282928,0.5441074
		c2.3411026,0.8943138,2.3426285,0.8930454,2.341423,3.3429489c-0.0150375,30.3809376-0.037117,60.7618866-0.0202408,91.142807
		c0.0006485,1.1726151-0.2285233,1.5569839-1.4947815,1.5541153c-19.5192795-0.0442505-39.0386887-0.0305557-58.5580711-0.0332184
		c-0.3983536-0.0000458-0.7966957-0.03479-1.1952362-0.0545502c-0.3631744-0.5352783,0.0234833-1.2440796-0.410862-1.7614136
		C43.1470299,119.404129,42.8831596,118.3528824,43.0347443,117.2799606z"></path>
	<path d="M115.6504135,286.34198c0-50.4318085,0-100.8636322,0-151.5780029
		c1.5879288,1.6756287,3.0248947,3.1793518,4.4435577,4.7001495c0.2680054,0.2872925,0.1492767,0.6898193,0.1493073,1.0419312
		c0.0036316,39.5634766,0.0067368,79.1269379,0.0010147,118.6904144
		c-0.0013123,9.0301208-0.0338516,18.0602417-0.0525818,27.0904846c-0.1376801,0.0057678-0.2747803,0.0114136-0.4121094,0.0170288
		c-0.0002213-15.2128906-0.0002213-30.425766-0.0002213-45.8899384c-0.676918,0.5379181-0.5184784,0.9633942-0.5199661,1.3272095
		c-0.0591812,14.4582977-0.1083603,28.9166412-0.1597137,43.3749847c-0.0014267,0.3991699-0.0124435,0.7983093-0.0189743,1.1974487
		c-0.0942917,0.0008545-0.188591,0.0016785-0.2829895,0.0024719c-0.0001144-14.8899841-0.0001144-29.7799988-0.0001144-44.6700134
		c-0.2062302-0.000412-0.4124756-0.000824-0.6187134-0.001236c-0.0290222,14.8945465-0.0580521,29.7890472-0.0870667,44.6835785
		c-0.099556,0.0013428-0.1991119,0.0027161-0.2984695,0.0040283c-0.0714569-14.4858704-0.1430969-28.9716797-0.2147369-43.4575195
		c-0.1558075-0.0000916-0.3115997-0.0001831-0.4673996-0.0002747c0,14.4874268,0,28.974884,0,43.4623413
		c-0.1545715,0.0012817-0.3091354,0.0025635-0.4637909,0.0038757c-0.0000916-14.1071777-0.0000916-28.2142944-0.0000916-42.3214722
		c-0.2298737,0.0003357-0.4597473,0.0006714-0.6896133,0.0010071c0,14.1069336,0,28.2138977,0,42.3208313
		C115.8552933,286.3414917,115.752861,286.3417358,115.6504135,286.34198z"></path>
	<path d="M121.9628296,286.1951904c-0.0171967-15.9446106-0.0453339-31.8892212-0.0492783-47.8338318
		c-0.0078583-31.770462-0.0023956-63.5408936-0.002449-95.3113403c0-0.4360199,0-0.8720093,0-1.5783539
		c1.5750732,1.6972504,2.9999237,3.2174072,4.4041824,4.7563171c0.3615341,0.3962097,0.1893768,0.9216156,0.1896057,1.3875427
		c0.0076752,15.1858826,0.0062866,30.3717499,0.0062866,45.5576172c0.0000153,30.691452,0.0000992,61.3829041-0.0005417,92.0743256
		c-0.0000153,0.2794495-0.0097885,0.5588989-0.0150452,0.8383484c-0.1480331,0.0019531-0.2960434,0.0039063-0.4444733,0.0058289
		c-0.0004272-17.1224365-0.0004272-34.2449493-0.0004272-51.3674011c-0.161705-0.0006104-0.3234253-0.0011902-0.4851303-0.0017853
		c-0.0181656,17.1279907-0.0363083,34.2560272-0.0544586,51.3840179c-0.1510849,0.0032959-0.3021851,0.0066223-0.4533997,0.0099182
		c-0.0001144-16.7527771-0.0001144-33.5055389-0.0001144-50.258316c-0.2307587,0.0002441-0.4615021,0.000473-0.6922607,0.0007172
		c0,16.756134,0,33.5122681,0,50.2684021c-0.0985413,0.0013123-0.1970825,0.002655-0.2956009,0.0039978
		c0-16.4252319,0-32.8504486,0-49.2756653c-0.1973801-0.0007477-0.3947525-0.0014954-0.5921249-0.002243
		c-0.0821762,16.4291382-0.1020355,32.8588715-0.1090088,49.2887115c-0.0989838,0.0043335-0.1979446,0.0086975-0.2966003,0.013031
		c0.0003052-16.0369568,0.0003052-32.0738831,0.0003052-48.1107941c-0.2099304-0.0004883-0.4198456-0.0009766-0.629776-0.0014648
		c-0.0178452,16.0444946-0.0356903,32.0890045-0.0535278,48.1335297
		C122.2552338,286.3695984,122.1135178,286.3835144,121.9628296,286.1951904z"></path>
	<path d="M182.6934967,138.8154449c-20.268219,0.0032349-40.536438,0.0065308-60.8046722,0.0091705
		c-0.4361801,0.000061-0.8699188,0.0422058-1.2211227-0.3351746c-1.3786621-1.4815369-2.7724533-2.9489899-4.3481445-4.6206055
		c22.4276047,0,44.589241,0,66.7508774,0.0001831C183.0617218,135.5268402,182.9315491,137.1752472,182.6934967,138.8154449z"></path>
	<path d="M182.5596771,145.5684052c-18.1436005,0.0046539-36.2872009,0.0057678-54.4307861,0.0281219
		c-0.6689606,0.000824-1.122757-0.2211761-1.5477371-0.7034454c-1.160408-1.3168335-2.3522186-2.6060028-3.7189178-4.1126404
		c20.047142,0,39.9065475,0,59.7659683-0.000061C182.6747894,142.3773499,182.7137299,143.9742584,182.5596771,145.5684052z"></path>
</g>
<path d="M0.6827118,113.2884216c-0.1433043,0.4708786,0.1907075,1.004982-0.1915655,1.4442902
	C0.5320868,114.248291,0.4648677,113.7494736,0.6827118,113.2884216z"></path>
</svg>
