<!--?xml version="1.0" encoding="utf-8"?-->
<!-- Generator: Adobe Illustrator 24.2.3, SVG Export Plug-In . SVG Version: 6.00 Build 0)  -->
<svg version="1.1" id="Camada_1" xmlns="http://www.w3.org/2000/svg" xmlns:xlink="http://www.w3.org/1999/xlink" x="0px" y="0px" viewBox="0 0 234 419" enable-background="new 0 0 234 419" xml:space="preserve">
<g onclick="select(this)" class="" id="c-estampa-primaria" fill="#082890">
	<path d="M46.563179,118.2222443c-0.0053787-1.183342-0.0107574-2.3666763-0.0160866-3.5501328
		c0.4659691-3.5538559-0.8902283-6.9151535-1.1747475-10.4006424c-0.1778526-2.178772,0.1230736-4.523468-0.9696426-6.6009369
		c0.2142792-4.2085571-0.9718552-8.2517548-1.4422035-12.3788147c-0.4165764-3.6552429-1.5908356-6.9612808-3.7826271-9.9228821
		c-0.5173111-0.6990051-0.878624-1.5161285-1.2888336-2.2910004c-1.6738281-3.1617966-2.3613968-6.6662598-3.4535027-10.0285034
		c-2.0972748-6.4568939-3.4270191-13.0566826-3.4706383-19.8752785c-0.0071144-1.1117973,0.2079868-2.2083588,0.2779732-3.3180962
		c0.1226978-1.9455872-0.0349522-3.9135056,0.4112911-5.8417435c0.1230946-0.5319099,0.1154919-1.1185951-0.2285233-1.6205292
		c4.2194691-1.9786053,8.4010944-4.0390835,12.7401257-5.7554207c7.1251945-2.8184242,14.1391716-5.8974724,21.1239929-9.044529
		c3.9447784-1.7773457,7.5905914-4.0751429,11.234581-6.379427c0.4509277-0.2851515,0.7562561-0.6992817,1.1081924-1.079278
		c1.1422119-1.2332792,2.4376221-2.186347,4.2301788-2.1526685c3.338356,0.1755681,6.6431808,0.6605306,9.9407043,1.1618514
		c7.085022,1.0771284,14.2381058,1.2819529,21.3690948,1.7711859c5.1623001,0.354167,10.299881-0.1624851,15.4454117-0.4610624
		c4.3482513-0.2523136,8.6943665-0.5142403,13.0150757-1.0700407c3.1983948-0.4114323,6.3863373-0.903841,9.5801544-1.3514442
		c0.7448425-0.1043882,1.4946442-0.1733685,2.2424469-0.258884c2.0242615,0.0467844,3.5067291,1.0518651,4.789505,2.5459428
		c1.0005798,1.1654196,2.4201965,1.8163595,3.7376709,2.5509024c8.6218414,4.8068933,17.5932922,8.8771601,26.7783203,12.471858
		c4.9471436,1.9361496,9.6673889,4.3572903,14.5066528,6.5224266c0.2096863,0.0938148,0.3825226,0.2698288,0.572464,0.4074516
		c-0.4069672,0.5227547-0.4762421,1.2061386-0.2716827,1.7161903c0.4538269,1.1317139,0.1228027,2.2535553,0.178009,3.3726959
		c0.1442108,2.9240303,0.5751038,5.8408432,0.2544861,8.7795525c-0.2671051,2.4481697-0.3092957,4.9418678-0.8142242,7.3390007
		c-1.3115692,6.2267609-3.1703033,12.3148193-5.2812195,18.3148727c-0.7233124,2.0560226-1.7638092,4.0645142-3.4004974,5.5425034
		c-0.9956818,0.8991394-1.7586823,1.841507-2.1265106,3.0757675c-1.2243652,4.1081772-1.5516205,8.3596039-1.7804413,12.6044159
		c-0.1525116,2.8287888-0.3384247,5.6222229-1.0775299,8.3779449c-0.5473022,2.0405807-0.7767029,4.1761093-0.5781555,6.273468
		c0.1568451,1.6570282-0.1188049,3.2417679-0.2446136,4.8568726c-0.0404053,2.6245956-0.6573944,5.2096024-0.5391235,7.8450851
		c-0.4489594,0.2575073-0.2702484,0.7125244-0.3135986,1.0791779c-1.2413483,10.5049667-1.4894104,21.0417252-0.9481812,31.5993576
		c0.1662598,3.2433929-0.087677,6.4668121-0.2795715,9.6972504c-0.3607941,6.0736237,0.1223907,12.1427765,0.1457672,18.2147064
		c0.0103149,2.6793365-0.1021118,5.3511047-0.4322815,8.0139923c-0.2367706,1.9098663-0.2719879,3.8260651,0.0496826,5.7355804
		c0.0464172,0.2754822,0.1215515,0.5604858,0.0937347,0.8318939c-0.3126831,3.0526733,0.522522,5.905365,1.3583374,8.7943726
		c1.6499481,5.7030182,1.9922333,11.539566,1.5094452,17.4485779c-0.3468628,4.2449493-0.8688049,8.4920959-0.0210419,12.7551575
		c0.2144012,1.0780792,0.1135559,2.2329254,0.0599823,3.3478241c-0.3651428,7.5992432,0.7537537,15.1268005,1.0924377,22.6917877
		c0.2391968,5.3427734,0.695282,10.6752319,0.9338837,16.0210266c0.0690002,1.5457458,0.2881775,3.0946045,0.2843933,4.6512756
		c-0.004303,1.7687683-0.2490845,2.1618652-1.9274139,2.6983032c-4.4263763,1.4148254-8.9795227,2.2865601-13.5679626,2.944397
		c-11.5893097,1.6616211-23.2747192,1.8406372-34.9467316,1.9870605
		c-21.5126724,0.2699585-43.0280762,0.6168213-64.5417786,0.3160095
		c-10.0044556-0.1399231-19.9631386-1.0458679-29.6620255-3.7736511c-3.6749039-1.0335693-3.7975426-1.0592957-3.5729256-4.8137512
		c0.4194565-7.0112305,0.9851761-14.0138855,1.5068588-21.0188599c0.2404671-3.2288208-0.1057968-6.4777679,0.3547783-9.6977844
		c0.0791359-0.5532532,0.0903854-1.1240082,0.23592-1.6586914c0.8769379-3.2216339,0.0700493-6.4328766-0.054657-9.6429749
		c-0.1797371-4.6266632,0.2290459-9.1895599,1.4315758-13.6493683c0.4302254-1.59552,0.4745674-3.1356812,0.2800369-4.7204742
		c-1.0652695-8.6782684-0.8899117-17.300293,1.0741653-25.8546143c0.3130112-1.3632813,0.4456902-2.7727051,0.3333054-4.1702423
		c-0.381813-4.7480774,0.0052261-9.5021973-0.169754-14.2532043c-0.2117043-5.7481232-0.049614-11.5061798-0.4568825-17.2516174
		c-0.254734-3.5935211,0.41399-7.162674,0.2963448-10.7697296c-0.3126602-9.5863953-0.864727-19.1581116-1.4703903-28.7281189
		C46.8132248,118.8648148,46.9605751,118.4593201,46.563179,118.2222443z"></path>
	<path d="M188.6978302,112.5258331c0.1258087-1.6151047,0.4014587-3.1998444,0.2446136-4.8568726
		c-0.1985474-2.0973587,0.0308533-4.2328873,0.5781555-6.273468c0.7391052-2.755722,0.9250183-5.5491562,1.0775299-8.3779449
		c0.2288208-4.244812,0.556076-8.4962387,1.7804413-12.6044159c0.3678284-1.2342606,1.1308289-2.1766281,2.1265106-3.0757675
		c1.6366882-1.4779892,2.6771851-3.4864807,3.4004974-5.5425034c2.1109161-6.0000534,3.9696503-12.0881119,5.2812195-18.3148727
		c0.5049286-2.3971329,0.5471191-4.890831,0.8142242-7.3390007c0.3206177-2.9387093-0.1102753-5.8555222-0.2544861-8.7795525
		c-0.0552063-1.1191406,0.2758179-2.2409821-0.178009-3.3726959c-0.2045593-0.5100517-0.1352844-1.1934357,0.2716827-1.7161903
		c0.2737274,0.1590652,0.5721893,0.2868462,0.8175354,0.4814796c10.1980286,8.0904961,16.7229156,18.4832726,19.743042,31.1452904
		c1.3559875,5.6850319,1.9811249,11.4740028,2.9464417,17.2147942c1.6348114,9.7222748,2.6294403,19.5462036,4.6751862,29.2010117
		c0.0982513,0.463768,0.0819855,0.9517746,0.1190948,1.4285812c-2.6624298,0.6754913-5.3132629,1.4063416-8.0528412,1.7198792
		c-3.2033081,0.3666-6.4080658,0.7206268-9.6104279,1.0951157c-2.9236603,0.3418884-5.8379669,0.904007-8.769104,1.0065155
		c-3.7044525,0.1295547-7.4232941-0.068306-11.1326752-0.2101593c-1.2049866-0.0460663-2.331665-0.5916901-3.2850342-1.3171768
		C190.4791412,113.419754,189.8283386,112.5811768,188.6978302,112.5258331z"></path>
	<path d="M31.4256382,32.3936844c0.3440151,0.5019341,0.3516178,1.0886192,0.2285233,1.6205292
		c-0.4462433,1.9282379-0.2885933,3.8961563-0.4112911,5.8417435c-0.0699863,1.1097374-0.2850876,2.2062988-0.2779732,3.3180962
		c0.0436192,6.8185959,1.3733635,13.4183846,3.4706383,19.8752785c1.0921059,3.3622437,1.7796745,6.8667068,3.4535027,10.0285034
		c0.4102097,0.7748718,0.7715225,1.5919952,1.2888336,2.2910004c2.1917915,2.9616013,3.3660507,6.2676392,3.7826271,9.9228821
		c0.4703484,4.1270599,1.6564827,8.1702576,1.4422035,12.3788147c1.0927162,2.0774689,0.79179,4.4221649,0.9696426,6.6009369
		c0.2845192,3.4854889,1.6407166,6.8467865,1.1747475,10.4006424c-0.7342834-0.1647568-0.4405403-0.7595291-0.4436913-1.1752014
		c-0.0064087-0.8451843-0.3373947-1.1737671-1.0873833-0.7108154c-2.1440201,1.3234711-4.503933,1.3891373-6.9232025,1.406723
		c-5.9878693,0.0435028-11.9068069-0.3800735-17.8393574-1.3505173c-5.7283249-0.9370346-11.4491043-1.8993073-17.1551247-2.9598007
		c-0.4830325-0.0897675-0.9225605-0.2303543-1.3358734-0.4796906c1.2440469-7.9673233,2.1965909-15.9947205,4.3842006-23.7802811
		c1.4992447-5.335701,1.9565887-10.8423233,2.9865932-16.2524109c1.5338802-8.056694,3.9407263-15.8068924,8.3908644-22.7923698
		c2.7516975-4.319397,6.1700726-8.0570145,10.2076225-11.1988678C28.982914,34.4052696,29.9594669,33.0947647,31.4256382,32.3936844
		z"></path>
</g>
<path d="M47.6899986,133.4400024c0.3199997,0.1300049,0.3699989,0.2899933,0.0499992,0.4900055
	C47.6100006,133.7799988,47.5900002,133.6100006,47.6899986,133.4400024z"></path>
<path d="M96.7300034,223.2100067c0.0100021-0.1000061,0.0299988-0.1999969,0.0400009-0.3000031
	c0.0400009,0.0200043,0.0800018,0.0399933,0.1200027,0.0599976c-0.0599976,0.0700073-0.1200027,0.1499939-0.1800003,0.2200012
	C96.7099991,223.1999969,96.7300034,223.2100067,96.7300034,223.2100067z"></path>
<path d="M57.6100006,248.8800049c-0.0299988-0.2100067,0-0.3899994,0.2000008-0.5099945
	c0.0400009,0.0299988,0.0699997,0.0599976,0.1100006,0.0899963c-0.0499992,0.1900024-0.0699997,0.3899994-0.3300018,0.4100037
	L57.6100006,248.8800049z"></path>
<path d="M57.5900002,248.8699951c-0.0200005,0.1100006-0.0400009,0.2200012-0.0699997,0.3399963
	c-0.0299988-0.0200043-0.0699997-0.0399933-0.0999985-0.0599976c0.0600014-0.0899963,0.1199989-0.1699982,0.1800003-0.2599945
	C57.6100006,248.8800049,57.5900002,248.8699951,57.5900002,248.8699951z"></path>
<g onclick="select(this)" class="" id="c-estampa-secundaria" fill="#bf0811">
	<path d="M95.6299591,213.6099854c0.0081177,0.6374054-0.010498,75.130249,0,75.6093445
		c-8.5959015,0.0324707-17.9237671,0.2939148-26.5109329-0.3234253c-2.4718399-0.1776733-4.9403381-0.4032898-7.4089279-0.6231079
		c-0.4324493-0.0385132-1.4615364-0.2910767-1.8898621-0.3728333c0.0224419-0.437561-0.0838852-73.8551178-0.1152344-74.289978
		C65.763176,213.5691986,87.9874725,213.6099854,95.6299591,213.6099854z"></path>
	<path d="M138.3874969,213.6099854c4.4666595,0,28.3405457,0,36.1425018,0
		c-0.0228271,0.4775696,0.0425262,73.0192566,0.0695343,73.454895c-3.4625244,0.6457825-7.7439423,0.9276733-11.2450409,1.1508789
		c-7.4548035,0.4751282-14.9246674,0.5751038-22.3904877,0.7628784c-0.5556335,0.0139771-2.021225-0.0408325-2.5765076-0.0636292
		C138.4221802,288.3610535,138.395462,214.0893707,138.3874969,213.6099854z"></path>
</g>
<g onclick="select(this)" class="" id="c-estampa-terciaria" fill="#f6d101">
	<path d="M94.9012527,289.2193298c-0.010498-0.4790955-0.0301743-0.9582214-0.0301819-1.4373169
		c-0.0013351-92.1290283-0.0012283,21.2590637-0.0024796-70.8699646c-0.0000076-0.6382294-0.0179901-2.6646576-0.0261078-3.302063
		c1.0793991,0,2.0281067,0,3.1048126,0c-0.0091171,5.035614-0.0260925,11.8442841-0.0261612,16.8798523
		c-0.0012054,88.0871582-0.0003433-29.3427734,0.0000687,58.7443848
		C96.9145584,289.229248,95.9079056,289.2242737,94.9012527,289.2193298z"></path>
	<path d="M57.6246414,287.6321106c-0.004055-0.4395447-0.0116463-0.8790894-0.0116501-1.3186646
		c-0.0007248-88.4164429-0.0009232,15.7130127-0.0011215-72.7034607c0.9381294,0,1.935894,0,2.787487,0
		c0.0307045,0.4352722,0.0876198,12.5566101,0.0876389,12.9914856c0.0040131,88.5453491,0.0039635-28.4263916,0.0011253,60.1189575
		c-0.0000153,0.4377441-0.041626,0.8754883-0.0640678,1.3130493
		C59.4661026,288.0713196,58.5367889,287.9115295,57.6246414,287.6321106z"></path>
	<path d="M176.6292419,213.6099854c-0.0007629,88.4536133-0.0014038,32.3700104-0.002594,72.0167236
		c0,0.3996582-0.0043182,0.7993164-0.0066528,1.1989136c-0.9146423,0.2349243-1.8401489,0.3897095-2.7879639,0.3777771
		c-0.0267334-0.4361267-0.0773926-0.8718262-0.0774078-1.3074646c-0.0034485-88.4976501-0.0034332,27.9687805-0.0005341-60.5288391
		c0.0000153-0.4777069,0.0410156-11.279541,0.0638428-11.7571106C175.1906128,213.6307678,176,213.6099854,176.6292419,213.6099854z
		"></path>
	<path d="M139.3733368,213.6099854c0.0079651,0.4793854,0.022934,1.9609528,0.022934,2.4403381
		c0.0010223,92.0556641,0.0011444-20.8527985-0.0031738,71.2028503c-0.0000305,0.5539551-0.0626831,1.1078796-0.0973663,1.6618347
		c-0.829071,0.1610107-1.6605988,0.1268311-2.4929504,0.0475769c-0.0105286-0.5189209-0.0303192-1.0378113-0.0303345-1.5567017
		c-0.0013428-91.9479065-0.001236,21.0682983-0.0025787-70.8795776c-0.0000153-0.5590057-0.019455-2.3574066-0.0298309-2.9163208
		C137.5915222,213.6099854,138.497879,213.6099854,139.3733368,213.6099854z"></path>
</g>
<path d="M174.5299988,213.6099854"></path>
<g onclick="select(this)" class="" id="c-gola-primaria" fill="#082890">
	<path d="M81.862915,7.9824848c1.7210922-1.359446,3.368866-2.8027096,4.6813278-4.5706072
		c1.4333496-1.9307294,3.4275284-2.569464,5.7044296-2.7007985c0.6235046-0.0359645,1.3870163,0.3147643,1.8313293-0.4712164
		c15.9200058,0,31.8400116,0,47.7600098,0c0.9772491,0.468389,2.0675659,0.4580993,3.0943451,0.7245071
		c1.5865784,0.4116569,2.9589844,1.1140342,3.9757996,2.4449308c1.2887115,1.6867537,2.9682922,2.9740405,4.5454407,4.3646669
		c-0.7478027,0.0855155-1.4976044,0.1544957-2.2424469,0.258884c-3.1938171,0.4476032-6.3817596,0.940012-9.5801544,1.3514442
		c-4.3207092,0.5558004-8.6668243,0.8177271-13.0150757,1.0700407c-5.1455307,0.2985773-10.2831116,0.8152294-15.4454117,0.4610624
		c-7.1309891-0.489233-14.2840729-0.6940575-21.3690948-1.7711859C88.5058899,8.6428919,85.2010651,8.1579294,81.862915,7.9824848z"></path>
</g>
<g onclick="select(this)" class="" id="c-detalhe-punho" fill="#bf0811">
	<path d="M0.2399999,116.0934372c0.4019386-1.9966812,0.8041824-3.9933014,1.2054386-5.9901123
		c0.0519282-0.2584229-0.0217745-0.5722809,0.3170216-0.7005157c0.4133129,0.2493362,0.8528409,0.3899231,1.3358734,0.4796906
		c5.7060204,1.0604935,11.4267998,2.0227661,17.1551247,2.9598007c5.9325504,0.9704437,11.8514881,1.3940201,17.8393574,1.3505173
		c2.4192696-0.0175858,4.7791824-0.083252,6.9232025-1.406723c0.7499886-0.4629517,1.0809746-0.1343689,1.0873833,0.7108154
		c0.0031509,0.4156723-0.2905922,1.0104446,0.4436417,1.1753159c0.0053787,1.183342,0.0107574,2.3666763,0.0161362,3.5500183
		c-0.0785027,0.5859604-0.2565727,1.1791611-0.2146034,1.7563705c0.0849495,1.1682587-0.625267,1.4380112-1.5379219,1.5414581
		c-5.5591965,0.6301727-11.1084175,1.1380386-16.7229614,0.5366974c-9.1340427-0.9782867-18.2107697-2.2743073-27.1770115-4.291626
		c-0.2293947-0.0516129-0.4473771-0.1538849-0.6706817-0.2325287C0.24,117.052887,0.24,116.5731659,0.2399999,116.0934372z"></path>
	<path d="M188.6978302,112.5258331c1.1305084,0.0553436,1.781311,0.8939209,2.5935974,1.5120468
		c0.9533691,0.7254868,2.0800476,1.2711105,3.2850342,1.3171768c3.7093811,0.1418533,7.4282227,0.3397141,11.1326752,0.2101593
		c2.9311371-0.1025085,5.8454437-0.6646271,8.769104-1.0065155c3.2023621-0.3744888,6.4071198-0.7285156,9.6104279-1.0951157
		c2.7395782-0.3135376,5.3904114-1.0443878,8.0528259-1.7198792c0.6603394,0.1413193,0.5334625,0.7501221,0.6053467,1.1598129
		c0.3378143,1.9256897,0.4354095,3.8771057,0.5597992,5.8275681c0.0608673,0.9542084-0.3804169,1.2510147-1.1618652,1.4391861
		c-3.727951,0.897728-7.5021515,1.5553818-11.2945862,2.0880814c-7.1191101,0.9999924-14.2603302,1.7123184-21.4695282,1.5265503
		c-2.9492798-0.0759964-5.7994232-0.4171677-8.3943939-1.9630508c-0.3276978-0.1952057-0.7493134-0.2746201-1.1374512-0.317894
		c-0.7750854-0.0864182-1.3348389-0.4451981-1.6902008-1.1330261
		C188.0404358,117.7354355,188.6574249,115.1504288,188.6978302,112.5258331z"></path>
</g>
</svg>
