<!--?xml version="1.0" encoding="utf-8"?-->
<!-- Generator: Adobe Illustrator 24.2.3, SVG Export Plug-In . SVG Version: 6.00 Build 0)  -->
<svg version="1.1" id="Camada_1" xmlns="http://www.w3.org/2000/svg" xmlns:xlink="http://www.w3.org/1999/xlink" x="0px" y="0px" viewBox="0 0 234 419" style="enable-background:new 0 0 234 419;" xml:space="preserve">
<style type="text/css">
	.st0{fill:#13F9F6;}
	.st1{fill:#0CA4A4;}
	.st2{fill:#0923BE;}
	.st3{fill:#C4FEA2;}
	.st4{fill:#040403;}
</style>
<g onclick="select(this)" class="" id="c-gola-primaria" fill="#343434">
	<path d="M81.9,8c1.7-1.4,3.4-2.8,4.7-4.6C88,1.5,90,0.8,92.2,0.7c0.6,0,1.4,0.3,1.8-0.5c15.9,0,31.8,0,47.8,0
		c1,0.5,2.1,0.5,3.1,0.7c1.6,0.4,3,1.1,4,2.4c1.3,1.7,3,3,4.5,4.4c-0.7,0.1-1.5,0.2-2.2,0.3c-3.2,0.4-6.4,0.9-9.6,1.4
		c-4.3,0.6-8.7,0.8-13,1.1c-5.1,0.3-10.3,0.8-15.4,0.5c-7.1-0.5-14.3-0.7-21.4-1.8C88.5,8.6,85.2,8.2,81.9,8z"></path>
</g>
<g onclick="select(this)" class="" id="c-detalhe-punho" fill="#000000">
	<path d="M0.2,116.1c0.4-2,0.8-4,1.2-6c0.1-0.3,0-0.6,0.3-0.7c0.4,0.2,0.9,0.4,1.3,0.5c5.7,1.1,11.4,2,17.2,3
		c5.9,1,11.9,1.4,17.8,1.4c2.4,0,4.8-0.1,6.9-1.4c0.7-0.5,1.1-0.1,1.1,0.7c0,0.4-0.3,1,0.4,1.2c0,1.2,0,2.4,0,3.6
		c-0.1,0.6-0.3,1.2-0.2,1.8c0.1,1.2-0.6,1.4-1.5,1.5c-5.6,0.6-11.1,1.1-16.7,0.5c-9.1-1-18.2-2.3-27.2-4.3c-0.2-0.1-0.4-0.2-0.7-0.2
		C0.2,117.1,0.2,116.6,0.2,116.1z"></path>
	<path d="M188.7,112.5c1.1,0.1,1.8,0.9,2.6,1.5c1,0.7,2.1,1.3,3.3,1.3c3.7,0.1,7.4,0.3,11.1,0.2c2.9-0.1,5.8-0.7,8.8-1
		c3.2-0.4,6.4-0.7,9.6-1.1c2.7-0.3,5.4-1,8.1-1.7c0.7,0.1,0.5,0.8,0.6,1.2c0.3,1.9,0.4,3.9,0.6,5.8c0.1,1-0.4,1.3-1.2,1.4
		c-3.7,0.9-7.5,1.6-11.3,2.1c-7.1,1-14.3,1.7-21.5,1.5c-2.9-0.1-5.8-0.4-8.4-2c-0.3-0.2-0.7-0.3-1.1-0.3c-0.8-0.1-1.3-0.4-1.7-1.1
		C188,117.7,188.7,115.2,188.7,112.5z"></path>
</g>
<g onclick="select(this)" class="" id="c-estampa-primaria" fill="#343434">
	<path d="M46.6,118.2c0-1.2,0-2.4,0-3.6c0.5-3.6-0.9-6.9-1.2-10.4c-0.2-2.2,0.1-4.5-1-6.6c0.2-4.2-1-8.3-1.4-12.4
		c-0.4-3.7-1.6-7-3.8-9.9c-0.5-0.7-0.9-1.5-1.3-2.3c-1.7-3.2-2.4-6.7-3.5-10C32.3,56.6,31,50,31,43.2c0-1.1,0.2-2.2,0.3-3.3
		c0.1-1.9,0-3.9,0.4-5.8c0.1-0.5,0.1-1.1-0.2-1.6c4.2-2,8.4-4,12.7-5.8c7.1-2.8,14.1-5.9,21.1-9c3.9-1.8,7.6-4.1,11.2-6.4
		c0.5-0.3,0.8-0.7,1.1-1.1c1.1-1.2,2.4-2.2,4.2-2.2c3.3,0.2,6.6,0.7,9.9,1.2c7.1,1.1,14.2,1.3,21.4,1.8c5.2,0.4,10.3-0.2,15.4-0.5
		c4.3-0.3,8.7-0.5,13-1.1c3.2-0.4,6.4-0.9,9.6-1.4c0.7-0.1,1.5-0.2,2.2-0.3c2,0,3.5,1.1,4.8,2.5c1,1.2,2.4,1.8,3.7,2.6
		c8.6,4.8,17.6,8.9,26.8,12.5c4.9,1.9,9.7,4.4,14.5,6.5c0.2,0.1,0.4,0.3,0.6,0.4c-0.4,0.5-0.5,1.2-0.3,1.7c0.5,1.1,0.1,2.3,0.2,3.4
		c0.1,2.9,0.6,5.8,0.3,8.8c-0.3,2.4-0.3,4.9-0.8,7.3c-1.3,6.2-3.2,12.3-5.3,18.3c-0.7,2.1-1.8,4.1-3.4,5.5c-1,0.9-1.8,1.8-2.1,3.1
		c-1.2,4.1-1.6,8.4-1.8,12.6c-0.2,2.8-0.3,5.6-1.1,8.4c-0.5,2-0.8,4.2-0.6,6.3c0.2,1.7-0.1,3.2-0.2,4.9c0,2.6-0.7,5.2-0.5,7.8
		c-0.4,0.3-0.3,0.7-0.3,1.1c-1.2,10.5-1.5,21-0.9,31.6c0.2,3.2-0.1,6.5-0.3,9.7c-0.4,6.1,0.1,12.1,0.1,18.2c0,2.7-0.1,5.4-0.4,8
		c-0.2,1.9-0.3,3.8,0,5.7c0,0.3,0.1,0.6,0.1,0.8c-0.3,3.1,0.5,5.9,1.4,8.8c1.6,5.7,2,11.5,1.5,17.4c-0.3,4.2-0.9,8.5,0,12.8
		c0.2,1.1,0.1,2.2,0.1,3.3c-0.4,7.6,0.8,15.1,1.1,22.7c0.2,5.3,0.7,10.7,0.9,16c0.1,1.5,0.3,3.1,0.3,4.7c0,1.8-0.2,2.2-1.9,2.7
		c-4.4,1.4-9,2.3-13.6,2.9c-11.6,1.7-23.3,1.8-34.9,2c-21.5,0.3-43,0.6-64.5,0.3c-10-0.1-20-1-29.7-3.8c-3.7-1-3.8-1.1-3.6-4.8
		c0.4-7,1-14,1.5-21c0.2-3.2-0.1-6.5,0.4-9.7c0.1-0.6,0.1-1.1,0.2-1.7c0.9-3.2,0.1-6.4-0.1-9.6c-0.2-4.6,0.2-9.2,1.4-13.6
		c0.4-1.6,0.5-3.1,0.3-4.7c-1.1-8.7-0.9-17.3,1.1-25.9c0.3-1.4,0.4-2.8,0.3-4.2c-0.4-4.7,0-9.5-0.2-14.3c-0.2-5.7,0-11.5-0.5-17.3
		c-0.3-3.6,0.4-7.2,0.3-10.8c-0.3-9.6-0.9-19.2-1.5-28.7C46.8,118.9,47,118.5,46.6,118.2z"></path>
	<path d="M188.7,112.5c0.1-1.6,0.4-3.2,0.2-4.9c-0.2-2.1,0-4.2,0.6-6.3c0.7-2.8,0.9-5.5,1.1-8.4
		c0.2-4.2,0.6-8.5,1.8-12.6c0.4-1.2,1.1-2.2,2.1-3.1c1.6-1.5,2.7-3.5,3.4-5.5c2.1-6,4-12.1,5.3-18.3c0.5-2.4,0.5-4.9,0.8-7.3
		c0.3-2.9-0.1-5.9-0.3-8.8c-0.1-1.1,0.3-2.2-0.2-3.4c-0.2-0.5-0.1-1.2,0.3-1.7c0.3,0.2,0.6,0.3,0.8,0.5
		c10.2,8.1,16.7,18.5,19.7,31.1c1.4,5.7,2,11.5,2.9,17.2c1.6,9.7,2.6,19.5,4.7,29.2c0.1,0.5,0.1,1,0.1,1.4c-2.7,0.7-5.3,1.4-8.1,1.7
		c-3.2,0.4-6.4,0.7-9.6,1.1c-2.9,0.3-5.8,0.9-8.8,1c-3.7,0.1-7.4-0.1-11.1-0.2c-1.2,0-2.3-0.6-3.3-1.3
		C190.5,113.4,189.8,112.6,188.7,112.5z"></path>
	<path d="M31.4,32.4c0.3,0.5,0.4,1.1,0.2,1.6c-0.4,1.9-0.3,3.9-0.4,5.8C31.2,41,31,42.1,31,43.2
		c0,6.8,1.4,13.4,3.5,19.9c1.1,3.4,1.8,6.9,3.5,10c0.4,0.8,0.8,1.6,1.3,2.3c2.2,3,3.4,6.3,3.8,9.9c0.5,4.1,1.7,8.2,1.4,12.4
		c1.1,2.1,0.8,4.4,1,6.6c0.3,3.5,1.6,6.8,1.2,10.4c-0.7-0.2-0.4-0.8-0.4-1.2c0-0.8-0.3-1.2-1.1-0.7c-2.1,1.3-4.5,1.4-6.9,1.4
		c-6,0-11.9-0.4-17.8-1.4c-5.7-0.9-11.4-1.9-17.2-3c-0.5-0.1-0.9-0.2-1.3-0.5c1.2-8,2.2-16,4.4-23.8c1.5-5.3,2-10.8,3-16.3
		c1.5-8.1,3.9-15.8,8.4-22.8c2.8-4.3,6.2-8.1,10.2-11.2C29,34.4,30,33.1,31.4,32.4z"></path>
</g>
<path d="M188.4,120.6c0,0.1,0.1,0.2,0.1,0.3C188.3,120.8,188.3,120.7,188.4,120.6z"></path>
<path d="M188.9,121.3c0.2,0,0.3,0.1,0.5,0.1C189.2,121.5,189,121.5,188.9,121.3z"></path>
<path d="M230.9,104.2c-0.1-0.1-0.1-0.2-0.2-0.3C230.7,104,230.8,104.1,230.9,104.2z"></path>
<polygon class="st3" points="188.6,121.2 188.7,121.1 188.7,121.2 "></polygon>
<path d="M21.7,41.6c-0.1,0.2-0.2,0.2-0.3,0.1C21.4,41.6,21.5,41.5,21.7,41.6z"></path>
<g onclick="select(this)" class="" id="c-estampa-secundaria" fill="#000000">
	<path d="M2.8,103.4c8.3,2.1,16.5,4.2,24.8,6.3c4.8,1.2,9.7,2.4,14.5,3.6c0.3,0.1,0.7,0.3,1,0.4c-1.3,0.5-2.7,0.5-4,0.5
		c-2.7,0-5.4,0.2-8-0.1c-1.6-0.1-3.3,0.1-5-0.4c-0.4-0.3-0.9-0.4-1.3-0.5c-7.6-1.9-15.1-3.8-22.7-5.7C2.3,106.1,2.4,104.7,2.8,103.4
		z"></path>
	<path d="M201.5,115.6c-1-3.6-2.1-7.3-3.2-11.1c6.1,0.3,12.2,0.6,18.5,0.9c-3.6-4.8-7.1-9.4-10.7-14.2
		c6-1.4,11.9-2.8,18-4.3c-5.1-3.5-10.1-6.9-15.2-10.3c5.2-3.3,10.3-6.6,15.6-10c-6.3-1.6-12.4-3.1-18.6-4.7
		c3.7-4.8,7.3-9.6,11.1-14.5c-2.6,0.2-4.9,0.3-7.2,0.5c-1.8,0.1-3.6,0.3-5.4,0.4c-0.5,0-0.8,0-0.6-0.6c0-0.1,0-0.2,0-0.2
		c0.1-1.1-0.3-2.4,0.3-3.1c0.7-0.7,2-0.3,3.1-0.4c2.5-0.2,5.1-0.4,7.6-0.6c1.9,2.3,3.4,4.9,4.5,7.7c-2.2,2.8-4.3,5.5-6.6,8.4
		c3.8,1,7.3,1.8,10.9,2.7c0.8,2.8,1.4,5.7,1.9,8.5c-3.1,2-6.2,3.9-9.5,6c3.9,2.6,7.6,5.1,11.4,7.6c0.5,1.9,0.9,3.8,1,5.8
		c-5.1,1.2-10.3,2.4-15.5,3.7c4.1,5.5,8.1,10.8,12.2,16.2c-7.3-0.4-14.4-0.8-21.6-1.1c0.7,2.3,1.3,4.5,1.9,6.7
		C204.3,115.9,202.9,116.1,201.5,115.6z"></path>
	<path d="M231.9,111.8c-0.4-0.1-0.7-0.3-0.9-0.7c-3.6-4.8-7.3-9.7-10.9-14.5c0-0.1,0-0.2,0-0.3c3.1-0.7,6.3-1.4,9.4-2.1
		c0.2,1.3,0.3,2.7,0.5,4c-1,0.3-1.9,0.5-3.1,0.8c1.3,1.7,2.6,3.3,3.8,4.8c0,0.1,0,0.1,0.1,0.1c0.1,0.1,0.1,0.2,0.2,0.3
		c0.4,2,0.8,4,1.2,6C232.1,110.7,232.3,111.3,231.9,111.8C231.9,111.8,231.9,111.8,231.9,111.8z"></path>
	<path d="M206.3,34.5c-0.7,2.4-1.4,4.8-2.1,7.2c0.1-2.2-0.6-4.3-0.3-6.5c0.1-0.9-0.4-1.9-0.1-2.9
		C204.9,32.7,205.5,33.7,206.3,34.5z"></path>
	<path d="M227,79.2c-1.1-0.7-2.3-1.5-3.5-2.3c1.1-0.7,1.9-1.4,3-1.8C226.7,76.4,226.9,77.8,227,79.2z"></path>
	<path d="M13.4,54.8c7.5,5.1,15,10.2,22.5,15.2c0.9,0.6,1.2,1.5,1.5,2.3c0.7,1.8,1.8,3.4,2.9,4.9
		c0.5,0.7,0.4,1.1-0.3,1.5c-11.8,7.6-23.6,15.2-35.5,22.7c-0.5,0.3-1.1,0.6-1.6,1c0.2-1.8,0.3-3.7,0.9-5.4C4,97.1,4.2,97,4.4,96.8
		c10.5-6.7,21-13.5,31.4-20.2c0.4-0.2,0.9-0.4,1.1-0.9c-8.3-5.7-16.7-11.3-25-17C12.4,57.5,12.8,56.1,13.4,54.8z"></path>
	<path d="M10.6,62.9c0.4-0.2,0.6,0.1,0.9,0.3c6,4.1,12.1,8.2,18.1,12.3c0.1,0.1,0.2,0.1,0.4,0.2c-3,1.9-5.8,3.7-8.6,5.5
		C16.2,84.6,11,88,5.8,91.3c-0.4,0.2-0.8,0.4-1.2,0.6c0.5-1.9,0.9-3.8,1.4-5.7c5.5-3.5,10.9-7,16.5-10.6c-4.4-3-8.6-5.9-12.9-8.8
		C10,65.6,10.3,64.2,10.6,62.9z"></path>
	<path d="M21.7,41.6c2.8-0.5,5.6-1.4,8.3-2.1c1-0.3,1.2-0.1,1.1,0.9c-0.2,3.1-0.2,3.1-3.2,3.9c-3.2,0.8-6.4,1.7-9.6,2.5
		c-0.4,0.1-0.7,0.3-1,0.1c1.2-1.9,2.4-3.7,4-5.3C21.5,41.8,21.6,41.8,21.7,41.6L21.7,41.6z"></path>
	<path d="M8.9,71.3c2.3,1.2,4.3,2.9,6.6,4.3c-2.8,1.7-5.4,3.4-8.1,5.1C7.9,77.5,8.4,74.4,8.9,71.3z"></path>
	<path d="M31.4,32.5c0.6,1.8,0.2,2.5-1.6,3c-1,0.3-2,0.5-3,0.7C28.4,35,29.7,33.5,31.4,32.5z"></path>
	<path d="M198,115.5c-0.3,0.2-0.5,0.1-0.8,0c-2.2-0.9-4.4-1.9-6.6-2.8c-1.2-0.5-1.8-1-1.6-2.4c0.3-2.2,0.1-2.2,2.2-1.4
		c0.3,0.1,0.6,0.2,1.1,0.4c-0.8-2.6-1.4-5.1-2.2-7.5c-0.6-1.7,0.4-3.1,0.4-4.7c0-0.5,0.7-0.3,1.1-0.3c2.9,0.2,5.8,0.3,8.7,0.5
		c0.3,0,0.6,0,0.9-0.1c0.1,0.1,0.2,0.2,0.4,0.1c0,0-0.1-0.2-0.1-0.3c-2.5-3.4-5.1-6.8-7.7-10.3c4.2-1,8.3-2,12.7-3.1
		c-3.6-2.5-7.1-4.9-10.7-7.3c3.5-2.3,7-4.5,10.7-6.8c-2.1-0.5-4-1.1-5.9-1.5c-1.1-0.2-1.2-0.6-0.9-1.6c0.8-2.3,0.7-2.3,3.1-1.8
		c4.3,1.1,8.5,2.2,13,3.3c-4.5,2.9-8.8,5.6-13.3,8.4c4.3,2.9,8.6,5.8,13,8.8c-5.2,1.3-10.2,2.5-15.4,3.7c3.1,4.1,6.1,8.2,9.4,12.4
		c-2.5-0.1-4.8-0.2-7-0.3c-2.7-0.1-5.4-0.3-8.1-0.4c-0.4,0-0.9-0.1-0.7,0.6C195.2,106.1,196.4,110.9,198,115.5z"></path>
	<path d="M46.2,110.3c-11.5-2.9-22.8-5.8-34.4-8.7C22,95.1,32,88.6,42.2,82.1c0.3,1.4,0.4,2.6,0.7,3.8
		c0.2,0.8-0.5,0.9-0.8,1.1c-5.3,3.4-10.5,6.8-15.8,10.2c-1.3,0.9-2.7,1.7-4.2,2.7c2.6,0.7,4.9,1.2,7.2,1.8c5,1.3,10,2.5,15,3.8
		c0.9,0.2,1.3,0.7,1.3,1.5C45.4,108.1,45.9,109.1,46.2,110.3z"></path>
	<path d="M15.7,51.6c3.8-1,7.4-2,11-2.9c1.2-0.3,2.5-0.7,3.7-1c0.4-0.1,0.7-0.2,0.7,0.4c0.1,1,0.2,1.9,0.3,2.8
		c0.1,0.6-0.1,0.8-0.7,1c-1.7,0.4-3.4,0.9-5.3,1.4c2.3,1.6,4.4,3,6.6,4.5c0.6,0.4,1,0.9,1.2,1.7c0.4,1.6,0.9,3.2,1.4,5
		C28.3,60.2,22.1,56,15.7,51.6z"></path>
	<path d="M31.8,98.3c4.1-2.6,7.9-5.1,11.9-7.7c0.4,1.4,0.5,2.8,0.5,4.1c0,0.6-0.5,0.7-0.8,0.9c-0.4,0.3-0.8,0.5-1.2,0.8
		c0,0.1,0.1,0.2,0.1,0.2c0.6,0.3,1.7,0.1,1.9,0.8c0.5,1.2,0.9,2.4,0.9,3.7c0,0.3-0.1,0.5-0.5,0.4C40.4,100.5,36.2,99.5,31.8,98.3z"></path>
	<path d="M201.3,62.5c0.6-2.8,1.3-5.6,1.9-8.4c0.4-2.1,0.5-2.1,2.7-2.2c1.2-0.1,2.4-0.2,3.7-0.3
		C206.8,55.3,204,58.9,201.3,62.5z"></path>
	<path d="M209.5,115.2c-0.1-0.7-0.3-1.3-0.5-2.1c3.6,0.2,7,0.4,10.5,0.6c0.2,0,0.4,0,0.5,0.2c-3.2,0.8-6.5,1.4-9.9,1.4
		C210,115.3,209.8,115.3,209.5,115.2z"></path>
</g>
<path d="M201.5,97.1c0,0.1,0.1,0.2,0.1,0.3c-0.1,0.1-0.3,0.1-0.4-0.1C201.4,97.2,201.4,97.2,201.5,97.1z"></path>
</svg>
