<!--?xml version="1.0" encoding="utf-8"?-->
<!-- Generator: Adobe Illustrator 24.2.3, SVG Export Plug-In . SVG Version: 6.00 Build 0)  -->
<svg version="1.1" id="Camada_1" xmlns="http://www.w3.org/2000/svg" xmlns:xlink="http://www.w3.org/1999/xlink" x="0px" y="0px" viewBox="0 0 229 418" style="enable-background:new 0 0 229 418;" xml:space="preserve">
<style type="text/css">
	.st0{fill:#FD0202;}
	.st1{fill:#008A7C;}
</style>
<g onclick="select(this)" class="" id="estampa-primaria" fill="#343434">
	<path d="M43.2,120.4c-0.2-1.9-0.3-3.8-0.5-5.7c-0.2-1.5-0.4-1.6-1.9-1.3c-1.1,0.2-2.1,0.4-3.2,0.6c-3.7,0.7-7.5,0.4-11.2,0.4
		c-6.5,0-12.9-0.6-19.2-2.1c-2-0.5-4-1.1-6-1.7c1-4.8,1.7-9.7,2.3-14.5c0.9-6.3,1.9-12.6,2.6-18.9c0.8-6.7,1.9-13.3,4-19.7
		c2.9-8.9,7.8-16.5,15.2-22.4c1.1-0.9,2-2.2,3.3-2.9c3.6-1.9,7.3-3.7,11-5.3c10-4.1,20-8.2,29.5-13.4c2-1.1,4-2.1,5.5-3.9
		c0.8-1,2.1-1.6,3.5-1.6c-1.7,0.9-2,2.4-1.7,4.1c0.4,2.1,1.1,4.2,2.3,6c5.9,8.6,14.3,13.9,24.1,17.1c2,0.7,4.2,1.1,6.6,1
		c-0.8-1.3-1.7-2.3-2.7-3.3c-4.4-4.6-9.3-8.5-14.3-12.4c-2.5-2-4.7-4.2-6.7-6.7c-1-1.2-1.7-2.5-2.3-3.9c-0.3-0.7-0.2-1,0.6-0.9
		c3.5,0.4,7.1,0.7,10.6,1c7.9,0.6,15.8,1.4,23.8,1c6.3-0.4,12.5-0.7,18.8-1.2c2.3-0.2,4.5-0.3,7-0.5c-0.4,0.8-0.6,1.4-1,2
		c-1.2,2.3-2.9,4.2-4.7,6.1c-2.9,3-6.4,5.2-9.5,7.8c-3.5,3-7.1,5.9-10,9.5c-0.4,0.5-0.9,1-1,1.8c1-0.1,2,0,2.9-0.2
		c5.1-0.9,9.7-3.1,14.1-5.6c3.3-1.9,6.4-4.2,9.1-6.8c3.1-3,5.5-6.4,6.6-10.6c0.6-2.2,0-4.3-1.7-4.7c1.9-0.3,3.1,0.9,4.2,2.2
		c0.3,0.4,0.7,0.7,1.1,1c8.9,5.9,18.8,9.6,28.5,13.7c5.1,2.1,10,4.4,15.1,6.6c0.3,0.1,0.6,0.3,0.8,0.5c12,8.5,19.2,20.2,21.4,34.6
		c1.7,11.3,4.7,22.4,6.2,33.7c0.4,2.7,0.8,5.3,1.2,7.9c-0.4,0-0.8,0.1-1.2,0.2c-5.3,2.4-10.8,3.4-16.5,4.2c-4.9,0.7-9.8,1.4-14.8,1
		c-3-0.2-6.1,0-9.1-0.7c-0.4-0.1-1-0.3-1.1,0.5c-0.1,2.1-1,4.2-0.7,6.4c-0.4,0.8-0.3,1.7-0.4,2.6c-1,8.4-1.7,16.8-1.7,25.2
		c0,2.2,0.1,4.4,0.5,6.6c0.4,1.9,0,3.8-0.2,5.7c-0.2,2.1-0.2,4.2-0.1,6.3c0.1,2.2-0.1,4.3-0.2,6.5c-0.1,2.8-0.1,5.7,0.1,8.5
		c0.1,1.7,0.1,3.4-0.1,5c-0.3,3,0.2,5.9,0.8,8.8c1.7,7.3,1.5,14.8,0.4,22.2c-0.3,2.1-0.4,4.2,0.3,6.4c1.8,5.5,1.8,11.1,0.9,16.7
		c-0.2,1.4-0.2,2.7,0.1,4c0.9,3.8,0.5,7.7,0.7,11.6c0.3,6,0.7,12,1.4,17.9c0.3,2,0.2,4.1,0.3,6.1c0,1.8-0.3,2.3-2.1,2.8
		c-3,0.9-6,1.1-9.1,1.5c-7.7,0.8-15.5,0.9-23.2,1c-11.2,0.2-22.5,0.7-33.7,0.8c-12.5,0.2-24.9-0.8-37.4-0.8
		c-8.4,0-16.8-0.1-25.2-0.7c-4.1-0.3-8.3-0.8-12.4-1.7c-0.3-0.1-0.5-0.1-0.8-0.2c-3-0.8-3.3-1.2-3.2-4.2c0.5-7.8,1-15.7,1.6-23.5
		c0.1-2,0.3-4.1,0.2-6.1c0-1.8,0-3.6,0.4-5.4c0.4-2.2,0.5-4.4,0.1-6.7c-0.4-2.5-0.1-5,0.4-7.5c0.2-1.1,0.2-2.1,0.1-3.2
		c-0.3-4.5-1-8.9-0.8-13.4c0.2-4.4,1.2-8.6,2.7-12.7c0.4-1,0.6-2,0.4-3c-0.2-1.2-0.2-2.5,0.1-3.7c0.3-1.7,0.2-3.3,0.1-5
		c-0.2-3.3-0.2-6.6-0.2-9.9c-0.1-12.9,0-25.8-0.1-38.7c0-5.2-1-10.3-1.5-15.5C43.6,122.9,43.7,121.6,43.2,120.4z"></path>
</g>
<g onclick="select(this)" class="" id="gola-primaria" fill="#343434">
	<path d="M149.2,8.3c1.7,0.5,2.3,2.5,1.7,4.7c-1.2,4.2-3.5,7.7-6.6,10.6c-2.7,2.6-5.8,4.9-9.1,6.8
		c-4.4,2.6-9,4.7-14.1,5.6c-1,0.2-1.9,0.1-2.9,0.2c0.1-0.8,0.6-1.3,1-1.8c2.9-3.6,6.4-6.5,10-9.5c3.2-2.6,6.6-4.9,9.5-7.8
		c1.8-1.8,3.4-3.8,4.7-6.1c0.3-0.6,0.6-1.3,1-2c-2.4,0.2-4.7,0.3-7,0.5c-6.3,0.5-12.5,0.9-18.8,1.2c-8,0.5-15.9-0.4-23.8-1
		c-3.5-0.3-7.1-0.6-10.6-1c-0.9-0.1-0.9,0.2-0.6,0.9c0.6,1.4,1.3,2.7,2.3,3.9c2,2.5,4.2,4.7,6.7,6.7c5,3.9,9.9,7.8,14.3,12.4
		c1,1,1.8,2,2.7,3.3c-2.4,0.2-4.5-0.3-6.6-1C93,31.9,84.7,26.7,78.7,18c-1.2-1.8-1.9-3.8-2.3-6c-0.3-1.7,0-3.2,1.7-4.1
		c0.5,0,0.9-0.3,1.3-0.6c0.9-0.9,2-1.7,2.7-2.7c2-2.9,5-3.6,8.2-3.9c3.1-0.3,6.1,0.1,9.2,0c4.4-0.1,8.8,0,13.2-0.1
		c7.9-0.2,15.8,0,23.7,0c0.9,0,1.8,0.2,2.7,0.3c2.2,0.3,4.2,1.2,5.6,3.1C146,5.8,147.4,7.3,149.2,8.3z"></path>
</g>
<g onclick="select(this)" class="" id="detalhe-punho" fill="#000000">
	<path d="M0.2,114.4c0.6-1.2,0.4-2.7,0.9-3.9c2,0.6,4,1.2,6,1.7c6.3,1.6,12.7,2.1,19.2,2.1c3.7,0,7.5,0.3,11.2-0.4
		c1.1-0.2,2.1-0.4,3.2-0.6c1.5-0.3,1.7-0.2,1.9,1.3c0.2,1.9,0.3,3.8,0.5,5.7c-0.9,0.7-2,1-3.1,1.2c-2.5,0.5-5,0.8-7.6,0.8
		c-7,0.1-14,0-20.9-1.2c-3-0.6-6-1.1-8.9-2.1c-0.8-0.3-1.6-0.6-2.4-1C0.2,116.8,0.2,115.6,0.2,114.4z"></path>
	<path d="M184.6,120.1c-0.3-2.2,0.6-4.2,0.7-6.4c0-0.8,0.7-0.6,1.1-0.5c3,0.7,6,0.5,9.1,0.7c5,0.3,9.9-0.3,14.8-1
		c5.7-0.8,11.3-1.9,16.5-4.2c0.4-0.2,0.8-0.3,1.2-0.2c1.1,2.3,1.2,4.8,1.1,7.4c0,0.7-0.8,0.8-1.3,1c-2.9,1.1-5.8,1.9-8.8,2.6
		c-8.7,2.3-17.6,2.8-26.6,2.3c-2.1-0.1-4.1-0.3-6.1-0.9C185.5,120.7,185,120.6,184.6,120.1z"></path>
</g>
<g onclick="select(this)" class="" id="estampa-secundaria" fill="#000000">
	<path d="M183.1,132.9c0.3,1.4-0.2,2.8-0.2,4.2c-1,0.1-1.8-0.8-2.9-0.9c-0.7,6.5-1.3,12.9-2,19.6
		c-5.2-5-10.3-9.9-15.4-14.8c-3.2,6.3-6.3,12.5-9.5,18.8c-2.9-5.9-5.7-11.7-8.5-17.5c-0.3-0.6-0.4-0.9-1.1-0.3
		c-3.5,3.3-7,6.4-10.5,9.7c-1.5,1.4-3,2.8-4.6,4.2c-0.5-6.9-0.9-13.6-1.3-20.4c-6.7,2.8-13.3,5.5-20,8.3c1.8-6.2,3.6-12.2,5.4-18.2
		c0.3-0.9,0.2-1.1-0.8-1c-1.6,0.2-3.2,0.3-4.8,0.4c-5.3,0.4-10.5,0.9-16,1.3c0.3-0.4,0.5-0.7,0.7-1c3.8-5,7.6-10.1,11.4-15.1
		c0.6-0.8,0.6-1-0.4-1.3c-3.7-0.9-7.4-1.8-11.2-2.8c-2.9-0.8-5.9-1.5-9.1-2.3c6.2-3.9,12.1-7.8,18.1-11.6c-5.9-4-11.6-7.9-17.6-11.9
		c7-1.8,13.7-3.6,20.6-5.4c-4.2-5.5-8.3-10.9-12.4-16.4c0.5,0,0.7,0,0.9,0c6.7,0.5,13.4,1,20.1,1.6c0.7,0.1,1,0,0.7-0.8
		c-0.6-1.7-1.1-3.4-1.7-5.1c-1.4-4.5-2.8-9-4.3-13.5c0.1,0,0.1-0.1,0.2-0.2c6.7,2.9,13.3,5.8,20,8.8c0.3-1.3,0.3-2.5,0.3-3.6
		c0.2-3.9,0.7-7.8,0.7-11.8l0,0c0.2,0.1,0.2-0.1,0.3-0.2c1.3-0.5,2.6-1.1,3.8-1.8c2.8,2.4,5.3,5.1,8,7.6c1.4,1.3,2.7,2.6,4.1,4
		c2.9-6.1,6-11.9,8.6-18c0.8,0.3,1.4,0.8,1.8,1.6c0.4,1,1,1.9,1.4,2.9c2.2,4.4,4.4,8.8,6.6,13.2c0.4-0.4,0.8-0.7,1.1-1
		c2.7-2.5,5.4-4.9,8-7.4c0.5-0.5,0.9-0.6,1.6-0.3c1.5,0.5,3,1,4.5,1.4c0.8,0.2,1,0.6,1,1.3c0.4,4,0.8,8,1.2,12.1
		c6.5-2.9,12.9-5.7,19.5-8.7c-1.8,6.5-3.6,12.8-5.4,19.2c7.5-0.6,14.9-1.1,22.5-1.7c-4.4,5.7-8.6,11.2-12.9,16.9
		c6.4,1.6,12.6,3.1,18.8,4.7c0.3,0.8,0.6,1.6,0.5,2.5c-5.3,3.3-10.6,6.7-16,10.1c6,4.1,11.8,8,17.8,12.1c-7.1,1.7-14,3.4-21,5
		c0.8,1.1,1.5,2,2.2,3c0.2,0.3,0.7,0.5,0.4,1c-1.3,0-2.7,0.2-4,0.3c-0.2-0.1-0.4-0.1-0.5-0.2c-1.7-2.2-3.3-4.4-5.1-6.7
		c6-1.4,11.9-2.9,18-4.3c-5.2-3.5-10.1-6.9-15.2-10.3c5.2-3.3,10.4-6.6,15.6-10c-6.3-1.6-12.4-3.1-18.6-4.7
		c3.7-4.9,7.4-9.6,11.1-14.5c-0.8,0-1.4,0.1-1.9,0.1c-5.5,0.4-11,0.8-16.4,1.3c-0.7,0.1-0.8-0.2-0.6-0.8c0.4-1.3,0.8-2.6,1.1-3.9
		c1.1-3.8,2.1-7.7,3.3-11.7c-0.5,0.2-0.9,0.3-1.2,0.5c-4.9,2.2-9.7,4.3-14.6,6.5c-0.8,0.4-1,0.2-1.1-0.6c-0.3-3.6-0.7-7.2-1-10.8
		c-0.2-1.9-0.4-3.8-0.6-5.9c-0.5,0.4-0.8,0.7-1.1,0.9c-3.8,3.6-7.7,7.1-11.5,10.7c-0.6,0.5-0.8,0.7-1.3-0.2c-1.4-3-3-6-4.5-9
		c-1-2-2-4-3.1-6.2c-2.7,5.6-5.4,11-8.1,16.5c-4.5-4.3-8.9-8.6-13.3-12.9c-0.1,0.2-0.2,0.3-0.2,0.3c-0.3,5.1-0.7,10.3-1,15.4
		c-0.1,2.4-0.1,2.4-2.2,1.4c-0.3-0.1-0.6-0.3-0.9-0.4c-4.8-2.1-9.5-4.2-14.5-6.4c1.8,5.7,3.6,11.3,5.4,16.9
		c-6.4-0.5-12.6-1-18.9-1.4c3.6,4.8,7.1,9.4,10.7,14c-5.9,1.6-11.7,3.1-17.8,4.7c5.2,3.5,10.1,6.9,15.2,10.3
		c-5.1,3.3-10.1,6.5-15.3,9.8c6.2,1.6,12.1,3,18.1,4.6c-3.7,4.9-7.3,9.7-11,14.7c6.4-0.5,12.5-1,18.7-1.6c-1.7,5.7-3.3,11.2-5,16.8
		c5.9-2.4,11.5-4.8,17.3-7.2c0.4,5.9,0.8,11.7,1.2,17.6c4.6-4.3,9.1-8.3,13.6-12.5c2.6,5.3,5.1,10.6,7.8,16c2.9-5.6,5.6-11,8.4-16.4
		c4.5,4.3,8.8,8.5,13.3,12.8c0.1-0.4,0.1-0.6,0.2-0.8c0.5-5,1.1-10.1,1.5-15.1c0.1-0.9,0.3-1,1.1-0.6
		C179.3,131.4,181.2,132.1,183.1,132.9z"></path>
	<path d="M182.6,182.3c-5.2-5-10.4-9.9-15.7-15c-4.7,9.3-9.4,18.5-14.2,27.9c-4.5-9.2-8.9-18.4-13.4-27.6
		c-8.1,7.5-16.2,14.9-24.4,22.5c-0.2-2.2-0.3-4.3-0.4-6.4c-0.4-6.8-0.9-13.5-1.4-20.3c-0.1-1.1-0.2-2.3-0.2-3.5c0-0.9-0.3-0.9-1-0.6
		c-5.3,2.2-10.6,4.4-15.9,6.6c-4.1,1.7-8.1,3.4-12.2,5.1c-0.4,0.2-0.8,0.4-1.3,0.4c2.8-9.5,5.7-19,8.5-28.7
		c-11.4,0.9-22.7,1.9-34.3,2.9c6.7-8.9,13.2-17.6,19.8-26.3c-11.4-2.9-22.6-5.7-34.1-8.6c9.7-6.3,19.3-12.4,29-18.6
		C62.4,86,53.6,80,44.6,73.9c10.7-2.8,21.1-5.6,31.7-8.4c-6.5-8.6-12.9-17-19.5-25.7c2.3,0.2,4.5,0.3,6.6,0.5
		c8.8,0.7,17.5,1.3,26.2,2c1,0.1,1.1-0.1,0.8-1c-1.7-5-3.2-9.9-4.8-14.9c-0.1-0.2-0.2-0.4-0.1-0.7c1.8,1.3,3.5,2.5,5.3,3.8
		c1.8,5.5,3.5,10.9,5.3,16.4c0.2,0.7,0.5,1.1-0.7,1c-3.2-0.3-6.4-0.5-9.5-0.8c-5.1-0.4-10.3-0.8-15.4-1.2c-1.6-0.1-3.1-0.2-4.9-0.3
		c6,7.9,11.8,15.5,17.7,23.3c-9.6,2.5-19.2,5.1-28.9,7.6c8.2,5.6,16.2,11,24.4,16.6c-8.7,5.6-17.3,11.2-26.2,16.8
		c10.4,2.6,20.5,5.2,30.8,7.8c-6,8-11.9,15.9-18,23.9c2.9-0.2,5.6-0.5,8.3-0.7c7.3-0.6,14.7-1.2,22.1-1.9c0.9-0.1,0.8,0.2,0.6,0.8
		c-1.8,6-3.6,11.9-5.3,17.9c-0.7,2.5-1.5,5-2.3,7.7c9.3-3.9,18.5-7.7,27.7-11.5c0.6,9.5,1.2,18.8,1.9,28.3
		c7.5-6.9,14.8-13.6,22.2-20.4c4.1,8.4,8.2,16.8,12.3,25.3c1.4-2.7,2.6-5.2,3.9-7.7c2.9-5.6,5.8-11.3,8.6-17
		c0.4-0.9,0.7-0.7,1.2-0.2c0.9,1,1.9,1.8,2.8,2.8c4.3,4.1,8.6,8.3,13,12.4C182.4,178.4,182.5,180.4,182.6,182.3z"></path>
	<path d="M183.6,129.1c-2.1-0.5-3.9-1.5-5.9-2.3c-1.1-0.4-2.1-0.8-3.1-1.3c-0.9-0.4-1-0.1-1.1,0.7
		c-0.4,4.4-0.9,8.8-1.3,13.3c-1.2-0.8-2.1-1.9-3.1-2.8c-2.6-2.4-5.1-4.9-7.7-7.4c-0.6-0.6-0.9-0.8-1.4,0.2
		c-2.2,4.5-4.5,8.9-6.8,13.4c-2.3-4.7-4.5-9.3-6.8-13.9c-3.9,3.6-7.7,7.1-11.7,10.7c-0.4-5.2-0.7-10.1-1-15.3c-5,2.1-9.8,4.1-15,6.2
		c1.5-5,2.9-9.8,4.3-14.7c-5.3,0.4-10.5,0.9-15.9,1.3c3.2-4.3,6.3-8.4,9.5-12.6c-5.1-1.3-10.1-2.5-15.3-3.9
		c4.4-2.8,8.6-5.5,12.9-8.3c-4.4-3-8.7-5.9-13.2-9c5.2-1.4,10.2-2.7,15.3-4.1c-3-4-5.9-7.8-9.1-12c2.2,0.2,4.2,0.3,6.1,0.4
		c3.1,0.2,6.3,0.5,9.4,0.8c0.9,0.1,0.6-0.5,0.4-0.9c-1.3-4.2-2.7-8.4-4-12.5c-0.1-0.3-0.2-0.5-0.3-1c1.1,0.5,1.9,0.8,2.8,1.2
		c3.7,1.6,7.4,3.3,11,4.9c0.9,0.4,1,0.2,1.1-0.7c0.3-4.6,0.6-9.2,0.9-13.8c0-0.2,0.1-0.3,0.1-0.7c3.9,3.7,7.6,7.4,11.5,11.1
		c2.4-4.8,4.7-9.6,7.1-14.5c2.4,4.8,4.7,9.4,7.1,14c3.8-3.6,7.6-7.1,11.6-10.7c0.2,2.2,0.4,4.1,0.6,6.1c0.3,2.8,0.6,5.6,0.8,8.5
		c0.1,0.8,0.2,1.1,1.1,0.7c4-1.8,8.1-3.6,12.1-5.4c0.4-0.2,0.7-0.4,1.2-0.4c-1.2,4.3-2.4,8.5-3.6,12.8c-0.4,1.2,0.1,1.2,1,1.1
		c4.9-0.4,9.8-0.8,14.9-1.1c-2.2,2.8-4.2,5.5-6.3,8.2c-0.9,1.2-1.8,2.4-2.7,3.5c-0.5,0.6-0.6,0.9,0.3,1.1c4.7,1.1,9.4,2.3,14.1,3.5
		c0.2,0.1,0.4,0.1,0.7,0.2c-4.5,2.8-8.8,5.6-13.2,8.4c4.3,2.9,8.5,5.8,13,8.8c-5.2,1.3-10.2,2.5-15.4,3.7c1.6,2.1,3,4,4.5,5.9
		c0.6,0.9,1.3,1.7,1.9,2.6c0.2,0.2,0.4,0.4,0.2,0.7c-3.9-0.3-7.8,0.1-11.6-0.9c-0.5-0.1-0.7,0.2-0.8,0.6c-0.3,2.1-0.7,4.3-0.3,6.4
		c-0.6,0.8-0.4,1.7-0.5,2.6C184,124.9,183.8,127,183.6,129.1z M124.7,124.2c4.1-1.7,8.2-3.3,12.3-5c0.3,4.3,0.6,8.4,0.9,12.8
		c3.3-3,6.5-5.9,9.7-8.9c1.9,4,3.8,7.8,5.7,11.8c2.1-4.2,4.2-8.2,6.3-12.3c3.3,3.2,6.5,6.2,9.8,9.4c0.1-0.4,0.1-0.5,0.1-0.6
		c0.4-3.5,0.7-7,1-10.5c0.1-0.7,0.2-0.9,0.9-0.6c0.9,0.4,1.8,0.8,2.8,1.2c2.9,1.2,5.8,2.4,8.9,3.7c-1.3-4.3-2.5-8.4-3.7-12.7
		c4.4,0.2,8.7,0.4,13.2,0.7c-2.7-3.7-5.3-7.1-8-10.6c4.3-1,8.4-2,12.7-3.1c-3.7-2.5-7.1-4.9-10.7-7.3c3.6-2.3,7-4.5,10.7-6.8
		c-4.4-1.1-8.5-2.2-12.8-3.2c2.7-3.5,5.3-6.9,8-10.4c-4.5,0.3-8.9,0.7-13.3,1c1.1-3.9,2.2-7.7,3.3-11.7c-4.1,1.8-7.9,3.5-11.8,5.2
		c-0.4-4.5-0.9-8.8-1.3-13.4c-3.4,3.1-6.5,6-9.8,9.1c-2-3.9-3.9-7.8-5.9-11.8c-2.1,4.2-4.1,8.3-6.1,12.5c-3.2-3-6.2-6-9.5-9.2
		c-0.3,4.5-0.6,8.7-0.9,13.1c-4-1.8-8-3.5-12.1-5.3c1.3,4.1,2.6,8,3.8,11.9c-4.5-0.3-8.9-0.7-13.5-1c2,2.6,3.8,4.9,5.5,7.2
		c0.6,0.8,1.2,1.7,1.8,2.5c-0.9,0.6-2,0.7-3,0.9c-3.1,0.8-6.2,1.7-9.6,2.5c3.8,2.6,7.4,5,11.1,7.5c-3.5,2.3-6.9,4.4-10.4,6.7
		c4.3,1.1,8.3,2.1,12.3,3.1c-2.6,3.5-5.2,6.9-7.8,10.5c4.5-0.4,8.7-0.7,13.1-1.1c-0.2,0.7-0.4,1.3-0.5,1.8
		C126.6,117.2,125.4,120.6,124.7,124.2c-0.1,0-0.2,0-0.2,0.1C124.5,124.3,124.6,124.3,124.7,124.2z"></path>
	<path d="M182.6,171.1c-1.4-0.8-2.4-2.1-3.5-3.2c-4.7-4.5-9.4-9-14.1-13.5c-0.1-0.1-0.1-0.1-0.3-0.1
		c-3.9,7.7-7.8,15.4-11.8,23.2c-3.8-7.7-7.5-15.3-11.2-23c-6.7,6.1-13.3,12.2-20.1,18.5c-0.1-2.1-0.3-3.9-0.4-5.7
		c-0.4-6.4-0.8-12.9-1.2-19.3c-0.1-1.1-0.7-0.4-0.9-0.3c-3.9,1.6-7.8,3.3-11.7,4.9c-4.1,1.7-8.3,3.4-12.6,5.2c0.6-2,1.1-3.8,1.7-5.7
		c1.7-5.8,3.4-11.6,5.2-17.4c0.2-0.8,0.3-1-0.7-0.9c-8.9,0.8-17.8,1.5-26.7,2.3c-0.1,0-0.1-0.1-0.3-0.1c5.4-7.2,10.8-14.3,16.2-21.5
		c-9.2-2.3-18.3-4.6-27.4-6.9c0-0.5,0.4-0.5,0.6-0.6c7.1-4.6,14.3-9.2,21.5-13.8c1.2-0.8,1.2-0.8,0.1-1.5
		c-6.8-4.6-13.6-9.2-20.3-13.8c-0.2-0.1-0.5-0.2-0.5-0.5c8.6-2.3,17.2-4.5,25.9-6.8c-5.3-7-10.6-13.9-16-21.1
		c9.4,0.7,18.6,1.4,27.9,2.1c-1.9-5.9-3.8-11.7-5.6-17.4c-0.2-0.5-0.4-1-0.4-1.5c1.6,0.7,3.2,1.3,4.7,2c0.1,0.1,0,0.3,0.3,0.2l0,0
		c-0.2,0.4,0.1,0.8,0.2,1.1c1,3.2,2.1,6.4,3.1,9.6c1.1,3.5,2.2,7,3.4,10.6C99.1,55.3,91,54.6,82.6,54c4.8,6.4,9.5,12.5,14.2,18.7
		c-7.8,2.1-15.4,4.1-23.3,6.2c6.7,4.6,13.2,9,19.8,13.4c-6.9,4.4-13.7,8.8-20.7,13.3c8.3,2.1,16.3,4.1,24.5,6.2
		c-4.9,6.5-9.6,12.8-14.5,19.3c8.4-0.7,16.6-1.4,24.9-2.1c-2.2,7.3-4.3,14.4-6.4,21.6c7.6-3.2,15-6.3,22.5-9.4
		c0.5,7.7,1,15.3,1.5,23c6.1-5.6,11.9-11,17.9-16.4c3.4,6.9,6.7,13.7,10,20.6c0.2-0.4,0.4-0.7,0.5-1c3.3-6.4,6.5-12.8,9.7-19.2
		c0.3-0.6,0.5-0.8,1.1-0.2c3.8,3.7,7.7,7.4,11.5,11.1c1.6,1.6,3.3,3.2,5.1,4.9c0.3-3.3,0.6-6.3,1-9.4c0.1-1,0.1-2.1,0.5-3.1
		c0.4,1.6,0.9,3.1,0.7,4.8C182.6,161.3,182.7,166.2,182.6,171.1z"></path>
	<path d="M42.7,114.8c8.8,2.2,17.5,4.4,26.2,6.6c1,0.3,0.5,0.6,0.2,1c-6.8,9.1-13.6,18.1-20.5,27.2
		c-0.1,0.1-0.3,0.3-0.2,0.6c12.3-1,24.7-2.1,37.2-3.1c-3.1,10.4-6.1,20.7-9.3,31.3c11.1-4.6,22-9.2,33-13.7
		c0.7,11.3,1.5,22.4,2.2,33.7c2.2-2,4.3-3.9,6.3-5.8c6.5-6,13-11.9,19.4-17.9c0.7-0.6,0.8-0.4,1.2,0.3c4.2,8.7,8.4,17.4,12.7,26
		c0.4,0.9,0.9,1.8,1.5,2.9c5.1-10.1,10.2-20,15.3-30c4.9,4.6,9.6,9.2,14.4,13.7c0,2.1,0.1,4.1,0.5,6.2c-4.6-4.4-9.1-8.8-13.8-13.2
		c-5.5,10.9-11,21.6-16.5,32.4c-0.9-1.9-1.8-3.6-2.6-5.4c-4.2-8.7-8.5-17.4-12.7-26c-0.3-0.6-0.4-0.9-1.1-0.3
		c-6.7,6.2-13.4,12.3-20.1,18.5c-2.6,2.4-5.2,4.8-7.9,7.3c-0.1-0.6-0.1-1-0.1-1.4c-0.2-3.1-0.4-6.2-0.6-9.3
		c-0.5-8.1-1.1-16.3-1.6-24.4c-0.1-1.1-0.4-1.1-1.2-0.7c-11,4.6-22.1,9.2-33.2,13.8c-0.4,0.2-0.7,0.4-1.3,0.4
		c3.3-11.2,6.6-22.3,9.9-33.5c-4.3,0.4-8.4,0.7-12.5,1c-7.4,0.6-14.9,1.2-22.3,1.8c0-2.5,0-4.9,0.1-7.4c4-5.3,8-10.6,12.1-15.9
		c1.8-2.3,3.5-4.7,5.3-7.1c-1.6-0.4-3.1-0.8-4.6-1.2c-5-1.3-10.1-2.5-15.1-3.8C43,117.8,42.9,116.3,42.7,114.8z"></path>
	<path d="M184.3,211.5c-0.2,1.7-0.3,3.3-0.5,5c-1.2-0.6-1.9-1.6-2.9-2.5c-2.5-2.4-5-4.8-7.6-7.3
		c-7,13.9-14,27.6-21.1,41.5c-0.4-0.9-0.8-1.5-1.1-2.2c-6.2-12.7-12.4-25.5-18.5-38.2c-0.4-0.9-0.7-1.1-1.5-0.4
		c-9.7,9-19.4,17.9-29.2,26.9c-2.4,2.2-4.8,4.4-7.3,6.7c-0.1-1.6-0.2-3.1-0.3-4.6c-0.4-6.6-0.8-13.3-1.3-19.9
		c-0.5-7.2-1-14.4-1.4-21.6c-0.1-1-0.3-0.9-1.1-0.6c-11.1,4.7-22.3,9.3-33.4,13.9c-3.8,1.6-7.7,3.2-11.7,4.9
		c4.3-14.5,8.6-28.9,12.9-43.4c-4.4,0.4-8.6,0.7-12.8,1.1c-0.1-1.3-0.2-2.7-0.2-4c1.6-0.4,3.3-0.4,5-0.5c4.5-0.4,9-0.8,13.6-1.2
		c-4,13.6-8.1,27.2-12.1,40.9c5-2.1,9.7-4,14.5-6c9.3-3.9,18.7-7.8,28-11.7c0.8-0.3,1-0.4,1.1,0.6c0.2,3.1,0.4,6.3,0.7,9.4
		c0.7,10.1,1.3,20.1,1.9,30.2c0.1,1.2,0.1,2.3,0.4,3.6c1.4-1.3,2.7-2.5,4.1-3.7c10.1-9.3,20.2-18.6,30.3-27.9c0.6-0.5,0.8-0.4,1,0.2
		c0.1,0.3,0.3,0.5,0.4,0.7c4.4,9.1,8.9,18.2,13.3,27.3c1.6,3.4,3.3,6.8,4.9,10.2c0.1-0.1,0.2-0.1,0.3-0.1c5.1-10,10.1-20,15.2-30
		c1.4-2.7,2.8-5.5,4.1-8.2c0.3-0.6,0.5-0.7,1-0.1c0.7,0.8,1.5,1.4,2.2,2.2C178.2,205.6,181.2,208.6,184.3,211.5z"></path>
	<path d="M45.3,162.7c-0.2-1.4-0.2-2.8,0.1-4.2c2.8-0.2,5.7-0.4,8.5-0.7c6.6-0.6,13.2-1.1,19.8-1.7
		c0.8-0.1,1.2-0.1,0.8,0.9c-2.6,8.6-5.1,17.1-7.6,25.7c-0.9,3-1.8,6.1-2.8,9.4c12.8-5.4,25.4-10.6,38.2-15.9c0.9,13,1.7,25.9,2.6,39
		c10.4-9.5,20.6-18.9,30.8-28.4c5.6,11.5,11.2,22.9,16.8,34.6c5.9-11.6,11.7-23.1,17.8-35c1.1,1.3,1.9,2.4,2.9,3.4
		c3.6,3.5,7.2,6.9,10.8,10.4c0.3,2,0.4,3.9,0.5,5.9c-0.3-0.2-0.6-0.4-0.9-0.6c-3.9-3.8-7.8-7.5-11.7-11.3c-0.7-0.7-0.9-0.4-1.2,0.3
		c-5.1,10.1-10.3,20.3-15.4,30.4c-0.9,1.9-1.9,3.7-2.9,5.7c-1.8-3.7-3.6-7.3-5.3-10.8c-4-8.3-8-16.6-12.1-24.9
		c-0.3-0.6-0.4-1.6-1.4-0.5c-9.9,9.2-19.9,18.4-29.9,27.6c-0.7,0.7-1.4,1.5-2.3,1.9c-0.4-5.5-0.7-10.8-1.1-16.2
		c-0.5-8.1-1.1-16.3-1.6-24.4c-0.1-1.1-0.5-0.8-1.1-0.6c-11,4.6-22,9.2-32.9,13.7c-2.3,0.9-4.5,1.9-6.9,2.9
		c3.8-12.9,7.6-25.7,11.4-38.5C61.1,161.4,53.2,162.1,45.3,162.7z"></path>
	<path d="M42.7,231.6c0.2-1,0.3-2.1,0.5-3.1c-0.2-1.5,1-1.8,2-2.3c11.3-4.7,22.7-9.4,34-14.2c0.6-0.2,1.1-0.6,1.8-0.6
		c1.2,18.3,2.4,36.5,3.6,54.8c0.3-0.2,0.4-0.2,0.5-0.3c5.6-5.2,11.2-10.3,16.8-15.5c8.6-7.9,17.1-15.7,25.6-23.6
		c0.8-0.7,1-0.5,1.4,0.3c2.2,4.5,4.4,9,6.6,13.6c5.3,10.9,10.6,21.8,15.9,32.7c0.2,0.3,0.2,0.7,0.6,1c0.1-0.1,0.2-0.2,0.2-0.3
		c7.9-15.6,15.9-31.3,23.8-46.9c0.4-0.8,0.6-0.7,1.2-0.2c2.7,2.6,5.4,5.2,8.1,7.8c-0.1,1.7-0.3,3.3-0.4,5c-0.3,0-0.5-0.3-0.7-0.4
		c-2.2-2.1-4.4-4.2-6.6-6.4c-8.6,16.9-17.1,33.7-25.7,50.6c-8.3-17.1-16.5-33.9-24.8-50.9c-15.3,14.1-30.6,28.1-46,42.3
		c-0.4-5.2-0.7-10.1-1-15c-0.4-6.6-0.8-13.3-1.3-19.9c-0.5-7.2-1-14.5-1.4-21.7c-0.1-0.9-0.2-1.1-1.1-0.7c-9.5,4-19.1,8-28.6,11.9
		C46.2,230.3,44.5,231.2,42.7,231.6z"></path>
	<path d="M42.5,218.7c6.4-2.7,12.9-5.4,19.3-8.1c8.3-3.5,16.7-6.9,25-10.4c0.8-0.3,1.3-0.7,1.4,0.7
		c0.2,4.7,0.6,9.5,0.9,14.2c0.5,7.6,1,15.2,1.5,22.8c0.3,3.7,0.5,7.5,0.7,11.5c1.6-1.4,3-2.7,4.4-4c11.4-10.5,22.9-21,34.3-31.6
		c0.7-0.6,0.9-0.5,1.3,0.3c4.1,8.5,8.2,16.9,12.3,25.4c2.7,5.6,5.5,11.2,8.2,16.8c0.1,0.2,0.2,0.3,0.4,0.6c1.2-2.4,2.4-4.6,3.5-6.9
		c6.1-12,12.2-24,18.3-36.1c0.5-1.1,0.9-0.4,1.2,0c2.7,2.6,5.4,5.1,8.1,7.7c0.8,2.2,1.3,4.4,1.8,6.6c-0.1,0.1-0.1,0.1,0,0.2
		c0,0.1-0.1,0.3-0.1,0.4c-3.1-3-6.3-6-9.4-9.1c-7.8,15.4-15.6,30.6-23.4,46.1c-0.2-0.3-0.3-0.5-0.3-0.6c-3.2-6.5-6.4-13-9.6-19.6
		c-4.1-8.3-8.1-16.6-12.1-25c-0.2-0.5-0.3-1.3-1.2-0.4c-11.9,11-23.8,21.9-35.8,32.9c-1.7,1.6-3.4,3.1-5.3,4.8
		c-1.2-17.6-2.3-34.9-3.4-52.4C70.6,211.5,56.8,217.2,43,223c0-0.1,0-0.1-0.1-0.2c0.1-0.4,0.1-0.7-0.1-1
		C42.7,220.7,42.6,219.7,42.5,218.7z"></path>
	<path d="M42.7,236c4.4-1.8,8.8-3.6,13.2-5.4c5.7-2.4,11.3-4.7,17-7.1c0.9-0.4,1.1-0.3,1.2,0.8
		c0.5,8.3,1.1,16.5,1.6,24.8c0.6,8.4,1.1,16.8,1.7,25.2c0.2,3,0.4,6,0.7,9.2c1.3-1.2,2.5-2.2,3.7-3.3c14.6-13.4,29.2-26.9,43.8-40.3
		c0.7-0.6,0.8-0.3,1.1,0.3c3.9,8.1,7.8,16.2,11.7,24.2c3.3,6.7,6.6,13.5,9.9,20.2c0.2,0.4,0.6,0.8,0.4,1.3c-1.4,0-2.8,0-4.2,0
		c-2.3-4.8-4.7-9.6-7-14.4c-4-8.2-8-16.5-12-24.7c-0.4-0.8-0.7-0.8-1.2-0.2c-0.1,0.1-0.3,0.3-0.4,0.4c-9.5,8.7-19,17.5-28.5,26.2
		c-4.5,4.1-8.9,8.3-13.4,12.4c-2.5,0-5,0-7.5,0c-0.1-1.7-0.3-3.3-0.4-5c-0.5-7.3-1-14.5-1.4-21.8c-0.6-9.1-1.1-18.1-1.7-27.2
		c-0.1-0.8,0.1-1.7-0.4-2.5c-0.2,0.1-0.3,0.1-0.5,0.2c-8.3,3.4-16.5,6.9-24.7,10.3c-1.8,0.7-1.8,0.8-2.2-1.1c0-0.2,0-0.5-0.1-0.7
		c0.1-0.5,0-0.9-0.2-1.4C42.6,236.3,42.7,236.1,42.7,236z"></path>
	<path d="M7.8,66.8c13.5-3.5,26.9-7.1,40.4-10.6c1-0.3,0.8-0.6,0.3-1.1c-3.9-5.1-7.8-10.2-11.7-15.4
		c-0.1-0.2-0.2-0.3-0.4-0.6c1.3-0.4,2.5-0.7,3.7-1.1c0.6-0.2,0.7,0.3,0.9,0.6c4.1,5.4,8.2,10.8,12.3,16.2c0.9,1.1,1.7,2.3,2.7,3.6
		c-13.3,3.5-26.5,7-40,10.5c11.3,7.7,22.3,15.2,33.6,22.8c-2.7,1.7-5.3,3.4-7.8,5.1c-8.5,5.5-17.1,11-25.6,16.5
		c-0.2,0.2-0.4,0.3-0.7,0.5c-2.1,0.1-4.1-0.6-6.1-1.1c0.2-0.1,0.5-0.3,0.7-0.4c9.6-6.2,19.3-12.4,28.9-18.6c1-0.7,2-1.3,3.1-2
		c-4.6-3.1-9.1-6.2-13.5-9.2c-7.1-4.8-14.1-9.6-21.2-14.4C7.5,67.7,7.6,67.2,7.8,66.8z"></path>
	<path d="M87.6,285.8c-0.2-0.5,0.2-0.6,0.4-0.9c11.7-10.8,23.5-21.6,35.2-32.4c0.1-0.1,0.2-0.1,0.4-0.3
		c0.6,1.2,1.2,2.4,1.7,3.5c4.7,9.6,9.4,19.3,14.1,28.9c0.2,0.4,0.4,0.8,0.5,1.2c-0.1,0-0.2,0.1-0.3,0.1c-0.5-0.1-1-0.1-1.4,0
		c-0.9,0-1.7,0-2.6,0c-0.3-0.7-0.7-1.4-1-2c-3.9-8.1-7.8-16.1-11.7-24.2c-0.4-0.8-0.6-0.9-1.3-0.2c-2,1.9-4,3.8-6.1,5.6
		c-7.5,6.9-15,13.8-22.5,20.7C91.3,285.8,89.4,285.8,87.6,285.8z"></path>
	<path d="M42.4,245c6.7-2.8,13.3-5.6,20-8.4c1.5-0.6,3-1.3,4.6-1.9c0.3,4.3,0.5,8.4,0.8,12.6c0.5,7.7,1.1,15.5,1.6,23.2
		c0.3,5,0.6,10,0.9,15c-0.1,0-0.2,0-0.3,0c-0.6-0.2-1.1-0.2-1.7,0c-0.6,0-1.3-0.1-1.9-0.1c-1-14.9-2-29.7-3-44.7
		c-7.1,2.9-14,5.8-21.1,8.8c0-1.3,0-2.5,0-3.6C42.3,245.5,42.3,245.2,42.4,245z"></path>
	<path d="M6.7,72.4c2.8,1.6,5.5,3.6,8.2,5.4c6.5,4.4,13,8.8,19.5,13.2c0.2,0.2,0.4,0.3,0.7,0.5
		c-5.8,3.7-11.6,7.4-17.4,11.2c-4.1,2.6-8.1,5.2-12.2,7.8c-0.3,0.2-0.7,0.4-1,0.6c-1.2,0.2-2-0.6-3-1c-0.1-0.7-0.1-1.4,0.2-2.1
		c0.2-0.1,0.4-0.2,0.5-0.3c7.6-4.9,15.2-9.8,22.8-14.7c0.9-0.6,1.7-1.1,2.6-1.7c-7.3-4.9-14.4-9.7-21.5-14.5
		C6.3,75.4,6.4,73.9,6.7,72.4z"></path>
	<path d="M155.5,285.6c0.9-2.5,2.3-4.8,3.5-7.2c4.8-9.6,9.7-19.1,14.6-28.6c1.7-3.4,3.5-6.8,5.2-10.3
		c2.1,2,4.2,3.9,6.3,5.9c0.2,1,0.4,2.1,0.5,3.1c-0.1,0.9,0,1.7,0.1,2.6c0,0.2,0,0.3,0,0.5c-2.1-1.6-3.7-3.6-5.8-5.3
		c-3.4,6.6-6.7,13.2-10.1,19.8c-3.3,6.5-6.7,13-10,19.6C158.4,285.6,156.9,285.6,155.5,285.6z"></path>
	<path d="M42.1,253.8c5.6-2.3,11.2-4.7,16.8-7c0.9-0.4,1-0.2,1.1,0.7c0.5,8.6,1.1,17.3,1.7,25.9
		c0.2,3.5,0.4,7.1,0.7,10.6c0.1,1-0.2,1.4-1.2,1.3c-0.9-0.1-1.9-0.1-2.8-0.2c-0.3-3.5-0.5-6.9-0.8-10.4c-0.5-7-0.9-14-1.3-21
		c-0.1-1.4-0.1-1.4-1.4-0.8c-4.3,1.8-8.7,3.6-13.1,5.5c0-0.4-0.1-0.7-0.1-1C41.8,256.1,42,254.9,42.1,253.8z"></path>
	<path d="M27.1,33.4c1.9,1.8,2.2,4.2,2.9,6.5c0.4,1.5,0.4,1.5,1.7,0.9c0.6-0.3,1-0.2,1.4,0.4C36,45.1,39,49.1,42,52.9
		c0.7,0.9-0.1,0.8-0.5,1c-10.1,2.7-20.2,5.3-30.4,8c-0.8,0.2-1.6,0.6-2.4,0.5c0.4-1.5,0.8-3.1,1.4-4.5c4.8-1.3,9.6-2.5,14.5-3.8
		c3.6-1,7.3-1.9,11-2.9c-1-1.3-1.9-2.6-2.9-3.8c-2.9-3.7-5.7-7.5-8.6-11.2C24.9,35.1,26.1,34.4,27.1,33.4z"></path>
	<path d="M99.1,286c-0.2-0.5,0.2-0.6,0.4-0.9c6.9-6.4,13.9-12.8,20.8-19.2c0.6-0.5,0.9-0.8,1.3,0.2
		c3,6.3,6.1,12.5,9.1,18.8c0.2,0.4,0.3,0.7,0.5,1.1c-0.1,0-0.2,0.1-0.3,0.1c-0.7-0.1-1.4-0.1-2.1,0c-0.6,0-1.2,0-1.8,0
		c-2.2-4.4-4.4-8.9-6.5-13.3c-0.4-0.9-0.7-1-1.4-0.3c-2.2,2.1-4.5,4.1-6.8,6.3c-2.5,2.4-5.2,4.6-7.6,7.1C102.9,286,101,286,99.1,286
		z"></path>
	<path d="M164.3,285.4c3-6,6-11.9,9-17.8c2.5-4.9,5-9.9,7.6-15c1.6,1.5,3.2,3,4.7,4.5c0.1,1.7,0.3,3.3,0.4,5
		c-0.1,0.2-0.1,0.4,0.1,0.5c0,0.1,0,0.2,0,0.3c-1.6-0.9-2.6-2.5-4.1-3.6c-4.4,8.6-8.7,17.2-13.1,25.8
		C167.4,285.5,165.9,285.3,164.3,285.4z"></path>
	<path d="M41.3,262.9c3.6-1.5,7.2-3.1,10.8-4.6c0.5-0.2,0.7-0.1,0.7,0.5c0.3,5,0.6,10,1,15c0.2,3.2,0.4,6.4,0.7,9.6
		c0,0.4,0,0.8,0,1.2c-1.4,0-2.7-0.1-4-0.5c-0.4-6.7-0.8-13.4-1.3-20.2c-2.4,1-4.7,1.9-6.9,2.9c-0.8,0.4-1.3,0.4-1.1-0.7
		c0.1-0.7,0-1.4,0.1-2.1C41.3,263.6,41.3,263.3,41.3,262.9z"></path>
	<path d="M5.6,81.4c0.2,0.1,0.4,0,0.6,0.1c4.8,3.2,9.6,6.5,14.5,9.8c-2,1.3-3.8,2.5-5.7,3.7c-4.1,2.6-8.2,5.2-12.3,7.8
		c0.2-1.8,0.4-3.6,0.8-5.3c3.2-2,6.5-4.1,9.8-6.2c-2.8-1.9-5.5-3.8-8.2-5.6C5.2,84.3,5.4,82.8,5.6,81.4z"></path>
	<path d="M216.7,54.2c-4.2,0.3-8.5,0.7-12.7,1c-1.2,0.1-2.4,0.1-3.6,0.3c-0.9,0.1-1.1,0-0.8-1
		c1.6-5.6,3.2-11.3,4.8-16.9c0.1-0.2,0.1-0.5,0.1-0.7c1.4,0.8,2.4,2,3.4,3.1c-1,3.6-2,7.2-3.1,10.9c1.4-0.1,2.6-0.2,3.9-0.3
		c2.1-0.2,4.1-0.2,6.1-0.5C215.7,51.4,216.3,52.8,216.7,54.2z"></path>
	<path d="M21.3,38.8c2.5,3.3,5,6.6,7.5,10c-3.5,0.9-7,1.8-10.4,2.8c-2.2,0.6-4.5,1.1-6.7,1.7c0.7-1.7,1.4-3.4,2.4-4.9
		c0.1,0,0.3,0,0.3-0.2l0,0c2.6-0.4,4.9-1.3,7.6-1.8c-1.3-1.6-2.4-3-3.5-4.4C19.2,40.7,20.1,39.6,21.3,38.8z"></path>
	<path d="M173.5,284.9c1.1-2.7,2.6-5.2,3.9-7.8c1.7-3.4,3.4-6.7,5.1-10.1c0.7-1.3,0.7-1.3,1.8-0.3
		c0.8,0.7,1.5,1.4,2.3,2.1c0.2,2,0.5,4.1,0.7,6.1c-1.2-0.5-1.8-1.8-3-2.5c-2,4-4,7.9-6,11.9C176.7,284.7,175.1,284.8,173.5,284.9z"></path>
	<path d="M45.4,174.8c2.5-0.2,5-0.4,7.7-0.6c-2.4,8.2-4.8,16.3-7.2,24.4c-0.5-0.3-0.2-0.8-0.4-1
		c0.1-4.1,0.3-8.3,0.2-12.4c0.6-2,1.3-4.1,1.9-6.1c-0.7-0.3-1.4,0.1-2.1,0c0-0.1,0-0.3-0.1-0.4c0.1-0.4,0.2-0.8,0-1.1
		c0-0.3-0.1-0.7-0.1-1c0.1-0.4,0.1-0.8,0-1.2C45.3,175.1,45.4,174.9,45.4,174.8z"></path>
	<path d="M43.7,123.4c4.1,1.1,8.3,2.1,12.5,3.2c-2.9,3.8-5.7,7.5-8.5,11.2c-0.8,1-1.3,2.1-2.4,2.9c0-0.6,0-1.1,0-1.7
		c0.1-0.5,0.1-1-0.1-1.4c0-0.6-0.1-1.1-0.1-1.7c-0.1-0.9,0.3-1.6,0.9-2.4c1.1-1.4,2.2-2.9,3.3-4.4c-1.8-0.5-3.4-0.9-5-1.4
		C44,126.3,43.5,124.8,43.7,123.4z"></path>
	<path d="M226.7,100.8c-1.9-0.9-3.6-2.3-5.3-3.4c-2.4-1.6-4.8-3.2-7.2-4.9c3.2-2,6.3-4,9.5-6c0.1-0.1,0.3,0,0.5,0
		c0.1,1.4,0.9,2.7,0.7,4.2c-1,0.6-2,1.2-3.2,1.9c1.5,1,2.9,1.9,4.2,2.8C226.1,97.2,226.4,99,226.7,100.8z"></path>
	<path d="M221.7,75.6c-3.7-0.9-7.5-1.8-11.4-2.8c2.9-3.8,5.8-7.5,8.6-11.2c0.1-0.1,0.2,0,0.3-0.1c0.4,1.6,0.7,3.2,1,4.8
		c-0.9,1.3-1.9,2.6-2.9,4c1.3,0.3,2.5,0.6,3.7,0.9C221.5,72.6,221.7,74.1,221.7,75.6z"></path>
	<path d="M40.8,271.7c1.4-0.6,2.7-1.1,4.1-1.7c0.7-0.3,0.9-0.1,0.9,0.5c0.3,4.4,0.5,8.8,0.8,13.1
		c-1.5-0.1-2.8-0.5-4.1-1.1c0-2.3-0.2-4.5-0.4-6.8c-0.5,0.2-0.9,0.4-1.3,0.5c-0.3-0.3,0.2-0.8-0.3-1C40.1,274,40.8,272.9,40.8,271.7
		z"></path>
	<path d="M110.2,286.5c0.3-0.9,1.1-1.3,1.8-1.9c2.1-1.9,4.2-3.9,6.2-5.8c0.3-0.3,0.6-0.7,0.9,0c1.2,2.5,2.3,5,3.5,7.5
		c-0.2,0-0.3,0.1-0.5,0.1c-0.5-0.1-1-0.1-1.4,0.1c-1.1-0.2-2.3,0.5-3.2-0.6c-0.1-0.1-0.5-0.1-0.6,0c-1.2,1.2-2.7,0.6-4.1,0.7
		C112,286.6,111.1,286.5,110.2,286.5z"></path>
	<path d="M211.7,112.6c-0.5,0-0.9-0.1-1.2-0.7c5.8-1.4,11.5-2.7,17.2-4.1c0.1,0.2,0.1,0.4-0.2,0.6
		c-1.7,0.3-3.1,1.2-4.7,1.7c-2.7,0.8-5.4,1.4-8.1,2C213.8,112.3,212.8,112.4,211.7,112.6z"></path>
	<path d="M182.9,283.7c0.8-1.6,1.5-3.2,2.4-4.9c0.9,1,2.3,1.5,2,3.1C186.1,283.4,184.4,283.4,182.9,283.7z"></path>
	<path d="M202.4,35.3c-1.3,0.6-2.7,1.1-4.2,1.7c0.4-1.6,0.9-3.1,0.8-4.7C200.2,33.2,201.4,34.1,202.4,35.3z"></path>
	<path d="M23.3,114.2c-0.2-0.1-0.4-0.2-0.7-0.4c11.4-7.3,22.8-14.7,34.3-22C46.3,84.7,36,77.7,25.5,70.6
		C38,67.3,50.3,64,62.7,60.7c-6.1-8-12.1-15.9-18.1-23.9c1.3-0.3,2.5-0.6,3.7-1c0.7-0.2,0.8,0.3,1.1,0.6c3.1,4.1,6.2,8.1,9.3,12.2
		c3.5,4.6,7,9.2,10.5,13.8c0.1,0.2,0.4,0.3,0.3,0.7c-11.3,3-22.6,6-34.2,9c9.7,6.6,19.3,13.1,29,19.7c-10.5,6.8-20.9,13.4-31.6,20.3
		c2.3,0.6,4.4,1.1,6.4,1.5c-1.8,0.7-3.8,0.8-5.7,0.8C29.9,114.7,26.6,114.7,23.3,114.2z"></path>
	<path d="M51,35.2c3.1-1,6.2-2.2,9.3-3.1c1.5-0.4,3,0.1,4.5,0.2c4.8,0.3,9.7,0.7,14.7,1.1c-0.9-2.7-1.6-5.4-2.7-7.9
		c-0.4-0.9-0.3-1.3,0.5-1.8c2.3-1.5,2.3-1.5,3.3,1c1.8,4.3,3.1,8.7,4.6,13.3c-11.5-0.9-22.8-1.7-34.2-2.6C51,35.3,51,35.3,51,35.2z"></path>
	<path d="M68.9,28.5c1.5-0.8,2.8-1.5,4.1-2.2c0.4-0.2,0.6-0.3,0.8,0.2c0.1,0.5,0.4,0.9,0.5,1.3c0.1,0.6,0.1,1.2-0.9,1
		C71.9,28.7,70.5,28.9,68.9,28.5z"></path>
	<path d="M117.9,36.5c1.9,0.5,3.5-0.7,5.2-1c0.2,0,0.4-0.3,0.7-0.2c0.6,0.8,0.2,1.7,0.1,2.5c-0.1,1.9-0.3,3.8-0.4,5.8
		c-0.7-0.3-1.4-0.6-2.1-0.9c-4.6-2-9.2-4-13.8-6.1c-0.6-0.3-1.2-0.6-1.8-0.9c1.1,0.2,2.3,0.3,3.4,0.4c0.2,0.1,0.5,0.1,0.7,0.2
		C112.7,36.9,115.3,36.8,117.9,36.5z"></path>
	<path d="M135.9,30.1c1-0.7,2.1-1.5,3.1-2.2c0.9,0.4,1.4,1.2,2,1.8c0.6,0.5,0.9,0.8,1.3-0.2c1-2.4,2.3-4.6,3.6-6.9
		c0.4-0.6,0.6-0.8,1.4-0.4c2.1,1.3,2.2,1.2,1.3,3.4c-1.5,3.8-3.6,7.3-5.3,11c-0.1,0.3-0.3,0.6-0.6,0.3
		C140.5,34.6,138,32.6,135.9,30.1z"></path>
	<path d="M182.7,37.4c3,0.8,5.9,1.6,9.1,2.5c-2.9,1.3-5.4,2.4-7.9,3.5c-0.8,0.4-0.6-0.4-0.6-0.7
		C183,41,182.9,39.3,182.7,37.4z"></path>
	<path d="M160.3,29.8c2.6,1,5.1,2.1,7.9,3.2c-1.5,1.4-2.9,2.7-4.4,4.2C162.7,34.5,161.1,32.4,160.3,29.8
		C160.3,29.7,160.3,29.8,160.3,29.8z"></path>
	<path d="M135.3,77.6c-0.9-2.8-1.8-5.5-2.7-8.5c2.8,1.2,5.3,2.3,7.8,3.4c1.4,0.6,1.4,0.6,1.5-0.9c0.2-2.6,0.3-5.2,0.5-8
		c2.4,2.3,4.7,4.6,7.1,6.8c1.4-2.9,2.8-5.7,4.2-8.6c1.3,2.6,2.5,5,3.7,7.4c0.4,0.8,0.6,1.1,1.4,0.3c1.9-1.9,4-3.7,6.1-5.7
		c0.2,1.5,0.3,2.8,0.4,4.2c0.1,1.3,0.3,2.6,0.4,3.9c0.1,0.8,0.1,1.2,1.1,0.7c2.5-1.2,5-2.3,7.7-3.5c-0.8,2.9-1.6,5.7-2.4,8.6
		c3.3-0.2,6.6-0.5,10-0.7c-2,2.6-3.8,5-5.8,7.6c3.2,0.8,6.4,1.6,9.7,2.5c-2.8,1.8-5.5,3.5-8.2,5.2c2.6,1.8,5.2,3.5,7.9,5.4
		c-3.2,0.8-6.3,1.5-9.4,2.3c1.8,2.4,3.6,4.8,5.6,7.4c-3-0.2-5.7-0.3-8.4-0.4c-1.3-0.1-1.3-0.1-0.9,1.2c0.8,2.5,1.5,5,2.3,7.8
		c-2.8-1.1-5.3-2.2-7.8-3.2c-1.3-0.5-1.3-0.5-1.4,0.9c-0.2,2.4-0.5,4.8-0.8,7.4c-2.2-2.1-4.3-4.1-6.3-6.1c-0.6-0.6-0.8-0.5-1.1,0.2
		c-1.3,2.6-2.6,5.1-3.9,7.8c-1.2-2.5-2.5-4.9-3.6-7.3c-0.4-1-0.7-0.9-1.4-0.2c-2,1.9-4,3.7-6.2,5.7c-0.2-2.5-0.3-4.7-0.5-7
		c-0.1-2.3-0.1-2.3-2.2-1.4c-2.2,0.9-4.4,1.8-6.6,2.8c-0.1,0-0.1,0-0.3,0c0.8-2.6,1.4-5.2,2.3-7.7c0.3-0.9,0.1-0.9-0.8-0.9
		c-2.9,0.3-5.7,0.5-8.8,0.7c1.7-2.3,3.3-4.4,4.9-6.5c0.9-1.2,0.9-1.2-0.5-1.5c-2.6-0.6-5.3-1.3-8.1-2c2.7-1.8,5.3-3.4,8-5.2
		c-2.6-1.8-5.2-3.5-7.9-5.4c3.2-0.8,6.2-1.6,9.3-2.5c-1.8-2.4-3.6-4.8-5.5-7.3c3.3,0.2,6.4,0.4,9.5,0.6c0.1,0,0.2,0.1,0.3,0.1
		C135.3,77.8,135.3,77.7,135.3,77.6z M137.5,74.6c0-0.1-0.1-0.1-0.1-0.1c0,0,0,0.1,0,0.1C137.4,74.6,137.5,74.6,137.5,74.6
		c0.3,2.2,1.4,4.3,1.9,6.6c-2.5-0.2-5-0.3-7.6-0.5c1.1,1.4,2.1,2.7,3,4c1.3,1.7,1.3,1.7-0.8,2.2c-1.7,0.4-3.3,0.9-5.2,1.4
		c2.2,1.5,4.2,2.8,6.3,4.3c-2,1.3-3.9,2.6-6,3.9c2.5,0.6,4.8,1.2,7.1,1.8c-1.5,2-2.9,3.9-4.5,6c2.7-0.2,5-0.4,7.5-0.6
		c-0.7,2.3-1.3,4.6-2.1,7c2.2-0.9,4.1-1.7,6-2.5c0.8-0.3,1.2-0.4,1.2,0.7c0,2,0.3,4,0.4,6.1c1.7-1.6,3.3-2.9,4.8-4.4
		c0.6-0.6,0.8-0.5,1.1,0.2c0.9,1.9,1.8,3.7,2.8,5.8c1.2-2.4,2.4-4.6,3.5-6.9c1.9,1.8,3.6,3.5,5.5,5.3c0.2-2.1,0.5-3.9,0.6-5.8
		c0.1-1,0.3-1.1,1.1-0.7c1.9,0.9,3.9,1.6,6.1,2.5c-0.7-2.5-1.4-4.8-2.1-7.1c2.6,0.1,4.9,0.3,7.5,0.4c-1.5-2-2.9-3.9-4.5-6
		c2.4-0.6,4.7-1.2,7.2-1.8c-2.1-1.5-4.1-2.8-6.1-4.2c2.1-1.3,4-2.6,6.2-3.9c-2.6-0.7-4.9-1.3-7.4-1.9c1.5-2,3-3.9,4.5-5.9
		c-2.4,0.2-4.5,0.3-6.6,0.5c-0.7,0.1-1-0.1-0.7-0.9c0.6-1.8,1-3.7,1.6-5.7c-2.1,0.9-4,1.8-5.9,2.6c-0.6,0.3-0.9,0.4-1-0.6
		c-0.1-2.1-0.4-4.3-0.6-6.6c-1.9,1.8-3.7,3.4-5.5,5.1c-1.1-2.2-2.2-4.4-3.4-6.7c-1.2,2.4-2.3,4.7-3.4,6.9c-0.2,0.1-0.4,0.3-0.6,0.4
		c-1.6-1.9-3.2-3.7-4.9-5.8c-0.2,2.4-0.4,4.4-0.4,6.3c0,1.4-0.5,1.2-1.4,0.8C141.2,76.2,139.4,75.2,137.5,74.6z"></path>
	<path d="M143.5,100.3c-1.7,0.1-3.3,0.3-5.2,0.4c1.1-1.5,2.1-2.8,3.1-4.2c-1.6-0.4-3.2-0.8-5-1.3
		c1.5-0.9,2.8-1.8,4.2-2.7c-1.4-1-2.8-1.9-4.4-3c1.8-0.5,3.4-0.9,5.1-1.4c-1-1.3-1.9-2.6-3-4c1.7,0.1,3.2,0.2,4.6,0.4
		c0.6,0.1,0.8-0.2,0.6-0.7c-0.4-1.2-0.8-2.5-1.3-4c1.8,0.8,3.3,1.4,4.9,2.1c0.1-1.7,0.2-3.3,0.4-5.1c1.2,0.8,2.1,1.8,3,2.8
		c0.8,0.8,1,0.6,1.4-0.3c0.6-1.3,1.2-2.5,1.9-3.8c0.8,1.6,1.6,3.1,2.4,4.7c1.3-1.2,2.5-2.3,3.9-3.6c0.2,1.6,0.3,3,0.4,4.4
		c0,0.7,0.3,0.8,0.9,0.5c1.3-0.6,2.5-1.1,4-1.8c-0.4,1.6-0.9,3.1-1.3,4.7c1.8-0.1,3.4-0.2,5.3-0.4c-1.1,1.4-2.1,2.8-3.2,4.2
		c1.7,0.4,3.4,0.9,5.2,1.3c-1.5,1-2.9,1.8-4.3,2.8c1.4,1,2.8,1.9,4.3,2.9c-1.8,0.4-3.4,0.8-5.1,1.3c1,1.4,2,2.7,3.1,4.2
		c-1.6-0.1-3-0.2-4.3-0.3c-0.7-0.1-1,0.1-0.7,0.9c0.5,1.3,0.8,2.6,1.2,4.1c-1.4-0.6-2.7-1.1-3.9-1.6c-0.8-0.4-1.2-0.4-1.2,0.7
		c0,1.2-0.2,2.3-0.4,3.7c-1.2-1.1-2.3-2.1-3.3-3.2c-0.5-0.6-0.8-0.5-1.1,0.2c-0.6,1.3-1.3,2.6-2.1,4.1c-0.8-1.6-1.5-3.1-2.3-4.7
		c-1.3,1.2-2.5,2.3-3.9,3.6c-0.1-1.5-0.2-2.8-0.2-4.1c0-0.9-0.3-1-1.1-0.7c-1.3,0.6-2.6,1.1-4,1.7
		C142.5,103.5,143,101.9,143.5,100.3z"></path>
</g>
</svg>
