<!--?xml version="1.0" encoding="utf-8"?-->
<!-- Generator: Adobe Illustrator 25.0.1, SVG Export Plug-In . SVG Version: 6.00 Build 0)  -->
<svg version="1.1" id="Camada_1" xmlns="http://www.w3.org/2000/svg" xmlns:xlink="http://www.w3.org/1999/xlink" x="0px" y="0px" viewBox="0 0 229 418" enable-background="new 0 0 229 418" xml:space="preserve">
<g onclick="select(this)" class="" id="estampa-primaria" fill="#ffff00">
	<path d="M228.9600067,116.093399c-6.8571014,2.7822495-14.0121155,4.3370743-21.3362427,5.2273712
		c-6.1868591,0.7520599-12.368454,0.6976852-18.5519867,0.0140381c-1.5454559-0.1708679-3.0968781-0.3538818-4.5782013-1.2677536
		c-0.2199554,2.0793762-0.4086456,4.0580902-0.6417084,6.0315781c-0.8538513,7.2303009-1.2928009,14.4857788-1.360672,21.7647858
		c-0.0205078,2.2003937,0.0623932,4.3856812,0.517807,6.556076c0.4091797,1.9500275-0.1010284,3.8995209-0.1977386,5.8493652
		c-0.0355988,0.717926-0.1707764,1.4362183-0.1483612,2.1508484c0.2055359,6.549881-0.5930634,13.0964661-0.0467377,19.6483002
		c0.1228333,1.4733582,0.0373993,2.9524689-0.128479,4.4282837c-0.3486176,3.1020355,0.1955414,6.1179047,0.8783569,9.133194
		c1.6395416,7.239975,1.3817749,14.5227966,0.3444061,21.8104858c-0.3048859,2.1419525-0.3785248,4.2077332,0.3238068,6.355957
		c1.7737885,5.4254761,1.8165588,11.0054626,0.943222,16.6040192c-0.2310028,1.4808197-0.2509308,2.9245453,0.0898895,4.3920746
		c0.8876038,3.8216553,0.4447784,7.7210388,0.6464539,11.5834961c0.308197,5.9023438,0.6915741,11.8015137,1.4323425,17.6740112
		c0.2583313,2.0479736,0.224884,4.1368713,0.2556305,6.2081604c0.0256958,1.7302551-0.3531799,2.2260742-2.0658417,2.7414246
		c-3.0054626,0.9043579-6.1238403,1.1594543-9.2250977,1.4795837c-7.6872864,0.7935486-15.4051208,0.8666382-23.123642,1.0108948
		c-11.2354126,0.2099304-22.4668884,0.6517639-33.7026749,0.8135376c-12.4787674,0.179657-24.936409-0.845459-37.4167862-0.8475647
		c-8.3977737-0.0014343-16.797905-0.1000061-25.1787109-0.73526c-4.1492081-0.3144531-8.2847404-0.7519226-12.3537483-1.6697083
		c-0.1560364-0.0351868-0.3138123-0.0631714-0.4689255-0.1018372c-3.3675385-0.8405762-3.729023-1.1849976-3.5259438-4.6595764
		c0.4517288-7.7287292,1.0040855-15.4518127,1.5478287-23.174942c0.1460991-2.0751343,0.2783318-4.1479645,0.2284355-6.2277222
		c-0.0423241-1.7640381,0.0424042-3.5182648,0.3600349-5.2543335c0.4133606-2.2592926,0.4568634-4.5092621,0.1249275-6.7918701
		c-0.3660889-2.5175629-0.0983963-5.0300446,0.4432831-7.5034943c0.2180901-0.9958496,0.195961-1.9692535,0.1215553-2.9723206
		c-0.336792-4.5404205-1.0248642-9.0607758-0.8374214-13.6324158c0.1784706-4.3526611,1.2044525-8.5330353,2.6853447-12.6053009
		c0.3780708-1.0396423,0.6012306-2.0360565,0.4378281-3.144928c-0.1810989-1.2289734-0.1553574-2.4728088,0.0793152-3.7015228
		c0.3182716-1.6664276,0.183197-3.3283997,0.0996132-5.0111847c-0.1621933-3.2655487-0.1713448-6.5402069-0.1846046-9.8113403
		c-0.0524673-12.9395447-0.0425491-25.8795013-0.1395607-38.8186798c-0.038414-5.1238098-0.9970284-10.1758575-1.5123215-15.2630005
		c-0.131218-1.295433-0.3165131-2.5854034-0.4659805-3.7894058c-8.7987175,2.5404205-17.7214336,1.9815598-26.6416473,1.1304092
		c-4.741806-0.452446-9.4219036-1.3161163-13.9765768-2.7638702C1.8316439,118.6739197,0.9756763,118.3496017,0.24,117.772438
		c0-1.0394058,0-2.078804,0-3.1182098c0.3886503-0.0979767,0.2689478-0.4427795,0.3153924-0.6888885
		c0.3441262-1.8235321,0.6675487-3.6509476,1.0076697-5.4752502c1.8599573-9.9762039,2.9367695-20.0686417,4.416398-30.1010056
		C6.8598299,72.419899,7.5262547,66.427742,9.1545849,60.5976868c2.7158356-9.7237396,7.3670483-18.2610435,15.2138138-24.8508644
		c1.1002979-0.9240494,2.1522732-1.908123,3.1921444-2.9004936c0.5942116-0.5670662,1.2593575-1.017168,1.9867916-1.3651505
		c6.4953289-3.1071453,13.1113338-5.9370537,19.7744732-8.6652718c7.6037102-3.1133347,15.0100632-6.6465206,22.1374359-10.7465782
		c1.0358582-0.5958872,1.9914551-1.2535591,2.7835236-2.2022896c0.9345245-1.11936,2.1475449-1.9064846,3.7101288-1.9072599
		c-1.7067108,1.2581644-2.0866776,2.5338135-1.4845581,4.8333817c0.6667633,2.5464602,1.8320389,4.8321848,3.3867264,6.9568338
		c3.3269501,4.5466557,7.7954407,7.7559929,12.4609528,10.7306004c5.872467,3.7441292,12.360321,5.6922989,19.2632141,6.193306
		c5.2147064,0.378479,10.325737-0.3682213,15.2560577-2.1380272c2.6556473-0.9532814,5.1916733-2.1917076,7.64991-3.5758228
		c3.8891907-2.1898117,7.415802-4.8881588,10.5701141-8.0235748c2.838089-2.8211002,5.0895844-6.0975189,5.9576111-10.0776253
		c0.5877533-2.6949081,0.2448578-3.7869673-1.6442871-4.6568136c1.8040009-0.123147,2.9554596,0.9744577,4.0511017,2.1698017
		c0.2662506,0.2904806,0.4252472,0.6620398,0.7931213,0.8793755c3.9738922,2.3477592,7.8823395,4.7979689,12.1107788,6.7028666
		c10.4204865,4.6943989,21.101532,8.7826443,31.4798737,13.5730629c0.6920013,0.3194237,1.3066406,0.724474,1.8821259,1.2149258
		c1.0639801,0.9067917,2.1244659,1.8196297,3.2219086,2.6849899c3.6716614,2.895256,6.8238068,6.2698441,9.3999634,10.1694183
		c4.342453,6.5732765,6.7271576,13.896862,8.2562561,21.5540199c0.9705048,4.8599472,1.1772461,9.8393097,2.3999023,14.6610107
		c1.4536285,5.7324448,2.6221161,11.5251999,3.4730682,17.381134c0.5265961,3.6238251,1.0268097,7.2561493,1.7411194,10.8444443
		c0.1572876,0.7902069-0.1613617,1.8726273,0.7821503,2.458374
		C228.9600067,113.6947784,228.9600067,114.8940887,228.9600067,116.093399z"></path>
	<path d="M144.3056793,9.0716209c-0.8476105,2.2815924-2.0525665,4.1095562-3.492569,5.7695246
		c-6.4125214,7.3919783-14.2939911,12.224164-24.1360626,13.393693c-6.0921783,0.7239323-11.8413162-0.7903843-17.2688675-3.4482021
		c-5.6494904-2.7665043-10.3205185-6.7929859-14.1956177-11.738184c-0.7673187-0.9792147-1.2875595-2.1031981-1.7957001-3.2364836
		c-0.382309-0.8526554-0.112381-1.0213461,0.7168503-0.9401541c3.8547974,0.3774252,7.7088318,0.7718382,11.5699081,1.07374
		c6.369339,0.4980249,12.7413406,1.1686363,19.1342163,1.0081911c8.3439713-0.2094135,16.6710281-0.8258944,24.9881668-1.5415802
		C141.2539825,9.2892904,142.6843262,9.194108,144.3056793,9.0716209z"></path>
</g>
<g onclick="select(this)" class="" id="estampa-secundaria" fill="#000000">
	<path d="M130.9745636,285.9783325c-1.2259674,0.0000305-2.4519348,0.0000305-3.8798065,0.0000305
		c6.0373993-9.8823242,11.9858704-19.6190491,17.9343109-29.3557739c-0.0818329-0.0854492-0.1636963-0.170929-0.2455444-0.2563782
		c-7.6964722,6.0666504-15.3929291,12.1333008-23.0894012,18.1999512c-0.057106-0.0766907-0.114212-0.1533508-0.1713257-0.2300415
		c5.4426422-5.996582,10.8876801-11.9910278,16.3274078-17.9902344
		c13.0416718-14.3829651,26.0805969-28.7683868,39.1212311-43.1522827c2.2002563-2.4269257,4.4009857-4.8534393,6.6083374-7.2739105
		c0.2937164-0.3220825,0.6279755-0.6072693,0.9432983-0.9098663c0.3254089,4.1561584-0.3737793,8.2509155-0.7775879,12.3605957
		c-0.1933136,1.9674377-0.6122437,3.9191437,0.0981293,5.8637543c-4.5593567,6.0377655-9.1188812,12.0752106-13.6724243,18.1171265
		c-0.0237427,0.0315094,0.0367737,0.1264648,0.0787506,0.2558899c1.2059937-0.2273712,2.4150085-0.462326,3.6266937-0.6824188
		c3.760376-0.6829834,7.5217896-1.3603058,11.2827911-2.0398254c-0.0427704,0.2009735-0.0855408,0.4019318-0.1283569,0.6030731
		c-0.2428741,0.2054749-0.4980774,0.397934-0.7268066,0.6178589c-13.4959564,12.9746246-26.9866333,25.9547577-40.486557,38.9252472
		c-2.3853149,2.2917786-4.8083496,4.5443726-7.2139893,6.815033
		C134.7273407,285.8901978,132.8509521,285.9342651,130.9745636,285.9783325z"></path>
	<path d="M143.9687195,186.5298767c-4.8002014,4.3447876-9.5930939,8.6976624-14.401947,13.0328522
		c-15.557579,14.0252686-31.1210175,28.0440063-46.6821747,42.0652618
		c-0.1186295,0.1199036-0.4239883,0.2268219-0.3062134,0.3689423c0.1931686,0.233078,0.3578796-0.0213928,0.48806-0.186615
		c4.1839294-2.4429474,8.3664093-4.8883972,12.5530624-7.3267212c0.8211594-0.4782257,1.6585083-0.9287262,2.4883957-1.3920135
		c0.0530853,0.0597229,0.1056366,0.1199188,0.1576462,0.1805725c-8.4430695,7.2800293-16.8841476,14.5623779-25.3297272,21.8394775
		c-9.7454338,8.3971252-19.4948235,16.7896118-29.3532867,25.279541c4.2245827,1.4446716,8.3520432,2.8561707,12.4794197,4.2677002
		c-4.3413239-0.2597961-8.6515732-0.7651367-12.8600235-1.8896179c-2.7723579-0.7407837-3.0211143-1.1404724-2.9187012-4.0496216
		c0.2566986-7.2919006,0.9897156-14.5514526,1.5149231-21.8246765c8.3610954-5.8080444,16.717514-11.6236572,25.0846901-17.4237518
		c25.2992325-17.5372925,50.6025238-35.0687561,75.9059753-52.6000061c0.2926788-0.2027588,0.6085663-0.3720551,0.91362-0.5569763
		C143.7911987,186.3861237,143.8799591,186.4579926,143.9687195,186.5298767z"></path>
	<path d="M101.1037369,249.5732269c11.4066849-12.1445312,22.8102875-24.2919464,34.2208481-36.4328461
		c12.8886108-13.713501,25.7801514-27.4242096,38.6781158-41.1289368c2.8455505-3.0235443,5.7233582-6.0167847,8.5863342-9.023819
		c0.2596741,4.7112885-0.2981415,9.4146423-0.1587524,14.1212463c0.1228485,4.1476593,0.1728821,8.2905426-0.0192108,12.4362488
		c-0.0592651,1.2794037,0.1165619,2.542099,0.4351807,3.7833252c-10.8729248,8.9673615-21.74617,17.9342804-32.618576,26.9022217
		c-3.2651978,2.6932831-6.5254517,5.3925323-9.796051,8.0792236c-0.3177032,0.2609863-0.5882263,0.7097626-1.2024689,0.4275055
		c3.5726929-4.5478973,7.1413879-9.0761261,10.6937256-13.6171722c3.095932-3.9575958,6.1733856-7.9296417,9.2589722-11.8953094
		c0.0961761-0.0469818,0.2297516-0.1040955,0.1284943-0.2219696c-0.0437775-0.0509644-0.2012634-0.0043793-0.3071136-0.0020905
		c-6.2638855,5.0778046-12.5316162,10.1508942-18.790863,15.2344055
		c-12.7361832,10.3439178-25.4675522,20.6937714-38.2030334,31.0385742
		c-0.2136307,0.1735077-0.454277,0.3138275-0.6822968,0.4696503
		C101.2526016,249.6867371,101.1781693,249.6299591,101.1037369,249.5732269z"></path>
	<path d="M55.5591164,223.1512299c-3.8897934,2.5366821-7.7782631,5.0753937-11.6715622,7.6067047
		c-0.3588791,0.2333069-0.6733208,0.5757599-1.1564865,0.5608063c1.0466957-3.6240997,0.1455116-7.244278-0.0377235-10.8651886
		c-0.0500603-0.9891968-0.1822624-1.9742737-0.2768288-2.9621429c-0.3827286-1.5513611,0.695488-2.1189117,1.7669449-2.8104095
		c13.0803375-8.4414368,26.1411705-16.9130859,39.2090721-25.373764c0.3321457-0.2150421,0.6871109-0.3948822,1.0314255-0.591156
		c0.0756454,0.0591125,0.1512833,0.1181946,0.2269211,0.1772766c-2.7240601,3.6104279-5.4481277,7.2208405-8.1721573,10.8312988
		c-0.0564423,0.0825043-0.1797256,0.2036438-0.1581192,0.240921c0.1078415,0.1862183,0.2392502,0.0642548,0.3591843-0.0121765
		c7.1395645-3.1836548,14.2797546-6.3658905,21.4182892-9.5518494c2.075882-0.9264832,4.1426468-1.8735657,6.2252197-2.7846527
		c0.2944717-0.1288605,0.5901108-0.4659576,1.0871048-0.1181793c-0.6773682,0.5338745-1.3239746,1.047287-1.9745102,1.5556488
		c-16.5232544,12.9123383-33.0468369,25.8242493-49.571373,38.7349243
		c-0.2198639,0.1717987-0.4527359,0.3269653-0.6795387,0.4898834c-0.0607758-0.0680084-0.1215553-0.1360474-0.1823425-0.2040558
		c0.9047356-1.575943,1.8094673-3.151886,2.7141991-4.727829c0.0603485-0.0755768,0.1881981-0.1848145,0.1700325-0.2211761
		C55.7760506,222.9044037,55.6671448,223.0869293,55.5591164,223.1512299z"></path>
	<path d="M164.0867157,285.246521c2.7012024-3.4034119,5.3897247-6.8169556,8.1064758-10.2078857
		c4.2398682-5.2919312,8.4976501-10.569519,12.7528839-15.8491211c0.2463074-0.3055725,0.5378723-0.5747375,0.8083344-0.8608093
		c0.3925171,4.7333069,0.720871,9.4732361,1.2039642,14.1973572c0.2513428,2.4578552,0.419632,4.9129639,0.4720001,7.3782349
		c0.0455627,2.1465759-0.3072357,2.627533-2.3999023,3.2226562c-2.3527222,0.6690979-4.7801056,0.9276428-7.2016449,1.1962585
		C173.2618408,284.829834,168.6841278,285.1872559,164.0867157,285.246521z"></path>
	<path d="M112.4776535,253.9248505c-9.0141068,8.7181854-18.0283737,17.436142-27.04216,26.1546478
		c-1.8362122,1.776062-3.6706161,3.5540161-5.5057373,5.3310547c-5.7720413-0.0140381-11.5447006-0.0028687-17.3100281-0.3583984
		c10.717659-6.7689819,21.4354935-13.5383911,32.153511-20.3075562c5.4957733-3.4708862,10.9913254-6.9421387,16.4890671-10.4099426
		c0.3346024-0.2110443,0.6878433-0.3926086,1.0324097-0.5878754
		C112.35569,253.8061218,112.4166641,253.865509,112.4776535,253.9248505z"></path>
	<path d="M45.835289,191.557373c9.5847015-3.9884491,19.1694031-7.9768982,28.7541046-11.9653168
		c0.0406189,0.0744781,0.0812378,0.1489868,0.1218567,0.2234802c-0.9318466,0.6587524-1.8605423,1.3220215-2.7960587,1.9755402
		c-8.6326447,6.0304413-17.26577,12.0601959-25.9025497,18.0847015c-0.3520851,0.245575-0.6535835,0.5975952-1.1294975,0.6257935
		c0.6759377-1.3491058,0.7618713-2.7519226,0.548893-4.2369232C45.205101,194.6823578,45.5785217,193.1170502,45.835289,191.557373z
		"></path>
	<path d="M128.7404327,57.6914711c-10.878685,9.7044792-21.7573624,19.4089622-32.6360474,29.1134453
		c0.0261993,0.0699234,0.0523987,0.1398544,0.0785904,0.2097702c5.9624023-2.8040237,11.9247894-5.6080551,18.0357056-8.481926
		c-0.1386337,0.9462891-0.6474686,1.4539108-1.203064,1.9471512C99.6225586,92.3694763,86.232338,104.2622452,72.8414688,116.154274
		c-1.4256668,1.2660828-2.8522797,2.5311127-4.4180908,3.9205246c0.4412231-3.2770081,0.8544617-6.3462448,1.2677002-9.4154739
		c-0.0598831-0.029068-0.1197662-0.0581284-0.1796417-0.0871964c-6.9867477,9.6203995-13.9734955,19.2407837-20.9602432,28.8611755
		c-0.0710678-0.0397186-0.1421318-0.0794373-0.2131958-0.1191559c4.9556847-11.9304352,9.911377-23.8608856,14.8864059-35.8378754
		c-0.4938507-0.1768036-0.8520126,0.1391602-1.2230301,0.2864761c-6.1571159,2.4444809-12.3185616,4.8787155-18.4521179,7.3811569
		c-1.0269356,0.4189911-1.2789459,0.2242889-1.3084297-0.8222885c-0.04245-1.5069351-0.9564972-3.1833954-0.3125763-4.4458313
		c0.6346931-1.2443466,2.2028847-2.0172882,3.37183-2.9845886c15.0882874-12.485527,30.1782913-24.9689865,45.2688599-37.4517441
		c0.3858948-0.3192062,0.7831573-0.6246643,1.3668823-0.7468643c-3.0116196,3.5789337-6.0232391,7.1578674-9.0347366,10.7368546
		c-0.0280457,0.0920944-0.0993195,0.2508469-0.0772247,0.2650986c0.1212997,0.0782928,0.1965027,0.0015717,0.228363-0.1245499
		c4.9797974-2.5220261,9.9620819-5.0391541,14.9384003-7.5680389c2.7039261-1.3740921,5.3951187-2.7732239,8.1000519-4.1453094
		c0.2621765-0.1329994,0.5094299-0.4332199,0.9993896-0.1661377c-4.4043121,4.0969086-8.7742462,8.1618423-13.1598511,12.2413483
		c0.5390015,0.357811,0.9234772-0.0839767,1.3243866-0.3024368c10.8295746-5.9007874,21.6542587-11.8105087,32.4816971-17.7151947
		c0.2764587-0.1507645,0.5746155-0.2618217,0.8626404-0.3913956
		C128.6467896,57.5784683,128.6939392,57.6346817,128.7404327,57.6914711z"></path>
	<path d="M123.7098389,99.4206543c4.0814209-1.9322205,8.1628265-3.8644409,12.2442474-5.7966614
		c0.0357208,0.0625305,0.0798035,0.1184769,0.1322784,0.1678314c-4.5627899,4.171051-9.1255569,8.3421097-13.6883392,12.5131607
		c-0.0755692-0.0429382-0.1511307-0.0858765-0.2266998-0.1288147c0.3469849-1.0457306,0.6939774-2.0914612,1.1439743-3.4476395
		c-3.7748718,2.2652283-7.3267517,4.3966522-10.8786316,6.5280762c-0.0434647-0.0482178-0.0891724-0.0942078-0.1371307-0.1379623
		c0.371994-1.16922,0.743988-2.3384399,1.1242142-3.5335236c-0.3652954-0.2405777-0.6423798,0.1234207-0.9268112,0.2558899
		c-2.7487488,1.2800522-5.4809189,2.5956421-8.2281265,3.8790436c-0.3408127,0.1592178-0.6396637,0.505249-1.0881042,0.3625183
		l0.0267868,0.0202713c1.559021-3.0006332,3.4806976-5.7847061,5.1973267-8.6912537
		c0.4360886-0.7383881,0.889122-1.4667816,1.5015335-2.4749603c-7.7107849,3.9539948-15.1423035,7.7647781-22.5738144,11.5755692
		c-0.0450592-0.0892868-0.0901184-0.1785736-0.1351776-0.2678604
		c18.1424332-14.7014771,36.2848663-29.4029617,54.4273148-44.1044464c0.0757294,0.0688629,0.1514587,0.1377258,0.2271881,0.2065887
		c-6.9436798,8.8083954-13.8873596,17.6167831-20.8310318,26.4251785c0.0949554,0.1008377,0.1899033,0.2016754,0.2848663,0.3025208
		c6.0044479-4.6849747,12.0089035-9.3699493,18.0133438-14.0549316c0.0559998,0.0610809,0.1119995,0.1221619,0.1679993,0.1832428
		c-2.8806915,3.6232147-5.7633362,7.2448578-8.6414337,10.8701248c-2.4308929,3.0619888-4.8565216,6.1281586-7.2844543,9.1924973
		c-0.0665054,0.0645599-0.1980591,0.1749878-0.1897278,0.1867905
		C123.4923096,99.6232071,123.6019974,99.5083313,123.7098389,99.4206543z M120.6990128,93.2844925
		c-0.1023712,0.0296249-0.2318192,0.0661011-0.1281891,0.19487c0.0296402,0.0368271,0.1893158-0.0308762,0.289299-0.0506821
		c0.0872955-0.0976791,0.270668-0.2041168,0.101326-0.3332291C120.7717667,92.9508362,120.7584763,93.177681,120.6990128,93.2844925
		z"></path>
	<path d="M36.9386826,54.6685753c2.4993362-2.7294006,4.9986763-5.4588051,7.4980087-8.1882057
		c-0.0650826-0.0991211-0.1301651-0.1982422-0.1952477-0.2973595c-3.9611816,2.1974678-7.9223671,4.3949394-11.8841171,6.5927238
		c-1.0950184-2.0452156-0.6199436-4.2964096-1.0953884-6.3901825c-0.2735367-1.2046127-0.3469372-2.4560089-0.6423416-3.6538506
		c-0.2592354-1.0511818,0.0179596-1.5563889,1.0557728-1.9538383c4.9938202-1.9124641,10.1555214-3.2408676,15.3157883-4.5924568
		C56.28545,33.75103,65.3390579,30.6714859,73.7337799,25.8998909c1.8716125-1.0638371,3.6920471-2.217823,5.532692-3.3358192
		c2.2022858-1.337656,1.7057877-1.3783855,3.5468674,0.6274319C67.5571747,33.757412,52.3180733,44.3115044,37.078968,54.865593
		C37.0322075,54.7999229,36.9854431,54.7342491,36.9386826,54.6685753z"></path>
	<path d="M170.5242462,106.8433075c-3.6835175,2.4100266-7.3670349,4.8200378-11.0505524,7.2300568
		c-0.0441589-0.0613937-0.0926514-0.1191711-0.145462-0.1733322c3.413208-3.2476273,6.8161316-6.5061417,10.2418365-9.7405243
		c6.5112-6.1475372,13.0334778-12.283371,19.5605011-18.414093c0.2976227-0.2795715,0.5145569-0.6732864,1.0763702-0.6312103
		c1.5340424,0.1148682,1.6679688,0.380722,1.0023041,1.7798386c-1.8309479,3.8482513-2.8352661,7.9614182-3.7552185,12.0944595
		c-0.4329376,1.9449997-0.8249054,3.9006577-1.1664124,5.8634872c-0.1017456,0.5849609-0.3703766,0.9179459-0.845108,1.1978378
		c-9.7320404,5.7375793-19.4602966,11.4816132-29.1889343,17.224968c-0.2744904,0.1620483-0.53862,0.3589249-0.8724518,0.2083969
		c5.1163788-5.4693985,10.2347565-10.9409561,15.3529358-16.4126892c0.0263062-0.0885391,0.0528259-0.1768951,0.079361-0.2652588
		C170.7170105,106.8179321,170.6206207,106.8306198,170.5242462,106.8433075z"></path>
	<path d="M174.7104034,76.0279312c4.5813446-5.4323425,9.1608887-10.8661957,13.744873-16.2963219
		c2.0616455-2.4422073,4.1308289-4.8780746,6.2001953-7.313736c0.2540283-0.2989769,0.5305786-0.5788155,0.8080444-0.8798332
		c0.4401703,0.4859695,0.4087677,0.9332008,0.2096405,1.4640808c-0.4393921,1.1715546-0.5379028,2.4023819-0.5504608,3.6513214
		c-0.0236664,2.349102-0.1127167,4.6974907-0.144989,7.0465813c-0.0125885,0.9182472-0.2895813,1.4946861-1.1958008,1.9889107
		c-6.3408661,3.4580002-12.6335754,7.004158-18.9417267,10.5220871
		C174.8058624,76.1436539,174.7626038,76.0826263,174.7104034,76.0279312z"></path>
	<path d="M179.0250702,121.3555145c1.8449249-2.0107803,3.6898499-4.0215607,5.8002625-6.3217087
		c-0.0856476,1.300148-0.1434174,2.2555618-0.2140045,3.2100143c-0.0281982,0.3816833-0.3593445,0.4985733-0.6337433,0.6455612
		c-1.6066132,0.8605957-3.2168884,1.7143555-4.8259277,2.5704269
		C179.1087341,121.4259262,179.0665283,121.3911514,179.0250702,121.3555145z"></path>
	<path d="M143.7024384,186.3142395c0.1746826-0.214325,0.4698486-0.5414734,0.6449432-0.3439331
		c0.2539215,0.2865448-0.207962,0.3886414-0.3786926,0.5595703
		C143.8799591,186.4579926,143.7911987,186.3861237,143.7024384,186.3142395z"></path>
	<path d="M100.8152542,250.1906433c-0.1432037,0.2129822-0.2552338,0.476532-0.90345,0.296936
		c0.3526688-0.227066,0.5635452-0.3628387,0.774437-0.4986115
		C100.7292557,250.0562286,100.7722549,250.1234589,100.8152542,250.1906433z"></path>
	<path d="M179.1516571,121.4598083c-0.078537,0.1483765-0.2546844,0.2691727-0.3461914,0.148735
		c-0.1186829-0.1561966,0.047699-0.2475586,0.2196045-0.2530365
		C179.0665283,121.3911514,179.1087341,121.4259262,179.1516571,121.4598083z"></path>
	<path d="M75.1031952,179.401474c0.0314178-0.0204468,0.0628433-0.0409088,0.0942612-0.0613708
		c-0.0044861,0.0038452-0.0084457,0.009903-0.0135574,0.0111542c-0.0367584,0.0088196-0.0737534,0.0166931-0.110672,0.0248871
		L75.1031952,179.401474z"></path>
	<path d="M129.1594238,57.353611c-0.139679,0.112606-0.2793579,0.2252121-0.4190216,0.3378372
		c-0.046463-0.0567665-0.0936127-0.1129799-0.1414642-0.1686211c0.1624298-0.1889191,0.3066406-0.4489403,0.5935211-0.1517982
		L129.1594238,57.353611z"></path>
	<path d="M53.1849823,228.2791748c-0.1355019,0.0878296-0.2264748,0.4038391-0.4167976,0.1959991
		c-0.1346588-0.14711,0.0758514-0.307312,0.2344513-0.4000549
		C53.0634232,228.1431274,53.1242027,228.2111664,53.1849823,228.2791748z"></path>
	<path d="M98.1079025,233.0915833c0.1511459-0.1725922,0.2729568-0.4429016,0.5585938-0.1674957
		l-0.0288239-0.0196838c-0.124054,0.1225739-0.2481155,0.2451324-0.3721466,0.3677368
		C98.2135391,233.2115021,98.1609879,233.1513062,98.1079025,233.0915833z"></path>
	<path d="M159.4736938,114.0733566c-0.185257,0.07164-0.3762207,0.2370758-0.5407104-0.0328598
		c0.1317596-0.046814,0.263504-0.0936356,0.3952484-0.1404648
		C159.3810425,113.9541931,159.4295349,114.0119705,159.4736938,114.0733566z"></path>
	<path d="M112.2947159,253.7467804c0.1348114-0.1780243,0.2402649-0.4356384,0.52948-0.1951294l-0.0276108-0.0199432
		c0.0143585,0.2288513-0.2019806,0.2707214-0.3189468,0.3931427
		C112.4166641,253.865509,112.35569,253.8061218,112.2947159,253.7467804z"></path>
	<path d="M139.9514771,78.7199936c-0.0076904-0.0580444-0.0153961-0.1160965-0.0231018-0.1741409
		c0.0456543,0.0036392,0.0913086,0.0072708,0.1369781,0.0109024c-0.0444946,0.0456314-0.0889893,0.0912628-0.1341705,0.13591
		C139.9304962,78.6917038,139.9514771,78.7199936,139.9514771,78.7199936z"></path>
	<path d="M75.0732269,179.3761444c0.0000458,0.0641327,0.0000992,0.1282654,0.0001526,0.1924133
		c-0.0493698-0.0160675-0.0987396-0.0321198-0.1481094-0.0481873c0.0598907-0.0391541,0.1197891-0.0782776,0.1788101-0.1181641
		C75.1031952,179.401474,75.0732269,179.3761444,75.0732269,179.3761444z"></path>
	<path d="M103.1807098,110.0825729c-0.0095444,0.0542603-0.0190887,0.1085281-0.0286407,0.1627884
		c-0.0329208-0.0120163-0.0658493-0.0240326-0.0987701-0.0360336c0.0514755-0.0354385,0.102951-0.0708771,0.1543045-0.1063995
		C103.2074966,110.1028442,103.1807098,110.0825729,103.1807098,110.0825729z"></path>
	<path d="M112.4366684,109.2565994c-0.0978851,0.0792007-0.1984634,0.1231461-0.2858734-0.0055008
		c-0.0048828-0.0071793,0.0967178-0.0866318,0.1487427-0.1324463
		C112.347496,109.1623993,112.3932037,109.2083893,112.4366684,109.2565994z"></path>
	<path d="M84.7063522,188.5185852c0.0680084-0.0572052,0.1758347-0.1761475,0.1978149-0.1619873
		c0.2003632,0.1290588-0.003479,0.2082825-0.0536041,0.30867C84.8048019,188.6140289,84.7567444,188.5651703,84.7063522,188.5185852
		z"></path>
	<path d="M84.4239578,188.7160797c0.0941315-0.0658264,0.1882629-0.1316681,0.2823868-0.1974945
		c0.0503998,0.0465851,0.0984573,0.0954437,0.1442184,0.1466827c-0.0665359,0.0760956-0.1331329,0.1520844-0.1996994,0.2280884
		C84.5752411,188.8342743,84.4996033,188.7751923,84.4239578,188.7160797z"></path>
	<path d="M37.078968,54.8656006c-0.0832405,0.0591125-0.1664772,0.1182327-0.2500687,0.1767769
		c-0.0372429-0.0415154-0.0754471-0.0811958-0.1149635-0.1196098c0.074913-0.0847321,0.1498299-0.1694641,0.2247467-0.2541962
		C36.9854431,54.7342491,37.0322075,54.7999229,37.078968,54.8656006z"></path>
	<path d="M98.6664963,232.9240875c-0.008255-0.0609741-0.0165024-0.1219482-0.0247574-0.1829224
		c0.0535736,0.0134735,0.107132,0.026947,0.1606979,0.0404205c-0.054924,0.0409393-0.109848,0.0818939-0.1647644,0.122818
		L98.6664963,232.9240875z"></path>
	<path d="M135.9540863,93.6239929c0.1029053-0.01371,0.2791595-0.0663681,0.2961273-0.0344391
		c0.0767975,0.1444397-0.0548553,0.1749496-0.1638489,0.2022705
		C136.0338898,93.7424698,135.9898071,93.6865234,135.9540863,93.6239929z"></path>
	<path d="M139.319046,79.0192566c0.0868225-0.0666656,0.1736603-0.1333237,0.260498-0.1999969
		c0.0410614,0.0391693,0.0820923,0.0783615,0.1230927,0.1175766c-0.0718689,0.0885468-0.1437225,0.1771011-0.2155914,0.2656555
		C139.4310455,79.1414108,139.3750458,79.0803299,139.319046,79.0192566z"></path>
	<path d="M36.4086189,55.111496c0.1017761-0.0629082,0.2035446-0.1258202,0.3053169-0.1887283
		c0.0395164,0.038414,0.0777206,0.0780945,0.1149635,0.119606c-0.1340485,0.1443062-0.2775116,0.2093887-0.4465981,0.0519981
		L36.4086189,55.111496z"></path>
	<path d="M101.3270416,249.7434845c-0.0856552,0.0746613-0.1713104,0.149292-0.2569504,0.2239685
		c-0.0699005-0.0497589-0.1397934-0.099472-0.2097015-0.1491852c0.081131-0.0816956,0.1622696-0.1633606,0.2433777-0.2450256
		C101.1781693,249.6299591,101.2526016,249.6867371,101.3270416,249.7434845z"></path>
	<path d="M129.1924591,57.3710289c-0.0292816-0.0533791-0.0585632-0.1067543-0.0878448-0.1601372
		c0.0544586-0.0133362,0.108902-0.0266762,0.1633759-0.0400124c-0.0375366,0.0601616-0.075058,0.1203232-0.1105804,0.1816101
		C129.1594238,57.353611,129.1924591,57.3710289,129.1924591,57.3710289z"></path>
	<path d="M112.8241959,253.551651c-0.0912857-0.0994873-0.0726013-0.1796875,0.0496292-0.227951
		c0.02742-0.0108337,0.0702286,0.0172882,0.1059418,0.0274658c-0.0610657,0.0601807-0.1221313,0.1203766-0.1831894,0.180542
		C112.7965851,253.5317078,112.8241959,253.551651,112.8241959,253.551651z"></path>
	<path d="M174.8401794,76.2110214c-0.1069489,0.0422668-0.2199097,0.2150955-0.3132629,0.0038986
		c-0.0130768-0.0295486,0.1187286-0.1230698,0.1834869-0.1869888
		C174.7626038,76.0826263,174.8058624,76.1436539,174.8401794,76.2110214z"></path>
	<path d="M139.5795441,78.8192596c0.0976562-0.1285095,0.1918945-0.2695999,0.3713074-0.1002121
		c0.0006256,0.000946-0.0203552-0.0273438-0.0196686-0.0263824c-0.0095062,0.1443863-0.076828,0.2340012-0.2285461,0.2441788
		C139.6616364,78.8976212,139.6206055,78.858429,139.5795441,78.8192596z"></path>
	<path d="M36.3823013,55.0943718c0.0260353,0.0573807,0.0520744,0.1147614,0.0781097,0.172142
		c-0.0294189,0.0120621-0.0588417,0.024128-0.0882607,0.0361977c0.0145111-0.0622063,0.0290222-0.1244087,0.0400009-0.1889153
		C36.4086189,55.111496,36.3823013,55.0943718,36.3823013,55.0943718z"></path>
	<path d="M101.0700912,249.967453c-0.0849533,0.0744019-0.1698914,0.1487885-0.254837,0.2231903
		c-0.0429993-0.0671844-0.0859985-0.1344147-0.1289978-0.2016449c0.0580597-0.0569153,0.1161194-0.1138153,0.1741562-0.1707306
		C100.9302979,249.867981,101.0001907,249.9176941,101.0700912,249.967453z"></path>
</g>
<g onclick="select(this)" class="" id="gola-primaria" fill="#000000">
	<path d="M77.9528961,7.9597788c0.7734909-0.0868554,1.2810745-0.6227632,1.8024139-1.1070566
		c0.7603989-0.7063622,1.6094208-1.3635068,2.2009125-2.1973295c2.3787308-3.3532748,5.9154663-4.1040101,9.6146927-4.1371012
		c10.8288574-0.0968688,21.6591644-0.0327392,32.4889069-0.0323138c3.6765366,0.0001444,7.3533707,0.0263636,11.0294876-0.0132293
		c2.1037445-0.022658,4.1253967,0.4074263,6.1430511,0.9059279c1.240509,0.306494,2.2250671,0.9727898,3.0632935,1.9657297
		c1.5145111,1.7940409,2.9762726,3.6627538,5.0728302,4.8576345c1.8892975,0.8698425,2.232193,1.9619017,1.6444397,4.6568098
		c-0.8680267,3.9801064-3.1195221,7.256525-5.9576111,10.0776253c-3.1543121,3.135416-6.6809235,5.8337631-10.5701141,8.0235748
		c-2.4582367,1.3841152-4.9942627,2.6225414-7.64991,3.5758228c-4.9303207,1.7698059-10.0413513,2.5165062-15.2560577,2.1380272
		c-6.9028931-0.5010071-13.3907471-2.4491768-19.2632141-6.193306c-4.6655121-2.9746075-9.1340027-6.1839447-12.4609528-10.7306004
		c-1.5546875-2.124649-2.7199631-4.4103737-3.3867264-6.9568338C75.8662186,10.4935923,76.2461853,9.2179432,77.9528961,7.9597788z
		 M144.3056793,9.0716209c-1.6213531,0.1224871-3.0516968,0.2176695-4.4796753,0.3405447
		c-8.3171387,0.7156858-16.6441956,1.3321667-24.9881668,1.5415802c-6.3928757,0.1604452-12.7648773-0.5101662-19.1342163-1.0081911
		c-3.8610764-0.3019018-7.7151108-0.6963148-11.5699081-1.07374c-0.8292313-0.081192-1.0991592,0.0874987-0.7168503,0.9401541
		c0.5081406,1.1332855,1.0283813,2.2572689,1.7957001,3.2364836c3.8750992,4.9451981,8.5461273,8.9716797,14.1956177,11.738184
		c5.4275513,2.6578178,11.1766891,4.1721344,17.2688675,3.4482021c9.8420715-1.169529,17.7235413-6.0017147,24.1360626-13.393693
		C142.2531128,13.1811771,143.4580688,11.3532133,144.3056793,9.0716209z"></path>
</g>
</svg>
