<!--?xml version="1.0" encoding="utf-8"?-->
<!-- Generator: Adobe Illustrator 24.2.3, SVG Export Plug-In . SVG Version: 6.00 Build 0)  -->
<svg version="1.1" id="Camada_1" xmlns="http://www.w3.org/2000/svg" xmlns:xlink="http://www.w3.org/1999/xlink" x="0px" y="0px" viewBox="0 0 229 418" style="enable-background:new 0 0 229 418;" xml:space="preserve">
<style type="text/css">
	.st0{fill:#FD0303;}
	.st1{fill:#87F04C;}
</style>
<g onclick="select(this)" class="" id="gola-primaria" fill="#009045">
	<path d="M78,8c0.5-0.1,1-0.4,1.4-0.7c1-0.9,2-1.7,2.8-2.8c1.8-2.5,4.4-3.4,7.2-3.8c0.6-0.1,1.4,0.1,1.9-0.5
		c1.2,0,2.4,0,3.6,0c0.2,0.5,0.6,0.3,0.9,0.3c5.6,0,11.2,0,16.7,0c0.4,0,0.8-0.1,1.1-0.3c7.5,0,15,0,22.6,0c0.1,0.5,0.5,0.3,0.8,0.4
		c1,0.2,2,0.3,2.9,0.4c2,0.3,3.7,1.1,4.9,2.8c1.3,1.7,2.7,3.3,4.6,4.4c1.3,0.6,1.9,1.5,1.8,3c-0.2,3.6-1.9,6.5-4,9.3
		c-0.5,0.6-0.8,0.5-1.3,0.1c-1.7-1.3-3.3-2.6-5-3.9c-0.8-0.6-0.9-0.9-0.2-1.7c1.6-1.7,2.8-3.6,3.7-6c-3.8,0.3-7.5,0.6-11.1,0.8
		c-8.3,0.5-16.6,1.4-24.9,0.9c-8-0.4-15.9-1.1-23.9-1.9c-1.3-0.1-1.4,0-0.9,1.1c0.8,2,2.1,3.7,3.5,5.2c0.5,0.6,0.6,1-0.1,1.5
		c-1.7,1.3-3.4,2.7-5.1,4c-0.5,0.5-0.9,0.4-1.3-0.1c-1.9-2.4-3.4-5-4.2-8C75.9,10.4,76.3,9.2,78,8z"></path>
</g>
<g onclick="select(this)" class="" id="estampa-primaria" fill="#009045">
	<path d="M43.2,120.4c-0.1-2.3-0.2-4.6-0.6-6.9c-0.1-0.5-0.2-0.6-0.7-0.4c-2.5,1.1-5.2,1.1-7.8,1.5c-1.5,0.2-3-0.1-4.5-0.1
		c-4.2,0-8.5-0.1-12.7-0.5c-3.8-0.4-7.6-1.1-11.2-2.4c-1.4-0.5-3-0.9-4.2-1.9c1.8-9.4,2.7-19,4.2-28.4c0.9-5.2,1.2-10.4,2.3-15.5
		c1.7-8,4.4-15.7,9.4-22.4c2.1-2.9,4.6-5.6,7.4-7.8c1.4-1.1,2.4-2.6,3.9-3.4c3.6-1.9,7.3-3.7,11-5.3c10-4.1,20-8.2,29.4-13.4
		c2-1.1,4-2.1,5.5-3.9c0.8-1,2-1.6,3.4-1.6c-1.7,1.2-2.1,2.5-1.5,4.7c0.7,3,2.2,5.6,4.2,8c0.5,0.6,0.8,0.6,1.3,0.1
		c1.7-1.4,3.3-2.7,5.1-4c0.7-0.5,0.6-0.9,0.1-1.5c-1.5-1.6-2.7-3.2-3.5-5.2c-0.5-1.2-0.4-1.3,0.9-1.1c7.9,0.8,15.9,1.5,23.9,1.9
		c8.3,0.5,16.6-0.4,24.9-0.9c3.7-0.2,7.3-0.5,11.1-0.8c-0.9,2.3-2.1,4.2-3.7,6c-0.7,0.8-0.6,1.1,0.2,1.7c1.7,1.2,3.4,2.5,5,3.9
		c0.5,0.4,0.8,0.5,1.3-0.1c2.1-2.8,3.8-5.7,4-9.3c0.1-1.5-0.5-2.4-1.8-3c1.8-0.1,3,1,4,2.2c0.3,0.4,0.7,0.7,1.1,1
		c10,6.5,21.2,10.6,32.1,15.2c4,1.7,7.8,3.6,11.8,5.3c1.2,0.5,1.9,1.6,3,2.4c3.5,2.6,6.7,5.6,9.3,9.1c4.9,6.4,7.6,13.8,9.4,21.6
		c0.6,2.9,1.2,5.8,1.5,8.7c0.6,5.8,2.3,11.3,3.4,17c1.1,5.5,1.7,11,2.8,16.5c0.1,0.3,0,0.6,0.1,1c-3.3,1.3-6.6,2.4-10,3.2
		c-3.1,0.7-6.3,1.1-9.4,1.7c-3,0.5-6.1,0.7-9.2,0.7c-4.2,0-8.5,0.3-12.7-0.6c-1.2-0.3-1.4,0.1-1.6,1.1c-0.4,1.9-0.3,3.9-0.3,5.8
		c-0.4,0.8-0.3,1.7-0.4,2.6c-1,8.4-1.7,16.8-1.7,25.2c0,2.2,0.1,4.4,0.5,6.6c0.4,1.9,0,3.8-0.2,5.7c-0.2,2.1-0.3,4.2-0.1,6.3
		c0.2,2.5-0.2,5-0.2,7.5c0,2.6-0.1,5.2,0.2,7.8c0.2,2.4-0.2,4.8-0.2,7.2c0,2.3,0.5,4.4,1,6.6c1.6,7.3,1.4,14.5,0.3,21.8
		c-0.3,2.1-0.4,4.2,0.3,6.4c1.8,5.4,1.8,11,0.9,16.6c-0.2,1.5-0.2,2.9,0.1,4.4c0.9,3.8,0.4,7.7,0.6,11.6c0.3,5.9,0.7,11.8,1.4,17.7
		c0.3,2,0.2,4.1,0.3,6.2c0,1.7-0.4,2.2-2.1,2.7c-3,0.9-6.1,1.2-9.2,1.5c-8.3,0.9-16.7,0.9-25,1c-11.6,0.2-23.2,0.8-34.8,0.8
		c-11.5,0-23-0.8-34.5-0.9c-8.4,0-16.7-0.1-25.1-0.7c-4.2-0.3-8.4-0.8-12.6-1.7c-3.6-0.8-4-1.2-3.8-4.8c0.4-7.7,1-15.4,1.5-23.1
		c0.1-2,0.3-4,0.2-6c0-1.9,0-3.8,0.4-5.6c0.4-2.2,0.4-4.4,0.1-6.7c-0.4-2.5-0.1-5,0.4-7.5c0.2-1,0.2-2,0.1-3.1
		c-0.3-4.5-1-9.1-0.8-13.6c0.2-4.3,1.2-8.5,2.7-12.5c0.4-1,0.6-2,0.5-3.1c-0.2-1.2-0.2-2.5,0.1-3.7c0.3-1.7,0.2-3.3,0.1-5
		c-0.2-3.3-0.2-6.6-0.2-9.9c-0.1-12.9,0-25.8-0.1-38.7c0-5.2-1-10.3-1.6-15.5C43.6,122.9,43.8,121.6,43.2,120.4z"></path>
</g>
<g onclick="select(this)" class="" id="detalhe-punho" fill="#005425">
	<path d="M0.2,114.7c0.6-1.1,0.4-2.3,0.7-3.4c0.2-0.5,0.1-1.1,0.5-1.6c1.2,1,2.8,1.3,4.2,1.9c3.6,1.4,7.4,2,11.2,2.4
		c4.2,0.4,8.4,0.5,12.7,0.5c1.5,0,3.1,0.3,4.5,0.1c2.6-0.4,5.3-0.4,7.8-1.5c0.5-0.2,0.6-0.1,0.7,0.4c0.4,2.3,0.5,4.6,0.6,6.9
		c-0.6,0.6-1.3,0.7-2,0.9c-2.3,0.6-4.5,1-6.9,1c-7.6,0.2-15.2,0.2-22.7-1.2c-3-0.6-6-1.1-8.9-2.1c-0.8-0.3-1.6-0.6-2.4-1
		C0.2,116.9,0.2,115.8,0.2,114.7z"></path>
	<path d="M184.6,120.1c0-2-0.1-3.9,0.3-5.8c0.2-1,0.4-1.4,1.6-1.1c4.2,0.9,8.4,0.6,12.7,0.6c3.1,0,6.1-0.2,9.2-0.7
		c3.1-0.5,6.3-0.9,9.4-1.7c3.4-0.8,6.8-1.9,10-3.2c1,2.4,1.3,5,1.2,7.6c0,0.7-0.8,0.8-1.3,1.1c-2.5,1-5.1,1.6-7.7,2.3
		c-9.1,2.5-18.5,3.1-27.9,2.6c-2-0.1-4.1-0.3-6-0.9C185.5,120.7,185,120.6,184.6,120.1z"></path>
</g>
<g onclick="select(this)" class="" id="estampa-secundaria" fill="#005425">
	<path d="M182.1,172.6c-1.9,3.2-3.6,6.5-5.3,9.8c-8.1,15.3-16.3,30.6-24.3,46c-0.6,1.2-1.5,1.1-2.4,0.9
		c-0.7-0.1-0.2-0.6-0.1-0.8c1.5-2.9,3.1-5.8,4.6-8.7c8.2-15.4,16.3-30.8,24.4-46.2c0.7-1.4,1.6-2.1,3.1-1.7
		C182.3,172.2,182.2,172.4,182.1,172.6z"></path>
	<path d="M182.1,180.8c-1.4,2.2-2.5,4.6-3.8,6.9c-7.2,13.5-14.3,27-21.4,40.5c-0.3,0.5-0.3,1.2-1,1.3
		c-0.6,0.1-1.4,0.2-1.7-0.1c-0.4-0.3,0.3-0.9,0.5-1.3c8.9-16.9,17.9-33.8,26.8-50.6c0.2-0.4,0.3-0.8,0.7-1.1
		C182.1,177.8,182.1,179.3,182.1,180.8z"></path>
	<path d="M42,213.3c2.4-4.1,4.5-8.3,6.7-12.4c5-9.3,9.8-18.6,14.8-27.9c0.2-0.4,0.3-0.8,0.7-1c0.6-0.2,1.4-0.3,1.9,0
		c0.5,0.4-0.2,0.9-0.4,1.3C57.8,188.2,50,203,42.1,217.8C41.9,216.3,41.9,214.8,42,213.3z"></path>
	<path d="M182.1,188.8c-2.2,4-4.4,8.1-6.5,12.1c-4.9,9.2-9.8,18.4-14.6,27.7c-0.6,1.1-1.5,0.9-2.3,0.9
		c-0.5,0-0.3-0.4-0.2-0.6c0.3-0.5,0.5-1,0.8-1.5c7.5-14.2,15.1-28.5,22.6-42.7c0.1-0.3,0.3-0.5,0.5-0.8
		C182.5,185.5,182.1,187.1,182.1,188.8z"></path>
	<path d="M45.3,198.8c0.5-0.2,0.6-0.6,0.8-1c4.4-8.2,8.7-16.4,13.1-24.7c0.5-0.9,1-1.2,2-1.2c0.9,0,0.9,0.3,0.5,1
		c-1.8,3.4-3.6,6.8-5.5,10.3c-4.3,8.1-8.6,16.2-12.8,24.3c-0.3,0.5-0.5,1.1-0.9,1.5c0.3-3.2,1.2-6.3,2.5-9.2
		C45,199.4,45.2,199.1,45.3,198.8z"></path>
	<path d="M42.7,224.3c2.4-4.1,4.5-8.4,6.8-12.7c6.9-12.9,13.7-25.8,20.5-38.8c0.1-0.1,0.2-0.3,0.2-0.4
		c0.2-0.4,0.6-0.6,1-0.4c0.5,0.3,0,0.6-0.1,0.9c-2.3,4.5-4.7,8.9-7.1,13.4c-6.8,12.9-13.6,25.7-20.4,38.6c-0.2,0.4-0.4,1-0.8,1.3
		C42.6,225.5,42.7,224.9,42.7,224.3z"></path>
	<path d="M45.7,190.6c3.1-5.9,6.1-11.7,9.2-17.5c0.2-0.4,0.3-0.9,0.8-1c0.6-0.2,1.4-0.3,1.8,0.1
		c0.4,0.3-0.2,0.9-0.4,1.2c-3.8,7.2-7.6,14.4-11.4,21.6c-0.2,0.3-0.4,0.6-0.6,0.9C44.9,194.1,45.1,192.3,45.7,190.6z"></path>
	<path d="M183.3,196.5c-2.1,3.8-4.1,7.6-6.1,11.4c-3.6,6.9-7.3,13.7-10.9,20.6c-0.1,0.2-0.2,0.4-0.3,0.5
		c-0.2,0.5-0.7,0.7-1.1,0.5c-0.5-0.3,0-0.6,0.2-0.9c4.9-9.4,9.9-18.7,14.9-28.1c1-1.9,2-3.7,3-5.6
		C183.1,195.4,183.4,195.9,183.3,196.5z"></path>
	<path d="M184.2,209.1c-1.4,2.2-2.6,4.6-3.8,6.9c-2.2,4.1-4.4,8.3-6.6,12.4c-0.1,0.3-0.3,0.6-0.5,0.8
		c-0.4,0.4-0.9,0.4-1.3,0.2c-0.5-0.2,0-0.6,0.1-0.9c3.8-7.3,7.7-14.6,11.5-21.8c0.1-0.3,0.4-0.5,0.5-0.8
		C184.6,207,184.3,208,184.2,209.1z"></path>
	<path d="M45.4,183.8c1.9-3.6,3.8-7.2,5.8-10.8c0.2-0.4,0.3-1,0.9-1c0.6-0.1,1.3-0.3,1.7,0.1c0.3,0.4-0.3,0.9-0.5,1.4
		c-2.6,5-5.3,9.9-8,14.9C44.9,186.8,45.2,185.3,45.4,183.8z"></path>
	<path d="M184.1,202.4c-2,3.6-3.9,7.3-5.9,11c-2.6,4.9-5.2,9.9-7.8,14.8c-0.1,0.2-0.2,0.4-0.3,0.6
		c-0.2,0.5-0.6,0.9-1.1,0.6c-0.5-0.3,0.1-0.7,0.2-1c3.4-6.4,6.8-12.9,10.2-19.3c1.5-2.9,3.1-5.8,4.6-8.6
		C184.1,201.1,184.1,201.7,184.1,202.4z"></path>
	<path d="M183.2,219.4c-0.9,1-1.4,2.3-2,3.4c-1,1.9-2,3.7-3,5.6c-0.1,0.2-0.2,0.4-0.3,0.6c-0.4,0.6-1.1,0.6-1.5,0.3
		c-0.5-0.3,0.1-0.7,0.2-1c2.3-4.4,4.7-8.8,7-13.2C183.7,216.6,183.4,218,183.2,219.4z"></path>
	<path d="M45.1,176.6c0.9-1.2,1.5-2.5,2.2-3.8c0.4-0.8,1.6-1.2,2.3-0.8c0.3,0.1,0.3,0.3,0.2,0.6c-1.5,2.7-2.7,5.5-4.4,8
		C44.8,179.3,45.2,177.9,45.1,176.6z"></path>
	<path d="M184.1,224.9c-0.7,1.3-1.4,2.5-2.1,3.8c-0.2,0.3-0.3,0.8-0.8,0.8c-0.3,0-0.7,0.1-0.9-0.1
		c-0.3-0.3,0.1-0.6,0.2-0.8c1-1.9,1.9-3.8,3.1-5.5C184,223.6,184.1,224.2,184.1,224.9z"></path>
	<path d="M42.4,209.1c0,0.1,0,0.2,0,0.3C42.3,209.3,42.3,209.1,42.4,209.1z"></path>
	<path d="M178.4,60.1c0.1,0.5-0.2,0.7-0.4,1c-9.8,18.5-19.6,37-29.4,55.4c-0.2,0.4-0.3,0.9-0.8,1
		c-0.6,0.1-1.4,0.2-1.7-0.1c-0.4-0.3,0.2-0.9,0.5-1.3c9.7-18.3,19.4-36.7,29.1-55C176.4,59.7,177.4,60.1,178.4,60.1z"></path>
	<path d="M143,229.4c-1.2,0.2-1.1-0.3-0.7-1.1c9.8-18.5,19.6-37,29.4-55.5c0.6-1.1,1.5-0.9,2.3-0.9
		c0.6,0.1,0.2,0.5,0.1,0.8c-0.8,1.6-1.7,3.2-2.5,4.8c-9,16.9-18,33.9-26.9,50.9C144.3,229.1,143.9,229.7,143,229.4z"></path>
	<path d="M60.2,229.4c-1.4,0-1.4,0-0.8-1.1c9.8-18.4,19.5-36.9,29.3-55.3c0.2-0.4,0.3-1,0.9-1.1
		c0.6-0.1,1.3-0.3,1.7,0.1c0.4,0.4-0.2,0.9-0.5,1.3c-9.7,18.3-19.4,36.7-29.1,55C61.3,229.1,61,229.7,60.2,229.4z"></path>
	<path d="M113.7,117.6c-1.4,0-1.4,0-0.8-1.1c9.8-18.5,19.6-37,29.4-55.5c0.6-1.2,1.5-0.9,2.4-0.8c0.6,0.1,0.2,0.6,0,0.8
		c-1.3,2.4-2.5,4.8-3.8,7.2c-8.6,16.1-17.1,32.3-25.6,48.4C114.9,117.2,114.5,117.8,113.7,117.6z"></path>
	<path d="M64.1,229.4c-1,0.2-1.3,0-0.7-1c9.8-18.5,19.6-36.9,29.4-55.4c0.2-0.4,0.3-1,0.9-1s1.3-0.3,1.7,0.1
		c0.3,0.4-0.3,0.9-0.5,1.4c-9.7,18.3-19.4,36.6-29.1,54.9C65.3,229.1,65,229.7,64.1,229.4z"></path>
	<path d="M105.6,229.4c-1.3,0.2-1.1-0.3-0.7-1.1c9.8-18.4,19.5-36.8,29.3-55.2c0.3-0.5,0.4-1.2,1.2-1.2
		c0.5,0,1.2-0.3,1.5,0.1c0.3,0.4-0.3,0.9-0.5,1.3c-9.7,18.4-19.4,36.8-29.2,55.1C106.8,229.2,106.4,229.6,105.6,229.4z"></path>
	<path d="M131.8,172c1.4-0.2,1.1,0.4,0.6,1.1c-9.8,18.5-19.6,37-29.4,55.5c-0.4,0.7-1.6,1.2-2.3,0.8
		c-0.6-0.3-0.1-0.7,0.1-1c1.8-3.5,3.7-7.1,5.6-10.6c7.9-14.9,15.8-29.8,23.7-44.7C130.5,172.4,130.8,171.6,131.8,172z"></path>
	<path d="M104.4,117.4c1.9-3.7,3.8-7.2,5.7-10.7c8-15.2,16.1-30.3,24.1-45.5c0.5-0.9,1-1.3,2-1.3c0.9,0,0.9,0.3,0.5,1
		c-2.5,4.6-4.9,9.3-7.4,13.9c-7.3,13.8-14.6,27.5-21.8,41.2C106.6,117.7,106.6,117.7,104.4,117.4z"></path>
	<path d="M117.8,117.5c-1.3,0.2-1-0.4-0.6-1.1c9.4-17.8,18.8-35.5,28.3-53.3c0.4-0.8,0.9-1.6,1.3-2.4
		c0.2-0.3,0.3-0.7,0.8-0.7c0.6,0,1.3-0.2,1.6,0.1c0.4,0.4-0.3,0.9-0.5,1.3c-9.7,18.3-19.4,36.7-29.1,55
		C119.1,117.3,118.7,117.8,117.8,117.5z"></path>
	<path d="M108.2,117.4c1.9-3.7,3.8-7.2,5.6-10.7c8-15.1,16-30.2,24-45.3c0.9-1.7,0.9-1.7,3-1.3
		c-0.8,1.5-1.6,3.1-2.4,4.6c-9,17.1-18.1,34.1-27.1,51.2C110.3,117.7,110.3,117.7,108.2,117.4z"></path>
	<path d="M147.1,229.4c-1,0.1-1.3,0-0.7-1c9.8-18.5,19.6-36.9,29.3-55.4c0.6-1.2,1.4-1.1,2.4-1c0.8,0.1,0.2,0.6,0.1,0.9
		c-1.3,2.4-2.6,4.9-3.9,7.3c-8.5,16-17,32.1-25.5,48.1C148.4,229,148.1,229.8,147.1,229.4z"></path>
	<path d="M141.9,117.4c1.8-3.3,3.5-6.5,5.2-9.8c8.2-15.5,16.4-31,24.6-46.5c0.1-0.3,0.2-0.5,0.4-0.7
		c0.6-0.7,1.5-0.5,2.1-0.3c0.6,0.2-0.1,0.8-0.2,1.1c-9.6,18.2-19.3,36.5-29,54.7C144.1,117.7,144.1,117.7,141.9,117.4z"></path>
	<path d="M91.5,60.1c-1.7,3.2-3.3,6.3-5,9.4c-8.3,15.6-16.6,31.3-24.8,46.9c-0.6,1.2-1.4,1.1-2.4,1
		c-0.8-0.1-0.2-0.6-0.1-0.9c1-1.9,2-3.9,3.1-5.8C71,94.4,79.8,78,88.4,61.5C89.3,59.9,89.3,59.9,91.5,60.1z"></path>
	<path d="M99.1,60.1c0.1,0.4-0.1,0.6-0.2,0.8c-9.8,18.5-19.6,37-29.4,55.5c-0.2,0.4-0.3,1-0.9,1.1
		c-0.6,0.1-1.4,0.2-1.7-0.1c-0.4-0.3,0.2-0.9,0.5-1.3c9.7-18.3,19.4-36.7,29.1-55C97.2,59.7,98.1,60.1,99.1,60.1z"></path>
	<path d="M76.3,117.5c-1.2,0.2-1.1-0.2-0.7-1.1c9.7-18.3,19.5-36.7,29.2-55.1c0.4-0.8,0.8-1.4,1.9-1.4
		c1,0.1,1,0.3,0.6,1.1c-2.4,4.5-4.8,9-7.1,13.4c-7.4,14-14.8,28-22.3,42.1C77.6,117.3,77.2,117.8,76.3,117.5z"></path>
	<path d="M64.1,117.5c-1.1,0.2-1.3-0.1-0.8-1C73.1,98,82.9,79.5,92.7,61c0.6-1.2,1.5-1,2.4-0.9c0.6,0,0.3,0.5,0.1,0.7
		c-0.7,1.2-1.3,2.5-2,3.7C84.1,81.8,74.9,99,65.8,116.4C65.4,117.1,65.1,117.9,64.1,117.5z"></path>
	<path d="M101.7,117.6c-1.4,0-1.4,0-0.8-1.2c9-17,18-34,27-51c0.8-1.5,1.6-3,2.4-4.6c0.4-0.7,1.8-1.1,2.4-0.7
		c0.5,0.3,0,0.6-0.1,0.9c-1.5,2.8-2.9,5.6-4.4,8.4c-8.3,15.7-16.7,31.4-25,47.2C102.8,117.2,102.5,117.8,101.7,117.6z"></path>
	<path d="M72.2,229.4c-1.4,0.2-1.1-0.4-0.7-1.1c9.4-17.7,18.8-35.5,28.2-53.2c0.4-0.8,0.9-1.6,1.3-2.4
		c0.2-0.3,0.3-0.7,0.8-0.7c0.6,0,1.3-0.3,1.6,0.1c0.4,0.4-0.2,0.9-0.5,1.4c-9.7,18.4-19.4,36.7-29.1,55
		C73.3,229.2,73,229.7,72.2,229.4z"></path>
	<path d="M109.4,229.4c-1.3,0.2-1.2-0.2-0.7-1.1c9.8-18.4,19.5-36.8,29.3-55.3c0.2-0.4,0.3-0.9,0.8-1
		c0.6-0.1,1.4-0.3,1.8,0.1c0.4,0.3-0.2,0.9-0.4,1.3c-9.7,18.4-19.4,36.7-29.2,55.1C110.6,229.2,110.3,229.7,109.4,229.4z"></path>
	<path d="M151,117.6c-1.4,0-1.4,0-0.8-1.1c9.8-18.4,19.5-36.9,29.3-55.3c0.2-0.4,0.3-1,0.9-1c0.6,0,1.3-0.2,1.6,0.1
		c0.4,0.4-0.2,0.9-0.4,1.3c-9.7,18.3-19.3,36.5-29,54.8C152.2,117,152,117.9,151,117.6z"></path>
	<path d="M155.1,117.5c-1.3,0.2-1.1-0.3-0.7-1.1c8.4-15.8,16.8-31.6,25.1-47.5c1.4-2.7,2.9-5.4,4.3-8
		c0.4-0.7,1.6-1.2,2.3-0.8c0.6,0.3,0.1,0.7-0.1,1c-1.8,3.5-3.7,7-5.6,10.5c-7.9,15-15.9,29.9-23.8,44.9
		C156.4,117.2,156.1,117.8,155.1,117.5z"></path>
	<path d="M190.9,60c-1.5,2.9-2.9,5.6-4.3,8.3c-8.5,16-17,32.1-25.5,48.1c-0.2,0.4-0.3,1-0.8,1.1
		c-0.6,0.1-1.4,0.2-1.7-0.1c-0.5-0.3,0.2-0.9,0.4-1.3c9.7-18.4,19.4-36.7,29.1-55.1C188.7,59.7,189.7,60.1,190.9,60z"></path>
	<path d="M113.6,229.4c-1.3,0.2-1.1-0.3-0.7-1.1c9.8-18.5,19.6-36.9,29.3-55.4c0.6-1.1,1.4-1,2.3-0.9
		c0.9,0.1,0.2,0.7,0,1c-1.9,3.6-3.8,7.1-5.6,10.7c-7.9,14.9-15.7,29.7-23.6,44.6C114.9,229,114.6,229.7,113.6,229.4z"></path>
	<path d="M118,229.4c-1.4,0-1.4,0-0.8-1.2c9.5-17.9,18.9-35.7,28.4-53.6c0.4-0.7,0.7-1.3,1.1-2c0.2-0.3,0.3-0.7,0.8-0.7
		c0.6,0,1.3-0.3,1.6,0.1c0.4,0.4-0.2,0.9-0.5,1.4c-9.7,18.3-19.4,36.6-29,54.9C119.2,229,118.9,229.7,118,229.4z"></path>
	<path d="M72.2,117.6c-1.3,0-1.3,0-0.8-1.2c9.3-17.6,18.6-35.2,28-52.7c0.5-0.9,1-1.8,1.4-2.8c0.4-0.8,1.6-1.2,2.3-0.8
		c0.6,0.3,0.1,0.7-0.1,1c-1.7,3.2-3.3,6.4-5,9.5c-8.1,15.3-16.2,30.6-24.3,45.9C73.4,117.2,73.1,117.8,72.2,117.6z"></path>
	<path d="M67.9,229.4c-1.2,0.2-1.2-0.2-0.7-1.1c9.8-18.5,19.6-37,29.4-55.5c0.4-0.8,1.5-1.2,2.3-0.9
		c0.7,0.3,0.1,0.7,0,1c-1.5,2.8-3,5.6-4.5,8.5c-8.3,15.6-16.6,31.3-24.8,46.9C69.2,229,68.8,229.7,67.9,229.4z"></path>
	<path d="M76.3,229.4c-1.6,0.2-0.9-0.6-0.6-1.2c7.7-14.5,15.3-29,23-43.4c2.1-3.9,4.2-7.9,6.3-11.9c0.2-0.4,0.3-1,0.9-1
		c0.6,0,1.3-0.2,1.6,0.1c0.4,0.4-0.2,0.9-0.4,1.3c-9.7,18.3-19.4,36.7-29.1,55C77.6,229.2,77.2,229.7,76.3,229.4z"></path>
	<path d="M41.6,106.8c-0.4-1.8-0.6-3.3,0.3-5c7.2-13.4,14.3-27,21.5-40.4c0.4-0.7,0.7-1.5,1.8-1.4
		c1.3,0.1,1.3,0,0.7,1.1c-2.1,4-4.2,8-6.3,12C53.7,83.9,48,94.7,42.3,105.5C42.1,105.9,41.9,106.3,41.6,106.8z"></path>
	<path d="M129,60.2c-0.4,0.7-0.7,1.3-1.1,2c-9.6,18.1-19.1,36.1-28.7,54.2c-0.2,0.3-0.3,0.6-0.5,0.8
		c-0.4,0.6-1,0.5-1.4,0.3c-0.5-0.3,0-0.7,0.2-1c7.9-14.9,15.8-29.8,23.7-44.7c1.9-3.6,3.8-7.1,5.7-10.7
		C127.4,60.2,127.9,59.8,129,60.2z"></path>
	<path d="M87.5,60.2c-0.6,1.1-1.1,2.2-1.7,3.3c-9.4,17.7-18.7,35.3-28.1,53c-0.2,0.3-0.3,0.6-0.5,0.8
		c-0.4,0.4-1,0.4-1.3,0.2c-0.5-0.2,0-0.6,0.1-0.9c9.8-18.5,19.6-37,29.3-55.4C85.8,60.3,86.3,59.7,87.5,60.2z"></path>
	<path d="M134.7,117.4c1.4-2.7,2.8-5.3,4.1-7.9c8.6-16.1,17.1-32.3,25.6-48.4c0.5-0.9,1-1.3,2-1
		c0.1,0.3-0.1,0.5-0.2,0.8c-9.8,18.5-19.6,37-29.4,55.5C136.3,117.4,135.8,117.8,134.7,117.4z"></path>
	<path d="M47.3,117.4c0.6-1.1,1.1-2.1,1.7-3.2c9.4-17.7,18.7-35.4,28.1-53.1c0.1-0.2,0.2-0.3,0.3-0.5
		c0.3-0.8,1.1-0.7,1.5-0.5c0.5,0.3-0.1,0.8-0.2,1.1C71.8,74.1,64.9,87.1,58.1,100c-2.9,5.5-5.8,11-8.7,16.6
		C48.9,117.4,48.3,117.8,47.3,117.4z"></path>
	<path d="M130.3,229.3c0.8-1.5,1.6-2.9,2.3-4.4c9.2-17.3,18.3-34.6,27.5-51.9c0.3-0.5,0.4-1.1,1.1-1.1
		c0.3,0,0.6-0.1,0.8,0.1c0.2,0.3-0.1,0.5-0.2,0.8c-1.8,3.4-3.6,6.7-5.3,10.1c-8.1,15.2-16.1,30.4-24.1,45.6
		C131.9,229.4,131.3,229.6,130.3,229.3z"></path>
	<path d="M94.1,117.6c-1.1,0.1-0.7-0.5-0.4-1c2.7-5.2,5.4-10.3,8.2-15.5c7-13.3,14.1-26.5,21.1-39.8
		c0.3-0.5,0.4-1.3,1.3-1.3c0.7,0,1,0.1,0.6,0.8c-1.5,2.7-2.9,5.5-4.4,8.3c-8.3,15.8-16.7,31.5-25,47.2
		C95.1,116.9,94.9,117.7,94.1,117.6z"></path>
	<path d="M170.5,60.2c-1.3,2.5-2.6,5-3.9,7.4c-8.5,16-17,32.1-25.5,48.1c-0.3,0.5-0.5,1-0.8,1.5c-0.3,0.6-1,0.5-1.4,0.3
		c-0.6-0.3,0-0.7,0.1-1c9.4-17.9,18.9-35.7,28.4-53.6c0.3-0.6,0.7-1.3,1-1.9C168.8,60.1,169.4,59.8,170.5,60.2z"></path>
	<path d="M47.4,229.4c0-0.4,0.2-0.7,0.4-1c9.7-18.4,19.4-36.7,29.2-55.1c0.2-0.3,0.3-0.6,0.5-0.9c0.3-0.6,1-0.5,1.4-0.3
		c0.6,0.3,0,0.7-0.2,1c-1.9,3.6-3.8,7.2-5.7,10.8c-7.9,14.8-15.7,29.7-23.5,44.5C48.9,229.3,48.4,229.7,47.4,229.4z"></path>
	<path d="M94.1,229.4c-1.3,0-0.6-0.6-0.4-1c3.8-7.2,7.6-14.3,11.4-21.5c6-11.3,12-22.6,18-33.9c0.1-0.2,0.2-0.4,0.3-0.6
		c0.4-0.6,1-0.6,1.5-0.4c0.5,0.3-0.1,0.7-0.2,1c-7.6,14.4-15.3,28.8-22.9,43.2c-2.2,4.1-4.3,8.2-6.5,12.3
		C94.9,229,94.8,229.6,94.1,229.4z"></path>
	<path d="M120.6,60.1c-0.1,0.7-0.6,1.3-0.9,1.8c-9.6,18.2-19.2,36.3-28.8,54.5c-0.1,0.2-0.2,0.3-0.3,0.5
		c-0.3,0.7-1.1,0.8-1.5,0.5c-0.5-0.3,0.1-0.8,0.2-1.1c7.5-14.2,15-28.3,22.5-42.5c2.3-4.3,4.5-8.5,6.8-12.8
		C119,60.2,119.6,59.8,120.6,60.1z"></path>
	<path d="M162.2,60.2c-1.7,3.2-3.3,6.3-5,9.4c-8.3,15.6-16.5,31.2-24.8,46.8c-0.1,0.2-0.2,0.4-0.3,0.6
		c-0.3,0.8-1,0.8-1.5,0.5c-0.6-0.3,0-0.8,0.2-1.1c8.9-16.9,17.9-33.8,26.8-50.7c0.8-1.6,1.7-3.1,2.4-4.7
		C160.5,60.2,161.1,59.8,162.2,60.2z"></path>
	<path d="M52.5,117.6c-1.2,0-0.6-0.6-0.4-0.9c4-7.5,8-15.1,11.9-22.6c5.8-10.9,11.6-21.8,17.4-32.7
		c0.3-0.5,0.3-1.2,1.1-1.2c0.3,0,0.7-0.2,0.9,0.1c0.2,0.3-0.1,0.5-0.2,0.8c-2.2,4.2-4.5,8.5-6.7,12.7c-7.6,14.3-15.1,28.6-22.7,42.8
		C53.5,117.1,53.3,117.7,52.5,117.6z"></path>
	<path d="M88.9,229.4c0.1-0.7,0.5-1.2,0.8-1.7c9.6-18.2,19.2-36.3,28.8-54.5c0.2-0.3,0.3-0.6,0.5-0.8
		c0.4-0.5,1-0.5,1.4-0.3c0.5,0.3,0,0.7-0.2,1c-9.8,18.5-19.6,37-29.4,55.6C90.3,229.4,89.8,229.6,88.9,229.4z"></path>
	<path d="M98,229.4c-1.4,0-0.7-0.6-0.4-1c4.6-8.7,9.2-17.4,13.8-26.2c5.1-9.7,10.2-19.4,15.4-29c0.2-0.4,0.3-0.7,0.6-1
		c0.4-0.4,0.9-0.4,1.3-0.2c0.4,0.3,0,0.6-0.2,0.9c-1.5,2.8-3,5.7-4.5,8.5c-8.3,15.7-16.6,31.4-24.9,47C98.9,229,98.7,229.6,98,229.4
		z"></path>
	<path d="M135.6,229.4c-1.2,0.1-0.6-0.6-0.4-1c2.8-5.2,5.5-10.5,8.3-15.7c6.9-13,13.8-26.1,20.7-39.1
		c0.2-0.5,0.4-0.9,0.8-1.4c0.4-0.5,1-0.5,1.4-0.2c0.4,0.3-0.1,0.6-0.2,0.9c-2.4,4.5-4.7,9-7.1,13.5c-7.4,14-14.8,28-22.2,42
		C136.5,228.9,136.4,229.6,135.6,229.4z"></path>
	<path d="M51.8,229.4c-0.1-0.5,0.2-0.8,0.4-1.1c9.7-18.4,19.5-36.8,29.2-55.2c0.1-0.2,0.2-0.4,0.3-0.5
		c0.3-0.7,1-0.8,1.5-0.5c0.6,0.3,0,0.8-0.2,1.1c-9.8,18.5-19.6,37-29.4,55.5C53.2,229.5,52.6,229.6,51.8,229.4z"></path>
	<path d="M138.8,229.3c-0.1-0.5,0.3-0.8,0.4-1.1c9.7-18.4,19.4-36.7,29.2-55.1c0.1-0.2,0.2-0.4,0.3-0.6
		c0.3-0.7,1-0.8,1.5-0.5c0.5,0.3-0.1,0.8-0.2,1.1c-9.5,18-19,35.9-28.6,53.9c-0.3,0.5-0.6,1-0.8,1.5
		C140.3,229.5,139.6,229.6,138.8,229.3z"></path>
	<path d="M55.6,229.3c1.2-2.3,2.5-4.7,3.7-7c8.5-16.1,17.1-32.2,25.6-48.3c0.2-0.5,0.5-0.9,0.7-1.4
		c0.3-0.7,1-0.9,1.5-0.6c0.6,0.4,0,0.8-0.2,1.2c-9.7,18.3-19.4,36.6-29.1,54.9C57.4,229,57,229.9,55.6,229.3z"></path>
	<path d="M40.6,100.5c-0.5-1.8-0.7-3.2,0.3-4.9c6.2-11.4,12.2-22.9,18.3-34.4c0.5-0.9,1-1.2,2-1.2c0.9,0,0.9,0.3,0.5,1
		c-1.8,3.5-3.7,6.9-5.5,10.4c-4.9,9.3-9.9,18.7-14.8,28C41.1,99.7,40.9,100,40.6,100.5z"></path>
	<path d="M57.8,60.2C51.7,71.6,45.7,83,39.6,94.6c-0.8-1.7-0.8-3,0-4.6c5.1-9.5,10.1-19,15.2-28.5
		C55.6,59.9,55.6,59.9,57.8,60.2z"></path>
	<path d="M81.7,229.3c1.2-2.2,2.3-4.4,3.4-6.6c8.8-16.6,17.6-33.2,26.4-49.8c0.1-0.2,0.2-0.4,0.3-0.6
		c0.2-0.4,0.6-0.5,0.9-0.3c0.4,0.3,0.1,0.6-0.1,0.8c-2.7,5.2-5.5,10.4-8.2,15.6c-7.1,13.4-14.1,26.7-21.2,40.1
		C82.9,229,82.7,229.7,81.7,229.3z"></path>
	<path d="M85.6,229.3c1.4-2.6,2.7-5.1,4-7.6c8.6-16.1,17.1-32.3,25.7-48.4c0.3-0.5,0.5-1.6,1.3-1.2
		c0.7,0.4-0.2,1.1-0.4,1.6c-9.6,18.3-19.3,36.5-28.9,54.7C86.9,228.9,86.7,229.8,85.6,229.3z"></path>
	<path d="M123.8,229.5c-0.8,0-0.5-0.4-0.3-0.8c1.1-2.1,2.2-4.3,3.3-6.4c8.6-16.3,17.2-32.5,25.8-48.8
		c0.2-0.4,0.4-0.7,0.6-1.1c0.2-0.5,0.6-0.7,1.1-0.4c0.4,0.3-0.1,0.6-0.2,0.9c-3.4,6.5-6.9,13.1-10.4,19.6
		c-6.3,11.9-12.6,23.9-19,35.8C124.5,228.8,124.5,229.4,123.8,229.5z"></path>
	<path d="M82.1,117.6c-0.7-0.1-0.3-0.4-0.2-0.7c0.7-1.3,1.4-2.7,2.1-4c9.1-17.2,18.2-34.4,27.3-51.6
		c0.1-0.1,0.2-0.3,0.2-0.4c0.2-0.5,0.5-1,1.1-0.7c0.6,0.3,0,0.8-0.2,1.1c-5.3,10.1-10.7,20.2-16,30.3c-4.4,8.4-8.9,16.8-13.3,25.2
		C82.9,117.1,82.8,117.7,82.1,117.6z"></path>
	<path d="M123.8,117.6c-0.9-0.1-0.5-0.4-0.3-0.8c1.3-2.5,2.6-4.9,3.9-7.4c8.4-15.8,16.8-31.7,25.1-47.5
		c0.1-0.3,0.3-0.5,0.4-0.7c0.3-0.5,0.5-1.5,1.3-1c0.6,0.3-0.2,1-0.4,1.4c-9.7,18.3-19.4,36.6-29.1,54.9
		C124.6,116.9,124.4,117.5,123.8,117.6z"></path>
	<path d="M75.5,60.2c-1.5,2.8-2.9,5.6-4.4,8.4c-8.4,15.9-16.9,31.9-25.3,47.8c-0.1,0.1-0.2,0.3-0.2,0.4
		c-0.2,0.5-0.6,1.1-1.1,0.7c-0.5-0.3,0.1-0.8,0.2-1.1c9.8-18.4,19.5-36.9,29.3-55.3C74.2,60.5,74.4,59.7,75.5,60.2z"></path>
	<path d="M117,60.2c-0.8,1.6-1.7,3.1-2.5,4.7c-9.1,17.1-18.1,34.2-27.2,51.3c-0.1,0.3-0.3,0.5-0.4,0.7
		c-0.2,0.5-0.6,0.9-1.1,0.6c-0.5-0.3,0.1-0.7,0.2-1c9.8-18.5,19.6-37,29.4-55.5C115.8,60.3,116.1,59.8,117,60.2z"></path>
	<path d="M127.7,117.6c-0.8-0.1-0.4-0.5-0.2-0.8c0.8-1.5,1.6-3,2.4-4.4c9-17.1,18.1-34.1,27.1-51.2
		c0.1-0.2,0.2-0.4,0.3-0.6c0.2-0.4,0.6-0.7,1-0.4c0.5,0.3,0,0.7-0.1,0.9c-2.6,4.9-5.2,9.9-7.8,14.8c-7.2,13.5-14.3,27-21.5,40.6
		C128.5,116.9,128.4,117.5,127.7,117.6z"></path>
	<path d="M158.3,172.4c-0.1,0.2-0.3,0.5-0.4,0.8c-9.8,18.5-19.6,36.9-29.3,55.4c-0.1,0.1-0.1,0.2-0.2,0.3
		c-0.2,0.5-0.6,0.7-1.1,0.4c-0.5-0.3,0-0.6,0.2-0.9c4.2-7.9,8.3-15.8,12.5-23.6c5.6-10.6,11.2-21.2,16.8-31.8c0.2-0.4,0.4-0.7,0.6-1
		c0.1-0.2,0.4-0.2,0.7-0.1C158.3,172,158.4,172.2,158.3,172.4z"></path>
	<path d="M75.4,172.3c-0.1,0.3-0.2,0.5-0.4,0.7c-9.8,18.5-19.6,37-29.4,55.5c-0.1,0.1-0.2,0.3-0.2,0.4
		c-0.2,0.4-0.6,0.6-1,0.4c-0.5-0.3,0-0.6,0.1-0.9c3.3-6.3,6.7-12.7,10-19c6.4-12.1,12.8-24.2,19.2-36.3c0.2-0.4,0.4-0.8,0.7-1.1
		C74.7,171.9,75.2,171.7,75.4,172.3z"></path>
	<path d="M194.7,61c0.1,1-0.1,1.9-0.5,2.9c-9.2,17.3-18.4,34.7-27.6,52c-0.1,0.3-0.3,0.5-0.4,0.7
		c-0.3,0.5-0.6,1.3-1.3,0.9c-0.6-0.3,0.1-0.9,0.4-1.3C174.9,98.1,184.5,80,194,62C194.2,61.6,194.3,61.2,194.7,61z"></path>
	<path d="M194.1,75.6c-0.1,1.9-0.6,3.7-1.5,5.5c-6.3,11.7-12.5,23.5-18.7,35.3c-0.1,0.3-0.3,0.6-0.5,0.8
		c-0.4,0.6-1,0.5-1.4,0.3c-0.5-0.3,0-0.7,0.2-1c7.1-13.3,14.1-26.7,21.2-40C193.6,76.2,193.6,75.7,194.1,75.6L194.1,75.6z"></path>
	<path d="M54,60.2C48.8,70.1,43.5,80,38.2,90c-0.7-1.4-1.1-2.5-0.3-4c4.4-8.1,8.7-16.2,12.9-24.4
		C51.5,60.3,52.3,59.6,54,60.2z"></path>
	<path d="M42.5,114.8c-0.1-0.5-0.1-0.9-0.2-1.4c5.2-9.9,10.5-19.8,15.7-29.7c4-7.6,8-15.1,12-22.7
		c0.1-0.2,0.2-0.3,0.3-0.5c0.2-0.4,0.6-0.6,1-0.4c0.5,0.3,0,0.6-0.1,0.9c-3.9,7.3-7.7,14.6-11.6,21.9c-5.4,10.2-10.8,20.3-16.2,30.5
		C43.1,113.9,42.9,114.5,42.5,114.8z"></path>
	<path d="M194.6,68.4c0.1,1.2,0,2-0.4,2.9c-7.9,14.8-15.7,29.7-23.6,44.5c-0.2,0.4-0.4,0.8-0.6,1.2
		c-0.2,0.4-0.6,0.8-1.1,0.5c-0.4-0.3,0-0.6,0.2-0.9c3.1-6,6.3-11.9,9.5-17.9c5.2-9.8,10.3-19.5,15.5-29.3
		C194.1,69.2,194.3,68.9,194.6,68.4z"></path>
	<path d="M36.5,85.5c-1-1.5-0.9-2.7-0.1-4.2c3.7-6.7,7.2-13.6,10.8-20.3c0.5-0.9,1.4-1.3,2.4-1c0.5,0.1,0.3,0.4,0.2,0.6
		c-0.2,0.4-0.4,0.8-0.6,1.2c-4,7.6-8,15.2-12.1,22.8C36.9,84.9,36.7,85.2,36.5,85.5z"></path>
	<path d="M34.9,81.1c-0.8-0.9-0.8-1.6-0.3-2.6c3.1-5.8,6.2-11.7,9.3-17.6c0.5-0.9,1-1.1,2.1-0.8
		C42.3,67.1,38.6,74.1,34.9,81.1z"></path>
	<path d="M187.9,95.9c-0.4,1.7-0.6,3.5-1.4,5c-2.7,5.2-5.5,10.4-8.2,15.6c-0.5,0.9-1,1.2-2.1,0.9
		c3.8-7.2,7.6-14.4,11.4-21.6C187.7,95.9,187.8,95.9,187.9,95.9z"></path>
	<path d="M33.2,77c-0.5-1.2-0.5-2.1,0-3.1c2.3-4.2,4.5-8.5,6.8-12.8c0.2-0.3,0.3-0.6,0.5-0.8c0.3-0.4,0.9-0.3,1.2-0.2
		c0.5,0.2,0.1,0.5,0,0.8C38.9,66.2,36.1,71.5,33.2,77z"></path>
	<path d="M185.5,107.3c0.1,3.8-2,6.8-3.6,9.9c-0.3,0.7-1,0.6-1.5,0.4c-0.5-0.3,0.1-0.7,0.2-1
		C182.2,113.4,183.9,110.3,185.5,107.3z"></path>
	<path d="M32.5,70c-0.2-1.8,0-3.3,0.8-4.6c0.9-1.4,1.6-3,2.4-4.4c0.5-1,0.5-1,2-0.7C36,63.4,34.3,66.6,32.5,70z"></path>
	<path d="M194.1,75.6c0-0.1,0-0.3,0.1-0.4c0,0,0.1,0.1,0.1,0.1C194.2,75.4,194.2,75.5,194.1,75.6
		C194.1,75.6,194.1,75.6,194.1,75.6z"></path>
</g>
</svg>
