<!--?xml version="1.0" encoding="utf-8"?-->
<!-- Generator: Adobe Illustrator 24.2.3, SVG Export Plug-In . SVG Version: 6.00 Build 0)  -->
<svg version="1.1" id="Camada_1" xmlns="http://www.w3.org/2000/svg" xmlns:xlink="http://www.w3.org/1999/xlink" x="0px" y="0px" viewBox="0 0 229 418" enable-background="new 0 0 229 418" xml:space="preserve">
<g onclick="select(this)" class="" id="estampa-primaria" fill="#ffffff">
	<path d="M43.3154755,120.5660324c0.0284691-2.3716431-0.4590111-4.6724167-0.9516335-6.9733505
		c-0.1159592-0.5416336-0.3904419-0.4311905-0.7769508-0.2810745c-1.7557564,0.6819687-3.5452843,1.1858673-5.4632797,1.1675491
		c-3.7010345-0.035347-7.4035816,0.1325226-11.1025429-0.1539001c-1.8698044-0.144783-3.7439747-0.2618103-5.6183205-0.3134079
		c-3.8254175-0.1053314-7.4480133-1.3213501-11.1703939-1.9861069c-1.7261548-0.3082733-3.4245806-0.7767792-5.1287928-1.1999283
		c-0.6223583-0.1545334-1.1975796-0.4447632-1.7198904-0.8264084c1.7932036-9.4621811,2.67781-19.0589294,4.2438087-28.5559235
		c0.8441892-5.1195831,1.1583543-10.316803,2.2550154-15.4061127c1.7680922-8.2052307,4.5233822-15.9794159,9.6139402-22.7770844
		c2.0456562-2.7316666,4.3404846-5.240078,7.0205536-7.3503761c1.4273224-1.1238823,2.477396-2.6746292,4.1114101-3.5436478
		c3.6025047-1.9159126,7.2584648-3.7254333,11.0307045-5.28339c9.9449806-4.1073265,19.921032-8.1443062,29.3457184-13.3891525
		c2.0102844-1.118721,4.0503998-2.1454039,5.6226578-3.9533529c0.8873672-1.0203838,2.1224518-1.8366318,3.6931229-1.4204988
		c-2.0108643,1.1796284-2.439743,2.2058954-2.0199966,4.4530277c0.4275513,2.2889194,1.4937973,4.2651157,2.7723083,6.1657696
		c5.5502777,8.2511082,11.9080429,15.8050308,19.1893234,22.5971069c3.0789642,2.872097,6.4627762,5.1818428,10.3784943,6.7113991
		c0.7296219,0.2850113,1.4053192,0.7671661,2.2481384,0.6932755l-0.0195007-0.0175781
		c-0.0059357,0.2429848,0.1727142,0.2159576,0.3275986,0.2236862c0.6926956,0.3319168,1.3995209,0.5992584,2.1911774,0.4788704
		c0.1675644-0.000515,0.3351364-0.00103,0.5027008-0.0015411c0.9370193,0.2686615,1.6577377-0.3968735,2.4910507-0.5761108
		c0.8983688-0.3311958,1.796051-0.6642799,2.6952209-0.9932899c5.258667-1.92416,9.1676788-5.6882591,13.1161346-9.452404
		c5.9939117-5.7141266,11.0227661-12.2141247,15.7610931-18.9537144c1.4871521-2.1152267,2.7719421-4.3775358,3.2985382-6.9872799
		c0.372467-1.8458881-0.0813293-3.1546144-1.6365662-4.2228565c1.689743-0.0080633,2.787796,1.0322161,3.800415,2.1853056
		c0.3409882,0.3882942,0.6674042,0.7393484,1.116394,1.0329866c10.0146484,6.5494308,21.2131042,10.5967216,32.1548157,15.1745586
		c3.9646301,1.6587296,7.8813324,3.4354458,11.7173004,5.3391037c2.1572418,1.0705643,3.9098053,2.9785423,5.7968903,4.5659981
		c7.7440948,6.5144882,12.2818298,14.9835739,14.937027,24.5909424c1.0978088,3.9723244,1.9447174,8.0021782,2.3507385,12.0990181
		c0.5504456,5.5546799,2.1298981,10.8914719,3.243454,16.3265305c1.266861,6.1833954,2.1013794,12.4376221,3.0679626,18.6702042
		c-0.3147125,0.1666946-0.6138306,0.378334-0.9463959,0.4935226c-7.6485291,2.6490784-15.4852905,4.6249695-23.569519,5.0004501
		c-5.6739044,0.2635498-11.4182587,0.4822235-17.0656738-0.6848907c-0.5554657-0.1148071-0.760025,0.0102997-0.8614807,0.5922012
		c-0.3760071,2.1567078-0.9715576,4.284668-0.7284698,6.5097427c-0.4395447,0.8079529-0.2937622,1.7098999-0.3952789,2.5685043
		c-0.9904785,8.3778839-1.7196045,16.7745209-1.7455292,25.2196808c-0.0067596,2.2003479,0.0678711,4.3850098,0.5240631,6.5554199
		c0.4012146,1.9087219-0.0424194,3.824707-0.2053833,5.7289886c-0.1811066,2.1159973-0.2472534,4.2288055-0.1484985,6.3471375
		c0.1008301,2.1621704-0.1491394,4.3112488-0.201355,6.4654999c-0.0686493,2.8334503-0.1219788,5.6729736,0.1280365,8.5079346
		c0.1475372,1.6729126,0.0890656,3.3505859-0.0995636,5.0267944c-0.3490601,3.1017303,0.1976471,6.1180725,0.8823853,9.132782
		c1.6445313,7.2402039,1.376709,14.5228577,0.3382416,21.8097839c-0.3054504,2.1432648-0.3711243,4.2084198,0.33078,6.3557587
		c1.7736206,5.4257813,1.8118896,11.0058594,0.9376068,16.6037598c-0.2313843,1.4815369-0.2441101,2.924942,0.0944519,4.391922
		c0.8729248,3.7824249,0.4466705,7.6405487,0.6409302,11.4634857c0.3019714,5.9425049,0.6891174,11.8815613,1.4377136,17.7932434
		c0.2543182,2.0083618,0.2190552,4.0569458,0.2554779,6.0882263c0.0326843,1.8235168-0.3323059,2.3253479-2.0823517,2.8504028
		c-3.0059357,0.901886-6.1241455,1.1565552-9.2253571,1.4766541c-7.6871338,0.7934875-15.4048157,0.8653259-23.1230621,1.0100403
		c-11.2351074,0.2105713-22.4662933,0.6520691-33.7017746,0.8132324
		c-12.4784012,0.1789856-24.9356842-0.8466187-37.4157257-0.8479919
		c-8.3975601-0.0009155-16.7974777-0.1001892-25.1780052-0.7355652c-4.1490288-0.3145447-8.2845459-0.7521667-12.3531036-1.6717529
		c-0.1949997-0.0440674-0.3914108-0.0827026-0.5848618-0.1327515c-3.2452545-0.839325-3.60149-1.1888428-3.4040909-4.5171509
		c0.4607124-7.7680969,1.009407-15.5311584,1.5535927-23.2940521c0.142662-2.0351257,0.2767639-4.0680084,0.2285728-6.1076813
		c-0.0426178-1.8038025,0.03442-3.5982361,0.3603058-5.374054c0.4145927-2.2592163,0.4561462-4.5098877,0.1247139-6.7920074
		c-0.264679-1.8225403-0.3195381-3.6938171,0.1233063-5.4887848c0.676609-2.7424774,0.4015732-5.4645386,0.1611404-8.211441
		c-0.3064613-3.501236-0.7323151-6.9971313-0.5579529-10.5271454c0.2109222-4.2702332,1.2140503-8.371933,2.6384811-12.3757019
		c0.3826904-1.0757294,0.6632652-2.0986328,0.4853249-3.2543335c-0.1889801-1.2274475-0.1528969-2.4721222,0.079216-3.7011414
		c0.3070526-1.6258392,0.1913109-3.2480927,0.1103516-4.8917236c-0.1628189-3.3054199-0.1816635-6.6195679-0.195446-9.9303894
		c-0.0538597-12.9391785-0.0427551-25.8787994-0.1403427-38.817627c-0.0386467-5.1235809-0.9980011-10.1754761-1.512352-15.2625809
		C43.6579247,123.2591858,43.4763603,121.9136505,43.3154755,120.5660324z"></path>
	<path d="M118.6460648,37.2008209c-3.3701782,0.0023422-6.7403717,0.0046844-10.1104202,0.0070038
		c-4.2255859-4.7959595-8.777092-9.2850685-13.1581726-13.9347305c-3.4844666-3.6980877-6.1815872-7.9202614-8.5695572-12.3653116
		c-0.2612915-0.4863997-0.5407562-0.9795322-0.5622482-1.558548c3.0596466,0.2729836,6.1170883,0.5771656,9.1797791,0.813076
		c8.3534698,0.6434383,16.702774,1.4236479,25.0988083,0.8302774c6.7656326-0.4781485,13.5331192-0.9303112,20.2997818-1.3940048
		c-0.3109283,1.6447992-1.2687531,2.9918385-2.0830841,4.3920069c-2.1966553,3.7769995-4.815094,7.2333136-7.8688354,10.3761835
		C126.7548981,28.6041565,122.7176437,32.9191399,118.6460648,37.2008209z"></path>
</g>
<g onclick="select(this)" class="" id="estampa-secundaria" fill="#000000">
	<path d="M0.24,114.6542282c0.6271161-1.7878494,0.8224663-3.6698303,1.1661001-5.5158844
		c1.7377599-9.3355179,2.6830091-18.7905045,4.2152777-28.158905c0.8371372-5.1183167,1.16395-10.3135071,2.2438636-15.4010773
		c2.5645728-12.0819054,7.5691438-22.7654305,17.4678421-30.6766548c0.7775764-0.6214561,1.4521866-1.3703766,2.1903515-2.0428543
		c0.3451481-0.3144302,0.6442928-0.7364502,1.2047501-0.6814384c-0.0749645,1.6059761,0.1229534,3.1710854,0.5459747,4.7288437
		c0.6680069,2.4599037,1.4169407,4.9054985,1.7061501,7.4531021c0.2146378,1.8907242,0.4906616,3.7744026,0.6715984,5.6699715
		c0.1705818,1.7870865,0.6796417,3.581852,0.7475548,5.4162331c0.0733261,1.9804459,0.2341652,3.9539604,0.2568321,5.9420509
		c0.0197411,1.7313614,0.3142319,3.4633598,0.2182579,5.2301826c-0.1990814,3.6648407-0.4385147,7.3668747,0.6670151,10.9356461
		c0.870327,2.8095245,2.2652817,5.4249191,3.2838707,8.1934357c1.2418289,3.3752823,2.4950294,6.7362823,3.232048,10.2573547
		c1.4714317,7.0297318,2.4152527,14.1403275,3.083271,21.2875595c0.0956345,1.0231552,0.4394264,2.0367966,0.1937675,3.082901
		c-2.6076508,1.4009094-5.5014153,1.7242203-8.3489456,1.8467484c-9.4315281,0.405838-18.8354473,0.1746674-28.0829659-2.0636215
		c-2.275907-0.5508652-4.5457335-1.1074448-6.6626148-2.1455231C0.24,116.8929443,0.24,115.7735825,0.24,114.6542282z"></path>
	<path d="M198.9492798,32.193943c0.0828857,2.8913574-1.1482391,5.5171928-1.6739044,8.2853203
		c-0.6529236,3.4384041-1.516861,6.8717194-1.5583191,10.3699036c-0.0311279,2.624855-0.6725616,5.152813-0.6838226,7.7827454
		c-0.022522,5.2558479-0.0332642,10.5199814-0.4218903,15.7707825c-0.3313751,4.4771729-1.6662903,8.6739502-3.4618073,12.747963
		c-1.6192932,3.6741028-2.6347046,7.5322571-3.5155945,11.4316025c-1.5335083,6.7881622-2.6850433,13.6340866-3.0792847,20.5925751
		c-0.0180206,0.3180313-0.0068359,0.6377106-0.0092621,0.9566269c-1.2092133,10.4014969-2.5391083,20.8274612-1.8426666,31.3033218
		c0.4762726,7.1637421-0.2927856,14.257782-0.2503052,21.3849945c0.0111847,1.8784332-0.0845337,3.7611389,0.0112915,5.634613
		c0.1634521,3.1956177,0.2180481,6.3759613-0.0296783,9.5769348c-0.3190308,4.1223755,1.321228,8.0088043,1.7123718,12.0587006
		c0.4197388,4.345993,0.6185608,8.683075,0.0735779,13.0327606c-0.307724,2.4560699-0.5639954,4.9186401-0.8354034,7.3791656
		c-0.048172,0.4367371-0.0223083,0.8622742,0.1295319,1.295639c2.2059479,6.2960052,2.4928589,12.7397766,1.4255066,19.2766266
		c-0.1702423,1.0426941-0.1786346,2.0525513,0.0632629,3.0855865c0.9680481,4.1340485,0.559906,8.3518524,0.7671051,12.5344696
		c0.2844086,5.742218,0.7003784,11.4784851,1.3840485,17.194397c0.2641449,2.2084656,0.1895905,4.4565735,0.2889252,6.685791
		c0.0548248,1.2302246-0.5783539,1.9311523-1.6734772,2.3232422c-1.5914917,0.5698547-3.2506714,0.828186-4.9135284,1.056427
		c-7.8588104,1.0787354-15.7657318,1.3553162-23.6872253,1.507019c-12.9133759,0.2472534-25.824707,0.6009216-38.7370529,0.9036255
		c-0.8785706,0.0206299-1.987587-0.0094299-2.8667068-0.0159607c0.0103836-0.3193665,0-0.6196289,0-0.9389954
		c0.0000381-81.7188873-0.0188904-163.4701843-0.0206451-245.1899872c-0.0000229-1.1683655,5.037735-4.0731812,7.36763-4.6450996
		c8.5414581-2.0966644,15.6918335-6.6238842,21.9859924-12.6342602c2.701767-2.5799351,4.7475281-5.5838432,5.9295502-9.1463442
		c0.6358032-1.9162645,0.7891235-4.426156-0.8198853-5.3597393c1.5528717-0.0899782,2.4657135,0.9475689,3.371521,1.9553804
		c0.3452454,0.3841257,0.6681519,0.7420225,1.1163635,1.0370264c9.6365814,6.3423662,20.4152527,10.2876177,30.962326,14.7046118
		C190.0100861,28.037838,194.4651031,30.1446533,198.9492798,32.193943z"></path>
</g>
<g onclick="select(this)" class="" id="estampa-terciaria" fill="#bf083c">
	<path d="M109.8187256,286.2182617c0.003624-0.5596313,0.0104218-1.1192627,0.0104294-1.678894
		c0.000473-82.1123352,0.0002213-164.2246704,0.0053253-246.3370209c0.0000381-0.5535545,5.9869156-0.3861465,5.9869232,0.157486
		c0.0012665,82.3436203,0.0025482,164.6872406,0.0025177,247.0308533c0,0.3193665-0.0193024,0.6387634-0.029686,0.9580994
		C113.8014984,286.3440247,111.8042221,286.5506897,109.8187256,286.2182617z"></path>
</g>
<path d="M189.3682404,91.1565399c0.0375671-0.1338425,0.0751343-0.2676697,0.1127014-0.4015045
	c0.0261383,0.028389,0.072525,0.0551529,0.0749512,0.0854416c0.012146,0.1519699,0.0203705,0.3102493-0.208313,0.2966614
	C189.3475342,91.1370926,189.3682556,91.1565399,189.3682404,91.1565399z"></path>
<g onclick="select(this)" class="" id="gola-secundaria" fill="#ffffff">
	<path d="M116.381897,49.0477715c-0.833313,0.1792374-1.5540314,0.8447723-2.4916306,0.5762138
		c-0.2429886-0.8100166,0.0134811-1.5773506,0.2099228-2.3466339c0.9254532-3.6241417,2.5626907-6.9285126,4.5458755-10.0765305
		c4.071579-4.2816811,8.1088333-8.5966644,12.2260513-12.8340473c3.0537415-3.1428699,5.6721802-6.599184,7.8688354-10.3761835
		c0.8143311-1.4001684,1.7721558-2.7472076,2.0830841-4.3920069c0.7533875-1.2694387,1.0100403-2.6635509,1.0385284-4.116147
		c0.0198059-1.0104756-0.4715271-1.6589177-1.4058533-1.9923222c-1.0610199-0.3786092-2.1595917-0.5912797-3.2826538-0.5918701
		c-15.6694641-0.0082369-31.3389282-0.00945-47.0083847-0.0003197c-1.2024078,0.0007005-2.3825226,0.2080977-3.5079956,0.6614058
		c-0.7330017,0.2952342-1.1955872,0.8186088-1.2209396,1.6196523c-0.0457764,1.4464493,0.1008453,2.8654075,0.8091202,4.1703057
		c0.0213013,0.5789623,0.300766,1.0720949,0.5620575,1.5584946c2.38797,4.4450502,5.0850906,8.6672239,8.5695572,12.3653116
		c4.3810806,4.649662,8.9325867,9.1387711,13.1583099,13.9347115c2.2260818,3.3094826,3.8987961,6.8636017,4.8087921,10.7629395
		c0.1308823,0.5608521,0.1703644,1.0992241,0.0435715,1.6546783c-0.7916565,0.120388-1.4984818-0.1469536-2.1913986-0.4788055
		c-0.0642853-0.1402206-0.1510849-0.2473221-0.3273773-0.2237511c0,0,0.0195007,0.0175781,0.0195007,0.0175819
		c-1.0149002-4.6100464-2.9440384-8.7701225-6.1842422-12.2461243c-2.6970062-2.8932724-5.4329224-5.751564-8.1998749-8.5781593
		c-3.83992-3.9226913-7.426918-8.0305252-10.2087784-12.8014402c-1.953331-3.3499784-3.538353-6.7904634-3.5216599-10.769886
		c0.3887329-1.9640388,2.3138046-3.5002825,4.8151779-3.8288832c1.3080978-0.1718415,2.6194916-0.2685983,3.9428711-0.2676472
		c14.7557983,0.0106048,29.5116043,0.0095289,44.2674103,0.0041322c1.6841431-0.000616,3.3609924,0.0772934,4.9909973,0.5180932
		c1.4780121,0.3996955,2.6998138,1.1730733,3.345108,2.6483269c0.7675629,2.8465242-0.0760956,5.4809065-1.2373657,7.9960232
		c-1.9331055,4.1867867-4.3998566,8.0750628-7.5047913,11.4869471c-4.1099091,4.5162182-8.3819962,8.8846245-12.5557861,13.343298
		C119.4875946,40.0241508,117.3455429,44.2388077,116.381897,49.0477715z"></path>
</g>
<g onclick="select(this)" class="" id="detalhe-punho" fill="#bf083c">
	<path d="M43.3154755,120.5660324c-1.4355507,0.9719238-3.1036453,1.2496643-4.7561264,1.4678955
		c-6.7249794,0.8881226-13.4724941,0.7420044-20.2071953,0.1770859c-5.0925493-0.4271774-10.1221333-1.2906342-15.0371294-2.7495346
		C2.2495277,119.1452103,1.2605952,118.665741,0.24,118.2521973c0-1.1193542,0-2.2387161,0-3.3580704
		c0.5486878-1.013916,0.4496389-2.1613922,0.6660056-3.2437286c0.1129808-0.5651779,0.0608322-1.1747894,0.4776655-1.6509933
		c0.5223107,0.3816452,1.097532,0.671875,1.7198904,0.8264084c1.7042122,0.4231491,3.402638,0.891655,5.1287928,1.1999283
		c3.7223806,0.6647568,7.3449764,1.8807755,11.1703939,1.9861069c1.8743458,0.0515976,3.7485161,0.1686249,5.6183205,0.3134079
		c3.6989613,0.2864227,7.4015083,0.1185532,11.1025429,0.1539001c1.9179955,0.0183182,3.7075233-0.4855804,5.4632797-1.1675491
		c0.3865089-0.150116,0.6609917-0.2605591,0.7769508,0.2810745
		C42.8564644,115.8936157,43.3439445,118.1943893,43.3154755,120.5660324z"></path>
	<path d="M184.629776,120.3339005c-0.2430878-2.2250748,0.3524628-4.353035,0.7284698-6.5097427
		c0.1014557-0.5819016,0.306015-0.7070084,0.8614807-0.5922012c5.6474152,1.1671143,11.3917694,0.9484406,17.0656738,0.6848907
		c8.0842285-0.3754807,15.92099-2.3513718,23.569519-5.0004501c0.3325653-0.1151886,0.6316833-0.326828,0.9463959-0.4935226
		c0.846756,1.1987991,0.5564423,2.6714325,0.9425964,3.9882355c0.2302704,0.7852707,0.0896912,1.6713486,0.2314148,2.4921799
		c0.2250977,1.3037643-0.4503174,1.8661575-1.5581207,2.2358398c-5.7537537,1.920105-11.6115112,3.3484344-17.6209106,4.2630234
		c-5.4544983,0.8301239-10.9163971,0.6914978-16.3850403,0.6551743c-2.4737091-0.0164337-4.9351349-0.3196335-7.3445587-0.9341354
		C185.5209961,120.9840088,184.999527,120.7955399,184.629776,120.3339005z"></path>
</g>
<g onclick="select(this)" class="" id="gola-terciaria" fill="#bf083c">
	<path d="M113.3881454,49.6254234c0.1267929-0.5554543,0.0873108-1.0938263-0.0435715-1.6546783
		c-0.909996-3.8993378-2.5827103-7.4534569-4.8089294-10.7629204c3.3700485-0.0023193,6.740242-0.0046616,10.1104202-0.0070076
		c-1.9831848,3.1480217-3.6204224,6.4523926-4.5458755,10.0765343c-0.1964417,0.7692833-0.4529114,1.5366173-0.2099228,2.3466339
		C113.7232819,49.6243935,113.5557098,49.6249084,113.3881454,49.6254234z"></path>
</g>
<path d="M110.8693695,48.9228668c0.1762924-0.023571,0.263092,0.0835304,0.3273773,0.2237511
	C111.0420837,49.1388245,110.8634338,49.1658516,110.8693695,48.9228668z"></path>
<g onclick="select(this)" class="" id="gola-primaria" fill="#000000">
	<path d="M116.381897,49.0477715c0.9636459-4.8089638,3.1056976-9.0236206,6.4560394-12.6026421
		c4.17379-4.4586735,8.4458771-8.8270798,12.5557861-13.343298c3.1049347-3.4118843,5.5716858-7.3001604,7.5047913-11.4869471
		c1.1612701-2.5151167,2.0049286-5.1494989,1.2373657-7.9960232c1.0215149,0.579803,1.5800476,1.6334033,2.4385681,2.3822198
		c0.9803619,0.8550615,1.8003998,1.9075398,3.041687,2.4371476c1.5554199,1.0682402,2.0092163,2.3769665,1.6367493,4.2228546
		c-0.5265961,2.6097441-1.8113861,4.8720531-3.2985382,6.9872799c-4.738327,6.7395897-9.7671814,13.2395878-15.7610931,18.9537144
		c-3.9484558,3.7641449-7.8574677,7.528244-13.1161346,9.452404
		C118.177948,48.3834915,117.2802658,48.7165756,116.381897,49.0477715z"></path>
	<path d="M82.7743149,4.5448394c-0.0166931,3.9794221,1.5683289,7.4199071,3.5216599,10.769886
		c2.7818604,4.770915,6.3688583,8.8787489,10.2087784,12.8014402c2.7669525,2.8265953,5.5028687,5.6848869,8.1998749,8.5781593
		c3.2402039,3.4760017,5.169342,7.6360779,6.1842422,12.2461243c-0.8428192,0.0738869-1.5185165-0.408268-2.2481384-0.6932793
		c-3.9157181-1.5295563-7.29953-3.8393021-10.3784943-6.7113991c-7.2812805-6.7920761-13.6390457-14.3459988-19.1893234-22.5971069
		c-1.278511-1.9006538-2.3447571-3.8768501-2.7723083-6.1657696c-0.4197464-2.2471323,0.0091324-3.2733994,2.0199966-4.4530277
		c1.2253876-0.542841,2.0059662-1.6151767,2.9658661-2.4759879C81.7761993,5.4046993,82.0902557,4.761116,82.7743149,4.5448394z"></path>
	<path d="M140.8240356,9.5985832c-6.7666626,0.4636936-13.5341492,0.9158564-20.2997818,1.3940048
		c-8.3960342,0.5933704-16.7453384-0.1868391-25.0988083-0.8302774c-3.0626907-0.2359104-6.1201324-0.5400925-9.1797791-0.813076
		c-0.7080841-1.3048449-0.8547058-2.723803-0.8089294-4.1702523c0.0253525-0.8010435,0.4879379-1.3244181,1.2209396-1.6196523
		c1.125473-0.4533081,2.3055878-0.6607053,3.5079956-0.6614058c15.6694565-0.0091302,31.3389206-0.0079172,47.0083847,0.0003197
		c1.1230621,0.0005903,2.2216339,0.2132609,3.2826538,0.5918701c0.9343262,0.3334045,1.4256592,0.9818466,1.4058533,1.9923222
		C141.8340759,6.9350324,141.5774231,8.3291445,140.8240356,9.5985832z"></path>
</g>
</svg>
