<!--?xml version="1.0" encoding="utf-8"?-->
<!-- Generator: Adobe Illustrator 24.2.3, SVG Export Plug-In . SVG Version: 6.00 Build 0)  -->
<svg version="1.1" id="Camada_1" xmlns="http://www.w3.org/2000/svg" xmlns:xlink="http://www.w3.org/1999/xlink" x="0px" y="0px" viewBox="0 0 234 419" enable-background="new 0 0 234 419" xml:space="preserve">
<g onclick="select(this)" class="" id="c-gola-primaria" fill="#bf0811">
	<path d="M81.7952118,7.9990535c1.6781845-1.1197271,3.1896591-2.4555039,4.3640366-4.0749402
		c1.6609879-2.2904654,3.8820572-3.1914594,6.6071777-3.1837227c0.4740753,0.0013459,1.0870972,0.2121129,1.3135757-0.5005281
		c15.9200058,0,31.8400116,0,47.7600098,0c0.5769348,0.5227466,1.3368073,0.4032389,2.0122223,0.5286498
		c2.1552429,0.4001848,4.0043488,1.2280067,5.3745117,3.0519443c1.1809387,1.5720601,2.7301483,2.7945714,4.2997284,3.9714103
		c-3.7754364,0.5393558-7.5357819,1.2280965-11.3273926,1.5887961c-10.6040344,1.0087786-21.2079315,2.166419-31.8936996,1.4243965
		c-3.1847458-0.2211494-6.3742294-0.3757553-9.5579987-0.6090803c-4.9711533-0.364315-9.9009094-1.1010799-14.8281097-1.8183441
		C84.5413132,8.1770439,83.1377792,8.4355898,81.7952118,7.9990535z"></path>
</g>
<g onclick="select(this)" class="" id="c-estampa-primaria" fill="#bf0811">
	<path d="M46.563179,118.2222443c-0.0053787-1.183342-0.0107574-2.3666763-0.0160866-3.5501328
		c0.4659691-3.5538559-0.8902283-6.9151535-1.1747475-10.4006424c-0.1778526-2.178772,0.1230736-4.523468-0.9696426-6.6009369
		c0.2142792-4.2085571-0.9718552-8.2517548-1.4422035-12.3788147c-0.4165764-3.6552429-1.5908356-6.9612808-3.7826271-9.9228821
		c-0.5173111-0.6990051-0.878624-1.5161285-1.2888336-2.2910004c-1.6738281-3.1617966-2.3613968-6.6662598-3.4535027-10.0285034
		c-2.0972748-6.4568939-3.4270191-13.0566826-3.4706383-19.8752785c-0.0071144-1.1117973,0.2079868-2.2083588,0.2779732-3.3180962
		c0.1226978-1.9455872-0.0349522-3.9135056,0.4112911-5.8417435c0.1230946-0.5319099,0.1154919-1.1185951-0.2285233-1.6205292
		c4.224268-1.9790554,8.4095592-4.0421658,12.7529583-5.7602558c7.1321449-2.8212128,14.1532555-5.9028912,21.1440582-9.0550594
		c3.9481277-1.7802191,7.5953979-4.0840569,11.2429428-6.3904724c0.4523468-0.286025,0.7430496-0.7165833,1.0997238-1.091217
		c1.1263275-1.1830215,2.375-2.1437111,4.130127-2.0975246c1.3423309,0.4364347,2.7458649,0.1778889,4.1238251,0.37848
		c4.9272003,0.7172642,9.8569565,1.4540291,14.8281097,1.8183441c3.1837692,0.233325,6.3732529,0.3879309,9.5579987,0.6090803
		c10.6857681,0.7420225,21.2896652-0.4156179,31.8936996-1.4243965c3.7916107-0.3606997,7.5519562-1.0494404,11.3273926-1.5887961
		c1.9446259,0.0193148,3.3872681,0.9853177,4.6062012,2.4036698c1.0662689,1.2407417,2.5358582,1.9305172,3.9185944,2.7084713
		c9.5229645,5.3578253,19.5461884,9.6428461,29.6830139,13.6674452c3.9784698,1.5795708,7.690567,3.7172756,11.6431274,5.3409061
		c0.1742401,0.0715752,0.3094635,0.2380314,0.4627991,0.3601894c-0.4069672,0.5227547-0.4762421,1.2061386-0.2716827,1.7161903
		c0.4538269,1.1317139,0.1228027,2.2535553,0.178009,3.3726959c0.1442108,2.9240303,0.5751038,5.8408432,0.2544861,8.7795525
		c-0.2671051,2.4481697-0.3092957,4.9418678-0.8142242,7.3390007c-1.3115692,6.2267609-3.1703033,12.3148193-5.2812195,18.3148727
		c-0.7233124,2.0560226-1.7638092,4.0645142-3.4004974,5.5425034c-0.9956818,0.8991394-1.7586823,1.841507-2.1265106,3.0757675
		c-1.2243652,4.1081772-1.5516205,8.3596039-1.7804413,12.6044159c-0.1525116,2.8287888-0.3384247,5.6222229-1.0775299,8.3779449
		c-0.5473022,2.0405807-0.7767029,4.1761093-0.5781555,6.273468c0.1568451,1.6570282-0.1188049,3.2417679-0.2446136,4.8568726
		c-0.0404053,2.6245956-0.6573944,5.2096024-0.5391235,7.8450851c-0.4489594,0.2575073-0.2702484,0.7125244-0.3135986,1.0791779
		c-1.2413483,10.5049667-1.4894104,21.0417252-0.9481812,31.5993576c0.1662598,3.2433929-0.087677,6.4668121-0.2795715,9.6972504
		c-0.3607941,6.0736237,0.1223907,12.1427765,0.1457672,18.2147064c0.0103149,2.6793365-0.1021118,5.3511047-0.4322815,8.0139923
		c-0.2367706,1.9098663-0.2719879,3.8260651,0.0496826,5.7355804c0.0464172,0.2754822,0.1215515,0.5604858,0.0937347,0.8318939
		c-0.3126831,3.0526733,0.522522,5.905365,1.3583374,8.7943726c1.6499481,5.7030182,1.9922333,11.539566,1.5094452,17.4485779
		c-0.3468628,4.2449493-0.8688049,8.4920959-0.0210419,12.7551575c0.2144012,1.0780792,0.1135559,2.2329254,0.0599823,3.3478241
		c-0.3651428,7.5992432,0.7537537,15.1268005,1.0924377,22.6917877c0.2391968,5.3427734,0.695282,10.6752319,0.9338837,16.0210266
		c0.0690002,1.5457458,0.2881775,3.0946045,0.2843933,4.6512756c-0.004303,1.7687683-0.2490845,2.1618652-1.9274139,2.6983032
		c-4.4263763,1.4148254-8.9795227,2.2865601-13.5679626,2.944397c-11.5893097,1.6616211-23.2747192,1.8406372-34.9467316,1.9870605
		c-21.5126724,0.2699585-43.0280762,0.6168213-64.5417786,0.3160095
		c-10.0044556-0.1399231-19.9631386-1.0458679-29.6620255-3.7736511c-3.6749039-1.0335693-3.7975426-1.0592957-3.5729256-4.8137512
		c0.4194565-7.0112305,0.9851761-14.0138855,1.5068588-21.0188599c0.2404671-3.2288208-0.1057968-6.4777679,0.3547783-9.6977844
		c0.0791359-0.5532532,0.0903854-1.1240082,0.23592-1.6586914c0.8769379-3.2216339,0.0700493-6.4328766-0.054657-9.6429749
		c-0.1797371-4.6266632,0.2290459-9.1895599,1.4315758-13.6493683c0.4302254-1.59552,0.4745674-3.1356812,0.2800369-4.7204742
		c-1.0652695-8.6782684-0.8899117-17.300293,1.0741653-25.8546143c0.3130112-1.3632813,0.4456902-2.7727051,0.3333054-4.1702423
		c-0.381813-4.7480774,0.0052261-9.5021973-0.169754-14.2532043c-0.2117043-5.7481232-0.049614-11.5061798-0.4568825-17.2516174
		c-0.254734-3.5935211,0.41399-7.162674,0.2963448-10.7697296c-0.3126602-9.5863953-0.864727-19.1581116-1.4703903-28.7281189
		C46.8132248,118.8648148,46.9605751,118.4593201,46.563179,118.2222443z"></path>
	<path d="M188.6978302,112.5258331c0.1258087-1.6151047,0.4014587-3.1998444,0.2446136-4.8568726
		c-0.1985474-2.0973587,0.0308533-4.2328873,0.5781555-6.273468c0.7391052-2.755722,0.9250183-5.5491562,1.0775299-8.3779449
		c0.2288208-4.244812,0.556076-8.4962387,1.7804413-12.6044159c0.3678284-1.2342606,1.1308289-2.1766281,2.1265106-3.0757675
		c1.6366882-1.4779892,2.6771851-3.4864807,3.4004974-5.5425034c2.1109161-6.0000534,3.9696503-12.0881119,5.2812195-18.3148727
		c0.5049286-2.3971329,0.5471191-4.890831,0.8142242-7.3390007c0.3206177-2.9387093-0.1102753-5.8555222-0.2544861-8.7795525
		c-0.0552063-1.1191406,0.2758179-2.2409821-0.178009-3.3726959c-0.2045593-0.5100517-0.1352844-1.1934357,0.2716827-1.7161903
		c0.2737274,0.1590652,0.5721893,0.2868462,0.8175354,0.4814796c10.1980286,8.0904961,16.7229156,18.4832726,19.743042,31.1452904
		c1.3559875,5.6850319,1.9811249,11.4740028,2.9464417,17.2147942c1.6348114,9.7222748,2.6294403,19.5462036,4.6751862,29.2010117
		c0.0982513,0.463768,0.0819855,0.9517746,0.1190948,1.4285812c-2.6624298,0.6754913-5.3132629,1.4063416-8.0528412,1.7198792
		c-3.2033081,0.3666-6.4080658,0.7206268-9.6104279,1.0951157c-2.9236603,0.3418884-5.8379669,0.904007-8.769104,1.0065155
		c-3.7044525,0.1295547-7.4232941-0.068306-11.1326752-0.2101593c-1.2049866-0.0460663-2.331665-0.5916901-3.2850342-1.3171768
		C190.4791412,113.419754,189.8283386,112.5811768,188.6978302,112.5258331z"></path>
	<path d="M31.4256382,32.3936844c0.3440151,0.5019341,0.3516178,1.0886192,0.2285233,1.6205292
		c-0.4462433,1.9282379-0.2885933,3.8961563-0.4112911,5.8417435c-0.0699863,1.1097374-0.2850876,2.2062988-0.2779732,3.3180962
		c0.0436192,6.8185959,1.3733635,13.4183846,3.4706383,19.8752785c1.0921059,3.3622437,1.7796745,6.8667068,3.4535027,10.0285034
		c0.4102097,0.7748718,0.7715225,1.5919952,1.2888336,2.2910004c2.1917915,2.9616013,3.3660507,6.2676392,3.7826271,9.9228821
		c0.4703484,4.1270599,1.6564827,8.1702576,1.4422035,12.3788147c1.0927162,2.0774689,0.79179,4.4221649,0.9696426,6.6009369
		c0.2845192,3.4854889,1.6407166,6.8467865,1.1747475,10.4006424c-0.7342834-0.1647568-0.4405403-0.7595291-0.4436913-1.1752014
		c-0.0064087-0.8451843-0.3373947-1.1737671-1.0873833-0.7108154c-2.1440201,1.3234711-4.503933,1.3891373-6.9232025,1.406723
		c-5.9878693,0.0435028-11.9068069-0.3800735-17.8393574-1.3505173c-5.7283249-0.9370346-11.4491043-1.8993073-17.1551247-2.9598007
		c-0.4830325-0.0897675-0.9225605-0.2303543-1.3358734-0.4796906c1.2440469-7.9673233,2.1965909-15.9947205,4.3842006-23.7802811
		c1.4992447-5.335701,1.9565887-10.8423233,2.9865932-16.2524109c1.5338802-8.056694,3.9407263-15.8068924,8.3908644-22.7923698
		c2.7516975-4.319397,6.1700726-8.0570145,10.2076225-11.1988678C28.982914,34.4052696,29.9594669,33.0947647,31.4256382,32.3936844
		z"></path>
</g>
<g onclick="select(this)" class="" id="c-estampa-secundaria" fill="#801815">
	<path d="M231.1837616,106.3401489c0.3734436,1.7254562,0.8186798,3.4319992,1.0698242,5.1878052
		c0.2537842,1.7743149,0.6772766,3.5243759,1.0264282,5.2850723c0,1.0394058,0,2.078804,0,3.1182098
		c-0.898056-0.0273743-1.6727905,0.6128769-2.590683,0.4780502c-0.0075073-1.7878265-0.0229034-3.5756607-0.0189209-5.363472
		c0.0018311-0.820816-0.127533-1.6544189,0.4019165-2.4131165c0.1543427-0.2211685,0.076889-0.6144257,0.0795288-0.9290314
		C231.1668701,109.915863,231.1739655,108.1279907,231.1837616,106.3401489z"></path>
	<path d="M17.2494774,120.6248398c0.0072708-6.5531998,0.0153828-13.1063919,0.0214119-19.659584
		c0.0024624-2.6772842,0.0039101-5.3545685-0.0028896-8.0318375c-0.0011826-0.4663086,0.1006298-0.9444199-0.2969742-1.3540421
		c-0.270546-0.278717-0.1209049-0.691124-0.121479-1.041687c-0.0075722-4.6352768,0.214056-9.2833862-0.0561485-13.9028854
		c-0.4082317-6.9792862-0.057169-13.9528122-0.2175293-20.9263725c-0.0090923-0.3954315-0.0011768-0.791256-0.0011768-1.1565132
		c0.3853798-0.1579819,0.4917488,0.0931015,0.6212616,0.2788086c0.4547672,0.6520805,0.8414936,1.364006,1.3696728,1.9489212
		c0.5029984,0.5570335,0.6071987,1.1421928,0.6051712,1.8479462c-0.0181427,6.3135452,0.1613121,12.6333008-0.064024,18.938858
		c-0.1867218,5.2249908,0.1273994,10.4567566-0.2237434,15.6604919c-0.2768669,4.1030273-0.1212521,8.1913071-0.1928787,12.2849197
		c-0.0719929,4.1145706-0.0323219,8.2314911-0.0024834,12.3471069c0.0062695,0.8647766-0.0285873,1.65802-0.7113934,2.2916107
		c-0.1396255,0.1295624-0.2063293,0.337616-0.3066444,0.5094986
		C17.5295792,120.6483307,17.3895264,120.6365891,17.2494774,120.6248398z"></path>
	<path d="M15.3033667,50.4891548c0.1077442,0.8856735-0.1718102,1.8439217,0.5651417,2.6115379
		c0.2197123,0.2288513,0.1550055,0.6041298,0.1548967,0.9251976c-0.0022221,6.5512772-0.0017052,13.1025505-0.0015221,19.6538353
		c0.0000019,0.1198273,0.0377922,0.2530289-0.0018196,0.3573074c-0.2481251,0.6531906-0.3568954-0.091423-0.5855865-0.0534592
		c-0.2024555,0.1001816-0.1376228,0.3520279-0.0827656,0.4708557c0.3668795,0.7946091,0.2573128,1.6308746,0.2582903,2.4556351
		c0.0051126,4.3142548,0.1860371,8.6379013-0.0343304,12.9408875c-0.5207777,10.1689529-0.0384779,20.340004-0.2677364,30.5071411
		c-0.6543398,0.0866852-1.2575808-0.1454926-1.873292-0.2998505c0.0489092-0.7820435,0.0489092-0.7820435,0.7060909-0.4602051
		c0-0.3353348,0.0000029-0.6437836-0.000001-0.9522247c-0.0000629-4.3503723,0.0575418-8.7017212-0.016367-13.0508347
		c-0.0742579-4.3696823,0.3333702-8.749733-0.2535686-13.1091461c0.1570797-5.4095154-0.3028679-10.8270874,0.2509775-16.2338562
		c0.1294708-1.2639313,0.017087-2.5523911,0.0208797-3.8295517c0.0008411-0.2832718,0.0022402-0.5630569-0.2090654-0.7852936
		c-0.4825954-0.5075531-0.4931784-1.1310577-0.4930191-1.7820282c0.0012398-5.0684433-0.0142412-10.1368828-0.0245543-15.2053223
		C13.8660517,53.1817627,14.5176039,51.8050537,15.3033667,50.4891548z"></path>
	<path d="M199.4035187,123.7235336c0.0022278-4.795433,0.0034485-9.5908585,0.0084534-14.3862915
		c0.0004578-0.4405594,0.0693665-0.9195557-0.2472839-1.2614136c-0.458725-0.4952087-0.4593353-1.0678253-0.4586945-1.6748352
		c0.0065765-6.3540039-0.2332458-12.7194595,0.072876-19.0587082c0.2887268-5.9790039,0.0622253-11.9474335,0.218689-17.9178391
		c0.0314331-1.1998291,0.4998932-2.3182602,0.8178558-3.4623947c0.2751617-0.9901276,0.7497406-1.9158249,1.0625-2.936451
		c0,0.6418419-0.0000153,1.2836876-0.0000153,1.9255409c-0.0000153,6.7935944-0.0000153,13.5871887-0.0000153,20.3807831
		c0.5735016,3.4826355,0.1920013,6.9906464,0.2602081,10.4860764c0.0678406,3.4753952,0.0149994,6.9531479,0.0147858,10.4298706
		c-0.0000458,0.6318588,0.0736237,1.2566528-0.4226532,1.8028641c-0.2742767,0.3018875-0.1242523,0.771553-0.1252441,1.1659622
		c-0.0119476,4.8351517-0.0169983,9.6703186-0.0238495,14.5054779
		C200.1886749,123.7913895,199.7961426,123.7907486,199.4035187,123.7235336z"></path>
	<path d="M10.2916594,64.442215c-0.0139151-0.8878593,0.2877626-1.7148094,0.5356407-2.5435333
		c0.5427494-1.8145638,0.9909534-3.6646309,1.8619614-5.3663101c0.1675892,4.1523209,0.0302029,8.3064346,0.0697432,12.4595261
		c0.0014496,0.1522598-0.0092268,0.4151611-0.0805693,0.4405899c-0.7657309,0.2728195-0.4689989,0.914093-0.4621897,1.3968735
		c0.0464745,3.2958527-0.2240744,6.6014099,0.2715483,9.8847122c-0.162921,5.2902298,0.0423346,10.5782471-0.2097969,15.8779297
		c-0.3147812,6.6165543-0.0762758,13.2594147-0.0735493,19.8909225c0.0000982,0.2379074-0.057848,0.5502014,0.0659094,0.7013092
		c0.6840439,0.8351822,0.4596615,1.8092041,0.4944878,2.7453461c-0.8499718,0.0814819-1.6388683-0.2080765-2.4435444-0.4017639
		c0.0009775-1.3582687,0.0008841-2.7165298,0.0041218-4.074791c0.0004711-0.1978607-0.0325613-0.5492325,0.0333128-0.5704041
		c0.9221315-0.2964249,0.4341774-1.0458069,0.4235163-1.5249405c-0.1195278-5.3719025,0.0619488-10.7411118-0.1627998-16.1206894
		c-0.22717-5.4375229-0.2469406-10.9030304,0.1326485-16.3661118c0.2955837-4.2540359,0.0595694-8.5449982,0.0583086-12.8195419
		c-0.0000458-0.1587296,0.0408258-0.3532791-0.0333214-0.4705429C10.1573858,66.6007385,10.3744774,65.4994431,10.2916594,64.442215
		z"></path>
	<path d="M39.6557922,121.9503555c-0.0071526-4.2363968-0.0135269-8.4728012-0.0224304-12.709198
		c-0.0011597-0.5520554,0.084343-1.1135864-0.3788719-1.5740051c-0.2801437-0.2784653-0.1668663-0.6835403-0.1670799-1.0363159
		c-0.0039902-6.4752197-0.0028343-12.9504318-0.0027695-19.4256516c0.5577965-3.6037598,0.1487389-7.2324371,0.282444-10.847084
		c0.0025635-0.0693207,0.0432854-0.1372223,0.0939445-0.2887726c1.0413857,1.0920563,1.8020096,2.3158569,1.7550011,3.7866821
		c-0.1285858,4.023407,0.4017487,8.0213547,0.3301239,12.0435486c-0.0860977,4.8348923-0.0271606,9.6725235-0.0111046,14.5088959
		c0.0019226,0.5800323-0.0409317,1.1257553-0.4395103,1.5637589c-0.3430901,0.3770294-0.2665062,0.8154678-0.2672005,1.2467194
		c-0.0067177,4.196846-0.0096474,8.3936996-0.0136528,12.5905457
		C40.4577751,122.0978928,40.0628471,122.073967,39.6557922,121.9503555z"></path>
	<path d="M7.6598439,79.3972015c0.3364153-3.1926041,0.671824-6.3853607,1.394876-9.5213928
		c0.0095596,3.0714111,0.0963926,6.1450806,0.0069218,9.2136154c-0.0893087,3.0629578,0.3717241,6.0946503,0.3150959,9.1564484
		c-0.0911598,4.9287949,0.0175638,9.8587418-0.2670021,14.7875748c-0.14921,2.5843811-0.0326128,5.1844788-0.0228052,7.7774277
		c0.0032635,0.8628235-0.1610222,1.7540588,0.4144859,2.5368195c0.1004391,0.1366043,0.0676069,0.3837433,0.0672073,0.5797653
		c-0.0037422,1.8347168-0.013833,3.6694183-0.0220881,5.5041199c-0.8883066,0.0366745-1.7252178-0.1920929-2.5481968-0.4928207
		c0-2.9137802,0-5.8275604,0-8.7605896c0.2283454,0.0498657,0.4119411,0.0899506,0.5980372,0.1305847
		c0.177875-0.3502884,0.0921545-0.7166901,0.0839944-1.0672913c-0.0608926-2.6163635,0.0206633-5.2269516-0.2247515-7.8510513
		C7.2073355,98.735672,7.3523722,96.0385208,7.4147801,93.36203c0.0619512-2.6568985-0.1393623-5.3088074,0.2187428-7.9769287
		C7.8968329,83.4232559,7.6688776,81.3955536,7.6598439,79.3972015z"></path>
	<path d="M224.9087982,121.539772c-0.0024414-9.3944092,0.1727142-18.7934875-0.074295-28.1814651
		c-0.1468506-5.5817108-0.1241302-11.1598053-0.2076263-16.7390137c-0.0105743-0.7064209-0.0961151-1.4236069,0.2559204-2.0973816
		c0.0792389-0.1516724,0.0116425-0.3799973,0.0116425-0.5767365c-0.2756348,0.0283813-0.2829895,0.3809967-0.5185242,0.3103943
		c-0.2554932-0.0765839-0.1611481-0.3253632-0.1608124-0.5069122c0.0063629-3.437233,0.0176544-6.8744659,0.0279083-10.3116951
		c0.9148712,2.9609642,1.5433655,5.9810905,1.8747406,9.0626106c-0.0582275,1.9831085,0.1934509,3.9626007,0.2021179,5.9316483
		c0.024353,5.5234375,0.0288544,11.0464249-0.1554871,16.5752945c-0.2657166,7.9696274-0.0692902,15.9546967-0.0616913,23.9331589
		c0.0001831,0.2043228-0.1235962,0.449379,0.0961609,0.6285706c0.2062073-0.045166,0.2968903-0.2941895,0.5931396-0.2460098
		c0,0.6141129,0,1.243042,0,1.8719711C226.1887665,121.4427414,225.5710144,121.6123505,224.9087982,121.539772z"></path>
	<path d="M4.2716866,93.9675522c0.2753429-2.1793671,0.7990365-4.3058548,1.369194-6.4224472
		c0.087842,0.6949768,0.4021592,1.3305893,0.3976941,2.0628738c-0.0287476,4.7149124-0.0134964,9.4300842-0.0163021,14.1451721
		c-0.000257,0.4320755-0.1775079,0.8769302-0.1905499,1.2595978c-0.0419908,1.2320328-0.4883823,2.5474548,0.4282103,3.6837616
		c0.2403789,0.2980042,0.1804624,0.6826324,0.180264,1.0417938c-0.0014586,2.6372528-0.0056381,5.2745209,0.003778,7.9117432
		c0.0014482,0.4057007-0.0360465,0.7945404-0.191473,1.1695099c-0.7704854-0.0782852-1.5333862-0.1930923-2.2627523-0.4693756
		c-0.0424781-4.021286,0.177212-8.0450211-0.1132572-12.0639038c-0.014684-0.2031784-0.0295718-0.4205322,0.1297522-0.5603104
		c0.3580637-0.3141327,0.2722235-0.7222672,0.2722111-1.1115341C4.2783432,101.0654755,4.2744646,97.51651,4.2716866,93.9675522z"></path>
	<path d="M227.4919739,121.0994492c-0.0059509-0.7974625-0.0094452-1.5949478-0.0187683-2.3923721
		c-0.0056305-0.4807358-0.0211639-0.9524918,0.3608856-1.3382797c0.2822876-0.2850876,0.1990204-0.6716003,0.1990814-1.0261154
		c0.0011902-6.5799561,0.0008698-13.1599274,0.0008698-19.7398834c-0.5767212-3.3141937-0.1656342-6.6565704-0.2796783-9.9840622
		c-0.0245361-0.7159348,0.0278931-1.4345016,0.0448456-2.1518555c0.5018616,1.7122574,0.7251434,3.4796829,0.9906311,5.2348022
		c0.3550415,2.3471756,0.8162537,4.6824875,0.9221497,7.0627747c0.1897888,0.7734222-0.2976685,1.4515915-0.2948151,2.210228
		c0.0189667,5.0321198,0.0097351,10.0643463,0.0108795,15.0965347c0.0000458,0.1988068-0.0529633,0.5368271,0.0288696,0.5751648
		c0.9576416,0.4485397,0.3799744,1.2681961,0.4252319,1.8837051c0.09935,1.350563,0.0304718,2.7134933,0.0302734,4.071373
		C229.1361237,120.9155731,228.3311768,121.0906677,227.4919739,121.0994492z"></path>
	<path d="M0.7363377,117.6535645c-0.0068347-1.0174255-0.0136694-2.0348434-0.0205041-3.052269
		c-0.0031552-0.8846207,0.2345758-1.718338,0.4631141-2.5665817c0.251619-0.9339142,0.3640261-1.9058304,0.5274096-2.8628311
		c0.3920449-2.2963867,0.7784306-4.5937347,1.1670974-6.890686c-0.1406858,0.9208679,0.2875693,1.785141,0.2916465,2.6804962
		c0.0200596,4.4049301-0.0012877,8.810051-0.0080163,13.2151108C2.3297124,118.0969162,1.5113994,117.975174,0.7363377,117.6535645z
		"></path>
	<path d="M36.3255272,122.2426224c-0.0104256-2.9468842-0.0186768-5.8937759-0.0343361-8.8406219
		c-0.0017357-0.326889,0.0405579-0.6115112,0.2564583-0.8874283c0.3603706-0.460556,0.6723366-0.9589462,0.9870834-1.4158554
		c0.4350815,0.1025925,0.3127022,0.382431,0.3129272,0.5981522c0.0032883,3.1071014-0.0020981,6.2142181,0.0038261,9.3213043
		c0.0015793,0.8289108,0.0158272,0.8288803,0.8658524,1.0121155
		C37.9388275,122.3121567,37.140831,122.374794,36.3255272,122.2426224z"></path>
	<path d="M196.0753479,123.4747162c0.0001831-3.1971741,0.0639038-6.3962631-0.0318146-9.5905609
		c-0.0364532-1.2170181,0.5936737-1.9487228,1.3964233-2.7334824c0,4.1740952,0,8.3481979,0,12.5222931
		C196.9534302,123.8244629,196.5184784,123.6215057,196.0753479,123.4747162z"></path>
	<path d="M202.5256653,123.7236252c0-4.182373,0-8.3647308,0-12.5183411
		c0.7143707,0.3696671,1.269455,1.2863312,1.2707825,2.2054291c0.0047302,3.2780075,0.0016785,6.5560303,0.0023956,9.8340454
		c0.0000305,0.1597672,0.0078888,0.319519,0.0121002,0.4792862
		C203.3825073,123.790062,202.954071,123.7911835,202.5256653,123.7236252z"></path>
	<path d="M42.7969933,121.5334549c0-3.4559021,0-6.9118118,0-10.6513062
		c0.8035088,1.0617447,1.4333344,1.812973,1.3904037,3.0186157c-0.0895081,2.5137482-0.0295639,5.032814-0.0310287,7.5496902
		C43.7142143,121.6575775,43.257988,121.634491,42.7969933,121.5334549z"></path>
	<path d="M192.9362335,122.7093124c0.0043793-1.5554047,0.0723419-3.1141129-0.0083923-4.6650925
		c-0.0571747-1.0982513,0.5881653-1.708252,1.3368073-2.5611115c0.1634521,1.4478302,0.0738831,2.7019196,0.0857239,3.9504089
		c0.011734,1.2353592-0.0147858,2.471077-0.0245514,3.7066422
		C193.8233032,123.1232605,193.3445892,123.0296249,192.9362335,122.7093124z"></path>
	<path d="M205.6720886,123.7138138c0-2.662796,0-5.325592,0-8.1903229
		c0.7644196,0.8644867,1.3236847,1.5309677,1.2718964,2.6181946c-0.0872803,1.8323135-0.0251617,3.6717377-0.0258789,5.5081787
		C206.5110931,123.8330841,206.0908813,123.759758,205.6720886,123.7138138z"></path>
	<path d="M33.2114258,122.2488327c-0.0106659-1.4734802-0.030529-2.9469757-0.0280876-4.420433
		c0.0012016-0.7239151,0.2762489-1.1347046,1.3844833-2.1748734c0,2.2516785,0,4.4332962,0,6.6149216
		C34.114502,122.343956,33.6619148,122.3689346,33.2114258,122.2488327z"></path>
	<path d="M208.9021301,123.4891205c0-1.063385,0-2.1267776,0-3.3391037
		c1.0710907,0.9288559,1.4785767,1.9660339,1.2693481,3.2509232
		C209.759964,123.5970154,209.3301086,123.5295258,208.9021301,123.4891205z"></path>
	<path d="M30.0667095,122.0533142c0.0841961-0.7873383,0.7631149-1.1926117,1.1323032-1.8333664
		c0.227066,0.6724854,0.1761398,1.3164825,0.1528664,1.9585037
		C30.9081268,122.2943344,30.4643497,122.4104614,30.0667095,122.0533142z"></path>
	<path d="M190.046402,121.4569473c0.2235718-0.4369965,0.4059753-0.9049911,0.9287415-1.2587509
		c0,0.5757751,0,1.0534668,0,1.5311737C190.6458893,121.7055511,190.3368073,121.61306,190.046402,121.4569473z"></path>
	<path d="M18.6369286,44.9353638c0.0124798,1.2370224-0.0401077,2.4791031,0.0555267,3.709671
		c0.0978699,1.2592926-0.5776711,2.068325-1.4471092,3.021801c-0.0860348-1.5440063,0.2639408-2.9452095-0.1622009-4.3036842
		C17.4452343,46.4542618,17.9976635,45.667057,18.6369286,44.9353638z"></path>
	<path d="M21.7485924,41.0786972c0.0130692,0.9911957-0.0424232,1.9892921,0.0564899,2.9718552
		c0.1248322,1.2400131-0.4772377,2.0849533-1.3335533,2.9898071c-0.2146034-1.4791374,0.0904808-2.8578377-0.1803646-4.2064438
		C20.6482868,42.1421127,21.1350937,41.5578651,21.7485924,41.0786972z"></path>
	<path d="M24.9334908,37.7724686c0.0177975,0.831768,0.0410652,1.6634598,0.0519238,2.4953156
		c0.0119209,0.9135628-0.6994076,1.4241333-1.2874184,2.0691299c0-1.1015892,0-2.2031708,0-3.3047523
		C23.9849625,38.4899368,24.4295731,38.10215,24.9334908,37.7724686z"></path>
	<path d="M28.4930782,34.7932739c0.1904793,0.8068886-0.1077766,1.4627228-0.6788464,1.9968529
		c-0.3497772,0.3271561-0.305233,1.1822281-0.9132385,1.0179176c-0.4487896-0.1212769-0.0718517-0.839119-0.2405396-1.2601242
		c-0.0289192-0.0721779-0.0693321-0.1397552-0.104435-0.2094612C27.1159897,35.7160683,27.7390747,35.1727028,28.4930782,34.7932739
		z"></path>
	<path d="M223.7080688,61.7728729c-0.0149841,3.7558136,0.123703,7.5199814-0.0801849,11.2655258
		c-0.3232269,5.9378967-0.1766357,11.8739166-0.2349548,17.8106384c-0.0015717,0.1597748,0.060318,0.3682404-0.0172577,0.4716644
		c-0.6980133,0.9305573-0.3955841,1.9981155-0.3981323,3.0025864c-0.0219574,8.6316833-0.0115051,17.2634354-0.0118408,25.8951797
		c-0.0000153,0.187973,0.0711823,0.3891449-0.1424561,0.615593c-0.7145538-0.813858-1.2913208-1.5877457-1.2835846-2.7974396
		c0.0478058-7.4725342,0.2221985-14.9525757-0.0428009-22.4160233c-0.1895294-5.3370743,0.0390472-10.6740646-0.2342682-15.9977112
		c-0.3666534-7.1415405-0.0360565-14.2810135-0.2031708-21.4188499c-0.0198364-0.8472328,0.5594482-1.2467422,0.9620514-1.8008766
		C222.7896423,58.1284447,223.4463959,59.8886833,223.7080688,61.7728729z"></path>
	<path d="M202.0156403,106.162117c-0.2541656-0.5792999-0.1638947-0.9826508-0.1643219-1.3737717
		c-0.0069733-6.2334747-0.2239838-12.4764633,0.0466919-18.6981812c0.3939667-9.0554886,0.0705261-18.1060638,0.2128906-27.1571693
		c0.0031281-0.1996307-0.0299835-0.4125175,0.026886-0.5966797c0.6564636-2.125824,0.9084778-4.3370819,1.3211823-6.5105705
		c0.1664429-0.8766747,0.300354-1.7832985,0.4833374-2.6838455c0,1.7489891,0.0000153,3.4979858,0.0000153,5.2469749
		c0,0.5194588-0.0219421,1.039978,0.0032501,1.5582123c0.4012451,8.2509117,0.0649261,16.5132408,0.3222046,24.7608528
		c0.2153625,6.9034119,0.0141144,13.8013763,0.1768036,20.6993561c0.0217743,0.9242554-0.1634369,1.7093658-0.7177277,2.4337921
		C203.177597,104.5589447,202.6528015,105.2954941,202.0156403,106.162117z"></path>
	<path d="M205.6643066,46.204483c0.8339996,0.8812332,1.4742279,1.5753098,1.4179382,2.7646675
		c-0.0924072,1.9524078,0.0060425,3.9129562-0.0306549,5.8690453c-0.1338501,7.1309547,0.4933624,14.2513275,0.2831726,21.3828201
		c0.5957489,3.4783173,0.1990204,6.9840393,0.2700043,10.4761581c0.0705719,3.472847-0.0021973,6.94841,0.0294189,10.4224091
		c0.006897,0.756897-0.1579437,1.3806-0.6315765,1.9790344c-0.5845032,0.7385864-1.0869141,1.5420609-1.8270721,2.2618484
		c0-0.3348465,0-0.669693,0-1.0045395c-0.000061-6.3894882-0.0584869-12.7796555,0.0167542-19.168251
		c0.0705261-5.9888611,0.0126495-11.9771194,0.0584259-17.9654236c0.0031281-0.4098854-0.123291-0.8338661,0.3110657-1.1963272
		c0.2647552-0.2209244,0.0978088-0.6849937,0.0983124-1.0381889c0.0065308-4.4726295,0.0042572-8.9452705,0.0042267-13.4179115
		C205.6643219,47.1773987,205.6643066,46.7849693,205.6643066,46.204483z"></path>
	<path d="M219.788208,116.3639221c-0.9655457-0.9740295-1.3878174-1.9140091-1.3676147-3.1820145
		c0.0726013-4.5552292,0.2608185-9.1273575-0.0332184-13.664711c-0.3305817-5.1019516,0.0973053-10.2063217-0.2850342-15.2813492
		c-0.2672424-3.5474548-0.1354675-7.0777817-0.2042389-10.6144943c-0.0683441-3.5158844-0.0047455-7.0341873-0.0247803-10.5512924
		c-0.0035706-0.6261978,0.1175385-1.1572418,0.5121155-1.6603851c0.6060791-0.7728386,1.1568451-1.5889931,1.9432983-2.3328476
		c0,0.2923737,0,0.5847435,0,0.8771095c0,1.5587692-0.0190277,3.1178017,0.0030975,4.6762505
		c0.1444092,10.1803207-0.3505249,20.3560028-0.2152405,30.5361328c-0.6094208,6.8878708-0.1171722,13.7902603-0.2743225,20.684082
		C219.8395844,115.9683456,219.8181458,116.0858688,219.788208,116.3639221z"></path>
	<path d="M28.0839672,55.4044113c0.297121,0.4100761,0.1704216,0.7768478,0.1712341,1.1155014
		c0.0104542,4.3538322,0.0088921,8.7076874,0.0045433,13.0615463c-0.0005207,0.5207596-0.0368671,1.0434723,0.3284168,1.4776154
		c0.2573147,0.3058319,0.2153912,0.6689224,0.2153759,1.0263138c-0.0002899,6.5108032,0.2098064,13.0307693-0.0742702,19.5291824
		c-0.187973,4.3000793-0.0624428,8.590683-0.1879139,12.8833618c-0.0122719,0.4198761-0.0926514,0.7664032-0.3569317,1.0994568
		c-0.4093838,0.5159149-0.6501694,1.1683731-1.1745777,1.5506287c-0.840414-2.9517822-0.5555477-5.9377289-0.5678368-8.9030762
		c-0.0395527-9.5450134-0.0495167-19.0901413-0.0737-28.6352234c-0.0008049-0.3176956,0.0200329-0.6495972-0.0624199-0.9492493
		c-0.0962601-0.349823-0.0510902-0.4719009,0.3292618-0.5546799c0.3647327-0.0793762,0.2112999-0.4596481,0.2125721-0.7097778
		c0.0107613-2.1169662,0.0061989-4.2339973,0.0061703-6.3510132c-0.0000134-1.1184158,0.0414391-2.238842-0.012331-3.3546753
		C26.7912521,56.6463318,27.4663563,56.0897751,28.0839672,55.4044113z"></path>
	<path d="M212.1780548,55.3850403c0.8179169,0.8526001,1.2745819,1.6901817,1.2349548,2.8915672
		c-0.0961151,2.9143867-0.0372925,5.8341026-0.0247955,8.7515984c0.0019073,0.442337-0.1704407,0.9421539,0.378067,1.2633133
		c0.2068939,0.1211319,0.0961456,0.445549,0.096283,0.6769714c0.0041351,6.6344299,0.0577393,13.2694473-0.0139465,19.9031067
		c-0.0535278,4.9549255-0.00914,9.9092255-0.0454559,14.8636551c-0.004364,0.5955124,0.0327454,1.1833725-0.2973175,1.7362595
		c-0.2992401,0.5012894-0.0179291,1.1014786-0.1670074,1.652359c-1.0584106-0.8182449-1.6331482-1.9117584-1.6335144-3.0859528
		c-0.0001678-0.5595245,0.0027466-1.1190796-0.0004272-1.6785889c-0.056366-9.9310989-0.4363861-19.8592529-0.2713165-29.7923737
		c0.0111084-0.6687622-0.1053467-1.3461151,0.4285278-1.9223099c0.2523346-0.2723389,0.1082306-0.6947861,0.1087341-1.0483856
		c0.0061646-4.3963013,0.0007782-8.792614,0.0114899-13.1888962
		C211.9830627,56.1079979,211.8452759,55.7776947,212.1780548,55.3850403z"></path>
	<path d="M20.0051441,58.9557953c0.7960854,1.078968,1.4999771,2.0304375,2.2005882,2.9843102
		c0.1785698,0.2431297,0.1480961,0.5304604,0.1481037,0.8087387c0.0001564,6.6294289,0.2300644,13.2695122-0.0765591,19.8847618
		c-0.2270794,4.8991241-0.0470257,9.7870941-0.2064857,14.6769714c-0.0138721,0.4253159,0.1053505,0.8704071-0.2781506,1.2330475
		c-0.2590618,0.2449722-0.1391964,0.6071625-0.1395817,0.9177094c-0.0056572,4.5527344-0.0040054,9.1054764-0.0034275,13.6582108
		c0.0000248,0.1994705-0.0474396,0.4194794,0.0194798,0.5947418c0.2486706,0.6512604,0.0468502,1.1856155-0.4107304,1.6306152
		c-0.2792988,0.2716141-0.2982502,0.7598267-0.8638992,0.9196014c0-0.4171982,0-0.7949448,0.0000019-1.172699
		c0.0000114-5.8306961,0.2204742-11.6721573-0.0635185-17.489006c-0.2704601-5.5396652,0.037035-11.0758438-0.2395458-16.6009064
		c-0.3632698-7.2567291-0.0641251-14.5110016-0.170681-21.7652206
		C19.9201794,59.198658,19.9425888,59.1603088,20.0051441,58.9557953z"></path>
	<path d="M216.5058594,63.6954918c0.2336731-0.0397987,0.4183044-0.0712471,0.6046143-0.1029854
		c0.1797333,0.3522034,0.0891418,0.7178497,0.0894928,1.0696716c0.0063782,6.3128204,0.2367096,12.6367645-0.0655518,18.9350967
		c-0.2621307,5.4625626-0.0732422,10.9144669-0.2145691,16.3688049c-0.0041351,0.1597061,0.0571747,0.3651352-0.0196533,0.4719925
		c-0.6472931,0.9005814-0.3667145,1.9230194-0.3805084,2.8928528c-0.0347137,2.4367447-0.0115051,4.8743057-0.0115051,7.3115311
		c0,0.3418884,0,0.6837769,0,1.2134399c-0.8452911-0.9399643-1.3601685-1.7360153-1.2809753-2.8890228
		c0.0983124-1.4316101,0.0429077-2.8754883,0.0143738-4.3132935c-0.0119629-0.6030121,0.237915-1.2806702-0.3800964-1.7713547
		c-0.0637054-0.0505524-0.0302887-0.2289734-0.0336304-0.3482971c-0.0044708-0.1596909-0.000473-0.319603-0.0007782-0.4794235
		c-0.0203552-11.5054855-0.0402069-23.0109711-0.0631561-34.516449c-0.000946-0.4780579-0.038681-0.953804,0.2858734-1.3654633
		c0.270813-0.3434525,0.2000275-0.7574158,0.2003632-1.1529236c0.0014343-1.6357307,0.0006104-3.2714653,0.0006104-4.9847908
		C216.8052521,60.9177475,216.4763184,62.3723907,216.5058594,63.6954918z"></path>
	<path d="M23.7294807,111.6517029c0-1.8562012,0.0000019-3.5281219,0-5.2000504
		c-0.0000038-1.3185654,0.0142574-2.6373367-0.0060291-3.9555893c-0.0101547-0.6597748,0.1363316-1.3312988-0.3366852-1.9530334
		c-0.1775093-0.2333145-0.0679855-0.6942368-0.0681953-1.0513916c-0.0027122-4.5949783,0.223465-9.2045898-0.0743809-13.7801895
		c-0.2283287-3.5076523-0.1277695-6.9997177-0.1976528-10.4973145c-0.0702229-3.5147629-0.0185032-7.0320129-0.010807-10.5481567
		c0.0007706-0.3521576-0.0890827-0.7175865,0.0874653-1.0707321c0.1846237,0.03088,0.3680553,0.0615654,0.5651531,0.0945358
		c0.1438503-0.7899895-0.1556969-1.6246796,0.1517982-2.3670578c0.2021523-0.4880447,0.5414104-0.95821,1.1463871-1.4446907
		c0,1.7124977-0.0011806,3.2470169,0.0005703,4.7815285c0.000721,0.6323242-0.0840797,1.2735519,0.3736286,1.825737
		c0.2172012,0.2620316,0.1072502,0.6182632,0.1074543,0.9319077c0.0043221,6.5927887,0.0544834,13.1861191-0.0135651,19.7782059
		c-0.0507221,4.913559-0.0081406,9.8265839-0.0515995,14.7396088c-0.0039864,0.4508286,0.1524906,0.9369125-0.3307362,1.3118362
		c-0.2130203,0.1652603-0.0810223,0.5326157-0.0821552,0.8071213c-0.0071011,1.7180862-0.0592556,3.4387054,0.0171146,5.1534271
		C25.0538921,110.254776,24.4879379,110.8659363,23.7294807,111.6517029z"></path>
	<path d="M29.7620907,103.2162323c-0.2955818-0.431633-0.1910152-0.7593918-0.1919842-1.0667648
		c-0.0296078-9.3834534-0.0548363-18.7669144-0.0715408-28.1503983c-0.0023441-1.31604,0.0407066-2.6322021,0.0681038-3.9481964
		c0.0040874-0.1962967-0.0369492-0.4624405,0.0703449-0.5761642c0.5731506-0.6074753,0.4082108-1.3447495,0.4093895-2.046402
		c0.0077801-4.632782,0.0291519-9.2658272-0.0158596-13.8981819c-0.0097713-1.0058403,0.3257923-1.7472839,1.1428413-2.5173264
		c0.0277977,0.425396,0.0629177,0.7144585,0.0631485,1.0035477c0.0034866,4.3532257-0.139101,8.712574,0.0491428,13.0576515
		c0.1392841,3.21492,0.2139435,6.4252014,0.2255707,9.6401367c0.000433,0.1197815-0.0464287,0.2727737,0.0098953,0.3542862
		c0.702486,1.0167313,0.401392,2.1660995,0.4067898,3.2568665c0.0274658,5.5512238-0.0022888,11.1027298,0.0213146,16.6539917
		c0.0075874,1.7846222-0.4899864,3.5358582-0.3000145,5.3287048c0.0155525,0.1467743-0.0264969,0.3302917-0.1084538,0.4518051
		C30.9926453,101.5723419,30.507328,102.4333878,29.7620907,103.2162323z"></path>
	<path d="M209.1070251,50.9861794c0.8502502,0.8226433,1.1205444,1.7957191,1.1040497,2.9898872
		c-0.063446,4.5939636-0.1203461,9.1922951,0.0240936,13.7825928c0.052536,1.6694336,0.0391846,3.3879013,0.4832611,5.0417252
		c0.0702972,0.2617798,0.0233612,0.55616,0.0233917,0.8354645c0.000824,6.3928146,0.1786499,12.7926102-0.0713654,19.1756363
		c-0.1332245,3.401268-0.0618896,6.8061447-0.2539368,10.4364014c-0.6359406-0.902153-1.1526031-1.6397095-1.6746826-2.3734283
		c-0.2029724-0.2852325-0.1427612-0.6086273-0.1641846-0.9242477c-0.5111694-7.5254517-0.3236694-15.0628052-0.2210693-22.5908508
		c0.044342-3.2541656,0.2105103-6.5148087,0.2232513-9.7753448c0.0004578-0.1198502-0.0457001-0.2754517,0.0120544-0.3540726
		c0.7109528-0.9677658,0.3829193-2.0748749,0.3918915-3.1168442c0.0356598-4.1550255,0.0129852-8.3105431,0.0185242-12.4658661
		C209.002594,51.4270401,208.9198303,51.1824989,209.1070251,50.9861794z"></path>
	<path d="M34.852932,101.4015274c-0.6485176-0.8927994-1.2847481-1.7949219-1.9521561-2.673378
		c-0.2370605-0.3120193-0.2884254-0.6372604-0.288208-1.0054855c0.0039711-6.6297836,0.0030785-13.2595596,0.003231-19.8893433
		c0.6088676-4.1198807,0.1353073-8.2646103,0.2838211-12.3950882c0.012722-0.3539886-0.046196-0.7079468,0.2423439-1.0112762
		c0.2751694-0.2892761,0.1698952-0.681469,0.1725693-1.0340958c0.0077858-1.0269699,0.0027618-2.0540352,0.0942383-3.0870857
		c0.8163757,2.3233566,1.6844139,4.5887489,1.611969,7.1319313c-0.1136703,3.9906158-0.0852661,7.9877396-0.0189247,11.9804764
		c0.1180916,7.1074219,0.0184479,14.2146149,0.0600319,21.3217392c0.001152,0.1972427,0.000145,0.3944931,0.000145,0.5917511
		C34.9923058,101.3549576,34.9226189,101.3782425,34.852932,101.4015274z"></path>
	<path d="M38.2534904,106.1108856c-0.9461861-1.0559158-1.644722-2.1455917-2.3494949-3.2281342
		c-0.2074738-0.3186874-0.090107-0.7036591-0.0904503-1.0566559c-0.0061378-6.3485184-0.1803322-12.7035294,0.0538406-19.0434113
		c0.1721725-4.6612854,0.0005417-9.3186951,0.2048187-14.1174011c0.5807762,1.574791,1.0630531,3.0492783,1.7660866,4.4375305
		c0.2471123,0.4879532,0.3565178,1.0470047,0.2907104,1.6255951c-0.0448341,0.3942108-0.014534,0.7976837-0.0080528,1.1968613
		c0.1559219,9.6031723,0.3814774,19.2057114,0.2663727,28.8113098
		C38.3823624,105.1505814,38.4687347,105.5830078,38.2534904,106.1108856z"></path>
	<path d="M197.7505951,72.6047974c0,3.7538681-0.2292938,7.5259171,0.0665741,11.25634
		c0.2780914,3.5065765,0.1330109,6.9960632,0.20224,10.4915924c0.0688171,3.4743042,0.019043,6.9510345,0.0096588,10.4266739
		c-0.0010529,0.3902588,0.099884,0.7948074-0.1103363,1.2364883c-0.5621033-0.243309-0.6623993-0.853157-1.016983-1.2377625
		c-1.0096741-1.0951843-1.3750305-2.3558578-1.3514404-3.8973923c0.0916443-5.991127-0.0387573-11.985939,0.076828-17.9762344
		c0.0428772-2.2216492,0.161972-4.4466019,0.176712-6.6723557c0.0010529-0.1583405-0.0182648-0.3428497,0.0525055-0.4706116
		C196.4472961,74.6947403,196.8838348,73.5414734,197.7505951,72.6047974z"></path>
	<path d="M194.5688171,101.4769821c-0.7435608-1.0606308-1.4933624-2.1169662-2.2258911-3.1851501
		c-0.1661835-0.2423248-0.0827026-0.5458069-0.0830231-0.8215179c-0.006012-5.2739029-0.0379791-10.5480576,0.0069275-15.8215561
		c0.0143738-1.6886215,0.6841278-3.1344681,2.1004028-4.1291046c0.3261261,0.1383896,0.2440338,0.3608246,0.2544861,0.5394592
		c0.4407654,7.533844,0.1222992,15.0750885,0.217865,22.6123734c0.0029755,0.2359009,0.000351,0.4718781,0.000351,0.7078247
		C194.7495575,101.4118652,194.6591949,101.4444199,194.5688171,101.4769821z"></path>
	<path d="M42.3771362,106.160408c-0.2619781-0.6042023-0.1700401-1.0074387-0.1704788-1.3983459
		c-0.0069275-6.1518097-0.0015793-12.3036346-0.0089493-18.4554367c-0.0009041-0.7549286-0.0280762-1.5044785,0.4263229-2.1756287
		c0.6418419,3.1395874,1.2485924,6.3008957,1.717083,9.4877853c0.0115547,0.078598,0.0123558,0.159584,0.0102539,0.2392578
		c-0.072628,2.7514191,0.412796,5.4816895,0.3091774,8.2362289c-0.0202217,0.5374908-0.1009331,0.9894867-0.43927,1.4322662
		C43.6038933,104.3344879,43.0500183,105.1909027,42.3771362,106.160408z"></path>
	<path d="M191.7019043,84.1231232c0,3.9970779,0.0000153,7.9941635-0.0001221,11.9912338
		c-0.0000153,0.1598892,0.061676,0.3626099-0.0127869,0.4729462c-0.6353607,0.9412689-0.4007874,1.9997177-0.3723602,3.0048523
		c0.0229034,0.8107071-0.1504364,1.493515-0.6797485,2.081398c-0.3377075,0.3750763-0.4466705,0.9444122-1.0417786,1.196785
		c-0.0664063-0.7865753-0.1459503-1.5582733,0.1079254-2.2565689c0.6221008-1.7111664,0.6623688-3.5061035,0.8354797-5.2744904
		c0.1588135-1.6220322,0.0570068-3.2619705,0.2572174-4.8917847
		C191.0553894,88.3339005,191.160965,86.2006454,191.7019043,84.1231232z"></path>
</g>
<g onclick="select(this)" class="" id="c-detalhe-punho" fill="#021c3b">
	<path d="M0.2399999,116.0934372c0.4019386-1.9966812,0.8041824-3.9933014,1.2054386-5.9901123
		c0.0519282-0.2584229-0.0217745-0.5722809,0.3170216-0.7005157c0.4133129,0.2493362,0.8528409,0.3899231,1.3358734,0.4796906
		c5.7060204,1.0604935,11.4267998,2.0227661,17.1551247,2.9598007c5.9325504,0.9704437,11.8514881,1.3940201,17.8393574,1.3505173
		c2.4192696-0.0175858,4.7791824-0.083252,6.9232025-1.406723c0.7499886-0.4629517,1.0809746-0.1343689,1.0873833,0.7108154
		c0.0031509,0.4156723-0.2905922,1.0104446,0.4436417,1.1753159c0.0053787,1.183342,0.0107574,2.3666763,0.0161362,3.5500183
		c-0.0785027,0.5859604-0.2565727,1.1791611-0.2146034,1.7563705c0.0849495,1.1682587-0.625267,1.4380112-1.5379219,1.5414581
		c-5.5591965,0.6301727-11.1084175,1.1380386-16.7229614,0.5366974c-9.1340427-0.9782867-18.2107697-2.2743073-27.1770115-4.291626
		c-0.2293947-0.0516129-0.4473771-0.1538849-0.6706817-0.2325287C0.24,117.052887,0.24,116.5731659,0.2399999,116.0934372z"></path>
	<path d="M188.6978302,112.5258331c1.1305084,0.0553436,1.781311,0.8939209,2.5935974,1.5120468
		c0.9533691,0.7254868,2.0800476,1.2711105,3.2850342,1.3171768c3.7093811,0.1418533,7.4282227,0.3397141,11.1326752,0.2101593
		c2.9311371-0.1025085,5.8454437-0.6646271,8.769104-1.0065155c3.2023621-0.3744888,6.4071198-0.7285156,9.6104279-1.0951157
		c2.7395782-0.3135376,5.3904114-1.0443878,8.0528259-1.7198792c0.6603394,0.1413193,0.5334625,0.7501221,0.6053467,1.1598129
		c0.3378143,1.9256897,0.4354095,3.8771057,0.5597992,5.8275681c0.0608673,0.9542084-0.3804169,1.2510147-1.1618652,1.4391861
		c-3.727951,0.897728-7.5021515,1.5553818-11.2945862,2.0880814c-7.1191101,0.9999924-14.2603302,1.7123184-21.4695282,1.5265503
		c-2.9492798-0.0759964-5.7994232-0.4171677-8.3943939-1.9630508c-0.3276978-0.1952057-0.7493134-0.2746201-1.1374512-0.317894
		c-0.7750854-0.0864182-1.3348389-0.4451981-1.6902008-1.1330261
		C188.0404358,117.7354355,188.6574249,115.1504288,188.6978302,112.5258331z"></path>
</g>
</svg>
