<!--?xml version="1.0" encoding="utf-8"?-->
<!-- Generator: Adobe Illustrator 24.2.3, SVG Export Plug-In . SVG Version: 6.00 Build 0)  -->
<svg version="1.1" id="Camada_1" xmlns="http://www.w3.org/2000/svg" xmlns:xlink="http://www.w3.org/1999/xlink" x="0px" y="0px" viewBox="0 0 229 418" style="enable-background:new 0 0 229 418;" xml:space="preserve">
<style type="text/css">
	.st0{fill:#FD0303;}
	.st1{fill:#0101FC;}
	.st2{fill:#F6E25F;}
	.st3{fill:#B814A5;}
	.st4{fill:#16140A;}
</style>
<g onclick="select(this)" class="" id="gola-primaria" fill="#ffffff">
	<path d="M78.4,8c0.6-0.1,1-0.4,1.4-0.8c0.9-0.9,2-1.7,2.7-2.7c1.8-2.5,4.4-3.4,7.3-3.8c0.6-0.1,1.3,0.1,1.9-0.5
		c1.2,0,2.4,0,3.6,0c0.2,0.5,0.6,0.3,0.9,0.3c5.6,0,11.2,0,16.7,0c0.4,0,0.8-0.1,1.1-0.3c7.5,0,15,0,22.6,0c0.1,0.5,0.5,0.3,0.8,0.4
		c1,0.2,2,0.3,2.9,0.4c2,0.3,3.7,1.1,4.9,2.8c1.3,1.7,2.7,3.3,4.6,4.4c1.3,0.6,1.9,1.5,1.8,3c-0.2,3.7-2.1,6.7-4.3,9.6
		c-0.4,0.5-0.7,0.1-1-0.1c-1.8-1.4-3.5-2.8-5.3-4.1c-0.7-0.5-0.7-0.8-0.1-1.5c1.6-1.8,2.9-3.7,3.8-6.1c-2.6,0.2-5,0.4-7.4,0.6
		c-10.8,0.7-21.5,1.8-32.3,1C98.4,10.1,91.7,9.6,85,8.9c-0.4,0-0.9-0.2-1.2,0c-0.3,0.4,0.1,0.8,0.2,1.2c0.8,2,2.1,3.6,3.5,5.1
		c0.4,0.4,0.8,0.8,0.1,1.3c-1.8,1.4-3.6,2.8-5.3,4.3c-0.5,0.4-0.8,0.3-1.2-0.1c-1.9-2.4-3.4-4.9-4.2-7.9C76.3,10.6,76.8,9.1,78.4,8z
		"></path>
</g>
<g onclick="select(this)" class="" id="detalhe-punho" fill="#bf0811">
	<path d="M228.3,108.4c0.6,0.8,0.4,1.7,0.7,2.6c0.1,0.4,0.1,0.9,0.4,1.3c0,1.3,0,2.6,0,3.8c-2.6,1.5-5.5,2-8.4,2.9
		c-9.3,2.7-18.8,3.3-28.3,2.8c-2.1-0.1-4.1-0.3-6.2-0.9c-0.5-0.2-1-0.4-1.5-0.7c-0.3-2.5,0.4-4.9,0.5-7.4c3.8,0.7,7.6,1,11.4,1
		c2.5,0,5,0.2,7.4-0.2c3.1-0.5,6.1-1,9.2-1.6C218.6,111.2,223.4,109.8,228.3,108.4z"></path>
	<path d="M0.7,114.7c0.5-1.2,0.4-2.5,0.7-3.7c0.1-0.4,0-0.9,0.4-1.2c0.3,0.1,0.6,0.3,0.9,0.4c6.3,2.3,12.8,3.4,19.4,4.1
		c3.4,0.3,6.9,0,10.3,0c1.8,0,3.5-0.1,5.3-0.3c1.4-0.2,3,0.1,4.3-0.8c0.4-0.3,0.6,0.1,0.8,0.4c0.4,0.8,0.2,1.7,0.6,2.4
		c0,1.5,0.6,3,0.3,4.5c-2.7,1.3-5.6,1.7-8.5,1.8c-9.4,0.4-18.7,0.1-27.8-2.1c-2.3-0.6-4.5-1.1-6.7-2.2
		C0.7,116.9,0.7,115.8,0.7,114.7z"></path>
</g>
<g onclick="select(this)" class="" id="estampa-primaria" fill="#ffffff">
	<path d="M43.4,115.9c-0.4-0.8-0.2-1.7-0.6-2.4c-0.2-0.3-0.4-0.7-0.8-0.4c-1.3,0.9-2.9,0.6-4.3,0.8c-1.7,0.2-3.5,0.3-5.3,0.3
		c-3.4,0.1-6.9,0.4-10.3,0c-6.6-0.7-13.1-1.7-19.4-4.1c-0.3-0.1-0.6-0.3-0.9-0.4c1.8-9.5,2.7-19.1,4.3-28.7C7,76,7.3,70.8,8.4,65.7
		c1.7-8.1,4.5-15.7,9.4-22.5c2.1-2.9,4.6-5.5,7.4-7.8c1.3-1.1,2.3-2.5,3.8-3.3c3.6-1.9,7.3-3.7,11-5.3c10-4.1,20.1-8.2,29.6-13.5
		c1.9-1.1,3.9-2.1,5.4-3.8c0.8-1,2-1.6,3.4-1.6c-1.7,1.2-2.1,2.6-1.5,4.9c0.8,2.9,2.3,5.5,4.2,7.9c0.4,0.5,0.7,0.6,1.2,0.1
		c1.8-1.4,3.5-2.9,5.3-4.3c0.7-0.6,0.3-0.9-0.1-1.3c-1.4-1.5-2.7-3.2-3.5-5.1c-0.2-0.4-0.6-0.8-0.2-1.2c0.3-0.3,0.8-0.1,1.2,0
		c6.7,0.6,13.4,1.2,20.1,1.7c10.8,0.8,21.6-0.2,32.3-1c2.4-0.2,4.8-0.4,7.4-0.6c-0.9,2.4-2.2,4.3-3.8,6.1c-0.5,0.6-0.6,0.9,0.1,1.5
		c1.8,1.3,3.6,2.7,5.3,4.1c0.3,0.2,0.6,0.6,1,0.1c2.2-2.8,4-5.8,4.3-9.6c0.1-1.5-0.5-2.4-1.8-3c1.8-0.1,3,1,4,2.2
		c0.3,0.4,0.7,0.7,1.1,1c10,6.5,21.2,10.6,32.2,15.2c4,1.7,7.8,3.6,11.7,5.3c1.6,0.7,2.7,2.3,4.2,3.3c3.1,2.3,5.8,5.1,8.2,8.2
		c4.8,6.4,7.6,13.7,9.3,21.5c0.6,2.9,1.2,5.8,1.5,8.7c0.6,5.8,2.3,11.3,3.4,17c1.1,5.9,1.9,11.8,2.9,17.7c-4.9,1.4-9.7,2.8-14.7,3.7
		c-3.1,0.5-6.1,1-9.2,1.6c-2.4,0.4-4.9,0.2-7.4,0.2c-3.8,0-7.6-0.2-11.4-1c0.4-4.4,1.3-8.8,2.2-13.1c0.5-2.6,1.2-5.1,1.8-7.7
		c-0.4,0.4-0.6,0.8-0.8,1.2c-1.8,4.1-3,8.4-4.2,12.8c-2.4,8.9-3.8,18-4.8,27.2c-0.6,5.2-0.9,10.4-1.2,15.7
		c-0.3,4.9-0.5,9.9-0.5,14.8c0,16.9-0.3,33.9,0.2,50.8c0.2,7.3,0.3,14.6,0.5,21.9c0.2,4.9,0.3,9.7,0.5,14.6c0.2,6,0.5,12,0.7,17.9
		c0.2,5,0.4,10,0.8,15.1c-7.7,1.1-15.4,1.4-23.1,1.5c-12.9,0.2-25.9,0.6-38.8,0.9c-6.8,0.2-13.5-0.5-20.2-0.6
		c-8.7-0.1-17.4-0.2-26.1-0.4c-8.3-0.2-16.6-0.4-24.8-1.8c0.5-3.8,0.5-7.6,0.7-11.3c0.4-5.6,0.6-11.2,0.8-16.9
		c0.1-4.4,0.3-8.9,0.5-13.3c0.3-6.3,0.4-12.5,0.5-18.8c0.1-4,0.2-8,0.2-12c0.1-14.3,0.1-28.5,0.1-42.8c0-2.2,0-4.5-0.1-6.7
		c-0.3-6.3-0.3-12.7-0.9-19c-0.2-2.5-0.3-4.9-0.5-7.4c-0.6-4.9-1.1-9.9-2-14.7c-1.1-6-2.2-12-3.9-17.8c-0.7-2.2-1.2-4.4-2.2-6.6
		c-0.6,0.9,0.2,1.4,0.2,2.1c0.4,3.4,1.1,6.7,1.4,10.1C42.8,111,43.6,113.4,43.4,115.9z"></path>
</g>
<g onclick="select(this)" class="" id="detalhe-lateral" fill="#bf0811">
	<path d="M180.8,284c-0.4-5-0.6-10-0.8-15.1c-0.3-6-0.5-11.9-0.7-17.9c-0.2-4.9-0.3-9.7-0.5-14.6
		c-0.3-7.3-0.3-14.6-0.5-21.9c-0.4-16.9-0.2-33.9-0.2-50.8c0-4.9,0.2-9.9,0.5-14.8c0.3-5.2,0.7-10.5,1.2-15.7
		c1-9.2,2.5-18.3,4.8-27.2c1.1-4.3,2.4-8.6,4.2-12.8c0.2-0.4,0.4-0.8,0.8-1.2c-0.6,2.6-1.3,5.1-1.8,7.7c-0.9,4.3-1.8,8.7-2.2,13.1
		c-0.1,2.5-0.7,4.9-0.5,7.4c-1.3,10.3-2.3,20.7-2,31.2c0.1,2.4,0.8,4.8,0.4,7.3c-0.3,2.3-0.4,4.7-0.4,7c0.1,6.6,0.1,13.2-0.1,19.7
		c-0.1,4.5,0.7,8.7,1.4,13c0.9,5.1,1,10.2,0.2,15.4c-0.3,2.3-0.5,4.7-0.8,7c0,0.4,0.1,0.8,0.2,1.2c2,5.7,2.5,11.6,1.6,17.6
		c-0.3,2.1-0.3,4.2,0.1,6.3c0.4,2,0.5,4,0.5,6c-0.1,7.4,0.7,14.7,1.4,22c0.2,2.3,0.3,4.6,0.3,6.9c0,1.1-0.5,1.8-1.5,2.2
		C184.6,283.5,182.8,284,180.8,284z"></path>
	<path d="M43.4,115.9c0.2-2.5-0.6-4.9-0.9-7.4c-0.4-3.4-1-6.7-1.4-10.1c-0.1-0.7-0.8-1.2-0.2-2.1
		c0.9,2.2,1.5,4.4,2.2,6.6c1.8,5.8,2.9,11.8,3.9,17.8c0.9,4.9,1.4,9.8,2,14.7c0.3,2.4,0.3,4.9,0.5,7.4c0.6,6.3,0.6,12.6,0.9,19
		c0.1,2.2,0.1,4.5,0.1,6.7c0,14.3,0,28.5-0.1,42.8c0,4-0.1,8-0.2,12c-0.1,6.3-0.3,12.5-0.5,18.8c-0.2,4.4-0.3,8.8-0.5,13.3
		c-0.2,5.6-0.4,11.2-0.8,16.9c-0.3,3.8-0.2,7.6-0.7,11.3c-1.7-0.1-3.4-0.5-5-1.1c-1.6-0.6-2-1.1-2-2.8c0-2.8,0.2-5.6,0.4-8.3
		c0.4-5.3,0.7-10.6,1.2-15.9c0.4-4.8-0.1-9.6,0.9-14.3c0.2-0.9,0.1-1.8,0-2.7c-0.5-3.1-0.3-6.2,0.3-9.3c0.2-0.9,0.1-1.7,0.1-2.6
		c-0.3-4.1-0.9-8.3-0.9-12.4c0-4.8,1.1-9.4,2.7-13.9c0.3-1,0.6-1.9,0.4-2.9c-0.2-1.5-0.1-3,0.1-4.5c0.1-0.6,0.2-1.3,0.2-1.9
		c-0.4-4.8-0.1-9.7-0.4-14.5c-0.1-1.1,0.1-2.2,0.2-3.3c0.1-1.9,0.1-3.7,0-5.6c-0.4-6.8-0.1-13.6,0-20.4c0.1-7.3-0.6-14.6-1.6-21.9
		c-0.2-1.5-0.4-3.1-0.6-4.6C44,118.9,43.4,117.4,43.4,115.9z"></path>
</g>
<path d="M47.1,283.7c0.1,0,0.2,0,0.2,0C47.2,283.9,47.1,283.8,47.1,283.7z"></path>
<g onclick="select(this)" class="" id="estampa-terciaria" fill="#bf0811">
	<path d="M136.4,48.4c-5.3,0.7-10.6,0.5-15.9,0.3c-5.3-0.2-10.6,0-15.9-0.1c-5.3-0.1-10.6,0.3-15.8-0.2
		c1.8-0.5,3.7-0.5,5.6-0.6c3.2-0.1,6.3,0,9.4,0.4c1.3,0.1,2.4-0.2,3.7-0.2c3.8-0.1,7.6-0.2,11.4,0.2c0.7,0.1,1.5-0.1,2.3-0.1
		C126.2,47.8,131.3,47.8,136.4,48.4z"></path>
	<path d="M131.1,52.9c-1.7,0.4-3.4,0.5-5,0.5c-3.7,0-7.3,0.1-11-0.4c-1.4-0.2-2.8,0.2-4.2,0.2c-2.8,0.1-5.7,0-8.5-0.2
		c-1.6-0.2-3.3,0.3-4.9,0.3c-3.9,0.1-7.9,0.2-12.2-0.4c1.1-0.4,2-0.3,2.9-0.4c0.9-0.1,1.8-0.2,2.6-0.2c3.6,0,7.3-0.1,10.9,0.4
		c0.8,0.1,1.7-0.2,2.6-0.2c3.4-0.2,6.8-0.2,10.2,0.2c1.1,0.2,2.3-0.2,3.4-0.3c4.1-0.3,8.1-0.2,12.2,0.1
		C130.5,52.7,130.8,52.6,131.1,52.9z"></path>
	<path d="M126.2,57.3c-2.2,0.6-44.8,0.6-46.7,0C81.1,56.8,123.6,56.7,126.2,57.3z"></path>
	<path d="M136.8,35.1c-2.1,0.3-4.2,0.4-6.4,0.4c-3.7,0-7.4,0-11.1-0.4c-1.8-0.2-3.7,0.3-5.6,0.3c-3.3,0.1-6.6,0-9.9-0.2
		c-0.2,0-0.5,0.1-0.7-0.4c1.6-0.1,3.1-0.3,4.6-0.3c3.8,0,7.5,0.2,11.2,0.2c3.4,0.1,6.9-0.5,10.4-0.4c2.5,0.1,4.9,0.2,7.4,0.4
		C136.8,34.9,136.8,35,136.8,35.1z"></path>
	<path d="M93.8,106.6c4.1-0.7,8.3-0.7,12.4-0.3c2.1,0.2,4.1-0.3,6.2-0.3c3.1-0.1,6.2,0,9.3,0.6
		C112.4,107.1,103.1,106.8,93.8,106.6z"></path>
	<path d="M109.2,70.7c-3.3,0.7-6.5,0.7-9.8,0.3c-0.6-0.1-1.2,0-1.8,0c-5,0.4-10.1,0.4-15.1,0c-0.3,0-0.7,0.1-0.9-0.3
		c2-0.3,4-0.5,5.9-0.4C94.8,70.4,102,70.4,109.2,70.7z"></path>
	<path d="M116.9,79.8c-9.6,0.2-19.1,0.5-28.7,0c4.7-0.8,9.5-0.4,14.3-0.3C107.3,79.5,112.1,79,116.9,79.8z"></path>
	<path d="M89.1,93c4.9-0.5,9.7-0.5,14.4,0c0.5,0.1,1,0,1.5-0.1c4.3-0.3,8.5-0.3,12.8,0c0.2,0,0.4,0,0.6,0.4
		c-1.6,0.1-3.2,0.3-4.8,0.3c-3.2,0-6.3-0.1-9.4-0.3c-2-0.2-4.1,0.4-6.2,0.3c-2.6-0.1-5.1,0.1-7.7-0.2C90,93.3,89.6,93.4,89.1,93z"></path>
	<path d="M122.8,61.8c-1.2,0.4-2.3,0.4-3.3,0.4c-3.6,0.1-7.3,0.3-10.9-0.3c-0.6-0.1-1,0.2-1.5,0.2
		c-4.6,0.3-9.2,0.3-13.8,0c-0.2,0-0.5-0.1-0.7-0.3c5-0.5,10-0.3,15-0.2C112.6,61.7,117.6,61.1,122.8,61.8z"></path>
	<path d="M104.9,66.1c1.6-0.1,3.2-0.4,4.8-0.3c6,0.4,12-0.2,18-0.1c1.9,0,3.9,0.2,5.8,0.4c-1.8,0.7-10,0.9-14.3,0.5
		C114.5,66.2,109.7,67.3,104.9,66.1z"></path>
	<path d="M125.2,61.7c6-0.6,11.9-0.6,17.8,0C140.9,62.6,127.7,62.6,125.2,61.7z"></path>
	<path d="M70.7,61.9c5.8-0.8,11.7-0.8,17.5,0C82.4,62.6,76.5,62.5,70.7,61.9z"></path>
	<path d="M152.3,106.5c-5.8,0.7-11.7,0.7-17.5,0C140.7,105.8,146.5,105.8,152.3,106.5z"></path>
	<path d="M85.7,106.5c-5.8,0.7-11.7,0.7-17.5,0C74.1,105.8,79.9,105.8,85.7,106.5z"></path>
	<path d="M146.6,75.3c-5.8,0.7-11.6,0.7-17.4,0C135,74.5,140.8,74.5,146.6,75.3z"></path>
	<path d="M89.8,75.3c-5.8,0.6-11.6,0.7-17.3,0C78.3,74.5,84,74.5,89.8,75.3z"></path>
	<path d="M89.1,88.7c-2.9,0.7-13.6,0.8-17.3,0C73.4,87.9,86.7,87.9,89.1,88.7z"></path>
	<path d="M135.8,97.6c-5.6,0.7-11.1,0.7-16.7,0C122.2,96.8,132.2,96.8,135.8,97.6z"></path>
	<path d="M81,84.2c5.5-0.8,11-0.8,16.5,0C92.1,84.9,86.5,84.8,81,84.2z"></path>
	<path d="M142.8,30.6c-6.3,0.5-12.5,0.6-18.8,0C130.3,29.8,136.6,29.8,142.8,30.6z"></path>
	<path d="M103.7,146.7c-5.6,0.7-11.2,0.7-16.8,0C92.5,146,98.1,146,103.7,146.7z"></path>
	<path d="M125.3,111c5.6-0.8,11.2-0.7,16.8,0C136.5,111.7,130.9,111.7,125.3,111z"></path>
	<path d="M97.3,133.3c-5.5,0.7-11,0.7-16.5,0C86.3,132.6,91.8,132.6,97.3,133.3z"></path>
	<path d="M74.4,119.9c5.3-0.8,10.6-0.8,15.9,0C84.9,120.6,79.7,120.6,74.4,119.9z"></path>
	<path d="M83.8,97.5c5.5-0.6,10.8-0.6,16.3,0C97.8,98.3,86.2,98.3,83.8,97.5z"></path>
	<path d="M128.7,84.2c-5.3,0.7-10.6,0.6-15.9,0C115.5,83.4,125.5,83.4,128.7,84.2z"></path>
	<path d="M93.4,142.3c5.3-0.7,10.7-0.7,16,0C104.1,142.9,98.7,143,93.4,142.3z"></path>
	<path d="M129.4,39.5c-5.3,0.7-10.7,0.7-16,0C118.7,38.8,124,38.8,129.4,39.5z"></path>
	<path d="M87.7,111c5.4-0.8,10.8-0.8,16.2,0C98.4,111.7,93,111.7,87.7,111z"></path>
	<path d="M71.4,137.7c5.8-0.7,11.6-0.6,17.4-0.1C87.4,138.4,75.4,138.6,71.4,137.7z"></path>
	<path d="M110.1,70.8c5.3-0.7,10.7-0.7,16,0C120.8,71.5,115.5,71.4,110.1,70.8z"></path>
	<path d="M85.6,30.6c5.8-0.7,11.6-0.7,17.3,0C97.2,31.2,91.4,31.1,85.6,30.6z"></path>
	<path d="M145.9,93.2c-5.8,0.6-11.6,0.6-17.7,0.1C130.5,92.4,143.2,92.4,145.9,93.2z"></path>
	<path d="M95.1,151.3c-5.8,0.6-11.6,0.6-17.7,0.1C79.6,150.5,92.3,150.4,95.1,151.3z"></path>
	<path d="M113,119.8c5.2-0.5,10.3-0.5,15.5,0C126.8,120.6,115.2,120.6,113,119.8z"></path>
	<path d="M103,128.9c-5.3,0.6-10.6,0.6-15.9,0C92.4,128.1,97.7,128.1,103,128.9z"></path>
	<path d="M81.3,115.5c5.6-0.7,11.2-0.7,16.8,0C92.5,116.1,86.9,116.1,81.3,115.5z"></path>
	<path d="M94.3,102.1c-5.6,0.7-11.2,0.6-16.9,0.2C78.9,101.4,90.3,101.2,94.3,102.1z"></path>
	<path d="M119.8,79.7c5.5-0.7,11.1-0.7,16.6,0C130.8,80.3,125.3,80.3,119.8,79.7z"></path>
	<path d="M106.1,30.6c2.7-0.7,14.3-0.7,17.1-0.1C121.2,31.2,110.1,31.3,106.1,30.6z"></path>
	<path d="M107.3,75.2c-5,0.7-10.1,0.7-15.1,0C97.2,74.6,102.3,74.6,107.3,75.2z"></path>
	<path d="M118.3,115.4c5.4-0.7,10.7-0.7,16.1,0C129.1,116.1,123.7,116.1,118.3,115.4z"></path>
	<path d="M87.9,66.3c2.7-0.7,13-0.7,16.3-0.1C102.5,67,92.1,67.1,87.9,66.3z"></path>
	<path d="M128.2,102c-5.3,0.7-10.7,0.7-16.1,0C117.4,101.3,122.8,101.4,128.2,102z"></path>
	<path d="M108.2,75.2c5-0.6,10-0.6,15.3-0.1C120.9,75.9,111.5,75.9,108.2,75.2z"></path>
	<path d="M91.9,124.4c5.1-0.7,10.2-0.7,15.3,0C102.1,125,97,125,91.9,124.4z"></path>
	<path d="M98.3,137.8c5.1-0.6,10.1-0.6,15.2,0C108.4,138.4,103.4,138.4,98.3,137.8z"></path>
	<path d="M108,44c5.1-0.7,10.1-0.7,15.2,0C118.1,44.6,113,44.5,108,44z"></path>
	<path d="M122.7,88.7c-5,0.5-10,0.5-15.2,0.1C109.1,88,120,87.9,122.7,88.7z"></path>
	<path d="M107.1,44c-4.6,0.6-9.3,0.6-13.9,0C97.8,43.3,102.4,43.4,107.1,44z"></path>
	<path d="M110.2,124.3c4.6-0.6,9.2-0.6,13.9-0.1C122.2,124.9,112.8,125,110.2,124.3z"></path>
	<path d="M92.8,88.6c4.6-0.5,9.1-0.5,14-0.1C104.6,89.2,95,89.3,92.8,88.6z"></path>
	<path d="M110.4,102c-4.3,0.6-8.6,0.6-12.9,0C101.8,101.4,106.1,101.4,110.4,102z"></path>
	<path d="M115.9,133.3c-4.6,0.5-9.2,0.5-13.8,0C106.8,132.6,111.3,132.7,115.9,133.3z"></path>
	<path d="M107.6,128.8c4.1-0.5,8.1-0.5,12.3-0.1C118.6,129.4,110.7,129.5,107.6,128.8z"></path>
	<path d="M101.3,115.4c4.1-0.6,8.2-0.6,12.3,0C109.5,116.1,105.4,116,101.3,115.4z"></path>
	<path d="M117.4,111.1c-4.3,0.5-8.5,0.4-12.8,0C106.4,110.3,115.1,110.3,117.4,111.1z"></path>
	<path d="M109.7,120c-4.6,0.5-9.2,0.4-13.8,0.1C98.1,119.3,106.3,119.3,109.7,120z"></path>
	<path d="M109.9,84.2c-3.7,0.5-7.5,0.5-11.2,0C102.4,83.6,106.1,83.6,109.9,84.2z"></path>
	<path d="M114.2,97.6c-4.1,0.6-8.1,0.6-12.2,0C106.1,97,110.1,97,114.2,97.6z"></path>
	<path d="M112.5,39.5c-4.1,0.5-8.1,0.5-12.2,0C104.4,38.9,108.5,39,112.5,39.5z"></path>
	<path d="M103.7,26.6c-2.8,0.1-5.5,0-8.1-0.5C98.2,25.9,100.9,24.9,103.7,26.6z"></path>
</g>
<g onclick="select(this)" class="" id="estampa-secundaria" fill="#021c3b">
	<path d="M148.6,244.2c-6.1,1-12.3,0.1-18.4,0.2c-6.1,0-12.3,0.6-18.7-0.1c0.8-0.6,1.6-0.4,2.3-0.5
		c3.1-0.3,6.1-0.3,9.2,0.3c0.6,0.1,1.1-0.2,1.6-0.2c3.4-0.2,6.8,0.1,10.1,0.1c3.1,0,6.2-0.4,9.3-0.3c1.5,0,3,0.2,4.5,0.3
		C148.6,244,148.6,244.1,148.6,244.2z"></path>
	<path d="M124.6,279.1c-0.7,0.4-1.4,0.3-2.1,0.3c-3.5,0.3-7,0.3-10.5-0.1c-1.6-0.2-3,0.2-4.5,0.3
		c-4.2,0.1-8.5,0.2-12.7-0.2c-0.2,0-0.5,0-0.7-0.4c1.8-0.1,3.4-0.3,5.1-0.3c3.8,0,7.7-0.1,11.5,0.4c0.9,0.1,1.9-0.2,2.8-0.2
		C117.1,278.5,120.8,278.6,124.6,279.1z"></path>
	<path d="M121.9,265.8c-3.4,0.7-6.8,0.8-10.3,0.3c-1.6-0.2-3.1,0.4-4.7,0.3c-3.5,0-6.9,0.2-10.4-0.6
		c0.7-0.1,1.5-0.2,2.2-0.2c0.8-0.1,1.5-0.2,2.3-0.2c2.8,0,5.5-0.2,8.3,0.2c2.9,0.4,5.7-0.5,8.6-0.2
		C119.2,265.7,120.6,265.7,121.9,265.8z"></path>
	<path d="M116.5,261.5c0.9-0.1,1.8-0.3,2.6-0.3c2.4,0,4.8-0.1,7.2,0.3c0.8,0.2,1.9-0.2,2.9-0.3
		c3.8-0.3,7.5-0.3,11.2,0.1c0.4,0,0.7,0.1,1.1,0.5c-5.1,0.3-10,0.6-14.8-0.3c-0.5-0.1-0.7,0.2-1.1,0.3c-3,0.3-6,0.3-9-0.1
		C116.7,261.8,116.7,261.7,116.5,261.5z"></path>
	<path d="M122.4,222.2c2.5-0.4,5-0.6,7.5-0.3c2,0.2,3.9,0.1,5.8,0c3.7-0.3,7.3-0.2,11,0.4c-4,0.6-8.1,0.6-12.1,0.3
		C130.5,222.2,126.4,223.2,122.4,222.2z"></path>
	<path d="M114.4,239.4c7.6-0.1,15.3-0.1,22.9,0c0,0.2,0,0.4,0,0.6c-7.6,0.2-15.2,0-22.9,0
		C114.5,239.9,114.5,239.6,114.4,239.4z"></path>
	<path d="M111.4,252.8c2.9-0.5,5.8-0.5,8.7-0.2c1,0.1,2,0.1,3.1,0c3.7-0.3,7.4-0.3,11.1,0.2c-1.9,0.5-3.8,0.5-5.7,0.5
		c-1.9,0-3.8,0.2-5.7-0.2c-2-0.4-3.8,0.4-5.8,0.2C115.2,253.2,113.3,253.4,111.4,252.8z"></path>
	<path d="M130.2,257.2c-0.8,0.4-1.7,0.4-2.5,0.4c-2.5,0-5,0.2-7.4-0.1c-2.8-0.3-5.6,0.5-8.4,0.2
		c-1.2-0.1-2.3-0.1-3.5-0.5c3.3-0.6,6.6-0.6,9.9-0.1c0.3,0,0.6,0,0.9,0C122.9,256.7,126.5,256.7,130.2,257.2z"></path>
	<path d="M105.6,270.4c-5.6,0.6-11.3,0.6-16.9,0C94.3,269.7,100,269.7,105.6,270.4z"></path>
	<path d="M156.8,270.3c-2.6,0.7-14.1,0.7-16.9,0C145.5,269.7,151.1,269.7,156.8,270.3z"></path>
	<path d="M139.1,252.9c5.7-0.7,11.4-0.7,17.1,0C150.4,253.6,144.8,253.6,139.1,252.9z"></path>
	<path d="M106.5,213.6c-5.7,0.7-11.3,0.6-17,0.1C92.1,212.8,102.9,212.8,106.5,213.6z"></path>
	<path d="M162.2,169.8c-5.7,0.6-11.3,0.6-17,0C150.8,169.1,156.5,169.1,162.2,169.8z"></path>
	<path d="M91.7,195.9c5.8-0.6,11.5-0.6,17.2,0C107.1,196.8,93.8,196.8,91.7,195.9z"></path>
	<path d="M94.8,226.7c2.1-0.8,14.8-0.8,17.1-0.1C109.8,227.3,99.3,227.4,94.8,226.7z"></path>
	<path d="M163.7,226.8c-5.9,0.6-11.5,0.5-17.3,0C148.1,225.9,161.2,225.9,163.7,226.8z"></path>
	<path d="M166.6,152.2c-2.6,0.8-14.4,0.7-17.2,0C155.4,151.6,161,151.7,166.6,152.2z"></path>
	<path d="M133.4,274.8c5.4-0.7,10.8-0.7,16.2,0C144.3,275.5,138.9,275.4,133.4,274.8z"></path>
	<path d="M142.7,139.2c5.6-0.7,11.1-0.7,16.7,0C153.8,139.8,148.3,139.8,142.7,139.2z"></path>
	<path d="M142,130.5c-5.4,0.6-10.9,0.6-16.3,0C131.1,129.7,136.5,129.7,142,130.5z"></path>
	<path d="M114.8,209.2c-5.5,0.6-10.9,0.6-16.4,0C103.9,208.4,109.4,208.4,114.8,209.2z"></path>
	<path d="M140.3,156.6c4.3-0.6,12.3-0.6,16.5,0C155.3,157.4,142.9,157.4,140.3,156.6z"></path>
	<path d="M141.4,187.3c5.4-0.7,10.9-0.7,16.3,0C152.3,188,146.8,187.9,141.4,187.3z"></path>
	<path d="M100.8,191.7c5.4-0.7,10.8-0.6,16.2,0C111.6,192.3,106.2,192.3,100.8,191.7z"></path>
	<path d="M118.9,134.7c3.7-0.6,11.6-0.6,15.6,0C132.5,135.6,121.1,135.6,118.9,134.7z"></path>
	<path d="M98.1,274.6c5.4-0.6,10.6-0.6,15.8,0C112.2,275.4,100.9,275.5,98.1,274.6z"></path>
	<path d="M160.8,213.6c-5.2,0.7-10.5,0.6-15.7,0C147.6,212.8,156.9,212.8,160.8,213.6z"></path>
	<path d="M112,178.5c-5.4,0.6-10.8,0.6-16.2,0C101.2,177.8,106.6,177.9,112,178.5z"></path>
	<path d="M133.8,209.1c5.2-0.7,10.4-0.7,15.6,0C144.2,209.8,139,209.8,133.8,209.1z"></path>
	<path d="M151.7,174.2c-5.1,0.7-10.2,0.7-15.3,0C141.5,173.5,146.6,173.5,151.7,174.2z"></path>
	<path d="M102,174.2c5.1-0.7,10.3-0.7,15.5,0C112.4,174.9,107.2,174.8,102,174.2z"></path>
	<path d="M150.2,191.7c-5.2,0.6-10.4,0.6-15.9,0.1C137.2,191,147.2,190.9,150.2,191.7z"></path>
	<path d="M151.9,126.1c-5.6,0.6-11.3,0.6-16.9,0C140.6,125.3,146.2,125.4,151.9,126.1z"></path>
	<path d="M142,147.9c-5.2,0.7-10.3,0.7-15.5,0C131.6,147.2,136.8,147.3,142,147.9z"></path>
	<path d="M86.4,182.8c5.9-0.6,11.6-0.6,17.4,0C102.2,183.6,89,183.7,86.4,182.8z"></path>
	<path d="M103,283.5c-5.6,0.5-11.3,0.5-17.1,0.1C87.6,282.8,100.1,282.7,103,283.5z"></path>
	<path d="M149.8,200.3c5.6-0.6,11.3-0.6,17-0.1C165.4,201.1,152.8,201.2,149.8,200.3z"></path>
	<path d="M167.7,182.9c-5.7,0.7-11.3,0.6-17,0C156.4,182.2,162,182.2,167.7,182.9z"></path>
	<path d="M156.9,204.8c-5.4,0.6-10.8,0.6-16.3,0C146.1,204.1,151.5,204.1,156.9,204.8z"></path>
	<path d="M106.6,270.3c4.8-0.6,9.6-0.6,14.6-0.1C119.6,271,110.1,271.1,106.6,270.3z"></path>
	<path d="M112.4,239.8c-5.4,0.6-10.8,0.6-16.4,0.1C97.8,239.1,109.6,239,112.4,239.8z"></path>
	<path d="M104,222.2c5.4-0.7,10.8-0.6,16.4-0.1C118.8,222.9,107.7,223,104,222.2z"></path>
	<path d="M149.5,143.6c-5.4,0.6-10.8,0.6-16.4,0.1C134.4,142.8,146.4,142.9,149.5,143.6z"></path>
	<path d="M148.2,257.2c-5.4,0.6-10.8,0.6-16.2,0C137.4,256.6,142.8,256.6,148.2,257.2z"></path>
	<path d="M119.2,248.5c-5,0.6-9.9,0.6-14.9,0C109.2,247.8,114.2,247.8,119.2,248.5z"></path>
	<path d="M152.7,231c-4.9,0.6-9.7,0.6-14.6,0C142.9,230.3,147.8,230.4,152.7,231z"></path>
	<path d="M88.3,165.4c5.4-0.7,10.8-0.7,16.2,0C99.1,166.1,93.7,166,88.3,165.4z"></path>
	<path d="M120.9,235.4c-4.9,0.7-9.8,0.6-14.6,0.1C108.8,234.7,116.8,234.6,120.9,235.4z"></path>
	<path d="M110.5,252.9c-4.6,0.7-9.2,0.7-13.7,0C101.3,252.2,105.9,252.2,110.5,252.9z"></path>
	<path d="M104.8,204.7c5.2-0.6,10.3-0.6,15.7-0.1C118.3,205.4,107.9,205.4,104.8,204.7z"></path>
	<path d="M153.3,217.9c-4.8,0.6-9.6,0.6-14.4,0C143.6,217.2,148.5,217.2,153.3,217.9z"></path>
	<path d="M142.2,279.1c-5.2,0.6-10.4,0.6-15.8,0.1C128.1,278.4,139.1,278.4,142.2,279.1z"></path>
	<path d="M121.4,152.2c4.9-0.6,9.8-0.6,14.9-0.1C134.3,152.9,124.3,153,121.4,152.2z"></path>
	<path d="M125.8,217.9c-5.2,0.7-10.3,0.6-15.5,0C115.4,217.2,120.6,217.3,125.8,217.9z"></path>
	<path d="M92.3,257.3c5.1-0.6,10.1-0.6,15.1,0C102.4,257.9,97.3,257.8,92.3,257.3z"></path>
	<path d="M139,239.8c2.6-0.8,12.5-0.7,14.9,0C149,240.4,144,240.4,139,239.8z"></path>
	<path d="M138.4,266c-5,0.6-10,0.6-15,0C128.4,265.4,133.4,265.4,138.4,266z"></path>
	<path d="M129,213.5c-4.7,0.6-9.3,0.6-14,0C119.7,212.9,124.3,212.9,129,213.5z"></path>
	<path d="M113.6,139.1c5.1-0.5,10.1-0.5,15.1,0C127.4,139.9,115.8,139.9,113.6,139.1z"></path>
	<path d="M121.5,283.4c4.9-0.6,9.9-0.6,15-0.1C134.8,284.1,125,284.2,121.5,283.4z"></path>
	<path d="M119.1,283.5c-4.9,0.6-9.9,0.6-14.9,0C109.2,282.8,114.1,282.9,119.1,283.5z"></path>
	<path d="M119.9,187.3c-4.4,0.7-8.8,0.7-13.2,0C111.1,186.6,115.5,186.6,119.9,187.3z"></path>
	<path d="M143.7,165.5c-5.1,0.5-10.1,0.5-15.2,0C130.1,164.7,141.5,164.7,143.7,165.5z"></path>
	<path d="M144.7,195.9c-2.2,0.7-13.2,0.7-15.4,0C134.5,195.4,139.5,195.4,144.7,195.9z"></path>
	<path d="M124.6,200.4c-3.3,0.8-13.7,0.6-14.8-0.1C113.7,199.7,121.9,199.8,124.6,200.4z"></path>
	<path d="M148.7,161.1c-4.8,0.6-9.7,0.6-14.5,0C139.1,160.4,143.9,160.3,148.7,161.1z"></path>
	<path d="M95.1,161.1c4.8-0.7,9.6-0.6,14.3,0C104.6,161.7,99.8,161.7,95.1,161.1z"></path>
	<path d="M114.1,156.7c-5,0.6-9.9,0.5-14.9,0C104.2,156.1,109.2,156.1,114.1,156.7z"></path>
	<path d="M122,169.9c-5.3,0.5-10.3,0.4-15.6,0C108.9,169.1,119.2,169.1,122,169.9z"></path>
	<path d="M130.4,248.5c4.3-0.7,8.6-0.6,12.9,0C139,249.1,134.7,249.1,130.4,248.5z"></path>
	<path d="M132.8,235.4c2.5-0.5,5-0.6,7.5-0.5c1.6,0.1,3.3,0.1,4.9,0.6C141,236.1,136.9,236.1,132.8,235.4z"></path>
	<path d="M140.1,200.3c-2.3,0.7-11.5,0.7-13.8,0C131.1,199.8,135.6,199.8,140.1,200.3z"></path>
	<path d="M110.8,143.6c4.5-0.6,9-0.6,13.5,0C119.8,144.1,115.3,144.1,110.8,143.6z"></path>
	<path d="M123.9,165.5c-4.4,0.5-8.9,0.5-13.5,0.1C111.8,164.8,121.9,164.8,123.9,165.5z"></path>
	<path d="M126.7,196c-4.5,0.5-9,0.6-13.4,0C117.8,195.4,122.3,195.4,126.7,196z"></path>
	<path d="M136,187.3c-4.5,0.6-9,0.6-13.4,0C127.1,186.7,131.6,186.7,136,187.3z"></path>
	<path d="M139.2,182.9c-4.2,0.5-8.4,0.6-12.6,0C130.8,182.3,135,182.3,139.2,182.9z"></path>
	<path d="M143.3,178.5c-4.2,0.6-8.4,0.7-12.5,0C134.9,177.9,139.1,177.9,143.3,178.5z"></path>
	<path d="M118.3,156.7c4.5-0.6,8.9-0.6,13.4,0C127.3,157.2,122.8,157.2,118.3,156.7z"></path>
	<path d="M118.8,209.1c4.5-0.6,8.9-0.5,13.7-0.1C130,209.7,121.5,209.7,118.8,209.1z"></path>
	<path d="M103.5,261.5c4.1-0.6,8.1-0.6,12.2-0.1C114.2,262.3,105.9,262.4,103.5,261.5z"></path>
	<path d="M139.1,169.8c-4.5,0.5-9,0.6-13.5,0C130.1,169.2,134.6,169.2,139.1,169.8z"></path>
	<path d="M124.2,231c-3.9,0.6-7.8,0.6-11.7,0C116.3,230.3,120.3,230.4,124.2,231z"></path>
	<path d="M124.1,204.8c4-0.5,7.9-0.6,11.9,0C132,205.3,128.1,205.3,124.1,204.8z"></path>
	<path d="M128.9,226.6c2.7-0.7,9.6-0.7,11.9-0.1C138.9,227.2,132.1,227.3,128.9,226.6z"></path>
	<path d="M128.1,226.6c-3.9,0.6-7.8,0.6-11.7,0C120.3,226,124.2,226.1,128.1,226.6z"></path>
	<path d="M129.8,213.4c4.3-0.5,8.4-0.4,12.6,0C140.8,214.1,131.8,214.1,129.8,213.4z"></path>
	<path d="M127.2,161.1c-3.7,0.5-7.4,0.4-11.1,0C119.7,160.4,123.4,160.5,127.2,161.1z"></path>
	<path d="M108.4,147.9c3.9-0.5,7.8-0.5,12.1-0.1C118.3,148.4,111,148.5,108.4,147.9z"></path>
	<path d="M116.2,274.7c4-0.6,7.9-0.6,11.9,0C124.1,275.3,120.2,275.3,116.2,274.7z"></path>
	<path d="M116.5,152.3c-4.5,0.5-8.9,0.5-13.4,0C107.6,151.7,112,151.8,116.5,152.3z"></path>
	<path d="M128.6,178.6c-3.5,0.5-7,0.4-10.8,0.1C119.5,177.9,126.2,177.9,128.6,178.6z"></path>
	<path d="M122.7,270.4c4.5-0.5,8.9-0.5,13.4,0C131.7,270.9,127.2,270.9,122.7,270.4z"></path>
	<path d="M123.5,182.9c-3.2,0.5-6.3,0.6-9.5,0C117.2,182.4,120.4,182.4,123.5,182.9z"></path>
	<path d="M137.8,217.9c-3.5,0.5-7.1,0.5-10.6,0C130.7,217.3,134.2,217.4,137.8,217.9z"></path>
	<path d="M123.2,174.2c3.9-0.6,7.9-0.6,11.8,0C131.1,174.6,127.2,174.6,123.2,174.2z"></path>
	<path d="M118.7,191.6c3.9-0.6,7.8-0.5,11.8,0C126.5,192.2,122.6,192.2,118.7,191.6z"></path>
	<path d="M125,231c3.8-0.6,7.6-0.5,11.4,0C132.6,231.5,128.8,231.5,125,231z"></path>
	<path d="M129.7,248.5c-3.2,0.5-6.5,0.6-9.7,0C123.2,248,126.4,248,129.7,248.5z"></path>
	<path d="M122.2,235.4c3.2-0.5,6.3-0.5,9.5,0C128.5,235.8,125.4,235.8,122.2,235.4z"></path>
</g>
</svg>
