<!--?xml version="1.0" encoding="utf-8"?-->
<!-- Generator: Adobe Illustrator 24.2.3, SVG Export Plug-In . SVG Version: 6.00 Build 0)  -->
<svg version="1.1" id="Camada_1" xmlns="http://www.w3.org/2000/svg" xmlns:xlink="http://www.w3.org/1999/xlink" x="0px" y="0px" viewBox="0 0 234 419" enable-background="new 0 0 234 419" xml:space="preserve">
<g onclick="select(this)" class="" id="c-estampa-primaria" fill="#71aad4">
	<path d="M46.563179,118.2222443c-0.0053787-1.183342-0.0107574-2.3666763-0.0160866-3.5501328
		c0.4659691-3.5538559-0.8902283-6.9151535-1.1747475-10.4006424c-0.1778526-2.178772,0.1230736-4.523468-0.9696426-6.6009369
		c0.2142792-4.2085571-0.9718552-8.2517548-1.4422035-12.3788147c-0.4165764-3.6552429-1.5908356-6.9612808-3.7826271-9.9228821
		c-0.5173111-0.6990051-0.878624-1.5161285-1.2888336-2.2910004c-1.6738281-3.1617966-2.3613968-6.6662598-3.4535027-10.0285034
		c-2.0972748-6.4568939-3.4270191-13.0566826-3.4706383-19.8752785c-0.0071144-1.1117973,0.2079868-2.2083588,0.2779732-3.3180962
		c0.1226978-1.9455872-0.0349522-3.9135056,0.4112911-5.8417435c0.1230946-0.5319099,0.1154919-1.1185951-0.2285233-1.6205292
		c4.2194691-1.9786053,8.4010944-4.0390835,12.7401257-5.7554207c7.1251945-2.8184242,14.1391716-5.8974724,21.1239929-9.044529
		c3.9447784-1.7773457,7.5905914-4.0751429,11.234581-6.379427c0.4509277-0.2851515,0.7562561-0.6992817,1.1081924-1.079278
		c1.1422119-1.2332792,2.4376221-2.186347,4.2301788-2.1526685c3.338356,0.1755681,6.6431808,0.6605306,9.9407043,1.1618514
		c7.085022,1.0771284,14.2381058,1.2819529,21.3690948,1.7711859c5.1623001,0.354167,10.299881-0.1624851,15.4454117-0.4610624
		c4.3482513-0.2523136,8.6943665-0.5142403,13.0150757-1.0700407c3.1983948-0.4114323,6.3863373-0.903841,9.5801544-1.3514442
		c0.7448425-0.1043882,1.4946442-0.1733685,2.2424469-0.258884c2.0242615,0.0467844,3.5067291,1.0518651,4.789505,2.5459428
		c1.0005798,1.1654196,2.4201965,1.8163595,3.7376709,2.5509024c8.6218414,4.8068933,17.5932922,8.8771601,26.7783203,12.471858
		c4.9471436,1.9361496,9.6673889,4.3572903,14.5066528,6.5224266c0.2096863,0.0938148,0.3825226,0.2698288,0.572464,0.4074516
		c-0.4069672,0.5227547-0.4762421,1.2061386-0.2716827,1.7161903c0.4538269,1.1317139,0.1228027,2.2535553,0.178009,3.3726959
		c0.1442108,2.9240303,0.5751038,5.8408432,0.2544861,8.7795525c-0.2671051,2.4481697-0.3092957,4.9418678-0.8142242,7.3390007
		c-1.3115692,6.2267609-3.1703033,12.3148193-5.2812195,18.3148727c-0.7233124,2.0560226-1.7638092,4.0645142-3.4004974,5.5425034
		c-0.9956818,0.8991394-1.7586823,1.841507-2.1265106,3.0757675c-1.2243652,4.1081772-1.5516205,8.3596039-1.7804413,12.6044159
		c-0.1525116,2.8287888-0.3384247,5.6222229-1.0775299,8.3779449c-0.5473022,2.0405807-0.7767029,4.1761093-0.5781555,6.273468
		c0.1568451,1.6570282-0.1188049,3.2417679-0.2446136,4.8568726c-0.0404053,2.6245956-0.6573944,5.2096024-0.5391235,7.8450851
		c-0.4489594,0.2575073-0.2702484,0.7125244-0.3135986,1.0791779c-1.2413483,10.5049667-1.4894104,21.0417252-0.9481812,31.5993576
		c0.1662598,3.2433929-0.087677,6.4668121-0.2795715,9.6972504c-0.3607941,6.0736237,0.1223907,12.1427765,0.1457672,18.2147064
		c0.0103149,2.6793365-0.1021118,5.3511047-0.4322815,8.0139923c-0.2367706,1.9098663-0.2719879,3.8260651,0.0496826,5.7355804
		c0.0464172,0.2754822,0.1215515,0.5604858,0.0937347,0.8318939c-0.3126831,3.0526733,0.522522,5.905365,1.3583374,8.7943726
		c1.6499481,5.7030182,1.9922333,11.539566,1.5094452,17.4485779c-0.3468628,4.2449493-0.8688049,8.4920959-0.0210419,12.7551575
		c0.2144012,1.0780792,0.1135559,2.2329254,0.0599823,3.3478241c-0.3651428,7.5992432,0.7537537,15.1268005,1.0924377,22.6917877
		c0.2391968,5.3427734,0.695282,10.6752319,0.9338837,16.0210266c0.0690002,1.5457458,0.2881775,3.0946045,0.2843933,4.6512756
		c-0.004303,1.7687683-0.2490845,2.1618652-1.9274139,2.6983032c-4.4263763,1.4148254-8.9795227,2.2865601-13.5679626,2.944397
		c-11.5893097,1.6616211-23.2747192,1.8406372-34.9467316,1.9870605
		c-21.5126724,0.2699585-43.0280762,0.6168213-64.5417786,0.3160095
		c-10.0044556-0.1399231-19.9631386-1.0458679-29.6620255-3.7736511c-3.6749039-1.0335693-3.7975426-1.0592957-3.5729256-4.8137512
		c0.4194565-7.0112305,0.9851761-14.0138855,1.5068588-21.0188599c0.2404671-3.2288208-0.1057968-6.4777679,0.3547783-9.6977844
		c0.0791359-0.5532532,0.0903854-1.1240082,0.23592-1.6586914c0.8769379-3.2216339,0.0700493-6.4328766-0.054657-9.6429749
		c-0.1797371-4.6266632,0.2290459-9.1895599,1.4315758-13.6493683c0.4302254-1.59552,0.4745674-3.1356812,0.2800369-4.7204742
		c-1.0652695-8.6782684-0.8899117-17.300293,1.0741653-25.8546143c0.3130112-1.3632813,0.4456902-2.7727051,0.3333054-4.1702423
		c-0.381813-4.7480774,0.0052261-9.5021973-0.169754-14.2532043c-0.2117043-5.7481232-0.049614-11.5061798-0.4568825-17.2516174
		c-0.254734-3.5935211,0.41399-7.162674,0.2963448-10.7697296c-0.3126602-9.5863953-0.864727-19.1581116-1.4703903-28.7281189
		C46.8132248,118.8648148,46.9605751,118.4593201,46.563179,118.2222443z"></path>
	<path d="M188.6978302,112.5258331c0.1258087-1.6151047,0.4014587-3.1998444,0.2446136-4.8568726
		c-0.1985474-2.0973587,0.0308533-4.2328873,0.5781555-6.273468c0.7391052-2.755722,0.9250183-5.5491562,1.0775299-8.3779449
		c0.2288208-4.244812,0.556076-8.4962387,1.7804413-12.6044159c0.3678284-1.2342606,1.1308289-2.1766281,2.1265106-3.0757675
		c1.6366882-1.4779892,2.6771851-3.4864807,3.4004974-5.5425034c2.1109161-6.0000534,3.9696503-12.0881119,5.2812195-18.3148727
		c0.5049286-2.3971329,0.5471191-4.890831,0.8142242-7.3390007c0.3206177-2.9387093-0.1102753-5.8555222-0.2544861-8.7795525
		c-0.0552063-1.1191406,0.2758179-2.2409821-0.178009-3.3726959c-0.2045593-0.5100517-0.1352844-1.1934357,0.2716827-1.7161903
		c0.2737274,0.1590652,0.5721893,0.2868462,0.8175354,0.4814796c10.1980286,8.0904961,16.7229156,18.4832726,19.743042,31.1452904
		c1.3559875,5.6850319,1.9811249,11.4740028,2.9464417,17.2147942c1.6348114,9.7222748,2.6294403,19.5462036,4.6751862,29.2010117
		c0.0982513,0.463768,0.0819855,0.9517746,0.1190948,1.4285812c-2.6624298,0.6754913-5.3132629,1.4063416-8.0528412,1.7198792
		c-3.2033081,0.3666-6.4080658,0.7206268-9.6104279,1.0951157c-2.9236603,0.3418884-5.8379669,0.904007-8.769104,1.0065155
		c-3.7044525,0.1295547-7.4232941-0.068306-11.1326752-0.2101593c-1.2049866-0.0460663-2.331665-0.5916901-3.2850342-1.3171768
		C190.4791412,113.419754,189.8283386,112.5811768,188.6978302,112.5258331z"></path>
	<path d="M31.4256382,32.3936844c0.3440151,0.5019341,0.3516178,1.0886192,0.2285233,1.6205292
		c-0.4462433,1.9282379-0.2885933,3.8961563-0.4112911,5.8417435c-0.0699863,1.1097374-0.2850876,2.2062988-0.2779732,3.3180962
		c0.0436192,6.8185959,1.3733635,13.4183846,3.4706383,19.8752785c1.0921059,3.3622437,1.7796745,6.8667068,3.4535027,10.0285034
		c0.4102097,0.7748718,0.7715225,1.5919952,1.2888336,2.2910004c2.1917915,2.9616013,3.3660507,6.2676392,3.7826271,9.9228821
		c0.4703484,4.1270599,1.6564827,8.1702576,1.4422035,12.3788147c1.0927162,2.0774689,0.79179,4.4221649,0.9696426,6.6009369
		c0.2845192,3.4854889,1.6407166,6.8467865,1.1747475,10.4006424c-0.7342834-0.1647568-0.4405403-0.7595291-0.4436913-1.1752014
		c-0.0064087-0.8451843-0.3373947-1.1737671-1.0873833-0.7108154c-2.1440201,1.3234711-4.503933,1.3891373-6.9232025,1.406723
		c-5.9878693,0.0435028-11.9068069-0.3800735-17.8393574-1.3505173c-5.7283249-0.9370346-11.4491043-1.8993073-17.1551247-2.9598007
		c-0.4830325-0.0897675-0.9225605-0.2303543-1.3358734-0.4796906c1.2440469-7.9673233,2.1965909-15.9947205,4.3842006-23.7802811
		c1.4992447-5.335701,1.9565887-10.8423233,2.9865932-16.2524109c1.5338802-8.056694,3.9407263-15.8068924,8.3908644-22.7923698
		c2.7516975-4.319397,6.1700726-8.0570145,10.2076225-11.1988678C28.982914,34.4052696,29.9594669,33.0947647,31.4256382,32.3936844
		z"></path>
</g>
<g onclick="select(this)" class="" id="c-estampa-secundaria" fill="#ffffff">
	<path d="M205.1917725,100.0276337c0.0549622,0.0412521,0.1099091,0.0824966,0.1648712,0.1237564
		c-0.1585083,0.067276-0.1931,0.006752-0.1443024-0.1397629L205.1917725,100.0276337z"></path>
	<path d="M221.7686615,79.4048996c-0.0095978-0.0963745,0.0236053-0.1382217,0.0996246-0.1255341
		c-0.0054779,0.0227737-0.0035553,0.0553741-0.0179901,0.0662079c-0.0280762,0.02108-0.0653381,0.0299606-0.0988159,0.0438919
		L221.7686615,79.4048996z"></path>
	<path d="M43.6712074,89.9514008c0.0237389,0.0148544,0.0474815,0.0297012,0.0712204,0.044548
		c-0.0194168-0.0191574-0.0388374-0.0383148-0.0582581-0.0574799
		C43.6841736,89.9384689,43.6712074,89.9514008,43.6712074,89.9514008z"></path>
	<path d="M221.7514801,79.3894653c-1.512146,1.4173203-3.2502899,2.5499115-4.8577576,3.8475494
		c-1.2381134,0.9994812-2.5061035,1.9620056-3.8319092,2.9964371c1.5691376,1.2797699,3.0912933,2.4973297,4.5871429,3.746376
		c2.8482056,2.3783035,5.7854919,4.6511536,8.5154266,7.1698761c0.1755981,0.1620102,0.3786926,0.294754,0.550293,0.4604416
		c0.9346771,0.9024734,1.9679871,1.3078461,3.2204437,0.6659012c0.0503845,0.1207733,0.1007843,0.241539,0.1511841,0.3622971
		c0.0000153,0-0.0478516,0.0570679-0.0478516,0.0570679l0.0605774,0.0450668
		c0.0105286,0.3645554,0.1157074,0.728653,0.0053253,1.0937958c-0.9879913,0.6672211-1.8869324,0.3257523-2.7858124-0.2218552
		c-2.1925201-1.3357468-4.1637878-2.9622955-6.1066132-4.6246719c-2.8853607-2.4688721-5.7102051-5.005928-8.4030457-7.6841812
		c-0.4752197-0.4726563-0.7682495-0.4494324-1.2677002-0.0307617c-1.4218597,1.1918716-2.3023987,2.7174988-2.904129,4.5260086
		c-0.5378418-1.6628342-0.06427-3.5502625,1.3307343-5.4145737c-1.7525787-1.1089096-3.4971619-2.2196198-5.2486267-3.319397
		c-2.9418488-1.8472443-5.893692-3.6787262-8.8233032-5.545105c-0.2772827-0.176651-0.9708557-0.2836761-0.6388702-0.786293
		c0.3082886-0.4667435,0.702652,0.0854187,1.0086517,0.2557297c4.7794495,2.6600494,9.5474091,5.3407288,14.3217773,8.009903
		c1.0565033,0.5906601,1.0724945,0.5895386,1.9480286-0.1575012c0.881485-0.7521057,1.7275238-1.5461502,2.6176758-2.287529
		c0.4488068-0.3737793,0.4378357-0.6350479,0.0296478-1.0499268c-4.2891846-4.359787-8.560257-8.7373657-12.8383789-13.1080399
		c-0.7774048-0.7942276-1.859787-1.2173233-2.5518341-2.1667175c1.3744507,0.3480377,2.858139,0.3933563,3.9296875,1.5199509
		c4.1039581,4.3147888,8.2029724,8.6342697,12.2977448,12.9577789c0.8865356,0.9360428,0.8606567,0.9157562,2.0704498,0.3667603
		c1.2259674-0.5563202,2.3284454-1.3866653,3.6782227-1.6689529L221.7514801,79.3894653z"></path>
	<path d="M29.4257603,121.9877625c-1.285862-3.1748428-2.7278214-6.2804794-4.1466846-9.3968124
		c-0.2906399-0.6383514-0.5372944-0.8725891-1.3173218-0.6308823c-3.5740452,1.1074982-7.1764755,2.1235123-10.7688227,3.1719894
		c-0.1490917,0.0435104-0.2992649,0.0833206-0.4898491,0.004425c1.7814913-0.6399384,3.5611296-1.28508,5.3448534-1.9187469
		c3.8312893-1.3610306,7.6384888-2.7863388,11.4463348-4.2111206c1.0581703-0.3959198,1.6499577-0.9465637,1.8344975-2.0610657
		c0.078043-0.4713516,0.0386276-1.050087,0.6706829-1.5835876c-0.4607964,2.2561874,0.7365723,3.3204269,2.3753242,4.2803116
		c2.5790863,1.5106659,5.0516548,3.203064,7.5671577,4.8218842c0.2323685,0.1495438,0.4491463,0.323288,0.7413063,0.5352173
		c-0.35783,0.2018356-0.5583649-0.0330811-0.7578354-0.1382217c-3.1051292-1.6366653-6.2116127-3.2709961-9.3020554-4.935051
		c-0.5418358-0.2917633-0.9933357-0.329628-1.5648403-0.0692902c-1.2327728,0.5615463-2.5031796,1.0402603-3.7555008,1.5593491
		c-1.0361252,0.4294662-1.0450783,0.4392166-0.538475,1.3978348c1.4893303,2.8181915,2.9895554,5.6306152,4.4805717,8.4479218
		c0.1648865,0.3115463,0.4066887,0.5964279,0.3955708,0.9805908
		C30.8871174,122.2900467,30.1397076,122.2842178,29.4257603,121.9877625z"></path>
	<path d="M218.1030731,48.1101189c-0.3907623,0.593277-0.721405,0.6750526-1.2562866,0.0626106
		c-1.1273499-1.290863-2.3645172-2.4853058-3.5154419-3.756546c-0.5168762-0.5709152-1.0628052-0.8311386-1.858902-0.8336411
		c-2.193161-0.006897-4.3860016-0.117321-6.578949-0.1864281c-0.1196899-0.0037689-0.2396698-0.0006676-0.3591766-0.0069427
		c-0.2026367-0.0106316-0.4191742-0.0297356-0.4534302-0.2824478c-0.0452728-0.3338051,0.2075958-0.4297791,0.450058-0.3968964
		c0.8795166,0.1192551,0.9176025-0.4022713,0.955719-1.0730972c0.1266022-2.2275963,0.3105469-4.4519539,0.4759827-6.6772957
		c0.0171814-0.2312355-0.0212097-0.4874115,0.2172089-0.6471977c0.0842438,0.0784149,0.1684723,0.156826,0.2527161,0.2352448
		c0.0130463,0.1268616,0.0292358,0.2512131,0.2010345,0.2511482l-0.0148926-0.0143967
		c-0.1315918,2.5617142,0.3072205,5.0885963,0.3227844,7.8255424c1.8883362-0.9345207,3.5855408-1.7744598,5.2827606-2.614399
		c0.4611511,0.2582626,0.7874756,0.6249962,0.9226227,1.1455231c-0.6206818,0.4518433-1.2413635,0.9036903-1.8620453,1.3555374
		c0.0049591,0.0881653,0.009903,0.1763344,0.0148621,0.2645073c1.9096222-0.637722,2.9599152,0.6492767,4.1429901,1.6496849
		c0.2673035,0.2260323,0.4797821,0.5262833,0.8282013,0.6502571c0,0,0.0067291,0.0061989,0.0067291,0.0061951
		c0.0577545,0.0622139,0.1154785,0.1244316,0.1732178,0.1866493
		C217.1042023,46.1465721,217.7106781,47.066494,218.1030731,48.1101189z"></path>
	<path d="M221.9766693,56.3089333c-1.2050781,0.4767456-1.9853516,1.2728653-2.036377,2.6451111
		c-0.011734,0.3154221-0.1157684,0.6263237-0.1572571,0.9419479c-0.1151123,0.8761215-0.4594421,1.4483681-1.3837738,1.8380852
		c-3.8573456,1.6263618-7.6652222,3.3699036-11.4922638,5.0681992c-0.1728668,0.0767212-0.3556519,0.1311798-0.5583496,0.131424
		c2.2675323-1.3447189,4.5957184-2.5624161,6.8261566-3.9483986c1.4905243-0.9262009,2.9929962-1.8329964,4.3825836-2.9138832
		c0.6119995-0.4760704,1.0679779-1.0441933,1.4438782-1.7222252c0.7130432-1.2861176,1.3965302-2.5953903,2.3273468-3.7483101
		C221.6452179,55.1321144,221.8438416,55.7080612,221.9766693,56.3089333z"></path>
	<path d="M203.5902405,123.7194214c-1.4552765-2.7807312-2.9099121-5.5617981-4.3663025-8.3419418
		c-0.4266815-0.8145065-0.4316101-0.8184738,0.425354-1.2551727c1.1264801-0.5740509,2.2564697-1.1421967,3.688324-1.3701401
		c-0.7444153,1.5363998-2.308548,1.3689957-3.4739227,2.0037613c1.8032227,3.0109634,3.6729126,5.9158325,5.2957458,8.9641342
		C204.6363373,123.789299,204.1132813,123.7910843,203.5902405,123.7194214z"></path>
	<path d="M19.8084869,120.9108429c-1.6409416-0.9772949-3.4319782-1.6363678-5.1599474-2.4290161
		c-0.6744652-0.3093948-1.3549786-0.6056137-1.9657574-1.0825653c4.4302588,1.4431915,8.8605185,2.8863831,13.2907782,4.329567
		c-0.7804527,0.1239471-1.5254955-0.1833649-2.2953682-0.1882553c-0.3228302-0.1813812-0.6707802-0.1298904-1.0153866-0.1094131
		C21.7026653,121.305397,20.7381763,121.2034607,19.8084869,120.9108429z"></path>
	<path d="M219.1168213,122.4491501c-0.0345306-1.4599762,0.122879-2.9043045,0.317276-4.5282364
		c1.6800232,1.3300476,3.39534,2.3745193,4.8972473,3.7127151c-0.8139191,0.2368622-1.631958,0.4473648-2.4919586,0.3905487
		c-0.6133118-0.5425186-1.2266388-1.0850296-1.8519135-1.6381226c-0.4197083,0.6539383-0.3560181,1.3197784-0.5281677,1.9253387
		C219.3451385,122.3573151,219.2309875,122.4032288,219.1168213,122.4491501z"></path>
	<path d="M43.9540558,121.5127869c-0.0443039-2.1425705,0.2447433-4.2553177,0.4529076-6.4230347
		c0.7650642,0.1760254,1.2060776,0.6853256,1.78302,0.9373627c0.2577095,0.3889008,0.1826591,0.8139114,0.134285,1.2360153
		c-0.5201035-0.2204895-0.9061775-0.3575974-1.0444374,0.4775162c-0.2045975,1.2358093-0.572113,2.4446869-0.8702621,3.6650314
		C44.2766304,121.5216751,44.1254425,121.5601349,43.9540558,121.5127869z"></path>
	<path d="M204.2297668,93.0556335c-0.1803131,0.8628616-0.9565735,1.2997589-1.4194641,1.9617386
		c-0.4278412,0.6119003-0.9546356,1.1547089-1.439682,1.7301102c1.3036194,1.1190567,2.5623779,2.1996002,3.8211517,3.2801514
		l0.0205688-0.0160065c-1.0116425-0.0121689-1.8272552-0.5996628-2.5895691-1.1026306
		c-1.5446167-1.0191193-2.7085266-0.7588806-4.1218872,0.3662415c-2.84021,2.2609329-5.8459625,4.3141098-8.7838287,6.4524536
		c-0.1491241,0.1085434-0.2816315,0.260498-0.4760132,0.255249c-0.0385132-0.0766144-0.0756378-0.1289291-0.0674591-0.1373367
		c1.7932892-1.8481445,1.9432068-4.27491,2.3335419-6.6159363c0.2295685-1.3767395,0.4493103-2.7551041,0.6772461-4.1321106
		c0.1752472-1.0586624,0.1554871-1.0830231-0.9072571-1.0363235c-0.1900787,0.0083542-0.3849487,0.1230164-0.5831146-0.029892
		c-0.1572113-0.2464371-0.0496826-0.532196-0.0727844-0.8037643c-0.0474396-0.5570526,0.2228546-0.7914734,0.7710724-0.8130264
		c0.9575195-0.0376511,1.9129944-0.1298676,2.8705902-0.1619873c0.7034607-0.0235977,0.8847198-0.3534088,0.9610901-1.0377808
		c0.118988-1.0663605-0.0536652-2.0341339-0.416626-3.0226059c-0.7824097-2.1308289-1.5173798-4.2792206-2.2539215-6.4265289
		c-0.1086578-0.3167877-0.2796021-0.6413345-0.2210388-1.0157547c0.3295898,0.0923004,0.3634796,0.35289,0.4633636,0.564209
		c1.0388031,2.1981049,2.047226,4.4113312,3.130661,6.5872498c0.4581909,0.9202499,0.7284698,1.8327484,0.6229248,2.8613892
		c-0.0487366,0.4749832,0.0165405,0.9614029-0.0285339,1.4370728c-0.054657,0.576683,0.1187592,0.982811,0.623291,1.3031693
		c0.7409058,0.470459,1.466629,0.9715805,2.1560669,1.5139389c0.4924316,0.3873367,0.8968353,0.3367844,1.4070892,0.0365219
		c1.1642761-0.6851349,2.2940979-1.4353638,3.537262-1.9806824L204.2297668,93.0556335z"></path>
	<path d="M17.4540157,50.8165321c-0.630291,5.2199059-1.162693,10.4408264-1.8164673,15.6469383
		c-0.6204281,4.940567-1.1804876,9.8887177-1.7598495,14.8343887c-0.0983372,0.839447-0.3262501,1.6054916-0.7753201,2.3485641
		c-1.6072884,2.6595306-3.1531239,5.3561478-4.7274599,8.0356445c-0.0764551,0.130127-0.2028246,0.230957-0.4883537,0.547905
		C11.1147823,78.2563934,14.284399,64.5364609,17.4540157,50.8165321z"></path>
	<path d="M16.3459606,100.5306854c2.4777813-2.3208237,4.7072372-4.8855515,7.1366501-7.2534485
		c0.3679848-0.3586578,0.23176-0.5413055-0.0823421-0.8493042c-1.2146091-1.1910248-2.7120533-1.9615479-4.1230221-2.8616791
		c-0.3891811-0.2482834-0.7787075-0.4960251-1.2767258-0.8132172c0.8706417-0.3341217,1.4876976-0.1605759,2.1251793,0.2497406
		c1.2412415,0.7989273,2.5503082,1.4951019,3.7700882,2.3238068c0.6185837,0.4202652,1.0533981,0.3168716,1.6043358-0.0600357
		c1.940731-1.3276825,3.903614-2.6230087,5.9985371-4.0245743c0.1933994,1.2592697,0.3683014,2.3980942,0.5857048,3.8136444
		c-0.4974442-0.6232529-0.6273136-1.1227722-0.7789478-1.588356c-0.1842289-0.5656738-0.3869019-0.6969833-0.9122925-0.3227692
		c-1.5239315,1.0854187-3.0753994,2.1322174-4.7193241,3.2653503c1.3855743,0.8461838,2.6964951,1.6369171,3.9955616,2.4466553
		c0.3515053,0.219101,0.5832748,0.1615067,0.7817936-0.1860962c0.250864-0.4392548,0.5131798-0.8719788,0.9264641-1.2573929
		c0,3.7036896,0,7.4073792-0.000618,11.1109543c-0.3002968-0.7046432-0.3532925-1.4475479-0.3858376-2.2025681
		c-0.0583954-1.3549881-0.1679478-2.7077332-0.2321815-4.0625534c-0.0181751-0.3833389-0.1095276-0.6841202-0.4248924-0.9329834
		c-1.5985184-1.2613373-3.1954002-2.5251617-4.7714767-3.8142242c-0.422905-0.3458786-0.6516724-0.2406845-0.9682331,0.1394272
		c-0.9522476,1.1434326-2.1455727,2.0114822-3.3289986,2.9046097c-2.113905,1.5953445-3.8258038,3.6190491-5.6378908,5.5325775
		c-0.1828432,0.1930847-0.2682009,0.5058746-0.7456322,0.5296173c0.5194969-2.8944626,1.0322895-5.751564,1.5450792-8.6086655
		c0.0462971,0.0069504,0.0925922,0.0139008,0.1388855,0.0208511c-0.1117554,2.1268921-0.2235146,4.2537766-0.3352718,6.3806686
		c-0.095417,0.0793076-0.1427307,0.1665115-0.0220394,0.2576523
		C16.2155914,100.6737137,16.2983932,100.5788956,16.3459606,100.5306854z"></path>
	<path d="M43.6841736,89.9384689c-0.5032654-0.0306625-0.7255325-0.4607773-1.0268059-0.7549286
		c-2.1369209-2.0864639-4.248661-4.1983414-6.3088112-6.4473572c-1.0910492,1.099678-1.9215469,2.3529282-2.9726677,3.6187897
		c-0.0288239-1.2322083,0.3037796-2.2593307,0.5647926-3.2642212c0.215004-0.8277359-0.0322189-1.2374344-0.6292-1.6934052
		c-2.0559883-1.5703659-4.0864544-3.1741409-6.1223202-4.7706909c-0.1197205-0.0938873-0.2013607-0.2362595-0.3007183-0.3560791
		l-0.0212593,0.0169144c0.4145851-0.1278763,0.6592865,0.1817551,0.9549961,0.3664246
		c2.1611671,1.349617,4.3441067,2.665947,6.4750957,4.0615234c0.7511673,0.4919434,1.3280563,0.496048,2.0245514-0.052681
		c0.6855507-0.5400925,1.5251808-0.9006653,2.1545601-1.4917297c0.637001-0.5982208,0.2820396-1.6142883,0.722435-2.4203262
		c0.4106178-0.0150604,0.7021179,0.3001328,0.9962006,0.5058212c0.8946533,0.6257629,0.9158173,1.1100082,0.1601372,1.890358
		c-0.7469673,0.771347-1.4985695,1.5385971-2.2128983,2.4865646c1.0357628,0.9755325,1.9864464,2.0539703,3.1160812,2.8912354
		c1.6241913,1.203804,2.2025528,2.8281937,2.3589516,4.7129135c0.0197334,0.237793,0.036026,0.4758606,0.0539131,0.7138062
		L43.6841736,89.9384689z"></path>
	<path d="M35.1600075,73.0213394c-1.739975-0.9802246-3.3184853-2.2033386-4.9647541-3.3228455
		c-4.2224121-2.8713531-8.4136448-5.7885094-12.6171665-8.6876144c-1.0534763-0.7265663-1.0555801-0.7274971-0.7925758-1.9957352
		c0.0646572-0.3117828,0.1530361-0.6185837,0.2260761-0.9287186c0.0708504-0.3008423-0.0351658-0.6388435,0.2457561-0.9852104
		c1.1535854,0.6945381,2.0669346,1.6915321,3.0691395,2.5616302c4.9128342,4.2652473,9.7928181,8.5682945,14.6819286,12.8607979
		c0.1170807,0.1027908,0.2051926,0.2385483,0.3068123,0.3589325C35.2640533,72.9294586,35.2123146,72.9757156,35.1600075,73.0213394
		z"></path>
	<path d="M214.329895,116.3234177c-0.4107361,0.0966187-0.6643219-0.1980362-0.9621735-0.3845367
		c-1.5206909-0.9522018-3.0521851-1.8877106-4.5581055-2.8626633c-0.5795135-0.3751907-1.0995636-0.5018234-1.7733002-0.1977005
		c-0.9773407,0.441185-2.0045319,0.7721252-3.3119812,1.2633591c0.5283203-0.6262512,0.8383331-1.1023865,1.251358-1.4595184
		c0.7363281-0.6366119,0.9086456-1.4474564,0.9532318-2.3518219c0.1806946-3.6648026,0.3793945-7.3287277,0.5740509-10.9928436
		c0.0123596-0.2327881-0.0376434-0.481987,0.3012695-0.8643951c0,1.1214371,0.0028839,2.0672684-0.0005341,3.0130844
		c-0.0102692,2.8336182,0.0080872,5.667923-0.0545807,8.500412c-0.017868,0.8067627,0.1695404,1.3009872,1.001709,1.4485931
		c0.5266876,0.0934067,0.9458923,0.3923645,1.350708,0.7282333c1.713028,1.4212036,3.5740204,2.6582565,5.2091522,4.1768112
		L214.329895,116.3234177z"></path>
	<path d="M17.9898205,45.9933319c0.0826111-0.1420898,0.1652203-0.2841759,0.2478294-0.4262695
		c4.017889,0.3543816,8.0357952,0.7085381,12.0535889,1.0640068c0.1588135,0.0140533,0.3177662,0.0338402,0.4744873,0.0627022
		c0.357008,0.0657501,0.4033089,0.3266373,0.3971081,0.6299095c-0.0090408,0.4424515-0.3282204,0.3931694-0.5964413,0.3600121
		c-1.1487942-0.1420097-2.2953796-0.3019447-3.4425812-0.4567375
		C24.0790958,46.8161316,21.0344772,46.4045906,17.9898205,45.9933319z"></path>
	<path d="M195.2514191,115.7606049c-2.0676422,0.802063-4.1336365,1.6083908-6.2050781,2.4004974
		c-0.2427521,0.0928345-0.5861053,0.2286148-0.6352692-0.2190628c-0.0469818-0.4277725-0.1251831-0.9210892,0.4724121-1.0668411
		c0.5801697-0.1414795,1.1689148-0.247612,1.7526855-0.374855c1.5100403-0.3291245,3.019455-0.6613083,4.5290985-0.9922791
		C195.193985,115.5922394,195.2226868,115.6764221,195.2514191,115.7606049z"></path>
	<path d="M207.0784454,94.9443665c-0.3042755-0.6633682,0.054306-1.3302002-0.3358459-1.747612
		c-0.3753052-0.4015045-1.09935,0.0006104-1.5814972-0.4592056c0.5437622-0.3589478,1.389801,0.1444321,1.7406311-0.6398239
		c0.2589874-0.5789032,0.2285461-1.2534637,0.6403351-1.8784103c0.3228455,0.6383438,0.0120087,1.3311768,0.2896271,1.8690643
		c0.2836304,0.5495529,1.094574,0.3648453,1.5230713,0.8295898c-0.5912628,0.3344116-1.2661896-0.0883331-1.7429199,0.2669525
		C207.1044006,93.5630951,207.5201721,94.3267517,207.0784454,94.9443665z"></path>
	<path d="M32.408493,60.9326363c0.1960144-0.4206276,0.6248169-0.5355835,1.005722-0.7107887
		c-0.1876106,0.4425163-0.4746323,0.7494316-1.0264664,0.692173L32.408493,60.9326363z"></path>
	<path d="M35.3152237,72.882576c0.3178444,0.113327,0.5695038,0.2915497,0.7263374,0.6888962
		c-0.4643898-0.0366974-0.6787987-0.2843781-0.8815536-0.5501328C35.2123146,72.9757156,35.2640533,72.9294586,35.3152237,72.882576
		z"></path>
	<path d="M32.3877487,60.9140205c0.0669479,0.2369308-0.0842896,0.333168-0.2686348,0.3914528
		c-0.0339317,0.0107346-0.1394062-0.0726891-0.1343002-0.0906029c0.0594521-0.208847,0.2257156-0.2723274,0.4236794-0.2822342
		L32.3877487,60.9140205z"></path>
	<path d="M31.1938019,36.6225014c-0.040823-0.0563164-0.1194229-0.1160851-0.1147785-0.1684799
		c0.0118141-0.1332092,0.1192207-0.1840706,0.2314053-0.1218414c0.0461979,0.0256271,0.0728645,0.1362762,0.0629044,0.2012825
		C31.3590679,36.626545,31.279417,36.6531563,31.1938019,36.6225014z"></path>
	<path d="M36.4787712,73.8824692c0.1433029,0.0434952,0.2862015,0.0895386,0.3284683,0.2575836
		c0.0030861,0.0122681-0.0596809,0.0619049-0.0775604,0.055336c-0.1508369-0.0553894-0.2462616-0.1564713-0.2360229-0.3298187
		L36.4787712,73.8824692z"></path>
	<path d="M214.3106995,116.3404312c0.1538849,0.0208206,0.2999573,0.0646057,0.3525696,0.2285156
		c0.0245514,0.0764618-0.0424042,0.1285248-0.1225433,0.0937347c-0.1425476-0.0618744-0.2577057-0.153801-0.2108307-0.3392639
		L214.3106995,116.3404312z"></path>
	<path d="M31.6527481,61.541275c-0.0275288,0.0183945-0.0564289,0.0528641-0.0821972,0.0506706
		c-0.0258236-0.0022049-0.0485229-0.0410004-0.0725937-0.0637589c0.0275803-0.0183525,0.0564804-0.052681,0.0823765-0.0505524
		C31.6060448,61.4797592,31.6287308,61.5185623,31.6527481,61.541275z"></path>
	<path d="M36.4936562,73.8655701c-0.0701294-0.0169296-0.1402626-0.0338669-0.210392-0.0507965
		c0.1425819-0.2007446,0.1416779,0.0124207,0.195507,0.0676956L36.4936562,73.8655701z"></path>
	<path d="M204.2445068,93.0727615c0.0415497-0.0510941,0.0831299-0.1021881,0.1246796-0.1532822
		c0.0829163,0.1777267-0.0206604,0.1646957-0.1394196,0.1361542L204.2445068,93.0727615z"></path>
	<path d="M26.888443,76.2705765c-0.0588703-0.0441818-0.1177425-0.0883636-0.1766148-0.1325455
		c0.1703434-0.0732727,0.2138252-0.0148315,0.1553555,0.1494598L26.888443,76.2705765z"></path>
</g>
<g onclick="select(this)" class="" id="c-gola-primaria" fill="#ffffff">
	<path d="M81.862915,7.9824848c1.7210922-1.359446,3.368866-2.8027096,4.6813278-4.5706072
		c1.4333496-1.9307294,3.4275284-2.569464,5.7044296-2.7007985c0.6235046-0.0359645,1.3870163,0.3147643,1.8313293-0.4712164
		c15.9200058,0,31.8400116,0,47.7600098,0c0.9772491,0.468389,2.0675659,0.4580993,3.0943451,0.7245071
		c1.5865784,0.4116569,2.9589844,1.1140342,3.9757996,2.4449308c1.2887115,1.6867537,2.9682922,2.9740405,4.5454407,4.3646669
		c-0.7478027,0.0855155-1.4976044,0.1544957-2.2424469,0.258884c-3.1938171,0.4476032-6.3817596,0.940012-9.5801544,1.3514442
		c-4.3207092,0.5558004-8.6668243,0.8177271-13.0150757,1.0700407c-5.1455307,0.2985773-10.2831116,0.8152294-15.4454117,0.4610624
		c-7.1309891-0.489233-14.2840729-0.6940575-21.3690948-1.7711859C88.5058899,8.6428919,85.2010651,8.1579294,81.862915,7.9824848z"></path>
</g>
<g onclick="select(this)" class="" id="c-detalhe-punho" fill="#ffffff">
	<path d="M0.2399999,116.0934372c0.4019386-1.9966812,0.8041824-3.9933014,1.2054386-5.9901123
		c0.0519282-0.2584229-0.0217745-0.5722809,0.3170216-0.7005157c0.4133129,0.2493362,0.8528409,0.3899231,1.3358734,0.4796906
		c5.7060204,1.0604935,11.4267998,2.0227661,17.1551247,2.9598007c5.9325504,0.9704437,11.8514881,1.3940201,17.8393574,1.3505173
		c2.4192696-0.0175858,4.7791824-0.083252,6.9232025-1.406723c0.7499886-0.4629517,1.0809746-0.1343689,1.0873833,0.7108154
		c0.0031509,0.4156723-0.2905922,1.0104446,0.4436417,1.1753159c0.0053787,1.183342,0.0107574,2.3666763,0.0161362,3.5500183
		c-0.0785027,0.5859604-0.2565727,1.1791611-0.2146034,1.7563705c0.0849495,1.1682587-0.625267,1.4380112-1.5379219,1.5414581
		c-5.5591965,0.6301727-11.1084175,1.1380386-16.7229614,0.5366974c-9.1340427-0.9782867-18.2107697-2.2743073-27.1770115-4.291626
		c-0.2293947-0.0516129-0.4473771-0.1538849-0.6706817-0.2325287C0.24,117.052887,0.24,116.5731659,0.2399999,116.0934372z"></path>
	<path d="M188.6978302,112.5258331c1.1305084,0.0553436,1.781311,0.8939209,2.5935974,1.5120468
		c0.9533691,0.7254868,2.0800476,1.2711105,3.2850342,1.3171768c3.7093811,0.1418533,7.4282227,0.3397141,11.1326752,0.2101593
		c2.9311371-0.1025085,5.8454437-0.6646271,8.769104-1.0065155c3.2023621-0.3744888,6.4071198-0.7285156,9.6104279-1.0951157
		c2.7395782-0.3135376,5.3904114-1.0443878,8.0528259-1.7198792c0.6603394,0.1413193,0.5334625,0.7501221,0.6053467,1.1598129
		c0.3378143,1.9256897,0.4354095,3.8771057,0.5597992,5.8275681c0.0608673,0.9542084-0.3804169,1.2510147-1.1618652,1.4391861
		c-3.727951,0.897728-7.5021515,1.5553818-11.2945862,2.0880814c-7.1191101,0.9999924-14.2603302,1.7123184-21.4695282,1.5265503
		c-2.9492798-0.0759964-5.7994232-0.4171677-8.3943939-1.9630508c-0.3276978-0.1952057-0.7493134-0.2746201-1.1374512-0.317894
		c-0.7750854-0.0864182-1.3348389-0.4451981-1.6902008-1.1330261
		C188.0404358,117.7354355,188.6574249,115.1504288,188.6978302,112.5258331z"></path>
</g>
</svg>
