<!--?xml version="1.0" encoding="utf-8"?-->
<!-- Generator: Adobe Illustrator 24.2.3, SVG Export Plug-In . SVG Version: 6.00 Build 0)  -->
<svg version="1.1" id="Camada_1" xmlns="http://www.w3.org/2000/svg" xmlns:xlink="http://www.w3.org/1999/xlink" x="0px" y="0px" viewBox="0 0 229 418" enable-background="new 0 0 229 418" xml:space="preserve">
<g onclick="select(this)" class="" id="estampa-primaria" fill="#021c3b">
	<path d="M43.11,119.71c-0.13-1.55-0.28-3.09-0.38-4.64c-0.13-1.86-0.25-2-2.09-1.62
		c-6.87,1.42-13.78,1.11-20.72,0.63c-4.19-0.29-8.34-0.72-12.41-1.74c-2.12-0.53-4.22-1.18-6.33-1.77c0.98-4.65,1.7-9.35,2.25-14.06
		C4.25,89.48,5.6,82.53,6.36,75.5c0.66-6.13,1.82-12.17,3.76-18.04c2.96-8.93,7.99-16.37,15.16-22.58
		c4.65-4.03,10.14-6.15,15.57-8.47c9.53-4.08,19.15-7.94,28.23-12.99c1.97-1.1,4-2.09,5.52-3.9c0.84-1,2.06-1.64,3.49-1.56
		c-1.57,0.9-2,2.3-1.69,3.99c0.4,2.14,1.08,4.17,2.28,6.01c1.91,2.94,4.16,5.56,6.91,7.75c5.15,4.1,10.63,7.6,17.03,9.41
		c2.16,0.61,4.34,1.19,6.83,1.05c-0.89-1.12-1.61-2.17-2.48-3.08c-2.71-2.83-5.66-5.42-8.64-7.95c-3.56-3.02-7.51-5.58-10.64-9.12
		c-1.67-1.89-3.33-3.78-4.26-6.18c-0.26-0.67-0.28-1.05,0.63-0.95c1.9,0.21,3.82,0.34,5.72,0.54c7.35,0.77,14.72,1.32,22.1,1.56
		c5.68,0.19,11.34-0.38,17-0.72c4.42-0.26,8.84-0.64,13.26-0.98c0.64-0.05,1.28-0.28,2.01-0.08c-1.2,3.1-3.2,5.52-5.38,7.82
		c-2.96,3.12-6.61,5.42-9.88,8.17c-3.51,2.96-7.08,5.88-9.92,9.54c-0.34,0.45-0.78,0.87-0.83,1.48c0.91,0,1.77,0.13,2.58-0.02
		c4.6-0.84,8.88-2.61,12.96-4.83c3.59-1.95,6.89-4.35,9.9-7.1c3.36-3.06,6.04-6.64,7.22-11.16c0.61-2.31,0.35-4.36-1.61-4.86
		c1.88-0.29,3.05,0.87,4.17,2.08c0.38,0.41,0.72,0.8,1.2,1.12c8.84,5.87,18.72,9.58,28.43,13.64c5.11,2.14,10.11,4.49,15.21,6.64
		c0.29,0.12,0.55,0.3,0.81,0.48c12.76,8.99,19.7,21.52,21.77,36.74c1.24,9.13,3.67,18.01,5.12,27.08c0.66,4.14,1.29,8.29,1.93,12.43
		c-0.54-0.08-1.01,0.14-1.5,0.34c-1.18,0.49-2.35,1.01-3.56,1.41c-4.18,1.37-8.5,2.09-12.85,2.75c-4.83,0.74-9.65,1.32-14.53,0.98
		c-2.98-0.21-5.99,0.05-8.94-0.64c-0.38-0.09-1.14-0.39-1.15,0.36c-0.03,2.04-1.02,3.97-0.65,6.04c-0.52,0.02-1.04,0.05-1.56,0.05
		c-46.11,0-92.22,0-138.33,0C44.23,119.77,43.67,119.73,43.11,119.71z"></path>
	<path d="M182.4,174.71c-0.13,4.31,0.52,8.62,0.04,12.94c-0.3,2.69,0.33,5.32,0.91,7.94
		c1.63,7.32,1.43,14.69,0.35,22.06c-0.31,2.15-0.34,4.22,0.36,6.36c1.75,5.39,1.79,10.93,0.93,16.49c-0.24,1.52-0.25,3.01,0.1,4.51
		c0.91,3.9,0.42,7.89,0.64,11.83c0.33,5.78,0.69,11.57,1.42,17.32c0.27,2.09,0.23,4.22,0.26,6.33c0.02,1.63-0.35,2.12-1.9,2.63
		c-2.33,0.76-4.77,1-7.19,1.29c-8.59,1.02-17.23,1.1-25.87,1.26c-11.63,0.22-23.26,0.74-34.9,0.82
		c-11.91,0.08-23.81-0.83-35.73-0.86c-8.4-0.02-16.79-0.11-25.17-0.74c-4.15-0.31-8.28-0.75-12.35-1.68
		c-0.27-0.06-0.54-0.13-0.81-0.2c-3.01-0.83-3.29-1.15-3.16-4.24c0.33-7.86,1.03-15.7,1.58-23.54c0.14-2,0.27-3.99,0.23-5.99
		c-0.04-1.84,0.03-3.68,0.36-5.5c0.42-2.26,0.44-4.51,0.12-6.79c-0.35-2.48-0.1-4.95,0.43-7.39c0.24-1.08,0.2-2.13,0.12-3.21
		c-0.33-4.46-1-8.91-0.83-13.4c0.17-4.4,1.2-8.62,2.7-12.73c0.36-1,0.59-1.96,0.44-3.03c-0.19-1.27-0.17-2.55,0.08-3.82
		c0.31-1.63,0.19-3.25,0.11-4.89c-0.16-3.35-0.15-6.7-0.2-10.06c-0.03-1.6-0.27-3.19,0-4.79c0.28,0.65,0.52,1.12,1.48,1.12
		C92.08,174.71,137.24,174.71,182.4,174.71z"></path>
</g>
<g onclick="select(this)" class="" id="estampa-secundaria" fill="#f6d101">
	<path d="M182.4,174.71c-45.16,0-90.32,0-135.48,0.04c-0.95,0-1.2-0.47-1.48-1.12c0.29-4.6-0.42-9.18-0.3-13.78
		c0.12-4.39,0.06-8.79,0.18-13.18c0.2-7.19-0.65-14.29-1.54-21.39c-0.19-1.54-0.34-3.08-0.51-4.64c-0.49,0.16-0.86,0.27-1.23,0.39
		c0.27-0.51,0-1.46,1.07-1.31c0.56,0.02,1.12,0.05,1.68,0.05c46.11,0,92.22,0,138.33,0c0.52,0,1.04-0.03,1.56-0.05
		c0.47,0.16,1.64-0.25,0.79,0.98c-0.32,0.1-0.48-0.25-0.9-0.27c-0.24,2.15-0.49,4.3-0.71,6.46c-0.62,6.04-1.08,12.08-1.29,18.16
		c-0.11,3.2-0.1,6.32,0.5,9.47c0.43,2.25-0.09,4.54-0.27,6.81c-0.13,1.6-0.23,3.2-0.12,4.79
		C182.9,168.99,182.55,171.84,182.4,174.71z"></path>
</g>
<g onclick="select(this)" class="" id="gola-primaria" fill="#021c3b">
	<path d="M149.21,8.26c1.96,0.5,2.21,2.55,1.61,4.86c-1.19,4.51-3.86,8.09-7.22,11.16c-3.01,2.74-6.32,5.15-9.9,7.1
		c-4.08,2.22-8.36,3.99-12.96,4.83c-0.81,0.15-1.67,0.02-2.58,0.02c0.05-0.61,0.49-1.04,0.83-1.48c2.84-3.66,6.4-6.58,9.92-9.54
		c3.27-2.75,6.91-5.05,9.88-8.17c2.18-2.3,4.19-4.72,5.38-7.82c-0.73-0.2-1.37,0.03-2.01,0.08c-4.42,0.34-8.84,0.72-13.26,0.98
		c-5.66,0.33-11.32,0.9-17,0.72c-7.38-0.24-14.75-0.79-22.1-1.56c-1.91-0.2-3.82-0.34-5.72-0.54c-0.91-0.1-0.9,0.28-0.63,0.95
		c0.94,2.4,2.59,4.29,4.26,6.18c3.12,3.54,7.08,6.1,10.64,9.12c2.99,2.54,5.93,5.12,8.64,7.95c0.87,0.91,1.58,1.96,2.48,3.08
		c-2.49,0.14-4.67-0.43-6.83-1.05c-6.4-1.82-11.88-5.32-17.03-9.41c-2.75-2.19-5-4.81-6.91-7.75c-1.2-1.84-1.88-3.87-2.28-6.01
		c-0.31-1.7,0.12-3.09,1.69-3.99c0.56-0.02,0.97-0.36,1.35-0.71c0.93-0.88,1.99-1.67,2.72-2.7c1.99-2.81,4.92-3.48,8.04-3.85
		c2.47-0.29,4.94-0.01,7.42-0.01c5,0,10,0.09,14.99-0.03c7.91-0.2,15.82,0.09,23.73,0.04c0.95-0.01,1.91,0.18,2.86,0.31
		c2.25,0.33,4.15,1.2,5.57,3.12C145.96,5.77,147.36,7.28,149.21,8.26z"></path>
</g>
<g onclick="select(this)" class="" id="detalhe-punho" fill="#f6d101">
	<path d="M42.04,121.02c-2.43,0.86-4.98,1.21-7.53,1.3c-8.92,0.33-17.81,0.11-26.57-1.87
		c-2.63-0.59-5.25-1.2-7.7-2.38c0-1.2,0-2.4,0-3.6c0.64-1.22,0.42-2.66,0.94-3.91c2.11,0.59,4.2,1.24,6.33,1.77
		c4.07,1.02,8.22,1.46,12.41,1.74c6.94,0.47,13.85,0.79,20.72-0.63c1.83-0.38,1.96-0.24,2.09,1.62c0.11,1.55,0.25,3.09,0.38,4.64
		C42.04,119.57,42.31,120.52,42.04,121.02z"></path>
	<path d="M185.46,120.7c0.85-1.22-0.32-0.82-0.79-0.98c-0.36-2.07,0.63-4,0.66-6.04c0.01-0.75,0.77-0.45,1.15-0.36
		c2.95,0.69,5.96,0.43,8.94,0.64c4.88,0.34,9.7-0.24,14.53-0.98c4.35-0.66,8.66-1.39,12.85-2.75c1.21-0.4,2.38-0.92,3.56-1.41
		c0.48-0.2,0.95-0.42,1.5-0.34c1.08,2.31,1.14,4.78,1.09,7.26c-0.01,0.78-0.74,0.89-1.26,1.09c-2.61,1.01-5.31,1.71-8.01,2.44
		c-8.99,2.44-18.16,3.05-27.41,2.57C189.98,121.71,187.64,121.6,185.46,120.7z"></path>
</g>
</svg>
