<!--?xml version="1.0" encoding="utf-8"?-->
<!-- Generator: Adobe Illustrator 25.0.1, SVG Export Plug-In . SVG Version: 6.00 Build 0)  -->
<svg version="1.1" id="Camada_1" xmlns="http://www.w3.org/2000/svg" xmlns:xlink="http://www.w3.org/1999/xlink" x="0px" y="0px" viewBox="0 0 229 418" enable-background="new 0 0 229 418" xml:space="preserve">
<g onclick="select(this)" class="" id="estampa-primaria" fill="#ffff00">
	<path d="M43.3154755,120.5660324c0.0284691-2.3716431-0.4590111-4.6724167-0.9516335-6.9733505
		c-0.1159592-0.5416336-0.3904419-0.4311905-0.7769508-0.2810745c-1.7557564,0.6819687-3.5452843,1.1858673-5.4632797,1.1675491
		c-3.7010345-0.035347-7.4035816,0.1325226-11.1025429-0.1539001c-1.8698044-0.144783-3.7439747-0.2618103-5.6183205-0.3134079
		c-3.8254175-0.1053314-7.4480133-1.3213501-11.1703939-1.9861069c-1.7261548-0.3082733-3.4245806-0.7767792-5.1287928-1.1999283
		c-0.6223583-0.1545334-1.1975796-0.4447632-1.7198904-0.8264084c1.7932036-9.4621811,2.67781-19.0589294,4.2438087-28.5559235
		c0.8441892-5.1195831,1.1583543-10.316803,2.2550154-15.4061127c1.7680922-8.2052307,4.5233822-15.9794159,9.6139402-22.7770844
		c2.0456562-2.7316666,4.3404846-5.240078,7.0205536-7.3503761c1.4273224-1.1238823,2.477396-2.6746292,4.1114101-3.5436478
		c3.6025047-1.9159126,7.2584648-3.7254333,11.0307045-5.28339c9.9449806-4.1073265,19.921032-8.1443062,29.3457184-13.3891525
		c2.0102844-1.118721,4.0503998-2.1454039,5.6226578-3.9533529c0.8873672-1.0203838,2.1224518-1.8366318,3.6931229-1.4204988
		c-2.0108643,1.1796284-2.439743,2.2058954-2.0199966,4.4530277c0.4275513,2.2889194,1.4937973,4.2651157,2.7723083,6.1657696
		c5.5502777,8.2511082,11.9080429,15.8050308,19.1893234,22.5971069c3.0789642,2.872097,6.4627762,5.1818428,10.3784943,6.7113991
		c0.7296219,0.2850113,1.4053192,0.7671661,2.2481384,0.6932755l-0.0195007-0.0175781
		c-0.0059357,0.2429848,0.1727142,0.2159576,0.3275986,0.2236862c0.6926956,0.3319168,1.3995209,0.5992584,2.1911774,0.4788704
		c0.1675644-0.000515,0.3351364-0.00103,0.5027008-0.0015411c0.9370193,0.2686615,1.6577377-0.3968735,2.4910507-0.5761108
		c0.8983688-0.3311958,1.796051-0.6642799,2.6952209-0.9932899c5.258667-1.92416,9.1676788-5.6882591,13.1161346-9.452404
		c5.9939117-5.7141266,11.0227661-12.2141247,15.7610931-18.9537144c1.4871521-2.1152267,2.7719421-4.3775358,3.2985382-6.9872799
		c0.372467-1.8458881-0.0813293-3.1546144-1.6365662-4.2228565c1.689743-0.0080633,2.787796,1.0322161,3.800415,2.1853056
		c0.3409882,0.3882942,0.6674042,0.7393484,1.116394,1.0329866c10.0146484,6.5494308,21.2131042,10.5967216,32.1548157,15.1745586
		c3.9646301,1.6587296,7.8813324,3.4354458,11.7173004,5.3391037c2.1572418,1.0705643,3.9098053,2.9785423,5.7968903,4.5659981
		c7.7440948,6.5144882,12.2818298,14.9835739,14.937027,24.5909424c1.0978088,3.9723244,1.9447174,8.0021782,2.3507385,12.0990181
		c0.5504456,5.5546799,2.1298981,10.8914719,3.243454,16.3265305c1.266861,6.1833954,2.1013794,12.4376221,3.0679626,18.6702042
		c-0.3147125,0.1666946-0.6138306,0.378334-0.9463959,0.4935226c-7.6485291,2.6490784-15.4852905,4.6249695-23.569519,5.0004501
		c-5.6739044,0.2635498-11.4182587,0.4822235-17.0656738-0.6848907c-0.5554657-0.1148071-0.760025,0.0102997-0.8614807,0.5922012
		c-0.3760071,2.1567078-0.9715576,4.284668-0.7284698,6.5097427c-0.4395447,0.8079529-0.2937622,1.7098999-0.3952789,2.5685043
		c-0.9904785,8.3778839-1.7196045,16.7745209-1.7455292,25.2196808c-0.0067596,2.2003479,0.0678711,4.3850098,0.5240631,6.5554199
		c0.4012146,1.9087219-0.0424194,3.824707-0.2053833,5.7289886c-0.1811066,2.1159973-0.2472534,4.2288055-0.1484985,6.3471375
		c0.1008301,2.1621704-0.1491394,4.3112488-0.201355,6.4654999c-0.0686493,2.8334503-0.1219788,5.6729736,0.1280365,8.5079346
		c0.1475372,1.6729126,0.0890656,3.3505859-0.0995636,5.0267944c-0.3490601,3.1017303,0.1976471,6.1180725,0.8823853,9.132782
		c1.6445312,7.2402039,1.376709,14.5228577,0.3382416,21.8097839c-0.3054504,2.1432648-0.3711243,4.2084198,0.33078,6.3557587
		c1.7736206,5.4257812,1.8118896,11.0058594,0.9376068,16.6037598c-0.2313843,1.4815369-0.2441101,2.924942,0.0944519,4.391922
		c0.8729248,3.7824249,0.4466705,7.6405487,0.6409302,11.4634857c0.3019714,5.9425049,0.6891174,11.8815613,1.4377136,17.7932434
		c0.2543182,2.0083618,0.2190552,4.0569458,0.2554779,6.0882263c0.0326843,1.8235168-0.3323059,2.3253479-2.0823517,2.8504028
		c-3.0059357,0.901886-6.1241455,1.1565552-9.2253571,1.4766541c-7.6871338,0.7934875-15.4048157,0.8653259-23.1230621,1.0100403
		c-11.2351074,0.2105713-22.4662933,0.6520691-33.7017746,0.8132324
		c-12.4784012,0.1789856-24.9356842-0.8466187-37.4157257-0.8479919
		c-8.3975601-0.0009155-16.7974777-0.1001892-25.1780052-0.7355652c-4.1490288-0.3145447-8.2845459-0.7521667-12.3531036-1.6717529
		c-0.1949997-0.0440674-0.3914108-0.0827026-0.5848618-0.1327515c-3.2452545-0.839325-3.60149-1.1888428-3.4040909-4.5171509
		c0.4607124-7.7680969,1.009407-15.5311584,1.5535927-23.2940521c0.142662-2.0351257,0.2767639-4.0680084,0.2285728-6.1076813
		c-0.0426178-1.8038025,0.03442-3.5982361,0.3603058-5.374054c0.4145927-2.2592163,0.4561462-4.5098877,0.1247139-6.7920074
		c-0.264679-1.8225403-0.3195381-3.6938171,0.1233063-5.4887848c0.676609-2.7424774,0.4015732-5.4645386,0.1611404-8.211441
		c-0.3064613-3.501236-0.7323151-6.9971313-0.5579529-10.5271454c0.2109222-4.2702332,1.2140503-8.371933,2.6384811-12.3757019
		c0.3826904-1.0757294,0.6632652-2.0986328,0.4853249-3.2543335c-0.1889801-1.2274475-0.1528969-2.4721222,0.079216-3.7011414
		c0.3070526-1.6258392,0.1913109-3.2480927,0.1103516-4.8917236c-0.1628189-3.3054199-0.1816635-6.6195679-0.195446-9.9303894
		c-0.0538597-12.9391785-0.0427551-25.8787994-0.1403427-38.817627c-0.0386467-5.1235809-0.9980011-10.1754761-1.512352-15.2625809
		C43.6579247,123.2591858,43.4763603,121.9136505,43.3154755,120.5660324z"></path>
	<path d="M118.6460648,37.2008209c-3.3701782,0.0023422-6.7403717,0.0046844-10.1104202,0.0070038
		c-4.2255859-4.7959595-8.777092-9.2850685-13.1581726-13.9347305c-3.4844666-3.6980877-6.1815872-7.9202614-8.5695572-12.3653116
		c-0.2612915-0.4863997-0.5407562-0.9795322-0.5622482-1.558548c3.0596466,0.2729836,6.1170883,0.5771656,9.1797791,0.813076
		c8.3534698,0.6434383,16.702774,1.4236479,25.0988083,0.8302774c6.7656326-0.4781485,13.5331192-0.9303112,20.2997818-1.3940048
		c-0.3109283,1.6447992-1.2687531,2.9918385-2.0830841,4.3920069c-2.1966553,3.7769995-4.815094,7.2333136-7.8688354,10.3761835
		C126.7548981,28.6041565,122.7176437,32.9191399,118.6460648,37.2008209z"></path>
</g>
<g onclick="select(this)" class="" id="estampa-secundaria" fill="#000000">
	<path d="M130.9745636,285.9783325c-1.2259674,0.0000305-2.4519348,0.0000305-3.8798065,0.0000305
		c6.0373993-9.8823242,11.9858704-19.6190491,17.9343109-29.3557739c-0.0818329-0.0854492-0.1636963-0.170929-0.2455444-0.2563782
		c-7.6964722,6.0666504-15.3929291,12.1333008-23.0894012,18.1999512c-0.057106-0.0766907-0.114212-0.1533508-0.1713257-0.2300415
		c5.4426422-5.996582,10.8876801-11.9910278,16.3274078-17.9902344
		c13.0416718-14.3829651,26.0805969-28.7683868,39.1212311-43.1522827c2.2002563-2.4269257,4.4009857-4.8534393,6.6083374-7.2739105
		c0.2937164-0.3220825,0.6279755-0.6072693,0.9432983-0.9098663c0.3254089,4.1561584-0.3737793,8.2509155-0.7775879,12.3605957
		c-0.1933136,1.9674377-0.6122437,3.9191437,0.0981293,5.8637543c-4.5593567,6.0377655-9.1188812,12.0752106-13.6724243,18.1171265
		c-0.0237427,0.0315094,0.0367737,0.1264648,0.0787506,0.2558899c1.2059937-0.2273712,2.4150085-0.462326,3.6266937-0.6824188
		c3.760376-0.6829834,7.5217896-1.3603058,11.2827911-2.0398254c-0.0427704,0.2009735-0.0855408,0.4019318-0.1283569,0.6030731
		c-0.2428741,0.2054749-0.4980774,0.397934-0.7268066,0.6178589c-13.4959564,12.9746246-26.9866333,25.9547577-40.486557,38.9252472
		c-2.3853149,2.2917786-4.8083496,4.5443726-7.2139893,6.815033
		C134.7273407,285.8901978,132.8509521,285.9342651,130.9745636,285.9783325z"></path>
	<path d="M143.9687195,186.5298767c-4.8002014,4.3447876-9.5930939,8.6976624-14.401947,13.0328522
		c-15.557579,14.0252686-31.1210175,28.0440063-46.6821747,42.0652618
		c-0.1186295,0.1199036-0.4239883,0.2268219-0.3062134,0.3689423c0.1931686,0.233078,0.3578796-0.0213928,0.48806-0.186615
		c4.1839294-2.4429474,8.3664093-4.8883972,12.5530624-7.3267212c0.8211594-0.4782257,1.6585083-0.9287262,2.4883957-1.3920135
		c0.0530853,0.0597229,0.1056366,0.1199188,0.1576462,0.1805725c-8.4430695,7.2800293-16.8841476,14.5623779-25.3297272,21.8394775
		c-9.7454338,8.3971252-19.4948235,16.7896118-29.3532867,25.279541c4.2245827,1.4446716,8.3520432,2.8561707,12.4794197,4.2677002
		c-4.3413239-0.2597961-8.6515732-0.7651367-12.8600235-1.8896179c-2.7723579-0.7407837-3.0211143-1.1404724-2.9187012-4.0496216
		c0.2566986-7.2919006,0.9897156-14.5514526,1.5149231-21.8246765c8.3610954-5.8080444,16.717514-11.6236572,25.0846901-17.4237518
		c25.2992325-17.5372925,50.6025238-35.0687561,75.9059753-52.6000061c0.2926788-0.2027588,0.6085663-0.3720551,0.91362-0.5569763
		C143.7911987,186.3861237,143.8799591,186.4579926,143.9687195,186.5298767z"></path>
	<path d="M101.1037369,249.5732269c11.4066849-12.1445312,22.8102875-24.2919464,34.2208481-36.4328461
		c12.8886108-13.713501,25.7801514-27.4242096,38.6781158-41.1289368c2.8455505-3.0235443,5.7233582-6.0167847,8.5863342-9.023819
		c0.2596741,4.7112885-0.2981415,9.4146423-0.1587524,14.1212463c0.1228485,4.1476593,0.1728821,8.2905426-0.0192108,12.4362488
		c-0.0592651,1.2794037,0.1165619,2.542099,0.4351807,3.7833252c-10.8729248,8.9673615-21.74617,17.9342804-32.618576,26.9022217
		c-3.2651978,2.6932831-6.5254517,5.3925323-9.796051,8.0792236c-0.3177032,0.2609863-0.5882263,0.7097626-1.2024689,0.4275055
		c3.5726929-4.5478973,7.1413879-9.0761261,10.6937256-13.6171722c3.095932-3.9575958,6.1733856-7.9296417,9.2589722-11.8953094
		c0.0961761-0.0469818,0.2297516-0.1040955,0.1284943-0.2219696c-0.0437775-0.0509644-0.2012634-0.0043793-0.3071136-0.0020905
		c-6.2638855,5.0778046-12.5316162,10.1508942-18.790863,15.2344055
		c-12.7361832,10.3439178-25.4675522,20.6937714-38.2030334,31.0385742
		c-0.2136307,0.1735077-0.454277,0.3138275-0.6822968,0.4696503
		C101.2526016,249.6867371,101.1781693,249.6299591,101.1037369,249.5732269z"></path>
	<path d="M55.5591164,223.1512299c-3.8897934,2.5366821-7.7782631,5.0753937-11.6715622,7.6067047
		c-0.3588791,0.2333069-0.6733208,0.5757599-1.1564865,0.5608063c1.0466957-3.6240997,0.1455116-7.244278-0.0377235-10.8651886
		c-0.0500603-0.9891968-0.1822624-1.9742737-0.2768288-2.9621429c-0.3827286-1.5513611,0.695488-2.1189117,1.7669449-2.8104095
		c13.0803375-8.4414368,26.1411705-16.9130859,39.2090721-25.373764c0.3321457-0.2150421,0.6871109-0.3948822,1.0314255-0.591156
		c0.0756454,0.0591125,0.1512833,0.1181946,0.2269211,0.1772766c-2.7240601,3.6104279-5.4481277,7.2208405-8.1721573,10.8312988
		c-0.0564423,0.0825043-0.1797256,0.2036438-0.1581192,0.240921c0.1078415,0.1862183,0.2392502,0.0642548,0.3591843-0.0121765
		c7.1395645-3.1836548,14.2797546-6.3658905,21.4182892-9.5518494c2.075882-0.9264832,4.1426468-1.8735657,6.2252197-2.7846527
		c0.2944717-0.1288605,0.5901108-0.4659576,1.0871048-0.1181793c-0.6773682,0.5338745-1.3239746,1.047287-1.9745102,1.5556488
		c-16.5232544,12.9123383-33.0468369,25.8242493-49.571373,38.7349243
		c-0.2198639,0.1717987-0.4527359,0.3269653-0.6795387,0.4898834c-0.0607758-0.0680084-0.1215553-0.1360474-0.1823425-0.2040558
		c0.9047356-1.575943,1.8094673-3.151886,2.7141991-4.727829c0.0603485-0.0755768,0.1881981-0.1848145,0.1700325-0.2211761
		C55.7760506,222.9044037,55.6671448,223.0869293,55.5591164,223.1512299z"></path>
	<path d="M164.0867157,285.246521c2.7012024-3.4034119,5.3897247-6.8169556,8.1064758-10.2078857
		c4.2398682-5.2919312,8.4976501-10.569519,12.7528839-15.8491211c0.2463074-0.3055725,0.5378723-0.5747375,0.8083344-0.8608093
		c0.3925171,4.7333069,0.720871,9.4732361,1.2039642,14.1973572c0.2513428,2.4578552,0.419632,4.9129639,0.4720001,7.3782349
		c0.0455627,2.1465759-0.3072357,2.627533-2.3999023,3.2226562c-2.3527222,0.6690979-4.7801056,0.9276428-7.2016449,1.1962585
		C173.2618408,284.829834,168.6841278,285.1872559,164.0867157,285.246521z"></path>
	<path d="M112.4776535,253.9248505c-9.0141068,8.7181854-18.0283737,17.436142-27.04216,26.1546478
		c-1.8362122,1.776062-3.6706161,3.5540161-5.5057373,5.3310547c-5.7720413-0.0140381-11.5447006-0.0028687-17.3100281-0.3583984
		c10.717659-6.7689819,21.4354935-13.5383911,32.153511-20.3075562c5.4957733-3.4708862,10.9913254-6.9421387,16.4890671-10.4099426
		c0.3346024-0.2110443,0.6878433-0.3926086,1.0324097-0.5878754
		C112.35569,253.8061218,112.4166641,253.865509,112.4776535,253.9248505z"></path>
	<path d="M45.835289,191.557373c9.5847015-3.9884491,19.1694031-7.9768982,28.7541046-11.9653168
		c0.0406189,0.0744781,0.0812378,0.1489868,0.1218567,0.2234802c-0.9318466,0.6587524-1.8605423,1.3220215-2.7960587,1.9755402
		c-8.6326447,6.0304413-17.26577,12.0601959-25.9025497,18.0847015c-0.3520851,0.245575-0.6535835,0.5975952-1.1294975,0.6257935
		c0.6759377-1.3491058,0.7618713-2.7519226,0.548893-4.2369232C45.205101,194.6823578,45.5785217,193.1170502,45.835289,191.557373z
		"></path>
	<path d="M128.7404327,57.6914711c-10.878685,9.7044792-21.7573624,19.4089622-32.6360474,29.1134453
		c0.0261993,0.0699234,0.0523987,0.1398544,0.0785904,0.2097702c5.9624023-2.8040237,11.9247894-5.6080551,18.0357056-8.481926
		c-0.1386337,0.9462891-0.6474686,1.4539108-1.203064,1.9471512C99.6225586,92.3694763,86.232338,104.2622452,72.8414688,116.154274
		c-1.4256668,1.2660828-2.8522797,2.5311127-4.4180908,3.9205246c0.4412231-3.2770081,0.8544617-6.3462448,1.2677002-9.4154739
		c-0.0598831-0.029068-0.1197662-0.0581284-0.1796417-0.0871964c-6.9867477,9.6203995-13.9734955,19.2407837-20.9602432,28.8611755
		c-0.0710678-0.0397186-0.1421318-0.0794373-0.2131958-0.1191559c4.9556847-11.9304352,9.911377-23.8608856,14.8864059-35.8378754
		c-0.4938507-0.1768036-0.8520126,0.1391602-1.2230301,0.2864761c-6.1571159,2.4444809-12.3185616,4.8787155-18.4521179,7.3811569
		c-1.0269356,0.4189911-1.2789459,0.2242889-1.3084297-0.8222885c-0.04245-1.5069351-0.9564972-3.1833954-0.3125763-4.4458313
		c0.6346931-1.2443466,2.2028847-2.0172882,3.37183-2.9845886c15.0882874-12.485527,30.1782913-24.9689865,45.2688599-37.4517441
		c0.3858948-0.3192062,0.7831573-0.6246643,1.3668823-0.7468643c-3.0116196,3.5789337-6.0232391,7.1578674-9.0347366,10.7368546
		c-0.0280457,0.0920944-0.0993195,0.2508469-0.0772247,0.2650986c0.1212997,0.0782928,0.1965027,0.0015717,0.228363-0.1245499
		c4.9797974-2.5220261,9.9620819-5.0391541,14.9384003-7.5680389c2.7039261-1.3740921,5.3951187-2.7732239,8.1000519-4.1453094
		c0.2621765-0.1329994,0.5094299-0.4332199,0.9993896-0.1661377c-4.4043121,4.0969086-8.7742462,8.1618423-13.1598511,12.2413483
		c0.5390015,0.357811,0.9234772-0.0839767,1.3243866-0.3024368c10.8295746-5.9007874,21.6542587-11.8105087,32.4816971-17.7151947
		c0.2764587-0.1507645,0.5746155-0.2618217,0.8626404-0.3913956
		C128.6467896,57.5784683,128.6939392,57.6346817,128.7404327,57.6914711z"></path>
	<path d="M123.7098389,99.4206543c4.0814209-1.9322205,8.1628265-3.8644409,12.2442474-5.7966614
		c0.0357208,0.0625305,0.0798035,0.1184769,0.1322784,0.1678314c-4.5627899,4.171051-9.1255569,8.3421097-13.6883392,12.5131607
		c-0.0755692-0.0429382-0.1511307-0.0858765-0.2266998-0.1288147c0.3469849-1.0457306,0.6939774-2.0914612,1.1439743-3.4476395
		c-3.7748718,2.2652283-7.3267517,4.3966522-10.8786316,6.5280762c-0.0434647-0.0482178-0.0891724-0.0942078-0.1371307-0.1379623
		c0.371994-1.16922,0.743988-2.3384399,1.1242142-3.5335236c-0.3652954-0.2405777-0.6423798,0.1234207-0.9268112,0.2558899
		c-2.7487488,1.2800522-5.4809189,2.5956421-8.2281265,3.8790436c-0.3408127,0.1592178-0.6396637,0.505249-1.0881042,0.3625183
		l0.0267868,0.0202713c1.559021-3.0006332,3.4806976-5.7847061,5.1973267-8.6912537
		c0.4360886-0.7383881,0.889122-1.4667816,1.5015335-2.4749603c-7.7107849,3.9539948-15.1423035,7.7647781-22.5738144,11.5755692
		c-0.0450592-0.0892868-0.0901184-0.1785736-0.1351776-0.2678604
		c18.1424332-14.7014771,36.2848663-29.4029617,54.4273148-44.1044464c0.0757294,0.0688629,0.1514587,0.1377258,0.2271881,0.2065887
		c-6.9436798,8.8083954-13.8873596,17.6167831-20.8310318,26.4251785c0.0949554,0.1008377,0.1899033,0.2016754,0.2848663,0.3025208
		c6.0044479-4.6849747,12.0089035-9.3699493,18.0133438-14.0549316c0.0559998,0.0610809,0.1119995,0.1221619,0.1679993,0.1832428
		c-2.8806915,3.6232147-5.7633362,7.2448578-8.6414337,10.8701248c-2.4308929,3.0619888-4.8565216,6.1281586-7.2844543,9.1924973
		c-0.0665054,0.0645599-0.1980591,0.1749878-0.1897278,0.1867905
		C123.4923096,99.6232071,123.6019974,99.5083313,123.7098389,99.4206543z M120.6990128,93.2844925
		c-0.1023712,0.0296249-0.2318192,0.0661011-0.1281891,0.19487c0.0296402,0.0368271,0.1893158-0.0308762,0.289299-0.0506821
		c0.0872955-0.0976791,0.270668-0.2041168,0.101326-0.3332291C120.7717667,92.9508362,120.7584763,93.177681,120.6990128,93.2844925
		z"></path>
	<path d="M36.9386826,54.6685753c2.4993362-2.7294006,4.9986763-5.4588051,7.4980087-8.1882057
		c-0.0650826-0.0991211-0.1301651-0.1982422-0.1952477-0.2973595c-3.9611816,2.1974678-7.9223671,4.3949394-11.8841171,6.5927238
		c-1.0950184-2.0452156-0.6199436-4.2964096-1.0953884-6.3901825c-0.2735367-1.2046127-0.3469372-2.4560089-0.6423416-3.6538506
		c-0.2592354-1.0511818,0.0179596-1.5563889,1.0557728-1.9538383c4.9938202-1.9124641,10.1555214-3.2408676,15.3157883-4.5924568
		C56.28545,33.75103,65.3390579,30.6714859,73.7337799,25.8998909c1.8716125-1.0638371,3.6920471-2.217823,5.532692-3.3358192
		c2.2022858-1.337656,1.7057877-1.3783855,3.5468674,0.6274319C67.5571747,33.757412,52.3180733,44.3115044,37.078968,54.865593
		C37.0322075,54.7999229,36.9854431,54.7342491,36.9386826,54.6685753z"></path>
	<path d="M170.5242462,106.8433075c-3.6835175,2.4100266-7.3670349,4.8200378-11.0505524,7.2300568
		c-0.0441589-0.0613937-0.0926514-0.1191711-0.145462-0.1733322c3.413208-3.2476273,6.8161316-6.5061417,10.2418365-9.7405243
		c6.5112-6.1475372,13.0334778-12.283371,19.5605011-18.414093c0.2976227-0.2795715,0.5145569-0.6732864,1.0763702-0.6312103
		c1.5340424,0.1148682,1.6679688,0.380722,1.0023041,1.7798386c-1.8309479,3.8482513-2.8352661,7.9614182-3.7552185,12.0944595
		c-0.4329376,1.9449997-0.8249054,3.9006577-1.1664124,5.8634872c-0.1017456,0.5849609-0.3703766,0.9179459-0.845108,1.1978378
		c-9.7320404,5.7375793-19.4602966,11.4816132-29.1889343,17.224968c-0.2744904,0.1620483-0.53862,0.3589249-0.8724518,0.2083969
		c5.1163788-5.4693985,10.2347565-10.9409561,15.3529358-16.4126892c0.0263062-0.0885391,0.0528259-0.1768951,0.079361-0.2652588
		C170.7170105,106.8179321,170.6206207,106.8306198,170.5242462,106.8433075z"></path>
	<path d="M174.7104034,76.0279312c4.5813446-5.4323425,9.1608887-10.8661957,13.744873-16.2963219
		c2.0616455-2.4422073,4.1308289-4.8780746,6.2001953-7.313736c0.2540283-0.2989769,0.5305786-0.5788155,0.8080444-0.8798332
		c0.4401703,0.4859695,0.4087677,0.9332008,0.2096405,1.4640808c-0.4393921,1.1715546-0.5379028,2.4023819-0.5504608,3.6513214
		c-0.0236664,2.349102-0.1127167,4.6974907-0.144989,7.0465813c-0.0125885,0.9182472-0.2895813,1.4946861-1.1958008,1.9889107
		c-6.3408661,3.4580002-12.6335754,7.004158-18.9417267,10.5220871
		C174.8058624,76.1436539,174.7626038,76.0826263,174.7104034,76.0279312z"></path>
	<path d="M179.0250702,121.3555145c1.8449249-2.0107803,3.6898499-4.0215607,5.8002625-6.3217087
		c-0.0856476,1.300148-0.1434174,2.2555618-0.2140045,3.2100143c-0.0281982,0.3816833-0.3593445,0.4985733-0.6337433,0.6455612
		c-1.6066132,0.8605957-3.2168884,1.7143555-4.8259277,2.5704269
		C179.1087341,121.4259262,179.0665283,121.3911514,179.0250702,121.3555145z"></path>
	<path d="M143.7024384,186.3142395c0.1746826-0.214325,0.4698486-0.5414734,0.6449432-0.3439331
		c0.2539215,0.2865448-0.207962,0.3886414-0.3786926,0.5595703
		C143.8799591,186.4579926,143.7911987,186.3861237,143.7024384,186.3142395z"></path>
	<path d="M100.8152542,250.1906433c-0.1432037,0.2129822-0.2552338,0.476532-0.90345,0.296936
		c0.3526688-0.227066,0.5635452-0.3628387,0.774437-0.4986115
		C100.7292557,250.0562286,100.7722549,250.1234589,100.8152542,250.1906433z"></path>
	<path d="M179.1516571,121.4598083c-0.078537,0.1483765-0.2546844,0.2691727-0.3461914,0.148735
		c-0.1186829-0.1561966,0.047699-0.2475586,0.2196045-0.2530365
		C179.0665283,121.3911514,179.1087341,121.4259262,179.1516571,121.4598083z"></path>
	<path d="M75.1031952,179.401474c0.0314178-0.0204468,0.0628433-0.0409088,0.0942612-0.0613708
		c-0.0044861,0.0038452-0.0084457,0.009903-0.0135574,0.0111542c-0.0367584,0.0088196-0.0737534,0.0166931-0.110672,0.0248871
		L75.1031952,179.401474z"></path>
	<path d="M129.1594238,57.353611c-0.139679,0.112606-0.2793579,0.2252121-0.4190216,0.3378372
		c-0.046463-0.0567665-0.0936127-0.1129799-0.1414642-0.1686211c0.1624298-0.1889191,0.3066406-0.4489403,0.5935211-0.1517982
		L129.1594238,57.353611z"></path>
	<path d="M53.1849823,228.2791748c-0.1355019,0.0878296-0.2264748,0.4038391-0.4167976,0.1959991
		c-0.1346588-0.14711,0.0758514-0.307312,0.2344513-0.4000549
		C53.0634232,228.1431274,53.1242027,228.2111664,53.1849823,228.2791748z"></path>
	<path d="M98.1079025,233.0915833c0.1511459-0.1725922,0.2729568-0.4429016,0.5585938-0.1674957
		l-0.0288239-0.0196838c-0.124054,0.1225739-0.2481155,0.2451324-0.3721466,0.3677368
		C98.2135391,233.2115021,98.1609879,233.1513062,98.1079025,233.0915833z"></path>
	<path d="M159.4736938,114.0733566c-0.185257,0.07164-0.3762207,0.2370758-0.5407104-0.0328598
		c0.1317596-0.046814,0.263504-0.0936356,0.3952484-0.1404648
		C159.3810425,113.9541931,159.4295349,114.0119705,159.4736938,114.0733566z"></path>
	<path d="M112.2947159,253.7467804c0.1348114-0.1780243,0.2402649-0.4356384,0.52948-0.1951294l-0.0276108-0.0199432
		c0.0143585,0.2288513-0.2019806,0.2707214-0.3189468,0.3931427
		C112.4166641,253.865509,112.35569,253.8061218,112.2947159,253.7467804z"></path>
	<path d="M139.9514771,78.7199936c-0.0076904-0.0580444-0.0153961-0.1160965-0.0231018-0.1741409
		c0.0456543,0.0036392,0.0913086,0.0072708,0.1369781,0.0109024c-0.0444946,0.0456314-0.0889893,0.0912628-0.1341705,0.13591
		C139.9304962,78.6917038,139.9514771,78.7199936,139.9514771,78.7199936z"></path>
	<path d="M75.0732269,179.3761444c0.0000458,0.0641327,0.0000992,0.1282654,0.0001526,0.1924133
		c-0.0493698-0.0160675-0.0987396-0.0321198-0.1481094-0.0481873c0.0598907-0.0391541,0.1197891-0.0782776,0.1788101-0.1181641
		C75.1031952,179.401474,75.0732269,179.3761444,75.0732269,179.3761444z"></path>
	<path d="M103.1807098,110.0825729c-0.0095444,0.0542603-0.0190887,0.1085281-0.0286407,0.1627884
		c-0.0329208-0.0120163-0.0658493-0.0240326-0.0987701-0.0360336c0.0514755-0.0354385,0.102951-0.0708771,0.1543045-0.1063995
		C103.2074966,110.1028442,103.1807098,110.0825729,103.1807098,110.0825729z"></path>
	<path d="M112.4366684,109.2565994c-0.0978851,0.0792007-0.1984634,0.1231461-0.2858734-0.0055008
		c-0.0048828-0.0071793,0.0967178-0.0866318,0.1487427-0.1324463
		C112.347496,109.1623993,112.3932037,109.2083893,112.4366684,109.2565994z"></path>
	<path d="M84.7063522,188.5185852c0.0680084-0.0572052,0.1758347-0.1761475,0.1978149-0.1619873
		c0.2003632,0.1290588-0.003479,0.2082825-0.0536041,0.30867C84.8048019,188.6140289,84.7567444,188.5651703,84.7063522,188.5185852
		z"></path>
	<path d="M84.4239578,188.7160797c0.0941315-0.0658264,0.1882629-0.1316681,0.2823868-0.1974945
		c0.0503998,0.0465851,0.0984573,0.0954437,0.1442184,0.1466827c-0.0665359,0.0760956-0.1331329,0.1520844-0.1996994,0.2280884
		C84.5752411,188.8342743,84.4996033,188.7751923,84.4239578,188.7160797z"></path>
	<path d="M37.078968,54.8656006c-0.0832405,0.0591125-0.1664772,0.1182327-0.2500687,0.1767769
		c-0.0372429-0.0415154-0.0754471-0.0811958-0.1149635-0.1196098c0.074913-0.0847321,0.1498299-0.1694641,0.2247467-0.2541962
		C36.9854431,54.7342491,37.0322075,54.7999229,37.078968,54.8656006z"></path>
	<path d="M98.6664963,232.9240875c-0.008255-0.0609741-0.0165024-0.1219482-0.0247574-0.1829224
		c0.0535736,0.0134735,0.107132,0.026947,0.1606979,0.0404205c-0.054924,0.0409393-0.109848,0.0818939-0.1647644,0.122818
		L98.6664963,232.9240875z"></path>
	<path d="M135.9540863,93.6239929c0.1029053-0.01371,0.2791595-0.0663681,0.2961273-0.0344391
		c0.0767975,0.1444397-0.0548553,0.1749496-0.1638489,0.2022705
		C136.0338898,93.7424698,135.9898071,93.6865234,135.9540863,93.6239929z"></path>
	<path d="M139.319046,79.0192566c0.0868225-0.0666656,0.1736603-0.1333237,0.260498-0.1999969
		c0.0410614,0.0391693,0.0820923,0.0783615,0.1230927,0.1175766c-0.0718689,0.0885468-0.1437225,0.1771011-0.2155914,0.2656555
		C139.4310455,79.1414108,139.3750458,79.0803299,139.319046,79.0192566z"></path>
	<path d="M36.4086189,55.111496c0.1017761-0.0629082,0.2035446-0.1258202,0.3053169-0.1887283
		c0.0395164,0.038414,0.0777206,0.0780945,0.1149635,0.119606c-0.1340485,0.1443062-0.2775116,0.2093887-0.4465981,0.0519981
		L36.4086189,55.111496z"></path>
	<path d="M101.3270416,249.7434845c-0.0856552,0.0746613-0.1713104,0.149292-0.2569504,0.2239685
		c-0.0699005-0.0497589-0.1397934-0.099472-0.2097015-0.1491852c0.081131-0.0816956,0.1622696-0.1633606,0.2433777-0.2450256
		C101.1781693,249.6299591,101.2526016,249.6867371,101.3270416,249.7434845z"></path>
	<path d="M129.1924591,57.3710289c-0.0292816-0.0533791-0.0585632-0.1067543-0.0878448-0.1601372
		c0.0544586-0.0133362,0.108902-0.0266762,0.1633759-0.0400124c-0.0375366,0.0601616-0.075058,0.1203232-0.1105804,0.1816101
		C129.1594238,57.353611,129.1924591,57.3710289,129.1924591,57.3710289z"></path>
	<path d="M112.8241959,253.551651c-0.0912857-0.0994873-0.0726013-0.1796875,0.0496292-0.227951
		c0.02742-0.0108337,0.0702286,0.0172882,0.1059418,0.0274658c-0.0610657,0.0601807-0.1221313,0.1203766-0.1831894,0.180542
		C112.7965851,253.5317078,112.8241959,253.551651,112.8241959,253.551651z"></path>
	<path d="M174.8401794,76.2110214c-0.1069489,0.0422668-0.2199097,0.2150955-0.3132629,0.0038986
		c-0.0130768-0.0295486,0.1187286-0.1230698,0.1834869-0.1869888
		C174.7626038,76.0826263,174.8058624,76.1436539,174.8401794,76.2110214z"></path>
	<path d="M139.5795441,78.8192596c0.0976562-0.1285095,0.1918945-0.2695999,0.3713074-0.1002121
		c0.0006256,0.000946-0.0203552-0.0273438-0.0196686-0.0263824c-0.0095062,0.1443863-0.076828,0.2340012-0.2285461,0.2441788
		C139.6616364,78.8976212,139.6206055,78.858429,139.5795441,78.8192596z"></path>
	<path d="M36.3823013,55.0943718c0.0260353,0.0573807,0.0520744,0.1147614,0.0781097,0.172142
		c-0.0294189,0.0120621-0.0588417,0.024128-0.0882607,0.0361977c0.0145111-0.0622063,0.0290222-0.1244087,0.0400009-0.1889153
		C36.4086189,55.111496,36.3823013,55.0943718,36.3823013,55.0943718z"></path>
	<path d="M101.0700912,249.967453c-0.0849533,0.0744019-0.1698914,0.1487885-0.254837,0.2231903
		c-0.0429993-0.0671844-0.0859985-0.1344147-0.1289978-0.2016449c0.0580597-0.0569153,0.1161194-0.1138153,0.1741562-0.1707306
		C100.9302979,249.867981,101.0001907,249.9176941,101.0700912,249.967453z"></path>
</g>
<g onclick="select(this)" class="" id="gola-secundaria" fill="#ffff00">
	<path d="M116.381897,49.0477715c-0.833313,0.1792374-1.5540314,0.8447723-2.4916306,0.5762138
		c-0.2429886-0.8100166,0.0134811-1.5773506,0.2099228-2.3466339c0.9254532-3.6241417,2.5626907-6.9285126,4.5458755-10.0765305
		c4.071579-4.2816811,8.1088333-8.5966644,12.2260513-12.8340473c3.0537415-3.1428699,5.6721802-6.599184,7.8688354-10.3761835
		c0.8143311-1.4001684,1.7721558-2.7472076,2.0830841-4.3920069c0.7533875-1.2694387,1.0100403-2.6635509,1.0385284-4.116147
		c0.0198059-1.0104756-0.4715271-1.6589177-1.4058533-1.9923222c-1.0610199-0.3786092-2.1595917-0.5912797-3.2826538-0.5918701
		c-15.6694641-0.0082369-31.3389282-0.00945-47.0083847-0.0003197c-1.2024078,0.0007005-2.3825226,0.2080977-3.5079956,0.6614058
		c-0.7330017,0.2952342-1.1955872,0.8186088-1.2209396,1.6196523c-0.0457764,1.4464493,0.1008453,2.8654075,0.8091202,4.1703057
		c0.0213013,0.5789623,0.300766,1.0720949,0.5620575,1.5584946c2.38797,4.4450502,5.0850906,8.6672239,8.5695572,12.3653116
		c4.3810806,4.649662,8.9325867,9.1387711,13.1583099,13.9347115c2.2260818,3.3094826,3.8987961,6.8636017,4.8087921,10.7629395
		c0.1308823,0.5608521,0.1703644,1.0992241,0.0435715,1.6546783c-0.7916565,0.120388-1.4984818-0.1469536-2.1913986-0.4788055
		c-0.0642853-0.1402206-0.1510849-0.2473221-0.3273773-0.2237511c0,0,0.0195007,0.0175781,0.0195007,0.0175819
		c-1.0149002-4.6100464-2.9440384-8.7701225-6.1842422-12.2461243c-2.6970062-2.8932724-5.4329224-5.751564-8.1998749-8.5781593
		c-3.83992-3.9226913-7.426918-8.0305252-10.2087784-12.8014402c-1.953331-3.3499784-3.538353-6.7904634-3.5216599-10.769886
		c0.3887329-1.9640388,2.3138046-3.5002825,4.8151779-3.8288832c1.3080978-0.1718415,2.6194916-0.2685983,3.9428711-0.2676472
		c14.7557983,0.0106048,29.5116043,0.0095289,44.2674103,0.0041322c1.6841431-0.000616,3.3609924,0.0772934,4.9909973,0.5180932
		c1.4780121,0.3996955,2.6998138,1.1730733,3.345108,2.6483269c0.7675629,2.8465242-0.0760956,5.4809065-1.2373657,7.9960232
		c-1.9331055,4.1867867-4.3998566,8.0750628-7.5047913,11.4869471c-4.1099091,4.5162182-8.3819962,8.8846245-12.5557861,13.343298
		C119.4875946,40.0241508,117.3455429,44.2388077,116.381897,49.0477715z"></path>
</g>
<g onclick="select(this)" class="" id="detalhe-punho" fill="#000000">
	<path d="M43.3154755,120.5660324c-1.4355507,0.9719238-3.1036453,1.2496643-4.7561264,1.4678955
		c-6.7249794,0.8881226-13.4724941,0.7420044-20.2071953,0.1770859c-5.0925493-0.4271774-10.1221333-1.2906342-15.0371294-2.7495346
		C2.2495277,119.1452103,1.2605952,118.665741,0.24,118.2521973c0-1.1193542,0-2.2387161,0-3.3580704
		c0.5486878-1.013916,0.4496389-2.1613922,0.6660056-3.2437286c0.1129808-0.5651779,0.0608322-1.1747894,0.4776655-1.6509933
		c0.5223107,0.3816452,1.097532,0.671875,1.7198904,0.8264084c1.7042122,0.4231491,3.402638,0.891655,5.1287928,1.1999283
		c3.7223806,0.6647568,7.3449764,1.8807755,11.1703939,1.9861069c1.8743458,0.0515976,3.7485161,0.1686249,5.6183205,0.3134079
		c3.6989613,0.2864227,7.4015083,0.1185532,11.1025429,0.1539001c1.9179955,0.0183182,3.7075233-0.4855804,5.4632797-1.1675491
		c0.3865089-0.150116,0.6609917-0.2605591,0.7769508,0.2810745
		C42.8564644,115.8936157,43.3439445,118.1943893,43.3154755,120.5660324z"></path>
	<path d="M184.629776,120.3339005c-0.2430878-2.2250748,0.3524628-4.353035,0.7284698-6.5097427
		c0.1014557-0.5819016,0.306015-0.7070084,0.8614807-0.5922012c5.6474152,1.1671143,11.3917694,0.9484406,17.0656738,0.6848907
		c8.0842285-0.3754807,15.92099-2.3513718,23.569519-5.0004501c0.3325653-0.1151886,0.6316833-0.326828,0.9463959-0.4935226
		c0.846756,1.1987991,0.5564423,2.6714325,0.9425964,3.9882355c0.2302704,0.7852707,0.0896912,1.6713486,0.2314148,2.4921799
		c0.2250977,1.3037643-0.4503174,1.8661575-1.5581207,2.2358398c-5.7537537,1.920105-11.6115112,3.3484344-17.6209106,4.2630234
		c-5.4544983,0.8301239-10.9163971,0.6914978-16.3850403,0.6551743c-2.4737091-0.0164337-4.9351349-0.3196335-7.3445587-0.9341354
		C185.5209961,120.9840088,184.999527,120.7955399,184.629776,120.3339005z"></path>
</g>
<g onclick="select(this)" class="" id="gola-terciaria" fill="#ffffff">
	<path d="M113.3881454,49.6254234c0.1267929-0.5554543,0.0873108-1.0938263-0.0435715-1.6546783
		c-0.909996-3.8993378-2.5827103-7.4534569-4.8089294-10.7629204c3.3700485-0.0023193,6.740242-0.0046616,10.1104202-0.0070076
		c-1.9831848,3.1480217-3.6204224,6.4523926-4.5458755,10.0765343c-0.1964417,0.7692833-0.4529114,1.5366173-0.2099228,2.3466339
		C113.7232819,49.6243935,113.5557098,49.6249084,113.3881454,49.6254234z"></path>
</g>
<path d="M110.8693695,48.9228668c0.1762924-0.023571,0.263092,0.0835304,0.3273773,0.2237511
	C111.0420837,49.1388245,110.8634338,49.1658516,110.8693695,48.9228668z"></path>
<g onclick="select(this)" class="" id="gola-primaria" fill="#000000">
	<path d="M116.381897,49.0477715c0.9636459-4.8089638,3.1056976-9.0236206,6.4560394-12.6026421
		c4.17379-4.4586735,8.4458771-8.8270798,12.5557861-13.343298c3.1049347-3.4118843,5.5716858-7.3001604,7.5047913-11.4869471
		c1.1612701-2.5151167,2.0049286-5.1494989,1.2373657-7.9960232c1.0215149,0.579803,1.5800476,1.6334033,2.4385681,2.3822198
		c0.9803619,0.8550615,1.8003998,1.9075398,3.041687,2.4371476c1.5554199,1.0682402,2.0092163,2.3769665,1.6367493,4.2228546
		c-0.5265961,2.6097441-1.8113861,4.8720531-3.2985382,6.9872799c-4.738327,6.7395897-9.7671814,13.2395878-15.7610931,18.9537144
		c-3.9484558,3.7641449-7.8574677,7.528244-13.1161346,9.452404
		C118.177948,48.3834915,117.2802658,48.7165756,116.381897,49.0477715z"></path>
	<path d="M82.7743149,4.5448394c-0.0166931,3.9794221,1.5683289,7.4199071,3.5216599,10.769886
		c2.7818604,4.770915,6.3688583,8.8787489,10.2087784,12.8014402c2.7669525,2.8265953,5.5028687,5.6848869,8.1998749,8.5781593
		c3.2402039,3.4760017,5.169342,7.6360779,6.1842422,12.2461243c-0.8428192,0.0738869-1.5185165-0.408268-2.2481384-0.6932793
		c-3.9157181-1.5295563-7.29953-3.8393021-10.3784943-6.7113991c-7.2812805-6.7920761-13.6390457-14.3459988-19.1893234-22.5971069
		c-1.278511-1.9006538-2.3447571-3.8768501-2.7723083-6.1657696c-0.4197464-2.2471323,0.0091324-3.2733994,2.0199966-4.4530277
		c1.2253876-0.542841,2.0059662-1.6151767,2.9658661-2.4759879C81.7761993,5.4046993,82.0902557,4.761116,82.7743149,4.5448394z"></path>
	<path d="M140.8240356,9.5985832c-6.7666626,0.4636936-13.5341492,0.9158564-20.2997818,1.3940048
		c-8.3960342,0.5933704-16.7453384-0.1868391-25.0988083-0.8302774c-3.0626907-0.2359104-6.1201324-0.5400925-9.1797791-0.813076
		c-0.7080841-1.3048449-0.8547058-2.723803-0.8089294-4.1702523c0.0253525-0.8010435,0.4879379-1.3244181,1.2209396-1.6196523
		c1.125473-0.4533081,2.3055878-0.6607053,3.5079956-0.6614058c15.6694565-0.0091302,31.3389206-0.0079172,47.0083847,0.0003197
		c1.1230621,0.0005903,2.2216339,0.2132609,3.2826538,0.5918701c0.9343262,0.3334045,1.4256592,0.9818466,1.4058533,1.9923222
		C141.8340759,6.9350324,141.5774231,8.3291445,140.8240356,9.5985832z"></path>
</g>
</svg>
