<!--?xml version="1.0" encoding="utf-8"?-->
<!-- Generator: Adobe Illustrator 24.2.3, SVG Export Plug-In . SVG Version: 6.00 Build 0)  -->
<svg version="1.1" id="Camada_1" xmlns="http://www.w3.org/2000/svg" xmlns:xlink="http://www.w3.org/1999/xlink" x="0px" y="0px" viewBox="0 0 229 418" style="enable-background:new 0 0 229 418;" xml:space="preserve">
<style type="text/css">
	.st0{fill:#FD0202;}
	.st1{fill:#87EDF9;}
</style>
<g onclick="select(this)" class="" id="estampa-primaria" fill="#ffffff">
	<path d="M43.2,120.4c-0.2-1.9-0.3-3.8-0.5-5.7c-0.2-1.5-0.4-1.6-1.9-1.3c-1.1,0.2-2.1,0.4-3.2,0.6c-3.7,0.7-7.5,0.4-11.2,0.4
		c-6.5,0-12.9-0.6-19.2-2.1c-2-0.5-4-1.1-6-1.7c1-4.8,1.7-9.7,2.3-14.5c0.9-6.3,1.9-12.6,2.6-18.9c0.8-6.7,1.9-13.3,4-19.7
		c2.9-8.9,7.8-16.5,15.2-22.4c1.1-0.9,2-2.2,3.3-2.9c3.6-1.9,7.3-3.7,11-5.3c10-4.1,20-8.2,29.5-13.4c2-1.1,4-2.1,5.5-3.9
		c0.8-1,2.1-1.6,3.5-1.6c-1.7,0.9-2,2.4-1.7,4.1c0.4,2.1,1.1,4.2,2.3,6c5.9,8.6,14.3,13.9,24.1,17.1c2,0.7,4.2,1.1,6.6,1
		c-0.8-1.3-1.7-2.3-2.7-3.3c-4.4-4.6-9.3-8.5-14.3-12.4c-2.5-2-4.7-4.2-6.7-6.7c-1-1.2-1.7-2.5-2.3-3.9c-0.3-0.7-0.2-1,0.6-0.9
		c3.5,0.4,7.1,0.7,10.6,1c7.9,0.6,15.8,1.4,23.8,1c6.3-0.4,12.5-0.7,18.8-1.2c2.3-0.2,4.5-0.3,7-0.5c-0.4,0.8-0.6,1.4-1,2
		c-1.2,2.3-2.9,4.2-4.7,6.1c-2.9,3-6.4,5.2-9.5,7.8c-3.5,3-7.1,5.9-10,9.5c-0.4,0.5-0.9,1-1,1.8c1-0.1,2,0,2.9-0.2
		c5.1-0.9,9.7-3.1,14.1-5.6c3.3-1.9,6.4-4.2,9.1-6.8c3.1-3,5.5-6.4,6.6-10.6c0.6-2.2,0-4.3-1.7-4.7c1.9-0.3,3.1,0.9,4.2,2.2
		c0.3,0.4,0.7,0.7,1.1,1c8.9,5.9,18.8,9.6,28.5,13.7c5.1,2.1,10,4.4,15.1,6.6c0.3,0.1,0.6,0.3,0.8,0.5c12,8.5,19.2,20.2,21.4,34.6
		c1.7,11.3,4.7,22.4,6.2,33.7c0.4,2.7,0.8,5.3,1.2,7.9c-0.4,0-0.8,0.1-1.2,0.2c-5.3,2.4-10.8,3.4-16.5,4.2c-4.9,0.7-9.8,1.4-14.8,1
		c-3-0.2-6.1,0-9.1-0.7c-0.4-0.1-1-0.3-1.1,0.5c-0.1,2.1-1,4.2-0.7,6.4c-0.4,0.8-0.3,1.7-0.4,2.6c-1,8.4-1.7,16.8-1.7,25.2
		c0,2.2,0.1,4.4,0.5,6.6c0.4,1.9,0,3.8-0.2,5.7c-0.2,2.1-0.2,4.2-0.1,6.3c0.1,2.2-0.1,4.3-0.2,6.5c-0.1,2.8-0.1,5.7,0.1,8.5
		c0.1,1.7,0.1,3.4-0.1,5c-0.3,3,0.2,5.9,0.8,8.8c1.7,7.3,1.5,14.8,0.4,22.2c-0.3,2.1-0.4,4.2,0.3,6.4c1.8,5.5,1.8,11.1,0.9,16.7
		c-0.2,1.4-0.2,2.7,0.1,4c0.9,3.8,0.5,7.7,0.7,11.6c0.3,6,0.7,12,1.4,17.9c0.3,2,0.2,4.1,0.3,6.1c0,1.8-0.3,2.3-2.1,2.8
		c-3,0.9-6,1.1-9.1,1.5c-7.7,0.8-15.5,0.9-23.2,1c-11.2,0.2-22.5,0.7-33.7,0.8c-12.5,0.2-24.9-0.8-37.4-0.8
		c-8.4,0-16.8-0.1-25.2-0.7c-4.1-0.3-8.3-0.8-12.4-1.7c-0.3-0.1-0.5-0.1-0.8-0.2c-3-0.8-3.3-1.2-3.2-4.2c0.5-7.8,1-15.7,1.6-23.5
		c0.1-2,0.3-4.1,0.2-6.1c0-1.8,0-3.6,0.4-5.4c0.4-2.2,0.5-4.4,0.1-6.7c-0.4-2.5-0.1-5,0.4-7.5c0.2-1.1,0.2-2.1,0.1-3.2
		c-0.3-4.5-1-8.9-0.8-13.4c0.2-4.4,1.2-8.6,2.7-12.7c0.4-1,0.6-2,0.4-3c-0.2-1.2-0.2-2.5,0.1-3.7c0.3-1.7,0.2-3.3,0.1-5
		c-0.2-3.3-0.2-6.6-0.2-9.9c-0.1-12.9,0-25.8-0.1-38.7c0-5.2-1-10.3-1.5-15.5C43.6,122.9,43.7,121.6,43.2,120.4z"></path>
</g>
<g onclick="select(this)" class="" id="gola-primaria" fill="#ffffff">
	<path d="M149.2,8.3c1.7,0.5,2.3,2.5,1.7,4.7c-1.2,4.2-3.5,7.7-6.6,10.6c-2.7,2.6-5.8,4.9-9.1,6.8
		c-4.4,2.6-9,4.7-14.1,5.6c-1,0.2-1.9,0.1-2.9,0.2c0.1-0.8,0.6-1.3,1-1.8c2.9-3.6,6.4-6.5,10-9.5c3.2-2.6,6.6-4.9,9.5-7.8
		c1.8-1.8,3.4-3.8,4.7-6.1c0.3-0.6,0.6-1.3,1-2c-2.4,0.2-4.7,0.3-7,0.5c-6.3,0.5-12.5,0.9-18.8,1.2c-8,0.5-15.9-0.4-23.8-1
		c-3.5-0.3-7.1-0.6-10.6-1c-0.9-0.1-0.9,0.2-0.6,0.9c0.6,1.4,1.3,2.7,2.3,3.9c2,2.5,4.2,4.7,6.7,6.7c5,3.9,9.9,7.8,14.3,12.4
		c1,1,1.8,2,2.7,3.3c-2.4,0.2-4.5-0.3-6.6-1C93,31.9,84.7,26.7,78.7,18c-1.2-1.8-1.9-3.8-2.3-6c-0.3-1.7,0-3.2,1.7-4.1
		c0.5,0,0.9-0.3,1.3-0.6c0.9-0.9,2-1.7,2.7-2.7c2-2.9,5-3.6,8.2-3.9c3.1-0.3,6.1,0.1,9.2,0c4.4-0.1,8.8,0,13.2-0.1
		c7.9-0.2,15.8,0,23.7,0c0.9,0,1.8,0.2,2.7,0.3c2.2,0.3,4.2,1.2,5.6,3.1C146,5.8,147.4,7.3,149.2,8.3z"></path>
</g>
<g onclick="select(this)" class="" id="detalhe-punho" fill="#ededed">
	<path d="M0.2,114.4c0.6-1.2,0.4-2.7,0.9-3.9c2,0.6,4,1.2,6,1.7c6.3,1.6,12.7,2.1,19.2,2.1c3.7,0,7.5,0.3,11.2-0.4
		c1.1-0.2,2.1-0.4,3.2-0.6c1.5-0.3,1.7-0.2,1.9,1.3c0.2,1.9,0.3,3.8,0.5,5.7c-0.9,0.7-2,1-3.1,1.2c-2.5,0.5-5,0.8-7.6,0.8
		c-7,0.1-14,0-20.9-1.2c-3-0.6-6-1.1-8.9-2.1c-0.8-0.3-1.6-0.6-2.4-1C0.2,116.8,0.2,115.6,0.2,114.4z"></path>
	<path d="M184.6,120.1c-0.3-2.2,0.6-4.2,0.7-6.4c0-0.8,0.7-0.6,1.1-0.5c3,0.7,6,0.5,9.1,0.7c5,0.3,9.9-0.3,14.8-1
		c5.7-0.8,11.3-1.9,16.5-4.2c0.4-0.2,0.8-0.3,1.2-0.2c1.1,2.3,1.2,4.8,1.1,7.4c0,0.7-0.8,0.8-1.3,1c-2.9,1.1-5.8,1.9-8.8,2.6
		c-8.7,2.3-17.6,2.8-26.6,2.3c-2.1-0.1-4.1-0.3-6.1-0.9C185.5,120.7,185,120.6,184.6,120.1z"></path>
</g>
<g onclick="select(this)" class="" id="estampa-secundaria" fill="#ededed">
	<path d="M150.5,187.7c4.1,0.5,8.2,1.1,12.3,1.6c6.3,0.8,12.6,1.5,18.9,2.3c0.3,0,0.6,0,0.8,0c0.3,1.8,1,3.5,1.1,5.4
		c-6-0.9-12.1-1.7-18.1-2.6c-4.9-0.7-9.7-1.4-14.6-2c-0.3,0-0.5-0.1-0.8,0c-0.1-0.1-0.1-0.1-0.2-0.2
		C150.4,190.7,150.1,189.1,150.5,187.7L150.5,187.7z"></path>
	<path d="M184.1,213.8c0.1,2-0.2,3.9-0.6,5.8c-0.4,0-0.9,0-1.3-0.1c-5.6-0.9-11.1-1.8-16.6-2.7
		c-5.5-0.9-10.9-1.8-16.4-2.7c-0.6-0.1-0.9,0-0.9,0.7c0,0.8-0.1,1.6-0.2,2.4c-0.2,2-0.5,1.6,1.4,2c7.8,1.3,15.7,2.5,23.5,3.8
		c3.8,0.6,7.6,1.1,11.3,1.7c0.7,1.9,0.9,4,1.2,6c0,0.2,0,0.4-0.2,0.5c-0.1,0-0.2,0-0.2,0c-12.2-2.1-24.4-4.2-36.6-6.4
		c-1-0.2-1.3,0.1-1.3,1c-0.1,1.1-0.2,2.1-0.3,3.2c-2.1-0.4-4.1-0.7-6.2-1.1c-0.6-0.1-0.7,0-0.6,0.6c0.4,2.1,0.7,4.1,1,6.2
		c-0.3,0-0.6,0-0.8-0.1c-15-2.8-30.1-5.6-45.1-8.4c-1.5-0.3-3-0.6-4.7-0.9c1.7-1.9,3.2-3.5,4.9-5.3c-4-0.7-7.7-1.3-11.4-2
		c-0.6-0.1-0.9,0-1.2,0.5c-0.8,1.4-1.7,2.8-2.6,4.2c-0.4,0.6-0.1,0.6,0.4,0.7c0.9,0.1,1.7,0.3,2.6,0.5c2.4,0.4,4.8,0.9,7.4,1.4
		c-1.1,1.2-2,2.2-3.1,3.4c18.2,3.3,36.2,6.6,54.3,9.9c-0.3-1.4-0.5-2.7-0.7-3.9c1.4,0.3,2.9,0.5,4.3,0.9c0.7,0.1,0.9,0.1,0.9-0.7
		c0.1-2,0.3-3.9,0.5-5.9c0.2,0,0.4,0,0.6,0c8,1.4,16,2.8,24,4.2c4.6,0.8,9.2,1.6,13.8,2.3c0.7,0.9,0,1.9,0,2.9
		c-0.1,1.5-0.1,3.1-0.7,4.6c-0.2,0-0.3,0-0.5-0.1c-11.7-2.2-23.4-4.4-35.2-6.6c-2.7-0.5-2.7-0.5-2.8,2.2c0,0.8,0.2,1,1,1.2
		c11.2,2,22.4,4.1,33.7,6.1c1.5,0.3,3,0.5,4.5,0.7c0.6,2.4,0.9,4.8,0.3,7.3c-0.4,0-0.7-0.1-1.1-0.1c-12.1-2.4-24.2-4.8-36.3-7.1
		c-2.7-0.5-2.7-0.5-2.9,2.3c-0.1,1.2,0.2,1.6,1.4,1.8c12.5,2.4,25.1,4.9,37.6,7.4c0.5,0.1,1,0.5,1.6,0.2c0.3,2.5,0.6,5,0.5,7.5
		c-0.5-0.1-1-0.3-1.5-0.4c-14-2.9-28-5.8-42.1-8.8c-22.3-4.7-44.7-9.3-67-14c-0.4-0.1-0.8-0.2-1.1,0.1c-0.7,0.8-1.4,1.5-2.3,2.4
		c0.5,0.1,0.7,0.2,1,0.3c18.2,3.8,36.4,7.5,54.6,11.3c16.6,3.4,33.1,6.9,49.7,10.3c2.9,0.6,5.9,1.1,8.8,1.7c0.7,1.1,0.2,2.3,0.4,3.5
		c0.4,1.5,0.3,3,0.5,4.5c0,0.1-0.1,0.3-0.2,0.4c-0.7-0.2-1.3-0.3-2-0.5c-12.6-2.8-25.1-5.5-37.7-8.3c-23.1-5.1-46.2-10.2-69.3-15.3
		c-3.7-0.8-7.3-1.6-11.1-2.4c1.7-1.9,3.3-3.6,4.9-5.4c-1.8-0.4-3.4-0.7-5.2-1.1c0.6-1,1.2-2,1.8-3c-6-1.3-11.8-2.4-17.7-3.7
		c-2.8-0.6-5.7-1-8.5-1.9c-0.3-1.8,0.1-3.6,0.2-5.4c0.3,0,0.6,0,1,0.1c8.3,1.6,16.5,3.3,24.8,4.9c3.6,0.7,3.6,0.7,5.4-2.4
		c0.3-0.6,0.3-0.8-0.4-0.9c-2.3-0.4-4.6-0.9-6.8-1.3c-7.8-1.5-15.7-3.1-23.5-4.6c-0.4-0.9-0.4-1.8-0.5-2.8c-0.1-0.9-0.1-1.8-0.1-2.7
		c6.1,1.1,12.2,2.3,18.4,3.4c5.1,0.9,10.3,1.9,15.4,2.8c0.5,0.1,1.1,0.4,1.5-0.4c0.6-1,1.2-1.9,1.8-3c-0.3-0.1-0.5-0.1-0.7-0.1
		c-9.3-1.8-18.7-3.5-28-5.2c-2.9-0.5-5.8-1.2-8.7-1.5c0-1.9-0.3-3.9,0.2-5.8c0.3,0.1,0.7,0.1,1.1,0.2c12.1,2.1,24.2,4.2,36.3,6.3
		c3.3,0.6,3.3,0.6,5.1-2.3c0.6-1,0.4-1.2-0.6-1.3c-5.9-1-11.9-2-17.8-3.1c-7.8-1.3-15.6-2.7-23.3-4c0-1.5,0.5-2.9,1.2-4.3
		c7.4,1.2,14.7,2.3,22.1,3.5c7.1,1.1,14.1,2.3,21.2,3.4c0.5,0.1,0.9,0.1,1.2-0.5c0.7-1.1,1.3-2.3,2.1-3.4c0.4-0.7,0.2-0.8-0.4-0.9
		c-2.2-0.3-4.3-0.7-6.5-1c-10.1-1.6-20.2-3.3-30.3-4.9c-2.8-0.4-5.5-1.1-8.3-1.2c-0.3-1.4-0.4-2.9,0.2-4.3c0.3,0.1,0.6,0.1,0.9,0.2
		c8.8,1.3,17.7,2.6,26.5,3.9c6.7,1,13.3,2,20,3c0.7,0.1,1.2,0,1.6-0.7c0.7-1.2,1.4-2.3,2.1-3.5c0.4-0.6,0.2-0.8-0.4-0.9
		c-10.1-1.5-20.3-3-30.4-4.6c-6.8-1-13.6-2.1-20.3-3.1c-0.4-1-0.2-2,0.1-3c1.1,0.1,2.2,0.3,3.3,0.4c8,1.1,16,2.2,24.1,3.3
		c8.8,1.2,17.6,2.4,26.3,3.6c-0.6,0.9-1.1,1.9-1.7,2.8c-0.4,0.6-0.3,0.8,0.4,0.9c2.7,0.4,5.4,0.8,8.2,1.2c3.1,0.5,6.3,1,9.7,1.5
		c-1.6,1.7-3,3.2-4.5,4.9c8.3,1.2,16.4,2.4,24.6,3.7c-0.3-1.3-0.6-2.5-0.6-3.7c0-1.6-0.9-2-2.1-2.1c-4-0.6-8-1.2-11.9-1.8
		c-1.8-0.3-3.5-0.6-5.4-0.9c1.2-1.3,2.2-2.4,3.3-3.6c-2.7-0.4-5.2-0.7-7.7-1.1c-4-0.6-8.1-1.1-12.1-1.7c1.2-2,2.4-4,3.6-6
		c-0.3-0.1-0.4-0.2-0.5-0.2c-4.7-0.7-9.5-1.3-14.2-2c-8.4-1.2-16.8-2.4-25.1-3.5c-5.9-0.8-11.8-1.6-17.8-2.4
		c-0.3-0.9-0.5-1.8-0.1-2.7c3.1,0.4,6.2,0.7,9.3,1.1c6.1,0.8,12.3,1.5,18.4,2.3c6.3,0.8,12.5,1.5,18.8,2.3c4.2,0.5,8.4,1,12.6,1.5
		c0.3,0,0.8,0.3,1.1-0.2c1.1-1.9,2.3-3.7,3.5-5.6c-0.3-0.1-0.4-0.1-0.6-0.1c-7.2-0.9-14.3-1.9-21.5-2.8c-7.8-1-15.6-2-23.4-3
		c-6-0.8-12-1.6-18-2.4c-0.1-0.9-0.5-1.7-0.1-2.6c9.6,1.1,19.2,2.1,28.8,3.2c6.8,0.8,13.6,1.5,20.3,2.3c5.2,0.6,10.3,1.1,15.5,1.7
		c0.5,0.1,1.1,0.4,1.5-0.3c1.1-1.8,2.2-3.5,3.3-5.3c-5.6-0.7-11.1-1.3-16.5-2c-9.3-1.1-18.5-2.2-27.8-3.3c-8.4-1-16.7-2-25.1-3
		c-0.4-0.9,0.1-1.8,0-2.6c0.4,0,0.7,0,1.1,0.1c12.2,1.2,24.4,2.5,36.6,3.7c10.2,1,20.4,2.1,30.6,3.1c3.5,0.4,3.5,0.4,5.3-2.7
		c0.3-0.4,0.3-0.7,0-1.2c-0.5-0.9-1.1-1.7-1.4-2.7c1.4,0.1,2.8,0.3,4.2,0.4c9.6,1,19.2,2,28.8,3c2.4,0.3,2.4,0.3,2.6-2.1
		c0-0.7-0.2-0.9-0.8-1c-3.7-0.3-7.5-0.6-11.2-1c-5.9-0.5-11.8-1.1-17.6-1.6c-2.4-0.2-4.8-0.4-7.4-0.6c0.4,1.2,1,2.1,1.5,3
		c-0.2,0-0.3,0-0.5,0c-7.8-0.8-15.7-1.6-23.5-2.4c-7.2-0.8-14.4-1.5-21.6-2.2c-8.9-0.9-17.7-1.9-26.6-2.8c-0.1-0.7-0.1-1.3,0-2
		c23.4,2.1,46.8,4.2,70.4,6.3c-1.4-2.6-2.7-5-4.1-7.6c1.2,0.1,2.2,0.1,3.2,0.2c8.4,0.8,16.8,1.5,25.1,2.3c6.4,0.6,12.9,1,19.3,1.8
		c2.9,0.4,4.2-1.6,6-3c-18.3-1.4-36.6-2.8-55.1-4.3c0.4,0.9,0.8,1.5,1.2,2.2c0.3,0.5,0.4,0.7-0.4,0.8c-1.2,0.2-2.2-0.3-3.3-0.4
		c-5.9-0.5-11.8-1-17.6-1.6c-8.4-0.8-16.8-1.5-25.3-2.3c-6.5-0.6-13-1.2-19.5-1.8c-0.4-0.7-0.2-1.4-0.1-2.1
		c21.5,1.7,43.1,3.4,64.9,5.1c-1.3-2.4-2.6-4.5-3.6-6.7c-0.6-1.4-1.5-1.8-2.9-1.9c-11.9-0.9-23.8-1.9-35.8-2.9
		c-7.8-0.6-15.6-1.3-23.4-1.9c-0.3-0.3-0.2-0.6-0.2-1c2.1,0.1,4.2,0.3,6.3,0.4c6.8,0.5,13.7,0.9,20.5,1.4c8.7,0.6,17.4,1.2,26.1,1.8
		c2.4,0.2,4.8,0.3,7.4,0.5c-1.6-2.9-3.1-5.7-4.7-8.4l0,0c0.2,0,0.3,0,0.5,0c5.6,0.4,11.1,0.8,16.7,1.2c6.4,0.4,12.7,0.8,19.1,1.3
		c7.5,0.5,15,1.1,22.5,1.6c4.1,0.3,8.3,0.6,12.4,0.9c4.2,0.3,8.4,0.5,12.5,0.8c-0.1,1.4,0,2.8-0.5,4.2c-1.5,1.1-3,2.3-4.8,3.6
		c1.7,0.1,3.1,0.3,4.5,0.4c0.1,0.8,0.3,1.7-0.1,2.5c-2.4-0.2-4.8-0.4-7.4-0.6c1-0.8,1.8-1.4,2.8-2.2c-24.6-1.7-48.9-3.4-73.2-5
		c0.3,1,0.6,1.6,1.7,1.6c2.8,0.1,5.5,0.4,8.2,0.6c10.6,0.9,21.2,1.7,31.8,2.6c8.5,0.7,17,1.3,25.5,2c1,0.1,2.1,0.2,3.3,0.3
		c-3.2,2.5-6.2,4.8-9.5,7.3c5.8,0.4,11.2,0.8,16.6,1.2c0.2,1.3,0.1,2.6,0.1,3.9c-0.4,0-0.8-0.1-1.2-0.1c-6.2-0.6-12.5-1.1-18.7-1.7
		c-0.5,0-0.9-0.2-1.4,0.1c-2.6,2-5.2,4-8,6.1c10.1,0.9,19.8,1.8,29.6,2.6c0,1.3,0.1,2.6-0.3,3.9c-5.4-0.5-10.8-1.1-16.2-1.6
		c-4.2-0.4-8.3-0.9-12.5-1.3c-0.6-0.1-1-0.1-1.1,0.6c-0.1,1.7-0.3,3.4-0.4,5.1c-0.1,0.7,0.1,0.9,0.9,1c2.6,0.2,5.1,0.5,7.7,0.8
		c7.2,0.7,14.4,1.4,21.6,2.1c-0.1,1.7,0.2,3.5-0.2,5.2c-4.4-0.5-8.8-1.1-13.3-1.6c-5.4-0.6-10.9-1.3-16.4-2
		c-0.7-0.1-0.9,0.1-0.9,0.8c-0.1,1.7-0.3,3.3-0.4,5c-0.9-0.1-1.9-0.1-2.9-0.2c-7-0.8-14-1.6-21-2.3c-5.1-0.6-10.2-1.1-15.3-1.7
		c-0.4-0.1-0.9-0.3-1.2,0.2c-0.6,1-1.2,2-1.9,3.1c1.3,0.2,2.5,0.4,3.6,0.5c8.5,1.1,17,2.2,25.5,3.3c3.9,0.5,7.8,1,11.7,1.5
		c0.8,0.1,1-0.1,1.1-0.9c0-1.1,0.2-2.3,0.4-3.4c4.8,0.5,9.6,1.1,14.5,1.6c5.5,0.6,11.1,1.2,16.6,1.8c0.3,1.8,0.2,3.5,0.1,5.3
		c-0.3-0.1-0.5-0.1-0.8-0.2c-9.9-1.3-19.8-2.5-29.7-3.9c-0.9-0.1-1.1,0.2-1.1,1c-0.1,1.7-0.3,3.3-0.5,5l0,0c-0.3,0.2-0.7,0.1-1.1,0
		c-2.4-0.3-4.8-0.6-7.1-0.9c-3-0.4-6-0.7-9-1.1c-0.8-0.1-0.9,0.1-0.7,0.8c0.3,1.1,0.4,2.2,0.6,3.3c-2.8-0.4-5.6-0.7-8.6-1.1
		c1.2-1.3,2.2-2.4,3.3-3.6c-6.8-0.8-13.4-1.5-20-2.5c-2.2-0.3-3.3,0.3-4.2,2.1c-0.3,0.7-0.4,1,0.5,1.1c5.3,0.7,10.6,1.4,15.9,2.2
		c1.5,0.2,2.9,0.4,4.6,0.7c-1.8,2-3.5,3.8-5.3,5.8c4.8,0.6,9.4,1.3,14,1.9c0.8,0.1,0.9-0.2,0.7-0.9c-0.3-1.9-0.8-3.7-0.9-5.6
		c5.6,0.8,11.2,1.6,16.7,2.3c0.1,0.1,0.1,0.1,0.2,0.2c-0.2,2-0.4,4.1-0.6,6.1c-0.5,0-1,0-1.6-0.1c-4.3-0.6-8.5-1.2-12.8-1.8
		c-0.5-0.1-0.9-0.1-0.7,0.6c0.2,0.9,0.4,1.8,0.5,2.7c0.1,0.7,0.4,1,1.1,1.1c4.1,0.6,8.1,1.2,12.2,1.9c0.6,0.1,0.8-0.1,0.9-0.7
		c0.1-1.3,0.2-2.5,0.3-3.8c0.4,0.1,0.8,0.2,1.2,0.3c7,0.9,14,1.9,21,2.8c4.3,0.6,8.5,1.1,12.8,1.7c0.1,1.8,0.7,3.5,0.1,5.3
		c-0.3-0.1-0.5-0.1-0.8-0.2c-7.4-1.1-14.8-2.2-22.3-3.4c-3.7-0.6-7.4-1.1-11.1-1.7c-0.9-0.1-1.3,0-1.3,1c0,1.1-0.1,2.1-0.3,3.2
		c-0.1,0.7,0.1,0.9,0.8,1.1c3.7,0.5,7.3,1.1,11,1.6C168.4,211.4,176.3,212.6,184.1,213.8z M137.1,212.2c-9.6-1.6-19.3-3.2-28.9-4.7
		c-0.4-0.1-0.7-0.1-1,0.2c-1.2,1.3-2.5,2.6-3.9,4.1c11.7,1.9,23.2,3.7,34.7,5.6C137.6,215.4,137.3,213.8,137.1,212.2
		c0.2,0,0.5,0,0.8,0c3.1,0.5,6.2,1,9.3,1.6c0.7,0.1,1.1,0.1,1.1-0.8c0-1.1,0.1-2.2,0.3-3.3c0.1-0.8-0.2-1.1-0.9-1.2
		c-3.5-0.5-6.9-1-10.4-1.5c-0.9-0.1-1,0.1-0.9,0.9C136.6,209.2,137,210.6,137.1,212.2z M139.2,223.2c-0.9,0.1-1.6-0.3-2.4-0.5
		c-10.3-1.8-20.6-3.6-30.9-5.4c-2.2-0.4-4.5-0.8-6.9-1.2c1.4-1.6,2.7-2.9,4-4.4c-3.6-0.6-7.1-1.2-10.5-1.7c-1.3-0.2-2.8-0.8-4-0.4
		c-1.2,0.4-1.5,2.2-2.4,3.3c-0.6,0.8-0.2,0.9,0.5,1.1c2.5,0.4,5,0.8,7.4,1.3c1.6,0.3,3.2,0.6,4.9,0.9c-1.2,1.4-2.3,2.5-3.5,3.8
		c8.7,1.5,17.2,3,25.7,4.4c5.7,1,11.5,2,17.2,3c1.3,0.2,1.3,0.2,1.1-1.1C139.5,225.3,139,224.3,139.2,223.2c0.4,0,0.8,0,1.3,0.1
		c1.9,0.3,3.8,0.7,5.8,1c0.7,0.1,1.1,0.1,1.1-0.8c0-1.2,0.1-2.5,0.3-3.7c0.1-0.7,0-0.9-0.7-1c-2.7-0.4-5.3-0.9-8-1.3
		c-0.5-0.1-0.8-0.1-0.7,0.6C138.6,219.8,138.9,221.5,139.2,223.2z M143,245.3c-0.4,0.3-0.8,0-1.1,0c-5.5-1.1-11-2.1-16.4-3.2
		c-13.9-2.7-27.8-5.5-41.7-8.2c-0.6-0.1-1-0.1-1.4,0.4c-0.9,1-1.8,2-2.8,3.1c21.5,4.3,42.8,8.5,64.3,12.7
		C143.5,248.4,143.3,246.8,143,245.3c0.4,0.3,0.9,0.2,1.4,0.4c0.7,0.3,1.1,0.1,1.1-0.8c0-1.2,0.2-2.5,0.4-3.7c0.2-1.7,0.2-1.7-1.5-2
		c-0.5-0.1-1-0.2-1.5-0.3c-0.7-0.2-0.8,0.1-0.7,0.7C142.4,241.5,142.7,243.4,143,245.3z M114.9,166.8c0.7,0.1,1.3,0.2,1.8,0.2
		c7.8,0.9,15.5,1.9,23.3,2.8c3.6,0.4,7.2,0.9,10.8,1.3c0.8,0.1,1.2,0,1.1-0.9c0-0.8,0.1-1.6,0.2-2.4c0.1-0.7,0-1-0.8-1
		c-6.7-0.6-13.3-1.3-20-2c-4.4-0.4-8.8-0.9-13.2-1.3c-0.6-0.1-1.1-0.2-1.5,0.5C116.2,164.8,115.6,165.7,114.9,166.8z M91.5,204.6
		c5.2,0.9,10.1,1.7,15.1,2.5c0.4,0.1,0.8,0.2,1.1-0.2c1.2-1.3,2.4-2.5,3.5-3.8c-0.1-0.2-0.1-0.2-0.2-0.2c-5.4-0.8-10.9-1.6-16.3-2.5
		c-0.4-0.1-0.7,0-0.9,0.4C93.1,202.1,92.3,203.3,91.5,204.6z M87.3,228.8c-3.2-0.6-6.2-1.2-9.2-1.7c-0.5-0.1-0.7,0.2-0.9,0.6
		c-0.7,1.2-1.5,2.4-2.2,3.6c-0.3,0.5-0.4,0.8,0.3,0.9c2.3,0.4,4.5,0.9,6.8,1.3c0.3,0.1,0.7,0.2,1-0.2
		C84.4,231.8,85.8,230.4,87.3,228.8z M79.3,237.4c-2.4-0.5-4.6-0.9-6.8-1.4c-0.5-0.1-0.7,0.1-0.8,0.4c-0.9,1.5-1.8,3-2.8,4.5
		c1.9,0.4,3.6,0.8,5.4,1.1c0.3,0.1,0.5,0.1,0.8-0.2C76.4,240.5,77.8,239,79.3,237.4z M131.6,181.3c-1.2,1.3-2.3,2.4-3.4,3.7
		c1.2,0.2,2.3,0.3,3.4,0.5c0.7,0.1,0.7-0.2,0.6-0.8C132,183.7,131.8,182.6,131.6,181.3z"></path>
	<path d="M41.3,263.9c-0.1-1.5,0-3,0.2-4.7c-0.5,2.8,0-0.7,0.2-0.9c3.8,0.9,7.7,1.7,11.5,2.6c3.2,0.7,3.2,0.7,4.7-2.2
		c0.3-0.5,0.2-0.6-0.3-0.7c-5.2-1.2-10.4-2.4-15.6-3.6c0-1.9,0.1-3.9,0.2-5.8c6.2,1.4,12.3,2.7,18.5,4c0.4,0.1,0.8,0.3,1.2-0.2
		c0.5-0.9,1.1-1.8,1.7-2.7c-7.1-1.5-14.1-3.1-21.1-4.6c0.2-1.9,0.5-3.9,0.7-5.8c0.4,0,0.9,0,1.3,0.1c7.3,1.5,14.5,3,21.8,4.5
		c0.8,0.2,0.9,0.4,0.4,1c-1,1.6-1.9,3.1-3,4.8c1.1,0.2,1.9,0.5,2.8,0.6c0.8,0.1,0.7,0.4,0.3,0.9c-0.7,0.7-1.4,1.5-2.1,2.3
		c0.3,0.1,0.3,0.2,0.5,0.2c16.1,3.5,32.2,7,48.3,10.5c21.4,4.6,42.7,9.3,64.1,14c3.4,0.7,6.7,1.6,10.1,2.1c0.2,2.2-0.2,2.6-2.9,3.3
		c-1.3,0.4-2.7,0.3-4,0.6c-2.6,0.5-5.3,0.6-8,0.8c-0.5-0.3-1-0.4-1.6-0.5c-17-4-34-8-51.1-11.9c-17.2-4-34.4-8-51.7-12
		c-2.8-0.6-5.6-1.3-8.5-2c1.6-1.7,3-3.3,4.5-4.9c-0.8-0.2-1.4-0.3-2-0.5c-0.5-0.2-0.8,0-1.1,0.4c-0.9,1.5-1.8,3-2.7,4.4
		c0.4,0.4,0.9,0.2,1.3,0.6c-0.9,1-1.8,2-2.8,3.1c0.4,0.1,0.5,0.2,0.7,0.2c10.3,2.3,20.6,4.7,30.9,7c19.7,4.4,39.3,8.9,59,13.3
		c5.1,1.1,10.1,2.3,15.2,3.4c-0.2,0-0.4,0.1-0.6,0.1c-3.4,0.1-6.8,0.2-10.1,0.2c-5.6-0.1-11.1,0.4-16.7,0.3c-0.8,0-1.6,0.5-2.3,0
		c-1.9-0.7-3.9-1-5.9-1.5c-21.6-5.2-43.2-10.4-64.8-15.6C55.3,267.2,48.3,265.6,41.3,263.9z"></path>
	<path d="M43.2,119.3c0.2-0.6,0.6-0.4,1-0.4c7.8,0.4,15.7,0.9,23.5,1.3c8,0.5,16.1,0.9,24.1,1.4c2.3,0.1,4.6,0.3,7,0.5
		c-0.2-1-0.7-1.7-1.1-2.4c-1.1-2-2.2-4-3.2-6c-0.3-0.5-0.5-0.8-1.2-0.8c-5.4-0.3-10.9-0.6-16.4-1c-7.2-0.4-14.3-0.9-21.5-1.3
		c-4.1-0.3-8.3-0.5-12.4-0.7c-0.4,0-1,0.2-1-0.5c0-0.8,0.6-0.4,1-0.4c5.4,0.2,10.8,0.5,16.1,0.7c5.3,0.3,10.6,0.5,15.9,0.8
		c5.8,0.3,11.6,0.6,17.3,0.8c0.7,0,1,0.3,1.3,0.8c0.2,0.6,0.7,0.8,1.3,0.8c4.6,0.3,9.2,0.5,13.7,0.8c6.1,0.4,12.3,0.8,18.4,1.1
		c3.5,0.2,6.9,0.4,10.4,0.6c6,0.4,12,0.7,18,1.1c4.8,0.3,9.6,0.5,14.3,0.8c4.9,0.3,9.8,0.6,14.7,0.9c0,0.7,0,1.3,0,2
		c-0.3,2.3-0.4,4.7-0.8,7c-0.6,0-1.3-0.1-1.9-0.1c-7.3-0.4-14.6-0.9-21.8-1.3c-6.4-0.4-12.9-0.7-19.3-1.1
		c-7.2-0.4-14.5-0.9-21.7-1.3c-5-0.3-10-0.6-15-0.9c-1.5-0.1-3-0.3-4.5-0.1c0,0.6,0.6,0.9,0.4,1.4l0,0c-6.1-0.4-12.2-0.8-18.3-1.2
		c-8.5-0.6-17-1.2-25.5-1.8c-4.3-0.3-8.6-0.6-12.9-0.9C43.2,119.7,43.2,119.5,43.2,119.3z"></path>
	<path d="M125,286.4c-0.3,0.3-0.8,0.2-1.2,0.2c-4.6,0-9.1,0.1-13.7,0c-5.1-0.1-10.2-0.4-15.3-0.5c-1.9,0-3.8,0-5.7-0.2
		c-0.1-0.8-0.8-0.5-1.1-0.6c-10.5-2.7-21-5.4-31.5-8.1c-5.2-1.3-10.4-2.6-15.7-4c-0.4-1.6,0.2-3.1,0.1-4.7c0-0.4,0.1-0.9,0.2-1.3
		c1.4,0.3,2.9,0.6,4.3,1c22,5.1,44.1,10.2,66.1,15.3C116,284.4,120.4,285.5,125,286.4z"></path>
	<path d="M77.1,285.4c-0.1,0.1-0.1,0.2-0.2,0.2c-3.2,0.1-6.4,0.2-9.5-0.1c-0.5,0-0.9-0.1-1.4-0.1
		c-4,0.1-7.9-0.3-11.9-0.7c-3.9-0.3-7.8-0.9-11.5-1.9c-1.8-0.5-2.3-1-2.2-2.8c0-1.2-0.3-2.4,0.2-3.5c0.3,0,0.7,0.1,1.1,0.2
		c9.8,2.4,19.7,4.7,29.5,7.1C73.1,284.2,75.2,284.5,77.1,285.4z"></path>
	<path d="M79,285.6c0.1,0,0.2,0,0.3,0C79.3,285.8,79.1,285.8,79,285.6z"></path>
	<path d="M78.1,285.6c0.1,0,0.1,0,0.2,0C78.2,285.8,78.1,285.8,78.1,285.6z"></path>
	<path d="M173.3,85c-0.7,2.3-1.4,4.7-2.2,7.1c-0.3,0.8-0.2,1.1,0.7,1.1c4.4,0.1,8.9,0.2,13.3,0.3c0.8,0,1.5,0,2.3,0.1
		c0.5,0.1,1.4-0.6,1.4,0.5c0,1.5-0.5,2-1.7,2c-5.2-0.2-10.4-0.4-15.7-0.6c-0.9,0-1.5,0.1-1.8,1.2c-0.7,2.6-1.6,5.1-2.5,7.7
		c2,0.1,3.9,0.2,5.8,0.3c4.1,0.1,8.3,0.3,12.4,0.4c0.5,0,1.2-0.1,0.9,0.8c-0.2,0.7,0.4,1.9-1.1,1.8c-3.1-0.2-6.2-0.3-9.3-0.5
		c-3.1-0.2-6.3-0.3-9.4-0.4l0,0c0-0.1-0.1-0.2-0.1-0.2c0.5-2,0.5-1.9-1.6-2c-6.4-0.2-12.8-0.4-19.4-0.6c2-3.1,4-5.9,6.2-9.2
		c-2.2,0-4,0-5.9,0c-5.3-0.2-10.6-0.3-15.9-0.5c-6.8-0.2-13.6-0.5-20.5-0.7c-4.7-0.2-9.3-0.3-14-0.5c-6.8-0.2-13.6-0.5-20.5-0.7
		c-4.8-0.2-9.6-0.3-14.3-0.5c-6.2-0.2-12.4-0.5-18.7-0.7c-0.8,0-1.7,0-2.5,0c-0.3,0-0.7,0.1-0.7-0.3c0-0.4,0.4-0.3,0.6-0.3
		c2.3,0,4.6,0.1,6.8,0.1c3.9,0.1,7.7,0.2,11.6,0.3c9,0.2,17.9,0.3,26.8,0.5c6.3,0.1,12.6,0.3,18.9,0.4c5,0.1,10.1,0.1,15.1,0.3
		c4.6,0.2,9.2,0.2,13.8,0.3c6.8,0.2,13.6,0.3,20.3,0.5c0,0.1,0,0.2,0,0.2c-0.3,0.6-1.1,1-0.8,1.6c0.3,0.5,1.1,0.2,1.7,0.2
		c5.1,0.2,10.3,0.4,15.4,0.6c0.8,0,1.8-1.1,1.6-1.8c-0.1-0.4-0.4-0.2-0.7-0.3c-2.9-0.1-5.9-0.2-8.9-0.2c-2.4,0-4.9-0.1-7.3-0.1
		c-0.9,0-1-0.2-0.5-0.9c1.4-2,2.8-4.1,4.1-6.2c0.2-0.3,0.5-0.6,0.6-1.1c-1.4-0.1-2.9-0.2-4.3-0.2c-8.4-0.1-16.7-0.2-25.1-0.4
		c-7.2-0.1-14.5-0.3-21.7-0.4c-5.3-0.1-10.7-0.2-16-0.3c-9-0.2-18-0.3-27-0.5c-7.2-0.1-14.4-0.3-21.6-0.4c-2.2,0-4.3,0-6.5,0
		c0-0.1,0-0.4,0-0.5c41.2,0.2,82.4,0.3,123.7,0.5c-0.4,0.7-0.8,1.3-1.1,1.9C163.4,84.9,168.4,84.5,173.3,85L173.3,85z"></path>
	<path d="M166.3,106.6c-0.6,1.7-1.1,3.5-1.7,5.3c1.6,0,3.1,0,4.6,0c5,0,10,0,15-0.1c0.8,0,1.2,0.1,1,1
		c-0.2,1,0.3,2.4-0.5,2.9c-0.7,0.4-1.9,0-2.9-0.1c-5.9-0.3-11.8-0.5-17.7-0.8c-6.9-0.3-13.8-0.7-20.7-1c-6.3-0.3-12.7-0.6-19-0.9
		c-6.8-0.3-13.7-0.6-20.6-1c-1.6-0.1-3.3-0.2-4.9-0.4c1.3,0,2.7,0,4,0c7.2,0.1,14.5,0.1,21.7,0.3c4.6,0.1,9.3,0.1,13.9,0.3
		c0.8,0,1.3-0.2,1.8-0.9c1.2-1.9,2.5-3.7,3.8-5.8c-34.5-1.6-68.9-3.2-103.3-4.8c0-0.2,0-0.3,0-0.4c34.8,1.1,69.6,2.2,104.4,3.3
		c0,0.8-0.7,1.1-0.8,1.8c4.4,0.2,8.8,0.4,13.1,0.6C160.5,106.2,163.4,106.2,166.3,106.6C166.3,106.6,166.3,106.6,166.3,106.6z"></path>
	<path d="M173.3,85c0.2-0.7,0.4-1.4,0.6-2.1c-4.8-0.3-9.5-0.2-14.5-0.3c2.1-3.1,4.1-6.1,6-9c-0.1-0.3-0.3-0.2-0.5-0.2
		c-5.5-0.1-11-0.1-16.5-0.1c-7.4,0-14.7,0-22.1-0.1c-10-0.1-20.1-0.1-30.1-0.2c-4.9,0-9.8,0-14.6-0.1c-10-0.2-20.1-0.1-30.1-0.2
		c-0.3,0-0.7,0.1-1.1-0.2c0.4-0.3,0.9-0.2,1.3-0.2c5.1,0,10.2,0.1,15.4,0c23.6-0.2,47.3-0.1,70.9-0.1c9.1,0,18.2,0,27.4-0.1
		c0.8,0,1.4,0,0.4,1.3c4,0,7.7,0,11.4,0l0,0c-0.9,2.7-1.7,5.4-2.6,8.1c-0.3,0.9-0.2,1.1,0.8,1.1c5.3-0.1,10.6,0,16,0
		c0.5,0,1.3-0.4,1.4,0.5c0.1,1.1-0.7,2.1-1.6,2.1C185.1,85.1,179.2,85.1,173.3,85L173.3,85z"></path>
	<path d="M180.7,62.4c-0.1-0.4,0.1-0.7,0.2-1.1c-2.3,0-4.6,0-7.1,0c2.1-3.2,4.2-6.2,6.4-9.5
		c-23.9,0.3-47.6,0.6-71.4,0.9c0.2-0.5,0.5-0.4,0.6-0.4c7.6-0.2,15.3-0.3,22.9-0.5c6.8-0.2,13.6-0.3,20.4-0.5
		c5.2-0.1,10.5-0.3,15.7-0.4c3.9-0.1,7.9-0.2,11.9-0.3c0.5,0,0.9-0.2,1.2-0.6c2.1-3.1,4.1-6.1,6.3-9.4c-20.4,0.5-40.5,0.9-60.6,1.3
		c0-0.1,0-0.2,0-0.3c3-0.1,6-0.2,8.9-0.3c7.1-0.3,14.1-0.6,21.2-0.8c4.1-0.2,8.1-0.2,12.2-0.4c6.4-0.2,12.8-0.4,19.1-0.7
		c1.5-0.1,2.8,0.6,4.1,0.9c0,0.1,0,0.2,0,0.2c0,0-0.1,0-0.1,0c-1.3,0.1-2.6,0.1-3.9,0.2c-0.5,0-0.9,0.1-1,0.7
		c-0.9,2.8-1.8,5.6-2.8,8.4c-0.3,0.8,0.1,0.8,0.7,0.8c3-0.1,6-0.2,9-0.2c0.5,0,1.2-0.3,1.2,0.7c0,0.4,0,0.6,0,0.7
		c-3.5,0-7.1,0.1-10.6,0.1c-0.8,0-1,0.3-1.2,1c-0.8,2.5-1.6,5-2.4,7.5c-0.3,0.9-0.2,1.1,0.8,1.1c3.9-0.1,7.8-0.2,11.7-0.2
		c0.3,0,1.1-0.5,1.1,0.4c0,0.7-0.3,1-1.1,1C189.5,62.3,185.1,62.4,180.7,62.4L180.7,62.4z"></path>
	<path d="M180.7,62.4c-1,3-1.9,5.9-2.9,8.9c-0.3,0.9,0,0.9,0.8,0.9c5,0,10,0,15,0c0.5,0,1.2-0.4,1.2,0.7
		c0,0.9-0.7,0.7-1.2,0.7c-5.5,0-10.9-0.1-16.4-0.1l0,0c-0.2-0.4,0.2-0.7,0.1-1.2c-3.5,0-7.1,0-10.9,0c2.2-3.3,4.3-6.4,6.6-9.8
		c-30.2,0.2-60.1,0.3-90.1,0.5c0.2-0.4,0.5-0.3,0.7-0.3c7.9-0.1,15.9-0.2,23.8-0.3c8.8-0.1,17.7-0.3,26.5-0.4
		c6.4-0.1,12.8-0.2,19.2-0.3c6.9-0.1,13.7-0.3,20.6-0.4c0.2,0.5-0.4,0.6-0.3,1.2C175.8,62.4,178.3,62.4,180.7,62.4
		C180.7,62.4,180.7,62.4,180.7,62.4z"></path>
</g>
<text transform="matrix(1 0 0 1 306 396)"><tspan x="0" y="0" style="font-family:'MyriadPro-Regular'; font-size:12px;">ok</tspan><tspan x="12.2" y="0" style="font-family:'MyriadPro-Regular'; font-size:12px; letter-spacing:21;">	</tspan><tspan x="36" y="0" style="font-family:'MyriadPro-Regular'; font-size:12px;">ok</tspan><tspan x="48.2" y="0" style="font-family:'MyriadPro-Regular'; font-size:12px; letter-spacing:21;">	</tspan><tspan x="72" y="0" style="font-family:'MyriadPro-Regular'; font-size:12px;">ok</tspan><tspan x="84.2" y="0" style="font-family:'MyriadPro-Regular'; font-size:12px; letter-spacing:21;">	</tspan><tspan x="108" y="0" style="font-family:'MyriadPro-Regular'; font-size:12px;">ok</tspan><tspan x="120.2" y="0" style="font-family:'MyriadPro-Regular'; font-size:12px; letter-spacing:21;">	</tspan><tspan x="144" y="0" style="font-family:'MyriadPro-Regular'; font-size:12px;">ok</tspan><tspan x="156.2" y="0" style="font-family:'MyriadPro-Regular'; font-size:12px; letter-spacing:21;">	</tspan><tspan x="180" y="0" style="font-family:'MyriadPro-Regular'; font-size:12px;">ok</tspan><tspan x="192.2" y="0" style="font-family:'MyriadPro-Regular'; font-size:12px; letter-spacing:21;">	</tspan><tspan x="216" y="0" style="font-family:'MyriadPro-Regular'; font-size:12px;">ok</tspan><tspan x="228.2" y="0" style="font-family:'MyriadPro-Regular'; font-size:12px; letter-spacing:21;">	</tspan><tspan x="252" y="0" style="font-family:'MyriadPro-Regular'; font-size:12px;">ok</tspan><tspan x="264.2" y="0" style="font-family:'MyriadPro-Regular'; font-size:12px; letter-spacing:21;">	</tspan><tspan x="288" y="0" style="font-family:'MyriadPro-Regular'; font-size:12px;">ok</tspan><tspan x="300.2" y="0" style="font-family:'MyriadPro-Regular'; font-size:12px; letter-spacing:21;">	</tspan><tspan x="324" y="0" style="font-family:'MyriadPro-Regular'; font-size:12px;">ok</tspan><tspan x="336.2" y="0" style="font-family:'MyriadPro-Regular'; font-size:12px; letter-spacing:21;">	</tspan><tspan x="360" y="0" style="font-family:'MyriadPro-Regular'; font-size:12px;">ok</tspan><tspan x="372.2" y="0" style="font-family:'MyriadPro-Regular'; font-size:12px; letter-spacing:21;">	</tspan><tspan x="396" y="0" style="font-family:'MyriadPro-Regular'; font-size:12px;">ok</tspan></text>
</svg>
