<!--?xml version="1.0" encoding="utf-8"?-->
<!-- Generator: Adobe Illustrator 24.2.3, SVG Export Plug-In . SVG Version: 6.00 Build 0)  -->
<svg version="1.1" id="Camada_1" xmlns="http://www.w3.org/2000/svg" xmlns:xlink="http://www.w3.org/1999/xlink" x="0px" y="0px" viewBox="0 0 229 418" style="enable-background:new 0 0 229 418;" xml:space="preserve">
<style type="text/css">
	.st0{fill:#FD0303;}
	.st1{fill:#0101FC;}
	.st2{fill:#207400;}
	.st3{fill:#ACDB77;}
</style>
<g onclick="select(this)" class="" id="gola-primaria" fill="#70a83b">
	<path d="M77.9,8c0.6-0.1,1-0.4,1.4-0.8c0.9-0.9,2-1.7,2.7-2.7c1.8-2.5,4.4-3.4,7.3-3.8c0.6-0.1,1.3,0.1,1.9-0.5
		c1.2,0,2.4,0,3.6,0c0.2,0.5,0.6,0.3,0.9,0.3c5.6,0,11.2,0,16.7,0c0.4,0,0.8-0.1,1.1-0.3c7.5,0,15,0,22.6,0c0.1,0.5,0.5,0.3,0.8,0.4
		c1,0.2,2,0.3,2.9,0.4c2,0.3,3.7,1.1,4.9,2.8c1.3,1.7,2.7,3.3,4.6,4.4c1.3,0.6,1.9,1.5,1.8,3c-0.2,3.7-2.1,6.7-4.3,9.6
		c-0.4,0.5-0.7,0.1-1-0.1c-1.8-1.4-3.5-2.8-5.3-4.1c-0.7-0.5-0.7-0.8-0.1-1.5c1.6-1.8,2.9-3.7,3.8-6.1c-2.6,0.2-5,0.4-7.4,0.6
		c-10.8,0.7-21.5,1.8-32.3,1c-6.7-0.5-13.4-1.1-20.1-1.7c-0.4,0-0.9-0.2-1.2,0c-0.3,0.4,0.1,0.8,0.2,1.2c0.8,2,2.1,3.6,3.5,5.1
		c0.4,0.4,0.8,0.8,0.1,1.3c-1.8,1.4-3.6,2.8-5.3,4.3c-0.5,0.4-0.8,0.3-1.2-0.1c-1.9-2.4-3.4-4.9-4.2-7.9C75.8,10.6,76.3,9.1,77.9,8z
		"></path>
</g>
<g onclick="select(this)" class="" id="detalhe-punho" fill="#ffffff">
	<path d="M227.8,108.4c0.6,0.8,0.4,1.7,0.7,2.6c0.1,0.4,0.1,0.9,0.4,1.3c0,1.3,0,2.6,0,3.8c-2.6,1.5-5.5,2-8.4,2.9
		c-9.3,2.7-18.8,3.3-28.3,2.8c-2.1-0.1-4.1-0.3-6.2-0.9c-0.5-0.2-1-0.4-1.5-0.7c-0.3-2.5,0.4-4.9,0.5-7.4c3.8,0.7,7.6,1,11.4,1
		c2.5,0,5,0.2,7.4-0.2c3.1-0.5,6.1-1,9.2-1.6C218.1,111.2,223,109.8,227.8,108.4z"></path>
	<path d="M0.2,114.7c0.5-1.2,0.4-2.5,0.7-3.7c0.1-0.4,0-0.9,0.4-1.2c0.3,0.1,0.6,0.3,0.9,0.4c6.3,2.3,12.8,3.4,19.4,4.1
		c3.4,0.3,6.9,0,10.3,0c1.8,0,3.5-0.1,5.3-0.3c1.4-0.2,3,0.1,4.3-0.8c0.4-0.3,0.6,0.1,0.8,0.4c0.4,0.8,0.2,1.7,0.6,2.4
		c0,1.5,0.6,3,0.3,4.5c-2.7,1.3-5.6,1.7-8.5,1.8c-9.4,0.4-18.7,0.1-27.8-2.1c-2.3-0.6-4.5-1.1-6.7-2.2
		C0.2,116.9,0.2,115.8,0.2,114.7z"></path>
</g>
<g onclick="select(this)" class="" id="estampa-primaria" fill="#ffffff">
	<path d="M42.9,115.9c-0.4-0.8-0.2-1.7-0.6-2.4c-0.2-0.3-0.4-0.7-0.8-0.4c-1.3,0.9-2.9,0.6-4.3,0.8c-1.7,0.2-3.5,0.3-5.3,0.3
		c-3.4,0.1-6.9,0.4-10.3,0c-6.6-0.7-13.1-1.7-19.4-4.1c-0.3-0.1-0.6-0.3-0.9-0.4c1.8-9.5,2.7-19.1,4.3-28.7
		C6.5,76,6.8,70.8,7.9,65.7c1.7-8.1,4.5-15.7,9.4-22.5c2.1-2.9,4.6-5.5,7.4-7.8c1.3-1.1,2.3-2.5,3.8-3.3c3.6-1.9,7.3-3.7,11-5.3
		c10-4.1,20.1-8.2,29.6-13.5c1.9-1.1,3.9-2.1,5.4-3.8c0.8-1,2-1.6,3.4-1.6c-1.7,1.2-2.1,2.6-1.5,4.9c0.8,2.9,2.3,5.5,4.2,7.9
		c0.4,0.5,0.7,0.6,1.2,0.1c1.8-1.4,3.5-2.9,5.3-4.3c0.7-0.6,0.3-0.9-0.1-1.3c-1.4-1.5-2.7-3.2-3.5-5.1C83.4,9.8,83,9.3,83.4,9
		c0.3-0.3,0.8-0.1,1.2,0c6.7,0.6,13.4,1.2,20.1,1.7c10.8,0.8,21.6-0.2,32.3-1c2.4-0.2,4.8-0.4,7.4-0.6c-0.9,2.4-2.2,4.3-3.8,6.1
		c-0.5,0.6-0.6,0.9,0.1,1.5c1.8,1.3,3.6,2.7,5.3,4.1c0.3,0.2,0.6,0.6,1,0.1c2.2-2.8,4-5.8,4.3-9.6c0.1-1.5-0.5-2.4-1.8-3
		c1.8-0.1,3,1,4,2.2c0.3,0.4,0.7,0.7,1.1,1c10,6.5,21.2,10.6,32.2,15.2c4,1.7,7.8,3.6,11.7,5.3c1.6,0.7,2.7,2.3,4.2,3.3
		c3.1,2.3,5.8,5.1,8.2,8.2c4.8,6.4,7.6,13.7,9.3,21.5c0.6,2.9,1.2,5.8,1.5,8.7c0.6,5.8,2.3,11.3,3.4,17c1.1,5.9,1.9,11.8,2.9,17.7
		c-4.9,1.4-9.7,2.8-14.7,3.7c-3.1,0.5-6.1,1-9.2,1.6c-2.4,0.4-4.9,0.2-7.4,0.2c-3.8,0-7.6-0.2-11.4-1c0.4-4.4,1.3-8.8,2.2-13.1
		c0.5-2.6,1.2-5.1,1.8-7.7c-0.4,0.4-0.6,0.8-0.8,1.2c-1.8,4.1-3,8.4-4.2,12.8c-2.4,8.9-3.8,18-4.8,27.2c-0.6,5.2-0.9,10.4-1.2,15.7
		c-0.3,4.9-0.5,9.9-0.5,14.8c0,16.9-0.3,33.9,0.2,50.8c0.2,7.3,0.3,14.6,0.5,21.9c0.2,4.9,0.3,9.7,0.5,14.6c0.2,6,0.5,12,0.7,17.9
		c0.2,5,0.4,10,0.8,15.1c-7.7,1.1-15.4,1.4-23.1,1.5c-12.9,0.2-25.9,0.6-38.8,0.9c-6.8,0.2-13.5-0.5-20.2-0.6
		c-8.7-0.1-17.4-0.2-26.1-0.4c-8.3-0.2-16.6-0.4-24.8-1.8c0.5-3.8,0.5-7.6,0.7-11.3c0.4-5.6,0.6-11.2,0.8-16.9
		c0.1-4.4,0.3-8.9,0.5-13.3c0.3-6.3,0.4-12.5,0.5-18.8c0.1-4,0.2-8,0.2-12c0.1-14.3,0.1-28.5,0.1-42.8c0-2.2,0-4.5-0.1-6.7
		c-0.3-6.3-0.3-12.7-0.9-19c-0.2-2.5-0.3-4.9-0.5-7.4c-0.6-4.9-1.1-9.9-2-14.7c-1.1-6-2.2-12-3.9-17.8c-0.7-2.2-1.2-4.4-2.2-6.6
		c-0.6,0.9,0.2,1.4,0.2,2.1c0.4,3.4,1.1,6.7,1.4,10.1C42.3,111,43.1,113.4,42.9,115.9z"></path>
</g>
<g onclick="select(this)" class="" id="detalhe-lateral" fill="#ffffff">
	<path d="M180.3,284c-0.4-5-0.6-10-0.8-15.1c-0.3-6-0.5-11.9-0.7-17.9c-0.2-4.9-0.3-9.7-0.5-14.6
		c-0.3-7.3-0.3-14.6-0.5-21.9c-0.4-16.9-0.2-33.9-0.2-50.8c0-4.9,0.2-9.9,0.5-14.8c0.3-5.2,0.7-10.5,1.2-15.7
		c1-9.2,2.5-18.3,4.8-27.2c1.1-4.3,2.4-8.6,4.2-12.8c0.2-0.4,0.4-0.8,0.8-1.2c-0.6,2.6-1.3,5.1-1.8,7.7c-0.9,4.3-1.8,8.7-2.2,13.1
		c-0.1,2.5-0.7,4.9-0.5,7.4c-1.3,10.3-2.3,20.7-2,31.2c0.1,2.4,0.8,4.8,0.4,7.3c-0.3,2.3-0.4,4.7-0.4,7c0.1,6.6,0.1,13.2-0.1,19.7
		c-0.1,4.5,0.7,8.7,1.4,13c0.9,5.1,1,10.2,0.2,15.4c-0.3,2.3-0.5,4.7-0.8,7c0,0.4,0.1,0.8,0.2,1.2c2,5.7,2.5,11.6,1.6,17.6
		c-0.3,2.1-0.3,4.2,0.1,6.3c0.4,2,0.5,4,0.5,6c-0.1,7.4,0.7,14.7,1.4,22c0.2,2.3,0.3,4.6,0.3,6.9c0,1.1-0.5,1.8-1.5,2.2
		C184.2,283.5,182.3,284,180.3,284z"></path>
	<path d="M42.9,115.9c0.2-2.5-0.6-4.9-0.9-7.4c-0.4-3.4-1-6.7-1.4-10.1c-0.1-0.7-0.8-1.2-0.2-2.1
		c0.9,2.2,1.5,4.4,2.2,6.6c1.8,5.8,2.9,11.8,3.9,17.8c0.9,4.9,1.4,9.8,2,14.7c0.3,2.4,0.3,4.9,0.5,7.4c0.6,6.3,0.6,12.6,0.9,19
		c0.1,2.2,0.1,4.5,0.1,6.7c0,14.3,0,28.5-0.1,42.8c0,4-0.1,8-0.2,12c-0.1,6.3-0.3,12.5-0.5,18.8c-0.2,4.4-0.3,8.8-0.5,13.3
		c-0.2,5.6-0.4,11.2-0.8,16.9c-0.3,3.8-0.2,7.6-0.7,11.3c-1.7-0.1-3.4-0.5-5-1.1c-1.6-0.6-2-1.1-2-2.8c0-2.8,0.2-5.6,0.4-8.3
		c0.4-5.3,0.7-10.6,1.2-15.9c0.4-4.8-0.1-9.6,0.9-14.3c0.2-0.9,0.1-1.8,0-2.7c-0.5-3.1-0.3-6.2,0.3-9.3c0.2-0.9,0.1-1.7,0.1-2.6
		c-0.3-4.1-0.9-8.3-0.9-12.4c0-4.8,1.1-9.4,2.7-13.9c0.3-1,0.6-1.9,0.4-2.9c-0.2-1.5-0.1-3,0.1-4.5c0.1-0.6,0.2-1.3,0.2-1.9
		c-0.4-4.8-0.1-9.7-0.4-14.5c-0.1-1.1,0.1-2.2,0.2-3.3c0.1-1.9,0.1-3.7,0-5.6c-0.4-6.8-0.1-13.6,0-20.4c0.1-7.3-0.6-14.6-1.6-21.9
		c-0.2-1.5-0.4-3.1-0.6-4.6C43.5,118.9,43,117.4,42.9,115.9z"></path>
</g>
<g onclick="select(this)" class="" id="estampa-terciaria" fill="#000000">
	<path d="M192,85.6c0.1-0.8,0.3-1.5,0.5-2.2c2-4.8,2.2-9.9,2.3-15c0-2.6,0-5.2,0.3-7.8c0.1-0.5-0.2-0.8-0.3-1.1
		c0.6-1.9,0-3.9,0.5-5.8c0.6,1.3,0.7,2.7,1.3,4c0.4-2.8,0.8-5.6,1.1-8.4c0.1,0,0.1,0,0.2,0c0.3,1.6,0.6,3.2,1,4.8
		c2-7.8,2.6-17,1.3-19.1c-0.1,1.5-0.3,3-0.4,4.4c-0.1,0-0.1,0-0.2,0c-0.4-1.5-0.7-3-1.1-4.5c0.3-0.9,0.2-1.9,0.3-2.8
		c0.9,0.5,1.5,1.2,2.1,1.9c0.7,3.1,1.4,6.2,2.1,9.3c0.1,0,0.1,0,0.2,0c0.3-1.6,0.5-3.2,0.8-4.8c0.1,0,0.1,0,0.2,0
		c0.5,2.8,0.9,5.6,1.4,8.4c0.1,0,0.1,0,0.2,0c0.3-1.6,0.5-3.1,0.8-4.7c0.1,0,0.1,0,0.2,0c0.5,2.8,0.9,5.6,1.4,8.4c0.1,0,0.1,0,0.2,0
		c0.3-1.6,0.5-3.2,0.8-4.8c0.1,0,0.1,0,0.2,0c0.5,2.8,0.9,5.5,1.4,8.3c0.1,0,0.2,0,0.2,0c0.3-1.5,0.5-3.1,0.8-4.6c0.1,0,0.1,0,0.2,0
		c0.5,2.8,0.9,5.5,1.4,8.3c0.1,0,0.1,0,0.2,0c0.3-1.5,0.5-3,0.7-4.4c0.1,0,0.2,0,0.3,0c0.5,2.7,0.9,5.5,1.4,8.2c0.1,0,0.1,0,0.2,0
		c0.3-1.5,0.5-3.1,0.8-4.8c0.4,0.4,0.3,0.7,0.4,1c0.4,2.3,0.7,4.5,1.1,6.8c0.1,0.3-0.1,0.8,0.4,0.8c0.6,0,0.3-0.5,0.4-0.8
		c0.2-0.4-0.2-1,0.4-1.2c1.7,6.4,1.8,13.2,3.5,19.6c-0.1,0.8,0.1,1.6-0.4,2.5c-0.3-1.5-0.6-2.9-0.9-4.3c-0.1,0-0.1,0-0.2,0
		c-0.4,2.5-0.8,5.1-1.1,7.6c-0.1,0-0.1,0-0.2,0c-0.4-3-0.7-6.1-1.1-9.1c-0.1,0-0.2,0-0.3,0c-0.3,3-0.5,6-0.7,9c-0.1,0-0.2,0-0.3,0
		c-0.4-2.5-0.9-5-1.4-7.5c-0.1,0-0.1,0-0.2,0c-0.3,1.4-0.5,2.8-0.8,4.2c-0.1,0-0.1,0-0.2,0c-0.5-2.6-0.9-5.3-1.4-7.9
		c-0.1,0-0.1,0-0.2,0c-0.3,1.4-0.5,2.8-0.8,4.2c-0.1,0-0.1,0-0.2,0c-0.5-2.6-1-5.3-1.4-7.9c-0.1,0-0.1,0-0.2,0
		c-0.3,1.4-0.5,2.8-0.8,4.2c-0.1,0-0.1,0-0.2,0c-0.5-2.6-0.9-5.3-1.4-7.9c-0.5,1.2-0.4,2.4-1.3,3.7c-0.5-2.6-0.9-5-1.3-7.3
		c-0.1,0-0.1,0-0.2,0c-0.3,1.4-0.5,2.8-0.8,4.2c-0.1,0-0.1,0-0.2,0c-0.5-2.6-0.9-5.2-1.4-7.7c-0.1,0-0.2,0-0.2,0
		c-0.3,1.4-0.5,2.7-0.8,4.1c-0.1,0-0.1,0-0.2,0c-0.2-1.4-0.4-2.9-0.6-4.3c-0.1,0-0.2,0-0.3,0c-0.9,6.4,0.3,12.6,2.3,18.8
		c0.3-1.6,0.5-3.1,0.8-4.7c0.1,0,0.1,0,0.2,0c0.5,2.8,0.9,5.6,1.4,8.4c0.1,0,0.1,0,0.2,0c0.3-1.5,0.5-3.1,0.7-4.6c0.1,0,0.2,0,0.2,0
		c0.5,2.7,0.9,5.5,1.4,8.2c0.1,0,0.1,0,0.2,0c0.2-1.4,0.5-2.8,0.7-4.1c1.1,2.5,1.1,5.2,1.9,7.8c0.3-1.6,0.5-3.1,0.8-4.7
		c0.1,0,0.1,0,0.2,0c0.5,2.8,0.9,5.6,1.4,8.4c0.1,0,0.1,0,0.2,0c0.3-1.6,0.5-3.2,0.8-4.8c0.1,0,0.1,0,0.2,0c0.5,2.8,0.9,5.7,1.4,8.5
		c0.1,0,0.1,0,0.2,0c0.3-1.6,0.5-3.2,0.8-4.7c0.1,0,0.1,0,0.2,0c0.5,3.2,1.1,6.3,1.6,9.5c0.1,0,0.1,0,0.2,0c0.4-2.9,0.8-5.9,1.2-8.8
		c0.9,1.2,0.8,2.6,1.4,4.2c0.4-3.1,0.8-5.9,1.2-8.7c0.1,0,0.1,0,0.2,0c0.3,1.5,0.6,3.1,0.9,4.6c0.5-1,0.2-2.1,0.8-3.1
		c1,4.8,1.5,9.6,2.4,14.4c0.1,0.4,0.2,0.9-0.3,1.2c-0.6,0.2-1.3,0.4-1.9,0.6c-4.9,1.9-10.1,3-15.3,3.6c-0.3-1.5-0.6-3-0.8-4.4
		c-0.1,0-0.1,0-0.2,0c-0.3,1.4-0.5,2.8-0.8,4.2c-0.1,0-0.1,0-0.2,0c-0.5-2.6-0.9-5.3-1.4-7.9c-0.1,0-0.1,0-0.2,0
		c-0.3,1.4-0.5,2.8-0.8,4.2c-0.1,0-0.1,0-0.2,0c-0.5-2.6-0.9-5.2-1.4-7.8c-0.1,0-0.2,0-0.2,0c-0.3,1.4-0.5,2.7-0.8,4.1
		c-0.1,0-0.1,0-0.2,0c-0.2-1.4-0.4-2.9-0.6-4.4c-0.4,0.4-0.5,0.9-0.5,1.3c0.1,3.3-0.3,6.7,0.5,10c0.1,0.6,0.5,1.2,0.2,1.9
		c-0.4,0.1-0.8-0.2-1.1-0.4c-0.5,1-1.4,0.2-2.1,0.4c-1.8,0.4-3.6,0.1-5.4,0.1c-3,0-6-0.2-8.9-0.8c0.2-2,0.4-3.9,0.5-5.9
		c0-0.3,0.2-0.4,0.4-0.6c0.3,1.5,0.7,3,1,4.5c0.1,0,0.1,0,0.2,0c0.4-2.7,0.7-5.5,1.1-8.2c0.1,0,0.2,0,0.2,0c0.3,1.5,0.6,3.1,0.9,4.6
		c0.1,0,0.1,0,0.2,0c0.4-2.8,0.8-5.7,1.2-8.5c0.1,0,0.1,0,0.2,0c0.3,1.5,0.6,3.1,0.9,4.6c0.1,0,0.1,0,0.2,0c0.4-2.8,0.8-5.6,1.2-8.4
		c0.1,0,0.1,0,0.2,0c0.3,1.6,0.6,3.1,0.9,4.7c0.1,0,0.1,0,0.2,0c0.4-2.7,0.7-5.5,1.1-8.2c0.1,0,0.2,0,0.2,0c0.3,1.5,0.6,3.1,0.9,4.6
		c0.1,0,0.1,0,0.2,0c0.4-2.8,0.7-5.6,1.1-8.4c0.1,0,0.1,0,0.2,0c0.3,1.6,0.6,3.1,0.9,4.7c1.7-6.3,2.8-12.5,1.3-19
		c-0.1,1.4-0.3,2.9-0.4,4.3c-0.1,0-0.1,0-0.2,0c-0.3-1.3-0.6-2.7-0.9-4c-0.1,0-0.2,0-0.3,0c-0.4,2.6-0.8,5.2-1.1,7.8
		c-0.1,0-0.1,0-0.2,0c-0.3-1.4-0.6-2.8-0.9-4.1c-0.1,0-0.1,0-0.2,0.1c-0.4,2.6-0.8,5.2-1.1,7.8c-0.1,0-0.1,0-0.2,0
		c-0.3-1.4-0.6-2.8-1-4.1c-0.1,0-0.1,0-0.2,0c-0.4,2.6-0.8,5.3-1.2,7.9c-0.1,0-0.1,0-0.2,0C192.6,87.9,192.3,86.8,192,85.6z"></path>
	<path d="M28.8,32.3c-0.7,1.5,0.3,2.8,0.6,4.2c0.3,1.8,0.9,3.5,1.1,5.2c-0.7,1.4-0.6,3-1.1,4.6c-0.5-2.8-1-5.5-1.5-8.1
		c-0.1,0-0.1,0-0.2,0c-0.3,1.4-0.5,2.8-0.8,4.1c-0.1,0-0.1,0-0.2,0c-0.2-1.4-0.4-2.8-0.6-4.3c-1.3,6.5,0.1,12.8,1.9,19.2
		c0.3-1.8,0.6-3.4,0.9-5c0.1,0,0.1,0,0.2,0c0.5,2.8,1,5.6,1.4,8.4c0,0,0.1,0,0.2,0c0.3-1.6,0.5-3.2,0.8-4.8c0.1,0,0.1,0,0.2,0
		c0.3,1.7,0.5,3.4,0.8,5.1c-0.2,1.2,0.5,2.2,0.5,3.4c0,0.2,0,0.4,0,0.6c0,0.3,0,0.6,0,0.8c-0.2,3.7-0.4,7.5,0.4,11.2
		c0.2,0.9,0.5,1.8,0.9,2.7c1.7,3.3,2.7,6.9,4.1,10.3c0.2,0.5,0.2,1,0.3,1.5c-0.3,1.3-0.5,2.6-0.8,3.9c-0.1,0-0.1,0-0.2,0
		c-0.5-2.6-0.9-5.3-1.4-7.9c-0.1,0-0.1,0-0.2,0c-0.3,1.4-0.5,2.7-0.8,4.1c-0.6-2.1-1-4.3-1.4-6.4c0-0.2,0.1-0.7-0.4-0.6
		c-0.4,0-0.3,0.4-0.3,0.7c-0.2,0.9-0.4,1.8-0.5,2.7c-0.1,0-0.1,0-0.2,0c-0.5-2.6-0.9-5.2-1.4-7.7c-0.1,0-0.1,0-0.2,0
		c-0.3,1.4-0.6,2.8-0.8,4.2c-0.1,0-0.1,0-0.2,0c-0.5-2.6-0.9-5.2-1.4-7.9c-0.1,0-0.1,0-0.2,0c-0.3,1.4-0.5,2.8-0.8,4.2
		c-0.1,0-0.1,0-0.2,0c-0.2-1.4-0.4-2.9-0.6-4.6c-1.3,3.4,0.2,17,2,19.2c0.3-1.6,0.5-3.2,0.8-4.8c0,0,0.1,0,0.2,0
		c0.5,2.8,1,5.6,1.4,8.4c0.1,0,0.1,0,0.2,0c0.3-1.5,0.5-3.1,0.8-4.6c0.1,0,0.1,0,0.2,0c0.5,2.8,0.9,5.5,1.4,8.3c0.1,0,0.2,0,0.2-0.1
		c0.2-1.5,0.5-2.9,0.7-4.4c0.1,0,0.2,0,0.3,0c0.5,2.7,0.9,5.4,1.4,8.2c0.1,0,0.1,0,0.2,0c0.3-1.6,0.5-3.1,0.8-4.7c0.1,0,0.1,0,0.2,0
		c0.5,2.8,0.9,5.6,1.4,8.3c0.1,0,0.2,0,0.2,0c0.3-1.6,0.5-3.1,0.8-4.7c0.1,0,0.1,0,0.2,0c0.5,2.7,0.9,5.4,1.4,8.1
		c-1.2,0.8-2.5,0.9-3.9,1.1c-3.7,0.6-7.4,0.5-11.2,0.3c0.4-3.6,0.3-7.2-0.1-10.8c-0.1,0-0.2,0-0.4,0c-0.1,1.4-0.3,2.9-0.5,4.3
		c-0.1,0-0.1,0-0.2,0c-0.3-1.4-0.6-2.8-0.9-4.2c-0.1,0-0.1,0-0.2,0c-0.4,2.6-0.8,5.3-1.2,7.9c-0.1,0-0.1,0-0.2,0
		c-0.3-1.4-0.6-2.7-0.9-4.1c-0.1,0-0.2,0-0.2,0c-0.3,2.2-0.6,4.4-0.9,6.6c-1.1-0.6-2.3,0-3.5-0.1c-5.5-0.6-10.8-1.8-15.8-4.2
		c-0.1-1.8,0.6-3.5,0.8-5.3c0.3-2.1,0.6-4.2,0.9-6.3c0.5,0.2,0.3,0.9,0.7,1.3c0.3-1.7,0.5-3.2,0.8-4.8c0.1,0,0.1,0,0.2,0
		c0.5,2.8,0.9,5.6,1.4,8.4c0.1,0,0.1,0,0.2,0c0.3-1.6,0.5-3.1,0.8-4.7c0.1,0,0.1,0,0.2,0c0.5,3.2,1.1,6.4,1.6,9.6c0.1,0,0.1,0,0.2,0
		c0.4-3.2,0.8-6.4,1.3-9.5c0.1,0,0.2,0,0.2,0c0.3,1.5,0.6,3,0.9,4.5c0.1,0,0.1,0,0.2,0c0.4-2.8,0.8-5.6,1.1-8.4c0.1,0,0.1,0,0.2,0
		c0.3,1.5,0.6,3.1,0.9,4.6c0.1,0,0.1,0,0.2-0.1c0.4-2.8,0.7-5.6,1.1-8.4c0.1,0,0.1,0,0.2,0c0.3,1.6,0.6,3.2,1,4.7c0.1,0,0.1,0,0.2,0
		c0.4-2.8,0.8-5.6,1.1-8.4c0.1,0,0.1,0,0.2,0c0.3,1.6,0.6,3.1,0.9,4.7c0.1,0,0.1,0,0.2,0c0.4-2.8,0.8-5.6,1.2-8.4c0.1,0,0.1,0,0.2,0
		c0.3,1.6,0.6,3.1,0.9,4.6c0.1,0,0.1,0,0.2-0.1c0.4-2.8,0.7-5.6,1.1-8.3c0.1,0,0.1,0,0.2,0c0.3,1.6,0.7,3.2,1,4.8
		c0.4-0.8,0.5-1.6,0.7-2.4c0.5-2.4,1.2-4.8,1.4-7.2c0.2-2.6,0-5.2-0.1-7.8c0-0.6-0.1-1.2-0.6-1.8c-0.1,1.6-0.3,3-0.4,4.4
		c-0.1,0-0.1,0-0.2,0c-0.3-1.4-0.6-2.7-0.9-4.1c-0.1,0-0.1,0-0.2,0c-0.4,2.6-0.8,5.2-1.1,7.8c-0.1,0-0.2,0-0.2,0
		c-0.3-1.3-0.6-2.7-0.9-4.1c-0.1,0-0.1,0-0.2,0c-0.4,2.7-0.8,5.3-1.2,8c-0.1,0-0.1,0-0.2,0c-0.3-1.3-0.6-2.7-0.9-4
		c-0.1,0-0.2,0-0.2,0c-0.4,2.6-0.7,5.1-1.1,7.7c-0.4-0.8-0.6-1.7-0.8-2.5c0-0.2-0.1-0.5-0.4-0.5C16,78,16,78.3,16,78.5
		c-0.1,0.2-0.1,0.5-0.1,0.7c-0.3,1.8-0.5,3.6-0.8,5.4c-0.1,0-0.2,0-0.2,0c-0.3-1.3-0.6-2.7-0.9-4c-0.1,0-0.1,0-0.2,0
		c-0.4,2.6-0.8,5.2-1.2,7.8c-0.1,0-0.1,0-0.2,0c-0.3-1.3-0.6-2.6-0.9-4c-0.1,0-0.2,0-0.3,0c-0.4,2.6-0.7,5.1-1.1,7.7
		c-0.1,0-0.1,0-0.2,0c-0.4-3.1-0.7-6.2-1.1-9.4c-0.1,0-0.2,0-0.2,0c-0.3,3.1-0.5,6.2-0.8,9.3c-0.1,0-0.2,0-0.2,0
		c-0.4-2.5-0.9-5.1-1.3-7.6c-0.1,0-0.2,0-0.2,0c-0.3,1.4-0.5,2.8-0.8,4.3c-0.5-0.7-0.3-1.3-0.4-1.9C6,80.2,6.3,73.4,7.7,66.7
		C8.3,67.6,8,68.9,8.6,70c0.4-3.4,0.9-6.7,1.3-9.9c0.1,0,0.1,0,0.2,0c0.3,1.6,0.6,3.2,0.9,4.8c0.1,0,0.1,0,0.2,0
		c0.4-2.8,0.7-5.5,1.1-8.3c0.1,0,0.1,0,0.2,0c0.3,1.5,0.6,3,0.9,4.5c0.1,0,0.1,0,0.2,0c0.4-2.8,0.7-5.5,1.1-8.3c0.1,0,0.1,0,0.2,0
		c0.3,1.5,0.6,3,0.9,4.5c0.1,0,0.2,0,0.2,0c0.4-2.8,0.8-5.6,1.1-8.3c0.1,0,0.1,0,0.2,0c0.3,1.6,0.6,3.1,0.9,4.7c0.1,0,0.1,0,0.2,0
		c0.4-2.8,0.8-5.6,1.1-8.5c0.1,0,0.1,0,0.2,0c0.3,1.6,0.6,3.1,0.9,4.7c0.1,0,0.1,0,0.2,0c0.4-2.8,0.8-5.6,1.1-8.4c0.1,0,0.1,0,0.2,0
		c0.3,1.6,0.6,3.2,0.9,4.8c0.5-1.4,0.8-2.7,1-4.1c0.4-2.4,1.3-4.6,1-7.1c1.1-1,1.8-2.4,3.4-2.8L28.8,32.3L28.8,32.3z"></path>
</g>
<g onclick="select(this)" class="" id="estampa-secundaria" fill="#70a83b">
	<path d="M163.7,16.8c0.6,0.2,1.1,0.4,1.6,0.8c-0.3,0.4-0.5,0.8,0.3,0.7c0.2,0,0.4,0,0.6,0.1c2.8,1.7,5.8,3.1,8.8,4.3
		c1.3,0.5,2.2,1.3,2.2,2.8c0,0,0.1,0,0.2,0c0.4-0.4-0.2-1.4,0.7-1.4c0.9,0,1,1,1.1,1.6c0.2,1.2,0.3,2.4,0.6,3.6
		c0.5-1.4,0.4-2.8,1.2-4c0.4,2.5,0.8,5.1,1.2,7.6c0.5-1.5,0.7-3,1.3-4.7c0.5,3,0.9,5.8,1.3,8.6c0.1,0,0.1,0,0.2,0
		c0.3-1.6,0.6-3.2,0.9-5c0.1,0.5,0.3,0.7,0.3,0.9c0.3,1.7,0.5,3.3,0.7,5c0.1,0.4,0,0.9,0.5,0.9c0.5,0,0.5-0.6,0.6-0.9
		c0.1-0.6,0.2-1.2,0.5-1.8c0.2,1.1,0.5,2.1,0.6,3.1c0.1,0.9,1,0.5,1.5,0.8c0.4,0.2,0.5-0.6,0.6-1c0.2-0.9,0.1-1.9,0.6-3
		c0.3,1.6,0.6,3,0.8,4.4c0.1,0,0.2,0,0.3,0c0.4-2.7,0.8-5.3,1.2-8c0.1,0,0.1,0,0.2,0c0.3,1.5,0.6,3,0.8,4.5c0.4-1.2,0.6-2.5,0.8-3.7
		c0.1-0.3,0-0.8,0.4-0.9c0.5-0.1,0.9,0.1,1.2,0.5c0.4,0.4,0.8,0.8,0.5,1.5c-0.3,0.7-0.3,1.6-0.3,2.5c0,0.3-0.2,0.8,0.4,1
		c-0.5,1.9-0.9,3.7-1.4,5.6c-0.8-0.2-1.6-0.4-2.4-0.6c-0.3-0.1-0.6-0.3-0.8,0c-0.3,0.3,0.1,0.5,0.2,0.7c0.5,0.9,1,1.7,1.5,2.5
		c0.2,0.3,0.3,0.6,0.3,1c-0.2,1-0.3,2-0.5,3.2c-0.6-1.5-0.6-3.1-1.2-4.7c-0.5,2.9-0.9,5.5-1.4,8.1c-0.1,0-0.1,0-0.2,0
		c-0.3-1.3-0.6-2.7-0.9-4c-0.1,0-0.1,0-0.2,0c-0.4,2.6-0.9,5.2-1.3,7.7c-0.6-1.3-0.6-2.7-1.2-4.2c-0.5,2.9-0.9,5.5-1.3,8
		c-0.1,0-0.1,0-0.2,0c-0.3-1.4-0.6-2.7-0.9-4.1c-0.1,0-0.1,0-0.2,0c-0.4,2.6-0.8,5.1-1.3,7.7c-0.1,0-0.1,0-0.2,0
		c-0.3-3-0.6-6.1-0.9-9.1c-0.1,0-0.1,0-0.2,0c-0.3,3.1-0.6,6.2-1,9.2c-0.1,0-0.1,0-0.1,0c-0.4-2.6-0.9-5.2-1.3-7.8
		c-0.1,0-0.1,0-0.2,0c-0.3,1.4-0.6,2.7-0.9,4.1c-0.1,0-0.1,0-0.2,0c-0.4-2.6-0.8-5.2-1.3-7.8c-0.1,0-0.1,0-0.2,0
		c-0.3,1.4-0.6,2.7-0.9,4.1c-0.1,0-0.1,0-0.1,0c-0.4-2.6-0.9-5.2-1.3-7.8c-0.1,0-0.1,0-0.2,0c-0.3,1.3-0.6,2.6-0.8,3.9
		c-0.1,0-0.2,0-0.2,0c-0.4-2.6-0.8-5.2-1.3-7.7c-0.1,0-0.1,0-0.2,0c-0.3,1.4-0.6,2.8-0.9,4.2c-0.1,0-0.1,0-0.2,0
		c-0.4-2.7-0.9-5.3-1.3-8c-0.1,0-0.1,0-0.2,0c-0.3,1.4-0.6,2.8-0.9,4.2c-0.1,0-0.1,0-0.2,0c-0.4-2.6-0.9-5.2-1.3-7.8
		c-0.1,0-0.1,0-0.2,0c-0.3,1.4-0.6,2.8-0.9,4.2c-0.1,0-0.1,0-0.1,0c-0.2-1.5-0.4-2.9-0.6-4.4c-1.4,6.5-0.1,12.8,1.6,19.2
		c0.3-1.9,0.6-3.5,0.9-5.1c0.1,0,0.1,0,0.2,0c0.4,2.8,0.9,5.6,1.3,8.5c0.1,0,0.1,0,0.2,0c0.3-1.6,0.6-3.2,0.9-4.8c0.1,0,0.1,0,0.2,0
		c0.4,2.8,0.9,5.6,1.3,8.5c0.1,0,0.1,0,0.2,0c0.3-1.6,0.6-3.1,0.9-4.7c0.1,0,0.1,0,0.2,0c0.4,2.8,0.8,5.6,1.3,8.3c0.1,0,0.1,0,0.2,0
		c0.3-1.5,0.6-3.1,0.9-4.6c0.1,0,0.1,0,0.2,0c0.4,2.7,0.9,5.4,1.3,8.2c0.1,0,0.1,0,0.2,0c0.3-1.5,0.6-2.9,0.9-4.4c0.1,0,0.1,0,0.2,0
		c0.4,2.7,0.8,5.5,1.3,8.2c0.1,0,0.1,0,0.2,0c0.3-1.5,0.6-3.1,0.9-4.6c0.1,0,0.1,0,0.2,0c0.5,3.1,1,6.3,1.4,9.4c0.1,0,0.1,0,0.2,0
		c0.5-3.1,0.9-6.3,1.4-9.4c0.1,0,0.1,0,0.2,0c0.3,1.5,0.6,3,0.9,4.5c0.1,0,0.1,0,0.2,0c0.4-2.8,0.8-5.5,1.3-8.3c0.1,0,0.1,0,0.2,0
		c0.3,1.5,0.6,3.1,0.9,4.6c0.1,0,0.1,0,0.2,0c0.4-2.7,0.8-5.5,1.3-8.2c0.1,0,0.1,0,0.2,0c0.3,1.5,0.6,3,0.9,4.5c0.1,0,0.1,0,0.2,0
		c0.4-2.7,0.8-5.5,1.3-8.2c0.1,0,0.1,0,0.2,0c0.3,1.5,0.6,3.1,0.9,4.7c0.5-1.5,0.5-3,1-4.4c0.1,0.4,0.3,0.7,0.3,1.1
		c-0.3,2.6-0.2,5.2-0.3,7.8c-0.1,5.1-0.3,10.2-2.3,15c-0.3,0.7-0.5,1.4-0.5,2.2c-0.3,0.4-0.4,0.9-0.7,1.3c-0.9,1.3-0.5,3.2-1.9,4.2
		c-0.6,0-0.7,0.5-0.8,0.9c-0.3,1-0.7,2-1,3.1c-0.3,1.1-1.2,1.8-1.6,2.8c-0.6,1.5-0.6,3.2-1.1,4.7c-0.6-0.3-0.4-0.8-0.4-1.3
		c-0.3-2.7-0.5-5.3-0.8-8c-0.1,0-0.1,0-0.2,0c-0.3,3.1-0.6,6.1-1,9.2c-0.1,0-0.1,0-0.2,0c-0.4-2.6-0.8-5.2-1.3-7.7
		c-0.1,0-0.1,0-0.2,0c-0.3,1.4-0.6,2.8-0.9,4.2c-0.1,0-0.1,0-0.2,0c-0.4-2.6-0.9-5.3-1.3-7.9c-0.1,0-0.1,0-0.2,0
		c-0.3,1.4-0.6,2.7-0.9,4.1c-0.1,0-0.1,0-0.1,0c-0.4-2.6-0.9-5.1-1.3-7.7c-0.1,0-0.1,0-0.2,0c-0.3,1.3-0.6,2.6-0.8,3.9
		c-0.1,0-0.1,0-0.2,0c-0.4-2.6-0.9-5.3-1.3-7.9c-0.1,0-0.1,0-0.2,0c-0.3,1.4-0.6,2.8-0.9,4.2c-0.1,0-0.1,0-0.2,0
		c-0.4-2.6-0.9-5.2-1.3-7.8c-0.1,0-0.1,0-0.2,0c-0.3,1.4-0.6,2.8-0.9,4.2c-0.1,0-0.1,0-0.2-0.1c-0.4-2.7-0.9-5.3-1.3-8
		c-0.1,0-0.1,0-0.2,0c-0.3,1.4-0.6,2.8-0.9,4.2c-0.1,0-0.1,0-0.1,0c-0.2-1.4-0.4-2.9-0.6-4.3c-1.4,6.5-0.1,12.7,1.6,19.2
		c0.4-1.9,0.6-3.6,0.9-5.2c0.1,0,0.1,0,0.2,0c0.4,2.8,0.9,5.7,1.3,8.5c0.1,0,0.1,0,0.2,0c0.3-1.6,0.6-3.1,0.9-4.7c0.1,0,0.1,0,0.2,0
		c0.4,2.8,0.9,5.6,1.3,8.4c0.1,0,0.1,0,0.2,0c0.3-1.5,0.6-3.1,0.9-4.6c0.1,0,0.1,0,0.2,0c0.4,2.7,0.8,5.5,1.3,8.2c0.1,0,0.1,0,0.2,0
		c0.3-1.5,0.6-3,0.9-4.5c0.1,0,0.1,0,0.2,0c0.4,2.7,0.9,5.5,1.3,8.2c0.1,0,0.1,0,0.2,0c0.3-1.5,0.6-3,0.9-4.5c0.1,0,0.1,0,0.2,0
		c0.4,2.8,0.8,5.5,1.2,8.3c0.1,0,0.1,0,0.2,0c0.3-1.5,0.6-3,0.9-4.6c0.1,0,0.1,0,0.1,0c0.2,1.1,0.4,2.1,0.6,3.2
		c-0.4,2.1-0.8,4.3-1.1,6.4c-0.5,3.2-1.2,6.3-1.5,9.5c-0.2,1.7-0.5,3.4-0.7,5c-0.4-1.1-0.4-2.3-0.9-3.4c-0.3,1.3-0.6,2.6-0.9,4
		c-0.1,0-0.1,0-0.2,0c-0.4-2.6-0.9-5.1-1.3-7.7c-0.1,0-0.1,0-0.2,0c-0.3,1.3-0.6,2.6-0.8,4c-0.1,0-0.1,0-0.2,0
		c-0.4-2.6-0.9-5.3-1.3-7.9c-0.1,0-0.1,0-0.2,0c-0.3,1.4-0.6,2.8-0.9,4.2c-0.1,0-0.1,0-0.2,0c-0.4-2.6-0.9-5.2-1.3-7.8
		c-0.1,0-0.1,0-0.2,0c-0.3,1.4-0.6,2.8-0.9,4.3c-0.1,0-0.1,0-0.2-0.1c-0.4-2.7-0.9-5.3-1.3-8c-0.1,0-0.1,0-0.1,0
		c-0.3,1.4-0.6,2.9-0.9,4.3c-0.1,0-0.1,0-0.1,0c-0.2-1.4-0.4-2.9-0.5-4.3c-1.4,6.5-0.1,12.7,1.6,19.2c0.4-1.9,0.6-3.6,0.9-5.2
		c0.1,0,0.1,0,0.1,0c0.4,2.8,0.9,5.7,1.3,8.5c0.1,0,0.1,0,0.2,0c0.3-1.6,0.6-3.1,0.9-4.7c0.1,0,0.1,0,0.2,0.1
		c0.4,2.8,0.9,5.5,1.3,8.3c0.1,0,0.1,0,0.2,0c0.3-1.5,0.6-3,0.8-4.5c0.1,0,0.1,0,0.2,0c0.4,2.8,0.9,5.6,1.3,8.4c0.1,0,0.1,0,0.2,0
		c0.3-1.6,0.6-3.1,0.9-4.7c0.1,0,0.1,0,0.1,0c0.4,2.6,0.8,5.1,1.3,7.6c-0.5,8.2-0.7,16.4-0.7,24.6c-0.8-2.6-0.9-5.2-1.6-8.2
		c-0.4,1.7-0.7,3.1-1,4.4c-0.1,0-0.1,0-0.2-0.1c-0.4-2.6-0.9-5.2-1.3-7.9c-0.1,0-0.1,0-0.2,0c-0.3,1.4-0.6,2.8-0.9,4.2
		c-0.1,0-0.1,0-0.2,0c-0.4-2.7-0.9-5.3-1.3-8c-0.1,0-0.1,0-0.1,0c-0.3,1.4-0.6,2.8-0.9,4.2c-0.1,0-0.1,0-0.2-0.1
		c-0.4-2.6-0.9-5.3-1.3-7.9c-0.1,0-0.1,0-0.2,0c-0.3,1.4-0.6,2.8-0.9,4.3c0,0-0.1,0-0.1,0c-0.2-1.5-0.4-2.9-0.6-4.5
		c-1.4,2.7-0.1,16.4,1.7,19.1c0.3-1.6,0.6-3.2,0.9-4.9c0.1,0,0.1,0,0.2,0c0.4,2.8,0.9,5.6,1.3,8.5c0.1,0,0.1,0,0.2,0
		c0.3-1.6,0.6-3.1,0.9-4.7c0.1,0,0.1,0,0.2,0c0.4,2.8,0.9,5.5,1.3,8.3c0.1,0,0.1,0,0.2,0c0.3-1.6,0.6-3.1,0.9-4.7c0.1,0,0.1,0,0.2,0
		c0.4,2.8,0.9,5.6,1.3,8.4c0.1,0,0.1,0,0.2,0c0.3-1.5,0.6-3,0.9-4.5c0.1,0,0.1,0,0.2,0c0.1,1,0.3,2,0.5,3.1c0,9.7,0,19.4,0,29.1
		c-0.8-2.6-0.9-5.2-1.5-8c-0.6,1.4-0.5,2.9-1.2,4.4c-0.5-2.9-0.9-5.5-1.3-8.1c-0.1,0-0.1,0-0.2,0c-0.3,1.4-0.6,2.8-0.9,4.2
		c-0.1,0-0.1,0-0.2,0c-0.4-2.6-0.9-5.3-1.3-7.9c-0.1,0-0.1,0-0.2,0c-0.3,1.4-0.6,2.8-0.9,4.2c-0.1,0-0.1,0-0.2,0
		c-0.4-2.7-0.9-5.3-1.3-8c-0.1,0-0.1,0-0.2,0c-0.3,1.4-0.6,2.8-0.9,4.2c-0.1,0-0.1,0-0.2,0c-0.2-1.4-0.4-2.9-0.6-4.4
		c-1.4,2.4-0.2,15.7,1.7,19c0.3-1.7,0.6-3.3,0.9-4.9c0.1,0,0.1,0,0.2,0c0.4,2.8,0.9,5.6,1.3,8.5c0.1,0,0.1,0,0.2,0
		c0.3-1.6,0.6-3.1,0.9-4.7c0.1,0,0.1,0,0.2,0c0.4,2.8,0.9,5.6,1.3,8.4c0.1,0,0.1,0,0.2,0c0.3-1.6,0.6-3.1,0.9-4.7c0.1,0,0.1,0,0.2,0
		c0.4,2.7,0.8,5.5,1.3,8.2c0.1,0,0.1,0,0.2,0c0.3-1.5,0.6-3,0.9-4.6c0.1,0,0.1,0,0.2,0c0.3,1.5,0.5,3,0.7,4.5
		c0.2,6.2,0.4,12.4,0.5,18.6c0,1.6,0,3.2,0.2,4.8c-0.3,1.4-0.7,2.9-1.1,4.6c-0.5-2.9-0.9-5.5-1.4-8.1c-0.1,0-0.1,0-0.2,0
		c-0.3,1.4-0.6,2.7-0.9,4.1c-0.1,0-0.1,0-0.2,0c-0.4-2.6-0.9-5.3-1.3-7.9c-0.1,0-0.1,0-0.2,0c-0.3,1.4-0.6,2.8-0.9,4.2
		c-0.1,0-0.1,0-0.1,0c-0.4-2.6-0.9-5.3-1.3-8c-0.1,0-0.1,0-0.2,0c-0.3,1.4-0.6,2.8-0.9,4.2c-0.1,0-0.1,0-0.2,0
		c-0.4-2.6-0.9-5.2-1.3-7.9c-0.1,0-0.1,0-0.2,0c-0.3,1.4-0.6,2.8-0.9,4.2c0,0-0.1,0-0.1,0c-0.2-1.5-0.4-3-0.6-4.4
		c-1.4,6.5-0.1,12.7,1.6,19.3c0.4-2,0.7-3.6,1-5.3c0,0,0.1,0,0.1,0c0.4,2.8,0.9,5.7,1.3,8.5c0.1,0,0.1,0,0.2,0
		c0.3-1.6,0.6-3.1,0.9-4.7c0.1,0,0.1,0,0.2,0c0.4,2.8,0.9,5.6,1.3,8.4c0.1,0,0.1,0,0.2,0c0.3-1.6,0.6-3.1,0.9-4.6c0.1,0,0.1,0,0.2,0
		c0.4,2.8,0.8,5.6,1.3,8.4c0.1,0,0.1,0,0.2,0c0.3-1.5,0.6-3,0.9-4.5c0.1,0,0.1,0,0.2,0c0.4,2.7,0.8,5.4,1.3,8.2
		c0.6-0.6,0.3-1.4,0.7-2c0.3,2.3,0.2,4.5,0.3,6.8c0.3,5.6,0.6,11.1,1,16.7c0,0-0.1,0.1-0.1,0.1c-1,0.3-2.1-0.1-3.1,0.3
		c-0.3-2-0.6-4-1-6c-0.1,0-0.1,0-0.2,0c-0.3,1.4-0.6,2.7-0.9,4.1c-0.1,0-0.1,0-0.2,0c-0.4-2.6-0.9-5.3-1.3-7.9c-0.1,0-0.1,0-0.2,0
		c-0.3,1.4-0.6,2.8-0.9,4.2c-0.1,0-0.1,0-0.2,0c-0.4-2.7-0.9-5.3-1.3-8c-0.1,0-0.1,0-0.1,0c-0.3,1.4-0.6,2.9-0.9,4.3
		c-0.1,0-0.1,0-0.2-0.1c-0.4-2.6-0.9-5.3-1.3-7.9c-0.1,0-0.1,0-0.2,0c-0.3,1.4-0.6,2.8-0.9,4.2c-0.1,0-0.1,0-0.1,0
		c-0.2-1.5-0.4-2.9-0.6-4.5c-0.7,1-0.6,1.9-0.6,2.9c0,2.4-0.2,4.8,0.1,7.1c0.4,2.8,1.2,5.5,1.8,8.3c-3.8,0.5-7.6,0.3-11.5,0.3
		c0.4-2.6,0.8-5.1,1.2-7.7c0.1,0,0.1,0,0.2,0c0.3,1.6,0.6,3.1,0.9,4.7c0.1,0,0.1,0,0.2,0c0.4-2.8,0.9-5.7,1.3-8.5c0.1,0,0.1,0,0.2,0
		c0.3,1.6,0.6,3.2,0.9,4.8c0.1,0,0.1,0,0.2,0c0.4-2.8,0.9-5.6,1.3-8.5c0.1,0,0.1,0,0.1,0c0.3,1.6,0.6,3.2,1,5.1
		c1.8-6.5,2.9-12.7,1.9-19c-0.1,0-0.2,0-0.3,0c-0.2,1.4-0.3,2.9-0.5,4.3c-0.1,0-0.1,0-0.2,0c-0.3-1.4-0.6-2.8-0.9-4.2
		c-0.1,0-0.1,0-0.2,0c-0.4,2.6-0.9,5.3-1.3,7.9c-0.1,0-0.1,0-0.2,0c-0.3-1.4-0.6-2.8-0.9-4.2c-0.1,0-0.1,0-0.2,0
		c-0.4,2.6-0.9,5.3-1.3,8c-0.1,0-0.1,0-0.2,0c-0.3-1.4-0.6-2.8-0.9-4.1c-0.1,0-0.1,0-0.2,0c-0.4,2.6-0.9,5.2-1.3,7.8
		c-0.1,0-0.1,0-0.2,0c-0.3-1.4-0.6-2.7-0.9-4.1c-0.1,0-0.1,0-0.2,0c-0.4,2.6-0.8,5.2-1.3,7.8c-0.1,0-0.1,0-0.2,0
		c-0.3-1.3-0.6-2.6-0.9-4c-0.1,0-0.1,0-0.2,0c-0.4,2.5-0.8,5.1-1.3,7.6c-0.1,0-0.1,0-0.2,0c-0.3-1.4-0.6-2.7-0.9-4
		c-0.1,0-0.1,0-0.2,0c-0.4,2.6-0.8,5.1-1.3,7.7c-0.1,0-0.1,0-0.2,0c-0.3-3-0.6-6.1-0.9-9.2c-0.1,0-0.2,0-0.3,0
		c-0.3,3.1-0.6,6.2-0.9,9.3c-0.1,0-0.1,0-0.2,0c-0.4-2.6-0.9-5.2-1.3-7.8c-0.1,0-0.1,0-0.2,0c-0.3,1.4-0.6,2.7-0.9,4.1
		c-0.1,0-0.1,0-0.2-0.1c-0.4-2.5-0.8-5.1-1.3-7.6c-0.1,0-0.1,0-0.2,0c-0.3,1.3-0.6,2.7-0.8,4c-0.1,0-0.1,0-0.2,0
		c-0.4-2.6-0.9-5.2-1.3-7.9c-0.6,1.4-0.6,2.8-1.2,4.3c-0.5-2.9-0.9-5.5-1.3-8c-0.1,0-0.1,0-0.2,0c-0.3,1.4-0.6,2.8-0.9,4.2
		c-0.1,0-0.1,0-0.2,0c-0.4-2.7-0.9-5.4-1.3-8c-0.6,1.4-0.6,2.9-1.2,4.5c-0.5-2.9-0.9-5.5-1.3-8.1c-0.1,0-0.1,0-0.2,0
		c-0.3,1.4-0.6,2.9-0.9,4.3c-0.1,0-0.1,0-0.2,0c-0.2-1.5-0.4-3-0.5-4.5c-1.4,6.5-0.1,12.8,1.6,19.3c0.4-1.9,0.6-3.5,0.9-5.2
		c0.1,0,0.1,0,0.2,0c0.4,2.8,0.9,5.7,1.3,8.5c0.1,0,0.1,0,0.2,0c0.3-1.5,0.6-3,0.9-4.5c0.1,0,0.2,0,0.3,0c0.4,2.7,0.8,5.4,1.2,8
		c0.1,0,0.2,0,0.2,0c0.3-1.5,0.6-3.1,0.9-4.6c0.1,0,0.1,0,0.2,0c0.4,2.7,0.8,5.4,1.2,8c-0.1,0-0.1,0.1-0.2,0.1
		c-3.8,0-7.6,0.5-11.4,0.2c0.1-0.8,0.3-1.6,0.4-2.5c0.5-2.5,1.2-5,1.5-7.5c0.3-2.4,0.1-4.8,0.1-7.2c0-0.7-0.1-1.3-0.6-2
		c-0.2,1.5-0.2,3-0.7,4.5c-0.4-1.6-0.6-3-0.9-4.3c-0.1,0-0.1,0-0.1,0c-0.4,2.7-0.9,5.3-1.3,8c-0.1,0-0.1,0-0.1,0
		c-0.3-1.4-0.6-2.9-0.9-4.3c-0.1,0-0.1,0-0.2,0c-0.4,2.6-0.8,5.2-1.3,7.8c-0.1,0-0.1,0-0.2,0c-0.3-1.4-0.6-2.8-0.9-4.1
		c-0.1,0-0.1,0-0.2,0c-0.4,2.6-0.9,5.2-1.3,7.8c-0.1,0-0.1,0-0.2,0c-0.3-1.4-0.6-2.7-0.9-4.1c-0.1,0-0.1,0-0.2,0
		c-0.4,2.6-0.8,5.3-1.3,7.9c-0.4,0.1-0.6-0.1-0.8-0.4c-0.2-0.3-0.6-0.3-0.7-0.1c-0.4,0.8-1.2,0.5-1.8,0.5c-2,0-4.1,0-6.1,0
		c-0.7,0-1.3,0.1-1.8-0.6c-0.2-0.3-0.6-0.4-0.8,0.1c-0.2,0.4-0.4,0.2-0.7,0.2c-0.1-2.6-0.8-5-1.2-7.6c-0.6,1.3-0.5,2.7-1.2,4.1
		c-0.5-2.8-0.9-5.4-1.3-8c-0.1,0-0.1,0-0.2,0c-0.3,1.4-0.6,2.8-0.9,4.2c-0.1,0-0.1,0-0.2,0c-0.4-2.7-0.9-5.3-1.3-8
		c-0.1,0-0.1,0-0.2,0c-0.3,1.4-0.6,2.9-0.9,4.3c-0.1,0-0.1,0-0.2,0c-0.4-2.6-0.9-5.3-1.3-8c-0.1,0-0.1,0-0.2,0
		c-0.3,1.4-0.6,2.8-0.9,4.2c-0.1,0-0.1,0-0.2,0c-0.2-1.4-0.3-2.9-0.5-4.3c-0.4,0.6-0.6,1.2-0.6,1.8c0,1.4,0,2.9,0,4.3
		c0.1,1.4-0.2,2.8,0.2,4.2c0.7,2.8,1.2,5.6,1.8,8.4c-1.9,0.4-3.7-0.1-5.6-0.1c-2,0-4,0.2-6-0.1c0.4-2.6,0.8-5.2,1.1-7.9
		c0.1,0,0.1,0,0.2,0c0.3,1.6,0.6,3.1,0.9,4.7c0.1,0,0.1,0,0.2,0c0.4-2.8,0.9-5.6,1.3-8.5c0.1,0,0.1,0,0.2,0c0.3,1.6,0.6,3.2,0.9,4.8
		c0.1,0,0.1,0,0.2,0c0.4-2.8,0.9-5.7,1.3-8.5c0.1,0,0.1,0,0.2,0c0.3,1.6,0.6,3.1,0.9,4.7c1.8-6.2,3.1-12.4,1.7-18.8
		c-0.2,1.5-0.4,2.9-0.6,4.4c0,0-0.1,0-0.1,0c-0.3-1.4-0.6-2.8-0.9-4.2c-0.1,0-0.1,0-0.2,0c-0.4,2.6-0.8,5.2-1.3,7.8
		c-0.1,0-0.1,0-0.2,0c-0.3-1.4-0.6-2.8-0.9-4.2c-0.1,0-0.1,0-0.2,0c-0.4,2.6-0.9,5.3-1.3,7.9c-0.1,0-0.1,0-0.2,0
		c-0.3-1.4-0.6-2.8-0.9-4.1c-0.1,0-0.1,0-0.2,0c-0.4,2.6-0.9,5.3-1.3,7.9c-0.1,0-0.1,0-0.2,0c-0.3-1.4-0.6-2.7-0.9-4.1
		c-0.1,0-0.1,0-0.2,0c-0.4,2.6-0.9,5.2-1.3,7.8c-0.1,0-0.1,0-0.2,0c-0.3-1.4-0.6-2.7-0.9-4c-0.1,0-0.1,0-0.2,0
		c-0.4,2.6-0.8,5.2-1.3,7.7c-0.1,0-0.1,0-0.2,0c-0.3-1.4-0.6-2.7-0.8-4c-0.1,0-0.1,0-0.2,0c-0.4,2.6-0.9,5.2-1.3,7.8
		c0,0-0.1,0-0.1,0c-0.3-3.1-0.7-6.2-1-9.2c-0.1,0-0.2,0-0.2,0c-0.3,3-0.6,6-0.9,9.1c-0.1,0-0.2,0-0.2,0c-0.4-2.6-0.8-5.1-1.2-7.7
		c-0.1,0-0.1,0-0.2,0c-0.3,1.4-0.6,2.7-0.9,4.1c-0.1,0-0.1,0-0.2,0c-0.4-2.6-0.8-5.1-1.3-7.7c-0.1,0-0.2,0-0.2,0
		c-0.3,1.3-0.6,2.6-0.8,4c-0.1,0-0.2,0-0.2,0c-0.4-2.6-0.8-5.1-1.3-7.7c-0.1,0-0.2,0-0.2,0c-0.3,1.3-0.6,2.7-0.8,4
		c-0.1,0-0.1,0-0.2,0c-0.4-2.6-0.8-5.1-1.3-7.7c-0.1,0-0.2,0-0.2,0c-0.3,1.3-0.6,2.6-0.8,4c-0.1,0-0.1,0-0.2,0
		c-0.4-2.6-0.9-5.2-1.3-7.8c-0.1,0-0.1,0-0.2,0c-0.3,1.4-0.6,2.8-0.9,4.2c-0.1,0-0.1,0-0.2,0c-0.4-2.6-0.8-5.2-1.3-7.8
		c-0.1,0-0.1,0-0.2,0c-0.3,1.4-0.6,2.8-0.9,4.2c-0.3-1.5-0.4-2.9-0.8-4.3c-1.1,6.5,0,12.7,1.8,19c0.3-1.8,0.7-3.4,1-5
		c0.1,0,0.1,0,0.2,0c0.4,2.8,0.8,5.6,1.3,8.5c0.1,0,0.1,0,0.2,0c0.3-1.6,0.6-3.2,0.9-4.8c0.1,0,0.1,0,0.2,0c0.4,2.8,0.9,5.6,1.3,8.4
		c0.1,0,0.2,0,0.2,0c0.3-1.5,0.6-3,0.9-4.5c0.5,2.3,0.9,4.6,1.2,6.9c0,0.2,0,0.5,0.3,0.5c0.3,0,0.3-0.3,0.4-0.5
		c0.2-1,0.4-2.1,0.6-3.2c0.1,0,0.1,0,0.2,0c0.2,1.3,0.5,2.6,0.7,3.9c-4.5,0.2-9-0.1-13.4-0.5c0.1-0.6,0.3-1.3,0.4-1.9
		c0.4-2,1.1-4,1.3-6c0.3-3,0.1-6.1,0-9.1c0-0.3,0-0.7-0.5-0.9c-0.2,1.4-0.4,2.9-0.5,4.3c0,0-0.1,0-0.1,0c-0.3-1.4-0.6-2.9-0.9-4.3
		c0,0-0.1,0-0.2,0c-0.4,2.6-0.8,5.3-1.3,7.9c-0.1,0-0.1,0-0.2,0c-0.3-1.4-0.6-2.7-0.9-4.1c-0.1,0-0.1,0-0.2,0
		c-0.4,2.6-0.9,5.2-1.3,7.8c-0.1,0-0.1,0-0.2,0c-0.3-1.4-0.6-2.8-0.9-4.2c-0.1,0-0.1,0-0.2,0c-0.4,2.6-0.8,5.3-1.3,7.9
		c-0.1,0-0.1,0-0.2,0c-0.3-1.4-0.6-2.7-0.9-4.1c-0.1,0-0.2,0-0.2,0c-0.3,1.9-0.5,3.7-0.8,5.5c-1.2,0-2.3-0.2-3.5-0.4
		c1.3-0.3,0.8-1.4,0.9-2.2c0.3-4.2,0.3-8.4,0.6-12.5c0.2-2.1,0-4.2,0.3-6.3c0.5,0,0.3-0.5,0.4-0.7c0.4-2.6,0.8-5.2,1.2-7.8
		c0,0,0.1,0,0.2,0c0.3,1.6,0.6,3.1,0.9,4.7c0.1,0,0.1,0,0.2,0c0.4-2.8,0.8-5.6,1.3-8.4c0.1,0,0.1,0,0.2,0c0.3,1.6,0.6,3.1,0.9,4.7
		c0.1,0,0.1,0,0.2,0c0.4-2.8,0.9-5.7,1.3-8.5c0,0,0.1,0,0.1,0c0.3,1.6,0.6,3.3,0.9,4.9c0.1,0,0.1,0,0.2,0c0.4-2.7,0.8-5.5,1.2-8.2
		c0.1,0,0.2,0,0.3,0c0.3,1.5,0.6,3,0.9,4.7c1.9-6.1,2.8-17.1,1.6-19.2c-0.2,1.5-0.4,2.9-0.6,4.4c0,0-0.1,0-0.1,0
		c-0.3-1.4-0.6-2.8-0.9-4.2c-0.1,0-0.1,0-0.2,0c-0.4,2.6-0.8,5.2-1.3,7.9c-0.1,0-0.1,0-0.2,0c-0.3-1.4-0.6-2.8-0.9-4.2
		c0,0-0.1,0-0.2,0c-0.4,2.6-0.9,5.3-1.3,7.9c0,0-0.1,0-0.2,0c-0.3-1.4-0.6-2.7-0.9-4.1c-0.1,0-0.2,0-0.2,0c-0.4,2.6-0.8,5.1-1.3,7.7
		c-0.1,0-0.1,0-0.2,0c-0.3-1.3-0.6-2.7-0.8-4c-0.1,0-0.1,0-0.2,0c-0.4,2.6-0.8,5.1-1.3,7.8c-0.6-0.5-0.2-1.2-0.6-1.6
		c0-0.8-0.1-1.7,0-2.5c0.3-4.6,0.3-9.2,0.5-13.8c0.1-4.4,0.2-8.7,0.3-13.1c0.1-0.4,0.2-0.8,0.3-1.5c0.3,1.8,0.6,3.3,0.9,4.8
		c0.1,0,0.2,0,0.2,0c0.4-2.7,0.8-5.5,1.2-8.2c0.1,0,0.1,0,0.2,0c0.3,1.6,0.6,3.1,0.9,4.7c0,0,0.1,0,0.2,0c0.4-2.8,0.9-5.7,1.3-8.5
		c0,0,0.1,0,0.2,0c0.3,1.6,0.6,3.2,0.9,4.8c0.1,0,0.1,0,0.2,0c0.4-2.8,0.9-5.7,1.3-8.5c0.1,0,0.1,0,0.2,0c0.3,1.6,0.6,3.3,0.9,5
		c1.8-4.4,2.9-16.8,1.7-19c-0.2,1.5-0.4,3-0.6,4.4c0,0-0.1,0-0.1,0c-0.3-1.4-0.6-2.9-0.9-4.3c-0.1,0-0.1,0-0.2,0
		c-0.4,2.6-0.8,5.3-1.3,7.9c-0.1,0-0.1,0-0.2,0c-0.3-1.4-0.6-2.7-0.9-4.1c0,0-0.1,0-0.2,0c-0.4,2.6-0.9,5.2-1.3,7.9
		c-0.1,0-0.1,0-0.2,0c-0.3-1.4-0.6-2.7-0.9-4.1c-0.1,0-0.1,0-0.2,0c-0.4,2.6-0.8,5.2-1.3,7.8c-0.1,0-0.1,0-0.2,0
		c-0.3-1.4-0.6-2.7-0.9-4.4c-0.4,1.9-0.7,3.5-1,5.2c0-9.8,0-19.5,0-29.3c0.6,1.5,0.6,3.1,1.2,4.7c0.4-2.8,0.8-5.6,1.3-8.4
		c0.1,0,0.1,0,0.2,0c0.3,1.6,0.6,3.1,0.9,4.7c0.1,0,0.1,0,0.2,0c0.4-2.8,0.9-5.7,1.4-8.9c0.4,2,0.7,3.6,1,5.3c0.1,0,0.1,0,0.2,0
		c0.4-2.9,0.9-5.7,1.3-8.6c0.1,0,0.1,0,0.2,0c0.3,1.6,0.6,3.3,0.9,5.1c1.8-6.4,2.8-12.7,1.6-19.2c-0.2,1.5-0.4,2.9-0.6,4.4
		c0,0-0.1,0-0.1,0c-0.3-1.4-0.6-2.8-0.9-4.2c-0.1,0-0.1,0-0.2,0c-0.4,2.6-0.8,5.2-1.3,7.9c-0.1,0-0.1,0-0.2,0
		c-0.3-1.4-0.6-2.8-0.9-4.2c0,0-0.1,0-0.2,0c-0.4,2.6-0.9,5.3-1.3,7.9c-0.1,0-0.1,0-0.2,0c-0.3-1.4-0.6-2.7-0.9-4
		c-0.1,0-0.2,0-0.2,0c-0.4,2.6-0.8,5.1-1.3,7.7c-0.1,0-0.1,0-0.2,0c-0.3-1.3-0.6-2.7-0.9-4c0,0-0.1,0-0.2,0c-0.3,1.6-0.6,3.2-1,4.8
		c-0.1-8.2-0.5-16.4-0.8-24.7c0.3-1.5,0.5-3.1,0.8-5c0.4,1.9,0.7,3.4,0.9,4.9c0.1,0,0.2,0,0.2,0c0.4-2.7,0.8-5.4,1.2-8.1
		c0.1,0,0.2,0,0.2,0c0.3,1.5,0.6,3,0.8,4.6c0.1,0,0.1,0,0.2,0c0.4-2.8,0.9-5.7,1.3-8.5c0,0,0.1,0,0.2,0c0.3,1.6,0.6,3.1,0.9,4.7
		c0.1,0,0.1,0,0.2,0c0.4-2.8,0.9-5.7,1.3-8.5c0.1,0,0.1,0,0.2,0c0.3,1.6,0.6,3.2,0.9,5c1.9-5.6,2.8-16.8,1.6-19.2
		c-0.2,1.6-0.4,3.1-0.6,4.9c-0.4-1.8-0.7-3.2-1-4.6c-0.1,0-0.1,0-0.2,0c-0.4,2.6-0.8,5.3-1.3,7.9c-0.1,0-0.1,0-0.2,0
		c-0.3-1.4-0.6-2.8-0.9-4.2c0,0-0.1,0-0.2,0c-0.4,2.6-0.9,5.2-1.3,7.9c-0.1,0-0.1,0-0.2,0c-0.3-1.4-0.6-2.7-0.9-4.1
		c-0.1,0-0.1,0-0.2,0c-0.4,2.6-0.8,5.3-1.3,7.9c-0.1,0-0.1,0-0.2,0c-0.3-1.4-0.6-2.8-0.9-4.2c0,0-0.1,0-0.2,0
		c-0.4,2.6-0.9,5.2-1.3,7.8c-0.1,0-0.1,0-0.2,0c-0.3-1.4-0.6-2.7-0.9-4.3c-0.4,0.6-0.1,1.3-0.6,1.6c-0.1-0.2-0.2-0.4-0.2-0.7
		c-0.3-3.5-0.9-7-1.6-10.4c-0.5-2.9-1.1-5.9-1.6-8.8c0.1-0.7,0.1-1.4,0.5-2.2c0.3,1.7,0.6,3.2,0.9,4.7c0.1,0,0.2,0,0.2,0
		c0.4-2.8,0.8-5.5,1.3-8.3c0.1,0,0.1,0,0.2,0c0.3,1.5,0.6,3,0.8,4.6c0.1,0,0.1,0,0.2,0c0.4-2.8,0.9-5.6,1.3-8.3c0.1,0,0.1,0,0.2,0
		c0.3,1.5,0.6,3.1,0.9,4.6c0.1,0,0.2,0,0.2,0c0.4-2.8,0.8-5.6,1.3-8.4c0.1,0,0.1,0,0.2,0c0.3,1.6,0.6,3.2,0.9,4.8c0,0,0.1,0,0.2,0
		c0.4-2.9,0.9-5.8,1.4-9c0.4,2,0.7,3.6,1,5.3c0.1,0,0.1,0,0.2,0c0.4-2.8,0.9-5.7,1.3-8.5c0.1,0,0.1,0,0.2,0c0.3,1.6,0.6,3.2,0.9,5
		c1.9-5.6,2.9-17.1,1.6-19.1c-0.2,1.5-0.4,2.9-0.6,4.3c0,0-0.1,0-0.2,0c-0.3-1.4-0.6-2.8-0.9-4.2c-0.1,0-0.1,0-0.2,0
		c-0.4,2.7-0.8,5.3-1.3,8c-0.1,0-0.1,0-0.2,0c-0.3-1.4-0.6-2.8-0.9-4.2c-0.1,0-0.1,0-0.2,0c-0.4,2.6-0.9,5.2-1.3,7.8
		c-0.1,0-0.1,0-0.2,0c-0.3-1.3-0.6-2.7-0.9-4.1c-0.1,0-0.2,0-0.2,0c-0.4,2.6-0.8,5.1-1.2,7.7c-0.1,0-0.1,0-0.2,0
		c-0.3-1.3-0.6-2.7-0.9-4c-0.1,0-0.1,0-0.2,0c-0.4,2.6-0.8,5.2-1.3,7.8c-0.1,0-0.1,0-0.2,0c-0.3-1.4-0.6-2.7-0.9-4.1
		c-0.1,0-0.1,0-0.2,0c-0.4,2.6-0.9,5.1-1.3,7.7c-0.1,0-0.1,0-0.2,0c-0.3-1.3-0.6-2.7-0.8-4c-0.1,0-0.1,0-0.2,0
		c-0.4,2.6-0.8,5.2-1.3,7.7c-0.1,0-0.1,0-0.2,0c-0.3-3.1-0.6-6.2-1-9.2c-0.3,0.8-0.3,1.7-0.5,2.5c-0.3,2-0.2,4.1-0.8,6.1
		c-0.5-1.5-1.1-3-1.1-4.7c0.1-0.3,0.2-0.7-0.2-0.6c-1,0.2-0.9-0.4-1.1-1.1c-0.3-1.4-0.6-2.8-1.2-4.1c-0.1-0.5-0.2-1-0.3-1.5
		c-1.3-3.4-2.4-7-4.1-10.3c-0.4-0.9-0.7-1.8-0.9-2.7c-0.8-3.7-0.6-7.4-0.4-11.2c0.2-0.3,0.2-0.6,0-0.8c0-0.2,0-0.4,0-0.6
		c0.6-1.6,0.7-3.4,1.3-5.1c0.4,2.8,0.8,5.6,1.3,8.3c0.1,0,0.1,0,0.2,0c0.3-1.5,0.6-3,0.9-4.5c0.1,0,0.1,0,0.2,0
		c0.4,2.7,0.8,5.5,1.3,8.2c0.1,0,0.2,0,0.2,0c0.3-1.5,0.6-3.1,0.9-4.6c0.1,0,0.1,0,0.2,0.1c0.4,2.8,0.9,5.7,1.3,8.5
		c0.1,0,0.1,0,0.2,0c0.3-1.6,0.6-3.1,0.9-4.7c0.1,0,0.1,0,0.2,0c0.5,3.1,1,6.3,1.5,9.4c0.1,0,0.2,0,0.2,0c0.5-3.1,1-6.2,1.4-9.4
		c0.1,0,0.1,0,0.2,0c0.3,1.5,0.6,3,0.9,4.5c0.1,0,0.1,0,0.2,0c0.4-2.7,0.8-5.5,1.3-8.2c0.1,0,0.2,0,0.2,0c0.3,1.5,0.5,3,0.8,4.4
		c0.1,0,0.2,0,0.2,0c0.4-2.7,0.8-5.5,1.3-8.2c0.1,0,0.1,0,0.2,0c0.3,1.5,0.6,3,0.9,4.6c0.1,0,0.1,0,0.2,0c0.4-2.8,0.8-5.6,1.3-8.3
		c0.1,0,0.1,0,0.2,0c0.3,1.6,0.6,3.1,0.9,4.7c0.1,0,0.1,0,0.2,0c0.4-2.8,0.9-5.7,1.3-8.5c0,0,0.1,0,0.1,0c0.3,1.6,0.6,3.2,0.9,4.7
		c0.1,0,0.1,0,0.2,0c0.4-2.7,0.8-5.5,1.3-8.2c0.1,0,0.2,0,0.2,0c0.3,1.5,0.6,3.1,0.9,4.7c1.8-4,2.9-16.8,1.7-19
		c-0.2,1.5-0.4,3-0.6,4.4c0,0-0.1,0-0.1,0c-0.3-1.4-0.6-2.8-0.9-4.2c-0.1,0-0.1,0-0.2,0c-0.4,2.6-0.8,5.3-1.3,7.9
		c-0.1,0-0.1,0-0.2,0c-0.3-1.4-0.6-2.8-0.9-4.2c0,0-0.1,0-0.2,0c-0.4,2.6-0.9,5.3-1.3,7.9c-0.1,0-0.1,0-0.2,0
		c-0.3-1.4-0.6-2.8-0.9-4.2c-0.1,0-0.1,0-0.2,0c-0.4,2.6-0.8,5.3-1.3,7.9c-0.1,0-0.1,0-0.2,0c-0.3-1.4-0.6-2.8-0.9-4.2
		c0,0-0.1,0-0.2,0c-0.4,2.6-0.9,5.3-1.3,7.9c-0.1,0-0.1,0-0.2,0c-0.3-1.3-0.6-2.7-0.9-4.1c-0.1,0-0.1,0-0.2,0
		c-0.4,2.6-0.8,5.2-1.3,7.7c-0.1,0-0.1,0-0.2,0c-0.3-1.3-0.6-2.7-0.9-4c-0.1,0-0.1,0-0.2,0c-0.4,2.5-0.8,5.1-1.3,7.6
		c-0.1,0-0.1,0-0.2,0c-0.3-3-0.6-6.1-1-9.1c-0.1,0-0.1,0-0.2,0c-0.3,3.1-0.7,6.2-1,9.3c0,0-0.1,0-0.2,0c-0.4-2.6-0.9-5.2-1.3-7.8
		c-0.1,0-0.1,0-0.2,0c-0.3,1.3-0.6,2.7-0.8,4c-0.1,0-0.1,0-0.2,0c-0.4-2.6-0.9-5.2-1.3-7.7c-0.1,0-0.2,0-0.2,0
		c-0.3,1.4-0.6,2.7-0.8,4.1c-0.1,0-0.1,0-0.2,0c-0.4-2.6-0.9-5.2-1.3-7.8c-0.1,0-0.2,0-0.2,0c-0.3,1.3-0.6,2.7-0.8,4
		c-0.1,0-0.1,0-0.2,0c-0.4-2.6-0.8-5.1-1.3-7.7c-0.5,1.2-0.7,2.4-1,3.5c0,0.2-0.2,0.9-0.4,0c0.1-0.4-0.4-0.6-0.4-1
		c-0.1-2.1-0.5-4.2-1-6.3c-0.2-1.8-0.8-3.5-1.1-5.2c-0.3-1.4-1.3-2.7-0.6-4.2c0.8-0.1,1.2,0.2,1.2,1.1c0,1.2,0.3,2.5,0.8,3.7
		c0.3-1.5,0.5-3,0.8-4.5c0.5,2.3,0.9,4.5,1.3,6.7c0,0.3-0.1,0.7,0.3,0.7c0.4,0,0.4-0.4,0.5-0.7c0.2-0.9,0.4-1.9,0.6-2.9
		c0.6,0.9,0.5,1.7,0.5,2.5c0,0.9,0.7,0.9,1.1,1.1c0.3,0.2,0.6-0.5,0.9-0.8c0.8-0.8,0.3-2,0.9-2.9c0.1,0.6,0.2,1.1,0.3,1.7
		c0,0.3,0.3,0.4,0.5,0.5c0.4,0.1,0.5-0.2,0.6-0.4c0.1-0.5,0.2-0.9,0.3-1.4c0.2-1.4,0.4-2.7,0.6-4.1c0.1,0,0.1,0,0.2,0
		c0.3,1.5,0.5,3,0.8,4.5c0.1,0,0.2,0,0.3,0c0.4-2.8,0.9-5.5,1.4-8.6c0.4,1.9,0.7,3.4,1,5c0.7-2.6,0.9-5.1,1.7-7.6
		c0.3,1.3,0.6,2.6,0.9,4.3c0.3-1.7,0.5-3.1,0.7-4.5c0.1-0.6,0.5-1.1,1.1-1.1c0.6,0,0.4,0.7,0.5,1.1c0,0.1,0,0.3,0.2,0.4
		c0.2,0,0.2-0.2,0.2-0.4c-0.2-1.3,0.6-1.9,1.7-2.4c2.1-1,4.2-2,6.2-3.1c0.4-0.2,0.9-0.3,1-0.8c1.5-0.8,2.9-1.5,4.3-2.3
		c0.6,1.7,0.4,3.6,1.2,5.3c0.3-1.5,0.5-2.9,0.8-4.4c0.1,0,0.1,0,0.2,0c0.4,2.8,0.8,5.5,1.3,8.3c0.1,0,0.2,0,0.3,0
		c0.3-1.5,0.6-3,0.8-4.5c0.5,2.1,0.8,4.1,1.2,6.1c0,0.3-0.1,0.8,0.4,0.7c0.4,0,0.5-0.4,0.5-0.7c0.2-0.8,0.3-1.5,0.4-2.3
		c0.5,0.5,0.3,1,0.4,1.5c0.1,0.5,0.3,0.9,0.9,0.5c1.4-1,3.4-1.1,4.3-3c0.1-0.1,0.3-0.3,0.4-0.3c0.8,0.5,1.3-0.4,2-0.4
		c0.4,2.3,0.8,4.6,1.2,6.9c0.5-2.8,1.2-5.6,1.3-8.5c0.1-0.2,0.3-0.3,0.5-0.2c0.5,1.2,0.4,2.6,0.9,4.1c0.6-2-0.1-4.2,2.1-5.3
		c0.1,0.5,0.3,0.9,0.4,1.4c0.1,0,0.1,0,0.2,0c0.2-1,0.3-2.1,0.4-3.2c0.2-0.4,0.6-0.6,0.9-0.9c0.9-0.7,1.9-1.2,2.3-2.4
		c4.5,4.7,9.6,8.6,15.8,10.7c1.5,0.5,2.6,1.1,2.3,3.1c0.4-0.6,0.4-1,0.5-1.5c0.1-0.3,0.1-0.6,0.5-0.5c0.3,0,0.6,0,0.7,0.3
		c0.1,0.3,0.2,0.6,0.2,0.9c0.2,1.4,0.4,2.8,0.6,4.3c0.1,0,0.1,0,0.2,0c0.3-1.5,0.6-3,0.9-4.5c0.1,0,0.1,0,0.2,0
		c0.4,2.8,0.8,5.5,1.3,8.2c0.1,0,0.1,0,0.2,0c0.3-1.5,0.6-3,0.8-4.5c0.1,0,0.1,0,0.2,0c0.5,3.1,0.9,6.3,1.4,9.4c0.1,0,0.2,0,0.2,0
		c0.5-3.2,0.9-6.3,1.4-9.5c0.6,1.5,0.6,3,1.2,4.8c0.5-3,0.9-5.7,1.3-8.5c0.1,0,0.1,0,0.2,0c0.3,1.5,0.6,3,0.9,4.8
		c0.1-0.4,0.2-0.5,0.2-0.7c0.2-1.3,0.5-2.7,0.6-4c0.1-0.6,0.4-0.8,0.9-0.9c0.7-0.1,0.4,0.5,0.6,0.8c0.1,0.3,0,0.6,0.3,0.9
		c0.4-2,0.4-2,1.1-2.2c6.9-2,12.6-6,17.5-11.1c0.5,0.8,1.5,1,2.1,1.6c0.8,0.7,1.2,2,2.6,2c0.1,0,0.2,0.2,0.3,0.4c0.3,2,0.5,4,0.8,6
		c0.4-1,0.6-2.1,0.9-3.2c0.1-0.3,0-0.8,0.6-0.7l0,0c0,0.1,0.1,0.3,0.3,0.3l0,0c0.1,2.9,0.8,5.7,1.2,8.5c0.6-2.3,0.7-4.6,1.3-6.9
		c0.5,0,0.8,0.3,1.2,0.6c1.7,1,3.4,2,5.2,3c0.2-1,0.3-1.7,0.5-2.5c0.4,0.8,0.6,1.6,0.5,2.5c0,0.5,0.2,0.7,0.5,0.7
		c0.5,0.1,0.4-0.4,0.4-0.7c0.3-2.1,0.7-4.2,1-6.3c0.1,0,0.1,0,0.2,0c0.3,1.5,0.6,3,0.9,4.4c0.1,0,0.1,0,0.2,0
		c0.4-2.8,0.8-5.5,1.3-8.3c0.5,1.6,0.6,3.1,1.2,4.6C163.2,20.3,163.6,18.5,163.7,16.8z M114.7,64.3c-0.1,0-0.1,0-0.2,0
		c-0.3-3.1-0.6-6.2-0.9-9.3c-0.1,0-0.2,0-0.3,0c-0.3,3-0.6,6.1-0.9,9.1c-0.1,0-0.1,0-0.2,0c-0.4-2.6-0.8-5.1-1.3-7.7
		c-0.1,0-0.1,0-0.2,0c-0.3,1.4-0.6,2.7-0.9,4.1c-0.1,0-0.1,0-0.2,0c-0.4-2.5-0.8-5.1-1.3-7.6c-0.1,0-0.2,0-0.2,0
		c-0.3,1.3-0.6,2.6-0.8,3.9c-0.1,0-0.1,0-0.2,0c-0.4-2.6-0.8-5.2-1.2-7.7c-0.6,1.3-0.6,2.7-1.2,4.2c-0.5-2.8-0.9-5.4-1.3-8
		c-0.1,0-0.1,0-0.2,0c-0.3,1.4-0.6,2.7-0.9,4.1c-0.1,0-0.1,0-0.2,0c-0.4-2.6-0.8-5.2-1.3-7.8c-0.1,0-0.1,0-0.2,0
		c-0.3,1.4-0.6,2.8-0.9,4.2c-0.1,0-0.1,0-0.2,0c-0.4-2.6-0.9-5.2-1.3-7.9c-0.1,0-0.1,0-0.2,0c-0.3,1.4-0.6,2.8-0.8,4.2
		c-0.1,0-0.1,0-0.2,0c-0.2-1.5-0.3-2.9-0.5-4.5c-1.3,2.4-0.3,13.9,1.6,19.3c0.4-1.8,0.5-3.5,1.1-5.3c0.5,3,0.9,5.9,1.3,8.8
		c0.1,0,0.1,0,0.2,0c0.3-1.6,0.6-3.2,0.9-4.8c0.1,0,0.1,0,0.2,0c0.4,2.8,0.8,5.6,1.3,8.4c0.1,0,0.2,0,0.2,0c0.3-1.5,0.6-3.1,0.9-4.6
		c0.1,0,0.1,0,0.2,0c0.4,2.8,0.9,5.5,1.3,8.3c0.1,0,0.1,0,0.2,0c0.3-1.5,0.6-3,0.8-4.6c0.1,0,0.1,0,0.2,0c0.4,2.8,0.8,5.5,1.2,8.3
		c0.1,0,0.2,0,0.2,0c0.3-1.5,0.6-3.1,0.9-4.6c0.1,0,0.1,0,0.2,0c0.4,2.8,0.9,5.5,1.3,8.3c0.1,0,0.2,0,0.2,0c0.3-1.5,0.6-3,0.8-4.6
		c0.1,0,0.1,0,0.2,0c0.5,3.2,0.9,6.3,1.4,9.4c0.1,0,0.2,0,0.2,0c0.5-3.1,0.9-6.3,1.4-9.4c0.1,0,0.1,0,0.2,0c0.3,1.5,0.6,3,0.8,4.6
		c0.1,0,0.1,0,0.2,0c0.4-2.8,0.9-5.6,1.3-8.3c0.1,0,0.1,0,0.2,0c0.3,1.5,0.6,3,0.8,4.5c0.1,0,0.2,0,0.2,0c0.4-2.7,0.8-5.5,1.3-8.2
		c0.1,0,0.1,0,0.2,0c0.3,1.5,0.6,3,0.8,4.6c0.1,0,0.1,0,0.2,0c0.4-2.8,0.8-5.6,1.3-8.4c0.1,0,0.1,0,0.2,0c0.3,1.6,0.6,3.2,0.9,4.7
		c0.1,0,0.1,0,0.2,0c0.4-2.8,0.8-5.7,1.3-8.5c0.1,0,0.1,0,0.2,0c0.3,1.6,0.6,3.2,0.9,4.8c0.1,0,0.1,0,0.2,0c0.4-2.9,0.9-5.7,1.4-8.9
		c0.4,2,0.7,3.6,1,5.5c2.1-6.2,3-17.5,1.6-19.1c-0.2,1.5-0.3,3-0.5,4.4c-0.1,0-0.1,0-0.2,0c-0.3-1.4-0.6-2.9-0.9-4.3
		c-0.1,0-0.1,0-0.2,0c-0.4,2.6-0.9,5.2-1.3,7.8c-0.1,0-0.1,0-0.2,0c-0.3-1.4-0.6-2.8-0.9-4.2c-0.1,0-0.1,0-0.2,0
		c-0.4,2.6-0.9,5.3-1.3,7.9c-0.1,0-0.1,0-0.2,0c-0.3-1.3-0.6-2.7-0.8-4c-0.1,0-0.1,0-0.2,0c-0.4,2.6-0.9,5.2-1.3,7.8
		c-0.1,0-0.1,0-0.2,0c-0.3-1.4-0.6-2.7-0.9-4.1c-0.1,0-0.1,0-0.2,0c-0.4,2.6-0.9,5.2-1.3,7.8c-0.1,0-0.1,0-0.2,0
		c-0.3-1.4-0.6-2.7-0.9-4.1c-0.1,0-0.1,0-0.2,0c-0.4,2.6-0.8,5.2-1.3,7.7c-0.1,0-0.1,0-0.2,0c-0.3-1.3-0.6-2.7-0.9-4.1
		c-0.1,0-0.1,0-0.2,0C115.6,59.1,115.1,61.7,114.7,64.3z M131.7,103.3c-0.1,0-0.2,0-0.3,0c-1,6.5,0.2,12.7,1.9,19.2
		c0.4-1.9,0.7-3.6,1-5.2c0.1,0,0.1,0,0.1,0c0.4,2.8,0.9,5.7,1.3,8.5c0.1,0,0.1,0,0.2,0c0.3-1.6,0.6-3.2,0.9-4.7c0.1,0,0.1,0,0.2,0
		c0.4,2.8,0.8,5.6,1.3,8.4c0.1,0,0.1,0,0.2,0c0.3-1.6,0.6-3.1,0.9-4.7c0.1,0,0.1,0,0.1,0c0.4,2.8,0.9,5.6,1.3,8.3c0.1,0,0.1,0,0.2,0
		c0.3-1.5,0.6-3,0.9-4.5c0.1,0,0.1,0,0.2,0.1c0.4,2.8,0.8,5.5,1.3,8.3c0.1,0,0.1,0,0.2,0c0.3-1.5,0.6-3,0.9-4.5c0.1,0,0.1,0,0.2,0
		c0.4,2.7,0.9,5.5,1.3,8.2c0.1,0,0.2,0,0.2,0c0.3-1.5,0.6-3,0.9-4.6c0.1,0,0.1,0,0.2,0c0.5,3.2,0.9,6.4,1.4,9.6c0.1,0,0.1,0,0.2,0
		c0.5-3.1,0.9-6.3,1.4-9.4c0.1,0,0.1,0,0.2,0c0.3,1.5,0.6,3,0.9,4.6c0.1,0,0.1,0,0.2,0c0.4-2.8,0.9-5.5,1.3-8.3c0.1,0,0.1,0,0.2,0
		c0.3,1.5,0.6,3.1,0.9,4.6c0.1,0,0.1,0,0.2,0c0.4-2.8,0.8-5.6,1.3-8.4c0.1,0,0.1,0,0.2,0c0.3,1.5,0.6,3,0.9,4.6c0.1,0,0.1,0,0.2,0
		c0.4-2.8,0.9-5.6,1.3-8.3c0.1,0,0.1,0,0.1,0c0.3,1.6,0.6,3.2,0.9,4.7c0.1,0,0.1,0,0.2,0c0.4-2.8,0.9-5.6,1.3-8.4c0.1,0,0.1,0,0.2,0
		c0.3,1.6,0.6,3.1,0.9,4.7c0.1,0,0.1,0,0.2,0c0.4-2.8,0.9-5.6,1.3-8.5c0.1,0,0.1,0,0.1,0c0.3,1.6,0.6,3.2,1,5.1
		c1.7-6.4,2.9-12.7,1.6-19.1c-0.2,1.4-0.3,2.9-0.5,4.3c-0.1,0-0.1,0-0.2,0c-0.3-1.4-0.6-2.8-0.9-4.2c-0.1,0-0.1,0-0.2,0
		c-0.4,2.7-0.9,5.3-1.3,7.9c-0.1,0-0.1,0-0.2,0c-0.3-1.4-0.6-2.8-0.9-4.2c-0.1,0-0.1,0-0.2,0c-0.4,2.6-0.9,5.2-1.3,7.9
		c-0.1,0-0.1,0-0.2,0c-0.3-1.4-0.6-2.8-0.9-4.2c-0.1,0-0.1,0-0.1,0c-0.4,2.7-0.9,5.3-1.3,7.9c-0.1,0-0.1,0-0.1,0
		c-0.3-1.4-0.6-2.7-0.9-4.1c-0.1,0-0.1,0-0.2,0c-0.4,2.6-0.8,5.2-1.3,7.8c-0.1,0-0.1,0-0.2,0c-0.3-1.3-0.6-2.7-0.9-4
		c-0.1,0-0.1,0-0.2,0c-0.4,2.6-0.9,5.2-1.3,7.8c-0.1,0-0.1,0-0.2,0c-0.3-1.4-0.6-2.7-0.9-4.1c-0.1,0-0.1,0-0.2,0
		c-0.4,2.6-0.8,5.1-1.3,7.7c-0.1,0-0.1,0-0.2,0c-0.3-3-0.6-6.1-0.9-9.1c-0.1,0-0.2,0-0.3,0c-0.3,3-0.6,6.1-0.9,9.1
		c-0.1,0-0.1,0-0.2,0c-0.4-2.6-0.8-5.2-1.3-7.8c-0.6,1.3-0.6,2.8-1.2,4.3c-0.5-2.8-0.9-5.4-1.3-8c-0.1,0-0.1,0-0.2,0
		c-0.3,1.3-0.6,2.7-0.9,4.1c-0.1,0-0.1,0-0.2,0c-0.4-2.6-0.9-5.2-1.3-7.8c-0.6,1.3-0.6,2.8-1.2,4.3c-0.5-2.9-0.9-5.5-1.3-8.1
		c-0.1,0-0.1,0-0.2,0c-0.3,1.4-0.6,2.8-0.9,4.2c-0.1,0-0.1,0-0.2,0c-0.4-2.6-0.9-5.3-1.3-7.9c-0.5,1.4-0.7,2.9-1.2,4.5
		c-0.5-2.9-0.9-5.6-1.3-8.2c-0.1,0-0.1,0-0.1,0c-0.3,1.4-0.6,2.8-0.9,4.2c-0.1,0-0.1,0-0.2,0C132,106.2,131.8,104.8,131.7,103.3z
		 M128.8,171.6c1.7-6.6,2.9-12.8,1.6-19.2c-0.2,1.5-0.4,2.9-0.6,4.4c-0.1,0-0.1,0-0.2,0c-0.3-1.4-0.6-2.7-0.9-4.1
		c-0.1,0-0.1,0-0.2,0c-0.4,2.6-0.9,5.3-1.3,7.9c-0.1,0-0.1,0-0.2,0c-0.3-1.4-0.6-2.8-0.9-4.2c-0.1,0-0.1,0-0.2,0
		c-0.4,2.6-0.9,5.2-1.3,7.9c-0.1,0-0.1,0-0.2,0c-0.3-1.4-0.6-2.8-0.9-4.1c-0.1,0-0.1,0-0.2,0c-0.4,2.6-0.9,5.2-1.3,7.8
		c-0.1,0-0.1,0-0.2,0c-0.3-1.4-0.6-2.7-0.8-4.1c-0.1,0-0.1,0-0.2,0c-0.4,2.6-0.9,5.3-1.3,7.9c-0.1,0-0.1,0-0.2,0
		c-0.3-1.4-0.6-2.7-0.9-4.1c-0.1,0-0.1,0-0.2,0c-0.4,2.6-0.8,5.1-1.3,8c-0.6-1.6-0.5-3.1-1.2-4.6c-0.4,2.8-0.9,5.3-1.3,7.8
		c-0.1,0-0.2,0-0.2,0c-0.3-3-0.6-6.1-0.9-9.1c-0.1,0-0.2,0-0.2,0c-0.3,3.1-0.6,6.2-0.9,9.3c-0.1,0-0.1,0-0.2,0
		c-0.4-2.6-0.8-5.2-1.3-7.8c-0.1,0-0.1,0-0.2,0c-0.3,1.4-0.6,2.7-0.9,4c-0.1,0-0.1,0-0.2,0c-0.4-2.6-0.8-5.1-1.3-7.6
		c-0.1,0-0.2,0-0.2,0c-0.3,1.3-0.6,2.7-0.8,4c-0.1,0-0.1,0-0.2,0c-0.4-2.6-0.8-5.3-1.3-7.9c-0.1,0-0.1,0-0.2,0
		c-0.3,1.4-0.6,2.7-0.9,4.1c-0.1,0-0.1,0-0.2,0c-0.4-2.6-0.9-5.2-1.3-7.8c-0.1,0-0.1,0-0.2,0c-0.3,1.4-0.6,2.7-0.9,4.1
		c-0.1,0-0.1,0-0.2,0c-0.4-2.6-0.8-5.1-1.3-7.7c-0.1,0-0.1,0-0.2,0c-0.3,1.4-0.6,2.7-0.9,4.1c-0.1,0-0.1,0-0.2,0
		c-0.4-2.6-0.9-5.3-1.3-7.9c-0.1,0-0.1,0-0.2,0c-0.3,1.4-0.6,2.9-0.9,4.3c-0.1,0-0.1,0-0.2,0c-0.2-1.4-0.3-2.9-0.5-4.3
		c-0.1,0-0.2,0-0.3,0c-1,6.4,0.1,12.6,1.9,19c0.4-1.8,0.5-3.5,1.1-5.2c0.5,3,0.9,5.9,1.3,8.7c0.1,0,0.1,0,0.2,0
		c0.3-1.6,0.6-3.1,0.9-4.7c0.1,0,0.1,0,0.2,0c0.4,2.8,0.8,5.6,1.3,8.3c0.1,0,0.1,0,0.2,0c0.3-1.6,0.6-3.1,0.9-4.7c0.1,0,0.1,0,0.2,0
		c0.4,2.8,0.9,5.5,1.3,8.3c0.1,0,0.1,0,0.2,0c0.3-1.5,0.6-3,0.9-4.6c0.1,0,0.1,0,0.2,0c0.4,2.8,0.8,5.5,1.2,8.3c0.1,0,0.2,0,0.2,0
		c0.3-1.5,0.6-3,0.9-4.5c0.1,0,0.1,0,0.2,0c0.4,2.8,0.8,5.5,1.3,8.3c0.1,0,0.2,0,0.2,0c0.3-1.5,0.6-3,0.9-4.5c0.1,0,0.1,0,0.2,0
		c0.5,3.2,0.9,6.3,1.4,9.5c0.1,0,0.2,0,0.2,0c0.5-3.2,0.9-6.3,1.4-9.5c0.1,0,0.1,0,0.2,0c0.3,1.5,0.6,3.1,0.8,4.6c0.1,0,0.1,0,0.2,0
		c0.4-2.8,0.9-5.6,1.3-8.4c0.1,0,0.1,0,0.2,0c0.3,1.6,0.6,3.1,0.9,4.7c0.1,0,0.1,0,0.2,0c0.4-2.8,0.8-5.5,1.3-8.3c0.1,0,0.1,0,0.2,0
		c0.3,1.5,0.6,3.1,0.8,4.6c0.1,0,0.1,0,0.2,0c0.4-2.8,0.9-5.6,1.3-8.4c0.1,0,0.1,0,0.1,0c0.3,1.5,0.6,3.1,0.9,4.6c0.1,0,0.2,0,0.3,0
		c0.4-2.7,0.8-5.3,1.2-8c0.1,0,0.2,0,0.2,0c0.3,1.5,0.6,3,0.9,4.6c0.1,0,0.1,0,0.1,0c0.4-2.8,0.9-5.7,1.3-8.5c0.1,0,0.1,0,0.2,0
		C128.2,168.1,128.5,169.7,128.8,171.6z M134.2,79.1c0.1,0,0.1,0,0.1,0c0.4,2.8,0.9,5.7,1.4,8.8c0.5-1.8,0.5-3.4,1.2-5.2
		c0.5,3.1,0.9,5.8,1.3,8.6c0.1,0,0.1,0,0.2,0c0.3-1.6,0.6-3.1,0.9-4.7c0.1,0,0.1,0,0.2,0c0.4,2.8,0.9,5.6,1.3,8.4c0.1,0,0.1,0,0.2,0
		c0.3-1.5,0.6-3.1,0.9-4.6c0.1,0,0.1,0,0.2,0c0.4,2.8,0.8,5.6,1.3,8.3c0.1,0,0.1,0,0.2,0c0.3-1.5,0.6-3,0.9-4.5c0.1,0,0.1,0,0.2,0
		c0.4,2.7,0.8,5.5,1.3,8.2c0.1,0,0.1,0,0.2,0c0.3-1.5,0.6-3,0.9-4.6c0.1,0,0.1,0,0.2,0.1c0.5,3.1,0.9,6.2,1.4,9.4c0.1,0,0.2,0,0.3,0
		c0.5-3.1,0.9-6.3,1.4-9.4c0.1,0,0.1,0,0.2,0c0.3,1.5,0.6,3,0.9,4.6c0.1,0,0.1,0,0.2,0c0.4-2.8,0.9-5.5,1.3-8.3c0.1,0,0.1,0,0.2,0
		c0.3,1.5,0.6,3,0.9,4.5c0.1,0,0.2,0,0.2,0c0.4-2.8,0.8-5.5,1.3-8.2c0.1,0,0.1,0,0.2,0c0.3,1.5,0.6,3,0.9,4.6c0.1,0,0.1,0,0.2,0
		c0.4-2.8,0.9-5.5,1.3-8.3c0.1,0,0.1,0,0.2,0c0.3,1.6,0.6,3.1,0.9,4.7c0.1,0,0.1,0,0.2,0c0.4-2.8,0.9-5.7,1.3-8.5c0.1,0,0.1,0,0.2,0
		c0.3,1.6,0.6,3.2,0.9,4.8c0.1,0,0.1,0,0.1,0c0.4-2.8,0.9-5.7,1.3-8.5c0.1,0,0.1,0,0.2,0c0.3,1.6,0.6,3.3,0.9,4.9
		c0.8-3.2,1.8-6.3,2.1-9.4c0.3-3.1,0.4-6.4-0.2-9.5c-0.1,0-0.2,0-0.3,0c-0.2,1.4-0.3,2.9-0.5,4.3c-0.5-1.4-0.7-2.8-1.2-4.5
		c-0.5,3-0.9,5.6-1.4,8.7c-0.4-1.7-0.7-3.2-1-4.6c-0.1,0-0.1,0-0.2,0c-0.4,2.6-0.8,5.2-1.3,7.7c-0.1,0-0.1,0-0.2,0
		c-0.3-1.3-0.6-2.7-0.9-4.1c-0.1,0-0.1,0-0.2,0c-0.4,2.6-0.9,5.2-1.3,8.1c-0.6-1.6-0.5-3-1.2-4.5c-0.5,2.9-0.9,5.4-1.3,8
		c-0.5-1.4-0.6-2.8-1.3-4.1c-0.4,2.6-0.8,5.1-1.3,7.7c-0.1,0-0.1,0-0.2,0c-0.3-1.4-0.6-2.7-0.9-4.1c-0.1,0-0.1,0-0.2,0
		c-0.4,2.6-0.8,5.1-1.3,7.7c-0.1,0-0.1,0-0.2,0c-0.3-3.1-0.6-6.1-0.9-9.1c-0.1,0-0.2,0-0.3,0c-0.3,3.1-0.6,6.2-0.9,9.3
		c-0.1,0-0.1,0-0.2,0c-0.4-2.6-0.9-5.2-1.3-7.8c-0.1,0-0.1,0-0.2,0c-0.3,1.4-0.6,2.7-0.9,4.1c-0.1,0-0.1,0-0.2,0
		c-0.4-2.6-0.9-5.1-1.3-7.7c-0.1,0-0.1,0-0.2,0c-0.3,1.3-0.6,2.7-0.9,4c-0.1,0-0.1,0-0.2,0c-0.4-2.6-0.9-5.2-1.3-7.8
		c-0.1,0-0.1,0-0.2,0c-0.3,1.4-0.6,2.7-0.9,4.1c-0.1,0-0.1,0-0.2,0c-0.4-2.6-0.9-5.2-1.3-7.8c-0.1,0-0.1,0-0.2,0
		c-0.3,1.4-0.6,2.8-0.9,4.2c-0.1,0-0.1,0-0.2,0c-0.4-2.6-0.9-5.3-1.3-7.9c-0.1,0-0.1,0-0.2,0c-0.3,1.4-0.6,2.7-0.9,4.1
		c-0.1,0-0.1,0-0.2,0c-0.4-2.6-0.9-5.3-1.3-7.9c-0.1,0-0.1,0-0.1,0c-0.3,1.4-0.6,2.7-0.9,4.4c-0.4-1.7-0.5-3.1-0.8-4.5
		c-1.3,6.4,0,12.7,1.7,19.2C133.6,82.3,133.9,80.7,134.2,79.1z M116.1,151.5c0.1,0,0.2,0,0.2,0c0.4-2.8,0.8-5.6,1.3-8.4
		c0.1,0,0.1,0,0.2,0c0.3,1.5,0.6,3,0.9,4.6c0.1,0,0.1,0,0.2,0c0.4-2.7,0.8-5.5,1.3-8.2c0.1,0,0.1,0,0.2,0c0.3,1.5,0.6,3,0.9,4.6
		c0.1,0,0.1,0,0.2-0.1c0.4-2.7,0.8-5.5,1.3-8.2c0.1,0,0.1,0,0.2,0c0.3,1.5,0.6,3,0.8,4.5c0.1,0,0.2,0,0.2,0c0.4-2.8,0.8-5.6,1.3-8.3
		c0.6,1.6,0.6,3.2,1.2,4.9c0.5-3.1,0.9-5.9,1.3-8.8c0,0,0.1,0,0.1,0c0.3,1.6,0.6,3.3,1,5.2c1.7-6.5,2.9-12.7,1.7-19.2
		c-0.3,1.4-0.3,2.8-0.9,4.1c-0.3-1.3-0.6-2.7-0.9-4c-0.1,0-0.1,0-0.1,0c-0.4,2.7-0.9,5.3-1.3,8c-0.1,0-0.1,0-0.2,0
		c-0.3-1.4-0.6-2.8-0.9-4.3c-0.1,0-0.1,0-0.2,0c-0.4,2.6-0.9,5.2-1.3,7.9c-0.1,0-0.1,0-0.2,0c-0.3-1.4-0.6-2.8-0.9-4.5
		c-0.5,3-0.9,5.7-1.4,8.3c-0.1,0-0.1,0-0.2,0c-0.3-1.4-0.6-2.7-0.9-4.1c-0.1,0-0.1,0-0.2,0c-0.4,2.6-0.9,5.2-1.3,7.8
		c-0.1,0-0.1,0-0.2,0c-0.3-1.4-0.6-2.7-0.9-4.1c-0.1,0-0.1,0-0.2,0c-0.4,2.6-0.8,5.2-1.3,7.8c-0.1,0-0.1,0-0.2,0
		c-0.3-1.4-0.6-2.7-0.9-4.1c-0.1,0-0.1,0-0.2,0.1c-0.4,2.6-0.8,5.1-1.3,7.7c-0.1,0-0.1,0-0.2,0c-0.3-3-0.6-6.1-0.9-9.1
		c-0.1,0-0.2,0-0.3,0c-0.3,3-0.6,6.1-0.9,9.1c-0.1,0-0.2,0-0.2,0c-0.4-2.6-0.8-5.1-1.2-7.7c-0.1,0-0.1,0-0.2,0
		c-0.3,1.4-0.6,2.7-0.9,4.1c-0.1,0-0.1,0-0.2-0.1c-0.4-2.6-0.8-5.1-1.3-7.7c-0.1,0-0.1,0-0.2,0c-0.3,1.4-0.6,2.7-0.9,4
		c-0.1,0-0.1,0-0.2,0c-0.4-2.6-0.8-5.1-1.3-7.7c-0.1,0-0.2,0-0.2,0c-0.3,1.3-0.6,2.7-0.9,4c-0.1,0-0.1,0-0.2,0
		c-0.4-2.6-0.9-5.2-1.3-7.8c-0.1,0-0.1,0-0.2,0c-0.3,1.3-0.6,2.7-0.9,4.1c-0.1,0-0.1,0-0.2-0.1c-0.4-2.6-0.9-5.2-1.3-7.9
		c-0.1,0-0.1,0-0.2,0c-0.3,1.4-0.6,2.8-0.9,4.2c-0.1,0-0.1,0-0.2,0c-0.4-2.6-0.9-5.2-1.3-7.9c-0.5,1.3-0.7,2.7-1.3,4
		c-0.2-1.4-0.3-2.8-0.5-4.3c-1.3,6.5-0.2,12.7,1.6,19.2c0.4-1.9,0.7-3.6,1-5.2c0,0,0.1,0,0.1,0c0.4,2.9,0.9,5.8,1.3,8.6
		c0.1,0,0.1,0,0.2,0c0.3-1.6,0.6-3.2,0.9-4.8c0.1,0,0.1,0,0.2,0c0.4,2.8,0.8,5.6,1.3,8.3c0.1,0,0.2,0,0.2,0c0.3-1.5,0.6-3,0.9-4.5
		c0.1,0,0.1,0,0.2,0c0.4,2.7,0.9,5.5,1.3,8.2c0.1,0,0.1,0,0.2,0c0.3-1.5,0.6-3,0.9-4.5c0.1,0,0.1,0,0.2,0c0.4,2.8,0.8,5.5,1.2,8.2
		c0.1,0,0.2,0,0.2,0c0.3-1.5,0.6-3,0.9-4.5c0.1,0,0.1,0,0.2,0c0.4,2.8,0.8,5.5,1.3,8.2c0.1,0,0.1,0,0.2,0c0.3-1.5,0.6-3.1,0.9-4.6
		c0.1,0,0.1,0,0.2,0.1c0.5,3.1,0.9,6.3,1.4,9.4c0.1,0,0.2,0,0.2,0c0.5-3.1,0.9-6.3,1.4-9.4c0.1,0,0.1,0,0.2,0
		C115.5,148.5,115.8,150,116.1,151.5z M149.9,244.6c-0.1,0-0.1,0-0.2,0c-0.3-3-0.6-6.1-0.9-9.1c-0.1,0-0.2,0-0.3,0
		c-0.3,3-0.6,6.1-0.9,9.1c-0.1,0-0.1,0-0.2,0c-0.4-2.6-0.8-5.1-1.3-7.6c-0.1,0-0.1,0-0.2,0c-0.3,1.3-0.6,2.6-0.9,3.9
		c-0.1,0-0.1,0-0.2,0c-0.4-2.6-0.8-5.1-1.3-7.7c-0.1,0-0.1,0-0.2,0c-0.3,1.4-0.6,2.7-0.9,4.1c-0.1,0-0.1,0-0.2,0
		c-0.4-2.6-0.9-5.2-1.3-7.8c-0.1,0-0.1,0-0.2,0c-0.3,1.4-0.6,2.7-0.9,4.1c-0.1,0-0.1,0-0.2,0c-0.4-2.6-0.9-5.2-1.3-7.8
		c-0.1,0-0.1,0-0.2,0c-0.3,1.4-0.6,2.7-0.9,4.1c-0.1,0-0.1,0-0.2,0c-0.4-2.6-0.9-5.3-1.3-7.9c-0.1,0-0.1,0-0.2,0
		c-0.3,1.4-0.6,2.8-0.9,4.2c-0.1,0-0.1,0-0.2,0c-0.4-2.6-0.9-5.3-1.3-7.9c-0.1,0-0.1,0-0.1,0c-0.3,1.4-0.6,2.8-0.9,4.1
		c-0.1,0-0.1,0-0.2,0c-0.2-1.4-0.4-2.9-0.6-4.6c-1.2,3.7,0,16.6,1.7,19.3c0.3-1.7,0.6-3.3,0.9-4.9c0.1,0,0.1,0,0.1,0
		c0.4,2.8,0.9,5.6,1.3,8.5c0.6-1.4,0.6-3,1.2-4.8c0.5,3.1,0.9,5.8,1.3,8.4c0.1,0,0.1,0,0.2,0c0.3-1.5,0.6-3,0.9-4.5
		c0.1,0,0.1,0,0.2,0c0.4,2.7,0.8,5.5,1.3,8.2c0.1,0,0.1,0,0.2,0c0.3-1.5,0.6-3,0.9-4.5c0.1,0,0.1,0,0.2,0.1c0.4,2.7,0.8,5.5,1.3,8.2
		c0.1,0,0.1,0,0.2,0c0.3-1.5,0.6-3.1,0.9-4.6c0.1,0,0.1,0,0.2,0c0.4,2.8,0.9,5.6,1.3,8.4c0.1,0,0.1,0,0.2,0c0.3-1.5,0.6-3.1,0.9-4.6
		c0.1,0,0.1,0,0.2,0c0.5,3.1,0.9,6.3,1.4,9.4c0.1,0,0.1,0,0.2,0c0.5-3.1,0.9-6.3,1.4-9.4c0.1,0,0.1,0,0.2,0c0.3,1.5,0.6,3,0.9,4.6
		c0.1,0,0.1,0,0.2,0c0.4-2.8,0.9-5.5,1.3-8.3c0.1,0,0.1,0,0.2,0c0.3,1.5,0.6,3,0.9,4.6c0.1,0,0.1,0,0.2,0c0.4-2.8,0.8-5.6,1.3-8.4
		c0.1,0,0.1,0,0.2,0c0.3,1.6,0.6,3.1,0.9,4.7c0.1,0,0.1,0,0.2,0c0.4-2.8,0.9-5.5,1.3-8.3c0.1,0,0.1,0,0.2,0c0.3,1.5,0.6,3,0.9,4.6
		c0.1,0,0.1,0,0.2,0c0.4-2.8,0.9-5.6,1.3-8.4c0.1,0,0.1,0,0.2,0c0.3,1.6,0.6,3.2,0.9,4.8c0.1,0,0.1,0,0.1,0c0.4-2.9,0.9-5.7,1.4-9
		c0.4,2,0.7,3.6,1,5.3c0.6-2.1,1-4.2,1.5-6.3c0.5-2.1,0.8-4.2,0.7-6.4c-0.1-2.1,0.3-4.2-0.6-6.2c-0.2,1.5-0.3,3-0.5,4.4
		c-0.1,0-0.1,0-0.2,0c-0.3-1.4-0.6-2.8-0.9-4.2c-0.1,0-0.1,0-0.2,0c-0.4,2.6-0.9,5.3-1.3,7.9c-0.1,0-0.1,0-0.1,0
		c-0.3-1.4-0.6-2.8-0.9-4.3c-0.1,0-0.1,0-0.2,0c-0.4,2.6-0.9,5.3-1.3,7.9c-0.1,0-0.1,0-0.2,0c-0.3-1.4-0.6-2.7-0.9-4
		c-0.1,0-0.1,0-0.2,0c-0.4,2.6-0.9,5.2-1.3,7.8c-0.1,0-0.1,0-0.2,0c-0.3-1.4-0.6-2.7-0.9-4.1c-0.1,0-0.1,0-0.2,0
		c-0.4,2.6-0.8,5.2-1.3,7.8c-0.1,0-0.1,0-0.2,0c-0.3-1.4-0.6-2.7-0.9-4.1c-0.1,0-0.1,0-0.2,0c-0.4,2.6-0.9,5.2-1.3,7.8
		c-0.1,0-0.1,0-0.2,0c-0.3-1.4-0.6-2.7-0.9-4.1c-0.1,0-0.1,0-0.2,0C150.7,239.5,150.3,242.1,149.9,244.6z M100.6,251.5
		c0.1,0,0.1,0,0.2,0c0.3-1.6,0.6-3.2,0.9-4.8c0.1,0,0.1,0,0.2,0c0.4,2.8,0.8,5.6,1.3,8.5c0.1,0,0.1,0,0.2,0c0.3-1.6,0.6-3.1,0.9-4.7
		c0.1,0,0.1,0,0.2,0c0.4,2.8,0.9,5.5,1.3,8.3c0.1,0,0.1,0,0.2,0c0.3-1.5,0.6-3,0.9-4.6c0.1,0,0.1,0,0.2,0c0.4,2.8,0.8,5.5,1.3,8.3
		c0.1,0,0.2,0,0.2,0c0.3-1.5,0.6-3,0.9-4.6c0.1,0,0.1,0,0.2,0c0.4,2.8,0.9,5.5,1.3,8.3c0.1,0,0.1,0,0.2,0c0.3-1.5,0.6-3,0.8-4.6
		c0.1,0,0.1,0,0.2,0c0.5,3.1,0.9,6.3,1.4,9.4c0.1,0,0.2,0,0.2,0c0.5-3.1,0.9-6.3,1.4-9.4c0.1,0,0.2,0,0.2,0c0.3,1.5,0.6,3,0.8,4.6
		c0.1,0,0.1,0,0.2,0c0.4-2.8,0.9-5.6,1.3-8.4c0.1,0,0.1,0,0.2,0c0.3,1.5,0.6,3,0.9,4.5c0.1,0,0.2,0,0.2,0c0.4-2.7,0.8-5.4,1.2-8.1
		c0.1,0,0.2,0,0.2,0c0.3,1.5,0.6,3,0.9,4.6c0.1,0,0.1,0,0.2,0c0.4-2.8,0.9-5.6,1.3-8.3c0.1,0,0.1,0,0.2,0c0.3,1.5,0.6,3,0.8,4.5
		c0.1,0,0.2,0,0.2,0c0.4-2.7,0.8-5.4,1.2-8.1c0.1,0,0.2,0,0.3,0c0.3,1.5,0.6,3,0.9,4.5c0.1,0,0.1,0,0.1,0c0.4-2.9,0.9-5.7,1.4-8.9
		c0.4,2,0.7,3.6,1,5.4c2-5.1,2.9-16.8,1.6-19.1c-0.2,1.6-0.4,3.1-0.5,4.6c-0.1,0-0.1,0-0.2,0c-0.3-1.4-0.6-2.9-0.9-4.3
		c-0.1,0-0.1,0-0.2,0c-0.4,2.6-0.9,5.2-1.3,7.9c-0.1,0-0.1,0-0.2,0c-0.3-1.4-0.6-2.8-0.9-4.2c-0.1,0-0.1,0-0.2,0
		c-0.4,2.6-0.9,5.2-1.3,7.9c-0.1,0-0.1,0-0.2,0c-0.3-1.4-0.6-2.7-0.8-4.1c-0.1,0-0.1,0-0.2,0c-0.4,2.6-0.9,5.2-1.3,7.8
		c-0.1,0-0.1,0-0.2,0c-0.3-1.4-0.6-2.7-0.8-4.1c-0.1,0-0.1,0-0.2,0c-0.4,2.6-0.9,5.2-1.3,7.9c-0.1,0-0.1,0-0.2,0
		c-0.3-1.4-0.6-2.7-0.8-4.1c-0.1,0-0.1,0-0.2,0c-0.4,2.6-0.9,5.1-1.3,7.7c-0.6-1.3-0.6-2.8-1.2-4.3c-0.5,2.9-0.9,5.4-1.3,7.9
		c-0.1,0-0.1,0-0.2,0c-0.3-3-0.6-6.1-0.9-9.1c-0.1,0-0.2,0-0.3,0c-0.3,3.1-0.6,6.2-0.9,9.3c-0.1,0-0.1,0-0.2,0
		c-0.4-2.6-0.8-5.2-1.3-7.8c-0.1,0-0.1,0-0.2,0c-0.3,1.4-0.6,2.7-0.9,4.1c-0.1,0-0.1,0-0.2,0c-0.4-2.6-0.9-5.2-1.3-7.8
		c-0.1,0-0.1,0-0.2,0c-0.3,1.4-0.6,2.7-0.9,4c-0.1,0-0.1,0-0.2,0c-0.4-2.6-0.8-5.2-1.3-7.8c-0.1,0-0.1,0-0.2,0
		c-0.3,1.4-0.6,2.7-0.9,4.1c-0.1,0-0.1,0-0.2,0c-0.4-2.6-0.9-5.2-1.3-7.8c-0.1,0-0.1,0-0.2,0c-0.3,1.4-0.6,2.7-0.9,4.1
		c-0.1,0-0.1,0-0.2,0c-0.4-2.6-0.9-5.2-1.3-7.9c-0.1,0-0.1,0-0.2,0c-0.3,1.4-0.6,2.8-0.9,4.2c-0.1,0-0.1,0-0.2,0
		c-0.4-2.6-0.9-5.2-1.3-7.9c-0.1,0-0.1,0-0.2,0c-0.3,1.4-0.6,2.9-0.9,4.3c-0.1,0-0.1,0-0.2-0.1c-0.2-1.5-0.3-3-0.5-4.5
		c-1.3,6.5-0.2,12.7,1.6,19.1c0.5-1.7,0.5-3.4,1.1-5.1C99.7,245.9,100.2,248.7,100.6,251.5z M68.3,187.6c-0.1,0-0.2,0-0.2,0
		c-0.3,1.4-0.6,2.7-0.9,4.1c-0.1,0-0.1,0-0.2-0.1c-0.4-2.6-0.9-5.2-1.3-7.8c-0.1,0-0.1,0-0.2,0c-0.3,1.3-0.6,2.7-0.8,4
		c-0.1,0-0.1,0-0.2,0c-0.4-2.6-0.9-5.2-1.3-7.8c-0.6,1.4-0.6,2.8-1.2,4.4c-0.2-1.7-0.4-3.1-0.5-4.7c-1.2,2.7-0.4,11.8,1.6,19.4
		c0.4-1.9,0.7-3.5,1-5.1c0.1,0,0.1,0,0.2,0c0.4,2.8,0.9,5.6,1.3,8.4c0.1,0,0.1,0,0.2,0c0.3-1.6,0.6-3.1,0.9-4.6c0.1,0,0.1,0,0.2,0
		c0.4,2.8,0.8,5.6,1.3,8.3c0.1,0,0.1,0,0.2,0c0.3-1.6,0.6-3.1,0.9-4.7c0.1,0,0.1,0,0.2,0c0.4,2.8,0.8,5.6,1.3,8.3c0.1,0,0.1,0,0.2,0
		c0.3-1.5,0.6-3,0.9-4.6c0.1,0,0.1,0,0.2,0c0.4,2.8,0.8,5.6,1.3,8.3c0.1,0,0.2,0,0.2,0c0.3-1.6,0.6-3.1,0.9-4.6c0.1,0,0.1,0,0.2,0
		c0.4,2.8,0.8,5.6,1.3,8.4c0.1,0,0.1,0,0.2,0c0.3-1.6,0.6-3.1,0.8-4.7c0.1,0,0.1,0,0.2,0c0.5,3.2,1,6.4,1.4,9.5c0.1,0,0.1,0,0.2,0
		c0.5-3.2,1-6.3,1.4-9.5c0.1,0,0.1,0,0.2,0c0.3,1.5,0.6,3.1,0.9,4.6c0.1,0,0.1,0,0.2,0c0.4-2.8,0.8-5.5,1.3-8.3c0.1,0,0.1,0,0.2,0
		c0.3,1.5,0.6,3,0.8,4.6c0.1,0,0.1,0,0.2,0c0.4-2.8,0.9-5.5,1.3-8.3c0.1,0,0.1,0,0.2,0c0.3,1.5,0.6,3.1,0.9,4.6c0.1,0,0.1,0,0.2-0.1
		c0.4-2.8,0.8-5.6,1.3-8.3c0.1,0,0.1,0,0.2,0c0.3,1.6,0.6,3.1,0.9,4.7c0.1,0,0.1,0,0.2,0c0.4-2.8,0.8-5.5,1.3-8.3c0.1,0,0.1,0,0.2,0
		c0.3,1.6,0.6,3.1,0.9,4.7c0.1,0,0.1,0,0.2,0c0.4-2.8,0.9-5.7,1.3-8.5c0.1,0,0.1,0,0.2,0c0.3,1.6,0.6,3.3,0.9,5
		c1.9-4.4,3-17.2,1.6-19c-0.2,1.4-0.4,2.8-0.6,4.2c-0.1,0-0.1,0-0.2,0c-0.3-1.4-0.6-2.8-0.9-4.2c-0.1,0-0.1,0-0.2,0
		c-0.4,2.7-0.9,5.3-1.3,8c-0.1,0-0.1,0-0.2,0c-0.3-1.4-0.6-2.8-0.9-4.2c-0.1,0-0.1,0-0.2,0c-0.4,2.6-0.9,5.3-1.3,7.9
		c-0.1,0-0.1,0-0.2,0c-0.3-1.4-0.6-2.8-0.9-4.2c-0.1,0-0.1,0-0.2,0c-0.4,2.6-0.9,5.2-1.3,7.9c-0.1,0-0.1,0-0.2,0
		c-0.3-1.4-0.6-2.7-0.9-4.1c-0.1,0-0.1,0-0.2,0c-0.4,2.6-0.9,5.2-1.3,7.7c-0.1,0-0.1,0-0.2,0c-0.3-1.3-0.6-2.7-0.8-4
		c-0.1,0-0.2,0-0.2,0c-0.4,2.6-0.8,5.2-1.2,7.8c-0.1,0-0.1,0-0.2,0c-0.3-1.4-0.6-2.7-0.9-4.1c-0.1,0-0.1,0-0.2,0
		c-0.4,2.6-0.9,5.1-1.3,7.7c-0.1,0-0.1,0-0.2,0c-0.3-3.1-0.6-6.1-1-9.2c-0.1,0-0.1,0-0.2,0c-0.3,3-0.6,6-0.9,9.1c-0.1,0-0.2,0-0.2,0
		c-0.4-2.6-0.8-5.1-1.2-7.6c-0.1,0-0.1,0-0.2,0c-0.3,1.4-0.6,2.7-0.9,4.1c-0.1,0-0.1,0-0.2,0c-0.4-2.6-0.9-5.1-1.3-8
		c-0.7,1.5-0.5,2.9-1.2,4.4c-0.4-2.8-0.9-5.3-1.3-7.9c-0.1,0-0.2,0-0.2,0c-0.3,1.3-0.6,2.6-0.8,3.9c-0.1,0-0.1,0-0.2,0
		C69.2,192.7,68.8,190.1,68.3,187.6z M109.2,105c0.1,0,0.1,0,0.2,0c0.4,2.7,0.8,5.4,1.3,8.1c0.1,0,0.2,0,0.2,0
		c0.3-1.5,0.6-2.9,0.8-4.4c0.1,0,0.2,0,0.2,0c0.5,3.1,0.9,6.3,1.4,9.4c0.1,0,0.2,0,0.2,0c0.5-3.2,0.9-6.3,1.4-9.5c0.1,0,0.1,0,0.2,0
		c0.3,1.5,0.6,3.1,0.9,4.6c0.1,0,0.1,0,0.2-0.1c0.4-2.8,0.9-5.6,1.3-8.4c0.1,0,0.1,0,0.2,0c0.3,1.6,0.6,3.1,0.9,4.7
		c0.1,0,0.2,0,0.2,0c0.4-2.7,0.8-5.4,1.2-8.2c0.1,0,0.2,0,0.2,0c0.3,1.5,0.6,3,0.8,4.5c0.1,0,0.1,0,0.2,0c0.4-2.8,0.9-5.6,1.3-8.4
		c0.1,0,0.1,0,0.2,0c0.3,1.5,0.6,3,0.8,4.5c0.1,0,0.2,0,0.3,0c0.4-2.7,0.8-5.5,1.3-8.2c0.1,0,0.1,0,0.2,0c0.3,1.6,0.6,3.1,0.9,4.7
		c0.1,0,0.1,0,0.2,0c0.4-2.8,0.9-5.7,1.3-8.5c0,0,0.1,0,0.1,0c0.3,1.7,0.6,3.3,0.9,5.1c1.9-4.6,3-17.3,1.6-19.1
		c-0.2,1.4-0.3,2.9-0.5,4.3c-0.6-1.4-0.6-2.8-1.2-4.4c-0.5,2.8-0.9,5.5-1.3,8.1c-0.1,0-0.1,0-0.2,0c-0.3-1.4-0.6-2.8-0.9-4.2
		c-0.1,0-0.1,0-0.2,0c-0.4,2.6-0.9,5.3-1.3,7.9c-0.1,0-0.1,0-0.2,0c-0.3-1.4-0.6-2.8-0.9-4.2c-0.1,0-0.1,0-0.2,0
		c-0.4,2.7-0.9,5.3-1.4,8.3c-0.5-1.7-0.5-3.1-1.2-4.7c-0.5,2.9-0.9,5.5-1.3,8.1c-0.1,0-0.1,0-0.2,0c-0.3-1.4-0.6-2.7-0.9-4.1
		c-0.1,0-0.1,0-0.2,0c-0.4,2.6-0.8,5.1-1.3,7.7c-0.1,0-0.2,0-0.2,0c-0.3-1.3-0.6-2.6-0.8-3.9c-0.1,0-0.1,0-0.2,0
		c-0.4,2.6-0.8,5.1-1.3,7.7c-0.1,0-0.1,0-0.2,0c-0.3-3.1-0.6-6.2-0.9-9.2c-0.1,0-0.2,0-0.2,0c-0.3,3.1-0.6,6.2-0.9,9.3
		c-0.1,0-0.1,0-0.2,0c-0.4-2.6-0.8-5.1-1.3-7.7c-0.1,0-0.2,0-0.2,0c-0.3,1.3-0.6,2.7-0.9,4c-0.1,0-0.1,0-0.2,0
		c-0.4-2.6-0.8-5.2-1.3-7.7c-0.1,0-0.2,0-0.2,0c-0.3,1.3-0.6,2.7-0.8,4c-0.1,0-0.1,0-0.2,0c-0.4-2.6-0.8-5.2-1.3-7.7
		c-0.1,0-0.1,0-0.2,0c-0.3,1.4-0.6,2.7-1,4.4c-0.5-3-0.9-5.7-1.4-8.3c-0.1,0-0.1,0-0.2,0c-0.3,1.4-0.6,2.8-0.9,4.2
		c-0.1,0-0.1,0-0.2,0c-0.4-2.6-0.8-5.3-1.3-7.9c-0.1,0-0.1,0-0.2,0c-0.3,1.4-0.6,2.8-0.9,4.2c-0.1,0-0.1,0-0.2,0
		c-0.4-2.6-0.9-5.3-1.3-7.9c-0.1,0-0.1,0-0.2,0c-0.3,1.4-0.6,2.8-0.9,4.2c-0.1,0-0.1,0-0.2,0c-0.2-1.4-0.3-2.9-0.5-4.3
		c-1.2,3.2-0.3,12.9,1.6,19.1c0.3-1.8,0.7-3.4,1-5c0.1,0,0.1,0,0.2,0c0.4,2.8,0.9,5.6,1.3,8.4c0.1,0,0.1,0,0.2,0
		c0.3-1.6,0.6-3.1,0.9-4.7c0.1,0,0.1,0,0.2,0c0.4,2.8,0.8,5.6,1.3,8.3c0.1,0,0.1,0,0.2,0c0.3-1.5,0.6-3,0.9-4.6c0.1,0,0.1,0,0.2,0
		c0.4,2.7,0.8,5.4,1.3,8.2c0.1,0,0.1,0,0.2,0c0.3-1.5,0.6-2.9,0.9-4.4c0.1,0,0.1,0,0.2,0c0.4,2.8,0.8,5.5,1.3,8.2c0.1,0,0.1,0,0.2,0
		C108.7,108,108.9,106.5,109.2,105z M74.1,94.1c0.1,0,0.1,0,0.2,0c0.4,2.8,0.9,5.6,1.3,8.4c0.1,0,0.1,0,0.2,0
		c0.3-1.5,0.6-3.1,0.8-4.6c0.1,0,0.1,0,0.2,0c0.5,3.1,0.9,6.2,1.4,9.4c0.1,0,0.2,0,0.2,0c0.5-3.1,0.9-6.2,1.4-9.4c0.1,0,0.1,0,0.2,0
		c0.3,1.5,0.6,3,0.9,4.5c0.1,0,0.1,0,0.2,0c0.4-2.8,0.8-5.5,1.2-8.3c0.1,0,0.1,0,0.2,0c0.3,1.5,0.6,3.1,0.9,4.6c0.1,0,0.1,0,0.2,0
		c0.4-2.8,0.8-5.5,1.3-8.3c0.1,0,0.1,0,0.2,0c0.3,1.5,0.6,3,0.9,4.6c0.1,0,0.1,0,0.2,0c0.4-2.8,0.8-5.6,1.3-8.4c0.1,0,0.1,0,0.2,0
		c0.3,1.6,0.6,3.1,0.9,4.7c0.1,0,0.1,0,0.2,0c0.4-2.8,0.9-5.7,1.3-8.9c0.4,2,0.7,3.6,1,5.2c0.1,0,0.1,0,0.2,0
		c0.4-2.8,0.9-5.6,1.3-8.4c0.1,0,0.1,0,0.2,0c0.3,1.6,0.6,3.2,0.9,5c2-5.3,2.9-16.8,1.6-19.2c-0.2,1.6-0.4,3-0.6,4.5
		c-0.1,0-0.1,0-0.2,0c-0.3-1.4-0.6-2.8-0.9-4.2c-0.1,0-0.1,0-0.2,0c-0.4,2.6-0.9,5.2-1.3,7.8c-0.1,0-0.1,0-0.2,0
		c-0.3-1.4-0.6-2.8-0.9-4.2c-0.1,0-0.1,0-0.2,0c-0.4,2.7-0.9,5.3-1.3,7.9c-0.1,0-0.1,0-0.2,0c-0.3-1.4-0.6-2.8-0.9-4.2
		c-0.1,0-0.1,0-0.2,0c-0.4,2.6-0.8,5.2-1.3,7.9c-0.5-1.4-0.6-2.8-1.2-4.4c-0.5,2.9-0.9,5.5-1.3,8.1c-0.1,0-0.1,0-0.2,0
		c-0.3-1.3-0.6-2.7-0.9-4.1c-0.1,0-0.2,0-0.2,0c-0.4,2.6-0.8,5.2-1.3,7.7c-0.1,0-0.1,0-0.2,0c-0.3-1.3-0.6-2.7-0.9-4.1
		c-0.1,0-0.1,0-0.2,0c-0.4,2.5-0.8,5.1-1.3,7.6c-0.1,0-0.1,0-0.2,0c-0.3-3-0.6-6.1-0.9-9.1c-0.1,0-0.2,0-0.2,0
		c-0.3,3.1-0.6,6.1-0.9,9.1c-0.1,0-0.1,0-0.2,0c-0.4-2.6-0.8-5.1-1.3-7.7c-0.1,0-0.1,0-0.2,0c-0.3,1.4-0.6,2.7-0.9,4.1
		c-0.1,0-0.1,0-0.2,0c-0.4-2.6-0.9-5.2-1.3-7.7c-0.1,0-0.2,0-0.2,0c-0.3,1.3-0.6,2.6-0.8,3.9c-0.1,0-0.1,0-0.2,0
		c-0.4-2.6-0.8-5.1-1.3-7.7c-0.1,0-0.1,0-0.2,0c-0.3,1.3-0.6,2.7-0.9,4c-0.1,0-0.1,0-0.2,0c-0.4-2.6-0.9-5.2-1.3-7.7
		c-0.1,0-0.2,0-0.2,0c-0.3,1.4-0.6,2.7-0.8,4.1c-0.1,0-0.1,0-0.2,0c-0.4-2.7-0.9-5.3-1.4-8.3c-0.4,1.8-0.7,3.1-1,4.5
		c-0.1,0-0.1,0-0.2,0c-0.4-2.6-0.9-5.2-1.3-7.9c-0.1,0-0.1,0-0.2,0c-0.3,1.4-0.6,2.8-0.9,4.2c-0.1,0-0.1,0-0.2,0
		c-0.2-1.4-0.4-2.9-0.5-4.3c-1.2,3.4-0.3,13.2,1.6,19.2c0.3-1.8,0.7-3.4,1-5.1c0.1,0,0.1,0,0.2,0c0.4,2.8,0.8,5.6,1.3,8.4
		c0.1,0,0.1,0,0.2,0c0.3-1.6,0.6-3.2,0.9-4.7c0.1,0,0.1,0,0.2,0c0.4,2.8,0.9,5.6,1.3,8.4c0.1,0,0.1,0,0.2,0c0.3-1.5,0.6-3.1,0.9-4.6
		c0.1,0,0.1,0,0.2,0.1c0.4,2.7,0.8,5.5,1.3,8.2c0.1,0,0.1,0,0.2,0c0.3-1.5,0.6-3,0.8-4.5c0.1,0,0.1,0,0.2,0c0.4,2.8,0.8,5.6,1.3,8.3
		c0.1,0,0.2,0,0.2,0C73.6,97.2,73.9,95.6,74.1,94.1z M131.7,179.9c-0.1,0-0.2,0-0.3,0c-1.1,6.4,0.2,12.7,1.9,19.2
		c0.4-1.9,0.6-3.6,1-5.2c0.1,0,0.1,0,0.1,0c0.4,2.8,0.9,5.7,1.3,8.5c0.1,0,0.1,0,0.2,0c0.3-1.6,0.6-3.1,0.9-4.7c0.1,0,0.1,0,0.2,0
		c0.4,2.7,0.8,5.5,1.3,8.2c0.1,0,0.2,0,0.2,0c0.3-1.5,0.6-3,0.9-4.5c0.1,0,0.1,0,0.2,0c0.4,2.8,0.9,5.5,1.3,8.3
		c0.7-1.5,0.6-3.1,1.3-4.8c0.5,3,0.9,5.8,1.3,8.6c0.1,0,0.1,0,0.2,0c0.3-1.5,0.6-3,0.9-4.5c0.1,0,0.1,0,0.2,0
		c0.4,2.7,0.8,5.4,1.3,8.2c0.1,0,0.1,0,0.2,0c0.3-1.5,0.6-3.1,0.9-4.6c0.1,0,0.1,0,0.2,0c0.5,3.2,0.9,6.4,1.4,9.5c0.1,0,0.1,0,0.2,0
		c0.5-3.2,0.9-6.4,1.4-9.5c0.1,0,0.1,0,0.2,0c0.3,1.5,0.6,3.1,0.9,4.6c0.1,0,0.1,0,0.2,0c0.4-2.7,0.9-5.5,1.3-8.2c0.1,0,0.1,0,0.2,0
		c0.3,1.5,0.6,3.1,0.9,4.6c0.1,0,0.1,0,0.2,0c0.4-2.8,0.8-5.6,1.3-8.4c0.1,0,0.1,0,0.2,0c0.3,1.5,0.6,3.1,0.9,4.6c0.1,0,0.1,0,0.2,0
		c0.4-2.8,0.9-5.5,1.3-8.3c0.1,0,0.1,0,0.2,0c0.3,1.6,0.6,3.1,0.9,4.7c0.1,0,0.1,0,0.2,0c0.4-2.8,0.8-5.6,1.3-8.4c0.1,0,0.1,0,0.2,0
		c0.3,1.6,0.6,3.1,0.9,4.7c0.1,0,0.1,0,0.2,0c0.4-2.8,0.9-5.6,1.3-8.5c0.1,0,0.1,0,0.1,0c0.3,1.6,0.6,3.3,0.9,4.9
		c0.9-3.2,1.8-6.3,2.1-9.5c0.6-4.6,0.1-8.6-0.6-9.4c-0.2,1.4-0.3,2.9-0.5,4.3c-0.1,0-0.1,0-0.2,0c-0.3-1.4-0.6-2.8-0.9-4.2
		c-0.1,0-0.1,0-0.2,0c-0.4,2.7-0.9,5.3-1.3,8c-0.1,0-0.1,0-0.1,0c-0.3-1.4-0.6-2.8-0.9-4.2c-0.1,0-0.1,0-0.2,0
		c-0.4,2.6-0.8,5.2-1.3,7.9c-0.1,0-0.1,0-0.2,0c-0.3-1.4-0.6-2.8-0.9-4.2c-0.1,0-0.1,0-0.2,0c-0.4,2.6-0.9,5.3-1.3,8
		c-0.1,0-0.1,0-0.1,0c-0.3-1.4-0.6-2.7-0.9-4.1c-0.1,0-0.1,0-0.2,0c-0.4,2.5-0.8,5.1-1.3,7.6c-0.1,0-0.1,0-0.2,0
		c-0.3-1.3-0.6-2.6-0.9-3.9c-0.1,0-0.1,0-0.2,0c-0.4,2.5-0.8,5.1-1.3,7.6c-0.1,0-0.1,0-0.2,0c-0.3-1.3-0.6-2.7-0.9-4
		c-0.1,0-0.1,0-0.2,0c-0.4,2.6-0.8,5.2-1.2,7.8c-0.1,0-0.1,0-0.2,0c-0.3-3.1-0.6-6.1-0.9-9.2c-0.1,0-0.2,0-0.3,0
		c-0.3,3.1-0.6,6.1-0.9,9.2c-0.1,0-0.1,0-0.2,0c-0.4-2.6-0.9-5.2-1.3-7.7c-0.6,1.3-0.6,2.8-1.2,4.3c-0.5-2.8-0.9-5.4-1.3-8
		c-0.1,0-0.1,0-0.2,0c-0.3,1.4-0.6,2.7-0.9,4.1c-0.1,0-0.1,0-0.2,0c-0.4-2.6-0.9-5.3-1.3-7.9c-0.6,1.4-0.6,2.8-1.2,4.3
		c-0.5-2.9-0.9-5.5-1.3-8.1c-0.1,0-0.1,0-0.2,0c-0.3,1.4-0.6,2.8-0.9,4.2c-0.1,0-0.1,0-0.2,0c-0.4-2.7-0.9-5.3-1.3-8
		c-0.5,1.4-0.6,2.9-1.2,4.5c-0.5-2.9-0.9-5.5-1.3-8.2c-0.1,0-0.1,0-0.2,0c-0.3,1.4-0.6,2.9-0.9,4.3c-0.1,0-0.1,0-0.2,0
		C132,182.8,131.8,181.3,131.7,179.9z M88.7,149.2c-0.1,0-0.1,0-0.2,0c-0.4,2.6-0.8,5.2-1.3,7.9c-0.5-1.4-0.6-2.8-1.2-4.3
		c-0.5,2.9-0.9,5.5-1.3,8.1c-0.1,0-0.1,0-0.2,0c-0.3-1.4-0.6-2.7-0.9-4.1c-0.1,0-0.2,0-0.2,0c-0.4,2.5-0.8,5.1-1.3,7.6
		c-0.1,0-0.2,0-0.2,0c-0.3-1.3-0.6-2.6-0.8-3.9c-0.1,0-0.1,0-0.2,0c-0.4,2.5-0.8,5.1-1.3,7.6c-0.1,0-0.1,0-0.2,0
		c-0.3-3-0.6-6.1-1-9.1c-0.1,0-0.1,0-0.2,0c-0.3,3.1-0.6,6.1-0.9,9.1c-0.1,0-0.1,0-0.2,0c-0.4-2.6-0.8-5.1-1.3-7.7
		c-0.1,0-0.1,0-0.2,0c-0.3,1.4-0.6,2.7-0.9,4.1c-0.1,0-0.1,0-0.2,0c-0.4-2.6-0.9-5.1-1.3-7.7c-0.1,0-0.2,0-0.2,0
		c-0.3,1.3-0.6,2.6-0.8,3.9c-0.1,0-0.1,0-0.2,0c-0.4-2.6-0.8-5.1-1.3-7.7c-0.1,0-0.1,0-0.2,0c-0.3,1.4-0.6,2.7-0.9,4.1
		c-0.1,0-0.1,0-0.2,0c-0.4-2.6-0.9-5.3-1.3-7.9c-0.1,0-0.1,0-0.2,0c-0.3,1.4-0.6,2.7-0.9,4.1c-0.1,0-0.1,0-0.2,0
		c-0.4-2.6-0.8-5.3-1.3-7.9c-0.1,0-0.1,0-0.2,0c-0.3,1.4-0.6,2.8-0.9,4.2c-0.1,0-0.1,0-0.2,0c-0.4-2.6-0.9-5.3-1.3-7.9
		c-0.1,0-0.1,0-0.2,0c-0.3,1.4-0.6,2.8-0.9,4.2c-0.1,0-0.1,0-0.2,0c-0.2-1.5-0.4-2.9-0.5-4.4c-1.2,6.4-0.2,12.7,1.6,19.1
		c0.3-1.8,0.6-3.4,0.9-5c0.1,0,0.1,0,0.2,0c0.4,2.8,0.8,5.6,1.3,8.3c0.1,0,0.1,0,0.2,0c0.3-1.6,0.6-3.1,0.9-4.7c0.1,0,0.1,0,0.2,0
		c0.4,2.8,0.9,5.7,1.3,8.5c0.1,0,0.1,0,0.2,0c0.3-1.6,0.6-3.1,0.9-4.7c0.1,0,0.1,0,0.2,0c0.4,2.8,0.8,5.5,1.3,8.3c0.1,0,0.1,0,0.2,0
		c0.3-1.5,0.6-3,0.8-4.5c0.1,0,0.1,0,0.2,0c0.4,2.8,0.8,5.5,1.3,8.3c0.1,0,0.2,0,0.2,0c0.3-1.5,0.6-3.1,0.9-4.6c0.1,0,0.1,0,0.2,0
		c0.4,2.8,0.9,5.6,1.3,8.4c0.1,0,0.1,0,0.2,0c0.3-1.6,0.6-3.1,0.9-4.7c0.1,0,0.1,0,0.2,0c0.5,3.1,0.9,6.3,1.4,9.4c0.1,0,0.2,0,0.2,0
		c0.5-3.1,1-6.3,1.4-9.4c0.1,0,0.1,0,0.2,0c0.3,1.5,0.6,3,0.9,4.5c0.1,0,0.1,0,0.2,0c0.4-2.8,0.8-5.6,1.3-8.4c0.1,0,0.1,0,0.2,0
		c0.3,1.5,0.6,3.1,0.9,4.6c0.1,0,0.2,0,0.2,0c0.4-2.8,0.8-5.6,1.3-8.3c0.1,0,0.1,0,0.2,0c0.3,1.6,0.6,3.1,0.9,4.7c0.1,0,0.1,0,0.2,0
		c0.4-2.8,0.8-5.6,1.3-8.4c0.1,0,0.1,0,0.2,0c0.3,1.6,0.6,3.1,0.9,4.7c0.1,0,0.1,0,0.2,0c0.4-2.8,0.9-5.6,1.3-8.5c0,0,0.1,0,0.1,0
		c0.3,1.6,0.6,3.3,0.9,4.9c0.1,0,0.1,0,0.1-0.1c0.4-2.9,0.9-5.7,1.3-8.6c0.1,0,0.1,0,0.2,0c0.3,1.6,0.6,3.2,0.9,5
		c2-4.6,3-17.2,1.6-19c-0.2,1.4-0.4,2.9-0.6,4.4c-0.1,0-0.1,0-0.2,0c-0.3-1.4-0.6-2.8-0.9-4.2c-0.1,0-0.1,0-0.2,0
		c-0.4,2.6-0.9,5.3-1.3,7.9c-0.1,0-0.1,0-0.2,0c-0.3-1.4-0.6-2.8-0.9-4.2c-0.1,0-0.1,0-0.2,0c-0.4,2.6-0.9,5.2-1.3,7.8
		c-0.1,0-0.1,0-0.2,0C89.3,151.9,89,150.6,88.7,149.2z M141.8,166.9c0.1,0,0.1,0,0.2,0c0.4,2.7,0.8,5.5,1.3,8.2c0.1,0,0.1,0,0.2,0
		c0.3-1.5,0.6-3,0.9-4.6c0.1,0,0.1,0,0.2,0c0.4,2.8,0.9,5.6,1.3,8.4c0.1,0,0.1,0,0.2,0c0.3-1.5,0.6-3.1,0.8-4.6c0.1,0,0.1,0,0.2,0
		c0.5,3.1,0.9,6.3,1.4,9.4c0.1,0,0.2,0,0.2,0c0.5-3.1,0.9-6.3,1.4-9.4c0.1,0,0.1,0,0.2,0c0.3,1.5,0.6,3.1,0.9,4.6c0.1,0,0.1,0,0.2,0
		c0.4-2.8,0.9-5.6,1.3-8.3c0.1,0,0.1,0,0.2,0c0.3,1.5,0.6,3.1,0.9,4.6c0.1,0,0.1,0,0.2,0c0.4-2.8,0.8-5.5,1.3-8.2c0.1,0,0.1,0,0.2,0
		c0.3,1.5,0.6,3.1,0.9,4.6c0.1,0,0.1,0,0.2,0c0.4-2.8,0.9-5.6,1.3-8.4c0.1,0,0.1,0,0.1,0c0.3,1.5,0.6,3.1,0.9,4.6c0.1,0,0.1,0,0.2,0
		c0.4-2.8,0.9-5.6,1.3-8.4c0.1,0,0.1,0,0.2,0c0.3,1.6,0.6,3.2,0.9,4.8c0.1,0,0.1,0,0.2,0c0.4-2.9,0.9-5.8,1.4-9
		c0.4,2,0.7,3.6,1.1,5.5c2.1-8.3,2.9-17.3,1.6-19.3c-0.2,1.5-0.3,3-0.5,4.5c-0.5-1.4-0.6-2.9-1.2-4.4c-0.5,2.9-0.9,5.5-1.4,8.1
		c-0.1,0-0.1,0-0.2,0c-0.3-1.4-0.6-2.8-0.9-4.2c-0.1,0-0.1,0-0.2,0c-0.4,2.6-0.9,5.2-1.3,7.9c-0.5-1.4-0.6-2.8-1.2-4.3
		c-0.5,2.8-0.9,5.4-1.3,8c-0.1,0-0.1,0-0.2,0c-0.3-1.3-0.6-2.7-0.8-4c-0.1,0-0.1,0-0.2,0c-0.4,2.6-0.9,5.2-1.3,7.8
		c-0.1,0-0.1,0-0.2,0c-0.3-1.4-0.6-2.7-0.9-4.1c-0.1,0-0.1,0-0.2,0c-0.4,2.6-0.9,5.2-1.3,7.8c-0.1,0-0.1,0-0.2,0
		c-0.3-1.4-0.6-2.7-0.9-4.1c-0.1,0-0.1,0-0.2,0c-0.4,2.6-0.8,5.1-1.3,7.7c-0.1,0-0.1,0-0.2,0c-0.3-3-0.6-6.1-0.9-9.1
		c-0.1,0-0.2,0-0.3,0c-0.3,3.1-0.6,6.1-0.9,9.2c-0.1,0-0.1,0-0.2,0c-0.4-2.6-0.9-5.2-1.3-7.7c-0.1,0-0.1,0-0.2,0
		c-0.3,1.4-0.6,2.7-0.9,4c-0.1,0-0.1,0-0.2-0.1c-0.4-2.6-0.8-5.1-1.3-7.7c-0.1,0-0.1,0-0.2,0c-0.3,1.3-0.6,2.7-0.9,4
		c-0.1,0-0.1,0-0.2,0c-0.4-2.6-0.9-5.2-1.3-7.9c-0.1,0-0.1,0-0.2,0c-0.3,1.4-0.6,2.7-0.9,4.1c-0.1,0-0.1,0-0.2,0
		c-0.4-2.6-0.9-5.2-1.3-7.8c-0.1,0-0.1,0-0.2,0c-0.3,1.4-0.6,2.7-0.9,4c-0.1,0-0.1,0-0.2,0c-0.4-2.6-0.9-5.3-1.3-7.9
		c-0.1,0-0.1,0-0.2,0c-0.3,1.4-0.6,2.8-0.9,4.2c-0.1,0-0.1,0-0.2,0c-0.4-2.6-0.9-5.3-1.3-7.9c-0.1,0-0.1,0-0.2,0
		c-0.3,1.4-0.6,2.9-0.9,4.3c-0.1,0-0.1,0-0.1,0c-0.2-1.5-0.4-3-0.5-4.5c-1.3,6.5-0.1,12.7,1.6,19.2c0.4-1.9,0.7-3.6,1-5.2
		c0.1,0,0.1,0,0.1,0c0.4,2.9,0.9,5.7,1.3,8.6c0.1,0,0.1,0,0.2,0c0.3-1.5,0.6-3,0.9-4.6c0.1,0,0.2,0,0.3,0c0.4,2.7,0.8,5.4,1.2,8.1
		c0.1,0,0.1,0,0.2,0c0.3-1.5,0.6-3,0.9-4.6c0.1,0,0.1,0,0.2,0c0.4,2.8,0.9,5.6,1.3,8.3c0.1,0,0.1,0,0.2,0
		C141.2,169.9,141.5,168.4,141.8,166.9z M64.7,226.1c-0.1,0-0.1,0-0.2,0c-0.4-2.7-0.9-5.3-1.3-8c-0.1,0-0.1,0-0.2,0
		c-0.3,1.4-0.6,2.8-0.9,4.2c-0.1,0-0.1,0-0.2,0c-0.2-1.4-0.4-2.9-0.6-4.5c-1.2,3.3-0.2,14.6,1.7,19.3c0.3-1.8,0.6-3.4,0.9-5
		c0.1,0,0.1,0,0.2,0.1c0.4,2.8,0.8,5.6,1.3,8.4c0.1,0,0.1,0,0.2,0c0.3-1.6,0.6-3.1,0.9-4.7c0.1,0,0.1,0,0.2,0
		c0.4,2.8,0.9,5.6,1.3,8.3c0.1,0,0.1,0,0.2,0c0.3-1.5,0.6-3,0.9-4.6c0.1,0,0.1,0,0.2,0c0.4,2.7,0.8,5.5,1.3,8.2c0.1,0,0.1,0,0.2,0
		c0.3-1.5,0.6-3,0.8-4.5c0.1,0,0.1,0,0.2,0c0.4,2.7,0.8,5.5,1.3,8.2c0.1,0,0.2,0,0.2,0c0.3-1.5,0.6-3,0.8-4.6c0.1,0,0.1,0,0.2,0
		c0.4,2.8,0.9,5.5,1.3,8.3c0.1,0,0.1,0,0.2,0c0.3-1.5,0.6-3,0.9-4.6c0.1,0,0.1,0,0.2,0c0.5,3.1,0.9,6.3,1.4,9.4c0.1,0,0.2,0,0.2,0
		c0.5-3.2,1-6.3,1.5-9.5c0.1,0,0.1,0,0.2,0c0.3,1.5,0.6,3,0.9,4.5c0.1,0,0.2,0,0.2,0c0.4-2.8,0.8-5.5,1.2-8.3c0.1,0,0.1,0,0.2,0
		c0.3,1.5,0.6,3.1,0.9,4.6c0.1,0,0.1,0,0.2,0c0.4-2.8,0.8-5.6,1.3-8.3c0.1,0,0.1,0,0.2,0c0.3,1.5,0.6,3,0.9,4.6c0.1,0,0.2,0,0.2,0
		c0.4-2.7,0.8-5.5,1.3-8.2c0.1,0,0.1,0,0.2,0c0.3,1.6,0.6,3.1,0.9,4.7c0.1,0,0.1,0,0.2,0c0.4-2.8,0.9-5.6,1.3-8.5c0.1,0,0.1,0,0.2,0
		c0.3,1.6,0.6,3.1,0.9,4.7c0.1,0,0.1,0,0.2,0c0.4-2.9,0.9-5.7,1.3-8.5c0,0,0.1,0,0.1,0c0.3,1.6,0.6,3.3,1,5.1c2-5.7,3-17.4,1.6-19.1
		c-0.2,1.4-0.4,2.9-0.6,4.4c0,0-0.1,0-0.1,0c-0.3-1.4-0.6-2.8-0.9-4.2c-0.1,0-0.1,0-0.2,0c-0.4,2.6-0.9,5.2-1.3,8.1
		c-0.6-1.6-0.5-3.1-1.2-4.6c-0.5,2.8-0.9,5.4-1.3,7.9c-0.1,0-0.1,0-0.2,0c-0.3-1.3-0.6-2.6-0.8-4c-0.1,0-0.1,0-0.2,0
		c-0.4,2.6-0.8,5.1-1.3,7.7c-0.6-1.3-0.6-2.7-1.2-4.2c-0.5,2.8-0.9,5.4-1.3,8c-0.1,0-0.1,0-0.2,0c-0.3-1.4-0.6-2.8-0.9-4.1
		c-0.1,0-0.1,0-0.2,0c-0.4,2.6-0.8,5.1-1.3,7.7c-0.6-1.3-0.6-2.7-1.2-4.1c-0.5,2.8-0.9,5.3-1.3,7.9c-0.1,0-0.1,0-0.2,0
		c-0.3-3.1-0.7-6.2-1-9.2c-0.1,0-0.1,0-0.2,0c-0.3,3.1-0.6,6.2-0.9,9.3c-0.1,0-0.1,0-0.2,0c-0.4-2.6-0.8-5.2-1.3-7.8
		c-0.1,0-0.1,0-0.2,0c-0.3,1.4-0.6,2.7-0.9,4.1c-0.1,0-0.1,0-0.2,0c-0.4-2.6-0.9-5.2-1.3-7.8c-0.1,0-0.1,0-0.2,0
		c-0.3,1.4-0.6,2.7-0.9,4.1c-0.1,0-0.1,0-0.2,0c-0.4-2.6-0.8-5.2-1.3-7.8c-0.1,0-0.1,0-0.2,0c-0.3,1.4-0.6,2.7-0.9,4.1
		c-0.1,0-0.1,0-0.2,0c-0.4-2.6-0.9-5.3-1.3-7.9c-0.1,0-0.1,0-0.2,0c-0.3,1.4-0.6,2.7-0.8,4.1c-0.1,0-0.1,0-0.2,0
		c-0.4-2.6-0.9-5.3-1.3-7.9c-0.1,0-0.1,0-0.2,0C65.3,223.4,65,224.8,64.7,226.1z M96.6,190.4c-1.3,2.9-0.3,14.2,1.6,19.3
		c0.3-1.8,0.6-3.4,0.9-5c0.1,0,0.1,0,0.1,0c0.4,2.8,0.9,5.7,1.3,8.5c0.1,0,0.1,0,0.2,0c0.3-1.6,0.6-3.1,0.9-4.7c0.1,0,0.1,0,0.2,0
		c0.4,2.8,0.8,5.6,1.3,8.3c0.1,0,0.1,0,0.2,0c0.3-1.6,0.6-3.1,0.9-4.7c0.1,0,0.1,0,0.2,0c0.4,2.8,0.9,5.6,1.3,8.4c0.1,0,0.1,0,0.2,0
		c0.3-1.6,0.6-3.1,0.9-4.7c0.1,0,0.1,0,0.2,0c0.4,2.8,0.8,5.6,1.3,8.4c0.1,0,0.2,0,0.2,0c0.3-1.5,0.6-3.1,0.9-4.6c0.1,0,0.1,0,0.2,0
		c0.4,2.7,0.8,5.5,1.3,8.2c0.1,0,0.2,0,0.2,0c0.3-1.5,0.6-3,0.9-4.5c0.1,0,0.1,0,0.2,0.1c0.5,3.1,0.9,6.3,1.4,9.4c0.1,0,0.2,0,0.2,0
		c0.5-3.1,0.9-6.2,1.4-9.4c0.1,0,0.1,0,0.2,0c0.3,1.5,0.6,3,0.8,4.4c0.1,0,0.2,0,0.2,0c0.4-2.8,0.8-5.5,1.3-8.2c0.1,0,0.1,0,0.2,0
		c0.3,1.5,0.6,3,0.9,4.6c0.1,0,0.1,0,0.2,0c0.4-2.8,0.8-5.5,1.3-8.3c0.1,0,0.1,0,0.2,0c0.3,1.5,0.6,3,0.8,4.6c0.1,0,0.2,0,0.2,0
		c0.4-2.8,0.9-5.6,1.3-8.4c0.1,0,0.1,0,0.1,0c0.3,1.6,0.6,3.1,0.9,4.7c0.1,0,0.2,0,0.2,0c0.4-2.8,0.8-5.6,1.3-8.4c0.1,0,0.1,0,0.2,0
		c0.3,1.6,0.6,3.1,0.9,4.7c0.1,0,0.1,0,0.2,0c0.4-2.8,0.9-5.7,1.3-8.9c0.4,2,0.7,3.7,1.1,5.6c1.7-6.5,2.9-12.7,1.6-19.2
		c-0.2,1.4-0.3,2.8-0.5,4.1c-0.1,0-0.1,0-0.2,0c-0.3-1.4-0.6-2.7-0.9-4.1c-0.1,0-0.1,0-0.1,0c-0.4,2.6-0.9,5.3-1.3,8
		c-0.1,0-0.1,0-0.2,0c-0.3-1.4-0.6-2.8-0.9-4.2c-0.1,0-0.1,0-0.2,0c-0.4,2.6-0.8,5.3-1.3,7.9c-0.1,0-0.1,0-0.2,0
		c-0.3-1.4-0.6-2.8-0.9-4.2c-0.1,0-0.1,0-0.2,0c-0.4,2.6-0.9,5.3-1.3,7.9c-0.1,0-0.1,0-0.2,0c-0.3-1.4-0.6-2.8-0.9-4.2
		c-0.1,0-0.1,0-0.2,0c-0.4,2.6-0.9,5.2-1.3,7.9c-0.1,0-0.1,0-0.2,0c-0.3-1.3-0.6-2.7-0.9-4c-0.1,0-0.1,0-0.2,0
		c-0.4,2.6-0.8,5.1-1.3,7.7c-0.1,0-0.1,0-0.2,0c-0.3-1.3-0.6-2.7-0.9-4c-0.1,0-0.1,0-0.2,0.1c-0.4,2.6-0.8,5.1-1.3,7.7
		c-0.1,0-0.1,0-0.2,0c-0.3-3.1-0.6-6.2-0.9-9.2c-0.1,0-0.2,0-0.2,0c-0.3,3.1-0.6,6.1-0.9,9.2c-0.1,0-0.1,0-0.2,0
		c-0.4-2.6-0.8-5.1-1.3-7.7c-0.1,0-0.1,0-0.2,0c-0.3,1.4-0.6,2.7-0.9,4c-0.1,0-0.1,0-0.2,0c-0.4-2.6-0.8-5.2-1.3-7.8
		c-0.1,0-0.1,0-0.2,0c-0.3,1.4-0.6,2.7-0.9,4.1c-0.1,0-0.1,0-0.2,0c-0.4-2.6-0.8-5.1-1.3-7.7c-0.1,0-0.1,0-0.2,0
		c-0.3,1.3-0.6,2.7-0.9,4c-0.1,0-0.1,0-0.2,0c-0.4-2.6-0.9-5.3-1.3-7.9c-0.1,0-0.1,0-0.2,0c-0.3,1.4-0.6,2.9-0.9,4.3
		c-0.1,0-0.1,0-0.2,0c-0.4-2.6-0.9-5.3-1.3-7.9c-0.1,0-0.1,0-0.2,0c-0.3,1.4-0.6,2.8-0.9,4.2c-0.1,0-0.1,0-0.2,0
		c-0.4-2.7-0.9-5.3-1.3-8c-0.1,0-0.1,0-0.2,0c-0.3,1.4-0.6,2.8-0.9,4.2c-0.1,0-0.1,0-0.2,0C96.9,193.5,96.8,192.1,96.6,190.4z
		 M68.3,111.1c-0.1,0-0.2,0-0.2,0c-0.3,1.4-0.6,2.7-0.8,4.1c-0.1,0-0.1,0-0.2,0c-0.4-2.6-0.9-5.2-1.3-7.9c-0.1,0-0.1,0-0.2,0
		c-0.3,1.4-0.6,2.8-0.9,4.2c-0.1,0-0.1,0-0.2,0c-0.4-2.6-0.9-5.3-1.3-7.9c-0.6,1.3-0.6,2.8-1.2,4.3c-0.2-1.7-0.4-3.1-0.6-4.8
		c-1.2,3.3-0.1,14.5,1.7,19.3c0.3-1.7,0.6-3.3,0.9-4.9c0.1,0,0.1,0,0.2,0.1c0.4,2.8,0.9,5.6,1.3,8.4c0.1,0,0.1,0,0.2,0
		c0.3-1.6,0.6-3.1,0.9-4.7c0.1,0,0.1,0,0.2,0c0.4,2.8,0.9,5.6,1.3,8.3c0.1,0,0.1,0,0.2,0c0.3-1.5,0.6-3,0.9-4.5c0.1,0,0.1,0,0.2,0.1
		c0.4,2.7,0.8,5.4,1.3,8.1c0.1,0,0.2,0,0.2,0c0.3-1.5,0.6-3,0.8-4.5c0.1,0,0.1,0,0.2,0c0.4,2.8,0.8,5.6,1.3,8.3c0.1,0,0.2,0,0.2,0
		c0.3-1.5,0.6-3.1,0.9-4.6c0.1,0,0.1,0,0.2,0c0.4,2.8,0.9,5.7,1.3,8.5c0,0,0.1,0,0.1,0c0.3-1.6,0.6-3.2,0.9-4.7c0.1,0,0.1,0,0.2,0
		c0.5,3.1,0.9,6.3,1.4,9.4c0.1,0,0.2,0,0.2,0c0.5-3.2,1-6.3,1.4-9.5c0.1,0,0.1,0,0.2,0c0.3,1.5,0.6,3.1,0.9,4.6c0.1,0,0.2,0,0.2,0
		c0.4-2.8,0.8-5.5,1.3-8.3c0.1,0,0.1,0,0.2,0c0.3,1.5,0.6,3,0.9,4.5c0.1,0,0.1,0,0.2,0c0.4-2.8,0.8-5.5,1.3-8.2c0.1,0,0.1,0,0.2,0
		c0.3,1.5,0.6,3,0.9,4.5c0.1,0,0.1,0,0.2,0c0.4-2.8,0.9-5.5,1.3-8.3c0.1,0,0.1,0,0.2,0c0.3,1.6,0.6,3.2,0.9,4.7c0.1,0,0.1,0,0.2,0
		c0.4-2.8,0.9-5.6,1.3-8.4c0.1,0,0.1,0,0.2,0c0.3,1.6,0.6,3.2,0.9,4.7c0.1,0,0.1,0,0.2-0.1c0.4-2.8,0.9-5.7,1.3-8.5
		c0.1,0,0.1,0,0.2,0c0.3,1.6,0.6,3.2,0.9,5c2-4.6,3-17.3,1.6-19c-0.2,1.4-0.4,2.9-0.6,4.3c0,0-0.1,0-0.1,0c-0.3-1.4-0.6-2.9-0.9-4.3
		c-0.1,0-0.1,0-0.2,0c-0.4,2.7-0.9,5.3-1.3,8c-0.1,0-0.1,0-0.2,0c-0.3-1.4-0.6-2.8-0.9-4.2c-0.1,0-0.1,0-0.2,0
		c-0.4,2.6-0.9,5.3-1.3,7.9c-0.1,0-0.1,0-0.2,0c-0.3-1.4-0.6-2.8-0.9-4.2c-0.1,0-0.1,0-0.2,0c-0.4,2.6-0.9,5.3-1.3,7.9
		c-0.1,0-0.1,0-0.2,0c-0.3-1.3-0.6-2.7-0.9-4c-0.1,0-0.1,0-0.2,0c-0.4,2.6-0.8,5.1-1.3,7.7c-0.1,0-0.1,0-0.2,0
		c-0.3-1.3-0.6-2.7-0.9-4c-0.1,0-0.1,0-0.2,0c-0.4,2.6-0.8,5.2-1.3,7.8c-0.1,0-0.2,0-0.2,0c-0.3-1.3-0.6-2.6-0.8-3.9
		c-0.1,0-0.1,0-0.2,0c-0.4,2.6-0.9,5.1-1.3,7.7c-0.1,0-0.1,0-0.2,0c-0.3-3-0.6-6-1-9.1c-0.1,0-0.2,0-0.2,0c-0.3,2.9-0.6,5.9-0.9,8.9
		c-0.1,0-0.2,0-0.2,0c-0.4-2.5-0.8-5-1.2-7.5c-0.1,0-0.2,0-0.2,0c-0.3,1.4-0.6,2.7-0.9,4.1c-0.1,0-0.1,0-0.2,0
		c-0.4-2.6-0.9-5.2-1.3-7.8c-0.1,0-0.1,0-0.2,0c-0.3,1.3-0.6,2.7-0.9,4c-0.1,0-0.1,0-0.2-0.1c-0.4-2.6-0.8-5.1-1.2-7.7
		c-0.1,0-0.2,0-0.2,0c-0.3,1.3-0.6,2.6-0.8,3.9c-0.1,0-0.1,0-0.2,0C69.2,116.2,68.7,113.6,68.3,111.1z M139.3,48.4
		c0.1,0,0.1,0,0.2,0c0.4,2.8,0.9,5.5,1.3,8.3c0.1,0,0.1,0,0.2,0c0.3-1.5,0.6-3,0.9-4.5c0.1,0,0.1,0,0.2,0c0.4,2.7,0.8,5.5,1.3,8.2
		c0.1,0,0.1,0,0.2,0c0.3-1.5,0.6-3,0.8-4.5c0.1,0,0.1,0,0.2,0c0.4,2.8,0.9,5.5,1.3,8.3c0.1,0,0.1,0,0.2,0c0.3-1.5,0.6-3.1,0.9-4.7
		c0.1,0,0.1,0,0.2,0c0.5,3.2,0.9,6.3,1.4,9.5c0.1,0,0.2,0,0.2,0c0.5-3.1,0.9-6.3,1.4-9.4c0.1,0,0.1,0,0.2,0c0.3,1.5,0.6,3,0.9,4.5
		c0.1,0,0.1,0,0.2,0c0.4-2.8,0.9-5.5,1.3-8.2c0.1,0,0.1,0,0.2,0c0.3,1.5,0.6,3,0.9,4.5c0.1,0,0.1,0,0.2,0c0.4-2.8,0.8-5.5,1.3-8.2
		c0.1,0,0.1,0,0.2,0c0.3,1.5,0.6,3,0.9,4.5c0.1,0,0.1,0,0.2,0c0.4-2.7,0.9-5.5,1.3-8.2c0.1,0,0.1,0,0.2,0c0.3,1.6,0.6,3.1,0.9,4.7
		c0.1,0,0.1,0,0.2,0c0.4-2.8,0.9-5.6,1.3-8.5c0.1,0,0.1,0,0.2,0c0.3,1.5,0.6,3.1,0.9,4.7c0.1,0,0.1,0,0.2,0c0.4-2.8,0.9-5.7,1.3-8.5
		c0.1,0,0.1,0,0.1,0c0.3,1.6,0.6,3.3,0.9,4.9c0.7-2.4,1.2-4.8,1.7-7.2c0.4-1.6,0.5-3.2,0.5-4.9c0-0.4,0.1-0.8-0.4-1
		c-0.9-0.4-1.7-1-2.6-1.2c-0.2,1.2-0.4,2.3-0.6,3.4c-0.1,0-0.1,0-0.1,0c-0.3-1.4-0.6-2.8-0.9-4.2c-0.1,0-0.1,0-0.2,0
		c-0.4,2.6-0.9,5.3-1.3,7.9c-0.1,0-0.1,0-0.2,0c-0.3-1.4-0.6-2.8-0.9-4.2c-0.1,0-0.1,0-0.1,0c-0.4,2.6-0.9,5.3-1.3,7.9
		c-0.1,0-0.1,0-0.2,0c-0.3-1.3-0.6-2.7-0.9-4c-0.1,0-0.1,0-0.2,0c-0.4,2.6-0.8,5.2-1.3,7.8c-0.1,0-0.1,0-0.2,0
		c-0.3-1.3-0.6-2.7-0.9-4c-0.1,0-0.1,0-0.2,0c-0.4,2.6-0.9,5.2-1.3,7.8c-0.1,0-0.1,0-0.2,0c-0.3-1.4-0.6-2.7-0.9-4.1
		c-0.1,0-0.1,0-0.2,0c-0.4,2.6-0.8,5.1-1.3,7.7c-0.1,0-0.1,0-0.2,0c-0.3-3-0.6-6.1-0.9-9.1c-0.1,0-0.2,0-0.3,0c-0.3,3-0.6,6-0.9,9.1
		c-0.1,0-0.1,0-0.2,0c-0.4-2.5-0.8-5.1-1.3-7.7c-0.6,1.3-0.6,2.8-1.2,4.3c-0.5-2.9-0.9-5.5-1.3-8.1c-0.1,0-0.1,0-0.2,0
		c-0.3,1.3-0.6,2.7-0.9,4c-0.1,0-0.1,0-0.2,0c-0.4-2.6-0.8-5.1-1.3-7.7c-0.1,0-0.1,0-0.2,0c-0.3,1.4-0.6,2.7-0.9,4.1
		c-0.1,0-0.1,0-0.2,0c-0.4-2.7-0.9-5.3-1.3-8c-0.1,0-0.1,0-0.1,0c-0.3,1.4-0.6,2.8-0.9,4.2c-0.1,0-0.1,0-0.2,0
		c-0.4-2.6-0.9-5.3-1.3-7.9c-0.1,0-0.1,0-0.2,0c-0.3,1.4-0.6,2.8-0.9,4.2c-0.1,0-0.1,0-0.2,0c-0.4-2.6-0.9-5.3-1.3-7.9
		c-0.1,0-0.1,0-0.2,0c-0.3,1.4-0.6,2.8-0.9,4.1c-0.1,0-0.1,0-0.2,0c-0.2-1.4-0.3-2.8-0.5-4.3c-1.4,6.5-0.1,12.7,1.6,19.2
		c0.4-2,0.7-3.6,1-5.3c0,0,0.1,0,0.1,0c0.4,2.9,0.9,5.8,1.3,8.7c0.1,0,0.1,0,0.2,0c0.3-1.6,0.6-3.3,0.9-4.9c0.1,0,0.1,0,0.2,0
		c0.4,2.8,0.8,5.6,1.3,8.4c0.1,0,0.1,0,0.2,0C138.7,51.4,139,49.9,139.3,48.4z M66.5,44.6c0.1,0,0.1,0,0.2-0.1
		c0.4,2.8,0.9,5.6,1.3,8.4c0.1,0,0.1,0,0.2,0c0.3-1.5,0.6-3,0.9-4.6c0.1,0,0.1,0,0.2,0c0.4,2.8,0.8,5.5,1.3,8.3c0.1,0,0.1,0,0.2,0
		c0.3-1.6,0.6-3.1,0.8-4.7c0.1,0,0.1,0,0.2,0c0.4,2.8,0.9,5.6,1.3,8.4c0.1,0,0.2,0,0.2,0c0.3-1.5,0.6-3,0.9-4.6c0.1,0,0.1,0,0.2,0
		c0.4,2.8,0.9,5.7,1.3,8.5c0.1,0,0.1,0,0.2,0c0.3-1.6,0.6-3.1,0.9-4.7c0.1,0,0.2,0,0.2,0c0.5,3.1,0.9,6.3,1.4,9.4c0.1,0,0.2,0,0.2,0
		c0.5-3.1,1-6.3,1.4-9.4c0.1,0,0.1,0,0.2,0c0.3,1.5,0.6,3,0.9,4.6c0.1,0,0.1,0,0.2,0c0.4-2.8,0.8-5.6,1.3-8.3c0.1,0,0.1,0,0.2,0
		c0.3,1.5,0.6,3,0.8,4.5c0.1,0,0.1,0,0.2,0c0.4-2.8,0.9-5.6,1.3-8.3c0.1,0,0.1,0,0.2,0c0.3,1.5,0.6,3.1,0.9,4.6c0.1,0,0.2,0,0.2,0
		c0.4-2.7,0.8-5.5,1.3-8.2c0.1,0,0.1,0,0.2,0c0.3,1.6,0.6,3.1,0.9,4.7c0.1,0,0.1,0,0.2,0c0.4-2.8,0.9-5.7,1.3-8.5c0.1,0,0.1,0,0.2,0
		c0.3,1.6,0.6,3.1,0.9,4.7c0.1,0,0.1,0,0.2,0c0.4-2.8,0.9-5.7,1.3-8.5c0.3,0.8,0.4,1.7,0.6,2.5c0.2,0.8,0.3,1.6,0.5,2.8
		c1.7-6.5,3-12.7,1.6-19.1c-0.2,1.5-0.4,2.9-0.6,4.4c0,0-0.1,0-0.1,0c-0.3-1.4-0.6-2.9-0.9-4.3c-0.1,0-0.1,0-0.2,0
		c-0.4,2.7-0.9,5.3-1.3,8c-0.1,0-0.1,0-0.2,0c-0.3-1.4-0.6-2.8-0.9-4.2c-0.1,0-0.1,0-0.2,0c-0.4,2.6-0.9,5.2-1.3,7.8
		c-0.1,0-0.1,0-0.2,0c-0.3-1.3-0.6-2.7-0.9-4c-0.1,0-0.1,0-0.2,0c-0.4,2.6-0.8,5.2-1.3,7.9c-0.1,0-0.1,0-0.2,0
		c-0.3-1.4-0.6-2.7-0.9-4.1c-0.1,0-0.1,0-0.2,0c-0.4,2.6-0.9,5.1-1.3,7.7c-0.1,0-0.1,0-0.2,0c-0.3-1.3-0.6-2.6-0.9-3.9
		c-0.1,0-0.2,0-0.2,0c-0.4,2.6-0.8,5.2-1.3,7.7c-0.1,0-0.1,0-0.2,0c-0.3-1.3-0.6-2.7-0.8-4c-0.1,0-0.1,0-0.2,0
		c-0.4,2.6-0.9,5.1-1.3,7.7c-0.1,0-0.1,0-0.2,0c-0.3-3-0.7-6.1-1-9.1c-0.1,0-0.2,0-0.2,0c-0.3,3-0.6,6-0.9,9.1c-0.1,0-0.1,0-0.2,0
		c-0.4-2.6-0.8-5.2-1.3-7.7c-0.1,0-0.1,0-0.2,0c-0.3,1.4-0.6,2.7-0.9,4.1c-0.1,0-0.1,0-0.2,0c-0.4-2.5-0.8-5.1-1.3-7.7
		c-0.1,0-0.2,0-0.2,0c-0.3,1.3-0.6,2.6-0.8,3.9c-0.1,0-0.1,0-0.2,0c-0.4-2.6-0.8-5.1-1.2-7.7c-0.1,0-0.2,0-0.2,0
		c-0.3,1.3-0.6,2.7-0.9,4.1c-0.1,0-0.1,0-0.2,0c-0.4-2.6-0.9-5.2-1.3-7.7c-0.7,1.3-0.6,2.7-1.2,4.2c-0.5-2.9-0.9-5.5-1.3-8.1
		c-0.1,0-0.1,0-0.2,0c-0.3,1.4-0.6,2.8-0.9,4.3c-0.4-0.7-0.3-1.4-0.4-2.1c-0.3-1.7-0.3-1.6-1.8-1c-1.2,0.5-1.5,1.2-1.5,2.4
		c0.1,3.9,1.5,7.5,2.2,11.3c0.3-1.6,0.6-3.3,0.9-4.9c0.1,0,0.1,0,0.2,0c0.4,2.9,0.9,5.7,1.3,8.6c0.1,0,0.1,0,0.2,0
		C66,47.8,66.3,46.2,66.5,44.6z"></path>
	<path d="M126.9,286.3c0.3-1.7,0.5-3.4,0.8-5.4c0.4,2,0.8,3.7,0.9,5.4C128.1,286.4,127.5,286.4,126.9,286.3z"></path>
	<path d="M98.3,286c0.3-1.6,0.5-3.2,0.8-4.8c0.1,0,0.1,0,0.2,0c0.3,1.6,0.5,3.2,0.8,4.8C99.5,286.1,98.9,286.1,98.3,286
		z"></path>
	<path d="M168.5,285.3c0.3-1.3,0.5-2.7,0.9-4.4c0.3,1.6,0.5,2.9,0.7,4.2C169.6,285.5,169.1,285.4,168.5,285.3z"></path>
	<path d="M84.5,285.6c0-0.6,0.4-0.9,0.9-0.9c0.7,0,0.4,0.6,0.5,1C85.4,285.9,84.9,285.9,84.5,285.6z"></path>
	<path d="M141.1,285.7c0.4-0.6,0.7-0.6,1.1,0C141.9,286.1,141.5,286.2,141.1,285.7z"></path>
	<path d="M82.4,285.6c0-0.2,0.1-0.3,0.3-0.3c0.2,0,0.2,0.2,0.2,0.3C82.6,285.9,82.5,285.8,82.4,285.6z"></path>
	<path d="M74.1,285.5c0-0.1,0.1-0.3,0.1-0.3c0.2,0,0.2,0.2,0.2,0.3C74.3,285.5,74.2,285.5,74.1,285.5z"></path>
</g>
</svg>
