<!--?xml version="1.0" encoding="utf-8"?-->
<!-- Generator: Adobe Illustrator 24.2.3, SVG Export Plug-In . SVG Version: 6.00 Build 0)  -->
<svg version="1.1" id="Camada_1" xmlns="http://www.w3.org/2000/svg" xmlns:xlink="http://www.w3.org/1999/xlink" x="0px" y="0px" viewBox="0 0 229 418" enable-background="new 0 0 229 418" xml:space="preserve">
<g onclick="select(this)" class="" id="gola-primaria" fill="#000000">
	<path d="M77.97,7.97c0.94-0.15,1.51-0.86,2.15-1.45c0.71-0.65,1.47-1.28,2.01-2.05c1.77-2.52,4.35-3.36,7.21-3.75
		c0.62-0.09,1.36,0.12,1.86-0.48c1.2,0,2.4,0,3.6,0c0.21,0.54,0.68,0.31,1.03,0.31c5.53,0.02,11.05,0.02,16.58,0.04
		c0.57,0,1.08-0.17,1.59-0.35c7.36,0,14.72,0,22.08,0c0.03,0.44,0.39,0.31,0.63,0.35c0.91,0.14,1.82,0.25,2.73,0.38
		c2.17,0.31,4.01,1.12,5.39,2.98c1.24,1.66,2.68,3.18,4.5,4.26c1.97,0.96,2.2,2.04,1.7,4.53c-0.59,2.95-2.11,5.49-3.95,7.85
		c-0.47,0.61-0.76,0.34-1.15,0.04c-1.81-1.38-3.61-2.78-5.43-4.14c-0.47-0.35-0.47-0.58-0.08-1.02c1.39-1.6,2.66-3.3,3.52-5.26
		c0.36-0.81,0.21-1.21-0.8-1.1c-1.77,0.2-3.55,0.35-5.33,0.49c-2.38,0.18-4.76,0.25-7.13,0.52c-4.9,0.55-9.82,0.61-14.73,0.9
		c-4.65,0.27-9.3-0.27-13.95-0.5c-2.17-0.1-4.35-0.29-6.53-0.48c-3.84-0.35-7.67-0.78-11.5-1.24c-0.97-0.12-1.04,0.15-0.72,0.94
		c0.89,2.18,2.27,4.03,3.84,5.75c0.47,0.51,0.51,0.76-0.06,1.2c-1.67,1.3-3.32,2.63-4.93,4c-0.72,0.61-1.18,0.5-1.74-0.22
		c-1.85-2.36-3.16-4.99-3.93-7.88C75.87,10.43,76.27,9.26,77.97,7.97z"></path>
</g>
<g onclick="select(this)" class="" id="detalhe-punho" fill="#000000">
	<path d="M227.84,108.46c0.56,0.82,0.43,1.81,0.69,2.7c0.11,0.39,0.02,0.88,0.43,1.16c0,1.28,0,2.56,0,3.84
		c-0.76,0.53-1.62,0.85-2.49,1.14c-7.1,2.37-14.38,4.03-21.84,4.49c-5.84,0.36-11.74,0.52-17.56-0.59
		c-0.87-0.17-1.71-0.36-2.42-0.94c-0.34-2.48,0.43-4.9,0.43-7.37c0.2-0.01,0.41-0.08,0.59-0.03c3.55,0.98,7.2,0.88,10.83,0.96
		c2.48,0.06,4.98,0.25,7.42-0.15c3.07-0.5,6.14-1,9.2-1.55C218.11,111.22,222.97,109.83,227.84,108.46z"></path>
	<path d="M0.24,114.72c0.51-1.17,0.38-2.46,0.71-3.66c0.11-0.41,0.04-0.88,0.43-1.19c0.33,0.14,0.65,0.31,0.98,0.43
		c3.88,1.38,7.84,2.35,11.91,3.04c4.34,0.73,8.68,1.22,13.09,1.14c2.23-0.04,4.45-0.29,6.69-0.23c1.26,0.03,2.53-0.24,3.79-0.39
		c1.26-0.15,2.56-0.02,3.72-0.73c0.44-0.27,0.57,0.19,0.76,0.5c0.46,0.75,0.2,1.66,0.6,2.41c-0.03,1.51,0.63,2.98,0.26,4.51
		c-2.64,1.32-5.53,1.65-8.39,1.77c-9.73,0.42-19.42,0.1-28.93-2.32c-1.92-0.49-3.83-1.03-5.62-1.9
		C0.24,116.96,0.24,115.84,0.24,114.72z"></path>
</g>
<g onclick="select(this)" class="" id="detalhe-lateral" fill="#000000">
	<path d="M180.3,284.15c-0.34-5.09-0.61-10.18-0.8-15.28c-0.13-3.58-0.29-7.17-0.5-10.74
		c-0.32-5.49-0.21-11-0.72-16.48c0.14-5.51-0.25-11.01-0.37-16.51c-0.02-1.12-0.11-2.24-0.08-3.35c0.11-5.07-0.24-10.13-0.3-15.2
		c-0.01-2.01-0.02-4.01-0.04-6.02c0.03-0.32,0.07-0.63,0.07-0.95c0.01-11.44,0.01-22.88,0.01-34.32c0-0.16-0.02-0.32-0.04-0.48
		c-0.03-2.16,0.41-4.31,0.22-6.48c0.11-3.19,0.15-6.39,0.35-9.57c0.24-3.93,0.63-7.85,0.94-11.78c0.29-3.61,0.69-7.21,1.25-10.79
		c0.31-1.99,0.55-4,0.83-6c0.41-2.21,0.82-4.42,1.24-6.64c1.02-4.34,2.07-8.68,3.4-12.95c0.93-2.97,1.84-5.95,3.33-8.71
		c0.1,0.41-0.04,0.78-0.13,1.17c-0.63,2.56-1.32,5.1-1.85,7.68c-0.83,4.02-1.7,8.03-2.04,12.14c0,2.46-0.77,4.88-0.43,7.37
		c-0.43,4.12-0.84,8.24-1.31,12.36c-0.69,6.13-0.75,12.27-0.69,18.42c0.01,0.71,0.06,1.44,0.23,2.14c0.73,3.07,0.01,6.11-0.14,9.16
		c-0.07,1.48-0.17,2.95,0.03,4.42c0.2,1.48-0.04,2.95-0.13,4.42c-0.28,4.8,0.36,9.61-0.06,14.38c-0.4,4.44,0.66,8.62,1.37,12.89
		c0.87,5.19,0.97,10.39,0.23,15.61c-0.32,2.29-0.55,4.59-0.79,6.89c-0.07,0.62,0.26,1.16,0.45,1.72c2.13,6.33,2.17,12.78,1.08,19.28
		c-0.18,1.08,0.14,2.05,0.32,3.06c0.49,2.73,0.57,5.47,0.56,8.24c-0.03,6.84,0.72,13.64,1.38,20.43c0.23,2.33,0.3,4.68,0.33,7.02
		c0.02,1.23-0.53,1.99-1.62,2.36C184.09,283.7,182.24,284.18,180.3,284.15z"></path>
	<path d="M48.28,264.97c-0.28,5.3-0.57,10.6-0.84,15.91c-0.05,0.95-0.13,1.89-0.44,2.8
		c-1.94-0.02-3.75-0.56-5.51-1.31c-1.27-0.55-1.38-1.68-1.32-2.82c0.13-2.83,0.29-5.65,0.48-8.48c0.19-2.95,0.45-5.89,0.64-8.84
		c0.33-5.3,0.91-10.59,0.78-15.92c-0.02-0.87,0.18-1.74,0.32-2.61c0.3-1.94,0.51-3.86,0.19-5.84c-0.43-2.71-0.34-5.43,0.33-8.09
		c0.45-1.77,0.07-3.49-0.04-5.23c-0.22-3.47-0.66-6.92-0.65-10.4c0.01-4.7,1.02-9.19,2.59-13.58c0.41-1.15,0.68-2.26,0.56-3.5
		c-0.15-1.47-0.07-2.95,0.17-4.42c0.14-0.9,0.16-1.84,0.09-2.75c-0.12-1.83-0.07-3.67-0.11-5.49c-0.05-2.47-0.03-4.95-0.25-7.41
		c-0.12-1.42,0.04-2.79,0.14-4.18c0.2-2.76-0.19-5.51-0.2-8.26c-0.02-5.91-0.01-11.83,0.11-17.74c0.15-7.14-0.61-14.21-1.52-21.27
		c-0.21-1.66-0.22-3.35-0.62-4.99c0.38-1.53-0.29-3-0.26-4.51c0.17-1.62-0.25-3.17-0.51-4.74c-0.75-4.68-0.94-9.45-2.28-14.03
		c-0.06-0.21-0.17-0.56,0.28-0.68c0.21,0.6,0.42,1.19,0.63,1.78c2.83,8.18,4.46,16.65,5.87,25.16c0.98,5.92,1.52,11.9,2.01,17.87
		c0.36,4.4,0.63,8.82,0.75,13.24c0.22,8.03,0.4,16.06,0.3,24.09c-0.01,0.52,0.03,1.04,0.04,1.56c-0.02,0.48-0.06,0.95-0.07,1.43
		c-0.01,9.31-0.03,18.62,0,27.93c0.01,2.2-0.42,4.38-0.2,6.58c0,1.97,0.01,3.94,0.01,5.91c-0.1,2.07-0.24,4.14-0.3,6.21
		c-0.12,4.47-0.04,8.94-0.33,13.4c-0.2,3.03-0.06,6.06-0.36,9.08c-0.26,2.61-0.18,5.25-0.25,7.88
		C48.44,260.78,48.36,262.88,48.28,264.97z"></path>
</g>
<g onclick="select(this)" class="" id="estampa-secundaria" fill="#000000">
	<path d="M68.15,285.35c-6.52,0.03-13.01-0.43-19.47-1.35c-0.56-0.08-1.19,0.12-1.68-0.32
		c0.3-0.91,0.39-1.85,0.44-2.8c0.27-5.3,0.56-10.6,0.84-15.91c1.21-0.92,2.42-1.83,3.62-2.76c17.02-13.2,34.04-26.41,51.06-39.61
		c12.85-9.97,25.7-19.94,38.55-29.92c9.06-7.03,18.11-14.08,27.18-21.11c2.94-2.28,5.9-4.51,8.86-6.76
		c0.01,0.16,0.04,0.32,0.04,0.48c0,11.44-0.01,22.88-0.01,34.32c0,0.32-0.05,0.63-0.07,0.95c-0.4,0.26-0.81,0.5-1.19,0.8
		c-14.01,10.87-28.01,21.75-42.02,32.62c-13.5,10.48-27.01,20.95-40.51,31.44C85.22,272.06,76.69,278.71,68.15,285.35z"></path>
	<path d="M120.68,286.35c-3.3,0.36-6.62,0.28-9.92,0.12c-7.02-0.35-14.04-0.6-21.07-0.68
		c-4.55-0.05-9.1-0.15-13.65-0.23c0.08-0.4,0.41-0.57,0.69-0.79c13.48-10.47,26.95-20.94,40.43-31.41
		c16.7-12.97,33.4-25.93,50.1-38.89c3.41-2.64,6.84-5.25,10.27-7.88c0.07,5.07,0.41,10.13,0.3,15.2c-0.02,1.12,0.06,2.23,0.08,3.35
		c0.12,5.5,0.51,11,0.37,16.51c-0.61,0.44-1.24,0.87-1.84,1.33c-12.83,9.96-25.66,19.93-38.48,29.9
		C132.2,277.37,126.44,281.86,120.68,286.35z"></path>
	<path d="M50.02,180.27c4.12-3.16,8.24-6.31,12.35-9.49c15.84-12.25,31.67-24.5,47.5-36.76
		c18.73-14.51,37.46-29.04,56.19-43.56c9.22-7.15,18.45-14.29,27.68-21.43c0.28-0.22,0.59-0.4,0.96-0.65
		c0.76,8.53-2.24,16.07-5.6,23.52c-1.49,2.76-2.4,5.74-3.33,8.71c-1.33,4.26-2.38,8.6-3.4,12.95c-11.13,8.6-22.26,17.2-33.38,25.81
		c-18.58,14.38-37.15,28.78-55.72,43.16c-14.5,11.23-29.01,22.45-43.51,33.67c-0.21-2.2,0.21-4.38,0.2-6.58
		c-0.03-9.31-0.01-18.62,0-27.93C49.96,181.22,50,180.74,50.02,180.27z"></path>
	<path d="M177.76,158.34c-3.71,2.84-7.43,5.67-11.12,8.54c-9.98,7.74-19.94,15.5-29.91,23.25
		c-12.81,9.96-25.61,19.93-38.41,29.89c-11.23,8.73-22.46,17.46-33.7,26.19c-5.36,4.17-10.74,8.32-16.11,12.48
		c0.07-2.63-0.01-5.27,0.25-7.88c0.3-3.03,0.16-6.06,0.36-9.08c0.29-4.45,0.21-8.93,0.33-13.4c0.05-2.07,0.2-4.14,0.3-6.21
		c0.37-0.24,0.76-0.45,1.1-0.71c2.65-2.06,5.29-4.13,7.94-6.19c16.09-12.51,32.18-25.02,48.28-37.53
		c12.91-10.03,25.81-20.06,38.72-30.09c8.74-6.8,17.47-13.6,26.21-20.4c3.03-2.35,6.08-4.67,9.13-7c-0.27,2-0.51,4.01-0.83,6
		c-0.56,3.58-0.97,7.18-1.25,10.79c-0.31,3.93-0.69,7.85-0.94,11.78C177.91,151.95,177.87,155.14,177.76,158.34z"></path>
</g>
<g onclick="select(this)" class="" id="estampa-primaria" fill="#bf0811">
	<path d="M120.68,286.35c5.76-4.49,11.52-8.98,17.28-13.46c12.82-9.97,25.65-19.94,38.48-29.9
		c0.6-0.46,1.22-0.89,1.84-1.33c0.51,5.48,0.41,10.99,0.72,16.48c0.21,3.58,0.36,7.16,0.5,10.74c0.19,5.1,0.46,10.19,0.8,15.28
		c-7.62,1.03-15.28,1.3-22.95,1.45c-11.71,0.23-23.41,0.52-35.11,0.77C121.72,286.38,121.2,286.36,120.68,286.35z"></path>
	<path d="M177.49,200.57c0.01,2.01,0.02,4.01,0.04,6.02c-3.42,2.63-6.86,5.24-10.27,7.88
		c-16.71,12.96-33.41,25.92-50.1,38.89c-13.48,10.47-26.95,20.94-40.43,31.41c-0.28,0.22-0.62,0.39-0.69,0.79
		c-2.63,0.01-5.26,0.01-7.89-0.2c8.54-6.64,17.07-13.3,25.62-19.93c13.5-10.48,27.01-20.96,40.51-31.44
		c14.01-10.87,28.01-21.75,42.02-32.62C176.68,201.07,177.09,200.83,177.49,200.57z"></path>
	<path d="M50.02,180.27c-0.02-0.52-0.05-1.04-0.04-1.56c0.11-8.03-0.08-16.06-0.3-24.09
		c-0.12-4.42-0.39-8.83-0.75-13.24c-0.49-5.97-1.03-11.95-2.01-17.87c-1.41-8.51-3.04-16.98-5.87-25.16
		c-0.2-0.59-0.42-1.18-0.63-1.78c-0.45,0.12-0.34,0.48-0.28,0.68c1.34,4.58,1.53,9.35,2.28,14.03c0.25,1.57,0.68,3.13,0.51,4.74
		c-0.4-0.75-0.14-1.67-0.6-2.41c-0.19-0.31-0.32-0.77-0.76-0.5c-1.16,0.71-2.46,0.58-3.72,0.73c-1.26,0.15-2.53,0.43-3.79,0.39
		c-2.24-0.06-4.46,0.19-6.69,0.23c-4.41,0.09-8.75-0.4-13.09-1.14c-4.07-0.69-8.03-1.66-11.91-3.04c-0.34-0.12-0.66-0.28-0.98-0.43
		c1.79-9.47,2.68-19.07,4.24-28.58c0.85-5.16,1.17-10.4,2.28-15.54c1.77-8.17,4.52-15.91,9.58-22.69c1.8-2.41,3.83-4.61,6.09-6.6
		c1.62-1.42,3.09-3.09,4.89-4.21c2.48-1.53,5.19-2.72,7.85-3.92c7.19-3.26,14.63-5.97,21.77-9.35c4.86-2.3,9.69-4.68,14.3-7.47
		c0.62-0.37,1.13-0.84,1.61-1.39c1.03-1.21,2.26-2.14,3.97-2.15c-1.7,1.29-2.1,2.46-1.53,4.61c0.77,2.89,2.08,5.52,3.93,7.88
		c0.56,0.71,1.02,0.83,1.74,0.22c1.61-1.37,3.26-2.7,4.93-4c0.57-0.44,0.52-0.69,0.06-1.2c-1.57-1.71-2.95-3.57-3.84-5.75
		c-0.32-0.78-0.25-1.05,0.72-0.94c3.83,0.46,7.66,0.88,11.5,1.24c2.17,0.2,4.35,0.38,6.53,0.48c4.65,0.22,9.29,0.77,13.95,0.5
		c4.91-0.29,9.84-0.35,14.73-0.9c2.37-0.27,4.75-0.33,7.13-0.52c1.78-0.14,3.56-0.28,5.33-0.49c1.02-0.12,1.16,0.29,0.8,1.1
		c-0.86,1.96-2.13,3.65-3.52,5.26c-0.39,0.44-0.39,0.67,0.08,1.02c1.82,1.36,3.62,2.76,5.43,4.14c0.39,0.3,0.68,0.57,1.15-0.04
		c1.83-2.37,3.36-4.9,3.95-7.85c0.5-2.49,0.26-3.57-1.7-4.53c1.86-0.14,3.04,0.99,4.13,2.24c0.34,0.4,0.7,0.72,1.14,1.01
		c8.67,5.77,18.35,9.43,27.87,13.42c5.29,2.21,10.49,4.61,15.76,6.87c0.28,0.12,0.55,0.3,0.8,0.48
		c12.38,8.75,19.42,20.84,21.58,35.67c1.38,9.51,3.76,18.8,5.33,28.25c0.68,4.1,1.27,8.21,1.91,12.31
		c-4.87,1.37-9.73,2.76-14.73,3.66c-3.06,0.55-6.13,1.05-9.2,1.55c-2.44,0.4-4.94,0.21-7.42,0.15c-3.63-0.08-7.28,0.01-10.83-0.96
		c-0.18-0.05-0.4,0.02-0.59,0.03c0.34-4.1,1.21-8.12,2.04-12.14c0.53-2.58,1.22-5.12,1.85-7.68c0.1-0.39,0.24-0.76,0.13-1.17
		c3.35-7.45,6.35-14.99,5.6-23.52c-0.38,0.25-0.68,0.43-0.96,0.65c-9.23,7.14-18.46,14.28-27.68,21.43
		c-18.73,14.52-37.45,29.04-56.19,43.56c-15.83,12.26-31.66,24.51-47.5,36.76C58.26,173.95,54.14,177.1,50.02,180.27z"></path>
	<path d="M48.28,264.97c0.08-2.09,0.16-4.19,0.24-6.28c5.37-4.16,10.74-8.31,16.11-12.48
		c11.24-8.73,22.47-17.46,33.7-26.19c12.81-9.96,25.61-19.93,38.41-29.89c9.97-7.75,19.93-15.51,29.91-23.25
		c3.69-2.86,7.41-5.69,11.12-8.54c0.19,2.17-0.25,4.32-0.22,6.48c-2.95,2.25-5.92,4.48-8.86,6.76
		c-9.07,7.03-18.12,14.07-27.18,21.11c-12.85,9.97-25.7,19.95-38.55,29.92c-17.02,13.21-34.04,26.41-51.06,39.61
		C50.7,263.14,49.48,264.05,48.28,264.97z"></path>
	<path d="M181.13,120.2c-3.04,2.33-6.1,4.65-9.13,7c-8.74,6.79-17.47,13.6-26.21,20.4
		c-12.9,10.03-25.81,20.06-38.72,30.09c-16.09,12.51-32.18,25.02-48.28,37.53c-2.65,2.06-5.29,4.13-7.94,6.19
		c-0.34,0.27-0.73,0.48-1.1,0.71c0-1.97-0.01-3.94-0.01-5.91c14.5-11.22,29.01-22.44,43.51-33.67
		c18.58-14.38,37.15-28.78,55.72-43.16c11.12-8.61,22.25-17.21,33.38-25.81C181.95,115.77,181.54,117.99,181.13,120.2z"></path>
</g>
</svg>
