<!--?xml version="1.0" encoding="utf-8"?-->
<!-- Generator: Adobe Illustrator 24.2.3, SVG Export Plug-In . SVG Version: 6.00 Build 0)  -->
<svg version="1.1" id="Camada_1" xmlns="http://www.w3.org/2000/svg" xmlns:xlink="http://www.w3.org/1999/xlink" x="0px" y="0px" viewBox="0 0 229 418" style="enable-background:new 0 0 229 418;" xml:space="preserve">
<style type="text/css">
	.st0{fill:#FD0202;}
	.st1{fill:#6A0B00;}
</style>
<g onclick="select(this)" class="" id="estampa-primaria" fill="#011023">
	<path d="M43.2,120.4c-0.2-1.9-0.3-3.8-0.5-5.7c-0.2-1.5-0.4-1.6-1.9-1.3c-1.1,0.2-2.1,0.4-3.2,0.6c-3.7,0.7-7.5,0.4-11.2,0.4
		c-6.5,0-12.9-0.6-19.2-2.1c-2-0.5-4-1.1-6-1.7c1-4.8,1.7-9.7,2.3-14.5c0.9-6.3,1.9-12.6,2.6-18.9c0.8-6.7,1.9-13.3,4-19.7
		c2.9-8.9,7.8-16.5,15.2-22.4c1.1-0.9,2-2.2,3.3-2.9c3.6-1.9,7.3-3.7,11-5.3c10-4.1,20-8.2,29.5-13.4c2-1.1,4-2.1,5.5-3.9
		c0.8-1,2.1-1.6,3.5-1.6c-1.7,0.9-2,2.4-1.7,4.1c0.4,2.1,1.1,4.2,2.3,6c5.9,8.6,14.3,13.9,24.1,17.1c2,0.7,4.2,1.1,6.6,1
		c-0.8-1.3-1.7-2.3-2.7-3.3c-4.4-4.6-9.3-8.5-14.3-12.4c-2.5-2-4.7-4.2-6.7-6.7c-1-1.2-1.7-2.5-2.3-3.9c-0.3-0.7-0.2-1,0.6-0.9
		c3.5,0.4,7.1,0.7,10.6,1c7.9,0.6,15.8,1.4,23.8,1c6.3-0.4,12.5-0.7,18.8-1.2c2.3-0.2,4.5-0.3,7-0.5c-0.4,0.8-0.6,1.4-1,2
		c-1.2,2.3-2.9,4.2-4.7,6.1c-2.9,3-6.4,5.2-9.5,7.8c-3.5,3-7.1,5.9-10,9.5c-0.4,0.5-0.9,1-1,1.8c1-0.1,2,0,2.9-0.2
		c5.1-0.9,9.7-3.1,14.1-5.6c3.3-1.9,6.4-4.2,9.1-6.8c3.1-3,5.5-6.4,6.6-10.6c0.6-2.2,0-4.3-1.7-4.7c1.9-0.3,3.1,0.9,4.2,2.2
		c0.3,0.4,0.7,0.7,1.1,1c8.9,5.9,18.8,9.6,28.5,13.7c5.1,2.1,10,4.4,15.1,6.6c0.3,0.1,0.6,0.3,0.8,0.5c12,8.5,19.2,20.2,21.4,34.6
		c1.7,11.3,4.7,22.4,6.2,33.7c0.4,2.7,0.8,5.3,1.2,7.9c-0.4,0-0.8,0.1-1.2,0.2c-5.3,2.4-10.8,3.4-16.5,4.2c-4.9,0.7-9.8,1.4-14.8,1
		c-3-0.2-6.1,0-9.1-0.7c-0.4-0.1-1-0.3-1.1,0.5c-0.1,2.1-1,4.2-0.7,6.4c-0.4,0.8-0.3,1.7-0.4,2.6c-1,8.4-1.7,16.8-1.7,25.2
		c0,2.2,0.1,4.4,0.5,6.6c0.4,1.9,0,3.8-0.2,5.7c-0.2,2.1-0.2,4.2-0.1,6.3c0.1,2.2-0.1,4.3-0.2,6.5c-0.1,2.8-0.1,5.7,0.1,8.5
		c0.1,1.7,0.1,3.4-0.1,5c-0.3,3,0.2,5.9,0.8,8.8c1.7,7.3,1.5,14.8,0.4,22.2c-0.3,2.1-0.4,4.2,0.3,6.4c1.8,5.5,1.8,11.1,0.9,16.7
		c-0.2,1.4-0.2,2.7,0.1,4c0.9,3.8,0.5,7.7,0.7,11.6c0.3,6,0.7,12,1.4,17.9c0.3,2,0.2,4.1,0.3,6.1c0,1.8-0.3,2.3-2.1,2.8
		c-3,0.9-6,1.1-9.1,1.5c-7.7,0.8-15.5,0.9-23.2,1c-11.2,0.2-22.5,0.7-33.7,0.8c-12.5,0.2-24.9-0.8-37.4-0.8
		c-8.4,0-16.8-0.1-25.2-0.7c-4.1-0.3-8.3-0.8-12.4-1.7c-0.3-0.1-0.5-0.1-0.8-0.2c-3-0.8-3.3-1.2-3.2-4.2c0.5-7.8,1-15.7,1.6-23.5
		c0.1-2,0.3-4.1,0.2-6.1c0-1.8,0-3.6,0.4-5.4c0.4-2.2,0.5-4.4,0.1-6.7c-0.4-2.5-0.1-5,0.4-7.5c0.2-1.1,0.2-2.1,0.1-3.2
		c-0.3-4.5-1-8.9-0.8-13.4c0.2-4.4,1.2-8.6,2.7-12.7c0.4-1,0.6-2,0.4-3c-0.2-1.2-0.2-2.5,0.1-3.7c0.3-1.7,0.2-3.3,0.1-5
		c-0.2-3.3-0.2-6.6-0.2-9.9c-0.1-12.9,0-25.8-0.1-38.7c0-5.2-1-10.3-1.5-15.5C43.6,122.9,43.7,121.6,43.2,120.4z"></path>
</g>
<g onclick="select(this)" class="" id="gola-primaria" fill="#011023">
	<path d="M149.2,8.3c1.7,0.5,2.3,2.5,1.7,4.7c-1.2,4.2-3.5,7.7-6.6,10.6c-2.7,2.6-5.8,4.9-9.1,6.8
		c-4.4,2.6-9,4.7-14.1,5.6c-1,0.2-1.9,0.1-2.9,0.2c0.1-0.8,0.6-1.3,1-1.8c2.9-3.6,6.4-6.5,10-9.5c3.2-2.6,6.6-4.9,9.5-7.8
		c1.8-1.8,3.4-3.8,4.7-6.1c0.3-0.6,0.6-1.3,1-2c-2.4,0.2-4.7,0.3-7,0.5c-6.3,0.5-12.5,0.9-18.8,1.2c-8,0.5-15.9-0.4-23.8-1
		c-3.5-0.3-7.1-0.6-10.6-1c-0.9-0.1-0.9,0.2-0.6,0.9c0.6,1.4,1.3,2.7,2.3,3.9c2,2.5,4.2,4.7,6.7,6.7c5,3.9,9.9,7.8,14.3,12.4
		c1,1,1.8,2,2.7,3.3c-2.4,0.2-4.5-0.3-6.6-1c-9.8-3.2-18.1-8.5-24.1-17.1c-1.2-1.8-1.9-3.8-2.3-6c-0.3-1.7,0-3.2,1.7-4.1
		c0.5,0,0.9-0.3,1.3-0.6c0.9-0.9,2-1.7,2.7-2.7c2-2.9,5-3.6,8.2-3.9c3.1-0.3,6.1,0.1,9.2,0c4.4-0.1,8.8,0,13.2-0.1
		c7.9-0.2,15.8,0,23.7,0c0.9,0,1.8,0.2,2.7,0.3c2.2,0.3,4.2,1.2,5.6,3.1C146,5.8,147.4,7.3,149.2,8.3z"></path>
</g>
<g onclick="select(this)" class="" id="detalhe-punho" fill="#71aad4">
	<path d="M0.3,114.4c0.6-1.2,0.4-2.7,0.9-3.9c2,0.6,4,1.2,6,1.7c6.3,1.6,12.7,2.1,19.2,2.1c3.7,0,7.5,0.3,11.2-0.4
		c1.1-0.2,2.1-0.4,3.2-0.6c1.5-0.3,1.7-0.2,1.9,1.3c0.2,1.9,0.3,3.8,0.5,5.7c-0.9,0.7-2,1-3.1,1.2c-2.5,0.5-5,0.8-7.6,0.8
		c-7,0.1-14,0-20.9-1.2c-3-0.6-6-1.1-8.9-2.1c-0.8-0.3-1.6-0.6-2.4-1C0.3,116.8,0.3,115.6,0.3,114.4z"></path>
	<path d="M184.7,120.1c-0.3-2.2,0.6-4.2,0.7-6.4c0-0.8,0.7-0.6,1.1-0.5c3,0.7,6,0.5,9.1,0.7c5,0.3,9.9-0.3,14.8-1
		c5.7-0.8,11.3-1.9,16.5-4.2c0.4-0.2,0.8-0.3,1.2-0.2c1.1,2.3,1.2,4.8,1.1,7.4c0,0.7-0.8,0.8-1.3,1c-2.9,1.1-5.8,1.9-8.8,2.6
		c-8.7,2.3-17.6,2.8-26.6,2.3c-2.1-0.1-4.1-0.3-6.1-0.9C185.5,120.7,185,120.6,184.7,120.1z"></path>
</g>
<g onclick="select(this)" class="" id="estampa-secundaria" fill="#71aad4">
	<path d="M186.5,267.6c0.3,2.2,0.3,4.5,0.7,6.7c0.1,0.4,0,0.9-0.1,1.3c-0.6,0-1.1,0-1.7,0c-47.6,0-95.1,0-142.7,0
		c-2.4,0-2.4,0-2.3-2.4c0.2-1.9,0.4-3.8,0.6-5.7c0.6,0,1.1,0,1.7,0c47.4,0,94.8,0,142.2,0C185.4,267.6,185.9,267.6,186.5,267.6z"></path>
	<path d="M185.7,257.5c0.2,2.5,0.4,4.9,0.6,7.4c-0.1,1.1-0.9,0.7-1.4,0.7c-47.2,0-94.4,0-141.6,0c-2,0-2,0-2.1-1.9
		c0.1-1.2,0.2-2.5,0.3-3.7c0.2-0.7,0.2-1.4,0.1-2.1c0-0.1,0.1-0.2,0.1-0.4c0.5,0,1,0,1.4,0c47,0,94,0,141,0
		C184.7,257.4,185.2,257.5,185.7,257.5z"></path>
	<path d="M187.4,277.8c0,0.9,0.1,1.8,0.1,2.6c0,1.8-0.3,2.3-2,2.8c-3.7,1.1-7.5,1.4-11.4,1.7c-15.2,1.1-30.4,0.9-45.7,1
		c-19.8,0.2-39.5-0.1-59.3-0.4c-7.7-0.1-15.3-0.5-22.9-1.8c-1.3-0.2-2.7-0.5-3.9-1c-1.6-0.6-1.9-1-1.9-2.8c0-0.7,0-1.4,0.1-2.2
		c0.5,0,1,0,1.4,0c48,0,96.1,0,144.1,0C186.4,277.7,186.9,277.7,187.4,277.8z"></path>
	<path d="M183.4,220.2c-0.3,0.9,0.1,1.8,0.4,2.7c0.4,1.3,0.7,2.7,1.1,4.1l-0.1,0.1l0.1,0.1c0,0.1,0,0.2,0,0.3
		c-0.4,0-0.9,0.1-1.3,0.1c-46.3,0-92.6,0-138.9,0c-0.5,0-1,0-1.4,0c-0.2-2.1-0.4-4.2-0.6-6.3c-0.2-1.1,0.3-1.3,1.4-1.3
		c29.3,0,58.7,0,88,0c16.7,0,33.3,0,50,0C182.5,219.9,183.1,219.6,183.4,220.2z"></path>
	<path d="M42.3,244.5c-0.1-0.8,0.3-1.4,0.4-2.2c0.2-1.5,0.2-3,0-4.5c0.2,0,0.3,0,0.5,0c46.8,0,93.7,0,140.5,0
		c0.6,0,1.1,0,1.7,0c-0.1,1-0.1,2-0.3,3c-0.3,1.4-0.2,2.7,0.2,4c-0.3,0.7-1,0.4-1.5,0.4c-46.6,0-93.2,0-139.8,0c-0.2,0-0.5,0-0.7,0
		C42.5,245.4,42.3,245.1,42.3,244.5z"></path>
	<path d="M42.5,235.9c-0.3-2.3,0.1-4.6,0.6-6.9c0.4,0,0.8,0.1,1.2,0.1c46.5,0,93,0,139.5,0c0.4,0,0.9,0,1.3,0
		c0.5,2.3,0.5,4.6,0.3,6.9c-0.5,0-1,0.1-1.6,0.1c-46.6,0-93.2,0-139.8,0C43.6,235.9,43,235.9,42.5,235.9z"></path>
	<path d="M42.5,218.1c0-0.1-0.1-0.3-0.1-0.4c0.2-1.6,0.6-3.1,0.4-4.6c-0.2-1.4,0.3-1.3,1.3-1.3c46.2,0,92.4,0,138.7,0
		c0.5,0,1,0,1.6,0c-0.2,1.9-0.3,3.7-0.5,5.6c0,0-0.1,0.1-0.1,0.1c0,0.1,0,0.1,0.1,0.2c-0.1,0.2-0.1,0.3-0.2,0.5c-0.4,0-0.7,0-1.1,0
		c-46.3,0-92.6,0-138.8,0C43.3,218.1,42.9,218.1,42.5,218.1z"></path>
	<path d="M42.7,209.3c0.2-2.1,0.6-4.1,1.4-6c0.6,0,1.1,0,1.7,0c46.2,0,92.4,0,138.6,0c0,0.1,0.1,0.2,0.1,0.3
		c-0.1,0.1-0.1,0.2,0,0.3c0,1.8,0.2,3.6,0,5.4c-0.5,0-1,0.1-1.6,0.1c-46.2,0-92.5,0-138.7,0C43.7,209.4,43.2,209.3,42.7,209.3z"></path>
	<path d="M183.3,195.4c0.3,1.6,0.6,3.3,0.9,4.9l-0.1,0.1l0.1,0.1c0,0.1,0,0.2,0,0.4c-0.6,0-1.1,0.1-1.7,0.1
		c-45.5,0-90.9,0-136.4,0c-0.4,0-0.9,0-1.3,0c0.9-1.8,0.5-3.6,0.5-5.5c0.5,0,1,0,1.6,0c44.9,0,89.9,0,134.8,0
		C182.3,195.3,182.8,195.3,183.3,195.4z"></path>
	<path d="M45.8,191.9c0-0.1,0-0.2,0-0.4c0.1-0.8,0.1-1.5-0.1-2.3c0-0.3-0.1-0.7-0.1-1c0.1-0.4,0-0.8-0.1-1.3
		c0-0.1,0.1-0.2,0.1-0.4c0.3,0,0.6,0,1,0c44.9,0,89.8,0,134.6,0c0.3,0,0.6,0,0.8,0c0.3,0,0.4,0.2,0.5,0.4c-0.1,1.1-0.1,2.1,0,3.2
		c-0.1,0.4-0.1,0.8,0.1,1.2c0,0.1,0,0.3,0,0.5c-0.5,0-1,0.1-1.6,0.1c-44.6,0-89.2,0-133.8,0C46.7,191.9,46.2,191.9,45.8,191.9z"></path>
	<path d="M45.4,178.4c0.4,0,0.8-0.1,1.2-0.1c45,0,90.1,0,135.2,0c0.2,0,0.4,0,0.6,0c0.1,1.4,0.1,2.9,0.2,4.3
		c-0.4,0-0.9,0-1.3,0c-44.8,0-89.6,0-134.4,0c-0.4,0-0.9,0-1.3,0C45.4,181.2,45.4,179.8,45.4,178.4z"></path>
	<path d="M182.4,173.7c-22.1,0-44.1,0-66.2,0c-23.1,0-46.1,0-69.2,0c-0.5,0-1-0.1-1.5-0.1c0-0.1,0-0.2,0-0.4
		c0.2-0.3,0.1-0.6,0.1-0.9c0-0.8,0.1-1.6,0.1-2.4c0.4,0,0.8-0.1,1.2-0.1c45,0,90.1,0,135.1,0c0.2,0,0.5,0,0.7,0
		C182.6,171.2,182.5,172.5,182.4,173.7z"></path>
	<path d="M182.6,165.1c-0.5,0-1,0.1-1.4,0.1c-44.8,0-89.6,0-134.4,0c-0.5,0-1,0-1.4,0c0-0.1,0-0.3-0.1-0.4
		c0.1-0.8,0.1-1.6-0.1-2.5c0-0.1,0.1-0.2,0.1-0.4c0.3,0,0.6,0,0.8,0c45.1,0,90.3,0,135.4,0c0.4,0,0.7,0,1.1,0
		C182.6,163,182.6,164.1,182.6,165.1z"></path>
	<path d="M183.1,156.9c-0.5,0-1,0-1.6,0c-44.8,0-89.6,0-134.4,0c-0.6,0-1.1,0-1.7-0.1c0-0.8,0-1.5,0-2.3
		c0.6,0,1.1,0,1.7,0c44.7,0,89.4,0,134.1,0c0.6,0,1.2,0,1.8,0C183.2,155.3,183.2,156.1,183.1,156.9z"></path>
	<path d="M182.4,148.5c-0.5,0-1,0.1-1.4,0.1c-44.7,0-89.3,0-134,0c-0.5,0-1,0-1.6,0c0-0.7,0-1.4,0-2.1
		c0.5,0,1-0.1,1.6-0.1c44.7,0,89.4,0,134.1,0c0.5,0,1,0.1,1.6,0.1C182.5,147.1,182.5,147.8,182.4,148.5z"></path>
	<path d="M182.7,139.7c-0.4,0-0.7,0-1.1,0c-45,0-90,0-135,0c-0.4,0-0.8,0-1.2,0c0-0.5,0-1.1,0-1.6c0.5,0,1,0,1.4,0
		c44.8,0,89.6,0,134.4,0c0.5,0,1,0,1.6,0.1C182.7,138.7,182.7,139.2,182.7,139.7z"></path>
	<path d="M184.1,122.7c-0.2,0-0.4,0-0.6,0c-46.6,0-93.3,0-139.9,0c0-0.2-0.1-0.4-0.1-0.6c0.5,0,1-0.1,1.4-0.1
		c45.9,0,91.9,0,137.8,0c0.5,0,1,0,1.4,0C184.3,122.3,184.3,122.5,184.1,122.7z"></path>
	<path d="M44.4,129.9c0.5,0,1-0.1,1.4-0.1c45.4,0,90.8,0,136.1,0c0.5,0,1.4-0.4,1.5,0.6c0,0.1-0.1,0.2-0.1,0.4
		c-0.4,0-0.7,0-1.1,0c-45.6,0-91.2,0-136.8,0c-0.3,0-0.6,0-0.8,0c0-0.1-0.1-0.3-0.2-0.4l0.1,0l-0.1,0
		C44.4,130.2,44.4,130.1,44.4,129.9z"></path>
	<path d="M41.6,257.8c0.1,0.7,0,1.4-0.1,2.1C41.5,259.2,41.6,258.5,41.6,257.8z"></path>
	<path d="M184.5,203.9c-0.1-0.1-0.1-0.2,0-0.3C184.6,203.6,184.6,203.8,184.5,203.9z"></path>
	<path d="M183.8,217.6c0-0.1,0-0.1-0.1-0.2c0,0,0.1-0.1,0.1-0.1C183.8,217.4,183.8,217.5,183.8,217.6z"></path>
	<polygon class="st1" points="184.2,200.4 184.1,200.3 184.2,200.3 184.2,200.3 	"></polygon>
	<polygon class="st1" points="44.4,130.4 44.5,130.4 44.4,130.5 44.4,130.4 	"></polygon>
	<polygon class="st1" points="184.9,227 184.8,227 184.9,226.9 184.9,227 	"></polygon>
	<path d="M42.6,114.2c0-0.1,0-0.2-0.1-0.3c0.4-0.4,0.8-0.2,1.3-0.2c46.7,0,93.3,0,140,0c0.2,0,0.5,0,0.7,0
		c0.2,0,0.4,0.1,0.4,0.3c0,0.2-0.2,0.3-0.4,0.3c-0.3,0-0.6,0-0.8,0c-46.6,0-93.2,0-139.8,0C43.5,114.3,43.1,114.2,42.6,114.2z"></path>
	<path d="M185.6,248c0.1,2.2,0.1,4.3,0.1,6.5c0,0.8-0.3,1-1,0.9c-0.2,0-0.5,0-0.7,0c-46.8,0-93.6,0-140.4,0
		c-1.6,0-1.6,0-1.5-1.7c0.1-1.8,0.1-3.7,0.1-5.5c0-0.7,0.2-1,0.9-0.9c0.2,0,0.5,0,0.7,0c46.8,0,93.5,0,140.3,0
		c0.5,0,1.3-0.4,1.6,0.5C185.5,247.9,185.6,247.9,185.6,248z"></path>
</g>
</svg>
