<!--?xml version="1.0" encoding="utf-8"?-->
<!-- Generator: Adobe Illustrator 24.2.3, SVG Export Plug-In . SVG Version: 6.00 Build 0)  -->
<svg version="1.1" id="Camada_1" xmlns="http://www.w3.org/2000/svg" xmlns:xlink="http://www.w3.org/1999/xlink" x="0px" y="0px" viewBox="0 0 229 418" style="enable-background:new 0 0 229 418;" xml:space="preserve">
<style type="text/css">
	.st0{fill:#1F49C1;}
	.st1{fill:#FB0101;}
	.st2{fill:#F802E2;}
	.st3{fill:#00FC07;}
	.st4{fill:#3348BD;}
	.st5{fill:#F6E463;}
	.st6{fill:#F7E663;}
	.st7{fill:#F7E764;}
	.st8{fill:#E48B59;}
	.st9{fill:#020203;}
	.st10{fill:#DB6057;}
	.st11{fill:#DD6857;}
	.st12{fill:#DF6E57;}
	.st13{fill:#211EB8;}
</style>
<path d="M117,49c-0.8,0.2-1.6,0.8-2.5,0.6c-0.2-0.8,0-1.6,0.2-2.3c0.9-3.6,2.6-6.9,4.5-10.1c4.1-4.3,8.1-8.6,12.2-12.8
	c3.1-3.1,5.7-6.6,7.9-10.4c0.8-1.4,1.8-2.7,2.1-4.4c0.8-1.3,1-2.7,1-4.1c0-1-0.5-1.7-1.4-2c-1.1-0.4-2.2-0.6-3.3-0.6
	c-15.7,0-31.3,0-47,0c-1.2,0-2.4,0.2-3.5,0.7c-0.7,0.3-1.2,0.8-1.2,1.6c0,1.4,0.1,2.9,0.8,4.2c0,0.6,0.3,1.1,0.6,1.6
	c2.4,4.4,5.1,8.7,8.6,12.4c4.4,4.6,8.9,9.1,13.1,13.9c2.2,3.3,3.9,6.9,4.8,10.8c0.1,0.6,0.2,1.1,0,1.7c-0.8,0.1-1.5-0.1-2.2-0.5
	c-0.1-0.1-0.2-0.2-0.3-0.2c0,0,0,0,0,0c-1-4.6-2.9-8.8-6.2-12.2c-2.7-2.9-5.4-5.8-8.2-8.6c-3.8-3.9-7.4-8-10.2-12.8
	c-2-3.3-3.5-6.8-3.5-10.8c0.4-2,2.3-3.5,4.8-3.8c1.3-0.2,2.6-0.3,3.9-0.3c14.7,0,29.5,0,44.2,0c1.7,0,3.4,0.1,5,0.5
	c1.5,0.4,2.7,1.2,3.3,2.6c0.8,2.8-0.1,5.5-1.2,8c-1.9,4.2-4.4,8.1-7.5,11.5c-4.1,4.5-8.4,8.9-12.5,13.3C120.1,40,118,44.2,117,49z"></path>
<g onclick="select(this)" class="" id="detalhe-punho" fill="#bf0811">
	<path d="M44,120.6c-1.4,1-3.1,1.2-4.8,1.5c-6.7,0.9-13.5,0.7-20.2,0.2c-5.1-0.4-10.1-1.3-15-2.7
		C3,119.1,2,118.7,1,118.3c0-1.1,0-2.2,0-3.4c0.5-1,0.4-2.2,0.7-3.2c0.1-0.6,0.1-1.2,0.5-1.7c0.5,0.4,1.1,0.7,1.7,0.8
		c1.7,0.4,3.4,0.9,5.1,1.2c3.7,0.7,7.3,1.9,11.2,2c1.9,0.1,3.7,0.2,5.6,0.3c3.7,0.3,7.4,0.1,11.1,0.2c1.9,0,3.7-0.5,5.5-1.2
		c0.4-0.2,0.7-0.3,0.8,0.3C43.6,115.9,44,118.2,44,120.6z"></path>
	<path d="M185.2,120.3c-0.2-2.2,0.4-4.4,0.7-6.5c0.1-0.6,0.3-0.7,0.9-0.6c5.6,1.2,11.4,0.9,17,0.7
		c8.1-0.4,15.9-2.4,23.5-5c0.3-0.1,0.6-0.3,0.9-0.5c0.8,1.2,0.6,2.7,0.9,4c0.2,0.8,0.1,1.7,0.2,2.5c0.2,1.3-0.4,1.9-1.6,2.2
		c-5.7,1.9-11.6,3.3-17.6,4.3c-5.4,0.8-10.9,0.7-16.4,0.7c-2.5,0-4.9-0.3-7.3-0.9C186.1,121,185.6,120.8,185.2,120.3z"></path>
</g>
<g onclick="select(this)" class="" id="gola-terciaria" fill="#082890">
	<path d="M119.3,37.2c-2,3.1-3.6,6.5-4.5,10.1c-0.2,0.8-0.5,1.5-0.2,2.3c-0.2,0-0.3,0-0.5,0c0.1-0.6,0.1-1.1,0-1.7
		c-0.9-3.9-2.6-7.5-4.8-10.8C112.5,37.2,115.9,37.2,119.3,37.2z"></path>
</g>
<path d="M111.5,48.9c0.2,0,0.3,0.1,0.3,0.2C111.7,49.1,111.5,49.2,111.5,48.9z"></path>
<g onclick="select(this)" class="" id="estampa-primaria" fill="#ffffff">
	<path d="M44,120.6c0-2.4-0.5-4.7-1-7c-0.1-0.5-0.4-0.4-0.8-0.3c-1.8,0.7-3.5,1.2-5.5,1.2c-3.7,0-7.4,0.1-11.1-0.2
		c-1.9-0.1-3.7-0.3-5.6-0.3c-3.8-0.1-7.4-1.3-11.2-2c-1.7-0.3-3.4-0.8-5.1-1.2c-0.6-0.2-1.2-0.4-1.7-0.8c1.8-9.5,2.7-19.1,4.2-28.6
		C7.2,76.3,7.5,71.1,8.6,66c1.8-8.2,4.5-16,9.6-22.8c2-2.7,4.3-5.2,7-7.4c1.4-1.1,2.5-2.7,4.1-3.5c3.6-1.9,7.3-3.7,11-5.3
		c9.9-4.1,19.9-8.1,29.3-13.4c2-1.1,4-2.1,5.6-4c0.9-1,2.1-1.8,3.7-1.4c-2,1.2-2.4,2.2-2,4.5c0.4,2.3,1.5,4.3,2.8,6.2
		c5.5,8.3,11.9,15.8,19.2,22.6c3.1,2.9,6.5,5.2,10.4,6.7c0.7,0.3,1.4,0.8,2.2,0.7l0,0c0,0.2,0.2,0.2,0.3,0.2
		c0.7,0.3,1.4,0.6,2.2,0.5c0.2,0,0.3,0,0.5,0c0.9,0.3,1.7-0.4,2.5-0.6c0.9-0.3,1.8-0.7,2.7-1c5.3-1.9,9.2-5.7,13.1-9.5
		c6-5.7,11-12.2,15.7-19c1.5-2.1,2.8-4.4,3.3-7c0.4-1.8-0.1-3.2-1.6-4.2c1.7,0,2.8,1,3.8,2.2c0.3,0.4,0.7,0.7,1.1,1
		c10,6.5,21.2,10.6,32.1,15.2c4,1.7,7.9,3.4,11.7,5.3c2.2,1.1,3.9,3,5.8,4.6c7.7,6.5,12.3,15,14.9,24.6c1.1,4,1.9,8,2.3,12.1
		c0.5,5.6,2.1,10.9,3.2,16.3c1.3,6.2,2.1,12.4,3.1,18.7c-0.3,0.2-0.6,0.4-0.9,0.5c-7.6,2.6-15.5,4.6-23.5,5
		c-5.7,0.3-11.4,0.5-17-0.7c-0.6-0.1-0.8,0-0.9,0.6c-0.4,2.2-1,4.3-0.7,6.5c-0.4,0.8-0.3,1.7-0.4,2.6c-1,8.4-1.7,16.8-1.7,25.2
		c0,2.2,0.1,4.4,0.5,6.6c0.4,1.9,0,3.8-0.2,5.7c-0.2,2.1-0.2,4.2-0.1,6.3c0.1,2.2-0.1,4.3-0.2,6.5c-0.1,2.8-0.1,5.7,0.1,8.5
		c0.1,1.7,0.1,3.4-0.1,5c-0.3,3.1,0.2,6.1,0.9,9.1c1.6,7.2,1.4,14.5,0.3,21.8c-0.3,2.1-0.4,4.2,0.3,6.4c1.8,5.4,1.8,11,0.9,16.6
		c-0.2,1.5-0.2,2.9,0.1,4.4c0.9,3.8,0.4,7.6,0.6,11.5c0.3,5.9,0.7,11.9,1.4,17.8c0.3,2,0.2,4.1,0.3,6.1c0,1.8-0.3,2.3-2.1,2.9
		c-3,0.9-6.1,1.2-9.2,1.5c-7.7,0.8-15.4,0.9-23.1,1c-11.2,0.2-22.4,0.7-33.7,0.8c-12.5,0.2-24.9-0.8-37.4-0.8
		c-8.4,0-16.8-0.1-25.2-0.7c-4.1-0.3-8.3-0.8-12.3-1.7c-0.2,0-0.4-0.1-0.6-0.1c-3.2-0.8-3.6-1.2-3.4-4.5c0.5-7.8,1-15.5,1.6-23.3
		c0.1-2,0.3-4.1,0.2-6.1c0-1.8,0-3.6,0.4-5.4c0.4-2.3,0.5-4.5,0.1-6.8c-0.3-1.8-0.3-3.7,0.1-5.5c0.7-2.7,0.4-5.5,0.2-8.2
		c-0.3-3.5-0.7-7-0.6-10.5c0.2-4.3,1.2-8.4,2.6-12.4c0.4-1.1,0.7-2.1,0.5-3.3c-0.2-1.2-0.2-2.5,0.1-3.7c0.3-1.6,0.2-3.2,0.1-4.9
		c-0.2-3.3-0.2-6.6-0.2-9.9c-0.1-12.9,0-25.9-0.1-38.8c0-5.1-1-10.2-1.5-15.3C44.4,123.3,44.2,121.9,44,120.6z"></path>
	<path d="M119.3,37.2c-3.4,0-6.7,0-10.1,0c-4.2-4.8-8.8-9.3-13.1-13.9c-3.5-3.7-6.2-7.9-8.6-12.4c-0.3-0.5-0.5-1-0.6-1.6
		c3.1,0.3,6.1,0.6,9.2,0.8c8.3,0.6,16.7,1.4,25.1,0.8c6.8-0.5,13.5-0.9,20.3-1.4c-0.3,1.6-1.3,3-2.1,4.4c-2.2,3.8-4.8,7.2-7.9,10.4
		C127.4,28.6,123.3,32.9,119.3,37.2z"></path>
</g>
<g onclick="select(this)" class="" id="gola-primaria" fill="#ffffff">
	<path d="M117,49c1-4.8,3.1-9,6.4-12.6c4.2-4.5,8.4-8.8,12.5-13.3c3.1-3.4,5.6-7.3,7.5-11.5c1.2-2.5,2-5.1,1.2-8
		c1,0.6,1.6,1.6,2.4,2.4c1,0.9,1.8,1.9,3,2.4c1.6,1.1,2,2.4,1.6,4.2c-0.5,2.6-1.8,4.9-3.3,7c-4.7,6.7-9.8,13.2-15.7,19
		c-3.9,3.8-7.8,7.5-13.1,9.5C118.8,48.4,117.9,48.7,117,49z"></path>
	<path d="M83.4,4.5c0,4,1.6,7.4,3.5,10.8c2.8,4.8,6.4,8.9,10.2,12.8c2.8,2.8,5.5,5.7,8.2,8.6c3.2,3.5,5.2,7.6,6.2,12.2
		c-0.8,0.1-1.5-0.4-2.2-0.7c-3.9-1.5-7.3-3.8-10.4-6.7c-7.3-6.8-13.6-14.3-19.2-22.6c-1.3-1.9-2.3-3.9-2.8-6.2c-0.4-2.2,0-3.3,2-4.5
		c1.2-0.5,2-1.6,3-2.5C82.4,5.4,82.8,4.8,83.4,4.5z"></path>
	<path d="M141.4,9.6c-6.8,0.5-13.5,0.9-20.3,1.4c-8.4,0.6-16.7-0.2-25.1-0.8C93,9.9,90,9.6,86.9,9.3
		c-0.7-1.3-0.9-2.7-0.8-4.2c0-0.8,0.5-1.3,1.2-1.6c1.1-0.5,2.3-0.7,3.5-0.7c15.7,0,31.3,0,47,0c1.1,0,2.2,0.2,3.3,0.6
		c0.9,0.3,1.4,1,1.4,2C142.4,6.9,142.2,8.3,141.4,9.6z"></path>
</g>
<g onclick="select(this)" class="" id="gola-secundaria" fill="#bf0811">
	<path d="M83.5,3.8c0.8-1.9,2.4-2.7,4.3-3c1-0.2,2-0.3,3-0.3c15.6,0,31.2,0,46.8,0c1.2,0,2.4,0.2,3.6,0.5
		c1.6,0.4,2.8,1.2,3.6,2.6c0.1,0.2-0.1,0.5,0.3,0.5l0,0c0.1,3-0.6,5.9-2,8.5c-1.6,3.2-3.5,6.2-5.8,9c-3.5,4.4-7.6,8.4-11.5,12.4
		c-4.3,4.3-7.5,9.2-8.9,15.2c-0.2,0.1-0.4,0.2-0.6,0.3c-0.6,0.1-1.1,0.4-1.8,0.2c-0.2-0.5-0.1-1.1,0-1.6c0.9-3.9,2.6-7.4,4.7-10.8
		c4.2-4.4,8.4-8.9,12.6-13.3c3-3.1,5.4-6.5,7.6-10.1c0.8-1.4,1.7-2.7,2-4.3c0.7-1.3,1-2.7,1-4.1c0-0.9-0.4-1.5-1.3-1.8
		c-1.1-0.4-2.2-0.7-3.4-0.7c-15.7,0-31.4,0-47.1,0c-1.2,0-2.3,0.2-3.4,0.6c-0.8,0.3-1.3,0.9-1.3,1.8c0,1.4,0.2,2.7,0.8,3.9
		c0.2,0.4,0.3,0.9,0.5,1.3c1.8,3.6,3.9,7.1,6.5,10.2c4.9,5.7,10.4,10.9,15.4,16.4c1.8,2.9,3.4,5.8,4.3,9.1c0.3,1.1,0.8,2.1,0.5,3.3
		c-0.7,0.2-1.4-0.2-2.1-0.4c-0.1,0-0.1-0.1-0.2-0.1c-0.4-0.7-0.5-1.4-0.7-2.1c-1.3-4-3.2-7.7-6.2-10.8c-2.7-2.7-5.2-5.5-7.9-8.2
		c-3.8-3.9-7.3-7.9-10-12.6C84.8,11.8,82.8,8.2,83.5,3.8z"></path>
</g>
<path d="M42.8,216.8c0.2,0.4,0.1,0.9,0.1,1.3C42.7,217.7,42.8,217.3,42.8,216.8z"></path>
<path d="M45.7,162.7c0.1,0.3,0.1,0.6,0,0.9C45.6,163.4,45.6,163,45.7,162.7z"></path>
<path d="M45.5,135.6c0,0.2,0,0.4,0.1,0.7C45.4,136.1,45.4,135.8,45.5,135.6z"></path>
<path d="M41.2,272c0,0.3,0.1,0.5-0.1,0.8C41.1,272.5,41,272.2,41.2,272z"></path>
<path d="M42.9,212.4c0,0.2,0,0.4-0.1,0.6C42.8,212.8,42.8,212.6,42.9,212.4z"></path>
<path d="M43.5,225.9c0,0.2,0,0.4,0.1,0.6C43.6,226.3,43.6,226.1,43.5,225.9z"></path>
<path d="M183,191c0-0.1,0-0.3,0-0.4C183.1,190.7,183.1,190.9,183,191z"></path>
<path d="M185.7,245.5c0-0.1-0.1-0.3-0.1-0.4C185.7,245.2,185.7,245.3,185.7,245.5z"></path>
<path d="M183.8,195.4c-0.2-0.1-0.2-0.3-0.2-0.5C183.8,195,183.8,195.2,183.8,195.4z"></path>
<path d="M145,4.1c-0.4-0.1-0.2-0.3-0.3-0.5C144.9,3.7,144.9,3.9,145,4.1z"></path>
<path d="M183.1,167c-0.1-0.1-0.2-0.1-0.2-0.2c0.1,0,0.1-0.1,0.2-0.1C183.1,166.9,183.1,167,183.1,167z"></path>
<path d="M185.6,240.2c0-0.1,0-0.1,0-0.2C185.6,240.1,185.6,240.1,185.6,240.2C185.6,240.2,185.6,240.2,185.6,240.2z"></path>
<path d="M185,204.2c0-0.1-0.1-0.1-0.1-0.1c0,0,0,0,0.1-0.1C185,204.1,185,204.1,185,204.2z"></path>
<path d="M46.2,189.7c0,0.1,0,0.1,0.1,0.2c0,0,0,0.1,0,0.1c0-0.1,0-0.1-0.1-0.2C46.2,189.8,46.2,189.7,46.2,189.7z"></path>
<path d="M31.4,41.5c0,0,0,0.1,0,0.2c-0.1,0-0.2,0-0.3,0C31.3,41.6,31.3,41.5,31.4,41.5z"></path>
<path d="M49.2,48.9c0.1,0.1,0.2,0.1,0.2,0.2c-0.1,0-0.2,0-0.3,0C49.1,49,49.1,49,49.2,48.9z"></path>
<path d="M48.7,49.1c-0.1,0.1-0.2,0.1-0.3,0C48.5,49,48.6,49,48.7,49.1z"></path>
<path d="M170.6,80.9L170.6,80.9l-0.2,0C170.5,80.7,170.6,80.7,170.6,80.9z"></path>
<polygon class="st4" points="186.2,107.7 186.2,107.7 186.3,107.7 "></polygon>
<path d="M197,44.2l-0.1,0l-0.1-0.1C196.9,44,197,44,197,44.2z"></path>
<path d="M38.6,68.6c0-0.1,0.1-0.2,0.3-0.2C38.8,68.5,38.7,68.5,38.6,68.6z"></path>
<path d="M44.4,271.6L44.4,271.6h-0.1C44.3,271.5,44.3,271.5,44.4,271.6z"></path>
<path d="M54.5,258.2c-0.1,0-0.2,0-0.3,0C54.3,258,54.4,258,54.5,258.2z"></path>
<path d="M55.6,186.4c0.1,0,0.2,0,0.2,0C55.8,186.6,55.7,186.6,55.6,186.4z"></path>
<g onclick="select(this)" class="" id="estampa-secundaria" fill="#082890">
	<path d="M71.5,221.7c3.5,0.3,7.1,0.1,10.9,0.7c-4.1,0.5-7.8,0.3-11.6,0.7c-2.8,0.1-5.6,0.2-8.4,0.3
		c-6.3,0.1-12.7,0.1-19,0.2c-0.4-0.7,0-1.4-0.1-2.2c3.3-0.3,6.7,0.1,10,0.1c3.3,0,6.7,0.2,10.1,0.2
		C66.1,221.6,68.8,221.7,71.5,221.7z"></path>
	<path d="M72,212.8c0.2,0.6,0.6,0.4,1,0.2c0.4-0.2,0.8,0,1.1,0.3c-0.5,0.6-1.2,0.2-1.8,0.5c-4.1,0.2-8.2,0.4-12.3,0.5
		c-5.3,0.1-10.5,0.2-15.8,0.3c-0.4,0-0.9,0.1-1.3-0.2c0-0.4,0-0.9,0-1.3c0-0.2,0-0.4,0.1-0.6c0-0.1,0-0.2,0.1-0.3
		c5.1-0.2,10.3,0.1,15.4,0.2C62.9,212.5,67.4,212.6,72,212.8z"></path>
	<path d="M155.3,122.9c-1-0.2-2.1,0.3-3.1-0.5c1.1-0.6,2.3-0.1,3.3-0.3c0.9-0.1,1.8-0.2,2.7-0.4
		c1.2,0.1,2.4,0.1,3.6-0.2c0.6,0.1,1.1,0.2,1.7-0.1c2.8,0,5.6,0,8.4-0.2c0.7,0.2,1.5,0.2,2.2,0c3.6,0,7.2,0,10.8,0
		c0,0.8,0,1.6-0.2,2.3c-7.1,0.1-14.1-0.2-21.2-0.4C160.7,123.1,158,123,155.3,122.9z"></path>
	<path d="M72.7,217.3c1.4,0.4,2.9,0.1,4.4,0.2c0.3,0,0.7-0.1,1.1,0.3c-2,0.5-4,0.1-5.9,0.5c-6.1,0.1-12.1,0.5-18.2,0.4
		c-3.3,0-6.7,0.1-10.1,0.1c-0.3,0-0.7-0.1-1.1-0.1c0-0.2-0.1-0.4-0.1-0.7c0-0.4,0.1-0.9-0.1-1.3c0-0.1,0-0.1,0.1-0.1
		c1.2-0.3,2.3,0,3.4,0c4.2,0.1,8.4,0,12.5,0.2C63.5,217.1,68.1,217.2,72.7,217.3z"></path>
	<path d="M75.8,226.5c0.7,0.2,1.5,0,2.4,0.4c-1.7,0.4-3.2,0.3-4.7,0.3c-0.5,0-1-0.1-1.5,0.2c-0.8-0.2-1.7,0.1-2.5,0.1
		l-0.1-0.1l-0.1,0c-4.4,0.1-8.8,0.2-13.3,0.3c-3.9,0.1-7.7,0.1-11.6,0.2c-0.3,0-0.6,0-0.8-0.2c0-0.4-0.1-0.9-0.2-1.3
		c0-0.2,0-0.4-0.1-0.6l0-0.1c0.3,0,0.7-0.1,1-0.1c8.4,0.1,16.7,0.2,25.1,0.6c0.1,0,0.2,0,0.3,0l0.1,0l0.1-0.1c0.4,0,0.8,0.1,1.2,0.1
		C73,226.4,74.4,226.8,75.8,226.5z"></path>
	<path d="M72.7,230.9c0,0.8-0.8,0.6-1.2,1c-4.4,0.1-8.8,0.3-13.2,0.4c-4.7,0.1-9.4,0.1-14.1,0.2
		c-0.4,0-0.9,0.2-1.1-0.4c0.1-0.6,0.2-1.2,0.3-1.8c1.8-0.3,3.7-0.1,5.5,0c4.2,0.1,8.4,0,12.5,0.3c3.5,0.3,7,0.2,10.5,0.3
		C72.2,230.9,72.4,230.9,72.7,230.9z"></path>
	<path d="M161.3,127.5c-2.3-0.3-4.7-0.1-7.4-0.5c1.6-0.6,3-0.4,4.3-0.5c0.8-0.1,1.7,0.1,2.5-0.2
		c7.4-0.3,14.9-0.6,22.3-0.5c0.5,0,1,0,1.4,0c0,0.8,0,1.6-0.2,2.3c-6.8,0.1-13.6-0.3-20.3-0.5C162.9,127.6,162.1,127.6,161.3,127.5z
		"></path>
	<path d="M69.1,235.5c1.2,0.1,2.4,0.2,3.6,0.3c-1.2,0.6-2.6,0.4-3.9,0.7c-3.4,0.1-6.8,0.3-10.3,0.4
		c-4.8,0.1-9.6,0.2-14.4,0.3c-0.4,0-0.8,0.1-1.2-0.2c0-0.7,0-1.3-0.1-2c2.9-0.3,5.7,0,8.6,0c4.9,0.1,9.7,0.3,14.6,0.5
		C67.2,235.4,68.1,235.6,69.1,235.5z"></path>
	<path d="M67,208.1c1.8,0.4,3.8,0,5.6,0.7c-1.9,0.4-4,0.1-5.9,0.6c-3.8,0.1-7.6,0.3-11.4,0.4c-4,0.1-8,0.1-12,0.2
		c0-0.8,0-1.6,0.4-2.3c4.2-0.2,8.4,0.1,12.7,0.2C59.8,207.8,63.4,208.2,67,208.1z"></path>
	<path d="M65.7,239.9c1.4,0.1,2.8,0.3,4.2,0.4c-1.6,0.7-3.2,0.3-4.8,0.7c-5.8,0.2-11.5,0.4-17.2,0.5
		c-1.5,0-3,0.3-4.5-0.2c0-0.5,0-1,0-1.5c0-0.7,0.5-0.7,1-0.7c6.8,0.3,13.6,0.3,20.3,0.7C65,240,65.4,240,65.7,239.9z"></path>
	<path d="M156.2,131.6c-0.1-0.1-0.1-0.1-0.2-0.2c1.9-0.1,3.7,0.1,5.5-0.4c0.1,0,0.3-0.1,0.4-0.1c0.1,0,0.2,0,0.2,0
		c0.3,0,0.6,0,1,0.1c0.4,0.2,0.8,0.3,1.2-0.1c6.5-0.4,13-0.5,19.5-0.5c0,0.8,0.1,1.5-0.3,2.3c-3.8-0.1-7.6-0.1-11.3-0.3
		c-3.7-0.1-7.5-0.4-11.2-0.4C159.5,131.9,157.9,131.7,156.2,131.6z"></path>
	<path d="M67.2,203.8c1.2,0.1,2.4,0.1,3.5,0.4c-1,0.6-2.2,0.2-3.3,0.4c-4.8,0.2-9.5,0.4-14.3,0.6c-3,0.1-6,0.1-9,0.1
		c0-0.8,0.4-1.4,0.5-2.1c3-0.3,6.1,0.1,9.2,0.1c2.2,0,4.4,0.2,6.7,0.3c0.2,0.3,0.5,0.2,0.8,0.2C63.2,203.8,65.2,203.8,67.2,203.8z"></path>
	<path d="M63.1,244.5c1.3,0.1,2.5,0.3,3.7,0.4c-1.7,0.8-3.4,0.3-5.1,0.7c-5.9,0.3-11.9,0.4-17.8,0.6
		c-0.4,0-0.8-0.1-1.2-0.1c0.1-0.7,0.2-1.4,0.3-2.1c5.3-0.1,10.6,0.3,15.9,0.4c1,0,2,0.1,3,0.1c0.1,0,0.2,0,0.2,0
		C62.5,244.5,62.8,244.5,63.1,244.5z"></path>
	<path d="M165.6,135.4c0.5,0,1,0,1.4-0.1c0.6,0,1.2,0.2,1.8-0.1c4.4-0.1,8.8-0.2,13.2-0.3c0.5,0,0.9,0.1,1.4,0.1
		c-0.1,0.7-0.1,1.4-0.2,2.1c-5.5,0-10.9-0.3-16.4-0.5c-0.8,0-1.7,0-2.5,0c-1.6-0.5-3.4,0-5-0.7C161.5,135.9,163.6,135.7,165.6,135.4
		z"></path>
	<path d="M64.3,199.2c0.8,0,1.6,0.1,2.4,0.1c0.2,0,0.4,0.1,0.4,0.3c0,0.3-0.3,0.3-0.4,0.3c-0.5,0-0.9,0.1-1.4,0.1
		c-0.8,0-1.6,0.1-2.4,0.1c0-0.1-0.1-0.1-0.2,0c-3.9,0.2-7.9,0.4-11.8,0.5c-1.8,0.1-3.6,0.3-5.3-0.1c0.2-0.7,0.4-1.3,0.6-2
		c5-0.1,10,0.4,15,0.5C62.2,199.1,63.3,199.1,64.3,199.2z"></path>
	<path d="M163.9,141c-0.5-0.4-1.3,0.1-1.8-0.4c0.2-0.1,0.4-0.3,0.6-0.4c0.8,0,1.6,0,2.4,0c0.1,0,0.2,0,0.2,0
		c1.4-0.1,2.8-0.1,4.1-0.2l0.1,0l0.1,0c4.1-0.4,8.3-0.3,12.4-0.4c0.4,0,0.7,0,1.1,0c0,0.7,0,1.5,0,2.2c-4-0.1-8-0.3-12-0.4
		C168.7,141.1,166.3,141.1,163.9,141z"></path>
	<path d="M61.8,194.6c0.9,0.1,1.8,0.2,2.9,0.4c-0.8,0.6-1.5,0.2-2.1,0.5c-4.6,0.2-9.2,0.4-13.8,0.6c-1,0-1.9,0-2.9,0
		c0-0.7,0-1.4,0.1-2.1C51.3,194.3,56.5,194.5,61.8,194.6z"></path>
	<path d="M56.8,253.6c0.5,0.7,1.2,0.2,1.8,0.3c0.6,0.1,1.3,0,2.2,0c-1.1,0.7-2.2,0.4-3,0.8c-5.1,0.1-10.2,0.3-15.3,0.5
		c0-0.7,0-1.3,0.1-2c1.9-0.3,3.9,0,5.8,0C51.2,253.3,54,253.5,56.8,253.6z"></path>
	<path d="M168.9,145.6c-1.2-0.1-2.5-0.2-3.7-0.4c0-0.1,0-0.2,0-0.3c1.3-0.4,2.7,0,4.1-0.3c4.1-0.3,8.2-0.5,12.4-0.6
		c0.5,0,0.9,0.1,1.4,0.1c0,0.6,0,1.2,0,1.8c-1.4,0.4-2.8,0-4.1,0.1c-1.7-0.2-3.4-0.3-5.1-0.2c-1.1-0.1-2.2-0.1-3.4-0.2
		c-0.3-0.1-0.6-0.1-1,0C169.3,145.7,169.1,145.6,168.9,145.6z"></path>
	<path d="M55.9,258.2c0.9,0.2,1.9,0,2.8,0.6c-1.7,0.1-3.3,0.3-4.9,0.4c-3.9,0.1-7.8,0.2-11.7,0.4
		c0.1-0.6,0.1-1.3,0.2-1.9c3.6,0,7.2,0,10.7,0.4c0.4,0,0.8,0,1.2,0c0.1,0,0.2,0,0.3,0C54.9,258.2,55.4,258.2,55.9,258.2z"></path>
	<path d="M59.1,190.1c1.1,0.1,2.2,0.2,3.7,0.4c-1,0.5-1.9,0.3-2.7,0.5c-3.8-0.1-7.6,0.4-11.4,0.5c-0.8,0-1.5,0-2.3,0.1
		c0-0.5-0.1-1-0.1-1.5c0,0,0-0.1,0-0.1c0-0.1,0-0.1-0.1-0.2l0-0.1c2.7-0.1,5.4,0.2,8,0.3C55.9,190,57.5,190.1,59.1,190.1z"></path>
	<path d="M53.6,262.7c0.7,0.3,1.5,0,2.3,0.6c-1.2,0.6-2.5,0.1-3.6,0.5c-3.5,0.1-7,0.3-10.5,0.4c0-0.6,0.1-1.3,0.1-1.9
		c2.8,0.1,5.6,0.1,8.4,0.2c0.7,0.3,1.4,0.2,2.1,0.2c0.2,0.1,0.4,0.1,0.6,0C53.3,262.7,53.5,262.7,53.6,262.7z"></path>
	<path d="M177.4,150.4c-2.1-0.4-4.1-0.1-6.2-0.3c-1.2-0.1-2.5,0-3.7-0.5c2.8-0.4,5.7-0.3,8.5-0.7c0.1,0,0.1,0,0.2,0
		c0.5,0.1,1,0.1,1.4-0.1c0.2,0,0.3,0,0.5-0.1c0.4,0.1,0.8,0.2,1.2-0.1c1.2,0,2.4,0,3.6,0c0,0.6,0,1.3,0,1.9c-0.5,0-0.9,0.1-1.4,0.1
		c-0.9-0.3-1.8-0.2-2.7-0.2c-0.4,0-0.8,0-1.2-0.1C177.5,150.4,177.5,150.4,177.4,150.4L177.4,150.4z"></path>
	<path d="M55.7,185.5c1.3,0.1,2.6,0.3,3.9,0.4c-1,0.6-2.1,0.4-3.2,0.6c-0.2,0-0.3,0-0.5,0c-0.1,0-0.2,0-0.2,0
		c-3.2,0.1-6.4,0.3-9.6,0.5c0-0.6,0.1-1.1,0.1-1.7c2-0.2,4,0.2,6,0.2C53.3,185.4,54.5,185.4,55.7,185.5z"></path>
	<path d="M178.3,281.9c-0.8-0.2-1.6,0-2.5-0.5c1.2-0.5,2.4-0.1,3.5-0.4c2.4-0.1,4.7-0.3,7-0.4c0.5,0,1-0.2,1.5,0.2
		c-0.1,0.5,0.1,1.1-0.3,1.5c-2.5-0.1-5.1-0.2-7.6-0.4C179.4,281.9,178.8,281.9,178.3,281.9z"></path>
	<path d="M49.7,267.3c1.1,0.4,2.4-0.2,3.7,0.6c-1.7,0.6-3.3,0.1-4.9,0.6c-2.3,0.1-4.6,0.1-6.9,0.2c0-0.5,0-1,0-1.5
		c2.1-0.3,4.2,0,6.3,0.1C48.5,267.2,49.1,267.2,49.7,267.3z"></path>
	<path d="M179.8,155c-2.5-0.1-5-0.3-7.5-0.4c-0.6,0-1.3,0.1-2-0.4c2.8-0.5,5.5-0.2,8.1-0.7c0.4,0,0.8,0,1.1-0.1l0.1,0
		l0.1-0.1c1.1,0,2.3-0.3,3.4-0.1c0.1,0.6,0.3,1.1,0.4,1.6c-0.1,0.1-0.3,0.1-0.4,0.2c-0.6,0-1.1-0.1-1.7-0.1c-0.1,0-0.2,0-0.2,0
		c-0.4,0-0.8,0-1.2-0.1C179.9,154.9,179.9,154.9,179.8,155L179.8,155z"></path>
	<path d="M53.1,180.9c1.2,0.2,2.5,0,3.8,0.4c-0.8,0.5-1.8,0.3-2.6,0.6c-2.3-0.2-4.6,0.1-6.9,0.2c-0.5,0-1,0-1.4,0
		c0-0.5,0-1-0.1-1.4C48.4,180.8,50.7,180.9,53.1,180.9z"></path>
	<path d="M183.3,159.5c-3.4-0.1-6.9-0.1-10.6-0.6c0.8-0.6,1.4-0.6,2.1-0.6c1.2-0.1,2.5,0.1,3.7-0.3
		c1.7,0.1,3.4-0.3,5.1-0.1C183.5,158.5,183.4,159,183.3,159.5z"></path>
	<path d="M45.1,271.6c2,0.2,4.1,0.3,6.1,0.5c0,0.1,0,0.2,0,0.3c-1.9,0.3-3.8,0.1-5.7,0.6c-1.5,0-2.9-0.1-4.4-0.1
		c0-0.1,0-0.1,0-0.2c0.2-0.3,0.1-0.5,0.1-0.8c0-0.1,0-0.2,0.1-0.3c1,0,2,0,3,0l0.1,0l0.1,0C44.6,271.6,44.8,271.6,45.1,271.6z"></path>
	<path d="M184.6,276.2c1,0.1,2-0.4,3,0c0,0.1,0,0.2,0.1,0.3c0.1,1-0.3,1.2-1.2,1.1c-0.9-0.1-1.8,0-2.7,0
		c-1.7-0.2-3.4-0.4-5.1-0.6c0-0.1,0-0.2,0-0.3C180.7,276.6,182.7,276.4,184.6,276.2z"></path>
	<path d="M50.1,176.4c1.3,0.3,2.6-0.1,4,0.5c-0.9,0.8-2.1,0.2-3,0.6c-1.3-0.2-2.6,0-3.9,0c-0.4,0-0.9,0.2-1.3-0.1
		c0-0.4,0-0.7-0.1-1.1C47.3,176.3,48.7,176.4,50.1,176.4z"></path>
	<path d="M40.9,276.2c0.5,0,1,0,1.5,0c2,0.4,4,0.2,5.9,0.5c0,0.1,0,0.2,0,0.4c-2.2,0.2-4.4,0.4-6.6,0.6
		c-0.3,0-0.6-0.1-0.9-0.1C40.9,277,40.7,276.6,40.9,276.2z"></path>
	<path d="M178.9,163.8c-1-0.4-2.1,0.1-3.1-0.6c0.8-0.3,1.7-0.3,2.5-0.4c1.2-0.1,2.5,0.1,3.7-0.3c0.4,0,0.7,0.1,1.1,0.1
		c0,0.3,0,0.7,0,1C181.7,164.2,180.3,163.6,178.9,163.8z"></path>
	<path d="M151.7,113.8c-1.7-0.2-3.4,0-5.1-0.6c2.2-0.4,4.4-0.2,6.6-0.6c1.7-0.1,3.4-0.2,5-0.3c3,0.2,6-0.1,8.9-0.2
		c5.9-0.1,11.9-0.1,17.8-0.1c0.2,0,0.4,0,0.6,0c0.1,0.1,0.1,0.2,0.2,0.3c-0.1,0.3-0.2,0.5,0,0.7l0,0c-0.2,1.2-0.9,1.4-2.1,1.4
		c-10,0-20-0.3-30.1-0.6c-0.1,0-0.2,0-0.3,0C152.8,113.9,152.2,113.8,151.7,113.8z"></path>
	<path d="M155.1,100.1c-0.3-0.4-0.8-0.2-1.3-0.4c0.8-0.1,1.4-0.3,2.1-0.4c7.5-0.3,15.1-0.6,22.6-0.8
		c2.8-0.1,5.7,0,8.5,0c0.4,0,1.1-0.3,0.9,0.4c-0.1,0.7,0.2,1.7-1,1.9c-0.3,0-0.6,0-0.8,0c-9.9,0.1-19.7-0.4-29.6-0.8
		C156.1,100,155.6,100.1,155.1,100.1z"></path>
	<path d="M158.9,104.9c-1.4-0.2-2.7-0.2-4.1-0.2c-0.8-0.3-1.6,0-2.7-0.6c1.1-0.1,1.9-0.2,2.7-0.3
		c4.9-0.2,9.8-0.4,14.7-0.5c5.6-0.1,11.3-0.1,16.9-0.2c0.4,0,0.9,0,0.7,0.6c-0.2,0.6,0.2,1.8-1.1,1.8c-3,0-6,0.1-9,0
		c-5.6-0.1-11.2-0.3-16.8-0.5C159.8,104.6,159.4,104.7,158.9,104.9z"></path>
	<path d="M157.7,95.4c-0.2-0.4-0.7-0.1-1.1-0.4c0.7-0.1,1.4-0.2,2-0.3c4.3-0.2,8.7-0.3,13-0.5
		c5.6-0.2,11.3-0.3,16.9-0.3c0.6,0,0.7,0.2,0.6,0.8c-0.2,1.1-0.6,1.7-1.9,1.6c-7.1,0-14.2-0.3-21.3-0.5
		C163.2,95.7,160.4,95.6,157.7,95.4z"></path>
	<path d="M161.5,91c-0.1,0-0.3-0.1-0.5-0.1c-0.3,0-0.6,0-0.6-0.4c0-0.4,0.4-0.3,0.6-0.3c0.4,0,0.8-0.1,1.2-0.1
		c3.8-0.1,7.7-0.2,11.5-0.4c5.4-0.3,10.9-0.4,16.3-0.3c0.6,0,0.7,0.2,0.6,0.8c-0.3,1.1-0.8,1.7-2.1,1.7c-8.4-0.1-16.8-0.3-25.1-0.8
		C162.7,91,162.1,91,161.5,91z"></path>
	<path d="M164.9,86.5c-0.6-0.3-1.3,0.2-1.8-0.5c1.2-0.4,2.4-0.3,3.6-0.4c4.7-0.4,9.4-0.5,14.1-0.7
		c3.7-0.1,7.3-0.1,11-0.2c0.7,0,0.8,0.2,0.6,0.8c-0.3,1-0.7,1.6-2,1.6c-8.1-0.1-16.3-0.3-24.4-0.8C165.7,86.5,165.3,86.5,164.9,86.5
		z"></path>
	<path d="M167.5,81.9c-0.9-0.1-1.7-0.2-2.6-0.3c1-0.6,2.1-0.4,3.2-0.6c0.8-0.1,1.5-0.1,2.2-0.2l0.1,0.1l0.1,0
		c5.3-0.2,10.5-0.4,15.8-0.5c2.4-0.1,4.7,0,7.1-0.1c0.5,0,0.7,0.1,0.6,0.7c-0.3,1.5-0.5,1.7-2.1,1.7c-7.8,0-15.6-0.3-23.3-0.7
		C168.3,81.9,167.9,81.9,167.5,81.9z"></path>
	<path d="M170.4,77.4c-0.9-0.3-1.8,0-2.8-0.4c1.1-0.6,2.1-0.2,3.1-0.4c3.9-0.2,7.7-0.3,11.6-0.5
		c3.9-0.2,7.8-0.3,11.7-0.2c0.4,0,1.1-0.2,0.9,0.5c-0.1,0.7,0.4,1.8-0.9,1.8c-3.1,0-6.2,0-9.2-0.1c-2.9-0.1-5.9-0.2-8.9-0.4
		C174.1,77.5,172.2,77.3,170.4,77.4z"></path>
	<path d="M152.4,109.1c-0.4,0.1-0.8,0.1-1.2-0.1c0.3-0.7,1.1,0,1.4-0.6c0.3-0.1,0.6-0.1,0.9-0.2c0.2,0,0.4,0,0.6,0
		l0.1,0l0.1,0c1.1,0,2.3,0,3.4,0c0.6,0.2,1.1,0,1.6-0.1c0.2,0,0.4,0,0.6,0c0.2,0.2,0.5,0.2,0.8,0.1c4.3-0.1,8.6-0.2,12.9-0.2
		c0.3,0,0.6,0,0.7-0.3c4-0.2,8-0.2,12,0l0,0c0.2,0.7-0.1,1.3-0.2,2c-2.7,0-5.5,0-8.2,0c-1.2,0-2.4,0-3.7-0.1c-2.5-0.2-5-0.3-7.5,0
		c-0.8,0-1.6,0.2-2.4-0.1c-0.3-0.5-0.8-0.3-1.2-0.3c-1.6-0.1-3.1,0.1-4.6-0.1C156.4,108.9,154.4,108.9,152.4,109.1z"></path>
	<path d="M171.6,72.8c-0.3-0.3-0.9,0.1-1.2-0.4c0.5-0.4,1.1-0.1,1.7-0.4c1.2,0.1,2.4,0,3.6-0.1c0.1,0,0.2,0,0.4,0
		c6-0.2,12-0.6,18-0.6c0.7,0,1.3,0,1.2,1c-0.1,0.8,0,1.4-1.2,1.4c-4.6,0-9.3-0.2-13.9-0.4C177.4,73.1,174.5,72.9,171.6,72.8z"></path>
	<path d="M53.3,44.6c1.1,0.3,2.2,0,3.5,0.5c-1.9,0.7-3.6,0.2-5.2,0.6c-3.2,0.2-6.3,0.3-9.4,0.5
		c-3.3,0.1-6.5,0.2-9.8,0.2c-1.2,0-0.8-1.2-0.9-1.8C31.3,43.7,32,44,32.3,44c6.5-0.1,13.1,0.3,19.6,0.7
		C52.4,44.7,52.8,44.6,53.3,44.6z"></path>
	<path d="M58.3,40.8c-0.8,0.3-1.6-0.1-2.4,0.3c-0.5,0-1,0-1.5-0.1c-0.5-0.2-1.1-0.3-1.6,0.1c-0.4,0-0.8,0-1.2,0
		c-0.7,0-1.3-0.3-1.9,0.2c-1.1,0.1-2.2,0.2-3.2,0.1c-0.8,0-1.5-0.3-2.3,0.2c-4.2,0.2-8.5,0.3-12.7,0.1c0-0.1,0-0.1,0-0.2
		c2.7-1.3,5.3-2.3,8.4-2.1c3.3,0.2,6.5,0.2,9.8,0.5c1.6,0.1,3.3,0.2,4.9,0.3c0.4,0.3,0.9,0.2,1.4,0.1c0.8-0.1,1.6,0,2.5,0.1
		C58.3,40.5,58.3,40.6,58.3,40.8z"></path>
	<path d="M175.6,68.3c-0.8-0.3-1.6,0-2.5-0.4c1.1-0.6,2.3-0.3,3.3-0.6c1.1-0.1,2.1-0.1,3.2-0.2l0.1,0.1l0.1,0
		c4.2-0.2,8.4-0.3,12.6-0.5c0.6,0,1.1,0,1.7-0.1c1.2-0.2,1.6,0.3,1.4,1.5c-0.1,0.8-0.3,0.9-1,0.9c-5-0.2-10.1-0.2-15.1-0.5
		C178.1,68.5,176.9,68.3,175.6,68.3z"></path>
	<path d="M53.2,49.3c0.5,0.5,0.5,0.5,0.1,0.6c-0.3,0.1-0.7,0.2-1,0.2c-1.2-0.1-2.4-0.2-3.6,0.1
		c-2.8,0.1-5.6,0.2-8.5,0.3c-2.4,0.1-4.8,0.2-7.2,0.2c-0.5,0-1.3,0.1-1.1-0.7c0.2-0.6-0.5-1.8,1.1-1.7c4.2,0.2,8.4,0.3,12.7,0.5
		c0.9,0.1,1.8,0.1,2.8,0.1c0.1,0.1,0.2,0.1,0.3,0c0.1,0,0.3,0,0.4,0c0.1,0,0.2,0,0.3,0c0.4,0.1,0.8,0.1,1.3,0.1
		c0.4,0.2,0.8,0.1,1.2,0.1C52.3,49.3,52.8,49.3,53.2,49.3z"></path>
	<path d="M176.9,63.7c-0.2-0.3-0.7,0.1-0.9-0.5c0.6-0.4,1.2-0.2,1.8-0.4c4.5-0.2,9-0.5,13.5-0.7c1,0,2.1-0.1,3.1-0.1
		c0.6,0,1.2-0.1,1.1,0.8c-0.1,0.6,0.4,1.6-1,1.6c-3.6-0.2-7.2-0.3-10.8-0.4C181.5,63.9,179.2,63.6,176.9,63.7z"></path>
	<path d="M48.7,53.7c0.7,0.2,1.5-0.1,2.2,0.5c-0.8,0.5-1.7,0-2.4,0.4c-0.9-0.1-1.8-0.1-2.6,0.1
		c-4,0.4-7.9,0.5-11.9,0.5c-0.4,0-0.9,0.2-1.1-0.3c-0.2-0.6-0.3-1.2-0.1-1.8c0.2-0.4,0.6-0.2,1-0.2c3.7,0.2,7.5,0.4,11.2,0.5
		c0.2,0,0.5,0,0.7-0.1c0.4,0.2,0.8,0.1,1.1,0.1c0.5,0.3,1,0.2,1.5,0.1C48.4,53.7,48.6,53.7,48.7,53.7z"></path>
	<path d="M179.8,59.2c-0.3-0.1-0.6-0.2-1.1-0.4c1.2-0.8,2.5-0.2,3.6-0.6c3.9-0.2,7.9-0.4,11.8-0.6
		c0.6,0,1.4-0.3,1.4,0.9c0,1.1-0.4,1.3-1.4,1.3c-4.3-0.1-8.6-0.4-12.9-0.7C180.9,59.2,180.4,59.2,179.8,59.2z"></path>
	<path d="M46,58.3c0.7,0.2,1.5-0.1,2.3,0.4c-0.9,0.6-1.8,0.2-2.7,0.5c-3.8,0.2-7.7,0.4-11.5,0.6
		c-1.1,0.1-1.3-0.5-1.3-1.3c0-1,0.7-0.9,1.3-0.8C38.2,57.9,42.1,58.1,46,58.3z"></path>
	<path d="M182.7,54.7c-0.2,0-0.4-0.1-0.6-0.1c-0.2,0-0.5,0-0.5-0.3c0-0.3,0.3-0.3,0.5-0.4c0.5-0.1,1-0.1,1.5-0.2
		c0.6,0.1,1.2,0,1.7-0.1c1.2,0,2.4,0,3.6,0c2.1-0.1,4.1-0.2,6.2-0.4c0.8-0.1,1,0,0.9,0.9c0,0.9-0.2,1.2-1.1,1.2
		c-1.7-0.1-3.3-0.1-5-0.1C187.5,54.9,185.1,54.5,182.7,54.7z"></path>
	<path d="M43.9,62.9c0.5,0.2,1.1,0,1.6,0.5c-0.8,0.5-1.7,0.1-2.5,0.4c-2.8,0.2-5.7,0.4-8.5,0.5c-0.6,0-1.1,0.1-1.3-0.8
		c-0.2-1.1,0-1.3,1.1-1.2C37.5,62.5,40.7,62.7,43.9,62.9z"></path>
	<path d="M59.3,35.5c0.9,0.2,1.9,0,3,0.5c-1.4,0.7-2.8,0.3-4.1,0.5C54,36.7,49.9,36.9,46,37c1.3-0.7,5.6-1.7,7.2-1.6
		c1.3,0.1,2.6,0,3.9,0l0.1,0l0.1,0C58,35.5,58.6,35.5,59.3,35.5z"></path>
	<path d="M192.3,50.6c-2.1-0.3-4.1-0.5-6.2-0.5c-0.6,0-1.2,0.1-1.8-0.4c1.4-0.8,2.8-0.2,4-0.6c0.6,0,1.2,0,1.8,0
		c0.9,0,1.8,0.1,2.7-0.2c0.9,0,1.8,0,2.7-0.1c0.4,0,1-0.2,0.8,0.6c-0.1,0.6,0.3,1.5-0.9,1.5C194.4,50.7,193.3,50.6,192.3,50.6z"></path>
	<path d="M192.3,46c-1-0.7-2.2-0.3-3.3-0.5c-0.6-0.1-1.7,0.3-1.8-0.4c0-0.7,1.1-0.3,1.7-0.4c2-0.2,4-0.3,6.1-0.5
		c0.6,0,1.2-0.1,1.8-0.2l0.1,0.1l0.1,0c0,1.8-0.1,1.9-1.7,1.9C194.3,46,193.3,46,192.3,46z"></path>
	<path d="M40.5,67.4c0.7,0.3,1.5-0.1,2.2,0.6c-1.1,0.4-2.2,0.1-3.1,0.4c-0.3,0-0.5,0-0.8,0c-0.2-0.1-0.2,0-0.3,0.2
		c-1.6,0.1-3.1,0.1-4.7,0.2c-0.7,0.1-0.7-0.4-0.7-0.9c0-0.6,0.1-0.9,0.8-0.8C36.2,67.2,38.4,67.3,40.5,67.4z"></path>
	<path d="M166.6,109.6c2.5-0.3,5-0.2,7.5,0c1.2,0.1,2.4,0.1,3.7,0.1c2.7,0,5.5,0,8.2,0c-0.1,0.1-0.2,0.3-0.2,0.4l0,0
		c-2.1,0-4.1,0-6.2-0.1c-4.1-0.1-8.1-0.1-12.2-0.2C167.1,109.8,166.8,109.8,166.6,109.6z"></path>
	<path d="M37.8,71.8c0.7,0.3,1.5-0.1,2.2,0.7c-1.4,0.4-2.7,0.2-4,0.4c-0.6,0.1-1.3,0.1-1.9,0.2c-0.7,0.1-0.9-0.2-1-0.8
		c0-0.7,0.4-0.6,0.9-0.6C35.3,71.7,36.6,71.8,37.8,71.8z"></path>
	<path d="M174.3,107.7c-0.1,0.3-0.4,0.3-0.7,0.3c-4.3,0.1-8.6,0.2-12.9,0.2c-0.3,0-0.6,0.1-0.8-0.1
		c0.8-0.4,1.6-0.2,2.3-0.2C166.2,107.9,170.2,107.4,174.3,107.7z"></path>
	<path d="M152.4,109.1c2-0.1,3.9-0.2,5.9,0.1c1.5,0.2,3.1,0.1,4.6,0.1c0.4,0,0.9-0.2,1.2,0.3c-3.2,0.2-6.4-0.1-9.6-0.2
		c-0.6,0-1.3,0-1.9-0.1C152.6,109.2,152.5,109.1,152.4,109.1z"></path>
	<path d="M58.3,40.8c0-0.2,0-0.3,0-0.5c0.1-0.1,0.2-0.2,0.3-0.2c0.1,0,0.2,0,0.3,0c0.3,0.2,0.9,0.1,0.7,0.6
		C59.3,41.1,58.8,41,58.3,40.8z"></path>
	<path d="M44.2,41.5c0.7-0.5,1.5-0.2,2.3-0.2C45.7,41.8,44.9,41.5,44.2,41.5z"></path>
	<path d="M49.7,41.3c0.6-0.5,1.3-0.2,1.9-0.2C51,41.5,50.4,41.3,49.7,41.3z"></path>
	<path d="M52.8,41c0.5-0.4,1.1-0.3,1.6-0.1C53.9,41.2,53.4,41.1,52.8,41z"></path>
	<path d="M159.3,108.1c-0.5,0.1-1.1,0.4-1.6,0.1C158.2,107.9,158.8,107.9,159.3,108.1z"></path>
	<path d="M55.8,40c0,0,0,0.1,0.1,0.2c-0.5,0.2-0.9,0.2-1.4-0.1C54.9,39.9,55.4,40.1,55.8,40z"></path>
	<path d="M152.4,118.3c-1.2-0.1-2.5-0.2-3.7-0.3c0-0.1,0-0.2,0-0.2c1.1-0.1,2.3-0.2,3.4-0.3c0.2,0,0.3,0,0.5-0.1
		l0.1,0.1l0.1,0c3.5,0.2,6.9-0.4,10.4-0.4c7.4-0.1,14.7-0.3,22-0.2c0,0.7-0.1,1.4-0.1,2.1c-0.2,0.1-0.5,0.2-0.7,0.2
		c-4.2,0-8.5,0-12.7-0.1c-5.2-0.1-10.4-0.3-15.7-0.5c-0.9,0-1.8-0.1-2.8-0.1c-0.1-0.1-0.1-0.1-0.2,0
		C152.9,118.3,152.6,118.3,152.4,118.3z"></path>
	<path d="M58.6,249c1.9,0.5,3.9-0.1,5.9,0.6c-1.2,0.5-2.4,0.3-3.4,0.6c-0.1,0-0.3,0-0.4,0c-0.8-0.1-1.5-0.2-2.3,0.2
		c-4.7,0.1-9.5,0.3-14.2,0.4c-1.7,0.1-1.7,0.1-1.6-1.6c0-0.2,0.1-0.4,0.1-0.6c4.4,0,8.9,0.5,13.3,0.3
		C56.9,249.1,57.8,248.9,58.6,249z"></path>
	<path d="M152.6,108.5c-0.3,0.6-1.1-0.1-1.4,0.6c-1,0.2-2,0.1-3-0.2C149.7,108.3,151.2,108.2,152.6,108.5z"></path>
</g>
<path d="M153.6,113.9c-0.1,0-0.2,0-0.3,0C153.5,113.9,153.6,113.9,153.6,113.9z"></path>
<g onclick="select(this)" class="" id="estampa-terciaria" fill="#bf0811">
	<path d="M62.7,200.2c0.1-0.1,0.1-0.1,0.2,0C62.8,200.3,62.7,200.3,62.7,200.2z"></path>
	<path d="M73.9,285.5c-0.1,0.1-0.2,0.1-0.2,0C73.8,285.4,73.8,285.4,73.9,285.5z"></path>
	<path d="M185.5,245c-0.3-0.5-0.8-0.5-1.4-0.5c-1.1-0.1-2.2,0.3-3.2-0.2c1.4-0.5,2.9-0.1,4.3-0.2
		C185.5,244.4,185.6,244.7,185.5,245z"></path>
	<path d="M164.7,244.7c-0.2,0.5-0.7,0.4-1,0.4c-18.6,0-37.2,0-55.8,0c-0.4,0-0.8,0.1-1-0.4c0.4,0,0.9-0.1,1.3-0.1
		c18.4,0,36.9,0,55.3,0C163.8,244.6,164.2,244.6,164.7,244.7z"></path>
	<path d="M174.8,244.4c-0.1,0.3-0.3,0.4-0.6,0.3c-1.5-0.1-3,0.3-4.5-0.2C171.4,244.1,173.1,244.4,174.8,244.4z"></path>
	<path d="M62.1,244.5c-0.1,0-0.2,0-0.2,0C62,244.4,62,244.4,62.1,244.5z"></path>
	<path d="M169.4,245.5c0.9-0.3,1.8-0.5,2.7,0.1C171.2,245.7,170.3,245.9,169.4,245.5z"></path>
	<path d="M46.3,172.1c0.6-0.9,1.6-0.7,2.3-0.7c4.9-0.1,9.8-0.2,14.6,0c2.9,0.1,5.8,0.1,8.7,0.2
		c25.9,0.5,51.8,0.2,77.7,0.2c6.1,0,12.1-0.2,18.2-0.3c5-0.1,10.1-0.1,15.1-0.1c0.2,0.6-0.2,1.2-0.1,1.9c-7.6,0-15.2,0.1-22.8-0.1
		c-24.7-0.8-49.3-0.3-74-0.3c-11.9,0-23.7,0.5-35.6,0.5c-1.5,0-2.9-0.4-4.4-0.3C46.2,172.7,46.4,172.4,46.3,172.1z"></path>
	<path d="M186.3,259.7c-4.9,0-9.8,0.1-14.6-0.1c-3.7-0.2-7.4-0.1-11.1-0.2c-22.1-0.5-44.3-0.1-66.4-0.1
		c-3.9,0-7.7,0-11.6,0.2c-9.2,0.4-18.4,0.2-27.6,0.2c-0.4,0-0.9,0.2-1.2-0.4c1.7-0.1,3.3-0.3,4.9-0.4c-0.9-0.7-1.9-0.4-2.8-0.6
		c0.2-0.6,0.8-0.4,1.2-0.4c8.4,0,16.8-0.1,25.2,0.1c3.6,0.1,7.1,0.1,10.7,0.2c21.2,0.5,42.4,0.1,63.7,0.2c3.9,0,7.9,0,11.9-0.2
		c5.9-0.3,11.8-0.1,17.7-0.2C186.3,258.4,186.4,259,186.3,259.7z"></path>
	<path d="M183.1,182.4c-5.1,0-10.2,0.1-15.2-0.1c-3.6-0.1-7.1-0.1-10.7-0.2c-21.7-0.5-43.3-0.1-65-0.2
		c-4.1,0-8.2,0.1-12.2,0.2c-8.2,0.3-16.4,0.1-24.6,0.2c-0.4,0-0.8,0.1-1-0.4c0.8-0.2,1.7-0.1,2.6-0.6c-1.3-0.5-2.6-0.3-3.8-0.4
		c0-0.9,0.7-0.6,1.1-0.6c6,0.1,12,0.1,18,0.2c4.7,0.1,9.3,0.2,14,0.3c22.5,0.4,45,0.1,67.5,0.2c4.1,0,8.1,0,12.2-0.2
		c4.9-0.3,9.9-0.1,14.9-0.2c0.7,0,1.4-0.1,2.1-0.2C183.2,181,183.1,181.7,183.1,182.4z"></path>
	<path d="M187.4,273.1c-5.1,0.1-10.3,0.5-15.4,0.2c-4.2-0.2-8.4,0-12.6-0.2c-23.6-0.8-47.2-0.3-70.7-0.4
		c-3.9,0-7.8,0-11.7,0.2c-3.6,0.2-7.3,0.1-10.9,0.2c-5.5,0.2-11,0.2-16.5,0.2c-1.3,0-2.6-0.2-3.9-0.3c1.9-0.5,3.8-0.3,5.7-0.6
		c0-0.1,0-0.2,0-0.3c-2-0.2-4.1-0.3-6.1-0.5c0.3-0.3,0.7-0.2,1-0.2c9.5,0,19.1-0.1,28.6,0.1c3.5,0.1,6.9,0,10.4,0.2
		c9.7,0.4,19.4,0.1,29.1,0.2c9.9,0.1,19.8,0.1,29.8,0c4.2,0,8.5-0.1,12.7-0.3c4.5-0.2,9-0.1,13.5-0.2c3.4,0,6.7,0.1,10.1-0.1
		c2.3-0.1,4.5,0.2,6.8,0.1c0,0.1,0,0.3-0.1,0.4c-0.2,0.1-0.4,0.2-0.2,0.4c0,0.1,0.3,0.1,0.4,0.1
		C187.3,272.6,187.3,272.9,187.4,273.1z"></path>
	<path d="M178.3,281.9c-1.1,0.7-2.4,0.5-3.5,0.5c-7.2,0-14.4,0-21.6-0.3c-3.4-0.1-6.8-0.1-10.2-0.2
		c-20.8-0.5-41.6-0.2-62.4-0.1c-8.8,0-17.6,0.3-26.5,0.5c-3.2,0-6.5,0.1-9.7,0.1c-1,0-1.9-0.1-2.8-0.2c-0.4-0.5-0.9-0.9-0.7-1.6
		c5.1-0.3,10.1-0.4,15.2-0.2c4.7,0.2,9.4,0,14.1,0.2c24.4,0.9,48.7,0.3,73.1,0.3c6.6,0,13.2-0.2,19.7-0.4c3.9-0.1,7.7,0,11.6-0.2
		c1.4-0.1,2.8,0.4,4.2,0.3c0.3,0,0.5,0.1,0.5,0.4c-1.1,0.3-2.3-0.1-3.5,0.4C176.6,281.9,177.5,281.7,178.3,281.9z"></path>
	<path d="M186,255.1c-4,0-8.1,0.1-12.1,0c-25.8-0.9-51.6-0.2-77.3-0.4c-3.4,0-6.8,0.1-10.2,0.2c-9,0.4-18,0.1-27,0.2
		c-0.6,0-1.1,0-1.6-0.4c0.9-0.4,1.9-0.1,3-0.8c-0.9,0-1.6,0.1-2.2,0c-0.6-0.1-1.3,0.4-1.8-0.3c1.2-0.3,2.3-0.4,3.5-0.4
		c8,0,16-0.1,24,0.1c3.8,0.1,7.6,0.1,11.4,0.2c12.9,0.5,25.9,0.1,38.8,0.2c8.4,0.1,16.7,0.1,25.1,0c4.3-0.1,8.5-0.1,12.8-0.3
		c4.6-0.2,9.2-0.1,13.8-0.1C186.3,253.9,186.2,254.5,186,255.1z"></path>
	<path d="M182.9,186.9c-3.8,0-7.5,0.1-11.3-0.1c-3.6-0.2-7.3-0.1-10.9-0.2c-22.3-0.5-44.6-0.1-66.9-0.2
		c-3.8,0-7.6,0-11.4,0.2c-8.1,0.4-16.1,0.1-24.2,0.2c-0.6,0-1.4,0.3-1.9-0.5c1-0.3,2.2-0.1,3.2-0.6c-1.3-0.1-2.6-0.3-3.9-0.4
		c0.2-0.6,0.7-0.4,1.1-0.4c8.6,0,17.1-0.1,25.7,0.1c3.5,0.1,7,0.1,10.5,0.2c21.3,0.5,42.7,0.1,64.1,0.1c3.8,0,7.6,0,11.4-0.2
		c4.9-0.3,9.7-0.1,14.6-0.2C183.1,185.7,183.2,186.3,182.9,186.9z"></path>
	<path d="M59.1,190.1c0.2-0.8,0.8-0.5,1.3-0.5c6.7,0,13.4,0,20.1,0c5.5,0,10.9,0.1,16.4,0.3c21,0.4,42,0.1,63,0.1
		c3.7,0,7.4,0,11-0.2c4-0.2,8-0.1,12-0.2c0,0.3,0.1,0.6,0.1,1c0,0.1,0,0.3,0,0.4c0,0.1,0,0.3-0.1,0.4c-4.6,0.2-9.2-0.1-13.8-0.2
		c-8.4-0.2-16.8-0.2-25.1-0.2c-15.7,0-31.4-0.1-47.1,0.1c-4.1,0-8.1,0-12.2,0.2c-7.8,0.4-15.6,0.1-23.4,0.2c-0.5,0-1.1,0.1-1.3-0.5
		c0.8-0.2,1.7-0.1,2.7-0.5C61.3,190.3,60.2,190.2,59.1,190.1z"></path>
	<path d="M166.8,249c1,0.1,2.1,0.1,3.1,0c0.3,0.1,0.7,0.2,1-0.1c5-0.1,10.1-0.2,15.1-0.3c0,0.6,0.1,1.2,0.1,1.8
		c-5.3-0.1-10.5,0-15.8-0.2c-2.3-0.1-4.6-0.2-6.9-0.2c-20.5,0-40.9,0-61.4,0c-6.2,0-12.4,0.2-18.7,0.3c-7.1,0.2-14.1,0-21.2,0.1
		c-0.4,0-0.8,0.1-1-0.4c1.1-0.3,2.2,0,3.4-0.6c-2.1-0.7-4-0.1-6-0.6c0.1-0.2,0.2-0.4,0.3-0.5c1.3,0,2.5,0,3.8,0
		c8.1,0.1,16.3,0.1,24.4,0.3c2.6,0.1,5.3,0.1,7.9,0.2c0.1,0.1,0.3,0.2,0.5,0.1c1.7,0.1,3.5,0.1,5.2,0.1c21.3,0.1,42.6,0,63.9,0
		c0.6,0,1.1-0.1,1.7-0.1C166.5,249,166.6,249,166.8,249z"></path>
	<path d="M182.9,177.6c-9.8,0-19.6,0.1-29.4-0.1c-21.5-0.4-43-0.2-64.5-0.1c-12.1,0.1-24.2,0.1-36.3,0.2
		c-0.5,0-1.1,0.4-1.6-0.1c0.9-0.4,2.1,0.1,3-0.6c-1.3-0.5-2.7-0.2-4-0.5c0.2-0.6,0.7-0.4,1.1-0.4c11.5,0.1,23,0,34.5,0.3
		c22.2,0.4,44.4,0.2,66.6,0.1c8.9,0,17.7-0.1,26.6-0.2c1.3,0,2.6-0.2,3.9-0.1C183,176.5,182.9,177.1,182.9,177.6z"></path>
	<path d="M49.7,267.3c0.7-0.7,1.7-0.5,2.5-0.5c3.3,0.1,6.7-0.1,10,0c3.3,0.1,6.6-0.1,9.9,0.2c1.8,0.1,3.5,0,5.3,0.1
		c2.3,0.1,4.7,0,7,0.2c1.9,0.2,3.8,0.1,5.6,0.1c20,0,39.9,0,59.9,0c5.6,0,11.1-0.2,16.6-0.3c2.6,0,5.3-0.1,7.9-0.1
		c3.4,0,6.8,0,10.2-0.1c0.8,0,1.5-0.1,2.3-0.1c0.3,0.6-0.2,1.3,0.1,1.9c-8.7,0-17.4,0.2-26-0.1c-22.3-0.7-44.7-0.2-67-0.4
		c-4.3,0-8.6,0-12.9,0.2c-10.6,0.5-21.2,0.1-31.8,0.2c-0.3,0-0.5-0.1-0.8-0.1c1.5-0.4,3.2,0.1,4.9-0.6
		C52.1,267,50.8,267.7,49.7,267.3z"></path>
	<path d="M65.3,262.3c3,0,5.9,0,8.9,0.1c2.2,0.4,4.3,0.2,6.5,0.1c0.3,0,0.7,0.1,1.1,0.1c25.5,0.5,51.1,0.2,76.6,0.1
		c2.3,0,4.7,0,7-0.3c2.2,0,4.3,0.3,6.5-0.1c2.8,0,5.6,0.1,8.4-0.1c2.1,0,4.2,0,6.2,0.1c0.1,0.6,0.1,1.3,0.2,1.9
		c-6.1,0.2-12.3-0.2-18.4-0.2c-5,0-10-0.1-15-0.3c-19.3-0.4-38.5-0.2-57.8-0.1c-8.2,0-16.4,0.3-24.7,0.5c-5.9,0.2-11.9,0-17.8,0.3
		c-0.5,0-0.7-0.2-0.7-0.6c1.1-0.3,2.4,0.1,3.6-0.5c-0.7-0.6-1.6-0.3-2.3-0.6c0.3-0.6,0.8-0.4,1.3-0.4
		C58.4,262.3,61.8,262.3,65.3,262.3z"></path>
	<path d="M64.3,199.2c0.4-0.8,1.3-0.6,2-0.7c4.5,0,9-0.1,13.6,0c6.7,0.2,13.3,0.3,20,0.4c20.8,0.4,41.6,0.1,62.3,0.2
		c6.5,0,12.9-0.1,19.4-0.3c0.9,0,1.8-0.3,2.7-0.2c0.3,0.5,0.3,1.1,0.3,1.6c-4.2,0-8.4,0.1-12.6-0.1c-15.7-0.5-31.3-0.1-47-0.2
		c-7.7-0.1-15.4-0.1-23,0.1c-6.9,0.2-13.8,0-20.6,0.3c-4.6,0.2-9.1,0.1-13.7,0.1c-0.8,0-1.7,0.1-2.3-0.6c0.5,0,0.9-0.1,1.4-0.1
		c0.2,0,0.4,0,0.4-0.3c0-0.2-0.2-0.3-0.4-0.3C65.9,199.3,65.1,199.2,64.3,199.2z"></path>
	<path d="M183.3,159.8c-3.2,0-6.4,0.1-9.6,0c-8.4-0.3-16.8,0-25.2-0.3c-25-0.8-50-0.4-74.9-0.3
		c-9.3,0-18.5,0.3-27.8,0.4c-0.1-0.6-0.1-1.1,0.1-1.7c6.5,0,13-0.1,19.6,0.1c3.3,0.1,6.5,0.1,9.8,0.2c20.5,0.4,41,0.1,61.5,0.1
		c3.6,0,7.2-0.1,10.8-0.2c10-0.4,20-0.1,30-0.2c0.3,0,0.6,0.1,0.9,0.1c-1.2,0.4-2.4,0.2-3.7,0.3c-0.6,0-1.3,0-2.1,0.6
		c3.7,0.4,7.2,0.4,10.6,0.6C183.3,159.6,183.3,159.7,183.3,159.8z"></path>
	<path d="M185.4,241.3c-2,0-3.9,0-5.9-0.1c-23.5-0.5-47.1-0.1-70.6-0.2c-5.6,0-11.2,0.1-16.8,0.3
		c-6.7,0.2-13.3,0.1-20,0.2c-2.1,0-4.2,0.4-6.3,0c-0.3-0.1-0.6,0-0.7-0.4c1.6-0.4,3.2,0,4.8-0.7c-1.4-0.1-2.8-0.3-4.2-0.4
		c1-0.3,2.1-0.4,3.2-0.4c5,0,10.1-0.1,15.1,0c6.5,0.2,12.9,0.1,19.4,0.2c21.5,0.5,42.9,0.1,64.4,0.2c5.9,0,11.8-0.2,17.7-0.3
		c0,0.1,0,0.2,0,0.3c0,0.1,0,0.1,0,0.2C185.5,240.6,185.4,240.9,185.4,241.3z"></path>
	<path d="M45.8,153.3c5.1,0,10.2-0.1,15.2,0.1c24.3,0.8,48.6,0.3,72.9,0.4c3.8,0,7.6,0,11.4-0.2
		c10.9-0.5,21.8-0.1,32.7-0.2c0.1,0,0.2,0,0.4,0.1c-2.6,0.5-5.3,0.2-8.1,0.7c0.8,0.5,1.4,0.4,2,0.4c2.5,0.2,5,0.3,7.5,0.4
		c-0.2,0-0.4,0.1-0.6,0.1c-6.9,0.1-13.8,0.3-20.6,0.1c-6.6-0.1-13.3-0.2-19.9-0.4c-9-0.3-18-0.1-27-0.2c-13.5-0.1-26.9-0.1-40.4,0.1
		c-4,0-8.1,0.1-12.1,0.2c-4.5,0.2-8.9,0.4-13.4,0.4C45.8,154.6,45.7,153.9,45.8,153.3z"></path>
	<path d="M45.9,148.8c5.9-0.2,11.7,0.1,17.6,0.2c19.9,0.4,39.7,0.1,59.6,0.2c6.5,0,13,0,19.5-0.3
		c5.3-0.2,10.6,0,15.8-0.3c3-0.1,6-0.3,9-0.1c2.9,0.2,5.8,0,8.6,0.2c-2.8,0.5-5.7,0.3-8.5,0.7c1.2,0.5,2.4,0.4,3.7,0.5
		c2.1,0.2,4.1-0.1,6.2,0.3c-0.8,0.5-1.6,0-2.5,0.1c-6.6,0.4-13.2,0.3-19.8,0.2c-8.1-0.2-16.2-0.3-24.3-0.5
		c-16.2-0.4-32.4-0.1-48.6-0.2c-2.9,0-5.8-0.1-8.6,0c-5.4,0.3-10.9,0-16.3,0.3c-3.8,0.2-7.7,0.1-11.5,0.3
		C45.8,150,45.8,149.4,45.9,148.8z"></path>
	<path d="M140.9,163.7c-20,0-40,0-60,0c-5.7,0-11.3,0.1-17,0.3c-6,0.2-12.1,0.1-18.1,0.1c0-0.2-0.1-0.3-0.1-0.5
		c0.1-0.3,0.1-0.6,0-0.9c0-0.1,0.1-0.3,0.1-0.5c3,0,5.9-0.1,8.9,0c4.8,0.3,9.6,0,14.4,0.2c19.2,0.9,38.3,0.1,57.5,0.4
		c4.2,0.1,8.5,0,12.7,0c2.1,0,4.1-0.1,6.2-0.2c1.8,0.5,3.6,0.2,5.4,0.1c0.1,0,0.1-0.2,0.2-0.3c2.2,0,4.5-0.1,6.7-0.1
		c7.3-0.1,14.6-0.2,21.9-0.2c0.8,0.5,1.7,0.1,2.5,0.3c-1.2,0.4-2.4,0.2-3.7,0.3c-0.8,0.1-1.7,0.1-2.5,0.4c1,0.7,2.1,0.2,3.1,0.6
		c-0.5,0.2-1.1-0.1-1.6,0.3c-6.5,0-12.9,0-19.4,0c-0.3-0.6-0.8-0.4-1.2-0.4c-1.8,0.1-3.5-0.3-5.3,0.2c-1.9,0-3.8-0.1-5.7-0.1
		C144.1,163.1,142.5,163.4,140.9,163.7z"></path>
	<path d="M168.9,145.6c-0.2,0.4-0.6,0.3-0.9,0.3c-3.5,0.1-7,0.3-10.5,0.1c-3.1-0.2-6.2,0-9.4-0.1
		c-27.3-0.5-54.7-0.2-82-0.3c-3.8,0-7.5-0.1-11.3,0.1c-3,0.2-6.1,0.1-9.1,0.2c-0.1-0.5-0.1-1.1,0-1.6c6.3,0.1,12.5,0.1,18.8,0.2
		c1.3,0,2.7,0.1,4.1,0.1c20,0,40,0.1,60-0.1c6.2-0.1,12.5,0,18.7-0.3c5.1-0.2,10.1-0.1,15.2-0.1c2.2,0,4.4,0.2,6.6,0.3
		c-1.3,0.3-2.8-0.1-4.1,0.3c0,0.1,0,0.2,0,0.3C166.5,145.4,167.7,145.5,168.9,145.6z"></path>
	<path d="M44.5,126.3c22.9,0.5,45.9,0.1,68.8,0.2c5.8,0,11.7-0.2,17.5-0.3c7.6-0.2,15.3-0.1,22.9-0.1
		c2.3,0,4.6,0,6.9,0.2c-0.8,0.3-1.6,0.2-2.5,0.2c-1.3,0.1-2.6-0.1-4.3,0.5c2.7,0.5,5.1,0.2,7.4,0.5c-0.1,0.4-0.4,0.4-0.7,0.4
		c-2.4-0.2-4.9,0.4-7.3,0.2c-6.6-0.3-13.2,0-19.8-0.3c-4-0.2-8-0.1-12-0.2c-23.5-0.5-47.1-0.1-70.6-0.2c-2.1,0-4.2,0.2-6.3,0.2
		C44.4,127.2,44.4,126.7,44.5,126.3z"></path>
	<path d="M185.8,236.7c-1.2,0-2.5,0-3.7-0.1c-7.8-0.3-15.5-0.2-23.3-0.2c-16.8,0-33.6-0.1-50.4,0.1
		c-4.2,0-8.5,0-12.7,0.2c-8.6,0.4-17.2,0.1-25.8,0.2c-0.4,0-0.9,0.2-1.1-0.4c1.3-0.3,2.7,0,3.9-0.7c-1.2-0.1-2.4-0.2-3.6-0.3
		c0.2-0.6,0.8-0.5,1.2-0.5c5.5,0,10.9-0.2,16.4,0c3.8,0.1,7.5,0.1,11.3,0.2c24.3,0.6,48.5,0.1,72.7,0.3c3.5,0,6.9,0,10.4-0.1
		c1.6-0.1,3.2-0.2,4.8-0.1C186,235.7,186.1,236.2,185.8,236.7z"></path>
	<path d="M93.1,203.4c1.8,0.1,3.5,0.1,5.3,0c0.2,0,0.3,0,0.5,0c0.3,0,0.6,0.1,0.9,0.1c24.2,0.5,48.3,0.2,72.4,0.1
		c4.2,0,8.4-0.1,12.6-0.2c0,0.2,0.1,0.4,0.1,0.5c0,0-0.1,0.1-0.1,0.1c0,0.1,0.1,0.1,0.1,0.1c0,0.2,0,0.5,0,0.7
		c-5.2-0.1-10.4-0.1-15.7-0.4c-0.8,0-1.6,0.1-2.4,0.1c-18.7,0-37.3,0-56,0c-3.9,0-7.8-0.1-11.7,0.1c-5.2,0.3-10.4,0-15.6,0.3
		c-4.7,0.2-9.3,0-14,0.2c-0.8,0-1.6,0-2.2-0.6c1.1-0.3,2.3,0.2,3.3-0.4c-1.1-0.3-2.3-0.3-3.5-0.4c0-0.2,0-0.3,0-0.5
		c8.5,0,17,0,25.5,0C92.8,203.5,92.9,203.5,93.1,203.4z"></path>
	<path d="M180.2,168.7c-6.1,0-12.3-0.1-18.4-0.1c-0.2-0.5-0.6-0.4-1-0.4c-0.9,0-1.9-0.1-2.9,0
		c-0.9,0.1-1.8-0.3-2.6,0.2c-1.9,0-3.8-0.1-5.7-0.1c-1.6-0.8-3.2-0.5-4.8-0.2c-1,0-2,0-3,0c-18.7,0-37.3,0-55.9,0
		c-1.1,0-2.2,0-3.2,0c-1.5-0.5-3-0.1-4.5-0.2c-0.1,0-0.2,0.2-0.3,0.3c-1.9,0-3.8,0.1-5.7,0.1c-0.1-0.1-0.3-0.2-0.4-0.2
		c-1.9,0-3.8,0-5.7,0c-0.3,0-0.6,0.1-0.6,0.4c-6.1,0-12.2,0-18.2,0c-0.3-0.3-0.7-0.2-1-0.2h0c0.2-0.5,0-1.1,0-1.6
		c1.2-0.1,2.4-0.1,3.6,0c0.1,0.3,0.3,0.4,0.5,0.4c3.1,0,6.3,0,9.4,0c0.1,0,0.3-0.1,0.4-0.2c2.5,0,5,0,7.4,0c0.3,0.7,0.9,0.4,1.3,0.4
		c1.7-0.1,3.5,0.3,5.2-0.2c3,0,6,0,9,0c18.3,0.4,36.7,0.1,55,0.2c5.1,0,10.1-0.4,15.2-0.2c0.4,0.4,0.8,0.2,1.2,0.2
		c4.1,0.1,8.2-0.4,12.3-0.2c0.3,0,0.6,0,0.8,0c0.3,0,0.4-0.1,0.5-0.4c0.1,0,0.3,0,0.4,0c0.1,0.4,0.4,0.4,0.8,0.4c2.3,0,4.6,0,6.9,0
		c0.3,0,0.6,0,0.8-0.4c2,0,4,0,6,0c0.1,0.1,0.2,0.1,0.2,0.2c0.2,0.4-0.2,0.5-0.4,0.7c0,0.3,0.2,0.3,0.4,0.3l0.1,0.1
		c0,0.2,0,0.3,0,0.5v0C182.2,168.6,181.2,168.3,180.2,168.7z"></path>
	<path d="M185,209.5c-3.3-0.3-6.7-0.2-10.1-0.2c-19.9,0-39.7,0-59.6-0.1c-4.7,0-9.4,0-14.1,0.1
		c-5.2,0.2-10.3,0-15.4,0.2c-4.6,0.2-9.2,0.1-13.8,0.1c-1.8,0-3.5-0.3-5.3-0.4c1.9-0.5,4-0.1,5.9-0.6c-1.8-0.7-3.8-0.3-5.6-0.7
		c0.3-0.4,0.6-0.3,1-0.3c9.3,0,18.6-0.1,27.9,0c3.9,0.1,7.7,0.1,11.6,0.2c22.4,0.5,44.8,0.2,67.3,0.2c3.4,0,6.8-0.2,10.3-0.2
		C185,208.5,185,209,185,209.5z"></path>
	<path d="M155.3,122.9c-0.2,0.6-0.7,0.4-1.1,0.4c-2.9,0.3-5.8,0.2-8.7,0c-3.3-0.2-6.6,0-9.9-0.1
		c-5.9-0.1-11.9-0.1-17.8-0.2c-21.7-0.6-43.3-0.1-65-0.2c-2.8,0-5.7,0.1-8.5,0.2c-0.4-0.4-0.2-0.9-0.2-1.3c3,0.1,6,0.2,9,0.2
		c19.6,0,39.1,0,58.6,0c5.1,0,10.2-0.1,15.3-0.3c8.7-0.3,17.3-0.1,26-0.2c0.9,0,1.7,0.1,2.6,0.2c0,0.2,0,0.3,0,0.4
		c-1.1,0.3-2.2-0.2-3.3,0.3C153.2,123.2,154.3,122.7,155.3,122.9z"></path>
	<path d="M45.8,139.7c5,0.1,10,0.1,15,0.3c1.8,0.1,3.7,0.1,5.5,0.1c19.9,0,39.9,0.1,59.8,0c4,0,7.9,0,11.8-0.2
		c7.9-0.4,15.9-0.1,23.8-0.2c0.4,0,0.8-0.1,0.9,0.5c-0.2,0.1-0.4,0.3-0.6,0.4c0.5,0.5,1.3,0,1.8,0.4c-0.4,0.6-1.1,0.6-1.7,0.6
		c-8.4-0.1-16.7-0.3-25-0.3c-2,0-4.1,0-6.1-0.1c-10.8-0.4-21.6-0.2-32.4-0.2c-11.1,0-22.2-0.1-33.3,0c-6.5,0.1-13,0.6-19.5,0.4
		C45.7,140.8,45.8,140.3,45.8,139.7z"></path>
	<path d="M169.4,245.5c-20.7,0-41.3,0-62-0.1c-6.6,0-13.2,0.3-19.7,0.4c-2.9,0-5.9-0.1-8.8,0.2
		c-4.8,0.3-9.6,0.1-14.4,0.2c-1,0-1.9,0-2.8-0.6c1.7-0.4,3.5,0.1,5.1-0.7c-1.3-0.1-2.5-0.3-3.7-0.4c0.8-0.6,1.7-0.6,2.7-0.6
		c7.8,0.1,15.7,0,23.5,0.3c5.8,0.2,11.6,0.3,17.5,0.5c0.2,0.5,0.6,0.4,1,0.4c18.6,0,37.2,0,55.8,0c0.4,0,0.8,0.1,1-0.4
		c1.7,0,3.3-0.1,5-0.1c1.5,0.5,3,0.1,4.5,0.2c0.3,0,0.4-0.1,0.6-0.3c2.1-0.2,4.1,0,6.2-0.1c1.1,0.5,2.1,0.1,3.2,0.2
		c0.5,0,1,0,1.4,0.5l0.1,0c0,0.1,0.1,0.3,0.1,0.4c0,0.1,0,0.3,0,0.4c-4.5-0.3-9-0.1-13.6-0.3C171.3,245,170.3,245.2,169.4,245.5z"></path>
	<path d="M72,212.8c0.4-0.6,1-0.6,1.6-0.6c8.8,0.1,17.7,0.1,26.5,0.3c3.2,0.1,6.3,0.1,9.4,0.2
		c22.5,0.4,45,0.1,67.5,0.2c2.6,0,5.2-0.2,7.8-0.2c-0.1,0.4-0.1,0.8-0.2,1.2c-3,0-6-0.2-9-0.2c-20.3-0.1-40.6-0.1-60.9,0
		c-8.9,0.1-17.9,0.3-26.8,0.5c-4.3,0.1-8.6,0.1-12.9,0.1c-0.9,0-1.9,0-2.7-0.6c0.6-0.3,1.3,0.1,1.8-0.5c-0.3-0.3-0.7-0.4-1.1-0.3
		C72.6,213.1,72.2,213.3,72,212.8z"></path>
	<path d="M184.1,222.7c-5,0-10.1,0-15.1,0c-16.4,0-32.9-0.1-49.3,0c-3.9,0-7.8,0-11.6,0.2c-4.5,0.3-9,0.1-13.5,0.2
		c-5.6,0.2-11.1,0.3-16.7,0.1c-2.4-0.1-4.8,0.1-7.1-0.3c3.8-0.4,7.5-0.2,11.6-0.7c-3.8-0.5-7.4-0.4-10.9-0.7
		c0.2-0.2,0.4-0.2,0.7-0.2c6.8-0.3,13.6-0.3,20.4-0.1c4.6,0.1,9.2,0,13.8,0.2c4.1,0.1,8.2,0.1,12.3,0.3c6.9,0.3,13.7,0.1,20.6,0.1
		c14.4,0.1,28.7,0,43.1,0c0.5,0,1,0,1.6,0C184.1,222.2,184.1,222.4,184.1,222.7z"></path>
	<path d="M184.1,218.4c-5.7-0.3-11.4-0.2-17.1-0.2c-16.5,0-32.9-0.1-49.4,0c-3.9,0-7.8,0.1-11.7,0.2
		c-10.9,0.4-21.8,0.1-32.7,0.2c-0.3,0-0.7,0.1-0.8-0.3c1.9-0.4,3.9,0,5.9-0.5c-0.3-0.5-0.7-0.3-1.1-0.3c-1.5-0.1-2.9,0.1-4.4-0.2
		c1.3-0.6,2.6-0.4,3.9-0.5c3.7-0.1,7.4-0.2,11.2,0c5.3,0.3,10.7,0,16,0.2c3.7,0.2,7.3,0.1,11,0.2c15.5,0.4,31.1,0.1,46.6,0.2
		c5.8,0,11.6,0,17.4,0c1.8,0,3.6-0.3,5.4-0.2C184.2,217.6,184.1,218,184.1,218.4z"></path>
	<path d="M71.5,232.1c0-0.1-0.1-0.1,0-0.2c0.4-0.4,1.2-0.2,1.2-1c0.1-0.1,0.2-0.3,0.3-0.4c0.2,0,0.5-0.1,0.7-0.1
		c1.5,0.4,3,0.4,4.6,0c1.9,0,3.8,0,5.7,0c6.6,0.1,13.3,0.2,19.9,0.3c0.1,0.1,0.2,0.3,0.3,0.3c1.8,0,3.7,0.3,5.5-0.1
		c21.6,0.4,43.2,0.1,64.8,0.2c2.1,0,4.1-0.2,6.2-0.1c1.7,0.4,3.4,0.1,5.1,0.2l0,0.1l0,0.1c0,0.3-0.1,0.6-0.1,0.8
		c-3.8,0.1-7.6-0.2-11.4-0.2c-19.6,0-39.3,0-59,0c-0.2-0.2-0.3-0.2-0.5,0c-14.3,0.2-28.6,0.7-42.9,0.3
		C71.9,232.1,71.7,232.1,71.5,232.1z"></path>
	<path d="M76.1,226.1c10,0,20.1,0,30.1,0c0.2,0,0.4,0.1,0.6,0.1c1.8,0.7,3.7,0.4,5.5,0.1c6.9,0.2,13.9,0.2,20.8,0.2
		c15.1,0,30.1,0,45.2,0c2.1,0,4.1-0.2,6.2-0.1c0.1,0.2,0.3,0.2,0.5,0.2h0c0,0.2,0,0.4,0.2,0.5c0,0.1,0,0.3,0,0.4
		c-21.4-0.5-42.7-0.1-64-0.2c-5.8,0-11.5,0.2-17.3,0.3c-5.2,0.1-10.3,0-15.4,0.2c-3.9,0.1-7.8,0.2-11.7,0.1c-1.5,0-2.9-0.3-4.4-0.3
		c-0.1,0-0.2-0.2-0.4-0.3c0.5-0.3,1-0.2,1.5-0.2c1.5,0,3,0.1,4.7-0.3c-0.9-0.5-1.7-0.2-2.4-0.4C75.9,226.3,76,226.2,76.1,226.1z"></path>
	<path d="M57.3,131.9c-1.7,0.2-3.3,0-5,0.1c-1.8-0.4-3.6-0.2-5.3-0.1c-0.1,0-0.1,0.2-0.2,0.3c-0.5,0-1.1,0-1.6,0
		c0-0.1-0.1-0.3-0.1-0.5c0-0.7,0.2-1,1-1c2.7,0.1,5.3,0.1,8,0.1c1.5,0.8,3,0.4,4.6,0.2c14.8,0.4,29.6,0.1,44.5,0.2
		c4.9,0,9.8,0,14.7,0c1.3,0,2.7,0.1,4,0.1c0.3,0,0.6-0.1,0.7-0.4c1.8,0,3.7,0,5.5-0.1c0.3,0.3,0.6,0.3,0.9,0
		c4.2-0.1,8.5-0.1,12.7-0.2c0.1,0.1,0.3,0.2,0.4,0.2c3.1,0,6.2,0,9.3,0c0.3,0,0.6-0.1,0.7-0.4c1.2-0.1,2.4-0.1,3.6,0.1
		c0.2,0.3,0.3,0.5,0.5,0.8c0.1,0.1,0.1,0.1,0.2,0.2c0,0.3,0,0.6,0,0.9c-3.9,0-7.7,0.2-11.6-0.1c-0.4,0-0.9,0.1-1.3,0.1
		c-4.5-0.1-9-0.2-13.5-0.3c-0.1-0.1-0.1-0.3-0.2-0.3c-1.8-0.1-3.6-0.4-5.4,0.1c-1.7,0-3.3-0.1-5-0.1c-0.5-0.6-1.1-0.5-1.7-0.1
		c-0.6,0.1-1.3,0.1-1.9,0.1c-18.4,0-36.8,0-55.2,0c-0.6,0-1.3-0.1-1.9-0.1C58.1,131.4,57.7,131.3,57.3,131.9z"></path>
	<path d="M168,194.5c2,0,4-0.1,6-0.1c1.3,0.5,2.6,0.2,3.8,0.2c0.8,0,1.6,0.3,2.4-0.2c1.1,0,2.1,0,3.2,0
		c0.1,0.2,0.1,0.3,0.2,0.5c0,0.2,0,0.4,0.2,0.5c0,0.1,0,0.3,0,0.4c-3.7,0-7.5,0-11.2-0.1c-0.1-0.1-0.2-0.3-0.3-0.3
		c-1.8,0-3.5-0.3-5.2,0.1c-1.6,0-3.2,0-4.8-0.1c-0.2-0.5-0.6-0.4-1-0.4c-19.1,0-38.2,0-57.3,0c-0.4,0-0.8-0.1-1,0.4
		c-1.6,0-3.2,0-4.8,0.1c-1.8-0.4-3.6-0.2-5.3-0.1c-0.1,0-0.1,0.2-0.2,0.3c-4.9,0-9.7,0.1-14.6,0.1c-0.3-0.3-0.7-0.2-1-0.2
		c-4.8,0-9.6,0-14.3,0c0,0-0.1-0.1,0-0.1c0.6-0.3,1.3,0.1,2.1-0.5c-1.2-0.1-2-0.3-2.9-0.4c0.8-0.4,1.6-0.3,2.3-0.3
		c6.8,0,13.5,0,20.3,0c2.2,0.5,4.5,0.4,6.7,0.1c1.9,0,3.8,0.1,5.7,0.1c1.6,0.7,3.2,0.4,4.8,0.1c16.5,0,33.1,0,49.6,0
		c4,0,8.1,0,12.1,0c1.3,0.4,2.5,0.1,3.8,0.2C167.6,194.9,167.9,194.9,168,194.5z"></path>
	<path d="M62.4,135.6c16,0,31.9,0,47.9,0c3.3,0,6.6,0,9.9,0c1.4,0.4,2.8,0.1,4.1,0.2c0.3,0,0.6,0,0.7-0.4
		c1.8,0,3.5,0,5.3-0.1c0.4,0.3,0.8,0.2,1.3,0.2c4.3-0.1,8.7,0.1,13-0.2c3.7-0.3,7.5,0,11.3-0.1c1.3,0,1.9,0.4,2,1.7
		c-2.9,0-5.7,0-8.6,0c-0.2-0.6-0.7-0.4-1.1-0.4c-1.9,0-3.8,0-5.7,0c-0.6,0-1.3-0.2-1.8,0.2c-4.1-0.1-8.2-0.1-12.2-0.2
		c-0.1-0.2-0.4-0.3-0.6-0.3c-2.2,0.1-4.3-0.2-6.4-0.2c-4.3-0.1-8.6,0-12.8,0c-15.8,0-31.6,0-47.4,0c-0.6,0-1.2-0.2-1.6,0.4
		c-4.3,0.1-8.5,0.4-12.8,0.3c-0.4,0-0.8,0-1.1-0.3c0-0.1,0-0.2-0.1-0.3c0-0.2,0-0.4-0.1-0.7c0-0.1,0-0.3,0-0.4
		c4.6,0.4,9.2,0,13.8,0.4C60.3,136,61.4,136,62.4,135.6z"></path>
	<path d="M69.6,285.4c1.4,0,2.7,0,4.1,0c0.1,0.1,0.1,0.1,0.2,0c1.7,0,3.3,0.1,5,0.1c19.2,0,38.4,0,57.6,0
		c4.6,0,9.3-0.1,13.9-0.3c8.5-0.3,16.9-0.5,25.4-0.4c-6.1,0.8-12.3,0.8-18.5,1c-11.3,0.2-22.6,0.3-33.9,0.7
		c-10.2,0.4-20.4-0.5-30.6-0.5c-7.2,0-14.5-0.3-21.7-0.3c-0.5,0-0.9-0.1-1.4-0.1C69.6,285.6,69.6,285.5,69.6,285.4z"></path>
	<path d="M69.6,285.4c0,0.1,0,0.2,0,0.3c-2.9,0.1-5.8-0.1-8.7-0.2c-1.1-0.1-2.2,0-3.3-0.3c3.5-0.5,7,0.2,10.5,0
		C68.6,285.1,69.2,285,69.6,285.4z"></path>
	<path d="M185.8,231.1c-1.7-0.1-3.4,0.2-5.1-0.2c1-0.6,2-0.2,3-0.3c0.7-0.1,1.4,0,2,0
		C185.8,230.8,185.8,231,185.8,231.1z"></path>
	<path d="M178.9,163.8c1.4-0.2,2.8,0.3,4.1-0.2c0,0.2,0,0.4,0,0.5c-1.9,0-3.8,0-5.7-0.1
		C177.8,163.7,178.4,164.1,178.9,163.8z"></path>
	<path d="M183.1,162.6c-0.4,0-0.7-0.1-1.1-0.1c-0.8-0.2-1.7,0.2-2.5-0.3c1.2,0,2.4,0,3.6,0
		C183.1,162.4,183.1,162.5,183.1,162.6z"></path>
	<path d="M180.2,168.7c0.9-0.5,1.9-0.1,2.9-0.2c0,0.1,0,0.2,0,0.3C182.2,168.8,181.2,168.7,180.2,168.7z"></path>
	<path d="M46.1,166.9c0,0.5,0.2,1.1,0,1.6c-0.3-0.5-0.2-1.1-0.2-1.7C46,166.8,46,166.9,46.1,166.9z"></path>
	<path d="M185.1,226.5c-0.2,0-0.4,0-0.5-0.2c0.1-0.2,0.3-0.2,0.4-0.2C185,226.3,185.1,226.4,185.1,226.5z"></path>
	<path d="M46,168.5c0.3,0,0.7-0.1,1,0.2c-0.3,0-0.7,0-1,0C46,168.7,46,168.6,46,168.5z"></path>
	<path d="M185.8,232.1c0-0.3,0.1-0.6,0.1-0.8c0.2,0.3,0.2,0.6,0.1,0.9C185.9,232.1,185.8,232.1,185.8,232.1z"></path>
	<path d="M185.3,227c-0.2-0.1-0.2-0.3-0.2-0.5C185.3,226.6,185.3,226.8,185.3,227z"></path>
	<path d="M183.1,155.1c0.1-0.1,0.3-0.1,0.4-0.2c0,0.1,0,0.2,0,0.3C183.4,155.2,183.3,155.2,183.1,155.1z"></path>
	<path d="M183.1,168c-0.2,0-0.4,0-0.4-0.3C182.8,167.8,183,167.9,183.1,168z"></path>
	<path d="M183.1,168.5c0-0.2,0-0.3,0-0.5C183.4,168.2,183.3,168.3,183.1,168.5z"></path>
	<path d="M40.5,67.4c0.1-0.6,0.7-0.6,1.1-0.6c7,0.1,14,0.1,21,0.3c2.2,0.1,4.5,0.1,6.7,0.2c23.3,0.5,46.6,0.2,69.9,0.2
		c3.7,0,7.4,0,11-0.2c5.6-0.3,11.3,0,16.9-0.3c2.7-0.1,5.4-0.1,8.1,0.1c0.4,0,0.9-0.2,1.1,0.4c-1,0.3-2.2-0.1-3.3,0.6
		c0.9,0.4,1.8,0.1,2.5,0.4c-0.4,0.5-1,0.5-1.6,0.5c-5.1,0-10.2,0.2-15.4,0c-4.3-0.2-8.5-0.1-12.8-0.2c-24.6-0.5-49.2-0.2-73.8-0.2
		c-2.9,0-5.8,0.2-8.7,0.3c-0.7,0-1.3-0.1-2-0.1c-6.8,0.3-13.6,0.2-20.4,0.2c-0.5,0-1.2,0.3-1.4-0.5c1-0.3,2,0,3.1-0.4
		C42,67.2,41.2,67.6,40.5,67.4z"></path>
	<path d="M176.9,63.7c-0.3,0.6-0.9,0.6-1.5,0.5c-7.1,0-14.2,0.2-21.2-0.1c-26.5-0.9-53.1-0.4-79.6-0.3
		c-10,0-20,0.3-29.9,0.3c-0.6,0-1.3,0.3-1.6-0.6c0.8-0.2,1.7,0.2,2.5-0.4c-0.5-0.5-1.1-0.3-1.6-0.5c0.3-0.8,1-0.6,1.6-0.7
		c1.4-0.1,2.9,0.2,4.3,0.2c4.4,0.1,8.8,0,13.2,0.1c4.3,0.1,8.6,0.1,12.9,0.2c13.9,0.4,27.8,0.1,41.7,0.2c8.2,0.1,16.5,0.1,24.7,0
		c4-0.1,8.1,0,12.1-0.2c4.2-0.2,8.5-0.2,12.7-0.2c3,0,6.1-0.3,9.1-0.2c0.6,0,1.2,0,1.5,0.7c-0.6,0.2-1.2,0-1.8,0.4
		C176.2,63.8,176.7,63.5,176.9,63.7z"></path>
	<path d="M46,58.3c1.2-0.8,2.5-0.7,3.8-0.6c0.6,0.1,1.3,0.2,1.9,0.2c5,0,10-0.1,15,0.1c3.9,0.1,7.9,0,11.8,0.2
		c5.1,0.3,10.1,0.2,15.2,0.2c17.5,0,34.9,0.1,52.4-0.1c4,0,8.1,0,12.1-0.2c4.6-0.2,9.1-0.2,13.6-0.2c3.2,0,6.4-0.5,9.5-0.2
		c0.5,0,0.8,0,0.9,0.6c-1.1,0.4-2.4-0.3-3.6,0.6c0.5,0.2,0.8,0.3,1.1,0.4c-0.3,0.5-0.8,0.5-1.3,0.5c-5.1,0-10.2,0.1-15.2,0
		c-4.1-0.1-8.2-0.1-12.3-0.2c-22.3-0.6-44.6-0.1-66.9-0.2c-6.2,0-12.4,0.2-18.6,0.3c-6,0.1-12.1,0-18.1,0.1c-0.6,0-1.3,0-1.7-0.5
		c0.8-0.2,1.8,0.1,2.7-0.5C47.5,58.2,46.7,58.5,46,58.3z"></path>
	<path d="M171.6,72.8c-0.1,0.7-0.6,0.6-1.1,0.6c-4.6,0-9.3,0.2-13.9-0.1c-4.4-0.2-8.7-0.1-13.1-0.2
		C119.8,72.6,96,73,72.3,72.9c-6.2,0-12.5,0.1-18.7,0.3c-5.6,0.2-11.3-0.1-16.9,0.3c-0.5,0-0.7-0.2-0.7-0.6c1.3-0.2,2.6-0.1,4-0.4
		c-0.7-0.7-1.5-0.4-2.2-0.7c0.3-0.5,0.8-0.3,1.2-0.3c7,0,13.9-0.2,20.9,0.1c25,0.8,50,0.3,75,0.4c3.9,0,7.8,0,11.6-0.2
		c8.2-0.4,16.4-0.2,24.6-0.2c0.4,0,0.8-0.2,1,0.4c-0.5,0.2-1.2,0-1.7,0.4C170.7,72.8,171.3,72.5,171.6,72.8z"></path>
	<path d="M170.4,77.4c-0.2,0.5-0.7,0.3-1,0.3c-9.5,0-19,0.3-28.6,0c-22.5-0.7-45.1-0.3-67.6-0.3c-3.4,0-6.8,0-10.2,0.2
		c-9.3,0.4-18.7,0.1-28,0.2c-0.4,0-0.9,0.2-1.1-0.4c-0.5-1.1-0.3-1.5,1-1.5c5.6,0.1,11.2,0.1,16.8,0.2c5.5,0.1,10.9,0.2,16.4,0.3
		c21,0.4,42.1,0.1,63.1,0.2c3.9,0,7.8,0,11.7-0.3c3.2-0.2,6.4-0.1,9.6-0.2c4.4-0.1,8.9-0.2,13.3-0.2c1.5,0,2.9,0.4,4.4,0.2
		c0.3,0,0.6,0.1,0.6,0.4c-1,0.2-2-0.1-3.1,0.4C168.6,77.4,169.5,77.1,170.4,77.4z"></path>
	<path d="M167.5,81.9c-0.1,0.3-0.4,0.4-0.7,0.4c-5.3,0.2-10.6,0.3-15.9,0.1c-2.6-0.1-5.2,0-7.8-0.1
		c-4.9-0.1-9.9-0.1-14.9-0.2c-19.5-0.4-38.9-0.1-58.4-0.1c-3.7,0-7.3,0-11,0.2c-4.1,0.2-8.1,0.1-12.2,0.2c-3.1,0.1-6.2,0.2-9.2,0.2
		c-0.4,0-0.7,0-1.1-0.1c-0.8-0.3-1.1-1.1-1.1-1.7c0-0.6,0.8-0.3,1.2-0.3c6.2,0.1,12.5,0,18.7,0.3c3.5,0.1,7,0.1,10.4,0.2
		c20.8,0.5,41.5,0.2,62.3,0.2c8.7,0,17.3-0.3,26-0.5c3.2-0.1,6.4-0.1,9.6-0.2c1.3,0,2.7,0.4,4,0c0.4-0.1,0.8,0.1,0.8,0.6
		c-1.1,0.2-2.2-0.1-3.2,0.6C165.8,81.8,166.7,81.8,167.5,81.9z"></path>
	<path d="M164.9,86.5c-0.4,0.6-1,0.6-1.6,0.6c-4.4,0-8.9,0.2-13.3,0c-3.1-0.2-6.2-0.1-9.3-0.2c-5-0.2-10-0.1-15-0.3
		c-19.9-0.5-39.9-0.2-59.8-0.2c-8.2,0-16.4,0.4-24.5,0.4c-1,0-1.9,0.2-2.9,0.2c-0.5,0-0.9-0.1-1.1-0.6c-0.2-0.4-0.5-0.8-0.4-1.2
		c0.2-0.5,0.8-0.3,1.2-0.3c4.8,0.3,9.7,0,14.5,0.3c3.4,0.2,6.9,0.1,10.3,0.2c20.3,0.5,40.6,0.2,60.9,0.2c8.5,0,17-0.3,25.5-0.5
		c4.1-0.1,8.2-0.1,12.3-0.1c1.5,0,2.9,0.1,4.4,0.2c0.3,0,0.6,0,0.6,0.4c-1.2,0.1-2.4,0-3.6,0.4C163.6,86.7,164.3,86.2,164.9,86.5z"></path>
	<path d="M114.4,49.6c0.6,0.2,1.2-0.1,1.8-0.2c0.3,0,0.7,0,1,0c8.8,0,17.6,0,26.3,0c8.2,0,16.3-0.5,24.5-0.5
		c1.4,0.6,2.9,0.2,4.3,0.3c0.6,0,1.2,0.3,1.7-0.3c1.8-0.4,3.6-0.2,5.4-0.2c2,0,4,0,6.1,0c0.9,0.5,1.9,0,2.8,0.3
		c-1.2,0.5-2.7-0.1-4,0.6c0.6,0.5,1.2,0.4,1.8,0.4c2.1,0,4.2,0.1,6.2,0.5c-2.3,0-4.6,0.1-6.9,0.1c-5.9,0-11.8,0.1-17.7-0.1
		c-5.6-0.2-11.3-0.1-16.9-0.4c-0.2-0.2-0.3-0.3-0.5,0c-7,0-14,0-21,0c-15.1,0-30.1-0.1-45.2,0.1c-10.5,0.1-21,0.4-31.5,0.4
		c-0.1-0.2-0.2-0.3-0.2-0.5c0.3-0.1,0.7-0.1,1-0.2c0.4-0.1,0.4-0.1-0.1-0.6c0-0.2,0-0.3,0.1-0.5c3.7-0.2,7.5-0.1,11.2,0
		c0.2,0.6,0.7,0.4,1.1,0.4c1.9,0,3.8,0,5.7,0c0.4,0,0.8,0.1,1.1-0.2c4.6,0.1,9.2,0.1,13.7,0.3c8.2,0.4,16.4,0.1,24.6,0.2
		c0.3,0,0.7,0.1,1-0.2c0.7,0.2,1.3,0.5,2.1,0.4C114,49.6,114.2,49.6,114.4,49.6z"></path>
	<path d="M161.5,91c-0.2,0.7-0.8,0.7-1.4,0.7c-4.6-0.1-9.1,0.1-13.7-0.2c-4.3-0.2-8.6,0-12.9-0.1
		c-23.7-0.8-47.5-0.3-71.2-0.4c-7.3,0-14.6,0.4-21.9,0.4c-0.3,0-0.7,0.1-1-0.1c-0.6-0.2-0.7-0.8-0.7-1.3c0-0.6,0.6-0.3,1-0.3
		c3.5,0,7-0.1,10.4,0c23.4,0.8,46.8,0.3,70.1,0.4c3.5,0,7,0,10.5-0.2c10-0.4,20.1-0.1,30.1-0.2c0.4,0,1-0.2,1.3,0.3
		c-0.4,0-0.8,0.1-1.2,0.1c-0.3,0-0.6-0.1-0.6,0.3c0,0.3,0.4,0.3,0.6,0.4C161.2,90.9,161.4,91,161.5,91z"></path>
	<path d="M42.9,113.7c-0.2-0.1-0.2-0.3-0.2-0.6c0.3-0.3,0.7-0.3,1.1-0.3c20.9,0,41.8,0,62.7,0c4.8,0,9.6-0.2,14.4-0.3
		c3.7-0.1,7.4,0,11.1-0.2c4.9-0.3,9.9-0.1,14.9-0.2c2.1,0,4.1,0.2,6.2,0.2c0,0.1,0,0.2,0,0.3c-2.2,0.4-4.4,0.2-6.6,0.6
		c1.7,0.6,3.4,0.3,5.1,0.6c-0.7,0.3-1.4,0.4-2.1,0.4c-10.1-0.1-20.1,0.2-30.2-0.2c-5.3-0.2-10.7-0.3-16-0.3c-18.5,0-37,0-55.5,0
		C46.2,113.7,44.6,113.9,42.9,113.7z"></path>
	<path d="M152.7,109.3c-0.2,0.5-0.6,0.4-1,0.4c-4.6,0.3-9.2,0.3-13.9,0.1c-4.3-0.2-8.6,0-12.8-0.1
		c-4.2-0.1-8.3,0-12.4-0.3c-4.7-0.3-9.4-0.1-14.1-0.2c-16.9,0-33.7,0-50.6,0c-1.7,0-3.3,0.4-5,0.2c-0.1-0.1-0.2-0.2-0.2-0.2
		c-0.1-0.6,0.1-1,0.8-0.9c1.4,0.1,2.9,0,4.3,0c20.7,0,41.5,0,62.2,0c6.1,0,12.3-0.2,18.4-0.3c5.7-0.1,11.3-0.1,17-0.1
		c2.6,0,5.1,0.1,7.7,0.2c0.2,0,0.5,0,0.6,0.2c-0.3,0.1-0.6,0.1-0.9,0.2c-1.5-0.2-2.9-0.2-4.4,0.3c1,0.3,2,0.4,3,0.2
		c0.4,0.2,0.8,0.1,1.2,0.1C152.5,109.1,152.6,109.2,152.7,109.3z"></path>
	<path d="M157.7,95.4c-0.2,0.6-0.7,0.5-1.2,0.5c-8.5,0-17,0.1-25.6-0.1c-3.4-0.1-6.9-0.1-10.3-0.2
		c-20-0.4-40.1-0.1-60.1-0.2c-4.4,0-8.8,0-13.2,0.3c-2,0.1-4,0.1-6,0.2c-0.5,0-0.9,0-1.1-0.6c-0.2-0.7-0.2-1,0.7-1
		c6,0.1,12,0.2,18.1,0.5c0.4,0,0.9,0,1.3,0c18.1,0,36.2,0,54.3,0c4.1,0,8.1,0,12.2-0.3c4.6-0.3,9.1,0,13.6-0.2
		c5.6-0.3,11.2-0.1,16.8-0.2c0.5,0,1.2-0.2,1.3,0.6c-0.6,0.1-1.3,0.2-2,0.3C156.9,95.4,157.5,95,157.7,95.4z"></path>
	<path d="M149.8,105.1c-8,0-16,0.1-24-0.1c-2.8-0.1-5.7-0.1-8.5-0.2c-21.9-0.5-43.8-0.1-65.7-0.2
		c-2.7,0-5.4,0.2-8.1,0.2c-0.3,0-0.6,0-0.8,0c-0.6,0-0.8-0.3-0.8-0.8c0-0.6,0.4-0.6,0.8-0.6c1.9,0.3,3.8,0.2,5.7,0.2
		c22,0,43.9,0,65.9,0c6,0,12.1-0.2,18.1-0.3c5.3-0.1,10.6,0,15.9-0.1c0.7,0,1.4,0,2,0.2C150.1,104,149.9,104.6,149.8,105.1z"></path>
	<path d="M155.1,100.1c-0.1,0.6-0.6,0.5-1.1,0.5c-8.6,0-17.2,0.1-25.8-0.1c-3.4-0.1-6.8-0.1-10.2-0.2
		c-20.9-0.4-41.7-0.1-62.6-0.2c-4,0-8,0.2-12,0.2c-0.5,0-0.9,0.2-1.4,0.2c-0.6,0-1-0.3-1-0.9c0-0.7,0.5-0.7,0.9-0.6
		c4.9,0.3,9.7,0,14.6,0.4c0.4,0,0.7,0,1.1,0c18.3,0,36.6,0.1,54.8-0.1c8-0.1,16-0.3,24.1-0.5c6.1-0.2,12.1-0.1,18.2-0.2
		c0.5,0,1.1-0.1,1.2,0.7c-0.7,0.1-1.4,0.2-2.1,0.4C154.3,99.9,154.8,99.6,155.1,100.1z"></path>
	<path d="M70.3,53.5c2.2,0,4.3,0.1,6.4,0.1c1.8,0.7,3.5,0.5,5.3,0.1c1.7,0,3.3,0.1,5,0.1c0.2,0.5,0.7,0.4,1,0.4
		c19.1,0,38.2,0,57.3,0c0.4,0,0.8,0.2,1-0.4c1.6,0,3.2,0,4.8-0.1c1.7,0.5,3.5,0.2,5.3,0.2c0.1,0,0.2-0.2,0.3-0.3c2,0,4,0,6,0
		c0.1,0.1,0.3,0.2,0.4,0.2c2.2,0,4.4,0,6.6,0c0.3,0,0.6-0.1,0.7-0.4c4.1,0,8.1,0,12.2,0c0.3,0.1,0.6,0.3,1,0.4c-0.5,0-1,0.1-1.5,0.2
		c-0.2,0-0.5,0.1-0.5,0.4c0,0.3,0.3,0.3,0.5,0.3c0.2,0,0.4,0.1,0.6,0.1c-0.4,0.5-0.9,0.3-1.3,0.3c-5.3,0.2-10.5-0.3-15.8-0.2
		c-0.5,0-1-0.2-1.4,0.2c-3.9,0-7.8-0.1-11.7-0.1c-1.6-0.8-3.2-0.4-4.8-0.2c-6.1-0.3-12.3-0.2-18.4-0.2c-14.4,0-28.8,0-43.2,0
		c-1.4,0-2.8,0-4.3-0.1c-0.3,0-0.6,0.1-0.7,0.4c-4,0-8,0.1-12,0.1c-0.3-0.3-0.7-0.2-1-0.2c-2.8,0.1-5.5,0-8.3,0.2
		c-3.5,0.2-7,0.1-10.4,0c-0.3,0-0.7,0.1-1-0.3c0.7-0.4,1.6,0.1,2.4-0.4c-0.7-0.6-1.5-0.4-2.2-0.5c0.3-0.4,0.9,0,1.2-0.4
		c4.2,0,8.5,0,12.7,0c0.2,0.5,0.7,0.4,1,0.4c1.7,0,3.3,0,5,0C69.2,53.7,69.8,54,70.3,53.5z"></path>
	<path d="M130.3,41c0.3-0.3,0.6-0.6,0.9-0.9c10.2,0,20.5,0.1,30.7,0c4.1-0.1,8.3,0,12.4-0.2c4.8-0.3,9.7-0.1,14.5-0.2
		c1,0,2.1-0.1,3,0.8c0.4,0.4,1.4,0.3,2.1,0.4c0.9,0.1,1.7,0.4,2.4,1c-2.6,0-5.1,0-7.7,0c-2,0-4.1,0-6.1,0
		c-7.1-0.2-14.3-0.3-21.4-0.5c-9.8-0.3-19.5,0-29.2-0.2C131.3,41,130.8,41,130.3,41z"></path>
	<path d="M124.6,45.6c0.5-0.3,1-0.6,1.4-0.9c0.5,0,1,0.1,1.4,0.1c10.1,0,20.2,0.1,30.3-0.1c4.2-0.1,8.4,0,12.6-0.2
		c7.9-0.4,15.9-0.1,23.8-0.2c0.3,0,0.6,0.1,0.8,0.1c-2,0.2-4,0.3-6.1,0.5c-0.6,0.1-1.7-0.3-1.7,0.4c0,0.7,1.1,0.3,1.8,0.4
		c1.1,0.1,2.3-0.2,3.3,0.5c-9.4,0-18.9,0.3-28.3,0c-13-0.5-25.9-0.2-38.9-0.4C124.9,45.6,124.8,45.6,124.6,45.6z"></path>
	<path d="M102.3,44.7c0.5,0.2,0.9,0.5,1.3,0.9c-3.3,0-6.7-0.1-10.1,0.1c-12.3,0.5-24.6,0.5-37,0.4
		c-1.7,0-3.4,0-5.1-0.4c1.6-0.4,3.4,0.2,5.2-0.6c-1.3-0.5-2.5-0.2-3.5-0.5c1.2-0.3,2.3-0.5,3.5-0.5c5.6,0,11.1-0.1,16.7,0.1
		c4.4,0.2,8.7,0,13.1,0.2C91.8,44.8,97.1,44.6,102.3,44.7z"></path>
	<path d="M97,40.1c0.6,0,0.8,0.5,1.1,0.9c-4.2,0.1-8.3,0.2-12.4,0.3c-3.9,0.1-7.8,0-11.6,0.2c-4.9,0.3-9.8,0-14.7,0.2
		c-1,0-2-0.3-3-0.3c-0.3,0-0.4-0.2-0.5-0.5c0.8-0.3,1.6,0,2.4-0.3c0.4,0.2,1,0.3,1.2-0.1c0.2-0.5-0.4-0.4-0.7-0.6
		c0.2-0.5,0.7-0.5,1.1-0.5c5.4,0,10.9-0.1,16.3,0.1c3.9,0.1,7.8,0,11.6,0.2C90.9,40.1,94,40.1,97,40.1z"></path>
	<path d="M92.5,35.3c0.5,0.4,0.9,0.8,1.3,1.4c-1,0-1.9,0-2.9,0c-5.6,0.1-11.1,0.2-16.6,0.3c-4,0.1-8,0.1-12,0.2
		c-1.2,0-2.5-0.1-3.7-0.2c-0.3,0-0.5-0.1-0.5-0.4c1.3-0.3,2.7,0.2,4.1-0.5c-1.1-0.4-2-0.3-3-0.5c0.8-0.4,1.7-0.4,2.5-0.4
		c7.9,0.1,15.8,0.1,23.7,0.3c1.9,0,3.9,0.1,5.8,0.2C91.7,35.5,92.1,35.6,92.5,35.3z"></path>
	<path d="M88.1,30.5c0.5,0.5,0.9,1,1.4,1.6c-0.5,0.1-0.9,0.3-1.4,0.3c-8.7,0-17.3,0-26,0c-0.2,0-0.3,0-0.5,0
		c0-0.1,0-0.3,0-0.3c1.7-0.5,3.2-1.7,5.2-1.6c4.5,0.1,9,0,13.4,0.1c2.2,0.1,4.4,0.2,6.6,0.2C87.3,30.7,87.7,30.9,88.1,30.5z"></path>
	<path d="M134.9,36.4c0.2-0.4,0.5-0.7,0.8-0.9c11.9,0,23.8,0.1,35.6-0.1c3-0.1,5.6,0.5,8.4,1.5c-1.2,0-2.3,0-3.5,0
		c-1.2,0-2.3-0.1-3.5-0.2c-2.7-0.1-5.4,0-8.1-0.1c-9.6-0.4-19.2-0.1-28.8-0.2C135.5,36.5,135.2,36.5,134.9,36.4z"></path>
	<path d="M146.4,53.8c-0.2,0.5-0.6,0.4-1,0.4c-19.1,0-38.2,0-57.3,0c-0.4,0-0.8,0.2-1-0.4c0.4,0,0.8-0.1,1.2-0.1
		c19,0,38,0,56.9,0C145.6,53.8,146,53.8,146.4,53.8z"></path>
	<path d="M84.7,26.2c0.5,0.5,0.9,1,1.2,1.6c-4.7,0-9.4,0-14.2,0c1.1-0.8,2.1-1.7,3.5-1.7
		C78.4,26.2,81.6,26.2,84.7,26.2z"></path>
	<path d="M139.2,31.9c0.2-0.4,0.4-0.6,0.7-0.9c0.4,0.3,0.9,0.2,1.4,0.2c7,0,14.1,0,21.1,0c0.9,0,1.7,0.1,2.5,0.6
		c-0.2,0.3-0.5,0.2-0.7,0.2c-8,0-16.1,0-24.1,0C139.8,31.9,139.5,31.9,139.2,31.9z"></path>
	<path d="M182.7,54.7c2.4-0.1,4.9,0.3,7.3,0.5c-0.2,0-0.4,0.1-0.6,0.1c-5.4,0.1-10.7,0.3-16,0.1
		c-2.8-0.1-5.6-0.1-8.4-0.2c-0.3,0-0.6,0-0.8-0.2c0.4-0.4,0.9-0.2,1.4-0.2c5.3-0.1,10.5,0.4,15.8,0.2
		C181.8,55,182.3,55.2,182.7,54.7z"></path>
	<path d="M45.8,54.8c0.9-0.2,1.8-0.2,2.6-0.1c0.2,0.4,0.6,0.3,1,0.3c3.5,0,7,0.2,10.4,0c2.8-0.2,5.5-0.1,8.2-0.2
		c0.3,0,0.7-0.1,1,0.2c-0.3,0.3-0.7,0.3-1,0.2c-5.8-0.1-11.5,0.4-17.2,0.2c-1.5,0-2.9-0.1-4.4-0.2C46.2,55.2,45.9,55.1,45.8,54.8z"></path>
	<path d="M142.9,27.3c0.1-0.4,0.4-0.6,0.6-0.9c1.1,0.3,2.1,0.1,3.2,0.1c2.2,0,4.5,0,6.7,0c0.7,0,1.3,0.1,2,0.7
		C151.1,27.3,147,27.3,142.9,27.3z"></path>
	<path d="M154.8,103.8c-0.8,0.1-1.6,0.2-2.7,0.3c1,0.6,1.9,0.3,2.7,0.6c-0.1,0.1-0.1,0.3-0.2,0.3
		c-1.6,0.1-3.3,0.4-4.9,0.1c0.2-0.6,0.3-1.1,0.5-1.7c0.2,0,0.5,0,0.7,0c0.3,0.3,0.5,0.4,0.7-0.1
		C152.8,103.1,153.8,103.3,154.8,103.8z"></path>
	<path d="M72.5,49c-0.3,0.4-0.7,0.2-1.1,0.2c-1.9,0-3.8,0-5.7,0c-0.4,0-0.9,0.2-1.1-0.4c2.5,0,4.9,0,7.4,0
		C72.1,48.7,72.3,48.9,72.5,49z"></path>
	<path d="M170.4,53.4c-0.1,0.3-0.4,0.4-0.7,0.4c-2.2,0-4.4,0-6.6,0c-0.1,0-0.3-0.1-0.4-0.2c0.2-0.2,0.4-0.3,0.6-0.3
		C165.7,53.3,168.1,53.3,170.4,53.4z"></path>
	<path d="M70.3,53.5c-0.5,0.4-1.1,0.2-1.7,0.2c-1.7,0-3.3,0-5,0c-0.4,0-0.8,0.1-1-0.4c2.4,0,4.9,0,7.3-0.1
		C70.1,53.3,70.2,53.5,70.3,53.5z"></path>
	<path d="M174,48.9c-0.5,0.5-1.1,0.3-1.7,0.3c-1.4-0.1-2.9,0.3-4.3-0.3C170,48.6,172,48.6,174,48.9z"></path>
	<path d="M156.7,53.6c-0.1,0.1-0.2,0.3-0.3,0.3c-1.8,0-3.5,0.3-5.3-0.2C153,53.3,154.9,53.6,156.7,53.6z"></path>
	<path d="M82.1,53.7c-1.8,0.3-3.6,0.6-5.3-0.1C78.6,53.6,80.3,53.3,82.1,53.7z"></path>
	<path d="M81.1,54.9c0.1-0.3,0.3-0.4,0.7-0.4c1.4,0,2.8,0,4.3,0.1c-0.2,0.3-0.5,0.4-0.8,0.4
		C83.8,54.9,82.5,54.9,81.1,54.9z"></path>
	<path d="M147.6,54.7c1.6-0.3,3.2-0.6,4.8,0.2C150.8,54.9,149.2,55.2,147.6,54.7z"></path>
	<path d="M48.7,50.3c1.2-0.3,2.4-0.2,3.6-0.1c0.1,0.2,0.2,0.3,0.2,0.5c-1,0-1.9,0-2.8,0C49.3,50.6,48.9,50.7,48.7,50.3
		z"></path>
	<path d="M46.8,53.6c-0.4,0.1-0.8,0.1-1.1-0.1c1.4-0.5,2.9-0.1,4.3-0.2c-0.3,0.4-0.9,0-1.2,0.4c-0.2,0-0.3,0-0.5,0
		C47.8,53.4,47.2,53.6,46.8,53.6z"></path>
	<path d="M190.1,49c-0.6,0-1.2,0-1.8,0c-0.9-0.3-1.9,0.2-2.8-0.3c1.5,0,3.1,0,4.6,0C190.1,48.8,190.1,48.9,190.1,49z"></path>
	<path d="M58.6,40.1c-0.1,0.1-0.2,0.2-0.3,0.2c-0.8-0.2-1.6-0.2-2.5-0.1c0-0.1,0-0.1-0.1-0.2
		C56.8,39.8,57.7,39.7,58.6,40.1z"></path>
	<path d="M185.3,53.6c-0.6,0.2-1.1,0.3-1.7,0.1c-0.3-0.1-0.6-0.3-1-0.4C183.5,53.4,184.5,53,185.3,53.6z"></path>
	<path d="M50.7,49.2c-0.4,0.1-0.8,0.1-1.3-0.1c-0.1-0.1-0.2-0.1-0.2-0.2c0.7-0.3,1.3-0.3,2,0
		C51,49,50.8,49.1,50.7,49.2z"></path>
	<path d="M53.2,49.3c-0.5,0-1-0.1-1.4-0.1c0-0.1,0-0.2,0-0.3c0.5-0.3,1-0.2,1.5-0.1C53.3,49,53.3,49.2,53.2,49.3z"></path>
	<path d="M158.9,104.9c0.5-0.2,0.9-0.2,1.4,0C159.8,105.2,159.3,105.2,158.9,104.9z"></path>
	<path d="M190.1,49c0-0.1,0-0.2,0-0.2c0.9,0,1.8,0,2.7,0C191.9,49.1,191,49,190.1,49z"></path>
	<path d="M151.6,103.3c-0.2,0.5-0.4,0.4-0.7,0.1C151.2,103.2,151.4,103.2,151.6,103.3z"></path>
	<path d="M51.8,48.9c0,0.1,0,0.2,0,0.3c-0.4,0.1-0.8,0.1-1.2-0.1c0.2-0.1,0.3-0.2,0.5-0.2
		C51.4,48.9,51.6,48.9,51.8,48.9z"></path>
	<path d="M150.2,50.2c0.2-0.2,0.3-0.2,0.5,0C150.6,50.4,150.4,50.4,150.2,50.2z"></path>
	<path d="M176.1,71.8c-0.1,0-0.2,0-0.4,0c0-0.2,0.1-0.2,0.2-0.2C176,71.6,176.1,71.7,176.1,71.8z"></path>
	<path d="M57.3,35.5L57.3,35.5h-0.1C57.2,35.4,57.3,35.4,57.3,35.5z"></path>
	<path d="M154.3,108.3L154.3,108.3h-0.1C154.2,108.1,154.2,108.1,154.3,108.3z"></path>
	<path d="M179.7,67.2L179.7,67.2l-0.1,0C179.6,67.1,179.7,67.1,179.7,67.2z"></path>
	<path d="M41.8,277.6c2.2-0.2,4.4-0.4,6.6-0.6c0-0.1,0-0.2,0-0.4c-2-0.3-4-0.1-5.9-0.5c0.2-0.1,0.4-0.2,0.5-0.2
		c5.1-0.3,10.3-0.3,15.4-0.1c4.6,0.2,9.3,0,13.9,0.2c3.5,0.2,6.9,0.1,10.4,0.2c13.5,0.4,27.1,0.1,40.6,0.2c5.7,0,11.4,0.1,17,0
		c4.2-0.1,8.4-0.1,12.6-0.3c4.4-0.2,8.9,0,13.3-0.2c4.1-0.2,8.2-0.2,12.3-0.1c2,0,4.1,0,6.1,0.4c-2,0.2-3.9,0.4-5.9,0.5
		c0,0.1,0,0.2,0,0.3c1.7,0.2,3.4,0.4,5.1,0.6c-0.2,0.4-0.6,0.3-0.9,0.3c-2-0.4-4,0-5.9,0c-6.2,0-12.5-0.1-18.7-0.2
		c-4.3-0.1-8.6-0.1-12.9-0.3c-10.1-0.4-20.2-0.1-30.3-0.2c-10.2-0.1-20.5-0.1-30.7,0c-6,0.1-12,0.3-18,0.4c-0.9,0-1.8,0-2.7,0
		c-5.7,0-11.4,0.3-17.1,0.2c-1.3,0-2.5,0-3.8,0C42.3,277.9,42,278,41.8,277.6z"></path>
	<path d="M181.2,155.1c0.1,0,0.2,0,0.2,0C181.4,155.2,181.3,155.2,181.2,155.1z"></path>
	<path d="M179.8,155c0.1-0.1,0.1-0.1,0.2,0c0,0-0.1,0.1-0.1,0.1C179.9,155.1,179.8,155,179.8,155z"></path>
	<path d="M109.7,230.9c-1.8,0.4-3.7,0.2-5.5,0.1c-0.1,0-0.2-0.2-0.3-0.3c1.7,0,3.3,0,5,0
		C109.2,230.7,109.5,230.6,109.7,230.9z"></path>
	<path d="M78.2,230.4c-1.5,0.3-3,0.4-4.6,0C75.2,230.1,76.7,230,78.2,230.4z"></path>
	<path d="M72.7,230.9c-0.2,0-0.4,0-0.7-0.1c0.1-0.7,0.6-0.5,1-0.4C72.9,230.6,72.8,230.8,72.7,230.9z"></path>
	<path d="M69.4,227.5L69.4,227.5l0.1,0C69.5,227.7,69.5,227.7,69.4,227.5z"></path>
	<path d="M107.5,117.6c2.6-0.4,5.2-0.2,7.8-0.2c3.6-0.1,7.2-0.1,10.8-0.2c8.1-0.4,16.2-0.2,24.3-0.2
		c0.6,0,1.3,0,1.8,0.5c-1.1,0.1-2.3,0.2-3.4,0.3c0,0.1,0,0.2,0,0.2c1.2,0.1,2.5,0.2,3.7,0.3c-0.1,0.6-0.6,0.4-0.9,0.4
		c-8.7,0-17.4,0.1-26.1-0.1c-5.4-0.1-10.8-0.4-16.3-0.4c-0.6,0-1.1-0.1-1.6-0.4C107.5,117.8,107.5,117.7,107.5,117.6z"></path>
	<path d="M107.5,117.6c0,0.1,0,0.2,0,0.4c-0.1,0-0.2,0-0.2,0c-17,0.3-34.1,0.2-51.1,0.2c-0.9,0-1.9,0.1-2.7-0.5
		c0.4-0.3,0.9-0.2,1.4-0.2c17.1,0,34.2,0,51.3,0C106.6,117.4,107.1,117.3,107.5,117.6z"></path>
	<path d="M43.5,117.2c2.3,0.1,4.5,0.3,6.8,0.4c-0.5,0.6-1.2,0.7-1.9,0.7c-1.6,0-3.2,0-4.7,0
		C43.3,118,43.4,117.6,43.5,117.2z"></path>
	<path d="M153.2,118.3c0.1-0.1,0.1,0,0.2,0C153.2,118.5,153.2,118.4,153.2,118.3z"></path>
	<path d="M112.3,226.4c-1.8,0.2-3.7,0.5-5.5-0.1C108.6,226.1,110.5,225.9,112.3,226.4z"></path>
	<path d="M75.8,226.5c-1.4,0.3-2.9-0.1-4.3-0.1c0.7-0.6,1.6-0.2,2.3-0.3c0.7-0.1,1.5,0,2.2,0
		C76,226.2,75.9,226.3,75.8,226.5z"></path>
	<path d="M70.3,226.3l-0.1,0.1l-0.1,0C70.2,226.1,70.2,226.1,70.3,226.3z"></path>
	<path d="M178.8,150.5c0.9,0,1.8-0.1,2.7,0.2C180.6,150.7,179.7,150.9,178.8,150.5z"></path>
	<path d="M179.7,153.4l-0.1,0.1l-0.1,0C179.6,153.2,179.7,153.2,179.7,153.4z"></path>
	<path d="M177.4,150.4c0.1-0.1,0.1-0.1,0.2,0c0,0.1-0.1,0.1-0.1,0.1C177.5,150.5,177.4,150.5,177.4,150.4z"></path>
	<path d="M58.5,250.3c0.7-0.3,1.5-0.3,2.3-0.2C60,250.5,59.2,250.3,58.5,250.3z"></path>
	<path d="M115,231.9c0.2-0.2,0.3-0.3,0.5,0C115.3,232.1,115.1,232.1,115,231.9z"></path>
	<path d="M71.5,232.1c0.2,0,0.4,0,0.5,0.1C71.9,232.3,71.7,232.4,71.5,232.1z"></path>
	<path d="M151,162.6c-0.1,0.1-0.1,0.3-0.2,0.3c-1.8,0.1-3.6,0.3-5.4-0.1C147.3,162.3,149.1,162.6,151,162.6z"></path>
	<path d="M168,166.9c-0.1,0.3-0.3,0.4-0.5,0.4c-0.3,0-0.6,0-0.8,0c-4.1-0.2-8.2,0.3-12.3,0.2c-0.4,0-0.9,0.2-1.2-0.2
		c0.2-0.1,0.4-0.2,0.5-0.2C158.4,167.1,163.2,166.6,168,166.9z"></path>
	<path d="M60,167.1c-0.1,0.1-0.3,0.2-0.4,0.2c-3.1,0-6.3,0-9.4,0c-0.3,0-0.5-0.1-0.5-0.4c3.3,0,6.5-0.1,9.8-0.1
		C59.6,166.8,59.8,167,60,167.1z"></path>
	<path d="M176.9,166.9c-0.1,0.4-0.4,0.4-0.8,0.4c-2.3,0-4.6,0-6.9,0c-0.3,0-0.6,0-0.8-0.4
		C171.3,166.8,174.1,166.8,176.9,166.9z"></path>
	<path d="M73.9,167.3c-1.7,0.5-3.4,0.1-5.2,0.2c-0.4,0-1.1,0.3-1.3-0.4c1.9,0,3.8,0,5.7,0
		C73.4,167.1,73.7,167,73.9,167.3z"></path>
	<path d="M151.4,163.9c1.7-0.5,3.5-0.1,5.3-0.2c0.4,0,1-0.3,1.2,0.4C155.8,164.1,153.6,164.4,151.4,163.9z"></path>
	<path d="M140.9,163.7c1.6-0.3,3.2-0.6,4.8,0.1C144.1,163.9,142.5,164.1,140.9,163.7z"></path>
	<path d="M151.9,130.4c-0.1,0.3-0.4,0.4-0.7,0.4c-3.1,0-6.2,0-9.3,0c-0.1,0-0.3-0.1-0.4-0.2c0.1-0.1,0.3-0.2,0.4-0.2
		C145.3,130.4,148.6,130.4,151.9,130.4z"></path>
	<path d="M161.6,130.9c-1.8,0.5-3.7,0.3-5.5,0.4c-0.2-0.3-0.3-0.5-0.5-0.8c1.6-0.5,3.3,0.3,4.9,0.1
		C160.8,130.5,161.3,130.4,161.6,130.9z"></path>
	<path d="M122.4,130.9c-0.1,0.3-0.3,0.4-0.7,0.4c-1.3,0-2.7-0.1-4-0.1c0.3-0.5,0.8-0.4,1.3-0.4
		C120.2,130.8,121.3,130.9,122.4,130.9z"></path>
	<path d="M58.6,131.1c-1.5,0.3-3.1,0.6-4.6-0.2C55.5,130.9,57,130.6,58.6,131.1z"></path>
	<path d="M164.4,130.8c-0.4,0.3-0.8,0.2-1.2,0.1C163.6,130.4,164,130.4,164.4,130.8z"></path>
	<path d="M128.9,130.8c-0.3,0.3-0.6,0.3-0.9,0C128.2,130.5,128.6,130.5,128.9,130.8z"></path>
	<path d="M162.2,130.9c-0.1,0-0.2,0-0.2,0c0-0.1,0.1-0.1,0.1-0.2C162.2,130.7,162.2,130.8,162.2,130.9z"></path>
	<path d="M173.8,145.9c1.7-0.1,3.4,0,5.1,0.2C177.2,146.1,175.4,146.4,173.8,145.9z"></path>
	<path d="M177.6,148.8c-0.5,0.2-0.9,0.1-1.4,0.1C176.6,148.5,177.1,148.5,177.6,148.8z"></path>
	<path d="M179.3,148.7c-0.4,0.3-0.8,0.2-1.2,0.1C178.5,148.5,178.9,148.6,179.3,148.7z"></path>
	<path d="M169.4,145.7c0.3-0.1,0.6-0.1,1,0C170.1,146,169.8,146,169.4,145.7z"></path>
	<path d="M102.9,195.5c0.2-0.5,0.6-0.4,1-0.4c19.1,0,38.2,0,57.3,0c0.4,0,0.8-0.1,1,0.4c-0.4,0-0.7,0.1-1.1,0.1
		c-19.1,0-38.1,0-57.2,0C103.7,195.6,103.3,195.5,102.9,195.5z"></path>
	<path d="M62.7,195.6c4.8,0,9.5,0,14.3,0c0.3,0,0.7-0.1,1,0.2c-0.4,0.4-0.8,0.2-1.3,0.2c-3.8,0-7.6,0-11.4,0
		C64.4,196.1,63.5,195.9,62.7,195.6z"></path>
	<path d="M92.6,195.8c0.1-0.1,0.1-0.3,0.2-0.3c1.8-0.1,3.6-0.3,5.3,0.1C96.3,196.1,94.5,195.8,92.6,195.8z"></path>
	<path d="M167.1,195.6c1.7-0.4,3.5-0.1,5.2-0.1c0.1,0,0.2,0.2,0.3,0.3C170.7,195.8,168.9,196.1,167.1,195.6z"></path>
	<path d="M91.2,194.4c-2.2,0.3-4.5,0.4-6.7-0.1C86.7,194.1,89,194,91.2,194.4z"></path>
	<path d="M180.2,194.4c-0.8,0.5-1.6,0.2-2.4,0.2c-1.3,0-2.6,0.3-3.8-0.2C176.1,194,178.2,194.1,180.2,194.4z"></path>
	<path d="M101.8,194.6c-1.6,0.3-3.2,0.6-4.8-0.1C98.5,194.4,100.2,194.2,101.8,194.6z"></path>
	<path d="M168,194.5c-0.1,0.4-0.5,0.4-0.8,0.4c-1.3-0.1-2.6,0.3-3.8-0.2C165,194.2,166.5,194.4,168,194.5z"></path>
	<path d="M59.5,136.5c0.4-0.7,1.1-0.4,1.6-0.4c15.8,0,31.6,0,47.4,0c4.3,0,8.6-0.1,12.8,0c2.2,0.1,4.3,0.3,6.4,0.2
		c0.3,0,0.5,0.1,0.6,0.3c-1.6,0.4-3.2,0.2-4.8,0.1c-0.8,0-1.5-0.1-2.3-0.1C100.8,136.5,80.1,136.5,59.5,136.5z"></path>
	<path d="M165.6,135.4c-2.1,0.3-4.1,0.5-6.2,0.6c1.6,0.7,3.4,0.2,5,0.7c-0.1,0.4-0.5,0.4-0.8,0.4c-1.9,0-3.8,0-5.8,0
		c-0.1-1.3-0.7-1.7-2-1.7c-3.8,0.1-7.5-0.2-11.3,0.1c-4.4,0.3-8.7,0.1-13,0.2c-0.4,0-0.9,0.1-1.3-0.2c0.3-0.4,0.7-0.2,1.1-0.3
		c2.4,0,4.9,0,7.3,0c5,0,10.1-0.3,15.1-0.2c3.7,0.1,7.3,0.4,11,0.2C165.1,135.1,165.4,135.1,165.6,135.4z"></path>
	<path d="M140.6,136.8c0.6-0.4,1.2-0.2,1.8-0.2c1.9,0,3.8,0,5.7,0c0.4,0,0.9-0.2,1.1,0.4c-2.7,0-5.4,0.1-8.1,0.1
		C141,137,140.8,136.9,140.6,136.8z"></path>
	<path d="M169.6,139.9L169.6,139.9h-0.1C169.5,139.8,169.6,139.8,169.6,139.9z"></path>
	<path d="M165.4,140.1c-0.1,0-0.2,0-0.2,0C165.2,140,165.3,139.9,165.4,140.1z"></path>
	<path d="M65.3,168.7c0.1-0.3,0.3-0.4,0.6-0.4c1.9,0,3.8,0,5.7,0c0.1,0,0.3,0.1,0.4,0.2c-0.9,0.5-1.9,0.2-2.8,0.2
		C67.9,168.7,66.6,168.7,65.3,168.7z"></path>
	<path d="M155.3,168.5c0.8-0.5,1.8-0.2,2.6-0.2c0.9-0.1,1.9,0,2.9,0c0.4,0,0.8-0.1,1,0.4
		C159.6,168.7,157.4,168.9,155.3,168.5z"></path>
	<path d="M77.7,168.4c0.1-0.1,0.2-0.3,0.3-0.3c1.5,0,3-0.3,4.5,0.2C81,168.7,79.3,168.4,77.7,168.4z"></path>
	<path d="M144.7,168.3c1.6-0.3,3.2-0.6,4.8,0.2C147.9,168.4,146.3,168.7,144.7,168.3z"></path>
	<path d="M156.2,131.6c1.6,0.2,3.2,0.3,4.8,0.5c-0.1,0.3-0.2,0.5-0.5,0.4c-1.5-0.2-2.9,0.5-4.4,0
		C156.2,132.1,156.2,131.8,156.2,131.6z"></path>
	<path d="M124.3,132c1.8-0.5,3.6-0.2,5.4-0.1c0.1,0,0.1,0.2,0.2,0.3C128,132.1,126.2,132.5,124.3,132z"></path>
	<path d="M46.8,132.2c0.1-0.1,0.1-0.3,0.2-0.3c1.8-0.1,3.6-0.3,5.3,0.1C50.5,132.5,48.6,132.1,46.8,132.2z"></path>
	<path d="M125.1,135.5c-0.1,0.3-0.4,0.4-0.7,0.4c-1.4-0.1-2.8,0.2-4.1-0.2C121.8,135.1,123.5,135.4,125.1,135.5z"></path>
	<path d="M62.4,135.6c-1,0.4-2.1,0.4-3.1,0C60.3,135.3,61.4,135.2,62.4,135.6z"></path>
	<path d="M117.6,131.8c0.6-0.4,1.2-0.5,1.7,0.1C118.7,132,118.1,132.1,117.6,131.8z"></path>
	<path d="M57.3,131.9c0.4-0.6,0.8-0.5,1.2-0.1C58.2,132.1,57.8,132,57.3,131.9z"></path>
	<path d="M168.8,135.3c-0.6,0.3-1.2,0.1-1.8,0.1C167.6,134.9,168.2,135.1,168.8,135.3z"></path>
	<path d="M52.5,262.7c0.2-0.2,0.4-0.2,0.6,0C52.9,262.8,52.7,262.8,52.5,262.7z"></path>
	<path d="M46.8,53.6c0.5,0,1-0.2,1.5,0.1C47.7,53.8,47.2,53.9,46.8,53.6z"></path>
	<path d="M152.9,117.3l-0.1,0l-0.1-0.1C152.7,117.2,152.8,117.2,152.9,117.3z"></path>
</g>
</svg>
