<!--?xml version="1.0" encoding="utf-8"?-->
<!-- Generator: Adobe Illustrator 24.2.3, SVG Export Plug-In . SVG Version: 6.00 Build 0)  -->
<svg version="1.1" id="Camada_1" xmlns="http://www.w3.org/2000/svg" xmlns:xlink="http://www.w3.org/1999/xlink" x="0px" y="0px" viewBox="0 0 229 418" enable-background="new 0 0 229 418" xml:space="preserve">
<path d="M184.31,283.41c0.19-0.06,0.39-0.11,0.58-0.17C184.7,283.3,184.5,283.35,184.31,283.41z"></path>
<g onclick="select(this)" class="" id="gola-primaria" fill="#bf0811">
	<path d="M146.57,21.33c-2.58,2.81-5.59,5.13-8.57,7.48c-4.9,3.24-10.08,5.85-15.87,7.1
		c-0.23,0.05-0.47,0.09-0.71,0.13c-1.87,0.09-3.67,0.63-5.55,0.7c-3.49,0.14-6.9-0.4-10.31-0.92c-5.18-1.04-9.92-3.1-14.32-6.01
		c-0.66-0.44-1.33-0.87-2-1.31c-1.86-1.55-3.9-2.87-5.63-4.57c-0.82-0.81-1.61-1.65-2.41-2.47c-2.13-2.55-3.97-5.28-4.7-8.58
		c-0.41-1.86-0.59-3.73,1.41-4.94c1.79-0.53,3.01-1.9,4.02-3.28c2.43-3.34,5.91-4.12,9.61-4.16c10.84-0.1,21.68-0.03,32.51-0.03
		c3.44,0,6.88,0.05,10.32-0.02c1.9-0.04,3.73,0.33,5.59,0.56c2.84,0.35,4.39,2.39,6.08,4.32c0.97,1.11,1.99,2.18,3.34,2.86
		c1.87,0.96,2.19,1.89,1.63,4.66c-0.57,2.8-1.95,5.28-3.74,7.52C147.03,20.68,146.81,21.01,146.57,21.33z M144.31,9.08
		c-1.63,0.12-3.06,0.22-4.49,0.34c-8.28,0.71-16.57,1.32-24.87,1.54c-6.43,0.17-12.85-0.51-19.26-1.01
		c-3.86-0.3-7.72-0.7-11.57-1.08c-0.85-0.08-1.08,0.11-0.7,0.95c0.49,1.1,0.98,2.19,1.72,3.14c4,5.12,8.82,9.26,14.7,12.04
		c5.31,2.51,10.91,3.94,16.84,3.25c9-1.05,16.4-5.28,22.62-11.71C141.37,14.42,143.16,12.08,144.31,9.08z"></path>
</g>
<g onclick="select(this)" class="" id="estampa-terciaria" fill="#082890">
	<path d="M110.28,286.39c0.05-2.15,0.07-4.3,0.17-6.45c0.1-2.19,0.31-4.38,0.4-6.57c0.2-4.59,0.32-9.18,0.55-13.77
		c0.28-5.46,0.68-10.92,0.72-16.39c0-0.14,0.06-0.28,0.37-0.41c0.34,13.17,0.68,26.33,1.02,39.53c0.67-0.14,0.48-0.62,0.49-0.97
		c0.11-4,0.2-7.99,0.3-11.99c0.21-8.59,0.43-17.18,0.65-25.77c0.01-0.27,0.05-0.55,0.09-0.85c0.55,0.19,0.34,0.62,0.34,0.91
		c0.01,6.39,0.62,12.76,0.8,19.15c0.15,5.19,0.4,10.37,0.73,15.55c0.18,2.71,0.15,5.42,0.34,8.13
		C114.93,286.55,112.6,286.67,110.28,286.39z"></path>
	<path d="M181.76,283.9c-0.25-1.07-0.11-2.15-0.06-3.22c0.27-5.9,0.55-11.81,0.76-17.71
		c0.2-5.62,0.54-11.25,0.73-16.87c0.18-5.51,0.4-11.01,0.73-16.51c0.1-1.62-0.02-3.27,0.35-4.87c0.02,0.09,0.03,0.18,0.05,0.27
		c0.07,1.19,0.2,2.39,0.2,3.58c0.04,7.47,0.08,14.94,0.26,22.41c0.11,4.43-0.04,8.88,0.11,13.31c0.22,6.31,0.13,12.62,0.11,18.93
		l-0.04,0.05l-0.07-0.02c-0.19,0.06-0.39,0.11-0.58,0.17C183.48,283.67,182.63,283.86,181.76,283.9z"></path>
	<path d="M52.46,284.43c-0.23-1.76,0.02-3.5,0.06-5.26c0.14-4.87,0.17-9.75,0.34-14.63
		c0.38-10.66,0.84-21.32,0.97-31.99c0.02-1.51,0.15-3.02,0.35-4.54c0.07,1.52,0.18,3.03,0.22,4.55c0.13,5.15,0.18,10.31,0.36,15.46
		c0.29,8.63,0.65,17.25,0.73,25.88c0.03,3.07,0.25,6.15,0.35,9.22c0.05,1.55,0.02,1.56-1.52,1.5
		C53.7,284.66,53.07,284.64,52.46,284.43z"></path>
	<path d="M48.78,283.96c-0.02-1.48-0.09-2.95-0.04-4.43c0.29-9.07,0.59-18.13,0.77-27.2
		c0.1-5.07,0.33-10.14,0.48-15.21c0.09-3.36,0.2-6.71,0.23-10.07c0-0.18,0.05-0.36,0.1-0.74c0.39,0.49,0.28,0.89,0.29,1.25
		c0.11,5.71,0.15,11.43,0.33,17.14c0.22,7.11,0.35,14.22,0.48,21.33c0.1,5.63,0.3,11.26,0.45,16.89c0.01,0.48-0.06,0.95-0.09,1.43
		C50.75,284.33,49.75,284.23,48.78,283.96z"></path>
	<path d="M170.48,285.08c0.09-3.39,0.18-6.78,0.28-10.17c0.01-0.32,0.08-0.63,0.08-0.95
		c0.11-4.71,0.18-9.42,0.32-14.13c0.22-7.74,0.48-15.48,0.73-23.22c0.07-2.07,0.18-4.14,0.31-6.21c0.1,2.19,0.23,4.37,0.29,6.56
		c0.2,7.23,0.36,14.45,0.56,21.68c0.15,5.27,0.25,10.54,0.52,15.8c0.18,3.47,0.13,6.93,0.23,10.39
		C172.7,284.91,171.59,284.99,170.48,285.08z"></path>
	<path d="M74.69,285.57c0.09-7.83,0.08-15.66,0.3-23.49c0.19-7.07,0.08-14.14,0.21-21.21
		c0.02-0.78,0.11-1.57,0.4-2.35c0.17,3.02,0.32,6.05,0.52,9.07c0.43,6.61,0.89,13.21,1.31,19.82c0.22,3.46,0.39,6.93,0.57,10.4
		c0.14,2.59,0.53,5.16,0.41,7.76C77.17,285.57,75.93,285.57,74.69,285.57z"></path>
	<path d="M149.76,285.64c-0.99,0.17-0.99-0.46-0.95-1.16c0.26-4.14,0.49-8.29,0.76-12.43
		c0.43-6.61,0.89-13.21,1.32-19.82c0.19-2.99,0.34-5.98,0.51-8.97c0.09-1.59,0.2-3.18,0.37-4.77c0.5,1.86,0.31,3.76,0.34,5.63
		c0.07,5.28-0.04,10.56,0.1,15.83c0.18,6.35,0.05,12.71,0.24,19.06c0.07,2.19,0.16,4.38,0.08,6.58
		C151.61,285.61,150.69,285.62,149.76,285.64z"></path>
	<path d="M175.24,284.67c-0.52,0.05-0.86-0.1-0.8-0.72c0.03-0.32,0.01-0.64,0.02-0.96
		c0.18-8.51,0.31-17.03,0.57-25.54c0.2-6.43,0.39-12.86,0.5-19.3c0.03-1.9,0.13-3.82,0.19-5.79c0.62,0.18,0.43,0.61,0.44,0.9
		c0.1,3.76,0.15,7.51,0.26,11.27c0.25,8.91,0.64,17.81,0.77,26.72c0.06,3.95,0.28,7.91,0.41,11.86c0.01,0.44-0.05,0.87-0.07,1.31
		C176.78,284.67,176.01,284.68,175.24,284.67z"></path>
	<path d="M45.3,283.38c-0.32-1.47,0-2.94,0.02-4.41c0.1-7.71,0.16-15.42,0.37-23.13c0.15-5.63,0.14-11.27,0.21-16.9
		c0.06-4.59,0.01-9.18,0.01-13.98c0.71,0.49,0.57,0.96,0.58,1.36c0.12,5.55,0.21,11.1,0.36,16.65c0.2,7.3,0.47,14.61,0.69,21.91
		c0.19,6.03,0.32,12.05,0.55,18.08c0.04,1.06-0.57,0.69-1.06,0.72C46.44,283.7,45.86,283.58,45.3,283.38z"></path>
	<path d="M42.51,243.85c0.29-0.36,0.07-0.85,0.4-1.54c0.12,1.4,0.25,2.51,0.29,3.62c0.19,5.1,0.32,10.2,0.53,15.3
		c0.27,6.81,0.6,13.62,0.89,20.43c0.02,0.51-0.04,1.03-0.06,1.55c-1.35-0.25-2.71-0.47-3.75-1.49c0.06-2.11,0.11-4.23,0.17-6.34
		c0.1-3.67,0.11-7.34,0.31-11.01c0.26-4.53,0.89-9.03,0.89-13.58c0-2.32,0.06-4.62,0.32-6.93L42.51,243.85z"></path>
	<path d="M178.21,284.37c-0.14-2.87,0.13-5.74,0.19-8.61c0.09-4.59,0.3-9.18,0.45-13.77
		c0.24-7.5,0.43-15.01,0.75-22.51c0.1-2.31,0.07-4.63,0.21-7.12c0.23,0.73,0.41,1.26,0.42,1.87c0.08,5.27,0.17,10.55,0.26,15.82
		c0.17,10.23,0.33,20.45,0.5,30.68c0.02,1.08,0.23,2.15,0.1,3.23v-0.03c-0.22,0.06-0.44,0.12-0.67,0.18
		C179.69,284.19,178.95,284.28,178.21,284.37z"></path>
	<path d="M79.03,285.57c-0.15-2.32,0.08-4.63,0.11-6.94c0.14-9.79,0.23-19.57,0.33-29.36c0.02-2.43,0-4.86,0-7.29
		c0.11,0,0.22,0,0.32,0c0.1,1.51,0.23,3.03,0.31,4.54c0.27,5.34,0.51,10.68,0.79,16.02c0.3,5.85,0.61,11.71,0.97,17.56
		c0.12,1.83,0.25,3.66,0.15,5.49C81.03,285.58,80.03,285.58,79.03,285.57z"></path>
	<path d="M141.39,285.82c0.19-4.51,0.36-9.01,0.56-13.52c0.09-1.91,0.25-3.82,0.33-5.74
		c0.27-6.18,0.52-12.37,0.79-18.55c0.06-1.39,0.19-2.78,0.29-4.16c0.11,0,0.22,0,0.33,0c0,1.88-0.03,3.76,0.01,5.64
		c0.18,8.23,0.31,16.46,0.59,24.68c0.13,3.87,0.17,7.74,0.16,11.62C143.43,285.79,142.41,285.8,141.39,285.82z"></path>
	<path d="M82.84,285.6c0.02-3.39,0.04-6.79,0.07-10.18c0.01-0.8,0.1-1.59,0.11-2.39c0.11-4.83,0.18-9.67,0.31-14.5
		c0.13-4.9,0.32-9.81,0.57-14.71c0.1,1.42,0.23,2.84,0.29,4.26c0.19,4.55,0.33,9.1,0.55,13.65c0.35,7.26,0.74,14.51,1.11,21.76
		c0.04,0.71,0.16,1.43-0.02,2.15C84.84,285.62,83.84,285.61,82.84,285.6z"></path>
	<path d="M117.9,286.49c-0.13-2.92,0.01-5.83,0.08-8.74c0.01-0.52,0.07-1.04,0.08-1.55
		c0.12-5.63,0.2-11.27,0.35-16.9c0.12-4.65,0.33-9.29,0.51-14.2c0.42,2.71,0.38,5.19,0.5,7.65c0.33,6.58,0.54,13.17,0.81,19.75
		c0.19,4.62,0.4,9.24,0.61,13.87C119.87,286.59,118.88,286.52,117.9,286.49z"></path>
	<path d="M106.71,286.23c0.05-2.27-0.03-4.55,0.19-6.8c0.22-2.27,0.18-4.54,0.33-6.81c0.31-4.86,0.39-9.73,0.58-14.6
		c0.15-3.91,0.33-7.82,0.51-11.72c0.01-0.26,0.12-0.51,0.18-0.76c0.15,0.01,0.29,0.02,0.44,0.03c0,3.53-0.07,7.07,0.01,10.6
		c0.21,9.46,0.48,18.92,0.72,28.38c0.02,0.6-0.04,1.19-0.06,1.79C108.64,286.3,107.68,286.27,106.71,286.23z"></path>
	<path d="M140.26,285.9c-0.72-0.01-1.45-0.03-2.17-0.04c0.08-3.11,0.14-6.22,0.26-9.33
		c0.09-2.51,0.27-5.02,0.37-7.53c0.28-7.22,0.53-14.44,0.8-21.66c0.01-0.29-0.14-0.64,0.31-0.9c0.02,0.43,0.05,0.81,0.06,1.19
		c0.11,5.71,0.18,11.42,0.33,17.13c0.17,6.54,0.42,13.09,0.63,19.63c0.02,0.48-0.02,0.96-0.03,1.44
		C140.63,285.85,140.44,285.87,140.26,285.9z"></path>
	<path d="M86.52,285.64c-0.18-3.76,0.16-7.5,0.21-11.25c0.08-5.35,0.32-10.7,0.41-16.06
		c0.07-3.94,0.01-7.89,0.01-11.98c0.77,0.3,0.6,0.67,0.61,0.95c0.19,5.31,0.36,10.62,0.56,15.93c0.23,6.07,0.48,12.13,0.73,18.2
		c0.04,1.04,0.08,2.07,0.2,3.1c0.11,0.94-0.29,1.21-1.16,1.11c-0.51-0.06-1.04-0.01-1.56-0.01
		C86.54,285.63,86.52,285.64,86.52,285.64z"></path>
	<path d="M73.29,285.56c-0.01-13.35-0.02-26.69-0.04-40.04c0-0.58,0-1.16,0.12-1.74c0.37,0.34,0.28,0.77,0.29,1.17
		c0.09,5.43,0.11,10.86,0.28,16.29c0.26,8.1,0.41,16.21,0.45,24.32C74.03,285.56,73.66,285.56,73.29,285.56z"></path>
	<path d="M154.1,282.61c0.01,0.99,0.01,1.99,0.02,2.98c-0.4,0-0.79,0-1.19-0.01c-0.08-4.63,0-9.26,0.15-13.89
		c0.08-2.63,0.09-5.27,0.15-7.9c0.13-6.42,0.26-12.85,0.4-19.27c0.01-0.25-0.1-0.55,0.27-0.79c0.23,0.47,0.12,0.94,0.12,1.38
		c0.02,11.94,0.02,23.89,0.04,35.83C154.05,281.5,154.09,282.06,154.1,282.61z"></path>
	<path d="M185.64,283.01c-0.23-2.79-0.11-5.58-0.08-8.37c0.05-4.11-0.14-8.22,0.17-12.33
		c0.03-0.39-0.08-0.81,0.23-1.14c0.22,2.98,0.66,5.94,0.56,8.94c-0.05,1.58,0.39,3.15,0.25,4.74c-0.02,0.21,0.04,0.39,0.28,0.45
		c0,0.22,0,0.44,0,0.66c-0.02,1.67-0.02,3.34-0.08,5.01C186.94,281.9,186.81,282.81,185.64,283.01z"></path>
	<path d="M147.85,241.95c0,3.83-0.03,7.66,0.01,11.49c0.07,8.44,0.17,16.87,0.28,25.31
		c0.02,1.96,0.09,3.92,0.19,5.87c0.04,0.77-0.19,1.04-1,1.05c-2.12,0.02-2.19,0.05-2.09-2.03c0.26-5.3,0.59-10.6,0.88-15.9
		c0.2-3.75,0.37-7.5,0.56-11.25c0.25-4.85,0.52-9.69,0.78-14.54C147.59,241.95,147.72,241.95,147.85,241.95z"></path>
</g>
<g onclick="select(this)" class="" id="estampa-secundaria" fill="#ffffff">
	<path d="M154.1,282.61c0.22-0.46,0.14-0.94,0.14-1.42c0.03-5.76-0.02-11.52,0.11-17.28
		c0.21-9.4,0.07-18.8,0.28-28.19c0.2-8.84,0.11-17.68,0.23-26.51c0.12-8.28,0.16-16.56,0.24-24.83c0.08-8.12,0.16-16.24,0.24-24.35
		c0.08-8.52,0.17-17.04,0.24-25.55c0.08-9.24,0.18-18.48,0.23-27.71c0.03-5.75,0.01-11.51,0.01-17.37c0.81,0.21,0.63,0.67,0.65,1
		c0.08,2.32,0.13,4.64,0.19,6.95c0.28,11.39,0.55,22.78,0.84,34.18c0.31,12.03,0.65,24.06,0.94,36.09c0.08,3.16,0.01,6.31,0.01,9.47
		c0.17,0,0.35,0,0.52,0c0.26-32.43,0.53-64.87,0.79-97.3c0.05,0,0.09,0,0.14,0c0.8,30.12,1.59,60.24,2.39,90.35c0.07,0,0.13,0,0.2,0
		c0.49-30.14,0.98-60.28,1.47-90.42c0.05,0,0.11,0,0.16,0c0.5,32.78,0.99,65.56,1.49,98.34c0.05,0,0.1,0,0.16,0
		c0.81-33.96,1.62-67.92,2.43-101.89c0.08,0,0.16,0,0.24,0c0,0.39,0,0.78,0,1.17c0.1,7.12,0.19,14.24,0.29,21.35
		c0.18,12.68,0.36,25.35,0.54,38.03c0.16,11.04,0.25,22.07,0.47,33.11c0.76,37.95,0.2,75.91,0.37,113.86c0,0.48-0.04,0.96-0.07,1.44
		c-3.32,0.33-6.64,0.52-9.97,0.5c-1.99-0.02-3.97-0.01-5.96-0.01C154.12,284.6,154.11,283.61,154.1,282.61z"></path>
	<path d="M68.24,285.56c-0.27-0.55-0.77-0.27-1.16-0.29c-2.91-0.12-5.82-0.19-8.73-0.31
		c-1.78-0.07-1.78-0.11-1.78-1.85c0-19.64-0.01-39.28,0-58.92c0.01-14.28-0.13-28.56,0.12-42.84c0.21-11.84,0.33-23.67,0.51-35.51
		c0.15-10.48,0.32-20.95,0.48-31.43c0.16-11.36,0.32-22.71,0.47-34.07c0.02-1.88,0-3.75,0-5.63c0.1,0,0.2,0,0.31,0
		c0.76,31.87,1.52,63.74,2.27,95.61c0.15,0,0.3,0,0.46,0c0.43-28.18,0.86-56.35,1.28-84.53c0.12,0,0.23,0,0.35,0
		c0.42,26.02,0.84,52.04,1.26,78.06c0.16,0,0.32,0,0.48,0c0.71-27.4,1.41-54.8,2.12-82.2c0.07,0,0.14,0,0.21,0
		c0.27,31.88,0.54,63.76,0.81,95.64c0.07,0,0.14,0,0.21,0c0.83-31.17,1.67-62.34,2.5-93.52c0.11,0,0.21,0,0.32,0
		c0,3.11-0.01,6.23,0,9.34c0.04,8.12,0.08,16.24,0.14,24.36c0.07,8.48,0.09,16.96,0.26,25.43c0.16,7.88,0.13,15.76,0.21,23.64
		c0.1,9.84,0.17,19.68,0.25,29.51c0.07,8.04,0.06,16.08,0.25,24.11c0.19,7.92,0.03,15.84,0.23,23.75c0.2,7.96,0.08,15.92,0.24,23.87
		c0.11,5.92,0.15,11.84,0.17,17.76C71.07,285.56,69.66,285.56,68.24,285.56z"></path>
	<path d="M121.85,286.36c-0.24-3.39-0.09-6.79-0.07-10.19c0.02-4.6,0.16-9.2,0.2-13.8
		c0.1-11.16,0.16-22.32,0.27-33.48c0.14-14.32,0.32-28.63,0.48-42.95c0.07-6.72,0.15-13.44,0.21-20.16
		c0.09-10.28,0.16-20.56,0.26-30.84c0.13-12.44,0.28-24.88,0.42-37.31c0.01-0.68,0-1.36,0.24-2.04c0.82,29.96,1.64,59.93,2.45,89.89
		c0.08,0,0.15,0,0.23,0c0.28-31.71,0.56-63.42,0.84-95.13c0.04,0,0.09,0,0.13,0c0.78,29.78,1.55,59.56,2.33,89.33
		c0.07,0,0.13,0,0.2,0c0.48-28.99,0.96-57.98,1.45-86.97c0.08,0,0.15,0,0.23,0c0.45,29.94,0.9,59.88,1.35,89.82
		c0.13,0,0.25,0,0.38,0c0.82-31.8,1.64-63.6,2.46-95.4c0.11,0,0.22,0,0.33,0c0,1.95-0.02,3.91,0,5.86
		c0.11,10.88,0.23,21.76,0.36,32.63c0.16,13.68,0.33,27.35,0.5,41.03c0.16,12.4,0.32,24.79,0.49,37.19
		c0.1,7.52,0.42,15.04,0.3,22.55c-0.3,19.36-0.07,38.72-0.14,58.07c0,0.45-0.36,1.06,0.34,1.36c0.72,0.01,1.45,0.03,2.17,0.04
		c-0.07,0.03-0.15,0.08-0.22,0.08C133.97,286.11,127.92,286.44,121.85,286.36z"></path>
	<path d="M89.65,285.77c-0.27-0.49-0.14-1.02-0.14-1.53c-0.02-15.12,0.06-30.24-0.08-45.36
		c-0.07-7.48-0.17-14.96-0.09-22.44c0.14-13.48,0.33-26.95,0.5-40.43c0.15-11.84,0.32-23.67,0.47-35.51
		c0.17-13.08,0.32-26.15,0.49-39.23c0.02-1.34,0.11-2.68,0.17-4.05c0.68,0.13,0.48,0.58,0.49,0.88c0.18,6.64,0.36,13.27,0.51,19.91
		c0.28,11.91,0.55,23.83,0.83,35.74c0.21,8.88,0.45,17.75,0.64,26.63c0.06,2.78,0.01,5.57,0.01,8.35c0.14,0,0.29,0,0.43,0
		c0.48-33.36,0.96-66.72,1.44-100.08c0.05,0,0.11,0,0.16,0c0.5,30.93,1,61.85,1.5,92.78c0.06,0,0.11,0,0.17,0
		c0.77-29.9,1.54-59.79,2.31-89.69c0.06,0,0.12,0,0.18,0c0.26,30.97,0.52,61.94,0.78,92.91c0.11,0,0.22,0.01,0.33,0.01
		c0.86-30.56,1.72-61.12,2.59-91.68c0.08,0,0.16,0,0.24,0c0,0.54,0,1.08,0,1.61c0.12,13.76,0.23,27.52,0.35,41.28
		c0.11,13.08,0.2,26.16,0.33,39.24c0.13,13.12,0.28,26.24,0.43,39.35c0.09,8.44,0.2,16.87,0.29,25.31
		c0.09,8.64,0.16,17.28,0.24,25.92c0.06,6.36,0.14,12.72,0.2,19.08c0,0.47,0.13,0.96-0.13,1.41
		C100.06,286.03,94.85,285.9,89.65,285.77z"></path>
	<path d="M182.96,135.42c-0.41-15.38-0.83-30.76-1.24-46.14c-0.08,0-0.16,0-0.25,0
		c-0.28,28.78-0.57,57.57-0.85,86.35c-0.07,0-0.14,0-0.21,0.01c-0.7-24.84-1.4-49.67-2.11-74.53c-0.64,0.07-0.46,0.48-0.47,0.75
		c-0.07,2.48-0.13,4.96-0.17,7.44c-0.12,7.48-0.23,14.96-0.36,22.43c-0.16,9.8-0.33,19.59-0.5,29.39c-0.03,1.92-0.1,3.84-0.15,5.76
		c-0.01,0.29,0.05,0.61-0.49,0.83c-0.22-11.87-0.46-23.73-0.65-35.6c-0.19-11.9-0.11-23.8-1.07-35.69
		c-0.75,29.21-1.5,58.41-2.26,87.62c-0.05,0-0.1,0-0.15,0c-0.14-9.83-0.28-19.65-0.41-29.48c-0.2-15.2-0.38-30.39-0.58-45.59
		c-0.14-10.4-0.29-20.79-0.48-31.19c-0.26-14.2-0.4-28.39-0.35-42.59c0.01-1.52,0.01-1.55,1.41-1.04c4.4,1.59,8.92,2.75,13.42,3.95
		c0.75,0.2,0.94,0.52,0.93,1.23c-0.19,15.8-0.36,31.59-0.55,47.39c-0.1,8.2-0.21,16.4-0.39,24.59c-0.06,2.5-0.4,5-0.6,7.51
		c-0.05,0.67-0.03,1.34-0.03,2.01C183.93,125.68,183.45,130.55,182.96,135.42z"></path>
	<path d="M44.95,134.52c0.22-0.62,0.15-1.27,0.14-1.9c-0.06-6.92-0.14-13.84-0.19-20.76
		c-0.06-7.52-0.1-15.04-0.12-22.56c0-0.92-0.14-1.82-0.28-2.89c-0.31,10.63-0.61,21.08-0.91,31.54c-0.1,0-0.2-0.01-0.3-0.01
		c-0.36-2.76-0.72-5.51-1.07-8.27c-0.43-3.32-0.87-6.64-1.28-9.96c-0.09-0.71-0.1-1.43-0.1-2.15c-0.12-12.04-0.21-24.07-0.35-36.11
		c-0.08-7.36-0.2-14.71-0.37-22.07c-0.02-1.09,0.33-1.5,1.36-1.76c4.52-1.15,9.07-2.22,13.49-3.71c0.73-0.25,0.96-0.15,0.96,0.68
		c0.04,14.72-0.12,29.43-0.4,44.15c-0.21,10.96-0.26,21.91-0.4,32.87c-0.15,11.2-0.32,22.39-0.48,33.59
		c-0.12,8.44-0.24,16.87-0.37,25.31c-0.02,1.43,0.1,2.86-0.36,4.24c-0.37-0.53-0.39-1.15-0.39-1.79c0.08-9.08-0.35-18.15-0.54-27.22
		c-0.19-9.35-0.47-18.71-0.71-28.06c-0.24-9.19-0.48-18.39-0.72-27.58c-0.01-0.28-0.03-0.55-0.27-0.83
		c-0.44,26.86-0.88,53.72-1.32,80.57c-0.15,0-0.3,0-0.46,0c-0.41-23.4-0.82-46.79-1.24-70.24c-0.7,0.18-0.49,0.62-0.5,0.92
		c-0.19,7.63-0.34,15.27-0.55,22.91c-0.39,14.11-0.81,28.22-1.21,42.33c-0.09,3.12-0.16,6.24-0.25,9.35
		c-0.02,0.59,0.01,1.2-0.38,1.71c-0.04-0.19-0.13-0.39-0.11-0.58c0.53-5.82-0.11-11.64-0.06-17.46
		C45.27,150.7,45.62,142.61,44.95,134.52z"></path>
	<path d="M121.43,36.04c-0.02,7.32,0,14.64-0.07,21.96c-0.13,13.72-0.31,27.43-0.47,41.15
		c-0.16,14.08-0.32,28.15-0.48,42.23c-0.15,13.2-0.26,26.39-0.5,39.59c-0.13,7.44-0.1,14.88-0.22,22.32
		c-0.02,1.34-0.15,2.69-0.3,4.03c-0.79-30.86-1.58-61.71-2.37-92.57c-0.03,0-0.07-0.01-0.1-0.01c-0.08,1.18-0.2,2.36-0.22,3.54
		c-0.13,9.76-0.24,19.52-0.37,29.27c-0.15,11.36-0.09,22.72-0.54,34.07c-0.47,11.9-0.11,23.81-0.61,35.7
		c-0.46-29.46-0.91-58.92-1.37-88.38c-0.17,0-0.35,0-0.52,0c-0.72,29.55-1.45,59.09-2.17,88.64c-0.04,0-0.08,0-0.11,0
		c-0.29-34.43-0.58-68.86-0.87-103.3c-0.05,0-0.1,0-0.16,0c-0.85,31.88-1.7,63.75-2.55,95.63c-0.37-10.64-0.34-21.28-0.43-31.91
		c-0.09-10.2-0.18-20.4-0.27-30.6c-0.07-8.08-0.15-16.16-0.24-24.24c-0.16-15.68-0.33-31.35-0.48-47.03
		c-0.09-8.88-0.15-17.76-0.24-26.64c-0.05-4.56-0.13-9.12-0.2-13.68c3.42,0.52,6.83,1.06,10.31,0.92
		C117.76,36.67,119.56,36.13,121.43,36.04z"></path>
	<path d="M89.25,28.51c-0.02,0.64-0.05,1.28-0.05,1.92c0.14,20.56-0.34,41.11-0.49,61.67
		c-0.09,11.76-0.3,23.51-0.44,35.27c-0.17,14-0.33,27.99-0.51,41.99c-0.12,8.88-0.28,17.75-0.42,26.63c-0.01,0.42,0,0.84-0.18,1.26
		c-0.8-30.21-1.61-60.42-2.41-90.64c-0.78,26.74-0.94,53.49-1.84,80.22c-0.66-23.42-0.82-46.85-1.79-70.26
		c-0.73,25.29-1.47,50.58-2.2,75.86c-0.06,0-0.11,0-0.17,0c-0.27-29.09-0.55-58.17-0.82-87.26c-0.04,0-0.07,0-0.11,0
		c-0.08,1.29-0.2,2.59-0.24,3.88c-0.37,13.15-0.7,26.3-1.1,39.45c-0.25,8.11-0.51,16.23-0.74,24.34c-0.11,4.11-0.49,8.2-0.38,12.32
		c0.01,0.25,0.1,0.56-0.28,0.8c-0.27-0.39-0.17-0.83-0.17-1.23c-0.04-6.36-0.03-12.72-0.1-19.08c-0.14-13.76-0.32-27.51-0.47-41.27
		c-0.09-7.8-0.16-15.6-0.24-23.4c-0.16-14.52-0.32-29.03-0.48-43.55c-0.11-9.96-0.23-19.91-0.38-29.87
		c-0.01-0.94,0.22-1.48,1.1-1.97c2.34-1.3,4.51-2.89,6.89-4.12c0.8,0.82,1.59,1.67,2.41,2.47C85.35,25.64,87.39,26.96,89.25,28.51z"></path>
	<path d="M146.57,21.33c1.86,1.86,4.15,3.1,6.37,4.43c0.77,0.46,1.11,0.92,1.1,1.87
		c-0.13,8.32-0.19,16.64-0.28,24.95c-0.15,13.68-0.32,27.35-0.47,41.03c-0.09,8.52-0.15,17.04-0.25,25.56
		c-0.15,13.68-0.32,27.35-0.48,41.03c-0.09,7.72-0.17,15.44-0.24,23.16c-0.02,1.67,0,3.35,0,5.02c-0.11,0-0.22,0-0.33,0
		c-0.84-28.25-1.68-56.49-2.51-84.6c-0.1-0.15-0.11-0.17-0.12-0.18c0.02,0.04,0.05,0.07,0.05,0.11
		c-0.51,27.64-0.54,55.29-0.88,82.94c-0.12,0-0.24,0-0.37,0.01c-0.68-23.46-1.37-46.91-2.05-70.37c-0.12,0-0.24,0-0.37,0
		c-0.4,22.19-0.8,44.38-1.21,66.57c-0.18,0-0.35,0-0.53,0c-0.39-22.77-0.78-45.53-1.17-68.3c-0.67,0.51-0.75,1.13-0.75,1.78
		c0.04,9.08-0.34,18.15-0.56,27.23c-0.29,11.87-0.62,23.74-0.94,35.62c-0.16,5.94-0.34,11.89-0.51,17.83c-0.1,0-0.21,0-0.31,0
		c0-1.87,0.02-3.75,0-5.62c-0.11-11.24-0.22-22.48-0.35-33.71c-0.16-13.72-0.34-27.43-0.51-41.15c-0.16-12.6-0.27-25.19-0.47-37.79
		c-0.26-16.32-0.44-32.63-0.37-48.95c0-0.32-0.03-0.64-0.05-0.96C140.98,26.45,143.99,24.14,146.57,21.33z"></path>
	<path d="M188.41,71.54c1.07,7.39,1.07,20.35,0,22.71C188.41,86.59,188.41,79.07,188.41,71.54z"></path>
	<path d="M38.28,74.63c0,4.91,0,9.72,0,14.71c-0.5-1.01-0.79-1.88-0.77-2.86c0.08-3.55,0.13-7.1,0.19-10.66
		C37.7,75.41,37.6,74.94,38.28,74.63z"></path>
</g>
<polygon fill="#84E349" points="159.75,78.7 159.7,78.7 159.72,78.79 "></polygon>
<g onclick="select(this)" class="" id="estampa-primaria" fill="#bf0811">
	<path d="M181.76,283.9c-0.22,0.02-0.44,0.03-0.67,0.05c0.13-1.08-0.08-2.15-0.1-3.23
		c-0.17-10.23-0.33-20.45-0.5-30.68c-0.09-5.27-0.19-10.55-0.26-15.82c-0.01-0.6-0.19-1.14-0.42-1.87
		c-0.14,2.49-0.11,4.81-0.21,7.12c-0.32,7.5-0.51,15.01-0.75,22.51c-0.15,4.59-0.35,9.18-0.45,13.77c-0.06,2.87-0.33,5.74-0.19,8.61
		c-0.23,0.02-0.46,0.04-0.69,0.06c0.03-0.44,0.09-0.87,0.07-1.31c-0.13-3.95-0.36-7.91-0.41-11.86c-0.13-8.91-0.52-17.81-0.77-26.72
		c-0.11-3.76-0.16-7.51-0.26-11.27c-0.01-0.3,0.19-0.73-0.44-0.9c-0.06,1.97-0.15,3.88-0.19,5.79c-0.11,6.43-0.29,12.87-0.5,19.3
		c-0.27,8.51-0.39,17.02-0.57,25.54c-0.01,0.32,0.01,0.64-0.02,0.96c-0.06,0.62,0.28,0.76,0.8,0.72c-0.46,0.19-0.94,0.19-1.43,0.16
		c-0.1-3.46-0.05-6.93-0.23-10.39c-0.27-5.26-0.38-10.53-0.52-15.8c-0.2-7.23-0.36-14.45-0.56-21.68c-0.06-2.19-0.19-4.37-0.29-6.56
		c-0.13,2.07-0.25,4.14-0.31,6.21c-0.25,7.74-0.51,15.48-0.73,23.22c-0.14,4.71-0.21,9.42-0.32,14.13
		c-0.01,0.32-0.08,0.63-0.08,0.95c-0.1,3.39-0.19,6.78-0.28,10.17c-0.14,0.01-0.29,0.02-0.43,0.03c0.02-0.48,0.07-0.96,0.07-1.44
		c-0.17-37.95,0.39-75.91-0.37-113.86c-0.22-11.03-0.31-22.07-0.47-33.11c-0.18-12.68-0.36-25.35-0.54-38.03
		c-0.1-7.12-0.19-14.24-0.29-21.35c-0.01-0.39,0-0.78,0-1.17c-0.08,0-0.16,0-0.24,0c-0.81,33.96-1.62,67.92-2.43,101.89
		c-0.05,0-0.1,0-0.16,0c-0.5-32.78-0.99-65.56-1.49-98.34c-0.05,0-0.11,0-0.16,0c-0.49,30.14-0.98,60.28-1.47,90.42
		c-0.07,0-0.13,0-0.2,0c-0.8-30.12-1.59-60.24-2.39-90.35c-0.05,0-0.09,0-0.14,0c-0.26,32.43-0.53,64.87-0.79,97.3
		c-0.17,0-0.35,0-0.52,0c0-3.16,0.06-6.32-0.01-9.47c-0.29-12.03-0.64-24.06-0.94-36.09c-0.29-11.39-0.56-22.78-0.84-34.18
		c-0.06-2.32-0.12-4.64-0.19-6.95c-0.01-0.33,0.16-0.79-0.65-1c0,5.86,0.03,11.62-0.01,17.37c-0.06,9.24-0.15,18.48-0.23,27.71
		c-0.08,8.52-0.16,17.04-0.24,25.55c-0.08,8.12-0.16,16.24-0.24,24.35c-0.08,8.28-0.13,16.56-0.24,24.83
		c-0.12,8.84-0.03,17.68-0.23,26.51c-0.21,9.4-0.07,18.8-0.28,28.19c-0.13,5.76-0.07,11.52-0.11,17.28c0,0.47,0.08,0.96-0.14,1.42
		c-0.02-0.56-0.05-1.12-0.05-1.68c-0.01-11.94-0.02-23.89-0.04-35.83c0-0.44,0.11-0.91-0.12-1.38c-0.37,0.24-0.27,0.54-0.27,0.79
		c-0.14,6.42-0.27,12.85-0.4,19.27c-0.05,2.63-0.07,5.27-0.15,7.9c-0.14,4.63-0.23,9.26-0.15,13.89c-0.13,0-0.27,0-0.4,0
		c0.08-2.19-0.02-4.39-0.08-6.58c-0.19-6.35-0.06-12.7-0.24-19.06c-0.15-5.27-0.04-10.55-0.1-15.83c-0.02-1.88,0.16-3.78-0.34-5.63
		c-0.17,1.59-0.28,3.18-0.37,4.77c-0.17,2.99-0.32,5.98-0.51,8.97c-0.43,6.61-0.89,13.21-1.32,19.82c-0.27,4.14-0.5,8.28-0.76,12.43
		c-0.04,0.7-0.05,1.32,0.95,1.16c-1.77,0.2-3.54,0.16-5.31,0.14c0.01-3.87-0.03-7.74-0.16-11.62c-0.28-8.22-0.41-16.45-0.59-24.68
		c-0.04-1.88-0.01-3.76-0.01-5.64c-0.11,0-0.22,0-0.33,0c-0.1,1.39-0.23,2.78-0.29,4.16c-0.27,6.18-0.52,12.37-0.79,18.55
		c-0.08,1.91-0.25,3.82-0.33,5.74c-0.2,4.51-0.38,9.01-0.56,13.52c-0.19,0-0.39,0-0.58,0c0.01-0.48,0.04-0.96,0.03-1.44
		c-0.21-6.54-0.46-13.09-0.63-19.63c-0.15-5.71-0.22-11.42-0.33-17.13c-0.01-0.38-0.04-0.75-0.06-1.19c-0.45,0.26-0.3,0.61-0.31,0.9
		c-0.27,7.22-0.53,14.44-0.8,21.66c-0.1,2.51-0.27,5.02-0.37,7.53c-0.11,3.11-0.17,6.22-0.26,9.33c-0.69-0.3-0.34-0.91-0.34-1.36
		c0.08-19.36-0.16-38.72,0.14-58.07c0.12-7.51-0.2-15.03-0.3-22.55c-0.17-12.4-0.33-24.79-0.49-37.19
		c-0.17-13.68-0.34-27.35-0.5-41.03c-0.13-10.88-0.25-21.76-0.36-32.63c-0.02-1.95,0-3.91,0-5.86c-0.11,0-0.22,0-0.33,0
		c-0.82,31.8-1.64,63.6-2.46,95.4c-0.13,0-0.25,0-0.38,0c-0.45-29.94-0.9-59.88-1.35-89.82c-0.08,0-0.15,0-0.23,0
		c-0.48,28.99-0.96,57.98-1.45,86.97c-0.07,0-0.13,0-0.2,0c-0.78-29.78-1.55-59.56-2.33-89.33c-0.04,0-0.09,0-0.13,0
		c-0.28,31.71-0.56,63.42-0.84,95.13c-0.08,0-0.15,0-0.23,0c-0.82-29.96-1.64-59.93-2.45-89.89c-0.24,0.68-0.23,1.36-0.24,2.04
		c-0.14,12.44-0.29,24.87-0.42,37.31c-0.1,10.28-0.17,20.56-0.26,30.84c-0.06,6.72-0.14,13.44-0.21,20.16
		c-0.16,14.32-0.34,28.63-0.48,42.95c-0.11,11.16-0.16,22.32-0.27,33.48c-0.04,4.6-0.18,9.2-0.2,13.8
		c-0.02,3.39-0.17,6.79,0.07,10.19c-0.34,0-0.67,0-1.01,0.01c-0.2-4.62-0.41-9.24-0.61-13.87c-0.27-6.58-0.48-13.17-0.81-19.75
		c-0.12-2.46-0.08-4.94-0.5-7.65c-0.18,4.91-0.38,9.55-0.51,14.2c-0.15,5.63-0.23,11.27-0.35,16.9c-0.01,0.52-0.07,1.04-0.08,1.55
		c-0.08,2.91-0.21,5.83-0.08,8.74c-0.21,0-0.43,0-0.64,0.01c-0.19-2.71-0.16-5.42-0.34-8.13c-0.33-5.18-0.58-10.36-0.73-15.55
		c-0.18-6.39-0.79-12.76-0.8-19.15c0-0.3,0.21-0.73-0.34-0.91c-0.03,0.3-0.08,0.58-0.09,0.85c-0.22,8.59-0.43,17.18-0.65,25.77
		c-0.1,4-0.19,7.99-0.3,11.99c-0.01,0.34,0.17,0.82-0.49,0.97c-0.34-13.2-0.68-26.37-1.02-39.53c-0.31,0.13-0.37,0.27-0.37,0.41
		c-0.04,5.47-0.44,10.93-0.72,16.39c-0.23,4.59-0.35,9.18-0.55,13.77c-0.1,2.19-0.3,4.38-0.4,6.57c-0.1,2.15-0.12,4.3-0.17,6.45
		c-0.22-0.02-0.45-0.03-0.67-0.05c0.02-0.6,0.07-1.19,0.06-1.79c-0.24-9.46-0.51-18.92-0.72-28.38c-0.08-3.53-0.01-7.07-0.01-10.6
		c-0.15-0.01-0.29-0.02-0.44-0.03c-0.06,0.25-0.16,0.51-0.18,0.76c-0.18,3.91-0.36,7.82-0.51,11.72c-0.19,4.87-0.27,9.74-0.58,14.6
		c-0.15,2.27-0.11,4.54-0.33,6.81c-0.22,2.25-0.14,4.53-0.19,6.8c-0.48-0.02-0.96-0.04-1.44-0.07c0.26-0.45,0.14-0.94,0.13-1.41
		c-0.06-6.36-0.14-12.72-0.2-19.08c-0.09-8.64-0.16-17.28-0.24-25.92c-0.09-8.44-0.19-16.87-0.29-25.31
		c-0.15-13.12-0.3-26.23-0.43-39.35c-0.13-13.08-0.22-26.16-0.33-39.24c-0.11-13.76-0.23-27.52-0.35-41.28c0-0.54,0-1.08,0-1.61
		c-0.08,0-0.16,0-0.24,0c-0.86,30.56-1.72,61.12-2.59,91.68c-0.11,0-0.22-0.01-0.33-0.01c-0.26-30.97-0.52-61.94-0.78-92.91
		c-0.06,0-0.12,0-0.18,0c-0.77,29.9-1.54,59.79-2.31,89.69c-0.06,0-0.11,0-0.17,0c-0.5-30.93-1-61.85-1.5-92.78
		c-0.05,0-0.11,0-0.16,0c-0.48,33.36-0.96,66.72-1.44,100.08c-0.14,0-0.29,0-0.43,0c0-2.78,0.05-5.57-0.01-8.35
		c-0.19-8.88-0.43-17.75-0.64-26.63c-0.28-11.91-0.54-23.83-0.83-35.74c-0.16-6.64-0.33-13.27-0.51-19.91
		c-0.01-0.3,0.2-0.75-0.49-0.88c-0.06,1.37-0.15,2.71-0.17,4.05c-0.17,13.08-0.32,26.15-0.49,39.23
		c-0.15,11.84-0.32,23.67-0.47,35.51c-0.17,13.48-0.36,26.95-0.5,40.43c-0.08,7.48,0.03,14.96,0.09,22.44
		c0.14,15.12,0.06,30.24,0.08,45.36c0,0.51-0.13,1.04,0.14,1.53c-1.04-0.02-2.08,0.1-3.11-0.13c0.52,0,1.05-0.05,1.56,0.01
		c0.87,0.1,1.27-0.17,1.16-1.11c-0.12-1.03-0.16-2.07-0.2-3.1c-0.25-6.07-0.5-12.13-0.73-18.2c-0.2-5.31-0.37-10.62-0.56-15.93
		c-0.01-0.28,0.15-0.65-0.61-0.95c0,4.09,0.06,8.04-0.01,11.98c-0.09,5.35-0.33,10.7-0.41,16.06c-0.06,3.75-0.4,7.5-0.21,11.25
		c-0.23,0-0.45-0.01-0.68-0.01c0.18-0.71,0.06-1.43,0.02-2.15c-0.37-7.25-0.76-14.51-1.11-21.76c-0.22-4.55-0.35-9.1-0.55-13.65
		c-0.06-1.42-0.19-2.84-0.29-4.26c-0.25,4.91-0.44,9.81-0.57,14.71c-0.13,4.83-0.2,9.67-0.31,14.5c-0.02,0.8-0.11,1.59-0.11,2.39
		c-0.03,3.39-0.05,6.79-0.07,10.18c-0.27,0-0.54-0.01-0.82-0.01c0.1-1.84-0.04-3.66-0.15-5.49c-0.37-5.85-0.67-11.71-0.97-17.56
		c-0.28-5.34-0.52-10.68-0.79-16.02c-0.08-1.51-0.2-3.03-0.31-4.54c-0.11,0-0.22,0-0.32,0c0,2.43,0.02,4.86,0,7.29
		c-0.1,9.79-0.19,19.57-0.33,29.36c-0.03,2.31-0.26,4.62-0.11,6.94c-0.21,0-0.41,0-0.62,0c0.11-2.6-0.27-5.17-0.41-7.76
		c-0.19-3.47-0.35-6.93-0.57-10.4c-0.42-6.61-0.89-13.21-1.31-19.82c-0.2-3.02-0.35-6.05-0.52-9.07c-0.29,0.78-0.38,1.57-0.4,2.35
		c-0.14,7.07-0.02,14.14-0.21,21.21c-0.22,7.83-0.21,15.66-0.3,23.49c-0.1,0-0.19,0-0.29,0c-0.04-8.11-0.19-16.21-0.45-24.32
		c-0.17-5.43-0.19-10.86-0.28-16.29c-0.01-0.4,0.09-0.83-0.29-1.17c-0.12,0.59-0.12,1.17-0.12,1.74
		c0.01,13.35,0.02,26.69,0.04,40.04c-0.27,0-0.54,0-0.8,0c-0.02-5.92-0.05-11.84-0.17-17.76c-0.15-7.96-0.03-15.92-0.24-23.87
		c-0.2-7.92-0.05-15.84-0.23-23.75c-0.19-8.04-0.18-16.08-0.25-24.11c-0.09-9.84-0.16-19.68-0.25-29.51
		c-0.08-7.88-0.05-15.76-0.21-23.64c-0.17-8.48-0.2-16.96-0.26-25.43c-0.06-8.12-0.1-16.24-0.14-24.36c-0.02-3.11,0-6.23,0-9.34
		c-0.11,0-0.21,0-0.32,0c-0.83,31.17-1.67,62.34-2.5,93.52c-0.07,0-0.14,0-0.21,0c-0.27-31.88-0.54-63.76-0.81-95.64
		c-0.07,0-0.14,0-0.21,0c-0.71,27.4-1.41,54.8-2.12,82.2c-0.16,0-0.32,0-0.48,0c-0.42-26.02-0.84-52.04-1.26-78.06
		c-0.12,0-0.23,0-0.35,0c-0.43,28.18-0.86,56.35-1.28,84.53c-0.15,0-0.3,0-0.46,0c-0.76-31.87-1.52-63.74-2.27-95.61
		c-0.1,0-0.2,0-0.31,0c0,1.88,0.02,3.75,0,5.63c-0.15,11.36-0.31,22.71-0.47,34.07c-0.15,10.48-0.32,20.95-0.48,31.43
		c-0.17,11.84-0.3,23.67-0.51,35.51c-0.25,14.28-0.11,28.56-0.12,42.84c-0.01,19.64,0,39.28,0,58.92c0,1.74,0.01,1.78,1.78,1.85
		c2.91,0.12,5.82,0.18,8.73,0.31c0.38,0.02,0.89-0.26,1.16,0.29c-4.01-0.23-8.01-0.46-12.02-0.7c-0.63-0.04-1.26-0.15-1.9-0.22
		c1.54,0.06,1.57,0.06,1.52-1.5c-0.1-3.07-0.32-6.15-0.35-9.22c-0.08-8.63-0.44-17.26-0.73-25.88c-0.17-5.15-0.23-10.31-0.36-15.46
		c-0.04-1.52-0.14-3.04-0.22-4.55c-0.2,1.52-0.33,3.03-0.35,4.54c-0.13,10.67-0.59,21.33-0.97,31.99
		c-0.17,4.87-0.21,9.75-0.34,14.63c-0.05,1.75-0.29,3.5-0.06,5.26c-0.24-0.02-0.47-0.04-0.71-0.06c0.03-0.48,0.1-0.95,0.09-1.43
		c-0.14-5.63-0.34-11.26-0.45-16.89c-0.13-7.11-0.25-14.22-0.48-21.33c-0.18-5.71-0.22-11.43-0.33-17.14
		c-0.01-0.36,0.1-0.76-0.29-1.25c-0.05,0.37-0.1,0.55-0.1,0.74c-0.03,3.36-0.13,6.71-0.23,10.07c-0.14,5.07-0.37,10.14-0.48,15.21
		c-0.18,9.07-0.48,18.13-0.77,27.2c-0.05,1.47,0.03,2.95,0.04,4.43c-0.59-0.01-1.18-0.03-1.74-0.27c0.49-0.04,1.1,0.33,1.06-0.72
		c-0.23-6.02-0.36-12.05-0.55-18.08c-0.22-7.3-0.49-14.61-0.69-21.91c-0.15-5.55-0.24-11.1-0.36-16.65
		c-0.01-0.4,0.14-0.87-0.58-1.36c0,4.79,0.04,9.39-0.01,13.98c-0.07,5.63-0.05,11.26-0.21,16.9c-0.21,7.71-0.27,15.42-0.37,23.13
		c-0.02,1.47-0.34,2.94-0.02,4.41c-0.25-0.06-0.49-0.11-0.74-0.17c0.02-0.52,0.08-1.03,0.06-1.55c-0.29-6.81-0.62-13.62-0.89-20.43
		c-0.21-5.1-0.34-10.2-0.53-15.3c-0.04-1.11-0.18-2.22-0.29-3.62c-0.34,0.69-0.11,1.18-0.4,1.54c0.51-2.7,0.26-5.4,0-8.1
		c-0.11-1.1-0.19-2.29,0.08-3.34c1.02-3.94,0.51-7.87,0.04-11.78c-0.87-7.29-0.02-14.33,2.66-21.16c0.21-0.54,0.3-1.07,0.22-1.64
		c-0.26-1.88-0.16-3.74,0.18-5.6c0.07-0.39,0.12-0.8,0.09-1.19c-0.36-4.74-0.11-9.49-0.4-14.22c0.39-0.51,0.36-1.12,0.38-1.71
		c0.09-3.12,0.16-6.24,0.25-9.35c0.4-14.11,0.82-28.22,1.21-42.33c0.21-7.63,0.36-15.27,0.55-22.91c0.01-0.3-0.2-0.74,0.5-0.92
		c0.41,23.45,0.82,46.85,1.24,70.24c0.15,0,0.3,0,0.46,0c0.44-26.86,0.88-53.72,1.32-80.57c0.24,0.28,0.27,0.56,0.27,0.83
		c0.24,9.19,0.48,18.39,0.72,27.58c0.24,9.35,0.52,18.7,0.71,28.06c0.18,9.07,0.62,18.14,0.54,27.22c-0.01,0.63,0.02,1.26,0.39,1.79
		c0.46-1.38,0.34-2.82,0.36-4.24c0.12-8.44,0.25-16.87,0.37-25.31c0.16-11.2,0.34-22.39,0.48-33.59c0.14-10.96,0.19-21.92,0.4-32.87
		c0.28-14.71,0.44-29.43,0.4-44.15c0-0.83-0.23-0.93-0.96-0.68c-4.43,1.49-8.97,2.56-13.49,3.71c-1.03,0.26-1.39,0.66-1.36,1.76
		c0.17,7.36,0.28,14.71,0.37,22.07c0.14,12.04,0.23,24.07,0.35,36.11c0.01,0.72,0.02,1.44,0.1,2.15c0.41,3.32,0.85,6.64,1.28,9.96
		c0.36,2.76,0.72,5.51,1.07,8.27c0.1,0,0.2,0.01,0.3,0.01c0.3-10.46,0.6-20.92,0.91-31.54c0.13,1.07,0.27,1.97,0.28,2.89
		c0.03,7.52,0.07,15.04,0.12,22.56c0.05,6.92,0.13,13.84,0.19,20.76c0.01,0.64,0.08,1.28-0.14,1.9c-0.5-4.4-0.99-8.8-1.5-13.2
		c-0.04-0.37,0.12-1-0.69-0.65c-3.03,1.29-6.28,1.55-9.5,1.68c-9.78,0.38-19.47-0.26-28.96-2.84c-1.42-0.39-2.86-0.73-4.07-1.66
		c0-0.8,0-1.6,0-2.4c0.41-1.6,0.63-3.24,0.94-4.87c0.63-3.25,1.23-6.51,1.68-9.79C4.3,90.39,5.66,79.93,7.23,69.5
		c1.15-7.63,3.41-14.94,7.18-21.75c3.38-6.12,8.45-10.68,13.6-15.18c0.47-0.41,1.01-0.75,1.57-1.02c6.5-3.12,13.13-5.94,19.8-8.69
		c8-3.31,15.84-6.97,23.27-11.46c0.49-0.29,0.88-0.65,1.24-1.09c1.05-1.26,2.3-2.21,4.03-2.3c-2,1.21-1.82,3.08-1.41,4.94
		c0.73,3.31,2.57,6.03,4.7,8.58c-2.38,1.23-4.55,2.82-6.89,4.12c-0.87,0.49-1.11,1.03-1.1,1.97c0.15,9.96,0.27,19.91,0.38,29.87
		c0.17,14.52,0.33,29.03,0.48,43.55c0.08,7.8,0.15,15.6,0.24,23.4c0.15,13.76,0.33,27.51,0.47,41.27c0.06,6.36,0.06,12.72,0.1,19.08
		c0,0.4-0.1,0.83,0.17,1.23c0.38-0.24,0.29-0.55,0.28-0.8c-0.11-4.12,0.27-8.21,0.38-12.32c0.23-8.11,0.49-16.23,0.74-24.34
		c0.41-13.15,0.73-26.3,1.1-39.45c0.04-1.3,0.16-2.59,0.24-3.88c0.04,0,0.07,0,0.11,0c0.27,29.09,0.55,58.17,0.82,87.26
		c0.06,0,0.11,0,0.17,0c0.73-25.29,1.47-50.58,2.2-75.86c0.96,23.42,1.13,46.84,1.79,70.26c0.9-26.73,1.06-53.48,1.84-80.22
		c0.8,30.21,1.61,60.42,2.41,90.64c0.17-0.42,0.17-0.84,0.18-1.26c0.14-8.88,0.3-17.75,0.42-26.63c0.18-14,0.34-27.99,0.51-41.99
		c0.15-11.76,0.36-23.51,0.44-35.27c0.15-20.56,0.62-41.11,0.49-61.67c0-0.64,0.03-1.28,0.05-1.92c0.67,0.44,1.33,0.87,2,1.31
		c4.39,2.91,9.14,4.97,14.32,6.01c0.07,4.56,0.16,9.12,0.2,13.68c0.09,8.88,0.15,17.76,0.24,26.64c0.16,15.68,0.32,31.35,0.48,47.03
		c0.08,8.08,0.16,16.16,0.24,24.24c0.09,10.2,0.18,20.4,0.27,30.6c0.09,10.64,0.06,21.28,0.43,31.91
		c0.85-31.88,1.7-63.75,2.55-95.63c0.05,0,0.1,0,0.16,0c0.29,34.43,0.58,68.86,0.87,103.3c0.04,0,0.08,0,0.11,0
		c0.72-29.55,1.45-59.09,2.17-88.64c0.17,0,0.35,0,0.52,0c0.46,29.46,0.91,58.92,1.37,88.38c0.49-11.9,0.14-23.8,0.61-35.7
		c0.45-11.35,0.39-22.71,0.54-34.07c0.13-9.76,0.24-19.52,0.37-29.27c0.02-1.18,0.14-2.36,0.22-3.54c0.03,0,0.07,0.01,0.1,0.01
		c0.79,30.86,1.58,61.71,2.37,92.57c0.15-1.34,0.27-2.68,0.3-4.03c0.12-7.44,0.09-14.88,0.22-22.32c0.24-13.2,0.35-26.39,0.5-39.59
		c0.16-14.08,0.32-28.15,0.48-42.23c0.16-13.72,0.34-27.43,0.47-41.15c0.07-7.32,0.05-14.64,0.07-21.96
		c0.24-0.04,0.47-0.08,0.71-0.13c5.79-1.26,10.97-3.86,15.87-7.1c0.02,0.32,0.05,0.64,0.05,0.96c-0.06,16.32,0.11,32.63,0.37,48.95
		c0.2,12.6,0.32,25.19,0.47,37.79c0.17,13.72,0.35,27.43,0.51,41.15c0.13,11.24,0.24,22.48,0.35,33.71c0.02,1.87,0,3.75,0,5.62
		c0.1,0,0.21,0,0.31,0c0.17-5.94,0.35-11.89,0.51-17.83c0.32-11.87,0.65-23.74,0.94-35.62c0.22-9.08,0.59-18.15,0.56-27.23
		c0-0.65,0.09-1.27,0.75-1.78c0.39,22.77,0.78,45.53,1.17,68.3c0.18,0,0.35,0,0.53,0c0.4-22.19,0.8-44.38,1.21-66.57
		c0.12,0,0.24,0,0.37,0c0.68,23.46,1.37,46.91,2.05,70.37c0.12,0,0.24,0,0.37-0.01c0.34-27.65,0.37-55.29,0.88-82.94
		c0-0.03-0.04-0.07-0.05-0.11c0.01,0.02,0.02,0.03,0.12,0.18c0.84,28.11,1.67,56.36,2.51,84.6c0.11,0,0.22,0,0.33,0
		c0-1.67-0.01-3.35,0-5.02c0.08-7.72,0.15-15.44,0.24-23.16c0.16-13.68,0.33-27.35,0.48-41.03c0.09-8.52,0.15-17.04,0.25-25.56
		c0.15-13.68,0.32-27.35,0.47-41.03c0.09-8.32,0.15-16.64,0.28-24.95c0.01-0.95-0.33-1.41-1.1-1.87c-2.22-1.33-4.51-2.57-6.37-4.43
		c0.24-0.32,0.46-0.65,0.71-0.96c1.79-2.24,3.16-4.72,3.74-7.52c0.57-2.77,0.24-3.7-1.63-4.66c1.46-0.14,2.5,0.7,3.48,1.58
		c0.47,0.42,0.76,1.1,1.28,1.41c3.15,1.87,6.19,3.93,9.51,5.51c11.09,5.28,22.65,9.51,33.77,14.71c0.84,0.39,1.63,0.8,2.32,1.41
		c0.96,0.85,1.93,1.68,2.94,2.46c2.82,2.2,5.34,4.7,7.56,7.5c5.16,6.55,7.99,14.13,9.85,22.15c1.13,4.88,1.33,9.91,2.41,14.79
		c1.42,6.44,2.99,12.85,3.9,19.39c0.51,3.67,1.05,7.34,1.77,10.97c0.16,0.8-0.15,1.87,0.78,2.47c0,1.2,0,2.4,0,3.6
		c-6.03,2.45-12.3,3.94-18.73,4.89c-7.41,1.1-14.82,1.19-22.24,0.21c-1.03-0.14-2.08-0.29-2.98-0.85c-0.59-0.37-0.55,0.04-0.61,0.4
		c0.01-0.67-0.02-1.34,0.03-2.01c0.19-2.5,0.54-5,0.6-7.51c0.19-8.2,0.29-16.39,0.39-24.59c0.19-15.8,0.36-31.59,0.55-47.39
		c0.01-0.71-0.17-1.03-0.93-1.23c-4.51-1.2-9.03-2.37-13.42-3.95c-1.4-0.5-1.4-0.48-1.41,1.04c-0.05,14.2,0.09,28.4,0.35,42.59
		c0.19,10.4,0.34,20.79,0.48,31.19c0.21,15.2,0.38,30.39,0.58,45.59c0.13,9.83,0.27,19.65,0.41,29.48c0.05,0,0.1,0,0.15,0
		c0.75-29.21,1.5-58.41,2.26-87.62c0.96,11.89,0.88,23.79,1.07,35.69c0.19,11.87,0.43,23.73,0.65,35.6
		c0.54-0.21,0.48-0.53,0.49-0.83c0.05-1.92,0.11-3.84,0.15-5.76c0.17-9.8,0.34-19.59,0.5-29.39c0.12-7.48,0.23-14.96,0.36-22.43
		c0.04-2.48,0.1-4.96,0.17-7.44c0.01-0.26-0.17-0.67,0.47-0.75c0.7,24.86,1.4,49.7,2.11,74.53c0.07,0,0.14,0,0.21-0.01
		c0.28-28.78,0.57-57.57,0.85-86.35c0.08,0,0.16,0,0.25,0c0.41,15.38,0.83,30.76,1.24,46.14c-0.36,5.38-0.76,10.79-0.28,16.16
		c0.31,3.45,0.09,6.83,0.06,10.25c-0.05,6.75-0.65,13.49-0.13,20.24c0.12,1.55,0.03,3.11-0.14,4.67c-0.34,3.06,0.22,6.04,0.89,9.01
		c1.62,7.2,1.43,14.45,0.34,21.68c-0.37,2.5-0.35,4.9,0.55,7.27c-0.37,1.6-0.25,3.25-0.35,4.87c-0.33,5.5-0.55,11.01-0.73,16.51
		c-0.19,5.63-0.52,11.25-0.73,16.87c-0.21,5.91-0.48,11.81-0.76,17.71C181.65,281.74,181.51,282.83,181.76,283.9z M147.85,241.95
		c-0.13,0-0.26,0-0.39,0c-0.26,4.85-0.53,9.69-0.78,14.54c-0.2,3.75-0.36,7.5-0.56,11.25c-0.29,5.3-0.62,10.6-0.88,15.9
		c-0.1,2.09-0.03,2.05,2.09,2.03c0.81-0.01,1.03-0.28,1-1.05c-0.1-1.96-0.17-3.91-0.19-5.87c-0.11-8.44-0.2-16.87-0.28-25.31
		C147.82,249.61,147.85,245.78,147.85,241.95z M188.41,71.54c0,7.52,0,15.05,0,22.71C189.48,91.89,189.49,78.94,188.41,71.54z
		 M38.28,74.63c-0.68,0.31-0.57,0.78-0.58,1.2c-0.06,3.55-0.12,7.1-0.19,10.66c-0.02,0.98,0.28,1.85,0.77,2.86
		C38.28,84.35,38.28,79.54,38.28,74.63z M159.75,78.7l-0.02,0.09l-0.02-0.09H159.75z"></path>
	<path d="M185,283.21c0.02-6.31,0.11-12.62-0.11-18.93c-0.15-4.43-0.01-8.87-0.11-13.31
		c-0.18-7.47-0.22-14.94-0.26-22.41c-0.01-1.19-0.13-2.39-0.2-3.58c1.31,4.44,1.5,8.97,0.9,13.53c-0.34,2.63-0.54,5.21,0.07,7.84
		c0.48,2.06,0.51,4.2,0.41,6.33c-0.14,2.84,0.09,5.67,0.25,8.5c-0.31,0.33-0.2,0.75-0.23,1.14c-0.31,4.11-0.12,8.22-0.17,12.33
		c-0.03,2.79-0.15,5.58,0.08,8.37C185.42,283.08,185.21,283.14,185,283.21z"></path>
	<path d="M42.5,243.87c-0.26,2.3-0.32,4.61-0.32,6.93c0,4.54-0.63,9.05-0.89,13.58c-0.21,3.66-0.22,7.34-0.31,11.01
		c-0.06,2.11-0.11,4.23-0.17,6.34c-0.74-0.66-0.52-1.55-0.52-2.36c0.03-5.51,0.76-10.98,1.03-16.48c0.26-5.27,0.95-10.51,0.8-15.81
		C42.09,246.01,42.18,244.92,42.5,243.87z"></path>
	<path d="M187.04,275.97c0-0.22,0-0.44,0-0.66C187.29,275.53,187.29,275.75,187.04,275.97z"></path>
	<path d="M180.43,284.11c0.22-0.06,0.44-0.12,0.67-0.18C180.92,284.15,180.67,284.12,180.43,284.11z"></path>
	<path d="M144.31,9.08c-1.16,3.01-2.94,5.35-5,7.47c-6.23,6.42-13.63,10.66-22.62,11.71
		c-5.93,0.69-11.53-0.74-16.84-3.25c-5.88-2.78-10.71-6.93-14.7-12.04c-0.74-0.95-1.23-2.04-1.72-3.14
		c-0.38-0.84-0.14-1.03,0.7-0.95c3.86,0.38,7.71,0.78,11.57,1.08c6.41,0.5,12.82,1.18,19.26,1.01c8.31-0.22,16.59-0.83,24.87-1.54
		C141.26,9.3,142.69,9.2,144.31,9.08z"></path>
</g>
</svg>
