<!--?xml version="1.0" encoding="utf-8"?-->
<!-- Generator: Adobe Illustrator 24.2.3, SVG Export Plug-In . SVG Version: 6.00 Build 0)  -->
<svg version="1.1" id="Camada_1" xmlns="http://www.w3.org/2000/svg" xmlns:xlink="http://www.w3.org/1999/xlink" x="0px" y="0px" viewBox="0 0 234 419" enable-background="new 0 0 234 419" xml:space="preserve">
<g onclick="select(this)" class="" id="c-gola-primaria" fill="#bf0811">
	<path d="M141.84,0.24c0.98,0.46,2.07,0.45,3.1,0.72c1.54,0.41,2.9,1.06,3.89,2.36c1.31,1.72,3.02,3.03,4.62,4.46
		c-3.74,0.53-7.47,1.12-11.22,1.57c-7.54,0.91-15.12,1.24-22.69,1.65c-3.8,0.21-7.58-0.3-11.37-0.39c-8.8-0.2-17.44-1.87-26.17-2.58
		c2.03-1.83,3.82-3.9,5.74-5.83c1.31-1.31,3.3-1.45,5.12-1.67c0.41-0.05,0.89,0.12,1.22-0.28C110,0.24,125.92,0.24,141.84,0.24z"></path>
</g>
<g onclick="select(this)" class="" id="c-estampa-primaria" fill="#bf0811">
	<path d="M203.85,32.31c0.22,0.1,0.47,0.15,0.64,0.3c4.15,3.86,8.58,7.45,11.74,12.26c4.41,6.7,7.1,14.09,8.86,21.87
		c1.17,5.19,1.61,10.48,2.43,15.72c0.84,5.36,1.81,10.71,2.49,16.1c0.55,4.36,1.41,8.66,2.14,12.98c0.3,1.79,0.75,3.56,1.12,5.34
		c0,1.04,0,2.08,0,3.12c-3,0.59-6,1.25-9.02,1.75c-8.67,1.45-17.38,2.38-26.19,2.06c-2.36-0.09-4.68-0.53-6.76-1.77
		c-0.42-0.25-0.86-0.46-1.34-0.48c-0.83-0.05-1.42-0.43-1.84-1.12c0.03-1.19-0.03-2.38,0.1-3.58c0.3-2.86,0.94-5.7,0.77-8.58
		c-0.11-1.85-0.07-3.7,0.3-5.48c0.72-3.44,1.31-6.88,1.39-10.41c0.07-3.24,0.52-6.45,1.14-9.63c0.35-1.83,0.67-3.73,2.25-4.99
		c0.55-0.44,0.97-0.91,1.35-1.49c2.63-3.95,3.85-8.47,5.2-12.93c1.53-5.09,2.92-10.2,3.23-15.54c0.26-4.52,0.11-9.03-0.28-13.53
		C203.54,33.62,203.37,32.91,203.85,32.31z"></path>
	<path d="M0.24,116.4c0.61-2.62,1.23-5.25,1.61-7.91c1.37-9.74,3.36-19.35,5.63-28.91
		c1.07-4.49,1.28-9.17,2.35-13.68c1.91-8.04,4.71-15.7,9.8-22.33c2.74-3.57,5.97-6.67,9.56-9.39c0.76-0.57,1.22-1.5,2.21-1.77
		c0.41,0.67,0.44,1.44,0.14,2.07c-0.22,0.45-0.17,0.79-0.15,1.21c0.04,0.83,0.03,1.68-0.04,2.51c-0.41,5.31-0.31,10.58,0.7,15.83
		c0.91,4.75,2.5,9.31,3.83,13.94c0.94,3.29,2.43,6.3,4.33,9.15c0.9,1.35,1.76,2.77,2.1,4.39c0.26,1.28,0.3,2.6,0.6,3.87
		c1.29,5.57,1.49,11.28,2.3,16.91c0.35,2.46,0.12,4.99,0.92,7.4c0.3,0.91,0.49,1.84,0.47,2.82c-0.03,2.08-0.01,4.16-0.02,6.24
		c-0.34,0.22-0.27,0.57-0.24,0.87c0.16,1.26-0.39,1.71-1.64,1.92c-7.73,1.27-15.43,0.83-23.14-0.21
		c-6.88-0.93-13.74-1.96-20.51-3.51c-0.27-0.06-0.53-0.15-0.8-0.22C0.24,117.2,0.24,116.8,0.24,116.4z"></path>
	<path d="M81.99,8.02c8.74,0.71,17.38,2.39,26.17,2.58c3.79,0.08,7.57,0.6,11.37,0.39
		c7.57-0.41,15.15-0.74,22.69-1.65c3.75-0.45,7.48-1.04,11.22-1.57c1.98,0.03,3.46,0.99,4.72,2.45c1.09,1.26,2.61,1.96,4.03,2.76
		c9.28,5.21,19.03,9.42,28.9,13.33c4.16,1.65,8.07,3.83,12.19,5.57c0.21,0.09,0.38,0.28,0.56,0.42c-0.48,0.6-0.32,1.31-0.26,1.97
		c0.39,4.51,0.55,9.01,0.28,13.53c-0.31,5.34-1.69,10.46-3.23,15.54c-1.35,4.47-2.56,8.98-5.2,12.93c-0.38,0.57-0.8,1.05-1.35,1.49
		c-1.58,1.26-1.9,3.16-2.25,4.99c-0.62,3.18-1.07,6.39-1.14,9.63c-0.08,3.53-0.67,6.97-1.39,10.41c-0.37,1.78-0.41,3.63-0.3,5.48
		c0.17,2.88-0.47,5.73-0.77,8.58c-0.13,1.2-0.07,2.39-0.1,3.58c-0.4,0.23-0.25,0.64-0.29,0.97c-1.24,10.55-1.5,21.14-0.95,31.74
		c0.17,3.25-0.08,6.47-0.28,9.7c-0.37,6.04,0.12,12.07,0.14,18.11c0.01,2.76-0.11,5.51-0.44,8.26c-0.23,1.87-0.26,3.75,0.07,5.62
		c0.04,0.24,0.1,0.48,0.08,0.71c-0.26,3.04,0.49,5.91,1.34,8.8c1.78,6.05,2.01,12.26,1.49,18.53c-0.31,3.69-0.84,7.37-0.03,11.09
		c0.28,1.3,0.2,2.72,0.1,4.06c-0.49,6.53,0.7,12.98,0.89,19.48c0.16,5.63,0.71,11.25,1.04,16.88c0.14,2.42,0.45,4.84,0.41,7.28
		c-0.02,1.17-0.39,2.03-1.63,2.3c-0.08-6.72,0.27-13.46-0.95-20.13c0,6.83,0,13.66,0,20.49c-0.16,0.04-0.31,0.08-0.47,0.11
		c-0.2-18.81-0.4-37.62-0.61-56.42c-0.11,0-0.22,0-0.33,0c-0.33,7.53-0.68,15.06-1,22.6c-0.2,4.67-0.28,9.34-0.58,14
		c-0.14,2.16-0.1,4.31-0.21,6.47c-0.24,4.74-0.45,9.49-0.67,14.23c-0.19,0.04-0.38,0.08-0.58,0.12c-0.04-0.52-0.1-1.03-0.11-1.55
		c-0.08-4.2-0.16-8.39-0.23-12.59c-0.18-11.19-0.36-22.38-0.53-33.57c-0.01-0.72-0.11-1.4-0.38-2.1
		c-0.25,7.11-0.52,14.16-0.75,21.21c-0.15,4.71-0.22,9.43-0.37,14.14c-0.16,5.03-0.37,10.06-0.56,15.09
		c-0.19,0.04-0.38,0.09-0.56,0.13c-0.15-3.99-0.36-7.98-0.43-11.97c-0.14-8.5-0.48-17-0.75-25.5c-0.13-4.11-0.18-8.22-0.28-12.33
		c-0.01-0.3,0.19-0.73-0.37-0.89c-0.03,0.27-0.08,0.5-0.09,0.74c-0.15,5.19-0.34,10.37-0.42,15.56c-0.09,5.83-0.3,11.65-0.48,17.48
		c-0.18,5.83-0.23,11.66-0.33,17.49c-0.22,0.03-0.43,0.05-0.65,0.08c-0.06-5.71-0.26-11.42-0.49-17.13
		c-0.23-5.79-0.35-11.58-0.51-17.37c-0.11-4.11-0.19-8.23-0.31-12.34c-0.06-2.15-0.19-4.29-0.29-6.44c-0.23,4.67-0.43,9.33-0.57,14
		c-0.22,7.31-0.39,14.61-0.59,21.92c-0.02,0.6-0.07,1.19-0.1,1.78c-0.13-19.91,0.12-39.83-0.39-59.75
		c-0.2-7.76-0.22-15.52-0.29-23.27c-0.01-0.92-0.25-1.36-1.22-1.21c-0.23,0.04-0.48,0.03-0.72,0c-0.89-0.12-1.18,0.25-1.18,1.14
		c-0.01,2.6-0.11,5.2-0.17,7.8c-0.16,6.87-0.31,13.74-0.47,20.61c-0.15-1.88-0.28-3.75-0.31-5.63c-0.12-7.6-0.22-15.2-0.3-22.79
		c-0.01-0.77-0.13-1.22-1.05-1.14c-0.69,0.06-1.29-0.08-1.33,1c-0.25,7.21,0.02,14.43-0.43,21.11c-0.26-2.18-0.26-4.9-0.31-7.62
		c-0.09-4.44-0.23-8.88-0.29-13.31c-0.01-1.1-0.57-1.19-1.44-1.18c-0.78,0.01-1.13,0.18-1.15,1.06c-0.25,9.59,0.1,19.19-0.4,28.24
		c-0.05-0.92-0.18-2.37-0.22-3.83c-0.2-8.08-0.41-16.15-0.55-24.23c-0.02-1.19-0.55-1.21-1.46-1.25c-1.04-0.04-1.16,0.43-1.16,1.28
		c-0.02,7.04-0.1,14.08-0.1,21.12c-0.01,25.88-0.01,51.76,0,77.64c0,0.47,0.07,0.95,0.11,1.42c-0.72,0.04-1.44,0.08-2.16,0.12
		c0.02-0.16,0.05-0.32,0.05-0.48c0.01-13.51,0.01-27.02,0.01-40.53c0-0.24,0.12-0.55-0.22-0.74c-0.3,0.42-0.17,0.86-0.18,1.28
		c-0.15,6.79-0.32,13.57-0.43,20.36c-0.11,6.71-0.37,13.42-0.27,20.13c-0.12,0-0.24,0.01-0.35,0.01c0.01-2.16-0.04-4.31-0.11-6.47
		c-0.2-6.39-0.06-12.79-0.24-19.18c-0.15-5.23-0.04-10.48-0.1-15.71c-0.02-1.9,0.15-3.81-0.32-5.69c-0.14,0.98-0.25,1.95-0.31,2.93
		c-0.48,7.89-0.96,15.78-1.44,23.66c-0.23,3.7-0.52,7.41-0.69,11.11c-0.14,3.15-0.61,6.28-0.49,9.44c-0.21,0.01-0.42,0.02-0.62,0.02
		c0.15-2.32-0.07-4.63-0.1-6.94c-0.13-8.43-0.21-16.86-0.29-25.29c-0.03-3.83-0.01-7.66-0.01-11.49c-0.13,0-0.25,0-0.38,0
		c-0.26,4.57-0.53,9.13-0.77,13.7c-0.28,5.3-0.51,10.6-0.79,15.9c-0.09,1.79-0.31,3.58-0.36,5.37c-0.08,2.95-0.52,5.88-0.27,8.84
		c-0.27,0.01-0.55,0.01-0.82,0.02c0.02-3.87-0.03-7.74-0.16-11.62c-0.28-8.19-0.41-16.38-0.59-24.57c-0.04-1.92-0.01-3.83-0.01-5.75
		c-0.12,0-0.23,0-0.35,0.01c-0.18,3.26-0.38,6.53-0.53,9.79c-0.27,5.9-0.43,11.81-0.8,17.71c-0.16,2.55-0.18,5.11-0.33,7.66
		c-0.14,2.27-0.42,4.54-0.27,6.82c-0.2,0-0.4,0.01-0.6,0.01c0.01-0.48,0.05-0.96,0.04-1.43c-0.21-7.1-0.46-14.21-0.65-21.31
		c-0.14-5.35-0.21-10.7-0.33-16.05c0-0.17,0.16-0.48-0.27-0.55c-0.03,0.21-0.08,0.4-0.09,0.59c-0.12,3.91-0.21,7.82-0.36,11.73
		c-0.14,3.71-0.34,7.42-0.49,11.13c-0.21,5.3-0.4,10.61-0.6,15.91c-0.69-0.34-0.36-0.98-0.36-1.46
		c-0.12-33.04,0.26-66.07-0.38-99.11c-0.02-0.91-0.04-1.46-1.24-1.44c-1.11,0.03-1.48,0.27-1.51,1.45
		c-0.19,9.6-0.43,19.19-0.69,28.78c-0.03,1.17-0.24,2.33-0.37,3.5c-0.28-10.7-0.43-21.38-0.57-32.05c0-0.32-0.01-0.64-0.01-0.96
		c-0.01-0.37-0.17-0.56-0.56-0.63c-1.09-0.2-1.45,0.06-1.47,1.18c-0.16,7.96-0.32,15.91-0.49,23.87c-0.01,0.46,0.12,0.96-0.18,1.41
		c-0.32-0.35-0.19-0.76-0.19-1.14c-0.2-8.04-0.41-16.07-0.56-24.11c-0.02-0.97-0.25-1.29-1.27-1.3c-1.05-0.01-1.14,0.42-1.14,1.27
		c-0.05,9.8-0.13,19.6-0.21,29.4c0,0.46,0.14,0.98-0.21,1.44c-0.27-0.3-0.19-0.6-0.2-0.87c-0.08-3.4-0.16-6.8-0.24-10.19
		c-0.17-6.64-0.36-13.27-0.51-19.91c-0.02-0.78-0.17-1.1-1.05-1.13c-1.08-0.04-1.21,0.4-1.21,1.33c0.02,33.32,0.02,66.63,0.02,99.95
		c0,0.32,0.02,0.64,0.03,0.96c-0.87-0.01-1.73-0.01-2.6-0.02c-0.04-0.44-0.12-0.87-0.13-1.31c-0.11-6.39-0.54-12.77-0.8-19.15
		c-0.18-4.35-0.28-8.7-0.54-13.05c-0.14-2.4-0.06-4.82-0.5-7.41c-0.18,4.87-0.39,9.54-0.5,14.21c-0.22,8.91-0.4,17.82-0.59,26.72
		c-0.18,0-0.35,0-0.53,0c-0.3-5.89-0.61-11.78-0.88-17.67c-0.29-6.21-0.47-12.43-0.83-18.64c-0.14-2.43-0.06-4.86-0.28-7.29
		c0.08-1.19,0.19-2.38,0.23-3.57c0.15-4.75,0.16-9.5,0.27-14.25c0.31-13.22,0.41-26.45,0.61-39.67c0.01-0.77-0.1-1.15-1.01-1.15
		c-0.88,0.01-1.17,0.22-1.15,1.14c0.11,3.63,0.16,7.27,0.21,10.9c0.13,9.47,0.26,18.94,0.39,28.41c0,0.24,0,0.48,0.02,0.72
		c0.32,5.82,0.26,11.65,0.44,17.48c-0.49,0.15-0.34,0.58-0.35,0.91c-0.14,4.51-0.3,9.02-0.41,13.54c-0.2,8.11-0.36,16.22-0.55,24.33
		c-0.01,0.36,0.17,0.82-0.49,1.09c-0.34-13.24-0.68-26.41-1.02-39.58c-0.1,0-0.2,0-0.3,0c-0.03,0.19-0.08,0.38-0.08,0.56
		c0,6.39-0.59,12.76-0.81,19.15c-0.07,2.03-0.12,4.07-0.22,6.1c-0.3,5.86-0.58,11.72-0.88,17.58c-0.19,0.01-0.37,0.01-0.56,0.02
		c0-0.56,0.02-1.12,0.01-1.68c-0.24-9.46-0.51-18.92-0.72-28.37c-0.08-3.53-0.01-7.06-0.01-10.59c-0.15-0.01-0.29-0.02-0.44-0.03
		c-0.06,0.25-0.16,0.51-0.17,0.77c-0.18,3.91-0.36,7.81-0.51,11.72c-0.19,4.86-0.27,9.74-0.58,14.59c-0.15,2.27-0.11,4.54-0.33,6.81
		c-0.22,2.25-0.14,4.53-0.2,6.8c-0.72,0.02-1.43,0.03-2.15,0.05c-0.06-20.92,0.16-41.83-0.12-62.75c-0.17-12.8-0.22-25.6-0.33-38.4
		c-0.01-0.63,0.15-1.32-0.91-1.26c-0.81,0.05-1.51-0.13-1.53,1.15c-0.06,4.6-0.25,9.19-0.38,13.79c-0.18,6.44-0.34,12.87-0.53,19.31
		c-0.01,0.29,0.17,0.7-0.4,0.96c0-0.62,0-1.14,0-1.65c-0.08-10.8-0.18-21.6-0.23-32.4c0-0.87-0.2-1.17-1.13-1.17
		c-0.91,0-1.2,0.28-1.14,1.17c0.05,0.79-0.06,1.6-0.08,2.4c-0.2,8.28-0.38,16.55-0.59,24.83c-0.01,0.34,0.12,0.76-0.47,1.25
		c0-2.44,0.02-4.63,0-6.81c-0.09-7.2-0.21-14.4-0.29-21.6c-0.01-0.81-0.12-1.22-1.1-1.23c-1.07-0.01-1.01,0.58-1.02,1.29
		c-0.15,10.2-0.3,20.4-0.46,30.59c-0.01,0.39,0.14,0.84-0.24,1.18c-0.32-0.27-0.23-0.56-0.23-0.82c-0.17-7.72-0.34-15.43-0.51-23.15
		c-0.06-2.68-0.13-5.36-0.21-8.04c-0.01-0.37,0.13-0.81-0.42-1c-1.37-0.47-2.2,0.06-2.2,1.47c-0.03,33.04-0.06,66.08-0.09,99.12
		c0,0.6-0.02,1.2-0.03,1.8c-6.3,0.03-12.61,0.1-18.91-0.06c-0.01-0.6-0.02-1.2-0.02-1.8c-0.02-33.11-0.05-66.23-0.05-99.34
		c0-0.9-0.18-1.33-1.17-1.22c-0.81,0.09-1.58-0.22-1.6,1.19c-0.08,6.48-0.28,12.95-0.46,19.43c-0.01,0.3,0.17,0.72-0.31,0.91
		c-0.33-0.42-0.18-0.87-0.18-1.28c-0.04-6.36-0.09-12.72-0.07-19.08c0-1-0.34-1.23-1.24-1.16c-0.8,0.05-1.51-0.17-1.51,1.15
		c-0.02,4.8-0.17,9.59-0.29,14.39c-0.01,0.39,0.12,0.84-0.26,1.22c-0.37-0.45-0.23-0.9-0.23-1.32c-0.05-4.68-0.1-9.36-0.1-14.04
		c0-0.9-0.03-1.46-1.24-1.44c-1.1,0.02-1.3,0.37-1.3,1.38c-0.04,6.56-0.14,13.12-0.24,19.67c-0.01,0.39,0.21,0.91-0.51,1.18
		c0-0.48,0.01-0.91,0-1.33c-0.12-6.4-0.24-12.79-0.39-19.19c-0.01-0.53,0.2-1.38-0.32-1.53c-0.81-0.23-1.77-0.24-2.59-0.04
		c-0.6,0.15-0.35,0.98-0.36,1.5c-0.18,11.32-0.43,22.63-0.48,33.95c-0.09,19-0.04,37.99-0.06,56.99c0,1.68-0.03,3.36-0.04,5.04
		c-0.31-0.33-0.25-0.74-0.26-1.14c-0.1-3.84-0.18-7.67-0.29-11.51c-0.32-11.35-0.66-22.69-0.97-34.04
		c-0.06-2.26-0.01-4.52-0.01-6.79c-0.13,0-0.27,0-0.4,0c-0.02,0.35-0.06,0.7-0.07,1.06c-0.14,4.91-0.28,9.83-0.43,14.74
		c-0.26,8.99-0.52,17.98-0.78,26.96c-0.03,0.92-0.11,1.84-0.11,2.75c0,3.64-0.41,7.26-0.26,10.9c-0.22-0.03-0.44-0.05-0.66-0.08
		c0.03-0.44,0.09-0.87,0.08-1.31c-0.15-5.63-0.34-11.26-0.45-16.9c-0.13-7.35-0.26-14.7-0.49-22.06
		c-0.17-5.55-0.21-11.11-0.33-16.67c-0.01-0.29,0.19-0.7-0.36-0.94c-0.12,3.36-0.1,6.63-0.23,9.9c-0.21,5.43-0.35,10.86-0.51,16.29
		c-0.17,5.75-0.25,11.5-0.49,17.25c-0.19,4.59-0.22,9.19-0.33,13.79c-0.18-0.03-0.37-0.06-0.55-0.08c-0.11-3.19-0.28-6.38-0.34-9.58
		c-0.13-8.15-0.46-16.29-0.71-24.43c-0.24-7.75-0.39-15.5-0.59-23.24c-0.01-0.41,0.13-0.88-0.58-1.41c0,4.85,0.05,9.48-0.01,14.11
		c-0.07,5.47-0.05,10.95-0.2,16.42c-0.25,9.15-0.35,18.3-0.51,27.45c-0.18-0.05-0.37-0.1-0.55-0.16c-0.07-1.99-0.14-3.99-0.22-5.98
		c-0.31-7.45-0.64-14.9-0.94-22.36c-0.13-3.11-0.18-6.22-0.3-9.33c-0.04-0.97-0.17-1.94-0.26-2.91c-0.11,0-0.23,0-0.34-0.01
		c-0.39,13.11-1.81,26.17-1.78,39.3c-1.15-0.43-1.03-1.44-0.99-2.33c0.15-2.9,0.42-5.8,0.58-8.7c0.36-6.66,1.21-13.29,1.1-19.98
		c-0.03-1.88,0.12-3.78,0.55-5.59c0.5-2.12,0.3-4.21,0.09-6.3c-0.63-6.07-0.11-12.04,1.54-17.91c0.35-1.23,0.05-2.46-0.09-3.68
		c-0.91-8.11-0.9-16.18,0.84-24.2c0.4,0.44,0.26,0.99,0.26,1.49c0.03,4.72,0.05,9.43,0.07,14.15c0,1.22,0,2.44,0,3.65
		c0.1,0,0.19,0,0.29,0c0-0.37-0.03-0.75,0-1.12c0.35-4.55,0.22-9.11,0.41-13.66c0.17-4.11,0.23-8.23,0.36-12.34
		c0.02-0.68-0.01-1.23-0.92-1.07c-0.11-3.67,0.1-7.34-0.03-11.02c-0.21-5.71-0.05-11.43-0.45-17.13c-0.26-3.63,0.41-7.24,0.3-10.89
		c-0.29-9.43-0.88-18.83-1.43-28.25c-0.02-0.33,0.13-0.74-0.29-0.96c0-2.08-0.01-4.16,0.02-6.24c0.01-0.97-0.17-1.91-0.47-2.82
		c-0.79-2.41-0.57-4.94-0.92-7.4c-0.8-5.63-1.01-11.34-2.3-16.91c-0.29-1.27-0.34-2.6-0.6-3.87c-0.34-1.62-1.2-3.05-2.1-4.39
		c-1.9-2.85-3.38-5.85-4.33-9.15c-1.33-4.63-2.92-9.19-3.83-13.94c-1.01-5.25-1.11-10.52-0.7-15.83c0.06-0.83,0.08-1.68,0.04-2.51
		c-0.02-0.43-0.07-0.77,0.15-1.21c0.31-0.63,0.28-1.4-0.14-2.07c4.23-1.96,8.41-4.04,12.76-5.76c7.13-2.82,14.15-5.9,21.14-9.06
		c3.95-1.78,7.6-4.08,11.24-6.39c0.45-0.29,0.75-0.71,1.11-1.08C78.83,8.88,80.13,7.86,81.99,8.02z M79.17,241.61
		c-0.06,0-0.13,0-0.19-0.01c-0.06,0.74-0.16,1.48-0.17,2.22c-0.14,7.2-0.03,14.39-0.21,21.59c-0.17,6.91-0.07,13.83-0.27,20.75
		c-0.07,2.49-0.01,2.44,2.52,2.54c1.03,0.04,1.3-0.26,1.23-1.26c-0.41-5.97-0.79-11.95-1.16-17.93c-0.44-7.13-0.87-14.27-1.31-21.4
		C79.47,245.95,79.31,243.78,79.17,241.61z M114.85,244.53c0-0.15-0.01-0.36,0-0.56c0.45-5.37,0.13-10.76,0.63-16.14
		c0.37-3.97,0.24-7.99,0.34-11.99c0.22-9.27,0.44-18.54,0.7-27.82c0.02-0.9-0.32-1.08-1.11-1.05c-0.74,0.03-1.38-0.11-1.33,1.06
		c0.12,2.95,0.12,5.92,0.15,8.87c0.13,15.23,0.25,30.47,0.37,45.7C114.6,243.29,114.61,243.96,114.85,244.53z M123.24,236.48
		c0.48-4.64,0.35-9.58,0.46-14.52c0.15-6.75,0.17-13.5,0.25-20.25c0.05-4.55,0.1-9.11,0.14-13.66c0-0.34,0.17-0.87-0.25-0.95
		c-0.61-0.12-1.31-0.16-1.89,0.02c-0.48,0.15-0.23,0.78-0.22,1.19c0.26,10.82,0.54,21.65,0.82,32.47c0.06,2.52-0.07,5.06,0.24,7.54
		C123.13,231.13,123.03,233.94,123.24,236.48z M83.43,245.1c-0.11,0-0.21,0-0.32,0c0,1.95,0.05,3.91-0.01,5.86
		c-0.17,6.31,0,12.63-0.24,18.95c-0.21,5.55-0.06,11.11-0.26,16.67c-0.09,2.45-0.51,2.05,2.13,2.14c0.83,0.03,1-0.29,0.96-1.05
		c-0.12-2.11-0.16-4.23-0.27-6.34c-0.16-3.23-0.35-6.46-0.53-9.69c-0.31-5.66-0.63-11.32-0.95-16.98
		C83.77,251.47,83.6,248.28,83.43,245.1z M87.51,246.93c-0.03,0-0.06,0-0.09,0c-0.08,1.83-0.19,3.65-0.24,5.48
		c-0.2,7.9-0.32,15.81-0.58,23.71c-0.13,3.83-0.14,7.66-0.22,11.5c-0.01,0.39-0.24,0.89,0.41,1.08c2.01,0.6,2.79-0.03,2.68-2.12
		c-0.39-7.29-0.77-14.58-1.12-21.87c-0.22-4.54-0.36-9.09-0.55-13.64C87.74,249.69,87.61,248.31,87.51,246.93z M110.4,207.93
		c0.11,0,0.22,0,0.33,0c0,6.59,0,13.18,0,19.77c0,0.24-0.01,0.48,0.02,0.72c0.02,0.23,0.05,0.51,0.38,0.49
		c0.27-0.02,0.25-0.27,0.27-0.46c0.11-0.98,0.28-1.97,0.31-2.95c0.21-7.47,0.39-14.93,0.58-22.4c0.13-4.99,0.28-9.98,0.41-14.97
		c0.01-0.36,0.21-0.82-0.25-1.08c-0.97-0.54-2.04,0.1-2.04,1.22C110.4,194.83,110.4,201.38,110.4,207.93z M91.08,249.41
		c-0.04,0.38-0.07,0.56-0.07,0.74c-0.1,4.95-0.2,9.91-0.3,14.86c-0.02,1.12-0.02,2.24-0.05,3.36c-0.2,6.51-0.41,13.01-0.62,19.52
		c-0.01,0.27-0.09,0.71,0.2,0.75c0.74,0.1,1.54,0.21,2.25,0.04c0.67-0.15,0.34-0.89,0.32-1.35c-0.26-6.66-0.58-13.32-0.84-19.98
		c-0.22-5.51-0.39-11.02-0.59-16.52C91.36,250.41,91.48,249.96,91.08,249.41z M144.01,228.69c0.41-0.24,0.32-0.59,0.33-0.9
		c0.35-13.23,0.69-26.45,1.05-39.68c0.02-0.77-0.09-1.14-1.01-1.15c-0.96-0.01-1.11,0.34-1.09,1.19c0.11,4.68,0.17,9.35,0.22,14.03
		c0.1,8.47,0.18,16.95,0.27,25.42C143.78,227.95,143.65,228.33,144.01,228.69z M90.64,228.67c0.42-0.19,0.26-0.55,0.27-0.84
		c0.16-13.24,0.31-26.47,0.49-39.71c0.01-0.91-0.24-1.14-1.13-1.15c-0.99-0.01-0.97,0.49-0.95,1.2c0.15,4.84,0.3,9.67,0.42,14.51
		c0.21,8.32,0.4,16.63,0.61,24.95C90.35,227.98,90.16,228.44,90.64,228.67z M152.54,228.52c0.3-0.39,0.19-0.76,0.19-1.1
		c0.11-13.07,0.2-26.14,0.31-39.21c0.01-0.65,0.13-1.24-0.91-1.24c-1.05,0-0.92,0.59-0.9,1.24c0.16,5.43,0.34,10.86,0.49,16.3
		c0.21,7.59,0.4,15.18,0.6,22.77C152.31,227.67,152.27,228.08,152.54,228.52z M82.21,228.52c0.42-3.8,0.28-7.52,0.4-11.23
		c0.32-9.78,0.58-19.56,0.88-29.35c0.02-0.73-0.2-0.94-0.93-0.97c-1.06-0.05-0.91,0.6-0.9,1.24c0.11,13.1,0.22,26.21,0.34,39.31
		C82,227.83,81.89,228.16,82.21,228.52z M86.06,228.55c0.14,0,0.27-0.01,0.41-0.01c0.21-0.53,0.09-1.09,0.1-1.63
		c0.22-12.71,0.44-25.42,0.61-38.13c0.01-0.6,0.7-1.74-0.8-1.77c-1.6-0.04-0.87,1.18-0.87,1.81c0,3.32,0.12,6.63,0.18,9.95
		c0.13,8.15,0.25,16.31,0.36,24.46C86.08,224.99,86.06,226.77,86.06,228.55z M147.98,223.12c0.15,0.01,0.3,0.02,0.44,0.03
		c0.3-0.53,0.22-1.14,0.23-1.71c0.07-4.48,0.13-8.96,0.21-13.43c0.12-6.72,0.24-13.43,0.38-20.15c0.01-0.6-0.15-0.82-0.79-0.87
		c-1.14-0.09-0.98,0.64-0.97,1.31c0.16,10.12,0.33,20.23,0.49,30.35C148,220.13,147.98,221.63,147.98,223.12z M78.14,222.76
		c0.11,0,0.21,0,0.32,0c-0.14-1.05,0.27-2.02,0.3-3.06c0.24-8.55,0.52-17.1,0.78-25.65c0.06-2.04,0.07-4.08,0.16-6.11
		c0.03-0.76-0.25-0.92-0.96-0.95c-0.95-0.04-0.89,0.5-0.89,1.14c0.1,8.95,0.2,17.91,0.28,26.86
		C78.16,217.57,78.14,220.16,78.14,222.76z M155.99,221.08c0.06,0,0.13,0,0.19,0c0.1-0.78,0.27-1.56,0.28-2.34
		c0.11-8.31,0.18-16.63,0.27-24.95c0.02-1.96,0.05-3.92,0.12-5.87c0.03-0.76-0.25-0.93-0.96-0.95c-0.96-0.03-0.89,0.52-0.87,1.15
		c0.2,6.63,0.39,13.27,0.58,19.9C155.74,212.38,155.87,216.73,155.99,221.08z M176.42,222.41c0.02,0,0.04,0,0.07,0
		c0.08-1.14,0.2-2.27,0.23-3.41c0.1-3.99,0.15-7.99,0.25-11.99c0.16-6.39,0.35-12.78,0.51-19.17c0.02-0.72-0.66-1.13-1.25-0.78
		c-0.49,0.29-0.26,0.8-0.25,1.2C176.11,199.64,176.26,211.02,176.42,222.41z M76.97,246.77c-0.06,0.27-0.11,0.38-0.11,0.5
		c0,13.47,0,26.93,0,40.4c0,0.44-0.06,0.95,0.6,0.95c0.73,0.01,0.54-0.57,0.53-0.96c-0.06-4.47-0.14-8.95-0.22-13.42
		c-0.16-8.74-0.33-17.49-0.51-26.23C77.26,247.64,77.39,247.23,76.97,246.77z M56.96,221.12c0.01,0,0.02,0,0.04,0
		c0.09-1.35,0.24-2.7,0.26-4.06c0.13-9.59,0.23-19.18,0.34-28.77c0-0.2-0.01-0.4,0.01-0.6c0.04-0.52-0.21-0.66-0.71-0.7
		c-0.97-0.07-0.75,0.57-0.74,1.1C56.42,199.1,56.69,210.11,56.96,221.12z M52.71,216.62c0.2-0.43,0.18-0.94,0.18-1.44
		c0.13-9.03,0.25-18.07,0.37-27.1c0-0.2,0.01-0.4,0-0.6c-0.01-0.36-0.23-0.47-0.56-0.47c-0.32,0-0.56,0.09-0.58,0.45
		c-0.01,0.32-0.01,0.64,0,0.96C52.4,197.82,52.28,207.24,52.71,216.62z M180.76,216.81c0.1-1.7,0.25-3.21,0.28-4.73
		c0.14-7.8,0.26-15.59,0.34-23.39c0.01-0.56,0.53-1.6-0.51-1.63c-1.11-0.04-0.56,1.03-0.56,1.57
		C180.44,197.97,180.6,207.3,180.76,216.81z M184.87,210.26c0-2.9,0.36-5.78,0.39-8.67c0.05-4.44,0.11-8.88,0.13-13.31
		c0-0.45,0.41-1.23-0.58-1.27c-1-0.03-0.63,0.75-0.62,1.21c0.15,6.35,0.33,12.71,0.51,19.06
		C184.73,208.28,184.81,209.27,184.87,210.26z"></path>
	<path d="M149.51,288.88c0.76-0.04,1.51-0.07,2.27-0.11C151.03,288.97,150.27,288.9,149.51,288.88z"></path>
	<path d="M57.73,287.78c0.61-0.03,1.22-0.07,1.84-0.1c0.04,0.2-0.08,0.31-0.21,0.42
		C58.81,287.99,58.27,287.88,57.73,287.78z"></path>
</g>
<g onclick="select(this)" class="" id="c-estampa-terciaria" fill="#082890">
	<path d="M113.82,289.3c0.29-5.86,0.58-11.72,0.88-17.58c0.1-2.03,0.15-4.07,0.22-6.1
		c0.22-6.39,0.81-12.75,0.81-19.15c0-0.19,0.05-0.38,0.08-0.56c0.1,0,0.2,0,0.3,0c0.34,13.17,0.68,26.35,1.02,39.58
		c0.66-0.27,0.48-0.73,0.49-1.09c0.19-8.11,0.35-16.22,0.55-24.33c0.11-4.51,0.26-9.02,0.41-13.54c0.01-0.33-0.14-0.75,0.35-0.91
		c0,0-0.01-0.02-0.01-0.02c0.22,2.42,0.14,4.86,0.28,7.29c0.36,6.21,0.54,12.42,0.83,18.64c0.27,5.89,0.59,11.78,0.88,17.67
		C118.54,289.45,116.18,289.44,113.82,289.3z"></path>
	<path d="M152.47,288.76c-0.12-3.16,0.35-6.29,0.49-9.44c0.17-3.71,0.46-7.41,0.69-11.11
		c0.48-7.89,0.96-15.78,1.44-23.66c0.06-0.98,0.16-1.96,0.31-2.93c0.47,1.88,0.3,3.79,0.32,5.69c0.06,5.24-0.04,10.48,0.1,15.71
		c0.18,6.39,0.04,12.79,0.24,19.18c0.07,2.16,0.13,4.31,0.11,6.47C154.93,288.69,153.7,288.72,152.47,288.76z"></path>
	<path d="M178.06,286.77c0.1-5.83,0.15-11.66,0.33-17.49c0.18-5.83,0.39-11.65,0.48-17.48
		c0.08-5.19,0.27-10.37,0.42-15.56c0.01-0.23,0.06-0.46,0.09-0.74c0.56,0.17,0.37,0.6,0.37,0.89c0.1,4.11,0.14,8.22,0.28,12.33
		c0.27,8.5,0.62,16.99,0.75,25.5c0.07,3.99,0.28,7.98,0.43,11.97C180.18,286.51,179.14,286.73,178.06,286.77z"></path>
	<path d="M44.4,284.59c-0.02-13.13,1.39-26.19,1.78-39.3c0.11,0,0.23,0,0.34,0.01c0.09,0.97,0.22,1.94,0.26,2.91
		c0.12,3.11,0.17,6.22,0.3,9.33c0.3,7.45,0.63,14.9,0.94,22.36c0.08,1.99,0.15,3.99,0.22,5.98
		C46.89,285.65,45.56,285.35,44.4,284.59z"></path>
	<path d="M181.77,286.06c0.19-5.03,0.4-10.06,0.56-15.09c0.15-4.71,0.22-9.43,0.37-14.14
		c0.23-7.05,0.5-14.11,0.75-21.21c0.28,0.71,0.37,1.39,0.38,2.1c0.17,11.19,0.35,22.38,0.53,33.57c0.07,4.2,0.15,8.39,0.23,12.59
		c0.01,0.52,0.07,1.03,0.11,1.55C183.75,285.77,182.78,286.01,181.77,286.06z"></path>
	<path d="M148.87,288.88c-0.25-2.96,0.19-5.89,0.27-8.84c0.05-1.79,0.27-3.58,0.36-5.37
		c0.27-5.3,0.51-10.6,0.79-15.9c0.24-4.57,0.51-9.14,0.77-13.7c0.13,0,0.25,0,0.38,0c0,3.83-0.03,7.66,0.01,11.49
		c0.07,8.43,0.16,16.86,0.29,25.29c0.04,2.31,0.26,4.62,0.1,6.94c0,0-0.06-0.02-0.06-0.02c-0.76,0.04-1.51,0.08-2.27,0.11
		C149.3,288.88,149.09,288.88,148.87,288.88z"></path>
	<path d="M145,288.94c-0.15-2.28,0.14-4.55,0.27-6.82c0.16-2.55,0.17-5.11,0.33-7.66c0.37-5.9,0.53-11.81,0.8-17.71
		c0.15-3.26,0.35-6.53,0.53-9.79c0.12,0,0.23,0,0.35-0.01c0,1.92-0.03,3.84,0.01,5.75c0.18,8.19,0.31,16.38,0.59,24.57
		c0.13,3.87,0.17,7.74,0.16,11.62C147.03,288.91,146.02,288.93,145,288.94z"></path>
	<path d="M110.3,289.34c0.05-2.27-0.02-4.55,0.2-6.8c0.22-2.27,0.18-4.54,0.33-6.81c0.31-4.86,0.39-9.73,0.58-14.59
		c0.15-3.91,0.33-7.81,0.51-11.72c0.01-0.26,0.11-0.51,0.17-0.77c0.15,0.01,0.29,0.02,0.44,0.03c0,3.53-0.07,7.06,0.01,10.59
		c0.21,9.46,0.48,18.92,0.72,28.37c0.01,0.56,0,1.12-0.01,1.68C112.28,289.46,111.29,289.41,110.3,289.34z"></path>
	<path d="M121.42,289.21c0.19-8.91,0.37-17.82,0.59-26.72c0.12-4.67,0.33-9.34,0.5-14.21
		c0.44,2.58,0.36,5.01,0.5,7.41c0.26,4.35,0.36,8.7,0.54,13.05c0.26,6.38,0.69,12.76,0.8,19.15c0.01,0.44,0.08,0.87,0.13,1.31
		C123.46,289.34,122.44,289.41,121.42,289.21z"></path>
	<path d="M144.13,289.03c-0.82-0.02-1.64-0.04-2.45-0.06c0.2-5.3,0.39-10.61,0.6-15.91
		c0.15-3.71,0.35-7.42,0.49-11.13c0.14-3.91,0.24-7.82,0.36-11.73c0.01-0.19,0.06-0.38,0.09-0.59c0.43,0.07,0.26,0.38,0.27,0.55
		c0.12,5.35,0.18,10.7,0.33,16.05c0.19,7.1,0.43,14.21,0.65,21.31c0.01,0.48-0.02,0.96-0.04,1.43
		C144.31,288.98,144.22,289,144.13,289.03z"></path>
	<path d="M156.52,288.64c-0.1-6.71,0.15-13.42,0.27-20.13c0.12-6.79,0.28-13.58,0.43-20.36
		c0.01-0.41-0.12-0.86,0.18-1.28c0.34,0.19,0.22,0.49,0.22,0.74c0,13.51,0,27.02-0.01,40.53c0,0.16-0.03,0.32-0.05,0.48
		C157.22,288.74,156.87,288.71,156.52,288.64z"></path>
	<path d="M189.14,284.33c0-6.83,0-13.66,0-20.49c1.22,6.68,0.86,13.41,0.95,20.13
		C189.82,284.21,189.51,284.35,189.14,284.33z"></path>
	<path d="M79.17,241.61c0.15,2.17,0.3,4.33,0.44,6.5c0.44,7.13,0.86,14.27,1.31,21.4
		c0.37,5.98,0.75,11.95,1.16,17.93c0.07,1-0.21,1.3-1.23,1.26c-2.53-0.1-2.59-0.05-2.52-2.54c0.19-6.92,0.09-13.83,0.27-20.75
		c0.18-7.2,0.07-14.39,0.21-21.59c0.01-0.74,0.11-1.48,0.17-2.22C79.04,241.61,79.1,241.61,79.17,241.61z"></path>
	<path d="M83.43,245.1c0.17,3.19,0.34,6.37,0.52,9.56c0.31,5.66,0.63,11.32,0.95,16.98
		c0.18,3.23,0.37,6.46,0.53,9.69c0.11,2.11,0.15,4.23,0.27,6.34c0.04,0.76-0.13,1.08-0.96,1.05c-2.64-0.09-2.22,0.31-2.13-2.14
		c0.2-5.55,0.05-11.11,0.26-16.67c0.24-6.32,0.06-12.63,0.24-18.95c0.05-1.95,0.01-3.91,0.01-5.86
		C83.22,245.1,83.32,245.1,83.43,245.1z"></path>
	<path d="M87.51,246.93c0.1,1.38,0.23,2.76,0.29,4.14c0.2,4.54,0.34,9.09,0.55,13.64
		c0.35,7.29,0.73,14.58,1.12,21.87c0.11,2.09-0.66,2.72-2.68,2.12c-0.65-0.19-0.42-0.69-0.41-1.08c0.08-3.83,0.09-7.66,0.22-11.5
		c0.27-7.9,0.39-15.8,0.58-23.71c0.05-1.83,0.16-3.65,0.24-5.48C87.45,246.93,87.48,246.93,87.51,246.93z"></path>
	<path d="M91.08,249.41c0.4,0.55,0.28,1,0.3,1.4c0.2,5.51,0.37,11.02,0.59,16.52c0.27,6.66,0.58,13.32,0.84,19.98
		c0.02,0.46,0.35,1.2-0.32,1.35c-0.71,0.16-1.51,0.06-2.25-0.04c-0.29-0.04-0.21-0.48-0.2-0.75c0.2-6.51,0.41-13.01,0.62-19.52
		c0.03-1.12,0.03-2.24,0.05-3.36c0.1-4.95,0.2-9.91,0.3-14.86C91.01,249.96,91.04,249.78,91.08,249.41z"></path>
	<path d="M76.97,246.77c0.42,0.46,0.28,0.87,0.29,1.24c0.18,8.74,0.35,17.49,0.51,26.23
		c0.08,4.47,0.16,8.95,0.22,13.42c0.01,0.39,0.2,0.97-0.53,0.96c-0.66-0.01-0.6-0.52-0.6-0.95c0-13.47-0.01-26.93,0-40.4
		C76.86,247.15,76.91,247.03,76.97,246.77z"></path>
	<path d="M185.28,285.32c0.22-4.74,0.43-9.49,0.67-14.23c0.11-2.15,0.07-4.31,0.21-6.47c0.3-4.66,0.38-9.33,0.58-14
		c0.32-7.53,0.66-15.07,1-22.6c0.11,0,0.22,0,0.33,0c0.2,18.81,0.4,37.62,0.61,56.42C187.59,284.93,186.46,285.19,185.28,285.32z"></path>
	<path d="M59.58,284.57c-0.01,1.04-0.01,2.07-0.02,3.11c-0.61,0.03-1.22,0.07-1.84,0.1
		c-0.59,0.06-1.15-0.08-1.71-0.26c-0.15-3.64,0.26-7.26,0.26-10.9c0-0.92,0.08-1.84,0.11-2.75c0.26-8.99,0.52-17.98,0.78-26.96
		c0.14-4.91,0.28-9.83,0.43-14.74c0.01-0.35,0.04-0.71,0.07-1.06c0.13,0,0.27,0,0.4,0c0,2.26-0.05,4.53,0.01,6.79
		c0.31,11.35,0.65,22.69,0.97,34.04c0.11,3.84,0.19,7.67,0.29,11.51C59.34,283.83,59.27,284.24,59.58,284.57z"></path>
	<path d="M52.28,286.8c0.1-4.6,0.14-9.19,0.33-13.79c0.24-5.75,0.32-11.5,0.49-17.25
		c0.16-5.43,0.29-10.86,0.51-16.29c0.13-3.27,0.1-6.54,0.23-9.9c0.55,0.24,0.35,0.66,0.36,0.94c0.12,5.56,0.16,11.11,0.33,16.67
		c0.23,7.35,0.35,14.7,0.49,22.06c0.1,5.63,0.3,11.26,0.45,16.9c0.01,0.44-0.05,0.87-0.08,1.31
		C54.33,287.29,53.27,287.23,52.28,286.8z"></path>
	<path d="M174.66,287.35c-0.05-0.19-0.14-0.38-0.14-0.57c0.01-5.17,0.02-10.34,0.04-15.51
		c0.03-0.6,0.08-1.19,0.1-1.79c0.2-7.31,0.37-14.61,0.59-21.92c0.14-4.67,0.34-9.33,0.57-14c0.1,2.15,0.23,4.29,0.29,6.44
		c0.12,4.11,0.2,8.23,0.31,12.34c0.16,5.79,0.28,11.58,0.51,17.37c0.23,5.71,0.43,11.42,0.49,17.13
		C176.53,287.21,175.58,287.21,174.66,287.35z"></path>
	<path d="M48.79,286.03c0.16-9.15,0.26-18.3,0.51-27.45c0.15-5.47,0.13-10.95,0.2-16.42
		c0.06-4.63,0.01-9.26,0.01-14.11c0.71,0.53,0.57,1,0.58,1.41c0.2,7.75,0.35,15.5,0.59,23.24c0.25,8.14,0.58,16.29,0.71,24.43
		c0.05,3.19,0.22,6.38,0.34,9.58C50.72,286.62,49.73,286.42,48.79,286.03z"></path>
</g>
<g onclick="select(this)" class="" id="c-estampa-secundaria" fill="#ffffff">
	<path d="M59.58,284.57c0.02-1.68,0.04-3.36,0.04-5.04c0.02-19-0.03-37.99,0.06-56.99
		c0.05-11.32,0.3-22.63,0.48-33.95c0.01-0.53-0.24-1.35,0.36-1.5c0.82-0.2,1.78-0.2,2.59,0.04c0.52,0.15,0.3,1,0.32,1.53
		c0.14,6.4,0.26,12.79,0.39,19.19c0.01,0.43,0,0.85,0,1.33c0.72-0.27,0.5-0.79,0.51-1.18c0.1-6.56,0.2-13.11,0.24-19.67
		c0.01-1.01,0.2-1.36,1.3-1.38c1.21-0.02,1.24,0.53,1.24,1.44c0.01,4.68,0.05,9.36,0.1,14.04c0,0.41-0.14,0.86,0.23,1.32
		c0.37-0.38,0.25-0.83,0.26-1.22c0.12-4.8,0.27-9.59,0.29-14.39c0.01-1.31,0.71-1.09,1.51-1.15c0.9-0.06,1.25,0.16,1.24,1.16
		c-0.02,6.36,0.03,12.72,0.07,19.08c0,0.42-0.14,0.87,0.18,1.28c0.48-0.19,0.3-0.61,0.31-0.91c0.17-6.47,0.38-12.95,0.46-19.43
		c0.02-1.4,0.79-1.1,1.6-1.19c1-0.11,1.17,0.32,1.17,1.22c0,33.11,0.03,66.23,0.05,99.34c0,0.6,0.02,1.2,0.02,1.8
		c-1.47,0.24-2.93-0.1-4.39-0.18c-3.48-0.18-6.97-0.39-10.42-0.93c-0.15-0.02-0.3-0.09-0.45-0.14c0.13-0.11,0.25-0.22,0.21-0.42
		C59.57,286.64,59.58,285.6,59.58,284.57z"></path>
	<path d="M159.72,288.48c-0.04-0.47-0.11-0.95-0.11-1.42c-0.01-25.88-0.01-51.76,0-77.64
		c0-7.04,0.09-14.08,0.1-21.12c0-0.86,0.12-1.33,1.16-1.28c0.91,0.04,1.44,0.06,1.46,1.25c0.13,8.08,0.34,16.15,0.55,24.23
		c0.04,1.46,0.16,2.91,0.22,3.83c0.5-9.05,0.15-18.65,0.4-28.24c0.02-0.88,0.37-1.05,1.15-1.06c0.87-0.01,1.43,0.09,1.44,1.18
		c0.06,4.44,0.2,8.88,0.29,13.31c0.05,2.72,0.05,5.43,0.31,7.62c0.45-6.68,0.18-13.9,0.43-21.11c0.04-1.08,0.64-0.94,1.33-1
		c0.92-0.08,1.04,0.37,1.05,1.14c0.08,7.6,0.18,15.2,0.3,22.79c0.03,1.88,0.16,3.75,0.31,5.63c0.16-6.87,0.31-13.74,0.47-20.61
		c0.06-2.6,0.16-5.2,0.17-7.8c0-0.89,0.29-1.27,1.18-1.14c0.24,0.03,0.48,0.04,0.72,0c0.97-0.15,1.21,0.28,1.22,1.21
		c0.06,7.76,0.09,15.52,0.29,23.27c0.51,19.91,0.26,39.83,0.39,59.75c-0.01,5.17-0.03,10.34-0.04,15.51c0,0.19,0.09,0.38,0.14,0.57
		c-2.5,0.48-5.05,0.61-7.58,0.84c-2.3,0.21-4.61,0.29-6.91,0.42C160.02,288.62,159.87,288.53,159.72,288.48z"></path>
	<path d="M93.52,289.41c0.01-0.6,0.03-1.2,0.03-1.8c0.03-33.04,0.06-66.08,0.09-99.12c0-1.41,0.83-1.94,2.2-1.47
		c0.55,0.19,0.41,0.63,0.42,1c0.08,2.68,0.15,5.36,0.21,8.04c0.17,7.72,0.34,15.43,0.51,23.15c0.01,0.26-0.09,0.56,0.23,0.82
		c0.38-0.34,0.24-0.79,0.24-1.18c0.16-10.2,0.32-20.39,0.46-30.59c0.01-0.72-0.05-1.3,1.02-1.29c0.98,0.01,1.09,0.42,1.1,1.23
		c0.08,7.2,0.2,14.4,0.29,21.6c0.03,2.19,0,4.38,0,6.81c0.59-0.49,0.46-0.91,0.47-1.25c0.2-8.28,0.39-16.55,0.59-24.83
		c0.02-0.8,0.13-1.6,0.08-2.4c-0.06-0.89,0.23-1.16,1.14-1.17c0.93,0,1.12,0.3,1.13,1.17c0.05,10.8,0.15,21.6,0.23,32.4
		c0,0.52,0,1.03,0,1.65c0.58-0.26,0.39-0.67,0.4-0.96c0.19-6.44,0.35-12.87,0.53-19.31c0.13-4.6,0.32-9.19,0.38-13.79
		c0.02-1.28,0.72-1.1,1.53-1.15c1.06-0.06,0.91,0.62,0.91,1.26c0.11,12.8,0.16,25.6,0.33,38.4c0.28,20.92,0.06,41.83,0.12,62.75
		C103.28,289.4,98.4,289.4,93.52,289.41z"></path>
	<path d="M127.08,289.2c-0.01-0.32-0.03-0.64-0.03-0.96c0-33.32,0-66.63-0.02-99.95c0-0.93,0.13-1.36,1.21-1.33
		c0.88,0.03,1.03,0.35,1.05,1.13c0.15,6.64,0.34,13.27,0.51,19.91c0.09,3.4,0.16,6.8,0.24,10.19c0.01,0.27-0.07,0.56,0.2,0.87
		c0.35-0.46,0.2-0.98,0.21-1.44c0.08-9.8,0.16-19.6,0.21-29.4c0-0.85,0.1-1.29,1.14-1.27c1.02,0.01,1.25,0.34,1.27,1.3
		c0.15,8.04,0.36,16.07,0.56,24.11c0.01,0.37-0.12,0.79,0.19,1.14c0.3-0.45,0.17-0.95,0.18-1.41c0.17-7.96,0.32-15.91,0.49-23.87
		c0.02-1.12,0.38-1.38,1.47-1.18c0.39,0.07,0.56,0.26,0.56,0.63c0.01,0.32,0.01,0.64,0.01,0.96c0.15,10.68,0.29,21.35,0.57,32.05
		c0.13-1.17,0.34-2.33,0.37-3.5c0.26-9.59,0.51-19.19,0.69-28.78c0.02-1.18,0.39-1.42,1.51-1.45c1.2-0.03,1.23,0.53,1.24,1.44
		c0.64,33.03,0.25,66.07,0.38,99.11c0,0.49-0.33,1.12,0.36,1.46c0.82,0.02,1.64,0.04,2.45,0.06c-4.25,0.3-8.5,0.15-12.76,0.22
		C129.94,289.26,128.51,289.22,127.08,289.2z"></path>
	<path d="M48.49,187c0.91-0.15,0.94,0.39,0.92,1.07c-0.13,4.11-0.19,8.23-0.36,12.34
		c-0.19,4.55-0.06,9.11-0.41,13.66c-0.03,0.37,0,0.75,0,1.12c-0.1,0-0.19,0-0.29,0c0-1.22,0-2.44,0-3.65
		c-0.02-4.72-0.03-9.43-0.07-14.15c0-0.5,0.14-1.05-0.26-1.49C48.67,192.96,48.47,189.97,48.49,187z"></path>
	<path d="M114.85,244.53c-0.24-0.58-0.25-1.24-0.25-1.91c-0.12-15.23-0.24-30.47-0.37-45.7
		c-0.03-2.96-0.02-5.92-0.15-8.87c-0.05-1.17,0.59-1.03,1.33-1.06c0.79-0.04,1.14,0.15,1.11,1.05c-0.25,9.27-0.47,18.54-0.7,27.82
		c-0.1,4,0.04,8.02-0.34,11.99c-0.51,5.38-0.18,10.77-0.63,16.14C114.84,244.18,114.85,244.38,114.85,244.53z"></path>
	<path d="M118.91,245.61c0,0,0.01,0.02,0.01,0.02c-0.18-5.83-0.12-11.66-0.44-17.48c-0.01-0.24-0.01-0.48-0.02-0.72
		c-0.13-9.47-0.25-18.94-0.39-28.41c-0.05-3.64-0.1-7.27-0.21-10.9c-0.03-0.92,0.26-1.14,1.15-1.14c0.91-0.01,1.03,0.38,1.01,1.15
		c-0.2,13.22-0.3,26.45-0.61,39.67c-0.11,4.75-0.12,9.5-0.27,14.25C119.1,243.23,118.99,244.42,118.91,245.61z"></path>
	<path d="M123.24,236.48c-0.2-2.53-0.1-5.35-0.46-8.17c-0.31-2.49-0.18-5.03-0.24-7.54
		c-0.28-10.82-0.55-21.65-0.82-32.47c-0.01-0.41-0.26-1.05,0.22-1.19c0.58-0.18,1.28-0.14,1.89-0.02c0.42,0.08,0.25,0.62,0.25,0.95
		c-0.04,4.55-0.09,9.11-0.14,13.66c-0.07,6.75-0.09,13.5-0.25,20.25C123.58,226.89,123.71,231.84,123.24,236.48z"></path>
	<path d="M110.4,207.93c0-6.55,0-13.1,0-19.66c0-1.12,1.07-1.77,2.04-1.22c0.46,0.26,0.26,0.72,0.25,1.08
		c-0.13,4.99-0.28,9.98-0.41,14.97c-0.2,7.47-0.37,14.93-0.58,22.4c-0.03,0.99-0.2,1.97-0.31,2.95c-0.02,0.19,0,0.44-0.27,0.46
		c-0.33,0.02-0.35-0.26-0.38-0.49c-0.02-0.24-0.02-0.48-0.02-0.72c0-6.59,0-13.18,0-19.77C110.61,207.93,110.5,207.93,110.4,207.93z
		"></path>
	<path d="M144.01,228.69c-0.36-0.36-0.23-0.74-0.23-1.08c-0.1-8.47-0.17-16.95-0.27-25.42
		c-0.05-4.68-0.12-9.35-0.22-14.03c-0.02-0.85,0.14-1.2,1.09-1.19c0.92,0.01,1.03,0.37,1.01,1.15c-0.36,13.23-0.7,26.45-1.05,39.68
		C144.33,228.1,144.42,228.45,144.01,228.69z"></path>
	<path d="M90.64,228.67c-0.49-0.24-0.29-0.69-0.3-1.05c-0.21-8.32-0.4-16.63-0.61-24.95
		c-0.12-4.84-0.27-9.67-0.42-14.51c-0.02-0.71-0.04-1.21,0.95-1.2c0.89,0.01,1.15,0.24,1.13,1.15c-0.18,13.24-0.33,26.47-0.49,39.71
		C90.91,228.12,91.06,228.49,90.64,228.67z"></path>
	<path d="M152.54,228.52c-0.27-0.44-0.22-0.85-0.23-1.25c-0.2-7.59-0.39-15.18-0.6-22.77
		c-0.15-5.43-0.32-10.86-0.49-16.3c-0.02-0.65-0.15-1.24,0.9-1.24c1.05,0,0.92,0.59,0.91,1.24c-0.1,13.07-0.2,26.14-0.31,39.21
		C152.72,227.76,152.84,228.14,152.54,228.52z"></path>
	<path d="M82.21,228.52c-0.33-0.36-0.21-0.69-0.21-0.99c-0.12-13.1-0.23-26.21-0.34-39.31
		c-0.01-0.64-0.16-1.29,0.9-1.24c0.74,0.03,0.96,0.24,0.93,0.97c-0.3,9.78-0.56,19.56-0.88,29.35
		C82.49,221.01,82.63,224.73,82.21,228.52z"></path>
	<path d="M86.06,228.55c0-1.78,0.02-3.55,0-5.33c-0.11-8.15-0.23-16.31-0.36-24.46c-0.05-3.32-0.18-6.63-0.18-9.95
		c0-0.63-0.74-1.84,0.87-1.81c1.5,0.03,0.8,1.17,0.8,1.77c-0.17,12.71-0.39,25.42-0.61,38.13c-0.01,0.54,0.11,1.1-0.1,1.63
		C86.33,228.54,86.2,228.54,86.06,228.55z"></path>
	<path d="M147.98,223.12c0-1.5,0.02-2.99,0-4.49c-0.16-10.12-0.33-20.23-0.49-30.35c-0.01-0.67-0.18-1.4,0.97-1.31
		c0.65,0.05,0.81,0.28,0.79,0.87c-0.14,6.72-0.26,13.43-0.38,20.15c-0.08,4.48-0.13,8.96-0.21,13.43c-0.01,0.58,0.07,1.18-0.23,1.71
		C148.28,223.14,148.13,223.13,147.98,223.12z"></path>
	<path d="M78.14,222.76c0-2.59,0.02-5.19,0-7.78c-0.08-8.95-0.18-17.91-0.28-26.86c-0.01-0.64-0.06-1.18,0.89-1.14
		c0.71,0.03,0.99,0.19,0.96,0.95c-0.09,2.04-0.1,4.08-0.16,6.11c-0.26,8.55-0.54,17.1-0.78,25.65c-0.03,1.04-0.43,2.01-0.3,3.06
		C78.35,222.75,78.25,222.75,78.14,222.76z"></path>
	<path d="M155.99,221.08c-0.13-4.35-0.25-8.7-0.38-13.05c-0.19-6.63-0.38-13.27-0.58-19.9
		c-0.02-0.63-0.09-1.18,0.87-1.15c0.72,0.02,0.99,0.19,0.96,0.95c-0.08,1.96-0.1,3.92-0.12,5.87c-0.09,8.32-0.17,16.63-0.27,24.95
		c-0.01,0.78-0.18,1.56-0.28,2.34C156.12,221.08,156.06,221.08,155.99,221.08z"></path>
	<path d="M176.42,222.41c-0.16-11.38-0.31-22.77-0.46-34.15c-0.01-0.4-0.24-0.91,0.25-1.2
		c0.59-0.36,1.27,0.05,1.25,0.78c-0.16,6.39-0.35,12.78-0.51,19.17c-0.1,3.99-0.15,7.99-0.25,11.99c-0.03,1.14-0.15,2.27-0.23,3.41
		C176.46,222.4,176.44,222.41,176.42,222.41z"></path>
	<path d="M56.96,221.12c-0.27-11.01-0.54-22.02-0.81-33.03c-0.01-0.53-0.23-1.17,0.74-1.1
		c0.5,0.04,0.75,0.18,0.71,0.7c-0.02,0.2,0,0.4-0.01,0.6c-0.11,9.59-0.21,19.18-0.34,28.77c-0.02,1.35-0.17,2.7-0.26,4.06
		C56.98,221.12,56.97,221.12,56.96,221.12z"></path>
	<path d="M52.71,216.62c-0.43-9.39-0.31-18.8-0.57-28.21c-0.01-0.32-0.01-0.64,0-0.96c0.02-0.36,0.26-0.45,0.58-0.45
		c0.32,0,0.54,0.11,0.56,0.47c0.01,0.2,0,0.4,0,0.6c-0.12,9.03-0.25,18.07-0.37,27.1C52.89,215.68,52.91,216.19,52.71,216.62z"></path>
	<path d="M180.76,216.81c-0.16-9.51-0.32-18.84-0.44-28.17c-0.01-0.54-0.55-1.61,0.56-1.57
		c1.03,0.03,0.51,1.07,0.51,1.63c-0.08,7.8-0.2,15.59-0.34,23.39C181.01,213.6,180.86,215.11,180.76,216.81z"></path>
	<path d="M184.87,210.26c-0.06-0.99-0.14-1.98-0.17-2.98c-0.18-6.35-0.36-12.71-0.51-19.06
		c-0.01-0.46-0.38-1.24,0.62-1.21c0.98,0.03,0.58,0.81,0.58,1.27c-0.02,4.44-0.09,8.88-0.13,13.31
		C185.23,204.48,184.86,207.36,184.87,210.26z"></path>
</g>
</svg>
