<!--?xml version="1.0" encoding="utf-8"?-->
<!-- Generator: Adobe Illustrator 24.2.3, SVG Export Plug-In . SVG Version: 6.00 Build 0)  -->
<svg version="1.1" id="Camada_1" xmlns="http://www.w3.org/2000/svg" xmlns:xlink="http://www.w3.org/1999/xlink" x="0px" y="0px" viewBox="0 0 229 418" enable-background="new 0 0 229 418" xml:space="preserve">
<g onclick="select(this)" class="" id="estampa-primaria" fill="#000000">
	<path d="M42.4525146,112.7778625c-0.8959656-0.1017761-1.4921265,0.6431503-2.3408813,0.7894821
		c-2.3294182,0.4016266-4.6686974,0.4893799-7.0189934,0.5657349c-5.6645355,0.1840439-11.3184147-0.0333939-16.9397697-0.6843262
		c-5.0782709-0.5880508-9.9922829-1.9331818-14.739399-3.8523865c1.6968609-8.914566,2.4887414-17.9633636,4.0001216-26.9052277
		c0.8855782-5.2393951,1.1788788-10.5595551,2.2399788-15.7781677c1.7292542-8.504673,4.4516625-16.5878448,9.6675148-23.6606789
		c2.1221428-2.8776779,4.5377884-5.4906731,7.3400173-7.7103424c1.3638763-1.0803337,2.3639584-2.5835495,3.9253693-3.4050064
		c3.6099453-1.8991852,7.2583332-3.7276974,11.0324497-5.2813187c9.9905014-4.1125946,20.000515-8.1803665,29.4651909-13.4415846
		c1.9752426-1.0979939,3.9976349-2.0948963,5.5164642-3.8997173c0.8439026-1.0028076,2.0582657-1.6470857,3.4946365-1.5515785
		c-0.7558746,0.5328951-1.5331879,1.0660648-1.6987534,2.062746c-0.1725082,1.0384579-0.0040817,2.0608931,0.2305679,3.0806484
		c0.8830185,3.837533,3.1326141,6.8899431,5.7837296,9.6242762c4.1407776,4.2707672,9.0156021,7.5629692,14.3707428,10.1524506
		c3.6889725,1.783802,7.5359039,2.990303,11.6402817,3.2895241c0.3121796,0.0227585,0.7304688,0.2811508,0.9042816-0.2512054
		c0.4935303,0.34338,1.0183792,0.5796623,1.6344376,0.6280861c2.3348923,0.1835098,4.6674423,0.3629379,6.9804306-0.1974907
		c1.4196167-0.1702423,2.8583298-0.2460022,4.2553558-0.5279999c4.6530914-0.9392471,8.8572388-3.0047417,12.9284058-5.3568268
		c3.3010712-1.907156,6.3566895-4.1787777,9.102417-6.8089809c3.0971222-2.9667912,5.4711609-6.4257278,6.6416321-10.6471872
		c0.6194-2.2338791,0.0160675-4.2730255-1.6763763-4.744153c1.9420929-0.322947,3.1181183,0.8977289,4.248703,2.1526375
		c0.3474121,0.3856363,0.6847076,0.7271471,1.1279755,1.0213566c8.8716431,5.8886719,18.7898102,9.6126652,28.5267792,13.6823082
		c5.0673981,2.11796,10.038208,4.4440956,15.0911713,6.5874882c0.2853394,0.1210365,0.5591431,0.2838707,0.8124237,0.4636726
		c11.9666901,8.4952011,19.1779327,20.08321,21.3682709,34.4821701c1.7443542,11.4671555,4.7389374,22.6825333,6.318634,34.166687
		c0.3372803,2.4519806,0.734375,4.8957443,1.1039429,7.3433762c-0.6231995,0.2587509-1.2245331,0.6173401-1.8733063,0.7590942
		c-3.0727844,0.6713867-5.9807739,1.8872681-9.0736084,2.5406494c-3.9409485,0.8325424-7.895462,1.5586319-11.8859558,1.9935684
		c-5.5944672,0.6097641-11.2156982,0.2853394-16.8232422,0.0108337c-1.0757751-0.0526581-2.1148071-0.3867111-3.0544434-0.9562912
		c0.9133911-6.7970581,2.1953278-13.5191116,4.0814209-20.1194687c0.1157684-0.4051895,0.4060059-0.7978287,0.1864471-1.257576
		c0.2286835,0.013588,0.220459-0.1446915,0.208313-0.2966614c-0.0024261-0.0302887-0.0488129-0.0570526-0.0749512-0.0854416
		c-0.0375671,0.1338348-0.0751343,0.267662-0.1127014,0.4015045c-0.3382111,0.0892105-0.3290253,0.4327927-0.4303589,0.6598129
		c-2.0418243,4.5738068-3.5193329,9.3472748-4.7613068,14.1821518c-2.4084015,9.3755341-3.9837952,18.8970871-4.9313965,28.5371094
		c-0.4706268,4.7878876-0.8178406,9.5828094-1.1401062,14.3773499c-0.3235474,4.8140259-0.4896545,9.6474457-0.4935303,14.4725189
		c-0.0137329,17.0256653-0.293335,34.0512085,0.1540527,51.0777435c0.191925,7.3041687,0.2595215,14.6112518,0.5149689,21.9160767
		c0.170105,4.8651276,0.3197784,9.7314301,0.4851532,14.597168c0.2033081,5.9811401,0.4586487,11.9578552,0.7411346,17.9355164
		c0.2373199,5.0215149,0.4161835,10.0449524,0.8100586,15.0577393c-7.654129,1.0699463-15.3581696,1.3612976-23.0732422,1.4522095
		c-12.9472198,0.1525879-25.8881531,0.5621033-38.8301086,0.9285583c-6.7608643,0.1914368-13.4958496-0.465271-20.2470093-0.5768127
		c-8.7105942-0.1439209-17.4220123-0.2460938-26.1319199-0.4232483c-8.3101959-0.1690063-16.6230583-0.3526306-24.8476982-1.7511597
		c0.5422516-3.7596436,0.4815598-7.5604248,0.7390556-11.3394775c0.3821983-5.6092529,0.5796967-11.2329712,0.7604179-16.8535767
		c0.1423416-4.4268494,0.2932549-8.852417,0.473175-13.2781372c0.2545853-6.2624054,0.3896675-12.5300751,0.535202-18.7964172
		c0.0927391-3.9929047,0.1909142-7.9915466,0.1893997-11.9799347c-0.00811-21.4069519,0.6336784-42.8216705-0.6577225-64.2175446
		c-0.2539635-4.2076416-0.5594025-8.4050293-0.9685097-12.6003418c-0.4473228-4.5871887-1.0582695-9.1419525-1.8283081-13.6878357
		c-1.0712128-6.3238525-2.2926559-12.6049652-4.1846809-18.7393494c-0.5815163-1.8854294-1.0368538-3.8216553-1.9383469-5.6982117
		c-0.5278625,0.8900604,0.2040977,1.4512558,0.2923431,2.1296234c0.3710556,2.852478,0.8811569,5.6868515,1.2544365,8.5390854
		C42.1011581,108.9703293,42.5416451,110.8479462,42.4525146,112.7778625z"></path>
	<path d="M127.5429077,26.2013454c-6.4310379-0.0194588-12.8620758-0.0499077-19.2931213-0.0533142
		c-2.8337784-0.0015011-5.6675949,0.0519543-8.5014725,0.080719c-5.0048599-4.1429901-10.5227814-7.7175179-14.446312-13.0585613
		c-0.7870941-1.0714455-1.3979874-2.228776-1.9132462-3.447176c-0.3056183-0.7226677-0.0586929-0.9086885,0.6669769-0.8316221
		c7.1110229,0.755187,14.2389526,1.3106298,21.3717041,1.816123c5.5933609,0.3963957,11.1826706,0.3527241,16.7722092-0.018959
		c5.381424-0.3578434,10.7616425-0.7339849,16.1413574-1.1168613c1.9062347-0.1356678,3.8093567-0.3148613,5.8538818-0.4858923
		c-0.84935,2.3374853-2.1702576,4.2213564-3.6611938,5.995595c-1.937149,2.3052006-4.1574707,4.311861-6.5503387,6.1364632
		C131.8248596,22.8637238,129.6888275,24.5390263,127.5429077,26.2013454z"></path>
</g>
<g onclick="select(this)" class="" id="estampa-secundaria" fill="#a2cff0">
	<path d="M113.8791199,286.3792419c-5.7036362-0.0522766-11.1337662-0.2828064-16.2632675-0.6396484v-169.832428
		c-18.2300415,0-36.4600792,0-54.6901207,0c-0.2812653-1.6402893-0.7273941-4.3317566-1.2057304-7.6773376
		c-1.2700615-8.8830872-1.0035706-10.0426636-2.1469688-14.0551758c-0.263485-0.9246521-1.1798439-3.531311-3.0125656-8.7446899
		c-1.3585434-3.8645325-1.6098747-4.4663086-1.8131828-4.9355774c-0.7813187-1.8034058-1.280674-2.5662537-1.6122322-4.0045471
		c-0.4134026-1.793335-0.3823471-3.3291321-0.3044205-4.2944946l64.6349182-0.3570557
		c0.0612946-15.3894043,0.1225815-30.7787781,0.183876-46.1681824c1.6311874,0.7889099,3.9017944,1.7486267,6.7105789,2.5197144
		c2.0737152,0.5693054,5.294014,1.4282532,9.5999985,1.3800049c4.5292587-0.0507507,8.2798157-1.0830383,10.9199982-2.1000061
		c1.9353027-0.7454529,3.4882126-1.5652161,4.6030502-2.2200012c0,15.5200195,0,31.0400085,0,46.5600281
		c21.7100983,0,43.4202118,0,65.1303101,0c-0.0877838,3.6129456-0.6561279,6.4530945-1.1760406,8.4133606
		c-0.2967682,1.1189575-0.5697327,1.920929-2.3128357,6.73526c-2.4184113,6.6794434-2.2479095,6.1159973-2.4589996,6.7601624
		c-1.4988098,4.573822-1.3704681,6.3586121-3.6608429,19.1673584c-0.2342987,1.3103333-0.4298401,2.3776855-0.5531616,3.0466003
		l-54.9400635,0.1850586l0.1655426,169.9440308C124.6830597,286.3084106,119.4085388,286.4299316,113.8791199,286.3792419z"></path>
</g>
<g onclick="select(this)" class="" id="estampa-terciaria" fill="#ffffff">
	<path d="M111.5395813,286.3806763c-0.0155029-0.4384155-0.0446014-0.8768311-0.0445557-1.3152161
		c0.0024719-22.8174438-0.0056839-45.6349335,0.0156631-68.4523621c0.0228882-24.4555664,0.0726013-48.9111023,0.112915-73.3666382
		c0.0249634-15.1447754,0.0542374-30.2895355,0.0815735-45.4343033c0.0005112-0.2797241-0.0175552-0.5610123,0.0058746-0.8387985
		c0.0361023-0.428154-0.1689606-0.567894-0.5635834-0.5500641c-0.3188629,0.0144043-0.6389313,0.0018158-0.9584579,0.0018158
		c-23.0063629-0.0003967-46.0127335-0.0006943-69.0190964-0.0014954c-0.3593597-0.0000153-0.7187195-0.0063171-1.0780792-0.0096893
		c-0.0392456-0.1399384-0.0784874-0.2798615-0.117733-0.4197922c0.4369926-0.0239182,0.8739815-0.068718,1.3109818-0.068779
		c23.1694374-0.0031738,46.338871-0.0025864,69.508316-0.0023499c0.2396851,0,0.4807358,0.0169373,0.7187729-0.0027618
		c0.4973907-0.0411682,0.7580338,0.1341248,0.702858,0.6728592c-0.0243073,0.2373428-0.0047531,0.479187-0.005043,0.7189789
		c-0.0367966,31.3335342-0.0718384,62.6670456-0.1117096,94.0005569c-0.0089951,7.0737762-0.108902,14.1483307-0.0313263,21.2210388
		c0.072319,6.5927887-0.0183945,13.1853638,0.0626907,19.7768097c0.2187653,17.7838593,0.0379181,35.5680237,0.1008835,53.3518677
		c0.0008469,0.2389221-0.0265427,0.4779358-0.0407486,0.7169189
		C111.9730301,286.3797302,111.7563095,286.3802185,111.5395813,286.3806763z"></path>
	<path d="M187.4396667,98.6085205c-0.6789551,0.0061646-1.3579102,0.0177078-2.03685,0.0177078
		c-22.3342285-0.000061-44.668457-0.0029526-67.0026627,0.0014572c-1.5649414,0.0003052-1.373703-0.2430344-1.3716583,1.4099579
		c0.0223541,18.0677032,0.0424805,36.1354065,0.0785446,54.2030792c0.0525894,26.3416901-0.0153809,52.6845856,0.224823,79.0246277
		c0.1574554,17.2668457,0.1024933,34.5324402,0.173439,51.7984619c0.0018082,0.4390869-0.0205231,0.8782959-0.031601,1.3174438
		c-0.2240067-0.0008545-0.4480133-0.0016785-0.6720276-0.0025024c-0.0113754-0.4790039-0.0323868-0.9580078-0.0327148-1.4369812
		c-0.0100098-14.5475464-0.0186157-29.0950928-0.0261154-43.6426239c-0.0095901-18.6238708,0.0004654-37.247757-0.0312805-55.871582
		c-0.0487137-28.5754547-0.1273956-57.1508636-0.1870117-85.7262955c-0.0035858-1.7181244-0.2763062-1.555397,1.4904404-1.5555878
		c22.729866-0.0024414,45.4597244-0.0004044,68.1895828,0.0030289c0.4383392,0.0000687,0.8766632,0.0307007,1.3150024,0.0470886
		C187.4929504,98.333374,187.4662933,98.4709473,187.4396667,98.6085205z"></path>
	<path d="M120.1973419,286.3735962c-0.024437-0.3973999-0.0702438-0.7947998-0.0702438-1.1921997
		c0.0000992-16.0271606,0.0030594-32.0543365,0.0086899-48.0814819c0.0020447-5.8348541,0.0239563-11.669693,0.015564-17.5045319
		c-0.0255051-17.7451019-0.0421219-35.4902649-0.0986176-53.2352905
		c-0.0564957-17.7453918-0.1537247-35.4906921-0.2411957-53.2359848c-0.0147781-2.9972534-0.0810013-5.9942169-0.103157-8.9914703
		c-0.0120621-1.6317596-0.2751694-1.4899368,1.4230194-1.4903641c10.2269669-0.0026093,20.4539566,0.0004044,30.6809311,0.0013199
		c11.1457977,0.0009918,22.2916107,0.0013123,33.4374084,0.0041733c0.4390564,0.0001144,0.8781128,0.0233612,1.3171692,0.0358276
		c0.0341949,0.1634369,0.0194092,0.3190155-0.0742493,0.4618759c-21.5732727-0.0007858-43.1465607-0.0015488-64.7198334-0.0023499
		c-0.1598053,0-0.3196259,0.0010147-0.4794083-0.0004883c-1.3312988-0.0124969-1.1053391,0.0465622-1.0852509,1.0963211
		c0.1927109,10.0709991,0.1375275,20.1434784,0.1798706,30.2153168c0.1110535,26.4193573,0.1186447,52.8395386,0.3333588,79.2580261
		c0.192627,23.7014923,0.0800171,47.4024506,0.1386414,71.1035309c0.0012741,0.5169373,0.0690384,1.0402527-0.0792236,1.5507202
		C120.5863266,286.368866,120.3918304,286.3712158,120.1973419,286.3735962z"></path>
	<path d="M186.9626312,100.8980103c-0.4788208,0.0101929-0.9576263,0.0293198-1.4364319,0.0292892
		c-21.6884308-0.0012665-43.3768768-0.0042191-65.0653-0.006958c-0.2396469-0.0000305-0.4793091-0.0016098-0.7189484,0.0002518
		c-1.1053238,0.0085678-1.1089783,0.0089111-1.1057663,1.0878677c0.0426712,14.3058853,0.0423889,28.6120682,0.1399536,42.9175797
		c0.1580734,23.1768494,0.0407333,46.3545837,0.2108231,69.5306854c0.1724472,23.4960632,0.192627,46.9917603,0.1960297,70.4878845
		c0.0000763,0.478363-0.0322723,0.9567871-0.0494919,1.4351501c-0.2113419-0.0003052-0.4226761-0.0006714-0.6340103-0.0010376
		c-0.0179062-0.438446-0.0514221-0.8768616-0.0514603-1.3153076c-0.0023804-22.4260254,0.007637-44.8520813-0.0046921-67.2781067
		c-0.01017-18.5084229-0.0259552-37.016922-0.0766754-55.5252686c-0.0553284-20.1870575-0.1537476-40.3739777-0.2333374-60.5609589
		c-0.0009384-0.2398453,0.0145874-0.4810486-0.0055618-0.7192383c-0.0364609-0.43116,0.182373-0.5669785,0.5719604-0.5494843
		c0.2392044,0.0107346,0.4793625-0.0002289,0.7190933-0.0001907c22.1357498,0.003334,44.271492,0.0065689,66.4072495,0.0121994
		c0.3986969,0.0001068,0.7973938,0.0292435,1.196106,0.044838
		C187.0743866,100.6345978,187.0491638,100.770752,186.9626312,100.8980103z"></path>
	<path d="M40.3898506,98.2058029c0.4372978-0.0196533,0.8745842-0.0564194,1.3118858-0.0565033
		c22.4518738-0.0039673,44.9037399-0.0061264,67.3556137-0.0034103c1.7694397,0.0002136,1.5069046-0.1786346,1.5041656,1.5411224
		c-0.0401077,25.2602997-0.0848465,50.5205841-0.1342392,75.7808838
		c-0.0254669,13.0295563-0.0793381,26.059082-0.0902023,39.0886536
		c-0.0195389,23.4212036-0.0158997,46.8424377-0.0253983,70.2636414c-0.000206,0.5174255,0.0610428,1.0398865-0.0737991,1.5517273
		c-0.1905365-0.0038757-0.3810654-0.0077515-0.5716019-0.0116577c-0.0303879-0.3162537-0.0875397-0.6325684-0.0873413-0.9487915
		c0.0089722-14.3086853-0.1069794-28.618927,0.0639954-42.9257355c0.3343353-27.9767761,0.1457443-55.9542542,0.2857056-83.931076
		c0.0977783-19.544632,0.092041-39.089798,0.1325302-58.6347198c0.0004196-0.199852-0.0147705-0.4012222,0.004425-0.5992508
		c0.047821-0.4933014-0.1119843-0.7607498-0.6598587-0.7017365c-0.2764435,0.0297775-0.558754,0.0050278-0.8384094,0.005043
		c-22.2925949,0.0009995-44.5852013,0.002182-66.8777924,0.0016479c-0.3988914-0.0000076-0.7977791-0.0205383-1.1966705-0.0314941
		C40.342514,98.4954834,40.3319054,98.3597412,40.3898506,98.2058029z"></path>
	<path d="M106.26651,286.1482239c-0.0159454-0.35849-0.046051-0.7170105-0.0458221-1.075531
		c0.0133972-21.1829224-0.0871964-42.3667603,0.0778503-63.5485077c0.1634979-20.9822998,0.119072-41.9647675,0.2674408-62.9467773
		c0.1192474-16.8656464,0.1617279-33.731842,0.2430496-50.5977707c0.0065536-1.35849,0.0286865-2.71772,0.0869217-4.0747452
		c0.0238037-0.5546417-0.1102905-0.8378067-0.7160416-0.7675858c-0.2759476,0.0319901-0.5586548,0.0057526-0.838295,0.0057983
		c-20.9732056,0.0036621-41.9464188,0.007431-62.9196243,0.0101089c-0.3993797,0.0000534-0.7987556-0.0127029-1.1981392-0.0194931
		c-0.1585045-0.1110153-0.1746864-0.2583923-0.1089439-0.426712c0.4374504-0.0202789,0.874897-0.058197,1.3123474-0.0582962
		c21.1351089-0.0048065,42.2702179-0.0063629,63.4053192-0.0082626c0.2397232-0.0000229,0.4827652,0.0258179,0.7185364-0.0046844
		c0.7040329-0.0910568,0.8652344,0.2346878,0.850853,0.891777c-0.0665131,3.036705-0.1099319,6.0743179-0.1224365,9.111763
		c-0.0661316,16.0685501-0.1179504,32.1371689-0.1794968,48.2057419
		c-0.0724182,18.9062042-0.1946182,37.8123322-0.2132492,56.7185822
		c-0.0220261,22.3433228,0.0439453,44.6867371,0.0690384,67.0301514c0.0005875,0.5186768-0.0312653,1.0374451-0.0479813,1.5561523
		C106.6940613,286.149353,106.4802856,286.1488037,106.26651,286.1482239z"></path>
	<path d="M41.8008156,107.2114639c0.4386673-0.0132828,0.8773346-0.038002,1.3160057-0.0382004
		c19.7360802-0.009201,39.4721603-0.0162582,59.2082367-0.0235519c0.2397079-0.0000916,0.4794312-0.0016632,0.7191238,0.0001526
		c1.092453,0.0082626,1.093399,0.0086136,1.0842361,1.1008606c-0.0914764,10.9112015-0.2020035,21.8222885-0.2710266,32.7336349
		c-0.134758,21.3034821-0.244278,42.6071472-0.3685303,63.9106903c-0.0573425,9.8322296-0.2092056,19.6647491-0.168396,29.496521
		c0.0655365,15.7879181,0.005188,31.5756836,0.0384445,47.3634338c0.0029449,1.3985291-0.0331116,2.7970886-0.051033,4.1956787
		c-0.1647263-0.0000305-0.3294525-0.0000916-0.4941788-0.0001221c0.074028-2.276886-0.2100143-4.5411987-0.2035065-6.8192444
		c0.0363464-12.7358398-0.0918045-25.4732056,0.059166-38.2073822c0.3439941-29.0166016,0.3385391-58.03508,0.5964355-87.0519409
		c0.1335602-15.0284576,0.238945-30.0571747,0.3567963-45.0857697c0.0097275-1.2410736,0.1433945-1.1458206-1.158432-1.1455002
		c-19.7366638,0.0048828-39.47332,0.0119705-59.2099762,0.0163879c-0.4786224,0.0001144-0.9572525-0.0243301-1.4358749-0.0373154
		C41.8124733,107.4836884,41.8066483,107.3475723,41.8008156,107.2114639z"></path>
	<path d="M122.1542053,286.3455505c-0.1802216-0.4220886-0.1090164-0.8674927-0.109375-1.3031616
		c-0.0163116-19.6600647-0.0005035-39.3202362-0.0501785-58.9802399
		c-0.0474548-18.7797241-0.1593781-37.5593109-0.2491074-56.3389282c-0.0668182-13.9855652-0.1326752-27.9711609-0.220192-41.956604
		c-0.0440216-7.032547-0.1353836-14.0647964-0.2050934-21.0971832c-0.0035629-0.3596191,0.0243225-0.7223511-0.0134277-1.0782089
		c-0.0643692-0.6068878,0.2317276-0.7803268,0.7720718-0.7263184c0.1581726,0.0158005,0.3192902,0.0018082,0.4790573,0.0018692
		c20.929039,0.0075073,41.8580704,0.0148621,62.7871017,0.0249023c0.2771759,0.0001297,0.5543213,0.0345078,0.8314667,0.0529022
		c0.0827332,0.1692123,0.0000763,0.2904816-0.1164398,0.4019089c-15.5035706,0.0005417-31.0071106,0.0014191-46.5106812,0.0014343
		c-5.4742584,0.0000076-10.9485168-0.0070648-16.4227753-0.0000458c-1.5076599,0.0019302-1.3164749-0.2006836-1.2956238,1.3594589
		c0.2121964,15.8695221,0.237709,31.7401581,0.301712,47.6105957c0.0635223,15.7505493,0.0867233,31.5016022,0.2381287,47.2513733
		c0.2670975,27.7831879,0.125061,55.5666504,0.1671906,83.3499451c0.0007248,0.4755859,0.0812759,0.9617004-0.1076202,1.4247437
		C122.3383484,286.3445129,122.2462769,286.3450012,122.1542053,286.3455505z"></path>
	<path d="M187.9454041,96.4108047c-15.6583557,0.0047455-31.3167114,0.0102768-46.9750671,0.0139084
		c-8.0289917,0.0018692-16.0579758,0.0003204-24.0869675,0.0003357c-1.5339737,0.0000076-1.5341492,0.0000534-1.5341492,1.484581
		c-0.0000229,62.3041306,0.0000458,124.6082535-0.0012283,186.912384c-0.0000076,0.519043-0.0181885,1.0381165-0.0278702,1.5571594
		c-0.1471329-0.0001526-0.2942581-0.0002747-0.441391-0.0003967c-0.0097275-0.479187-0.027977-0.9583435-0.0279846-1.4375
		c-0.0012589-62.4732666-0.0011902-124.9465027-0.0011826-187.419754c0-1.5984268,0.0000763-1.598526,1.5443802-1.5985413
		c23.3714218-0.0002289,46.7428513-0.000885,70.1142654,0.0023575c0.5171356,0.0000687,1.0342865,0.0446396,1.5514221,0.0684586
		C188.0215302,96.1328049,187.9834595,96.2718048,187.9454041,96.4108047z"></path>
	<path d="M41.4906006,104.9396286c0.4381065-0.0168152,0.8762054-0.0481491,1.3143158-0.0483627
		c20.4920845-0.0098724,40.984169-0.0185165,61.4762497-0.0218277c1.7079163-0.0002823,1.5026169-0.1882248,1.4826813,1.4334564
		c-0.2543716,20.7002029-0.259758,41.4018936-0.3785172,62.1028976
		c-0.0900955,15.7055664-0.1411896,31.4113922-0.2492828,47.1168518
		c-0.158432,23.0187073-0.0648956,46.0375977-0.0991516,69.0563965c-0.0007629,0.5169067,0.0697021,1.0403748-0.0842133,1.5500488
		c-0.107254-0.0021667-0.2145081-0.004364-0.3217621-0.0065613c-0.1385345-0.388031-0.0891495-0.7913513-0.0886993-1.1888428
		c0.0283203-25.4614258-0.0702744-50.9229279,0.1076355-76.3842468c0.1167526-16.7071686,0.1685638-33.4147949,0.2566223-50.1221924
		c0.0705719-13.3898315,0.1476746-26.7796478,0.2311935-40.1694183c0.0241776-3.8767929,0.0844421-7.753334,0.1201172-11.6300812
		c0.0135651-1.474678,0.1462402-1.2809525-1.2588348-1.2808228c-20.2157745,0.0019608-40.4315567,0.0085068-60.6473351,0.0126801
		c-0.5992737,0.0001144-1.1985474-0.0136795-1.7978249-0.0209732
		C41.5327301,105.2056351,41.5116653,105.0726242,41.4906006,104.9396286z"></path>
	<path d="M113.8985519,28.5996647c0.0039673,0.4395218,0.0114059,0.8790436,0.0114136,1.3185654
		c0.0005112,85.0079727,0.0005341,170.0159454-0.0008087,255.0239105c-0.0000153,0.4790649-0.0196457,0.9580994-0.0300369,1.4371033
		c-0.1455383,0.0002441-0.291153,0.0005798-0.4368515,0.000885c-0.010376-0.3591919-0.0296936-0.7183228-0.0297012-1.0774841
		c-0.0012894-85.3278961-0.0012665-170.6557922-0.0007858-255.9836884c0-0.2397022,0.0070724-0.4794006,0.0110321-0.718998
		C113.581459,28.5312901,113.739975,28.5313549,113.8985519,28.5996647z"></path>
	<path d="M40.8251457,100.4822464c0.478611-0.0141373,0.9572105-0.040535,1.4358215-0.0406494
		c21.8145561-0.0053024,43.6291237-0.0083008,65.4436798-0.0115891c0.1598206-0.0000229,0.3218384,0.016861,0.4790421-0.0034714
		c0.6139069-0.0793686,0.8723984,0.1351395,0.8271942,0.7967377c-0.0680161,0.995636-0.0680847,1.9968872-0.0713882,2.995842
		c-0.0647659,19.5863342-0.1017685,39.1728058-0.1926498,58.7590027
		c-0.1882401,40.5714722-0.0775909,81.1431122-0.1112137,121.7146606c-0.0003357,0.3995056-0.000824,0.799469-0.01931,1.1983643
		c-0.0078812,0.1699829-0.1091614,0.2819214-0.3014221,0.2879639c-0.2264481,0.0070801-0.3915024-0.0641174-0.4039688-0.3146057
		c-0.0138931-0.2791748-0.0138092-0.5592346-0.0135727-0.8388977c0.0146484-16.9481506-0.0952682-33.897583,0.0736847-50.8442078
		c0.2721786-27.2999725,0.1020432-54.6005249,0.281601-81.9003143c0.1098785-16.7077332,0.1383667-33.4159927,0.2034302-50.1240234
		c0.0007782-0.1998596-0.0139465-0.4013214,0.0060959-0.5992508c0.0461273-0.4553528-0.1337967-0.6671829-0.6038818-0.6387787
		c-0.3184052,0.0192337-0.6390076,0.001358-0.9586258,0.0013962c-21.6147919,0.0026398-43.2295876,0.0056076-64.8443756,0.0064087
		c-0.3982735,0.0000153-0.7965508-0.0257416-1.1948242-0.0394745
		C40.8486862,100.7523193,40.8369179,100.6172867,40.8251457,100.4822464z"></path>
	<path d="M185.7057648,107.6122131c-0.478302,0.0155716-0.9565887,0.044838-1.4348907,0.0447464
		c-19.8174133-0.0040741-39.6348419-0.0120697-59.4522552-0.0147629c-1.5750961-0.0002136-1.3568954-0.1601334-1.3462296,1.3103714
		c0.0968857,13.3506088,0.2083893,26.7011032,0.2956772,40.0517807c0.1602173,24.5029144,0.3578033,49.0057831,0.4436722,73.5089874
		c0.0729752,20.8252258,0.0111084,41.6509094,0.0041428,62.4763794c-0.0001144,0.3668518,0.0849991,0.7562866-0.1437836,1.2281799
		c-0.3804626-0.4286804-0.2693405-0.8392639-0.273056-1.2058411c-0.033287-3.2762756-0.0734253-6.5527039-0.0751877-9.829071
		c-0.0067291-12.6315002-0.0370483-25.2631683,0.0134048-37.894516c0.0400848-10.0326843,0.0060043-20.065155-0.101593-30.0963287
		c-0.138443-12.9109039-0.1113129-25.8220062-0.1973038-38.7328186
		c-0.0846634-12.7109375-0.1685867-25.4219055-0.2661896-38.1327515c-0.05616-7.3145981-0.138855-14.6289749-0.2096634-21.9434586
		c-0.0019302-0.199852,0.0103607-0.4011765-0.0094833-0.5992584c-0.0453873-0.45298,0.1279831-0.6735535,0.6022415-0.6363297
		c0.2382278,0.0187073,0.4791946,0.0021133,0.7189102,0.0022049c20.0971146,0.007309,40.1942062,0.0143585,60.2913284,0.0245514
		c0.398056,0.000206,0.7960815,0.0373535,1.1941376,0.0572662
		C185.8189697,107.3693848,185.8011627,107.4962921,185.7057648,107.6122131z"></path>
	<path d="M37.2403221,86.9762039c0.5983276-0.0126572,1.1966553-0.0364532,1.7949791-0.0363617
		c22.494072,0.0031281,44.9881439,0.0084534,67.4822083,0.0134735c0.2397308,0.0000534,0.4794464,0.0003433,0.7191772-0.0000763
		c1.4103622-0.0024872,1.2246628,0.0161819,1.2166443-1.2311859c-0.0909424-14.1498718-0.1893539-28.2996826-0.2752457-42.4495773
		c-0.0298538-4.9165497-0.031189-9.8332748-0.042778-14.7499237c-0.000473-0.1986313,0.0275574-0.3973293,0.0422974-0.5959969
		c0.1893997-0.0740566,0.3373871-0.0096531,0.4605026,0.1378746c0.0900421,17.0692482,0.1780701,34.138504,0.2723694,51.2077179
		c0.0134735,2.4383545,0.0330963,4.8772202,0.1029282,7.3143234c0.0191956,0.6698914-0.1373672,0.9915314-0.8426743,0.8973618
		c-0.1177673-0.0157242-0.2394409-0.0019531-0.359314-0.0019684c-23.3746872-0.0027084-46.7493782-0.0054169-70.1240692-0.0085449
		c-0.0798416-0.0000153-0.159687-0.0061722-0.2395287-0.0094528C37.3303299,87.3218918,37.1767197,87.1953049,37.2403221,86.9762039
		z"></path>
	<path d="M103.4359589,26.6410065c0.2259979,17.303215,0.4520035,34.6064262,0.6779785,51.9096375
		c0.001564,0.1198883,0.0016479,0.2398148,0.0045624,0.3596649c0.0450287,1.8525543,0.0451126,1.8532486-1.8676071,1.8523102
		c-22.3702621-0.010994-44.7405205-0.022171-67.1107788-0.0342178c-0.1193848-0.0000687-0.2387619-0.0132141-0.358139-0.0202484
		c-0.1606598-0.1221085-0.2532921-0.2763596-0.2292595-0.4857254c0.4785385-0.0112457,0.9570885-0.0325851,1.4356232-0.0322876
		c22.0790405,0.0133896,44.1580887,0.0286636,66.2371292,0.0437393c0.1597061,0.0001068,0.322052-0.0183411,0.478653,0.00383
		c0.7229767,0.1023102,0.9630127-0.1687469,0.9394531-0.923233c-0.0747986-2.3950043-0.0672226-4.7924881-0.1004715-7.1888885
		c-0.2067184-14.897625-0.4163055-29.7952042-0.6214218-44.6928482c-0.0043716-0.3177376,0.0331802-0.6360474,0.0511703-0.954092
		C103.1272202,26.5327682,103.2815857,26.5868893,103.4359589,26.6410065z"></path>
	<path d="M190.8144836,87.4609833c-15.4614563,0.0059586-30.9231873-0.0419617-46.3842316,0.0395584
		c-8.3076935,0.0437927-16.6151276,0.0265198-24.9226151,0.0551529c-1.4864426,0.005127-1.2982483,0.1966095-1.298584-1.2340088
		c-0.0045166-19.1463089-0.003067-38.2926102-0.0024719-57.4389114c0.0000076-0.2397041,0.0082169-0.4794083,0.0125809-0.7191124
		c0.1345291-0.1316223,0.2921906-0.1418705,0.4620438-0.0881462c0.0081558,0.5190983,0.0233994,1.0382004,0.0234299,1.5572987
		c0.0012207,18.5772057,0.0010376,37.1544037,0.0010452,55.7316132c0,0.2397079-0.0022202,0.4794312,0.0004044,0.7191086
		c0.0105743,0.9638672,0.0111237,0.9743729,0.9590378,0.9747543c7.4273605,0.0029907,14.8557053,0.0800858,22.281868-0.0144424
		c16.1692352-0.2058334,32.3385162-0.0325317,48.5075531-0.1028824c0.1972504-0.0008621,0.3946686,0.0376892,0.5920105,0.0578384
		C191.0826263,87.209877,190.9338226,87.3280258,190.8144836,87.4609833z"></path>
	<path d="M193.3000641,80.6509705c-3.7931671,0.0269241-7.5863037,0.0724182-11.3794861,0.0773621
		c-12.7003021,0.0165634-25.4009552-0.0353394-38.100769,0.0489197c-6.3872223,0.0423813-12.7741852,0.0361404-19.161232,0.0633316
		c-1.3102798,0.0055771-1.1762695,0.1549454-1.1763153-1.1180344c-0.0005646-17.6210213,0.0022888-35.2420502,0.004303-52.8630753
		c0.1414337-0.0524349,0.2828751-0.1048641,0.4243011-0.1572933c0.0230942,0.5173531,0.0662613,1.0347023,0.0663757,1.5520573
		c0.0035172,16.9055233,0.0028534,33.8110504,0.0029602,50.716568c0.0000153,1.3725739,0.0004807,1.3725815,1.4025345,1.3730087
		c0.2396774,0.0000687,0.4793854,0.001564,0.7190399-0.0002136c21.9663239-0.162674,43.9330902-0.1363297,65.8997498-0.1539688
		c0.4785767-0.0003891,0.9571991,0.0218735,1.435791,0.0335693
		C193.4782715,80.3936462,193.4607697,80.5453033,193.3000641,80.6509705z"></path>
	<path d="M115.3364487,28.5496063c0.0042419,13.9839706,0.0091095,27.9679451,0.0124741,41.9519196
		c0.0015793,6.5924759,0.000351,13.1849594,0.0002136,19.7774429c-0.0000305,1.3638992-0.0332184,1.1429367,1.1603699,1.1430969
		c23.8015747,0.0032883,47.6031189,0.0031052,71.4046936,0.0063477c0.4776306,0.0000534,0.9552307,0.0326614,1.4328613,0.0500717
		c0.0426025,0.1808853-0.0072937,0.3237228-0.172287,0.4192047c-22.3675537,0.0027771-44.7351379,0.0055847-67.1026917,0.0082932
		c-2.1169434,0.0002594-4.2342834-0.0229645-6.3506088,0.0131683c-0.6771088,0.0115585-0.9564133-0.2045746-0.877121-0.8836517
		c0.0322266-0.2759552,0.0052109-0.5588303,0.0052109-0.8385544c-0.0002365-20.5400696-0.0004654-41.080143-0.0006866-61.6202164
		C115.0072021,28.4921894,115.1699829,28.4877186,115.3364487,28.5496063z"></path>
	<path d="M116.9966354,28.3202877c0.0102539,0.4388809,0.0294495,0.8777599,0.0294876,1.3166409
		c0.0016632,19.4118004,0.0016479,38.8236046,0.0018234,58.2354088c0,0.1597672,0.019577,0.322464-0.0035782,0.4788055
		c-0.1000443,0.6754532,0.1717606,0.9519577,0.8538055,0.8600388c0.2744827-0.0369797,0.5580978-0.0060349,0.8375626-0.0060425
		c23.3150864-0.0005646,46.6301651-0.001442,69.9452591,0.0006104c0.4776611,0.0000458,0.9553223,0.0343094,1.4329834,0.0526123
		c0.0276947,0.1826553,0.003891,0.3446426-0.1777802,0.4432449c-24.1210632,0.001358-48.2421417,0.0027161-72.3631973,0.0041275
		c-1.0463104,0.0000534-1.0343246,0.2084198-1.034111-1.0139389c0.003479-19.9373627,0.0062408-39.8747215,0.0100937-59.8120804
		c0.0000305-0.1595612,0.0125656-0.3191185,0.0192719-0.4786758
		C116.680687,28.2794914,116.8321609,28.2637482,116.9966354,28.3202877z"></path>
	<path d="M36.3034248,84.8217087c0.4933281-0.2456818,1.0215378-0.1254272,1.5318794-0.1254654
		c22.5182571-0.0018997,45.0365143,0.0040131,67.5547791,0.008934c1.5178375,0.0003281,1.5091629,0.000351,1.4638138-1.5209732
		c-0.0333252-1.1178513-0.0490875-2.2364273-0.0574417-3.3547897c-0.1286469-17.215519-0.2548294-34.4310684-0.380722-51.6466141
		c-0.0014648-0.1995678,0.0085907-0.3992195,0.0132599-0.5988331c0.1720505-0.038517,0.3358459-0.0257378,0.4850159,0.0780487
		c0.1213226,16.6254616,0.2403107,33.2509422,0.3666763,49.8763657c0.0173035,2.2776947,0.0519257,4.5556946,0.1208191,6.8322678
		c0.0189133,0.6252213-0.1671219,0.8954391-0.7986755,0.8180618c-0.1574173-0.0192795-0.3192368-0.0026321-0.4790268-0.002655
		c-23.209877-0.0035477-46.4197388-0.0071182-69.6296082-0.0106964
		C36.3598671,85.0956726,36.2675629,84.9932861,36.3034248,84.8217087z"></path>
	<path d="M110.5547409,28.3645573c-0.0001755,19.9799404,0.0018616,39.959877-0.0048141,59.9398193
		c-0.0005188,1.559082,0.2566223,1.3986053-1.394577,1.3986664c-23.6450195,0.0008011-47.2900391-0.0033417-70.935051-0.0062943
		c-0.048645-0.1413498-0.09729-0.2826996-0.1459351-0.4240494c0.3571968-0.0230865,0.7143936-0.06633,1.0715942-0.0663681
		c23.2411842-0.002594,46.4823685-0.001297,69.7235565-0.0021667c1.2621613-0.0000458,1.1915436,0.2778854,1.191391-1.2086029
		c-0.0020142-19.4966965-0.0042953-38.9933891-0.0056-58.4900818c-0.0000229-0.3993835,0.0109177-0.7987671,0.0167313-1.1981487
		C110.2407303,28.260664,110.4017944,28.278286,110.5547409,28.3645573z"></path>
	<path d="M35.6944427,82.585968c0.4616585-0.194664,0.9471397-0.1018448,1.4207001-0.1018982
		c22.2402954-0.0023499,44.4805908,0.0011368,66.7208939,0.0037994c1.434227,0.0001755,1.4364014-0.000351,1.4206085-1.4717331
		c-0.1020432-9.5065079-0.2067032-19.0129967-0.3073654-28.519516c-0.0803604-7.5893021-0.1560898-15.1786499-0.2344055-22.7679691
		c-0.0090561-0.877739-0.0215454-1.7554417-0.0324402-2.6331615c0.1735992-0.027586,0.3408051-0.0180244,0.492012,0.0846634
		c0.0331116,3.2373695,0.0684662,6.47472,0.0989532,9.7121162c0.0997314,10.5915222,0.1903305,21.1831436,0.299881,31.7745628
		c0.0454712,4.3962555,0.1335907,8.7920685,0.1942978,13.1881943c0.0159607,1.1552887,0.1528625,1.1327972-1.0630264,1.1325684
		c-22.7326889-0.0042572-45.4653778-0.00914-68.1980591-0.0163879c-0.2380447-0.0000763-0.476078-0.0333023-0.714119-0.0510559
		C35.7597275,82.808754,35.7270851,82.6973648,35.6944427,82.585968z"></path>
	<path d="M120.5770874,27.6517048c0.0155182,0.4784546,0.0445709,0.9569073,0.0446243,1.4353638
		c0.0023117,18.0631275,0.001915,36.1262512,0.0020218,54.1893845c0.0000076,1.3844223,0.0004272,1.3843307,1.3904495,1.3849182
		c22.8871384,0.0096054,45.7742844,0.0189362,68.6614151,0.0309982c0.437912,0.0002365,0.8757782,0.0326385,1.3136749,0.0500336
		c0.0402985,0.1806488-0.0079956,0.3250198-0.1725922,0.4217529c-17.4057465-0.0005417-34.8114777-0.0010223-52.2172241-0.0016556
		c-6.108078-0.0002213-12.2161713,0.0025558-18.3242416-0.0039978c-1.2972488-0.0013885-1.1490784,0.1648254-1.1492386-1.1420593
		c-0.002327-18.7323456-0.0009155-37.4646912-0.0003967-56.1970367
		C120.2408676,27.6685905,120.3875198,27.6023254,120.5770874,27.6517048z"></path>
	<path d="M122.2354507,27.2401276c0.0221481,0.4770298,0.0635757,0.9540539,0.0636597,1.4310875
		c0.0033188,17.3757019,0.0028,34.7514076,0.0028,52.1271172c0,0.1997147-0.0008011,0.3994522,0.0001221,0.5991669
		c0.0050278,1.0886536,0.0051804,1.090332,1.0705719,1.0902176c22.5976715-0.002533,45.195343-0.005806,67.7930145-0.0062408
		c0.5178375-0.0000076,1.0356903,0.0311508,1.5535278,0.0477829c0.0397949,0.1920013-0.0184937,0.3410263-0.1923676,0.4393921
		c-22.8078766,0.0064011-45.6157379,0.0151291-68.4235992,0.0088196c-0.7406998-0.000206-1.687149,0.3629303-2.1724091-0.1650543
		c-0.4215546-0.4586792-0.1236649-1.3735352-0.1239777-2.085701c-0.0077438-17.7834206-0.0084763-35.5668411-0.0104523-53.3502655
		C121.9427109,27.331007,122.0890808,27.2855663,122.2354507,27.2401276z"></path>
	<path d="M38.8153191,91.4884109c0.4775047-0.0207214,0.9550018-0.0593414,1.4325142-0.0595322
		c9.8250732-0.0039368,19.6501503,0.0021667,29.4752197-0.0053024c13.6183701-0.0103531,27.2367325-0.0301666,40.8551025-0.0462494
		c1.1267929-0.0013351,1.1296158-0.0024567,1.1267776-1.1466446c-0.0498352-20.0587921-0.1006775-40.1175919-0.1492233-60.1763916
		c-0.0012512-0.5187492,0.0210571-1.0375538,0.0323792-1.5563316c0.1324463,0.0156975,0.2649002,0.0313969,0.3973541,0.0470943
		c0.0024109,20.780304,0.0052567,41.5606041,0.0058975,62.3409081c0.0000229,1.0109024-0.0090714,1.018692-1.0439529,1.0187073
		c-24.0058212,0.0002975-48.0116501-0.0012207-72.0174713-0.0024033
		C38.8917198,91.7643127,38.8535194,91.6263657,38.8153191,91.4884109z"></path>
	<path d="M188.5596619,94.1722794c-0.3586578,0.0106354-0.7173157,0.0305557-1.0759735,0.0305634
		c-23.9254456,0.0002518-47.8509064,0.0001221-71.7763443-0.0118942c-0.4373703-0.0002213-0.9407501,0.1865158-1.3758392-0.2503433
		c0.4282074-0.4504471,0.9317474-0.2552643,1.3648682-0.2558594c10.7844162-0.0147247,21.56884-0.0140381,32.3532639-0.0151291
		c13.1410217-0.0013275,26.2820587-0.0022354,39.4230804-0.0004425c0.397583,0.0000458,0.7951813,0.0322342,1.1927643,0.0494461
		C188.7002106,93.8861771,188.7043457,94.0466003,188.5596619,94.1722794z"></path>
	<path d="M39.4144592,93.7135239c0.3975906-0.0155029,0.7951813-0.0445862,1.1927757-0.0445786
		c23.6439323,0.0003204,47.2878685,0.0007553,70.931778,0.022934c0.4475555,0.0004196,1.2340164-0.3621063,1.291687,0.2848206
		c0.0356064,0.3992996-0.8093567,0.2124786-1.2494965,0.212738c-23.6439285,0.0137329-47.2878571,0.013649-70.9317932,0.0135117
		c-0.3587952,0-0.7175903-0.0184631-1.0763855-0.0283127C39.4558182,94.0430908,39.3505821,93.9074173,39.4144592,93.7135239z"></path>
</g>
<g onclick="select(this)" class="" id="gola-primaria" fill="#a2cff0">
	<path d="M109.3256989,35.9207878c-0.1734467,0.532753-0.5917358,0.2743607-0.9039154,0.2516022
		c-4.1043777-0.299221-7.9513092-1.505722-11.6402817-3.2895241c-5.3551407-2.5894814-10.2299652-5.8816833-14.3707428-10.1524506
		c-2.6511154-2.734333-4.9007111-5.7867432-5.7837296-9.6242762c-0.2346497-1.0197554-0.4030762-2.0421906-0.2305679-3.0806484
		c0.1655655-0.9966812,0.9428787-1.529851,1.6987534-2.062746c0.5144196-0.0249214,0.9029312-0.3084855,1.2525024-0.6408176
		c0.9263763-0.8806958,2.0002518-1.6613083,2.7274628-2.6858997c2.0422745-2.8774152,5.0195923-3.6035271,8.2394028-3.9384618
		c3.0734558-0.3197089,6.1407471,0.0640202,9.2119827,0.0276009c4.3973541-0.0521445,8.7971802,0.0443054,13.1931534-0.0513445
		c7.9102249-0.1721148,15.8182297,0.0474188,23.7272263,0.0364116c0.9124146-0.0012698,1.828537,0.1745476,2.7369537,0.3088157
		c2.2481232,0.332287,4.1498718,1.1915944,5.5701294,3.1200867c1.2012482,1.6310925,2.6129456,3.1247711,4.4388733,4.1271977
		c1.6919098,0.471426,2.2952423,2.5105724,1.6758423,4.7444515c-1.1704712,4.2214594-3.5445099,7.6803961-6.6416321,10.6471872
		c-2.7457275,2.6302032-5.8013458,4.901825-9.102417,6.8089809c-4.071167,2.3520851-8.2753143,4.4175797-12.9284058,5.3568268
		c-1.3970261,0.2819977-2.8357391,0.3577576-4.2551346,0.5281792c0.4981461-1.1476097,1.3241043-2.0655403,2.1212006-3.0007629
		c2.248703-2.6383533,4.9448242-4.810585,7.4805527-7.1498508c2.1459198-1.6623192,4.2819519-3.3376217,6.4404449-4.9834862
		c2.392868-1.8246021,4.6131897-3.8312626,6.5503387-6.1364632c1.4909363-1.7742386,2.8118439-3.6581097,3.6611938-5.995595
		c-2.0445251,0.171031-3.9476471,0.3502245-5.8538818,0.4858923c-5.379715,0.3828764-10.7599335,0.7590179-16.1413574,1.1168613
		c-5.5895386,0.3716831-11.1788483,0.4153547-16.7722092,0.018959c-7.1327515-0.5054932-14.2606812-1.060936-21.3717041-1.816123
		c-0.7256699-0.0770664-0.9725952,0.1089544-0.6669769,0.8316221c0.5152588,1.2184,1.126152,2.3757305,1.9132462,3.447176
		c3.9235306,5.3410435,9.441452,8.9155712,14.446228,13.0588207
		C103.1151276,29.2874451,106.6069336,32.222599,109.3256989,35.9207878z"></path>
</g>
<g onclick="select(this)" class="" id="detalhe-lateral" fill="#a2cff0">
	<path d="M180.3169098,283.9697266c-0.3938751-5.0127869-0.5727386-10.0362244-0.8100586-15.0577393
		c-0.282486-5.9776611-0.5378265-11.9543762-0.7411346-17.9355164c-0.1653748-4.8657379-0.3150482-9.7320404-0.4851532-14.597168
		c-0.2554474-7.3048248-0.3230438-14.611908-0.5149689-21.9160767c-0.4473877-17.026535-0.1677856-34.0520782-0.1540527-51.0777435
		c0.0038757-4.8250732,0.1699829-9.658493,0.4935303-14.4725189c0.3222656-4.7945404,0.6694794-9.5894623,1.1401062-14.3773499
		c0.9476013-9.6400223,2.522995-19.1615753,4.9313965-28.5371094c1.2419739-4.834877,2.7194824-9.608345,4.7613068-14.1821518
		c0.1013336-0.2270203,0.0921478-0.5706024,0.4303741-0.6598129l-0.0207214-0.0194473
		c0.2196045,0.4597931-0.0706329,0.8524323-0.1864014,1.2576218c-1.8860931,6.6003571-3.1680298,13.3224106-4.0814209,20.1194611
		c-0.4264069,2.5465698-0.4257202,5.1188202-0.4629211,7.688797c-1.2378235,10.3072052-2.2989655,20.6278992-1.9510498,31.0315857
		c0.0821381,2.4562225,0.7914734,4.8716583,0.4144745,7.3699951c-0.3516235,2.3302765-0.4445953,4.684967-0.4245453,7.0450745
		c0.0559845,6.582428,0.098587,13.1757202-0.1155396,19.7438812c-0.1456757,4.4695435,0.7072906,8.6924438,1.4236298,12.9963837
		c0.8506927,5.1109314,0.9480896,10.2349701,0.2398224,15.3761444c-0.3209076,2.3293762-0.54039,4.6726532-0.8144379,7.008606
		c-0.0490723,0.4181976,0.1008759,0.7893066,0.2301788,1.1618195c1.989563,5.7316895,2.4832916,11.6064911,1.5848999,17.5875092
		c-0.3058167,2.0359802-0.3425293,4.0207977,0.0992279,6.0381927c0.4457397,2.035675,0.5504761,4.1139832,0.5100098,6.1976929
		c-0.1430817,7.3665771,0.683609,14.670929,1.384079,21.9852905c0.2195892,2.2928162,0.3340759,4.5978088,0.3145142,6.9078064
		c-0.0094452,1.1127625-0.4973297,1.8139954-1.5031281,2.1914368
		C184.1745911,283.5326233,182.2864838,283.9595947,180.3169098,283.9697266z"></path>
	<path d="M42.4525146,112.7778625c0.0891304-1.9299164-0.3513565-3.8075333-0.5991211-5.7007065
		c-0.3732796-2.8522339-0.8833809-5.6866074-1.2544365-8.5390854c-0.0882454-0.6783676-0.8202057-1.239563-0.2923431-2.1296234
		c0.9014931,1.8765564,1.3568306,3.8127823,1.9383469,5.6982117c1.892025,6.1343842,3.1134682,12.4154968,4.1846809,18.7393494
		c0.7700386,4.5458832,1.3809853,9.100647,1.8283081,13.6878357c0.4091072,4.1953125,0.7145462,8.3927002,0.9685097,12.6003418
		c1.2914009,21.395874,0.6496124,42.8105927,0.6577225,64.2175446c0.0015144,3.9883881-0.0966606,7.98703-0.1893997,11.9799347
		c-0.1455345,6.2663422-0.2806168,12.5340118-0.535202,18.7964172c-0.1799202,4.4257202-0.3308334,8.8512878-0.473175,13.2781372
		c-0.1807213,5.6206055-0.3782196,11.2443237-0.7604179,16.8535767c-0.2574959,3.7790527-0.196804,7.579834-0.7390556,11.3394775
		c-1.7242279-0.0837708-3.3719635-0.5368042-4.9835625-1.1030884c-1.6184654-0.5686951-2.0121346-1.1141663-1.9840698-2.8423157
		c0.0452156-2.7842407,0.1874161-5.5641479,0.4140472-8.3428955c0.431675-5.2928772,0.7171974-10.5978699,1.1692505-15.8888245
		c0.4074936-4.7694855-0.0650482-9.592804,0.9218788-14.3255157c0.1883888-0.9033813,0.0964546-1.8375397-0.042675-2.744751
		c-0.4781952-3.1182098-0.3503647-6.2133179,0.3311234-9.2835846c0.1949081-0.8781128,0.1388702-1.7289124,0.0771484-2.6109161
		c-0.2841988-4.0611115-0.8382988-8.1011047-0.8580627-12.1838684c-0.0239258-4.942688,1.0864563-9.6556549,2.7438126-14.2636871
		c0.3171997-0.881958,0.5332336-1.7270813,0.4237556-2.675354c-0.1839256-1.5931854-0.141243-3.1873627,0.1506195-4.7743683
		c0.1077003-0.5856476,0.1623573-1.1927948,0.1462173-1.7875824c-0.1308823-4.8229065-0.2779045-9.645401-0.4356956-14.4675293
		c-0.0367355-1.1227112,0.0765038-2.2321014,0.1623611-3.3472748c0.144268-1.8738251,0.1034241-3.7475739-0.048111-5.6235199
		c-0.4092598-5.0663605-0.1779556-10.145752-0.0681305-15.2097778c0.196312-9.0511017-0.2082138-18.0476379-1.5041733-27.0064316
		c-0.2226868-1.5393982-0.3748512-3.0890045-0.5595245-4.6338654c0.5152626-1.2158585-0.2161751-2.3334808-0.3642349-3.4790726
		C42.6969795,115.5973511,42.9329262,114.1476212,42.4525146,112.7778625z"></path>
</g>
<g onclick="select(this)" class="" id="detalhe-punho" fill="#a2cff0">
	<path d="M0.24,114.41436c0.5066518-1.0333099,0.4623487-2.1853943,0.7029477-3.2761536
		c0.1164828-0.5280762,0.0638708-1.1035385,0.4705237-1.5418396c4.7471166,1.9192047,9.661128,3.2643356,14.739399,3.8523865
		c5.6213551,0.6509323,11.2752342,0.8683701,16.9397697,0.6843262c2.350296-0.076355,4.6895752-0.1641083,7.0189934-0.5657349
		c0.8487549-0.1463318,1.4449158-0.8912582,2.3408813-0.7894821c0.4804115,1.3697586,0.2444649,2.8194885,0.4263916,4.2271881
		c0.1480598,1.1455917,0.8794975,2.2632141,0.3643112,3.4790955c-2.841095,1.3330917-5.9081955,1.7382584-8.9673958,1.7949448
		c-7.0645809,0.130928-14.1399384,0.3043518-21.1575737-0.9066238c-3.6142483-0.6236801-7.2130728-1.2875977-10.7040243-2.4304047
		c-0.7462479-0.2443008-1.4505816-0.6164856-2.1742241-0.9297638C0.24,116.8129883,0.24,115.613678,0.24,114.41436z"></path>
	<path d="M184.6167908,120.2029724c0.0372009-2.5699768,0.0365143-5.1422272,0.4629211-7.688797
		c0.9396362,0.5695877,1.9786682,0.9036407,3.0544434,0.9562988c5.6075439,0.2745056,11.228775,0.5989304,16.8232422-0.0108337
		c3.9904938-0.4349365,7.9450073-1.161026,11.8859558-1.9935684c3.0928345-0.6533813,6.000824-1.8692627,9.0736084-2.5406494
		c0.6487732-0.1417542,1.2501068-0.5003433,1.873291-0.7590942c1.0290527,2.4653549,1.3149261,5.0500107,1.1316986,7.6846695
		c-0.0435181,0.6258698-0.7669983,0.7556763-1.2712555,0.942894c-3.2154999,1.1938553-6.5277557,2.0655441-9.8517761,2.8920898
		c-8.3978119,2.0882339-16.9433594,2.4642563-25.539505,2.1048508c-1.8251953-0.0763016-3.6426392-0.4177322-5.4543915-0.6971664
		C186.0230713,120.9730606,185.2617188,120.7066879,184.6167908,120.2029724z"></path>
</g>
<g onclick="select(this)" class="" id="gola-secundaria" fill="#ffffff">
	<path d="M127.5429077,26.2013435c-2.5357285,2.3392677-5.2318497,4.5114994-7.4805527,7.1498528
		c-0.7970963,0.9352226-1.6230545,1.8531532-2.1212006,3.0007591c-2.3132095,0.5602531-4.6457596,0.380825-6.9806519,0.1973152
		c-0.6160583-0.0484238-1.1409073-0.2847061-1.6344376-0.6280861c-2.7191315-3.6985855-6.2109375-6.6337395-9.5777512-9.6924343
		c2.8338776-0.0287647,5.6676941-0.0822201,8.5014725-0.080719
		C114.6808319,26.1514378,121.1118698,26.1818867,127.5429077,26.2013435z"></path>
</g>
<path d="M189.3682404,91.1565399c0.0375671-0.1338425,0.0751343-0.2676697,0.1127014-0.4015045
	c0.0261383,0.028389,0.072525,0.0551529,0.0749512,0.0854416c0.012146,0.1519699,0.0203705,0.3102493-0.208313,0.2966614
	C189.3475342,91.1370926,189.3682556,91.1565399,189.3682404,91.1565399z"></path>
</svg>
