<!--?xml version="1.0" encoding="utf-8"?-->
<!-- Generator: Adobe Illustrator 24.2.3, SVG Export Plug-In . SVG Version: 6.00 Build 0)  -->
<svg version="1.1" id="Camada_1" xmlns="http://www.w3.org/2000/svg" xmlns:xlink="http://www.w3.org/1999/xlink" x="0px" y="0px" viewBox="0 0 234 419" enable-background="new 0 0 234 419" xml:space="preserve">
<g onclick="select(this)" class="" id="c-estampa-primaria" fill="#db9600">
	<path d="M46.7812424,118.801651c-0.0767593-1.3550415-0.1535225-2.7100906-0.2302551-4.065239
		c0.4013672-3.5744247-0.8350601-6.9751587-1.197998-10.4692993c-0.2240105-2.1566772,0.1601028-4.4605942-0.9499817-6.5027618
		c0.2355576-4.1750107-0.9775124-8.179451-1.426548-12.2726135c-0.4060669-3.7014923-1.5520096-7.0640182-3.7860184-10.060585
		c-0.5201302-0.6976852-0.8810234-1.516983-1.2921524-2.2925415c-1.677639-3.1646805-2.3670807-6.6731339-3.4572754-10.0403824
		c-2.0804443-6.425808-3.4284821-12.9882317-3.4827595-19.7759361c-0.0089321-1.1172714,0.2226963-2.2094421,0.2825794-3.323185
		c0.1069202-1.9885635-0.031992-3.9983482,0.41399-5.9693832c0.1208649-0.5341721,0.1112595-1.1201401-0.2297115-1.6233521
		c4.2176952-1.9782009,8.3974285-4.0383091,12.7343388-5.7551689c7.1586761-2.8339195,14.2072411-5.9264126,21.2225914-9.0958195
		c3.9044266-1.7639484,7.5148468-4.0420628,11.1217957-6.3282051c0.4499207-0.285161,0.7661057-0.6875992,1.1115265-1.0751286
		c1.1253662-1.2625484,2.460701-2.1400995,4.2184219-2.1968918c2.0342941,0.2981586,4.0931244,0.332696,6.1293793,0.6633081
		c8.3689957,1.3588123,16.8237305,1.8147812,25.2742157,2.3104897c5.0438004,0.2958727,10.0588913-0.1554689,15.0837708-0.4571857
		c4.4263611-0.2657785,8.8530426-0.5102081,13.2524109-1.0787601c3.1972351-0.4131947,6.3849487-0.8995619,9.5781403-1.3446274
		c0.7452545-0.1038756,1.4954529-0.1725669,2.2436371-0.2575908c2.121933,0.0199952,3.6186676,1.1140513,4.9762115,2.6535583
		c1.0045471,1.1392441,2.449173,1.775898,3.7708893,2.5178118c9.4977875,5.3313141,19.4880676,9.6015377,29.5888672,13.6187572
		c3.9791565,1.5825596,7.694046,3.71805,11.6465302,5.3458309c0.175293,0.0721912,0.3132019,0.2351036,0.4684601,0.3557205
		c-0.4079285,0.5212479-0.4852905,1.2034378-0.2796631,1.7151718c0.4703064,1.1705475,0.0795288,2.3345184,0.1885529,3.492691
		c0.2788696,2.9625435,0.4180298,5.9366302,0.21492,8.9047165c-0.1652222,2.4147797-0.3381958,4.8516769-0.8126831,7.2176094
		c-0.8205414,4.091507-1.927063,8.1246033-3.2659149,12.0813484c-0.7891998,2.3323593-1.2008057,4.7971497-2.3715668,6.9949417
		c-0.8932037,1.6767578-1.6652374,3.4834824-3.0967407,4.7557755c-0.9084167,0.8073883-1.5977325,1.6723328-1.9496765,2.7775726
		c-1.364624,4.2856903-1.6241455,8.7427216-1.8916321,13.1865921c-0.1507416,2.5039444-0.2486572,4.9903641-0.9338226,7.4368515
		c-0.6354523,2.2689285-0.8999939,4.6388016-0.7013855,6.9787903c0.1374512,1.619606-0.1228943,3.1615524-0.2654114,4.7354507
		c-0.199707,2.6281662-0.6735229,5.2377548-0.5346069,7.8888626c-0.4046021,0.2297211-0.2497864,0.6383972-0.2887878,0.9698486
		c-1.2409821,10.5508347-1.5160522,21.1339188-0.9441376,31.7361374c0.2012024,3.7296448-0.1597748,7.4324341-0.3361053,11.1412354
		c-0.262619,5.5241699,0.213913,11.0307312,0.1908417,16.5469666c-0.0117188,2.8013611-0.1040344,5.5931549-0.4458923,8.3774872
		c-0.229599,1.8701782-0.2544708,3.7494659,0.0692902,5.618988c0.0408783,0.2360382,0.1015015,0.4797211,0.0812073,0.7136383
		c-0.2680206,3.0862274,0.4954071,5.9898071,1.3647308,8.9197235c1.7740479,5.9790039,1.9671478,12.1114349,1.4671631,18.2951355
		c-0.304718,3.7687531-0.8326721,7.5328827-0.0215759,11.3268585c0.2705383,1.2654877,0.1589813,2.6315765,0.0978851,3.9459076
		c-0.3535004,7.6035309,0.7575989,15.1347504,1.1002197,22.7034912c0.2419739,5.3453979,0.699646,10.6801758,0.9318695,16.0290222
		c0.0671234,1.5462036,0.2884521,3.096344,0.2848511,4.6539917c-0.0040741,1.7576904-0.2527008,2.1624756-1.9380493,2.6928101
		c-4.9689331,1.5635681-10.0740662,2.5220642-15.2290955,3.1793518c-11.8852539,1.5155029-23.8502808,1.6738586-35.8022308,1.801239
		c-20.6729507,0.2202759-41.3482971,0.5737-62.0217361,0.2687988c-10.004837-0.1476135-19.9621696-1.0458984-29.6603622-3.7771912
		c-3.6833267-1.037323-3.8044777-1.0596008-3.5799179-4.8108521c0.4223289-7.0551758,0.9893608-14.1017761,1.5130119-21.1507263
		c0.2370186-3.1905823-0.110363-6.4012756,0.3509216-9.5829163c0.0802193-0.55336,0.0910225-1.1242676,0.2354774-1.6596527
		c0.8587952-3.1829681,0.0915489-6.3565979-0.0495949-9.5281372c-0.2078438-4.6702271,0.2217903-9.2737427,1.4198914-13.7774353
		c0.4246025-1.5960999,0.4807281-3.1339264,0.2883301-4.7227325c-1.0463257-8.6404877-0.9161263-17.2292023,1.0487061-25.7495117
		c0.3325615-1.4421234,0.4711723-2.9310913,0.3530312-4.4104767c-0.3794022-4.7510529,0.0122833-9.5081787-0.1689415-14.2619019
		c-0.2146835-5.6312866-0.0821152-11.2704773-0.4309502-16.9023743c-0.2619247-4.228714,0.4452324-8.447998,0.241684-12.6940918
		C47.8281784,137.1582184,47.4722786,127.9711685,46.7812424,118.801651z"></path>
	<path d="M188.6812744,112.5599823c0.1425171-1.5738983,0.4028625-3.1158447,0.2654114-4.7354507
		c-0.1986084-2.3399887,0.0659332-4.7098618,0.7013855-6.9787903c0.6851654-2.4464874,0.7830811-4.9329071,0.9338226-7.4368515
		c0.2674866-4.4438705,0.5270081-8.9009018,1.8916321-13.1865921c0.351944-1.1052399,1.0412598-1.9701843,1.9496765-2.7775726
		c1.4315033-1.2722931,2.203537-3.0790176,3.0967407-4.7557755c1.1707611-2.1977921,1.5823669-4.6625824,2.3715668-6.9949417
		c1.3388519-3.9567451,2.4453735-7.9898415,3.2659149-12.0813484c0.4744873-2.3659325,0.6474609-4.8028297,0.8126831-7.2176094
		c0.2031097-2.9680862,0.0639496-5.942173-0.21492-8.9047165c-0.109024-1.1581726,0.2817535-2.3221436-0.1885529-3.492691
		c-0.2056274-0.511734-0.1282654-1.193924,0.2796631-1.7151718c0.2102203,0.1116676,0.4566498,0.1841888,0.6252136,0.3406334
		c3.9205627,3.6386032,8.1220245,7.0112839,11.1985168,11.465538c3.6876678,5.3391647,6.2693787,11.1972656,8.0645142,17.4220467
		c1.855957,6.4356842,2.5604248,13.0691071,3.6264191,19.6522064c1.570282,9.6975555,2.6261597,19.4785385,4.6393738,29.104805
		c0.1053619,0.5038223,0.102417,1.0303116,0.1499481,1.5463715c-2.6681061,0.6655502-5.3206482,1.4046097-8.0636749,1.7179031
		c-3.2069092,0.3662796-6.4146271,0.7254715-9.6210022,1.0962982c-3.0062256,0.3476791-6.0040588,0.9012604-9.0184021,1.0103607
		c-3.6274109,0.1313019-7.2682648-0.1153641-10.9035339-0.1868286c-0.4984894-0.0097961-0.9168243-0.2772141-1.3724365-0.3677292
		C191.3878479,114.7298126,190.5228119,112.7779846,188.6812744,112.5599823z"></path>
	<path d="M31.4251118,32.4063721c0.340971,0.503212,0.3505764,1.08918,0.2297115,1.6233521
		c-0.445982,1.971035-0.3070698,3.9808197-0.41399,5.9693832c-0.0598831,1.1137428-0.2915115,2.2059135-0.2825794,3.323185
		c0.0542774,6.7877045,1.4023151,13.3501282,3.4827595,19.7759361c1.0901947,3.3672485,1.7796364,6.8757019,3.4572754,10.0403824
		c0.411129,0.7755585,0.7720222,1.5948563,1.2921524,2.2925415c2.2340088,2.9965668,3.3799515,6.3590927,3.7860184,10.060585
		c0.4490356,4.0931625,1.6621056,8.0976028,1.426548,12.2726135c1.1100845,2.0421677,0.7259712,4.3460846,0.9499817,6.5027618
		c0.3629379,3.4941406,1.5993652,6.8948746,1.197998,10.4692993c-0.7430496-0.1559753-0.4466248-0.7550583-0.4480972-1.1689682
		c-0.0030136-0.8474426-0.3366966-1.1772919-1.084877-0.7159271c-2.1458626,1.3232574-4.5059891,1.392868-6.9265518,1.4081802
		c-5.9911842,0.0379257-11.914423-0.3703842-17.8513241-1.3506393c-5.7302513-0.9461212-11.4566507-1.9013596-17.1664352-2.9633942
		c-0.4844108-0.0901108-0.9187891-0.242218-1.3282617-0.4972076c1.2825927-8.0049973,2.2239013-16.0782471,4.4298015-23.9057312
		c1.4928513-5.2972641,1.9323239-10.7706375,2.9552264-16.1442108c1.5344801-8.0610313,3.9434853-15.8129349,8.3927488-22.8015022
		c2.7514877-4.3218231,6.1713905-8.0597153,10.2077255-11.2039833
		C28.9818478,34.4185829,29.9585438,33.1073418,31.4251118,32.4063721z"></path>
</g>
<path d="M225.7772827,70.3376694c-0.1416779-0.0348129-0.2056732-0.1207886-0.17659-0.2680969
	C225.7886963,70.0738831,225.7960052,70.197197,225.7772827,70.3376694z"></path>
<g onclick="select(this)" class="" id="c-estampa-terciaria" fill="#000000">
	<path d="M188.1581116,120.7342834c0.0873566-0.1706085,0.1746979-0.341217,0.2619324-0.511795
		c0.8814392,0.0791168,1.713501-0.3210831,2.3486786-0.7327652c1.1143646-0.7222748,2.7849274,0.5175552,3.5449524-1.1186066
		c0.0237274-0.0510788,0.2278137-0.035553,0.3448639-0.0231628c0.5692596,0.0602264,0.7917633-0.2503967,0.838974-0.7617645
		c0.0221863-0.2402802,0.0380859-0.5747147,0.2795868-0.6157074c1.161499-0.1971817,1.2523041-1.1514206,1.5529633-2.0058899
		c0.14534-0.4131241,0.5252686-1.1110535,0.9568176-0.7683945c0.5943451,0.4719543,1.2572021,0.2447205,1.8974915,0.4303131
		c-0.4267578,0.6738205-0.8781586,1.2046814-1.1205292,1.8181381c-0.2663727,0.6741409-0.3110657,1.5522537,0.5458984,1.7864532
		c0.9440002,0.2579803,1.9732666,0.1531982,2.7779541-0.5654526c0.5151978-0.4601059,0.690567-0.9885788-0.1932678-1.186554
		c-0.7091522-0.1588593-0.9488983-0.4847794-0.7548065-1.1571732c0.3871765-0.0362549,0.7704468,0.579216,0.9522552,0.3196487
		c0.8004608-1.1428146,1.4063263-0.1446075,2.0821838,0.0928802c1.5400696,0.9268723,2.2801208,2.920845,4.4348907,3.3537903
		c-0.2575836-0.6316299-0.4694672-1.0904846-0.6328125-1.5660172c-0.2476959-0.7210541-0.8981323-1.3361969-0.5993042-2.2057953
		l0.0232086-0.0063019c1.0914612-0.3478851,2.16745-0.7511978,3.3571014-0.5113754
		c0.6290588,0.1268082,0.9391632,0.3845673,0.689682,1.0561829c-0.2486725,0.6693726-0.4358368,1.3666077-0.7392578,2.0094833
		c-0.5093536,1.0791626-0.3552399,2.0573807,0.1937103,3.0732193c0.2831268,0.523941,0.5997314,0.6991959,1.1356812,0.5081863
		c0.6658173-0.2372894,0.1955109-0.6432114,0.1167908-0.9660873c-0.1098175-0.450531-0.2766571-0.8871536-0.4515686-1.4306107
		c0.932251,0.2114487,1.5135498,1.0216751,2.5403748,1.0151596c-0.3679657-1.2072296-1.2771606-2.0191422-1.8387604-3.1893921
		c1.2125549,0.3049469,1.8951721,1.0788269,2.5555725,1.8528519c0.3188324,0.3736877,0.5452728,0.6941605,0.9936218,0.1722336
		c0.5537262-0.6445847,0.9451447-0.0346756,1.2770844,0.2565002c0.4568481,0.4007645-0.1141205,0.6018372-0.3072968,0.8250275
		c-1.0820923,1.2502365-1.0765381,1.4692078,0.1752777,2.730217c-1.1092072,0.227211-2.2250214,0.3958435-3.361084,0.3809204
		c-0.2870941-0.2218094-0.7307434-0.5028-0.954834-0.3366089c-1.0928192,0.8104095-1.425766-0.1474457-1.9372711-0.7354965
		c-0.3384857-0.3891754-0.6589813-0.8011856-1.0410614-1.1432037c-0.3541565-0.3170319-0.6820526-0.8616714-1.3019867-0.4023132
		c-0.5886993,0.4362564-0.1034851,0.8562698,0.0239563,1.2644501c0.2079468,0.6659393,0.6594086,1.3445892-0.2660065,1.8384399
		c-0.1723785,0.0135651-0.3447723,0.0271454-0.5166016,0.0406952c-0.7210236-0.1253433-1.1571808-0.6328659-1.58638-1.1628876
		c-0.348053-0.4297562-0.6981354-0.8638458-1.0948639-1.246727c-0.5628357-0.54319-1.0227814-0.5959091-1.1000214,0.3701782
		c-0.0681763,0.8528519-0.3397675,1.5337143-1.3017883,1.7146072c-0.2482758,0.0466843-0.4109955,0.2306671-0.4105682,0.5115128
		c-0.5536957,0.1399918-1.107254,0.1511383-1.6605988-0.0016098c-0.0520172-0.5471802-0.4532471-0.4245605-0.8035736-0.4319458
		c-1.8284149-0.038475-2.3914642-0.7117462-2.0696259-2.5516968c0.150238-0.859024,0.4133759-1.6977921,0.5973206-2.5517807
		c0.0540924-0.2511215,0.1763611-0.6155701-0.1791992-0.7144547c-0.1606445-0.0446854-0.447998,0.1418839-0.5910339,0.301384
		c-0.3903656,0.4352875-0.6991577,1.2677383-1.1033936,1.3079147c-1.407608,0.1399307-1.3547516,1.1765747-1.6688843,2.0960541
		c-0.2354431,0.6891403-0.1043701,1.642601-1.0791016,1.9386749
		C192.0566711,122.3537903,189.9995575,121.7993774,188.1581116,120.7342834z"></path>
	<path d="M226.6044006,75.4399872c-0.0882721,0.1419678-0.057312,0.5116119-0.3319244,0.3373718
		c-0.5612946-0.3561478-0.6446686,0.0273209-0.8210449,0.4060059c-1.1448059,2.4577866-2.5467529,3.0756531-5.075592,2.3156738
		c-0.5024109-0.1509933-0.4363708-0.4852524-0.4561005-0.8330612c-0.0339203-0.5977173-0.006012-1.2071991-0.1185913-1.7896042
		c-0.0914764-0.4732513-0.4048615-0.8507156-0.9181213-1.0169296c-0.405014-0.1311569-1.0860291,0.3683777-1.1993103-0.3783035
		c-0.1500702-0.9893646-0.9936066-1.8951797-0.4064941-2.9772034c0.2985535-0.5502014,0.7218475-1.0108566,0.0157471-1.6573257
		c-0.3386078-0.310051,0.029129-0.9565353,0.2711792-1.3198242c0.2757263-0.4138184,0.6277618,0.0644226,0.9229889,0.1880493
		c0.3655548,0.1530762,0.7201233,0.3562622,1.0387268,0.5926666c0.6839142,0.5074844,1.1825714,0.5427551,1.9508514-0.0693893
		c1.086319-0.8655777,2.2677917-0.3240509,3.3202209,0.3661118c0.2624664,0.1721344,0.5414276,0.3191223,0.8128052,0.4776688
		c0,0.0000229-0.0090485-0.0123291-0.0090485-0.0123215c-0.0290833,0.1473083,0.0349121,0.233284,0.17659,0.2680969
		C226.0529938,72.0384369,226.3286896,73.739212,226.6044006,75.4399872z"></path>
	<path d="M30.5266075,122.1661758c-0.2628803-0.7425232-0.941227-0.6351242-1.5088749-0.7133331
		c-1.3200188-0.1818542-2.6146889-0.4293289-3.6042824-1.4169617c-0.3114815-0.3108597-0.9063015-0.7319412-0.5379696-1.1416321
		c0.3810043-0.4237976,1.0989285-0.9191818,1.7077484-0.4838715c1.2152538,0.868927,2.5189152,1.3228302,3.9968262,1.4058151
		c0.4579163,0.0257187,1.3561916,1.8482666,1.1120682,2.1744843c-0.2475262,0.3307648-0.6870346,0.0272675-0.9989243,0.2136078
		C30.6344204,122.2058411,30.5788841,122.1931305,30.5266075,122.1661758z"></path>
	<path d="M10.1150856,64.9539108c1.4032383-0.5499649,2.8378391-1.0007401,4.3074198-1.3344421
		c0.2885742-0.0655212,0.6304188-0.2425194,0.8369007,0.1619034c0.1462479,0.2864532,0.0781431,0.5828094-0.1389751,0.7639618
		c-0.9271841,0.7735825-1.7907457,1.6919174-3.1790905,1.5257874c-0.7564964-0.0905228-1.6263199-0.3986588-1.7183075,0.8875275
		c-0.0191174,0.2673264-0.3616762,0.3922424-0.6755381,0.2677536C9.73664,66.4690857,9.9258633,65.7114944,10.1150856,64.9539108z"></path>
	<path d="M196.0735321,104.1758118c0.087265-0.6726837,0.1426697-1.3514099,0.2690277-2.016655
		c0.2012024-1.0590363-0.3405762-1.5639725-1.2651215-1.8169174c-0.2308807-0.0631638-0.4669189-0.1074905-0.7006378-0.1603012
		c-2.5320435-0.5721664-3.8943787-2.3387833-3.7600708-4.8921509c0.0335236-0.6377487,0.1078796-1.2732697,0.1482086-1.9107742
		c0.0287323-0.4541855-0.0141754-0.9346848,0.7097626-0.690712c0.4248352,0.143158,0.5624847-0.2364349,0.6828766-0.5093002
		c0.2727509-0.6181488,0.5852661-1.2395477,0.717804-1.892868c0.129425-0.6379776,0.3890381-1.163681,0.9078217-1.4815903
		c0.72789-0.4460602,0.6738739-0.8631897,0.2641754-1.5290756c-0.4851074-0.7884598-0.4738617-1.6601563,0.0166779-2.5051422
		c0.7452087-1.2836075,1.4830017-2.5676498,2.7793884-3.3941269c0.5723267-0.3648682,1.0924835-0.5400848,0.9319305,0.4831085
		c-0.1176605,0.749794,0.289917,0.769928,0.8384552,0.6978226c1.2290192-0.1615295,2.4624023-0.3435822,3.690155-0.0034103
		c0.5313873,0.1472168,0.7023163-0.1652985,0.8556824-0.5747299c0.293869-0.7844315,0.5894318-1.5681229,1.1098175-2.2450256
		c0.3816223-0.4964294,0.7456818-0.7078171,1.2145233-0.0972595c0.4827728,0.6286774,1.0837402,1.046936,1.927536,1.0149384
		c0.2960815-0.0112305,0.5282593,0.1204224,0.6578369,0.4215546c0.5414429,1.2580566,1.5774231,2.0957413,2.5803528,2.9469299
		c0.4124603,0.3500748,0.5751038,0.5926056,0.3310242,1.1809082c-0.677597,1.6333466,0.1205902,3.0464783,0.9367065,4.3779678
		c0.3419189,0.5578384,1.0867157,0.4710541,1.668457,0.422348c1.0175629-0.0851898,1.4180145,0.3040161,1.4950256,1.3322067
		c0.1264343,1.6877899,0.1873627,1.6807251,1.8551025,1.7534943c0.4390564,0.0191498,0.879837,0.038475,1.3151855,0.0940552
		c0.6740875,0.0860519,1.1089478,0.4462738,1.1445007,1.1617279c0.0896759,1.8056107,0.2267914,3.5761337,1.4692841,5.0687943
		c0.4857635,0.5835876,0.0691528,1.0248108-0.5246887,1.294014c-0.7980499,0.3618011-1.6558075,0.6020889-2.361908,1.1523514
		c-0.9357605,0.7292328-1.0194397,1.2487869-0.194046,2.0411987c0.5136261,0.4930954,0.771637,0.9860077,0.5845642,1.6869583
		c-0.1610413,0.6034775,0.1282043,1.0707245,0.4602356,1.5439835c1.0981598,1.5652542,2.5539856,2.7659912,4.0955505,3.8315353
		c0.9190369,0.6352463,1.0240173,1.135849,0.2523804,1.886467c-0.1962738,0.1909332-0.3624878,0.4127579-0.5512695,0.6304779
		c-0.7896729-0.6667862-1.1638184-1.5658493-1.655899-2.3819122c-1.0070801-1.6701508-2.2203217-3.0233078-4.3861237-3.0358963
		c-0.6095276-0.00354-1.1509247-0.3153305-1.6878357-0.5820313c-3.218399-1.5986633-6.4828796-3.0965729-9.7922058-4.4972992
		c-0.217041-0.0918579-0.5124054-0.166832-0.6120911-0.3408661c-0.7435303-1.2979736-1.4945984-0.689621-2.6099243-0.3866272
		c-1.9818878,0.5384293-3.8579865,1.3423691-5.8165436,1.9119568
		C196.0652771,104.1659622,196.0735321,104.1758118,196.0735321,104.1758118z"></path>
	<path d="M42.4679375,84.1423645c-0.3982162,1.2290115-0.0724144,2.2570419,0.6651192,3.3064499
		c0.3493156,0.4970398,0.24189,1.3030319,0.3903427,1.9579468c0.084343,0.3720856,0.0183372,0.612442-0.3397293,0.7541885
		c-0.3502693-0.0338821-0.7039871-0.0471039-1.0501213-0.1053772c-0.9546738-0.1607056-1.6159592-0.0175552-1.4642029,1.1990128
		c0.0778122,0.6237946-0.4082146,0.6418381-0.8616905,0.678566c-0.8597069,0.0696487-1.7177124-0.2568893-2.5760689-0.0021133
		c-0.2714043-0.0305634-0.6114731-0.1279984-0.7445107,0.1678314c-0.1388321,0.3086929,0.2423019,0.3545456,0.4129066,0.4716721
		c1.1170616,0.7669296,1.7830887,1.9307938,2.6222687,2.9412155c0.8167648,0.9834137,0.8097458,0.9868011,1.3330574-0.2039108
		c0.0792885-0.1804199,0.1861267-0.3487396,0.2913284-0.54319c0.4698105,0.2790756,0.8057365,0.7312698,0.78022,1.162674
		c-0.0698624,1.1813583,0.6403961,1.2963104,1.5063248,1.2929916c0.6152916-0.0023575,0.9109535,0.2339172,0.9930878,0.902916
		c0.0863762,0.7034988,0.3842773,1.3792114,0.5645523,2.0736008c0.1328926,0.5118866,0.191597,0.9986115-0.2997284,1.4187241
		c-0.6484489,0.5544586-0.2217331,1.2223358-0.0069008,1.7728577c0.4039307,1.0351028,0.0423431,1.3991089-0.96875,1.3761444
		c-0.159214-0.0036163-0.3196983,0.0140152-0.4784584,0.0319214c-0.3568802,0.0402374-0.8006668,0.0224075-0.9552231,0.3850784
		c-0.2036591,0.4778748,0.3367043,0.5516586,0.5835571,0.7543716c1.0005989,0.8216553,0.8711853,2.7877121-0.2831192,3.474411
		c-0.6496277,0.386467-1.3671379,0.6570358-2.0380783,1.0101852c-0.3451538,0.1816711-0.8509102,0.3641968-0.8199768,0.781456
		c0.0317078,0.427803,0.4749641,0.7085037,0.8772507,0.9032364c0.2130966,0.1031494,0.4446144,0.2232742,0.6718674,0.2321701
		c0.779953,0.0305328,0.8075409,0.369194,0.5506935,1.0039673c-0.2218399,0.5482712-0.2995071,1.1559982-0.4292564,1.7400436
		c-0.0976448,0.4394989,0.0052567,0.9754562-0.7894363,0.8562317c-0.6556168-0.0983734-1.0480003-0.2838287-1.0074158-1.0188828
		c0.0865555-1.5675278-0.4187469-2.850235-1.7018204-3.8504791c-0.7226982-0.5634079-0.8296852-1.3180389-0.4318657-2.2476349
		c0.9394569-2.195282,0.8895454-2.2166214-1.510849-2.2948303c-0.1198883-0.0039063-0.2398567-0.0063324-0.3596306-0.0125504
		c-2.3218689-0.1203461-2.3177795-0.1218414-3.0670357-2.3037338c-0.3634338-1.0583267-0.7558823-2.1039124-1.4397373-3.0118256
		c-0.3909645-0.5190582-0.8400841-0.9582825-1.4450188-1.2242737c-1.880024-0.8266296-2.869278-0.2507172-3.0463505,1.7813187
		c-0.0208073,0.2388-0.0373592,0.4786987-0.0398865,0.7182541c-0.022438,2.127243,0.299778,2.3591537,2.1734066,1.5240021
		c0.0078354,0.1686249,0.0377693,0.324295,0.0185738,0.4736404c-0.2574711,2.0030594-0.2567692,2.0127335,1.6167927,1.5572357
		c0.3059349-0.0743713,0.5755768-0.1610641,0.656147,0.2221146c0.2821865,1.3420029,1.4427528,1.6248245,2.4691162,1.9886246
		c0.9908485,0.3512115,1.4033737,0.8957291,0.9419975,1.874649c-0.1879463,0.3987579,0.0767822,0.6068115,0.1906013,0.8706589
		c0.5876312,1.3622513,0.3902702,2.6657486-0.2983437,3.9113159c-0.5615044,1.0156555-1.4424744,1.2135849-2.4280872,0.6124802
		c-0.5539017-0.3378067-0.9998436-0.7909012-1.3824863-1.3121567c-0.5622272-0.765892-0.9306221-1.3994446-0.1209488-2.3796082
		c0.8849773-1.0713272,0.73596-2.4668121,0.3830853-3.7928543c-0.1834278-0.6892929-0.536932-0.6938019-1.044651-0.3792572
		c-0.5865021,0.3633575-1.0872803,0.834465-1.4728966,1.3931961c-1.2322273,1.7853622-4.2294254,1.9063797-6.0377769,1.0423965
		c-0.2728748-0.1303635-0.4874763-0.4044113-0.6976643-0.6399918c-0.5253334-0.5888062-0.5854626-1.0074387,0.3879852-1.1173248
		c0.8322296-0.0939407,1.656023-0.2636948,2.4828434-0.4040909c0.710535-0.120636,0.8751163-0.5215454,0.7180328-1.2077789
		c-0.3756351-1.6410141-0.7706623-2.0403137-2.4869061-2.2880249c-0.8021088-0.1157761-1.5926571-0.3060989-2.233181-0.8011932
		c-0.7947502-0.6143188-1.4356136-1.4049377-0.8681297-2.4636993c0.5196781-0.9695663,0.4704685-1.8865128,0.179594-2.8857651
		c-0.1882496-0.6467056-0.2260075-1.3361206-0.3511581-2.0026474c-0.1003132-0.534256-0.0070782-0.9786987,0.5632534-1.1477661
		c0.7727184-0.2290649,0.9667816-0.8319473,0.904829-1.4914551c-0.2012138-2.1419067,0.4407005-3.3521271,2.6899033-4.2776337
		c2.0108414-0.8274155,3.8005867-1.6789474,6.0056286-1.2760468c0.6574783,0.1201401,1.351017,0.0504074,2.0200653-0.1378326
		c2.208519-0.6213989,2.7548294-2.072464,1.5731087-4.2217407c-0.1206779-0.8156433-0.6548386-1.437233-1.0237541-2.1331406
		c-0.4506531-0.8500748-0.84025-1.7098694-1.0214195-2.6642151c-0.1593971-0.839653,0.2326469-0.9102631,0.8519974-0.6507874
		c0.796978,0.3339005,1.2649765,1.0134888,1.4627724,1.795578c0.4651413,1.8391876,1.7153511,2.9713287,3.2126808,3.9720001
		c0.6981239,0.4665604,1.2694359,0.581459,2.0772591,0.2620773C39.8862801,83.8162613,41.1705055,83.3800049,42.4679375,84.1423645z
		"></path>
	<path d="M31.3005447,72.0697556c-0.010994-1.9044952-0.3381958-3.8237076,0.3094597-5.6969147
		c0.1265621-0.3660583-0.0435219-0.685257-0.3534489-0.9450684c-1.142437-0.9577408-2.4817772-1.3852997-3.8711853-0.9178085
		c-0.681797,0.2294006-0.8443203,1.0974045-0.6379871,1.9110947c0.2474689,0.9758987,0.8432026,1.92276,0.3954067,3.0083466
		c-1.5335846-0.8992996-2.4710159-3.4698944-1.8540249-5.0407181c1.0814629-2.7533264,2.157959-5.5104713,4.7327023-7.2968369
		c0.5683155-0.3942947,0.5402164-1.0343742,0.627697-1.6169815c0.0839653-0.5591507,0.2588749-1.016201,0.9253674-1.0439339
		c0.706501-0.0293961,0.5481758,0.5553284,0.6355019,0.9363785c1.2568092,5.484066,2.9437752,10.8396492,4.803215,16.1441307
		c0.1211395,0.3455734,0.4958649,0.8382492-0.253315,0.8339691c-0.9924774-0.0056686-1.238533,0.6175003-1.4536972,1.3889236
		c-0.1260834,0.4520187-0.3781204,0.8689117-0.621624,1.4081879c-0.6641464-0.8442688-0.8195343-2.0802612-2.1026535-2.1356888
		C32.1362762,72.7203445,31.3547764,72.8924332,31.3005447,72.0697556z"></path>
	<path d="M201.7116394,60.1478386c2.3856964,0.6925583,2.7864685,2.6230774,3.2181549,4.4972954
		c0.2012329,0.8737869,0.3627014,1.3121567,1.4160461,0.7679443c1.3135529-0.6786728,1.5969849-0.490181,2.2719269,0.8471146
		c0.1878052,0.3721008,0.5115967,0.599617,0.8129272,0.8603897c0.9770966,0.8455963,1.850769,1.7709732,2.1375732,3.091835
		c0.1993256,0.9179535-0.0283203,1.5408325-1.0929718,1.6926346c-1.231369,0.1755753-2.4594879,0.359726-3.6762543-0.0022964
		c-0.7895355-0.2349243-1.6727905-0.4190979-1.6607666-1.5585556c0.0022125-0.2107925-0.1058655-0.5037079-0.42659-0.4631195
		c-0.2762451,0.0349655-0.3478546,0.2977066-0.4314117,0.5181885c-0.4231262,1.1163483-0.8265991,2.2405319-1.2742767,3.3468628
		c-0.0933228,0.2305984-0.1317444,0.6227951-0.4726563,0.6157227c-0.367569-0.007637-0.448761-0.4031448-0.6066895-0.664772
		c-0.0798187-0.1322556-0.1571045-0.3092117-0.1369629-0.4520645c0.2362671-1.675621-0.9239807-2.4496536-2.0789642-3.2031631
		c-0.6825256-0.4452667-0.7864838-0.9457474-0.53508-1.7168274
		C200.0621185,65.6062622,200.8757782,62.8637657,201.7116394,60.1478386z"></path>
	<path d="M191.2103424,87.0963516c0.2592621-1.4888153,0.5285645-2.9759903,0.7715607-4.467453
		c0.0711212-0.4364624,0.266449-0.4949341,0.6585846-0.3912735c0.8173065,0.2160721,0.8275909,1.0143814,1.124588,1.5733414
		c0.2465363,0.4639511-0.3666534,0.5111084-0.616333,0.6745834c-0.3660431,0.2396698-0.4539032,0.4806671-0.335968,0.8883896
		c0.2068329,0.7150803,0.091629,1.4332657-0.1673584,2.107193c-0.1472931,0.383316-0.2814636,1.0707932-0.6982422,0.9763794
		C191.4090729,88.3356018,191.1526947,87.7334595,191.2103424,87.0963516z"></path>
</g>
<g onclick="select(this)" class="" id="c-estampa-secundaria" fill="#ce6b03">
	<path d="M210.7039185,38.3601151c-1.4389954,0.2857094-2.8152008,0.2330322-3.9941406-0.7845726
		c-0.6224976-0.5372963-1.6026154,0.0655174-2.1531219-0.7148323c-0.987854-1.4002876-0.9315033-2.9142265-0.5393219-4.4744186
		c1.2589569,0.5179596,1.9332886,1.711998,2.9260712,2.5396347
		C208.2473145,36.012928,209.6281891,37.0212898,210.7039185,38.3601151z"></path>
	<path d="M3.3450642,99.0131836c0.4689271-3.1875229,1.0275793-6.3572617,1.8763113-9.469902
		c0.3446069-0.0884628,0.7247801-0.1108322,1.0276928-0.2754059c1.9654293-1.0678253,4.0557747-1.6999359,6.2814264-1.8926849
		c0.2790518-0.0241699,0.5629225-0.0237656,0.7820435-0.2406235c1.0920162-1.0808105,2.4947453-1.7198639,3.7822971-2.4882813
		c0.9291878-0.5545349,1.1742153-1.417099,1.2317352-2.1669312c0.0398121-0.5189667-0.7467041-1.1715393-1.5955124-1.1638031
		c-0.1248455,0.0011444-0.2934628-0.1216583-0.3702068-0.2354355c-0.9030704-1.3388214-0.9011021-2.3332138,0.0727406-3.6980972
		c1.6521759-2.3155823,3.5817356-2.7512207,5.5245495-2.1509247c1.2042198,0.3720932,1.1616306,0.4854889,1.1749859-0.8589783
		c0.0023117-0.2326584,0.0988312-0.464386,0.1518326-0.6965408l-0.0110188,0.0091629
		c1.5005836-0.009552,2.8736725,1.1402435,3.0426464,2.6006393c0.0718689,0.6211319-0.2393055,0.9813919-0.9104595,0.934761
		c-1.4782085-0.1026993-2.0570812,0.6686096-1.5017967,2.0255127c0.1350212,0.3299332,0.2969036,0.6661377,0.5195065,0.940094
		c1.2403336,1.5264969,2.5599995,2.9157181,2.2095833,5.2355423c-0.1018753,0.6744308-0.1830597,1.0249634-0.6754742,1.3314285
		c-1.7076054,1.0628052-3.5999451,0.9675522-5.461874,0.7173157c-1.2016048-0.161499-2.2767792-0.0819168-3.3413544,0.5181351
		c-0.9382877,0.528862-1.8926249,1.0677185-2.9030447,1.4219818c-1.990571,0.6979141-2.0083942,0.6462555-2.0237713,2.7312546
		c-0.0032434,0.4398422-0.0171862,0.8797684-0.0121727,1.3194962c0.0051451,0.4513626-0.1689606,0.814003-0.6110096,0.9191666
		c-1.3668432,0.3251648-1.2929487,1.2605057-1.0109472,2.2913437c0.1157284,0.4230347,0.2684135,0.8358231,0.3962555,1.2557144
		c0.2998438,0.9848709,0.4516306,1.9094467-0.4075203,2.7710648c-0.4710035,0.4723511-0.3598166,1.076561,0.1110582,1.6126022
		c0.7803583,0.8883591,1.7731371,1.4239502,2.9058495,1.5202408c1.4589529,0.1240158,2.4575377,0.7060699,3.0928602,2.0642166
		c0.3451385,0.7378159,0.2694054,1.1602707-0.489481,1.3432922c-0.926899,0.2235565-1.876894,0.3509827-2.816309,0.5232162
		c-0.3107166,0.0569687-0.692647,0.0776367-0.7847786,0.4312515c-0.0921822,0.3537979,0.2206202,0.6014557,0.4715662,0.7721252
		c1.1558971,0.7861176,2.2979784,1.6062317,3.8258505,1.4618683c0.6740055-0.0636826,1.3609543-0.0511017,2.0376854-0.0068283
		c0.586628,0.0383835,1.3265629,1.1644516,0.9721985,1.4548492c-0.9490852,0.7777405-2.0304928,1.4159088-1.2871628,2.9127884
		c-1.0389194,1.1334686-0.2398605,1.984314,0.54175,2.9379883c-0.5432644,0.0617142-1.015028,0.0609741-1.4526138,0.1828995
		c-0.3260708,0.0908585-0.843029-0.0105438-0.9451828,0.34478c-0.1223354,0.4255295,0.1387177,0.8641281,0.4948025,1.1545944
		c0.2741222,0.2236023,0.5813618,0.4311142,0.9075203,0.5618057c0.9644527,0.3864441,1.9872456,0.5588074,2.9967899,0.789856
		c0.7194519,0.16465,1.6578388-0.1709824,2.1130943,0.7560883c-4.2092514-0.3185577-8.4293404-0.7945862-12.483367-1.8744125
		c-1.6192074-0.4312897-3.2128463-0.1100693-4.7765551-0.6565933c-1.6000085-0.5591965-3.3247843-0.7599869-4.9927454-1.1276321
		c-0.2676709-0.0589981-0.523849-0.1701355-0.7853383-0.2571793C0.24,117.1200027,0.24,116.640007,0.24,116.1600037
		c0.2285085-0.7837524,0.5206553-1.5348587,1.0742962-2.1577988c0.3263175-0.3671646,0.4099416-0.7213135,0.0642017-1.163414
		c-0.523126-0.6689377,0.0327399-1.3751221,0.0661225-2.0550461c0.0537456-1.0946655,0.3849962-2.175705,0.5992962-3.2627182
		c1.9361751-0.4033356,2.6810336-2.2057343,3.9372063-3.3980865c0.5079312-0.4821091-0.2746367-1.0755768-0.1508517-1.6509476
		c0.050015-0.2324829,0.1160913-0.46315,0.14465-0.6983109c0.1968594-1.6210403,0.1395431-1.7465973-1.462081-1.6719284
		C3.6258426,100.1431198,3.297188,99.8468246,3.3450642,99.0131836z"></path>
	<path d="M193.9914551,123.1978302c0.9747314-0.2960739,0.8436584-1.2495346,1.0791016-1.9386749
		c0.3141327-0.9194794,0.2612762-1.9561234,1.6688843-2.0960541c0.4042358-0.0401764,0.713028-0.8726273,1.1033936-1.3079147
		c0.1430359-0.1595001,0.4303894-0.3460693,0.5910339-0.301384c0.3555603,0.0988846,0.2332916,0.4633331,0.1791992,0.7144547
		c-0.1839447,0.8539886-0.4470825,1.6927567-0.5973206,2.5517807c-0.3218384,1.8399506,0.2412109,2.5132217,2.0696259,2.5516968
		c0.3503265,0.0073853,0.7515564-0.1152344,0.8035736,0.4319458
		C198.556015,123.9856262,196.2507324,123.8534927,193.9914551,123.1978302z"></path>
	<path d="M12.2114601,59.1269035c0.3461657-0.3289986,0.8287935-0.5951042,1.0145149-0.9980507
		c0.7440214-1.6142731,2.2624855-2.1343651,3.6872311-2.841362c1.2056427-0.598278,2.3541679-0.2324142,3.4918175,0.0799179
		c0.7633228,0.2095642,0.5564461,0.7776222,0.1536179,1.2034874c-0.7140903,0.7549171-1.47262,1.4677238-2.2102489,2.2004738
		c-0.7876453,0.7824326-1.3917904,1.651123-1.3283749,2.8346596c0.0062885,0.1173019,0.004509,0.2533951-0.0472565,0.3527756
		c-1.288188,2.4730644,0.6593952,4.3185768,1.2956753,6.4007301c0.1740475,0.5695496,1.0669823,0.6670685,1.5891113,0.430397
		c0.5265541-0.2386703,0.033802-0.7593613-0.0776978-1.1276932c-0.1492577-0.4930649-0.4291-0.9452133-0.5990448-1.4336624
		c-0.3902569-1.1216736,0.5008984-2.197197,1.668499-2.0216904c1.0605221,0.1594162,2.1390381,0.1933594,3.1705704,0.5581512
		c0.5584679,0.1974945,0.8994236,0.590744,0.6721954,1.0671921c-0.8345299,1.7498245-0.356308,3.5261841-0.239254,5.2963257
		c0.0418816,0.6333389,0.1462898,1.2002792-0.6513882,1.5293655c-0.2709255,0.1117706-0.3569641,0.6716766-0.5274849,1.0268173
		c-0.0000019,0,0.0110168-0.0091629,0.011013-0.0091705c-2.4877472-0.3971405-5.024025-0.3861313-7.4540224-1.3226395
		c-0.8445282-0.3254776-2.0235853-0.5956879-3.0184879-0.2631302c-1.120451,0.374527-2.2336302-0.3284149-3.3363361,0.1439209
		C9.180954,72.3601532,8.9691048,71.905159,8.698369,71.7491531c0.1743326-1.5278931,0.4325914-3.0400467,0.8491259-4.5227509
		c0.3138618,0.1244888,0.6564207-0.0004272,0.6755381-0.2677536c0.0919876-1.2861862,0.9618111-0.9780502,1.7183075-0.8875275
		c1.3883448,0.1661301,2.2519064-0.7522049,3.1790905-1.5257874c0.2171183-0.1811523,0.285223-0.4775085,0.1389751-0.7639618
		c-0.2064819-0.4044228-0.5483265-0.2274246-0.8369007-0.1619034c-1.4695807,0.3337021-2.9041815,0.7844772-4.3074198,1.3344421
		c0.3500957-1.8336754,0.545311-3.7275467,1.9387579-5.1660767C12.252738,59.5825119,12.1563272,59.3455544,12.2114601,59.1269035z"></path>
	<path d="M204.4740601,115.7344513c-0.6758575-0.2374878-1.281723-1.2356949-2.0821838-0.0928802
		c-0.1818085,0.2595673-0.5650787-0.3559036-0.9522552-0.3196487c-0.1940918,0.6723938,0.0456543,0.9983139,0.7548065,1.1571732
		c0.8838348,0.1979752,0.7084656,0.7264481,0.1932678,1.186554c-0.8046875,0.7186508-1.8339539,0.8234329-2.7779541,0.5654526
		c-0.8569641-0.2341995-0.8122711-1.1123123-0.5458984-1.7864532c0.2423706-0.6134567,0.6937714-1.1443176,1.1205292-1.8181381
		c-0.6402893-0.1855927-1.3031464,0.0416412-1.8974915-0.4303131c-0.4315491-0.342659-0.8114777,0.3552704-0.9568176,0.7683945
		c-0.3006592,0.8544693-0.3914642,1.8087082-1.5529633,2.0058899c-0.2415009,0.0409927-0.2574005,0.3754272-0.2795868,0.6157074
		c-0.0472107,0.5113678-0.2697144,0.821991-0.838974,0.7617645c-0.1170502-0.0123901-0.3211365-0.027916-0.3448639,0.0231628
		c-0.760025,1.6361618-2.4305878,0.3963318-3.5449524,1.1186066c-0.6351776,0.4116821-1.4672394,0.811882-2.3486786,0.7327652
		c0.0929718-0.8706436,0.1985321-1.7377853,0.0418701-2.6160202c-0.2639465-1.479744,0.0492249-2.9510498,0.2477417-4.3939285
		c0.2942352-2.138588,0.4711914-4.267746,0.3917389-6.4205704c-0.0666199-1.8045044,0.2553253-3.5742111,0.5084381-5.345047
		c0.225235-1.5756683,0.2851563-1.5195694,1.6787567-0.8989258c0.8566589,0.3815231,1.2447205,1.2051697,1.9616089,1.7043076
		c0.4181366,0.2911224-0.0606384,0.7359085-0.0242004,1.1102448c0.0380707,0.3909988-0.61026,0.9775391,0.4006958,1.1301346
		c0.3456421,0.0521774-0.3565826,0.3027878-0.2204895,0.605484c0.3777313,0.0243225,0.7706299,0.1358643,1.1065826-0.122261
		c0.1678162-0.446701-0.7099762-0.7952805-0.1636505-1.162178c0.6106415-0.4100876,1.2080231-0.0536957,1.7243652,0.3619995
		c0.0000305,0.0000839-0.0082245-0.0097656-0.0082855-0.0097885c1.020462,1.2336655,2.4141693,1.189949,3.7198792,0.8475952
		c1.4767609-0.387207,2.6468811,0.1090012,3.838501,0.7931747c0.1802521,0.1034851,0.3324738,0.2248611,0.3584137,0.4426346
		c0.2133942,1.7915039,1.566864,2.2077408,3.0188751,2.4934158c0.2348175,0.0462036,0.6072235,0.061615,0.4776764,0.3434219
		c-0.4288635,0.932869,0.2403412,1.6692429,0.3450165,2.4998245c-0.0336609,0.0490112-0.0675201,0.0978622-0.1013794,0.146698
		c0.0481262-0.0346222,0.0962677-0.069252,0.1443787-0.1038818c1.2065277-0.2674561,2.484726-1.1227722,3.546524,0.5860214
		c-1.5818939,0.3092957-2.1148376,1.9847794-3.5018311,2.6076202c-0.1885071,0.0846558-0.2953491,0.257782-0.2113037,0.4874039
		c0.0000763,0.0002594-0.0231323,0.0065613-0.023468,0.0050278
		C206.4777069,114.4569626,205.5035095,115.3058014,204.4740601,115.7344513z"></path>
	<path d="M31.3005447,72.0697556c0.0542316,0.8226776,0.8357315,0.650589,1.281414,0.9370804
		c0.0028801,1.6825714,0.6180191,3.1769257,1.419281,4.6141968c0.3997993,0.7171402,0.9974365,1.2166977,1.8270798,1.0986633
		c2.070076-0.2945328,3.3843231,0.9182739,4.8284569,2.0964432c1.1163406,0.9107285,1.9280586,1.820816,1.8111458,3.326088
		c-1.2974167-0.7622223-2.5816422-0.3259659-3.7999992,0.1557312c-0.8078232,0.3193817-1.3791351,0.204483-2.0772591-0.2620773
		c-1.4973297-1.0006714-2.7475395-2.1328125-3.2126808-3.9720001c-0.1977959-0.7820892-0.6657944-1.4616776-1.4627724-1.795578
		c-0.6193504-0.2594757-1.0113945-0.1888657-0.8519974,0.6507874c0.1811695,0.9543457,0.5707664,1.8141403,1.0214195,2.6642151
		c0.3689156,0.6959076,0.9030762,1.3174973,1.0237541,2.1331406c-1.8233376,0.2537766-3.3850136-0.3129578-4.6767712-1.5824966
		c-0.8798542-0.8647232-1.3684235-2.0190582-1.9113998-3.0919952c-0.3516331-0.6948242,0.5855503-0.7092972,0.9057674-0.7063293
		c1.263401,0.0117416,1.3190746-0.6598434,0.9376068-1.5264435c-0.6919308-1.5718765,0.011425-2.8804092,0.7789097-4.1188202
		C29.5966568,71.9575424,30.4864769,71.9615402,31.3005447,72.0697556z"></path>
	<path d="M37.2315865,91.9310379c0.8583565-0.254776,1.716362,0.0717621,2.5760689,0.0021133
		c0.453476-0.0367279,0.9395027-0.0547714,0.8616905-0.678566c-0.1517563-1.216568,0.5095291-1.3597183,1.4642029-1.1990128
		c0.3461342,0.0582733,0.699852,0.0714951,1.0501213,0.1053772c-0.0285912,1.0204315-1.5334435,1.1895294-1.3682442,2.3399963
		c0.0022736,0.0158081-0.3620071,0.1473007-0.5348625,0.1151962C39.9343987,92.3662186,38.5238914,92.4929352,37.2315865,91.9310379
		z"></path>
</g>
<path d="M207.8665771,111.6288223c-0.048111,0.0346298-0.0962524,0.0692596-0.1443787,0.1038818
	c0.0338593-0.0488358,0.0677185-0.0976868,0.1013794-0.146698
	C207.8233795,111.5858459,207.8665771,111.6288223,207.8665771,111.6288223z"></path>
<g onclick="select(this)" class="" id="c-gola-primaria" fill="#000000">
	<path d="M81.8337631,7.9551482c1.7809372-1.4190092,3.4730377-2.9295225,4.8501663-4.7590275
		c1.5450439-2.0525742,3.8180466-2.4387608,6.1472397-2.7100065C93.2521667,0.437086,93.72155,0.6118734,94.0800018,0.24
		c16,0,32,0,48,0c0.8258362,0.4266242,1.7599182,0.3826382,2.635376,0.5993913
		c1.7582092,0.4353179,3.2734985,1.2413597,4.3717957,2.7102425c1.1104889,1.4851677,2.5509338,2.6122496,3.9674988,3.7706835
		c0.1449127,0.1185122,0.2287445,0.3117666,0.3406677,0.4704785c-0.7481842,0.0850201-1.4983826,0.1537113-2.2436371,0.257587
		c-3.1931915,0.4450655-6.3809052,0.9314327-9.5781403,1.3446274c-4.3993683,0.568552-8.8260498,0.8129816-13.2524109,1.0787601
		c-5.0248795,0.3017168-10.0399704,0.7530584-15.0837708,0.4571857c-8.4504852-0.4957085-16.90522-0.9516773-25.2742157-2.3104897
		C85.9269104,8.2878542,83.8680801,8.2533169,81.8337631,7.9551482z"></path>
</g>
<g onclick="select(this)" class="" id="c-detalhe-punho" fill="#000000">
	<path d="M0.24,115.9200058c0.5789765-1.8824921,0.7624918-3.8468094,1.1905526-5.7606049
		c0.0581824-0.2601089-0.0143441-0.5728455,0.314887-0.7109451c0.4094726,0.2549896,0.843851,0.4070969,1.3282617,0.4972076
		c5.709785,1.0620346,11.4361839,2.0172729,17.1664352,2.9633942c5.9369011,0.9802551,11.8601398,1.3885651,17.8513241,1.3506393
		c2.4205627-0.0153122,4.7806892-0.0849228,6.9265518-1.4081802c0.7481804-0.4613647,1.0818634-0.1315155,1.084877,0.7159271
		c0.0014725,0.4139099-0.2949524,1.0129929,0.4480705,1.1690674c0.0767593,1.3550491,0.1535225,2.7100983,0.230278,4.0651321
		c-0.0557747,0.0530472-0.1500893,0.0987396-0.1617813,0.1601715c-0.4963951,2.6075745-0.5020065,2.5301285-3.1701164,2.7541428
		c-3.0185738,0.2534409-6.0040245,0.7482605-9.0601616,0.7218399c-6.1752777-0.0533829-12.258791-0.9222183-18.3460712-1.7839737
		c-4.7689228-0.6751099-9.5072765-1.5391846-14.2103863-2.5847778c-0.5390261-0.1198196-1.0621994-0.3109665-1.5927218-0.4690399
		C0.24,117.0400009,0.24,116.4800034,0.24,115.9200058z"></path>
	<path d="M188.6812744,112.5599823c1.8415375,0.2180023,2.7065735,2.1698303,4.4899597,2.5240936
		c0.4556122,0.0905151,0.8739471,0.357933,1.3724365,0.3677292c3.6352692,0.0714645,7.276123,0.3181305,10.9035339,0.1868286
		c3.0143433-0.1091003,6.0121765-0.6626816,9.0184021-1.0103607c3.2063751-0.3708267,6.414093-0.7300186,9.6210022-1.0962982
		c2.7430267-0.3132935,5.3955688-1.0523529,8.0636902-1.7179031c0.8446655,0.5238724,0.7039185,1.461937,0.7878876,2.2139969
		c0.1720123,1.5407028,0.3506775,3.0860138,0.3776855,4.6480637c0.0172272,0.9962463-0.3174744,1.3810425-1.249588,1.6120834
		c-3.1387787,0.7779388-6.317688,1.3454895-9.5081482,1.8256073c-7.8910522,1.1875-15.8142548,1.9860916-23.8146057,1.7421799
		c-2.7035675-0.0824127-5.3105316-0.4700699-7.667511-1.9013672c-0.3552856-0.2157516-0.7400513-0.2788696-1.1385956-0.321022
		c-0.8007813-0.0846863-1.4325409-0.4291534-1.790802-1.1847534
		C188.0077515,117.7977371,188.4815674,115.1881485,188.6812744,112.5599823z"></path>
</g>
</svg>
