<!--?xml version="1.0" encoding="utf-8"?-->
<!-- Generator: Adobe Illustrator 24.2.3, SVG Export Plug-In . SVG Version: 6.00 Build 0)  -->
<svg version="1.1" id="Camada_1" xmlns="http://www.w3.org/2000/svg" xmlns:xlink="http://www.w3.org/1999/xlink" x="0px" y="0px" viewBox="0 0 229 418" style="enable-background:new 0 0 229 418;" xml:space="preserve">
<style type="text/css">
	.st0{fill:#FD0202;}
	.st1{fill:#171606;}
	.st2{fill:#C32120;}
</style>
<g onclick="select(this)" class="" id="estampa-primaria" fill="#ffffff">
	<path d="M149.9,8.3c1.9-0.3,3.1,0.9,4.2,2.2c0.3,0.4,0.7,0.7,1.1,1c8.9,5.9,18.8,9.6,28.5,13.7c5.1,2.1,10,4.4,15.1,6.6
		c0.3,0.1,0.6,0.3,0.8,0.5c12,8.5,19.2,20.2,21.4,34.6c1.7,11.3,4.7,22.4,6.2,33.7c0.4,2.7,0.8,5.3,1.2,7.9c-0.4,0-0.8,0.1-1.2,0.2
		c-5.2,2.4-10.8,3.4-16.5,4.2c-4.9,0.7-9.8,1.4-14.7,1c-3-0.2-6.1,0-9-0.7c-0.4-0.1-1-0.3-1.1,0.5c-0.1,2.1-1,4.2-0.7,6.4
		c-0.4,0.8-0.3,1.7-0.4,2.6c-1,8.4-1.7,16.8-1.7,25.2c0,2.2,0.1,4.4,0.5,6.6c0.4,1.9,0,3.8-0.2,5.7c-0.2,2.1-0.2,4.2-0.1,6.3
		c0.1,2.2-0.1,4.3-0.2,6.5c-0.1,2.8-0.1,5.7,0.1,8.5c0.1,1.7,0.1,3.4-0.1,5c-0.3,3,0.2,5.9,0.8,8.8c1.7,7.3,1.5,14.8,0.4,22.2
		c-0.3,2.1-0.4,4.2,0.3,6.4c1.8,5.5,1.8,11.1,0.9,16.7c-0.2,1.4-0.2,2.7,0.1,4c0.9,3.8,0.5,7.7,0.7,11.6c0.3,6,0.7,12,1.4,17.9
		c0.3,2,0.2,4.1,0.3,6.1c0,1.8-0.3,2.3-2.1,2.8c-3,0.9-6,1.1-9.1,1.5c-7.7,0.8-15.5,0.9-23.2,1c-11.2,0.2-22.4,0.7-33.7,0.8
		c-12.5,0.2-24.9-0.8-37.4-0.8c-8.4,0-16.8-0.1-25.2-0.7c-4.1-0.3-8.3-0.8-12.3-1.7c-0.3-0.1-0.5-0.1-0.8-0.2
		c-3-0.8-3.3-1.2-3.2-4.2c0.5-7.8,1-15.7,1.6-23.5c0.1-2,0.3-4.1,0.2-6.1c0-1.8,0-3.6,0.4-5.4c0.4-2.2,0.5-4.4,0.1-6.7
		c-0.4-2.5-0.1-5,0.4-7.5c0.2-1.1,0.2-2.1,0.1-3.2c-0.3-4.5-1-8.9-0.8-13.4c0.2-4.4,1.2-8.6,2.7-12.7c0.4-1,0.6-2,0.4-3
		c-0.2-1.2-0.2-2.5,0.1-3.7c0.3-1.7,0.2-3.3,0.1-5c-0.2-3.3-0.2-6.6-0.2-9.9c-0.1-12.9,0-25.8-0.1-38.7c0-5.2-1-10.3-1.5-15.5
		c-0.1-1.3,0-2.6-0.6-3.8c-0.2-1.9-0.3-3.8-0.5-5.7c-0.2-1.5-0.4-1.6-1.9-1.3c-3.3,0.7-6.7,1-10.1,1.1c-5.2,0.1-10.4-0.3-15.5-0.7
		c-4.8-0.4-9.4-1.8-14-3.2c1-4.8,1.7-9.7,2.3-14.5c0.9-6.3,1.9-12.6,2.6-18.9c0.8-6.7,1.9-13.3,4-19.7C14,48.5,18.8,40.9,26.2,35
		c1.1-0.9,2-2.2,3.3-2.9c3.6-1.9,7.3-3.7,11-5.3c10-4.1,20-8.2,29.4-13.4c2-1.1,4-2.1,5.5-3.9c0.8-1,2.1-1.6,3.5-1.6
		c-1.7,0.9-2,2.4-1.7,4.1c0.4,2.1,1.1,4.2,2.3,6c5.9,8.6,14.3,13.9,24,17.1c2,0.7,4.2,1.1,6.5,1c-0.7-1.3-1.7-2.3-2.6-3.3
		c-4.4-4.6-9.3-8.5-14.3-12.4c-2.5-2-4.7-4.2-6.7-6.7c-1-1.2-1.7-2.5-2.3-3.9c-0.3-0.7-0.2-1,0.6-0.9c3.5,0.4,7.1,0.7,10.6,1
		c7.9,0.6,15.8,1.4,23.8,1c6.3-0.4,12.5-0.7,18.8-1.2c2.3-0.2,4.5-0.3,6.8-0.5c-0.1,0.8-0.5,1.4-0.8,2c-1.2,2.3-2.9,4.2-4.7,6.1
		c-2.9,3-6.4,5.2-9.5,7.8c-3.5,3-7.1,5.9-9.9,9.5c-0.4,0.5-0.9,1-1,1.7c0.8,0,1.6,0,2.3,0c0.2,0,0.4-0.1,0.6-0.1
		c5.1-0.9,9.7-3.1,14.1-5.6c3.3-1.9,6.3-4.2,9.1-6.8c3.1-3,5.5-6.4,6.6-10.6C152.2,10.8,151.6,8.7,149.9,8.3z"></path>
</g>
<g onclick="select(this)" class="" id="gola-primaria" fill="#ffffff">
	<path d="M149.9,8.3c1.7,0.5,2.3,2.5,1.7,4.7c-1.2,4.2-3.5,7.7-6.6,10.6c-2.7,2.6-5.8,4.9-9.1,6.8
		c-4.4,2.6-9,4.7-14.1,5.6c-0.2,0-0.4,0.1-0.6,0.1c-0.8,0-1.5,0-2.3,0c0.1-0.7,0.6-1.2,1-1.7c2.9-3.6,6.4-6.5,9.9-9.5
		c3.1-2.6,6.6-4.9,9.5-7.8c1.8-1.8,3.4-3.8,4.7-6.1c0.3-0.6,0.7-1.2,0.8-2c-2.3,0.2-4.6,0.3-6.8,0.5c-6.2,0.5-12.5,0.9-18.8,1.2
		c-8,0.5-15.9-0.4-23.8-1c-3.5-0.3-7.1-0.6-10.6-1C84,8.8,84,9.1,84.2,9.8c0.6,1.4,1.3,2.7,2.3,3.9c2,2.5,4.2,4.7,6.7,6.7
		c5,3.9,9.9,7.8,14.3,12.4c0.9,1,1.9,2,2.6,3.3c-2.3,0.2-4.5-0.3-6.5-1c-9.8-3.2-18.1-8.5-24-17.1c-1.2-1.8-1.9-3.8-2.3-6
		c-0.3-1.7,0-3.2,1.7-4.1c0.5,0,0.9-0.3,1.3-0.6c0.9-0.9,2-1.7,2.7-2.7c2-2.9,5-3.6,8.2-3.9c3.1-0.3,6.1,0.1,9.2,0
		c4.4-0.1,8.8,0,13.2-0.1c7.9-0.2,15.8,0,23.7,0c0.9,0,1.8,0.2,2.7,0.3c2.2,0.3,4.1,1.2,5.6,3.1C146.7,5.8,148.1,7.3,149.9,8.3z"></path>
</g>
<g onclick="select(this)" class="" id="detalhe-punho" fill="#021c3b">
	<path d="M185.3,120.1c-0.3-2.2,0.6-4.2,0.7-6.4c0-0.8,0.7-0.6,1.1-0.5c3,0.7,6,0.5,9,0.7c5,0.3,9.8-0.3,14.7-1
		c5.7-0.8,11.2-1.9,16.5-4.2c0.4-0.2,0.8-0.3,1.2-0.2c1.1,2.3,1.2,4.8,1.1,7.4c0,0.7-0.8,0.8-1.3,1c-2.9,1.1-5.8,1.9-8.8,2.6
		c-8.7,2.3-17.6,2.8-26.6,2.3c-2.1-0.1-4.1-0.3-6.1-0.9C186.2,120.7,185.7,120.6,185.3,120.1z"></path>
	<path d="M2.1,110.5c4.6,1.4,9.2,2.8,14,3.2c5.2,0.5,10.3,0.8,15.5,0.7c3.4-0.1,6.7-0.4,10.1-1.1
		c1.5-0.3,1.7-0.2,1.9,1.3c0.2,1.9,0.3,3.8,0.5,5.7c-0.9,0.7-2,1-3.1,1.2c-2.5,0.5-5,0.8-7.6,0.8c-7,0.1-13.9,0-20.8-1.2
		c-3.2-0.6-6.3-1.2-9.4-2.2c-2-0.7-2.2-0.9-2-3C1.3,114.1,1.6,112.2,2.1,110.5z"></path>
</g>
<g onclick="select(this)" class="" id="estampa-secundaria" fill="#021c3b">
	<path d="M148.9,244.1c-4.1,0.7-8.3,0.6-12.4,0.3c-4.1-0.3-8.1,0.2-12.2,0c-4.1-0.2-8.2,0.6-12.2-0.3
		c1.2-0.4,2.4-0.5,3.6-0.5c2.6-0.1,5.2-0.1,7.8,0.4c0.6,0.1,1.3-0.1,2-0.2c3.2-0.2,6.4-0.3,9.7,0.2c0.8,0.1,1.6-0.2,2.5-0.3
		c3.6-0.3,7.3-0.3,10.9,0.1C148.6,243.9,148.7,244,148.9,244.1z"></path>
	<path d="M124.8,279.3c-1,0.1-2.1,0.1-3.1,0.2c-3.5,0.1-7.1,0.2-10.6-0.3c-0.9-0.1-2,0.3-3,0.3
		c-4.5,0.2-8.9,0.3-13.4-0.2c-0.1,0-0.3-0.1-0.4-0.3c1-0.1,2-0.2,3-0.3c4.5-0.2,9-0.3,13.5,0.3c0.8,0.1,1.6-0.1,2.3-0.2
		c3.8-0.3,7.5-0.2,11.2,0.1c0.2,0,0.3,0.1,0.4,0.1C124.8,279.1,124.8,279.2,124.8,279.3z"></path>
	<path d="M122.1,266.1c-3.5,0.3-7,0.5-10.6-0.1c-1.4-0.2-2.9,0.4-4.3,0.4c-3.5,0-6.9,0.2-10.4-0.6
		c1.5-0.1,3-0.3,4.5-0.3c2.8,0,5.5-0.2,8.3,0.2c2.9,0.4,5.7-0.5,8.6-0.2c1.3,0.1,2.7,0.2,4,0.3C122.1,265.9,122.1,266,122.1,266.1z"></path>
	<path d="M142.2,261.8c-1.4,0.1-2.8,0.3-4.2,0.3c-3.2,0-6.5,0.2-9.7-0.2c-2.7-0.4-5.4,0.5-8.1,0.2
		c-1.1-0.1-2.3-0.1-3.4-0.6c0.9-0.1,1.8-0.3,2.7-0.3c2.4,0,4.8-0.1,7.1,0.4c0.8,0.2,1.9-0.2,2.9-0.3c4.1-0.4,8.2-0.2,12.3,0.1
		c0.1,0,0.3,0.1,0.4,0.1C142.2,261.6,142.2,261.7,142.2,261.8z"></path>
	<path d="M146.9,222.3c-3.6,0.7-7.3,0.7-10.9,0.4c-4.5-0.4-9,0.7-13.4-0.4c1.4-0.3,2.9-0.5,4.3-0.4
		c4.9,0.4,9.7-0.1,14.6-0.1C143.3,221.7,145.1,221.9,146.9,222.3z"></path>
	<path d="M137.6,239.9c-0.9,0.1-1.8,0.3-2.6,0.3c-6.8-0.3-13.5,0.2-20.3-0.4c1.9-0.5,3.8-0.5,5.7-0.5
		c1.9,0,3.8,0.3,5.7,0.3c1.9,0,3.9-0.3,5.8-0.3C133.8,239.3,135.7,239.3,137.6,239.9z"></path>
	<path d="M111.6,252.9c2.9-0.6,5.8-0.5,8.8-0.3c1,0.1,2,0.1,3,0c3.7-0.3,7.5-0.3,11.2,0.2c-2.5,0.6-5.1,0.4-7.6,0.5
		c-2.6,0.1-5.1-0.5-7.7-0.1C116.7,253.5,114.2,253.4,111.6,252.9z"></path>
	<path d="M108.7,257.2c3.2-0.6,6.5-0.6,9.8-0.1c0.8,0.1,1.6-0.1,2.4-0.1c3.2-0.2,6.4-0.2,9.6,0.3
		c-3.6,0.5-7.3,0.3-10.9,0.2C115.9,257.4,112.3,258.1,108.7,257.2z"></path>
	<path d="M88.9,270.4c5.6-0.7,11.3-0.7,16.9,0C100.2,271,94.6,271,88.9,270.4z"></path>
	<path d="M140.2,270.4c3.2-0.8,14-0.8,16.9,0C151.4,271,145.8,270.9,140.2,270.4z"></path>
	<path d="M156.4,252.9c-5.7,0.7-11.4,0.7-17,0C142.1,252.2,152.2,252.1,156.4,252.9z"></path>
	<path d="M106.7,213.5c-5.7,0.7-11.4,0.7-17.1,0C95.3,212.8,101,212.8,106.7,213.5z"></path>
	<path d="M145.4,169.7c5.7-0.7,11.3-0.7,17.3-0.1C159.9,170.5,148.6,170.5,145.4,169.7z"></path>
	<path d="M91.9,195.9c4.9-0.6,13.8-0.6,17.2,0C107,196.8,94.2,196.8,91.9,195.9z"></path>
	<path d="M112.2,226.6c-5.7,0.7-11.3,0.6-17,0C100.9,225.9,106.5,226,112.2,226.6z"></path>
	<path d="M166.9,152.3c-5.6,0.6-11.2,0.6-16.9,0C155.6,151.6,161.3,151.6,166.9,152.3z"></path>
	<path d="M146.8,226.6c5.6-0.7,11.3-0.7,17.2-0.1C161.4,227.3,151.1,227.4,146.8,226.6z"></path>
	<path d="M133.7,274.8c5.4-0.7,10.9-0.7,16.3,0C144.5,275.4,139.1,275.4,133.7,274.8z"></path>
	<path d="M142.7,139.2c5.6-0.7,11.3-0.7,16.9,0C154,139.8,148.3,139.8,142.7,139.2z"></path>
	<path d="M142.2,130.4c-5.5,0.6-10.9,0.6-16.4,0C131.3,129.7,136.8,129.7,142.2,130.4z"></path>
	<path d="M115.1,209.1c-5.5,0.6-10.9,0.6-16.4,0C104.2,208.4,109.6,208.4,115.1,209.1z"></path>
	<path d="M157.1,156.7c-5.4,0.7-10.9,0.7-16.3,0C146.2,156,151.6,156,157.1,156.7z"></path>
	<path d="M157.9,187.3c-5.4,0.7-10.9,0.7-16.3,0C147.1,186.6,152.5,186.6,157.9,187.3z"></path>
	<path d="M117.2,191.6c-5.4,0.6-10.8,0.6-16.2,0C106.4,191,111.8,191,117.2,191.6z"></path>
	<path d="M145.3,213.5c5.3-0.7,10.5-0.7,15.8,0C155.8,214.2,150.6,214.2,145.3,213.5z"></path>
	<path d="M114.2,274.7c-2.3,0.7-13.1,0.8-15.5,0C101.2,274,110.7,274,114.2,274.7z"></path>
	<path d="M112.2,178.5c-5.4,0.6-10.8,0.6-16.2,0C101.4,177.8,106.8,177.9,112.2,178.5z"></path>
	<path d="M149.7,209.2c-5.2,0.6-10.4,0.6-15.7,0C139.2,208.4,144.5,208.4,149.7,209.2z"></path>
	<path d="M102.3,174.2c5.2-0.7,10.3-0.7,15.5,0C112.6,174.9,107.4,174.8,102.3,174.2z"></path>
	<path d="M152.2,174.1c-2.9,0.9-13.3,0.8-15.7,0C141.7,173.5,146.8,173.5,152.2,174.1z"></path>
	<path d="M150.4,191.6c-2.8,0.7-12.7,0.7-15.9,0C140.1,191,145.3,191,150.4,191.6z"></path>
	<path d="M135.2,126c5.6-0.7,11.3-0.7,17.1-0.1C150.2,126.7,139,126.8,135.2,126z"></path>
	<path d="M134.7,134.8c-5.2,0.7-10.4,0.7-15.6,0C124.3,134.1,129.5,134.1,134.7,134.8z"></path>
	<path d="M126.7,147.9c5.2-0.7,10.3-0.6,15.8-0.1C139.9,148.6,129.8,148.6,126.7,147.9z"></path>
	<path d="M86.4,283.4c5.6-0.6,11.3-0.6,17.1-0.1C101.6,284.1,89.6,284.2,86.4,283.4z"></path>
	<path d="M150.9,182.8c5.6-0.6,11.3-0.6,17-0.1C166.5,183.6,153.9,183.7,150.9,182.8z"></path>
	<path d="M96.5,239.7c5.4-0.6,10.8-0.6,16.3-0.1C111.3,240.4,98.9,240.5,96.5,239.7z"></path>
	<path d="M106.8,270.3c4.9-0.6,9.8-0.6,14.8-0.1C119.8,271,109.7,271,106.8,270.3z"></path>
	<path d="M133.4,143.6c5.4-0.7,10.9-0.7,16.3,0C144.3,144.2,138.9,144.2,133.4,143.6z"></path>
	<path d="M103.3,182.9c-4.6,0.7-14.2,0.6-16.4-0.1C92.4,182.3,97.8,182.2,103.3,182.9z"></path>
	<path d="M150.1,200.5c2.4-0.8,14.1-0.8,16.2,0C160.9,201.1,155.5,201,150.1,200.5z"></path>
	<path d="M148.4,257.3c-5.4,0.6-10.8,0.6-16.5,0.1C134.2,256.6,144.2,256.5,148.4,257.3z"></path>
	<path d="M104.3,248.5c3.1-0.8,12.3-0.8,15.1,0C116.9,249.1,108.3,249.2,104.3,248.5z"></path>
	<path d="M121.1,235.4c-4.9,0.6-9.8,0.7-14.7,0C109.9,234.7,116.8,234.7,121.1,235.4z"></path>
	<path d="M138.3,231c4.9-0.6,9.8-0.7,14.6,0C148.1,231.6,143.2,231.6,138.3,231z"></path>
	<path d="M104.8,165.4c-5.4,0.6-10.8,0.6-16.3,0C93.9,164.7,99.3,164.7,104.8,165.4z"></path>
	<path d="M157.1,204.8c-5.4,0.5-10.8,0.5-16.3,0.1C142.2,204.1,154.4,204,157.1,204.8z"></path>
	<path d="M110.9,252.8c-2.9,0.8-11.5,0.8-13.9,0C99.8,252.2,107,252.1,110.9,252.8z"></path>
	<path d="M104.5,222.3c5.3-0.8,10.6-0.7,15.9-0.1C115.2,222.9,109.9,222.8,104.5,222.3z"></path>
	<path d="M120.5,204.8c-5.2,0.6-10.3,0.6-15.5,0C110.2,204.1,115.3,204.1,120.5,204.8z"></path>
	<path d="M139.1,217.9c4.8-0.7,9.6-0.7,14.5,0C148.7,218.6,143.9,218.5,139.1,217.9z"></path>
	<path d="M126.8,279.1c5.2-0.7,10.4-0.7,15.6,0C137.3,279.8,132,279.7,126.8,279.1z"></path>
	<path d="M136.4,152.3c-4.9,0.6-9.8,0.6-14.8,0C126.5,151.6,131.4,151.7,136.4,152.3z"></path>
	<path d="M126,217.9c-5.2,0.6-10.3,0.7-15.5,0C115.7,217.3,120.9,217.3,126,217.9z"></path>
	<path d="M107.7,257.2c-5.1,0.6-10.1,0.7-15.1,0C97.6,256.6,102.6,256.6,107.7,257.2z"></path>
	<path d="M123.7,266c1.8-0.6,12.2-0.7,15-0.1C136.6,266.6,126.3,266.6,123.7,266z"></path>
	<path d="M139,239.6c5.2-0.6,10.1-0.5,15.2,0C152.8,240.5,141.4,240.5,139,239.6z"></path>
	<path d="M129.3,213.5c-1.9,0.7-12.2,0.7-14.1,0C118.5,212.8,125.9,212.8,129.3,213.5z"></path>
	<path d="M104.4,283.4c4.9-0.6,9.9-0.6,14.9-0.1C117.9,284.1,108.2,284.2,104.4,283.4z"></path>
	<path d="M129.1,139.2c-2.6,0.7-12.9,0.7-15.1,0C115.4,138.5,126.5,138.5,129.1,139.2z"></path>
	<path d="M121.7,283.4c4.9-0.6,9.9-0.6,15-0.1C134.7,284.1,124.5,284.1,121.7,283.4z"></path>
	<path d="M143.7,165.4c-4.9,0.6-9.9,0.6-14.8,0C133.8,164.7,138.8,164.8,143.7,165.4z"></path>
	<path d="M107,187.3c4.4-0.7,8.8-0.7,13.2,0C115.8,188,111.4,187.9,107,187.3z"></path>
	<path d="M144.7,196c-5,0.5-9.9,0.5-14.8,0C134.8,195.4,139.7,195.4,144.7,196z"></path>
	<path d="M124.6,200.4c-4.8,0.6-9.7,0.6-14.5,0C114.9,199.7,119.7,199.8,124.6,200.4z"></path>
	<path d="M134.4,161c4.8-0.6,9.7-0.7,14.5,0C144.1,161.7,139.3,161.7,134.4,161z"></path>
	<path d="M114.4,156.7c-5,0.6-9.9,0.5-14.9,0C104.4,156.1,109.4,156.1,114.4,156.7z"></path>
	<path d="M109.6,161c-4.8,0.6-9.6,0.6-14.3,0C100.1,160.4,104.9,160.4,109.6,161z"></path>
	<path d="M106.9,169.8c5-0.6,9.9-0.6,14.9,0C116.9,170.4,111.9,170.3,106.9,169.8z"></path>
	<path d="M130.7,248.5c2.1-0.7,10.7-0.7,12.9,0C141.1,249.1,133.4,249.1,130.7,248.5z"></path>
	<path d="M145.4,235.3c-1.9,0.8-10.2,0.8-12.4,0C135.7,234.7,142.2,234.6,145.4,235.3z"></path>
	<path d="M140.6,200.5c-4.8,0.5-9.3,0.5-14,0C128.3,199.8,138.1,199.7,140.6,200.5z"></path>
	<path d="M124.5,143.6c-4.5,0.6-9,0.5-13.6,0.1C112.3,143,121.3,142.9,124.5,143.6z"></path>
	<path d="M118.6,156.7c4.5-0.6,9-0.6,13.5,0C127.5,157.2,123.1,157.2,118.6,156.7z"></path>
	<path d="M127,196c-4.5,0.5-8.9,0.6-13.4,0C118,195.4,122.5,195.4,127,196z"></path>
	<path d="M110.8,165.4c4.5-0.5,8.9-0.5,13.4,0C119.7,165.9,115.3,166,110.8,165.4z"></path>
	<path d="M139.4,183c-4.2,0.5-8.4,0.5-12.8,0.1C128.2,182.3,137.2,182.2,139.4,183z"></path>
	<path d="M136.6,187.4c-4.8,0.5-9.2,0.5-13.8,0C124.3,186.7,134.1,186.6,136.6,187.4z"></path>
	<path d="M130.6,178.4c4.5-0.5,8.7-0.5,12.9,0C142.2,179.2,133.1,179.3,130.6,178.4z"></path>
	<path d="M119.1,209.2c2.5-0.7,10.9-0.7,13.7,0C128,209.7,123.5,209.7,119.1,209.2z"></path>
	<path d="M139.4,169.8c-4.5,0.5-9.1,0.5-13.6,0C130.4,169.2,134.9,169.2,139.4,169.8z"></path>
	<path d="M103.8,261.6c4.1-0.7,8.1-0.7,12.1,0C111.8,262.3,107.8,262.2,103.8,261.6z"></path>
	<path d="M124.4,231.1c-3.9,0.6-7.8,0.5-11.9,0.1C114.4,230.3,121.6,230.3,124.4,231.1z"></path>
	<path d="M136.2,204.8c-4,0.6-7.9,0.5-11.9,0C128.3,204.2,132.3,204.2,136.2,204.8z"></path>
	<path d="M116.6,226.6c3.9-0.6,7.8-0.5,11.9-0.1C126.5,227.2,119.3,227.3,116.6,226.6z"></path>
	<path d="M142.6,213.5c-4.1,0.6-8.3,0.6-12.4,0C134.3,212.9,138.4,212.9,142.6,213.5z"></path>
	<path d="M141,226.6c-3.9,0.6-7.8,0.6-11.6,0C133.2,225.9,137.1,226,141,226.6z"></path>
	<path d="M127.4,161.1c-3.7,0.5-7.4,0.4-11.1,0C120,160.4,123.7,160.5,127.4,161.1z"></path>
	<path d="M120.4,147.9c-3.9,0.5-7.9,0.5-11.8,0C112.6,147.4,116.5,147.4,120.4,147.9z"></path>
	<path d="M116.2,274.6c4.2-0.5,8.1-0.5,12.1,0C127,275.3,118.5,275.4,116.2,274.6z"></path>
	<path d="M103.4,152.3c4.5-0.5,8.9-0.6,13.3,0C112.3,152.8,107.8,152.8,103.4,152.3z"></path>
	<path d="M118.3,178.6c3.5-0.6,7.1-0.6,10.6,0C125.3,179.1,121.8,179,118.3,178.6z"></path>
	<path d="M123,270.4c4.5-0.6,8.9-0.5,13.4,0C131.9,270.9,127.5,270.8,123,270.4z"></path>
	<path d="M138,217.9c-3.5,0.5-7.1,0.5-10.6,0C130.9,217.3,134.5,217.4,138,217.9z"></path>
	<path d="M114,182.8c3.4-0.4,6.5-0.4,9.8-0.1C122.6,183.5,116.2,183.6,114,182.8z"></path>
	<path d="M123.2,174.1c4.2-0.5,8.1-0.5,12.1,0C133.9,174.7,125.3,174.7,123.2,174.1z"></path>
	<path d="M119,191.7c3.9-0.6,7.8-0.5,11.7,0C126.8,192.2,122.9,192.1,119,191.7z"></path>
	<path d="M136.5,231c-3.7,0.5-7.5,0.5-11.5,0.1C126.9,230.4,133.6,230.4,136.5,231z"></path>
	<path d="M120.2,248.5c3.2-0.5,6.5-0.5,9.7,0C126.7,249.1,123.4,249,120.2,248.5z"></path>
	<path d="M122.5,235.4c3.2-0.5,6.3-0.5,9.5,0C128.8,235.8,125.6,235.8,122.5,235.4z"></path>
</g>
<g onclick="select(this)" class="" id="estampa-terciaria" fill="#bf0811">
	<path d="M131.3,52.9c-2.4,0.5-42.8,0.5-45.7,0c2-0.4,3.7-0.5,5.3-0.5c3.7-0.1,7.3-0.1,11,0.4c1.2,0.2,2.5-0.2,3.8-0.3
		c3-0.2,6-0.1,8.9,0.3c1.2,0.1,2.5-0.2,3.8-0.3c4-0.3,8.1-0.2,12.1,0.2C130.8,52.7,131.1,52.7,131.3,52.9z"></path>
	<path d="M127.1,57.5c-1.4,0.1-2.4,0.3-3.5,0.3c-14.7-0.2-29.3,0.1-44-0.2C81,56.8,124.5,56.7,127.1,57.5z"></path>
	<path d="M105.1,48.5c4.6-0.7,9.2-0.7,13.8-0.3c0.8,0.1,1.6,0,2.4-0.1c5.1-0.4,10.2-0.4,15.3,0.4
		c-1.1,0.1-2.2,0.3-3.3,0.3c-4.5,0-9.1,0.3-13.6-0.4c-0.9-0.1-1.9,0.2-2.8,0.3c-3.8,0.3-7.6,0.2-11.4-0.1
		C105.4,48.6,105.2,48.6,105.1,48.5z"></path>
	<path d="M121.9,106.6c-9.3,0.5-18.6,0.2-27.9,0.3c0-0.2,0-0.3,0-0.4c0.6-0.1,1.3-0.2,1.9-0.3c0.6-0.1,1.3-0.1,1.9-0.1
		c3.1,0,6.1,0,9.2,0.3c1.8,0.2,3.7-0.2,5.5-0.3C115.7,105.8,118.8,106.1,121.9,106.6z"></path>
	<path d="M109.5,70.8c-1,0.3-2.1,0.4-3.1,0.4c-3.1,0.2-6.1-0.4-9.2-0.2c-4.7,0.4-9.4,0.3-14.1,0c-0.3,0-0.7,0.1-1.1-0.3
		c4.7-0.6,9.3-0.7,13.8-0.3C100.3,70.9,104.9,69.6,109.5,70.8z"></path>
	<path d="M123,61.8c-1.3,0.5-2.4,0.4-3.5,0.5c-3.5,0.1-7,0.2-10.5-0.3c-1.2-0.2-2.4,0.2-3.7,0.3
		c-3.8,0.2-7.6,0.2-11.4-0.1c-0.3,0-0.7-0.1-1-0.3c5-0.5,10-0.3,15-0.2C112.8,61.7,117.8,61.1,123,61.8z"></path>
	<path d="M88.5,79.6c9.6-0.4,19.1-0.2,28.7,0c-3.1,0.8-6.3,0.7-9.5,0.5c-3.2-0.1-6.4,0-9.5,0.1
		C94.9,80.2,91.7,80.4,88.5,79.6z"></path>
	<path d="M125.6,61.9c4.4-0.8,13-0.8,17.6,0C137.3,62.6,131.4,62.5,125.6,61.9z"></path>
	<path d="M70.9,61.8c5.9-0.8,11.8-0.8,17.6,0C82.6,62.5,76.7,62.5,70.9,61.8z"></path>
	<path d="M85.9,106.6c-5.8,0.7-11.7,0.6-17.5,0C71.9,105.8,81.7,105.8,85.9,106.6z"></path>
	<path d="M152.6,106.5c-5.8,0.7-11.7,0.7-17.5,0C140.9,105.8,146.8,105.8,152.6,106.5z"></path>
	<path d="M146.8,75.3c-5.8,0.6-11.6,0.7-17.4,0C135.2,74.5,141,74.5,146.8,75.3z"></path>
	<path d="M71.9,88.6c5.8-0.6,11.5-0.6,17.6-0.1C87.3,89.4,75.8,89.5,71.9,88.6z"></path>
	<path d="M90.1,75.3c-5.8,0.6-11.6,0.7-17.3,0C78.5,74.5,84.3,74.5,90.1,75.3z"></path>
	<path d="M136,97.6c-5.6,0.7-11.2,0.7-16.8,0C124.9,96.8,130.5,96.8,136,97.6z"></path>
	<path d="M97.8,84.2c-5.5,0.7-11,0.7-16.5,0C86.8,83.4,92.3,83.4,97.8,84.2z"></path>
	<path d="M142.3,111c-5.6,0.7-11.2,0.7-16.8,0C131.1,110.2,136.7,110.3,142.3,111z"></path>
	<path d="M103.9,146.7c-5.6,0.8-11.2,0.7-16.7,0C92.7,146,98.3,146,103.9,146.7z"></path>
	<path d="M74.6,119.9c5.3-0.8,10.6-0.8,15.8,0C85.2,120.6,79.9,120.6,74.6,119.9z"></path>
	<path d="M100.3,97.6c-2.9,0.8-13.4,0.8-16.1,0.1C86.6,96.8,96.5,96.8,100.3,97.6z"></path>
	<path d="M81,133.3c5.5-0.8,11-0.8,16.5,0C92,134.1,86.5,134.1,81,133.3z"></path>
	<path d="M129,84.2c-5.3,0.7-10.6,0.7-15.9,0C118.3,83.4,123.7,83.4,129,84.2z"></path>
	<path d="M129.7,39.5c-5.4,0.8-10.7,0.7-16.1,0C119,38.8,124.3,38.8,129.7,39.5z"></path>
	<path d="M109.6,142.3c-5.3,0.6-10.7,0.7-16.3,0.1C96.2,141.5,105.4,141.5,109.6,142.3z"></path>
	<path d="M104.2,111c-4.6,0.7-11.9,0.7-16.3,0C89.8,110.2,101.3,110.2,104.2,111z"></path>
	<path d="M71.7,137.7c5.7-0.7,11.5-0.6,17.3-0.1C87.7,138.4,75.7,138.6,71.7,137.7z"></path>
	<path d="M110.2,70.7c5.5-0.7,10.8-0.6,16.2,0C125.1,71.5,112.4,71.6,110.2,70.7z"></path>
	<path d="M146.2,93.2c-5.8,0.6-11.6,0.6-17.6,0.1C130.4,92.4,142.7,92.3,146.2,93.2z"></path>
	<path d="M95.3,151.2c-5.8,0.6-11.6,0.6-17.4,0C83.7,150.5,89.5,150.5,95.3,151.2z"></path>
	<path d="M103.3,128.9c-5.3,0.6-10.6,0.6-16.1,0.1C88.9,128.1,99.7,128.1,103.3,128.9z"></path>
	<path d="M128.6,119.9c-5.1,0.7-10.2,0.7-15.3,0C118.4,119.2,123.5,119.3,128.6,119.9z"></path>
	<path d="M94.6,102c-5.6,0.7-11.2,0.7-16.8,0C83.3,101.3,88.9,101.4,94.6,102z"></path>
	<path d="M120,79.7c5.6-0.7,11.1-0.7,16.7,0C131.1,80.3,125.5,80.3,120,79.7z"></path>
	<path d="M89,48.5c5.1-0.7,10.2-0.7,15.3,0C99.3,49.1,94.1,49,89,48.5z"></path>
	<path d="M81.6,115.5c2.2-0.8,14.3-0.8,16.8,0C92.8,116.1,87.2,116.1,81.6,115.5z"></path>
	<path d="M117.6,66.3c5.4-0.7,10.9-0.6,16.3,0C131.1,66.9,120.9,66.9,117.6,66.3z"></path>
	<path d="M112.3,102c5.4-0.6,10.7-0.6,16.2-0.1C126.8,102.7,115,102.8,112.3,102z"></path>
	<path d="M108.5,75.2c5-0.7,10-0.7,15.1,0C118.5,75.9,113.5,75.9,108.5,75.2z"></path>
	<path d="M92.4,75.2c5.1-0.7,10.1-0.7,15.2,0C102.6,75.9,97.5,75.9,92.4,75.2z"></path>
	<path d="M88.3,66.3c5.3-0.7,10.7-0.7,16.1,0C99,66.9,93.7,66.9,88.3,66.3z"></path>
	<path d="M134.7,115.4c-5.4,0.7-10.7,0.6-16.1,0C123.9,114.7,129.3,114.8,134.7,115.4z"></path>
	<path d="M123.4,44c-5.1,0.6-10.2,0.6-15.2,0C113.3,43.3,118.3,43.3,123.4,44z"></path>
	<path d="M92.2,124.3c5.1-0.6,10.1-0.6,15.5-0.1C105.5,125,95.2,125.1,92.2,124.3z"></path>
	<path d="M113.6,137.8c-5,0.6-10.1,0.6-15.1,0C103.6,137.1,108.6,137.1,113.6,137.8z"></path>
	<path d="M123,88.6c-5,0.6-10,0.6-15.1,0C112.9,87.9,117.9,88,123,88.6z"></path>
	<path d="M89.5,93.1c4.8-0.7,9.6-0.7,14.4,0C99.1,93.8,94.3,93.7,89.5,93.1z"></path>
	<path d="M104.7,93.1c4.6-0.6,9.3-0.6,13.9,0C113.9,93.8,109.3,93.7,104.7,93.1z"></path>
	<path d="M107.3,44c-2.1,0.6-11.8,0.6-13.8,0C95.5,43.3,105.5,43.3,107.3,44z"></path>
	<path d="M124.2,124.4c-4.6,0.6-9.2,0.5-13.8,0C114.9,123.7,119.5,123.8,124.2,124.4z"></path>
	<path d="M106.7,88.6c-4.6,0.6-9.1,0.6-13.6,0C97.6,88,102.1,88.1,106.7,88.6z"></path>
	<path d="M124.4,35.4c1.2-0.4,2.4-0.7,3.7-1.1c2.6,0.2,5.2,0.3,7.9,0.5c0.4,0,0.8,0.1,1.1,0.2
		C132.9,35.6,128.6,35.7,124.4,35.4z"></path>
	<path d="M110.6,102c-4.3,0.6-8.7,0.6-13,0C102,101.4,106.3,101.4,110.6,102z"></path>
	<path d="M120,128.9c-4,0.5-8.1,0.5-12.3,0.1C109.4,128.2,117.8,128.2,120,128.9z"></path>
	<path d="M116.1,133.3c-4.6,0.5-9.1,0.5-13.7,0C107,132.6,111.6,132.7,116.1,133.3z"></path>
	<path d="M113.8,115.5c-4.1,0.6-8.2,0.5-12.5,0.1C103,114.8,111,114.8,113.8,115.5z"></path>
	<path d="M117.5,111c-4.2,0.6-8.4,0.6-12.5,0C109.1,110.3,113.3,110.4,117.5,111z"></path>
	<path d="M105.2,66.3c3.8-0.6,7.7-0.6,11.5,0C112.9,66.9,109,66.8,105.2,66.3z"></path>
	<path d="M109.9,119.9c-4.6,0.4-9.2,0.5-13.8,0c1.7-0.4,3.3-0.5,5-0.5C104,119.5,106.9,119.4,109.9,119.9z"></path>
	<path d="M102.3,97.6c4.1-0.5,8.1-0.5,12.2,0C110.4,98.2,106.3,98.1,102.3,97.6z"></path>
	<path d="M112.8,39.5c-4.1,0.5-8.1,0.5-12.2,0C104.7,38.9,108.7,39,112.8,39.5z"></path>
	<path d="M110.1,84.2c-3.8,0.4-7.5,0.5-11.2,0C102.6,83.6,106.4,83.6,110.1,84.2z"></path>
	<path d="M92.2,29.9c0.6,0.2,1.2,0.6,1.7,1c-2.7,0.1-5.4,0.2-8-0.5C87.9,30.2,90.1,30.1,92.2,29.9z"></path>
	<path d="M135.2,30.9c0.5-0.3,1-0.6,1.6-0.9c2.1,0.1,4.2,0.3,6.3,0.4C140.5,31,137.9,31.2,135.2,30.9z"></path>
</g>
</svg>
