<!--?xml version="1.0" encoding="utf-8"?-->
<!-- Generator: Adobe Illustrator 24.2.3, SVG Export Plug-In . SVG Version: 6.00 Build 0)  -->
<svg version="1.1" id="Camada_1" xmlns="http://www.w3.org/2000/svg" xmlns:xlink="http://www.w3.org/1999/xlink" x="0px" y="0px" viewBox="0 0 234 419" style="enable-background:new 0 0 234 419;" xml:space="preserve">
<style type="text/css">
	.st0{fill:#01C801;}
	.st1{fill:#1E8889;}
	.st2{fill:#9D1616;}
	.st3{fill:#0E1880;}
	.st4{fill:#A5CEFC;}
	.st5{fill:#1C1C4F;}
	.st6{fill:#6EC230;}
</style>
<g onclick="select(this)" class="" id="c-gola-primaria" fill="#ffffff">
	<path d="M82,7.9c2-1.6,3.7-3.5,5.4-5.4c1-1.2,2.6-1.4,4.1-1.8c0.7-0.2,1.5,0.1,2.1-0.5c2.1,0,4.2,0,6.2,0
		c0.7,0.5,1.5,0.2,2.2,0.2c5.3,0,10.5-0.1,15.8-0.1c1,0,2,0.1,2.9,0c1-0.1,2.1,0.3,3.1-0.2c6,0,12,0,18,0c0.9,0.5,2,0.5,3,0.7
		c1.6,0.4,3,1.1,4.1,2.5c1.3,1.7,2.9,2.9,4.5,4.3c-4.3,0.5-8.6,1.1-12.9,1.6c-7.5,0.9-15.1,1.3-22.7,1.6c-4.5,0.2-9-0.5-13.5-0.6
		C100,10.2,95.8,9.5,91.5,9C88.3,8.6,85.2,8,82,7.9z"></path>
</g>
<path d="M117.8,0.4c-5.3,0-10.5,0.1-15.8,0.1c-0.7,0-1.5,0.3-2.2-0.2c6,0,12,0,18,0L117.8,0.4L117.8,0.4z"></path>
<g onclick="select(this)" class="" id="c-detalhe-lateral" fill="#ffffff">
	<path d="M46.6,116.3c1,0.4,0.5,1.3,0.7,1.9c0.7,2.3,1,4.7,1.3,7.1c0.3,2.8,0.7,5.6,0.9,8.4c0.4,4.2,0.7,8.3,0.9,12.5
		c0.1,2.4,0.3,4.9,0.4,7.3c0.5,17.7,0.3,35.4,0.3,53.1c0,6.6-0.2,13.2-0.4,19.8c-0.1,2.4-0.1,4.8-0.2,7.2
		c-0.2,6.1-0.3,12.2-0.6,18.3c-0.2,4.1-0.3,8.1-0.5,12.2c-0.2,5.6-0.4,11.2-0.8,16.8c-0.1,1.6-0.1,3.3-0.3,4.9
		c-1-0.1-1.9-0.4-2.8-0.7c-2.1-0.7-2.4-1.1-2.2-3.3c0.4-5.4,0.7-10.8,1.1-16.2c0.3-3.9,0.6-7.8,0.6-11.7c0-2.3,0.2-4.6,0.7-6.9
		c0.5-2.3-0.1-4.6-0.2-6.9c-0.4-5.3,0.2-10.5,1.5-15.7c0.6-2.2,0.1-4.3-0.1-6.4c-0.8-7.5-0.5-15,1.1-22.4c0.5-2.1,0.6-4.3,0.5-6.4
		c-0.3-4.6,0.1-9.3-0.1-13.9c-0.2-5.7,0-11.3-0.5-17c-0.1-0.6-0.1-1.3,0-1.9c0.8-7.2,0.2-14.4-0.2-21.7c-0.2-4.1-0.4-8.2-0.6-12.3
		c-0.1-1.2-0.1-2.5-0.5-3.7C46.6,117.7,46.6,117,46.6,116.3z"></path>
	<path d="M186.8,284.8c-0.2-4.2-0.4-8.4-0.6-12.5c-0.3-6.2-0.5-12.4-0.7-18.6c-0.2-5.1-0.3-10.2-0.5-15.3
		c-1.1-24-0.8-48.1-0.8-72.1c0-6.3,0.2-12.6,0.5-18.9c0.2-4.8,0.6-9.6,1.1-14.4c0.4-4.1,0.8-8.1,1.5-12.2c0.1-0.4,0.1-0.7,0.5-0.9
		c0.1,0.2,0.2,0.4,0.3,0.5c-0.9,0.8-0.5,2-0.6,2.9c-0.7,7.6-0.9,15.3-0.8,23c0.1,3.9,0.5,7.8,0.2,11.7c-0.6,7.7-0.2,15.4-0.1,23.1
		c0,2.7-0.1,5.4-0.5,8.1c-0.2,1.7-0.2,3.5,0.1,5.3c0,0.3,0.1,0.6,0.1,0.8c-0.3,3.2,0.6,6.2,1.4,9.3c1.8,6.1,2,12.4,1.3,18.6
		c-0.4,4.2-0.4,8.3,0.2,12.4c0.1,0.8,0.1,1.6,0,2.4c-0.7,5.4,0.6,10.7,0.7,16.1c0.2,7.1,0.9,14.2,1.3,21.3c0.1,2.1,0.4,4.1,0.3,6.2
		c0,1.2-0.5,1.9-1.6,2.2C189.1,284.2,188,284.7,186.8,284.8z"></path>
</g>
<g onclick="select(this)" class="" id="c-detalhe-punho" fill="#71aad4">
	<path d="M0.2,116.1c0.6-1.6,0.5-3.3,1-5c0.1-0.5,0-1.1,0.6-1.5c3.1,0.6,6.2,1.2,9.4,1.9c3.4,0.7,6.8,1.3,10.2,1.8
		c1.6,0.2,3.1,0.5,4.7,0.7c4.3,0.4,8.6,0.6,12.9,0.2c2.3-0.2,4.8,0.2,6.6-2.3c0.2,1.1,0.4,2,0.5,2.8c-0.2,0.6,0.7,1,0.5,1.6
		c0,0.7,0,1.4,0,2.2c0,0.1-0.1,0.2-0.1,0.3c0.2,2.3-0.2,2.7-2.4,2.8c-3.6,0.3-7.1,0.9-10.7,0.8c-6.3-0.2-12.5-1.1-18.7-2
		c-4.6-0.7-9.1-1.5-13.6-2.6c-0.3-0.1-0.5-0.2-0.8-0.2C0.2,117.1,0.2,116.6,0.2,116.1z"></path>
	<path d="M188.1,120.4c-0.1-0.2-0.2-0.4-0.3-0.5c0.4-2.1,0.7-4.3,0.9-6.5c0.8-0.1,0.2-0.8,0.7-1.2
		c0.5,0,0.9,0.4,1.3,0.7c2.5,1.9,5.1,3,8.4,3c4.6,0,9.2-0.4,13.7-1c5.3-0.7,10.7-1.3,16-2.3c1.2-0.2,2.3-0.6,3.5-0.9
		c0.2,0.1,0.4,0.2,0.4,0.4c0.2,2.1,0.7,4.3,0.8,6.4c0.1,1-0.3,1.5-1.3,1.7c-3.7,0.9-7.5,1.5-11.3,2.1c-7.1,1-14.3,1.7-21.5,1.5
		c-2.9-0.1-5.6-0.4-8.2-2C190.1,121.3,188.7,121.6,188.1,120.4z"></path>
</g>
<g onclick="select(this)" class="" id="c-estampa-primaria" fill="#ffffff">
	<path d="M46.6,116.3c0.2-0.6-0.7-1-0.5-1.6c0.5,0,0.7-0.5,0.6-0.7c-0.3-1.2,0-2.5-0.5-3.8c-0.6-1.6-0.9-3.3-0.9-5.1
		c0-1.7,0.1-3.6-0.4-5.2c-0.6-2.2-0.5-4.3-0.8-6.5c-0.4-4-1.5-8-2-12c-0.2-1.7-1.3-3.2-2.2-4.6c-0.8-1.3-1.7-2.5-2.3-3.9
		c-1.3-2.9-2-6-3-8.9c-2.7-8.2-4.2-16.7-3.4-25.4c0.1-1.1,0.1-2.3,0.1-3.4c0-0.9,0.5-1.8,0.1-2.7c3.5-1.6,6.9-3.3,10.4-4.8
		c7.7-3.2,15.4-6.4,23-9.8c4.1-1.8,7.9-4.2,11.7-6.6c0.4-0.3,0.7-0.6,1-1C78.7,8.9,80.1,8,82,7.9c3.2,0,6.3,0.7,9.5,1.1
		c4.3,0.5,8.5,1.1,12.8,1.3c4.5,0.2,9,0.8,13.5,0.6c7.6-0.3,15.1-0.6,22.7-1.6c4.3-0.5,8.6-1.1,12.9-1.6c2,0.1,3.5,1,4.8,2.5
		c0.9,1.1,2.3,1.7,3.5,2.4c9.3,5.2,19,9.5,28.9,13.4c4.4,1.7,8.5,4,12.8,5.8c0.2,0.1,0.3,0.2,0.5,0.4c-0.4,0.8-0.4,1.6,0,2.4
		c0.1,0.3,0.2,0.5,0.1,0.8c-0.3,0.9-0.1,1.8,0,2.7c0.4,5.3,0.2,10.6-0.8,15.8c-0.9,4.8-2.5,9.5-3.9,14.2c-0.9,3-2.2,5.6-3.8,8.2
		c-0.3,0.5-0.6,0.9-1.1,1.2c-0.9,0.5-1.3,1.3-1.6,2.2c-1.3,3.9-1.7,8-1.9,12.1c-0.1,1.9,0,3.8-0.4,5.6c-1,4.3-1.4,8.6-1.3,13
		c0,0.9-0.3,1.9-0.4,2.8c-0.1,2.2-0.5,4.3-0.9,6.5c-0.4,0.1-0.4,0.5-0.5,0.9c-0.7,4-1,8.1-1.5,12.2c-0.5,4.8-0.9,9.6-1.1,14.4
		c-0.3,6.3-0.5,12.6-0.5,18.9c0,24-0.3,48.1,0.8,72.1c0.2,5.1,0.3,10.2,0.5,15.3c0.2,6.2,0.5,12.4,0.7,18.6
		c0.2,4.2,0.4,8.4,0.6,12.5c-7.6,2-15.4,2.9-23.2,3.4c-14.2,0.8-28.4,0.8-42.7,1c-14.7,0.1-29.5,0.4-44.2,0.1
		c-9.4-0.1-18.8-1-27.9-3.3c-0.2,0-0.3-0.1-0.4-0.2c0.2-1.6,0.2-3.3,0.3-4.9c0.4-5.6,0.6-11.2,0.8-16.8c0.1-4.1,0.3-8.1,0.5-12.2
		c0.2-6.1,0.4-12.2,0.6-18.3c0.1-2.4,0.1-4.8,0.2-7.2c0.2-6.6,0.4-13.2,0.4-19.8c0-17.7,0.2-35.4-0.3-53.1c-0.1-2.4-0.2-4.9-0.4-7.3
		c-0.2-4.2-0.6-8.3-0.9-12.5c-0.2-2.8-0.6-5.6-0.9-8.4c-0.2-2.4-0.6-4.8-1.3-7.1C47.1,117.6,47.6,116.7,46.6,116.3z"></path>
	<path d="M188.7,113.4c0.1-0.9,0.4-1.9,0.4-2.8c-0.2-4.4,0.3-8.7,1.3-13c0.4-1.8,0.3-3.7,0.4-5.6
		c0.2-4.1,0.7-8.2,1.9-12.1c0.3-0.9,0.7-1.7,1.6-2.2c0.5-0.3,0.8-0.7,1.1-1.2c1.6-2.6,3-5.3,3.8-8.2c1.4-4.7,3-9.3,3.9-14.2
		c1-5.2,1.2-10.5,0.8-15.8c-0.1-0.9-0.2-1.8,0-2.7c0.1-0.3,0-0.5-0.1-0.8c-0.4-0.8-0.3-1.6,0-2.4c0.2,0.1,0.5,0.2,0.7,0.4
		c3.7,3.5,7.8,6.8,10.8,11c3.9,5.4,6.5,11.4,8.3,17.8c1.9,6.4,2.6,13.1,3.6,19.7c1.6,9.7,2.6,19.5,4.6,29.1c0.1,0.5,0.1,1,0.1,1.4
		c-1.2,0.3-2.3,0.6-3.5,0.9c-5.3,1.1-10.6,1.6-16,2.3c-4.6,0.6-9.1,1-13.7,1c-3.3,0-5.9-1.1-8.4-3c-0.4-0.3-0.8-0.7-1.3-0.7
		C188.9,112.6,189.5,113.3,188.7,113.4z"></path>
	<path d="M31.4,32.4c0.4,0.9,0,1.8-0.1,2.7c0,1.2,0,2.3-0.1,3.4c-0.8,8.7,0.7,17.1,3.4,25.4c1,3,1.7,6,3,8.9
		c0.6,1.4,1.5,2.6,2.3,3.9c0.9,1.5,2.1,2.9,2.2,4.6c0.5,4,1.6,7.9,2,12c0.2,2.2,0.2,4.3,0.8,6.5c0.4,1.7,0.3,3.5,0.4,5.2
		c0,1.7,0.3,3.4,0.9,5.1c0.5,1.2,0.2,2.5,0.5,3.8c0.1,0.3-0.1,0.7-0.6,0.7c-0.2-0.8-0.3-1.7-0.5-2.8c-1.7,2.5-4.3,2.2-6.6,2.3
		c-4.3,0.4-8.6,0.2-12.9-0.2c-1.6-0.2-3.2-0.5-4.7-0.7c-3.4-0.5-6.9-1.1-10.2-1.8c-3.1-0.6-6.2-1.3-9.4-1.9c0.5-3.2,1-6.5,1.4-9.7
		c0.9-6.8,2.8-13.3,4.3-20c0.9-4.3,1.2-8.7,2.2-13c1.6-7.2,3.9-14.1,7.9-20.3c2.8-4.3,6.2-8.1,10.2-11.2
		C29,34.4,29.9,33.1,31.4,32.4z"></path>
</g>
<g onclick="select(this)" class="" id="c-estampa-secundaria" fill="#71aad4">
	<path d="M186.8,285c-5,1.1-9.9,2.2-15,2.7c-5.1,0.5-10.3,0.8-15.4,1c-6.9,0.3-13.7,0.4-20.6,0.5
		c-20.9,0.4-41.7,0.3-62.6,0.1c-8.4-0.1-16.8-1-25-3.4c0.1-0.2,0.2-0.5,0.2-0.7c0.2-3.2,0.4-6.5,0.5-9.7c0.1-3.6,0.3-7.3,0.5-10.9
		c0.2-4.4,0.3-8.9,0.5-13.3c0.2-5.1,0.3-10.1,0.5-15.2c0.3-9.9,0.6-19.7,0.6-29.6c0-16,0.3-32-0.2-48c-0.2-5.5-0.5-11-0.7-16.5
		c-0.1-1.5-0.2-3-0.3-4.5c-0.1-1.6-0.6-3.2-0.2-4.9c44.8,0,89.6,0,134.4,0c0.6,0,1.1,0.1,1.7,0.1c0.3,1.2-0.2,2.4-0.3,3.6
		c-0.3,3.4-0.6,6.7-0.7,10.1c-0.2,4.2-0.6,8.4-0.3,12.5c-0.3,1.5-0.3,3-0.3,4.5c0,18.7-0.3,37.4,0.3,56.1c0.1,2.4-0.2,4.7,0.2,7
		c0,4.5,0.2,9,0.4,13.5c0.2,4.4,0.4,8.8,0.5,13.3c0.2,6.4,0.5,12.7,0.8,19.1C186.4,276.8,186.7,280.9,186.8,285z"></path>
</g>
<g onclick="select(this)" class="" id="c-estampa-terciaria" fill="#021c3b">
	<path d="M189.1,110L189.1,110c-0.3-3.3-0.2-6.4,0.7-9.5c2.3-0.3,4.6-0.6,6.9-0.9c6.4-0.8,12.7-1.7,19.1-2.5
		c4.6-0.6,9.2-1.2,13.8-1.8c0.4,3,0.9,6,1.3,9.1c-2.2,0.3-4.4,0.6-6.6,0.9c-10.1,1.3-20.2,2.7-30.3,4
		C192.3,109.4,190.6,109.4,189.1,110z"></path>
	<path d="M190.4,97.6c0.3-3.1,0.1-6.2,0.7-9.3c0.8-0.1,1.5-0.2,2.2-0.3c5.1-0.7,10.1-1.3,15.2-2
		c6.4-0.8,12.7-1.7,19.1-2.5c0.6,2.7,1.1,5.4,1.4,8.1c0,0.3,0.1,0.6,0.1,0.9c-2.1,0.3-4.2,0.6-6.3,0.8c-6.9,0.9-13.8,1.9-20.6,2.8
		C198.3,96.7,194.3,97.1,190.4,97.6z"></path>
	<path d="M191.5,85.1c0.2-1.8,0.5-3.6,1.1-5.2c0.3-0.7,0.6-1.6,1.3-2c1-0.6,1.4-1.5,2-2.3c5.4-0.5,10.8-1.4,16.3-2.1
		c4.6-0.6,9.3-1.2,13.9-1.8c0.6,3,0.9,6,1.2,9.1c-2,0.3-4,0.5-5.9,0.8c-7,0.9-13.9,1.9-20.9,2.8C197.4,84.7,194.5,85.5,191.5,85.1z"></path>
	<path d="M200.7,63.1c3.2-0.5,6.4-0.9,9.6-1.3c4.3-0.6,8.7-1.1,13-1.7c1,2.7,1.6,5.5,2.1,8.3c0,0.7-0.5,0.7-1,0.7
		c-6.6,0.9-13.1,1.7-19.6,2.6c-2.4,0.3-4.7,0.3-7.1,0.4C199.1,69.3,199.7,66.1,200.7,63.1z"></path>
	<path d="M45.1,100.5c0.1,0.4,0.2,0.9,0.2,1.3c-0.1,2.7,0.2,5.3,0.8,8c-0.5,0.1-1,0.1-1.5,0c-4.1-0.8-8.3-1.2-12.5-1.8
		c-9.8-1.3-19.6-2.6-29.4-3.9c0.3-3,0.7-6.1,1.4-9.1c2,0.3,4,0.5,6,0.8c7.6,1,15.2,2,22.8,3C37,99.4,41,100,45.1,100.5z"></path>
	<path d="M43.4,89.1c0.6,2.3,0.6,4.7,1.1,7.1c0.1,0.4,0,0.7-0.1,1.1c-1.4,0-2.7,0.1-4.1,0C28.4,95.6,16.5,94,4.6,92.4
		c0.3-2.3,1-4.6,1.5-6.8c0.2-0.7,0.4-1.4,0.6-2.1c1.7,0.2,3.3,0.4,5,0.6c10,1.3,20,2.7,30,4C42.5,88.1,43,88.3,43.4,89.1z"></path>
	<path d="M38.7,74.9c1,1.2,1.9,2.4,2.4,3.9c0.2,0.6,0.8,1,1,1.7c0.4,1.2,0.3,2.5,0.6,3.7c-2.6,0.4-5.2,0.5-7.7,0.2
		c-9.2-1.1-18.4-2.4-27.6-3.6c0-0.1,0-0.3,0-0.4l0.1-0.1l0-0.1c0.4-2.8,0.9-5.7,1.3-8.5C18.7,72.7,28.5,75,38.7,74.9z"></path>
	<path d="M11.5,60c4.7,0.6,9.4,1.2,14.1,1.9c2.9,0.4,5.9,0.5,8.8,1.2c1,2.9,1.9,5.9,2.8,8.8c-3.3,0.3-6.7-0.1-10-0.5
		C22,70.8,16.8,70,11.6,69.3c-0.8-0.1-1.7-0.1-2.4-0.8C9.8,65.6,10.5,62.8,11.5,60z"></path>
</g>
<polygon class="st6" points="7.4,80.2 7.4,80.3 7.4,80.3 7.3,80.3 "></polygon>
</svg>
