<!--?xml version="1.0" encoding="utf-8"?-->
<!-- Generator: Adobe Illustrator 24.2.3, SVG Export Plug-In . SVG Version: 6.00 Build 0)  -->
<svg version="1.1" id="Camada_1" xmlns="http://www.w3.org/2000/svg" xmlns:xlink="http://www.w3.org/1999/xlink" x="0px" y="0px" viewBox="0 0 229 418" style="enable-background:new 0 0 229 418;" xml:space="preserve">
<style type="text/css">
	.st0{fill:#FD0303;}
	.st1{fill:#0101FC;}
	.st2{fill:#D00000;}
	.st3{fill:#83A7D0;}
	.st4{fill:#16233E;}
</style>
<g onclick="select(this)" class="" id="gola-primaria" fill="#ffffff">
	<path d="M77.9,8c0.6-0.1,1-0.4,1.4-0.8c0.9-0.9,2-1.7,2.7-2.7c1.8-2.5,4.4-3.4,7.3-3.8c0.6-0.1,1.3,0.1,1.9-0.5
		c1.2,0,2.4,0,3.6,0c0.2,0.5,0.6,0.3,0.9,0.3c5.6,0,11.2,0,16.7,0c0.4,0,0.8-0.1,1.1-0.3c7.5,0,15,0,22.6,0c0.1,0.5,0.5,0.3,0.8,0.4
		c1,0.2,2,0.3,2.9,0.4c2,0.3,3.7,1.1,4.9,2.8c1.3,1.7,2.7,3.3,4.6,4.4c1.3,0.6,1.9,1.5,1.8,3c-0.2,3.7-2.1,6.7-4.3,9.6
		c-0.4,0.5-0.7,0.1-1-0.1c-1.8-1.4-3.5-2.8-5.3-4.1c-0.7-0.5-0.7-0.8-0.1-1.5c1.6-1.8,2.9-3.7,3.8-6.1c-2.6,0.2-5,0.4-7.4,0.6
		c-10.8,0.7-21.5,1.8-32.3,1c-6.7-0.5-13.4-1.1-20.1-1.7c-0.4,0-0.9-0.2-1.2,0c-0.3,0.4,0.1,0.8,0.2,1.2c0.8,2,2.1,3.6,3.5,5.1
		c0.4,0.4,0.8,0.8,0.1,1.3c-1.8,1.4-3.6,2.8-5.3,4.3c-0.5,0.4-0.8,0.3-1.2-0.1c-1.9-2.4-3.4-4.9-4.2-7.9C75.8,10.6,76.3,9.1,77.9,8z
		"></path>
</g>
<g onclick="select(this)" class="" id="detalhe-punho" fill="#71aad4">
	<path d="M227.8,108.4c0.6,0.8,0.4,1.7,0.7,2.6c0.1,0.4,0.1,0.9,0.4,1.3c0,1.3,0,2.6,0,3.8c-2.6,1.5-5.5,2-8.4,2.9
		c-9.3,2.7-18.8,3.3-28.3,2.8c-2.1-0.1-4.1-0.3-6.2-0.9c-0.5-0.2-1-0.4-1.5-0.7c-0.3-2.5,0.4-4.9,0.5-7.4c3.8,0.7,7.6,1,11.4,1
		c2.5,0,5,0.2,7.4-0.2c3.1-0.5,6.1-1,9.2-1.6C218.1,111.2,223,109.8,227.8,108.4z"></path>
	<path d="M0.2,114.7c0.5-1.2,0.4-2.5,0.7-3.7c0.1-0.4,0-0.9,0.4-1.2c0.3,0.1,0.6,0.3,0.9,0.4c6.3,2.3,12.8,3.4,19.4,4.1
		c3.4,0.3,6.9,0,10.3,0c1.8,0,3.5-0.1,5.3-0.3c1.4-0.2,3,0.1,4.3-0.8c0.4-0.3,0.6,0.1,0.8,0.4c0.4,0.8,0.2,1.7,0.6,2.4
		c0,1.5,0.6,3,0.3,4.5c-2.7,1.3-5.6,1.7-8.5,1.8c-9.4,0.4-18.7,0.1-27.8-2.1c-2.3-0.6-4.5-1.1-6.7-2.2
		C0.2,116.9,0.2,115.8,0.2,114.7z"></path>
</g>
<g onclick="select(this)" class="" id="estampa-primaria" fill="#ffffff">
	<path d="M42.9,115.9c-0.4-0.8-0.2-1.7-0.6-2.4c-0.2-0.3-0.4-0.7-0.8-0.4c-1.3,0.9-2.9,0.6-4.3,0.8c-1.7,0.2-3.5,0.3-5.3,0.3
		c-3.4,0.1-6.9,0.4-10.3,0c-6.6-0.7-13.1-1.7-19.4-4.1c-0.3-0.1-0.6-0.3-0.9-0.4c1.8-9.5,2.7-19.1,4.3-28.7
		C6.5,76,6.8,70.8,7.9,65.7c1.7-8.1,4.5-15.7,9.4-22.5c2.1-2.9,4.6-5.5,7.4-7.8c1.3-1.1,2.3-2.5,3.8-3.3c3.6-1.9,7.3-3.7,11-5.3
		c10-4.1,20.1-8.2,29.6-13.5c1.9-1.1,3.9-2.1,5.4-3.8c0.8-1,2-1.6,3.4-1.6c-1.7,1.2-2.1,2.6-1.5,4.9c0.8,2.9,2.3,5.5,4.2,7.9
		c0.4,0.5,0.7,0.6,1.2,0.1c1.8-1.4,3.5-2.9,5.3-4.3c0.7-0.6,0.3-0.9-0.1-1.3c-1.4-1.5-2.7-3.2-3.5-5.1C83.4,9.8,83,9.3,83.4,9
		c0.3-0.3,0.8-0.1,1.2,0c6.7,0.6,13.4,1.2,20.1,1.7c10.8,0.8,21.6-0.2,32.3-1c2.4-0.2,4.8-0.4,7.4-0.6c-0.9,2.4-2.2,4.3-3.8,6.1
		c-0.5,0.6-0.6,0.9,0.1,1.5c1.8,1.3,3.6,2.7,5.3,4.1c0.3,0.2,0.6,0.6,1,0.1c2.2-2.8,4-5.8,4.3-9.6c0.1-1.5-0.5-2.4-1.8-3
		c1.8-0.1,3,1,4,2.2c0.3,0.4,0.7,0.7,1.1,1c10,6.5,21.2,10.6,32.2,15.2c4,1.7,7.8,3.6,11.7,5.3c1.6,0.7,2.7,2.3,4.2,3.3
		c3.1,2.3,5.8,5.1,8.2,8.2c4.8,6.4,7.6,13.7,9.3,21.5c0.6,2.9,1.2,5.8,1.5,8.7c0.6,5.8,2.3,11.3,3.4,17c1.1,5.9,1.9,11.8,2.9,17.7
		c-4.9,1.4-9.7,2.8-14.7,3.7c-3.1,0.5-6.1,1-9.2,1.6c-2.4,0.4-4.9,0.2-7.4,0.2c-3.8,0-7.6-0.2-11.4-1c0.4-4.4,1.3-8.8,2.2-13.1
		c0.5-2.6,1.2-5.1,1.8-7.7c-0.4,0.4-0.6,0.8-0.8,1.2c-1.8,4.1-3,8.4-4.2,12.8c-2.4,8.9-3.8,18-4.8,27.2c-0.6,5.2-0.9,10.4-1.2,15.7
		c-0.3,4.9-0.5,9.9-0.5,14.8c0,16.9-0.3,33.9,0.2,50.8c0.2,7.3,0.3,14.6,0.5,21.9c0.2,4.9,0.3,9.7,0.5,14.6c0.2,6,0.5,12,0.7,17.9
		c0.2,5,0.4,10,0.8,15.1c-7.7,1.1-15.4,1.4-23.1,1.5c-12.9,0.2-25.9,0.6-38.8,0.9c-6.8,0.2-13.5-0.5-20.2-0.6
		c-8.7-0.1-17.4-0.2-26.1-0.4c-8.3-0.2-16.6-0.4-24.8-1.8c0.5-3.8,0.5-7.6,0.7-11.3c0.4-5.6,0.6-11.2,0.8-16.9
		c0.1-4.4,0.3-8.9,0.5-13.3c0.3-6.3,0.4-12.5,0.5-18.8c0.1-4,0.2-8,0.2-12c0.1-14.3,0.1-28.5,0.1-42.8c0-2.2,0-4.5-0.1-6.7
		c-0.3-6.3-0.3-12.7-0.9-19c-0.2-2.5-0.3-4.9-0.5-7.4c-0.6-4.9-1.1-9.9-2-14.7c-1.1-6-2.2-12-3.9-17.8c-0.7-2.2-1.2-4.4-2.2-6.6
		c-0.6,0.9,0.2,1.4,0.2,2.1c0.4,3.4,1.1,6.7,1.4,10.1C42.3,111,43.1,113.4,42.9,115.9z"></path>
</g>
<g onclick="select(this)" class="" id="detalhe-lateral" fill="#ffffff">
	<path d="M180.3,284c-0.4-5-0.6-10-0.8-15.1c-0.3-6-0.5-11.9-0.7-17.9c-0.2-4.9-0.3-9.7-0.5-14.6
		c-0.3-7.3-0.3-14.6-0.5-21.9c-0.4-16.9-0.2-33.9-0.2-50.8c0-4.9,0.2-9.9,0.5-14.8c0.3-5.2,0.7-10.5,1.2-15.7
		c1-9.2,2.5-18.3,4.8-27.2c1.1-4.3,2.4-8.6,4.2-12.8c0.2-0.4,0.4-0.8,0.8-1.2c-0.6,2.6-1.3,5.1-1.8,7.7c-0.9,4.3-1.8,8.7-2.2,13.1
		c-0.1,2.5-0.7,4.9-0.5,7.4c-1.3,10.3-2.3,20.7-2,31.2c0.1,2.4,0.8,4.8,0.4,7.3c-0.3,2.3-0.4,4.7-0.4,7c0.1,6.6,0.1,13.2-0.1,19.7
		c-0.1,4.5,0.7,8.7,1.4,13c0.9,5.1,1,10.2,0.2,15.4c-0.3,2.3-0.5,4.7-0.8,7c0,0.4,0.1,0.8,0.2,1.2c2,5.7,2.5,11.6,1.6,17.6
		c-0.3,2.1-0.3,4.2,0.1,6.3c0.4,2,0.5,4,0.5,6c-0.1,7.4,0.7,14.7,1.4,22c0.2,2.3,0.3,4.6,0.3,6.9c0,1.1-0.5,1.8-1.5,2.2
		C184.2,283.5,182.3,284,180.3,284z"></path>
	<path d="M42.9,115.9c0.2-2.5-0.6-4.9-0.9-7.4c-0.4-3.4-1-6.7-1.4-10.1c-0.1-0.7-0.8-1.2-0.2-2.1
		c0.9,2.2,1.5,4.4,2.2,6.6c1.8,5.8,2.9,11.8,3.9,17.8c0.9,4.9,1.4,9.8,2,14.7c0.3,2.4,0.3,4.9,0.5,7.4c0.6,6.3,0.6,12.6,0.9,19
		c0.1,2.2,0.1,4.5,0.1,6.7c0,14.3,0,28.5-0.1,42.8c0,4-0.1,8-0.2,12c-0.1,6.3-0.3,12.5-0.5,18.8c-0.2,4.4-0.3,8.8-0.5,13.3
		c-0.2,5.6-0.4,11.2-0.8,16.9c-0.3,3.8-0.2,7.6-0.7,11.3c-1.7-0.1-3.4-0.5-5-1.1c-1.6-0.6-2-1.1-2-2.8c0-2.8,0.2-5.6,0.4-8.3
		c0.4-5.3,0.7-10.6,1.2-15.9c0.4-4.8-0.1-9.6,0.9-14.3c0.2-0.9,0.1-1.8,0-2.7c-0.5-3.1-0.3-6.2,0.3-9.3c0.2-0.9,0.1-1.7,0.1-2.6
		c-0.3-4.1-0.9-8.3-0.9-12.4c0-4.8,1.1-9.4,2.7-13.9c0.3-1,0.6-1.9,0.4-2.9c-0.2-1.5-0.1-3,0.1-4.5c0.1-0.6,0.2-1.3,0.2-1.9
		c-0.4-4.8-0.1-9.7-0.4-14.5c-0.1-1.1,0.1-2.2,0.2-3.3c0.1-1.9,0.1-3.7,0-5.6c-0.4-6.8-0.1-13.6,0-20.4c0.1-7.3-0.6-14.6-1.6-21.9
		c-0.2-1.5-0.4-3.1-0.6-4.6C43.5,118.9,43,117.4,42.9,115.9z"></path>
</g>
<path d="M47.9,36.1C47.9,36.1,47.9,36.1,47.9,36.1C47.9,36.1,47.9,36.1,47.9,36.1z"></path>
<g onclick="select(this)" class="" id="estampa-secundaria" fill="#71aad4">
	<path d="M180.3,284.1c-2.8,0.5-5.5,0.8-8.3,1c-6.1,0.5-12.2,0.4-18.3,0.6c-4.7,0.1-9.4,0-14.1,0.2
		c-6,0.2-12,0.2-18,0.5c-7.7,0.4-15.4-0.3-23.1-0.5c-0.4,0-0.9,0-1.3,0c-8.4-0.1-16.8-0.1-25.2-0.3c-8.1-0.2-16.1-0.4-24.1-1.6
		c-0.2,0-0.4-0.1-0.6-0.1c0.6-5.7,0.6-11.5,1-17.2c0.2-3.7,0.3-7.3,0.5-11c0.2-4.7,0.3-9.3,0.5-14c0.2-5.7,0.4-11.5,0.5-17.2
		c0.1-5.9,0.3-11.7,0.3-17.6c-0.1-16.6,0.2-33.2-0.2-49.8c-0.1-2.7-0.3-5.4-0.3-8.1c0-1.5-0.1-2.9-0.2-4.4c-0.3-3.9-0.6-7.8-1-11.6
		c0.5,0,1,0,1.4,0c42.7,0,85.5,0,128.2,0c0.5,0,1,0,1.4,0c-0.1,2.9-0.5,5.7-0.7,8.6c-0.3,4.4-0.6,8.7-0.7,13.1
		c-0.2,5.1-0.3,10.3-0.3,15.4c0,19.1-0.3,38.2,0.5,57.3c0.2,5.6,0.3,11.3,0.5,16.9c0.2,4.5,0.3,9,0.5,13.5c0.2,3.7,0.3,7.5,0.5,11.2
		C179.7,273.9,179.9,279,180.3,284.1z"></path>
</g>
<g onclick="select(this)" class="" id="estampa-terciaria" fill="#021c3b">
	<path d="M5.6,81.9c0.4-3.1,0.8-6.3,1.2-9.4c4.4,0.5,8.7,1,13.1,1.6c4.4,0.5,8.9,1,13.3,1.5c1.6,0.3,3.2,0.5,4.9,0.5
		c14.4,0,28.9,0,43.3,0c1.1,0,2.2,0,3.2,0.2c4.3,0.7,6.1,3.6,4.8,7.7c-0.7,2.1-2,3.9-3.1,5.8c-3.1,5.4-6.5,10.6-9.2,16.3
		c-0.7,1.5-1.2,3.1-1,4.8c0.2,2.3,1.9,3.5,4.1,2.9c2.1-0.6,3.8-1.7,5.1-3.4c5.5-6.9,11-13.8,16.6-20.7c3.2-4,6.4-7.9,9.6-11.8
		c0.7-0.9,1.4-1.8,2.8-1.8c7.2,0.1,14.4,0,21.6,0.1c2.9,0,5.7,0.5,8.3,1.9c5,2.7,7,8.1,4.9,13c-0.8,2-0.8,2-2.2,0.5
		c-0.6-0.7-1.4-1.2-2.2-1.6c-3.4-1.6-6.5-0.9-9,2.4c-3.1,3.9-5.4,8.3-6.7,13.2c-0.6,2.2-0.3,4.3,0.9,6.2c1.4,2.3,3.5,3.1,6.1,2.5
		c1.3-0.3,2.5-1,3.6-1.8c3.5-2.4,6.2-5.5,8.7-8.9c3.8-5.1,7.2-10.5,10.8-15.7c1.2-1.8,2.5-3.4,4-4.9c4.7-4.4,10.1-7.1,16.7-6.8
		c3.6,0.1,7.3,0,10.9,0c1.3,0,2.6-0.1,3.8-0.3c0.2,0,0.3,0,0.5,0c6.1-0.7,12.2-1.5,18.3-2.2c2.8-0.3,5.5-0.8,8.3-0.9
		c0.3,3.1,0.9,6.2,1.5,9.3c-7,0.8-14,1.7-21,2.5c-3.4,0.4-6.9,0.9-10.3,1.4c-1.6,0-3.1,0.3-4.7,0.5c-1.1,0.2-1.7,1-2.2,1.8
		c-0.3,0.5-0.1,0.7,0.4,0.7c1.7-0.1,3.5,0.1,5.2-0.3c0.3,0,0.6,0.1,0.9,0c6.6-0.8,13.1-1.6,19.6-2.4c4.2-0.5,8.5-1,12.7-1.4
		c0.6,2.8,1.2,5.5,1.8,8.3c0.1,0.3,0.1,0.6,0.1,0.9c-0.4,0.1-0.9,0.2-1.3,0.2c-8.5,1-17.1,2.1-25.6,3.1c-3.7,0.4-7.4,0.9-11,1.4
		c0.2-1.8,0.8-3.5,1.3-5.3c0.1-0.3,0.3-0.7-0.1-0.8c-0.3-0.1-0.4,0.3-0.5,0.6c-0.7,1.8-1.4,3.7-2.1,5.5c-4.2,0-8.5,0-12.7,0
		c-2,0-3.5,0.9-4.7,2.5c-0.4,0.6-0.4,0.9,0.4,0.9c5.3-0.1,10.6,0.1,15.9-0.1c-0.9,3.2-1.7,6.4-2.6,9.6c-7.4,0-14.7,0-22.1,0
		c-1.9,0-3.3,0.9-4.4,2.3c-0.2,0.3-0.6,0.6-0.4,0.9c0.2,0.3,0.6,0.2,0.9,0.2c8.5,0,16.9,0,25.4,0c-0.1,0.8-0.3,1.6-0.5,2.4
		c-0.5,2.5-0.7,5.2-1.4,7.7c-0.4,0-0.7,0-1.1,0c-43.6,0-87.2,0-130.8,0c-0.4,0-0.7,0-1.1,0c-0.1-0.6-0.3-1.1-0.4-1.7
		c-0.4-2.8-1-5.6-1.4-8.4c5.3,0,10.5,0,15.8,0c0.3,0,0.8,0.1,1-0.2c0.2-0.4-0.1-0.8-0.4-1.1c-1.2-1.3-2.6-2.1-4.4-2.1
		c-4.2,0-8.4,0-12.6,0c-0.9-3.2-1.7-6.3-2.6-9.5c1.3,0,2.6,0,4,0c5.6,0,11.3,0,16.9,0c0.3,0,0.7,0.2,0.9-0.2
		c0.2-0.3-0.1-0.6-0.3-0.8c-1.2-1.5-2.7-2.3-4.6-2.3c-5.9,0-11.8,0-17.8,0c-0.4-0.4-0.2-1.1-0.9-1.4c-0.2,0.4-0.1,0.8-0.1,1.2
		c-0.2,0.3-0.5,0.3-0.7,0.2c-1.2-0.4-2.4-0.5-3.6-0.7c-10.4-1.3-20.8-2.5-31.1-3.8c-0.4-0.1-1,0.1-1.2-0.6c0.4-3,0.9-5.9,1.3-8.9
		c0.4,0,0.8,0,1.2,0.1c6.5,0.8,13,1.6,19.5,2.3c4,0.5,8.1,0.9,12.1,1.4c0.2,0.1,0.3,0.1,0.5,0.1c7.9,0.5,15.7,0.1,23.6,0.2
		c0.7,0,0.6-0.3,0.3-0.7c-1-1.6-2.5-2.6-4.5-2.7c-7,0-14-0.2-21.1,0.1c-1.5,0-3-0.3-4.5-0.5c-4.6-0.7-9.3-1.1-14-1.8
		C14,82.9,9.8,82.4,5.6,81.9z M137.1,80.3c0-0.1-0.1-0.1-0.1-0.2c-2.9,0-5.8,0-8.6,0c1.3,1,2.7,1.8,4.1,2.6c0.2,0.1,0.4,0.2,0.7,0.1
		C134.4,81.9,135.7,81.1,137.1,80.3z"></path>
	<path d="M185.3,111.6c0.5-3,0.9-6.1,1.6-9.1c0.1-0.2,0.1-0.5,0.1-0.7c0.5-0.1,0.9-0.2,1.4-0.3c6.3-0.8,12.7-1.6,19-2.3
		c6.2-0.8,12.4-1.5,18.7-2.2c0.5,3.1,1,6.2,1.5,9.3c-0.4,0.1-0.8,0.1-1.2,0.2c-11.7,1.4-23.5,2.9-35.2,4.3
		C189.2,111.1,187.3,111.7,185.3,111.6z"></path>
	<path d="M41,101.8c0.4,3.2,1,6.4,1.2,9.7c-1.1,0.1-2.2-0.3-3.3-0.5c-3.5-0.5-7-0.9-10.5-1.3
		c-8.8-1.1-17.7-2.2-26.5-3.3c0.5-3.1,0.9-6.3,1.4-9.4C15.9,98.6,28.5,99.8,41,101.8z"></path>
	<path d="M193.9,63.4c3.4-0.4,6.7-0.9,10.1-1.3c4.6-0.6,9.3-1.1,13.9-1.7c1,3,1.6,6.1,2.1,9.3
		c-6.2,0.8-12.3,1.5-18.5,2.3c-2.6,0.3-5.2,0.6-7.8,0.9C193.8,69.7,193.8,66.5,193.9,63.4z"></path>
	<path d="M9.3,60.3c7.3,0.9,14.7,1.8,22,2.7c0.6,0.1,0.9,0.3,1,0.9c0.1,0.7,0.4,1.3,0.5,2c0,2.3,0,4.6-0.1,6.9
		c-0.3,0-0.6,0-1,0c-3.2-0.4-6.5-0.8-9.7-1.2c-5-0.6-10-1.3-14.9-1.9C7.7,66.4,8.3,63.3,9.3,60.3z"></path>
</g>
</svg>
