<!--?xml version="1.0" encoding="utf-8"?-->
<!-- Generator: Adobe Illustrator 24.2.3, SVG Export Plug-In . SVG Version: 6.00 Build 0)  -->
<svg version="1.1" id="Camada_1" xmlns="http://www.w3.org/2000/svg" xmlns:xlink="http://www.w3.org/1999/xlink" x="0px" y="0px" viewBox="0 0 234 419" enable-background="new 0 0 234 419" xml:space="preserve">
<g onclick="select(this)" class="" id="c-estampa-primaria" fill="#ffffff">
	<path d="M81.8580551,7.9835963c2.1281433,0.2338386,4.2658386,0.3423991,6.3920059,0.6339555
		c4.4136581,0.6052332,8.8413925,1.1088181,13.2653046,1.6377201c1.3858948,0.1656914,2.7916336,0.1836939,4.1780319,0.225687
		c4.3462448,0.1316462,8.6712265,0.7026958,13.0308685,0.5542564c4.9799805-0.1695662,9.939003-0.6464396,14.9111862-0.9240065
		c6.0475006-0.3375921,12.0287933-1.2249546,18.0034943-2.1704445c0.6270294-0.099225,1.2711792-0.0903177,1.9083557-0.1320987
		c1.6199799-0.0121517,2.9975739,0.6290498,4.0176239,1.8190274c1.18013,1.376708,2.6810913,2.262785,4.2083435,3.1218662
		c8.5497437,4.8092785,17.4604187,8.8590717,26.5822144,12.44133c5.1021423,2.0036812,9.9898682,4.4678211,14.9754791,6.7215424
		c0.1760254,0.0795631,0.3200073,0.2300129,0.4785004,0.3471203c-0.3276367,0.5461655-0.4387512,1.2117538-0.234436,1.7355881
		c0.486496,1.2473412,0.0323029,2.498024,0.193161,3.7340813c0.0461578,0.3548164,0.0099335,0.7196808,0.0437775,1.0768776
		c0.4802704,5.0693855,0.1956482,10.1060295-0.7172546,15.1047745c-0.8250427,4.5177765-2.3676605,8.8456726-3.5833282,13.2605057
		c-0.7703705,2.7976837-1.9322662,5.3985367-3.3066101,7.9221268c-0.4357452,0.8001251-0.8538971,1.7621384-1.5587006,2.2333984
		c-1.751358,1.1710358-2.2255707,2.9605255-2.6317749,4.763176c-0.9034729,4.0094604-1.278183,8.095459-1.4307251,12.1977692
		c-0.0726318,1.9536362-0.1398315,3.8975906-0.7333527,5.7834167c-1.3188782,4.1903458-0.5819244,8.5378647-0.9559631,12.8009415
		c-0.0123901,0.1412659,0.1016693,0.2936249,0.157135,0.4399643c-0.050827,0.3859406-0.0521545,0.7876053-0.1621704,1.1568756
		c-0.3977356,1.3349838,0.1290588,2.8359604-0.7417297,4.0812988c-0.6769104,0.4831696-0.8384399,1.2613678-0.9182281,1.9723282
		c-0.6777802,6.0399323-1.3856049,12.0785217-1.917038,18.1322174c-0.428421,4.880249-0.7996368,9.7780609-0.8777161,14.673172
		c-0.0891876,5.5931702-0.3906097,11.1808777-0.3261108,16.7791595c0.1694641,14.7097778-0.2562866,29.4231873,0.23526,44.1312561
		c0.1388245,4.1539001,0.0108032,8.3076477,0.1750793,12.4651031c0.2615509,6.6190491,0.4896698,13.2403717,0.7184143,19.8610077
		c0.15979,4.6251221,0.2966614,9.2501678,0.4897461,13.8748932c0.1646729,3.9437866,0.3563538,7.8876953,0.4886627,11.8312073
		c0.1418152,4.2267456,0.4624023,8.442749,0.5853119,12.6685486c-6.4370422,1.6742859-12.9883423,2.6364441-19.6147003,3.105957
		c-15.2886963,1.0833435-30.6052094,1.0558777-45.9200592,1.199646c-14.877121,0.1396179-29.7553101,0.3595581-44.6301727,0.1205139
		c-9.3597488-0.1503601-18.6840019-0.9620056-27.8058319-3.294342c-0.1514664-0.0387268-0.2946472-0.1098633-0.4407806-0.1659851
		c0.1389503-1.6291809,0.1358643-3.2646179,0.2435493-4.8975525c0.3645592-5.5281372,0.6039238-11.0662842,0.7853661-16.6040955
		c0.1358414-4.1461792,0.296093-8.2900696,0.4768867-12.4345093c0.248703-5.7011108,0.3732681-11.4077759,0.5359116-17.1124725
		c0.0784988-2.7531738-0.0649681-5.5070038,0.2022476-8.2616272c0.4827652-4.9765167,0.3438911-9.9888,0.3426857-14.9680328
		c-0.0049362-20.4558105,0.6601563-40.9199371-0.5072403-61.368454c-0.1792412-3.1395874-0.2942696-6.2830048-0.4969406-9.4238281
		c-0.296978-4.6023712-0.7423325-9.1852722-1.2411499-13.7693024c-0.4935341-4.5355606-1.2735596-9.0156708-2.1321869-13.4882431
		c0.0190773-1.440361-0.1012306-2.8619995-0.5438271-4.2441559c-0.2038651-0.6366425-0.36409-1.2810593-0.5071754-1.9380646
		c-0.352356-1.6178818-0.2228127-3.258049-0.3241119-4.8721237c-0.1109314-1.7675858-0.7032623-3.4501343-0.7543144-5.1666183
		c-0.089344-3.0037842-0.4519119-5.9463348-1.0065384-8.8894577c-0.4118538-2.1855011-0.7909012-4.3778229-1.083374-6.5903244
		c-0.273838-2.0715714-1.5592499-3.8345184-2.7072029-5.5783463c-0.7021904-1.0666962-1.4645004-2.104599-1.9332771-3.2983398
		c-2.2738953-5.7904892-4.0975304-11.7233238-5.4414024-17.79636c-0.85252-3.8525925-1.2769947-7.7524376-1.1472282-11.7147598
		c0.0770035-2.3513222,0.0520439-4.7069016,0.3130665-7.0476379c0.0658455-0.5904732-0.3550186-1.1474266-0.02882-1.739624
		c0.416235-0.755661,0.3474674-1.5256042-0.0092583-2.2864532c4.2559147-1.9969311,8.4775639-4.0659313,12.8534641-5.8014832
		c7.0857925-2.8103352,14.0674591-5.8668938,21.0127487-9.0069199c3.9414978-1.7819843,7.592514-4.0726099,11.2326813-6.3844156
		c0.4515533-0.2867746,0.7524719-0.7025681,1.1046829-1.0813026C78.7727966,8.9101152,80.0685806,7.9574499,81.8580551,7.9835963z"></path>
	<path d="M189.0510406,113.3130264c-0.0551147-0.1471939-0.1691742-0.2995529-0.1567841-0.4408188
		c0.3740387-4.2630768-0.362915-8.6105957,0.9559631-12.8009415c0.5935211-1.8858261,0.6607208-3.8297806,0.7333527-5.7834167
		c0.1525421-4.1023102,0.5272522-8.1883087,1.4307251-12.1977692c0.4062042-1.8026505,0.8804169-3.5921402,2.6317749-4.763176
		c0.7048035-0.4712601,1.1229553-1.4332733,1.5587006-2.2333984c1.3743439-2.5235901,2.5362396-5.1244431,3.3066101-7.9221268
		c1.2156677-4.4148331,2.7582855-8.7427292,3.5833282-13.2605057c0.9129028-4.998745,1.197525-10.0353889,0.7172546-15.1047745
		c-0.033844-0.3571968,0.0023804-0.7220612-0.0437775-1.0768776c-0.1608582-1.2360573,0.293335-2.4867401-0.193161-3.7340813
		c-0.2043152-0.5238342-0.0932007-1.1894226,0.234436-1.7355881c1.8174591,1.0571327,3.1095886,2.7241821,4.6880341,4.0611343
		c7.6025543,6.4393692,12.0891266,14.8393555,14.9355927,24.2232819c1.8835144,6.2093887,2.9201508,12.5783997,3.6741028,19.0179138
		c0.5473022,4.6746902,1.4640198,9.3053665,2.1769867,13.9616318c0.8755951,5.7182999,1.4894562,11.478653,2.7884674,17.1284409
		c0.079422,0.3454361,0.0524445,0.7153244,0.0748901,1.0739441c-1.1985474,0.2977295-2.3873444,0.644043-3.597168,0.8845367
		c-5.2733765,1.0483322-10.6157837,1.6302261-15.9414368,2.3284225c-4.5469971,0.5961227-9.0929565,0.9767838-13.6932831,1.0205231
		c-3.219162,0.0305939-5.8176727-1.059166-8.2521515-2.9212112c-0.4428406-0.338707-0.8512421-0.7321472-1.4813538-0.7825012
		C189.1384277,112.6083679,189.0947266,112.960701,189.0510406,113.3130264z"></path>
	<path d="M46.5984573,113.5769119c-0.0262222,0.5643692,0.0691566,1.1507492-0.2992477,1.6534119
		c-0.5079575-0.9235077-0.3191452-2.0217972-0.7852402-3.1452484c-2.2311592,2.6585617-5.3019104,1.9235458-8.1163673,2.1845627
		c-4.9980202,0.4635315-9.963419,0.0150604-14.8977375-0.7378998c-3.3447762-0.5103912-6.6623507-1.2005844-9.9897423-1.8229218
		c-3.5935507-0.6721191-7.1843677-1.3588486-10.7761421-2.0392838c1.0089324-6.227005,1.6012859-12.537735,3.1574006-18.6553497
		c1.9134207-7.5223236,3.1039934-15.1678467,4.510396-22.7834702c1.58708-8.5939865,4.4463224-16.7619438,9.6820316-23.9032173
		c2.5375748-3.461132,5.4739933-6.5772552,8.928812-9.1511574c1.1776657-0.8773804,2.0319977-2.1448402,3.4125347-2.7617455
		c0.3565636,0.7609024,0.4253311,1.5308456,0.0090961,2.2865067c-0.3261986,0.5921974,0.0946655,1.1491508,0.02882,1.739624
		c-0.2610226,2.3407364-0.236063,4.6963158-0.3130665,7.0476379c-0.1297665,3.9623222,0.2947083,7.8621674,1.1472282,11.7147598
		c1.3438721,6.0730362,3.1675072,12.0058708,5.4414024,17.79636c0.4687767,1.1937408,1.2310867,2.2316437,1.9332771,3.2983398
		c1.147953,1.7438278,2.4333649,3.5067749,2.7072029,5.5783463c0.2924728,2.2125015,0.6715202,4.4048233,1.083374,6.5903244
		c0.5546265,2.9431229,0.9171944,5.8856735,1.0065384,8.8894577c0.0510521,1.7164841,0.643383,3.3990326,0.7543144,5.1666183
		c0.1012993,1.6140747-0.028244,3.2542419,0.3241119,4.8721237c0.1430855,0.6570053,0.3033104,1.3014221,0.5071754,1.9380646
		C46.4972267,110.7149124,46.6175346,112.1365509,46.5984573,113.5769119z"></path>
</g>
<g onclick="select(this)" class="" id="c-estampa-terciaria" fill="#9e9e9e">
	<path d="M32.9089966,64.9217606c0.0009727,2.0778122-0.0156975,4.1558533,0.0114212,6.2333069
		c0.0078392,0.6008682-0.1499214,0.8418427-0.8006973,0.8380814c-4.2753639-0.0247803-8.5509968-0.0238037-12.8263817-0.0008392
		c-0.640522,0.0034485-0.8080692-0.216507-0.8047638-0.8331223c0.0229244-4.2753754,0.0201321-8.5509872,0.0022583-12.826416
		c-0.0023327-0.5573997,0.1539288-0.7739334,0.7387371-0.7714958c4.3153896,0.0179901,8.6309776,0.0235901,12.9462643-0.0037308
		c0.7163582-0.0045395,0.742363,0.355938,0.7385559,0.8910599C32.8990402,60.6062317,32.9080315,62.7640228,32.9089966,64.9217606z"></path>
	<path d="M25.5195675,91.4861603c0.2068214,1.9018936,0.0799389,3.8100433,0.073349,5.7142105
		c-0.002697,0.779808,0.2239151,1.0156479,1.0045872,1.0032196c2.1048241-0.0335159,4.21101,0.0186615,6.3167152,0.0369034
		c-0.0013275,2.276535-0.0262833,4.5533524,0.0102806,6.8291855c0.0109634,0.6823502-0.2015648,0.8879776-0.8805084,0.8833923
		c-3.993618-0.0269318-7.9876118-0.0281525-11.9812069,0.0000839c-0.7101307,0.0050278-0.8587475-0.2634659-0.8550816-0.913681
		c0.0238571-4.2323608,0.0248165-8.465004-0.0013924-12.6973419c-0.0043907-0.7090454,0.275177-0.8756714,0.9218426-0.8644714
		C21.9248009,91.5087967,23.7223663,91.48703,25.5195675,91.4861603z"></path>
	<path d="M217.1446381,90.5824738c3.3163452-0.0215759,6.6333771-0.0888443,9.9486237-0.0376892
		c1.0343475,0.0159531,1.3375702-0.3079147,1.2231293-1.2810287c-0.0742493-0.6310577-0.0172424-1.2775574-0.0189972-1.9157639
		c0.9011536,4.5922852,1.4406433,9.2370148,2.0638733,13.8692703c-4.0341797,0.198967-8.0706177,0.062706-12.1060028,0.0846939
		c-0.8598022,0.0046844-1.1572418-0.3665543-1.1425323-1.2472458
		C217.165451,96.8980026,217.1403198,93.7399902,217.1446381,90.5824738z"></path>
</g>
<g onclick="select(this)" class="" id="c-estampa-secundaria" fill="#f6d101">
	<path d="M201.0777893,82.2560959c0.0001831,2.3560257-0.0317535,4.7127457,0.0180054,7.0677261
		c0.0166931,0.7907715-0.2311401,1.0418701-1.0107574,1.0321655c-2.7549286-0.0343094-5.5105591-0.0118637-8.2659302-0.0152283
		c-0.4775696-0.0005722-1.0032501,0.0849991-0.8909912-0.7133865c0.4486237-3.1904831,0.61763-6.4353485,1.7754974-9.4881058
		c0.3828278-1.009346,0.7973175-1.9931107,1.8290558-2.6180725c0.9118805-0.5523758,1.2758636-1.6161804,1.7736053-2.5118027
		c0.3361511-0.6048279,0.6930847-0.9030609,1.3942719-0.8432693c1.0666351,0.0909653,2.4322357-0.4283905,3.1305389,0.2026138
		c0.7187195,0.649437,0.20401,2.0348587,0.2345428,3.0957642C201.111618,79.0604858,201.0776215,80.658783,201.0777893,82.2560959z"></path>
</g>
<g onclick="select(this)" class="has-opacity" id="c-estampa-quaternaria" fill="#f6d101" opacity="0.5">
	<path d="M46.5467873,112.2477875c0.1209335,1.694725-0.5656586,3.3709717-0.1166229,5.0729599
		c-0.0339508,1.019989,0.2538872,2.0558929-0.1496429,3.0578461c-1.037529,0.0065384-2.0765076-0.0170517-3.1121864,0.0307846
		c-0.6838608,0.0315857-0.8906059-0.2180481-0.8792381-0.8969345c0.0400848-2.394043,0.0220261-4.7890472,0.0258751-7.1836777
		C43.7254829,112.3017731,45.1361389,112.2747879,46.5467873,112.2477875z"></path>
	<path d="M203.3738403,118.5283813c-2.1173553,0-4.2350616-0.0210419-6.3518982,0.0122528
		c-0.6735687,0.010582-0.8966675-0.2007751-0.8923187-0.8879089c0.0268555-4.2345581,0.0265198-8.4694672,0.0001373-12.7040329
		c-0.0042725-0.6841888,0.2222137-0.9036179,0.8925018-0.9004593c4.2745972,0.0201416,8.5493469,0.0176086,12.8239594,0.0031281
		c0.6125183-0.0020676,0.8330231,0.2085953,0.8298492,0.8374939c-0.0214844,4.2745743-0.0283508,8.5494385,0.0042419,12.8238754
		c0.0058594,0.7666016-0.3578339,0.8284836-0.9544373,0.8230972
		C207.6086731,118.516716,205.4912262,118.528389,203.3738403,118.5283813z"></path>
	<path d="M207.618576,35.7666664c1.9188995,1.1946487,3.4005127,2.8712387,4.8878479,4.5243835
		c2.542099,2.8254967,4.8439636,5.8265419,6.348114,9.3616676c-3.4652405-0.001976-6.9306335-0.0066795-10.3960266-0.0025902
		c-0.5390778,0.0006371-1.0110474,0.0614662-1.0048523-0.7582474c0.0312958-4.1423187,0.0140228-8.2849846,0.023941-12.4275055
		C207.4781647,36.2316933,207.5695038,35.9992332,207.618576,35.7666664z"></path>
</g>
<g onclick="select(this)" class="has-opacity" id="c-estampa-quinaria" fill="#9e9e9e" opacity="0.5">
	<path d="M25.5195675,91.4861679c0.2139568-2.0306778,0.0832882-4.0676651,0.0723953-6.1003723
		c-0.0048199-0.8992615,0.1847744-1.2472763,1.1767788-1.2324371c3.9136486,0.0585709,7.829052,0.0526581,11.7429428,0.0027695
		c0.9080048-0.0115738,1.1392174,0.2561722,1.1285362,1.1435928c-0.0470886,3.9139633-0.0567932,7.8293839,0.00494,11.7429428
		c0.0156822,0.9943924-0.3258476,1.1870193-1.2227058,1.163765c-1.8345299-0.0475769-3.6719513,0.0162201-5.5082359,0.0340652
		c-2.1057053-0.0182419-4.2118912-0.0704193-6.3167152-0.0369034c-0.7806721,0.0124283-1.0072842-0.2234116-1.0045872-1.0032196
		C25.5995064,95.2962036,25.7263889,93.3880539,25.5195675,91.4861679z"></path>
	<path d="M226.7676392,76.6037064c0.2471771,3.6192932,0.8405762,7.1892929,1.5297546,10.7442856
		c0.0017548,0.6382065-0.0552521,1.2847061,0.0189972,1.9157639c0.1144409,0.973114-0.1887817,1.2969818-1.2231293,1.2810287
		c-3.3152466-0.0511551-6.6322784,0.0161133-9.9486237,0.0376892c-0.0785675-0.0138474-0.1567078-0.0359344-0.2358093-0.0403595
		c-2.6149902-0.1462326-2.615036-0.1459808-2.6150208-2.7430725c0.0000153-3.4310303-0.0034332-6.8620605,0.0043793-10.2930756
		c0.0010223-0.4445724-0.1652374-1.0072403,0.6289673-0.9948807
		C218.8736877,76.5725021,222.8221283,76.395256,226.7676392,76.6037064z"></path>
	<path d="M46.5467873,112.2477875c-1.4106483,0.0270004-2.8213043,0.0539856-4.2318115,0.0809784
		c-0.4451447-0.2648468-0.294487-0.7060165-0.2953758-1.0825119c-0.0093918-3.9945526-0.0140381-7.9891815,0.0067444-11.9836426
		c0.0020943-0.4023361-0.2841606-1.1353226,0.5210915-1.0540924c0.7431641,0.0749893,1.7539444-0.5741119,2.1872902,0.5938416
		c0.4222527,1.1380539,0.514904,2.333992,0.4885864,3.5386887c-0.058773,2.6911621,0.1752205,5.3400345,1.0649338,7.9048996
		C46.5112228,110.8887177,46.6351891,111.5580521,46.5467873,112.2477875z"></path>
</g>
<g onclick="select(this)" class="" id="c-gola-primaria" fill="#f6d101">
	<path d="M81.8580551,7.9835963c1.698204-1.3369398,3.3569641-2.7328925,4.6171494-4.4986877
		c1.2718124-1.7820867,3.0869598-2.4098542,5.0991058-2.7747858C92.253685,0.5869062,93.0128555,0.76786,93.6000061,0.24
		c8.0799942,0,16.1600037,0,24.2399979,0c2,0.2377515,4,0.3660933,6,0c6.0000076,0,12.0000076,0,18.0000076,0
		c0.9415283,0.4736482,2.0010071,0.450251,2.9966583,0.7015663c1.6403046,0.4140347,3.0483246,1.1346107,4.1073303,2.5050223
		c1.3052368,1.6890111,2.9615326,3.0213346,4.603302,4.3620772c-0.6371765,0.0417809-1.2813263,0.0328736-1.9083557,0.1320987
		c-5.9747009,0.9454899-11.9559937,1.8328524-18.0034943,2.1704445c-4.9721832,0.2775669-9.9312057,0.7544403-14.9111862,0.9240065
		c-4.359642,0.1484394-8.6846237-0.4226103-13.0308685-0.5542564c-1.3863983-0.0419931-2.7921371-0.0599957-4.1780319-0.225687
		c-4.423912-0.5289021-8.8516464-1.0324869-13.2653046-1.6377201C86.1238937,8.3259954,83.9861984,8.2174349,81.8580551,7.9835963z"></path>
</g>
<g onclick="select(this)" class="" id="c-detalhe-lateral" fill="#f6d101">
	<path d="M46.5984573,113.5769119c0.8586273,4.4725723,1.6386528,8.9526825,2.1321869,13.4882431
		c0.4988174,4.5840302,0.9441719,9.1669312,1.2411499,13.7693024c0.2026711,3.1408234,0.3176994,6.2842407,0.4969406,9.4238281
		c1.1673965,20.4485168,0.5023041,40.9126434,0.5072403,61.368454c0.0012054,4.9792328,0.1400795,9.9915161-0.3426857,14.9680328
		c-0.2672157,2.7546234-0.1237488,5.5084534-0.2022476,8.2616272c-0.1626434,5.7046967-0.2872086,11.4113617-0.5359116,17.1124725
		c-0.1807938,4.1444397-0.3410454,8.2883301-0.4768867,12.4345093c-0.1814423,5.5378113-0.4208069,11.0759583-0.7853661,16.6040955
		c-0.1076851,1.6329346-0.104599,3.2683716-0.2435493,4.897583c-0.0408897-0.0000305-0.0816765,0.0050354-0.1207237-0.0010681
		c-4.664753-0.7244263-5.2914047-1.6237793-4.8072586-6.7875366c0.2455597-2.6190491,0.5007591-5.2390442,0.656002-7.8642883
		c0.3797302-6.4214172,1.0538902-12.8269653,1.0024719-19.2732544c-0.0101089-1.2669983,0.1517448-2.5687103,0.4594231-3.7980652
		c0.6893005-2.7542725,0.1676331-5.4806976-0.0383072-8.2067108c-0.398571-5.2760162,0.1435127-10.4516907,1.5237236-15.5354919
		c0.6022377-2.2182312,0.099102-4.3840637-0.1206207-6.5354767c-0.7653923-7.4944611-0.4966202-14.919754,1.0929985-22.2820587
		c0.5638962-2.6116791,0.5894699-5.2269287,0.4373436-7.8679657c-0.2390671-4.1503906,0.1028595-8.3033752-0.0697708-12.4582062
		c-0.2371254-5.7073212-0.0024185-11.4295502-0.505806-17.1308594c-0.059536-0.6743317-0.1083908-1.3693542-0.0155907-2.0343018
		c0.7906189-5.6651917,0.3340569-11.3456421,0.0393906-16.9996185c-0.2931633-5.625061-0.5051308-11.2555923-0.8648415-16.8775024
		c-0.0749779-1.1717911-0.0390434-2.3641205-0.4846649-3.4865036c-0.1395721-1.1747971,0.3028183-2.3947144-0.2738876-3.5358276
		C46.667614,114.7276611,46.5722351,114.1412811,46.5984573,113.5769119z"></path>
	<path d="M186.8008728,284.9392395c-0.1229095-4.2257996-0.4434967-8.441803-0.5853119-12.6685486
		c-0.132309-3.943512-0.3239899-7.8874207-0.4886627-11.8312073c-0.1930847-4.6247253-0.3299561-9.2497711-0.4897461-13.8748932
		c-0.2287445-6.620636-0.4568634-13.2419586-0.7184143-19.8610077c-0.1642761-4.1574554-0.0362549-8.311203-0.1750793-12.4651031
		c-0.4915466-14.7080688-0.0657959-29.4214783-0.23526-44.1312561c-0.0644989-5.5982819,0.2369232-11.1859894,0.3261108-16.7791595
		c0.0780792-4.8951111,0.449295-9.792923,0.8777161-14.673172c0.5314331-6.0536957,1.2392578-12.0922852,1.917038-18.1322174
		c0.0797882-0.7109604,0.2413177-1.4891586,0.918335-1.9722366c-0.0214996,0.6485443,0.103653,1.3106155-0.1795807,1.9347534
		c-0.4635162,1.9399567-0.3752441,3.9355545-0.5561066,5.9021759c-0.8177032,8.8916855-0.9378052,17.8043594-0.4579926,26.7192764
		c0.2285919,4.2474823-0.2272034,8.4676514-0.3691559,12.6984711c-0.169281,5.0442505,0.2913513,10.0682678,0.2419891,15.1049805
		c-0.0278473,2.8404846-0.1205292,5.6720428-0.4734192,8.4955597c-0.2134399,1.7077484-0.2323456,3.4289703,0.0491791,5.1404724
		c0.0583344,0.3545074,0.1529388,0.72229,0.1134796,1.0706635c-0.3606415,3.1831207,0.5791473,6.1537933,1.4381714,9.1434631
		c1.7585297,6.1201935,1.8533173,12.3588104,1.3459167,18.6489716c-0.2750854,3.4103088-0.7511444,6.8083801-0.0207214,10.2524414
		c0.3602142,1.6984406,0.2653809,3.495163,0.1134796,5.2572479c-0.2055511,2.3844604-0.2533112,4.74617,0.1579437,7.1489716
		c0.7022552,4.102829,0.4032593,8.2912903,0.7608795,12.4349823c0.4912415,5.6921997,0.833374,11.3986511,1.1487122,17.1039734
		c0.1142731,2.0674438,0.3803711,4.1285095,0.2982178,6.2113953c-0.0435638,1.1039429-0.4625702,1.8201294-1.5064087,2.1775818
		C189.1212006,284.3831482,188.0046692,284.8197327,186.8008728,284.9392395z"></path>
</g>
<g onclick="select(this)" class="" id="c-detalhe-punho" fill="#f6d101">
	<path d="M0.24,116.1600037c0.69712-1.8766556,0.5781184-3.914978,1.1528097-5.8155289
		c0.0734786-0.2430038-0.0531212-0.5927124,0.3411709-0.674942c3.591774,0.6804352,7.182591,1.3671646,10.7761421,2.0392838
		c3.3273916,0.6223373,6.6449661,1.3125305,9.9897423,1.8229218c4.9343185,0.7529602,9.8997173,1.2014313,14.8977375,0.7378998
		c2.8144569-0.2610168,5.8852081,0.473999,8.1163673-2.1845627c0.466095,1.1234512,0.2772827,2.2217407,0.7851486,3.1454468
		c0.5767975,1.1409149,0.134407,2.3608322,0.2740402,3.5356293c-0.3884583,0.1947632-0.2289581,0.5572586-0.2394142,0.8502502
		c-0.0591583,1.6574707-0.1896095,1.720665-1.8397064,1.9825439c-7.4972954,1.1898422-14.97089,0.8450623-22.4534702-0.1684341
		c-7.0455074-0.9542923-14.0725622-1.9977951-21.0063133-3.5957413c-0.2685242-0.061882-0.5296699-0.1557846-0.7942533-0.2347641
		C0.24,117.1200027,0.24,116.640007,0.24,116.1600037z"></path>
	<path d="M187.9680176,120.4851913c0.2832336-0.6241379,0.1580811-1.2862091,0.1795807-1.9347534
		c0.8706818-1.24543,0.3438873-2.7464066,0.7416229-4.0813904c0.1100159-0.3692703,0.1113434-0.7709351,0.1621704-1.1568756
		c0.043335-0.3514709,0.0870361-0.703804,0.1307526-1.0565033c0.6301117,0.050354,1.0385132,0.4437943,1.4813538,0.7825012
		c2.4344788,1.8620453,5.0329895,2.9518051,8.2521515,2.9212112c4.6003265-0.0437393,9.146286-0.4244003,13.6932831-1.0205231
		c5.3256531-0.6981964,10.6680603-1.2800903,15.9414368-2.3284225c1.2098236-0.2404938,2.3986206-0.5868073,3.597168-0.8845367
		c0.20578,0.0669098,0.3428955,0.1936798,0.363327,0.4202957c0.1937408,2.1484528,0.6473236,4.2625885,0.7942657,6.4213028
		c0.0733948,1.0780487-0.3539429,1.4582367-1.3179474,1.6786728c-4.3675537,0.998703-8.7806244,1.7369766-13.2177277,2.3207779
		c-6.4241333,0.8452225-12.8670959,1.4513855-19.3621521,1.2750168c-2.9469299-0.0800476-5.8189697-0.4116745-8.3982391-2.0057831
		c-0.1339569-0.0827866-0.2849426-0.1598053-0.4374084-0.1872101
		C189.6062164,121.4754333,188.6012726,121.3994827,187.9680176,120.4851913z"></path>
</g>
<line fill="#72C832" x1="142" y1="0" x2="142" y2="0"></line>
</svg>
