<?xml version="1.0" encoding="utf-8"?>
<!-- Generator: Adobe Illustrator 21.0.0, SVG Export Plug-In . SVG Version: 6.00 Build 0)  -->
<svg fill="#ff0000" version="1.1" id="Camada_1" xmlns="http://www.w3.org/2000/svg" xmlns:xlink="http://www.w3.org/1999/xlink" x="0px" y="0px"
	 viewBox="0 0 248 673.3" style="enable-background:new 0 0 248 673.3;" xml:space="preserve">
<path id="bermuda" d="M211.4,453c-2.4,0.8-4.8,1.4-7.3,1.7c-5.1,0.5-10.3,0.9-15.5,1.3c-3.1,0.3-6.3,0.5-9.4,0.7
	c-1,0.1-2,0.2-2.9,0.3h-3.6c-0.3,0-0.6-0.1-0.9-0.1c-4.3-0.1-8.5-0.6-12.7-1.3c-4-0.6-7.9-1.9-11.4-4c-2.3-1.4-4.4-3.2-6.5-4.8
	c-0.1-0.1-0.1-0.2-0.1-0.4c-0.2-1.3-0.4-2.7-0.5-4c-0.2-1.8-0.3-3.6-0.6-5.4c-0.4-2.7-0.8-5.4-1.3-8.1c-0.5-3.2-1-6.4-1.7-9.6
	c-0.8-3.8-1.7-7.7-2.6-11.5c-1.1-4.5-2.2-9-3.2-13.5c-1.3-5.9-2.6-11.9-3.6-17.9c-0.5-3.3-1.4-6.5-2.4-9.6c-0.3-0.9-0.7-1.1-1.5-0.8
	c-0.4,0.2-0.6,0.5-0.8,0.9c-0.6,2.4-1.3,4.8-1.8,7.1c-1,4.8-1.8,9.7-3,14.5c-1.9,7.7-4.1,15.3-6.1,23c-1.2,4.6-3.1,9-3.9,13.7
	c-0.4,2.4-1.3,4.6-1.8,7c-0.9,4.3-1.7,8.7-2.6,13c0,0.5-0.2,0.9-0.4,1.3c-1.5,1.6-3.2,3-4.9,4.2c-4.9,2.9-10.5,4.5-16.2,4.5
	c-7.9,0.2-15.7-0.2-23.5-1c-3.7-0.4-7.4-0.7-11.1-1c-4.4-0.4-8.7-1.1-12.9-2.3c-0.5-0.1-1-0.3-1.4-0.4c-1.7-0.5-3.4-1.1-5-1.8
	c-0.2-0.1-0.3-0.2-0.4-0.3c0.1,0.1,0.2,0.1,0.3,0.2c1.6,0.7,3.3,1.3,5,1.8c0.4,0.1,0.9,0.3,1.4,0.4l19.9-142.4
	c0.9,0.1,1.9,0.2,2.8,0.2c4.4,0.3,8.7,0.5,13,0.6c4,0.1,8.1,0.2,12.1,0.2c3.3,0.1,6.6,0.1,9.9,0.1h0.2c3.6,0.1,7.2,0.2,10.9,0.4
	c4.7,0.2,9.4,0.4,14.1,0.5c3.3,0.1,6.4-0.1,9.8-0.1c3.4,0,6.7,0.1,10.1,0c4.9-0.1,9.9-0.4,14.8-0.6c4.1-0.1,8.3-0.4,12.4-0.5
	c3.9-0.1,7.8-0.1,11.7-0.3c4.1-0.1,8.1-0.4,12.2-0.6c0.9-0.1,1.8-0.1,2.7-0.2L211.4,453z"/>
<g id="gola">
	<path d="M159.5,12.7c-1.2-5.1-4.9-10.2-9.3-12.3c-2.5-1.2-40.9,0.4-52.5,0.4c-1.4,0-7.9,11.9-7.9,11.9S88,15,88.9,19.2
		c0.2,0.7,0.6,1.6,0.9,2.5c1,2.5,3,5.5,6,8.9c9.8,11,22.7,11,25.6,11s8.4,0.8,18.3-1.3s13.6-7,14.6-8s4-5.6,4.6-6.9
		c0.7-1.4,1.7-4.7,1.3-8.9C160.2,15.2,159.8,14,159.5,12.7z M152.1,23.8c-2.2,2.9-7.7,6.5-10.4,7.7c-2.8,1.2-11.2,1.9-18.3,2
		c-7.2,0.1-12-2.2-12-2.2c-5.6-2.2-9.7-5.7-13-9.4c-0.5-0.5-6.3-9.5-4.1-9.8c5.4-0.7,28.8-2.3,33.3-2.2c14.9,0.3,30.3,1.7,30.1,2.8
		C157.2,16.6,154.3,20.9,152.1,23.8z"/>
</g>
<g id="torso">
	<path d="M220,36.2c0,0.4-0.3,0.8-0.6,1.6c-1.1,2.7-2.4,5.4-3.6,8.1c-2.4,5.4-3.5,11-4.8,16.6c-2.1,8.8-4.1,17.6-5.9,26.4
		c-0.5,3.2-0.8,6.4-0.8,9.6c-0.1,1.4-0.5,2.6-1.1,3.8c-0.6,1-0.5,2.3,0.2,3.3c0,0.1,0.1,0.2,0.1,0.3c-0.1,0-0.3,0.1-0.5,0.1
		c-0.7,0.1-1.2,0.3-1.3,1.1c-0.7,4.6-1.5,9.3-2.2,13.9c-0.6,4.4-1.1,8.8-1.6,13.2c-0.5,4.1-1,8.3-1.4,12.4c-0.5,4.7-1,9.3-1.4,14
		c-0.3,3.6-0.6,7.1-0.7,10.7c0,0.8-0.1,1.7-0.1,2.5c-0.3,6.1-0.4,12.1-0.5,18.2c0,5,0.2,9.9,0.4,14.9c0.1,3.1,0.3,6.2,0.5,9.3
		c0.3,3.3,0.7,6.7,1,10c0.3,3.5,0.6,7.1,1,10.6c0.2,1.5,0.3,3.1,0.5,4.7c0,0,0,0,0,0.1c0,0.4,0.1,0.8,0.1,1.2c0,0.2,0,0.5,0.1,0.7
		v0.1v0.1c0,0.2,0,0.3,0.1,0.5c0,0.2,0,0.3,0.1,0.5c0,0.1,0,0.2,0,0.3c0,0.2,0,0.4,0.1,0.6c0,0.1,0,0.1,0,0.2c0,0.2,0,0.4,0.1,0.6
		c0.2,2.2,0.5,4.5,0.8,6.7c0.7,4.9,1.5,9.8,2.3,14.6c0,0.1,0,0.1,0,0.2c0.4,2.4,0.7,4.8,0.9,7.2c0.1,0.9,0.2,1.8,0.3,2.7
		c0,0.1,0,0.1,0,0.2s0,0.2,0,0.3c0.1,1.3,0.3,2.5,0.4,3.7c0,0.3,0.1,0.6,0.1,1v0.1c0,0.5,0,1,0.1,1.4c0,0.2,0,0.3,0.1,0.5l0,0
		c0,0.1,0,0.2,0,0.4c0.1,0.7,0.2,1.4,0.3,2.1c0.1,1.2,0.3,2.4,0.4,3.5c0.2,1.8,0.3,3.6,0.6,5.4c0.5,2.9,1.2,5.8,1.9,8.7
		c0.2,0.6,0.2,1.1,0.2,1.4c-0.6,0.4-1.3,0.8-2.1,1H204h-0.1c-2.9,0.4-5.8,0.6-8.7,0.9c-1.4,0.1-2.7,0.2-4.1,0.2
		c-0.9,0-1.7,0.1-2.5,0.2c-4.1,0.2-8.1,0.5-12.2,0.6c-3.9,0.1-7.8,0.2-11.7,0.3c-4.1,0.1-8.3,0.4-12.4,0.5
		c-4.9,0.2-9.9,0.5-14.8,0.6c-3.4,0.1-6.7,0-10.1,0s-6.5,0.2-9.8,0.1c-4.7-0.1-9.4-0.3-14.1-0.5c-5.7-0.2-11.4-0.4-17-0.5
		c-6.4-0.2-12.9-0.3-19.3-0.5c-4.2-0.2-8.4-0.4-12.7-0.7c-0.9-0.1-1.8-0.1-2.8-0.2c-2.2-0.3-4.4-0.7-6.5-1.3c0.3-1,0.5-1.9,0.7-2.9
		c0.2-1.3,0.4-2.6,0.7-3.9c0.7-2.5,1.1-5.2,1.4-7.8c0.1-0.8,0.2-1.5,0.3-2.3v-0.1c0.2-1.3,0.5-2.7,0.7-4c0.2-0.9,0.4-1.9,0.5-2.8
		c0.3-2.3,0.5-4.6,0.8-6.9s0.4-4.5,0.7-6.8c0-0.1,0-0.3,0.1-0.4v-0.1c0.4-2.5,0.8-5.1,1.1-7.6c0.3-2,0.6-4,0.9-6c0-0.1,0-0.2,0-0.2
		c0.1-1,0.3-2,0.4-3c0.2-1.4,0.4-2.8,0.6-4.3c0-0.2,0.1-0.5,0.1-0.7c0-0.1,0-0.1,0-0.2c0.5-3.7,0.8-7.4,1.1-11.1
		c0.3-2.8,0.5-5.6,0.7-8.5c0.3-3.4,0.6-6.9,0.8-10.3c0.2-3.8,0.4-7.5,0.4-11.3v-1.6c0.1-5.3,0.1-10.6,0-16c0-0.8,0-1.6-0.1-2.4
		c0-1.3,0-2.7,0-4c0-2.4-0.2-4.7-0.3-7c0-0.4-0.1-0.8-0.1-1.2c-0.2-2.8-0.5-5.5-0.7-8.3c-0.3-3.2-0.5-6.5-0.9-9.7
		c-0.4-3.8-0.9-7.6-1.3-11.5c-0.1-1.2-0.2-2.3-0.4-3.5c-0.2-1.8-0.4-3.7-0.6-5.5c-0.2-1.3-0.3-2.6-0.5-3.9c-0.5-4-0.9-8-1.5-12
		c-0.1-0.4-0.1-0.8-0.2-1.1c0-0.1,0-0.2,0-0.3c-0.1-0.8-0.2-1.6-0.3-2.4c-0.2-1.8-0.6-3.7-0.9-5.5l0,0c-0.1-0.5-0.1-0.9-0.2-1.4
		c0-0.1,0-0.2-0.1-0.3l0,0c0,0,0,0,0-0.1s-0.1-0.2-0.2-0.3c-0.3-0.5-0.8-0.7-1.5-0.7l0,0c-0.1,0-0.3-0.1-0.4-0.1
		c1.2-1.4,1-3,0.8-4.6c-0.9-8-2.3-16-4.2-23.8C41.3,70,39.4,61.1,37,52.4c-1.1-4.1-3-8-4.6-12c-0.2-0.7-0.6-1.4-0.8-2.1
		c-0.2-0.8-0.3-1.3-0.2-1.7c0.2-0.3,0.4-0.6,0.7-0.8c0.3-0.2,0.7-0.5,1-0.6c1.6-0.8,3.3-1.5,4.8-2.3c0.7-0.4,1.5-0.8,2.2-1.1l0,0
		c0.9-0.4,1.8-0.8,2.6-1.3c2.2-1.1,4.2-2.5,6.4-3.4c3.2-1.3,6.5-2.2,9.8-3.3c3.9-1.2,7.9-2.5,11.7-4c2.9-1,5.7-2.1,8.5-3.2
		c2.3-0.9,4.7-1.7,7-2.6c0.5-0.2,1-0.4,1.4-0.8c0.6-0.5,1.4-0.8,2.2-0.8c0,0.1-0.1,0.2-0.1,0.3c-0.1,0-0.1,0-0.1,0
		c-0.1,0.4-0.3,0.8-0.3,1.2c0,0.1,0,0.1,0,0.2v0.1c-0.2,0.6-0.3,1.2-0.4,1.8c0,0.1-0.1,0.1-0.1,0.2v2.3c1,3.4,2.7,6.6,4.9,9.4
		c4.7,6.1,11.4,10.5,19,12.2c2.8,0.7,5.7,1,8.6,1.4l0.7,0.1h7.8l3.4-0.3c4.6-0.5,9.1-1.4,13.2-3.4c0,0,0,0,0.1,0
		c0.3-0.1,0.5-0.1,0.5-0.1c0.2-0.1,0.3-0.2,0.5-0.3l0,0c1.4-0.8,2.7-1.6,4-2.7c4.7-3.7,7.9-9.1,8.8-15.1c0.1-0.5,0.1-1,0.2-1.5V17
		c-0.1-0.7-0.2-1.5-0.3-2.2c-0.2-0.9-0.4-1.7-0.7-2.5h0.6c0,0,0.1,0,0.2,0c0.7,0,1.3,0,2,0.1c0.1,0,0.1,0,0.2,0
		c0.2,0,0.3,0.1,0.5,0.3c0.7,0.8,1.8,1.3,2.9,1.3c0.3,0,0.6,0,0.9,0.1c2.6,1,5.1,2,7.7,2.9c0.3,0.1,0.7,0.3,1,0.4
		c1,0.4,1.9,0.7,2.9,1.1c0.7,0.3,1.4,0.5,2.1,0.8c0.3,0.1,0.6,0.2,0.9,0.3c0.4,0.2,0.8,0.3,1.3,0.5c1.7,0.6,3.4,1.2,5,1.8
		c2.1,0.8,4.3,1.4,6.5,2.1c0.5,0.1,0.9,0.2,1.3,0.4h0.1c1.8,0.6,3.6,1.2,5.4,1.8c1.5,0.6,2.9,1.3,4.3,2c2.2,1.2,4.5,2.4,6.7,3.7
		C214.5,33.5,217.5,34.2,220,36.2z"/>
	<path d="M147.4,37.5L147.4,37.5c-0.2,0.1-0.3,0.2-0.5,0.3c0,0-0.2,0-0.5,0.1c0,0,0,0-0.1,0c-3.9,1.2-29,8.6-46.1-3.9
		c0.1,0-13-9.5-11-19.8v-0.1c0-0.1,0-0.1,0-0.2c0.1-0.4,0.2-0.8,0.3-1.2c0,0,0,0,0.1,0c0.3,0,1.2-0.2,2.7-0.4l0,0
		c0.3,0,0.6-0.1,0.9-0.1l0,0c5.9-0.8,17.9-2.1,30.6-2.6c0.1,0,0.1,0,0.2,0h0.2c8.8-0.3,18-0.1,25.7,1c0,0,0,0,0.1,0l0,0
		c3,0.5,5.9,1,8.4,1.8C158.7,12.5,165.5,25,147.4,37.5z"/>
</g>
<g id="mangas">
	<path d="M31.2,37c0,0-12.4,11.1-16.4,22.2c0,0-6.1,13.4-6,19.3c0,0-8.8,36-7.6,39.7c0,0,42.2,5.1,44.3,7.2l0.8-14.2l0.9-1.9
		l0.5-2.1c0,0,0.7-4.7-1.5-17.3C46.2,89.9,36.4,40.7,31.2,37z"/>
	<path d="M219.7,36.6c0,0,10.3,6.1,20.2,31.8l2.5,10.2c0,0,4.9,24.2,5.5,40.7c0,0,2.8,0.2-18.3,1.9c0,0-18,0.6-25.8,2.4l0.5-12.9
		l-1.9-3.7v-3.1l1.5-2.3l0.7-9.1l0.7-5.9l7.2-31.3C214.5,49,216.9,42.7,219.7,36.6z"/>
</g>
<g id="meias">
	<path d="M196.4,673.3c-0.8-0.4-1.4-1.3-1.4-2.2c-0.4-2.1-0.9-4.2-1.4-6.3c-0.6-2.7-0.6-5.5,0.1-8.2c1.3-5.1,1.8-10.3,1.4-15.5
		c-0.3-4.2-1.1-8.4-2.2-12.5c-1-3.9-2-7.8-3-11.8c-1.6-6.2-2.8-12.6-5.1-18.6c-1.3-3.4-2.9-6.8-4.5-10.1c-2.1-4.3-3.8-8.9-5-13.5
		c-0.8-3.4-1.8-6.8-2.4-10.3c-0.6-3.3-0.7-6.7-0.5-10c0.3-3.1,0.3-6.2,0.6-9.3c0.4-4,0.9-8,1.3-12c0.1-0.9-0.2-1.8-0.2-2.7
		c0-1.5,0.3-3,0.3-4.4c0-1.1-0.4-2.1-1-3c-0.7-1-1.2-2.1-1.8-3.2c-2-3.7-4.1-7.5-6.1-11.2c-0.5-0.9-0.9-1.9-1.3-2.8
		c-0.7-1.5,0-2.8,0.8-3.9c0.9-1.1,2-2,3.3-2.6c1-0.6,1.9-1.4,3-2s2.2-1.2,3.4-1.8s2.2-1.1,3.3-1.6c0.8-0.3,1.6-0.6,2.4-0.8
		s1.6-0.5,2.4-0.7s1.9-0.5,2.8-0.8l3.4-0.9c1.8-0.4,3.5-1,5.2-1.3c1.5-0.3,3-0.3,4.4-0.4c0.8-0.1,1.6-0.2,2.4-0.2s1.6,0.1,2.4,0.1
		c1.2,0.1,2.4,0.1,3.5,0.2s2.1,0.2,3.1,0.4s1.9,0.5,2.9,0.8c2,0.6,3.7,1.7,3.9,4.1c0.1,1.5,0,3.1,0.2,4.7c0.2,1.9,0.5,3.8,0.7,5.6
		c0.1,0.9,0.4,1.7,0.9,2.3c0.3,0.4,0.5,0.9,0.5,1.3c-0.3,1.4,0.5,2.3,0.9,3.5c1,2.9,2.3,5.7,2.9,8.6c0.9,4.3,2.1,8.5,3,12.8
		c0.7,3.7,1.5,7.3,2.1,11c0.5,2.9,0.8,5.8,1,8.6c0.2,2.5,0.3,5,0.3,7.5c-0.1,4.3-0.5,8.5-0.8,12.8c-0.3,3.6-0.6,7.2-1,10.8
		c-0.5,4.2-1.1,8.4-1.6,12.7c-0.5,3.5-0.9,7-1.4,10.5c-0.5,4.4-1,8.9-1.5,13.3c-0.5,4.8-0.8,9.7-1.2,14.5c-0.2,2.1-0.5,4.2-0.6,6.2
		c0,1.3,0.1,2.7,0.3,4c0.4,3,1.2,6,2.2,8.8c1,2.6,1.9,5.2,2.7,7.9c0.3,1.2,0.4,2.4,0.3,3.6c0,2.3-0.1,4.6-0.1,7.2
		c-0.7-0.6-1.2-1.1-1.7-1.5c-0.6-0.7-1.5-1.1-2.5-1.2c-0.2,0-0.5-0.3-0.7-0.5c-0.5-0.7-0.9-1.4-1.4-2c-0.3-0.3-0.7-0.5-1.1-0.6v4.3
		c-0.7-0.2-1.3-0.8-1.5-1.5c-0.1-0.7-0.4-1.3-0.6-2c-0.7-2.3-2.5-3.1-4.6-3.2c-3.2-0.3-6.3,1.7-7.2,4.8c-0.1,0.2-0.2,0.3-0.4,0.5
		c-1.6,0.8-3.1,1.6-4.7,2.4c-1.1,0.6-2.3,1.1-3.4,1.6L196.4,673.3z"/>
	<path d="M16,556.8c0.1-0.3,0.1-0.6,0.2-0.9c0.4-3.5,0.6-7.1,1.1-10.6c0.6-4.1,1.4-8.2,2.3-12.2c0.7-3.5,1.7-6.9,2.5-10.4
		c0.2-0.7,0.1-1.4,0.2-2.1c0.2-0.9,0.4-1.7,0.8-2.6c1-2.8,2.1-5.6,3.2-8.5c0.1-0.3,0.1-0.7,0.1-1c0.1-0.6,0-1.4,0.4-1.7
		c0.7-0.9,1.1-2,1.1-3.2c0.5-2.8,0.7-5.7,0.6-8.5c-0.1-2.3,0.6-3.8,3.1-4.7c0.8-0.4,1.7-0.7,2.6-1c1.5-0.3,3-0.4,4.5-0.6
		c0.5,0,1-0.1,1.5-0.1c1.3-0.2,2.7-0.2,4.1-0.2c2,0.1,4,0.4,6,0.6c0.9,0.1,1.8,0.2,2.6,0.3s1.4,0.4,2.2,0.6c1.2,0.3,2.4,0.5,3.5,0.8
		c0.8,0.2,1.6,0.5,2.5,0.7c0.6,0.2,1.2,0.3,1.8,0.5c0.9,0.2,1.7,0.5,2.6,0.7s1.4,0.5,2.1,0.8s1.4,0.6,2.1,1s1.6,0.9,2.5,1.3
		c0.7,0.3,1.4,0.7,2,1.1s1.1,0.8,1.7,1.2c0.9,0.6,1.8,1.2,2.7,1.7c2,1.2,4.1,3.8,2.5,6.6c-2.6,4.8-5.2,9.6-7.8,14.4
		c-0.6,0.9-1.1,1.9-1.6,2.8c-0.3,0.8-0.5,1.7-0.5,2.6c0,1.4,0.2,2.7,0.3,4.1c0,0.9-0.2,1.8-0.2,2.7c0.4,3.8,0.9,7.5,1.3,11.3
		c0.3,2.7,0.4,5.4,0.5,8.1c0.1,1.8,0.2,3.5,0.2,5.3c0,4.2-0.6,8.3-1.7,12.3c-0.8,3.2-1.6,6.4-2.7,9.6c-1.2,3.3-2.6,6.6-4.1,9.8
		c-2.4,4.7-4.3,9.7-5.7,14.8c-1.4,5.5-2.8,11-4.2,16.5c-1,4.1-2.1,8.2-3,12.4c-1.1,4.8-1.5,9.7-1.2,14.6c0.2,3,0.7,6,1.4,8.9
		c0.6,2.6,0.6,5.4,0.1,8c-0.4,2.4-1,4.8-1.5,7.2c-0.4,1.5-0.8,1.8-2.3,1.4c-0.9-0.3-1.8-0.7-2.7-1.2c-1.7-0.9-3.4-1.8-5.1-2.7
		c-0.3-0.2-0.6-0.5-0.8-0.8c-0.7-1-1.4-2-2.2-2.9c-2-1.9-4.4-1.6-6.8-0.7c-2,0.8-2.9,2.5-3.5,4.3c-0.1,0.3-0.2,0.6-0.3,0.9
		c-0.1,0.2-0.4,0.3-0.7,0.5c-0.1-0.2-0.3-0.5-0.3-0.8c0-0.8,0-1.7,0-2.5c0-0.2-0.1-0.5-0.2-0.5c-0.2-0.1-0.4,0-0.6,0.1
		c-0.5,0.7-1,1.4-1.4,2.1c-0.3,0.5-0.8,0.9-1.3,1c-1,0.4-1.9,1-2.8,1.7c-0.3,0.3-0.5,0.6-0.8,0.9c-0.1-0.4-0.1-0.7-0.2-1.1
		c-0.1-2-0.1-4-0.2-6c0-3.1,0.7-6.2,2.1-9c1.8-4.1,2.9-8.4,3.5-12.8c0.1-1.6,0-3.3-0.1-4.9c-0.1-1.8-0.3-3.6-0.5-5.4l-1-10.6
		c-0.2-2-0.3-4.1-0.5-6.2c-0.3-3.2-0.7-6.4-1.1-9.7c-0.3-2.7-0.7-5.4-1-8.1c-0.4-3.2-0.9-6.5-1.3-9.7c-0.3-2.6-0.6-5.2-0.9-7.8
		c-0.4-3.4-0.7-6.7-1-10.1c-0.2-2.4-0.2-4.9-0.4-7.3c-0.1-1.6-0.2-3.1-0.3-4.7L16,556.8z"/>
</g>
<g id="golas-da-manga">
	<path d="M2,118.2c0.8,0.1,1.7,0.2,2.5,0.3c2.1,0.2,4.2,0.3,6.2,0.6s4.4,0.7,6.6,1.1c1.6,0.3,3.3,0.5,4.9,0.7c2.4,0.4,4.7,0.8,7,1.1
		c1.1,0.2,2.2,0.2,3.3,0.4c2.2,0.3,4.4,0.7,6.7,1.1c1.4,0.2,2.7,0.5,4.1,0.8c1.1,0.2,1.2,0.4,1.1,1.5c-0.3,3.9-0.7,7.8-1.1,11.8
		c-0.1,1.6-0.4,3.2-0.6,5c-1.4-0.1-2.8-0.1-4.2-0.3c-4.2-0.5-8.4-1-12.6-1.6c-3.9-0.5-7.7-1-11.6-1.6c-4.4-0.6-8.8-1.3-13.1-1.9
		c-0.4-0.1-0.8-0.1-1.2-0.2c0-0.3-0.1-0.6,0-0.9c0.1-5.1,0.2-10.3,0.4-15.5c0.1-0.8,0.2-1.6,0.3-2.4L2,118.2z"/>
	<path d="M247,118.7v18.5c-1,0.1-2,0.2-3,0.3c-6.4,0.4-12.7,0.8-19,1.2c-5.1,0.4-10.2,0.8-15.3,1.2c-1.2,0.1-2.3,0.2-3.5,0.2
		c-1.5,0.1-2.1-0.5-2.1-1.9c-0.2-4.9-0.3-9.7-0.5-14.6c0-1.5,0.2-1.8,1.8-1.9c2.9-0.2,5.7-0.5,8.5-0.7c3.2-0.2,6.5-0.4,9.8-0.7
		c2.8-0.3,5.6-0.7,8.4-1c1.4-0.1,2.8-0.2,4.2-0.3s3-0.3,4.4-0.4C242.7,118.6,244.7,118.7,247,118.7z"/>
</g>
<g id="laterais">
	<path d="M54.5,308.4L34.6,450.8c-0.5-0.1-1-0.3-1.4-0.4c-1.7-0.5-3.4-1.1-5-1.8c-0.1,0-0.2-0.1-0.3-0.2c-0.1,0-0.1-0.1-0.2-0.2
		c-0.1-0.2-0.2-0.4-0.3-0.6c-0.2-3.9-0.4-7.8-0.5-11.7c-0.1-4.5-0.1-9-0.1-13.5c0-0.4-0.1-0.9-0.1-1.3v-19.4c0-0.4,0.1-0.8,0.1-1.1
		c0.1-2.9,0.1-5.8,0.2-8.7c0.2-4.1,0.3-8.2,0.7-12.2c0.4-4.5,0.9-9.1,1.6-13.6c1-6.2,2.2-12.4,3.6-18.5c2.5-11.2,5.7-22.3,9.6-33.1
		c0.9-2.5,1.9-5.1,2.6-7.6c1,0.4,2,0.6,3,0.8C50.3,307.9,52.3,308.2,54.5,308.4z"/>
	<path d="M218.7,388.5v5.6c-0.1,0.1-0.1,0.3-0.2,0.5c0,2.6-0.1,5.1-0.1,7.7c-0.1,4.6-0.2,9.1-0.4,13.7c-0.2,6.1-0.4,12.1-0.6,18.2
		c-0.1,2.3,0,4.5-0.1,6.8c-0.1,2.9-0.5,5.8-0.5,8.7c0.1,0.9-0.5,1.7-1.4,1.9c-1.3,0.5-2.6,1-4,1.4l-20.2-144.9
		c1.3-0.1,2.6-0.1,3.9-0.2c1.4-0.2,2.8-0.3,4.3-0.4h0.1c0.8-0.1,1.6-0.1,2.3-0.2c0.5-0.1,1-0.1,1.4-0.2l0,0c0.2,0,0.3,0,0.5-0.1
		c0.1,0,0.2-0.1,0.4-0.1c0.1,0.4,0.2,0.7,0.3,1.1c1,3,1.8,6.1,2.6,9.2c1.2,4.3,2.5,8.7,3.7,13c1,3.8,1.9,7.7,2.6,11.6
		c1.2,6.3,2.3,12.6,3.2,19c0.6,4.3,1,8.7,1.3,13c0.3,4.1,0.4,8.3,0.5,12.4c0.1,0.5,0.2,1.1,0.2,1.7
		C218.7,388.1,218.7,388.3,218.7,388.5z"/>
</g>
</svg>
