<?xml version="1.0" encoding="utf-8"?>
<!-- Generator: Adobe Illustrator 21.0.0, SVG Export Plug-In . SVG Version: 6.00 Build 0)  -->
<svg version="1.1" id="Camada_2" xmlns="http://www.w3.org/2000/svg" xmlns:xlink="http://www.w3.org/1999/xlink" x="0px" y="0px"
	 viewBox="0 0 417.8 1225.2" style="enable-background:new 0 0 417.8 1225.2;" xml:space="preserve">
<path id="torso" d="M326.2,268.2c-4.8,33.8-3.2,100.3-2.3,118c0.9,18.7,7.6,51.9,10.2,77.1c0.5,4.4-0.4,5.3-0.2,7.9
	c1.8,19.3,5,24.8,6.1,30.2c0.6,2.9,1.4,4,1,4.5c-0.5,0.1-1,0.3-1.5,0.4c0,0,0,0-0.1,0s-0.3,0-0.4,0.1l0,0
	c-92.4,25.3-234.5,8.4-263.4-3.2c0.2-0.5,0.3-0.7,0.3-0.7c-0.4,0.1-0.8,0.2-1.2,0.3c-0.9-0.4-1.7-0.8-2.3-1.2
	c0.2-0.5,0.5-1.1,0.5-1.5c3.8-24.4,9-63,9-63c14-74,6.1-158.8,5.3-165c0-14.7-10.7-92.7-10.7-92.7l-1-6.7
	c-5-11.7-16.7-78.3-21.4-124.9c7.2-4.1,22.4-13.2,26.4-13.8c23.9-3.7,47.8-14.6,58.3-19.8c0,0,52.1,22.5,132.8,0.8
	c25.5,11.6,59.3,16.3,83.5,31l0,0c-2.9,45-2.3,90.9-15.8,125.4C334.7,195.6,329.5,245.6,326.2,268.2z"/>
<path id="bermuda" d="M367.2,736.6c-6.6,14.5-24.7,14-29,15s-62.3-0.3-74.7-1.7c-12.3-1.3-19.3-4.3-19.3-4.3l-2.3-3.3
	c0,0-0.7-8.3-2.3-15.7c-1.7-7.3-3.7-16-3.7-16l-6-24.3l-4.7-20l-3-9c0,0-3.1-10.5-4.7-17c-3.3-13.6-8-42.3-8-42.3l-2.7-1.3
	c0,0-1.1-0.4-1.7,3.3c-2.9,18.3-6,34-6,34s-8,35.3-9.3,40c-2.4,8.3-11,70.7-11,70.7s-4,4.7-10.3,6s-22.7,3.3-22.7,3.3
	s-70.3,0-76-1.7c-5.6-1.7-9.7-5.7-9.7-5.7l-5-6.7c8.3-109.7,20-235.4,20-235.4c0.2-0.5,0.3-1,0.5-1.3c28.9,11.6,171,28.5,263.4,3.2
	c-0.2,0.1-0.3,0.3-0.2,0.8C338.6,512.9,364.9,713.2,367.2,736.6z"/>
<path id="gola" d="M271.6,15.2c-80.7,21.7-132.8-0.8-132.8-0.8c3.5-1.7,5.4-2.8,5.4-2.8s11-9.7,15.3-10.3
	c22.6-3.5,95.7,0.3,95.7,0.3C268.1,8,267.9,13.6,271.6,15.2z"/>
<g id="laterais">
	<path d="M75.2,504.5c0,0-11.6,125.7-20,235.4c0,0-7.7-105.7-1-146.3C62.6,542.8,72.5,512.3,75.2,504.5z"/>
	<path d="M367.2,736.6c-2.3-23.3-28.7-223.7-28.3-229.3c30.3,81.9,28.3,134.7,28.3,134.7S368.9,732.9,367.2,736.6z"/>
</g>
<g id="mangas">
	<path d="M75.2,173.2c0,0,0.2,9.1,0.2,18.8L0,187.6c1.9-12.3,10.9-67,10.9-67c10.9-46,32-66.4,41.7-71.7c0.5-0.3,1-0.5,1.6-0.9
		c4.7,46.5,16.4,113.2,21.4,124.9L75.2,173.2z"/>
	<path d="M417.8,187.6l-75.5,10.8c-0.4-12.7-0.4-25.8-0.4-25.8l-2.7-1c13.5-34.5,13-80.4,15.8-125.4c2.8,1.6,5.4,3.4,7.8,5.4
		c24.3,19,35.1,52.7,36,56.3c8.8,35.8,11.3,44.7,11.3,44.7s0,0,3.3,13s2.7,19.3,2.7,20.3S417.8,187.6,417.8,187.6z"/>
</g>
<g id="gola-da-manga">
	<path d="M74.2,214.9C69,214,0,211.6,0,208.6s0-21,0-21l75.5,4.4C75.5,203.1,75.3,215.1,74.2,214.9z"/>
	<path d="M417.8,187.6c0,0,0,17.3,0,20.3s-1.9,2.3-1.9,2.3s-69,15.7-71.3,10.7c-1.3-2.7-1.9-12.4-2.3-22.5L417.8,187.6z"/>
</g>
<image style="overflow:visible;" width="496" height="1452" xlink:href="../simulador/ALEMANHA_1_2014_COSTAS_highlights.png"  transform="matrix(0.8438 0 0 0.8438 0 0)">
</image>
</svg>
