<!--?xml version="1.0" encoding="utf-8"?-->
<!-- Generator: Adobe Illustrator 24.2.3, SVG Export Plug-In . SVG Version: 6.00 Build 0)  -->
<svg version="1.1" id="Camada_1" xmlns="http://www.w3.org/2000/svg" xmlns:xlink="http://www.w3.org/1999/xlink" x="0px" y="0px" viewBox="0 0 229 418" style="enable-background:new 0 0 229 418;" xml:space="preserve">
<style type="text/css">
	.st0{fill:#FD0303;}
	.st1{fill:#121163;}
	.st2{fill:#A80102;}
	.st3{fill:#A60103;}
</style>
<g onclick="select(this)" class="" id="gola-primaria" fill="#021c3b">
	<path d="M78,8c0.5-0.1,1-0.4,1.4-0.7c1-0.9,2-1.7,2.8-2.8c1.8-2.5,4.4-3.4,7.2-3.8c0.6-0.1,1.4,0.1,1.9-0.5
		c1.2,0,2.4,0,3.6,0c0.2,0.5,0.6,0.3,0.9,0.3c5.6,0,11.2,0,16.7,0c0.4,0,0.8-0.1,1.1-0.3c7.5,0,15,0,22.6,0c0.1,0.5,0.5,0.3,0.8,0.4
		c1,0.2,2,0.3,2.9,0.4c2,0.3,3.7,1.1,4.9,2.8c1.3,1.7,2.7,3.3,4.6,4.4c1.3,0.6,1.9,1.5,1.8,3c-0.2,3.6-1.9,6.5-4,9.3
		c-0.5,0.6-0.8,0.5-1.3,0.1c-1.7-1.3-3.3-2.6-5-3.9c-0.8-0.6-0.9-0.9-0.2-1.7c1.6-1.7,2.8-3.6,3.7-6c-3.8,0.3-7.5,0.6-11.1,0.8
		c-8.3,0.5-16.6,1.4-24.9,0.9c-8-0.4-15.9-1.1-23.9-1.9c-1.3-0.1-1.4,0-0.9,1.1c0.8,2,2.1,3.7,3.5,5.2c0.5,0.6,0.6,1-0.1,1.5
		c-1.7,1.3-3.4,2.7-5.1,4c-0.5,0.5-0.9,0.4-1.3-0.1c-1.9-2.4-3.4-5-4.2-8C75.9,10.4,76.3,9.2,78,8z"></path>
</g>
<g onclick="select(this)" class="" id="estampa-primaria" fill="#bf0811">
	<path d="M43.2,120.4c-0.1-2.3-0.2-4.6-0.6-6.9c-0.1-0.5-0.2-0.6-0.7-0.4c-2.5,1.1-5.2,1.1-7.8,1.5c-1.5,0.2-3-0.1-4.5-0.1
		c-4.2,0-8.5-0.1-12.7-0.5c-3.8-0.4-7.6-1.1-11.2-2.4c-1.4-0.5-3-0.9-4.2-1.9c1.8-9.4,2.7-19,4.2-28.4c0.9-5.2,1.2-10.4,2.3-15.5
		c1.7-8,4.4-15.7,9.4-22.4c2.1-2.9,4.6-5.6,7.4-7.8c1.4-1.1,2.4-2.6,3.9-3.4c3.6-1.9,7.3-3.7,11-5.3c10-4.1,20-8.2,29.4-13.4
		c2-1.1,4-2.1,5.5-3.9c0.8-1,2-1.6,3.4-1.6c-1.7,1.2-2.1,2.5-1.5,4.7c0.7,3,2.2,5.6,4.2,8c0.5,0.6,0.8,0.6,1.3,0.1
		c1.7-1.4,3.3-2.7,5.1-4c0.7-0.5,0.6-0.9,0.1-1.5c-1.5-1.6-2.7-3.2-3.5-5.2c-0.5-1.2-0.4-1.3,0.9-1.1c7.9,0.8,15.9,1.5,23.9,1.9
		c8.3,0.5,16.6-0.4,24.9-0.9c3.7-0.2,7.3-0.5,11.1-0.8c-0.9,2.3-2.1,4.2-3.7,6c-0.7,0.8-0.6,1.1,0.2,1.7c1.7,1.2,3.4,2.5,5,3.9
		c0.5,0.4,0.8,0.5,1.3-0.1c2.1-2.8,3.8-5.7,4-9.3c0.1-1.5-0.5-2.4-1.8-3c1.8-0.1,3,1,4,2.2c0.3,0.4,0.7,0.7,1.1,1
		c10,6.5,21.2,10.6,32.1,15.2c4,1.7,7.8,3.6,11.8,5.3c1.2,0.5,1.9,1.6,3,2.4c3.5,2.6,6.7,5.6,9.3,9.1c4.9,6.4,7.6,13.8,9.4,21.6
		c0.6,2.9,1.2,5.8,1.5,8.7c0.6,5.8,2.3,11.3,3.4,17c1.1,5.5,1.7,11,2.8,16.5c0.1,0.3,0,0.6,0.1,1c-3.3,1.3-6.6,2.4-10,3.2
		c-3.1,0.7-6.3,1.1-9.4,1.7c-3,0.5-6.1,0.7-9.2,0.7c-4.2,0-8.5,0.3-12.7-0.6c-1.2-0.3-1.4,0.1-1.6,1.1c-0.4,1.9-0.3,3.9-0.3,5.8
		c-0.4,0.8-0.3,1.7-0.4,2.6c-1,8.4-1.7,16.8-1.7,25.2c0,2.2,0.1,4.4,0.5,6.6c0.4,1.9,0,3.8-0.2,5.7c-0.2,2.1-0.3,4.2-0.1,6.3
		c0.2,2.5-0.2,5-0.2,7.5c0,2.6-0.1,5.2,0.2,7.8c0.2,2.4-0.2,4.8-0.2,7.2c0,2.3,0.5,4.4,1,6.6c1.6,7.3,1.4,14.5,0.3,21.8
		c-0.3,2.1-0.4,4.2,0.3,6.4c1.8,5.4,1.8,11,0.9,16.6c-0.2,1.5-0.2,2.9,0.1,4.4c0.9,3.8,0.4,7.7,0.6,11.6c0.3,5.9,0.7,11.8,1.4,17.7
		c0.3,2,0.2,4.1,0.3,6.2c0,1.7-0.4,2.2-2.1,2.7c-3,0.9-6.1,1.2-9.2,1.5c-8.3,0.9-16.7,0.9-25,1c-11.6,0.2-23.2,0.8-34.8,0.8
		c-11.5,0-23-0.8-34.5-0.9c-8.4,0-16.7-0.1-25.1-0.7c-4.2-0.3-8.4-0.8-12.6-1.7c-3.6-0.8-4-1.2-3.8-4.8c0.4-7.7,1-15.4,1.5-23.1
		c0.1-2,0.3-4,0.2-6c0-1.9,0-3.8,0.4-5.6c0.4-2.2,0.4-4.4,0.1-6.7c-0.4-2.5-0.1-5,0.4-7.5c0.2-1,0.2-2,0.1-3.1
		c-0.3-4.5-1-9.1-0.8-13.6c0.2-4.3,1.2-8.5,2.7-12.5c0.4-1,0.6-2,0.5-3.1c-0.2-1.2-0.2-2.5,0.1-3.7c0.3-1.7,0.2-3.3,0.1-5
		c-0.2-3.3-0.2-6.6-0.2-9.9c-0.1-12.9,0-25.8-0.1-38.7c0-5.2-1-10.3-1.6-15.5C43.6,122.9,43.8,121.6,43.2,120.4z"></path>
</g>
<g onclick="select(this)" class="" id="detalhe-punho" fill="#021c3b">
	<path d="M0.2,114.7c0.6-1.1,0.4-2.3,0.7-3.4c0.2-0.5,0.1-1.1,0.5-1.6c1.2,1,2.8,1.3,4.2,1.9c3.6,1.4,7.4,2,11.2,2.4
		c4.2,0.4,8.4,0.5,12.7,0.5c1.5,0,3.1,0.3,4.5,0.1c2.6-0.4,5.3-0.4,7.8-1.5c0.5-0.2,0.6-0.1,0.7,0.4c0.4,2.3,0.5,4.6,0.6,6.9
		c-0.6,0.6-1.3,0.7-2,0.9c-2.3,0.6-4.5,1-6.9,1c-7.6,0.2-15.2,0.2-22.7-1.2c-3-0.6-6-1.1-8.9-2.1c-0.8-0.3-1.6-0.6-2.4-1
		C0.2,116.9,0.2,115.8,0.2,114.7z"></path>
	<path d="M184.6,120.1c0-2-0.1-3.9,0.3-5.8c0.2-1,0.4-1.4,1.6-1.1c4.2,0.9,8.4,0.6,12.7,0.6c3.1,0,6.1-0.2,9.2-0.7
		c3.1-0.5,6.3-0.9,9.4-1.7c3.4-0.8,6.8-1.9,10-3.2c1,2.4,1.3,5,1.2,7.6c0,0.7-0.8,0.8-1.3,1.1c-2.5,1-5.1,1.6-7.7,2.3
		c-9.1,2.5-18.5,3.1-27.9,2.6c-2-0.1-4.1-0.3-6-0.9C185.5,120.7,185,120.6,184.6,120.1z"></path>
</g>
<g onclick="select(this)" class="" id="estampa-secundaria" fill="#021c3b">
	<path d="M40.5,280c-0.2-1.3-0.1-2.5,0.1-3.7c7.1,0,14.1,0,21.2,0c0.4,0,1.1,0.2,1.2-0.3c0.1-1,0.8-0.7,1.3-0.7
		c6.8,0,13.5,0,20.3,0c4.1,0,8.2,0,12.3,0c0.4,0,1-0.2,1.1,0.2c0.1,1,0.8,0.8,1.4,0.8c9.6,0,19.1,0,28.6,0c1.4,0,2.7,0,4.1,0
		c0.4,0,0.9-0.1,0.9,0.5c0,0.7,0.4,0.6,0.9,0.6c11,0,22.1,0,33.1,0c0.3,0,0.8,0.1,0.8-0.3c0.1-1.1,0.9-0.9,1.5-0.9c6,0,12,0,18,0
		c0.3,1.2,0.2,2.5,0.2,3.8c-6.1,0-12.3,0-18.5,0c-0.4,0-1,0.2-1-0.4c-0.1-1-0.7-0.8-1.3-0.8c-7.9,0-15.7,0-23.6,0c-3,0-6,0-9,0
		c-0.4,0-1-0.2-1,0.4c-0.1,1-0.8,0.7-1.3,0.7c-8,0-16.1,0-24.1,0c-2.9,0-5.8,0-8.6,0c-0.3,0-0.9-0.2-0.9,0.3
		c-0.1,1.1-0.9,0.7-1.4,0.8c-6.5,0-12.9,0-19.4,0c-4.3,0-8.7,0-13.1,0c-0.4,0-1,0.2-1.1-0.2c-0.1-1-0.8-0.8-1.4-0.8
		C54.7,280,47.6,280,40.5,280z"></path>
	<path d="M186.6,269.3c0.2,1.2,0.4,2.5,0.3,3.7c-6,0-12.1,0-18.1,0c-0.3,0-0.9,0.1-0.9-0.3c-0.1-1-0.7-0.8-1.3-0.8
		c-5.2,0-10.4,0-15.6,0c-5.6,0-11.3,0-16.9,0c-0.4,0-1-0.3-1.1,0.3c-0.1,0.9-0.6,0.8-1.2,0.8c-0.6,0-1.1,0-1.7,0
		c-10.3,0-20.6,0-30.9,0c-0.4,0-1.1-0.2-1.2,0.3c-0.1,1-0.8,0.8-1.3,0.8c-5.6,0-11.2,0-16.8,0c-5.3,0-10.6,0-15.8,0
		c-0.4,0-1,0.2-1.1-0.2c-0.1-1.1-0.9-0.8-1.5-0.8c-7,0-13.9,0-20.9,0c0-1.3,0.1-2.5,0.4-3.7c7,0,13.9,0,20.9,0c0.3,0,0.9,0.2,1-0.3
		c0.1-0.8,0.6-0.7,1.1-0.7c2.7,0,5.3,0,8,0c8.2,0,16.5,0,24.7,0c0.4,0,1.1-0.3,1.1,0.3c0.1,0.9,0.7,0.7,1.2,0.7c0.7,0,1.4,0,2.2,0
		c10.2,0,20.3,0,30.5,0c0.4,0,1.1-0.2,1.1,0.3c0.1,1,0.8,0.8,1.4,0.8c5.1,0,10.1,0,15.2,0c5.7,0,11.4,0,17.1,0
		c0.4,0,1.1,0.2,1.1-0.3c0.1-1,0.8-0.8,1.4-0.8C175,269.3,180.8,269.3,186.6,269.3z"></path>
	<path d="M43,231.1c0.2-1.2,0.3-2.5,0.5-3.7c6.2,0,12.5,0,18.7,0c0.3,0,0.9-0.1,0.9,0.4c0,1,0.7,0.8,1.3,0.8
		c5.8,0,11.6,0,17.4,0c5.1,0,10.2,0,15.2,0c0.4,0,1.1,0.3,1.1-0.3c0.1-1,0.7-0.8,1.3-0.8c6.7,0,13.3,0,20,0c4.2,0,8.4,0,12.6,0
		c0.4,0,1,0.3,1.1-0.4c0.1-0.8,0.6-0.7,1.1-0.7c4.1,0,8.1,0,12.2,0c6.8,0,13.6,0,20.4,0c0.4,0,1-0.3,1.1,0.3
		c0.1,0.9,0.7,0.7,1.3,0.7c5.3,0,10.5,0,15.8,0c0.5,1.2,0.6,2.5,0.5,3.8c-5.4,0-10.9,0-16.3,0c-0.4,0-1-0.2-1.1,0.3
		c-0.1,1-0.9,0.8-1.4,0.8c-7,0-14.1,0-21.1,0c-3.8,0-7.6,0-11.4,0c-0.4,0-1,0.3-1.1-0.4c-0.1-0.8-0.6-0.7-1.1-0.7c-3,0-6,0-9,0
		c-7.9,0-15.8,0-23.7,0c-0.4,0-1.1,0.3-1.1-0.3c-0.1-1.1-0.8-0.8-1.4-0.8c-9.9,0-19.9,0-29.8,0c-1,0-2,0-3,0c-0.3,0-0.8-0.1-0.8,0.4
		c0,0.7-0.4,0.7-1,0.7C55.8,231.1,49.4,231.1,43,231.1z"></path>
	<path d="M41.4,265c-0.2-0.5-0.1-1,0.1-1.5c6.8,0,13.6,0,20.4,0c0.4,0,1.1,0.3,1.1-0.3c0.1-1,0.7-0.8,1.3-0.8
		c3.3,0,6.7,0,10.1,0c7.5,0,15,0,22.5,0c0.4,0,1.1,0.2,1.1-0.2c0.2-1.2,1-0.8,1.6-0.8c1.4,0,2.9,0,4.3,0c9.3,0,18.6,0,27.9,0
		c0.4,0,1.1-0.2,1.1,0.3c0.1,1,0.8,0.7,1.3,0.7c7.7,0,15.3,0,23,0c3.2,0,6.4,0,9.6,0c0.4,0,0.9-0.2,1,0.4c0.1,1,0.8,0.7,1.3,0.7
		c5.7,0,11.3,0,17,0c0.2,0.5,0.2,1,0.1,1.5c-5.7,0-11.4,0-17.1,0c-0.4,0-1.1-0.2-1.1,0.3c-0.1,1-0.8,0.8-1.4,0.8
		c-3.9,0-7.9,0-11.9,0c-6.8,0-13.7,0-20.5,0c-0.4,0-1.1-0.3-1.2,0.4c-0.1,0.7-0.5,0.6-1,0.6c-11.1,0-22.1,0-33.2,0
		c-0.3,0-0.8,0.1-0.8-0.3c-0.1-1-0.8-0.7-1.3-0.7c-6.3,0-12.5,0-18.8,0c-4.6,0-9.1,0-13.7,0c-0.4,0-1.1,0.2-1.2-0.3
		c-0.1-1-0.8-0.8-1.4-0.8C55,265,48.2,265,41.4,265z"></path>
	<path d="M41.9,258c-0.2-0.5,0-1.1,0.1-1.6c0.2,0,0.5,0,0.7,0c6.4,0,12.8,0,19.2,0c0.4,0,1,0.2,1.1-0.2
		c0.1-1,0.8-0.8,1.4-0.8c1.2,0,2.4,0,3.6,0c9.6,0,19.3,0,28.9,0c0.4,0,1.1,0.3,1.1-0.3c0.1-1.1,0.8-0.8,1.4-0.8c7.4,0,14.8,0,22.2,0
		c3.5,0,6.9,0,10.4,0c0.4,0,1-0.2,1.1,0.4c0.1,0.9,0.6,0.7,1.1,0.7c4,0,8.1,0,12.1,0c6.9,0,13.7,0,20.6,0c0.4,0,1-0.3,1.1,0.3
		c0.1,0.9,0.7,0.7,1.3,0.7c5.5,0,11,0,16.5,0c0.2,0.5,0.2,1,0.1,1.6c-5.6,0-11.1,0-16.6,0c-0.4,0-1.1-0.3-1.1,0.3
		c-0.2,1-0.8,0.7-1.4,0.7c-9.1,0-18.3,0-27.4,0c-1.8,0-3.5,0-5.3,0c-0.3,0-0.8-0.1-0.9,0.4c0,0.9-0.6,0.7-1.2,0.7
		c-6.2,0-12.3,0-18.4,0c-4.8,0-9.5,0-14.3,0c-0.4,0-1.1,0.3-1.1-0.4c-0.1-1-0.7-0.8-1.3-0.8c-3.5,0-6.9,0-10.4,0
		c-7.4,0-14.8,0-22.2,0c-0.4,0-1,0.3-1.1-0.3c-0.1-0.9-0.7-0.7-1.2-0.7C55.2,258,48.6,258,41.9,258z"></path>
	<path d="M42.3,251c-0.1-0.5-0.1-1.1,0-1.6c6.5,0,13,0,19.5,0c0.4,0,1,0.2,1.1-0.2c0.2-1.2,1-0.8,1.6-0.8
		c9.8,0,19.7,0,29.5,0c1,0,2.1,0,3.1,0c0.3,0,0.8,0.1,0.8-0.3c0-1.2,0.8-0.8,1.4-0.8c8.3,0,16.5,0,24.8,0c2.6,0,5.2,0,7.8,0
		c0.3,0,0.9-0.2,0.9,0.3c0.1,1.2,0.9,0.9,1.6,0.9c10.8,0,21.5,0,32.2,0c0.4,0,1.1-0.2,1.2,0.3c0.2,0.9,0.8,0.7,1.3,0.7
		c5.5,0,10.9,0,16.4,0c0.3,0.5,0.2,1.1,0.1,1.6c-5.5,0-11,0-16.5,0c-0.4,0-1-0.3-1.1,0.3c-0.1,0.9-0.7,0.7-1.3,0.7
		c-4.4,0-8.8,0-13.2,0c-6.5,0-12.9,0-19.4,0c-0.4,0-1.1-0.3-1.1,0.3c-0.1,0.9-0.7,0.8-1.3,0.8c-6.9,0-13.8,0-20.7,0c-4,0-8,0-12,0
		c-0.4,0-1,0.2-1-0.4c0-1-0.7-0.8-1.3-0.8c-5.6,0-11.3,0-16.9,0c-5.2,0-10.5,0-15.7,0c-0.4,0-1,0.2-1.1-0.2c-0.1-1-0.8-0.8-1.4-0.8
		C55.3,251,48.8,251,42.3,251z"></path>
	<path d="M42.8,210c0.1-1.2,0.2-2.5,0.7-3.6c6.2,0,12.3,0,18.5,0c0.4,0,1.1-0.3,1.2,0.4c0.1,0.6,0.4,0.6,0.8,0.6
		c11.1,0,22.2,0,33.3,0c0.3,0,0.8,0.1,0.8-0.3c0.1-1,0.8-0.7,1.3-0.7c7.2,0,14.4,0,21.7,0c3.7,0,7.3,0,11,0c0.4,0,1,0.2,1-0.4
		c0.1-1,0.7-0.8,1.3-0.8c6,0,12.1,0,18.1,0c4.8,0,9.6,0,14.4,0c0.4,0,1.1-0.3,1.1,0.3c0.1,0.9,0.7,0.8,1.3,0.8c5.1,0,10.3,0,15.4,0
		c0.1,1.2,0.1,2.4-0.1,3.5c-5,0-10.1,0-15.1,0.1c-0.6,0-1.5-0.3-1.6,0.9c0,0.4-0.5,0.3-0.8,0.3c-11,0-22.1,0-33.1,0
		c-0.3,0-0.8,0.1-0.8-0.3c0-1.1-0.8-0.9-1.4-0.9c-8.3,0-16.6,0-24.9,0c-2.6,0-5.1,0-7.7,0c-0.3,0-0.9,0.2-0.9-0.3
		c-0.1-1-0.8-0.7-1.3-0.7c-8.1,0-16.2,0-24.3,0c-2.8,0-5.6,0-8.4,0c-0.3,0-0.9-0.2-1,0.4c-0.1,0.7-0.5,0.6-0.9,0.6
		C55.7,210,49.3,210,42.8,210z"></path>
	<path d="M185.5,235.4c0.1,0.5,0.1,1-0.1,1.5c-5.4,0-10.9,0-16.3,0c-0.4,0-1.1-0.2-1.1,0.4c-0.1,0.9-0.8,0.8-1.3,0.8
		c-6,0-12,0-18,0c-4.8,0-9.7,0-14.5,0c-0.4,0-1-0.2-1.1,0.2c-0.2,1.1-0.9,0.8-1.5,0.8c-1.9,0-3.8,0-5.6,0c-8.9,0-17.8,0-26.7,0
		c-0.4,0-1.1,0.3-1.1-0.3c-0.1-1-0.8-0.7-1.3-0.7c-7.3,0-14.5,0-21.8,0c-3.6,0-7.3,0-10.9,0c-0.4,0-1,0.2-1-0.4
		c0-0.9-0.6-0.8-1.2-0.8c-6.4,0-12.8,0-19.2,0c-0.2-0.5-0.2-1-0.1-1.5c6.4,0,12.8,0,19.2,0c0.4,0,1.1,0.3,1.1-0.3
		c0.1-1,0.7-0.8,1.2-0.8c4.4,0,8.7,0,13.1,0c6.5,0,13,0,19.5,0c0.4,0,1,0.3,1.1-0.3c0.1-0.9,0.7-0.7,1.2-0.7c2.6,0,5.3,0,7.9,0
		c8.2,0,16.5,0,24.7,0c0.4,0,1.1-0.3,1.1,0.3c0.1,1,0.8,0.7,1.3,0.7c7.5,0,14.9,0,22.4,0c3.4,0,6.8,0,10.2,0c0.4,0,1-0.2,1,0.3
		c0.1,0.9,0.7,0.8,1.3,0.8C174.6,235.4,180.1,235.4,185.5,235.4z"></path>
	<path d="M184.8,242.4c0.1,0.5,0.1,1,0.1,1.5c-0.4,0-0.9,0.1-1.3,0.1c-4.8,0-9.6,0-14.4,0c-0.4,0-1,0-1,0.1
		c-0.5,1.5-1.8,0.9-2.7,0.9c-10.4,0.1-20.8,0-31.3,0c-0.4,0-1.1-0.3-1.1,0.3c-0.1,1-0.8,0.9-1.4,0.9c-1,0-2.1,0-3.1,0
		c-9.8,0-19.6,0-29.3,0c-0.4,0-1.1,0.2-1.2-0.3c-0.1-1.1-0.8-0.8-1.4-0.8c-10.8,0-21.6,0-32.3,0c-0.4,0-1.1,0.2-1.2-0.2
		c-0.2-1-0.9-0.8-1.4-0.8c-6.3,0-12.7,0-19,0c0-0.6-0.1-1.1,0.2-1.6c6.3,0,12.6,0,18.9,0c0.4,0,1.1,0.3,1.2-0.3
		c0.2-1,0.8-0.7,1.3-0.7c6.2,0,12.3,0,18.4,0c4.7,0,9.3,0,14,0c0.4,0,1.1,0.2,1.2-0.3c0.1-1,0.8-0.8,1.4-0.8c9.6,0,19.2,0,28.8,0
		c1.4,0,2.7,0,4.1,0c0.3,0,0.8-0.1,0.8,0.4c0,0.8,0.6,0.7,1.1,0.7c2.2,0,4.3,0,6.5,0c8.7,0,17.4,0,26.1,0c0.4,0,1-0.3,1.2,0.3
		c0.2,0.9,0.8,0.7,1.4,0.7C174.4,242.4,179.6,242.4,184.8,242.4z"></path>
	<path d="M44.1,125c-0.2-0.5-0.3-1-0.2-1.5c0.4,0,0.9-0.1,1.3-0.1c5.5,0,11.1,0,16.7,0c0.4,0,1,0.3,1.1-0.3
		c0.1-0.8,0.7-0.7,1.1-0.7c2.2,0,4.3,0,6.5,0c8.8,0,17.5,0,26.2,0c0.4,0,1.1,0.3,1.1-0.3c0.1-1.1,0.8-0.8,1.3-0.8
		c10.7,0,21.5,0,32.2,0c0.7,0,1.5-0.3,1.6,0.9c0,0.3,0.4,0.2,0.6,0.2c0.5,0,1,0,1.6,0c10.5,0,20.9,0,31.4,0c0.4,0,1.1-0.2,1.2,0.2
		c0.3,1.2,1.1,0.8,1.8,0.8c4.8,0.1,9.7,0.1,14.5,0.1c0,0.4,0,0.7-0.1,1.1c-0.2,0.6-0.8,0.4-1.2,0.4c-4.6,0-9.2,0-13.8,0
		c-0.4,0-1-0.2-1.1,0.2c-0.2,1.1-0.9,0.8-1.6,0.8c-10.6,0-21.2,0-31.7,0c-0.7,0-1.7-0.5-1.8,0.9c0,0.3-0.5,0.2-0.7,0.2
		c-11.1,0-22.2,0-33.3,0c-0.3,0-0.7,0.1-0.8-0.2c-0.1-1.4-1.2-0.9-1.9-0.9c-10.7,0-21.3,0-32,0c-0.4,0-1.1,0.2-1.2-0.3
		c-0.1-1-0.8-0.7-1.3-0.7C55.9,125,50,125,44.1,125z"></path>
	<path d="M184,199.2c0.3,1.2,0.5,2.5,0.4,3.8c-5.1,0-10.2,0-15.3,0.1c-0.4,0-1-0.2-1.1,0.2c-0.2,1.1-0.9,0.8-1.6,0.8
		c-6.9,0-13.8,0-20.7,0c-3.8,0-7.7,0-11.5,0c-0.4,0-1,0.3-1.1-0.3c-0.1-0.8-0.6-0.7-1.1-0.7c-2.8,0-5.7,0-8.5,0
		c-8.1,0-16.1,0-24.2,0c-0.4,0-1,0.2-1.1-0.2c-0.1-1.2-1-0.9-1.7-0.9c-10.6,0-21.3,0-31.9,0c-0.3,0-0.6,0-0.8,0
		c-0.3,0-0.7,0.1-0.7,0.5c0,0.7-0.5,0.6-0.9,0.6c-6,0-11.9,0-17.9,0c0.2-1.4,0.7-2.6,1.3-3.8c0.5,0,1,0.1,1.4,0.1c5,0,9.9,0,14.9,0
		c0.4,0,1-0.2,1,0.3c0.1,1.1,0.8,0.9,1.4,0.9c6.9,0,13.8,0,20.7,0c3.9,0,7.8,0,11.7,0c0.4,0,1,0.2,1.1-0.2c0.1-1.2,0.9-0.9,1.6-0.9
		c10.6,0,21.3,0,31.9,0c0.6,0,1.6,0.4,1.8-0.8c0-0.3,0.5-0.2,0.8-0.2c11.1,0,22.1,0,33.2,0c0.3,0,0.8-0.1,0.9,0.4
		c0.1,0.7,0.6,0.6,1.1,0.6C174,199.3,179,199.3,184,199.2z"></path>
	<path d="M184.2,213.4c0.1,1.2-0.1,2.4-0.4,3.6c-4.9,0-9.8,0-14.7,0c-0.4,0-1.1-0.2-1.1,0.4c-0.1,1-0.8,0.8-1.3,0.8
		c-5.4,0-10.9,0-16.3,0c-5.4,0-10.8,0-16.2,0c-0.4,0-1,0.2-1.1-0.2c-0.2-1.2-1-0.9-1.7-0.9c-10.6,0-21.2,0-31.8,0
		c-0.7,0-1.6,0.4-1.7-0.8c0-0.3-0.5-0.2-0.8-0.2c-11.1,0-22.1,0-33.2,0c-0.3,0-0.8-0.1-0.8,0.2c-0.1,0.9-0.7,0.8-1.3,0.8
		c-6.4,0-12.9,0-19.3,0c-0.2-1.2-0.2-2.4,0-3.6c6.5,0,12.9,0,19.4,0c0.4,0,1-0.2,1,0.3c0.1,1.1,0.9,0.7,1.4,0.7c5.9,0,11.7,0,17.6,0
		c4.9,0,9.9,0,14.9,0c0.4,0,1,0.3,1.1-0.3c0.1-0.8,0.7-0.6,1.1-0.6c5,0,10,0,15,0c5.9,0,11.8,0,17.7,0c0.4,0,1,0.3,1.1-0.3
		c0.1-0.9,0.7-0.7,1.3-0.7c5.1,0,10.1,0,15.2,0c5.8,0,11.5,0,17.3,0c0.4,0,1-0.3,1.1,0.3c0.1,0.9,0.7,0.7,1.3,0.7
		C174.1,213.4,179.1,213.4,184.2,213.4z"></path>
	<path d="M183.5,130c0,1,0,2-0.3,3c-4.8,0-9.5,0-14.3,0c-0.3,0-0.9,0.1-0.9-0.3c-0.1-1.1-0.9-0.7-1.4-0.7
		c-5.4,0-10.9,0-16.3,0c-5.4,0-10.7,0-16.1,0c-0.4,0-1-0.3-1.1,0.3c-0.1,0.8-0.6,0.7-1.1,0.7c-3.6,0-7.3,0-10.9,0
		c-7.3,0-14.5,0-21.8,0c-0.4,0-1.1-0.3-1.1,0.3c-0.1,1.1-0.8,0.8-1.4,0.8c-8.8,0-17.7,0-26.5,0c-2.1,0-4.2,0-6.2,0
		c-0.3,0-0.9,0.2-0.9-0.3c0-1.1-0.8-0.8-1.4-0.9c-5.5,0-11.1,0-16.6,0c-0.3-1.2-0.4-2.4-0.4-3.6c0.5,0,1-0.1,1.4-0.1
		c5.3,0,10.6,0,15.9,0c0.3,0,1,0.2,1-0.3c0.1-1,0.8-0.8,1.4-0.8c10.8,0,21.6,0,32.3,0c0.2,0,0.5,0,0.7,0c0.2,0,0.6,0.1,0.6,0.3
		c0,1,0.7,0.8,1.3,0.8c6.5,0,13,0,19.5,0c4.3,0,8.7,0,13.1,0c0.4,0,1-0.2,1.1,0.2c0.2,1.1,0.9,0.8,1.5,0.8c10.4,0,20.9,0,31.3,0
		c0.8,0,2,0.6,2.3-0.9c0-0.1,0.4-0.1,0.6-0.1c4.7,0,9.4,0,14.1,0C183.2,129.4,183.5,129.5,183.5,130z"></path>
	<path d="M45.5,161.1c-0.3-1.2,0-2.4,0.1-3.6c0.4,0,0.7-0.1,1.1-0.1c5.1,0,10.2,0,15.2,0c0.4,0,1.1,0.3,1.1-0.3
		c0.1-1,0.7-0.8,1.3-0.8c5.6,0,11.2,0,16.8,0c5.3,0,10.6,0,15.8,0c0.4,0,1-0.2,1.1,0.2c0.1,1.3,1,0.9,1.7,0.9c10.7,0,21.4,0,32.1,0
		c0.4,0,1.1-0.2,1.2,0.2c0.2,1.1,0.9,0.8,1.5,0.8c6.2,0,12.5,0,18.7,0c4.5,0,9,0,13.6,0c0.4,0,1,0.3,1.1-0.3
		c0.1-0.8,0.6-0.7,1.1-0.7c4.7,0,9.4,0,14.1,0c0,1.2-0.1,2.4-0.4,3.6c-4.6,0-9.2,0-13.8,0c-0.4,0-1,0.2-1.1-0.4
		c-0.1-0.7-0.5-0.6-0.9-0.6c-11,0-22,0-33.1,0c-0.3,0-0.8-0.1-0.8,0.3c-0.1,1-0.8,0.7-1.3,0.7c-6.8,0-13.5,0-20.2,0
		c-4.2,0-8.3,0-12.5,0c-0.3,0-1-0.2-1,0.4c0,0.9-0.6,0.8-1.1,0.8c-4.2,0-8.5,0-12.7,0c-6.7,0-13.3,0-20,0c-0.4,0-1.1,0.3-1.1-0.3
		c-0.1-1.1-0.8-0.8-1.3-0.8C56.3,161.1,50.9,161.1,45.5,161.1z"></path>
	<path d="M182.9,136.4c0.1,1.2-0.1,2.5-0.2,3.7c-4.6,0-9.3,0-13.9,0c-0.3,0-0.8,0.1-0.8-0.3c-0.1-1.1-0.9-0.8-1.5-0.8
		c-8.4,0-16.9,0-25.3,0c-2.4,0-4.8,0-7.2,0c-0.3,0-0.9-0.2-0.9,0.3c-0.1,1.1-0.9,0.8-1.5,0.8c-1.4,0-2.7,0-4.1,0
		c-9.4,0-18.8,0-28.3,0c-0.4,0-1.1-0.3-1.2,0.3c-0.2,1-0.8,0.7-1.3,0.7c-6.8,0-13.6,0-20.4,0c-4.1,0-8.1,0-12.2,0
		c-0.4,0-1,0.2-1.1-0.2c-0.1-1-0.8-0.8-1.4-0.8c-5.4,0-10.8,0-16.2-0.1c-0.1-1.2-0.1-2.4-0.2-3.7c0.4,0,0.7-0.1,1.1-0.1
		c5.2,0,10.3,0,15.5,0c0.4,0,1.1,0.3,1.2-0.4c0.1-0.7,0.5-0.6,1-0.6c1.8,0,3.6,0,5.4,0c9.2,0,18.3,0,27.4,0c0.4,0,1.1-0.3,1.1,0.3
		c0.1,1,0.8,0.7,1.3,0.7c4.6,0,9.3,0,13.9,0c6.2,0,12.4,0,18.6,0c0.4,0,1.1-0.2,1.1,0.3c0.1,1,0.8,0.8,1.4,0.8c4.7,0,9.4,0,14.1,0
		c6.1,0,12.1,0,18.2,0c0.4,0,1.1,0.3,1.2-0.4c0.1-0.7,0.5-0.7,1-0.7C173.6,136.4,178.2,136.4,182.9,136.4z"></path>
	<path d="M182.6,143.4c0,1,0,2.1,0,3.1c-0.1,0.4-0.3,0.6-0.8,0.6c-4.4,0-8.7,0-13.1,0c-0.3,0-0.8,0.1-0.8-0.4
		c-0.1-1-0.7-0.8-1.3-0.8c-6.9,0-13.9,0-20.9,0c-3.9,0-7.8,0-11.6,0c-0.4,0-1-0.2-1.1,0.2c-0.1,1.1-0.9,0.9-1.6,0.9
		c-10.7,0-21.5,0-32.2,0c-0.4,0-1.1-0.2-1.2,0.3c-0.2,1.1-0.9,0.8-1.4,0.8c-4.5,0-9,0-13.5,0c-6.3,0-12.6,0-18.9,0
		c-0.4,0-1,0.2-1.1-0.2c-0.1-1.1-0.9-0.8-1.5-0.8c-5.3,0-10.7-0.1-16-0.1c-0.1-1.2-0.1-2.4,0-3.6c0.4,0,0.7-0.1,1.1-0.1
		c5.1,0,10.1,0,15.2,0c0.4,0,1,0.3,1.1-0.4c0.1-0.8,0.7-0.7,1.1-0.7c2.3,0,4.6,0,6.9,0c8.6,0,17.2,0,25.8,0c0.4,0,1.1-0.3,1.1,0.3
		c0.1,0.9,0.7,0.7,1.2,0.7c5.9,0,11.9,0,17.8,0c4.9,0,9.8,0,14.7,0c0.4,0,1.1-0.2,1.1,0.3c0.1,1,0.8,0.8,1.4,0.8c10.7,0,21.3,0,32,0
		c0.7,0,1.6,0.4,1.7-0.9c0-0.3,0.5-0.2,0.7-0.2C173.4,143.3,178,143.4,182.6,143.4z"></path>
	<path d="M43.2,224c-0.3-1.2-0.3-2.4-0.3-3.6c6.4,0,12.8,0,19.2,0c0.4,0,1-0.2,1,0.3c0,1,0.7,0.8,1.3,0.8
		c4.8,0,9.6,0,14.4,0c6.1,0,12.1,0,18.2,0c0.4,0,1.1,0.3,1.1-0.3c0.1-1,0.7-0.8,1.3-0.8c4.6,0,9.3,0,13.9,0c6.2,0,12.5,0,18.7,0
		c0.4,0,1,0.2,1.1-0.2c0.2-1.2,1-0.8,1.6-0.8c1.4,0,2.9,0,4.3,0c9.3,0,18.5,0,27.8,0c0.4,0,1.1-0.2,1.1,0.3c0.2,0.9,0.8,0.7,1.3,0.7
		c4.8,0,9.5,0,14.3,0c-0.1,1.3,0.7,2.4,0.7,3.6c-4.9,0-9.8,0-14.6,0c-0.7,0-1.6-0.3-1.7,0.9c0,0.3-0.5,0.2-0.7,0.2
		c-11.1,0-22.1,0-33.2,0c-0.3,0-0.8,0.1-0.8-0.3c-0.1-1.1-0.9-0.8-1.5-0.9c-4.7,0-9.3,0-14,0c-6.1,0-12.2,0-18.3,0
		c-0.4,0-1,0.3-1.1-0.3c-0.1-0.8-0.6-0.7-1.1-0.7c-4.4,0-8.9,0-13.3,0c-6.5,0-12.9,0-19.4,0c-0.4,0-1-0.2-1.1,0.2
		c-0.2,1.1-1,0.8-1.5,0.8C55.5,224,49.3,224,43.2,224z"></path>
	<path d="M45.8,169.1c-0.3-2-0.4-3.9-0.3-5.9c5.5,0,11,0,16.4,0c0.4,0,1.1-0.3,1.1,0.4c0,1,0.7,0.8,1.3,0.8
		c5.1,0,10.2,0,15.2,0c5.8,0,11.6,0,17.4,0c0.4,0,1-0.2,1.1,0.2c0.2,1.1,0.9,0.8,1.5,0.8c5.5,0,10.9,0,16.4,0c5.3,0,10.6,0,15.9,0
		c0.4,0,1,0.2,1.1-0.2c0.2-1.1,0.9-0.8,1.5-0.8c4.7,0,9.4,0,14,0c6.1,0,12.1,0,18.2,0c0.4,0,1.1,0.3,1.2-0.4
		c0.1-0.8,0.6-0.7,1.1-0.7c4.6,0,9.1,0,13.7,0c0,2,0.3,3.9,0.1,5.9c-4.6,0-9.2,0-13.8,0c-0.3,0-0.9,0.1-0.9-0.3
		c-0.1-1.1-0.9-0.8-1.5-0.8c-8.7,0-17.4,0-26.1,0c-2.1,0-4.2,0-6.4,0c-0.4,0-0.9,0.2-1-0.4c-0.1-0.7-0.5-0.6-0.9-0.6
		c-11.1,0-22.1,0-33.2,0c-0.3,0-0.8-0.1-0.8,0.3c-0.1,1-0.8,0.7-1.3,0.7c-6.6,0-13.2,0-19.8,0c-4.3,0-8.6,0-12.9,0
		c-0.4,0-1-0.3-1,0.5c0,0.8-0.5,0.6-1,0.6C56.7,169.1,51.2,169.1,45.8,169.1z"></path>
	<path d="M45.8,183.1c-0.2-1.9-0.3-3.8-0.2-5.7c5.5,0,11,0,16.5,0c0.3,0,0.8-0.1,0.8,0.3c0.1,1.1,0.8,0.8,1.4,0.8
		c5.9,0,11.9,0,17.9,0c4.9,0,9.8,0,14.6,0c0.4,0,1.1-0.3,1.1,0.4c0.1,0.8,0.5,0.7,1,0.7c11,0,22,0,33,0c0.3,0,0.8,0.1,0.9-0.2
		c0.2-1.5,1.4-0.9,2.1-0.9c10.6,0,21.1,0,31.6,0c0.4,0,1.1,0.3,1.1-0.3c0.2-0.9,0.8-0.7,1.3-0.7c4.4,0,8.9,0,13.3,0
		c0.1,1.9,0.3,3.9,0.2,5.8c-4.6,0-9.1,0-13.7,0c-0.4,0-1,0.2-1-0.3c-0.1-0.9-0.8-0.7-1.3-0.7c-1.4,0-2.7,0-4.1,0
		c-9.4,0-18.9,0-28.3,0c-0.4,0-1.1,0.3-1.2-0.4c-0.1-0.9-0.7-0.7-1.2-0.7c-3.9,0-7.8,0-11.6,0c-7,0-14,0-21,0
		c-0.4,0-1.1-0.3-1.1,0.3c-0.1,1.1-0.8,0.8-1.4,0.8c-10.8,0-21.5,0-32.2,0c-0.6,0-1.4-0.3-1.5,0.8c0,0.3-0.5,0.2-0.7,0.2
		C56.8,183.1,51.3,183.1,45.8,183.1z"></path>
	<path d="M182.7,184.3c-0.1,1.9-0.1,3.9-0.2,5.8c-4.5,0-8.9,0-13.4,0c-0.4,0-1,0.2-1.1-0.3c-0.1-1.1-0.9-0.7-1.4-0.7
		c-10.7,0-21.4,0-32.1,0c-0.6,0-1.4,0.3-1.5-0.8c0-0.4-0.5-0.3-0.8-0.3c-11.1,0-22.1,0-33.2,0c-0.3,0-0.8-0.1-0.8,0.3
		c0,1.1-0.8,0.8-1.4,0.8c-8.4,0-16.8,0-25.2,0c-2.5,0-4.9,0-7.4,0c-0.3,0-0.9-0.2-1,0.4c-0.1,0.7-0.5,0.6-0.9,0.6
		c-5.4,0-10.8,0-16.2,0c-0.3-1.9-0.5-3.8-0.1-5.7c5.5,0,11-0.1,16.5-0.1c0.2,0,0.6,0,0.6,0.3c0,1,0.8,0.7,1.3,0.7
		c7.2,0,14.5,0,21.7,0c3.7,0,7.3,0,11,0c0.4,0,1-0.2,1,0.5c0,0.7,0.4,0.6,0.9,0.6c1.8,0,3.5,0,5.3,0c9.2,0,18.4,0,27.6,0
		c0.4,0,1.1,0.2,1.2-0.3c0.2-1.2,1-0.8,1.6-0.8c10.7,0,21.4,0,32.1,0c0.4,0,1.1,0.2,1.2-0.3c0.2-0.9,0.8-0.7,1.3-0.7
		C173.6,184.3,178.1,184.3,182.7,184.3z"></path>
	<path d="M45.5,176.1c-0.2-2,0.1-3.9,0.3-5.9c5.4,0,10.9,0,16.3,0c0.3,0,0.9-0.1,0.9,0.3c0,1,0.7,0.8,1.2,0.8
		c4.6,0,9.1,0,13.7,0c6.3,0,12.6,0,18.9,0c0.4,0,1-0.3,1.1,0.3c0.1,0.9,0.7,0.7,1.2,0.7c5.9,0,11.8,0,17.7,0c4.9,0,9.9,0,14.9,0
		c0.4,0,1,0.3,1.1-0.3c0.1-0.8,0.6-0.7,1.1-0.7c2.9,0,5.8,0,8.6,0c8,0,16,0,24,0c0.4,0,1.1,0.3,1.2-0.4c0.1-0.7,0.5-0.7,1-0.7
		c4.6,0,9.2,0,13.8,0c-0.1,2-0.1,3.9-0.2,5.9c-4.5,0-8.9,0-13.4,0c-0.4,0-1,0.2-1-0.3c-0.1-1.1-0.9-0.8-1.5-0.8c-1.4,0-2.7,0-4.1,0
		c-9.4,0-18.8,0-28.2,0c-0.4,0-1.1,0.3-1.2-0.4c-0.1-0.7-0.5-0.6-0.9-0.6c-11.1,0-22.1,0-33.2,0c-0.3,0-0.8-0.1-0.8,0.3
		c-0.1,1-0.8,0.7-1.3,0.7c-7.8,0-15.7,0-23.6,0c-3,0-6.1,0-9.1,0c-0.4,0-1-0.2-1,0.4c0,0.9-0.6,0.8-1.1,0.8
		C56.5,176.1,51,176.1,45.5,176.1z"></path>
	<path d="M45.6,154.1c-0.1-1.2-0.1-2.4,0-3.6c0.5,0,1,0,1.4-0.1c5,0,9.9,0,14.9,0c0.4,0,1.1,0.3,1.1-0.3
		c0.1-1.1,0.8-0.8,1.4-0.8c10.8,0,21.6,0,32.3,0c0.3,0,0.6,0,0.8,0c0.2,0,0.5,0,0.5,0.3c0,1.1,0.8,0.9,1.4,0.9c10.8,0,21.6,0,32.3,0
		c0.4,0,1.1-0.2,1.2,0.3c0.2,1.1,0.9,0.7,1.4,0.7c10.5,0,20.9,0,31.4,0c0.8,0,2,0.6,2.3-0.9c0-0.1,0.4-0.1,0.7-0.1
		c4.6,0,9.2,0,13.8,0c0.1,1.2,0.3,2.4,0.4,3.6c-4.7,0-9.4,0-14,0c-0.3,0-0.9,0.1-0.9-0.3c-0.1-0.9-0.7-0.7-1.3-0.7c-2.7,0-5.4,0-8,0
		c-8.1,0-16.3,0-24.4,0c-0.4,0-1-0.2-1.1,0.2c-0.2,1.2-1,0.8-1.6,0.8c-10.7,0-21.5,0-32.2,0c-0.4,0-1.1-0.3-1.1,0.3
		c-0.1,1-0.8,0.7-1.3,0.7c-7.8,0-15.7,0-23.5,0c-3.1,0-6.2,0-9.2,0c-0.3,0-0.9,0.2-0.9-0.3c-0.1-1.1-0.8-0.8-1.4-0.8
		C56.3,154.1,51,154.1,45.6,154.1z"></path>
	<path d="M182.5,191.3c0.3,1.9,1,3.8,1.1,5.8c-4.9,0-9.9,0-14.9,0c-0.3,0-0.8,0.1-0.9-0.4c-0.1-0.8-0.7-0.6-1.1-0.6
		c-5.1,0-10.1,0-15.2,0c-5.8,0-11.6,0-17.4,0c-0.4,0-1,0.3-1.1-0.3c-0.1-0.9-0.8-0.7-1.3-0.7c-5.6,0-11.2,0-16.8,0
		c-5.3,0-10.5,0-15.8,0c-0.4,0-1-0.3-1.1,0.3c-0.1,0.8-0.6,0.7-1.1,0.7c-2.1,0-4.2,0-6.2,0c-8.8,0-17.7,0-26.5,0
		c-0.4,0-1-0.3-1.1,0.3c-0.1,0.9-0.7,0.7-1.2,0.7c-3.3,0-6.6,0-9.9,0c-2.1,0-4.2,0.1-6.3-0.1c-0.3-1.9,0-3.8,0.4-5.7
		c5.4,0,10.8,0,16.2,0c0.3,0,0.8-0.1,0.8,0.3c0,1.1,0.8,0.8,1.4,0.8c7.5,0,15,0,22.5,0c3.3,0,6.7,0,10.1,0c0.3,0,0.9-0.2,1,0.4
		c0.1,0.9,0.7,0.6,1.1,0.6c4.6,0,9.3,0,13.9,0c6.3,0,12.5,0,18.8,0c0.4,0,1,0.2,1.1-0.2c0.2-1.2,1-0.8,1.6-0.8c10.6,0,21.2,0,31.7,0
		c0.7,0,1.6,0.4,1.7-0.9c0-0.4,0.5-0.2,0.9-0.2C173.4,191.3,177.9,191.3,182.5,191.3z"></path>
	<path d="M44.9,283.3c5.7,0,11.4,0,17,0c0.5,0,1.1,0.2,1.2-0.7c0.1-0.6,0.7-0.3,1.1-0.3c7.7,0,15.4,0,23.1,0
		c3.2,0,6.4,0,9.6,0c0.5,0,1-0.2,1.1,0.7c0.1,0.6,0.7,0.3,1.1,0.4c4.2,0,8.5,0,12.7,0c6.6,0,13.2,0,19.8,0c0.6,0,1.3-0.2,1.4,0.8
		c0.1,0.6,0.7,0.3,1.1,0.3c8.6,0,17.2,0,25.8,0c2.3,0,4.6,0,6.8,0c0.5,0,1,0.2,1.1-0.7c0.1-0.6,0.7-0.5,1.1-0.5c5.3,0,10.6,0,15.9,0
		c-2.5,0.9-5.2,1-7.8,1.3c-9.3,1.1-18.7,1-28.1,1.2c-10.9,0.3-21.7,0.7-32.6,0.7c-13,0-25.9-0.8-38.9-0.9c-7.2,0-14.5-0.1-21.7-0.8
		C52.2,284.5,48.5,284.3,44.9,283.3z"></path>
	<path d="M87.8,16.3c1,0.4,1.6,1.4,2.4,2.1c1.5,1.2,2.9,2.4,4.6,3.8c-4.8,0-9.5,0-14.1,0c0-0.5,0.5-0.5,0.7-0.8
		c1.9-1.6,3.8-3.1,5.7-4.7C87.3,16.5,87.5,16.3,87.8,16.3z"></path>
	<path d="M144.8,20c-2.8,0.1-5.6,0.1-8.6-0.1c0.7-0.9,1.3-1.6,2.4-1.5c1.4,0.1,2.9,0,4.3,0
		C143.7,18.8,144.3,19.3,144.8,20z"></path>
	<path d="M196.6,44.6c0,0.1-0.1,0.1,0,0.2c-0.3,0.4-0.2,0.8-0.2,1.2c0,0.1,0,0.1,0,0.2c-0.3,0.5-0.2,1-0.2,1.4
		c0,0.2-0.1,0.3-0.1,0.5c-0.3,0.4-0.2,0.8-0.2,1.3c0,0.2,0,0.4-0.1,0.7c-0.1,0-0.1,0.1-0.2,0.1c-8.8,0-17.6,0-26.3,0
		c-0.6,0-1.4,0.3-1.5-0.8c-0.1-0.5-0.8-0.3-1.2-0.3c-10.6,0-21.2,0-31.9,0c-0.7,0-1.7,0.5-2-0.9c-0.1-0.4-0.7-0.2-1.1-0.2
		c-8.3,0-16.6,0-24.9,0c-2.8,0-5.7,0-8.5,0c-0.1,0-0.2,0-0.2,0.2c0.1,1-0.6,0.9-1.3,0.9c-10.8,0-21.6,0-32.5,0
		c-0.6,0-1.3-0.3-1.4,0.8c0,0.5-0.7,0.3-1,0.3c-4.8,0-9.5,0-14.3,0c-5.2,0-10.4,0-15.6,0c-0.1,0-0.3,0-0.4,0c0-0.1-0.1-0.2-0.1-0.3
		c0-0.1,0.1-0.1,0-0.2c0-0.1,0.1-0.1,0-0.2c0.2-0.3,0.2-0.5,0-0.8c0-0.1,0-0.2,0-0.2c0-0.5,0.1-1-0.2-1.5c0-0.2,0-0.3,0-0.5
		c0-0.4,0.1-0.8-0.2-1.2c-0.1-0.8,0.2-1,1-1c10,0,19.9,0,29.8,0c0.5,0,1-0.1,1.1,0.7c0.1,0.6,0.7,0.3,1.1,0.3c6.3,0,12.7,0,19,0
		c4.6,0,9.1,0,13.7,0c0.5,0,1-0.2,1.2,0.6c0.1,0.6,0.7,0.3,1.1,0.3c3.7,0,7.4,0,11.1,0c7.2,0,14.3,0,21.5,0c0.5,0,1.1,0.2,1.3-0.7
		c0.1-0.6,0.7-0.3,1.1-0.3c5.5,0,11,0,16.5,0c5.3,0,10.5,0,15.8,0c0.6,0,1.3,0.3,1.4-0.8c0-0.3,0.4-0.3,0.7-0.3c9.3,0,18.6,0,27.9,0
		C196.6,44.5,196.6,44.6,196.6,44.6z"></path>
	<path d="M32.6,57.1c0-0.1,0-0.2,0-0.2c0-1.7-0.1-3.4-0.5-5c0-0.6,0.5-0.5,0.9-0.5c9.7,0,19.5,0,29.2,0
		c0.3,0,0.7-0.1,0.8,0.2c0.1,1.3,1.1,0.8,1.7,0.8c10.7,0,21.5,0,32.2,0c0.7,0,1.3-0.1,1.2,0.9c0,0.1,0.1,0.2,0.2,0.2
		c2.5,0,5,0,7.5,0c8.7,0,17.3,0,26,0c0.6,0,1.2,0.2,1.3-0.8c0-0.6,0.7-0.3,1.1-0.3c5.4,0,10.9,0,16.3,0c5.4,0,10.7,0,16.1,0
		c0.6,0,1.3,0.3,1.4-0.8c0-0.4,0.5-0.2,0.8-0.2c8.7,0,17.4,0,26.1,0c0.6,0,0.9,0.2,1,0.8c0,0.2,0,0.3,0.1,0.4
		c-0.3,0.8-0.6,1.5-0.6,2.4c-0.3,0.6-0.2,1.3-0.1,1.9c-0.3,0.5-0.8,0.3-1.2,0.3c-8.3,0-16.7,0-25,0c-0.5,0-1.1,0.1-1.2-0.7
		c-0.1-0.5-0.8-0.3-1.1-0.3c-10.7,0-21.4,0-32.1,0c-0.6,0-1.4,0.3-1.7-0.8c-0.1-0.4-0.7-0.2-1.1-0.2c-10-0.2-20,0-30.1-0.1
		c-0.9,0-1.8,0-2.6,0c-0.5,0-1.1-0.2-1.1,0.7c0,0.4-0.3,0.4-0.6,0.4c-0.3,0-0.6,0-1,0c-10.6,0-21.2,0-31.7,0c-0.5,0-1,0-1.4,0
		c-0.2,0-0.2,0.1-0.2,0.2c0,0.8-0.4,0.8-1,0.8c-3.3,0-6.6,0-9.9,0c-6.5,0-12.9,0-19.4,0C32.8,57.1,32.7,57.1,32.6,57.1z"></path>
	<path d="M196.9,42.9c-0.4,0.4-0.8,0.3-1.2,0.3c-8.8,0-17.7,0-26.5,0c-0.6,0-1.3,0.2-1.4-0.8c-0.1-0.5-0.8-0.3-1.2-0.3
		c-8.1,0-16.3,0-24.4,0c-2.7,0-5.4,0-8,0c-0.5,0-1.1,0.2-1.2-0.7c-0.1-0.6-0.8-0.3-1.1-0.3c-9.2,0-18.3,0-27.4,0c-1.8,0-3.6,0-5.4,0
		c-0.4,0-0.9-0.1-0.9,0.6c-0.1,0.8-0.8,0.4-1.2,0.4c-7.3,0-14.7,0-22.1,0c-3.5,0-7,0-10.6,0c-0.6,0-1.2-0.2-1.3,0.8
		c0,0.6-0.7,0.3-1.1,0.3c-8.7,0-17.4,0-26.1,0c-1.3,0-2.6,0-4,0c-0.6,0-1-0.1-1.1-0.8c-0.1-0.6-0.1-1.1,0.6-1.4
		c5.1-1.8,10-4,15.6-3.7c5,0.2,10,0,15,0c0.5,0,1.1-0.2,1.2,0.7c0.1,0.6,0.7,0.3,1.1,0.3c8.4,0,16.9,0,25.3,0c2.5,0,4.9,0,7.4,0
		c0.5,0,1-0.1,1.1,0.7c0.1,0.6,0.7,0.3,1.1,0.3c7,0,14,0,21,0c3.9,0,7.8,0,11.6,0c0.5,0,1.1,0.2,1.3-0.7c0.1-0.6,0.7-0.3,1.1-0.3
		c8.1,0,16.3,0,24.4,0c2.7,0,5.4,0,8.1,0c0.5,0,1.1,0.1,1.1-0.7c0-0.4,0.5-0.3,0.8-0.3c4.5,0,9-0.1,13.4,0.1c2.7,0.1,5.4,1.2,8,2
		c1.9,0.5,3.8,1.2,5.7,1.8c0.5,0.2,1.1,0.3,1.2,1C196.9,42.4,196.9,42.7,196.9,42.9z"></path>
	<path d="M32.9,59.3c9.7,0,19.3,0,29,0c0.5,0,1.2-0.3,1.2,0.7c0,0.2-0.1,0.3,0.2,0.4c0.4,0,0.7,0.1,1.1,0.1
		c10.8,0,21.6,0,32.4,0c0.4,0,0.7,0,1.1-0.1c0.3,0,0.2-0.2,0.2-0.4c0-0.9,0.7-0.7,1.2-0.7c7.1,0,14.3,0,21.4,0c4.1,0,8.1,0,12.2-0.1
		c0.1,0,0.2-0.1,0.1-0.2c0-0.6,0.3-0.8,0.9-0.8c1.2,0,2.4,0,3.6,0c9.8,0,19.5,0,29.3,0c0.5,0,1.2-0.3,1.4,0.7
		c0.1,0.6,0.8,0.3,1.3,0.3c8.2,0,16.4,0,24.6,0c0.5,0,1.1-0.3,1.3,0.5c0,0.4,0,0.8,0,1.2c0,0.1,0,0.2,0,0.3c-0.4,0.6,0,1.3-0.3,1.9
		c-8.6,0-17.3,0-25.9,0c-0.3,0-0.9-0.2-0.9,0.3c-0.1,1-0.9,0.7-1.4,0.7c-7.5,0-15,0-22.5,0c-3.4,0-6.7,0-10.1,0
		c-0.4,0-0.9,0.2-1-0.4c-0.1-0.8-0.6-0.7-1.1-0.7c-3.9,0-7.9,0-11.9,0c-6.9,0-13.9,0-20.8,0c-0.4,0-1.1,0.3-1.1-0.3
		c-0.1-1-0.7-0.8-1.3-0.8c-6.7,0-13.3,0-20,0c-4.2,0-8.5,0-12.7,0c-0.4,0-1-0.3-1,0.5c0,0.8-0.6,0.6-1,0.6c-2,0-4.1,0-6.1,0
		c-7.5,0-15.1,0-22.6,0c-0.2-0.2-0.3-0.4-0.5-0.7l0-0.1c-0.1-0.4-0.2-0.8-0.2-1.2c0-0.2,0-0.3,0.1-0.5C33,60.3,32.8,59.8,32.9,59.3z
		"></path>
	<path d="M63.3,74.4c6.8,0,13.5,0,20.3,0c4.7,0,9.5,0,14.2-0.1c0.2,0,0.2-0.1,0.2-0.2c0-0.8,0.4-0.8,1-0.8
		c2.1,0,4.2,0,6.2,0c8.8,0,17.7,0,26.5,0c0.6,0,1.3,0.2,1.4-0.8c0-0.6,0.7-0.3,1.1-0.3c7.1,0,14.2,0,21.3,0c3.8,0,7.5,0,11.3,0
		c0.5,0,1.1-0.2,1.2,0.7c0.1,0.7,0.7,0.4,1.1,0.4c3.4,0,6.9,0,10.3,0c4.7,0,9.4,0,14,0c1,0,1.4,0.3,1.2,1.3c0,0.2,0,0.4,0,0.6
		c-0.2,1.7-0.3,1.8-2.1,1.8c-7.8,0-15.5,0-23.3,0c-0.6,0-1.3-0.2-1.4,0.8c-0.1,0.5-0.7,0.3-1.1,0.3c-5.1,0-10.2,0-15.3,0
		c-5.8,0-11.5,0-17.3,0c-0.5,0-1.2,0.2-1.2-0.7c0-0.5-0.5-0.4-0.9-0.4c-1.7,0-3.4,0-5.2,0c-9.2,0-18.5,0-27.7,0
		c-0.5,0-1.2,0.3-1.3-0.7c0-0.4-0.5-0.3-0.8-0.3c-11.1,0-22.1,0-33.2,0c-0.4,0-0.9-0.1-0.9,0.6c-0.1,0.7-0.7,0.4-1.1,0.4
		c-3.4,0-6.8,0-10.2,0c-5.7,0-11.4,0-17.1,0c-0.9,0-1.2-0.2-1.4-1.1c-0.5-2.5-0.6-2.5,2-2.5c8.9,0,17.7,0,26.6,0
		c0.5,0,1.3-0.3,1.3,0.8C63.1,74.3,63.1,74.4,63.3,74.4z"></path>
	<path d="M194.9,66.5c0,0.7,0,1.4,0,2.2c0.1,1.1-0.2,1.5-1.4,1.5c-7.1-0.1-14.2,0-21.3,0c-1,0-2.1,0-3.1,0
		c-0.5,0-1.1-0.2-1.1,0.7c-0.1,0.5-0.6,0.4-0.9,0.4c-1.1,0-2.2,0-3.2,0c-9.8,0-19.6,0-29.5,0c-0.6,0-1.3,0.3-1.4-0.8
		c-0.1-0.5-0.8-0.3-1.2-0.3c-10.7,0-21.3,0-32,0c-0.7,0-1.7,0.5-1.8-0.8c0-0.3-0.5-0.2-0.8-0.2c-11.1,0-22.1,0-33.2,0
		c-0.4,0-0.8-0.1-0.9,0.6c-0.1,0.7-0.7,0.4-1.1,0.4c-5.7,0-11.4,0-17.1,0c-3.9,0-7.8,0-11.7,0c-0.1-1.3-0.3-2.6,0.2-3.8
		c0.5,0,1,0.1,1.4,0.1c5.9,0,11.7,0,17.6,0c3.2,0,6.4,0,9.6,0c0.4,0,1-0.3,1.1,0.4c0.1,0.7,0.5,0.6,0.9,0.6c11.1,0,22.1,0,33.2,0
		c0.3,0,0.8,0.1,0.8-0.3c0.1-1.1,0.9-0.7,1.4-0.7c10.7,0,21.4,0,32.1,0c0.6,0,1.5,0.3,1.6-0.9c0-0.4,0.5-0.3,0.8-0.3
		c11,0,22,0,33.1,0c0.3,0,0.8-0.1,0.8,0.3c0.1,0.9,0.8,0.8,1.4,0.8c8,0,16.1,0.1,24.1,0.1c0.5,0,0.9-0.1,1.4-0.1
		C194.8,66.4,194.8,66.4,194.9,66.5z"></path>
	<path d="M97.8,83.1c-1.7,0-3.3-0.1-5-0.1c-9.4,0-18.7,0-28.1,0c-0.5,0-1,0-1.4,0.1c-0.1,0-0.2,0.1-0.2,0.2
		c0,0.8-0.5,0.8-1.1,0.8c-3.4,0-6.9,0-10.3,0c-5.1,0-10.1-0.1-15.2,0.1c-0.1-0.1-0.2-0.1-0.3-0.2c0-1-0.5-1.8-0.9-2.7
		c-0.3-0.6-0.4-0.9,0.5-0.9c8.8,0,17.7,0,26.5,0c0.3,0,0.7-0.1,0.7,0.2c0.1,1.1,0.9,0.8,1.5,0.8c10.7,0,21.5,0,32.2,0
		c0.6,0,1.3,0.3,1.4-0.8c0-0.4,0.6-0.3,0.9-0.3c2.8,0,5.7,0,8.5,0c8,0,16.1,0,24.1,0c0.6,0,1.4,0.3,1.5-0.8c0.1-0.5,0.8-0.3,1.2-0.3
		c10.2,0,20.4,0,30.7,0c0.6,0,1.3,0,1.9,0c0.6,0,1.1-0.1,1.2,0.8c0.1,0.6,0.7,0.3,1.1,0.3c7.6,0,15.3,0,22.9,0c1.6,0,1.6,0,1.1,1.6
		c-0.8,2.2-0.8,2.2-3.1,2.2c-6.9,0-13.7,0-20.6,0c-0.6,0-1.4-0.2-1.6,0.8c-0.1,0.3-0.6,0.2-0.9,0.2c-11,0-22.1,0-33.1,0
		c-0.4,0-0.9,0.1-0.9-0.6c0-0.4-0.4-0.4-0.7-0.5c-0.7,0-1.4-0.1-2-0.1c-10.3,0-20.7,0-31,0c-0.6,0-1.3,0.2-1.3-0.8
		C98,83.1,98,83.1,97.8,83.1z"></path>
	<path d="M38.9,91.1c-0.4-1.2-0.8-2.5-1.2-3.7l0,0c8.1,0,16.1,0,24.2,0c0.5,0,1.2-0.2,1.2,0.8c0,0.4,0.5,0.3,0.8,0.3
		c8.3-0.1,16.7,0.1,25-0.1c2.7-0.1,5.3,0,8,0c0.5,0,1,0.2,1.1-0.7c0.1-0.6,0.7-0.3,1.1-0.3c4.5,0,8.9,0,13.4,0c6.3,0,12.7,0,19.1,0
		c0.6,0,1.3,0.3,1.4-0.8c0-0.4,0.5-0.3,0.8-0.3c11,0,22.1,0,33.1,0c0.3,0,0.7-0.1,0.8,0.2c0.2,1.3,1.2,0.8,1.9,0.8
		c6.6,0,13.1,0,19.6,0c1.6,0,1.6,0,1.1,1.6c0,0.1-0.1,0.2-0.1,0.3c-0.2,0.2-0.2,0.4-0.2,0.7l0,0c-0.2,0.1-0.2,0.3-0.2,0.5
		c0,0.1-0.1,0.2-0.1,0.2c-0.1,0.2-0.3,0.3-0.5,0.5c-6.6,0-13.2,0-19.8,0c-0.7,0-1.6-0.4-1.8,0.8c0,0.3-0.5,0.2-0.8,0.2
		c-11.1,0-22.1,0-33.2,0c-0.3,0-0.8,0.1-0.8-0.2c-0.1-1-0.8-0.8-1.4-0.8c-6.3,0-12.6,0-18.9,0c-4.5,0-9,0-13.5,0
		c-0.4,0-1.1,0.3-1.1-0.3c-0.1-1-0.7-0.8-1.3-0.8c-5.6,0-11.3,0-16.9,0c-5.2,0-10.5,0-15.7,0c-0.4,0-1-0.2-1.1,0.2
		c-0.1,1.3-1,0.9-1.7,0.9c-7.5,0-14.9,0-22.4,0.1C39,91.1,39,91.1,38.9,91.1z"></path>
	<path d="M62.8,97c-7.1,0-14.2,0-21.3-0.1c-0.4,0-1.1,0.3-1.2-0.5c0-0.3,0-0.7,0-1.1c7.3,0,14.7,0,22,0.1
		c0.3,0,0.7,0.1,0.7-0.3c0-1.1,0.7-0.8,1.3-0.8c1,0,2.1,0,3.1,0c9.8,0,19.6,0,29.4,0c0.4,0,1.1,0.3,1.2-0.4c0.1-0.7,0.5-0.6,0.9-0.6
		s0.9,0,1.3,0c10.5,0,21,0,31.5,0c0.4,0,1.1-0.2,1.2,0.3c0.1,1,0.8,0.7,1.3,0.7c4.9,0,9.8,0,14.6,0c5.9,0,11.9,0,17.9,0
		c0.4,0,1.1-0.2,1.1,0.3c0.1,0.9,0.8,0.7,1.3,0.7c6.4,0,12.7,0,19.1,0c0,0.3,0,0.7,0,1l0,0c-0.1,0.2-0.3,0.4-0.5,0.6
		c-6.4,0-12.7,0-19.1-0.1c-0.2,0-0.6-0.1-0.6,0.2c-0.4,1.5-1.6,0.9-2.4,0.9c-10.3,0.1-20.6,0-30.9,0.1c-0.7,0-1.5-0.4-1.8,0.8
		c-0.1,0.4-0.8,0.2-1.2,0.2c-9.1,0-18.2,0-27.3,0c-1.8,0-3.6,0-5.4,0c-0.4,0-0.9,0.1-0.9-0.6c-0.1-0.8-0.8-0.4-1.2-0.4
		c-6.2,0-12.5,0-18.7,0c-4.7,0-9.3,0-14,0c-0.7,0-1.2-0.1-1.1-0.9C63,97.1,63,97,62.8,97z"></path>
	<path d="M63,102.3c-0.1-1,0.6-0.9,1.2-0.9c10.7,0,21.4,0,32.2,0c0.5,0,0.9,0,1.4,0c0.2,0,0.2-0.1,0.2-0.2
		c-0.1-0.8,0.5-0.8,1-0.8c2.8,0,5.6,0,8.4,0c8.1,0,16.1,0,24.2,0c0.6,0,1.4-0.3,1.6,0.8c0.1,0.5,0.8,0.2,1.2,0.2
		c10.7,0,21.4,0,32.1,0c0.6,0,1.5-0.3,1.6,0.8c0,0.5,0.7,0.3,1.1,0.3c5.9,0,11.8,0,17.7,0c0,0.2,0,0.5,0,0.7l0,0
		c-0.1,0.3-0.3,0.6-0.5,0.8c0,0-0.1,0-0.1,0c-5.8-0.1-11.5-0.1-17.3,0c-0.3,0-0.9-0.1-0.9,0.3c-0.1,1-0.9,0.7-1.4,0.7
		c-10.6,0-21.3,0-31.9,0c-0.6,0-1.6-0.4-1.7,0.8c0,0.3-0.5,0.2-0.8,0.2c-11.1,0-22.1,0-33.2,0c-0.3,0-0.8,0.1-0.8-0.2
		c-0.1-1.1-0.8-0.8-1.4-0.8c-10.6,0-21.3,0-31.9,0c-0.7,0-1.8,0.5-1.9-0.9c0-0.3-0.5-0.2-0.8-0.2c-6.8,0-13.7,0-20.5,0
		c-0.1-0.2-0.2-0.3-0.2-0.5c-0.6-0.9,0-1.1,0.8-1.1c6.4,0,12.8,0,19.2,0c0.5,0,1,0,1.4-0.1C63,102.4,63,102.4,63,102.3z"></path>
	<path d="M185.5,110.2c-0.1,0.3-0.2,0.6-0.3,0.8c-3.8,0-7.7,0.1-11.5,0.1c-1.4,0-2.8,0-4.2,0c-0.7,0-1.4-0.3-1.7,0.8
		c-0.1,0.4-0.7,0.2-1.1,0.2c-7.7,0-15.4,0-23.1,0c-3.4,0-6.9,0-10.3,0c-0.1,0-0.2,0-0.2,0.2c0.1,1.1-0.6,0.9-1.3,0.9
		c-9.3,0-18.7,0-28,0c-1.6,0-3.2,0-4.8,0c-0.7,0-1-0.2-1-0.9c0-0.1,0-0.2-0.2-0.2c-1.2,0-2.4-0.1-3.6-0.1c-10,0-19.9,0-29.9,0
		c-0.5,0-1.2,0.3-1.3-0.7c-0.1-0.5-0.7-0.2-1-0.2c-6.1,0-12.1,0-18.2,0c-0.5,0-1.1,0.2-1.3-0.5c0-0.4,0-0.8,0-1.2c6.5,0,13,0,19.5,0
		c0.4,0,1,0.2,1-0.3c0.1-1,0.8-0.7,1.3-0.7c10.7,0,21.5,0,32.2,0c0.7,0,1.5,0.3,1.6-0.9c0-0.4,0.5-0.2,0.8-0.2c11.1,0,22.1,0,33.2,0
		c0.3,0,0.7-0.1,0.8,0.2c0.2,1.5,1.3,0.9,2.1,0.9c10.5,0,21.1,0,31.6,0c0.4,0,1.1-0.2,1.2,0.3c0.2,1,0.9,0.7,1.4,0.7
		c5.4,0,10.9,0,16.3,0c0,0.2,0,0.3,0,0.4C185.5,110,185.5,110.1,185.5,110.2z"></path>
	<path d="M43.4,118c0-0.5,0-1,0-1.5c6.1,0,12.3,0,18.4,0c0.5,0,1.3,0.3,1.3-0.7c0-0.3,0.4-0.3,0.7-0.3c1,0,1.9,0,2.9,0
		c9.9,0,19.8,0,29.7,0c0.5,0,0.9-0.1,1.4-0.1c0.2,0,0.2-0.2,0.2-0.4c0-0.9,0.7-0.7,1.2-0.7c6,0,12.1,0,18.1,0c4.9,0,9.7,0,14.6,0
		c0.5,0,1.1-0.2,1.2,0.8c0,0.6,0.6,0.4,1,0.4c3,0,5.9,0,8.9,0c7.9,0,15.8,0,23.7,0c0.6,0,1.3-0.3,1.5,0.7c0.1,0.5,0.7,0.3,1.1,0.3
		c5.1,0,10.3,0,15.4,0c0,0.5,0,1.1,0,1.6c-5.1,0-10.2,0-15.3,0c-0.6,0-1.2-0.2-1.4,0.7c-0.1,0.5-0.8,0.3-1.2,0.3
		c-10.8,0-21.5,0-32.2,0c-0.6,0-1.5-0.4-1.6,0.9c0,0.4-0.6,0.3-0.9,0.3c-2.2,0-4.4,0-6.6,0c-8.7,0-17.3,0-26,0
		c-0.6,0-1.4,0.3-1.4-0.8c0-0.4-0.5-0.3-0.8-0.3c-1.4,0-2.9,0-4.3,0c-9.5,0-19,0-28.5,0c-0.6,0-1.3,0.2-1.4-0.8
		c0-0.3-0.7-0.2-1.1-0.2c-5.7,0-11.4,0-17.1,0C44.3,118.1,43.8,118,43.4,118z"></path>
	<path d="M48,36.1c2.7-0.8,5.4-1.6,8.1-2.5c0.9-0.3,1.9-0.5,2.7-0.9c2.6-1.3,5.4-1.4,8.2-1.4c9.9,0.1,19.7,0,29.6,0
		c0.6,0,1.4-0.3,1.5,0.8c0.1,0.4,0.7,0.2,1.1,0.2c7.9,0,15.9,0,23.8,0c2.9,0,5.8,0,8.7,0c0.5,0,1.1,0.2,1.3-0.7
		c0.1-0.6,0.7-0.3,1.1-0.3c8.3,0,16.6,0.2,24.9-0.1c4.4-0.2,8.2,1.2,12.1,2.6c2.1,0.8,4.2,1.4,6.3,2.2c-3,0-5.9,0-8.9,0
		c-0.3,0-0.7,0-0.7-0.3c-0.1-1.1-0.8-0.8-1.5-0.8c-10.8,0-21.5,0-32.2,0c-0.5,0-1.2,0.3-1.3-0.7c0-0.4-0.5-0.3-0.8-0.3
		c-11.1,0-22.1,0-33.2,0c-0.4,0-0.8,0-0.9,0.6c-0.1,0.6-0.6,0.4-1,0.4c-2.2,0-4.5,0-6.7,0c-8.6,0-17.3,0-25.9,0
		c-0.6,0-1.4-0.3-1.5,0.8c0,0.5-0.7,0.3-1,0.3c-4.6,0-9.3,0-13.9,0C48,36.2,48,36.1,48,36.1z"></path>
	<path d="M70.4,27.9c1.8-1,3.6-2,5.4-3.1c0.5-0.3,0.9-0.4,1.5-0.4c6.6,0,13.1,0,19.7,0c0.5,0,1.1-0.2,1.1,0.7
		c0,0.5,0.6,0.4,0.9,0.3c2-0.3,3.6,0.9,5.3,1.6c-1.7,0-3.4,0-5.2,0c-0.5,0-1-0.2-1.1,0.7c-0.1,0.6-0.7,0.4-1.1,0.4
		c-6.3,0-12.7,0-19,0c-2.5,0-4.9,0-7.4,0C70.5,28,70.5,28,70.4,27.9z"></path>
	<path d="M157,28.1c-7.9,0-15.5,0-23.1,0c-0.3,0-0.7,0.1-0.8-0.2c-0.1-1.2-1.1-0.8-1.7-0.8c-2.6,0-5.1,0-7.7-0.2
		c1.4-0.5,2.8-1.4,4.4-1.5c1.2,0,2.4,0,3.6,0c0.6,0,1.4,0.3,1.4-0.9c0-0.4,0.5-0.3,0.8-0.3c5.3,0,10.6,0,15.9,0c0.5,0,1,0.1,1.5,0.4
		C153.1,25.8,154.9,26.9,157,28.1z"></path>
</g>
<path d="M98,60c0,0.2,0.1,0.3-0.2,0.4C97.9,60.3,97.9,60.1,98,60z"></path>
<path d="M63.3,60.4c-0.3,0-0.2-0.2-0.2-0.4C63.2,60.1,63.2,60.3,63.3,60.4z"></path>
<path d="M98,115c0,0.2,0.1,0.3-0.2,0.4C97.9,115.2,97.9,115.1,98,115z"></path>
<path d="M98,101.1c0,0.1,0,0.2-0.2,0.2C97.9,101.2,97.9,101.1,98,101.1z"></path>
<path d="M63,102.3c0,0.1,0,0.2-0.2,0.2C62.9,102.3,62.9,102.3,63,102.3z"></path>
<path d="M97.8,112.2c0.1,0,0.2,0,0.2,0.2C97.9,112.3,97.9,112.2,97.8,112.2z"></path>
<path d="M133.1,112.3c0-0.2,0.1-0.2,0.2-0.2C133.2,112.2,133.1,112.3,133.1,112.3z"></path>
<path d="M98,74.2c0,0.1,0,0.2-0.2,0.2C97.9,74.3,97.9,74.2,98,74.2z"></path>
<path d="M97.8,83.1c0.1,0,0.2,0.1,0.2,0.2C97.9,83.2,97.9,83.1,97.8,83.1z"></path>
<path d="M132.9,59.1c0.1,0.1,0,0.2-0.1,0.2C132.9,59.2,132.9,59.1,132.9,59.1z"></path>
<path d="M32.6,57.1c0.1,0,0.1,0,0.2,0.1C32.7,57.3,32.7,57.2,32.6,57.1z"></path>
<path d="M63.1,56.4c0-0.2,0-0.2,0.2-0.2C63.2,56.3,63.2,56.3,63.1,56.4z"></path>
<path d="M63.1,83.3c0-0.1,0-0.2,0.2-0.2C63.2,83.1,63.2,83.2,63.1,83.3z"></path>
<path d="M98.3,53.4c-0.1,0-0.2,0-0.2-0.2C98.2,53.3,98.2,53.4,98.3,53.4z"></path>
<path d="M63.3,74.4c-0.2,0-0.2-0.1-0.2-0.2C63.2,74.2,63.2,74.3,63.3,74.4z"></path>
<path d="M98.1,48.2c0-0.1,0.1-0.2,0.2-0.2C98.2,48.2,98.2,48.2,98.1,48.2z"></path>
<path d="M62.8,97c0.1,0,0.2,0,0.2,0.2C63,97.1,62.9,97.1,62.8,97z"></path>
</svg>
