<!--?xml version="1.0" encoding="utf-8"?-->
<!-- Generator: Adobe Illustrator 24.2.3, SVG Export Plug-In . SVG Version: 6.00 Build 0)  -->
<svg version="1.1" id="Camada_1" xmlns="http://www.w3.org/2000/svg" xmlns:xlink="http://www.w3.org/1999/xlink" x="0px" y="0px" viewBox="0 0 229 418" style="enable-background:new 0 0 229 418;" xml:space="preserve">
<style type="text/css">
	.st0{fill:#FD0303;}
	.st1{fill:#0101FC;}
	.st2{fill:#2D04DB;}
</style>
<g onclick="select(this)" class="" id="gola-primaria" fill="#011023">
	<path d="M78.4,8c0.6-0.1,1-0.4,1.4-0.8c0.9-0.9,2-1.7,2.7-2.7c1.8-2.5,4.4-3.4,7.3-3.8c0.6-0.1,1.3,0.1,1.9-0.5
		c1.2,0,2.4,0,3.6,0c0.2,0.5,0.6,0.3,0.9,0.3c5.6,0,11.2,0,16.7,0c0.4,0,0.8-0.1,1.1-0.3c7.5,0,15,0,22.6,0c0.1,0.5,0.5,0.3,0.8,0.4
		c1,0.2,2,0.3,2.9,0.4c2,0.3,3.7,1.1,4.9,2.8c1.3,1.7,2.7,3.3,4.6,4.4c1.3,0.6,1.9,1.5,1.8,3c-0.2,3.7-2.1,6.7-4.3,9.6
		c-0.4,0.5-0.7,0.1-1-0.1c-1.8-1.4-3.5-2.8-5.3-4.1c-0.7-0.5-0.7-0.8-0.1-1.5c1.6-1.8,2.9-3.7,3.8-6.1c-2.6,0.2-5,0.4-7.4,0.6
		c-10.8,0.7-21.5,1.8-32.3,1C98.4,10.1,91.7,9.6,85,8.9c-0.4,0-0.9-0.2-1.2,0c-0.3,0.4,0.1,0.8,0.2,1.2c0.8,2,2.1,3.6,3.5,5.1
		c0.4,0.4,0.8,0.8,0.1,1.3c-1.8,1.4-3.6,2.8-5.3,4.3c-0.5,0.4-0.8,0.3-1.2-0.1c-1.9-2.4-3.4-4.9-4.2-7.9C76.3,10.6,76.8,9.1,78.4,8z
		"></path>
</g>
<g onclick="select(this)" class="" id="detalhe-punho" fill="#71aad4">
	<path d="M228.3,108.4c0.6,0.8,0.4,1.7,0.7,2.6c0.1,0.4,0.1,0.9,0.4,1.3c0,1.3,0,2.6,0,3.8c-2.6,1.5-5.5,2-8.4,2.9
		c-9.3,2.7-18.8,3.3-28.3,2.8c-2.1-0.1-4.1-0.3-6.2-0.9c-0.5-0.2-1-0.4-1.5-0.7c-0.3-2.5,0.4-4.9,0.5-7.4c3.8,0.7,7.6,1,11.4,1
		c2.5,0,5,0.2,7.4-0.2c3.1-0.5,6.1-1,9.2-1.6C218.6,111.2,223.4,109.8,228.3,108.4z"></path>
	<path d="M0.7,114.7c0.5-1.2,0.4-2.5,0.7-3.7c0.1-0.4,0-0.9,0.4-1.2c0.3,0.1,0.6,0.3,0.9,0.4c6.3,2.3,12.8,3.4,19.4,4.1
		c3.4,0.3,6.9,0,10.3,0c1.8,0,3.5-0.1,5.3-0.3c1.4-0.2,3,0.1,4.3-0.8c0.4-0.3,0.6,0.1,0.8,0.4c0.4,0.8,0.2,1.7,0.6,2.4
		c0,1.5,0.6,3,0.3,4.5c-2.7,1.3-5.6,1.7-8.5,1.8c-9.4,0.4-18.7,0.1-27.8-2.1c-2.3-0.6-4.5-1.1-6.7-2.2
		C0.7,116.9,0.7,115.8,0.7,114.7z"></path>
</g>
<g onclick="select(this)" class="" id="estampa-primaria" fill="#011023">
	<path d="M43.4,115.9c-0.4-0.8-0.2-1.7-0.6-2.4c-0.2-0.3-0.4-0.7-0.8-0.4c-1.3,0.9-2.9,0.6-4.3,0.8c-1.7,0.2-3.5,0.3-5.3,0.3
		c-3.4,0.1-6.9,0.4-10.3,0c-6.6-0.7-13.1-1.7-19.4-4.1c-0.3-0.1-0.6-0.3-0.9-0.4c1.8-9.5,2.7-19.1,4.3-28.7C7,76,7.3,70.8,8.4,65.7
		c1.7-8.1,4.5-15.7,9.4-22.5c2.1-2.9,4.6-5.5,7.4-7.8c1.3-1.1,2.3-2.5,3.8-3.3c3.6-1.9,7.3-3.7,11-5.3c10-4.1,20.1-8.2,29.6-13.5
		c1.9-1.1,3.9-2.1,5.4-3.8c0.8-1,2-1.6,3.4-1.6c-1.7,1.2-2.1,2.6-1.5,4.9c0.8,2.9,2.3,5.5,4.2,7.9c0.4,0.5,0.7,0.6,1.2,0.1
		c1.8-1.4,3.5-2.9,5.3-4.3c0.7-0.6,0.3-0.9-0.1-1.3c-1.4-1.5-2.7-3.2-3.5-5.1c-0.2-0.4-0.6-0.8-0.2-1.2c0.3-0.3,0.8-0.1,1.2,0
		c6.7,0.6,13.4,1.2,20.1,1.7c10.8,0.8,21.6-0.2,32.3-1c2.4-0.2,4.8-0.4,7.4-0.6c-0.9,2.4-2.2,4.3-3.8,6.1c-0.5,0.6-0.6,0.9,0.1,1.5
		c1.8,1.3,3.6,2.7,5.3,4.1c0.3,0.2,0.6,0.6,1,0.1c2.2-2.8,4-5.8,4.3-9.6c0.1-1.5-0.5-2.4-1.8-3c1.8-0.1,3,1,4,2.2
		c0.3,0.4,0.7,0.7,1.1,1c10,6.5,21.2,10.6,32.2,15.2c4,1.7,7.8,3.6,11.7,5.3c1.6,0.7,2.7,2.3,4.2,3.3c3.1,2.3,5.8,5.1,8.2,8.2
		c4.8,6.4,7.6,13.7,9.3,21.5c0.6,2.9,1.2,5.8,1.5,8.7c0.6,5.8,2.3,11.3,3.4,17c1.1,5.9,1.9,11.8,2.9,17.7c-4.9,1.4-9.7,2.8-14.7,3.7
		c-3.1,0.5-6.1,1-9.2,1.6c-2.4,0.4-4.9,0.2-7.4,0.2c-3.8,0-7.6-0.2-11.4-1c0.4-4.4,1.3-8.8,2.2-13.1c0.5-2.6,1.2-5.1,1.8-7.7
		c-0.4,0.4-0.6,0.8-0.8,1.2c-1.8,4.1-3,8.4-4.2,12.8c-2.4,8.9-3.8,18-4.8,27.2c-0.6,5.2-0.9,10.4-1.2,15.7
		c-0.3,4.9-0.5,9.9-0.5,14.8c0,16.9-0.3,33.9,0.2,50.8c0.2,7.3,0.3,14.6,0.5,21.9c0.2,4.9,0.3,9.7,0.5,14.6c0.2,6,0.5,12,0.7,17.9
		c0.2,5,0.4,10,0.8,15.1c-7.7,1.1-15.4,1.4-23.1,1.5c-12.9,0.2-25.9,0.6-38.8,0.9c-6.8,0.2-13.5-0.5-20.2-0.6
		c-8.7-0.1-17.4-0.2-26.1-0.4c-8.3-0.2-16.6-0.4-24.8-1.8c0.5-3.8,0.5-7.6,0.7-11.3c0.4-5.6,0.6-11.2,0.8-16.9
		c0.1-4.4,0.3-8.9,0.5-13.3c0.3-6.3,0.4-12.5,0.5-18.8c0.1-4,0.2-8,0.2-12c0.1-14.3,0.1-28.5,0.1-42.8c0-2.2,0-4.5-0.1-6.7
		c-0.3-6.3-0.3-12.7-0.9-19c-0.2-2.5-0.3-4.9-0.5-7.4c-0.6-4.9-1.1-9.9-2-14.7c-1.1-6-2.2-12-3.9-17.8c-0.7-2.2-1.2-4.4-2.2-6.6
		c-0.6,0.9,0.2,1.4,0.2,2.1c0.4,3.4,1.1,6.7,1.4,10.1C42.8,111,43.6,113.4,43.4,115.9z"></path>
</g>
<g onclick="select(this)" class="" id="detalhe-lateral" fill="#71aad4">
	<path d="M180.8,284c-0.4-5-0.6-10-0.8-15.1c-0.3-6-0.5-11.9-0.7-17.9c-0.2-4.9-0.3-9.7-0.5-14.6
		c-0.3-7.3-0.3-14.6-0.5-21.9c-0.4-16.9-0.2-33.9-0.2-50.8c0-4.9,0.2-9.9,0.5-14.8c0.3-5.2,0.7-10.5,1.2-15.7
		c1-9.2,2.5-18.3,4.8-27.2c1.1-4.3,2.4-8.6,4.2-12.8c0.2-0.4,0.4-0.8,0.8-1.2c-0.6,2.6-1.3,5.1-1.8,7.7c-0.9,4.3-1.8,8.7-2.2,13.1
		c-0.1,2.5-0.7,4.9-0.5,7.4c-1.3,10.3-2.3,20.7-2,31.2c0.1,2.4,0.8,4.8,0.4,7.3c-0.3,2.3-0.4,4.7-0.4,7c0.1,6.6,0.1,13.2-0.1,19.7
		c-0.1,4.5,0.7,8.7,1.4,13c0.9,5.1,1,10.2,0.2,15.4c-0.3,2.3-0.5,4.7-0.8,7c0,0.4,0.1,0.8,0.2,1.2c2,5.7,2.5,11.6,1.6,17.6
		c-0.3,2.1-0.3,4.2,0.1,6.3c0.4,2,0.5,4,0.5,6c-0.1,7.4,0.7,14.7,1.4,22c0.2,2.3,0.3,4.6,0.3,6.9c0,1.1-0.5,1.8-1.5,2.2
		C184.6,283.5,182.8,284,180.8,284z"></path>
	<path d="M43.4,115.9c0.2-2.5-0.6-4.9-0.9-7.4c-0.4-3.4-1-6.7-1.4-10.1c-0.1-0.7-0.8-1.2-0.2-2.1
		c0.9,2.2,1.5,4.4,2.2,6.6c1.8,5.8,2.9,11.8,3.9,17.8c0.9,4.9,1.4,9.8,2,14.7c0.3,2.4,0.3,4.9,0.5,7.4c0.6,6.3,0.6,12.6,0.9,19
		c0.1,2.2,0.1,4.5,0.1,6.7c0,14.3,0,28.5-0.1,42.8c0,4-0.1,8-0.2,12c-0.1,6.3-0.3,12.5-0.5,18.8c-0.2,4.4-0.3,8.8-0.5,13.3
		c-0.2,5.6-0.4,11.2-0.8,16.9c-0.3,3.8-0.2,7.6-0.7,11.3c-1.7-0.1-3.4-0.5-5-1.1c-1.6-0.6-2-1.1-2-2.8c0-2.8,0.2-5.6,0.4-8.3
		c0.4-5.3,0.7-10.6,1.2-15.9c0.4-4.8-0.1-9.6,0.9-14.3c0.2-0.9,0.1-1.8,0-2.7c-0.5-3.1-0.3-6.2,0.3-9.3c0.2-0.9,0.1-1.7,0.1-2.6
		c-0.3-4.1-0.9-8.3-0.9-12.4c0-4.8,1.1-9.4,2.7-13.9c0.3-1,0.6-1.9,0.4-2.9c-0.2-1.5-0.1-3,0.1-4.5c0.1-0.6,0.2-1.3,0.2-1.9
		c-0.4-4.8-0.1-9.7-0.4-14.5c-0.1-1.1,0.1-2.2,0.2-3.3c0.1-1.9,0.1-3.7,0-5.6c-0.4-6.8-0.1-13.6,0-20.4c0.1-7.3-0.6-14.6-1.6-21.9
		c-0.2-1.5-0.4-3.1-0.6-4.6C44,118.9,43.4,117.4,43.4,115.9z"></path>
</g>
<g onclick="select(this)" class="" id="estampa-secundaria" fill="#71aad4">
	<path d="M180.9,284.1c-4.5,0.7-9.1,1.1-13.6,1.2c-28.3,0.8-56.6,0.6-84.9,0.3c-8.6-0.1-17.2-0.1-25.8-0.8
		c-3-0.2-6-0.5-9-1.1c0.3-0.7,0.3-1.5,0.3-2.2c0.1-1.3-0.2-2.6,0.3-3.9c0.6,0,1.1,0,1.7,0c43.5,0,86.9,0,130.4,0
		c0.1,0.4,0.2,0.8,0.2,1.3C180.6,280.7,180.6,282.4,180.9,284.1z"></path>
	<path d="M45.8,114.3c-0.9,0-0.3-0.5-0.2-0.8c10.8,0,21.5,0,32.3,0c35,0,70,0,104.9,0c0.1,0.3,0.1,0.6-0.2,0.8
		c-0.4,0-0.7,0-1.1,0c-44.7,0-89.4,0-134.1,0C47,114.3,46.4,114.3,45.8,114.3z"></path>
	<path d="M180.2,275.7c-6.2,0-12.3,0-18.5,0c-37.3,0-74.6,0-111.8,0c-0.6,0-1.1,0-1.7,0c0.1-2.7,0.1-5.4,0.5-8.1
		c43.7,0,87.4,0,131.1,0c0.1,0.3,0.2,0.6,0.2,0.9C180.1,270.9,180.1,273.3,180.2,275.7z"></path>
	<path d="M49.2,255.4c-0.2-2.7,0.1-5.4,0.3-8.1c22.5,0,45,0,67.5,0c20.7,0,41.3,0,62,0c0.1,2.7,0.4,5.4,0.3,8.1
		c-5.6,0-11.1,0-16.7,0C124.8,255.4,87,255.4,49.2,255.4z"></path>
	<path d="M48.8,265.5c0.1-2.7,0.2-5.4,0.3-8.1c0.4,0,0.7,0,1.1,0c42.8,0,85.6,0,128.3,0c0.4,0,0.7,0,1.1,0
		c0.1,2.7,0.2,5.4,0.3,8.1c-0.4,0-0.7,0-1.1,0c-42.9,0-85.9,0-128.8,0C49.5,265.5,49.1,265.5,48.8,265.5z"></path>
	<path d="M50,227.4c0.1-2.5,0.2-5.1,0.3-7.6c42.7,0,85.4,0,128,0c0.1,2.5,0.2,5.1,0.3,7.6c-21.4,0-42.9,0-64.3,0
		S71.4,227.4,50,227.4z"></path>
	<path d="M49.5,245.3c0.1-2.5,0.2-5,0.2-7.4c43,0,86,0,129,0c0.1,2.5,0.2,5,0.2,7.4C135.8,245.3,92.7,245.3,49.5,245.3z
		"></path>
	<path d="M49.7,235.9c0.3-2.3,0.1-4.6,0.2-6.9c3.7,0,7.4,0,11,0c39.2,0,78.3,0,117.5,0c0.1,2.3-0.1,4.6,0.2,6.9
		c-0.4,0-0.7,0-1.1,0c-42.3,0-84.6,0-126.9,0C50.5,235.9,50.1,235.9,49.7,235.9z"></path>
	<path d="M50.2,218.1c-0.1-2.1-0.1-4.3,0.2-6.4c17,0,34,0,51,0c25.5,0,51.1,0,76.6,0c0.4,2.1,0.3,4.2,0.2,6.4
		c-20,0-39.9,0-59.9,0C95.7,218.1,72.9,218.1,50.2,218.1z"></path>
	<path d="M50.5,209.4c-0.1-2-0.1-4,0-6.1c12.1,0,24.1,0,36.2,0c30.4,0,60.9,0,91.3,0c0.1,2,0.1,4,0,6.1
		C135.5,209.4,93,209.4,50.5,209.4z"></path>
	<path d="M50.5,200.9c-0.1-1.8-0.1-3.7,0-5.5c9.8,0,19.7,0,29.5,0c32.7,0,65.3,0,98,0c0.1,1.8,0.1,3.7,0,5.5
		c-8.4,0-16.7,0-25.1,0C118.8,200.9,84.6,200.9,50.5,200.9z"></path>
	<path d="M50.5,191.9c-0.1-1.8-0.1-3.5,0-5.3c42.5,0,85,0,127.5,0c0.1,1.8,0.1,3.5,0,5.3c-28,0-56.1,0-84.1,0
		C79.4,192,65,191.9,50.5,191.9z"></path>
	<path d="M50.5,178.3c15.4,0,30.7,0,46.1,0c27.2,0,54.3,0,81.4,0c0.1,1.4,0.1,2.9,0,4.4c-42.5,0-85,0-127.5,0
		C50.4,181.2,50.4,179.8,50.5,178.3z"></path>
	<path d="M178,173.7c-17.4,0-34.7,0-52.1,0c-25.2,0-50.3,0-75.4,0c-0.1-1.3-0.1-2.6,0-3.8c42.5,0,85,0,127.5,0
		C178.1,171.2,178.1,172.5,178,173.7z"></path>
	<path d="M178,165.2c-42.5,0-85,0-127.6,0c0-1.1-0.1-2.1-0.1-3.2c42,0,84,0,126,0c0.6,0,1.1,0,1.7,0
		C178.1,163,178,164.1,178,165.2z"></path>
	<path d="M178.3,156.9c-30.6,0-61.2,0-91.8,0c-12.1,0-24.2,0-36.2,0c0-0.8,0-1.6,0-2.4c42.7,0,85.4,0,128.1,0
		C178.3,155.4,178.3,156.1,178.3,156.9z"></path>
	<path d="M178.5,148.6c-42.9,0-85.7,0-128.6,0c-0.4-0.7-0.3-1.4-0.2-2.2c22.2,0,44.4,0,66.7,0c20.8,0,41.6,0,62.4,0
		C178.8,147.1,178.9,147.8,178.5,148.6z"></path>
	<path d="M179.2,139.7c-43.3,0-86.7,0-130,0c0-0.6,0-1.1,0-1.6c6.6,0,13.1,0,19.7,0c36.2,0,72.5,0,108.7,0
		c0.6,0,1.1,0,1.7,0C179.3,138.6,179.3,139.2,179.2,139.7z"></path>
	<path d="M181.3,122.7c-44.7,0-89.4,0-134.1,0c-0.2-0.2-0.1-0.4,0-0.7c0.4,0,0.8,0,1.2,0c44.1,0,88.2,0,132.3,0
		c0.2,0,0.5,0,0.7,0C181.4,122.3,181.5,122.5,181.3,122.7z"></path>
	<path d="M48.3,129.8c44,0,88,0,132,0c0.1,0.4,0,0.7-0.2,1.1c-43.8,0-87.7,0-131.5,0C48.3,130.6,48.2,130.2,48.3,129.8z
		"></path>
</g>
</svg>
