<!--?xml version="1.0" encoding="utf-8"?-->
<!-- Generator: Adobe Illustrator 24.2.3, SVG Export Plug-In . SVG Version: 6.00 Build 0)  -->
<svg version="1.1" id="Camada_1" xmlns="http://www.w3.org/2000/svg" xmlns:xlink="http://www.w3.org/1999/xlink" x="0px" y="0px" viewBox="0 0 229 418" enable-background="new 0 0 229 418" xml:space="preserve">
<g onclick="select(this)" class="" id="gola-primaria" fill="#000000">
	<path d="M77.9719238,7.969233c0.9347-0.1562185,1.5103531-0.8625746,2.1502304-1.4465899
		c0.7069397-0.645227,1.4712753-1.2745314,2.0082016-2.0507722c2.1033096-3.040709,5.3332443-3.885504,8.6122055-3.9147363
		c15.2177811-0.1356687,30.4375076-0.0768437,45.6563797-0.0336667c1.8729248,0.0053136,3.7169037,0.4812706,5.5058594,1.0726919
		c0.8923645,0.2950147,1.5990906,0.8437419,2.2200623,1.5630372c1.5876007,1.8389177,3.0818024,3.7833462,5.2238464,5.0523243
		c1.8429565,0.8999453,2.32341,2.1702232,1.6932983,4.6490765c-1.0010529,3.9381084-3.1523895,7.1790295-6.0192871,10.0144882
		c-3.2079163,3.1727352-6.6917114,6.001255-10.659256,8.1302776c-2.5165863,1.3504143-5.0346222,2.7601128-7.793808,3.6233177
		c-2.7822113,0.8703957-5.5842133,1.5878563-8.5060272,1.8678017c-10.1731567,0.9747276-19.3906021-1.5887184-27.7946777-7.311491
		c-4.4524078-3.0318794-8.6118851-6.3667908-11.4976883-11.021534c-1.336586-2.1558857-2.3134003-4.4350901-2.4790344-7.0355616
		C76.1980286,9.648881,76.7766571,8.6842136,77.9719238,7.969233z M144.21698,9.0870171
		c-10.2479553,0.8179588-20.3850174,1.8676548-30.5517883,1.8990765
		c-10.1644821,0.031415-20.2793884-1.2500095-30.4367905-2.1495667
		c1.5316162,7.9662781,17.5761948,18.8770065,28.5077438,19.4994621
		C124.5473175,29.0654755,140.9449768,19.424511,144.21698,9.0870171z"></path>
</g>
<g onclick="select(this)" class="" id="estampa-primaria" fill="#000000">
	<path d="M228.9600067,116.1600037c-6.8573608,2.7827988-14.012085,4.3406754-21.3363495,5.2295303
		c-6.1865082,0.7507629-12.3683929,0.6981201-18.5518646,0.0141602c-1.5450592-0.1708984-3.0964508-0.3526306-4.5778809-1.2681656
		c-0.2169952,2.0427322-0.4040222,3.9826508-0.6320343,5.9177551c-0.8618011,7.3140564-1.3113098,14.6531677-1.3702393,22.0167847
		c-0.0173035,2.1614838,0.0713806,4.3074493,0.516861,6.4402771c0.4073029,1.9498596-0.0998688,3.9020081-0.1979218,5.8531799
		c-0.0421448,0.8382263-0.1979218,1.6777191-0.1665344,2.5115509c0.242218,6.434021-0.5886841,12.8650208-0.0313416,19.3006744
		c0.131073,1.5136261,0.0321655,3.0341797-0.1354828,4.5505066c-0.3388214,3.0646515,0.2162628,6.0424805,0.888443,9.0185089
		c1.6364441,7.2451019,1.3792725,14.5308533,0.3453064,21.8226624c-0.3037415,2.1420898-0.3855896,4.2071381,0.3206482,6.3586578
		c1.7946777,5.467392,1.8110352,11.0920105,0.9322662,16.7324371c-0.2185211,1.4025421-0.2377777,2.7680054,0.0836639,4.1573029
		c0.8846588,3.8234863,0.4741974,7.7231598,0.6637421,11.5890808c0.2915344,5.9466248,0.6890106,11.888916,1.4359894,17.8041687
		c0.2438354,1.9310303,0.2092438,3.8996887,0.2574005,5.8522644c0.0527649,2.1405029-0.3005829,2.6210632-2.4157562,3.2075806
		c-2.8646393,0.794342-5.8190155,1.0609741-8.761795,1.3639832c-7.7271729,0.7956848-15.4845428,0.8746948-23.2430573,1.0188599
		c-11.2753754,0.2095337-22.5467682,0.6609192-33.8225098,0.8162231
		c-12.438446,0.1713562-24.8563919-0.8457642-37.2967606-0.8506165c-8.3976974-0.0032349-16.7977066-0.0982056-25.178421-0.7355652
		c-4.1890564-0.3185425-8.3643112-0.7582092-12.4702377-1.697113c-0.1558876-0.035675-0.3135872-0.0641479-0.4683266-0.104126
		c-3.2452049-0.8378296-3.6082077-1.1939087-3.4111176-4.5150146c0.4636269-7.8121643,1.0338669-15.6180115,1.5500145-23.4270782
		c0.1054497-1.595459,0.2506523-3.1955872,0.2229881-4.790863c-0.0473404-2.7297363,0.1034393-5.4339447,0.5875511-8.1213531
		c0.2500763-1.3882141,0.2259979-2.7841339,0.0151443-4.1764221c-0.4365196-2.8824615-0.2956657-5.7467041,0.3321266-8.5827179
		c0.2205505-0.9962769,0.1968765-1.9702454,0.1224289-2.9738007c-0.3369904-4.542984-1.021347-9.0657196-0.838974-13.6401062
		c0.1720695-4.3159637,1.1946259-8.4609985,2.6406822-12.5021362c0.4013214-1.1215515,0.6408043-2.1886902,0.4723244-3.3767853
		c-0.1687775-1.1901703-0.1351967-2.394989,0.0903816-3.5845947c0.3084717-1.6267548,0.1929054-3.2503662,0.1125488-4.8949585
		c-0.1616058-3.3076172-0.1834526-6.6237335-0.1970177-9.9365997c-0.052845-12.9072418-0.042881-25.8148804-0.1347389-38.7217865
		c-0.0367775-5.1676178-1.0135727-10.2604523-1.5068283-15.3927841c-0.1257133-1.3080597-0.4853134-2.589325-0.4131927-3.8757019
		c-7.8684654,2.5462418-15.929512,2.0281906-23.9619179,1.4885941c-5.6706181-0.380928-11.2758665-1.3124695-16.7199078-3.0362549
		C1.8311924,118.7418365,0.9764115,118.4156113,0.24,117.840004c0-1.0400009,0-2.0799942,0-3.1200027
		c0.7839233-1.5675049,0.8099706-3.3187027,1.1322011-4.9857101c1.8816141-9.7342224,2.8292222-19.6107941,4.3741846-29.3990555
		c0.8903303-5.6407928,1.325304-11.3509674,2.6825323-16.9219055c2.1208677-8.70541,5.5588036-16.7387733,11.6269484-23.4972649
		c2.3090782-2.5717659,5.1204948-4.5879822,7.5157013-7.0551529c0.576973-0.5943108,1.271637-1.010725,1.9922924-1.3597908
		c6.8783321-3.3316536,13.9418278-6.2391987,20.9893589-9.1878891c7.5772324-3.1703224,14.9921684-6.6858664,22.0402946-10.9327602
		c0.5205917-0.3136797,0.9388657-0.705184,1.332901-1.1698313c1.057663-1.2472076,2.2910309-2.2285705,4.0455093-2.2414079
		c-1.1952667,0.7149806-1.7738953,1.6796479-1.6796951,3.1586633c0.1656342,2.6004715,1.1424484,4.8796759,2.4790344,7.0355616
		c2.8858032,4.6547432,7.0452805,7.9896545,11.4976883,11.021534c8.4040756,5.7227726,17.621521,8.2862186,27.7946777,7.311491
		c2.921814-0.2799454,5.7238159-0.997406,8.5060272-1.8678017c2.7591858-0.863205,5.2772217-2.2729034,7.793808-3.6233177
		c3.9675446-2.1290226,7.4513397-4.9575424,10.659256-8.1302776c2.8668976-2.8354588,5.0182343-6.0763798,6.0192871-10.0144882
		c0.6301117-2.4788532,0.1496582-3.7491312-1.6930847-4.649085c1.8110504-0.1460323,2.9575653,0.9652777,4.0596466,2.1531324
		c0.2682648,0.2891378,0.4216614,0.6678896,0.7888641,0.8850985c3.9733429,2.350481,7.8821411,4.8019476,12.1104736,6.7087107
		c10.4221191,4.6998501,21.1058655,8.7906857,31.4871674,13.5836029c0.7298584,0.3369656,1.3702698,0.7726593,1.9723816,1.2949181
		c0.9357605,0.811657,1.8710632,1.6272087,2.8497467,2.3853722c2.9891663,2.3157005,5.6452942,4.9609528,7.9433899,7.9606667
		c5.453476,7.1183891,8.2686005,15.3348503,10.0013275,24.0093994c0.9792633,4.9025955,1.1637573,9.9325867,2.4346924,14.7875519
		c2.2414246,8.5621185,3.4134674,17.3215179,4.8167419,26.0400467c0.2710724,1.6842041,0.4395752,3.4221878,1.1466522,5.019989
		C228.9600067,114.0800095,228.9600067,115.1200027,228.9600067,116.1600037z"></path>
	<path d="M144.21698,9.0870171c-3.2720032,10.3374939-19.6696625,19.9784584-32.480835,19.2489719
		c-10.9315491-0.6224556-26.9761276-11.5331841-28.5077438-19.4994621
		c10.157402,0.8995571,20.2723083,2.1809816,30.4367905,2.1495667
		C123.8319626,10.9546719,133.9690247,9.9049759,144.21698,9.0870171z"></path>
</g>
<g onclick="select(this)" class="" id="estampa-secundaria" fill="#877844">
	<path d="M28.5449181,32.2347031c0.1536827-0.1744156,0.2730618-0.4200573,0.4659958-0.5129795
		c7.2983208-3.5150127,14.7059479-6.7885551,22.247818-9.7401543c2.2745857-0.8901844,4.5952415-1.7300262,6.7386398-2.8424664
		c3.3012276-1.7133579,6.6630516-3.3180389,9.9083214-5.1412802c1.1796341-0.6627331,2.3619766-1.3206472,3.541626-1.9833689
		c1.0446243-0.5868616,1.9740067-1.2749577,2.7741852-2.2140656c0.9664612-1.1342516,2.1891251-1.9935098,3.8285904-1.8656993
		c-1.6697006,1.0249038-2.0668564,2.595367-1.6442108,4.348104c0.7789001,3.230113,2.1810684,6.215868,4.4530029,8.6472244
		c6.8937454,7.3774529,15.0107117,12.7714176,25.0846939,14.7138119c3.784729,0.7297401,7.5768051,1.3878708,11.5137177,0.8385544
		c5.3994522-0.7533913,10.5320969-2.2117195,15.3540115-4.7542152c4.1608887-2.1939545,7.8831177-4.9892063,11.3535309-8.1534195
		c3.2918396-3.0013618,5.7842255-6.4779053,6.8946075-10.8531847c0.5488281-2.1625338,0.080368-3.3855543-1.7865448-4.5483999
		c1.9179382-0.21628,3.1369476,0.9326162,4.2417603,2.2332964c0.3403625,0.4006882,0.6899414,0.7315159,1.1298523,1.0202961
		c9.6215363,6.3159914,20.3896179,10.22363,30.9045868,14.6441088c4.3595276,1.832737,8.5787964,3.9658508,12.9527283,5.756649
		c0.1976471,0.0809288,0.5037384,0.0672874,0.4788971,0.4163551c0.0248718,2.6840477-1.0485382,5.1429863-1.5674286,7.7152176
		c-0.7403412,3.6699142-1.5053558,7.3519783-1.6588135,11.0970879c-0.0457001,1.1153603-0.1513824,2.1710358-0.3709869,3.2543411
		c-0.1448822,0.7148323-0.4406128,0.9602776-1.1156311,0.8948746c-0.2773285-0.0268669-0.5593567-0.005352-0.8392487-0.005352
		c-53.299057-0.0000343-106.5981293-0.0036888-159.897171,0.0259666c-1.0804405,0.0006027-1.447628-0.321949-1.3505592-1.3421288
		c0.128624-1.3517303-0.661787-2.5997581-0.6545982-3.8543053c0.0102062-1.7805138-0.3351555-3.479332-0.5580673-5.2073441
		c-0.4443645-3.4447517-1.2929497-6.8021698-2.317873-10.1163521C28.397747,33.8890686,28.7059345,33.0528526,28.5449181,32.2347031
		z"></path>
</g>
<g onclick="select(this)" class="" id="estampa-terciaria" fill="#ffffff">
	<path d="M113.69133,61.6800308c26.5939789,0,53.187973,0.0082932,79.7818909-0.028183
		c1.1487427-0.0015755,1.4811859,0.2454262,1.4262238,1.420475c-0.1119995,2.3943901-0.0879822,4.7981224-0.0306702,7.1958656
		c0.0209198,0.8752289-0.2708282,1.0381927-1.081665,1.0373154c-22.3149414-0.0242004-44.6298676-0.0241776-66.9448166-0.0251846
		c-30.9129944-0.0014038-61.826004-0.0065765-92.7389679,0.0243378c-1.1333961,0.0011292-1.6270638-0.1580811-1.5074348-1.4450455
		c0.1723022-1.8535538-0.106636-3.7373505,0.3342209-5.5852432c0.0797997-0.3344841-0.0022507-0.7175217-0.0538368-1.0716972
		c-0.2221222-1.5249176-0.2281303-1.5228462,1.3930511-1.522831C60.7433281,61.6800919,87.2173309,61.6800232,113.69133,61.6800308z
		"></path>
</g>
</svg>
