<!--?xml version="1.0" encoding="utf-8"?-->
<!-- Generator: Adobe Illustrator 24.2.3, SVG Export Plug-In . SVG Version: 6.00 Build 0)  -->
<svg version="1.1" id="Camada_1" xmlns="http://www.w3.org/2000/svg" xmlns:xlink="http://www.w3.org/1999/xlink" x="0px" y="0px" viewBox="0 0 234 419" enable-background="new 0 0 234 419" xml:space="preserve">
<g onclick="select(this)" class="" id="c-detalhe-punho" fill="#000000">
	<path d="M0.24,115.92c0.6-1.53,0.56-3.18,0.96-4.75c0.13-0.52,0.07-1.13,0.57-1.52c3.08,0.64,6.16,1.23,9.24,1.84
		c2.91,0.58,5.88,1.02,8.81,1.54c5.52,0.99,11.04,1.57,16.65,1.28c1.79-0.09,3.58-0.19,5.37-0.29c1.48-0.09,2.68-0.79,3.71-2.07
		c0.13,0.54,0.26,0.81,0.25,1.08c-0.02,1.32,1.13,2.15,1.36,3.36c-0.44-0.02-0.64,0.17-0.6,0.64c0.04,0.59,0.04,1.18,0.05,1.77
		c-0.05,0.44-0.12,0.87-0.15,1.31c-0.07,0.96-0.62,1.45-1.54,1.49c-3.47,0.14-6.88,0.89-10.38,0.84c-7.3-0.11-14.48-1.19-21.67-2.29
		c-4.02-0.61-8-1.41-11.96-2.31c-0.23-0.05-0.44-0.16-0.67-0.24C0.24,117.04,0.24,116.48,0.24,115.92z"></path>
	<path d="M232.14,111.64c0.83,1.16,0.47,2.6,0.88,3.86c0.12,0.37-0.02,0.8,0.25,1.14c0,1.12,0,2.24,0,3.36
		c-3.94,0.93-7.92,1.7-11.92,2.28c-2.07,0.3-4.15,0.6-6.23,0.83c-5.51,0.62-11.04,0.88-16.58,0.74c-2.62-0.07-5.15-0.49-7.44-1.88
		c-0.36-0.22-0.73-0.3-1.13-0.35c-0.79-0.1-1.45-0.41-1.89-1.1c0.5-0.87,0.24-1.76,0.05-2.64c-0.13-1.07,0.36-2.08,0.36-3.13
		c0.75-0.69,0.39-1.71,0.75-2.55c0.59,0.08,0.97,0.52,1.42,0.83c1.57,1.09,3.1,2.41,5.03,2.66c3.17,0.42,6.4,0.43,9.57,0.11
		c6.1-0.61,12.17-1.56,18.26-2.31C226.45,113.12,229.33,112.53,232.14,111.64z"></path>
</g>
<g onclick="select(this)" class="" id="c-gola-primaria" fill="#000000">
	<path d="M141.84,0.24c0.98,0.48,2.07,0.46,3.1,0.73c1.59,0.42,2.95,1.12,3.98,2.45c1.3,1.68,2.95,3,4.57,4.36
		c-3.78,0.52-7.56,1.1-11.35,1.56c-7.58,0.91-15.2,1.44-22.82,1.61c-12.56,0.29-24.99-1.58-37.44-2.96c2-1.54,3.73-3.34,5.32-5.3
		c1.07-1.32,2.69-1.6,4.25-1.96c0.87-0.2,1.82,0.01,2.64-0.49c7.92,0,15.84,0,23.76,0c1.42,0.46,2.89,0.14,4.33,0.21
		c0.55,0.03,1.17,0.3,1.67-0.21C129.84,0.24,135.84,0.24,141.84,0.24z"></path>
	<path d="M123.84,0.24c-0.5,0.51-1.12,0.24-1.67,0.21c-1.44-0.07-2.91,0.25-4.33-0.21
		C119.84,0.24,121.84,0.24,123.84,0.24z"></path>
</g>
<g onclick="select(this)" class="" id="c-detalhe-lateral" fill="#000000">
	<path d="M48.99,273.29c-0.13,1.75-0.27,3.5-0.38,5.25c-0.14,2.43-0.26,4.86-0.39,7.28
		c-1.52-0.01-2.87-0.6-4.18-1.28c-0.72-0.38-0.78-1.16-0.82-1.89c-0.07-1.28,0.02-2.56,0.22-3.82c0.28-1.8,0.33-3.63,0.42-5.44
		c0.33-6.97,1.23-13.91,1.09-20.91c-0.03-1.65,0.28-3.34,0.66-4.96c0.6-2.56-0.05-5.07-0.14-7.59c-0.08-2.15-0.09-4.28,0.02-6.43
		c0.13-2.56,0.5-5.08,1.13-7.54c0.53-2.06,0.7-4.03,0.47-6.16c-0.45-4.15-0.67-8.33-0.56-12.53c0.11-4.23,0.79-8.38,1.57-12.52
		c0.46-2.41,0.49-4.83,0.24-7.26c-0.17-1.63-0.22-3.27,0.06-4.9c0.23-1.33-0.09-2.62-0.11-3.94c-0.04-3.28-0.09-6.56-0.05-9.84
		c0.04-3.6-0.18-7.18-0.46-10.76c-0.17-2.13,0.46-4.2,0.44-6.31c-0.04-3.91-0.02-7.83-0.26-11.74c-0.29-4.78-0.57-9.55-0.75-14.33
		c-0.08-2.28-0.05-4.61-0.6-6.87c-0.02-0.59-0.01-1.18-0.05-1.77c-0.03-0.46,0.16-0.65,0.6-0.64c0.15,1.02,0.25,2.04,0.46,3.05
		c0.76,3.7,1.15,7.45,1.54,11.19c0.36,3.47,0.6,6.96,0.85,10.45c0.32,4.53,0.52,9.06,0.73,13.59c0.1,2.11,0.07,4.23,0.17,6.34
		c0.29,6.55,0.1,13.1,0.15,19.65c0.02,2.52,0.04,5.03,0.06,7.55c-0.03,0.2-0.09,0.39-0.09,0.59c0.01,10.72,0.03,21.44-0.3,32.16
		c0,0.95-0.01,1.9-0.01,2.85c0.01,0.15,0.03,0.3,0.04,0.45c0.03,2.07-0.45,4.13-0.25,6.21c-0.19,5.55-0.39,11.09-0.56,16.64
		c-0.11,3.71-0.19,7.43-0.28,11.14c-0.01,0.24-0.04,0.48-0.05,0.72c-0.13,2.67-0.25,5.34-0.38,8
		C49.16,269.09,49.07,271.19,48.99,273.29z"></path>
	<path d="M184.14,210.36c-0.02-2-0.03-4-0.05-6.01c0.03-3.23,0.09-6.46,0.09-9.69c0.01-8.46,0.01-16.92,0.01-25.38
		c0-0.24-0.04-0.47-0.06-0.71c0-2.07,0.01-4.14,0.01-6.21c0.05-0.19,0.12-0.38,0.13-0.58c0.26-6.17,0.49-12.34,0.77-18.5
		c0.12-2.58,0.28-5.16,0.53-7.72c0.35-3.63,0.8-7.24,1.2-10.86c0.07-0.46,0.17-0.92,0.2-1.39c0.12-1.63,0.64-3.21,0.64-4.86
		c0.15-0.22,0-0.71,0.54-0.58c0.19,0.89,0.45,1.77-0.05,2.64c-0.21,1.85-0.5,3.7-0.62,5.56c-0.36,5.73-0.77,11.47-0.72,17.22
		c0.04,3.79,0.26,7.58,0.4,11.37c0.09,2.32-0.12,4.62-0.34,6.93c-0.09,0.95-0.13,1.92-0.08,2.87c0.13,2.23-0.45,4.44-0.23,6.65
		c0.47,4.59,0.09,9.18,0.23,13.76c0.08,2.73-0.76,5.43-0.47,8.17c0.36,3.43,0.03,6.91,1.27,10.28c1.16,3.16,1.59,6.53,1.9,9.91
		c0.44,4.83-0.18,9.6-0.5,14.39c-0.11,1.71-0.06,3.42,0.24,5.13c0.53,2.95,0.37,5.91,0.01,8.87c-0.2,1.66,0.36,3.24,0.51,4.86
		c0.07,0.71,0.19,1.42,0.17,2.14c-0.12,4.39,0.48,8.73,0.87,13.09c0.21,2.38,0.37,4.77,0.49,7.16c0.21,4.14,0.34,8.29,0.57,12.43
		c0.07,1.36-0.27,2.43-1.7,2.68c-1.09,0.19-2,0.95-3.15,0.88c-0.46-1.41-0.39-2.91-0.42-4.33c-0.14-6.78-0.65-13.54-0.8-20.32
		c-0.11-4.54-0.47-9.08-0.46-13.63c0-0.44,0-0.88-0.21-1.29c-0.01-6.26-0.29-12.51-0.48-18.76c-0.13-4.15-0.15-8.29-0.22-12.44
		c0-0.2-0.06-0.39-0.09-0.59c-0.01-0.29-0.02-0.58-0.03-0.87C184.2,211.87,184.17,211.11,184.14,210.36z"></path>
</g>
<polygon fill="#8DF8F5" points="48.57,286.05 48.58,286.01 48.59,286.05 "></polygon>
<path d="M184.22,212.62c0.01,0.29,0.02,0.58,0.03,0.87C184.11,213.2,184.16,212.91,184.22,212.62z"></path>
<g onclick="select(this)" class="" id="c-estampa-secundaria" fill="#000000">
	<path d="M48.57,286.05c-0.11-0.08-0.23-0.15-0.34-0.23c0.13-2.43,0.24-4.86,0.39-7.28c0.1-1.75,0.25-3.5,0.38-5.25
		c0.33-0.22,0.67-0.43,0.98-0.67c12.41-9.63,24.81-19.27,37.22-28.9c28.45-22.08,56.89-44.16,85.34-66.23
		c3.85-2.99,7.73-5.95,11.59-8.92c0.02,0.24,0.06,0.47,0.06,0.71c0,8.46,0.01,16.92-0.01,25.38c-0.01,3.23-0.06,6.46-0.09,9.69
		c-0.33,0.21-0.69,0.4-1,0.64c-14.06,10.9-28.11,21.81-42.16,32.71c-21.82,16.94-43.64,33.87-65.45,50.82
		c-0.49,0.38-1,0.64-1.61,0.7c-8.32-0.29-16.58-1.07-24.68-3.09c-0.19-0.05-0.4-0.05-0.59-0.08c0,0-0.01-0.04-0.01-0.04
		S48.57,286.05,48.57,286.05z"></path>
	<path d="M123.82,289.17c-13.83,0.17-27.67,0.39-41.51,0.23c0.17-0.16,0.34-0.34,0.52-0.48
		c30.69-23.84,61.37-47.67,92.07-71.5c3.06-2.38,6.15-4.7,9.23-7.05c0.03,0.75,0.06,1.51,0.08,2.26c-0.07,0.29-0.12,0.58,0.03,0.87
		c0.03,0.2,0.09,0.39,0.09,0.59c0.07,4.15,0.09,8.3,0.22,12.44c0.2,6.25,0.47,12.51,0.48,18.76c-0.33,0.23-0.66,0.44-0.97,0.68
		c-18.07,14.03-36.15,28.07-54.2,42.12c-0.87,0.67-1.72,1.03-2.83,0.98C125.97,289.01,124.88,288.89,123.82,289.17z"></path>
	<path d="M51.12,188.22c2.39-1.54,4.54-3.4,6.78-5.13c30.36-23.49,60.71-47.01,91.06-70.51
		c14.23-11.02,28.45-22.03,42.69-33.04c0.37-0.28,0.68-0.69,1.19-0.77c0.31,0.5-0.15,0.84-0.28,1.21c-1.14,3.19-1.42,6.54-1.7,9.86
		c-0.36,4.32-0.47,8.65-1.55,12.9c-0.44,1.75-0.52,3.62-0.29,5.47c0.22,1.81-0.28,3.57-0.51,5.35c-0.05,0.4-0.16,0.78-0.01,1.17
		c0,1.06-0.48,2.06-0.36,3.13c-0.53-0.13-0.39,0.36-0.54,0.58c-0.43,0.29-0.87,0.56-1.28,0.88c-19.02,14.73-38.05,29.45-57.07,44.18
		c-17.06,13.21-34.13,26.42-51.19,39.63c-9.1,7.04-18.21,14.08-27.31,21.12c-0.01-0.15-0.03-0.3-0.04-0.45
		c0.12-0.95,0.11-1.9,0.01-2.86c0.32-10.72,0.3-21.44,0.3-32.16C51.03,188.61,51.09,188.42,51.12,188.22z"></path>
	<path d="M184.13,162.36c-1.98,1.15-3.66,2.69-5.46,4.08c-30.8,23.94-61.59,47.89-92.38,71.84
		c-12.05,9.37-24.11,18.73-36.17,28.1c-0.28,0.22-0.59,0.4-0.89,0.6c0.13-2.67,0.25-5.34,0.38-8c0.01-0.24,0.05-0.48,0.05-0.72
		c0.09-3.71,0.17-7.43,0.28-11.14c0.17-5.55,0.37-11.09,0.56-16.64c1.18-0.89,2.38-1.76,3.54-2.66
		c20.65-16.05,41.29-32.11,61.93-48.17c19-14.78,38.01-29.55,57.02-44.32c4.58-3.56,9.18-7.09,13.77-10.63
		c-0.41,3.62-0.85,7.24-1.2,10.86c-0.25,2.57-0.41,5.15-0.53,7.72c-0.28,6.17-0.51,12.33-0.77,18.5
		C184.26,161.98,184.18,162.17,184.13,162.36z"></path>
</g>
<g onclick="select(this)" class="" id="c-estampa-primaria" fill="#bf0811">
	<path d="M123.82,289.17c1.06-0.28,2.15-0.16,3.21-0.11c1.12,0.05,1.97-0.3,2.83-0.98
		c18.06-14.05,36.13-28.09,54.2-42.12c0.31-0.24,0.65-0.45,0.97-0.68c0.21,0.41,0.21,0.85,0.21,1.29
		c-0.01,4.55,0.35,9.09,0.46,13.63c0.16,6.78,0.66,13.54,0.8,20.32c0.03,1.43-0.04,2.92,0.42,4.33c-3.52,1.07-7.14,1.69-10.78,2.21
		c-10.56,1.51-21.2,1.71-31.83,1.92c-6.4,0.13-12.8,0.17-19.19,0.25C124.7,289.24,124.26,289.19,123.82,289.17z"></path>
	<path d="M184.14,210.36c-3.08,2.35-6.17,4.68-9.23,7.05c-30.69,23.83-61.38,47.66-92.07,71.5
		c-0.19,0.15-0.35,0.32-0.52,0.48c-2.82,0.03-5.64,0.15-8.45-0.18c0.61-0.06,1.12-0.31,1.61-0.7
		c21.81-16.95,43.63-33.88,65.45-50.82c14.05-10.91,28.1-21.81,42.16-32.71c0.31-0.24,0.67-0.43,1-0.64
		C184.1,206.36,184.12,208.36,184.14,210.36z"></path>
	<path d="M51.12,188.22c-0.02-2.52-0.04-5.03-0.06-7.55c-0.05-6.55,0.15-13.11-0.15-19.65
		c-0.1-2.12-0.06-4.23-0.17-6.34c-0.22-4.53-0.42-9.06-0.73-13.59c-0.24-3.49-0.49-6.98-0.85-10.45c-0.39-3.74-0.78-7.49-1.54-11.19
		c-0.21-1.01-0.31-2.03-0.46-3.05c-0.23-1.21-1.39-2.04-1.36-3.36c0-0.27-0.12-0.54-0.25-1.08c-1.03,1.28-2.22,1.98-3.71,2.07
		c-1.79,0.1-3.58,0.2-5.37,0.29c-5.6,0.29-11.12-0.3-16.65-1.28c-2.93-0.52-5.9-0.96-8.81-1.54c-3.08-0.61-6.17-1.21-9.24-1.84
		c0.64-4.23,1.29-8.45,1.93-12.68c0.96-6.29,3.03-12.34,4.05-18.61c0.88-5.44,1.55-10.91,3.08-16.23
		c1.58-5.48,3.62-10.75,6.72-15.56c2.75-4.27,6.29-7.81,10.08-11.18c4.85-4.32,10.88-6.27,16.64-8.72
		c7.09-3.02,14.21-5.98,21.23-9.16c3.87-1.75,7.45-4.02,11.03-6.29c0.45-0.29,0.76-0.7,1.11-1.08c1.14-1.24,2.44-2.18,4.23-2.16
		c12.45,1.38,24.87,3.24,37.44,2.96c7.62-0.17,15.24-0.7,22.82-1.61c3.79-0.46,7.57-1.03,11.35-1.56c1.61,0.01,3.01,0.61,4.03,1.8
		c1.32,1.53,3.01,2.48,4.72,3.43c9.12,5.11,18.67,9.28,28.38,13.11c4.32,1.7,8.39,3.93,12.64,5.76c0.47,0.2,0.94,0.48,1.31,0.83
		c3.79,3.55,7.88,6.81,10.9,11.11c3.64,5.18,6.21,10.87,8.03,16.92c2.01,6.69,2.76,13.6,3.87,20.47c1.56,9.7,2.62,19.49,4.65,29.12
		c0.09,0.43,0.09,0.87,0.13,1.31c-2.82,0.89-5.69,1.48-8.63,1.84c-6.09,0.75-12.16,1.7-18.26,2.31c-3.16,0.32-6.4,0.31-9.57-0.11
		c-1.94-0.26-3.46-1.57-5.03-2.66c-0.45-0.31-0.82-0.75-1.42-0.83c-0.35,0.84,0.01,1.86-0.74,2.55c-0.15-0.39-0.04-0.77,0.01-1.17
		c0.23-1.78,0.74-3.54,0.51-5.35c-0.23-1.85-0.15-3.73,0.29-5.47c1.07-4.25,1.18-8.58,1.55-12.9c0.28-3.32,0.56-6.67,1.7-9.86
		c0.13-0.37,0.59-0.71,0.28-1.21c-0.51,0.08-0.82,0.48-1.19,0.77c-14.23,11.01-28.46,22.02-42.69,33.04
		c-30.35,23.51-60.7,47.02-91.06,70.51C55.66,184.83,53.51,186.68,51.12,188.22z"></path>
	<path d="M184.13,162.36c0,2.07-0.01,4.14-0.01,6.21c-3.86,2.97-7.74,5.93-11.59,8.92
		c-28.45,22.07-56.9,44.15-85.34,66.23c-12.41,9.63-24.81,19.27-37.22,28.9c-0.31,0.24-0.66,0.45-0.98,0.67
		c0.08-2.1,0.17-4.21,0.25-6.31c0.3-0.2,0.61-0.39,0.89-0.6c12.06-9.36,24.12-18.73,36.17-28.1c30.79-23.95,61.58-47.9,92.38-71.84
		C180.47,165.05,182.16,163.51,184.13,162.36z"></path>
	<path d="M186.76,124.7c-4.59,3.54-9.19,7.07-13.77,10.63c-19.01,14.77-38.01,29.54-57.02,44.32
		c-20.64,16.05-41.28,32.11-61.93,48.17c-1.17,0.91-2.36,1.78-3.54,2.66c-0.2-2.08,0.27-4.13,0.25-6.21
		c9.1-7.04,18.21-14.08,27.31-21.12c17.06-13.21,34.13-26.42,51.19-39.63c19.02-14.73,38.04-29.46,57.07-44.18
		c0.41-0.32,0.85-0.59,1.28-0.88c0,1.65-0.52,3.23-0.64,4.86C186.93,123.78,186.83,124.24,186.76,124.7z"></path>
</g>
<path d="M50.73,220.97c0.09,0.95,0.1,1.91-0.01,2.86C50.72,222.87,50.73,221.92,50.73,220.97z"></path>
</svg>
