<!--?xml version="1.0" encoding="utf-8"?-->
<!-- Generator: Adobe Illustrator 24.2.3, SVG Export Plug-In . SVG Version: 6.00 Build 0)  -->
<svg version="1.1" id="Camada_1" xmlns="http://www.w3.org/2000/svg" xmlns:xlink="http://www.w3.org/1999/xlink" x="0px" y="0px" viewBox="0 0 229 418" enable-background="new 0 0 229 418" xml:space="preserve">
<g onclick="select(this)" class="" id="estampa-primaria" fill="#000000">
	<path d="M43.184227,120.3591003c-0.1574593-1.9019699-0.2635918-3.8100281-0.4886246-5.7039795
		c-0.1797981-1.5132675-0.3913536-1.6106033-1.9219894-1.3255692c-1.0546684,0.1964035-2.1054993,0.4133453-3.1596031,0.6128845
		c-3.7236557,0.7048569-7.4897099,0.4062195-11.2349834,0.3948441c-6.4752865-0.0196609-12.9171953-0.5751572-19.2143612-2.1471405
		c-2.0026436-0.499939-4.0013113-1.0857773-5.9778385-1.7141418c1.020895-4.8060684,1.6644146-9.6716461,2.3388951-14.5333023
		c0.872649-6.2900543,1.9116194-12.5599365,2.6439087-18.8657761c0.7765994-6.6873932,1.853642-13.2944374,3.974463-19.697525
		c2.9442616-8.8891754,7.7607107-16.5268593,15.1724825-22.392849c1.1417255-0.9036102,1.9524097-2.1724854,3.2811241-2.8633461
		c3.6190052-1.8817024,7.2620258-3.7168369,11.0347271-5.271349c9.9860153-4.1146584,19.9939613-8.1792221,29.4552879-13.4397125
		c1.9744034-1.0977669,3.9967499-2.0936747,5.5144348-3.8991308c0.8429108-1.0027447,2.0579147-1.6459785,3.4937134-1.5504146
		c-1.6598358,0.9146581-2.0019836,2.3754401-1.6840515,4.0964561c0.3956909,2.1419916,1.0861511,4.1798086,2.3278809,5.9871454
		c5.9329224,8.6352997,14.296669,13.8952675,24.0654449,17.1269894c2.041748,0.6754532,4.1874008,1.1419945,6.5661926,0.9732132
		c-0.818985-1.2918892-1.7138596-2.3421478-2.6657181-3.3343887c-4.3846359-4.5706615-9.3081741-8.5244236-14.2901917-12.4103851
		c-2.5010681-1.9508305-4.6982346-4.208477-6.6866608-6.6749144c-0.9601822-1.1910152-1.7149582-2.4964218-2.3023758-3.9077702
		c-0.2885437-0.6932478-0.2463684-1.0194101,0.6452408-0.9307556c3.5362701,0.351614,7.0733414,0.7046528,10.6162415,0.9779987
		c7.921875,0.6111984,15.8302765,1.4430838,23.8044815,0.9912195c6.261795-0.3548279,12.5223312-0.704565,18.7725449-1.2287455
		c2.2623138-0.1897326,4.5277405-0.3423519,6.9600983-0.5245132c-0.3562012,0.7652731-0.6235199,1.4240294-0.9593048,2.0458479
		c-1.2259827,2.2702398-2.8836212,4.2098074-4.6701813,6.0531158c-2.8812408,2.9727859-6.3737335,5.2001953-9.5260773,7.842041
		c-3.523674,2.9530506-7.0875015,5.8638573-9.9547958,9.5003853c-0.3962326,0.5025253-0.8958893,0.9767723-0.9921494,1.7654648
		c1.0281219-0.1467667,1.9737854-0.0354576,2.9256516-0.2119141c5.0719757-0.9402618,9.6617355-3.0744553,14.078331-5.6319599
		c3.2989349-1.9103127,6.3558502-4.1792526,9.1010895-6.8097744c3.0965118-2.9671154,5.4707642-6.4256573,6.640976-10.6468983
		c0.6189423-2.2326078,0.0174561-4.2712574-1.6764832-4.7439165c1.9420471-0.3230171,3.1181183,0.8975677,4.2487946,2.1523972
		c0.3474121,0.3855724,0.6845703,0.7272234,1.1278381,1.02145c8.8714447,5.888566,18.7893372,9.6126204,28.526062,13.6821756
		c5.067276,2.1179237,10.0380096,4.4439087,15.0908356,6.5872955c0.2853851,0.121069,0.5596008,0.2832184,0.8128815,0.4630032
		c12.0054626,8.5214882,19.2169037,20.1563911,21.3936157,34.5978508
		c1.7050781,11.3124924,4.6848145,22.3671265,6.2290497,33.6951218c0.3612823,2.6502228,0.8081512,5.2887878,1.2156677,7.9327545
		c-0.4072723-0.0320892-0.7870331,0.0516357-1.1609039,0.2217789c-5.2508698,2.3895721-10.8408508,3.4043884-16.5039825,4.2465134
		c-4.9055786,0.7294693-9.8006744,1.3550644-14.7624969,1.0241394c-3.0189819-0.2013397-6.0679779-0.007515-9.0567627-0.6636734
		c-0.4004364-0.0879288-1.0440521-0.3493347-1.0703583,0.4709015c-0.0688629,2.1481247-0.9662018,4.2106934-0.6513672,6.3962173
		c-0.4419403,0.8073044-0.2948303,1.7095184-0.3963318,2.5679779c-0.9907074,8.3786392-1.7198181,16.7760849-1.745636,25.2220383
		c-0.0067291,2.2005463,0.0687408,4.3852692,0.5246124,6.5559692c0.4008789,1.9087372-0.0432281,3.8250885-0.2062225,5.7295837
		c-0.1811066,2.1162109-0.2468414,4.2292175-0.1479797,6.3477325c0.1008911,2.1623993-0.1498413,4.3116608-0.2017212,6.4661102
		c-0.0682373,2.8337555-0.1215973,5.6735077,0.1285095,8.5087433c0.1475983,1.6730652,0.0784607,3.3501434-0.098175,5.02742
		c-0.3134613,2.9759674,0.161026,5.8720398,0.824295,8.7793121c1.6766205,7.3491974,1.4777679,14.7560425,0.394516,22.1660767
		c-0.3131714,2.142395-0.3707123,4.2083435,0.3324127,6.3562622c1.789505,5.466568,1.8004761,11.0871277,0.9232635,16.7248077
		c-0.2115173,1.3592529-0.2436066,2.6841888,0.0700836,4.0361938c0.886261,3.8198547,0.4920807,7.7170715,0.6769562,11.5814056
		c0.2862549,5.9835815,0.6884613,11.9625854,1.4403229,17.9147034c0.2537231,2.008667,0.2185516,4.0574036,0.2538147,6.0889282
		c0.0314789,1.8131409-0.3387299,2.3127136-2.0966034,2.8403625c-2.9675903,0.8908081-6.046051,1.1467896-9.1074371,1.463501
		c-7.7273102,0.7994385-15.4857635,0.8745728-23.2448273,1.0192871
		c-11.2361755,0.2095642-22.4684143,0.6523743-33.7049484,0.8126526c-12.4795532,0.178009-24.9379959-0.848877-37.4192505-0.848999
		c-8.3984146-0.0000916-16.799118-0.1004944-25.1803284-0.7364502c-4.1492767-0.3148499-8.2854118-0.7527771-12.3534241-1.6774292
		c-0.2727928-0.0620117-0.5451469-0.1272583-0.8147545-0.2017212c-3.0011635-0.8287048-3.3434029-1.173645-3.1586952-4.2307129
		c0.4741859-7.848175,1.0208855-15.6920776,1.5688667-23.535553c0.1421928-2.0353699,0.2741928-4.0685883,0.2251472-6.1084442
		c-0.0433769-1.8041687,0.0425301-3.5978241,0.3647537-5.3743591c0.4024925-2.2190704,0.4543953-4.4303284,0.1269684-6.6729889
		c-0.3675308-2.5173645-0.1233711-5.0311584,0.42342-7.5046387c0.237915-1.0762024,0.1960411-2.1278687,0.1169281-3.2104492
		c-0.3260307-4.4614716-1.0035973-8.9028625-0.8237762-13.394516c0.1759071-4.393631,1.2030106-8.6131439,2.7054672-12.72258
		c0.3647614-0.9976807,0.5816841-1.9600372,0.4271965-3.0288544c-0.1776123-1.2288208-0.1682091-2.4718018,0.0631027-3.7023163
		c0.3129845-1.6650085,0.2037849-3.326767,0.1185341-5.0112915c-0.1672783-3.3053589-0.1792717-6.6202087-0.1929398-9.9314117
		c-0.0532684-12.9004364-0.0429573-25.8012695-0.1390572-38.7013397c-0.0387688-5.2046204-0.991291-10.3377228-1.5477562-15.5010147
		C43.6215096,122.9213791,43.7198563,121.5897675,43.184227,120.3591003z"></path>
</g>
<g onclick="select(this)" class="" id="gola-primaria" fill="#000000">
	<path d="M149.1920471,8.2665339c1.6939392,0.4726591,2.2954254,2.5113087,1.6764832,4.7439165
		c-1.1702118,4.221241-3.5444641,7.6797829-6.640976,10.6468983c-2.7452393,2.6305218-5.8021545,4.8994617-9.1010895,6.8097744
		c-4.4165955,2.5575047-9.0063553,4.6916981-14.078331,5.6319599c-0.9518661,0.1764565-1.8975296,0.0651474-2.9256516,0.2119141
		c0.0962601-0.7886925,0.5959167-1.2629395,0.9921494-1.7654648c2.8672943-3.636528,6.4311218-6.5473347,9.9547958-9.5003853
		c3.1523438-2.6418457,6.6448364-4.8692551,9.5260773-7.842041c1.7865601-1.8433084,3.4441986-3.782876,4.6701813-6.0531158
		c0.3357849-0.6218185,0.6031036-1.2805748,0.9593048-2.0458479c-2.4323578,0.1821613-4.6977844,0.3347807-6.9600983,0.5245132
		c-6.2502136,0.5241804-12.5107498,0.8739176-18.7725449,1.2287455c-7.974205,0.4518642-15.8826065-0.3800211-23.8044815-0.9912195
		c-3.5429001-0.2733459-7.0799713-0.6263847-10.6162415-0.9779987c-0.8916092-0.0886545-0.9337845,0.2375078-0.6452408,0.9307556
		c0.5874176,1.4113483,1.3421936,2.7167549,2.3023758,3.9077702c1.9884262,2.4664373,4.1855927,4.7240839,6.6866608,6.6749144
		c4.9820175,3.8859615,9.9055557,7.8397236,14.2901917,12.4103851c0.9518585,0.9922409,1.8467331,2.0424995,2.6657181,3.3343887
		c-2.3787918,0.1687813-4.5244446-0.29776-6.5661926-0.9732132c-9.7687759-3.2317219-18.1325226-8.4916897-24.0654449-17.1269894
		c-1.2417297-1.8073368-1.9321899-3.8451538-2.3278809-5.9871454c-0.3179321-1.7210159,0.0242157-3.181798,1.6840515-4.0964561
		c0.5143661-0.0252366,0.9027328-0.3090868,1.2522583-0.6413717c0.9263687-0.8806643,2.0001678-1.6612997,2.7273788-2.6858664
		c2.0422745-2.8773975,5.0196915-3.6030319,8.2393723-3.9380414c3.0733871-0.3197877,6.1406097,0.0641102,9.2117691,0.0276584
		c4.3972549-0.0521912,8.7969818,0.0443268,13.1928406-0.0513675c7.9100418-0.1721947,15.8178406,0.0474255,23.7266388,0.0363705
		c0.912384-0.0012754,1.8285217,0.1743852,2.7368927,0.3086998c2.2479095,0.3323816,4.1504211,1.1903371,5.5703125,3.1194048
		C145.9542999,5.7696943,147.367691,7.2616229,149.1920471,8.2665339z"></path>
</g>
<g onclick="select(this)" class="" id="detalhe-punho" fill="#bf0811">
	<path d="M0.24,114.41436c0.6107783-1.2420959,0.4154505-2.6777496,0.9468267-3.9383621
		c1.976527,0.6283646,3.9751949,1.2142029,5.9778385,1.7141418c6.2971659,1.5719833,12.7390747,2.1274796,19.2143612,2.1471405
		c3.7452736,0.0113754,7.5113277,0.3100128,11.2349834-0.3948441c1.0541039-0.1995392,2.1049347-0.416481,3.1596031-0.6128845
		c1.5306358-0.2850342,1.7421913-0.1876984,1.9219894,1.3255692c0.2250328,1.8939514,0.3311653,3.8020096,0.4886246,5.7039795
		c-0.9007339,0.7405167-2.0174828,0.9574585-3.1024132,1.1645813c-2.5106468,0.4793091-5.038868,0.7957077-7.609993,0.8197708
		c-6.994585,0.0654373-13.9775391,0.038559-20.892168-1.2381592c-3.0178013-0.5572052-6.0275316-1.1423187-8.9426279-2.1199341
		c-0.8160248-0.273674-1.598931-0.6459885-2.3970258-0.9730606C0.24,116.8129883,0.24,115.613678,0.24,114.41436z"></path>
	<path d="M184.6309204,120.0944595c-0.3148346-2.185524,0.5825043-4.2480927,0.6513672-6.3962173
		c0.0263062-0.8202362,0.6699219-0.5588303,1.0703583-0.4709015c2.9887848,0.6561584,6.0377808,0.4623337,9.0567627,0.6636734
		c4.9618225,0.330925,9.8569183-0.2946701,14.7624969-1.0241394c5.6631317-0.8421249,11.2531128-1.8569412,16.5039825-4.2465134
		c0.3738708-0.1701431,0.7536316-0.2538681,1.1609039-0.2217789c1.1353607,2.336441,1.1766968,4.8449707,1.0996246,7.3563385
		c-0.0221863,0.7228928-0.7844391,0.8354187-1.3140411,1.0370178c-2.8729095,1.0936127-5.8452148,1.8682861-8.8147736,2.6399994
		c-8.731369,2.2690582-17.6292267,2.7698975-26.595108,2.3430557c-2.0615845-0.0981522-4.1379395-0.3113708-6.1459808-0.8887787
		C185.5256805,120.7307129,184.9997711,120.5572357,184.6309204,120.0944595z"></path>
</g>
<path d="M228.6799622,112.15345c0.0933533-0.0244827,0.1866913-0.0489655,0.2800446-0.0734482
	c0,0.6399994,0,1.2800064,0,1.9200058C228.8144379,113.3924103,228.5831299,112.7978134,228.6799622,112.15345z"></path>
<g onclick="select(this)" class="" id="estampa-secundaria" fill="#009045">
	<path d="M183.5371857,129.1426392c-8.9188232-0.0064697-17.8376312-0.016449-26.7564545-0.0185852
		c-13.2785492-0.0031891-26.5571442-0.0139313-39.8355865,0.0240784c-1.0608749,0.0030365-1.3270416-0.2697296-1.3258133-1.3273697
		c0.0306931-26.3970871,0.0233994-52.7942276,0.025032-79.1913452c0.0002441-3.9591179,0.0114517-7.9182396,0.0175323-11.8773766
		c1.5624924,0.0451584,3.0507507-0.6086121,4.6209793-0.4910965c-0.0141449,0.2390137-0.0406952,0.4780235-0.0406723,0.7170334
		c0.0026169,28.6665077,0.0143967,57.3330269-0.0152283,85.9994812c-0.0011673,1.1255722,0.4674454,1.1735153,1.3430634,1.1727371
		c20.3904266-0.0180206,40.7808533-0.013649,61.1712952-0.0157928c0.439209-0.0000381,0.878418-0.027916,1.3176422-0.0428162
		C184.1020203,125.7976837,183.877533,127.4761429,183.5371857,129.1426392z"></path>
	<path d="M126.7329559,34.612915c-0.3762207,0.4034805-0.2484665,0.9050598-0.2483521,1.3717117
		c0.006958,26.7029991,0.0250168,53.4059982,0.007782,80.1089783c-0.0006638,1.0173416,0.2946472,1.2499237,1.2731247,1.247963
		c18.9476547-0.0378952,37.8953781-0.0464554,56.843071-0.0338364c0.0426941,0.0000305,0.1379547-0.045372,0.1299133-0.0022125
		c-0.1221771,0.6553497-0.2681427,1.9436646-0.1075745,2.7889404c-0.1337433,0.6232224-0.2507935,1.4959946-0.3807831,2.1017151
		c-20.2662048,0.0001373-40.5324097,0.0003586-60.7986069,0.0002594c-1.546524-0.0000076-1.5473099-0.0009995-1.5473251-1.5332336
		c-0.0001678-24.3438339,0.0009613-48.6876678-0.0011978-73.0314941c-0.0003433-3.8766098-0.0152512-7.7532234-0.0230331-11.6297913
		C123.4465942,35.3597145,125.0798798,34.9517708,126.7329559,34.612915z"></path>
	<path d="M106.5328522,286.2375793c0.004425-8.9968567,0.0123367-17.9936829,0.0126572-26.990509
		c0.0014191-39.427475,0.0046692-78.8549347-0.0221176-118.2823944c-0.0006866-1.0065002,0.2734146-1.7237854,0.9849701-2.4153595
		c1.1890259-1.1556091,2.2878189-2.404068,3.6488266-3.8520203c0,50.8128052,0,101.2943878-0.0000687,151.7759705
		c-0.1844025,0.0924072-0.3654709,0.0894165-0.5431595-0.0187073c0.020256-0.358429,0.0591965-0.7168884,0.0585403-1.0752563
		c-0.013176-7.1903992-0.0370941-14.3807983-0.0458374-21.5711975c-0.0075378-6.1923218,0.0068588-12.3847198-0.0100098-18.5770111
		c-0.0011368-0.4161072,0.2731171-0.9742737-0.4117279-1.2618713c-0.0167465,0.3530731-0.0445099,0.6682587-0.0447922,0.9834747
		c-0.0120621,13.4231567-0.0222321,26.8463135-0.0288773,40.2694702c-0.0001984,0.3983154,0.039711,0.7966003,0.0609283,1.1949463
		c-0.1834564,0.131073-0.3586655,0.1677551-0.5121918-0.0446777c-0.0159302-14.4517517-0.0317993-28.9034729-0.0479965-43.6586456
		c-0.5570908,0.522934-0.4511185,0.8123779-0.4536133,1.0678406c-0.0688248,7.0276642,0.0294189,14.0548248-0.1284332,21.0840302
		c-0.1605301,7.1483459-0.0644836,14.3024292-0.0807953,21.4539795c-0.0863113-0.0040588-0.1726227-0.0080872-0.2589188-0.012146
		c-0.0061722-0.1996155-0.0175323-0.399292-0.0177841-0.5989075c-0.0180817-14.1582336-0.0336914-28.3164978-0.0592041-42.4747162
		c-0.0008926-0.4972382,0.1696625-1.0784607-0.617485-1.7154999c0,15.1309814,0,29.9509583,0,44.7709351
		c-0.0966644-0.0052185-0.1933289-0.010437-0.2899094-0.0156555c-0.0094223-0.1192627-0.0268784-0.2384949-0.0273056-0.3577881
		c-0.0519333-14.5492554-0.1026154-29.0985718-0.1532593-43.6478424c-0.0009766-0.2798767,0.0188065-0.561554-0.0066605-0.8391266
		c-0.0224915-0.2451782,0.0965424-0.5984497-0.3932037-0.6125336c-0.0223312,0.1944427-0.0637817,0.3874359-0.0639114,0.5804443
		c-0.0101089,14.9534454-0.0169754,29.9068451-0.024086,44.8602753
		C106.8825684,286.2505798,106.7077103,286.2440796,106.5328522,286.2375793z"></path>
	<path d="M100.28685,285.9977417c-0.0010223-0.7594299,0.000267-1.5188904-0.0033875-2.2783203
		c-0.2177429-45.2640381-0.1433868-90.5284119-0.1787491-135.7926636c-0.0007706-0.9938354,0.2321396-1.7295837,0.9583435-2.4283447
		c1.2229004-1.176651,2.3448334-2.4582214,3.555954-3.7453003c0.3576889,0.5764771,0.2121124,1.0628204,0.2122345,1.5175781
		c0.0089035,32.2724915,0.0071106,64.5449524,0.0091095,96.8174438c0.0009155,14.8764801,0.0069885,29.7529907,0.0149841,44.6294861
		c0.0002518,0.4777527,0.0473404,0.9554749,0.0723877,1.4332275c-0.1894684,0.1550598-0.3685989,0.1846924-0.5270004-0.0426025
		c-0.0000305-15.9726563-0.0000305-31.9453278-0.0000305-47.9179993c-0.6093521,0.2592773-0.4959869,0.5886841-0.4990768,0.8843689
		c-0.072731,6.950058,0.0045013,13.8996582-0.1269836,20.8513794c-0.1647644,8.7104797-0.0623703,17.4260254-0.0752792,26.1394348
		c-0.0966339-0.0035095-0.1932755-0.0069885-0.2897491-0.0104675c-0.0145721-0.278656-0.0413818-0.557251-0.0423203-0.835907
		c-0.052681-15.5809631-0.1032028-31.1619415-0.1538391-46.7428894c-0.0009155-0.2797394,0.0261688-0.5628662-0.0088577-0.8381805
		c-0.0288391-0.2266083,0.1562958-0.595871-0.4648743-0.6212006c0,16.3530579,0,32.6911621,0,49.0292664
		c-0.1693344-0.0010681-0.3386612-0.0021973-0.5081177-0.0032349c0.0077438-0.1196899,0.0226135-0.2393799,0.0225372-0.3590393
		c-0.0107803-16.309967-0.0217361-32.6199036-0.0411224-48.9298553c-0.0003891-0.324173,0.1600494-0.7471313-0.4640045-0.952301
		c0,0.4259491,0.0002441,0.8078918-0.0000381,1.1898346c-0.011528,15.8704376-0.0234985,31.7408752-0.0327072,47.6113281
		c-0.0002747,0.4790955,0.0284729,0.9581909,0.0436859,1.4372864c-0.167717-0.0072937-0.3354416-0.0145874-0.5032578-0.0218811
		c-0.010025-16.7119446-0.0186768-33.4239197-0.0383987-50.1358948c-0.0004196-0.3566437,0.1904907-0.8174133-0.6223602-1.1700134
		c0,17.191864,0,34.2411499,0,51.2904358C100.492897,286.0010681,100.3898773,285.9994202,100.28685,285.9977417z"></path>
	<path d="M44.9116707,133.9012756c4.4774055-0.0094452,8.9548111-0.0261688,13.4322166-0.0270386
		c16.8330307-0.0032196,33.6660614-0.0012665,50.4990921-0.0012665c0.4380646,0,0.8761368,0,1.6151352,0
		c-1.5905762,1.6881409-3.0123825,3.2084351-4.4508438,4.7128143c-0.2414322,0.2524872-0.6047516,0.1616516-0.9188385,0.1615753
		c-19.911377-0.0058594-39.8227539-0.0144958-59.7341347-0.0228119
		C45.0113335,137.1347656,44.8734245,135.5261078,44.9116707,133.9012756z"></path>
	<path d="M45.3619003,140.6567841c6.1584473,0.0096436,12.3168869,0.025589,18.4753418,0.0276337
		c12.8772583,0.004303,25.7545242,0.001297,38.6317825,0.0012817c0.4249115,0,0.849823-0.0000153,1.6234894-0.0000153
		c-1.613739,1.7395172-3.0041122,3.248764-4.4083252,4.7450562c-0.3830185,0.4081268-0.908783,0.2286835-1.3704071,0.2288971
		c-17.0763626,0.0083618-34.1527328,0.0067902-51.2290955,0.0081482c-0.5595551,0.0000458-1.1191139,0.0165558-1.6786575,0.0252533
		C45.231041,144.0156097,45.2460213,142.3366241,45.3619003,140.6567841z"></path>
</g>
<g onclick="select(this)" class="" id="estampa-terciaria" fill="#bf0811">
	<path d="M111.161499,36.7410812c-0.0028915,3.9980621-0.0081787,7.9961281-0.0082855,11.9941902
		c-0.0007248,26.3136024-0.0092239,52.6272316,0.0280228,78.9407806c0.0017166,1.2130432-0.2950974,1.5216675-1.5143967,1.5194092
		c-21.394722-0.0397797-42.7895508-0.0286102-64.1843491-0.0300446c-0.3594284-0.0000305-0.7188606-0.019043-1.078289-0.029068
		c-0.4106483-1.569313-0.5295982-3.1745682-0.5875435-4.7878265c0.4381714-0.0168915,0.8763657-0.0474777,1.3145676-0.0475311
		c19.9952393-0.0023651,39.9904938-0.012085,59.9856644,0.0242233c1.1368484,0.0020676,1.4618073-0.2468796,1.4600143-1.429184
		c-0.0378036-24.9540024-0.0274429-49.9080734-0.0307999-74.8621368c-0.0005341-3.998127-0.0216064-7.9962578-0.0331802-11.9943886
		C108.0874786,36.1075401,109.6520538,36.2416534,111.161499,36.7410812z"></path>
	<path d="M42.9556465,117.3818054c0.4379768-0.0022202,0.8759995-0.0061951,1.3139229-0.0061951
		c18.1169624-0.0000916,36.2339554-0.0117111,54.3508453,0.0266266c1.1834183,0.0024948,1.5333786-0.2482147,1.5310211-1.4962006
		c-0.0425568-22.596138-0.0293884-45.1923752-0.0323944-67.7885895c-0.000618-4.5984955-0.0187073-9.1969833-0.028801-13.7954826
		c1.653656,0.3613548,3.2972412,0.7568741,4.854599,1.4425507c-0.0212173,0.3581352-0.0601883,0.7162209-0.061058,1.0744057
		c-0.0161209,6.6785316-0.037056,13.3570709-0.0385132,20.0356178c-0.0046616,21.276722-0.0016861,42.5534401-0.0018234,63.8301659
		c-0.0000153,1.658165-0.0006409,1.658577-1.7104492,1.6587753c-19.8369217,0.0022964-39.6738396,0.0044632-59.5107613,0.0066605
		c-0.3445473-0.5333786-0.0919037-1.1741867-0.3433685-1.8007278
		C43.0922356,120.0159988,42.9990578,118.2287064,42.9556465,117.3818054z"></path>
	<path d="M115.6529999,286.5037537c-0.001915-50.2210083-0.0038376-100.4420319-0.0057526-150.6630402
		c-0.0000076-0.2381439,0.0000076-0.4763031,0.0000076-0.9983978c1.5938034,1.6771851,3.0334015,3.1781464,4.4526978,4.6980743
		c0.2659683,0.2848358,0.1485062,0.6904755,0.1485367,1.0434418c0.0032883,39.585083,0.0053787,79.170166,0.0012512,118.755249
		c-0.0009384,9.0355225-0.0240021,18.0709839-0.0374374,27.1066284c-0.1473923,0.006958-0.2942352,0.013855-0.4413376,0.0206604
		c-0.0002594-15.2119141-0.0002594-30.4237976-0.0002594-45.8916473c-0.6636963,0.5477753-0.5047989,0.9715424-0.5063934,1.335556
		c-0.0634537,14.4960327-0.1167984,28.9920959-0.1722946,43.4881592c-0.0013733,0.3591003-0.0122452,0.7181396-0.0186844,1.0772095
		c-0.0937195,0.0006714-0.1874237,0.0013428-0.2812576,0.0019836c-0.0001068-14.8951416-0.0001068-29.7902527-0.0001068-44.6853333
		c-0.2093964-0.0003815-0.418808-0.0007477-0.6282043-0.0011139c-0.0229645,14.899704-0.0459137,29.7993927-0.0688705,44.6991119
		c-0.0977249,0.0014343-0.1954575,0.0028687-0.2930145,0.0042725c-0.0764847-14.4857788-0.1531448-28.9715881-0.2298126-43.4573975
		c-0.151825,0.0005188-0.3036652,0.0010071-0.4554977,0.0015259c0,14.4874573,0,28.9749451,0,43.4624329
		c-0.1602859,0.0009766-0.3205643,0.0019226-0.4809265,0.0028992c-0.0000839-14.1065369-0.0000839-28.2130432-0.0000839-42.3195801
		c-0.1495438-0.0000916-0.2990952-0.0002136-0.4486389-0.0003357c-0.07827,14.1062622-0.1565552,28.2125244-0.2348328,42.3187866
		C115.8523865,286.5032043,115.7527008,286.503479,115.6529999,286.5037537z"></path>
	<path d="M121.9493332,286.3562927c0-48.1775208,0-96.3550568,0-144.7691345
		c1.5369415,1.66185,2.9587631,3.1846161,4.3608932,4.725296c0.3612061,0.3969116,0.1939468,0.921463,0.1943283,1.3881226
		c0.0080566,9.8362427,0.0057907,19.6724701,0.0060654,29.5087128c0.0010529,36.2261505,0.0023117,72.4522705,0.0028,108.6784058
		c0,0.1196899-0.0102158,0.2393494-0.0156784,0.3590088c-0.1540527,0.0025024-0.3080978,0.0049744-0.4625626,0.0074768
		c-0.0004425-17.1234436-0.0004425-34.2469025-0.0004425-51.3703461c-0.1717072-0.0005493-0.3434219-0.0010986-0.5151291-0.0016327
		c0,17.1285858,0,34.2571411,0,51.3857422c-0.1558685,0.0039978-0.3117294,0.0079651-0.4677658,0.0119629
		c-0.0001602-16.7955933-0.0001602-33.591156-0.0001602-50.3867493c-0.1701126-0.0009155-0.3402252-0.0018463-0.5103378-0.0027618
		c-0.0621262,16.799118-0.1242523,33.5982819-0.1863861,50.3973846c-0.0951157,0.0013123-0.1902084,0.0026245-0.2853241,0.0039368
		c0-16.4301758,0-32.860321,0-49.2904663c-0.2052231-0.0007935-0.4104462-0.0015717-0.6156769-0.0023499
		c-0.059967,16.4342804-0.0728836,32.8690186-0.0838699,49.3037415c-0.0952759,0.0040283-0.190567,0.0081177-0.2855606,0.0121765
		c0.0002823-16.0818176,0.0002823-32.1636047,0.0002823-48.2454071c-0.2145157-0.0005341-0.4290161-0.0010986-0.6435318-0.0016327
		c-0.0163727,16.0903625-0.0327454,32.1806946-0.049118,48.2710266
		C122.2522583,286.5401917,122.1048126,286.5500488,121.9493332,286.3562927z"></path>
	<path d="M182.6877289,138.9138489c-20.1882782,0.0008087-40.3765564-0.002182-60.564827,0.0166016
		c-0.7793045,0.0007172-1.3572083-0.1860962-1.8857269-0.782547c-1.2095871-1.365036-2.4812393-2.6751251-3.9185715-4.2115631
		c22.4282379,0,44.5897064,0,66.7511902,0.0002136C183.0646515,135.6051788,182.9368744,137.2641754,182.6877289,138.9138489z"></path>
	<path d="M182.5570679,145.6635742c-18.102005,0.0015717-36.2040405-0.0001984-54.3060303,0.0175476
		c-0.6941528,0.0006866-1.2102432-0.1684723-1.6737518-0.7005005c-1.1527557-1.3231964-2.3501053-2.6075439-3.7213135-4.1188202
		c20.0539551,0,39.9113464,0,59.7687683-0.0000763C182.6782837,142.4633484,182.7157745,144.0648346,182.5570679,145.6635742z"></path>
</g>
<path d="M150.1598206,8.6111917c-0.3104706-0.08465-0.6486359-0.1165152-0.8349304-0.4377737
	c0.3991547-0.0078735,0.8152313-0.1878066,1.1825714,0.1173925C150.3912811,8.3974266,150.2755585,8.5043087,150.1598206,8.6111917z
	"></path>
<path d="M28.7778282,32.801136c0,0.6437988,0,1.2876015,0,1.9314041
	C28.5145493,34.096199,28.4021358,33.4548874,28.7778282,32.801136z"></path>
<path d="M77.9894409,7.9259658c-0.0977936,0.2956042-0.3339233,0.4035239-0.6126862,0.4517789
	c-0.0197754-0.1325464-0.0405045-0.2645626-0.0609131-0.3966184C77.5405884,7.9627132,77.7650146,7.9443398,77.9894409,7.9259658z"></path>
</svg>
