<?xml version="1.0" encoding="utf-8"?>
<!-- Generator: Adobe Illustrator 21.0.0, SVG Export Plug-In . SVG Version: 6.00 Build 0)  -->
<svg version="1.1" id="Camada_1" xmlns="http://www.w3.org/2000/svg" xmlns:xlink="http://www.w3.org/1999/xlink" x="0px" y="0px"
	 viewBox="0 0 228.7 418.8" style="enable-background:new 0 0 228.7 418.8;" xml:space="preserve">
<style type="text/css">
	.st0{fill:#BF0811;}
</style>
<g>
	<path id="gola-primaria" d="M77.9,7.9c0.6-0.4,1.3-0.7,1.8-1.1c0.8-0.7,1.6-1.3,2.2-2.2c2.3-3.3,5.8-4.1,9.5-4.1
		c10.8-0.1,21.7,0,32.5,0c3.7,0,7.4-0.1,11.1,0c2,0.1,4,0.5,6,0.8c1.3,0.2,2.3,1.1,3.3,2.1c1.6,1.7,3.3,3.2,5,4.8
		c1,0.5,1.8,1.1,1.8,2.3c0,1-0.1,2.1-0.3,3.1c-0.8,3.1-2.6,5.8-4.6,8.2c-3.4,3.5-7.2,6.6-11.4,9c-3.4,1.9-6.8,3.7-10.6,4.5
		c-0.5,0.1-1.1,0.1-1.6,0.2c-2.1,0.4-4.2,0.8-6.3,1.2c-1.3,0-2.6,0-3.9,0c-1.2-0.2-2.4-0.5-3.6-0.6c-1.4-0.2-2.7-0.3-4.1-0.5
		c-2-0.6-4-1.1-5.9-1.8c-6.7-2.8-12.5-6.9-17.5-12.1c-0.2-0.3-0.4-0.6-0.7-1c-1.9-2.3-3.3-4.8-4-7.7C75.9,10.5,76.2,9.2,77.9,7.9z
		 M83.3,8.6C84.5,17,101.4,28,113,28.3c12.1,0.4,29.2-10.2,31.2-19.5C123.8,11.4,103.6,11.6,83.3,8.6z"/>
</g>
<g id="estampa-secundaria">
	<path class="st0" d="M184.1,200.4c0.2,2.4,0.6,4.8,0.5,7.1c-0.2,4.3-0.8,8.6-1.2,12.9c-0.1,0.5-0.1,1.1,0.1,1.5
		c2.2,6.3,2.4,12.7,1.5,19.3c-0.2,1.6,0.1,3.4,0.2,5.1c-47.1,0-94.1,0-141.1,0c-0.6,0-1.3,0-1.9,0c0-0.7,0.1-1.5,0.1-2.2
		c0.1-2.2,0.1-4.4,0.2-6.5c0.1-2.2-0.1-4.4,0.2-6.6c0.4-2.4,0.2-4.7,0.1-7c-0.3-3.9-0.6-7.9-0.5-11.8c0.1-4,1.1-7.9,2.6-11.7
		c9.4,0,18.8,0,28.2,0C110.1,200.4,147.1,200.4,184.1,200.4z"/>
	<path class="st0" d="M43.2,120.4c-0.3-2.9-0.6-5.8-0.8-8.6c0-0.5,0-0.9,0-1.4c0.5,0.1,1,0.2,1.5,0.2c46.7,0,93.3,0,139.9,0
		c0.5,0,1,0,1.4-0.1c0,0.6,0,1.1-0.1,1.7c-0.2,2.7-0.4,5.3-0.6,8c-1.2,10.4-2.3,20.8-1.9,31.2c0.1,1.6,0.3,3.2,0.4,4.8
		c-45.9,0-91.8,0-137.7,0c0-1.2-0.2-2.5-0.2-3.7c0.4-9.9-0.4-19.8-1.7-29.6C43.4,122.1,43.3,121.3,43.2,120.4z"/>
	<path class="st0" d="M194.7,66.5c-0.4,0-0.8-0.1-1.2-0.1c-53.2,0-106.5,0-159.7,0c-0.3,0-0.6,0-0.8,0c-0.3-4.7-0.4-9.4-0.8-14.1
		c-0.3-3.7-1.1-7.4-1.6-11c4.9-1.5,9.7-3.3,14.6-4.6c9.3-2.5,18.5-5.3,27-9.9c2.6-1.4,5.2-3,7.7-4.6c0.4-0.3,0.9-0.5,1.4-0.7
		c5,5.2,10.8,9.4,17.5,12.1c1.9,0.8,3.9,1.2,5.9,1.8c2.6,0.4,5.1,0.8,7.7,1.1c1.3,0,2.6,0,3.9,0c2.7-0.5,5.3-0.9,7.9-1.4
		c3.8-0.8,7.3-2.6,10.6-4.5c4.3-2.5,8-5.5,11.4-9c1.1,0.6,2.3,1.2,3.3,1.9c8.9,5.9,18.7,9.6,28.9,12.6c5.6,1.6,11.3,3.2,16.9,4.8
		c0.6,0.2,1.1,0.5,1.6,0.7c-0.4,2.5-0.8,5.1-1.1,7.7c-0.1,0.9,0,1.8,0,2.7c0,0.2,0,0.5-0.1,0.7c-0.2,1.6-0.5,3.1-0.6,4.7
		c-0.1,2.7-0.2,5.5-0.3,8.2C194.8,66,194.7,66.3,194.7,66.5z"/>
</g>
<g id="estampa-primaria">
	<path d="M45.4,156.2c45.9,0,91.8,0,137.7,0c-0.1,1.9-0.4,3.8-0.4,5.7c-0.1,6.8,0,13.5-0.1,20.2c0,1.5,0,3-0.2,4.4
		c-0.3,3.3,0.3,6.4,1,9.6c0.3,1.4,0.4,2.8,0.6,4.1c-37,0-74,0-110.9,0c-9.4,0-18.8,0-28.2,0c0.6-1.1,0.6-2.4,0.5-3.6
		c-0.1-1.1,0-2.1,0.1-3.2c0-1.7,0.1-3.4,0.1-5.1c0-2.9-0.1-5.7-0.1-8.6C45.4,171.9,45.4,164.1,45.4,156.2z"/>
	<path d="M42.2,246.2c0.6,0,1.3,0,1.9,0c47,0,94.1,0,141.1,0c0.1,3.6,0.2,7.1,0.4,10.6c0.4,5.8,1,11.5,1.4,17.3
		c0.2,2.1,0.2,4.1,0.3,6.2c0,1.8-0.3,2.4-2,2.8c-3.1,0.6-6.1,1.3-9.2,1.5c-8.4,0.5-16.8,0.8-25.2,1.1c-11.6,0.4-23.2,0.8-34.8,0.8
		c-11.5,0-22.9-0.5-34.4-0.8c-8.4-0.2-16.8-0.4-25.2-0.8c-4.2-0.2-8.4-1-12.6-1.7c-3.6-0.6-3.9-1.1-3.7-4.7c0.5-7.7,1-15.5,1.5-23.2
		C42.1,252.2,42.1,249.2,42.2,246.2z"/>
	<path d="M194.7,66.5c0.3,6.7-0.3,13.2-3.1,19.3c-3.6,7.9-4.8,16.3-6.4,24.7c-0.5,0-1,0.1-1.4,0.1c-46.7,0-93.3,0-139.9,0
		c-0.5,0-1-0.1-1.5-0.2c-0.8-4.8-1.3-9.7-2.3-14.5c-0.7-3.4-2-6.7-3.2-10c-1-2.7-2.3-5.3-3.2-8.1c-1.2-3.7-0.8-7.5-0.7-11.3
		c0.3,0,0.6,0,0.8,0c53.2,0,106.5,0,159.7,0C193.9,66.5,194.3,66.5,194.7,66.5z"/>
	<path d="M83.3,8.6c20.3,2.9,40.6,2.8,60.9,0.3c-2,9.3-19.1,19.8-31.2,19.5C101.4,28,84.5,17,83.3,8.6z"/>
	<path d="M0.2,115.4c0.6-3.3,1.4-6.7,1.9-10c1.6-10.9,3.1-21.9,4.6-32.9c1.2-8.7,3.3-17.1,7.7-24.8c2.5-4.3,5.6-8.2,9.4-11.5
		c1.3-1.1,2.5-2.3,3.8-3.3c0.3-0.3,0.7-0.4,1-0.5c0.1,0.3,0.2,0.6,0.3,0.9c0.6,2.7,1.1,5.4,1.7,8.1c0.5,3.7,1.3,7.3,1.6,11
		c0.4,4.7,0.5,9.4,0.8,14.1c-0.1,3.8-0.5,7.6,0.7,11.3c0.9,2.8,2.2,5.4,3.2,8.1c1.2,3.3,2.5,6.6,3.2,10c1,4.8,1.6,9.7,2.3,14.5
		c0,0.5,0,0.9,0,1.4c0.3,2.9,0.6,5.8,0.8,8.6c-2.7,1.3-5.7,1.6-8.6,1.8c-10.5,0.6-21-0.1-31.2-3c-1.1-0.3-2.1-0.9-3.2-1.4
		C0.2,117,0.2,116.2,0.2,115.4z"/>
	<path d="M184.6,120.2c0.2-2.7,0.4-5.3,0.6-8c0-0.6,0.1-1.1,0.1-1.7c1.5-8.4,2.8-16.8,6.4-24.7c2.8-6.1,3.4-12.7,3.1-19.3
		c0.1-0.3,0.1-0.5,0.2-0.8c0.1-2.8,0.1-5.5,0.3-8.2c0.1-1.6,0.4-3.1,0.6-4.7c0-0.2,0.1-0.5,0.1-0.7c0-0.9-0.1-1.8,0-2.7
		c0.3-2.6,0.8-5.1,1.1-7.7c0.7-3.2,1.4-6.3,2.1-9.5c12.1,8.5,19.2,20.2,21.5,34.7c1.6,10.3,4.1,20.4,5.8,30.7
		c0.6,3.5,1.1,6.9,1.6,10.4c0.3,1.9,0.8,3.7,1.1,5.6c0.4,2.4,0.2,2.7-2,3.4c-12.3,4.1-24.8,5.9-37.7,4.3
		C187.6,121.2,186.1,120.6,184.6,120.2z"/>
	<path d="M146.2,21.7c2-2.5,3.8-5.1,4.6-8.2c0.3-1,0.3-2,0.3-3.1c0-1.2-0.8-1.8-1.8-2.3c1.8-0.1,2.9,1,4.1,2.1
		c0.4,0.4,0.7,0.8,1.1,1c9.8,6.5,20.8,10.4,31.6,15c4.2,1.8,8.4,3.7,12.7,5.6c0.1,0,0.1,0.2,0.2,0.3c-0.7,3.2-1.4,6.3-2.1,9.5
		c-0.6-0.2-1.1-0.5-1.6-0.7c-5.6-1.6-11.3-3.2-16.9-4.8c-10.2-3-20-6.7-28.9-12.6C148.4,22.9,147.3,22.4,146.2,21.7z"/>
	<path d="M77.9,7.9c-1.7,1.3-2.1,2.6-1.4,4.9c0.8,2.9,2.2,5.4,4,7.7c0.3,0.3,0.5,0.6,0.7,1c-0.5,0.2-0.9,0.4-1.4,0.7
		c-2.6,1.5-5.1,3.1-7.7,4.6c-8.5,4.6-17.7,7.4-27,9.9c-4.9,1.3-9.7,3-14.6,4.6c-0.6-2.7-1.1-5.4-1.7-8.1c-0.1-0.3-0.2-0.6-0.3-0.9
		c0.6-0.4,1.1-0.9,1.7-1.2C41.5,26.1,52.8,21.1,64,16c2.2-1,4.4-2.2,6.5-3.5c1.4-0.8,2.6-1.9,3.8-2.9C75.4,8.7,76.5,7.9,77.9,7.9z"
		/>
</g>
</svg>
