<!--?xml version="1.0" encoding="utf-8"?-->
<!-- Generator: Adobe Illustrator 24.2.3, SVG Export Plug-In . SVG Version: 6.00 Build 0)  -->
<svg version="1.1" id="Camada_1" xmlns="http://www.w3.org/2000/svg" xmlns:xlink="http://www.w3.org/1999/xlink" x="0px" y="0px" viewBox="0 0 234 419" enable-background="new 0 0 234 419" xml:space="preserve">
<g onclick="select(this)" class="" id="c-estampa-primaria" fill="#fef271">
	<path d="M46.7812424,118.801651c-0.0767593-1.3550415-0.1535225-2.7100906-0.2302551-4.065239
		c0.4013672-3.5744247-0.8350601-6.9751587-1.197998-10.4692993c-0.2240105-2.1566772,0.1601028-4.4605942-0.9499817-6.5027618
		c0.2355576-4.1750107-0.9775124-8.179451-1.426548-12.2726135c-0.4060669-3.7014923-1.5520096-7.0640182-3.7860184-10.060585
		c-0.5201302-0.6976852-0.8810234-1.516983-1.2921524-2.2925415c-1.677639-3.1646805-2.3670807-6.6731339-3.4572754-10.0403824
		c-2.0804443-6.425808-3.4284821-12.9882317-3.4827595-19.7759361c-0.0089321-1.1172714,0.2226963-2.2094421,0.2825794-3.323185
		c0.1069202-1.9885635-0.031992-3.9983482,0.41399-5.9693832c0.1208649-0.5341721,0.1112595-1.1201401-0.2297115-1.6233521
		c4.2176952-1.9782009,8.3974285-4.0383091,12.7343388-5.7551689c7.1586761-2.8339195,14.2072411-5.9264126,21.2225914-9.0958195
		c3.9044266-1.7639484,7.5148468-4.0420628,11.1217957-6.3282051c0.4499207-0.285161,0.7661057-0.6875992,1.1115265-1.0751286
		c1.1253662-1.2625484,2.460701-2.1400995,4.2184219-2.1968918c2.0342941,0.2981586,4.0931244,0.332696,6.1293793,0.6633081
		c8.3689957,1.3588123,16.8237305,1.8147812,25.2742157,2.3104897c5.0438004,0.2958727,10.0588913-0.1554689,15.0837708-0.4571857
		c4.4263611-0.2657785,8.8530426-0.5102081,13.2524109-1.0787601c3.1972351-0.4131947,6.3849487-0.8995619,9.5781403-1.3446274
		c0.7452545-0.1038756,1.4954529-0.1725669,2.2436371-0.2575908c2.121933,0.0199952,3.6186676,1.1140513,4.9762115,2.6535583
		c1.0045471,1.1392441,2.449173,1.775898,3.7708893,2.5178118c9.4977875,5.3313141,19.4880676,9.6015377,29.5888672,13.6187572
		c3.9791565,1.5825596,7.694046,3.71805,11.6465302,5.3458309c0.175293,0.0721912,0.3132019,0.2351036,0.4684601,0.3557205
		c-0.4079285,0.5212479-0.4852905,1.2034378-0.2796631,1.7151718c0.4703064,1.1705475,0.0795288,2.3345184,0.1885529,3.492691
		c0.2788696,2.9625435,0.4180298,5.9366302,0.21492,8.9047165c-0.1652222,2.4147797-0.3381958,4.8516769-0.8126831,7.2176094
		c-0.8205414,4.091507-1.927063,8.1246033-3.2659149,12.0813484c-0.7891998,2.3323593-1.2008057,4.7971497-2.3715668,6.9949417
		c-0.8932037,1.6767578-1.6652374,3.4834824-3.0967407,4.7557755c-0.9084167,0.8073883-1.5977325,1.6723328-1.9496765,2.7775726
		c-1.364624,4.2856903-1.6241455,8.7427216-1.8916321,13.1865921c-0.1507416,2.5039444-0.2486572,4.9903641-0.9338226,7.4368515
		c-0.6354523,2.2689285-0.8999939,4.6388016-0.7013855,6.9787903c0.1374512,1.619606-0.1228943,3.1615524-0.2654114,4.7354507
		c-0.199707,2.6281662-0.6735229,5.2377548-0.5346069,7.8888626c-0.4046021,0.2297211-0.2497864,0.6383972-0.2887878,0.9698486
		c-1.2409821,10.5508347-1.5160522,21.1339188-0.9441376,31.7361374c0.2012024,3.7296448-0.1597748,7.4324341-0.3361053,11.1412354
		c-0.262619,5.5241699,0.213913,11.0307312,0.1908417,16.5469666c-0.0117188,2.8013611-0.1040344,5.5931549-0.4458923,8.3774872
		c-0.229599,1.8701782-0.2544708,3.7494659,0.0692902,5.618988c0.0408783,0.2360382,0.1015015,0.4797211,0.0812073,0.7136383
		c-0.2680206,3.0862274,0.4954071,5.9898071,1.3647308,8.9197235c1.7740479,5.9790039,1.9671478,12.1114349,1.4671631,18.2951355
		c-0.304718,3.7687531-0.8326721,7.5328827-0.0215759,11.3268585c0.2705383,1.2654877,0.1589813,2.6315765,0.0978851,3.9459076
		c-0.3535004,7.6035309,0.7575989,15.1347504,1.1002197,22.7034912c0.2419739,5.3453979,0.699646,10.6801758,0.9318695,16.0290222
		c0.0671234,1.5462036,0.2884521,3.096344,0.2848511,4.6539917c-0.0040741,1.7576904-0.2527008,2.1624756-1.9380493,2.6928101
		c-4.9689331,1.5635681-10.0740662,2.5220642-15.2290955,3.1793518c-11.8852539,1.5155029-23.8502808,1.6738586-35.8022308,1.801239
		c-20.6729507,0.2202759-41.3482971,0.5737-62.0217361,0.2687988c-10.004837-0.1476135-19.9621696-1.0458984-29.6603622-3.7771912
		c-3.6833267-1.037323-3.8044777-1.0596008-3.5799179-4.8108521c0.4223289-7.0551758,0.9893608-14.1017761,1.5130119-21.1507263
		c0.2370186-3.1905823-0.110363-6.4012756,0.3509216-9.5829163c0.0802193-0.55336,0.0910225-1.1242676,0.2354774-1.6596527
		c0.8587952-3.1829681,0.0915489-6.3565979-0.0495949-9.5281372c-0.2078438-4.6702271,0.2217903-9.2737427,1.4198914-13.7774353
		c0.4246025-1.5960999,0.4807281-3.1339264,0.2883301-4.7227325c-1.0463257-8.6404877-0.9161263-17.2292023,1.0487061-25.7495117
		c0.3325615-1.4421234,0.4711723-2.9310913,0.3530312-4.4104767c-0.3794022-4.7510529,0.0122833-9.5081787-0.1689415-14.2619019
		c-0.2146835-5.6312866-0.0821152-11.2704773-0.4309502-16.9023743c-0.2619247-4.228714,0.4452324-8.447998,0.241684-12.6940918
		C47.8281784,137.1582184,47.4722786,127.9711685,46.7812424,118.801651z"></path>
	<path d="M188.6812744,112.5599823c0.1425171-1.5738983,0.4028625-3.1158447,0.2654114-4.7354507
		c-0.1986084-2.3399887,0.0659332-4.7098618,0.7013855-6.9787903c0.6851654-2.4464874,0.7830811-4.9329071,0.9338226-7.4368515
		c0.2674866-4.4438705,0.5270081-8.9009018,1.8916321-13.1865921c0.351944-1.1052399,1.0412598-1.9701843,1.9496765-2.7775726
		c1.4315033-1.2722931,2.203537-3.0790176,3.0967407-4.7557755c1.1707611-2.1977921,1.5823669-4.6625824,2.3715668-6.9949417
		c1.3388519-3.9567451,2.4453735-7.9898415,3.2659149-12.0813484c0.4744873-2.3659325,0.6474609-4.8028297,0.8126831-7.2176094
		c0.2031097-2.9680862,0.0639496-5.942173-0.21492-8.9047165c-0.109024-1.1581726,0.2817535-2.3221436-0.1885529-3.492691
		c-0.2056274-0.511734-0.1282654-1.193924,0.2796631-1.7151718c0.2102203,0.1116676,0.4566498,0.1841888,0.6252136,0.3406334
		c3.9205627,3.6386032,8.1220245,7.0112839,11.1985168,11.465538c3.6876678,5.3391647,6.2693787,11.1972656,8.0645142,17.4220467
		c1.855957,6.4356842,2.5604248,13.0691071,3.6264191,19.6522064c1.570282,9.6975555,2.6261597,19.4785385,4.6393738,29.104805
		c0.1053619,0.5038223,0.102417,1.0303116,0.1499481,1.5463715c-2.6681061,0.6655502-5.3206482,1.4046097-8.0636749,1.7179031
		c-3.2069092,0.3662796-6.4146271,0.7254715-9.6210022,1.0962982c-3.0062256,0.3476791-6.0040588,0.9012604-9.0184021,1.0103607
		c-3.6274109,0.1313019-7.2682648-0.1153641-10.9035339-0.1868286c-0.4984894-0.0097961-0.9168243-0.2772141-1.3724365-0.3677292
		C191.3878479,114.7298126,190.5228119,112.7779846,188.6812744,112.5599823z"></path>
	<path d="M31.4251118,32.4063721c0.340971,0.503212,0.3505764,1.08918,0.2297115,1.6233521
		c-0.445982,1.971035-0.3070698,3.9808197-0.41399,5.9693832c-0.0598831,1.1137428-0.2915115,2.2059135-0.2825794,3.323185
		c0.0542774,6.7877045,1.4023151,13.3501282,3.4827595,19.7759361c1.0901947,3.3672485,1.7796364,6.8757019,3.4572754,10.0403824
		c0.411129,0.7755585,0.7720222,1.5948563,1.2921524,2.2925415c2.2340088,2.9965668,3.3799515,6.3590927,3.7860184,10.060585
		c0.4490356,4.0931625,1.6621056,8.0976028,1.426548,12.2726135c1.1100845,2.0421677,0.7259712,4.3460846,0.9499817,6.5027618
		c0.3629379,3.4941406,1.5993652,6.8948746,1.197998,10.4692993c-0.7430496-0.1559753-0.4466248-0.7550583-0.4480972-1.1689682
		c-0.0030136-0.8474426-0.3366966-1.1772919-1.084877-0.7159271c-2.1458626,1.3232574-4.5059891,1.392868-6.9265518,1.4081802
		c-5.9911842,0.0379257-11.914423-0.3703842-17.8513241-1.3506393c-5.7302513-0.9461212-11.4566507-1.9013596-17.1664352-2.9633942
		c-0.4844108-0.0901108-0.9187891-0.242218-1.3282617-0.4972076c1.2825927-8.0049973,2.2239013-16.0782471,4.4298015-23.9057312
		c1.4928513-5.2972641,1.9323239-10.7706375,2.9552264-16.1442108c1.5344801-8.0610313,3.9434853-15.8129349,8.3927488-22.8015022
		c2.7514877-4.3218231,6.1713905-8.0597153,10.2077255-11.2039833
		C28.9818478,34.4185829,29.9585438,33.1073418,31.4251118,32.4063721z"></path>
</g>
<g onclick="select(this)" class="" id="c-estampa-secundaria" fill="#021c3b">
	<path d="M233.280014,119.5200043c-1.0771637,0.1752853-2.1248322-0.1658707-3.2020111-0.1632156
		c-13.3976288,0.0330048-26.7953796,0.0216293-40.1931,0.0213165c-0.3599091-0.0000076-0.7198944-0.0007401-1.0797272-0.0069733
		c-0.2240295-0.0038757-0.378952-0.0976791-0.3969727-0.3443985c-0.0196075-0.2689209,0.0550232-0.476265,0.3631439-0.4977798
		c0.2388916-0.0166779,0.4792938-0.015564,0.7190094-0.0155716c14.3175659-0.000618,28.6351471-0.0007935,42.9526978,0.0014572
		c0.2789764,0.0000381,0.5579681,0.0294571,0.8369598,0.045166
		C233.280014,118.8800049,233.280014,119.2000046,233.280014,119.5200043z"></path>
	<path d="M46.4048729,113.9832535c-1.318119-0.0480423-2.6364021-0.0921402-3.954277-0.1461105
		c-0.518528-0.021225-1.0565872,0.0151825-1.5506439-0.1115417c-2.1223946-0.5443573-4.2814293-0.4667892-6.4389801-0.4663773
		c-10.6755466,0.0020523-21.3510933,0.0016708-32.026638-0.0015182c-0.4786028-0.000145-0.9571949-0.0360336-1.4357921-0.055275
		c-0.0121682-0.4776993,0.1335921-0.8996277,0.4458843-1.262764c14.6994705-0.0044708,29.3989429-0.0101242,44.0984116-0.0108414
		c1.0322342-0.0000534,1.0315895,0.0168762,0.9647255,1.086319c-0.0196915,0.3149796-0.0345688,0.6302643-0.051651,0.9454041
		L46.4048729,113.9832535z"></path>
	<path d="M0.7184375,115.3585663c12.1827774,0.0003967,24.3655548-0.000145,36.5483322,0.0032272
		c0.8414383,0.0002365,1.6694641-0.058403,2.4954147-0.2480545c2.1240463-0.4877167,4.29636-0.2368851,6.443882-0.376976
		c-0.0424232,0.2868271-0.0848389,0.5736542-0.1272583,0.8604889c-0.9064484,1.4352798-2.2289658,1.6387482-3.8055687,1.45858
		c-2.5699196-0.2936707-5.1884956-0.0037384-7.7403336-0.630661c-0.5306091-0.1303635-1.1124458-0.0676804-1.6706848-0.0678482
		c-10.3396282-0.0031509-20.6792603,0-31.0188808-0.0100555c-0.4626858-0.0004501-0.9611562,0.1582947-1.3876232-0.1757278
		C0.4761083,115.8788376,0.4716626,115.5781097,0.7184375,115.3585663z"></path>
	<path d="M5.5221996,118.7633896c0.5180635-0.4517441,1.1442165-0.2380829,1.715683-0.2394409
		c7.237462-0.0172577,14.4755535-0.0644302,21.7122097,0.013855c3.0879898,0.0334091,6.1311722-0.2934875,9.192028-0.5681839
		c1.8444672-0.1655273,3.7159119-0.0304413,5.7301369-0.0304413c-0.4936409,0.8461227-1.1342087,1.482872-1.7441673,2.1405029
		c-0.1442337,0.1555099-0.3499413,0.1817932-0.5548973,0.172493c-3.8709145-0.1755371-7.760006-0.033432-11.6118507-0.478569
		c-1.7486591-0.2020798-3.4812088-0.4089966-5.2437325-0.4020233c-4.7982635,0.0189972-9.5966606,0.0067215-14.3950014,0.0027466
		c-0.5582981-0.0004654-1.1165743-0.0265732-1.67486-0.040802C7.6058984,119.1434784,6.5640488,118.9534378,5.5221996,118.7633896z"></path>
	<path d="M219.5830536,122.4214554c-8.5032043,0.0177231-17.006424,0.0373154-25.5096283,0.0496216
		c-0.6773682,0.0009842-1.3547821-0.0484619-2.0321655-0.0744705c-0.2954559-0.1588821-0.5909271-0.3177643-0.8863831-0.4766388
		c0.2605438-0.562439,0.7710266-0.3108902,1.162674-0.3127518c4.1981659-0.0200043,8.3964539-0.0124893,12.594696-0.0124664
		c5.6776276,0.0000381,11.3552704-0.0056381,17.0328522,0.0114594c0.4393616,0.0013199,0.9728851-0.2229538,1.302948,0.3084335
		C222.0263824,122.08358,220.804718,122.2525177,219.5830536,122.4214554z"></path>
	<path d="M27.0791245,121.9127808c1.1772518-0.6383514,2.496294-0.7773132,3.7743721-0.8444901
		c3.3519363-0.1761932,6.7112274-0.2128525,10.0677299-0.2997818c0.1065903-0.0027695,0.2146912,0.0528564,0.3808098,0.0967941
		c-0.0121117,0.4711075-0.4215355,0.6696854-0.611969,0.9905701c-3.4861069,0.652298-6.993145,0.6135635-10.5079441,0.3181992
		C29.1477757,122.0871582,28.1134567,121.9998932,27.0791245,121.9127808z"></path>
	<path d="M43.0947189,121.5799179c0.0057487-0.2281418,0.1106071-0.3388672,0.3508949-0.3429337
		c0.692627-0.0117111,1.3847427-0.0313034,2.069809,0.102684C44.7182655,121.5179291,43.90662,121.550209,43.0947189,121.5799179z"></path>
	<path d="M232.079361,111.939743c0.359787,0.3365021,0.3836823,0.7825775,0.4014893,1.2306442
		c-0.4293213,0.1357498-0.8719788,0.0880508-1.3097076,0.0881119c-13.6670532,0.0020065-27.3341064,0.0016632-41.0011597,0.001564
		c-0.2397766,0-0.4802856-0.0136871-0.719162,0.0005722c-0.4152527,0.0247955-0.5674133-0.1832886-0.5713043-0.5726166
		c-0.0038605-0.3832245,0.0039063-0.7408981,0.5205841-0.756752c0.159729-0.0049057,0.3196564-0.0048523,0.4794922-0.0047989
		C203.9461823,111.9307404,218.0127716,111.935257,232.079361,111.939743z"></path>
	<path d="M232.8408813,115.4194946c0.1532135,0.277771,0.1824799,0.5780869,0.1613922,0.887558
		c-0.4385986,0.0159683-0.8772278,0.0458298-1.3158264,0.0458984c-13.9016113,0.0024643-27.8032532,0.0020905-41.7048645,0.0016556
		c-0.3194733-0.0000153-0.6390686-0.0014648-0.9584198-0.0098495c-0.2940063-0.0077286-0.4289398-0.1703033-0.4125671-0.459343
		c0.0141754-0.2505341,0.0611572-0.4873276,0.3767395-0.5089035c0.2387238-0.0163269,0.4788513-0.0166168,0.718338-0.0166321
		c14.1412964-0.0006866,28.282608-0.0009155,42.4239197,0.0018845
		C232.3666992,115.3618088,232.603775,115.3994141,232.8408813,115.4194946z"></path>
	<path d="M221.6819305,111.032341c-0.6864471,0-1.199585,0-1.7127228,0
		c-9.7899628,0.0000229-19.5799408,0.0000763-29.3699036-0.0000229c-0.3196716-0.0000076-0.6396027-0.0102692-0.9589233-0.0000229
		c-0.4088898,0.0131149-0.5769043-0.1725388-0.5523376-0.5794983c0.0219116-0.3628922-0.0341492-0.7556686,0.51828-0.7420807
		c0.2395782,0.0058899,0.4794617-0.0017471,0.7192078-0.0017548c9.7500153-0.0002823,19.5000763,0.0151367,29.2499237-0.0243073
		C220.5613403,109.6806717,221.1352844,110.0555115,221.6819305,111.032341z"></path>
	<path d="M5.3209348,89.6748199c-0.0599885-0.2595444-0.1061172-0.5161285,0.151381-0.7077713
		c9.1146908-0.0814743,18.2292747-0.1802368,27.3441238-0.2352448c3.2774124-0.019783,6.5554619,0.0651627,9.8331985,0.1045456
		c0.1986847,0.0023956,0.4117088-0.0169754,0.5925102,0.0465317c0.3282852,0.1153183,0.3095207,0.4488144,0.3050041,0.7106781
		c-0.0041542,0.2410965-0.2358246,0.2789154-0.4483719,0.2780228c-0.2798386-0.0011826-0.5597191,0.0031509-0.8395462,0.0071106
		c-8.1161156,0.1148987-16.2317238,0.0203094-24.3473206-0.0611115
		C13.7148666,89.7754593,9.5179243,89.7227554,5.3209348,89.6748199z"></path>
	<path d="M6.79287,83.8713226c-0.1560459-0.2935715-0.0693336-0.5512619,0.1173582-0.7941818
		c11.3147011-0.0841827,22.6287289-0.2834549,33.9444199-0.1978912c0.2798843,0.002121,0.5598679,0.0110626,0.8396149,0.0060272
		c0.4620247-0.0083084,0.7959976,0.1417847,0.7919731,0.6668625c-0.0045662,0.5959549-0.4769478,0.421257-0.7925682,0.4297409
		c-3.3973694,0.0913696-6.7950935,0.1158905-10.193985,0.0793839c-7.2763691-0.0781555-14.5529919-0.1327438-21.8295345-0.1938629
		C8.7111349,83.8593445,7.7519665,83.8695679,6.79287,83.8713226z"></path>
	<path d="M7.2479262,95.3901367c0.1665053-0.4129486,0.5291805-0.2943192,0.8266311-0.2954636
		c11.7047091-0.0449524,23.407589-0.4427261,35.1138535-0.1856384c0.1996918,0.0043869,0.3993454,0.0106964,0.5990524,0.0141068
		c0.3389359,0.0057755,0.5147629,0.1895905,0.5372276,0.515213c0.0271149,0.3930054-0.2389565,0.451973-0.5464859,0.4536591
		c-0.519352,0.0028381-1.0389671-0.0024796-1.5580025,0.0122147c-9.5069542,0.2691727-19.0118809-0.0657806-28.5177956-0.098259
		c-1.8368616-0.006279-3.6736927-0.0693359-5.5100842-0.1220169C7.8615484,95.6744537,7.4542313,95.8315887,7.2479262,95.3901367z"></path>
	<path d="M7.9741988,77.4117508c0.0073624-0.1838531,0.0147243-0.3677063,0.0220871-0.5515594
		c0.2941461-0.2756958,0.6603961-0.2316818,1.0180459-0.2324677c9.8305244-0.0215073,19.6596794-0.245636,29.49086-0.2003937
		c0.8874435,0.0040817,1.5753632,0.1410751,1.8253479,1.2587967c-1.7070236,0-3.3668137,0.0111542-5.0264168-0.0018692
		c-8.8312645-0.0692978-17.662487-0.1442184-26.4937-0.2199173C8.5315514,77.4619522,8.2529345,77.4299469,7.9741988,77.4117508z"></path>
	<path d="M29.5887184,101.6354599c-6.3056908-0.0997238-11.4619102-0.177475-16.6178207-0.2720642
		c-0.3148928-0.0057678-0.8862286,0.1895828-0.8796854-0.2788391c0.006547-0.4686203,0.5806179-0.2620316,0.8973751-0.2677612
		c6.8346338-0.1235123,13.669261-0.2655334,20.5045815-0.3256149c3.5566711-0.0312729,7.114666,0.0877457,10.6720581,0.139122
		c0.1598434,0.0023117,0.3201027,0.000618,0.479351,0.0121231c0.2724724,0.0196762,0.4525528,0.1465454,0.4497185,0.4434814
		c-0.0029068,0.3045349-0.1985741,0.4079437-0.4677315,0.4165497c-0.8787804,0.0280914-1.7575989,0.0750961-2.6364746,0.0766754
		C37.4731674,101.5872879,32.9566307,101.8075104,29.5887184,101.6354599z"></path>
	<path d="M218.6071777,107.4382019c-0.37883,0.2794266-0.791275,0.1416855-1.17276,0.1420593
		c-8.9953003,0.0088196-17.9905853,0.0067444-26.9858856,0.0065994c-0.3198395-0.0000076-0.6397247-0.00457-0.9594879,0.0000229
		c-0.3025055,0.0043335-0.433136-0.1598969-0.4385376-0.4405212c-0.0061951-0.3198853,0.1009521-0.5462799,0.4762726-0.5354156
		c0.199707,0.0057831,0.3997345-0.0017319,0.5996399-0.0017395c8.995285-0.0002289,17.9905701,0.0032196,26.9858398-0.0074234
		C217.7888489,106.600975,218.3806305,106.6496811,218.6071777,107.4382019z"></path>
	<path d="M8.9268169,71.6562805c-0.1327295-0.3181229-0.0944548-0.6305161,0.0315208-0.9399643
		c8.9481716-0.041481,17.8963795-0.077179,26.8444462-0.134491c0.7881203-0.0050583,1.2080612,0.2446976,1.1603928,1.1797104
		c-2.0017242,0-3.9940948,0.0091782-5.9863548-0.0016632c-6.9909401-0.0380325-13.981842-0.083374-20.9727688-0.1240692
		C9.6450272,71.6337128,9.2858973,71.6490555,8.9268169,71.6562805z"></path>
	<path d="M226.5672607,76.4899826c0.3260193,0.3193588,0.2669983,0.7015305,0.1776123,1.0886612
		c-10.5444031-0.082016-21.0888062-0.1640167-31.6395569-0.2460785c-0.0236206-0.4442902,0.2252655-0.5654984,0.5111694-0.5950241
		c0.3565826-0.0368347,0.7184143-0.0274124,1.0780334-0.0293121c7.5187073-0.0398026,15.0374298-0.0733032,22.5560913-0.1200943
		C221.6896057,76.5729523,224.1283875,76.5236664,226.5672607,76.4899826z"></path>
	<path d="M45.3196106,107.9341125c-0.2365837,0.0373383-0.4725304,0.1024551-0.7098427,0.107872
		c-3.8731766,0.0885086-7.7469139,0.2495575-11.6197395,0.2310104c-4.4321499-0.0212326-8.8635216-0.2038803-13.2952518-0.315567
		c-0.7188206-0.0181122-1.4378796-0.0276794-2.1565571-0.0499878c-0.2681332-0.008316-0.5758152,0.0562286-0.7137051-0.2970734
		c0.1978703-0.4515533,0.6104965-0.286705,0.9372597-0.2922897c8.7859688-0.1502838,17.5717716-0.4619904,26.3590145-0.0554504
		c0.3581772,0.0165634,0.7182732-0.008316,1.0774765-0.0138855
		C45.3761864,107.4528656,45.3444519,107.6940994,45.3196106,107.9341125z"></path>
	<path d="M225.7797089,70.6739655c0.072998,0.3254776,0.1459961,0.6509476,0.2189941,0.9764252
		c-0.3176575,0.0216904-0.6354675,0.0644913-0.9529419,0.0620117c-8.740799-0.0680237-17.4815674-0.1404495-26.2223206-0.214119
		c-0.1569214-0.0013123-0.3136292-0.02668-0.5193024-0.0452347c0.0174408-0.6632385,0.4706573-0.6270752,0.8959961-0.6346512
		c1.3563995-0.0241547,2.7126465-0.0657043,4.0691071-0.0730972c7.3043365-0.0398636,14.6087189-0.0717163,21.9131012-0.1042786
		C225.381424,70.6401367,225.5805817,70.6624603,225.7797089,70.6739655z"></path>
	<path d="M227.4645691,82.9397964c0.0640717,0.3067017,0.1281433,0.6134033,0.1922302,0.920105
		c-0.3061066,0.1261749-0.628418,0.0969086-0.9467773,0.0941772c-8.8291626-0.075737-17.658371-0.150528-26.487442-0.2382202
		c-0.3165131-0.0031357-0.8626556,0.2031097-0.8773804-0.3067551c-0.0118256-0.4103775,0.500351-0.27034,0.793457-0.2726059
		C209.2472382,83.066124,218.3559113,83.0035553,227.4645691,82.9397964z"></path>
	<path d="M215.9739838,104.348526c-0.4410706,0.1759796-0.8040924,0.102829-1.1581421,0.1030426
		c-8.1026001,0.0048141-16.2052155,0.0037994-24.3078156,0.0036926c-0.2793884-0.0000076-0.5591125,0.0058517-0.8380737-0.0055237
		c-0.2472992-0.0100784-0.4971008-0.0480804-0.4715118-0.3861771c0.019455-0.2569046,0.1346588-0.4628754,0.4150696-0.5070801
		c0.1562653-0.0246277,0.3178558-0.020874,0.477066-0.0208969c8.1824341-0.0011597,16.3648682-0.0002975,24.5473022-0.0038986
		C215.2231445,103.5314255,215.7503357,103.5986023,215.9739838,104.348526z"></path>
	<path d="M215.9992828,89.6352005c-3.8368378,0-7.6736755,0.0051422-11.5104523-0.0095978
		c-0.3125305-0.0011902-0.881485,0.1846848-0.8649139-0.2997208c0.0160828-0.4693756,0.5838623-0.2599487,0.9010162-0.2634888
		c7.6330566-0.0851746,15.2662811-0.1544342,22.8994751-0.2263184c0.1598663-0.0015106,0.3208008,0.0117722,0.4794006-0.0024719
		c0.4570313-0.0410385,0.6794128,0.1709595,0.6659241,0.6191711c-0.0147552,0.4901428-0.4003601,0.4208527-0.7026367,0.4186859
		c-2.5178833-0.018013-5.0356445-0.0514679-7.5534973-0.0699615c-1.4380035-0.0105743-2.8761444-0.0019226-4.314209-0.0019226
		C215.9993439,89.7447815,215.9993134,89.6899948,215.9992828,89.6352005z"></path>
	<path d="M210.8392181,98.2053452c-0.3346863,0.2170715-0.620163,0.129837-0.890152,0.1300659
		c-6.1074066,0.0051498-12.2148132,0.0039215-18.3222198,0.0037613c-0.239502-0.0000076-0.4790039-0.0005112-0.7185059-0.0021133
		c-0.3142242-0.0020981-0.5597229-0.0829086-0.5231934-0.4725571c0.0316315-0.3371887,0.2206573-0.4930573,0.5568085-0.4809189
		c0.1195679,0.0043259,0.2394714-0.001236,0.3592224-0.0012436c6.0674896-0.0002823,12.1349792,0.0056305,18.2024231-0.0097961
		C210.1260376,97.3709564,210.5893402,97.5134048,210.8392181,98.2053452z"></path>
	<path d="M10.1595497,65.6111832c-0.1663694-0.2489243-0.1226988-0.4675674,0.0952816-0.661087
		c7.823801-0.0317459,15.6475906-0.0656281,23.4714146-0.0907135c0.5581436-0.0017929,1.2727509-0.2100143,1.3167229,0.755455
		c-0.4288788,0.1908264-0.8684998,0.0894241-1.2930679,0.087616c-7.3848724-0.0314178-14.769701-0.073288-22.1545486-0.110733
		C11.1167955,65.5892944,10.6381521,65.6042862,10.1595497,65.6111832z"></path>
	<path d="M224.4539032,64.9537811c0.2350159,0.1885529,0.2944946,0.4072342,0.1144257,0.6670074
		c-4.3162079,0.0059738-8.632431,0.006279-12.9486237,0.019722c-3.4374237,0.0106964-6.8747864,0.0415573-10.3121948,0.0513229
		c-0.3881836,0.0010986-0.7935181,0.106514-1.172287-0.0932999c-0.0556335-0.4484253,0.1278229-0.7035599,0.5770416-0.723381
		c0.3589935-0.0158386,0.7193146-0.0017624,1.0790405-0.0005112
		C209.3455048,64.9009857,216.899704,64.9273911,224.4539032,64.9537811z"></path>
	<path d="M1.4971392,110.9882889c-0.0159047-0.1410294-0.0318091-0.2820511-0.0477135-0.4230804
		c0.0735611-0.200737,0.1471223-0.4014587,0.2206832-0.6021957c0.0511602-0.0364609,0.090373-0.0829926,0.1176381-0.1395798
		c0.4211074-0.1837234,0.8664526-0.1110916,1.3017615-0.111618c4.1134319-0.0049515,8.2274094,0.0329285,12.339922-0.0287094
		c0.9926519-0.0148773,1.5392256,0.377037,1.9655714,1.1462936c-0.2440205,0.3435516-0.5488338,0.1977997-0.8039799,0.197464
		C11.559721,111.0202332,6.5284314,111.0031967,1.4971392,110.9882889z"></path>
	<path d="M11.7435837,59.488369c-0.0227165-0.2361145,0.0461388-0.4352608,0.2363291-0.5854263
		c6.5862494-0.053566,13.1724997-0.107193,19.7587471-0.1605377c0.2794361-0.0022621,0.5599613,0.0130806,0.8380947-0.0065117
		c0.4040489-0.0284576,0.6007538,0.1585999,0.6085014,0.5478897c0.00951,0.4776573-0.3651695,0.3311424-0.6046371,0.3305054
		c-3.6727524-0.0097351-7.3455009-0.0268936-11.0182018-0.0498924
		C18.2894421,59.5438995,15.0165262,59.5140762,11.7435837,59.488369z"></path>
	<path d="M229.3943939,94.9258423c0.1237488,0.2885742,0.1943512,0.586853,0.164917,0.903389
		c-0.4284821,0.1472015-0.8709412,0.0793381-1.3068695,0.0738983c-5.346283-0.0667114-10.6925354-0.1368179-16.0386658-0.2153168
		c-0.4128418-0.0060577-0.872467,0.1222153-1.21315-0.2170563c0.070282-0.3792114,0.3241119-0.3736725,0.559845-0.3759766
		C217.5051117,95.0369568,223.4497528,94.9816132,229.3943939,94.9258423z"></path>
	<path d="M222.7755127,58.9039345c0.2177429,0.1400986,0.2177429,0.3565483,0.2027283,0.5782547
		c-6.7118988,0.0404472-13.4237671,0.0844269-20.1357269,0.1100655c-0.3097687,0.0011864-0.8522644,0.2334442-0.8992615-0.2460442
		c-0.0574188-0.5857544,0.4576263-0.5920715,0.937027-0.5879135
		C209.5119476,58.8158875,216.1437378,58.858017,222.7755127,58.9039345z"></path>
	<path d="M213.3723602,101.2157745c-0.4216309,0.2186127-0.7880554,0.1379929-1.1412201,0.138237
		c-7.1196899,0.0048904-14.2393799,0.0035858-21.3590698,0.0033798c-0.2399902-0.0000076-0.480423,0.0070038-0.7198029-0.005394
		c-0.1867523-0.0096741-0.4384918,0.0303345-0.4767151-0.2243576c-0.0376129-0.2505188,0.0857544-0.5066223,0.3367004-0.5654373
		c0.3049164-0.0714569,0.6318512-0.0644913,0.9492645-0.0646362c6.9597015-0.0031509,13.9194031-0.0020981,20.8790894-0.0035782
		C212.4319763,100.493866,213.0586243,100.4023666,213.3723602,101.2157745z"></path>
	<path d="M13.9623079,53.4238586c-0.0240746-0.3064079,0.1652155-0.4975014,0.3681469-0.6812286
		c5.3945761-0.0139427,10.7891474-0.0291748,16.1837311-0.0389366c0.3563328-0.0006447,0.7203026,0.0041275,1.066185,0.076149
		c0.1961784,0.0408554,0.2809467,0.2650185,0.2480679,0.4867859c-0.0310955,0.2097244-0.204195,0.2192459-0.3586273,0.2341309
		c-0.1585369,0.0152779-0.3193207,0.0099869-0.4790955,0.0091858C25.3145771,53.4815788,19.638443,53.4526825,13.9623079,53.4238586
		z"></path>
	<path d="M208.2155609,95.1115952c-0.32547,0.2009888-0.6105499,0.129364-0.8825684,0.1295624
		c-5.1862183,0.0038528-10.372467,0.0112839-15.5585632-0.0151596c-0.3894043-0.0019913-1.1177826,0.3498535-1.1173248-0.4415054
		c0.0004578-0.777977,0.7210083-0.4560165,1.1223755-0.4578476c4.9866486-0.0227661,9.9734344-0.0089264,14.9601593-0.0219955
		C207.3680725,94.3029938,207.9360199,94.320961,208.2155609,95.1115952z"></path>
	<path d="M220.3922272,52.7733116c0.1775513,0.1828003,0.3361664,0.3747139,0.3142242,0.65345
		c-5.4278717,0.0241776-10.8557434,0.0554733-16.2836151,0.0569153c-0.3717651,0.0000992-1.0627747,0.2975197-1.0803986-0.3108482
		c-0.0204315-0.7054214,0.7119446-0.453167,1.1289063-0.4518852c4.8687592,0.0149498,9.737442,0.0565338,14.6061401,0.087059
		C219.5156403,52.8107491,219.9539795,52.7855415,220.3922272,52.7733116z"></path>
	<path d="M2.2420647,107.6159515c-0.2095835-0.308548-0.0719829-0.6118622,0.013803-0.9159622
		c1.1913307-0.1910019,2.3909652-0.0739365,3.5862701-0.0845795c2.3971171-0.0213394,4.7946954,0.0077515,7.1917729-0.0157318
		c0.6543303-0.0064011,1.1894903,0.0751114,1.4312162,1.0162735
		C10.3511028,107.6159515,6.2965841,107.6159515,2.2420647,107.6159515z"></path>
	<path d="M230.1956787,100.5981598c0.1801758,0.3078232,0.2323914,0.6324463,0.1283264,0.9775925
		c-4.8677673,0.0079727-9.727951-0.2117844-14.5960693-0.4457321c2.3801727-0.4365463,4.7762909-0.3931808,7.1654816-0.4439774
		C225.3270416,100.6343002,227.7615509,100.6256714,230.1956787,100.5981598z"></path>
	<path d="M202.9982605,88.9305038c-0.2607269,0.2893295-0.5587158,0.16922-0.8209686,0.169838
		c-3.3512878,0.0079117-6.7026062,0.0049896-10.053894,0.0045929c-0.1994629-0.0000229-0.398941-0.0041504-0.5983734-0.0025024
		c-0.2898712,0.0023956-0.4499664-0.1319885-0.4414215-0.4285965c0.0073547-0.254715,0.0796967-0.4810944,0.3783569-0.5175781
		c0.1968231-0.0240631,0.3975677-0.0213928,0.5965729-0.021492c3.1917114-0.0014801,6.3834991,0.0094528,9.5750732-0.0108109
		C202.2906342,88.1197891,202.7827759,88.2629166,202.9982605,88.9305038z"></path>
	<path d="M205.5916901,92.0273438c-0.3240967,0.2328339-0.6516113,0.1316528-0.9584656,0.1321335
		c-4.1976776,0.0065842-8.3953857,0.0042267-12.5930634,0.0040436c-0.1599121-0.0000076-0.3199463,0.0039215-0.4797058-0.0012741
		c-0.3551331-0.0115433-0.7718048,0.0529861-0.7403412-0.5105286c0.0261383-0.468399,0.3819733-0.4336319,0.7017365-0.4337997
		c4.3176117-0.0023117,8.6352386-0.0006027,12.9528503-0.0065689
		C205.0655823,91.2105255,205.4374084,91.4560547,205.5916901,92.0273438z"></path>
	<path d="M17.2119255,47.3576546c-0.0404949-0.3671989,0.2191143-0.5363884,0.4695282-0.7116432
		c4.0295963-0.0085793,8.0591946-0.0173531,12.0887928-0.0253639c0.3190079-0.0006371,0.6385746-0.0066719,0.9568558,0.0097237
		c0.2297134,0.0118332,0.359911,0.1582603,0.3624897,0.3871117c0.0025482,0.2263412-0.1116829,0.3838081-0.3494015,0.3953247
		c-0.3183956,0.0154266-0.6378689,0.0130692-0.9568424,0.0114326
		C25.5928688,47.4027596,21.4023991,47.3800545,17.2119255,47.3576546z"></path>
	<path d="M217.1886139,46.7089844c0.2429352,0.1575012,0.4310455,0.3470001,0.3906555,0.6697693
		c-4.1125793,0.0098457-8.2252197,0.0310173-12.3376465,0.0117836c-0.4054108-0.0018921-1.1591797,0.3410568-1.1780548-0.346981
		c-0.0197144-0.7183762,0.7449341-0.3902779,1.1457672-0.3906631
		C209.2024078,46.6490097,213.1955261,46.6845665,217.1886139,46.7089844z"></path>
	<path d="M200.4997711,86.0043106c-1.1131287,0-2.0600281,0.0000076-3.0069275,0
		c-1.7961273-0.0000076-3.5922699,0.0035172-5.388382-0.0040131c-0.2570953-0.0010757-0.6162262,0.099968-0.6395264-0.3287506
		c-0.0237579-0.4365997,0.203598-0.6454468,0.6582489-0.6441269c2.3948059,0.0070038,4.7896729,0.0055466,7.1844788-0.0029526
		C199.8644409,85.0224915,200.1853943,85.3137741,200.4997711,86.0043106z"></path>
	<path d="M231.2891998,107.1609497c0.1047211,0.323616,0.1801453,0.6486664,0.0482788,0.9838943
		c-3.5870514-0.1144409-7.1819153-0.0655899-11.0285492-0.348671
		C221.1871796,107.271965,227.0405121,107.0145416,231.2891998,107.1609497z"></path>
	<path d="M2.626658,104.4107895c-0.0251548-0.3190842,0.0240481-0.618721,0.2294927-0.8775024
		c2.5047827,0.0003662,5.0095682,0.0028305,7.5143461-0.0003891c0.6031628-0.0007782,1.2068624-0.0214005,1.4173059,0.8778915
		C8.6985607,104.4107895,5.6626091,104.4107895,2.626658,104.4107895z"></path>
	<path d="M3.1705723,101.427803c-0.1434152-0.3198776-0.0970936-0.6322327,0.0373347-0.9410858
		c1.5922115-0.0130234,3.1847346-0.0117416,4.7764711-0.0465012c0.591929-0.0129166,0.9930682,0.1936798,1.2836413,0.9249802
		C7.1834297,101.3866043,5.1770005,101.4072037,3.1705723,101.427803z"></path>
	<path d="M21.581295,41.4626274c0.0461292-0.2989769,0.2659359-0.4697113,0.4774418-0.6465721
		c2.5845394-0.00634,5.1690788-0.0126877,7.7536182-0.0189934c0.198822-0.0004883,0.3986225-0.0132332,0.5962276,0.0021286
		c0.2582436,0.0200844,0.6394196-0.1000977,0.6762524,0.2890472c0.0461655,0.4877243-0.3745403,0.4158478-0.6758881,0.4150543
		c-2.7835159-0.007328-5.5670109-0.0221596-8.3505116-0.0350761C21.8993816,41.4674797,21.7403412,41.4645386,21.581295,41.4626274z
		"></path>
	<path d="M212.9132843,40.8206482c0.1607513,0.1698303,0.3215027,0.3396645,0.482254,0.5095024
		c-1.2577209,0.2513351-2.5304871,0.0983734-3.7957611,0.1301079c-1.5917206,0.0399132-3.1848297,0.0284119-4.7773438,0.0282631
		c-0.2991486-0.0000267-0.7500305,0.103035-0.765152-0.3336563c-0.0162964-0.4710121,0.4486694-0.3434372,0.735733-0.3429222
		c2.5480347,0.0045853,5.0960541,0.023983,7.6440582,0.0366669
		C212.5957642,40.8493996,212.7545471,40.8304253,212.9132843,40.8206482z"></path>
	<path d="M197.9367981,82.876976c-1.9478607,0-3.6833344,0.001442-5.418808-0.0016937
		c-0.2371826-0.0004272-0.4917755-0.0008469-0.5128174-0.3368301c-0.0220032-0.3508987,0.1736603-0.514328,0.4982758-0.5159683
		c1.4689789-0.0074539,2.9380341-0.0062866,4.4070587-0.0050659
		C197.3735046,82.017807,197.5873718,82.3345871,197.9367981,82.876976z"></path>
	<path d="M3.6064057,98.3452911c-0.0389898-0.3519287-0.1586213-0.7216263,0.2164254-0.9823303
		c0.5945692,0.0063858,1.1892605,0.0231094,1.7836728,0.0161209c0.5515294-0.006485,0.8547955,0.2839432,1.162859,0.9662094
		C5.6184688,98.3452911,4.6124372,98.3452911,3.6064057,98.3452911z"></path>
	<path d="M192.8302155,79.7744675c0.1144867-0.6281586,0.4007874-0.9207306,1.0341949-0.9138107
		c0.640152,0.0070114,1.1398315,0.1380692,1.3423615,0.9138107
		C194.3949738,79.7744675,193.6396332,79.7744675,192.8302155,79.7744675z"></path>
	<path d="M28.3307705,35.0711441c0.0594959-0.2770271,0.3345165-0.361248,0.4923153-0.5503426
		c0.866972-0.0462875,1.7339458-0.0925789,2.6009197-0.1388702C30.5659866,35.5412788,29.373291,34.9229965,28.3307705,35.0711441z"></path>
	<path d="M206.1806488,34.4277344c0.272934,0.1240768,0.5117035,0.2877655,0.6535492,0.5638008
		c-1.0151978,0.0107498-2.0527039,0.2198868-3.019455-0.2875977
		C204.5841522,34.2712364,205.3981934,34.5136299,206.1806488,34.4277344z"></path>
</g>
<g onclick="select(this)" class="" id="c-gola-primaria" fill="#021c3b">
	<path d="M81.8337631,7.9551482c1.7809372-1.4190092,3.4730377-2.9295225,4.8501663-4.7590275
		c1.5450439-2.0525742,3.8180466-2.4387608,6.1472397-2.7100065C93.2521667,0.437086,93.72155,0.6118734,94.0800018,0.24
		c16,0,32,0,48,0c0.8258362,0.4266242,1.7599182,0.3826382,2.635376,0.5993913
		c1.7582092,0.4353179,3.2734985,1.2413597,4.3717957,2.7102425c1.1104889,1.4851677,2.5509338,2.6122496,3.9674988,3.7706835
		c0.1449127,0.1185122,0.2287445,0.3117666,0.3406677,0.4704785c-0.7481842,0.0850201-1.4983826,0.1537113-2.2436371,0.257587
		c-3.1931915,0.4450655-6.3809052,0.9314327-9.5781403,1.3446274c-4.3993683,0.568552-8.8260498,0.8129816-13.2524109,1.0787601
		c-5.0248795,0.3017168-10.0399704,0.7530584-15.0837708,0.4571857c-8.4504852-0.4957085-16.90522-0.9516773-25.2742157-2.3104897
		C85.9269104,8.2878542,83.8680801,8.2533169,81.8337631,7.9551482z"></path>
</g>
<g onclick="select(this)" class="" id="c-detalhe-punho" fill="#021c3b">
	<path d="M0.24,115.9200058c0.5789765-1.8824921,0.7624918-3.8468094,1.1905526-5.7606049
		c0.0581824-0.2601089-0.0143441-0.5728455,0.314887-0.7109451c0.4094726,0.2549896,0.843851,0.4070969,1.3282617,0.4972076
		c5.709785,1.0620346,11.4361839,2.0172729,17.1664352,2.9633942c5.9369011,0.9802551,11.8601398,1.3885651,17.8513241,1.3506393
		c2.4205627-0.0153122,4.7806892-0.0849228,6.9265518-1.4081802c0.7481804-0.4613647,1.0818634-0.1315155,1.084877,0.7159271
		c0.0014725,0.4139099-0.2949524,1.0129929,0.4480705,1.1690674c0.0767593,1.3550491,0.1535225,2.7100983,0.230278,4.0651321
		c-0.0557747,0.0530472-0.1500893,0.0987396-0.1617813,0.1601715c-0.4963951,2.6075745-0.5020065,2.5301285-3.1701164,2.7541428
		c-3.0185738,0.2534409-6.0040245,0.7482605-9.0601616,0.7218399c-6.1752777-0.0533829-12.258791-0.9222183-18.3460712-1.7839737
		c-4.7689228-0.6751099-9.5072765-1.5391846-14.2103863-2.5847778c-0.5390261-0.1198196-1.0621994-0.3109665-1.5927218-0.4690399
		C0.24,117.0400009,0.24,116.4800034,0.24,115.9200058z"></path>
	<path d="M188.6812744,112.5599823c1.8415375,0.2180023,2.7065735,2.1698303,4.4899597,2.5240936
		c0.4556122,0.0905151,0.8739471,0.357933,1.3724365,0.3677292c3.6352692,0.0714645,7.276123,0.3181305,10.9035339,0.1868286
		c3.0143433-0.1091003,6.0121765-0.6626816,9.0184021-1.0103607c3.2063751-0.3708267,6.414093-0.7300186,9.6210022-1.0962982
		c2.7430267-0.3132935,5.3955688-1.0523529,8.0636902-1.7179031c0.8446655,0.5238724,0.7039185,1.461937,0.7878876,2.2139969
		c0.1720123,1.5407028,0.3506775,3.0860138,0.3776855,4.6480637c0.0172272,0.9962463-0.3174744,1.3810425-1.249588,1.6120834
		c-3.1387787,0.7779388-6.317688,1.3454895-9.5081482,1.8256073c-7.8910522,1.1875-15.8142548,1.9860916-23.8146057,1.7421799
		c-2.7035675-0.0824127-5.3105316-0.4700699-7.667511-1.9013672c-0.3552856-0.2157516-0.7400513-0.2788696-1.1385956-0.321022
		c-0.8007813-0.0846863-1.4325409-0.4291534-1.790802-1.1847534
		C188.0077515,117.7977371,188.4815674,115.1881485,188.6812744,112.5599823z"></path>
</g>
</svg>
