<?xml version="1.0" encoding="utf-8"?>
<!-- Generator: Adobe Illustrator 21.0.0, SVG Export Plug-In . SVG Version: 6.00 Build 0)  -->
<svg version="1.1" id="Camada_1" xmlns="http://www.w3.org/2000/svg" xmlns:xlink="http://www.w3.org/1999/xlink" x="0px" y="0px"
	 viewBox="0 0 212.67 107.95" enable-background="new 0 0 212.67 107.95" xml:space="preserve">
<g>
	<path d="M0.12,66.04c0.16-0.96,0.29-1.92,0.47-2.88c0.65-3.44,2.11-6.4,4.99-8.54c1.81-1.34,3.86-2.03,6.07-2.29
		c2.37-0.28,4.72-0.19,7.02,0.48c3.97,1.16,6.5,3.87,7.97,7.64c1.16,2.97,1.44,6.07,1.22,9.23c-0.14,2.05-0.53,4.02-1.3,5.93
		c-1.74,4.34-4.9,6.89-9.49,7.73c-2.71,0.5-5.35,0.33-7.97-0.49C4.75,81.49,2,78.59,0.95,74.14c-0.33-1.41-0.49-2.87-0.73-4.31
		c-0.02-0.15-0.07-0.3-0.11-0.44C0.12,68.27,0.12,67.16,0.12,66.04z M7.84,67.68c0.08,1.94,0.27,4.16,1.1,6.3
		c1.05,2.67,4.43,3.68,6.46,3.08c2.06-0.62,3.26-2.09,3.99-4c0.65-1.71,0.79-3.52,0.8-5.33c0.01-1.77-0.15-3.53-0.9-5.18
		c-1.11-2.47-3.07-3.87-5.54-3.63c-2.91,0.27-4.29,1.45-5.24,4.05C7.99,64.38,7.84,65.87,7.84,67.68z"/>
	<path d="M169.33,20.05c-2.95-1.41-6.02-2.5-9.22-3.17c-4.24-0.89-8.53-1.33-12.87-1.23c-3.72,0.08-7.4,0.49-10.97,1.56
		c-1.87,0.56-3.65,1.29-5.25,2.44c-3.31,2.4-3.28,5.64-1.03,8.44c1.59,1.97,3.75,3.15,6.03,4.12c3.18,1.35,6.53,2.08,9.92,2.67
		c5.39,0.94,10.8,0.78,16.22,0.48c3.23-0.18,6.45-0.35,9.67-0.62c3.23-0.27,6.46-0.64,9.69-0.99c1.6-0.17,3.2-0.39,4.8-0.59
		c0.09-0.01,0.18,0,0.3,0.11c-0.82,0.34-1.64,0.7-2.47,1.02c-4.21,1.59-8.57,2.66-12.99,3.45c-3.5,0.62-7.01,1.16-10.53,1.59
		c-3.14,0.39-6.31,0.69-9.47,0.85c-5.09,0.26-10.19,0.5-15.28,0.5c-4.57,0-9.16-0.21-13.72-0.53c-6.9-0.49-13.75-1.42-20.4-3.44
		c-3.17-0.96-6.24-2.16-8.94-4.15c-2.14-1.58-3.59-3.61-3.96-6.31c-0.24-1.73,0.16-3.36,0.94-4.9c1.23-2.44,3.1-4.33,5.25-5.97
		c0.21-0.16,0.43-0.32,0.64-0.61c-0.21,0-0.42,0-0.63,0c-5.04,0.04-10,0.71-14.9,1.8c-10.09,2.23-19.57,6.1-28.82,10.62
		c-8.17,4-16.05,8.51-23.87,13.14c-0.2,0.12-0.4,0.23-0.69,0.27c0.09-0.14,0.18-0.29,0.29-0.42c2.39-2.98,5.13-5.64,8.04-8.1
		C49.36,20.06,65.37,11.12,83.07,5.25c5.52-1.83,11.18-3.18,16.93-4.05c5.7-0.86,11.43-1.14,17.2-0.88
		c3.98,0.18,7.94,0.54,11.86,1.21c13.44,2.28,25.85,7.03,36.75,15.38c1.25,0.96,2.41,2.02,3.62,3.03
		C169.4,19.97,169.36,20.01,169.33,20.05z M148.94,35.41c0,0.03,0,0.05,0,0.08c-0.55-0.05-1.09-0.11-1.64-0.16
		c-3.72-0.31-7.4-0.85-11.02-1.76c-3.29-0.82-6.48-1.9-9.36-3.76c-1.43-0.93-2.72-2.03-3.58-3.53c-1.49-2.62-1.23-5.4,1.49-7.37
		c1.71-1.24,3.64-1.96,5.65-2.51c3.28-0.9,6.63-1.27,10.01-1.43c4.53-0.21,9.03,0.05,13.51,0.69c0.88,0.13,1.75,0.27,2.63,0.4
		c0.01-0.06,0.02-0.11,0.03-0.17c-2.29-0.37-4.56-0.84-6.86-1.1c-3.09-0.34-6.2-0.62-9.3-0.76c-4.91-0.22-9.8,0.06-14.6,1.2
		c-2.37,0.56-4.65,1.35-6.61,2.85c-1.09,0.83-1.97,1.85-2.35,3.2c-0.6,2.14-0.13,4.11,1.14,5.9c1.31,1.84,3.14,3.03,5.14,3.98
		c4.45,2.1,9.21,3,14.04,3.59c2.46,0.3,4.93,0.49,7.41,0.65C146.1,35.49,147.53,35.41,148.94,35.41z"/>
	<path d="M67.65,70.07c0.14,1.91,0.41,3.67,1.66,5.13c0.9,1.06,2.03,1.64,3.37,1.79c1.53,0.17,3.05,0.1,4.4-0.76
		c0.46-0.29,0.9-0.67,1.24-1.09c0.61-0.76,1.36-1.31,2.32-1.33c2.07-0.05,4.15-0.02,6.28-0.02c-0.7,2.71-1.98,5.01-4.14,6.79
		c-3.05,2.51-6.63,3.25-10.47,3.06c-2.6-0.13-5.04-0.8-7.16-2.39c-2.76-2.06-4.35-4.88-5.03-8.21c-0.83-4.06-0.83-8.1,0.46-12.07
		c1.71-5.22,5.69-8.27,11.17-8.69c2.59-0.2,5.11,0.04,7.53,0.98c4.06,1.58,6.32,4.71,7.41,8.81c0.65,2.44,0.74,4.93,0.7,7.43
		c-0.01,0.52-0.28,0.56-0.7,0.56c-6.1-0.01-12.2-0.01-18.29-0.01C68.17,70.07,67.95,70.07,67.65,70.07z M79.17,64.87
		c-0.22-3.87-2.09-6.24-6.24-6.02c-2.88,0.15-5.25,2.39-5.21,6.02C71.53,64.87,75.35,64.87,79.17,64.87z"/>
	<path d="M187.97,60.55c0.25-0.82,0.43-1.67,0.77-2.44c1.26-2.83,3.52-4.55,6.45-5.29c4.12-1.04,8.24-0.86,12.26,0.54
		c2.68,0.94,4.55,2.75,5.15,5.64c0.11,0.5,0.16,1.03,0.17,1.54c0.01,3.69,0.04,7.39,0,11.08c-0.02,2.25-0.38,4.44-1.57,6.41
		c-1.83,3.03-4.63,4.59-8.01,5.17c-2.39,0.41-4.81,0.62-7.24,0.37c-2.35-0.24-4.48-1.07-6.26-2.65c-1.29-1.14-1.95-2.65-2.22-4.32
		c-0.35-2.13-0.35-4.25,0.38-6.31c0.46-1.31,1.26-2.36,2.41-3.15c2.22-1.52,4.71-2.25,7.36-2.62c1.82-0.25,3.62-0.64,5.41-1.04
		c0.52-0.12,1.04-0.43,1.46-0.77c1.25-1.01,1.03-2.89-0.45-3.49c-2.18-0.88-4.45-1.07-6.69-0.2c-0.58,0.23-1.01,0.84-1.51,1.26
		c-0.16,0.13-0.34,0.33-0.52,0.33c-2.35,0.02-4.69,0.01-7.04,0.01C188.22,60.63,188.17,60.6,187.97,60.55z M205.51,67.91
		c-0.3,0.11-0.42,0.15-0.54,0.19c-1.52,0.46-3.03,0.94-4.55,1.39c-1.23,0.36-2.48,0.66-3.69,1.06c-1.01,0.34-1.6,1.12-1.91,2.14
		c-0.7,2.32,0.43,4.34,2.72,4.73c0.64,0.11,1.3,0.07,1.95,0.04c2.75-0.12,5.1-1.94,5.62-4.61
		C205.42,71.28,205.38,69.63,205.51,67.91z"/>
	<path d="M90.07,60.57c0.28-2.1,1.17-3.87,2.7-5.32c1.68-1.59,3.72-2.45,5.96-2.77c3.52-0.51,7.03-0.37,10.42,0.77
		c2.55,0.85,4.5,2.42,5.29,5.11c0.21,0.73,0.31,1.51,0.31,2.27c0.02,3.93,0.06,7.85-0.02,11.78c-0.08,3.71-1.49,6.81-4.65,8.94
		c-1.95,1.31-4.17,1.96-6.5,2.11c-1.86,0.12-3.73,0.21-5.58,0.12c-2.26-0.11-4.29-0.98-6.06-2.41c-1.1-0.88-1.81-2.04-2.19-3.38
		c-0.67-2.34-0.71-4.7-0.04-7.05c0.43-1.51,1.3-2.73,2.61-3.61c2.22-1.48,4.69-2.21,7.32-2.57c1.8-0.25,3.58-0.63,5.36-1.03
		c0.54-0.12,1.07-0.44,1.51-0.8c1.2-0.96,1.02-2.85-0.39-3.44c-2.23-0.93-4.56-1.11-6.85-0.21c-0.56,0.22-0.96,0.83-1.45,1.26
		c-0.14,0.13-0.32,0.31-0.48,0.31c-2.37,0.02-4.73,0.01-7.1,0.01C90.21,60.63,90.16,60.6,90.07,60.57z M107.49,68.05
		c-1.68,0.49-3.2,0.94-4.73,1.37c-1.21,0.34-2.45,0.62-3.66,0.98c-1.51,0.46-2.23,1.57-2.45,3.09c-0.27,1.89,0.8,3.52,2.67,3.88
		c0.71,0.13,1.45,0.13,2.18,0.1c2.79-0.11,5.09-1.94,5.62-4.66C107.43,71.25,107.38,69.64,107.49,68.05z"/>
	<path d="M144.12,83.1c-1.48,0-2.89,0.07-4.28-0.02c-2.23-0.14-3.56-1.68-3.56-4.02c-0.01-4.96,0-9.93-0.01-14.89
		c0-0.52,0-1.04-0.07-1.55c-0.23-1.62-1.14-2.73-2.6-3.42c-1.48-0.7-3-0.79-4.54-0.28c-2.26,0.74-3.28,2.3-3.3,4.97
		c-0.02,2.62,0,5.23,0,7.85c0,3.54,0,7.08,0,10.62c0,0.23,0,0.45,0,0.72c-2.66,0-5.27,0-7.94,0c-0.01-0.21-0.03-0.42-0.03-0.62
		c0-5.66-0.01-11.31,0.01-16.97c0.01-2.31,0.22-4.6,1.12-6.77c0.7-1.69,1.81-3.01,3.39-3.95c2.59-1.54,5.39-2.46,8.4-2.52
		c3.51-0.08,6.77,0.89,9.66,2.91c2.01,1.4,2.94,3.52,3.35,5.85c0.26,1.47,0.41,2.97,0.42,4.46c0.05,5.67,0.02,11.35,0.02,17.02
		C144.15,82.66,144.14,82.85,144.12,83.1z"/>
	<path d="M57.44,62.11c-2.55,0-5.08,0.01-7.62-0.02c-0.17,0-0.39-0.21-0.48-0.38c-1.67-2.89-5.55-3.82-8.35-1.99
		c-1.12,0.73-1.79,1.81-2.15,3.04c-0.99,3.36-1.05,6.76-0.01,10.11c0.67,2.17,2.09,3.72,4.47,4.08c1.69,0.25,3.35,0.1,4.83-0.84
		c0.4-0.25,0.74-0.62,1.04-0.99c0.8-0.95,1.77-1.4,3.03-1.37c1.82,0.05,3.65,0.01,5.53,0.01c-0.76,2.92-2.18,5.35-4.59,7.15
		c-2.98,2.23-6.39,2.88-10.02,2.71c-2.42-0.12-4.71-0.71-6.74-2.09c-2.86-1.94-4.57-4.68-5.34-8c-1.02-4.39-1.05-8.79,0.52-13.06
		c1.86-5.04,5.58-7.75,10.93-8.2c3.14-0.26,6.16,0.14,9,1.61C54.71,55.59,56.7,58.96,57.44,62.11z"/>
	<path d="M185.15,62.11c-2.62,0-5.14,0.01-7.66-0.02c-0.18,0-0.42-0.23-0.51-0.41c-1.76-3.59-6.88-3.46-8.92-1.51
		c-1,0.95-1.53,2.15-1.82,3.46c-0.67,3.01-0.72,6.03,0.15,9.01c0.67,2.26,2.05,3.92,4.53,4.31c1.69,0.26,3.35,0.11,4.84-0.82
		c0.41-0.26,0.77-0.64,1.09-1.02c0.79-0.93,1.75-1.37,2.98-1.34c1.82,0.05,3.65,0.01,5.55,0.01c-0.13,0.43-0.22,0.82-0.35,1.19
		c-1.79,4.99-5.42,7.71-10.58,8.51c-2.41,0.37-4.8,0.29-7.14-0.41c-3.83-1.14-6.51-3.65-7.89-7.34c-1.93-5.14-2.01-10.41-0.06-15.56
		c1.85-4.89,5.6-7.44,10.8-7.88c2.88-0.24,5.68,0.08,8.33,1.29C182.14,55.25,184.03,58.32,185.15,62.11z"/>
	<path d="M147.38,52.99c1.67,0,3.27-0.12,4.85,0.03c1.64,0.16,2.94,1.71,3.07,3.35c0.02,0.25,0.03,0.5,0.03,0.75
		c0,8.42,0,16.85,0,25.27c0,0.21,0,0.42,0,0.67c-2.67,0-5.29,0-7.94,0C147.38,73.02,147.38,62.99,147.38,52.99z"/>
	<path d="M167.89,93.1c2.65,0.06,5.27,0.01,7.87,0.21c1.95,0.15,3.28,1.53,3.53,3.26c0.32,2.18-0.42,3.7-2.27,4.65
		c-0.08,0.04-0.16,0.09-0.29,0.15c0.84,2.13,1.68,4.25,2.55,6.45c-0.93,0-1.79,0.02-2.64-0.02c-0.12,0-0.27-0.23-0.33-0.39
		c-0.66-1.7-1.31-3.4-1.93-5.11c-0.13-0.35-0.28-0.51-0.68-0.5c-1.03,0.04-2.07,0.01-3.18,0.01c0,2.01,0,3.98,0,5.98
		c-0.91,0-1.75,0-2.63,0C167.89,102.95,167.89,98.09,167.89,93.1z M170.54,99.62c1.37,0,2.71,0.08,4.04-0.02
		c1.21-0.1,1.9-0.86,1.97-1.89c0.08-1.18-0.4-2.08-1.5-2.24c-1.48-0.21-3-0.19-4.51-0.27C170.54,96.77,170.54,98.18,170.54,99.62z"
		/>
	<path d="M154.24,108.06c-2.16,0-3.8-0.91-4.93-2.76c-1.83-3-1.61-7.41,0.4-10.13c2.24-3.02,7.4-3.08,9.51,0.35
		c1.07,1.74,1.43,3.62,1.32,5.62c-0.07,1.34-0.36,2.62-1.02,3.81C158.39,106.98,156.56,108.06,154.24,108.06z M157.79,100.45
		c-0.21-1.05-0.33-2.23-0.68-3.33c-0.44-1.41-1.42-2.03-2.8-2.03c-1.38,0.01-2.36,0.64-2.83,2.02c-0.75,2.21-0.76,4.45-0.03,6.67
		c0.49,1.48,1.49,2.14,2.93,2.12c1.31-0.02,2.47-0.87,2.85-2.27C157.51,102.63,157.59,101.59,157.79,100.45z"/>
	<path d="M200.94,104.28c0.73-0.16,1.42-0.32,2.12-0.47c0.13-0.03,0.26-0.02,0.39-0.04c0.96,1.97,3.45,2.77,5.42,1.76
		c0.68-0.35,1.11-0.87,1.06-1.7c-0.05-0.8-0.45-1.35-1.21-1.57c-1.25-0.37-2.51-0.68-3.77-1.04c-2.25-0.63-3.25-1.91-3.24-4.08
		c0.01-1.77,1.05-3.23,2.86-3.84c1.98-0.68,3.94-0.54,5.79,0.48c0.91,0.5,1.55,1.23,1.81,2.31c-0.84,0.21-1.65,0.41-2.45,0.61
		c-0.99-1.52-2.24-2-3.89-1.5c-0.83,0.25-1.33,0.8-1.37,1.52c-0.04,0.77,0.3,1.31,1.21,1.61c1.13,0.37,2.29,0.62,3.43,0.94
		c1.3,0.36,2.53,0.82,3.2,2.13c1.04,2.02,0.39,4.43-1.54,5.65c-2.18,1.38-5.95,1.29-8.06-0.19
		C201.81,106.28,201.21,105.4,200.94,104.28z"/>
	<path d="M123.08,96.13c-0.83,0.21-1.63,0.41-2.41,0.6c-0.96-1.52-2.28-2.02-3.95-1.49c-0.78,0.25-1.26,0.8-1.31,1.51
		c-0.05,0.71,0.27,1.29,1.1,1.57c1.16,0.39,2.36,0.65,3.54,0.99c1.18,0.33,2.32,0.72,3.02,1.83c1.26,2,0.7,4.58-1.27,5.89
		c-2.22,1.47-6.09,1.38-8.25-0.2c-0.86-0.63-1.38-1.47-1.69-2.54c0.86-0.18,1.69-0.36,2.51-0.54c0.99,1.98,3.39,2.78,5.38,1.83
		c0.71-0.34,1.17-0.86,1.12-1.71c-0.05-0.83-0.48-1.37-1.26-1.6c-1.25-0.36-2.52-0.67-3.77-1.03c-2-0.57-3.06-1.75-3.18-3.48
		c-0.15-2.22,0.87-3.8,2.99-4.48c1.93-0.62,3.83-0.46,5.63,0.52C122.3,94.33,122.93,95.17,123.08,96.13z"/>
	<path d="M111.96,49.76c-1.79,0.06-3.44,0.08-5.08,0.18c-1.16,0.07-1.94-0.41-2.59-1.34c-0.55-0.78-1.22-1.47-1.88-2.24
		c-0.84,1.05-1.64,2.05-2.46,3.04c-0.15,0.18-0.42,0.36-0.65,0.37c-1.53,0.04-3.07,0.05-4.61,0.04c-0.53,0-1.06-0.07-1.7-0.12
		c0.31-0.54,0.54-1.02,0.85-1.44c0.78-1.04,1.54-2.12,2.42-3.07c1.21-1.3,2.7-2.17,4.55-2.17c1.52,0,3.04-0.04,4.55,0.11
		c1.58,0.15,2.78,1.09,3.69,2.35C110.02,46.8,110.91,48.19,111.96,49.76z"/>
	<path d="M130.86,93.1c2.51,0.06,5-0.01,7.46,0.22c2.26,0.21,3.61,2.08,3.57,4.43c-0.04,2.11-1.64,3.91-3.74,4.18
		c-0.66,0.09-1.34,0.09-2.01,0.1c-0.86,0.02-1.73,0-2.65,0c0,1.94,0,3.83,0,5.76c-0.9,0-1.74,0-2.62,0
		C130.86,102.95,130.86,98.1,130.86,93.1z M133.49,99.64c1.36,0,2.67,0.08,3.96-0.03c0.97-0.08,1.58-0.9,1.66-1.93
		c0.07-0.92-0.45-1.84-1.29-2.1c-1.42-0.44-2.88-0.14-4.32-0.24C133.49,96.86,133.49,98.26,133.49,99.64z"/>
	<path d="M191.98,107.81c-1.01,0-1.9,0-2.87,0c0-4.11,0-8.19,0-12.34c-1.32,0-2.58,0-3.88,0c0-0.78,0-1.5,0-2.26
		c3.5,0,7.01,0,10.56,0c0,0.72,0,1.45,0,2.25c-1.27,0-2.51,0-3.82,0C191.98,99.59,191.98,103.68,191.98,107.81z"/>
</g>
</svg>
