<!--?xml version="1.0" encoding="utf-8"?-->
<!-- Generator: Adobe Illustrator 24.2.3, SVG Export Plug-In . SVG Version: 6.00 Build 0)  -->
<svg version="1.1" id="Camada_1" xmlns="http://www.w3.org/2000/svg" xmlns:xlink="http://www.w3.org/1999/xlink" x="0px" y="0px" viewBox="0 0 229 418" enable-background="new 0 0 229 418" xml:space="preserve">
<g onclick="select(this)" class="" id="estampa-primaria" fill="#082890">
	<path d="M228.9600067,116.1600037c-6.8573608,2.7827988-14.012085,4.3406754-21.3363495,5.2295303
		c-6.1865082,0.7507629-12.3683929,0.6981201-18.5518646,0.0141602c-1.5450592-0.1708984-3.0964508-0.3526306-4.5778809-1.2681656
		c-0.2169952,2.0427322-0.4040222,3.9826508-0.6320343,5.9177551c-0.8618011,7.3140564-1.3113098,14.6531677-1.3702393,22.0167847
		c-0.0173035,2.1614838,0.0713806,4.3074493,0.516861,6.4402771c0.4073029,1.9498596-0.0998688,3.9020081-0.1979218,5.8531799
		c-0.0421448,0.8382263-0.1979218,1.6777191-0.1665344,2.5115509c0.242218,6.434021-0.5886841,12.8650208-0.0313416,19.3006744
		c0.131073,1.5136261,0.0321655,3.0341797-0.1354828,4.5505066c-0.3388214,3.0646515,0.2162628,6.0424805,0.888443,9.0185089
		c1.6364441,7.2451019,1.3792725,14.5308533,0.3453064,21.8226624c-0.3037415,2.1420898-0.3855896,4.2071381,0.3206482,6.3586578
		c1.7946777,5.467392,1.8110352,11.0920105,0.9322662,16.7324371c-0.2185211,1.4025421-0.2377777,2.7680054,0.0836639,4.1573029
		c0.8846588,3.8234863,0.4741974,7.7231598,0.6637421,11.5890808c0.2915344,5.9466248,0.6890106,11.888916,1.4359894,17.8041687
		c0.2438354,1.9310303,0.2092438,3.8996887,0.2574005,5.8522644c0.0527649,2.1405029-0.3005829,2.6210632-2.4157562,3.2075806
		c-2.8646393,0.794342-5.8190155,1.0609741-8.761795,1.3639832c-7.7271729,0.7956848-15.4845428,0.8746948-23.2430573,1.0188599
		c-11.2753754,0.2095337-22.5467682,0.6609192-33.8225098,0.8162231
		c-12.438446,0.1713562-24.8563919-0.8457642-37.2967606-0.8506165c-8.3976974-0.0032349-16.7977066-0.0982056-25.178421-0.7355652
		c-4.1890564-0.3185425-8.3643112-0.7582092-12.4702377-1.697113c-0.1558876-0.035675-0.3135872-0.0641479-0.4683266-0.104126
		c-3.2452049-0.8378296-3.6082077-1.1939087-3.4111176-4.5150146c0.4636269-7.8121643,1.0338669-15.6180115,1.5500145-23.4270782
		c0.1054497-1.595459,0.2506523-3.1955872,0.2229881-4.790863c-0.0473404-2.7297363,0.1034393-5.4339447,0.5875511-8.1213531
		c0.2500763-1.3882141,0.2259979-2.7841339,0.0151443-4.1764221c-0.4365196-2.8824615-0.2956657-5.7467041,0.3321266-8.5827179
		c0.2205505-0.9962769,0.1968765-1.9702454,0.1224289-2.9738007c-0.3369904-4.542984-1.021347-9.0657196-0.838974-13.6401062
		c0.1720695-4.3159637,1.1946259-8.4609985,2.6406822-12.5021362c0.4013214-1.1215515,0.6408043-2.1886902,0.4723244-3.3767853
		c-0.1687775-1.1901703-0.1351967-2.394989,0.0903816-3.5845947c0.3084717-1.6267548,0.1929054-3.2503662,0.1125488-4.8949585
		c-0.1616058-3.3076172-0.1834526-6.6237335-0.1970177-9.9365997c-0.052845-12.9072418-0.042881-25.8148804-0.1347389-38.7217865
		c-0.0367775-5.1676178-1.0135727-10.2604523-1.5068283-15.3927841c-0.1257133-1.3080597-0.4853134-2.589325-0.4131927-3.8757019
		c-7.8684654,2.5462418-15.929512,2.0281906-23.9619179,1.4885941c-5.6706181-0.380928-11.2758665-1.3124695-16.7199078-3.0362549
		C1.8311924,118.7418365,0.9764115,118.4156113,0.24,117.840004c0-1.0400009,0-2.0799942,0-3.1200027
		c0.7839233-1.5675049,0.8099706-3.3187027,1.1322011-4.9857101c1.8816141-9.7342224,2.8292222-19.6107941,4.3741846-29.3990555
		c0.8903303-5.6407928,1.325304-11.3509674,2.6825323-16.9219055c2.1208677-8.70541,5.5588036-16.7387733,11.6269484-23.4972649
		c2.3090782-2.5717659,5.1204948-4.5879822,7.5157013-7.0551529c0.576973-0.5943108,1.271637-1.010725,1.9922924-1.3597908
		c6.8783321-3.3316536,13.9418278-6.2391987,20.9893589-9.1878891c7.5772324-3.1703224,14.9921684-6.6858664,22.0402946-10.9327602
		c0.5205917-0.3136797,0.9388657-0.705184,1.332901-1.1698313c1.057663-1.2472076,2.2910309-2.2285705,4.0455093-2.2414079
		c-1.1952667,0.7149806-1.7738953,1.6796479-1.6796951,3.1586633c0.1656342,2.6004715,1.1424484,4.8796759,2.4790344,7.0355616
		c2.8858032,4.6547432,7.0452805,7.9896545,11.4976883,11.021534c8.4040756,5.7227726,17.621521,8.2862186,27.7946777,7.311491
		c2.921814-0.2799454,5.7238159-0.997406,8.5060272-1.8678017c2.7591858-0.863205,5.2772217-2.2729034,7.793808-3.6233177
		c3.9675446-2.1290226,7.4513397-4.9575424,10.659256-8.1302776c2.8668976-2.8354588,5.0182343-6.0763798,6.0192871-10.0144882
		c0.6301117-2.4788532,0.1496582-3.7491312-1.6930847-4.649085c1.8110504-0.1460323,2.9575653,0.9652777,4.0596466,2.1531324
		c0.2682648,0.2891378,0.4216614,0.6678896,0.7888641,0.8850985c3.9733429,2.350481,7.8821411,4.8019476,12.1104736,6.7087107
		c10.4221191,4.6998501,21.1058655,8.7906857,31.4871674,13.5836029c0.7298584,0.3369656,1.3702698,0.7726593,1.9723816,1.2949181
		c0.9357605,0.811657,1.8710632,1.6272087,2.8497467,2.3853722c2.9891663,2.3157005,5.6452942,4.9609528,7.9433899,7.9606667
		c5.453476,7.1183891,8.2686005,15.3348503,10.0013275,24.0093994c0.9792633,4.9025955,1.1637573,9.9325867,2.4346924,14.7875519
		c2.2414246,8.5621185,3.4134674,17.3215179,4.8167419,26.0400467c0.2710724,1.6842041,0.4395752,3.4221878,1.1466522,5.019989
		C228.9600067,114.0800095,228.9600067,115.1200027,228.9600067,116.1600037z"></path>
	<path d="M144.21698,9.0870171c-3.2720032,10.3374939-19.6696625,19.9784584-32.480835,19.2489719
		c-10.9315491-0.6224556-26.9761276-11.5331841-28.5077438-19.4994621
		c10.157402,0.8995571,20.2723083,2.1809816,30.4367905,2.1495667
		C123.8319626,10.9546719,133.9690247,9.9049759,144.21698,9.0870171z"></path>
</g>
<image overflow="visible" width="461" height="78" xlink:href="F9E89B36.jpg" transform="matrix(1 0 0 1 -7894 -7770.1103516)">
</image>
<g onclick="select(this)" class="" id="estampa-secundaria" fill="#801815">
	<path d="M174.3967743,284.8035889c-2.2888794,0.3658142-4.6030426,0.4369812-6.9106445,0.5372314
		c-7.9725189,0.3463135-15.9520721,0.3966064-23.9300842,0.5079651c-3.189209,0.0445251-6.3735046,0.3215637-9.5663452,0.2087708
		c-0.0103455-3.4763184-0.0186768-6.9526978-0.0322571-10.4290161c-0.0042877-1.0965271-0.0107422-1.105957-1.1199646-1.1061707
		c-12.6282501-0.0022278-25.2564926-0.0021362-37.8847351-0.0002441c-1.1310577,0.0001831-1.1337891,0.0081177-1.1372757,1.2060852
		c-0.0097809,3.3566589-0.0170898,6.7132874-0.0253677,10.0699158c-4.2320404,0.0722656-8.4625473-0.0267334-12.6933746-0.1066284
		c-5.9881973-0.1130066-11.9797058-0.0915527-17.9637604-0.3673706c-3.265976-0.1506042-6.5410118-0.2246704-9.7799492-0.7469788
		c-0.0114555-2.9985046-0.020237-5.9970093-0.03582-8.9955139c-0.0054398-1.0455933-0.013092-1.0570679-1.0478897-1.0586548
		c-3.5587997-0.0054321-7.1176186,0.0004578-10.6764221-0.0036621c-1.0022507-0.0011597-1.002243-0.0101318-1.0699997-1.0344849
		c0.5970192-5.726532,0.7297363-11.4873657,1.2662277-17.2178345c0.276268-2.950882,0.3171196-5.9043579,0.3011894-8.8639069
		c-0.0081825-1.5211792,0.229435-3.0294647,0.4875832-4.5244598c0.2883415-1.6698151,0.3317337-3.3236084,0.0520859-4.9978943
		c-0.1976509-1.1833191-0.2488937-2.3825073-0.1245499-3.5823669c3.2323647-0.019455,6.4647331-0.0380859,9.6970901-0.0588226
		c1.103981-0.0070953,1.1141472-0.0095215,1.1143646-1.1003418c0.0025063-12.6552734,0.002739-25.3105164-0.000164-37.9657898
		c-0.0002365-1.0375671-0.0129166-1.042984-1.0525017-1.0514069c-2.2746735-0.0184479-4.5493965-0.030838-6.8240967-0.0456696
		c0.3623199-2.3826599-0.034687-4.7770844,0.0616302-7.1439667c0.1512833-3.7178345-0.1630669-7.4077911-0.1953621-11.1105042
		c-0.010498-1.2036133,0.1872673-2.3835907,0.23983-3.5783997c0.1406631-3.1971436-0.3143158-6.3751526-0.2820587-9.5677338
		c0.0302124-2.9907074,0.0692863-5.9813385,0.1044617-8.9719849c2.3184814-0.0187531,4.6370125-0.0336914,6.9554367-0.058075
		c0.9747658-0.0102539,0.9917641-0.0193024,0.9920578-0.9961548c0.0038795-12.6396942,0.0037918-25.2793884,0.0001144-37.9190903
		c-0.0002975-1.0189056-0.0159531-1.0294266-1.0807228-1.0316849c-2.8399239-0.0060349-5.6801147-0.0228577-8.5196228,0.0119858
		c-0.7348518,0.0090179-1.0250359-0.1625671-1.1043015-0.9677658c-0.210762-2.1410217-0.5495338-4.2696075-0.8447762-6.4021072
		c-0.5134621-3.7086487-0.9708443-7.4230499-1.9090614-11.0632019c-1.327137-5.1490784-3.1815605-10.1060791-5.3208427-14.9597473
		c-0.8771057-1.9900284-1.5740967-4.0011978-1.6882362-6.1920395c-0.0340958-0.6544495,0.1352882-0.9414215,0.850174-0.912941
		c1.2380028,0.0493469,2.4793968,0.0134048,3.719368,0.0133896c4.9598808-0.0000381,9.9197693,0.0027313,14.8796425-0.0023193
		c0.9988098-0.0010147,0.9998817-0.0146408,1.0199738-0.9636917c0.0050774-0.2398911,0.0008049-0.4799805,0.0008049-0.7199707
		c0.0000038-11.8797188-0.0000229-23.7594337,0.0000763-35.6391525c0.0000038-0.3199883,0.0058975-0.6400528,0.0006104-0.9599419
		c-0.0051231-0.3096809,0.0827484-0.5332489,0.4201736-0.6266861c2.0638618-0.5715141,4.0310364-1.3907547,6.2706299-1.3756027
		c10.7992516,0.073082,21.5992622,0.0336227,32.3990059,0.0319214c1.2383118-0.0001907,1.243515-0.0064545,1.2448578-1.241724
		c0.003212-2.9599285-0.003212-5.9198742,0.0063019-8.8797741c0.0012207-0.3806629-0.1013489-0.7832508,0.138237-1.2105312
		c13.4640961,9.1702003,26.8783493,9.296814,40.3285904-0.3637676c0,2.5642834-0.0001526,4.9151478,0.0000305,7.2660141
		c0.0001068,1.2399673,0.012558,2.4800987-0.0045166,3.7198257c-0.006897,0.5013008,0.1738586,0.7461281,0.6960754,0.7131996
		c0.3187103-0.020092,0.6397552-0.0023308,0.9597626-0.0023308c9.6797485,0.0000801,19.3598175,0.039917,29.039093-0.0285149
		c2.3602448-0.0166893,4.60495,0.2758484,6.7789459,1.1704941c0.5528564,0.22752,1.115509,0.4318466,1.6770172,0.6376495
		c1.2834473,0.4703979,1.1552124,0.0977898,1.1558533,1.6490936c0.004776,11.5997238,0.0026093,23.1994438,0.002594,34.7991676
		c0,2.0266266-0.0000458,2.0266266,2.0031128,2.0266266c5.6398773,0.0000076,11.2797241-0.0006638,16.9195862,0.0005035
		c1.2887573,0.0002747,1.3222809,0.0060043,1.2124786,1.3217316c-0.0760498,0.9112167-0.2745056,1.8115463-0.3937531,2.7199478
		c-0.4141388,3.1545258-1.4619293,6.1500092-2.6981812,9.028717c-1.1062622,2.5760193-2.0683746,5.1772842-2.831192,7.8611984
		c-1.231842,4.3340988-2.0380402,8.7643738-2.816391,13.1939316c-0.3500824,1.9923248-0.8609314,3.9793167-0.782608,6.0333328
		c-0.0101166,0.080864-0.0202332,0.1617279-0.0303802,0.2425995c-3.1160583,0.1565628-6.2341766,0.0280685-9.3511047,0.0670624
		c-1.225235,0.0153275-1.2303162,0.0084457-1.2307129,1.2473755c-0.0019073,5.8378067-0.0008545,11.6756134-0.0008545,17.5134125
		c-0.0000153,6.6374969-0.0002136,13.2749786,0.0001068,19.9124908c0.000061,1.380127-0.0903625,1.2742157,1.3151398,1.2790985
		c2.3588104,0.0081787,4.7176208,0.0173798,7.0764313,0.0261536c0.5244598,1.4377899,0.3546906,2.9234924,0.2129211,4.3822632
		c-0.2238922,2.3034363-0.5295563,4.6063995-0.3956299,6.9191437c0.2082214,3.5960999-0.2483215,7.1716614-0.2142792,10.7599487
		c0.0177765,1.8739624,0.0053101,3.745163,0.1559753,5.6190643c0.1469116,1.8269806,0.0797424,3.6588745-0.0984039,5.4945374
		c-0.2356873,2.4285889-0.0996704,4.8540039,0.5592194,7.2259827c-2.5145874,0.0153656-5.0291748,0.0283661-7.5437317,0.0471649
		c-1.0522766,0.0078888-1.0655975,0.0134888-1.0658264,1.0406494c-0.0029602,12.6972809-0.0030212,25.3945465,0.0009918,38.0918274
		c0.0003052,0.9670868,0.0172119,0.9791718,0.9910736,0.9830017c2.0762329,0.008194,4.1525726-0.0046692,6.2288208,0.0052185
		c1.2763214,0.0060883,2.5525208,0.0383301,3.8287659,0.0588379c0.107132,2.0059357-0.163269,3.9911804-0.4744568,5.95578
		c-0.2935791,1.8535614-0.1373596,3.6356659,0.2118683,5.4548645c0.4677734,2.4366455,0.6035919,4.910965,0.4945374,7.3937073
		c-0.1846008,4.2033844,0.3283386,8.3720856,0.6300049,12.5507355c0.1694794,2.3479309,0.4046021,4.6911621,0.5708466,7.0392761
		c0.0423737,0.5984802,0.349411,1.1530457,0.2446594,1.7659912c-0.4367218,0.0197144-0.8734283,0.0556335-1.3101807,0.0564575
		c-2.668869,0.0053101-5.3381195-0.023468-8.006424,0.0152588c-1.0993347,0.0159302-2.2143555-0.2045593-3.3005829,0.1427612
		c-0.2394714,1.0588379-0.0872498,2.1321106-0.1041718,3.1978455
		C174.4029999,280.1836243,174.4085083,282.4937439,174.3967743,284.8035889z M93.6550217,93.5136108
		c0-1.479248-0.0000153-2.9584808,0-4.4377289c0.0000458-4.8774948,0.0027771-9.7549896-0.0020599-14.6324921
		c-0.0009918-1.0006104-0.0140076-1.0008774-0.962677-1.0218353c-0.1198807-0.002655-0.2398682-0.0003662-0.3598099-0.0003662
		c-12.5135727,0.0000076-25.027153-0.0000076-37.5407333,0.0001755c-0.2398682,0.0000076-0.4801102,0.011528-0.7195053,0.0014954
		c-0.396244-0.0166168-0.5965652,0.1474075-0.5814934,0.5606155c0.0116539,0.3193436-0.0014725,0.6395416-0.0014801,0.9593658
		c-0.0002098,12.353653-0.0001755,24.7073212-0.0001717,37.0609741c0,0.2398758,0.0228691,0.4823761-0.0042877,0.7191391
		c-0.0755081,0.6581955,0.2566185,0.849968,0.84589,0.7870255c0.1581039-0.0168915,0.319561-0.0022812,0.4794769-0.0022812
		c12.5135841,0.0000229,25.0271568,0.0000381,37.5407372-0.0001144c0.2398682,0,0.4800491-0.0103607,0.7195282-0.0012665
		c0.395546,0.0150223,0.595665-0.1558304,0.585022-0.5627747c-0.007309-0.2796249,0.0014572-0.5596313,0.0014648-0.8394775
		C93.655098,105.9072495,93.6550522,99.7104263,93.6550217,93.5136108z M154.1964111,73.4211655
		c-6.2752991,0-12.5505981-0.0007401-18.8258972,0.0006256c-1.2374268,0.000267-1.2425232,0.0040054-1.2426453,1.2189407
		c-0.0013123,12.5506058-0.0012665,25.1012115-0.0001221,37.6518173c0.0001068,1.2106323,0.0046997,1.2144852,1.2483368,1.2145767
		c12.5506134,0.0009766,25.1012115,0.0009918,37.651825-0.0000153c1.2372131-0.0000992,1.2416229-0.0040588,1.2417297-1.2203293
		c0.0010986-12.5506058,0.0011597-25.1012115-0.0001221-37.6518173c-0.0001068-1.2095108-0.0051575-1.2129745-1.2471924-1.2132187
		C166.7470245,73.4204788,160.4717255,73.4211578,154.1964111,73.4211655z M93.6551361,174.0064545
		c0-6.3174438,0.000885-12.6348877-0.0007858-18.9523315c-0.0003128-1.2107544-0.0049438-1.2150726-1.2514496-1.2151794
		c-12.5549164-0.0010986-25.1098328-0.0010681-37.6647568-0.000061c-1.2453613,0.0000763-1.2502594,0.0040436-1.2503738,1.2116699
		c-0.0012169,12.5549316-0.0012054,25.109848,0.0000191,37.6647644c0.0001221,1.2108612,0.0050125,1.21492,1.2464104,1.2150116
		c12.5549164,0.0010681,25.1098404,0.0010834,37.6647568,0.0000458c1.2536011-0.0000916,1.2556229-0.0041809,1.2557907-1.3314667
		C93.6555176,186.401413,93.6550827,180.203949,93.6551361,174.0064545z M154.1949158,153.8382721
		c-6.2759705,0-12.5519409-0.0007782-18.8279266,0.0006714c-1.2346649,0.0002899-1.2391815,0.0042419-1.2393036,1.2220764
		c-0.0011292,12.5519409-0.0011139,25.1038818,0.0001068,37.6558228c0.0001221,1.2097473,0.0049744,1.2134857,1.2466278,1.2135925
		c12.5519409,0.0009613,25.1038971,0.0009766,37.655838-0.0000458c1.2344208-0.0000916,1.239212-0.0041046,1.2393188-1.2215729
		c0.0012054-12.5519409,0.0012054-25.1038971,0.0000153-37.655838c-0.0001068-1.2101135-0.0048981-1.2138062-1.2467499-1.2140808
		C166.7468567,153.8375397,160.4709015,153.8382721,154.1949158,153.8382721z M114.0048218,194.1208801
		c-6.3180008,0-12.6360092-0.0008392-18.9540176,0.0007324c-1.2298737,0.0003052-1.2349396,0.0046387-1.2350693,1.2298584
		c-0.0012436,12.5560303-0.0012054,25.1120605,0.0000916,37.6681061c0.0001221,1.2159271,0.0051651,1.2197418,1.2352982,1.2198334
		c12.5560303,0.0009613,25.1120682,0.0009918,37.6680984-0.0000305c1.2328339-0.0001068,1.2382965-0.0041351,1.2384491-1.2201233
		c0.0014191-12.5560455,0.0014038-25.1120758,0.0001831-37.6681061c-0.0001221-1.2246094-0.005127-1.229187-1.2389526-1.2295074
		C126.4808807,194.1199799,120.2428513,194.1208801,114.0048218,194.1208801z M73.6844101,234.2438965
		c-6.3171463,0-12.634285-0.0007019-18.9514313,0.0006256c-1.2405396,0.0002594-1.2451324,0.0039063-1.2452469,1.2145081
		c-0.0011482,12.5543213-0.001194,25.1086578,0.0000877,37.6629791c0.0001259,1.2043457,0.0052414,1.208252,1.2529564,1.208374
		c12.5543213,0.0010376,25.1086426,0.0010681,37.6629715,0c1.2454529-0.0001221,1.2504883-0.0043335,1.250618-1.216156
		c0.0012589-12.5543213,0.0012436-25.1086426-0.0000153-37.6629639c-0.0001144-1.2026672-0.0051727-1.2064514-1.2584152-1.2067261
		C86.1587677,234.2431335,79.9215851,234.2438965,73.6844101,234.2438965z M154.3300781,234.2438965
		c-6.3156586,0-12.6313171-0.0006714-18.9469757,0.0005646c-1.2502441,0.0002441-1.2552185,0.0036316-1.2553406,1.203949
		c-0.0012207,12.5513763-0.0011749,25.1027374-0.000061,37.6540985c0.0001068,1.2235718,0.0044861,1.2277527,1.2322998,1.2278748
		c12.5513916,0.0010681,25.1027527,0.0010376,37.6541443,0.0001221c1.2498932-0.0000916,1.2552185-0.0036621,1.2553558-1.2054443
		c0.0013275-12.5513916,0.0012207-25.1027832,0.0001831-37.6541443c-0.0000916-1.2221527-0.0042572-1.2260895-1.2324524-1.2263641
		C166.8015137,234.243103,160.5658112,234.2438965,154.3300781,234.2438965z M113.8333969,73.2263184
		c6.3179169,0,12.6358414,0.0011139,18.9537735-0.0009918c1.1637573-0.0003967,1.1703186-0.006424,1.1704712-1.1736679
		c0.0016174-12.5158882,0.0016022-25.0317726,0.0000458-37.5476608c-0.0001678-1.2290802-0.0063934-1.2348137-1.2468719-1.2349548
		c-12.5558624-0.0014496-25.1117325-0.0014801-37.6675949,0.0000458c-1.2219925,0.0001488-1.2273331,0.0062141-1.227478,1.2502785
		c-0.0013504,12.5158844-0.0014572,25.0317726,0.0002213,37.547657c0.0001526,1.1523819,0.0069885,1.1579819,1.1836166,1.1583557
		C101.2775192,73.2273636,107.5554504,73.2263107,113.8333969,73.2263184z M113.7972412,153.6475677
		c6.2375793,0,12.4751511,0.0025482,18.7127228-0.001709c1.6404877-0.0011139,1.4453278,0.1440277,1.4463348-1.5011749
		c0.0050812-8.3567505,0.0023193-16.7134857,0.0023193-25.0702286c0-4.1183929,0.0036469-8.2368011-0.002655-12.3551941
		c-0.0015259-0.9987793-0.0165558-0.9995804-0.9709778-1.021843c-0.1998291-0.0046539-0.399826-0.0007553-0.599762-0.0007553
		c-12.3551788-0.0000076-24.7103806,0-37.065567,0.0000381c-0.2399063,0-0.4810944,0.0165176-0.7194519-0.0025864
		c-0.5364761-0.0429764-0.8546524,0.1232834-0.7879639,0.7307816c0.0216751,0.1975098,0.0027161,0.3994675,0.0027161,0.5993881
		c-0.0000381,12.4351578-0.0000305,24.8703079,0.0000153,37.3054733c0,0.1999207,0.0133972,0.4008179-0.0016937,0.5995636
		c-0.0371628,0.4895477,0.1300507,0.7670746,0.6717834,0.7205963c0.238121-0.0204315,0.4795151-0.0023956,0.7194214-0.0023956
		C101.4020691,153.647583,107.5996552,153.6475677,113.7972412,153.6475677z"></path>
</g>
<path d="M189.1302643,91.9275818c-0.1253815-0.2260437-0.0250854-0.4249802,0.0789948-0.643013
	c0.2248383,0.2606354,0.2137604,0.4681931-0.091217,0.6340866L189.1302643,91.9275818z"></path>
<g onclick="select(this)" class="" id="gola-primaria" fill="#082890">
	<path d="M77.9719238,7.969233c0.9347-0.1562185,1.5103531-0.8625746,2.1502304-1.4465899
		c0.7069397-0.645227,1.4712753-1.2745314,2.0082016-2.0507722c2.1033096-3.040709,5.3332443-3.885504,8.6122055-3.9147363
		c15.2177811-0.1356687,30.4375076-0.0768437,45.6563797-0.0336667c1.8729248,0.0053136,3.7169037,0.4812706,5.5058594,1.0726919
		c0.8923645,0.2950147,1.5990906,0.8437419,2.2200623,1.5630372c1.5876007,1.8389177,3.0818024,3.7833462,5.2238464,5.0523243
		c1.8429565,0.8999453,2.32341,2.1702232,1.6932983,4.6490765c-1.0010529,3.9381084-3.1523895,7.1790295-6.0192871,10.0144882
		c-3.2079163,3.1727352-6.6917114,6.001255-10.659256,8.1302776c-2.5165863,1.3504143-5.0346222,2.7601128-7.793808,3.6233177
		c-2.7822113,0.8703957-5.5842133,1.5878563-8.5060272,1.8678017c-10.1731567,0.9747276-19.3906021-1.5887184-27.7946777-7.311491
		c-4.4524078-3.0318794-8.6118851-6.3667908-11.4976883-11.021534c-1.336586-2.1558857-2.3134003-4.4350901-2.4790344-7.0355616
		C76.1980286,9.648881,76.7766571,8.6842136,77.9719238,7.969233z M144.21698,9.0870171
		c-10.2479553,0.8179588-20.3850174,1.8676548-30.5517883,1.8990765
		c-10.1644821,0.031415-20.2793884-1.2500095-30.4367905-2.1495667
		c1.5316162,7.9662781,17.5761948,18.8770065,28.5077438,19.4994621
		C124.5473175,29.0654755,140.9449768,19.424511,144.21698,9.0870171z"></path>
</g>
</svg>
