<!--?xml version="1.0" encoding="utf-8"?-->
<!-- Generator: Adobe Illustrator 24.2.3, SVG Export Plug-In . SVG Version: 6.00 Build 0)  -->
<svg version="1.1" id="Camada_1" xmlns="http://www.w3.org/2000/svg" xmlns:xlink="http://www.w3.org/1999/xlink" x="0px" y="0px" viewBox="0 0 229 418" enable-background="new 0 0 229 418" xml:space="preserve">
<g onclick="select(this)" class="" id="estampa-primaria" fill="#71aad4">
	<path d="M43.3154755,120.5660324c0.0284691-2.3716431-0.4590111-4.6724167-0.9516335-6.9733505
		c-0.1159592-0.5416336-0.3904419-0.4311905-0.7769508-0.2810745c-1.7557564,0.6819687-3.5452843,1.1858673-5.4632797,1.1675491
		c-3.7010345-0.035347-7.4035816,0.1325226-11.1025429-0.1539001c-1.8698044-0.144783-3.7439747-0.2618103-5.6183205-0.3134079
		c-3.8254175-0.1053314-7.4480133-1.3213501-11.1703939-1.9861069c-1.7261548-0.3082733-3.4245806-0.7767792-5.1287928-1.1999283
		c-0.6223583-0.1545334-1.1975796-0.4447632-1.7198904-0.8264084c1.7932036-9.4621811,2.67781-19.0589294,4.2438087-28.5559235
		c0.8441892-5.1195831,1.1583543-10.316803,2.2550154-15.4061127c1.7680922-8.2052307,4.5233822-15.9794159,9.6139402-22.7770844
		c2.0456562-2.7316666,4.3404846-5.240078,7.0205536-7.3503761c1.4273224-1.1238823,2.477396-2.6746292,4.1114101-3.5436478
		c3.6025047-1.9159126,7.2584648-3.7254333,11.0307045-5.28339c9.9449806-4.1073265,19.921032-8.1443062,29.3457184-13.3891525
		c2.0102844-1.118721,4.0503998-2.1454039,5.6226578-3.9533529c0.8873672-1.0203838,2.1224518-1.8366318,3.6931229-1.4204988
		c-2.0108643,1.1796284-2.439743,2.2058954-2.0199966,4.4530277c0.4275513,2.2889194,1.4937973,4.2651157,2.7723083,6.1657696
		c5.5502777,8.2511082,11.9080429,15.8050308,19.1893234,22.5971069c3.0789642,2.872097,6.4627762,5.1818428,10.3784943,6.7113991
		c0.7296219,0.2850113,1.4053192,0.7671661,2.2481384,0.6932755l-0.0195007-0.0175781
		c-0.0059357,0.2429848,0.1727142,0.2159576,0.3275986,0.2236862c0.6926956,0.3319168,1.3995209,0.5992584,2.1911774,0.4788704
		c0.1675644-0.000515,0.3351364-0.00103,0.5027008-0.0015411c0.9370193,0.2686615,1.6577377-0.3968735,2.4910507-0.5761108
		c0.8983688-0.3311958,1.796051-0.6642799,2.6952209-0.9932899c5.258667-1.92416,9.1676788-5.6882591,13.1161346-9.452404
		c5.9939117-5.7141266,11.0227661-12.2141247,15.7610931-18.9537144c1.4871521-2.1152267,2.7719421-4.3775358,3.2985382-6.9872799
		c0.372467-1.8458881-0.0813293-3.1546144-1.6365662-4.2228565c1.689743-0.0080633,2.787796,1.0322161,3.800415,2.1853056
		c0.3409882,0.3882942,0.6674042,0.7393484,1.116394,1.0329866c10.0146484,6.5494308,21.2131042,10.5967216,32.1548157,15.1745586
		c3.9646301,1.6587296,7.8813324,3.4354458,11.7173004,5.3391037c2.1572418,1.0705643,3.9098053,2.9785423,5.7968903,4.5659981
		c7.7440948,6.5144882,12.2818298,14.9835739,14.937027,24.5909424c1.0978088,3.9723244,1.9447174,8.0021782,2.3507385,12.0990181
		c0.5504456,5.5546799,2.1298981,10.8914719,3.243454,16.3265305c1.266861,6.1833954,2.1013794,12.4376221,3.0679626,18.6702042
		c-0.3147125,0.1666946-0.6138306,0.378334-0.9463959,0.4935226c-7.6485291,2.6490784-15.4852905,4.6249695-23.569519,5.0004501
		c-5.6739044,0.2635498-11.4182587,0.4822235-17.0656738-0.6848907c-0.5554657-0.1148071-0.760025,0.0102997-0.8614807,0.5922012
		c-0.3760071,2.1567078-0.9715576,4.284668-0.7284698,6.5097427c-0.4395447,0.8079529-0.2937622,1.7098999-0.3952789,2.5685043
		c-0.9904785,8.3778839-1.7196045,16.7745209-1.7455292,25.2196808c-0.0067596,2.2003479,0.0678711,4.3850098,0.5240631,6.5554199
		c0.4012146,1.9087219-0.0424194,3.824707-0.2053833,5.7289886c-0.1811066,2.1159973-0.2472534,4.2288055-0.1484985,6.3471375
		c0.1008301,2.1621704-0.1491394,4.3112488-0.201355,6.4654999c-0.0686493,2.8334503-0.1219788,5.6729736,0.1280365,8.5079346
		c0.1475372,1.6729126,0.0890656,3.3505859-0.0995636,5.0267944c-0.3490601,3.1017303,0.1976471,6.1180725,0.8823853,9.132782
		c1.6445313,7.2402039,1.376709,14.5228577,0.3382416,21.8097839c-0.3054504,2.1432648-0.3711243,4.2084198,0.33078,6.3557587
		c1.7736206,5.4257813,1.8118896,11.0058594,0.9376068,16.6037598c-0.2313843,1.4815369-0.2441101,2.924942,0.0944519,4.391922
		c0.8729248,3.7824249,0.4466705,7.6405487,0.6409302,11.4634857c0.3019714,5.9425049,0.6891174,11.8815613,1.4377136,17.7932434
		c0.2543182,2.0083618,0.2190552,4.0569458,0.2554779,6.0882263c0.0326843,1.8235168-0.3323059,2.3253479-2.0823517,2.8504028
		c-3.0059357,0.901886-6.1241455,1.1565552-9.2253571,1.4766541c-7.6871338,0.7934875-15.4048157,0.8653259-23.1230621,1.0100403
		c-11.2351074,0.2105713-22.4662933,0.6520691-33.7017746,0.8132324
		c-12.4784012,0.1789856-24.9356842-0.8466187-37.4157257-0.8479919
		c-8.3975601-0.0009155-16.7974777-0.1001892-25.1780052-0.7355652c-4.1490288-0.3145447-8.2845459-0.7521667-12.3531036-1.6717529
		c-0.1949997-0.0440674-0.3914108-0.0827026-0.5848618-0.1327515c-3.2452545-0.839325-3.60149-1.1888428-3.4040909-4.5171509
		c0.4607124-7.7680969,1.009407-15.5311584,1.5535927-23.2940521c0.142662-2.0351257,0.2767639-4.0680084,0.2285728-6.1076813
		c-0.0426178-1.8038025,0.03442-3.5982361,0.3603058-5.374054c0.4145927-2.2592163,0.4561462-4.5098877,0.1247139-6.7920074
		c-0.264679-1.8225403-0.3195381-3.6938171,0.1233063-5.4887848c0.676609-2.7424774,0.4015732-5.4645386,0.1611404-8.211441
		c-0.3064613-3.501236-0.7323151-6.9971313-0.5579529-10.5271454c0.2109222-4.2702332,1.2140503-8.371933,2.6384811-12.3757019
		c0.3826904-1.0757294,0.6632652-2.0986328,0.4853249-3.2543335c-0.1889801-1.2274475-0.1528969-2.4721222,0.079216-3.7011414
		c0.3070526-1.6258392,0.1913109-3.2480927,0.1103516-4.8917236c-0.1628189-3.3054199-0.1816635-6.6195679-0.195446-9.9303894
		c-0.0538597-12.9391785-0.0427551-25.8787994-0.1403427-38.817627c-0.0386467-5.1235809-0.9980011-10.1754761-1.512352-15.2625809
		C43.6579247,123.2591858,43.4763603,121.9136505,43.3154755,120.5660324z"></path>
	<path d="M118.6460648,37.2008209c-3.3701782,0.0023422-6.7403717,0.0046844-10.1104202,0.0070038
		c-4.2255859-4.7959595-8.777092-9.2850685-13.1581726-13.9347305c-3.4844666-3.6980877-6.1815872-7.9202614-8.5695572-12.3653116
		c-0.2612915-0.4863997-0.5407562-0.9795322-0.5622482-1.558548c3.0596466,0.2729836,6.1170883,0.5771656,9.1797791,0.813076
		c8.3534698,0.6434383,16.702774,1.4236479,25.0988083,0.8302774c6.7656326-0.4781485,13.5331192-0.9303112,20.2997818-1.3940048
		c-0.3109283,1.6447992-1.2687531,2.9918385-2.0830841,4.3920069c-2.1966553,3.7769995-4.815094,7.2333136-7.8688354,10.3761835
		C126.7548981,28.6041565,122.7176437,32.9191399,118.6460648,37.2008209z"></path>
</g>
<g onclick="select(this)" class="" id="estampa-secundaria" fill="#082890">
	<path fill-rule="evenodd" clip-rule="evenodd" d="M31.3700027,47.7303276h124.3015823l-0.4848175,0.4422722
		h15.483078l-0.1692657,0.2283134h25.1893005l-0.0613708,0.6729431l-25.6979218,0.0936623l-0.0961304,0.1318436
		l-15.9339447,0.0410614l-0.4337006,0.4012146H31.3699989L31.3700027,47.7303276z M151.2454376,52.7009087l0.4337006-0.4012108
		l15.9339447-0.0410614l0.0961304-0.1318436l25.6979218-0.0936661l0.1389465-0.1831474h2.0739136l0.0698853-0.3067818h-1.9110565
		l0.1388397-0.1830101h-25.6384583l0.1692657-0.2283134h-15.483078l0.4848175-0.442276l-121.855217-0.0013657l0.3600101,2.0113182
		L151.2454376,52.7009087z M149.0503845,55.6381798l0.4336853-0.4012108l15.93396-0.0410652l0.0961304-0.1318398
		l25.6979065-0.0936661l0.1389465-0.1831474h3.6539917l0.0599976-0.3067818h-3.4812469l0.1388397-0.1830101H166.084137
		l0.169281-0.2283134H150.77034l0.4848175-0.442276H32.1349983l0.0449982,2.0113106H149.0503845z M146.8514709,58.6146851
		l0.2958527-0.2794456h15.989212l0.1585693-0.2139587h25.6385956l0.1631622-0.1813622l5.7806396-0.000782l0.0112457-0.3049088
		h-5.5168762l0.1799622-0.2000313h-25.7475586l0.1672668-0.2257156h-15.6249084l0.64328-0.6050034H32.3150063l-0.0900078,2.0112076
		H146.8514709z M144.6472778,61.5724831l0.417572-0.393528h15.9809265l0.1311798-0.1807289h25.6632843l0.116806-0.1360893
		l7.9317017-0.0009956v-0.3046989h-7.669342l0.1959991-0.2283859h-25.7520142l0.2001495-0.2757568h-15.6173553l0.516571-0.491127
		H32.4050026l0.0900002,2.0113106H144.6472778z M142.4785461,64.4887009l0.417572-0.3935318h15.9809265l0.1311798-0.1807289
		h25.6632843l0.1167908-0.1360893l9.9359283-0.0011482l0.0254211-0.3045464h-9.6989899l0.1960144-0.2283859h-25.7520142
		l0.2001495-0.2757568h-15.6173553l0.5165558-0.491127H32.5400047l0.1799965,2.0113144H142.4785461z M140.2045288,67.45755
		l0.417572-0.3935318h15.9809265l0.1311798-0.1807251h25.6632843l0.1167908-0.1360931l12.0107269-0.0012817l0.0449982-0.3044052
		h-11.7933655l0.1960144-0.2283859h-25.7520142l0.2001495-0.2757645h-15.6173553l0.5165558-0.4911194H32.6749992
		l-0.045002,2.0113068H140.2045288z M137.9620972,70.4895706l0.417572-0.3935242h15.9809265l0.1311798-0.1807327h25.6632843
		l0.1167908-0.1360855l14.3581543-0.0014267l0.0449982-0.3042679h-14.1407928l0.1960144-0.2283859h-25.7520142l0.2001495-0.2757568
		h-15.6173553l0.5165558-0.491127h-107.58255l-0.0000076,2.0113068H137.9620972z M135.7512512,73.4268417l0.417572-0.3935318
		h15.9809265l0.1311798-0.1807251h25.6632843l0.1167908-0.1360931l16.4902496-0.0015259l0.0449982-0.3041611h-16.2728882
		l0.1960144-0.2283859h-25.7520142l0.2001495-0.2757645h-15.6173553l0.5165558-0.4911194H32.4500008l-0.090004,2.0113068
		H135.7512512z M133.5614624,76.3727646l0.417572-0.3935318h15.9809113l0.1311798-0.1807251h25.6632843l0.116806-0.1360931
		l18.353775-0.0016022l0.0450134-0.3040924h-18.1364288l0.1960144-0.2283783h-25.7520294l0.2001648-0.2757645h-15.6173553
		l0.5165558-0.4911194H32.6300049l0.3149986,2.0113068H133.5614624z M131.2874451,79.3626709l0.417572-0.3935242h15.9809265
		l0.1311646-0.1807327h25.6632843l0.116806-0.1360855l20.1529236-0.0016632l0.0903473-0.3040314h-19.9809113l0.1960144-0.2283859
		h-25.7520294l0.2001648-0.2757568h-15.6173553l0.5165558-0.491127H33.3050003l0.6750031,2.0113068H131.2874451z
		 M129.097641,82.2687302l0.4175873-0.3935318h15.9809113l0.1311798-0.1807251h25.6632843l0.116806-0.1360931l21.5126038-0.0016785
		l0.0899963-0.3040161h-21.3402405l0.1960144-0.2283859h-25.7520294l0.2001648-0.2757568h-15.6173553l0.5165558-0.491127H34.4750023
		l1.034996,2.0113144H129.097641z M127.0763016,85.132309l0.417572-0.3935318h15.9809189l0.1311798-0.1807327h25.6632843
		l0.116806-0.1360855l22.4839325-0.0016708l0.2100067-0.3040237h-22.4315796l0.1960144-0.2283859h-25.7520294l0.2001648-0.2757568
		h-15.6173553l0.5165558-0.491127H35.7350006l0.6749992,2.0113144H127.0763016z M124.654892,88.1643295l0.4175797-0.3935318
		h15.9809189l0.1311798-0.1807327h25.6632843l0.1167908-0.1360855l23.7053528-0.0016708l0.1800079-0.3040237h-23.6229858
		l0.1959991-0.2283859h-25.7520142l0.2001495-0.2757568h-15.6173477l0.5165558-0.491127H36.7249947l0.8549995,2.0113144H124.654892z
		 M122.4229889,91.1542358l0.417572-0.3935318h15.9809265l0.1311798-0.1807251h25.6632843l0.1167908-0.1360931L189.5,90.4422302
		l0.1199951-0.304039h-24.6248932l0.1960144-0.2283859h-25.7520142l0.2001495-0.2757568h-15.6173553l0.5165634-0.491127H37.8949966
		l0.8549995,2.0113144H122.4229889z M120.2542496,94.0809784l0.4175797-0.3935318h15.9809265l0.1311798-0.1807251h25.663269
		l0.116806-0.1360931l25.9609833-0.0016632l0.1200104-0.3040314h-25.818634l0.1960144-0.2283859h-25.7520294l0.2001648-0.2757568
		h-15.6173553l0.5165558-0.491127H38.8399963l0.6300049,2.0113144H120.2542496z M117.9802399,97.0498352l0.417572-0.3935318
		h15.9809265l0.1311798-0.1807327h25.6632843l0.1167908-0.1360855l27.5599976-0.0016937l0.0600128-0.3040009h-27.3576508
		l0.1960144-0.2283859h-25.7520294l0.2001648-0.2757568h-15.6173553l0.5165558-0.491127H39.6949959l0.4050064,2.0113144H117.9802399
		z"></path>
	<path fill-rule="evenodd" clip-rule="evenodd" d="M183.244812,132.0215607h-17.196228l-0.1270752,0.1303101
		h-15.9215851l-0.4914246,0.3407745H44.7894096l-0.1879654-1.5288696h107.1118317l-0.4780426,0.3315125h15.5215759
		l-0.2093506,0.2146759h16.7425842L183.244812,132.0215607z M183.1019287,133.7506714H164.362442l0.1910553-0.1959229h-15.5522461
		l0.4847565-0.3361511H44.8731918l0.1596718,1.5288696h102.2483521l0.4847565-0.3361511h15.95224l0.1453705-0.1490784h19.1989899
		L183.1019287,133.7506714z M182.9319,136.1038666h-20.8643494l0.1726074-0.1770325h-15.6447449l0.663147-0.4598389H45.0983315
		l0.1137505,1.5288544h99.8416901l0.306366-0.2124329h16.044754l0.1637878-0.1679688h21.3299408L182.9319,136.1038666z
		 M182.7984772,138.2973328h-22.8697662l0.2034607-0.2086334h-15.6389771l0.5381775-0.3731842H45.2518463l0.0500298,1.5288391
		h97.5247345l0.4312897-0.2990723h16.0389862l0.1329803-0.1363525h23.3409119L182.7984772,138.2973328z M182.6892395,140.4828186
		h-24.8913879l0.1782837-0.1828308h-15.6703339l0.4985046-0.3456879H45.3093452l0.0107651,1.5288544h95.2794342l0.4709625-0.3265839
		h16.0703583l0.1581268-0.1621552h25.3680573L182.6892395,140.4828186z M181.2882233,142.797821h-25.7477875l0.2070618-0.212326
		h-15.7086792l0.5381165-0.3731384H45.3249359l0.0094337,1.5288391h93.0378113l0.4313965-0.2991333h16.1086426l0.1293793-0.1326752
		h25.736084l0.1119995-0.1122284h1.6963806l0.0070496-0.2330627h-1.4708252L181.2882233,142.797821z M179.2132416,145.0783691
		h-25.8962402l0.1897278-0.1945801h-15.7671814l0.6101532-0.423111H45.3385315l0.0082397,1.5288696h90.7981567l0.359314-0.2491608
		h16.1672058l0.1466827-0.1504364h25.8845825l0.1150818-0.1153107l3.7090759,0.0000153l0.0049133-0.233078h-3.4814148
		L179.2132416,145.0783691z M176.9627075,147.2550507h-25.7685699l0.1400299-0.1436005h-15.7919159l0.5801849-0.4023132h-90.772049
		l0.0071831,1.5288696h88.5600815l0.3893127-0.2699585h16.191925l0.1963959-0.201416h25.756897l0.1390533-0.1393433
		l5.902298,0.0000153l0.0025482-0.2330627h-5.6722717L176.9627075,147.2550507z M174.5889893,149.6121216h-25.693222
		l0.1977692-0.2028351h-15.8495789l0.6513062-0.4516449H45.3607216l0.0062485,1.5288696h86.3235016l0.3181915-0.2206421h16.2496033
		l0.1386414-0.1421814h25.6815643l0.1387024-0.1389923l8.2954102,0.0000458l-0.0071564-0.233078h-8.0557098L174.5889893,149.6121216
		z M172.4790344,151.8008118h-25.5604095l0.167511-0.1717987h-16.0281067l0.6100769-0.4230499H45.3697205l0.0054588,1.5288544
		h84.0881348l0.3975983-0.2757111v0.0264893h16.3899384l0.1688995-0.1731873h25.5487518l0.1390686-0.1393738l10.5527649,0.0000458
		l-0.0236359-0.2330627h-10.2965698L172.4790344,151.8008118z M170.3074951,154.0043182h-25.6947937l0.186676-0.191452h-15.8754272
		l0.5168762-0.3584137H45.3775787l0.0048065,1.5288544h81.8536606l0.4526443-0.3138733h16.2754211l0.1497192-0.1535339h25.683136
		l0.1539612-0.1542816l13.046051,0.000061l-0.0465851-0.2330933h-12.766922L170.3074951,154.0043182z M168.1536407,156.1972046
		h-25.6789246l0.1981964-0.2032471h-15.8791504l0.419838-0.2911224H45.3845024l0.0042686,1.5288696h79.6200409l0.5496597-0.3811493
		h16.2791443l0.1382294-0.1417542h25.6672516l0.1096649-0.1098785l15.3993988,0.000061l0.0086975-0.233078h-15.1755676
		L168.1536407,156.1972046z M166.1391144,158.4461517h-25.6129608l0.1807098-0.185318h-16.1667175l0.4463959-0.3095398H45.3906784
		l0.0038757,1.5288696h77.3871994l0.6998901-0.4853363v0.1225739h16.3899384l0.1557007-0.1596527h25.6013184l0.1390991-0.139389
		l17.1714783,0.000061l0.0265656-0.2330627h-16.9655304L166.1391144,158.4461517z M163.545517,160.9014282h-25.5930634
		l0.2029877-0.2081604h-16.1080322l0.7117462-0.4935608h-77.352417v1.5288696h75.1476364l0.3758392-0.2606354v0.0818939h16.389946
		l0.1334229-0.1368256h25.5814209l0.1391144-0.1394043l19.5484314,0.0000763l0.0239105-0.2330627h-19.3398438
		L163.545517,160.9014282z M161.4682617,163.0007477h-25.4551086l0.1998749-0.2049713h-16.1826859l0.5013733-0.3476715H45.4067459
		l-0.0000038,1.5288544h72.9201965l0.6609039-0.4582977v0.1336975h16.3899231l0.1365204-0.1400146h25.4434662l0.1391144-0.1394196
		l21.5891266,0.0000916l-0.0044403-0.2330627H161.329361L161.4682617,163.0007477z M159.289032,165.2809906h-25.5915527
		l0.1839752-0.1886597h-16.1475677l0.5706635-0.3957062H45.4067459l0.0035057,1.5288391h70.6895142l0.5564651-0.3858643v0.1093292
		h16.3899231l0.1524506-0.1563416h25.5799103l0.1152496-0.1154938l23.7992706,0.0000916l0.0019684-0.2330933h-23.5687408
		L159.289032,165.2809906z M183.5079041,129.2314758h-14.7387238l0.1692963-0.1735992h-15.4829865l0.4847412-0.3361206H44.312027
		l0.1981926,1.5288544h107.2252197l0.4848022-0.3361664h15.8829498l0.1671295-0.171402h15.1863098L183.5079041,129.2314758z"></path>
	<g onclick="select(this)">
		<path fill-rule="evenodd" clip-rule="evenodd" d="M183.2228241,194.9864502H165.83461l-0.1671143,0.1368561
			h-15.8830872l-0.4846649,0.2683868H45.3335724l0.0647469-1.2208862h106.1061859l-0.4846954,0.2684021h15.4829559
			l-0.1693268,0.1386871h16.8013153L183.2228241,194.9864502z M183.5328064,196.3973694h-19.416687l0.2049561-0.1678467h-15.5187531
			l0.475235-0.2631531H45.3498802l0.1283531,1.220871h101.5945358l0.4941406-0.2736206h15.9188843l0.1314697-0.1076813h19.9985504
			L183.5328064,196.3973694z M183.8677673,198.1866455h-21.9410248l0.1910248-0.1564636H146.565567l0.4847107-0.2684021H45.5061188
			l-0.1475639,1.2208862h99.4869385l0.4846802-0.2683716h15.9523315l0.145401-0.1190948h22.5061035L183.8677673,198.1866455z
			 M184.141571,200.0615692h-24.5052948l0.1682281-0.1377716h-15.6434479l0.6617737-0.3664551H45.2054482l-0.4236374,1.220871
			h97.8362427l0.3075714-0.1703186h16.0435791l0.1682281-0.1377716h25.053772L184.141571,200.0615692z M183.2483368,201.8174744
			h-25.7552795l0.2034607-0.1666412h-15.6509552l0.5501099-0.3046265H44.5861435l-0.397213,1.2208862h96.2019501
			l0.4192505-0.2321625h16.0510864l0.1329651-0.108902h25.7436523l0.1040497-0.0832672h1.5165253l-0.0158081-0.1861115h-1.2681732
			L183.2483368,201.8174744z M180.962677,203.5627289h-25.5904236l0.1682281-0.1377716h-15.671402l0.4996338-0.2766571H44.0112991
			l-0.3473473,1.220871h94.4999847l0.4697266-0.2601166h16.0715179l0.1682434-0.1377869h25.5787506l0.1589203-0.127182
			l3.8606567,0.0000153l-0.0097198-0.1861267h-3.6183929L180.962677,203.5627289z M178.8524933,205.411377h-25.747818
			l0.2071228-0.169632h-15.7084808l0.5379486-0.2978973H43.5128365l-0.2938461,1.220871h92.7174988l0.4313965-0.2388763h16.1086273
			l0.129303-0.105896h25.7361755l0.1120911-0.0897064l6.0803833,0.0000153l-0.0033722-0.1861267h-5.8444672L178.8524933,205.411377z
			 M176.7775269,207.2324371h-25.9046326l0.1982117-0.1623383h-15.7544403l0.5973358-0.3307648H43.0938263l-0.2370148,1.2208862
			h90.8524017l0.3720245-0.2060089h16.1546021l0.1662903-0.1362152v0.022995h25.8648987l0.1150208-0.0920715l8.1541901,0.0000305
			l0.0024872-0.1860962h-7.9241638L176.7775269,207.2324371z M174.5269928,208.9691467h-25.7665863l0.1380463-0.1130371h-15.7919159
			l0.5801849-0.3212891H42.7591324l-0.1772041,1.2208862h88.9000244l0.3891602-0.2154999h16.1920471l0.1984253-0.1625061h25.7549133
			l0.1371155-0.109726l10.3351135,0.0000305l0.0073547-0.1860962h-10.1099701L174.5269928,208.9691467z M172.1533051,210.8532562
			h-25.6935883l0.1981659-0.1622925h-15.8496246l0.6513062-0.3606567H42.5132332l-0.1147385,1.2208862h86.8562775
			l0.3180695-0.1761322h16.2497406l0.1383057-0.113266h25.6819153l0.1390686-0.1112976l12.6037903,0.0000458l0.0124359-0.1861267
			h-12.3836975L172.1533051,210.8532562z M170.0433197,212.6097107h-25.571991l0.1791229-0.146698h-16.0270386l0.6089783-0.3372192
			H42.3594627l-0.0503731,1.2208862h84.7185211l0.397644-0.2201843v0.0206146h16.3899307l0.1573181-0.1288452h25.560318
			l0.1502075-0.120224l14.5629883,0.0000458l0.0167694-0.1861115h-14.347229L170.0433197,212.6097107z M167.8717804,214.3604126
			h-25.6908875l0.1828003-0.1497192h-15.8811951l0.522644-0.2894135H42.3090935l-0.0042877,1.2208557h82.495575l0.4466934-0.247345
			h16.2813492l0.1536407-0.125824h25.6792145l0.1540222-0.1232758l16.5523834,0.000061l0.0207367-0.1860962h-16.3406372
			L167.8717804,214.3604126z M165.7179108,216.1115875h-25.678894l0.1982117-0.1623383h-15.8791885l0.4198303-0.2324829H42.3187103
			l0.0502243,1.2208862h80.2041779l0.5495224-0.304306h16.2793121l0.1382141-0.1131897h25.6672516l0.1097107-0.0877991
			l18.531662,0.000061l0.0244293-0.1861267h-18.3236084L165.7179108,216.1115875z M163.7035217,217.9062195H138.09198
			l0.1791992-0.146759h-16.1666946l0.4463272-0.2471619H42.4011688l0.083744,1.2208862h77.8611145l0.5230255-0.2896271h16.5668411
			l0.1572418-0.1287689h25.599884l0.1375732-0.1101227l20.2817078,0.0000763l0.0218201-0.1860962h-20.0710907
			L163.7035217,217.9062195z M161.1098175,219.8681335h-25.5930481l0.2029419-0.166214h-16.1080322l0.7117538-0.3941345H42.5303116
			l0.1058578,1.2208862h75.4825058l0.2576065-0.1426544h16.5081482l0.1334839-0.109314h25.5814056l0.1391296-0.1113586
			l22.7507935,0.0000763l0.0017548-0.1860962h-22.5201111L161.1098175,219.8681335z M159.0325623,221.5445709h-25.4943695
			l0.1998749-0.1636963h-16.1267471l0.4846725-0.2683868H42.6901245l0.1165123,1.2208862h73.0845642l0.4847107-0.2684021h16.5268555
			l0.1365509-0.1118317h25.4827423l0.1391296-0.1113586l24.9309692,0.0000763l-0.023056-0.1860962H158.893631
			L159.0325623,221.5445709z M156.8533325,223.3654022h-25.5914612l0.1838531-0.1505737h-16.147522l0.5707321-0.31604H42.8611412
			l0.1155586,1.2208557h70.6874466l0.3986053-0.2207184h16.5476913l0.1525726-0.1249542h25.5798187l0.1152039-0.0922089
			l27.5400391,0.0000916l-0.0567017-0.1861267h-27.250885L156.8533325,223.3654022z"></path>
	</g>
	<g onclick="select(this)">
		<path d="M185.4080963,246.6985931l-19.4832916-0.0001221l-0.1673126,0.1028442h-15.8829346l-0.4848175,0.2015381
			H42.1099205l0.062664-0.9164734h109.4219131l-0.4845581,0.201416h15.4828339l-0.1694336,0.1041718h18.9426117
			L185.4080963,246.6985931z M156.9433289,268.002594h-25.6048584l0.1972504-0.1140137h-16.0523148l0.4755249-0.2372742H41.0153923
			l-0.0615845,0.9164734h73.1684113l0.3320999-0.1657104h16.1929932l0.1664429-0.0962219l25.6015625-0.0002747l0.1180878-0.067749
			l29.986908-0.0002136l-0.0116119-0.1378479h-29.734726L156.9433289,268.002594z M159.1225586,266.6375732h-24.8286133
			l0.3552856-0.1257324h-16.886055l0.4228134-0.2084351H41.1068039l-0.0622635,0.9165039h75.2822418l0.3947525-0.1945801h16.4767532
			l0.2366791-0.0837402l25.1881104-0.0002136l0.1394348-0.0847778l27.6368256-0.0002136l-0.0115814-0.1378479h-27.3983154
			L159.1225586,266.6375732z M161.1998138,265.3719177h-25.6010132l0.210907-0.1203308h-16.0040131l0.6077423-0.29599h-79.214325
			l-0.0628662,0.916626h77.3950195l0.2200317-0.1071777h16.158371l0.1537781-0.0877075h25.6264648l0.1323242-0.0792847
			l25.4746552-0.0002136l-0.0107727-0.1377563h-25.23349L161.1998138,265.3719177z M163.7935181,263.9042664h-25.620575
			l0.1882324-0.1108398h-16.105629l0.3852692-0.1855774H41.2921867l-0.0633659,0.9165344h79.509407l0.451561-0.2175293h16.2993622
			l0.1652374-0.09729h25.567749l0.1557312-0.0832214l22.8078308-0.0001526l-0.0099945-0.1379395h-22.5393524
			L163.7935181,263.9042664z M165.8079071,262.5570374H140.128006l0.1992188-0.122406h-15.8263245l0.3669739-0.1745911H41.3859062
			l-0.0637894,0.9164734h81.6194153l0.4802322-0.2284851h16.0700378l0.1392365-0.0855713h25.6016083l0.1254425-0.0665894
			l20.7342377-0.0001526l-0.0093079-0.1378784h-20.4649658L165.8079071,262.5570374z M167.9617767,261.2425842h-25.6959229
			l0.187851-0.1154785h-15.8165207l0.457962-0.2148743H41.4801559l-0.0641403,0.9165649h83.7255249l0.4013901-0.1882935h16.0757675
			l0.1506042-0.0926208h25.6174011l0.1755066-0.0931702l18.4421234-0.0001526l-0.008728-0.13797h-18.1732178
			L167.9617767,261.2425842z M170.1333313,259.9284363h-25.5800781l0.1871948-0.1104431h-15.9636841l0.545639-0.2536621H41.5747681
			l-0.0643921,0.9166565h85.8403168l0.3213501-0.1493835h16.1977997l0.1659546-0.0979004h25.5223389l0.1712494-0.0908813
			l16.1941071-0.0001221l-0.0082245-0.13797h-15.925705L170.1333313,259.9284363z M172.2433014,258.6096497h-25.6941376
			l0.1987152-0.1221313h-15.7867126l0.5883942-0.2709045H41.669632l-0.0645294,0.9165039h87.9536743l0.2871552-0.1322021h16.0667419
			l0.1396942-0.0858459h25.6158752l0.1584015-0.084137l14.0204926-0.0000916l-0.0077972-0.1379089h-13.7528381
			L172.2433014,258.6096497z M174.6170044,257.1943359h-25.7575989l0.1290436-0.0843506h-15.7422028l0.5304871-0.2412415H41.7646294
			l-0.0646057,0.9165649h90.0610199l0.3559723-0.1618652h16.0860901l0.1892548-0.1237183h25.6495514l0.1542053-0.0819092
			l11.5729828-0.000061l-0.007431-0.1378784h-11.3057861L174.6170044,257.1943359z M176.8675385,255.8918152h-25.892746
			l0.1863251-0.1174011l-15.7177734-0.0011597l0.5606537-0.2522125H41.8596001l-0.064579,0.9164886h92.1716995l0.335022-0.1507263
			l16.0442657,0.0011902l0.1439667-0.0906982h25.8025818l0.1315002-0.0698853l9.277832-0.000061l-0.0059662-0.1380615h-9.0118713
			L176.8675385,255.8918152z M178.9424896,254.5248871h-25.7489624l0.2082672-0.128006h-15.6741028l0.5035858-0.2237091H41.95298
			l-0.0630035,0.9166412h94.2777481l0.4040222-0.1794586h15.9947662l0.130249-0.0800629h25.6704559l0.1282501-0.0680695
			l7.1663055-0.000061l-0.0019989-0.138092h-6.9040985L178.9424896,254.5248871z M181.0526733,253.1371155h-25.6013031
			l0.1791077-0.1101074h-15.631546l0.4597778-0.2016449H42.0354195l-0.0543747,0.9165344h96.3877716l0.4594421-0.2014771h15.9671173
			l0.1592865-0.0979309h25.5228271l0.1811371-0.0961761l4.9961243-0.0000305v-0.13797h-4.7361908L181.0526733,253.1371155z
			 M183.3383331,251.8271179h-25.7521362l0.2003174-0.1257629H142.169281l0.5163879-0.2237091H42.0965614l-0.038765,0.9164886
			h98.5124512l0.4140015-0.1793671h15.984436l0.1311951-0.0823517h25.6632843l0.1192169-0.0632629l2.7722473-0.0000305
			l0.0001221-0.1380463h-2.5122833L183.3383331,251.8271179z M185.4747925,250.5083923h-25.7476349l0.1673431-0.1029053h-15.6249695
			l0.6432953-0.2757263H42.1261101l-0.0161896,0.9165649h100.664505l0.2972717-0.1274261h15.9878082l0.1601257-0.098465
			l25.6369781,0.0009766l0.1657867-0.0839539h0.6274261l-0.0016022-0.13797h-0.3533325L185.4747925,250.5083923z
			 M185.6080475,249.1012115h-23.5876923l0.1874237-0.1177216h-15.5423584l0.4748535-0.2015381H42.1099243l0.0173111,0.9165802
			h102.8533249l0.4748535-0.2015228h15.9347687l0.1430206-0.0898285l24.0870514,0.0000916L185.6080475,249.1012115z
			 M185.5222015,247.7587433h-21.3292389l0.2181091-0.1296844l-15.5088654,0.0005493l0.4653473-0.1954193H42.1128197
			l-0.0049515,0.9164581h105.0774078l0.4944153-0.2076416l15.8680267-0.0005798l0.1391449-0.0827332l21.8596802-0.0005188
			L185.5222015,247.7587433z"></path>
	</g>
</g>
<g onclick="select(this)" class="" id="gola-secundaria" fill="#082890">
	<path d="M116.381897,49.0477715c-0.833313,0.1792374-1.5540314,0.8447723-2.4916306,0.5762138
		c-0.2429886-0.8100166,0.0134811-1.5773506,0.2099228-2.3466339c0.9254532-3.6241417,2.5626907-6.9285126,4.5458755-10.0765305
		c4.071579-4.2816811,8.1088333-8.5966644,12.2260513-12.8340473c3.0537415-3.1428699,5.6721802-6.599184,7.8688354-10.3761835
		c0.8143311-1.4001684,1.7721558-2.7472076,2.0830841-4.3920069c0.7533875-1.2694387,1.0100403-2.6635509,1.0385284-4.116147
		c0.0198059-1.0104756-0.4715271-1.6589177-1.4058533-1.9923222c-1.0610199-0.3786092-2.1595917-0.5912797-3.2826538-0.5918701
		c-15.6694641-0.0082369-31.3389282-0.00945-47.0083847-0.0003197c-1.2024078,0.0007005-2.3825226,0.2080977-3.5079956,0.6614058
		c-0.7330017,0.2952342-1.1955872,0.8186088-1.2209396,1.6196523c-0.0457764,1.4464493,0.1008453,2.8654075,0.8091202,4.1703057
		c0.0213013,0.5789623,0.300766,1.0720949,0.5620575,1.5584946c2.38797,4.4450502,5.0850906,8.6672239,8.5695572,12.3653116
		c4.3810806,4.649662,8.9325867,9.1387711,13.1583099,13.9347115c2.2260818,3.3094826,3.8987961,6.8636017,4.8087921,10.7629395
		c0.1308823,0.5608521,0.1703644,1.0992241,0.0435715,1.6546783c-0.7916565,0.120388-1.4984818-0.1469536-2.1913986-0.4788055
		c-0.0642853-0.1402206-0.1510849-0.2473221-0.3273773-0.2237511c0,0,0.0195007,0.0175781,0.0195007,0.0175819
		c-1.0149002-4.6100464-2.9440384-8.7701225-6.1842422-12.2461243c-2.6970062-2.8932724-5.4329224-5.751564-8.1998749-8.5781593
		c-3.83992-3.9226913-7.426918-8.0305252-10.2087784-12.8014402c-1.953331-3.3499784-3.538353-6.7904634-3.5216599-10.769886
		c0.3887329-1.9640388,2.3138046-3.5002825,4.8151779-3.8288832c1.3080978-0.1718415,2.6194916-0.2685983,3.9428711-0.2676472
		c14.7557983,0.0106048,29.5116043,0.0095289,44.2674103,0.0041322c1.6841431-0.000616,3.3609924,0.0772934,4.9909973,0.5180932
		c1.4780121,0.3996955,2.6998138,1.1730733,3.345108,2.6483269c0.7675629,2.8465242-0.0760956,5.4809065-1.2373657,7.9960232
		c-1.9331055,4.1867867-4.3998566,8.0750628-7.5047913,11.4869471c-4.1099091,4.5162182-8.3819962,8.8846245-12.5557861,13.343298
		C119.4875946,40.0241508,117.3455429,44.2388077,116.381897,49.0477715z"></path>
</g>
<g onclick="select(this)" class="" id="detalhe-punho" fill="#082890">
	<path d="M43.3154755,120.5660324c-1.4355507,0.9719238-3.1036453,1.2496643-4.7561264,1.4678955
		c-6.7249794,0.8881226-13.4724941,0.7420044-20.2071953,0.1770859c-5.0925493-0.4271774-10.1221333-1.2906342-15.0371294-2.7495346
		C2.2495277,119.1452103,1.2605952,118.665741,0.24,118.2521973c0-1.1193542,0-2.2387161,0-3.3580704
		c0.5486878-1.013916,0.4496389-2.1613922,0.6660056-3.2437286c0.1129808-0.5651779,0.0608322-1.1747894,0.4776655-1.6509933
		c0.5223107,0.3816452,1.097532,0.671875,1.7198904,0.8264084c1.7042122,0.4231491,3.402638,0.891655,5.1287928,1.1999283
		c3.7223806,0.6647568,7.3449764,1.8807755,11.1703939,1.9861069c1.8743458,0.0515976,3.7485161,0.1686249,5.6183205,0.3134079
		c3.6989613,0.2864227,7.4015083,0.1185532,11.1025429,0.1539001c1.9179955,0.0183182,3.7075233-0.4855804,5.4632797-1.1675491
		c0.3865089-0.150116,0.6609917-0.2605591,0.7769508,0.2810745
		C42.8564644,115.8936157,43.3439445,118.1943893,43.3154755,120.5660324z"></path>
	<path d="M184.629776,120.3339005c-0.2430878-2.2250748,0.3524628-4.353035,0.7284698-6.5097427
		c0.1014557-0.5819016,0.306015-0.7070084,0.8614807-0.5922012c5.6474152,1.1671143,11.3917694,0.9484406,17.0656738,0.6848907
		c8.0842285-0.3754807,15.92099-2.3513718,23.569519-5.0004501c0.3325653-0.1151886,0.6316833-0.326828,0.9463959-0.4935226
		c0.846756,1.1987991,0.5564423,2.6714325,0.9425964,3.9882355c0.2302704,0.7852707,0.0896912,1.6713486,0.2314148,2.4921799
		c0.2250977,1.3037643-0.4503174,1.8661575-1.5581207,2.2358398c-5.7537537,1.920105-11.6115112,3.3484344-17.6209106,4.2630234
		c-5.4544983,0.8301239-10.9163971,0.6914978-16.3850403,0.6551743c-2.4737091-0.0164337-4.9351349-0.3196335-7.3445587-0.9341354
		C185.5209961,120.9840088,184.999527,120.7955399,184.629776,120.3339005z"></path>
</g>
<g onclick="select(this)" class="" id="gola-terciaria" fill="#ededed">
	<path d="M113.3881454,49.6254234c0.1267929-0.5554543,0.0873108-1.0938263-0.0435715-1.6546783
		c-0.909996-3.8993378-2.5827103-7.4534569-4.8089294-10.7629204c3.3700485-0.0023193,6.740242-0.0046616,10.1104202-0.0070076
		c-1.9831848,3.1480217-3.6204224,6.4523926-4.5458755,10.0765343c-0.1964417,0.7692833-0.4529114,1.5366173-0.2099228,2.3466339
		C113.7232819,49.6243935,113.5557098,49.6249084,113.3881454,49.6254234z"></path>
</g>
<path d="M110.8693695,48.9228668c0.1762924-0.023571,0.263092,0.0835304,0.3273773,0.2237511
	C111.0420837,49.1388245,110.8634338,49.1658516,110.8693695,48.9228668z"></path>
<g onclick="select(this)" class="" id="gola-primaria" fill="#71aad4">
	<path d="M116.381897,49.0477715c0.9636459-4.8089638,3.1056976-9.0236206,6.4560394-12.6026421
		c4.17379-4.4586735,8.4458771-8.8270798,12.5557861-13.343298c3.1049347-3.4118843,5.5716858-7.3001604,7.5047913-11.4869471
		c1.1612701-2.5151167,2.0049286-5.1494989,1.2373657-7.9960232c1.0215149,0.579803,1.5800476,1.6334033,2.4385681,2.3822198
		c0.9803619,0.8550615,1.8003998,1.9075398,3.041687,2.4371476c1.5554199,1.0682402,2.0092163,2.3769665,1.6367493,4.2228546
		c-0.5265961,2.6097441-1.8113861,4.8720531-3.2985382,6.9872799c-4.738327,6.7395897-9.7671814,13.2395878-15.7610931,18.9537144
		c-3.9484558,3.7641449-7.8574677,7.528244-13.1161346,9.452404
		C118.177948,48.3834915,117.2802658,48.7165756,116.381897,49.0477715z"></path>
	<path d="M82.7743149,4.5448394c-0.0166931,3.9794221,1.5683289,7.4199071,3.5216599,10.769886
		c2.7818604,4.770915,6.3688583,8.8787489,10.2087784,12.8014402c2.7669525,2.8265953,5.5028687,5.6848869,8.1998749,8.5781593
		c3.2402039,3.4760017,5.169342,7.6360779,6.1842422,12.2461243c-0.8428192,0.0738869-1.5185165-0.408268-2.2481384-0.6932793
		c-3.9157181-1.5295563-7.29953-3.8393021-10.3784943-6.7113991c-7.2812805-6.7920761-13.6390457-14.3459988-19.1893234-22.5971069
		c-1.278511-1.9006538-2.3447571-3.8768501-2.7723083-6.1657696c-0.4197464-2.2471323,0.0091324-3.2733994,2.0199966-4.4530277
		c1.2253876-0.542841,2.0059662-1.6151767,2.9658661-2.4759879C81.7761993,5.4046993,82.0902557,4.761116,82.7743149,4.5448394z"></path>
	<path d="M140.8240356,9.5985832c-6.7666626,0.4636936-13.5341492,0.9158564-20.2997818,1.3940048
		c-8.3960342,0.5933704-16.7453384-0.1868391-25.0988083-0.8302774c-3.0626907-0.2359104-6.1201324-0.5400925-9.1797791-0.813076
		c-0.7080841-1.3048449-0.8547058-2.723803-0.8089294-4.1702523c0.0253525-0.8010435,0.4879379-1.3244181,1.2209396-1.6196523
		c1.125473-0.4533081,2.3055878-0.6607053,3.5079956-0.6614058c15.6694565-0.0091302,31.3389206-0.0079172,47.0083847,0.0003197
		c1.1230621,0.0005903,2.2216339,0.2132609,3.2826538,0.5918701c0.9343262,0.3334045,1.4256592,0.9818466,1.4058533,1.9923222
		C141.8340759,6.9350324,141.5774231,8.3291445,140.8240356,9.5985832z"></path>
</g>
</svg>
