<!--?xml version="1.0" encoding="utf-8"?-->
<!-- Generator: Adobe Illustrator 24.2.3, SVG Export Plug-In . SVG Version: 6.00 Build 0)  -->
<svg version="1.1" id="Camada_1" xmlns="http://www.w3.org/2000/svg" xmlns:xlink="http://www.w3.org/1999/xlink" x="0px" y="0px" viewBox="0 0 229 418" enable-background="new 0 0 229 418" xml:space="preserve">
<g onclick="select(this)" class="" id="estampa-primaria" fill="#ffffff">
	<path d="M42.9602928,116.7164001c-0.4747734-1.0362549-0.4334412-2.1704178-0.6149864-3.2620163
		c-0.0788918-0.4743805-0.2090759-0.7692184-0.7576103-0.4257813c-1.1942673,0.7477036-2.585804,0.860054-3.9110947,0.9371338
		c-5.8554287,0.3405457-11.7007523,0.2427292-17.5689392-0.1051025c-5.5634871-0.3297729-10.8556004-1.624115-16.1255417-3.2111969
		c-0.8742104-0.2632675-1.7105-0.6524658-2.564301-0.9835968c1.2114221-6.4859848,1.8897208-13.0515976,2.9157929-19.5634613
		c1.2131705-7.6992493,1.8870273-15.4763565,3.3443131-23.135994c1.6228147-8.5296783,4.4224734-16.60186,9.6359348-23.6792755
		c2.1452084-2.9121742,4.5924034-5.5501862,7.4294682-7.7927399c1.3347797-1.055069,2.3002415-2.5391006,3.8297138-3.3372688
		c3.6157513-1.8869038,7.2569332-3.7296944,11.0313663-5.2824936c9.9913406-4.1104355,20.0001335-8.1808128,29.4634781-13.4455872
		c1.9746323-1.0985498,4.0052795-2.0829678,5.5196609-3.8964663c0.8405151-1.0065203,2.053421-1.6526542,3.4886932-1.5657496
		c-1.6951752,0.9627032-1.9875641,2.4714541-1.6415787,4.225287c0.069458,0.3520565,0.162674,0.6993542,0.2381592,1.0503035
		c0.7679443,3.5706453,2.8010712,6.4852514,5.2604828,8.9841585c6.7215652,6.8294926,14.5420456,11.885603,24.1252441,13.6971607
		c1.0372849,0.1960793,2.2091217,0.6353188,3.3250961,0.079052c0.4382095,0.2622757,0.8698425,0.524498,1.4047928,0.5634155
		c2.4011612,0.1747017,4.8029785,0.4159203,7.1798172-0.2133827c4.3983383-0.1303635,8.5261917-1.4232216,12.4221573-3.3037987
		c4.4538879-2.1498737,8.6113281-4.7973442,12.3613129-8.1006298c4.0634308-3.5793819,7.2878265-7.585907,8.2844849-13.0736294
		c0.2976379-1.638937-0.3014221-2.9380989-1.8267975-3.6108932c1.8821869-0.2961087,3.0521545,0.8640623,4.169632,2.0806007
		c0.3751526,0.4083967,0.7213287,0.7964602,1.2030029,1.1157064c8.8759308,5.8826933,18.7909851,9.6114683,28.5276642,13.6817732
		c5.0671997,2.1182919,10.0361633,4.448782,15.0894623,6.5913906c0.2848053,0.1207619,0.5545807,0.2899628,0.8083038,0.4692535
		c12.3845215,8.7518921,19.4391327,20.8448601,21.5984497,35.6760674
		c1.3791351,9.4724808,3.7397614,18.7322083,5.3073425,28.1521988c0.6753998,4.0587616,1.2511444,8.1341019,1.8721771,12.2019653
		c-0.6529999,0.3998947-1.3682098,0.6659775-2.1055756,0.8265991c-3.0330963,0.6607285-5.904892,1.8606415-8.9594421,2.4980545
		c-3.9027405,0.8144073-7.8183136,1.5320129-11.7696075,1.9611206c-5.554718,0.603241-11.1352081,0.2887573-16.7022247,0.0152206
		c-1.1105804-0.0545654-2.2037201-0.3564453-3.1722565-0.9701385c0.7558594-5.6992798,1.8459625-11.3341751,3.2065735-16.9198303
		c0.3008118-1.2349777,0.8565826-2.4168701,0.8358307-3.7247162c0.2794952-0.1628418,0.3426819-0.3475189,0.0062866-0.6156769
		c0,0.2388382,0,0.4297028,0,0.6205673c-0.4790192,0.3391571-0.5686188,0.9021378-0.7780151,1.3888016
		c-2.0314789,4.7210388-3.4780884,9.6449585-4.6640625,14.6216736c-2.0872192,8.7584763-3.5822449,17.6242294-4.4371948,26.6035614
		c-0.4523315,4.7509003-0.8161774,9.507431-1.1358795,14.2644348c-0.3236237,4.815033-0.4943695,9.6493683-0.4962006,14.4753571
		c-0.0065155,17.1103668-0.2881927,34.2207184,0.154068,51.3319397c0.1888428,7.3058624,0.2525177,14.6145172,0.5084229,21.9209747
		c0.1704407,4.866272,0.322525,9.7336121,0.4891968,14.6004944c0.2048492,5.9826202,0.4572906,11.9611664,0.740448,17.9404144
		c0.2378235,5.022583,0.4181061,10.0471191,0.8053589,15.0614319c-7.6599731,1.071991-15.3700409,1.3624268-23.0909576,1.453125
		c-12.9171753,0.1516418-25.828064,0.5593262-38.7398911,0.927124c-6.7663193,0.1927185-13.5062866-0.4621582-20.2625351-0.5741882
		c-8.7172699-0.1445923-17.4352112-0.2523804-26.1519547-0.4230347c-8.0376511-0.1573792-16.0750656-0.3626404-24.041729-1.6032715
		c-0.2762222-0.0430298-0.5503044-0.0997314-0.8247566-0.1500244c0.5248184-3.7615967,0.4722595-7.5618896,0.7283936-11.3416138
		c0.3828354-5.6496887,0.5852432-11.3135681,0.7608757-16.9746246c0.1361084-4.3873444,0.2959023-8.7726288,0.474575-13.1584625
		c0.2567482-6.3022766,0.3786621-12.610199,0.5362244-18.9162445c0.0947723-3.7930145,0.1758194-7.5927277,0.1745338-11.3804779
		c-0.0073166-21.5683136,0.6452637-43.1445618-0.6407623-64.7021484c-0.2013893-3.3758698-0.4503937-6.7434998-0.7333374-10.1125336
		c-0.4589691-5.46492-1.138485-10.8915634-2.0771561-16.298645c-1.0439987-6.0137711-2.1478043-12.0051498-3.9264946-17.8514938
		c-0.659687-2.1683044-1.2079697-4.3777847-2.1249275-6.509613c-0.3665085,0.2823029-0.3203545,0.6133347-0.2242126,0.82267
		c0.6978035,1.5193863,0.7705994,3.1697159,0.9770584,4.776535
		C41.7492332,106.981102,42.7934151,111.7942276,42.9602928,116.7164001z"></path>
	<path d="M127.5788727,26.2079639c-6.2144394-0.0198517-12.4288788-0.0521202-18.6433258-0.0542717
		c-3.065094-0.0010605-6.1302109,0.0535049-9.1955109,0.0832348c-4.9701691-4.1162624-10.4422836-7.6742306-14.3553085-12.9657612
		c-0.8149796-1.1020842-1.4508667-2.2845535-1.9744339-3.5440464c-0.3177567-0.7643843-0.0151596-0.8906355,0.675499-0.8244038
		c3.534523,0.3389521,7.0688553,0.6833668,10.6073151,0.9768419c3.9368591,0.3265152,7.8772125,0.6125641,11.8175964,0.8944664
		c9.2378693,0.6608925,18.4258499-0.2588043,27.6218948-0.8990793c3.2984009-0.2296505,6.5945892-0.4910288,10.0334015-0.7485323
		c-0.7754364,2.2337532-2.0528107,4.0438995-3.4651184,5.7618656c-1.859375,2.2617979-3.9963989,4.2427282-6.3094788,6.035264
		C132.119751,22.6839752,129.8496552,24.4464073,127.5788727,26.2079639z"></path>
</g>
<g onclick="select(this)" class="" id="estampa-terciaria" fill="#bf0811">
	<path d="M160,30c-0.0048828,0.5996571,0,0.4003429,0,1c-0.0006256,84.5209732,0.0007172,169.4790192,0,254
		c0,1-0.6516418,0.2566223-0.6572113,0.5762329c-1.5456238,0.221283-3.1030426,0.2014771-4.6576843,0.2124023
		c-2.4369812,0.0171509-4.8740692,0.1193848-7.3112335,0.0095825C146,286,146,284.598938,146,283.9992981
		C145.9994202,197.3447571,145.9984894,110.6545334,146,24c0.0000153-0.5592442-0.0116577-1.4407558,0-2
		c0,0,1.9315948,0.4809151,2.1522827,0.6345539c3.4840546,2.425539,7.133606,4.5659637,10.9647369,6.3963509C160,30,160,29,160,30z"></path>
</g>
<g onclick="select(this)" class="" id="estampa-secundaria" fill="#000000">
	<path d="M146.4300842,21.1076565c-0.264801,0.8697166,0.5967865,0.8696899,0.9654083,1.2503033
		c-0.0116577,0.5592461-0.0335083,1.1184883-0.0335236,1.6777325c-0.0015106,86.6545334-0.0014648,173.3090668-0.000885,259.9635925
		c0,0.5996399,0.0083466,1.1992493,0.0127869,1.7989197c-3.9719391,0.1210632-7.9438324,0.2437134-11.9159393,0.3585205
		c-0.19133,0.0055542-0.3846436-0.0576172-0.5770111-0.0888367c-0.0003204-88.086731,0.0006104-176.1734619-0.0193024-264.2601929
		c-0.0001831-0.8448849,0.2346344-1.4063282,0.9070587-1.9128685c1.2783508-0.9629498,2.4211273-2.0871506,3.5317383-3.240675
		c0.2180481-0.2264633,0.4019165-0.5038815,0.7362366-0.5881443c1.4877472,1.3592968,3.158371,2.4869823,4.7329712,3.7362823
		C145.321167,20.2398796,145.8764801,20.6726742,146.4300842,21.1076565z"></path>
	<path d="M159.3740997,29.2555637c3.9598236,1.8100128,7.9889679,3.4461765,12.1281433,4.8017864
		c0.4689941,0.1536026,0.6226959,0.4240952,0.5828552,0.886158c-0.027359,0.3175125-0.0050659,0.6392975-0.0050659,0.9591751
		c0.0000153,82.4882965-0.0000763,164.9766083,0.0019073,247.4649048c0.0000153,0.5185547,0.0287323,1.0371399,0.0440369,1.5556946
		c-0.0554047,0.3635864-0.3121185,0.3822632-0.6114655,0.39151c-4.0564728,0.1246643-8.1109467,0.3369141-12.1717224,0.2614441
		c0.0055695-0.3196106,0.0160217-0.6391907,0.0160217-0.9587708c0.0007172-84.5209808,0.0006561-169.0419617,0.0012817-253.5629272
		C159.3600922,30.4548779,159.3692169,29.8552208,159.3740997,29.2555637z"></path>
</g>
<g onclick="select(this)">
	<image overflow="visible" width="466" height="309" xlink:href="FB32496.jpg" transform="matrix(1 0 0 1 -7894 -7770.1103516)">
	</image>
</g>
<image overflow="visible" width="466" height="309" xlink:href="FB3249A.jpg" transform="matrix(1 0 0 1 -7894 -7770.1103516)">
</image>
<g onclick="select(this)" class="" id="gola-primaria" fill="#ffffff">
	<path d="M149.2094116,8.2638474c1.5253754,0.6727943,2.1244354,1.9719563,1.8267975,3.6108932
		c-0.9966583,5.4877224-4.2210541,9.4942474-8.2844849,13.0736294c-3.7499847,3.3032856-7.9074249,5.9507561-12.3613129,8.1006298
		c-3.8959656,1.8805771-8.023819,3.1734352-12.4215469,3.3036346c0.4439621-1.0870743,1.2242584-1.9417343,1.9624023-2.8221397
		c2.2807617-2.7203178,5.0411224-4.9413967,7.6476059-7.3225307c2.2707825-1.7615566,4.5408783-3.5239887,6.8125305-5.2844219
		c2.3130798-1.7925358,4.4501038-3.7734661,6.3094788-6.035264c1.4123077-1.7179661,2.689682-3.5281124,3.4651184-5.7618656
		c-3.4388123,0.2575035-6.7350006,0.5188818-10.0334015,0.7485323c-9.1960449,0.640275-18.3840256,1.5599718-27.6218948,0.8990793
		c-3.9403839-0.2819023-7.8807373-0.5679512-11.8175964-0.8944664c-3.5384598-0.2934752-7.0727921-0.6378899-10.6073151-0.9768419
		c-0.6906586-0.0662317-0.9932556,0.0600195-0.675499,0.8244038c0.5235672,1.2594929,1.1594543,2.4419622,1.9744339,3.5440464
		c3.9130249,5.2915306,9.3851395,8.8494987,14.3551102,12.9660988c3.3906479,3.0813179,6.8935013,6.0518246,9.6438065,9.765501
		c-1.1159744,0.5562668-2.2878113,0.1170273-3.3250961-0.079052c-9.5831985-1.8115578-17.4036789-6.8676682-24.1252441-13.6971607
		c-2.4594116-2.4989071-4.4925385-5.4135132-5.2604828-8.9841585c-0.0754852-0.3509493-0.1687012-0.698247-0.2381592-1.0503035
		c-0.3459854-1.7538328-0.0535965-3.2625837,1.6415787-4.225287c0.5134506-0.0218778,0.9072037-0.2943282,1.2580032-0.6285534
		c0.9260712-0.8823042,2.002533-1.6617661,2.7296448-2.6873994c2.0413818-2.8794434,5.0124893-3.6546056,8.2393799-3.9380369
		c1.7071915-0.1499494,3.4185333-0.0953171,5.1352692-0.0670468c5.7580414,0.0948202,11.5201263,0.1279386,17.2777176,0.0232105
		c7.9139404-0.1439514,15.8250504,0.0526319,23.7374344,0.0421979c0.9127808-0.0012037,1.8291779,0.1756898,2.7380676,0.3096028
		c2.2507019,0.3316082,4.1469727,1.2028055,5.5693359,3.1286693C145.9642944,5.7785664,147.3631744,7.2865815,149.2094116,8.2638474
		z"></path>
</g>
<g onclick="select(this)" class="" id="detalhe-lateral" fill="#bf0811">
	<path d="M189.1187286,91.9191055c0.0207672,1.3078537-0.5350037,2.4897461-0.8358154,3.7247238
		c-1.360611,5.5856552-2.4507141,11.2205505-3.206665,16.9198532c-0.0795288,0.1283112-0.2240906,0.2542572-0.228775,0.3852234
		c-0.0873871,2.4405441-0.1581268,4.881691-0.2323608,7.3227081c-1.2229004,10.2748947-2.2837219,20.5613937-1.9575043,30.9325943
		c0.0736389,2.3410492,0.797821,4.6356354,0.467392,7.0157776c-0.3462524,2.4943085-0.4911041,5.0053406-0.4685364,7.5275726
		c0.0589142,6.5868073,0.0997314,13.1844635-0.1151276,19.7570038c-0.1461945,4.4721985,0.7111969,8.6969757,1.4259338,13.0036926
		c0.8487091,5.1140594,0.9467468,10.2419739,0.2397156,15.3864594c-0.320343,2.3309326-0.5420074,4.675354-0.8180695,7.0125122
		c-0.0545959,0.4621735,0.1269073,0.8696136,0.268158,1.2767944c2.0054626,5.7802429,2.5077667,11.7145386,1.488266,17.7164307
		c-0.4378662,2.577774,0.0995483,4.990921,0.4265137,7.4651794c0.1680603,1.2716827,0.270752,2.5463257,0.2411957,3.8262482
		c-0.1767273,7.6533051,0.6702118,15.2415619,1.395874,22.8400116c0.2152557,2.2537537,0.3289642,4.5205994,0.3050842,6.7921448
		c-0.0117188,1.1161499-0.5086517,1.8124084-1.5119324,2.1871033c-1.8345642,0.6850586-3.7211456,1.1192627-5.6911774,1.1219788
		c-0.3869781-5.0143433-0.5672607-10.0388794-0.8050842-15.0614624c-0.2831573-5.979248-0.5355988-11.9577942-0.740448-17.9404144
		c-0.1666718-4.8668823-0.3187561-9.7342224-0.4891968-14.6004944c-0.2559052-7.3064575-0.3195801-14.6151123-0.5084229-21.9209747
		c-0.4422607-17.1112213-0.1605835-34.2215729-0.154068-51.3319397c0.0018311-4.8259888,0.1725769-9.6603241,0.4962006-14.4753571
		c0.3197021-4.7570038,0.683548-9.5135345,1.1358795-14.2644348c0.85495-8.979332,2.3499756-17.8450851,4.4371948-26.6035614
		c1.1859741-4.9767151,2.6325836-9.9006348,4.6640625-14.6216736c0.2093964-0.4866638,0.298996-1.0496445,0.7780151-1.3888016
		L189.1187286,91.9191055z"></path>
	<path d="M42.9602928,116.7164001c-0.1668777-4.9221725-1.2110596-9.7352982-1.836174-14.600235
		c-0.206459-1.6068192-0.2792549-3.2571487-0.9770584-4.776535c-0.0961418-0.2093353-0.1422958-0.5403671,0.2242126-0.82267
		c0.9169579,2.1318283,1.4652405,4.3413086,2.1249275,6.509613c1.7786903,5.846344,2.8824959,11.8377228,3.9264946,17.8514938
		c0.9386711,5.4070816,1.618187,10.833725,2.0771561,16.298645c0.2829437,3.3690338,0.5319481,6.7366638,0.7333374,10.1125336
		c1.286026,21.5575867,0.6334457,43.1338348,0.6407623,64.7021484c0.0012856,3.7877502-0.0797615,7.5874634-0.1745338,11.3804779
		c-0.1575623,6.3060455-0.2794762,12.6139679-0.5362244,18.9162445c-0.1786728,4.3858337-0.3384666,8.7711182-0.474575,13.1584625
		c-0.1756325,5.6610565-0.3780403,11.3249359-0.7608757,16.9746246c-0.256134,3.7797241-0.2035751,7.5800171-0.7283974,11.3416138
		c-1.6038246-0.0620117-3.1353111-0.480835-4.6396866-0.9884033c-2.0908394-0.7053528-2.4320869-1.1882324-2.3479195-3.4199524
		c0.0989914-2.6248474,0.197197-5.2486877,0.4136772-7.8702698c0.437336-5.2962646,0.7230606-10.6051636,1.1734085-15.9001465
		c0.4059486-4.772995-0.0620041-9.599472,0.92173-14.3359985c0.1876183-0.9033508,0.1007004-1.8392181-0.0405083-2.7470551
		c-0.4917374-3.161377-0.3399315-6.2974091,0.3480263-9.408432c0.1770897-0.8007965,0.1348724-1.5744476,0.0753937-2.3760681
		c-0.3103065-4.1820526-0.8709526-8.3446655-0.8720856-12.5512238c-0.001297-4.8222198,1.0939598-9.4224854,2.6964912-13.9223022
		c0.3419991-0.9603271,0.5831757-1.8776855,0.4609985-2.9091187c-0.1840668-1.5539703-0.1225204-3.1095886,0.1561241-4.6584167
		c0.1124954-0.6253204,0.1623154-1.2735748,0.1449738-1.9087677c-0.1317635-4.8264465-0.596077-9.6676331-0.3566589-14.4743347
		c0.2951164-5.9250183-0.2425842-11.8177643-0.1111946-17.7308044c0.2468796-11.1105347,0.3711891-22.2281342-1.4012871-33.2613602
		c-0.2532234-1.5762482-0.3455887-3.1783066-0.5124054-4.7683258
		C43.5130882,119.230835,43.0641747,117.989357,42.9602928,116.7164001z"></path>
</g>
<text transform="matrix(1 0 0 1 297.6376953 420.9450073)"><tspan x="0" y="0" font-family="'MyriadPro-Regular'" font-size="12px">700 unidades pretas - 300 M e 400 G</tspan><tspan x="0" y="14.3999023" font-family="'MyriadPro-Regular'" font-size="12px">300 unidades laranjas - 150 M e 150 G</tspan></text>
<g onclick="select(this)" class="" id="detalhe-punho" fill="#bf0811">
	<path d="M0.24,114.4800034c0.5011781-1.0351486,0.4661419-2.1857681,0.7000899-3.2784271
		c0.113247-0.5289154,0.0707367-1.1001892,0.4777295-1.5357361c0.8538009,0.331131,1.6900905,0.7203293,2.564301,0.9835968
		c5.2699413,1.5870819,10.5620546,2.881424,16.1255417,3.2111969c5.868187,0.3478317,11.7135105,0.4456482,17.5689392,0.1051025
		c1.3252907-0.0770798,2.7168274-0.1894302,3.9110947-0.9371338c0.5485344-0.3434372,0.6787186-0.0485992,0.7576103,0.4257813
		c0.1815453,1.0915985,0.140213,2.2257614,0.6149864,3.2620163c0.1038818,1.2729568,0.5527954,2.5144348,0.3481255,3.8155441
		c-2.8368149,1.3359146-5.8993645,1.7578812-8.957077,1.8165131c-7.1353283,0.1368103-14.2825813,0.308754-21.3680344-0.9193192
		c-3.5690641-0.6186142-7.1243963-1.2803345-10.5707636-2.41716c-0.7455329-0.2459259-1.4494541-0.6180038-2.1725433-0.9319763
		C0.24,116.8800049,0.24,115.6800079,0.24,114.4800034z"></path>
	<path d="M184.6151123,120.2716141c0.074234-2.4410172,0.1449738-4.882164,0.2323608-7.3227081
		c0.0046844-0.1309662,0.1492462-0.2569122,0.228775-0.3852234c0.9686279,0.6136703,2.0617676,0.9155502,3.172348,0.9701157
		c5.5670166,0.2735367,11.1475067,0.5880203,16.7022247-0.0152206c3.9512939-0.4291077,7.8668671-1.1467133,11.7696075-1.9611206
		c3.0545502-0.637413,5.9263458-1.837326,8.9594421-2.4980545c0.7373657-0.1606216,1.4525757-0.4267044,2.1055756-0.8265991
		c0.7637177,1.8882828,1.1708832,3.8486481,1.1733398,5.8877106c0.0027771,2.3117142,0.0072479,2.336937-2.2010193,3.0802231
		c-6.7021942,2.2558899-13.5599213,3.8489761-20.6104431,4.4470062c-6.01651,0.5103149-12.0468597,0.5391312-18.0522614-0.2441406
		C186.8805847,121.2452011,185.6448364,121.0471725,184.6151123,120.2716141z"></path>
</g>
<g onclick="select(this)" class="" id="gola-secundaria" fill="#bf0811">
	<path d="M109.3836441,36.0027657c-2.7503052-3.7136765-6.2531586-6.6841831-9.6436081-9.7658386
		c3.0653-0.0297298,6.1304169-0.0842953,9.1955109-0.0832348c6.214447,0.0021515,12.4288864,0.03442,18.6433258,0.0542717
		c-2.6064835,2.381134-5.3668442,4.6022129-7.6476059,7.3225307c-0.7381439,0.8804054-1.5184402,1.7350655-1.9624023,2.8221397
		c-2.377449,0.629467-4.7792664,0.3882484-7.1804276,0.2135468
		C110.2534866,36.5272636,109.8218536,36.2650414,109.3836441,36.0027657z"></path>
</g>
<path d="M189.1250305,91.9240036c0-0.1908646,0-0.3817291,0-0.6205673
	c0.3363953,0.268158,0.2732086,0.4528351-0.0062866,0.6156769
	C189.1187286,91.9191055,189.1250305,91.9240036,189.1250305,91.9240036z"></path>
</svg>
