<!--?xml version="1.0" encoding="utf-8"?-->
<!-- Generator: Adobe Illustrator 24.2.3, SVG Export Plug-In . SVG Version: 6.00 Build 0)  -->
<svg version="1.1" id="Camada_1" xmlns="http://www.w3.org/2000/svg" xmlns:xlink="http://www.w3.org/1999/xlink" x="0px" y="0px" viewBox="0 0 229 418" enable-background="new 0 0 229 418" xml:space="preserve">
<g class="" id="gola-primaria" fill="#000000">
	<path d="M109.3256989,35.9207878c-0.1734467,0.532753-0.5917358,0.2743607-0.9039154,0.2516022
		c-4.1043777-0.299221-7.9513092-1.505722-11.6402817-3.2895241c-5.3551407-2.5894814-10.2299652-5.8816833-14.3707428-10.1524506
		c-2.6511154-2.734333-4.9007111-5.7867432-5.7837296-9.6242762c-0.2346497-1.0197554-0.4030762-2.0421906-0.2305679-3.0806484
		c0.1655655-0.9966812,0.9428787-1.529851,1.6987534-2.062746c0.5144196-0.0249214,0.9029312-0.3084855,1.2525024-0.6408176
		c0.9263763-0.8806958,2.0002518-1.6613083,2.7274628-2.6858997c2.0422745-2.8774152,5.0195923-3.6035271,8.2394028-3.9384618
		c3.0734558-0.3197089,6.1407471,0.0640202,9.2119827,0.0276009c4.3973541-0.0521445,8.7971802,0.0443054,13.1931534-0.0513445
		c7.9102249-0.1721148,15.8182297,0.0474188,23.7272263,0.0364116c0.9124146-0.0012698,1.828537,0.1745476,2.7369537,0.3088157
		c2.2481232,0.332287,4.1498718,1.1915944,5.5701294,3.1200867c1.2012482,1.6310925,2.6129456,3.1247711,4.4388733,4.1271977
		c1.6919098,0.471426,2.2952423,2.5105724,1.6758423,4.7444515c-1.1704712,4.2214594-3.5445099,7.6803961-6.6416321,10.6471872
		c-2.7457275,2.6302032-5.8013458,4.901825-9.102417,6.8089809c-4.071167,2.3520851-8.2753143,4.4175797-12.9284058,5.3568268
		c-1.3970261,0.2819977-2.8357391,0.3577576-4.2551346,0.5281792c0.4981461-1.1476097,1.3241043-2.0655403,2.1212006-3.0007629
		c2.248703-2.6383533,4.9448242-4.810585,7.4805527-7.1498508c2.1459198-1.6623192,4.2819519-3.3376217,6.4404449-4.9834862
		c2.392868-1.8246021,4.6131897-3.8312626,6.5503387-6.1364632c1.4909363-1.7742386,2.8118439-3.6581097,3.6611938-5.995595
		c-2.0445251,0.171031-3.9476471,0.3502245-5.8538818,0.4858923c-5.379715,0.3828764-10.7599335,0.7590179-16.1413574,1.1168613
		c-5.5895386,0.3716831-11.1788483,0.4153547-16.7722092,0.018959c-7.1327515-0.5054932-14.2606812-1.060936-21.3717041-1.816123
		c-0.7256699-0.0770664-0.9725952,0.1089544-0.6669769,0.8316221c0.5152588,1.2184,1.126152,2.3757305,1.9132462,3.447176
		c3.9235306,5.3410435,9.441452,8.9155712,14.446228,13.0588207
		C103.1151276,29.2874451,106.6069336,32.222599,109.3256989,35.9207878z"></path>
</g>
<g class="" id="detalhe-punho" fill="#ffff00">
	<path d="M0.24,114.41436c0.5066518-1.0333099,0.4623487-2.1853943,0.7029477-3.2761536
		c0.1164828-0.5280762,0.0638708-1.1035385,0.4705237-1.5418396c4.7471166,1.9192047,9.661128,3.2643356,14.739399,3.8523865
		c5.6213551,0.6509323,11.2752342,0.8683701,16.9397697,0.6843262c2.350296-0.076355,4.6895752-0.1641083,7.0189934-0.5657349
		c0.8487549-0.1463318,1.4449158-0.8912582,2.3408813-0.7894821c0.4804115,1.3697586,0.2444649,2.8194885,0.4263916,4.2271881
		c0.1480598,1.1455917,0.8794975,2.2632141,0.3643112,3.4790955c-2.841095,1.3330917-5.9081955,1.7382584-8.9673958,1.7949448
		c-7.0645809,0.130928-14.1399384,0.3043518-21.1575737-0.9066238c-3.6142483-0.6236801-7.2130728-1.2875977-10.7040243-2.4304047
		c-0.7462479-0.2443008-1.4505816-0.6164856-2.1742241-0.9297638C0.24,116.8129883,0.24,115.613678,0.24,114.41436z"></path>
	<path d="M184.6167908,120.2029724c0.0372009-2.5699768,0.0365143-5.1422272,0.4629211-7.688797
		c0.9396362,0.5695877,1.9786682,0.9036407,3.0544434,0.9562988c5.6075439,0.2745056,11.228775,0.5989304,16.8232422-0.0108337
		c3.9904938-0.4349365,7.9450073-1.161026,11.8859558-1.9935684c3.0928345-0.6533813,6.000824-1.8692627,9.0736084-2.5406494
		c0.6487732-0.1417542,1.2501068-0.5003433,1.873291-0.7590942c1.0290527,2.4653549,1.3149261,5.0500107,1.1316986,7.6846695
		c-0.0435181,0.6258698-0.7669983,0.7556763-1.2712555,0.942894c-3.2154999,1.1938553-6.5277557,2.0655441-9.8517761,2.8920898
		c-8.3978119,2.0882339-16.9433594,2.4642563-25.539505,2.1048508c-1.8251953-0.0763016-3.6426392-0.4177322-5.4543915-0.6971664
		C186.0230713,120.9730606,185.2617188,120.7066879,184.6167908,120.2029724z"></path>
</g>
<g class="" id="gola-secundaria" fill="#ffff00">
	<path d="M127.5429077,26.2013435c-2.5357285,2.3392677-5.2318497,4.5114994-7.4805527,7.1498528
		c-0.7970963,0.9352226-1.6230545,1.8531532-2.1212006,3.0007591c-2.3132095,0.5602531-4.6457596,0.380825-6.9806519,0.1973152
		c-0.6160583-0.0484238-1.1409073-0.2847061-1.6344376-0.6280861c-2.7191315-3.6985855-6.2109375-6.6337395-9.5777512-9.6924343
		c2.8338776-0.0287647,5.6676941-0.0822201,8.5014725-0.080719
		C114.6808319,26.1514378,121.1118698,26.1818867,127.5429077,26.2013435z"></path>
</g>
<path d="M189.3682404,91.1565399c0.0375671-0.1338425,0.0751343-0.2676697,0.1127014-0.4015045
	c0.0261383,0.028389,0.072525,0.0551529,0.0749512,0.0854416c0.012146,0.1519699,0.0203705,0.3102493-0.208313,0.2966614
	C189.3475342,91.1370926,189.3682556,91.1565399,189.3682404,91.1565399z"></path>
<g class="" id="estampa-primaria" fill="#000000">
	<path d="M42.4525146,112.7778625c-0.8959656-0.1017761-1.4921265,0.6431503-2.3408813,0.7894821
		c-2.3294182,0.4016266-4.6686974,0.4893799-7.0189934,0.5657349c-5.6645355,0.1840439-11.3184147-0.0333939-16.9397697-0.6843262
		c-5.0782709-0.5880508-9.9922829-1.9331818-14.739399-3.8523865c1.6968609-8.914566,2.4887414-17.9633636,4.0001216-26.9052277
		c0.8855782-5.2393951,1.1788788-10.5595551,2.2399788-15.7781677c1.7292542-8.504673,4.4516625-16.5878448,9.6675148-23.6606789
		c2.1221428-2.8776779,4.5377884-5.4906731,7.3400173-7.7103424c1.3638763-1.0803337,2.3639584-2.5835495,3.9253693-3.4050064
		c3.6099453-1.8991852,7.2583332-3.7276974,11.0324497-5.2813187c9.9905014-4.1125946,20.000515-8.1803665,29.4651909-13.4415846
		c1.9752426-1.0979939,3.9976349-2.0948963,5.5164642-3.8997173c0.8439026-1.0028076,2.0582657-1.6470857,3.4946365-1.5515785
		c-0.7558746,0.5328951-1.5331879,1.0660648-1.6987534,2.062746c-0.1725082,1.0384579-0.0040817,2.0608931,0.2305679,3.0806484
		c0.8830185,3.837533,3.1326141,6.8899431,5.7837296,9.6242762c4.1407776,4.2707672,9.0156021,7.5629692,14.3707428,10.1524506
		c3.6889725,1.783802,7.5359039,2.990303,11.6402817,3.2895241c0.3121796,0.0227585,0.7304688,0.2811508,0.9042816-0.2512054
		c0.4935303,0.34338,1.0183792,0.5796623,1.6344376,0.6280861c2.3348923,0.1835098,4.6674423,0.3629379,6.9804306-0.1974907
		c1.4196167-0.1702423,2.8583298-0.2460022,4.2553558-0.5279999c4.6530914-0.9392471,8.8572388-3.0047417,12.9284058-5.3568268
		c3.3010712-1.907156,6.3566895-4.1787777,9.102417-6.8089809c3.0971222-2.9667912,5.4711609-6.4257278,6.6416321-10.6471872
		c0.6194-2.2338791,0.0160675-4.2730255-1.6763763-4.744153c1.9420929-0.322947,3.1181183,0.8977289,4.248703,2.1526375
		c0.3474121,0.3856363,0.6847076,0.7271471,1.1279755,1.0213566c8.8716431,5.8886719,18.7898102,9.6126652,28.5267792,13.6823082
		c5.0673981,2.11796,10.038208,4.4440956,15.0911713,6.5874882c0.2853394,0.1210365,0.5591431,0.2838707,0.8124237,0.4636726
		c11.9666901,8.4952011,19.1779327,20.08321,21.3682709,34.4821701c1.7443542,11.4671555,4.7389374,22.6825333,6.318634,34.166687
		c0.3372803,2.4519806,0.734375,4.8957443,1.1039429,7.3433762c-0.6231995,0.2587509-1.2245331,0.6173401-1.8733063,0.7590942
		c-3.0727844,0.6713867-5.9807739,1.8872681-9.0736084,2.5406494c-3.9409485,0.8325424-7.895462,1.5586319-11.8859558,1.9935684
		c-5.5944672,0.6097641-11.2156982,0.2853394-16.8232422,0.0108337c-1.0757751-0.0526581-2.1148071-0.3867111-3.0544434-0.9562912
		c0.9133911-6.7970581,2.1953278-13.5191116,4.0814209-20.1194687c0.1157684-0.4051895,0.4060059-0.7978287,0.1864471-1.257576
		c0.2286835,0.013588,0.220459-0.1446915,0.208313-0.2966614c-0.0024261-0.0302887-0.0488129-0.0570526-0.0749512-0.0854416
		c-0.0375671,0.1338348-0.0751343,0.267662-0.1127014,0.4015045c-0.3382111,0.0892105-0.3290253,0.4327927-0.4303589,0.6598129
		c-2.0418243,4.5738068-3.5193329,9.3472748-4.7613068,14.1821518c-2.4084015,9.3755341-3.9837952,18.8970871-4.9313965,28.5371094
		c-0.4706268,4.7878876-0.8178406,9.5828094-1.1401062,14.3773499c-0.3235474,4.8140259-0.4896545,9.6474457-0.4935303,14.4725189
		c-0.0137329,17.0256653-0.293335,34.0512085,0.1540527,51.0777435c0.191925,7.3041687,0.2595215,14.6112518,0.5149689,21.9160767
		c0.170105,4.8651276,0.3197784,9.7314301,0.4851532,14.597168c0.2033081,5.9811401,0.4586487,11.9578552,0.7411346,17.9355164
		c0.2373199,5.0215149,0.4161835,10.0449524,0.8100586,15.0577393c-7.654129,1.0699463-15.3581696,1.3612976-23.0732422,1.4522095
		c-12.9472198,0.1525879-25.8881531,0.5621033-38.8301086,0.9285583c-6.7608643,0.1914368-13.4958496-0.465271-20.2470093-0.5768127
		c-8.7105942-0.1439209-17.4220123-0.2460938-26.1319199-0.4232483c-8.3101959-0.1690063-16.6230583-0.3526306-24.8476982-1.7511597
		c0.5422516-3.7596436,0.4815598-7.5604248,0.7390556-11.3394775c0.3821983-5.6092529,0.5796967-11.2329712,0.7604179-16.8535767
		c0.1423416-4.4268494,0.2932549-8.852417,0.473175-13.2781372c0.2545853-6.2624054,0.3896675-12.5300751,0.535202-18.7964172
		c0.0927391-3.9929047,0.1909142-7.9915466,0.1893997-11.9799347c-0.00811-21.4069519,0.6336784-42.8216705-0.6577225-64.2175446
		c-0.2539635-4.2076416-0.5594025-8.4050293-0.9685097-12.6003418c-0.4473228-4.5871887-1.0582695-9.1419525-1.8283081-13.6878357
		c-1.0712128-6.3238525-2.2926559-12.6049652-4.1846809-18.7393494c-0.5815163-1.8854294-1.0368538-3.8216553-1.9383469-5.6982117
		c-0.5278625,0.8900604,0.2040977,1.4512558,0.2923431,2.1296234c0.3710556,2.852478,0.8811569,5.6868515,1.2544365,8.5390854
		C42.1011581,108.9703293,42.5416451,110.8479462,42.4525146,112.7778625z"></path>
	<path d="M127.5429077,26.2013454c-6.4310379-0.0194588-12.8620758-0.0499077-19.2931213-0.0533142
		c-2.8337784-0.0015011-5.6675949,0.0519543-8.5014725,0.080719c-5.0048599-4.1429901-10.5227814-7.7175179-14.446312-13.0585613
		c-0.7870941-1.0714455-1.3979874-2.228776-1.9132462-3.447176c-0.3056183-0.7226677-0.0586929-0.9086885,0.6669769-0.8316221
		c7.1110229,0.755187,14.2389526,1.3106298,21.3717041,1.816123c5.5933609,0.3963957,11.1826706,0.3527241,16.7722092-0.018959
		c5.381424-0.3578434,10.7616425-0.7339849,16.1413574-1.1168613c1.9062347-0.1356678,3.8093567-0.3148613,5.8538818-0.4858923
		c-0.84935,2.3374853-2.1702576,4.2213564-3.6611938,5.995595c-1.937149,2.3052006-4.1574707,4.311861-6.5503387,6.1364632
		C131.8248596,22.8637238,129.6888275,24.5390263,127.5429077,26.2013454z"></path>
</g>
<g class="" id="estampa-secundaria" fill="#343434">
	<path d="M42.3163414,212.5978851c0.5011559,0.208374,1.0279694,0.1164551,1.5428886,0.1165161
		c38.1199341,0.0043945,76.2398605,0.0040131,114.3597946,0.0040131c1.8401642,0,1.8636627,0.0419159,1.6943512,1.8520203
		c-0.0390167,0.4171448-0.1845245,0.5677795-0.5822601,0.5468445c-0.3191071-0.0167847-0.6398315-0.0031586-0.9598236-0.0031586
		c-38.1199265,0.0000153-76.2398605-0.0002899-114.359787,0.0029297c-0.5016594,0.0000458-1.0154152-0.0646515-1.5102692,0.0801849
		c0.0144997,0.4415741,0.2907944,0.3702698,0.4960365,0.3782806c0.3594742,0.0140228,0.719841,0.0060425,1.079834,0.0060425
		c38.1199303,0.0001068,76.2398682,0.0000916,114.359787,0.0000916c0.1600037,0,0.3200073-0.0011597,0.4799957,0.0001984
		c0.9265137,0.0078735,1.2905426,0.5484161,0.9859314,1.4272766c-0.0850677,0.2454834-0.2470245,0.2800751-0.4533081,0.2817078
		c-0.3199768,0.0024719-0.6399841,0.0010529-0.9599915,0.0010529c-38.1599197,0.0000153-76.3198547-0.000412-114.4797897,0.0042877
		c-0.5556412,0.0000763-1.1204491-0.0876007-1.6670265,0.0965118
		C42.1331062,215.795517,42.1609459,214.197052,42.3163414,212.5978851z"></path>
	<path d="M187.414566,279.6044006c-0.519104-0.0167542-1.0381775-0.0481873-1.5572815-0.0482178
		c-37.6773834-0.0022888-75.3547897-0.0020752-113.032196-0.0020752c-0.2799835,0-0.5600052,0.003418-0.8399353-0.0006104
		c-0.9225388-0.0133057-1.2111893-0.4338989-0.9632034-1.3576355c0.0632248-0.2354736,0.1877518-0.3302612,0.4088745-0.3341675
		c0.3598099-0.0064392,0.7197113-0.010437,1.0795746-0.010437c37.7173996-0.0004578,75.4347916-0.000061,113.1521988-0.0039063
		c0.4989777-0.000061,1.0124817,0.0752563,1.4938965-0.0808105c0.0127869-0.461853-0.2794189-0.3778687-0.4837189-0.3875122
		c-0.3591919-0.0169983-0.7197113-0.0067749-1.0796814-0.0067749c-37.6374054-0.0001221-75.2748108-0.0001221-112.9122162-0.0001221
		c-1.8050079,0-1.8608017-0.0814819-1.6738281-1.8666992c0.0456619-0.4359436,0.2311249-0.5340271,0.6029053-0.5193481
		c0.3194504,0.0126038,0.6398392,0.0016785,0.959816,0.0016785c37.7173996-0.000061,75.4347916,0.0006714,113.1521988-0.0072021
		c0.5050354-0.0000916,1.0352631,0.1437378,1.5170746-0.14505
		C187.4070587,276.4211121,187.6014404,278.0057373,187.414566,279.6044006z"></path>
	<path d="M183.1159821,155.2476654c-0.51828-0.0197449-1.0365753-0.0567932-1.5548401-0.0568237
		c-35.8781128-0.0027313-71.7562332-0.0024414-107.6343384-0.0023956c-0.159996,0-0.3200226,0.0022583-0.4799728,0
		c-0.9483566-0.0134125-1.2250671-0.3987885-0.9851151-1.3384552c0.0576935-0.2259369,0.162941-0.3498993,0.3957443-0.3529663
		c0.3598404-0.004715,0.7197266-0.009491,1.0795898-0.009491c35.7181168-0.0004272,71.4362259-0.0000458,107.1543503-0.0038452
		c0.5086365-0.000061,1.0295258,0.0757141,1.5122375-0.0834198c0.0588837-0.4286652-0.2094116-0.4177704-0.4441681-0.4245148
		c-0.3596954-0.0103302-0.7198944-0.0044861-1.0798645-0.0044861c-35.6781311-0.0000916-71.3562393-0.0000916-107.0343628-0.0001373
		c-1.7377014,0-1.77034-0.0558014-1.5965805-1.8079987c0.0419464-0.4230042,0.2042694-0.5534973,0.5881424-0.5357666
		c0.2793655,0.0129089,0.559845,0.0014648,0.8398285,0.0014648c35.7181091-0.0000153,71.4362183-0.0003815,107.1543427,0.0040283
		c0.4756165,0.000061,0.9602051-0.0822754,1.4272766,0.0858154c0.454834,0.5593414,0.1976013,1.26091,0.3302765,1.8877869
		C182.9691315,153.4598389,183.2879486,154.3360443,183.1159821,155.2476654z"></path>
	<path d="M182.6069641,163.9346313c-0.5194702-0.0115509-1.0389404-0.0332031-1.5584106-0.0332336
		c-35.7154541-0.0015564-71.4309006-0.0014038-107.146347-0.0014038c-0.239975,0-0.4831543-0.0249786-0.7192917,0.0051422
		c-0.6061249,0.0773315-0.7936478-0.2148743-0.7226105-0.7649078c0.0050735-0.0393372,0.0000534-0.0799255,0.0006561-0.1199036
		c0.0268707-1.7744751-0.2050781-1.4878235,1.4218292-1.4880829c35.7554474-0.0059357,71.5109024-0.0039825,107.2663498-0.0104675
		c0.4671783-0.0000763,0.9518127,0.1123657,1.4794006-0.1306c-0.4752045-0.3027191-0.9472656-0.1669617-1.3839874-0.16716
		c-19.1175537-0.0084686-38.2351379-0.007309-57.3526917-0.0072937c-16.6778793,0-33.355751,0.0001678-50.0336304-0.0008087
		c-0.3596039,0-0.7215881,0.0103607-1.0781021-0.0263977c-0.3137665-0.0323944-0.3195267-0.2973633-0.3183594-0.5434265
		c0.0010757-0.2272797,0.0871201-0.3900452,0.3348083-0.3995819c0.359314-0.0138702,0.7191849-0.0175781,1.0788193-0.0175934
		c34.9955444-0.0007019,69.9910889-0.0006256,104.9866333-0.0006561c1.3197327,0,2.6394806-0.0004272,3.9592285-0.0006561
		C183.0798187,161.4823608,182.6424103,162.6968842,182.6069641,163.9346313z"></path>
	<path d="M42.4891472,218.90065c0.558815,0.0188904,1.1176262,0.0542755,1.6764412,0.0543213
		c38.0352783,0.0025787,76.0705566,0.0023346,114.105835,0.0023499c0.279953,0,0.5613098-0.0170746,0.8395081,0.0051575
		c0.2576904,0.0206146,0.6200409-0.1373444,0.7275085,0.2245941c0.1244049,0.4189606,0.1255493,0.86763-0.0118713,1.2928619
		c-0.0574341,0.1777344-0.2527924,0.1644592-0.4081268,0.1677399c-0.319809,0.0067749-0.6398468,0.0041199-0.9597778,0.0041199
		c-38.0752792,0.0001068-76.1505585-0.0001526-114.2258301,0.0033569c-0.4635773,0.0000458-0.9405022-0.0673218-1.4225731,0.090332
		c0.0953407,0.3929138,0.3613968,0.3057251,0.5600243,0.314682c0.3592377,0.0162048,0.7197037,0.0051727,1.0796623,0.0051727
		c37.9952888,0.0000458,75.9905548,0.0000305,113.9858398,0.0003967c0.3598633,0,0.7198181,0.0018005,1.0796051,0.0085754
		c0.3218384,0.0060883,0.3804321,0.2237396,0.381424,0.4869385c0.0009766,0.2575531-0.0386963,0.4819946-0.3670044,0.4892731
		c-0.2398224,0.0053253-0.4797363,0.0093079-0.7196198,0.0093079c-38.5552139,0.0011597-77.1104202,0.0019531-115.6656265,0.0013885
		c-0.118927,0-0.2378502-0.0197144-0.3567734-0.0302124c-0.5061226-0.3764954-0.2530556-0.9277039-0.2959175-1.3982544
		C42.4397125,220.0600586,42.4856491,219.4784088,42.4891472,218.90065z"></path>
	<path d="M182.8301392,159.9208221c-36.2789612-0.0005493-72.5579453-0.0010681-108.8369141-0.0017395
		c-0.3599854-0.0000153-0.7199631-0.0022583-1.0799484-0.0031433c-0.274231-0.0006561-0.455452-0.0901031-0.4541092-0.41008
		c0.0012817-0.3046875,0.0332642-0.5679779,0.424408-0.5729218c0.3598785-0.0045471,0.7198105-0.0072021,1.0797195-0.0072021
		c35.7990265-0.0002899,71.5980606-0.0002899,107.3970871-0.0002899c0.4704437,0,0.9408875,0.0000153,1.4324493,0.0000153
		c-0.0590515-0.4578552-0.3357086-0.3369141-0.5191803-0.3499451c-0.3184204-0.0226593-0.6395416-0.0070496-0.9595337-0.0070496
		c-35.7990265-0.0000153-71.598053-0.0000305-107.3970795,0c-0.159996,0-0.320015,0.0023193-0.4799805-0.0000153
		c-0.8744583-0.0128632-1.3010025-0.6824188-0.9493179-1.4658051c0.1058044-0.2356873,0.2929916-0.236908,0.488472-0.2413788
		c0.3198242-0.007309,0.6399384-0.0025482,0.9599304-0.0025482c35.8790131-0.0000153,71.7580414,0.0003967,107.6370697-0.0039825
		c0.5159912-0.0000458,1.0402069,0.0814667,1.5482941-0.0862274
		C183.1540375,157.8312683,183.2328796,158.8983002,182.8301392,159.9208221z"></path>
	<path d="M42.9904327,207.3592072c0.5061531,0.176239,1.03088,0.1033936,1.5475044,0.1034393
		c37.9151268,0.0032806,75.8302612,0.003006,113.7453766,0.003006c1.789505,0,1.7691956-0.0015411,1.6309814,1.7931061
		c-0.0370331,0.4809875-0.2190094,0.6293335-0.6589355,0.5995789c-0.2786865-0.0188293-0.5596924-0.0035248-0.8396454-0.0035248
		c-38.1151047,0-76.2302017-0.0004272-114.3453064,0.004364c-0.5124741,0.000061-1.0432281-0.1082153-1.5315666,0.1565704
		C42.3982811,209.0807495,42.6347313,208.2098389,42.9904327,207.3592072z"></path>
	<path d="M43.1677361,226.5692902c0.3598709-0.0039063,0.7197418-0.011261,1.0796127-0.011261
		c38.0778084-0.0005493,76.1556244-0.0004883,114.233429-0.0005035c0.1999969,0,0.4001007-0.0044556,0.5999603,0.0007477
		c0.7032776,0.0183868,1.144043,0.8643036,0.7754822,1.4865265c-0.0900574,0.1520691-0.2342224,0.1942139-0.4008484,0.1937561
		c-0.3599548-0.0009766-0.7199097,0.0023346-1.0798645,0.0023346c-37.8378296,0.0001221-75.6756516-0.0002289-113.5134735,0.0040131
		c-0.4836693,0.000061-0.9868469-0.0813141-1.4663696,0.0935516c0.0776863,0.3895416,0.3150826,0.3161316,0.4871712,0.3245697
		c0.3591347,0.0176697,0.7196999,0.0067291,1.0796776,0.0067291c37.7978287,0.000061,75.5956497,0.0000763,113.3934784,0.0000763
		c0.2799683,0,0.5599823,0.0014801,0.8399353-0.0003052c0.3677673-0.0023346,0.7322083-0.0434418,0.7073517,0.5266113
		c-0.0251312,0.5767059-0.4230957,0.4649811-0.7648468,0.4752808c-0.2797241,0.0084229-0.5599213,0.0017395-0.8398895,0.0017395
		c-37.9178238,0.0000153-75.83564-0.0000763-113.7534637,0.0007935c-0.5197716,0.0000153-1.0395508,0.0119781-1.5593262,0.0183563
		C43.0464134,228.6512909,43.1070747,227.6103058,43.1677361,226.5692902z"></path>
	<path d="M182.5244141,147.8018951c-0.4790192-0.0141296-0.9580536-0.0405579-1.4370728-0.0405731
		c-35.6735687-0.0019226-71.3471451-0.0017853-107.0207214-0.0017395c-1.7182922,0-1.8493881-0.1717529-1.6159286-1.9241333
		c0.048996-0.3678436,0.1964417-0.4761353,0.5278473-0.466568c0.3596191,0.0103912,0.7197952,0.0013733,1.0797348,0.0013733
		c35.6735687-0.0000763,71.3471527,0.0004272,107.0207214-0.0051422c0.5118256-0.0000763,1.0427856,0.1149597,1.5323181-0.1482849
		C182.6505432,146.0807953,182.7936707,146.948288,182.5244141,147.8018951z"></path>
	<path d="M42.8863678,223.557251c0.5021744,0.2054749,1.0283928,0.1027222,1.5420952,0.1028137
		c37.9537086,0.0055237,75.9074097,0.0050354,113.8611145,0.0050354c1.751709,0,1.8030548,0.0692444,1.6206207,1.7822113
		c-0.0415497,0.3899231-0.1593628,0.5909271-0.5709534,0.5728607c-0.3193207-0.0139923-0.6397552-0.0018616-0.9597015-0.0018616
		c-37.9137192,0.0000458-75.8274384-0.0000458-113.7411499,0.0010834c-0.5197144,0.0000153-1.0394287,0.0155182-1.5591469,0.0238037
		C42.8662834,225.2260742,42.5389023,224.4178467,42.8863678,223.557251z"></path>
	<path d="M186.881485,272.2073975c-0.5103455-0.1468506-1.0334625-0.0843811-1.5509033-0.0844116
		c-37.5464172-0.0028687-75.0928345-0.002655-112.6392441-0.0026245c-1.8199844,0-1.8605881-0.062561-1.6832809-1.8560791
		c0.0421524-0.4263916,0.2068329-0.5500183,0.5914536-0.5342102c0.35923,0.0148315,0.7195892,0.0016479,1.0794525,0.0016479
		c37.4264679-0.000061,74.8529282-0.0000916,112.2793961,0.000061c0.5594482,0,1.1189117,0.0018921,1.6783752,0.0029297
		C187.1744385,270.5137939,186.9191132,271.3713684,186.881485,272.2073975z"></path>
	<path d="M185.5252228,283.1560974c-0.5355377-0.4047241-1.157074-0.2211609-1.73703-0.2214661
		c-19.4387817-0.0106201-38.8775482-0.0088196-58.3163376-0.0088196c-17.678894,0-35.3577805,0-53.0366669,0.0000305
		c-0.159996,0-0.3200226,0.002533-0.4799652-0.0001526c-0.8702393-0.0146484-1.2011185-0.5253601-0.9255371-1.3845215
		c0.078598-0.2451172,0.2356491-0.2946167,0.4421768-0.2984314c0.3598633-0.0066223,0.719902-0.004425,1.0798721-0.004425
		c37.7176361-0.0001221,75.4352646,0,113.1529007-0.0010681c0.5597382,0,1.1194763-0.0145874,1.6792145-0.0223999
		C187.359375,282.2974243,186.8952026,282.7822266,185.5252228,283.1560974z"></path>
	<path d="M182.611908,166.112442c-36.1444702-0.0016632-72.2889481-0.0032959-108.4334183-0.0049438
		c-0.2798843-0.0000153-0.5598526,0.004715-0.8396225-0.000824c-0.9129028-0.0181122-0.8718643-0.0204926-0.8929367-0.9417267
		c-0.0138245-0.6035309,0.2207336-0.7841644,0.7737198-0.728653c0.277092,0.0277863,0.5592728,0.0048828,0.8391571,0.0048828
		c35.6646881,0,71.3293762,0.0002441,106.9940643-0.0020599c0.5187836-0.0000305,1.0375519-0.031311,1.5563354-0.0480194
		C182.7015381,164.9647522,182.6825409,165.538559,182.611908,166.112442z"></path>
	<path d="M42.4446526,210.7724609c0.3749962,0.4532928,0.8922844,0.2684784,1.3481102,0.2698364
		c4.5198517,0.0134735,9.0397606,0.0081482,13.5596504,0.0081482c33.7191887,0,67.438385-0.0000153,101.1575623,0.000061
		c0.3200073,0,0.6401215,0.0072174,0.9599457,0.0003052c0.3966522-0.0085754,0.4402161,0.251358,0.4485168,0.5555725
		c0.0094299,0.3450317-0.1267242,0.5181885-0.4943237,0.4967957c-0.318924-0.0186005-0.6397552-0.0040283-0.9597473-0.0040283
		c-38.1990891,0-76.3981705-0.0003357-114.5972595,0.0037079c-0.5157166,0.000061-1.0413551-0.0843353-1.5457077,0.1057892
		C42.2215195,211.7178192,42.0632706,211.2219849,42.4446526,210.7724609z"></path>
	<path d="M43.3481178,205.7132721c0.5503922,0.1538391,1.1135902,0.0825348,1.6705017,0.0825806
		c37.745594,0.0037384,75.4911804,0.0033722,113.2367859,0.0033875c0.31987,0,0.6400604,0.009079,0.959549-0.0019684
		c0.3961639-0.0136719,0.7145996,0.0173187,0.6936646,0.5555878c-0.0179596,0.4614868-0.28862,0.5005188-0.6400299,0.4904327
		c-0.3196106-0.0091705-0.6396942-0.0014191-0.9595795-0.0014191c-37.9055252,0.0000305-75.8110504-0.0002136-113.7165833,0.0028534
		c-0.5172157,0.0000305-1.0405159-0.0655975-1.5505066,0.0847931
		C42.8736153,206.4560394,43.0613594,206.0721893,43.3481178,205.7132721z"></path>
	<path d="M182.4971466,149.9749603c-0.4397736,0.0043182-0.8795776,0.0123901-1.3193512,0.0124054
		c-35.7492371,0.0005798-71.4984741,0.0005646-107.2477036,0.0002289c-0.3598022,0-0.7196579-0.0018158-1.0793991-0.0079498
		c-0.4180222-0.0071259-0.3821869-0.3117676-0.390686-0.5948792c-0.0091705-0.3058167,0.1428528-0.4278107,0.4334641-0.4251862
		c0.3598328,0.0032806,0.7197189-0.0024261,1.0795898-0.0024261c35.6692581-0.0001526,71.3385239,0.0003662,107.0077896-0.0053406
		c0.5132294-0.0000916,1.0399628,0.1051025,1.5405426-0.1083221
		C182.7229156,149.2251434,182.7505035,149.6030579,182.4971466,149.9749603z"></path>
	<path d="M182.6007843,144.7521515c-0.519516-0.0093079-1.0390015-0.0267334-1.5585175-0.0267487
		c-35.7051239-0.0012512-71.4102631-0.0010986-107.1154022-0.0014648c-0.3597488-0.0000153-0.7195358-0.0029144-1.0792389-0.0087433
		c-0.3147583-0.0050812-0.3867111-0.2064972-0.3919296-0.4768372c-0.0060425-0.3131409,0.045433-0.558609,0.4410934-0.5486908
		c0.319603,0.0080261,0.6396255-0.0013885,0.9594574-0.0013885c35.7451172-0.0001373,71.4902496,0.000412,107.2353668-0.0054626
		c0.5122375-0.000061,1.0407562,0.1116943,1.5365295-0.1250763
		C182.6874084,143.9574585,182.6927643,144.3559113,182.6007843,144.7521515z"></path>
	<path d="M187.1774292,274.339386c-38.1996307-0.0009155-76.3992691-0.0018005-114.5989075-0.0027771
		c-0.359993,0-0.7201691-0.0080872-1.0799332,0.0005493c-0.3603134,0.008667-0.4817047-0.1632385-0.4826202-0.5121155
		c-0.000946-0.3547668,0.1349564-0.5143433,0.4884796-0.5025024c0.2396927,0.0080261,0.4799347-0.0007324,0.7199249-0.0007324
		c38.0396423-0.0001831,76.0792923-0.0002441,114.1189194,0.0006409c0.1995697,0,0.3991241,0.0130615,0.5986938,0.0200195
		C187.3850098,273.5886841,187.2042542,273.9821777,187.1774292,274.339386z"></path>
	<path d="M186.6140747,269.1441956c-0.5180359-0.0223999-1.0360413-0.06427-1.5540771-0.0643311
		c-37.5086823-0.0030518-75.0173645-0.0027466-112.5260544-0.0028687c-0.3598709,0-0.7197647-0.0039063-1.079628-0.0026855
		c-0.2937927,0.0010071-0.4337921-0.1425781-0.4366913-0.4356384c-0.0029373-0.2980957,0.01828-0.5710754,0.4175339-0.5734863
		c0.2398605-0.0014648,0.4797211-0.0058594,0.7195816-0.0058594c37.9885406-0.0002441,75.9770813-0.0002441,113.9656219,0.0004272
		c0.119812,0,0.239624,0.0089111,0.3594208,0.0137024C186.8931427,268.3841248,186.7259979,268.7676086,186.6140747,269.1441956z"></path>
	<path d="M178.7074127,284.3581238c-0.8773346-0.0213928-1.7546539-0.0613708-2.6320038-0.0614319
		c-34.30159-0.0033264-68.6031647-0.0030212-102.904747-0.0031738c-0.3198242,0-0.6516037,0.0541687-0.9565887-0.0131226
		c-0.4219513-0.0931396-1.2044754,0.3811035-1.1676254-0.5167236c0.0357056-0.8699036,0.8007584-0.3432007,1.2274857-0.4637146
		c0.2221451-0.0627747,0.4766235-0.0110168,0.7164917-0.0110168c36.5403824,0,73.0807724,0.0003357,109.6211472-0.0023499
		c0.8778229-0.000061,1.755661-0.0345764,2.6334839-0.053009c-1.1537476,0.657135-2.4707947,0.7002869-3.726944,0.8966675
		C180.6002197,284.2737732,179.6687164,284.6226807,178.7074127,284.3581238z"></path>
	<path d="M182.6448669,167.5258636c-0.3995819,0.0064392-0.7991638,0.0184784-1.1987457,0.0184937
		c-35.8623199,0.0008545-71.7246399,0.0007935-107.5869522,0.0006561c-0.3198395,0-0.6398239-0.0084991-0.9594803-0.0013123
		c-0.3933792,0.0088501-0.4424973-0.2329254-0.4403839-0.5478668c0.0019226-0.2871094,0.1032257-0.4503632,0.4082413-0.448761
		c0.2398224,0.0012512,0.4796677-0.0046997,0.7194977-0.0046844c36.3420181,0.0018311,72.6840439,0.0039063,109.0260696,0.0059662
		C182.9826965,166.8625336,183.0206757,167.1874695,182.6448669,167.5258636z"></path>
	<path d="M70.9842758,285.5258179c-0.0537872-0.6571655,0.0881195-1.0836182,0.909729-0.9618835
		c0.5088196,0.0753784,1.0378799,0.0143433,1.5578461,0.0143433c32.2782364,0,64.5564804-0.0011902,96.8347092,0.0026245
		c2.0361023,0.0002136,4.0722198,0.0395508,6.1083221,0.0606995c-1.0773315,0.4519043-2.2434998,0.3655396-3.3590546,0.4464417
		c-5.2350006,0.3796387-10.4816589,0.483429-15.7301025,0.6026611c-3.780365,0.0858765-7.5616455,0.0887146-11.3414154,0.1819763
		c-0.3962097,0.0097961-0.7935791-0.0282898-1.1903992-0.0441589c-0.3034821-0.3959045-0.7371216-0.2139893-1.1060944-0.2154236
		c-17.1660156-0.0665588-34.3320618-0.0797729-51.4980316,0.0110474c-0.4127426,0.0021973-0.8798599-0.1777649-1.2443695,0.1951904
		c-4.4195633,0.03125-8.838295,0.1226501-13.2564392-0.1491699c-1.7484055-0.1075745-3.5078583-0.0306396-5.2621384-0.0509644
		C71.9323044,285.6137085,71.4489899,285.6964722,70.9842758,285.5258179z"></path>
	<path d="M42.7980766,222.3507233c0.3990631-0.0105286,0.7981339-0.0302887,1.197197-0.030304
		c38.1127434-0.0014191,76.2254944-0.0014038,114.3382416-0.0004883c0.3995514,0.0000153,0.7996521,0.0020447,1.1984711,0.0228729
		c0.314743,0.016449,0.3586731,0.2524872,0.3633881,0.5075684c0.0053864,0.291214-0.125,0.4407349-0.4249115,0.4380188
		c-0.3598938-0.0032501-0.7198334,0.0032654-1.0797577,0.0032654c-37.9927673,0.0001984-75.9855347-0.0000458-113.978302,0.0025635
		c-0.5184746,0.0000305-1.0369492,0.0359497-1.5554237,0.05513
		C42.6700172,223.0263519,42.6877289,222.6912689,42.7980766,222.3507233z"></path>
	<path d="M142.296936,285.8773499c-0.3348541,0.330719-0.7581329,0.1735229-1.1382751,0.1809082
		c-1.7167206,0.0335388-3.4404144-0.0525208-5.1497803,0.0698853c-3.3070831,0.2368164-6.6251068,0.0428772-9.9225082,0.2525635
		c-5.4265671,0.3451538-10.8529053,0.2243042-16.2737503,0.1463928c-4.9359207-0.0709534-9.8666687-0.5042419-14.8103485-0.4700317
		c-0.1669846,0.0011902-0.3116074-0.0446777-0.4194107-0.1793213c0.5570755-0.0168457,1.1142731-0.0517883,1.671196-0.0479126
		c14.3108978,0.0996399,28.6218872,0.046051,42.9328461,0.0315552
		C140.2234802,285.8603516,141.2610626,285.7382202,142.296936,285.8773499z"></path>
	<path d="M97.8830643,83.603035c20.1106262,0,40.2212601,0,60.331871,0
		c0.2798767,0,0.5634613,0.0292511,0.8388977-0.0056915c0.7073975-0.0897446,0.9389038,0.2405853,0.84552,0.8938751
		c-0.0056152,0.0391769-0.0002899,0.0798645-0.0007935,0.1198349c-0.0205078,1.5976486,0.1608429,1.3667297-1.3018036,1.3668823
		c-40.2212524,0.0043182-80.4425049,0.0041275-120.6637497-0.0055008c-0.4138489-0.0000916-0.9426651,0.223175-1.2265358-0.2168503
		c-0.3440132-0.5332489-0.5445213-1.1523438-0.6901283-1.776001c-0.0580521-0.2486191,0.1045876-0.3622818,0.3355751-0.368309
		c0.3596077-0.0093765,0.7195435-0.0079727,1.0793381-0.0079727C57.5818596,83.6030121,77.7324677,83.603035,97.8830643,83.603035z"></path>
	<path d="M38.0582542,88.8543396c0.5032158,0,0.9808502,0,1.4584846,0
		c39.5871735-0.0000076,79.1743393-0.0000153,118.7615051,0c1.7158203,0,1.8713379,0.1973114,1.6273499,1.9084396
		c-0.0514069,0.3603897-0.1951752,0.4781265-0.5273895,0.4690552c-0.3596039-0.0098343-0.7197113-0.0007401-1.0795898-0.0007401
		c-39.3472672,0.0000763-78.6945419,0.0022736-118.0418091-0.0066071c-1.9168167-0.0004272-1.3892708,0.3562546-2.0680962-1.5490723
		C38.1116753,89.4591827,37.9478645,89.2505951,38.0582542,88.8543396z"></path>
	<path d="M40.765667,99.9444885c0.4108772-0.2428589,0.8196983-0.1414795,1.2088776-0.1415405
		c38.9055367-0.005188,77.8110657-0.0048752,116.7166138-0.004425c0.2797699,0,0.5596008,0.0037842,0.8392792,0.0107574
		c0.1694183,0.0042191,0.3359985,0.0674515,0.3411255,0.2500381c0.0167999,0.598259,0.0209351,1.1977615-0.0000763,1.7957306
		c-0.0082245,0.2339478-0.2040253,0.3141251-0.4256439,0.3139801c-0.3598328-0.0002213-0.7196808,0.0034561-1.0795135,0.0034561
		c-38.5456848,0.0001755-77.091362,0.0001678-115.6370392,0.0001678c-1.7456779,0-1.7463951,0.0000687-1.9429932-1.788765
		C40.7698364,100.2340393,40.7717247,100.0821762,40.765667,99.9444885z"></path>
	<path d="M38.9874191,91.8319778c0.3662987-0.1917191,0.771637-0.0914078,1.1603241-0.0914612
		c39.4722061-0.005394,78.9444275-0.0050507,118.4166336-0.0050507c0.1599731,0,0.3227081,0.0191574,0.4794464-0.0034027
		c0.6954956-0.1001205,0.8807983,0.2113037,0.8762512,0.8791046c-0.0042267,0.6264572-0.1916962,0.8794174-0.8182526,0.7976151
		c-0.2359161-0.0308075-0.4792328-0.0049744-0.7191925-0.0049744c-39.1922684,0.0000076-78.3845291,0-117.5767975-0.0000076
		c-0.1599693,0-0.3234901-0.0217667-0.4793053,0.0036621c-0.7807236,0.1274261-1.1965981-0.1889572-1.2745056-0.9824295
		C39.0331917,92.2331772,38.9112244,92.0516968,38.9874191,91.8319778z"></path>
	<path d="M39.9068642,95.21595c0.3744888-0.1980209,0.7812729-0.0994263,1.1714363-0.099472
		c39.1931381-0.0052719,78.3862762-0.0049362,117.5794144-0.0049362c0.1999664,0,0.4016266,0.0171814,0.5995941-0.0026398
		c0.6936646-0.069458,0.6362915,0.3974075,0.6471558,0.8538208c0.0114594,0.4820557,0.0022583,0.8970337-0.6698151,0.8077469
		c-0.2357788-0.0313263-0.4792633-0.0045319-0.7192078-0.0045319c-39.0331802,0.0000381-78.0663452,0.0000763-117.0995178-0.0000305
		C39.9818573,96.7659073,39.9818573,96.765274,39.9068642,95.21595z"></path>
	<path d="M100.5441132,104.3810501c-19.3514252-0.0000153-38.7028465,0.0024948-58.0542488-0.0179825
		c-0.3895836-0.0004196-0.9816246,0.3612137-1.1754303-0.4144821c-0.270771-1.083725-0.1796074-1.2426529,0.9373398-1.2429123
		c10.6752663-0.0024796,21.3505363-0.001503,32.0257988-0.001503c28.027565,0,56.05513,0.0000076,84.0827026,0
		c0.1999054,0,0.3998718-0.0027924,0.5997314,0.0003815c0.8677063,0.0137558,1.2075195,0.536293,0.9215851,1.3784714
		c-0.0810242,0.2386322-0.2335358,0.2930374-0.443634,0.2949448c-0.3198395,0.0028992-0.6396942,0.0029984-0.9595337,0.0029984
		C139.1669922,104.3810959,119.8555527,104.381073,100.5441132,104.3810501z"></path>
	<path d="M37.4706001,87.185112c0.4840927,0,0.9208565,0,1.3576241,0
		c39.9169693,0,79.8339386-0.0000153,119.7509079-0.0000153c0.239975,0,0.4806366,0.0115356,0.7197723-0.0026321
		c0.3694458-0.021904,0.6177368,0.0603561,0.620697,0.5065689c0.0027008,0.4042358-0.148407,0.5917206-0.5654602,0.5625534
		c-0.278595-0.0194778-0.5596924-0.0031662-0.8396759-0.0031586c-39.876976,0.0000229-79.7539597,0.0002899-119.6309433-0.0023804
		C38.2385674,88.2460098,37.4307938,88.4680176,37.4706001,87.185112z"></path>
	<path d="M100.7424164,104.7711945c19.2307739,0.0000076,38.4615479,0.0000076,57.6923218,0.0000687
		c0.3198547,0.0000076,0.6398926,0.0081406,0.9594727-0.0006104c0.3451385-0.0094299,0.5129852,0.1360779,0.5091095,0.4927292
		c-0.0034637,0.318985-0.0799561,0.5480957-0.4595184,0.5419693c-0.3197174-0.0051575-0.6396484,0.0019531-0.9594574,0.0019531
		c-38.5415268,0.000145-77.083046,0.0001678-115.6245651-0.0001907c-0.3196983-0.0000076-0.6404037,0.0099182-0.9588432-0.0115128
		c-0.4078445-0.0274506-0.3480606-0.369873-0.3807793-0.6312485c-0.0422554-0.3375549,0.1919441-0.3883896,0.4504776-0.3913422
		c0.3198013-0.0036621,0.6396675-0.00177,0.959507-0.00177C62.200901,104.7711868,81.4716568,104.7711945,100.7424164,104.7711945z"></path>
	<path d="M35.5595856,82.090683c0.4484978-0.2409821,0.9367332-0.1192474,1.4034004-0.1193161
		c40.5121803-0.0066528,81.024353-0.0061722,121.5365448-0.0059738c0.3199158,0,0.6398926,0.0065155,0.9597473,0.0032349
		c0.303833-0.0031052,0.426712,0.1630249,0.4331512,0.4442368c0.0069122,0.3016739-0.0358734,0.5672531-0.4291992,0.5683289
		c-0.2799072,0.0007553-0.5598145,0.005127-0.8397217,0.005127c-40.5921478,0.0002441-81.1843033,0.0001144-121.7764587,0.001442
		C36.2111855,82.9877853,35.4986801,83.1175613,35.5595856,82.090683z"></path>
	<path d="M100.0791016,97.2074509c19.4794159,0,38.9588318-0.0000229,58.4382324,0.0001526
		c0.3199768,0.0000076,0.6400299,0.0076752,0.9598694,0.0022583c0.30513-0.0051651,0.4164124,0.1521072,0.4178009,0.439209
		c0.0014801,0.3028488-0.0242615,0.5666885-0.425293,0.5612564c-0.2798767-0.0037842-0.5598755,0.0036697-0.8398285,0.0036697
		c-38.9988174,0.0002213-77.9976501,0.0002289-116.9964752,0.0000381c-0.2799759,0-0.5599976,0-0.8399124-0.0048828
		c-0.4571953-0.0079727-0.4731483-0.358139-0.492218-0.6746292c-0.0221901-0.3682709,0.2768974-0.3138351,0.4996758-0.3227539
		c0.3194923-0.0127945,0.6398506-0.0042572,0.9598389-0.0042572
		C61.2002335,97.2074585,80.6396637,97.2074509,100.0791016,97.2074509z"></path>
	<path d="M100.3229065,99.4177322c-19.4388199,0-38.8776398,0.0000153-58.3164558-0.000145
		c-0.3199692-0.0000076-0.6400414-0.0078583-0.9598846-0.0019836c-0.4544067,0.0083389-0.5072365-0.3201065-0.5191574-0.6447906
		c-0.0117722-0.320816,0.2396393-0.3729172,0.493557-0.3792419c0.2798309-0.0069733,0.5599136-0.0046539,0.8398895-0.0046539
		c38.9176331-0.0001602,77.8352661-0.0001526,116.7528992-0.0000687c0.2399902,0,0.480545,0.0122528,0.7198181-0.0005493
		c0.4165802-0.0222778,0.5613403,0.1887207,0.5635986,0.578392c0.0022278,0.3867722-0.220932,0.4596634-0.5379333,0.4531021
		c-0.3198242-0.0066299-0.6399231-0.0001221-0.9598999-0.0001221
		C139.0405273,99.4177399,119.6817169,99.4177246,100.3229065,99.4177322z"></path>
</g>
<g class="" id="estampa-terciaria" fill="#ffff00">
	<path d="M45.3934364,156.8159027c0.8386993,0.014267,1.6773949,0.0405121,2.5161057,0.0409088
		c7.0347328,0.0032196,14.0694656,0.0007172,21.1041985,0.002655c1.0817566,0.0002899,1.0302353,0.0104218,1.0930099,0.8733215
		c0.0534134,0.7342987-0.2643585,0.8516541-0.9012985,0.8480225c-3.9169312-0.0223846-7.8340683-0.0114441-11.7511368-0.0115051
		c-3.6372757-0.000061-7.274559-0.0034637-10.9118195,0.0050507c-0.3802223,0.0008698-0.7898865-0.109314-1.1762009,0.1660309
		c0.4335861,0.3218536,0.8889122,0.1761932,1.3095932,0.1768036c7.3544807,0.0105438,14.7089729,0.0075073,22.0634689,0.0079498
		c0.3196716,0.0000153,0.639389,0.0028381,0.9590149,0.0082245c0.3118744,0.0052643,0.3904724,0.197403,0.3957825,0.473114
		c0.0059738,0.3110504-0.0328979,0.5643463-0.4283142,0.5628967c-0.3196793-0.0011444-0.6393814,0.0059662-0.9590683,0.0059814
		c-7.354496,0.0003967-14.7089882-0.0014954-22.0634804,0.0049438c-0.4213409,0.0003662-0.867054-0.099823-1.3252029,0.1576691
		c0.4339943,0.3641968,0.8853149,0.2062836,1.2918434,0.2069092c7.4344139,0.0115509,14.8688507,0.0059204,22.3032761,0.0156403
		c0.3787308,0.0005035,0.9897537-0.2042847,1.0906296,0.1874237c0.1635284,0.635025,0.0565948,1.3417664,0.0395279,2.0175934
		c-0.0014725,0.0581207-0.1789932,0.1399689-0.2845612,0.1606598c-0.1545792,0.0303192-0.3180466,0.0192261-0.4777222,0.0190735
		c-7.993679-0.0071106-15.9873619-0.0149841-23.9810448-0.0227509c-0.3648109-1.1868134-0.1185417-2.3991394-0.1162109-3.5967865
		C45.1853142,158.3590698,44.9962769,157.553894,45.3934364,156.8159027z"></path>
	<path d="M41.026516,268.0773621c8.7172012-0.0062561,17.4344063-0.0125122,26.1516075-0.0187378
		c0.0799789-0.000061,0.1600113,0.0019226,0.2399292-0.0003662c0.3832397-0.0111694,0.7300262-0.0026855,0.7080154,0.5436096
		c-0.0187607,0.4656067-0.3117447,0.4855957-0.6539764,0.4772034c-0.2397919-0.0059204-0.4798355-0.0012817-0.7197647-0.0012817
		c-8.1976509-0.000061-16.3953018-0.0042419-24.5929184,0.0128174c-0.3890114,0.000824-1.1117058-0.2562256-1.1137924,0.2839355
		c-0.0027771,0.7187195,0.75597,0.3334656,1.1382828,0.3347778c8.2375336,0.0287476,16.4752007,0.0179443,24.7128067,0.0337219
		c0.3984909,0.0007629,1.0250931-0.2727356,1.1613846,0.2645569c0.1515884,0.5975037,0.0387573,1.2674866,0.0017242,1.9036255
		c-0.0089417,0.1535034-0.2217331,0.2079773-0.3887863,0.2093506c-0.3198853,0.002655-0.639801,0.0002136-0.9597092,0.0003662
		c-8.6772461,0.0036926-17.3544922,0.0074768-26.0317345,0.0112305
		C40.5963478,270.7635803,40.75103,269.4153137,41.026516,268.0773621z"></path>
	<path d="M183.7566376,217.271225c-6.7127228,0.0015717-13.4254608,0.0051727-20.1381989,0.0025482
		c-0.9925537-0.0003815-0.9675293-0.0314484-0.9703522-0.9956055c-0.0018311-0.6271973,0.2925415-0.7133636,0.8104706-0.7051392
		c1.3981781,0.022171,2.7969513,0.0079651,4.1954803,0.0079803c4.9947815,0.0000763,9.9895477,0.0028381,14.984314-0.0052795
		c0.4014282-0.0006409,0.8389282,0.1080475,1.3369751-0.2303467c-0.4862671-0.3540344-0.9264374-0.2381744-1.3246918-0.2386932
		c-6.2734375-0.0080872-12.546875-0.0027008-18.8203125-0.0128021c-0.3789673-0.0006104-0.9751282,0.2061157-1.093338-0.1932678
		c-0.1866608-0.6306458-0.1470337-1.3420563,0.0075378-2.0083618c0.0357971-0.1542664,0.2479401-0.1711121,0.4107056-0.1716919
		c0.3196564-0.0011597,0.6393127-0.0025635,0.9589691-0.0028534c6.7126923-0.0056763,13.4253998-0.0112152,20.138092-0.0167999
		C184.2420654,214.2411499,184.0487518,215.7615509,183.7566376,217.271225z"></path>
	<path d="M40.4646835,274.9884338c8.7434731-0.0003662,17.4869423-0.0007019,26.2304153-0.0010376
		c0.1996307-0.0000305,0.4014511,0.0190735,0.5984726-0.0036011c0.5923157-0.0682373,0.9378204,0.1061096,0.8261871,0.7789001
		c-0.0128937,0.0776978-0.0003891,0.1594543-0.0020828,0.2392578c-0.0304184,1.4342041,0.2837296,1.3695984-1.3106232,1.3701477
		c-8.8232918,0.0032349-17.6465836,0.0045471-26.4698715,0.0064697
		C40.2283936,276.5737915,40.3087349,275.7790833,40.4646835,274.9884338z"></path>
	<path d="M45.3974648,145.3955231c7.9163055-0.0041962,15.8326073-0.0100403,23.7489128-0.0103607
		c0.9334641-0.0000458,0.9463959,0.0140076,0.9411011,1.0000763c-0.0082474,1.534668,0.182106,1.3716278-1.3072281,1.3731537
		c-7.796402,0.0079956-15.5928001,0.0110016-23.3892059,0.0157623
		C45.2626648,146.9809265,45.2607956,146.1880493,45.3974648,145.3955231z"></path>
	<path d="M184.4912567,209.9047394c-0.4786987-0.0168304-0.9574127-0.0480652-1.4361267-0.0482941
		c-6.4354401-0.0031738-12.8708954-0.0009155-19.3063354-0.003067c-1.0812225-0.000351-1.0864716-0.0070343-1.0842896-1.1131744
		c0.0027771-1.4063416-0.1339569-1.2732544,1.2944946-1.2736664c6.3954773-0.0019073,12.7909546,0.0000153,19.1864319-0.0022736
		c0.4792175-0.0001831,0.9584351-0.0223541,1.4376526-0.0343018
		C184.9057007,208.2679749,184.5099487,209.079361,184.4912567,209.9047394z"></path>
	<path d="M45.3860168,150.6644287c4.1100273-0.0122375,8.2200394-0.0288391,12.3300781-0.0354156
		c3.7915382-0.006073,7.5830994-0.0037537,11.374649,0.0001526c0.9870605,0.0010223,1.0056686,0.0102844,0.995636,0.9420624
		c-0.0175247,1.6270447,0.2268829,1.3947754-1.3769913,1.3968506c-7.3835258,0.0095367-14.7670822,0.004776-22.1506271,0.0027008
		c-0.3984604-0.0001068-0.7969131-0.0223389-1.1953697-0.0342712
		C45.0451355,152.1759033,45.0492668,151.4185181,45.3860168,150.6644287z"></path>
	<path d="M184.3130035,224.8499756c-6.944931,0.0084686-13.8898773,0.0101776-20.8347321,0.0371857
		c-0.6151733,0.0023804-0.8979034-0.1677094-0.8181152-0.8019562c0.0197754-0.157196,0.0028992-0.3189545,0.0029755-0.4786224
		c0.0006561-1.2218628-0.0722046-1.1094208,1.083725-1.110199c6.6258392-0.0044861,13.2516937-0.0081329,19.877533-0.0120697
		C184.0392456,223.2189331,184.318634,223.9929657,184.3130035,224.8499756z"></path>
	<path d="M45.3207359,153.4394226c0.4780083,0.015686,0.9560089,0.0448151,1.434021,0.0450134
		c7.425293,0.0028687,14.8505974-0.0015717,22.2758675,0.0110016c0.4449844,0.0007477,1.082222-0.2766876,1.0758667,0.6452789
		c-0.0069656,1.011795,0.0233002,1.0454559-1.0445633,1.0463257c-7.9043045,0.0065918-15.808609,0.0090027-23.7129135,0.0127258
		C45.0696297,154.6173096,45.0733261,154.0303192,45.3207359,153.4394226z"></path>
	<path d="M40.3476028,277.8901978c8.950779-0.008667,17.9015541-0.0192566,26.8523331-0.0230713
		c0.9305038-0.0003662,0.8769989,0.0281372,0.9356308,0.926239c0.0547943,0.8391113-0.4444733,0.763916-0.982193,0.7636719
		c-7.9922523-0.0039368-15.9845009-0.0029297-23.9767532-0.0024719c-0.9590378,0.000061-1.9180794,0.0039978-2.8771172,0.006134
		C40.0213547,278.9954224,40.0267944,278.4382629,40.3476028,277.8901978z"></path>
	<path d="M40.43013,281.2585449c8.9437675-0.0070801,17.8875542-0.0071411,26.8312607-0.0349426
		c0.6877747-0.0021362,0.8671494,0.2131653,0.8809128,0.8822021c0.0151825,0.7384644-0.2973557,0.8335876-0.9240646,0.8320923
		c-7.1873055-0.0173645-14.3746758-0.013092-21.5620232-0.0079651c-0.63451,0.0004578-1.2812843-0.0742493-1.8915749,0.1889648
		c-0.8218842-0.144928-1.6114731-0.3931274-2.3450813-0.791626C40.9760742,282.0863037,40.4947662,281.859436,40.43013,281.2585449z
		"></path>
	<path d="M45.339901,164.433075c7.7905388-0.0002747,15.5810776-0.0005341,23.3716164-0.0007935
		c0.0799026,0,0.1598053-0.000412,0.2397156,0.0000153c1.1303101,0.0059814,1.1303177,0.0060272,1.1393509,0.8210449
		c0.0093994,0.847641,0.0093918,0.8531342-1.0819092,0.8536072c-4.9939346,0.0021362-9.9878731,0.0027771-14.9818115,0.0001678
		c-2.876194-0.0014954-5.7523842-0.0101624-8.628582-0.015625C45.0612221,165.5498657,45.0856247,164.9955139,45.339901,164.433075z
		"></path>
	<path d="M183.3507843,220.6777191c-6.3077698-0.0087128-12.6155243-0.0174561-18.9232788-0.0260773
		c-0.2395477-0.0003357-0.4790955,0.0014343-0.7186432,0.000061c-1.0618591-0.0060577-1.2408295-0.226593-1.0620422-1.2471771
		c0.0479126-0.273468,0.1386414-0.4467316,0.4386139-0.4461365c0.2794495,0.0005646,0.5588989-0.0017548,0.8383484-0.0019226
		c6.5475006-0.0037994,13.0950012-0.0074463,19.6425018-0.0111542
		C183.6813965,219.546051,183.5946045,220.1216431,183.3507843,220.6777191z"></path>
	<path d="M185.0465088,228.2177429c-7.1967621,0.0080719-14.3935699,0.0081482-21.5902405,0.0379333
		c-0.6461639,0.0026703-0.8036194-0.2135925-0.8128815-0.820694c-0.009964-0.6509857,0.1421051-0.9024048,0.8572083-0.8986053
		c5.4376068,0.0289459,10.8754425,0.0163879,16.3132019,0.0156708c1.6391602-0.0002136,3.2783356-0.0038605,4.9174957-0.0059204
		C185.0987549,227.053833,185.0834961,227.6337433,185.0465088,228.2177429z"></path>
	<path d="M44.4987907,283.2830811c7.467556,0.0019531,14.9351082,0.0039063,22.4026604,0.0058899
		c0.1198349,0,0.2416458-0.0139465,0.3591309,0.0026245c0.3507996,0.0495605,0.8509521-0.1829529,0.8648071,0.4956665
		c0.0154495,0.7563477-0.5373383,0.5411072-0.9271698,0.5526733c-0.798172,0.0235901-1.5975418,0.0061646-2.3964233,0.0071106
		c-3.2753754,0.0038452-6.5507774,0.0032959-9.8260994,0.0190125c-0.380806,0.0018311-0.7885399-0.1120605-1.2071838,0.1778259
		c1.0420837,0.1941223,2.0380478,0.1650391,3.028595,0.1677246c3.47509,0.0094604,6.9502296,0.0050659,10.4253349-0.0018921
		c0.4993973-0.0010376,1.015564-0.066803,0.8961105,0.70224c-0.6442032,0.3177185-1.325737,0.125885-1.9806213,0.1006165
		c-2.7823524-0.1073608-5.566597-0.2141113-8.3428459-0.4197693c-4.3979187-0.3258057-8.7887344-0.740509-13.109005-1.6843262
		C44.6177788,283.3935547,44.5609703,283.3260498,44.4987907,283.2830811z"></path>
	<path d="M40.5524559,273.333313c8.8691025-0.0041809,17.738205-0.0084534,26.6073112-0.0119629
		c0.1994247-0.0000916,0.3993759,0.0008545,0.5981827,0.0144958c0.3191147,0.0218811,0.3600388,0.2442322,0.3588181,0.5049438
		c-0.0012512,0.2672119-0.0674133,0.475647-0.3796844,0.4891968c-0.2391663,0.010376-0.4789963,0.0070801-0.7185364,0.007019
		c-8.8689499-0.0015259-17.7378998-0.0033875-26.6068459-0.0052185
		C40.3005905,273.9766846,40.2205124,273.6259766,40.5524559,273.333313z"></path>
	<path d="M184.5756378,206.8454285c-6.8392639-0.0009155-13.6785278-0.00177-20.5177917-0.0029602
		c-0.3199158-0.0000458-0.6398621-0.0049744-0.9597778-0.0046997c-0.3886261,0.0003357-0.4442596-0.2495422-0.4375305-0.5613251
		c0.0059662-0.2772064,0.1096649-0.4608002,0.4094696-0.4688568c0.3197021-0.0086212,0.6396942-0.0070038,0.9595642-0.0074921
		c6.838974-0.0104065,13.677948-0.0204926,20.5169373-0.0306091
		C184.7613831,206.1225739,184.9012604,206.4776917,184.5756378,206.8454285z"></path>
	<path d="M184.285553,212.1157684c-6.8371277-0.0051575-13.6743011-0.0030212-20.5113068-0.0352478
		c-0.375061-0.0017853-1.067749,0.3959808-1.114212-0.4416962c-0.0517426-0.9330139,0.7020569-0.5725403,1.1229858-0.5742188
		c6.8769226-0.0273895,13.7539825-0.0281372,20.6309967-0.0348663
		C184.6486816,211.4245758,184.5004578,211.7741089,184.285553,212.1157684z"></path>
	<path d="M45.3969536,148.9853058c7.913929-0.0044556,15.8278542-0.0089722,23.741787-0.0128784
		c0.1997147-0.0000916,0.3994598,0.0058289,0.5991516,0.0104828c0.3386307,0.0078583,0.3508453,0.2445984,0.3517456,0.4957733
		c0.0009308,0.2593079-0.0406265,0.4840698-0.365036,0.497345c-0.2394104,0.0097809-0.4792633,0.0118561-0.7189331,0.0118103
		c-7.8740768-0.0023651-15.7481537-0.0053864-23.6222382-0.008316
		C45.2783737,149.646637,45.282238,149.3152161,45.3969536,148.9853058z"></path>
	<path d="M45.4019852,166.5577393c7.9427185-0.0052948,15.8854408-0.0105591,23.8281555-0.0157776
		c0.119751-0.0000763,0.239769,0.0065155,0.3591843,0.0004883c0.3350677-0.016922,0.5111694,0.1008759,0.5068054,0.4745026
		c-0.0038986,0.3335114-0.0846939,0.5389404-0.4611816,0.5275116c-0.2791138-0.0084686-0.5587463,0.0009155-0.8381424,0.0009003
		c-7.7831306-0.0005798-15.5662689-0.0013123-23.3493996-0.0020294
		C45.2933311,167.2212067,45.303421,166.89151,45.4019852,166.5577393z"></path>
	<path d="M45.4038658,143.716156c7.9101372-0.004837,15.8202744-0.0098114,23.7304115-0.0140076
		c0.1995468-0.0001068,0.3993454,0.0030975,0.5985794,0.0134125c0.3234634,0.0167389,0.360733,0.2433777,0.3605728,0.4996643
		c-0.0001602,0.2589722-0.0451355,0.4829102-0.3673782,0.4967499c-0.2392654,0.0102844-0.4790268,0.0123444-0.7185669,0.0122986
		c-7.8702927-0.0020599-15.7405891-0.0048065-23.6108856-0.0074463
		C45.2825317,144.382431,45.2858887,144.0488739,45.4038658,143.716156z"></path>
	<path d="M185.2580414,229.6547852c-7.2397308,0.0062866-14.4794464,0.0127411-21.7191772,0.0179901
		c-0.1996613,0.0001373-0.4069214,0.0189209-0.59729-0.0266724c-0.3070221-0.0735626-0.2684784-0.3484344-0.2717743-0.5833893
		c-0.0032806-0.2337494,0.1047821-0.3725891,0.3497009-0.3820953c0.119812-0.0046234,0.2397156-0.0111542,0.3595734-0.0110016
		c7.2394562,0.0096588,14.4789429,0.0199127,21.718399,0.0301208
		C185.4124146,228.9741364,185.302124,229.3200226,185.2580414,229.6547852z"></path>
	<path d="M183.4847412,221.9431152c-0.3747711,0.2047882-0.7827759,0.1196899-1.1759644,0.1200409
		c-6.1525269,0.0055695-12.3050385,0.0039978-18.4575653,0.0039063c-0.2397003-0.0000153-0.479599-0.0082092-0.7190552-0.0009155
		c-0.368454,0.0111847-0.4772644-0.1813202-0.4706879-0.5222015c0.0070343-0.3639374,0.1868591-0.4902802,0.5232086-0.4803467
		c0.2794189,0.008255,0.5592651,0.0009766,0.8389435,0.0009613c6.4321594-0.0002289,12.8643188-0.000412,19.296463-0.0006104
		C183.3749695,221.3569946,183.4298553,221.6500549,183.4847412,221.9431152z"></path>
	<path d="M192.3904266,83.6027222c0.0208282,0.2323456,0.0492859,0.3150482,0.0315247,0.3862228
		c-0.5004425,2.0063934-0.5011902,2.0061646-2.555603,2.0061798c-8.6751862,0.0000458-17.3503723,0.0001526-26.0255585,0
		c-0.2797699-0.0000076-0.5597992,0.0041122-0.8392181-0.0062866c-0.1676788-0.0062408-0.3292847-0.0722504-0.3334351-0.2642441
		c-0.0128937-0.5985107-0.0178375-1.1977234-0.0023956-1.7960663c0.0062866-0.2439423,0.2033844-0.3155365,0.4200897-0.3205872
		c0.1997986-0.0046692,0.3997345-0.0052567,0.5995941-0.0052643c9.3548126-0.000145,18.70961-0.0000305,28.0644379,0.0000458
		C191.945694,83.6027222,192.1415253,83.6027222,192.3904266,83.6027222z"></path>
	<path d="M190.3309937,88.9637756c-0.0349731,0.6891327-0.3927002,1.2843628-0.5753174,1.9277344
		c-0.0799866,0.2818146-0.2897949,0.3496628-0.5530396,0.3417969c-0.2396851-0.007164-0.4797363-0.0016022-0.719635-0.0016022
		c-8.1962433,0.0000153-16.3924713,0.0000305-24.5887146-0.0000534c-0.2398834,0-0.4800873-0.0090561-0.7195892,0.0001068
		c-0.335495,0.0128403-0.5348053-0.1075897-0.5123596-0.4750137c0.0024261-0.0397873,0.0015106-0.0801544-0.0020599-0.119873
		c-0.1595459-1.7831192-0.1595917-1.7829132,1.6293335-1.7828979c8.2362213,0.0000839,16.4724579-0.0016479,24.7086639,0.0048294
		C189.427887,88.8591385,189.8703461,88.7675018,190.3309937,88.9637756z"></path>
	<path d="M187.5093231,98.7162476c-0.1490784,2.2948227-0.1490784,2.2948532-2.3709106,2.2948608
		c-7.0368958,0.0000153-14.0737915,0.0000153-21.1107025-0.0000916c-0.2798615,0-0.5599823-0.0086517-0.8395691,0.0000458
		c-0.3347168,0.0104141-0.5353699-0.1131744-0.5269928-0.475975c0.0009308-0.0399399,0.0019073-0.0802383-0.0019836-0.1198807
		c-0.1761627-1.7862396-0.176239-1.7860336,1.6090088-1.7860107c7.3167725,0.0000916,14.6335602-0.0011826,21.9503326,0.0031357
		C186.6495361,98.6325912,187.0908966,98.5651932,187.5093231,98.7162476z"></path>
	<path d="M189.3185577,91.8278885c0.0666656,0.4242554-0.120575,0.7076416-0.1760864,1.0166702
		c-0.0782623,0.4357834-0.3074493,0.6129532-0.7466736,0.5644379c-0.2369537-0.0261688-0.4791412-0.0048523-0.7189789-0.0048523
		c-7.994339,0-15.9886932,0.0012283-23.9830322-0.0013733c-1.0966644-0.0003586-1.0742188-0.0227661-1.0488281-1.0317993
		c0.0142822-0.5677567,0.2804413-0.6423492,0.7478943-0.6417389c8.5538483,0.0111008,17.1077271,0.0121155,25.6615906,0.0185318
		C189.129837,91.7478256,189.2052002,91.7922363,189.3185577,91.8278885z"></path>
	<path d="M175.5600281,95.1106415c3.9199524,0.0001144,7.8400116-0.0138092,11.7595978,0.024231
		c0.3460083,0.0033646,1.0734711-0.4334412,1.0554504,0.4687805c-0.0174103,0.8726349-0.2981873,1.1589127-1.1062164,1.1601563
		c-4.1199493,0.0063248-8.2398834,0.0027924-12.3598328,0.0027237c-3.7599487-0.0000534-7.5199127-0.0083313-11.2798004,0.0080032
		c-0.6219635,0.0027084-1.0549316,0.0197983-1.0157928-0.8542404c0.0333252-0.7441101,0.3352051-0.8228226,0.9468079-0.8198318
		C167.5601044,95.1199951,171.5600739,95.1105118,175.5600281,95.1106415z"></path>
	<path d="M174.7702332,102.7035217c3.6764984,0.0000153,7.3530579-0.0084915,11.0293884,0.0152359
		c0.3140564,0.0020218,0.8697968-0.312912,0.9158478,0.3838272c0.0533142,0.8073044-0.2941284,1.2754364-0.9638062,1.2759247
		c-7.4329224,0.0054169-14.8658752-0.0043259-22.2987061,0.0170975c-0.6417236,0.0018539-0.8059692-0.2022018-0.8146362-0.8160629
		c-0.0092773-0.6588364,0.1646271-0.8965378,0.8627625-0.8907471
		C167.2572632,102.719902,171.0138245,102.7034988,174.7702332,102.7035217z"></path>
	<path d="M191.0010834,87.2213135c-0.0278778,0.7903595-0.3418427,1.0435028-1.0579224,1.0417786
		c-8.8275909-0.0211258-17.6552277-0.0138016-26.4828644-0.0143509c-0.1596069-0.0000076-0.3205261,0.005455-0.4785309-0.0122223
		c-0.3228302-0.0361176-0.3363342-0.2841415-0.3361816-0.5291977c0.0001526-0.2497025,0.0300903-0.4912186,0.3541412-0.5142212
		c0.1987762-0.0141144,0.3990936-0.0087891,0.5987244-0.0087891c8.9474487-0.0000229,17.894928,0.0001831,26.8423767,0.0019302
		C190.5985413,87.1862717,190.7562866,87.2054367,191.0010834,87.2213135z"></path>
	<path d="M177.7111511,82.9869995c-4.6341095,0.000061-9.26828,0.0092163-13.9022522-0.0164032
		c-0.3930664-0.0021667-1.084198,0.341774-1.1259308-0.4482193c-0.0494537-0.936676,0.7363586-0.539093,1.1435852-0.5401382
		c9.3081055-0.0238724,18.6162872-0.0183182,27.9244537-0.0182037c0.1997528,0,0.4016418-0.0176163,0.5987091,0.0055771
		c0.2447968,0.0288086,0.6225891-0.1169739,0.6169434,0.3320007c-0.0049286,0.3915863-0.1498718,0.7053986-0.6341553,0.6877975
		c-0.2792969-0.0101547-0.5592346-0.002449-0.8388824-0.002449
		C186.8994598,82.9869232,182.3052979,82.9869308,177.7111511,82.9869995z"></path>
	<path d="M186.2977142,104.8627853c0.1335754,0.729538-0.1670532,0.9604721-0.9039001,0.9582977
		c-7.2724762-0.0214005-14.5450439-0.012825-21.8175812-0.0134048c-0.1996765-0.0000153-0.4013672,0.0087433-0.5985413-0.0155487
		c-0.2384949-0.0293808-0.3143463-0.205719-0.3166199-0.4255524c-0.0024872-0.2402496-0.026123-0.5097733,0.2855835-0.5680008
		c0.2322845-0.0433807,0.4768829-0.026947,0.7159882-0.0269775c7.3125-0.0009155,14.6249847-0.0011978,21.9374847,0.0024567
		C185.8318176,104.7741623,186.0773315,104.7094879,186.2977142,104.8627853z"></path>
	<path d="M187.883255,97.3186951c0.0770264,0.6918411-0.2410736,0.8987503-0.9103394,0.8870926
		c-1.9983978-0.0348282-3.9978027-0.0124359-5.9968109-0.0124359c-5.7171631,0-11.4343872,0.0095291-17.151413-0.0206833
		c-0.3965607-0.0020905-1.1840973,0.4197311-1.1428986-0.5175247c0.0357971-0.8149872,0.7422943-0.4273834,1.1204071-0.4286652
		c7.6761017-0.0260468,15.3523407-0.0208282,23.0285492-0.0153885
		C187.182251,97.2113419,187.5501709,97.1226654,187.883255,97.3186951z"></path>
</g>
<g class="" id="detalhe-lateral" fill="#ffff00">
	<path d="M180.3169098,283.9697266c-0.3938751-5.0127869-0.5727386-10.0362244-0.8100586-15.0577393
		c-0.282486-5.9776611-0.5378265-11.9543762-0.7411346-17.9355164c-0.1653748-4.8657379-0.3150482-9.7320404-0.4851532-14.597168
		c-0.2554474-7.3048248-0.3230438-14.611908-0.5149689-21.9160767c-0.4473877-17.026535-0.1677856-34.0520782-0.1540527-51.0777435
		c0.0038757-4.8250732,0.1699829-9.658493,0.4935303-14.4725189c0.3222656-4.7945404,0.6694794-9.5894623,1.1401062-14.3773499
		c0.9476013-9.6400223,2.522995-19.1615753,4.9313965-28.5371094c1.2419739-4.834877,2.7194824-9.608345,4.7613068-14.1821518
		c0.1013336-0.2270203,0.0921478-0.5706024,0.4303741-0.6598129l-0.0207214-0.0194473
		c0.2196045,0.4597931-0.0706329,0.8524323-0.1864014,1.2576218c-1.8860931,6.6003571-3.1680298,13.3224106-4.0814209,20.1194611
		c-0.4264069,2.5465698-0.4257202,5.1188202-0.4629211,7.688797c-1.2378235,10.3072052-2.2989655,20.6278992-1.9510498,31.0315857
		c0.0821381,2.4562225,0.7914734,4.8716583,0.4144745,7.3699951c-0.3516235,2.3302765-0.4445953,4.684967-0.4245453,7.0450745
		c0.0559845,6.582428,0.098587,13.1757202-0.1155396,19.7438812c-0.1456757,4.4695435,0.7072906,8.6924438,1.4236298,12.9963837
		c0.8506927,5.1109314,0.9480896,10.2349701,0.2398224,15.3761444c-0.3209076,2.3293762-0.54039,4.6726532-0.8144379,7.008606
		c-0.0490723,0.4181976,0.1008759,0.7893066,0.2301788,1.1618195c1.989563,5.7316895,2.4832916,11.6064911,1.5848999,17.5875092
		c-0.3058167,2.0359802-0.3425293,4.0207977,0.0992279,6.0381927c0.4457397,2.035675,0.5504761,4.1139832,0.5100098,6.1976929
		c-0.1430817,7.3665771,0.683609,14.670929,1.384079,21.9852905c0.2195892,2.2928162,0.3340759,4.5978088,0.3145142,6.9078064
		c-0.0094452,1.1127625-0.4973297,1.8139954-1.5031281,2.1914368
		C184.1745911,283.5326233,182.2864838,283.9595947,180.3169098,283.9697266z"></path>
	<path d="M42.4525146,112.7778625c0.0891304-1.9299164-0.3513565-3.8075333-0.5991211-5.7007065
		c-0.3732796-2.8522339-0.8833809-5.6866074-1.2544365-8.5390854c-0.0882454-0.6783676-0.8202057-1.239563-0.2923431-2.1296234
		c0.9014931,1.8765564,1.3568306,3.8127823,1.9383469,5.6982117c1.892025,6.1343842,3.1134682,12.4154968,4.1846809,18.7393494
		c0.7700386,4.5458832,1.3809853,9.100647,1.8283081,13.6878357c0.4091072,4.1953125,0.7145462,8.3927002,0.9685097,12.6003418
		c1.2914009,21.395874,0.6496124,42.8105927,0.6577225,64.2175446c0.0015144,3.9883881-0.0966606,7.98703-0.1893997,11.9799347
		c-0.1455345,6.2663422-0.2806168,12.5340118-0.535202,18.7964172c-0.1799202,4.4257202-0.3308334,8.8512878-0.473175,13.2781372
		c-0.1807213,5.6206055-0.3782196,11.2443237-0.7604179,16.8535767c-0.2574959,3.7790527-0.196804,7.579834-0.7390556,11.3394775
		c-1.7242279-0.0837708-3.3719635-0.5368042-4.9835625-1.1030884c-1.6184654-0.5686951-2.0121346-1.1141663-1.9840698-2.8423157
		c0.0452156-2.7842407,0.1874161-5.5641479,0.4140472-8.3428955c0.431675-5.2928772,0.7171974-10.5978699,1.1692505-15.8888245
		c0.4074936-4.7694855-0.0650482-9.592804,0.9218788-14.3255157c0.1883888-0.9033813,0.0964546-1.8375397-0.042675-2.744751
		c-0.4781952-3.1182098-0.3503647-6.2133179,0.3311234-9.2835846c0.1949081-0.8781128,0.1388702-1.7289124,0.0771484-2.6109161
		c-0.2841988-4.0611115-0.8382988-8.1011047-0.8580627-12.1838684c-0.0239258-4.942688,1.0864563-9.6556549,2.7438126-14.2636871
		c0.3171997-0.881958,0.5332336-1.7270813,0.4237556-2.675354c-0.1839256-1.5931854-0.141243-3.1873627,0.1506195-4.7743683
		c0.1077003-0.5856476,0.1623573-1.1927948,0.1462173-1.7875824c-0.1308823-4.8229065-0.2779045-9.645401-0.4356956-14.4675293
		c-0.0367355-1.1227112,0.0765038-2.2321014,0.1623611-3.3472748c0.144268-1.8738251,0.1034241-3.7475739-0.048111-5.6235199
		c-0.4092598-5.0663605-0.1779556-10.145752-0.0681305-15.2097778c0.196312-9.0511017-0.2082138-18.0476379-1.5041733-27.0064316
		c-0.2226868-1.5393982-0.3748512-3.0890045-0.5595245-4.6338654c0.5152626-1.2158585-0.2161751-2.3334808-0.3642349-3.4790726
		C42.6969795,115.5973511,42.9329262,114.1476212,42.4525146,112.7778625z"></path>
</g>
</svg>
