<!--?xml version="1.0" encoding="utf-8"?-->
<!-- Generator: Adobe Illustrator 24.2.3, SVG Export Plug-In . SVG Version: 6.00 Build 0)  -->
<svg version="1.1" id="Camada_1" xmlns="http://www.w3.org/2000/svg" xmlns:xlink="http://www.w3.org/1999/xlink" x="0px" y="0px" viewBox="0 0 233 418" style="enable-background:new 0 0 233 418;" xml:space="preserve">
<style type="text/css">
	.st0{fill:#093CBE;}
	.st1{fill:#BE0811;}
	.st2{fill:#71AAD3;}
	.st3{fill:#051C3C;}
	.st4{fill:#051D3C;}
	.st5{fill:#051C3D;}
	.st6{fill:#DE30BD;}
</style>
<g onclick="select(this)" class="" id="c-gola-primaria" fill="#ffffff">
	<path d="M141.8,0.2c0.6,0.5,1.3,0.4,2,0.5c2.1,0.4,4,1.2,5.3,3c1.2,1.6,2.8,2.7,4.2,4.1c-1.3,0-2.6,0.2-3.8,0.4
		c-5.1,0.9-10.3,1.5-15.4,1.9c-3.2,0.2-6.4,0.4-9.6,0.6c-3.6,0.2-7.3,0.5-10.9,0.2c-7.2-0.5-14.5-0.7-21.7-1.8
		c-3.3-0.5-6.5-1-9.8-1.1c1.9-1.7,3.7-3.5,5.3-5.4c1-1.2,2.6-1.4,4.1-1.7c0.7-0.2,1.5,0.1,2.1-0.5c2.1,0,4.2,0,6.2,0
		c0.3,0.3,0.8,0.2,1.1,0.2c2.4,0,4.8,0,7.2,0c0.5,0,1,0.2,1.5-0.2c2.7,0,5.4,0,8.2,0c1.4,0.4,2.9,0.1,4.3,0.2c0.5,0,1.2,0.3,1.7-0.2
		C129.8,0.2,135.8,0.2,141.8,0.2z"></path>
</g>
<g onclick="select(this)" class="" id="c-estampa-primaria" fill="#ffffff">
	<path d="M203.8,32.3c0.2,0.1,0.5,0.2,0.7,0.4c3.7,3.5,7.8,6.7,10.8,11c3.8,5.4,6.5,11.3,8.3,17.7
		c1.7,5.9,2.7,12,3.4,18.1c0.6,4.7,1.5,9.3,2.2,14c0.9,5.7,1.5,11.5,2.8,17.1c0.5,2.1,0.7,4.2,1.2,6.3c0,1,0,1.9,0,2.9
		c-1.4,0.7-3,0.9-4.5,1.2c-9.6,1.8-19.3,3.1-29.1,2.9c-3.1-0.1-6-0.4-8.8-2c-0.9-0.5-2.1-0.2-2.8-1.2c0.3-1.3,0-2.6,0.1-4
		c0.3-2.8,0.9-5.7,0.7-8.5c-0.1-1.7,0-3.4,0.2-5c0.3-2.8,1.3-5.4,1.3-8.2c0-4.2,0.5-8.4,1.4-12.6c0.3-1.6,0.6-3.3,1.9-4.3
		c1.1-0.9,1.8-2,2.5-3.2c2.5-4,3.4-8.6,4.8-13c1.3-4.1,2.3-8.3,2.7-12.6c0.5-5.1,0.2-10.1-0.2-15.2
		C203.5,33.4,203.4,32.8,203.8,32.3z"></path>
	<path d="M0.2,116.3c0.5-1.9,0.8-3.8,1.2-5.7c0.7-3.6,1.3-7.1,1.7-10.7c0.9-6.8,2.8-13.3,4.3-20c0.9-4.3,1.2-8.7,2.2-13
		c1.2-5.3,2.8-10.5,5.2-15.4c3.1-6.5,7.6-12,13.3-16.4c1.1-0.9,2-2.1,3.3-2.7c0.4,0.8,0.4,1.5,0,2.3c-0.1,0.2-0.1,0.4-0.1,0.7
		c0.2,1,0.1,2,0,3C30.9,43.5,31,48.7,32,53.9c0.9,4.8,2.5,9.4,3.9,14.1c1,3.3,2.4,6.3,4.3,9.1c0.9,1.3,1.8,2.8,2.1,4.4
		c0.3,1.3,0.3,2.7,0.6,4c1.3,5.6,1.6,11.4,2.3,17c0.3,2.1,0.2,4.2,0.7,6.3c0.3,1.2,0.9,2.3,0.7,3.5c-0.3,2,0,3.9,0,5.9
		c-0.4,0.4-0.3,1-0.2,1.5c0.1,1.2-0.5,1.6-1.6,1.8c-6.8,1-13.6,1-20.4,0.1c-7.8-1-15.6-2.1-23.3-3.9c-0.3-0.1-0.5-0.1-0.8-0.2
		C0.2,117.1,0.2,116.7,0.2,116.3z"></path>
	<path d="M82.1,7.9c3.3,0.2,6.6,0.7,9.8,1.1c7.2,1.1,14.5,1.3,21.7,1.8c3.6,0.3,7.3,0,10.9-0.2c3.2-0.2,6.4-0.4,9.6-0.6
		c5.2-0.4,10.3-1,15.4-1.9c1.3-0.2,2.5-0.4,3.8-0.4c1.7-0.1,3.1,0.6,4.1,1.8c1.3,1.5,3,2.5,4.7,3.4c9.2,5.2,18.9,9.4,28.7,13.2
		c4.2,1.7,8.2,3.9,12.4,5.7c0.2,0.1,0.4,0.3,0.6,0.4c-0.4,0.5-0.3,1.2-0.3,1.7c0.4,5.1,0.6,10.1,0.2,15.2c-0.4,4.3-1.4,8.5-2.7,12.6
		c-1.4,4.4-2.3,9-4.8,13c-0.7,1.1-1.3,2.3-2.5,3.2c-1.3,1-1.6,2.7-1.9,4.3c-0.8,4.2-1.3,8.4-1.4,12.6c0,2.8-1,5.5-1.3,8.2
		c-0.2,1.7-0.3,3.3-0.2,5c0.2,2.9-0.4,5.7-0.7,8.5c-0.1,1.3,0.1,2.7-0.1,4c-0.4,0.3-0.3,0.7-0.3,1.1c-1.2,10.5-1.5,21-0.9,31.5
		c0.2,3.2-0.1,6.4-0.3,9.6c-0.4,6,0.1,12.1,0.1,18.1c0,2.8-0.1,5.5-0.4,8.3c-0.2,1.9-0.3,3.8,0.1,5.7c0,0.2,0.1,0.5,0.1,0.7
		c-0.3,3.1,0.5,6.1,1.4,9c1.7,6,1.9,12,1.4,18.2c-0.3,3.7-0.8,7.4,0,11.2c0.3,1.3,0.2,2.6,0.1,3.9c-0.4,7.6,0.7,15,1.1,22.6
		c0.2,5.4,0.7,10.8,0.9,16.3c0.1,1.4,0.3,2.8,0.3,4.2c0,2.2-0.2,2.6-2.4,3.2c-4.9,1.5-9.9,2.4-14.9,3c-11.8,1.5-23.8,1.7-35.7,1.8
		c-20.7,0.2-41.4,0.6-62,0.3c-10-0.2-20-1-29.7-3.8c-3.7-1-3.8-1.1-3.6-4.8c0.4-7.1,1-14.1,1.5-21.1c0.2-3.2-0.1-6.4,0.3-9.6
		c0.1-0.6,0.1-1.1,0.2-1.7c0.9-3.2,0.1-6.4-0.1-9.6c-0.2-4.6,0.2-9.2,1.4-13.7c0.4-1.6,0.5-3.1,0.3-4.7c-1.1-8.7-0.9-17.3,1.1-25.9
		c0.3-1.4,0.4-2.9,0.3-4.3c-0.4-4.7,0-9.4-0.2-14.1c-0.2-5.7,0-11.4-0.5-17.1c-0.3-3.6,0.4-7.2,0.3-10.9c-0.3-9.6-0.9-19.2-1.5-28.7
		c0-0.3,0.1-0.7-0.3-1c0.1-2-0.3-3.9,0-5.9c0.2-1.2-0.4-2.3-0.7-3.5c-0.5-2.1-0.4-4.2-0.7-6.3c-0.7-5.7-1-11.4-2.3-17
		c-0.3-1.3-0.3-2.7-0.6-4c-0.3-1.6-1.2-3.1-2.1-4.4c-1.9-2.8-3.4-5.9-4.3-9.1c-1.4-4.7-2.9-9.3-3.9-14.1c-1-5.2-1.1-10.4-0.7-15.6
		c0.1-1,0.2-2,0-3c-0.1-0.3,0-0.4,0.1-0.7c0.4-0.7,0.4-1.5,0-2.3c4.3-2,8.5-4.1,12.9-5.8c7.2-2.8,14.2-5.9,21.2-9.1
		c3.9-1.8,7.4-4,11-6.3c0.4-0.3,0.7-0.6,1-1C78.7,8.8,80.2,7.9,82.1,7.9z"></path>
</g>
<g onclick="select(this)" class="" id="c-estampa-secundaria" fill="#71aad4">
	<path d="M186.9,132.8c-0.3,5.4-0.3,10.8-0.1,16.2c0.1,3.6,0.3,7.1,0.1,10.7c-0.3,4.1-0.5,8.1-0.3,12.2
		c0.2,3.9,0.2,7.8,0.2,11.8c0,2.2-0.5,4.5-0.5,6.7c0,4.9,0.1,9.8,1.6,14.5c2,6.3,2,12.7,1.3,19.2c-0.5,4.1-0.1,8.1,0.3,12.2
		c0.1,1-0.1,1.9-0.1,2.9c-0.1,2.4-0.3,4.8,0.2,7.1c0.6,2.6,0.2,5.2,0.4,7.8c0.5,6,0.9,11.9,1.2,17.9c0.2,3.2,0.6,6.4,0.5,9.7
		c0,1.6-0.3,2.1-1.8,2.5c-4.8,1.6-9.8,2.5-14.9,3.2c-7.1,1-14.2,1.3-21.4,1.5c-7.1,0.2-14.2,0.4-21.3,0.4
		c-19.2,0.1-38.3,0.5-57.5,0.1c-9.7-0.2-19.3-1.2-28.6-4c-0.4-0.1-0.8-0.3-1.2-0.4c-1.2-0.4-1.7-1.2-1.6-2.5
		c0.1-4.6,0.7-9.1,0.9-13.7c0.2-4.4,0.8-8.8,0.8-13.3c0-3.2,0.2-6.3,0.8-9.4c0.2-1.2,0-2.3-0.1-3.4c-0.8-6.5-0.2-12.8,1.5-19.1
		c0.3-0.9,0-1.9-0.1-2.9c-0.4-4.3-0.8-8.5-0.7-12.8c0.1-4.2,0.7-8.4,1.5-12.6c0.4-1.9,0.5-3.9,0.5-5.8c-0.1-4.8,0-9.7-0.1-14.5
		c-0.2-5.9,0-11.8-0.5-17.7c-0.1-1.4,0.3-2.9,0.4-4.3c0.1-6.2-0.1-12.5-0.6-18.7c0-0.5,0-1,0-1.6c0.3,0,0.6,0,1,0
		c45.8,0,91.5,0,137.3,0C186.2,132.7,186.5,132.8,186.9,132.8z"></path>
</g>
<g onclick="select(this)" class="" id="c-estampa-terciaria" fill="#021c3b">
	<path d="M45.1,100.6c0.3,0.9,0,1.9,0.1,2.8c0.1,2.1,0.3,4.3,0.9,6.3c-0.5,0.2-1,0.2-1.5,0.1
		c-9.1-1.5-18.3-2.5-27.5-3.8c-4.8-0.6-9.6-1.3-14.4-1.9C3,101,3.5,98,4.1,95c8.5,1.1,17,2.2,25.5,3.4
		C34.8,99.1,39.9,99.8,45.1,100.6z"></path>
	<path d="M43.6,90.1c0.3,1.8,0.5,3.5,0.7,5.3c0.1,0.6,0,1.2,0,1.8c-1.3,0-2.6,0.1-3.8,0c-12-1.6-24-3.2-36-4.8
		c0.5-3,1.3-6,2.1-8.9c0.3,0,0.6,0,0.9,0.1c11.1,1.5,22.2,3,33.3,4.4C42.5,88.1,43.4,88.6,43.6,90.1z"></path>
	<path d="M38.8,74.9c0.8,1.4,1.6,2.8,2.4,4c1,1.6,1.1,3.1,1.4,4.8c0,0.6-0.3,0.6-0.7,0.6c-2.3,0.3-4.6,0.3-6.9,0.1
		c-8.9-1.1-17.8-2.3-26.7-3.5c-0.4-0.1-0.8,0-0.9-0.6c0.5-2.9,0.9-5.7,1.4-8.6c2.3,0.3,4.6,0.6,6.9,0.9
		C23.3,73.5,30.9,75.2,38.8,74.9z"></path>
	<path d="M11.5,60c5.3,0.7,10.6,1.4,15.9,2.1c2.3,0.3,4.7,0.3,7,1c1,2.9,1.9,5.8,2.9,8.7c-2.9,0.2-5.7,0-8.5-0.4
		c-5.7-0.8-11.5-1.5-17.2-2.2c-0.8-0.1-1.6-0.2-2.1-0.8C9.9,65.7,10.5,62.8,11.5,60z"></path>
	<path d="M189.1,109.8c-0.2-3.1-0.2-6.2,0.7-9.3c4.5-0.6,8.9-1.2,13.4-1.8c8.8-1.2,17.5-2.3,26.3-3.5l0,0
		c0.1,0.1,0.1,0.3,0.2,0.4c0.4,2.9,0.8,5.8,1.2,8.7c-13.7,1.8-27.4,3.6-41.1,5.4C189.5,109.8,189.3,109.8,189.1,109.8z"></path>
	<path d="M190.4,97.6c0.3-3.1,0.1-6.2,0.7-9.2c4-0.5,8.1-1.1,12.1-1.6c8.1-1.1,16.3-2.2,24.4-3.2c0.6,2.6,1,5.3,1.4,8
		c-0.1,0.2-0.1,0.4,0.1,0.6c0,0.2,0,0.3,0,0.5c-8.6,1.2-17.1,2.3-25.7,3.4C199.1,96.5,194.7,97.1,190.4,97.6z"></path>
	<path d="M191.5,85.2c0.3-2.2,0.5-4.5,1.8-6.4c0.7-1.1,2.1-1.8,2.7-3.1c2.4-0.1,4.8-0.5,7.2-0.9c7.6-1,15.3-2,22.9-3
		c0.5,2.7,0.8,5.3,1.1,8.1c0.1,0.8-0.1,1.1-1,1.2c-8.2,1.1-16.4,2.2-24.7,3.3C198.1,84.6,194.9,85.4,191.5,85.2z"></path>
	<path d="M200.8,63.1c3.2-0.5,6.5-0.9,9.7-1.4c4.3-0.6,8.5-1.1,12.8-1.6c1,2.7,1.6,5.4,2.2,8.2c0.1,0.7-0.3,0.8-0.9,0.9
		c-6,0.8-12,1.6-18,2.4c-2.9,0.4-5.8,0.5-8.8,0.6C199.1,69.3,199.7,66.1,200.8,63.1z"></path>
</g>
<path d="M229.1,92.1c-0.1-0.2-0.2-0.3-0.1-0.6C229.2,91.7,229.2,91.9,229.1,92.1z"></path>
<path d="M229.6,95.6c-0.1-0.1-0.1-0.3-0.2-0.4C229.7,95.3,229.7,95.4,229.6,95.6z"></path>
</svg>
