<!--?xml version="1.0" encoding="utf-8"?-->
<!-- Generator: Adobe Illustrator 24.2.3, SVG Export Plug-In . SVG Version: 6.00 Build 0)  -->
<svg version="1.1" id="Camada_1" xmlns="http://www.w3.org/2000/svg" xmlns:xlink="http://www.w3.org/1999/xlink" x="0px" y="0px" viewBox="0 0 229 418" style="enable-background:new 0 0 229 418;" xml:space="preserve">
<style type="text/css">
	.st0{fill:#FD0303;}
	.st1{fill:#0101FC;}
	.st2{fill:#88F14C;}
</style>
<g onclick="select(this)" class="" id="gola-primaria" fill="#009045">
	<path d="M77.9,8c0.6-0.1,1-0.4,1.4-0.8c0.9-0.9,2-1.7,2.7-2.7c1.8-2.5,4.4-3.4,7.3-3.8c0.6-0.1,1.3,0.1,1.9-0.5
		c1.2,0,2.4,0,3.6,0c0.2,0.5,0.6,0.3,0.9,0.3c5.6,0,11.2,0,16.7,0c0.4,0,0.8-0.1,1.1-0.3c7.5,0,15,0,22.6,0c0.1,0.5,0.5,0.3,0.8,0.4
		c1,0.2,2,0.3,2.9,0.4c2,0.3,3.7,1.1,4.9,2.8c1.3,1.7,2.7,3.3,4.6,4.4c1.3,0.6,1.9,1.5,1.8,3c-0.2,3.7-2.1,6.7-4.3,9.6
		c-0.4,0.5-0.7,0.1-1-0.1c-1.8-1.4-3.5-2.8-5.3-4.1c-0.7-0.5-0.7-0.8-0.1-1.5c1.6-1.8,2.9-3.7,3.8-6.1c-2.6,0.2-5,0.4-7.4,0.6
		c-10.8,0.7-21.5,1.8-32.3,1c-6.7-0.5-13.4-1.1-20.1-1.7c-0.4,0-0.9-0.2-1.2,0c-0.3,0.4,0.1,0.8,0.2,1.2c0.8,2,2.1,3.6,3.5,5.1
		c0.4,0.4,0.8,0.8,0.1,1.3c-1.8,1.4-3.6,2.8-5.3,4.3c-0.5,0.4-0.8,0.3-1.2-0.1c-1.9-2.4-3.4-4.9-4.2-7.9C75.8,10.6,76.3,9.1,77.9,8z
		"></path>
</g>
<g onclick="select(this)" class="" id="detalhe-punho" fill="#005425">
	<path d="M227.8,108.4c0.6,0.8,0.4,1.7,0.7,2.6c0.1,0.4,0.1,0.9,0.4,1.3c0,1.3,0,2.6,0,3.8c-2.6,1.5-5.5,2-8.4,2.9
		c-9.3,2.7-18.8,3.3-28.3,2.8c-2.1-0.1-4.1-0.3-6.2-0.9c-0.5-0.2-1-0.4-1.5-0.7c-0.3-2.5,0.4-4.9,0.5-7.4c3.8,0.7,7.6,1,11.4,1
		c2.5,0,5,0.2,7.4-0.2c3.1-0.5,6.1-1,9.2-1.6C218.1,111.2,223,109.8,227.8,108.4z"></path>
	<path d="M0.2,114.7c0.5-1.2,0.4-2.5,0.7-3.7c0.1-0.4,0-0.9,0.4-1.2c0.3,0.1,0.6,0.3,0.9,0.4c6.3,2.3,12.8,3.4,19.4,4.1
		c3.4,0.3,6.9,0,10.3,0c1.8,0,3.5-0.1,5.3-0.3c1.4-0.2,3,0.1,4.3-0.8c0.4-0.3,0.6,0.1,0.8,0.4c0.4,0.8,0.2,1.7,0.6,2.4
		c0,1.5,0.6,3,0.3,4.5c-2.7,1.3-5.6,1.7-8.5,1.8c-9.4,0.4-18.7,0.1-27.8-2.1c-2.3-0.6-4.5-1.1-6.7-2.2
		C0.2,116.9,0.2,115.8,0.2,114.7z"></path>
</g>
<g onclick="select(this)" class="" id="estampa-primaria" fill="#009045">
	<path d="M42.9,115.9c-0.4-0.8-0.2-1.7-0.6-2.4c-0.2-0.3-0.4-0.7-0.8-0.4c-1.3,0.9-2.9,0.6-4.3,0.8c-1.7,0.2-3.5,0.3-5.3,0.3
		c-3.4,0.1-6.9,0.4-10.3,0c-6.6-0.7-13.1-1.7-19.4-4.1c-0.3-0.1-0.6-0.3-0.9-0.4c1.8-9.5,2.7-19.1,4.3-28.7
		C6.5,76,6.8,70.8,7.9,65.7c1.7-8.1,4.5-15.7,9.4-22.5c2.1-2.9,4.6-5.5,7.4-7.8c1.3-1.1,2.3-2.5,3.8-3.3c3.6-1.9,7.3-3.7,11-5.3
		c10-4.1,20.1-8.2,29.6-13.5c1.9-1.1,3.9-2.1,5.4-3.8c0.8-1,2-1.6,3.4-1.6c-1.7,1.2-2.1,2.6-1.5,4.9c0.8,2.9,2.3,5.5,4.2,7.9
		c0.4,0.5,0.7,0.6,1.2,0.1c1.8-1.4,3.5-2.9,5.3-4.3c0.7-0.6,0.3-0.9-0.1-1.3c-1.4-1.5-2.7-3.2-3.5-5.1C83.4,9.8,83,9.3,83.4,9
		c0.3-0.3,0.8-0.1,1.2,0c6.7,0.6,13.4,1.2,20.1,1.7c10.8,0.8,21.6-0.2,32.3-1c2.4-0.2,4.8-0.4,7.4-0.6c-0.9,2.4-2.2,4.3-3.8,6.1
		c-0.5,0.6-0.6,0.9,0.1,1.5c1.8,1.3,3.6,2.7,5.3,4.1c0.3,0.2,0.6,0.6,1,0.1c2.2-2.8,4-5.8,4.3-9.6c0.1-1.5-0.5-2.4-1.8-3
		c1.8-0.1,3,1,4,2.2c0.3,0.4,0.7,0.7,1.1,1c10,6.5,21.2,10.6,32.2,15.2c4,1.7,7.8,3.6,11.7,5.3c1.6,0.7,2.7,2.3,4.2,3.3
		c3.1,2.3,5.8,5.1,8.2,8.2c4.8,6.4,7.6,13.7,9.3,21.5c0.6,2.9,1.2,5.8,1.5,8.7c0.6,5.8,2.3,11.3,3.4,17c1.1,5.9,1.9,11.8,2.9,17.7
		c-4.9,1.4-9.7,2.8-14.7,3.7c-3.1,0.5-6.1,1-9.2,1.6c-2.4,0.4-4.9,0.2-7.4,0.2c-3.8,0-7.6-0.2-11.4-1c0.4-4.4,1.3-8.8,2.2-13.1
		c0.5-2.6,1.2-5.1,1.8-7.7c-0.4,0.4-0.6,0.8-0.8,1.2c-1.8,4.1-3,8.4-4.2,12.8c-2.4,8.9-3.8,18-4.8,27.2c-0.6,5.2-0.9,10.4-1.2,15.7
		c-0.3,4.9-0.5,9.9-0.5,14.8c0,16.9-0.3,33.9,0.2,50.8c0.2,7.3,0.3,14.6,0.5,21.9c0.2,4.9,0.3,9.7,0.5,14.6c0.2,6,0.5,12,0.7,17.9
		c0.2,5,0.4,10,0.8,15.1c-7.7,1.1-15.4,1.4-23.1,1.5c-12.9,0.2-25.9,0.6-38.8,0.9c-6.8,0.2-13.5-0.5-20.2-0.6
		c-8.7-0.1-17.4-0.2-26.1-0.4c-8.3-0.2-16.6-0.4-24.8-1.8c0.5-3.8,0.5-7.6,0.7-11.3c0.4-5.6,0.6-11.2,0.8-16.9
		c0.1-4.4,0.3-8.9,0.5-13.3c0.3-6.3,0.4-12.5,0.5-18.8c0.1-4,0.2-8,0.2-12c0.1-14.3,0.1-28.5,0.1-42.8c0-2.2,0-4.5-0.1-6.7
		c-0.3-6.3-0.3-12.7-0.9-19c-0.2-2.5-0.3-4.9-0.5-7.4c-0.6-4.9-1.1-9.9-2-14.7c-1.1-6-2.2-12-3.9-17.8c-0.7-2.2-1.2-4.4-2.2-6.6
		c-0.6,0.9,0.2,1.4,0.2,2.1c0.4,3.4,1.1,6.7,1.4,10.1C42.3,111,43.1,113.4,42.9,115.9z"></path>
</g>
<g onclick="select(this)" class="" id="detalhe-lateral" fill="#005425">
	<path d="M180.3,284c-0.4-5-0.6-10-0.8-15.1c-0.3-6-0.5-11.9-0.7-17.9c-0.2-4.9-0.3-9.7-0.5-14.6
		c-0.3-7.3-0.3-14.6-0.5-21.9c-0.4-16.9-0.2-33.9-0.2-50.8c0-4.9,0.2-9.9,0.5-14.8c0.3-5.2,0.7-10.5,1.2-15.7
		c1-9.2,2.5-18.3,4.8-27.2c1.1-4.3,2.4-8.6,4.2-12.8c0.2-0.4,0.4-0.8,0.8-1.2c-0.6,2.6-1.3,5.1-1.8,7.7c-0.9,4.3-1.8,8.7-2.2,13.1
		c-0.1,2.5-0.7,4.9-0.5,7.4c-1.3,10.3-2.3,20.7-2,31.2c0.1,2.4,0.8,4.8,0.4,7.3c-0.3,2.3-0.4,4.7-0.4,7c0.1,6.6,0.1,13.2-0.1,19.7
		c-0.1,4.5,0.7,8.7,1.4,13c0.9,5.1,1,10.2,0.2,15.4c-0.3,2.3-0.5,4.7-0.8,7c0,0.4,0.1,0.8,0.2,1.2c2,5.7,2.5,11.6,1.6,17.6
		c-0.3,2.1-0.3,4.2,0.1,6.3c0.4,2,0.5,4,0.5,6c-0.1,7.4,0.7,14.7,1.4,22c0.2,2.3,0.3,4.6,0.3,6.9c0,1.1-0.5,1.8-1.5,2.2
		C184.2,283.5,182.3,284,180.3,284z"></path>
	<path d="M42.9,115.9c0.2-2.5-0.6-4.9-0.9-7.4c-0.4-3.4-1-6.7-1.4-10.1c-0.1-0.7-0.8-1.2-0.2-2.1
		c0.9,2.2,1.5,4.4,2.2,6.6c1.8,5.8,2.9,11.8,3.9,17.8c0.9,4.9,1.4,9.8,2,14.7c0.3,2.4,0.3,4.9,0.5,7.4c0.6,6.3,0.6,12.6,0.9,19
		c0.1,2.2,0.1,4.5,0.1,6.7c0,14.3,0,28.5-0.1,42.8c0,4-0.1,8-0.2,12c-0.1,6.3-0.3,12.5-0.5,18.8c-0.2,4.4-0.3,8.8-0.5,13.3
		c-0.2,5.6-0.4,11.2-0.8,16.9c-0.3,3.8-0.2,7.6-0.7,11.3c-1.7-0.1-3.4-0.5-5-1.1c-1.6-0.6-2-1.1-2-2.8c0-2.8,0.2-5.6,0.4-8.3
		c0.4-5.3,0.7-10.6,1.2-15.9c0.4-4.8-0.1-9.6,0.9-14.3c0.2-0.9,0.1-1.8,0-2.7c-0.5-3.1-0.3-6.2,0.3-9.3c0.2-0.9,0.1-1.7,0.1-2.6
		c-0.3-4.1-0.9-8.3-0.9-12.4c0-4.8,1.1-9.4,2.7-13.9c0.3-1,0.6-1.9,0.4-2.9c-0.2-1.5-0.1-3,0.1-4.5c0.1-0.6,0.2-1.3,0.2-1.9
		c-0.4-4.8-0.1-9.7-0.4-14.5c-0.1-1.1,0.1-2.2,0.2-3.3c0.1-1.9,0.1-3.7,0-5.6c-0.4-6.8-0.1-13.6,0-20.4c0.1-7.3-0.6-14.6-1.6-21.9
		c-0.2-1.5-0.4-3.1-0.6-4.6C43.5,118.9,43,117.4,42.9,115.9z"></path>
</g>
<g onclick="select(this)" class="" id="estampa-secundaria" fill="#005425">
	<path d="M99.6,60.4c-2.2,4.1-4.3,8.1-6.4,12.1c-6.5,12.3-13,24.5-19.5,36.8c-1.3,2.5-2.7,5-3.9,7.5
		c-0.6,1.2-1.5,1-2.4,1c-0.6,0-0.2-0.5-0.1-0.7c0.5-1,1.1-2.1,1.6-3.1c7.6-14.4,15.3-28.8,22.9-43.3c1.6-3,3.2-5.9,4.7-8.9
		C97.4,60.1,97.4,60.1,99.6,60.4z"></path>
	<path d="M155.3,117.8c-1.2,0.2-1.1-0.2-0.7-1.1c9.5-18,19.1-35.9,28.6-53.9c0.3-0.6,0.7-1.3,1-1.9
		c0.2-0.3,0.4-0.7,0.8-0.6c0.5,0.1,1.2-0.3,1.6,0.2c0.3,0.4-0.3,0.9-0.5,1.3c-9.7,18.4-19.4,36.7-29.2,55.1
		C156.6,117.6,156.2,118,155.3,117.8z"></path>
	<path d="M108.1,60.4c-1.6,3-3.1,5.9-4.7,8.8c-6.9,13.1-13.8,26.1-20.8,39.2c-1.5,2.9-3.1,5.8-4.6,8.7
		c-0.3,0.6-1.8,1.1-2.4,0.7c-0.5-0.3,0-0.6,0.1-0.9c1.8-3.5,3.7-6.9,5.5-10.4c7.1-13.4,14.3-26.9,21.4-40.3c0.8-1.4,1.5-2.8,2.2-4.2
		C105.9,60.2,105.9,60.2,108.1,60.4z"></path>
	<path d="M178.9,60.3c-1.9,3.7-3.8,7.2-5.6,10.7c-7.6,14.4-15.3,28.8-22.9,43.2c-0.5,0.9-1,1.9-1.5,2.9
		c-0.1,0.3-0.2,0.7-0.6,0.7c-0.6,0-1.4,0.2-1.7-0.1c-0.4-0.3,0.2-0.9,0.4-1.3c9.7-18.4,19.5-36.7,29.1-55.1
		C176.7,59.9,177.7,60.4,178.9,60.3z"></path>
	<path d="M91.8,60.4c-1.7,3.3-3.4,6.4-5,9.5c-8.3,15.6-16.5,31.1-24.7,46.7c-0.3,0.5-0.3,1.2-1.2,1.2
		c-0.5,0-1.2,0.3-1.5-0.2c-0.3-0.4,0.3-0.9,0.5-1.3c9.7-18.3,19.3-36.5,29-54.8C89.5,60.2,90.4,60.1,91.8,60.4z"></path>
	<path d="M101.9,229.7c-1.3,0-1.3,0-0.7-1.2c6.6-12.4,13.2-24.9,19.8-37.3c3.2-6,6.3-11.9,9.5-17.9
		c0.2-0.4,0.3-1,0.9-1.1c0.6-0.1,1.4-0.2,1.7,0.1c0.4,0.3-0.2,0.9-0.4,1.3c-9.7,18.4-19.5,36.8-29.2,55.1
		C103,229.5,102.6,229.9,101.9,229.7z"></path>
	<path d="M118.3,117.8c-1.4,0-1.5,0-0.8-1.3c9.4-17.7,18.8-35.5,28.2-53.2c0.4-0.8,0.9-1.6,1.3-2.4
		c0.1-0.3,0.2-0.6,0.6-0.6c0.6,0,1.4-0.2,1.7,0.1c0.5,0.4-0.2,0.9-0.4,1.3c-9.7,18.3-19.4,36.7-29.1,55
		C119.4,117.4,119.1,118.1,118.3,117.8z"></path>
	<path d="M191.2,60.2c-1.6,3-3,5.7-4.4,8.3c-5.6,10.6-11.2,21.2-16.9,31.8c-2.9,5.4-5.8,10.9-8.6,16.3
		c-0.2,0.4-0.3,0.9-0.8,1c-0.6,0.2-1.4,0.3-1.8-0.1c-0.4-0.3,0.2-0.9,0.4-1.3c9.7-18.4,19.5-36.7,29.1-55.1
		C189,59.9,189.9,60.4,191.2,60.2z"></path>
	<path d="M137.3,60.4c-1.2,2.3-2.4,4.6-3.6,6.9c-8.5,16.1-17,32.2-25.5,48.2c-0.2,0.4-0.4,0.8-0.7,1.3
		c-0.5,0.9-1.4,1.3-2.4,1c-0.6-0.2-0.2-0.6,0-0.8c1.4-2.6,2.8-5.2,4.2-7.8c7.2-13.5,14.3-27.1,21.5-40.6c1.2-2.3,2.4-4.5,3.6-6.8
		C135.1,60.1,135.1,60.1,137.3,60.4z"></path>
	<path d="M102,117.8c-1.4,0-1.4,0-0.8-1.1c9-17,18-34,27.1-51.1c0.8-1.4,1.5-2.9,2.3-4.3c0.5-0.9,1.5-1.3,2.4-1
		c0.6,0.2,0.1,0.6,0,0.8c-1.5,2.8-2.9,5.6-4.4,8.4c-7.1,13.3-14.1,26.7-21.2,40c-1.3,2.4-2.6,4.9-3.9,7.3
		C103.1,117.5,102.7,118,102,117.8z"></path>
	<path d="M104.7,229.5c1.3-2.4,2.5-4.8,3.8-7.2c8.6-16.3,17.3-32.6,25.9-49c0.5-0.9,1-1.3,2-1.2
		c0.8,0.1,0.9,0.2,0.5,0.9c-1.9,3.6-3.8,7.2-5.7,10.8c-7.8,14.8-15.7,29.6-23.5,44.4C106.8,229.9,106.8,229.9,104.7,229.5z"></path>
	<path d="M151.2,117.8c-1.2,0.2-1.2-0.2-0.7-1.1c9.8-18.5,19.6-37,29.4-55.4c0.2-0.4,0.3-1,0.9-1c0.6,0,1.3-0.3,1.6,0.1
		c0.4,0.4-0.2,0.9-0.5,1.4c-9.7,18.3-19.3,36.5-29,54.8C152.5,117.3,152.2,118.2,151.2,117.8z"></path>
	<path d="M64.3,229.7c-1.2,0.2-1.2-0.2-0.7-1.1c9.7-18.4,19.5-36.7,29.2-55.1c0.3-0.5,0.3-1.2,1-1.3
		c0.6-0.1,1.3-0.3,1.7,0.1c0.3,0.4-0.3,0.9-0.5,1.4c-8.2,15.6-16.5,31.2-24.7,46.8c-1.5,2.8-2.9,5.5-4.4,8.3
		C65.6,229.4,65.2,229.9,64.3,229.7z"></path>
	<path d="M118.2,229.7c-1.3,0-1.3,0-0.7-1.2c8.1-15.3,16.2-30.6,24.3-45.9c1.7-3.2,3.4-6.4,5.1-9.5
		c0.4-0.8,1.5-1.2,2.3-0.9c0.7,0.3,0.1,0.7,0,0.9c-1.5,2.9-3,5.7-4.5,8.6c-7.8,14.8-15.6,29.5-23.5,44.3c-0.5,0.9-1,1.7-1.4,2.6
		C119.4,229.4,119,229.9,118.2,229.7z"></path>
	<path d="M143.5,229.7c-1.4,0-1.4,0-0.8-1.3c9.8-18.4,19.6-36.9,29.3-55.3c0.6-1.1,1.5-0.9,2.3-0.9
		c0.6,0.1,0.2,0.5,0.1,0.8c-0.8,1.6-1.7,3.2-2.5,4.8c-9,17-18,33.9-26.9,50.9C144.6,229.4,144.3,230,143.5,229.7z"></path>
	<path d="M66.8,229.7c1.8-3.5,3.5-6.7,5.2-9.9c8.2-15.5,16.4-30.9,24.6-46.4c0.2-0.4,0.3-1,0.8-1.1
		c0.6-0.2,1.4-0.3,1.8,0.1c0.3,0.3-0.2,0.9-0.4,1.3c-9.7,18.3-19.4,36.7-29.1,55C69.1,230,68.1,229.6,66.8,229.7z"></path>
	<path d="M72.4,117.8c-1.1,0.2-1.3-0.1-0.8-1C81,99.1,90.3,81.5,99.6,64c0.5-1,1-2,1.6-3c0.2-0.3,0.3-0.7,0.7-0.7
		c0.6,0,1.3-0.2,1.6,0.1c0.4,0.4-0.2,0.9-0.4,1.3c-9.7,18.4-19.4,36.8-29.2,55.1C73.6,117.6,73.2,118,72.4,117.8z"></path>
	<path d="M108.4,117.7c2-3.9,4-7.6,6-11.4c7.8-14.7,15.6-29.4,23.4-44.1c0.2-0.4,0.4-0.8,0.6-1.2
		c0.4-0.7,1.7-1.1,2.4-0.8c0.6,0.3,0,0.6-0.1,0.9c-1.3,2.4-2.5,4.8-3.8,7.2c-8.5,16-16.9,31.9-25.4,47.9
		C110.6,117.9,110.6,118,108.4,117.7z"></path>
	<path d="M108.5,229.5c0.5-0.9,1-1.9,1.4-2.8c9.4-17.8,18.9-35.7,28.3-53.5c0.1-0.3,0.3-0.6,0.5-0.8
		c0.6-0.5,1.5-0.4,2-0.1c0.4,0.3-0.1,0.8-0.4,1.2c-9.6,18.2-19.3,36.5-29,54.7C110.6,229.9,110.6,229.9,108.5,229.5z"></path>
	<path d="M95.8,60.4c-0.7,1.3-1.3,2.5-1.9,3.6c-9.2,17.4-18.4,34.8-27.6,52.2c-0.4,0.8-0.6,1.8-2,1.7
		c-1.3-0.1-1.3,0-0.7-1.1c1.9-3.6,3.8-7.2,5.7-10.8c7.8-14.7,15.5-29.3,23.3-44C93.6,60.2,93.6,60.2,95.8,60.4z"></path>
	<path d="M143.4,117.8c-1.4,0-1.4,0-0.8-1.2c7.9-15,15.9-30,23.9-45c1.9-3.5,3.7-7,5.6-10.5c0.4-0.8,1.6-1.2,2.3-0.8
		c0.6,0.3,0.1,0.7-0.1,1c-1.3,2.5-2.6,4.9-3.9,7.3c-8.5,16-17,32.1-25.5,48.1C144.6,117.4,144.3,118,143.4,117.8z"></path>
	<path d="M76.7,229.7c-1.4,0-1.4,0-0.8-1.1c9.8-18.5,19.6-37,29.4-55.5c0.6-1.1,1.5-1,2.3-0.8c0.7,0.1,0.1,0.6,0,0.9
		c-1.5,2.9-3.1,5.9-4.6,8.8c-6.8,12.9-13.7,25.8-20.5,38.7c-1.4,2.7-2.9,5.4-4.3,8.2C77.9,229.4,77.5,229.9,76.7,229.7z"></path>
	<path d="M113.9,117.8c-1.3,0-1.3,0-0.7-1.2c7.9-15,15.9-29.9,23.8-44.9c1.8-3.5,3.7-6.9,5.5-10.4
		c0.6-1.2,1.4-1.1,2.4-1c0.7,0.1,0.3,0.5,0.1,0.8c-0.6,1.1-1.1,2.1-1.7,3.2c-9.3,17.5-18.5,35-27.8,52.4
		C115.2,117.4,114.8,118,113.9,117.8z"></path>
	<path d="M60.4,229.7c-1.4,0-1.4,0-0.8-1.2c8.4-15.9,16.8-31.7,25.2-47.6c1.4-2.6,2.8-5.2,4.1-7.9
		c0.6-1.2,1.5-1,2.3-0.9c0.7,0.1,0.2,0.6,0.1,0.8c-0.9,1.8-1.9,3.6-2.8,5.4c-8.9,16.8-17.7,33.5-26.6,50.2
		C61.6,229.4,61.2,229.9,60.4,229.7z"></path>
	<path d="M72.3,229.7c-1.3,0.2-1-0.4-0.6-1.1c9.4-17.8,18.8-35.5,28.2-53.3c0.4-0.7,0.8-1.5,1.2-2.2
		c0.2-0.3,0.3-0.6,0.6-0.7c0.6-0.2,1.4-0.3,1.8,0.1c0.4,0.3-0.2,0.9-0.4,1.2c-9.7,18.4-19.5,36.8-29.2,55.3
		C73.6,229.6,73.1,229.8,72.3,229.7z"></path>
	<path d="M114,229.7c-1.4,0-1.4,0-0.8-1.1c9.8-18.5,19.6-37,29.3-55.5c0.6-1.1,1.4-1,2.3-0.9c0.8,0.1,0.2,0.7,0,1
		c-1.8,3.5-3.7,7-5.5,10.5c-7.9,14.9-15.8,29.8-23.6,44.6C115.3,229,115.1,230,114,229.7z"></path>
	<path d="M177.5,172.4c0,0.6,0,1.3,0,1.9c-0.7,2.1-1.9,4-3,6c-8.4,15.9-16.8,31.8-25.3,47.7c-0.5,1-0.9,1.9-2.4,1.7
		c-0.8-0.1-0.7-0.3-0.4-0.9c2.1-3.9,4.1-7.8,6.2-11.7c7.7-14.6,15.5-29.3,23.3-43.9C176.2,172.8,176.4,171.7,177.5,172.4z"></path>
	<path d="M177.5,178.2c0,1.1,0,2.2,0,3.4c-1.1,2.8-2.6,5.4-4.1,8c-6.9,13-13.8,26.1-20.7,39.1c-0.3,0.5-0.4,1.1-1.1,1.1
		c-0.5-0.1-1.2,0.3-1.5-0.2c-0.3-0.4,0.3-0.9,0.5-1.3c8.7-16.5,17.4-32.9,26.1-49.4C176.9,178.6,176.9,178,177.5,178.2z"></path>
	<path d="M42.9,104.5c-0.3-0.9-0.7-1.7-0.7-2.6c5.5-10.4,11-20.8,16.6-31.2c1.7-3.2,3.4-6.3,5.1-9.5
		c0.4-0.7,1.6-1.2,2.3-0.8c0.6,0.3,0.1,0.6,0,0.9c-1.3,2.5-2.6,4.9-3.9,7.3c-6.2,11.7-12.4,23.4-18.6,35
		C43.5,103.9,43.5,104.4,42.9,104.5z"></path>
	<path d="M177.5,186.1c0,1.1,0,2.3,0,3.4c-0.7,2.2-1.9,4-2.9,6c-5.8,11-11.6,21.9-17.4,32.9c-0.5,0.9-0.9,1.5-2.1,1.4
		c-0.9-0.1-0.9-0.3-0.5-1c1.9-3.5,3.8-7.1,5.6-10.6c5.5-10.4,11-20.8,16.5-31.1C176.9,186.7,176.9,186.1,177.5,186.1z"></path>
	<path d="M120.9,60.4c-0.9,1.8-1.9,3.6-2.8,5.4c-9,17-18,33.9-26.9,50.9c-0.1,0.3-0.3,0.5-0.4,0.7
		c-0.3,0.6-1,0.5-1.4,0.3c-0.6-0.3,0-0.7,0.2-1c7.5-14.2,15.1-28.5,22.6-42.7c2.3-4.2,4.5-8.5,6.7-12.7
		C119.3,60.4,119.8,60,120.9,60.4z"></path>
	<path d="M134.9,117.7c1.5-2.8,2.9-5.5,4.4-8.3c6.7-12.7,13.5-25.4,20.2-38.1c1.8-3.3,3.5-6.7,5.3-10
		c0.1-0.3,0.3-0.6,0.5-0.8c0.4-0.3,0.9-0.3,1.2-0.1c0.5,0.3,0,0.6-0.1,0.9c-9.8,18.5-19.6,37.1-29.4,55.7
		C136.5,117.8,135.9,118,134.9,117.7z"></path>
	<path d="M79.4,60.4c-1.1,2-2.1,4-3.1,5.9c-6.2,11.7-12.4,23.4-18.6,35.2c-2.7,5.1-5.4,10.3-8.1,15.4
		c-0.1,0.2-0.2,0.4-0.3,0.5c-0.4,0.6-1,0.5-1.4,0.3c-0.5-0.3,0-0.7,0.2-1c9.8-18.5,19.6-37,29.4-55.5C77.8,60.3,78.4,60.1,79.4,60.4
		z"></path>
	<path d="M131.4,117.8c-1.2,0.1-0.6-0.6-0.4-1c3.1-6,6.3-11.9,9.5-17.9c6.5-12.3,13.1-24.7,19.6-37
		c0.2-0.4,0.4-0.8,0.6-1.2c0.4-0.7,1-0.6,1.5-0.4c0.5,0.3,0,0.7-0.2,1c-1.4,2.7-2.9,5.4-4.3,8.2c-7.9,14.9-15.8,29.9-23.7,44.8
		c-0.5,0.9-1,1.9-1.5,2.9C132.2,117.6,131.9,117.9,131.4,117.8z"></path>
	<path d="M51.9,117.7c1.2-2.4,2.5-4.7,3.7-7C64.2,94.4,72.8,78.2,81.4,62c0.2-0.4,0.5-0.8,0.7-1.3
		c0.3-0.7,1-0.6,1.5-0.4c0.5,0.3,0,0.7-0.2,1C76.9,73.5,70.5,85.7,64,97.8c-3.3,6.3-6.7,12.6-10,19C53.5,117.7,53,118,51.9,117.7z"></path>
	<path d="M94.3,117.8c-1.2,0.1-0.7-0.5-0.4-1c2.6-4.9,5.2-9.9,7.8-14.8c7.1-13.3,14.1-26.6,21.2-40
		c0.2-0.5,0.5-0.9,0.8-1.4c0.4-0.5,1-0.5,1.4-0.3c0.4,0.2,0,0.6-0.2,0.9c-1.8,3.4-3.6,6.7-5.3,10.1c-8,15.2-16.1,30.3-24.1,45.5
		C95.2,117.3,95.1,117.9,94.3,117.8z"></path>
	<path d="M52.8,229.7c-1.3,0-0.7-0.6-0.5-1c2.7-5.2,5.5-10.3,8.2-15.5c7-13.3,14-26.5,21-39.8c0.2-0.3,0.3-0.6,0.4-0.9
		c0.3-0.6,1-0.6,1.5-0.4c0.5,0.3,0,0.7-0.2,1c-6.7,12.8-13.5,25.5-20.3,38.3c-3,5.7-6.1,11.4-9.1,17.2
		C53.7,229.2,53.5,229.9,52.8,229.7z"></path>
	<path d="M87.7,60.4c-0.6,1.1-1.2,2.3-1.8,3.4c-9.4,17.7-18.7,35.3-28.1,53c-0.1,0.3-0.2,0.5-0.4,0.7
		c-0.4,0.4-0.9,0.4-1.3,0.2c-0.5-0.2,0-0.6,0.1-0.9C66,98.4,75.8,80,85.6,61.5C86,60.7,86.5,59.9,87.7,60.4z"></path>
	<path d="M139.7,117.8c-1.1,0-0.6-0.6-0.4-1c2.1-4,4.3-8.1,6.4-12.1c7.6-14.4,15.3-28.9,23-43.3
		c0.1-0.2,0.2-0.4,0.3-0.6c0.3-0.7,1-0.6,1.4-0.4c0.5,0.3,0,0.7-0.2,1c-1.1,2.2-2.3,4.4-3.5,6.6c-8.4,15.9-16.9,31.9-25.3,47.8
		c-0.3,0.5-0.6,1-0.8,1.5C140.5,117.7,140.1,117.9,139.7,117.8z"></path>
	<path d="M89,229.6c1-1.9,1.9-3.7,2.9-5.6c8.9-16.9,17.9-33.8,26.8-50.6c0.3-0.5,0.4-1.2,1.2-1.2c0.3,0,0.6,0,0.8,0.1
		c0.2,0.2-0.1,0.5-0.2,0.7c-1.8,3.4-3.6,6.8-5.4,10.2c-6.4,12.1-12.9,24.3-19.3,36.5c-1.6,3-3.3,6.1-4.8,9.1
		C90.6,229.7,90,229.8,89,229.6z"></path>
	<path d="M94.3,229.7c-1.2,0.1-0.7-0.5-0.5-0.9c2.3-4.3,4.5-8.6,6.8-12.8c7.5-14.2,15.1-28.5,22.6-42.7
		c0.1-0.2,0.2-0.4,0.3-0.6c0.4-0.6,1-0.5,1.4-0.3c0.5,0.3,0,0.7-0.2,1c-6,11.4-12,22.7-18,34c-3.8,7.2-7.6,14.4-11.4,21.5
		C95.2,229.3,95,229.9,94.3,229.7z"></path>
	<path d="M97.5,229.6c0-0.6,0.3-0.9,0.6-1.3c9.6-18.2,19.2-36.3,28.8-54.5c0.2-0.4,0.4-0.9,0.7-1.3
		c0.3-0.5,0.9-0.5,1.3-0.3c0.6,0.3,0.1,0.7-0.1,1c-1.7,3.3-3.5,6.6-5.2,9.9c-8.1,15.2-16.1,30.4-24.2,45.7
		C98.9,229.7,98.4,229.8,97.5,229.6z"></path>
	<path d="M98.3,117.8c-1.4,0-0.6-0.7-0.4-1.1c2.8-5.4,5.7-10.7,8.5-16.1c6.9-13.1,13.8-26.1,20.8-39.2
		c0.3-0.5,0.4-1.1,1.2-1.1c0.7,0,1,0.1,0.6,0.8c-1.9,3.6-3.8,7.2-5.7,10.8c-7.9,14.9-15.8,29.8-23.7,44.7
		C99.2,117.2,99.1,117.9,98.3,117.8z"></path>
	<path d="M131.4,229.7c-1.1,0.1-0.6-0.5-0.4-0.9c2.2-4.2,4.4-8.3,6.6-12.5c7.6-14.3,15.2-28.7,22.8-43
		c0.2-0.4,0.3-1,1-1.1c0.3,0,0.7-0.2,0.9,0.1c0.2,0.3-0.1,0.5-0.2,0.8c-1.7,3.2-3.4,6.4-5,9.5c-7.7,14.5-15.4,29-23.1,43.6
		c-0.5,0.9-1,1.9-1.5,2.9C132.2,229.5,131.9,229.8,131.4,229.7z"></path>
	<path d="M139,229.6c-0.1-0.5,0.2-0.8,0.4-1.1c9.8-18.4,19.5-36.9,29.3-55.3c0.1-0.3,0.2-0.5,0.4-0.7
		c0.4-0.4,0.9-0.4,1.3-0.1c0.4,0.3,0,0.6-0.2,0.9c-9.8,18.6-19.6,37.1-29.4,55.7C140.4,229.7,139.8,229.8,139,229.6z"></path>
	<path d="M55.9,229.6c1.2-2.4,2.4-4.7,3.7-6.9c8.5-16.1,17.1-32.2,25.6-48.3c0.3-0.6,0.6-1.1,0.9-1.7
		c0.3-0.6,0.9-0.6,1.4-0.4c0.6,0.3,0,0.7-0.1,1c-8.1,15.2-16.1,30.4-24.2,45.7c-1.7,3.3-3.5,6.6-5.2,9.9
		C57.4,229.7,56.8,229.8,55.9,229.6z"></path>
	<path d="M135.9,229.7c-1.3-0.1-0.6-0.7-0.4-1.1c2.5-4.7,4.9-9.4,7.4-14.1c7.1-13.4,14.2-26.9,21.3-40.3
		c0.3-0.5,0.6-1.1,0.9-1.6c0.3-0.7,1-0.6,1.4-0.4c0.6,0.3,0,0.7-0.2,1c-9.8,18.5-19.6,37-29.4,55.5
		C136.7,229.3,136.5,229.8,135.9,229.7z"></path>
	<path d="M49.5,228.6c-0.1-1.1-0.1-2.1,0.2-3.2c8.4-15.8,16.8-31.6,25.1-47.5c0.9-1.7,1.8-3.3,2.6-5
		c0.2-0.4,0.3-0.8,0.9-0.8c0.3,0,0.7-0.1,0.9,0.1c0.2,0.3-0.1,0.5-0.2,0.7c-9.1,17.1-18.1,34.3-27.2,51.4
		C51.1,225.9,50.5,227.4,49.5,228.6z"></path>
	<path d="M41.5,99.4c-0.2-0.4-0.4-0.9-0.7-1.3c-0.5-0.7-0.2-1.3,0.2-1.8c6.2-11.7,12.4-23.4,18.6-35.2
		c0.4-0.7,1.7-1.2,2.3-0.8c0.5,0.3,0,0.7-0.1,1c-1.8,3.4-3.5,6.7-5.3,10.1c-4.8,9-9.5,17.9-14.3,26.9C42,98.7,41.9,99.2,41.5,99.4z"></path>
	<path d="M177.5,194.3c0,1.1,0,2.2,0,3.4c-1.1,2.9-2.7,5.5-4.2,8.2c-4,7.6-8,15.2-12.1,22.8c-0.3,0.5-0.4,1.1-1.1,1.1
		c-0.5,0-1.2,0.3-1.5-0.2c-0.3-0.4,0.2-0.9,0.5-1.3c5.9-11.1,11.7-22.2,17.6-33.3C176.9,194.7,176.9,194.1,177.5,194.3z"></path>
	<path d="M39.9,94.7c-0.7-1.6-1-2.7-0.2-4.2c5.2-9.5,10.2-19.1,15.3-28.7c0.9-1.7,0.9-1.7,3.1-1.5
		C52,71.8,46,83.1,39.9,94.7z"></path>
	<path d="M117.1,172.6c-0.1,0.1-0.2,0.4-0.3,0.6c-9.8,18.6-19.7,37.2-29.5,55.8c-0.1,0.1-0.1,0.2-0.2,0.3
		c-0.2,0.4-0.6,0.6-1,0.4c-0.4-0.2,0-0.6,0.1-0.8c2.2-4.2,4.4-8.4,6.6-12.5c7.6-14.3,15.2-28.6,22.7-42.9c0.2-0.4,0.4-0.7,0.6-1
		c0.2-0.2,0.4-0.2,0.7-0.1C117,172.2,117.1,172.4,117.1,172.6z"></path>
	<path d="M154.7,172.6c-0.1,0.2-0.2,0.4-0.3,0.6c-9.6,18.1-19.1,36.1-28.7,54.1c-0.3,0.5-0.6,1.1-0.8,1.6
		c-0.2,0.4-0.5,1-1.1,0.7c-0.6-0.3,0-0.8,0.1-1.1c4.7-8.8,9.3-17.7,14-26.5c5.1-9.6,10.2-19.3,15.3-28.9c0.2-0.3,0.3-0.8,0.7-0.9
		C154.3,172.1,154.7,172,154.7,172.6z"></path>
	<path d="M113.2,172.6c-0.1,0.3-0.3,0.6-0.5,0.9c-7,13.3-14.1,26.6-21.1,39.8c-2.7,5.1-5.4,10.3-8.1,15.4
		c-0.1,0.1-0.2,0.3-0.2,0.4c-0.2,0.5-0.6,0.8-1,0.5c-0.5-0.3,0-0.6,0.2-0.9c1.8-3.5,3.7-7,5.5-10.5c7.3-13.9,14.7-27.7,22-41.5
		c0.7-1.3,1.4-2.7,2.1-4c0.2-0.4,0.5-0.5,0.9-0.5C113.1,172.2,113.2,172.3,113.2,172.6z"></path>
	<path d="M82.5,117.8c-0.6,0-0.6-0.2-0.3-0.7c0.7-1.4,1.4-2.8,2.2-4.1c9.1-17.1,18.2-34.3,27.2-51.4
		c0.3-0.6,0.5-1.7,1.4-1.3c0.7,0.3-0.2,1.1-0.5,1.6c-9.7,18.3-19.3,36.6-29,54.9C83.2,117.3,83.1,117.8,82.5,117.8z"></path>
	<path d="M86.4,117.8c-0.7,0-0.5-0.4-0.3-0.7c0.8-1.5,1.6-3,2.3-4.4c9-17,18-34,27.1-51.1c0.1-0.2,0.2-0.4,0.3-0.6
		c0.2-0.5,0.6-0.9,1.1-0.6c0.5,0.3-0.1,0.7-0.2,1c-9.8,18.5-19.6,37-29.3,55.4C87.2,117.2,87.1,117.8,86.4,117.8z"></path>
	<path d="M127.8,229.7c-0.7-0.1-0.3-0.5-0.1-0.8c1.2-2.3,2.4-4.5,3.6-6.8c8.6-16.2,17.2-32.4,25.8-48.6
		c0.3-0.5,0.5-1.6,1.3-1.2c0.7,0.4-0.2,1.1-0.4,1.6c-9.6,18.3-19.3,36.5-29,54.8C128.7,229.1,128.6,229.7,127.8,229.7z"></path>
	<path d="M124.1,117.8c-0.9-0.1-0.5-0.4-0.3-0.8c1.4-2.6,2.7-5.2,4.1-7.7c8.3-15.7,16.7-31.4,25-47.2
		c0.2-0.5,0.5-0.9,0.7-1.4c0.2-0.4,0.6-0.6,1-0.4c0.5,0.3,0,0.6-0.1,0.9c-2.9,5.6-5.9,11.2-8.9,16.8c-6.8,12.9-13.7,25.8-20.5,38.7
		C124.8,117.1,124.7,117.8,124.1,117.8z"></path>
	<path d="M158.6,60.6c-0.1,0.3-0.2,0.5-0.4,0.8c-9,17.1-18.1,34.1-27.1,51.2c-0.8,1.5-1.6,3-2.4,4.5
		c-0.1,0.3-0.2,0.6-0.6,0.7c-0.2,0.1-0.5,0.1-0.7-0.1c-0.2-0.2,0-0.4,0.1-0.5c0.3-0.6,0.7-1.3,1-1.9c9.5-17.9,19-35.9,28.5-53.8
		c0.2-0.3,0.4-0.7,0.6-1C158,60.2,158.4,60.1,158.6,60.6z"></path>
	<path d="M50,203.1c0-1.1,0-2.2,0-3.4c0.3-1.4,1.1-2.6,1.8-3.9c4-7.6,8-15.1,12-22.6c0.2-0.5,0.4-1.1,1.1-1.1
		c0.5,0.1,1.2-0.3,1.5,0.2c0.3,0.4-0.3,0.9-0.5,1.3c-5.1,9.6-10.1,19.2-15.2,28.8C50.5,202.7,50.5,203.2,50,203.1z"></path>
	<path d="M195,61c0.2,1.4-0.1,2.4-0.6,3.4c-9.2,17.3-18.4,34.7-27.6,52c-0.3,0.6-0.5,1.8-1.4,1.4
		c-0.7-0.4,0.3-1.2,0.5-1.7c9.1-17.2,18.2-34.4,27.3-51.6C193.7,63.3,194.3,62.2,195,61z"></path>
	<path d="M172,117.7c7.5-14.1,14.9-28.2,22.4-42.4c-0.2,2.7-0.3,3.8-2.5,7.7c-2.1,3.8-4.1,7.8-6.2,11.6
		c-3.9,7.3-7.8,14.7-11.6,22.1C173.7,117.6,173.2,118.1,172,117.7z"></path>
	<path d="M45.7,116.8c0-0.4-0.1-0.8-0.2-1.3c2-3.8,4-7.7,6-11.5c7.5-14.1,15-28.3,22.5-42.4c0.2-0.3,0.4-0.7,0.6-1.1
		c0.2-0.4,0.6-0.5,0.9-0.3c0.5,0.3,0,0.5-0.1,0.8c-6.4,12.2-12.8,24.3-19.3,36.5c-3.2,6.1-6.4,12.2-9.7,18.2
		C46.2,116.1,46.2,116.6,45.7,116.8z"></path>
	<path d="M54.3,60.3c-5.3,10-10.5,19.9-15.8,29.9c-0.7-1.4-1.1-2.5-0.3-3.9c4.5-8.3,8.9-16.6,13.2-25
		C52.1,60,53.1,60.3,54.3,60.3z"></path>
	<path d="M44.7,111.5c0-0.6-0.4-1.1-0.3-1.6c1.6-2.9,3.2-5.9,4.8-8.8c7-13.2,13.9-26.3,20.9-39.5
		c0.1-0.2,0.2-0.4,0.3-0.6c0.2-0.4,0.6-0.8,1-0.6c0.6,0.3,0,0.8-0.2,1.1c-7,13.2-13.9,26.4-20.9,39.5
		C48.5,104.5,46.6,108,44.7,111.5z"></path>
	<path d="M194.8,68.8c0.4,1.6-0.3,2.7-0.9,3.8c-6.8,12.8-13.5,25.6-20.3,38.4c-1,1.9-2,3.8-3,5.6
		c-0.2,0.3-0.4,0.6-0.5,0.9c-0.2,0.3-0.5,0.4-0.8,0.3c-0.5-0.2-0.1-0.6,0-0.8c0.8-1.5,1.6-3,2.4-4.4c7.5-14.2,15.1-28.5,22.6-42.7
		C194.3,69.5,194.5,69.2,194.8,68.8z"></path>
	<path d="M49.7,221.1c0-0.6,0-1.1,0-1.6c2.4-4.6,4.8-9.2,7.2-13.8c5.7-10.7,11.3-21.4,17-32.1c0.3-0.6,0.5-1.8,1.4-1.3
		c0.6,0.3-0.3,1.2-0.6,1.7c-8.1,15.4-16.3,30.8-24.4,46.2C50.2,220.5,50.1,220.9,49.7,221.1z"></path>
	<path d="M36.7,85.7c-0.6-1.2-1-2.2-0.2-3.7c3.8-6.9,7.4-13.9,11.1-20.8c0.2-0.4,0.3-0.9,0.9-0.9c0.5,0,1.3-0.3,1.6,0.1
		c0.3,0.4-0.2,0.9-0.5,1.4c-4.1,7.7-8.2,15.4-12.2,23.1C37.2,85.2,37.1,85.5,36.7,85.7z"></path>
	<path d="M50,195c0-1.1,0-2.2,0-3.4c0.2-1.2,0.9-2.1,1.4-3.1c2.7-5,5.3-10,8-15.1c0.2-0.4,0.3-1.1,0.9-1.2
		s1.3-0.3,1.7,0.1c0.4,0.4-0.2,0.9-0.4,1.4c-3.6,6.9-7.3,13.8-11,20.7C50.5,194.6,50.5,195.1,50,195z"></path>
	<path d="M49.8,213.4c0-0.6,0.1-1.2,0.1-1.8c6.5-12.4,13.1-24.7,19.6-37.1c0.3-0.6,0.7-1.2,1-1.8c0.2-0.4,0.6-0.6,1-0.4
		c0.5,0.3,0,0.6-0.1,0.9c-3.9,7.5-7.9,15-11.9,22.5c-3,5.6-5.9,11.2-8.9,16.7C50.4,212.7,50.4,213.3,49.8,213.4z"></path>
	<path d="M35.1,81.3c-0.7-0.7-0.8-1.4-0.3-2.4c3.2-5.9,6.3-11.8,9.4-17.8c0.1-0.2,0.3-0.5,0.5-0.7
		c0.4-0.3,0.9-0.3,1.3-0.1c0.4,0.1,0.1,0.5,0,0.7c-3.5,6.7-7.1,13.3-10.6,20C35.3,81.1,35.2,81.2,35.1,81.3z"></path>
	<path d="M50,187c0-1.1,0-2.2,0-3.3c0.1-0.6,0.3-1.2,0.7-1.8c1.6-3,3.2-5.9,4.7-8.9c0.6-1.1,1.4-0.8,2.3-0.8
		c0.5,0,0.3,0.5,0.1,0.7c-0.5,1-1,1.9-1.5,2.9c-1.8,3.5-3.7,6.9-5.5,10.4C50.5,186.5,50.5,187.1,50,187z"></path>
	<path d="M177.5,206c0,0.6,0,1.2,0,1.9c-3.7,7-7.4,14-11.1,21c-0.2,0.3-0.2,0.7-0.7,0.8c-0.2,0-0.5,0-0.7-0.1
		c-0.2-0.1,0-0.4,0.1-0.5c4-7.6,8.1-15.2,12.1-22.8C177.3,206.2,177.4,206.1,177.5,206z"></path>
	<path d="M33.4,77.2c-0.4-1-0.7-1.8-0.2-2.7c2.4-4.4,4.7-8.9,7.1-13.3c0.1-0.3,0.2-0.5,0.4-0.7c0.4-0.3,0.8-0.3,1.2-0.1
		c0.4,0.2,0.1,0.5,0,0.7C39.2,66.4,36.3,71.8,33.4,77.2z"></path>
	<path d="M185,102c0.1,1.8-0.9,3.4-1.2,5.1c-1.7,2.4-2.8,5.2-4.3,7.7c-0.4,0.8-0.8,1.5-1.2,2.3c-0.2,0.4-0.5,0.6-1,0.7
		c-0.8,0-0.9-0.2-0.5-0.9c1.6-2.9,3.1-5.8,4.7-8.8c1-1.9,1.9-3.8,2.9-5.6C184.5,102.3,184.5,101.9,185,102z"></path>
	<path d="M177.7,213.4c0,0.4,0.1,0.9,0.1,1.3c-2.5,4.8-5,9.6-7.6,14.4c-0.2,0.4-0.6,0.7-1.1,0.5c-0.4-0.2,0-0.6,0.1-0.8
		c2.6-5,5.3-10,7.9-14.9C177.3,213.7,177.3,213.3,177.7,213.4z"></path>
	<path d="M177.8,219.1c0,0.9,0,1.7,0,2.6c-1.3,2.4-2.6,4.9-3.8,7.3c-0.4,0.9-1.1,0.8-1.9,0.6c1.3-2.4,2.4-4.7,3.7-7
		C176.4,221.4,176.8,220.1,177.8,219.1z"></path>
	<path d="M50,180c0-1.3,0-2.6,0-3.9c0.5-1,1.1-2.1,1.6-3.1c0.2-0.3,0.2-0.6,0.6-0.7c0.6-0.2,1.4-0.3,1.8,0
		c0.5,0.4-0.2,0.9-0.4,1.3c-1,1.9-2,3.8-3,5.7C50.4,179.6,50.4,180,50,180z"></path>
	<path d="M37.9,60.4c-1.7,3.2-3.4,6.4-5.2,9.8c-0.1-1.8,0-3.2,0.8-4.5c0.9-1.5,1.7-3,2.4-4.6
		C36.3,60.3,36.9,60.1,37.9,60.4z"></path>
</g>
</svg>
