<!--?xml version="1.0" encoding="utf-8"?-->
<!-- Generator: Adobe Illustrator 24.2.3, SVG Export Plug-In . SVG Version: 6.00 Build 0)  -->
<svg version="1.1" id="Camada_1" xmlns="http://www.w3.org/2000/svg" xmlns:xlink="http://www.w3.org/1999/xlink" x="0px" y="0px" viewBox="0 0 229 418" style="enable-background:new 0 0 229 418;" xml:space="preserve">
<style type="text/css">
	.st0{fill:#FD0202;}
	.st1{fill:#0D4AA9;}
	.st2{fill:#074CAC;}
	.st3{fill:#F3031F;}
</style>
<g onclick="select(this)" class="" id="gola-primaria" fill="#021c3b">
	<path d="M78,8c0.8-0.1,1.3-0.6,1.8-1.1c0.8-0.7,1.6-1.4,2.2-2.2c2.4-3.4,5.9-4.1,9.6-4.1c10.8-0.1,21.7,0,32.5,0
		c3.7,0,7.4,0,11,0c2.1,0,4.1,0.4,6.1,0.9c1.2,0.3,2.2,1,3.1,2c1.5,1.8,3,3.7,5.1,4.9c1.9,0.9,2.2,2,1.6,4.7c-0.9,4-3.1,7.3-6,10.1
		c-3.2,3.1-6.7,5.8-10.6,8c-2.5,1.4-5,2.6-7.6,3.6c-4.9,1.8-10,2.5-15.3,2.1c-6.9-0.5-13.4-2.4-19.3-6.2c-4.7-3-9.1-6.2-12.5-10.7
		c-1.6-2.1-2.7-4.4-3.4-7C75.9,10.5,76.2,9.2,78,8z M144.3,9.1c-1.6,0.1-3.1,0.2-4.5,0.3c-8.3,0.7-16.6,1.3-25,1.5
		c-6.4,0.2-12.8-0.5-19.1-1C91.8,9.6,88,9.2,84.1,8.9C83.3,8.8,83,9,83.4,9.8c0.5,1.1,1,2.3,1.8,3.2c3.9,4.9,8.5,9,14.2,11.7
		c5.4,2.7,11.2,4.2,17.3,3.4c9.8-1.2,17.7-6,24.1-13.4C142.3,13.2,143.5,11.4,144.3,9.1z"></path>
</g>
<g onclick="select(this)" class="" id="estampa-primaria" fill="#021c3b">
	<path d="M229,116.1c-6.9,2.8-14,4.3-21.3,5.2c-6.2,0.8-12.4,0.7-18.6,0c-1.5-0.2-3.1-0.4-4.6-1.3c-0.2,2.1-0.4,4.1-0.6,6
		c-0.9,7.2-1.3,14.5-1.4,21.8c0,2.2,0.1,4.4,0.5,6.6c0.4,2-0.1,3.9-0.2,5.8c0,0.7-0.2,1.4-0.1,2.2c0.2,6.5-0.6,13.1,0,19.6
		c0.1,1.5,0,3-0.1,4.4c-0.3,3.1,0.2,6.1,0.9,9.1c1.6,7.2,1.4,14.5,0.3,21.8c-0.3,2.1-0.4,4.2,0.3,6.4c1.8,5.4,1.8,11,0.9,16.6
		c-0.2,1.5-0.3,2.9,0.1,4.4c0.9,3.8,0.4,7.7,0.6,11.6c0.3,5.9,0.7,11.8,1.4,17.7c0.3,2,0.2,4.1,0.3,6.2c0,1.7-0.4,2.2-2.1,2.7
		c-3,0.9-6.1,1.2-9.2,1.5c-7.7,0.8-15.4,0.9-23.1,1c-11.2,0.2-22.5,0.7-33.7,0.8c-12.5,0.2-24.9-0.8-37.4-0.8
		c-8.4,0-16.8-0.1-25.2-0.7c-4.1-0.3-8.3-0.8-12.4-1.7c-0.2,0-0.3-0.1-0.5-0.1c-3.4-0.8-3.7-1.2-3.5-4.7c0.5-7.7,1-15.5,1.5-23.2
		c0.1-2.1,0.3-4.1,0.2-6.2c0-1.8,0-3.5,0.4-5.3c0.4-2.3,0.5-4.5,0.1-6.8c-0.4-2.5-0.1-5,0.4-7.5c0.2-1,0.2-2,0.1-3
		c-0.3-4.5-1-9.1-0.8-13.6c0.2-4.4,1.2-8.5,2.7-12.6c0.4-1,0.6-2,0.4-3.1c-0.2-1.2-0.2-2.5,0.1-3.7c0.3-1.7,0.2-3.3,0.1-5
		c-0.2-3.3-0.2-6.5-0.2-9.8c-0.1-12.9,0-25.9-0.1-38.8c0-5.1-1-10.2-1.5-15.3c-0.1-1.3-0.3-2.6-0.5-3.8c-8.8,2.5-17.7,2-26.6,1.1
		c-4.7-0.5-9.4-1.3-14-2.8c-0.9-0.3-1.7-0.6-2.5-1.2c0-1,0-2.1,0-3.1c0.4-0.1,0.3-0.4,0.3-0.7c0.3-1.8,0.7-3.7,1-5.5
		c1.9-10,2.9-20.1,4.4-30.1c0.9-6,1.5-12,3.2-17.8c2.7-9.7,7.4-18.3,15.2-24.9c1.1-0.9,2.2-1.9,3.2-2.9c0.6-0.6,1.3-1,2-1.4
		c6.5-3.1,13.1-5.9,19.8-8.7c7.6-3.1,15-6.6,22.1-10.7c1-0.6,2-1.3,2.8-2.2C75.2,8.7,76.4,8,78,8c-1.7,1.3-2.1,2.5-1.5,4.8
		c0.7,2.5,1.8,4.8,3.4,7c3.3,4.5,7.8,7.8,12.5,10.7c5.9,3.7,12.4,5.7,19.3,6.2c5.2,0.4,10.3-0.4,15.3-2.1c2.7-1,5.2-2.2,7.6-3.6
		c3.9-2.2,7.4-4.9,10.6-8c2.8-2.8,5.1-6.1,6-10.1c0.6-2.7,0.2-3.8-1.6-4.7c1.8-0.1,3,1,4.1,2.2c0.3,0.3,0.4,0.7,0.8,0.9
		c4,2.3,7.9,4.8,12.1,6.7c10.4,4.7,21.1,8.8,31.5,13.6c0.7,0.3,1.3,0.7,1.9,1.2c1.1,0.9,2.1,1.8,3.2,2.7c3.7,2.9,6.8,6.3,9.4,10.2
		c4.3,6.6,6.7,13.9,8.3,21.6c1,4.9,1.2,9.8,2.4,14.7c1.5,5.7,2.6,11.5,3.5,17.4c0.5,3.6,1,7.3,1.7,10.8c0.2,0.8-0.2,1.9,0.8,2.5
		C229,113.7,229,114.9,229,116.1z"></path>
	<path d="M144.3,9.1c-0.8,2.3-2.1,4.1-3.5,5.8c-6.4,7.4-14.3,12.2-24.1,13.4c-6.1,0.7-11.8-0.8-17.3-3.4C93.8,22,89.1,18,85.2,13
		c-0.8-1-1.3-2.1-1.8-3.2c-0.4-0.9-0.1-1,0.7-0.9c3.9,0.4,7.7,0.8,11.6,1.1c6.4,0.5,12.7,1.2,19.1,1c8.3-0.2,16.7-0.8,25-1.5
		C141.3,9.3,142.7,9.2,144.3,9.1z"></path>
</g>
<path d="M42.9,241.1c0,0.2-0.1,0.4-0.1,0.6C42.8,241.6,42.8,241.3,42.9,241.1z"></path>
<path d="M183.8,215.2c0.1-0.1,0.1-0.3,0.2-0.4C184,214.9,184.1,215.1,183.8,215.2z"></path>
<path d="M184.4,210.3c0-0.2,0.1-0.4,0.1-0.6C184.4,210,184.4,210.1,184.4,210.3z"></path>
<path d="M40.6,272.4L40.6,272.4L40.6,272.4z"></path>
<path d="M182.5,150.3L182.5,150.3C182.5,150.4,182.5,150.3,182.5,150.3z"></path>
<path d="M38,88.8c0.1,0,0.2,0,0.2,0.2C38.1,89,38.1,88.9,38,88.8z"></path>
<path d="M33.9,78.7c0.1,0,0.3,0,0.2,0.2C34,78.9,34,78.8,33.9,78.7z"></path>
<g onclick="select(this)" class="" id="estampa-secundaria" fill="#71aad4">
	<path d="M187.1,273.9c0.3,2.4,0.4,4.9,0.3,7.4c0,1.3-1.2,1.5-2.1,1.8c-4.7,1.4-9.5,1.9-14.3,2.2
		c-9.9,0.6-19.9,0.5-29.9,0.8c-9.9,0.3-19.8,1-29.6,0.6c-16.2-0.7-32.5-0.6-48.7-1.2c-6.3-0.2-12.7-0.7-18.9-2.1
		c-0.9-0.2-1.8-0.5-2.6-0.9c-0.6-0.3-1.1-0.7-1-1.5c0.2,0,0.3,0,0.5,0c12,2.5,24.1,3.3,36.3,3.3c20.1,0,40.2,0,60.3,0
		c8.9,0,17.8-0.2,26.7-1.1c7.6-0.9,15-2.2,22.3-4.5c0.3-0.1,1-0.1,0.8-0.6c-0.1-0.4-0.6-0.1-0.9,0c-12.5,3.7-25.3,5.2-38.2,5.3
		c-24.4,0.3-48.9,0.1-73.3,0.1c-11.6,0-23.2-0.9-34.5-3.4c-0.1-1.2-0.1-2.5,0.1-3.7c11.4,2.4,22.9,3.3,34.5,3.4
		c22.6,0,45.3,0,67.9,0c8.3,0,16.6-0.4,24.9-1.5C174.3,277.2,180.8,275.9,187.1,273.9z"></path>
	<path d="M40.6,275.5c-0.4-1.1-0.1-2.1,0.1-3.1l0,0c0-0.2,0.1-0.3,0.1-0.5c0.2,0,0.4,0,0.6,0.1
		c11.2,2.4,22.6,3.2,34.1,3.2c23.3,0,46.6,0,69.9,0c10.2,0,20.4-0.9,30.4-2.8c3.7-0.7,7.3-1.7,10.9-2.7c0.1,1.2,0.2,2.4,0.3,3.6
		c-2.8,0.8-5.7,1.6-8.6,2.2c-11.5,2.5-23.2,3.3-35,3.4c-16.8,0.1-33.6,0-50.4,0c-8,0-16,0.1-24-0.1
		C59.4,278.4,49.9,277.5,40.6,275.5z"></path>
	<path d="M186.2,265.3c0.2,1.2,0.3,2.4,0.3,3.5c-2.8,0.8-5.6,1.6-8.5,2.2c-11.4,2.4-22.9,3.3-34.6,3.3
		c-18.7,0.1-37.4,0-56.1,0c-10.4,0-20.8,0.1-31.2-1c-5.2-0.5-10.3-1.2-15.4-2.4c0-1.2,0-2.3,0.2-3.5c0.3,0,0.6,0,0.8,0.1
		c11.1,2.3,22.4,3.1,33.7,3.1c22.5,0,44.9,0,67.4,0c8.3,0,16.6-0.5,24.9-1.6C174.1,268.3,180.2,267,186.2,265.3z"></path>
	<path d="M41.1,266.5c0-1.1,0-2.3,0.2-3.4c0.2,0,0.5,0,0.7,0.1c7.6,1.6,15.2,2.4,23,2.8c7.1,0.4,14.2,0.3,21.3,0.3
		c22.3-0.1,44.6,0.4,66.8-0.3c9.1-0.3,18.1-1.5,26.9-3.5c1.9-0.5,3.8-1.2,5.8-1.4c0.1,1.1,0.2,2.2,0.3,3.4c-0.7,0.2-1.4,0.4-2.1,0.6
		c-12.1,3.3-24.5,4.6-37,4.7c-20.6,0.2-41.3,0.1-61.9,0.1c-8.6,0-17.3,0-25.9-0.7C53.2,268.6,47.1,267.8,41.1,266.5z"></path>
	<path d="M41.6,258.7c4.6,0.8,9.3,1.6,14,2.1c6.5,0.6,13.1,1,19.6,1c23.3,0,46.6,0.1,69.9,0c12.9-0.1,25.8-1.3,38.3-4.7
		c0.2-0.1,0.5-0.1,0.7-0.2c1.1-0.5,1.6-0.3,1.6,1c0,0.7,0.1,1.4,0.1,2c-0.3,0.1-0.6,0.3-0.9,0.3c-12.3,3.5-24.9,4.9-37.6,4.9
		c-24.2,0.2-48.3,0.1-72.4,0.1c-10.8,0-21.6-0.8-32.3-2.9c-0.8-0.2-1.4-0.4-1.2-1.3C41.5,260.2,41.5,259.4,41.6,258.7z"></path>
	<path d="M42,254.3c4.6,0.8,9.2,1.6,13.9,2c6.5,0.6,13,1,19.5,1c23.3,0,46.5,0.1,69.8,0c12.3,0,24.5-1.2,36.5-4.2
		c1.1-0.3,2.2-0.6,3.2-0.9c0.6-0.2,0.7,0,0.7,0.5c0,0.6-0.1,1.1,0,1.7c0.1,0.8-0.2,1.2-1.1,1.4c-5.5,1.5-11.1,2.6-16.7,3.3
		c-8.7,1.2-17.4,1.6-26.2,1.6c-22.2,0-44.5,0-66.7,0c-10.8,0-21.5-0.8-32.1-2.9c-0.4-0.1-0.8-0.2-1.2-0.3
		C41.7,256.4,41.7,255.4,42,254.3z"></path>
	<path d="M185.6,249c0,1.9,0,1.9-1.8,2.4c-9,2.4-18.1,3.6-27.3,4.2c-7.9,0.5-15.8,0.5-23.8,0.5c-20.5,0-41,0-61.4-0.1
		c-9.4-0.1-18.7-0.9-27.9-2.7c-1-0.2-1.3-0.6-1.2-1.6c0.1-2,0.1-2,2-1.7c10.2,1.9,20.5,2.6,30.8,2.6c23.3,0,46.6,0.1,69.9,0
		c12.3,0,24.6-1.2,36.6-4.1c1.3-0.3,2.6-0.9,3.9-0.9C185.5,248.1,185.6,248.6,185.6,249z"></path>
	<path d="M185.5,234.3c0.1,1.1-0.1,2.1-0.2,3.2c-2.3,0.6-4.6,1.2-7,1.7c-11.3,2.5-22.8,3.3-34.3,3.4
		c-22.3,0.1-44.7,0.1-67.1,0c-4.8,0-9.5-0.1-14.3-0.5c-6.6-0.4-13.2-1.1-19.7-2.4c-0.2-1.1-0.4-2.1-0.4-3.2c0.7-0.1,1.4,0.3,2.1,0.4
		c8.5,1.5,17,2.3,25.6,2.4c16.4,0.3,32.8,0.1,49.2,0.1c10.8,0,21.7,0.3,32.5-0.2c10.9-0.5,21.8-1.6,32.3-4.8
		C184.7,234.3,185.1,234.1,185.5,234.3z"></path>
	<path d="M185.3,246.4c-6,1.8-12.1,2.9-18.3,3.7c-10.1,1.3-20.3,1.5-30.4,1.5c-22.1-0.1-44.2,0-66.3-0.1
		c-9-0.1-18-1-26.9-2.6c-0.8-0.1-1.3-0.5-1.1-1.4c0.1-0.4,0-0.7,0-1.1c0-0.3,0.1-0.6,0.1-0.9c0.4-0.1,0.9,0,1.3,0.1
		c7.6,1.5,15.3,2.2,23.1,2.6c9.2,0.4,18.3,0.3,27.5,0.2c19.2-0.1,38.5,0.3,57.7-0.2c8.3-0.2,16.5-1.1,24.6-2.8
		c2.8-0.6,5.5-1.3,8.3-1.9C184.9,244.4,185.1,245.4,185.3,246.4z"></path>
	<path d="M42.5,244c0.1-0.8,0.2-1.5,0.3-2.3c0-0.2,0.1-0.4,0.1-0.6V241c0.5-0.2,0.8,0.1,1.3,0.2
		c9.6,1.8,19.3,2.6,29.1,2.6c23.9,0.1,47.7,0.1,71.6,0c8.1,0,16.2-0.5,24.3-1.8c5.2-0.8,10.4-1.5,15.3-3.4c0.6-0.2,0.7,0,0.7,0.5
		c-0.1,1-0.2,1.9-0.4,2.9c-11.7,3.3-23.8,4.7-35.9,4.8c-22.1,0.2-44.2,0.1-66.3,0.1c-10,0-19.9-0.1-29.8-1.3
		C49.3,245.3,45.9,244.9,42.5,244z"></path>
	<path d="M185.2,229.6c0.1,1,0.2,2.1,0.2,3.1c-2.1,0.8-4.2,1.2-6.4,1.7c-11.9,2.7-23.9,3.5-36.1,3.6
		c-22.5,0.1-44.9,0.1-67.4,0c-8.8,0-17.6-0.5-26.3-1.8c-2.3-0.3-4.6-0.6-6.8-1.3c-0.1-1-0.1-1.9,0.1-2.9c0.3,0,0.6,0,1,0.1
		c9.9,1.9,19.9,2.7,29.9,2.8c20.8,0.1,41.7,0,62.5,0.1c7.9,0,15.8-0.1,23.7-0.7c7.8-0.7,15.5-1.8,23-3.8
		C183.6,230.2,184.3,229.5,185.2,229.6z"></path>
	<path d="M42.8,230.4c0.2-0.9,0.3-1.8,0.4-2.8c0.5-0.2,0.9,0.1,1.4,0.2c9.7,1.8,19.5,2.5,29.4,2.5
		c17.1,0.1,34.2,0.1,51.3,0c10.3,0,20.6,0.2,30.9-0.5c7.5-0.5,14.9-1.4,22.3-3c1.9-0.4,3.8-1.1,5.8-1.3c0.1,0.6,0.3,1.2,0.4,1.8
		c0.1,1.2-0.9,1.2-1.6,1.4c-2.7,0.8-5.4,1.3-8.2,1.9c-11.3,2.1-22.7,2.7-34.1,2.8c-21.1,0-42.1,0-63.2,0c-11.4,0-22.8-0.8-34.2-2.6
		C43.3,230.8,43,230.8,42.8,230.4z"></path>
	<path d="M43.1,226c-0.3-1-0.1-2-0.2-2.9c0.1,0,0.2,0,0.2,0c10.6,2.1,21.3,2.8,32.1,2.8c22.8,0.1,45.5,0.1,68.3,0
		c13.4,0,26.8-1.2,39.8-4.6c0.3,0.9,0.5,1.9,0.8,2.8c-0.4,0.1-0.8,0.3-1.1,0.4c-11.9,3.1-24.2,4.3-36.4,4.4
		C129,229,111.5,229,93.9,229c-8.2,0-16.5,0.1-24.7-0.1C60.4,228.5,51.7,227.8,43.1,226z"></path>
	<path d="M42.5,218.6c1.9,0.1,3.8,0.6,5.7,0.9c6.4,1,12.8,1.6,19.2,1.8c26,0.5,52.1,0.2,78.1,0.2
		c12.1,0,24.1-1.2,35.9-4.1c0.5-0.1,1-0.2,1.5-0.4c0.8-0.3,0.9,0.1,0.8,0.7c-0.1,0.7-0.2,1.4-0.3,2.1c-1,0.3-2,0.5-3,0.8
		c-12.2,2.9-24.6,3.8-37.1,3.9c-20.5,0.1-41,0-61.5,0c-7.8,0-15.5-0.1-23.2-0.8c-5.3-0.5-10.6-1-15.8-2.2
		C42.7,220.5,42.6,219.6,42.5,218.6z"></path>
	<path d="M184.4,210.3c-4.6,1.4-9.3,2.3-14,3c-10.1,1.5-20.4,2-30.6,1.9c-22.8-0.1-45.7,0-68.5-0.1
		c-9.3,0-18.6-1-27.8-2.6c-0.7-0.1-1.3-0.3-1.1-1.3c0.2-0.6,0-1.2,0.3-1.7c0.5,0.1,1,0.1,1.4,0.2c7.9,1.5,15.9,2.4,23.9,2.5
		c25.8,0.4,51.6,0.2,77.4,0.1c10.4,0,20.8-0.9,31.1-3c2.7-0.5,5.4-1.2,8.1-1.8c0,0.7,0,1.4-0.1,2.2
		C184.5,209.9,184.4,210.1,184.4,210.3L184.4,210.3z"></path>
	<path d="M183.9,215.2c-4.4,1.1-8.8,2-13.3,2.7c-9.7,1.5-19.4,2-29.2,2c-22.1,0-44.2,0.1-66.3,0
		c-10.6,0-21.3-0.7-31.7-2.8c-0.4-0.1-1,0-1-0.6c0-0.8-0.2-1.5,0.1-2.2c0.1-0.3,0.5-0.1,0.8,0c6.8,1.3,13.7,2.1,20.6,2.4
		c3.9,0.2,7.8,0.4,11.8,0.4c23.2,0,46.4,0.1,69.6-0.1c12.1-0.1,24.2-1.1,36-4.1c1-0.3,2-0.7,3-0.7c-0.1,0.8-0.2,1.7-0.3,2.5
		C184,214.9,183.9,215,183.9,215.2L183.9,215.2z"></path>
	<path d="M43,207.8c0.2-0.8,0.3-1.6,0.5-2.4c0.5,0,1,0,1.4,0.1c9.6,1.8,19.3,2.5,29,2.5c25.8,0,51.6,0.3,77.5-0.2
		c7.9-0.2,15.7-1.1,23.5-2.5c3.2-0.6,6.4-1.4,9.6-2.2c0.1,0.9,0.1,1.8,0.2,2.7c-0.1,0-0.2,0.1-0.3,0.1c-12.6,3.3-25.4,4.7-38.3,4.7
		c-22.9,0.1-45.7,0-68.6,0.1c-9.6,0-19.3-0.5-28.8-1.9C46.6,208.6,44.8,208.4,43,207.8z"></path>
	<path d="M183.9,198.9c0.1,0.6,0.2,1.2,0.3,1.9c0.1,1-0.8,0.9-1.3,1c-11.6,3-23.4,4.3-35.3,4.4
		c-20.2,0.2-40.3,0.1-60.5,0.1c-8.4,0-16.9,0.1-25.3-0.5c-6-0.4-12-1-17.8-2.2c0.2-0.9,0.4-1.7,0.8-2.5c9.9,1.7,19.8,2.5,29.8,2.5
		c22.7,0,45.5,0,68.2,0c11.4,0,22.8-0.8,34-3.1C179.1,199.9,181.5,199.4,183.9,198.9z"></path>
	<path d="M183.1,194.5c0.3,0.8,0.4,1.7,0.5,2.6c-0.4,0.1-0.8,0.2-1.2,0.3c-11.4,2.9-23,4.1-34.8,4.3
		c-25.2,0.2-50.4,0.2-75.7,0c-8.9-0.1-17.8-0.9-26.6-2.3c0.2-0.9-0.1-1.7,0-2.6c0.5,0.1,1,0.1,1.4,0.2c7,1.2,14,1.9,21.1,2
		c25.9,0.4,51.9,0.2,77.8,0.1C158.4,198.9,170.9,197.7,183.1,194.5z"></path>
	<path d="M182.6,181.2c0.1,0.8,0.2,1.6,0.1,2.5c-1.5,0.4-3,0.7-4.6,1.1c-11.5,2.5-23.2,3.3-35,3.3
		c-22.1,0.1-44.3,0.1-66.4,0c-10.4,0-20.8-0.6-31-2.4c0-0.8,0-1.5,0-2.3c0.5-0.2,1,0,1.4,0c7.2,1.2,14.5,1.9,21.8,2
		c25.6,0.3,51.2,0.1,76.7,0.1c8.2,0,16.4-0.7,24.6-1.9C174.4,183.1,178.5,182.1,182.6,181.2z"></path>
	<path d="M182.4,190.2c0.1,0.8,0.2,1.7,0.3,2.5c-11.5,2.9-23.3,4.2-35.1,4.3c-21.7,0.1-43.4,0.1-65.1,0.1
		c-7.4,0-14.8,0-22.2-0.6c-5-0.4-10-0.9-14.9-1.9c-0.1-0.8,0.1-1.6,0.3-2.4c0.2,0,0.5,0,0.7,0.1c9.2,1.6,18.6,2.2,27.9,2.2
		c22.8,0.1,45.7,0.1,68.5,0c7.2,0,14.3-0.3,21.4-1.1C170.4,192.7,176.4,191.7,182.4,190.2z"></path>
	<path d="M45.8,190.3c-0.2-0.8-0.3-1.6-0.2-2.5c0.2,0,0.3,0,0.5,0c9.8,1.6,19.7,2.3,29.6,2.3c22.7,0,45.3,0,68,0
		c9.5,0,18.9-0.7,28.3-2.2c3.6-0.6,7-1.4,10.6-2.2c-0.1,0.9-0.1,1.7-0.2,2.6c-12.4,3.1-25,4.2-37.7,4.3c-22.6,0.1-45.1,0-67.7,0
		C66.6,192.6,56.1,192,45.8,190.3z"></path>
	<path d="M182.4,176.8c0,0.8,0,1.6,0,2.4c-1.1,0.3-2.3,0.5-3.4,0.8c-11.8,2.6-23.8,3.5-35.8,3.5
		c-18.9,0.1-37.7,0-56.6,0c-7.8,0-15.7,0.1-23.5-0.4c-5.9-0.4-11.7-0.9-17.5-2c0-0.1,0-0.1,0-0.2c0-0.2,0-0.3,0-0.5
		c0-1.7,0-1.7,1.6-1.4c8.7,1.4,17.5,2.1,26.4,2.1c25.6,0,51.1,0.3,76.7-0.1c6.5-0.1,12.9-0.7,19.3-1.7
		C173.9,178.7,178.1,177.8,182.4,176.8z"></path>
	<path d="M182.5,172.3c0,0.8-0.1,1.6-0.1,2.3c-13.9,3.5-28.2,4.4-42.5,4.3c-20,0-40,0-60,0c-5.4,0-10.9,0-16.3-0.4
		c-6.1-0.4-12.2-0.9-18.2-2.1c0-0.7,0-1.5,0-2.2c0.2,0,0.5,0,0.7,0.1c8.1,1.3,16.2,2.1,24.3,2.2c24,0.1,48,0.1,71.9,0.1
		c9.5,0,18.9-0.6,28.3-2C174.7,174.1,178.6,173.2,182.5,172.3z"></path>
	<path d="M182.7,167.8c0.1,0.8,0.1,1.5-0.1,2.3c-12.4,3.2-25,4.3-37.8,4.4c-21.6,0.1-43.2,0-64.7,0.1
		c-7.3,0-14.6-0.1-21.9-0.8c-4.2-0.4-8.4-0.8-12.6-1.6c0-0.7,0-1.4,0-2.1c0.5-0.2,1,0,1.5,0.1c7.3,1.2,14.6,1.9,22,2
		c24.5,0.3,49,0.1,73.6,0.1c7,0,14.1-0.3,21.1-1.1C170.2,170.4,176.4,169.3,182.7,167.8z"></path>
	<path d="M182.6,165.5c-6.5,1.7-13.1,2.8-19.8,3.4c-9.5,1-19,1-28.5,1c-20.4,0-40.8,0-61.3-0.1
		c-9.2-0.1-18.4-0.7-27.5-2.4c-0.1-0.7-0.2-1.4-0.1-2.2c12.6,2.2,25.4,2.4,38.1,2.4c20.4-0.1,40.7,0,61.1-0.1
		c12.6-0.1,25.1-1.1,37.4-4.3c0.2-0.1,0.4-0.1,0.6-0.1C182.6,164,182.6,164.8,182.6,165.5z"></path>
	<path d="M182.7,160.9c-11.5,3-23.3,4.2-35.1,4.3c-25.5,0.3-51,0.2-76.5,0c-8.6-0.1-17.2-0.8-25.8-2.4
		c-0.2-0.7-0.2-1.4,0-2.1c7.6,1.2,15.3,2,23,2.2c2.3,0.1,4.6,0.1,6.9,0.1c24.1,0,48.2,0.1,72.3-0.1c11.7-0.1,23.3-1.3,34.6-4.2
		c0.2-0.1,0.5-0.1,0.7-0.1C182.9,159.5,182.9,160.2,182.7,160.9z"></path>
	<path d="M183.1,156.3c-8.2,2.2-16.6,3.3-25.1,4c-6.6,0.5-13.2,0.6-19.8,0.6c-22.2,0-44.4,0-66.6-0.1
		c-8.5,0-17-0.8-25.4-2.2c-0.3-0.1-0.6-0.1-0.9-0.2c0-0.6,0-1.2,0-1.9c1.5-0.1,2.9,0.3,4.4,0.5c8,1.1,16.1,1.7,24.1,1.7
		c24.6,0,49.2,0.1,73.8-0.1c11.9-0.1,23.7-1.4,35.2-4.4C183.2,154.9,183.2,155.6,183.1,156.3z"></path>
	<path d="M182.6,151.9c-5.6,1.5-11.3,2.4-17.1,3.1c-10.2,1.2-20.4,1.3-30.7,1.3c-21.2-0.1-42.4,0-63.6-0.1
		c-8.7-0.1-17.3-0.8-25.9-2.4c0-0.6,0-1.3,0-1.9c3.2,0.4,6.4,0.9,9.6,1.2c7.2,0.9,14.5,1.1,21.8,1.1c21.7,0,43.4,0,65.1,0
		c12,0,23.9-0.8,35.6-3.3c1.6-0.4,3.3-0.7,4.9-1.1c0,0.1,0.1,0.3,0.1,0.4l0,0C182.6,150.9,182.6,151.4,182.6,151.9z"></path>
	<path d="M182.6,142.8c-5.4,1.5-10.8,2.4-16.4,3.1c-7.6,0.9-15.1,1.4-22.7,1.4c-24.8,0-49.6,0.2-74.4-0.1
		c-7.7-0.1-15.4-0.9-23-2.1c-0.2,0-0.4-0.2-0.7-0.3c0-0.5,0-1.1,0-1.6c1.8-0.1,3.5,0.4,5.3,0.6c8.1,1,16.3,1.5,24.5,1.5
		c23.6,0,47.2,0,70.8,0c12.4,0,24.6-1.3,36.6-4.3C182.6,141.5,182.6,142.1,182.6,142.8z"></path>
	<path d="M182.5,147.2c-2.8,1-5.7,1.5-8.6,2c-10.1,1.8-20.3,2.5-30.5,2.5c-24,0-48,0-72-0.1c-8.4,0-16.8-0.8-25.1-2.2
		c-0.3-0.1-0.6,0-0.9-0.3c0-0.6,0-1.2,0-1.8c3.4,0.4,6.7,0.9,10.1,1.3c6.6,0.7,13.3,1,20,1c23.9,0,47.8,0.1,71.6-0.1
		c11.6-0.1,23.1-1.3,34.3-4.1C183.4,145.2,182.1,146.7,182.5,147.2L182.5,147.2z"></path>
	<path d="M183.1,133.6c-12.9,3.4-26.1,4.5-39.3,4.5c-23,0.1-46,0.1-68.9,0c-10,0-19.9-0.7-29.7-2.5
		c-0.1-0.6-0.1-1.1-0.2-1.7c1.9,0,3.7,0.5,5.6,0.7c8.6,1.1,17.2,1.6,25.8,1.6c22.7,0,45.4,0.1,68.1,0c12.9,0,25.6-1.1,38.1-4.4
		c0.2-0.1,0.5-0.1,0.7,0C183.2,132.5,183.1,133,183.1,133.6z"></path>
	<path d="M183.6,128.9c-4.6,1.4-9.3,2.2-14.1,2.9c-10.5,1.6-21.1,1.9-31.7,1.9c-20.8,0-41.5,0-62.3,0
		c-10,0-19.9-0.7-29.7-2.3c-0.4-0.1-0.8-0.2-1.2-0.3c-0.1-0.5-0.1-1.1-0.2-1.6c2.2,0.3,4.4,0.6,6.6,0.9c8.3,1.1,16.6,1.5,24.9,1.5
		c23.3,0,46.6,0,70-0.1c12.5-0.1,24.8-1.3,36.9-4.4c0.3-0.1,0.6-0.3,0.9-0.1C183.7,127.8,183.6,128.4,183.6,128.9z"></path>
	<path d="M182.8,138.1c-2.5,1-5.2,1.4-7.9,1.9c-10.4,1.9-20.9,2.7-31.4,2.7c-23.6,0-47.2,0-70.8,0
		c-8.8,0-17.5-0.7-26.2-2.1c-0.4-0.1-0.8-0.2-1.2-0.3c0-0.6,0-1.1,0-1.7c4.1,0.5,8.2,1.2,12.3,1.5c6.1,0.5,12.3,0.8,18.4,0.8
		c23.1,0,46.1,0.1,69.2-0.1c12.6-0.1,25.1-1.2,37.3-4.4c0.1,0,0.2,0,0.2,0C182.8,136.9,182.8,137.5,182.8,138.1z"></path>
	<path d="M184,124.3c-6.5,1.8-13.1,2.9-19.8,3.7c-10.6,1.2-21.2,1.2-31.9,1.2c-19.1,0-38.1,0-57.2,0
		c-10.1,0-20.1-0.7-30.1-2.4c-0.4-0.1-0.8,0-1.1-0.4c0-0.5-0.1-0.9-0.1-1.4c2.4,0.3,4.8,0.7,7.2,1c7.4,1,14.8,1.5,22.2,1.5
		c24,0.1,48,0.1,72,0c12.9-0.1,25.8-1.3,38.3-4.7c0.2-0.1,0.4-0.1,0.6-0.1C184.3,123.2,184.2,123.7,184,124.3z"></path>
	<path d="M184.4,119.7c-4.9,1.2-9.9,2.3-14.9,3c-7.8,1.1-15.7,1.8-23.5,1.8c-24.4,0.1-48.8,0.1-73.2,0
		c-9.6,0-19.2-0.8-28.6-2.6c-0.2,0-0.4-0.2-0.7-0.3c0-0.4-0.1-0.8-0.2-1.3c0-0.1,0-0.1,0.1-0.2c0.4,0,0.7,0,1.1,0.1
		c9.5,1.8,19.1,2.5,28.7,2.6c20.7,0.1,41.4,0,62.1,0.1c9.3,0,18.6,0,27.8-1c7.2-0.8,14.4-1.9,21.4-4
		C184.7,118.5,184.6,119.1,184.4,119.7z"></path>
	<path d="M184.8,115c-7.8,2.2-15.7,3.4-23.7,4.2c-5.9,0.5-11.9,0.8-17.9,0.8c-22.6,0-45.3,0-67.9,0
		c-10.5,0-21-0.8-31.4-2.7c-0.3-0.1-0.5-0.1-0.8-0.2c-0.2-0.5-0.2-1-0.2-1.5c11.9,2.3,23.9,2.9,35.9,2.9c21,0,41.9,0,62.9,0
		c12.3,0,24.6-0.8,36.7-3.5c2.2-0.5,4.3-1.1,6.5-1.6C185.1,113.9,185,114.5,184.8,115z"></path>
	<path d="M187.1,100.7c-5.6,1.6-11.3,2.9-17.1,3.8c-7.6,1.1-15.3,1.8-23.1,1.8c-25.2,0.1-50.5,0.1-75.7,0
		c-9.7,0-19.3-1-28.8-2.9c-0.3-0.1-0.7-0.2-1-0.3c-0.1-0.4-0.1-0.8-0.2-1.3c2.2,0.4,4.4,0.7,6.6,1.1c7.8,1.2,15.6,1.9,23.4,1.9
		c26,0.1,52,0.3,78-0.1c11.9-0.1,23.8-1.6,35.3-4.8c1-0.3,2-0.6,3-0.9C187.5,99.7,187.3,100.2,187.1,100.7z"></path>
	<path d="M186.1,105.6c-5.1,1.4-10.2,2.6-15.4,3.4c-9.5,1.4-19.1,2-28.7,2c-24.2-0.1-48.3,0.2-72.5-0.1
		c-9.3-0.1-18.4-1.1-27.5-2.9c-0.1-0.5-0.1-1-0.2-1.4c13.1,2.6,26.4,3.1,39.7,3.1c22-0.1,44.1,0.1,66.1-0.1
		c11.4-0.1,22.7-1.3,33.9-4.1c1.7-0.4,3.3-0.9,5-1.4C186.5,104.5,186.4,105,186.1,105.6z"></path>
	<path d="M185.3,110.3c-12.7,3.6-25.7,4.9-38.8,5.1c-25,0.2-50.1,0.2-75.1,0c-9.7-0.1-19.2-1-28.7-2.8
		c-0.3-0.5-0.3-1-0.3-1.5c2.9,0.4,5.8,0.9,8.6,1.3c8.5,1.2,17,1.6,25.5,1.6c22.8,0,45.6,0.1,68.4,0c13.1-0.1,26.1-1.3,38.8-4.7
		c0.6-0.2,1.2-0.3,1.8-0.5C185.6,109.3,185.6,109.8,185.3,110.3z"></path>
	<path d="M189.6,90.8c-6.3,2.1-12.7,3.6-19.2,4.6c-7.6,1.1-15.2,1.8-22.8,1.9C121,97.5,94.5,97.6,68,97.2
		c-9.6-0.2-19-1.3-28.4-3.3c-0.3-0.4-0.5-0.9-0.4-1.4C51.3,95.1,63.6,96,76,96c23.1,0,46.2,0.1,69.2,0c12.9-0.1,25.7-1.3,38.2-4.6
		c2.3-0.6,4.5-1.4,6.8-2.1C190.2,89.9,190,90.4,189.6,90.8z"></path>
	<path d="M194.4,75.3C183.3,80,171.7,82,159.8,83c-7.8,0.7-15.6,0.8-23.5,0.7c-20.9,0-41.8,0.1-62.7-0.1
		c-12.3-0.1-24.5-1.2-36.5-4.1c-1-0.2-1.9-0.8-3-0.6l0,0c0.1-0.2-0.1-0.2-0.2-0.2c-0.3-0.4-0.5-0.8-0.5-1.3c6.5,2,13.2,3.1,20,3.9
		c9.6,1.1,19.3,1.3,29,1.3c20.8,0,41.7,0,62.5-0.1c12.3-0.1,24.6-1.1,36.6-4.1c4.5-1.1,8.8-2.6,13.1-4.3
		C194.6,74.5,194.6,74.9,194.4,75.3z"></path>
	<path d="M193.6,80.2c-8.9,3.7-18.3,5.6-27.9,6.7c-8.9,1.1-17.9,1.3-26.8,1.3c-21.3,0-42.6,0-63.8,0
		c-12.5-0.1-25-1-37.2-4c-0.6-0.1-1.2-0.3-1.8-0.4c-0.2-0.4-0.3-0.8-0.3-1.2c13.4,3.5,27.2,4.5,41,4.5c21.7,0,43.4,0,65.1,0
		c12.9,0,25.7-0.9,38.3-3.8c4.7-1.1,9.2-2.6,13.7-4.3C193.9,79.4,193.7,79.8,193.6,80.2z"></path>
	<path d="M194.8,70.6c-10.5,4.5-21.5,6.6-32.8,7.7c-7.6,0.8-15.2,0.9-22.9,0.9c-22,0-43.9,0-65.9-0.1
		c-11.3-0.1-22.6-1-33.7-3.5c-2.2-0.5-4.4-1.1-6.6-1.7c-0.1-0.4-0.3-0.7-0.1-1.1c9.4,2.9,19.1,4.2,28.9,4.9
		c6.4,0.4,12.9,0.5,19.3,0.5c21.2,0,42.4,0,63.6-0.1c12.1-0.1,24.1-1.1,35.9-3.9c4.9-1.2,9.7-2.7,14.3-4.8
		C194.9,69.8,194.9,70.2,194.8,70.6z"></path>
	<path d="M188.2,95.8c-7.1,2.3-14.4,3.8-21.9,4.7c-7.1,0.9-14.2,1.3-21.3,1.3c-24.6,0-49.2,0.1-73.8-0.1
		c-10.1-0.1-20.2-1.1-30.1-3.1c-0.2,0-0.3-0.1-0.5-0.1c-0.2-0.4-0.3-0.9-0.3-1.3c12.3,2.6,24.7,3.4,37.2,3.4c22.5,0,45,0.1,67.5-0.1
		c12.4-0.1,24.7-1.2,36.7-4.2c2.3-0.6,4.6-1.3,6.9-2C188.6,94.8,188.5,95.3,188.2,95.8z"></path>
	<path d="M191.8,85.4c-7.6,3-15.5,4.6-23.6,5.7c-8.3,1.2-16.6,1.6-25,1.6c-24.5,0-49,0.2-73.5-0.1
		c-10.3-0.1-20.4-1.2-30.4-3.5c-0.3-0.1-0.7-0.2-1-0.1l0,0c0.1-0.2-0.1-0.2-0.2-0.2c-0.3-0.4-0.4-0.8-0.5-1.3
		c12.9,3.2,26.1,4.1,39.4,4.1c21.6,0.1,43.2,0,64.8,0c11.3,0,22.6-0.7,33.8-2.8c5.3-1,10.6-2.4,15.7-4.3c0.4-0.1,0.8-0.3,1.1-0.4
		C192.3,84.5,192.1,85,191.8,85.4z"></path>
	<path d="M194.8,66c-10.7,4.5-21.9,6.6-33.4,7.7c-7.2,0.7-14.4,0.9-21.6,0.9c-22.3,0-44.6,0-66.9-0.1
		c-11.9-0.1-23.7-1.1-35.3-4c-1.6-0.4-3.2-0.9-4.9-1.3c-0.2-0.3-0.2-0.7,0-1c8.6,2.6,17.4,3.9,26.4,4.7c9,0.8,18,0.7,27,0.7
		c19.5,0,39,0.1,58.5-0.1c11.9-0.1,23.8-1.1,35.4-3.8c5-1.2,9.9-2.8,14.7-4.8C194.9,65.4,194.9,65.7,194.8,66z"></path>
	<path d="M194.9,61.5c-12.1,5.2-24.9,7.2-37.9,8.1c-6,0.4-12,0.5-18,0.5c-20.5,0-41,0-61.5,0c-11.2,0-22.3-0.7-33.3-2.6
		c-3.8-0.7-7.5-1.6-11.2-2.7c-0.1-0.3-0.1-0.6,0-1c6.7,2,13.6,3.3,20.5,4.1c10.1,1.2,20.2,1.3,30.3,1.3c20.4,0,40.7,0,61.1-0.1
		c11.2-0.1,22.3-1,33.2-3.3c5.8-1.3,11.5-3,17-5.4C195.1,60.8,195.1,61.1,194.9,61.5z"></path>
	<path d="M196.8,42.5c-12.6,5.8-26.1,8-39.8,9c-5.8,0.4-11.6,0.5-17.4,0.5c-22.7,0-45.4,0.1-68.1-0.1
		c-12.5-0.1-24.8-1.4-36.9-4.7c-1.1-0.3-2.2-0.6-3.3-1c-0.1-0.2-0.2-0.5-0.1-0.7c2,0.6,4.1,1.2,6.1,1.7c11.8,2.9,23.9,4,36,4.1
		c23.1,0.1,46.1,0.1,69.2,0c12.3,0,24.5-0.9,36.6-3.6c6.1-1.4,12-3.2,17.6-6c0.1,0,0.2,0,0.4,0C196.9,42,196.8,42.2,196.8,42.5z"></path>
	<path d="M195.1,56.8c-8.6,3.7-17.6,5.8-26.8,7c-7.1,1-14.2,1.5-21.3,1.6c-25.2,0.1-50.4,0.1-75.6,0
		c-12.2-0.1-24.3-1.4-36.2-4.6c-0.8-0.2-1.7-0.5-2.5-0.7c0-0.3,0-0.6,0-0.9c7.8,2.4,15.8,3.7,23.9,4.5c7.2,0.7,14.4,0.9,21.5,1
		c20.8,0,41.6,0,62.4,0c9.7,0,19.4-0.4,29.1-1.8c8.8-1.3,17.4-3.3,25.6-7C195.2,56.2,195.2,56.5,195.1,56.8z"></path>
	<path d="M195.6,52c-9.9,4.4-20.4,6.6-31.1,7.8c-7.4,0.8-14.9,1.2-22.4,1.2c-22.9,0-45.8,0-68.6,0
		c-12.2,0-24.3-1.1-36.2-4c-1.6-0.4-3.2-0.8-4.9-1.3c-0.1-0.3-0.2-0.6,0-0.9c8.9,2.7,18.1,4.1,27.3,4.8c6.7,0.5,13.4,0.7,20.1,0.7
		c21.3,0,42.6,0,64,0c10.6,0,21.1-0.8,31.5-2.8c7-1.3,13.8-3.3,20.3-6.2C195.6,51.5,195.6,51.8,195.6,52z"></path>
	<path d="M31.5,50c5.9,2,12,3.2,18.1,4c10.3,1.5,20.6,1.8,31,1.8c21.5,0,43,0,64.4-0.1c12.2,0,24.3-1.1,36.2-4
		c5.1-1.3,10-3,14.8-5.1c0,0.3,0,0.5,0,0.8c-12.3,5.5-25.3,7.6-38.6,8.6c-5,0.4-10.1,0.5-15.1,0.5c-23.9,0-47.8,0.1-71.7-0.1
		c-13-0.1-25.8-1.6-38.3-5.4c-0.1,0-0.2,0-0.4,0C31.6,50.6,31.4,50.3,31.5,50z"></path>
	<path d="M59.2,32.6c5.7,0.6,11.4,0.7,17.1,0.7c6.6,0,13.3,0,19.9,0c0.4,0,0.9-0.1,1.3-0.1c0.4,0.1,0.9,0.2,1.2,0.5
		c-13.2,0-26.4,0.4-39.7-0.7c-0.3,0-0.6-0.1-0.9-0.2C58.5,32.8,58.9,32.7,59.2,32.6z"></path>
	<path d="M130,33.3c7.8,0.1,15.7,0.1,23.5-0.3c3.4-0.2,6.8-0.4,10.2-0.8c0.5-0.1,0.9,0.3,1.3,0.3
		c-12,1.5-24.1,1.3-36.2,1.3C129.2,33.5,129.6,33.4,130,33.3z"></path>
	<path d="M90.4,29.2c-6.9,0.1-13.7,0.1-20.6-0.2c6.6-0.4,13.3,0,19.9-0.2C89.9,29,90.2,29.1,90.4,29.2z"></path>
	<path d="M31.5,41c9.3,2.9,18.8,4.4,28.5,5.2c7.1,0.6,14.3,0.7,21.5,0.7c19.8,0,39.7,0,59.5,0c11.1,0,22.1-0.6,33.1-2.6
		c5.3-1,10.6-2.3,15.6-4c0.4-0.2,0.9-0.3,1.4-0.4c0.3,0.1,0.5,0.1,0.8,0.2c-3.6,1.6-7.4,2.6-11.3,3.5c-11.9,2.8-23.9,3.8-36,3.9
		c-23.4,0.1-46.9,0.1-70.3,0c-12.5,0-24.8-1.1-37-4.1c-2.2-0.5-4.3-1-6.4-1.9C30.9,41,31.2,41,31.5,41z"></path>
	<path d="M184.1,37.9c-2.9,1.1-5.8,1.6-8.8,2.2c-10.5,2-21.1,2.8-31.7,2.8c-23.3,0-46.7,0-70,0c-2,0-3.9,0-5.9-0.2
		c-4.9-0.5-9.8-0.4-14.7-1.1s-9.7-1.4-14.5-2.5C38.3,39,38,39,37.8,38.9c0.4-0.1,0.7-0.2,1.1-0.3c3.5,1,7,1.6,10.6,2.1
		c4.5,0.6,9,0.9,13.5,1.4c4.4,0.5,8.8,0.3,13.2,0.3c22.9,0.1,45.9,0.1,68.8,0c12.3,0,24.4-1.1,36.4-4c0.6-0.2,1.2-0.3,1.8-0.5
		C183.5,37.7,183.8,37.6,184.1,37.9z"></path>
	<path d="M175.5,35.4c-5.5,1.2-11.1,1.8-16.8,2.2c-8.4,0.7-16.8,0.6-25.2,0.6c-20.1,0-40.2,0-60.3-0.1
		c-7,0-14.1-0.5-21.1-1.3c-0.5,0-0.9-0.2-1.7-0.3c0.9-0.2,1.5-0.3,2.2-0.2c7.8,1,15.5,1.3,23.3,1.4c22.8,0,45.7,0,68.5,0
		c9.8,0,19.5-0.7,29.1-2.5c0.4-0.1,0.9-0.1,1.3-0.2C175.1,35.3,175.3,35.3,175.5,35.4z"></path>
</g>
</svg>
