<!--?xml version="1.0" encoding="utf-8"?-->
<!-- Generator: Adobe Illustrator 24.2.3, SVG Export Plug-In . SVG Version: 6.00 Build 0)  -->
<svg version="1.1" id="Camada_1" xmlns="http://www.w3.org/2000/svg" xmlns:xlink="http://www.w3.org/1999/xlink" x="0px" y="0px" viewBox="0 0 229 418" enable-background="new 0 0 229 418" xml:space="preserve">
<g onclick="select(this)" class="" id="estampa-primaria" fill="#ffffff">
	<path d="M42.4525146,112.7778625c-0.8959656-0.1017761-1.4921265,0.6431503-2.3408813,0.7894821
		c-2.3294182,0.4016266-4.6686974,0.4893799-7.0189934,0.5657349c-5.6645355,0.1840439-11.3184147-0.0333939-16.9397697-0.6843262
		c-5.0782709-0.5880508-9.9922829-1.9331818-14.739399-3.8523865c1.6968609-8.914566,2.4887414-17.9633636,4.0001216-26.9052277
		c0.8855782-5.2393951,1.1788788-10.5595551,2.2399788-15.7781677c1.7292542-8.504673,4.4516625-16.5878448,9.6675148-23.6606789
		c2.1221428-2.8776779,4.5377884-5.4906731,7.3400173-7.7103424c1.3638763-1.0803337,2.3639584-2.5835495,3.9253693-3.4050064
		c3.6099453-1.8991852,7.2583332-3.7276974,11.0324497-5.2813187c9.9905014-4.1125946,20.000515-8.1803665,29.4651909-13.4415846
		c1.9752426-1.0979939,3.9976349-2.0948963,5.5164642-3.8997173c0.8439026-1.0028076,2.0582657-1.6470857,3.4946365-1.5515785
		c-0.7558746,0.5328951-1.5331879,1.0660648-1.6987534,2.062746c-0.1725082,1.0384579-0.0040817,2.0608931,0.2305679,3.0806484
		c0.8830185,3.837533,3.1326141,6.8899431,5.7837296,9.6242762c4.1407776,4.2707672,9.0156021,7.5629692,14.3707428,10.1524506
		c3.6889725,1.783802,7.5359039,2.990303,11.6402817,3.2895241c0.3121796,0.0227585,0.7304688,0.2811508,0.9042816-0.2512054
		c0.4935303,0.34338,1.0183792,0.5796623,1.6344376,0.6280861c2.3348923,0.1835098,4.6674423,0.3629379,6.9804306-0.1974907
		c1.4196167-0.1702423,2.8583298-0.2460022,4.2553558-0.5279999c4.6530914-0.9392471,8.8572388-3.0047417,12.9284058-5.3568268
		c3.3010712-1.907156,6.3566895-4.1787777,9.102417-6.8089809c3.0971222-2.9667912,5.4711609-6.4257278,6.6416321-10.6471872
		c0.6194-2.2338791,0.0160675-4.2730255-1.6763763-4.744153c1.9420929-0.322947,3.1181183,0.8977289,4.248703,2.1526375
		c0.3474121,0.3856363,0.6847076,0.7271471,1.1279755,1.0213566c8.8716431,5.8886719,18.7898102,9.6126652,28.5267792,13.6823082
		c5.0673981,2.11796,10.038208,4.4440956,15.0911713,6.5874882c0.2853394,0.1210365,0.5591431,0.2838707,0.8124237,0.4636726
		c11.9666901,8.4952011,19.1779327,20.08321,21.3682709,34.4821701c1.7443542,11.4671555,4.7389374,22.6825333,6.318634,34.166687
		c0.3372803,2.4519806,0.734375,4.8957443,1.1039429,7.3433762c-0.6231995,0.2587509-1.2245331,0.6173401-1.8733063,0.7590942
		c-3.0727844,0.6713867-5.9807739,1.8872681-9.0736084,2.5406494c-3.9409485,0.8325424-7.895462,1.5586319-11.8859558,1.9935684
		c-5.5944672,0.6097641-11.2156982,0.2853394-16.8232422,0.0108337c-1.0757751-0.0526581-2.1148071-0.3867111-3.0544434-0.9562912
		c0.9133911-6.7970581,2.1953278-13.5191116,4.0814209-20.1194687c0.1157684-0.4051895,0.4060059-0.7978287,0.1864471-1.257576
		c0.2286835,0.013588,0.220459-0.1446915,0.208313-0.2966614c-0.0024261-0.0302887-0.0488129-0.0570526-0.0749512-0.0854416
		c-0.0375671,0.1338348-0.0751343,0.267662-0.1127014,0.4015045c-0.3382111,0.0892105-0.3290253,0.4327927-0.4303589,0.6598129
		c-2.0418243,4.5738068-3.5193329,9.3472748-4.7613068,14.1821518c-2.4084015,9.3755341-3.9837952,18.8970871-4.9313965,28.5371094
		c-0.4706268,4.7878876-0.8178406,9.5828094-1.1401062,14.3773499c-0.3235474,4.8140259-0.4896545,9.6474457-0.4935303,14.4725189
		c-0.0137329,17.0256653-0.293335,34.0512085,0.1540527,51.0777435c0.191925,7.3041687,0.2595215,14.6112518,0.5149689,21.9160767
		c0.170105,4.8651276,0.3197784,9.7314301,0.4851532,14.597168c0.2033081,5.9811401,0.4586487,11.9578552,0.7411346,17.9355164
		c0.2373199,5.0215149,0.4161835,10.0449524,0.8100586,15.0577393c-7.654129,1.0699463-15.3581696,1.3612976-23.0732422,1.4522095
		c-12.9472198,0.1525879-25.8881531,0.5621033-38.8301086,0.9285583c-6.7608643,0.1914368-13.4958496-0.465271-20.2470093-0.5768127
		c-8.7105942-0.1439209-17.4220123-0.2460938-26.1319199-0.4232483c-8.3101959-0.1690063-16.6230583-0.3526306-24.8476982-1.7511597
		c0.5422516-3.7596436,0.4815598-7.5604248,0.7390556-11.3394775c0.3821983-5.6092529,0.5796967-11.2329712,0.7604179-16.8535767
		c0.1423416-4.4268494,0.2932549-8.852417,0.473175-13.2781372c0.2545853-6.2624054,0.3896675-12.5300751,0.535202-18.7964172
		c0.0927391-3.9929047,0.1909142-7.9915466,0.1893997-11.9799347c-0.00811-21.4069519,0.6336784-42.8216705-0.6577225-64.2175446
		c-0.2539635-4.2076416-0.5594025-8.4050293-0.9685097-12.6003418c-0.4473228-4.5871887-1.0582695-9.1419525-1.8283081-13.6878357
		c-1.0712128-6.3238525-2.2926559-12.6049652-4.1846809-18.7393494c-0.5815163-1.8854294-1.0368538-3.8216553-1.9383469-5.6982117
		c-0.5278625,0.8900604,0.2040977,1.4512558,0.2923431,2.1296234c0.3710556,2.852478,0.8811569,5.6868515,1.2544365,8.5390854
		C42.1011581,108.9703293,42.5416451,110.8479462,42.4525146,112.7778625z"></path>
	<path d="M127.5429077,26.2013454c-6.4310379-0.0194588-12.8620758-0.0499077-19.2931213-0.0533142
		c-2.8337784-0.0015011-5.6675949,0.0519543-8.5014725,0.080719c-5.0048599-4.1429901-10.5227814-7.7175179-14.446312-13.0585613
		c-0.7870941-1.0714455-1.3979874-2.228776-1.9132462-3.447176c-0.3056183-0.7226677-0.0586929-0.9086885,0.6669769-0.8316221
		c7.1110229,0.755187,14.2389526,1.3106298,21.3717041,1.816123c5.5933609,0.3963957,11.1826706,0.3527241,16.7722092-0.018959
		c5.381424-0.3578434,10.7616425-0.7339849,16.1413574-1.1168613c1.9062347-0.1356678,3.8093567-0.3148613,5.8538818-0.4858923
		c-0.84935,2.3374853-2.1702576,4.2213564-3.6611938,5.995595c-1.937149,2.3052006-4.1574707,4.311861-6.5503387,6.1364632
		C131.8248596,22.8637238,129.6888275,24.5390263,127.5429077,26.2013454z"></path>
</g>
<g onclick="select(this)" class="" id="estampa-secundaria" fill="#000000">
	<path d="M0.24,114.6542282c0.6271161-1.7878494,0.8224663-3.6698303,1.1661001-5.5158844
		c1.7377599-9.3355179,2.6830091-18.7905045,4.2152777-28.158905c0.8371372-5.1183167,1.16395-10.3135071,2.2438636-15.4010773
		c2.5645728-12.0819054,7.5691438-22.7654305,17.4678421-30.6766548c0.7775764-0.6214561,1.4521866-1.3703766,2.1903515-2.0428543
		c0.3451481-0.3144302,0.6442928-0.7364502,1.2047501-0.6814384c-0.0749645,1.6059761,0.1229534,3.1710854,0.5459747,4.7288437
		c0.6680069,2.4599037,1.4169407,4.9054985,1.7061501,7.4531021c0.2146378,1.8907242,0.4906616,3.7744026,0.6715984,5.6699715
		c0.1705818,1.7870865,0.6796417,3.581852,0.7475548,5.4162331c0.0733261,1.9804459,0.2341652,3.9539604,0.2568321,5.9420509
		c0.0197411,1.7313614,0.3142319,3.4633598,0.2182579,5.2301826c-0.1990814,3.6648407-0.4385147,7.3668747,0.6670151,10.9356461
		c0.870327,2.8095245,2.2652817,5.4249191,3.2838707,8.1934357c1.2418289,3.3752823,2.4950294,6.7362823,3.232048,10.2573547
		c1.4714317,7.0297318,2.4152527,14.1403275,3.083271,21.2875595c0.0956345,1.0231552,0.4394264,2.0367966,0.1937675,3.082901
		c-2.6076508,1.4009094-5.5014153,1.7242203-8.3489456,1.8467484c-9.4315281,0.405838-18.8354473,0.1746674-28.0829659-2.0636215
		c-2.275907-0.5508652-4.5457335-1.1074448-6.6626148-2.1455231C0.24,116.8929443,0.24,115.7735825,0.24,114.6542282z"></path>
	<path d="M198.9492798,32.193943c0.0828857,2.8913574-1.1482391,5.5171928-1.6739044,8.2853203
		c-0.6529236,3.4384041-1.516861,6.8717194-1.5583191,10.3699036c-0.0311279,2.624855-0.6725616,5.152813-0.6838226,7.7827454
		c-0.022522,5.2558479-0.0332642,10.5199814-0.4218903,15.7707825c-0.3313751,4.4771729-1.6662903,8.6739502-3.4618073,12.747963
		c-1.6192932,3.6741028-2.6347046,7.5322571-3.5155945,11.4316025c-1.5335083,6.7881622-2.6850433,13.6340866-3.0792847,20.5925751
		c-0.0180206,0.3180313-0.0068359,0.6377106-0.0092621,0.9566269c-1.2092133,10.4014969-2.5391083,20.8274612-1.8426666,31.3033218
		c0.4762726,7.1637421-0.2927856,14.257782-0.2503052,21.3849945c0.0111847,1.8784332-0.0845337,3.7611389,0.0112915,5.634613
		c0.1634521,3.1956177,0.2180481,6.3759613-0.0296783,9.5769348c-0.3190308,4.1223755,1.321228,8.0088043,1.7123718,12.0587006
		c0.4197388,4.345993,0.6185608,8.683075,0.0735779,13.0327606c-0.307724,2.4560699-0.5639954,4.9186401-0.8354034,7.3791656
		c-0.048172,0.4367371-0.0223083,0.8622742,0.1295319,1.295639c2.2059479,6.2960052,2.4928589,12.7397766,1.4255066,19.2766266
		c-0.1702423,1.0426941-0.1786346,2.0525513,0.0632629,3.0855865c0.9680481,4.1340485,0.559906,8.3518524,0.7671051,12.5344696
		c0.2844086,5.742218,0.7003784,11.4784851,1.3840485,17.194397c0.2641449,2.2084656,0.1895905,4.4565735,0.2889252,6.685791
		c0.0548248,1.2302246-0.5783539,1.9311523-1.6734772,2.3232422c-1.5914917,0.5698547-3.2506714,0.828186-4.9135284,1.056427
		c-7.8588104,1.0787354-15.7657318,1.3553162-23.6872253,1.507019c-12.9133759,0.2472534-25.824707,0.6009216-38.7370529,0.9036255
		c-0.8785706,0.0206299-1.987587-0.0094299-2.8667068-0.0159607c0.0103836-0.3193665,0-0.6196289,0-0.9389954
		c0.0000381-82.8872375-0.0194321-165.8078156-0.0207062-248.6950684c2.5407333-0.0349236,5.037796-0.5681076,7.367691-1.1400261
		c8.5414581-2.0966644,15.6918335-6.6238842,21.9859924-12.6342602c2.701767-2.5799351,4.7475281-5.5838432,5.9295502-9.1463442
		c0.6358032-1.9162645,0.7891235-4.426156-0.8198853-5.3597393c1.5528717-0.0899782,2.4657135,0.9475689,3.371521,1.9553804
		c0.3452454,0.3841257,0.6681519,0.7420225,1.1163635,1.0370264c9.6365814,6.3423662,20.4152527,10.2876177,30.962326,14.7046118
		C190.0100861,28.037838,194.4651031,30.1446533,198.9492798,32.193943z"></path>
</g>
<g onclick="select(this)" class="" id="estampa-terciaria" fill="#bf083c">
	<path d="M109.8187256,286.2182617c0.003624-0.5596313,0.0104218-1.1192627,0.0104294-1.678894
		c0.000473-82.1123352,0.0002213-164.2246704,0.0053253-246.3370209c0.0000381-0.5535545-0.1057663-1.1208305,0.1232224-1.6602592
		c1.948288,0.279686,3.9111252,0.0722809,5.8636703,0.1868477c0.0012817,82.8872528,0.0025787,165.7745056,0.0025482,248.6617432
		c0,0.3193665-0.0193024,0.6387634-0.029686,0.9580994C113.8014984,286.3440247,111.8042221,286.5506897,109.8187256,286.2182617z"></path>
</g>
<g onclick="select(this)" class="" id="detalhe-lateral" fill="#bf083c">
	<path d="M180.3169098,283.9697266c-0.3938751-5.0127869-0.5727386-10.0362244-0.8100586-15.0577393
		c-0.282486-5.9776611-0.5378265-11.9543762-0.7411346-17.9355164c-0.1653748-4.8657379-0.3150482-9.7320404-0.4851532-14.597168
		c-0.2554474-7.3048248-0.3230438-14.611908-0.5149689-21.9160767c-0.4473877-17.026535-0.1677856-34.0520782-0.1540527-51.0777435
		c0.0038757-4.8250732,0.1699829-9.658493,0.4935303-14.4725189c0.3222656-4.7945404,0.6694794-9.5894623,1.1401062-14.3773499
		c0.9476013-9.6400223,2.522995-19.1615753,4.9313965-28.5371094c1.2419739-4.834877,2.7194824-9.608345,4.7613068-14.1821518
		c0.1013336-0.2270203,0.0921478-0.5706024,0.4303741-0.6598129l-0.0207214-0.0194473
		c0.2196045,0.4597931-0.0706329,0.8524323-0.1864014,1.2576218c-1.8860931,6.6003571-3.1680298,13.3224106-4.0814209,20.1194611
		c-0.4264069,2.5465698-0.4257202,5.1188202-0.4629211,7.688797c-1.2378235,10.3072052-2.2989655,20.6278992-1.9510498,31.0315857
		c0.0821381,2.4562225,0.7914734,4.8716583,0.4144745,7.3699951c-0.3516235,2.3302765-0.4445953,4.684967-0.4245453,7.0450745
		c0.0559845,6.582428,0.098587,13.1757202-0.1155396,19.7438812c-0.1456757,4.4695435,0.7072906,8.6924438,1.4236298,12.9963837
		c0.8506927,5.1109314,0.9480896,10.2349701,0.2398224,15.3761444c-0.3209076,2.3293762-0.54039,4.6726532-0.8144379,7.008606
		c-0.0490723,0.4181976,0.1008759,0.7893066,0.2301788,1.1618195c1.989563,5.7316895,2.4832916,11.6064911,1.5848999,17.5875092
		c-0.3058167,2.0359802-0.3425293,4.0207977,0.0992279,6.0381927c0.4457397,2.035675,0.5504761,4.1139832,0.5100098,6.1976929
		c-0.1430817,7.3665771,0.683609,14.670929,1.384079,21.9852905c0.2195892,2.2928162,0.3340759,4.5978088,0.3145142,6.9078064
		c-0.0094452,1.1127625-0.4973297,1.8139954-1.5031281,2.1914368
		C184.1745911,283.5326233,182.2864838,283.9595947,180.3169098,283.9697266z"></path>
	<path d="M42.4525146,112.7778625c0.0891304-1.9299164-0.3513565-3.8075333-0.5991211-5.7007065
		c-0.3732796-2.8522339-0.8833809-5.6866074-1.2544365-8.5390854c-0.0882454-0.6783676-0.8202057-1.239563-0.2923431-2.1296234
		c0.9014931,1.8765564,1.3568306,3.8127823,1.9383469,5.6982117c1.892025,6.1343842,3.1134682,12.4154968,4.1846809,18.7393494
		c0.7700386,4.5458832,1.3809853,9.100647,1.8283081,13.6878357c0.4091072,4.1953125,0.7145462,8.3927002,0.9685097,12.6003418
		c1.2914009,21.395874,0.6496124,42.8105927,0.6577225,64.2175446c0.0015144,3.9883881-0.0966606,7.98703-0.1893997,11.9799347
		c-0.1455345,6.2663422-0.2806168,12.5340118-0.535202,18.7964172c-0.1799202,4.4257202-0.3308334,8.8512878-0.473175,13.2781372
		c-0.1807213,5.6206055-0.3782196,11.2443237-0.7604179,16.8535767c-0.2574959,3.7790527-0.196804,7.579834-0.7390556,11.3394775
		c-1.7242279-0.0837708-3.3719635-0.5368042-4.9835625-1.1030884c-1.6184654-0.5686951-2.0121346-1.1141663-1.9840698-2.8423157
		c0.0452156-2.7842407,0.1874161-5.5641479,0.4140472-8.3428955c0.431675-5.2928772,0.7171974-10.5978699,1.1692505-15.8888245
		c0.4074936-4.7694855-0.0650482-9.592804,0.9218788-14.3255157c0.1883888-0.9033813,0.0964546-1.8375397-0.042675-2.744751
		c-0.4781952-3.1182098-0.3503647-6.2133179,0.3311234-9.2835846c0.1949081-0.8781128,0.1388702-1.7289124,0.0771484-2.6109161
		c-0.2841988-4.0611115-0.8382988-8.1011047-0.8580627-12.1838684c-0.0239258-4.942688,1.0864563-9.6556549,2.7438126-14.2636871
		c0.3171997-0.881958,0.5332336-1.7270813,0.4237556-2.675354c-0.1839256-1.5931854-0.141243-3.1873627,0.1506195-4.7743683
		c0.1077003-0.5856476,0.1623573-1.1927948,0.1462173-1.7875824c-0.1308823-4.8229065-0.2779045-9.645401-0.4356956-14.4675293
		c-0.0367355-1.1227112,0.0765038-2.2321014,0.1623611-3.3472748c0.144268-1.8738251,0.1034241-3.7475739-0.048111-5.6235199
		c-0.4092598-5.0663605-0.1779556-10.145752-0.0681305-15.2097778c0.196312-9.0511017-0.2082138-18.0476379-1.5041733-27.0064316
		c-0.2226868-1.5393982-0.3748512-3.0890045-0.5595245-4.6338654c0.5152626-1.2158585-0.2161751-2.3334808-0.3642349-3.4790726
		C42.6969795,115.5973511,42.9329262,114.1476212,42.4525146,112.7778625z"></path>
</g>
<path d="M189.3682404,91.1565399c0.0375671-0.1338425,0.0751343-0.2676697,0.1127014-0.4015045
	c0.0261383,0.028389,0.072525,0.0551529,0.0749512,0.0854416c0.012146,0.1519699,0.0203705,0.3102493-0.208313,0.2966614
	C189.3475342,91.1370926,189.3682556,91.1565399,189.3682404,91.1565399z"></path>
<g onclick="select(this)" class="" id="gola-primaria" fill="#000000">
	<path d="M109.3256989,35.9207878c-0.1734467,0.532753-0.5917358,0.2743607-0.9039154,0.2516022
		c-4.1043777-0.299221-7.9513092-1.505722-11.6402817-3.2895241c-5.3551407-2.5894814-10.2299652-5.8816833-14.3707428-10.1524506
		c-2.6511154-2.734333-4.9007111-5.7867432-5.7837296-9.6242762c-0.2346497-1.0197554-0.4030762-2.0421906-0.2305679-3.0806484
		c0.1655655-0.9966812,0.9428787-1.529851,1.6987534-2.062746c0.5144196-0.0249214,0.9029312-0.3084855,1.2525024-0.6408176
		c0.9263763-0.8806958,2.0002518-1.6613083,2.7274628-2.6858997c2.0422745-2.8774152,5.0195923-3.6035271,8.2394028-3.9384618
		c3.0734558-0.3197089,6.1407471,0.0640202,9.2119827,0.0276009c4.3973541-0.0521445,8.7971802,0.0443054,13.1931534-0.0513445
		c7.9102249-0.1721148,15.8182297,0.0474188,23.7272263,0.0364116c0.9124146-0.0012698,1.828537,0.1745476,2.7369537,0.3088157
		c2.2481232,0.332287,4.1498718,1.1915944,5.5701294,3.1200867c1.2012482,1.6310925,2.6129456,3.1247711,4.4388733,4.1271977
		c1.6919098,0.471426,2.2952423,2.5105724,1.6758423,4.7444515c-1.1704712,4.2214594-3.5445099,7.6803961-6.6416321,10.6471872
		c-2.7457275,2.6302032-5.8013458,4.901825-9.102417,6.8089809c-4.071167,2.3520851-8.2753143,4.4175797-12.9284058,5.3568268
		c-1.3970261,0.2819977-2.8357391,0.3577576-4.2551346,0.5281792c0.4981461-1.1476097,1.3241043-2.0655403,2.1212006-3.0007629
		c2.248703-2.6383533,4.9448242-4.810585,7.4805527-7.1498508c2.1459198-1.6623192,4.2819519-3.3376217,6.4404449-4.9834862
		c2.392868-1.8246021,4.6131897-3.8312626,6.5503387-6.1364632c1.4909363-1.7742386,2.8118439-3.6581097,3.6611938-5.995595
		c-2.0445251,0.171031-3.9476471,0.3502245-5.8538818,0.4858923c-5.379715,0.3828764-10.7599335,0.7590179-16.1413574,1.1168613
		c-5.5895386,0.3716831-11.1788483,0.4153547-16.7722092,0.018959c-7.1327515-0.5054932-14.2606812-1.060936-21.3717041-1.816123
		c-0.7256699-0.0770664-0.9725952,0.1089544-0.6669769,0.8316221c0.5152588,1.2184,1.126152,2.3757305,1.9132462,3.447176
		c3.9235306,5.3410435,9.441452,8.9155712,14.446228,13.0588207
		C103.1151276,29.2874451,106.6069336,32.222599,109.3256989,35.9207878z"></path>
</g>
<g onclick="select(this)" class="" id="gola-secundaria" fill="#bf083c">
	<path d="M127.5429077,26.2013435c-2.5357285,2.3392677-5.2318497,4.5114994-7.4805527,7.1498528
		c-0.7970963,0.9352226-1.6230545,1.8531532-2.1212006,3.0007591c-2.3132095,0.5602531-4.6457596,0.380825-6.9806519,0.1973152
		c-0.6160583-0.0484238-1.1409073-0.2847061-1.6344376-0.6280861c-2.7191315-3.6985855-6.2109375-6.6337395-9.5777512-9.6924343
		c2.8338776-0.0287647,5.6676941-0.0822201,8.5014725-0.080719
		C114.6808319,26.1514378,121.1118698,26.1818867,127.5429077,26.2013435z"></path>
</g>
<g onclick="select(this)" class="" id="detalhe-punho" fill="#bf083c">
	<path d="M0.24,114.41436c0.5066518-1.0333099,0.4623487-2.1853943,0.7029477-3.2761536
		c0.1164828-0.5280762,0.0638708-1.1035385,0.4705237-1.5418396c4.7471166,1.9192047,9.661128,3.2643356,14.739399,3.8523865
		c5.6213551,0.6509323,11.2752342,0.8683701,16.9397697,0.6843262c2.350296-0.076355,4.6895752-0.1641083,7.0189934-0.5657349
		c0.8487549-0.1463318,1.4449158-0.8912582,2.3408813-0.7894821c0.4804115,1.3697586,0.2444649,2.8194885,0.4263916,4.2271881
		c0.1480598,1.1455917,0.8794975,2.2632141,0.3643112,3.4790955c-2.841095,1.3330917-5.9081955,1.7382584-8.9673958,1.7949448
		c-7.0645809,0.130928-14.1399384,0.3043518-21.1575737-0.9066238c-3.6142483-0.6236801-7.2130728-1.2875977-10.7040243-2.4304047
		c-0.7462479-0.2443008-1.4505816-0.6164856-2.1742241-0.9297638C0.24,116.8129883,0.24,115.613678,0.24,114.41436z"></path>
	<path d="M184.6167908,120.2029724c0.0372009-2.5699768,0.0365143-5.1422272,0.4629211-7.688797
		c0.9396362,0.5695877,1.9786682,0.9036407,3.0544434,0.9562988c5.6075439,0.2745056,11.228775,0.5989304,16.8232422-0.0108337
		c3.9904938-0.4349365,7.9450073-1.161026,11.8859558-1.9935684c3.0928345-0.6533813,6.000824-1.8692627,9.0736084-2.5406494
		c0.6487732-0.1417542,1.2501068-0.5003433,1.873291-0.7590942c1.0290527,2.4653549,1.3149261,5.0500107,1.1316986,7.6846695
		c-0.0435181,0.6258698-0.7669983,0.7556763-1.2712555,0.942894c-3.2154999,1.1938553-6.5277557,2.0655441-9.8517761,2.8920898
		c-8.3978119,2.0882339-16.9433594,2.4642563-25.539505,2.1048508c-1.8251953-0.0763016-3.6426392-0.4177322-5.4543915-0.6971664
		C186.0230713,120.9730606,185.2617188,120.7066879,184.6167908,120.2029724z"></path>
</g>
</svg>
