<!--?xml version="1.0" encoding="utf-8"?-->
<!-- Generator: Adobe Illustrator 24.2.3, SVG Export Plug-In . SVG Version: 6.00 Build 0)  -->
<svg version="1.1" id="Camada_1" xmlns="http://www.w3.org/2000/svg" xmlns:xlink="http://www.w3.org/1999/xlink" x="0px" y="0px" viewBox="0 0 234 419" enable-background="new 0 0 234 419" xml:space="preserve">
<g onclick="select(this)" class="" id="c-estampa-primaria" fill="#000000">
	<path d="M203.8483276,32.2845345c0.2733459,0.1604347,0.5708313,0.2904778,0.8165588,0.4856949
		c10.1933899,8.0975609,16.7267914,18.4918518,19.7408295,31.162365c1.3155975,5.5304718,2.1200409,11.1263275,2.858902,16.7504196
		c0.7853394,5.9780731,2.0124207,11.8930359,2.7431183,17.882164c0.5366821,4.3988495,1.4192352,8.7404556,2.1559143,13.1059036
		c0.2952118,1.7492828,0.7397766,3.4733658,1.1163635,5.2089233c0,1.0400009,0,2.0799942,0,3.1200027
		c-3.4725342,0.6932068-6.930191,1.4599991-10.4356842,1.9851532c-7.909256,1.1848984-15.839798,2.074646-23.8575287,1.8457947
		c-2.7822266-0.0794144-5.4807281-0.4779205-7.9298401-1.9480133c-0.9024353-0.5416794-2.1662292-0.2684326-2.9029846-1.2300415
		c0.2689056-1.316597,0.0010986-2.6468201,0.1371002-3.9802017c0.2865295-2.8091431,0.8761597-5.6096573,0.7208099-8.4386902
		c-0.0996094-1.8141556-0.0415955-3.6085663,0.2869263-5.3606339c0.6317139-3.3688889,1.312149-6.7053375,1.3780975-10.1658249
		c0.0653229-3.4284363,0.5329742-6.8417206,1.217804-10.212204c0.3261261-1.605011,0.6104584-3.3583603,1.8852844-4.4149857
		c1.1981354-0.9930725,1.8749847-2.2294006,2.6460571-3.4743271c2.2872925-3.6928635,3.1263275-7.9172363,4.4207764-11.9716034
		c1.6056061-5.028965,2.8253326-10.1539421,3.0865784-15.4427185c0.2150421-4.3534508,0.0613708-8.7109032-0.3554077-13.0557632
		C203.518631,33.5170288,203.4064331,32.8490295,203.8483276,32.2845345z"></path>
	<path d="M0.2399999,116.4000015c0.3990944-1.8923798,0.7992355-3.7845383,1.1970596-5.6771851
		c0.7556592-3.5950546,1.2740115-7.2296906,1.7788073-10.8652725c0.9360778-6.7417145,2.825887-13.2774429,4.2380676-19.9160233
		c0.9136658-4.2950897,1.1781807-8.706604,2.153883-12.9992218c1.6027317-7.0512238,3.8376999-13.8576126,7.7096853-20.0301361
		c2.8096981-4.4790878,6.324873-8.3409996,10.4916496-11.5832138c1.2201462-0.9494095,2.1714745-2.2272186,3.5975418-2.9156609
		c0.409853,0.666275,0.4419289,1.4347534,0.1384087,2.0693893c-0.2150822,0.4497261-0.1618748,0.7929611-0.1443195,1.219677
		c0.0343647,0.8352852,0.0157471,1.6772995-0.048336,2.5113487c-0.40481,5.2684479-0.3184166,10.5060234,0.6754837,15.7215576
		c0.9136086,4.7941971,2.5120468,9.3893089,3.8648491,14.0578041c0.9538612,3.291748,2.4152756,6.3087997,4.3255997,9.1502914
		c0.9040985,1.3447723,1.7531815,2.7823563,2.0989113,4.4021835c0.2641869,1.2378159,0.280941,2.5299911,0.5647278,3.7618179
		c1.2920685,5.6083755,1.5528221,11.352562,2.3044205,17.0313797c0.3198624,2.4167786,0.1186905,4.8932114,0.9038048,7.2596741
		c0.9446297,2.8472748,0.1950264,5.7997513,0.4697762,8.6912003c-0.4242439,0.4347839-0.2552528,0.9883957-0.2157631,1.4687347
		c0.0981255,1.1936569-0.469677,1.5954437-1.5789909,1.757782c-6.8482971,1.0021515-13.6845665,1.0294418-20.5538177,0.1363907
		c-7.7710991-1.0103149-15.5229464-2.1032791-23.1701088-3.8450317c-0.2689152-0.0612564-0.5343078-0.13797-0.8013411-0.2074814
		C0.24,117.2000046,0.24,116.8000031,0.2399999,116.4000015z"></path>
	<path d="M81.8232574,7.9648337c1.9933167,0.3221059,4.0146713,0.3454776,6.0174026,0.6403394
		c4.3357544,0.6383495,8.6800003,1.2529688,13.0565796,1.560708c3.2247009,0.2267456,6.4560852,0.363286,9.6786346,0.6149645
		c9.567894,0.7472448,19.0577316-0.3929892,28.5633621-1.1391401c4.1289215-0.3241014,8.2169189-0.9859085,12.2993622-1.6656408
		c0.7037048-0.1171703,1.4390411,0.1179075,2.1116333-0.2282166c2.0036774,0.1278214,3.4710236,1.1499076,4.7623596,2.6351333
		c1.0020447,1.1525259,2.4355469,1.7944489,3.754364,2.5350866c9.5250549,5.3492413,19.5428925,9.6384945,29.6755066,13.6653862
		c3.976944,1.5805149,7.6895142,3.714653,11.6385498,5.343462c0.1751404,0.0722351,0.3122711,0.2365589,0.4672089,0.3578014
		c-0.4417877,0.564312-0.3295898,1.2323112-0.2702179,1.8512306c0.4167786,4.3448601,0.5704498,8.7023125,0.3554077,13.0557632
		c-0.2612457,5.2887764-1.4809723,10.4137535-3.0865784,15.4427185c-1.2944489,4.0543671-2.1334839,8.2787399-4.4207764,11.9716034
		c-0.7710724,1.2449265-1.4479218,2.4812546-2.6460571,3.4743271c-1.274826,1.0566254-1.5591583,2.8099747-1.8852844,4.4149857
		c-0.6848297,3.3704834-1.1524811,6.7837677-1.217804,10.212204c-0.0659485,3.4604874-0.7463837,6.796936-1.3780975,10.1658249
		c-0.3285217,1.7520676-0.3865356,3.5464783-0.2869263,5.3606339c0.1553497,2.8290329-0.4342804,5.6295471-0.7208099,8.4386902
		c-0.1360016,1.3333817,0.1318054,2.6636047-0.1371002,3.9802017c-0.4350891,0.263176-0.2786713,0.715744-0.3222961,1.0867538
		c-1.2314911,10.473053-1.4573364,20.9770508-0.9196167,31.5013428c0.1637268,3.2047577-0.0886078,6.3917847-0.2826843,9.5842133
		c-0.3670654,6.0379333,0.1181488,12.0710449,0.138382,18.1070557c0.0092773,2.7614899-0.1012573,5.5138702-0.4396057,8.2587128
		c-0.230484,1.8700409-0.2589111,3.7496338,0.0620117,5.6197815c0.0405121,0.2361603,0.1031952,0.4799652,0.0820007,0.7135315
		c-0.2838898,3.1296539,0.5130768,6.0734406,1.3882141,9.0382385c1.7550659,5.945816,1.9432831,12.0373993,1.4457397,18.179657
		c-0.3086853,3.81073-0.8158722,7.6157532-0.0127716,11.4479828c0.2575378,1.2289734,0.1828766,2.5572357,0.0838165,3.8262939
		c-0.5065918,6.489624,0.6947327,12.8989105,0.8700562,19.3584442c0.1549835,5.7108765,0.6989136,11.4110413,1.0653229,17.1163025
		c0.1377563,2.1451721,0.3072357,4.2897949,0.3751221,6.437439c0.0753174,2.3829956-0.1534729,2.7092896-2.47435,3.3816528
		c-5.4622803,1.5823669-11.0361633,2.6375427-16.6871033,3.2367249
		c-13.3432159,1.4147339-26.7450714,1.5118408-40.1407776,1.6253357
		c-18.5563354,0.1572266-37.1143112,0.4963074-55.6699982,0.2002258
		c-10.0061951-0.1596985-19.9645538-1.045929-29.6639862-3.7774963c-3.6877174-1.0385132-3.8098068-1.0596008-3.5862617-4.8075562
		c0.4208603-7.0561829,0.9863625-14.1039124,1.5108299-21.1536865c0.2403526-3.2307434-0.1090736-6.4821472,0.3631821-9.7032776
		c0.0753365-0.5138397,0.0891571-1.0436249,0.2247772-1.5405273c0.8576775-3.1424103,0.1064415-6.2772522-0.0441322-9.4089661
		c-0.2265205-4.7113037,0.2113113-9.3542786,1.4141121-13.8990173c0.4223328-1.5957642,0.482132-3.1339722,0.2889442-4.7234497
		c-1.0502625-8.64151-0.9072342-17.2306824,1.0492516-25.7521515c0.3312035-1.4425507,0.4703064-2.931427,0.352829-4.410965
		c-0.3772812-4.7516632,0.0093384-9.5094604-0.1702347-14.2636719c-0.2127266-5.6320648-0.0184174-11.2757263-0.4517708-16.9031372
		c-0.2772369-3.6000824,0.4068794-7.1681213,0.2987823-10.7771759c-0.2909508-9.7139587-0.8827133-19.4097748-1.4747124-29.1067963
		c-0.0180473-0.2956238,0.0988388-0.6580276-0.2670174-0.8551025c-0.2747612-2.891449,0.4748421-5.8439255-0.4697876-8.6912003
		c-0.7851143-2.3664627-0.5839424-4.8428955-0.9038048-7.2596741c-0.7515984-5.6788177-1.012352-11.4230042-2.3044205-17.0313797
		c-0.2837868-1.2318268-0.3005409-2.5240021-0.5647278-3.7618179c-0.3457298-1.6198273-1.1948128-3.0574112-2.0989113-4.4021835
		c-1.9103241-2.8414917-3.3717384-5.8585434-4.3255997-9.1502914c-1.3528023-4.6684952-2.9512405-9.263607-3.8648491-14.0578041
		c-0.9939003-5.2155342-1.0802937-10.4531097-0.6754837-15.7215576c0.0640831-0.8340492,0.0827007-1.6760635,0.048336-2.5113487
		c-0.0175552-0.4267159-0.0707626-0.7699509,0.1443195-1.219677c0.3035202-0.6346359,0.2714443-1.4031143-0.1384087-2.0693893
		c4.2559223-1.9925022,8.474226-4.0644226,12.849184-5.7981167c7.1582146-2.8366299,14.2091446-5.927412,21.2223091-9.1037693
		c3.9020386-1.7672882,7.5175247-4.0415335,11.1048813-6.3594542c0.3909531-0.2526073,0.6922073-0.6504154,1.0171356-0.9976597
		C78.7506866,8.9248152,80.0444946,7.9791746,81.8232574,7.9648337z"></path>
</g>
<g onclick="select(this)" class="" id="c-estampa-secundaria" fill="#9e9e9e">
	<path d="M186.8598022,134.1413879c-0.2196655-2.0258026-0.2645111-4.061142-0.3042297-6.0952148
		c-0.3043976-15.5949554-0.5372925-31.1907806-0.4195709-46.7894211c0.0694275-9.1982346,0.1929474-18.3958435,0.4037476-27.5921326
		c0.0375824-1.6399536,0.1230774-3.275383,0.3307953-5.1337624c0.6946564,19.6751518,1.0125275,39.1255989,0.6387939,58.5838432
		c-0.1075287,5.5979004-0.2210083,11.1957245-0.3069916,16.7939606c-0.0107117,0.6981201-0.2117157,1.4322357,0.1948242,2.0986938
		c0.0981445,1.980896-0.2007446,3.9432831-0.3195343,5.9125214
		C187.0333862,132.6534729,187.1531982,133.4252472,186.8598022,134.1413879z"></path>
	<path d="M61.2368965,288.3552551c-0.0445328-2.5974426-0.0657501-5.1955872-0.1373634-7.7922974
		c-0.4762993-17.2715759-0.5831604-34.5448151-0.2314377-51.8197632c0.1245384-6.1166534,0.2892113-12.2325134,0.4502106-18.3483734
		c0.0262413-0.9967041,0.1288376-1.9914246,0.2379837-2.985733c0.3285789,7.5259552,0.4327736,15.0550995,0.529995,22.5838776
		c0.2411575,18.6753998,0.1116371,37.3489838-0.3327408,56.0205841c-0.0190201,0.7991028-0.0042915,1.5990295-0.0052795,2.3985901
		C61.5666656,288.4933777,61.3887024,288.5419006,61.2368965,288.3552551z"></path>
	<path d="M173.0838623,287.5172119c0.1424408-0.4299011,0.0836182-0.8721313,0.0740967-1.3098755
		c-0.3752136-17.2706604-0.5155487-34.542984-0.3478394-51.8171539c0.0795898-8.1964111,0.212204-16.3921051,0.4715424-24.5852051
		c0.0177002-0.5591431,0.0682831-1.1172333,0.1528778-1.6775818c0.0553131,0.9273376,0.1316833,1.8539581,0.1628876,2.7821045
		c0.6581573,19.5848083,0.896698,39.173111,0.4807892,58.7668304c-0.1255798,5.9156799-0.2389374,11.831604-0.3578796,17.7474365
		C173.5318756,287.6163025,173.3092804,287.5763245,173.0838623,287.5172119z"></path>
	<path d="M170.6798859,287.7865906c0.3279724-0.6046143,0.1519928-1.2547302,0.139267-1.879425
		c-0.2554321-12.5576172-0.3566742-25.1164551-0.2879333-37.6762238c0.0523071-9.5593872,0.1826324-19.1180115,0.3943481-28.6753693
		c0.0476379-2.1499786,0.1314087-4.2979126,0.33461-5.962265c0.1212158,4.1704102,0.256897,8.8194275,0.3913727,13.4684753
		c0.4186859,14.4755707,0.5232239,28.9540558,0.3001404,43.4333038c-0.088089,5.7175598-0.0670776,11.4388123-0.381897,17.1517944
		C171.28125,287.7450867,171.042099,288.1576843,170.6798859,287.7865906z"></path>
	<path d="M63.3768997,288.5573425c-0.7364731-24.9955444-0.6447945-49.9875183,0.3972435-74.9801331
		c0.0738945,1.5909882,0.1788864,3.1812439,0.2169724,4.7730865c0.5023918,20.9961548,0.5369072,41.9941254,0.212986,62.9931183
		c-0.0376129,2.4388123-0.1621475,4.8763733-0.0875549,7.3164673
		C63.855545,288.730011,63.5891609,288.8388367,63.3768997,288.5573425z"></path>
	<path d="M65.3089218,288.750946c0.1754684-0.42453,0.1008682-0.8682251,0.0907288-1.3044128
		c-0.5097809-21.9444885-0.3195496-43.8847961,0.3914719-65.8219757c0.0192719-0.5944672,0.0605927-1.1882324,0.1643219-1.7925415
		c0.2283783,0.3256226,0.1827774,0.7075043,0.1913147,1.0715485c0.5210876,22.2202911,0.6554947,44.4422607,0.2847443,66.6664124
		c-0.0072708,0.4361267-0.084404,0.8803711,0.098587,1.3032532
		C66.1095123,288.9674683,65.6835175,289.1158752,65.3089218,288.750946z"></path>
	<path d="M168.4644928,287.9674683c-0.0298615-3.7576599-0.0438843-7.5155029-0.0923309-11.2729187
		c-0.2360535-18.3132019,0.0328217-36.6224823,0.4153137-54.930954c0.0041351-0.198288,0.0258636-0.3962097,0.0469666-0.7056732
		c0.4287415,0.3486938,0.2996368,0.7651062,0.3083801,1.1036072c0.2149048,8.3131104,0.4880371,16.6247406,0.5854187,24.9408112
		c0.1554565,13.2742462,0.1214142,26.547287-0.1620789,39.8195648c-0.0067749,0.3170166-0.0660553,0.6401978,0.0749664,0.9463501
		C169.2681885,288.1299133,168.8637848,288.018219,168.4644928,287.9674683z"></path>
	<path d="M144.763855,289.0224609c0.2815552-0.442627,0.1523743-0.9360046,0.1471252-1.403595
		c-0.1521912-13.5108032-0.1025848-27.0212402,0.0995178-40.5308533c0.0855103-5.7146149,0.2646484-11.4278412,0.4030762-17.1416321
		c0.0054474-0.2255249,0.0297089-0.4506073,0.0428772-0.6418915c0.1955566,0.9583588,0.1859589,1.9657135,0.2189941,2.9685059
		c0.604248,18.3401642,0.8437653,36.6841888,0.5843658,55.0336761c-0.0077972,0.5524292-0.1238098,1.1195374,0.1114197,1.6585999
		C145.8467102,289.301178,145.3092804,289.274292,144.763855,289.0224609z"></path>
	<path d="M48.3035088,164.8502197c0.1816292,0.2953339,0.0994606,0.6233063,0.1036987,0.9361725
		c0.1081772,7.9917297,0.2075691,15.9835968,0.3153954,23.9753265c0.2205429,16.3467865,0.0590057,32.6913452-0.2566872,49.0353546
		c-0.0632935,3.2769165-0.0986099,6.553833-0.3593674,9.8244171c-0.3021317-7.53685-0.5419083-15.0753937-0.6254425-22.6183929
		c-0.0048637-0.4393921-0.0186005-0.8787842-0.0356331-1.3179016c-0.0092964-0.2396698-0.1470528-0.3500366-0.3847008-0.3387451
		c0.2475281-1.3392181,0.2984695-2.6730194,0.0002365-4.0181427c-0.0836792-0.3773956,0.0008163-0.792099,0.0081749-1.189682
		c0.3985596-0.2983551,0.2408943-0.7337646,0.2405777-1.1077118c-0.0044594-5.1960754-0.0230522-10.3921661-0.0444336-15.5882263
		c-0.0017853-0.4346619,0.0508347-0.8825531-0.1713753-1.2905579c0.0827332-1.782486,0.4241295-3.5303802,0.7832146-5.2684631
		c0.5848351-2.8308716,0.7492905-5.6560211,0.4318581-8.5420227c-0.1773491-1.6123962-0.2178917-3.2643127,0.0962524-4.894104
		c0.1516991-0.7870636,0.0551033-1.5951233,0.0094833-2.3929749
		C48.1250916,174.9882202,48.1716919,169.9195709,48.3035088,164.8502197z"></path>
	<path d="M88.0074234,289.3964539c-0.3337326-19.9745483-0.0916595-39.9421082,0.6575623-59.9167328
		c0.1959,0.5080109,0.1887817,1.0131989,0.2022476,1.5167236c0.3984756,14.9099274,0.5521164,29.8226776,0.511734,44.7375946
		c-0.0123367,4.558136-0.0419159,9.1162109-0.0635986,13.6743164
		C88.8793945,289.4043579,88.4434052,289.4003906,88.0074234,289.3964539z"></path>
	<path d="M90.0545807,289.4369202c0.1879578-0.3811646,0.0946655-0.7875061,0.0900192-1.1809387
		c-0.1638565-13.8398438,0.0363693-27.6764526,0.3664856-41.511795c0.0591507-2.4787903,0.1404037-4.9570313,0.217308-7.4353638
		c0.04422-1.425293,0.1194-2.8486938,0.3358383-3.8253632c0.2751617,11.7316895,0.5440292,23.8987122,0.5634613,36.0693665
		c0.008873,5.5595093-0.0130157,11.1190491-0.0170212,16.6785583c-0.0002823,0.3981934,0.0317383,0.7963867,0.0487442,1.1945496
		C91.1244659,289.4295959,90.5895309,289.4332581,90.0545807,289.4369202z"></path>
	<path d="M142.5948944,289.071228c0.0123596-8.5115051-0.0262146-17.0234985,0.0519409-25.5343933
		c0.0730438-7.9511566,0.2696381-15.9011536,0.4141693-23.8516388c0.0045776-0.2513428-0.0515747-0.5275116,0.2446747-0.8392334
		c0.2686462,0.4286499,0.194931,0.821106,0.2055969,1.183197c0.4684143,15.8980408,0.7340851,31.7985687,0.5683899,47.7042694
		c-0.0045013,0.4325562-0.1003113,0.8811035,0.1218719,1.2953491
		C143.6730499,289.3101196,143.1358643,289.2622986,142.5948944,289.071228z"></path>
	<path d="M187.8906097,204.4521942c-0.3822479,0.4943848-0.2206268,1.0740356-0.2185669,1.6127777
		c0.0309906,8.1146851-0.1230011,16.2275391-0.26474,24.3399811c-0.0977631,5.594223-0.2986145,11.1866913-0.4643097,16.7796173
		c-0.0282898,0.9546661-0.1117859,1.9076996-0.1188049,2.8599243c0.1369324-0.875885-0.1511078-1.7289429-0.1718445-2.5999451
		c-0.1750031-7.3522644-0.3376312-14.7046051-0.4038849-22.0588531c-0.0824738-9.1528015-0.2025452-18.3054047-0.1247864-27.4590149
		c0.0142365-1.6767578,0.1448669-3.3535767-0.0249786-5.0317383c-0.0386505-0.3820343-0.1288452-0.7962341,0.0890198-1.1711731
		c0.2227478,2.5220184,0.7819672,5.0147858,0.4247589,7.5865631c-0.095047,0.6844177,0.3655701,1.4382172,0.5334015,2.168808
		C187.3747406,202.4753265,187.8265839,203.41539,187.8906097,204.4521942z"></path>
	<path d="M92.3396072,289.4004211c-0.0344772-15.6661377,0.1148834-31.3285828,0.865448-46.978775
		c0.5493851,15.6603851,0.6909332,31.3234406,0.6637878,46.9885712
		C93.3591003,289.4069519,92.84935,289.4036865,92.3396072,289.4004211z"></path>
	<path d="M140.3249359,289.1148682c0.0149994-0.4787903,0.0446625-0.9576416,0.0428162-1.4364014
		c-0.0430298-11.1902161,0.05336-22.379425,0.2733459-33.5674133c0.0766144-3.895462,0.1989594-7.7900085,0.3469849-11.684845
		c0.4161224,4.8229675,0.4409485,9.6596069,0.5737152,14.4913635c0.2821655,10.2677002,0.3472748,20.538147,0.3188934,30.8092651
		c-0.0012207,0.4378662-0.0358124,0.8757324-0.0548553,1.3135681
		C141.3407135,289.3710632,140.8311157,289.2084656,140.3249359,289.1148682z"></path>
	<path d="M129.3981171,289.2285767c0.2445221-0.3145752,0.1793823-0.6881409,0.180191-1.040802
		c0.0067596-2.9985352,0.0038605-5.9970703,0.1336212-8.9980774c0.378006,1.8178711,0.390625,3.6532593,0.4283752,5.4882507
		c0.0254822,1.2393799,0.0978699,2.4776917,0.1329956,3.71698c0.012558,0.4435425,0.0684814,0.7514648,0.646698,0.7548218
		c0.5869446,0.0033569,0.7932587-0.234314,0.7692261-0.7812805c-0.0122528-0.2789612,0.0133972-0.5594788,0.0197449-0.8393555
		c0.092453-4.0782776,0.1835327-8.1566162,0.2774811-12.2348633c0.0219727-0.9542236,0.0371552-1.9092102,0.1029205-2.8555298
		c0.0629272,1.2184753,0.1431274,2.4363098,0.1856079,3.6555176c0.1378174,3.9567566,0.2617798,7.9140015,0.3912048,11.8710938
		c0.0078583,0.2397461,0.0169067,0.4794922,0.0254974,0.7192383c0.0102081,0.2841187,0.1466522,0.4363098,0.441864,0.4265442
		c0.2789612-0.0091858,0.5876312,0.0234985,0.631424-0.3710632c0.0263824-0.2377014,0.0318909-0.478241,0.0371704-0.7177124
		c0.1544495-6.9952087,0.3077393-13.9904785,0.458313-20.9858093c0.0007324-0.0333557-0.0399017-0.0675964,0.0277557,0.0397644
		c0.1273956,0.5409851,0.2048492,1.2449036,0.2238464,1.9555664c0.1656799,6.1966248,0.326889,12.3933105,0.4946899,18.5898743
		c0.0140381,0.5184021,0.0665283,1.0357056,0.1011658,1.5535278c-0.0912018,0.1443481-0.2202454,0.2229919-0.3928223,0.2236328
		c-1.6774597,0.0063477-3.3549347,0.0154419-5.0323639,0.010376
		C129.587677,289.4089966,129.4929657,289.2915344,129.3981171,289.2285767z"></path>
	<path d="M138.0011597,289.1609802c0.2357788-0.4940186,0.1410522-1.0225525,0.1452789-1.5363159
		c0.0830231-10.1111755,0.2032166-20.2217407,0.4978638-30.3293152c0.0323792-1.1104431,0.1676178-2.2180023,0.184433-3.326004
		c0.1177521,1.6886444,0.1306915,3.3817902,0.1963196,5.0726166c0.3737183,9.6256714,0.4998169,19.2563477,0.6272888,28.887207
		c0.0052643,0.3977356,0.0519104,0.7948914,0.0792542,1.1923218
		C139.1578979,289.270752,138.5804901,289.2583313,138.0011597,289.1609802z"></path>
	<path d="M94.5417938,289.4137268c0.0760422-4.8771973,0.1470566-9.7544861,0.2293625-14.6315613
		c0.1065903-6.3163147,0.2677231-12.6312256,0.5422363-18.9427338c0.0309677-0.7119751,0.1170044-1.421524,0.1303329-2.1332855
		c0.4843063,11.8916016,0.5409851,23.7926941,0.6214905,35.6933899
		C95.5574112,289.4042358,95.0496063,289.4089966,94.5417938,289.4137268z"></path>
	<path d="M135.8573456,289.1782227c0.2447968-1.5057068,0.1325378-3.0258789,0.1618195-4.5385742
		c0.1221771-6.3071594,0.2051239-12.6151428,0.3111877-18.9226685c0.0300903-1.789856,0.0105133-3.5842285,0.3398438-5.0939331
		c0.0987396,3.0026855,0.232605,6.2667847,0.3076477,9.5322571c0.1347961,5.8676147,0.2327576,11.736145,0.3513184,17.6041565
		c0.0095825,0.4735718-0.0661316,0.962677,0.1806946,1.4077148
		C136.9597626,289.2822876,136.4114838,289.6680908,135.8573456,289.1782227z"></path>
	<path d="M96.8804169,289.3944702c0.0736847-9.7409363,0.3616714-19.4766541,0.7295456-29.211792
		c0.4711609,9.7326355,0.5625153,19.4730225,0.6236496,29.2140808
		C97.782547,289.3959961,97.3314819,289.3952332,96.8804169,289.3944702z"></path>
	<path d="M99.1239014,289.4199829c0.1185608-4.1965942,0.2388-8.3930969,0.3550491-12.5897217
		c0.0664368-2.3985596,0.1235275-4.7974548,0.1906967-7.1960144c0.0253525-0.9050903,0.028801-1.8129272,0.2837448-2.7522583
		c0.0342407,0.7123718,0.0830383,1.3810425,0.0959854,2.0504456c0.12677,6.5577087,0.2471924,13.1154785,0.3714371,19.6732178
		c0.005249,0.2771301-0.0355301,0.5621643,0.1024551,0.8237C100.0568161,289.426239,99.5903549,289.4230957,99.1239014,289.4199829z
		"></path>
	<path d="M101.5113907,289.4129333c0.1607513-4.7503052,0.317215-9.5007935,0.4860229-14.2508545
		c0.0324097-0.9118347,0.1133575-1.8219299,0.1379013-2.7326355c0.2420273,5.6532593,0.3411789,11.3103638,0.4078903,16.9682007
		C102.1992645,289.4027405,101.8553314,289.4078369,101.5113907,289.4129333z"></path>
	<path d="M186.2256165,190.5370789c0.053421-4.2712402,0.0504913-8.5441895,0.1804962-12.8131104
		c0.083725-2.7493439,0.0338135-5.4966736,0.0784149-8.2444916c0.2663727,0.144989,0.2147827,0.4036407,0.2133789,0.6335297
		c-0.0272522,4.4239502,0.3826752,8.8382568,0.2644806,13.2657471c-0.0616302,2.3084717-0.4106903,4.5896301-0.5316772,6.8906708
		C186.4258423,190.3619843,186.296814,190.4480133,186.2256165,190.5370789z"></path>
	<path d="M103.8935089,289.4064026c0.2256775-3.4514465,0.108963-6.9203491,0.5048981-10.3631287
		c0.0328979-0.1585083,0.2733536,0.006958,0.1144943-0.012085c-0.0582352,3.4579163,0.0973053,6.9122314,0.1731491,10.3678894
		C104.421875,289.4015198,104.157692,289.4039612,103.8935089,289.4064026z"></path>
	<path d="M186.4831238,285.088623c0.2408752-1.8031921,0.0289001-3.6387939,0.3437042-4.7494507
		c0.2393494,1.0579529-0.0453339,2.8265686,0.3374176,4.5580139
		C187.0043945,285.2000122,186.743515,285.1434631,186.4831238,285.088623z"></path>
	<path d="M46.2177429,114.867981c0.0661278-0.1415024,0.1322479-0.2830124,0.2713318-0.5806656
		c0.0879593,1.5859451,0.3500938,3.0135345,0.2916107,4.4690704c-0.4612122,0.4775314,0.0509872,1.1839905-0.3917999,1.6658478
		c0.0248146-0.5849762,0.1840744-1.1733093-0.0438461-1.7519531c-0.0125694-1.0757065,0.0188065-2.1533051-0.1392136-3.2227249
		C46.2097931,115.254364,46.213768,115.0611725,46.2177429,114.867981z"></path>
	<path d="M186.9782715,158.1075439c-0.1232452-1.164917-0.1430511-2.3298187,0.0005188-3.4947052
		C187.2915039,155.7777863,187.3054047,156.942688,186.9782715,158.1075439z"></path>
	<path d="M47.8149834,285.8057556c0.0811653-1.4804688,0.1623306-2.960968,0.2434959-4.4414673
		c0.0676537,0.0003052,0.1353073,0.0005798,0.2029572,0.0008545c0.0389633,1.5356445,0.0779266,3.0713501,0.11689,4.6069946
		C48.1331367,286.1110535,47.9770737,285.9482117,47.8149834,285.8057556z"></path>
	<path d="M187.9419861,120.66922c0.0150604-1.1431122,0.0782471-2.2800522,0.4338684-3.3794403
		c-0.0037842,1.1514587-0.0075684,2.3029022-0.0113373,3.454361
		C188.2236633,120.719162,188.0828247,120.6941833,187.9419861,120.66922z"></path>
	<path d="M106.3026428,289.4017029c0.0391312-0.7141724,0.0782547-1.4283447,0.1218567-2.2243347
		c0.4491425,0.734314,0.2145462,1.5177612,0.3879623,2.2248535
		C106.6425247,289.4020691,106.47258,289.401886,106.3026428,289.4017029z"></path>
	<path d="M127.4503174,289.2108154c0.0328979-0.5318909,0.0657883-1.0637512,0.0986862-1.5956421
		c0.3938217,0.4921265,0.2649918,1.0624695,0.3611984,1.591156
		C127.7596054,289.4846191,127.6063538,289.490509,127.4503174,289.2108154z"></path>
	<path d="M186.4991608,168.4402161c-0.0867767-1.024292-0.0512695-2.0442963,0.1069183-3.0600433
		C186.7631836,166.4069366,186.8536377,167.4313507,186.4991608,168.4402161z"></path>
	<path d="M50.1824875,286.3808289c0.0689087-0.5809631,0.1378212-1.1619263,0.2067261-1.7428894
		c-0.2221184,0.6683655-0.0313568,1.2885437,0.2264633,1.8979492
		C50.4290886,286.6020813,50.2675858,286.5981445,50.1824875,286.3808289z"></path>
	<path d="M186.763443,148.0323181c-0.1489258-0.1212769-0.1639404-0.2496033-0.0202789-0.3862457
		C186.9812775,147.7626801,187.0082397,147.8903656,186.763443,148.0323181z"></path>
	<path d="M66.5994034,17.0135975c0.1496582,17.9839497-0.0580902,35.9636841-0.5800476,53.9443588
		c-0.3321533-0.325531-0.2366943-0.7199402-0.2473068-1.0820313c-0.4968872-16.9506569-0.805069-33.9036407-0.606575-50.8626785
		c0.0050812-0.4342499,0.0942841-0.8804779-0.09758-1.3022442C65.5220642,17.3548145,65.9943008,17.0383244,66.5994034,17.0135975z"></path>
	<path d="M64.4600906,17.9872456c-0.0415039,6.7130146-0.0835571,13.4260254-0.1243668,20.1390476
		c-0.0519867,8.5518684-0.2051315,17.1019478-0.4558716,25.6502686c-0.022213,0.757534-0.0670586,1.5144157-0.2001839,2.2724648
		c-0.0912819-2.509697-0.2036934-5.0188293-0.2703094-7.5291748C63.0680161,45.65625,62.8256721,32.7911911,62.9003067,19.92202
		c0.0023193-0.3993835-0.0137634-0.7988739-0.0212631-1.1983147C63.316227,18.2853546,63.8358192,18.0239468,64.4600906,17.9872456z
		"></path>
	<path d="M62.1916199,18.9888268c0.0041237,13.7475739-0.2272682,27.4918518-0.6679153,41.2364464
		c-0.5271873-13.4965096-0.8796539-26.9970779-0.8322792-40.506752
		C61.0632133,19.2115555,61.6183014,19.0814629,62.1916199,18.9888268z"></path>
	<path d="M59.9881821,19.9417858c-0.0596008,3.6775837-0.1195869,7.3551617-0.1787148,11.0327511
		c-0.1028366,6.3963928-0.2031288,12.7928276-0.3099976,19.1891518c-0.0148735,0.8901711-0.0610504,1.7798195-0.0927353,2.6697121
		c-0.1070328-0.0001335-0.2140656-0.0002594-0.3210983-0.0003891c0-0.7368965,0.0177727-1.4742851-0.0026932-2.2106133
		c-0.2643738-9.5121078-0.5292931-19.024128-0.5853195-28.5405979c-0.0027275-0.4633923,0.1438103-0.9634705-0.1874504-1.3890133
		C58.788269,20.2609367,59.3657608,20.0511684,59.9881821,19.9417858z"></path>
	<path d="M57.5797272,21.0963764c0.1241188,1.436739,0.0299835,2.8748188,0.0070534,4.3112144
		c-0.0988693,6.1943092-0.2188988,12.3882847-0.3357658,18.5822926c-0.0111427,0.5905457-0.0538597,1.1804962-0.2102318,1.7674255
		c-0.3451958-8.0417862-0.6698456-16.0772209-0.6696053-24.1218319
		C56.6733665,21.2301197,57.0721054,21.0411949,57.5797272,21.0963764z"></path>
	<path d="M55.3175278,22.0488224c-0.1331978,6.8227386-0.1386032,13.6484661-0.4738579,19.8304195
		c-0.35112-6.020462-0.4776611-12.6834717-0.6040115-19.3464851C54.5111732,22.1759491,54.8786316,22.0328236,55.3175278,22.0488224
		z"></path>
	<path d="M52.833828,23.0737114c-0.0806732,2.1532879,0.0385971,4.3134232-0.1867409,6.2882481
		c-0.2841339-1.8866444-0.2312393-3.960535-0.3398056-6.0264721C52.4006996,23.0830994,52.5866394,23.0168076,52.833828,23.0737114z
		"></path>
	<path d="M169.7014465,17.0369415c0.1828003,7.9949226,0.1261444,15.990345,0.0723267,23.9861603
		c-0.0670166,9.9558258-0.3461456,19.906929-0.609848,29.85849c-0.0283508,1.0703278-0.1073456,2.1393204-0.176651,3.4749985
		c-0.269577-2.0149765-0.1995239-3.7818146-0.235672-5.5427399c-0.3505402-17.0690613-0.5770111-34.139164-0.4089203-51.2123718
		c0.0043182-0.4396191,0.0193329-0.8791351,0.0293732-1.318697
		C168.9184418,16.3521366,169.4244843,16.4926395,169.7014465,17.0369415z"></path>
	<path d="M172.055542,18.1114998c0.0460663,10.3930206-0.0594482,20.7850151-0.2724915,31.1754837
		c-0.1179657,5.7527428-0.3209229,11.503746-0.6139984,17.2608452c-0.0639191-1.2354355-0.1604767-2.470192-0.186554-3.7064323
		c-0.1981049-9.3910904-0.377243-18.7825317-0.4068451-28.1761131c-0.0171356-5.4360085-0.0400238-10.8719997-0.0649261-16.3079758
		c-0.0016327-0.3580093-0.042511-0.7158375-0.0651703-1.0737495
		C171.0462189,17.4350758,171.614563,17.6494427,172.055542,18.1114998z"></path>
	<path d="M174.2585297,19.20858c0.041687,9.8308735-0.1404877,19.6586914-0.4039917,29.4853745
		c-0.1092529,4.0738335-0.1249237,8.1511803-0.4784851,12.2174797c-0.4070587-13.1808128-0.5982971-26.364994-0.6246033-39.5518379
		c-0.0019226-0.9582939,0.020874-1.9166374,0.0321655-2.874958C173.3243256,18.6259995,173.9430695,18.6083279,174.2585297,19.20858
		z"></path>
	<path d="M176.6472321,20.2215481c-0.3158569,0.3379688-0.1915741,0.7591-0.1931,1.1440544
		c-0.0390015,9.826767-0.3151398,19.6487904-0.5795135,29.4710522c-0.0426178,1.5836906-0.0776215,3.1682281-0.2869568,4.0240707
		c-0.3753204-11.3245811-0.4849854-23.363987-0.6181641-35.4030304
		C175.5830383,19.5930614,176.175705,19.77425,176.6472321,20.2215481z"></path>
	<path d="M178.5722351,21.2199078c0.0448303,6.5912476-0.2088928,13.1765766-0.3911591,19.7633305
		c-0.0485992,1.7564774-0.0784607,3.513607-0.144577,5.2694016c-0.0372314,0.9883003-0.0715332,1.9810829-0.2793732,2.7192116
		c-0.0767822-4.0288429-0.1665497-8.2855186-0.2368011-12.5425148c-0.0830688-5.0317688-0.1503601-10.0638008-0.2194977-15.095789
		c-0.0032501-0.2369347,0.0419312-0.4745331,0.0645447-0.7118225
		C177.8624115,20.6299763,178.354248,20.6486645,178.5722351,21.2199078z"></path>
	<path d="M180.7274933,22.0861187c-0.1270752,6.9657822-0.2867126,13.930624-0.611557,20.7132397
		c-0.3912506-6.9513397-0.3454742-14.0915127-0.5274353-21.2259884
		C180.0646057,21.5300541,180.4302979,21.732008,180.7274933,22.0861187z"></path>
	<path d="M182.8417511,22.8993778c-0.2023315,0.1774254-0.1999969,0.4200954-0.2075653,0.6583157
		c-0.0728455,2.2976246-0.0990906,4.597559-0.3416748,6.4680252c-0.2875061-2.2031898,0.017868-4.8481007-0.312027-7.4680786
		C182.3326111,22.5076485,182.5677795,22.7524185,182.8417511,22.8993778z"></path>
	<path d="M91.2579117,9.0875177c-0.1460114,1.0766878-0.035347,2.1555328-0.0077438,3.2316618
		c0.5418167,21.1168747,0.4638596,42.2347412,0.1044312,63.3528938c-0.0809402,4.7557068-0.2090225,9.5106201-0.2442017,14.2602081
		c-0.1478958-1.0827408-0.2903824-2.1661758-0.3263245-3.2569656c-0.0869293-2.6381607-0.1798096-5.2762833-0.2427292-7.9150696
		c-0.3356552-14.0761185-0.5579605-28.153347-0.4004364-42.2342949c0.0957489-8.5590172,0.1898041-17.1179028,0.5239639-25.6720409
		c0.024971-0.6389999,0.0109329-1.2795229,0.0150299-1.9193382C90.8959198,8.8973341,91.0976639,8.9139967,91.2579117,9.0875177z"></path>
	<path d="M143.5791016,9.128068c0.0802002,3.8764696,0.1478119,7.7532473,0.2429657,11.6293516
		c0.2954254,12.0337601,0.3356781,24.068428,0.2418213,36.1052971c-0.0732727,9.3974838-0.339035,18.7899857-0.5605164,28.1838608
		c-0.0384521,1.6307373-0.1265869,3.2596359-0.3453827,4.2966766c-0.0528259-2.8404922-0.1221771-6.2598724-0.1788025-9.6794662
		c-0.1237946-7.4763489-0.2868347-14.9524231-0.3512573-22.4293213c-0.120636-13.9958153-0.0136414-27.9910564,0.244812-41.9851227
		c0.0376282-2.0377169,0.219986-4.0725555,0.1228333-6.1128826C143.1889648,9.0557337,143.3833618,9.0456753,143.5791016,9.128068z"></path>
	<path d="M141.2990723,9.5137959c-0.4477997,0.0548763-0.3429565,0.379015-0.3195953,0.6604195
		c0.5394592,6.4983883,0.5326233,13.0164261,0.6776428,19.5280361c0.3899994,17.5100288,0.2973785,35.0201912-0.1506805,52.5276146
		c-0.1091309,4.264473-0.0754395,8.5383377-0.5323029,12.7909088c-0.3240356-11.5894318-0.5378418-23.1804276-0.5919189-34.7741432
		c-0.0659943-14.1531219,0.0019531-28.3053379,0.3759155-42.4542847c0.0665131-2.5165739,0.0046539-5.039032,0.2553558-7.5495443
		c0.0446167-0.4467764,0.0444336-0.8336687-0.5836182-0.734787C140.7196045,9.509943,141.0093384,9.5118694,141.2990723,9.5137959z"></path>
	<path d="M145.9975433,8.8312206c-0.1220245,2.5177832,0.0673065,5.031394,0.1204529,7.5461426
		c0.457901,21.6710911,0.237381,43.3366776-0.4758911,64.9988632c-0.0236053,0.7171936-0.0847626,1.4331512-0.1210632,2.0289841
		c-0.2723846-1.0813675-0.1794586-2.2974548-0.2059021-3.5062866c-0.3627319-16.5886917-0.5894775-33.178997-0.4507904-49.7719498
		c0.0554962-6.6361828,0.0195465-13.2740574,0.2664642-19.9079247c0.0163269-0.4383116-0.0110779-0.8782492-0.0181732-1.3174314
		C145.3960571,8.7329283,145.6849213,8.6329365,145.9975433,8.8312206z"></path>
	<path d="M89.1469727,8.8261299c-0.1427994,1.3172159-0.0109024,2.6336403,0.0134048,3.9502296
		c0.2435684,13.1912022,0.2445221,26.3831329,0.1711349,39.5759583c-0.0547028,9.8348923-0.2817001,19.6663208-0.4623566,29.498848
		c-0.0107117,0.5829391-0.1262817,1.1530457-0.1861954,1.729866c-0.1894379-2.5418472-0.1973953-5.0990219-0.2734756-7.6513977
		c-0.6314392-21.183075-0.7285461-42.3684959-0.2185287-63.5557442c0.0298157-1.2384138,0.0608368-2.4767971,0.091301-3.7151957
		C88.5868683,8.6299362,88.8949356,8.5833693,89.1469727,8.8261299z"></path>
	<path d="M177.7821503,280.7824097c-0.72229-28.3138275-0.836853-56.8735657-0.0119781-85.3439789
		c0.3176117,0.7987366,0.2730865,1.7503357,0.2980347,2.6822662c0.1818695,6.7954865,0.372406,13.5909119,0.5073242,20.3874207
		c0.2754517,13.8759155,0.1999664,27.7523651-0.0553284,41.627655c-0.1022339,5.5572205-0.2747955,11.1131897-0.4268341,16.6694031
		C178.0543976,278.2287903,178.0243835,279.6554871,177.7821503,280.7824097z"></path>
	<path d="M50.3413734,52.8565712c0.6105309,12.7454338,0.6377373,25.4869347,0.7156601,38.2258186
		c0.090229,14.7511292-0.1982002,29.4996719-0.4665489,44.2478104c-0.024662,1.3550568-0.1685448,2.6991272-0.3081474,3.637085
		c-0.4429245-14.0107346-0.7668571-28.4308548-0.7726936-42.8567963
		C49.5038033,81.6820984,49.8175011,67.2598495,50.3413734,52.8565712z"></path>
	<path d="M136.5955811,114.8418655c-0.4113007-9.1433716-0.4395142-18.0494308-0.5777893-26.9536667
		c-0.2838593-18.2772827-0.0424957-36.5504303,0.3216553-54.8233948c0.0330353-1.6566563,0.1056671-3.3095627,0.3321991-4.4453526
		C137.6374207,44.0651321,137.6248169,104.2966843,136.5955811,114.8418655z"></path>
	<path d="M97.6355209,230.8996582c-1.106575-28.9641571-1.1683731-57.9281464,0.004982-86.891922
		C98.5867615,172.9718628,98.4976578,201.9358063,97.6355209,230.8996582z"></path>
	<path d="M50.3549156,168.9967499c0.5978088,14.0526581,0.6794319,28.1151123,0.7089767,42.1773529
		c0.0280647,13.3574982-0.2286301,26.7125854-0.4739532,40.0673828c-0.0248184,1.351059-0.1239014,2.6964874-0.3036079,3.6779022
		C49.2743835,242.7989197,49.2720146,184.6471863,50.3549156,168.9967499z"></path>
	<path d="M136.6520691,144.651825c1.0905609,28.2929077,1.0298462,57.1453705,0.0021057,85.4701843
		c-0.5272217-3.8814392-0.3286285-8.3150177-0.4200592-12.7373352c-0.3437347-16.6285095-0.4833221-33.2586212-0.1959229-49.8900604
		c0.1105194-6.3954163,0.2139893-12.7909546,0.3200378-19.1864471
		C136.3819427,146.8802338,136.4921417,145.4587402,136.6520691,144.651825z"></path>
	<path d="M177.7834015,79.0077667c0.259491,1.0684509,0.2721252,2.4606094,0.3135376,3.8473892
		c0.5455627,18.269371,0.8176117,36.5405273,0.5215149,54.8189774c-0.1276245,7.8773651-0.3570099,15.7514648-0.5398712,23.6270599
		c-0.0153198,0.659729-0.0645905,1.3186798-0.2129822,1.9726715
		C177.0411987,135.0805969,176.9655457,106.8920746,177.7834015,79.0077667z"></path>
	<path d="M97.6462784,28.4133511c0.9365463,28.5709705,0.8315811,57.1526718-0.0209122,85.7340164
		c-0.0755615,0.1599045-0.2583237,0.0038376-0.1037521,0.0451584C96.611145,85.6024094,96.4286118,57.0129585,97.6462784,28.4133511
		z"></path>
	<path d="M91.0456772,119.6651993c0.8457794,28.3880081,0.7375946,57.2933731,0.0645294,86.1933365
		c-0.1078339-1.0505981-0.2678909-2.098938-0.3132172-3.1522064c-0.1134872-2.6365662-0.1918182-5.2749786-0.2545319-7.9133453
		c-0.3374329-14.1938019-0.5438919-28.3885193-0.4050369-42.5873718c0.0930939-9.5180206,0.3171997-19.0326385,0.5810089-28.5467682
		C90.7602539,122.150238,90.8276138,120.6435089,91.0456772,119.6651993z"></path>
	<path d="M57.1021919,194.0755157c0.4281921,14.1797943,0.6533737,28.3680878,0.6449127,42.5592651
		c-0.0084801,14.2294464-0.2492523,28.4557037-0.6562576,42.6809235
		C55.955719,250.904892,55.8986168,222.4938812,57.1021919,194.0755157z"></path>
	<path d="M106.4426651,254.0178375c-0.997261-28.1356659-1.0551071-56.3207703,0.0552368-84.482193
		C107.4020386,182.2808838,107.3448563,251.2682953,106.4426651,254.0178375z"></path>
	<path d="M129.8026886,249.2621307c-0.7237701-28.7735291-0.8299408-57.4919891-0.0054321-86.064743
		C131.0458679,172.4821167,131.0680542,237.3218842,129.8026886,249.2621307z"></path>
	<path d="M145.552124,199.6516266c-1.0352478-6.001358-0.9109955-82.2259369,0.0390167-85.5810852
		c0.4975891,14.03508,0.7815247,28.2845306,0.7686157,42.5387573
		C146.3468018,170.8754883,146.0720978,185.1364136,145.552124,199.6516266z"></path>
	<path d="M127.6656952,53.8290443c0.9893646,14.7538109,1.0173798,78.3762817,0.0366745,83.3148499
		C126.9025574,134.1191711,126.8717651,64.182785,127.6656952,53.8290443z"></path>
	<path d="M171.1855164,184.0621338c-0.8475952-28.9408569-0.9348602-57.9040451-0.0033569-86.8673172
		C172.3583527,126.1433411,172.3083801,155.0912781,171.1855164,184.0621338z"></path>
	<path d="M184.5966339,56.4122429c1.1010132,27.2335854,1.0284119,54.4572029,0.0921478,81.7935333
		c-0.3461761-0.7029114-0.3224792-1.3672485-0.3342285-2.0200806c-0.2791595-15.5124969-0.5577698-31.0249939-0.4759827-46.5411758
		c0.056076-10.6365967,0.2592163-21.2710724,0.4639282-31.9054909
		C184.3511353,57.290699,184.2995911,56.8222084,184.5966339,56.4122429z"></path>
	<path d="M129.8622284,47.1190186c1.1714935,27.7976074,1.1351318,55.5834961,0.0383759,83.3696136
		C129.0313721,102.6958313,129.0267792,74.9020386,129.8622284,47.1190186z"></path>
	<path d="M143.1116333,119.0334244c0.1122131,1.0960159,0.2786865,2.1896973,0.3259125,3.2884979
		c0.1167145,2.71521,0.1874084,5.4325256,0.2614136,8.1494217c0.4844971,17.784729,0.530899,35.5717468,0.2310638,53.3595734
		c-0.0963287,5.7148132-0.2784424,11.4282074-0.4238739,17.1421814c-0.035614,1.3988953-0.1270905,2.7933197-0.3347473,4.1793518
		c-0.0378265,0.2524567-0.2171326,0.5233154,0.0263824,0.7900238
		C142.4377747,176.9610748,142.3305359,147.9941254,143.1116333,119.0334244z"></path>
	<path d="M57.096817,78.0744858c0.8352776,27.7988434,0.8324928,55.5910568-0.0412331,83.3816757
		C55.9605827,133.65979,55.9191284,105.8642044,57.096817,78.0744858z"></path>
	<path d="M88.7402344,199.5367432c-1.1238556-28.5752106-1.1673965-57.1495056-0.009552-85.7246246
		C89.6404343,142.3874054,89.5300446,170.9628448,88.7402344,199.5367432z"></path>
	<path d="M104.3325195,248.0781555c-1.1024551-28.3324738-1.1840057-56.6580353,0.0324173-84.9802094
		C105.2039566,191.4280853,105.1691284,219.7561798,104.3325195,248.0781555z"></path>
	<path d="M169.1402435,186.7007294c-0.9442291-2.180542-1.0992126-72.9650574-0.2820587-81.2676086
		c0.4528351,0.8439026,0.9950714,23.0341949,0.9743958,40.4585876
		C169.8165283,159.4188995,169.6136627,172.9427338,169.1402435,186.7007294z"></path>
	<path d="M59.2954865,168.7483215c-1.0909958-27.9838867-1.1442261-55.9677658,0.0068283-83.951622
		C60.2260818,112.7805862,60.1161575,140.7644653,59.2954865,168.7483215z"></path>
	<path d="M127.6903763,253.486618c-0.9031067-4.1401215-0.9212265-78.0283508-0.0199966-81.5726013
		C128.7398071,175.8431702,128.7574615,247.8845825,127.6903763,253.486618z"></path>
	<path d="M106.461441,136.4109955c-1.0058975-8.3861542-1.0056992-70.1738815-0.0226593-80.5862427
		C107.4279251,58.2631187,107.4964142,132.7729492,106.461441,136.4109955z"></path>
	<path d="M65.8876343,186.8900757c-0.9931717-27.2210693-1.0317612-54.4428253-0.0511169-81.7969589
		C66.8295441,107.4654846,66.883316,183.2954712,65.8876343,186.8900757z"></path>
	<path d="M184.4965973,172.9864502c1.1465607,4.3988953,1.1452179,75.3183746,0.001297,79.5496368
		C183.7410736,226.0210419,183.6626129,199.5049896,184.4965973,172.9864502z"></path>
	<path d="M138.8027649,138.7808228c1.1643372,28.6404724,1.1375885,57.2541199-0.0028534,85.8673859
		C137.949234,196.0168915,137.8904114,167.3858337,138.8027649,138.7808228z"></path>
	<path d="M138.822937,107.4907837c-0.5598297-14.2884445-0.6784821-28.5845871-0.6824799-42.880394
		c-0.0039825-14.2602997,0.0729218-28.521595,0.672226-42.8398056c0.6121826,14.3423634,0.8583984,28.6241131,0.8623199,42.910347
		C139.6789398,78.9559402,139.4007416,93.2256699,138.822937,107.4907837z"></path>
	<path d="M48.1717072,47.0597916c0.9222412,28.5294418,0.802784,57.0634689-0.0144348,85.5981216
		c-0.3523788-7.1059418-0.541256-14.2151794-0.6637726-21.3265076c-0.123291-7.1565781-0.2193146-14.3131332-0.2185059-21.4711609
		c0.0008087-7.1180573,0.0861435-14.2347565,0.2192268-21.3512573
		C47.6279526,61.3580055,47.7877808,54.2079239,48.1717072,47.0597916z"></path>
	<path d="M99.9367523,120.4020767c-1.2656479-6.4535904-1.1522293-80.3518295,0.0535583-85.1368561
		c0.3555984,14.0674171,0.5728455,28.2793655,0.5580978,42.4943542
		C100.5336685,91.9764252,100.2994919,106.1897583,99.9367523,120.4020767z"></path>
	<path d="M175.6316833,202.1872101c1.1609802,27.9197083,1.0988312,55.8414459,0.1103363,83.6464081
		c-0.2907257,0.1959229-0.2019348,0.1777954-0.2047577,0.0708313
		C174.8031158,257.9993896,174.7346649,230.0942841,175.6316833,202.1872101z"></path>
	<path d="M99.8615952,150.7090912c0.8827972,6.6412964,0.8839798,78.6158142-0.0010834,86.2169495
		c-0.4159317-7.3917236-0.4894943-14.532486-0.6301498-21.6694794c-0.141037-7.1561737-0.1920853-14.3150482-0.1953278-21.4727478
		c-0.0032578-7.1977386,0.0403214-14.396637,0.1751862-21.5929108
		C99.3442001,165.0423737,99.4558868,157.8905487,99.8615952,150.7090912z"></path>
	<path d="M59.2886963,283.616394c-1.0426788-3.90802-1.0806236-75.4117737-0.0427246-80.5196686
		C60.1723099,205.4288025,60.2119141,280.071228,59.2886963,283.616394z"></path>
	<path d="M95.4185333,108.7057343c-1.137558-28.9392242-1.1765823-57.9043617,0.0027618-86.8693848
		C96.3362885,50.7840614,96.2619095,79.7310638,95.4185333,108.7057343z"></path>
	<path d="M95.4238129,137.775528c0.9153137,28.9394836,0.8380203,57.9082947-0.0074615,86.8770599
		C94.2890167,195.7032318,94.2323837,166.7546082,95.4238129,137.775528z"></path>
	<path d="M63.7565079,182.02948c-1.1063118-28.1292725-1.1541748-56.2587051,0.001442-84.3883591
		C64.6641693,125.7704086,64.5706482,153.8998718,63.7565079,182.02948z"></path>
	<path d="M104.3394547,48.0906792c0.8717422,27.4450722,0.8125687,54.8982887,0.0712509,82.3522186
		C103.4211884,127.7187042,103.3460464,72.1098785,104.3394547,48.0906792z"></path>
	<path d="M134.2689972,34.7158661c1.188858,8.0833282,1.2115021,71.6099548,0.0169067,85.8561096
		C133.5296478,91.9498825,133.4288635,63.3280678,134.2689972,34.7158661z"></path>
	<path d="M134.2928009,150.9698486c1.1810913,9.4930878,1.1599731,72.2892303-0.0133362,86.0066223
		C133.528183,208.1573486,133.4335938,179.5682373,134.2928009,150.9698486z"></path>
	<path d="M52.6290932,145.4244843c-1.106823-28.5428085-1.1507225-57.0995712-0.0953293-85.6683502
		c0.2050056,0.0251732,0.0980835,0.0456429,0.0986519,0.0614967
		C53.6528778,88.3490372,53.3423576,116.8798599,52.6290932,145.4244843z"></path>
	<path d="M182.3192902,262.2821655c-0.8139648-28.7595215-0.9058075-57.5379944-0.0034027-86.3163605
		C183.4851227,204.7320709,183.430481,233.4976654,182.3192902,262.2821655z"></path>
	<path d="M175.5932159,167.7013245c-0.4205627-13.7874451-0.6428833-27.5690308-0.6316681-41.3544159
		c0.0112-13.7838135,0.2005615-27.5644836,0.6116028-40.7849579c0.1759949,0.6519394,0.239212,1.8677292,0.2749023,3.0843048
		c0.105545,3.5956879,0.2023163,7.1916275,0.2983551,10.7875748c0.4355927,16.3059006,0.4367981,32.6138992,0.1834717,48.9219894
		c-0.0931091,5.9944305-0.2904663,11.9872894-0.4500427,17.9805908
		C175.86763,166.7951508,175.9173889,167.2770844,175.5932159,167.7013245z"></path>
	<path d="M182.2915802,145.8545532c-0.777771-28.6869125-0.8839111-57.3520584-0.0029449-86.0161285
		c0.4643402,7.1232262,0.4996185,14.2582207,0.689682,21.3887596c0.1918488,7.1973343,0.183548,14.3957977,0.1860962,21.5941315
		c0.002533,7.1584396,0.0028381,14.3170853-0.1781616,21.474411
		C182.8042908,131.4900513,182.753418,138.6884308,182.2915802,145.8545532z"></path>
	<path d="M93.2017899,210.7007599c-0.6651001-14.2173157-0.8698654-28.4455566-0.864212-42.6776123
		c0.0056534-14.2277679,0.1833801-28.4526062,0.8568115-42.722374c0.4141464,9.5089035,0.5005951,18.9649887,0.6101074,28.4199905
		c0.1097794,9.4790344,0.101326,18.9593353-0.006012,28.4384613
		C93.6907425,191.6734467,93.5548325,201.1875916,93.2017899,210.7007599z"></path>
	<path d="M173.4275055,91.2340012c1.1509094,28.5237579,1.097229,57.0482712-0.0083618,85.5735092
		c-0.3756866-9.4581757-0.5080719-18.9207306-0.6041565-28.3838348c-0.0970154-9.5549927-0.1106415-19.1103821-0.0136108-28.6653748
		C172.897934,110.2482376,172.9876404,100.7375488,173.4275055,91.2340012z"></path>
	<path d="M93.2420883,95.3521729c-0.4391403-2.5669022-0.2903366-5.7258301-0.3945389-8.8723221
		c-0.454155-13.7132874-0.5512085-27.4310989-0.4964218-41.1508713c0.0420074-10.5199394,0.301918-21.0353985,0.6120529-31.5498905
		c0.0315857-1.0710268,0.162262-2.1391325,0.2837372-3.2058277c0.4382629,14.2357941,0.6400146,28.4713402,0.6161423,42.710453
		C93.8391876,67.5180664,93.6421661,81.7493515,93.2420883,95.3521729z"></path>
	<path d="M141.0261841,210.9263916c-0.8148956-28.476059-0.9339447-56.9518738-0.0032043-85.4273376
		C142.1967316,153.9752197,142.1378021,182.4509888,141.0261841,210.9263916z"></path>
	<path d="M52.6375465,176.7391663c0.8847733,28.250824,0.7823448,56.4990845,0.0191422,84.7471008
		c-0.4795876-7.0029602-0.4886246-14.0196228-0.6831245-21.0305634c-0.1973457-7.1134644-0.1811295-14.2287445-0.1916122-21.3436127
		c-0.0104256-7.075058-0.0304947-14.1510162,0.1394501-21.2245026
		C52.0908127,190.8363953,52.1584816,183.7808685,52.6375465,176.7391663z"></path>
	<path d="M132.105484,243.3424683c-0.8203735-28.9407654-0.9079742-57.9075775-0.0010529-86.8744507
		C133.282608,185.4176636,133.2371674,214.3665924,132.105484,243.3424683z"></path>
	<path d="M180.0746613,275.0583801c-0.8096466-28.8732758-0.8812561-57.746582,0.0013428-86.6192017
		c0.5002899,9.571579,0.6719666,19.1508636,0.8048248,28.7300873c0.1341705,9.6734772,0.1371155,19.3488007-0.0123444,29.0220184
		C180.7197876,255.8159027,180.5775909,265.4418335,180.0746613,275.0583801z"></path>
	<path d="M102.1197205,127.4224396c-1.1403427-28.9746704-1.179863-57.92733-0.0004501-86.8806152
		C103.0233231,69.5092468,102.9345398,98.4765854,102.1197205,127.4224396z"></path>
	<path d="M54.8528557,158.3816528c-1.1336975-28.8554688-1.1723442-57.7374344-0.0013618-86.6193924
		C55.7555618,100.626564,55.6729202,129.4903259,54.8528557,158.3816528z"></path>
	<path d="M102.1162415,156.7450409c0.9012833,28.8565521,0.8183441,57.7425385,0.0049286,86.628479
		C100.9764557,214.5071716,100.9494629,185.6412506,102.1162415,156.7450409z"></path>
	<path d="M132.0947723,127.4231873c-0.8171997-28.5257874-0.8628845-57.0262375,0.0033264-85.5281754
		c0.6672363,14.244751,0.8873444,28.4975204,0.8693542,42.7553558
		C132.9494171,98.9210968,132.7283478,113.1875534,132.0947723,127.4231873z"></path>
	<path d="M54.8469467,187.4941406c0.5505714,14.0932159,0.6385307,28.2733917,0.6455879,42.4549866
		c0.0070572,14.187088-0.1489067,28.3716431-0.6513786,42.5531616c-0.6402626-14.1866455-0.8620758-28.3808594-0.8525429-42.5797882
		C53.998127,215.7477417,54.2018089,201.5768127,54.8469467,187.4941406z"></path>
	<path d="M61.4630356,176.8092041c-0.9981155-28.1352844-1.1018982-56.0884933-0.0119591-84.0424271
		C62.3910141,95.9530945,62.3711395,168.6507568,61.4630356,176.8092041z"></path>
	<path d="M180.0945282,73.6183319c1.1551208,28.4391479,1.1110229,56.8499756-0.0001984,85.2604523
		C179.2695007,130.4496155,179.2086334,102.02034,180.0945282,73.6183319z"></path>
	<path d="M45.1916199,103.2202606c0.4173164,2.052887,0.7363548,4.1118774,0.798912,6.2035828
		C44.9989014,107.4514923,45.0846405,105.3337708,45.1916199,103.2202606z"></path>
	<path d="M143.1853638,238.1074524c0.0724487,0.0588531,0.1479492,0.0894928,0.1620789,0.1380157
		c0.0300903,0.1031799,0.021637,0.2227325-0.0960236,0.2700195c-0.0317078,0.0127411-0.1431274-0.065033-0.1419983-0.0987244
		C143.1127472,238.318222,143.1544189,238.2210083,143.1853638,238.1074524z"></path>
</g>
<g onclick="select(this)" class="" id="c-gola-primaria" fill="#000000">
	<path d="M141.8400116,0.24c0.9924622,0.4431632,2.086441,0.4431034,3.1214447,0.7117371
		c1.5948334,0.4139404,2.9455872,1.1451814,3.9818878,2.4655492c1.312851,1.672699,2.9249878,3.0421085,4.6068878,4.3305616
		c-0.6725922,0.3461242-1.4079285,0.1110463-2.1116333,0.2282166c-4.0824432,0.6797323-8.1704407,1.3415394-12.2993622,1.6656408
		c-9.5056305,0.746151-18.9954681,1.886385-28.5633621,1.1391401c-3.2225494-0.2516785-6.4539337-0.3882189-9.6786346-0.6149645
		c-4.3765793-0.3077393-8.7208252-0.9223585-13.0565796-1.560708c-2.0027313-0.2948618-4.024086-0.3182335-6.0174026-0.6403394
		c1.4944687-1.1411915,3.0270386-2.2916994,4.0824432-3.8432579c1.6976318-2.4956884,4.1215515-3.3665047,6.9380035-3.6106102
		C93.2577438,0.4750811,93.733696,0.6210111,94.0800018,0.24c7.9200058,0,15.840004,0,23.7600021,0c2,0.1722626,4,0.3261583,6,0
		C129.8400116,0.24,135.8400116,0.24,141.8400116,0.24z"></path>
</g>
</svg>
