<!--?xml version="1.0" encoding="utf-8"?-->
<!-- Generator: Adobe Illustrator 24.2.3, SVG Export Plug-In . SVG Version: 6.00 Build 0)  -->
<svg version="1.1" id="Camada_1" xmlns="http://www.w3.org/2000/svg" xmlns:xlink="http://www.w3.org/1999/xlink" x="0px" y="0px" viewBox="0 0 229 418" enable-background="new 0 0 229 418" xml:space="preserve">
<g onclick="select(this)" class="" id="detalhe-punho" fill="#000000">
	<path d="M43.9713707,120.5660324c-1.4340477,0.9719238-3.100399,1.2496643-4.7511444,1.4678955
		c-6.7179413,0.8881226-13.4583931,0.7420044-20.1860409,0.1770859c-5.0872164-0.4271774-10.1115332-1.2906342-15.0213833-2.7495346
		c-1.0643809-0.3162613-2.0522819-0.7957306-3.0718036-1.2092819c0-1.1193542,0-2.2387161,0-3.3580704
		c0.5481131-1.013916,0.4491681-2.1613922,0.6653081-3.2437286c0.1128626-0.5651779,0.0607682-1.1747894,0.4771656-1.6509933
		c0.5217633,0.3816452,1.0963807,0.671875,1.7180872,0.8264084c1.7024279,0.4231491,3.3990755,0.891655,5.1234226,1.1999283
		c3.7184801,0.664772,7.337286,1.8807755,11.1586971,1.9861069c1.8723831,0.0515976,3.7445927,0.1686249,5.6124401,0.3134079
		c3.6950874,0.2864227,7.3937588,0.1185684,11.0909176,0.1539078c1.9159851,0.0183105,3.70364-0.4855881,5.4575577-1.1675568
		c0.3861046-0.150116,0.6603012-0.2605591,0.7761383,0.2810745
		C43.5128365,115.8936157,43.9998016,118.1943893,43.9713707,120.5660324z"></path>
	<path d="M185.1376953,120.3339005c-0.2428284-2.2250748,0.3521118-4.353035,0.7277069-6.5097427
		c0.1013336-0.5819092,0.3056946-0.7070084,0.8605652-0.5922089c5.6415253,1.1671219,11.3798676,0.9484482,17.047821,0.6848984
		c8.0757599-0.3754883,15.9043121-2.3513718,23.5448456-5.0004501c0.3322144-0.1151886,0.631012-0.326828,0.9454041-0.4935226
		c0.8458557,1.1987991,0.5559387,2.6714172,0.9416046,3.9882355c0.230011,0.7852859,0.0895996,1.6713562,0.2311554,2.4921875
		c0.2248535,1.3037567-0.4498596,1.8661346-1.556488,2.235817c-5.7477417,1.920105-11.59935,3.3484344-17.6024628,4.2630386
		c-5.4487762,0.8301392-10.9049683,0.6914749-16.3678894,0.6551666c-2.4711151-0.0164185-4.9299622-0.3196335-7.3368378-0.9341354
		C186.0279541,120.9840164,185.5070496,120.7955322,185.1376953,120.3339005z"></path>
</g>
<g onclick="select(this)" class="" id="gola-terciaria" fill="#ffffff">
	<path d="M119.2230759,37.2008171c-1.9810867,3.1480293-3.6166229,6.4523888-4.5410843,10.0765343
		c-0.1962357,0.7692909-0.4524765,1.5366096-0.2097244,2.3466301c-0.1664352,0.0004921-0.3334503,0.0010872-0.5010223,0.001564
		c0.1260681-0.5555725,0.0866394-1.0939484-0.0441132-1.6547928c-0.90905-3.899334-2.5799942-7.4534645-4.8038864-10.762928
		C112.489769,37.2055054,115.8564224,37.2031631,119.2230759,37.2008171z"></path>
</g>
<path d="M111.4545288,48.9228668c0.1761093-0.023571,0.2628174,0.0835304,0.327034,0.2237511
	C111.6270599,49.1388245,111.4486008,49.1658516,111.4545288,48.9228668z"></path>
<g onclick="select(this)" class="" id="estampa-primaria" fill="#bf0811">
	<path d="M43.9713707,120.5660324c0.0284309-2.3716431-0.4585342-4.6724167-0.9506378-6.9733505
		c-0.1158371-0.5416336-0.3900337-0.4311905-0.7761383-0.2810745c-1.7539177,0.6819687-3.5415726,1.1858673-5.4575577,1.1675568
		c-3.6971588-0.0353394-7.3958302,0.132515-11.0909176-0.1539078c-1.8678474-0.144783-3.740057-0.2618103-5.6124401-0.3134079
		c-3.8214111-0.1053314-7.440217-1.3213348-11.1586971-1.9861069c-1.7243471-0.3082733-3.4209948-0.7767792-5.1234226-1.1999283
		c-0.6217065-0.1545334-1.1963239-0.4447632-1.7180872-0.8264084c1.7913258-9.4621811,2.6750059-19.0589294,4.2393627-28.5559235
		c0.8433037-5.1195831,1.1571436-10.316803,2.252656-15.4061127c1.7662411-8.2052269,4.5186424-15.9794197,9.6038685-22.7770844
		c2.0435143-2.7316628,4.3359432-5.2400703,7.0132046-7.3503723c1.4258251-1.1238823,2.4747944-2.6746483,4.1071033-3.5436478
		c3.5987473-1.9158821,7.2508583-3.7254448,11.0191536-5.2833977c9.9345665-4.1073151,19.9001694-8.1443005,29.314991-13.389143
		c2.0081787-1.1187201,4.0461578-2.1453896,5.6167831-3.9533415c0.8864365-1.0203934,2.120224-1.8366351,3.6892395-1.420516
		c-2.0087509,1.1796293-2.4371796,2.2058859-2.0178757,4.4530277c0.4271164,2.2889175,1.4922333,4.2651157,2.7694092,6.1657696
		c5.5444489,8.2511177,11.8955917,15.8050117,19.1692352,22.5971069c3.0757294,2.8721046,6.4560013,5.1818428,10.3676224,6.7113991
		c0.7288513,0.2850113,1.4038467,0.7671661,2.2457809,0.6932755l-0.0194778-0.0175781
		c-0.005928,0.2429848,0.1725311,0.2159576,0.3272552,0.2236862c0.6919708,0.3319321,1.3980713,0.5992432,2.1894608,0.4789925
		c0.167572-0.0004768,0.3345871-0.0010719,0.5016022-0.001667c0.9360352,0.2686729,1.6559982-0.3968735,2.4884338-0.5761032
		c0.8974304-0.3311958,1.7941666-0.6642799,2.6923904-0.9932861c5.2531509-1.9241714,9.1580658-5.6882515,13.1023865-9.4524002
		c5.9876404-5.7141266,11.0112305-12.2141418,15.7446136-18.9537182c1.4855804-2.1152287,2.769043-4.3775415,3.2950745-6.9872856
		c0.3720703-1.8459053-0.0812378-3.154623-1.6348419-4.2228584c1.687973-0.0080633,2.7848663,1.0322113,3.7964325,2.1853065
		c0.3406525,0.3882923,0.6667023,0.7393408,1.1152344,1.0329771c10.0041504,6.5494299,21.1908722,10.5967283,32.1211243,15.1745653
		c3.9604645,1.6587353,7.8730774,3.4354343,11.7050323,5.339098c2.1549988,1.0705643,3.9057159,2.97855,5.7908325,4.5660057
		c7.7359772,6.5144768,12.2689819,14.9835587,14.9213867,24.5909348c1.0966492,3.9723167,1.9427185,8.0021629,2.3482971,12.0990181
		c0.5499115,5.5546722,2.1276703,10.8914642,3.2400513,16.3265228c1.2655182,6.1834106,2.0991974,12.4376297,3.064743,18.6702194
		c-0.3143921,0.1666946-0.6131897,0.378334-0.9454041,0.4935226c-7.6405334,2.6490784-15.4690857,4.6249619-23.5448456,5.0004501
		c-5.6679535,0.2635498-11.4062958,0.4822235-17.047821-0.6848984c-0.5548706-0.1147995-0.7592316,0.0102997-0.8605652,0.5922089
		c-0.3755951,2.1567078-0.9705353,4.284668-0.7277069,6.5097427c-0.4390717,0.8079529-0.2934418,1.7098999-0.3948517,2.5685043
		c-0.9894562,8.3778839-1.7178192,16.7745209-1.7437134,25.2196808c-0.0067444,2.2003479,0.0677948,4.3850098,0.5235138,6.5554199
		c0.4008026,1.9087219-0.0423737,3.824707-0.2051697,5.7289886c-0.1809082,2.1159973-0.246994,4.2288055-0.1483307,6.3471375
		c0.100708,2.1621704-0.1490021,4.3112488-0.2011566,6.4654999c-0.0685883,2.8334503-0.1218414,5.6729736,0.1279144,8.5079346
		c0.1473694,1.6729126,0.0889587,3.3505859-0.099472,5.0267944c-0.3486786,3.1017303,0.1974335,6.1180725,0.8814545,9.132782
		c1.6428223,7.2402039,1.3752747,14.5228577,0.3379059,21.8097839c-0.30513,2.1432648-0.3707428,4.2084198,0.3304291,6.3557587
		c1.771759,5.4257813,1.8099976,11.0058594,0.936615,16.6037598c-0.2311401,1.4815369-0.2438507,2.924942,0.0943604,4.391922
		c0.8720093,3.7824249,0.4461975,7.6405487,0.6402435,11.4634857c0.3016663,5.9425049,0.6884003,11.8815613,1.4362183,17.7932434
		c0.2540588,2.0083618,0.2188416,4.0569458,0.2552185,6.0882263c0.0326385,1.8235168-0.331955,2.3253479-2.0801697,2.8504028
		c-3.0027924,0.901886-6.1177368,1.1565552-9.2157135,1.4766541c-7.6790771,0.7934875-15.3886719,0.8653259-23.0988464,1.0100403
		c-11.2233276,0.2105713-22.4427643,0.6520691-33.6664734,0.8132324
		c-12.4653397,0.1789856-24.9095764-0.8466187-37.3765488-0.8479919c-8.3887711-0.0009155-16.779892-0.1001892-25.1516418-0.7355652
		c-4.1446877-0.3145447-8.2758751-0.7521667-12.340168-1.6717529c-0.1947975-0.0440674-0.3910027-0.0827026-0.5842514-0.1327515
		c-3.2418556-0.839325-3.5977173-1.1888428-3.4005241-4.5171509c0.460228-7.7680969,1.0083466-15.5311584,1.5519638-23.2940521
		c0.1425133-2.0351257,0.276474-4.0680084,0.2283325-6.1076813c-0.0425682-1.8038025,0.0343857-3.5982361,0.3599281-5.374054
		c0.4141579-2.2592163,0.4556694-4.5098877,0.1245842-6.7920074c-0.2644081-1.822525-0.3192024-3.6938171,0.1231804-5.4887848
		c0.6758995-2.7424774,0.4011497-5.4645386,0.1609688-8.211441c-0.3061409-3.501236-0.7315483-6.9971313-0.5573692-10.5271454
		c0.210701-4.2702332,1.21278-8.371933,2.6357193-12.3757019c0.3822899-1.0757294,0.662571-2.0986328,0.4848175-3.2543335
		c-0.1887856-1.2274475-0.1527405-2.4721222,0.0791321-3.7011414c0.3067322-1.6258392,0.1911087-3.2480927,0.1102371-4.8917236
		c-0.1626472-3.3054199-0.1814728-6.6195679-0.1952438-9.9303894c-0.0538025-12.9391785-0.0427094-25.8787994-0.1401978-38.817627
		c-0.0386047-5.1235809-0.9969521-10.1754761-1.5107613-15.2625809
		C44.3134613,123.2591858,44.1320839,121.9136505,43.9713707,120.5660324z"></path>
	<path d="M119.2230759,37.2008209c-3.3666534,0.0023422-6.7333069,0.0046844-10.0998306,0.0070038
		c-4.2211685-4.7959595-8.7679062-9.2850647-13.1443939-13.9347267c-3.4808121-3.6980877-6.1751251-7.9202652-8.5605774-12.3653183
		c-0.2610321-0.4863977-0.5401993-0.9795284-0.5616684-1.5585451c3.0564499,0.2729836,6.1106796,0.5771656,9.1701736,0.813076
		c8.3447189,0.6434383,16.6852798,1.4236488,25.0725174,0.8302784c6.7585526-0.4781466,13.5189438-0.9303131,20.2785263-1.3940058
		c-0.3106079,1.6447983-1.2674408,2.9918289-2.0809021,4.392005c-2.1943207,3.7770243-4.8100739,7.2333021-7.8605957,10.3761816
		C127.3234482,28.6041794,123.29039,32.9191399,119.2230759,37.2008209z"></path>
</g>
<g onclick="select(this)" class="" id="estampa-secundaria" fill="#000000">
	<path d="M180.7950134,36.9472084c0,0-29.1231232-6.8985157-39.8160095-21.4340305
		c0,0,4.0017548,15.4966545-15.9788361,21.5219517C154.5477753,37.0011902,180.7950134,36.9472084,180.7950134,36.9472084z"></path>
	<path d="M190.7450104,88.8272018c0,0,2.9599457-4.5398254,3.9999695-11.0299988
		s0.8286743-14.970211,0.8286743-14.970211h-35.248642L33.2350006,63.0772018c0,0,0.2676201,1.5248337,0.0038109,4.0898285
		c-0.2638092,2.5650024,0.0771751,7.7481232,0.3854218,9.1031265s1.1707611,4.2471924,1.9407654,5.1170349
		c0.5759773,1.313942,2.4252548,7.3894272,3.1300011,7.4400101S190.7450104,88.8272018,190.7450104,88.8272018z"></path>
	<path d="M183.2150116,140.3371887c0,0,0.3074951-4.6576691,0.3974915-5.8726654
		c0.0900116-1.2149963,0.292923-3.2942657,0.4725189-4.8773193s0.6472168-6.8124084,0.7400208-7.6500015
		s0.3518982-4.3800888,0.4241486-5.1151886s0.2108307-2.4151688,0.2108307-2.4151688L43.380394,114.4361267
		c0,0,0.3793831,5.2895584,0.4046249,5.5627518c0.025238,0.273201,0.0228424,1.7117462,0.2471199,3.3899231
		c0.2242737,1.6781845,0.4356613,2.9791107,0.8561783,6.5378799c0.4205208,3.5587769,0.8366699,6.9205322,0.8366699,6.9205322
		l0.0500145,3.5799713L183.2150116,140.3371887z"></path>
	<path d="M183.155014,192.0058136c0,0-0.3358765-3.735672-0.1852264-5.0706635
		c0.15065-1.3349762,0.4042358-4.268692,0.1297302-5.4196625c-0.2745056-1.1509552-0.1037598-7.7039185-0.0932159-8.0613556
		c0.0105438-0.3574219,0.0737152-3.4592743,0.1487122-3.8769379s0.2717133-1.0026703,0.0664825-2.4989166
		c-0.0664978-0.9000092-0.0051422-1.0210876-0.0051422-1.0210876l-137.3913574,0.0200043
		c0,0,0.1371918,2.9251251,0.1235962,5.7149811s-0.0197029,7.7173004-0.0022507,8.436615
		c0.0174522,0.7193298,0.0373421,4.2957001,0.1389885,6.5731964c0.1016464,2.2775116,0.159668,5.1452179,0.159668,5.1452179
		L183.155014,192.0058136z"></path>
	<path d="M87.9576263,16.5285378c-6.1074905,5.5631771-12.8427429,9.485508-19.852623,12.8001537
		c-6.7374649,3.1858311-13.6835098,5.8350468-22.760006,7.6385059c6.1700668,0.0835419,26.5060081,0.1021347,49.6099968,0.0925522
		C94.5500031,30.949831,92.3076248,20.9587135,87.9576263,16.5285378z"></path>
	<path d="M187.0550079,269.0971985c0,0,0.4438782,3.0228882,0.6750031,5.744812
		c0.2311249,2.7219543,0.3523865,5.085022,0.1986847,6.3675232c-0.1536865,1.2825012-0.2775879,1.8156128-2.5664673,2.3660583
		c-2.2888641,0.5504456-8.4772186,1.6914368-17.7172241,2.0214233c-9.2399902,0.3300171-26.9405212,0.5662231-29.0127563,0.631073
		s-21.5072479,0.6795654-25.6022491,0.4742432c-4.0949936-0.2052917-23.222908-0.75354-27.5863342-0.7930298
		c-4.3634262-0.0394592-19.9885025-0.2449951-24.4807854-0.5354614c-4.4922752-0.2904663-13.2446251-1.0543823-17.1512527-2.1930847
		c-1.8366241-0.5312195-2.6027603-0.914978-2.8215675-1.7637329s-0.5750847-2.3247681-0.0650711-4.6298828
		c-0.079998-2.3501282,0.0574875-3.4223938,0.25-4c-0.0618477-0.7576294-0.1174889-1.1997681,0.3300133-3.6899414
		C45.3050003,269.0971985,187.0550079,269.0971985,187.0550079,269.0971985z"></path>
	<path d="M185.3650055,243.5671997c0,0,0.2195282-3.5101776,0.5947723-6.0901794
		c0.3752289-2.5800018,0.0484619-9.8536835-0.7331543-11.181839s-1.189743-4.5397797-1.2106781-5.6489716
		s0.2195129-2.9890442,0.2195129-2.9890442s-3.1091766-0.263855-5.8654633-0.1348572
		c-2.7562866,0.1289825-4.9071045,0.1734161-4.9071045,0.1734161L53.215004,217.6471863l-10.2961159-0.0399933
		c0,0,0.0915642,3.5878601,0.1760788,3.8048248c0.0845146,0.21698,0.4630203,2.3466797,0.4500351,3.8051758
		s0.2300034,3.4099884,0.2300034,3.4099884s-0.4600029,2.9251709-0.6800041,3.6300049s-0.0100021,4.5400085-0.0100021,4.5400085
		s0.3254356,2.58461,0.2614288,3.4548798c-0.0640106,0.870285-0.3314247,3.3051147-0.3314247,3.3051147L185.3650055,243.5671997z"></path>
</g>
<g onclick="select(this)" class="" id="gola-primaria" fill="#000000">
	<path d="M116.9612808,49.0477753c0.9626389-4.8089676,3.1024475-9.0236244,6.4492798-12.6026459
		c4.1694183-4.4586735,8.4370346-8.8270798,12.5426407-13.343298c3.1016693-3.4118843,5.5658417-7.3001604,7.496933-11.4869471
		c1.1600494-2.5151167,2.0028381-5.1494989,1.2360687-7.9960232c1.0204468,0.5798035,1.5783691,1.6334047,2.4360199,2.3822165
		c0.9793396,0.8550673,1.7985077,1.9075451,3.0384827,2.437151c1.5538025,1.0682335,2.0071106,2.3769512,1.6350403,4.2228565
		c-0.5260315,2.6097441-1.809494,4.872057-3.2950745,6.9872856c-4.7333832,6.7395763-9.7569733,13.2395916-15.7446136,18.9537182
		c-3.9443207,3.7641487-7.8492355,7.5282288-13.1023865,9.4524002
		C118.7554474,48.3834953,117.8587112,48.7165794,116.9612808,49.0477753z"></path>
	<path d="M83.3888931,4.5448394c-0.0166855,3.979423,1.5666809,7.4199128,3.5179672,10.7698879
		c2.7789459,4.7709198,6.3622055,8.8787422,10.1981049,12.8014355c2.7640457,2.8265934,5.4970856,5.6848927,8.1912689,8.5781612
		c3.2368317,3.4759941,5.1639252,7.6360855,6.1777725,12.2461243c-0.8419342,0.0738869-1.5169296-0.408268-2.2457809-0.6932793
		c-3.9116211-1.5295563-7.291893-3.8392944-10.3676224-6.7113991c-7.2736435-6.7920952-13.6247864-14.3459892-19.1692352-22.5971069
		c-1.2771759-1.9006538-2.3422928-3.876852-2.7694092-6.1657696c-0.4193039-2.2471418,0.0091248-3.2733984,2.0178757-4.4530277
		c1.2241135-0.5428443,2.0038834-1.6151705,2.9627686-2.475987C82.3918152,5.4047003,82.7055588,4.7611246,83.3888931,4.5448394z"></path>
	<path d="M141.3778229,9.5985832c-6.7595825,0.4636927-13.5199738,0.9158592-20.2785263,1.3940058
		c-8.3872375,0.5933704-16.7277985-0.1868401-25.0725174-0.8302784c-3.059494-0.2359104-6.1137238-0.5400925-9.1701736-0.813076
		c-0.7073364-1.3048449-0.8538132-2.723803-0.8080826-4.1702523c0.025322-0.8010435,0.4874268-1.3244181,1.2196655-1.6196523
		c1.1242981-0.4533081,2.3031769-0.6607053,3.5043182-0.6614058c15.6530457-0.0091302,31.3061066-0.0079172,46.9591522,0.0003197
		c1.1219025,0.0005903,2.2193146,0.2132609,3.2792206,0.5918701c0.9333496,0.3334045,1.4241791,0.9818466,1.4043884,1.9923222
		C142.3868103,6.9350324,142.1304169,8.3291445,141.3778229,9.5985832z"></path>
</g>
<g onclick="select(this)" class="" id="gola-secundaria" fill="#bf0811">
	<path d="M116.9612808,49.0477715c-0.8324356,0.1792336-1.5523987,0.84478-2.4890137,0.5762062
		c-0.2427521-0.8100166,0.0134888-1.5773354,0.2097244-2.3466263c0.9244614-3.6241455,2.5599976-6.9285049,4.5410843-10.0765305
		c4.0673141-4.2816811,8.1003723-8.5966415,12.2132492-12.8340511c3.0505219-3.1428795,5.666275-6.5991573,7.8605957-10.3761816
		c0.8134613-1.400176,1.7702942-2.7472067,2.0809021-4.392005c0.752594-1.2694387,1.0089874-2.6635509,1.0374451-4.116147
		c0.0197906-1.0104756-0.4710388-1.6589177-1.4043884-1.9923222c-1.059906-0.3786092-2.1573181-0.5912797-3.2792206-0.5918701
		c-15.6530457-0.0082369-31.3061066-0.00945-46.9591522-0.0003197c-1.2011414,0.0007005-2.3800201,0.2080977-3.5043182,0.6614058
		c-0.7322388,0.2952342-1.1943436,0.8186088-1.2196655,1.6196523c-0.0457306,1.4464493,0.1007462,2.8654075,0.8082733,4.1703057
		c0.0212784,0.5789633,0.3004456,1.072094,0.5614777,1.5584917c2.3854523,4.4450531,5.0797653,8.6672306,8.5605774,12.3653183
		c4.3764877,4.649662,8.9232254,9.1387672,13.1445236,13.9347076c2.2237625,3.3094826,3.8947067,6.8636131,4.8037567,10.7629471
		c0.1307526,0.5608444,0.1701813,1.0992203,0.0435562,1.6546745c-0.7908325,0.120369-1.496933-0.1469421-2.1891251-0.4788094
		c-0.0642166-0.1402206-0.1509247-0.2473221-0.327034-0.2237511c0,0,0.0194778,0.0175781,0.0194778,0.0175819
		c-1.0138474-4.6100388-2.9409409-8.7701302-6.1777725-12.2461243c-2.6941833-2.8932686-5.4272232-5.7515678-8.1912689-8.5781612
		c-3.8358994-3.9226933-7.4191589-8.0305157-10.1981049-12.8014355c-1.9512863-3.3499756-3.5346527-6.7904654-3.5179672-10.7698879
		c0.3883209-1.9640367,2.3113861-3.5002863,4.8101349-3.8288841c1.3067245-0.1718405,2.616745-0.2685975,3.938736-0.2676463
		c14.7403564,0.0106049,29.4807205,0.009529,44.221077,0.0041321c1.682373-0.000616,3.3574677,0.0772974,4.9857483,0.5180936
		c1.4764709,0.3996994,2.6970062,1.1730776,3.3416138,2.6483264c0.7667694,2.8465245-0.0760193,5.4809065-1.2360687,7.9960232
		c-1.9310913,4.1867867-4.3952637,8.0750628-7.496933,11.4869471c-4.1056061,4.5162182-8.3732224,8.8846245-12.5426407,13.343298
		C120.0637283,40.0241508,117.9239197,44.2388077,116.9612808,49.0477715z"></path>
</g>
<g onclick="select(this)" class="has-opacity" id="estampa-terciaria" fill="#000000" opacity="0.3">
	<path d="M42.5800018,248.3500061c-0.0900002-0.5399933-0.1899986-1.0800018,0.0699997-1.6000061
		c3.1199989,0,6.2399979,0.0099945,9.3600006,0.0099945c0.3100014,0,0.7900009,0.1300049,0.9000015-0.1499939
		c0.3400002-0.8800049,1.0400009-0.5800018,1.6199989-0.5800018c6.5999985-0.0200043,13.2000008-0.0099945,19.7999992-0.0200043
		c0.3899994,0,1.0500031,0.1600037,1.1299973-0.1399994c0.3099976-1.2200012,1.2300034-0.7899933,1.9300003-0.7899933
		c24.2799988-0.0200043,48.5500031-0.0200043,72.8300018-0.0200043c0.3600006,0,0.7200012,0,1.0800018,0.0099945
		c0.2400055,0.0099945,0.5500031-0.0200043,0.5800018,0.2799988c0.1000061,0.8800049,0.7599945,0.6499939,1.2700043,0.6499939
		c6.6799927,0.0099945,13.3600006,0,20.0399933,0.0099945c0.3899994,0,0.9799957-0.1900024,1.1300049,0.1600037
		c0.3399963,0.7899933,0.9600067,0.5700073,1.5099945,0.5800018c3.3200073,0.0200043,6.6399994,0.0200043,9.9600067,0.0299988
		c0.2899933,0.4900055,0.2599945,1.0299988,0.2200012,1.5700073c-3.4400024,0.0099945-6.8800049,0.0200043-10.3099976,0.0299988
		c-0.3500061,0-0.9400024-0.0399933-1.0200043,0.1199951c-0.4199982,0.9199982-1.1999969,0.6100006-1.8500061,0.6100006
		c-6.5599976,0.0200043-13.1100006,0.0099945-19.6699982,0.0200043c-0.3800049,0-1.0200043-0.1900024-1.1000061,0.1999969
		c-0.2200012,1.0800018-1,0.7299957-1.5899963,0.7299957c-19.8300018,0.0099945-39.6600037,0.0099945-59.4900055,0.0099945
		c-4.7200012,0-9.4400024,0-14.1500015-0.0099945c-0.3799973,0-1,0.1999969-1.0800018-0.2299957
		c-0.2099991-1.0099945-0.9199982-0.6999969-1.4899979-0.6999969c-6.6399994-0.0200043-13.2700005-0.0099945-19.9099998-0.0200043
		c-0.3899994,0-0.9799995,0.1900024-1.1300011-0.1600037c-0.3400002-0.8000031-0.9599991-0.5700073-1.5099983-0.5700073
		C48.6599998,248.3600006,45.6199989,248.3600006,42.5800018,248.3500061z"></path>
	<path d="M184.5399933,214.1699982c0.0099945,0.4799957,0.1199951,0.9600067-0.1399994,1.4100037
		c-2.9900055-0.0099945-5.9900055-0.0200043-8.9799957-0.0099945c-0.3000031,0-0.7799988-0.1300049-0.8500061,0.2200012
		c-0.1999969,0.8999939-0.8600006,0.6600037-1.4100037,0.6600037c-6.6999969,0.0099945-13.4100037,0.0200043-20.1100006-0.0099945
		c-0.7599945,0-1.2700043,0.0899963-1.1199951,1.0099945c-0.5200043-0.0099945-1.0399933-0.0200043-1.5599976-0.0200043
		c-24.2700043,0-48.5500031,0-72.8199997,0c-0.3600006,0-0.7200012,0.0200043-1.0800018-0.0099945
		c-0.2300034-0.0200043-0.6100006-0.0800018-0.6399994-0.2100067c-0.3099976-1.0599976-1.1600037-0.75-1.8499985-0.75
		c-6.5599976-0.0099945-13.1199989,0-19.6699982-0.0200043c-0.4000015,0-1.0200005,0.25-1.1599998-0.2899933
		c-0.2099991-0.7799988-0.75-0.5899963-1.2299995-0.5899963c-3.0400009-0.0099945-6.0800018-0.0099945-9.1199989-0.0099945
		c-0.0999985-0.4600067-0.0900002-0.9199982,0.0099983-1.3800049c3.0400009-0.0099945,6.0800018-0.0200043,9.1199989-0.0299988
		c0.3499985,0,0.8899994,0.1600037,1-0.1699982c0.3100014-0.9100037,1.0200005-0.6100006,1.5900002-0.6100006
		c6.5999985-0.0200043,13.1999969-0.0099945,19.7999954-0.0099945c0.3899994,0,1.0299988,0.1699982,1.1399994-0.1300049
		c0.4300003-1.1900024,1.3799973-0.75,2.1299973-0.75c22.5599976-0.0200043,45.1200027-0.0200043,67.6699905-0.0200043
		c1.8800049,0,3.7599945-0.0099945,5.6399994,0.0099945c0.3399963,0,0.8600006-0.1699982,0.9600067,0.2400055
		c0.1900024,0.8399963,0.7899933,0.6399994,1.3099976,0.6399994c6.6799927,0.0099945,13.3600006,0,20.0400085,0.0099945
		c0.4100037,0,1.0200043-0.2299957,1.1999969,0.25c0.2700043,0.7400055,0.8099976,0.5299988,1.2799988,0.5299988
		C178.6300049,214.1600037,181.5800018,214.1600037,184.5399933,214.1699982z"></path>
	<path d="M43.2299995,209.2400055c-0.0600014-0.4900055-0.0400009-0.9700012,0.2400017-1.3999939
		c2.8400002,0,5.6800003,0.0099945,8.5200005-0.0099945c0.3400002,0,0.9000015,0.1699982,0.9700012-0.2100067
		c0.1800003-1.0099945,0.9099998-0.7200012,1.4799995-0.7200012c6.6399994-0.0099945,13.2799988-0.0099945,19.9100037-0.0099945
		c0.3899994,0,1.0500031,0.1600037,1.1299973-0.1399994c0.3300018-1.2100067,1.2600021-0.7799988,1.9599991-0.7899933
		c18.8000031-0.0200043,37.5899963-0.0200043,56.3899994-0.0200043c5.6399994,0,11.2799988,0,16.9199982,0.0099945
		c0.3800049,0,0.9900055-0.1999969,1.0899963,0.2200012c0.2200012,0.9799957,0.9199982,0.7100067,1.4900055,0.7100067
		c6.6399994,0.0099945,13.2799988,0,19.9100037,0.0200043c0.3999939,0,1.0399933-0.25,1.1600037,0.2899933
		c0.1699982,0.7799988,0.6799927,0.6399994,1.1699982,0.6399994c3.1600037,0.0099945,6.3200073,0.0099945,9.4799957,0.0099945
		c-0.0099945,0.4700012-0.0299988,0.9299927-0.0399933,1.3999939c-3.1199951,0.0099945-6.2400055,0.0099945-9.3600006,0.0200043
		c-0.3500061,0-0.8999939-0.1600037-1.0200043,0.1399994c-0.3500061,0.8699951-1.0299988,0.5899963-1.6100006,0.5899963
		c-6.6000061,0.0200043-13.1999969,0.0099945-19.7899933,0.0200043c-0.3899994,0-1.0399933-0.1699982-1.1199951,0.1600037
		c-0.2899933,1.1600037-1.1499939,0.7700043-1.8099976,0.7700043c-24.3499985,0.0200043-48.7099991,0.0099945-73.0599976,0.0099945
		c-0.3199997,0-0.6399994,0.0200043-0.9599991-0.0099945c-0.1900024-0.0200043-0.5199966-0.0899963-0.5299988-0.1699982
		c-0.1699982-1.1600037-1.0699997-0.7400055-1.6900024-0.75c-6.5999985-0.0200043-13.2000008-0.0099945-19.7900009-0.0200043
		c-0.3800011,0-0.9500008,0.1999969-1.0999985-0.2100067c-0.2700005-0.7400055-0.8199997-0.5200043-1.2900009-0.5200043
		C48.9799995,209.2400055,46.0999985,209.25,43.2299995,209.2400055z"></path>
	<path d="M151.9499969,269.0899963c-0.3800049,0.3200073-0.8399963,0.1799927-1.2700043,0.1799927
		c-24.5999985,0.0100098-49.2099991,0.0100098-73.8099976,0c-0.4300003,0-0.8799973,0.1199951-1.2799988-0.1600037
		c0.1299973-0.9599915-0.5699997-0.7600098-1.0899963-0.7600098c-6.7399979-0.0100098-13.4799995,0-20.2099991-0.019989
		c-0.4000015,0-1.0299988,0.25-1.1599998-0.2799988c-0.2099991-0.8500061-0.7999992-0.6300049-1.3100014-0.6300049
		c-3.4300003-0.019989-6.8600006-0.0100098-10.2900009-0.0100098c0.0200005-0.4299927,0.0400009-0.8500061,0.0499992-1.2799988
		c3.4399986,0,6.8800011,0,10.3199997-0.0100098c0.3499985,0,0.9199982,0.1499939,1-0.1700134
		c0.2599983-1.0299988,1.0299988-0.7099915,1.6300011-0.7099915c6.5999985-0.019989,13.1999969-0.0100098,19.8000031-0.0100098
		c0.3899994,0,1.0400009,0.1700134,1.1299973-0.1400146c0.3600006-1.1799927,1.2699966-0.769989,1.9700012-0.769989
		c22.1100006-0.019989,44.2300034-0.0100098,66.3399887-0.0100098c2.3600006,0,4.7200012-0.0100098,7.0800018,0.0100098
		c0.3399963,0,0.8800049-0.1600037,0.9600067,0.230011c0.1799927,0.9100037,0.8200073,0.6900024,1.3800049,0.6900024
		c6.6799927,0.0100098,13.3600006,0,20.0400085,0.019989c0.3999939,0,1.0099945-0.25,1.1600037,0.3099976
		c0.1900024,0.7099915,0.6699982,0.5700073,1.1199951,0.5700073c3.7599945,0,7.5200043-0.0100098,11.2799988-0.0100098
		c0.25,0.4200134,0.1799927,0.8599854,0.1399994,1.3099976c-3.7599945,0-7.5099945,0-11.2700043,0.0100098
		c-0.3500061,0-0.9299927-0.1499939-1.0200043,0.1300049c-0.4100037,1.2600098-1.4199982,0.7799988-2.1799927,0.7799988
		c-6.4700012,0.0299988-12.9400024,0.019989-19.4199982,0.0299988
		C152.5700073,268.3500061,151.8300018,268.1099854,151.9499969,269.0899963z"></path>
	<path d="M186.2799988,259.6900024c0.2799988,0.4400024,0.1900024,0.9299927,0.1499939,1.3999939
		c-3.6000061,0.0100098-7.1900024,0.0100098-10.7899933,0.0299988c-0.3699951,0-0.9900055-0.2000122-1.0800018,0.2200012
		c-0.2100067,1.0100098-0.9299927,0.7000122-1.5,0.7000122c-6.6399994,0.019989-13.2700043,0.0100098-19.9100037,0.019989
		c-0.3999939,0-0.9799957-0.2399902-1.1699982,0.2799988c-0.2299957,0.6199951-0.6900024,0.4500122-1.0899963,0.4500122
		c-24.7399979,0.0100098-49.4799957,0.0100098-74.2300034,0c-0.3099976,0-0.7799988,0.1400146-0.9000015-0.1400146
		c-0.3499985-0.8399963-1.0299988-0.5899963-1.6200027-0.5899963c-6.6399994-0.0100098-13.2700005,0-19.9099998-0.019989
		c-0.4000015,0-1.0299988,0.25-1.1399994-0.3200073c-0.1699982-0.8200073-0.7200012-0.6000061-1.1899986-0.6000061
		c-3.3199997-0.019989-6.6300011-0.019989-9.9500008-0.019989c0.0299988-0.4599915,0.0600014-0.9299927,0.0800018-1.3900146
		c3.3199997,0,6.6399994,0,9.9500008-0.019989c0.3300018,0,0.8800011,0.1700134,0.9599991-0.230011
		c0.1699982-0.9299927,0.8199997-0.7000122,1.3699989-0.7000122c6.6800003-0.0100098,13.3500023,0,20.0300026-0.0100098
		c0.3899994,0,0.9899979,0.1799927,1.1299973-0.1600037c0.2799988-0.6799927,0.7699966-0.5799866,1.2699966-0.5799866
		c24.6999969,0,49.4100037,0,74.1100006,0c0.3099976,0,0.8399963-0.0100098,0.8999939,0.1300049
		c0.3600006,0.9200134,1.1199951,0.6000061,1.7299957,0.6000061c6.6000061,0.019989,13.1900024,0.0100098,19.7900085,0.019989
		c0.3800049,0,0.9900055-0.2000122,1.0800018,0.230011c0.1900024,0.9200134,0.8200073,0.7000122,1.3699951,0.7000122
		C179.25,259.6900024,182.7599945,259.6900024,186.2799988,259.6900024z"></path>
	<path d="M182.9100037,149.5399933c0,0.4799957,0.0099945,0.9499969,0.0099945,1.4299927
		c-2.5200043-0.0099945-5.0399933-0.0299988-7.5500031-0.0399933c-0.2700043,0-0.6999969-0.1000061-0.7799988,0.1600037
		c-0.2799988,0.8500061-0.9499969,0.5800018-1.4900055,0.5800018c-6.6399994,0.0099945-13.2700043,0.0099945-19.9100037,0.0099945
		c-0.3899994,0-1.0399933-0.1699982-1.1100006,0.1699982c-0.25,1.1300049-1.0700073,0.7599945-1.6999969,0.7599945
		c-24.3899994,0.0099945-48.7799988,0.0099945-73.1699982,0.0099945c-0.3199997,0-0.6399994,0.0200043-0.9599991-0.0099945
		c-0.1900024-0.0200043-0.5100021-0.1000061-0.5199966-0.1799927c-0.1399994-1.0899963-0.9700012-0.7400055-1.5699997-0.7400055
		c-6.5999985-0.0200043-13.1899986-0.0099945-19.7900009-0.0099945c-0.3600006,0-0.9399986,0.0899963-1.0400009-0.0700073
		c-0.6199989-1.0700073-1.5999985-0.6199951-2.4399986-0.6499939c-1.6800003-0.0599976-3.3600006-0.0299988-5.0400009-0.0399933
		c0.0099983-0.4600067,0.0099983-0.9299927,0.0099983-1.3899994c2.0400009,0,4.0800018,0,6.1199989-0.0099945
		c0.3400002,0,0.8899994,0.1699982,0.9700012-0.2200012c0.2000008-1,0.9300003-0.6999969,1.4900017-0.6999969
		c6.6399994-0.0099945,13.2699966-0.0099945,19.909996-0.0099945c0.3899994,0,1.0500031,0.1600037,1.1200027-0.1499939
		c0.2600021-1.1900024,1.1500015-0.7799988,1.8099976-0.7799988c24.0999985-0.0200043,48.2000046-0.0099945,72.3100052-0.0099945
		c0.5200043,0,1.0399933-0.0099945,1.5599976,0.0099945c0.2299957,0.0099945,0.6399994,0.0599976,0.6600037,0.1399994
		c0.1999969,1.1999969,1.1300049,0.7799988,1.7899933,0.7799988c6.5599976,0.0200043,13.1100006,0.0099945,19.6699982,0.0299988
		c0.3899994,0,1.0099945-0.2599945,1.1399994,0.3099976c0.1600037,0.7100067,0.6100006,0.6100006,1.0800018,0.6100006
		C177.9600067,149.5099945,180.4400024,149.5200043,182.9100037,149.5399933z"></path>
	<path d="M42.4500008,254.6600037c0.0299988-0.4600067,0.0600014-0.9299927,0.0900002-1.3899994
		c3.1199989-0.0099945,6.2399979-0.0099945,9.3600006-0.0299988c0.3499985,0,0.9000015,0.1600037,1.0099983-0.1600037
		c0.3199997-0.8899994,1-0.6300049,1.5800018-0.6300049c6.6399994-0.0099945,13.2700005-0.0099945,19.9099998-0.0200043
		c0.3799973,0,0.9800034,0.1999969,1.0899963-0.2100067c0.2699966-0.9499969,0.9700012-0.6600037,1.5400009-0.6699982
		c5.1600037-0.0200043,10.3199997-0.0099945,15.4700012-0.0099945c19.3499985,0,38.7099915,0,58.0599976,0.0099945
		c0.4199982,0,1.1000061-0.2200012,1.2299957,0.1699982c0.3300018,0.9700012,1.0500031,0.6999969,1.6699982,0.6999969
		c6.5599976,0.0099945,13.1100006,0.0099945,19.6699982,0.0200043c0.4199982,0,1.0700073-0.2200012,1.2200012,0.2100067
		c0.2899933,0.8099976,0.8699951,0.5700073,1.3699951,0.5700073c3.4799957,0.0299988,6.9600067,0.0299988,10.4300079,0.0399933
		c0.0899963,0.4600067,0.1000061,0.9199982-0.0200043,1.3800049c-3.5200043,0-7.0399933,0.0099945-10.5599976,0.0200043
		c-0.3500061,0-0.8999939-0.1600037-1,0.1699982c-0.2899933,0.9799957-1.0399933,0.7100067-1.6600037,0.7100067
		c-6.5599976,0.0099945-13.1199951,0.0099945-19.6800079,0.0099945c-0.3899994,0-1-0.1900024-1.1300049,0.1300049
		c-0.3999939,0.9600067-1.1699982,0.6500092-1.8099976,0.6500092c-11.6399994,0.0100098-23.2799988,0.0100098-34.9199982,0.0100098
		c-12.8000031,0-25.5999985,0-38.4000015-0.0100098c-0.4199982,0-1.0699997,0.2200012-1.2300034-0.1900024
		c-0.3300018-0.8200073-0.9400024-0.6000061-1.4899979-0.6000061c-6.6399994-0.0099945-13.2799988,0-19.9199982-0.0099945
		c-0.4199982,0-1.0299988,0.1999969-1.1899986-0.2899933c-0.2400017-0.7200012-0.7400017-0.6000061-1.2299995-0.6000061
		C48.7700005,254.6600037,45.6100006,254.6600037,42.4500008,254.6600037z"></path>
	<path d="M184.7200012,201.4100037c0.0299988,0.4499969,0.0599976,0.8999939,0.1000061,1.3399963
		c-3.0800018,0.0099945-6.1600037,0.0099945-9.2400055,0.0299988c-0.3500061,0-0.9199982-0.1499939-1,0.1699982
		c-0.2700043,1.0899963-1.1000061,0.75-1.7400055,0.75c-6.5599976,0.0200043-13.1100006,0.0099945-19.6699982,0.0200043
		c-0.3800049,0-0.9799957-0.1900024-1.1100006,0.1900024c-0.2400055,0.7200012-0.7299957,0.6100006-1.2299957,0.6100006
		c-24.7099991,0-49.4199982,0-74.1299973,0c-0.3099976,0-0.7900009,0.1399994-0.9000015-0.1399994
		c-0.3799973-0.9700012-1.1699982-0.6399994-1.8199997-0.6499939c-6.5199966-0.0200043-13.0299988-0.0099945-19.5499992-0.0200043
		c-0.4500008,0-1.1100006,0.2400055-1.2799988-0.3300018c-0.2200012-0.7599945-0.7400017-0.5800018-1.2200012-0.5899963
		c-2.4000015-0.0200043-4.7999992-0.0299988-7.2000008-0.0399933c0.0600014-0.5099945,0.1100006-1.0200043,0.5-1.4100037
		c2.2799988,0.0099945,4.5600014,0.0200043,6.8400002,0.0200043c0.3100014,0,0.7900009,0.1300049,0.8899994-0.1699982
		c0.2900009-0.8699951,0.9599991-0.5700073,1.5-0.5700073c6.6399994-0.0200043,13.2700005-0.0099945,19.9099998-0.0200043
		c0.3899994,0,1.0299988,0.1699982,1.1200027-0.1699982c0.2799988-1.0800018,1.0800018-0.75,1.7200012-0.75
		c24.3799973-0.0099945,48.7700043-0.0099945,73.1500092-0.0099945c0.3200073,0,0.6399994-0.0200043,0.9600067,0.0099945
		c0.1900024,0.0200043,0.5099945,0.0800018,0.5299988,0.1600037c0.2100067,1.1199951,1.0899963,0.75,1.7200012,0.75
		c6.5599976,0.0200043,13.1100006,0.0099945,19.6699982,0.0200043c0.3899994,0,0.9700012-0.1900024,1.1100006,0.1900024
		c0.3000031,0.7799988,0.8800049,0.5500031,1.3899994,0.5599976
		C178.7299957,201.3800049,181.7200012,201.3899994,184.7200012,201.4100037z"></path>
	<path d="M45.8600006,196.3200073c-0.0999985-0.4700012-0.0999985-0.9299927,0.0099983-1.3999939
		c2.0400009-0.0099945,4.079998-0.0099945,6.1100006-0.0200043c0.3100014,0,0.8400002,0.0099945,0.9000015-0.1300049
		C53.25,193.8700104,54,194.1699982,54.6100006,194.1699982c6.5900002-0.0200043,13.1900024-0.0099945,19.7799988-0.0200043
		c0.3799973,0,1.0199966,0.1799927,1.0999985-0.1799927c0.2200012-1.0800018,0.9899979-0.7400055,1.5899963-0.7400055
		c24.4599991-0.0099945,48.9199982-0.0099945,73.3799973-0.0099945c0.2799988,0,0.5599976-0.0200043,0.8399963,0.0099945
		c0.1900024,0.0200043,0.5099945,0.0899963,0.5200043,0.1799927c0.1399994,1.0899963,0.9700012,0.75,1.5700073,0.75
		c6.5899963,0.0200043,13.1900024,0.0099945,19.7799988,0.0200043c0.4100037,0,1.0099945-0.2299957,1.1999969,0.2400055
		c0.2700043,0.6600037,0.75,0.4900055,1.1900024,0.4900055c2.6799927,0.0299988,5.3500061,0.0299988,8.0299988,0.0399933
		c0.2700043,0.4100037,0.25,0.8800049,0.25,1.3500061c-2.7599945,0.0099945-5.5200043,0.0200043-8.2700043,0.0399933
		c-0.3500061,0-0.9299927-0.1499939-0.9900055,0.1699982c-0.2200012,1.1499939-1.0800018,0.75-1.6999969,0.75
		c-6.5599976,0.0200043-13.1100006,0.0099945-19.6699982,0.0200043c-0.4100037,0-1.0200043-0.2299957-1.1999969,0.2400055
		c-0.2599945,0.6600037-0.7400055,0.5-1.1799927,0.5c-24.6999969,0.0099945-49.4100037,0.0099945-74.1100006,0
		c-0.3099976,0-0.8399963,0.0200043-0.9000015-0.1199951c-0.4100037-0.9299927-1.1999969-0.6100006-1.8499985-0.6199951
		c-6.5599976-0.0200043-13.1100006,0-19.6699982-0.0200043c-0.4199982,0-1.0800018,0.2899933-1.2200012-0.3800049
		S52.5,196.3400116,52.0900002,196.3300018C50.0200005,196.3200073,47.9399986,196.3300018,45.8600006,196.3200073z"></path>
	<path d="M45.8800011,157.2100067c-0.0099983-0.4600067-0.0200005-0.9199982-0.0200005-1.3800049
		c2.0400009-0.0099945,4.0800018-0.0099945,6.1100006-0.0299988c0.3499985,0,0.8800011,0.1600037,0.9900017-0.1999969
		c0.25-0.8200073,0.8499985-0.5899963,1.3600006-0.5899963c6.6800003-0.0099945,13.3500023-0.0099945,20.0300026-0.0099945
		c0.3899994,0,1.0100021,0.1799927,1.1299973-0.1499939c0.3799973-1.0800018,1.2200012-0.7200012,1.9000015-0.7200012
		c17.7099991-0.0200043,35.4100037-0.0099945,53.1199951-0.0099945c6.7599945,0,13.5099945,0,20.2700043,0.0099945
		c0.3699951,0,0.9499969-0.2100067,1.0800018,0.2200012c0.2599945,0.8600006,0.8999939,0.6499939,1.4499969,0.6499939
		c6.6399994,0.0099945,13.2700043,0,19.9100037,0.0200043c0.4100037,0,1.0099945-0.2299957,1.1900024,0.2599945
		c0.2400055,0.6799927,0.7200012,0.5200043,1.1600037,0.5200043c2.6799927,0.0200043,5.3600006,0.0299988,8.0299988,0.0399933
		c-0.0099945,0.4600067-0.0099945,0.9199982-0.0200043,1.3800049c-2.6799927,0-5.3600006,0-8.0399933,0.0200043
		c-0.3399963,0-0.8800049-0.1699982-0.9600067,0.2200012c-0.1999969,1-0.9299927,0.6900024-1.5,0.6900024
		c-6.6399994,0.0200043-13.2799988,0.0099945-19.9100037,0.0200043c-0.3899994,0-0.9700012-0.1900024-1.1100006,0.1900024
		c-0.2899933,0.8000031-0.8899994,0.5500031-1.3899994,0.5500031c-10.0800018,0.0099945-20.1499939,0.0099945-30.2299957,0.0099945
		c-14.4799957,0-28.9499969,0-43.4300003-0.0099945c-0.4199982,0-1.0599976,0.2200012-1.2300034-0.1799927
		c-0.3199997-0.7400055-0.8799973-0.5599976-1.3899994-0.5599976c-6.7200012-0.0099945-13.4399986,0-20.1500015-0.0200043
		c-0.3899994,0-0.9900017,0.2599945-1.1199989-0.3600006c-0.1500015-0.75-0.6699982-0.5599976-1.1100006-0.5599976
		C49.9500008,157.2100067,47.9099998,157.2100067,45.8800011,157.2100067z"></path>
	<path d="M45.7999992,163.6600037c-0.2299995-0.4700012-0.2200012-0.9400024-0.0200005-1.4199982
		c2.0800018,0,4.1599998,0.0099945,6.2399979,0c0.3100014,0,0.7999992,0.1300049,0.9000015-0.1399994
		c0.3199997-0.8899994,1.0200005-0.6100006,1.5999985-0.6100006c6.5999985-0.0200043,13.1999969-0.0099945,19.7900009-0.0099945
		c0.3899994,0,1.0299988,0.1699982,1.1299973-0.1399994c0.3799973-1.2200012,1.3300018-0.7799988,2.0599976-0.7799988
		c24.2699966-0.0200043,48.5400009-0.0200043,72.8199997-0.0200043c0.3200073,0,0.6399994-0.0099945,0.9600067,0.0099945
		c0.2299957,0.0099945,0.5599976-0.0399933,0.5899963,0.2599945c0.1000061,0.8800049,0.75,0.6699982,1.2700043,0.6699982
		c6.6799927,0.0099945,13.3600006,0,20.0299988,0.0099945c0.4199982,0,1.0200043-0.2299957,1.2100067,0.2400055
		c0.2599945,0.6699982,0.7400055,0.5,1.1799927,0.5099945c2.5200043,0.0200043,5.0399933,0.0200043,7.5599976,0.0299988
		c-0.0099945,0.4499969-0.0299988,0.8999939-0.0399933,1.3600006c-2.5200043,0.0099945-5.0399933,0.0200043-7.5500031,0.0399933
		c-0.3399963,0-0.8699951-0.1799927-0.9700012,0.2200012c-0.2400055,0.9499969-0.9400024,0.7100067-1.5299988,0.7100067
		c-6.6000061,0.0099945-13.1900024,0-19.7900085,0.0200043c-0.4199982,0-1.0299988-0.2299957-1.2100067,0.2200012
		c-0.2599945,0.6600037-0.7299957,0.5099945-1.1699982,0.5099945c-24.7099991,0.0099945-49.4100037,0.0099945-74.1200027,0
		c-0.3099976,0-0.8300018,0.0200043-0.9000015-0.1300049c-0.4199982-0.9199982-1.2099991-0.6000061-1.8600006-0.6000061
		c-6.5199966-0.0200043-13.0299988-0.0099945-19.5499992-0.0200043c-0.4500008,0-1.0999985,0.2400055-1.2700005-0.3500061
		c-0.2000008-0.6900024-0.6500015-0.5800018-1.1100006-0.5800018
		C49.9599991,163.6499939,47.8800011,163.6600037,45.7999992,163.6600037z"></path>
	<path d="M183.0800018,143.0299988c0,0.4600067-0.0099945,0.9199982-0.0099945,1.3800049
		c-2.4799957,0.0099945-4.9600067,0.0099945-7.4400024,0.0299988c-0.3500061,0-0.8899994-0.1600037-1.0099945,0.1499939
		c-0.3500061,0.9400024-1.0899963,0.6300049-1.6999969,0.6300049c-6.5599976,0.0200043-13.1199951,0.0099945-19.6799927,0.0200043
		c-0.3899994,0-1.0399933-0.1699982-1.1300049,0.1399994c-0.3399963,1.1799927-1.2400055,0.7700043-1.9299927,0.7700043
		c-24.2799988,0.0200043-48.5599976,0.0099945-72.8300018,0.0099945c-0.3600006,0-0.7200012,0.0200043-1.0800018-0.0099945
		c-0.1900024-0.0099945-0.5199966-0.0800018-0.5299988-0.1699982c-0.1800003-1.1499939-1.0800018-0.7400055-1.6999969-0.7400055
		c-6.5599976-0.0200043-13.1199989-0.0099945-19.6800003-0.0200043c-0.4199982,0-1.0400009,0.2299957-1.2099991-0.2299957
		c-0.2599983-0.7400055-0.7900009-0.5500031-1.2700005-0.5500031c-2-0.0399933-4-0.0500031-6-0.0700073
		c0-0.4299927,0-0.8600006,0-1.3000031c2.0400009-0.0200043,4.079998-0.0399933,6.1100006-0.0599976
		c0.3100014,0,0.7900009,0.1300049,0.9000015-0.1399994c0.3800011-0.8999939,1.1199989-0.6100006,1.7299995-0.6100006
		c6.5600014-0.0200043,13.1200027-0.0099945,19.6699982-0.0200043c0.4199982,0,1.0699997,0.2200012,1.1999969-0.2400055
		c0.2699966-0.9499969,0.9499969-0.6799927,1.5299988-0.6799927c10.4799957-0.0099945,20.9499969-0.0099945,31.4300003-0.0099945
		c14.0400009,0,28.0699997,0,42.1100082,0.0099945c0.4199982,0,1.1100006-0.2100067,1.2200012,0.1799927
		c0.3000031,1,1.0299988,0.7299957,1.6499939,0.7299957c6.5599976,0.0200043,13.1199951,0.0099945,19.6699982,0.0099945
		c0.3600006,0,0.9400024-0.0899963,1.0399933,0.0800018c0.6600037,1.1100006,1.6900024,0.6399994,2.5599976,0.6600037
		C178.8399963,143.0599976,180.9600067,143.0299988,183.0800018,143.0299988z"></path>
	<path d="M185.2799988,53.4799995c-3.2400055,0-6.4799957-0.0099983-9.7200012,0.0099983
		c-0.4400024,0-0.9299927-0.1699982-1.1699982,0.5099983c-0.1799927,0.5099983-0.7799988,0.2700005-1.1799927,0.2700005
		c-6.4799957,0.0099983-12.9600067,0-19.4300079,0.0200005c-0.7100067,0-1.6100006-0.4000015-2,0.7400017
		c-0.1000061,0.2999992-0.7400055,0.1300011-1.1300049,0.1300011c-5.8000031,0.0099983-11.6000061,0-17.3899994,0
		c-18.6699982,0-37.3499985,0-56.0200043-0.0099983c-0.6299973,0-1.4499969,0.3699989-1.75-0.7099991
		c-0.0899963-0.3300018-0.7300034-0.1599998-1.1200027-0.1599998c-6.6800003-0.0099983-13.3600006,0-20.0299988-0.0099983
		c-0.5099983,0-1.0999985,0.2200012-1.3699989-0.5900002c-0.1300011-0.3899994-0.7200012-0.2000008-1.1100006-0.2000008
		c-6-0.0099983-12,0-17.9900017-0.0200005c-0.4000015,0-0.9099998,0.2200012-1.1800003-0.3100014
		C32.3599854,52.5,32.7299881,52.0500031,33.6399879,52.0500031c5.920002-0.0099983,11.8400002,0.0099983,17.75-0.0200005
		c0.6500015,0,1.5299988,0.4199982,1.8300018-0.75c0.0800018-0.3400002,0.7299995-0.1599998,1.1199989-0.1599998
		c6.5200005-0.0099983,13.0400009,0,19.5499954-0.0200005c0.6800003,0,1.5199966,0.3499985,1.9599991-0.6199989
		c0.0699997-0.1500015,0.5899963-0.1199989,0.9000015-0.1199989c24.7099991,0,49.4199982,0,74.1399994,0
		c0.4600067,0,0.9100037-0.0999985,1.1600037,0.5499992c0.1499939,0.4000015,0.7200012,0.2000008,1.1100006,0.2000008
		c6.6799927,0.0099983,13.3600006,0,20.0299988,0.0099983c0.5500031,0,1.1699982-0.2299995,1.3999939,0.6800003
		c0.1199951,0.4799995,0.7799988,0.2400017,1.1900024,0.2400017c6.4400024,0.0099983,12.8800049,0.0099983,19.3099976,0.0200005
		c0.4100037,0,0.9100037-0.2000008,1.1999969,0.2999992c0.3300018,0.5699997-0.1499939,1.1100006-1.0299988,1.1199989
		C191.9199982,53.4799995,188.6000061,53.4799995,185.2799988,53.4799995z"></path>
	<path d="M182.1100006,92.5899963c-2,0-4-0.0199966-6,0.0100021
		c-0.6499939,0.0100021-1.4199982-0.3199997-1.8300018,0.6399994c-0.1399994,0.3399963-0.7400055,0.1399994-1.1300049,0.1399994
		c-6.5599976,0.0100021-13.1199951,0-19.6799927,0.0100021c-0.6199951,0-1.3399963-0.2699966-1.6699982,0.6999969
		c-0.1399994,0.4000015-0.8000031,0.1800003-1.2299957,0.1800003c-15.8000031,0.0100021-31.5999985,0.0100021-47.4000015,0.0100021
		c-8.7200012,0-17.4400024,0-26.159996-0.0100021c-0.5800018,0-1.2699966,0.2699966-1.5299988-0.6900024
		c-0.1100006-0.3899994-0.7200012-0.1900024-1.0999985-0.1900024c-6.5999985-0.0100021-13.2000008,0-19.7999992-0.0199966
		c-0.6100006,0-1.3499985,0.3000031-1.7099991-0.6299973c-0.1199989-0.3199997-0.6599998-0.1500015-1.0099983-0.1500015
		c-3.6399994-0.0100021-7.2799988,0-10.9199982-0.0100021c-0.2799988,0-0.5600014,0-0.8400002,0
		c-0.7400017,0-0.8400002-0.6100006-0.8499985-1.0899963c-0.0099983-0.5599976,0.5400009-0.3300018,0.8400002-0.3300018
		c3.8800011-0.0199966,7.7600021-0.0100021,11.6399994-0.0199966c0.5499992,0,1.1800003,0.2200012,1.4199982-0.6699982
		c0.1100006-0.4100037,0.7099991-0.2099991,1.0900002-0.2099991C60.9600182,90.25,67.6800156,90.25,74.4000168,90.25
		c0.5199966,0,1.0800018,0.1699982,1.3199997-0.6399994c0.1399994-0.4800034,0.7699966-0.2900009,1.1900024-0.2900009
		c4.5199966-0.0100021,9.0400009-0.0100021,13.5599976-0.0100021c19.9599991,0,39.9199982,0,59.8800049,0.0100021
		c0.6199951,0,1.4600067-0.3899994,1.7100067,0.75c0.0700073,0.3399963,0.7299957,0.1699982,1.1100006,0.1699982
		c6.6000061,0.0100021,13.1999969,0,19.8000031,0.0199966c0.6100006,0,1.3999939-0.3199997,1.6199951,0.7200012
		c0.0500031,0.25,0.5,0.1600037,0.7700043,0.1600037c4.6000061,0,9.1999969-0.0100021,13.8000031,0.0100021
		c0.3200073,0,0.8899994-0.3899994,0.8999939,0.3399963c0.0099945,0.5599976-0.2100067,1.0299988-0.8800049,1.0699997
		c-0.2799988,0.0199966-0.5599976,0.0100021-0.8399963,0.0100021
		C186.2700043,92.5899963,184.1900024,92.5899963,182.1100006,92.5899963z"></path>
	<path d="M113.75,61.4700012c-12.1600037,0-24.3099976,0-36.4700012-0.0099983
		c-0.6500015,0-1.4199982,0.3199997-1.8499985-0.6199989c-0.1399994-0.3100014-0.75-0.1199989-1.1399994-0.1199989
		c-6.6800003-0.0099983-13.3600006,0-20.0299988-0.0099983c-0.5099983,0-1.0900002,0.2000008-1.2900009-0.6500015
		c-0.1199989-0.5200005-0.7599983-0.2700005-1.1599998-0.2700005c-5.7999992-0.0200005-11.6000023-0.0099983-17.3899994-0.0099983
		c-0.3199997,0-0.6500015,0.0299988-0.9599991-0.0299988c-0.5200005-0.0999985-0.5299988-0.5800018-0.5200005-0.9500008
		c0.0099983-0.6399994,0.5600014-0.4399986,0.9099998-0.4399986c4.3199997-0.0099983,8.6399994-0.0099983,12.9599991-0.0099983
		c1.4000015,0,2.7999992,0.0400009,4.2000008-0.0200005c0.7999992-0.0299988,1.7400017,0.3899994,2.3199997-0.6500015
		c0.0900002-0.1699982,0.6800003-0.0800018,1.0299988-0.0800018c6.5999985,0,13.1999969,0,19.7900009-0.0099983
		c0.5899963,0,1.3499985,0.3400002,1.5999985-0.7200012c0.0999985-0.4199982,0.7900009-0.2000008,1.2099991-0.2000008
		c8.6399994-0.0099983,17.2699966-0.0099983,25.909996-0.0099983c15.8300018,0,31.6699982,0,47.5,0.0099983
		c0.6300049,0,1.4600067-0.3800011,1.6999969,0.75c0.0700073,0.3400002,0.7200012,0.1699982,1.1100006,0.1699982
		c6.6399994,0.0099983,13.2799988,0,19.9100037,0.0200005c0.5399933,0,1.1699982-0.25,1.5099945,0.5699997
		c0.1399994,0.3400002,0.7400055,0.1599998,1.1300049,0.1599998c6.2400055,0.0099983,12.4799957,0,18.7100067,0.0200005
		c0.3899994,0,0.9600067-0.25,1.1199951,0.3699989c0.1900024,0.7400017-0.0800018,1.0699997-0.9199982,1.0600014
		c-3.6799927-0.0400009-7.3600006-0.0200005-11.0399933-0.0200005c-2.6799927,0-5.3600006,0-8.0399933,0
		c-0.4900055,0-1-0.1500015-1.1799927,0.6300011c-0.1199951,0.5400009-0.7599945,0.2900009-1.1600037,0.2900009
		c-6.6799927,0.0200005-13.3600006,0.0099983-20.0299988,0.0200005c-0.5099945,0-1.0800018-0.2099991-1.3899994,0.5699997
		c-0.1499939,0.3800011-0.8099976,0.1800003-1.2400055,0.1800003C138.3000031,61.4700012,126.0299988,61.4700012,113.75,61.4700012z
		"></path>
	<path d="M181.2899933,98.8799973c-1.9600067,0-3.9199982,0-5.8800049,0
		c-0.4199982,0-0.8399963-0.1100006-0.9900055,0.5500031c-0.1399994,0.6699982-0.8000031,0.3700027-1.2200012,0.3700027
		c-6.6000061,0.0199966-13.1900024,0.0100021-19.7900085,0.0199966c-0.6000061,0-1.4299927-0.3499985-1.5800018,0.7300034
		c-0.0099945,0.0899963-0.3300018,0.1699982-0.5200043,0.1900024c-0.3600006,0.0299988-0.7200012,0.0100021-1.0800018,0.0100021
		c-24.2299957,0-48.4599991,0-72.6900024-0.0199966c-0.7300034,0-1.7099991,0.4700012-2.0800018-0.7900009
		c-0.0899963-0.3000031-0.7399979-0.1299973-1.1299973-0.1299973c-6.6399994-0.0100021-13.2700005,0-19.9099998-0.0100021
		c-0.5800018,0-1.2900009,0.2699966-1.4700012-0.7300034c-0.0600014-0.3600006-0.6399994-0.1999969-0.9799995-0.1999969
		c-3.2799988-0.0100021-6.5600014,0-9.8400002-0.0100021c-0.3100014,0-0.6800003,0.0299988-0.9300003-0.1100006
		c-0.3100014-0.1900024-0.3699989-0.6299973-0.3400002-0.9700012c0.0400009-0.4599991,0.4799995-0.3300018,0.7700005-0.3300018
		c3.4399986-0.0100021,6.8800011,0,10.3199997-0.0100021c0.4399986,0,0.9199982,0.1699982,1.1899986-0.4899979
		c0.1899986-0.4700012,0.7900009-0.2399979,1.2000008-0.2399979c6.6399994-0.0100021,13.2700005,0,19.9099998-0.0199966
		c0.5699997,0,1.2799988,0.2799988,1.4800034-0.7200012c0.0800018-0.4000015,0.7099991-0.2099991,1.0899963-0.2099991
		c7.7600021-0.0100021,15.5100021-0.0100021,23.2700043-0.0100021c16.7900009,0,33.5899963,0,50.3800049,0.0100021
		c0.6000061,0,1.3699951-0.3399963,1.5800018,0.7399979c0.0700073,0.3499985,0.7200012,0.1800003,1.1100006,0.1800003
		c6.6399994,0.0100021,13.2700043,0,19.9100037,0.0199966c0.5299988,0,1.1999969-0.3000031,1.5,0.5699997
		c0.1100006,0.3199997,0.6600037,0.1600037,1.0099945,0.1600037c3.9199982,0.0100021,7.8399963,0,11.7599945,0.0199966
		c0.3600006,0,0.9900055-0.2699966,0.9799957,0.4499969c-0.0099945,0.5999985-0.2700043,1-1.0399933,0.9800034
		C185.2899933,98.8499985,183.2899933,98.8799973,181.2899933,98.8799973z"></path>
	<path d="M113.7600021,107.0699997c-12.2799988,0-24.5499954,0-36.8300018-0.0100021
		c-0.5400009,0-1.1800003,0.25-1.4100037-0.6600037c-0.1299973-0.4899979-0.7799988-0.25-1.1900024-0.25
		c-6.6399994-0.0100021-13.2799988,0-19.9099998-0.0199966c-0.5400009,0-1.1899986,0.2600021-1.4900017-0.5899963
		c-0.1100006-0.3099976-0.6599998-0.1600037-1.0099983-0.1600037c-2.9599991-0.0100021-5.920002,0-8.8800011-0.0100021
		c-0.3100014,0-0.6899986,0.0299988-0.9300003-0.1299973c-0.2999992-0.1999969-0.3800011-0.6200027-0.2799988-0.9800034
		c0.1100006-0.4300003,0.5099983-0.3099976,0.7999992-0.3099976c3.0400009-0.0100021,6.079998,0,9.1199989-0.0100021
		c0.5400009,0,1.1699982,0.2399979,1.4300003-0.6500015c0.1300011-0.4700012,0.7799988-0.2699966,1.2000008-0.2699966
		c6.5999985-0.0100021,13.2000008,0,19.7900047-0.0199966c0.5800018,0,1.25,0.2699966,1.5999985-0.6100006
		c0.1600037-0.4000015,0.8099976-0.1800003,1.2300034-0.1800003c16.9100037-0.0100021,33.8300018-0.0100021,50.7400055-0.0100021
		c7.6399994,0,15.2799988,0,22.9100037,0.0100021c0.4900055,0,1.0899963-0.2699966,1.3699951,0.5699997
		C152.1699982,103.2200012,152.8099976,103,153.230011,103c6.6000061,0.0100021,13.1999969,0,19.7900085,0.0100021
		c0.5899963,0,1.2899933-0.2399979,1.5299988,0.7200012c0.0899963,0.3799973,0.6399994,0.1999969,0.9799957,0.2099991
		c3.4400024,0.0100021,6.8800049,0,10.3199921,0.0199966c0.4400024,0,1.1199951-0.2900009,1.1199951,0.6299973
		c0,0.8600006-0.5800018,0.7900009-1.1499939,0.7900009c-3.3600006-0.0100021-6.7200012-0.0100021-10.0800018,0.0100021
		c-0.5,0-1.1000061-0.2399979-1.3899994,0.5500031c-0.1399994,0.3799973-0.7299957,0.1999969-1.1100006,0.1999969
		c-6.6000061,0.0100021-13.1999969,0-19.7899933,0.0100021c-0.6199951,0-1.3500061-0.2699966-1.6300049,0.7399979
		c-0.1100006,0.3899994-0.8000031,0.1800003-1.2200012,0.1800003c-9.5200043,0.0100021-19.0299988,0.0100021-28.5500031,0.0100021
		C119.2799988,107.0699997,116.5199966,107.0699997,113.7600021,107.0699997z"></path>
	<path d="M180,111.8199997c-1.1600037,0-2.3200073-0.0500031-3.4799957,0.0199966
		c-0.7899933,0.0400009-1.75-0.4100037-2.3200073,0.6500015c-0.0899963,0.1699982-0.6799927,0.0800018-1.0299988,0.0800018
		c-6.6799927,0-13.3600006,0-20.0399933,0.0100021c-0.5200043,0-1.1600037-0.2099991-1.2599945,0.6699982
		c-0.0299988,0.3000031-0.3600006,0.25-0.5899963,0.2600021c-0.2799988,0.0100021-0.5599976,0.0100021-0.8399963,0.0100021
		c-24.4799957,0-48.9599991,0-73.4400024-0.0100021c-0.5699997,0-1.2799988,0.2900009-1.4899979-0.7099991
		c-0.0899963-0.4199982-0.7099991-0.2099991-1.0800018-0.2099991c-6.6399994-0.0100021-13.2799988,0-19.9199982-0.0199966
		c-0.5800018,0-1.2700005,0.2699966-1.6199989-0.5899963c-0.1199989-0.3000031-0.6699982-0.1399994-1.0200005-0.1399994
		c-2.6399994-0.0100021-5.2799988-0.0100021-7.9199982,0c-0.6100006,0-1.2700005,0.0999985-1.2400017-0.8399963
		c0.0299988-0.9100037,0.7299995-0.5699997,1.1599998-0.5699997c2.7200012-0.0299988,5.4399986-0.0100021,8.1599998-0.0199966
		c0.4599991,0,0.9199982,0.1200027,1.0800018-0.6100006c0.1199989-0.5800018,0.7400017-0.3199997,1.1399994-0.3199997
		c6.6399994-0.0199966,13.2800026-0.0100021,19.920002-0.0199966c0.5800018,0,1.2699966,0.25,1.6100006-0.5999985
		c0.1200027-0.2900009,0.5899963-0.1500015,0.9000015-0.1500015c24.7200012,0,49.4400024,0,74.1600037,0
		c0.4400024,0,0.9199982-0.1600037,1.1799927,0.5c0.1900024,0.4700012,0.7899933,0.2399979,1.1999969,0.2399979
		c6.5599976,0.0100021,13.1199951,0,19.6800079,0.0199966c0.6300049,0,1.4700012-0.3799973,1.6900024,0.7600021
		c0.0599976,0.3000031,0.6499939,0.1600037,1,0.1600037c3.1199951,0.0100021,6.2400055,0,9.3600006,0.0199966
		c0.3500061,0,0.9700012-0.2900009,0.9100037,0.5100021c-0.0399933,0.5800018-0.2299957,0.9400024-0.9400024,0.9199982
		C183.2799988,111.7799988,181.6399994,111.8199997,180,111.8199997z"></path>
	<path d="M101.25,43.8300018c2.7099991,1.9700012,5.6100006,3.5999985,8.7200012,4.8499985
		c-5.6800003,0.0099983-11.3499985,0.0400009-17.0299988,0.0400009c-5.3199997,0.0099983-10.6299973,0.0099983-15.9499969-0.0099983
		c-0.5800018,0-1.2699966,0.2599983-1.4899979-0.7200012c-0.0899963-0.4000015-0.7099991-0.2000008-1.0899963-0.2000008
		c-6.5999985-0.0099983-13.1899986,0-19.7900009-0.0200005c-0.6100006,0-1.3300018,0.2900009-1.7299995-0.6100006
		c-0.1399994-0.3199997-0.7400017-0.1300011-1.1300011-0.1300011c-6.1599998-0.0099983-12.3100014,0-18.4700012-0.0099983
		c-0.2799988,0-0.5600014-0.0200005-0.8400002,0c-0.5699997,0.0400009-0.7700005-0.2299995-0.7900009-0.7799988
		c-0.0200005-0.5800018,0.2999992-0.6599998,0.75-0.6500015c0.3600006,0.0099983,0.7200012,0,1.0800018,0
		c6.1199989,0,12.2299995,0,18.3500023-0.0099983c0.5,0,1.0999985,0.2299995,1.2900009-0.6300011
		c0.1199989-0.5400009,0.7599983-0.2900009,1.1599998-0.2900009c6.6399994-0.0099983,13.2700005-0.0099983,19.9099998-0.0200005
		c0.5899963,0,1.25,0.2299995,1.5899963-0.6300011c0.1399994-0.3600006,0.7399979-0.1599998,1.1200027-0.1599998
		c7.6399994-0.0099983,15.2699966-0.0099983,22.909996-0.0099983C100.2900009,43.8600006,100.7699966,43.8400002,101.25,43.8300018z
		"></path>
	<path d="M118.1100006,48.6899986c3.1200027-1.3300018,6.1900024-2.7700005,8.9000015-4.8499985
		c7.7999954,0.0099983,15.590004,0.0099983,23.3899918,0.0400009c0.6100006,0,1.3399963-0.2999992,1.6900024,0.6500015
		c0.1199951,0.3300018,0.7400055,0.1399994,1.1300049,0.1399994c6.5599976,0.0099983,13.1199951,0,19.6699982,0.0200005
		c0.6300049,0,1.4600067-0.3800011,1.6999969,0.7700005c0.0599976,0.3199997,0.7299957,0.1599998,1.1199951,0.1599998
		c6.6399994,0.0099983,13.2799988,0,19.9100037,0.0200005c0.3899994,0,0.9799957-0.2700005,1.1199951,0.3400002
		s-0.0500031,1.0900002-0.8600006,1.0699997c-1.3600006-0.0299988-2.7200012-0.0099983-4.0800018-0.0099983
		c-5.3600006,0-10.7200012-0.0099983-16.0700073,0.0099983c-0.5099945,0-1.0899963-0.2299995-1.3899994,0.5499992
		c-0.1399994,0.3800011-0.7299957,0.1899986-1.1100006,0.1899986c-6.6399994,0.0099983-13.2799988,0-19.9100037,0.0200005
		c-0.5700073,0-1.2799988-0.2900009-1.4900055,0.7099991c-0.0800018,0.4000015-0.7100067,0.2000008-1.0899963,0.2000008
		c-8.0399933,0.0099983-16.0699921,0.0099983-24.1100006,0.0099983
		C123.7900009,48.7200012,120.9499969,48.7000008,118.1100006,48.6899986z"></path>
	<path d="M94.4800034,37.4000015c1.8000031,1.5699997,3.4499969,3.2799988,5.1100006,4.9899979
		c-7.6399994,0.0099983-15.2799988,0.0200005-22.909996,0.0299988c-0.4800034,0-0.9199982,0.0400009-1.1100006-0.6199989
		C75.4100037,41.2399979,74.8100052,41.5,74.4200058,41.5c-6.5999985-0.0200005-13.2000008,0-19.7999992-0.0200005
		c-0.6300011,0-1.4599991,0.3800011-1.7000008-0.7700005c-0.0600014-0.3199997-0.7299995-0.1599998-1.1199989-0.1599998
		c-5.5200005-0.0099983-11.0400009-0.0099983-16.5600014-0.0099983c-0.3800011,0-0.75,0-1.1300011,0
		c1.7999992-0.8199997,3.5699997-1.5200005,5.5999985-1.4599991c3.9599991,0.1100006,7.920002,0.0400009,11.8800011,0.0200005
		c0.5800018,0,1.25,0.2700005,1.6199989-0.5800018c0.1500015-0.3499985,0.7400017-0.1599998,1.1300011-0.1599998
		c6.5999985-0.0099983,13.1999969,0,19.7999954-0.0200005c0.5999985,0,1.3700027,0.3400002,1.5999985-0.7299995
		c0.0800018-0.3600006,0.7200012-0.1800003,1.1100006-0.1899986C82.25,37.4100037,87.6500015,37.4100037,93.0500031,37.4100037
		C93.5199966,37.4399986,94,37.4199982,94.4800034,37.4000015z"></path>
	<path d="M128.6999969,42.4099998c1.7400055-1.6699982,3.4799957-3.3400002,5.2299957-5.0099983
		c5.5200043,0.0099983,11.0299988,0.0200005,16.5500031,0.0499992c0.6100006,0,1.3399963-0.2999992,1.6199951,0.7099991
		c0.1100006,0.3899994,0.8000031,0.2099991,1.2200012,0.2099991c6.5500031,0.0099983,13.1100006,0,19.6600037,0.0200005
		c0.5700073,0,1.2700043-0.2999992,1.6100006,0.5900002c0.1199951,0.3100014,0.6600037,0.1500015,1.0099945,0.1500015
		c4,0.0099983,7.9900055,0,11.9900055,0.0099983c1.8200073,0,3.4199982,0.8199997,5.1000061,1.4199982
		c-5.6300049,0-11.25,0-16.8800049,0.0099983c-0.5800018,0-1.2700043-0.2700005-1.4799957,0.7200012
		c-0.0800018,0.3899994-0.7100067,0.2099991-1.0899963,0.2099991c-6.6699982,0.0099983-13.3500061,0-20.0200043,0.0099983
		c-0.5399933,0-1.2200012-0.25-1.3800049,0.6800003c-0.0700073,0.3699989-0.5399933,0.25-0.8399963,0.25
		C143.5700073,42.4199982,136.1399994,42.4099998,128.6999969,42.4099998z"></path>
</g>
<g onclick="select(this)" class="has-opacity" id="estampa-quaternaria" fill="#ffffff" opacity="0.2">
	<path d="M187.8899994,280.25c-4.5500031,0.019989-9.1000061,0.0400085-13.6600037,0.0499878
		c-0.1900024,0-0.5200043-0.019989-0.5599976-0.1199951c-0.4400024-1.269989-1.5099945-0.7999878-2.3300018-0.8099976
		c-6.3500061-0.0299988-12.6999969-0.019989-19.0500031-0.0100098c-0.6399994,0-1.1699982,0.0299988-1.1399994-0.8999939
		c0.0299988-0.9100037,0.6100006-0.769989,1.1499939-0.769989c4.0700073,0,8.1499939,0,12.2200012,0
		c2.5599976,0,5.1100006,0,7.6699982,0c0.5099945,0,1.0099945,0.1000061,1.2299957-0.6199951
		c0.1600037-0.5400085,0.75-0.3399963,1.1600037-0.3399963c3.9499969-0.0100098,7.9100037,0.0299988,11.8600006-0.0299988
		c1.0099945-0.0100098,1.3899994,0.2799988,1.2700043,1.269989c-0.0299988,0.2099915,0.1100006,0.4500122,0.1799927,0.6700134
		C187.8899994,279.1799927,187.8899994,279.7200012,187.8899994,280.25z"></path>
	<path d="M187.2299957,271.4100037c0.1499939,1.1700134-0.2799988,1.5400085-1.5099945,1.5100098
		c-3.6799927-0.1000061-7.3600006-0.0299988-11.0299988-0.0400085c-0.5399933,0-1.0800018,0.1400146-1.2899933-0.6799927
		c-0.1300049-0.519989-0.7599945-0.2799988-1.1699982-0.2799988c-6.6000061-0.0100098-13.1900024,0-19.7900085-0.019989
		c-0.4400024,0-1.1000061,0.3200073-1.2599945-0.5c-0.1600037-0.8900146,0.1799927-1.1700134,1.1000061-1.1700134
		c6.6799927,0.0400085,13.3500061,0.0100098,20.0299988,0.0299988c0.7299957,0,1.2700043-0.0599976,1.2700043-0.9500122
		c4.4799957-0.0100098,8.9600067-0.019989,13.4400024-0.0400085
		C187.3099976,269.9599915,187.1999969,270.6900024,187.2299957,271.4100037z"></path>
	<path d="M40.8600006,276.7900085c3.8800011-0.019989,7.7600021-0.0499878,11.6300011-0.0599976
		c0.2299995,0,0.6300011,0.0700073,0.6500015,0.1700134c0.2099991,1.1799927,1.1300011,0.7900085,1.7999992,0.7900085
		c6.5200005,0.019989,13.0400009,0.0100098,19.5599976,0.0100098c0.5599976,0,1.1100006-0.1000061,1.1200027,0.7999878
		c0.0100021,0.9599915-0.5599976,0.8699951-1.1699982,0.8699951c-5.9599991,0-11.9199982,0-17.8799973,0
		c-0.7200012,0-1.4399986-0.0100098-2.1599998,0c-0.4900017,0.0100098-1.0699997-0.1700134-1.1800003,0.6300049
		c-0.0499992,0.3599854-0.4199982,0.3099976-0.6899986,0.3099976c-3.9199982-0.0100098-7.8400002-0.0299988-11.7600021-0.0499878
		C40.6199989,279.1000061,40.7099991,277.9500122,40.8600006,276.7900085z"></path>
	<path d="M185.9600067,236.1100006c-3.8800049,0.0200043-7.7599945,0.0500031-11.6300049,0.0599976
		c-0.2299957,0-0.6300049-0.0500031-0.6600037-0.1499939c-0.3099976-1.25-1.3000031-0.8099976-2.0399933-0.8099976
		c-6.4400024-0.0299988-12.8800049-0.0099945-19.3200073-0.0200043c-0.5299988,0-1.1399994,0.1699982-1.1600037-0.7599945
		c-0.0099945-0.8000031,0.3500061-0.9199982,1.0200043-0.9100037c3.8000031,0.0200043,7.6000061,0.0099945,11.3999939,0.0099945
		c2.9199982,0,5.8399963,0.0099945,8.7599945-0.0099945c0.4799957,0,1.0800018,0.1999969,1.1999969-0.6100006
		c0.0599976-0.4299927,0.4700012-0.3600006,0.7799988-0.3500061c3.8800049,0.0200043,7.7599945,0.0399933,11.6300049,0.0599976
		C186.0899963,233.7899933,186.0700073,234.9499969,185.9600067,236.1100006z"></path>
	<path d="M53.2000008,269.3200073c-0.0499992,0.9400024,0.5499992,0.9400024,1.25,0.9400024
		c6.6300011-0.019989,13.2700005-0.019989,19.8999977,0c0.4400024,0,1.0899963-0.3200073,1.2300034,0.5299988
		c0.1500015,0.9200134-0.25,1.1499939-1.1299973,1.1400146c-6.6299973-0.0299988-13.2700005-0.019989-19.9000015-0.0100098
		c-0.5499992,0-1.1899986-0.2200012-1.3800011,0.7000122c-0.0999985,0.4599915-0.6899986,0.2600098-1.0600014,0.2600098
		c-3.1599998,0.0100098-6.3100014-0.0299988-9.4700012,0.0299988c-1.0699997,0.019989-1.5800018-0.230011-1.3600006-1.3800049
		c0.0400009-0.1900024-0.0099983-0.3999939-0.0200005-0.6000061c0.0400009-0.5599976-0.0499992-1.1300049,0.1899986-1.6700134
		C45.3699989,269.2900085,49.2900009,269.2999878,53.2000008,269.3200073z"></path>
	<path d="M185.2799988,243.6000061c-3.9199982,0-7.8399963,0-11.7599945,0
		c0.1100006-0.9499969-0.4700012-0.9799957-1.1900024-0.9799957c-6.6399994,0.0200043-13.2799988,0.0200043-19.9199982,0
		c-0.4400024,0-1.0899963,0.3099976-1.2299957-0.5299988c-0.1499939-0.9400024,0.2799988-1.1399994,1.1399994-1.1300049
		c6.5599976,0.0299988,13.1199951,0.0200043,19.6799927,0.0099945c0.6199951,0,1.3999939,0.2899933,1.6100006-0.7299957
		C173.6600037,240,174.0099945,240.0299988,174.25,240.0400085c3.7599945,0.0200043,7.5200043,0.0399933,11.2799988,0.0599976
		C185.4499969,241.2599945,185.3600006,242.4299927,185.2799988,243.6000061z"></path>
	<path d="M185.5299988,228.6699982c-3.7599945,0.0200043-7.5200043,0.0299988-11.2700043,0.0500031
		c-0.2400055,0-0.6100006,0.0399933-0.6499939-0.1799927c-0.1900024-1.1199951-1.0399933-0.7799988-1.6900024-0.7799988
		c-6.5200043-0.0200043-13.0399933-0.0099945-19.5500031-0.0099945c-0.5800018,0-1.2200012,0.1600037-1.2100067-0.8300018
		c0.0099945-1.0099945,0.6799927-0.8000031,1.2400055-0.8000031c6.5599976-0.0099945,13.1199951,0,19.6699982-0.0099945
		c0.5299988,0,1.1399994,0.1699982,1.3399963-0.6300049c0.0899963-0.3800049,0.4900055-0.3500061,0.8099976-0.3399963
		c3.5200043,0.0200043,7.0399933,0.0299988,10.5599976,0.0500031
		C185.3699951,226.2799988,185.25,227.5200043,185.5299988,228.6699982z"></path>
	<path d="M184.5099945,124.7699966c-0.2100067,0.4899979-0.4600067,0.8000031-1.1199951,0.7900009
		c-2.9600067-0.0500031-5.9199982-0.0199966-8.8699951-0.0199966c-0.4700012,0-0.9299927,0.0800018-1.0800018-0.6200027
		c-0.1300049-0.5999985-0.7299957-0.3499985-1.1300049-0.3499985c-6.6399994-0.0199966-13.2700043,0-19.9100037-0.0199966
		c-0.4400024,0-1.0899963,0.3099976-1.2200012-0.5400009c-0.1399994-0.9499969,0.3000031-1.1299973,1.1499939-1.1200027
		c6.6000061,0.0299988,13.1900024,0.0199966,19.7900085,0.0100021c0.6000061,0,1.3200073,0.2300034,1.4700012-0.7399979
		c0.0399933-0.2600021,0.3899994-0.2200012,0.6199951-0.2200012c3.5200043,0.0199966,7.0299988,0.0400009,10.5500031,0.0699997
		c0,0.1299973-0.0099945,0.2600021-0.0099945,0.3899994c-0.3300018,0.4800034-0.1900024,1.0100021-0.1799927,1.5299988
		C184.5599976,124.1999969,184.5399933,124.4800034,184.5099945,124.7699966z"></path>
	<path d="M183.8000031,221.25c-3.1600037,0.0099945-6.3200073,0.0299988-9.4700012,0.0299988
		c-0.2299957,0-0.6399994-0.0500031-0.6600037-0.1399994c-0.3000031-1.25-1.2899933-0.8099976-2.0299988-0.8099976
		c-6.4400024-0.0299988-12.8699951-0.0099945-19.3099976-0.0200043c-0.5299988,0-1.1399994,0.1699982-1.1600037-0.75
		c-0.0099945-0.7899933,0.3399963-0.9199982,1.0200043-0.9100037c3.8000031,0.0200043,7.6000061,0.0099945,11.3899994,0.0099945
		c2.9600067,0,5.9199982-0.0200043,8.8800049,0.0099945c0.7400055,0.0099945,1.1600037-0.1600037,1.0800018-0.9799957
		c3.5700073,0.0099945,7.1499939,0.0099945,10.7200012,0.0200043
		C184.1000061,218.8899994,183.9499969,220.0700073,183.8000031,221.25z"></path>
	<path d="M183.6499939,132.8999939c-3.1999969,0.0200043-6.3999939,0.0399933-9.5899963,0.0599976
		c-0.2299957,0-0.6199951,0.0500031-0.6100006-0.2100067c0.0399933-1.1399994-0.8000031-0.75-1.3200073-0.75
		c-6.6000061-0.0200043-13.1999969-0.0099945-19.8000031-0.0200043c-0.5200043,0-1.1499939,0.1900024-1.1699982-0.7400055
		c-0.0200043-0.7799988,0.3200073-0.9299927,1.0099945-0.9199982c3.4799957,0.0200043,6.9600067,0.0099945,10.4400024,0.0099945
		c3.1999969,0,6.3999939,0,9.6000061,0c0.5700073,0,1.2200012,0.1999969,1.3899994-0.6999969
		c0.0599976-0.3200073,0.4600067-0.2400055,0.7299957-0.2400055c2.8800049-0.0099945,5.7599945,0.0399933,8.6399994-0.0200043
		c1.1000061-0.0200043,0.8000031,0.7200012,0.8999939,1.2799988
		C183.8200073,131.3999939,183.8899994,132.1699982,183.6499939,132.8999939z"></path>
	<path d="M43.0299988,232.6300049c3.1599998-0.0200043,6.3100014-0.0399933,9.4700012-0.0599976
		c0.2400017,0,0.6100006-0.0399933,0.6500015,0.1799927c0.2200012,1.1900024,1.1300011,0.7799988,1.7999992,0.7799988
		c6.5099983,0.0200043,13.0300026,0.0099945,19.5400047,0.0099945c0.5599976,0,1.1100006-0.1100006,1.1200027,0.7899933
		c0.0199966,0.9600067-0.5500031,0.8699951-1.1699982,0.8699951c-5.5999985,0-11.1899986,0-16.7900009,0
		c-1.0400009,0-2.0800018-0.0099945-3.1199989,0c-0.5600014,0.0099945-1.2299995-0.2100067-1.3499985,0.7200012
		c-0.0400009,0.3200073-0.4599991,0.25-0.7200012,0.25c-3.1599998-0.0099945-6.3100014-0.0399933-9.4700012-0.0599976
		C42.8400002,234.9499969,42.8800011,233.7899933,43.0299988,232.6300049z"></path>
	<path d="M53.2700005,217.6900024c-0.1399994,0.9700012,0.4599991,0.9700012,1.1699982,0.9700012
		c6.670002-0.0200043,13.3400002-0.0099945,20.0099983,0c0.4599991,0,1.0699997-0.25,1.1600037,0.6199951
		c0.0800018,0.8899994-0.3199997,1.0500031-1.1100006,1.0500031c-6.5500031-0.0200043-13.0999985-0.0200043-19.6500015,0
		c-0.6300011,0-1.4900017-0.3800049-1.6800003,0.7700043c-0.0400009,0.2700043-0.4900017,0.1900024-0.7599983,0.1900024
		c-3.0699997-0.0099945-6.1500015-0.0299988-9.2200012-0.0399933c-0.3100014-0.7200012-0.0900002-1.5200043-0.3100014-2.2599945
		c-0.2400017-1.1300049,0.2900009-1.3500061,1.3300018-1.3300018
		C47.2200012,217.7299957,50.2400017,217.6900024,53.2700005,217.6900024z"></path>
	<path d="M53.2700005,243.5800018c-3.420002,0-6.8400002,0.0099945-10.2700005,0.0099945
		c0.2900009-1.1499939-0.0299988-2.3800049,0.4399986-3.5c3.0400009-0.0200043,6.0699997-0.0500031,9.1100006-0.0599976
		c0.1899986,0,0.5299988,0.0399933,0.5499992,0.1300049c0.3199997,1.2200012,1.2999992,0.7899933,2.0400009,0.8000031
		c6.4399986,0.0299988,12.8799973,0.0099945,19.3099976,0.0200043c0.5299988,0,1.1299973-0.1799927,1.1600037,0.75
		c0.0299988,0.9199982-0.4800034,0.9100037-1.1299973,0.9100037c-4-0.0099945-8-0.0099945-12-0.0099945
		c-2.7599983,0-5.5200005,0.0200043-8.2799988-0.0200043C53.4599991,242.6100006,53.1800003,242.8699951,53.2700005,243.5800018z"></path>
	<path d="M183.1399994,140.3899994c-3.2799988-0.0099945-6.5500031-0.0099945-9.8300018-0.0200043
		c0.1499939-1.0399933-0.5599976-0.9199982-1.2100067-0.9199982c-6.5899963,0-13.1900024,0.0099945-19.7799988-0.0099945
		c-0.3899994,0-0.8800049,0.2299957-1.1300049-0.3699951c-0.3600006-0.9100037-0.1100006-1.2799988,0.9700012-1.2799988
		c6.5899963-0.0099945,13.1900024,0,19.7799988,0c0.6100006,0,1.2899933,0.1799927,1.5299988-0.7200012
		c0.0899963-0.3399963,0.5500031-0.2599945,0.8600006-0.25c3,0.0099945,5.9900055,0.0299988,8.9900055,0.0399933
		C183.2599945,138.0299988,183.1999969,139.2100067,183.1399994,140.3899994z"></path>
	<path d="M183.0800018,184.5200043c-2.9600067,0.0099945-5.9199982,0.0299988-8.8800049,0.0399933
		c-0.2700043,0-0.7100067,0.0899963-0.7599945-0.1900024c-0.2200012-1.0899963-1.0500031-0.7700043-1.6999969-0.7799988
		c-6.4799957-0.0099945-12.9600067-0.0099945-19.4400024-0.0200043c-0.4199982,0-0.8999939,0.1699982-1.1999969-0.3099976
		c-0.3500061-0.5500031-0.0200043-1.2400055,0.6399994-1.3099976c0.3200073-0.0399933,0.6399994-0.0099945,0.9600067-0.0099945
		c6.4400024,0,12.8800049,0,19.3200073,0c0.5800018,0,1.2200012,0.1600037,1.4199982-0.6900024
		c0.0800018-0.3099976,0.4499969-0.2799988,0.7299957-0.2799988c2.9199982,0.0200043,5.8399963,0.0399933,8.75,0.0700073
		C183.2299957,182.1900024,183.1300049,183.3600006,183.0800018,184.5200043z"></path>
	<path d="M173.3099976,166.1199951c3.2599945-0.0099945,6.5200043-0.0200043,9.7799988-0.0299988
		c0.0700073,1.1799927,0.1799927,2.3500061,0.0299988,3.5299988c-2.9199982,0.0099945-5.8300018,0.0299988-8.75,0.0399933
		c-0.2299957,0-0.6199951,0.0099945-0.6799927-0.1100006c-0.6100006-1.3000031-1.7700043-0.8099976-2.7100067-0.8200073
		c-6.0700073-0.0399933-12.1499939,0-18.2200012-0.0399933c-0.5700073,0-1.5700073,0.5399933-1.5800018-0.7700043
		c-0.0099945-1.3899994,1.0399933-0.8399963,1.6399994-0.8399963c6.4299927-0.0399933,12.8699951-0.0299988,19.3000031-0.0200043
		C172.7899933,167.0700073,173.4600067,167.1399994,173.3099976,166.1199951z"></path>
	<path d="M43.6399994,227.1000061c0.0900002-1.9700012,0.0900002-1.9700012,2.1100006-1.9700012
		c2.1599998,0,4.3199997,0,6.4799995,0c0.4599991,0,0.9300003-0.1199951,1.0999985,0.6000061
		c0.1500015,0.6499939,0.8100014,0.3600006,1.2299995,0.3699951c6.4000015,0.0200043,12.8000031,0.0099945,19.1999969,0.0099945
		c0.2799988,0,0.5599976,0.0099945,0.8399963,0c0.5999985-0.0200043,0.9800034,0.1199951,1,0.8500061
		C75.6199875,227.7600098,75.1499939,227.75,74.5899887,227.75c-3.8399963-0.0099945-7.6800003,0-11.5200005,0
		c-2.920002,0-5.8400002,0-8.7599983,0c-0.4599991,0-0.9900017-0.1399994-1.0800018,0.6000061
		c-0.0499992,0.4400024-0.4599991,0.3699951-0.7700005,0.3699951c-2.920002-0.0200043-5.8400002-0.0399933-8.7599983-0.0599976
		C43.6899986,228.1399994,43.6699982,227.6199951,43.6399994,227.1000061z"></path>
	<path d="M182.9499969,190.8699951c0.1399994,0.9499969-0.1999969,1.2700043-1.2200012,1.2400055
		c-2.7400055-0.1000061-5.4799957-0.0599976-8.2200012-0.0800018c0.1300049-0.9400024-0.4199982-1-1.1600037-0.9900055
		c-6.6799927,0.0200043-13.3600006,0.0099945-20.0399933,0.0099945c-0.5299988,0-1.1300049,0.1600037-1.1499939-0.7599945
		c-0.0299988-0.9299927,0.5-0.9100037,1.1499939-0.9100037c4,0.0099945,8,0.0099945,12,0.0099945
		c2.7200012,0,5.4400024,0,8.1600037,0c0.4700012,0,0.9799957,0.1100006,1.0800018-0.6100006
		c0.0599976-0.4299927,0.4700012-0.3600006,0.7799988-0.3500061c2.8399963,0.0099945,5.6799927,0.0299988,8.5099945,0.0500031
		C182.8699951,189.2599945,182.9100037,190.0700073,182.9499969,190.8699951z"></path>
	<path d="M182.8600006,177.1000061c-2.8000031,0.0099945-5.5899963,0.0299988-8.3899994,0.0299988
		c-0.2700043,0-0.75-0.0200043-0.7799988-0.1300049c-0.3800049-1.3600006-1.4799957-0.8200073-2.2700043-0.8200073
		c-6.3500061-0.0399933-12.6999969-0.0200043-19.0500031-0.0200043c-0.5800018,0-1.2100067,0.1600037-1.2100067-0.8300018
		s0.6300049-0.8300018,1.2100067-0.8300018c6.6300049,0,13.2599945,0,19.8899994-0.0099945
		c0.5099945,0,1.1600037,0.2299957,1.2899933-0.6399994c0.0700073-0.4199982,0.5-0.3200073,0.8000031-0.3200073
		c2.8399963,0,5.6699982,0.0200043,8.5099945,0.0299988C182.8600006,174.7299957,182.8600006,175.9100037,182.8600006,177.1000061z"></path>
	<path d="M44.1399994,123.1999969c-0.1199989-1.0299988,0.2999992-1.3499985,1.3499985-1.3000031
		c2.1899986,0.0899963,4.3899994,0.0199966,6.5900002,0.0299988c0.5299988,0,1.0900002-0.1600037,1.2799988,0.6800003
		c0.1199989,0.5299988,0.7599983,0.2799988,1.1599998,0.2799988c6.6300011,0.0100021,13.2699966,0.0100021,19.9000015,0.0199966
		c0.4499969,0,1.0899963-0.2699966,1.1699982,0.5999985c0.0899963,0.8600006-0.2699966,1.0800018-1.0899963,1.0699997
		c-6.5899963-0.0299988-13.1899986-0.0199966-19.7799988-0.0100021c-0.6100006,0-1.4099998-0.3099976-1.5600014,0.7600021
		c-0.0299988,0.2399979-0.4000015,0.1999969-0.6399994,0.1999969c-2.7200012-0.0199966-5.4300003-0.0500031-8.1499977-0.0699997
		C44.2000008,124.7200012,44.1300011,123.9599991,44.1399994,123.1999969z"></path>
	<path d="M44.8800011,129.4499969c2.5600014-0.0200043,5.1100006-0.0500031,7.670002-0.0599976
		c0.1899986,0,0.5200005,0.0399933,0.5499992,0.1300049c0.3499985,1.2799988,1.4000015,0.7899933,2.1599998,0.7899933
		c6.3899994,0.0299988,12.7900009,0.0200043,19.1800003,0.0200043c0.5199966,0,1.1500015-0.1999969,1.1699982,0.7400055
		c0.0199966,0.7700043-0.2900009,0.9400024-0.9899979,0.9299927c-3.2399979-0.0299988-6.4700012-0.0099945-9.7099991-0.0099945
		c-3.4799995,0-6.9500008,0-10.4300003,0c-0.5299988,0-1.1399994-0.1799927-1.2700005,0.6799927
		c-0.0600014,0.4100037-0.5200005,0.2899933-0.8100014,0.2899933c-2.0400009,0.0099945-4.0800018-0.0299988-6.1100006,0.0299988
		c-0.6599998,0.0200043-0.9000015-0.3099976-1.1300011-0.7899933
		C45.0699997,131.2799988,44.7999992,130.3800049,44.8800011,129.4499969z"></path>
	<path d="M53.2599983,140.3800049c-2.4799995-0.0099945-4.9599991-0.0099945-7.4500008-0.0200043
		c0-0.6000061,0-1.1999969-0.0099983-1.8099976c0.0200005-0.2799988,0.0800018-0.5599976,0.0400009-0.8300018
		c-0.1100006-0.7799988,0.2700005-0.9499969,0.9599991-0.9299927c1.5999985,0.0399933,3.2000008-0.0200043,4.7999992,0.0299988
		c0.6699982,0.0200043,1.5299988-0.3899994,1.8199997,0.7799988c0.0800018,0.3500061,0.7299995,0.1799927,1.1100006,0.1799927
		c6.6399994,0.0099945,13.2700043,0,19.9100037,0.0099945c0.5199966,0,1.1500015-0.1900024,1.1600037,0.75
		c0.0100021,0.7799988-0.3099976,0.9299927-1,0.9299927c-3.4800034-0.0200043-6.9599991-0.0099945-10.4300003-0.0099945
		c-3.2799988,0-6.5600014,0.0099945-9.8300018-0.0099945C53.6500015,139.4400024,53.1300011,139.5099945,53.2599983,140.3800049z"></path>
	<path d="M46.0200005,173.5500031c2.1199989-0.0099945,4.2400017-0.0299988,6.3499985-0.0399933
		c0.2700005,0,0.7200012-0.0800018,0.7700005,0.1699982c0.2299995,1.1900024,1.1300011,0.7799988,1.7999992,0.7899933
		c6.5200005,0.0200043,13.0300026,0.0099945,19.5499992,0.0099945c0.5500031,0,1.1100006-0.1199951,1.1299973,0.7899933
		c0.0199966,0.9499969-0.5400009,0.8800049-1.1600037,0.8800049c-5.2799988-0.0099945-10.5499992,0-15.8300018,0
		c-1.3600006,0-2.7200012-0.0099945-4.0800018,0c-0.5600014,0-1.2299995-0.2100067-1.3600006,0.7200012
		c-0.0400009,0.3200073-0.4599991,0.25-0.7200012,0.25c-2.2000008-0.0099945-4.4000015-0.0299988-6.5900002-0.0500031
		C45.7400017,175.8899994,45.6399994,174.7100067,46.0200005,173.5500031z"></path>
	<path d="M45.8400002,166.0899963c2.4700012,0,4.9500008,0.0099945,7.420002,0.0099945
		c-0.1300011,0.9799957,0.4900017,0.9600067,1.1899986,0.9600067c6.6399994-0.0099945,13.2700005-0.0099945,19.9099998,0.0099945
		c0.4400024,0,1.0999985-0.3200073,1.2300034,0.5200043c0.1500015,0.9100037-0.2300034,1.1499939-1.1200027,1.1499939
		c-6.6399994-0.0299988-13.2700005-0.0200043-19.9099998-0.0099945c-0.5600014,0-1.2299995-0.2200012-1.3800011,0.6999969
		c-0.0499992,0.3200073-0.4599991,0.2400055-0.7299995,0.2400055c-2.1199989-0.0099945-4.2299995-0.0299988-6.3499985-0.0500031
		C45.8499985,168.4499969,45.7999992,167.2799988,45.8400002,166.0899963z"></path>
	<path d="M45.9399986,180.9700012c2.079998,0,4.1599998-0.0099945,6.2299995,0
		c0.3100014,0,0.8600006,0.0099945,0.9000015,0.1300049c0.3899994,1.3500061,1.4799995,0.8200073,2.2700005,0.8200073
		c6.3499985,0.0399933,12.7100029,0.0200043,19.0600014,0.0200043c0.5699997,0,1.2200012-0.1900024,1.2099991,0.8200073
		c0,1.0099945-0.6600037,0.8099976-1.2200012,0.8099976c-6.6299973,0.0099945-13.2700005,0-19.9000015,0.0099945
		c-0.5200005,0-1.1399994-0.2100067-1.2799988,0.6600037c-0.0800018,0.4700012-0.5900002,0.3000031-0.9199982,0.3099976
		c-2.0400009,0.0099945-4.0800018,0.0099945-6.1100006,0.0099945
		C46.1199989,183.3600006,45.6899986,182.1900024,45.9399986,180.9700012z"></path>
	<path d="M53.2700005,192c-2.3699989,0.0200043-4.7299995,0.0399933-7.0999985,0.0500031
		c-0.1899986-1.1999969-0.0900002-2.3999939-0.0800018-3.6000061c2.1199989-0.0200043,4.2400017-0.0399933,6.3600006-0.0500031
		c0.2299995,0,0.6300011,0.0500031,0.6599998,0.1499939c0.2999992,1.25,1.2999992,0.8000031,2.0299988,0.8099976
		c6.4399986,0.0299988,12.8799973,0.0099945,19.3199997,0.0200043c0.5299988,0,1.1299973-0.1699982,1.1500015,0.7599945
		c0.0299988,0.9299927-0.4899979,0.9100037-1.1399994,0.9100037c-4.2399979-0.0099945-8.4799957-0.0099945-12.7200012-0.0099945
		c-2.5200005,0-5.0400009,0.0299988-7.5600014-0.0200043C53.4300003,191.0099945,53.1800003,191.2899933,53.2700005,192z"></path>
	<path d="M146.1999969,285.9700012c1.0800018,0.0100098,2.1499939,0.0400085,3.2299957,0.019989
		c0.6999969-0.019989,1.5500031,0.3399963,1.9199982-0.7000122c0.0399933-0.1099854,0.4299927-0.1499939,0.6600037-0.1499939
		c6.7799988,0.0100098,13.5599976,0.0299988,20.3399963,0.0499878c0.1199951,0,0.2299957,0.0499878,0.3500061,0.0799866
		c-7.3500061,0.6099854-14.7100067,0.6700134-22.0800018,0.6499939
		C149.1399994,285.9100037,147.6699982,285.9500122,146.1999969,285.9700012z"></path>
	<path d="M58.4300003,285.2600098C63.6199989,285,68.8199997,285.2000122,74.0100021,285.1400146
		c0.3600006,0,0.7200012,0,1.0800018,0.0100098c0.4499969,0.0100098,0.5100021,0.2900085,0.4499969,0.6499939
		C69.8300018,285.8699951,64.1299973,285.6600037,58.4300003,285.2600098z"></path>
	<path d="M173.3699951,285.1900024c-0.0200043-0.4500122-0.25-1.0400085,0.5399933-1.019989
		c2.6399994,0.0499878,5.2899933-0.1600037,7.9199982,0.1400146
		C179.0299988,284.730011,176.2100067,285.1000061,173.3699951,285.1900024z"></path>
	<path d="M173.5700073,269.1700134c4.4799957-0.1799927,8.9700012-0.0799866,13.4499969-0.0499878
		c0.0200043,0.0499878,0.0200043,0.1000061,0,0.1499939c-4.4799957,0.0100098-8.9600067,0.019989-13.4400024,0.0400085
		C173.5599976,269.2600098,173.5500031,269.2200012,173.5700073,269.1700134z"></path>
	<path d="M41.4500008,269.1199951c3.9300003-0.0400085,7.8499985-0.1300049,11.7799988,0.0499878
		c0.0099983,0.0499878,0,0.1000061-0.0299988,0.1499939c-3.920002-0.019989-7.829998-0.0299988-11.75-0.0499878
		C41.4300003,269.2200012,41.4300003,269.1700134,41.4500008,269.1199951z"></path>
	<path d="M195.3099976,66.4599991c-6.9499969,0.0100021-13.9100037,0.0199966-20.8600006,0.0199966
		c-0.4299927,0-0.8500061,0.0699997-0.9900055-0.5699997c-0.1499939-0.6800003-0.7899933-0.4000015-1.2200012-0.4000015
		c-6.6300049-0.0199966-13.2700043-0.0100021-19.8999939-0.0199966c-0.4199982,0-1.0200043,0.2600021-1.1499939-0.4899979
		c-0.1499939-0.8700027,0.1499939-1.1899986,1.0899963-1.1800003c6.6699982,0.0400009,13.3500061,0.0099983,20.0200043,0.0299988
		c0.6900024,0,1.3200073,0.0400009,1.2400055-0.9399986c7.0200043-0.0099983,14.0299988-0.0099983,21.0500031-0.0499992
		c0.7899933,0,0.9799957,0.3199997,0.9299927,0.9799995C195.4600067,64.7200012,195.3800049,65.5899963,195.3099976,66.4599991z"></path>
	<path d="M195.0899963,73.9100037c-6.7899933,0-13.5899963,0.0100021-20.3800049,0.0100021
		c-0.5399933,0-1.0700073,0.1299973-1.3500061-0.6299973c-0.1999969-0.5400009-0.8500061-0.3099976-1.3000031-0.3099976
		c-6.5500031-0.0100021-13.1100006,0-19.6600037-0.0199966c-0.4400024,0-1.0899963,0.3199997-1.2299957-0.5299988
		c-0.1499939-0.9400024,0.2700043-1.1399994,1.1399994-1.1399994c6.5899963,0.0299988,13.1900024,0.0199966,19.7799988,0.0100021
		c0.5899963,0,1.2899933,0.2600021,1.5-0.7200012c0.0899963-0.4100037,0.6199951-0.2399979,0.9600067-0.2399979
		c6.9100037,0,13.8200073,0.0100021,20.7400055,0.0100021C195.3300018,71.5400009,195.4400024,72.7399979,195.0899963,73.9100037z"></path>
	<path d="M193.7700043,81.4499969c-3.3099976-0.0299988-6.6300049-0.0599976-9.9400024-0.0800018
		c-3.0399933-0.0100021-6.0700073,0-9.1100006-0.0100021c-0.5200043,0-1.1000061,0.1800003-1.3000031-0.6600037
		c-0.1300049-0.5500031-0.75-0.3000031-1.1600037-0.3000031c-6.6300049-0.0100021-13.2700043-0.0100021-19.8999939-0.0199966
		c-0.5099945,0-1.1399994,0.2300034-1.1999969-0.7099991c-0.0599976-1.0100021,0.5399933-0.9499969,1.2100067-0.9499969
		c6.5099945,0.0100021,13.0299988,0.0100021,19.5399933-0.0100021c0.6399994,0,1.4600067,0.3399963,1.7100067-0.7699966
		c0.0800018-0.3499985,0.6399994-0.1900024,0.9900055-0.1999969c6.6699982,0,13.3500061,0,20.0200043,0
		C194.6100006,79.0599976,194.3099976,80.2900009,193.7700043,81.4499969z"></path>
	<path d="M33.2000008,70.3499985c6.3600006-0.0100021,12.7099991-0.0100021,19.0699997-0.0199966
		c0.4799995,0,0.9199982-0.0699997,1.0699997,0.6299973c0.1300011,0.5899963,0.7400017,0.3399963,1.1300011,0.3399963
		c6.6399994,0.0199966,13.2700043,0.0100021,19.9100037,0.0199966c0.4899979,0,1.1600037-0.2900009,1.2300034,0.6699982
		s-0.4400024,1-1.1699982,0.9899979c-6.5999985-0.0199966-13.1899986-0.0100021-19.7900009,0
		c-0.5900002,0-1.2700005-0.25-1.5,0.7200012c-0.0900002,0.4000015-0.7099991,0.2099991-1.0900002,0.2099991
		c-6.2400017,0.0100021-12.4700012,0.0199966-18.7099991,0.0199966C33.0400009,72.75,33.1100006,71.5500031,33.2000008,70.3499985z"></path>
	<path d="M53.25,62.9300003c-0.1300011,1.0200005,0.5699997,0.9199982,1.2299995,0.9199982
		C61.1199989,63.8400002,67.75,63.8400002,74.3899994,63.8599968c0.4400024,0,1.0899963-0.3100014,1.2099991,0.5499992
		c0.1399994,0.9599991-0.3099976,1.1200027-1.1600037,1.1100006C67.8399963,65.4899979,61.2499962,65.5,54.6499939,65.5099945
		c-0.5800018,0-1.2900009-0.2600021-1.4799995,0.7300034c-0.0699997,0.3899994-0.6300011,0.2300034-0.9599991,0.2300034
		c-6.2799988,0-12.5499992,0-18.829998-0.0100021c-0.0099983-0.7600021,0.1199989-1.5400009-0.0400009-2.2600021
		c-0.2900009-1.3100014,0.3400002-1.3499985,1.3699989-1.3400002C40.8899994,62.9199982,47.0699997,62.9199982,53.25,62.9300003z"></path>
	<path d="M33.9399986,77.7699966c6.079998,0,12.1599998-0.0100021,18.2299995-0.0100021
		c0.5099983,0,1-0.1100006,1.1800003,0.6600037c0.1300011,0.5599976,0.75,0.3099976,1.1500015,0.3099976
		c6.6399994,0.0199966,13.2799988,0.0100021,19.9100037,0.0199966c0.5,0,1.1399994-0.2399979,1.1999969,0.7099991
		c0.0599976,1.0100021-0.5299988,0.9499969-1.2099991,0.9499969c-6.5199966-0.0100021-13.0400009-0.0100021-19.5499992,0.0100021
		c-0.6300011,0-1.4599991-0.3799973-1.7000008,0.7600021c-0.0800018,0.3700027-0.7200012,0.1999969-1.0999985,0.1999969
		c-5.5200005,0.0100021-11.0400009,0.0100021-16.5499992,0.0199966
		C34.7999992,80.2600021,34.2099991,79.0800018,33.9399986,77.7699966z"></path>
	<path d="M190.8099976,88.8199997c-5.3099976-0.0199966-10.6199951-0.0299988-15.9400024-0.0599976
		c-0.5700073,0-1.2599945,0.2699966-1.5099945-0.6999969c-0.1100006-0.4400024-0.7899933-0.2200012-1.1999969-0.2200012
		c-6.5899963-0.0100021-13.1799927,0-19.7700043-0.0199966c-0.4499969,0-1.0899963,0.3000031-1.2200012-0.5500031
		c-0.1399994-0.9599991,0.3200073-1.1200027,1.1600037-1.1100006c6.5899963,0.0299988,13.1800079,0.0199966,19.7700043,0.0100021
		c0.6000061,0,1.2599945,0.2200012,1.5099945-0.7200012c0.1100006-0.4100037,0.7100067-0.2200012,1.0899963-0.2200012
		c5.9100037-0.0100021,11.8199921-0.0100021,17.7400055-0.0100021
		C192.3099976,86.5999985,191.5800018,87.7200012,190.8099976,88.8199997z"></path>
	<path d="M36.9500008,85.1999969c5.0400009,0,10.0699997,0.0100021,15.1100006,0.0199966
		c0.5200005,0,1.0999985-0.1900024,1.2999992,0.6500015c0.1300011,0.5299988,0.7599983,0.2799988,1.1699982,0.2799988
		c6.6399994,0.0199966,13.2700043,0.0100021,19.9100037,0.0199966c0.4499969,0,1.0800018-0.2600021,1.1699982,0.5999985
		c0.0899963,0.8799973-0.2900009,1.0699997-1.0999985,1.0599976c-6.5199966-0.0299988-13.0299988-0.0299988-19.5499992,0
		c-0.6500015,0-1.5499992-0.4300003-1.8199997,0.7600021c-0.0699997,0.3000031-0.6500015,0.1600037-1,0.1600037
		c-4.079998,0.0100021-8.1499977,0-12.2299995,0.0100021c-0.4399986,0-0.8699989,0.0500031-1.3100014,0.0699997
		C37.75,87.7600021,37.3400002,86.4899979,36.9500008,85.1999969z"></path>
	<path d="M185.5200043,114.9800034c-0.25,0.5899963-0.2400055,1.2200012-0.2599945,1.8399963
		c-0.3200073,0.3799973-0.1900024,0.8300018-0.1999969,1.2600021l0.0099945,0.0100021
		c-3.5099945-0.0100021-7.0299988-0.0100021-10.5399933-0.0199966c-0.5299988,0-1.0899963,0.1600037-1.3000031-0.6699982
		c-0.1300049-0.5400009-0.7599945-0.2900009-1.1600037-0.2900009c-6.4700012-0.0100021-12.9400024-0.0100021-19.4100037-0.0100021
		c-0.2799988,0-0.5599976-0.0100021-0.8399963,0c-0.5399933,0.0199966-0.8099976-0.2300034-0.8200073-0.7799988
		c-0.0200043-0.6200027,0.2799988-0.8799973,0.8699951-0.8499985c0.2799988,0.0100021,0.5599976,0,0.8399963,0
		c6.4700012,0,12.9400024,0,19.4100037,0c0.6699982,0,1.3399963,0.0599976,1.1999969-0.9400024
		c3.75-0.0199966,7.5099945-0.0199966,11.2599945-0.0800018
		C185.0599976,114.4499969,185.2700043,114.6999969,185.5200043,114.9800034z"></path>
	<path d="M43.4599991,117.0800018c-0.3800011-0.8199997-0.2799988-1.6900024-0.2599983-2.5599976
		c3.3499985,0,6.7099991,0,10.0600014-0.0100021c-0.1300011,0.9700012,0.4900017,0.9700012,1.1899986,0.9599991
		c6.6399994-0.0100021,13.2800026-0.0100021,19.920002,0.0100021c0.4400024,0,1.0899963-0.3199997,1.2300034,0.5299988
		c0.1500015,0.9700012-0.3399963,1.0999985-1.1699982,1.0999985c-6.3600006-0.0299988-12.7200012-0.0299988-19.0800018,0.0100021
		c-0.7900009,0-1.8699989-0.5299988-2.2700005,0.8199997c-0.0800018,0.2600021-0.5900002,0.1299973-0.9000015,0.1299973
		c-2.4000015,0.0100021-4.7999992-0.0299988-7.2000008,0.0199966
		C44.1599998,118.1200027,43.6100006,117.9499969,43.4599991,117.0800018z"></path>
	<path d="M54.6899986,34.5400009c6.5900002,0.0099983,13.170002,0.0200005,19.7599983,0.0400009
		c0.4599991,0,1.0699997-0.2400017,1.1500015,0.6300011c0.0800018,0.9000015-0.3300018,1.0400009-1.1200027,1.0400009
		c-6.7099991-0.0200005-13.4199982-0.0099983-20.1200027-0.0200005c-0.6599998,0-1.2400017,0-1.1100006,0.9099998
		c-2.6699982,0-5.3499985,0-8.0200005,0c-0.0099983-0.0400009-0.0299988-0.0800018-0.0400009-0.1199989
		C48.3600006,36.1899986,51.5299988,35.3699989,54.6899986,34.5400009z"></path>
	<path d="M173.5299988,37.1699982c0.1100006-0.9799995-0.5299988-0.9500008-1.2200012-0.9500008
		c-6.6399994,0.0099983-13.2799988,0.0099983-19.9100037,0c-0.4900055,0-1.1600037,0.2799988-1.2299957-0.6699982
		c-0.0700073-0.9700012,0.4600067-0.9900017,1.1799927-0.9900017c6.1199951,0.0099983,12.2400055,0.0099983,18.3500061,0.0099983
		c0.4799957,0,0.9600067-0.0299988,1.4400024-0.0499992c2.8800049,0.8199997,5.7599945,1.6399994,8.6399994,2.4599991
		c-0.0099945,0.0600014-0.0299988,0.1300011-0.0399933,0.1899986
		C178.3300018,37.1699982,175.9299927,37.1699982,173.5299988,37.1699982z"></path>
	<path d="M158.1399994,28.6000004c-2.1499939,0.4500008-4.3200073,0.1200008-6.4799957,0.1800003
		c-0.6000061,0.0200005-0.4499969-0.5300007-0.4799957-0.8999996c-0.0399933-0.4799995,0.1600037-0.7399998,0.6799927-0.7399998
		c1.0700073,0,2.1399994-0.0200005,3.2100067-0.0400009C156.0899963,27.6000004,157.1100006,28.1000004,158.1399994,28.6000004z"></path>
	<path d="M72.7200012,27.1200008c0.6800003,0.0100002,1.3600006,0.0400009,2.0299988,0.0200005
		c0.5999985-0.0200005,0.8700027,0.1700001,0.8600006,0.8099995c-0.0100021,0.5799999-0.1500015,0.9099998-0.8099976,0.8600006
		c-1.7300034-0.1399994-3.4800034,0.2600002-5.1900024-0.2199993
		C70.6399994,28.1000004,71.6800003,27.6100006,72.7200012,27.1200008z"></path>
</g>
<path d="M111.3499985,48.9599991c0.1699982-0.0200005,0.25,0.0800018,0.3099976,0.2200012
	C111.5100021,49.1699982,111.3499985,49.1800003,111.3499985,48.9599991z"></path>
</svg>
