<!--?xml version="1.0" encoding="utf-8"?-->
<!-- Generator: Adobe Illustrator 24.2.3, SVG Export Plug-In . SVG Version: 6.00 Build 0)  -->
<svg version="1.1" id="Camada_1" xmlns="http://www.w3.org/2000/svg" xmlns:xlink="http://www.w3.org/1999/xlink" x="0px" y="0px" viewBox="0 0 234 419" enable-background="new 0 0 234 419" xml:space="preserve">
<g onclick="select(this)" class="selected" id="c-calcao-primaria" fill="#bf0811">
	<path d="M80.64,418.8c-2.53-0.3-5.08-0.54-7.6-0.92c-9.64-1.45-19.27-3.05-28.71-5.51c-4.6-1.2-8.73-3.52-12.88-5.78
		c-0.1-0.06-0.22-0.12-0.3-0.2c-0.46-0.46-1.39-0.27-1.6-0.93c-0.28-0.87-0.15-1.82,0.01-2.73c0.44-2.56,0.99-5.1,1.32-7.67
		c0.49-3.8,0.84-7.62,1.22-11.44c0.38-3.86,0.68-7.72,1.09-11.57c0.19-1.81,0.03-3.59-0.04-5.39c-0.19-4.57,0.22-9.11,0.68-13.64
		c0.62-6.2,1.2-12.41,2.39-18.54c1.14-5.88,2.21-11.78,3.58-17.62c1.02-4.35,1.38-8.83,1.67-13.3c0.37-5.74,1.13-11.45,1.84-17.16
		c0.09-0.73-0.2-1.76,0.49-2.12c0.57-0.3,1.25,0.5,1.92,0.73c4.49,1.52,9.14,2.33,13.82,2.93c14.72,1.89,29.53,1.54,44.31,1.33
		c12.83-0.18,25.67-0.21,38.5-0.39c6.91-0.1,13.82-0.35,20.73-0.72c8.79-0.46,17.52-1.43,26-4.01c2.31-0.7,2.3-0.68,2.53,1.75
		c0.25,2.6,0.96,5.1,1.58,7.62c0.7,2.83,0.31,5.74,0.78,8.58c1.45,8.75,2.46,17.57,3.73,26.34c0.77,5.33,2.06,10.59,2.4,15.99
		c0.28,4.34,0.7,8.68,1.03,13.02c0.42,5.42,1.35,10.78,2.07,16.16c0.92,6.88,1.96,13.76,2.33,20.71c0.06,1.11,0.22,2.23,0.43,3.32
		c0.53,2.67,0.61,5.39,0.99,8.07c0.24,1.67-0.56,2.62-2,3.25c-2.47,1.08-5.08,1.7-7.69,2.3c-8.76,2.01-17.51,4.12-26.41,5.49
		c-5.53,0.85-11.08,1.5-16.67,1.84c-0.35,0.02-0.7,0.12-1.06,0.18c-4.08,0-8.16,0-12.24,0c-2.19-0.44-4.4-0.72-6.51-1.54
		c-2.66-1.03-3.9-2.89-3.87-5.7c0.05-4.81-0.73-9.56-1.34-14.3c-0.73-5.67-2.03-11.24-3.2-16.84c-1.14-5.47-1.78-11.04-3.26-16.45
		c-0.53-1.92-0.78-3.92-1.06-5.9c-0.81-5.58-1.24-11.2-1.74-16.81c-0.08-0.89,0.02-1.86-0.52-2.67c-0.24-0.36-0.52-0.82-1.01-0.73
		c-0.59,0.11-0.42,0.68-0.46,1.1c-0.59,6.04-0.99,12.11-1.8,18.13c-1.31,9.74-2.9,19.44-4.34,29.17c-0.8,5.41-1.64,10.83-2.06,16.29
		c-0.26,3.34-0.46,6.69-0.67,10.04c-0.04,0.71-0.17,1.31-0.79,1.78c-1.77,1.34-3.68,2.38-5.8,3.06c-2.26,0.72-4.62,0.91-6.92,1.38
		C90.56,418.8,85.6,418.8,80.64,418.8z"></path>
</g>
</svg>
