<!--?xml version="1.0" encoding="utf-8"?-->
<!-- Generator: Adobe Illustrator 24.2.3, SVG Export Plug-In . SVG Version: 6.00 Build 0)  -->
<svg version="1.1" id="Camada_1" xmlns="http://www.w3.org/2000/svg" xmlns:xlink="http://www.w3.org/1999/xlink" x="0px" y="0px" viewBox="0 0 229 418" enable-background="new 0 0 229 418" xml:space="preserve">
<g onclick="select(this)" class="" id="estampa-primaria" fill="#bf0811">
	<path d="M43.184227,120.3591003c-0.1574593-1.9019699-0.2635918-3.8100281-0.4886246-5.7039795
		c-0.1797981-1.5132675-0.3913536-1.6106033-1.9219894-1.3255692c-1.0546684,0.1964035-2.1054993,0.4133453-3.1596031,0.6128845
		c-3.7236557,0.7048569-7.4897099,0.4062195-11.2349834,0.3948441c-6.4752865-0.0196609-12.9171953-0.5751572-19.2143612-2.1471405
		c-2.0026436-0.499939-4.0013113-1.0857773-5.9778385-1.7141418c1.020895-4.8060684,1.6644146-9.6716461,2.3388951-14.5333023
		c0.872649-6.2900543,1.9116194-12.5599365,2.6439087-18.8657761c0.7765994-6.6873932,1.853642-13.2944374,3.974463-19.697525
		c2.9442616-8.8891754,7.7607107-16.5268593,15.1724825-22.392849c1.1417255-0.9036102,1.9524097-2.1724854,3.2811241-2.8633461
		c3.6190052-1.8817024,7.2620258-3.7168369,11.0347271-5.271349c9.9860153-4.1146584,19.9939613-8.1792221,29.4552879-13.4397125
		c1.9744034-1.0977669,3.9967499-2.0936747,5.5144348-3.8991308c0.8429108-1.0027447,2.0579147-1.6459785,3.4937134-1.5504146
		c-1.6598358,0.9146581-2.0019836,2.3754401-1.6840515,4.0964561c0.3956909,2.1419916,1.0861511,4.1798086,2.3278809,5.9871454
		c5.9329224,8.6352997,14.296669,13.8952675,24.0654449,17.1269894c2.041748,0.6754532,4.1874008,1.1419945,6.5661926,0.9732132
		c-0.818985-1.2918892-1.7138596-2.3421478-2.6657181-3.3343887c-4.3846359-4.5706615-9.3081741-8.5244236-14.2901917-12.4103851
		c-2.5010681-1.9508305-4.6982346-4.208477-6.6866608-6.6749144c-0.9601822-1.1910152-1.7149582-2.4964218-2.3023758-3.9077702
		c-0.2885437-0.6932478-0.2463684-1.0194101,0.6452408-0.9307556c3.5362701,0.351614,7.0733414,0.7046528,10.6162415,0.9779987
		c7.921875,0.6111984,15.8302765,1.4430838,23.8044815,0.9912195c6.261795-0.3548279,12.5223312-0.704565,18.7725449-1.2287455
		c2.2623138-0.1897326,4.5277405-0.3423519,6.9600983-0.5245132c-0.3562012,0.7652731-0.6235199,1.4240294-0.9593048,2.0458479
		c-1.2259827,2.2702398-2.8836212,4.2098074-4.6701813,6.0531158c-2.8812408,2.9727859-6.3737335,5.2001953-9.5260773,7.842041
		c-3.523674,2.9530506-7.0875015,5.8638573-9.9547958,9.5003853c-0.3962326,0.5025253-0.8958893,0.9767723-0.9921494,1.7654648
		c1.0281219-0.1467667,1.9737854-0.0354576,2.9256516-0.2119141c5.0719757-0.9402618,9.6617355-3.0744553,14.078331-5.6319599
		c3.2989349-1.9103127,6.3558502-4.1792526,9.1010895-6.8097744c3.0965118-2.9671154,5.4707642-6.4256573,6.640976-10.6468983
		c0.6189423-2.2326078,0.0174561-4.2712574-1.6764832-4.7439165c1.9420471-0.3230171,3.1181183,0.8975677,4.2487946,2.1523972
		c0.3474121,0.3855724,0.6845703,0.7272234,1.1278381,1.02145c8.8714447,5.888566,18.7893372,9.6126204,28.526062,13.6821756
		c5.067276,2.1179237,10.0380096,4.4439087,15.0908356,6.5872955c0.2853851,0.121069,0.5596008,0.2832184,0.8128815,0.4630032
		c12.0054626,8.5214882,19.2169037,20.1563911,21.3936157,34.5978508
		c1.7050781,11.3124924,4.6848145,22.3671265,6.2290497,33.6951218c0.3612823,2.6502228,0.8081512,5.2887878,1.2156677,7.9327545
		c-0.4072723-0.0320892-0.7870331,0.0516357-1.1609039,0.2217789c-5.2508698,2.3895721-10.8408508,3.4043884-16.5039825,4.2465134
		c-4.9055786,0.7294693-9.8006744,1.3550644-14.7624969,1.0241394c-3.0189819-0.2013397-6.0679779-0.007515-9.0567627-0.6636734
		c-0.4004364-0.0879288-1.0440521-0.3493347-1.0703583,0.4709015c-0.0688629,2.1481247-0.9662018,4.2106934-0.6513672,6.3962173
		c-0.4419403,0.8073044-0.2948303,1.7095184-0.3963318,2.5679779c-0.9907074,8.3786392-1.7198181,16.7760849-1.745636,25.2220383
		c-0.0067291,2.2005463,0.0687408,4.3852692,0.5246124,6.5559692c0.4008789,1.9087372-0.0432281,3.8250885-0.2062225,5.7295837
		c-0.1811066,2.1162109-0.2468414,4.2292175-0.1479797,6.3477325c0.1008911,2.1623993-0.1498413,4.3116608-0.2017212,6.4661102
		c-0.0682373,2.8337555-0.1215973,5.6735077,0.1285095,8.5087433c0.1475983,1.6730652,0.0784607,3.3501434-0.098175,5.02742
		c-0.3134613,2.9759674,0.161026,5.8720398,0.824295,8.7793121c1.6766205,7.3491974,1.4777679,14.7560425,0.394516,22.1660767
		c-0.3131714,2.142395-0.3707123,4.2083435,0.3324127,6.3562622c1.789505,5.466568,1.8004761,11.0871277,0.9232635,16.7248077
		c-0.2115173,1.3592529-0.2436066,2.6841888,0.0700836,4.0361938c0.886261,3.8198547,0.4920807,7.7170715,0.6769562,11.5814056
		c0.2862549,5.9835815,0.6884613,11.9625854,1.4403229,17.9147034c0.2537231,2.008667,0.2185516,4.0574036,0.2538147,6.0889282
		c0.0314789,1.8131409-0.3387299,2.3127136-2.0966034,2.8403625c-2.9675903,0.8908081-6.046051,1.1467896-9.1074371,1.463501
		c-7.7273102,0.7994385-15.4857635,0.8745728-23.2448273,1.0192871
		c-11.2361755,0.2095642-22.4684143,0.6523743-33.7049484,0.8126526c-12.4795532,0.178009-24.9379959-0.848877-37.4192505-0.848999
		c-8.3984146-0.0000916-16.799118-0.1004944-25.1803284-0.7364502c-4.1492767-0.3148499-8.2854118-0.7527771-12.3534241-1.6774292
		c-0.2727928-0.0620117-0.5451469-0.1272583-0.8147545-0.2017212c-3.0011635-0.8287048-3.3434029-1.173645-3.1586952-4.2307129
		c0.4741859-7.848175,1.0208855-15.6920776,1.5688667-23.535553c0.1421928-2.0353699,0.2741928-4.0685883,0.2251472-6.1084442
		c-0.0433769-1.8041687,0.0425301-3.5978241,0.3647537-5.3743591c0.4024925-2.2190704,0.4543953-4.4303284,0.1269684-6.6729889
		c-0.3675308-2.5173645-0.1233711-5.0311584,0.42342-7.5046387c0.237915-1.0762024,0.1960411-2.1278687,0.1169281-3.2104492
		c-0.3260307-4.4614716-1.0035973-8.9028625-0.8237762-13.394516c0.1759071-4.393631,1.2030106-8.6131439,2.7054672-12.72258
		c0.3647614-0.9976807,0.5816841-1.9600372,0.4271965-3.0288544c-0.1776123-1.2288208-0.1682091-2.4718018,0.0631027-3.7023163
		c0.3129845-1.6650085,0.2037849-3.326767,0.1185341-5.0112915c-0.1672783-3.3053589-0.1792717-6.6202087-0.1929398-9.9314117
		c-0.0532684-12.9004364-0.0429573-25.8012695-0.1390572-38.7013397c-0.0387688-5.2046204-0.991291-10.3377228-1.5477562-15.5010147
		C43.6215096,122.9213791,43.7198563,121.5897675,43.184227,120.3591003z"></path>
</g>
<g onclick="select(this)" class="" id="detalhe-punho" fill="#000000">
	<path d="M0.24,114.41436c0.6107783-1.2420959,0.4154505-2.6777496,0.9468267-3.9383621
		c1.976527,0.6283646,3.9751949,1.2142029,5.9778385,1.7141418c6.2971659,1.5719833,12.7390747,2.1274796,19.2143612,2.1471405
		c3.7452736,0.0113754,7.5113277,0.3100128,11.2349834-0.3948441c1.0541039-0.1995392,2.1049347-0.416481,3.1596031-0.6128845
		c1.5306358-0.2850342,1.7421913-0.1876984,1.9219894,1.3255692c0.2250328,1.8939514,0.3311653,3.8020096,0.4886246,5.7039795
		c-0.9007339,0.7405167-2.0174828,0.9574585-3.1024132,1.1645813c-2.5106468,0.4793091-5.038868,0.7957077-7.609993,0.8197708
		c-6.994585,0.0654373-13.9775391,0.038559-20.892168-1.2381592c-3.0178013-0.5572052-6.0275316-1.1423187-8.9426279-2.1199341
		c-0.8160248-0.273674-1.598931-0.6459885-2.3970258-0.9730606C0.24,116.8129883,0.24,115.613678,0.24,114.41436z"></path>
	<path d="M184.6309204,120.0944595c-0.3148346-2.185524,0.5825043-4.2480927,0.6513672-6.3962173
		c0.0263062-0.8202362,0.6699219-0.5588303,1.0703583-0.4709015c2.9887848,0.6561584,6.0377808,0.4623337,9.0567627,0.6636734
		c4.9618225,0.330925,9.8569183-0.2946701,14.7624969-1.0241394c5.6631317-0.8421249,11.2531128-1.8569412,16.5039825-4.2465134
		c0.3738708-0.1701431,0.7536316-0.2538681,1.1609039-0.2217789c1.1353607,2.336441,1.1766968,4.8449707,1.0996246,7.3563385
		c-0.0221863,0.7228928-0.7844391,0.8354187-1.3140411,1.0370178c-2.8729095,1.0936127-5.8452148,1.8682861-8.8147736,2.6399994
		c-8.731369,2.2690582-17.6292267,2.7698975-26.595108,2.3430557c-2.0615845-0.0981522-4.1379395-0.3113708-6.1459808-0.8887787
		C185.5256805,120.7307129,184.9997711,120.5572357,184.6309204,120.0944595z"></path>
</g>
<g onclick="select(this)" class="" id="estampa-secundaria" fill="#801815">
	<path d="M44.6484032,131.239975c3.2320366-0.0160065,6.4640808-0.0314484,9.6961174-0.0483093
		c1.1891785-0.0061798,1.1956558-0.0077209,1.1967201-1.1499023c0.0033112-3.5502625,0.003521-7.1005325-0.0000763-10.6508026
		c-0.001133-1.1160889-0.0083618-1.1256714-1.0970459-1.1272964c-3.3128204-0.0049438-6.6256523-0.0013885-9.9384766-0.0020065
		c-1.4470482-0.0002747-1.3869553-0.0082855-1.5481033-1.3802261c-0.4531937-3.8582001-0.1797829-7.7273636-0.2461357-11.5910187
		c3.9945145,0.0109558,7.9891701,0.0078812,11.9834251,0.0459366c0.7100792,0.006752,0.8634872-0.2709732,0.8592644-0.9166183
		c-0.0237885-3.633316-0.0069885-7.266861-0.0150566-10.9003143c-0.0021744-0.9792862-0.0197487-0.9994736-0.9979401-1.001915
		c-3.6355247-0.0090485-7.2712746,0.0153656-10.9064903-0.0193634c-0.7422981-0.007103-0.9542961,0.2242661-0.9471169,0.9525909
		c0.0389442,3.9522629,0.032383,7.9049683,0.0414925,11.8575211c-1.2747574,0.0022049-1.2455139-0.0017014-1.404232-1.1898422
		c-0.4799271-3.5926208-1.0413628-7.1715775-1.9766197-10.6803894c-0.2717171-1.0194092-0.2779999-1.0199585,0.8272705-1.029274
		c0.5994492-0.0050583,1.1995354-0.0170898,1.7982826,0.0039902c0.4684067,0.0164795,0.738205-0.0793686,0.7356415-0.6452789
		c-0.0173683-3.8344498-0.0207176-7.6690979,0.0031433-11.5034866c0.0040474-0.6501694-0.3269539-0.6865005-0.8199577-0.6838074
		c-2.2380333,0.0122223-4.4768982-0.027153-6.7138405,0.0234985c-0.7205963,0.0163193-1.0839081-0.2000809-1.3062057-0.8856964
		c-0.5437622-1.6770477-0.9572563-3.3708344-1.0133896-5.1419754c-0.0643044-2.028862-0.2629509-4.0505066-0.050663-6.0897369
		c0.0752945-0.7232361,0.2322693-0.9545975,0.9660339-0.9432526c2.5572128,0.0395889,5.1154137,0.0170364,7.6732407,0.0144882
		c1.2475243-0.001236,1.2501793-0.004837,1.2533951-1.2131577c0.0102997-3.8741608,0.0184517-7.7483215,0.0274315-11.6224785
		c0,0-0.0164757,0.0161476-0.0164757,0.0161514c3.8730545-0.0079536,7.746109-0.0147476,11.6191597-0.024559
		c1.2018929-0.0030479,1.2088432-0.0067863,1.2099648-1.1380653c0.0035248-3.5518723,0.0035362-7.103756,0.0000458-10.6556244
		c-0.0011101-1.1290321-0.0080681-1.1328964-1.2095261-1.1351395c-3.87323-0.0072365-7.7464714-0.0113602-11.6197052-0.0166817
		l0.0164948,0.0163269c-0.0089493-0.8777313,0.0067482-1.756649-0.0353012-2.6327934
		c-0.0291557-0.6075287,0.1360283-0.879776,0.8008423-1.0459862c3.5099144-0.8775406,7.012001-1.7909698,10.4720116-2.854187
		c0.5236816-0.1609154,1.0397186-0.3466988,1.6754723-0.559948c0,2.0484428-0.000946,3.9974098,0.0003319,5.9463806
		c0.000824,1.2552147-0.0665169,1.1444168,1.1859436,1.1453209c3.5143089,0.002533,7.0286255,0.0035896,10.5429344-0.0007744
		c1.0881805-0.0013504,1.0955811-0.0101509,1.0969696-1.1203499c0.0039978-3.1929932,0.001297-6.385994,0.0015106-9.5789871
		c0.0001068-1.4608192,0.6975021-2.2011623,2.1981583-2.2288132c1.7964783-0.0331039,3.5940399-0.0074348,5.3911362-0.0073528
		c1.4776077,0.0000668,2.9568405-0.0413857,4.4321442,0.016861c0.7679977,0.0303211,0.9383621-0.2564526,0.926796-0.9644413
		c-0.0286636-1.7544727,0.0194321-3.5101948,0.0366898-5.2654171c2.2592239,2.3551044,4.6892853,4.5125465,7.3785477,6.3700981
		c-2.1146088-0.1544056-4.2321701-0.0458851-6.3482361-0.0638523c-0.955574-0.008112-0.9747467,0.0242119-0.9771729,1.0369396
		c-0.0087128,3.63344,0.0178986,7.2671375-0.0206757,10.9001865c-0.0082245,0.7746239,0.280365,0.9249649,0.9768829,0.9194031
		c3.9548111-0.0315895,7.9099426-0.0232964,11.8649673-0.0285683c0.0000916,4.3233757,0.0001907,8.646759,0.0002747,12.9701347
		c-3.9587936-0.007988-7.9177322-0.0010262-11.8762589-0.0377045c-0.7149963-0.0066299-0.9729385,0.1762123-0.9653168,0.9339409
		c0.0366211,3.6367302,0.0112381,7.2740402,0.0203171,10.9111137c0.0024643,0.9848404,0.0223312,1.0061493,1.0046844,1.0087357
		c3.6391678,0.0095901,7.2785873-0.0172806,10.9173737,0.0207138c0.779747,0.0081406,0.9285126-0.2970963,0.9227982-0.9852295
		c-0.0328522-3.9562187-0.0312195-7.9127274-0.0412903-11.8691406c4.3257294,0.0000839,8.6514587,0.0001678,12.9772034,0.0002518
		c-0.0027237,3.9162674-0.0085754,7.832531-0.006134,11.7487946c0.000679,1.0777206,0.0120468,1.0857925,1.1378098,1.0870819
		c3.5586777,0.0040512,7.117363,0.0040207,10.6760406,0.000061c1.1287003-0.0012589,1.1335373-0.0091705,1.1343613-1.2069702
		c0.0026779-3.8763428,0.0014648-7.7526779,0.0017471-11.6290092c4.32547,0.0055504,8.6509323,0.0111084,12.9764023,0.0166626
		l-0.0163727-0.0153313c-0.0064392,3.9565277-0.0161896,7.9130592-0.0170898,11.8695831
		c-0.0002441,1.0458069,0.0122375,1.056488,1.0352783,1.0579376c3.5590668,0.0050201,7.1181641-0.0009308,10.6772308,0.0037079
		c1.1080475,0.0014496,1.1167145,0.0107727,1.1180573,1.1111755c0.004303,3.517067,0.0043488,7.0341339,0,10.5512085
		c-0.0014343,1.156723-0.0098572,1.1633682-1.2030792,1.1645813c-3.4790955,0.00354-6.9581909,0.0027237-10.4372864,0.0004654
		c-1.2649536-0.000824-1.2779846-0.0048523-1.2805786-1.2432938c-0.0071716-3.4371185-0.0013123-6.8742599-0.003006-10.3113937
		c-0.0006256-1.2651749-0.0037079-1.2720032-1.1999969-1.2732315c-3.5190887-0.0036163-7.0381851-0.0037155-10.5572662,0.0001373
		c-1.0834808,0.0011902-1.0906525,0.0090332-1.0917816,1.1206665c-0.003624,3.5570297,0.0018234,7.1140823-0.0034943,10.6711044
		c-0.0015259,1.0230255-0.012764,1.0334702-1.0575562,1.034874c-3.6390457,0.0048904-7.2781143,0.0059814-10.9171524-0.0009003
		c-0.9559937-0.0018082-0.9699936-0.0174026-0.9717484-1.0054016c-0.0064011-3.5969849,0.0003357-7.1940079-0.0044556-10.7910004
		c-0.0013657-1.0192719-0.0116348-1.0280228-1.0564804-1.0292206c-3.5990677-0.0041275-7.1981354-0.00383-10.7971954-0.0001678
		c-1.0755386,0.001091-1.0804977,0.0086594-1.0823441,1.1214752c-0.006546,3.9566345-0.009407,7.9132843-0.0136642,11.8699265
		c-4.0329895-0.0192261-8.0660706-0.0299606-12.0989075-0.0667801c-0.6086884-0.0055542-0.7334747,0.2715683-0.7317276,0.8013382
		c0.0121918,3.7130661,0.0188141,7.4262695-0.0052795,11.1392288c-0.0043106,0.6643753,0.1985397,0.9058533,0.8822632,0.9012604
		c3.7150726-0.0249786,7.4304581-0.0226135,11.1455765-0.0010605c0.6159058,0.0035629,0.8353195-0.1898956,0.8305969-0.8162003
		c-0.0300598-3.9920654-0.03022-7.9843597-0.0402145-11.9765778c4.038063-0.0133743,8.0762711-0.0123749,12.1140442-0.0539017
		c0.6951523-0.0071411,0.8723068,0.2340927,0.8673248,0.8929825c-0.0262375,3.4768295-0.0122223,6.9539642-0.0120773,10.4309845
		c0.0000076,0.2797623,0.019928,0.5610886-0.0029297,0.8389359c-0.0435867,0.5300369,0.2061615,0.6881332,0.706871,0.6799774
		c1.3192749-0.0214767,2.6391449-0.0067596,3.9587708-0.0066757c2.4393082,0.000145,4.8786392,0.0050125,7.3179245-0.0022354
		c0.9545822-0.0028305,0.9667358-0.0152512,0.968277-0.9969025c0.0055847-3.5569534,0.0001755-7.1139145,0.0034332-10.6708755
		c0.0010605-1.1459961,0.0074539-1.1508942,1.1864243-1.1517487c3.5190125-0.0025558,7.0380249-0.0020218,10.5570221-0.0002975
		c1.3411713,0.0006485,1.1939087-0.0736313,1.1954956,1.2539978c0.0041656,3.4770279-0.0012512,6.9540482,0.0029602,10.431076
		c0.0013428,1.1248856,0.0095673,1.1340561,1.0906677,1.1353989c3.5989838,0.0044632,7.1979523,0.0047836,10.7969513-0.0001602
		c1.0344238-0.0014191,1.0453644-0.0120239,1.0469208-1.0554199c0.0052643-3.516983,0.0001831-7.0339813,0.0030212-10.550972
		c0.0009613-1.2088394,0.0062714-1.2129364,1.2555847-1.2137451c3.4790192-0.0022659,6.9580383,0.0016251,10.4370575-0.0022049
		c1.1203156-0.0012283,1.1291962-0.0087585,1.1305237-1.0940018c0.0043335-3.5969238,0.0050354-7.1938477-0.0004272-10.7907639
		c-0.0015717-1.0332031-0.0132599-1.0439224-1.0566864-1.0454559c-3.5189972-0.0051575-7.0380096-0.0014648-10.5570221-0.0022964
		c-1.3262177-0.0003128-1.2077026,0.0777435-1.2089386-1.2520981c-0.0032043-3.4770241-0.0029755-6.954052-0.0001373-10.431076
		c0.0010986-1.3429565-0.1155548-1.2523956,1.204071-1.2531853c3.5190125-0.0021133,7.0380096,0.0022621,10.5570221-0.0026321
		c1.0485535-0.001461,1.0601959-0.0115852,1.0617218-1.0365715c0.0053558-3.636879,0.0059204-7.273777-0.0005951-10.910656
		c-0.0017395-0.9634552-0.0163727-0.976963-0.9957428-0.9786568c-3.5590057-0.0061569-7.1180115-0.0004845-10.677002-0.0035973
		c-1.1368866-0.0009956-1.1470184-0.0071259-1.148468-1.0665817c-0.0048676-3.5569534-0.0056915-7.1139183,0.0004425-10.6708641
		c0.0018921-1.0994949,0.0143433-1.1082077,1.1362762-1.11026c2.7992096-0.0051193,5.5993347,0.0400848,8.3972015-0.0213413
		c1.1630707-0.0255337,2.0654449,0.5217381,3.0244293,0.9974747c0.5217896,0.2588482,0.3649597,0.7510014,0.3661346,1.1683674
		c0.0088959,3.1572762,0.0036469,6.3145828,0.0054474,9.4718819c0.0007477,1.3135605-0.1020355,1.2313042,1.230957,1.2319374
		c3.5190125,0.0016708,7.0380249,0.0034828,10.5570374-0.0013046c1.0274963-0.0013962,1.0355682-0.0114441,1.0393219-1.0507851
		c0.0064697-1.7951393,0.0017853-3.5903168,0.0017853-5.4892807c1.7357025,0.5376396,3.3694611,1.1250458,5.0462341,1.5720329
		c2.3054199,0.614563,4.5851746,1.3276215,6.8980408,1.9108124c0.8218842,0.2072334,1.1181946,0.5627632,1.010376,1.3834648
		c-0.0723572,0.550705-0.02742,1.1168098-0.0349731,1.6760216c0.0000153,0,0.0166168-0.0163727,0.0166168-0.0163765
		c-3.8750458,0.0053177-7.7500916,0.0093765-11.6251526,0.0166969c-1.2118988,0.0022888-1.2149963,0.0063095-1.2155914,1.2523613
		c-0.001709,3.4736824-0.0016632,6.9473648,0.000061,10.4210472c0.0005951,1.248333,0.0036621,1.2522545,1.2158661,1.2553444
		c3.8748932,0.0098763,7.7497864,0.0165672,11.6246796,0.0244904c0,0.0000038-0.016449-0.0159988-0.016449-0.0159988
		c0.0055389,4.3229332,0.0110779,8.6458626,0.0166168,12.968792c-3.9975586-0.0128326-7.9952545-0.0121689-11.9925537-0.0510941
		c-0.7098999-0.0069046-0.864212,0.27565-0.8600922,0.9202423c0.0232239,3.6362762,0.0065002,7.2727966,0.01474,10.9091949
		c0.002243,0.985527,0.0202484,1.0063019,0.9966583,1.0087891c3.6384888,0.0092773,7.2772217-0.0156555,10.9153748,0.019577
		c0.7468719,0.0072403,0.9521942-0.2324982,0.9455261-0.9564056c-0.0364838-3.9556656-0.0288239-7.9117279-0.0363312-11.8676605
		c3.0780487-0.007164,6.1562805,0.001564,9.234024-0.0337448c0.687149-0.0078888,0.8512573,0.2290802,0.8707733,0.8973465
		c0.1064606,3.6464767-0.305954,7.2430496-0.9386597,10.8216705c-0.21698,1.2271805-0.236969,1.225296-1.5399933,1.2261047
		c-2.2388153,0.0013809-4.4779053,0.0209503-6.716217-0.0122833c-0.6480865-0.0096283-0.9094238,0.1338196-0.9029236,0.8494415
		c0.033783,3.7155838,0.0336151,7.4317856,0.0003815,11.1473694c-0.0063629,0.7138672,0.252243,0.8768692,0.9031525,0.8510513
		c1.1153717-0.0442581,2.2337799-0.0122223,3.4536896-0.0122223c-0.2661133,0.9228745-0.5329285,1.7767792-0.7579956,2.6415405
		c-0.7824097,3.0063629-1.4927368,6.0279846-1.9160614,9.1108017c-0.1618958,1.1789703-0.1827393,1.1761093-1.6903687,1.1477737
		c0.0075989-3.9541473,0.0075226-7.9083328,0.0309296-11.8623886c0.0035706-0.6037216-0.0743713-0.9526367-0.8251801-0.9461136
		c-3.7165527,0.0322876-7.433609,0.0265045-11.1503143,0.0042801c-0.6720581-0.0040131-0.8957825,0.2244339-0.8912659,0.8978577
		c0.0246887,3.6745911,0.0241852,7.3495331-0.0010223,11.0241241c-0.0044861,0.6548309,0.1654968,0.9164276,0.8660889,0.9099655
		c3.9957733-0.0369263,7.9919128-0.0344009,11.9878998-0.0452728c0.0034637,3.0318375,0.0044403,6.0636978,0.011734,9.0955353
		c0.0024872,1.0381317-0.1244507,2.0661926-0.1949921,3.0985031c-0.0438843,0.6421738-0.2805634,0.7973328-0.869751,0.7869568
		c-1.6360626-0.0288162-3.2729492-0.0098267-4.9095154-0.0097809c-1.9558868,0.0000458-3.9118195-0.0063095-5.8676605,0.002739
		c-0.9921417,0.0046005-1.0071106,0.017128-1.0088348,0.9750824c-0.0065765,3.670166,0.015274,7.3405151-0.017807,11.0103989
		c-0.0065613,0.7301483,0.2043762,0.9652863,0.9443817,0.9565887c3.0332031-0.0357056,6.0670776-0.0170746,9.100708-0.0120544
		c0.436554,0.0007324,0.8791656-0.0578003,1.3078613,0.0823212c-0.1449738,1.8536987-0.2597656,3.7103424-0.4424286,5.560318
		c-0.2379303,2.4097137-0.1575775,4.8290405-0.2838745,7.2414551c-3.0744781,0.0171051-6.1489716,0.0361023-9.2234802,0.0505829
		c-1.5347137,0.0072327-1.3855438-0.0756226-1.3869019,1.3244476c-0.0032349,3.3934021-0.0023804,6.7868195-0.0003052,10.1802063
		c0.0008087,1.3191071,0.0043335,1.3207245,1.2849274,1.3264771c3.274704,0.0146942,6.5494232,0.0277863,9.8241425,0.0415192
		c-0.0841522,1.1476746-0.1263733,2.3003235-0.2612762,3.4420166c-0.2722015,2.3033752-0.2141266,4.6075592-0.0840759,6.9119873
		c0.0496063,0.8787384,0.0183411,1.7445221-0.1191559,2.6101685c-3.1882629,0.00914-6.3765411,0.0144806-9.5647736,0.0296021
		c-1.0618286,0.0050354-1.0759125,0.0164795-1.0778046,1.0376282c-0.0066223,3.5852203-0.006546,7.1704865-0.0001526,10.755722
		c0.0018005,1.0135193,0.0156403,1.0239868,1.0800781,1.0277405c3.1885223,0.0112152,6.3770752,0.0134583,9.5656281,0.0191956
		c0.160141,1.1118317,0.1030884,2.2348175-0.0340576,3.3308563c-0.3560333,2.8453217-0.0832062,5.6265869,0.6383362,8.3794403
		c0.1123505,0.4286194,0.1971283,0.8482666,0.1363373,1.2895355c-3.4688873,0.0022125-6.9377899,0.0095825-10.406662,0.0015564
		c-0.5762177-0.001358-0.9961243,0.0426483-0.991394,0.8067322c0.0234528,3.7855835,0.0161591,7.5714111,0.0031281,11.3570862
		c-0.00177,0.5167694,0.2005005,0.7201996,0.7038574,0.6920319c0.3576965-0.0200348,0.7174835-0.0038147,1.0763397-0.0020294
		c3.5871277,0.017868,7.1742859,0.0361328,10.7614288,0.0542755c0.0640564,2.2394867-0.3733978,4.4376221-0.5504303,6.6572418
		c-0.164444,2.0617676-0.5466003,4.1022797-0.6064301,6.1743927c-3.4762726,0.0145569-6.9526367,0.0461121-10.4287415,0.0296173
		c-0.7114868-0.0033875-0.9742126,0.1752014-0.9665985,0.9337311c0.0365753,3.6345215,0.0110626,7.2696228,0.0205383,10.90448
		c0.002594,0.992569,0.0231018,1.0154724,0.9999695,1.0182343c3.6369476,0.0102844,7.2741089-0.0148773,10.9107513,0.0198975
		c0.7486877,0.0071411,0.9543457-0.2426453,0.946701-0.9610291c-0.0225525-2.1161499,0.0205688-4.2330017,0.0380096-6.3495636
		c0.4991302,2.4183807,0.8640289,4.8479614,0.6124878,7.32901c-0.5885468-0.0075531-0.6842499,0.3185883-0.6768494,0.8439178
		c0.0291595,2.0714722,0.0120087,4.1435699,0.0120392,6.2154388c-0.0296783,0.6353455-0.0923157,1.2707214,0.0007324,1.9060211
		c-0.0000916,1.0728607,0.0276642,2.1467896-0.0123749,3.2181702c-0.0191803,0.5135803,0.1732788,0.7285461,0.6562042,0.7449493
		c0.285614,1.4481659,0.3219452,2.9149475,0.2737427,4.3810577c-0.0938568,2.8550415-0.0025177,5.7047119,0.1705017,8.5535278
		c-1.085434,0.125885-1.0876465,0.125885-1.088089,1.2623596c-0.0012054,3.136261-0.0112,6.2726135,0.0079041,9.408783
		c0.0042572,0.7013245-0.3086853,1.5774841,0.1730652,2.0589294c0.4323578,0.4320679,1.2919922,0.0500183,1.9537964,0.1741943
		c0.2077026,0.26828,0.2383728,0.5854797,0.2512207,0.9076538c0.0778656,1.9501343,0.1864624,3.8996887,0.2252502,5.8506165
		c0.0414734,2.0855103-0.4337158,2.6239624-2.5331879,3.0620728c-0.1304474-0.4294434-0.0749207-0.8709106-0.0758667-1.3070679
		c-0.0053253-2.4708862,0.0032043-4.9418335-0.0054169-7.4126892c-0.0036011-1.0305786-0.0175323-1.0427551-1.063797-1.0445557
		c-3.5090942-0.0058899-7.0181885-0.0048523-10.5272675-0.000946c-1.2436981,0.0014038-1.2498932,0.0086975-1.2521667,1.2453003
		c-0.0062256,3.3874817-0.0067444,6.7749634-0.0095062,10.1624451c-1.059967,0.4490967-2.1953735,0.2633057-3.2882996,0.3257751
		c-3.2226563,0.1840515-6.4472046,0.4162292-9.6803894,0.3200073c-0.0177307-3.6274109-0.033783-7.2548218-0.0541077-10.8822327
		c-0.0065308-1.1619873-0.011673-1.1696777-1.1936188-1.1712036c-3.3116913-0.0042419-6.6234283-0.0105286-9.9350739,0.0019836
		c-1.9021759,0.0071411-1.6811066-0.2478027-1.6950378,1.7418823c-0.0245514,3.5072632-0.0408478,7.0145569-0.0606079,10.5218506
		c-4.1051941,0.1210022-8.2103729,0.2420044-12.3155518,0.3630371c-0.8569336,0.0220337-0.5458069-0.6437683-0.548584-1.0302429
		c-0.0248871-3.4702759-0.0125122-6.9408875-0.0157166-10.4114075c-0.0010834-1.1781311-0.0071259-1.1857605-1.1635132-1.1871033
		c-3.5124207-0.0039673-7.0248337-0.0036316-10.5372391-0.0002747c-1.2496109,0.0011902-1.2406464-0.1387329-1.2401505,1.2308655
		c0.0012665,3.550293-0.0124359,7.100647,0.0118942,10.6507874c0.0045471,0.6638184-0.0763702,1.0046082-0.8878784,0.9945679
		c-3.6692505-0.0454712-7.3393478-0.0231323-11.0091324-0.0252075c-0.3385773-0.0265808-0.6771545-0.0531921-1.0157318-0.0798035
		c-0.0166245-0.438324-0.047142-0.8765869-0.0476532-1.3149109c-0.0040131-3.3960266-0.0010376-6.7920532-0.0028229-10.1880798
		c-0.0007019-1.3425293,0.0874634-1.2680664-1.1990356-1.2687378c-3.5178909-0.0018005-7.0357971-0.0028381-10.5536957,0.0005798
		c-1.1763382,0.0011597-1.180069,0.0077515-1.184639,1.1664124c-0.0146561,3.7150574-0.0262909,7.4301147-0.039093,11.1451721
		c-4.0983124,0.0856934-8.1954269-0.021759-12.292778-0.0813599c-0.1933289-0.0028381-0.3855057-0.083313-0.5782242-0.127594
		c-0.0097961-3.6722107-0.0162735-7.3444214-0.0314484-11.0166016c-0.0044174-1.0672302-0.0158005-1.0823669-1.0363693-1.0844116
		c-3.5549164-0.0071716-7.1098633-0.0064087-10.6647873-0.0006714c-1.1084976,0.0018005-1.1207199,0.0134583-1.1218109,1.1261292
		c-0.0035324,3.5927734,0.0027771,7.1855774,0.0052872,10.7783813c-0.7012711,0.2778931-1.4087753,0.0129089-2.1111603,0.0069885
		c-3.4113617-0.0286255-6.8181725-0.184906-10.2164459-0.4966736c-0.2338181-0.0214233-0.464222-0.0801697-0.6962128-0.1215515
		c-0.0055656-3.3536072-0.0091591-6.7072449-0.0177231-10.0608521c-0.0031281-1.2249756-0.0085106-1.2318726-1.2661896-1.2332764
		c-3.4359322-0.0038452-6.8718796-0.0028381-10.3078156-0.0005493c-1.2566833,0.000885-1.2588997,0.0050659-1.2652702,1.2109375
		c-0.0141411,2.6747131-0.0258293,5.3493958-0.038517,8.0241089c-1.8519783-0.4341125-2.4225807-0.977417-2.4370193-2.6824036
		c-0.0178413-2.107666,0.0981941-4.2165222,0.1661682-6.3245544c0.0034561-0.1069946,0.0993538-0.2110291,0.1522064-0.3164673
		c0.3196144-0.0012207,0.6392326-0.0021973,0.9588509-0.0037842c1.33535-0.0065918,1.194931,0.1025696,1.1965523-1.2445068
		c0.0041847-3.473999,0.0065422-6.947998-0.0016518-10.4219971c-0.0026436-1.1217651,0.221096-1.1653748-1.1746025-1.1403198
		c-0.1191177-1.9013672,0.15942-3.7841797,0.3226662-5.6672668c0.1819954-2.0992889,0.1984253-4.1958618,0.199482-6.2969055
		c0.0001793-0.3527222-0.0687599-0.7149353,0.090332-1.0554657c0.588665,0.0194702,0.5740623-0.3703003,0.5699348-0.794693
		c-0.0145912-1.5002747-0.0091896-3.0007782-0.011364-4.5011902c0.1625595-1.5883484,0.0542259-3.1759338-0.0130424-4.7636414
		c-0.1127892-0.9351959,0.2310257-1.90065-0.1866913-2.8156738c-0.0944481-0.990387-0.1029816-1.9758911,0.1672134-2.9456024
		c0.0070038,0.5587311,0.0142937,1.1174774,0.0209465,1.6762085c0.0142517,1.196228,0.0141029,1.2044373,1.1577339,1.2058258
		c3.4749184,0.0042267,6.949852,0.0038757,10.424778,0.0003052c1.2664185-0.001297,1.2735977-0.0077057,1.274971-1.2232971
		c0.0039291-3.4729462,0.0030975-6.9458618,0.0006027-10.418808c-0.0008621-1.1981812-0.0056114-1.2003479-1.2615242-1.2030945
		c-3.8341408-0.0083466-7.6682777-0.0148621-11.5024185-0.0220947c-0.0282402-0.2586212-0.0564766-0.5172272-0.0847206-0.7758484
		c0.0006599-3.8766479,0.0013199-7.7532806,0.001976-11.6299438c0.0269279-0.1615753,0.0538559-0.3231659,0.0807838-0.4847565
		c3.8743896-0.0057983,7.7487717-0.0095978,11.6231499-0.018631c1.1306267-0.0026398,1.14048-0.0094604,1.1418991-1.081665
		c0.0047035-3.5529785,0.0058594-7.1059723-0.0009499-10.6589355c-0.0020943-1.091217-0.0157776-1.1008759-1.1539078-1.105011
		c-2.9955368-0.0108795-5.9911118-0.0125122-8.9866676-0.0178375c-0.2076912-0.7916107-0.1062851-1.5919342,0.0370483-2.3659668
		c0.3079414-1.6629028,0.3386154-3.3247375,0.1252899-4.9920807c-0.1628723-1.272995-0.1994896-2.5418549,0.0378685-3.8033752
		c0.1128731-0.5999298-0.0714149-1.1914063,0.0312958-1.7833252c2.95364-0.1444397,5.9091873-0.0214996,8.8635406-0.0635223
		c1.0323181-0.0146942,1.0442162-0.0183105,1.045929-1.0675354c0.0057411-3.5136108,0.0042725-7.0272369,0.0010033-10.5408478
		c-0.0011215-1.2086182-0.0072403-1.2081604-1.2664223-1.2163696c-2.8748093-0.018692-5.7496262-0.0378876-8.6244354-0.0568848
		c-0.4091988-4.3047333-0.5423965-8.6143646-0.2300072-12.9319153c2.9517097-0.0145874,5.9034157-0.028656,8.8551216-0.0440369
		c1.2578583-0.006546,1.2636719-0.0077667,1.2656784-1.221817c0.0040855-2.47258,0.0012703-4.9451599,0.0012169-7.4177551
		c-0.0000267-1.1565247-0.0131989-2.3132477,0.0057335-3.4694824c0.0080147-0.4891815-0.1437111-0.753952-0.6754799-0.7232819
		c-0.3578911,0.0206451-0.718071,0.0065308-1.0771294,0.001297c-2.7909927-0.0407867-5.5832825,0.0855103-8.3734131-0.0648499
		c-0.1536331-2.6546783-0.0130997-5.3199921-0.3177147-7.9703369
		C44.9187546,134.480011,44.7981644,132.8583069,44.6484032,131.239975z M94.3270874,208.6884613
		c-3.8321686,0.0008392-7.6643372,0.0006104-11.4965057,0.003067c-1.4802628,0.000946-1.3238602-0.0914001-1.3255844,1.3778992
		c-0.0039673,3.3911285-0.0038452,6.7822571-0.0000305,10.1733856c0.0016556,1.4661102-0.1546097,1.3763275,1.3268967,1.3774261
		c3.8321609,0.0028381,7.6643219,0.0034943,11.4964828,0.0050201c0.0043259,3.8749237,0.0074081,7.7498322,0.0137177,11.6247559
		c0.001976,1.2113342,0.0059891,1.2157593,1.2546997,1.2165985c3.5174789,0.0024109,7.0349579,0.00354,10.5524292-0.0007935
		c1.1171722-0.0013733,1.1281433-0.0099182,1.1287918-1.0965729c0.002327-3.914917-0.0034332-7.8298187-0.0061417-11.7447205
		c4.3255386,0,8.6510696-0.0000153,12.9766083-0.0000305c-0.0057602,3.9141388-0.0149994,7.8282928-0.0149918,11.7424316
		c0,1.0889435,0.0125809,1.0975342,1.1318359,1.0989227c3.5168762,0.0043335,7.0337524,0.0032501,10.5506287,0.0007935
		c1.2498932-0.0008698,1.2536011-0.0054016,1.2561798-1.2187805c0.008194-3.8741608,0.0134125-7.7483063,0.0197906-11.6224823
		c3.8707581-0.0015717,7.7415009-0.0016632,11.6122589-0.0056152c1.1937408-0.0012207,1.2007294-0.0060272,1.2018585-1.1392975
		c0.0035095-3.5494995,0.0034637-7.098999-0.0000153-10.6484985c-0.0011139-1.1340942-0.0080261-1.1390533-1.200592-1.1400604
		c-3.8707581-0.0032654-7.7415314-0.002594-11.6123047-0.0034332c-0.0067902-3.9146576-0.0111389-7.8293304-0.0219421-11.743988
		c-0.0029907-1.0810699-0.0117645-1.097229-1.0145569-1.0992432c-3.6372986-0.0073395-7.2746201-0.007019-10.911911-0.0000916
		c-0.9888916,0.0018768-1.0092163,0.0171967-1.009903,0.9794617c-0.0027695,3.9546661,0.0079041,7.9093628,0.0136414,11.8640289
		c-4.3255081,0-8.6510162,0-12.9765167,0c0.0026855-3.9154358,0.0084381-7.8308868,0.006073-11.7463226
		c-0.0006638-1.0884094-0.011673-1.0970459-1.1279144-1.0984192c-3.5179596-0.004364-7.0359192-0.0032501-10.5538712-0.0008392
		c-1.2480545,0.0008545-1.2520294,0.0053253-1.2541428,1.2191315
		C94.3353348,200.9376221,94.3318329,204.8130493,94.3270874,208.6884613z M133.2091064,118.260704
		c-4.3256531-0.0000534-8.6513138-0.0001068-12.9769669-0.0001526c-0.0003281-3.9056931,0.0015335-7.8113785-0.002388-11.7170715
		c-0.0011292-1.1184387-0.008812-1.1284637-1.0889893-1.129921c-3.5889206-0.004837-7.1778641-0.0049591-10.7667847,0.0001373
		c-1.0824661,0.0015335-1.091774,0.0119934-1.0922546,1.1298218c-0.0016556,3.9056702,0.0037079,7.8113327,0.0064011,11.7170029
		c-4.3257065,0.0000763-8.6513977,0.0001678-12.9771042,0.0002518c0.0098801-3.9972,0.0071411-7.9945221,0.0415573-11.9915085
		c0.0060196-0.6992798-0.2645874-0.8726425-0.9166412-0.8684616c-3.6397934,0.0233383-7.2798386,0.0052643-10.9197617,0.0149231
		c-0.9850082,0.0026093-1.0059967,0.0241928-1.0085754,1.0100174c-0.0095215,3.6378326,0.0158997,7.2759018-0.0201111,10.9134064
		c-0.0074539,0.7533569,0.2426987,0.9431763,0.9620743,0.9367142c3.9595032-0.0356445,7.9193954-0.0263367,11.8791656-0.0324478
		c-0.0000229,4.3233795-0.0000458,8.6467514-0.0000687,12.9701309c-3.9592285-0.0072479-7.9185944,0.0006256-11.8775558-0.035614
		c-0.7166748-0.006546-0.9714661,0.1790314-0.9638824,0.9350891c0.0364456,3.6370697,0.0109787,7.2747345,0.0203018,10.9121399
		c0.0025253,0.985611,0.0229874,1.00737,1.0065155,1.0100098c3.6394958,0.0097656,7.2791061-0.0080109,10.9184875,0.0148468
		c0.6471481,0.0040588,0.9264145-0.1593933,0.9202576-0.8637543c-0.0349045-3.996521-0.0318604-7.9933624-0.0417404-11.9901123
		c4.3257294,0.0000763,8.6514587,0.0001373,12.9771881,0.0001831c-0.0027237,3.917038-0.0086136,7.8340759-0.006134,11.7511139
		c0.0006866,1.0797272,0.0121231,1.0886536,1.1371078,1.0900726c3.5593872,0.0044861,7.1187744,0.004425,10.6781616,0.0000458
		c1.1272278-0.0013733,1.1320877-0.0100861,1.1329193-1.2099457c0.0027084-3.8771057,0.0015106-7.7541962,0.0018158-11.6313019
		c4.3257217-0.000061,8.6514435-0.0001373,12.9771576-0.0002136c-0.0119324,3.9956818-0.0111694,7.9914551-0.0477295,11.986908
		c-0.006424,0.7021179,0.2697754,0.8709717,0.9192047,0.8668976c3.6385803-0.0228424,7.2774048-0.0051727,10.9161072-0.0145569
		c0.9839172-0.0025482,1.0042267-0.0235901,1.0067139-1.0080414c0.0091858-3.6366272-0.0157623-7.2734833,0.0197296-10.9097748
		c0.007309-0.7477264-0.2317505-0.9471436-0.957016-0.9402313c-3.9580841,0.0377502-7.9166107,0.0290833-11.8749695,0.0363617
		c0-4.3234177,0-8.6468582,0-12.9702835c3.9589844,0.0061264,7.917984,0.0050049,11.8768768,0.0261459
		c0.5957336,0.0031815,0.9600525-0.0554886,0.9533844-0.8151932c-0.0326843-3.7167816-0.0260468-7.4340744-0.0045929-11.1510162
		c0.0038605-0.6709824-0.2305603-0.9054108-0.9025421-0.9014282c-3.6790619,0.0218201-7.358429,0.0224533-11.0374908-0.001236
		c-0.6550903-0.0042114-0.9214325,0.1750031-0.9151764,0.8715134
		C133.1976929,110.2681732,133.1972198,114.2644958,133.2091064,118.260704z M171.8719025,215.2787781
		c0-1.876358-0.0247192-3.7532349,0.0129852-5.6288452c0.0137787-0.6862335-0.1188965-0.9861603-0.9066467-0.9772644
		c-3.67453,0.0415955-7.3500214,0.0388947-11.0246582,0.0018616c-0.7646027-0.0077209-0.9313202,0.2608795-0.9254913,0.9684906
		c0.0301514,3.6726532,0.0293732,7.3457947,0.0004883,11.0184631c-0.0054932,0.6985474,0.1441956,0.9839172,0.9183655,0.9759369
		c3.6746063-0.0379333,7.3500671-0.039444,11.0246124,0.0012665c0.7786102,0.0086517,0.9294891-0.275177,0.9138794-0.9706421
		C171.845108,218.8724365,171.8719177,217.0753021,171.8719025,215.2787781z M62.1619225,208.6910248
		c-1.8373146,0-3.6746483-0.0053558-5.5119324,0.0021515c-0.9880371,0.0040283-1.0037766,0.0139771-1.0055504,0.9628296
		c-0.0068626,3.6725159,0.0132713,7.3451843-0.0167923,11.0174561c-0.005764,0.7042542,0.1516418,0.9729309,0.920639,0.9647217
		c3.674202-0.0393372,7.3491364-0.0292664,11.0236282-0.0067444c0.6420135,0.0039368,0.9167709-0.1468506,0.9110947-0.8563843
		c-0.0300064-3.752121-0.0309296-7.5047607,0.0002899-11.2568512c0.0060959-0.7313232-0.3087616-0.8466949-0.9294052-0.8369904
		C65.756958,208.7092743,63.959301,208.6911469,62.1619225,208.6910248z M113.8187485,182.9204712
		c-1.8758316,0-3.7519608,0.0190887-5.627327-0.0106659c-0.6279297-0.009964-0.9310455,0.1159058-0.9251404,0.8408356
		c0.0305328,3.7492523,0.0227966,7.4989471,0.0047836,11.2483673c-0.0026703,0.5555573,0.1549454,0.7675476,0.7403336,0.764389
		c3.8313751-0.0207062,7.6629715-0.021637,11.4943237,0.0006409c0.5916367,0.0034332,0.7383728-0.2077026,0.7354813-0.7642059
		c-0.019455-3.7494202-0.0273972-7.499115,0.004364-11.2483521c0.006134-0.7243347-0.2894669-0.8521881-0.9192429-0.8416748
		C117.490921,182.9404144,115.6546707,182.9206848,113.8187485,182.9204712z M158.9364624,124.8518448
		c0-1.9160309-0.0144043-3.8322296,0.008728-5.7479782c0.0069733-0.5783234-0.1121521-0.8602676-0.785553-0.8551865
		c-3.7541504,0.0284042-7.5087433,0.0276718-11.2629089,0.0003891c-0.6592255-0.0047913-0.7976227,0.2538681-0.7947388,0.8437119
		c0.0182953,3.7521362,0.0172729,7.504425,0.0010223,11.2565689c-0.0025024,0.5752869,0.1064758,0.8611755,0.7825623,0.8559723
		c3.7541504-0.0288696,7.508728-0.0275879,11.2629089-0.0009155c0.6571503,0.0046692,0.8060608-0.2514801,0.7975616-0.8441315
		C158.919754,128.5244598,158.9364319,126.6880264,158.9364624,124.8518448z M100.8004837,156.9600525
		c1.8788681,0,3.7579193-0.0146027,5.6364975,0.0086975c0.5812531,0.0072021,0.8606796-0.1192017,0.855751-0.7891388
		c-0.0276031-3.7553711-0.0198288-7.5110779-0.0054398-11.2665863c0.0020065-0.5237427-0.0915833-0.7980042-0.7120209-0.7942963
		c-3.8375549,0.0228271-7.6753693,0.0227051-11.5129242,0.0001068c-0.6027527-0.00354-0.7327499,0.2302704-0.7302017,0.7763214
		c0.0175629,3.7554932,0.0234985,7.5112152-0.0037384,11.2665863c-0.0047302,0.6506195,0.2335281,0.8164978,0.8356247,0.8080139
		C97.0425262,156.9432678,98.9216232,156.9600525,100.8004837,156.9600525z M100.9219055,169.993515
		c-1.8386536,0-3.6773224-0.0046082-5.5159531,0.0018005c-1.0503693,0.0036621-1.0611954,0.011734-1.0626221,1.0272217
		c-0.0050583,3.5952911-0.0051117,7.1906128-0.0000534,10.7859039c0.0013962,0.9915466,0.012558,1.0061646,0.9555664,1.0077667
		c3.6772995,0.0063324,7.354744-0.0136566,11.0318069,0.0167694c0.7035675,0.0058136,0.9753494-0.1457062,0.9670181-0.91716
		c-0.0396805-3.6747742-0.039978-7.3504486-0.0000992-11.025238c0.0084991-0.7832794-0.2887115-0.9252777-0.9798813-0.9101715
		C104.5198593,170.0197144,102.7205963,169.9936371,100.9219055,169.993515z M126.7321014,169.9938049
		c-1.8782196,0-3.756546,0.0115051-5.6345673-0.0070801c-0.5560608-0.0055237-0.8845062,0.0693665-0.8792725,0.7658386
		c0.0284653,3.7940063,0.0198059,7.5883789,0.0063171,11.3825378c-0.0018387,0.5180664,0.1890793,0.6922607,0.7011032,0.6904144
		c3.8362961-0.0138397,7.6727524-0.0172577,11.5089798,0.0033417c0.5819855,0.0031128,0.7510834-0.1949921,0.7481079-0.7617493
		c-0.0197296-3.7541809-0.022995-7.5085907,0.002121-11.2626953c0.0041962-0.6292572-0.1981506-0.8308563-0.8183136-0.8210297
		C130.4888458,170.0131378,128.610321,169.9941559,126.7321014,169.9938049z M74.8791504,53.7140656
		c1.8374023,0,3.6748123,0.0055008,5.5121841-0.0022049c0.9905319-0.0041542,1.0063934-0.0143242,1.0081863-0.962101
		c0.0069122-3.6726685-0.0132599-7.3454895,0.0168076-11.0179253c0.0057602-0.7035561-0.1496582-0.9738007-0.9197235-0.965538
		c-3.6743622,0.0394249-7.3494644,0.0292854-11.0241165,0.0067444c-0.6396179-0.0039215-0.9171371,0.1407967-0.9113388,0.8528976
		c0.0305634,3.7522736,0.0311584,7.5050659-0.0001831,11.257328c-0.0060806,0.7281647,0.3018799,0.8506279,0.9259949,0.8407173
		C71.2839584,53.6954422,73.0817032,53.7139053,74.8791504,53.7140656z M68.5753098,124.6049118
		c0,1.8762665,0.0265121,3.7530899-0.0137482,5.6285019c-0.0149918,0.6982574,0.1406479,0.9836884,0.9164276,0.9755554
		c3.6743774-0.0384979,7.3494644-0.0285645,11.0241165-0.0061798c0.6341934,0.0038605,0.9204712-0.1278076,0.9144897-0.845871
		c-0.0312653-3.7522659-0.0227966-7.5049591-0.005928-11.2574081c0.002594-0.578949-0.1139679-0.8562012-0.7853394-0.8510513
		c-3.7544479,0.0287781-7.509346,0.02771-11.2638245,0.0008621c-0.6601028-0.004715-0.8037491,0.2566376-0.7954559,0.8467026
		C68.5918655,120.9320068,68.5755081,122.7685699,68.5753098,124.6049118z M107.2798767,98.8231506
		c0-1.7967148-0.0347595-3.5944214,0.0165482-5.3896637c0.0214996-0.7523346-0.2330322-0.9561462-0.9563141-0.9344482
		c-1.5965576,0.0478897-3.1955414,0.014534-4.793541,0.0145874c-2.1173477,0.000061-4.234787,0.0110626-6.3519821-0.0066452
		c-0.5583649-0.0046616-0.8744125,0.067276-0.8683701,0.7687149c0.0326309,3.7927933,0.0225754,7.5860214,0.0064163,11.3790207
		c-0.0022736,0.5325165,0.2067719,0.6777267,0.7068329,0.6759796c3.8351364-0.0134125,7.6704102-0.0171738,11.5054855,0.0034637
		c0.5824738,0.0031357,0.7519836-0.2012558,0.7444611-0.7616425
		C107.2636871,102.6563644,107.2795563,100.7396545,107.2798767,98.8231506z M100.8002548,260.3154907
		c1.8786316,0,3.7574387-0.0145874,5.6357803,0.008728c0.5761642,0.0071411,0.862442-0.105072,0.857254-0.7814331
		c-0.028801-3.7548676-0.02771-7.5101776-0.0005035-11.2651215c0.0047455-0.6554413-0.2463303-0.79776-0.8401794-0.7947235
		c-3.757164,0.0192108-7.5145035,0.0175781-11.271698,0.0010834c-0.5735168-0.0025177-0.8599777,0.0956268-0.8542786,0.778183
		c0.0313263,3.7548523,0.0299454,7.5102234,0.0010147,11.2651062c-0.0050735,0.65802,0.2411041,0.8065186,0.8368454,0.7980347
		C97.0427475,260.2986145,98.9216232,260.3154907,100.8002548,260.3154907z M113.6867065,247.3899536
		c1.8757477,0,3.7517242-0.0170135,5.6270905,0.0096893c0.6128922,0.008728,0.938591-0.086792,0.9320831-0.827713
		c-0.0328979-3.7490387-0.0231857-7.4985809-0.0057068-11.2478333c0.0025177-0.5403595-0.1144028-0.7809906-0.7220917-0.7772675
		c-3.8311691,0.0234375-7.6625977,0.0214996-11.4938049,0.001236c-0.5731964-0.0030365-0.7572021,0.1785126-0.7541275,0.7518768
		c0.0200882,3.7492218,0.0262985,7.498764-0.0038223,11.2478485c-0.0057144,0.7118378,0.2703781,0.8652039,0.9130707,0.8536987
		C110.0146484,247.3686981,111.8508682,247.3899536,113.6867065,247.3899536z M126.5983353,260.3155823
		c1.8781815,0,3.7570877-0.0298462,5.6341782,0.0151367c0.7196198,0.0172424,0.9650269-0.1729736,0.9572449-0.9295654
		c-0.0377808-3.6739655-0.0297241-7.348587-0.0050354-11.0227661c0.0043488-0.6480255-0.1497192-0.9065094-0.856369-0.900589
		c-3.756134,0.0313873-7.5127792,0.0323486-11.2688751,0.0000458c-0.7320938-0.0062866-0.8418198,0.3019714-0.8383331,0.9247589
		c0.0205307,3.6742096,0.032196,7.3488617-0.0072479,11.0227814c-0.0084991,0.7913513,0.3072815,0.9172363,0.9899139,0.9028931
		C123.0012817,260.2905884,124.8000793,260.3155212,126.5983353,260.3155823z M107.2801361,266.7256775
		c0,1.8777771,0.0243225,3.756073-0.0130768,5.6330872c-0.0132446,0.664856,0.178566,0.8922729,0.8687744,0.8867493
		c3.7574844-0.0299988,7.5155106-0.0326538,11.2729263,0.0014648c0.7305832,0.0066833,0.8375244-0.2882996,0.8336487-0.9144592
		c-0.0227814-3.6755676-0.0244827-7.3513489,0.0007706-11.0268555c0.0044937-0.6534729-0.1607513-0.9035339-0.8611526-0.8979187
		c-3.7574921,0.0302429-7.5154877,0.0314026-11.2729416-0.0001831c-0.7293396-0.006134-0.8493729,0.3007813-0.8392487,0.9246216
		C107.2990417,263.1296082,107.2801437,264.9277954,107.2801361,266.7256775z M120.2311707,163.5861969
		c0-1.8387146,0.0049057-3.6774597-0.0019684-5.5161438c-0.0037079-0.9886322-0.0128098-1.0027161-0.9583511-1.0042877
		c-3.6795349-0.0061035-7.3592224,0.0135498-11.0385208-0.0165558c-0.7012863-0.005722-0.9784088,0.140976-0.9700241,0.9155121
		c0.0398407,3.677002,0.0299225,7.3547516,0.0065384,11.0320435c-0.0041046,0.6451569,0.1494598,0.910965,0.8579254,0.9051514
		c3.7592926-0.0308685,7.5191193-0.0322418,11.2783661,0.0007782c0.730957,0.006424,0.8470306-0.2961731,0.8365479-0.9204254
		C120.2114792,167.184021,120.2310333,165.3849487,120.2311707,163.5861969z M62.1427917,79.5854645
		c-1.8761597,0-3.7527885,0.0240936-5.6282158-0.0127869c-0.6773453-0.0133133-0.8896065,0.2147675-0.8850021,0.8864822
		c0.025444,3.7100983,0.0220642,7.4205017,0.0025024,11.130661c-0.0032272,0.6121216,0.1906624,0.8327713,0.820118,0.8289413
		c3.7122612-0.0225754,7.4248161-0.024086,11.1370468,0.0008469c0.6723022,0.004509,0.8957443-0.2133865,0.8912582-0.8872757
		c-0.0247421-3.7100983-0.0222549-7.4205093-0.0019989-11.130661c0.0033875-0.6196671-0.2070007-0.8358154-0.8271484-0.8260498
		C65.815567,79.604538,63.9790306,79.585968,62.1427917,79.5854645z M165.5277252,79.585289
		c-1.8363495,0-3.6730957,0.0217133-5.5088501-0.0113144c-0.6781158-0.0121994-1.002121,0.1190872-0.9937897,0.9095459
		c0.0386658,3.6701813,0.0278625,7.3410645,0.0068512,11.0115356c-0.0036316,0.6354904,0.1386414,0.93116,0.8554382,0.9256744
		c3.7124023-0.0284271,7.4252014-0.0214539,11.1377258-0.0042419c0.5829315,0.0027084,0.8621979-0.1298523,0.8579407-0.7898712
		c-0.0241699-3.7502365-0.0239258-7.5007935-0.000061-11.25103c0.0041199-0.6485901-0.2522278-0.8079529-0.846344-0.7994995
		C169.2006683,79.6022034,167.3640747,79.5856323,165.5277252,79.585289z M81.4022293,99.0282745
		c0-1.8788986-0.0226364-3.7582092,0.0120316-5.636467c0.0124664-0.6754684-0.2172852-0.8943481-0.8923569-0.8896866
		c-3.6797714,0.0253754-7.3598862,0.0229492-11.039711,0.0016556c-0.6450348-0.0037231-0.9243927,0.1617126-0.9192123,0.8670654
		c0.0272675,3.7176132,0.0248947,7.4356232,0.000946,11.1532898c-0.0041275,0.6394348,0.2294159,0.8126984,0.8360977,0.8094101
		c3.719841-0.0201416,7.4399872-0.0266342,11.1596832,0.0044098c0.7151642,0.0059586,0.8662643-0.2698212,0.8542786-0.9130554
		C81.3804855,102.6265793,81.4023285,100.8272171,81.4022293,99.0282745z M133.0818176,99.0660782
		c0-1.8762741-0.0192261-3.7528381,0.0106964-5.6286316c0.0101318-0.6360626-0.1390076-0.9393234-0.8540802-0.9344635
		c-3.7545013,0.0255661-7.5093155,0.021553-11.2639008,0.0018539c-0.584938-0.003067-0.7535858,0.2142868-0.7511826,0.7709808
		c0.0161896,3.752449,0.0211792,7.5051041-0.0036697,11.2574692c-0.0042496,0.6418228,0.2285843,0.8045502,0.8330536,0.8010712
		c3.7146225-0.0213928,7.4294891-0.0228577,11.1440887,0.0000992c0.6604309,0.0040894,0.9152222-0.1858521,0.8994904-0.8794174
		C133.0555878,102.6595383,133.0826721,100.8624954,133.0818176,99.0660782z M152.5968475,92.5145416
		c-1.879837,0-3.7598572,0.0142365-5.6394196-0.0084152c-0.5875549-0.0070801-0.8610992,0.1458206-0.8569946,0.8008041
		c0.0234528,3.7573929,0.020401,7.5150375,0.0020905,11.2724838c-0.0028229,0.5769348,0.2051697,0.7552643,0.7671356,0.7527008
		c3.759613-0.0171432,7.5194244-0.0223007,11.2789459,0.0037918c0.658905,0.0045776,0.7993774-0.2604599,0.7966003-0.8487091
		c-0.0176392-3.7174683-0.0193176-7.4351273,0.0006561-11.1525803c0.0033417-0.6203918-0.208847-0.839325-0.8296051-0.8298721
		C156.276825,92.5327911,154.4366913,92.5147858,152.5968475,92.5145416z M55.6419601,111.7737656
		c0,1.8767166,0.0264359,3.7539978-0.0138435,5.6298523c-0.014782,0.6882706,0.2252846,0.8755035,0.8898773,0.8707352
		c3.6754913-0.0263748,7.3513184-0.0219193,11.0269127-0.0033798c0.6104965,0.0030823,0.9446793-0.0843506,0.9382477-0.8271332
		c-0.0321274-3.7132263-0.0258255-7.4269409-0.0044327-11.1403198c0.00383-0.6653214-0.2163391-0.9068146-0.8948975-0.9024658
		c-3.6755295,0.0235672-7.35149,0.030899-11.0268211-0.004982c-0.77491-0.0075684-0.9398422,0.2968979-0.9267921,0.9873428
		C55.6641731,108.1796341,55.6416359,109.9769135,55.6419601,111.7737656z M171.8719635,111.9195862
		c0-1.8369675,0.0082092-3.6739883-0.0033112-5.5108871c-0.0061035-0.9757767-0.0215149-0.99189-1.0037994-0.9938965
		c-3.5961151-0.0073624-7.1922913-0.0079651-10.7884064,0.0001984c-1.0052338,0.0022812-1.0275726,0.0200577-1.0302124,0.9823837
		c-0.0099335,3.6339874,0.0108795,7.2681274-0.0171509,10.9019165c-0.0053253,0.6922684,0.1337738,0.9877701,0.9135895,0.9795761
		c3.6756592-0.0385971,7.3521729-0.0395508,11.027771,0.0010223c0.7770691,0.0085678,0.9312439-0.2708588,0.9151154-0.9695282
		C171.8441315,115.5142975,171.8717194,113.716629,171.8719635,111.9195862z M68.4689941,137.5574799
		c0-1.7966614-0.0229874-3.5937958,0.011879-5.3897858c0.0130539-0.6729279-0.0980606-1.002533-0.8982468-0.9937897
		c-3.7148056,0.0405884-7.4304008,0.0311279-11.1454811,0.0057068c-0.6423607-0.0043945-0.8085289,0.2277985-0.805233,0.8314514
		c0.020256,3.7129974,0.0216599,7.4262543-0.000576,11.1392517c-0.0039749,0.6632996,0.2033844,0.9055634,0.888279,0.9007263
		c3.6751251-0.0258331,7.3506966-0.0306549,11.0256882,0.0030975c0.7670517,0.0070343,0.9482346-0.289566,0.9352112-0.9870605
		C68.4462509,141.2311096,68.4689407,139.3940887,68.4689941,137.5574799z M171.8715668,137.6828156
		c0-1.8767395-0.026001-3.7540283,0.0136871-5.6299133c0.0144653-0.6835022-0.2162323-0.878891-0.8857269-0.8740082
		c-3.7154846,0.0270844-7.4313507,0.0245209-11.1468811,0.002182c-0.6253204-0.0037689-0.8243103,0.2055969-0.820755,0.8238831
		c0.021347,3.7134247,0.0218048,7.4270782,0.0005951,11.1405029c-0.0037994,0.6647186,0.2172241,0.9081879,0.8947754,0.9039917
		c3.6755829-0.0228271,7.3515778-0.0303345,11.026947,0.0054474c0.7696991,0.0075226,0.9437103-0.2848663,0.9297485-0.9816895
		C171.8480072,141.2770691,171.8719177,139.4796906,171.8715668,137.6828156z M74.8776627,144.1301422
		c-1.7968063,0-3.5939026,0.0187836-5.3902359-0.0102234c-0.6262054-0.0101166-0.9320755,0.1168518-0.9260483,0.8424377
		c0.0308533,3.7110138,0.0279083,7.4225006,0.0023041,11.1335907c-0.0047836,0.6931763,0.2573471,0.8791046,0.9114075,0.8751373
		c3.6733246-0.0222473,7.3469315-0.0223846,11.020256,0.0005188c0.6470108,0.0040436,0.9248428-0.155838,0.9195709-0.8630981
		c-0.0276413-3.7110596-0.0286255-7.4225464,0.0009003-11.1335602c0.0056152-0.7055359-0.262207-0.8679504-0.9083862-0.8565369
		C78.6313477,144.1514893,76.7543182,144.130127,74.8776627,144.1301422z M120.23172,150.5227814
		c0,1.8773956,0.0086441,3.7548676-0.0056839,5.6321564c-0.003891,0.5095215,0.0844574,0.8171234,0.7093735,0.8138733
		c3.7967987-0.0197601,7.5937958-0.0156708,11.390686-0.003952c0.5657349,0.0017395,0.7644501-0.2231598,0.7622833-0.7828674
		c-0.0145569-3.7547455-0.0193634-7.5096436,0.0053253-11.2642822c0.0043335-0.659668-0.2797089-0.7969055-0.8584137-0.794632
		c-3.756897,0.0145874-7.5139313,0.0176086-11.2707748-0.0031281c-0.5894241-0.0032501-0.7485428,0.2188416-0.7416382,0.7707672
		C120.2463455,146.7678223,120.2318497,148.645401,120.23172,150.5227814z M152.6264648,144.1301727
		c-1.8766479,0-3.7537231,0.0223541-5.6297607-0.0121307c-0.6573486-0.0120697-0.9042053,0.174408-0.89888,0.8675232
		c0.0284576,3.7110443,0.0292053,7.4225159,0.0002594,11.1335754c-0.0056,0.720932,0.2940063,0.8556366,0.9291382,0.8519135
		c3.6733398-0.0215454,7.3469543-0.0231476,11.0202484,0.0006409c0.6662903,0.004303,0.9046478-0.2049103,0.9001617-0.8848419
		c-0.0243683-3.7111053-0.0286102-7.4225922,0.0031281-11.1335907c0.0063171-0.736618-0.31604-0.8427429-0.9340515-0.8330994
		C156.2203522,144.1481781,154.4232788,144.1300812,152.6264648,144.1301727z M87.8378601,169.8872528
		c1.8769608,0,3.7540359-0.0113373,5.6308212,0.0070038c0.5530243,0.0054016,0.8896484-0.0644989,0.8846664-0.7615662
		c-0.0271149-3.7914886-0.0188293-7.5832977-0.0062408-11.374939c0.0016785-0.5092163-0.1730804-0.7031708-0.6940613-0.7012024
		c-3.7938156,0.014267-7.5877151,0.0142822-11.3815308,0.0005341c-0.552887-0.0019989-0.7783279,0.1781311-0.7757034,0.7562103
		c0.0170364,3.7516785,0.0189896,7.5035553-0.001297,11.2552185c-0.0033798,0.6234283,0.21875,0.8360748,0.8323898,0.8274536
		C84.1635666,169.870163,86.000824,169.8866882,87.8378601,169.8872528z M146.0071869,163.4620056
		c0-1.7957611,0.0065765-3.5915527-0.002594-5.3872681c-0.0050659-0.9875946-0.0169678-1.0058441-0.9814758-1.0080109
		c-3.6334991-0.0081482-7.2671661,0.0134277-10.9004059-0.0177155c-0.7125397-0.0061188-0.9736023,0.1686707-0.966095,0.9279785
		c0.0363617,3.6709747,0.0275726,7.3425751,0.0058441,11.0137634c-0.0037994,0.6425781,0.1555176,0.9158173,0.8619995,0.910202
		c3.71315-0.02948,7.4267426-0.0292358,11.1398926-0.0009613c0.7210541,0.0054779,0.8631897-0.2978821,0.8531189-0.9311676
		C145.9883423,167.1336212,146.0071564,165.2976685,146.0071869,163.4620056z M165.5235138,157.063385
		c-1.7965088,0-3.5930328-0.0049286-5.3895264,0.0018616c-1.0733032,0.0040588-1.0874634,0.0122833-1.0892944,1.0191498
		c-0.0065308,3.5909576-0.0066681,7.1819153,0.0000916,10.7728577c0.0018921,1.0048828,0.0165558,1.0243988,0.9662323,1.0266266
		c3.6329041,0.0085907,7.265976-0.0119476,10.8986969,0.0169373c0.700119,0.0055542,0.9859161-0.1511993,0.9783325-0.9203186
		c-0.036087-3.6704102-0.0369263-7.341568,0.0006561-11.0119324c0.0078888-0.7717896-0.2757568-0.9346313-0.9759674-0.9187622
		C169.1171417,157.0905762,167.3200226,157.0634155,165.5235138,157.063385z M75,182.8187256
		c1.7964172,0,3.5928574,0.0060272,5.3892212-0.0023651c0.990921-0.0046234,1.0081482-0.0155029,1.0101547-0.9685364
		c0.0076447-3.6306305-0.0109711-7.2614288,0.0155334-10.8918915c0.0050812-0.6950836-0.1497803-0.9869537-0.9239807-0.9790344
		c-3.672287,0.0376282-7.3452301,0.0282898-11.0177612,0.0063324c-0.6501846-0.003891-0.9152298,0.174057-0.9101868,0.8707123
		c0.0269165,3.7102661,0.0288696,7.4209442-0.0012054,11.1311493c-0.0058823,0.7257843,0.3032455,0.8533325,0.9293823,0.8436584
		C71.3270569,182.8003998,73.1636658,182.8186646,75,182.8187256z M152.5788422,169.9934998
		c-1.7963104,0-3.5926666-0.0053711-5.3889465,0.0020447c-1.0598145,0.0043793-1.0744171,0.0134583-1.076355,1.0331268
		c-0.0067902,3.5905609-0.0065613,7.1811676-0.0000458,10.771759c0.0018005,0.9965668,0.0159912,1.0134125,0.9646759,1.0153351
		c3.6325531,0.0074005,7.2652435-0.0118103,10.897583,0.0159454c0.6966858,0.0053101,0.9857025-0.1460114,0.9777069-0.9197998
		c-0.0378876-3.6699829-0.0371246-7.3407745-0.0007935-11.010788c0.0076599-0.7749939-0.2925415-0.934082-0.9850922-0.9198608
		C156.1719971,170.0181427,154.3751678,169.9936371,152.5788422,169.9934998z M68.4681549,189.3684387
		c0-1.8756409-0.0174103-3.7515259,0.0098114-5.62677c0.0090408-0.6230164-0.2167892-0.8332977-0.8359528-0.8300629
		c-3.7134018,0.0193787-7.4270592,0.0237732-11.140358-0.0037231c-0.6998024-0.0051727-0.8737869,0.2651978-0.8700943,0.911499
		c0.0211983,3.7112427,0.0225754,7.42276-0.0007172,11.1339722c-0.0039749,0.6331329,0.2185936,0.8135223,0.8295403,0.8100433
		c3.7133789-0.0212402,7.4270439-0.0245056,11.1403542,0.0021362c0.6806107,0.0048676,0.894371-0.2189026,0.8808746-0.8901672
		C68.4447174,193.0403748,68.4689102,191.2041626,68.4681549,189.3684387z M94.3406372,189.3655396
		c0-1.8763885-0.0071259-3.7528229,0.0047607-5.6291351c0.0031662-0.5004883-0.0712433-0.82724-0.7027512-0.8240814
		c-3.7947845,0.0189819-7.5897217,0.0159607-11.3845444,0.0030365c-0.5714951-0.0019531-0.7620773,0.2310333-0.7601318,0.7843933
		c0.0132141,3.7527161,0.0183105,7.5055847-0.0053482,11.2582092c-0.0040741,0.6470032,0.2542725,0.8061371,0.8473129,0.8034058
		c3.7548523-0.0172729,7.5098648-0.0185852,11.2646866,0.001358c0.58461,0.0030975,0.7517776-0.2127075,0.7446671-0.768158
		C94.3252716,193.1184998,94.3401337,191.2419128,94.3406372,189.3655396z M139.5596466,195.752594
		c1.8771973,0,3.7546844-0.0186768,5.631424,0.0105286c0.6196442,0.0096436,0.8299866-0.2012634,0.826416-0.823349
		c-0.0212555-3.712204-0.022995-7.4246521,0.0005646-11.1368256c0.0042877-0.6767426-0.2342682-0.8964081-0.9002991-0.8924866
		c-3.7143097,0.0218811-7.4289093,0.0223541-11.1432037-0.0007477c-0.6443481-0.0040131-0.8119965,0.2516785-0.8093719,0.8452301
		c0.0165405,3.752182,0.0178375,7.5044861-0.0005798,11.2566376c-0.0028229,0.57547,0.1998596,0.7580872,0.7635956,0.750473
		C135.8050385,195.7366791,137.6824493,195.7524719,139.5596466,195.752594z M165.3556213,195.7530365
		c1.8768616,0,3.7541656-0.0230103,5.6303558,0.0125122c0.6572418,0.0124207,0.9042969-0.1695251,0.898941-0.8641968
		c-0.0286713-3.711441-0.028595-7.4233398-0.0002289-11.1347809c0.0054474-0.7136993-0.2832947-0.8608093-0.9238892-0.8569336
		c-3.6737213,0.0222931-7.3477325,0.0223694-11.0214691,0.0007172c-0.6581116-0.0038605-0.9128876,0.1969299-0.908371,0.8830414
		c0.0244446,3.7114868,0.0283966,7.4234009-0.0026703,11.1347961c-0.0061646,0.7363892,0.3211975,0.8432159,0.9364777,0.8341827
		C161.7613831,195.7360229,163.5586243,195.7530212,165.3556213,195.7530365z M68.5754013,202.2038727
		c0,1.876709,0.0268707,3.7540436-0.0139694,5.6298676c-0.0151367,0.6947937,0.2388306,0.8733063,0.8966827,0.868927
		c3.7154922-0.0246582,7.4313278-0.0248718,11.1468124,0.0002594c0.6399994,0.0043335,0.8106689-0.2239532,0.8073196-0.8299561
		c-0.0205231-3.7134094-0.0216904-7.427063,0.0003281-11.1404724c0.0039291-0.6618042-0.2009354-0.9069519-0.8871841-0.9021149
		c-3.6755142,0.0259094-7.3514862,0.030777-11.0268784-0.003067c-0.7667999-0.0070801-0.948494,0.287796-0.9348373,0.9861755
		C68.598793,198.6096802,68.5754242,200.4069977,68.5754013,202.2038727z M158.9366913,202.3370209
		c0-1.7967682,0.0058746-3.5935669-0.0021973-5.3902893c-0.0048523-1.0825806-0.0145721-1.0992126-1.024231-1.1013641
		c-3.5955811-0.0076904-7.1912079-0.0077362-10.7867889,0.0000916c-0.9862976,0.0021362-1.0064392,0.0193329-1.0088501,0.993042
		c-0.0090027,3.6334381,0.0121613,7.2670288-0.0173035,10.9002533c-0.0056915,0.7001343,0.1453247,0.977951,0.9182587,0.969696
		c3.6750641-0.0392151,7.351059-0.039917,11.0261078,0.0002136c0.7868195,0.008606,0.9224548-0.2950439,0.9078064-0.9816132
		C158.9112396,205.9311066,158.9365997,204.1337891,158.9366913,202.3370209z M81.4026031,227.8998108
		c0-1.7967682-0.0231094-3.5939789,0.0122299-5.3900604c0.0128021-0.6505127-0.1525955-0.9091949-0.8585739-0.9033356
		c-3.7152023,0.0307617-7.4308243,0.0234833-11.1461868,0.0053558c-0.5893555-0.0028687-0.8513336,0.1388397-0.8468018,0.7940674
		c0.02565,3.7131348,0.030014,7.4266968-0.002121,11.1397247c-0.0065918,0.7616119,0.2847748,0.9388275,0.9860916,0.9337921
		c3.6353531-0.0261536,7.2711487-0.0289154,10.9064331,0.0019836c0.7290268,0.0061951,0.9790878-0.2150574,0.9625549-0.9519653
		C81.3741684,231.6537018,81.4022446,229.7764282,81.4026031,227.8998108z M152.5165253,234.4672394
		c1.8376465,0,3.6756592-0.0205688,5.5127563,0.0110016c0.6539459,0.0112457,0.9236298-0.1747894,0.9187775-0.8742981
		c-0.0257263-3.7129517-0.019577-7.4262085-0.0036011-11.139267c0.0024719-0.5736847-0.1070862-0.8623047-0.7826538-0.857193
		c-3.7549744,0.0284119-7.5104065,0.0274963-11.2654266,0.0004883c-0.6588898-0.0047455-0.7970428,0.2559967-0.7941742,0.8443451
		c0.0181274,3.713028,0.0220032,7.4263-0.0019684,11.139267c-0.0043945,0.6810608,0.2336884,0.899826,0.9035339,0.8873138
		C148.8407898,234.4446106,150.6788635,234.4670868,152.5165253,234.4672394z M55.6420021,60.0446625
		c0,1.8763924,0.0209694,3.7531433-0.0112267,5.6289825c-0.0114784,0.6689606,0.2111664,0.9010544,0.891777,0.8963165
		c3.6748619-0.025528,7.3500633-0.0224533,11.0249939-0.0016174c0.6391525,0.003624,0.9381104-0.1470947,0.9330673-0.8615036
		c-0.026474-3.7525902-0.0217819-7.5055199-0.0029526-11.2582092c0.0029449-0.5873337-0.2279663-0.7445831-0.7773209-0.7422943
		c-3.7548676,0.0156479-7.5099258,0.021183-11.2646904-0.0045166c-0.6449471-0.0044136-0.8130074,0.2319832-0.8037872,0.8335915
		C55.6600189,56.3714485,55.642086,58.2081947,55.6420021,60.0446625z M55.6421585,240.9417725
		c0,1.8755798,0.007103,3.7512207-0.0047569,5.6267242c-0.0031624,0.5000153,0.0702591,0.8317871,0.7015572,0.8288574
		c3.7931671-0.0175934,7.5864868-0.0159454,11.3796768-0.0009308c0.5776749,0.0022888,0.7579422-0.2345886,0.7560654-0.7834473
		c-0.0129776-3.7910309-0.013092-7.5821381,0.000206-11.3731537c0.0018387-0.5249786-0.2084503-0.6890564-0.7112198-0.687439
		c-3.7932091,0.0120544-7.5865211,0.0155487-11.3796844-0.0032501c-0.5784912-0.0028687-0.7576981,0.2063446-0.7505302,0.7660065
		C55.657486,237.1904144,55.6425934,239.0661926,55.6421585,240.9417725z M87.963501,234.5582886
		c-1.8374557,0-3.6755447,0.0279388-5.5120392-0.0139618c-0.717659-0.0163727-0.9713898,0.1841888-0.9639664,0.937851
		c0.0357971,3.6325378,0.0112228,7.265625,0.0196991,10.8984833c0.0023041,0.9826202,0.0209045,1.0033112,0.9990158,1.0058136
		c3.6349487,0.0093079,7.2701111-0.0153503,10.904747,0.019577c0.7482147,0.0072021,0.9498367-0.239151,0.9439774-0.9594116
		c-0.0298767-3.6725616-0.0279694-7.3455963-0.0013657-11.018219c0.0048599-0.6705017-0.1961212-0.898468-0.8779831-0.8836823
		C91.6389923,234.5845795,89.8009644,234.5583649,87.963501,234.5582886z M139.4358978,247.3900909
		c1.877121,0,3.7548676-0.0283051,5.631012,0.0140839c0.7402649,0.0167236,0.9598694-0.2385406,0.9539642-0.965271
		c-0.0298462-3.6719818-0.0285339-7.3444672-0.0007172-11.0164795c0.0052185-0.6899872-0.2391663-0.8796234-0.8986816-0.8753967
		c-3.7141266,0.0237122-7.4285583,0.0234985-11.1426849-0.0000458c-0.628418-0.0039825-0.8195038,0.2059937-0.8159332,0.8223724
		c0.0215607,3.7120209,0.0224762,7.4243011-0.0007935,11.1363068c-0.0041504,0.6620026,0.194519,0.9121399,0.8824463,0.8973236
		C135.8408966,247.3643646,137.6386719,247.3900452,139.4358978,247.3900909z M171.8708038,240.9370422
		c0-1.8757477-0.0152893-3.751709,0.0092926-5.6271362c0.0074158-0.5642853-0.180542-0.7636871-0.7546539-0.7608185
		c-3.7535706,0.0187378-7.5073242,0.0195007-11.2608643-0.0004272c-0.61026-0.0032349-0.8366241,0.1843872-0.8328705,0.815094
		c0.0220947,3.7114716,0.0225067,7.4232025-0.0002136,11.1346741c-0.0040588,0.6643372,0.2095032,0.906601,0.8882446,0.9023285
		c3.7135773-0.0234528,7.4274292-0.0222473,11.141037-0.0006104c0.6316528,0.0036774,0.8279266-0.2296753,0.8197937-0.8359528
		C171.8554535,244.6887817,171.8713837,242.8128052,171.8708038,240.9370422z M49.2041931,260.3147583
		c1.8372688,0,3.6747513-0.0158081,5.5116844,0.0089417c0.6088791,0.0081482,0.8393707-0.1967163,0.835865-0.8244934
		c-0.0207176-3.7122498-0.0239944-7.4247284,0.0029564-11.1369171c0.0049896-0.6871796-0.2393303-0.8842926-0.8995895-0.880249
		c-3.714344,0.0227509-7.4289742,0.0225677-11.1433105-0.0006714c-0.6263275-0.0039063-0.8235626,0.2047729-0.820076,0.8220978
		c0.0209579,3.7122345,0.0230103,7.4247131-0.0016251,11.1369019c-0.0044289,0.6673279,0.1980591,0.9031982,0.8827438,0.8888245
		C45.4492264,260.289856,47.3269806,260.3156128,49.2041931,260.3147583z M75.070549,247.4929657
		c-1.8762512,0-3.7529755,0.0242615-5.6285019-0.0127411c-0.6852417-0.013504-0.8829346,0.2315674-0.8785019,0.8958282
		c0.0247726,3.7102814,0.0228348,7.4208527,0.0014114,11.1312103c-0.0036392,0.6313171,0.2288513,0.820343,0.8372345,0.8172913
		c3.7523956-0.0190125,7.5049973-0.0184631,11.2574081-0.0007324c0.58358,0.0027771,0.7516785-0.2286072,0.7495956-0.7774353
		c-0.0142136-3.7502747-0.0187225-7.5007324,0.003624-11.250946c0.0037689-0.6322784-0.2232208-0.8224182-0.8334351-0.812851
		C78.7435074,247.5114899,76.9068756,247.493042,75.070549,247.4929657z M61.9168243,169.8867645
		c1.9160881,0,3.8322754-0.0102692,5.7482147,0.0067444c0.5235672,0.0046539,0.8137207-0.1111145,0.8110275-0.7208099
		c-0.016777-3.7899933-0.0165405-7.5801697,0.0006485-11.370163c0.002655-0.5840149-0.2337036-0.7481079-0.7815857-0.7459869
		c-3.7522888,0.0144653-7.5047455,0.0198517-11.2569313-0.0045013c-0.645462-0.0042114-0.8083267,0.2436371-0.8054085,0.8403931
		c0.0181541,3.7102051,0.0227432,7.4206543-0.0033226,11.1307526c-0.0048103,0.6846008,0.2330017,0.8898163,0.8985939,0.8764496
		C58.3236771,169.8635864,60.1204872,169.8872833,61.9168243,169.8867645z M165.3574829,66.5580215
		c1.8776703,0,3.7558136-0.0242157,5.6327515,0.0127869c0.6811218,0.0134277,0.8968964-0.2209778,0.8926086-0.8923569
		c-0.0237274-3.7131042-0.0290222-7.4265862,0.0034485-11.1395531c0.0064087-0.73069-0.2977142-0.8393517-0.9235382-0.8356094
		c-3.6753082,0.0219917-7.3508759,0.0227165-11.0261688-0.0001526c-0.6463928-0.0040207-0.9135284,0.1570816-0.9078827,0.860981
		c0.0294037,3.6730881,0.0078125,7.3465576,0.0174103,11.0198593c0.0024872,0.9525299,0.0246429,0.9653473,1.0379486,0.9712753
		C161.8418121,66.5655441,163.5996704,66.5581131,165.3574829,66.5580215z M152.5838623,247.492691
		c-1.8362122,0-3.6729736,0.025238-5.5083923-0.01297c-0.6930542-0.0144043-0.9894409,0.1374664-0.9813538,0.91539
		c0.0380554,3.6699371,0.0368347,7.340683,0.000824,11.0106506c-0.0075378,0.7684631,0.2784576,0.9282532,0.9784546,0.922821
		c3.6322937-0.0282288,7.2650452-0.0276794,10.8973541-0.0003967c0.6956024,0.005188,0.9895325-0.1482544,0.9819031-0.9205933
		c-0.0362701-3.6699524-0.0371552-7.3406982,0.0007782-11.0106354c0.0080261-0.7767792-0.2867126-0.9320831-0.980957-0.9171753
		C156.1770172,247.51828,154.3801575,247.4926605,152.5838623,247.492691z M178.3977966,260.3156128
		c1.8377838,0,3.6760254-0.022583,5.5131531,0.0121765c0.6467438,0.012207,0.9223785-0.140625,0.9166718-0.8537598
		c-0.0297546-3.7131653-0.029953-7.4268494,0.0000305-11.1400299c0.0057373-0.7116852-0.2674713-0.8576355-0.9134521-0.8532867
		c-3.6754303,0.0247803-7.3512726,0.0303955-11.0265808-0.0028687c-0.7550354-0.0068207-0.9402618,0.2601013-0.934433,0.9720764
		c0.0297852,3.6333313,0.0086212,7.2669983,0.0173798,10.9005737c0.0022888,0.9432068,0.0221863,0.9562378,1.0336914,0.9620056
		C174.8020325,260.3227539,176.5999451,260.3153992,178.3977966,260.3156128z M68.4685516,266.9294434
		c0-1.8787537-0.0232315-3.7579041,0.0121918-5.6359863c0.0129547-0.686554-0.2423401-0.8865051-0.9041901-0.8823853
		c-3.6795235,0.0229797-7.3593369,0.0232544-11.0388412-0.000824c-0.6567307-0.0042725-0.9136887,0.1757813-0.9085999,0.8716125
		c0.0271759,3.7173157,0.0253792,7.4350586,0.0014763,11.1524048c-0.0041161,0.6401062,0.229744,0.8103027,0.8358192,0.8069458
		c3.7195435-0.0205383,7.4393883-0.0267029,11.1587982,0.0038452c0.7185364,0.0059204,0.8670807-0.2767944,0.8552856-0.9194031
		C68.4474792,270.5274353,68.4689865,268.728241,68.4685516,266.9294434z M87.961998,260.4227295
		c-1.8761444,0-3.7524719,0.0149536-5.6283112-0.0086365c-0.6046066-0.0076294-0.8430252,0.1900024-0.8394699,0.8216858
		c0.0208969,3.710083,0.0243988,7.4205017-0.0037079,11.1305237c-0.0052261,0.6903076,0.2400894,0.8800354,0.8989105,0.875885
		c3.7122192-0.0233154,7.4247208-0.0223389,11.1369476-0.0003052c0.614563,0.0036621,0.829628-0.1813049,0.8256836-0.8111267
		c-0.0232391-3.710083-0.0238953-7.4205322,0.0007095-11.1305847c0.0044174-0.6665039-0.1991959-0.905365-0.8823776-0.8910828
		C91.6349564,260.4472961,89.7982178,260.4221191,87.961998,260.4227295z M48.9591408,79.4814758
		c1.8776054,0,3.7557449-0.025795,5.6325455,0.013031c0.7229385,0.0149612,0.9717674-0.209671,0.9652176-0.9534225
		c-0.032341-3.6729202-0.0292625-7.3463821-0.001194-11.0193787c0.005249-0.6865616-0.2302094-0.8854599-0.8945999-0.8812103
		c-3.7151108,0.0237808-7.4305191,0.0227051-11.1456451,0.0002441c-0.6177826-0.0037308-0.8284416,0.1864166-0.8245735,0.8139038
		c0.0228806,3.7129898,0.0323029,7.4264069-0.0058212,11.1391449c-0.0081902,0.7971573,0.3260536,0.9132385,1.0010414,0.8996201
		C45.4431496,79.4579544,47.2013855,79.4814835,48.9591408,79.4814758z M139.5589447,273.2307434
		c1.8758392,0,3.7519531-0.0178833,5.6273804,0.0101929c0.6129761,0.0091553,0.8347168-0.1911316,0.8310699-0.8182983
		c-0.0215454-3.7095337-0.0176544-7.4192505-0.0029755-11.1288452c0.002243-0.5675354-0.1077118-0.8846741-0.7786102-0.8809509
		c-3.7914734,0.0211792-7.5831299,0.0166016-11.3746796,0.003479c-0.5227966-0.0018311-0.6946106,0.2069092-0.6931763,0.7084961
		c0.0108337,3.7893982,0.0149689,7.5788269-0.0035095,11.3681641c-0.0028229,0.5782776,0.2070465,0.7545776,0.7671204,0.7471619
		C135.8070679,273.2151489,137.6831207,273.2306519,139.5589447,273.2307434z M165.5274048,260.4223633
		c-1.8755646,0-3.751297,0.0134277-5.6266327-0.0080566c-0.5779419-0.0065918-0.8727875,0.127594-0.8688202,0.7906799
		c0.0224609,3.7488708,0.0173187,7.4979858,0.0028687,11.2469177c-0.0020752,0.5385437,0.131546,0.7920532,0.7347717,0.7888489
		c3.7909393-0.0203552,7.5821228-0.0200195,11.3730774-0.0000916c0.5928955,0.0031433,0.7388611-0.2327271,0.7365875-0.7778015
		c-0.0157013-3.7489319-0.0196228-7.4980469,0.0031586-11.2469177c0.0039215-0.6453857-0.2531586-0.8111267-0.848114-0.8028564
		C169.1989746,260.4385681,167.3630829,260.4223633,165.5274048,260.4223633z M74.8776474,66.6516953
		c-1.7967911,0-3.5938721,0.0187607-5.3901978-0.0101776c-0.6267776-0.0100937-0.9319839,0.1187286-0.9259949,0.8435287
		c0.0306931,3.710968,0.0279236,7.4224396,0.0021744,11.1334839c-0.0048141,0.6938705,0.257782,0.8777237,0.9115143,0.8737259
		c3.6732941-0.0224915,7.3468704-0.0226669,11.0201569,0.0004501c0.646698,0.0040665,0.9249496-0.1539688,0.9196625-0.8617477
		c-0.0277023-3.7110214-0.0285492-7.4224854,0.0008469-11.1334763c0.0055847-0.7049484-0.2618637-0.8688583-0.9084396-0.8574982
		C78.6313095,66.6729584,76.7542877,66.6516647,74.8776474,66.6516953z"></path>
	<path d="M133.1931305,40.7849312c3.8707428-0.0003281,7.7414551-0.0022011,11.6121826-0.0000648
		c1.192627,0.0006599,1.1995087,0.005661,1.2006226,1.1382446c0.0034943,3.5494576,0.003479,7.0989189,0.0001068,10.6483765
		c-0.0010681,1.1353264-0.0078278,1.1401482-1.2019043,1.1417046c-3.870697,0.0050468-7.7413788,0.0062256-11.6120758,0.0088921
		l0.0163727,0.0153313c0-4.3229141,0.0000153-8.6458282,0.0000153-12.9687424L133.1931305,40.7849312z"></path>
	<path d="M184.7915497,40.7843246c2.8309326-0.0003204,5.6627197,0.0389671,8.4923248-0.0224342
		c0.9917603-0.0215187,1.872757,0.2968102,2.7814941,0.5492973c0.5340118,0.1483727,0.8301544,0.501503,0.7657776,1.1594963
		c-0.0620575,0.6342964-0.1428986,1.2513504-0.2907104,1.8738708c-0.5324097,2.2423592-0.7838745,4.5278931-0.9381866,6.823822
		c-0.018219,0.2709389,0.0452576,0.5513573,0.097229,0.8223267c0.2281494,1.1897163-0.1743622,1.7196999-1.3386688,1.7220726
		c-3.189743,0.0065002-6.3795013,0.0065269-9.5692444,0.0091133l0.016449,0.0160027
		c0.0000458-4.3233147,0.0000916-8.6466293,0.0001373-12.9699402L184.7915497,40.7843246z"></path>
	<path d="M120.2455292,35.98489c0.2480698-0.0348053,0.49543-0.0741692,0.7416229-0.1210785
		c4.2761383-0.8147774,8.3022003-2.3269424,12.1715851-4.2888451c0.0114746,3.0699844,0.022934,6.1399765,0.0343933,9.2099648
		l0.0153198-0.0162582c-4.3254395,0.0054474-8.6509094,0.0108948-12.9763641,0.016346c0-1.493454,0-2.9869041,0-4.5218239
		C120.2338791,36.1317139,120.2338791,36.0978317,120.2455292,35.98489z"></path>
	<path d="M42.7285118,53.7218513c-3.0381241-0.0025826-6.0763474,0.008358-9.1143303-0.0137749
		c-1.3991737-0.0101891-1.1163406,0.2687798-1.4332695-1.2696533c-0.0561333-0.2724953-0.0460052-0.5679169-0.1476135-0.8200951
		c-0.3604355-0.8945427-0.3784809-1.8078041-0.430685-2.7644768c-0.0993118-1.8200111-0.4955387-3.6238632-0.769083-5.4343338
		c-0.0595284-0.3939743-0.0556679-0.8130684-0.196209-1.1760445c-0.2973213-0.7678757,0.0513134-1.067894,0.7224617-1.3046913
		c0.4358959-0.1537933,0.8593063-0.1531677,1.2947922-0.1535606c3.3579636-0.0030327,6.7159309-0.0012512,10.0738945-0.0009613
		l-0.0164948-0.0163269c0.0000229,4.3233566,0.000042,8.6467094,0.000061,12.9700661L42.7285118,53.7218513z"></path>
	<path d="M94.311142,40.7846756c0.0248718-3.1191483,0.0989532-6.2384987-0.0374985-9.3570061
		c4.1208496,2.3239403,8.5790863,3.6643944,13.2060699,4.4995575c-0.0338516,0.1474838-0.0338516,0.1474838-0.1379166,0.4902802
		c-0.0511322,0.168438-0.0585022,0.4280243-0.0601044,0.8072319c-0.0049896,1.1866989,0.0036621,2.3734627,0.00634,3.5601959
		C102.9624023,40.7848473,98.6367722,40.7847633,94.311142,40.7846756z"></path>
	<g onclick="select(this)">
		<path d="M140.0664825,27.0957756c1.0212402-0.9896812,2.1614075-1.8380165,3.2579651-2.738203
			c0.637207-0.1326771,0.9585876-0.6363564,1.3054657-1.110075l0.0840149-0.0657825
			c0.1082611,0.0012264,0.160614-0.0538998,0.1619415-0.1604767l0.0773315-0.0774269
			c0.1091309,0.0003357,0.1625061-0.0551929,0.1635742-0.1631107l0.0764008-0.0758915
			c0.1095581-0.0000973,0.1631165-0.0563965,0.1651611-0.1643829l0.0739441-0.0733814
			c0.1115417-0.0007496,0.1657715-0.0589561,0.1689453-0.1683311l0.0444794-0.0885277
			c0.3999023,0.1388245,0.359314,0.4799805,0.3599243,0.796278c0.0025482,1.3576756-0.016861,2.7157097,0.0097198,4.0728683
			c0.0108948,0.5565758-0.1634521,0.7861633-0.7504272,0.7763538c-1.6776276-0.0280437-3.3560944-0.0176544-5.0340729-0.0036259
			c-0.4144897,0.0034657-0.6249847-0.0799274-0.4074707-0.52911l0.0910645-0.0654068
			C140.0255585,27.2603683,140.0762787,27.20648,140.0664825,27.0957756z"></path>
		<path d="M144.6299133,23.2474976c-0.3468781,0.4737186-0.6682587,0.9773979-1.3054657,1.110075
			C143.762558,23.9910069,144.103653,23.5105019,144.6299133,23.2474976z"></path>
		<path d="M140.0664825,27.0957756c0.0097961,0.1107044-0.0409241,0.1645927-0.1520386,0.161768
			C139.9530945,27.193161,140.0037842,27.1392365,140.0664825,27.0957756z"></path>
		<path d="M144.8758698,23.0212383c-0.0013275,0.1065769-0.0536804,0.1617031-0.1619415,0.1604767
			C144.7515411,23.1117001,144.8055267,23.0582085,144.8758698,23.0212383z"></path>
		<path d="M145.1167755,22.7807007c-0.0010681,0.1079178-0.0544434,0.1634464-0.1635742,0.1631107
			C144.9869232,22.8685913,145.0414581,22.8142204,145.1167755,22.7807007z"></path>
		<path d="M145.3583374,22.5404263c-0.0020447,0.1079865-0.055603,0.1642857-0.1651611,0.164381
			C145.24823,22.650013,145.303299,22.5952187,145.3583374,22.5404263z"></path>
		<path d="M145.6012268,22.2987156c-0.0031738,0.1093731-0.0574036,0.1675797-0.1689453,0.1683311
			C145.4886017,22.4109364,145.5449219,22.354826,145.6012268,22.2987156z"></path>
	</g>
	<path d="M120.2480698,131.2130432c-4.3254089,0.0000763-8.6508102,0.0001526-12.9762192,0.0002441
		c0-4.3231812,0.0000076-8.6463623,0.0000076-12.9695435c4.3253937,0.0000839,8.6507721,0.0001831,12.9761658,0.000267
		C120.2480392,122.5670242,120.2480545,126.8900299,120.2480698,131.2130432z"></path>
	<path d="M107.2718201,40.7683029c4.3254395,0.0000343,8.6508636,0.0000687,12.9763031,0.0001068
		c0,4.3230858,0.0000076,8.6461678,0.0000076,12.9692535c-4.3253937,0.0000153-8.6507874,0.0000305-12.9761734,0.0000496
		C107.2719116,49.4145737,107.2718658,45.0914383,107.2718201,40.7683029z"></path>
	<path d="M120.2317429,208.6715698c4.3255539,0.0002289,8.6511154,0.0004425,12.9766769,0.0006561
		c0.0000153,4.3229218,0.0000305,8.645813,0.0000305,12.9687195c-4.3255463,0.0002136-8.6510849,0.0003967-12.9766235,0.0005951
		C120.2317963,217.3182068,120.2317734,212.9948883,120.2317429,208.6715698z"></path>
	<path d="M94.3117065,208.6721954c4.32547-0.0000916,8.6509476-0.0002136,12.9764175-0.0003204
		c-0.0000076,4.3231506-0.0000153,8.646286-0.0000229,12.9694214c-4.3254547-0.0000916-8.6509018-0.0002136-12.9763565-0.0003204
		C94.3117371,217.3180542,94.3117218,212.9951324,94.3117065,208.6721954z"></path>
</g>
<g onclick="select(this)" class="" id="gola-primaria" fill="#000000">
	<path d="M149.1920471,8.2665339c1.6939392,0.4726591,2.2954254,2.5113087,1.6764832,4.7439165
		c-1.1702118,4.221241-3.5444641,7.6797829-6.640976,10.6468983c-2.7452393,2.6305218-5.8021545,4.8994617-9.1010895,6.8097744
		c-4.4165955,2.5575047-9.0063553,4.6916981-14.078331,5.6319599c-0.9518661,0.1764565-1.8975296,0.0651474-2.9256516,0.2119141
		c0.0962601-0.7886925,0.5959167-1.2629395,0.9921494-1.7654648c2.8672943-3.636528,6.4311218-6.5473347,9.9547958-9.5003853
		c3.1523438-2.6418457,6.6448364-4.8692551,9.5260773-7.842041c1.7865601-1.8433084,3.4441986-3.782876,4.6701813-6.0531158
		c0.3357849-0.6218185,0.6031036-1.2805748,0.9593048-2.0458479c-2.4323578,0.1821613-4.6977844,0.3347807-6.9600983,0.5245132
		c-6.2502136,0.5241804-12.5107498,0.8739176-18.7725449,1.2287455c-7.974205,0.4518642-15.8826065-0.3800211-23.8044815-0.9912195
		c-3.5429001-0.2733459-7.0799713-0.6263847-10.6162415-0.9779987c-0.8916092-0.0886545-0.9337845,0.2375078-0.6452408,0.9307556
		c0.5874176,1.4113483,1.3421936,2.7167549,2.3023758,3.9077702c1.9884262,2.4664373,4.1855927,4.7240839,6.6866608,6.6749144
		c4.9820175,3.8859615,9.9055557,7.8397236,14.2901917,12.4103851c0.9518585,0.9922409,1.8467331,2.0424995,2.6657181,3.3343887
		c-2.3787918,0.1687813-4.5244446-0.29776-6.5661926-0.9732132c-9.7687759-3.2317219-18.1325226-8.4916897-24.0654449-17.1269894
		c-1.2417297-1.8073368-1.9321899-3.8451538-2.3278809-5.9871454c-0.3179321-1.7210159,0.0242157-3.181798,1.6840515-4.0964561
		c0.5143661-0.0252366,0.9027328-0.3090868,1.2522583-0.6413717c0.9263687-0.8806643,2.0001678-1.6612997,2.7273788-2.6858664
		c2.0422745-2.8773975,5.0196915-3.6030319,8.2393723-3.9380414c3.0733871-0.3197877,6.1406097,0.0641102,9.2117691,0.0276584
		c4.3972549-0.0521912,8.7969818,0.0443268,13.1928406-0.0513675c7.9100418-0.1721947,15.8178406,0.0474255,23.7266388,0.0363705
		c0.912384-0.0012754,1.8285217,0.1743852,2.7368927,0.3086998c2.2479095,0.3323816,4.1504211,1.1903371,5.5703125,3.1194048
		C145.9542999,5.7696943,147.367691,7.2616229,149.1920471,8.2665339z"></path>
</g>
</svg>
