<!--?xml version="1.0" encoding="utf-8"?-->
<!-- Generator: Adobe Illustrator 25.0.1, SVG Export Plug-In . SVG Version: 6.00 Build 0)  -->
<svg version="1.1" id="Camada_1" xmlns="http://www.w3.org/2000/svg" xmlns:xlink="http://www.w3.org/1999/xlink" x="0px" y="0px" viewBox="0 0 229 418" enable-background="new 0 0 229 418" xml:space="preserve">
<g onclick="select(this)" class="" id="estampa-primaria" fill="#ffff00">
	<path d="M43.184227,120.3591003c-0.1574593-1.9019699-0.2635918-3.8100281-0.4886246-5.7039795
		c-0.1797981-1.5132675-0.3913536-1.6106033-1.9219894-1.3255692c-1.0546684,0.1964035-2.1054993,0.4133453-3.1596031,0.6128845
		c-3.7236557,0.7048569-7.4897099,0.4062195-11.2349834,0.3948441c-6.4752865-0.0196609-12.9171953-0.5751572-19.2143612-2.1471405
		c-2.0026436-0.499939-4.0013113-1.0857773-5.9778385-1.7141418c1.020895-4.8060684,1.6644146-9.6716461,2.3388951-14.5333023
		c0.872649-6.2900543,1.9116194-12.5599365,2.6439087-18.8657761c0.7765994-6.6873932,1.853642-13.2944374,3.974463-19.697525
		c2.9442616-8.8891754,7.7607107-16.5268593,15.1724825-22.392849c1.1417255-0.9036102,1.9524097-2.1724854,3.2811241-2.8633461
		c3.6190052-1.8817024,7.2620258-3.7168369,11.0347271-5.271349c9.9860153-4.1146584,19.9939613-8.1792221,29.4552879-13.4397125
		c1.9744034-1.0977669,3.9967499-2.0936747,5.5144348-3.8991308c0.8429108-1.0027447,2.0579147-1.6459785,3.4937134-1.5504146
		c-1.6598358,0.9146581-2.0019836,2.3754401-1.6840515,4.0964561c0.3956909,2.1419916,1.0861511,4.1798086,2.3278809,5.9871454
		c5.9329224,8.6352997,14.296669,13.8952675,24.0654449,17.1269894c2.041748,0.6754532,4.1874008,1.1419945,6.5661926,0.9732132
		c-0.818985-1.2918892-1.7138596-2.3421478-2.6657181-3.3343887c-4.3846359-4.5706615-9.3081741-8.5244236-14.2901917-12.4103851
		c-2.5010681-1.9508305-4.6982346-4.208477-6.6866608-6.6749144c-0.9601822-1.1910152-1.7149582-2.4964218-2.3023758-3.9077702
		c-0.2885437-0.6932478-0.2463684-1.0194101,0.6452408-0.9307556c3.5362701,0.351614,7.0733414,0.7046528,10.6162415,0.9779987
		c7.921875,0.6111984,15.8302765,1.4430838,23.8044815,0.9912195c6.261795-0.3548279,12.5223312-0.704565,18.7725449-1.2287455
		c2.2623138-0.1897326,4.5277405-0.3423519,6.9600983-0.5245132c-0.3562012,0.7652731-0.6235199,1.4240294-0.9593048,2.0458479
		c-1.2259827,2.2702398-2.8836212,4.2098074-4.6701813,6.0531158c-2.8812408,2.9727859-6.3737335,5.2001953-9.5260773,7.842041
		c-3.523674,2.9530506-7.0875015,5.8638573-9.9547958,9.5003853c-0.3962326,0.5025253-0.8958893,0.9767723-0.9921494,1.7654648
		c1.0281219-0.1467667,1.9737854-0.0354576,2.9256516-0.2119141c5.0719757-0.9402618,9.6617355-3.0744553,14.078331-5.6319599
		c3.2989349-1.9103127,6.3558502-4.1792526,9.1010895-6.8097744c3.0965118-2.9671154,5.4707642-6.4256573,6.640976-10.6468983
		c0.6189423-2.2326078,0.0174561-4.2712574-1.6764832-4.7439165c1.9420471-0.3230171,3.1181183,0.8975677,4.2487946,2.1523972
		c0.3474121,0.3855724,0.6845703,0.7272234,1.1278381,1.02145c8.8714447,5.888566,18.7893372,9.6126204,28.526062,13.6821756
		c5.067276,2.1179237,10.0380096,4.4439087,15.0908356,6.5872955c0.2853851,0.121069,0.5596008,0.2832184,0.8128815,0.4630032
		c12.0054626,8.5214882,19.2169037,20.1563911,21.3936157,34.5978508
		c1.7050781,11.3124924,4.6848145,22.3671265,6.2290497,33.6951218c0.3612823,2.6502228,0.8081512,5.2887878,1.2156677,7.9327545
		c-0.4072723-0.0320892-0.7870331,0.0516357-1.1609039,0.2217789c-5.2508698,2.3895721-10.8408508,3.4043884-16.5039825,4.2465134
		c-4.9055786,0.7294693-9.8006744,1.3550644-14.7624969,1.0241394c-3.0189819-0.2013397-6.0679779-0.007515-9.0567627-0.6636734
		c-0.4004364-0.0879288-1.0440521-0.3493347-1.0703583,0.4709015c-0.0688629,2.1481247-0.9662018,4.2106934-0.6513672,6.3962173
		c-0.4419403,0.8073044-0.2948303,1.7095184-0.3963318,2.5679779c-0.9907074,8.3786392-1.7198181,16.7760849-1.745636,25.2220383
		c-0.0067291,2.2005463,0.0687408,4.3852692,0.5246124,6.5559692c0.4008789,1.9087372-0.0432281,3.8250885-0.2062225,5.7295837
		c-0.1811066,2.1162109-0.2468414,4.2292175-0.1479797,6.3477325c0.1008911,2.1623993-0.1498413,4.3116608-0.2017212,6.4661102
		c-0.0682373,2.8337555-0.1215973,5.6735077,0.1285095,8.5087433c0.1475983,1.6730652,0.0784607,3.3501434-0.098175,5.02742
		c-0.3134613,2.9759674,0.161026,5.8720398,0.824295,8.7793121c1.6766205,7.3491974,1.4777679,14.7560425,0.394516,22.1660767
		c-0.3131714,2.142395-0.3707123,4.2083435,0.3324127,6.3562622c1.789505,5.466568,1.8004761,11.0871277,0.9232635,16.7248077
		c-0.2115173,1.3592529-0.2436066,2.6841888,0.0700836,4.0361938c0.886261,3.8198547,0.4920807,7.7170715,0.6769562,11.5814056
		c0.2862549,5.9835815,0.6884613,11.9625854,1.4403229,17.9147034c0.2537231,2.008667,0.2185516,4.0574036,0.2538147,6.0889282
		c0.0314789,1.8131409-0.3387299,2.3127136-2.0966034,2.8403625c-2.9675903,0.8908081-6.046051,1.1467896-9.1074371,1.463501
		c-7.7273102,0.7994385-15.4857635,0.8745728-23.2448273,1.0192871
		c-11.2361755,0.2095642-22.4684143,0.6523743-33.7049484,0.8126526c-12.4795532,0.178009-24.9379959-0.848877-37.4192505-0.848999
		c-8.3984146-0.0000916-16.799118-0.1004944-25.1803284-0.7364502c-4.1492767-0.3148499-8.2854118-0.7527771-12.3534241-1.6774292
		c-0.2727928-0.0620117-0.5451469-0.1272583-0.8147545-0.2017212c-3.0011635-0.8287048-3.3434029-1.173645-3.1586952-4.2307129
		c0.4741859-7.848175,1.0208855-15.6920776,1.5688667-23.535553c0.1421928-2.0353699,0.2741928-4.0685883,0.2251472-6.1084442
		c-0.0433769-1.8041687,0.0425301-3.5978241,0.3647537-5.3743591c0.4024925-2.2190704,0.4543953-4.4303284,0.1269684-6.6729889
		c-0.3675308-2.5173645-0.1233711-5.0311584,0.42342-7.5046387c0.237915-1.0762024,0.1960411-2.1278687,0.1169281-3.2104492
		c-0.3260307-4.4614716-1.0035973-8.9028625-0.8237762-13.394516c0.1759071-4.393631,1.2030106-8.6131439,2.7054672-12.72258
		c0.3647614-0.9976807,0.5816841-1.9600372,0.4271965-3.0288544c-0.1776123-1.2288208-0.1682091-2.4718018,0.0631027-3.7023163
		c0.3129845-1.6650085,0.2037849-3.326767,0.1185341-5.0112915c-0.1672783-3.3053589-0.1792717-6.6202087-0.1929398-9.9314117
		c-0.0532684-12.9004364-0.0429573-25.8012695-0.1390572-38.7013397c-0.0387688-5.2046204-0.991291-10.3377228-1.5477562-15.5010147
		C43.6215096,122.9213791,43.7198563,121.5897675,43.184227,120.3591003z"></path>
</g>
<g onclick="select(this)" class="" id="estampa-secundaria" fill="#000000">
	<path d="M130.9745636,285.9783325c-1.2259674,0.0000305-2.4519348,0.0000305-3.8798065,0.0000305
		c6.0373993-9.8823242,11.9858704-19.6190491,17.9343109-29.3557739c-0.0818329-0.0854492-0.1636963-0.170929-0.2455444-0.2563782
		c-7.6964722,6.0666504-15.3929291,12.1333008-23.0894012,18.1999512c-0.057106-0.0766907-0.114212-0.1533508-0.1713257-0.2300415
		c5.4426422-5.996582,10.8876801-11.9910278,16.3274078-17.9902344
		c13.0416718-14.3829651,26.0805969-28.7683868,39.1212311-43.1522827c2.2002563-2.4269257,4.4009857-4.8534393,6.6083374-7.2739105
		c0.2937164-0.3220825,0.6279755-0.6072693,0.9432983-0.9098663c0.3254089,4.1561584-0.3737793,8.2509155-0.7775879,12.3605957
		c-0.1933136,1.9674377-0.6122437,3.9191437,0.0981293,5.8637543c-4.5593567,6.0377655-9.1188812,12.0752106-13.6724243,18.1171265
		c-0.0237427,0.0315094,0.0367737,0.1264648,0.0787506,0.2558899c1.2059937-0.2273712,2.4150085-0.462326,3.6266937-0.6824188
		c3.760376-0.6829834,7.5217896-1.3603058,11.2827911-2.0398254c-0.0427704,0.2009735-0.0855408,0.4019318-0.1283569,0.6030731
		c-0.2428741,0.2054749-0.4980774,0.397934-0.7268066,0.6178589c-13.4959564,12.9746246-26.9866333,25.9547577-40.486557,38.9252472
		c-2.3853149,2.2917786-4.8083496,4.5443726-7.2139893,6.815033
		C134.7273407,285.8901978,132.8509521,285.9342651,130.9745636,285.9783325z"></path>
	<path d="M143.9687195,186.5298767c-4.8002014,4.3447876-9.5930939,8.6976624-14.401947,13.0328522
		c-15.557579,14.0252686-31.1210175,28.0440063-46.6821747,42.0652618
		c-0.1186295,0.1199036-0.4239883,0.2268219-0.3062134,0.3689423c0.1931686,0.233078,0.3578796-0.0213928,0.48806-0.186615
		c4.1839294-2.4429474,8.3664093-4.8883972,12.5530624-7.3267212c0.8211594-0.4782257,1.6585083-0.9287262,2.4883957-1.3920135
		c0.0530853,0.0597229,0.1056366,0.1199188,0.1576462,0.1805725c-8.4430695,7.2800293-16.8841476,14.5623779-25.3297272,21.8394775
		c-9.7454338,8.3971252-19.4948235,16.7896118-29.3532867,25.279541c4.2245827,1.4446716,8.3520432,2.8561707,12.4794197,4.2677002
		c-4.3413239-0.2597961-8.6515732-0.7651367-12.8600235-1.8896179c-2.7723579-0.7407837-3.0211143-1.1404724-2.9187012-4.0496216
		c0.2566986-7.2919006,0.9897156-14.5514526,1.5149231-21.8246765c8.3610954-5.8080444,16.717514-11.6236572,25.0846901-17.4237518
		c25.2992325-17.5372925,50.6025238-35.0687561,75.9059753-52.6000061c0.2926788-0.2027588,0.6085663-0.3720551,0.91362-0.5569763
		C143.7911987,186.3861237,143.8799591,186.4579926,143.9687195,186.5298767z"></path>
	<path d="M101.1037369,249.5732269c11.4066849-12.1445312,22.8102875-24.2919464,34.2208481-36.4328461
		c12.8886108-13.713501,25.7801514-27.4242096,38.6781158-41.1289368c2.8455505-3.0235443,5.7233582-6.0167847,8.5863342-9.023819
		c0.2596741,4.7112885-0.2981415,9.4146423-0.1587524,14.1212463c0.1228485,4.1476593,0.1728821,8.2905426-0.0192108,12.4362488
		c-0.0592651,1.2794037,0.1165619,2.542099,0.4351807,3.7833252c-10.8729248,8.9673615-21.74617,17.9342804-32.618576,26.9022217
		c-3.2651978,2.6932831-6.5254517,5.3925323-9.796051,8.0792236c-0.3177032,0.2609863-0.5882263,0.7097626-1.2024689,0.4275055
		c3.5726929-4.5478973,7.1413879-9.0761261,10.6937256-13.6171722c3.095932-3.9575958,6.1733856-7.9296417,9.2589722-11.8953094
		c0.0961761-0.0469818,0.2297516-0.1040955,0.1284943-0.2219696c-0.0437775-0.0509644-0.2012634-0.0043793-0.3071136-0.0020905
		c-6.2638855,5.0778046-12.5316162,10.1508942-18.790863,15.2344055
		c-12.7361832,10.3439178-25.4675522,20.6937714-38.2030334,31.0385742
		c-0.2136307,0.1735077-0.454277,0.3138275-0.6822968,0.4696503
		C101.2526016,249.6867371,101.1781693,249.6299591,101.1037369,249.5732269z"></path>
	<path d="M55.5591164,223.1512299c-3.8897934,2.5366821-7.7782631,5.0753937-11.6715622,7.6067047
		c-0.3588791,0.2333069-0.6733208,0.5757599-1.1564865,0.5608063c1.0466957-3.6240997,0.1455116-7.244278-0.0377235-10.8651886
		c-0.0500603-0.9891968-0.1822624-1.9742737-0.2768288-2.9621429c-0.3827286-1.5513611,0.695488-2.1189117,1.7669449-2.8104095
		c13.0803375-8.4414368,26.1411705-16.9130859,39.2090721-25.373764c0.3321457-0.2150421,0.6871109-0.3948822,1.0314255-0.591156
		c0.0756454,0.0591125,0.1512833,0.1181946,0.2269211,0.1772766c-2.7240601,3.6104279-5.4481277,7.2208405-8.1721573,10.8312988
		c-0.0564423,0.0825043-0.1797256,0.2036438-0.1581192,0.240921c0.1078415,0.1862183,0.2392502,0.0642548,0.3591843-0.0121765
		c7.1395645-3.1836548,14.2797546-6.3658905,21.4182892-9.5518494c2.075882-0.9264832,4.1426468-1.8735657,6.2252197-2.7846527
		c0.2944717-0.1288605,0.5901108-0.4659576,1.0871048-0.1181793c-0.6773682,0.5338745-1.3239746,1.047287-1.9745102,1.5556488
		c-16.5232544,12.9123383-33.0468369,25.8242493-49.571373,38.7349243
		c-0.2198639,0.1717987-0.4527359,0.3269653-0.6795387,0.4898834c-0.0607758-0.0680084-0.1215553-0.1360474-0.1823425-0.2040558
		c0.9047356-1.575943,1.8094673-3.151886,2.7141991-4.727829c0.0603485-0.0755768,0.1881981-0.1848145,0.1700325-0.2211761
		C55.7760506,222.9044037,55.6671448,223.0869293,55.5591164,223.1512299z"></path>
	<path d="M164.0867157,285.246521c2.7012024-3.4034119,5.3897247-6.8169556,8.1064758-10.2078857
		c4.2398682-5.2919312,8.4976501-10.569519,12.7528839-15.8491211c0.2463074-0.3055725,0.5378723-0.5747375,0.8083344-0.8608093
		c0.3925171,4.7333069,0.720871,9.4732361,1.2039642,14.1973572c0.2513428,2.4578552,0.419632,4.9129639,0.4720001,7.3782349
		c0.0455627,2.1465759-0.3072357,2.627533-2.3999023,3.2226562c-2.3527222,0.6690979-4.7801056,0.9276428-7.2016449,1.1962585
		C173.2618408,284.829834,168.6841278,285.1872559,164.0867157,285.246521z"></path>
	<path d="M112.4776535,253.9248505c-9.0141068,8.7181854-18.0283737,17.436142-27.04216,26.1546478
		c-1.8362122,1.776062-3.6706161,3.5540161-5.5057373,5.3310547c-5.7720413-0.0140381-11.5447006-0.0028687-17.3100281-0.3583984
		c10.717659-6.7689819,21.4354935-13.5383911,32.153511-20.3075562c5.4957733-3.4708862,10.9913254-6.9421387,16.4890671-10.4099426
		c0.3346024-0.2110443,0.6878433-0.3926086,1.0324097-0.5878754
		C112.35569,253.8061218,112.4166641,253.865509,112.4776535,253.9248505z"></path>
	<path d="M45.835289,191.557373c9.5847015-3.9884491,19.1694031-7.9768982,28.7541046-11.9653168
		c0.0406189,0.0744781,0.0812378,0.1489868,0.1218567,0.2234802c-0.9318466,0.6587524-1.8605423,1.3220215-2.7960587,1.9755402
		c-8.6326447,6.0304413-17.26577,12.0601959-25.9025497,18.0847015c-0.3520851,0.245575-0.6535835,0.5975952-1.1294975,0.6257935
		c0.6759377-1.3491058,0.7618713-2.7519226,0.548893-4.2369232C45.205101,194.6823578,45.5785217,193.1170502,45.835289,191.557373z
		"></path>
	<path d="M128.7404327,57.6914711c-10.878685,9.7044792-21.7573624,19.4089622-32.6360474,29.1134453
		c0.0261993,0.0699234,0.0523987,0.1398544,0.0785904,0.2097702c5.9624023-2.8040237,11.9247894-5.6080551,18.0357056-8.481926
		c-0.1386337,0.9462891-0.6474686,1.4539108-1.203064,1.9471512C99.6225586,92.3694763,86.232338,104.2622452,72.8414688,116.154274
		c-1.4256668,1.2660828-2.8522797,2.5311127-4.4180908,3.9205246c0.4412231-3.2770081,0.8544617-6.3462448,1.2677002-9.4154739
		c-0.0598831-0.029068-0.1197662-0.0581284-0.1796417-0.0871964c-6.9867477,9.6203995-13.9734955,19.2407837-20.9602432,28.8611755
		c-0.0710678-0.0397186-0.1421318-0.0794373-0.2131958-0.1191559c4.9556847-11.9304352,9.911377-23.8608856,14.8864059-35.8378754
		c-0.4938507-0.1768036-0.8520126,0.1391602-1.2230301,0.2864761c-6.1571159,2.4444809-12.3185616,4.8787155-18.4521179,7.3811569
		c-1.0269356,0.4189911-1.2789459,0.2242889-1.3084297-0.8222885c-0.04245-1.5069351-0.9564972-3.1833954-0.3125763-4.4458313
		c0.6346931-1.2443466,2.2028847-2.0172882,3.37183-2.9845886c15.0882874-12.485527,30.1782913-24.9689865,45.2688599-37.4517441
		c0.3858948-0.3192062,0.7831573-0.6246643,1.3668823-0.7468643c-3.0116196,3.5789337-6.0232391,7.1578674-9.0347366,10.7368546
		c-0.0280457,0.0920944-0.0993195,0.2508469-0.0772247,0.2650986c0.1212997,0.0782928,0.1965027,0.0015717,0.228363-0.1245499
		c4.9797974-2.5220261,9.9620819-5.0391541,14.9384003-7.5680389c2.7039261-1.3740921,5.3951187-2.7732239,8.1000519-4.1453094
		c0.2621765-0.1329994,0.5094299-0.4332199,0.9993896-0.1661377c-4.4043121,4.0969086-8.7742462,8.1618423-13.1598511,12.2413483
		c0.5390015,0.357811,0.9234772-0.0839767,1.3243866-0.3024368c10.8295746-5.9007874,21.6542587-11.8105087,32.4816971-17.7151947
		c0.2764587-0.1507645,0.5746155-0.2618217,0.8626404-0.3913956
		C128.6467896,57.5784683,128.6939392,57.6346817,128.7404327,57.6914711z"></path>
	<path d="M123.7098389,99.4206543c4.0814209-1.9322205,8.1628265-3.8644409,12.2442474-5.7966614
		c0.0357208,0.0625305,0.0798035,0.1184769,0.1322784,0.1678314c-4.5627899,4.171051-9.1255569,8.3421097-13.6883392,12.5131607
		c-0.0755692-0.0429382-0.1511307-0.0858765-0.2266998-0.1288147c0.3469849-1.0457306,0.6939774-2.0914612,1.1439743-3.4476395
		c-3.7748718,2.2652283-7.3267517,4.3966522-10.8786316,6.5280762c-0.0434647-0.0482178-0.0891724-0.0942078-0.1371307-0.1379623
		c0.371994-1.16922,0.743988-2.3384399,1.1242142-3.5335236c-0.3652954-0.2405777-0.6423798,0.1234207-0.9268112,0.2558899
		c-2.7487488,1.2800522-5.4809189,2.5956421-8.2281265,3.8790436c-0.3408127,0.1592178-0.6396637,0.505249-1.0881042,0.3625183
		l0.0267868,0.0202713c1.559021-3.0006332,3.4806976-5.7847061,5.1973267-8.6912537
		c0.4360886-0.7383881,0.889122-1.4667816,1.5015335-2.4749603c-7.7107849,3.9539948-15.1423035,7.7647781-22.5738144,11.5755692
		c-0.0450592-0.0892868-0.0901184-0.1785736-0.1351776-0.2678604
		c18.1424332-14.7014771,36.2848663-29.4029617,54.4273148-44.1044464c0.0757294,0.0688629,0.1514587,0.1377258,0.2271881,0.2065887
		c-6.9436798,8.8083954-13.8873596,17.6167831-20.8310318,26.4251785c0.0949554,0.1008377,0.1899033,0.2016754,0.2848663,0.3025208
		c6.0044479-4.6849747,12.0089035-9.3699493,18.0133438-14.0549316c0.0559998,0.0610809,0.1119995,0.1221619,0.1679993,0.1832428
		c-2.8806915,3.6232147-5.7633362,7.2448578-8.6414337,10.8701248c-2.4308929,3.0619888-4.8565216,6.1281586-7.2844543,9.1924973
		c-0.0665054,0.0645599-0.1980591,0.1749878-0.1897278,0.1867905
		C123.4923096,99.6232071,123.6019974,99.5083313,123.7098389,99.4206543z M120.6990128,93.2844925
		c-0.1023712,0.0296249-0.2318192,0.0661011-0.1281891,0.19487c0.0296402,0.0368271,0.1893158-0.0308762,0.289299-0.0506821
		c0.0872955-0.0976791,0.270668-0.2041168,0.101326-0.3332291C120.7717667,92.9508362,120.7584763,93.177681,120.6990128,93.2844925
		z"></path>
	<path d="M36.9386826,54.6685753c2.4993362-2.7294006,4.9986763-5.4588051,7.4980087-8.1882057
		c-0.0650826-0.0991211-0.1301651-0.1982422-0.1952477-0.2973595c-3.9611816,2.1974678-7.9223671,4.3949394-11.8841171,6.5927238
		c-1.0950184-2.0452156-0.6199436-4.2964096-1.0953884-6.3901825c-0.2735367-1.2046127-0.3469372-2.4560089-0.6423416-3.6538506
		c-0.2592354-1.0511818,0.0179596-1.5563889,1.0557728-1.9538383c4.9938202-1.9124641,10.1555214-3.2408676,15.3157883-4.5924568
		C56.28545,33.75103,65.3390579,30.6714859,73.7337799,25.8998909c1.8716125-1.0638371,3.6920471-2.217823,5.532692-3.3358192
		c2.2022858-1.337656,1.7057877-1.3783855,3.5468674,0.6274319C67.5571747,33.757412,52.3180733,44.3115044,37.078968,54.865593
		C37.0322075,54.7999229,36.9854431,54.7342491,36.9386826,54.6685753z"></path>
	<path d="M170.5242462,106.8433075c-3.6835175,2.4100266-7.3670349,4.8200378-11.0505524,7.2300568
		c-0.0441589-0.0613937-0.0926514-0.1191711-0.145462-0.1733322c3.413208-3.2476273,6.8161316-6.5061417,10.2418365-9.7405243
		c6.5112-6.1475372,13.0334778-12.283371,19.5605011-18.414093c0.2976227-0.2795715,0.5145569-0.6732864,1.0763702-0.6312103
		c1.5340424,0.1148682,1.6679688,0.380722,1.0023041,1.7798386c-1.8309479,3.8482513-2.8352661,7.9614182-3.7552185,12.0944595
		c-0.4329376,1.9449997-0.8249054,3.9006577-1.1664124,5.8634872c-0.1017456,0.5849609-0.3703766,0.9179459-0.845108,1.1978378
		c-9.7320404,5.7375793-19.4602966,11.4816132-29.1889343,17.224968c-0.2744904,0.1620483-0.53862,0.3589249-0.8724518,0.2083969
		c5.1163788-5.4693985,10.2347565-10.9409561,15.3529358-16.4126892c0.0263062-0.0885391,0.0528259-0.1768951,0.079361-0.2652588
		C170.7170105,106.8179321,170.6206207,106.8306198,170.5242462,106.8433075z"></path>
	<path d="M174.7104034,76.0279312c4.5813446-5.4323425,9.1608887-10.8661957,13.744873-16.2963219
		c2.0616455-2.4422073,4.1308289-4.8780746,6.2001953-7.313736c0.2540283-0.2989769,0.5305786-0.5788155,0.8080444-0.8798332
		c0.4401703,0.4859695,0.4087677,0.9332008,0.2096405,1.4640808c-0.4393921,1.1715546-0.5379028,2.4023819-0.5504608,3.6513214
		c-0.0236664,2.349102-0.1127167,4.6974907-0.144989,7.0465813c-0.0125885,0.9182472-0.2895813,1.4946861-1.1958008,1.9889107
		c-6.3408661,3.4580002-12.6335754,7.004158-18.9417267,10.5220871
		C174.8058624,76.1436539,174.7626038,76.0826263,174.7104034,76.0279312z"></path>
	<path d="M179.0250702,121.3555145c1.8449249-2.0107803,3.6898499-4.0215607,5.8002625-6.3217087
		c-0.0856476,1.300148-0.1434174,2.2555618-0.2140045,3.2100143c-0.0281982,0.3816833-0.3593445,0.4985733-0.6337433,0.6455612
		c-1.6066132,0.8605957-3.2168884,1.7143555-4.8259277,2.5704269
		C179.1087341,121.4259262,179.0665283,121.3911514,179.0250702,121.3555145z"></path>
	<path d="M143.7024384,186.3142395c0.1746826-0.214325,0.4698486-0.5414734,0.6449432-0.3439331
		c0.2539215,0.2865448-0.207962,0.3886414-0.3786926,0.5595703
		C143.8799591,186.4579926,143.7911987,186.3861237,143.7024384,186.3142395z"></path>
	<path d="M100.8152542,250.1906433c-0.1432037,0.2129822-0.2552338,0.476532-0.90345,0.296936
		c0.3526688-0.227066,0.5635452-0.3628387,0.774437-0.4986115
		C100.7292557,250.0562286,100.7722549,250.1234589,100.8152542,250.1906433z"></path>
	<path d="M179.1516571,121.4598083c-0.078537,0.1483765-0.2546844,0.2691727-0.3461914,0.148735
		c-0.1186829-0.1561966,0.047699-0.2475586,0.2196045-0.2530365
		C179.0665283,121.3911514,179.1087341,121.4259262,179.1516571,121.4598083z"></path>
	<path d="M75.1031952,179.401474c0.0314178-0.0204468,0.0628433-0.0409088,0.0942612-0.0613708
		c-0.0044861,0.0038452-0.0084457,0.009903-0.0135574,0.0111542c-0.0367584,0.0088196-0.0737534,0.0166931-0.110672,0.0248871
		L75.1031952,179.401474z"></path>
	<path d="M129.1594238,57.353611c-0.139679,0.112606-0.2793579,0.2252121-0.4190216,0.3378372
		c-0.046463-0.0567665-0.0936127-0.1129799-0.1414642-0.1686211c0.1624298-0.1889191,0.3066406-0.4489403,0.5935211-0.1517982
		L129.1594238,57.353611z"></path>
	<path d="M53.1849823,228.2791748c-0.1355019,0.0878296-0.2264748,0.4038391-0.4167976,0.1959991
		c-0.1346588-0.14711,0.0758514-0.307312,0.2344513-0.4000549
		C53.0634232,228.1431274,53.1242027,228.2111664,53.1849823,228.2791748z"></path>
	<path d="M98.1079025,233.0915833c0.1511459-0.1725922,0.2729568-0.4429016,0.5585938-0.1674957
		l-0.0288239-0.0196838c-0.124054,0.1225739-0.2481155,0.2451324-0.3721466,0.3677368
		C98.2135391,233.2115021,98.1609879,233.1513062,98.1079025,233.0915833z"></path>
	<path d="M159.4736938,114.0733566c-0.185257,0.07164-0.3762207,0.2370758-0.5407104-0.0328598
		c0.1317596-0.046814,0.263504-0.0936356,0.3952484-0.1404648
		C159.3810425,113.9541931,159.4295349,114.0119705,159.4736938,114.0733566z"></path>
	<path d="M112.2947159,253.7467804c0.1348114-0.1780243,0.2402649-0.4356384,0.52948-0.1951294l-0.0276108-0.0199432
		c0.0143585,0.2288513-0.2019806,0.2707214-0.3189468,0.3931427
		C112.4166641,253.865509,112.35569,253.8061218,112.2947159,253.7467804z"></path>
	<path d="M139.9514771,78.7199936c-0.0076904-0.0580444-0.0153961-0.1160965-0.0231018-0.1741409
		c0.0456543,0.0036392,0.0913086,0.0072708,0.1369781,0.0109024c-0.0444946,0.0456314-0.0889893,0.0912628-0.1341705,0.13591
		C139.9304962,78.6917038,139.9514771,78.7199936,139.9514771,78.7199936z"></path>
	<path d="M75.0732269,179.3761444c0.0000458,0.0641327,0.0000992,0.1282654,0.0001526,0.1924133
		c-0.0493698-0.0160675-0.0987396-0.0321198-0.1481094-0.0481873c0.0598907-0.0391541,0.1197891-0.0782776,0.1788101-0.1181641
		C75.1031952,179.401474,75.0732269,179.3761444,75.0732269,179.3761444z"></path>
	<path d="M103.1807098,110.0825729c-0.0095444,0.0542603-0.0190887,0.1085281-0.0286407,0.1627884
		c-0.0329208-0.0120163-0.0658493-0.0240326-0.0987701-0.0360336c0.0514755-0.0354385,0.102951-0.0708771,0.1543045-0.1063995
		C103.2074966,110.1028442,103.1807098,110.0825729,103.1807098,110.0825729z"></path>
	<path d="M112.4366684,109.2565994c-0.0978851,0.0792007-0.1984634,0.1231461-0.2858734-0.0055008
		c-0.0048828-0.0071793,0.0967178-0.0866318,0.1487427-0.1324463
		C112.347496,109.1623993,112.3932037,109.2083893,112.4366684,109.2565994z"></path>
	<path d="M84.7063522,188.5185852c0.0680084-0.0572052,0.1758347-0.1761475,0.1978149-0.1619873
		c0.2003632,0.1290588-0.003479,0.2082825-0.0536041,0.30867C84.8048019,188.6140289,84.7567444,188.5651703,84.7063522,188.5185852
		z"></path>
	<path d="M84.4239578,188.7160797c0.0941315-0.0658264,0.1882629-0.1316681,0.2823868-0.1974945
		c0.0503998,0.0465851,0.0984573,0.0954437,0.1442184,0.1466827c-0.0665359,0.0760956-0.1331329,0.1520844-0.1996994,0.2280884
		C84.5752411,188.8342743,84.4996033,188.7751923,84.4239578,188.7160797z"></path>
	<path d="M37.078968,54.8656006c-0.0832405,0.0591125-0.1664772,0.1182327-0.2500687,0.1767769
		c-0.0372429-0.0415154-0.0754471-0.0811958-0.1149635-0.1196098c0.074913-0.0847321,0.1498299-0.1694641,0.2247467-0.2541962
		C36.9854431,54.7342491,37.0322075,54.7999229,37.078968,54.8656006z"></path>
	<path d="M98.6664963,232.9240875c-0.008255-0.0609741-0.0165024-0.1219482-0.0247574-0.1829224
		c0.0535736,0.0134735,0.107132,0.026947,0.1606979,0.0404205c-0.054924,0.0409393-0.109848,0.0818939-0.1647644,0.122818
		L98.6664963,232.9240875z"></path>
	<path d="M135.9540863,93.6239929c0.1029053-0.01371,0.2791595-0.0663681,0.2961273-0.0344391
		c0.0767975,0.1444397-0.0548553,0.1749496-0.1638489,0.2022705
		C136.0338898,93.7424698,135.9898071,93.6865234,135.9540863,93.6239929z"></path>
	<path d="M139.319046,79.0192566c0.0868225-0.0666656,0.1736603-0.1333237,0.260498-0.1999969
		c0.0410614,0.0391693,0.0820923,0.0783615,0.1230927,0.1175766c-0.0718689,0.0885468-0.1437225,0.1771011-0.2155914,0.2656555
		C139.4310455,79.1414108,139.3750458,79.0803299,139.319046,79.0192566z"></path>
	<path d="M36.4086189,55.111496c0.1017761-0.0629082,0.2035446-0.1258202,0.3053169-0.1887283
		c0.0395164,0.038414,0.0777206,0.0780945,0.1149635,0.119606c-0.1340485,0.1443062-0.2775116,0.2093887-0.4465981,0.0519981
		L36.4086189,55.111496z"></path>
	<path d="M101.3270416,249.7434845c-0.0856552,0.0746613-0.1713104,0.149292-0.2569504,0.2239685
		c-0.0699005-0.0497589-0.1397934-0.099472-0.2097015-0.1491852c0.081131-0.0816956,0.1622696-0.1633606,0.2433777-0.2450256
		C101.1781693,249.6299591,101.2526016,249.6867371,101.3270416,249.7434845z"></path>
	<path d="M129.1924591,57.3710289c-0.0292816-0.0533791-0.0585632-0.1067543-0.0878448-0.1601372
		c0.0544586-0.0133362,0.108902-0.0266762,0.1633759-0.0400124c-0.0375366,0.0601616-0.075058,0.1203232-0.1105804,0.1816101
		C129.1594238,57.353611,129.1924591,57.3710289,129.1924591,57.3710289z"></path>
	<path d="M112.8241959,253.551651c-0.0912857-0.0994873-0.0726013-0.1796875,0.0496292-0.227951
		c0.02742-0.0108337,0.0702286,0.0172882,0.1059418,0.0274658c-0.0610657,0.0601807-0.1221313,0.1203766-0.1831894,0.180542
		C112.7965851,253.5317078,112.8241959,253.551651,112.8241959,253.551651z"></path>
	<path d="M174.8401794,76.2110214c-0.1069489,0.0422668-0.2199097,0.2150955-0.3132629,0.0038986
		c-0.0130768-0.0295486,0.1187286-0.1230698,0.1834869-0.1869888
		C174.7626038,76.0826263,174.8058624,76.1436539,174.8401794,76.2110214z"></path>
	<path d="M139.5795441,78.8192596c0.0976562-0.1285095,0.1918945-0.2695999,0.3713074-0.1002121
		c0.0006256,0.000946-0.0203552-0.0273438-0.0196686-0.0263824c-0.0095062,0.1443863-0.076828,0.2340012-0.2285461,0.2441788
		C139.6616364,78.8976212,139.6206055,78.858429,139.5795441,78.8192596z"></path>
	<path d="M36.3823013,55.0943718c0.0260353,0.0573807,0.0520744,0.1147614,0.0781097,0.172142
		c-0.0294189,0.0120621-0.0588417,0.024128-0.0882607,0.0361977c0.0145111-0.0622063,0.0290222-0.1244087,0.0400009-0.1889153
		C36.4086189,55.111496,36.3823013,55.0943718,36.3823013,55.0943718z"></path>
	<path d="M101.0700912,249.967453c-0.0849533,0.0744019-0.1698914,0.1487885-0.254837,0.2231903
		c-0.0429993-0.0671844-0.0859985-0.1344147-0.1289978-0.2016449c0.0580597-0.0569153,0.1161194-0.1138153,0.1741562-0.1707306
		C100.9302979,249.867981,101.0001907,249.9176941,101.0700912,249.967453z"></path>
</g>
<g onclick="select(this)" class="" id="gola-primaria" fill="#000000">
	<path d="M149.1920471,8.2665339c1.6939392,0.4726591,2.2954254,2.5113087,1.6764832,4.7439165
		c-1.1702118,4.221241-3.5444641,7.6797829-6.640976,10.6468983c-2.7452393,2.6305218-5.8021545,4.8994617-9.1010895,6.8097744
		c-4.4165955,2.5575047-9.0063553,4.6916981-14.078331,5.6319599c-0.9518661,0.1764565-1.8975296,0.0651474-2.9256516,0.2119141
		c0.0962601-0.7886925,0.5959167-1.2629395,0.9921494-1.7654648c2.8672943-3.636528,6.4311218-6.5473347,9.9547958-9.5003853
		c3.1523438-2.6418457,6.6448364-4.8692551,9.5260773-7.842041c1.7865601-1.8433084,3.4441986-3.782876,4.6701813-6.0531158
		c0.3357849-0.6218185,0.6031036-1.2805748,0.9593048-2.0458479c-2.4323578,0.1821613-4.6977844,0.3347807-6.9600983,0.5245132
		c-6.2502136,0.5241804-12.5107498,0.8739176-18.7725449,1.2287455c-7.974205,0.4518642-15.8826065-0.3800211-23.8044815-0.9912195
		c-3.5429001-0.2733459-7.0799713-0.6263847-10.6162415-0.9779987c-0.8916092-0.0886545-0.9337845,0.2375078-0.6452408,0.9307556
		c0.5874176,1.4113483,1.3421936,2.7167549,2.3023758,3.9077702c1.9884262,2.4664373,4.1855927,4.7240839,6.6866608,6.6749144
		c4.9820175,3.8859615,9.9055557,7.8397236,14.2901917,12.4103851c0.9518585,0.9922409,1.8467331,2.0424995,2.6657181,3.3343887
		c-2.3787918,0.1687813-4.5244446-0.29776-6.5661926-0.9732132c-9.7687759-3.2317219-18.1325226-8.4916897-24.0654449-17.1269894
		c-1.2417297-1.8073368-1.9321899-3.8451538-2.3278809-5.9871454c-0.3179321-1.7210159,0.0242157-3.181798,1.6840515-4.0964561
		c0.5143661-0.0252366,0.9027328-0.3090868,1.2522583-0.6413717c0.9263687-0.8806643,2.0001678-1.6612997,2.7273788-2.6858664
		c2.0422745-2.8773975,5.0196915-3.6030319,8.2393723-3.9380414c3.0733871-0.3197877,6.1406097,0.0641102,9.2117691,0.0276584
		c4.3972549-0.0521912,8.7969818,0.0443268,13.1928406-0.0513675c7.9100418-0.1721947,15.8178406,0.0474255,23.7266388,0.0363705
		c0.912384-0.0012754,1.8285217,0.1743852,2.7368927,0.3086998c2.2479095,0.3323816,4.1504211,1.1903371,5.5703125,3.1194048
		C145.9542999,5.7696943,147.367691,7.2616229,149.1920471,8.2665339z"></path>
</g>
<g onclick="select(this)" class="" id="detalhe-punho" fill="#000000">
	<path d="M0.24,114.41436c0.6107783-1.2420959,0.4154505-2.6777496,0.9468267-3.9383621
		c1.976527,0.6283646,3.9751949,1.2142029,5.9778385,1.7141418c6.2971659,1.5719833,12.7390747,2.1274796,19.2143612,2.1471405
		c3.7452736,0.0113754,7.5113277,0.3100128,11.2349834-0.3948441c1.0541039-0.1995392,2.1049347-0.416481,3.1596031-0.6128845
		c1.5306358-0.2850342,1.7421913-0.1876984,1.9219894,1.3255692c0.2250328,1.8939514,0.3311653,3.8020096,0.4886246,5.7039795
		c-0.9007339,0.7405167-2.0174828,0.9574585-3.1024132,1.1645813c-2.5106468,0.4793091-5.038868,0.7957077-7.609993,0.8197708
		c-6.994585,0.0654373-13.9775391,0.038559-20.892168-1.2381592c-3.0178013-0.5572052-6.0275316-1.1423187-8.9426279-2.1199341
		c-0.8160248-0.273674-1.598931-0.6459885-2.3970258-0.9730606C0.24,116.8129883,0.24,115.613678,0.24,114.41436z"></path>
	<path d="M184.6309204,120.0944595c-0.3148346-2.185524,0.5825043-4.2480927,0.6513672-6.3962173
		c0.0263062-0.8202362,0.6699219-0.5588303,1.0703583-0.4709015c2.9887848,0.6561584,6.0377808,0.4623337,9.0567627,0.6636734
		c4.9618225,0.330925,9.8569183-0.2946701,14.7624969-1.0241394c5.6631317-0.8421249,11.2531128-1.8569412,16.5039825-4.2465134
		c0.3738708-0.1701431,0.7536316-0.2538681,1.1609039-0.2217789c1.1353607,2.336441,1.1766968,4.8449707,1.0996246,7.3563385
		c-0.0221863,0.7228928-0.7844391,0.8354187-1.3140411,1.0370178c-2.8729095,1.0936127-5.8452148,1.8682861-8.8147736,2.6399994
		c-8.731369,2.2690582-17.6292267,2.7698975-26.595108,2.3430557c-2.0615845-0.0981522-4.1379395-0.3113708-6.1459808-0.8887787
		C185.5256805,120.7307129,184.9997711,120.5572357,184.6309204,120.0944595z"></path>
</g>
</svg>
