<!--?xml version="1.0" encoding="utf-8"?-->
<!-- Generator: Adobe Illustrator 24.2.3, SVG Export Plug-In . SVG Version: 6.00 Build 0)  -->
<svg version="1.1" id="Camada_1" xmlns="http://www.w3.org/2000/svg" xmlns:xlink="http://www.w3.org/1999/xlink" x="0px" y="0px" viewBox="0 0 234 419" enable-background="new 0 0 234 419" xml:space="preserve">
<g onclick="select(this)" class="" id="c-estampa-primaria" fill="#bf0811">
	<path d="M81.8580551,7.9835963c2.1281433,0.2338386,4.2658386,0.3423991,6.3920059,0.6339555
		c4.4136581,0.6052332,8.8413925,1.1088181,13.2653046,1.6377201c1.3858948,0.1656914,2.7916336,0.1836939,4.1780319,0.225687
		c4.3462448,0.1316462,8.6712265,0.7026958,13.0308685,0.5542564c4.9799805-0.1695662,9.939003-0.6464396,14.9111862-0.9240065
		c6.0475006-0.3375921,12.0287933-1.2249546,18.0034943-2.1704445c0.6270294-0.099225,1.2711792-0.0903177,1.9083557-0.1320987
		c1.6199799-0.0121517,2.9975739,0.6290498,4.0176239,1.8190274c1.18013,1.376708,2.6810913,2.262785,4.2083435,3.1218662
		c8.5497437,4.8092785,17.4604187,8.8590717,26.5822144,12.44133c5.1021423,2.0036812,9.9898682,4.4678211,14.9754791,6.7215424
		c0.1760254,0.0795631,0.3200073,0.2300129,0.4785004,0.3471203c-0.3276367,0.5461655-0.4387512,1.2117538-0.234436,1.7355881
		c0.486496,1.2473412,0.0323029,2.498024,0.193161,3.7340813c0.0461578,0.3548164,0.0099335,0.7196808,0.0437775,1.0768776
		c0.4802704,5.0693855,0.1956482,10.1060295-0.7172546,15.1047745c-0.8250427,4.5177765-2.3676605,8.8456726-3.5833282,13.2605057
		c-0.7703705,2.7976837-1.9322662,5.3985367-3.3066101,7.9221268c-0.4357452,0.8001251-0.8538971,1.7621384-1.5587006,2.2333984
		c-1.751358,1.1710358-2.2255707,2.9605255-2.6317749,4.763176c-0.9034729,4.0094604-1.278183,8.095459-1.4307251,12.1977692
		c-0.0726318,1.9536362-0.1398315,3.8975906-0.7333527,5.7834167c-1.3188782,4.1903458-0.5819244,8.5378647-0.9559631,12.8009415
		c-0.0123901,0.1412659,0.1016693,0.2936249,0.157135,0.4399643c-0.050827,0.3859406-0.0521545,0.7876053-0.1621704,1.1568756
		c-0.3977356,1.3349838,0.1290588,2.8359604-0.7417297,4.0812988c-0.6769104,0.4831696-0.8384399,1.2613678-0.9182281,1.9723282
		c-0.6777802,6.0399323-1.3856049,12.0785217-1.917038,18.1322174c-0.428421,4.880249-0.7996368,9.7780609-0.8777161,14.673172
		c-0.0891876,5.5931702-0.3906097,11.1808777-0.3261108,16.7791595c0.1694641,14.7097778-0.2562866,29.4231873,0.23526,44.1312561
		c0.1388245,4.1539001,0.0108032,8.3076477,0.1750793,12.4651031c0.2615509,6.6190491,0.4896698,13.2403717,0.7184143,19.8610077
		c0.15979,4.6251221,0.2966614,9.2501678,0.4897461,13.8748932c0.1646729,3.9437866,0.3563538,7.8876953,0.4886627,11.8312073
		c0.1418152,4.2267456,0.4624023,8.442749,0.5853119,12.6685486c-6.4370422,1.6742859-12.9883423,2.6364441-19.6147003,3.105957
		c-15.2886963,1.0833435-30.6052094,1.0558777-45.9200592,1.199646c-14.877121,0.1396179-29.7553101,0.3595581-44.6301727,0.1205139
		c-9.3597488-0.1503601-18.6840019-0.9620056-27.8058319-3.294342c-0.1514664-0.0387268-0.2946472-0.1098633-0.4407806-0.1659851
		c0.1389503-1.6291809,0.1358643-3.2646179,0.2435493-4.8975525c0.3645592-5.5281372,0.6039238-11.0662842,0.7853661-16.6040955
		c0.1358414-4.1461792,0.296093-8.2900696,0.4768867-12.4345093c0.248703-5.7011108,0.3732681-11.4077759,0.5359116-17.1124725
		c0.0784988-2.7531738-0.0649681-5.5070038,0.2022476-8.2616272c0.4827652-4.9765167,0.3438911-9.9888,0.3426857-14.9680328
		c-0.0049362-20.4558105,0.6601563-40.9199371-0.5072403-61.368454c-0.1792412-3.1395874-0.2942696-6.2830048-0.4969406-9.4238281
		c-0.296978-4.6023712-0.7423325-9.1852722-1.2411499-13.7693024c-0.4935341-4.5355606-1.2735596-9.0156708-2.1321869-13.4882431
		c0.0190773-1.440361-0.1012306-2.8619995-0.5438271-4.2441559c-0.2038651-0.6366425-0.36409-1.2810593-0.5071754-1.9380646
		c-0.352356-1.6178818-0.2228127-3.258049-0.3241119-4.8721237c-0.1109314-1.7675858-0.7032623-3.4501343-0.7543144-5.1666183
		c-0.089344-3.0037842-0.4519119-5.9463348-1.0065384-8.8894577c-0.4118538-2.1855011-0.7909012-4.3778229-1.083374-6.5903244
		c-0.273838-2.0715714-1.5592499-3.8345184-2.7072029-5.5783463c-0.7021904-1.0666962-1.4645004-2.104599-1.9332771-3.2983398
		c-2.2738953-5.7904892-4.0975304-11.7233238-5.4414024-17.79636c-0.85252-3.8525925-1.2769947-7.7524376-1.1472282-11.7147598
		c0.0770035-2.3513222,0.0520439-4.7069016,0.3130665-7.0476379c0.0658455-0.5904732-0.3550186-1.1474266-0.02882-1.739624
		c0.416235-0.755661,0.3474674-1.5256042-0.0092583-2.2864532c4.2559147-1.9969311,8.4775639-4.0659313,12.8534641-5.8014832
		c7.0857925-2.8103352,14.0674591-5.8668938,21.0127487-9.0069199c3.9414978-1.7819843,7.592514-4.0726099,11.2326813-6.3844156
		c0.4515533-0.2867746,0.7524719-0.7025681,1.1046829-1.0813026C78.7727966,8.9101152,80.0685806,7.9574499,81.8580551,7.9835963z"></path>
	<path d="M189.0510406,113.3130264c-0.0551147-0.1471939-0.1691742-0.2995529-0.1567841-0.4408188
		c0.3740387-4.2630768-0.362915-8.6105957,0.9559631-12.8009415c0.5935211-1.8858261,0.6607208-3.8297806,0.7333527-5.7834167
		c0.1525421-4.1023102,0.5272522-8.1883087,1.4307251-12.1977692c0.4062042-1.8026505,0.8804169-3.5921402,2.6317749-4.763176
		c0.7048035-0.4712601,1.1229553-1.4332733,1.5587006-2.2333984c1.3743439-2.5235901,2.5362396-5.1244431,3.3066101-7.9221268
		c1.2156677-4.4148331,2.7582855-8.7427292,3.5833282-13.2605057c0.9129028-4.998745,1.197525-10.0353889,0.7172546-15.1047745
		c-0.033844-0.3571968,0.0023804-0.7220612-0.0437775-1.0768776c-0.1608582-1.2360573,0.293335-2.4867401-0.193161-3.7340813
		c-0.2043152-0.5238342-0.0932007-1.1894226,0.234436-1.7355881c1.8174591,1.0571327,3.1095886,2.7241821,4.6880341,4.0611343
		c7.6025543,6.4393692,12.0891266,14.8393555,14.9355927,24.2232819c1.8835144,6.2093887,2.9201508,12.5783997,3.6741028,19.0179138
		c0.5473022,4.6746902,1.4640198,9.3053665,2.1769867,13.9616318c0.8755951,5.7182999,1.4894562,11.478653,2.7884674,17.1284409
		c0.079422,0.3454361,0.0524445,0.7153244,0.0748901,1.0739441c-1.1985474,0.2977295-2.3873444,0.644043-3.597168,0.8845367
		c-5.2733765,1.0483322-10.6157837,1.6302261-15.9414368,2.3284225c-4.5469971,0.5961227-9.0929565,0.9767838-13.6932831,1.0205231
		c-3.219162,0.0305939-5.8176727-1.059166-8.2521515-2.9212112c-0.4428406-0.338707-0.8512421-0.7321472-1.4813538-0.7825012
		C189.1384277,112.6083679,189.0947266,112.960701,189.0510406,113.3130264z"></path>
	<path d="M46.5984573,113.5769119c-0.0262222,0.5643692,0.0691566,1.1507492-0.2992477,1.6534119
		c-0.5079575-0.9235077-0.3191452-2.0217972-0.7852402-3.1452484c-2.2311592,2.6585617-5.3019104,1.9235458-8.1163673,2.1845627
		c-4.9980202,0.4635315-9.963419,0.0150604-14.8977375-0.7378998c-3.3447762-0.5103912-6.6623507-1.2005844-9.9897423-1.8229218
		c-3.5935507-0.6721191-7.1843677-1.3588486-10.7761421-2.0392838c1.0089324-6.227005,1.6012859-12.537735,3.1574006-18.6553497
		c1.9134207-7.5223236,3.1039934-15.1678467,4.510396-22.7834702c1.58708-8.5939865,4.4463224-16.7619438,9.6820316-23.9032173
		c2.5375748-3.461132,5.4739933-6.5772552,8.928812-9.1511574c1.1776657-0.8773804,2.0319977-2.1448402,3.4125347-2.7617455
		c0.3565636,0.7609024,0.4253311,1.5308456,0.0090961,2.2865067c-0.3261986,0.5921974,0.0946655,1.1491508,0.02882,1.739624
		c-0.2610226,2.3407364-0.236063,4.6963158-0.3130665,7.0476379c-0.1297665,3.9623222,0.2947083,7.8621674,1.1472282,11.7147598
		c1.3438721,6.0730362,3.1675072,12.0058708,5.4414024,17.79636c0.4687767,1.1937408,1.2310867,2.2316437,1.9332771,3.2983398
		c1.147953,1.7438278,2.4333649,3.5067749,2.7072029,5.5783463c0.2924728,2.2125015,0.6715202,4.4048233,1.083374,6.5903244
		c0.5546265,2.9431229,0.9171944,5.8856735,1.0065384,8.8894577c0.0510521,1.7164841,0.643383,3.3990326,0.7543144,5.1666183
		c0.1012993,1.6140747-0.028244,3.2542419,0.3241119,4.8721237c0.1430855,0.6570053,0.3033104,1.3014221,0.5071754,1.9380646
		C46.4972267,110.7149124,46.6175346,112.1365509,46.5984573,113.5769119z"></path>
</g>
<g onclick="select(this)" class="" id="c-estampa-secundaria" fill="#000000">
	<path d="M186.6882477,136.8193207c0.0018768,0.0845642,0.0037384,0.1690979,0.0056,0.2536469
		c-0.3424988,0.3309784-0.1794128,0.756485-0.1836395,1.1347809c-0.0254669,2.276001-0.0453186,4.5525665-0.0175171,6.8283386
		c0.0080109,0.6564941-0.154129,0.9337158-0.8578033,0.8904724c-1.1326599-0.0696106-2.2588501,0.0996857-3.4083252,0.0210724
		c-2.0271454-0.1386414-4.0702362-0.0467072-6.1066437-0.0471802c-5.071167-0.0011597-10.142334-0.0028687-15.2134705,0.0064697
		c-0.3500519,0.0006409-0.7659454-0.1257935-1.0294342,0.2078705c0.0997009,0.2757111,0.2698517,0.2811127,0.419281,0.277298
		c2.6261749-0.0671082,5.2331543,0.3575592,7.8647308,0.2682343c1.6119995-0.054718,3.2182465-0.2216949,4.828949-0.2307129
		c2.4311066-0.0136261,4.8602753-0.0068054,7.291626,0.1828156c1.6551514,0.1290588,3.3251343,0.0523834,4.990921-0.1764679
		c1.1387939-0.1564636,1.156662-0.0404205,1.2368774,1.0720825c0.014389,0.1995544,0.0065918,0.4005432,0.1905975,0.5370483
		c-0.0017395,0.24086-0.003479,0.4817352-0.0052338,0.7225952c-7.0115356,0.0075684-14.0230713,0.0155487-21.0346069,0.0223541
		c-1.6390839,0.0015869-3.2782135-0.0068512-4.9172211,0.0052338c-0.236969,0.0017395-0.6037292-0.1283722-0.5947571,0.4744568
		c1.7458191-0.1350555,3.4561768,0.3363953,5.2040863,0.2404022c0.459198-0.0252228,0.8916168-0.0988159,1.3747559-0.0273132
		c0.8544922,0.1264343,1.7352295,0.0095673,2.5952606,0.2566986c0.3198547,0.0919037,0.759201,0.1450653,1.0436249-0.1035309
		c0.6342316-0.554306,1.3995667-0.4405212,2.0618286-0.3125458c1.7883453,0.3455505,3.5795746,0.1132355,5.3661041,0.1956177
		c0.3188934,0.0147247,0.7036133-0.0886841,0.9460297,0.0534058c1.1953278,0.7005768,2.35495,0.6405487,3.5503235,0.0254974
		c0.1959381-0.1007996,0.4672394-0.0738525,0.7037201-0.0739594c1.2393799-0.0005493,2.4787445,0.009201,3.7181091,0.0153656
		c0.1029205,1.2628479,0.2990875,2.5214996,0.1707001,3.7947388c-0.7197876,0.0068054-1.4405975,0.0409241-2.1591949,0.0148926
		c-1.6689758-0.0604248-3.3458099-0.1053314-5.0072937-0.1452942c-1.8738098-0.0450439-3.8007507-0.6493073-5.6753235,0.1009369
		c-0.1513977,0.0605621-0.3775482-0.0848694-0.5721436-0.1100464c-1.4871674-0.1925201-2.9811249,0.1257477-4.4691315-0.0541534
		c-0.0374451-0.0045471-0.077713,0.0128784-0.1164856,0.0209045c-1.8579407,0.3857117-3.7382965,0.2337952-5.5986633,0.1173553
		c-1.2483063-0.0780945-2.4733276-0.2389069-3.7134705,0.0430603c-0.2589264,0.0588531-0.5623932,0.0216217-0.8240356-0.0495605
		c-0.8661957-0.2356567-1.7273254-0.2194672-2.5903778-0.0173492c-0.6721802,0.1574249-1.390564,0.2268372-2.0148315,0.0361633
		c-0.8605499-0.2628326-1.8081207,0.2073822-2.6054535-0.3920593c-0.0942078-0.0708466-0.3314514-0.0287933-0.4616241,0.0390778
		c-0.5317993,0.2772675-1.0980835,0.1614685-1.6505127,0.1783295c-0.679184,0.0206909-1.4299927-0.1735229-2.024292,0.0536346
		c-1.2580566,0.4809113-2.5240479,0.0859375-3.7318726,0.0656738c-1.6179962-0.0271149-3.25737-0.0157318-4.8830414-0.1186523
		c-0.4174805-0.0264282-0.815155,0.0449219-1.1183624,0.3152771c-0.2458954,0.219223-0.2491913,0.593277,0.1347656,0.6186981
		c1.2134094,0.0803223,2.418396,0.565155,3.6495209,0.1145782c0.3860321-0.1413116,0.8276672-0.178421,1.1742401-0.025238
		c0.5114136,0.226059,1.0183258,0.1424561,1.5289307,0.1810608c0.9459839,0.071579,1.9117584-0.178421,2.8426208,0.1802673
		c0.0908203,0.0349731,0.2558441-0.0006104,0.331131-0.0665588c0.6056976-0.5305481,1.2307434-0.3048096,1.9116364-0.1636047
		c0.648819,0.1345825,1.351059,0.1667328,2.0067291-0.0896454c0.3914795-0.1530914,0.8022308-0.1465759,1.1791077-0.0473175
		c1.4599304,0.3845825,2.9628448,0.296875,4.400238,0.1280212c2.1150513-0.2484283,4.220047-0.0787201,6.3261871-0.1822662
		c0.8352356-0.0410919,1.6835175-0.0353851,2.5125732,0.0620728c1.8651276,0.2192078,3.7324219,0.1980591,5.6014099,0.1596222
		c0.3484192-0.0071716,0.6604309-0.2696686,1.0429077-0.1751556c1.8303833,0.45224,3.7123566,0.1562653,5.5718384,0.378418
		c1.7448273,0.2084503,3.5425568-0.2889862,5.3204498,0.0483398c0.2691345,0.0510559,0.5854492,0.0715942,0.832962-0.0202942
		c0.9398956-0.3489838,1.8909302-0.1806183,2.8413849-0.1386719c0.2763519,1.8666229,0.1759186,3.7374268,0.0300751,5.6044159
		c-0.3238373,4.1458893-0.4656372,8.2934723-0.2928619,12.4518127c0.0809937,1.9494171,0.2162781,3.9004669,0.0900726,5.8540955
		c-9.4296112,0.0350189-18.8603516-0.159317-28.2886353,0.1844788c-2.1517944,0.0784607-4.3072357-0.098877-6.4595337-0.1419525
		c-11.9859772-0.2399597-23.9771271,0.173172-35.9633789-0.2840729c-3.2340012-0.1233521-6.4762268-0.0312042-9.7146759-0.0384979
		c-4.5114059-0.0101624-9.0136185,0.2044067-13.5184174,0.4390106c-2.5846252,0.1345825-5.1836777-0.0195007-7.778244-0.1010895
		c-7.3074799-0.2298584-14.622963,0.0245667-21.9328995-0.2610321c-4.83255-0.1888123-9.6630974,0.1912994-14.4963608,0.1440735
		c-0.1584282-0.338028-0.1407394-0.7062988-0.1464157-1.0605927c-0.0474014-2.9566498-0.1549568-5.9150238-0.0963097-8.8699646
		c0.0667839-3.3649292-0.1856613-6.711441-0.3421783-10.0647583c-0.0353508-0.7573395-0.0977783-1.5283051-0.0024757-2.2744141
		c0.5857735-4.5862732,0.2870598-9.1824493,0.1681404-13.7731781c-0.0755081-2.9150085-0.3134346-5.8257904-0.4785233-8.7384644
		c0.0345268-0.1127777,0.1154442-0.2342529,0.0962143-0.3369751c-0.1514015-0.8087769,0.2715607-0.9789276,0.9519882-0.8896942
		c0.1179771,0.0154724,0.2396355,0.0031128,0.3595963,0.0031128c34.8680229-0.0002289,69.7360535-0.0011597,104.6040802-0.0002594
		c8.4370575,0.0002289,16.8741302,0.0089264,25.311203,0.0039368c0.4820862-0.0002747,0.9979095,0.1086426,1.5065613-0.1623383
		c-0.4680176-0.6880341-1.0908813-0.5592804-1.66362-0.5594482c-12.9552765-0.0038452-25.9105835-0.0046387-38.86586-0.0045319
		c-22.951355,0.0001526-45.9027176,0.0013275-68.8540726,0.0019836c-7.3972969,0.0002289-14.7945824,0.0007782-22.1918716-0.0012665
		c-0.499836-0.0001373-1.0544167,0.1395416-1.3531647-0.460556c-0.2278748-2.3032074-0.2844162-4.6126251-0.250145-6.9253235
		c0.4789581-0.0148697,0.9579201-0.0427246,1.4368782-0.0426712c7.5496101,0.0010681,15.0992241,0.007019,22.648838,0.0090714
		c4.6736069,0.0012741,9.3472214,0.0026627,14.0207825-0.0124512c0.3786011-0.001236,0.8545074,0.1893997,1.1461792-0.285965
		c-0.3182755-0.2927704-0.6526718-0.1876526-0.9570999-0.1882324c-3.7145767-0.0072403-7.4291763-0.0015106-11.1437683-0.0035782
		c-9.0658035-0.0050354-18.1316109-0.0124054-27.1974144-0.0188522c-0.0595131-0.0456848-0.0758057-0.1035614-0.0488815-0.1735992
		c0.0317535-0.6325302,0.3462944-0.8122177,0.9882278-0.8507843c1.5521164-0.0932388,3.0935707-0.0484161,4.6451988-0.0065765
		c1.9105911,0.0515213,3.835144-0.0540543,5.7425613-0.0399323c2.6642151,0.019722,5.3338852-0.0561447,7.9965591,0.0842972
		c0.6509171,0.0343399,1.2779922-0.2405701,1.8943024-0.1274109c1.1564789,0.2123413,2.3095551,0.130722,3.4647751,0.1169662
		c2.6229477-0.0312195,5.2475433-0.0686951,7.8686905-0.0780869c2.4224167-0.0086975,4.8501205,0.0512161,7.2757111,0.0623245
		c0.3530884,0.0016098,0.8901367,0.0630112,0.9065781-0.3488235c0.0213394-0.5347748-0.5432358-0.3099518-0.844223-0.310463
		c-8.5055771-0.0145035-17.0111847-0.0084457-25.5167923-0.0140686c-4.8373833-0.0032043-9.6747551-0.021019-14.5121346-0.0322495
		c-0.036396-0.4704895-0.0727844-0.9409637-0.1091766-1.4114532c0.0750885-0.2530975,0.1043701-0.499176-0.1085777-0.708107
		c-0.0004616-0.1280823-0.0009232-0.2561798-0.0013809-0.3842621c0.5979271-0.0936203,1.1811104,0.354332,1.7597618,0.1143494
		c0.8165932-0.3386841,1.6539383-0.2520065,2.4826584-0.2115555c3.1092262,0.151741,6.2259331,0.0842056,9.3335381,0.1312408
		c2.113163,0.0319901,4.2639999,0.0928802,6.4015045-0.0730133c2.0899429-0.1622086,4.2020187-0.0427551,6.3043747-0.0411377
		c6.318306,0.0048294,12.6366272,0.0064392,18.9549026,0.0231247c1.6557007,0.0043716,3.2985306-0.1489258,4.9703522-0.0382919
		c2.6267624,0.1738586,5.274498,0.0235977,7.913353,0.0236053c3.7586212,0,7.5172424,0.0094986,11.2758408,0.022049
		c0.3812103,0.0012741,0.8799057-0.1347427,1.0176468,0.3812561c0.1275406,0.4777985,0.3124542,0.8707199,0.6882706,1.2007675
		c0.1337662,0.1174774,0.1224976,0.3917618-0.0013046,0.5601501c-0.1598969,0.2174835-0.3663483,0.1069565-0.5159378-0.0253906
		c-0.3811569-0.3372192-0.8645935-0.3871155-1.2142715-0.13134c-0.5482635,0.4010162-1.1362,0.2885284-1.7183838,0.3593597
		c-0.6766968,0.0823364-1.3444977-0.1925278-1.9980316-0.0820694c-0.4833221,0.0816879-0.7428207-0.0077057-0.9687805-0.4273682
		c-0.236496-0.4392319-0.5184326-0.6039276-0.835701-0.0229263c-0.212204,0.388588-0.6731491,0.5995789-1.0240707,0.4732132
		c-1.1279602-0.4062042-2.1970673,0.2115097-3.2975693,0.0864105c-0.203331-0.0231018-0.5120392-0.0840836-0.5053177,0.445961
		c2.8125839-0.0411224,5.6075439,0.4674606,8.4283295,0.2552109c2.7774124-0.208992,5.5569839-0.0158081,8.3384857-0.1168289
		c2.7489395-0.0998459,5.5156631,0.2714157,8.2751541-0.0856705c-1.241394-0.5045929-2.5528717-0.1516953-3.8274307-0.4548492
		c-1.2674866-0.3014679-2.6874619,0.2178879-3.8905563-0.6380157c0.417244,0.0504456,0.8229218,0.1844711,1.2487488,0.0872192
		c0.1820526-0.0415955,0.276474-0.1366806,0.2907867-0.3151169c0.0142288-0.1774368-0.0586395-0.3551865-0.2325439-0.3547821
		c-0.559906,0.001297-1.0908356-0.2593613-1.6198654-0.2478561c-0.495285,0.010788-0.222641,0.5855637-0.3469543,0.8898926
		c-0.0277557,0.0679474-0.0784302,0.1383362-0.1379395,0.1797104c-0.7450867,0.5181122-2.7685089-0.141777-3.1100235-1.0107498
		c-0.1958771-0.4984131,0.0131073-0.7658691,0.614357-0.7838593c1.7733459-0.0530472,3.5437164,0.1562347,5.3225479-0.0243607
		c1.5957489-0.1620178,3.17453,0.3033142,4.7743378,0.2783813c0.5154724-0.008049,1.0499573,0.0859985,1.4435883-0.3846283
		c0.3928375-0.4696426,0.7888489-0.419281,1.2376862-0.0437927c0.2326202,0.1946106,0.5323029,0.440506,0.8660431,0.2886658
		c1.3770447-0.6264877,2.7538147-0.5923157,4.1316833-0.0392532c0.3106079,0.1246643,0.5460205,0.0032043,0.7917023-0.1187363
		c0.294693-0.1462784,0.6026001-0.2447968,0.9244537-0.1930923c0.9992523,0.1605682,1.9927826-0.0069504,2.9885254-0.0117264
		c4.1396942-0.0198288,8.2797699,0.0306854,12.4193573,0.0030746c0.9651489-0.006424,1.9085541,0.309021,2.857605,0.1801682
		c1.1806641-0.1602936,2.3642731-0.1632385,3.5434265-0.1659546c7.1168823-0.0164261,14.2338562,0.0066986,21.3507996,0.0114059
		c1.1196594,0.0007401,2.2398071-0.0496368,3.3588257-0.0281754c0.5792542,0.0111084,0.7426758-0.2069092,0.7473907-0.7698059
		c0.0166626-1.9947052,0.2892761-3.9721909,0.4553375-5.9573212c0.3626099-4.3347549,1.2131653-8.5871201,2.149353-12.817894
		c0.8439941-3.8140488,1.5385284-7.6308136,1.7847443-11.5395279c0.1447144-2.2972641,0.5410156-4.589325,1.1507721-6.817276
		c0.4149933-1.5162659,0.8182831-3.0945129,2.3850861-3.9533691c0.2324982-0.1274338,0.4232941-0.3752823,0.5703278-0.6073532
		c1.3879395-2.1905594,2.6899567-4.4325943,3.5136261-6.904068c0.6786041-2.0362701,1.0657043-4.1620789,1.8468475-6.1711197
		c0.123291-0.3170853,0.1201935-0.6832962,0.1908264-1.1215782c-0.4678802,0-0.8628845-0.000515-1.2579193,0.0000954
		c-2.159317,0.0033035-4.318634,0.0099182-6.4779663,0.0099373c-52.030014,0.0005722-104.0600433,0.0004272-156.0900574,0.0006981
		c-0.3998985,0.0000076-0.799942-0.0017242-1.1996384,0.0083771c-0.206028,0.0051994-0.4554214,0.0593185-0.4400444,0.3001747
		c0.0557251,0.8729248-0.3682022,1.7217827-0.129818,2.5968056c1.0713196,3.9323654,2.2496605,7.8194809,4.7260437,11.1580811
		c0.5660515,0.7631378,0.7961044,1.7881699,1.3479805,2.4547882c0.7259026,0.8768311,1.0524712,1.9006882,1.101059,2.8070831
		c0.1114845,2.0798187,0.6373596,4.0662003,0.9956169,6.083519c0.5513496,3.1046371,1.1000977,6.1980209,1.0624313,9.3649063
		c-0.0042648,0.3587112,0.0008888,0.7106705,0.1587677,1.0551682c0.4574814,0.9982529,0.6027756,2.0563507,0.5765877,3.1493912
		c-0.0113525,0.4740219-0.0729637,0.9625854,0.1472855,1.4164581c-0.4051247,1.302681,0.0411148,2.5927658,0.0520401,3.8890839
		c0.0075035,0.8905182,0.1926537,1.7150879,0.7022362,2.4545898c0.4936447,1.6815033,0.6315918,3.3953018,0.4664764,5.1366272
		c-0.2899208,0.3457565-0.2044754,0.7463608-0.1797447,1.1445618c0.0743141,1.1966782,0.2209396,2.3967361,0.1844139,3.5907364
		c-0.0686188,2.2433014-0.5144348,2.2649231-2.184597,2.3620529c-1.4398155,0.0837326-2.8556747,0.311203-4.2817078,0.4868011
		c-4.2269783,0.5205078-8.4545155,0.3490372-12.6797085-0.0647888c-4.6149426-0.4520035-9.2101307-1.0552826-13.7885561-1.7865219
		c-4.2459574-0.6781387-8.4788256-1.4260788-12.6582422-2.4491348c-0.3498842-0.2352448-0.5338401-0.5348053-0.4746091-0.9836349
		c0.0459985-0.3485413,0.0227555-0.7062225,0.0302896-1.059845c0.0562487-0.3940659,0.0982331-0.7907791,0.1710286-1.1817627
		c0.5306811-2.8503342,1.0910586-5.6953583,1.5965388-8.5501175c0.6339207-3.580162,1.0325942-7.1979752,1.7182286-10.7711029
		c0.781491-4.0726624,1.7163527-8.109726,2.7741468-12.1176758c1.2071795-4.5739899,1.4874315-9.303688,2.3939571-13.9285126
		c1.1235552-5.7320442,2.6805077-11.3250999,5.1238966-16.6462898c1.6041431-3.4934959,3.5794506-6.7517815,5.9642925-9.7840042
		c3.0457745-3.8725777,6.8937683-6.8772202,10.5602741-10.0835686c0.2636356-0.2305489,0.5979595-0.3987389,0.9246159-0.5359383
		c3.9320736-1.6514931,7.6850834-3.7014294,11.6716862-5.2319088c3.0888939-1.1858482,6.094162-2.5809517,9.2121391-3.6948547
		c1.0021095,0.1147747,1.9755325-0.2036209,2.9787941-0.1769772c1.7091942,0.0453873,3.4245377,0.1906891,5.1219215,0.1835251
		c15.0148048-0.063364,30.0321312,0.3375149,45.044323-0.2010612c0.2171478-0.0077915,0.4978867,0.1400814,0.6577606-0.1886044
		c-0.1239853-0.0193081-0.2386093-0.0509567-0.353775-0.0531139c-6.1009293-0.1143208-12.2017746-0.0422287-18.305542-0.1735668
		c-10.6273117-0.2286739-21.2631149-0.0614777-31.8953438-0.0708675c-0.4644775-0.0004101-0.9629974,0.1517849-1.3915558-0.176609
		c0.7274818-0.3148136,1.4574356-0.6240616,2.182045-0.9453545c4.6011391-2.040163,9.2682076-3.9390068,13.6837196-6.3774805
		c3.2902374,0.2753649,13.0874939,0.14575,14.1191559-0.2933598c-2.3140945-0.2903023-4.414772,0.0918074-6.4658127-0.2089434
		c-2.1480637-0.3149757-4.2974014-0.013833-6.4394913-0.188139c0.4804077-0.4440002,1.0464706-0.7423697,1.652916-0.9720612
		c0.994812,0.0180559,1.9972763-0.0350657,2.9826508,0.070776c1.4949112,0.1605692,2.9682159-0.3760929,4.457634-0.0705957
		c0.1517715,0.0311308,0.2263412-0.0885468,0.2435913-0.1964674c0.0236435-0.1478252,0.0586929-0.3596964-0.1396713-0.4031897
		c-0.2665863-0.0584564-0.546814-0.0720024-0.8213959-0.0739126c-1.4914551-0.0103817-2.9830322-0.0049601-4.4744186-0.0200577
		c-0.3483963-0.0035276-0.7213745,0.1080465-1.0377655-0.1457453c1.3464508-0.920639,2.7344589-1.7526484,3.8478394-3.013999
		c0.8466949-0.95924,2.0551758-1.5266457,3.3967743-1.5782957c0.4498444-0.0173173,0.7351837-0.2531123,1.0492172-0.4931993
		c1.6961746-1.2967777,3.1155853-2.8669024,4.4415894-4.5252376c0.4889069-0.6114531,1.0928726-1.0117661,1.8080063-1.3287376
		c1.6071472-0.7123413,3.3083496-0.8791729,5.0240631-1.0178871c2.6377106-0.2132563,5.2761154-0.0314729,7.9142838-0.0326791
		c7.5590973-0.0034561,15.1180573-0.0767201,22.6772766,0.0307356c3.8389511,0.0545714,7.6794052,0.0748007,11.5172043-0.0785242
		c0.4118805-0.0164548,0.8944244,0.1493491,1.226944-0.2742323c1.5200043,0,3.0400085,0,4.5600128,0
		c-0.0990448,0.3059978,0.1342621,0.3061877,0.3197327,0.3414569c0.8216095,0.1562188,1.6446533,0.3049091,2.4656982,0.4640557
		c1.7449799,0.3382448,3.2127075,1.1304345,4.3119507,2.5689805c0.9490509,1.2419894,2.1187897,2.2668402,3.2976074,3.2863157
		c0.5943756,0.5140347,1.2250366,0.8596463,1.9997406,0.9500508c1.3255005,0.1546822,2.4709167,0.7467995,3.3041382,1.7401648
		c1.2153473,1.4488707,2.8182678,2.3151951,4.3922729,3.2422228c0.8219757,0.4840984,1.674118,0.9169998,2.512619,1.3730221
		c-0.3385773,0.3052311-0.7532196,0.1710358-1.1364594,0.1830778c-0.6721039,0.0211201-1.3452759,0.0053434-2.017868,0.0141211
		c-0.2457581,0.0032053-0.492157,0.040597-0.4721985,0.3771744c0.0144501,0.2431602,0.1880646,0.3393106,0.4022217,0.3283548
		c1.4477081-0.0740662,2.9189606,0.265132,4.3419952-0.2435617c1.6827393,0.6410656,3.1976013,1.6176424,4.8070679,2.4047956
		c5.157608,2.5224648,10.4103088,4.829855,15.721283,7.0110264c3.7590942,1.5438366,7.5732269,2.9629993,11.2096405,4.7950706
		c-0.2915039,0.3122864-0.6730499,0.1870022-1.0183868,0.1929951c-0.9981995,0.0173264-1.9969177,0.0042515-2.9952087,0.0182552
		c-0.2108459,0.0029564-0.5138245-0.071909-0.4948578,0.3550491c0.312088,0.1984501,0.6758728,0.119606,1.0214691,0.1224346
		c1.0782623,0.0088234,2.1566467,0.0092411,3.2349396,0.0036125c0.5332947-0.0027847,1.0695801,0.3166256,1.6000061-0.0124245
		c0.5118713,0.2575645,1.0237427,0.5151272,1.535614,0.7726917c-0.6699066,0.8094139-1.6534119,0.2708378-2.636734,0.6401005
		c1.4555817,0,2.717804,0,3.9800415,0c0.1746979,0.0100517,0.33638,0.0480499,0.4421082,0.2060776
		c-3.6973114,0.1711807-7.4064636-0.0610657-11.27211,0.1367569c0.3801117,0.5234203,0.7160492,0.4197693,1.0079956,0.4204903
		c1.996582,0.0049267,3.9933167,0.011076,5.9897919-0.0067673c2.1086121-0.0188408,4.2000427,0.2046909,6.2940674,0.4002972
		c0.5301666,0.1467133,0.8686066,0.5568504,1.2297516,0.9228096c0.9835052,0.9966049,2.0280151,1.9235764,3.0921631,2.832756
		c4.9880524,4.2616882,8.8561401,9.3771324,11.6857452,15.2955132c3.5413361,7.406929,5.413559,15.2778549,6.5404358,23.3549728
		c0.5569763,3.9922104,0.941925,8.0067978,1.7174072,11.9699478c0.9048462,4.6243591,1.4155426,9.311554,2.0970917,13.9712296
		c0.4443359,3.037735,0.9447021,6.0636292,1.530426,9.0763474c-0.0506592,0.2241974-0.0894928,0.4451675,0.1599274,0.5877075
		c0.0282593,0.2007828,0.0565186,0.4015656,0.0847778,0.6023483c-0.0385132,0.39534-0.2043304,0.8158493,0.221344,1.1194
		l-0.0005035-0.0011063c-0.0280762,0.2595291-0.0776062,0.5247498,0.1875916,0.706398
		c0.0119324,0.1793594,0.0238647,0.3587265,0.0357819,0.5380859c-0.2575378,0.4352264-0.089859,0.7919998,0.2075195,1.1248474
		c0.0257263,0.105484,0.0514374,0.2109756,0.0771637,0.3164597c0.0241852,0.8912277,0.0702667,1.7789078,0.4252014,2.616394
		c0,0.8799973,0,1.7600021,0,2.6399994c-2.8760681,0.641716-5.7501068,1.2873001-8.6632843,1.7524261
		c-4.2169495,0.6732941-8.4530029,1.1695938-12.6978302,1.6344833c-4.4255066,0.4846573-8.8531952,0.458786-13.2861786,0.4384995
		c-2.6639099-0.0121918-5.2358856-0.4740982-7.5510559-1.8944702c-0.470047-0.2883759-0.9935913-0.2702942-1.4920044-0.3933792
		c-1.0516357-0.2597122-1.1439362-0.3665543-1.2512054-1.5504837c0.1372681-0.7399521,0.0789795-1.4715881-0.0659943-2.2077103
		c-0.0404358,0.7573929-0.4657898,1.4520111-0.3141174,2.2214127c-0.1074677,1.0486679-0.21492,2.0973282-0.3223877,3.1459961
		c-0.3072357,0.5904083-0.8599854,0.446106-1.3580475,0.4462662c-7.5958405,0.0026093-15.1916656-0.000412-22.7874756,0.0096054
		c-0.4776001,0.0006332-0.9936218-0.1227798-1.6066284,0.2266617c0.5268097,0.3613281,0.965271,0.2582321,1.3683319,0.2586899
		c6.1161957,0.0067368,12.2323914,0.0055771,18.3485718,0.0050049c1.6788788-0.0001602,3.3582916,0.019043,5.0363007-0.0203171
		c0.5484161-0.0128479,0.8301086,0.1317368,0.8203888,0.6988907c-0.2539215,3.7560196-0.5078278,7.5120468-0.7617493,11.2680588
		c-1.4414368,0.1687012-2.8520813,0.3890839-4.3406982,0.3352051c-4.1710968-0.1509552-8.3510132-0.056366-12.5274658-0.0615845
		c-2.636734-0.0032806-5.273468-0.0164337-7.910202-0.0170135c-5.6335449-0.0012512-11.2671204,0.0043945-16.9006805,0.0029297
		c-0.8379059-0.0002289-1.7073364,0.1165619-2.5075989-0.0634766c-2.1282349-0.478775-4.2510834-0.0438995-6.3626862-0.0177307
		c-2.2127075,0.0274048-4.4357605,0.1592712-6.6434631,0.0393219c-0.8171692-0.0444031-1.6505508-0.1611023-2.4807129-0.1731873
		c-1.1590958-0.0168915-2.3207169-0.0462646-3.4771118,0.0120697c-0.6160812,0.0310516-1.1417313-0.3597565-1.7558975-0.2481537
		c-2.1527863,0.3911743-4.3263626,0.4954224-6.5105438,0.4699249c-1.3989944-0.0163269-2.7984543-0.0086517-4.1974792,0.0073242
		c-0.2360992,0.0026703-0.5987015-0.1331635-0.6190796,0.3240051c0.2369537,0.2144012,0.5275955,0.1621552,0.7992554,0.1625061
		c1.9481125,0.0025482,3.8982162-0.0575562,5.8436584,0.0132141c1.2839584,0.0467072,2.5473557-0.4693604,3.7906265-0.2273254
		c1.3953476,0.2716217,2.7766647,0.1776428,4.1631851,0.1895752c1.4049149,0.0121155,2.7984543,0.17276,4.1966476,0.2220001
		c1.1434631,0.0402679,2.303421,0.1946259,3.4495087-0.1386261c0.4070587-0.1183472,0.9067383-0.1455383,1.3042603-0.0218811
		c0.8286133,0.2578125,1.6633148,0.1170044,2.4890137,0.2012482c1.0473633,0.1068726,2.0424042-0.2756805,3.0818787-0.2394867
		c2.3495178,0.0817413,4.7073212,0.082962,7.0510101,0.0867462c1.5998688,0.0025787,3.2313843,0.082962,4.8570862-0.0662537
		c2.020401-0.1854858,4.0725708-0.0000763,6.1103973-0.0253906c3.7284546-0.0462952,7.4550934,0.1201172,11.1851654,0.0188293
		c2.9550018-0.0802307,5.9207764-0.1234131,8.8687592,0.0448456c1.5444183,0.08815,3.0770111-0.0605927,4.6214294,0.0217438
		C183.7233429,136.9682922,185.213501,136.8003998,186.6882477,136.8193207z M180.7120361,41.0313072
		c0.5731812,0.1347313,1.0856323-0.2005882,1.6445465-0.2068329c4.0249481-0.0449524,8.0520477,0.081234,12.0730896-0.2487984
		c2.5473785-0.2090797,5.0809326,0.2659035,7.62677,0.2758064c0.1231232,0.0004845,0.1375427,0.0764198-0.1098328,0.1826935
		c-2.6003723,0-5.3547516-0.0127182-8.1089783,0.003582c-2.75,0.0162773-5.504303-0.0857048-8.2573853,0.1831093
		c0.3039703,0.4161148,0.7116699,0.2991409,1.0746155,0.3003616c3.4782562,0.0116615,6.9573212,0.0545464,10.4346008-0.0037231
		c2.2218933-0.0372429,4.4808197,0.3299255,6.6560669-0.4696198c0.2250671-0.0827217,0.4913483-0.0489159,0.4824219-0.3801918
		c-0.0089722-0.3336029-0.2625732-0.3448143-0.5092621-0.3459892c-1.8281555-0.0086899-3.6587372-0.1951027-5.4749603-0.1959724
		c-4.9439087-0.0023727-9.8875885-0.1976662-14.8375092,0.1488457c-3.300766,0.2310524-6.6320343,0.0274811-9.949646,0.0152817
		c-0.2386475-0.0008812-0.4796448-0.010746-0.7154083-0.0449448c-1.7403412-0.2524986-3.466156-0.1807938-5.2177429,0.000927
		c-1.5811157,0.164032-3.2231598,0.2268143-4.7815704-0.0217438c-1.3856812-0.2210159-2.6592865,0.0531044-3.9781647,0.2045517
		c-0.0214233,0.0024605-0.0277557,0.1362534-0.0422821,0.210556c0.0602417,0.0451431,0.1240845,0.1337776,0.1801758,0.1291161
		c1.7770538-0.147686,3.5467682,0.4131203,5.3250732,0.0549393c0.5710297-0.1150169,1.0954437,0.1295967,1.6404419,0.2145195
		c0.8852997,0.1379623,1.7214813-0.233696,2.6027222-0.2275238c3.7176819,0.0260506,7.4356995,0.0011902,11.1535492,0.0137711
		c0.3705444,0.001255,0.8086853-0.1909027,1.1056366,0.2250557c-2.1372375-0.0665169-2.1372375-0.0665169-2.6164551,0.3606987
		c0.7594299,0.2114029,1.5036621,0.0875664,2.2382202,0.1033134
		C180.6728668,41.5200081,180.7114563,41.282238,180.7120361,41.0313072z M201.2137604,45.4620781
		c-0.0737305-0.2966652-0.3361053-0.2787971-0.5597382-0.3449173c-2.2068176-0.6525154-4.483429-0.1479645-6.7253265-0.4083214
		c-1.9718628-0.2289925-3.9893341-0.0664024-5.9866486-0.0742302c-0.6748962-0.0026474-1.342926,0.0904579-2.0110779,0.1479073
		c-1.5478668,0.1330986-3.1389923,0.2502975-4.6647949,0.0351181c-2.1153564-0.298317-4.2178497-0.1577988-6.3183594-0.1249199
		c-0.8180084,0.0128059-1.6335449,0.2519569-2.4365387-0.0598183c-0.747467-0.2902031-1.4497681-0.3377342-2.1525116,0.1336174
		c-0.3123932,0.2095413-0.7026825,0.086277-1.0581512,0.1033363c-1.5522919,0.0744972-3.0775604-0.3679619-4.6355591-0.2363205
		c-0.5362854,0.045311-1.0147705,0.1374969-1.536087,0.3516502c-0.4453125,0.1829224-1.1229706-0.2213287-1.7037506-0.335968
		c-0.2321625-0.0458183-0.4675751,0.0781593-0.6970367,0.10952c-1.1027222,0.150692-2.2164764,0.2420425-3.3128662-0.0279388
		c-0.321106-0.0790672-0.6358795-0.1292496-0.9413452-0.0597839c-1.8147888,0.4127045-3.6767426,0.3295593-5.468277,0.1288223
		c-1.9125977-0.2143021-3.7692871-0.0327873-5.6538696,0.0460205c-1.5154266,0.0633698-3.0587616,0.1662865-4.5484314-0.0426254
		c-1.8165741-0.2547607-3.5965271-0.0761528-5.4047546-0.0916443c0.1155396,0.9202156,0.6076355,1.1116447,1.4100189,1.1537056
		c2.0146179,0.105629,4.0099335-0.2345619,6.0363464-0.0666389c2.1831207,0.1809044,4.3934326,0.0127411,6.5904999,0.060276
		c0.5665436,0.0122566,1.0870056-0.3030472,1.634903-0.1676292c1.40065,0.34618,2.8604279-0.067688,4.2566833,0.3597717
		c0.2449493,0.0749855,0.5498352-0.020916,0.8225403-0.0654793c1.8473358-0.3018417,3.7402954-0.3204346,5.5746307-0.2804298
		c1.718399,0.0374756,3.4560547-0.0674324,5.1800537,0.1200142c1.5335999,0.1667519,3.0771332-0.0294838,4.6162262-0.0334473
		c2.9954376-0.0077209,5.9757538,0.2946777,8.9676361,0.2892189c2.4678802-0.0045052,4.9314575-0.086937,7.3983612-0.1855545
		c4.3044128-0.1720734,8.620575,0.0265465,12.9244385-0.2944756
		C200.9514923,45.5904312,201.1218262,45.6470947,201.2137604,45.4620781z M192.173645,27.9582787
		c0.0394897-0.2797985-0.0870209-0.3161755-0.1941833-0.3392982c-1.9863739-0.4285622-4.0131531-0.3935184-6.0245056-0.4296017
		c-0.4710388-0.0084515-1.0090637,0.1638489-1.5207825,0.1710663c-6.0648346,0.0855236-12.1332397-0.1995468-18.1955566,0.1936817
		c-1.4695587,0.0953217-2.9361725-0.1684914-4.3981476-0.1767731c-8.4328156-0.0477867-16.866272,0.0152283-25.2990417-0.0367546
		c-3.6296844-0.0223713-7.243988,0.4247913-10.8745575,0.2570019c-0.2084045-0.0096321-0.4935379-0.0768528-0.5941086,0.4799805
		c7.4773331,0.044817,14.9146347,0.0004997,22.3512497,0.009161c7.5137787,0.0087509,15.0276031-0.0016556,22.5414124-0.0029068
		C177.3747864,28.0826015,184.7849426,28.1553097,192.173645,27.9582787z M203.9294891,37.0112877
		c-1.4742737-0.5692978-17.4351349-0.7398071-18.729599-0.2277794c1.3936615,0.4066124,2.7150726,0.0397873,3.9751892,0.3261795
		c-2.7166443,0.0736656-5.4324799,0.2369576-8.1372375,0.2250214c-1.1774139-0.0051918-2.4075928-0.0354347-3.601944-0.0840073
		c-3.6721649-0.1493301-7.3547363-0.082756-11.0323334-0.0322113c-0.9576569,0.0131607-1.9762573,0.2305946-2.875946,0.1241531
		c-1.3983765-0.1654434-2.7796173-0.0555115-4.164032-0.1416512c-0.2379913-0.0148048-0.4819183-0.0077553-0.71698,0.0286789
		c-0.1747894,0.0270958-0.2417755,0.1776047-0.2327881,0.3565292c0.0095825,0.1907806,0.1591187,0.3595047,0.2865906,0.2754631
		c0.6036072-0.3979836,1.1584625,0.1045418,1.7268829,0.0493813c2.5952911-0.251873,5.1756287,0.1910706,7.7842407,0.0662575
		c4.3076019-0.2061043,8.6335144,0.0052032,12.9501953-0.0595512c2.5454559-0.0381889,5.1038361,0.2587242,7.6387329-0.2081451
		c0.1127014-0.020752,0.3019867-0.0276451,0.3445892,0.0347748c0.4616547,0.676281,0.9553375,0.2867928,1.4372101,0.0561409
		c0.3448181-0.1650505,0.7041168-0.1091499,1.0603943-0.1097488c2.398819-0.004055,4.7976685-0.0024033,7.1964417-0.010891
		c0.3537445-0.0012512,0.7618713,0.1205711,1.0447083-0.139267c0.4439697-0.4078598,0.9606628-0.3043289,1.4705505-0.3327713
		C202.2123718,37.1599808,203.0854797,37.335968,203.9294891,37.0112877z M179.3334503,23.0882549
		c-0.6441193-0.5136719-1.2859955-0.5383015-1.9496155-0.5309391c-13.9336548,0.1545925-27.8698273-0.2747593-41.8032074,0.2106113
		c-2.2561646,0.0785923-4.5223236,0.1296997-6.7965698-0.1654797c-1.7685318-0.2295361-3.5910492-0.0438118-5.3895721-0.040741
		c-0.1594925,0.0002708-0.3215637-0.0005035-0.4777298,0.0265331c-0.1783218,0.0308723-0.2616577,0.1644707-0.2576218,0.3409271
		c0.0040207,0.1761246,0.0937119,0.3144417,0.2720947,0.3281307c0.3180161,0.0244102,0.6383667,0.0251923,0.9577179,0.0245476
		c5.7442474-0.0116005,11.4884644,0.0457916,17.2309875-0.210638c1.9434967-0.0867863,3.8988495,0.1522083,5.8379211,0.1699238
		c10.3905945,0.0949192,20.782486,0.0484352,31.1739197,0.0444489
		C178.4995728,23.2854385,178.9011536,23.3788147,179.3334503,23.0882549z M133.2550812,40.6468353
		c2.2464905-0.0361748,4.4403839,0.4714584,6.6584625,0.3657379c0.6196289-0.0295334,1.230835-0.2334328,1.8776093-0.2004662
		c1.9185791,0.0977974,3.8388062,0.194458,5.7592316,0.2154007c1.7465057,0.019043,3.4803314-0.2993393,5.2377319-0.2165756
		c1.39505,0.0657043,2.7964478,0.0064964,4.1947174-0.016552c0.2355957-0.0038834,0.5929413,0.1326065,0.6310883-0.3077965
		c-0.1697998-0.2575874-0.4299927-0.1803398-0.6537476-0.1819916c-1.5581512-0.0114975-3.1166534-0.0296593-4.6745148-0.0082092
		c-0.8777618,0.012085-1.7160034-0.332695-2.6035919-0.2223015c-0.6650848,0.0827103-1.302063,0.2857361-1.999115,0.2483559
		c-2.5031433-0.134243-5.0094604,0.0730972-7.5209656-0.2047882c-1.7369537-0.1921844-3.5123444-0.0347214-5.2705536-0.038311
		C134.3023071,40.0781364,133.7758484,40.2811813,133.2550812,40.6468353z M159.3395996,148.99086
		c-1.2613831-0.3457031-23.4268494-0.2742157-24.3875122,0.1658325c1.0352936,0.1390533,1.8652344,0.2942657,2.7020264,0.3545685
		c2.3470001,0.1691742,4.6835175-0.1569061,7.0266724-0.2136688c1.0065765-0.0243683,1.9703674,0.2178497,2.9685364,0.2449799
		c2.7124329,0.0737762,5.4064178-0.3256378,8.1170044-0.2331085c0.9572296,0.0326691,1.9174194-0.0121918,2.8759308-0.0343323
		C158.8628235,149.2700653,159.1251068,149.3594666,159.3395996,148.99086z M102.3459015,123.617157
		c-0.0015182,0.0933685-0.0030518,0.1867371-0.0045776,0.2800903c0.0494156,0.0529175,0.0986938,0.1520538,0.148262,0.1521988
		c8.9545746,0.0254745,17.9091721,0.0442429,26.8637619,0.0603714c0.19487,0.000351,0.4020844,0.0369415,0.5760803-0.0973434
		c0.0289154-0.0223236,0.0589905-0.0498886,0.0743713-0.0818405c0.0693512-0.1441422-0.1376038-0.0394058,0.0011749-0.2268143
		C120.7854309,123.5583572,111.5656281,123.6232529,102.3459015,123.617157z M134.1813965,146.5150909
		c-0.3885498-0.5875092-0.8409882-0.6201477-1.3301697-0.6004639c-3.5511322,0.1429291-7.0902557-0.2734375-10.639389-0.2357788
		c-0.1198654,0.0012817-0.2524109,0.0307465-0.3577805-0.0091095c-1.3744278-0.5200958-2.738945,0.2753296-4.1112976,0.0273895
		c-0.1523895-0.0275116-0.3225098,0.0328217-0.3381271,0.2404633c-0.0136795,0.1818542,0.1102982,0.3096924,0.246376,0.3726501
		c0.3779297,0.1748657,0.8049393,0.1486053,1.1803207,0.0727386c1.023613-0.2067871,2.026474-0.0468597,3.0457382-0.0277863
		c3.5188217,0.0658112,7.0304794,0.4227295,10.553154,0.2822113
		C132.976944,146.6155853,133.5357819,146.7287903,134.1813965,146.5150909z M114.9569702,37.4482002
		c0.4209595,0.4666977,0.9661942,0.6222496,1.4851379,0.4182701c0.5535812-0.2175941,1.0947266-0.1964912,1.6409836-0.1768188
		c2.0634308,0.0742912,4.1229401-0.0183487,6.19487,0.1802444c2.2519379,0.2158508,4.5404739,0.0514221,6.8130569,0.0467415
		c0.1961212-0.0004044,0.4088593-0.0070229,0.5835724-0.0816727c0.1794128-0.0766678,0.3412323-0.2603302,0.2546692-0.4755859
		c-0.0610046-0.151638-0.2560577-0.141922-0.4212952-0.1399155c-1.5401306,0.0187454-3.0714874,0.0937119-4.6223602,0.0318985
		c-3.4742889-0.1384735-6.9617844-0.1608849-10.4400253-0.0090561
		C115.9909821,37.2621498,115.4391251,36.9185333,114.9569702,37.4482002z M96.190033,37.6815605
		c0.4798737,0.3663025,0.8919525,0.2434616,1.2676544,0.2315292c1.9058762-0.0605125,3.8312759-0.1431618,5.715538-0.0929451
		c2.4280701,0.0647011,4.8587341,0.0000725,7.2859192,0.092289c0.2252579,0.0085564,0.6022263,0.1446075,0.5991821-0.3347511
		c-1.1040497-0.4095497-2.2996674-0.6096916-3.3832779-0.3219147c-1.1610641,0.308342-2.3082504,0.106781-3.384201,0.0445099
		c-2.1954727-0.1270561-4.3842087-0.0003014-6.5720596-0.1043434C97.1926727,37.1709099,96.7219162,37.3224907,96.190033,37.6815605
		z M98.9552155,146.1648712c0.0438232,0.2762604,0.2728119,0.2531891,0.4543686,0.2548218
		c2.1472397,0.0193176,4.2925949-0.0133514,6.4376602,0.2027435c1.5447769,0.1556396,3.0799255-0.3190002,4.6398163-0.213974
		c0.8749161,0.0589142,1.757431,0.0128632,2.6362915-0.0009766c0.2121811-0.0033264,0.4905548,0.0701447,0.559433-0.2654724
		C112.5347366,145.7472076,99.9318924,145.7661133,98.9552155,146.1648712z M160.2445526,123.894249
		c-1.0604858-0.4229431-11.2911682-0.3804779-12.0828094,0.0546112
		C152.1881256,124.1570969,156.2143402,124.3961945,160.2445526,123.894249z M155.5311584,15.1177006
		c1.0757904,0,2.1516113,0.0028782,3.2273865-0.0019894c0.2748108-0.0012426,0.6036072,0.0300083,0.5676117-0.3999834
		c-0.0279694-0.3339405-0.3052673-0.3106318-0.5378265-0.3112688c-2.0718994-0.005681-4.1437988-0.0094662-6.2157135-0.0060053
		c-0.2621765,0.0004368-0.6113434-0.0682812-0.627182,0.346879c-0.0162048,0.4248514,0.3283691,0.3706598,0.5973358,0.3721533
		C153.5388794,15.1230211,154.5350189,15.119689,155.5311584,15.1177006z M148.7871857,37.9160194
		c0,0.0011024,0,0.0022011,0,0.0033035c0.5571136,0,1.1149139,0.0162354,1.6710052-0.0075302
		c0.2420197-0.0103416,0.6381683,0.1573486,0.6624451-0.2602348c0.0184631-0.3174477-0.2847748-0.4447746-0.5899811-0.4455452
		c-1.2335205-0.0031281-2.467041-0.0028343-3.7005768,0.001545c-0.2080536,0.0007401-0.4038696,0.0611229-0.4180756,0.3136215
		c-0.0180817,0.3211136,0.2043457,0.3924828,0.4651184,0.3937988
		C147.5137939,37.9181862,148.1504974,37.9160194,148.7871857,37.9160194z M134.6994019,146.1381378
		c1.3408203,0.4853516,2.7088318,0.5559082,4.0893097,0.493927c0.217926-0.0097809,0.4026794-0.0898895,0.4025421-0.3315582
		c-0.0000916-0.165451-0.1289215-0.3048706-0.3011169-0.3135376
		C137.4926147,145.9165955,136.0933228,145.8225861,134.6994019,146.1381378z M137.9289703,37.6174927
		c-1.4612427-0.1345139-2.9033966-0.3181381-4.3531342-0.4132576c-0.270462-0.017746-0.6190338-0.0333061-0.6030273,0.3735771
		c0.0159912,0.4060364,0.3733521,0.3348846,0.6361542,0.3377647c0.8357697,0.0091667,1.6721802,0.0211411,2.5073853-0.0018463
		C136.7200012,37.8971138,137.3458252,38.0280724,137.9289703,37.6174927z M152.5597839,146.1588745
		c-1.549118-0.2411804-3.0979309-0.2775879-4.6463013-0.0007935
		C149.4609222,146.4403381,151.010376,146.4255981,152.5597839,146.1588745z M108.1644669,136.4820099
		c-1.2357788-0.1911926-2.4632721-0.227417-3.6851425,0.0091705
		C105.6869888,136.983551,106.9750366,136.99823,108.1644669,136.4820099z M156.7322388,146.3229523
		c-0.6649933-0.5366058-2.8264771-0.5591278-3.6724701,0C154.3513489,146.3229523,155.5075378,146.3229523,156.7322388,146.3229523z
		 M177.4346161,36.7442207c0.9143372,0.227417,1.8275757,0.334774,2.7262268-0.0650558
		C179.2510529,36.4819679,178.3432159,36.3576851,177.4346161,36.7442207z M178.3909149,145.4835358
		c0.9105988,0.1386566,1.8250427,0.3689117,2.7299042-0.0706177
		C180.2137604,145.1682281,179.3047485,145.1034393,178.3909149,145.4835358z M139.6157227,37.3731232
		c0.5183105,0.7934151,1.1859131,0.507019,1.7641754,0.500267c0.1557465-0.001812,0.2140961-0.2020149,0.1910706-0.3738098
		c-0.0243073-0.1815872-0.1333771-0.282196-0.3105621-0.2821541
		C140.7584991,37.2175331,140.2466431,37.0965385,139.6157227,37.3731232z M142.9558716,146.1415558
		c0.0436707-0.0811005-0.083252-0.1455383-0.1713715-0.208725c-0.4897461-0.3512573-1.0231781-0.3250275-1.5563507-0.134079
		c-0.073288,0.0262299-0.080368,0.1949463,0.0040283,0.3078461c0.3542938,0.4737396,0.8590851,0.2559052,1.3069,0.2867126
		C142.6855621,146.4033966,142.8530731,146.3928375,142.9558716,146.1415558z M142.917099,37.1938705
		c-0.2663422,0.0923615-0.7577209-0.1827545-0.7643127,0.2839851c-0.006546,0.4616623,0.4774628,0.4507332,0.8278351,0.4352264
		c0.2820129-0.0124817,0.7415619,0.1511078,0.7465363-0.3273849
		C143.733078,37.0205956,143.2196503,37.2722321,142.917099,37.1938705z M124.4799347,144.9018555
		c-0.5087662-0.7831116-0.7040863-0.795517-2.2155457-0.0496826
		C123.1244583,145.0134125,123.7892151,145.0003357,124.4799347,144.9018555z M178.394455,144.7086029
		c0.7619171,0.3143768,1.5136566,0.3469086,2.2479401,0.0040741
		C179.8890228,144.4056854,179.1405487,144.416748,178.394455,144.7086029z M145.7843018,146.1390076
		c-0.63414-0.3401031-1.1176147-0.1834412-1.5812378-0.2176971c-0.269043-0.0198822-0.4702759,0.0990143-0.4228668,0.4167175
		c0.0497437,0.3334808,0.3399048,0.3402557,0.5503998,0.2841492
		C144.7642517,146.5065613,145.2405548,146.4895325,145.7843018,146.1390076z M138.4867554,123.5665054
		c-0.1596832,0.1956711-0.707962-0.1876068-0.6461792,0.3571014c0.0482788,0.4255219,0.5125275,0.4161301,0.8718872,0.3914871
		c0.286438-0.0196228,0.7459564,0.1110992,0.6996613-0.3690338
		C139.3619995,123.4259338,138.8479767,123.7002029,138.4867554,123.5665054z M185.4415894,131.9732666
		c-0.676651-0.1678619-1.3619537-0.4330597-2.0101471,0.1280518
		C184.1042633,132.2233582,184.7738037,132.3500519,185.4415894,131.9732666z M141.2417603,60.9977722
		c-1.1006012-0.5132256-1.1006012-0.5132256-1.7666779,0.0165558
		C140.0160522,61.2099037,140.4933167,61.1805458,141.2417603,60.9977722z M156.0769806,37.6743126
		c0.6769714,0.2994537,1.3485107,0.3786087,2.2680206-0.0591316
		C157.4088135,37.3762283,156.7382965,37.3388901,156.0769806,37.6743126z M109.9551239,136.595932
		c-0.3459091-0.3530579-0.6608734-0.5341797-1.0748901-0.5093536c-0.2207642,0.0132446-0.3729095,0.0966339-0.3827438,0.337677
		c-0.0097961,0.2397003,0.1274796,0.364212,0.3521652,0.3603973
		C109.1873703,136.7789459,109.544075,136.8979645,109.9551239,136.595932z M90.5521088,146.1855469
		c0.5304947,0.2143555,1.062149,0.3659058,1.7252808-0.0757599
		C91.5684738,145.8636322,91.0546646,145.8440552,90.5521088,146.1855469z M141.1932068,168.9819031
		c0.5287476,0.2049561,1.0624237,0.3725433,1.7187805-0.0750122
		C142.2111664,168.6472626,141.6973572,168.6217804,141.1932068,168.9819031z M159.3252563,146.143631
		c-0.7980499-0.2706451-1.3150024-0.3708344-1.9874268,0.0859222
		C158.0396423,146.4639435,158.5545349,146.5157166,159.3252563,146.143631z M165.5253601,35.9683189
		c-0.5196075-0.1607742-1.0425262-0.3992004-1.533371,0.1151924
		C164.511261,36.2365608,165.0290222,36.3541298,165.5253601,35.9683189z M87.4379959,37.7353096
		c0.5232925,0.1989632,1.0437622,0.3023682,1.668808-0.0375977C88.2005615,37.383606,88.2005615,37.383606,87.4379959,37.7353096z
		 M122.36409,35.9817467c-0.8023605-0.2707176-1.3199768-0.370388-1.9983444,0.0922928
		C121.0738373,36.30196,121.5889282,36.3430061,122.36409,35.9817467z M155.2520599,37.6530876
		c-0.8070068-0.2630997-1.3236389-0.3674583-2.0050049,0.0961723
		C153.9581604,37.9603271,154.4725037,38.0125694,155.2520599,37.6530876z M165.1836548,144.7229462
		c0.4549561,0.2490692,0.9087677,0.4125977,1.5321655-0.1945496
		C166.0507355,144.4978333,165.6150513,144.3829803,165.1836548,144.7229462z M107.8345032,22.5933361
		c0.4526443,0.2237225,0.9013748,0.3432522,1.2917633-0.1042118
		C108.6872635,22.3660183,108.2513962,22.1794777,107.8345032,22.5933361z M153.0564423,37.6791
		c-0.6067352-0.3050804-0.966156-0.3325806-1.4625397-0.0038757C152.0861511,37.9945984,152.446991,37.9702339,153.0564423,37.6791z
		 M107.6294632,36.0109253c0.5761566,0.2780762,0.9432449,0.3772125,1.4095688-0.1141052
		C108.5458145,35.7512703,108.1934586,35.6640244,107.6294632,36.0109253z M93.2935562,37.7174149
		c0.0175781-0.2216263-0.139328-0.2542648-0.2925034-0.2720566c-0.1935577-0.02248-0.4254532-0.041748-0.5264206,0.142746
		c-0.0778275,0.1422081,0.0304718,0.300209,0.2226868,0.3080368C92.9136581,37.9049416,93.1663284,38.0025139,93.2935562,37.7174149
		z M111.2985764,144.6981964c-0.0644836-0.2527313-0.2779617-0.2106781-0.458252-0.2125244
		c-0.1987-0.0020447-0.4359894,0.0374603-0.3596802,0.2985535c0.0612411,0.2095642,0.3136292,0.181076,0.5009003,0.1629639
		C111.1252594,144.9332886,111.3019257,144.9265137,111.2985764,144.6981964z M158.661026,144.4826813
		c-0.1623383,0.0300751-0.4048767-0.0378265-0.4299927,0.2368774c-0.0195465,0.2138977,0.176239,0.2250061,0.3204498,0.2322845
		c0.1840668,0.0093079,0.437561,0.0497589,0.4936218-0.1735382
		C159.1130219,144.507782,158.8651276,144.5022888,158.661026,144.4826813z M158.1013336,35.9541664
		c-0.138092-0.2764587-0.3869781-0.1802673-0.6037598-0.168293c-0.1913757,0.0105782-0.2957306,0.1659927-0.2125702,0.3086128
		c0.1055603,0.1810646,0.3358765,0.1551628,0.5284119,0.1347656
		C157.9717865,36.2124748,158.1150208,36.1642342,158.1013336,35.9541664z M182.4607849,131.7800751
		c-0.1977692,0.0097656-0.2868195,0.1394806-0.2347717,0.3042145c0.0232391,0.0735016,0.1871338,0.1408844,0.288208,0.1423798
		c0.1464386,0.0022125,0.3366852-0.024231,0.3027802-0.2495117
		C182.7870331,131.7780457,182.6212921,131.7726135,182.4607849,131.7800751z M95.8475571,145.9232483
		c-0.1042404,0.0621338-0.3196945,0.0317383-0.2764816,0.26651c0.0358887,0.194931,0.203064,0.1944733,0.3625565,0.1905975
		c0.1337585-0.0032501,0.2264328-0.0692596,0.243721-0.1926422
		C96.2094879,145.9582825,96.0183716,145.9670715,95.8475571,145.9232483z M112.743866,120.5274429
		c-0.1185532,0.0525665-0.1811523,0.1551819-0.1376572,0.2671967c0.0449371,0.1157227,0.1725769,0.1498642,0.2810974,0.0923157
		c0.0508118-0.026947,0.0955887-0.1255569,0.0896988-0.1865234
		C112.96492,120.5754776,112.8798599,120.5053558,112.743866,120.5274429z M155.7163239,37.6678238
		c-0.0236053-0.1251488-0.0825653-0.2204552-0.2248535-0.1796913c-0.0610199,0.0174751-0.1370392,0.0776863-0.1540833,0.1342087
		c-0.0387878,0.128643,0.0394897,0.2176247,0.1642151,0.2397385
		C155.6430511,37.8871651,155.7033386,37.7973785,155.7163239,37.6678238z"></path>
	<path d="M110.6392975,235.9192505c0.4442062-0.0109406,0.5598526,0.2454681,0.4686737,0.6204376
		c-0.0847778,0.3486786-0.3480606,0.2558136-0.5715866,0.16922c-0.6489334-0.2514038-1.2101898-0.2361145-1.9056702,0.0688782
		c-0.6089172,0.2669983-1.4152222,0.1007385-2.1340485,0.0944672c-0.5007324-0.0043488-0.9749146-0.1531982-1.5095444-0.0608063
		c-0.4557953,0.0787354-0.8637314-0.3105774-0.9932709-1.0367432c-0.6029205,1.1422119-1.473938,1.2014618-2.3864899,0.9919434
		c-0.5154114-0.1183472-0.9032211-0.0687256-1.4569397,0.5777435c8.1006241,0.447525,15.9595947,0.0612946,23.8128967,0.2155914
		c-2.5187073-0.7638397-5.2257996-0.0975952-7.7792969-1.0909424c0.4406967-0.5966644,1.1053085-0.0904388,1.5816574-0.4555511
		c-0.4232178-0.5540466-1.136795-0.2082977-1.6292343-0.5244293c-0.1399078-0.0898438-0.3984222,0.1744232-0.3984375,0.3549347
		c-0.0000687,1.0814667-0.8803101,0.7949677-1.4378433,0.8803864c-0.3232651,0.0495605-0.6957703-0.1083679-1.050499,0.0173645
		c-0.2299271,0.0814667-0.439888,0.0033264-0.4206619-0.239624c0.0391693-0.4949951-0.2416687-0.7308655-0.6204071-0.9106293
		c-0.3633194-0.1724396-0.2113037-0.4141083-0.1445389-0.6852264c0.1057205-0.4291534,0.3400269-0.3245697,0.628067-0.2320251
		c0.5082397,0.1632843,1.0350723-0.0105743,1.5434113,0.0365295c0.7312851,0.067749,1.4998016-0.2638397,2.1994858,0.1936798
		c0.0815048,0.0532837,0.255867,0.0637512,0.3312912,0.0122223c1.0773849-0.7357635,2.2129211-0.3005829,3.3437653-0.2163696
		c1.0725174,0.0798798,2.1448212,0.1458282,3.2124252,0.2814789c0.5327835,0.067688,1.0500336,0.0028534,1.4499359-0.3976288
		c0.365242-0.3657532,0.7238388-0.4396362,1.1665421-0.1321259c0.4498215,0.3124542,0.8895111,0.2430878,1.44561,0.1418762
		c1.1375656-0.2070618,2.3321304-0.599884,3.4888382,0.0322723c0.3718567,0.2032318,0.7559357,0.1284637,1.1574707,0.003891
		c0.5200195-0.1613312,1.0506439-0.2976837,1.5950928,0.0262451c0.3392639,0.2018433,0.7491455-0.0462036,1.095993-0.0783844
		c2.9887695-0.2770844,5.9751129-0.0515594,8.9600372-0.063858c8.5478668-0.0352783,17.095932-0.0336304,25.6439362-0.0310211
		c6.6593781,0.0020294,13.3187714,0.0272217,19.9781494,0.0421448c0.3703461,1.502121,0.1854095,3.0059662,0.013916,4.5097656
		c-5.5577698-0.0032349-11.1160278-0.0538025-16.673172,0.0036621c-5.5168762,0.0570374-11.0334625-0.2456665-16.7376404-0.1815338
		c0.4208069,0.697403,0.8780365,0.5904388,1.2878265,0.5983124c3.1858215,0.0611267,6.3713074-0.0285034,9.5580597,0.0020752
		c7.5160675,0.0721741,15.0330658,0.0486603,22.5496826,0.063858c-0.3387146,2.4965668,0.0357513,4.9619598,0.3251038,7.4310608
		c-1.6723175,0.0448608-3.3605957-0.1644745-5.0140533,0.1100464c-1.5936432,0.2646027-3.214386-0.5475006-4.7842255,0.2030792
		c1.1045227,0.3206482,2.2571259,0.2459717,3.3681183,0.3444977c2.1760406,0.1929779,4.3821106,0.0476685,6.5757294,0.0423431
		c0.1186371,1.2892609,0.2171478,2.5788879,0.0763855,3.8732147c-0.955658,0.0031128-1.911377,0.2165985-2.8475037,0.2043152
		c-3.2998962-0.0433502-6.5949554,0.1486206-9.8948975,0.1235199c-1.5288544-0.0116272-3.0592499-0.0473175-4.588974-0.0521545
		c-5.5734253-0.0176544-11.1469269-0.0105438-16.7203979-0.0076752c-4.9613953,0.0025787-9.9230957-0.0203857-14.8840942,0.0269012
		c-5.7062683,0.0543671-11.41745-0.3461761-17.1191711,0.1725311c-0.236351,0.0214996-0.4972534,0.0359955-0.7141724-0.0395813
		c-0.7021179-0.2447205-1.4238434-0.1819611-2.1395798-0.1876831c-4.7783661-0.0379944-9.5564346-0.038147-14.3304672,0.2143402
		c-1.138649,0.0602112-2.2856903-0.1021271-3.4517899,0.0906677c0.2278748,0.3383789,0.5142212,0.4164276,0.8534164,0.4187164
		c3.3862152,0.0226746,6.7777557-0.1312256,10.1536179,0.2432556c0.5595856,0.0620728,0.9470062-0.3479614,1.5412979-0.2949066
		c1.4980774,0.1336823,3.0173416-0.0150604,4.5130997,0.2783813c0.8829041,0.1732025,1.716507-0.2458344,2.5982056-0.2366943
		c5.0593872,0.052536,10.1189957-0.0813599,15.1789169,0.0057526c1.4378357,0.0247192,2.8770752-0.0469971,4.3156586-0.0460663
		c7.355423,0.0048981,14.7108612,0.0122833,22.0662079,0.0424805c0.6073456,0.0025024,1.170105-0.3386688,1.77211-0.18573
		c0.947525,0.2407227,1.9087219,0.1638794,2.8640442,0.1560059c5.111084-0.04216,10.2238159,0.1766205,15.3337402-0.1785126
		c1.8313446-0.127243,3.6768951-0.0498352,5.515976-0.0657959c0.2286377,1.1968536,0.2194366,2.4059143,0.1854248,3.6162262
		c-0.678299,0.0035095-1.3591156-0.0280304-2.0341492,0.0206604c-0.6534729,0.0471039-1.3638306-0.2101288-1.9532928,0.4526215
		c1.3338165,0.0247498,2.6676331,0.0495605,4.0014496,0.0743103c0.2126465,0.5991821,0.2574921,1.2162476,0.1971283,1.8446045
		c-0.750412,0.1377563-1.5731812-0.2165527-2.4664307,0.3383789c0.9463806,0.2846985,1.7250824,0.1200867,2.4866791,0.1734924
		c0.1331329,0.8143005,0.2391968,1.6312256,0.2438812,2.4582825c-0.0281372,0.005188-0.0739288,0.0017395-0.0814362,0.0170288
		c-0.0352173,0.0717468-0.0034027,0.1078491,0.0811615,0.1012573c0.0474243,0.5978394,0.0948486,1.1957092,0.1422729,1.7935791
		c-0.1504669,0.6113586-0.1979218,1.2166443,0.106369,1.8011475c0.0196533,0.3646851,0.0393372,0.7294006,0.0590057,1.0940857
		c-0.1421051,0.8770752,0.0229645,1.7531128,0.0135956,2.6300964c-0.0049896,0.4660339-0.2087097,0.6808777-0.6570435,0.6071472
		c-2.3052521-0.3791199-4.6239471-0.0736389-6.9341888-0.1569824c-0.7209015-0.0259705-1.417038-0.003479-2.1355438,0.1285095
		c-1.013443,0.1861267-2.0778809,0.3886108-3.0802917,0.2630005c-1.1348114-0.1422424-2.2686157-0.0940247-3.3856812-0.1145325
		c-3.5325317-0.0648499-7.066925-0.1684875-10.6038361-0.0695496c-2.7329407,0.0764465-5.4692688,0.08255-8.2064667,0.0076599
		c-2.7522583-0.0753784-5.5085602,0.0105896-8.2627563-0.0135498c-1.8405457-0.0161133-3.6784668-0.1004333-5.522049-0.0841064
		c-0.94841,0.0084229-1.8771362,0.1801453-2.8277893,0.1489563c-1.821106-0.0597534-3.6434326-0.1879883-5.4690399-0.0748596
		c-0.7563171,0.0468445-1.517334,0.0125427-2.2752686,0.0404968c-0.2889252,0.0106812-0.5986023,0.1266785-0.5570526,0.4798889
		c0.0305939,0.2603455,0.372757,0.3968506,0.5583344,0.3538208c0.9561005-0.2217102,1.926239,0.2838135,2.8365631,0.0031128
		c1.6638031-0.513031,3.3171692,0.0413208,4.9704742,0.0051575c1.384903-0.0303345,2.8411865,0.0065308,4.2392883,0.0055542
		c1.337326-0.0009155,2.6820679,0.0114441,4.0251923,0.0370483c1.9829865,0.0378418,3.967392-0.133667,5.9499359,0.0097656
		c1.1621857,0.0841064,2.3262329-0.3326111,3.4487457-0.1599426c1.7388306,0.2675171,3.473877-0.1349182,5.1971283,0.1627197
		c1.5415344,0.2661438,3.0877533-0.0411377,4.6320648-0.0003662c3.3329773,0.0879822,6.6655884,0.2071228,9.9991608,0.2504578
		c3.2823181,0.0426941,6.5539246-0.4223938,9.8414154-0.2596436c0.1187897,0.0058899,0.2431946,0.0027161,0.3577576-0.0255432
		c1.3263245-0.3273926,2.6927185-0.2102356,4.0339508-0.3688049c0.3438263,1.1248779,0.2661438,2.2967224,0.3211365,3.4440613
		c0.1278229,2.6665344,0.4308014,5.3239746,0.4044952,7.9989929c-0.0210419,2.138855-0.2587433,2.5176086-2.3316803,3.1203613
		c-2.6704712,0.7765503-5.4002838,1.2973633-8.1231842,1.8559875c-5.1387177,1.0542603-10.3322449,1.6379089-15.5571289,1.9980164
		c-12.5677948,0.8662109-25.1580505,0.8987732-37.7462311,1.048584c-16.587738,0.1974792-33.1761932,0.2348328-49.7637711,0.1377258
		c-7.5936508-0.0444336-15.1798058-0.4920349-22.6755562-1.8639526c-3.1384773-0.5744019-6.2654381-1.2066345-9.3158722-2.1639404
		c-0.303257-0.0951843-0.6112938-0.1777954-0.9084358-0.2893372c-1.6345444-0.6136169-1.9297142-1.059845-1.9287949-2.8257751
		c0.0017128-3.2748718,0.4418564-6.5207825,0.6356468-9.7828674c0.3980293-6.6998901,1.2103424-13.3757629,1.1036835-20.1057434
		c-0.025238-1.5928497,0.2402229-3.1796875,0.5709839-4.7445984c3.6974564,0.1438751,7.3918495-0.1923065,11.0923157-0.0375366
		c2.4346199,0.1017761,4.8764305,0.0371246,7.3150215,0.0373535c16.2313766,0.0014343,32.4629059-0.0360565,48.693985,0.0335693
		c2.9053421,0.0124512,5.7924194-0.3065186,8.716713-0.0974274c3.3803482,0.2417145,6.7987061,0.177063,10.1878204,0.0006714
		c2.7466888-0.1429443,5.4816895-0.0834961,8.219986-0.0244141c1.4262848,0.0308228,2.8516541,0.131424,4.2799377,0.0875397
		c0.3688812-0.0113678,0.7911682,0.0460815,0.9207764-0.5185242c-0.5676727-0.157196-1.0861969-0.1000214-1.595871-0.1005402
		c-10.0329742-0.0106049-20.0659714-0.0189362-30.0989456-0.0196075
		c-13.1110153-0.0009308-26.2220306,0.0049591-39.333046,0.0083771c-7.2755432,0.0019073-14.5512543,0.0335846-21.826519-0.0103912
		c-2.148716-0.0130157-4.2960014,0.1875-6.4440422,0.0200348c0.3923492-2.0485077-0.0619278-4.0690002-0.1978416-6.1003571
		c-0.0314865-0.4705963-0.0240707-0.9438019-0.0345573-1.415802c1.119091-0.0069275,2.2381744-0.0197754,3.3572578-0.0198517
		c9.4727821-0.0006104,18.9455681,0.0014038,28.4183464,0.0007935c0.3593674-0.0000153,0.7202454-0.0037537,1.0769882-0.0397644
		c0.0860901-0.0086823,0.2009201-0.1411133,0.2280502-0.2375793c0.0510635-0.1815948-0.0766296-0.3106384-0.2449036-0.329071
		c-0.2769928-0.030304-0.5583649-0.026535-0.8378906-0.0265808c-1.8388062-0.000351-3.6776123,0.0046692-5.5164185,0.0032959
		c-8.833252-0.0066071-17.6665154-0.0146942-26.4997711-0.0222626c-0.0126038-0.0870819-0.0252113-0.1741486-0.0378151-0.2612152
		c-0.0055656-0.8427734,0.5838127-0.7551117,1.1472321-0.754837c7.7451172,0.0037231,15.4902344,0.0013428,23.2353554-0.0006409
		c3.1945267-0.0008087,6.3890686-0.0037231,9.5835953-0.0074615c0.3195496-0.0003662,0.7649994,0.0249634,0.7884979-0.3524323
		c0.0314102-0.5042267-0.4590454-0.2670288-0.7306671-0.3142395c-0.193924-0.0336761-0.3982544-0.0079498-0.5979462-0.0078278
		c-4.9909973,0.0027161-9.9820786,0.0233307-14.9729652,0.000351c-2.2686272-0.0104523-4.5436478-0.0909882-6.8055458-0.0579834
		c-3.5894508,0.0523834-7.1788063-0.0079041-10.7670937,0.0692902c-0.5927238,0.0127411-0.8853073-0.1644897-0.8408966-0.8129578
		c0.0321426-0.4693604,0.1139297-0.9593506-0.1117058-1.4153595c0.0271263-0.0881042,0.0542488-0.1762238,0.0813789-0.264328
		c1.3891258-0.1438141,2.7822914-0.220047,4.177021-0.1392822c1.9883194,0.1151581,3.9915085-0.1886444,5.9549103,0.0280457
		c1.4467583,0.159668,2.8455086-0.052948,4.2649269-0.0464783c8.3847466,0.0382843,16.7711372,0.1013794,25.1541328-0.0279083
		c4.0196381-0.0619965,8.0320816,0.1367035,12.0505905,0.0479431c4.036293-0.0891724,8.0764694-0.0055084,12.1149216,0.008316
		c1.1546402,0.0039673,1.3309021,0.1951904,1.370491,1.4115601c-0.1677475,0.0119629-0.2561874,0.0926361-0.2198944,0.2679596
		c0.0058746,0.0283356,0.0590057,0.0746307,0.0742264,0.0690155
		C110.6589355,236.1974182,110.6448669,236.0555573,110.6392975,235.9192505z M146.7649689,262.1721802
		c1.160614,0.29599,2.1684418,0.0563049,3.1586304,0.1319885c1.9472809,0.1486816,3.8895264-0.1322327,5.8348846-0.1807251
		c1.0988464-0.0274048,2.2012024,0.1298828,3.3031769,0.1743774c2.9009705,0.117157,5.8010559-0.0594788,8.7038727-0.0273743
		c6.184845,0.0684204,12.372467,0.1596069,18.5545349-0.1845093c0.9692535-0.0540161,1.7971497-0.5878296,2.761734-0.6383972
		c-1.5021515-0.6851501-7.7609863-0.7801514-8.7156982-0.0989685c2.3581848,0,4.5250397,0,6.8444214,0
		c-0.3300781,0.2841797-0.5363159,0.2227783-0.7306213,0.2242126c-2.0777893,0.0155945-4.1737213-0.1335449-6.2272949,0.0963745
		c-1.4632263,0.1637573-2.9093475,0.051239-4.3583374,0.1115723c-1.441925,0.0600891-2.9065094-0.0999451-4.3628082-0.1446838
		c-4.8776703-0.1498718-9.754837,0.2587585-14.6325378-0.0099182c-1.3480988-0.0743103-2.6873474,0.0310059-4.0374146,0.1688232
		c-1.5809174,0.1613464-3.1907959,0.0312805-4.7879181,0.0473938
		C147.6997528,261.8461304,147.2872925,261.6817627,146.7649689,262.1721802z M108.9864273,239.4729309
		c0,0.001709,0,0.0034485,0.0000076,0.0051575c2.916626,0,5.833252-0.0018768,8.7498703,0.0007324
		c1.6775436,0.0014954,3.3550797,0.0126038,5.0326233,0.012207c0.1850967-0.0000305,0.4482651,0.0509644,0.4879074-0.2096863
		c0.0473557-0.3114166-0.2219696-0.3844299-0.4576187-0.4202728c-0.1956863-0.0297546-0.3986053-0.0147705-0.5983124-0.0149078
		c-8.74897-0.0057983-17.4979401-0.0157166-26.2468719,0c-0.3658142,0.0006714-1.0594254-0.2763367-1.053421,0.3487701
		c0.0046692,0.4859009,0.6596756,0.2668304,1.0213776,0.2680969
		C100.2767563,239.4783173,104.6316071,239.4729309,108.9864273,239.4729309z M187.8994141,264.5969238
		c-1.9273682-0.2503662-3.7440796-0.0215149-5.5518188-0.0306091c-2.7707062-0.0138855-5.541748,0.2142944-8.3157196,0.1605225
		c-2.049881-0.0396729-4.0988617-0.1673279-6.148407-0.1710205c-1.9382019-0.0035706-3.8766937,0.1512146-5.8148804,0.1471252
		c-1.6702728-0.0035706-3.3502045,0.1898499-5.0127258-0.1586609c-0.7971954-0.1671143-1.5676117,0.3177185-2.371582,0.1311646
		c-0.2168274-0.050354-0.5171509-0.2232361-0.554657,0.153595c-0.0335541,0.3368835,0.2980804,0.3031616,0.52388,0.3112488
		c2.3782806,0.085144,4.7632141,0.3076477,7.1331787,0.2008972c1.9533234-0.0879517,3.901825-0.1238403,5.8545837-0.1316223
		c4.5827332-0.0183411,9.1650543,0.0556946,13.7485657-0.0022888c1.9468231-0.0246582,3.8872375-0.5011292,5.8443604-0.1056824
		C187.4333191,265.1418457,187.7005615,265.0058289,187.8994141,264.5969238z M174.4033051,247.6943054
		c0.0129395-0.1772156,0.0258789-0.3544312,0.0388184-0.5316162c-4.7852936-0.2933502-9.5811768-0.1737671-14.3757782-0.1671448
		c-4.8307037,0.0066223-9.6630096-0.1120605-14.4846802,0.3987885
		C155.1891327,247.7267914,164.7971039,247.5594788,174.4033051,247.6943054z M153.0000305,264.7875061
		c-2.1905518-0.3171082-4.1278687,0.0874329-6.0448761-0.1791992c-1.304657-0.1814575-2.6023407,0.1316528-3.9025726,0.1177368
		c-2.7413177-0.0293274-5.4845581,0.0270996-8.2237854-0.1821899c-0.7450562-0.0569458-1.5108948,0.151947-2.2550049,0.0907288
		c-1.0257416-0.0844116-2.0437317,0.1571045-3.0753021-0.0179443c-0.2598114-0.0441284-0.7630157-0.0520325-1.0751495,0.343689
		C130.3453979,265.4186096,151.7046967,265.3392639,153.0000305,264.7875061z M91.6655045,262.0766602
		c0.2623215,0.3140564,0.5160751,0.2383728,0.7397461,0.238678c4.2319641,0.0052795,8.4639359,0.0053101,12.6959076,0.0010681
		c0.3184052-0.0003357,0.6387024-0.0265808,0.9544601-0.0684204c0.2000198-0.0264893,0.4308777-0.1251221,0.4415894-0.3385925
		c0.017868-0.3566284-0.2959595-0.3033142-0.5177612-0.3042908c-1.7568207-0.0075989-3.5146332-0.0418701-5.2701569,0.0055542
		c-1.0003128,0.0270081-1.966713-0.4657593-2.9482574-0.2322388c-1.5361023,0.365448-3.0817566,0.2258606-4.6266174,0.2480774
		C92.62677,261.6338196,92.102951,261.6083374,91.6655045,262.0766602z M110.1828918,261.8106995
		c0.2351379,0.3687744,0.5429688,0.2958069,0.7951202,0.2866821c4.7802353-0.1724854,9.5491791,0.2969971,14.3268509,0.2441711
		c0.4384003-0.0048828,0.8770905-0.0143127,1.3148422-0.0371399c0.2315521-0.0120544,0.3637848-0.1412048,0.3168335-0.389801
		c-0.0368881-0.1954651-0.1764145-0.2279358-0.3518524-0.2085571c-1.887619,0.209137-3.7661362-0.0597839-5.6489868-0.0943298
		c-3.2679977-0.0599976-6.5379562-0.0176392-9.8070602-0.0075684
		C110.8287125,261.605072,110.493454,261.4898987,110.1828918,261.8106995z M154.3682098,238.9740448
		c-1.3749847-0.2479095-2.6000214-0.0975647-3.812912-0.1143188c-2.6295624-0.0362701-5.2600555-0.0126953-7.8900909,0.0012817
		c-0.2790527,0.0014801-0.7489929-0.1552887-0.7349396,0.3289948c0.0109711,0.3778839,0.4532623,0.2937469,0.6848602,0.2437134
		c1.0710144-0.2314453,2.1292114,0.0311737,3.1924744,0.0287323c2.3308105-0.0053558,4.66185,0.0176544,6.9922638-0.0122681
		C153.2806091,239.4440155,153.8518066,239.65802,154.3682098,238.9740448z M180.7923431,265.5370483
		c1.3941956,0.5420837,6.6212311,0.4519043,7.4984283,0C185.6507111,265.5370483,183.2215424,265.5370483,180.7923431,265.5370483z
		 M97.2726669,252.0178833c1.6373062,0.4161835,3.2715607,0.6509094,5.0989914-0.006012
		C100.5387573,251.2910309,98.9053726,251.4949951,97.2726669,252.0178833z M132.879776,262.3062744
		c0.0044556-0.109436,0.0088959-0.2188416,0.0133362-0.3282776c-1.3888397-0.5896912-2.8620605-0.3303528-4.3050842-0.3702087
		c-0.2137604-0.0059204-0.3952026,0.0794373-0.4168396,0.3233032c-0.0215607,0.2427979,0.1207886,0.3719788,0.352417,0.3727417
		C129.9756317,262.3086548,131.4277191,262.3062744,132.879776,262.3062744z M141.2317963,262.1359863
		c1.6393738,0.33078,4.0151672,0.2449341,4.6303101-0.1195374
		C144.9080353,261.7231445,142.2220612,261.7478027,141.2317963,262.1359863z M181.757309,237.5877686
		c1.3982086,0.2682037,2.7952728,0.3579102,4.1809692-0.0254822
		C184.5423279,237.3179169,183.1489563,237.306366,181.757309,237.5877686z M135.5649719,262.313385
		c0.1972351,0,0.3947754,0.0065918,0.5916748-0.0015259c0.300827-0.0124207,0.5814972-0.1239319,0.5684357-0.4575806
		c-0.0133972-0.3412476-0.34375-0.2391663-0.5540466-0.2503357c-0.3540344-0.0188293-0.7099609-0.0044556-1.065033-0.0003662
		c-0.2663574,0.0030823-0.4652252,0.0857544-0.4347839,0.4067383c0.0244904,0.2583618,0.2147522,0.2965088,0.4203033,0.3036499
		C135.2491608,262.319458,135.4071503,262.3150635,135.5649719,262.313385z M133.201416,238.9885712
		c-0.6437683-0.2070313-1.1445465-0.1846619-1.6425323-0.0962372c-0.084259,0.0149689-0.1965637,0.1623535-0.200943,0.2531281
		c-0.0041962,0.0870667,0.1123352,0.2559509,0.1805725,0.2584381
		C132.064209,239.4230652,132.6428986,239.6740723,133.201416,238.9885712z M175.1303864,261.1329651
		c-0.7712402-0.3122864-1.5318451-0.3695679-2.2700806,0.0444641
		C173.6221008,261.3382874,174.3785248,261.4536438,175.1303864,261.1329651z M82.875412,262.1451416
		c0.6820297,0.1772461,1.3648911,0.322998,2.1578064-0.0586548
		C83.9652023,261.7492371,83.7226944,261.7513733,82.875412,262.1451416z M161.01091,260.542511
		c-0.6316681-0.5144653-1.3730927-0.5258484-2.1138763-0.0244446
		C159.6256256,260.7213135,160.2945251,260.6824951,161.01091,260.542511z M173.5834808,265.7411804
		c0.6853485,0.0788574,1.3947144,0.3973999,2.2641144-0.1458435
		C174.9320221,265.3887329,174.2482605,265.294342,173.5834808,265.7411804z M138.9071808,262.0504761
		c-0.5191956-0.0831604-0.9428101-0.5490417-1.5053253-0.3412476c-0.1132355,0.0418701-0.1147003,0.2199402-0.0319366,0.3063965
		C137.827774,262.4939575,138.3585968,262.3305969,138.9071808,262.0504761z M174.6442108,260.4188232
		c-0.6017303-0.2882385-1.2013702-0.4140625-1.9639587,0.0574341
		C173.4591675,260.722168,174.0511627,260.6897583,174.6442108,260.4188232z M87.673111,262.0897522
		c0.5203857,0.2675171,1.0346909,0.319397,1.5340195-0.0381165
		C88.6976624,261.8160706,88.1884384,261.7438965,87.673111,262.0897522z M117.0660324,260.4005432
		c-0.5284348-0.2794495-1.0485458-0.3310852-1.8006973-0.0003967
		C116.0275803,260.7463074,116.5466919,260.7032471,117.0660324,260.4005432z M178.1326447,247.4633942
		c0.4595337,0.2467957,0.912735,0.3394318,1.503067-0.0510406
		C179.0042572,247.1294098,178.5652313,247.1184998,178.1326447,247.4633942z M103.0241699,260.4313354
		c0.6243744,0.2509155,0.988266,0.3016357,1.4530792-0.0552673
		C103.9768982,260.100769,103.6227875,260.1003113,103.0241699,260.4313354z M153.0771027,260.3841858
		c-0.0570374-0.2091064-0.2119751-0.2104187-0.371994-0.203125c-0.2015839,0.0092773-0.3030548,0.1481323-0.2374573,0.3061829
		c0.0621185,0.1497192,0.2532196,0.1748962,0.4144897,0.1255798
		C152.991272,260.5794678,153.1093903,260.5299072,153.0771027,260.3841858z M176.9975739,247.2105255
		c-0.1465454,0.0353394-0.3314819,0.0359497-0.2986603,0.2602997c0.0177002,0.1209717,0.108078,0.1904602,0.2423096,0.1927185
		c0.1589508,0.0027008,0.3245087,0.0004425,0.356369-0.1948853
		C177.3343658,247.2431946,177.1424408,247.2469788,176.9975739,247.2105255z"></path>
	<path d="M196.2891388,37.1330414c-2.09375,0-4.1875305,0-6.2812958,0
		c0.0001068-0.037941,0.0002289-0.075882,0.0003357-0.1138191c2.1027985,0,4.2055817,0,6.3083649,0
		C196.3074036,37.0571594,196.2982788,37.0951004,196.2891388,37.1330414z"></path>
</g>
<g onclick="select(this)" class="" id="c-gola-primaria" fill="#bf0811">
	<path d="M81.8580551,7.9835963c1.698204-1.3369398,3.3569641-2.7328925,4.6171494-4.4986877
		c1.2718124-1.7820867,3.0869598-2.4098542,5.0991058-2.7747858C92.253685,0.5869062,93.0128555,0.76786,93.6000061,0.24
		c8.0799942,0,16.1600037,0,24.2399979,0c2,0.2377515,4,0.3660933,6,0c6.0000076,0,12.0000076,0,18.0000076,0
		c0.9415283,0.4736482,2.0010071,0.450251,2.9966583,0.7015663c1.6403046,0.4140347,3.0483246,1.1346107,4.1073303,2.5050223
		c1.3052368,1.6890111,2.9615326,3.0213346,4.603302,4.3620772c-0.6371765,0.0417809-1.2813263,0.0328736-1.9083557,0.1320987
		c-5.9747009,0.9454899-11.9559937,1.8328524-18.0034943,2.1704445c-4.9721832,0.2775669-9.9312057,0.7544403-14.9111862,0.9240065
		c-4.359642,0.1484394-8.6846237-0.4226103-13.0308685-0.5542564c-1.3863983-0.0419931-2.7921371-0.0599957-4.1780319-0.225687
		c-4.423912-0.5289021-8.8516464-1.0324869-13.2653046-1.6377201C86.1238937,8.3259954,83.9861984,8.2174349,81.8580551,7.9835963z"></path>
</g>
<g onclick="select(this)" class="" id="c-detalhe-lateral" fill="#bf0811">
	<path d="M46.5984573,113.5769119c0.8586273,4.4725723,1.6386528,8.9526825,2.1321869,13.4882431
		c0.4988174,4.5840302,0.9441719,9.1669312,1.2411499,13.7693024c0.2026711,3.1408234,0.3176994,6.2842407,0.4969406,9.4238281
		c1.1673965,20.4485168,0.5023041,40.9126434,0.5072403,61.368454c0.0012054,4.9792328,0.1400795,9.9915161-0.3426857,14.9680328
		c-0.2672157,2.7546234-0.1237488,5.5084534-0.2022476,8.2616272c-0.1626434,5.7046967-0.2872086,11.4113617-0.5359116,17.1124725
		c-0.1807938,4.1444397-0.3410454,8.2883301-0.4768867,12.4345093c-0.1814423,5.5378113-0.4208069,11.0759583-0.7853661,16.6040955
		c-0.1076851,1.6329346-0.104599,3.2683716-0.2435493,4.897583c-0.0408897-0.0000305-0.0816765,0.0050354-0.1207237-0.0010681
		c-4.664753-0.7244263-5.2914047-1.6237793-4.8072586-6.7875366c0.2455597-2.6190491,0.5007591-5.2390442,0.656002-7.8642883
		c0.3797302-6.4214172,1.0538902-12.8269653,1.0024719-19.2732544c-0.0101089-1.2669983,0.1517448-2.5687103,0.4594231-3.7980652
		c0.6893005-2.7542725,0.1676331-5.4806976-0.0383072-8.2067108c-0.398571-5.2760162,0.1435127-10.4516907,1.5237236-15.5354919
		c0.6022377-2.2182312,0.099102-4.3840637-0.1206207-6.5354767c-0.7653923-7.4944611-0.4966202-14.919754,1.0929985-22.2820587
		c0.5638962-2.6116791,0.5894699-5.2269287,0.4373436-7.8679657c-0.2390671-4.1503906,0.1028595-8.3033752-0.0697708-12.4582062
		c-0.2371254-5.7073212-0.0024185-11.4295502-0.505806-17.1308594c-0.059536-0.6743317-0.1083908-1.3693542-0.0155907-2.0343018
		c0.7906189-5.6651917,0.3340569-11.3456421,0.0393906-16.9996185c-0.2931633-5.625061-0.5051308-11.2555923-0.8648415-16.8775024
		c-0.0749779-1.1717911-0.0390434-2.3641205-0.4846649-3.4865036c-0.1395721-1.1747971,0.3028183-2.3947144-0.2738876-3.5358276
		C46.667614,114.7276611,46.5722351,114.1412811,46.5984573,113.5769119z"></path>
	<path d="M186.8008728,284.9392395c-0.1229095-4.2257996-0.4434967-8.441803-0.5853119-12.6685486
		c-0.132309-3.943512-0.3239899-7.8874207-0.4886627-11.8312073c-0.1930847-4.6247253-0.3299561-9.2497711-0.4897461-13.8748932
		c-0.2287445-6.620636-0.4568634-13.2419586-0.7184143-19.8610077c-0.1642761-4.1574554-0.0362549-8.311203-0.1750793-12.4651031
		c-0.4915466-14.7080688-0.0657959-29.4214783-0.23526-44.1312561c-0.0644989-5.5982819,0.2369232-11.1859894,0.3261108-16.7791595
		c0.0780792-4.8951111,0.449295-9.792923,0.8777161-14.673172c0.5314331-6.0536957,1.2392578-12.0922852,1.917038-18.1322174
		c0.0797882-0.7109604,0.2413177-1.4891586,0.918335-1.9722366c-0.0214996,0.6485443,0.103653,1.3106155-0.1795807,1.9347534
		c-0.4635162,1.9399567-0.3752441,3.9355545-0.5561066,5.9021759c-0.8177032,8.8916855-0.9378052,17.8043594-0.4579926,26.7192764
		c0.2285919,4.2474823-0.2272034,8.4676514-0.3691559,12.6984711c-0.169281,5.0442505,0.2913513,10.0682678,0.2419891,15.1049805
		c-0.0278473,2.8404846-0.1205292,5.6720428-0.4734192,8.4955597c-0.2134399,1.7077484-0.2323456,3.4289703,0.0491791,5.1404724
		c0.0583344,0.3545074,0.1529388,0.72229,0.1134796,1.0706635c-0.3606415,3.1831207,0.5791473,6.1537933,1.4381714,9.1434631
		c1.7585297,6.1201935,1.8533173,12.3588104,1.3459167,18.6489716c-0.2750854,3.4103088-0.7511444,6.8083801-0.0207214,10.2524414
		c0.3602142,1.6984406,0.2653809,3.495163,0.1134796,5.2572479c-0.2055511,2.3844604-0.2533112,4.74617,0.1579437,7.1489716
		c0.7022552,4.102829,0.4032593,8.2912903,0.7608795,12.4349823c0.4912415,5.6921997,0.833374,11.3986511,1.1487122,17.1039734
		c0.1142731,2.0674438,0.3803711,4.1285095,0.2982178,6.2113953c-0.0435638,1.1039429-0.4625702,1.8201294-1.5064087,2.1775818
		C189.1212006,284.3831482,188.0046692,284.8197327,186.8008728,284.9392395z"></path>
</g>
<g onclick="select(this)" class="" id="c-detalhe-punho" fill="#bf0811">
	<path d="M0.24,116.1600037c0.69712-1.8766556,0.5781184-3.914978,1.1528097-5.8155289
		c0.0734786-0.2430038-0.0531212-0.5927124,0.3411709-0.674942c3.591774,0.6804352,7.182591,1.3671646,10.7761421,2.0392838
		c3.3273916,0.6223373,6.6449661,1.3125305,9.9897423,1.8229218c4.9343185,0.7529602,9.8997173,1.2014313,14.8977375,0.7378998
		c2.8144569-0.2610168,5.8852081,0.473999,8.1163673-2.1845627c0.466095,1.1234512,0.2772827,2.2217407,0.7851486,3.1454468
		c0.5767975,1.1409149,0.134407,2.3608322,0.2740402,3.5356293c-0.3884583,0.1947632-0.2289581,0.5572586-0.2394142,0.8502502
		c-0.0591583,1.6574707-0.1896095,1.720665-1.8397064,1.9825439c-7.4972954,1.1898422-14.97089,0.8450623-22.4534702-0.1684341
		c-7.0455074-0.9542923-14.0725622-1.9977951-21.0063133-3.5957413c-0.2685242-0.061882-0.5296699-0.1557846-0.7942533-0.2347641
		C0.24,117.1200027,0.24,116.640007,0.24,116.1600037z"></path>
	<path d="M187.9680176,120.4851913c0.2832336-0.6241379,0.1580811-1.2862091,0.1795807-1.9347534
		c0.8706818-1.24543,0.3438873-2.7464066,0.7416229-4.0813904c0.1100159-0.3692703,0.1113434-0.7709351,0.1621704-1.1568756
		c0.043335-0.3514709,0.0870361-0.703804,0.1307526-1.0565033c0.6301117,0.050354,1.0385132,0.4437943,1.4813538,0.7825012
		c2.4344788,1.8620453,5.0329895,2.9518051,8.2521515,2.9212112c4.6003265-0.0437393,9.146286-0.4244003,13.6932831-1.0205231
		c5.3256531-0.6981964,10.6680603-1.2800903,15.9414368-2.3284225c1.2098236-0.2404938,2.3986206-0.5868073,3.597168-0.8845367
		c0.20578,0.0669098,0.3428955,0.1936798,0.363327,0.4202957c0.1937408,2.1484528,0.6473236,4.2625885,0.7942657,6.4213028
		c0.0733948,1.0780487-0.3539429,1.4582367-1.3179474,1.6786728c-4.3675537,0.998703-8.7806244,1.7369766-13.2177277,2.3207779
		c-6.4241333,0.8452225-12.8670959,1.4513855-19.3621521,1.2750168c-2.9469299-0.0800476-5.8189697-0.4116745-8.3982391-2.0057831
		c-0.1339569-0.0827866-0.2849426-0.1598053-0.4374084-0.1872101
		C189.6062164,121.4754333,188.6012726,121.3994827,187.9680176,120.4851913z"></path>
</g>
</svg>
