<!--?xml version="1.0" encoding="utf-8"?-->
<!-- Generator: Adobe Illustrator 24.2.3, SVG Export Plug-In . SVG Version: 6.00 Build 0)  -->
<svg version="1.1" id="Camada_1" xmlns="http://www.w3.org/2000/svg" xmlns:xlink="http://www.w3.org/1999/xlink" x="0px" y="0px" viewBox="0 0 234 419" enable-background="new 0 0 234 419" xml:space="preserve">
<g onclick="select(this)" class="selected" id="c-estampa-primaria" fill="#000000">
	<path d="M203.8483276,32.2845345c0.2733459,0.1604347,0.5708313,0.2904778,0.8165588,0.4856949
		c10.1933899,8.0975609,16.7267914,18.4918518,19.7408295,31.162365c1.3155975,5.5304718,2.1200409,11.1263275,2.858902,16.7504196
		c0.7853394,5.9780731,2.0124207,11.8930359,2.7431183,17.882164c0.5366821,4.3988495,1.4192352,8.7404556,2.1559143,13.1059036
		c0.2952118,1.7492828,0.7397766,3.4733658,1.1163635,5.2089233c0,1.0400009,0,2.0799942,0,3.1200027
		c-3.4725342,0.6932068-6.930191,1.4599991-10.4356842,1.9851532c-7.909256,1.1848984-15.839798,2.074646-23.8575287,1.8457947
		c-2.7822266-0.0794144-5.4807281-0.4779205-7.9298401-1.9480133c-0.9024353-0.5416794-2.1662292-0.2684326-2.9029846-1.2300415
		c0.2689056-1.316597,0.0010986-2.6468201,0.1371002-3.9802017c0.2865295-2.8091431,0.8761597-5.6096573,0.7208099-8.4386902
		c-0.0996094-1.8141556-0.0415955-3.6085663,0.2869263-5.3606339c0.6317139-3.3688889,1.312149-6.7053375,1.3780975-10.1658249
		c0.0653229-3.4284363,0.5329742-6.8417206,1.217804-10.212204c0.3261261-1.605011,0.6104584-3.3583603,1.8852844-4.4149857
		c1.1981354-0.9930725,1.8749847-2.2294006,2.6460571-3.4743271c2.2872925-3.6928635,3.1263275-7.9172363,4.4207764-11.9716034
		c1.6056061-5.028965,2.8253326-10.1539421,3.0865784-15.4427185c0.2150421-4.3534508,0.0613708-8.7109032-0.3554077-13.0557632
		C203.518631,33.5170288,203.4064331,32.8490295,203.8483276,32.2845345z"></path>
	<path d="M0.2399999,116.4000015c0.3990944-1.8923798,0.7992355-3.7845383,1.1970596-5.6771851
		c0.7556592-3.5950546,1.2740115-7.2296906,1.7788073-10.8652725c0.9360778-6.7417145,2.825887-13.2774429,4.2380676-19.9160233
		c0.9136658-4.2950897,1.1781807-8.706604,2.153883-12.9992218c1.6027317-7.0512238,3.8376999-13.8576126,7.7096853-20.0301361
		c2.8096981-4.4790878,6.324873-8.3409996,10.4916496-11.5832138c1.2201462-0.9494095,2.1714745-2.2272186,3.5975418-2.9156609
		c0.409853,0.666275,0.4419289,1.4347534,0.1384087,2.0693893c-0.2150822,0.4497261-0.1618748,0.7929611-0.1443195,1.219677
		c0.0343647,0.8352852,0.0157471,1.6772995-0.048336,2.5113487c-0.40481,5.2684479-0.3184166,10.5060234,0.6754837,15.7215576
		c0.9136086,4.7941971,2.5120468,9.3893089,3.8648491,14.0578041c0.9538612,3.291748,2.4152756,6.3087997,4.3255997,9.1502914
		c0.9040985,1.3447723,1.7531815,2.7823563,2.0989113,4.4021835c0.2641869,1.2378159,0.280941,2.5299911,0.5647278,3.7618179
		c1.2920685,5.6083755,1.5528221,11.352562,2.3044205,17.0313797c0.3198624,2.4167786,0.1186905,4.8932114,0.9038048,7.2596741
		c0.9446297,2.8472748,0.1950264,5.7997513,0.4697762,8.6912003c-0.4242439,0.4347839-0.2552528,0.9883957-0.2157631,1.4687347
		c0.0981255,1.1936569-0.469677,1.5954437-1.5789909,1.757782c-6.8482971,1.0021515-13.6845665,1.0294418-20.5538177,0.1363907
		c-7.7710991-1.0103149-15.5229464-2.1032791-23.1701088-3.8450317c-0.2689152-0.0612564-0.5343078-0.13797-0.8013411-0.2074814
		C0.24,117.2000046,0.24,116.8000031,0.2399999,116.4000015z"></path>
	<path d="M81.8232574,7.9648337c1.9933167,0.3221059,4.0146713,0.3454776,6.0174026,0.6403394
		c4.3357544,0.6383495,8.6800003,1.2529688,13.0565796,1.560708c3.2247009,0.2267456,6.4560852,0.363286,9.6786346,0.6149645
		c9.567894,0.7472448,19.0577316-0.3929892,28.5633621-1.1391401c4.1289215-0.3241014,8.2169189-0.9859085,12.2993622-1.6656408
		c0.7037048-0.1171703,1.4390411,0.1179075,2.1116333-0.2282166c2.0036774,0.1278214,3.4710236,1.1499076,4.7623596,2.6351333
		c1.0020447,1.1525259,2.4355469,1.7944489,3.754364,2.5350866c9.5250549,5.3492413,19.5428925,9.6384945,29.6755066,13.6653862
		c3.976944,1.5805149,7.6895142,3.714653,11.6385498,5.343462c0.1751404,0.0722351,0.3122711,0.2365589,0.4672089,0.3578014
		c-0.4417877,0.564312-0.3295898,1.2323112-0.2702179,1.8512306c0.4167786,4.3448601,0.5704498,8.7023125,0.3554077,13.0557632
		c-0.2612457,5.2887764-1.4809723,10.4137535-3.0865784,15.4427185c-1.2944489,4.0543671-2.1334839,8.2787399-4.4207764,11.9716034
		c-0.7710724,1.2449265-1.4479218,2.4812546-2.6460571,3.4743271c-1.274826,1.0566254-1.5591583,2.8099747-1.8852844,4.4149857
		c-0.6848297,3.3704834-1.1524811,6.7837677-1.217804,10.212204c-0.0659485,3.4604874-0.7463837,6.796936-1.3780975,10.1658249
		c-0.3285217,1.7520676-0.3865356,3.5464783-0.2869263,5.3606339c0.1553497,2.8290329-0.4342804,5.6295471-0.7208099,8.4386902
		c-0.1360016,1.3333817,0.1318054,2.6636047-0.1371002,3.9802017c-0.4350891,0.263176-0.2786713,0.715744-0.3222961,1.0867538
		c-1.2314911,10.473053-1.4573364,20.9770508-0.9196167,31.5013428c0.1637268,3.2047577-0.0886078,6.3917847-0.2826843,9.5842133
		c-0.3670654,6.0379333,0.1181488,12.0710449,0.138382,18.1070557c0.0092773,2.7614899-0.1012573,5.5138702-0.4396057,8.2587128
		c-0.230484,1.8700409-0.2589111,3.7496338,0.0620117,5.6197815c0.0405121,0.2361603,0.1031952,0.4799652,0.0820007,0.7135315
		c-0.2838898,3.1296539,0.5130768,6.0734406,1.3882141,9.0382385c1.7550659,5.945816,1.9432831,12.0373993,1.4457397,18.179657
		c-0.3086853,3.81073-0.8158722,7.6157532-0.0127716,11.4479828c0.2575378,1.2289734,0.1828766,2.5572357,0.0838165,3.8262939
		c-0.5065918,6.489624,0.6947327,12.8989105,0.8700562,19.3584442c0.1549835,5.7108765,0.6989136,11.4110413,1.0653229,17.1163025
		c0.1377563,2.1451721,0.3072357,4.2897949,0.3751221,6.437439c0.0753174,2.3829956-0.1534729,2.7092896-2.47435,3.3816528
		c-5.4622803,1.5823669-11.0361633,2.6375427-16.6871033,3.2367249
		c-13.3432159,1.4147339-26.7450714,1.5118408-40.1407776,1.6253357
		c-18.5563354,0.1572266-37.1143112,0.4963074-55.6699982,0.2002258
		c-10.0061951-0.1596985-19.9645538-1.045929-29.6639862-3.7774963c-3.6877174-1.0385132-3.8098068-1.0596008-3.5862617-4.8075562
		c0.4208603-7.0561829,0.9863625-14.1039124,1.5108299-21.1536865c0.2403526-3.2307434-0.1090736-6.4821472,0.3631821-9.7032776
		c0.0753365-0.5138397,0.0891571-1.0436249,0.2247772-1.5405273c0.8576775-3.1424103,0.1064415-6.2772522-0.0441322-9.4089661
		c-0.2265205-4.7113037,0.2113113-9.3542786,1.4141121-13.8990173c0.4223328-1.5957642,0.482132-3.1339722,0.2889442-4.7234497
		c-1.0502625-8.64151-0.9072342-17.2306824,1.0492516-25.7521515c0.3312035-1.4425507,0.4703064-2.931427,0.352829-4.410965
		c-0.3772812-4.7516632,0.0093384-9.5094604-0.1702347-14.2636719c-0.2127266-5.6320648-0.0184174-11.2757263-0.4517708-16.9031372
		c-0.2772369-3.6000824,0.4068794-7.1681213,0.2987823-10.7771759c-0.2909508-9.7139587-0.8827133-19.4097748-1.4747124-29.1067963
		c-0.0180473-0.2956238,0.0988388-0.6580276-0.2670174-0.8551025c-0.2747612-2.891449,0.4748421-5.8439255-0.4697876-8.6912003
		c-0.7851143-2.3664627-0.5839424-4.8428955-0.9038048-7.2596741c-0.7515984-5.6788177-1.012352-11.4230042-2.3044205-17.0313797
		c-0.2837868-1.2318268-0.3005409-2.5240021-0.5647278-3.7618179c-0.3457298-1.6198273-1.1948128-3.0574112-2.0989113-4.4021835
		c-1.9103241-2.8414917-3.3717384-5.8585434-4.3255997-9.1502914c-1.3528023-4.6684952-2.9512405-9.263607-3.8648491-14.0578041
		c-0.9939003-5.2155342-1.0802937-10.4531097-0.6754837-15.7215576c0.0640831-0.8340492,0.0827007-1.6760635,0.048336-2.5113487
		c-0.0175552-0.4267159-0.0707626-0.7699509,0.1443195-1.219677c0.3035202-0.6346359,0.2714443-1.4031143-0.1384087-2.0693893
		c4.2559223-1.9925022,8.474226-4.0644226,12.849184-5.7981167c7.1582146-2.8366299,14.2091446-5.927412,21.2223091-9.1037693
		c3.9020386-1.7672882,7.5175247-4.0415335,11.1048813-6.3594542c0.3909531-0.2526073,0.6922073-0.6504154,1.0171356-0.9976597
		C78.7506866,8.9248152,80.0444946,7.9791746,81.8232574,7.9648337z"></path>
</g>
<g onclick="select(this)" class="" id="c-estampa-secundaria" fill="#082890">
	<path d="M103.7029495,289.139801c0.0029068-29.5142822,0.0058136-59.0285645,0.008728-88.5428467
		c0.0001831-1.8431091,0.0001907-1.8432312,1.8946457-1.8432312c7.5975723-0.000061,15.195137-0.0002441,22.7927094,0.0000916
		c1.646759,0.000061,1.6479034,0.0009155,1.6479187,1.6170197c0.0002441,28.9944305,0.0001678,57.9888763,0.0003357,86.9833221
		c0,0.5195923,0.0023346,1.0391541,0.0031586,1.5587769c-1.0198364,0.2763672-2.0634003,0.1344604-3.092598,0.143158
		c-7.513443,0.0636597-15.0271683,0.0950623-22.5408173,0.1333923
		C104.1790924,289.1907349,103.940979,289.1571655,103.7029495,289.139801z"></path>
	<path d="M51.3634682,286.4375916c-0.0098152-0.4395142-0.0281982-0.8790283-0.0282211-1.3185425
		c-0.0013657-28.2749634-0.0012817-56.5499115-0.0011406-84.8248596c0.0000038-1.5393524,0.0007286-1.5402679,1.5622292-1.5403442
		c7.7576141-0.0003357,15.5153694,0.0214691,23.2727013-0.0247803c1.0926437-0.0065155,1.3955383,0.2738647,1.3943405,1.386673
		c-0.0319977,29.6746368-0.0259171,59.3493195-0.0263977,89.0239716c-3.712677,0.2070923-7.4004898-0.2303772-11.0936661-0.4630127
		c-4.973259-0.3132324-9.9062767-0.9654846-14.7683258-2.0901489
		C51.5655212,286.5612488,51.4670601,286.4883118,51.3634682,286.4375916z"></path>
	<path d="M156.2265472,288.3933411c0.0000305-29.3907776,0.0094604-58.7816162-0.0319977-88.1723938
		c-0.00177-1.2641296,0.3645782-1.5015869,1.538147-1.4939117c7.8362732,0.0513,15.673111,0.0424957,23.509552,0.006073
		c0.9551239-0.0044556,1.2062683,0.2771149,1.2054901,1.2174683c-0.0235291,28.3913574-0.0193787,56.7827301-0.0205383,85.174118
		c-0.0000153,0.159729-0.0136414,0.319458-0.0206757,0.4790955c-2.5786133,0.842865-5.2657471,1.1263428-7.9309845,1.5061951
		c-5.5382996,0.7893982-11.1204987,1.0595703-16.7011414,1.331604
		C157.2604523,288.4666138,156.7425842,288.4113464,156.2265472,288.3933411z"></path>
</g>
<g onclick="select(this)" class="" id="c-gola-primaria" fill="#ffffff">
	<path d="M141.8400116,0.24c0.9924622,0.4431632,2.086441,0.4431034,3.1214447,0.7117371
		c1.5948334,0.4139404,2.9455872,1.1451814,3.9818878,2.4655492c1.312851,1.672699,2.9249878,3.0421085,4.6068878,4.3305616
		c-0.6725922,0.3461242-1.4079285,0.1110463-2.1116333,0.2282166c-4.0824432,0.6797323-8.1704407,1.3415394-12.2993622,1.6656408
		c-9.5056305,0.746151-18.9954681,1.886385-28.5633621,1.1391401c-3.2225494-0.2516785-6.4539337-0.3882189-9.6786346-0.6149645
		c-4.3765793-0.3077393-8.7208252-0.9223585-13.0565796-1.560708c-2.0027313-0.2948618-4.024086-0.3182335-6.0174026-0.6403394
		c1.4944687-1.1411915,3.0270386-2.2916994,4.0824432-3.8432579c1.6976318-2.4956884,4.1215515-3.3665047,6.9380035-3.6106102
		C93.2577438,0.4750811,93.733696,0.6210111,94.0800018,0.24c7.9200058,0,15.840004,0,23.7600021,0c2,0.1722626,4,0.3261583,6,0
		C129.8400116,0.24,135.8400116,0.24,141.8400116,0.24z"></path>
</g>
</svg>
