<!--?xml version="1.0" encoding="utf-8"?-->
<!-- Generator: Adobe Illustrator 24.2.3, SVG Export Plug-In . SVG Version: 6.00 Build 0)  -->
<svg version="1.1" id="Camada_1" xmlns="http://www.w3.org/2000/svg" xmlns:xlink="http://www.w3.org/1999/xlink" x="0px" y="0px" viewBox="0 0 229 418" style="enable-background:new 0 0 229 418;" xml:space="preserve">
<style type="text/css">
	.st0{fill:#FD0202;}
	.st1{fill:#17223C;}
	.st2{fill:#A01119;}
</style>
<g onclick="select(this)" class="" id="gola-primaria" fill="#021c3b">
	<path d="M78,8c0.8-0.1,1.3-0.6,1.8-1.1c0.8-0.7,1.6-1.4,2.2-2.2c2.4-3.4,5.9-4.1,9.6-4.1c10.8-0.1,21.7,0,32.5,0
		c3.7,0,7.4,0,11,0c2.1,0,4.1,0.4,6.1,0.9c1.2,0.3,2.2,1,3.1,2c1.5,1.8,3,3.7,5.1,4.9c1.9,0.9,2.2,2,1.6,4.7c-0.9,4-3.1,7.3-6,10.1
		c-3.2,3.1-6.7,5.8-10.6,8c-2.5,1.4-5,2.6-7.6,3.6c-4.9,1.8-10,2.5-15.3,2.1c-6.9-0.5-13.4-2.4-19.3-6.2c-4.7-3-9.1-6.2-12.5-10.7
		c-1.6-2.1-2.7-4.4-3.4-7C75.9,10.5,76.2,9.2,78,8z M144.3,9.1c-1.6,0.1-3.1,0.2-4.5,0.3c-8.3,0.7-16.6,1.3-25,1.5
		c-6.4,0.2-12.8-0.5-19.1-1C91.8,9.6,88,9.2,84.1,8.9C83.3,8.8,83,9,83.4,9.8c0.5,1.1,1,2.3,1.8,3.2c3.9,4.9,8.5,9,14.2,11.7
		c5.4,2.7,11.2,4.2,17.3,3.4c9.8-1.2,17.7-6,24.1-13.4C142.3,13.2,143.5,11.4,144.3,9.1z"></path>
</g>
<g onclick="select(this)" class="" id="estampa-primaria" fill="#bf0811">
	<path d="M229,116.1c-6.9,2.8-14,4.3-21.3,5.2c-6.2,0.8-12.4,0.7-18.6,0c-1.5-0.2-3.1-0.4-4.6-1.3c-0.2,2.1-0.4,4.1-0.6,6
		c-0.9,7.2-1.3,14.5-1.4,21.8c0,2.2,0.1,4.4,0.5,6.6c0.4,2-0.1,3.9-0.2,5.8c0,0.7-0.2,1.4-0.1,2.2c0.2,6.5-0.6,13.1,0,19.6
		c0.1,1.5,0,3-0.1,4.4c-0.3,3.1,0.2,6.1,0.9,9.1c1.6,7.2,1.4,14.5,0.3,21.8c-0.3,2.1-0.4,4.2,0.3,6.4c1.8,5.4,1.8,11,0.9,16.6
		c-0.2,1.5-0.3,2.9,0.1,4.4c0.9,3.8,0.4,7.7,0.6,11.6c0.3,5.9,0.7,11.8,1.4,17.7c0.3,2,0.2,4.1,0.3,6.2c0,1.7-0.4,2.2-2.1,2.7
		c-3,0.9-6.1,1.2-9.2,1.5c-7.7,0.8-15.4,0.9-23.1,1c-11.2,0.2-22.5,0.7-33.7,0.8c-12.5,0.2-24.9-0.8-37.4-0.8
		c-8.4,0-16.8-0.1-25.2-0.7c-4.1-0.3-8.3-0.8-12.4-1.7c-0.2,0-0.3-0.1-0.5-0.1c-3.4-0.8-3.7-1.2-3.5-4.7c0.5-7.7,1-15.5,1.5-23.2
		c0.1-2.1,0.3-4.1,0.2-6.2c0-1.8,0-3.5,0.4-5.3c0.4-2.3,0.5-4.5,0.1-6.8c-0.4-2.5-0.1-5,0.4-7.5c0.2-1,0.2-2,0.1-3
		c-0.3-4.5-1-9.1-0.8-13.6c0.2-4.4,1.2-8.5,2.7-12.6c0.4-1,0.6-2,0.4-3.1c-0.2-1.2-0.2-2.5,0.1-3.7c0.3-1.7,0.2-3.3,0.1-5
		c-0.2-3.3-0.2-6.5-0.2-9.8c-0.1-12.9,0-25.9-0.1-38.8c0-5.1-1-10.2-1.5-15.3c-0.1-1.3-0.3-2.6-0.5-3.8c-8.8,2.5-17.7,2-26.6,1.1
		c-4.7-0.5-9.4-1.3-14-2.8c-0.9-0.3-1.7-0.6-2.5-1.2c0-1,0-2.1,0-3.1c0.4-0.1,0.3-0.4,0.3-0.7c0.3-1.8,0.7-3.7,1-5.5
		c1.9-10,2.9-20.1,4.4-30.1c0.9-6,1.5-12,3.2-17.8c2.7-9.7,7.4-18.3,15.2-24.9c1.1-0.9,2.2-1.9,3.2-2.9c0.6-0.6,1.3-1,2-1.4
		c6.5-3.1,13.1-5.9,19.8-8.7c7.6-3.1,15-6.6,22.1-10.7c1-0.6,2-1.3,2.8-2.2C75.2,8.7,76.4,8,78,8c-1.7,1.3-2.1,2.5-1.5,4.8
		c0.7,2.5,1.8,4.8,3.4,7c3.3,4.5,7.8,7.8,12.5,10.7c5.9,3.7,12.4,5.7,19.3,6.2c5.2,0.4,10.3-0.4,15.3-2.1c2.7-1,5.2-2.2,7.6-3.6
		c3.9-2.2,7.4-4.9,10.6-8c2.8-2.8,5.1-6.1,6-10.1c0.6-2.7,0.2-3.8-1.6-4.7c1.8-0.1,3,1,4.1,2.2c0.3,0.3,0.4,0.7,0.8,0.9
		c4,2.3,7.9,4.8,12.1,6.7c10.4,4.7,21.1,8.8,31.5,13.6c0.7,0.3,1.3,0.7,1.9,1.2c1.1,0.9,2.1,1.8,3.2,2.7c3.7,2.9,6.8,6.3,9.4,10.2
		c4.3,6.6,6.7,13.9,8.3,21.6c1,4.9,1.2,9.8,2.4,14.7c1.5,5.7,2.6,11.5,3.5,17.4c0.5,3.6,1,7.3,1.7,10.8c0.2,0.8-0.2,1.9,0.8,2.5
		C229,113.7,229,114.9,229,116.1z"></path>
	<path d="M144.3,9.1c-0.8,2.3-2.1,4.1-3.5,5.8c-6.4,7.4-14.3,12.2-24.1,13.4c-6.1,0.7-11.8-0.8-17.3-3.4C93.8,22,89.1,18,85.2,13
		c-0.8-1-1.3-2.1-1.8-3.2c-0.4-0.9-0.1-1,0.7-0.9c3.9,0.4,7.7,0.8,11.6,1.1c6.4,0.5,12.7,1.2,19.1,1c8.3-0.2,16.7-0.8,25-1.5
		C141.3,9.3,142.7,9.2,144.3,9.1z"></path>
</g>
<g onclick="select(this)" class="" id="estampa-secundaria" fill="#021c3b">
	<path d="M187.2,276.3c0.3,1.3,0.2,2.5,0.2,3.8c-6.1,0-12.3,0-18.4,0c-0.4,0-1,0.2-1-0.4c-0.1-1-0.8-0.8-1.4-0.8
		c-8.1,0-16.3,0-24.4,0c-2.7,0-5.4,0-8,0c-0.3,0-0.9-0.2-0.9,0.3c-0.1,1.2-0.9,0.9-1.6,0.9c-10.7,0-21.5,0-32.2,0
		c-0.4,0-1.1-0.2-1.2,0.2c-0.2,1-0.9,0.8-1.4,0.8c-5.3,0-10.5,0-15.8,0c-5.6,0-11.1,0-16.7,0c-0.4,0-1,0.2-1.1-0.2
		c-0.2-1.1-1-0.8-1.5-0.8c-7,0-14.1,0-21.1,0c-0.2-1.3-0.1-2.5,0.1-3.8c0.2,0,0.5,0,0.7,0c6.8,0,13.7,0,20.5,0
		c0.4,0,1.1,0.3,1.2-0.4c0.1-0.7,0.5-0.6,1-0.6c1.6,0,3.3,0,4.9,0c9.3,0,18.6,0,27.9,0c0.4,0,1.1-0.3,1.2,0.3c0.2,1,0.8,0.7,1.4,0.7
		c10.6,0,21.3,0,31.9,0c0.7,0,1.8-0.4,1.9,0.9c0,0.3,0.5,0.2,0.7,0.2c11,0,22.1,0,33.1,0c0.3,0,0.8,0.1,0.8-0.3
		c0.1-1.2,1-0.9,1.6-0.9C175.3,276.3,181.2,276.3,187.2,276.3z"></path>
	<path d="M186.5,269.3c0.2,1.2,0.4,2.5,0.4,3.8c-6,0-12.1,0-18.1,0c-0.4,0-0.9,0.1-0.9-0.4c-0.1-1-0.8-0.8-1.4-0.8
		c-8.2,0-16.4,0-24.6,0c-2.6,0-5.3,0-7.9,0c-0.4,0-0.9-0.2-1,0.4c-0.1,1-0.8,0.8-1.3,0.8c-4.3,0-8.7,0-13.1,0c-6.5,0-12.9,0-19.4,0
		c-0.4,0-1-0.2-1.1,0.3c-0.2,0.9-0.7,0.7-1.3,0.7c-2.9,0-5.8,0-8.8,0c-7.9,0-15.9,0-23.8,0c-0.4,0-1,0.2-1.1-0.2
		c-0.2-1.2-1-0.8-1.7-0.8c-6.9,0-13.8,0-20.7,0c0-1.3,0.1-2.5,0.4-3.8c7,0,13.9,0,20.8,0c0.3,0,0.9,0.2,1-0.2c0.1-1,0.8-0.8,1.4-0.8
		c6,0,12,0,18,0c4.8,0,9.7,0,14.5,0c0.4,0,1-0.2,1.1,0.2c0.2,1,0.8,0.8,1.4,0.8c5.9,0,11.8,0,17.7,0c4.9,0,9.8,0,14.7,0
		c0.4,0,1.1-0.3,1.1,0.3c0.1,1.1,0.8,0.8,1.4,0.8c9.5,0,18.9,0,28.4,0c1.4,0,2.8,0,4.2,0c0.3,0,0.9,0.1,0.9-0.4
		c0-0.9,0.6-0.8,1.2-0.8C174.8,269.3,180.7,269.3,186.5,269.3z"></path>
	<path d="M184.8,227.3c0.4,0.9,0.4,1.8,0.5,2.8c0,0.2,0,0.3,0.1,0.5c0,0.2,0,0.4,0,0.5c-5.4,0-10.8,0-16.2,0
		c-0.4,0-1-0.3-1.1,0.3c-0.2,0.9-0.7,0.7-1.3,0.7c-3.7,0-7.4,0-11.1,0c-7.1,0-14.3,0-21.4,0c-0.4,0-1,0.3-1.1-0.3
		c-0.2-0.9-0.7-0.7-1.3-0.7c-3.2,0-6.3,0-9.5,0c-7.7,0-15.4,0-23.1,0c-0.4,0-1.1,0.3-1.1-0.3c-0.1-1.1-0.8-0.8-1.4-0.8
		c-10.7,0-21.5,0-32.2,0c-0.7,0-1.5-0.3-1.5,0.9c0,0.4-0.5,0.3-0.8,0.3c-6.4,0-12.8,0-19.2,0c0.2-1.3,0.3-2.5,0.5-3.7
		c6.2,0,12.5,0,18.7,0c0.3,0,0.9-0.1,0.9,0.4c0,1,0.7,0.8,1.3,0.8c7.9,0,15.8,0,23.7,0c3,0,6,0,9,0c0.3,0,0.9,0.2,0.9-0.3
		c0.1-1.2,0.9-0.9,1.6-0.9c10.8,0,21.5,0,32.2,0c0.4,0,1.1,0.2,1.2-0.3c0.2-0.9,0.8-0.7,1.4-0.7c0.7,0,1.4,0,2.2,0
		c10.1,0,20.2,0,30.3,0c0.4,0,1.1-0.2,1.2,0.3c0.2,0.8,0.7,0.7,1.3,0.7C174.3,227.3,179.6,227.3,184.8,227.3z"></path>
	<path d="M186.1,263.5c0.2,0.5,0.2,1,0.1,1.5c-5.7,0-11.4,0-17.1,0c-0.4,0-1.1-0.2-1.2,0.4c-0.1,0.9-0.7,0.7-1.2,0.7
		c-4.9,0-9.8,0-14.7,0c-5.9,0-11.8,0-17.7,0c-0.4,0-1-0.3-1.1,0.3c-0.1,0.8-0.6,0.7-1.2,0.7c-3.4,0-6.7,0-10.1,0
		c-7.6,0-15.1,0-22.6,0c-0.4,0-1,0.3-1.1-0.3c-0.2-0.9-0.8-0.7-1.3-0.7c-4.2,0-8.4,0-12.6,0c-6.7,0-13.3,0-20,0
		c-0.4,0-1.1,0.2-1.1-0.3c-0.1-1-0.8-0.8-1.4-0.8c-6.4,0-12.8,0-19.2,0c-0.8,0-1.3-0.2-1.2-1.1c0-0.1,0-0.3,0.1-0.4
		c6.8,0,13.6,0,20.4,0c0.4,0,1.1,0.2,1.1-0.3c0.1-1,0.7-0.8,1.3-0.8c5.1,0,10.2,0,15.3,0c5.8,0,11.5,0,17.3,0c0.5,0,1.1,0.2,1.3-0.7
		c0.1-0.5,0.6-0.3,0.9-0.3c11,0,22,0,33.1,0c0.3,0,0.7-0.1,0.8,0.1c0.3,1.4,1.4,0.8,2.1,0.8c10.6,0,21.1,0,31.6,0
		c0.4,0,1.1-0.2,1.2,0.3c0.2,1.1,1,0.9,1.6,0.9C174.9,263.5,180.5,263.5,186.1,263.5z"></path>
	<path d="M185.6,256.4c0.2,0.5,0.2,1.1,0.1,1.6c-5.6,0-11.1,0-16.6,0c-0.4,0-1.1-0.3-1.2,0.3c-0.2,0.9-0.8,0.7-1.4,0.7
		c-4.9,0-9.8,0-14.7,0c-5.9,0-11.7,0-17.6,0c-0.4,0-1.1-0.2-1.1,0.3c-0.1,1-0.8,0.8-1.4,0.8c-9.2,0-18.4,0-27.7,0c-1.7,0-3.3,0-5,0
		c-0.3,0-0.9,0.2-0.9-0.3c-0.1-1.1-0.8-0.9-1.4-0.9c-10.7,0-21.3,0-32,0c-0.6,0-1.6,0.5-1.8-0.8c0-0.3-0.5-0.2-0.8-0.2
		c-6.8,0-13.6,0-20.4,0c-0.3-0.6,0.1-1.1,0.2-1.6c6.6,0,13.2,0,19.8,0c0.4,0,1.1,0.2,1.2-0.3c0.2-1,0.9-0.7,1.5-0.7
		c7.3,0,14.5,0,21.8,0c3.6,0,7.2,0,10.8,0c0.4,0,1,0.2,1-0.5c0-0.8,0.5-0.7,1-0.7c11,0,22,0,32.9,0c0.3,0,0.8-0.1,0.9,0.2
		c0.3,1.4,1.4,0.9,2.1,0.9c10.6,0,21.2,0,31.8,0c0.4,0,1.1-0.2,1.2,0.3c0.2,0.9,0.8,0.7,1.4,0.7
		C174.7,256.4,180.1,256.4,185.6,256.4z"></path>
	<path d="M185.6,249.4c0.3,0.5,0.2,1.1,0.1,1.6c-5.5,0-11,0-16.5,0c-0.4,0-1-0.2-1.1,0.2c-0.2,1.1-1,0.8-1.6,0.8
		c-6.7,0-13.3,0-20,0c-4.1,0-8.2,0-12.3,0c-0.4,0-1-0.3-1.1,0.4c-0.1,1-0.8,0.8-1.4,0.8c-7.9,0-15.9,0-23.8,0c-2.9,0-5.8,0-8.7,0
		c-0.4,0-1,0.2-1-0.4c0-1-0.7-0.8-1.3-0.8c-4.7,0-9.3,0-14,0c-6.2,0-12.4,0-18.6,0c-0.4,0-1,0.2-1.1-0.2c-0.2-1.1-1-0.8-1.5-0.8
		c-6.4,0-12.9,0-19.3,0c0-0.2,0-0.4,0-0.6c0-0.9,0.5-1.1,1.4-1.1c6.1,0,12.1,0,18.2,0c0.4,0,1.1,0.3,1.2-0.4c0.1-0.7,0.6-0.6,1-0.6
		c2.2,0,4.5,0,6.7,0c8.7,0,17.4,0,26.1,0c0.4,0,1.1,0.2,1.1-0.3c0.1-1.1,0.8-0.9,1.4-0.9c7.6,0,15.2,0,22.8,0c3.3,0,6.6,0,9.8,0
		c0.4,0,1-0.2,1,0.4c0.1,1,0.7,0.8,1.3,0.8c6.2,0,12.4,0,18.6,0c4.7,0,9.3,0,14,0c0.4,0,1-0.3,1.1,0.3c0.2,0.8,0.7,0.6,1.2,0.6
		C174.6,249.4,180.1,249.4,185.6,249.4z"></path>
	<path d="M184.5,206.4c0.1,1.2,0.1,2.4-0.1,3.6c-0.4,0-0.9,0.1-1.3,0.1c-4.7,0-9.4,0-14,0c-0.4,0-1-0.3-1.1,0.4
		c-0.1,0.9-0.8,0.8-1.3,0.8c-2.8,0-5.7,0-8.5,0c-8,0-16,0-24,0c-0.4,0-1.1,0.2-1.1-0.3c-0.1-1.1-0.9-0.8-1.5-0.8
		c-5.4,0-10.8,0-16.2,0s-10.8,0-16.2,0c-0.4,0-1,0.2-1.1-0.2c-0.2-1-0.9-0.8-1.4-0.8c-6.7,0-13.3,0-20,0c-4.2,0-8.3,0-12.5,0
		c-0.4,0-1-0.3-1.1,0.4c-0.1,0.7-0.6,0.6-1,0.6c-6.4,0-12.9,0-19.3,0c0.1-1.2,0.2-2.4,0.7-3.6c6.2,0,12.3,0,18.5,0
		c0.4,0,1-0.3,1.1,0.3c0.1,0.8,0.7,0.7,1.1,0.7c3.6,0,7.1,0,10.7,0c7.3,0,14.7,0,22,0c0.4,0,1,0.2,1.1-0.2c0.2-1.1,0.9-0.8,1.5-0.8
		c1,0,2,0,3,0c9.7,0,19.5,0,29.2,0c0.4,0,1.1,0.2,1.2-0.4c0.1-0.9,0.7-0.8,1.3-0.8c7.4,0,14.7,0,22,0c3.5,0,7,0,10.5,0
		c0.4,0,0.9-0.2,1,0.4c0.1,0.9,0.7,0.8,1.3,0.8C174.2,206.4,179.4,206.4,184.5,206.4z"></path>
	<path d="M184.1,213.4c0.1,1.2-0.1,2.4-0.3,3.6c-4.9,0-9.8,0-14.7,0c-0.4,0-1.1-0.2-1.1,0.4c-0.1,0.9-0.7,0.8-1.3,0.8
		c-8.4,0-16.9,0-25.3,0c-2.4,0-4.9,0-7.3,0c-0.4,0-0.9,0.2-1-0.4c-0.1-0.9-0.6-0.8-1.2-0.8c-4,0-7.9,0-11.9,0c-6.9,0-13.8,0-20.7,0
		c-0.4,0-1,0.3-1.1-0.3c-0.2-0.9-0.8-0.7-1.3-0.7c-4.4,0-8.8,0-13.2,0c-6.5,0-12.9,0-19.4,0c-0.4,0-1-0.3-1.1,0.3
		c-0.2,0.9-0.8,0.7-1.3,0.7c-6.4,0-12.9,0-19.3,0c-0.2-1.2-0.2-2.4,0-3.6c6.5,0,12.9,0,19.4,0c0.4,0,1-0.3,1.1,0.4
		c0.1,0.6,0.5,0.6,0.9,0.6c11.1,0,22.1,0,33.2,0c0.3,0,0.8,0.1,0.8-0.3c0.1-1,0.8-0.7,1.3-0.7c8.7,0,17.4,0,26.1,0
		c2.2,0,4.4,0,6.6,0c0.4,0,0.9,0.2,1-0.4c0.1-1,0.8-0.8,1.3-0.8c6.8,0,13.6,0,20.4,0c4,0,8.1,0,12.1,0c0.4,0,1.1-0.2,1.2,0.4
		c0.1,0.9,0.7,0.7,1.2,0.7C174.1,213.4,179.1,213.4,184.1,213.4z"></path>
	<path d="M185.4,235.4c0.1,0.4,0.1,0.7,0,1.1c-0.1,0.1-0.1,0.1,0,0.2c0,0.1-0.1,0.1-0.1,0.2c-5.4,0-10.9,0-16.3,0
		c-0.4,0-1.1-0.2-1.1,0.4c-0.1,1-0.9,0.8-1.4,0.8c-10.6,0-21.2,0-31.8,0c-0.7,0-1.6-0.4-1.9,0.8c-0.1,0.3-0.5,0.2-0.8,0.2
		c-11.1,0-22.1,0-33.2,0c-0.3,0-0.8,0.1-0.8-0.3c-0.1-1-0.9-0.7-1.4-0.7c-8.2,0-16.3,0-24.5,0c-2.7,0-5.4,0-8.2,0
		c-0.4,0-1,0.2-1-0.4c0-1-0.7-0.8-1.3-0.8c-6.3,0-12.7,0-19,0c-0.1-0.5-0.2-1-0.1-1.5c6.4,0,12.8,0,19.2,0c0.4,0,1.1,0.3,1.2-0.4
		c0.1-0.8,0.6-0.7,1.1-0.7c1.9,0,3.8,0,5.8,0c8.9,0,17.9,0,26.8,0c0.4,0,1.2,0.2,1.2-0.2c0.2-1.1,1-0.8,1.7-0.8c1.4,0,2.9,0,4.3,0
		c9.3,0,18.6,0,27.9,0c0.4,0,1.1-0.2,1.2,0.3c0.2,0.9,0.8,0.7,1.4,0.7c5,0,10.1,0,15.1,0c5.8,0,11.5,0,17.3,0c0.4,0,1.1-0.2,1.1,0.3
		c0.1,1,0.8,0.8,1.4,0.8C174.6,235.4,180,235.4,185.4,235.4z"></path>
	<path d="M184.7,242.4c0,0.5,0.1,1.1,0.1,1.6c-5.2,0-10.5,0-15.7,0c-0.4,0-1-0.2-1.1,0.2c-0.3,1-1,0.8-1.6,0.8
		c-7.7,0-15.3,0-23,0c-3.1,0-6.3,0-9.5,0c-0.3,0-0.9-0.2-0.9,0.3c-0.1,1.1-0.9,0.9-1.6,0.9c-8.9,0-17.9,0-26.8,0c-1.9,0-3.8,0-5.6,0
		c-0.4,0-1,0.2-1-0.4c0-1-0.7-0.8-1.3-0.8c-5.2,0-10.5,0-15.7,0c-5.6,0-11.3,0-16.9,0c-0.4,0-1,0.2-1.1-0.2c-0.2-1.1-1-0.8-1.6-0.8
		c-6.3,0-12.6,0-18.9,0c0-0.6-0.1-1.1,0.2-1.6c6.3,0,12.6,0,18.9,0c0.4,0,1,0.3,1.2-0.3c0.2-0.9,0.7-0.7,1.3-0.7c3.2,0,6.5,0,9.7,0
		c7.6,0,15.2,0,22.8,0c0.4,0,1.2,0.2,1.2-0.4c0.1-1,0.7-0.8,1.3-0.8c6.7,0,13.4,0,20.1,0c4.2,0,8.3,0,12.5,0c0.4,0,1.1-0.3,1.1,0.4
		c0.1,1,0.7,0.8,1.3,0.8c0.6,0,1.2,0,1.8,0c10.1,0,20.3,0,30.4,0c0.4,0,1.1-0.3,1.3,0.3c0.3,0.9,0.8,0.7,1.4,0.7
		C174.3,242.4,179.5,242.4,184.7,242.4z"></path>
	<path d="M183.3,220.4c-0.2,1.3,0.7,2.4,0.7,3.7c-4.9,0-9.9,0-14.9,0.1c-0.4,0-1.1-0.3-1.2,0.4
		c-0.1,0.7-0.6,0.6-1.1,0.6c-2.2,0-4.5,0-6.7,0c-8.7,0-17.3,0-26,0c-0.4,0-1,0.3-1.1-0.3c-0.2-0.9-0.7-0.7-1.3-0.7
		c-4.2,0-8.4,0-12.6,0c-6.7,0-13.3,0-20,0c-0.4,0-1.1,0.2-1.1-0.3c-0.1-1.1-0.8-0.8-1.4-0.8c-10.8,0-21.6,0-32.4,0
		c-0.2,0-0.5,0-0.7,0c-0.3,0-0.6,0.1-0.6,0.4c0,0.7-0.5,0.7-1,0.7c-6.3,0-12.6,0-18.9,0c-0.3-1.2-0.3-2.5-0.4-3.8c6.3,0,12.7,0,19,0
		c0.4,0,1.1-0.2,1.2,0.3c0.1,1.1,0.8,0.9,1.5,0.9c8.5,0,17,0,25.5,0c2.4,0,4.7,0,7.1,0c0.3,0,0.9,0.2,0.9-0.3
		c0.1-1.2,0.9-0.9,1.6-0.9c10.7,0,21.5,0,32.2,0c0.4,0,1.1,0.2,1.2-0.3c0.2-1,0.9-0.7,1.5-0.8c1.1,0,2.2,0,3.4,0
		c9.6,0,19.3,0,28.9,0c0.4,0,1.1-0.2,1.2,0.3c0.2,0.9,0.8,0.7,1.4,0.7C173.8,220.4,178.6,220.4,183.3,220.4z"></path>
	<path d="M184.1,123.5c0,0.4,0,0.8-0.1,1.1c-0.3,0.6-0.9,0.4-1.4,0.5c-4.6,0-9.1,0-13.6,0c-0.4,0-1-0.2-1.1,0.2
		c-0.2,1-0.9,0.8-1.5,0.8c-9.1,0-18.3,0-27.4,0c-1.7,0-3.4,0-5.1,0c-0.3,0-0.9-0.1-0.9,0.4c0,0.9-0.6,0.8-1.2,0.8
		c-5.7,0-11.4,0-17.1,0c-5.2,0-10.4,0-15.6,0c-0.4,0-1,0.2-1.1-0.2c-0.2-1.2-1-0.9-1.7-0.9c-10.7,0-21.4,0-32.1,0
		c-0.4,0-1.1,0.2-1.2-0.2c-0.2-1-0.9-0.7-1.5-0.7c-5.9,0-11.7,0-17.6,0c-0.2-0.5-0.3-1-0.2-1.6c0.5,0,1-0.1,1.4-0.1
		c5.5,0,11,0,16.5,0c0.4,0,1,0.2,1.1-0.2c0.2-1,0.9-0.7,1.5-0.7c10.7,0,21.4,0,32.1,0c0.3,0,0.6,0,1,0c0.3,0,0.5-0.1,0.5-0.4
		c0-1,0.7-0.8,1.2-0.8c7.5,0,15,0,22.5,0c3.4,0,6.7,0,10.1,0c0.4,0,1-0.2,1.1,0.3c0.2,1.2,1,0.9,1.7,0.9c10.7,0,21.4,0,32.1,0
		c0.4,0,1.1-0.2,1.2,0.3c0.2,1,0.9,0.7,1.5,0.7C174.2,123.4,179.1,123.4,184.1,123.5z"></path>
	<path d="M183.8,199.3c0.5,1.2,0.5,2.4,0.5,3.7c-0.2,0-0.4,0-0.6,0c-4.9,0-9.8,0-14.7,0c-0.4,0-1-0.3-1.1,0.4
		c-0.1,0.8-0.7,0.6-1.2,0.6c-2.3,0-4.6,0-6.9,0c-8.5,0-17,0-25.5,0c-0.4,0-1.1,0.2-1.2-0.3c-0.2-0.9-0.8-0.7-1.4-0.7
		c-0.8,0-1.6,0-2.4,0c-10,0-20.1,0-30.1,0c-0.4,0-1.1,0.3-1.1-0.3c-0.2-1.1-0.9-0.8-1.5-0.8c-5.6,0-11.1,0-16.7,0
		c-5.2,0-10.4,0-15.6,0c-0.5,0-1.2-0.3-1.3,0.5c-0.1,0.8-0.6,0.6-1,0.6c-5.9,0-11.8,0-17.7,0c0.2-1.4,0.7-2.6,1.3-3.8
		c0.2,0,0.5,0.1,0.7,0.1c5.2,0,10.4,0,15.6,0c0.4,0,1-0.2,1,0.3c0.1,1.1,0.8,0.9,1.4,0.9c7.5,0,15,0,22.5,0c3.3,0,6.7,0,10.1,0
		c0.4,0,1,0.2,1-0.4c0.1-1,0.7-0.8,1.3-0.8c7.3,0,14.6,0,21.9,0c3.6,0,7.1,0,10.7,0c0.4,0,1,0.3,1.1-0.4c0.1-0.7,0.6-0.6,1.1-0.6
		c11,0,22,0,32.9,0c0.3,0,0.8-0.1,0.9,0.2c0.3,1.1,1.1,0.8,1.8,0.8C174.3,199.3,179.1,199.3,183.8,199.3z"></path>
	<path d="M45,133c-0.2-1.2-0.5-2.4-0.4-3.6c0.5,0,1-0.1,1.4-0.1c5.3,0,10.5,0,15.8,0c0.4,0,1.1,0.3,1.2-0.4
		c0.1-0.8,0.6-0.7,1.1-0.7c10.9,0,21.9,0,32.8,0c0.3,0,0.8-0.1,0.9,0.2c0.2,1.5,1.4,0.9,2.1,0.9c10.6,0,21.2,0,31.8,0
		c0.4,0,1.1-0.2,1.2,0.3c0.2,0.9,0.8,0.7,1.4,0.7c10.7,0,21.3,0,32,0c0.6,0,1.5,0.4,1.7-0.8c0-0.3,0.5-0.2,0.8-0.2
		c4.6,0,9.3,0,13.9,0c0.5,0,0.9,0.1,0.8,0.7c0,1-0.1,2-0.3,2.9c-4.8,0-9.5,0-14.3,0c-0.3,0-0.9,0.2-0.9-0.3
		c-0.1-0.9-0.8-0.7-1.3-0.7c-1.5,0-3,0-4.6,0c-9.3,0-18.5,0-27.8,0c-0.4,0-1.1-0.3-1.1,0.3c-0.2,0.9-0.8,0.7-1.4,0.7
		c-10.7,0-21.4,0-32.1,0c-0.7,0-1.6-0.4-1.7,0.9c0,0.4-0.5,0.3-0.8,0.3c-11.1,0-22.1,0-33.2,0c-0.3,0-0.8,0.1-0.8-0.3
		c0-1.1-0.8-0.9-1.4-0.9C56.1,133,50.5,133,45,133z"></path>
	<path d="M183,157.4c0,1.2-0.1,2.4-0.4,3.6c-4.6,0-9.2,0-13.8,0c-0.4,0-1,0.2-1.1-0.4c-0.1-0.7-0.5-0.6-1-0.6
		c-11,0-22,0-32.9,0c-0.3,0-0.8-0.1-0.8,0.2c-0.1,1-0.9,0.8-1.4,0.8c-6.7,0-13.4,0-20.1,0c-4.1,0-8.2,0-12.3,0
		c-0.4,0-1.1-0.3-1.1,0.4c-0.1,1-0.7,0.8-1.3,0.8c-4.6,0-9.2,0-13.8,0c-6.3,0-12.5,0-18.8,0c-0.4,0-1.1,0.3-1.1-0.3
		c-0.1-1.1-0.8-0.8-1.3-0.8c-5.4,0-10.9,0-16.3,0c-0.3-1.2,0-2.4,0.1-3.6c0.3,0,0.6,0,1,0c5.1,0,10.2,0,15.3,0
		c0.4,0,1.1,0.3,1.1-0.4c0.1-1,0.7-0.8,1.3-0.8c4.4,0,8.9,0,13.3,0c6.4,0,12.9,0,19.3,0c0.4,0,1-0.2,1.1,0.2
		c0.1,1.3,1.1,0.9,1.8,0.9c10.7,0,21.3,0,32,0c0.4,0,1.1-0.2,1.2,0.2c0.2,1.1,1,0.8,1.7,0.8c6.8,0,13.6,0,20.4,0c3.9,0,7.8,0,11.7,0
		c0.4,0,1,0.3,1.1-0.3c0.1-0.8,0.7-0.6,1.2-0.6C173.6,157.4,178.3,157.4,183,157.4z"></path>
	<path d="M182.8,136.4c0.1,1.3-0.1,2.5-0.2,3.7c-4.6,0-9.2,0-13.8,0c-0.4,0-0.9,0.1-1-0.4c-0.1-0.9-0.7-0.7-1.2-0.7
		c-3.1,0-6.1,0-9.2,0c-7.8,0-15.5,0-23.2,0c-0.4,0-1.1-0.3-1.1,0.3c-0.1,1-0.8,0.8-1.4,0.8c-5.8,0-11.5,0-17.3,0
		c-5.1,0-10.1,0-15.2,0c-0.4,0-1-0.3-1.1,0.3c-0.1,0.8-0.7,0.6-1.2,0.6c-4.1,0-8.2,0-12.3,0c-6.8,0-13.6,0-20.4,0
		c-0.4,0-1,0.2-1.1-0.2c-0.2-1.1-0.9-0.8-1.5-0.8c-5.3,0-10.7,0-16-0.1c-0.1-1.2-0.1-2.5-0.2-3.7c0.4,0,0.7-0.1,1.1-0.1
		c5.2,0,10.3,0,15.5,0c0.4,0,1,0.2,1.1-0.2c0.2-1.1,1-0.8,1.6-0.8c4.9,0,9.7,0,14.6,0c5.9,0,11.8,0,17.7,0c0.4,0,1-0.3,1.1,0.3
		c0.1,0.8,0.6,0.7,1.1,0.7c3.3,0,6.6,0,9.8,0c7.6,0,15.3,0,22.9,0c0.4,0,1.1-0.3,1.1,0.3c0.1,1,0.8,0.8,1.4,0.8c6.8,0,13.6,0,20.4,0
		c4,0,8,0,12,0c0.4,0,1.1,0.3,1.2-0.4c0.1-0.7,0.5-0.7,1-0.7C173.5,136.4,178.1,136.4,182.8,136.4z"></path>
	<path d="M45.5,147.1c-0.1-1.2-0.1-2.5,0-3.7c5.3,0,10.5,0,15.8-0.1c0.7,0,1.6,0.4,1.8-0.8c0-0.3,0.5-0.2,0.8-0.2
		c11.1,0,22.1,0,33.2,0c0.3,0,0.8-0.1,0.8,0.2c0.1,1,0.9,0.7,1.4,0.7c5.9,0,11.9,0,17.8,0c4.8,0,9.7,0,14.5,0c0.4,0,1.1-0.2,1.2,0.3
		c0.2,1.1,0.9,0.8,1.5,0.8c10.6,0,21.2,0,31.8,0c0.7,0,1.6,0.4,1.8-0.9c0-0.3,0.5-0.3,0.9-0.3c4.6,0,9.2,0,13.8,0c0,0.6,0,1.3,0,1.9
		c-0.2,0.3-0.1,0.6-0.1,0.9c0,0.6-0.2,0.9-0.9,0.9c-4.3,0-8.5,0-12.8,0c-0.4,0-0.9,0.1-0.9-0.5c-0.1-0.8-0.6-0.6-1.1-0.6
		c-2.3,0-4.6,0-6.9,0c-8.5,0-17.1,0-25.6,0c-0.4,0-1.1-0.3-1.2,0.4c-0.1,0.9-0.7,0.7-1.2,0.7c-4.1,0-8.2,0-12.3,0
		c-6.8,0-13.5,0-20.2,0c-0.4,0-1-0.3-1.1,0.3c-0.1,0.8-0.6,0.7-1.1,0.7c-2.4,0-4.8,0-7.2,0c-8.5,0-16.9,0-25.4,0
		c-0.4,0-1.2,0.2-1.2-0.2c-0.2-1.2-1-0.8-1.7-0.8C56.2,147.1,50.8,147.1,45.5,147.1z"></path>
	<path d="M45.6,197.2c-0.5-2,0-3.9,0.3-5.9c5.3,0,10.7,0,16,0c0.3,0,0.8-0.1,0.9,0.2c0.1,1.5,1.2,0.9,2,0.9
		c10.6,0,21.3,0,31.9,0c0.4,0,1.1-0.3,1.2,0.4c0.1,0.6,0.5,0.6,0.9,0.6c11.1,0,22.1,0,33.2,0c0.3,0,0.8,0.1,0.8-0.3
		c0.1-0.9,0.8-0.7,1.4-0.7c4.3,0,8.6,0,12.9,0c6.5,0,12.9,0,19.4,0c0.4,0,1.1,0.3,1.2-0.4c0.1-0.8,0.6-0.7,1.1-0.7c4.5,0,9,0,13.5,0
		c0.3,2,1,3.9,1.1,5.9c-4.9,0-9.9,0-14.9,0.1c-0.4,0-0.9,0-0.9-0.5c0-0.7-0.5-0.6-0.9-0.6c-1.5,0-3,0-4.4,0c-9.4,0-18.9,0-28.3,0
		c-0.4,0-1.1,0.3-1.2-0.4c-0.1-0.6-0.5-0.6-1-0.6c-11,0-22.1,0-33.1,0c-0.3,0-0.8-0.1-0.9,0.2c-0.2,1.1-0.9,0.8-1.6,0.8
		c-10.7,0-21.3,0-32,0c-0.3,0-0.6,0-1,0c-0.3,0-0.6,0.1-0.6,0.4c0,0.7-0.4,0.7-1,0.7C56.6,197.2,51.1,197.2,45.6,197.2z"></path>
	<path d="M182.6,163.2c0,2,0.3,3.9,0.1,5.9c-4.6,0-9.1,0-13.7,0c-0.4,0-1,0.2-1.1-0.3c-0.1-1.1-0.9-0.8-1.5-0.8
		c-10.5,0-20.9,0-31.4,0c-0.8,0-1.9,0.6-2.2-0.8c0-0.1-0.5-0.1-0.8-0.1c-11,0-22.1,0-33.1,0c-0.3,0-0.8-0.1-0.8,0.2
		c-0.1,1-0.9,0.8-1.4,0.8c-7.1,0-14.2,0-21.3,0c-3.8,0-7.5,0-11.3,0c-0.4,0-1-0.2-1,0.4c0,0.9-0.6,0.8-1.1,0.8c-5.4,0-10.8,0-16.2,0
		c-0.3-2-0.4-3.9-0.3-5.9c5.5,0,11,0,16.4,0c0.4,0,1-0.2,1,0.3c0.1,1.2,0.9,0.9,1.6,0.9c10.8,0,21.5,0,32.2,0c0.4,0,1.1-0.2,1.2,0.3
		c0.2,0.9,0.8,0.7,1.3,0.7c0.9,0,1.8,0,2.6,0c9.9,0,19.9,0,29.8,0c0.4,0,1.1,0.2,1.2-0.3c0.2-0.9,0.8-0.7,1.4-0.7
		c5.9,0,11.8,0,17.7,0c4.9,0,9.8,0,14.6,0c0.4,0,1.1,0.3,1.2-0.4c0.1-0.8,0.6-0.7,1.1-0.7C173.4,163.2,178,163.2,182.6,163.2z"></path>
	<path d="M182.4,177.3c0.1,1.9,0.3,3.9,0.2,5.8c-4.6,0-9.1,0-13.7,0c-0.4,0-1,0.2-1.1-0.3c-0.2-0.9-0.8-0.7-1.4-0.7
		c-3.5,0-7,0-10.5,0c-7.3,0-14.5,0-21.8,0c-0.4,0-1.1,0.2-1.2-0.3c-0.2-1.1-0.9-0.8-1.5-0.8c-5.1,0-10.1,0-15.2,0
		c-5.7,0-11.4,0-17.1,0c-0.4,0-1.1-0.3-1.2,0.4c-0.1,0.8-0.6,0.7-1.1,0.7c-3.7,0-7.3,0-11,0c-7.2,0-14.4,0-21.7,0
		c-0.4,0-1.1-0.3-1.2,0.4c-0.1,0.7-0.5,0.6-1,0.6c-5.4,0-10.9,0-16.3,0c-0.2-1.9-0.3-3.8-0.2-5.8c5.5,0,10.9,0,16.4,0
		c0.3,0,0.9-0.2,0.9,0.3c0.2,1,0.9,0.7,1.4,0.7c6.9,0,13.8,0,20.7,0c3.9,0,7.9,0,11.9,0c0.4,0,1-0.2,1,0.4c0.1,1,0.7,0.8,1.3,0.8
		c4.6,0,9.3,0,13.9,0c6.2,0,12.4,0,18.6,0c0.4,0,1.1,0.2,1.2-0.3c0.2-1.1,1-0.8,1.6-0.8c1,0,2.1,0,3.1,0c9.7,0,19.3,0,29,0
		c0.4,0,1.1,0.2,1.2-0.3c0.2-0.9,0.8-0.7,1.4-0.7C173.5,177.3,177.9,177.3,182.4,177.3z"></path>
	<path d="M45.5,176.1c-0.2-2,0.1-3.9,0.3-5.9c5.4,0,10.9,0,16.3,0c0.3,0,0.9-0.1,0.9,0.3c0,1,0.7,0.8,1.2,0.8
		c2.8,0,5.5,0,8.3,0c8.1,0,16.2,0,24.3,0c0.4,0,1-0.3,1.1,0.3c0.2,0.9,0.7,0.7,1.3,0.7c4.6,0,9.2,0,13.8,0c6.3,0,12.5,0,18.8,0
		c0.4,0,1,0.3,1.1-0.3c0.2-0.9,0.8-0.7,1.3-0.7c6,0,12,0,18,0c4.8,0,9.7,0,14.5,0c0.4,0,1.1,0.3,1.2-0.4c0.1-0.7,0.5-0.7,1-0.7
		c4.6,0,9.2,0,13.8,0c-0.1,2-0.1,3.9-0.2,5.9c-4.4,0-8.9,0-13.3,0c-0.4,0-1.1,0.2-1.2-0.4c-0.1-0.9-0.7-0.7-1.2-0.7
		c-5.7,0-11.4,0-17.1,0c-5.1,0-10.2,0-15.3,0c-0.5,0-1.1,0.2-1.3-0.7c-0.1-0.5-0.6-0.3-0.9-0.3c-11,0-22.1,0-33.1,0
		c-0.3,0-0.8-0.1-0.8,0.2c-0.1,1-0.9,0.7-1.4,0.8c-8.2,0-16.4,0-24.6,0c-2.7,0-5.3,0-8,0c-0.4,0-1-0.2-1,0.4c0,1-0.7,0.8-1.3,0.8
		C56.3,176.1,50.9,176.1,45.5,176.1z"></path>
	<path d="M45.9,190.1c-0.3-1.8-0.5-3.5-0.2-5.3c0.2-0.4,0.6-0.4,1-0.4c5.1,0,10.2,0,15.3,0c0.3,0,0.8-0.1,0.8,0.3
		c0.1,1,0.8,0.7,1.3,0.7c10.8,0,21.5,0,32.2,0c0.7,0,1.5-0.3,1.5,0.9c0,0.4,0.5,0.3,0.8,0.3c11,0,22,0,33.1,0c0.3,0,0.8,0.1,0.9-0.3
		c0.2-1.3,1.1-0.9,1.8-0.9c10.6,0,21.3,0,31.9,0c0.4,0,1.1,0.2,1.2-0.3c0.2-0.9,0.8-0.7,1.4-0.7c4.5,0,9,0,13.5,0
		c-0.1,1.9-0.1,3.9-0.2,5.8c-4.5,0-8.9,0-13.4,0c-0.4,0-1,0.2-1.1-0.3c-0.2-1-0.9-0.7-1.5-0.7c-10.7,0-21.3,0-32,0
		c-0.6,0-1.5,0.3-1.6-0.9c-0.1-0.4-0.6-0.3-0.9-0.3c-1.5,0-3,0-4.6,0c-9.4,0-18.8,0-28.2,0c-0.4,0-1.1-0.3-1.1,0.3
		c-0.1,1.1-0.8,0.8-1.5,0.8c-7.5,0-15,0-22.5,0c-3.3,0-6.7,0-10.1,0c-0.3,0-0.9-0.2-1,0.4c-0.1,0.7-0.6,0.6-1,0.6
		C56.6,190.1,51.3,190.1,45.9,190.1z"></path>
	<path d="M182.4,150.5c0.1,0,0.1,0.1,0,0.1c0,0.3-0.1,0.7,0.1,1c0.1,0.8,0.2,1.6,0.3,2.4c-4.7,0-9.3,0-14,0
		c-0.4,0-0.9,0.1-1-0.4c-0.1-0.6-0.6-0.6-1-0.6c-11,0-22,0-32.9,0c-0.3,0-0.8-0.1-0.8,0.2c-0.1,1-0.9,0.8-1.4,0.8
		c-10.8,0-21.6,0-32.3,0c-0.4,0-1.1-0.2-1.2,0.2c-0.2,1-0.9,0.8-1.4,0.8c-6.2,0-12.4,0-18.6,0c-4.6,0-9.3,0-13.9,0
		c-0.4,0-1,0.2-1.1-0.2c-0.2-1.1-1-0.8-1.5-0.8c-5.3,0-10.7,0-16,0c-0.1-1.2-0.1-2.4,0-3.6c0.5,0,1,0,1.4,0c5,0,9.9,0,14.9,0
		c0.4,0,1.1,0.2,1.1-0.3c0.1-1.1,0.8-0.8,1.4-0.8c10.8,0,21.6,0,32.3,0c0.2,0,0.5,0,0.7,0c0.3,0,0.6,0,0.6,0.4
		c0,0.8,0.5,0.7,1.1,0.7c2.4,0,4.7,0,7.1,0c8.6,0,17.1,0,25.6,0c0.4,0,1.1-0.2,1.2,0.3c0.2,0.9,0.8,0.7,1.4,0.7
		c10.5,0,20.9,0,31.4,0c0.8,0,2,0.5,2.4-0.9c0-0.1,0.4-0.1,0.7-0.1C173.3,150.4,177.8,150.5,182.4,150.5z"></path>
	<path d="M44.7,283.3c5.6,0,11.3,0,16.9,0c0.6,0,1.3,0.3,1.4-0.8c0-0.4,0.5-0.2,0.8-0.2c11.1,0,22.1,0,33.2,0
		c0.3,0,0.7-0.1,0.8,0.2c0.2,1.2,1.1,0.8,1.8,0.8c10.6,0,21.2,0,31.7,0c0.7,0,1.6-0.3,1.7,0.9c0.1,0.4,0.7,0.2,1.1,0.2
		c5,0,10.1,0,15.1,0c5.8,0,11.5,0,17.3,0c0.6,0,1.3,0.2,1.4-0.8c0.1-0.5,0.7-0.4,1.1-0.4c5.3,0,10.6,0,15.9,0
		c-2.5,0.9-5.2,1-7.9,1.4c-9.4,1.1-18.8,1-28.2,1.2c-10.9,0.3-21.9,0.7-32.8,0.7c-12.8,0-25.7-0.8-38.6-0.9c-7.3,0-14.7-0.1-22-0.8
		C51.9,284.5,48.3,284.3,44.7,283.3z"></path>
	<path d="M182.6,151.6c-0.2-0.3-0.1-0.7-0.1-1C182.6,150.9,182.6,151.3,182.6,151.6z"></path>
	<path d="M185.4,230.5c0-0.2,0-0.3-0.1-0.5C185.4,230.2,185.4,230.4,185.4,230.5z"></path>
	<path d="M185.4,236.7c-0.1-0.1-0.1-0.1,0-0.2C185.5,236.6,185.5,236.6,185.4,236.7z"></path>
	<path d="M31.8,50.2c0-2-0.5-3.9-0.6-5.8c10.2,0,20.4,0,30.6,0c0.4,0,1.1-0.2,1.2,0.2c0.2,1,0.9,0.8,1.4,0.8
		c6.5,0,12.9,0,19.4,0c4.3,0,8.7,0,13.1,0c0.4,0,1.1-0.3,1.1,0.3c0.1,1,0.7,0.8,1.3,0.8c6.8,0,13.5,0,20.3,0c4.1,0,8.2,0,12.2,0
		c0.4,0,1.1,0.2,1.2-0.3c0.2-1.1,0.9-0.8,1.5-0.8c10.7,0,21.4,0,32.1,0c0.4,0,1.1,0.2,1.2-0.2c0.2-1,0.9-0.8,1.5-0.8
		c9.1,0,18.2,0,27.3,0c-0.4,1.9-0.4,3.9-0.9,5.8c-0.2,0-0.5,0-0.7,0c-8.6,0-17.2,0-25.8,0c-0.4,0-1.1,0.2-1.2-0.3
		c-0.2-0.8-0.7-0.8-1.2-0.8c-3.1,0-6.1,0-9.2,0c-7.8,0-15.5,0-23.2,0c-0.4,0-1.1,0.2-1.2-0.3c-0.2-1.1-0.9-0.8-1.5-0.8
		c-6.3,0-12.5,0-18.8,0c-4.5,0-9,0-13.5,0c-0.4,0-1-0.2-1.1,0.2c-0.2,1.2-1.1,0.8-1.7,0.9c-1,0-1.9,0-2.9,0c-9.8,0-19.5,0-29.2,0
		c-0.4,0-1.1-0.2-1.2,0.3c-0.2,1-0.8,0.7-1.3,0.7c-1,0-2.1,0-3.1,0C49.7,50.2,40.7,50.2,31.8,50.2z"></path>
	<path d="M32.7,57.2c-0.4-1.2-0.2-2.5-0.4-3.7c-0.1-0.7-0.2-1.4-0.2-2.1c9.9,0,19.8,0,29.7,0c0.4,0,1-0.2,1.1,0.2
		c0.2,1,0.9,0.8,1.4,0.8c7.6,0,15.2,0,22.8,0c3.3,0,6.6,0,9.8,0c0.4,0,1-0.2,1,0.4c0,1,0.7,0.8,1.3,0.8c5.7,0,11.4,0,17.1,0
		c5.1,0,10.2,0,15.3,0c0.4,0,1.1,0.2,1.2-0.3c0.2-1,0.9-0.8,1.5-0.8c10.7,0,21.4,0,32.1,0c0.4,0,1.1,0.2,1.2-0.2
		c0.2-1.1,1-0.8,1.6-0.8c8.8,0,17.5,0,26.3,0c0.3,0.6,0.4,1.3,0.1,1.9c-0.5,1.2-0.4,2.6-0.6,3.9c-0.4,0-0.7,0-1.1,0
		c-8.3,0-16.6,0-24.9,0c-0.4,0-1,0.3-1.1-0.3c-0.2-0.9-0.8-0.7-1.3-0.7c-6.6,0-13.3,0-19.9,0c-4.2,0-8.4,0-12.6,0
		c-0.4,0-1.1,0.3-1.2-0.5c-0.1-0.7-0.6-0.7-1-0.7c-11,0-22.1,0-33.1,0c-0.3,0-0.8-0.1-0.8,0.3c-0.1,1.1-0.8,0.8-1.4,0.8
		c-10.8,0-21.6,0-32.3,0c-0.4,0-1-0.2-1.1,0.2c-0.3,1.3-1.2,0.8-1.9,0.8C51.8,57.2,42.3,57.2,32.7,57.2z"></path>
	<path d="M30.6,41.3c4.1-1.7,8.2-3.1,12.5-4c0.4,0.2,0.9,0.1,1.3,0.1c5.8,0,11.6,0,17.4,0c0.4,0,1-0.2,1.1,0.2
		c0.2,1.1,0.9,0.8,1.5,0.8c10.5,0,21,0,31.5,0c0.8,0,1.9-0.6,2.2,0.8c0,0.1,0.5,0.1,0.8,0.1c11,0,22,0,33.1,0c0.3,0,0.7,0.1,0.8-0.2
		c0.3-1.3,1.3-0.8,2-0.8c10.6,0,21.2,0,31.8,0c0.4,0,1.1,0.3,1.2-0.3c0.2-0.9,0.8-0.7,1.4-0.7c3.2,0,6.4,0,9.6,0
		c1.1,0,2.1,0.2,3.2-0.1c5.1,1.2,10.1,2.6,15,4.4c0.1,0.5-0.1,1-0.2,1.5c-4.9,0-9.8,0-14.7,0c-4.3,0-8.6,0-12.9,0
		c-0.4,0-1.1,0.2-1.1-0.3c-0.1-1-0.8-0.8-1.4-0.8c-10.6,0-21.2,0-31.8,0c-0.7,0-1.6,0.4-1.9-0.8c-0.1-0.3-0.5-0.2-0.8-0.2
		c-11.1,0-22.1,0-33.2,0c-0.3,0-0.8-0.1-0.8,0.4C98,42.2,97.4,42,97,42c-1.9,0-3.8,0-5.8,0c-9,0-18,0-27,0c-0.4,0-1.1-0.2-1.1,0.2
		c-0.2,1.5-1.3,0.9-2,0.9c-10,0-20.1,0-30.1,0.1C30.5,42.7,30.6,42,30.6,41.3z"></path>
	<path d="M33.1,63.1c-0.8-1.2-0.4-2.5-0.2-3.8c6.1,0,12.2,0,18.3,0c3.6,0,7.1,0,10.7,0c0.4,0,1-0.2,1,0.3
		c0.1,1.2,0.9,0.9,1.6,0.9c10.6,0,21.1,0,31.7,0c0.7,0,1.9,0.5,2-0.9c0-0.1,0.3-0.2,0.5-0.2c0.3,0,0.6,0,1,0c10.7,0,21.4,0,32.1,0
		c0.4,0,1.1,0.2,1.2-0.3c0.2-0.9,0.8-0.7,1.4-0.7c1.5,0,3,0,4.6,0c9.3,0,18.6,0,27.9,0c0.4,0,1.1-0.3,1.2,0.4c0.1,0.6,0.5,0.6,1,0.6
		c8.7,0,17.3,0,26,0c0.5,1.3,0,2.5-0.1,3.8c-8.6,0-17.2,0-25.8,0c-0.4,0-1-0.3-1.1,0.3c-0.2,0.8-0.7,0.7-1.3,0.7
		c-5.1,0-10.1,0-15.2,0c-5.8,0-11.5,0-17.3,0c-0.4,0-1,0.3-1.1-0.3c-0.2-0.9-0.8-0.7-1.3-0.7c-3.8,0-7.6,0-11.4,0
		c-7.1,0-14.1,0-21.2,0c-0.4,0-1.1,0.3-1.2-0.4C98,61.8,97.4,62,96.9,62c-2.1,0-4.2,0-6.2,0c-8.8,0-17.7,0-26.5,0
		c-0.4,0-1.1-0.3-1.1,0.3c-0.1,1-0.8,0.8-1.4,0.8C52.2,63.1,42.6,63.1,33.1,63.1z"></path>
	<path d="M33.5,77.1c-0.5-1.2-0.7-2.4-0.5-3.7c0.8,0,1.5,0,2.3,0c8.8,0,17.6,0,26.5,0c0.4,0,1-0.3,1.1,0.3
		c0.2,0.9,0.8,0.7,1.3,0.7c3.9,0,7.8,0,11.7,0c6.9,0,13.9,0,20.8,0c0.4,0,1,0.3,1.1-0.3c0.2-0.9,0.8-0.7,1.3-0.7c5,0,10.1,0,15.1,0
		c5.8,0,11.7,0,17.5,0c0.4,0,1.1,0.3,1.1-0.3c0.1-1.1,0.8-0.8,1.4-0.8c5.4,0,10.7,0,16.1,0c5.4,0,10.9,0,16.3,0
		c0.4,0,1.1-0.2,1.1,0.3c0.1,0.9,0.7,0.8,1.3,0.8c8.5,0,17,0,25.5,0c0.1,1.3-0.1,2.5-0.4,3.7c-8.4,0-16.7,0-25,0
		c-0.4,0-1-0.3-1.1,0.4c-0.1,0.8-0.7,0.8-1.2,0.8c-3.5,0-7,0-10.5,0c-7.4,0-14.7,0-22,0c-0.4,0-1,0.2-1.1-0.2
		c-0.2-1.4-1.2-0.9-1.9-0.9c-10.6,0-21.3,0-31.9,0c-0.4,0-1.2,0.2-1.2-0.2c-0.3-1.2-1.1-0.8-1.8-0.8c-1.1-0.1-2.2,0-3.2,0
		c-9.6,0-19.2,0-28.8,0c-0.4,0-1.2-0.2-1.2,0.2c-0.2,1.2-1,0.8-1.7,0.8C52.2,77.1,42.8,77.1,33.5,77.1z"></path>
	<path d="M33,70.1c-0.3-1.2-0.2-2.5,0.1-3.7c3,0,6,0,9,0c6.6,0,13.2,0,19.8,0c0.4,0,1-0.2,1.1,0.2
		c0.2,1.1,1,0.8,1.6,0.8c5.5,0,11,0,16.5,0c5.3,0,10.5,0,15.8,0c0.4,0,1,0.2,1.1-0.2c0.2-1.1,1-0.8,1.6-0.8c5.3,0,10.7,0,16,0
		c5.4,0,10.8,0,16.2,0c0.5,0,1.1,0.3,1.3-0.5c0.1-0.7,0.5-0.6,0.9-0.6c11,0,22,0,33.1,0c0.3,0,0.8-0.1,0.8,0.3
		c0.1,1.1,0.9,0.9,1.5,0.9c8.5,0,17,0,25.5,0c0.1,1.2,0.3,2.5-0.1,3.7c-8.3,0-16.5,0-24.8,0c-0.8,0-1.9-0.5-2.2,0.8
		c0,0.1-0.5,0.1-0.8,0.1c-11,0-22,0-32.9,0c-0.3,0-0.8,0.1-0.8-0.3c-0.1-1-0.9-0.7-1.4-0.7c-10.7,0-21.3,0-32,0
		c-0.7,0-1.6,0.4-1.8-0.8c0-0.3-0.5-0.2-0.8-0.2c-11.1,0-22.1,0-33.2,0c-0.3,0-0.7-0.1-0.8,0.2c-0.2,1.3-1.2,0.8-1.9,0.8
		C51.8,70.1,42.4,70.1,33,70.1z"></path>
	<path d="M36.3,84.1c-0.5-1.2-1-2.4-1.5-3.7c8.8,0,17.6,0,26.5,0c0.7,0,1.6-0.4,1.8,0.8c0,0.3,0.5,0.2,0.8,0.2
		c11.1,0,22.1,0,33.2,0c0.3,0,0.8,0.1,0.8-0.3c0.1-1.1,0.9-0.8,1.4-0.8c6.9,0,13.9,0,20.8,0c3.9,0,7.8,0,11.7,0c0.4,0,1,0.2,1-0.3
		c0.1-1,0.7-0.8,1.3-0.8c5,0,10,0,15,0c5.8,0,11.7,0,17.5,0c0.4,0,1.1-0.2,1.2,0.4c0.1,1,0.8,0.7,1.3,0.7c8.1,0,16.1,0,24.2,0
		c-0.2,1.3-0.7,2.5-1.2,3.7c-0.9,0-1.8,0-2.8,0c-6.8,0-13.5,0-20.3,0c-0.4,0-1.1-0.2-1.3,0.3c-0.2,0.9-0.7,0.8-1.3,0.8
		c-4,0-8.1,0-12.1,0c-6.8,0-13.6,0-20.4,0c-0.4,0-1.1,0.3-1.1-0.3c-0.1-1-0.8-0.8-1.4-0.8c-10.7,0-21.3,0-32,0
		c-0.7,0-1.6,0.4-1.8-0.8c0-0.3-0.5-0.2-0.8-0.2C86,83,75,83,63.9,83c-0.3,0-0.8-0.1-0.8,0.3c-0.1,1-0.9,0.7-1.4,0.7
		C53.2,84.1,44.8,84.1,36.3,84.1z"></path>
	<path d="M39,91.2c-0.6-1.2-1-2.5-1.3-3.8c8,0,16.1,0,24.1,0c0.4,0,1.1-0.3,1.1,0.3c0.1,1.1,0.8,0.8,1.4,0.8
		c9.3,0,18.5,0,27.8,0c1.6,0,3.2,0,4.8,0c0.4,0,1,0.1,1-0.3c0.1-1.1,0.8-0.8,1.4-0.8c10.5,0,21,0,31.5,0c0.8,0,2,0.6,2.4-0.8
		c0-0.1,0.5-0.1,0.8-0.1c11,0,22,0,32.9,0c0.3,0,0.8-0.1,0.8,0.3c0.1,1,0.9,0.7,1.5,0.7c6.8,0,13.5,0,20.3,0c0.5,0,1-0.1,1.4,0.1
		c-0.5,1.2-0.8,2.5-1.4,3.7c-6.8,0-13.7,0-20.5,0c-0.4,0-0.9-0.1-1,0.6c-0.1,0.6-0.6,0.4-1,0.4c-11,0-22.1,0-33.1,0
		c-0.3,0-0.8,0.1-0.8-0.2c-0.1-1-0.9-0.8-1.4-0.8c-8.2,0-16.3,0-24.4,0c-2.7,0-5.4,0-8.2,0c-0.4,0-1,0.2-1-0.4
		c-0.1-1-0.7-0.8-1.3-0.8c-7.2,0-14.5,0-21.7,0c-3.6,0-7.3,0-10.9,0c-0.4,0-1-0.2-1.1,0.2c-0.1,1.3-1,0.9-1.7,0.9
		C53.9,91.2,46.5,91.2,39,91.2z"></path>
	<path d="M40.5,97c-0.3-0.5-0.3-1-0.3-1.5c0.8,0,1.7,0,2.5,0c6.3,0,12.7,0,19,0c0.4,0,1.1,0.2,1.2-0.3
		c0.1-1.2,0.9-0.9,1.6-0.9c10.6,0,21.3,0,31.9,0c0.7,0,1.6,0.4,1.8-0.8c0-0.3,0.5-0.2,0.8-0.2c11.1,0,22.1,0,33.2,0
		c0.3,0,0.8-0.1,0.8,0.3c0.1,1,0.9,0.7,1.4,0.7c6.1,0,12.2,0,18.3,0c4.7,0,9.4,0,14,0c0.4,0,1.1-0.2,1.1,0.3
		c0.2,1.1,0.9,0.8,1.5,0.8c6.3,0,12.5,0,18.8,0c0,0.5-0.1,1.1-0.4,1.5c-6.4,0-12.7,0-19.1-0.1c-0.3,0-0.7-0.1-0.7,0.3
		c-0.1,1.2-1,0.8-1.6,0.9c-5.8,0-11.6,0-17.4,0c-4.9,0-9.9,0-14.9,0c-0.4,0-1-0.3-1.1,0.3c-0.2,0.9-0.8,0.7-1.3,0.7
		c-4.8,0-9.5,0-14.3,0c-6.1,0-12.2,0-18.3,0c-0.4,0-1,0.3-1.1-0.3c-0.1-0.9-0.8-0.7-1.3-0.7c-5,0-10,0-15,0c-5.9,0-11.7,0-17.6,0
		c-0.4,0-1.1,0.3-1.2-0.4c-0.1-0.8-0.6-0.7-1.1-0.7C54.8,97,47.6,97,40.5,97z"></path>
	<path d="M41.6,104c-0.2-0.5-0.3-1-0.2-1.5c6.8,0,13.6,0,20.4,0c0.4,0,1.1,0.3,1.2-0.4c0.1-0.8,0.6-0.7,1.1-0.7
		c2.5,0,4.9,0,7.4,0c8.4,0,16.8,0,25.3,0c0.4,0,1.1,0.3,1.2-0.4c0.1-0.7,0.5-0.6,1-0.6c1.9,0,3.8,0,5.6,0c9.1,0,18.1,0,27.2,0
		c0.4,0,1.1-0.3,1.1,0.3c0.2,0.8,0.7,0.7,1.3,0.7c0.8,0,1.5,0,2.3,0c10.1,0,20.1,0,30.2,0c0.4,0,1.1-0.2,1.3,0.4
		c0.1,0.9,0.7,0.8,1.3,0.8c5.8,0,11.7,0,17.5,0c-0.1,0.5-0.2,1.1-0.3,1.6c-5.9,0-11.8-0.1-17.7-0.1c-0.3,0-0.7,0-0.8,0.4
		c-0.1,0.9-0.7,0.7-1.2,0.7c-4.8,0-9.5,0-14.3,0c-6.1,0-12.1,0-18.2,0c-0.5,0-1.1-0.2-1.3,0.7c-0.1,0.5-0.6,0.3-0.9,0.3
		c-11,0-22.1,0-33.1,0c-0.3,0-0.8,0.1-0.8-0.2c-0.1-1-0.8-0.8-1.4-0.8c-6.5,0-13,0-19.5,0c-4.3,0-8.6,0-12.9,0
		c-0.4,0-1.1,0.3-1.1-0.3c-0.1-1-0.7-0.8-1.3-0.8C55,104,48.3,104,41.6,104z"></path>
	<path d="M42.6,111.1c-0.3-0.5-0.3-1.1-0.2-1.6c6.5,0,12.9,0,19.4,0c0.4,0,1,0.2,1.1-0.2c0.2-1.2,1-0.8,1.7-0.8
		c9.9,0,19.8,0,29.7,0c1,0,1.9,0,2.9,0c0.3,0,0.8,0,0.8-0.5c0-0.8,0.6-0.7,1.1-0.7c3.5,0,6.9,0,10.4,0c7.4,0,14.9,0,22.3,0
		c0.4,0,1.1-0.3,1.1,0.3c0.1,1,0.8,0.8,1.4,0.8c6.8,0,13.6,0,20.4,0c4,0,8,0,12,0c0.4,0,1-0.2,1.1,0.3c0.2,0.9,0.8,0.7,1.3,0.7
		c5.5,0,10.9,0,16.4,0c0,0.6-0.1,1.1-0.3,1.6c-5.4,0-10.9,0-16.3,0c-0.3,0-0.7-0.1-0.8,0.3c-0.1,0.9-0.7,0.7-1.3,0.7
		c-4.1,0-8.1,0-12.2,0c-6.8,0-13.6,0-20.4,0c-0.4,0-1.1-0.3-1.1,0.3c-0.1,1-0.8,0.8-1.4,0.8c-7.6,0-15.1,0-22.7,0
		c-3.3,0-6.6,0-9.9,0c-0.4,0-1,0.2-1-0.3c-0.1-1-0.7-0.8-1.3-0.8c-5.2,0-10.3,0-15.5,0c-5.7,0-11.4,0-17.1,0c-0.4,0-1,0.3-1.1-0.3
		c-0.2-0.9-0.8-0.7-1.3-0.7C55.4,111.1,49,111.1,42.6,111.1z"></path>
	<path d="M184.5,118.1c-5.1,0-10.2,0-15.3,0c-0.5,0-1.1-0.2-1.3,0.7c-0.1,0.6-0.7,0.3-1.1,0.3c-6.2,0-12.5,0-18.7,0
		c-4.6,0-9.2,0-13.8,0c-0.6,0-1.3-0.2-1.4,0.8c-0.1,0.6-0.7,0.3-1.1,0.3c-5.9,0-11.9,0-17.8,0c-4.9,0-9.8,0-14.7,0
		c-0.6,0-1.2,0.2-1.3-0.8c0-0.6-0.6-0.4-1-0.4c-3.3,0-6.7,0-10.1,0c-7.5,0-15,0-22.5,0c-0.6,0-1.3,0.3-1.5-0.7
		c-0.1-0.4-0.7-0.2-1.1-0.3c-6.2,0-12.3,0-18.5,0c-0.1-0.5-0.3-1.1-0.2-1.6c6.2,0,12.4,0,18.6,0c0.4,0,1,0.3,1.2-0.3
		c0.2-0.8,0.7-0.7,1.2-0.7c0.8,0,1.5,0,2.3,0c10.1,0,20.2,0,30.3,0c0.4,0,1.1,0.2,1.2-0.3c0.1-1.1,0.8-0.9,1.5-0.9
		c8.4,0,16.8,0,25.3,0c2.4,0,4.9,0,7.3,0c0.3,0,0.9-0.2,0.9,0.3c0.1,1.2,0.9,0.9,1.6,0.9c10.7,0,21.5,0,32.2,0
		c0.4,0,1.1-0.2,1.2,0.3c0.2,0.9,0.8,0.7,1.4,0.7c5.1,0,10.2,0,15.3,0C184.5,117,184.5,117.5,184.5,118.1z"></path>
	<path d="M99.4,34c-0.6,0.1-1.4-0.3-1.5,0.8c-0.1,0.4-0.7,0.2-1.1,0.2c-7.3,0-14.7,0-22,0c-3.6,0-7.1,0-10.7,0
		c-0.5,0-1.2-0.2-1.2,0.8c0,0.5-0.5,0.4-0.8,0.4c-4.9,0-9.8,0-14.7,0c3.6-1.1,7.2-2.2,10.7-3.3c1.6-0.5,3.2-1.1,4.8-1.7
		c0.2,0.3,0.6,0.2,0.9,0.2c10,0,19.9,0,29.8,0C95.6,32.3,97.5,33.2,99.4,34z"></path>
	<path d="M178,36.2c-3.1,0-6.1,0-9.2,0c-0.5,0-1,0-1-0.7c-0.1-0.7-0.6-0.5-1-0.5c-3,0-6,0-9,0c-7.9,0-15.7,0-23.6,0
		c-0.6,0-1.2,0.2-1.4-0.7c-0.1-0.4-0.5-0.3-0.8-0.3c-1.2,0-2.4,0-3.6-0.1c1.8-0.9,3.7-1.7,5.5-2.6c2.6,0,5.3,0,7.9,0
		c7.4,0,14.8,0,22.2,0c2.9,1.1,5.9,2.1,8.9,3.1C174.6,35.1,176.3,35.6,178,36.2z"></path>
	<path d="M88.6,28c-6.2,0-12.4,0-18.7,0c2.2-1.2,4.3-2.4,6.5-3.6c2.5,0,5.1,0,7.6,0C85.6,25.6,87.1,26.8,88.6,28z"></path>
	<path d="M156.9,28c-5.9,0-11.9,0-17.9,0c1.5-1.2,3-2.4,4.5-3.6c2.3,0,4.7,0,7,0C152.7,25.6,154.8,26.8,156.9,28z"></path>
</g>
</svg>
