<!--?xml version="1.0" encoding="utf-8"?-->
<!-- Generator: Adobe Illustrator 23.1.0, SVG Export Plug-In . SVG Version: 6.00 Build 0)  -->
<svg version="1.1" id="Camada_1" xmlns="http://www.w3.org/2000/svg" xmlns:xlink="http://www.w3.org/1999/xlink" x="0px" y="0px" viewBox="0 0 234 419" style="enable-background:new 0 0 234 419;" xml:space="preserve">
<style type="text/css">
	.st0{fill:#DBCF13;}
	.st1{fill:#2AEC12;}
	.st2{fill:#29EB12;}
	.st3{fill:#F509F0;}
	.st4{fill:#09BEA2;}
	.st5{fill:#08118D;}
	.st6{fill:#BE0813;}
</style>
<g onclick="select(this)" class="" id="c-gola-primaria" fill="#bf0811">
	<path d="M82,8c2-1.8,3.8-3.9,5.7-5.8c1.4-1.5,3.6-1.5,5.6-1.8c0.6-0.1,1.2,0.1,1.8-0.3c15.6,0,31.2,0,46.8,0
		c1,0.5,2.1,0.5,3.1,0.7c1.6,0.4,3,1.1,4,2.5c1.3,1.7,3,3,4.6,4.4c-3.7,0.5-7.5,1.1-11.2,1.6c-7.5,0.9-15.1,1.2-22.7,1.6
		c-3.8,0.2-7.6-0.3-11.4-0.4C99.4,10.4,90.7,8.7,82,8z"></path>
</g>
<g onclick="select(this)" class="" id="c-detalhe-punho" fill="#082890">
	<path d="M0.2,116.2c0.6-2,0.8-4,1.2-6c0.1-0.3,0-0.6,0.3-0.7c0.4,0.3,0.9,0.4,1.3,0.5c5.7,1.1,11.4,2.1,17.2,3
		c5.8,0.9,11.5,1.4,17.4,1.3c2.6,0,5.1,0,7.4-1.4c0.6-0.4,1-0.3,1,0.6c0,0.5-0.2,1,0.2,1.5c0.3,1.2,0,2.4,0.5,3.5
		c-0.5,0.4-0.3,1-0.3,1.4c-0.1,1.1-0.6,1.5-1.7,1.6c-5.5,0.6-11,1.1-16.6,0.5c-9.1-1-18.2-2.3-27.2-4.3c-0.3-0.1-0.5-0.2-0.8-0.2
		C0.2,117.1,0.2,116.6,0.2,116.2z"></path>
	<path d="M188.9,113c0.3-0.3,0.6-0.6,1-0.1c0.5,0.5,1.1,1,1.7,1.4c1.3,0.7,2.6,1.2,4.1,1.2c3.1,0,6.2,0.2,9.3,0.2
		c3.1-0.1,6.2-0.8,9.4-1c3.2-0.3,6.3-0.9,9.5-1.1c2.8-0.2,5.6-1.1,8.3-1.7c0.7,0.1,0.5,0.8,0.6,1.2c0.4,1.9,0.4,3.8,0.6,5.7
		c0.1,1-0.3,1.3-1.2,1.5c-3.8,0.9-7.7,1.6-11.6,2.1c-7,1-14,1.7-21.1,1.5c-2.9-0.1-5.8-0.4-8.4-2c-0.3-0.2-0.7-0.3-1-0.3
		c-0.8-0.1-1.4-0.4-1.8-1.1c0-1.9,0-3.8,0.3-5.7C189.2,114.3,188.8,113.6,188.9,113L188.9,113z"></path>
</g>
<g onclick="select(this)" class="" id="c-estampa-secundaria" fill="#ffffff">
	<path d="M104.9,289.4c1-0.3,1.9-0.3,2.9,0C106.8,289.4,105.9,289.4,104.9,289.4z"></path>
	<g onclick="select(this)" class="">
		<path d="M59.5,288.1c0.2-0.4,0.1-0.9,0.1-1.3c0-19,0-37.9,0-56.9c0-12.1,0.3-24.1,0.4-36.2c0-1.9,0.1-3.8,0.1-5.6
			c0-0.8,0.2-1.1,1.1-1.1c2.1,0,2.1,0,2.1,2.1c0.1,6.3,0.3,12.6,0.4,18.9c0,0.3-0.1,0.7,0.3,1c0.3-0.4,0.2-0.8,0.2-1.1
			c0.1-6.6,0.2-13.1,0.2-19.7c0-0.8,0-1.3,1-1.3c0.9,0,1.4,0,1.4,1.2c0,5.3,0.1,10.6,0.2,15.8c0,0.6,0,1.2,0,1.8
			c0.5-0.2,0.4-0.5,0.4-0.8c0-1.4,0.1-2.9,0-4.3c-0.1-4.2,0.4-8.4,0.3-12.6c0-1.3,0.7-1.2,1.6-1.2c1.1-0.1,1.1,0.5,1.1,1.3
			c0,6.4,0,12.7,0.1,19.1c0,0.4-0.2,0.9,0.2,1.4c0.4-0.3,0.3-0.7,0.3-1.1c0.2-6.5,0.4-13,0.5-19.5c0-1.3,0.7-1.1,1.5-1.2
			c1-0.1,1.2,0.3,1.2,1.2c0.3,33.6,0,67.3,0.1,100.9c0,0.1,0,0.2,0,0.2c-3,0-6-0.3-9-0.5C63.6,288.7,61.5,288.6,59.5,288.1z"></path>
		<path d="M170.7,190.1c0-0.3,0-0.6,0-0.8c0-2.3,0-2.3,2.3-2.3c0.7,0,1,0.2,0.9,1c0,2.1,0,4.1,0.1,6.2
			c-0.3,0.6-0.3,1.3,0,1.9c0.1,5,0.1,10.1,0.2,15.1c-0.3,0.9-0.3,1.8,0,2.6c0.1,4.6,0.1,9.1,0.2,13.7c-0.2,0.4-0.3,0.8,0,1.2
			c0,9,0,18,0,27c0,0.5,0,1,0,1.6c-0.1,4.7-0.1,9.3,0,14c0,5.4,0,10.7,0,16.1c-4.9,0.7-9.9,1.1-14.9,1.2c0-0.5,0-1,0-1.6
			c0-25.6,0-51.3,0-76.9c0-0.4,0-0.8,0-1.2c0.3-0.3,0.2-0.6,0.2-0.9c0-3.8,0-7.6,0-11.4c0-0.3,0.1-0.6-0.2-0.9c0-2.6,0.1-5.1,0-7.7
			c0-0.9,0.4-1,1.1-0.9c0.6,0.1,1.6-0.5,1.6,0.9c0,0.7,0.1,1.4,0.1,2.1c-0.2,1.1-0.3,2.1,0.1,3.1c0.1,2.7,0.1,5.4,0.2,8.2
			c-0.3,0.6-0.3,1.3,0,1.9c0,1.3,0.1,2.5,0.1,3.8c-0.2,3.3,0,6.5,0.3,10.1c0.1-1.2,0.2-2,0.3-2.8c0.1-2.4,0.3-4.8-0.1-7.3
			c0.1-5.5,0.1-11,0.2-16.6c0.5-1.1,0-2.4,0.3-3.6c0.7,0,1.4,0,2.1,0c0.1,0.3,0.2,0.6,0.3,0.9c0.1,2.6,0.1,5.1,0.2,7.7
			c-0.2,0.6-0.3,1.3,0.1,1.9c0,1.8,0.1,3.6,0.1,5.5c-0.3,2.3,0.1,4.5,0.2,6.7c0.1-0.6,0.1-1.2,0.2-1.8c0.1-1.6,0.3-3.2,0-4.9
			c0.1-3.7,0.1-7.4,0.2-11.1c0.3-1.1,0.3-2.2,0.1-3.4c0-1.7,0-1.7,1.6-1.6c0.7,0,0.9,0.3,0.9,0.9c0,1.5,0.1,3,0.1,4.6
			c-0.2,1.6-0.3,3.2,0.1,4.8c0.1,3.7,0.1,7.3,0.1,11c-0.3,2.8,0,5.6,0.2,8.4c0.3-2.8,0.5-5.6,0.2-8.4c0-1.6,0.1-3.2,0.1-4.8
			c0.3-0.7,0.3-1.4,0-2.2c0.1-3,0.1-6.1,0.2-9.1C170.9,191.5,170.9,190.8,170.7,190.1z"></path>
		<path d="M97.8,193.6c0.1-1.8,0.1-3.7,0.1-5.5c0-0.7,0-1.2,1-1.2c0.9,0,1.1,0.4,1.1,1.2c0.1,9.2,0.2,18.5,0.3,27.7
			c0,0.4,0,0.8,0,1.5c0.5-0.7,0.4-1.1,0.4-1.6c0.2-7.8,0.4-15.6,0.6-23.4c0-1.4,0.2-2.9,0.1-4.3c0-0.9,0.3-1.1,1.2-1.1
			c0.8,0,1.1,0.3,1.1,1.1c0,8.7,0.1,17.4,0.2,26.1c0,1.5,0,3,0,4.6c0,0.4-0.1,0.9,0.2,1.3c0.4-0.2,0.3-0.5,0.3-0.7
			c0.2-5.8,0.3-11.7,0.5-17.5c0.1-4.6,0.3-9.2,0.4-13.8c0-1.1,0.6-1,1.3-1c0.8,0,1.2,0.1,1.2,1c0,2.6,0,5.2,0,7.8
			c0.1,10.7,0.2,21.4,0.3,32c0.3,20.2,0,40.5,0.1,60.7c0,0.3,0,0.5-0.1,0.8c-0.1,0-0.2,0-0.3,0c-1-0.3-1.9-0.3-2.9,0
			c-3.8,0-7.6,0-11.4,0c0-28.5,0-56.9,0-85.4c0-5.3,0.1-10.6,0.1-15.8c0-1,0.4-1.3,1.3-1.3c0.9,0,1.4,0.1,1.4,1.2
			c-0.1,1.8,0.1,3.7,0.2,5.5c-0.2,0.7-0.2,1.4,0,2.2c0,2.2,0,4.5,0.2,6.7c-0.2,0.8-0.2,1.6,0.1,2.4c0,2.1-0.1,4.2,0.2,6.3
			c0,0.3,0,0.6,0,0.9c0,0.3,0,0.5,0,0.8c-0.2,2.6,0.1,5.2,0,7.8c0.2,0,0.3,0,0.5,0c0-2.6,0-5.2,0-7.8c0-0.2,0-0.5,0-0.7
			c0.2-0.3,0.2-0.6,0-1c0.2-4,0.2-8,0.2-12C98,197.4,97.9,195.5,97.8,193.6z"></path>
		<path d="M127.1,289.2c0-0.4,0-0.7,0-1.1c0-33.3,0-66.6,0-99.8c0-1,0.2-1.4,1.2-1.3c0.8,0,1,0.3,1,1
			c0.1,3.5,0.2,7,0.3,10.4c0.2,7.8,0.4,15.7,0.6,23.7c0.4-0.8,0.4-1.4,0.4-2c0-7.8,0.1-15.5,0.1-23.3c0-2.9,0.1-5.8,0.1-8.8
			c0-0.8,0.1-1.2,1.1-1.1c0.8,0,1.2,0,1.2,1.1c0.1,6.8,0.3,13.6,0.5,20.4c0.1,2.5,0,5,0,7.5c0.1,0,0.3,0,0.4,0
			c0.1-1.3,0.2-2.6,0.2-3.9c0.1-8,0.3-15.9,0.3-23.9c0-1,0.3-1.3,1.3-1.3c0.7,0,0.8,0.3,0.9,0.9c0,3.2,0.1,6.5,0.2,9.7
			c0.1,6.5,0.2,13,0.3,19.4c0,0.3-0.1,0.6,0.1,0.9c0.3-0.4,0.1-0.8,0.1-1.1c0.6-9.6,0.6-19.3,0.9-29c0-1.4,1-0.8,1.6-0.9
			c0.8-0.1,1.1,0.1,1.1,1c0,3.6,0.1,7.3,0.1,10.9c0.4,30,0.1,60,0.2,90c-4.3,0-8.6,0-12.8,0.1C128,289,127.5,288.9,127.1,289.2
			L127.1,289.2z"></path>
		<path d="M48.5,187c0.7-0.1,1,0.1,0.9,0.8c-0.2,4.6-0.3,9.3-0.4,13.9c-0.1,2.9-0.1,5.9-0.2,8.9c0,1.7-0.2,3.5-0.6,5.2
			c0-0.8,0-1.5,0-2.3c0-5.3,0-10.5-0.1-15.8c0-0.5,0.1-1.1-0.2-1.5C48.7,193.1,48.5,190,48.5,187z"></path>
		<path d="M47.8,196.7c0.1,0.1,0.1,0.2,0,0.3C47.8,196.9,47.8,196.8,47.8,196.7z"></path>
		<path d="M114.8,244.5c-0.3-0.4-0.2-1.1-0.2-1.7c-0.1-14.9-0.2-29.8-0.4-44.7c0-3.3,0-6.6-0.2-9.9
			c-0.1-1.2,0.6-1.1,1.4-1.1c1-0.1,1.1,0.4,1.1,1.2c-0.3,9.6-0.5,19.3-0.7,28.9c-0.1,3.6,0.1,7.2-0.3,10.8
			C114.9,233.4,115.5,239.1,114.8,244.5z"></path>
		<path d="M118.9,245.7c-0.1-5.9-0.1-11.8-0.4-17.6c0-0.2,0-0.4,0-0.6c-0.1-9-0.2-18.1-0.4-27.1
			c-0.1-4.1-0.1-8.2-0.2-12.2c0-0.9,0.2-1.2,1.1-1.2c1,0,1.1,0.4,1.1,1.2c-0.2,10.7-0.2,21.4-0.4,32c-0.1,7.3-0.4,14.5-0.5,21.8
			C119.2,243.2,119,244.5,118.9,245.7C118.9,245.7,118.9,245.7,118.9,245.7z"></path>
		<path d="M123.3,236.4c-0.9-13.9-1-28.1-1.4-42.3c-0.1-2-0.1-4.1-0.2-6.1c-0.1-1,0.4-1,1.2-1c0.7,0,1.3-0.1,1.3,1
			c-0.2,12.1-0.3,24.2-0.5,36.3c0,1.8-0.1,3.6-0.1,5.4C123.5,232.1,123.5,234.4,123.3,236.4z"></path>
		<path d="M110.4,208c0-6.6,0-13.2,0-19.8c0-0.9,0.2-1.2,1.2-1.2c1,0,1.2,0.3,1.2,1.2c-0.4,12.5-0.7,25-1,37.5
			c0,0.9-0.2,1.9-0.3,2.8c0,0.2-0.1,0.4-0.3,0.4c-0.2,0-0.3-0.2-0.3-0.4c0-0.3,0-0.6,0-0.8c0-6.6,0-13.1,0-19.7
			C110.6,208,110.5,208,110.4,208z"></path>
		<path d="M144,228.7c-0.4-0.4-0.3-0.8-0.3-1.1c-0.1-8.8-0.2-17.5-0.3-26.3c-0.1-4.4-0.1-8.8-0.2-13.2
			c0-0.9,0.2-1.2,1.1-1.2c0.9,0,1,0.4,1,1.1c-0.4,13.2-0.7,26.4-1,39.7C144.4,228.1,144.4,228.4,144,228.7z"></path>
		<path d="M90.9,207.9c0,6.6,0,13.2,0,19.8c0,0.2,0,0.5,0,0.7c0,0.1-0.1,0.2-0.2,0.3c-0.2,0.1-0.3-0.1-0.3-0.2
			c0-0.3,0-0.6-0.1-0.8c-0.2-8.4-0.4-16.7-0.6-25.1c-0.1-4.8-0.3-9.6-0.4-14.4c0-0.7,0-1.2,1-1.2c0.9,0,1.2,0.2,1.1,1.1
			c0,6.6,0,13.2,0,19.8C91.3,207.9,91.1,207.9,90.9,207.9z"></path>
		<path d="M152.6,228.6c-0.4-0.4-0.3-0.9-0.3-1.2c-0.2-7.9-0.4-15.9-0.6-23.8c-0.1-5.1-0.3-10.2-0.5-15.3
			c0-0.6-0.1-1.2,0.9-1.2c1,0,1,0.5,1,1.2c-0.1,13.1-0.2,26.2-0.3,39.3C152.8,227.8,152.8,228.2,152.6,228.6z"></path>
		<path d="M82.2,228.6c-0.4-0.4-0.3-0.8-0.3-1.2c-0.1-8.4-0.1-16.7-0.2-25.1c0-4.7-0.1-9.4-0.2-14.1
			c0-0.7-0.1-1.2,0.9-1.2c1,0,0.9,0.5,0.9,1.2c-0.4,12.7-0.7,25.3-1.1,38C82.4,226.9,82.3,227.7,82.2,228.6z"></path>
		<path d="M86,228.8c0-1.7,0-3.3,0-4.9c-0.1-8.1-0.2-16.2-0.3-24.3c-0.1-3.8-0.2-7.6-0.2-11.4c0-0.6-0.2-1.2,0.8-1.2
			c1,0,1,0.5,1,1.2c-0.2,13.2-0.4,26.5-0.7,39.7C86.6,228.1,86.7,228.4,86,228.8z"></path>
		<path d="M148.7,204.9c0,5.5,0,11,0,16.6c0,0.2,0,0.3,0,0.5c-0.1,0.3,0.1,0.8-0.4,0.7c-0.4,0-0.3-0.4-0.3-0.7
			c0-1-0.1-1.9-0.1-2.9c-0.1-9-0.3-17.9-0.4-26.9c0-1.3-0.1-2.6-0.1-4c0-0.6-0.2-1.4,0.9-1.3c1.1,0,0.9,0.7,0.9,1.3
			c-0.1,5.5-0.2,11-0.3,16.4c0,0.1,0,0.2,0,0.2C148.9,204.9,148.8,204.9,148.7,204.9z"></path>
		<path d="M78.1,223c0-2.7,0-5.4,0-8.1c-0.1-8.9-0.2-17.8-0.3-26.7c0-0.5-0.2-1.1,0.7-1.2c0.9,0,1.2,0.2,1.1,1.1
			c-0.2,4.6-0.3,9.3-0.4,13.9c-0.2,5.1-0.3,10.3-0.5,15.4C78.8,219.3,78.7,221.2,78.1,223z"></path>
		<path d="M156,220.9c-0.1-0.7-0.1-1.3-0.1-2c-0.3-10.3-0.6-20.5-0.9-30.8c0-0.7,0-1.1,0.9-1.1c0.7,0,1,0.2,1,1
			c-0.1,2-0.1,4.1-0.1,6.1c-0.1,8-0.2,16-0.3,24c0,0.9-0.2,1.9-0.3,2.8C156.1,220.9,156.1,220.9,156,220.9z"></path>
		<path d="M56.9,221.1c-0.3-11.1-0.5-22.1-0.8-33.2c0-0.6-0.1-1,0.7-1c0.8,0,0.8,0.4,0.8,1c-0.1,10.3-0.2,20.5-0.4,30.8
			C57.2,219.6,57.1,220.3,56.9,221.1C57,221.1,56.9,221.1,56.9,221.1z"></path>
		<path d="M176.6,218.8c-0.4-0.4-0.3-0.7-0.3-1c-0.1-9.9-0.2-19.8-0.3-29.6c0-0.4-0.3-0.9,0.3-1.2
			c0.7-0.3,1.3,0.1,1.2,0.8c-0.2,6.4-0.1,12.8-0.6,19.2c-0.2,2.9,0,5.7-0.4,8.6C176.4,216.6,177.1,217.7,176.6,218.8z"></path>
		<path d="M52.7,217.3c-0.4-9.6-0.3-19.1-0.6-28.7c0-0.3,0-0.6,0-0.8c0-0.5,0.2-0.8,0.7-0.7c0.6,0,0.6,0.4,0.6,0.8
			c-0.1,6.9-0.2,13.8-0.3,20.6c0,2.4-0.1,4.9-0.1,7.3C53,216.3,52.8,216.8,52.7,217.3z"></path>
		<path d="M180.8,216.7c-0.3-2.7-0.3-5.7-0.3-8.8c-0.1-6.5-0.2-13-0.3-19.5c0-0.3,0-0.6,0-1c0-0.4,0.3-0.5,0.6-0.5
			c0.3,0,0.5,0.1,0.6,0.5c0,0.3,0,0.6,0,0.8c-0.1,8.1-0.2,16.1-0.4,24.2C181.1,214,180.9,215.5,180.8,216.7z"></path>
		<path d="M184.8,210.7c-0.1-5.4-0.3-10.7-0.5-16.1c-0.1-2.2-0.1-4.5-0.2-6.7c0-0.5-0.1-1,0.7-1c0.7,0,0.6,0.5,0.6,0.9
			c-0.1,5.8,0,11.7-0.2,17.5C185.2,207.2,185.1,209,184.8,210.7z"></path>
	</g>
</g>
<path d="M188.9,113c-0.1,0.6,0.4,1.3-0.4,1.7C188.3,114.1,188.6,113.6,188.9,113z"></path>
<g onclick="select(this)" class="" id="c-estampa-terciaria" fill="#082890">
	<path d="M114.3,289.2c0.7-0.5,1.5-0.2,2.3-0.2c1.4,0,2.8,0,4.2,0c0,0.1,0,0.2,0.1,0.3c-0.1,0-0.3,0.1-0.4,0.1
		C118.4,289.3,116.3,289.2,114.3,289.2z"></path>
	<path d="M119.6,262.3c-0.4-0.2-0.4-0.4-0.1-0.7C119.7,261.8,119.7,262.1,119.6,262.3z"></path>
	<g onclick="select(this)" class="">
		<path d="M114.3,289.2c2.1,0,4.1,0.1,6.2,0.1c-2.1,0.1-4.1,0.1-6.2,0.1C114.3,289.3,114.2,289.3,114.3,289.2z"></path>
		<path d="M110.2,289.4c0-0.1,0-0.1,0-0.2c1,0.1,2,0.1,3.1,0c0,0,0.1,0.1,0,0.1C112.3,289.5,111.2,289.5,110.2,289.4z"></path>
		<path d="M121.7,289.3c0.8-0.1,1.5-0.1,2.3,0C123.3,289.4,122.5,289.4,121.7,289.3z"></path>
		<g onclick="select(this)" class="">
			<path d="M113.9,289.3c0.3-5.9,0.6-11.7,0.8-17.6c0.2-4.2,0.4-8.4,0.5-12.6c0.2-4.2,0.5-8.5,0.5-12.7
				c0-0.2-0.1-0.4,0.4-0.6c0.3,13.3,0.7,26.5,1,39.8c-0.4,0.4-0.3,0.9-0.1,1.3c0.1,0.2,0.4,0.2,0.5,0.1c0.4-0.3,0.2-0.8,0.2-1.2
				c0-0.1-0.1-0.3-0.2-0.4c0.1-2.4,0.1-4.8,0.2-7.2c0.3-0.2,0.3-0.3,0-0.5c0.1-5.1,0.2-10.2,0.4-15.3c0.1-3.1,0-6.1,0.3-9.2
				c0.2,0,0.4,0,0.6,0c0.2,1.2,0.2,2.4,0.2,3.6c-0.3,0.3-0.3,0.5,0.1,0.7c0.2,1.4,0.1,2.7,0.2,4.1c-0.3,0.3-0.3,0.5,0.1,0.7
				c0.2,1.4,0.1,2.9,0.2,4.3c-0.3,0.3-0.4,0.7,0.1,1c0.2,1.6,0.1,3.2,0.2,4.8c-0.3,0.2-0.3,0.3,0,0.5c0.1,1.7,0.3,3.5,0.3,5.2
				c0.1,3.6,0.5,7.2,0.4,10.9c-1.4,0-2.8,0-4.2,0c-0.8,0-1.6-0.3-2.3,0.2c0,0.1,0,0.1,0,0.2C114.1,289.3,114,289.3,113.9,289.3z"></path>
			<path d="M185.3,285.3c0.2-4.6,0.4-9.3,0.6-13.9c0.1-2.4,0.1-4.7,0.3-7.1c0.4-6.8,0.5-13.6,0.8-20.3
				c0.2-5.3,0.5-10.7,0.8-16c0.1,0,0.2,0,0.3,0c0.2,18.8,0.4,37.6,0.6,56.4C187.6,284.9,186.4,285.2,185.3,285.3z"></path>
			<path d="M56.1,287.5c-0.3-2.4,0.1-4.7,0.1-7.1c0.4-15,0.8-30,1.3-44.9c0-1.5,0-2.9,0-4.4c0.1,0,0.2,0,0.3,0
				c0.1,2.8,0.2,5.7,0.3,8.5c0.3,12.5,0.7,24.9,1,37.4c0.1,3,0.2,6,0.3,9c0.1,1.8,0,1.8-1.7,1.8C57.2,287.7,56.6,287.6,56.1,287.5z"></path>
			<path d="M52.3,286.8c0.5-17.3,1-34.7,1.5-52c0.7,0.1,0.5,0.5,0.5,0.8c0.2,5.4,0.3,10.9,0.5,16.3
				c0.2,9,0.3,18.1,0.6,27.1c0.1,2.4,0.2,4.9,0.2,7.3c0,0.4,0.1,0.8-0.1,1.2C54.3,287.3,53.3,287.2,52.3,286.8z"></path>
			<path d="M152.5,288.7c-0.1-3.2,0.3-6.3,0.5-9.4c0.4-6.5,0.8-13,1.2-19.5c0.4-5.9,0.7-11.9,1.1-17.8
				c0-0.1,0.1-0.3,0.2-0.7c0.4,2.3,0.3,4.3,0.3,6.3c0.1,11.5,0.2,23,0.3,34.5c0,2.2,0.1,4.4,0.1,6.6
				C154.9,288.7,153.7,288.7,152.5,288.7z"></path>
			<path d="M174.5,287.3c0-5.4,0-10.7,0-16.1c0.3-3.3,0.2-6.5,0.2-9.8c0.2-0.4,0.1-0.9,0.1-1.3
				c0.3-7.8,0.5-15.5,0.7-23.3c0-0.1,0-0.2,0.3-0.4c0.5,16.8,0.9,33.5,1.4,50.3C176.5,287.2,175.5,287.2,174.5,287.3z"></path>
			<path d="M178.1,286.8c0.1-10.1,0.4-20.1,0.7-30.2c0.2-6.8,0.3-13.5,0.5-20.3c0-0.3-0.1-0.6,0.2-0.8
				c0.4,0.2,0.2,0.5,0.3,0.8c0.3,9.5,0.5,19,0.8,28.5c0.2,7.1,0.4,14.2,0.7,21.3C180.2,286.5,179.1,286.7,178.1,286.8z"></path>
			<path d="M44.4,284.6c0-13.2,1.4-26.3,2-39.5c0.5,4.1,0.6,8.2,0.7,12.3c0.3,7.5,0.6,15.1,1,22.6
				c0.1,2,0.1,3.9,0.2,5.9C46.9,285.6,45.6,285.3,44.4,284.6z"></path>
			<path d="M48.8,286c0.3-15.3,0.5-30.6,0.8-45.9c0-2.9,0-5.7,0-8.6c0.2,0,0.3,0,0.5,0c0.5,18.4,1.1,36.8,1.6,55.2
				C50.7,286.6,49.7,286.4,48.8,286z"></path>
			<path d="M181.8,286c0.1-3.8,0.2-7.6,0.4-11.4c0.2-6,0.4-12.1,0.6-18.1c0.2-6.8,0.5-13.6,0.7-20.6
				c0.6,2.4,0.5,4.7,0.5,7c0.3,14.1,0.5,28.3,0.7,42.4C183.7,285.7,182.8,286,181.8,286z"></path>
			<path d="M151.7,288.8c-0.9-0.1-2.2,0.4-2.8-0.2c-0.6-0.6-0.2-1.8-0.1-2.8c0.4-6.6,0.8-13.2,1.1-19.9
				c0.3-5.1,0.5-10.3,0.8-15.4c0.1-1.8,0.2-3.6,0.3-5.4c0.1,0,0.2,0,0.4,0c0,2.9,0,5.9,0,8.8c0.1,11.2,0.3,22.4,0.5,33.6
				C151.9,287.9,151.9,288.3,151.7,288.8L151.7,288.8z"></path>
			<path d="M145,288.9c0.1-2.4,0.1-4.7,0.2-7.1c0.2-4.5,0.4-9,0.6-13.5c0.3-7.1,0.7-14.3,1-21.4c0.1,0,0.3,0,0.4,0
				c0,3.2-0.1,6.3,0,9.5c0.2,10.4,0.5,20.8,0.8,31.2c0,0.4,0.1,0.9-0.1,1.3C147,288.9,146,288.9,145,288.9z"></path>
			<path d="M121.4,289.2c0.3-10.4,0.5-20.9,0.8-31.3c0.1-3.1,0-6.3,0-9.4c0.2,0,0.3,0,0.5,0c0.6,13.6,1.2,27.1,1.8,40.7
				c-0.2,0-0.3,0.1-0.4,0.1c-0.8-0.1-1.5-0.1-2.3,0C121.6,289.3,121.5,289.2,121.4,289.2z"></path>
			<path d="M141.6,288.9c0.5-12.3,1-24.5,1.5-36.8c0.5,0.1,0.4,0.4,0.4,0.6c0.3,11.9,0.6,23.7,0.9,35.6
				c0,0.2,0,0.5-0.1,0.7l-0.1,0h-0.1C143.4,289,142.5,288.9,141.6,288.9z"></path>
			<path d="M156.5,288.6c-0.1-6.7,0.1-13.3,0.3-20c0.1-6.8,0.3-13.7,0.4-20.5c0-0.4,0-0.8,0.1-1.3
				c0.5,0.2,0.4,0.5,0.4,0.8c0,13.5,0,26.9,0,40.4c0,0.2,0,0.4-0.1,0.6C157.2,288.7,156.9,288.7,156.5,288.6z"></path>
			<path d="M189.1,284.3c0-6.8,0-13.6,0-20.5c1.2,6.7,0.9,13.4,0.9,20.1C189.8,284.2,189.5,284.3,189.1,284.3z"></path>
			<path d="M79.2,241.6c0.2,3,0.3,6.1,0.5,9.1c0.4,6.5,0.8,13,1.2,19.5c0.3,4.3,0.5,8.5,0.8,12.8
				c0.1,1.6,0.2,3.2,0.3,4.8c0.1,0.8-0.2,0.9-0.9,0.9c-2.8,0-2.8,0-2.8-2.7c0.2-14.1,0.3-28.3,0.5-42.5c0-0.6,0.1-1.3,0.1-1.9
				C79,241.6,79.1,241.6,79.2,241.6z"></path>
			<path d="M83.4,245.1c0.3,4.7,0.5,9.4,0.8,14.1c0.4,7.1,0.8,14.2,1.2,21.3c0.1,2.4,0.2,4.9,0.3,7.3
				c0.1,0.8-0.3,0.9-1,0.9c-2.2,0-2.2,0-2.2-2.1c0.2-12,0.4-24,0.6-36.1c0-1.8,0-3.6,0-5.4C83.2,245.1,83.3,245.1,83.4,245.1z"></path>
			<path d="M87.5,246.9c0.2,3.5,0.4,7.1,0.6,10.6c0.4,8.2,0.8,16.4,1.1,24.5c0.1,1.9,0.2,3.8,0.3,5.7
				c0,0.7-0.2,0.9-0.8,0.9c-2.9-0.1-2.3,0.3-2.3-2.2c0.2-8.1,0.3-16.2,0.5-24.3c0.1-5,0.3-9.9,0.4-14.9
				C87.4,247.2,87.4,247.1,87.5,246.9C87.5,246.9,87.5,246.9,87.5,246.9z"></path>
			<path d="M113.3,289.2c-1,0.1-2.1,0.1-3.1,0c0.6-13.5,1.2-27.1,1.8-40.6c0.1,0,0.2,0,0.3,0
				C112.6,262.1,112.9,275.6,113.3,289.2z"></path>
			<path d="M91,252.2c0.8,4.5,0.6,9,0.8,13.5c0.4,7.3,0.6,14.5,0.9,21.8c0,0.9-0.1,1.4-1.1,1.2
				c-0.8-0.1-1.7,0.4-1.7-1.2C90.4,275.8,90.7,264,91,252.2z"></path>
			<path d="M76.9,246.9c0.5,0.6,0.4,1.2,0.4,1.7c0.3,12.8,0.5,25.7,0.7,38.5c0,0.3,0,0.6,0,1c0,0.3-0.1,0.5-0.5,0.5
				c-0.4,0-0.6-0.1-0.7-0.5c0-0.2,0-0.5,0-0.7c0-13.2,0-26.4,0-39.6C76.8,247.5,76.9,247.2,76.9,246.9z"></path>
			<path d="M118.9,245.7L118.9,245.7c0.1,1.1,0.2,2.1,0,3.2c-0.1,0-0.2,0-0.3,0C118.6,247.8,118.2,246.7,118.9,245.7z"></path>
			<path d="M117.6,285.4c0.1,0.1,0.2,0.3,0.2,0.4c0,0.4,0.2,0.9-0.2,1.2c-0.2,0.1-0.4,0.1-0.5-0.1
				c-0.2-0.4-0.3-0.9,0.1-1.3C117.3,285.5,117.4,285.5,117.6,285.4z"></path>
			<path d="M118.6,248.9c0.1,0,0.2,0,0.3,0c0,0.9,0.1,1.8,0.1,2.6c-0.2,0.1-0.3,0.2-0.5,0.2
				C118.6,250.8,118.6,249.8,118.6,248.9z"></path>
			<path d="M118.6,251.8c0.2-0.1,0.3-0.2,0.5-0.2c0.2,0.6,0.2,1.1,0.1,1.7c-0.2,0-0.4,0-0.6,0
				C118.5,252.7,118.5,252.2,118.6,251.8z"></path>
			<path d="M119.8,267.6c-0.4-0.3-0.4-0.6-0.1-1C119.9,267,119.9,267.3,119.8,267.6z"></path>
			<path d="M119.3,257.5c-0.4-0.2-0.4-0.5-0.1-0.7C119.4,257,119.5,257.3,119.3,257.5z"></path>
			<path d="M120,272.9c-0.3-0.1-0.3-0.3,0-0.5C120.1,272.5,120.2,272.7,120,272.9z"></path>
			<path d="M117.8,277.7c0.3,0.2,0.2,0.3,0,0.5C117.7,278,117.7,277.8,117.8,277.7z"></path>
		</g>
	</g>
</g>
<g onclick="select(this)" class="" id="c-estampa-primaria" fill="#bf0811">
	<g onclick="select(this)" class="">
		<path d="M188.9,113c0.3-4.8-0.1-9.6,1.3-14.4c0.7-2.5,0.4-5.3,0.7-8c0.3-3.6,0.6-7.2,1.8-10.7
			c0.3-0.9,0.7-1.8,1.7-2.4c0.5-0.3,0.8-0.8,1.1-1.2c2.6-3.9,3.9-8.4,5.2-12.8c1.1-3.7,2.2-7.4,2.8-11.3c0.7-4.4,0.7-8.7,0.5-13.1
			c-0.1-1.3-0.3-2.6,0-3.9c0.1-0.5-0.4-1.1-0.3-1.7c0-0.4,0-0.9,0.3-1.3c0.2,0.1,0.5,0.2,0.7,0.4c3,3,6.4,5.6,9.2,8.9
			c4.6,5.6,7.6,12.1,9.7,19c1.9,6.2,2.9,12.6,3.7,19c0.5,4.6,1.4,9.2,2.2,13.8c0.9,5.7,1.5,11.5,2.8,17.1c0.1,0.4,0.1,0.8,0.1,1.2
			c-2.8,0.7-5.5,1.5-8.3,1.7c-3.2,0.3-6.3,0.8-9.5,1.1c-3.1,0.3-6.2,1-9.4,1c-3.1,0.1-6.2-0.2-9.3-0.2c-1.5,0-2.8-0.5-4.1-1.2
			c-0.6-0.3-1.2-0.8-1.7-1.4C189.4,112.4,189.2,112.7,188.9,113z"></path>
		<path d="M31.4,32.4c0.4,0.8,0.4,1.5,0,2.3c-0.1,0.1-0.2,0.3-0.2,0.4c0.3,3.8-0.4,7.5-0.2,11.2
			c0.3,5.9,1.6,11.5,3.4,17.1c1,3.2,1.8,6.5,3.2,9.5c0.7,1.4,1.6,2.7,2.4,4.1c0.9,1.5,2,3.1,2.2,4.8c0.2,1.7,0.5,3.4,0.8,5.1
			c0.7,3.5,1.2,7,1.3,10.6c0,1.6,0.8,3.2,0.7,4.8c-0.1,2.3,0.2,4.5,0.7,6.7c0.3,1.4,0.8,2.8,0.7,4.3c0,0.6-0.3,1.1-0.3,1.6
			c-0.4-0.5-0.2-1-0.2-1.5c0-0.9-0.4-1-1-0.6c-2.3,1.4-4.8,1.4-7.4,1.4c-5.8,0.1-11.6-0.4-17.4-1.3c-5.7-0.9-11.5-1.9-17.2-3
			c-0.5-0.1-0.9-0.2-1.3-0.5c1.3-8,2.2-16,4.4-23.8c1.5-5.3,2-10.8,3-16.3c1.5-7.9,3.9-15.6,8.2-22.5c2.8-4.5,6.3-8.3,10.5-11.6
			C29,34.4,30,33.1,31.4,32.4z"></path>
	</g>
	<g onclick="select(this)" class="">
		<path d="M174.8,261.5c-0.1,3.3,0.1,6.5-0.2,9.8c-0.1-4.7-0.1-9.3,0-14C174.9,258.6,174.6,260.1,174.8,261.5z"></path>
		<g onclick="select(this)" class="">
			<g onclick="select(this)" class="">
				<path d="M141.6,288.9c0.9,0,1.7,0,2.6,0.1c-1.7,0.3-3.4,0.2-5.1,0.2c-4,0-8,0-12,0c0.4-0.3,0.9-0.2,1.4-0.2
					c4.3,0,8.6,0,12.8-0.1C141.4,288.9,141.5,288.9,141.6,288.9z"></path>
				<path d="M46.8,118.5c-0.5-1.1-0.2-2.4-0.5-3.5c0-0.6,0.3-1.1,0.3-1.6c0.1-1.5-0.4-2.9-0.7-4.3
					c-0.5-2.2-0.7-4.4-0.7-6.7c0.1-1.7-0.7-3.2-0.7-4.8c-0.1-3.6-0.7-7.1-1.3-10.6c-0.3-1.7-0.6-3.3-0.8-5.1
					c-0.2-1.8-1.3-3.3-2.2-4.8c-0.8-1.4-1.8-2.7-2.4-4.1c-1.5-3-2.2-6.3-3.2-9.5c-1.8-5.6-3.1-11.2-3.4-17.1
					c-0.2-3.8,0.5-7.5,0.2-11.2c0-0.1,0.1-0.3,0.2-0.4c0.4-0.8,0.4-1.5,0-2.3c4.2-2,8.4-4,12.7-5.8c7.2-2.8,14.2-5.9,21.3-9.1
					c3.9-1.8,7.5-4.1,11.1-6.3c0.4-0.3,0.8-0.7,1.1-1.1C78.8,8.9,80.1,7.9,82,8c8.7,0.7,17.4,2.4,26.2,2.6c3.8,0.1,7.6,0.6,11.4,0.4
					c7.6-0.4,15.2-0.7,22.7-1.6c3.8-0.4,7.5-1,11.2-1.6c2,0.1,3.5,1.1,4.8,2.5c1,1.2,2.4,1.8,3.7,2.6c8.6,4.8,17.6,8.9,26.8,12.5
					c4.9,1.9,9.7,4.4,14.5,6.5c0.2,0.1,0.4,0.3,0.6,0.4c-0.3,0.4-0.2,0.8-0.3,1.3c-0.1,0.6,0.4,1.2,0.3,1.7c-0.3,1.3,0,2.6,0,3.9
					c0.2,4.4,0.1,8.8-0.5,13.1c-0.6,3.8-1.7,7.6-2.8,11.3c-1.3,4.4-2.6,8.9-5.2,12.8c-0.3,0.5-0.6,1-1.1,1.2c-1,0.5-1.3,1.4-1.7,2.4
					c-1.2,3.5-1.5,7.1-1.8,10.7c-0.3,2.7,0.1,5.5-0.7,8c-1.4,4.8-1,9.6-1.3,14.4v0c-0.3,0.5-0.5,1.1-0.4,1.7
					c-0.3,1.9-0.3,3.8-0.3,5.7c-0.4,0.3-0.3,0.7-0.3,1.1c-1.2,10.5-1.5,21.1-0.9,31.6c0.2,4.4-0.3,8.9-0.4,13.3
					c-0.1,4.8,0.3,9.6,0.3,14.4c0,2.8-0.1,5.6-0.4,8.4c-0.2,1.9-0.3,3.8,0.1,5.6c0,0.2,0.1,0.5,0.1,0.7c-0.3,3.2,0.5,6.1,1.4,9.1
					c1.7,5.9,1.9,12,1.4,18.2c-0.3,3.7-0.8,7.4,0,11.2c0.3,1.3,0.2,2.6,0.1,3.9c-0.4,7.6,0.8,15.1,1.1,22.7c0.2,5.4,0.7,10.7,0.9,16
					c0.1,1.7,0.3,3.3,0.3,5c0,1.1-0.4,1.9-1.6,2.2c-0.1-6.7,0.3-13.4-0.9-20.1c0,6.8,0,13.6,0,20.5c-0.2,0-0.3,0.1-0.5,0.1
					c-0.2-18.8-0.4-37.6-0.6-56.4c-0.1,0-0.2,0-0.3,0c-0.3,5.3-0.6,10.7-0.8,16c-0.3,6.8-0.5,13.6-0.8,20.3
					c-0.1,2.4-0.1,4.7-0.3,7.1c-0.3,4.6-0.4,9.3-0.6,13.9c-0.2,0.1-0.4,0.1-0.7,0.2c-0.2-14.1-0.4-28.3-0.7-42.4
					c0-2.3,0.1-4.7-0.5-7c-0.2,6.9-0.5,13.7-0.7,20.6c-0.2,6-0.4,12.1-0.6,18.1c-0.1,3.8-0.2,7.6-0.4,11.4c-0.2,0-0.4,0.1-0.6,0.1
					c-0.2-7.1-0.5-14.2-0.7-21.3c-0.3-9.5-0.5-19-0.8-28.5c0-0.3,0.1-0.6-0.3-0.8c-0.3,0.2-0.2,0.5-0.2,0.8
					c-0.2,6.8-0.3,13.5-0.5,20.3c-0.3,10.1-0.6,20.1-0.7,30.2c-0.2,0-0.4,0-0.7,0.1c-0.5-16.8-0.9-33.5-1.4-50.3
					c-0.3,0.1-0.3,0.2-0.3,0.4c-0.3,7.8-0.5,15.5-0.7,23.2c0,0.4,0.1,0.9-0.1,1.3c-0.2-1.4,0.2-2.8-0.2-4.2c0-0.5,0-1,0-1.6
					c0-9,0-18,0-27c0.3-0.4,0.3-0.8,0-1.2c-0.1-4.6-0.1-9.1-0.2-13.7c0.3-0.9,0.4-1.8,0-2.6c-0.1-5-0.1-10.1-0.2-15.1
					c0.3-0.6,0.3-1.3,0-1.9c0-2.1-0.1-4.1-0.1-6.2c0-0.7-0.2-0.9-0.9-1c-2.3,0-2.3-0.1-2.3,2.3c0,0.3,0,0.6,0,0.8
					c-0.4,0.7-0.4,1.4,0,2.2c-0.1,3-0.1,6.1-0.2,9.1c-0.4,0.7-0.4,1.4,0,2.2c0,1.6-0.1,3.2-0.1,4.8c-0.1,0-0.3,0-0.4,0
					c-0.1-3.7-0.1-7.3-0.1-11c0.3-1.6,0.4-3.2-0.1-4.8c0-1.5-0.1-3-0.1-4.6c0-0.6-0.1-0.9-0.9-0.9c-1.5,0-1.5-0.1-1.6,1.6
					c-0.4,1.1-0.4,2.2-0.1,3.4c-0.1,3.7-0.1,7.4-0.2,11.1c-0.1,0-0.3,0-0.4-0.1c0-1.8-0.1-3.6-0.1-5.5c0.3-0.6,0.3-1.3-0.1-1.9
					c-0.1-2.6-0.1-5.1-0.2-7.7c0.3-0.4,0.5-0.8-0.3-0.9c-0.7,0-1.4,0-2.1,0c-0.2,0-0.5,0.1-0.5,0.3c0,1.1-0.3,2.2,0.2,3.3
					c-0.1,5.5-0.1,11-0.2,16.6c-0.1,0-0.3,0-0.5-0.1c0-1.3-0.1-2.5-0.1-3.8c0.3-0.6,0.3-1.3,0-1.9c-0.1-2.7-0.1-5.4-0.2-8.2
					c0.3-1.1,0.4-2.1-0.1-3.1c0-0.7-0.1-1.4-0.1-2.1c0.1-1.4-0.9-0.8-1.6-0.9c-0.7-0.1-1.1,0-1.1,0.9c0,2.6,0,5.1,0,7.7
					c-0.3,0.2-0.2,0.6-0.2,0.9c0,3.9,0,7.7,0,11.6c0,0.3,0,0.6,0.2,0.8c0,0.4,0,0.8,0,1.2c0,25.6,0,51.3,0,76.9c0,0.5,0,1,0,1.6
					c-0.7,0-1.4,0.1-2.1,0.1c0-0.2,0.1-0.4,0.1-0.6c0-13.5,0-26.9,0-40.4c0-0.2,0.1-0.6-0.4-0.8c0,0.5-0.1,0.9-0.1,1.3
					c-0.1,6.8-0.3,13.7-0.4,20.5c-0.1,6.7-0.4,13.3-0.3,20c-0.1,0-0.3,0-0.4,0c0-2.2-0.1-4.4-0.1-6.6c-0.1-11.5-0.2-23-0.3-34.5
					c0-2,0.1-4-0.3-6.3c-0.1,0.4-0.1,0.6-0.2,0.7c-0.4,5.9-0.7,11.9-1.1,17.8c-0.4,6.5-0.8,13-1.2,19.5c-0.2,3.1-0.6,6.3-0.5,9.4
					c-0.2,0-0.4,0-0.7,0c0-0.4,0.1-0.9,0.1-1.3c-0.2-11.2-0.3-22.4-0.5-33.6c0-2.9,0-5.9,0-8.8c-0.1,0-0.2,0-0.4,0
					c-0.1,1.8-0.2,3.6-0.3,5.4c-0.3,5.1-0.5,10.3-0.8,15.4c-0.4,6.6-0.8,13.2-1.1,19.9c-0.1,0.9-0.4,2.2,0.1,2.8
					c0.6,0.6,1.8,0.1,2.8,0.2c-1.2,0.2-2.5,0.1-3.7,0.1c0.2-0.4,0.1-0.9,0.1-1.3c-0.3-10.4-0.5-20.8-0.8-31.2c-0.1-3.2,0-6.3,0-9.5
					c-0.1,0-0.3,0-0.4,0c-0.3,7.1-0.7,14.3-1,21.4c-0.2,4.5-0.4,9-0.6,13.5c-0.1,2.4-0.2,4.7-0.2,7.1c-0.2,0-0.4,0-0.6,0
					c0-0.2,0.1-0.5,0.1-0.7c-0.3-11.9-0.6-23.7-0.9-35.6c0-0.2,0.1-0.5-0.4-0.6c-0.5,12.3-1,24.6-1.5,36.8c-0.1,0-0.2,0-0.4,0
					c-0.1-30,0.2-60-0.2-90c-0.1-3.6-0.1-7.3-0.1-10.9c0-0.9-0.4-1.1-1.1-1c-0.6,0.1-1.6-0.5-1.6,0.9c-0.3,9.7-0.3,19.3-0.9,29
					c0,0.4,0.1,0.8-0.1,1.1c-0.2-0.3-0.1-0.6-0.1-0.9c-0.1-6.5-0.2-13-0.3-19.4c-0.1-3.2-0.1-6.5-0.2-9.7c0-0.6-0.1-0.9-0.9-0.9
					c-1-0.1-1.3,0.3-1.3,1.3c-0.1,8-0.2,15.9-0.3,23.9c0,1.3-0.1,2.6-0.2,3.9c-0.1,0-0.3,0-0.4,0c0-2.5,0-5,0-7.5
					c-0.1-6.8-0.4-13.6-0.5-20.4c0-1-0.5-1-1.2-1.1c-0.9,0-1,0.3-1.1,1.1c0,2.9-0.1,5.8-0.1,8.8c-0.1,7.8-0.1,15.5-0.1,23.3
					c0,0.6,0,1.3-0.4,2c-0.2-8.1-0.4-15.9-0.6-23.7c-0.1-3.5-0.2-7-0.3-10.4c0-0.8-0.2-1-1-1c-1-0.1-1.2,0.3-1.2,1.3
					c0,33.3,0,66.6,0,99.8c0,0.4,0,0.7,0,1.1c-0.9,0-1.8,0-2.6,0c-0.6-13.6-1.2-27.1-1.8-40.7c-0.2,0-0.3,0-0.5,0
					c0,3.1,0.1,6.3,0,9.4c-0.2,10.4-0.5,20.9-0.8,31.3c-0.2,0-0.4,0-0.6,0c0-0.1,0-0.2-0.1-0.3c0.1-3.6-0.3-7.2-0.4-10.9
					c0-1.7-0.2-3.5-0.3-5.2c0.1-0.2,0.1-0.3,0-0.5c-0.1-1.6,0.1-3.2-0.2-4.8c0.1-0.3,0.1-0.6-0.1-1c0-1.4,0.1-2.9-0.2-4.3
					c0.1-0.3,0.1-0.5-0.1-0.7c0-1.4,0.1-2.7-0.2-4.1c0.1-0.3,0.1-0.5-0.1-0.7c0-1.2,0-2.4-0.2-3.6c0.2-0.6,0.1-1.1-0.1-1.7
					c0-0.9-0.1-1.8-0.1-2.6c0.1-1.1,0.1-2.1,0-3.2c0.1-1.2,0.3-2.5,0.3-3.7c0-7.3,0.3-14.5,0.5-21.8c0.2-10.7,0.3-21.4,0.4-32
					c0-0.8-0.1-1.2-1.1-1.2c-0.9,0-1.1,0.3-1.1,1.2c0.1,4.1,0.2,8.1,0.2,12.2c0.1,9,0.2,18.1,0.4,27.1c0,0.2,0,0.4,0,0.6
					c0.3,5.9,0.3,11.7,0.4,17.6c-0.7,1-0.3,2.1-0.3,3.2c0,1,0,1.9,0,2.9c0,0.5,0,1,0,1.4c-0.3,3.1-0.2,6.1-0.3,9.2
					c-0.2,5.1-0.2,10.2-0.4,15.3c-0.1,0.2-0.1,0.3,0,0.5c-0.1,2.4-0.1,4.8-0.2,7.2c-0.2,0.1-0.3,0.2-0.5,0.2
					c-0.3-13.2-0.7-26.5-1-39.8c-0.4,0.2-0.4,0.4-0.4,0.6c0,4.2-0.3,8.5-0.5,12.7c-0.2,4.2-0.3,8.4-0.5,12.6
					c-0.3,5.9-0.6,11.7-0.8,17.6c-0.2,0-0.4,0-0.6,0c0,0,0-0.1,0-0.1c-0.3-13.6-0.7-27.1-1-40.7c-0.1,0-0.2,0-0.3,0
					c-0.6,13.5-1.2,27.1-1.8,40.6c-0.1,0.1-0.1,0.1,0,0.2c-0.7,0-1.4,0-2.1,0c0-0.3,0.1-0.5,0.1-0.8c-0.1-20.2,0.2-40.5-0.1-60.7
					c-0.2-10.7-0.2-21.4-0.3-32c0-2.6-0.1-5.2,0-7.8c0-0.9-0.4-1.1-1.2-1c-0.7,0-1.3-0.1-1.3,1c-0.1,4.6-0.3,9.2-0.4,13.8
					c-0.2,5.8-0.3,11.7-0.5,17.5c0,0.3,0.1,0.6-0.3,0.7c-0.3-0.4-0.2-0.9-0.2-1.3c0-1.5,0-3,0-4.6c-0.1-8.7-0.2-17.4-0.2-26.1
					c0-0.8-0.3-1.1-1.1-1.1c-0.8,0-1.2,0.2-1.2,1.1c0,1.4-0.1,2.9-0.1,4.3c-0.2,7.8-0.4,15.6-0.6,23.4c0,0.4,0.1,0.9-0.4,1.6
					c0-0.7,0-1.1,0-1.5c-0.1-9.2-0.3-18.5-0.3-27.7c0-0.8-0.2-1.2-1.1-1.2c-1,0-1,0.4-1,1.2c0,1.8-0.1,3.7-0.1,5.5
					c-0.6,1.8-0.4,3.7-0.1,5.5c0,4,0,8-0.2,12c-0.2,0-0.4,0-0.6,0c-0.2-2.1-0.2-4.2-0.2-6.3c0.3-0.8,0.4-1.6-0.1-2.4
					c-0.2-2.2-0.2-4.5-0.2-6.7c0.3-0.7,0.4-1.4,0-2.2c-0.1-1.8-0.2-3.7-0.2-5.5c0-1.1-0.5-1.2-1.4-1.2c-1,0-1.3,0.2-1.3,1.3
					c0,5.3-0.1,10.6-0.1,15.8c0,28.4,0,56.9,0,85.4c-6.3,0-12.7,0.1-19-0.1c0-0.1,0-0.2,0-0.2c-0.1-33.6,0.1-67.3-0.1-100.9
					c0-0.9-0.2-1.3-1.2-1.2c-0.8,0.1-1.5-0.1-1.5,1.2c-0.1,6.5-0.3,13-0.5,19.5c0,0.4,0.1,0.8-0.3,1.1c-0.3-0.5-0.2-1-0.2-1.4
					c0-6.4-0.1-12.7-0.1-19.1c0-0.8,0-1.4-1.1-1.3c-0.9,0.1-1.6-0.1-1.6,1.2c0.1,4.2-0.4,8.4-0.3,12.6c0,1.4,0,2.9,0,4.3
					c0,0.2,0.1,0.6-0.4,0.8c0-0.7,0-1.3,0-1.8c-0.1-5.3-0.2-10.6-0.2-15.8c0-1.2-0.6-1.2-1.4-1.2c-1.1-0.1-1,0.5-1,1.3
					c-0.1,6.6-0.2,13.1-0.2,19.7c0,0.4,0.1,0.8-0.2,1.1c-0.4-0.3-0.3-0.7-0.3-1c-0.2-6.3-0.3-12.6-0.4-18.9c0-2.1,0-2.1-2.1-2.1
					c-0.9,0-1.1,0.3-1.1,1.1c0,1.9-0.1,3.8-0.1,5.6c-0.1,12.1-0.3,24.1-0.4,36.2c-0.1,18.9,0,37.9,0,56.9c0,0.4,0.1,0.9-0.1,1.3
					c-0.6-0.1-1.2-0.2-1.8-0.3c1.7,0,1.8,0,1.7-1.8c-0.1-3-0.3-6-0.3-9c-0.3-12.5-0.7-24.9-1-37.4c-0.1-2.8-0.2-5.7-0.3-8.5
					c-0.1,0-0.2,0-0.3,0c0,1.5,0,2.9,0,4.4c-0.4,15-0.9,30-1.3,44.9c-0.1,2.4-0.4,4.7-0.1,7.1c-0.3,0-0.5-0.1-0.8-0.1
					c0.2-0.4,0.1-0.8,0.1-1.2c0-2.4-0.1-4.9-0.2-7.3c-0.2-9-0.4-18.1-0.6-27.1c-0.1-5.4-0.3-10.9-0.5-16.3c0-0.3,0.2-0.7-0.5-0.8
					c-0.5,17.4-1,34.7-1.5,52c-0.2,0-0.4-0.1-0.6-0.1c-0.5-18.4-1.1-36.8-1.6-55.2c-0.2,0-0.3,0-0.5,0c0,2.9,0,5.7,0,8.6
					c-0.3,15.3-0.5,30.6-0.8,45.9c-0.2-0.1-0.4-0.1-0.6-0.2c-0.1-2-0.1-3.9-0.2-5.9c-0.3-7.5-0.7-15.1-1-22.6
					c-0.2-4.1-0.2-8.2-0.7-12.3c-0.6,13.2-2,26.3-2,39.5c-1.1-0.4-1-1.4-1-2.3c0.2-2.8,0.4-5.6,0.6-8.5c0.4-6.8,1.2-13.5,1.1-20.3
					c0-1.6,0.1-3.3,0.5-4.9c0.8-3.2,0.1-6.4,0-9.5c-0.2-4.7,0.2-9.3,1.4-13.8c0.5-1.8,0.5-3.5,0.3-5.3c-0.9-7.7-1-15.3,0.6-22.9
					c0.2-0.1,0.2-0.2,0-0.3c0-0.2,0.1-0.4,0.1-0.6c0.4,0.4,0.2,1,0.2,1.5c0,5.3,0,10.5,0.1,15.8c0,0.8,0,1.5,0,2.3
					c0.4-1.7,0.5-3.5,0.6-5.2c0.1-2.9,0.1-5.9,0.2-8.9c0.1-4.6,0.2-9.3,0.4-13.9c0-0.7-0.3-0.9-0.9-0.8c0-3.7,0-7.4-0.1-11
					c-0.1-5.6,0-11.3-0.4-16.9c-0.3-3.7,0.4-7.3,0.3-11C48,138.2,47.5,128.3,46.8,118.5z M79.2,241.6c-0.1,0-0.2,0-0.2,0
					c-0.1,0.6-0.1,1.3-0.1,1.9c-0.2,14.1-0.3,28.3-0.5,42.5c0,2.7,0,2.7,2.8,2.7c0.7,0,1-0.2,0.9-0.9c-0.1-1.6-0.2-3.2-0.3-4.8
					c-0.3-4.3-0.5-8.5-0.8-12.8c-0.4-6.5-0.8-13-1.2-19.5C79.5,247.6,79.4,244.6,79.2,241.6z M114.8,244.5
					c0.7-5.4,0.2-11.1,0.8-16.7c0.4-3.6,0.2-7.2,0.3-10.8c0.2-9.6,0.5-19.3,0.7-28.9c0-0.9-0.1-1.3-1.1-1.2c-0.8,0-1.4,0-1.4,1.1
					c0.1,3.3,0.1,6.6,0.2,9.9c0.1,14.9,0.2,29.8,0.4,44.7C114.6,243.4,114.5,244.1,114.8,244.5z M123.3,236.4c0.3-2,0.3-4.4,0.3-6.7
					c0-1.8,0.1-3.6,0.1-5.4c0.2-12.1,0.3-24.2,0.5-36.3c0-1.1-0.6-1-1.3-1c-0.7,0-1.2,0-1.2,1c0.1,2,0.2,4.1,0.2,6.1
					C122.2,208.3,122.4,222.5,123.3,236.4z M83.4,245.1c-0.1,0-0.2,0-0.3,0c0,1.8,0,3.6,0,5.4c-0.2,12-0.4,24-0.6,36.1
					c0,2.2,0,2.1,2.2,2.1c0.7,0,1-0.1,1-0.9c-0.2-2.4-0.2-4.9-0.3-7.3c-0.4-7.1-0.8-14.2-1.2-21.3C83.9,254.5,83.7,249.8,83.4,245.1
					z M87.5,246.9C87.5,246.9,87.5,246.9,87.5,246.9c-0.1,0.1-0.2,0.3-0.2,0.4c-0.1,4.9-0.3,9.9-0.4,14.8
					c-0.2,8.1-0.4,16.2-0.5,24.3c-0.1,2.5-0.6,2.1,2.3,2.2c0.7,0,0.9-0.2,0.8-0.9c-0.1-1.9-0.2-3.8-0.3-5.7
					c-0.4-8.2-0.8-16.4-1.1-24.5C87.9,254,87.7,250.5,87.5,246.9z M110.4,208c0.1,0,0.2,0,0.3,0c0,6.6,0,13.1,0,19.7
					c0,0.3,0,0.6,0,0.8c0,0.2,0.1,0.4,0.3,0.4c0.3,0,0.3-0.2,0.3-0.4c0.1-0.9,0.3-1.9,0.3-2.8c0.3-12.5,0.7-25,1-37.5
					c0-0.9-0.2-1.2-1.2-1.2c-1,0-1.2,0.3-1.2,1.2C110.4,194.8,110.4,201.4,110.4,208z M91,252.2c-0.3,11.8-0.6,23.6-1,35.3
					c-0.1,1.5,0.9,1.1,1.7,1.2c1.1,0.2,1.2-0.4,1.1-1.2c-0.3-7.3-0.6-14.5-0.9-21.8C91.6,261.2,91.9,256.7,91,252.2z M144,228.7
					c0.4-0.3,0.3-0.6,0.3-0.9c0.4-13.2,0.7-26.4,1-39.7c0-0.8-0.1-1.2-1-1.1c-0.9,0-1.1,0.3-1.1,1.2c0.1,4.4,0.2,8.8,0.2,13.2
					c0.1,8.8,0.2,17.5,0.3,26.3C143.8,227.9,143.6,228.4,144,228.7z M90.9,207.9c0.2,0,0.3,0,0.5,0c0-6.6,0-13.2,0-19.8
					c0-0.9-0.3-1.1-1.1-1.1c-0.9,0-1,0.4-1,1.2c0.2,4.8,0.3,9.6,0.4,14.4c0.2,8.4,0.4,16.7,0.6,25.1c0,0.3,0,0.6,0.1,0.8
					c0,0.1,0.1,0.3,0.3,0.2c0.1,0,0.2-0.1,0.2-0.3c0-0.2,0-0.5,0-0.7C90.9,221.1,90.9,214.5,90.9,207.9z M152.6,228.6
					c0.3-0.4,0.2-0.8,0.2-1.1c0.1-13.1,0.2-26.2,0.3-39.3c0-0.7,0-1.2-1-1.2c-1,0-0.9,0.6-0.9,1.2c0.2,5.1,0.3,10.2,0.5,15.3
					c0.2,7.9,0.4,15.9,0.6,23.8C152.3,227.8,152.2,228.2,152.6,228.6z M82.2,228.6c0.1-0.9,0.2-1.6,0.2-2.4
					c0.4-12.7,0.7-25.3,1.1-38c0-0.7,0.1-1.2-0.9-1.2s-0.9,0.6-0.9,1.2c0.1,4.7,0.1,9.4,0.2,14.1c0.1,8.4,0.1,16.7,0.2,25.1
					C82,227.8,81.8,228.2,82.2,228.6z M86,228.8c0.7-0.3,0.6-0.6,0.6-0.9c0.2-13.2,0.4-26.5,0.7-39.7c0-0.7,0-1.2-1-1.2
					c-1,0-0.8,0.6-0.8,1.2c0.1,3.8,0.2,7.6,0.2,11.4c0.1,8.1,0.2,16.2,0.3,24.3C86.1,225.4,86,227,86,228.8z M148.7,204.9
					c0.1,0,0.2,0,0.3,0c0-0.1,0-0.2,0-0.2c0.1-5.5,0.2-11,0.3-16.4c0-0.6,0.2-1.3-0.9-1.3c-1.2,0-0.9,0.7-0.9,1.3
					c0,1.3,0.1,2.6,0.1,4c0.1,9,0.3,17.9,0.4,26.9c0,1,0.1,1.9,0.1,2.9c0,0.3-0.1,0.7,0.3,0.7c0.5,0,0.3-0.4,0.4-0.7
					c0-0.2,0-0.3,0-0.5C148.7,216,148.7,210.4,148.7,204.9z M78.1,223c0.6-1.8,0.7-3.7,0.7-5.5c0.2-5.1,0.3-10.3,0.5-15.4
					c0.1-4.6,0.2-9.3,0.4-13.9c0-0.9-0.3-1.2-1.1-1.1c-0.9,0-0.7,0.6-0.7,1.2c0.1,8.9,0.2,17.8,0.3,26.7
					C78.1,217.6,78.1,220.3,78.1,223z M156,220.9c0.1,0,0.1,0,0.2,0c0.1-0.9,0.3-1.9,0.3-2.8c0.1-8,0.2-16,0.3-24
					c0-2,0.1-4.1,0.1-6.1c0-0.7-0.2-0.9-1-1c-0.9,0-0.9,0.4-0.9,1.1c0.3,10.3,0.6,20.5,0.9,30.8C155.9,219.6,156,220.2,156,220.9z
					 M76.9,246.9c0,0.3-0.1,0.6-0.1,0.9c0,13.2,0,26.4,0,39.6c0,0.2,0,0.5,0,0.7c0,0.4,0.3,0.5,0.7,0.5c0.4,0,0.5-0.2,0.5-0.5
					c0-0.3,0-0.6,0-1c-0.2-12.8-0.5-25.7-0.7-38.5C77.3,248,77.4,247.4,76.9,246.9z M56.9,221.1C56.9,221.1,57,221.1,56.9,221.1
					c0.2-0.8,0.3-1.6,0.3-2.4c0.1-10.3,0.3-20.5,0.4-30.8c0-0.6,0-1-0.8-1c-0.8,0-0.8,0.4-0.7,1C56.4,199,56.7,210.1,56.9,221.1z
					 M176.6,218.8c0.6-1.2-0.2-2.2-0.1-3.2c0.4-2.8,0.2-5.7,0.4-8.6c0.4-6.4,0.4-12.8,0.6-19.2c0-0.8-0.6-1.1-1.2-0.8
					c-0.6,0.3-0.3,0.8-0.3,1.2c0.1,9.9,0.2,19.8,0.3,29.6C176.3,218.1,176.2,218.5,176.6,218.8z M52.7,217.3c0.2-0.5,0.3-1,0.3-1.5
					c0-2.4,0-4.9,0.1-7.3c0.1-6.9,0.2-13.8,0.3-20.6c0-0.5,0-0.8-0.6-0.8c-0.5,0-0.7,0.2-0.7,0.7c0,0.3,0,0.6,0,0.8
					C52.3,198.1,52.3,207.7,52.7,217.3z M180.8,216.7c0.1-1.2,0.2-2.7,0.3-4.2c0.1-8.1,0.2-16.1,0.4-24.2c0-0.3,0-0.6,0-0.8
					c0-0.4-0.2-0.5-0.6-0.5c-0.4,0-0.6,0.1-0.6,0.5c0,0.3,0,0.6,0,1c0.1,6.5,0.2,13,0.3,19.5C180.6,211,180.5,214,180.8,216.7z
					 M184.8,210.7c0.3-1.7,0.4-3.5,0.4-5.3c0.2-5.8,0.2-11.7,0.2-17.5c0-0.4,0.1-0.9-0.6-0.9c-0.8,0-0.7,0.5-0.7,1
					c0.1,2.2,0.1,4.5,0.2,6.7C184.5,200,184.6,205.4,184.8,210.7z"></path>
			</g>
			<path d="M159.6,195.6c0.2,0.3,0.2,0.6,0.2,0.9c0,3.8,0,7.6,0,11.4c0,0.3,0.1,0.6-0.2,0.9c-0.2-0.2-0.2-0.5-0.2-0.8
				c0-3.9,0-7.7,0-11.6C159.4,196.2,159.3,195.8,159.6,195.6z"></path>
			<path d="M163.3,207.1c0.3,2.4,0.1,4.8,0.1,7.3c0,0.8-0.1,1.7-0.3,2.8c-0.2-3.6-0.4-6.9-0.3-10.1
				C163,207.1,163.1,207.1,163.3,207.1z"></path>
			<path d="M170.3,208.3c0.2,2.8,0.1,5.6-0.2,8.4c-0.2-2.8-0.5-5.6-0.2-8.4C170,208.3,170.1,208.3,170.3,208.3z"></path>
			<path d="M166.9,203c0.3,1.6,0.1,3.2,0,4.9c-0.1,0.6-0.1,1.2-0.2,1.8c-0.2-2.2-0.5-4.4-0.2-6.7
				C166.6,203,166.7,203,166.9,203z"></path>
			<path d="M97.8,193.6c0.2,1.9,0.2,3.7-0.1,5.5C97.3,197.3,97.2,195.5,97.8,193.6z"></path>
			<path d="M169.7,197.3c-0.3-1.6-0.3-3.2-0.1-4.8C170.1,194.1,170,195.7,169.7,197.3z"></path>
			<path d="M163.7,187c-0.4,1.2,0.2,2.4-0.3,3.6c-0.4-1.1-0.2-2.2-0.2-3.3C163.3,187.1,163.5,187,163.7,187z"></path>
			<path d="M167.1,188.6c0.2,1.1,0.3,2.3-0.1,3.4C166.7,190.9,166.6,189.8,167.1,188.6z"></path>
			<path d="M162.5,193.2c-0.3-1-0.3-2.1-0.1-3.1C162.9,191.1,162.8,192.1,162.5,193.2z"></path>
			<path d="M174.3,213.8c-0.3-0.9-0.3-1.8,0-2.6C174.6,212.1,174.6,212.9,174.3,213.8z"></path>
			<path d="M96.7,205c-0.3-0.8-0.3-1.6-0.1-2.4C97.1,203.3,97.1,204.1,96.7,205z"></path>
			<path d="M96.5,195.8c-0.3-0.7-0.3-1.4,0-2.2C96.9,194.4,96.8,195.1,96.5,195.8z"></path>
			<path d="M170.7,190.1c0.3,0.7,0.3,1.4,0,2.2C170.3,191.5,170.3,190.8,170.7,190.1z"></path>
			<path d="M170.4,201.4c0.3,0.7,0.3,1.4,0,2.2C170.1,202.8,170,202.1,170.4,201.4z"></path>
			<path d="M174,196.1c-0.3-0.6-0.3-1.3,0-1.9C174.4,194.8,174.3,195.4,174,196.1z"></path>
			<path d="M162.7,203.3c-0.3-0.6-0.3-1.3,0-1.9C163.1,202,163.1,202.6,162.7,203.3z"></path>
			<path d="M166.3,197.5c-0.3-0.6-0.3-1.3-0.1-1.9C166.7,196.2,166.6,196.9,166.3,197.5z"></path>
			<path d="M97.5,211.2c0.2,0.3,0.2,0.6,0,1c-0.2,0-0.4,0-0.6,0c0-0.3,0-0.6,0-0.9C97.1,211.2,97.3,211.2,97.5,211.2z"></path>
			<path d="M174.5,228.7c-0.3-0.4-0.3-0.8,0-1.2C174.8,227.9,174.8,228.3,174.5,228.7z"></path>
			<path d="M166.1,187.9c-0.1-0.3-0.2-0.6-0.3-0.9C166.6,187.1,166.4,187.5,166.1,187.9z"></path>
			<path d="M97.5,212.9c0,2.6,0,5.2,0,7.8c-0.2,0-0.3,0-0.5,0c0.1-2.6-0.3-5.2,0-7.8C97.1,212.9,97.3,212.9,97.5,212.9z
				"></path>
			<path d="M97.5,212.9c-0.2,0-0.4,0-0.5,0c0-0.3,0-0.5,0-0.8c0.2,0,0.4,0,0.6,0C97.5,212.4,97.5,212.6,97.5,212.9z"></path>
		</g>
	</g>
</g>
</svg>
