<!--?xml version="1.0" encoding="utf-8"?-->
<!-- Generator: Adobe Illustrator 24.2.3, SVG Export Plug-In . SVG Version: 6.00 Build 0)  -->
<svg version="1.1" id="Camada_1" xmlns="http://www.w3.org/2000/svg" xmlns:xlink="http://www.w3.org/1999/xlink" x="0px" y="0px" viewBox="0 0 229 418" style="enable-background:new 0 0 229 418;" xml:space="preserve">
<style type="text/css">
	.st0{fill:#FD0303;}
	.st1{fill:#0101FC;}
	.st2{fill:#82E43C;}
	.st3{fill:#020401;}
</style>
<g onclick="select(this)" class="" id="gola-primaria" fill="#343434">
	<path d="M77.9,8c0.6-0.1,1-0.4,1.4-0.8c0.9-0.9,2-1.7,2.7-2.7c1.8-2.5,4.4-3.4,7.3-3.8c0.6-0.1,1.3,0.1,1.9-0.5
		c1.2,0,2.4,0,3.6,0c0.2,0.5,0.6,0.3,0.9,0.3c5.6,0,11.2,0,16.7,0c0.4,0,0.8-0.1,1.1-0.3c7.5,0,15,0,22.6,0c0.1,0.5,0.5,0.3,0.8,0.4
		c1,0.2,2,0.3,2.9,0.4c2,0.3,3.7,1.1,4.9,2.8c1.3,1.7,2.7,3.3,4.6,4.4c1.3,0.6,1.9,1.5,1.8,3c-0.2,3.7-2.1,6.7-4.3,9.6
		c-0.4,0.5-0.7,0.1-1-0.1c-1.8-1.4-3.5-2.8-5.3-4.1c-0.7-0.5-0.7-0.8-0.1-1.5c1.6-1.8,2.9-3.7,3.8-6.1c-2.6,0.2-5,0.4-7.4,0.6
		c-10.8,0.7-21.5,1.8-32.3,1c-6.7-0.5-13.4-1.1-20.1-1.7c-0.4,0-0.9-0.2-1.2,0c-0.3,0.4,0.1,0.8,0.2,1.2c0.8,2,2.1,3.6,3.5,5.1
		c0.4,0.4,0.8,0.8,0.1,1.3c-1.8,1.4-3.6,2.8-5.3,4.3c-0.5,0.4-0.8,0.3-1.2-0.1c-1.9-2.4-3.4-4.9-4.2-7.9C75.8,10.6,76.3,9.1,77.9,8z
		"></path>
</g>
<g onclick="select(this)" class="" id="detalhe-punho" fill="#000000">
	<path d="M227.8,108.4c0.6,0.8,0.4,1.7,0.7,2.6c0.1,0.4,0.1,0.9,0.4,1.3c0,1.3,0,2.6,0,3.8c-2.6,1.5-5.5,2-8.4,2.9
		c-9.3,2.7-18.8,3.3-28.3,2.8c-2.1-0.1-4.1-0.3-6.2-0.9c-0.5-0.2-1-0.4-1.5-0.7c-0.3-2.5,0.4-4.9,0.5-7.4c3.8,0.7,7.6,1,11.4,1
		c2.5,0,5,0.2,7.4-0.2c3.1-0.5,6.1-1,9.2-1.6C218.1,111.2,223,109.8,227.8,108.4z"></path>
	<path d="M0.2,114.7c0.5-1.2,0.4-2.5,0.7-3.7c0.1-0.4,0-0.9,0.4-1.2c0.3,0.1,0.6,0.3,0.9,0.4c6.3,2.3,12.8,3.4,19.4,4.1
		c3.4,0.3,6.9,0,10.3,0c1.8,0,3.5-0.1,5.3-0.3c1.4-0.2,3,0.1,4.3-0.8c0.4-0.3,0.6,0.1,0.8,0.4c0.4,0.8,0.2,1.7,0.6,2.4
		c0,1.5,0.6,3,0.3,4.5c-2.7,1.3-5.6,1.7-8.5,1.8c-9.4,0.4-18.7,0.1-27.8-2.1c-2.3-0.6-4.5-1.1-6.7-2.2
		C0.2,116.9,0.2,115.8,0.2,114.7z"></path>
</g>
<g onclick="select(this)" class="" id="estampa-primaria" fill="#343434">
	<path d="M42.9,115.9c-0.4-0.8-0.2-1.7-0.6-2.4c-0.2-0.3-0.4-0.7-0.8-0.4c-1.3,0.9-2.9,0.6-4.3,0.8c-1.7,0.2-3.5,0.3-5.3,0.3
		c-3.4,0.1-6.9,0.4-10.3,0c-6.6-0.7-13.1-1.7-19.4-4.1c-0.3-0.1-0.6-0.3-0.9-0.4c1.8-9.5,2.7-19.1,4.3-28.7
		C6.5,76,6.8,70.8,7.9,65.7c1.7-8.1,4.5-15.7,9.4-22.5c2.1-2.9,4.6-5.5,7.4-7.8c1.3-1.1,2.3-2.5,3.8-3.3c3.6-1.9,7.3-3.7,11-5.3
		c10-4.1,20.1-8.2,29.6-13.5c1.9-1.1,3.9-2.1,5.4-3.8c0.8-1,2-1.6,3.4-1.6c-1.7,1.2-2.1,2.6-1.5,4.9c0.8,2.9,2.3,5.5,4.2,7.9
		c0.4,0.5,0.7,0.6,1.2,0.1c1.8-1.4,3.5-2.9,5.3-4.3c0.7-0.6,0.3-0.9-0.1-1.3c-1.4-1.5-2.7-3.2-3.5-5.1C83.4,9.8,83,9.3,83.4,9
		c0.3-0.3,0.8-0.1,1.2,0c6.7,0.6,13.4,1.2,20.1,1.7c10.8,0.8,21.6-0.2,32.3-1c2.4-0.2,4.8-0.4,7.4-0.6c-0.9,2.4-2.2,4.3-3.8,6.1
		c-0.5,0.6-0.6,0.9,0.1,1.5c1.8,1.3,3.6,2.7,5.3,4.1c0.3,0.2,0.6,0.6,1,0.1c2.2-2.8,4-5.8,4.3-9.6c0.1-1.5-0.5-2.4-1.8-3
		c1.8-0.1,3,1,4,2.2c0.3,0.4,0.7,0.7,1.1,1c10,6.5,21.2,10.6,32.2,15.2c4,1.7,7.8,3.6,11.7,5.3c1.6,0.7,2.7,2.3,4.2,3.3
		c3.1,2.3,5.8,5.1,8.2,8.2c4.8,6.4,7.6,13.7,9.3,21.5c0.6,2.9,1.2,5.8,1.5,8.7c0.6,5.8,2.3,11.3,3.4,17c1.1,5.9,1.9,11.8,2.9,17.7
		c-4.9,1.4-9.7,2.8-14.7,3.7c-3.1,0.5-6.1,1-9.2,1.6c-2.4,0.4-4.9,0.2-7.4,0.2c-3.8,0-7.6-0.2-11.4-1c0.4-4.4,1.3-8.8,2.2-13.1
		c0.5-2.6,1.2-5.1,1.8-7.7c-0.4,0.4-0.6,0.8-0.8,1.2c-1.8,4.1-3,8.4-4.2,12.8c-2.4,8.9-3.8,18-4.8,27.2c-0.6,5.2-0.9,10.4-1.2,15.7
		c-0.3,4.9-0.5,9.9-0.5,14.8c0,16.9-0.3,33.9,0.2,50.8c0.2,7.3,0.3,14.6,0.5,21.9c0.2,4.9,0.3,9.7,0.5,14.6c0.2,6,0.5,12,0.7,17.9
		c0.2,5,0.4,10,0.8,15.1c-7.7,1.1-15.4,1.4-23.1,1.5c-12.9,0.2-25.9,0.6-38.8,0.9c-6.8,0.2-13.5-0.5-20.2-0.6
		c-8.7-0.1-17.4-0.2-26.1-0.4c-8.3-0.2-16.6-0.4-24.8-1.8c0.5-3.8,0.5-7.6,0.7-11.3c0.4-5.6,0.6-11.2,0.8-16.9
		c0.1-4.4,0.3-8.9,0.5-13.3c0.3-6.3,0.4-12.5,0.5-18.8c0.1-4,0.2-8,0.2-12c0.1-14.3,0.1-28.5,0.1-42.8c0-2.2,0-4.5-0.1-6.7
		c-0.3-6.3-0.3-12.7-0.9-19c-0.2-2.5-0.3-4.9-0.5-7.4c-0.6-4.9-1.1-9.9-2-14.7c-1.1-6-2.2-12-3.9-17.8c-0.7-2.2-1.2-4.4-2.2-6.6
		c-0.6,0.9,0.2,1.4,0.2,2.1c0.4,3.4,1.1,6.7,1.4,10.1C42.3,111,43.1,113.4,42.9,115.9z"></path>
</g>
<g onclick="select(this)" class="" id="detalhe-lateral" fill="#000000">
	<path d="M180.3,284c-0.4-5-0.6-10-0.8-15.1c-0.3-6-0.5-11.9-0.7-17.9c-0.2-4.9-0.3-9.7-0.5-14.6
		c-0.3-7.3-0.3-14.6-0.5-21.9c-0.4-16.9-0.2-33.9-0.2-50.8c0-4.9,0.2-9.9,0.5-14.8c0.3-5.2,0.7-10.5,1.2-15.7
		c1-9.2,2.5-18.3,4.8-27.2c1.1-4.3,2.4-8.6,4.2-12.8c0.2-0.4,0.4-0.8,0.8-1.2c-0.6,2.6-1.3,5.1-1.8,7.7c-0.9,4.3-1.8,8.7-2.2,13.1
		c-0.1,2.5-0.7,4.9-0.5,7.4c-1.3,10.3-2.3,20.7-2,31.2c0.1,2.4,0.8,4.8,0.4,7.3c-0.3,2.3-0.4,4.7-0.4,7c0.1,6.6,0.1,13.2-0.1,19.7
		c-0.1,4.5,0.7,8.7,1.4,13c0.9,5.1,1,10.2,0.2,15.4c-0.3,2.3-0.5,4.7-0.8,7c0,0.4,0.1,0.8,0.2,1.2c2,5.7,2.5,11.6,1.6,17.6
		c-0.3,2.1-0.3,4.2,0.1,6.3c0.4,2,0.5,4,0.5,6c-0.1,7.4,0.7,14.7,1.4,22c0.2,2.3,0.3,4.6,0.3,6.9c0,1.1-0.5,1.8-1.5,2.2
		C184.2,283.5,182.3,284,180.3,284z"></path>
	<path d="M42.9,115.9c0.2-2.5-0.6-4.9-0.9-7.4c-0.4-3.4-1-6.7-1.4-10.1c-0.1-0.7-0.8-1.2-0.2-2.1
		c0.9,2.2,1.5,4.4,2.2,6.6c1.8,5.8,2.9,11.8,3.9,17.8c0.9,4.9,1.4,9.8,2,14.7c0.3,2.4,0.3,4.9,0.5,7.4c0.6,6.3,0.6,12.6,0.9,19
		c0.1,2.2,0.1,4.5,0.1,6.7c0,14.3,0,28.5-0.1,42.8c0,4-0.1,8-0.2,12c-0.1,6.3-0.3,12.5-0.5,18.8c-0.2,4.4-0.3,8.8-0.5,13.3
		c-0.2,5.6-0.4,11.2-0.8,16.9c-0.3,3.8-0.2,7.6-0.7,11.3c-1.7-0.1-3.4-0.5-5-1.1c-1.6-0.6-2-1.1-2-2.8c0-2.8,0.2-5.6,0.4-8.3
		c0.4-5.3,0.7-10.6,1.2-15.9c0.4-4.8-0.1-9.6,0.9-14.3c0.2-0.9,0.1-1.8,0-2.7c-0.5-3.1-0.3-6.2,0.3-9.3c0.2-0.9,0.1-1.7,0.1-2.6
		c-0.3-4.1-0.9-8.3-0.9-12.4c0-4.8,1.1-9.4,2.7-13.9c0.3-1,0.6-1.9,0.4-2.9c-0.2-1.5-0.1-3,0.1-4.5c0.1-0.6,0.2-1.3,0.2-1.9
		c-0.4-4.8-0.1-9.7-0.4-14.5c-0.1-1.1,0.1-2.2,0.2-3.3c0.1-1.9,0.1-3.7,0-5.6c-0.4-6.8-0.1-13.6,0-20.4c0.1-7.3-0.6-14.6-1.6-21.9
		c-0.2-1.5-0.4-3.1-0.6-4.6C43.5,118.9,43,117.4,42.9,115.9z"></path>
</g>
<path d="M106.7,40.8c0-0.1-0.1-0.2-0.1-0.2c0.1-0.2,0.2-0.1,0.3,0C106.8,40.8,106.8,40.8,106.7,40.8z"></path>
<path d="M160.3,29.8c-0.1,0-0.1,0-0.2,0c0,0,0-0.1,0-0.1C160.2,29.7,160.3,29.7,160.3,29.8
	C160.3,29.8,160.3,29.8,160.3,29.8z"></path>
<path d="M124.6,124.1c-0.1,0-0.1,0.1-0.2,0.1C124.5,124.2,124.5,124.1,124.6,124.1C124.5,124.1,124.6,124.1,124.6,124.1
	z"></path>
<path d="M137.5,74.6c0,0-0.1,0-0.1,0C137.4,74.6,137.5,74.6,137.5,74.6C137.5,74.6,137.5,74.6,137.5,74.6L137.5,74.6z"></path>
<path d="M135.3,77.6c0.1,0.1,0.1,0.2,0,0.3c0,0-0.1-0.1-0.2-0.1C135.1,77.8,135.2,77.7,135.3,77.6z"></path>
<g onclick="select(this)" class="" id="estampa-secundaria" fill="#000000">
	<path d="M181.4,119.3c-0.8-2-1.3-4.2-2-6.3c-0.2-0.6,0-0.8,0.6-0.7c0.9,0.1,1.8,0.1,2.6,0.2
		C182.2,114.8,181.8,117.1,181.4,119.3z"></path>
	<path d="M110.2,286.4c2.1-2.3,4.5-4.2,6.7-6.3c0.6-0.6,1.3-1.7,1.9-1.6c0.7,0.2,0.9,1.5,1.3,2.3
		c0.9,1.8,1.9,3.6,2.6,5.5c-1.7,0.1-3.5,0.8-5.1-0.4c-0.3-0.2-0.4,0.1-0.6,0.1C114.7,287,112.4,286.5,110.2,286.4z"></path>
	<path d="M49.2,237.8c-0.2-1.5,0.2-3,0.2-4.5c7.9-3.3,15.8-6.6,23.6-9.9c0.8-0.3,0.9-0.1,1,0.6
		c0.5,8.3,1.1,16.6,1.6,24.9c0.6,8.4,1.1,16.8,1.7,25.2c0.2,3,0.4,6,0.7,9.2c2.2-2,4.3-3.9,6.3-5.8c13.7-12.6,27.4-25.2,41.1-37.8
		c0.9-0.8,0.9-0.2,1.2,0.4c6.1,12.6,12.2,25.2,18.4,37.8c1.1,2.2,2.2,4.4,3.3,6.7c0.2,0.4,0.5,0.7,0.4,1.1c-1.4,0.2-2.9,0.1-4.3,0.1
		c-6.3-12.9-12.5-25.8-18.8-38.7c-0.7-1.3-0.7-1.3-1.8-0.3c-5.7,5.3-11.5,10.6-17.2,15.8c-8.3,7.6-16.6,15.3-24.9,23
		c-0.6,0.4-1.3,0.2-2,0.2c-1.8,0-3.7-0.1-5.6-0.2c-0.3-4-0.6-8.1-0.8-12.1c-0.4-6.7-0.9-13.4-1.3-20.1c-0.5-7.6-1-15.3-1.5-22.9
		c-0.1-1.3-0.1-1.4-1.3-0.9C62.5,232.2,55.9,235,49.2,237.8z"></path>
	<path d="M87.2,285.7c4.8-4.5,9.7-8.9,14.6-13.4c7.1-6.5,14.2-13,21.2-19.5c0.2-0.2,0.4-0.4,0.7-0.6
		c0.2,0.5,0.5,0.9,0.7,1.4c5,10.4,10.1,20.7,15.1,31.1c0.2,0.4,0.5,0.8,0.5,1.2c-1.4,0.3-2.9,0.2-4.3,0.1c0-0.1-0.1-0.2-0.1-0.3
		c-4.2-8.7-8.5-17.4-12.7-26c-0.4-0.8-0.6-0.6-1.2-0.1c-9.5,8.8-19,17.5-28.5,26.3C91.2,285.9,89.2,285.9,87.2,285.7z"></path>
	<path d="M49.2,242c5.6-2.3,11.1-4.6,16.7-7c0.9-0.4,1-0.2,1.1,0.7c0.5,8,1.1,16.1,1.6,24.1c0.4,5.7,0.7,11.4,1.1,17
		c0.2,2.9,0.4,5.7,0.6,8.6c-1.4,0.1-2.7,0.2-4.1-0.1c-0.4-6.3-0.8-12.6-1.2-18.8c-0.5-8.2-1.1-16.4-1.6-24.7
		c-0.1-1.1-0.4-1.1-1.2-0.7c-4.4,1.9-8.8,3.6-13.2,5.4C48.9,245,49,243.5,49.2,242z"></path>
	<path d="M155.4,285.6c1.3-3.2,3-6.1,4.6-9.2c5.1-10.2,10.3-20.3,15.5-30.5c0.9-1.8,1.7-3.6,2.8-5.3
		c0.2,2.8,0.4,5.6,0.3,8.4c-0.2,0.3-0.4,0.5-0.5,0.8c-6.1,11.9-12.1,23.8-18.1,35.7C158.4,285.6,156.9,285.7,155.4,285.6z"></path>
	<path d="M48.8,251c3.4-1.4,6.7-2.8,10.1-4.2c0.8-0.3,1.1-0.3,1.1,0.7c0.6,9.4,1.2,18.8,1.8,28.2
		c0.2,3.2,0.5,6.4,0.7,9.6c-1.4,0.2-2.7-0.1-4.1-0.2c0-0.3,0-0.6,0-1c-0.5-8.2-1.1-16.5-1.6-24.7c-0.2-2.3-0.3-4.6-0.5-7
		c-2.6,1.1-5,2-7.5,3C48.8,253.9,48.8,252.4,48.8,251z"></path>
	<path d="M98.8,286c3.3-3,6.5-6.1,9.8-9.1c3.9-3.6,7.8-7.2,11.7-10.8c0.7-0.6,1-0.8,1.5,0.3c3,6.3,6,12.5,9.1,18.7
		c0.2,0.4,0.5,0.8,0.4,1.2c-1.5,0-2.9,0-4.4,0c0-0.1,0-0.3-0.1-0.4c-2.2-4.5-4.4-9-6.5-13.5c-0.5-1-0.8-0.1-1,0.1
		c-2.4,2.2-4.8,4.4-7.2,6.5c-2.5,2.3-5,4.7-7.5,7C102.7,286.3,100.8,286.1,98.8,286z"></path>
	<path d="M164.4,285.4c1.4-3.3,3.1-6.3,4.7-9.5c3-5.9,6-11.8,9-17.7c0.3-0.5,0.4-1.1,0.9-1.4c0.1,2.7,0.2,5.4,0.3,8.1
		c-3.4,6.7-6.9,13.5-10.3,20.2C167.4,285.5,165.9,285.5,164.4,285.4z"></path>
	<path d="M48.5,259.8c1.1-0.5,2.3-0.9,3.4-1.4c0.5-0.2,0.8-0.3,0.9,0.5c0.5,8.3,1.1,16.7,1.6,25c0,0.3,0,0.6,0,0.8
		c-1.4,0.1-2.7-0.1-4-0.4c-0.1-1.2-0.1-2.5-0.2-3.7c-0.3-5.2-0.7-10.4-1-15.6c0-0.8-0.3-0.9-1-0.6C48.3,262.8,48.4,261.3,48.5,259.8
		z"></path>
	<path d="M173.5,284.9c1.7-3.5,3.4-6.9,5.2-10.3c0.3-0.5,0.3-1.2,1-1.5c0.1,2.5,0.3,5,0.4,7.5c0,0.6-0.1,1.3-0.4,1.8
		c-0.4,0.8-0.2,1.3,0.4,1.8c-0.9-0.5-1.6,0.1-2.4,0.3C176.3,284.8,174.9,285.1,173.5,284.9z"></path>
	<path d="M177.8,155.4c-1.4-0.8-2.4-2.1-3.5-3.2c-3.9-3.7-7.7-7.4-11.7-11.2c-3.2,6.2-6.3,12.4-9.5,18.7
		c-0.7-1.4-1.3-2.6-1.9-3.8c-2.2-4.5-4.4-9-6.6-13.6c-0.3-0.7-0.5-0.9-1.2-0.2c-4.6,4.3-9.3,8.6-14,12.9c-0.3,0.3-0.6,0.5-1,0.9
		c-0.4-6.8-0.9-13.5-1.3-20.3c-6.7,2.8-13.2,5.5-20,8.3c0.8-2.8,1.6-5.4,2.3-7.9c1-3.5,2.1-7,3.1-10.4c0.3-0.8,0-0.9-0.8-0.8
		c-6.9,0.6-13.7,1.2-20.8,1.8c0.7-1,1.4-1.9,2.1-2.8c3.3-4.4,6.6-8.8,10-13.2c0.6-0.8,0.7-1.1-0.4-1.4c-6.3-1.5-12.5-3.1-18.7-4.7
		c-0.4-0.1-0.8-0.2-1.4-0.4c6.1-3.9,12-7.7,18.1-11.6c-5.8-4-11.6-7.9-17.6-11.9c7-1.8,13.7-3.6,20.6-5.4
		c-4.1-5.4-8.2-10.8-12.4-16.4c1.3,0.1,2.4,0.1,3.6,0.2c5.1,0.4,10.2,0.8,15.3,1.2c0.7,0.1,1.4,0.1,2.1,0.2c0.8,0.1,0.9-0.1,0.7-0.9
		c-1.9-5.9-3.8-11.8-5.7-17.7c-0.1-0.3-0.1-0.5-0.2-0.8c0.1,0,0.1-0.1,0.2-0.2c5.2,2.3,10.3,4.5,15.5,6.8c1.5,0.7,3,1.3,4.6,2
		c0.5-7,0.9-13.9,1.4-21c1.4,1.3,2.6,2.5,3.8,3.7c3.7,3.6,7.4,7.2,11.2,10.9c0.4,0.4,0.7,0.7,1.1-0.1c2.6-5.5,5.6-10.9,7.9-16.5
		c0.3-0.7,0.5-0.7,1.1-0.3c0.8,0.5,1.1,1.3,1.4,2c2.4,4.8,4.9,9.6,7.2,14.4c0.5,1.1,0.8,0.7,1.4,0.2c2.7-2.6,5.5-5.1,8.2-7.7
		c0.5-0.5,0.9-0.6,1.6-0.3c1.5,0.5,3,1,4.5,1.4c0.8,0.2,1,0.6,1,1.3c0.4,4,0.8,7.9,1.2,12.1c6.5-2.9,12.9-5.7,19.5-8.7
		c-1.8,6.5-3.6,12.8-5.4,19.2c7.5-0.6,14.8-1.1,22.5-1.7c-4.4,5.7-8.6,11.2-12.9,16.8c3.5,0.9,6.8,1.8,10.2,2.6
		c2.9,0.7,5.7,1.4,8.6,2.1c0.4,0.8,0.6,1.6,0.6,2.5c-3.3,1.8-6.4,4-9.6,6c-2.1,1.3-4.2,2.7-6.4,4.1c6,4.1,11.8,8,17.7,12.1
		c-6.8,1.6-13.3,3.2-19.8,4.7c-1.1,0.3-1.1,0.6-0.4,1.3c0.8,0.9,1.4,1.8,2.1,2.8c-1.6,0.3-3.1,0.6-4.7,0.5c-1.5-2-3-4.1-4.5-6
		c-0.5-0.7-0.4-0.9,0.4-1.1c2.8-0.7,5.7-1.3,8.5-2c2.8-0.7,5.5-1.3,8.5-2.1c-5.2-3.5-10.1-6.9-15.2-10.3c5.2-3.3,10.3-6.6,15.6-10
		c-6.3-1.6-12.4-3.1-18.6-4.7c3.7-4.9,7.4-9.6,11.1-14.5c-6.2,0.5-12,0.9-17.9,1.4c-1.1,0.1-1.2-0.2-0.9-1.1
		c0.8-2.6,1.5-5.1,2.2-7.7c0.7-2.4,1.4-4.9,2.1-7.5c-0.6,0.2-0.9,0.4-1.3,0.5c-4.8,2.1-9.6,4.3-14.4,6.4c-0.7,0.3-1,0.3-1.1-0.6
		c-0.3-3.6-0.7-7.2-1-10.8c-0.2-1.9-0.4-3.8-0.6-5.9c-0.5,0.4-0.8,0.7-1.1,1c-3.8,3.6-7.7,7.1-11.5,10.7c-0.6,0.6-0.9,0.6-1.3-0.3
		c-1.9-3.9-3.9-7.8-5.8-11.7c-0.6-1.1-1.1-2.2-1.8-3.5c-2.7,5.6-5.4,11-8.1,16.5c-4.5-4.3-8.9-8.6-13.4-12.9
		c-0.1,0.3-0.2,0.4-0.2,0.5c-0.4,5.5-0.7,10.9-1,16.4c-0.1,1.1-0.4,1.2-1.3,0.7c-4.4-2-8.8-3.9-13.1-5.8c-1-0.4-2-0.9-3.1-1.4
		c1.8,5.7,3.6,11.2,5.4,16.9c-6.3-0.5-12.5-1-18.9-1.4c3.6,4.8,7.1,9.3,10.7,14c-5.9,1.6-11.7,3.1-17.7,4.7
		c5.2,3.6,10.2,6.9,15.2,10.3c-5.1,3.3-10.1,6.5-15.3,9.8c5.8,1.4,11.3,2.8,16.8,4.2c1.3,0.3,1.3,0.3,0.4,1.4
		c-3.2,4.2-6.3,8.4-9.5,12.7c-0.2,0.2-0.5,0.4-0.4,0.8c0.1,0,0.2,0.1,0.2,0.1c5.6-0.5,11.3-0.9,16.9-1.4c0.9-0.1,1.2,0,0.9,1.1
		c-0.7,2.1-1.3,4.2-1.9,6.3c-0.9,3.1-1.8,6.2-2.8,9.4c5.8-2.4,11.5-4.8,17.3-7.2c0.4,5.9,0.8,11.7,1.2,17.6c0.3-0.2,0.4-0.3,0.5-0.4
		c4.1-3.7,8.1-7.4,12.1-11.2c0.9-0.8,1.1-0.6,1.5,0.3c2.1,4.5,4.3,9,6.5,13.5c0.2,0.4,0.2,0.9,0.8,1.1c2.7-5.4,5.5-10.7,8.2-16.2
		c4.4,4.3,8.8,8.5,13.3,12.8c0.2-2,0.4-3.8,0.6-5.5c0.4-3.5,0.7-7,1-10.5c0.1-0.7,0.2-0.9,0.9-0.6c0.7,0.3,1.4,0.6,2.1,0.9
		c-0.2,2.1-0.2,4.1-0.5,6.1c-0.2,1.3-0.2,2.5-0.3,3.8c-0.2,3.6-0.6,7.1-0.6,10.7C178.1,153.1,177.9,154.3,177.8,155.4z"></path>
	<path d="M216.8,54.2c-3.3,0.3-6.7,0.6-10,0.8c-2.1,0.2-4.3,0.3-6.4,0.5c-0.8,0.1-1-0.1-0.7-0.9
		c1.7-5.9,3.4-11.8,5-17.7c1.3,0.9,2.4,1.9,3.3,3.2c-1,3.6-2,7.2-3.1,10.9c0.5,0,0.9,0,1.2-0.1c3-0.3,6-0.3,8.9-0.8
		C215.7,51.4,216.4,52.7,216.8,54.2z"></path>
	<path d="M226.7,101c-4.1-2.8-8.3-5.6-12.5-8.5c1.2-0.8,2.4-1.6,3.5-2.3c2.1-1.3,4.1-2.8,6.3-3.8
		c0.5,1.3,0.9,2.7,0.9,4.1c-0.9,0.6-1.8,1.2-2.7,1.7c-0.4,0.2-0.6,0.4-0.1,0.7c1.2,0.8,2.4,1.7,3.7,2.4
		C226.3,97.2,226.6,99.1,226.7,101z"></path>
	<path d="M221.8,75.6c-3.7-0.9-7.5-1.9-11.4-2.8c1.4-1.8,2.6-3.4,3.9-5.1c1.6-2.1,3.1-4.3,4.9-6.3
		c0.6,1.6,1.1,3.3,1.2,5.1c-1,1.2-2,2.4-3.1,3.8c1.4,0.3,2.7,0.6,3.9,0.8C221.6,72.6,221.8,74.1,221.8,75.6z"></path>
	<path d="M210.9,112.5c-0.6-0.7-0.1-0.7,0.4-0.8c5.1-1.2,10.3-2.5,15.4-3.7c0.4-0.1,0.7-0.2,1-0.2
		c0.3,0.2,0.1,0.4,0.2,0.7c-2.4,0.4-4.6,1.4-6.9,2.1c-3,0.8-6.1,1.4-9.1,2C211.6,112.6,211.3,112.5,210.9,112.5z"></path>
	<path d="M202.4,35.1c-1.3,0.6-2.7,1.3-4.2,2c0.5-1.8,0.9-3.3,0.8-4.9C200.2,33.1,201.4,34,202.4,35.1z"></path>
	<path d="M7.7,66.8c4.1-1.1,8.3-2.1,12.4-3.2c9.2-2.4,18.5-4.8,27.7-7.3c1.3-0.3,1.3-0.3,0.5-1.4
		c-3.7-4.9-7.5-9.9-11.2-14.8c-0.2-0.3-0.4-0.6-0.7-1c1.3-0.4,2.5-0.7,3.7-1.1c0.5-0.2,0.6,0.2,0.8,0.5c4.8,6.4,9.6,12.7,14.5,19.1
		c0.7,0.8,0.3,0.9-0.5,1.1c-10.4,2.7-20.8,5.5-31.3,8.2c-2.4,0.6-4.9,1.3-7.4,1.9c0.3,0.5,0.7,0.7,1.1,0.9
		C27.8,76.9,38.2,84,48.6,91c1,0.7,0.8,0.9,0,1.4C38,99.2,27.5,106,17,112.8c-0.4,0.2-0.7,0.5-1.1,0.8c-0.5,0.4-1.2,0.3-1.7,0.2
		c-1.5-0.3-3.1-0.4-4.5-1.2c0.2-0.1,0.4-0.2,0.6-0.3c9.5-6.1,19-12.2,28.5-18.3c1.1-0.7,2.2-1.4,3.4-2.2C34,86,25.9,80.5,17.8,75
		c-3.4-2.3-6.9-4.6-10.4-6.9C7.4,67.6,7.4,67.2,7.7,66.8z"></path>
	<path d="M6.8,72.4c2.7,1.8,5.4,3.6,8.1,5.4c6.5,4.4,13,8.8,19.5,13.3c0.2,0.2,0.4,0.3,0.7,0.6c-4.4,2.8-8.6,5.6-13,8.3
		c-5.4,3.5-10.9,7-16.3,10.5c-0.3,0.2-0.6,0.5-1,0.7c-1.4,0.1-2.4-0.8-3.6-1.3c0.2-0.6-0.1-1.2,0.4-1.7c0.3-0.2,0.6-0.3,0.8-0.4
		c8.2-5.2,16.3-10.5,24.5-15.7c0.2-0.1,0.5-0.2,0.5-0.6c-2.7-1.9-5.5-3.7-8.2-5.6c-4.4-2.9-8.7-5.9-13.1-8.8
		C6.2,75.4,6.4,73.9,6.8,72.4z"></path>
	<path d="M28.3,33.3c0.3,2.4,1.3,4.5,1.8,6.8c0.2,0.9,0.5,1.3,1.5,0.7c0.7-0.4,1.1-0.3,1.7,0.4C36,45.2,39,49,41.9,52.8
		c0.3,0.4,0.8,0.8-0.2,1C30.8,56.7,20,59.5,9.2,62.4c-0.2,0.1-0.3,0-0.5,0.1c0.2-1.6,0.6-3.2,1.3-4.6c2.5-0.7,5-1.3,7.5-2
		c6-1.6,11.9-3.1,18-4.7c-0.1-0.2-0.2-0.3-0.3-0.4c-1.3-1.7-2.7-3.4-4-5.1c-2.3-3.2-4.7-6.4-7.2-9.5c0.8-1,1.9-1.7,2.8-2.6
		C27.2,33.1,27.8,33.4,28.3,33.3z"></path>
	<path d="M5.6,81.3c2,1,3.7,2.4,5.6,3.7c3.1,2.1,6.1,4.2,9.4,6.4C14.5,95.3,8.5,99.1,2.5,103c0.1-1.8,0.3-3.7,0.8-5.5
		c3.2-2,6.5-4.1,9.9-6.2c-1.8-1.2-3.4-2.4-5.1-3.4c-1.1-0.7-2-1.6-3.2-2C5,84.3,5.3,82.8,5.6,81.3z"></path>
	<path d="M21.2,38.7c2.5,3.3,5,6.7,7.6,10.2c-2.7,0.7-5.4,1.4-8,2.1c-3,0.8-6.1,1.7-9.1,2.3c0.5-1.7,1.3-3.3,2.3-4.8
		c2.6-0.7,5.2-1.4,7.9-2.1c-1.3-1.6-2.4-3-3.5-4.5C19.1,40.6,20.1,39.6,21.2,38.7z"></path>
	<path d="M44.3,109.7c0.1-0.5,0.5-0.6,0.8-0.8c8.5-5.5,17.1-11,25.6-16.5c0.2-0.1,0.3-0.2,0.6-0.4
		c-8.9-6-17.7-12-26.7-18.1c1.9-0.5,3.6-1,5.3-1.4c8.4-2.2,16.8-4.5,25.2-6.6c1-0.3,1-0.5,0.4-1.3C69.4,56.4,63.2,48.2,56.9,40
		c0.8-0.3,1.5-0.1,2.2,0c6.1,0.4,12.2,0.9,18.2,1.4c4.1,0.3,8.2,0.6,12.3,1c0.8,0.1,1-0.1,0.7-0.9c-2.1-6.1-3.8-12.3-6.1-18.3
		c-0.4-1.1-0.7-2.2-1-3.3c0.1-0.4,0.2-0.9,0.6-1.1c1.4-0.7,2.4-1.8,3.6-2.7c1.4,0.8,3,1.4,3.7,3.1c0.2,0.5,0.9,0.6,1.4,0.8
		c0.5,0.2,1.1,0.4,1.6,0.6c0.3,0.1,0.5,0.2,0.5,0.6c-0.1,0.4-0.4,0.5-0.7,0.5c-0.4-0.1-0.9-0.1-1.3-0.3c-1.3-0.4-2.5-0.7-3.8-1
		c-0.8-0.2-1.1-0.1-0.8,0.8c0.5,2,1.1,3.9,1.8,5.8c1.3,3.3,2.3,6.7,3.4,10.1c1,3,1.9,5.9,2.9,8.9c0.2,0.7,0.4,1.1-0.7,1
		c-9.5-0.8-19.1-1.5-28.6-2.2c-0.3,0-0.6-0.1-1,0.2c0.7,1,1.5,2,2.2,2.9c4.9,6.4,9.8,12.9,14.7,19.3c0.6,0.8,0.5,1-0.5,1.2
		C73,70.6,63.9,73,54.8,75.4c-0.1,0-0.2,0.1-0.4,0.2c8.1,5.5,16.1,10.9,24.3,16.5c-8.7,5.6-17.3,11.1-26.2,16.8
		c10.4,2.6,20.5,5.2,30.8,7.8c-6,8-11.9,15.9-18,23.9c2.6-0.2,4.9-0.4,7.3-0.6c6.3-0.5,12.6-1.1,18.8-1.6c1.4-0.1,2.8-0.2,4.2-0.4
		c0.8-0.1,0.8,0.1,0.6,0.8c-2.5,8.3-4.9,16.6-7.4,24.9c0,0.1-0.1,0.3-0.2,0.7c1.8-0.7,3.3-1.4,4.9-2c7.1-3,14.2-5.9,21.3-8.9
		c1.4-0.6,1.4-0.6,1.5,0.9c0.2,3.5,0.4,6.9,0.6,10.4c0.3,5.1,0.7,10.1,1,15.1c0,0.4,0.1,0.7,0.2,1.2c2.3-2.1,4.5-4.2,6.8-6.2
		c4.9-4.5,9.8-9,14.7-13.6c0.6-0.6,0.8-0.3,1,0.3c3.8,7.7,7.5,15.4,11.3,23.1c0.2,0.4,0.4,0.7,0.6,1.3c0.7-1.4,1.4-2.6,2-3.9
		c3.5-6.9,7-13.7,10.4-20.6c0.4-0.9,0.7-1,1.4-0.3c3.4,3.3,6.8,6.6,10.2,9.8c0.1,0.1,0.3,0.2,0.5,0.3c0,1.9,0,3.7,0,5.6
		c-1.8-1.3-3.3-3-4.9-4.5c-1.8-1.7-3.6-3.5-5.5-5.3c-4.8,9.4-9.4,18.5-14.2,27.9c-0.2-0.4-0.4-0.7-0.6-1.1
		c-4.1-8.5-8.3-17-12.4-25.5c-0.5-0.9-0.7-0.9-1.4-0.3c-6.2,5.8-12.5,11.5-18.8,17.3c-1.5,1.4-3.1,2.8-4.8,4.4
		c-0.2-2.8-0.4-5.3-0.6-7.9c-0.5-7.4-1-14.7-1.4-22.1c-0.1-1.1-0.4-0.9-1.1-0.6c-8.7,3.6-17.4,7.3-26.1,10.9c-1,0.4-2,0.9-3.2,1.2
		c2.9-9.6,5.7-19.1,8.5-28.8c-11.4,0.9-22.7,1.9-34.3,2.9c6.7-8.9,13.2-17.6,19.8-26.3c-2.2-0.5-4.1-1-6.1-1.5
		c-8.6-2.2-17.1-4.3-25.7-6.5C44.5,110.7,44.4,110.2,44.3,109.7z"></path>
	<path d="M180,127.7c-1.9-0.6-3.7-1.5-5.6-2.2c-0.7-0.3-0.9-0.2-0.9,0.6c-0.4,4.2-0.8,8.4-1.3,12.6
		c0,0.3,0.1,0.6-0.3,0.8c-2-1.9-4-3.8-6-5.8c-1.6-1.6-3.2-3.1-4.8-4.7c-0.4-0.4-0.6-0.5-1,0.2c-2.3,4.5-4.6,9-7,13.8
		c-2.3-4.7-4.5-9.3-6.8-13.9c-3.9,3.6-7.7,7.1-11.7,10.7c-0.4-5.2-0.7-10.2-1-15.3c-5,2.1-9.8,4.1-14.8,6.2
		c-0.1-0.9,0.3-1.6,0.5-2.3c1-3.6,2.1-7.2,3.2-10.8c0.4-1.5,0.4-1.5-1.2-1.4c-4.4,0.4-8.9,0.8-13.3,1.1c-0.2,0-0.5,0-0.9,0
		c1.3-1.8,2.6-3.4,3.8-5c1.7-2.2,3.3-4.5,5.1-6.7c0.6-0.8,0.3-0.9-0.4-1.1c-4-1-8.1-2-12.1-3c-0.6-0.2-1.3-0.3-2.2-0.6
		c4.4-2.8,8.6-5.5,12.9-8.3c-4.4-3-8.7-5.9-13.2-9c5.2-1.4,10.2-2.7,15.3-4.1c-3-4-6-7.9-9.1-12c2.1,0.1,3.9,0.2,5.8,0.4
		c3.2,0.3,6.4,0.5,9.7,0.8c1,0.1,0.7-0.4,0.5-0.9c-1.3-4.2-2.7-8.4-4-12.5c-0.1-0.2-0.1-0.5-0.2-0.7c0.4-0.3,0.7,0.1,1,0.2
		c4.2,1.9,8.5,3.7,12.7,5.6c0.9,0.4,1.1,0.2,1.1-0.7c0.3-4.6,0.6-9.2,0.9-13.7c0-0.2,0.1-0.4,0.1-0.8c3.9,3.8,7.6,7.4,11.5,11.1
		c2.4-4.8,4.7-9.6,7.1-14.5c2.4,4.8,4.7,9.3,7.1,14c3.9-3.6,7.7-7.1,11.6-10.7c0.3,2.4,0.5,4.6,0.7,6.8c0.3,2.7,0.6,5.3,0.7,8
		c0.1,0.9,0.3,0.8,0.9,0.5c4.1-1.8,8.2-3.6,12.3-5.5c0.4-0.2,0.7-0.3,1.2-0.5c-1.3,4.5-2.4,8.8-3.7,13c-0.3,1.1,0.1,1,0.9,1
		c5-0.4,9.9-0.8,15.1-1.2c-1.1,1.5-2.1,2.8-3.2,4.2c-1.9,2.5-3.9,5.1-5.8,7.6c-0.6,0.8-0.4,0.9,0.4,1.1c4.6,1.1,9.3,2.3,13.9,3.5
		c0.2,0.1,0.4,0.1,0.8,0.2c-4.5,2.9-8.8,5.6-13.2,8.4c4.3,2.9,8.5,5.8,13,8.8c-5.2,1.3-10.2,2.5-15.4,3.7c2.3,3.1,4.5,6.1,6.7,9.2
		c-4.1-0.1-8.3,0.2-12.3-0.9c-0.1-0.1-0.1-0.2-0.2-0.3c2.4,0.1,4.7,0.2,7.3,0.4c-0.4-0.5-0.6-0.8-0.8-1.2c-1.5-2-3.1-4.1-4.6-6.1
		c-0.3-0.4-0.6-0.9-0.4-1.4c0.2-0.8,0.1-1.6,0.5-2.4c1.3-0.6,2.7-0.7,4-1.1c2-0.5,4-1,6.1-1.5c-2.6-1.7-4.9-3.3-7.3-4.9
		c-0.6-0.4-1-0.8-0.8-1.5c0-0.6,0.2-1,0.4-1.5c0.4-1.6,1.5-2.4,2.8-3.1c1.6-0.9,3.1-1.9,4.8-3c-4.4-1.1-8.5-2.2-12.8-3.2
		c2.7-3.5,5.3-6.9,8-10.4c-4.6,0.3-8.9,0.7-13.3,1c1.1-3.9,2.1-7.7,3.3-11.6c-0.6,0.2-0.9,0.4-1.3,0.5c-3.2,1.4-6.4,2.8-9.5,4.3
		c-0.8,0.3-1.1,0.4-1.1-0.6c-0.1-2.1-0.4-4.1-0.6-6.2c-0.2-2-0.4-4-0.6-6.2c-3.4,3.1-6.5,6-9.8,9c-2-3.9-3.9-7.8-5.9-11.8
		c-2.1,4.3-4.1,8.3-6.1,12.5c-3.2-3.1-6.2-6-9.5-9.2c-0.3,4.5-0.6,8.7-0.9,13.1c-4.1-1.8-8-3.5-12.1-5.3c1.3,4.1,2.6,8,3.8,11.9
		c-4.5-0.3-8.9-0.7-13.5-1c2.6,3.4,5,6.6,7.5,9.8c-4.3,1.1-8.4,2.2-12.7,3.4c3.8,2.6,7.4,5,11.1,7.5c-3.5,2.3-6.9,4.4-10.4,6.7
		c4.2,1.1,8.3,2.1,12.3,3.1c-2.6,3.5-5.2,6.9-7.8,10.5c4.5-0.4,8.7-0.7,13-1.1c-0.2,0.7-0.4,1.3-0.5,1.8c-0.9,3.5-2.2,6.8-3,10.3
		c0,0.1-0.1,0.1-0.1,0.2c0.1,0,0.1-0.1,0.2-0.1c0.8-0.1,1.6-0.6,2.3-0.9c3.1-1.3,6.1-2.5,9.2-3.8c0.7-0.3,0.9-0.2,0.9,0.6
		c0,1.3,0.1,2.6,0.2,3.9c0.2,2.6,0.4,5.2,0.6,8c3.3-3.1,6.5-5.9,9.7-8.9c1.9,4,3.8,7.8,5.7,11.8c2.1-4.2,4.2-8.2,6.3-12.3
		c3.3,3.1,6.4,6.2,9.8,9.4c0.4-3.9,0.8-7.4,1.1-11.1c0.1-0.8,0.3-0.9,1-0.6c3,1.3,6.1,2.5,9.1,3.8
		C180.3,125.2,180.2,126.5,180,127.7z"></path>
	<path d="M24.2,114.4c-0.5-0.2-1-0.3-1.8-0.5c2-1.3,4-2.6,5.9-3.8c3.9-2.5,7.8-5,11.7-7.5c0.3-0.2,0.6-0.7,1.1-0.4
		c0.1,0.9,0.3,1.9,0.4,2.8c0.3,1-0.1,1.7-1,2.1c-0.4,0.2-0.7,0.5-1.1,0.7c-2.2,1.4-4.4,2.8-6.8,4.4c2.3,0.6,4.3,1.1,6.4,1.6
		c-1.8,0.7-3.8,0.8-5.7,0.8C30.3,114.8,27.3,114.5,24.2,114.4z"></path>
	<path d="M177.3,166.1c-2-1.5-3.6-3.3-5.3-5c-2.4-2.3-4.8-4.6-7.2-6.9c-4,7.8-7.9,15.5-11.9,23.3
		c-3.8-7.7-7.5-15.3-11.2-23c-6.7,6.2-13.3,12.2-20.1,18.5c-0.2-2.5-0.3-4.8-0.4-7c-0.4-6-0.8-12-1.2-18c-0.1-1-0.6-0.5-0.9-0.3
		c-5.2,2.1-10.3,4.3-15.5,6.4c-2.9,1.2-5.8,2.4-8.8,3.7c2.4-8.1,4.8-16,7.1-24.1c-9.4,0.8-18.6,1.6-28.1,2.4
		c5.5-7.3,10.8-14.4,16.3-21.7c-9.2-2.3-18.3-4.6-27.7-7c1.2-0.8,2.2-1.4,3.2-2.1c6.4-4.1,12.8-8.2,19.2-12.3
		c1.2-0.8,1.2-0.8-0.1-1.6c-6.8-4.6-13.6-9.3-20.4-13.9c-0.1-0.1-0.2-0.1-0.5-0.3c8.9-2.3,17.5-4.6,26.2-6.9
		c-5.3-7-10.6-13.9-16-21.1c9.4,0.7,18.6,1.4,27.9,2.1c-2.7-8.4-5.4-16.7-8.2-25.3c1.6,0.2,2.8,0.7,4,1.4c2.2,1.4,4.7,2.3,7,3.4
		c4.7,2.1,9.5,4.2,14.2,6.3c0.9,0.4,1.2,0.4,1.2-0.7c0.1-2.7,0.4-5.4,0.5-8.1c0.1-0.9,0.4-1.2,1.2-1.3c0.6-0.1,1.2-0.2,1.7-0.4
		c0.9-0.3,1.1-0.1,1.1,0.8c-0.3,4-0.5,8-0.8,11.9c-0.1,1.4-0.2,2.9-0.3,4.4c-7.7-3.4-15.4-6.8-23.3-10.3c1.4,4.3,2.7,8.4,4,12.4
		c1,3,1.9,6,2.9,9c0.3,0.9,0.1,1.1-0.8,1c-7.3-0.6-14.6-1.1-22-1.7c-0.5,0-1-0.3-1.7,0c4.7,6.2,9.3,12.3,14.1,18.5
		c-7.8,2.1-15.4,4.1-23.3,6.2c6.7,4.5,13.2,8.9,19.8,13.4c-6.9,4.4-13.7,8.8-20.7,13.3c8.3,2.1,16.3,4.1,24.4,6.2
		c-4.8,6.4-9.6,12.7-14.4,19.2c1.6,0.2,3-0.1,4.4-0.2c5.8-0.4,11.6-1,17.4-1.4c0.6-0.1,1.3-0.1,1.9-0.2c1-0.2,1,0.2,0.8,1
		c-2,6.6-3.9,13.2-5.9,19.9c0,0.1-0.1,0.3-0.2,0.7c7.6-3.1,14.9-6.2,22.5-9.4c0.5,7.7,1,15.2,1.5,23c2.5-2.3,4.8-4.4,7.1-6.5
		c3.3-3.1,6.7-6.1,9.9-9.2c0.7-0.7,1-0.6,1.4,0.3c2.9,6.1,5.9,12.2,8.9,18.3c0.2,0.4,0.4,0.7,0.6,1.3c1.1-2.3,2.2-4.4,3.3-6.5
		c2.3-4.6,4.6-9.1,6.9-13.7c0.4-0.7,0.6-0.8,1.1-0.2c4.2,4.1,8.4,8.1,12.6,12.1c0.4,0.4,0.9,0.8,0.7,1.5
		C177.3,163.2,177.4,164.6,177.3,166.1z"></path>
	<path d="M50,170.4c-0.1-1.4-0.1-2.8,0-4.1c4.6-0.4,9.2-0.8,14-1.1c-4,13.6-8,27.1-12.1,40.6c0.3,0.2,0.5,0,0.6,0
		c3.1-1.3,6.1-2.5,9.2-3.8c10.8-4.5,21.6-9,32.4-13.5c0.9-0.4,1.2-0.4,1.2,0.8c0.3,4.9,0.6,9.9,0.9,14.8c0.5,7.3,0.9,14.6,1.4,21.9
		c0.1,2,0.3,4.1,0.5,6.1c0.4,0.1,0.5-0.2,0.7-0.3c11-10.1,22.1-20.3,33.1-30.4c1.4-1.3,1.4-1.3,2.2,0.4
		c5.9,12.2,11.9,24.4,17.8,36.6c0.1,0.3,0.3,0.5,0.5,0.9c2.5-4.9,4.9-9.7,7.3-14.4c4.1-8,8.1-16,12.2-24c0.3-0.6,0.5-0.7,1-0.2
		c1.4,1.4,3,2.8,4.4,4.2c0,1.9,0,3.8,0,5.7c-1.3-1.2-2.6-2.4-4-3.6c-7,13.8-14,27.6-21.1,41.5c-0.4-0.9-0.8-1.6-1.1-2.2
		c-6.2-12.7-12.4-25.4-18.5-38.1c-0.4-0.9-0.7-1.2-1.6-0.4c-9.7,9-19.4,17.9-29.1,26.8c-2.4,2.2-4.8,4.4-7.3,6.7
		c-0.1-1.6-0.3-3-0.3-4.4c-0.4-6.7-0.8-13.4-1.3-20c-0.5-7.2-1-14.4-1.4-21.6c-0.1-1-0.4-0.9-1.1-0.6c-10.3,4.3-20.6,8.6-30.8,12.9
		c-3.2,1.3-6.4,2.8-9.8,4c0-2.5,0-5,0-7.5c0-1.4,0-2.9,0.1-4.3c0-0.8,0-1.5,0.2-2.3c1.7-5.6,3.4-11.3,5-17c1-3.4,2-6.8,3-10.3
		C55.5,170,52.7,170.2,50,170.4z"></path>
	<path d="M49.9,162.2c-0.3-1.3-0.3-2.6-0.2-3.9c1.3-0.4,2.8-0.4,4.1-0.5c6.4-0.6,12.9-1.1,19.3-1.6
		c1.6-0.1,1.6-0.1,1.2,1.4c-3,10-5.9,20-8.9,30.1c-0.4,1.4-0.8,2.9-1.3,4.4c0.5-0.1,0.7-0.2,0.9-0.3c7.8-3.2,15.6-6.5,23.3-9.7
		c4.3-1.8,8.6-3.6,12.9-5.4c0.8-0.3,1-0.2,1,0.6c0,0.9,0.1,1.9,0.2,2.9c0.5,7.7,1.1,15.4,1.6,23.1c0.3,3.9,0.5,7.9,0.8,11.8
		c0.5-0.1,0.7-0.4,1-0.7c9.4-8.7,18.9-17.4,28.3-26c1.6-1.5,1.6-1.5,2.6,0.5c5.1,10.4,10.1,20.8,15.2,31.2c0.2,0.4,0.3,0.8,0.7,1.1
		c0.2-0.3,0.3-0.5,0.4-0.7c2.4-4.8,4.8-9.5,7.3-14.3c3.1-6.2,6.3-12.3,9.4-18.5c0.4-0.8,0.6-0.8,1.3-0.2c2.1,2.1,4.3,4.1,6.4,6.1
		c0,1.8,0,3.7,0,5.5c-0.3,0-0.5-0.2-0.7-0.4c-1.6-1.5-3.1-3-4.6-4.5c-0.6-0.6-0.8-0.6-1.2,0.2c-5.1,10.1-10.2,20.2-15.4,30.3
		c-1,1.9-1.9,3.8-3,5.8c-1.8-3.7-3.6-7.2-5.3-10.7c-4-8.3-8.1-16.6-12.1-24.9c-0.6-1.3-0.6-1.3-1.7-0.4
		c-9.6,8.8-19.2,17.7-28.8,26.5c-1,0.9-2.1,1.9-3.2,2.9c-0.4-6.3-0.8-12.3-1.2-18.3c-0.5-7.3-1-14.6-1.5-21.9
		c-0.1-1.4-0.1-1.4-1.4-0.8c-10.3,4.3-20.5,8.5-30.8,12.8c-2.8,1.2-5.7,2.4-8.7,3.6c3.8-12.9,7.6-25.7,11.4-38.5
		c-3.8,0.3-7.4,0.6-11.1,0.9C55.4,161.9,52.7,162.3,49.9,162.2z"></path>
	<path d="M49.5,228.9c-0.2-1.5,0.1-3,0.2-4.5c5.1-2.1,10.2-4.3,15.3-6.4c4.9-2.1,9.9-4.1,14.8-6.2
		c1.3-0.5,1.3-0.5,1.3,0.8c0.1,1.7,0.3,3.4,0.4,5.1c0.5,7.4,1,14.7,1.4,22.1c0.5,8,1,16.1,1.6,24.1c0.1,0.7-0.1,1.5,0.3,2.3
		c3.4-3.1,6.8-6.3,10.2-9.4c10.9-10,21.8-20,32.6-30c0.7-0.6,1-0.6,1.4,0.3c2.2,4.5,4.4,9.1,6.6,13.6c5.3,10.9,10.6,21.8,15.9,32.7
		c0.2,0.3,0.2,0.8,0.7,1c3.4-6.6,6.7-13.2,10-19.8c4.5-8.9,9-17.8,13.6-26.7c0.9-1.7,0.9-1.7,2.2-0.3c0,1.8,0,3.6,0,5.4
		c-0.5-0.1-0.5,0.4-0.7,0.6c-5.6,11.1-11.3,22.2-16.9,33.3c-2.7,5.3-5.4,10.7-8.1,16c-0.1,0.1-0.2,0.3-0.3,0.4
		c-0.4-0.2-0.4-0.6-0.6-0.9c-5.7-11.7-11.4-23.4-17.1-35.1c-2.3-4.6-4.5-9.3-6.7-13.9c-0.4-0.8-0.7-0.6-1.1-0.1
		c-7.6,7-15.2,14-22.8,21c-7.3,6.7-14.5,13.3-21.8,20c-0.2,0.2-0.3,0.4-0.7,0.4c-0.1-1.8-0.3-3.7-0.4-5.5
		c-0.6-8.3-1.1-16.5-1.6-24.8c-0.4-6.7-0.8-13.4-1.3-20.1c-0.1-2-0.3-4.1-0.4-6.1c0-0.9-0.3-1-1.1-0.6c-8.6,3.6-17.2,7.2-25.8,10.7
		C50.3,228.6,49.9,228.7,49.5,228.9z"></path>
	<path d="M49.5,150.2c3.4-0.3,6.8-0.6,10.2-0.9c8.4-0.7,16.8-1.4,25.3-2.1c0.2,0,0.4,0,0.7,0
		c-3.1,10.4-6.1,20.7-9.3,31.2c11.1-4.6,22-9.2,33-13.7c0.7,11.2,1.5,22.4,2.2,33.7c8.9-8.2,17.7-16.2,26.5-24.4
		c4.9,10,9.7,19.9,14.6,29.9c5.1-10.1,10.2-20,15.3-30.1c3.2,3,6.3,6,9.4,8.9c0,1.8,0,3.6,0,5.5c-1.2-0.7-2-1.8-3-2.7
		c-1.7-1.6-3.4-3.3-5.2-5c-5.5,10.8-10.9,21.5-16.5,32.4c-1-2-1.8-3.7-2.7-5.4c-4.2-8.6-8.4-17.3-12.6-25.9
		c-0.3-0.7-0.5-0.9-1.2-0.3c-6.7,6.2-13.4,12.3-20.1,18.5c-2.6,2.4-5.2,4.7-7.9,7.3c-0.2-2.4-0.3-4.6-0.4-6.8
		c-0.6-9.4-1.3-18.8-1.9-28.3c-0.1-1.4-0.1-1.4-1.4-0.9c-11,4.6-22,9.2-32.9,13.7c-0.4,0.2-0.7,0.4-1.3,0.3
		c3.3-11.2,6.6-22.3,9.9-33.5c-1.7,0.1-3.3,0.3-4.9,0.4c-6.6,0.6-13.2,1.1-19.8,1.7c-1.9,0.1-3.8,0.5-5.7,0.3
		C49.4,152.8,49.4,151.5,49.5,150.2z"></path>
	<path d="M49.7,220c0-1.4,0-2.8,0-4.2c0.3-0.2,0.7-0.4,1-0.6c11.8-4.9,23.6-9.8,35.4-14.8c2-0.9,2-0.8,2.1,1.4
		c0.3,5.5,0.7,11,1,16.5c0.5,7.8,1.1,15.6,1.6,23.4c0.2,2.4,0.3,4.9,0.5,7.5c0.4-0.4,0.7-0.5,0.9-0.8c12.5-11.5,25-23,37.6-34.6
		c1-0.9,1-0.9,1.6,0.3c6.2,12.9,12.5,25.7,18.7,38.6c0.6,1.3,1.3,2.6,2,4c0.2-0.3,0.3-0.4,0.4-0.6c5.1-10.1,10.3-20.2,15.4-30.3
		c2-4,4.1-8,6.1-12.1c0.1-0.3,0.2-0.8,0.7-0.3c0.9,1,2.1,1.7,2.8,2.9c0,1.7-0.1,3.4-0.1,5.1c-0.9-0.3-1.2-1.2-2.1-1.5
		c-7.8,15.3-15.5,30.5-23.3,45.9c-0.2-0.4-0.3-0.5-0.4-0.7c-3.2-6.6-6.5-13.3-9.7-19.9c-4-8.2-8-16.4-11.9-24.6
		c-0.4-0.9-0.6-0.9-1.4-0.3c-7.6,7-15.2,14-22.7,20.9c-5.7,5.3-11.5,10.5-17.2,15.8c-0.2,0.2-0.5,0.5-0.8,0.5
		c-0.3,0-0.2-0.4-0.2-0.7c-0.4-6.6-0.8-13.2-1.3-19.8c-0.5-8.3-1.1-16.6-1.6-24.9c-0.1-2.2-0.3-4.4-0.5-6.6
		c-0.3,0.1-0.4,0.1-0.6,0.2c-8.4,3.5-16.8,7-25.2,10.5C55.7,217.6,52.7,218.8,49.7,220z"></path>
	<path d="M42,101.3c4.9-3.1,9.8-6.2,14.8-9.4C46.3,84.7,36,77.7,25.4,70.5C38,67.2,50.2,64,62.7,60.7
		c-6.1-8-12-15.8-18.1-23.9c1.4-0.4,2.6-0.7,3.9-1c0.6-0.2,0.7,0.4,1,0.7c4.2,5.5,8.4,11.1,12.6,16.6c2.5,3.3,5,6.6,7.6,10
		c-11.4,3-22.8,6-34.4,9.1c0.6,0.4,1,0.7,1.4,1c8.9,6,17.7,12,26.6,18c0.9,0.6,0.7,0.8-0.1,1.4c-6.4,4.1-12.7,8.2-19.1,12.2
		c-0.3,0.2-0.6,0.3-0.9,0.5C42.8,104,42.4,102.6,42,101.3z"></path>
	<path d="M45.6,115.6c3,0.5,6,1.4,9,2.2c4.8,1.2,9.6,2.4,14.4,3.6c0.7,0.2,0.7,0.4,0.3,0.9c-6.5,8.6-13,17.2-19.5,25.8
		c-0.1,0.1-0.2,0.2-0.3,0.3c-0.2-0.4-0.3-0.9-0.3-1.4c0.2-1.6-0.3-3.1-0.2-4.6c2.2-2.8,4.3-5.6,6.5-8.5c2.5-3.2,4.9-6.5,7.4-9.8
		c-0.5-0.1-0.9-0.2-1.3-0.3c-5.1-1.3-10.1-2.6-15.2-3.9C46,118.5,45.7,117.1,45.6,115.6z"></path>
	<path d="M47,124.3c3.1,0.5,6,1.5,9.2,2.2c-2.6,3.4-5.2,6.8-7.7,10.1c-0.2-1.6-0.6-3.2-0.5-4.7
		C48.2,129.3,47.2,126.9,47,124.3z"></path>
	<path d="M149.2,23.9c-0.5,1.3-1,2.9-1.8,4.3c-1.4,2.6-2.7,5.4-4,8c-0.4,0.9-0.6,0.8-1.3,0.2c-3.8-3.7-7.7-7.4-11.5-11
		c-0.3-0.3-0.5-0.6-0.8-0.9c-0.5-0.6-0.3-1.1,0.3-1.3c0.9-0.3,1.6-0.6,2.1-1.6c0.3-0.6,1.1-0.2,1.5,0.3c0.8,1,1.5,2,2.4,2.9
		c1.6,1.7,3.3,3.3,4.9,4.9c0.5,0.5,0.9,0.7,1.2-0.2c1-2.4,2.3-4.7,3.6-6.9c0.4-0.6,0.7-0.9,1.4-0.4c0.5,0.4,1,0.6,1.5,0.9
		C149,23.3,149.3,23.4,149.2,23.9z"></path>
	<path d="M182.7,37.5c3,0.8,5.9,1.5,9,2.5c-1.6,0.7-3.1,1.4-4.5,2c-0.9,0.4-1.9,0.8-2.8,1.3c-1,0.5-1.2,0.1-1.2-0.8
		C183,40.8,182.9,39.3,182.7,37.5z"></path>
	<path d="M160.3,29.8c2.6,1,5.1,2.1,7.9,3.2c-1.5,1.4-2.9,2.7-4.5,4.2C162.7,34.5,161.1,32.3,160.3,29.8L160.3,29.8z"></path>
	<path d="M107.6,27.6c2.8,0,5.7,0,8.5,0c0.5,0,0.8,0.1,0.7,0.7c-0.1,0.9-0.2,1.8-0.2,2.7c0,0.5-0.1,0.7-0.7,0.5
		c-2.8-1.3-5.6-2.5-8.4-3.7C107.5,27.8,107.5,27.7,107.6,27.6z"></path>
	<path d="M85.2,38c-11.5-0.9-22.9-1.7-34.3-2.6c0-0.1,0-0.1,0-0.2c1.4-0.4,2.9-0.7,4.2-1.3c3.9-1.8,8-1.9,12.1-1.4
		c3.7,0.4,7.4,0.6,11.1,0.9c0.3,0,0.7,0,1.2,0c-0.9-2.6-1.5-5.3-2.6-7.8c-0.4-0.9-0.3-1.4,0.5-2c2.3-1.5,2.2-1.5,3.3,1
		C82.4,29,83.8,33.4,85.2,38z"></path>
	<path d="M68.9,28.5c1.5-0.8,2.8-1.5,4.1-2.2c0.4-0.2,0.6-0.2,0.8,0.3c0.1,0.4,0.3,0.7,0.4,1.1c0.3,0.9-0.1,1.3-1,1.2
		C71.8,28.8,70.4,28.9,68.9,28.5z"></path>
	<path d="M135.3,77.6c-0.9-2.7-1.7-5.5-2.6-8.2c0.4-0.2,0.6,0,0.9,0.1c2.4,1.1,4.8,2.1,7.2,3.2c0.6,0.3,0.9,0.3,0.9-0.5
		c0.1-2.8,0.4-5.5,0.6-8.6c1.4,1.4,2.7,2.6,4,3.9c0.8,0.8,1.7,1.6,2.5,2.4c0.5,0.5,0.6,0.3,0.9-0.2c1.2-2.6,2.5-5.2,3.9-7.9
		c1.2,2.4,2.4,4.7,3.5,7c0.8,1.5,0.7,1.5,1.9,0.4c1.9-1.7,3.7-3.5,5.8-5.3c0.2,1.8,0.4,3.4,0.5,5.1c0.1,1.1,0.2,2.2,0.3,3.3
		c0.1,0.7,0.3,0.8,1,0.5c2.2-1,4.4-2,6.7-3c0.4-0.2,0.7-0.4,1.2-0.3c-0.8,2.8-1.6,5.6-2.4,8.4c3.3-0.2,6.5-0.5,10-0.7
		c-2,2.6-3.9,5.1-5.8,7.6c3.2,0.8,6.3,1.6,9.7,2.5c-2.8,1.8-5.5,3.5-8.2,5.2c2.6,1.8,5.2,3.5,7.9,5.4c-3.3,0.8-6.3,1.5-9.4,2.3
		c1.8,2.4,3.6,4.8,5.5,7.4c-3-0.1-5.7-0.3-8.4-0.4c-1.3-0.1-1.3-0.1-1,1.2c0.7,2.5,1.5,5,2.3,7.8c-2.6-1.1-4.9-2-7.2-2.9
		c-1.9-0.8-1.9-0.8-2.1,1.2c-0.2,2.2-0.5,4.4-0.7,6.8c-2.1-2.1-4.2-4-6.2-6c-0.6-0.7-0.9-0.6-1.3,0.2c-1.2,2.5-2.5,5-3.9,7.7
		c-1.4-2.8-2.7-5.5-4.1-8.3c-2.3,2.1-4.6,4.2-7.1,6.5c-0.2-2.9-0.4-5.5-0.6-8.2c0-0.9-0.3-1-1-0.6c-2.6,1.1-5.2,2.2-8.1,3.3
		c0.8-2.7,1.5-5.3,2.3-7.7c0.3-0.9,0.2-1.1-0.8-1c-2.8,0.3-5.6,0.5-8.7,0.7c1-1.4,2-2.6,2.9-3.9c0.8-1,1.5-2.1,2.3-3.1
		c0.5-0.6,0.4-0.8-0.3-1c-2.8-0.7-5.6-1.4-8.6-2.2c2.7-1.8,5.3-3.4,8-5.2c-2.6-1.8-5.2-3.5-7.9-5.4c3.2-0.9,6.2-1.7,9.3-2.5
		c-1.8-2.4-3.6-4.8-5.5-7.3c3.3,0.2,6.4,0.4,9.5,0.6c0.1,0,0.1,0.1,0.2,0.1C135.4,77.9,135.3,77.8,135.3,77.6z M137.5,74.6
		C137.5,74.6,137.5,74.6,137.5,74.6C137.5,74.6,137.5,74.6,137.5,74.6C137.5,74.6,137.5,74.6,137.5,74.6c0.3,2.2,1.4,4.2,1.9,6.6
		c-2.5-0.2-5-0.3-7.6-0.5c1.5,2,2.8,3.8,4.2,5.6c-2.4,0.7-4.7,1.3-7.2,1.9c1.9,1.3,3.6,2.5,5.4,3.7c0.8,0.5,0.7,0.7,0,1.2
		c-1.7,1-3.3,2.1-5.1,3.3c2.5,0.6,4.7,1.2,7.1,1.8c-1.5,2-2.9,3.9-4.4,5.9c2.6-0.2,5-0.4,7.5-0.6c-0.7,2.3-1.3,4.6-2.1,7
		c2.2-0.9,4.1-1.7,6.1-2.5c0.7-0.3,1.1-0.4,1.1,0.7c0.1,2,0.3,4,0.4,6.2c1.6-1.5,3.2-2.8,4.6-4.3c0.7-0.7,1-0.7,1.4,0.2
		c0.8,1.8,1.6,3.7,2.8,5.5c0.9-1.9,1.8-3.6,2.7-5.3c0.8-1.6,0.8-1.6,2.1-0.3c1.4,1.3,2.7,2.6,4.2,4c0.2-2,0.5-3.8,0.6-5.7
		c0.1-1.2,0.5-1.2,1.3-0.7c0.4,0.2,0.7,0.3,1.1,0.5c1.6,0.6,3.1,1.3,4.8,2c-0.6-2.2-1.2-4.1-1.8-6.1c-0.3-0.8-0.4-1.2,0.8-1.1
		c2.1,0.2,4.2,0.1,6.2,0.1c-1.3-1.8-2.8-3.7-4.2-5.7c2.4-0.6,4.7-1.2,7.2-1.8c-2.1-1.5-4.1-2.8-6.1-4.2c2.1-1.3,4-2.6,6.2-3.9
		c-2.6-0.7-4.9-1.3-7.4-1.9c1.6-2,3-3.9,4.5-5.9c-2.3,0.2-4.4,0.3-6.4,0.5c-1,0.1-1.2-0.2-0.9-1.2c0.6-1.7,1-3.5,1.6-5.4
		c-2.1,0.9-4,1.8-5.9,2.6c-0.7,0.3-1,0.2-1-0.6c0-1-0.2-2-0.3-3c-0.1-1.1-0.3-2.2-0.4-3.6c-1.9,1.8-3.7,3.4-5.5,5.1
		c-1.1-2.2-2.2-4.4-3.4-6.7c-1.1,2.2-2.1,4.2-3,6.2c-0.3,0.7-0.5,0.7-1.1,0.2c-1.5-1.5-3.1-3-4.8-4.6c-0.2,2.2-0.4,4.3-0.5,6.3
		c0,1-0.3,1-1.1,0.7C141.3,76.3,139.5,75.2,137.5,74.6z"></path>
	<path d="M50.1,183.2c0-2.7,0-5.4,0-8c0-0.6,0.2-0.8,0.7-0.8c0.7,0,1.4-0.2,2.3,0c-0.9,3-1.8,6-2.7,9
		C50.3,183.3,50.2,183.2,50.1,183.2z"></path>
	<path d="M141.3,96.5c-1.7-0.4-3.2-0.8-5-1.3c1.4-0.9,2.7-1.8,4.2-2.7c-1.4-1-2.8-1.9-4.4-3c1.6-0.4,2.9-0.8,4.3-1.1
		c0.6-0.2,0.7-0.3,0.3-0.8c-0.8-1-1.6-2.1-2.4-3.2c1.5-0.1,2.9,0.1,4.2,0.2c1.1,0.1,1.1-0.3,0.8-1.1c-0.4-1.1-0.7-2.3-1.1-3.6
		c1.8,0.8,3.3,1.4,4.9,2.1c0.1-1.7,0.2-3.3,0.4-5.2c1.1,1.1,2.1,1.9,3,2.9c0.7,0.8,0.9,0.6,1.3-0.3c0.6-1.3,1.2-2.5,1.9-3.8
		c0.8,1.6,1.5,3,2.4,4.6c1.3-1.2,2.5-2.3,3.9-3.6c0.1,1.5,0.3,2.8,0.3,4c0,1,0.3,1.3,1.2,0.8c1.1-0.6,2.3-1,3.7-1.6
		c-0.5,1.7-0.9,3.1-1.3,4.7c1.8-0.1,3.4-0.2,5.4-0.4c-1.1,1.5-2.1,2.8-3.2,4.2c1.7,0.4,3.3,0.9,5.2,1.3c-1.5,1-2.9,1.8-4.3,2.8
		c1.4,1,2.8,1.9,4.3,2.9c-1.6,0.4-2.9,0.8-4.2,1c-0.8,0.2-0.8,0.4-0.3,1c0.8,1.1,1.6,2.1,2.5,3.3c-1.4,0.1-2.7,0-4-0.2
		c-0.9-0.1-1.3,0-0.9,1.1c0.5,1.2,0.7,2.5,1.1,3.9c-1.4-0.6-2.7-1-3.9-1.6c-1-0.5-1.2-0.2-1.2,0.8c0,1.1-0.2,2.3-0.3,3.6
		c-1.4-1.3-2.6-2.5-3.9-3.7c-0.8,1.6-1.6,3.1-2.5,4.8c-0.7-1.4-1.3-2.6-1.9-3.8c-0.3-0.7-0.5-0.9-1.1-0.2c-1,1-2,1.9-3.2,2.9
		c-0.1-1.5-0.2-2.8-0.3-4c0-0.9-0.2-1.2-1.1-0.7c-1.3,0.6-2.6,1.1-4,1.7c0.5-1.7,0.9-3.3,1.4-4.9c-1.7,0.1-3.3,0.2-5.2,0.3
		C139.4,99.2,140.3,97.9,141.3,96.5z"></path>
</g>
</svg>
