<!--?xml version="1.0" encoding="utf-8"?-->
<!-- Generator: Adobe Illustrator 24.2.3, SVG Export Plug-In . SVG Version: 6.00 Build 0)  -->
<svg version="1.1" id="Camada_1" xmlns="http://www.w3.org/2000/svg" xmlns:xlink="http://www.w3.org/1999/xlink" x="0px" y="0px" viewBox="0 0 234 419" enable-background="new 0 0 234 419" xml:space="preserve">
<g onclick="select(this)" class="" id="c-gola-primaria" fill="#bf0811">
	<path d="M82.0026855,7.9430661c1.9643097-1.6404653,3.7143555-3.4812326,5.3666382-5.4390163
		c1.0229568-1.2120926,2.6114883-1.4471393,4.100502-1.7794495c0.710228-0.1585035,1.512413,0.0730249,2.1301804-0.4847375
		c2.0799942,0,4.1600037,0,6.2399979,0c0.6778412,0.5158043,1.4597168,0.2374677,2.1836929,0.2368428
		c5.2608109-0.0045405,10.5215683-0.0533268,15.7823563-0.0881223c0.981781,0.0070475,1.9658966,0.0592125,2.9447098,0.0087658
		c1.029541-0.0530609,2.0820694,0.3052073,3.089241-0.1574863c6.0000076,0,12.0000076,0,18.0000076,0
		c0.9352875,0.4813011,1.9921265,0.4554319,2.9838257,0.7055441c1.6340332,0.4121158,3.0481873,1.1145012,4.1030884,2.4913723
		c1.2666321,1.6532278,2.9176025,2.9248281,4.4559174,4.3052254c-4.2979279,0.5489197-8.594101,1.1077623-12.8930054,1.6448517
		c-7.523468,0.9399586-15.0923843,1.2833967-22.6587601,1.5745459c-4.5061646,0.1733932-8.9965286-0.4793873-13.5000839-0.647193
		c-4.3054199-0.1604223-8.5651169-0.7817879-12.8353043-1.3099327C88.3364182,8.6135311,85.2016983,7.9830256,82.0026855,7.9430661z
		"></path>
	<path d="M117.8060532,0.3885829c-5.260788,0.0347955-10.5215454,0.0835818-15.7823563,0.0881223
		c-0.7239761,0.0006249-1.5058517,0.2789614-2.1836929-0.2368428c6,0,12,0,18,0l0.046051,0.0887334L117.8060532,0.3885829z"></path>
</g>
<g onclick="select(this)" class="" id="c-detalhe-lateral" fill="#021c3b">
	<path d="M46.5797157,116.2950058c0.9740448,0.3586197,0.4856453,1.2908936,0.6785011,1.9231033
		c0.7009239,2.2977676,1.0352783,4.6813812,1.272316,7.0769653c0.2773743,2.8032379,0.6613922,5.5965118,0.9080925,8.4021149
		c0.3654938,4.1564789,0.7152977,8.3164673,0.9457321,12.4819031c0.1342926,2.4276733,0.3030777,4.8582764,0.3755302,7.2850342
		c0.5283203,17.6951447,0.2950134,35.3964233,0.2846985,53.0953064c-0.0038414,6.5881195-0.179821,13.1786499-0.4211426,19.7628021
		c-0.0877495,2.3941803-0.1120529,4.78685-0.176075,7.1799927c-0.1632576,6.1025848-0.3016853,12.206543-0.5507965,18.3058472
		c-0.1659698,4.0636902-0.3378601,8.1264038-0.473423,12.1915894c-0.1872978,5.6166992-0.4319229,11.2337646-0.8027077,16.8406982
		c-0.107872,1.6312256-0.0809135,3.2692566-0.2652855,4.8948059c-0.9660378-0.0799255-1.8645859-0.4169312-2.7645454-0.7364807
		c-2.1119881-0.7497559-2.3783302-1.1219177-2.2291679-3.3309326c0.365612-5.4145813,0.7419052-10.8285522,1.1430168-16.2406006
		c0.2895012-3.9061279,0.60812-7.8092041,0.5538788-11.7314758c-0.0321693-2.3263092,0.2490234-4.6259613,0.7108879-6.9003906
		c0.4717331-2.3229675-0.0629578-4.6105652-0.2311668-6.9013977c-0.3904762-5.3178558,0.1611633-10.5299683,1.5381432-15.6553192
		c0.5846863-2.1763306,0.0955772-4.3043823-0.1239929-6.4151001c-0.7838097-7.5346069-0.4827576-14.9959106,1.0954742-22.4003143
		c0.4538231-2.1291199,0.6349106-4.2657013,0.4849167-6.4291229c-0.3209496-4.6291351,0.0652962-9.2625427-0.1253052-13.8943329
		c-0.2332001-5.667038-0.0037804-11.3484802-0.5024414-17.0091248c-0.0559425-0.6350555-0.0988388-1.2852783-0.0287743-1.9152222
		c0.8043365-7.2314453,0.1681633-14.4430084-0.2433624-21.6602936c-0.2342491-4.1082001-0.3552399-8.2228241-0.5834808-12.3314438
		c-0.0690269-1.2425842-0.1393394-2.4995728-0.4780693-3.7142181
		C46.5740395,117.7445984,46.5768776,117.0197983,46.5797157,116.2950058z"></path>
	<path d="M186.8271332,284.7735596c-0.1539764-4.1819458-0.4293976-8.3578796-0.6026001-12.5396729
		c-0.2572479-6.2120056-0.5409393-12.4219055-0.7497253-18.6366577c-0.1713715-5.1015167-0.2666931-10.2080078-0.5016632-15.3040771
		c-1.1077881-24.0273743-0.8267822-48.067749-0.8050842-72.1051788c0.0056915-6.3029175,0.2427826-12.6095734,0.5359344-18.9069672
		c0.2235718-4.8023376,0.5991058-9.603714,1.1015625-14.3850861c0.4266357-4.0597076,0.7597046-8.1360016,1.4679413-12.1644669
		c0.0649109-0.3691177,0.0836029-0.7143784,0.5006866-0.852684c0.1143646,0.1809769,0.2297974,0.361618,0.3452301,0.5422745
		c-0.9155579,0.7990112-0.5123444,1.9574509-0.5983582,2.8825455c-0.710144,7.6379242-0.9434662,15.3020477-0.7991638,22.9731445
		c0.0736237,3.9143829,0.5305634,7.8399353,0.2224884,11.739502c-0.6091919,7.7103577-0.2359924,15.4100037-0.1281891,23.1159515
		c0.0380096,2.7167816-0.1179962,5.4292297-0.4608002,8.1316376c-0.2215729,1.746521-0.2428284,3.5065613,0.0569458,5.2558289
		c0.0471649,0.2751923,0.1174927,0.5605164,0.089798,0.8322754c-0.3273621,3.2137909,0.5558319,6.2301178,1.4368286,9.2599487
		c1.776947,6.111145,1.9732208,12.3596497,1.322403,18.6335297c-0.4307861,4.152771-0.3736572,8.2683868,0.1582031,12.3973541
		c0.1008759,0.7832031,0.0873718,1.6023254-0.0135803,2.3868561c-0.6959076,5.4082184,0.5662842,10.7305756,0.7112274,16.1060791
		c0.1914978,7.1008148,0.9172668,14.1861115,1.3373413,21.2825775c0.1222687,2.0654602,0.3727264,4.1258545,0.3047638,6.2073059
		c-0.0380554,1.1656799-0.5097198,1.8869629-1.5921173,2.2428589
		C189.0699463,284.229187,187.9905243,284.6563416,186.8271332,284.7735596z"></path>
</g>
<g onclick="select(this)" class="" id="c-estampa-primaria" fill="#bf0811">
	<path d="M46.5797157,116.2950058c0.185257-0.6483917-0.6537361-0.9849701-0.4953499-1.6253433
		c0.5182152,0.0226059,0.6628151-0.4720535,0.6060638-0.7240372c-0.280571-1.2458649-0.0024986-2.5490494-0.4596062-3.7740936
		c-0.6063385-1.6249771-0.8805771-3.309021-0.9140816-5.0521164c-0.0335388-1.7450027,0.0705605-3.5604324-0.3755188-5.2129059
		c-0.5828209-2.158989-0.539711-4.3322754-0.7531052-6.4977798c-0.3980331-4.0393677-1.520134-7.9533386-1.9846001-11.9856033
		c-0.1975327-1.7148361-1.3414497-3.1512909-2.2492752-4.6143951c-0.7971649-1.2847672-1.6851196-2.5023575-2.3088303-3.903244
		c-1.2873306-2.891449-2.0342979-5.9559021-3.0267525-8.9413643c-2.7424545-8.2497559-4.2003059-16.6715012-3.3990879-25.3932762
		c0.1052742-1.1459999,0.1410866-2.2846794,0.1466522-3.4348526c0.0043144-0.891304,0.4792271-1.795208,0.052166-2.7290077
		c3.4731579-1.603159,6.8963909-3.3272095,10.4297085-4.7846832c7.7144775-3.1821728,15.4105873-6.4021339,23.0199356-9.8295193
		c4.0942154-1.8441029,7.8969269-4.1900816,11.6727829-6.5907621c0.414505-0.2635384,0.7083588-0.6331835,1.0255585-0.9935789
		c1.1769562-1.3372612,2.5770645-2.2565794,4.4367981-2.2657194c3.1985245,0.0403023,6.3332443,0.6708078,9.4925156,1.061553
		c4.2701874,0.5281448,8.5298843,1.1495104,12.8353043,1.3099327c4.5035553,0.1678057,8.9939194,0.8205862,13.5000839,0.647193
		c7.5663757-0.2911491,15.1352921-0.6345873,22.6587601-1.5745459c4.2989044-0.5370893,8.5950775-1.095932,12.8930054-1.6448517
		c2.0137939,0.0644183,3.5443268,1.0157557,4.8145142,2.5253696c0.9445038,1.1225052,2.2801056,1.7426615,3.5243988,2.4458742
		c9.2707672,5.2393446,19.0038605,9.4946413,28.8956604,13.3923388c4.3555145,1.7162228,8.4542084,3.9742699,12.7519379,5.8051186
		c0.1732178,0.0737858,0.3069305,0.2401276,0.4586487,0.3631744c-0.3523254,0.8024063-0.4155426,1.6195412-0.0298767,2.4191933
		c0.1311951,0.2720184,0.181839,0.4944839,0.0951538,0.7878418c-0.2670898,0.9039192-0.1110077,1.8232651-0.0374908,2.7345352
		c0.4286499,5.3122177,0.2358093,10.5978088-0.7501373,15.8386192c-0.9081573,4.8272133-2.5077057,9.4690361-3.8674164,14.1763763
		c-0.8522186,2.9503632-2.1963043,5.6354218-3.8081818,8.2168579c-0.3022461,0.4840775-0.6337433,0.9346771-1.132782,1.2096786
		c-0.875824,0.4826508-1.296402,1.3258286-1.5685272,2.1804428c-1.2528992,3.9347839-1.6907501,8.009079-1.938736,12.110878
		c-0.1130219,1.8693085-0.019928,3.7922363-0.4386902,5.5937042c-1.001297,4.3073273-1.4461823,8.6330566-1.2836304,13.0452652
		c0.0344086,0.9342422-0.2644653,1.8807449-0.4099274,2.8218384c-0.1396332,2.1776733-0.4706116,4.32901-0.8825073,6.4693375
		c-0.4181519,0.1386261-0.4368439,0.4838867-0.5017548,0.8530045c-0.7082367,4.0284653-1.0413055,8.1047592-1.4679413,12.1644669
		c-0.5024567,4.7813721-0.8779907,9.5827484-1.1015625,14.3850861c-0.2931519,6.2973938-0.5302429,12.6040497-0.5359344,18.9069672
		c-0.021698,24.0374298-0.3027039,48.0778046,0.8050842,72.1051788c0.2349701,5.0960693,0.3302917,10.2025604,0.5016632,15.3040771
		c0.208786,6.2147522,0.4924774,12.4246521,0.7497253,18.6366577c0.1732025,4.1817932,0.4486237,8.3577271,0.6026001,12.5396729
		c-7.607132,1.9840088-15.3674011,2.9150085-23.1973114,3.3590088c-14.212677,0.8060303-28.4416962,0.8194885-42.6705322,0.9506836
		c-14.7494659,0.1360168-29.499939,0.3515015-44.247261,0.1172791c-9.3971634-0.1492004-18.7562866-0.9642639-27.9142876-3.2998352
		c-0.151947-0.0387268-0.2957077-0.1096191-0.4425812-0.1655273c0.1843681-1.6255493,0.1574097-3.2635803,0.2652817-4.8948059
		c0.3707848-5.6069336,0.6154099-11.223999,0.8027077-16.8406982c0.1355629-4.0651855,0.3074532-8.1278992,0.473423-12.1915894
		c0.2491112-6.0993042,0.3875389-12.2032623,0.5507965-18.3058472c0.0640221-2.3931427,0.0883255-4.7858124,0.176075-7.1799927
		c0.2413216-6.5841522,0.4173012-13.1746826,0.4211426-19.7628021c0.0103149-17.6988831,0.2436218-35.4001617-0.2846985-53.0953064
		c-0.0724525-2.4267578-0.2412376-4.8573608-0.3755302-7.2850342c-0.2304344-4.1654358-0.5802383-8.3254242-0.9457321-12.4819031
		c-0.2467003-2.805603-0.6307182-5.598877-0.9080925-8.4021149c-0.2370377-2.3955841-0.5713921-4.7791977-1.272316-7.0769653
		C47.065361,117.5858994,47.5537605,116.6536255,46.5797157,116.2950058z"></path>
	<path d="M188.6579132,113.4088669c0.1453094-0.9408493,0.4441833-1.887352,0.4097748-2.8215942
		c-0.1625519-4.4122086,0.2823334-8.7379379,1.2836304-13.0452652c0.4187622-1.8014679,0.3256683-3.7243958,0.4386902-5.5937042
		c0.2479858-4.101799,0.6858368-8.1760941,1.938736-12.110878c0.2721252-0.8546143,0.6927032-1.6977921,1.5685272-2.1804428
		c0.4990387-0.2750015,0.8305359-0.7256012,1.132782-1.2096786c1.6118774-2.5814362,2.9559631-5.2664948,3.8081818-8.2168579
		c1.3597107-4.7073402,2.959259-9.3491631,3.8674164-14.1763763c0.9859467-5.2408104,1.1787872-10.5264015,0.7501373-15.8386192
		c-0.0735168-0.9112701-0.229599-1.830616,0.0374908-2.7345352c0.0866852-0.2933578,0.0360413-0.5158234-0.0951538-0.7878418
		c-0.3856659-0.7996521-0.3224487-1.616787,0.0298767-2.4191895c0.244751,0.1315155,0.5320892,0.2172737,0.7270813,0.4009552
		c3.7481689,3.5309639,7.8153381,6.7530899,10.8273773,11.0032272c3.8502655,5.4328995,6.5025024,11.4290199,8.3473663,17.8068161
		c1.8612213,6.4343071,2.5635376,13.068676,3.6293793,19.6519051c1.5700531,9.6974792,2.6227722,19.4789429,4.6446838,29.1037216
		c0.0975342,0.4642105,0.0895996,0.9505463,0.1307678,1.4267502c-1.1613007,0.2897034-2.3131256,0.6268082-3.4855652,0.8605957
		c-5.2816315,1.0531921-10.633194,1.6348572-15.9672394,2.3379288c-4.5540771,0.6002655-9.1077118,0.9758301-13.7149963,1.0247879
		c-3.2663116,0.0347137-5.9070282-1.0543747-8.3687897-2.9666061c-0.4225311-0.328186-0.8148651-0.729599-1.2762299-0.7082291
		C188.8727264,112.589859,189.4504089,113.3088074,188.6579132,113.4088669z"></path>
	<path d="M31.4183903,32.4069862c0.4270611,0.9337997-0.0478516,1.8377037-0.052166,2.7290077
		c-0.0055656,1.1501732-0.041378,2.2888527-0.1466522,3.4348526c-0.801218,8.7217751,0.6566334,17.1435204,3.3990879,25.3932762
		c0.9924545,2.9854622,1.7394218,6.0499153,3.0267525,8.9413643c0.6237106,1.4008865,1.5116653,2.6184769,2.3088303,3.903244
		c0.9078255,1.4631042,2.0517426,2.899559,2.2492752,4.6143951c0.4644661,4.0322647,1.5865669,7.9462357,1.9846001,11.9856033
		c0.2133942,2.1655045,0.1702843,4.3387909,0.7531052,6.4977798c0.4460793,1.6524734,0.34198,3.4679031,0.3755188,5.2129059
		c0.0335045,1.7430954,0.3077431,3.4271393,0.9140816,5.0521164c0.4571075,1.2250443,0.1790352,2.5282288,0.4596062,3.7740936
		c0.0567513,0.2519836-0.0878487,0.7466431-0.6060638,0.7240372c-0.1596222-0.8463593-0.3192825-1.6928635-0.5350494-2.8368607
		c-1.7375069,2.5469818-4.2785683,2.1537476-6.5608978,2.3492203c-4.2981262,0.368103-8.6075993,0.2233887-12.8986778-0.2197342
		c-1.5838432-0.163559-3.1528378-0.4698334-4.7291145-0.707634c-3.4245071-0.5166168-6.853446-1.0724945-10.2325821-1.7766113
		c-3.1150322-0.6491089-6.2374821-1.2606277-9.3613768-1.8658905c0.4811549-3.2370834,0.9884026-6.4704666,1.4379306-9.7118454
		c0.9398181-6.77668,2.8408673-13.3459015,4.2595739-20.0188599c0.9125152-4.2920761,1.1723132-8.7018204,2.1520391-12.9902496
		c1.6359644-7.1609039,3.9090691-14.073616,7.905407-20.3133125c2.7608185-4.3106155,6.1670017-8.0535927,10.2035542-11.1928902
		C28.9751701,34.4128494,29.9475403,33.098835,31.4183903,32.4069862z"></path>
</g>
<g onclick="select(this)" class="" id="c-estampa-secundaria" fill="#801815">
	<path d="M231.1837616,106.3401489c0.3734436,1.7254562,0.8186798,3.4319992,1.0698242,5.1878052
		c0.2537842,1.7743149,0.6772766,3.5243759,1.0264282,5.2850723c0,1.0394058,0,2.078804,0,3.1182098
		c-0.898056-0.0273743-1.6727905,0.6128769-2.590683,0.4780502c-0.0075073-1.7878265-0.0229034-3.5756607-0.0189209-5.363472
		c0.0018311-0.820816-0.127533-1.6544189,0.4019165-2.4131165c0.1543427-0.2211685,0.076889-0.6144257,0.0795288-0.9290314
		C231.1668701,109.915863,231.1739655,108.1279907,231.1837616,106.3401489z"></path>
	<path d="M17.2494774,120.6248398c0.0072708-6.5531998,0.0153828-13.1063919,0.0214119-19.659584
		c0.0024624-2.6772842,0.0039101-5.3545685-0.0028896-8.0318375c-0.0011826-0.4663086,0.1006298-0.9444199-0.2969742-1.3540421
		c-0.270546-0.278717-0.1209049-0.691124-0.121479-1.041687c-0.0075722-4.6352768,0.214056-9.2833862-0.0561485-13.9028854
		c-0.4082317-6.9792862-0.057169-13.9528122-0.2175293-20.9263725c-0.0090923-0.3954315-0.0011768-0.791256-0.0011768-1.1565132
		c0.3853798-0.1579819,0.4917488,0.0931015,0.6212616,0.2788086c0.4547672,0.6520805,0.8414936,1.364006,1.3696728,1.9489212
		c0.5029984,0.5570335,0.6071987,1.1421928,0.6051712,1.8479462c-0.0181427,6.3135452,0.1613121,12.6333008-0.064024,18.938858
		c-0.1867218,5.2249908,0.1273994,10.4567566-0.2237434,15.6604919c-0.2768669,4.1030273-0.1212521,8.1913071-0.1928787,12.2849197
		c-0.0719929,4.1145706-0.0323219,8.2314911-0.0024834,12.3471069c0.0062695,0.8647766-0.0285873,1.65802-0.7113934,2.2916107
		c-0.1396255,0.1295624-0.2063293,0.337616-0.3066444,0.5094986
		C17.5295792,120.6483307,17.3895264,120.6365891,17.2494774,120.6248398z"></path>
	<path d="M15.3033667,50.4891548c0.1077442,0.8856735-0.1718102,1.8439217,0.5651417,2.6115379
		c0.2197123,0.2288513,0.1550055,0.6041298,0.1548967,0.9251976c-0.0022221,6.5512772-0.0017052,13.1025505-0.0015221,19.6538353
		c0.0000019,0.1198273,0.0377922,0.2530289-0.0018196,0.3573074c-0.2481251,0.6531906-0.3568954-0.091423-0.5855865-0.0534592
		c-0.2024555,0.1001816-0.1376228,0.3520279-0.0827656,0.4708557c0.3668795,0.7946091,0.2573128,1.6308746,0.2582903,2.4556351
		c0.0051126,4.3142548,0.1860371,8.6379013-0.0343304,12.9408875c-0.5207777,10.1689529-0.0384779,20.340004-0.2677364,30.5071411
		c-0.6543398,0.0866852-1.2575808-0.1454926-1.873292-0.2998505c0.0489092-0.7820435,0.0489092-0.7820435,0.7060909-0.4602051
		c0-0.3353348,0.0000029-0.6437836-0.000001-0.9522247c-0.0000629-4.3503723,0.0575418-8.7017212-0.016367-13.0508347
		c-0.0742579-4.3696823,0.3333702-8.749733-0.2535686-13.1091461c0.1570797-5.4095154-0.3028679-10.8270874,0.2509775-16.2338562
		c0.1294708-1.2639313,0.017087-2.5523911,0.0208797-3.8295517c0.0008411-0.2832718,0.0022402-0.5630569-0.2090654-0.7852936
		c-0.4825954-0.5075531-0.4931784-1.1310577-0.4930191-1.7820282c0.0012398-5.0684433-0.0142412-10.1368828-0.0245543-15.2053223
		C13.8660517,53.1817627,14.5176039,51.8050537,15.3033667,50.4891548z"></path>
	<path d="M199.4035187,123.7235336c0.0022278-4.795433,0.0034485-9.5908585,0.0084534-14.3862915
		c0.0004578-0.4405594,0.0693665-0.9195557-0.2472839-1.2614136c-0.458725-0.4952087-0.4593353-1.0678253-0.4586945-1.6748352
		c0.0065765-6.3540039-0.2332458-12.7194595,0.072876-19.0587082c0.2887268-5.9790039,0.0622253-11.9474335,0.218689-17.9178391
		c0.0314331-1.1998291,0.4998932-2.3182602,0.8178558-3.4623947c0.2751617-0.9901276,0.7497406-1.9158249,1.0625-2.936451
		c0,0.6418419-0.0000153,1.2836876-0.0000153,1.9255409c-0.0000153,6.7935944-0.0000153,13.5871887-0.0000153,20.3807831
		c0.5735016,3.4826355,0.1920013,6.9906464,0.2602081,10.4860764c0.0678406,3.4753952,0.0149994,6.9531479,0.0147858,10.4298706
		c-0.0000458,0.6318588,0.0736237,1.2566528-0.4226532,1.8028641c-0.2742767,0.3018875-0.1242523,0.771553-0.1252441,1.1659622
		c-0.0119476,4.8351517-0.0169983,9.6703186-0.0238495,14.5054779
		C200.1886749,123.7913895,199.7961426,123.7907486,199.4035187,123.7235336z"></path>
	<path d="M10.2916594,64.442215c-0.0139151-0.8878593,0.2877626-1.7148094,0.5356407-2.5435333
		c0.5427494-1.8145638,0.9909534-3.6646309,1.8619614-5.3663101c0.1675892,4.1523209,0.0302029,8.3064346,0.0697432,12.4595261
		c0.0014496,0.1522598-0.0092268,0.4151611-0.0805693,0.4405899c-0.7657309,0.2728195-0.4689989,0.914093-0.4621897,1.3968735
		c0.0464745,3.2958527-0.2240744,6.6014099,0.2715483,9.8847122c-0.162921,5.2902298,0.0423346,10.5782471-0.2097969,15.8779297
		c-0.3147812,6.6165543-0.0762758,13.2594147-0.0735493,19.8909225c0.0000982,0.2379074-0.057848,0.5502014,0.0659094,0.7013092
		c0.6840439,0.8351822,0.4596615,1.8092041,0.4944878,2.7453461c-0.8499718,0.0814819-1.6388683-0.2080765-2.4435444-0.4017639
		c0.0009775-1.3582687,0.0008841-2.7165298,0.0041218-4.074791c0.0004711-0.1978607-0.0325613-0.5492325,0.0333128-0.5704041
		c0.9221315-0.2964249,0.4341774-1.0458069,0.4235163-1.5249405c-0.1195278-5.3719025,0.0619488-10.7411118-0.1627998-16.1206894
		c-0.22717-5.4375229-0.2469406-10.9030304,0.1326485-16.3661118c0.2955837-4.2540359,0.0595694-8.5449982,0.0583086-12.8195419
		c-0.0000458-0.1587296,0.0408258-0.3532791-0.0333214-0.4705429C10.1573858,66.6007385,10.3744774,65.4994431,10.2916594,64.442215
		z"></path>
	<path d="M39.6557922,121.9503555c-0.0071526-4.2363968-0.0135269-8.4728012-0.0224304-12.709198
		c-0.0011597-0.5520554,0.084343-1.1135864-0.3788719-1.5740051c-0.2801437-0.2784653-0.1668663-0.6835403-0.1670799-1.0363159
		c-0.0039902-6.4752197-0.0028343-12.9504318-0.0027695-19.4256516c0.5577965-3.6037598,0.1487389-7.2324371,0.282444-10.847084
		c0.0025635-0.0693207,0.0432854-0.1372223,0.0939445-0.2887726c1.0413857,1.0920563,1.8020096,2.3158569,1.7550011,3.7866821
		c-0.1285858,4.023407,0.4017487,8.0213547,0.3301239,12.0435486c-0.0860977,4.8348923-0.0271606,9.6725235-0.0111046,14.5088959
		c0.0019226,0.5800323-0.0409317,1.1257553-0.4395103,1.5637589c-0.3430901,0.3770294-0.2665062,0.8154678-0.2672005,1.2467194
		c-0.0067177,4.196846-0.0096474,8.3936996-0.0136528,12.5905457
		C40.4577751,122.0978928,40.0628471,122.073967,39.6557922,121.9503555z"></path>
	<path d="M7.6598439,79.3972015c0.3364153-3.1926041,0.671824-6.3853607,1.394876-9.5213928
		c0.0095596,3.0714111,0.0963926,6.1450806,0.0069218,9.2136154c-0.0893087,3.0629578,0.3717241,6.0946503,0.3150959,9.1564484
		c-0.0911598,4.9287949,0.0175638,9.8587418-0.2670021,14.7875748c-0.14921,2.5843811-0.0326128,5.1844788-0.0228052,7.7774277
		c0.0032635,0.8628235-0.1610222,1.7540588,0.4144859,2.5368195c0.1004391,0.1366043,0.0676069,0.3837433,0.0672073,0.5797653
		c-0.0037422,1.8347168-0.013833,3.6694183-0.0220881,5.5041199c-0.8883066,0.0366745-1.7252178-0.1920929-2.5481968-0.4928207
		c0-2.9137802,0-5.8275604,0-8.7605896c0.2283454,0.0498657,0.4119411,0.0899506,0.5980372,0.1305847
		c0.177875-0.3502884,0.0921545-0.7166901,0.0839944-1.0672913c-0.0608926-2.6163635,0.0206633-5.2269516-0.2247515-7.8510513
		C7.2073355,98.735672,7.3523722,96.0385208,7.4147801,93.36203c0.0619512-2.6568985-0.1393623-5.3088074,0.2187428-7.9769287
		C7.8968329,83.4232559,7.6688776,81.3955536,7.6598439,79.3972015z"></path>
	<path d="M224.9087982,121.539772c-0.0024414-9.3944092,0.1727142-18.7934875-0.074295-28.1814651
		c-0.1468506-5.5817108-0.1241302-11.1598053-0.2076263-16.7390137c-0.0105743-0.7064209-0.0961151-1.4236069,0.2559204-2.0973816
		c0.0792389-0.1516724,0.0116425-0.3799973,0.0116425-0.5767365c-0.2756348,0.0283813-0.2829895,0.3809967-0.5185242,0.3103943
		c-0.2554932-0.0765839-0.1611481-0.3253632-0.1608124-0.5069122c0.0063629-3.437233,0.0176544-6.8744659,0.0279083-10.3116951
		c0.9148712,2.9609642,1.5433655,5.9810905,1.8747406,9.0626106c-0.0582275,1.9831085,0.1934509,3.9626007,0.2021179,5.9316483
		c0.024353,5.5234375,0.0288544,11.0464249-0.1554871,16.5752945c-0.2657166,7.9696274-0.0692902,15.9546967-0.0616913,23.9331589
		c0.0001831,0.2043228-0.1235962,0.449379,0.0961609,0.6285706c0.2062073-0.045166,0.2968903-0.2941895,0.5931396-0.2460098
		c0,0.6141129,0,1.243042,0,1.8719711C226.1887665,121.4427414,225.5710144,121.6123505,224.9087982,121.539772z"></path>
	<path d="M4.2716866,93.9675522c0.2753429-2.1793671,0.7990365-4.3058548,1.369194-6.4224472
		c0.087842,0.6949768,0.4021592,1.3305893,0.3976941,2.0628738c-0.0287476,4.7149124-0.0134964,9.4300842-0.0163021,14.1451721
		c-0.000257,0.4320755-0.1775079,0.8769302-0.1905499,1.2595978c-0.0419908,1.2320328-0.4883823,2.5474548,0.4282103,3.6837616
		c0.2403789,0.2980042,0.1804624,0.6826324,0.180264,1.0417938c-0.0014586,2.6372528-0.0056381,5.2745209,0.003778,7.9117432
		c0.0014482,0.4057007-0.0360465,0.7945404-0.191473,1.1695099c-0.7704854-0.0782852-1.5333862-0.1930923-2.2627523-0.4693756
		c-0.0424781-4.021286,0.177212-8.0450211-0.1132572-12.0639038c-0.014684-0.2031784-0.0295718-0.4205322,0.1297522-0.5603104
		c0.3580637-0.3141327,0.2722235-0.7222672,0.2722111-1.1115341C4.2783432,101.0654755,4.2744646,97.51651,4.2716866,93.9675522z"></path>
	<path d="M227.4919739,121.0994492c-0.0059509-0.7974625-0.0094452-1.5949478-0.0187683-2.3923721
		c-0.0056305-0.4807358-0.0211639-0.9524918,0.3608856-1.3382797c0.2822876-0.2850876,0.1990204-0.6716003,0.1990814-1.0261154
		c0.0011902-6.5799561,0.0008698-13.1599274,0.0008698-19.7398834c-0.5767212-3.3141937-0.1656342-6.6565704-0.2796783-9.9840622
		c-0.0245361-0.7159348,0.0278931-1.4345016,0.0448456-2.1518555c0.5018616,1.7122574,0.7251434,3.4796829,0.9906311,5.2348022
		c0.3550415,2.3471756,0.8162537,4.6824875,0.9221497,7.0627747c0.1897888,0.7734222-0.2976685,1.4515915-0.2948151,2.210228
		c0.0189667,5.0321198,0.0097351,10.0643463,0.0108795,15.0965347c0.0000458,0.1988068-0.0529633,0.5368271,0.0288696,0.5751648
		c0.9576416,0.4485397,0.3799744,1.2681961,0.4252319,1.8837051c0.09935,1.350563,0.0304718,2.7134933,0.0302734,4.071373
		C229.1361237,120.9155731,228.3311768,121.0906677,227.4919739,121.0994492z"></path>
	<path d="M0.7363377,117.6535645c-0.0068347-1.0174255-0.0136694-2.0348434-0.0205041-3.052269
		c-0.0031552-0.8846207,0.2345758-1.718338,0.4631141-2.5665817c0.251619-0.9339142,0.3640261-1.9058304,0.5274096-2.8628311
		c0.3920449-2.2963867,0.7784306-4.5937347,1.1670974-6.890686c-0.1406858,0.9208679,0.2875693,1.785141,0.2916465,2.6804962
		c0.0200596,4.4049301-0.0012877,8.810051-0.0080163,13.2151108C2.3297124,118.0969162,1.5113994,117.975174,0.7363377,117.6535645z
		"></path>
	<path d="M36.3255272,122.2426224c-0.0104256-2.9468842-0.0186768-5.8937759-0.0343361-8.8406219
		c-0.0017357-0.326889,0.0405579-0.6115112,0.2564583-0.8874283c0.3603706-0.460556,0.6723366-0.9589462,0.9870834-1.4158554
		c0.4350815,0.1025925,0.3127022,0.382431,0.3129272,0.5981522c0.0032883,3.1071014-0.0020981,6.2142181,0.0038261,9.3213043
		c0.0015793,0.8289108,0.0158272,0.8288803,0.8658524,1.0121155
		C37.9388275,122.3121567,37.140831,122.374794,36.3255272,122.2426224z"></path>
	<path d="M196.0753479,123.4747162c0.0001831-3.1971741,0.0639038-6.3962631-0.0318146-9.5905609
		c-0.0364532-1.2170181,0.5936737-1.9487228,1.3964233-2.7334824c0,4.1740952,0,8.3481979,0,12.5222931
		C196.9534302,123.8244629,196.5184784,123.6215057,196.0753479,123.4747162z"></path>
	<path d="M202.5256653,123.7236252c0-4.182373,0-8.3647308,0-12.5183411
		c0.7143707,0.3696671,1.269455,1.2863312,1.2707825,2.2054291c0.0047302,3.2780075,0.0016785,6.5560303,0.0023956,9.8340454
		c0.0000305,0.1597672,0.0078888,0.319519,0.0121002,0.4792862
		C203.3825073,123.790062,202.954071,123.7911835,202.5256653,123.7236252z"></path>
	<path d="M42.7969933,121.5334549c0-3.4559021,0-6.9118118,0-10.6513062
		c0.8035088,1.0617447,1.4333344,1.812973,1.3904037,3.0186157c-0.0895081,2.5137482-0.0295639,5.032814-0.0310287,7.5496902
		C43.7142143,121.6575775,43.257988,121.634491,42.7969933,121.5334549z"></path>
	<path d="M192.9362335,122.7093124c0.0043793-1.5554047,0.0723419-3.1141129-0.0083923-4.6650925
		c-0.0571747-1.0982513,0.5881653-1.708252,1.3368073-2.5611115c0.1634521,1.4478302,0.0738831,2.7019196,0.0857239,3.9504089
		c0.011734,1.2353592-0.0147858,2.471077-0.0245514,3.7066422
		C193.8233032,123.1232605,193.3445892,123.0296249,192.9362335,122.7093124z"></path>
	<path d="M205.6720886,123.7138138c0-2.662796,0-5.325592,0-8.1903229
		c0.7644196,0.8644867,1.3236847,1.5309677,1.2718964,2.6181946c-0.0872803,1.8323135-0.0251617,3.6717377-0.0258789,5.5081787
		C206.5110931,123.8330841,206.0908813,123.759758,205.6720886,123.7138138z"></path>
	<path d="M33.2114258,122.2488327c-0.0106659-1.4734802-0.030529-2.9469757-0.0280876-4.420433
		c0.0012016-0.7239151,0.2762489-1.1347046,1.3844833-2.1748734c0,2.2516785,0,4.4332962,0,6.6149216
		C34.114502,122.343956,33.6619148,122.3689346,33.2114258,122.2488327z"></path>
	<path d="M208.9021301,123.4891205c0-1.063385,0-2.1267776,0-3.3391037
		c1.0710907,0.9288559,1.4785767,1.9660339,1.2693481,3.2509232
		C209.759964,123.5970154,209.3301086,123.5295258,208.9021301,123.4891205z"></path>
	<path d="M30.0667095,122.0533142c0.0841961-0.7873383,0.7631149-1.1926117,1.1323032-1.8333664
		c0.227066,0.6724854,0.1761398,1.3164825,0.1528664,1.9585037
		C30.9081268,122.2943344,30.4643497,122.4104614,30.0667095,122.0533142z"></path>
	<path d="M190.046402,121.4569473c0.2235718-0.4369965,0.4059753-0.9049911,0.9287415-1.2587509
		c0,0.5757751,0,1.0534668,0,1.5311737C190.6458893,121.7055511,190.3368073,121.61306,190.046402,121.4569473z"></path>
	<path d="M18.6369286,44.9353638c0.0124798,1.2370224-0.0401077,2.4791031,0.0555267,3.709671
		c0.0978699,1.2592926-0.5776711,2.068325-1.4471092,3.021801c-0.0860348-1.5440063,0.2639408-2.9452095-0.1622009-4.3036842
		C17.4452343,46.4542618,17.9976635,45.667057,18.6369286,44.9353638z"></path>
	<path d="M21.7485924,41.0786972c0.0130692,0.9911957-0.0424232,1.9892921,0.0564899,2.9718552
		c0.1248322,1.2400131-0.4772377,2.0849533-1.3335533,2.9898071c-0.2146034-1.4791374,0.0904808-2.8578377-0.1803646-4.2064438
		C20.6482868,42.1421127,21.1350937,41.5578651,21.7485924,41.0786972z"></path>
	<path d="M24.9334908,37.7724686c0.0177975,0.831768,0.0410652,1.6634598,0.0519238,2.4953156
		c0.0119209,0.9135628-0.6994076,1.4241333-1.2874184,2.0691299c0-1.1015892,0-2.2031708,0-3.3047523
		C23.9849625,38.4899368,24.4295731,38.10215,24.9334908,37.7724686z"></path>
	<path d="M28.4930782,34.7932739c0.1904793,0.8068886-0.1077766,1.4627228-0.6788464,1.9968529
		c-0.3497772,0.3271561-0.305233,1.1822281-0.9132385,1.0179176c-0.4487896-0.1212769-0.0718517-0.839119-0.2405396-1.2601242
		c-0.0289192-0.0721779-0.0693321-0.1397552-0.104435-0.2094612C27.1159897,35.7160683,27.7390747,35.1727028,28.4930782,34.7932739
		z"></path>
	<path d="M223.7080688,61.7728729c-0.0149841,3.7558136,0.123703,7.5199814-0.0801849,11.2655258
		c-0.3232269,5.9378967-0.1766357,11.8739166-0.2349548,17.8106384c-0.0015717,0.1597748,0.060318,0.3682404-0.0172577,0.4716644
		c-0.6980133,0.9305573-0.3955841,1.9981155-0.3981323,3.0025864c-0.0219574,8.6316833-0.0115051,17.2634354-0.0118408,25.8951797
		c-0.0000153,0.187973,0.0711823,0.3891449-0.1424561,0.615593c-0.7145538-0.813858-1.2913208-1.5877457-1.2835846-2.7974396
		c0.0478058-7.4725342,0.2221985-14.9525757-0.0428009-22.4160233c-0.1895294-5.3370743,0.0390472-10.6740646-0.2342682-15.9977112
		c-0.3666534-7.1415405-0.0360565-14.2810135-0.2031708-21.4188499c-0.0198364-0.8472328,0.5594482-1.2467422,0.9620514-1.8008766
		C222.7896423,58.1284447,223.4463959,59.8886833,223.7080688,61.7728729z"></path>
	<path d="M202.0156403,106.162117c-0.2541656-0.5792999-0.1638947-0.9826508-0.1643219-1.3737717
		c-0.0069733-6.2334747-0.2239838-12.4764633,0.0466919-18.6981812c0.3939667-9.0554886,0.0705261-18.1060638,0.2128906-27.1571693
		c0.0031281-0.1996307-0.0299835-0.4125175,0.026886-0.5966797c0.6564636-2.125824,0.9084778-4.3370819,1.3211823-6.5105705
		c0.1664429-0.8766747,0.300354-1.7832985,0.4833374-2.6838455c0,1.7489891,0.0000153,3.4979858,0.0000153,5.2469749
		c0,0.5194588-0.0219421,1.039978,0.0032501,1.5582123c0.4012451,8.2509117,0.0649261,16.5132408,0.3222046,24.7608528
		c0.2153625,6.9034119,0.0141144,13.8013763,0.1768036,20.6993561c0.0217743,0.9242554-0.1634369,1.7093658-0.7177277,2.4337921
		C203.177597,104.5589447,202.6528015,105.2954941,202.0156403,106.162117z"></path>
	<path d="M205.6643066,46.204483c0.8339996,0.8812332,1.4742279,1.5753098,1.4179382,2.7646675
		c-0.0924072,1.9524078,0.0060425,3.9129562-0.0306549,5.8690453c-0.1338501,7.1309547,0.4933624,14.2513275,0.2831726,21.3828201
		c0.5957489,3.4783173,0.1990204,6.9840393,0.2700043,10.4761581c0.0705719,3.472847-0.0021973,6.94841,0.0294189,10.4224091
		c0.006897,0.756897-0.1579437,1.3806-0.6315765,1.9790344c-0.5845032,0.7385864-1.0869141,1.5420609-1.8270721,2.2618484
		c0-0.3348465,0-0.669693,0-1.0045395c-0.000061-6.3894882-0.0584869-12.7796555,0.0167542-19.168251
		c0.0705261-5.9888611,0.0126495-11.9771194,0.0584259-17.9654236c0.0031281-0.4098854-0.123291-0.8338661,0.3110657-1.1963272
		c0.2647552-0.2209244,0.0978088-0.6849937,0.0983124-1.0381889c0.0065308-4.4726295,0.0042572-8.9452705,0.0042267-13.4179115
		C205.6643219,47.1773987,205.6643066,46.7849693,205.6643066,46.204483z"></path>
	<path d="M219.788208,116.3639221c-0.9655457-0.9740295-1.3878174-1.9140091-1.3676147-3.1820145
		c0.0726013-4.5552292,0.2608185-9.1273575-0.0332184-13.664711c-0.3305817-5.1019516,0.0973053-10.2063217-0.2850342-15.2813492
		c-0.2672424-3.5474548-0.1354675-7.0777817-0.2042389-10.6144943c-0.0683441-3.5158844-0.0047455-7.0341873-0.0247803-10.5512924
		c-0.0035706-0.6261978,0.1175385-1.1572418,0.5121155-1.6603851c0.6060791-0.7728386,1.1568451-1.5889931,1.9432983-2.3328476
		c0,0.2923737,0,0.5847435,0,0.8771095c0,1.5587692-0.0190277,3.1178017,0.0030975,4.6762505
		c0.1444092,10.1803207-0.3505249,20.3560028-0.2152405,30.5361328c-0.6094208,6.8878708-0.1171722,13.7902603-0.2743225,20.684082
		C219.8395844,115.9683456,219.8181458,116.0858688,219.788208,116.3639221z"></path>
	<path d="M28.0839672,55.4044113c0.297121,0.4100761,0.1704216,0.7768478,0.1712341,1.1155014
		c0.0104542,4.3538322,0.0088921,8.7076874,0.0045433,13.0615463c-0.0005207,0.5207596-0.0368671,1.0434723,0.3284168,1.4776154
		c0.2573147,0.3058319,0.2153912,0.6689224,0.2153759,1.0263138c-0.0002899,6.5108032,0.2098064,13.0307693-0.0742702,19.5291824
		c-0.187973,4.3000793-0.0624428,8.590683-0.1879139,12.8833618c-0.0122719,0.4198761-0.0926514,0.7664032-0.3569317,1.0994568
		c-0.4093838,0.5159149-0.6501694,1.1683731-1.1745777,1.5506287c-0.840414-2.9517822-0.5555477-5.9377289-0.5678368-8.9030762
		c-0.0395527-9.5450134-0.0495167-19.0901413-0.0737-28.6352234c-0.0008049-0.3176956,0.0200329-0.6495972-0.0624199-0.9492493
		c-0.0962601-0.349823-0.0510902-0.4719009,0.3292618-0.5546799c0.3647327-0.0793762,0.2112999-0.4596481,0.2125721-0.7097778
		c0.0107613-2.1169662,0.0061989-4.2339973,0.0061703-6.3510132c-0.0000134-1.1184158,0.0414391-2.238842-0.012331-3.3546753
		C26.7912521,56.6463318,27.4663563,56.0897751,28.0839672,55.4044113z"></path>
	<path d="M212.1780548,55.3850403c0.8179169,0.8526001,1.2745819,1.6901817,1.2349548,2.8915672
		c-0.0961151,2.9143867-0.0372925,5.8341026-0.0247955,8.7515984c0.0019073,0.442337-0.1704407,0.9421539,0.378067,1.2633133
		c0.2068939,0.1211319,0.0961456,0.445549,0.096283,0.6769714c0.0041351,6.6344299,0.0577393,13.2694473-0.0139465,19.9031067
		c-0.0535278,4.9549255-0.00914,9.9092255-0.0454559,14.8636551c-0.004364,0.5955124,0.0327454,1.1833725-0.2973175,1.7362595
		c-0.2992401,0.5012894-0.0179291,1.1014786-0.1670074,1.652359c-1.0584106-0.8182449-1.6331482-1.9117584-1.6335144-3.0859528
		c-0.0001678-0.5595245,0.0027466-1.1190796-0.0004272-1.6785889c-0.056366-9.9310989-0.4363861-19.8592529-0.2713165-29.7923737
		c0.0111084-0.6687622-0.1053467-1.3461151,0.4285278-1.9223099c0.2523346-0.2723389,0.1082306-0.6947861,0.1087341-1.0483856
		c0.0061646-4.3963013,0.0007782-8.792614,0.0114899-13.1888962
		C211.9830627,56.1079979,211.8452759,55.7776947,212.1780548,55.3850403z"></path>
	<path d="M20.0051441,58.9557953c0.7960854,1.078968,1.4999771,2.0304375,2.2005882,2.9843102
		c0.1785698,0.2431297,0.1480961,0.5304604,0.1481037,0.8087387c0.0001564,6.6294289,0.2300644,13.2695122-0.0765591,19.8847618
		c-0.2270794,4.8991241-0.0470257,9.7870941-0.2064857,14.6769714c-0.0138721,0.4253159,0.1053505,0.8704071-0.2781506,1.2330475
		c-0.2590618,0.2449722-0.1391964,0.6071625-0.1395817,0.9177094c-0.0056572,4.5527344-0.0040054,9.1054764-0.0034275,13.6582108
		c0.0000248,0.1994705-0.0474396,0.4194794,0.0194798,0.5947418c0.2486706,0.6512604,0.0468502,1.1856155-0.4107304,1.6306152
		c-0.2792988,0.2716141-0.2982502,0.7598267-0.8638992,0.9196014c0-0.4171982,0-0.7949448,0.0000019-1.172699
		c0.0000114-5.8306961,0.2204742-11.6721573-0.0635185-17.489006c-0.2704601-5.5396652,0.037035-11.0758438-0.2395458-16.6009064
		c-0.3632698-7.2567291-0.0641251-14.5110016-0.170681-21.7652206
		C19.9201794,59.198658,19.9425888,59.1603088,20.0051441,58.9557953z"></path>
	<path d="M216.5058594,63.6954918c0.2336731-0.0397987,0.4183044-0.0712471,0.6046143-0.1029854
		c0.1797333,0.3522034,0.0891418,0.7178497,0.0894928,1.0696716c0.0063782,6.3128204,0.2367096,12.6367645-0.0655518,18.9350967
		c-0.2621307,5.4625626-0.0732422,10.9144669-0.2145691,16.3688049c-0.0041351,0.1597061,0.0571747,0.3651352-0.0196533,0.4719925
		c-0.6472931,0.9005814-0.3667145,1.9230194-0.3805084,2.8928528c-0.0347137,2.4367447-0.0115051,4.8743057-0.0115051,7.3115311
		c0,0.3418884,0,0.6837769,0,1.2134399c-0.8452911-0.9399643-1.3601685-1.7360153-1.2809753-2.8890228
		c0.0983124-1.4316101,0.0429077-2.8754883,0.0143738-4.3132935c-0.0119629-0.6030121,0.237915-1.2806702-0.3800964-1.7713547
		c-0.0637054-0.0505524-0.0302887-0.2289734-0.0336304-0.3482971c-0.0044708-0.1596909-0.000473-0.319603-0.0007782-0.4794235
		c-0.0203552-11.5054855-0.0402069-23.0109711-0.0631561-34.516449c-0.000946-0.4780579-0.038681-0.953804,0.2858734-1.3654633
		c0.270813-0.3434525,0.2000275-0.7574158,0.2003632-1.1529236c0.0014343-1.6357307,0.0006104-3.2714653,0.0006104-4.9847908
		C216.8052521,60.9177475,216.4763184,62.3723907,216.5058594,63.6954918z"></path>
	<path d="M23.7294807,111.6517029c0-1.8562012,0.0000019-3.5281219,0-5.2000504
		c-0.0000038-1.3185654,0.0142574-2.6373367-0.0060291-3.9555893c-0.0101547-0.6597748,0.1363316-1.3312988-0.3366852-1.9530334
		c-0.1775093-0.2333145-0.0679855-0.6942368-0.0681953-1.0513916c-0.0027122-4.5949783,0.223465-9.2045898-0.0743809-13.7801895
		c-0.2283287-3.5076523-0.1277695-6.9997177-0.1976528-10.4973145c-0.0702229-3.5147629-0.0185032-7.0320129-0.010807-10.5481567
		c0.0007706-0.3521576-0.0890827-0.7175865,0.0874653-1.0707321c0.1846237,0.03088,0.3680553,0.0615654,0.5651531,0.0945358
		c0.1438503-0.7899895-0.1556969-1.6246796,0.1517982-2.3670578c0.2021523-0.4880447,0.5414104-0.95821,1.1463871-1.4446907
		c0,1.7124977-0.0011806,3.2470169,0.0005703,4.7815285c0.000721,0.6323242-0.0840797,1.2735519,0.3736286,1.825737
		c0.2172012,0.2620316,0.1072502,0.6182632,0.1074543,0.9319077c0.0043221,6.5927887,0.0544834,13.1861191-0.0135651,19.7782059
		c-0.0507221,4.913559-0.0081406,9.8265839-0.0515995,14.7396088c-0.0039864,0.4508286,0.1524906,0.9369125-0.3307362,1.3118362
		c-0.2130203,0.1652603-0.0810223,0.5326157-0.0821552,0.8071213c-0.0071011,1.7180862-0.0592556,3.4387054,0.0171146,5.1534271
		C25.0538921,110.254776,24.4879379,110.8659363,23.7294807,111.6517029z"></path>
	<path d="M29.7620907,103.2162323c-0.2955818-0.431633-0.1910152-0.7593918-0.1919842-1.0667648
		c-0.0296078-9.3834534-0.0548363-18.7669144-0.0715408-28.1503983c-0.0023441-1.31604,0.0407066-2.6322021,0.0681038-3.9481964
		c0.0040874-0.1962967-0.0369492-0.4624405,0.0703449-0.5761642c0.5731506-0.6074753,0.4082108-1.3447495,0.4093895-2.046402
		c0.0077801-4.632782,0.0291519-9.2658272-0.0158596-13.8981819c-0.0097713-1.0058403,0.3257923-1.7472839,1.1428413-2.5173264
		c0.0277977,0.425396,0.0629177,0.7144585,0.0631485,1.0035477c0.0034866,4.3532257-0.139101,8.712574,0.0491428,13.0576515
		c0.1392841,3.21492,0.2139435,6.4252014,0.2255707,9.6401367c0.000433,0.1197815-0.0464287,0.2727737,0.0098953,0.3542862
		c0.702486,1.0167313,0.401392,2.1660995,0.4067898,3.2568665c0.0274658,5.5512238-0.0022888,11.1027298,0.0213146,16.6539917
		c0.0075874,1.7846222-0.4899864,3.5358582-0.3000145,5.3287048c0.0155525,0.1467743-0.0264969,0.3302917-0.1084538,0.4518051
		C30.9926453,101.5723419,30.507328,102.4333878,29.7620907,103.2162323z"></path>
	<path d="M209.1070251,50.9861794c0.8502502,0.8226433,1.1205444,1.7957191,1.1040497,2.9898872
		c-0.063446,4.5939636-0.1203461,9.1922951,0.0240936,13.7825928c0.052536,1.6694336,0.0391846,3.3879013,0.4832611,5.0417252
		c0.0702972,0.2617798,0.0233612,0.55616,0.0233917,0.8354645c0.000824,6.3928146,0.1786499,12.7926102-0.0713654,19.1756363
		c-0.1332245,3.401268-0.0618896,6.8061447-0.2539368,10.4364014c-0.6359406-0.902153-1.1526031-1.6397095-1.6746826-2.3734283
		c-0.2029724-0.2852325-0.1427612-0.6086273-0.1641846-0.9242477c-0.5111694-7.5254517-0.3236694-15.0628052-0.2210693-22.5908508
		c0.044342-3.2541656,0.2105103-6.5148087,0.2232513-9.7753448c0.0004578-0.1198502-0.0457001-0.2754517,0.0120544-0.3540726
		c0.7109528-0.9677658,0.3829193-2.0748749,0.3918915-3.1168442c0.0356598-4.1550255,0.0129852-8.3105431,0.0185242-12.4658661
		C209.002594,51.4270401,208.9198303,51.1824989,209.1070251,50.9861794z"></path>
	<path d="M34.852932,101.4015274c-0.6485176-0.8927994-1.2847481-1.7949219-1.9521561-2.673378
		c-0.2370605-0.3120193-0.2884254-0.6372604-0.288208-1.0054855c0.0039711-6.6297836,0.0030785-13.2595596,0.003231-19.8893433
		c0.6088676-4.1198807,0.1353073-8.2646103,0.2838211-12.3950882c0.012722-0.3539886-0.046196-0.7079468,0.2423439-1.0112762
		c0.2751694-0.2892761,0.1698952-0.681469,0.1725693-1.0340958c0.0077858-1.0269699,0.0027618-2.0540352,0.0942383-3.0870857
		c0.8163757,2.3233566,1.6844139,4.5887489,1.611969,7.1319313c-0.1136703,3.9906158-0.0852661,7.9877396-0.0189247,11.9804764
		c0.1180916,7.1074219,0.0184479,14.2146149,0.0600319,21.3217392c0.001152,0.1972427,0.000145,0.3944931,0.000145,0.5917511
		C34.9923058,101.3549576,34.9226189,101.3782425,34.852932,101.4015274z"></path>
	<path d="M38.2534904,106.1108856c-0.9461861-1.0559158-1.644722-2.1455917-2.3494949-3.2281342
		c-0.2074738-0.3186874-0.090107-0.7036591-0.0904503-1.0566559c-0.0061378-6.3485184-0.1803322-12.7035294,0.0538406-19.0434113
		c0.1721725-4.6612854,0.0005417-9.3186951,0.2048187-14.1174011c0.5807762,1.574791,1.0630531,3.0492783,1.7660866,4.4375305
		c0.2471123,0.4879532,0.3565178,1.0470047,0.2907104,1.6255951c-0.0448341,0.3942108-0.014534,0.7976837-0.0080528,1.1968613
		c0.1559219,9.6031723,0.3814774,19.2057114,0.2663727,28.8113098
		C38.3823624,105.1505814,38.4687347,105.5830078,38.2534904,106.1108856z"></path>
	<path d="M197.7505951,72.6047974c0,3.7538681-0.2292938,7.5259171,0.0665741,11.25634
		c0.2780914,3.5065765,0.1330109,6.9960632,0.20224,10.4915924c0.0688171,3.4743042,0.019043,6.9510345,0.0096588,10.4266739
		c-0.0010529,0.3902588,0.099884,0.7948074-0.1103363,1.2364883c-0.5621033-0.243309-0.6623993-0.853157-1.016983-1.2377625
		c-1.0096741-1.0951843-1.3750305-2.3558578-1.3514404-3.8973923c0.0916443-5.991127-0.0387573-11.985939,0.076828-17.9762344
		c0.0428772-2.2216492,0.161972-4.4466019,0.176712-6.6723557c0.0010529-0.1583405-0.0182648-0.3428497,0.0525055-0.4706116
		C196.4472961,74.6947403,196.8838348,73.5414734,197.7505951,72.6047974z"></path>
	<path d="M194.5688171,101.4769821c-0.7435608-1.0606308-1.4933624-2.1169662-2.2258911-3.1851501
		c-0.1661835-0.2423248-0.0827026-0.5458069-0.0830231-0.8215179c-0.006012-5.2739029-0.0379791-10.5480576,0.0069275-15.8215561
		c0.0143738-1.6886215,0.6841278-3.1344681,2.1004028-4.1291046c0.3261261,0.1383896,0.2440338,0.3608246,0.2544861,0.5394592
		c0.4407654,7.533844,0.1222992,15.0750885,0.217865,22.6123734c0.0029755,0.2359009,0.000351,0.4718781,0.000351,0.7078247
		C194.7495575,101.4118652,194.6591949,101.4444199,194.5688171,101.4769821z"></path>
	<path d="M42.3771362,106.160408c-0.2619781-0.6042023-0.1700401-1.0074387-0.1704788-1.3983459
		c-0.0069275-6.1518097-0.0015793-12.3036346-0.0089493-18.4554367c-0.0009041-0.7549286-0.0280762-1.5044785,0.4263229-2.1756287
		c0.6418419,3.1395874,1.2485924,6.3008957,1.717083,9.4877853c0.0115547,0.078598,0.0123558,0.159584,0.0102539,0.2392578
		c-0.072628,2.7514191,0.412796,5.4816895,0.3091774,8.2362289c-0.0202217,0.5374908-0.1009331,0.9894867-0.43927,1.4322662
		C43.6038933,104.3344879,43.0500183,105.1909027,42.3771362,106.160408z"></path>
	<path d="M191.7019043,84.1231232c0,3.9970779,0.0000153,7.9941635-0.0001221,11.9912338
		c-0.0000153,0.1598892,0.061676,0.3626099-0.0127869,0.4729462c-0.6353607,0.9412689-0.4007874,1.9997177-0.3723602,3.0048523
		c0.0229034,0.8107071-0.1504364,1.493515-0.6797485,2.081398c-0.3377075,0.3750763-0.4466705,0.9444122-1.0417786,1.196785
		c-0.0664063-0.7865753-0.1459503-1.5582733,0.1079254-2.2565689c0.6221008-1.7111664,0.6623688-3.5061035,0.8354797-5.2744904
		c0.1588135-1.6220322,0.0570068-3.2619705,0.2572174-4.8917847
		C191.0553894,88.3339005,191.160965,86.2006454,191.7019043,84.1231232z"></path>
</g>
<g onclick="select(this)" class="" id="c-detalhe-punho" fill="#021c3b">
	<path d="M0.24,116.0934372c0.6099691-1.6036377,0.5354484-3.3398285,0.9660289-4.9766235
		c0.1357286-0.5159531,0.0380955-1.12957,0.5606382-1.5046616c3.1238949,0.6052628,6.2463446,1.2167816,9.3613768,1.8658905
		c3.3791361,0.7041168,6.808075,1.2599945,10.2325821,1.7766113c1.5762768,0.2378006,3.1452713,0.544075,4.7291145,0.707634
		c4.2910786,0.4431229,8.6005516,0.5878372,12.8986778,0.2197342c2.2823296-0.1954727,4.823391,0.1977615,6.5608978-2.3492203
		c0.2157669,1.1439972,0.3754272,1.9905014,0.5350876,2.8370056c-0.1584244,0.6402283,0.6805687,0.9768066,0.4953117,1.6251984
		c-0.0028381,0.7247925-0.0056763,1.4495926-0.0085144,2.1743851c-0.0448265,0.0914841-0.1344299,0.1862946-0.1279335,0.2739792
		c0.1689758,2.2800522-0.163063,2.6571503-2.4049683,2.8243332c-3.5738373,0.2664871-7.1095161,0.9167099-10.7256699,0.773407
		c-6.2733345-0.2486115-12.4740543-1.1022491-18.6703339-2.0134277c-4.5695629-0.6719666-9.1108589-1.5093994-13.6113749-2.5555573
		c-0.2677359-0.0622406-0.5274647-0.1588821-0.7909204-0.2395096C0.24,117.052887,0.24,116.5731659,0.24,116.0934372z"></path>
	<path d="M188.1194153,120.4210434c-0.1154327-0.1806564-0.2308655-0.3612976-0.3452301-0.5422745
		c0.4129639-2.1406479,0.7439423-4.2919846,0.8835754-6.4696579c0.7926483-0.1003036,0.2149658-0.819252,0.6640778-1.1933746
		c0.4613647-0.0213699,0.8536987,0.380043,1.2762299,0.7082291c2.4617615,1.9122314,5.102478,3.0013199,8.3687897,2.9666061
		c4.6072845-0.0489578,9.1609192-0.4245224,13.7149963-1.0247879c5.3340454-0.7030716,10.6856079-1.2847366,15.9672394-2.3379288
		c1.1724396-0.2337875,2.3242645-0.5708923,3.4855652-0.8605957c0.2128906,0.0527039,0.3546906,0.176712,0.3748016,0.403244
		c0.1905823,2.1474304,0.6912689,4.2533722,0.795578,6.4173126c0.0500793,1.0388031-0.2937164,1.4709549-1.2895355,1.6987762
		c-3.7425079,0.8562546-7.5182648,1.5250092-11.3158569,2.0600967c-7.1294098,1.0045853-14.2813416,1.7277603-21.499527,1.5248642
		c-2.8661957-0.0805511-5.6458893-0.443428-8.1666565-1.9624786
		C190.1119995,121.2537994,188.7405243,121.6243439,188.1194153,120.4210434z"></path>
</g>
</svg>
