<!--?xml version="1.0" encoding="utf-8"?-->
<!-- Generator: Adobe Illustrator 24.2.3, SVG Export Plug-In . SVG Version: 6.00 Build 0)  -->
<svg version="1.1" id="Camada_1" xmlns="http://www.w3.org/2000/svg" xmlns:xlink="http://www.w3.org/1999/xlink" x="0px" y="0px" viewBox="0 0 229 418" style="enable-background:new 0 0 229 418;" xml:space="preserve">
<style type="text/css">
	.st0{fill:#FC0101;}
	.st1{fill:#2145B9;}
	.st2{fill:#A5CEFC;}
	.st3{fill:#F4FD42;}
	.st4{fill:#1D1C4F;}
</style>
<g onclick="select(this)" class="" id="gola-primaria" fill="#ffffff">
	<path d="M109.3,35.9c-0.2,0.5-0.6,0.3-0.9,0.3c-4.1-0.3-8-1.5-11.6-3.3c-5.4-2.6-10.2-5.9-14.4-10.2
		c-2.7-2.7-4.9-5.8-5.8-9.6c-0.2-1-0.4-2-0.2-3.1c0.2-1,0.9-1.5,1.7-2.1c0.5,0,0.9-0.3,1.3-0.6c0.9-0.9,2-1.7,2.7-2.7
		c2-2.9,5-3.6,8.2-3.9c3.1-0.3,6.1,0.1,9.2,0c4.4-0.1,8.8,0,13.2-0.1c7.9-0.2,15.8,0,23.7,0c0.9,0,1.8,0.2,2.7,0.3
		c2.2,0.3,4.1,1.2,5.6,3.1c1.2,1.6,2.6,3.1,4.4,4.1c1.7,0.5,2.3,2.5,1.7,4.7c-1.2,4.2-3.5,7.7-6.6,10.6c-2.7,2.6-5.8,4.9-9.1,6.8
		c-4.1,2.4-8.3,4.4-12.9,5.4c-1.4,0.3-2.8,0.4-4.3,0.5c0.5-1.1,1.3-2.1,2.1-3c2.2-2.6,4.9-4.8,7.5-7.1c2.1-1.7,4.3-3.3,6.4-5
		c2.4-1.8,4.6-3.8,6.6-6.1c1.5-1.8,2.8-3.7,3.7-6c-2,0.2-3.9,0.4-5.9,0.5c-5.4,0.4-10.8,0.8-16.1,1.1c-5.6,0.4-11.2,0.4-16.8,0
		c-7.1-0.5-14.3-1.1-21.4-1.8c-0.7-0.1-1,0.1-0.7,0.8c0.5,1.2,1.1,2.4,1.9,3.4c3.9,5.3,9.4,8.9,14.4,13.1
		C103.1,29.3,106.6,32.2,109.3,35.9z"></path>
</g>
<g onclick="select(this)" class="" id="detalhe-lateral" fill="#ffffff">
	<path d="M180.3,284c-0.4-5-0.6-10-0.8-15.1c-0.3-6-0.5-12-0.7-17.9c-0.2-4.9-0.3-9.7-0.5-14.6
		c-0.3-7.3-0.3-14.6-0.5-21.9c-0.4-17-0.2-34.1-0.2-51.1c0-4.8,0.2-9.7,0.5-14.5c0.3-4.8,0.7-9.6,1.1-14.4
		c0.9-9.6,2.5-19.2,4.9-28.5c1.2-4.8,2.7-9.6,4.8-14.2c0.1-0.2,0.1-0.6,0.4-0.7l0,0c0.2,0.5-0.1,0.9-0.2,1.3
		c-1.9,6.6-3.2,13.3-4.1,20.1c-0.4,2.5-0.4,5.1-0.5,7.7c-1.2,10.3-2.3,20.6-2,31c0.1,2.5,0.8,4.9,0.4,7.4c-0.4,2.3-0.4,4.7-0.4,7
		c0.1,6.6,0.1,13.2-0.1,19.7c-0.1,4.5,0.7,8.7,1.4,13c0.9,5.1,0.9,10.2,0.2,15.4c-0.3,2.3-0.5,4.7-0.8,7c0,0.4,0.1,0.8,0.2,1.2
		c2,5.7,2.5,11.6,1.6,17.6c-0.3,2-0.3,4,0.1,6c0.4,2,0.6,4.1,0.5,6.2c-0.1,7.4,0.7,14.7,1.4,22c0.2,2.3,0.3,4.6,0.3,6.9
		c0,1.1-0.5,1.8-1.5,2.2C184.2,283.5,182.3,284,180.3,284z"></path>
	<path d="M42.5,112.8c0.1-1.9-0.4-3.8-0.6-5.7c-0.4-2.9-0.9-5.7-1.3-8.5c-0.1-0.7-0.8-1.2-0.3-2.1
		c0.9,1.9,1.4,3.8,1.9,5.7c1.9,6.1,3.1,12.4,4.2,18.7c0.8,4.5,1.4,9.1,1.8,13.7c0.4,4.2,0.7,8.4,1,12.6c1.3,21.4,0.6,42.8,0.7,64.2
		c0,4-0.1,8-0.2,12c-0.1,6.3-0.3,12.5-0.5,18.8c-0.2,4.4-0.3,8.9-0.5,13.3c-0.2,5.6-0.4,11.2-0.8,16.9c-0.3,3.8-0.2,7.6-0.7,11.3
		c-1.7-0.1-3.4-0.5-5-1.1c-1.6-0.6-2-1.1-2-2.8c0-2.8,0.2-5.6,0.4-8.3c0.4-5.3,0.7-10.6,1.2-15.9c0.4-4.8-0.1-9.6,0.9-14.3
		c0.2-0.9,0.1-1.8,0-2.7c-0.5-3.1-0.4-6.2,0.3-9.3c0.2-0.9,0.1-1.7,0.1-2.6c-0.3-4.1-0.8-8.1-0.9-12.2c0-4.9,1.1-9.7,2.7-14.3
		c0.3-0.9,0.5-1.7,0.4-2.7c-0.2-1.6-0.1-3.2,0.2-4.8c0.1-0.6,0.2-1.2,0.1-1.8c-0.1-4.8-0.3-9.6-0.4-14.5c0-1.1,0.1-2.2,0.2-3.3
		c0.1-1.9,0.1-3.7,0-5.6c-0.4-5.1-0.2-10.1-0.1-15.2c0.2-9.1-0.2-18-1.5-27c-0.2-1.5-0.4-3.1-0.6-4.6c0.5-1.2-0.2-2.3-0.4-3.5
		C42.7,115.6,42.9,114.1,42.5,112.8z"></path>
</g>
<g onclick="select(this)" class="" id="detalhe-punho" fill="#71aad4">
	<path d="M0.2,114.4c0.5-1,0.5-2.2,0.7-3.3c0.1-0.5,0.1-1.1,0.5-1.5c4.7,1.9,9.7,3.3,14.7,3.9
		c5.6,0.7,11.3,0.9,16.9,0.7c2.4-0.1,4.7-0.2,7-0.6c0.8-0.1,1.4-0.9,2.3-0.8c0.5,1.4,0.2,2.8,0.4,4.2c0.1,1.1,0.9,2.3,0.4,3.5
		c-2.8,1.3-5.9,1.7-9,1.8c-7.1,0.1-14.1,0.3-21.2-0.9c-3.6-0.6-7.2-1.3-10.7-2.4c-0.7-0.2-1.5-0.6-2.2-0.9
		C0.2,116.8,0.2,115.6,0.2,114.4z"></path>
	<path d="M184.6,120.2c0-2.6,0-5.1,0.5-7.7c0.9,0.6,2,0.9,3.1,1c5.6,0.3,11.2,0.6,16.8,0c4-0.4,7.9-1.2,11.9-2
		c3.1-0.7,6-1.9,9.1-2.5c0.6-0.1,1.3-0.5,1.9-0.8c1,2.5,1.3,5.1,1.1,7.7c0,0.6-0.8,0.8-1.3,0.9c-3.2,1.2-6.5,2.1-9.9,2.9
		c-8.4,2.1-16.9,2.5-25.5,2.1c-1.8-0.1-3.6-0.4-5.5-0.7C186,121,185.3,120.7,184.6,120.2z"></path>
</g>
<g onclick="select(this)" class="" id="gola-secundaria" fill="#71aad4">
	<path d="M127.5,26.2c-2.5,2.3-5.2,4.5-7.5,7.1c-0.8,0.9-1.6,1.9-2.1,3c-2.3,0.6-4.6,0.4-7,0.2c-0.6,0-1.1-0.3-1.6-0.6
		c-2.7-3.7-6.2-6.6-9.6-9.7c2.8,0,5.7-0.1,8.5-0.1C114.7,26.2,121.1,26.2,127.5,26.2z"></path>
</g>
<path d="M189.4,91.2c0-0.1,0.1-0.3,0.1-0.4c0,0,0.1,0.1,0.1,0.1C189.6,91,189.6,91.2,189.4,91.2
	C189.3,91.1,189.4,91.2,189.4,91.2z"></path>
<g onclick="select(this)" class="" id="estampa-primaria" fill="#ffffff">
	<path d="M42.5,112.8c-0.9-0.1-1.5,0.6-2.3,0.8c-2.3,0.4-4.7,0.5-7,0.6c-5.7,0.2-11.3,0-16.9-0.7c-5.1-0.6-10-1.9-14.7-3.9
		c1.7-8.9,2.5-18,4-26.9c0.9-5.2,1.2-10.6,2.2-15.8c1.7-8.5,4.5-16.6,9.7-23.7c2.1-2.9,4.5-5.5,7.3-7.7c1.4-1.1,2.4-2.6,3.9-3.4
		c3.6-1.9,7.3-3.7,11-5.3c10-4.1,20-8.2,29.5-13.4c2-1.1,4-2.1,5.5-3.9c0.8-1,2.1-1.6,3.5-1.6C77.3,8.5,76.6,9,76.4,10
		c-0.2,1,0,2.1,0.2,3.1c0.9,3.8,3.1,6.9,5.8,9.6c4.1,4.3,9,7.6,14.4,10.2c3.7,1.8,7.5,3,11.6,3.3c0.3,0,0.7,0.3,0.9-0.3
		c0.5,0.3,1,0.6,1.6,0.6c2.3,0.2,4.7,0.4,7-0.2c1.4-0.2,2.9-0.2,4.3-0.5c4.7-0.9,8.9-3,12.9-5.4c3.3-1.9,6.4-4.2,9.1-6.8
		c3.1-3,5.5-6.4,6.6-10.6c0.6-2.2,0-4.3-1.7-4.7c1.9-0.3,3.1,0.9,4.2,2.2c0.3,0.4,0.7,0.7,1.1,1c8.9,5.9,18.8,9.6,28.5,13.7
		c5.1,2.1,10,4.4,15.1,6.6c0.3,0.1,0.6,0.3,0.8,0.5c12,8.5,19.2,20.1,21.4,34.5c1.7,11.5,4.7,22.7,6.3,34.2c0.3,2.5,0.7,4.9,1.1,7.3
		c-0.6,0.3-1.2,0.6-1.9,0.8c-3.1,0.7-6,1.9-9.1,2.5c-3.9,0.8-7.9,1.6-11.9,2c-5.6,0.6-11.2,0.3-16.8,0c-1.1-0.1-2.1-0.4-3.1-1
		c0.9-6.8,2.2-13.5,4.1-20.1c0.1-0.4,0.4-0.8,0.2-1.3c0.2,0,0.2-0.1,0.2-0.3c0,0,0-0.1-0.1-0.1c0,0.1-0.1,0.3-0.1,0.4
		c-0.3,0.1-0.3,0.4-0.4,0.7c-2,4.6-3.5,9.3-4.8,14.2c-2.4,9.4-4,18.9-4.9,28.5c-0.5,4.8-0.8,9.6-1.1,14.4c-0.3,4.8-0.5,9.6-0.5,14.5
		c0,17-0.3,34.1,0.2,51.1c0.2,7.3,0.3,14.6,0.5,21.9c0.2,4.9,0.3,9.7,0.5,14.6c0.2,6,0.5,12,0.7,17.9c0.2,5,0.4,10,0.8,15.1
		c-7.7,1.1-15.4,1.4-23.1,1.5c-12.9,0.2-25.9,0.6-38.8,0.9c-6.8,0.2-13.5-0.5-20.2-0.6c-8.7-0.1-17.4-0.2-26.1-0.4
		c-8.3-0.2-16.6-0.4-24.8-1.8c0.5-3.8,0.5-7.6,0.7-11.3c0.4-5.6,0.6-11.2,0.8-16.9c0.1-4.4,0.3-8.9,0.5-13.3
		c0.3-6.3,0.4-12.5,0.5-18.8c0.1-4,0.2-8,0.2-12c0-21.4,0.6-42.8-0.7-64.2c-0.3-4.2-0.6-8.4-1-12.6c-0.4-4.6-1.1-9.1-1.8-13.7
		c-1.1-6.3-2.3-12.6-4.2-18.7c-0.6-1.9-1-3.8-1.9-5.7c-0.5,0.9,0.2,1.5,0.3,2.1c0.4,2.9,0.9,5.7,1.3,8.5
		C42.1,109,42.5,110.8,42.5,112.8z"></path>
	<path d="M127.5,26.2c-6.4,0-12.9,0-19.3-0.1c-2.8,0-5.7,0.1-8.5,0.1c-5-4.1-10.5-7.7-14.4-13.1c-0.8-1.1-1.4-2.2-1.9-3.4
		c-0.3-0.7-0.1-0.9,0.7-0.8c7.1,0.8,14.2,1.3,21.4,1.8c5.6,0.4,11.2,0.4,16.8,0c5.4-0.4,10.8-0.7,16.1-1.1c1.9-0.1,3.8-0.3,5.9-0.5
		c-0.8,2.3-2.2,4.2-3.7,6c-1.9,2.3-4.2,4.3-6.6,6.1C131.8,22.9,129.7,24.5,127.5,26.2z"></path>
</g>
<g onclick="select(this)" class="" id="estampa-secundaria" fill="#71aad4">
	<path d="M180.2,284c-2.6,0.3-5.3,0.7-7.9,0.9c-5.5,0.4-11.1,0.4-16.6,0.6c-4.7,0.1-9.4,0-14.1,0.2
		c-7.2,0.2-14.4,0.3-21.7,0.6c-4.4,0.2-8.9,0-13.3-0.2c-5.5-0.2-10.9-0.3-16.4-0.5c-6.1-0.2-12.1-0.1-18.2-0.2
		c-4.2-0.1-8.4-0.2-12.6-0.5c-4-0.3-8-0.8-12-1.2c0.1-2.1,0.2-4.2,0.3-6.3c0.3-5.2,0.6-10.4,0.8-15.6c0.1-4.1,0.3-8.2,0.5-12.3
		c0.2-5.1,0.2-10.1,0.5-15.2c0.2-3.1,0.1-6.2,0.2-9.3c0.1-6,0.4-12.1,0.3-18.1c0-19.2,0.3-38.4-0.5-57.7c-0.1-1.6,0-3.1-0.3-4.6
		c-0.2-1.3-0.2-2.6-0.3-3.9c-0.2-2.6-0.7-5.1-0.5-7.7c43.6,0,87.3,0,130.9,0c0,0.6,0.1,1.2,0,1.8c-0.7,4.7-0.8,9.5-1.2,14.2
		c-0.3,4.6-0.5,9.2-0.5,13.9c0,17.3-0.3,34.7,0.2,52c0.1,5,0.1,10.1,0.3,15.1c0.1,4.7,0.3,9.5,0.5,14.2c0.1,4.9,0.3,9.8,0.5,14.7
		c0.1,2.9,0.1,5.8,0.3,8.6c0.2,1.9,0.1,3.8,0.2,5.7C179.9,276.7,180,280.4,180.2,284z"></path>
</g>
<path d="M9.1,60.2c0.1,0.3,0,0.6-0.3,0.9C8.8,60.8,8.8,60.5,9.1,60.2z"></path>
<g onclick="select(this)" class="" id="estampa-terciaria" fill="#021c3b">
	<path d="M40.6,98.6c-1.5,0.2-3-0.3-4.5-0.5c-10.3-1.2-20.6-2.5-31-3.7c-0.9-0.1-1.2-0.3-1-1.2c0.4-2.5,0.7-5,1.1-7.5
		c0.1-0.7,0.3-0.9,1.1-0.8c10.5,1.3,21,2.6,31.4,3.8C40.5,89,43.2,89,46,89c5.2,0,10.5,0,15.7,0c0.3,0,0.8,0.2,1-0.2
		c0.2-0.4-0.2-0.7-0.5-1c-1.2-1.4-2.7-2.2-4.6-2.2c-6.8,0.1-13.5,0.1-20.3,0.1c-3,0-6-0.7-9-1c-7.1-0.8-14.2-1.7-21.3-2.6
		c-1-0.1-1.3-0.4-1.1-1.4c0.4-2.3,0.6-4.6,0.8-6.9c0.1-1,0.4-1.4,1.5-1.2c9.4,1.2,18.8,2.3,28.2,3.5c0.6,0.1,1.2,0.1,1.8,0.1
		c14.5,0,29,0,43.6,0c1.4,0,2.9,0.1,4.3,0.5c2.9,0.9,4.3,3.2,3.7,6.2c-0.3,1.5-0.9,2.8-1.7,4.1c-3.4,5.8-7,11.5-10.1,17.4
		c-0.9,1.7-1.8,3.4-1.9,5.4c-0.2,3.4,2,5,5.2,3.7c1.7-0.7,3.1-1.8,4.3-3.2c7.7-9.6,15.3-19.2,23-28.8c1.2-1.5,2.5-2.9,3.7-4.4
		c0.4-0.5,0.9-0.9,1.7-0.9c8,0.1,16,0,24,0.2c4,0.1,7.5,1.7,10,4.9c2.5,3.2,2.7,7.6,0.6,11.1c-0.4,0.7-0.6,0.7-1,0
		c-2.7-3.8-7.8-4.4-10.9-0.9c-4,4.4-6.7,9.5-7.8,15.4c-0.6,3.4,1.5,6.8,4.4,7.5c1.7,0.4,3.2-0.1,4.6-0.8c3.2-1.7,5.7-4.2,8-6.9
		c4-4.8,7.3-10.2,10.9-15.4c1.4-2,2.7-4.2,4.3-6.1c4-4.7,8.9-8,15.1-8.9c2.1-0.3,4.3-0.2,6.5-0.1c8.1,0.4,16.1-0.8,24.1-1.8
		c4.4-0.5,8.8-1.1,13.2-1.6c0.4-0.1,0.9-0.2,1.3-0.2c0.3,0.2,0.3,0.5,0.4,0.8c0.3,2.8,0.7,5.5,1.4,8.2c0,0.2,0,0.4-0.1,0.6
		c-4.1,0.5-8.2,0.9-12.3,1.4c-7.7,0.9-15.4,1.9-23.1,2.8c-1.2,0.1-2,0.8-2.6,1.7c-0.2,0.2-0.4,0.4-0.3,0.8c0.1,0.3,0.5,0.2,0.7,0.2
		c1.2,0,2.5,0,3.7-0.1c0.7-0.1,0.9,0.2,0.8,0.8c-0.5,0-0.4,0.5-0.5,0.7c-1.3,2.8-2.4,5.6-3.4,8.4c-4.2,0-8.3,0-12.5,0
		c-1.9,0-3.4,0.9-4.5,2.3c-0.2,0.3-0.6,0.6-0.3,0.9c0.2,0.3,0.6,0.1,0.9,0.1c5.1,0,10.3,0,15.5-0.1c-0.2,0.6-0.4,1.2-0.5,1.8
		c-0.7,2.6-1.4,5.2-2.1,7.8c-7.4,0-14.8,0-22.1,0c-1.7,0-3,0.9-4.1,2.2c-0.2,0.3-0.6,0.6-0.4,0.9c0.2,0.3,0.6,0.2,0.9,0.2
		c2.2,0,4.5,0,6.7,0c6.1,0,12.2,0,18.3,0c0.1,1.4-0.4,2.7-0.6,4c-0.4,2-0.6,4.1-1.1,6.1c-44.3,0-88.6,0-132.9,0
		c-0.7-3.4-1.3-6.7-1.7-10.2c5.4,0,10.9,0,16.3,0.1c0.8,0,1-0.2,0.5-0.9c-1-1.4-2.4-2.4-4.2-2.4c-4.4-0.1-8.9,0-13.3,0
		c-0.9-3.2-1.7-6.4-2.6-9.5c1.2,0,2.3,0,3.5,0c5.9,0,11.7,0,17.6,0c0.3,0,0.8,0.2,0.9-0.2c0.1-0.3-0.2-0.6-0.4-0.8
		c-1.2-1.4-2.6-2.3-4.5-2.3c-6,0-12.1,0-18.1,0c-0.1-0.1-0.1-0.2-0.2-0.3c-0.3-0.5-0.1-1.5-0.8-1.5C40,97.1,40.5,98.1,40.6,98.6z
		 M128.6,79.9c0,0.1-0.1,0.2-0.1,0.3c1.4,0.8,2.8,1.6,4.1,2.4c0.2,0.1,0.4,0.2,0.7,0.1c1.3-0.8,2.7-1.6,4-2.4
		c-0.1-0.4-0.3-0.3-0.5-0.3C134.1,79.9,131.3,79.9,128.6,79.9z"></path>
	<path d="M185.3,111.6c0.6-3.2,1.1-6.5,1.7-9.7c0.4-0.3,0.8-0.3,1.3-0.3c3.5-0.4,7-0.9,10.5-1.3
		c9.1-1.1,18.2-2.3,27.4-3.4c0.6,0.6,0.4,1.4,0.6,2.1c0.3,2.5,0.9,4.9,1,7.4c-11.9,1.4-23.9,2.9-35.8,4.3
		C189.7,111,187.5,111.7,185.3,111.6z"></path>
	<path d="M187.7,98.8c0.5-2.7,1.3-5.3,2.1-7.9c0.1-0.4,0.2-0.8,0.3-1.3c0.2-0.5,0.5-0.9,1.2-1c7-0.8,14-1.7,21-2.5
		c3.8-0.5,7.6-1,11.4-1.4c0.7,1.1,0.8,2.4,1,3.6c0.4,1.9,1,3.8,1,5.9c-9.3,1.1-18.6,2.2-27.9,3.4C194.4,98,191.1,98.4,187.7,98.8z"></path>
	<path d="M221.1,69.8c-4.4,0.5-8.7,1-13.1,1.5c-4.1,0.5-8.2,1-12.2,1.5c-0.7,0.1-0.8-0.2-0.8-0.8
		c0.3-2.6,0.1-5.1,0.1-7.7c0-0.9,0.3-1.2,1.2-1.3c7.3-0.8,14.6-1.8,21.9-2.6c0.2,0,0.5-0.1,0.7-0.1c0.3,0.1,0.4,0.4,0.5,0.7
		c0.7,2.7,1.3,5.4,1.8,8.2C221.2,69.4,221.2,69.7,221.1,69.8z"></path>
	<path d="M9.4,60.3c6.2,0.8,12.4,1.5,18.6,2.2c1.1,0.1,2.2,0.3,3.3,0.4c0.8,0,1.2,0.4,1.4,1.2c0.3,1.3,0.5,2.6,0.4,3.9
		c-0.1,1.3-0.1,2.6,0,3.8c0,0.7-0.1,0.9-0.8,0.8c-8-1-16-2-23.9-2.9c-1.1-0.1-0.7-0.8-0.7-1.4c0.5-2.4,1.1-4.9,1.6-7.3
		C9.4,60.9,9.5,60.6,9.4,60.3L9.4,60.3z"></path>
	<path d="M41.1,101.8c0.4,2.7,0.8,5.3,1.1,8c0.1,0.6,0.2,1.2,0,1.8c-7-1.2-14.1-1.9-21.2-2.8
		c-5.9-0.8-11.8-1.4-17.7-2.1c-0.8-0.1-1-0.3-0.8-1.1c0.4-2.5,0.8-5,1.1-7.5c0.1-0.8,0.4-1,1.2-0.9c10.8,1.3,21.7,2.6,32.5,4
		C38.5,101.2,39.8,101.5,41.1,101.8z"></path>
</g>
</svg>
