<!--?xml version="1.0" encoding="utf-8"?-->
<!-- Generator: Adobe Illustrator 24.2.3, SVG Export Plug-In . SVG Version: 6.00 Build 0)  -->
<svg version="1.1" id="Camada_1" xmlns="http://www.w3.org/2000/svg" xmlns:xlink="http://www.w3.org/1999/xlink" x="0px" y="0px" viewBox="0 0 229 418" enable-background="new 0 0 229 418" xml:space="preserve">
<g onclick="select(this)" class="" id="gola-primaria" fill="#021c3b">
	<path d="M77.9532471,7.9597087c0.5442505-0.060823,0.9727707-0.3512921,1.3516617-0.7144079
		c0.9517365-0.9121184,2.0429764-1.7265453,2.8068085-2.7772608c1.8079834-2.4870243,4.3546143-3.3584313,7.2153091-3.7517483
		c0.6288223-0.0864561,1.3583603,0.0999947,1.8729782-0.4764293c1.1999969,0,2.4000015,0,3.5999985,0
		c0.1687851,0.4909054,0.5990448,0.3124139,0.9139023,0.3135658c5.578331,0.0204086,11.1567383,0.0201361,16.7350998,0.0349731
		c0.4080353,0.0010852,0.7730331-0.0500705,1.0709991-0.3485389c7.5200043,0,15.0400085,0,22.5599976,0
		c0.0825958,0.4743731,0.4898376,0.314371,0.7612457,0.3588615c0.9795685,0.1605658,1.9686432,0.2631895,2.9482422,0.4236063
		c1.9836426,0.3248397,3.6553192,1.1195358,4.9371796,2.7921867c1.2989502,1.6949463,2.7366943,3.3046651,4.6419373,4.3876162
		c1.3338318,0.559351,1.940094,1.5309258,1.8434601,3.0019283c-0.235611,3.5861683-1.9489136,6.5051785-4.0314026,9.2897568
		c-0.4823914,0.6450272-0.8012085,0.5242634-1.3224487,0.1134567c-1.6621094-1.3100014-3.3261108-2.6210308-5.045578-3.8533516
		c-0.7900696-0.5662289-0.9149628-0.926733-0.2011108-1.7098112c1.5596924-1.7109747,2.8257294-3.6363506,3.6953278-5.9588709
		c-3.8121643,0.2876577-7.46698,0.5966864-11.1264954,0.832839c-8.2862701,0.5347214-16.5606079,1.3604345-24.8863144,0.8980713
		c-7.9773407-0.443017-15.9347458-1.1162539-23.8829803-1.9115543c-1.285965-0.1286755-1.369072-0.044939-0.8895187,1.1417885
		c0.8056946,1.9938097,2.0816574,3.6765404,3.5389481,5.2270527c0.5396957,0.5742092,0.6279068,0.9768744-0.0833054,1.5165873
		c-1.717453,1.3033161-3.394783,2.6610584-5.0562897,4.0355015c-0.5477753,0.4531364-0.8727188,0.4428539-1.3376007-0.1304188
		c-1.9395523-2.3917847-3.4067764-5.0153084-4.1501999-8.0189981C75.8739624,10.416997,76.2670898,9.2020445,77.9532471,7.9597087z"></path>
</g>
<g onclick="select(this)" class="" id="estampa-primaria" fill="#71aad4">
	<path d="M43.1515503,120.3646698c-0.1404991-2.3006744-0.1914711-4.6079102-0.6132278-6.885849
		c-0.0899544-0.485817-0.2391663-0.6317444-0.6915321-0.4280777c-2.4907532,1.1215134-5.2097473,1.1106415-7.8384094,1.4879227
		c-1.4780464,0.2121429-3.0204296-0.0509491-4.5338783-0.0523834c-4.2323608-0.0040283-8.4661789-0.0824814-12.6740704-0.5230713
		c-3.80264-0.3981781-7.5636272-1.0788956-11.1697559-2.440567c-1.449275-0.5472488-2.9991877-0.8545074-4.2283468-1.8888321
		c1.7889749-9.4180679,2.6642451-18.9717102,4.2234063-28.4253159C6.476234,76.0517044,6.7927861,70.8162842,7.9036627,65.691246
		c1.7424269-8.0386963,4.4395752-15.6649666,9.3638182-22.3660049c2.1397705-2.9118538,4.5772095-5.5549202,7.4105587-7.7961693
		c1.3626118-1.0778542,2.3616104-2.5712852,3.923933-3.3974419c3.6044178-1.9060097,7.2547016-3.723999,11.025713-5.2781143
		c9.9812241-4.1134815,19.9857483-8.1736889,29.442276-13.433075c1.9732819-1.0974712,4.0098419-2.0742865,5.5134583-3.8943434
		c0.8124695-0.9834595,1.9979477-1.5784073,3.3699265-1.5663853c-1.6862564,1.2423325-2.0793839,2.4572849-1.5202484,4.7163982
		c0.7434235,3.0036898,2.2106476,5.6272135,4.1501999,8.0189981c0.4648819,0.5732727,0.7898254,0.5835552,1.3376007,0.1304188
		c1.6615067-1.3744431,3.3388367-2.7321854,5.0562897-4.0355015c0.7112122-0.5397129,0.6230011-0.942378,0.0833054-1.5165873
		c-1.4572906-1.5505123-2.7332535-3.233243-3.5389481-5.2270527c-0.4795532-1.1867275-0.3964462-1.2704639,0.8895187-1.1417885
		c7.9482346,0.7953005,15.9056396,1.4685373,23.8829803,1.9115543c8.3257065,0.4623632,16.6000443-0.3633499,24.8863144-0.8980713
		c3.6595154-0.2361526,7.3143311-0.5451813,11.1264954-0.832839c-0.8695984,2.3225203-2.1356354,4.2478962-3.6953278,5.9588709
		c-0.7138519,0.7830782-0.5889587,1.1435823,0.2011108,1.7098112c1.7194672,1.2323208,3.3834686,2.5433502,5.045578,3.8533516
		c0.5212402,0.4108067,0.8400574,0.5315704,1.3224487-0.1134567c2.082489-2.7845783,3.7957916-5.7035885,4.0314026-9.2897568
		c0.0966339-1.4710026-0.5096283-2.4425774-1.8434601-3.0019283c1.8036041-0.1237278,2.9669189,0.9629507,4.043045,2.1744213
		c0.3423309,0.3853559,0.6636658,0.7412128,1.1135864,1.0353756c10.0124969,6.5462341,21.2043915,10.6002197,32.1449432,15.1727829
		c3.9642639,1.6568451,7.7808228,3.6279182,11.7509613,5.2658405c1.1914215,0.4915409,1.9353333,1.6271687,2.9535828,2.3855915
		c3.5110168,2.6150703,6.6709747,5.5916252,9.3223114,9.0906715c4.8722534,6.4300346,7.6369781,13.775341,9.3872375,21.560955
		c0.6486359,2.8853226,1.186264,5.7949905,1.4686127,8.7377701c0.5558472,5.7934952,2.2961578,11.3432922,3.4221191,17.0187912
		c1.0883484,5.4858246,1.7017517,11.0482101,2.7525024,16.5389175c0.0593872,0.3102341,0.0377197,0.6359482,0.053772,0.9545135
		c-3.2637939,1.303833-6.582428,2.4195786-10.0181885,3.2038116c-3.1164703,0.7113266-6.2818298,1.1122208-9.4234467,1.66082
		c-3.0315704,0.5293884-6.0936737,0.7425232-9.1736145,0.7394409c-4.2304077-0.0042343-8.4836426,0.2719727-12.655899-0.596138
		c-1.2034302-0.2503891-1.4215546,0.1192093-1.6173706,1.1066895c-0.3850555,1.9416962-0.2653351,3.8918304-0.2623901,5.8428955
		c-0.4411316,0.8073425-0.294342,1.7092896-0.3958435,2.5675964c-0.9905243,8.376976-1.7194824,16.772728-1.7455292,25.2169876
		c-0.0067902,2.2001038,0.0669098,4.3846893,0.523468,6.5547638c0.4015656,1.9087067-0.0415955,3.8243256-0.2045593,5.7283325
		c-0.181076,2.1157532-0.2705383,4.2298737-0.1432648,6.3460541c0.1518402,2.5245819-0.2316589,5.0275574-0.2313995,7.5436859
		c0.0002747,2.5966339-0.0800171,5.1951904,0.1816406,7.7869263c0.2424622,2.401474-0.2102966,4.7841187-0.2298737,7.1815948
		c-0.0185547,2.2703705,0.5234375,4.434845,1.0016937,6.6138458c1.5915985,7.2516785,1.3577728,14.5254669,0.321991,21.8117981
		c-0.3045654,2.1425323-0.3740692,4.2081604,0.3273163,6.3549805c1.772522,5.4253693,1.8140717,11.004364,0.9409332,16.6020203
		c-0.2309723,1.4807892-0.2497253,2.9243011,0.0909424,4.3914642c0.8872986,3.8212128,0.4440155,7.7200317,0.6459045,11.5819855
		c0.3085022,5.9015503,0.6915588,11.7999573,1.4322815,17.6716309c0.2583313,2.0477295,0.2249298,4.1363525,0.2557526,6.2073364
		c0.0257568,1.7311096-0.3525696,2.2270203-2.0640717,2.7422485c-3.0049744,0.9046326-6.1232452,1.1564636-9.2236786,1.4806824
		c-8.3243256,0.8704529-16.684082,0.875061-25.0398712,1.0386353c-11.5935974,0.2269592-23.1845932,0.774292-34.7774734,0.796814
		c-11.5119629,0.0223999-23.0147552-0.7998352-34.53302-0.8546448c-8.3570328-0.0397644-16.7156677-0.1080933-25.0555153-0.7388611
		c-4.2287102-0.3198242-8.4451218-0.7576904-12.5860748-1.7210693c-3.6356277-0.8458252-3.9869041-1.1677856-3.7778854-4.8088684
		c0.4413528-7.6882935,0.9998283-15.3699951,1.5411453-23.0522461c0.140564-1.9948425,0.2801247-3.9875031,0.2333336-5.9868927
		c-0.0440826-1.8836212,0.0298157-3.7575989,0.3702316-5.6125793c0.4073219-2.2195892,0.4394226-4.4304352,0.1149673-6.671875
		c-0.3644104-2.5174713-0.1079674-5.0299683,0.4367638-7.5027313c0.2282982-1.0363312,0.1923027-2.0486298,0.1161079-3.0909729
		c-0.3318748-4.5399933-1.0253105-9.059433-0.8239441-13.631073c0.1898727-4.3105927,1.2076683-8.4514313,2.6681671-12.4867859
		c0.3758659-1.0385284,0.6182938-2.0305634,0.4542694-3.1416168c-0.1813393-1.228302-0.1615372-2.4718628,0.0717125-3.7012024
		c0.3159981-1.6654663,0.1919746-3.3271332,0.1082954-5.010376c-0.1643028-3.3049622-0.1748161-6.6190948-0.1883888-9.9297028
		c-0.0528755-12.8978577-0.0415001-25.7961121-0.1398544-38.693573c-0.0396805-5.2032166-0.9885941-10.3359528-1.5531769-15.4973145
		C43.6142197,122.9056549,43.766777,121.5702896,43.1515503,120.3646698z"></path>
</g>
<g onclick="select(this)" class="" id="detalhe-punho" fill="#021c3b">
	<path d="M0.24,114.6542282c0.583228-1.0720215,0.3827578-2.3065491,0.7111229-3.43367
		c0.1536794-0.5275192,0.13833-1.1031189,0.4512064-1.5867462c1.2291592,1.0343246,2.7790718,1.3415833,4.2283468,1.8888321
		c3.6061287,1.3616714,7.367116,2.0423889,11.1697559,2.440567c4.2078915,0.4405899,8.4417095,0.519043,12.6740704,0.5230713
		c1.5134487,0.0014343,3.0558319,0.2645264,4.5338783,0.0523834c2.6286621-0.3772812,5.3476563-0.3664093,7.8384094-1.4879227
		c0.4523659-0.2036667,0.6015778-0.0577393,0.6915321,0.4280777c0.4217567,2.2779388,0.4727287,4.5851746,0.6132278,6.885849
		c-0.5703659,0.5544662-1.3241272,0.738678-2.0481415,0.9182892c-2.2502251,0.558197-4.5420418,0.9585571-6.8565636,1.0050888
		c-7.5839615,0.1524811-15.1675758,0.2204361-22.6745911-1.1818542c-3.0145712-0.5631256-6.0234237-1.1427994-8.9364958-2.1202469
		c-0.8156703-0.2736893-1.598085-0.6463776-2.3957574-0.9736481C0.24,116.8929443,0.24,115.7735825,0.24,114.6542282z"></path>
	<path d="M184.6303711,120.0952835c-0.0029449-1.9510651-0.1226654-3.9011993,0.2623901-5.8428955
		c0.195816-0.9874802,0.4139404-1.3570786,1.6173706-1.1066895c4.1722565,0.8681107,8.4254913,0.5919037,12.655899,0.596138
		c3.0799408,0.0030823,6.1420441-0.2100525,9.1736145-0.7394409c3.1416168-0.5485992,6.3069763-0.9494934,9.4234467-1.66082
		c3.4357605-0.7842331,6.7543945-1.8999786,10.0181885-3.2038116c0.9974213,2.4374161,1.2762146,4.9902496,1.1629181,7.5927658
		c-0.0325317,0.747139-0.7740631,0.8473129-1.2987061,1.0544434c-2.490799,0.9832916-5.0855103,1.6438446-7.6618347,2.3490143
		c-9.1388245,2.5013885-18.4691162,3.110321-27.8868713,2.635231c-2.0218353-0.102005-4.0606384-0.308609-6.0298462-0.8818054
		C185.5262299,120.7300262,184.9997559,120.5578766,184.6303711,120.0952835z"></path>
</g>
<g onclick="select(this)" class="" id="estampa-secundaria" fill="#021c3b">
	<path d="M43.316925,120.4275131c-0.1719704-3.5095444-0.6853294-6.9850922-1.1276131-10.4635925
		c-0.7550583-5.9383545-1.4463615-11.8944473-3.0803909-17.6823959c-0.6836128-2.4214401-1.5465012-4.7760849-2.5187263-7.0988388
		c-1.2730637-3.0415039-1.1876984-3.0949707,1.7950172-4.4927444c7.9775696-3.7384491,15.9382477-7.5130997,23.9947968-11.0804062
		C74.5906372,64.2028503,86.8603821,58.929966,99.6060028,54.89217c6.8368759-2.1659088,13.8290176-2.4258232,20.9495468-1.3242035
		c9.4470901,1.4615669,18.1026688,5.3333702,26.9940872,8.4733849c10.3364258,3.6503296,20.465271,7.8493729,30.512085,12.2332306
		c4.8594971,2.1203918,9.6564484,4.3836212,14.4946136,6.553421c0.5626831,0.2523499,0.7144012,0.5007248,0.4744415,1.0774612
		c-0.7800903,1.8749161-1.2962189,3.8397598-2.1981659,5.6847305c-1.8617096,3.8081894-2.5233765,7.9975433-3.4595032,12.0841904
		c-1.481308,6.466568-2.5205231,13.0071869-2.8459625,19.6457214c-0.0135498,0.2762604,0.0075226,0.5542221,0.0124359,0.8313599
		c-0.3253937,3.0885239-0.6477356,6.1774139-0.9797211,9.2652512c-0.0467834,0.4349823-0.1406708,0.8649139-0.2127533,1.2971649
		c-2.5793457-0.1872711-5.1411133,0.199585-7.7306976,0.1624603c-12.5855865-0.1804962-25.1745911-0.1083221-37.7620087-0.1855621
		c-6.5479279-0.0401917-13.095047-0.0068359-19.6448517-0.1200714c-11.6650009-0.2016602-23.3357697-0.1054993-35.0039825-0.0774231
		c-12.8581161,0.0309448-25.7180405-0.1938019-38.5738869,0.2286072
		C44.1934242,127.2904358,43.7551765,123.8589706,43.316925,120.4275131z"></path>
	<path d="M182.5967407,143.4724274c0.1101685,2.6290283-0.434967,5.3022308,0.065033,7.8773804
		c0.7455597,3.8400116,0.1946564,7.6142273,0.0025635,11.4220276c-0.1061554,2.1044159-0.0230408,4.2183685-0.0252533,6.3280182
		c-45.6791687,0.2720337-91.3582993,0.2774811-137.0374451-0.0007782c-0.3374405-2.0182495-0.3347549-4.0618591-0.3340759-6.092865
		c0.0021744-6.5104675,0.0839615-13.020874,0.1349907-19.53125c1.6770058-0.0353699,3.3540535-0.1015015,5.031105-0.1017303
		c42.2173462-0.005722,84.4347-0.0057831,126.6520309-0.0000916
		C178.9227142,143.3733826,180.7597198,143.437851,182.5967407,143.4724274z"></path>
	<path d="M182.6146393,183.2797546c-0.0255127,2.9896393-0.5478973,5.9988251,0.0601654,8.9631348
		c0.5452728,2.6581879,1.1613007,5.3001404,1.4755402,7.9986267c0.1384888,1.1891785,0.2224731,2.3847046,0.3312378,3.5772858
		c-0.4784241,0.0213776-0.9568634,0.0615387-1.4353333,0.0615082c-7.4772949-0.0005188-14.9546051-0.010376-22.4319-0.0100861
		c-38.9061279,0.0014954-77.8122635,0.0052643-116.718399,0.0082092c-0.0325432-1.3789673,0.605999-2.5715332,1.0959625-3.7957153
		c0.377224-0.9425049,0.5813293-1.8616486,0.4421463-2.8919983c-0.1920509-1.4217377-0.1565132-2.8553772,0.1144371-4.2758179
		c0.2554092-1.3389893,0.3071899-2.6903229,0.0798378-4.0350189c-0.3156815-1.867157,0.0157928-3.7267609,0.0078812-5.5895844
		c1.9187012-0.0165863,3.8374214-0.0475159,5.7561378-0.0476532c41.6619415-0.0027161,83.3238831-0.0025787,124.9858246-0.0003204
		C178.4570007,183.2424469,180.5358124,183.2667236,182.6146393,183.2797546z"></path>
	<path d="M42.5231133,217.8283844c3.3980713,0.0039368,6.7961464,0.0112457,10.1942177,0.0113068
		c40.6260757,0.0007935,81.2521515,0.000946,121.8782349-0.0003815c2.998291-0.0000916,5.9965973-0.0129242,8.9949188-0.0197449
		c-0.5711823,2.7654419,0.3751068,5.329071,1.0110474,7.9454803c0.3571472,1.4693909,0.5305939,2.983429,0.7867432,4.4771881
		c-0.0927124,0.1168213-0.0791626,0.2222595,0.0343323,0.3168488c0.0054779,0.2025299,0.0109558,0.4050446,0.0163879,0.607605
		c-2.8778534,0.0287933-5.7557068,0.0821991-8.6335297,0.0825653c-42.0292969,0.0054169-84.0586014,0.005249-126.0879059,0.0001831
		c-2.6380196-0.0003204-5.2760315-0.0519867-7.9139862-0.0796509c1.0243607-3.9518127-0.0226288-7.870697-0.1897507-11.8035126
		C42.5920296,218.8532867,42.5537567,218.3410034,42.5231133,217.8283844z"></path>
	<path d="M42.26474,245.4008179c3.7968292,0.0017853,7.5936584,0.0050659,11.3904877,0.0050964
		c40.2501984,0.0003815,80.5003815,0.0016632,120.7505798-0.0021362c3.5568085-0.0003357,7.1136017-0.0345459,10.6705933-0.0529327
		c0.7659454,2.6678009,0.7137756,5.3969116,0.6109161,8.1298828c-3.4335938,0.0566559-6.8674469-0.0644989-10.2978973-0.0691223
		c-41.6587982-0.0562439-83.3177338-0.0519409-124.9765472-0.0019684c-2.790184,0.0033417-5.585598,0.1173553-8.3798981,0.0922394
		C42.2015724,250.8041229,41.8571129,248.0917358,42.26474,245.4008179z"></path>
	<path d="M41.2364426,267.4020996c3.3554726,0.0415955,6.7109413,0.1187744,10.0664215,0.1194153
		c41.4966354,0.0083008,82.9932632,0.007019,124.4899063,0.0026245c3.5564575-0.0003967,7.112915-0.0405273,10.669342-0.0622253
		c0.0789948,1.1065369,0.1580048,2.2130737,0.2370148,3.3196411c-0.479599,0.0076904-0.9591827,0.0221252-1.438797,0.0221252
		c-47.6570587,0.0010071-95.3141327,0.0010376-142.9711914-0.0002747c-0.4794426,0-0.9588814-0.0187073-1.4382095-0.0285339
		C40.9084358,269.6425781,40.7627296,268.486969,41.2364426,267.4020996z"></path>
</g>
</svg>
