<!--?xml version="1.0" encoding="utf-8"?-->
<!-- Generator: Adobe Illustrator 24.2.3, SVG Export Plug-In . SVG Version: 6.00 Build 0)  -->
<svg version="1.1" id="Camada_1" xmlns="http://www.w3.org/2000/svg" xmlns:xlink="http://www.w3.org/1999/xlink" x="0px" y="0px" viewBox="0 0 229 418" enable-background="new 0 0 229 418" xml:space="preserve">
<g onclick="select(this)" class="" id="estampa-primaria" fill="#ffffff">
	<path d="M43.3361168,120.4746552c-0.2101822-1.7968292-0.4633865-3.5899506-0.6187172-5.3915024
		c-0.1625862-1.8856277-0.2511826-2.0255585-2.0599174-1.648941c-6.8736954,1.431221-13.7845001,1.1175003-20.7246532,0.6410217
		c-4.1520681-0.2850647-8.2633028-0.7054749-12.2979603-1.7260742c-2.161747-0.5468216-4.3023148-1.1773834-6.452384-1.770607
		c0.9832051-4.6944427,1.710304-9.4310074,2.2652452-14.1916885c0.8147309-6.9893265,2.161412-13.9026031,2.9144485-20.9012604
		C7.00946,69.4698257,8.1461086,63.5459442,10.02213,57.7793922c2.9524479-9.0752945,8.0192003-16.63377,15.2955141-22.9292145
		c4.641325-4.0156631,10.1261501-6.1122017,15.5386753-8.4372444c9.5230942-4.090807,19.1496506-7.9399338,28.2282448-12.9891987
		c1.9752045-1.0985622,3.998909-2.0944109,5.5171432-3.9018002c0.8427429-1.0032473,2.0552597-1.6525912,3.4933624-1.5504246
		c-1.6690369,0.911767-1.9942245,2.37745-1.6832047,4.0992002c0.0709457,0.3928022,0.174202,0.7797356,0.2612457,1.1696711
		c0.8237534,3.6903038,2.9550095,6.6721439,5.5161438,9.2610703c5.7755432,5.8382244,12.4840088,10.2771969,20.4383316,12.6342793
		c2.1298523,0.6311302,4.2955933,1.1106682,6.6459579,1.064991c-0.5338974-1.2844391-1.4534302-2.1956291-2.3009262-3.0927887
		c-3.1059952-3.2880211-6.5108948-6.2602386-10.0273743-9.1035366c-3.6951294-2.9877663-7.5911026-5.7475491-10.6006622-9.5057726
		c-1.1553192-1.4426966-2.2062607-2.9282017-2.9025269-4.6584578c-0.3602753-0.8952703-0.0476456-1.0153322,0.7604065-0.9296112
		c8.6987839,0.922802,17.4164963,1.6134081,26.1527786,2.0596113c4.8011017,0.2452154,9.5862045-0.1699533,14.3717422-0.4393368
		c4.1464462-0.233408,8.2862778-0.5848207,12.4287338-0.8880043c2.3001556-0.1683464,4.5997314-0.3447294,6.9456177-0.5209475
		c-0.1444855,0.8089581-0.4932556,1.4364643-0.8457642,2.0579758c-2.4790802,4.3710222-6.1096344,7.6467533-10.0511169,10.6473789
		c-4.6786194,3.5618324-9.2728195,7.2288265-13.2001648,11.6443291c-0.7319489,0.822937-1.4752579,1.6511688-1.9698868,2.8885307
		c1.1166229-0.2099304,2.0835495-0.063839,3.0767593-0.2575684c3.6875992-0.7192917,7.1508179-2.0464096,10.489624-3.7210732
		c5.1791077-2.5976906,9.9228821-5.8279591,13.9182587-10.0487232c2.569397-2.7143421,4.4947815-5.8517628,5.4047394-9.5299778
		c0.6181793-2.4987421-0.2522278-4.1453342-1.7312012-4.5330067c1.943222-0.3242459,3.1177673,0.9020796,4.2467346,2.1567545
		c0.3477783,0.3865013,0.6880035,0.7267332,1.1286316,1.019886c8.8592834,5.8942385,18.7728577,9.6096907,28.4977417,13.6844301
		c5.0627441,2.1213017,10.0329742,4.4418583,15.0825806,6.5857468c0.2867889,0.1217613,0.5728149,0.2649422,0.8249359,0.4459
		c11.2115326,8.0465317,18.1936951,18.8202171,21.0527649,32.3346024
		c1.0608826,5.0147476,1.2833252,10.1653595,2.4897308,15.1304626c2.1820068,8.9800873,3.6789246,18.0787277,5.1480865,27.1876221
		c0.0887604,0.5503616,0.1269836,1.1088715,0.1885681,1.6634598c-0.3645477-0.0474243-0.7153015-0.0071335-1.0527039,0.147644
		c-5.3200073,2.4405899-10.9899139,3.46521-16.7322083,4.322876c-4.8674622,0.7269821-9.7268219,1.3356934-14.646347,1.004715
		c-3.0179901-0.2030563-6.0691071,0.0220795-9.0557098-0.6596832c-0.3630829-0.0828705-1.0329285-0.319397-1.0531616,0.3600006
		c-0.0652313,2.1891479-1.0532837,4.280571-0.6636505,6.5102005c-0.5996704,2.0014877-0.5344086,4.090416-0.7905884,6.1364059
		c-0.8949738,7.1481323-1.2949219,14.3305511-1.3635254,21.5325623c-0.0213623,2.2410431,0.0507813,4.4670715,0.514328,6.6791992
		c0.4084167,1.9490814-0.1002045,3.9014282-0.1983795,5.8523102c-0.0421906,0.8381042-0.1978302,1.6774902-0.1664124,2.5111694
		c0.2422791,6.433075-0.6019745,12.8642731-0.0210724,19.296936c0.2062683,2.2839813-0.212616,4.5477905-0.2432709,6.826355
		c-0.0310822,2.3100128,0.5135193,4.517807,1.0009308,6.7380829c1.592453,7.2540588,1.3647461,14.5321045,0.3311005,21.8229065
		c-0.3036346,2.1416016-0.3860931,4.2071228,0.3188629,6.357605c1.79216,5.467041,1.8125,11.0900421,0.9352264,16.7301788
		c-0.2179413,1.4012146-0.2448883,2.7664795,0.0792084,4.1568146c0.9001465,3.8616333,0.4709167,7.8023071,0.6703339,11.7068024
		c0.3015289,5.9052429,0.6929626,11.8065796,1.4281311,17.6820374c0.2564545,2.0493469,0.2247467,4.1387939,0.2575684,6.210968
		c0.0276184,1.7446289-0.3406372,2.2341309-2.0523682,2.75177c-3.0040741,0.9084167-6.1225128,1.1583557-9.2227325,1.4839783
		c-8.3638763,0.8783264-16.7637329,0.8764343-25.1590729,1.0420837c-11.6733246,0.2302551-23.3444214,0.781311-35.0168152,0.7914429
		c-11.3913727,0.0098877-22.7747269-0.7897339-34.1726074-0.850708c-8.396843-0.0448914-16.7953873-0.10849-25.1746025-0.7459106
		c-4.2282104-0.3216248-8.4446487-0.7641296-12.5834808-1.7372437c-3.5226593-0.8282166-3.8817024-1.1704102-3.6740036-4.7752075
		c0.4454918-7.7318726,1.0047455-15.4573975,1.5502663-23.1832123c0.1466026-2.0762482,0.2673111-4.150238,0.2184067-6.2306976
		c-0.0405502-1.724762,0.0539246-3.4385986,0.3564949-5.1369019c0.4024506-2.2589264,0.4742508-4.5084381,0.1367073-6.79422
		c-0.3715973-2.5163879-0.1149597-5.0323486,0.4303474-7.5068817c0.2282982-1.0359955,0.1989555-2.0488281,0.1221313-3.0924072
		c-0.3344193-4.5423431-1.0253601-9.0643921-0.8279915-13.6383972c0.1861229-4.313385,1.2090988-8.4557495,2.6622276-12.495163
		c0.3737335-1.0388947,0.6244507-2.0293732,0.4623566-3.1422424c-0.1849098-1.2694855-0.1565132-2.5534668,0.0842667-3.8226471
		c0.3010979-1.5870667,0.1834869-3.1711273,0.1076965-4.7750397c-0.1581841-3.3474274-0.1870003-6.7026215-0.2009506-10.0549164
		c-0.0537033-12.9053192-0.0422363-25.8110504-0.1364212-38.7160339
		c-0.0374107-5.1263123-0.9949379-10.1804962-1.5068665-15.2701874
		C43.6686363,123.1601257,43.4931717,121.8183136,43.3361168,120.4746552z"></path>
</g>
<g onclick="select(this)" class="" id="gola-primaria" fill="#021c3b">
	<path d="M149.1925812,8.269743c1.4789734,0.3876724,2.3493805,2.0342646,1.7312012,4.5330067
		c-0.9099579,3.678215-2.8353424,6.8156357-5.4047394,9.5299778c-3.9953766,4.2207642-8.739151,7.4510326-13.9182587,10.0487232
		c-3.3388062,1.6746635-6.8020248,3.0017815-10.489624,3.7210732c-0.9932098,0.1937294-1.9601364,0.0476379-3.0767593,0.2575684
		c0.4946289-1.2373619,1.2379379-2.0655937,1.9698868-2.8885307c3.9273453-4.4155025,8.5215454-8.0824966,13.2001648-11.6443291
		c3.9414825-3.0006256,7.5720367-6.2763567,10.0511169-10.6473789c0.3525085-0.6215115,0.7012787-1.2490177,0.8457642-2.0579758
		c-2.3458862,0.176218-4.645462,0.3526011-6.9456177,0.5209475c-4.1424561,0.3031836-8.2822876,0.6545963-12.4287338,0.8880043
		c-4.7855377,0.2693834-9.5706406,0.6845522-14.3717422,0.4393368c-8.7362823-0.4462032-17.4539948-1.1368093-26.1527786-2.0596113
		c-0.8080521-0.085721-1.1206818,0.0343409-0.7604065,0.9296112c0.6962662,1.7302561,1.7472076,3.2157612,2.9025269,4.6584578
		c3.0095596,3.7582235,6.9055328,6.5180063,10.6006622,9.5057726c3.5164795,2.843298,6.9213791,5.8155155,10.0273743,9.1035366
		c0.847496,0.8971596,1.7670288,1.8083496,2.3009262,3.0927887c-2.3503647,0.0456772-4.5161057-0.4338608-6.6459579-1.064991
		c-7.9543228-2.3570824-14.6627884-6.7960548-20.4383316-12.6342793c-2.5611343-2.5889263-4.6923904-5.5707664-5.5161438-9.2610703
		c-0.0870438-0.3899355-0.1903-0.7768688-0.2612457-1.1696711c-0.3110199-1.7217503,0.0141678-3.1874332,1.6832047-4.0992002
		c0.5586929-0.0352974,0.9663391-0.364903,1.3431702-0.7227721c0.8981323-0.852942,1.9341431-1.6141291,2.6379166-2.6081667
		c2.0089035-2.8373833,4.9349976-3.6040525,8.1188278-3.926898c2.0712814-0.2100314,4.1403732-0.0636327,6.2131424-0.0417281
		c5.4365463,0.0574517,10.8757477,0.1029832,16.3108749-0.0022722c7.9102554-0.153188,15.8177567,0.0332518,23.726326,0.0516684
		c1.225769,0.0028543,2.4586029,0.2772096,3.6743011,0.5012605c1.6950073,0.3123879,3.1126556,1.0528792,4.2329712,2.4699326
		C145.7337341,5.4394965,147.1852722,7.1622701,149.1925812,8.269743z"></path>
</g>
<g onclick="select(this)" class="" id="detalhe-punho" fill="#021c3b">
	<path d="M0.24,114.4800034c0.5919054-1.2335434,0.4179677-2.652092,0.9424851-3.9014511
		c2.150069,0.5932236,4.290637,1.2237854,6.452384,1.770607c4.034657,1.0205994,8.1458912,1.4410095,12.2979603,1.7260742
		c6.9401531,0.4764786,13.8509579,0.7901993,20.7246532-0.6410217c1.8087349-0.3766174,1.8973312-0.2366867,2.0599174,1.648941
		c0.1553307,1.8015518,0.408535,3.5946732,0.6187172,5.3915024c-2.8209724,1.4041672-5.8979797,1.7682724-8.9545937,1.8574982
		c-7.625452,0.2226334-15.254734,0.254715-22.807106-1.1541138c-3.0943499-0.5772247-6.1756763-1.1966705-9.1687393-2.1837921
		c-0.7417217-0.2446213-1.4448218-0.6063461-2.1656778-0.9142456C0.24,116.8800049,0.24,115.6800079,0.24,114.4800034z"></path>
	<path d="M184.6485748,120.16436c-0.3896332-2.2296295,0.5984192-4.3210526,0.6636505-6.5102005
		c0.0202332-0.6793976,0.6900787-0.4428711,1.0531616-0.3600006c2.9866028,0.6817627,6.0377197,0.4566269,9.0557098,0.6596832
		c4.9195251,0.3309784,9.7788849-0.2777328,14.646347-1.004715c5.7422943-0.857666,11.4122009-1.8822861,16.7322083-4.322876
		c0.3374023-0.1547775,0.6881561-0.1950684,1.0527191-0.147644c1.1144409,2.3423615,1.1694183,4.8498764,1.0798492,7.3615494
		c-0.0251923,0.7068329-0.7940216,0.8254929-1.3274384,1.0259857c-2.9121094,1.0944824-5.9199219,1.8739319-8.9258881,2.6579895
		c-8.7292328,2.2769089-17.6231537,2.7331924-26.5809174,2.3143158c-2.0183258-0.094368-4.055481-0.3039093-6.0210266-0.8830338
		C185.5387878,120.7968369,185.0050049,120.6445847,184.6485748,120.16436z"></path>
</g>
<g onclick="select(this)">
	<image overflow="visible" width="844" height="408" xlink:href="5325D3B7.jpg" transform="matrix(1 0 0 1 -7894 -7770.1103516)">
	</image>
</g>
<g onclick="select(this)" class="" id="estampa-secundaria" fill="#f6d101">
	<path d="M161.8733215,134.8813477c1.8543854,1.6996765,3.6966705,3.4128571,5.5713348,5.089859
		c0.4886475,0.4371033,0.5886536,0.6762238,0.0137024,1.1652679c-1.6425171,1.3971405-3.2026978,2.8906555-4.8292236,4.307251
		c-0.5503693,0.4793243-0.7319489,0.7768402-0.0818481,1.3720551c1.6791992,1.5374756,3.3012238,3.1394043,4.903244,4.7580109
		c0.5622711,0.5681,0.9402313,0.4937286,1.4712067-0.0255585c1.6566772-1.6202393,3.3325653-3.2223358,5.045517-4.782608
		c0.5306396-0.4833069,0.3495941-0.712677-0.0773315-1.0890045c-1.6481781-1.4528351-3.2279968-2.9864349-4.9204102-4.3844757
		c-0.797699-0.6589661-0.5494537-0.9724579,0.0644226-1.5137634c1.9154663-1.6890564,3.7860718-3.4289551,5.674057-5.1491547
		c0.4547729-0.3759613,0.9172668-0.7429962,1.3630676-1.129303c2.604599-2.2570496,5.0404663-4.7048035,7.743866-6.8502579
		c-0.2729187,2.975914-0.6149902,5.9474411-0.8041229,8.9286728c-0.3765259,5.9356537-0.7967377,11.8862457-0.1118774,17.8168488
		c0.2508087,2.1718292,0.2530212,4.2911835-0.02211,6.4297485c-0.4607239,3.5814667-0.0052338,7.1788635-0.2303467,10.7627563
		c-0.0749512,1.1933136-0.1759033,2.3849945-0.264801,3.5775299c-0.745636,0.6504211-1.489502,1.3029175-2.2375793,1.9505615
		c-1.9406738,1.6800995-3.7247162,3.5377808-5.7747803,5.0938721c-1.8079071-1.7517548-3.5986023-3.5218811-5.4342957-5.2440033
		c-0.5457001-0.5119171-0.6548767-0.8029785-0.0224152-1.3690491c1.7274628-1.5460815,3.3654633-3.1916809,5.0691528-4.7650757
		c0.4313202-0.3983307,0.4374084-0.6073761-0.0114899-0.9991302c-1.6868439-1.4721222-3.3565979-2.9655304-4.9886932-4.4978638
		c-0.621048-0.5830994-1.076416-0.5794678-1.6901398,0.0002136c-1.5404663,1.4550018-3.0983582,2.8950195-4.7119446,4.2673492
		c-0.5893707,0.5012817-0.5971527,0.7598419-0.0477295,1.2778625c1.5711975,1.4813385,3.0238037,3.094635,4.6538391,4.5049133
		c0.8935547,0.7731018,0.6411133,1.1416931-0.0476685,1.7973938c-1.7076721,1.6256256-3.3462219,3.3238831-5.0125427,4.9929504
		c-0.5354919,0.075119-0.7611847-0.3836212-1.0674133-0.659256c-3.6472931-3.2829132-7.2752228-6.5872803-10.9189453-9.8741302
		c-4.293808-3.8732147-8.5981293-7.734787-12.8978729-11.6014252c-0.4393768-0.2940216-0.9334869-0.151413-1.3999786-0.151535
		c-28.1281509-0.0075684-56.2563095-0.0121307-84.3844376,0.0157776c-0.9705429,0.0009613-1.6206512-0.2627716-2.2455788-1.0024109
		c-1.2350807-1.4618378-2.575161-2.8349762-3.8718376-4.2447662c0.0104561-1.2028046,0.020916-2.4056244,0.0314217-3.6085968
		c2.8234215-0.3272705,5.6467896-0.6544037,8.7077332-1.0090637c-3.0401764-2.6660156-5.8793449-5.1557465-8.7185211-7.6454926
		c-0.0001526-0.299408-0.0003128-0.5987854-0.0003052-0.8986511c3.5899582-0.227005,7.1797485-0.453537,10.2917862-0.6499329
		c-2.5158081-2.7071991-5.151123-5.543808-7.7877655-8.3791809c-0.3010178-0.3237-0.6742554-0.3637543-1.0988884-0.3186646
		c-0.7134972,0.0757599-1.4321976,0.1026001-2.1487083,0.1500397c-0.1420631-0.9100037-0.2841263-1.8200073-0.426281-2.7310944
		c1.0932541,0.2682343,1.7774124,1.1726532,2.6825752,1.7349701c0.3698235,0.2297211,0.6698875,0.5485687,1.1745491,0.4862671
		c3.6243401-0.4474945,7.2504959-0.8802032,11.0948448-1.3439941c-3.0861168-2.7305603-6.0261154-5.3318329-8.9661064-7.9330902
		c0.0158882-0.0964966,0.0317802-0.1929932,0.0476685-0.2894897c4.2064209,0,8.4128342,0,12.6188965-0.0001526
		c0.4998055,0.2029724,1.0251579,0.1301651,1.5411682,0.1302109c27.0585632,0.0026398,54.1171265,0.0053635,81.1756668-0.0127945
		c0.8126221-0.0005417,1.4263611,0.2032623,2.0320892,0.7592392c3.0911255,2.8372421,6.2125092,5.6416855,9.3373413,8.4419327
		C158.5618896,132.0036774,160.2241211,133.4352417,161.8733215,134.8813477z M174.4312897,158.0666504
		c-0.1351929-0.145752-0.2364502-0.2674103-0.3503265-0.3757935c-1.7616425-1.6768494-3.5343781-3.3421783-5.281723-5.033783
		c-0.4817505-0.4663849-0.8383636-0.4165497-1.2935638,0.0353546c-1.6693115,1.6572876-3.3501587,3.3036804-5.058548,4.9204712
		c-0.4650726,0.4401398-0.4615021,0.6921692,0.023056,1.1149902c1.6516113,1.4411774,3.2733307,2.9171906,4.8857727,4.4023285
		c0.5267029,0.4851227,0.9573669,0.554657,1.5206604,0.0321655c1.6657715-1.5450592,3.3684692-3.0502777,5.0535126-4.5746155
		C174.1040802,158.4304199,174.2566528,158.2493896,174.4312897,158.0666504z"></path>
	<path d="M43.237854,120.5011597c-0.1532707-1.7735519-0.3065414-3.5471039-0.485775-5.621048
		c2.4317245,2.1827698,4.6695366,4.1914902,7.1310883,6.4010315c-2.3116035,0.2084503-4.3519592,0.3924484-6.3922462,0.5762863
		C43.4066124,121.4052429,43.3222313,120.9532013,43.237854,120.5011597z"></path>
</g>
<path d="M182.4307098,186.2645874c0.0508575-0.0930634,0.1016998-0.1861267,0.1523895-0.2788239
	C182.5321808,186.0789642,182.4814453,186.1717834,182.4307098,186.2645874z"></path>
<g onclick="select(this)" class="" id="estampa-terciaria" fill="#021c3b">
	<path d="M137.2411499,159.0404053c4.2997437,3.8666382,8.6040649,7.7282104,12.8978729,11.6014252
		c3.6437225,3.28685,7.2716522,6.591217,10.9189453,9.8741302c0.3062286,0.2756348,0.5319214,0.734375,1.0676575,0.6593933
		c1.8839569,1.724762,3.7723236,3.4443359,5.6469574,5.1787567c0.3356476,0.3105164,0.5818634,0.4395905,0.9841919,0.0601807
		c1.8562317-1.750351,3.7391815-3.4724121,5.6125488-5.2046204c2.0500488-1.5561066,3.8340912-3.4137878,5.774765-5.0938873
		c0.7480774-0.647644,1.4919434-1.3001404,2.2375793-1.9505615c-0.0363312,3.9419861,0.4368286,7.875412,0.2014313,11.8205414
		c-0.0506897,0.0926971-0.101532,0.1857605-0.1523895,0.2788239c0.0000153,0.0000153-0.0018768,0.0041962-0.0018158,0.0041046
		c-2.2341919,1.9929504-4.4892426,3.9634857-6.6886444,5.9942932c-0.5747528,0.5307312-0.8907166,0.6404724-1.5152893,0.0350037
		c-1.721405-1.6687469-3.557785-3.2185364-5.2905273-4.8761902c-0.5476074-0.5238647-0.8286285-0.4599457-1.3367462,0.0274048
		c-1.673111,1.6048279-3.4350281,3.1177521-5.0918579,4.7385559c-0.6585236,0.6442108-1.0399933,0.6412354-1.7253418,0.0161438
		c-8.4480591-7.7050629-16.934494-15.368042-25.3843994-23.0710754c-0.7054138-0.6430817-1.4015045-0.8835754-2.3447418-0.882782
		c-27.432785,0.0230255-54.865593,0.0136414-82.2983551,0.0392303c-0.9636917,0.000885-1.6246605-0.2290955-2.2360153-1.007019
		c-0.9836311-1.2516327-2.1049881-2.3950348-3.1681595-3.5841675c-0.2093773-1.5406494-0.2021713-3.0817261-0.0090828-4.6231689
		c30.1144409-0.0004883,60.2288818-0.0007629,90.3433151-0.0027771
		C136.2024078,159.072113,136.7217865,159.0514526,137.2411499,159.0404053z"></path>
	<path d="M183.8149261,126.6496658c-2.7033997,2.1454544-5.139267,4.5932083-7.743866,6.8502579
		c-0.4458008,0.3863068-0.9082947,0.7533417-1.3630676,1.129303c-1.8441162-1.7623291-3.6817322-3.5315247-5.5374451-5.2815094
		c-0.401413-0.3785553-0.6125336-0.6243896-0.067627-1.1120605c5.1387634-4.5990143,10.2526703-9.2258301,15.3769073-13.8411484
		c0.107132-0.0965118,0.2516479-0.1515198,0.4723358-0.2806931c-0.1524811,2.1684952-0.2966919,4.2195969-0.4405975,6.2703476
		c-0.1660004,1.6535263-0.3277893,3.3078766-0.5016174,4.960968
		C183.9639893,125.7819748,183.8809509,126.2149277,183.8149261,126.6496658z"></path>
	<path d="M161.8733063,134.8813324c-1.6491852-1.4460907-3.3114166-2.877655-4.9448242-4.3414001
		c-3.1248322-2.8002472-6.2462158-5.6046906-9.3373413-8.4419327c-0.6057281-0.5559769-1.2194672-0.7597809-2.0320892-0.7592392
		c-27.0585403,0.018158-54.1171036,0.0154343-81.1756668,0.0127945c-0.5160103-0.0000458-1.0413628,0.0727615-1.5411682-0.1302109
		c-2.4384003-2.7343674-4.8771629-5.4688873-7.3320656-8.2215042c0.3539619-0.3202438,0.7254982-0.1678162,1.0540428-0.1679077
		c30.9013824-0.0088882,61.8027649-0.0058746,92.7041321-0.0222931c0.7689972-0.000412,1.340744,0.2024841,1.9161072,0.7252884
		c5.4720306,4.9721298,10.9693451,9.9164581,16.4628143,14.8649597c0.1177368,0.1060486,0.2764282,0.1666718,0.4455719,0.2658234
		C165.9398041,130.8173828,163.9065552,132.84935,161.8733063,134.8813324z"></path>
	<path d="M40.8581963,100.3328552c4.5771332,4.0902176,8.9872665,8.0312042,13.6933861,12.2366867
		c-1.8269272,0-3.2813568-0.0084076-4.7356529,0.0019608c-2.1564522,0.0153809-4.313282,0.0249557-6.468914,0.078743
		c-0.6494751,0.0162125-0.9111366-0.1972504-0.9929428-0.8540115
		C41.8904495,108.0743561,41.3878021,104.3573303,40.8581963,100.3328552z"></path>
</g>
</svg>
