<!--?xml version="1.0" encoding="utf-8"?-->
<!-- Generator: Adobe Illustrator 24.2.3, SVG Export Plug-In . SVG Version: 6.00 Build 0)  -->
<svg version="1.1" id="Camada_1" xmlns="http://www.w3.org/2000/svg" xmlns:xlink="http://www.w3.org/1999/xlink" x="0px" y="0px" viewBox="0 0 234 419" style="enable-background:new 0 0 234 419;" xml:space="preserve">
<style type="text/css">
	.st0{fill:#13F9F6;}
	.st1{fill:#0CA4A4;}
	.st2{fill:#07115C;}
	.st3{fill:#008F45;}
</style>
<g onclick="select(this)" class="" id="c-gola-primaria" fill="#009045">
	<path d="M81.9,8c1.7-1.4,3.4-2.8,4.7-4.6C88,1.5,90,0.8,92.2,0.7c0.6,0,1.4,0.3,1.8-0.5c15.9,0,31.8,0,47.8,0
		c1,0.5,2.1,0.5,3.1,0.7c1.6,0.4,3,1.1,4,2.4c1.3,1.7,3,3,4.5,4.4c-0.7,0.1-1.5,0.2-2.2,0.3c-3.2,0.4-6.4,0.9-9.6,1.4
		c-4.3,0.6-8.7,0.8-13,1.1c-5.1,0.3-10.3,0.8-15.4,0.5c-7.1-0.5-14.3-0.7-21.4-1.8C88.5,8.6,85.2,8.2,81.9,8z"></path>
</g>
<g onclick="select(this)" class="" id="c-detalhe-punho" fill="#005425">
	<path d="M0.2,116.1c0.4-2,0.8-4,1.2-6c0.1-0.3,0-0.6,0.3-0.7c0.4,0.2,0.9,0.4,1.3,0.5c5.7,1.1,11.4,2,17.2,3
		c5.9,1,11.9,1.4,17.8,1.4c2.4,0,4.8-0.1,6.9-1.4c0.7-0.5,1.1-0.1,1.1,0.7c0,0.4-0.3,1,0.4,1.2c0,1.2,0,2.4,0,3.6
		c-0.1,0.6-0.3,1.2-0.2,1.8c0.1,1.2-0.6,1.4-1.5,1.5c-5.6,0.6-11.1,1.1-16.7,0.5c-9.1-1-18.2-2.3-27.2-4.3c-0.2-0.1-0.4-0.2-0.7-0.2
		C0.2,117.1,0.2,116.6,0.2,116.1z"></path>
	<path d="M188.7,112.5c1.1,0.1,1.8,0.9,2.6,1.5c1,0.7,2.1,1.3,3.3,1.3c3.7,0.1,7.4,0.3,11.1,0.2c2.9-0.1,5.8-0.7,8.8-1
		c3.2-0.4,6.4-0.7,9.6-1.1c2.7-0.3,5.4-1,8.1-1.7c0.7,0.1,0.5,0.8,0.6,1.2c0.3,1.9,0.4,3.9,0.6,5.8c0.1,1-0.4,1.3-1.2,1.4
		c-3.7,0.9-7.5,1.6-11.3,2.1c-7.1,1-14.3,1.7-21.5,1.5c-2.9-0.1-5.8-0.4-8.4-2c-0.3-0.2-0.7-0.3-1.1-0.3c-0.8-0.1-1.3-0.4-1.7-1.1
		C188,117.7,188.7,115.2,188.7,112.5z"></path>
</g>
<g onclick="select(this)" class="" id="c-estampa-primaria" fill="#009045">
	<path d="M46.6,118.2c0-1.2,0-2.4,0-3.6c0.5-3.6-0.9-6.9-1.2-10.4c-0.2-2.2,0.1-4.5-1-6.6c0.2-4.2-1-8.3-1.4-12.4
		c-0.4-3.7-1.6-7-3.8-9.9c-0.5-0.7-0.9-1.5-1.3-2.3c-1.7-3.2-2.4-6.7-3.5-10C32.3,56.6,31,50,31,43.2c0-1.1,0.2-2.2,0.3-3.3
		c0.1-1.9,0-3.9,0.4-5.8c0.1-0.5,0.1-1.1-0.2-1.6c4.2-2,8.4-4,12.7-5.8c7.1-2.8,14.1-5.9,21.1-9c3.9-1.8,7.6-4.1,11.2-6.4
		c0.5-0.3,0.8-0.7,1.1-1.1c1.1-1.2,2.4-2.2,4.2-2.2c3.3,0.2,6.6,0.7,9.9,1.2c7.1,1.1,14.2,1.3,21.4,1.8c5.2,0.4,10.3-0.2,15.4-0.5
		c4.3-0.3,8.7-0.5,13-1.1c3.2-0.4,6.4-0.9,9.6-1.4c0.7-0.1,1.5-0.2,2.2-0.3c2,0,3.5,1.1,4.8,2.5c1,1.2,2.4,1.8,3.7,2.6
		c8.6,4.8,17.6,8.9,26.8,12.5c4.9,1.9,9.7,4.4,14.5,6.5c0.2,0.1,0.4,0.3,0.6,0.4c-0.4,0.5-0.5,1.2-0.3,1.7c0.5,1.1,0.1,2.3,0.2,3.4
		c0.1,2.9,0.6,5.8,0.3,8.8c-0.3,2.4-0.3,4.9-0.8,7.3c-1.3,6.2-3.2,12.3-5.3,18.3c-0.7,2.1-1.8,4.1-3.4,5.5c-1,0.9-1.8,1.8-2.1,3.1
		c-1.2,4.1-1.6,8.4-1.8,12.6c-0.2,2.8-0.3,5.6-1.1,8.4c-0.5,2-0.8,4.2-0.6,6.3c0.2,1.7-0.1,3.2-0.2,4.9c0,2.6-0.7,5.2-0.5,7.8
		c-0.4,0.3-0.3,0.7-0.3,1.1c-1.2,10.5-1.5,21-0.9,31.6c0.2,3.2-0.1,6.5-0.3,9.7c-0.4,6.1,0.1,12.1,0.1,18.2c0,2.7-0.1,5.4-0.4,8
		c-0.2,1.9-0.3,3.8,0,5.7c0,0.3,0.1,0.6,0.1,0.8c-0.3,3.1,0.5,5.9,1.4,8.8c1.6,5.7,2,11.5,1.5,17.4c-0.3,4.2-0.9,8.5,0,12.8
		c0.2,1.1,0.1,2.2,0.1,3.3c-0.4,7.6,0.8,15.1,1.1,22.7c0.2,5.3,0.7,10.7,0.9,16c0.1,1.5,0.3,3.1,0.3,4.7c0,1.8-0.2,2.2-1.9,2.7
		c-4.4,1.4-9,2.3-13.6,2.9c-11.6,1.7-23.3,1.8-34.9,2c-21.5,0.3-43,0.6-64.5,0.3c-10-0.1-20-1-29.7-3.8c-3.7-1-3.8-1.1-3.6-4.8
		c0.4-7,1-14,1.5-21c0.2-3.2-0.1-6.5,0.4-9.7c0.1-0.6,0.1-1.1,0.2-1.7c0.9-3.2,0.1-6.4-0.1-9.6c-0.2-4.6,0.2-9.2,1.4-13.6
		c0.4-1.6,0.5-3.1,0.3-4.7c-1.1-8.7-0.9-17.3,1.1-25.9c0.3-1.4,0.4-2.8,0.3-4.2c-0.4-4.7,0-9.5-0.2-14.3c-0.2-5.7,0-11.5-0.5-17.3
		c-0.3-3.6,0.4-7.2,0.3-10.8c-0.3-9.6-0.9-19.2-1.5-28.7C46.8,118.9,47,118.5,46.6,118.2z"></path>
	<path d="M188.7,112.5c0.1-1.6,0.4-3.2,0.2-4.9c-0.2-2.1,0-4.2,0.6-6.3c0.7-2.8,0.9-5.5,1.1-8.4
		c0.2-4.2,0.6-8.5,1.8-12.6c0.4-1.2,1.1-2.2,2.1-3.1c1.6-1.5,2.7-3.5,3.4-5.5c2.1-6,4-12.1,5.3-18.3c0.5-2.4,0.5-4.9,0.8-7.3
		c0.3-2.9-0.1-5.9-0.3-8.8c-0.1-1.1,0.3-2.2-0.2-3.4c-0.2-0.5-0.1-1.2,0.3-1.7c0.3,0.2,0.6,0.3,0.8,0.5
		c10.2,8.1,16.7,18.5,19.7,31.1c1.4,5.7,2,11.5,2.9,17.2c1.6,9.7,2.6,19.5,4.7,29.2c0.1,0.5,0.1,1,0.1,1.4c-2.7,0.7-5.3,1.4-8.1,1.7
		c-3.2,0.4-6.4,0.7-9.6,1.1c-2.9,0.3-5.8,0.9-8.8,1c-3.7,0.1-7.4-0.1-11.1-0.2c-1.2,0-2.3-0.6-3.3-1.3
		C190.5,113.4,189.8,112.6,188.7,112.5z"></path>
	<path d="M31.4,32.4c0.3,0.5,0.4,1.1,0.2,1.6c-0.4,1.9-0.3,3.9-0.4,5.8C31.2,41,31,42.1,31,43.2
		c0,6.8,1.4,13.4,3.5,19.9c1.1,3.4,1.8,6.9,3.5,10c0.4,0.8,0.8,1.6,1.3,2.3c2.2,3,3.4,6.3,3.8,9.9c0.5,4.1,1.7,8.2,1.4,12.4
		c1.1,2.1,0.8,4.4,1,6.6c0.3,3.5,1.6,6.8,1.2,10.4c-0.7-0.2-0.4-0.8-0.4-1.2c0-0.8-0.3-1.2-1.1-0.7c-2.1,1.3-4.5,1.4-6.9,1.4
		c-6,0-11.9-0.4-17.8-1.4c-5.7-0.9-11.4-1.9-17.2-3c-0.5-0.1-0.9-0.2-1.3-0.5c1.2-8,2.2-16,4.4-23.8c1.5-5.3,2-10.8,3-16.3
		c1.5-8.1,3.9-15.8,8.4-22.8c2.8-4.3,6.2-8.1,10.2-11.2C29,34.4,30,33.1,31.4,32.4z"></path>
</g>
<g onclick="select(this)" class="" id="c-estampa-secundaria" fill="#005425">
	<path d="M125.2,10.7c1.7-0.4,3.4-0.6,5.1-0.4c0.1,0.8,0.4,1.4,0.8,2.1c2.8,5.6,5.6,11.2,8.4,16.8
		c0.4,0.8,0.4,1.4,0,2.2c-3.5,7-7,14.1-10.5,21.2c-0.4,0.9-0.5,1.6,0,2.5c0.7,1.3,1.3,2.7,1.9,4c2.9,5.8,5.8,11.7,8.6,17.5
		c0.3,0.7,0.3,1.1,0,1.8c-3.5,7.1-7,14.3-10.6,21.4c-0.4,0.9-0.4,1.6,0,2.5c1.2,2.3,2.4,4.6,3.5,7c2.2,4.7,4.6,9.3,6.9,14
		c0.5,1.1,0.6,1.9,0,3c-3.6,7-7.1,14.1-10.4,21.2c-0.3,0.6-0.4,1.2,0,1.8c0.9,1.8,1.7,3.5,2.6,5.3c2.7,5.4,5.4,10.8,8.1,16.2
		c0.3,0.5,0.6,1,0.2,1.7c-0.9,1.7-1.7,3.4-2.5,5.1c-2.7,5.6-5.5,11.1-8.2,16.7c-0.4,0.8-0.5,1.6-0.1,2.5c1.7,3.4,3.3,6.7,5,10.1
		c1.9,3.8,3.7,7.5,5.6,11.3c0.4,0.7,0.4,1.2,0,1.9c-0.7,1.3-1.2,2.7-1.9,4c-2.6,4.6-4.6,9.5-7,14.2c-0.6,1.3-1.2,2.6-1.9,3.9
		c-0.2,0.4-0.2,0.8,0,1.2c0.9,1.8,1.8,3.7,2.6,5.5c2.5,5,4.9,10,7.5,14.9c0.8,1.6,1.3,3,0.1,4.6c-0.5,0.7-0.7,1.5-1.1,2.3
		c-2.5,5.1-5.1,10.1-7.6,15.2c-0.5,1.1-1.2,2.2-1.4,3.4c-0.4,0.2-0.8,0.2-1.2,0c0-0.6-0.3-1.2-0.5-1.7c-3.3-6.8-6.7-13.5-10-20.3
		c-0.1-0.3-0.2-0.6-0.6-0.7c-2,3.5-3.6,7.1-5.3,10.7c-2,4-3.9,8.1-5.9,12.1c-0.2,0-0.5,0-0.7,0c0-0.4-0.2-0.8-0.4-1.1
		c-3.4-6.9-6.8-13.8-10.3-20.7c-0.2-0.3-0.2-0.8-0.7-1c-3.8,7.6-7.6,15.2-11.2,22.9c-0.2,0-0.5,0-0.7,0c-0.4-1.9-1.5-3.4-2.3-5.1
		c-2.7-5.7-5.6-11.3-8.4-16.9c-0.2-0.3-0.1-0.8-0.5-0.8c-0.3,0-0.4,0.5-0.5,0.7c-3.3,6.6-6.6,13.3-9.9,20c-0.1,0.2-0.2,0.5-0.3,0.8
		c-0.8,0.1-1.5,0-2.1-0.3c-0.7-1.8-1.6-3.4-2.4-5.1c-2.4-5.3-5.2-10.4-7.7-15.7c-0.1-0.2-0.1-0.5-0.5-0.5c-1.1,1.5-1.5,3.4-2.5,4.9
		c0-3.1,0.3-6.1,0.6-9.1c0.7,0.7,0.9,1.7,1.4,2.5c0.2,0.3,0.2,0.8,0.6,0.8c0.4,0,0.5-0.5,0.6-0.8c3.5-7.1,7-14.2,10.6-21.4
		c0.3-0.6,0.3-1,0-1.6c-0.8-1.6-1.5-3.2-2.3-4.9c-2.3-4.7-4.6-9.4-6.9-14.1c-0.5-0.9-0.7-1.9-1.5-2.7c-0.3-0.7-0.3-1.4-0.2-2.1
		c0.2-0.2,0.4-0.4,0.5-0.6c3.5-7.1,7-14.2,10.5-21.2c0.3-0.6,0.2-1.1,0-1.7c-2.9-6-5.9-12-8.8-18c-0.2-0.4-0.3-0.8-0.7-0.9
		c-0.1-2.3-0.3-4.6-0.2-7c1-1.3,1.5-2.9,2.3-4.3c2.6-4.8,4.7-9.9,7.3-14.7c0.4-0.8,0.6-1.6,0.1-2.5s-0.9-1.9-1.3-2.8
		c-3.1-6.1-5.8-12.4-9.3-18.4c-0.1-0.8-0.2-1.6-0.1-2.4c0.5-0.5,0.8-1,1-1.6c3.2-6.6,6.4-13.2,9.7-19.8c0.4-0.8,0.3-1.5-0.1-2.3
		C54.5,93,51,86.1,47.6,79.2c-0.1-0.3-0.3-0.5-0.4-0.8c-0.3-0.5-0.5-0.6-0.8,0c-1.1,2.4-2.5,4.7-3.5,7.2c-0.4-0.5-0.4-1.1-0.4-1.6
		c0-3-1.4-5.5-3-7.9c-0.7-1.1-1.3-2.2-1.9-3.3c-1.3-2.7-2-5.6-2.9-8.5c-0.6-1.9-1.4-3.8-1.6-5.9c0.3-1.3,1.1-2.4,1.6-3.6
		c0.2-0.4,0.5-0.8,0.3-1.2c-1.3-2.5-2.5-5.1-3.8-7.6c-0.3-0.6-0.2-1.2-0.2-1.8c-0.2-3,0.6-6.1,0-9.1c-0.1-0.3,0.1-0.8,0.3-1.1
		c0.4-0.6,0.3-1.1,0-1.7c3.6-1.8,7.3-3.6,11-5c0.9-0.4,1.8-0.9,2.8-1c0.3,1.4,1.2,2.5,1.7,4.1c1-2.2,2.2-4,2.9-6
		c1-0.7,2.2-1,3.2-1.5c3.3-1.5,6.7-3,10-4.4c0.4-0.2,0.7-0.3,1.1-0.4c1.8,3.7,3.7,7.4,5.5,11c0.2,0.3,0.2,0.8,0.7,0.7
		c0.3,0,0.3-0.3,0.4-0.5c2.8-5.7,5.7-11.4,8.5-17.1c0.7-1.3,1.5-2.6,1.7-4.2c0.3-0.3,0.7-0.2,1.1-0.2C82.2,8,82.4,8,82.6,8.1
		c3.2,7.2,7,14.1,10.3,21.2c0.1,0.2,0.2,0.6,0.5,0.6c0.4,0,0.4-0.4,0.6-0.7c1.8-3.6,3.6-7.1,5.3-10.7c1.3-2.7,2.6-5.4,3.8-8.1
		c1.3-0.2,2.6-0.2,3.8,0.2c0.1,0.3,0.2,0.5,0.3,0.8c2.9,5.9,5.8,11.8,8.7,17.7c0.2,0.3,0.2,0.8,0.6,0.8c0.5,0,0.5-0.5,0.7-0.9
		c2.8-5.7,5.6-11.5,8.5-17.2C126.3,11,126.1,10.7,125.2,10.7z M70.2,124.6c0.3-0.6,0.5-1,0.7-1.4c3.4-7,6.9-14,10.4-20.9
		c0.1-0.3,0.2-0.7,0.6-0.7s0.4,0.4,0.6,0.7c1,2,1.9,4,2.9,5.9c2.5,5,5,10,7.5,15c0.2,0.3,0.1,0.9,0.6,0.9c0.4,0,0.5-0.6,0.7-0.9
		c3.4-6.8,6.7-13.7,10.2-20.5c0.6-1.1,0.6-2,0-3.1c-3.4-6.8-6.7-13.5-10.1-20.3c-0.1-0.3-0.3-0.6-0.4-0.9c-0.3-0.5-0.6-0.5-0.8,0
		c-0.3,0.6-0.5,1.3-0.8,1.8c-2.9,5.9-6,11.8-8.8,17.8c-0.4,1-0.9,1.9-1.5,3.1c-3.9-8-7.8-15.7-11.6-23.5c-0.8,1.5-1.6,2.9-2.3,4.3
		c-3,6.1-5.9,12.1-8.9,18.2c-0.4,0.7-0.3,1.3,0,2c3.3,6.7,6.6,13.3,9.9,20C69.4,122.9,69.8,123.7,70.2,124.6z M58.8,195.5
		c0,0.4,0.2,0.7,0.3,1c3.5,7,6.7,14.2,10.5,21.1c0.2,0.3,0.2,0.8,0.6,0.8c0.5,0,0.5-0.5,0.7-0.9c3.5-7.1,7-14.1,10.5-21.1
		c0.4-0.8,0.4-1.3-0.1-2.1c-0.6-0.9-1-2-1.5-3c-3-6.2-6-12.3-9-18.5c-0.1-0.2-0.2-0.6-0.6-0.6c-0.3,0-0.3,0.3-0.4,0.5
		c-0.8,1.6-1.6,3.1-2.3,4.7c-2.8,5.6-5.5,11.2-8.3,16.8C59,194.7,58.8,195.1,58.8,195.5z M116.7,78.1c-0.4,0.1-0.5,0.5-0.6,0.8
		c-2.6,5.2-5.2,10.4-7.7,15.7c-0.9,1.9-1.9,3.9-2.8,5.8c-0.3,0.6-0.3,1,0,1.6c0.7,1.4,1.3,2.9,2.1,4.3c2.8,5.7,5.7,11.4,8.6,17.2
		c0.1,0.3,0.2,0.7,0.5,0.8c0.5,0.1,0.5-0.5,0.6-0.8c3.5-7.1,7-14.2,10.5-21.3c0.3-0.6,0.3-1.1,0-1.7c-1-2-1.9-4-2.9-5.9
		c-2.6-5.2-5.1-10.4-7.7-15.6C117.2,78.6,117.1,78.3,116.7,78.1z M58.8,242.8c0,0.1,0.1,0.4,0.2,0.6c0.8,1.8,1.7,3.5,2.5,5.3
		c2.6,5.3,5.1,10.8,8,16c0.2,0.3,0.1,0.9,0.6,0.9c0.4,0,0.5-0.6,0.7-0.9c3.1-6.3,6.2-12.7,9.4-19c1.1-2.1,1.8-3.9,0.1-5.9
		c-0.3-0.3-0.3-0.7-0.5-1.1c-3-6.1-6-12.2-9-18.3c-0.2-0.3-0.2-0.8-0.6-0.9c-0.5,0-0.5,0.5-0.7,0.9c-3.5,7-7,14-10.4,21.1
		C59,241.8,58.8,242.2,58.8,242.8z M116.6,218.8c1-1.9,1.9-3.5,2.7-5.2c2.8-5.7,5.5-11.4,8.3-17c0.5-1,0.4-1.7-0.1-2.7
		c-1.6-3.2-3.2-6.4-4.8-9.7c-1.9-3.8-3.8-7.6-5.7-11.4c-0.3-0.6-0.5-0.7-0.9,0c-1.9,3.5-3.5,7.2-5.3,10.7c-1.9,3.7-3.6,7.4-5.4,11.1
		c-0.3,0.5-0.3,0.9,0,1.4c1.1,2.2,2.1,4.4,3.2,6.6c1.4,3,2.9,6,4.3,8.9C114.2,214,115.4,216.3,116.6,218.8z M70.2,77.2
		c1.1-2.2,2.3-4.3,3.4-6.4c2.6-5.3,5.1-10.6,7.7-15.8c0.3-0.6,0.3-1.1,0-1.7c-1.2-2.3-2.3-4.7-3.4-7c-2.3-4.7-4.7-9.4-7-14
		c-0.2-0.4-0.2-1.2-0.7-1.2s-0.6,0.8-0.8,1.3c-3.4,7-6.8,13.9-10.2,20.9c-0.4,0.8-0.4,1.4,0,2.2c1.3,2.5,2.5,5.1,3.8,7.6
		c2.3,4.7,4.7,9.4,7.1,14.2C70,77.1,70.1,77.1,70.2,77.2z M46.7,77.2c0.4-0.1,0.5-0.4,0.6-0.7C50.9,69.3,54.5,62,58,54.8
		c0.3-0.7,0.3-1.2,0-1.8c-3.5-7.1-7-14.3-10.6-21.4c-0.2-0.3-0.2-0.7-0.6-0.9c-0.2,0.4-0.4,0.8-0.6,1.2c-3.5,7-6.9,14-10.4,21
		c-0.3,0.7-0.3,1.3,0,1.9c0.7,1.4,1.4,2.8,2.1,4.2C40.8,65.2,43.8,71.2,46.7,77.2z M82.1,195.3c-0.1,0.5,0.1,0.8,0.2,1
		c0.8,1.6,1.5,3.2,2.3,4.8c2.8,5.6,5.6,11.2,8.4,16.8c0.1,0.2,0.1,0.5,0.3,0.6c0.4,0.1,0.4-0.3,0.6-0.5c0.9-1.9,1.8-3.8,2.7-5.6
		c2.7-5.3,5.3-10.6,7.9-16c0.4-0.8,0.3-1.5-0.1-2.2c-3-6.1-6-12.2-9-18.3c-0.5-1-1-2.1-1.6-3.1c-0.2-0.4-0.4-0.6-0.8,0
		c-3.5,7.2-7.1,14.3-10.6,21.5C82.3,194.7,82.2,195.1,82.1,195.3z M70.3,171.6c0.3-0.5,0.5-0.9,0.7-1.3c3.4-6.8,6.7-13.6,10.1-20.4
		c0.5-1.1,0.7-2.1,0-3.1c-0.4-0.6-0.6-1.3-0.9-1.9c-3.1-6.4-6.3-12.7-9.4-19.1c-0.1-0.2-0.1-0.6-0.6-0.6c-3.7,7.5-7.4,15-11.1,22.5
		c-0.3,0.6-0.1,1,0.2,1.5c3,6.1,5.9,12.1,8.9,18.2C68.7,168.8,69.4,170.1,70.3,171.6z M105.4,54c-0.1,0.5,0.2,0.8,0.4,1.2
		c3.4,6.9,6.8,13.8,10.3,20.7c0.2,0.4,0.2,1,0.7,1c0.4,0,0.5-0.6,0.7-0.9c2.9-5.8,5.7-11.6,8.6-17.4c0.4-0.9,0.7-1.9,1.3-2.7
		c1-1.4,0.7-2.5-0.1-4c-3.4-6.6-6.6-13.3-9.8-20c-0.2-0.3-0.2-0.8-0.6-0.8s-0.4,0.5-0.6,0.8c-3.5,7-6.9,14-10.4,21
		C105.5,53.2,105.3,53.5,105.4,54z M116.7,125.4c-0.3,0-0.3,0.2-0.3,0.3c-0.4,0.8-0.9,1.7-1.3,2.5c-3.1,6.4-6.2,12.8-9.4,19.1
		c-0.3,0.7-0.4,1.3,0,2c3.5,7,6.9,13.9,10.4,20.9c0.2,0.3,0.2,0.9,0.7,0.9c0.4,0,0.5-0.6,0.7-0.9c3.5-7,6.9-14,10.4-21
		c0.4-0.7,0.3-1.3,0-2c-1.4-2.9-2.8-5.7-4.2-8.6c-2.1-4.3-4.3-8.6-6.4-12.9C117,125.6,117,125.4,116.7,125.4z M116.5,265.6
		c0.4,0,0.5-0.3,0.6-0.6c1-1.8,1.9-3.7,2.9-5.5c2.6-5.4,5.2-10.8,7.9-16.2c0.3-0.7,0.2-1.2-0.1-1.8c-3.5-7-6.9-14-10.4-20.9
		c-0.2-0.4-0.3-0.9-0.8-1.3c-0.3,1.2-1.1,2.1-1.6,3.2c-3,6.2-6,12.4-9.1,18.5c-0.6,1.2-0.6,2.1,0,3.3c2.2,4.3,4.3,8.7,6.5,13.1
		C113.7,260.1,115.1,262.9,116.5,265.6z M93.4,77.3c0.2-0.2,0.2-0.3,0.3-0.3c3.7-7.4,7.3-14.8,11-22.1c0.3-0.6,0.2-1.1-0.1-1.7
		c-3.5-7-7-14.1-10.5-21.2c-0.2-0.3-0.2-0.9-0.7-0.9c-0.4,0-0.4,0.5-0.6,0.8c-2.3,4.6-4.6,9.2-6.8,13.9c-1.2,2.5-2.4,5-3.6,7.4
		c-0.3,0.5-0.3,1-0.1,1.5c0.5,1,0.9,2,1.4,2.9c3,6.1,6,12.3,9.1,18.4C92.9,76.4,93.1,76.8,93.4,77.3z M93.5,219.4
		c-0.2,0.2-0.3,0.3-0.3,0.4c-3.7,7.4-7.4,14.7-10.9,22.1c-0.2,0.5-0.2,0.9,0,1.4c0.6,1.2,1.1,2.5,1.7,3.7c2.6,5.3,5.3,10.6,7.9,15.9
		c0.4,0.9,0.7,2,1.4,2.7c0.4-0.3,0.5-0.8,0.7-1.1c1.4-2.3,2.4-4.9,3.7-7.3c2.4-4.5,4.6-9.2,6.8-13.9c0.3-0.7,0.2-1.2-0.1-1.8
		c-3.5-7-6.9-14-10.4-20.9C93.9,220.3,93.7,219.9,93.5,219.4z M104.9,148.3c-0.1-0.3-0.2-0.5-0.3-0.8c-3.4-7.2-7.1-14.3-10.6-21.5
		c-0.1-0.2-0.2-0.6-0.5-0.6c-0.4,0-0.4,0.4-0.6,0.7c-3.5,7.1-7.1,14.3-10.6,21.4c-0.3,0.5-0.3,1,0,1.6c0.9,1.8,1.7,3.5,2.6,5.3
		c2.7,5.4,5.3,10.7,8,16.1c0.1,0.3,0.1,0.7,0.4,0.8c0.5,0.1,0.5-0.4,0.7-0.7c3.5-7.1,7.1-14.3,10.6-21.4
		C104.7,148.9,104.8,148.6,104.9,148.3z"></path>
	<path d="M151.9,8c0.3-0.1,0.5-0.2,0.8-0.1c0,0.5,0.3,0.9,0.5,1.3c1.5,3.1,3.1,6.1,4.6,9.2c1.9,3.9,3.8,7.7,5.7,11.6
		c0.1,0.2,0.1,0.6,0.5,0.6c0.3,0,0.4-0.3,0.5-0.6c0.8-1.7,1.7-3.3,2.5-5c1.2-2.5,2.6-4.9,3.7-7.5c2.5,1.1,5.1,2.3,7.6,3.4
		c1.8,0.8,3.6,1.4,5.3,2.4c0.8,2.5,2.2,4.8,3.4,7.1c0.3,0.6,0.6,0.2,0.8-0.2c0.7-1.4,1.4-2.9,2.1-4.3c2.8,0.9,5.4,2.1,8,3.4
		c1.8,0.8,3.4,1.8,5.3,2.5c0.3,0.1,0.7,0.3,0.9,0.6c-0.6,1.5-0.1,3.1-0.1,4.6c0,2.6,0.1,5.1,0.1,7.7c-1.5,3.1-3.1,6.2-4.6,9.3
		c-0.3,0.5-0.2,1,0.1,1.5c0.7,1.5,1.5,2.9,2.2,4.4c0.1,0.5-0.1,0.9-0.2,1.3c-0.8,2.5-1.6,5.1-2.3,7.6s-1.9,4.7-3.2,6.9
		c-0.4,0.6-0.6,1.4-1.2,1.8c-2,1.2-2.2,3.3-2.7,5.2c-0.3,1.2-0.5,2.4-0.7,3.6c-1.3-2.6-2.6-5.1-3.9-7.7c-0.2,0.2-0.3,0.3-0.4,0.4
		c-3.6,7.4-7.3,14.7-10.9,22.1c-0.3,0.6-0.3,1.2,0,1.7c3.5,7.3,7.1,14.6,10.8,21.8c0.1,0.3,0.3,0.5,0.5,0.6c0.1,0.3,0.1,0.5-0.1,0.7
		c-0.1,0.1-0.3,0.2-0.3,0.3c-3.7,7.4-7.4,14.8-10.9,22.3c-0.2,0.5-0.2,0.9,0,1.4c0.6,1.3,1.2,2.6,1.9,3.9c2.3,4.6,4.4,9.3,6.8,13.7
		c0.6,1,0.7,2.2,1.6,3c0.2,1.4,0.4,2.7,0.1,4.1c-0.4,0.2-0.5,0.7-0.7,1.1c-2.6,5.3-5.2,10.6-7.8,15.9c-0.7,1.4-1.3,2.8-2,4.1
		c-0.2,0.4-0.3,0.8,0,1.2c0.6,1.2,1.1,2.5,1.8,3.7c2.2,4.2,4.1,8.6,6.3,12.8c0.9,1.8,1.7,3.7,2.8,5.4c0.1,0.2,0.2,0.5,0.4,0.5
		c0.4,0,0.4-0.4,0.5-0.6c0.6-1.2,1.1-2.4,1.7-3.6c0.3,2.8,0,5.6-0.3,8.5c-0.4-0.8-0.7-1.6-1.1-2.4c-0.2-0.4-0.2-1-0.7-1
		s-0.6,0.6-0.8,1c-3.3,6.6-6.4,13.3-9.8,19.9c-0.8,1.6-0.9,2.9-0.1,4.5c3.2,6.4,6.4,12.9,9.6,19.3c0.3,0.5,0.4,1.4,0.9,1.4
		c0.7,0,0.7-0.9,1-1.4c0.9-1.3,1.1-3,2.2-4.2c0.5,3.8,0.6,7.6,0.8,11.5c0.1,0.8,0.3,1.7,0.1,2.5c-1.3-2-2.2-4.3-3.4-6.5
		c-0.2-0.3-0.1-0.9-0.6-0.9s-0.5,0.5-0.7,0.9c-2.9,5.9-5.8,11.7-8.7,17.6c-0.2,0.4-0.4,0.7-0.4,1.1c-1.2,0.4-2.4,0.6-3.6,0.5
		c-3.2-6.8-6.5-13.5-10-20.3c-0.2,0.3-0.3,0.4-0.4,0.5c-3.4,6.8-6.7,13.5-10,20.3c-0.1,0.3-0.2,0.6-0.3,0.9
		c-0.7,0.3-1.4,0.3-2.1,0.1c0-0.5-0.2-0.9-0.4-1.4c-0.9-1.8-1.8-3.5-2.7-5.4c-2.2-4.8-4.7-9.5-7.1-14.3c-0.4-0.7-0.4-1.3,0-2
		c3.6-7.2,7.1-14.4,10.7-21.6c0.3-0.7,0.4-1.2,0-1.9c-0.9-1.7-1.6-3.4-2.4-5.1c-2.7-5.5-5.4-11-8.2-16.4c-0.4-0.8-0.4-1.4,0-2.2
		c3.6-7.2,7.1-14.4,10.7-21.6c0.3-0.6,0.4-1.1,0.1-1.7c-3.6-7.3-7.2-14.6-10.8-21.9c-0.4-0.7-0.4-1.2,0-1.8
		c3.6-7.2,7.1-14.4,10.7-21.6c0.3-0.6,0.4-1.1,0.1-1.7c-3.6-7.3-7.2-14.6-10.8-21.9c-0.3-0.7-0.4-1.2,0-1.8
		c3.2-6.4,6.3-12.8,9.5-19.2c1.7-3.4,1.7-3.4,0-6.9c-3.2-6.5-6.4-13-9.6-19.4c-0.3-0.5-0.3-0.9,0-1.4c1.1-2.1,2.1-4.3,3.2-6.5
		c2.7-5.2,5.2-10.4,7.7-15.7c0.3-0.6,0.3-1,0-1.6c-1.4-2.7-2.6-5.5-4-8.2c-2.3-4.5-4.5-9.1-6.8-13.6c-0.2-0.5-0.4-0.9-0.1-1.4
		c0.8-1.5,1.5-3.1,2.2-4.6c2.3-4.6,4.6-9.3,6.9-13.9C150.8,10.7,151.4,9.4,151.9,8z M163.9,78.4c-1.3,2.6-2.5,5.1-3.7,7.5
		c-2.5,5.1-5,10.1-7.5,15.2c-0.3,0.5-0.3,0.9,0,1.4c0.6,1.2,1.2,2.3,1.8,3.5c3.1,6.2,6.1,12.4,9.1,18.6c0.3,0.6,0.5,0.4,0.7,0
		c0.2-0.3,0.3-0.6,0.4-0.8c3.4-6.9,6.8-13.8,10.3-20.7c0.4-0.8,0.4-1.5,0-2.3c-3.5-7-6.9-14-10.4-21.1
		C164.4,79.3,164.2,78.9,163.9,78.4z M163.9,219.5c0.3-0.6,0.5-1,0.7-1.4c1.8-3.5,3.6-7.1,5.3-10.6s3.4-7,5.2-10.5
		c0.3-0.6,0.3-1.2,0-1.8c-1.2-2.5-2.4-5-3.6-7.4c-2.3-4.6-4.6-9.3-6.9-13.9c-0.1-0.3-0.1-0.7-0.5-0.7s-0.5,0.5-0.6,0.8
		c-3.6,7.2-7.1,14.4-10.7,21.6c-0.2,0.4-0.3,0.8-0.1,1.2c0.6,1.2,1.1,2.4,1.7,3.6c1.8,3.8,3.7,7.5,5.5,11.3
		C161.2,214.1,162.5,216.7,163.9,219.5z M175.9,54.9c0.2,0.5,0.5,1.3,0.9,2c3.2,6.6,6.5,13.1,9.7,19.7c0.1,0.3,0.3,0.5,0.4,0.8
		c0.1,0.2,0.2,0.5,0.5,0.4c0.2,0,0.2-0.3,0.3-0.5c0.5-1.1,1-2.2,1.6-3.2c2.1-4.2,4.2-8.3,6.3-12.5c1-1.9,1.9-3.9,2.8-5.8
		c0.3-0.7,0.6-1.3,0.1-2.2c-1.2-2.3-2.2-4.6-3.4-6.9c-2.4-4.8-4.8-9.6-7.2-14.4c-0.1-0.3-0.1-0.8-0.5-0.8s-0.5,0.5-0.6,0.8
		c-3.5,7.1-7,14.2-10.5,21.3C176.1,54,175.9,54.3,175.9,54.9z M163.9,220c-0.2,0.4-0.3,0.5-0.4,0.6c-3.6,7.3-7.3,14.7-10.9,22
		c-0.3,0.6-0.1,1,0.1,1.6c3.5,7.1,7,14.2,10.5,21.3c0.2,0.3,0.2,0.8,0.8,1c1.2-2.5,2.5-4.9,3.7-7.4c2.4-5,4.9-10,7.3-14.9
		c0.3-0.6,0.3-1,0-1.6c-1-2-1.9-3.9-2.9-5.9c-1.5-3.1-3-6.3-4.6-9.4C166.5,224.8,165.3,222.5,163.9,220z M164,77.9
		c0.1-0.2,0.2-0.3,0.2-0.4c3.7-7.3,7.3-14.6,10.8-22c0.3-0.7,0.4-1.1,0.1-1.8c-3.6-7.2-7.1-14.3-10.6-21.5c-0.1-0.3-0.2-0.7-0.6-0.8
		c-1.1,2.1-2.2,4.1-3.2,6.2c-2.6,5.4-5.2,10.8-7.9,16.2c-0.3,0.6-0.3,1.1,0,1.7c3.5,7.1,7,14.2,10.5,21.3
		C163.5,77.2,163.6,77.6,164,77.9z M175.5,149c-0.1-0.3-0.2-0.5-0.3-0.7c-0.8-1.8-1.6-3.6-2.5-5.3c-2.7-5.3-5.1-10.8-8-16.1
		c-0.2-0.3-0.1-0.9-0.6-0.9s-0.5,0.6-0.7,0.9c-3.2,6.5-6.4,13.1-9.8,19.6c-0.9,1.8-1.3,3.2,0.1,4.9c0.4,0.4,0.4,1,0.7,1.5
		c3,6.1,6,12.1,9,18.1c0.2,0.3,0.2,0.9,0.7,0.9c0.4,0,0.5-0.6,0.7-0.9c3.5-7.1,7-14.1,10.5-21.2C175.3,149.6,175.4,149.3,175.5,149z
		"></path>
</g>
</svg>
