<!--?xml version="1.0" encoding="utf-8"?-->
<!-- Generator: Adobe Illustrator 24.2.3, SVG Export Plug-In . SVG Version: 6.00 Build 0)  -->
<svg version="1.1" id="Camada_1" xmlns="http://www.w3.org/2000/svg" xmlns:xlink="http://www.w3.org/1999/xlink" x="0px" y="0px" viewBox="0 0 229 418" enable-background="new 0 0 229 418" xml:space="preserve">
<g onclick="select(this)" class="" id="gola-primaria" fill="#801815">
	<path d="M77.9528961,7.9597788c0.7734909-0.0868554,1.2810745-0.6227632,1.8024139-1.1070566
		c0.7603989-0.7063622,1.6094208-1.3635068,2.2009125-2.1973295c2.3787308-3.3532748,5.9154663-4.1040101,9.6146927-4.1371012
		c10.8288574-0.0968688,21.6591644-0.0327392,32.4889069-0.0323138c3.6765366,0.0001444,7.3533707,0.0263636,11.0294876-0.0132293
		c2.1037445-0.022658,4.1253967,0.4074263,6.1430511,0.9059279c1.240509,0.306494,2.2250671,0.9727898,3.0632935,1.9657297
		c1.5145111,1.7940409,2.9762726,3.6627538,5.0728302,4.8576345c1.8892975,0.8698425,2.232193,1.9619017,1.6444397,4.6568098
		c-0.8680267,3.9801064-3.1195221,7.256525-5.9576111,10.0776253c-3.1543121,3.135416-6.6809235,5.8337631-10.5701141,8.0235748
		c-2.4582367,1.3841152-4.9942627,2.6225414-7.64991,3.5758228c-4.9303207,1.7698059-10.0413513,2.5165062-15.2560577,2.1380272
		c-6.9028931-0.5010071-13.3907471-2.4491768-19.2632141-6.193306c-4.6655121-2.9746075-9.1340027-6.1839447-12.4609528-10.7306004
		c-1.5546875-2.124649-2.7199631-4.4103737-3.3867264-6.9568338C75.8662186,10.4935923,76.2461853,9.2179432,77.9528961,7.9597788z
		 M144.3056793,9.0716209c-1.6213531,0.1224871-3.0516968,0.2176695-4.4796753,0.3405447
		c-8.3171387,0.7156858-16.6441956,1.3321667-24.9881668,1.5415802c-6.3928757,0.1604452-12.7648773-0.5101662-19.1342163-1.0081911
		c-3.8610764-0.3019018-7.7151108-0.6963148-11.5699081-1.07374c-0.8292313-0.081192-1.0991592,0.0874987-0.7168503,0.9401541
		c0.5081406,1.1332855,1.0283813,2.2572689,1.7957001,3.2364836c3.8750992,4.9451981,8.5461273,8.9716797,14.1956177,11.738184
		c5.4275513,2.6578178,11.1766891,4.1721344,17.2688675,3.4482021c9.8420715-1.169529,17.7235413-6.0017147,24.1360626-13.393693
		C142.2531128,13.1811771,143.4580688,11.3532133,144.3056793,9.0716209z"></path>
</g>
<g onclick="select(this)" class="" id="estampa-primaria" fill="#801815">
	<path d="M228.9600067,116.093399c-6.8571014,2.7822495-14.0121155,4.3370743-21.3362427,5.2273712
		c-6.1868591,0.7520599-12.368454,0.6976852-18.5519867,0.0140381c-1.5454559-0.1708679-3.0968781-0.3538818-4.5782013-1.2677536
		c-0.2199554,2.0793762-0.4086456,4.0580902-0.6417084,6.0315781c-0.8538513,7.2303009-1.2928009,14.4857788-1.360672,21.7647858
		c-0.0205078,2.2003937,0.0623932,4.3856812,0.517807,6.556076c0.4091797,1.9500275-0.1010284,3.8995209-0.1977386,5.8493652
		c-0.0355988,0.717926-0.1707764,1.4362183-0.1483612,2.1508484c0.2055359,6.549881-0.5930634,13.0964661-0.0467377,19.6483002
		c0.1228333,1.4733582,0.0373993,2.9524689-0.128479,4.4282837c-0.3486176,3.1020355,0.1955414,6.1179047,0.8783569,9.133194
		c1.6395416,7.239975,1.3817749,14.5227966,0.3444061,21.8104858c-0.3048859,2.1419525-0.3785248,4.2077332,0.3238068,6.355957
		c1.7737885,5.4254761,1.8165588,11.0054626,0.943222,16.6040192c-0.2310028,1.4808197-0.2509308,2.9245453,0.0898895,4.3920746
		c0.8876038,3.8216553,0.4447784,7.7210388,0.6464539,11.5834961c0.308197,5.9023438,0.6915741,11.8015137,1.4323425,17.6740112
		c0.2583313,2.0479736,0.224884,4.1368713,0.2556305,6.2081604c0.0256958,1.7302551-0.3531799,2.2260742-2.0658417,2.7414246
		c-3.0054626,0.9043579-6.1238403,1.1594543-9.2250977,1.4795837c-7.6872864,0.7935486-15.4051208,0.8666382-23.123642,1.0108948
		c-11.2354126,0.2099304-22.4668884,0.6517639-33.7026749,0.8135376c-12.4787674,0.179657-24.936409-0.845459-37.4167862-0.8475647
		c-8.3977737-0.0014343-16.797905-0.1000061-25.1787109-0.73526c-4.1492081-0.3144531-8.2847404-0.7519226-12.3537483-1.6697083
		c-0.1560364-0.0351868-0.3138123-0.0631714-0.4689255-0.1018372c-3.3675385-0.8405762-3.729023-1.1849976-3.5259438-4.6595764
		c0.4517288-7.7287292,1.0040855-15.4518127,1.5478287-23.174942c0.1460991-2.0751343,0.2783318-4.1479645,0.2284355-6.2277222
		c-0.0423241-1.7640381,0.0424042-3.5182648,0.3600349-5.2543335c0.4133606-2.2592926,0.4568634-4.5092621,0.1249275-6.7918701
		c-0.3660889-2.5175629-0.0983963-5.0300446,0.4432831-7.5034943c0.2180901-0.9958496,0.195961-1.9692535,0.1215553-2.9723206
		c-0.336792-4.5404205-1.0248642-9.0607758-0.8374214-13.6324158c0.1784706-4.3526611,1.2044525-8.5330353,2.6853447-12.6053009
		c0.3780708-1.0396423,0.6012306-2.0360565,0.4378281-3.144928c-0.1810989-1.2289734-0.1553574-2.4728088,0.0793152-3.7015228
		c0.3182716-1.6664276,0.183197-3.3283997,0.0996132-5.0111847c-0.1621933-3.2655487-0.1713448-6.5402069-0.1846046-9.8113403
		c-0.0524673-12.9395447-0.0425491-25.8795013-0.1395607-38.8186798c-0.038414-5.1238098-0.9970284-10.1758575-1.5123215-15.2630005
		c-0.131218-1.295433-0.3165131-2.5854034-0.4659805-3.7894058c-8.7987175,2.5404205-17.7214336,1.9815598-26.6416473,1.1304092
		c-4.741806-0.452446-9.4219036-1.3161163-13.9765768-2.7638702C1.8316439,118.6739197,0.9756763,118.3496017,0.24,117.772438
		c0-1.0394058,0-2.078804,0-3.1182098c0.3886503-0.0979767,0.2689478-0.4427795,0.3153924-0.6888885
		c0.3441262-1.8235321,0.6675487-3.6509476,1.0076697-5.4752502c1.8599573-9.9762039,2.9367695-20.0686417,4.416398-30.1010056
		C6.8598299,72.419899,7.5262547,66.427742,9.1545849,60.5976868c2.7158356-9.7237396,7.3670483-18.2610435,15.2138138-24.8508644
		c1.1002979-0.9240494,2.1522732-1.908123,3.1921444-2.9004936c0.5942116-0.5670662,1.2593575-1.017168,1.9867916-1.3651505
		c6.4953289-3.1071453,13.1113338-5.9370537,19.7744732-8.6652718c7.6037102-3.1133347,15.0100632-6.6465206,22.1374359-10.7465782
		c1.0358582-0.5958872,1.9914551-1.2535591,2.7835236-2.2022896c0.9345245-1.11936,2.1475449-1.9064846,3.7101288-1.9072599
		c-1.7067108,1.2581644-2.0866776,2.5338135-1.4845581,4.8333817c0.6667633,2.5464602,1.8320389,4.8321848,3.3867264,6.9568338
		c3.3269501,4.5466557,7.7954407,7.7559929,12.4609528,10.7306004c5.872467,3.7441292,12.360321,5.6922989,19.2632141,6.193306
		c5.2147064,0.378479,10.325737-0.3682213,15.2560577-2.1380272c2.6556473-0.9532814,5.1916733-2.1917076,7.64991-3.5758228
		c3.8891907-2.1898117,7.415802-4.8881588,10.5701141-8.0235748c2.838089-2.8211002,5.0895844-6.0975189,5.9576111-10.0776253
		c0.5877533-2.6949081,0.2448578-3.7869673-1.6442871-4.6568136c1.8040009-0.123147,2.9554596,0.9744577,4.0511017,2.1698017
		c0.2662506,0.2904806,0.4252472,0.6620398,0.7931213,0.8793755c3.9738922,2.3477592,7.8823395,4.7979689,12.1107788,6.7028666
		c10.4204865,4.6943989,21.101532,8.7826443,31.4798737,13.5730629c0.6920013,0.3194237,1.3066406,0.724474,1.8821259,1.2149258
		c1.0639801,0.9067917,2.1244659,1.8196297,3.2219086,2.6849899c3.6716614,2.895256,6.8238068,6.2698441,9.3999634,10.1694183
		c4.342453,6.5732765,6.7271576,13.896862,8.2562561,21.5540199c0.9705048,4.8599472,1.1772461,9.8393097,2.3999023,14.6610107
		c1.4536285,5.7324448,2.6221161,11.5251999,3.4730682,17.381134c0.5265961,3.6238251,1.0268097,7.2561493,1.7411194,10.8444443
		c0.1572876,0.7902069-0.1613617,1.8726273,0.7821503,2.458374
		C228.9600067,113.6947784,228.9600067,114.8940887,228.9600067,116.093399z"></path>
	<path d="M144.3056793,9.0716209c-0.8476105,2.2815924-2.0525665,4.1095562-3.492569,5.7695246
		c-6.4125214,7.3919783-14.2939911,12.224164-24.1360626,13.393693c-6.0921783,0.7239323-11.8413162-0.7903843-17.2688675-3.4482021
		c-5.6494904-2.7665043-10.3205185-6.7929859-14.1956177-11.738184c-0.7673187-0.9792147-1.2875595-2.1031981-1.7957001-3.2364836
		c-0.382309-0.8526554-0.112381-1.0213461,0.7168503-0.9401541c3.8547974,0.3774252,7.7088318,0.7718382,11.5699081,1.07374
		c6.369339,0.4980249,12.7413406,1.1686363,19.1342163,1.0081911c8.3439713-0.2094135,16.6710281-0.8258944,24.9881668-1.5415802
		C141.2539825,9.2892904,142.6843262,9.194108,144.3056793,9.0716209z"></path>
</g>
<path d="M185.4700012,247.3600006c-0.1799927-0.2400055-0.1699982-0.5099945-0.1000061-0.7799988
	C185.5500031,246.8200073,185.5200043,247.0899963,185.4700012,247.3600006z"></path>
<polygon fill="#F5DC34" points="43.3899994,121.4700012 43.4300003,121.5400009 43.4000015,121.6100006 43.3300018,121.5400009 "></polygon>
<g onclick="select(this)" class="" id="estampa-secundaria" fill="#bf0811">
	<path d="M42.1899986,245.3542938c0.5900002-3.2799988,0.7299995-6.5599976,0.2900009-9.8800049
		c-0.2000008-1.5-0.0900002-3.0399933,0.2299995-4.5299988c0.8899994-4.1499939-0.0499992-8.25-0.2999992-12.3699951
		c-0.0900002-1.4400024-0.1300011-2.8699951-0.1199989-4.3000031c0.3899994,0.0099945,0.6599998,0.2700043,0.9599991,0.4600067
		c2.8600006,1.8300018,5.7099991,3.6799927,8.5800018,5.4900055C72.0599976,233.0243073,92.2900009,245.8143005,112.5,258.6442871
		c0.8300018,0.5299988,1.3700027,0.4599915,2.1200027-0.019989c5.9000015-3.7599792,11.8099976-7.4899902,17.7199936-11.2299805
		c16.7099915-10.5800018,33.4299927-21.1600037,50.1399994-31.75c0.4700012-0.3000031,0.9400024-0.6100006,1.5299988-0.5899963
		c0.0399933,1.7599945-0.2799988,3.4900055-0.5099945,5.2200012c-0.0800018,0.5899963-0.0399933,1.0899963,0.1399994,1.6199951
		c1.9900055,5.8899994,2.5200043,11.9199982,1.4600067,18.0500031c-0.3500061,2.0200043-0.0899963,3.9600067,0.2700043,5.9199982
		c-0.0700073,0.2700043-0.0800018,0.5399933,0.1000061,0.7799988c-0.0099945,0.1399994-0.0200043,0.2899933-0.0299988,0.4299927
		c-0.4499969,0.2599945-0.9100037,0.5-1.3500061,0.7700043c-19.0200043,11.5199738-38.0299988,23.0599823-57.0500031,34.5599823
		c-2.2099991,1.3399963-4.3199997,2.8699951-6.7300034,3.8599854c-4.75,0.1000061-9.4899979,0.1099854-14.2300034-0.25
		c-5.0999985-3.0700073-10.2200012-6.1099854-15.3099976-9.2000122
		c-15.5899963-9.4400024-31.1599998-18.9100037-46.7799988-28.3099823
		C42.6800003,247.7242889,41.8600006,246.9342804,42.1899986,245.3542938z"></path>
	<path d="M43.8600006,203.7342834c0.1699982-0.6900024,0.25-1.4299927,0.5299988-2.0700073
		c0.9500008-2.1300049,0.8199997-4.3600006,1-6.6199951c0.4399986-5.6199951,0-11.2100067-0.0099983-16.8099976
		c0-0.8800049-0.0499992-1.75-0.0699997-2.6300049c0.3600006,0.1600037,0.7400017,0.2899933,1.0800018,0.4900055
		c10.4700012,6.0800018,20.9300041,12.1900024,31.4099998,18.25c11.5200043,6.6600037,23.0800018,13.2599945,34.5999985,19.9199982
		c0.8499985,0.4900055,1.4800034,0.4400024,2.2799988-0.0399933c3.0599976-1.8099976,6.1500015-3.5800018,9.2300034-5.3500061
		c14.3000031-8.25,28.5899963-16.5,42.8899994-24.7400055c5.1900024-2.9900055,10.3999939-5.9600067,15.6000061-8.9300079
		c-0.0599976,4.1100006,0.4900055,8.2100067,0.0500031,12.3399963c-0.3399963,3.1399994,0.6699982,6.1499939,1.25,9.1999969
		c0.3500061,1.8300018,0.6999969,3.6799927,0.6300049,5.5700073c-0.5399933,0.8000031-1.1699982,1.4700012-2.0099945,2
		c-15.3500061,9.8099976-30.6900024,19.6600037-46.0399933,29.4700012c-7.1000061,4.5399933-14.25,9.0099945-21.3700027,13.5399933
		c-0.9599991,0.6100006-1.75,0.6499939-2.7399979,0c-4.0500031-2.6399994-8.1500015-5.2100067-12.2200012-7.8099976
		c-9.7700043-6.2299957-19.5400009-12.4600067-29.3099976-18.6900024
		C61.7099991,215.1342926,52.7900009,209.4342804,43.8600006,203.7342834z"></path>
	<path d="M45.3199997,161.9642792c-0.3400002-2.1100006,0.0600014-4.2200012,0.0299988-6.3300018
		c-0.0600014-3.9499969,0.0200005-7.9100037,0.0400009-11.8600006c0.2599983,0.1000061,0.5400009,0.1600037,0.7799988,0.3000031
		c3.0099983,1.6600037,6.0100021,3.3300018,9.0200005,4.9900055c19.079998,10.5700073,38.170002,21.1399994,57.2400017,31.7299957
		c0.8000031,0.4499969,1.4000015,0.4400024,2.1900024,0c7.5699997-4.2299957,15.1700058-8.4100037,22.7499924-12.6100006
		c12.1600037-6.7400055,24.3099976-13.5,36.4900055-20.2099915c2.8999939-1.6000061,5.7200012-3.3600006,8.75-4.7100067
		c-0.0200043,2-0.0500031,4-0.0399933,6c0,1.3600006,0.0299988,2.7200012,0.2899933,4.0599976
		c0.5299988,2.7200012-0.0099945,5.4100037-0.2200012,8.1199951c-0.1100006,0.0500031-0.2200012,0.0899963-0.3200073,0.1499939
		c-14.25,8.9400024-28.5099945,17.8699951-42.7599945,26.8099976c-8.2299957,5.1600037-16.4499969,10.3199921-24.6699982,15.4900055
		c-0.8499985,0.5299988-1.5800018,0.6999969-2.5299988,0.1000061C97.75,194.8042755,83.1200027,185.6442719,68.4900055,176.4742737
		C60.7700005,171.6342926,53.0400009,166.8042908,45.3199997,161.9642792z"></path>
	<path d="M43.2700005,120.2442856c-0.0900002-3-0.6100006-5.9599991-0.9199982-8.9400024
		c-0.0299988-0.3099976-0.2200012-0.7099991,0.0099983-0.9199982c0.3300018-0.2900009,0.6599998,0.1100006,0.9500008,0.25
		c13.1300011,6.3700027,26.2499962,12.7600021,39.3699989,19.1299973c10,4.8600006,20,9.6999969,29.9899979,14.5699921
		c0.5999985,0.2899933,1.0599976,0.3099976,1.6600037,0.0099945c11.8600006-5.7899933,23.7200012-11.5500031,35.5899963-17.3199997
		c11.3999939-5.5400009,22.8000031-11.0800018,34.1999969-16.6100006c0.3200073-0.1500015,0.6600037-0.2699966,1.1799927-0.4800034
		c-0.1900024,3.4499969-0.7400055,6.7399979-0.7599945,10.0699997c-0.25,2.2200012-0.5099945,4.4400024-0.7599945,6.659996
		c-5.1900024,2.9100037-10.3899994,5.8200073-15.5800018,8.7299957
		c-8.4400024,4.7200012-16.8800049,9.4400024-25.3199921,14.1600037c-9.4199982,5.2700043-18.8300018,10.5299988-28.25,15.8000031
		c-0.7699966,0.4299927-1.4899979,0.4100037-2.2600021-0.0200043c-7.3899994-4.1399994-14.7900009-8.2700043-22.1800003-12.3999939
		c-15.3399963-8.5800018-30.6900024-17.1699982-46.0299988-25.75c-0.4199982-2.0699997-0.5099983-4.1900024-0.7599983-6.2799988
		l0.0400009-0.0699997l-0.0499992-0.0699997C43.3499985,120.5842896,43.3100014,120.4142838,43.2700005,120.2442856z"></path>
	<path d="M185.7100067,256.3542786c0.4100037,5.2999878,0.7599945,10.6000061,1.2599945,15.8900146
		c0.2299957,2.4200134,0.4100037,4.8399963,0.5599976,7.2600098c0.1399994,2.3399963-0.3600006,3.0599976-2.6399994,3.6700134
		c-3.4900055,0.9400024-7.0800018,1.1300049-10.6499939,1.4500122c-10.1199951,0.9100037-20.2799988,0.75-30.4300079,0.9700012
		c-0.8399963,0.019989-1.6799927,0.0400085-2.5200043,0.0599976c-0.7899933-0.2000122-1.6199951,0.1600037-2.5500031-0.1799927
		c0.3999939-0.2799988,0.6799927-0.5,0.9799957-0.6900024c12.8999939-8.019989,25.8000031-16.0499878,38.7200012-24.0499878
		C180.8399963,259.2642822,183.1600037,257.6142578,185.7100067,256.3542786z"></path>
	<path d="M88.0999985,285.544281c-11.6200027-0.25-23.2699966,0-34.8600006-1.1499939
		c-3.6599998-0.3599854-7.3100014-0.7900085-10.8199997-1.9700012c-1.9199982-0.6400146-2.2400017-1.0599976-2.1800003-3.0400085
		c0.2400017-7.5799866,0.9599991-15.1300049,1.4799995-22.6900024c0.4700012-0.0100098,0.8300018,0.269989,1.2000008,0.5
		c14.1399994,8.7799988,28.2799988,17.5599976,42.4000015,26.3699951
		C86.2799988,284.1642761,87.4000015,284.56427,88.0999985,285.544281z"></path>
	<path d="M113.4800034,123.8942871c-0.4199982,0-0.7699966-0.1900024-1.1299973-0.3600006
		c-9.1999969-4.3000031-18.4000015-8.5899963-27.5999985-12.8899994
		c-15.0999985-7.0599976-30.1900024-14.1299973-45.2999992-21.1699982
		c-0.9799995-0.4499969-1.5299988-1.0599976-1.9199982-2.0800018c-1.1899986-3.0800018-2.2299995-6.2300034-3.7099991-9.1999969
		c-0.2200012-0.4499969-0.6199989-1.0800018-0.3100014-1.4400024c0.3800011-0.4400024,0.9399986,0.1299973,1.3800011,0.3000031
		C53.25,84.2842865,71.6200027,91.5142899,89.9800034,98.7442856c7.5500031,2.9700012,15.0999985,5.9300003,22.6399994,8.9300003
		c0.7600021,0.3000031,1.3700027,0.1500015,2.0500031-0.1200027c15.4599991-6.0999985,30.9300003-12.1800003,46.4000015-18.2699966
		c10.7100067-4.2099991,21.4199982-8.4199982,32.1300049-12.6299973c0.3200073-0.1299973,0.6900024-0.4700012,1-0.2399979
		c0.3300018,0.25,0.0500031,0.6699982-0.0200043,1.0100021c-0.6399994,3.3899994-1.6999969,6.6399994-3.1600037,9.7699966
		c-0.2899933,0.6299973-0.7200012,1.0100021-1.3300018,1.2900009c-10.2899933,4.8000031-20.5700073,9.6100006-30.8500061,14.4199982
		c-9.5200043,4.4499969-19.0400085,8.909996-28.5700073,13.3600006c-5.0699997,2.3700027-10.1299973,4.75-15.2099991,7.1100006
		C114.5599976,123.6242828,114.0599976,123.8942871,113.4800034,123.8942871z"></path>
</g>
</svg>
