<!--?xml version="1.0" encoding="utf-8"?-->
<!-- Generator: Adobe Illustrator 24.2.3, SVG Export Plug-In . SVG Version: 6.00 Build 0)  -->
<svg version="1.1" id="Camada_1" xmlns="http://www.w3.org/2000/svg" xmlns:xlink="http://www.w3.org/1999/xlink" x="0px" y="0px" viewBox="0 0 229 418" enable-background="new 0 0 229 418" xml:space="preserve">
<g onclick="select(this)" class="" id="detalhe-lateral" fill="#ffffff">
	<path d="M180.3169098,283.9697266c-0.3938751-5.0127869-0.5727386-10.0362244-0.8100586-15.0577393
		c-0.282486-5.9776611-0.5378265-11.9543762-0.7411346-17.9355164c-0.1653748-4.8657379-0.3150482-9.7320404-0.4851532-14.597168
		c-0.2554474-7.3048248-0.3230438-14.611908-0.5149689-21.9160767c-0.4473877-17.026535-0.1677856-34.0520782-0.1540527-51.0777435
		c0.0038757-4.8250732,0.1699829-9.658493,0.4935303-14.4725189c0.3222656-4.7945404,0.6694794-9.5894623,1.1401062-14.3773499
		c0.9476013-9.6400223,2.522995-19.1615753,4.9313965-28.5371094c1.2419739-4.834877,2.7194824-9.608345,4.7613068-14.1821518
		c0.1013336-0.2270203,0.0921478-0.5706024,0.4303741-0.6598129l-0.0207214-0.0194473
		c0.2196045,0.4597931-0.0706329,0.8524323-0.1864014,1.2576218c-1.8860931,6.6003571-3.1680298,13.3224106-4.0814209,20.1194611
		c-0.4264069,2.5465698-0.4257202,5.1188202-0.4629211,7.688797c-1.2378235,10.3072052-2.2989655,20.6278992-1.9510498,31.0315857
		c0.0821381,2.4562225,0.7914734,4.8716583,0.4144745,7.3699951c-0.3516235,2.3302765-0.4445953,4.684967-0.4245453,7.0450745
		c0.0559845,6.582428,0.098587,13.1757202-0.1155396,19.7438812c-0.1456757,4.4695435,0.7072906,8.6924438,1.4236298,12.9963837
		c0.8506927,5.1109314,0.9480896,10.2349701,0.2398224,15.3761444c-0.3209076,2.3293762-0.54039,4.6726532-0.8144379,7.008606
		c-0.0490723,0.4181976,0.1008759,0.7893066,0.2301788,1.1618195c1.989563,5.7316895,2.4832916,11.6064911,1.5848999,17.5875092
		c-0.3058167,2.0359802-0.3425293,4.0207977,0.0992279,6.0381927c0.4457397,2.035675,0.5504761,4.1139832,0.5100098,6.1976929
		c-0.1430817,7.3665771,0.683609,14.670929,1.384079,21.9852905c0.2195892,2.2928162,0.3340759,4.5978088,0.3145142,6.9078064
		c-0.0094452,1.1127625-0.4973297,1.8139954-1.5031281,2.1914368
		C184.1745911,283.5326233,182.2864838,283.9595947,180.3169098,283.9697266z"></path>
	<path d="M42.4525146,112.7778625c0.0891304-1.9299164-0.3513565-3.8075333-0.5991211-5.7007065
		c-0.3732796-2.8522339-0.8833809-5.6866074-1.2544365-8.5390854c-0.0882454-0.6783676-0.8202057-1.239563-0.2923431-2.1296234
		c0.9014931,1.8765564,1.3568306,3.8127823,1.9383469,5.6982117c1.892025,6.1343842,3.1134682,12.4154968,4.1846809,18.7393494
		c0.7700386,4.5458832,1.3809853,9.100647,1.8283081,13.6878357c0.4091072,4.1953125,0.7145462,8.3927002,0.9685097,12.6003418
		c1.2914009,21.395874,0.6496124,42.8105927,0.6577225,64.2175446c0.0015144,3.9883881-0.0966606,7.98703-0.1893997,11.9799347
		c-0.1455345,6.2663422-0.2806168,12.5340118-0.535202,18.7964172c-0.1799202,4.4257202-0.3308334,8.8512878-0.473175,13.2781372
		c-0.1807213,5.6206055-0.3782196,11.2443237-0.7604179,16.8535767c-0.2574959,3.7790527-0.196804,7.579834-0.7390556,11.3394775
		c-1.7242279-0.0837708-3.3719635-0.5368042-4.9835625-1.1030884c-1.6184654-0.5686951-2.0121346-1.1141663-1.9840698-2.8423157
		c0.0452156-2.7842407,0.1874161-5.5641479,0.4140472-8.3428955c0.431675-5.2928772,0.7171974-10.5978699,1.1692505-15.8888245
		c0.4074936-4.7694855-0.0650482-9.592804,0.9218788-14.3255157c0.1883888-0.9033813,0.0964546-1.8375397-0.042675-2.744751
		c-0.4781952-3.1182098-0.3503647-6.2133179,0.3311234-9.2835846c0.1949081-0.8781128,0.1388702-1.7289124,0.0771484-2.6109161
		c-0.2841988-4.0611115-0.8382988-8.1011047-0.8580627-12.1838684c-0.0239258-4.942688,1.0864563-9.6556549,2.7438126-14.2636871
		c0.3171997-0.881958,0.5332336-1.7270813,0.4237556-2.675354c-0.1839256-1.5931854-0.141243-3.1873627,0.1506195-4.7743683
		c0.1077003-0.5856476,0.1623573-1.1927948,0.1462173-1.7875824c-0.1308823-4.8229065-0.2779045-9.645401-0.4356956-14.4675293
		c-0.0367355-1.1227112,0.0765038-2.2321014,0.1623611-3.3472748c0.144268-1.8738251,0.1034241-3.7475739-0.048111-5.6235199
		c-0.4092598-5.0663605-0.1779556-10.145752-0.0681305-15.2097778c0.196312-9.0511017-0.2082138-18.0476379-1.5041733-27.0064316
		c-0.2226868-1.5393982-0.3748512-3.0890045-0.5595245-4.6338654c0.5152626-1.2158585-0.2161751-2.3334808-0.3642349-3.4790726
		C42.6969795,115.5973511,42.9329262,114.1476212,42.4525146,112.7778625z"></path>
</g>
<g onclick="select(this)" class="" id="detalhe-punho" fill="#801815">
	<path d="M0.24,114.41436c0.5066518-1.0333099,0.4623487-2.1853943,0.7029477-3.2761536
		c0.1164828-0.5280762,0.0638708-1.1035385,0.4705237-1.5418396c4.7471166,1.9192047,9.661128,3.2643356,14.739399,3.8523865
		c5.6213551,0.6509323,11.2752342,0.8683701,16.9397697,0.6843262c2.350296-0.076355,4.6895752-0.1641083,7.0189934-0.5657349
		c0.8487549-0.1463318,1.4449158-0.8912582,2.3408813-0.7894821c0.4804115,1.3697586,0.2444649,2.8194885,0.4263916,4.2271881
		c0.1480598,1.1455917,0.8794975,2.2632141,0.3643112,3.4790955c-2.841095,1.3330917-5.9081955,1.7382584-8.9673958,1.7949448
		c-7.0645809,0.130928-14.1399384,0.3043518-21.1575737-0.9066238c-3.6142483-0.6236801-7.2130728-1.2875977-10.7040243-2.4304047
		c-0.7462479-0.2443008-1.4505816-0.6164856-2.1742241-0.9297638C0.24,116.8129883,0.24,115.613678,0.24,114.41436z"></path>
	<path d="M184.6167908,120.2029724c0.0372009-2.5699768,0.0365143-5.1422272,0.4629211-7.688797
		c0.9396362,0.5695877,1.9786682,0.9036407,3.0544434,0.9562988c5.6075439,0.2745056,11.228775,0.5989304,16.8232422-0.0108337
		c3.9904938-0.4349365,7.9450073-1.161026,11.8859558-1.9935684c3.0928345-0.6533813,6.000824-1.8692627,9.0736084-2.5406494
		c0.6487732-0.1417542,1.2501068-0.5003433,1.873291-0.7590942c1.0290527,2.4653549,1.3149261,5.0500107,1.1316986,7.6846695
		c-0.0435181,0.6258698-0.7669983,0.7556763-1.2712555,0.942894c-3.2154999,1.1938553-6.5277557,2.0655441-9.8517761,2.8920898
		c-8.3978119,2.0882339-16.9433594,2.4642563-25.539505,2.1048508c-1.8251953-0.0763016-3.6426392-0.4177322-5.4543915-0.6971664
		C186.0230713,120.9730606,185.2617188,120.7066879,184.6167908,120.2029724z"></path>
</g>
<path d="M189.3682404,91.1565399c0.0375671-0.1338425,0.0751343-0.2676697,0.1127014-0.4015045
	c0.0261383,0.028389,0.072525,0.0551529,0.0749512,0.0854416c0.012146,0.1519699,0.0203705,0.3102493-0.208313,0.2966614
	C189.3475342,91.1370926,189.3682556,91.1565399,189.3682404,91.1565399z"></path>
<g onclick="select(this)" class="" id="estampa-primaria" fill="#bf0811">
	<path d="M42.4525146,112.7778625c-0.8959656-0.1017761-1.4921265,0.6431503-2.3408813,0.7894821
		c-2.3294182,0.4016266-4.6686974,0.4893799-7.0189934,0.5657349c-5.6645355,0.1840439-11.3184147-0.0333939-16.9397697-0.6843262
		c-5.0782709-0.5880508-9.9922829-1.9331818-14.739399-3.8523865c1.6968609-8.914566,2.4887414-17.9633636,4.0001216-26.9052277
		c0.8855782-5.2393951,1.1788788-10.5595551,2.2399788-15.7781677c1.7292542-8.504673,4.4516625-16.5878448,9.6675148-23.6606789
		c2.1221428-2.8776779,4.5377884-5.4906731,7.3400173-7.7103424c1.3638763-1.0803337,2.3639584-2.5835495,3.9253693-3.4050064
		c3.6099453-1.8991852,7.2583332-3.7276974,11.0324497-5.2813187c9.9905014-4.1125946,20.000515-8.1803665,29.4651909-13.4415846
		c1.9752426-1.0979939,3.9976349-2.0948963,5.5164642-3.8997173c0.8439026-1.0028076,2.0582657-1.6470857,3.4946365-1.5515785
		c-0.7558746,0.5328951-1.5331879,1.0660648-1.6987534,2.062746c-0.1725082,1.0384579-0.0040817,2.0608931,0.2305679,3.0806484
		c0.8830185,3.837533,3.1326141,6.8899431,5.7837296,9.6242762c4.1407776,4.2707672,9.0156021,7.5629692,14.3707428,10.1524506
		c3.6889725,1.783802,7.5359039,2.990303,11.6402817,3.2895241c0.3121796,0.0227585,0.7304688,0.2811508,0.9042816-0.2512054
		c0.4935303,0.34338,1.0183792,0.5796623,1.6344376,0.6280861c2.3348923,0.1835098,4.6674423,0.3629379,6.9804306-0.1974907
		c1.4196167-0.1702423,2.8583298-0.2460022,4.2553558-0.5279999c4.6530914-0.9392471,8.8572388-3.0047417,12.9284058-5.3568268
		c3.3010712-1.907156,6.3566895-4.1787777,9.102417-6.8089809c3.0971222-2.9667912,5.4711609-6.4257278,6.6416321-10.6471872
		c0.6194-2.2338791,0.0160675-4.2730255-1.6763763-4.744153c1.9420929-0.322947,3.1181183,0.8977289,4.248703,2.1526375
		c0.3474121,0.3856363,0.6847076,0.7271471,1.1279755,1.0213566c8.8716431,5.8886719,18.7898102,9.6126652,28.5267792,13.6823082
		c5.0673981,2.11796,10.038208,4.4440956,15.0911713,6.5874882c0.2853394,0.1210365,0.5591431,0.2838707,0.8124237,0.4636726
		c11.9666901,8.4952011,19.1779327,20.08321,21.3682709,34.4821701c1.7443542,11.4671555,4.7389374,22.6825333,6.318634,34.166687
		c0.3372803,2.4519806,0.734375,4.8957443,1.1039429,7.3433762c-0.6231995,0.2587509-1.2245331,0.6173401-1.8733063,0.7590942
		c-3.0727844,0.6713867-5.9807739,1.8872681-9.0736084,2.5406494c-3.9409485,0.8325424-7.895462,1.5586319-11.8859558,1.9935684
		c-5.5944672,0.6097641-11.2156982,0.2853394-16.8232422,0.0108337c-1.0757751-0.0526581-2.1148071-0.3867111-3.0544434-0.9562912
		c0.9133911-6.7970581,2.1953278-13.5191116,4.0814209-20.1194687c0.1157684-0.4051895,0.4060059-0.7978287,0.1864471-1.257576
		c0.2286835,0.013588,0.220459-0.1446915,0.208313-0.2966614c-0.0024261-0.0302887-0.0488129-0.0570526-0.0749512-0.0854416
		c-0.0375671,0.1338348-0.0751343,0.267662-0.1127014,0.4015045c-0.3382111,0.0892105-0.3290253,0.4327927-0.4303589,0.6598129
		c-2.0418243,4.5738068-3.5193329,9.3472748-4.7613068,14.1821518c-2.4084015,9.3755341-3.9837952,18.8970871-4.9313965,28.5371094
		c-0.4706268,4.7878876-0.8178406,9.5828094-1.1401062,14.3773499c-0.3235474,4.8140259-0.4896545,9.6474457-0.4935303,14.4725189
		c-0.0137329,17.0256653-0.293335,34.0512085,0.1540527,51.0777435c0.191925,7.3041687,0.2595215,14.6112518,0.5149689,21.9160767
		c0.170105,4.8651276,0.3197784,9.7314301,0.4851532,14.597168c0.2033081,5.9811401,0.4586487,11.9578552,0.7411346,17.9355164
		c0.2373199,5.0215149,0.4161835,10.0449524,0.8100586,15.0577393c-7.654129,1.0699463-15.3581696,1.3612976-23.0732422,1.4522095
		c-12.9472198,0.1525879-25.8881531,0.5621033-38.8301086,0.9285583c-6.7608643,0.1914368-13.4958496-0.465271-20.2470093-0.5768127
		c-8.7105942-0.1439209-17.4220123-0.2460938-26.1319199-0.4232483c-8.3101959-0.1690063-16.6230583-0.3526306-24.8476982-1.7511597
		c0.5422516-3.7596436,0.4815598-7.5604248,0.7390556-11.3394775c0.3821983-5.6092529,0.5796967-11.2329712,0.7604179-16.8535767
		c0.1423416-4.4268494,0.2932549-8.852417,0.473175-13.2781372c0.2545853-6.2624054,0.3896675-12.5300751,0.535202-18.7964172
		c0.0927391-3.9929047,0.1909142-7.9915466,0.1893997-11.9799347c-0.00811-21.4069519,0.6336784-42.8216705-0.6577225-64.2175446
		c-0.2539635-4.2076416-0.5594025-8.4050293-0.9685097-12.6003418c-0.4473228-4.5871887-1.0582695-9.1419525-1.8283081-13.6878357
		c-1.0712128-6.3238525-2.2926559-12.6049652-4.1846809-18.7393494c-0.5815163-1.8854294-1.0368538-3.8216553-1.9383469-5.6982117
		c-0.5278625,0.8900604,0.2040977,1.4512558,0.2923431,2.1296234c0.3710556,2.852478,0.8811569,5.6868515,1.2544365,8.5390854
		C42.1011581,108.9703293,42.5416451,110.8479462,42.4525146,112.7778625z"></path>
	<path d="M127.5429077,26.2013454c-6.4310379-0.0194588-12.8620758-0.0499077-19.2931213-0.0533142
		c-2.8337784-0.0015011-5.6675949,0.0519543-8.5014725,0.080719c-5.0048599-4.1429901-10.5227814-7.7175179-14.446312-13.0585613
		c-0.7870941-1.0714455-1.3979874-2.228776-1.9132462-3.447176c-0.3056183-0.7226677-0.0586929-0.9086885,0.6669769-0.8316221
		c7.1110229,0.755187,14.2389526,1.3106298,21.3717041,1.816123c5.5933609,0.3963957,11.1826706,0.3527241,16.7722092-0.018959
		c5.381424-0.3578434,10.7616425-0.7339849,16.1413574-1.1168613c1.9062347-0.1356678,3.8093567-0.3148613,5.8538818-0.4858923
		c-0.84935,2.3374853-2.1702576,4.2213564-3.6611938,5.995595c-1.937149,2.3052006-4.1574707,4.311861-6.5503387,6.1364632
		C131.8248596,22.8637238,129.6888275,24.5390263,127.5429077,26.2013454z"></path>
</g>
<g onclick="select(this)" class="" id="estampa-secundaria" fill="#801815">
	<path d="M114.2479019,36.7256889c0.0009003,0.039959-0.0038452,0.0809784,0.0034866,0.1197166
		c0.5117035,2.7012749-0.2686234,4.6270332-3.1497879,5.3484421c-0.6578369,0.1647148-0.8785172,0.6649666-0.8915482,1.3695602
		c-0.0604019,3.2667542-0.1002197,3.306694,2.855545,4.7018089c0.9422684,0.4447479,1.1048965,1.0371323,1.2428589,2.0074425
		c0.3367081,2.3680763-0.5117798,3.7866592-2.7891464,4.4143639c-1.05439,0.2906151-1.2331314,1.0178452-1.346283,2.0653572
		c-0.2301559,2.1308289,0.4057236,3.5102272,2.5381317,4.0791855c1.2889862,0.3439255,1.5073929,1.2085571,1.6112595,2.4894714
		c0.1676941,2.0680161-0.4631577,3.3288651-2.4678802,3.8934097c-1.3046875,0.3674011-1.8901825,1.2043076-1.6399841,2.5910034
		c0.076828,0.4257736,0.0526886,0.8817291,0.0031967,1.3157196c-0.0946884,0.8302612,0.1886368,1.3988495,1.0017014,1.66819
		c0.037468,0.012413,0.0710907,0.0363007,0.1067276,0.0543976c3.1091614,1.5793839,3.0951309,1.5787735,2.9432907,5.1163788
		c-0.0239868,0.5588989-0.2007065,0.904953-0.7071304,1.1084061c-0.2218323,0.089119-0.4304962,0.2110291-0.6448441,0.3186264
		c-3.0095215,1.510704-3.018631,1.5462418-2.7010117,4.9322281c0.0477524,0.5090637,0.2659912,0.8052063,0.6977005,1.0127411
		c0.5404205,0.2597961,1.0470428,0.6233368,1.6130905,0.7898331c1.4932632,0.4391708,1.7033234,1.4324799,1.7985077,2.8706894
		c0.1265564,1.9123688-0.499588,2.9649582-2.266655,3.5615768c-0.6453934,0.2179031-1.639267,0.3946381-1.7477417,1.1024551
		c-0.1909332,1.2459106-0.1012192,2.5500488,0.005394,3.818512c0.0410233,0.4881439,0.6784821,0.6780396,1.1199265,0.8045883
		c2.29702,0.6585007,3.2385864,2.0436401,2.8739929,4.4880066c-0.1459503,0.9785233-0.2778931,1.6751709-1.2764664,1.9707184
		c-0.0377197,0.0111618-0.071579,0.0352936-0.1073532,0.0531311c-2.9996719,1.4953156-2.9919662,1.4946823-2.7091141,4.8974991
		c0.0369797,0.444931,0.1665955,0.7480392,0.5831223,0.946785c0.5402451,0.2577896,1.0290375,0.6730118,1.5925751,0.8228302
		c1.6223068,0.4313202,1.8976669,1.4650879,1.9289627,3.0246887c0.0342255,1.705452-0.3414841,2.8408051-2.0573425,3.3054428
		c-1.8402405,0.4983215-2.1841965,1.7492142-2.0968628,3.5097122c0.0631638,1.273468,0.2742386,2.1285477,1.5801697,2.5185547
		c1.9666901,0.587326,2.7812347,1.8050995,2.5791168,3.9741592c-0.1203156,1.2912445-0.3663254,2.1270905-1.6364288,2.4688263
		c-2.0712433,0.557312-2.7460785,1.8536072-2.5267181,3.9799347c0.118721,1.1507111,0.3465729,1.9129181,1.4761658,2.2174225
		c2.2227097,0.5991516,2.9597778,2.0090027,2.6642227,4.2614899c-0.1304932,0.9945221-0.2430191,1.6318359-1.2638626,2.1096039
		c-2.9869461,1.3979034-2.944931,1.4539948-2.8288574,4.8131561c0.0208511,0.6038208,0.2033081,0.9916992,0.7695389,1.1928558
		c0.1122513,0.0398865,0.2163925,0.1029663,0.3234634,0.1569672c3.1748199,1.6008759,3.1621628,1.6002197,2.9644852,5.2172546
		c-0.0281525,0.5151215-0.193924,0.8243408-0.6590576,1.0035706c-0.1857452,0.0715637-0.3599548,0.1731873-0.5388031,0.2623444
		c-3.0457382,1.5182037-3.0317764,1.5175476-2.8586884,4.9414673c0.0282898,0.5596924,0.2158279,0.9052734,0.721962,1.1031342
		c0.1483307,0.0579681,0.2872009,0.1402435,0.4300385,0.2121124c3.0758209,1.5476685,3.0647507,1.5471649,2.9009018,5.0468445
		c-0.0252991,0.5403442-0.1708298,0.9245758-0.6780548,1.142746c-0.1832504,0.0788116-0.3482208,0.2129517-0.5371628,0.2637939
		c-2.393158,0.643692-3.2405472,2.1799011-2.8624039,4.600235c0.1170425,0.7491302,0.2125778,1.3076782,0.982605,1.5514526
		c0.0376892,0.0119324,0.0701294,0.0422058,0.1080322,0.0513153c2.7567825,0.661087,3.4077759,2.5277405,3.0029678,5.0843353
		c-0.0906525,0.5724945-0.1700211,0.9934387-0.7554169,1.1851349c-0.1502838,0.0492401-0.2868118,0.1403809-0.4297867,0.2120361
		c-2.9633179,1.4854431-2.9458084,1.4851074-2.8852921,4.8041992c0.0117722,0.6460114,0.1823807,1.0776825,0.8038177,1.2919159
		c0.1126251,0.0388184,0.217659,0.1003418,0.3248672,0.1540375c3.1427841,1.5738068,3.132782,1.5732727,2.9255295,5.1235199
		c-0.0288467,0.4941254-0.1662216,0.8453979-0.6167297,1.0574341c-0.1807632,0.085083-0.357048,0.1796875-0.5354309,0.2698364
		c-2.9786835,1.5057831-2.9569626,1.5054626-2.9051666,4.7874908c0.010437,0.6614075,0.2441177,1.0399628,0.805481,1.3072662
		c0.7216415,0.3436279,1.4020691,0.7989349,2.1524811,1.0506134c0.9400406,0.3152466,1.0003967,0.9338684,1.1343231,1.8022766
		c0.3787308,2.4557495-0.5493088,3.9342499-2.8935089,4.6099701c-0.9500046,0.2738342-1.1292419,0.9243622-1.228096,1.8828278
		c-0.2128525,2.0636139,0.2169952,3.5468597,2.4340744,4.1363525c1.4133911,0.375824,1.6369476,1.3915405,1.713707,2.7945862
		c0.1038132,1.8973694-0.4608994,2.9845123-2.2738724,3.5486298c-0.6461105,0.2010345-1.6147232,0.3953705-1.7236176,1.1386261
		c-0.1829834,1.2488708-0.0987396,2.545929-0.0298691,3.8174438c0.0226974,0.4190369,0.5820389,0.5002899,0.9274063,0.6785431
		c3.2075272,1.6556854,3.19487,1.6519775,3.0422668,5.1785736c-0.0242538,0.5604553-0.2027969,0.903717-0.7109375,1.1045685
		c-0.222229,0.0878448-0.4305878,0.210968-0.6445999,0.3193512c-3.0258865,1.5327759-3.0807724,1.6467133-2.6939316,5.0549774
		c0.0398178,0.350769,0.1254883,0.6133575,0.4558563,0.767807c0.2170639,0.1014709,0.4265823,0.2189789,0.6406097,0.3270416
		c3.1157455,1.5732269,3.1038971,1.5726318,2.9521942,5.1127167c-0.023407,0.5463867-0.1684723,0.9163208-0.6919556,1.1171417
		c-0.2601395,0.0997772-0.5039978,0.2423401-0.7542038,0.367569c-2.8052063,1.4039612-3.0500107,1.8853607-2.5969543,4.9945984
		c0.0503311,0.3454285,0.1694336,0.6109009,0.4670334,0.7847137c0.2068558,0.1208038,0.4219437,0.2278595,0.6355591,0.3367157
		c3.1100693,1.5847931,3.0963058,1.5839996,2.9415588,5.1180725c-0.024437,0.558197-0.2001114,0.905426-0.7079697,1.1079407
		c-0.2220078,0.0885315-0.4303665,0.2113037-0.6446686,0.3190613c-3.0166168,1.5164795-3.016304,1.529541-2.6978302,4.9323425
		c0.0416946,0.4455566,0.1865387,0.7618713,0.5875015,0.956543c0.1797638,0.0872803,0.3562012,0.1814575,0.5341263,0.2724915
		c3.1042862,1.5882568,3.0897446,1.587616,2.9298782,5.1273193c-0.0254898,0.5642395-0.2170563,0.8966675-0.7202148,1.0987244
		c-0.2588654,0.1039734-0.5030289,0.244751-0.7530441,0.3704529c-2.7928696,1.4042053-3.0077209,1.8317566-2.573822,4.9786072
		c0.0480957,0.3488464,0.1662674,0.6100159,0.4651566,0.7825317c0.207428,0.1197205,0.4218292,0.2276917,0.635498,0.3362732
		c3.108963,1.5791626,3.0965347,1.5784607,2.9446716,5.118988c-0.0236053,0.5502319-0.1847916,0.8988342-0.6956635,1.1168518
		c-0.5138245,0.2192383-0.9912643,0.526001-1.5094376,0.7322693c-1.1831055,0.4707947-2.114357,1.0286255-1.8695831,2.5924683
		c0.1463013,0.9347229-0.766716,0.5153809-1.2128372,0.6870728c-13.280571-0.6664734-26.5776138-0.6193848-39.8675995-0.8959656
		c-7.3834572-0.1536865-14.7638741-0.4476624-22.0643044-1.6978455c0.2434654-0.3938599,0.237606-0.8448792,0.2610321-1.2773438
		c0.3885498-7.1732483,0.8045883-14.3453064,1.1360016-21.5212708c0.2927513-6.3387604,0.5158882-12.6811066,0.7195816-19.0234833
		c0.2063828-6.426239,0.4304123-12.8536377,0.4967232-19.282074c0.0486412-4.7147369,0.2373199-9.4266815,0.256073-14.1392212
		c0.0558472-14.0315552,0.0225372-28.0634613,0.0166473-42.0952301c-0.0005684-1.3586578-0.0288811-2.7182465-0.0848694-4.0757446
		c-0.2660866-6.4511871-0.3078728-12.9122009-0.8838959-19.3500061c-0.2905998-3.247818-0.4177895-6.5132446-0.8031502-9.7487793
		c-0.4320602-3.6276703-0.9118347-7.2512741-1.5294838-10.8584671c-0.7267494-4.2444-1.4174881-8.4926224-2.4063492-12.6854935
		c-0.9812164-4.1604538-2.2538795-8.2403259-3.4546776-12.3398666c-0.2703056-0.1707153-0.2728348-0.469162-0.3522415-0.7322311
		c-1.8546638-6.143898-3.8011055-12.2535706-6.6479492-18.03302c-0.1914101-0.3885956-0.2902451-0.8270416-0.4005699-1.2505188
		c-0.7119751-2.7328415-0.9050903-5.558609-0.629776-8.3142548c0.3153725-3.1565781-0.161644-6.2528763-0.1439056-9.3782387
		c0.021122-3.7211342-0.6115093-7.4015083-1.0539074-11.0893021c-0.2229748-1.8586845-0.4448261-3.7331581-0.8953552-5.5437851
		c-0.3379307-1.3581085,0.1695919-1.7727661,1.3301277-2.2245369c5.478178-2.1325455,11.1905193-3.4443092,16.8429623-4.9713669
		c8.0363274-2.1711006,15.846859-4.9324112,23.2173424-8.8566799c3.13871-1.6711445,6.0530396-3.711937,9.154068-5.4421425
		c2.3743973,2.6050644,5.0812988,4.8162212,7.952095,6.8541374c5.8158417,4.1285381,12.1306458,6.9976292,19.2748566,7.8445415
		c0.3013077,0.035717,0.718071,0.3689003,0.8777084-0.2206306c0.6747284,0.3237343,1.3360901,0.6256218,2.1280441,0.6259079
		C112.3668213,36.5161324,113.3073425,36.6497993,114.2479019,36.7256889z"></path>
	<path d="M110.7269592,286.3356934c-0.1926041-2.0905151-0.0421753-1.8816528,1.5647202-3.0375366
		c2.1954651-1.5792236,3.8107605-0.303833,5.4712067,0.7174988c0.802124,0.4933777,0.2287064,1.5419922,0.3131943,2.3349304
		c-2.128418,0.0012207-4.2568436,0.0024414-6.3834839,0.0036621c-0.1488037-0.1480713-0.3002472-0.1384583-0.4523621-0.0024109
		C111.0691376,286.3464661,110.8980484,286.341095,110.7269592,286.3356934z"></path>
	<path d="M111.2402344,286.3518372c0.1521149-0.1360474,0.3035583-0.1456604,0.4523621,0.0024414
		C111.5406113,286.3534851,111.390419,286.3526611,111.2402344,286.3518372z"></path>
	<path d="M122.1810837,165.4438019c-0.1777191,0.6423798,0.3447952,1.4981079-0.3266678,1.9137726
		c-1.0786667,0.6677399-2.2605133,1.5357666-3.4305267,1.586441c-1.1761398,0.0509491-2.3970642-0.8399658-3.3979797-1.6132507
		c-0.7388916-0.570816-0.2565918-1.5804901-0.3023376-2.3885345c-0.0294037-0.5194702-0.3093185-1.2236023,0.2792511-1.5544434
		c1.1093063-0.6235352,2.2883987-1.5586243,3.4363022-1.5555573c1.1491089,0.0030975,2.357193,0.89888,3.4210434,1.5863495
		C122.5456619,163.861557,121.9955215,164.7689972,122.1810837,165.4438019z"></path>
	<path d="M122.1791,152.7454681c-0.1679916,0.6371613,0.3400879,1.4925842-0.3150558,1.9046326
		c-1.0706635,0.6733398-2.2727051,1.5927887-3.4101486,1.5802002c-1.1887436-0.0131683-2.4814606-0.8520355-3.5074463-1.6237946
		c-0.6443405-0.4846497-0.2035751-1.5700073-0.2260971-2.382019c-0.014473-0.5217743-0.3016205-1.2178955,0.288002-1.548584
		c1.1071167-0.6209106,2.2822495-1.5597229,3.425209-1.5542755c1.1429062,0.0054321,2.3382492,0.9152527,3.4009476,1.5988922
		C122.5290985,151.1673279,122.0093002,152.0657349,122.1791,152.7454681z"></path>
	<path d="M122.178833,267.0145569c-0.1636276,0.6395874,0.3324661,1.4879456-0.3212662,1.9077148
		c-1.0635681,0.6829224-2.1906128,1.5742493-3.4255905,1.5828857c-1.2369537,0.0086975-2.4088898-0.8435364-3.413269-1.5872192
		c-0.7622452-0.5643311-0.2277679-1.6456909-0.2978439-2.4909363c-0.040062-0.4832153-0.2666855-1.1384583,0.2662201-1.4445496
		c1.099617-0.6316223,2.1988144-1.5650635,3.4346313-1.5671692c1.2366257-0.0021057,2.3637619,0.8978882,3.4268417,1.5770264
		C122.5431442,265.4360962,122.0046234,266.3375549,122.178833,267.0145569z"></path>
	<path d="M122.1756134,63.9148674c-0.1415405,0.6158485,0.3128433,1.4419975-0.2732544,1.8161278
		c-1.0957642,0.6994781-2.2457962,1.6493607-3.5296555,1.6141434c-1.2272644-0.0336533-2.4204788-0.8440018-3.4005737-1.6202164
		c-0.6718063-0.5320587-0.211998-1.5818176-0.2537842-2.3965073c-0.0251923-0.4911728-0.2678757-1.154068,0.2278214-1.4611397
		c1.0783386-0.6679916,2.1911469-1.567131,3.4209061-1.6033211c1.2868805-0.0378723,2.4510193,0.8934746,3.5247192,1.6190414
		C122.5297546,62.3141174,122.0165024,63.2356987,122.1756134,63.9148674z"></path>
	<path d="M122.1787186,254.2838898c-0.1575623,0.6528015,0.3280411,1.5084229-0.305542,1.9280243
		c-1.0541077,0.6981201-2.2012482,1.5639954-3.4243011,1.5896912c-1.2284241,0.0257874-2.4075317-0.8352661-3.4177246-1.5722351
		c-0.7717438-0.5630188-0.2411423-1.6437531-0.3107147-2.4882202c-0.0400314-0.4858704-0.2623749-1.1445007,0.2534866-1.452179
		c1.0899353-0.6500397,2.2066498-1.5596008,3.430603-1.5788574c1.2282562-0.0193939,2.361557,0.891571,3.4300842,1.5629883
		C122.5398407,252.7162323,121.999176,253.6167755,122.1787186,254.2838898z"></path>
	<path d="M122.1767883,178.0356293c-0.1488876,0.6555023,0.3257141,1.5173798-0.2861099,1.9389954
		c-1.0745773,0.7405396-2.2619781,1.746582-3.4975204,1.6778412c-1.1734848-0.0652924-2.4119415-0.8702393-3.4050369-1.6322021
		c-0.7232132-0.5548706-0.2117767-1.6563263-0.266571-2.50914c-0.0307465-0.4784241-0.2814026-1.1230164,0.2880783-1.4314117
		c1.1199417-0.6065216,2.2458725-1.6373596,3.4346313-1.5616302c1.1784744,0.075058,2.3587341,0.9245453,3.4281921,1.6066589
		C122.514801,176.5344696,122.0174866,177.3978882,122.1767883,178.0356293z"></path>
	<path d="M122.1957474,139.970993c-0.1890717,0.701416,0.3278198,1.5598145-0.3352966,1.9753113
		c-1.0760193,0.6742401-2.2759552,1.5843048-3.4252014,1.5865784c-1.1483459,0.0023041-2.3900375-0.8588257-3.4176025-1.5859528
		c-0.7459106-0.527832-0.243721-1.5713806-0.2956009-2.3791351c-0.0336609-0.5239716-0.281105-1.2067871,0.288208-1.5644836
		c1.079567-0.6782532,2.2410507-1.6429901,3.4188156-1.5905762c1.1710587,0.0521088,2.3616791,0.9074249,3.4297104,1.588974
		C122.5587082,138.448349,121.9545364,139.35849,122.1957474,139.970993z"></path>
	<path d="M114.6771469,51.0911102c0.1502304-0.6584358-0.3244553-1.5173836,0.2963181-1.9368629
		c1.0469589-0.7074699,2.1950302-1.5775375,3.4185638-1.5973549c1.2248535-0.0198364,2.3791962,0.8705025,3.4225464,1.562252
		c0.7791443,0.5165977,0.262886,1.5611954,0.316803,2.3639107c0.0351028,0.5228424,0.3019409,1.2304649-0.2405624,1.5695953
		c-1.0760498,0.6726685-2.1991501,1.5503998-3.4286499,1.591671c-1.2394638,0.0416069-2.3599777-0.8860931-3.4324036-1.5505104
		C114.3093872,52.6474991,114.8595428,51.7528648,114.6771469,51.0911102z"></path>
	<path d="M122.1786575,76.5344543c-0.1565933,0.6534729,0.3266296,1.5061188-0.3048019,1.9293671
		c-1.0817413,0.7251129-2.2878647,1.6014557-3.5430603,1.5714722c-1.2049942-0.028801-2.4229889-0.8308868-3.3870697-1.6326752
		c-0.6104507-0.5076828-0.2030411-1.512619-0.2249985-2.2910767c-0.0149307-0.5295029-0.2878571-1.233284,0.2581635-1.5684586
		c1.0801926-0.6630783,2.202179-1.5594635,3.4280701-1.5785904c1.2305145-0.0191956,2.3617172,0.8895798,3.4296036,1.5610199
		C122.5399857,74.9690475,121.9986954,75.8685303,122.1786575,76.5344543z"></path>
	<path d="M122.1898651,241.4763489c-0.1513977,0.7250214,0.3083344,1.6025848-0.2909775,2.0003815
		c-1.0805588,0.7172241-2.2417755,1.6490936-3.5237427,1.6190338c-1.2272797-0.0287628-2.4164429-0.8461151-3.3992538-1.6183319
		c-0.6775131-0.5323181-0.2223969-1.5804596-0.2549591-2.3937073c-0.0207748-0.5191193-0.2964859-1.211441,0.3113785-1.5391693
		c1.1138306-0.6005249,2.1910553-1.5700226,3.440239-1.5397034c1.2451248,0.0301971,2.3345337,0.9641113,3.4016113,1.6382599
		C122.5272217,240.0557556,121.965416,240.9184265,122.1898651,241.4763489z"></path>
	<path d="M122.1910324,89.1587219c-0.1718216,0.6942444,0.3218689,1.5561981-0.3150787,1.9620361
		c-1.0639343,0.6778793-2.1563416,1.6080322-3.4014664,1.6387405c-1.2490997,0.0307999-2.3944473-0.8504791-3.4217987-1.5614395
		c-0.8030319-0.5557327-0.2563095-1.6335449-0.3315353-2.4725342c-0.0435867-0.4862213-0.2682419-1.1518326,0.2296066-1.459465
		c1.0786285-0.6664963,2.1947479-1.5631104,3.4217682-1.5952225c1.2828598-0.0335617,2.4411545,0.9036407,3.5257111,1.6154556
		C122.5101547,87.6879196,121.9940796,88.5674744,122.1910324,89.1587219z"></path>
	<path d="M122.1766968,190.7935638c-0.1556091,0.6462097,0.3313828,1.5076294-0.3106308,1.9234467
		c-1.0634308,0.6887665-2.2340775,1.5534973-3.4084625,1.6343384c-1.1855545,0.0816345-2.4042816-0.8305206-3.4009247-1.5943604
		c-0.8036804-0.6159363-0.2580795-1.7257538-0.3354187-2.6101227c-0.0386047-0.441391-0.2694321-1.0615997,0.2191849-1.3345337
		c1.113121-0.6217499,2.2668381-1.5230408,3.4421921-1.5847015c1.2332153-0.064682,2.4414368,0.9002991,3.5198288,1.6342468
		C122.5103989,189.2756653,122.0227051,190.1446075,122.1766968,190.7935638z"></path>
	<path d="M122.1783218,279.6849976c-0.1538162,0.6545715,0.3337936,1.5380859-0.2999802,1.9235229
		c-1.1071243,0.6733398-2.2782898,1.594574-3.5350571,1.5851135c-1.1614838-0.0087585-2.3152008-0.8197327-3.2810211-1.5751038
		c-0.7579956-0.592804-0.2904739-1.5706177-0.3392181-2.3716431c-0.0316467-0.5202637-0.2992172-1.2206116,0.2638779-1.557312
		c1.0857239-0.649292,2.1935272-1.5586243,3.4248352-1.5692139c1.2343216-0.0106201,2.358284,0.8907166,3.4244537,1.5619507
		C122.5455322,278.1288757,121.9948196,279.022583,122.1783218,279.6849976z"></path>
	<path d="M122.1786194,228.8336639c-0.1843185,0.6625366,0.3677368,1.5567322-0.3461914,2.0016785
		c-1.0688858,0.666153-2.1884842,1.574646-3.425415,1.5575104c-1.2321548-0.0171051-2.3956299-0.8517609-3.4078064-1.5906219
		c-0.6894073-0.5032806-0.2407303-1.4924011-0.2775421-2.2588501c-0.0269394-0.5609283-0.2788162-1.2587585,0.3304367-1.6645813
		c1.0254059-0.6830139,2.1275635-1.5478058,3.2943726-1.562851c1.2647324-0.0163116,2.4164429,0.937973,3.5322647,1.5974121
		C122.5161133,227.2900085,122.0222549,228.1804962,122.1786194,228.8336639z"></path>
	<path d="M122.1915131,127.2578659c-0.1729279,0.6952209,0.3223038,1.5554581-0.3100891,1.9630356
		c-1.0610199,0.6838531-2.2356567,1.5363159-3.4070206,1.6098938c-1.2314453,0.0773926-2.4688416-0.8530426-3.4954376-1.6279907
		c-0.6844635-0.5166931-0.2143555-1.5703735-0.2605667-2.3798828c-0.0279846-0.4902802-0.2566757-1.1319351,0.2343674-1.4616318
		c1.0528488-0.7068481,2.1691208-1.5746231,3.4139328-1.5836868c1.2940369-0.0094452,2.4413071,0.9048843,3.5256424,1.6150284
		C122.5105591,125.7975159,121.9905701,126.6708145,122.1915131,127.2578659z"></path>
	<path d="M114.6792984,114.6364822c0.1362076-0.6646118-0.319725-1.5397186,0.2738876-1.9466324
		c1.0413818-0.7138672,2.2183609-1.5986252,3.381485-1.6654816c1.2223892-0.0702667,2.4547195,0.8820648,3.5079422,1.6327896
		c0.7364502,0.5249329,0.2370987,1.5718842,0.2917557,2.3805008c0.0330505,0.4888763,0.2783279,1.1628647-0.2095261,1.4635696
		c-1.1138916,0.6865845-2.2776108,1.6258163-3.5268173,1.6448975c-1.2061005,0.018425-2.3578415-0.9042511-3.4122849-1.6060638
		C114.3427963,116.1121292,114.8402481,115.2661285,114.6792984,114.6364822z"></path>
	<path d="M122.1898422,216.1482544c-0.1696625,0.6965485,0.3210602,1.5603485-0.3314896,1.9661255
		c-1.1054611,0.6874084-2.3364105,1.6065369-3.5187378,1.6125488c-1.1307755,0.0057526-2.3635254-0.8988342-3.3661118-1.6502686
		c-0.6546555-0.4906769-0.2200089-1.5027313-0.254776-2.2774658c-0.0237427-0.5293427-0.2618637-1.2022858,0.2789078-1.5700073
		c1.052803-0.7159119,2.1938858-1.6403961,3.4026489-1.6136627c1.2488785,0.0276184,2.4430847,0.9174805,3.5128326,1.6584473
		C122.5056229,214.6843872,121.9978561,215.5568695,122.1898422,216.1482544z"></path>
	<path d="M122.1760788,203.4458618c-0.1393738,0.6544342,0.3211594,1.5253143-0.2832413,1.9259949
		c-1.0797424,0.7157745-2.2339935,1.6292725-3.5228195,1.6135254c-1.2392044-0.0151062-2.4356689-0.7976074-3.3941345-1.6097412
		c-0.6667709-0.5649414-0.2165604-1.5825043-0.2558746-2.3937988c-0.0234909-0.4848175-0.2822189-1.1461182,0.238678-1.4465179
		c1.0978622-0.6331787,2.2420273-1.5229645,3.4134979-1.599472c1.2324142-0.0805054,2.4194107,0.9060974,3.5106049,1.6086426
		C122.5140457,201.950882,122.0189285,202.8123474,122.1760788,203.4458618z"></path>
	<path d="M122.1769333,101.9213943c-0.1362305,0.6317215,0.3043976,1.452301-0.2403412,1.8427887
		c-1.0636597,0.7624817-2.2785263,1.6625671-3.5139313,1.6737366c-1.179985,0.0106583-2.4139023-0.7947845-3.3998642-1.6010818
		c-0.6975861-0.5704651-0.2579575-1.5102463-0.3007889-2.2797318c-0.0294647-0.5291901-0.2959442-1.2414474,0.228157-1.5811539
		c1.0661621-0.6910706,2.1943436-1.5561447,3.4300919-1.5999146c1.2477188-0.0441818,2.3634644,0.8908844,3.4431839,1.5474167
		C122.5511322,100.3659363,121.991333,101.2655029,122.1769333,101.9213943z"></path>
	<path d="M118.1356277,70.1273117c-0.1410599,0.6565399,0.3258896,1.5321579-0.2575226,1.9405289
		c-1.0335693,0.7234726-2.1751633,1.5888443-3.4270782,1.586235c-1.2965851-0.0027008-2.4733887-0.8849335-3.5278778-1.6365738
		c-0.6406631-0.456665-0.2170944-1.4274979-0.2459335-2.1628799c-0.0208588-0.5321121-0.29422-1.2604828,0.2343979-1.5778275
		c1.1221085-0.6736526,2.3314972-1.6206284,3.520752-1.6435013c1.1348877-0.021843,2.3508759,0.8924255,3.4123459,1.5788116
		C118.4667358,68.6143265,117.9880142,69.484787,118.1356277,70.1273117z"></path>
	<path d="M118.0891647,44.7041435c0.3880157,1.5037346-0.2658844,2.3511848-1.6523514,2.7853661
		c-0.7465897,0.2337952-1.3958435,1.0821304-2.1607132,0.8356285c-1.1614532-0.3743172-2.2462921-1.0191002-3.3152084-1.6332817
		c-0.5371094-0.3086205-0.2195587-0.9524078-0.3058319-1.4418335c-0.3066635-1.7399483,0.2780762-2.8967552,2.0822144-3.3343506
		c0.6489563-0.157402,1.1820145-0.9867439,1.8140717-0.7683792c1.1565018,0.3995476,2.2821808,0.9756432,3.299057,1.6589394
		C118.4672775,43.2207451,117.9833603,44.0819206,118.0891647,44.7041435z"></path>
	<path d="M118.1231842,260.622345c-0.1586304,0.614502,0.3845139,1.5193176-0.308754,1.9571838
		c-1.0636673,0.6717224-2.1818008,1.5859985-3.4419327,1.5243225c-1.2409821-0.06073-2.4030914-0.8608704-3.4156418-1.6033936
		c-0.68853-0.5049133-0.2393112-1.495697-0.2782059-2.2641602c-0.0265121-0.5237122-0.2923279-1.2290955,0.2797699-1.5562134
		c1.0996475-0.6287842,2.1772614-1.4575806,3.439621-1.5917969c0.9845352-0.1047058,1.782959,0.8222046,2.7237549,1.1128845
		C118.462822,258.6155396,118.0504532,259.6654358,118.1231842,260.622345z"></path>
	<path d="M118.1252213,159.1090088c-0.1373825,0.5961609,0.336113,1.4513092-0.2898102,1.8695984
		c-1.0492172,0.7011871-2.1924591,1.6025848-3.4153824,1.5831604c-1.2188263-0.0193787-2.3739853-0.8865967-3.4102173-1.6063385
		c-0.7506561-0.5214081-0.2790451-1.4893341-0.3317337-2.2528229c-0.0364304-0.527771-0.2649384-1.2108612,0.2744751-1.5713959
		c1.0888443-0.7277069,2.2785645-1.5079956,3.5307007-1.6201782c0.8569107-0.076767,1.768898,0.8109589,2.7012177,1.1404572
		C118.4974976,157.115509,118.0222397,158.1771545,118.1252213,159.1090088z"></path>
	<path d="M118.1280975,82.9200058c-0.1468658,0.6068268,0.3430862,1.4740753-0.2763138,1.8800812
		c-1.0518494,0.6894531-2.1850281,1.6170959-3.424057,1.5459976c-1.2644653-0.0725479-2.5149002-0.8210068-3.5187302-1.6411133
		c-0.6225662-0.5086288-0.1996613-1.5096054-0.2343674-2.2864838c-0.021965-0.4916611-0.2619324-1.1607742,0.2465668-1.4537659
		c1.1284637-0.6501999,2.2283859-1.5336151,3.5428772-1.6153641c0.9746704-0.0606079,1.7867432,0.8191681,2.7210617,1.136261
		C118.5188217,80.9382553,118.0113525,82.0073471,118.1280975,82.9200058z"></path>
	<path d="M118.1340256,247.9552307c-0.1562347,0.6280823,0.3402557,1.4928131-0.2940521,1.8998413
		c-1.0597916,0.6799622-2.1754303,1.5759735-3.4327164,1.554184c-1.2505798-0.0216675-2.382431-0.884201-3.4234848-1.5841064
		c-0.7287903-0.489975-0.2591095-1.4873505-0.3043365-2.2524261c-0.0310364-0.5250244-0.2912216-1.2262878,0.2501678-1.5688324
		c1.1042786-0.6986389,2.2662964-1.4629059,3.555191-1.5968323c0.9591522-0.0996704,1.779213,0.8210907,2.7156219,1.1332092
		C118.5505829,245.9903412,117.9811935,247.0792542,118.1340256,247.9552307z"></path>
	<path d="M118.1214752,171.8186646c-0.1320953,0.5859833,0.3421555,1.4517517-0.2803879,1.8605804
		c-1.020462,0.6701202-2.1714706,1.5016174-3.2991791,1.5517731c-1.2334595,0.0548706-2.4694672-0.8194275-3.5325851-1.5708618
		c-0.7478943-0.528656-0.2790833-1.4902039-0.331192-2.2532196c-0.0359955-0.5272522-0.2749329-1.2397003,0.2717209-1.5646057
		c1.0889511-0.6472473,2.2127151-1.3913574,3.416275-1.6398163c0.9106369-0.1880341,1.7710419,0.7985687,2.7077713,1.1001129
		C118.4414444,169.7428741,118.0616684,170.8187561,118.1214752,171.8186646z"></path>
	<path d="M118.1251144,121.0033951c-0.1644745,0.6143723,0.3568802,1.4718246-0.3613815,1.9575272
		c-1.0173111,0.6879349-2.1624603,1.5043259-3.325676,1.4819946c-1.260025-0.0241928-2.4679031-0.8767014-3.4983139-1.6678619
		c-0.6389847-0.4906235-0.2371292-1.4305038-0.2631607-2.1649857c-0.0186996-0.5277786-0.2855148-1.2361755,0.2784195-1.5596085
		c1.1333618-0.6499863,2.3010941-1.4543991,3.5369263-1.6361237c0.820816-0.1207047,1.7597961,0.797226,2.6898727,1.1259155
		C118.490654,119.0028,118.0258179,120.0619583,118.1251144,121.0033951z"></path>
	<path d="M118.0890045,108.3253632c-0.1757965,0.6539764,0.4945526,1.6674881-0.4429092,2.0142517
		c-1.450531,0.5365372-2.6956863,2.3226013-4.5499344,0.9330902c-0.0629807-0.0472031-0.1396561-0.076622-0.2110367-0.1121292
		c-2.4634552-1.2252884-2.5213013-1.3324509-2.2252808-4.1242523c0.0125656-0.1185379,0.0021362-0.2451096,0.0407944-0.3543701
		c0.2450104-0.6923676,3.6909637-2.1758347,4.3663559-1.8705444c0.4715195,0.2131424,0.908783,0.5095825,1.3907471,0.6906052
		C117.7742004,105.9964523,118.5108566,106.8036575,118.0890045,108.3253632z"></path>
	<path d="M118.1195297,197.2075806c-0.1318741,0.5762634,0.3447418,1.4377899-0.2601013,1.8548584
		c-1.0361023,0.7144012-2.2095337,1.6792145-3.3931808,1.5769501c-1.2185745-0.1052551-2.4428635-0.9279938-3.5148697-1.6568451
		c-0.6656494-0.4525604-0.2411652-1.4163055-0.2757645-2.1470032c-0.0252075-0.532486-0.2662277-1.2358246,0.2604752-1.5743866
		c1.0978012-0.705658,2.2333298-1.5183563,3.5209656-1.6696472c0.9611206-0.1128998,1.7693024,0.8321991,2.6993179,1.1567993
		C118.4564667,195.2020416,118.0516968,196.2410126,118.1195297,197.2075806z"></path>
	<path d="M118.1339264,222.5678101c-0.2307281,0.6624756,0.4661865,1.6858368-0.5763016,2.0717926
		c-1.4124451,0.5229034-2.5930328,2.2644348-4.4156952,0.9407501c-0.3181763-0.2310638-0.6896133-0.4235382-1.0658035-0.5337524
		c-1.2034607-0.3525848-1.62854-1.1337738-1.4221191-2.3353424c0.1181107-0.6875305-0.3336411-1.5803528,0.3026505-2.0430145
		c1.0533829-0.7659302,2.2313461-1.518219,3.5166702-1.6763916c0.9586029-0.1179657,1.774086,0.8280792,2.712265,1.1375122
		C118.528389,220.5722809,118.001976,221.6537628,118.1339264,222.5678101z"></path>
	<path d="M118.1203156,57.5012283c-0.1271515,0.5824623,0.3373108,1.4409676-0.2400131,1.8653107
		c-1.0172424,0.7476807-2.2026672,1.5159264-3.4266052,1.5645828c-1.2881699,0.0512085-2.477623-0.8481483-3.5166702-1.6099968
		c-0.6667175-0.4888535-0.2184906-1.4979095-0.2608337-2.2698364c-0.0269623-0.4915009-0.2724075-1.1734924,0.2176132-1.4607353
		c1.1232605-0.6584282,2.2187195-1.5302162,3.5313492-1.6499481c0.9890594-0.0902176,1.7851791,0.8127403,2.7229996,1.1187325
		C118.461731,55.4879265,118.0515213,56.5393944,118.1203156,57.5012283z"></path>
	<path d="M118.1493149,133.648941c-0.2313385,0.7163239,0.4361343,1.7315521-0.6037827,2.1234741
		c-1.4172211,0.5341187-2.62043,2.2355194-4.4365005,0.9182587c-0.2861481-0.20755-0.6214447-0.3758698-0.9594879-0.4783783
		c-1.229332-0.372818-1.7120972-1.1746674-1.4928131-2.4272461c0.1195602-0.6829529-0.3596115-1.5807953,0.3073807-2.0266876
		c1.082077-0.7234039,2.2758789-1.638092,3.5182114-1.6400604c1.2399597-0.0019531,2.4659805,0.8636169,3.4706345,1.6912537
		C118.4244843,132.1979828,118.0105591,133.031189,118.1493149,133.648941z"></path>
	<path d="M118.1334839,273.3754272c-0.161911,0.6225891,0.3441162,1.4779358-0.3069916,1.8988037
		c-1.0298157,0.6656494-2.1153641,1.5057373-3.3356094,1.5350037c-1.3273087,0.0317688-2.4530029-0.9229736-3.5229034-1.6498108
		c-0.7158127-0.4862976-0.2424011-1.4918213-0.2886734-2.2593994c-0.0314484-0.521698-0.2900925-1.2222595,0.3132248-1.5472717
		c1.1173172-0.6019897,2.1951065-1.5449524,3.4620972-1.5195923c0.9194565,0.0184021,1.8026505,0.7911682,2.7422791,1.108429
		C118.5426788,271.3959961,117.9890671,272.4859924,118.1334839,273.3754272z"></path>
	<path d="M118.1250763,146.4010315c-0.1371536,0.6003571,0.341568,1.474472-0.2861938,1.8730621
		c-1.0641556,0.6756592-2.2538605,1.4980164-3.4278488,1.5602417c-1.1830521,0.0626984-2.3719864-0.8499146-3.4001312-1.5800629
		c-0.7433395-0.5278931-0.2857742-1.4910889-0.3326721-2.2554016c-0.0322189-0.5251617-0.2827225-1.2417145,0.2863159-1.5554352
		c1.1419067-0.6295929,2.2251053-1.6338654,3.5157318-1.6530151c0.8927765-0.0132294,1.7714157,0.8296356,2.7025909,1.159729
		C118.4922943,144.4143219,118.0231247,145.4723816,118.1250763,146.4010315z"></path>
	<path d="M118.1313934,95.6012726c-0.152565,0.6216202,0.341713,1.4871826-0.2845612,1.9011993
		c-1.0539093,0.6967163-2.1788254,1.588913-3.4423599,1.5589142c-1.3040314-0.0309753-2.4494476-0.9548798-3.5021591-1.7073746
		c-0.6222992-0.4448395-0.1984406-1.430069-0.2245483-2.1676788c-0.0186081-0.5257416-0.2927322-1.2229996,0.292717-1.5576324
		c1.10289-0.630394,2.184906-1.4890747,3.4578018-1.5618439c0.9648819-0.0551529,1.8043213,0.7910309,2.7416153,1.1091309
		C118.5020523,93.6280746,118.0133514,94.6961441,118.1313934,95.6012726z"></path>
	<path d="M118.1194687,209.9687653c-0.134491,0.5731812,0.3390808,1.4122009-0.2999344,1.8467407
		c-1.0455627,0.7110138-2.2615128,1.6060791-3.4224014,1.5198212c-1.2078705-0.0897522-2.4270248-0.9557495-3.4904709-1.6980896
		c-0.6016998-0.4200439-0.2129898-1.3503113-0.2300491-2.0461884c-0.0139008-0.566864-0.2834091-1.2915955,0.3133621-1.6715393
		c1.0696564-0.6809845,2.1812668-1.4657593,3.418457-1.6177979c0.937973-0.1152496,1.7855911,0.7779083,2.7198257,1.0975037
		C118.4784317,207.861145,118.0473328,208.9651489,118.1194687,209.9687653z"></path>
	<path d="M118.1220016,235.2341614c-0.1282349,0.5933533,0.3369751,1.4575195-0.2423019,1.881424
		c-1.0224152,0.7481995-2.208931,1.5137634-3.4435883,1.5644073c-1.2529831,0.0513916-2.3936539-0.852417-3.441185-1.5507202
		c-0.7480087-0.4986267-0.2580719-1.4905243-0.3161469-2.2563171c-0.0372009-0.4906158-0.2797012-1.1717377,0.1956787-1.471405
		c1.1069107-0.6977844,2.2052612-1.5693054,3.5191498-1.7154388c0.9935226-0.1105042,1.7924881,0.8138428,2.7362976,1.111084
		C118.463707,233.2173004,118.0515213,234.2750854,118.1220016,235.2341614z"></path>
	<path d="M118.1209106,184.479599c-0.1592941,0.6021423,0.3744507,1.4837189-0.3296585,1.9454651
		c-1.0226898,0.6706848-2.1308289,1.5301056-3.3083725,1.5400696c-1.2802811,0.0108337-2.4161987-0.9662323-3.5084-1.6611176
		c-0.6894302-0.4386292-0.2709122-1.4089813-0.2975006-2.1371155c-0.0206833-0.5662231-0.2811584-1.2921753,0.3236771-1.6684113
		c1.0759048-0.66922,2.1929703-1.52034,3.4193573-1.5833588c0.8806534-0.0452423,1.7770538,0.8092041,2.7138824,1.1189575
		C118.4524155,182.469986,118.0537796,183.5105133,118.1209106,184.479599z"></path>
	<path d="M114.7123795,36.7248611c1.1043625-0.1141243,2.2337952-0.0674019,3.2866821-0.5117226
		c1.0327682,0.1607895,2.009903-0.3130569,3.0314636-0.2653961c1.3371735,0.3556175,1.0372314,1.4336815,1.151001,2.4095573
		c0.1684113,1.4446678-0.325058,2.2370796-1.7015228,2.8038864c-1.9873123,0.8183289-3.7823868,0.6855583-5.450264-0.7084541
		c-0.3326416-0.2780266-0.3286133-0.612339-0.3282394-0.9702301
		C114.7024384,38.5632858,114.7084122,37.6440735,114.7123795,36.7248611z"></path>
</g>
<g onclick="select(this)" class="" id="gola-primaria" fill="#bf0811">
	<path d="M109.3256989,35.9207878c-0.1734467,0.532753-0.5917358,0.2743607-0.9039154,0.2516022
		c-4.1043777-0.299221-7.9513092-1.505722-11.6402817-3.2895241c-5.3551407-2.5894814-10.2299652-5.8816833-14.3707428-10.1524506
		c-2.6511154-2.734333-4.9007111-5.7867432-5.7837296-9.6242762c-0.2346497-1.0197554-0.4030762-2.0421906-0.2305679-3.0806484
		c0.1655655-0.9966812,0.9428787-1.529851,1.6987534-2.062746c0.5144196-0.0249214,0.9029312-0.3084855,1.2525024-0.6408176
		c0.9263763-0.8806958,2.0002518-1.6613083,2.7274628-2.6858997c2.0422745-2.8774152,5.0195923-3.6035271,8.2394028-3.9384618
		c3.0734558-0.3197089,6.1407471,0.0640202,9.2119827,0.0276009c4.3973541-0.0521445,8.7971802,0.0443054,13.1931534-0.0513445
		c7.9102249-0.1721148,15.8182297,0.0474188,23.7272263,0.0364116c0.9124146-0.0012698,1.828537,0.1745476,2.7369537,0.3088157
		c2.2481232,0.332287,4.1498718,1.1915944,5.5701294,3.1200867c1.2012482,1.6310925,2.6129456,3.1247711,4.4388733,4.1271977
		c1.6919098,0.471426,2.2952423,2.5105724,1.6758423,4.7444515c-1.1704712,4.2214594-3.5445099,7.6803961-6.6416321,10.6471872
		c-2.7457275,2.6302032-5.8013458,4.901825-9.102417,6.8089809c-4.071167,2.3520851-8.2753143,4.4175797-12.9284058,5.3568268
		c-1.3970261,0.2819977-2.8357391,0.3577576-4.2551346,0.5281792c0.4981461-1.1476097,1.3241043-2.0655403,2.1212006-3.0007629
		c2.248703-2.6383533,4.9448242-4.810585,7.4805527-7.1498508c2.1459198-1.6623192,4.2819519-3.3376217,6.4404449-4.9834862
		c2.392868-1.8246021,4.6131897-3.8312626,6.5503387-6.1364632c1.4909363-1.7742386,2.8118439-3.6581097,3.6611938-5.995595
		c-2.0445251,0.171031-3.9476471,0.3502245-5.8538818,0.4858923c-5.379715,0.3828764-10.7599335,0.7590179-16.1413574,1.1168613
		c-5.5895386,0.3716831-11.1788483,0.4153547-16.7722092,0.018959c-7.1327515-0.5054932-14.2606812-1.060936-21.3717041-1.816123
		c-0.7256699-0.0770664-0.9725952,0.1089544-0.6669769,0.8316221c0.5152588,1.2184,1.126152,2.3757305,1.9132462,3.447176
		c3.9235306,5.3410435,9.441452,8.9155712,14.446228,13.0588207
		C103.1151276,29.2874451,106.6069336,32.222599,109.3256989,35.9207878z"></path>
</g>
<g onclick="select(this)" class="" id="gola-secundaria" fill="#ffffff">
	<path d="M127.5429077,26.2013435c-2.5357285,2.3392677-5.2318497,4.5114994-7.4805527,7.1498528
		c-0.7970963,0.9352226-1.6230545,1.8531532-2.1212006,3.0007591c-2.3132095,0.5602531-4.6457596,0.380825-6.9806519,0.1973152
		c-0.6160583-0.0484238-1.1409073-0.2847061-1.6344376-0.6280861c-2.7191315-3.6985855-6.2109375-6.6337395-9.5777512-9.6924343
		c2.8338776-0.0287647,5.6676941-0.0822201,8.5014725-0.080719
		C114.6808319,26.1514378,121.1118698,26.1818867,127.5429077,26.2013435z"></path>
</g>
</svg>
