<!--?xml version="1.0" encoding="utf-8"?-->
<!-- Generator: Adobe Illustrator 24.2.3, SVG Export Plug-In . SVG Version: 6.00 Build 0)  -->
<svg version="1.1" id="Camada_1" xmlns="http://www.w3.org/2000/svg" xmlns:xlink="http://www.w3.org/1999/xlink" x="0px" y="0px" viewBox="0 0 229 418" enable-background="new 0 0 229 418" xml:space="preserve">
<g onclick="select(this)" class="" id="estampa-primaria" fill="#ffffff">
	<path d="M228.9600067,116.093399c-6.8571014,2.7822495-14.0121155,4.3370743-21.3362427,5.2273712
		c-6.1868591,0.7520599-12.368454,0.6976852-18.5519867,0.0140381c-1.5454559-0.1708679-3.0968781-0.3538818-4.5782013-1.2677536
		c-0.2199554,2.0793762-0.4086456,4.0580902-0.6417084,6.0315781c-0.8538513,7.2303009-1.2928009,14.4857788-1.360672,21.7647858
		c-0.0205078,2.2003937,0.0623932,4.3856812,0.517807,6.556076c0.4091797,1.9500275-0.1010284,3.8995209-0.1977386,5.8493652
		c-0.0355988,0.717926-0.1707764,1.4362183-0.1483612,2.1508484c0.2055359,6.549881-0.5930634,13.0964661-0.0467377,19.6483002
		c0.1228333,1.4733582,0.0373993,2.9524689-0.128479,4.4282837c-0.3486176,3.1020355,0.1955414,6.1179047,0.8783569,9.133194
		c1.6395416,7.239975,1.3817749,14.5227966,0.3444061,21.8104858c-0.3048859,2.1419525-0.3785248,4.2077332,0.3238068,6.355957
		c1.7737885,5.4254761,1.8165588,11.0054626,0.943222,16.6040192c-0.2310028,1.4808197-0.2509308,2.9245453,0.0898895,4.3920746
		c0.8876038,3.8216553,0.4447784,7.7210388,0.6464539,11.5834961c0.308197,5.9023438,0.6915741,11.8015137,1.4323425,17.6740112
		c0.2583313,2.0479736,0.224884,4.1368713,0.2556305,6.2081604c0.0256958,1.7302551-0.3531799,2.2260742-2.0658417,2.7414246
		c-3.0054626,0.9043579-6.1238403,1.1594543-9.2250977,1.4795837c-7.6872864,0.7935486-15.4051208,0.8666382-23.123642,1.0108948
		c-11.2354126,0.2099304-22.4668884,0.6517639-33.7026749,0.8135376c-12.4787674,0.179657-24.936409-0.845459-37.4167862-0.8475647
		c-8.3977737-0.0014343-16.797905-0.1000061-25.1787109-0.73526c-4.1492081-0.3144531-8.2847404-0.7519226-12.3537483-1.6697083
		c-0.1560364-0.0351868-0.3138123-0.0631714-0.4689255-0.1018372c-3.3675385-0.8405762-3.729023-1.1849976-3.5259438-4.6595764
		c0.4517288-7.7287292,1.0040855-15.4518127,1.5478287-23.174942c0.1460991-2.0751343,0.2783318-4.1479645,0.2284355-6.2277222
		c-0.0423241-1.7640381,0.0424042-3.5182648,0.3600349-5.2543335c0.4133606-2.2592926,0.4568634-4.5092621,0.1249275-6.7918701
		c-0.3660889-2.5175629-0.0983963-5.0300446,0.4432831-7.5034943c0.2180901-0.9958496,0.195961-1.9692535,0.1215553-2.9723206
		c-0.336792-4.5404205-1.0248642-9.0607758-0.8374214-13.6324158c0.1784706-4.3526611,1.2044525-8.5330353,2.6853447-12.6053009
		c0.3780708-1.0396423,0.6012306-2.0360565,0.4378281-3.144928c-0.1810989-1.2289734-0.1553574-2.4728088,0.0793152-3.7015228
		c0.3182716-1.6664276,0.183197-3.3283997,0.0996132-5.0111847c-0.1621933-3.2655487-0.1713448-6.5402069-0.1846046-9.8113403
		c-0.0524673-12.9395447-0.0425491-25.8795013-0.1395607-38.8186798c-0.038414-5.1238098-0.9970284-10.1758575-1.5123215-15.2630005
		c-0.131218-1.295433-0.3165131-2.5854034-0.4659805-3.7894058c-8.7987175,2.5404205-17.7214336,1.9815598-26.6416473,1.1304092
		c-4.741806-0.452446-9.4219036-1.3161163-13.9765768-2.7638702C1.8316439,118.6739197,0.9756763,118.3496017,0.24,117.772438
		c0-1.0394058,0-2.078804,0-3.1182098c0.3886503-0.0979767,0.2689478-0.4427795,0.3153924-0.6888885
		c0.3441262-1.8235321,0.6675487-3.6509476,1.0076697-5.4752502c1.8599573-9.9762039,2.9367695-20.0686417,4.416398-30.1010056
		C6.8598299,72.419899,7.5262547,66.427742,9.1545849,60.5976868c2.7158356-9.7237396,7.3670483-18.2610435,15.2138138-24.8508644
		c1.1002979-0.9240494,2.1522732-1.908123,3.1921444-2.9004936c0.5942116-0.5670662,1.2593575-1.017168,1.9867916-1.3651505
		c6.4953289-3.1071453,13.1113338-5.9370537,19.7744732-8.6652718c7.6037102-3.1133347,15.0100632-6.6465206,22.1374359-10.7465782
		c1.0358582-0.5958872,1.9914551-1.2535591,2.7835236-2.2022896c0.9345245-1.11936,2.1475449-1.9064846,3.7101288-1.9072599
		c-1.7067108,1.2581644-2.0866776,2.5338135-1.4845581,4.8333817c0.6667633,2.5464602,1.8320389,4.8321848,3.3867264,6.9568338
		c3.3269501,4.5466557,7.7954407,7.7559929,12.4609528,10.7306004c5.872467,3.7441292,12.360321,5.6922989,19.2632141,6.193306
		c5.2147064,0.378479,10.325737-0.3682213,15.2560577-2.1380272c2.6556473-0.9532814,5.1916733-2.1917076,7.64991-3.5758228
		c3.8891907-2.1898117,7.415802-4.8881588,10.5701141-8.0235748c2.838089-2.8211002,5.0895844-6.0975189,5.9576111-10.0776253
		c0.5877533-2.6949081,0.2448578-3.7869673-1.6442871-4.6568136c1.8040009-0.123147,2.9554596,0.9744577,4.0511017,2.1698017
		c0.2662506,0.2904806,0.4252472,0.6620398,0.7931213,0.8793755c3.9738922,2.3477592,7.8823395,4.7979689,12.1107788,6.7028666
		c10.4204865,4.6943989,21.101532,8.7826443,31.4798737,13.5730629c0.6920013,0.3194237,1.3066406,0.724474,1.8821259,1.2149258
		c1.0639801,0.9067917,2.1244659,1.8196297,3.2219086,2.6849899c3.6716614,2.895256,6.8238068,6.2698441,9.3999634,10.1694183
		c4.342453,6.5732765,6.7271576,13.896862,8.2562561,21.5540199c0.9705048,4.8599472,1.1772461,9.8393097,2.3999023,14.6610107
		c1.4536285,5.7324448,2.6221161,11.5251999,3.4730682,17.381134c0.5265961,3.6238251,1.0268097,7.2561493,1.7411194,10.8444443
		c0.1572876,0.7902069-0.1613617,1.8726273,0.7821503,2.458374
		C228.9600067,113.6947784,228.9600067,114.8940887,228.9600067,116.093399z"></path>
	<path d="M144.3056793,9.0716209c-0.8476105,2.2815924-2.0525665,4.1095562-3.492569,5.7695246
		c-6.4125214,7.3919783-14.2939911,12.224164-24.1360626,13.393693c-6.0921783,0.7239323-11.8413162-0.7903843-17.2688675-3.4482021
		c-5.6494904-2.7665043-10.3205185-6.7929859-14.1956177-11.738184c-0.7673187-0.9792147-1.2875595-2.1031981-1.7957001-3.2364836
		c-0.382309-0.8526554-0.112381-1.0213461,0.7168503-0.9401541c3.8547974,0.3774252,7.7088318,0.7718382,11.5699081,1.07374
		c6.369339,0.4980249,12.7413406,1.1686363,19.1342163,1.0081911c8.3439713-0.2094135,16.6710281-0.8258944,24.9881668-1.5415802
		C141.2539825,9.2892904,142.6843262,9.194108,144.3056793,9.0716209z"></path>
</g>
<g onclick="select(this)" class="" id="estampa-secundaria" fill="#000000">
	<path d="M0.24,114.6542282c0.6271161-1.7878494,0.8224663-3.6698303,1.1661001-5.5158844
		c1.7377599-9.3355179,2.6830091-18.7905045,4.2152777-28.158905c0.8371372-5.1183167,1.16395-10.3135071,2.2438636-15.4010773
		c2.5645728-12.0819054,7.5691438-22.7654305,17.4678421-30.6766548c0.7775764-0.6214561,1.4521866-1.3703766,2.1903515-2.0428543
		c0.3451481-0.3144302,0.6442928-0.7364502,1.2047501-0.6814384c-0.0749645,1.6059761,0.1229534,3.1710854,0.5459747,4.7288437
		c0.6680069,2.4599037,1.4169407,4.9054985,1.7061501,7.4531021c0.2146378,1.8907242,0.4906616,3.7744026,0.6715984,5.6699715
		c0.1705818,1.7870865,0.6796417,3.581852,0.7475548,5.4162331c0.0733261,1.9804459,0.2341652,3.9539604,0.2568321,5.9420509
		c0.0197411,1.7313614,0.3142319,3.4633598,0.2182579,5.2301826c-0.1990814,3.6648407-0.4385147,7.3668747,0.6670151,10.9356461
		c0.870327,2.8095245,2.2652817,5.4249191,3.2838707,8.1934357c1.2418289,3.3752823,2.4950294,6.7362823,3.232048,10.2573547
		c1.4714317,7.0297318,2.4152527,14.1403275,3.083271,21.2875595c0.0956345,1.0231552,0.4394264,2.0367966,0.1937675,3.082901
		c-2.6076508,1.4009094-5.5014153,1.7242203-8.3489456,1.8467484c-9.4315281,0.405838-18.8354473,0.1746674-28.0829659-2.0636215
		c-2.275907-0.5508652-4.5457335-1.1074448-6.6626148-2.1455231C0.24,116.8929443,0.24,115.7735825,0.24,114.6542282z"></path>
	<path d="M198.9492798,32.193943c0.0828857,2.8913574-1.1482391,5.5171928-1.6739044,8.2853203
		c-0.6529236,3.4384041-1.516861,6.8717194-1.5583191,10.3699036c-0.0311279,2.624855-0.6725616,5.152813-0.6838226,7.7827454
		c-0.022522,5.2558479-0.0332642,10.5199814-0.4218903,15.7707825c-0.3313751,4.4771729-1.6662903,8.6739502-3.4618073,12.747963
		c-1.6192932,3.6741028-2.6347046,7.5322571-3.5155945,11.4316025c-1.5335083,6.7881622-2.6850433,13.6340866-3.0792847,20.5925751
		c-0.0180206,0.3180313-0.0068359,0.6377106-0.0092621,0.9566269c-1.2092133,10.4014969-2.5391083,20.8274612-1.8426666,31.3033218
		c0.4762726,7.1637421-0.2927856,14.257782-0.2503052,21.3849945c0.0111847,1.8784332-0.0845337,3.7611389,0.0112915,5.634613
		c0.1634521,3.1956177,0.2180481,6.3759613-0.0296783,9.5769348c-0.3190308,4.1223755,1.321228,8.0088043,1.7123718,12.0587006
		c0.4197388,4.345993,0.6185608,8.683075,0.0735779,13.0327606c-0.307724,2.4560699-0.5639954,4.9186401-0.8354034,7.3791656
		c-0.048172,0.4367371-0.0223083,0.8622742,0.1295319,1.295639c2.2059479,6.2960052,2.4928589,12.7397766,1.4255066,19.2766266
		c-0.1702423,1.0426941-0.1786346,2.0525513,0.0632629,3.0855865c0.9680481,4.1340485,0.559906,8.3518524,0.7671051,12.5344696
		c0.2844086,5.742218,0.7003784,11.4784851,1.3840485,17.194397c0.2641449,2.2084656,0.1895905,4.4565735,0.2889252,6.685791
		c0.0548248,1.2302246-0.5783539,1.9311523-1.6734772,2.3232422c-1.5914917,0.5698547-3.2506714,0.828186-4.9135284,1.056427
		c-7.8588104,1.0787354-15.7657318,1.3553162-23.6872253,1.507019c-12.9133759,0.2472534-25.824707,0.6009216-38.7370529,0.9036255
		c-0.8785706,0.0206299-1.987587-0.0094299-2.8667068-0.0159607c0.0103836-0.3193665,0-0.6196289,0-0.9389954
		c0.0000381-82.8872375-0.0194321-165.8078156-0.0207062-248.6950684c2.5407333-0.0349236,5.037796-0.5681076,7.367691-1.1400261
		c8.5414581-2.0966644,15.6918335-6.6238842,21.9859924-12.6342602c2.701767-2.5799351,4.7475281-5.5838432,5.9295502-9.1463442
		c0.6358032-1.9162645,0.7891235-4.426156-0.8198853-5.3597393c1.5528717-0.0899782,2.4657135,0.9475689,3.371521,1.9553804
		c0.3452454,0.3841257,0.6681519,0.7420225,1.1163635,1.0370264c9.6365814,6.3423662,20.4152527,10.2876177,30.962326,14.7046118
		C190.0100861,28.037838,194.4651031,30.1446533,198.9492798,32.193943z"></path>
</g>
<g onclick="select(this)" class="" id="estampa-terciaria" fill="#bf083c">
	<path d="M109.8187256,286.2182617c0.003624-0.5596313,0.0104218-1.1192627,0.0104294-1.678894
		c0.000473-82.1123352,0.0002213-164.2246704,0.0053253-246.3370209c0.0000381-0.5535545-0.1057663-1.1208305,0.1232224-1.6602592
		c1.948288,0.279686,3.9111252,0.0722809,5.8636703,0.1868477c0.0012817,82.8872528,0.0025787,165.7745056,0.0025482,248.6617432
		c0,0.3193665-0.0193024,0.6387634-0.029686,0.9580994C113.8014984,286.3440247,111.8042221,286.5506897,109.8187256,286.2182617z"></path>
</g>
<g onclick="select(this)" class="selected" id="gola-primaria" fill="#000000">
	<path d="M77.9528961,7.9597788c0.7734909-0.0868554,1.2810745-0.6227632,1.8024139-1.1070566
		c0.7603989-0.7063622,1.6094208-1.3635068,2.2009125-2.1973295c2.3787308-3.3532748,5.9154663-4.1040101,9.6146927-4.1371012
		c10.8288574-0.0968688,21.6591644-0.0327392,32.4889069-0.0323138c3.6765366,0.0001444,7.3533707,0.0263636,11.0294876-0.0132293
		c2.1037445-0.022658,4.1253967,0.4074263,6.1430511,0.9059279c1.240509,0.306494,2.2250671,0.9727898,3.0632935,1.9657297
		c1.5145111,1.7940409,2.9762726,3.6627538,5.0728302,4.8576345c1.8892975,0.8698425,2.232193,1.9619017,1.6444397,4.6568098
		c-0.8680267,3.9801064-3.1195221,7.256525-5.9576111,10.0776253c-3.1543121,3.135416-6.6809235,5.8337631-10.5701141,8.0235748
		c-2.4582367,1.3841152-4.9942627,2.6225414-7.64991,3.5758228c-4.9303207,1.7698059-10.0413513,2.5165062-15.2560577,2.1380272
		c-6.9028931-0.5010071-13.3907471-2.4491768-19.2632141-6.193306c-4.6655121-2.9746075-9.1340027-6.1839447-12.4609528-10.7306004
		c-1.5546875-2.124649-2.7199631-4.4103737-3.3867264-6.9568338C75.8662186,10.4935923,76.2461853,9.2179432,77.9528961,7.9597788z
		 M144.3056793,9.0716209c-1.6213531,0.1224871-3.0516968,0.2176695-4.4796753,0.3405447
		c-8.3171387,0.7156858-16.6441956,1.3321667-24.9881668,1.5415802c-6.3928757,0.1604452-12.7648773-0.5101662-19.1342163-1.0081911
		c-3.8610764-0.3019018-7.7151108-0.6963148-11.5699081-1.07374c-0.8292313-0.081192-1.0991592,0.0874987-0.7168503,0.9401541
		c0.5081406,1.1332855,1.0283813,2.2572689,1.7957001,3.2364836c3.8750992,4.9451981,8.5461273,8.9716797,14.1956177,11.738184
		c5.4275513,2.6578178,11.1766891,4.1721344,17.2688675,3.4482021c9.8420715-1.169529,17.7235413-6.0017147,24.1360626-13.393693
		C142.2531128,13.1811771,143.4580688,11.3532133,144.3056793,9.0716209z"></path>
</g>
</svg>
