<!--?xml version="1.0" encoding="utf-8"?-->
<!-- Generator: Adobe Illustrator 24.2.3, SVG Export Plug-In . SVG Version: 6.00 Build 0)  -->
<svg version="1.1" id="Camada_1" xmlns="http://www.w3.org/2000/svg" xmlns:xlink="http://www.w3.org/1999/xlink" x="0px" y="0px" viewBox="0 0 229 418" enable-background="new 0 0 229 418" xml:space="preserve">
<g onclick="select(this)" class="" id="estampa-primaria" fill="#082890">
	<path d="M42.9602928,116.7164001c-0.4747734-1.0362549-0.4334412-2.1704178-0.6149864-3.2620163
		c-0.0788918-0.4743805-0.2090759-0.7692184-0.7576103-0.4257813c-1.1942673,0.7477036-2.585804,0.860054-3.9110947,0.9371338
		c-5.8554287,0.3405457-11.7007523,0.2427292-17.5689392-0.1051025c-5.5634871-0.3297729-10.8556004-1.624115-16.1255417-3.2111969
		c-0.8742104-0.2632675-1.7105-0.6524658-2.564301-0.9835968c1.2114221-6.4859848,1.8897208-13.0515976,2.9157929-19.5634613
		c1.2131705-7.6992493,1.8870273-15.4763565,3.3443131-23.135994c1.6228147-8.5296783,4.4224734-16.60186,9.6359348-23.6792755
		c2.1452084-2.9121742,4.5924034-5.5501862,7.4294682-7.7927399c1.3347797-1.055069,2.3002415-2.5391006,3.8297138-3.3372688
		c3.6157513-1.8869038,7.2569332-3.7296944,11.0313663-5.2824936c9.9913406-4.1104355,20.0001335-8.1808128,29.4634781-13.4455872
		c1.9746323-1.0985498,4.0052795-2.0829678,5.5196609-3.8964663c0.8405151-1.0065203,2.053421-1.6526542,3.4886932-1.5657496
		c-1.6951752,0.9627032-1.9875641,2.4714541-1.6415787,4.225287c0.069458,0.3520565,0.162674,0.6993542,0.2381592,1.0503035
		c0.7679443,3.5706453,2.8010712,6.4852514,5.2604828,8.9841585c6.7215652,6.8294926,14.5420456,11.885603,24.1252441,13.6971607
		c1.0372849,0.1960793,2.2091217,0.6353188,3.3250961,0.079052c0.4382095,0.2622757,0.8698425,0.524498,1.4047928,0.5634155
		c2.4011612,0.1747017,4.8029785,0.4159203,7.1798172-0.2133827c4.3983383-0.1303635,8.5261917-1.4232216,12.4221573-3.3037987
		c4.4538879-2.1498737,8.6113281-4.7973442,12.3613129-8.1006298c4.0634308-3.5793819,7.2878265-7.585907,8.2844849-13.0736294
		c0.2976379-1.638937-0.3014221-2.9380989-1.8267975-3.6108932c1.8821869-0.2961087,3.0521545,0.8640623,4.169632,2.0806007
		c0.3751526,0.4083967,0.7213287,0.7964602,1.2030029,1.1157064c8.8759308,5.8826933,18.7909851,9.6114683,28.5276642,13.6817732
		c5.0671997,2.1182919,10.0361633,4.448782,15.0894623,6.5913906c0.2848053,0.1207619,0.5545807,0.2899628,0.8083038,0.4692535
		c12.3845215,8.7518921,19.4391327,20.8448601,21.5984497,35.6760674
		c1.3791351,9.4724808,3.7397614,18.7322083,5.3073425,28.1521988c0.6753998,4.0587616,1.2511444,8.1341019,1.8721771,12.2019653
		c-0.6529999,0.3998947-1.3682098,0.6659775-2.1055756,0.8265991c-3.0330963,0.6607285-5.904892,1.8606415-8.9594421,2.4980545
		c-3.9027405,0.8144073-7.8183136,1.5320129-11.7696075,1.9611206c-5.554718,0.603241-11.1352081,0.2887573-16.7022247,0.0152206
		c-1.1105804-0.0545654-2.2037201-0.3564453-3.1722565-0.9701385c0.7558594-5.6992798,1.8459625-11.3341751,3.2065735-16.9198303
		c0.3008118-1.2349777,0.8565826-2.4168701,0.8358307-3.7247162c0.2794952-0.1628418,0.3426819-0.3475189,0.0062866-0.6156769
		c0,0.2388382,0,0.4297028,0,0.6205673c-0.4790192,0.3391571-0.5686188,0.9021378-0.7780151,1.3888016
		c-2.0314789,4.7210388-3.4780884,9.6449585-4.6640625,14.6216736c-2.0872192,8.7584763-3.5822449,17.6242294-4.4371948,26.6035614
		c-0.4523315,4.7509003-0.8161774,9.507431-1.1358795,14.2644348c-0.3236237,4.815033-0.4943695,9.6493683-0.4962006,14.4753571
		c-0.0065155,17.1103668-0.2881927,34.2207184,0.154068,51.3319397c0.1888428,7.3058624,0.2525177,14.6145172,0.5084229,21.9209747
		c0.1704407,4.866272,0.322525,9.7336121,0.4891968,14.6004944c0.2048492,5.9826202,0.4572906,11.9611664,0.740448,17.9404144
		c0.2378235,5.022583,0.4181061,10.0471191,0.8053589,15.0614319c-7.6599731,1.071991-15.3700409,1.3624268-23.0909576,1.453125
		c-12.9171753,0.1516418-25.828064,0.5593262-38.7398911,0.927124c-6.7663193,0.1927185-13.5062866-0.4621582-20.2625351-0.5741882
		c-8.7172699-0.1445923-17.4352112-0.2523804-26.1519547-0.4230347c-8.0376511-0.1573792-16.0750656-0.3626404-24.041729-1.6032715
		c-0.2762222-0.0430298-0.5503044-0.0997314-0.8247566-0.1500244c0.5248184-3.7615967,0.4722595-7.5618896,0.7283936-11.3416138
		c0.3828354-5.6496887,0.5852432-11.3135681,0.7608757-16.9746246c0.1361084-4.3873444,0.2959023-8.7726288,0.474575-13.1584625
		c0.2567482-6.3022766,0.3786621-12.610199,0.5362244-18.9162445c0.0947723-3.7930145,0.1758194-7.5927277,0.1745338-11.3804779
		c-0.0073166-21.5683136,0.6452637-43.1445618-0.6407623-64.7021484c-0.2013893-3.3758698-0.4503937-6.7434998-0.7333374-10.1125336
		c-0.4589691-5.46492-1.138485-10.8915634-2.0771561-16.298645c-1.0439987-6.0137711-2.1478043-12.0051498-3.9264946-17.8514938
		c-0.659687-2.1683044-1.2079697-4.3777847-2.1249275-6.509613c-0.3665085,0.2823029-0.3203545,0.6133347-0.2242126,0.82267
		c0.6978035,1.5193863,0.7705994,3.1697159,0.9770584,4.776535
		C41.7492332,106.981102,42.7934151,111.7942276,42.9602928,116.7164001z"></path>
	<path d="M127.5788727,26.2079639c-6.2144394-0.0198517-12.4288788-0.0521202-18.6433258-0.0542717
		c-3.065094-0.0010605-6.1302109,0.0535049-9.1955109,0.0832348c-4.9701691-4.1162624-10.4422836-7.6742306-14.3553085-12.9657612
		c-0.8149796-1.1020842-1.4508667-2.2845535-1.9744339-3.5440464c-0.3177567-0.7643843-0.0151596-0.8906355,0.675499-0.8244038
		c3.534523,0.3389521,7.0688553,0.6833668,10.6073151,0.9768419c3.9368591,0.3265152,7.8772125,0.6125641,11.8175964,0.8944664
		c9.2378693,0.6608925,18.4258499-0.2588043,27.6218948-0.8990793c3.2984009-0.2296505,6.5945892-0.4910288,10.0334015-0.7485323
		c-0.7754364,2.2337532-2.0528107,4.0438995-3.4651184,5.7618656c-1.859375,2.2617979-3.9963989,4.2427282-6.3094788,6.035264
		C132.119751,22.6839752,129.8496552,24.4464073,127.5788727,26.2079639z"></path>
</g>
<image overflow="visible" width="461" height="78" xlink:href="FDC96DCF.jpg" transform="matrix(1 0 0 1 -7894 -7770.1103516)">
</image>
<g onclick="select(this)" class="" id="estampa-secundaria" fill="#801815">
	<path d="M174.3967743,284.8035889c-2.2888794,0.3658142-4.6030426,0.4369812-6.9106445,0.5372314
		c-7.9725189,0.3463135-15.9520721,0.3966064-23.9300842,0.5079651c-3.189209,0.0445251-6.3735046,0.3215637-9.5663452,0.2087708
		c-0.0103455-3.4763184-0.0186768-6.9526978-0.0322571-10.4290161c-0.0042877-1.0965271-0.0107422-1.105957-1.1199646-1.1061707
		c-12.6282501-0.0022278-25.2564926-0.0021362-37.8847351-0.0002441c-1.1310577,0.0001831-1.1337891,0.0081177-1.1372757,1.2060852
		c-0.0097809,3.3566589-0.0170898,6.7132874-0.0253677,10.0699158c-4.2320404,0.0722656-8.4625473-0.0267334-12.6933746-0.1066284
		c-5.9881973-0.1130066-11.9797058-0.0915527-17.9637604-0.3673706c-3.265976-0.1506042-6.5410118-0.2246704-9.7799492-0.7469788
		c-0.0114555-2.9985046-0.020237-5.9970093-0.03582-8.9955139c-0.0054398-1.0455933-0.013092-1.0570679-1.0478897-1.0586548
		c-3.5587997-0.0054321-7.1176186,0.0004578-10.6764221-0.0036621c-1.0022507-0.0011597-1.002243-0.0101318-1.0699997-1.0344849
		c0.5970192-5.726532,0.7297363-11.4873657,1.2662277-17.2178345c0.276268-2.950882,0.3171196-5.9043579,0.3011894-8.8639069
		c-0.0081825-1.5211792,0.229435-3.0294647,0.4875832-4.5244598c0.2883415-1.6698151,0.3317337-3.3236084,0.0520859-4.9978943
		c-0.1976509-1.1833191-0.2488937-2.3825073-0.1245499-3.5823669c3.2323647-0.019455,6.4647331-0.0380859,9.6970901-0.0588226
		c1.103981-0.0070953,1.1141472-0.0095215,1.1143646-1.1003418c0.0025063-12.6552734,0.002739-25.3105164-0.000164-37.9657898
		c-0.0002365-1.0375671-0.0129166-1.042984-1.0525017-1.0514069c-2.2746735-0.0184479-4.5493965-0.030838-6.8240967-0.0456696
		c0.3623199-2.3826599-0.034687-4.7770844,0.0616302-7.1439667c0.1512833-3.7178345-0.1630669-7.4077911-0.1953621-11.1105042
		c-0.010498-1.2036133,0.1872673-2.3835907,0.23983-3.5783997c0.1406631-3.1971436-0.3143158-6.3751526-0.2820587-9.5677338
		c0.0302124-2.9907074,0.0692863-5.9813385,0.1044617-8.9719849c2.3184814-0.0187531,4.6370125-0.0336914,6.9554367-0.058075
		c0.9747658-0.0102539,0.9917641-0.0193024,0.9920578-0.9961548c0.0038795-12.6396942,0.0037918-25.2793884,0.0001144-37.9190903
		c-0.0002975-1.0189056-0.0159531-1.0294266-1.0807228-1.0316849c-2.8399239-0.0060349-5.6801147-0.0228577-8.5196228,0.0119858
		c-0.7348518,0.0090179-1.0250359-0.1625671-1.1043015-0.9677658c-0.210762-2.1410217-0.5495338-4.2696075-0.8447762-6.4021072
		c-0.5134621-3.7086487-0.9708443-7.4230499-1.9090614-11.0632019c-1.327137-5.1490784-3.1815605-10.1060791-5.3208427-14.9597473
		c-0.8771057-1.9900284-1.5740967-4.0011978-1.6882362-6.1920395c-0.0340958-0.6544495,0.1352882-0.9414215,0.850174-0.912941
		c1.2380028,0.0493469,2.4793968,0.0134048,3.719368,0.0133896c4.9598808-0.0000381,9.9197693,0.0027313,14.8796425-0.0023193
		c0.9988098-0.0010147,0.9998817-0.0146408,1.0199738-0.9636917c0.0050774-0.2398911,0.0008049-0.4799805,0.0008049-0.7199707
		c0.0000038-11.8797188-0.0000229-23.7594337,0.0000763-35.6391525c0.0000038-0.3199883,0.0058975-0.6400528,0.0006104-0.9599419
		c-0.0051231-0.3096809,0.0827484-0.5332489,0.4201736-0.6266861c2.0638618-0.5715141,4.0310364-1.3907547,6.2706299-1.3756027
		c10.7992516,0.073082,21.5992622,0.0336227,32.3990059,0.0319214c1.2383118-0.0001907,1.243515-0.0064545,1.2448578-1.241724
		C93.6571884,28.7692223,91.9904938,28.9598999,92,26c0.0012207-0.3806629-6.2395859-5.5727196-6-6
		c1.2840195-2.4786339-6.8163452-10.062315-5-12c6.3794785-6.8056531,25.2641373-4.7114487,34-3
		c13.1985931,2.5857472,31.565033,1.9518814,32,3c0,2.5642834-12.8730469,18.1902256-12.8728638,20.5410919
		c0.0001068,1.2399673,0.012558,2.4800987-0.0045166,3.7198257c-0.006897,0.5013008,0.1738586,0.7461281,0.6960754,0.7131996
		c0.3187103-0.020092,0.6397552-0.0023308,0.9597626-0.0023308c9.6797485,0.0000801,19.3598175,0.039917,29.039093-0.0285149
		c2.3602448-0.0166893,4.60495,0.2758484,6.7789459,1.1704941c0.5528564,0.22752,1.115509,0.4318466,1.6770172,0.6376495
		c1.2834473,0.4703979,1.1552124,0.0977898,1.1558533,1.6490936c0.004776,11.5997238,0.0026093,23.1994438,0.002594,34.7991676
		c0,2.0266266-0.0000458,2.0266266,2.0031128,2.0266266c5.6398773,0.0000076,11.2797241-0.0006638,16.9195862,0.0005035
		c1.2887573,0.0002747,1.3222809,0.0060043,1.2124786,1.3217316c-0.0760498,0.9112167-0.2745056,1.8115463-0.3937531,2.7199478
		c-0.4141388,3.1545258-1.4619293,6.1500092-2.6981812,9.028717c-1.1062622,2.5760193-2.0683746,5.1772842-2.831192,7.8611984
		c-1.231842,4.3340988-2.0380402,8.7643738-2.816391,13.1939316c-0.3500824,1.9923248-0.8609314,3.9793167-0.782608,6.0333328
		c-0.0101166,0.080864-0.0202332,0.1617279-0.0303802,0.2425995c-3.1160583,0.1565628-6.2341766,0.0280685-9.3511047,0.0670624
		c-1.225235,0.0153275-1.2303162,0.0084457-1.2307129,1.2473755c-0.0019073,5.8378067-0.0008545,11.6756134-0.0008545,17.5134125
		c-0.0000153,6.6374969-0.0002136,13.2749786,0.0001068,19.9124908c0.000061,1.380127-0.0903625,1.2742157,1.3151398,1.2790985
		c2.3588104,0.0081787,4.7176208,0.0173798,7.0764313,0.0261536c0.5244598,1.4377899,0.3546906,2.9234924,0.2129211,4.3822632
		c-0.2238922,2.3034363-0.5295563,4.6063995-0.3956299,6.9191437c0.2082214,3.5960999-0.2483215,7.1716614-0.2142792,10.7599487
		c0.0177765,1.8739624,0.0053101,3.745163,0.1559753,5.6190643c0.1469116,1.8269806,0.0797424,3.6588745-0.0984039,5.4945374
		c-0.2356873,2.4285889-0.0996704,4.8540039,0.5592194,7.2259827c-2.5145874,0.0153656-5.0291748,0.0283661-7.5437317,0.0471649
		c-1.0522766,0.0078888-1.0655975,0.0134888-1.0658264,1.0406494c-0.0029602,12.6972809-0.0030212,25.3945465,0.0009918,38.0918274
		c0.0003052,0.9670868,0.0172119,0.9791718,0.9910736,0.9830017c2.0762329,0.008194,4.1525726-0.0046692,6.2288208,0.0052185
		c1.2763214,0.0060883,2.5525208,0.0383301,3.8287659,0.0588379c0.107132,2.0059357-0.163269,3.9911804-0.4744568,5.95578
		c-0.2935791,1.8535614-0.1373596,3.6356659,0.2118683,5.4548645c0.4677734,2.4366455,0.6035919,4.910965,0.4945374,7.3937073
		c-0.1846008,4.2033844,0.3283386,8.3720856,0.6300049,12.5507355c0.1694794,2.3479309,0.4046021,4.6911621,0.5708466,7.0392761
		c0.0423737,0.5984802,0.349411,1.1530457,0.2446594,1.7659912c-0.4367218,0.0197144-0.8734283,0.0556335-1.3101807,0.0564575
		c-2.668869,0.0053101-5.3381195-0.023468-8.006424,0.0152588c-1.0993347,0.0159302-2.2143555-0.2045593-3.3005829,0.1427612
		c-0.2394714,1.0588379-0.0872498,2.1321106-0.1041718,3.1978455
		C174.4029999,280.1836243,174.4085083,282.4937439,174.3967743,284.8035889z M93.6550217,93.5136108
		c0-1.479248-0.0000153-2.9584808,0-4.4377289c0.0000458-4.8774948,0.0027771-9.7549896-0.0020599-14.6324921
		c-0.0009918-1.0006104-0.0140076-1.0008774-0.962677-1.0218353c-0.1198807-0.002655-0.2398682-0.0003662-0.3598099-0.0003662
		c-12.5135727,0.0000076-25.027153-0.0000076-37.5407333,0.0001755c-0.2398682,0.0000076-0.4801102,0.011528-0.7195053,0.0014954
		c-0.396244-0.0166168-0.5965652,0.1474075-0.5814934,0.5606155c0.0116539,0.3193436-0.0014725,0.6395416-0.0014801,0.9593658
		c-0.0002098,12.353653-0.0001755,24.7073212-0.0001717,37.0609741c0,0.2398758,0.0228691,0.4823761-0.0042877,0.7191391
		c-0.0755081,0.6581955,0.2566185,0.849968,0.84589,0.7870255c0.1581039-0.0168915,0.319561-0.0022812,0.4794769-0.0022812
		c12.5135841,0.0000229,25.0271568,0.0000381,37.5407372-0.0001144c0.2398682,0,0.4800491-0.0103607,0.7195282-0.0012665
		c0.395546,0.0150223,0.595665-0.1558304,0.585022-0.5627747c-0.007309-0.2796249,0.0014572-0.5596313,0.0014648-0.8394775
		C93.655098,105.9072495,93.6550522,99.7104263,93.6550217,93.5136108z M154.1964111,73.4211655
		c-6.2752991,0-12.5505981-0.0007401-18.8258972,0.0006256c-1.2374268,0.000267-1.2425232,0.0040054-1.2426453,1.2189407
		c-0.0013123,12.5506058-0.0012665,25.1012115-0.0001221,37.6518173c0.0001068,1.2106323,0.0046997,1.2144852,1.2483368,1.2145767
		c12.5506134,0.0009766,25.1012115,0.0009918,37.651825-0.0000153c1.2372131-0.0000992,1.2416229-0.0040588,1.2417297-1.2203293
		c0.0010986-12.5506058,0.0011597-25.1012115-0.0001221-37.6518173c-0.0001068-1.2095108-0.0051575-1.2129745-1.2471924-1.2132187
		C166.7470245,73.4204788,160.4717255,73.4211578,154.1964111,73.4211655z M93.6551361,174.0064545
		c0-6.3174438,0.000885-12.6348877-0.0007858-18.9523315c-0.0003128-1.2107544-0.0049438-1.2150726-1.2514496-1.2151794
		c-12.5549164-0.0010986-25.1098328-0.0010681-37.6647568-0.000061c-1.2453613,0.0000763-1.2502594,0.0040436-1.2503738,1.2116699
		c-0.0012169,12.5549316-0.0012054,25.109848,0.0000191,37.6647644c0.0001221,1.2108612,0.0050125,1.21492,1.2464104,1.2150116
		c12.5549164,0.0010681,25.1098404,0.0010834,37.6647568,0.0000458c1.2536011-0.0000916,1.2556229-0.0041809,1.2557907-1.3314667
		C93.6555176,186.401413,93.6550827,180.203949,93.6551361,174.0064545z M154.1949158,153.8382721
		c-6.2759705,0-12.5519409-0.0007782-18.8279266,0.0006714c-1.2346649,0.0002899-1.2391815,0.0042419-1.2393036,1.2220764
		c-0.0011292,12.5519409-0.0011139,25.1038818,0.0001068,37.6558228c0.0001221,1.2097473,0.0049744,1.2134857,1.2466278,1.2135925
		c12.5519409,0.0009613,25.1038971,0.0009766,37.655838-0.0000458c1.2344208-0.0000916,1.239212-0.0041046,1.2393188-1.2215729
		c0.0012054-12.5519409,0.0012054-25.1038971,0.0000153-37.655838c-0.0001068-1.2101135-0.0048981-1.2138062-1.2467499-1.2140808
		C166.7468567,153.8375397,160.4709015,153.8382721,154.1949158,153.8382721z M114.0048218,194.1208801
		c-6.3180008,0-12.6360092-0.0008392-18.9540176,0.0007324c-1.2298737,0.0003052-1.2349396,0.0046387-1.2350693,1.2298584
		c-0.0012436,12.5560303-0.0012054,25.1120605,0.0000916,37.6681061c0.0001221,1.2159271,0.0051651,1.2197418,1.2352982,1.2198334
		c12.5560303,0.0009613,25.1120682,0.0009918,37.6680984-0.0000305c1.2328339-0.0001068,1.2382965-0.0041351,1.2384491-1.2201233
		c0.0014191-12.5560455,0.0014038-25.1120758,0.0001831-37.6681061c-0.0001221-1.2246094-0.005127-1.229187-1.2389526-1.2295074
		C126.4808807,194.1199799,120.2428513,194.1208801,114.0048218,194.1208801z M73.6844101,234.2438965
		c-6.3171463,0-12.634285-0.0007019-18.9514313,0.0006256c-1.2405396,0.0002594-1.2451324,0.0039063-1.2452469,1.2145081
		c-0.0011482,12.5543213-0.001194,25.1086578,0.0000877,37.6629791c0.0001259,1.2043457,0.0052414,1.208252,1.2529564,1.208374
		c12.5543213,0.0010376,25.1086426,0.0010681,37.6629715,0c1.2454529-0.0001221,1.2504883-0.0043335,1.250618-1.216156
		c0.0012589-12.5543213,0.0012436-25.1086426-0.0000153-37.6629639c-0.0001144-1.2026672-0.0051727-1.2064514-1.2584152-1.2067261
		C86.1587677,234.2431335,79.9215851,234.2438965,73.6844101,234.2438965z M154.3300781,234.2438965
		c-6.3156586,0-12.6313171-0.0006714-18.9469757,0.0005646c-1.2502441,0.0002441-1.2552185,0.0036316-1.2553406,1.203949
		c-0.0012207,12.5513763-0.0011749,25.1027374-0.000061,37.6540985c0.0001068,1.2235718,0.0044861,1.2277527,1.2322998,1.2278748
		c12.5513916,0.0010681,25.1027527,0.0010376,37.6541443,0.0001221c1.2498932-0.0000916,1.2552185-0.0036621,1.2553558-1.2054443
		c0.0013275-12.5513916,0.0012207-25.1027832,0.0001831-37.6541443c-0.0000916-1.2221527-0.0042572-1.2260895-1.2324524-1.2263641
		C166.8015137,234.243103,160.5658112,234.2438965,154.3300781,234.2438965z M113.8333969,73.2263184
		c6.3179169,0,12.6358414,0.0011139,18.9537735-0.0009918c1.1637573-0.0003967,1.1703186-0.006424,1.1704712-1.1736679
		c0.0016174-12.5158882,0.0016022-25.0317726,0.0000458-37.5476608c-0.0000763-0.6127319-0.0016632-0.9214249-0.1569366-1.0769577
		c-0.3407135-0.3412781-1.0101471-0.1730728-1.0899353-0.1579971c-0.2846527,0.0537872-0.7522888-0.3918839-1.3627167-1.1997108
		C130.7101746,31.2251282,146.9039459,11.4785376,146,10c-4.4954681-7.3530245-28.7010803-2.105865-33-2
		c-2.581604,0.0635748-26.8498993-5.4880266-30,0c-3.0986481,5.3983831,14.913559,21.8182831,13.2253723,24.1992912
		c-0.5132904,0.7239418-0.9164505,1.1189461-1.1821518,1.0697975c-0.0803146-0.0148544-0.7331619-0.1789703-1.069313,0.1560364
		c-0.1567078,0.1561737-0.1580963,0.4687119-0.158165,1.0942421c-0.0013504,12.5158844-0.0014572,25.0317726,0.0002213,37.547657
		c0.0001526,1.1523819,0.0069885,1.1579819,1.1836166,1.1583557
		C101.2775192,73.2273636,107.5554504,73.2263107,113.8333969,73.2263184z M113.7972412,153.6475677
		c6.2375793,0,12.4751511,0.0025482,18.7127228-0.001709c1.6404877-0.0011139,1.4453278,0.1440277,1.4463348-1.5011749
		c0.0050812-8.3567505,0.0023193-16.7134857,0.0023193-25.0702286c0-4.1183929,0.0036469-8.2368011-0.002655-12.3551941
		c-0.0015259-0.9987793-0.0165558-0.9995804-0.9709778-1.021843c-0.1998291-0.0046539-0.399826-0.0007553-0.599762-0.0007553
		c-12.3551788-0.0000076-24.7103806,0-37.065567,0.0000381c-0.2399063,0-0.4810944,0.0165176-0.7194519-0.0025864
		c-0.5364761-0.0429764-0.8546524,0.1232834-0.7879639,0.7307816c0.0216751,0.1975098,0.0027161,0.3994675,0.0027161,0.5993881
		c-0.0000381,12.4351578-0.0000305,24.8703079,0.0000153,37.3054733c0,0.1999207,0.0133972,0.4008179-0.0016937,0.5995636
		c-0.0371628,0.4895477,0.1300507,0.7670746,0.6717834,0.7205963c0.238121-0.0204315,0.4795151-0.0023956,0.7194214-0.0023956
		C101.4020691,153.647583,107.5996552,153.6475677,113.7972412,153.6475677z"></path>
</g>
<g onclick="select(this)" class="" id="gola-primaria" fill="#082890">
	<path d="M149.2094116,8.2638474c1.5253754,0.6727943,2.1244354,1.9719563,1.8267975,3.6108932
		c-0.9966583,5.4877224-4.2210541,9.4942474-8.2844849,13.0736294c-3.7499847,3.3032856-7.9074249,5.9507561-12.3613129,8.1006298
		c-3.8959656,1.8805771-8.023819,3.1734352-12.4215469,3.3036346c0.4439621-1.0870743,1.2242584-1.9417343,1.9624023-2.8221397
		c2.2807617-2.7203178,5.0411224-4.9413967,7.6476059-7.3225307c2.2707825-1.7615566,4.5408783-3.5239887,6.8125305-5.2844219
		c2.3130798-1.7925358,4.4501038-3.7734661,6.3094788-6.035264c1.4123077-1.7179661,2.689682-3.5281124,3.4651184-5.7618656
		c-3.4388123,0.2575035-6.7350006,0.5188818-10.0334015,0.7485323c-9.1960449,0.640275-18.3840256,1.5599718-27.6218948,0.8990793
		c-3.9403839-0.2819023-7.8807373-0.5679512-11.8175964-0.8944664c-3.5384598-0.2934752-7.0727921-0.6378899-10.6073151-0.9768419
		c-0.6906586-0.0662317-0.9932556,0.0600195-0.675499,0.8244038c0.5235672,1.2594929,1.1594543,2.4419622,1.9744339,3.5440464
		c3.9130249,5.2915306,9.3851395,8.8494987,14.3551102,12.9660988c3.3906479,3.0813179,6.8935013,6.0518246,9.6438065,9.765501
		c-1.1159744,0.5562668-2.2878113,0.1170273-3.3250961-0.079052c-9.5831985-1.8115578-17.4036789-6.8676682-24.1252441-13.6971607
		c-2.4594116-2.4989071-4.4925385-5.4135132-5.2604828-8.9841585c-0.0754852-0.3509493-0.1687012-0.698247-0.2381592-1.0503035
		c-0.3459854-1.7538328-0.0535965-3.2625837,1.6415787-4.225287c0.5134506-0.0218778,0.9072037-0.2943282,1.2580032-0.6285534
		c0.9260712-0.8823042,2.002533-1.6617661,2.7296448-2.6873994c2.0413818-2.8794434,5.0124893-3.6546056,8.2393799-3.9380369
		c1.7071915-0.1499494,3.4185333-0.0953171,5.1352692-0.0670468c5.7580414,0.0948202,11.5201263,0.1279386,17.2777176,0.0232105
		c7.9139404-0.1439514,15.8250504,0.0526319,23.7374344,0.0421979c0.9127808-0.0012037,1.8291779,0.1756898,2.7380676,0.3096028
		c2.2507019,0.3316082,4.1469727,1.2028055,5.5693359,3.1286693C145.9642944,5.7785664,147.3631744,7.2865815,149.2094116,8.2638474
		z"></path>
</g>
<g onclick="select(this)" class="" id="detalhe-lateral" fill="#801815">
	<path d="M189.1187286,91.9191055c0.0207672,1.3078537-0.5350037,2.4897461-0.8358154,3.7247238
		c-1.360611,5.5856552-2.4507141,11.2205505-3.206665,16.9198532c-0.0795288,0.1283112-0.2240906,0.2542572-0.228775,0.3852234
		c-0.0873871,2.4405441-0.1581268,4.881691-0.2323608,7.3227081c-1.2229004,10.2748947-2.2837219,20.5613937-1.9575043,30.9325943
		c0.0736389,2.3410492,0.797821,4.6356354,0.467392,7.0157776c-0.3462524,2.4943085-0.4911041,5.0053406-0.4685364,7.5275726
		c0.0589142,6.5868073,0.0997314,13.1844635-0.1151276,19.7570038c-0.1461945,4.4721985,0.7111969,8.6969757,1.4259338,13.0036926
		c0.8487091,5.1140594,0.9467468,10.2419739,0.2397156,15.3864594c-0.320343,2.3309326-0.5420074,4.675354-0.8180695,7.0125122
		c-0.0545959,0.4621735,0.1269073,0.8696136,0.268158,1.2767944c2.0054626,5.7802429,2.5077667,11.7145386,1.488266,17.7164307
		c-0.4378662,2.577774,0.0995483,4.990921,0.4265137,7.4651794c0.1680603,1.2716827,0.270752,2.5463257,0.2411957,3.8262482
		c-0.1767273,7.6533051,0.6702118,15.2415619,1.395874,22.8400116c0.2152557,2.2537537,0.3289642,4.5205994,0.3050842,6.7921448
		c-0.0117188,1.1161499-0.5086517,1.8124084-1.5119324,2.1871033c-1.8345642,0.6850586-3.7211456,1.1192627-5.6911774,1.1219788
		c-0.3869781-5.0143433-0.5672607-10.0388794-0.8050842-15.0614624c-0.2831573-5.979248-0.5355988-11.9577942-0.740448-17.9404144
		c-0.1666718-4.8668823-0.3187561-9.7342224-0.4891968-14.6004944c-0.2559052-7.3064575-0.3195801-14.6151123-0.5084229-21.9209747
		c-0.4422607-17.1112213-0.1605835-34.2215729-0.154068-51.3319397c0.0018311-4.8259888,0.1725769-9.6603241,0.4962006-14.4753571
		c0.3197021-4.7570038,0.683548-9.5135345,1.1358795-14.2644348c0.85495-8.979332,2.3499756-17.8450851,4.4371948-26.6035614
		c1.1859741-4.9767151,2.6325836-9.9006348,4.6640625-14.6216736c0.2093964-0.4866638,0.298996-1.0496445,0.7780151-1.3888016
		L189.1187286,91.9191055z"></path>
	<path d="M42.9602928,116.7164001c-0.1668777-4.9221725-1.2110596-9.7352982-1.836174-14.600235
		c-0.206459-1.6068192-0.2792549-3.2571487-0.9770584-4.776535c-0.0961418-0.2093353-0.1422958-0.5403671,0.2242126-0.82267
		c0.9169579,2.1318283,1.4652405,4.3413086,2.1249275,6.509613c1.7786903,5.846344,2.8824959,11.8377228,3.9264946,17.8514938
		c0.9386711,5.4070816,1.618187,10.833725,2.0771561,16.298645c0.2829437,3.3690338,0.5319481,6.7366638,0.7333374,10.1125336
		c1.286026,21.5575867,0.6334457,43.1338348,0.6407623,64.7021484c0.0012856,3.7877502-0.0797615,7.5874634-0.1745338,11.3804779
		c-0.1575623,6.3060455-0.2794762,12.6139679-0.5362244,18.9162445c-0.1786728,4.3858337-0.3384666,8.7711182-0.474575,13.1584625
		c-0.1756325,5.6610565-0.3780403,11.3249359-0.7608757,16.9746246c-0.256134,3.7797241-0.2035751,7.5800171-0.7283974,11.3416138
		c-1.6038246-0.0620117-3.1353111-0.480835-4.6396866-0.9884033c-2.0908394-0.7053528-2.4320869-1.1882324-2.3479195-3.4199524
		c0.0989914-2.6248474,0.197197-5.2486877,0.4136772-7.8702698c0.437336-5.2962646,0.7230606-10.6051636,1.1734085-15.9001465
		c0.4059486-4.772995-0.0620041-9.599472,0.92173-14.3359985c0.1876183-0.9033508,0.1007004-1.8392181-0.0405083-2.7470551
		c-0.4917374-3.161377-0.3399315-6.2974091,0.3480263-9.408432c0.1770897-0.8007965,0.1348724-1.5744476,0.0753937-2.3760681
		c-0.3103065-4.1820526-0.8709526-8.3446655-0.8720856-12.5512238c-0.001297-4.8222198,1.0939598-9.4224854,2.6964912-13.9223022
		c0.3419991-0.9603271,0.5831757-1.8776855,0.4609985-2.9091187c-0.1840668-1.5539703-0.1225204-3.1095886,0.1561241-4.6584167
		c0.1124954-0.6253204,0.1623154-1.2735748,0.1449738-1.9087677c-0.1317635-4.8264465-0.596077-9.6676331-0.3566589-14.4743347
		c0.2951164-5.9250183-0.2425842-11.8177643-0.1111946-17.7308044c0.2468796-11.1105347,0.3711891-22.2281342-1.4012871-33.2613602
		c-0.2532234-1.5762482-0.3455887-3.1783066-0.5124054-4.7683258
		C43.5130882,119.230835,43.0641747,117.989357,42.9602928,116.7164001z"></path>
</g>
<g onclick="select(this)" class="" id="detalhe-punho" fill="#801815">
	<path d="M0.24,114.4800034c0.5011781-1.0351486,0.4661419-2.1857681,0.7000899-3.2784271
		c0.113247-0.5289154,0.0707367-1.1001892,0.4777295-1.5357361c0.8538009,0.331131,1.6900905,0.7203293,2.564301,0.9835968
		c5.2699413,1.5870819,10.5620546,2.881424,16.1255417,3.2111969c5.868187,0.3478317,11.7135105,0.4456482,17.5689392,0.1051025
		c1.3252907-0.0770798,2.7168274-0.1894302,3.9110947-0.9371338c0.5485344-0.3434372,0.6787186-0.0485992,0.7576103,0.4257813
		c0.1815453,1.0915985,0.140213,2.2257614,0.6149864,3.2620163c0.1038818,1.2729568,0.5527954,2.5144348,0.3481255,3.8155441
		c-2.8368149,1.3359146-5.8993645,1.7578812-8.957077,1.8165131c-7.1353283,0.1368103-14.2825813,0.308754-21.3680344-0.9193192
		c-3.5690641-0.6186142-7.1243963-1.2803345-10.5707636-2.41716c-0.7455329-0.2459259-1.4494541-0.6180038-2.1725433-0.9319763
		C0.24,116.8800049,0.24,115.6800079,0.24,114.4800034z"></path>
	<path d="M184.6151123,120.2716141c0.074234-2.4410172,0.1449738-4.882164,0.2323608-7.3227081
		c0.0046844-0.1309662,0.1492462-0.2569122,0.228775-0.3852234c0.9686279,0.6136703,2.0617676,0.9155502,3.172348,0.9701157
		c5.5670166,0.2735367,11.1475067,0.5880203,16.7022247-0.0152206c3.9512939-0.4291077,7.8668671-1.1467133,11.7696075-1.9611206
		c3.0545502-0.637413,5.9263458-1.837326,8.9594421-2.4980545c0.7373657-0.1606216,1.4525757-0.4267044,2.1055756-0.8265991
		c0.7637177,1.8882828,1.1708832,3.8486481,1.1733398,5.8877106c0.0027771,2.3117142,0.0072479,2.336937-2.2010193,3.0802231
		c-6.7021942,2.2558899-13.5599213,3.8489761-20.6104431,4.4470062c-6.01651,0.5103149-12.0468597,0.5391312-18.0522614-0.2441406
		C186.8805847,121.2452011,185.6448364,121.0471725,184.6151123,120.2716141z"></path>
</g>
<g onclick="select(this)" class="" id="gola-secundaria" fill="#801815">
	<path d="M109.3836441,36.0027657c-2.7503052-3.7136765-6.2531586-6.6841831-9.6436081-9.7658386
		c3.0653-0.0297298,6.1304169-0.0842953,9.1955109-0.0832348c6.214447,0.0021515,12.4288864,0.03442,18.6433258,0.0542717
		c-2.6064835,2.381134-5.3668442,4.6022129-7.6476059,7.3225307c-0.7381439,0.8804054-1.5184402,1.7350655-1.9624023,2.8221397
		c-2.377449,0.629467-4.7792664,0.3882484-7.1804276,0.2135468
		C110.2534866,36.5272636,109.8218536,36.2650414,109.3836441,36.0027657z"></path>
</g>
<path d="M189.1250305,91.9240036c0-0.1908646,0-0.3817291,0-0.6205673
	c0.3363953,0.268158,0.2732086,0.4528351-0.0062866,0.6156769
	C189.1187286,91.9191055,189.1250305,91.9240036,189.1250305,91.9240036z"></path>
</svg>
